<svg width="29" height="28" viewBox="0 0 29 28" fill="none" xmlns="http://www.w3.org/2000/svg">
<path d="M9.22921 20.8666L8.28046 19.4946C7.54218 19.9673 6.68976 20.2101 5.73421 20.2101C3.82101 20.2101 2.53006 19.1995 2.53006 17.6622C2.53006 16.1634 3.74741 15.2071 5.95687 15.0611L6.93889 14.9962L6.48187 12.989L5.67585 13.0678C2.05968 13.3999 0 14.9784 0 17.6814C0 20.4824 2.12906 22.3717 5.24437 22.3717C6.73523 22.3717 8.16632 21.8043 9.22921 20.8666ZM8.12671 8.58458L9.45983 6.63974C8.68147 6.33342 7.78101 6.1792 6.76124 6.1792C4.12804 6.1792 1.88929 7.39678 1.02562 9.20334C0.837187 9.57389 0.723281 9.96248 0.723281 10.2829C0.723281 10.9649 1.18922 11.4233 1.84242 11.4233C2.32124 11.4233 2.66483 11.218 2.88397 10.7849C3.66819 9.11145 4.89726 8.40364 6.71226 8.40364C7.22038 8.40364 7.69968 8.46856 8.12671 8.58458Z" fill="black"/>
<path d="M17.0311 25.021C23.3168 25.021 28.5405 19.7973 28.5405 13.5116C28.5405 7.22797 23.3051 2 17.0194 2C10.7358 2 5.51953 7.22586 5.51953 13.5116C5.51953 19.7973 10.7454 25.021 17.0311 25.021ZM17.0311 22.708C11.9086 22.708 7.84639 18.6362 7.84639 13.5116C7.84639 8.38694 11.8948 4.30342 17.0194 4.30342C22.1419 4.30342 26.2158 8.38905 26.2371 13.5116C26.2509 18.6341 22.1557 22.708 17.0311 22.708ZM17.523 23.9473L20.3662 23.9197V10.302C20.3662 6.77562 18.1226 4.38875 14.3644 3.8975C13.9453 3.84523 13.5049 3.8143 13.0603 3.80047L10.1051 6.82154C11.2162 6.51053 11.9473 6.40928 12.8306 6.40928C15.6963 6.40928 17.3761 7.95804 17.3761 10.5821V12.1909L11.513 12.5373C9.74578 12.6523 8.25468 13.0517 7.12992 13.7089L7.68843 16.9658C8.53827 15.6505 9.92905 15.0387 11.8643 14.9044L17.3761 14.5463V16.4127C17.3761 19.2856 14.94 21.5389 11.7877 21.586L14.1199 23.6117C15.6825 23.0119 16.9383 21.9957 17.5563 20.8008H17.523V23.9473Z" fill="black"/>
</svg>
