<svg width="28" height="28" viewBox="0 0 28 28" fill="none" xmlns="http://www.w3.org/2000/svg">
<path d="M0 14.0691C0 21.5879 2.1764 26.1383 7.2246 26.1383H11.9911V23.8402H7.2246C3.6499 23.8402 2.29592 20.1439 2.29592 14.0691C2.29592 7.99436 3.6499 4.29592 7.2246 4.29592H11.9911V2H7.2246C2.1764 2 0 6.54078 0 14.0691ZM5.82585 7.54271H7.97296V5.9274H5.82585C5.38499 5.9274 5.02194 6.29795 5.02194 6.74092C5.02194 7.18388 5.38077 7.54271 5.82585 7.54271ZM5.06272 11.0138H7.21194V9.39428H5.06272C4.61765 9.39428 4.25882 9.75311 4.25882 10.1982C4.25882 10.6433 4.61765 11.0138 5.06272 11.0138ZM4.77819 14.7535H6.92741V13.1382H4.77819C4.33311 13.1382 3.9689 13.5066 3.9689 13.9517C3.9689 14.3947 4.33311 14.7535 4.77819 14.7535ZM5.06272 18.507H7.21194V16.8875H5.06272C4.61765 16.8875 4.25882 17.258 4.25882 17.7031C4.25882 18.1482 4.61765 18.507 5.06272 18.507ZM5.82585 21.9739H7.97296V20.3586H5.82585C5.38077 20.3586 5.02194 20.7174 5.02194 21.1625C5.02194 21.6034 5.38499 21.9739 5.82585 21.9739ZM11.9911 23.8402C9.82732 23.8402 8.35849 19.9454 8.35849 14.0691C8.35849 8.18327 9.82732 4.29592 11.9911 4.29592C13.7252 4.29592 15.0075 6.79999 15.4413 10.8275L17.4131 9.06289C16.6026 4.67094 14.6407 2 11.9911 2C8.42366 2 6.11109 6.77023 6.11109 14.0691C6.11109 21.3584 8.42366 26.1383 11.9911 26.1383C14.6407 26.1383 16.6005 23.4556 17.4227 19.0679L15.4413 17.3087C15.0075 21.3266 13.7273 23.8402 11.9911 23.8402Z" fill="black"/>
<path d="M15.1342 14.8198L18.8326 18.087C19.5629 18.7461 20.6171 18.3629 20.6171 17.3119V15.214H26.8061C27.4731 15.214 27.9489 14.7076 27.9489 14.0787C27.9489 13.4307 27.4731 12.9338 26.8061 12.9338H20.6171V10.8082C20.6171 9.79669 19.5875 9.36544 18.8326 10.032L15.1342 13.3046C14.6326 13.7455 14.623 14.3715 15.1342 14.8198Z" fill="black"/>
</svg>
