<svg width="28" height="28" viewBox="0 0 28 28" fill="none" xmlns="http://www.w3.org/2000/svg">
<path d="M14.105 26.21C20.7369 26.21 26.2121 20.7273 26.2121 14.105C26.2121 7.47312 20.7273 2 14.0954 2C7.47523 2 2 7.47312 2 14.105C2 20.7273 7.48484 26.21 14.105 26.21ZM14.105 23.8255C8.71085 23.8255 4.39412 19.4991 4.39412 14.105C4.39412 8.71085 8.70124 4.38452 14.0954 4.38452C19.4895 4.38452 23.8276 8.71085 23.8276 14.105C23.8276 19.4991 19.4991 23.8255 14.105 23.8255Z" fill="black"/>
<path d="M14.0952 18.429C16.4746 18.429 18.4309 16.463 18.4309 14.1008C18.4309 11.7332 16.4746 9.77472 14.0952 9.77472C11.7447 9.77472 9.77663 11.7332 9.77663 14.1008C9.77663 16.463 11.7447 18.429 14.0952 18.429ZM16.1675 7.65925L14.5651 5.65932C14.3328 5.36096 13.9131 5.36096 13.6637 5.65932L12.0517 7.65925C11.6788 8.11206 11.8994 8.69589 12.5045 8.69589H15.7168C16.3082 8.69589 16.5308 8.09284 16.1675 7.65925ZM20.5581 16.1656L22.558 14.5632C22.8564 14.3309 22.8564 13.9016 22.558 13.6618L20.5581 12.0498C20.1053 11.6769 19.5214 11.8878 19.5214 12.5026V15.7053C19.5214 16.2966 20.1245 16.5193 20.5581 16.1656ZM16.1675 20.5562C16.5308 20.1226 16.3082 19.5195 15.7168 19.5195H12.5045C11.8994 19.5195 11.6788 20.1034 12.0517 20.5562L13.6637 22.554C13.9131 22.8545 14.3328 22.8545 14.5651 22.554L16.1675 20.5562ZM7.66116 16.1656C8.10436 16.5193 8.6978 16.2966 8.6978 15.7053V12.5026C8.6978 11.8878 8.12358 11.6769 7.66116 12.0498L5.66334 13.6618C5.36287 13.9016 5.36287 14.3309 5.66334 14.5632L7.66116 16.1656Z" fill="black"/>
</svg>
