<svg width="28" height="28" viewBox="0 0 28 28" fill="none" xmlns="http://www.w3.org/2000/svg">
<path d="M14.105 26.21C20.7369 26.21 26.2121 20.7273 26.2121 14.105C26.2121 7.47312 20.7273 2 14.0954 2C7.47523 2 2 7.47312 2 14.105C2 20.7273 7.48484 26.21 14.105 26.21ZM14.105 23.8255C8.71085 23.8255 4.39412 19.4991 4.39412 14.105C4.39412 8.71085 8.70124 4.38452 14.0954 4.38452C19.4895 4.38452 23.8276 8.71085 23.8276 14.105C23.8276 19.4991 19.4991 23.8255 14.105 23.8255Z" fill="black"/>
<path d="M15.87 19.9407C16.4583 19.3812 16.294 18.8818 15.6813 18.413L14.1276 17.1418C13.5363 16.6634 13.173 16.8659 12.7479 17.2548L12.6297 17.3612C12.228 17.6977 11.726 17.4376 10.4156 16.156C9.19172 14.9246 8.8739 14.3073 9.20836 13.9419L9.31687 13.8237C9.7207 13.3751 9.89437 13.0161 9.43195 12.4344L8.1682 10.8807C7.67062 10.2872 7.2075 10.1208 6.62132 10.692C5.04187 12.279 6.19289 15.1044 8.83968 17.7416C11.426 20.3492 14.2779 21.5403 15.87 19.9407ZM11.3876 12.8471H12.4146C12.8121 12.8471 13.0326 12.6116 13.0326 12.2291V11.2137C13.0326 10.812 12.8121 10.6053 12.4146 10.6053H11.3876C11.0051 10.6053 10.7791 10.812 10.7791 11.2137V12.2291C10.7791 12.6116 11.0051 12.8471 11.3876 12.8471ZM14.3276 12.8471H15.3504C15.7308 12.8471 15.9513 12.6116 15.9513 12.2291V11.2137C15.9513 10.812 15.7308 10.6053 15.3504 10.6053H14.3276C13.9354 10.6053 13.6861 10.812 13.6861 11.2137V12.2291C13.6861 12.6116 13.9354 12.8471 14.3276 12.8471ZM17.2345 12.8471H18.2594C18.6494 12.8471 18.8871 12.6116 18.8871 12.2291V11.2137C18.8871 10.812 18.6494 10.6053 18.2594 10.6053H17.2345C16.8541 10.6053 16.6336 10.812 16.6336 11.2137V12.2291C16.6336 12.6116 16.8541 12.8471 17.2345 12.8471ZM20.1607 12.8471H21.1856C21.5969 12.8471 21.8196 12.6116 21.8196 12.2291V11.2137C21.8196 10.812 21.5969 10.6053 21.1856 10.6053H20.1607C19.7824 10.6053 19.564 10.812 19.564 11.2137V12.2291C19.564 12.6116 19.7824 12.8471 20.1607 12.8471ZM11.3855 15.7754H12.4029C12.8121 15.7754 13.0326 15.5591 13.0326 15.1573V14.1399C13.0326 13.7403 12.8121 13.5315 12.4029 13.5315H11.3855C10.9859 13.5315 10.7791 13.7403 10.7791 14.1399V15.1573C10.7791 15.5591 10.9859 15.7754 11.3855 15.7754ZM14.3116 15.7754H18.2829C18.6729 15.7754 18.8913 15.5591 18.8913 15.1573V14.1399C18.8913 13.7403 18.6729 13.5315 18.2829 13.5315H14.3116C13.9237 13.5315 13.6861 13.7403 13.6861 14.1399V15.1573C13.6861 15.5591 13.9237 15.7754 14.3116 15.7754ZM20.1766 15.7754H21.209C21.6108 15.7754 21.8196 15.5591 21.8196 15.1573V14.1399C21.8196 13.7403 21.6108 13.5315 21.209 13.5315H20.1766C19.8037 13.5315 19.564 13.7403 19.564 14.1399V15.1573C19.564 15.5591 19.8037 15.7754 20.1766 15.7754Z" fill="black"/>
</svg>
