<svg width="28" height="28" viewBox="0 0 28 28" fill="none" xmlns="http://www.w3.org/2000/svg">
<path d="M5 19.8246C5 23.213 7.0789 25.3113 10.381 25.3113C12.8525 25.3113 14.6799 24.1894 15.8417 22.0748L16.8837 20.1881C19.1961 15.9305 23.3354 15.1251 23.3354 9.29578C23.3354 3.72492 19.7066 0 14.2723 0C8.73242 0 5 3.75468 5 9.36163V19.8246ZM7.05429 19.7264V9.36163C7.05429 4.97062 9.94085 2.05429 14.2723 2.05429C18.481 2.05429 21.2811 4.96218 21.2811 9.29578C21.2811 14.1253 17.483 14.9648 15.0212 19.3153L14.0501 21.015C13.2308 22.4829 12.1002 23.2186 10.4757 23.2186C8.34147 23.2186 7.05429 21.9014 7.05429 19.7264Z" fill="black"/>
<path d="M8.82471 16.4061C8.82471 17.6143 9.74299 18.4313 11.1162 18.4313C12.911 18.4217 14.1286 16.9639 14.1286 15.0793C14.1286 11.7676 10.7102 11.2051 10.7124 8.79871C10.7124 7.00738 12.1364 5.70496 14.2629 5.70496C16.4436 5.70496 17.8557 7.11824 17.8557 9.27872C17.8557 9.79504 18.2794 10.2285 18.7957 10.2285C19.3079 10.2285 19.7412 9.79504 19.7412 9.27872C19.7412 6.01528 17.5507 3.82153 14.2629 3.82153C11.01 3.82153 8.82471 5.90418 8.82471 8.79871C8.82471 11.3586 11.1364 12.1759 11.1364 13.2767C11.1364 14.517 8.82471 14.2653 8.82471 16.4061Z" fill="black"/>
</svg>
