<svg width="28" height="28" viewBox="0 0 28 28" fill="none" xmlns="http://www.w3.org/2000/svg">
<path d="M8.01578 27.2622C8.50023 27.2622 8.87382 27.0299 9.45835 26.489L13.7626 22.5944H21.4504C24.9784 22.5944 26.9547 20.5777 26.9547 17.0998V8.01138C26.9547 4.53349 24.9784 2.50708 21.4504 2.50708H6.50218C2.97625 2.50708 1 4.52388 1 8.01138V17.0998C1 20.5872 3.02476 22.5944 6.42836 22.5944H6.90109V25.9898C6.90109 26.7606 7.30984 27.2622 8.01578 27.2622Z" fill="black"/>
<path d="M8.05078 11.2961C8.05078 9.8125 9.16172 8.76672 10.657 8.76672C12.3033 8.76672 13.3791 10.0881 13.3791 11.7941C13.3791 14.7653 10.9699 16.3155 9.67101 16.3155C9.31851 16.3155 9.04383 16.064 9.04383 15.7382C9.04383 15.441 9.1875 15.2472 9.62133 15.1384C10.5183 14.9127 11.4356 14.2366 11.8367 13.2742H11.7028C11.3759 13.679 10.8593 13.7863 10.3132 13.7863C8.93578 13.7863 8.05078 12.7073 8.05078 11.2961ZM14.6583 11.2961C14.6583 9.8125 15.7596 8.76672 17.2549 8.76672C18.9033 8.76672 19.9866 10.0881 19.9866 11.7941C19.9866 14.7653 17.5774 16.3155 16.2827 16.3155C15.926 16.3155 15.6535 16.064 15.6535 15.7382C15.6535 15.441 15.8088 15.2472 16.2213 15.1384C17.1279 14.9127 18.0431 14.2366 18.4442 13.2742H18.3103C17.9834 13.679 17.4668 13.7863 16.9132 13.7863C15.5433 13.7863 14.6583 12.7073 14.6583 11.2961Z" fill="white"/>
</svg>
