<svg width="28" height="28" viewBox="0 0 28 28" fill="none" xmlns="http://www.w3.org/2000/svg">
<path d="M9.45108 10.0885C11.6598 10.0885 13.5001 8.2578 13.5001 6.05117C13.5001 3.84242 11.6577 2 9.45108 2C7.24445 2 5.40414 3.84242 5.40414 6.05117C5.40414 8.2578 7.24445 10.0885 9.45108 10.0885ZM9.45108 7.91703C8.436 7.91703 7.57772 7.05664 7.57772 6.05117C7.57772 5.03398 8.436 4.17358 9.45108 4.17358C10.4683 4.17358 11.3266 5.03608 11.3266 6.05117C11.3266 7.05875 10.4683 7.91703 9.45108 7.91703ZM18.2497 10.0885C20.4585 10.0885 22.2967 8.25991 22.2967 6.05117C22.2967 3.84242 20.4564 2 18.2497 2C16.0431 2 14.2007 3.84242 14.2007 6.05117C14.2007 8.2578 16.041 10.0885 18.2497 10.0885ZM18.2497 7.91703C17.2326 7.91703 16.3722 7.05875 16.3722 6.05117C16.3722 5.03608 17.2326 4.17358 18.2497 4.17358C19.2627 4.17358 20.1231 5.03398 20.1231 6.05117C20.1231 7.05875 19.2669 7.91703 18.2497 7.91703ZM5.04906 17.9808C7.26741 17.9808 9.10772 16.1405 9.10772 13.9339C9.10772 11.7273 7.26741 9.88695 5.04906 9.88695C2.84031 9.88695 1 11.7273 1 13.9339C1 16.1426 2.84031 17.9808 5.04906 17.9808ZM5.04906 15.8073C4.02976 15.8073 3.17358 14.9511 3.17358 13.9339C3.17358 12.9167 4.03398 12.0605 5.04906 12.0605C6.06625 12.0605 6.93625 12.9167 6.93625 13.9339C6.93625 14.9511 6.06625 15.8073 5.04906 15.8073ZM22.6518 17.9808C24.8605 17.9808 26.7008 16.1405 26.7008 13.9339C26.7008 11.7273 24.8605 9.88695 22.6518 9.88695C20.443 9.88695 18.591 11.7273 18.591 13.9339C18.591 16.1405 20.443 17.9808 22.6518 17.9808ZM22.6518 15.8073C21.6346 15.8073 20.7646 14.9511 20.7646 13.9339C20.7646 12.9167 21.6346 12.0605 22.6518 12.0605C23.6669 12.0605 24.5272 12.9167 24.5272 13.9339C24.5272 14.9511 23.6669 15.8073 22.6518 15.8073ZM9.45108 25.8678C11.6577 25.8678 13.5001 24.0233 13.5001 21.8145C13.5001 19.6004 11.6598 17.7676 9.45108 17.7676C7.24234 17.7676 5.40414 19.5962 5.40414 21.8145C5.40414 24.0233 7.24445 25.8678 9.45108 25.8678ZM9.45108 23.6942C8.436 23.6942 7.57772 22.8338 7.57772 21.8145C7.57772 20.7994 8.43389 19.9411 9.45108 19.9411C10.4683 19.9411 11.3266 20.7994 11.3266 21.8145C11.3266 22.8317 10.4683 23.6942 9.45108 23.6942ZM18.2497 25.8678C20.4564 25.8678 22.2967 24.0233 22.2967 21.8145C22.2967 19.5962 20.4585 17.7676 18.2497 17.7676C16.041 17.7676 14.2007 19.6004 14.2007 21.8145C14.2007 24.0233 16.0431 25.8678 18.2497 25.8678ZM18.2497 23.6942C17.2326 23.6942 16.3722 22.8317 16.3722 21.8145C16.3722 20.7994 17.2326 19.9411 18.2497 19.9411C19.2669 19.9411 20.1231 20.7994 20.1231 21.8145C20.1231 22.8338 19.2627 23.6942 18.2497 23.6942Z" fill="black"/>
</svg>
