<svg width="28" height="28" viewBox="0 0 28 28" fill="none" xmlns="http://www.w3.org/2000/svg">
<path d="M8.29655 22.5765C9.08428 22.5765 9.49021 22.2577 9.74451 21.4264L11.0495 17.7833H17.7421L19.0492 21.4264C19.3014 22.2577 19.7073 22.5765 20.4876 22.5765C21.309 22.5765 21.8383 22.0834 21.8383 21.3181C21.8383 21.0366 21.7926 20.7922 21.6777 20.4765L16.4896 6.46623C16.1357 5.48351 15.4717 5 14.4053 5C13.3877 5 12.7183 5.47601 12.3719 6.45662L7.15633 20.5367C7.04781 20.8377 7 21.0927 7 21.3425C7 22.1056 7.49523 22.5765 8.29655 22.5765ZM11.7208 15.6055L14.3723 7.99084H14.4393L17.0887 15.6055H11.7208Z" fill="black"/>
</svg>
