<svg width="28" height="28" viewBox="0 0 28 28" fill="none" xmlns="http://www.w3.org/2000/svg">
<path d="M14.105 26.2301C20.7369 26.2301 26.2121 20.7549 26.2121 14.123C26.2121 7.50291 20.7273 2.01807 14.0954 2.01807C7.47523 2.01807 2 7.50291 2 14.123C2 20.7549 7.48484 26.2301 14.105 26.2301Z" fill="black"/>
<path d="M14.1154 10.6815C12.2257 10.6815 11.4674 10.9204 11.4674 11.4104V11.6085C11.4674 12.2943 11.2685 12.7152 10.447 12.7994L8.23916 13.0295C7.36353 13.1212 6.84814 12.8596 6.84814 11.9401C6.84814 11.9401 6.84814 11.9476 6.84814 11.938C6.84814 9.45177 9.97728 8.13013 14.1154 8.13013C18.2632 8.13013 21.3923 9.46138 21.3923 11.938V11.9401C21.3902 12.8617 20.8886 13.1212 20.0205 13.0295L17.7935 12.7994C16.972 12.7152 16.7826 12.2943 16.7826 11.6085V11.42C16.7826 10.8798 16.1536 10.6815 14.1154 10.6815ZM8.6001 16.5252C8.13674 16.5252 7.86299 16.2824 7.86299 15.8191V14.6824C7.86299 14.2424 8.14096 13.9783 8.6001 13.9783H9.7176C10.1575 13.9783 10.4142 14.2445 10.4142 14.6824V15.8191C10.4142 16.2803 10.1596 16.5252 9.7176 16.5252H8.6001ZM11.8867 16.5252C11.4171 16.5252 11.1764 16.2824 11.1764 15.8191V14.6824C11.1764 14.2424 11.4213 13.9783 11.8867 13.9783H13.072C13.514 13.9783 13.7899 14.2424 13.7899 14.6824V15.8191C13.7899 16.2824 13.5161 16.5252 13.072 16.5252H11.8867ZM15.239 16.5252C14.7949 16.5252 14.5254 16.2824 14.5254 15.8191V14.6824C14.5254 14.2424 14.797 13.9783 15.239 13.9783H16.3523C16.8178 13.9783 17.0723 14.2424 17.0723 14.6824V15.8191C17.0723 16.2824 16.8199 16.5252 16.3523 16.5252H15.239ZM18.5332 16.5252C18.0677 16.5252 17.8153 16.2824 17.8153 15.8191V14.6824C17.8153 14.2424 18.0698 13.9783 18.5332 13.9783H19.654C20.1002 13.9783 20.3782 14.2424 20.3782 14.6824V15.8191C20.3782 16.2824 20.1023 16.5252 19.654 16.5252H18.5332ZM8.57877 19.829C8.13463 19.829 7.86299 19.5883 7.86299 19.1228V17.9765C7.86299 17.5441 8.13674 17.2682 8.57877 17.2682H9.70588C10.1575 17.2682 10.4142 17.5441 10.4142 17.9765V19.1228C10.4142 19.5883 10.1596 19.829 9.70588 19.829H8.57877ZM11.8729 19.829C11.4171 19.829 11.1764 19.5883 11.1764 19.1228V17.9765C11.1764 17.5441 11.4213 17.2682 11.8729 17.2682H16.3875C16.8274 17.2682 17.0723 17.5441 17.0723 17.9765V19.1228C17.0723 19.5862 16.8316 19.829 16.3875 19.829H11.8729ZM18.5449 19.829C18.089 19.829 17.8174 19.5883 17.8174 19.1228V17.9765C17.8174 17.5441 18.0911 17.2682 18.5449 17.2682H19.6699C20.1194 17.2682 20.3782 17.5441 20.3782 17.9765V19.1228C20.3782 19.5883 20.1236 19.829 19.6699 19.829H18.5449Z" fill="white"/>
</svg>
