<svg width="31" height="28" viewBox="0 0 31 28" fill="none" xmlns="http://www.w3.org/2000/svg">
<path d="M27.1364 3.2616H13.1208V5.55752H26.9937C28.0737 5.55752 28.6847 6.11955 28.6847 7.25815V21.1366C28.6847 22.2752 28.0737 22.8394 26.9937 22.8394H24.4652C24.9363 23.5015 25.1236 24.318 24.9928 25.1353H27.1364C29.6679 25.1353 30.9806 23.8301 30.9806 21.3295V7.06737C30.9806 4.56472 29.6679 3.2616 27.1364 3.2616ZM7.20487 22.8394C6.11315 22.8394 5.51174 22.2752 5.51174 21.1366V18.0722H3.21582V21.3295C3.21582 23.8397 4.54027 25.1353 7.06214 25.1353H18.1036L15.8056 22.8394H7.20487Z" fill="black"/>
<path d="M0 11.9706C0 17.2323 4.27757 21.5098 9.53929 21.5098C11.4961 21.5098 13.2919 20.9063 14.7912 19.8912L20.7738 25.8739C21.1205 26.2205 21.5574 26.3736 22.0177 26.3736C23.0149 26.3736 23.7281 25.6198 23.7281 24.6343C23.7281 24.1686 23.558 23.7263 23.2455 23.4139L17.3022 17.4514C18.4207 15.9127 19.0786 14.0211 19.0786 11.9706C19.0786 6.70674 14.8127 2.43127 9.53929 2.43127C4.27757 2.43127 0 6.70674 0 11.9706ZM2.48693 11.9706C2.48693 8.07618 5.64702 4.9161 9.53929 4.9161C13.4433 4.9161 16.5938 8.07618 16.5938 11.9706C16.5938 15.8628 13.4433 19.0229 9.53929 19.0229C5.64702 19.0229 2.48693 15.8628 2.48693 11.9706ZM6.02905 11.2871H13.0516C13.5277 11.2871 13.9036 10.8868 13.9036 10.4213C13.9036 9.94111 13.5298 9.57056 13.0516 9.57056H6.02905C5.54342 9.57056 5.1867 9.94322 5.1867 10.4213C5.1867 10.8889 5.54553 11.2871 6.02905 11.2871ZM6.02905 14.3684H11.1002C11.5741 14.3684 11.9501 13.9937 11.9501 13.5219C11.9501 13.0437 11.5762 12.6519 11.1002 12.6519H6.02905C5.54342 12.6519 5.1867 13.048 5.1867 13.5219C5.1867 13.9937 5.54553 14.3684 6.02905 14.3684Z" fill="black"/>
</svg>
