<svg width="28" height="28" viewBox="0 0 28 28" fill="none" xmlns="http://www.w3.org/2000/svg">
<path d="M9.20166 20.8246C9.20166 24.2226 11.271 26.3209 14.5827 26.3209C17.0542 26.3209 18.8816 25.1894 20.0338 23.0748L21.0737 21.1881C23.3882 16.9401 27.5371 16.1251 27.5371 10.3054C27.5371 4.72492 23.9083 1 18.4719 1C12.9245 1 9.20166 4.75468 9.20166 10.3616V20.8246ZM12.8008 17.6219C12.8008 15.3981 15.205 15.6381 15.205 14.3638C15.205 13.2119 12.8008 12.3648 12.8008 9.71148C12.8008 6.69999 15.0711 4.53765 18.4506 4.53765C21.8713 4.53765 24.1586 6.81109 24.1586 10.2149C24.1586 10.7568 23.7093 11.1965 23.1695 11.1965C22.633 11.1965 22.1837 10.7568 22.1837 10.2149C22.1837 7.97148 20.7163 6.51249 18.4506 6.51249C16.2474 6.51249 14.7777 7.8489 14.7777 9.71148C14.7756 12.2092 18.3246 12.7898 18.3246 16.2398C18.3246 18.1902 17.0594 19.7151 15.1987 19.7247C13.7701 19.7247 12.8008 18.8758 12.8008 17.6219Z" fill="black"/>
<path d="M3.24695 25.3701C4.46945 25.3701 5.45663 24.3808 5.45663 23.1583C5.45663 21.9144 4.46734 20.9326 3.24695 20.9326C1.9914 20.9326 1 21.9144 1 23.1583C1 24.3808 2.00101 25.3701 3.24695 25.3701Z" fill="black"/>
<path d="M3.24695 19.1835C4.46734 19.1835 5.45663 18.1825 5.45663 16.9387C5.45663 15.7183 4.46734 14.7269 3.24695 14.7269C2.00312 14.7269 1 15.7183 1 16.9387C1 18.1942 1.9914 19.1835 3.24695 19.1835Z" fill="black"/>
<path d="M3.24695 12.9639C4.46734 12.9639 5.45663 11.9725 5.45663 10.7382C5.45663 9.49653 4.46734 8.50513 3.24695 8.50513C1.9914 8.50513 1 9.49653 1 10.7382C1 11.9725 1.9914 12.9639 3.24695 12.9639Z" fill="black"/>
<path d="M3.24695 6.75598C4.46734 6.75598 5.45663 5.77419 5.45663 4.53247C5.45663 3.30786 4.46945 2.32068 3.24695 2.32068C2.00101 2.32068 1 3.30786 1 4.53247C1 5.77419 1.9914 6.75598 3.24695 6.75598Z" fill="black"/>
</svg>
