<svg width="28" height="28" viewBox="0 0 28 28" fill="none" xmlns="http://www.w3.org/2000/svg">
<path d="M14.105 26.21C20.7369 26.21 26.2121 20.7273 26.2121 14.105C26.2121 7.47312 20.7273 2 14.0954 2C7.47523 2 2 7.47312 2 14.105C2 20.7273 7.48484 26.21 14.105 26.21ZM14.105 23.8255C8.71085 23.8255 4.39412 19.4991 4.39412 14.105C4.39412 8.71085 8.70124 4.38452 14.0954 4.38452C19.4895 4.38452 23.8276 8.71085 23.8276 14.105C23.8276 19.4991 19.4991 23.8255 14.105 23.8255Z" fill="black"/>
<path d="M14.1058 10.7921C16.0685 10.7921 16.6741 10.969 16.6741 11.5029V11.6775C16.6741 12.3315 16.8614 12.7407 17.6552 12.8227L19.7972 13.0487C20.6313 13.1328 21.1073 12.8776 21.1094 11.9996V11.9953C21.1094 9.60168 18.1047 8.32996 14.1058 8.32996C10.1165 8.32996 7.11182 9.60168 7.11182 11.9953C7.11182 12.0071 7.11182 11.9996 7.11182 11.9996C7.11182 12.8755 7.59956 13.1328 8.44331 13.0487L10.566 12.8227C11.3599 12.7407 11.5567 12.3315 11.5567 11.6775V11.4912C11.5567 11.0075 12.2894 10.7921 14.1058 10.7921ZM8.79886 16.4061H9.87065C10.2967 16.4061 10.5471 16.175 10.5471 15.7297V14.6269C10.5471 14.2126 10.2946 13.9602 9.87065 13.9602H8.79886C8.35143 13.9602 8.0894 14.2105 8.0894 14.6269V15.7297C8.0894 16.1792 8.34932 16.4061 8.79886 16.4061ZM11.9622 16.4061H13.1018C13.53 16.4061 13.7899 16.1792 13.7899 15.7297V14.6269C13.7899 14.2105 13.5279 13.9602 13.1018 13.9602H11.9622C11.5148 13.9602 11.2816 14.2105 11.2816 14.6269V15.7297C11.2816 16.1792 11.5106 16.4061 11.9622 16.4061ZM15.1837 16.4061H16.2534C16.705 16.4061 16.9554 16.1792 16.9554 15.7297V14.6269C16.9554 14.2105 16.7029 13.9602 16.2534 13.9602H15.1837C14.7576 13.9602 14.4977 14.2105 14.4977 14.6269V15.7297C14.4977 16.1792 14.7555 16.4061 15.1837 16.4061ZM18.3588 16.4061H19.4381C19.8684 16.4061 20.1283 16.1792 20.1283 15.7297V14.6269C20.1283 14.2105 19.8663 13.9602 19.4381 13.9602H18.3588C17.9114 13.9602 17.6686 14.2105 17.6686 14.6269V15.7297C17.6686 16.1792 17.9093 16.4061 18.3588 16.4061ZM8.77542 19.5908H9.85893C10.2967 19.5908 10.5471 19.3426 10.5471 18.9048V17.8116C10.5471 17.3855 10.2946 17.1235 9.85893 17.1235H8.77542C8.34932 17.1235 8.0894 17.3855 8.0894 17.8116V18.9048C8.0894 19.3426 8.34722 19.5908 8.77542 19.5908ZM11.9505 19.5908H16.2886C16.7147 19.5908 16.9554 19.3405 16.9554 18.9048V17.8116C16.9554 17.3855 16.7125 17.1235 16.2886 17.1235H11.9505C11.5148 17.1235 11.2816 17.3855 11.2816 17.8116V18.9048C11.2816 19.3426 11.5106 19.5908 11.9505 19.5908ZM18.3705 19.5908H19.4498C19.8897 19.5908 20.1283 19.3426 20.1283 18.9048V17.8116C20.1283 17.3855 19.8876 17.1235 19.4498 17.1235H18.3705C17.9348 17.1235 17.6707 17.3855 17.6707 17.8116V18.9048C17.6707 19.3426 17.9306 19.5908 18.3705 19.5908Z" fill="black"/>
</svg>
