<svg width="28" height="29" viewBox="0 0 28 29" fill="none" xmlns="http://www.w3.org/2000/svg">
<path d="M19.8806 26.0639C24.8116 24.2747 26.4834 20.1649 24.5674 14.9025L23.7782 12.7193C23.0582 10.7351 21.6377 9.82173 20.5071 10.2262C20.2251 10.3326 20.1262 10.5443 20.223 10.807L20.5767 11.7551C20.7227 12.1772 20.5947 12.4575 20.3421 12.5566C20.0777 12.6462 19.7941 12.5194 19.6364 12.093L19.4137 11.4773C18.9825 10.2804 17.9219 9.76618 16.8785 10.1484C16.3931 10.3273 16.2431 10.6251 16.3889 11.0444L16.8639 12.3387C17.0196 12.765 16.8862 13.0411 16.6432 13.1402C16.365 13.2394 16.0835 13.1072 15.9257 12.6787L15.4954 11.4858C15.014 10.1608 14.0088 9.78001 12.9761 10.159C12.5121 10.3261 12.3386 10.6453 12.494 11.0508L13.4132 13.5933C13.571 14.0175 13.4334 14.2978 13.1925 14.3948C12.9185 14.494 12.6349 14.3576 12.4868 13.9312L9.41666 5.5104C9.10682 4.64368 8.32963 4.2818 7.58549 4.54899C6.79448 4.83751 6.45487 5.6093 6.76682 6.47602L11.2221 18.7167C11.3308 19.0024 11.2071 19.2082 11.0322 19.2743C10.8616 19.3383 10.6771 19.2839 10.4681 19.0535L7.47744 15.836C7.01104 15.3398 6.50127 15.1699 5.91932 15.3848C5.10816 15.6776 4.773 16.428 5.0273 17.141C5.12527 17.3997 5.25839 17.6083 5.39784 17.7712L9.26034 22.5883C12.4832 26.5997 16.1899 27.4045 19.8806 26.0639Z" fill="black"/>
<path d="M8.25381 0C4.80429 0 2 2.79796 2 6.24537C2 7.65467 2.49219 9.04287 3.29656 10.0844C3.52953 10.3917 3.81875 10.5108 4.09414 10.5108C4.78858 10.5108 5.33983 9.72139 4.79702 9.02998C4.19163 8.27576 3.82624 7.29584 3.82624 6.24537C3.82624 3.80202 5.80835 1.82835 8.2517 1.82835C10.6086 1.82835 12.5368 3.6839 12.638 6.04077C12.6422 6.10687 12.6444 6.17718 12.6465 6.2721C12.694 6.83319 13.0573 7.12663 13.5251 7.12663C14.0108 7.12663 14.4237 6.79288 14.4525 6.29836C14.4622 6.20578 14.4579 6.06023 14.4474 5.90367C14.285 2.59125 11.5557 0 8.25381 0Z" fill="black"/>
</svg>
