<svg width="28" height="28" viewBox="0 0 28 28" fill="none" xmlns="http://www.w3.org/2000/svg">
<path d="M4.12226 8.90186H6.7796C8.10968 8.90186 8.90186 8.10757 8.90186 6.73273V4.17125C8.90186 2.7964 8.10968 2 6.7796 2H4.12226C2.79219 2 2 2.7964 2 4.17125V6.73273C2 8.10757 2.79219 8.90186 4.12226 8.90186ZM4.40187 7.10234C4.00952 7.10234 3.81124 6.89234 3.81124 6.47445V4.42742C3.81124 4.02124 4.00952 3.81124 4.40187 3.81124H6.49789C6.88273 3.81124 7.10023 4.02124 7.10023 4.42742V6.47445C7.10023 6.89234 6.88273 7.10234 6.49789 7.10234H4.40187ZM12.5759 8.90186H15.2429C16.5729 8.90186 17.3555 8.10757 17.3555 6.73273V4.17125C17.3555 2.7964 16.5729 2 15.2429 2H12.5759C11.2458 2 10.4633 2.7964 10.4633 4.17125V6.73273C10.4633 8.10757 11.2458 8.90186 12.5759 8.90186ZM12.8555 7.10234C12.4632 7.10234 12.2649 6.89234 12.2649 6.47445V4.42742C12.2649 4.02124 12.4632 3.81124 12.8555 3.81124H14.9612C15.346 3.81124 15.5539 4.02124 15.5539 4.42742V6.47445C15.5539 6.89234 15.346 7.10234 14.9612 7.10234H12.8555ZM21.0509 8.90186H23.7083C25.0383 8.90186 25.8305 8.10757 25.8305 6.73273V4.17125C25.8305 2.7964 25.0383 2 23.7083 2H21.0509C19.7208 2 18.9286 2.7964 18.9286 4.17125V6.73273C18.9286 8.10757 19.7208 8.90186 21.0509 8.90186ZM21.3305 7.10234C20.9382 7.10234 20.7303 6.89234 20.7303 6.47445V4.42742C20.7303 4.02124 20.9382 3.81124 21.3305 3.81124H23.4265C23.8114 3.81124 24.0193 4.02124 24.0193 4.42742V6.47445C24.0193 6.89234 23.8114 7.10234 23.4265 7.10234H21.3305ZM4.12226 17.1265H6.7796C8.10968 17.1265 8.90186 16.3419 8.90186 14.9649V12.3959C8.90186 11.019 8.10968 10.2247 6.7796 10.2247H4.12226C2.79219 10.2247 2 11.019 2 12.3959V14.9649C2 16.3419 2.79219 17.1265 4.12226 17.1265ZM4.40187 15.3249C4.00952 15.3249 3.81124 15.1149 3.81124 14.697V12.6425C3.81124 12.2363 4.00952 12.0263 4.40187 12.0263H6.49789C6.88273 12.0263 7.10023 12.2363 7.10023 12.6425V14.697C7.10023 15.1149 6.88273 15.3249 6.49789 15.3249H4.40187ZM12.5759 17.1265H15.2429C16.5729 17.1265 17.3555 16.3419 17.3555 14.9649V12.3959C17.3555 11.019 16.5729 10.2247 15.2429 10.2247H12.5759C11.2458 10.2247 10.4633 11.019 10.4633 12.3959V14.9649C10.4633 16.3419 11.2458 17.1265 12.5759 17.1265ZM12.8555 15.3249C12.4632 15.3249 12.2649 15.1149 12.2649 14.697V12.6425C12.2649 12.2363 12.4632 12.0263 12.8555 12.0263H14.9612C15.346 12.0263 15.5539 12.2363 15.5539 12.6425V14.697C15.5539 15.1149 15.346 15.3249 14.9612 15.3249H12.8555ZM4.12226 25.3512H6.7796C8.10968 25.3512 8.90186 24.5569 8.90186 23.18V20.6206C8.90186 19.2436 8.10968 18.4494 6.7796 18.4494H4.12226C2.79219 18.4494 2 19.2436 2 20.6206V23.18C2 24.5569 2.79219 25.3512 4.12226 25.3512ZM4.40187 23.54C4.00952 23.54 3.81124 23.33 3.81124 22.9217V20.8768C3.81124 20.461 4.00952 20.251 4.40187 20.251H6.49789C6.88273 20.251 7.10023 20.461 7.10023 20.8768V22.9217C7.10023 23.33 6.88273 23.54 6.49789 23.54H4.40187ZM12.5759 25.3512H15.2429C16.5729 25.3512 17.3555 24.5569 17.3555 23.18V20.6206C17.3555 19.2436 16.5729 18.4494 15.2429 18.4494H12.5759C11.2458 18.4494 10.4633 19.2436 10.4633 20.6206V23.18C10.4633 24.5569 11.2458 25.3512 12.5759 25.3512ZM12.8555 23.54C12.4632 23.54 12.2649 23.33 12.2649 22.9217V20.8768C12.2649 20.461 12.4632 20.251 12.8555 20.251H14.9612C15.346 20.251 15.5539 20.461 15.5539 20.8768V22.9217C15.5539 23.33 15.346 23.54 14.9612 23.54H12.8555ZM21.0509 25.3512H23.7083C25.0383 25.3512 25.8305 24.5569 25.8305 23.18V20.6206C25.8305 19.2436 25.0383 18.4494 23.7083 18.4494H21.0509C19.7208 18.4494 18.9286 19.2436 18.9286 20.6206V23.18C18.9286 24.5569 19.7208 25.3512 21.0509 25.3512ZM21.3305 23.54C20.9382 23.54 20.7303 23.33 20.7303 22.9217V20.8768C20.7303 20.461 20.9382 20.251 21.3305 20.251H23.4265C23.8114 20.251 24.0193 20.461 24.0193 20.8768V22.9217C24.0193 23.33 23.8114 23.54 23.4265 23.54H21.3305Z" fill="black"/>
<path d="M21.051 17.1575H23.7084C25.0384 17.1575 25.8306 16.3611 25.8306 14.9862V12.4248C25.8306 11.0499 25.0384 10.2439 23.7084 10.2439H21.051C19.7209 10.2439 18.9287 11.0499 18.9287 12.4248V14.9862C18.9287 16.3611 19.7209 17.1575 21.051 17.1575Z" fill="black"/>
</svg>
