<svg width="28" height="28" viewBox="0 0 28 28" fill="none" xmlns="http://www.w3.org/2000/svg">
<path d="M14.105 26.21C20.7369 26.21 26.2121 20.7273 26.2121 14.105C26.2121 7.47312 20.7273 2 14.0954 2C7.47523 2 2 7.47312 2 14.105C2 20.7273 7.48484 26.21 14.105 26.21ZM14.105 23.8255C8.71085 23.8255 4.39412 19.4991 4.39412 14.105C4.39412 8.71085 8.70124 4.38452 14.0954 4.38452C19.4895 4.38452 23.8276 8.71085 23.8276 14.105C23.8276 19.4991 19.4991 23.8255 14.105 23.8255Z" fill="black"/>
<path d="M14.1188 17.7437C16.1171 17.7437 17.7692 16.1054 17.7692 14.0912C17.7692 12.0812 16.1171 10.4408 14.1188 10.4408C12.1067 10.4408 10.4546 12.0812 10.4546 14.0912C10.4546 16.1054 12.1067 17.7437 14.1188 17.7437Z" fill="black"/>
</svg>
