<svg width="28" height="28" viewBox="0 0 28 28" fill="none" xmlns="http://www.w3.org/2000/svg">
<path d="M17.6311 6.31586C19.087 6.31586 20.2596 5.1454 20.2596 3.68946C20.2596 2.24313 19.087 1.07056 17.6311 1.07056C16.1751 1.07056 15.0047 2.24313 15.0047 3.68946C15.0047 5.1454 16.1751 6.31586 17.6311 6.31586ZM13.1815 27.1455C18.3963 27.1455 21.8866 23.6699 21.8866 18.5226C21.8866 15.7926 20.5819 14.2117 18.1638 14.2117H16.5787C16.3134 14.2117 16.1461 14.038 16.2494 13.7226L17.3402 10.4193C17.8451 8.88344 17.1166 7.5093 15.4336 7.08321L10.5452 5.85391C10.0744 5.73673 9.71647 5.81454 9.27983 6.06696L4.53209 8.74282C3.96233 9.06766 3.83131 9.8868 4.23069 10.4214C4.61202 10.9614 5.28631 11.0615 5.90295 10.7441L10.2576 8.44L12.7962 9.11641C13.2862 9.25493 13.4695 9.58633 13.3055 10.0412L11.9707 13.7919C11.3508 15.5676 12.3883 17.0812 14.1159 17.0812H18.3656C19.2743 17.0812 19.9029 17.6223 19.9029 18.5226C19.9029 22.4769 17.2108 25.1617 13.1911 25.1617C9.1228 25.1617 6.41366 22.4327 6.41366 18.4192C6.41366 17.088 6.78585 15.9135 7.42124 14.9235C8.1935 13.6834 6.48984 12.6541 5.66343 14.016C4.89375 15.2573 4.42992 16.7502 4.42992 18.4192C4.42992 23.6277 7.9064 27.1455 13.1815 27.1455ZM21.9408 27.1455C22.6851 27.1455 23.2783 26.5523 23.2783 25.81C23.2783 25.0677 22.6851 24.4745 21.9408 24.4745C21.1985 24.4745 20.6053 25.0677 20.6053 25.81C20.6053 26.5523 21.1985 27.1455 21.9408 27.1455Z" fill="black"/>
</svg>
