<svg width="28" height="28" viewBox="0 0 28 28" fill="none" xmlns="http://www.w3.org/2000/svg">
<path d="M14.105 26.2301C20.7369 26.2301 26.2121 20.7549 26.2121 14.123C26.2121 7.50291 20.7273 2.01807 14.0954 2.01807C7.47523 2.01807 2 7.50291 2 14.123C2 20.7549 7.48484 26.2301 14.105 26.2301Z" fill="black"/>
<path d="M16.7698 19.0053C15.9502 19.2516 15.0474 19.4127 14.1052 19.4127C9.16526 19.4127 5.70752 15.376 5.70752 14.1305C5.70752 13.4485 6.74464 11.948 8.47761 10.711L10.8462 13.1009C10.7267 13.4178 10.669 13.7656 10.669 14.1326C10.669 15.9898 12.2032 17.555 14.1052 17.555C14.4722 17.555 14.8083 17.4877 15.1273 17.3682L16.7698 19.0053ZM13.7302 15.9711C12.9179 15.9617 12.2515 15.2548 12.2518 14.5044L13.7302 15.9711ZM17.3567 15.1548C17.4741 14.8283 17.5435 14.4901 17.5435 14.1326C17.5435 12.2244 16.0039 10.7082 14.1052 10.7082C13.7499 10.7082 13.4021 10.768 13.0873 10.8758L11.4619 9.25039C12.2815 9.00195 13.1651 8.85054 14.1052 8.85054C19.0962 8.85054 22.4954 12.8797 22.4954 14.1305C22.4954 14.8072 21.47 16.3194 19.7466 17.5468L17.3567 15.1548ZM14.4865 12.2771C15.285 12.2961 15.9225 12.9816 15.9436 13.7342L14.4865 12.2771ZM19.5905 20.48L7.7194 8.63233C7.49698 8.38647 7.49698 7.99483 7.7194 7.76069C7.97487 7.51694 8.359 7.51694 8.60486 7.76069L20.4622 19.6084C20.6963 19.8542 20.6963 20.2341 20.4622 20.48C20.2259 20.7141 19.8268 20.7024 19.5905 20.48Z" fill="white"/>
</svg>
