<svg width="28" height="28" viewBox="0 0 28 28" fill="none" xmlns="http://www.w3.org/2000/svg">
<path d="M8.01578 27.2622C8.50023 27.2622 8.87382 27.0299 9.45835 26.489L13.7626 22.5944H21.4504C24.9784 22.5944 26.9547 20.5777 26.9547 17.0998V8.01138C26.9547 4.53349 24.9784 2.50708 21.4504 2.50708H6.50218C2.97625 2.50708 1 4.52388 1 8.01138V17.0998C1 20.5872 3.02476 22.5944 6.42836 22.5944H6.90109V25.9898C6.90109 26.7606 7.30984 27.2622 8.01578 27.2622Z" fill="black"/>
<path d="M7.18959 12.2678C6.25256 12.2678 5.79248 11.8248 5.79248 10.8974V8.62372C5.79248 7.70591 6.25256 7.26294 7.18959 7.26294H12.2945C13.2145 7.26294 13.6745 7.70591 13.6745 8.62372V10.8974C13.6745 11.8248 13.2145 12.2678 12.2945 12.2678H7.18959ZM8.55413 17.8321C7.63421 17.8321 7.18374 17.3816 7.18374 16.4521V14.9287C7.18374 14.0109 7.63421 13.5583 8.55413 13.5583H12.9777C13.8977 13.5583 14.346 14.0109 14.346 14.9287V16.4521C14.346 17.3816 13.8977 17.8321 12.9777 17.8321H8.55413ZM17.0453 17.0823C16.1179 17.0823 15.6557 16.6436 15.6557 15.7162V9.45153C15.6557 8.53372 16.1179 8.08115 17.0453 8.08115H20.6763C21.6058 8.08115 22.0541 8.53372 22.0541 9.45153V15.7162C22.0541 16.6436 21.6058 17.0823 20.6763 17.0823H17.0453Z" fill="white"/>
</svg>
