<svg width="28" height="28" viewBox="0 0 28 28" fill="none" xmlns="http://www.w3.org/2000/svg">
<path d="M9.20166 20.8246C9.20166 24.2226 11.271 26.3209 14.5827 26.3209C17.0542 26.3209 18.8816 25.1894 20.0338 23.0748L21.0737 21.1881C23.3882 16.9401 27.5371 16.1251 27.5371 10.3054C27.5371 4.72492 23.9083 1 18.4719 1C12.9245 1 9.20166 4.75468 9.20166 10.3616V20.8246ZM11.2559 20.7264V10.3616C11.2559 5.97062 14.1405 3.05429 18.4719 3.05429C22.6827 3.05429 25.4806 5.96218 25.4806 10.3054C25.4806 15.1253 21.6848 15.9648 19.2229 20.3249L18.2519 22.015C17.4325 23.4829 16.3019 24.2261 14.6753 24.2261C12.5431 24.2261 11.2559 22.9014 11.2559 20.7264ZM13.0166 17.4156C13.0166 18.6238 13.9445 19.4312 15.3177 19.4312C17.103 19.4216 18.3204 17.9638 18.3204 16.0888C18.3204 12.7771 14.9022 12.205 14.9043 9.79866C14.9043 8.00733 16.3282 6.71452 18.4527 6.71452C20.6355 6.71452 22.0571 8.11819 22.0571 10.2883C22.0571 10.8046 22.4808 11.2262 22.9972 11.2262C23.5093 11.2262 23.9426 10.8046 23.9426 10.2883C23.9426 7.01523 21.7425 4.83109 18.4527 4.83109C15.2018 4.83109 13.0166 6.90413 13.0166 9.79866C13.0166 12.3585 15.3283 13.1758 15.3283 14.2862C15.3283 15.5148 13.0166 15.2748 13.0166 17.4156Z" fill="black"/>
<path d="M3.24695 25.3448C4.46945 25.3448 5.45663 24.3576 5.45663 23.133C5.45663 21.8891 4.46734 20.9094 3.24695 20.9094C1.9914 20.9094 1 21.8891 1 23.133C1 24.3576 2.00101 25.3448 3.24695 25.3448Z" fill="black"/>
<path d="M3.24695 19.1604C4.46734 19.1604 5.45663 18.1573 5.45663 16.9135C5.45663 15.6931 4.46734 14.7017 3.24695 14.7017C2.00312 14.7017 1 15.6931 1 16.9135C1 18.169 1.9914 19.1604 3.24695 19.1604Z" fill="black"/>
<path d="M3.24695 12.9386C4.46734 12.9386 5.45663 11.9472 5.45663 10.7151C5.45663 9.47123 4.46734 8.48193 3.24695 8.48193C1.9914 8.48193 1 9.47123 1 10.7151C1 11.9472 1.9914 12.9386 3.24695 12.9386Z" fill="black"/>
<path d="M3.24695 6.73283C4.46734 6.73283 5.45663 5.75103 5.45663 4.50721C5.45663 3.28471 4.46945 2.29541 3.24695 2.29541C2.00101 2.29541 1 3.28471 1 4.50721C1 5.75103 1.9914 6.73283 3.24695 6.73283Z" fill="black"/>
</svg>
