<svg width="29" height="28" viewBox="0 0 29 28" fill="none" xmlns="http://www.w3.org/2000/svg">
<path d="M1.0207 17.6925C1.61999 17.6925 2.07445 17.2285 2.07445 16.6505V12.3256C2.07445 11.7455 1.61999 11.2719 1.0207 11.2719C0.442733 11.2719 0 11.7455 0 12.3256V16.6505C0 17.2285 0.442733 17.6925 1.0207 17.6925Z" fill="black"/>
<path d="M5.05847 22.418C5.64815 22.418 6.10471 21.9561 6.10471 21.376V7.60014C6.10471 7.02006 5.64815 6.54639 5.05847 6.54639C4.48261 6.54639 4.03027 7.02006 4.03027 7.60014V21.376C4.03027 21.9561 4.48261 22.418 5.05847 22.418Z" fill="black"/>
<path d="M9.08906 26.9762C9.67874 26.9762 10.1428 26.5142 10.1428 25.9341V3.04414C10.1428 2.46406 9.67874 2 9.08906 2C8.51109 2 8.06836 2.46406 8.06836 3.04414V25.9341C8.06836 26.5142 8.51109 26.9762 9.08906 26.9762Z" fill="black"/>
<path d="M13.1289 20.8976C13.7186 20.8976 14.1731 20.4453 14.1731 19.8652V9.11091C14.1731 8.53083 13.7186 8.06677 13.1289 8.06677C12.5414 8.06677 12.0986 8.53083 12.0986 9.11091V19.8652C12.0986 20.4453 12.5414 20.8976 13.1289 20.8976Z" fill="black"/>
<path d="M16.1289 15.5637C16.6689 14.8119 17.3735 14.1844 18.2034 13.7654V5.62128C18.2034 5.05082 17.7489 4.57715 17.1689 4.57715C16.5717 4.57715 16.1289 5.05082 16.1289 5.62128V15.5637Z" fill="black"/>
<path d="M20.1665 13.1422C20.8458 13.0285 21.5554 13.0255 22.241 13.1511V11.3968C22.241 10.8263 21.7769 10.3527 21.1969 10.3527C20.6093 10.3527 20.1665 10.8263 20.1665 11.3968V13.1422Z" fill="black"/>
<path d="M21.117 24.181C23.7493 24.181 25.8915 22.0388 25.8915 19.4044C25.8915 16.7839 23.7493 14.6396 21.117 14.6396C18.504 14.6396 16.3501 16.7956 16.3501 19.4044C16.3501 22.0292 18.504 24.181 21.117 24.181ZM21.117 22.463C19.4513 22.463 18.068 21.0861 18.068 19.4044C18.068 17.7462 19.4513 16.3693 21.117 16.3693C22.7945 16.3693 24.1639 17.7366 24.1639 19.4044C24.1639 21.0861 22.7945 22.463 21.117 22.463ZM27.1527 26.5958C27.7709 26.5958 28.2263 26.135 28.2263 25.4933C28.2263 25.208 28.0836 24.9324 27.8708 24.71L24.4402 21.2602L22.8076 22.7733L26.2787 26.2231C26.5278 26.4723 26.8055 26.5958 27.1527 26.5958Z" fill="black"/>
</svg>
