<svg width="32" height="28" viewBox="0 0 32 28" fill="none" xmlns="http://www.w3.org/2000/svg">
<path d="M0 18.6948C0 19.0074 0.149999 19.3543 0.389294 19.5957L5.52351 24.8398C5.77148 25.1016 6.10429 25.2378 6.44999 25.2378C6.78398 25.2378 7.11889 25.1016 7.36686 24.8398L12.5107 19.5957C12.7479 19.3543 12.8883 19.0074 12.8883 18.6948C12.8883 17.9661 12.3841 17.4779 11.6798 17.4779C11.3077 17.4779 11.029 17.6117 10.8173 17.8372L9.30163 19.4382L7.57616 21.4386L7.69124 18.8096V8.43029L7.57616 5.79919L9.30163 7.79959L10.8173 9.40062C11.029 9.62608 11.3077 9.75991 11.6798 9.75991C12.3841 9.75991 12.8883 9.27171 12.8883 8.54304C12.8883 8.23039 12.7479 7.88351 12.5107 7.64211L7.36686 2.39797C7.11889 2.13617 6.78398 2 6.44999 2C6.10429 2 5.77148 2.13617 5.52351 2.39797L0.389294 7.64211C0.149999 7.88351 0 8.23039 0 8.54304C0 9.27171 0.504137 9.75991 1.21054 9.75991C1.58062 9.75991 1.871 9.61647 2.07303 9.40062L3.59624 7.79959L5.31422 5.79919L5.19703 8.43029V18.8096L5.31422 21.4386L3.59624 19.4382L2.07303 17.8372C1.871 17.6213 1.58062 17.4779 1.21054 17.4779C0.504137 17.4779 0 17.9661 0 18.6948ZM15.1249 10.4961C15.1249 10.895 15.4291 11.2173 15.8494 11.2683C21.2149 11.8726 21.9876 12.6165 22.7196 18.1662C22.7887 18.5748 23.1068 18.8513 23.4801 18.8513C23.8631 18.8513 24.179 18.5748 24.2482 18.1662C25.0055 12.6165 25.7496 11.8937 31.1151 11.2683C31.545 11.2088 31.8354 10.8929 31.8354 10.4961C31.8354 10.0993 31.5387 9.77703 31.1109 9.72594C25.755 9.11961 24.9801 8.36609 24.2482 2.82593C24.179 2.42914 23.8727 2.15046 23.4801 2.15046C23.0951 2.15046 22.7887 2.42914 22.7196 2.82593C21.9239 8.33726 21.2182 9.00242 15.843 9.72594C15.4228 9.78336 15.1249 10.1014 15.1249 10.4961ZM13.9378 20.7516C13.9378 21.0198 14.1251 21.2464 14.4145 21.3092C17.3501 21.8527 17.3855 21.8176 17.719 24.5605C17.7701 24.8659 17.985 25.0862 18.2766 25.0862C18.5756 25.0862 18.7926 24.8755 18.8437 24.5743C19.2082 21.7025 19.3076 21.7088 22.1226 21.3092C22.4217 21.2581 22.6228 21.0294 22.6228 20.7516C22.6228 20.4835 22.4376 20.2494 22.1365 20.1941C19.283 19.6527 19.2178 19.7251 18.8437 16.9173C18.7926 16.6278 18.5639 16.4171 18.2766 16.4171C17.985 16.4171 17.7701 16.6374 17.719 16.9428C17.3855 19.6962 17.3278 19.7347 14.4677 20.1941C14.1368 20.2494 13.9378 20.4601 13.9378 20.7516Z" fill="black"/>
</svg>
