<svg width="28" height="28" viewBox="0 0 28 28" fill="none" xmlns="http://www.w3.org/2000/svg">
<path d="M8.39687 27.1131C9.04913 27.1131 9.53405 26.7937 10.3459 26.0807L14.3572 22.5294H21.4504C24.9784 22.5294 26.9547 20.503 26.9547 17.0251V7.93679C26.9547 4.45891 24.9784 2.4325 21.4504 2.4325H6.50218C2.97625 2.4325 1 4.4493 1 7.93679V17.0251C1 20.5126 3.02476 22.5294 6.42836 22.5294H6.9107V25.4181C6.9107 26.4533 7.45422 27.1131 8.39687 27.1131ZM8.96593 24.532V21.1863C8.96593 20.4986 8.67132 20.2335 8.01319 20.2335H6.56757C4.35225 20.2335 3.29592 19.1066 3.29592 16.9523V8.00007C3.29592 5.84569 4.35225 4.72842 6.56757 4.72842H21.3871C23.5928 4.72842 24.6588 5.84569 24.6588 8.00007V16.9523C24.6588 19.1066 23.5928 20.2335 21.3871 20.2335H14.2321C13.521 20.2335 13.1823 20.3484 12.6864 20.8497L8.96593 24.532Z" fill="black"/>
<path d="M6.68077 13.8646H11.2031C11.6202 13.8646 11.9566 13.5198 11.9566 13.0973C11.9566 12.6918 11.6202 12.3491 11.2031 12.3491H6.68077C6.26781 12.3491 5.93359 12.6939 5.93359 13.0973C5.93359 13.5198 6.26992 13.8646 6.68077 13.8646ZM13.6626 13.8646H21.2889C21.7061 13.8646 22.0328 13.5198 22.0328 13.0973C22.0328 12.6918 21.7061 12.3491 21.2889 12.3491H13.6626C13.2496 12.3491 12.9175 12.6939 12.9175 13.0973C12.9175 13.5198 13.2538 13.8646 13.6626 13.8646ZM6.68077 16.9422H8.59492C9.00999 16.9422 9.33882 16.6049 9.33882 16.1962C9.33882 15.7673 9.00999 15.4267 8.59492 15.4267H6.68077C6.26781 15.4267 5.93359 15.7715 5.93359 16.1962C5.93359 16.6049 6.26992 16.9422 6.68077 16.9422ZM11.0469 16.9422H16.6713C17.0863 16.9422 17.4269 16.6049 17.4269 16.1962C17.4269 15.7673 17.0863 15.4267 16.6713 15.4267H11.0469C10.634 15.4267 10.3094 15.7715 10.3094 16.1962C10.3094 16.6049 10.6361 16.9422 11.0469 16.9422ZM19.1329 16.9422H21.2889C21.704 16.9422 22.0328 16.6049 22.0328 16.1962C22.0328 15.7673 21.704 15.4267 21.2889 15.4267H19.1329C18.7199 15.4267 18.3857 15.7715 18.3857 16.1962C18.3857 16.6049 18.722 16.9422 19.1329 16.9422Z" fill="black"/>
</svg>
