<svg width="28" height="31" viewBox="0 0 28 31" fill="none" xmlns="http://www.w3.org/2000/svg">
<path d="M15.3307 30.6103C20.5769 30.6103 23.5544 27.3215 23.5544 21.7204V19.3924C23.5544 17.2772 22.5384 15.9368 21.3311 15.9368C21.0354 15.9368 20.8769 16.1069 20.8769 16.3835V17.3901C20.8769 17.8453 20.6498 18.0616 20.3854 18.0616C20.0976 18.0616 19.8822 17.8474 19.8822 17.3901V16.7297C19.8822 15.4657 19.0591 14.6182 17.9529 14.6182C17.4323 14.6182 17.1855 14.8491 17.1855 15.2939V16.6723C17.1855 17.1295 16.9722 17.3437 16.7079 17.3437C16.4179 17.3437 16.1929 17.1337 16.1929 16.6723V15.3973C16.1929 13.9957 15.3846 13.29 14.287 13.29C13.7953 13.29 13.5197 13.5305 13.5197 13.9615V16.6723C13.5197 17.1274 13.3022 17.3437 13.0399 17.3437C12.7542 17.3437 12.5271 17.1295 12.5271 16.6723V7.70603C12.5271 6.79033 11.9266 6.17932 11.1335 6.17932C10.2914 6.17932 9.71013 6.78822 9.71013 7.70603V20.734C9.71013 21.0389 9.52239 21.1945 9.33583 21.1945C9.15559 21.1945 9.00208 21.0858 8.87833 20.801L7.17043 16.7482C6.89997 16.1189 6.48161 15.7915 5.86989 15.7915C4.99802 15.7915 4.42334 16.3823 4.42334 17.1389C4.42334 17.4115 4.47982 17.6531 4.54685 17.8533L6.53388 23.699C8.20169 28.5773 11.4068 30.6103 15.3307 30.6103Z" fill="black"/>
<path d="M4.90382 9.42186C5.99953 9.42186 6.8428 8.55725 6.8428 7.48077C6.8428 6.42022 5.99953 5.55562 4.90382 5.55562C3.85078 5.55562 3 6.42022 3 7.48077C3 8.55725 3.85078 9.42186 4.90382 9.42186ZM11.1377 3.86835C12.2121 3.86835 13.0767 3.00374 13.0767 1.92726C13.0767 0.876326 12.2121 0 11.1377 0C10.0847 0 9.20835 0.876326 9.20835 1.92726C9.20835 3.00374 10.0847 3.86835 11.1377 3.86835ZM17.4323 9.42186C18.5067 9.42186 19.3734 8.55725 19.3734 7.48077C19.3734 6.42022 18.5067 5.55562 17.4323 5.55562C16.3718 5.55562 15.5072 6.42022 15.5072 7.48077C15.5072 8.55725 16.3718 9.42186 17.4323 9.42186ZM23.036 9.42186C24.1082 9.42186 24.9729 8.55725 24.9729 7.48077C24.9729 6.42022 24.1082 5.55562 23.036 5.55562C21.9829 5.55562 21.1162 6.42022 21.1162 7.48077C21.1162 8.55725 21.9829 9.42186 23.036 9.42186ZM23.036 3.86835C24.1082 3.86835 24.9729 3.00374 24.9729 1.92726C24.9729 0.876326 24.1082 0 23.036 0C21.9829 0 21.1162 0.876326 21.1162 1.92726C21.1162 3.00374 21.9829 3.86835 23.036 3.86835Z" fill="black"/>
</svg>
