<svg width="28" height="28" viewBox="0 0 28 28" fill="none" xmlns="http://www.w3.org/2000/svg">
<path d="M8.39687 27.1131C9.04913 27.1131 9.53405 26.7937 10.3459 26.0807L14.3572 22.5294H21.4504C24.9784 22.5294 26.9547 20.503 26.9547 17.0251V7.93679C26.9547 4.45891 24.9784 2.4325 21.4504 2.4325H6.50218C2.97625 2.4325 1 4.4493 1 7.93679V17.0251C1 20.5126 3.02476 22.5294 6.42836 22.5294H6.9107V25.4181C6.9107 26.4533 7.45422 27.1131 8.39687 27.1131ZM8.96593 24.532V21.1863C8.96593 20.4986 8.67132 20.2335 8.01319 20.2335H6.56757C4.35225 20.2335 3.29592 19.1066 3.29592 16.9523V8.00007C3.29592 5.84569 4.35225 4.72842 6.56757 4.72842H21.3871C23.5928 4.72842 24.6588 5.84569 24.6588 8.00007V16.9523C24.6588 19.1066 23.5928 20.2335 21.3871 20.2335H14.2321C13.521 20.2335 13.1823 20.3484 12.6864 20.8497L8.96593 24.532Z" fill="black"/>
<path d="M7.43084 12.1954H12.356C13.2398 12.1954 13.6743 11.7705 13.6743 10.877V8.68207C13.6743 7.79824 13.2398 7.38293 12.356 7.38293H7.43084C6.5374 7.38293 6.09326 7.79824 6.09326 8.68207V10.877C6.09326 11.7705 6.5374 12.1954 7.43084 12.1954ZM8.75178 17.5438H13.0136C13.8975 17.5438 14.3299 17.1189 14.3299 16.2255V14.7531C14.3299 13.8693 13.8975 13.4444 13.0136 13.4444H8.75178C7.86795 13.4444 7.43553 13.8693 7.43553 14.7531V16.2255C7.43553 17.1189 7.86795 17.5438 8.75178 17.5438ZM16.9239 16.8259H20.4304C21.3143 16.8259 21.7488 16.401 21.7488 15.5193V9.48012C21.7488 8.59629 21.3143 8.17137 20.4304 8.17137H16.9239C16.0305 8.17137 15.596 8.59629 15.596 9.48012V15.5193C15.596 16.401 16.0305 16.8259 16.9239 16.8259Z" fill="black"/>
</svg>
