<svg width="40" height="28" viewBox="0 0 40 28" fill="none" xmlns="http://www.w3.org/2000/svg">
<path d="M14.5626 24.0889C19.6305 24.0889 20.5647 20.9448 24.911 20.8962C29.937 20.7971 30.3621 18.1456 34.0205 18.1456C37.3237 18.1456 39.7247 16.9723 39.7247 14.7336C39.7247 10.0316 37.0348 7.41645 33.7934 7.41645C30.5625 7.41645 28.7599 9.41731 28.0634 12.1986C27.7146 13.524 27.1003 14.3673 26.1724 14.8681L25.5164 13.6585C22.373 7.87863 19.463 5.54895 14.6972 5.53723C9.62179 5.54895 6.92859 7.79332 3.21609 14.7943C1.9643 17.1692 0 17.6244 0 19.1241C0 20.1926 0.833199 20.8962 2.42273 20.8962C2.87132 20.8962 3.36796 20.8962 3.8646 20.8962C8.73564 20.8962 10.1606 24.0889 14.5626 24.0889ZM14.5626 21.9155C10.7695 21.9155 9.24095 18.7142 4.42335 18.7142C3.88686 18.7142 3.34709 18.7259 2.81108 18.7548L2.73209 18.5823C3.51842 17.9101 4.42803 17.1127 5.13022 15.7212C8.28046 9.63597 10.4484 7.72229 14.6972 7.71058C19.2928 7.72229 21.4491 10.7024 23.7389 14.8203C24.5475 16.2828 25.4585 17.742 26.4509 18.6995C26.0168 18.707 25.5166 18.7058 25.0027 18.7184C20.0186 18.8134 18.6187 21.9155 14.5626 21.9155ZM28.7016 18.1712C28.2206 17.7842 27.6722 17.1205 27.33 16.5022C28.5914 16.0365 29.4194 15.1409 29.8992 13.2109C30.4385 10.8306 31.6779 9.49183 33.7934 9.49183C35.9503 9.49183 37.7377 11.5016 37.7377 14.4355C37.7377 15.436 36.0921 16.133 34.391 16.133C31.5035 16.133 30.1657 17.1807 28.7016 18.1712ZM34.1923 13.7002C34.7812 13.7002 35.2723 13.2092 35.2723 12.6202C35.2723 12.0334 34.7812 11.5424 34.1923 11.5424C33.5937 11.5424 33.1048 12.0334 33.1048 12.6202C33.1048 13.2092 33.5937 13.7002 34.1923 13.7002ZM14.565 15.1648C18.4936 15.1648 21.4251 13.4063 23.3196 11.5058L22.3997 10.0525C20.3276 12.2286 17.659 13.4612 14.565 13.4612C11.4562 13.4612 8.80476 12.2553 6.75703 10.0504L5.84671 11.525C7.64718 13.3679 10.5574 15.1648 14.565 15.1648ZM9.20999 20.9921C10.6228 19.4373 11.7602 16.648 11.9501 14.5993L10.4892 14.1214C10.3387 15.8818 9.1289 18.8616 7.71398 20.2939L9.20999 20.9921ZM20.1096 20.9729L21.6344 20.2843C20.1694 18.804 19.0001 15.9298 18.8688 14.1214L17.3888 14.5416C17.5029 16.6534 18.652 19.4309 20.1096 20.9729ZM3.57609 25.6212C6.01195 25.6212 8.51085 24.5262 10.4144 22.452L8.78812 21.4585C6.85546 23.1603 5.16328 23.9265 3.63749 23.9265C2.65687 23.9265 2.1464 23.6131 2.1464 23.0844C2.1464 22.692 2.43843 22.4298 3.27117 22.2198C3.92015 22.0461 5.97679 21.4069 6.97077 20.7945L5.42812 20.1877C4.50468 20.6047 3.31569 20.7934 2.33483 21.1421C1.13835 21.533 0.233669 22.0958 0.233669 23.3579C0.233669 24.8023 1.65586 25.6212 3.57609 25.6212ZM25.4442 25.6405C27.3548 25.6405 28.7866 24.8312 28.7866 23.3867C28.7866 21.9261 27.6258 21.3847 26.2041 21.0034C25.3118 20.7624 24.3673 20.5662 23.5922 20.2166L22.0495 20.8137C23.0435 21.4358 25.1002 22.077 25.7491 22.2486C26.5723 22.4565 26.8739 22.7209 26.8739 23.1132C26.8739 23.6323 26.3634 23.9457 25.3828 23.9457C23.8474 23.9457 22.1648 23.1891 20.2322 21.4873L18.5962 22.4808C20.4795 24.5061 23.0051 25.6405 25.4442 25.6405Z" fill="black"/>
</svg>
