<svg width="28" height="28" viewBox="0 0 28 28" fill="none" xmlns="http://www.w3.org/2000/svg">
<path d="M14.105 26.21C20.7369 26.21 26.2121 20.7273 26.2121 14.105C26.2121 7.47312 20.7273 2 14.0954 2C7.47523 2 2 7.47312 2 14.105C2 20.7273 7.48484 26.21 14.105 26.21ZM14.105 23.8255C8.71085 23.8255 4.39412 19.4991 4.39412 14.105C4.39412 8.71085 8.70124 4.38452 14.0954 4.38452C19.4895 4.38452 23.8276 8.71085 23.8276 14.105C23.8276 19.4991 19.4991 23.8255 14.105 23.8255Z" fill="black"/>
<path d="M16.6676 18.7968L15.0847 17.2214C14.7774 17.341 14.453 17.4082 14.0956 17.4082C12.2649 17.4082 10.786 15.9026 10.786 14.1145C10.786 13.7592 10.8457 13.4114 10.9653 13.1137L8.68599 10.8174C7.01044 11.9991 6.0127 13.4559 6.0127 14.1124C6.0127 15.3122 9.34598 19.1925 14.0956 19.1925C15.008 19.1925 15.8736 19.0432 16.6676 18.7968ZM13.7407 15.8796L12.3155 14.4522C12.3132 15.191 12.9561 15.8702 13.7407 15.8796ZM17.2184 15.094L19.5169 17.4021C21.185 16.2204 22.171 14.7614 22.171 14.1124C22.171 12.9051 18.8963 9.02486 14.0956 9.02486C13.1832 9.02486 12.3368 9.17416 11.5449 9.42049L13.1107 10.9863C13.4159 10.8764 13.7499 10.8092 14.0956 10.8092C15.923 10.8092 17.4052 12.2679 17.4052 14.1145C17.4052 14.4527 17.3379 14.7888 17.2184 15.094ZM14.4525 12.3323L15.8586 13.7383C15.8417 13.0092 15.2297 12.3492 14.4525 12.3323ZM19.3894 20.2226C19.6097 20.4408 19.9929 20.445 20.2132 20.2226C20.4453 19.9927 20.4453 19.6287 20.2132 19.3987L8.78676 7.97017C8.55473 7.74025 8.18863 7.74025 7.9491 7.97017C7.72879 8.20009 7.72879 8.57369 7.9491 8.79611L19.3894 20.2226Z" fill="black"/>
</svg>
