<svg width="28" height="28" viewBox="0 0 28 28" fill="none" xmlns="http://www.w3.org/2000/svg">
<path d="M8.01578 27.2622C8.50023 27.2622 8.87382 27.0299 9.45835 26.489L13.7626 22.5944H21.4504C24.9784 22.5944 26.9547 20.5777 26.9547 17.0998V8.01138C26.9547 4.53349 24.9784 2.50708 21.4504 2.50708H6.50218C2.97625 2.50708 1 4.52388 1 8.01138V17.0998C1 20.5872 3.02476 22.5944 6.42836 22.5944H6.90109V25.9898C6.90109 26.7606 7.30984 27.2622 8.01578 27.2622Z" fill="black"/>
<path d="M8.0847 14.3635C7.08697 14.3635 6.26807 13.5521 6.26807 12.5447C6.26807 11.5395 7.08697 10.7281 8.0847 10.7281C9.08994 10.7281 9.90134 11.5395 9.90134 12.5447C9.90134 13.5521 9.08994 14.3635 8.0847 14.3635Z" fill="white"/>
<path d="M13.991 14.3635C12.9836 14.3635 12.1626 13.5521 12.1626 12.5447C12.1626 11.5395 12.9836 10.7281 13.991 10.7281C14.9866 10.7281 15.8076 11.5395 15.8076 12.5447C15.8076 13.5521 14.9866 14.3635 13.991 14.3635Z" fill="white"/>
<path d="M19.8858 14.3635C18.8806 14.3635 18.0713 13.5521 18.0713 12.5447C18.0713 11.5395 18.8806 10.7281 19.8858 10.7281C20.8953 10.7281 21.7046 11.5395 21.7046 12.5447C21.7046 13.5521 20.8953 14.3635 19.8858 14.3635Z" fill="white"/>
</svg>
