<svg width="28" height="28" viewBox="0 0 28 28" fill="none" xmlns="http://www.w3.org/2000/svg">
<path d="M5 19.8246C5 23.213 7.0789 25.3113 10.381 25.3113C12.8504 25.3113 14.6799 24.1894 15.8321 22.0748L16.872 20.1881C19.1865 15.9305 23.3333 15.123 23.3333 9.29367C23.3333 3.72492 19.7066 0 14.2702 0C8.72281 0 5 3.75258 5 9.35952V19.8246Z" fill="black"/>
<path d="M8.59912 16.6123C8.59912 14.3885 11.013 14.6381 11.013 13.3542C11.013 12.2119 8.59912 11.3648 8.59912 8.71152C8.59912 5.70003 10.8695 3.52808 14.249 3.52808C17.6697 3.52808 19.957 5.80902 19.957 9.20324C19.957 9.74722 19.5077 10.1965 18.9658 10.1965C18.4314 10.1965 17.9821 9.74722 17.9821 9.20324C17.9821 6.96941 16.5147 5.50081 14.249 5.50081C12.0458 5.50081 10.5761 6.84894 10.5761 8.71152C10.574 11.2092 14.1231 11.7801 14.1231 15.2301C14.1231 17.1881 12.8673 18.713 10.997 18.7247C9.56849 18.7247 8.59912 17.8641 8.59912 16.6123Z" fill="white"/>
</svg>
