<svg width="35" height="28" viewBox="0 0 35 28" fill="none" xmlns="http://www.w3.org/2000/svg">
<path d="M21.3582 24.6927C22.6068 23.4538 22.2601 22.4268 20.9682 21.3639L17.6448 18.6616C16.3848 17.6359 15.5764 18.044 14.6647 18.9002L14.4275 19.1416C13.6129 19.9103 12.4822 19.3422 9.68473 16.5447C7.0431 13.8913 6.33294 12.5556 7.07825 11.8019L7.31544 11.553C8.22715 10.6467 8.58176 9.83294 7.56786 8.58255L4.8538 5.23778C3.81013 3.94802 2.77138 3.61098 1.53669 4.84778C-1.84065 8.22513 0.622632 14.3209 6.25489 19.9628C11.8145 25.5224 17.9664 28.0963 21.3582 24.6927ZM11.7782 9.49473H13.9635C14.7964 9.49473 15.2757 9.02176 15.2757 8.17496V5.97582C15.2757 5.12692 14.7964 4.65395 13.9635 4.65395H11.7782C10.9197 4.65395 10.4286 5.12692 10.4286 5.97582V8.17496C10.4286 9.02176 10.9197 9.49473 11.7782 9.49473ZM18.0437 9.49473H20.229C21.062 9.49473 21.553 9.02176 21.553 8.17496V5.97582C21.553 5.12692 21.062 4.65395 20.229 4.65395H18.0437C17.1948 4.65395 16.6942 5.12692 16.6942 5.97582V8.17496C16.6942 9.02176 17.1948 9.49473 18.0437 9.49473ZM24.2954 9.49473H26.4807C27.3275 9.49473 27.8186 9.02176 27.8186 8.17496V5.97582C27.8186 5.12692 27.3275 4.65395 26.4807 4.65395H24.2954C23.4507 4.65395 22.9736 5.12692 22.9736 5.97582V8.17496C22.9736 9.02176 23.4507 9.49473 24.2954 9.49473ZM30.5493 9.49473H32.7463C33.5931 9.49473 34.0958 9.02176 34.0958 8.17496V5.97582C34.0958 5.12692 33.5931 4.65395 32.7463 4.65395H30.5493C29.7163 4.65395 29.2487 5.12692 29.2487 5.97582V8.17496C29.2487 9.02176 29.7163 9.49473 30.5493 9.49473ZM11.743 15.7698H13.9304C14.7847 15.7698 15.2757 15.2969 15.2757 14.4501V12.2392C15.2757 11.4042 14.7847 10.9153 13.9304 10.9153H11.743C10.9079 10.9153 10.4286 11.4042 10.4286 12.2392V14.4501C10.4286 15.2969 10.9079 15.7698 11.743 15.7698ZM18.0064 15.7698H26.5201C27.3648 15.7698 27.8303 15.2969 27.8303 14.4501V12.2392C27.8303 11.4042 27.3648 10.9153 26.5201 10.9153H18.0064C17.1597 10.9153 16.6942 11.4042 16.6942 12.2392V14.4501C16.6942 15.2969 17.1597 15.7698 18.0064 15.7698ZM30.5961 15.7698H32.7814C33.6303 15.7698 34.0958 15.2969 34.0958 14.4501V12.2392C34.0958 11.4042 33.6303 10.9153 32.7814 10.9153H30.5961C29.7493 10.9153 29.2604 11.4042 29.2604 12.2392V14.4501C29.2604 15.2969 29.7493 15.7698 30.5961 15.7698Z" fill="black"/>
</svg>
