<svg width="28" height="28" viewBox="0 0 28 28" fill="none" xmlns="http://www.w3.org/2000/svg">
<path d="M8.01578 27.2622C8.50023 27.2622 8.87382 27.0299 9.45835 26.489L13.7626 22.5944H21.4504C24.9784 22.5944 26.9547 20.5777 26.9547 17.0998V8.01138C26.9547 4.53349 24.9784 2.50708 21.4504 2.50708H6.50218C2.97625 2.50708 1 4.52388 1 8.01138V17.0998C1 20.5872 3.02476 22.5944 6.42836 22.5944H6.90109V25.9898C6.90109 26.7606 7.30984 27.2622 8.01578 27.2622Z" fill="black"/>
<path d="M6.40519 13.9061C5.97839 13.9061 5.62402 13.5412 5.62402 13.1005C5.62402 12.6791 5.97417 12.3184 6.40519 12.3184H11.085C11.5223 12.3184 11.8725 12.677 11.8725 13.1005C11.8725 13.5412 11.5223 13.9061 11.085 13.9061H6.40519ZM13.6401 13.9061C13.2133 13.9061 12.8589 13.5412 12.8589 13.1005C12.8589 12.6791 13.2112 12.3184 13.6401 12.3184H21.5683C22.0035 12.3184 22.3483 12.677 22.3483 13.1005C22.3483 13.5412 22.0035 13.9061 21.5683 13.9061H13.6401ZM6.40519 17.1027C5.97839 17.1027 5.62402 16.7495 5.62402 16.3227C5.62402 15.8779 5.97417 15.5151 6.40519 15.5151H8.38847C8.8237 15.5151 9.16636 15.8737 9.16636 16.3227C9.16636 16.7495 8.8237 17.1027 8.38847 17.1027H6.40519ZM10.9361 17.1027C10.5072 17.1027 10.1646 16.7495 10.1646 16.3227C10.1646 15.8779 10.5051 15.5151 10.9361 15.5151H16.7775C17.2106 15.5151 17.5671 15.8737 17.5671 16.3227C17.5671 16.7495 17.2106 17.1027 16.7775 17.1027H10.9361ZM19.3326 17.1027C18.9037 17.1027 18.5514 16.7495 18.5514 16.3227C18.5514 15.8779 18.9016 15.5151 19.3326 15.5151H21.5683C22.0014 15.5151 22.3483 15.8737 22.3483 16.3227C22.3483 16.7495 22.0014 17.1027 21.5683 17.1027H19.3326Z" fill="white"/>
</svg>
