<svg width="28" height="28" viewBox="0 0 28 28" fill="none" xmlns="http://www.w3.org/2000/svg">
<path d="M14.105 26.2301C20.7369 26.2301 26.2121 20.7549 26.2121 14.123C26.2121 7.50291 20.7273 2.01807 14.0954 2.01807C7.47523 2.01807 2 7.50291 2 14.123C2 20.7549 7.48484 26.2301 14.105 26.2301Z" fill="black"/>
<path d="M15.8622 20.261C14.2021 21.9264 11.2164 20.6812 8.51642 17.9695C5.75173 15.2123 4.55501 12.2552 6.19611 10.5927C6.80454 9.99176 7.28993 10.1699 7.81517 10.7931L9.14056 12.4169C9.62314 13.0167 9.43353 13.3938 9.01376 13.8604L8.90314 13.9924C8.56025 14.3833 8.88228 15.0187 10.172 16.3042C11.5366 17.6442 12.0545 17.916 12.4839 17.5635L12.6063 17.4529C13.0495 17.0439 13.4191 16.8297 14.0402 17.3378L15.6714 18.6707C16.3063 19.1575 16.4802 19.6696 15.8622 20.261ZM11.3744 12.663C10.9759 12.663 10.7458 12.4157 10.7458 12.0077V10.9499C10.7458 10.5226 10.9759 10.3117 11.3744 10.3117H12.4513C12.8648 10.3117 13.0992 10.5226 13.0992 10.9499V12.0077C13.0992 12.4157 12.8648 12.663 12.4513 12.663H11.3744ZM14.444 12.663C14.036 12.663 13.7706 12.4157 13.7706 12.0077V10.9499C13.7706 10.5226 14.036 10.3117 14.444 10.3117H15.5167C15.9152 10.3117 16.1495 10.5226 16.1495 10.9499V12.0077C16.1495 12.4157 15.9152 12.663 15.5167 12.663H14.444ZM17.4827 12.663C17.0842 12.663 16.8499 12.4157 16.8499 12.0077V10.9499C16.8499 10.5226 17.0842 10.3117 17.4827 10.3117H18.5554C18.9656 10.3117 19.2149 10.5226 19.2149 10.9499V12.0077C19.2149 12.4157 18.9656 12.663 18.5554 12.663H17.4827ZM20.5385 12.663C20.1421 12.663 19.9099 12.4157 19.9099 12.0077V10.9499C19.9099 10.5226 20.1421 10.3117 20.5385 10.3117H21.6133C22.0406 10.3117 22.2792 10.5226 22.2792 10.9499V12.0077C22.2792 12.4157 22.0406 12.663 21.6133 12.663H20.5385ZM11.3723 15.723C10.9567 15.723 10.7458 15.4928 10.7458 15.0731V14.0078C10.7458 13.5827 10.9567 13.3696 11.3723 13.3696H12.4279C12.8648 13.3696 13.0992 13.5827 13.0992 14.0078V15.0731C13.0992 15.4928 12.8648 15.723 12.4279 15.723H11.3723ZM14.4302 15.723C14.0221 15.723 13.7706 15.4928 13.7706 15.0731V14.0078C13.7706 13.5827 14.0221 13.3696 14.4302 13.3696H18.581C18.9869 13.3696 19.2192 13.5827 19.2192 14.0078V15.0731C19.2192 15.4928 18.9869 15.723 18.581 15.723H14.4302ZM20.5544 15.723C20.1656 15.723 19.9099 15.4928 19.9099 15.0731V14.0078C19.9099 13.5827 20.1656 13.3696 20.5544 13.3696H21.6367C22.0565 13.3696 22.2792 13.5827 22.2792 14.0078V15.0731C22.2792 15.4928 22.0565 15.723 21.6367 15.723H20.5544Z" fill="white"/>
</svg>
