<svg width="29" height="28" viewBox="0 0 29 28" fill="none" xmlns="http://www.w3.org/2000/svg">
<path d="M14.0231 2C6.17319 2 0 4.52585 0 9.34953V9.36124C0 11.1083 0.970076 11.5962 2.62617 11.428L6.90398 10.973C8.51437 10.8048 8.82749 9.9964 8.82749 8.71085V8.36304C8.82749 7.31328 10.2987 6.84757 14.0231 6.84757C17.9824 6.84757 19.2166 7.24601 19.2166 8.37265V8.71085C19.2166 9.96757 19.5394 10.8048 21.1497 10.973L25.4276 11.428C27.0836 11.5962 28.0516 11.1083 28.0537 9.35164V9.34953C28.0537 4.52585 21.8805 2 14.0231 2ZM3.54562 18.0826H5.73093C6.5735 18.0826 7.04319 17.6096 7.04319 16.7607V14.5637C7.04319 13.7148 6.5735 13.2418 5.73093 13.2418H3.54562C2.69671 13.2418 2.2057 13.7148 2.2057 14.5637V16.7607C2.2057 17.6096 2.69671 18.0826 3.54562 18.0826ZM9.82077 18.0826H12.0061C12.839 18.0826 13.3301 17.6096 13.3301 16.7607V14.5637C13.3301 13.7148 12.839 13.2418 12.0061 13.2418H9.82077C8.96226 13.2418 8.47124 13.7148 8.47124 14.5637V16.7607C8.47124 17.6096 8.96226 18.0826 9.82077 18.0826ZM16.0725 18.0826H18.2482C19.095 18.0826 19.5956 17.6096 19.5956 16.7607V14.5637C19.5956 13.7148 19.095 13.2418 18.2482 13.2418H16.0725C15.2278 13.2418 14.7506 13.7148 14.7506 14.5637V16.7607C14.7506 17.6096 15.2278 18.0826 16.0725 18.0826ZM22.3263 18.0826H24.5137C25.3701 18.0826 25.8729 17.6096 25.8729 16.7607V14.5637C25.8729 13.7148 25.3701 13.2418 24.5137 13.2418H22.3263C21.4933 13.2418 21.0162 13.7148 21.0162 14.5637V16.7607C21.0162 17.6096 21.4933 18.0826 22.3263 18.0826ZM3.52007 24.3577H5.70749C6.55218 24.3577 7.04319 23.8848 7.04319 23.0358V20.825C7.04319 19.9899 6.55218 19.5031 5.70749 19.5031H3.52007C2.68499 19.5031 2.2057 19.9899 2.2057 20.825V23.0358C2.2057 23.8848 2.68499 24.3577 3.52007 24.3577ZM9.7835 24.3577H18.2972C19.1419 24.3577 19.6073 23.8848 19.6073 23.0358V20.825C19.6073 19.9899 19.1419 19.5031 18.2972 19.5031H9.7835C8.93671 19.5031 8.47124 19.9899 8.47124 20.825V23.0358C8.47124 23.8848 8.93671 24.3577 9.7835 24.3577ZM22.3732 24.3577H24.5585C25.4074 24.3577 25.8729 23.8848 25.8729 23.0358V20.825C25.8729 19.9899 25.4074 19.5031 24.5585 19.5031H22.3732C21.5285 19.5031 21.0279 19.9899 21.0279 20.825V23.0358C21.0279 23.8848 21.5285 24.3577 22.3732 24.3577Z" fill="black"/>
</svg>
