<svg width="40" height="28" viewBox="0 0 40 28" fill="none" xmlns="http://www.w3.org/2000/svg">
<path d="M14.1642 13.355C17.3712 13.3454 20.0695 12.1791 22.1885 9.83988C20.0217 7.12933 17.7059 5.88456 14.2505 5.87284C10.792 5.86534 8.45437 7.03886 6.22617 9.90152C8.36133 12.2356 11.1441 13.3646 14.1642 13.355ZM6.49969 20.7488C8.32078 19.0887 9.74414 16.3801 9.98156 14.1826C8.36695 13.5882 6.50414 12.4843 5.29266 11.2035C4.75031 12.042 4.17703 12.9573 3.66351 13.9759C2.60953 16.0648 1.41586 17.0642 0.633745 17.8121C0.230858 18.2021 0 18.5504 0 19.0707C0 19.8242 0.760311 20.2477 2.10304 20.2477H3.47765C4.71539 20.2477 5.61774 20.4476 6.49969 20.7488ZM14.164 23.4019C16.8539 23.4019 18.7723 22.1012 20.3564 21.3181C18.4369 19.5936 17.2357 17.0499 17.0641 14.5958C16.1231 14.8421 15.1746 14.9626 14.1952 14.9626C13.2241 14.9722 12.2841 14.8442 11.377 14.6192C11.1832 16.9421 9.98179 19.568 8.0939 21.3704C9.64265 21.9955 11.5078 23.4019 14.164 23.4019ZM21.7992 20.686C22.8298 20.4113 23.839 20.2231 25.1468 20.1809C26.1558 20.1641 27.1444 20.0009 27.6455 19.7194C26.4809 17.9635 24.2651 12.9676 23.058 11.0736C21.8004 12.3929 19.9151 13.5884 18.4788 14.1411C18.7003 16.3897 19.9111 18.9043 21.7992 20.686Z" fill="black"/>
<path d="M3.30427 25.3372C5.35599 25.3372 7.43982 24.477 8.49591 23.1861C7.23357 22.4117 5.67709 21.6694 4.22467 21.5075C3.60358 21.68 2.95225 21.7299 2.24162 21.8832C1.30974 22.0686 0.452637 22.4872 0.452637 23.4219C0.452637 24.6481 1.66834 25.3372 3.30427 25.3372ZM24.8991 25.3564C26.5498 25.3564 27.776 24.6673 27.776 23.4411C27.776 22.4485 26.8556 21.7775 25.871 21.6554C25.193 21.6076 24.6558 21.5811 23.9618 21.5237C22.5467 21.6615 20.8657 22.4354 19.6568 23.18C20.6897 24.5059 22.8474 25.3564 24.8991 25.3564ZM28.8877 19.2144C30.5885 18.4505 31.6118 17.4971 33.8471 17.4971C36.9942 17.4971 39.016 16.3681 39.016 14.5916C39.016 10.5216 36.8548 7.77124 33.6103 7.77124C30.8067 7.77124 29.0609 9.49741 28.3655 12.1555C27.8965 13.873 27.233 14.5716 26.5784 15.0788C27.1493 16.051 28.0322 17.7491 28.8877 19.2144ZM33.8979 13.4555C33.2974 13.4555 32.8184 12.9669 32.8184 12.376C32.8184 11.7969 33.2974 11.3082 33.8979 11.3082C34.4771 11.3082 34.9636 11.7969 34.9636 12.376C34.9636 12.9669 34.4771 13.4555 33.8979 13.4555Z" fill="black"/>
</svg>
