<svg width="28" height="28" viewBox="0 0 28 28" fill="none" xmlns="http://www.w3.org/2000/svg">
<path d="M8.39687 27.1131C9.04913 27.1131 9.53405 26.7937 10.3459 26.0807L14.3572 22.5294H21.4504C24.9784 22.5294 26.9547 20.503 26.9547 17.0251V7.93679C26.9547 4.45891 24.9784 2.4325 21.4504 2.4325H6.50218C2.97625 2.4325 1 4.4493 1 7.93679V17.0251C1 20.5126 3.02476 22.5294 6.42836 22.5294H6.9107V25.4181C6.9107 26.4533 7.45422 27.1131 8.39687 27.1131ZM8.96593 24.532V21.1863C8.96593 20.4986 8.67132 20.2335 8.01319 20.2335H6.56757C4.35225 20.2335 3.29592 19.1066 3.29592 16.9523V8.00007C3.29592 5.84569 4.35225 4.72842 6.56757 4.72842H21.3871C23.5928 4.72842 24.6588 5.84569 24.6588 8.00007V16.9523C24.6588 19.1066 23.5928 20.2335 21.3871 20.2335H14.2321C13.521 20.2335 13.1823 20.3484 12.6864 20.8497L8.96593 24.532Z" fill="black"/>
<path d="M8.27734 11.2555C8.27734 12.6189 9.13046 13.6523 10.4505 13.6523C10.9764 13.6523 11.477 13.547 11.788 13.1582H11.9176C11.5283 14.0908 10.6429 14.7372 9.78413 14.9491C9.37585 15.0578 9.23218 15.2495 9.23218 15.5329C9.23218 15.8427 9.49304 16.0804 9.83171 16.0804C11.0786 16.0804 13.4026 14.5982 13.4026 11.7334C13.4026 10.0933 12.3608 8.83142 10.7762 8.83142C9.34468 8.83142 8.27734 9.8315 8.27734 11.2555ZM14.6329 11.2555C14.6329 12.6189 15.4839 13.6523 16.806 13.6523C17.3319 13.6523 17.8304 13.547 18.1414 13.1582H18.2732C17.8839 14.0908 16.9984 14.7372 16.1396 14.9491C15.7389 15.0578 15.5877 15.2495 15.5877 15.5329C15.5877 15.8427 15.8464 16.0804 16.1851 16.0804C17.432 16.0804 19.7561 14.5982 19.7561 11.7334C19.7561 10.0933 18.7143 8.83142 17.1318 8.83142C15.6981 8.83142 14.6329 9.8315 14.6329 11.2555Z" fill="black"/>
</svg>
