<svg width="32" height="28" viewBox="0 0 32 28" fill="none" xmlns="http://www.w3.org/2000/svg">
<path d="M26.9873 26.9258C30.824 25.5315 32.118 22.3415 30.6342 18.2415L30.0239 16.5362C29.4667 14.9938 28.3495 14.2837 27.4828 14.5956C27.2582 14.684 27.1891 14.8403 27.2582 15.051L27.5257 15.7872C27.6482 16.1219 27.5341 16.3415 27.3454 16.4172C27.1354 16.4854 26.9104 16.3841 26.7878 16.0473L26.6142 15.5615C26.2776 14.6413 25.4608 14.2473 24.6536 14.5391C24.2671 14.6765 24.1373 14.9052 24.2608 15.2352L24.6358 16.243C24.7584 16.5681 24.656 16.7952 24.4694 16.8613C24.2477 16.9391 24.0227 16.84 23.9097 16.5128L23.5699 15.5753C23.2003 14.5431 22.4078 14.2494 21.6114 14.538C21.2559 14.6732 21.1143 14.9212 21.2303 15.2298L21.9494 17.2187C22.072 17.5609 21.9675 17.7751 21.7734 17.8466C21.5655 17.9244 21.348 17.8232 21.2158 17.4789L18.8336 10.9246C18.5887 10.243 17.9753 9.95453 17.4025 10.1643C16.7871 10.3975 16.5145 10.9937 16.7711 11.6678L20.2563 21.2198C20.332 21.4373 20.2317 21.6121 20.0899 21.6526C19.9619 21.707 19.8222 21.6644 19.6462 21.4862L17.3212 18.9737C16.9474 18.5744 16.56 18.4544 16.1184 18.6161C15.4753 18.8493 15.2252 19.438 15.42 19.983C15.4849 20.1789 15.5925 20.3514 15.7021 20.477L18.7132 24.2179C21.2271 27.3381 24.1096 27.977 26.9873 26.9258Z" fill="black"/>
<path d="M12.105 25.21C13.7834 25.21 15.401 24.8582 16.8598 24.209L15.3197 22.2428C14.3257 22.627 13.2452 22.8255 12.105 22.8255C6.71085 22.8255 2.39412 18.4991 2.39412 13.105C2.39412 7.71085 6.69163 3.39412 12.0954 3.38452C17.5087 3.38452 21.7849 7.68952 21.8063 13.0719C22.557 12.9316 23.4016 12.97 24.2025 13.1605C24.2292 6.51156 18.7753 1 12.105 1C5.47523 1 0 6.47312 0 13.105C0 19.7369 5.48484 25.21 12.105 25.21ZM12.1188 16.7048C14.0897 16.7048 15.7207 15.0876 15.7207 13.0912C15.7207 11.1182 14.0897 9.50101 12.1188 9.50101C10.1341 9.50101 8.50312 11.1182 8.50312 13.0912C8.50312 15.0876 10.1341 16.7048 12.1188 16.7048Z" fill="black"/>
</svg>
