<svg width="28" height="28" viewBox="0 0 28 28" fill="none" xmlns="http://www.w3.org/2000/svg">
<path d="M6.84421 24.8972H21.0295C23.5685 24.8972 24.8737 23.5919 24.8737 21.0914V6.82921C24.8737 4.32656 23.5685 3.02344 21.0295 3.02344H6.84421C4.31484 3.02344 3 4.31695 3 6.82921V21.0914C3 23.6016 4.31484 24.8972 6.84421 24.8972ZM6.97733 22.6013C5.88772 22.6013 5.29592 22.0371 5.29592 20.8985V7.01999C5.29592 5.88139 5.88772 5.31936 6.97733 5.31936H20.8964C21.9764 5.31936 22.5778 5.88139 22.5778 7.01999V20.8985C22.5778 22.0371 21.9764 22.6013 20.8964 22.6013H6.97733Z" fill="black"/>
<path d="M7.9043 13.9373C7.9043 14.2563 8.04047 14.5179 8.28516 14.7583L12.2587 18.6804C12.4512 18.8665 12.6865 18.9666 12.963 18.9666C13.5101 18.9666 13.8996 18.5536 13.8996 18.0035C13.8996 17.7162 13.7986 17.4694 13.5996 17.3023L12.1812 15.9356L10.8539 14.8659L13.2729 14.9648H19.0134C19.6071 14.9648 20.0252 14.5277 20.0252 13.9373C20.0252 13.3373 19.5975 12.9002 19.0134 12.9002H13.2729L10.8635 13.0087L12.1896 11.9369L13.5996 10.5724C13.7847 10.3936 13.8996 10.1468 13.8996 9.86155C13.8996 9.31358 13.5101 8.91022 12.963 8.91022C12.6865 8.91022 12.4512 8.99858 12.2587 9.18467L8.28516 13.1163C8.02125 13.376 7.9043 13.6184 7.9043 13.9373Z" fill="black"/>
</svg>
