<svg width="28" height="28" viewBox="0 0 28 28" fill="none" xmlns="http://www.w3.org/2000/svg">
<path d="M17.5509 3.03305C12.9056 3.03305 9.69586 6.17789 9.69586 11.5059V18.9406L9.87469 22.8792L10.5466 22.5143L8.08242 19.5902L5.1342 16.578C4.91202 16.3441 4.62702 16.1965 4.24429 16.1965C3.5189 16.1965 3 16.7069 3 17.4588C3 17.7799 3.15211 18.1373 3.39984 18.3851L10.0287 25.1217C10.2851 25.3877 10.6305 25.5206 10.9826 25.5206C11.3271 25.5206 11.6726 25.3877 11.9269 25.1217L18.5536 18.3851C18.813 18.1373 18.9555 17.7799 18.9555 17.4588C18.9555 16.7069 18.4366 16.1965 17.7112 16.1965C17.3264 16.1965 17.051 16.3441 16.8213 16.578L13.8848 19.5902L11.411 22.5143L12.083 22.8792L12.2618 18.9406V11.426C12.2618 7.6514 14.4016 5.57577 17.4527 5.57577C20.5113 5.57577 22.7496 7.6514 22.7496 11.426V14.1508C22.7496 14.9198 23.3238 15.4535 24.0288 15.4535C24.7338 15.4535 25.308 14.9198 25.308 14.1508V11.348C25.308 6.10852 22.2312 3.03305 17.5509 3.03305Z" fill="black"/>
</svg>
