<svg width="28" height="28" viewBox="0 0 28 28" fill="none" xmlns="http://www.w3.org/2000/svg">
<path d="M14.105 26.21C20.7369 26.21 26.2121 20.7273 26.2121 14.105C26.2121 7.47312 20.7273 2 14.0954 2C7.47523 2 2 7.47312 2 14.105C2 20.7273 7.48484 26.21 14.105 26.21Z" fill="black"/>
<path d="M14.1254 6.61952C14.4339 6.61952 14.6753 6.75148 14.9382 7.00905L18.305 10.3925C18.4965 10.5786 18.5849 10.8202 18.5849 11.0928C18.5849 11.6293 18.1825 12.0212 17.63 12.0212C17.3331 12.0212 17.0989 11.8819 16.9138 11.7064L16.1591 10.9421L15.0416 9.57334L15.1576 12.0373V16.1663L15.0416 18.6324L16.1591 17.2637L16.9138 16.4994C17.0989 16.3142 17.3331 16.1846 17.63 16.1846C18.1825 16.1846 18.5849 16.5765 18.5849 17.113C18.5849 17.3759 18.4965 17.6272 18.305 17.8133L14.9382 21.1967C14.6753 21.4543 14.4339 21.5862 14.1254 21.5862C13.8053 21.5862 13.5543 21.4543 13.3009 21.1967L9.94375 17.8133C9.75227 17.6272 9.6543 17.3759 9.6543 17.113C9.6543 16.5765 10.0663 16.1846 10.6187 16.1846C10.9157 16.1846 11.1498 16.3046 11.335 16.4994L12.08 17.2637L13.2071 18.642L13.0932 16.1663V12.0373L13.2071 9.56162L12.08 10.9421L11.335 11.7064C11.1498 11.8916 10.9157 12.0212 10.6187 12.0212C10.0663 12.0212 9.6543 11.6293 9.6543 11.0928C9.6543 10.8202 9.75227 10.5786 9.94375 10.3925L13.3009 7.00905C13.5543 6.75148 13.8053 6.61952 14.1254 6.61952Z" fill="white"/>
</svg>
