<svg width="28" height="28" viewBox="0 0 28 28" fill="none" xmlns="http://www.w3.org/2000/svg">
<path d="M6.84421 24.8972H21.0295C23.5685 24.8972 24.8737 23.5919 24.8737 21.0914V6.82921C24.8737 4.32656 23.5685 3.02344 21.0295 3.02344H6.84421C4.31484 3.02344 3 4.31695 3 6.82921V21.0914C3 23.6016 4.31484 24.8972 6.84421 24.8972Z" fill="black"/>
<path d="M17.7664 17.1305C17.1514 17.1305 16.7597 16.6964 16.7597 16.0315V14.1049L16.9313 12.349L15.2885 14.1363L11.0625 18.3698C10.8361 18.5941 10.5574 18.7123 10.2244 18.7123C9.60843 18.7123 9.16406 18.289 9.16406 17.6391C9.16406 17.3583 9.29062 17.0637 9.50015 16.852L13.756 12.6059L15.5646 10.9535L13.894 11.141H11.8598C11.1874 11.141 10.7534 10.7494 10.7534 10.144C10.7534 9.529 11.1799 9.13525 11.847 9.13525H17.5299C18.2944 9.13525 18.7709 9.51564 18.7709 10.3528V16.0165C18.7709 16.6697 18.3696 17.1305 17.7664 17.1305Z" fill="white"/>
</svg>
