<svg width="28" height="28" viewBox="0 0 28 28" fill="none" xmlns="http://www.w3.org/2000/svg">
<path d="M6.84421 24.8972H21.0295C23.5685 24.8972 24.8737 23.5919 24.8737 21.0914V6.82921C24.8737 4.32656 23.5685 3.02344 21.0295 3.02344H6.84421C4.31484 3.02344 3 4.31695 3 6.82921V21.0914C3 23.6016 4.31484 24.8972 6.84421 24.8972ZM6.97733 22.6013C5.88772 22.6013 5.29592 22.0371 5.29592 20.8985V7.01999C5.29592 5.88139 5.88772 5.31936 6.97733 5.31936H20.8964C21.9764 5.31936 22.5778 5.88139 22.5778 7.01999V20.8985C22.5778 22.0371 21.9764 22.6013 20.8964 22.6013H6.97733Z" fill="black"/>
<path d="M8.00566 14.9081L12.6859 14.9177C12.9149 14.9177 13.0714 15.0647 13.0714 15.3033V19.9355C13.0714 20.9995 14.2489 21.1915 14.6532 20.3149L19.6201 9.66442C20.0727 8.70934 19.22 7.87052 18.2574 8.32099L7.63793 13.3263C6.74754 13.7423 6.9491 14.9081 8.00566 14.9081Z" fill="black"/>
</svg>
