<svg width="28" height="28" viewBox="0 0 28 28" fill="none" xmlns="http://www.w3.org/2000/svg">
<path d="M6.84421 24.8972H21.0295C23.5685 24.8972 24.8737 23.5919 24.8737 21.0914V6.82921C24.8737 4.32656 23.5685 3.02344 21.0295 3.02344H6.84421C4.31484 3.02344 3 4.31695 3 6.82921V21.0914C3 23.6016 4.31484 24.8972 6.84421 24.8972ZM6.97733 22.6013C5.88772 22.6013 5.29592 22.0371 5.29592 20.8985V7.01999C5.29592 5.88139 5.88772 5.31936 6.97733 5.31936H20.8964C21.9764 5.31936 22.5778 5.88139 22.5778 7.01999V20.8985C22.5778 22.0371 21.9764 22.6013 20.8964 22.6013H6.97733Z" fill="black"/>
<path d="M9.80836 8.51227L6.95601 11.4337C6.81656 11.5903 6.70898 11.8193 6.70898 12.0002C6.70898 12.4549 7.05187 12.7957 7.50867 12.7957C7.71843 12.7957 7.91226 12.7062 8.06132 12.5571L9.24093 11.3285L9.61031 10.9303L9.59109 11.5193V18.8494C9.59109 19.2944 9.93609 19.6298 10.3908 19.6298C10.8572 19.6298 11.2022 19.2944 11.2022 18.8494V11.5097L11.1734 10.9303L11.5523 11.3285L12.7298 12.5667C12.8768 12.7158 13.0769 12.7957 13.2846 12.7957C13.7414 12.7957 14.0768 12.4645 14.0768 12.0002C14.0768 11.8001 13.965 11.5711 13.8276 11.4337L10.9807 8.51227C10.6784 8.20032 10.1609 8.15766 9.80836 8.51227ZM18.0881 19.3903L20.9255 16.4784C21.0703 16.3219 21.1779 16.1025 21.1779 15.9023C21.1779 15.438 20.8563 15.1144 20.3899 15.1144C20.1684 15.1144 19.965 15.1964 19.8277 15.3455L18.6459 16.5645L18.2766 16.9627L18.2958 16.3929V9.0532C18.2958 8.59852 17.9508 8.26313 17.4961 8.26313C17.0393 8.26313 16.6943 8.59852 16.6943 9.0532V16.4025L16.7156 16.9723L16.3462 16.5645L15.1666 15.3455C15.0101 15.1868 14.8216 15.1144 14.6023 15.1144C14.1359 15.1144 13.8239 15.438 13.8239 15.9023C13.8239 16.0929 13.9123 16.3123 14.0592 16.4784L16.9062 19.3903C17.1989 19.6905 17.7548 19.7332 18.0881 19.3903Z" fill="black"/>
</svg>
