<svg width="28" height="28" viewBox="0 0 28 28" fill="none" xmlns="http://www.w3.org/2000/svg">
<path d="M6.84421 24.8972H21.0295C23.5685 24.8972 24.8737 23.5919 24.8737 21.0914V6.82921C24.8737 4.32656 23.5685 3.02344 21.0295 3.02344H6.84421C4.31484 3.02344 3 4.31695 3 6.82921V21.0914C3 23.6016 4.31484 24.8972 6.84421 24.8972ZM6.97733 22.6013C5.88772 22.6013 5.29592 22.0371 5.29592 20.8985V7.01999C5.29592 5.88139 5.88772 5.31936 6.97733 5.31936H20.8964C21.9764 5.31936 22.5778 5.88139 22.5778 7.01999V20.8985C22.5778 22.0371 21.9764 22.6013 20.8964 22.6013H6.97733Z" fill="black"/>
<path d="M8.50305 9.90798C8.16977 10.2338 8.18149 10.7876 8.50305 11.0995L11.4149 13.9465C11.5715 14.0838 11.8005 14.1818 11.991 14.1818C12.4553 14.1818 12.779 13.8602 12.779 13.4034C12.779 13.1862 12.6969 12.986 12.5479 12.8391L11.3289 11.6616L10.9211 11.2826L11.4908 11.3114H18.8402C19.2948 11.3114 19.6302 10.9568 19.6302 10.5C19.6302 10.0453 19.2948 9.70993 18.8402 9.70993H11.5005L10.9307 9.71954L11.3289 9.35978L12.5479 8.18017C12.6969 8.03321 12.779 7.82767 12.779 7.6179C12.779 7.14939 12.4553 6.82782 11.991 6.82782C11.7909 6.82782 11.5619 6.9279 11.4149 7.08235L8.50305 9.90798ZM19.3811 17.9913C19.7165 17.6602 19.7027 17.1502 19.3811 16.8286L16.4596 13.9816C16.3223 13.8347 16.0933 13.7346 15.8835 13.7346C15.4192 13.7346 15.0956 14.0583 15.0956 14.5151C15.0956 14.7344 15.1776 14.9325 15.3266 15.0794L16.5649 16.2591L16.9631 16.6359L16.3837 16.6071H9.04398C8.59891 16.6071 8.25391 16.9425 8.25391 17.4089C8.25391 17.8636 8.5893 18.2086 9.04398 18.2086H16.3741L16.9631 18.199L16.5649 18.5587L15.3363 19.7405C15.1872 19.897 15.0956 20.0812 15.0956 20.3027C15.0956 20.7595 15.4384 21.0907 15.8835 21.0907C16.0741 21.0907 16.3031 20.9927 16.4596 20.8458L19.3811 17.9913Z" fill="black"/>
</svg>
