<svg width="28" height="28" viewBox="0 0 28 28" fill="none" xmlns="http://www.w3.org/2000/svg">
<path d="M14.105 26.21C20.7369 26.21 26.2121 20.7273 26.2121 14.105C26.2121 7.47312 20.7273 2 14.0954 2C7.47523 2 2 7.47312 2 14.105C2 20.7273 7.48484 26.21 14.105 26.21Z" fill="black"/>
<path d="M7.82617 14.0975C7.82617 13.7605 7.94523 13.5118 8.22719 13.2383L12.3539 9.1578C12.5601 8.95577 12.79 8.8653 13.09 8.8653C13.6614 8.8653 14.0765 9.28671 14.0765 9.86655C14.0765 10.156 13.9404 10.4208 13.7585 10.6135L12.307 12.0195L10.9276 13.1265L13.4318 13.0063H19.3659C19.9818 13.0063 20.4276 13.4635 20.4276 14.0975C20.4276 14.7219 19.9915 15.1791 19.3659 15.1791H13.4318L10.918 15.0685L12.2943 16.1734L13.7585 17.5815C13.9542 17.7624 14.0765 18.0273 14.0765 18.3188C14.0765 18.9008 13.6614 19.3297 13.09 19.3297C12.79 19.3297 12.5601 19.2296 12.3539 19.0276L8.22719 14.9588C7.96445 14.7024 7.82617 14.4345 7.82617 14.0975Z" fill="white"/>
</svg>
