<svg width="28" height="28" viewBox="0 0 28 28" fill="none" xmlns="http://www.w3.org/2000/svg">
<path d="M6.84421 24.8972H21.0295C23.5685 24.8972 24.8737 23.5919 24.8737 21.0914V6.82921C24.8737 4.32656 23.5685 3.02344 21.0295 3.02344H6.84421C4.31484 3.02344 3 4.31695 3 6.82921V21.0914C3 23.6016 4.31484 24.8972 6.84421 24.8972ZM6.97733 22.6013C5.88772 22.6013 5.29592 22.0371 5.29592 20.8985V7.01999C5.29592 5.88139 5.88772 5.31936 6.97733 5.31936H20.8964C21.9764 5.31936 22.5778 5.88139 22.5778 7.01999V20.8985C22.5778 22.0371 21.9764 22.6013 20.8964 22.6013H6.97733Z" fill="black"/>
<path d="M10.2811 16.9987C10.8642 16.9987 11.2399 16.5848 11.2399 15.9518V14.0805L11.0684 12.3874L12.6504 14.1098L16.7457 18.203C16.9657 18.4113 17.2168 18.5273 17.5339 18.5273C18.1254 18.5273 18.5614 18.1242 18.5614 17.5062C18.5614 17.2317 18.4294 16.9552 18.2316 16.7573L14.1162 12.6419L12.3745 11.0503L13.9824 11.2378H15.9612C16.6017 11.2378 17.0135 10.8621 17.0135 10.279C17.0135 9.69584 16.6071 9.32013 15.9741 9.32013H10.4974C9.7711 9.32013 9.32227 9.68036 9.32227 10.4814V15.9368C9.32227 16.556 9.69797 16.9987 10.2811 16.9987Z" fill="black"/>
</svg>
