<svg width="32" height="28" viewBox="0 0 32 28" fill="none" xmlns="http://www.w3.org/2000/svg">
<path d="M17.8399 24.7959C18.7422 24.7959 19.4072 24.1235 19.4072 23.2308V19.0052H19.6985C24.0133 19.0052 26.6428 20.2528 28.5059 23.7157C28.9709 24.5585 29.5394 24.7474 30.1392 24.7474C30.9396 24.7474 31.5698 23.9909 31.5698 22.5591C31.5698 14.0424 27.8247 8.8193 19.6985 8.8193H19.4072V4.6153C19.4072 3.72258 18.7422 3 17.8207 3C17.1979 3 16.7648 3.25453 16.091 3.88476L6.81327 12.5332C6.3478 12.9731 6.18397 13.4531 6.18397 13.898C6.18397 14.3248 6.35952 14.8249 6.81538 15.2552L16.091 23.9709C16.702 24.5426 17.2087 24.7959 17.8399 24.7959ZM17.1065 21.8166C17.0383 21.8166 16.9701 21.7814 16.9019 21.7132L8.86614 14.1164C8.7745 14.0248 8.73934 13.9662 8.73934 13.898C8.73934 13.8277 8.7745 13.7616 8.86614 13.6795L16.9019 5.99412C16.9605 5.94725 17.0287 5.9067 17.0969 5.9067C17.2045 5.9067 17.2715 5.97912 17.2715 6.08131V10.529C17.2715 10.7965 17.3962 10.9116 17.6637 10.9116H19.1686C26.7795 10.9116 29.3993 15.9645 29.5978 21.5337C29.5978 21.6211 29.5626 21.6563 29.5062 21.6563C29.4614 21.6563 29.4359 21.6232 29.4028 21.5433C28.0094 18.6166 24.5641 16.894 19.1686 16.894H17.6637C17.3962 16.894 17.2715 17.0091 17.2715 17.2765V21.6281C17.2715 21.7399 17.2045 21.8166 17.1065 21.8166ZM11.6559 24.7959C12.5604 24.7959 13.2232 24.1235 13.2232 23.2308V20.2296L11.0876 18.39V21.6281C11.0876 21.7399 11.0205 21.8166 10.913 21.8166C10.8544 21.8166 10.7862 21.7814 10.718 21.7132L2.68217 14.1164C2.59053 14.0248 2.55748 13.9662 2.55748 13.898C2.55748 13.8277 2.59053 13.7616 2.68217 13.6795L10.718 5.99412C10.7766 5.94725 10.8448 5.9067 10.913 5.9067C11.0205 5.9067 11.0876 5.97912 11.0876 6.08131V9.3867L13.2232 7.5778V4.6153C13.2232 3.72258 12.5604 3 11.6367 3C11.0161 3 10.5809 3.25453 9.90703 3.88476L0.619686 12.5332C0.154218 12.9731 0 13.4531 0 13.898C0 14.3248 0.168046 14.8249 0.621795 15.2552L9.90703 23.9709C10.5105 24.5426 11.0248 24.7959 11.6559 24.7959Z" fill="black"/>
</svg>
