<svg width="28" height="28" viewBox="0 0 28 28" fill="none" xmlns="http://www.w3.org/2000/svg">
<path d="M14.105 26.21C20.7369 26.21 26.2121 20.7273 26.2121 14.105C26.2121 7.47312 20.7273 2 14.0954 2C7.47523 2 2 7.47312 2 14.105C2 20.7273 7.48484 26.21 14.105 26.21ZM14.105 23.8255C8.71085 23.8255 4.39412 19.4991 4.39412 14.105C4.39412 8.71085 8.70124 4.38452 14.0954 4.38452C19.4895 4.38452 23.8276 8.71085 23.8276 14.105C23.8276 19.4991 19.4991 23.8255 14.105 23.8255Z" fill="black"/>
<path d="M7.88652 15.0683L12.5668 15.0779C12.7958 15.0779 12.9523 15.2248 12.9523 15.4634V20.0956C12.9523 21.1597 14.1298 21.3516 14.5341 20.4751L19.501 9.82459C19.9536 8.86951 19.1009 8.03068 18.1384 8.48115L7.51878 13.4865C6.6284 13.9025 6.82996 15.0683 7.88652 15.0683Z" fill="black"/>
</svg>
