<svg width="28" height="28" viewBox="0 0 28 28" fill="none" xmlns="http://www.w3.org/2000/svg">
<path d="M14.105 26.21C20.7369 26.21 26.2121 20.7273 26.2121 14.105C26.2121 7.47312 20.7273 2 14.0954 2C7.47523 2 2 7.47312 2 14.105C2 20.7273 7.48484 26.21 14.105 26.21ZM14.105 23.8255C8.71085 23.8255 4.39412 19.4991 4.39412 14.105C4.39412 8.71085 8.70124 4.38452 14.0954 4.38452C19.4895 4.38452 23.8276 8.71085 23.8276 14.105C23.8276 19.4991 19.4991 23.8255 14.105 23.8255Z" fill="black"/>
<path d="M8.51319 19.1315C8.82913 19.1315 9.13054 19.0295 9.36468 18.5931C10.3566 16.7437 11.7567 16.0867 14.0499 16.0867H14.2121V18.3363C14.2121 18.8024 14.5526 19.1568 15.0209 19.1568C15.3584 19.1568 15.6171 19.012 15.9333 18.7213L20.84 14.1224C21.0861 13.8998 21.1786 13.6305 21.1786 13.4048C21.1786 13.1749 21.0839 12.9119 20.84 12.6892L15.9333 8.117C15.5841 7.79544 15.3638 7.65271 15.0305 7.65271C14.5526 7.65271 14.2121 8.03591 14.2121 8.50208V10.7429H14.0499C9.75749 10.7429 7.76953 13.4929 7.76953 18.0051C7.76953 18.7478 8.10281 19.1315 8.51319 19.1315Z" fill="black"/>
</svg>
