<svg width="28" height="28" viewBox="0 0 28 28" fill="none" xmlns="http://www.w3.org/2000/svg">
<path d="M6.84421 24.8737H21.0295C23.5685 24.8737 24.8737 23.5685 24.8737 21.068V6.80577C24.8737 4.30312 23.5685 3 21.0295 3H6.84421C4.31484 3 3 4.29351 3 6.80577V21.068C3 23.5781 4.31484 24.8737 6.84421 24.8737Z" fill="black"/>
<path d="M15.2247 7.70906C18.0719 7.70906 19.938 9.63281 19.938 12.5013V14.1361C19.938 14.7598 19.5485 15.1748 18.978 15.1748C18.4043 15.1748 18.0211 14.7673 18.0211 14.1532V12.5013C18.0211 10.793 16.9064 9.63655 15.2247 9.63655C13.6446 9.63655 12.5929 10.7759 12.5929 12.498V15.9548L12.5397 17.0679L12.9391 16.4918L14.2237 15.1202C14.3941 14.9276 14.6336 14.8179 14.8957 14.8179C15.4291 14.8179 15.8592 15.2426 15.8592 15.7505C15.8592 16.0263 15.7612 16.2584 15.5866 16.4309L12.3953 19.5602C12.1684 19.7871 11.9001 19.8851 11.6338 19.8851C11.358 19.8851 11.0917 19.7754 10.867 19.5602L7.70242 16.4405C7.51609 16.2541 7.42773 16.038 7.42773 15.7664C7.42773 15.2489 7.85992 14.8221 8.38702 14.8221C8.63406 14.8221 8.87898 14.9297 9.04398 15.1202L10.1671 16.2954L10.7746 17.0796L10.7076 15.9548V12.498C10.7076 9.62742 12.5172 7.70906 15.2247 7.70906Z" fill="white"/>
</svg>
