<svg width="28" height="28" viewBox="0 0 28 28" fill="none" xmlns="http://www.w3.org/2000/svg">
<path d="M6.84421 24.8972H21.0295C23.5685 24.8972 24.8737 23.5919 24.8737 21.0914V6.82921C24.8737 4.32656 23.5685 3.02344 21.0295 3.02344H6.84421C4.31484 3.02344 3 4.31695 3 6.82921V21.0914C3 23.6016 4.31484 24.8972 6.84421 24.8972ZM6.97733 22.6013C5.88772 22.6013 5.29592 22.0371 5.29592 20.8985V7.01999C5.29592 5.88139 5.88772 5.31936 6.97733 5.31936H20.8964C21.9764 5.31936 22.5778 5.88139 22.5778 7.01999V20.8985C22.5778 22.0371 21.9764 22.6013 20.8964 22.6013H6.97733Z" fill="black"/>
<path d="M16.2793 19.7203C16.6869 19.3127 16.6688 18.6848 16.2868 18.3188L11.6455 13.9448L16.2868 9.59437C16.6806 9.22406 16.671 8.57063 16.2634 8.19282C15.8973 7.84266 15.2971 7.84805 14.8937 8.22797L10.1221 12.7238C9.40983 13.3774 9.40983 14.5357 10.1221 15.1894L14.8937 19.6873C15.2577 20.0257 15.943 20.047 16.2793 19.7203Z" fill="black"/>
</svg>
