<svg width="28" height="28" viewBox="0 0 28 28" fill="none" xmlns="http://www.w3.org/2000/svg">
<path d="M6.84421 24.8972H21.0295C23.5685 24.8972 24.8737 23.5919 24.8737 21.0914V6.82921C24.8737 4.32656 23.5685 3.02344 21.0295 3.02344H6.84421C4.31484 3.02344 3 4.31695 3 6.82921V21.0914C3 23.6016 4.31484 24.8972 6.84421 24.8972Z" fill="black"/>
<path d="M21.4417 13.9427C21.4417 14.2533 21.3172 14.4926 21.0597 14.7555L17.6687 18.1244C17.4805 18.3159 17.241 18.4043 16.9663 18.4043C16.4319 18.4043 16.0379 18.0019 16.0379 17.4473C16.0379 17.1504 16.1793 16.9162 16.3527 16.7332L17.1191 15.9764L18.4975 14.8589L16.0314 14.9749H11.9023L9.43624 14.8589L10.805 15.9764L11.5714 16.7332C11.7448 16.9162 11.8862 17.1504 11.8862 17.4473C11.8862 18.0019 11.4922 18.4043 10.9557 18.4043C10.6831 18.4043 10.4436 18.3159 10.2554 18.1244L6.86445 14.7555C6.60687 14.4926 6.48242 14.2533 6.48242 13.9427C6.48242 13.6226 6.60687 13.3812 6.86445 13.1182L10.2554 9.76101C10.4436 9.56953 10.6831 9.47156 10.9557 9.47156C11.4922 9.47156 11.8862 9.8932 11.8862 10.4381C11.8862 10.7351 11.7545 10.9671 11.5714 11.1619L10.805 11.9091L9.42663 13.0266L11.9023 12.9202H16.0314L18.5071 13.0266L17.1191 11.9091L16.3527 11.1619C16.1697 10.9671 16.0379 10.7351 16.0379 10.4381C16.0379 9.8932 16.4319 9.47156 16.9663 9.47156C17.241 9.47156 17.4805 9.56953 17.6687 9.76101L21.0597 13.1182C21.3172 13.3812 21.4417 13.6226 21.4417 13.9427Z" fill="white"/>
</svg>
