<svg width="28" height="28" viewBox="0 0 28 28" fill="none" xmlns="http://www.w3.org/2000/svg">
<path d="M5.4714 25.8517C6.12577 25.8517 6.59475 25.5606 7.29342 24.8716L13.364 18.849C13.4247 18.7883 13.4737 18.7415 13.5344 18.7415C13.5876 18.7415 13.6462 18.7883 13.7069 18.849L19.7678 24.8716C20.4761 25.5606 20.9355 25.8517 21.5898 25.8517C22.4732 25.8517 23.0612 25.1769 23.0612 24.2493C23.0612 23.7512 22.8791 23.1733 22.6675 22.5979L15.3559 2.71726C14.9408 1.58054 14.3394 1 13.5344 1C12.7218 1 12.13 1.57843 11.7149 2.71726L4.39375 22.5979C4.19172 23.1733 4 23.7512 4 24.2493C4 25.1769 4.58804 25.8517 5.4714 25.8517Z" fill="black"/>
</svg>
