<svg width="28" height="28" viewBox="0 0 28 28" fill="none" xmlns="http://www.w3.org/2000/svg">
<path d="M1 13.898C1 14.3248 1.17765 14.8249 1.63351 15.2552L10.9091 23.9709C11.5202 24.5426 12.0269 24.7959 12.6559 24.7959C13.5604 24.7959 14.2232 24.1235 14.2232 23.2308V19.0052H23.3739C25.3394 19.0052 26.4871 17.8767 26.4871 15.9401V11.8866C26.4871 9.94781 25.3394 8.8193 23.3739 8.8193H14.2232V4.6153C14.2232 3.72258 13.5604 3 12.6367 3C12.0161 3 11.5809 3.25453 10.9091 3.88476L1.6293 12.5332C1.16594 12.9731 1 13.4531 1 13.898ZM3.55748 13.898C3.55748 13.8277 3.59264 13.7616 3.68428 13.6795L11.718 5.99412C11.7766 5.94725 11.8469 5.9067 11.9151 5.9067C12.0227 5.9067 12.0876 5.97912 12.0876 6.08131V10.5375C12.0876 10.8028 12.2123 10.92 12.4797 10.92H23.2555C23.9781 10.92 24.3885 11.3177 24.3885 12.0583V15.7641C24.3885 16.5047 23.9781 16.9066 23.2555 16.9066H12.4797C12.2123 16.9066 12.0876 17.0217 12.0876 17.2891V21.6281C12.0876 21.7399 12.0227 21.8166 11.9247 21.8166C11.8565 21.8166 11.7862 21.7814 11.7276 21.7132L3.68428 14.1164C3.59264 14.0248 3.55748 13.9662 3.55748 13.898Z" fill="black"/>
</svg>
