<svg width="28" height="28" viewBox="0 0 28 28" fill="none" xmlns="http://www.w3.org/2000/svg">
<path d="M14.105 26.21C20.7369 26.21 26.2121 20.7273 26.2121 14.105C26.2121 7.47312 20.7273 2 14.0954 2C7.47523 2 2 7.47312 2 14.105C2 20.7273 7.48484 26.21 14.105 26.21ZM14.105 23.8255C8.71085 23.8255 4.39412 19.4991 4.39412 14.105C4.39412 8.71085 8.70124 4.38452 14.0954 4.38452C19.4895 4.38452 23.8276 8.71085 23.8276 14.105C23.8276 19.4991 19.4991 23.8255 14.105 23.8255Z" fill="black"/>
<path d="M11.5145 18.8497C11.9322 18.8497 12.2315 18.5907 12.2632 18.3308V18.0788L8.51945 14.6473C8.14023 14.2937 7.93046 13.839 7.93046 13.3651C7.93046 12.8912 8.13062 12.4503 8.51945 12.0945L12.2632 8.67058V8.42823C12.2315 8.13948 11.9322 7.89221 11.5049 7.89221C11.2056 7.89221 10.9916 8.0094 10.6626 8.32464L5.97671 12.6994C5.74656 12.9137 5.66992 13.1415 5.66992 13.3651C5.66992 13.5844 5.74656 13.8219 5.97882 14.0424L10.6626 18.4269C10.9757 18.7166 11.2068 18.8497 11.5145 18.8497ZM14.64 18.8497C15.07 18.8497 15.4022 18.5176 15.4022 18.0683V15.9123H15.5643C17.7619 15.9123 19.1451 16.5385 20.0667 18.3188C20.2786 18.7234 20.5683 18.8286 20.8715 18.8286C21.2726 18.8286 21.5644 18.4639 21.5644 17.788C21.5644 13.4647 19.6654 10.8519 15.5643 10.8519H15.4022V8.69284C15.4022 8.25315 15.07 7.89221 14.6304 7.89221C14.329 7.89221 14.115 8.02112 13.7859 8.32464L9.11171 12.6994C8.86984 12.9254 8.78148 13.1415 8.78148 13.3651C8.78148 13.5844 8.87406 13.8165 9.11171 14.0424L13.7859 18.4269C14.0915 18.7187 14.3461 18.8497 14.64 18.8497Z" fill="black"/>
</svg>
