<svg width="28" height="28" viewBox="0 0 28 28" fill="none" xmlns="http://www.w3.org/2000/svg">
<path d="M14.105 26.2121C20.7369 26.2121 26.2121 20.7369 26.2121 14.1071C26.2121 7.48484 20.7273 2 14.0954 2C7.47523 2 2 7.48484 2 14.1071C2 20.7369 7.48484 26.2121 14.105 26.2121Z" fill="black"/>
<path d="M15.3614 7.89476C18.2086 7.89476 20.0747 9.82812 20.0747 12.6966V14.3197C20.0747 14.9433 19.6872 15.3701 19.1072 15.3701C18.5409 15.3701 18.1577 14.9508 18.1577 14.3368V12.6966C18.1577 10.9883 17.0451 9.82976 15.3614 9.82976C13.7833 9.82976 12.7317 10.9712 12.7317 12.6912V16.1384L12.6668 17.2632L13.0758 16.6871L14.3604 15.3038C14.5329 15.1229 14.7703 15.0111 15.0344 15.0111C15.5679 15.0111 15.9958 15.4283 15.9958 15.9458C15.9958 16.212 15.8979 16.4516 15.7233 16.6166L12.5341 19.7555C12.3051 19.9803 12.0368 20.0804 11.7727 20.0804C11.4947 20.0804 11.2305 19.9686 11.0037 19.7555L7.84125 16.6262C7.65281 16.4494 7.56445 16.2237 7.56445 15.9596C7.56445 15.4346 7.99664 15.0174 8.51625 15.0174C8.77078 15.0174 9.01781 15.125 9.18281 15.3038L10.3038 16.4907L10.9134 17.2728L10.8464 16.1384V12.6912C10.8464 9.82062 12.6464 7.89476 15.3614 7.89476Z" fill="white"/>
</svg>
