<svg width="28" height="28" viewBox="0 0 28 28" fill="none" xmlns="http://www.w3.org/2000/svg">
<path d="M13.8371 25.3387C14.1359 25.3387 14.5719 25.1135 14.9309 24.8894C21.4833 20.6728 25.6838 15.7268 25.6838 10.7198C25.6838 6.40895 22.7075 3.41809 18.9634 3.41809C16.6402 3.41809 14.8909 4.7027 13.8371 6.62786C12.8026 4.71231 11.0457 3.41809 8.71085 3.41809C4.97632 3.41809 2 6.40895 2 10.7198C2 15.7268 6.20047 20.6728 12.7529 24.8894C13.1023 25.1135 13.5479 25.3387 13.8371 25.3387Z" fill="black"/>
<path d="M9.53711 15.1094C9.53711 13.1222 11.0289 11.4035 12.8957 11.0822V10.1379C12.8957 9.6513 13.4153 9.47036 13.7889 9.78442L15.7417 11.4316C16.0888 11.7255 16.091 12.146 15.7417 12.4537L13.7889 14.1244C13.4174 14.4384 12.8957 14.25 12.8957 13.7709V12.6951C11.8584 13.0338 11.1119 13.9922 11.1119 15.1308C11.1119 16.5558 12.2566 17.7026 13.6858 17.7026C15.1129 17.7026 16.2597 16.5579 16.2597 15.1308C16.2597 14.6932 16.6164 14.3365 17.0519 14.3365C17.4756 14.3365 17.8345 14.6932 17.8345 15.1308C17.8345 17.4342 15.9892 19.2987 13.6858 19.2987C11.3823 19.2987 9.53711 17.4342 9.53711 15.1094Z" fill="white"/>
</svg>
