<svg width="28" height="28" viewBox="0 0 28 28" fill="none" xmlns="http://www.w3.org/2000/svg">
<path d="M26.485 13.898C26.485 13.4531 26.3212 12.9731 25.8557 12.5332L16.578 3.88476C15.9041 3.25453 15.4689 3 14.8483 3C13.9246 3 13.2522 3.72258 13.2522 4.6153V9.04453H3.86616C2.05937 9.04453 1 10.0793 1 11.8669V15.9619C1 17.7494 2.05937 18.78 3.86616 18.78H13.2522V23.2308C13.2522 24.1235 13.9246 24.7959 14.8291 24.7959C15.4602 24.7959 15.9648 24.5426 16.578 23.9709L25.8536 15.2552C26.3073 14.8249 26.485 14.3248 26.485 13.898Z" fill="black"/>
</svg>
