<svg width="37" height="28" viewBox="0 0 37 28" fill="none" xmlns="http://www.w3.org/2000/svg">
<path d="M0 13.9999C0 14.7548 0.523121 15.2791 1.2928 15.2791H8.90743L11.1825 15.1835L7.56211 18.6949C7.31859 18.9384 7.18266 19.2501 7.18266 19.6137C7.18266 20.3294 7.71023 20.8483 8.44593 20.8483C8.7853 20.8483 9.10428 20.7176 9.37874 20.4368L14.789 14.9538C15.0412 14.6974 15.2093 14.3571 15.2093 13.9999C15.2093 13.6352 15.0412 13.3045 14.789 13.0364L9.37874 7.55556C9.10428 7.27478 8.7853 7.144 8.44593 7.144C7.71023 7.144 7.18266 7.6629 7.18266 8.37868C7.18266 8.73258 7.31859 9.0539 7.56211 9.29742L11.1825 12.8184L8.90743 12.7132H1.2928C0.523121 12.7132 0 13.2354 0 13.9999ZM18.4329 25.3638C19.1519 25.3638 19.6889 24.829 19.6889 24.1078V4.23679C19.6889 3.52312 19.1519 3 18.4329 3C17.7117 3 17.1672 3.52312 17.1672 4.23679V24.1078C17.1672 24.829 17.7117 25.3638 18.4329 25.3638ZM36.8657 13.9999C36.8657 13.2354 36.3309 12.7132 35.5612 12.7132H27.9583L25.6736 12.8184L29.2919 9.29742C29.5354 9.0539 29.6735 8.73258 29.6735 8.37868C29.6735 7.6629 29.1438 7.144 28.4198 7.144C28.0804 7.144 27.7518 7.27478 27.4753 7.55556L22.0671 13.0364C21.8149 13.3045 21.6565 13.6352 21.6565 13.9999C21.6565 14.3571 21.8149 14.6974 22.0671 14.9538L27.4753 20.4368C27.7518 20.7176 28.0804 20.8483 28.4198 20.8483C29.1438 20.8483 29.6735 20.3294 29.6735 19.6137C29.6735 19.2501 29.5354 18.9384 29.2919 18.6949L25.6736 15.1835L27.9583 15.2791H35.5612C36.3309 15.2791 36.8657 14.7548 36.8657 13.9999Z" fill="black"/>
</svg>
