<svg width="28" height="28" viewBox="0 0 28 28" fill="none" xmlns="http://www.w3.org/2000/svg">
<path d="M14.105 26.2121C20.7369 26.2121 26.2121 20.7369 26.2121 14.1071C26.2121 7.48484 20.7273 2 14.0954 2C7.47523 2 2 7.48484 2 14.1071C2 20.7369 7.48484 26.2121 14.105 26.2121Z" fill="black"/>
<path d="M20.1526 15.4862C20.1526 18.3237 18.2288 20.1898 15.3507 20.1898H13.7255C13.1019 20.1898 12.6868 19.8099 12.6868 19.2298C12.6868 18.6657 13.0944 18.2729 13.7084 18.2729H15.3507C17.0687 18.2729 18.2251 17.1582 18.2251 15.4862C18.2251 13.906 17.0858 12.8544 15.354 12.8544H11.9068L10.7937 12.7894L11.3698 13.2005L12.7414 14.4734C12.9341 14.6555 13.0341 14.8951 13.0341 15.1475C13.0341 15.6809 12.6191 16.111 12.1112 16.111C11.8353 16.111 11.6033 16.013 11.4308 15.8384L8.30141 12.6472C8.07453 12.4278 7.97656 12.1616 7.97656 11.8857C7.97656 11.6194 8.08625 11.3436 8.30141 11.1263L11.4212 7.96389C11.6075 7.77756 11.8236 7.6796 12.0952 7.6796C12.6223 7.6796 13.0299 8.11178 13.0299 8.63889C13.0299 8.89553 12.9319 9.13084 12.7414 9.30545L11.5663 10.4265L10.782 11.0265L11.9068 10.969H15.354C18.2363 10.969 20.1526 12.7691 20.1526 15.4862Z" fill="white"/>
</svg>
