<svg width="28" height="28" viewBox="0 0 28 28" fill="none" xmlns="http://www.w3.org/2000/svg">
<path d="M14.105 26.21C20.7369 26.21 26.2121 20.7273 26.2121 14.105C26.2121 7.47312 20.7273 2 14.0954 2C7.47523 2 2 7.47312 2 14.105C2 20.7273 7.48484 26.21 14.105 26.21Z" fill="black"/>
<path d="M14.114 7.85986C14.748 7.85986 15.2074 8.29814 15.2074 8.92157V14.6422L15.085 17.1676L16.2037 15.7787L17.5521 14.3731C17.733 14.1603 17.9999 14.0572 18.2894 14.0572C18.8692 14.0572 19.3002 14.4723 19.3002 15.0416C19.3002 15.3416 19.1981 15.5736 18.996 15.7819L14.9849 19.8446C14.7189 20.1212 14.451 20.2594 14.114 20.2594C13.7887 20.2594 13.5304 20.1308 13.2548 19.8446L9.23195 15.7819C9.03203 15.5736 8.95117 15.3416 8.95117 15.0416C8.95117 14.4723 9.37046 14.0572 9.9503 14.0572C10.2344 14.0572 10.5088 14.1699 10.6876 14.3731L12.0478 15.7913L13.1451 17.158L13.0228 14.6422V8.92157C13.0228 8.29814 13.4896 7.85986 14.114 7.85986Z" fill="white"/>
</svg>
