<svg width="28" height="28" viewBox="0 0 28 28" fill="none" xmlns="http://www.w3.org/2000/svg">
<path d="M6.84421 24.8972H21.0295C23.5685 24.8972 24.8737 23.5919 24.8737 21.0914V6.82921C24.8737 4.32656 23.5685 3.02344 21.0295 3.02344H6.84421C4.31484 3.02344 3 4.31695 3 6.82921V21.0914C3 23.6016 4.31484 24.8972 6.84421 24.8972Z" fill="black"/>
<path d="M13.9774 20.0993C13.3531 20.0993 12.8862 19.661 12.8862 19.0376V13.3169L13.0064 10.8012L11.9112 12.1678L10.5511 13.586C10.3701 13.7796 10.1053 13.9019 9.81374 13.9019C9.23179 13.9019 8.8125 13.4773 8.8125 12.9176C8.8125 12.6176 8.89335 12.3856 9.09538 12.1772L13.1161 8.10283C13.3918 7.81877 13.65 7.69971 13.9774 7.69971C14.3241 7.69971 14.5824 7.82838 14.8484 8.10283L18.8595 12.1772C19.0711 12.3856 19.1616 12.6176 19.1616 12.9176C19.1616 13.4773 18.7306 13.9019 18.1507 13.9019C17.8613 13.9019 17.5964 13.7892 17.4134 13.586L16.065 12.1805L14.9485 10.7916L15.0687 13.3169V19.0376C15.0687 19.661 14.6114 20.0993 13.9774 20.0993Z" fill="white"/>
</svg>
