<svg width="28" height="28" viewBox="0 0 28 28" fill="none" xmlns="http://www.w3.org/2000/svg">
<path d="M23.8723 5.6617C23.8723 4.72069 23.1474 4.0635 22.0034 4.0635L6.85929 4.05389C5.71531 4.05389 5 4.71108 5 5.65209C5 6.14615 5.21094 6.55818 5.47695 7.11154L12.6819 21.9508C13.1931 22.9869 13.7143 23.3772 14.4303 23.3772C15.1484 23.3772 15.6793 22.9869 16.1883 21.9508L23.3858 7.11154C23.6614 6.56779 23.8723 6.15576 23.8723 5.6617ZM21.0582 6.48716C21.0582 6.52982 21.0369 6.57458 21.0135 6.63317L14.5646 20.1342C14.5316 20.1927 14.4964 20.2354 14.4303 20.2354C14.3759 20.2354 14.3408 20.1927 14.3077 20.1342L7.85677 6.62357C7.83123 6.56497 7.8099 6.52021 7.8099 6.47755C7.8099 6.40935 7.84716 6.36458 7.9367 6.36458L20.9239 6.37419C21.0135 6.37419 21.0582 6.41896 21.0582 6.48716Z" fill="black"/>
</svg>
