<svg width="28" height="28" viewBox="0 0 28 28" fill="none" xmlns="http://www.w3.org/2000/svg">
<path d="M6.2925 3.41715L0.380857 9.45653C0.149999 9.697 0 10.0502 0 10.3565C0 11.0831 0.502028 11.5851 1.21687 11.5851C1.56585 11.5851 1.85085 11.4628 2.08171 11.2277L4.496 8.72503L6.07055 6.90392L5.97234 9.41268V24.0642C5.97234 24.7886 6.4882 25.3045 7.21054 25.3045C7.92327 25.3045 8.44124 24.7886 8.44124 24.0642V9.41268L8.35264 6.90392L9.91547 8.72503L12.3415 11.2277C12.5723 11.4628 12.8477 11.5851 13.1967 11.5851C13.9116 11.5851 14.4136 11.0831 14.4136 10.3565C14.4136 10.0502 14.2732 9.697 14.0327 9.45653L8.13069 3.41715C7.62116 2.88208 6.81164 2.86286 6.2925 3.41715ZM21.6958 24.9077L27.5958 18.8449C27.8362 18.614 27.9766 18.2608 27.9766 17.9449C27.9766 17.2183 27.4767 16.7259 26.7598 16.7259C26.4108 16.7259 26.1354 16.8387 25.9045 17.0737L23.4902 19.5764L21.9157 21.4071L22.0043 18.8983V4.24684C22.0043 3.5341 21.4884 3.00864 20.7757 3.00864C20.0533 3.00864 19.5375 3.5341 19.5375 4.24684V18.8983L19.6357 21.4071L18.0612 19.5764L15.6469 17.0737C15.416 16.8387 15.131 16.7259 14.7916 16.7259C14.0768 16.7259 13.5651 17.2183 13.5651 17.9449C13.5651 18.2608 13.7151 18.614 13.9556 18.8449L19.8555 24.9077C20.3651 25.4407 21.1671 25.4503 21.6958 24.9077Z" fill="black"/>
</svg>
