<svg width="28" height="28" viewBox="0 0 28 28" fill="none" xmlns="http://www.w3.org/2000/svg">
<path d="M14.105 26.2121C20.7369 26.2121 26.2121 20.7369 26.2121 14.105C26.2121 7.48484 20.7273 2 14.0954 2C7.47523 2 2 7.48484 2 14.105C2 20.7369 7.48484 26.2121 14.105 26.2121Z" fill="black"/>
<path d="M14.1543 20.7411C10.787 20.7411 8.10924 18.4916 7.52541 15.2337H6.34087C5.73923 15.2337 5.59791 14.6546 5.93423 14.1894L7.85306 11.518C8.21517 11.0387 8.80509 11.0579 9.13837 11.518L11.0903 14.1894C11.4245 14.6546 11.2778 15.2337 10.6719 15.2337H9.52228C10.0613 17.2126 11.9143 18.6927 14.1543 18.6927C15.2228 18.6927 16.0372 18.3673 16.8538 17.7542C17.3996 17.3656 17.9736 17.3712 18.385 17.8557C18.7996 18.3242 18.6632 18.9823 18.0456 19.4457C17.0427 20.2538 15.6238 20.7411 14.1543 20.7411ZM14.135 7.43257C17.5023 7.43257 20.1704 9.6821 20.7639 12.9399H21.8886C22.4903 12.9399 22.6316 13.5191 22.2953 13.9843L20.3764 16.6461C20.0143 17.1371 19.4244 17.1062 19.0815 16.6461L17.1393 13.9843C16.805 13.5191 16.9518 12.9399 17.548 12.9399H18.7649C18.2258 10.9515 16.3729 9.47139 14.135 9.47139C13.0644 9.47139 12.2499 9.80631 11.4355 10.4194C10.8896 10.8005 10.3039 10.8024 9.90431 10.318C9.49931 9.85155 9.624 9.19132 10.2437 8.71835C11.2445 7.92194 12.6655 7.43257 14.135 7.43257Z" fill="white"/>
</svg>
