<svg width="28" height="28" viewBox="0 0 28 28" fill="none" xmlns="http://www.w3.org/2000/svg">
<path d="M14.105 26.21C20.7369 26.21 26.2121 20.7273 26.2121 14.105C26.2121 7.47312 20.7273 2 14.0954 2C7.47523 2 2 7.47312 2 14.105C2 20.7273 7.48484 26.21 14.105 26.21Z" fill="black"/>
<path d="M21.5782 14.1029C21.5782 14.4134 21.4559 14.6527 21.1983 14.9157L17.8053 18.2846C17.6192 18.4761 17.3775 18.5644 17.105 18.5644C16.5685 18.5644 16.1766 18.162 16.1766 17.6075C16.1766 17.3105 16.3158 17.0764 16.4914 16.8934L17.2557 16.1366L18.6244 15.0191L16.1604 15.1351H12.0293L9.5653 15.0191L10.9437 16.1366L11.708 16.8934C11.8835 17.0764 12.0228 17.3105 12.0228 17.6075C12.0228 18.162 11.6309 18.5644 11.0944 18.5644C10.8218 18.5644 10.5802 18.4761 10.3941 18.2846L7.00101 14.9157C6.74344 14.6527 6.62109 14.4134 6.62109 14.1029C6.62109 13.7827 6.74344 13.5413 7.00101 13.2784L10.3941 9.92116C10.5802 9.72968 10.8218 9.63171 11.0944 9.63171C11.6309 9.63171 12.0228 10.0534 12.0228 10.5983C12.0228 10.8952 11.8931 11.1273 11.708 11.322L10.9437 12.0692L9.55569 13.1867L12.0293 13.0803H16.1604L18.634 13.1867L17.2557 12.0692L16.4914 11.322C16.3062 11.1273 16.1766 10.8952 16.1766 10.5983C16.1766 10.0534 16.5685 9.63171 17.105 9.63171C17.3775 9.63171 17.6192 9.72968 17.8053 9.92116L21.1983 13.2784C21.4559 13.5413 21.5782 13.7827 21.5782 14.1029Z" fill="white"/>
</svg>
