<svg width="28" height="28" viewBox="0 0 28 28" fill="none" xmlns="http://www.w3.org/2000/svg">
<path d="M6.84421 24.8972H21.0295C23.5685 24.8972 24.8737 23.5919 24.8737 21.0914V6.82921C24.8737 4.32656 23.5685 3.02344 21.0295 3.02344H6.84421C4.31484 3.02344 3 4.31695 3 6.82921V21.0914C3 23.6016 4.31484 24.8972 6.84421 24.8972ZM6.97733 22.6013C5.88772 22.6013 5.29592 22.0371 5.29592 20.8985V7.01999C5.29592 5.88139 5.88772 5.31936 6.97733 5.31936H20.8964C21.9764 5.31936 22.5778 5.88139 22.5778 7.01999V20.8985C22.5778 22.0371 21.9764 22.6013 20.8964 22.6013H6.97733Z" fill="black"/>
<path d="M13.9626 6.74437C13.6605 6.74437 13.4159 6.87421 13.1763 7.11796L9.93937 10.3748C9.75961 10.5567 9.66797 10.7845 9.66797 11.0433C9.66797 11.5596 10.0619 11.9376 10.5867 11.9376C10.8677 11.9376 11.1145 11.8228 11.2786 11.6313L12.0023 10.8841L13.0826 9.55686L12.9804 11.94V15.9455L13.0826 18.3286L12.0023 17.0013L11.2786 16.2541C11.1145 16.053 10.8677 15.9478 10.5867 15.9478C10.0619 15.9478 9.66797 16.3259 9.66797 16.8422C9.66797 17.0892 9.75961 17.3287 9.93937 17.5106L13.1763 20.7675C13.4159 21.0112 13.6605 21.1411 13.9626 21.1411C14.2551 21.1411 14.4923 21.0112 14.7394 20.7675L17.988 17.5106C18.1657 17.3287 18.2498 17.0892 18.2498 16.8422C18.2498 16.3259 17.8634 15.9478 17.3407 15.9478C17.0576 15.9478 16.8129 16.0627 16.6584 16.2541L15.923 17.0013L14.8427 18.3169L14.947 15.9455V11.94L14.8427 9.56647L15.923 10.8841L16.6584 11.6313C16.8129 11.8132 17.0576 11.9376 17.3407 11.9376C17.8634 11.9376 18.2498 11.5596 18.2498 11.0433C18.2498 10.7845 18.1657 10.5567 17.988 10.3748L14.7394 7.11796C14.4923 6.87421 14.2551 6.74437 13.9626 6.74437Z" fill="black"/>
</svg>
