<svg width="28" height="28" viewBox="0 0 28 28" fill="none" xmlns="http://www.w3.org/2000/svg">
<path d="M6.84421 24.8972H21.0295C23.5685 24.8972 24.8737 23.5919 24.8737 21.0914V6.82921C24.8737 4.32656 23.5685 3.02344 21.0295 3.02344H6.84421C4.31484 3.02344 3 4.31695 3 6.82921V21.0914C3 23.6016 4.31484 24.8972 6.84421 24.8972ZM6.97733 22.6013C5.88772 22.6013 5.29592 22.0371 5.29592 20.8985V7.01999C5.29592 5.88139 5.88772 5.31936 6.97733 5.31936H20.8964C21.9764 5.31936 22.5778 5.88139 22.5778 7.01999V20.8985C22.5778 22.0371 21.9764 22.6013 20.8964 22.6013H6.97733Z" fill="black"/>
<path d="M21.1313 13.9523C21.1313 13.6406 21.011 13.4034 20.7673 13.166L17.5008 9.92906C17.3189 9.73969 17.089 9.65555 16.8324 9.65555C16.316 9.65555 15.938 10.0516 15.938 10.5743C15.938 10.8478 16.0528 11.1042 16.2443 11.2587L16.9915 11.9824L18.3263 13.0723L15.9453 12.9701H11.9398L9.55663 13.0723L10.8839 11.9824L11.629 11.2587C11.8226 11.1042 11.9374 10.8478 11.9374 10.5743C11.9374 10.0516 11.5594 9.65555 11.043 9.65555C10.7843 9.65555 10.5565 9.73969 10.3746 9.92906L7.10812 13.166C6.86437 13.4034 6.74414 13.6406 6.74414 13.9523C6.74414 14.2448 6.86437 14.4703 7.10812 14.7194L10.3746 17.9756C10.5565 18.1554 10.7843 18.2395 11.043 18.2395C11.5594 18.2395 11.9374 17.8434 11.9374 17.3304C11.9374 17.0473 11.8109 16.8005 11.629 16.6364L10.8839 15.903L9.56624 14.8324L11.9398 14.925H15.9453L18.3167 14.8324L16.9915 15.903L16.2443 16.6364C16.0625 16.8005 15.938 17.0473 15.938 17.3304C15.938 17.8434 16.316 18.2395 16.8324 18.2395C17.089 18.2395 17.3189 18.1554 17.5008 17.9756L20.7673 14.7194C21.011 14.4703 21.1313 14.2448 21.1313 13.9523Z" fill="black"/>
</svg>
