<svg width="28" height="28" viewBox="0 0 28 28" fill="none" xmlns="http://www.w3.org/2000/svg">
<path d="M3.86062 14.72C3.34992 14.9337 3 15.387 3 15.9101C3 16.7703 3.63046 17.3841 4.41562 17.3841C4.8485 17.3841 5.38991 17.1406 5.78412 16.9707L14.3452 13.5183H12.8616L21.4226 16.9707C21.8147 17.1406 22.3657 17.3841 22.789 17.3841C23.5762 17.3841 24.2046 16.7703 24.2046 15.9101C24.2046 15.387 23.8568 14.9337 23.344 14.72L15.4362 11.5109C14.8191 11.2557 14.1902 11 13.6071 11C13.0144 11 12.3952 11.2557 11.7781 11.5109L3.86062 14.72Z" fill="black"/>
</svg>
