<svg width="28" height="30" viewBox="0 0 28 30" fill="none" xmlns="http://www.w3.org/2000/svg">
<path d="M13.6043 0C12.8494 0 12.3176 0.523121 12.3176 1.2928V6.07898L12.4102 8.34657L9.57895 5.27788C9.34388 5.02054 9.03638 4.89843 8.67287 4.89843C7.97092 4.89843 7.44874 5.42179 7.44874 6.12678C7.44874 6.47038 7.59756 6.79569 7.8699 7.07131L12.6504 11.794C12.909 12.0558 13.2397 12.2142 13.6043 12.2142C13.9615 12.2142 14.3018 12.0558 14.5582 11.794L19.3409 7.07131C19.6132 6.79569 19.76 6.47038 19.76 6.12678C19.76 5.42179 19.2399 4.89843 18.5358 4.89843C18.1723 4.89843 17.8648 5.02054 17.6318 5.27788L14.8006 8.34657L14.8836 6.07898V1.2928C14.8836 0.523121 14.3593 0 13.6043 0ZM2 14.6573C2 15.3785 2.52312 15.9154 3.2464 15.9154H23.9644C24.676 15.9154 25.2012 15.3785 25.2012 14.6573C25.2012 13.9383 24.676 13.3917 23.9644 13.3917H3.2464C2.52312 13.3917 2 13.9383 2 14.6573ZM13.6043 29.3167C14.3593 29.3167 14.8836 28.7915 14.8836 28.0122V23.226L14.8006 20.9702L17.6318 24.0271C17.8648 24.2866 18.1723 24.4087 18.5358 24.4087C19.2399 24.4087 19.76 23.8853 19.76 23.1803C19.76 22.8368 19.6132 22.5114 19.3409 22.2358L14.5582 17.5132C14.3018 17.2493 13.9615 17.0929 13.6043 17.0929C13.2397 17.0929 12.909 17.2493 12.6504 17.5132L7.8699 22.2358C7.59756 22.5114 7.44874 22.8368 7.44874 23.1803C7.44874 23.8853 7.97092 24.4087 8.67287 24.4087C9.03638 24.4087 9.34388 24.2866 9.57895 24.0271L12.4102 20.9702L12.3176 23.226V28.0122C12.3176 28.7915 12.8494 29.3167 13.6043 29.3167Z" fill="black"/>
</svg>
