<svg width="28" height="28" viewBox="0 0 28 28" fill="none" xmlns="http://www.w3.org/2000/svg">
<path d="M0.450042 14.6815L4.20215 18.131C5.10332 18.9581 6.19902 18.3246 6.19902 17.2312V14.9641H12.4456V21.2299H10.1625C9.08723 21.2299 8.45582 22.3202 9.25855 23.2045L12.7081 26.9587C13.2668 27.5789 14.1125 27.5829 14.6646 26.9597L18.1046 23.215C18.9317 22.3139 18.2982 21.2299 17.2048 21.2299H14.9398V14.9641H21.1746V17.2312C21.1746 18.3246 22.2586 18.9581 23.1694 18.131L26.914 14.6911C27.5276 14.1293 27.5236 13.2933 26.9131 12.7345L23.1589 9.28498C22.265 8.48224 21.1746 9.11365 21.1746 10.189V12.4699H14.9398V6.19661H17.2048C18.2982 6.19661 18.9317 5.11052 18.1046 4.20935L14.655 0.457245C14.0932 -0.175563 13.2476 -0.135252 12.6985 0.477401L9.25855 4.22201C8.45582 5.1063 9.08723 6.19661 10.1625 6.19661H12.4456V12.4699H6.19902V10.189C6.19902 9.11365 5.0991 8.48224 4.21481 9.28498L0.470198 12.7249C-0.132845 13.274 -0.173157 14.1101 0.450042 14.6815Z" fill="black"/>
</svg>
