<svg width="28" height="28" viewBox="0 0 28 28" fill="none" xmlns="http://www.w3.org/2000/svg">
<path d="M18.3238 25.0134C18.647 25.0134 19.0023 24.8709 19.2522 24.6211L25.9888 17.9922C26.2548 17.7379 26.3973 17.3829 26.3973 17.0383C26.3973 16.6863 26.2548 16.3408 25.9888 16.0844L19.2522 9.45983C19.0023 9.20999 18.647 9.05788 18.3238 9.05788C17.5719 9.05788 17.0732 9.58639 17.0732 10.3022C17.0732 10.6849 17.2112 10.9699 17.4451 11.2017L20.4573 14.1382L23.391 16.6024L23.7442 15.9305L19.8077 15.7612H5.22577C4.04053 15.7612 3.53311 15.2517 3.53311 14.0398V7.25108C3.53311 6.06584 4.04053 5.55842 5.22577 5.55842H11.6744C12.4433 5.55842 12.977 4.9842 12.977 4.27921C12.977 3.57421 12.4433 3 11.6744 3H5.17093C2.2464 3 1 4.2464 1 7.17093V14.1178C1 16.9983 2.2464 18.3176 5.17093 18.3176H19.8077L23.7442 18.1387L23.391 17.4668L20.4573 19.9406L17.4451 22.8792C17.2112 23.111 17.0732 23.3864 17.0732 23.7691C17.0732 24.4945 17.5719 25.0134 18.3238 25.0134Z" fill="black"/>
</svg>
