<svg width="28" height="28" viewBox="0 0 28 28" fill="none" xmlns="http://www.w3.org/2000/svg">
<path d="M14.105 26.21C20.7369 26.21 26.2121 20.7273 26.2121 14.105C26.2121 7.47312 20.7273 2 14.0954 2C7.47523 2 2 7.47312 2 14.105C2 20.7273 7.48484 26.21 14.105 26.21Z" fill="black"/>
<path d="M8.76312 14.183C8.23297 14.183 7.8125 13.7647 7.8125 13.2345V8.99655C7.8125 8.18116 8.22969 7.8207 8.98085 7.8207H13.2071C13.7351 7.8207 14.1556 8.25077 14.1556 8.78304C14.1556 9.31319 13.7351 9.73155 13.2071 9.73155H12.6441L10.9208 9.59327L13.5263 12.053C13.9402 12.4426 13.9393 13.1269 13.5359 13.5324C13.1304 13.9454 12.4514 13.9634 12.0565 13.5228L9.57546 10.898L9.72124 12.6652V13.2345C9.72124 13.7647 9.29117 14.183 8.76312 14.183ZM14.9982 20.4085C14.4701 20.4085 14.04 19.9784 14.04 19.4483C14.04 18.916 14.4701 18.4998 14.9982 18.4998H15.5632L17.2866 18.6359L14.6714 16.1762C14.2575 15.7887 14.2585 15.1023 14.6618 14.6968C15.0769 14.2838 15.7442 14.2679 16.1508 14.7064L18.6223 17.3312L18.484 15.564V14.9968C18.484 14.4645 18.9045 14.0483 19.4325 14.0483C19.9648 14.0483 20.3949 14.4645 20.3949 14.9968V19.2327C20.3949 20.0502 19.966 20.4085 19.2169 20.4085H14.9982Z" fill="white"/>
</svg>
