<svg width="28" height="28" viewBox="0 0 28 28" fill="none" xmlns="http://www.w3.org/2000/svg">
<path d="M6.84421 24.8972H21.0295C23.5685 24.8972 24.8737 23.5919 24.8737 21.0914V6.82921C24.8737 4.32656 23.5685 3.02344 21.0295 3.02344H6.84421C4.31484 3.02344 3 4.31695 3 6.82921V21.0914C3 23.6016 4.31484 24.8972 6.84421 24.8972ZM6.97733 22.6013C5.88772 22.6013 5.29592 22.0371 5.29592 20.8985V7.01999C5.29592 5.88139 5.88772 5.31936 6.97733 5.31936H20.8964C21.9764 5.31936 22.5778 5.88139 22.5778 7.01999V20.8985C22.5778 22.0371 21.9764 22.6013 20.8964 22.6013H6.97733Z" fill="black"/>
<path d="M20.0021 15.3366C20.0021 12.5304 17.982 10.7941 15.2305 10.7941H11.7582L10.4977 10.8377L11.3792 10.1597L12.5588 9.02998C12.7355 8.8767 12.841 8.6435 12.841 8.39319C12.841 7.89162 12.444 7.4967 11.9445 7.4967C11.6942 7.4967 11.4898 7.57334 11.3173 7.75756L8.19171 10.928C7.99999 11.1314 7.88281 11.3817 7.88281 11.6576C7.88281 11.9367 7.99788 12.1816 8.19171 12.3851L11.3291 15.5726C11.4995 15.7451 11.7059 15.8313 11.9605 15.8313C12.4482 15.8313 12.8473 15.4385 12.8473 14.9252C12.8473 14.7037 12.759 14.4609 12.5684 14.3002L11.1711 12.9973L10.4977 12.4943L11.7582 12.5592H15.2305C16.8835 12.5592 18.1297 13.5288 18.1297 15.2576C18.1297 17.0184 16.9166 18.113 15.2251 18.113C15.1034 18.113 13.6684 18.113 13.5772 18.113C13.0142 18.113 12.5938 18.4397 12.5938 19.0242C12.5938 19.6034 13.0121 19.9364 13.5943 19.9364C13.6972 19.9364 15.1034 19.9364 15.2251 19.9364C17.9745 19.9364 20.0021 18.1533 20.0021 15.3366Z" fill="black"/>
</svg>
