<svg width="28" height="28" viewBox="0 0 28 28" fill="none" xmlns="http://www.w3.org/2000/svg">
<path d="M14.105 26.21C20.7369 26.21 26.2121 20.7369 26.2121 14.105C26.2121 7.48273 20.7273 2 14.0954 2C7.47523 2 2 7.48273 2 14.105C2 20.7369 7.48484 26.21 14.105 26.21Z" fill="black"/>
<path d="M12.8266 20.0783C9.98899 20.0783 8.11328 18.1545 8.11328 15.2764V13.6534C8.11328 13.0276 8.50281 12.6029 9.08289 12.6029C9.64703 12.6029 10.0302 13.0201 10.0302 13.6362V15.2764C10.0302 16.9848 11.1545 18.1412 12.8266 18.1412C14.4047 18.1412 15.4584 17.0019 15.4584 15.2818V11.8325L15.5212 10.7098L15.1122 11.2859L13.8276 12.6671C13.6572 12.8501 13.4177 12.9598 13.1557 12.9598C12.6222 12.9598 12.2018 12.5448 12.2018 12.0273C12.2018 11.761 12.2901 11.5215 12.4647 11.3565L15.656 8.21749C15.8829 8.00022 16.1512 7.89264 16.4271 7.89264C16.6933 7.89264 16.9596 8.01405 17.1843 8.21749L20.3489 11.3469C20.5352 11.5236 20.6236 11.7493 20.6236 12.0113C20.6236 12.5384 20.1914 12.9556 19.6739 12.9556C19.4172 12.9556 19.1723 12.848 19.0073 12.6671L17.8842 11.4823L17.2863 10.7002L17.3437 11.8325V15.2818C17.3437 18.162 15.5437 20.0783 12.8266 20.0783Z" fill="white"/>
</svg>
