<svg width="28" height="28" viewBox="0 0 28 28" fill="none" xmlns="http://www.w3.org/2000/svg">
<path d="M6.84421 24.8737H21.0295C23.5685 24.8737 24.8737 23.5685 24.8737 21.068V6.80577C24.8737 4.30312 23.5685 3 21.0295 3H6.84421C4.31484 3 3 4.29351 3 6.80577V21.068C3 23.5781 4.31484 24.8737 6.84421 24.8737Z" fill="black"/>
<path d="M20.0139 15.2909C20.0139 18.138 18.0902 20.0041 15.2216 20.0041H13.589C12.9653 20.0041 12.5481 19.6167 12.5481 19.0462C12.5481 18.4704 12.9578 18.0872 13.5719 18.0872H15.2216C16.93 18.0872 18.0885 16.9725 18.0885 15.2909C18.0885 13.7224 16.9471 12.659 15.227 12.659H11.7798L10.6551 12.6058L11.2312 13.0052L12.6048 14.2898C12.7954 14.4719 12.9072 14.6998 12.9072 14.9618C12.9072 15.4952 12.4804 15.9253 11.9725 15.9253C11.6966 15.9253 11.4667 15.8273 11.2921 15.6527L8.16273 12.4636C7.93797 12.2346 7.83789 11.9662 7.83789 11.7021C7.83789 11.4337 7.94969 11.1579 8.16273 10.9427L11.2825 7.7782C11.4688 7.59187 11.6849 7.4939 11.9587 7.4939C12.4837 7.4939 12.9009 7.92609 12.9009 8.45531C12.9009 8.70023 12.7933 8.94726 12.6048 9.11015L11.4276 10.2333L10.6455 10.8408L11.7798 10.7758H15.227C18.0977 10.7758 20.0139 12.5855 20.0139 15.2909Z" fill="white"/>
</svg>
