<svg width="28" height="28" viewBox="0 0 28 28" fill="none" xmlns="http://www.w3.org/2000/svg">
<path d="M14.105 26.21C20.7369 26.21 26.2121 20.7273 26.2121 14.105C26.2121 7.47312 20.7273 2 14.0954 2C7.47523 2 2 7.47312 2 14.105C2 20.7273 7.48484 26.21 14.105 26.21ZM14.105 23.8255C8.71085 23.8255 4.39412 19.4991 4.39412 14.105C4.39412 8.71085 8.70124 4.38452 14.0954 4.38452C19.4895 4.38452 23.8276 8.71085 23.8276 14.105C23.8276 19.4991 19.4991 23.8255 14.105 23.8255Z" fill="black"/>
<path d="M14.1044 8.10217C13.5161 8.10217 13.0673 8.5203 13.0673 9.11186V14.6506L13.1758 17.0579L12.1178 15.7423L10.7992 14.372C10.6225 14.1826 10.3736 14.072 10.0959 14.072C9.54788 14.072 9.14453 14.469 9.14453 15.0085C9.14453 15.2926 9.22328 15.5183 9.40937 15.7128L13.2834 19.6245C13.5452 19.8926 13.795 20.0171 14.1044 20.0171C14.4255 20.0171 14.6849 19.883 14.9371 19.6245L18.7994 15.7128C18.9876 15.5183 19.0856 15.2926 19.0856 15.0085C19.0856 14.469 18.6726 14.072 18.1246 14.072C17.8394 14.072 17.5905 14.173 17.4213 14.372L16.1144 15.7318L15.0351 17.0696L15.1415 14.6506V9.11186C15.1415 8.5203 14.7044 8.10217 14.1044 8.10217Z" fill="black"/>
</svg>
