<svg width="28" height="28" viewBox="0 0 28 28" fill="none" xmlns="http://www.w3.org/2000/svg">
<path d="M14.105 26.21C20.7369 26.21 26.2121 20.7273 26.2121 14.105C26.2121 7.47312 20.7273 2 14.0954 2C7.47523 2 2 7.47312 2 14.105C2 20.7273 7.48484 26.21 14.105 26.21Z" fill="black"/>
<path d="M17.9068 10.8793C18.508 10.8793 18.9114 11.3284 18.9114 11.9912V17.6548C18.9114 18.4941 18.4349 18.8724 17.6703 18.8724H11.9874C11.3183 18.8724 10.8938 18.4787 10.8938 17.8637C10.8938 17.2604 11.3258 16.8666 12.0003 16.8666H14.0345L15.7051 17.0562L13.8964 15.3922L9.64062 11.1577C9.42898 10.9461 9.29492 10.6515 9.29492 10.3686C9.29492 9.71869 9.7489 9.29541 10.3627 9.29541C10.6979 9.29541 10.9648 9.41353 11.2008 9.63783L15.4269 13.8713L17.0718 15.6608L16.8981 13.9027V11.9783C16.8981 11.3017 17.2918 10.8793 17.9068 10.8793Z" fill="white"/>
</svg>
