<svg width="28" height="28" viewBox="0 0 28 28" fill="none" xmlns="http://www.w3.org/2000/svg">
<path d="M14.105 26.21C20.7369 26.21 26.2121 20.7273 26.2121 14.105C26.2121 7.47312 20.7273 2 14.0954 2C7.47523 2 2 7.47312 2 14.105C2 20.7273 7.48484 26.21 14.105 26.21ZM14.105 23.8255C8.71085 23.8255 4.39412 19.4991 4.39412 14.105C4.39412 8.71085 8.70124 4.38452 14.0954 4.38452C19.4895 4.38452 23.8276 8.71085 23.8276 14.105C23.8276 19.4991 19.4991 23.8255 14.105 23.8255Z" fill="black"/>
<path d="M10.4352 17.1589C11.0183 17.1589 11.394 16.745 11.394 16.1119V14.2407L11.2225 12.5476L12.8045 14.27L16.8997 18.3631C17.1102 18.5715 17.3708 18.6875 17.6879 18.6875C18.2816 18.6875 18.7154 18.2844 18.7154 17.6663C18.7154 17.3919 18.5835 17.1153 18.3856 16.9175L14.2702 12.8021L12.5286 11.2104L14.1364 11.3979H16.1153C16.7558 11.3979 17.1676 11.0222 17.1676 10.4391C17.1676 9.85599 16.7633 9.48029 16.1281 9.48029H10.6515C9.92523 9.48029 9.4668 9.84052 9.4668 10.6416V16.0969C9.4668 16.7162 9.85422 17.1589 10.4352 17.1589Z" fill="black"/>
</svg>
