<svg width="28" height="28" viewBox="0 0 28 28" fill="none" xmlns="http://www.w3.org/2000/svg">
<path d="M14.105 26.21C20.7369 26.21 26.2121 20.7273 26.2121 14.105C26.2121 7.47312 20.7273 2 14.0954 2C7.47523 2 2 7.47312 2 14.105C2 20.7273 7.48484 26.21 14.105 26.21ZM14.105 23.8255C8.71085 23.8255 4.39412 19.4991 4.39412 14.105C4.39412 8.71085 8.70124 4.38452 14.0954 4.38452C19.4895 4.38452 23.8276 8.71085 23.8276 14.105C23.8276 19.4991 19.4991 23.8255 14.105 23.8255Z" fill="black"/>
<path d="M10.437 11.0089C9.85601 11.0089 9.4707 11.442 9.4707 12.0709V17.5262C9.4707 18.3294 9.92702 18.6875 10.6555 18.6875H16.13C16.7651 18.6875 17.1694 18.3118 17.1694 17.7287C17.1694 17.1455 16.7576 16.7698 16.1192 16.7698H14.1382L12.5325 16.9573L14.2742 15.3561L18.3875 11.2503C18.5853 11.0546 18.7172 10.7759 18.7172 10.5015C18.7172 9.88341 18.2834 9.48029 17.6897 9.48029C17.3726 9.48029 17.1141 9.59631 16.9015 9.80466L12.8063 13.8978L11.2243 15.6202L11.3958 13.9271V12.0559C11.3958 11.4153 11.0201 11.0089 10.437 11.0089Z" fill="black"/>
</svg>
