<svg width="28" height="28" viewBox="0 0 28 28" fill="none" xmlns="http://www.w3.org/2000/svg">
<path d="M14.105 26.21C20.7369 26.21 26.2121 20.7273 26.2121 14.105C26.2121 7.47312 20.7273 2 14.0954 2C7.47523 2 2 7.47312 2 14.105C2 20.7273 7.48484 26.21 14.105 26.21Z" fill="black"/>
<path d="M17.3606 14.9646L13.0085 10.622L18.4456 8.06263C19.4827 7.57489 20.381 8.48825 19.9104 9.51036L17.3606 14.9646ZM7.53333 15.1035C6.39051 15.1035 6.17302 13.8494 7.12082 13.394L9.79717 12.1267L12.7802 15.1035H7.53333ZM14.6175 20.8544C14.1834 21.8001 12.9176 21.5901 12.9176 20.4494V15.243L15.8581 18.191L14.6175 20.8544ZM19.0777 19.8724L8.33817 9.13489C8.08481 8.88364 8.08481 8.492 8.33817 8.25575C8.58403 7.99067 8.96606 8.00028 9.23114 8.25575L19.9685 18.9836C20.224 19.2274 20.2144 19.6169 19.9685 19.8724C19.7323 20.1086 19.3235 20.1182 19.0777 19.8724Z" fill="white"/>
</svg>
