<svg width="28" height="28" viewBox="0 0 28 28" fill="none" xmlns="http://www.w3.org/2000/svg">
<path d="M20.6989 3C15.3924 3 12.7934 5.19 12.7934 10.5253V18.233L12.8839 21.2864L10.7776 18.9499L7.1342 15.3024C6.91202 15.0684 6.58858 14.9304 6.22507 14.9304C5.5189 14.9304 5 15.4601 5 16.1862C5 16.5138 5.13289 16.8211 5.39984 17.0998L13.1187 24.8379C13.373 25.1018 13.7185 25.2485 14.0726 25.2485C14.4268 25.2485 14.7701 25.1018 15.0265 24.8379L22.7508 17.0998C23.0199 16.8211 23.1432 16.5138 23.1432 16.1862C23.1432 15.4601 22.6243 14.9304 21.9181 14.9304C21.5546 14.9304 21.2387 15.0684 21.009 15.3024L17.3677 18.9499L15.2497 21.296L15.3519 18.233L15.3401 10.6877C15.3305 6.83998 16.9986 5.52959 20.7791 5.52959C21.4184 5.52959 21.8715 5.56357 22.3133 5.56357C23.0544 5.56357 23.5841 5.09459 23.5841 4.35022C23.5841 3.57117 22.9913 3.20109 22.4373 3.09891C21.9664 3.02555 21.3765 3 20.6989 3Z" fill="black"/>
</svg>
