<svg width="28" height="28" viewBox="0 0 28 28" fill="none" xmlns="http://www.w3.org/2000/svg">
<path d="M6.84421 24.8737H21.0295C23.5685 24.8737 24.8737 23.5685 24.8737 21.068V6.80577C24.8737 4.30312 23.5685 3 21.0295 3H6.84421C4.31484 3 3 4.29351 3 6.80577V21.068C3 23.5781 4.31484 24.8737 6.84421 24.8737ZM6.97733 22.5778C5.88772 22.5778 5.29592 22.0137 5.29592 20.8751V6.99655C5.29592 5.86756 5.88772 5.29592 6.97733 5.29592H20.8964C21.9764 5.29592 22.5778 5.86756 22.5778 6.99655V20.8751C22.5778 22.0137 21.9764 22.5778 20.8964 22.5778H6.97733Z" fill="black"/>
<path d="M12.3419 19.9566C15.148 19.9566 16.8843 17.9461 16.8843 15.1945V11.7223L16.829 10.4618L17.5091 11.3411L18.6484 12.5229C18.7996 12.6996 19.0253 12.8051 19.2756 12.8051C19.7847 12.8051 20.1817 12.4059 20.1817 11.9086C20.1817 11.6583 20.0954 11.4539 19.9112 11.2814L16.7408 8.15577C16.547 7.95444 16.2967 7.83725 16.0112 7.83725C15.7417 7.83725 15.4872 7.95233 15.2912 8.15577L12.0963 11.291C11.9238 11.4635 11.8375 11.67 11.8375 11.9224C11.8375 12.4123 12.2399 12.8093 12.7436 12.8093C12.9747 12.8093 13.2079 12.7209 13.3782 12.5325L14.6811 11.1351L15.1745 10.4618L15.1192 11.7223V15.1945C15.1192 16.8476 14.1379 18.0841 12.4209 18.0841C10.66 18.0841 9.55585 16.8785 9.55585 15.1891C9.55585 15.0675 9.55585 13.6324 9.55585 13.5412C9.55585 12.9783 9.22913 12.5578 8.65421 12.5578C8.07508 12.5578 7.73242 12.9762 7.73242 13.5584C7.73242 13.6612 7.73242 15.0675 7.73242 15.1891C7.73242 17.9386 9.51554 19.9566 12.3419 19.9566Z" fill="black"/>
</svg>
