<svg width="28" height="28" viewBox="0 0 28 28" fill="none" xmlns="http://www.w3.org/2000/svg">
<path d="M3 13.9845C3 14.7394 3.52312 15.2637 4.2928 15.2637H15.2124L17.6822 15.1522L14.2381 18.2734L11.8655 20.679C11.622 20.9225 11.4839 21.2438 11.4839 21.6074C11.4839 22.3135 12.0115 22.8324 12.7376 22.8324C13.0769 22.8324 13.3959 22.7016 13.6704 22.423L21.094 14.9384C21.3558 14.6799 21.5142 14.3417 21.5142 13.9845C21.5142 13.6177 21.3558 13.2891 21.094 13.021L13.6704 5.53437C13.3959 5.25359 13.0769 5.11531 12.7376 5.11531C12.0115 5.11531 11.4839 5.64382 11.4839 6.34788C11.4839 6.71139 11.6241 7.03694 11.8655 7.26873L14.2381 9.68608L17.6726 12.8169L15.2124 12.6957H4.2928C3.52312 12.6957 3 13.22 3 13.9845ZM21.4791 21.7323C21.4791 22.4459 22.016 22.9594 22.7468 22.9594C23.4658 22.9594 24.0028 22.4459 24.0028 21.7323V6.2464C24.0028 5.52312 23.4658 5 22.7468 5C22.016 5 21.4791 5.52312 21.4791 6.2464V21.7323Z" fill="black"/>
</svg>
