<svg width="28" height="28" viewBox="0 0 28 28" fill="none" xmlns="http://www.w3.org/2000/svg">
<path d="M6.84421 24.8972H21.0295C23.5685 24.8972 24.8737 23.5919 24.8737 21.0914V6.82921C24.8737 4.32656 23.5685 3.02344 21.0295 3.02344H6.84421C4.31484 3.02344 3 4.31695 3 6.82921V21.0914C3 23.6016 4.31484 24.8972 6.84421 24.8972Z" fill="black"/>
<path d="M15.2789 17.8015C14.4876 18.6438 13.4759 18.6417 12.6846 17.7973L8.02194 12.8374C7.60686 12.4043 7.60686 11.7734 7.97928 11.3881C8.40491 10.957 9.06467 10.957 9.45092 11.3709L13.9866 16.1803L18.5126 11.3709C18.8988 10.957 19.5469 10.9666 19.9842 11.3881C20.3662 11.7638 20.3566 12.4064 19.9416 12.8395L15.2789 17.8015Z" fill="white"/>
</svg>
