<svg width="28" height="28" viewBox="0 0 28 28" fill="none" xmlns="http://www.w3.org/2000/svg">
<path d="M14.105 26.21C20.7369 26.21 26.2121 20.7273 26.2121 14.105C26.2121 7.47312 20.7273 2 14.0954 2C7.47523 2 2 7.47312 2 14.105C2 20.7273 7.48484 26.21 14.105 26.21Z" fill="black"/>
<path d="M17.9048 17.2906C17.2898 17.2906 16.8961 16.8566 16.8961 16.1916V14.2651L17.0697 12.5091L15.4249 14.2965L11.1989 18.53C10.9629 18.7543 10.6959 18.8724 10.3608 18.8724C9.74695 18.8724 9.29297 18.4491 9.29297 17.7992C9.29297 17.5184 9.42703 17.2238 9.63867 17.0122L13.8944 12.766L15.7031 11.1137L14.0304 11.3012H11.9983C11.3238 11.3012 10.8919 10.9095 10.8919 10.3042C10.8919 9.68916 11.3163 9.29541 11.9855 9.29541H17.6683C18.4329 9.29541 18.9093 9.6758 18.9093 10.513V16.1766C18.9093 16.8298 18.506 17.2906 17.9048 17.2906Z" fill="white"/>
</svg>
