<svg width="28" height="28" viewBox="0 0 28 28" fill="none" xmlns="http://www.w3.org/2000/svg">
<path d="M4.61958 18.7405H7.00831V9.30734C7.00831 7.3475 8.1966 6.10601 9.84613 6.10601C11.5053 6.10601 12.7203 7.32828 12.7203 9.30734V17.3284C12.7203 20.8048 14.9215 23.094 17.9757 23.094C21.0687 23.094 23.2022 20.8175 23.2022 17.3284V7.91515H20.8135V17.5072C20.8135 19.4553 19.6252 20.6989 17.9757 20.6989C16.3165 20.6989 15.1015 19.4745 15.1015 17.5072V9.48406C15.1015 6.00758 12.9003 3.71844 9.84613 3.71844C6.75309 3.71844 4.61958 5.99703 4.61958 9.48406V18.7405ZM2.89458 17.9553C1.98755 17.9553 1.75341 18.6202 2.2695 19.3407L5.06746 23.2634C5.49426 23.8627 6.14324 23.8573 6.56254 23.2634L9.35628 19.329C9.86487 18.6181 9.6244 17.9553 8.73331 17.9553H2.89458ZM19.0981 8.76007H24.9272C25.8204 8.76007 26.0705 8.09726 25.5523 7.37469L22.766 3.44025C22.3467 2.85595 21.6978 2.85056 21.271 3.44025L18.473 7.36508C17.9494 8.09516 18.1911 8.76007 19.0981 8.76007Z" fill="black"/>
</svg>
