<svg width="28" height="28" viewBox="0 0 28 28" fill="none" xmlns="http://www.w3.org/2000/svg">
<path d="M6.84421 24.8972H21.0295C23.5685 24.8972 24.8737 23.5919 24.8737 21.0914V6.82921C24.8737 4.32656 23.5685 3.02344 21.0295 3.02344H6.84421C4.31484 3.02344 3 4.31695 3 6.82921V21.0914C3 23.6016 4.31484 24.8972 6.84421 24.8972Z" fill="black"/>
<path d="M7.6875 13.9373C7.6875 13.6003 7.80656 13.3516 8.08851 13.0781L12.2151 8.99764C12.4214 8.79561 12.663 8.70514 12.9534 8.70514C13.5323 8.70514 13.9378 9.12654 13.9378 9.70638C13.9378 9.99583 13.8133 10.2607 13.6218 10.4533L12.1683 11.8593L10.789 12.9663L13.2951 12.8461H19.2293C19.8431 12.8461 20.291 13.3034 20.291 13.9373C20.291 14.5617 19.8527 15.019 19.2293 15.019H13.2951L10.7794 14.9083L12.1556 16.0132L13.6218 17.4213C13.825 17.6023 13.9378 17.8671 13.9378 18.1587C13.9378 18.7406 13.5323 19.1695 12.9534 19.1695C12.663 19.1695 12.4214 19.0694 12.2151 18.8674L8.08851 14.7987C7.82578 14.5423 7.6875 14.2744 7.6875 13.9373Z" fill="white"/>
</svg>
