<svg width="28" height="28" viewBox="0 0 28 28" fill="none" xmlns="http://www.w3.org/2000/svg">
<path d="M1 13.898C1 14.3248 1.17765 14.8249 1.63351 15.2552L10.9091 23.9709C11.5202 24.5426 12.0269 24.7959 12.6559 24.7959C13.5604 24.7959 14.2232 24.1235 14.2232 23.2308V18.78H23.6188C25.4277 18.78 26.4871 17.7494 26.4871 15.9619V11.8669C26.4871 10.0793 25.4277 9.04453 23.6188 9.04453H14.2232V4.6153C14.2232 3.72258 13.5604 3 12.6367 3C12.0161 3 11.5809 3.25453 10.9091 3.88476L1.6293 12.5332C1.16594 12.9731 1 13.4531 1 13.898Z" fill="black"/>
</svg>
