<svg width="28" height="28" viewBox="0 0 28 28" fill="none" xmlns="http://www.w3.org/2000/svg">
<path d="M4 15.007C4 20.8158 8.66992 25.4899 14.4712 25.4899C20.2703 25.4899 24.9306 20.8158 24.9306 15.007C24.9306 9.20367 20.2998 4.56445 14.5049 4.56445C13.888 4.56445 13.3 4.63172 12.7792 4.72992L15.6137 1.93264C15.8191 1.71772 15.9264 1.45804 15.9264 1.15288C15.9264 0.508356 15.4394 0 14.8183 0C14.481 0 14.2087 0.110624 14.0066 0.333982L9.19539 5.22187C8.9636 5.44945 8.83915 5.75578 8.83915 6.06421C8.83915 6.38858 8.95399 6.66936 9.19539 6.90866L14.0066 11.7581C14.2162 11.9676 14.481 12.0762 14.8087 12.0762C15.4394 12.0762 15.9264 11.5912 15.9264 10.9488C15.9264 10.6437 15.8191 10.384 15.6041 10.1691L12.422 7.01038C13.0131 6.87584 13.7291 6.81608 14.5049 6.81608C19.0333 6.81608 22.6347 10.4428 22.6347 15.007C22.6347 19.5471 19.0038 23.194 14.4712 23.194C9.93647 23.194 6.2917 19.5471 6.2917 15.007C6.2917 14.318 5.84944 13.8277 5.17304 13.8277C4.48492 13.8277 4 14.318 4 15.007Z" fill="black"/>
</svg>
