<svg width="28" height="28" viewBox="0 0 28 28" fill="none" xmlns="http://www.w3.org/2000/svg">
<path d="M14.105 26.2301C20.7369 26.2301 26.2121 20.7549 26.2121 14.123C26.2121 7.50291 20.7273 2.01807 14.0954 2.01807C7.47523 2.01807 2 7.50291 2 14.123C2 20.7549 7.48484 26.2301 14.105 26.2301Z" fill="black"/>
<path d="M8.29945 19.3695C7.8689 19.3695 7.51758 18.9774 7.51758 18.1998C7.51758 13.512 9.58312 10.6536 14.0351 10.6536H14.1973V8.33395C14.1973 7.84974 14.5559 7.46021 15.0636 7.46021C15.4086 7.46021 15.6352 7.59544 15.9982 7.94044L21.0931 12.6849C21.353 12.9193 21.4477 13.179 21.4477 13.4227C21.4477 13.674 21.353 13.9358 21.0931 14.1723L15.9982 18.9455C15.6704 19.25 15.4053 19.3969 15.0539 19.3969C14.5559 19.3969 14.1973 19.0266 14.1973 18.552V16.212H14.0351C11.6632 16.212 10.2141 16.9008 9.18913 18.8068C8.94655 19.2634 8.63343 19.3695 8.29945 19.3695Z" fill="white"/>
</svg>
