<svg width="28" height="28" viewBox="0 0 28 28" fill="none" xmlns="http://www.w3.org/2000/svg">
<path d="M23.7595 4C23.0152 4 22.5056 4.51047 22.5056 5.26116C22.5056 5.71257 22.5396 6.16561 22.5396 6.81459C22.5396 10.753 21.1524 12.3517 17.2544 12.3517H9.64943L6.84255 12.5212L10.35 9.33249L12.9558 6.6946C13.1876 6.4628 13.3256 6.14898 13.3256 5.78546C13.3256 5.0793 12.798 4.5604 12.0719 4.5604C11.7422 4.5604 11.4349 4.68368 11.1488 4.95063L3.42023 12.677C3.15422 12.9313 3 13.2864 3 13.6309C3 13.9851 3.15422 14.3284 3.42023 14.5944L11.1295 22.292C11.4253 22.5803 11.7422 22.7132 12.0719 22.7132C12.798 22.7132 13.3256 22.1943 13.3256 21.4881C13.3256 21.1246 13.1876 20.8087 12.9558 20.5694L10.35 17.9273L6.85216 14.7578L9.64943 14.9176H17.4169C22.8504 14.9176 25.129 12.4169 25.129 6.89686C25.129 6.20756 25.1034 5.60803 25.0205 5.13718C24.9087 4.57351 24.5578 4 23.7595 4Z" fill="black"/>
</svg>
