<svg width="34" height="28" viewBox="0 0 34 28" fill="none" xmlns="http://www.w3.org/2000/svg">
<path d="M2.62546 21.4505L11.6222 15.9582C12.8761 15.1822 12.9007 13.6702 11.6222 12.8984L2.62546 7.40613C1.30874 6.60457 0 7.24511 0 8.77674V20.0703C0 21.6329 1.3364 22.2383 2.62546 21.4505ZM16.7069 26.8353C17.2525 26.8353 17.7281 26.4235 17.7281 25.8652V2.98183C17.7281 2.42777 17.2462 2.02136 16.7069 2.02136C16.1718 2.02136 15.6933 2.42988 15.6933 2.98183V25.8652C15.6933 26.4214 16.1676 26.8353 16.7069 26.8353ZM30.7863 21.4505C32.0849 22.2383 33.4213 21.6329 33.4213 20.0703V8.77674C33.4213 7.24511 32.1126 6.60457 30.7863 7.40613L21.7896 12.8984C20.5207 13.6702 20.5357 15.1822 21.7896 15.9582L30.7863 21.4505Z" fill="black"/>
</svg>
