<svg width="30" height="28" viewBox="0 0 30 28" fill="none" xmlns="http://www.w3.org/2000/svg">
<path d="M17.5863 24.8055C18.2175 24.8055 18.7221 24.5543 19.3352 23.9805L28.6108 15.2669C29.0763 14.8345 29.2422 14.3344 29.2422 13.9076C29.2422 13.4648 29.0784 12.9731 28.6129 12.5428L19.3352 3.89437C18.6614 3.26414 18.2283 3 17.6055 3C16.6819 3 16.0191 3.73218 16.0191 4.62491V8.92922H8.7806C6.6035 8.92922 5.6646 9.87211 5.6646 12.0204V14.2545H3.04851C0.976871 14.2545 0 15.1898 0 17.2179V21.7348C0 23.7797 0.957887 24.7057 3.04851 24.7057H10.136C12.2646 24.7057 13.1845 23.786 13.1845 21.6862V19.2422H16.0191V23.2404C16.0191 24.1331 16.6819 24.8055 17.5863 24.8055ZM11.5596 21.8234L7.14584 19.9526C5.98475 19.4552 5.50593 18.8016 5.45788 17.7766C5.44827 17.538 5.71124 17.4912 5.81038 17.7244C6.15139 18.6349 6.99045 19.2422 8.40701 19.2422H11.7162V21.7467C11.7162 21.8276 11.6362 21.8606 11.5596 21.8234Z" fill="black"/>
</svg>
