<svg width="32" height="28" viewBox="0 0 32 28" fill="none" xmlns="http://www.w3.org/2000/svg">
<path d="M17.8303 24.7959C18.7326 24.7959 19.3975 24.1235 19.3975 23.2287V19.0052H19.6889C24.0016 19.0052 26.6332 20.2528 28.4962 23.7157C28.9507 24.5627 29.5298 24.7474 30.1296 24.7474C30.93 24.7474 31.5602 23.9909 31.5602 22.5591C31.5602 14.0424 27.8151 8.8193 19.6889 8.8193H19.3975V4.6153C19.3975 3.72258 18.7326 3 17.809 3C17.1883 3 16.7552 3.25453 16.0814 3.88265L6.80366 12.5332C6.35741 12.9443 6.17436 13.4339 6.17436 13.898C6.17436 14.3344 6.35952 14.8441 6.80577 15.2552L16.0814 23.9709C16.6924 24.5426 17.1991 24.7959 17.8303 24.7959ZM11.6559 24.8055C12.4739 24.8055 13.0819 24.3293 13.1557 23.7691V23.4361L5.61327 16.4784C4.85835 15.7884 4.40062 14.8762 4.40062 13.9076C4.40062 12.9389 4.83491 12.033 5.60905 11.3292L13.1557 4.4175V4.08656C13.0819 3.50508 12.4739 3.00961 11.6367 3.00961C11.0161 3.00961 10.5809 3.26414 9.90703 3.89437L0.619686 12.5428C0.163827 12.9827 0 13.4627 0 13.9076C0 14.3344 0.168046 14.8345 0.621795 15.2648L9.90703 23.9805C10.5105 24.5522 11.0248 24.8055 11.6559 24.8055Z" fill="black"/>
</svg>
