<svg width="28" height="28" viewBox="0 0 28 28" fill="none" xmlns="http://www.w3.org/2000/svg">
<path d="M10.7571 25.6359C15.412 25.6359 18.6122 22.5007 18.6122 17.1726V9.7284L18.4333 5.78974L17.7614 6.15465L20.2352 9.07871L23.1738 12.0909C23.4056 12.3248 23.6906 12.4725 24.0637 12.4725C24.7891 12.4725 25.308 11.9641 25.308 11.2101C25.308 10.889 25.1655 10.5316 24.9157 10.2839L18.2869 3.54725C18.0326 3.28124 17.6775 3.14835 17.333 3.14835C16.9788 3.14835 16.6355 3.28124 16.3791 3.54725L9.75233 10.2839C9.5046 10.5316 9.35249 10.889 9.35249 11.2101C9.35249 11.9641 9.881 12.4725 10.5968 12.4725C10.9795 12.4725 11.2645 12.3248 11.4963 12.0909L14.4328 9.07871L16.9066 6.15465L16.2251 5.78974L16.0559 9.7284V17.2451C16.0559 21.0197 13.9064 23.1028 10.8553 23.1028C7.8042 23.1028 5.55631 21.0197 5.55631 17.2451V14.5181C5.55631 13.7491 4.9842 13.2155 4.27921 13.2155C3.5721 13.2155 3 13.7491 3 14.5181V17.3306C3 22.5701 6.07687 25.6359 10.7571 25.6359Z" fill="black"/>
</svg>
