<svg width="28" height="28" viewBox="0 0 28 28" fill="none" xmlns="http://www.w3.org/2000/svg">
<path d="M14.105 26.2301C20.7369 26.2301 26.2121 20.7549 26.2121 14.123C26.2121 7.50289 20.7273 2.01805 14.0954 2.01805C7.47523 2.01805 2 7.50289 2 14.123C2 20.7549 7.48484 26.2301 14.105 26.2301Z" fill="black"/>
<path d="M14.0947 17.8393C13.8362 17.8393 13.5957 17.7308 13.4073 17.5348L9.39242 13.4874C9.21265 13.3044 9.11047 13.0372 9.11047 12.8223C9.11047 12.286 9.47328 11.9157 9.98726 11.9157C10.2809 11.9157 10.4874 12.0092 10.6608 12.1923L11.3595 12.9486L13.3095 15.147L13.1668 13.0693V8.01569C13.1668 7.4689 13.5371 7.08054 14.0947 7.08054C14.6234 7.08054 15.0151 7.4689 15.0151 8.01569V13.0693L14.8819 15.1353L16.801 12.9582L17.5498 12.1923C17.7329 12.0113 17.9628 11.9157 18.2373 11.9157C18.7353 11.9157 19.1002 12.3073 19.1002 12.8223C19.1002 13.066 19.0194 13.2873 18.8108 13.497L14.7842 17.5348C14.6033 17.7212 14.3532 17.8393 14.0947 17.8393ZM9.65562 20.5067C9.13835 20.5067 8.75 20.1184 8.75 19.5894C8.75 19.0796 9.13835 18.6816 9.65562 18.6816H18.5647C19.082 18.6816 19.4607 19.0796 19.4607 19.5894C19.4607 20.1184 19.082 20.5067 18.5647 20.5067H9.65562Z" fill="white"/>
</svg>
