<svg width="28" height="28" viewBox="0 0 28 28" fill="none" xmlns="http://www.w3.org/2000/svg">
<path d="M6.84421 24.8737H21.0295C23.5685 24.8737 24.8737 23.5685 24.8737 21.068V6.80577C24.8737 4.30312 23.5685 3 21.0295 3H6.84421C4.31484 3 3 4.29351 3 6.80577V21.068C3 23.5781 4.31484 24.8737 6.84421 24.8737Z" fill="black"/>
<path d="M12.6898 19.8851C9.85226 19.8851 7.97656 17.9613 7.97656 15.0832V13.4602C7.97656 12.8344 8.36398 12.4193 8.94406 12.4193C9.5103 12.4193 9.89351 12.8269 9.89351 13.443V15.0832C9.89351 16.8012 11.0157 17.9576 12.6898 17.9576C14.2679 17.9576 15.3195 16.8183 15.3195 15.0886V11.6393L15.3845 10.5262L14.9755 11.1023L13.6909 12.4739C13.5184 12.6665 13.281 12.7666 13.0168 12.7666C12.4834 12.7666 12.0629 12.3515 12.0629 11.8436C12.0629 11.5678 12.1534 11.3379 12.3376 11.1633L15.5171 8.03389C15.7461 7.80702 16.0145 7.70905 16.2882 7.70905C16.5566 7.70905 16.8207 7.82085 17.0476 8.03389L20.21 11.1537C20.3984 11.34 20.4964 11.5561 20.4964 11.8277C20.4964 12.3452 20.0642 12.7624 19.535 12.7624C19.2805 12.7624 19.0431 12.6644 18.8684 12.4739L17.7474 11.2987L17.1474 10.5166L17.2049 11.6393V15.0886C17.2049 17.9688 15.4049 19.8851 12.6898 19.8851Z" fill="white"/>
</svg>
