<svg width="28" height="28" viewBox="0 0 28 28" fill="none" xmlns="http://www.w3.org/2000/svg">
<path d="M13.8371 25.6355C14.1359 25.6355 14.5719 25.4081 14.9309 25.1862C21.4833 20.9674 25.6838 16.0235 25.6838 11.0166C25.6838 6.7057 22.7075 3.71484 18.9634 3.71484C16.6402 3.71484 14.8909 4.99945 13.8371 6.92461C12.8026 5.00906 11.0457 3.71484 8.71085 3.71484C4.97632 3.71484 2 6.7057 2 11.0166C2 16.0235 6.20047 20.9674 12.7529 25.1862C13.1023 25.4081 13.5479 25.6355 13.8371 25.6355Z" fill="black"/>
<path d="M14.7648 18.8532C14.7648 19.4319 14.2701 19.8758 13.686 19.8758C13.1019 19.8758 12.6168 19.4319 12.6168 18.8532V14.9307L12.7061 13.0454L11.789 14.0061L10.8808 14.942C10.7019 15.1334 10.4284 15.2621 10.1603 15.2621C9.59735 15.2621 9.19727 14.8759 9.19727 14.3213C9.19727 14.0181 9.31446 13.7977 9.53993 13.5924L12.8692 10.5465C13.1544 10.2889 13.3883 10.1731 13.686 10.1731C13.9837 10.1731 14.2176 10.2889 14.5028 10.5465L17.8321 13.5924C18.0576 13.7977 18.1769 14.0181 18.1769 14.3213C18.1769 14.8759 17.7555 15.2621 17.2117 15.2621C16.9403 15.2621 16.6733 15.1334 16.4933 14.942L15.5851 14.0061L14.6659 13.0454L14.7648 14.9307V18.8532Z" fill="white"/>
</svg>
