<svg width="28" height="28" viewBox="0 0 28 28" fill="none" xmlns="http://www.w3.org/2000/svg">
<path d="M14.105 26.21C20.7369 26.21 26.2121 20.7273 26.2121 14.105C26.2121 7.47312 20.7273 2 14.0954 2C7.47523 2 2 7.47312 2 14.105C2 20.7273 7.48484 26.21 14.105 26.21ZM14.105 23.8255C8.71085 23.8255 4.39412 19.4991 4.39412 14.105C4.39412 8.71085 8.70124 4.38452 14.0954 4.38452C19.4895 4.38452 23.8276 8.71085 23.8276 14.105C23.8276 19.4991 19.4991 23.8255 14.105 23.8255Z" fill="black"/>
<path d="M20.1543 15.4967C20.1543 12.6905 18.1342 10.9543 15.3826 10.9543H11.9125L10.6499 10.9979L11.5314 10.3198L12.711 9.19014C12.8877 9.03686 12.9932 8.80365 12.9932 8.55334C12.9932 8.05178 12.5962 7.65686 12.0967 7.65686C11.8464 7.65686 11.642 7.7335 11.4716 7.91772L8.34391 11.0881C8.15219 11.2916 8.02539 11.5419 8.02539 11.8177C8.02539 12.0969 8.15008 12.3418 8.34391 12.5452L11.4813 15.7327C11.6516 15.9052 11.8581 15.9915 12.1126 15.9915C12.6004 15.9915 12.9995 15.5987 12.9995 15.0854C12.9995 14.8639 12.9111 14.6211 12.7206 14.4603L11.3233 13.1574L10.6499 12.6544L11.9125 12.7194H15.3826C17.0357 12.7194 18.2819 13.689 18.2819 15.4177C18.2819 17.1786 17.0687 18.2731 15.3772 18.2731C15.2556 18.2731 13.8205 18.2731 13.7294 18.2731C13.1664 18.2731 12.748 18.5998 12.748 19.1844C12.748 19.7635 13.1643 20.0966 13.7465 20.0966C13.8494 20.0966 15.2556 20.0966 15.3772 20.0966C18.1267 20.0966 20.1543 18.3134 20.1543 15.4967Z" fill="black"/>
</svg>
