<svg width="28" height="28" viewBox="0 0 28 28" fill="none" xmlns="http://www.w3.org/2000/svg">
<path d="M6.84421 24.8972H21.0295C23.5685 24.8972 24.8737 23.5919 24.8737 21.0914V6.82921C24.8737 4.32656 23.5685 3.02344 21.0295 3.02344H6.84421C4.31484 3.02344 3 4.31695 3 6.82921V21.0914C3 23.6016 4.31484 24.8972 6.84421 24.8972ZM6.97733 22.6013C5.88772 22.6013 5.29592 22.0371 5.29592 20.8985V7.01999C5.29592 5.88139 5.88772 5.31936 6.97733 5.31936H20.8964C21.9764 5.31936 22.5778 5.88139 22.5778 7.01999V20.8985C22.5778 22.0371 21.9764 22.6013 20.8964 22.6013H6.97733Z" fill="black"/>
<path d="M13.952 7.94202C13.3617 7.94202 12.9149 8.36014 12.9149 8.9517V14.4905L13.0234 16.8977L11.9655 15.5822L10.6469 14.2118C10.4798 14.0224 10.2309 13.9118 9.94351 13.9118C9.39555 13.9118 8.99219 14.3088 8.99219 14.8484C8.99219 15.1324 9.07094 15.3581 9.25703 15.5527L13.131 19.4644C13.3928 19.7325 13.6427 19.8569 13.952 19.8569C14.2827 19.8569 14.5326 19.7229 14.7827 19.4644L18.647 15.5527C18.8448 15.3581 18.9332 15.1324 18.9332 14.8484C18.9332 14.3088 18.5202 13.9118 17.9723 13.9118C17.687 13.9118 17.4381 14.0128 17.2689 14.2118L15.962 15.5716L14.8806 16.9095L14.9891 14.4905V8.9517C14.9891 8.36014 14.552 7.94202 13.952 7.94202Z" fill="black"/>
</svg>
