<svg width="28" height="28" viewBox="0 0 28 28" fill="none" xmlns="http://www.w3.org/2000/svg">
<path d="M6.84421 24.8972H21.0295C23.5685 24.8972 24.8737 23.5919 24.8737 21.0914V6.82921C24.8737 4.32656 23.5685 3.02344 21.0295 3.02344H6.84421C4.31484 3.02344 3 4.31695 3 6.82921V21.0914C3 23.6016 4.31484 24.8972 6.84421 24.8972Z" fill="black"/>
<path d="M17.7683 10.7192C18.3715 10.7192 18.7749 11.1682 18.7749 11.831V17.4947C18.7749 18.334 18.2984 18.7123 17.5318 18.7123H11.8489C11.1819 18.7123 10.7553 18.3185 10.7553 17.7035C10.7553 17.1002 11.1894 16.7065 11.8618 16.7065H13.8959L15.5666 16.8961L13.7579 15.232L9.50422 10.9976C9.29258 10.786 9.16602 10.4913 9.16602 10.2085C9.16602 9.55853 9.6125 9.13525 10.2263 9.13525C10.5594 9.13525 10.838 9.25338 11.0644 9.47767L15.2904 13.7112L16.9332 15.5006L16.7616 13.7426V11.8181C16.7616 11.1415 17.1554 10.7192 17.7683 10.7192Z" fill="white"/>
</svg>
