<svg width="28" height="28" viewBox="0 0 28 28" fill="none" xmlns="http://www.w3.org/2000/svg">
<path d="M14.105 26.21C20.7369 26.21 26.2121 20.7273 26.2121 14.105C26.2121 7.47312 20.7273 2 14.0954 2C7.47523 2 2 7.47312 2 14.105C2 20.7273 7.48484 26.21 14.105 26.21Z" fill="black"/>
<path d="M11.3399 20.1144C10.9239 19.6866 10.9345 19.0269 11.342 18.6448L16.1631 14.1146L11.342 9.59818C10.9206 9.20232 10.9302 8.52451 11.3559 8.12866C11.7496 7.75506 12.3817 7.77756 12.801 8.17342L17.7608 12.8223C18.505 13.5174 18.4954 14.7256 17.7608 15.4112L12.801 20.0717C12.4211 20.4357 11.7018 20.4549 11.3399 20.1144Z" fill="white"/>
</svg>
