<svg width="28" height="28" viewBox="0 0 28 28" fill="none" xmlns="http://www.w3.org/2000/svg">
<path d="M6.84421 24.8972H21.0295C23.5685 24.8972 24.8737 23.5919 24.8737 21.0914V6.82921C24.8737 4.32656 23.5685 3.02344 21.0295 3.02344H6.84421C4.31484 3.02344 3 4.31695 3 6.82921V21.0914C3 23.6016 4.31484 24.8972 6.84421 24.8972Z" fill="black"/>
<path d="M7.97726 16.8155C7.59734 16.4494 7.60695 15.7971 8.02203 15.3757L12.6751 10.4041C13.4663 9.57137 14.4781 9.56926 15.279 10.402L19.932 15.3715C20.3471 15.795 20.3567 16.4494 19.9747 16.8155C19.547 17.2444 18.8893 17.2444 18.5031 16.8326L13.977 12.0211L9.45101 16.8326C9.05515 17.2444 8.405 17.2444 7.97726 16.8155Z" fill="white"/>
</svg>
