<svg width="28" height="28" viewBox="0 0 28 28" fill="none" xmlns="http://www.w3.org/2000/svg">
<path d="M6.84421 24.8972H21.0295C23.5685 24.8972 24.8737 23.5919 24.8737 21.0914V6.82921C24.8737 4.32656 23.5685 3.02344 21.0295 3.02344H6.84421C4.31484 3.02344 3 4.31695 3 6.82921V21.0914C3 23.6016 4.31484 24.8972 6.84421 24.8972Z" fill="black"/>
<path d="M13.9868 6.45937C14.2973 6.45937 14.5366 6.59132 14.7996 6.8489L18.1685 10.2323C18.36 10.4184 18.4483 10.6601 18.4483 10.9326C18.4483 11.4691 18.0459 11.861 17.4914 11.861C17.1944 11.861 16.9603 11.7218 16.7772 11.5462L16.0204 10.7819L14.9029 9.41319L15.0189 11.8772V16.0062L14.9029 18.4723L16.0204 17.1035L16.7772 16.3392C16.9603 16.1541 17.1944 16.0245 17.4914 16.0245C18.0459 16.0245 18.4483 16.4163 18.4483 16.9528C18.4483 17.2158 18.36 17.467 18.1685 17.6531L14.7996 21.0366C14.5366 21.2941 14.2973 21.4261 13.9868 21.4261C13.6666 21.4261 13.4156 21.2941 13.1643 21.0366L9.80508 17.6531C9.6136 17.467 9.51562 17.2158 9.51562 16.9528C9.51562 16.4163 9.92765 16.0245 10.4822 16.0245C10.7791 16.0245 11.0133 16.1444 11.2059 16.3392L11.9531 17.1035L13.0706 18.4819L12.9546 16.0062V11.8772L13.0706 9.40147L11.9531 10.7819L11.2059 11.5462C11.0133 11.7314 10.7791 11.861 10.4822 11.861C9.92765 11.861 9.51562 11.4691 9.51562 10.9326C9.51562 10.6601 9.6136 10.4184 9.80508 10.2323L13.1643 6.8489C13.4156 6.59132 13.6666 6.45937 13.9868 6.45937Z" fill="white"/>
</svg>
