<svg width="28" height="28" viewBox="0 0 28 28" fill="none" xmlns="http://www.w3.org/2000/svg">
<path d="M14.105 26.21C20.7369 26.21 26.2121 20.7273 26.2121 14.105C26.2121 7.47312 20.7273 2 14.0954 2C7.47523 2 2 7.47312 2 14.105C2 20.7273 7.48484 26.21 14.105 26.21Z" fill="black"/>
<path d="M8.82812 17.3277V14.3637C8.82812 12.1255 9.93414 11.0173 12.1809 11.0173H15.5428V9.47469C15.5428 8.65789 16.38 8.32016 17.0273 8.83649L20.0006 11.1631C20.7337 11.7502 20.7379 12.4819 20.0006 13.0712L17.0273 15.4053C16.38 15.9216 15.5428 15.5776 15.5428 14.7671V13.238H12.4249C11.5138 13.238 11.0392 13.703 11.0392 14.6748V17.3277C11.0392 18.0866 10.6211 18.545 9.93156 18.5546C9.23453 18.5642 8.82812 18.0866 8.82812 17.3277Z" fill="white"/>
</svg>
