<svg width="28" height="28" viewBox="0 0 28 28" fill="none" xmlns="http://www.w3.org/2000/svg">
<path d="M14.105 26.21C20.7369 26.21 26.2121 20.7273 26.2121 14.105C26.2121 7.47312 20.7273 2 14.0954 2C7.47523 2 2 7.47312 2 14.105C2 20.7273 7.48484 26.21 14.105 26.21ZM14.105 23.8255C8.71085 23.8255 4.39412 19.4991 4.39412 14.105C4.39412 8.71085 8.70124 4.38452 14.0954 4.38452C19.4895 4.38452 23.8276 8.71085 23.8276 14.105C23.8276 19.4991 19.4991 23.8255 14.105 23.8255Z" fill="black"/>
<path d="M12.4846 20.1402C15.3004 20.1402 17.0366 18.1297 17.0366 15.3685V11.9058L16.9834 10.6358L17.6615 11.5248L18.7912 12.7065C18.954 12.8736 19.1776 12.9887 19.428 12.9887C19.9295 12.9887 20.334 12.5799 20.334 12.0922C20.334 11.8419 20.2478 11.6279 20.0636 11.4554L16.8932 8.33936C16.6994 8.13803 16.4394 8.02084 16.1636 8.02084C15.894 8.02084 15.6395 8.13592 15.4457 8.33936L12.2486 11.465C12.0761 11.6375 11.9898 11.8536 11.9898 12.106C11.9898 12.5862 12.3922 12.9929 12.8959 12.9929C13.127 12.9929 13.3602 12.8949 13.5306 12.7161L14.8335 11.3187L15.3269 10.6358L15.2715 11.9058V15.3685C15.2715 17.0216 14.2923 18.2677 12.5636 18.2677C10.8123 18.2677 9.7082 17.0525 9.7082 15.3631C9.7082 15.2511 9.7082 13.8064 9.7082 13.7152C9.7082 13.1619 9.38148 12.7414 8.80656 12.7414C8.22742 12.7414 7.88477 13.1598 7.88477 13.7323C7.88477 13.8352 7.88477 15.2511 7.88477 15.3631C7.88477 18.1222 9.66789 20.1402 12.4846 20.1402Z" fill="black"/>
</svg>
