<svg width="28" height="28" viewBox="0 0 28 28" fill="none" xmlns="http://www.w3.org/2000/svg">
<path d="M5.4714 25.8517C6.12577 25.8517 6.59475 25.5606 7.29342 24.8716L13.364 18.849C13.4247 18.7883 13.4737 18.7415 13.5344 18.7415C13.5876 18.7415 13.6462 18.7883 13.7069 18.849L19.7678 24.8716C20.4761 25.5606 20.9355 25.8517 21.5898 25.8517C22.4732 25.8517 23.0612 25.1769 23.0612 24.2493C23.0612 23.7512 22.8791 23.1733 22.6675 22.5979L15.3559 2.71726C14.9408 1.58054 14.3394 1 13.5344 1C12.7218 1 12.13 1.57843 11.7149 2.71726L4.39375 22.5979C4.19172 23.1733 4 23.7512 4 24.2493C4 25.1769 4.58804 25.8517 5.4714 25.8517ZM6.67654 22.4955C6.63716 22.472 6.63388 22.4167 6.65521 22.3485L13.4108 4.1863C13.4481 4.08833 13.4812 4.05529 13.5344 4.05529C13.5801 4.05529 13.6227 4.08833 13.6504 4.1863L20.406 22.3485C20.4273 22.4167 20.4198 22.4678 20.3922 22.4955C20.3666 22.5135 20.3156 22.4976 20.2762 22.4678L14.268 16.3743C13.9937 16.1043 13.7596 16.0152 13.5344 16.0152C13.3016 16.0152 13.0654 16.1043 12.8029 16.3743L6.79466 22.4678C6.75529 22.4976 6.70419 22.5093 6.67654 22.4955Z" fill="black"/>
</svg>
