<svg width="28" height="28" viewBox="0 0 28 28" fill="none" xmlns="http://www.w3.org/2000/svg">
<path d="M14.105 26.2301C20.7369 26.2301 26.2121 20.7549 26.2121 14.123C26.2121 7.50289 20.7273 2.01805 14.0954 2.01805C7.47523 2.01805 2 7.50289 2 14.123C2 20.7549 7.48484 26.2301 14.105 26.2301Z" fill="black"/>
<path d="M8.70312 14.6717C8.70312 11.768 11.0394 9.45616 13.6991 9.37812C13.7982 9.37601 13.9187 9.38351 14.0082 9.39101L13.2952 8.6546C13.1684 8.50343 13.0599 8.29882 13.0599 8.05413C13.0599 7.60577 13.4049 7.22374 13.9135 7.22374C14.1561 7.22374 14.386 7.3407 14.5339 7.50569L16.8057 9.81054C17.1207 10.1448 17.1441 10.7227 16.8036 11.0494L14.5126 13.3447C14.3689 13.4905 14.1444 13.6023 13.9198 13.6023C13.442 13.6023 13.0662 13.2519 13.0662 12.755C13.0662 12.5419 13.1495 12.3406 13.2795 12.2021L14.2595 11.2212C14.1444 11.2147 13.993 11.2114 13.8533 11.2177C12.0123 11.2641 10.5519 12.8206 10.5519 14.7123C10.5519 16.6916 12.1304 18.286 14.1043 18.286C16.0782 18.286 17.6588 16.6958 17.6588 14.7123C17.6588 14.2046 18.0814 13.7937 18.5912 13.7937C19.085 13.7937 19.5076 14.2046 19.5076 14.7123C19.5076 17.6951 17.0947 20.1251 14.1043 20.1251C11.116 20.1251 8.70312 17.6951 8.70312 14.6717Z" fill="white"/>
</svg>
