<svg width="28" height="28" viewBox="0 0 28 28" fill="none" xmlns="http://www.w3.org/2000/svg">
<path d="M14.105 26.21C20.7369 26.21 26.2121 20.7273 26.2121 14.105C26.2121 7.47312 20.7273 2 14.0954 2C7.47523 2 2 7.47312 2 14.105C2 20.7273 7.48484 26.21 14.105 26.21Z" fill="black"/>
<path d="M16.473 19.9564C16.1304 20.2873 15.4324 20.2681 15.06 19.9234L10.2292 15.3706C9.50432 14.7043 9.50432 13.527 10.2292 12.8607L15.06 8.31011C15.4718 7.92598 16.0826 7.92269 16.4571 8.27707C16.8731 8.66332 16.8827 9.33152 16.4805 9.70604L11.7885 14.105L16.4805 18.5253C16.8689 18.8998 16.889 19.5383 16.473 19.9564Z" fill="white"/>
</svg>
