<svg width="28" height="28" viewBox="0 0 28 28" fill="none" xmlns="http://www.w3.org/2000/svg">
<path d="M6.84421 24.8737H21.0295C23.5685 24.8737 24.8737 23.5685 24.8737 21.068V6.80577C24.8737 4.30312 23.5685 3 21.0295 3H6.84421C4.31484 3 3 4.29351 3 6.80577V21.068C3 23.5781 4.31484 24.8737 6.84421 24.8737ZM6.97733 22.5778C5.88772 22.5778 5.29592 22.0137 5.29592 20.8751V6.99655C5.29592 5.86756 5.88772 5.29592 6.97733 5.29592H20.8964C21.9764 5.29592 22.5778 5.86756 22.5778 6.99655V20.8751C22.5778 22.0137 21.9764 22.5778 20.8964 22.5778H6.97733Z" fill="black"/>
<path d="M20.0021 15.3131C20.0021 12.5069 17.982 10.7707 15.2305 10.7707H11.7582L10.4977 10.8239L11.3792 10.1362L12.5588 9.00654C12.7355 8.85326 12.841 8.62006 12.841 8.37936C12.841 7.86819 12.444 7.47327 11.9445 7.47327C11.6942 7.47327 11.4898 7.55952 11.3173 7.74373L8.19171 10.9045C7.99999 11.1079 7.88281 11.3583 7.88281 11.6437C7.88281 11.9133 7.99788 12.1582 8.19171 12.3616L11.3291 15.5587C11.4995 15.7312 11.7059 15.8079 11.9605 15.8079C12.4482 15.8079 12.8473 15.4151 12.8473 14.9114C12.8473 14.6803 12.759 14.4375 12.5684 14.2767L11.1711 12.9738L10.4977 12.4804L11.7582 12.5358H15.2305C16.8835 12.5358 18.1297 13.5054 18.1297 15.2341C18.1297 16.995 16.9166 18.0895 15.2251 18.0895C15.1034 18.0895 13.6684 18.0895 13.5772 18.0895C13.0142 18.0895 12.5938 18.4259 12.5938 19.0008C12.5938 19.5799 13.0121 19.913 13.5943 19.913C13.6972 19.913 15.1034 19.913 15.2251 19.913C17.9745 19.913 20.0021 18.1394 20.0021 15.3131Z" fill="black"/>
</svg>
