<svg width="28" height="28" viewBox="0 0 28 28" fill="none" xmlns="http://www.w3.org/2000/svg">
<path d="M2 11.0166C2 16.0235 6.20047 20.9674 12.7529 25.1862C13.1023 25.4081 13.5479 25.6355 13.8371 25.6355C14.1359 25.6355 14.5719 25.4081 14.9309 25.1862C21.4833 20.9674 25.6838 16.0235 25.6838 11.0166C25.6838 6.7057 22.7075 3.71484 18.8651 3.71484C16.6402 3.71484 14.8909 4.73977 13.8371 6.28383C12.8026 4.74938 11.0457 3.71484 8.80906 3.71484C4.97632 3.71484 2 6.7057 2 11.0166ZM4.36131 11.006C4.36131 8.03225 6.31366 6.03608 8.93538 6.03608C11.0616 6.03608 12.2459 7.31858 12.9929 8.43772C13.3135 8.91069 13.538 9.0628 13.8371 9.0628C14.1458 9.0628 14.3448 8.89897 14.6888 8.43772C15.4826 7.33569 16.6318 6.03608 18.7388 6.03608C21.3702 6.03608 23.3225 8.03225 23.3225 11.006C23.3225 15.1545 19.0018 19.7356 14.0621 23.0145C13.9576 23.0881 13.884 23.1403 13.8371 23.1403C13.7998 23.1403 13.7262 23.0881 13.6217 23.0145C8.68413 19.7356 4.36131 15.1545 4.36131 11.006Z" fill="black"/>
<path d="M9.69336 15.5269C9.69336 17.7644 11.4674 19.5577 13.6857 19.5577C15.9041 19.5577 17.678 17.7644 17.678 15.5461C17.678 15.1362 17.333 14.7954 16.9252 14.7954C16.5078 14.7954 16.167 15.1362 16.167 15.5461C16.167 16.9317 15.0575 18.0349 13.6857 18.0349C12.3118 18.0349 11.2044 16.9275 11.2044 15.5461C11.2044 14.4448 11.9274 13.5258 12.9275 13.203V14.2394C12.9275 14.7005 13.4237 14.8772 13.7771 14.5769L15.6662 12.9659C15.9994 12.6741 15.9973 12.2695 15.6662 11.9895L13.7771 10.3997C13.4195 10.0995 12.9275 10.2804 12.9275 10.7393V11.6517C11.1298 11.9709 9.69336 13.6184 9.69336 15.5269Z" fill="black"/>
</svg>
