<svg width="28" height="28" viewBox="0 0 28 28" fill="none" xmlns="http://www.w3.org/2000/svg">
<path d="M6.84421 24.8972H21.0295C23.5685 24.8972 24.8737 23.5919 24.8737 21.0914V6.82921C24.8737 4.32656 23.5685 3.02344 21.0295 3.02344H6.84421C4.31484 3.02344 3 4.31695 3 6.82921V21.0914C3 23.6016 4.31484 24.8972 6.84421 24.8972ZM6.97733 22.6013C5.88772 22.6013 5.29592 22.0371 5.29592 20.8985V7.01999C5.29592 5.88139 5.88772 5.31936 6.97733 5.31936H20.8964C21.9764 5.31936 22.5778 5.88139 22.5778 7.01999V20.8985C22.5778 22.0371 21.9764 22.6013 20.8964 22.6013H6.97733Z" fill="black"/>
<path d="M13.952 19.8569C14.552 19.8569 14.9891 19.4388 14.9891 18.8473V13.3085L14.8806 10.8895L15.962 12.2273L17.2689 13.5872C17.4381 13.7765 17.687 13.8872 17.9723 13.8872C18.5202 13.8872 18.9332 13.4805 18.9332 12.9506C18.9332 12.6665 18.8448 12.4408 18.647 12.2463L14.7827 8.32498C14.5326 8.06647 14.2827 7.94202 13.952 7.94202C13.6427 7.94202 13.3928 8.05686 13.131 8.32498L9.25703 12.2463C9.07094 12.4408 8.99219 12.6665 8.99219 12.9506C8.99219 13.4805 9.39555 13.8872 9.94351 13.8872C10.2309 13.8872 10.4798 13.7669 10.6469 13.5872L11.9655 12.2168L13.0234 10.9012L12.9149 13.3085V18.8473C12.9149 19.4388 13.3617 19.8569 13.952 19.8569Z" fill="black"/>
</svg>
