<svg width="28" height="28" viewBox="0 0 28 28" fill="none" xmlns="http://www.w3.org/2000/svg">
<path d="M2 14.4594C2 21.0892 7.48484 26.5644 14.105 26.5644C20.7369 26.5644 26.2121 21.0892 26.2121 14.4594C26.2121 10.6654 24.3169 7.07779 21.4634 4.93911C20.8381 4.42888 20.0881 4.53037 19.7023 5.07201C19.2976 5.64646 19.4773 6.32379 20.0211 6.79676C22.3379 8.55902 23.8159 11.3169 23.8276 14.4594C23.8372 19.8536 19.4991 24.1799 14.105 24.1799C8.71085 24.1799 4.39412 19.8536 4.39412 14.4594C4.39412 9.90106 7.48108 6.1091 11.6998 5.05911V6.72645C11.6998 7.61965 12.3627 7.86973 13.0852 7.35153L17.0197 4.55567C17.604 4.14599 17.6094 3.49701 17.0197 3.07021L13.0948 0.27436C12.3669 -0.25134 11.6998 -0.00970048 11.6998 0.897328V2.60451C6.19648 3.73326 2 8.65162 2 14.4594Z" fill="black"/>
<path d="M8.44516 10.6499C8.3418 11.1784 8.27148 11.8752 8.27148 12.3397C8.27148 16.2522 10.6059 18.8434 14.1656 18.8434C16.5006 18.8434 17.5652 17.4651 17.8335 17.0186L17.0728 16.9975C17.7874 17.728 18.0667 18.4804 18.4225 19.5852C18.4949 19.8217 18.6845 19.9356 18.873 19.9356C19.2702 19.9356 19.6026 19.5873 19.6026 19.1144C19.6026 18.3845 18.5617 17.1315 18.0098 16.6244C15.6988 14.5117 12.2191 15.7665 11.343 13.4511C11.279 13.2805 11.4475 13.1472 11.6235 13.2922C13.525 14.9247 15.7403 13.615 17.9697 15.6524C18.172 15.8312 18.3986 15.7429 18.4497 15.5343C18.4731 15.3861 18.4827 15.1485 18.4827 14.9162C18.4827 12.3749 16.7245 11.1095 14.189 11.1095C13.3441 11.1095 12.3756 11.3226 11.6074 11.3226C10.7772 11.3226 9.85961 11.2393 9.09672 10.4732C8.85719 10.2261 8.51758 10.2622 8.44516 10.6499Z" fill="black"/>
</svg>
