<svg width="28" height="28" viewBox="0 0 28 28" fill="none" xmlns="http://www.w3.org/2000/svg">
<path d="M6.84421 24.8972H21.0295C23.5685 24.8972 24.8737 23.5919 24.8737 21.0914V6.82921C24.8737 4.32656 23.5685 3.02344 21.0295 3.02344H6.84421C4.31484 3.02344 3 4.31695 3 6.82921V21.0914C3 23.6016 4.31484 24.8972 6.84421 24.8972ZM6.97733 22.6013C5.88772 22.6013 5.29592 22.0371 5.29592 20.8985V7.01999C5.29592 5.88139 5.88772 5.31936 6.97733 5.31936H20.8964C21.9764 5.31936 22.5778 5.88139 22.5778 7.01999V20.8985C22.5778 22.0371 21.9764 22.6013 20.8964 22.6013H6.97733Z" fill="black"/>
<path d="M11.3186 19.7203C11.6549 20.047 12.3424 20.0257 12.7042 19.6873L17.4759 15.1894C18.1882 14.5357 18.1882 13.3774 17.4759 12.7238L12.7042 8.22797C12.303 7.84805 11.7028 7.84266 11.3367 8.19282C10.9291 8.57063 10.9174 9.22406 11.3111 9.59437L15.9525 13.9448L11.3111 18.3188C10.9312 18.6848 10.911 19.3127 11.3186 19.7203Z" fill="black"/>
</svg>
