<svg width="28" height="28" viewBox="0 0 28 28" fill="none" xmlns="http://www.w3.org/2000/svg">
<path d="M14.105 26.21C20.7369 26.21 26.2121 20.7273 26.2121 14.105C26.2121 7.47312 20.7273 2 14.0954 2C7.47523 2 2 7.47312 2 14.105C2 20.7273 7.48484 26.21 14.105 26.21ZM14.105 23.8255C8.71085 23.8255 4.39412 19.4991 4.39412 14.105C4.39412 8.71085 8.70124 4.38452 14.0954 4.38452C19.4895 4.38452 23.8276 8.71085 23.8276 14.105C23.8276 19.4991 19.4991 23.8255 14.105 23.8255Z" fill="black"/>
<path d="M9.01953 17.6171C9.01953 18.3399 9.41211 18.7995 10.0752 18.7878C10.7403 18.7782 11.1329 18.3399 11.1329 17.6171V14.6504C11.1329 13.7042 11.5937 13.2605 12.4812 13.2605H15.35V15.073C15.35 15.8684 16.2265 16.2221 16.8879 15.6481L19.7656 13.1211C20.4539 12.5223 20.4518 11.8758 19.7656 11.2791L16.8879 8.76382C16.2286 8.18023 15.35 8.5414 15.35 9.32726V11.1397H12.2541C10.0841 11.1397 9.01953 12.2063 9.01953 14.3562V17.6171Z" fill="black"/>
</svg>
