<svg width="28" height="28" viewBox="0 0 28 28" fill="none" xmlns="http://www.w3.org/2000/svg">
<path d="M23.1954 4.43765C21.9874 3.23179 20.3147 3 18.1821 3H9.40827C7.30453 3 5.62968 3.23179 4.42383 4.43765C3.22008 5.6414 3 7.2982 3 9.39866V18.1821C3 20.3189 3.22008 21.9703 4.42383 23.1719C5.63179 24.3778 7.30453 24.6096 9.42749 24.6096H18.1821C20.3147 24.6096 21.9895 24.3778 23.1954 23.1719C24.3991 21.9682 24.6192 20.3189 24.6192 18.1821V9.42749C24.6192 7.28859 24.3991 5.62968 23.1954 4.43765Z" fill="black"/>
<path d="M13.8211 7.56445C14.4551 7.56445 14.9124 8.00273 14.9124 8.62616V14.3468L14.8017 16.8722L15.9087 15.4833L17.2571 14.0777C17.438 13.8649 17.7049 13.7618 17.9944 13.7618C18.5742 13.7618 19.0053 14.1769 19.0053 14.7462C19.0053 15.0462 18.9127 15.2782 18.7128 15.4866L14.6899 19.5492C14.426 19.8258 14.1678 19.9641 13.8211 19.9641C13.4937 19.9641 13.245 19.8354 12.9694 19.5492L8.94875 15.4866C8.73711 15.2782 8.65625 15.0462 8.65625 14.7462C8.65625 14.1769 9.07554 13.7618 9.65538 13.7618C9.94905 13.7618 10.2139 13.8745 10.3927 14.0777L11.7549 15.4959L12.8502 16.8626L12.7395 14.3468V8.62616C12.7395 8.00273 13.1968 7.56445 13.8211 7.56445Z" fill="white"/>
</svg>
