<svg width="28" height="30" viewBox="0 0 28 30" fill="none" xmlns="http://www.w3.org/2000/svg">
<path d="M13.6043 12.2142C14.3593 12.2142 14.8836 11.6911 14.8836 10.9118V6.13522L14.8006 3.86763L17.6318 6.92671C17.8648 7.19366 18.1723 7.30615 18.5358 7.30615C19.2399 7.30615 19.76 6.7828 19.76 6.0778C19.76 5.73421 19.6132 5.41851 19.3409 5.14289L14.5582 0.410623C14.3018 0.148827 13.9615 0 13.6043 0C13.2397 0 12.909 0.148827 12.6504 0.410623L7.8699 5.14289C7.59756 5.41851 7.44874 5.73421 7.44874 6.0778C7.44874 6.7828 7.97092 7.30615 8.67287 7.30615C9.03638 7.30615 9.34388 7.19366 9.57895 6.92671L12.4102 3.86763L12.3176 6.13522V10.9118C12.3176 11.6911 12.8494 12.2142 13.6043 12.2142ZM2 14.6573C2 15.3785 2.52312 15.9154 3.2464 15.9154H23.9644C24.676 15.9154 25.2012 15.3785 25.2012 14.6573C25.2012 13.9383 24.676 13.3917 23.9644 13.3917H3.2464C2.52312 13.3917 2 13.9383 2 14.6573ZM13.6043 17.0929C12.8494 17.0929 12.3176 17.6161 12.3176 18.3953V23.1815L12.4102 25.4395L9.57895 22.3804C9.34388 22.1231 9.03638 22.001 8.67287 22.001C7.97092 22.001 7.44874 22.5243 7.44874 23.2293C7.44874 23.5729 7.59756 23.8982 7.8699 24.1717L12.6504 28.8965C12.909 29.1583 13.2397 29.3167 13.6043 29.3167C13.9615 29.3167 14.3018 29.1583 14.5582 28.8965L19.3409 24.1717C19.6132 23.8982 19.76 23.5729 19.76 23.2293C19.76 22.5243 19.2399 22.001 18.5358 22.001C18.1723 22.001 17.8648 22.1231 17.6318 22.3804L14.8006 25.4395L14.8836 23.1815V18.3953C14.8836 17.6161 14.3593 17.0929 13.6043 17.0929Z" fill="black"/>
</svg>
