<svg width="28" height="28" viewBox="0 0 28 28" fill="none" xmlns="http://www.w3.org/2000/svg">
<path d="M23.0745 24.3618C23.3327 24.6158 23.6592 24.7562 24.0281 24.7562C24.7936 24.7562 25.3973 24.1621 25.3973 23.403C25.3973 23.0298 25.2347 22.6844 24.9776 22.4198L16.1552 13.7997V14.946L24.9776 6.34396C25.2368 6.07725 25.3973 5.72428 25.3973 5.36288C25.3973 4.60163 24.7936 4 24.0281 4C23.6571 4 23.3381 4.13828 23.0745 4.39445L13.943 13.3267C13.6296 13.6134 13.4691 13.9738 13.4648 14.3819C13.4648 14.7782 13.6275 15.1215 13.943 15.437L23.0745 24.3618Z" fill="black"/>
<path d="M12.6075 24.3618C12.8658 24.6158 13.1827 24.7562 13.5612 24.7562C14.3266 24.7562 14.9229 24.1621 14.9229 23.403C14.9229 23.0298 14.7698 22.6844 14.5106 22.4198L5.67864 13.7997V14.946L14.5106 6.34396C14.7719 6.07725 14.9229 5.72428 14.9229 5.36288C14.9229 4.60163 14.3266 4 13.5612 4C13.1805 4 12.8637 4.13828 12.6075 4.39445L3.47601 13.3267C3.16476 13.6134 3.00211 13.9738 3 14.3819C3 14.7782 3.15304 15.1215 3.4664 15.437L12.6075 24.3618Z" fill="black"/>
</svg>
