<svg width="28" height="28" viewBox="0 0 28 28" fill="none" xmlns="http://www.w3.org/2000/svg">
<path d="M14.105 26.21C20.7369 26.21 26.2121 20.7273 26.2121 14.105C26.2121 7.47312 20.7273 2 14.0954 2C7.47523 2 2 7.47312 2 14.105C2 20.7273 7.48484 26.21 14.105 26.21ZM14.105 23.8255C8.71085 23.8255 4.39412 19.4991 4.39412 14.105C4.39412 8.71085 8.70124 4.38452 14.0954 4.38452C19.4895 4.38452 23.8276 8.71085 23.8276 14.105C23.8276 19.4991 19.4991 23.8255 14.105 23.8255Z" fill="black"/>
<path d="M13.0739 19.1314C13.5422 19.1314 13.8945 18.7791 13.8945 18.313V16.0613H14.0546C16.3381 16.0613 17.7479 16.7204 18.7301 18.5677C18.976 19.0041 19.2657 19.1082 19.5816 19.1082C19.992 19.1082 20.3349 18.7245 20.3349 17.9797C20.3349 13.4696 18.3469 10.7175 14.0546 10.7175H13.8945V8.47669C13.8945 8.01052 13.5422 7.62732 13.0643 7.62732C12.7428 7.62732 12.5203 7.77005 12.1732 8.09161L7.25484 12.6638C7.02047 12.8865 6.92578 13.1494 6.92578 13.3794C6.92578 13.6051 7.01836 13.8765 7.25484 14.097L12.1732 18.698C12.4873 18.9866 12.746 19.1314 13.0739 19.1314Z" fill="black"/>
</svg>
