<svg width="28" height="28" viewBox="0 0 28 28" fill="none" xmlns="http://www.w3.org/2000/svg">
<path d="M26.485 13.898C26.485 13.4531 26.3212 12.9731 25.8557 12.5332L16.578 3.88476C15.9041 3.25453 15.4689 3 14.8483 3C13.9246 3 13.2522 3.72258 13.2522 4.6153V8.8193H4.1132C2.14773 8.8193 1 9.94781 1 11.8866V15.9401C1 17.8767 2.14773 19.0052 4.1132 19.0052H13.2522V23.2308C13.2522 24.1235 13.9246 24.7959 14.8291 24.7959C15.4602 24.7959 15.9648 24.5426 16.578 23.9709L25.8536 15.2552C26.3073 14.8249 26.485 14.3248 26.485 13.898ZM23.9179 13.898C23.9179 13.9662 23.8945 14.0248 23.8028 14.1164L15.7574 21.7132C15.6988 21.7814 15.6306 21.8166 15.5624 21.8166C15.4645 21.8166 15.3878 21.7399 15.3878 21.6281V17.2891C15.3878 17.0217 15.2727 16.9066 15.0053 16.9066H4.23155C3.50686 16.9066 3.09858 16.5047 3.09858 15.7641V12.0583C3.09858 11.3177 3.50686 10.92 4.23155 10.92H15.0053C15.2727 10.92 15.3878 10.8028 15.3878 10.5375V6.08131C15.3878 5.97912 15.4645 5.9067 15.572 5.9067C15.6402 5.9067 15.7084 5.94725 15.767 5.99412L23.8028 13.6795C23.8849 13.7616 23.9179 13.8277 23.9179 13.898Z" fill="black"/>
</svg>
