<svg width="30" height="28" viewBox="0 0 30 28" fill="none" xmlns="http://www.w3.org/2000/svg">
<path d="M0.269502 14.1233C-0.246589 14.8416 -0.0124494 15.5087 0.894579 15.5087H2.55184C3.23528 21.4524 8.39668 26.21 14.5823 26.21C18.0384 26.21 21.1715 24.6887 23.3388 22.3325C23.8926 21.7695 23.8615 21.027 23.3939 20.6061C22.9179 20.1725 22.233 20.1884 21.6745 20.7233C19.9319 22.6311 17.4033 23.8255 14.5823 23.8255C9.6248 23.8255 5.61651 20.188 4.97034 15.5087H6.73331C7.6244 15.5087 7.86487 14.8437 7.35628 14.1329L4.56254 10.1984C4.14324 9.60454 3.49426 9.59915 3.06746 10.1984L0.269502 14.1233ZM5.83542 5.87751C5.27199 6.44048 5.30527 7.17336 5.78035 7.59219C6.25847 8.02789 6.93159 8.02155 7.49971 7.48672C9.2519 5.59061 11.7806 4.38452 14.5823 4.38452C19.5302 4.38452 23.5406 8.02202 24.1964 12.7109H22.4229C21.5297 12.7109 21.2892 13.3662 21.7978 14.0867L24.5936 18.0212C25.0129 18.6151 25.6619 18.6205 26.0887 18.0212L28.8771 14.0963C29.4007 13.3684 29.159 12.7109 28.252 12.7109H26.6149C25.9197 6.76719 20.77 2 14.5823 2C11.1262 2 8.0048 3.51172 5.83542 5.87751Z" fill="black"/>
<path d="M14.1332 19.7701H15.0583C15.4183 19.7701 15.6963 19.5507 15.7783 19.1853L16.031 18.1353C16.1664 18.1023 16.3307 18.0425 16.4641 17.9689L17.3798 18.5232C17.6887 18.7149 18.022 18.7086 18.2957 18.4348L18.9384 17.7826C19.1812 17.5205 19.2143 17.1852 19.0129 16.857L18.4607 15.9413C18.5536 15.808 18.5845 15.6842 18.6368 15.5412L19.6868 15.2961C20.0447 15.2023 20.2832 14.9265 20.2832 14.5665V13.6531C20.2832 13.3027 20.035 13.0323 19.6868 12.9502L18.6581 12.6976C18.5887 12.5258 18.5247 12.3999 18.4821 12.2879L19.046 11.3487C19.2377 11.0398 19.2025 10.666 18.9597 10.4328L18.2915 9.79014C18.0433 9.54194 17.695 9.48124 17.4054 9.67085L16.4641 10.2465C16.3115 10.1654 16.1664 10.1248 16.0331 10.0822L15.7783 9.01085C15.6942 8.66256 15.4183 8.43358 15.0583 8.43358H14.1332C13.7711 8.43358 13.4878 8.68178 13.4036 9.01296L13.1681 10.0608C12.9942 10.1206 12.8587 10.1654 12.7061 10.2465L11.7841 9.67085C11.5082 9.49296 11.1482 9.54194 10.8883 9.79014L10.2489 10.4328C10.0061 10.6831 9.93469 11.0377 10.1243 11.3487L10.7074 12.2879C10.653 12.3999 10.5932 12.545 10.5314 12.6976L9.49524 12.9502C9.14485 13.0344 8.91797 13.3123 8.91797 13.6531V14.5665C8.91797 14.9265 9.14696 15.2023 9.49524 15.2961L10.5452 15.5412C10.605 15.6842 10.6572 15.808 10.717 15.9413L10.1744 16.8666C9.98485 17.1852 10.0178 17.5398 10.2607 17.7826L10.8862 18.4348C11.1482 18.7065 11.5007 18.7149 11.8 18.5232L12.7371 17.9689C12.8875 18.0521 13.0326 18.1023 13.1681 18.1353L13.4036 19.1853C13.4878 19.5315 13.7711 19.7701 14.1332 19.7701ZM14.5947 15.8989C13.5949 15.8989 12.8104 15.1027 12.8104 14.1125C12.8104 13.1319 13.5949 12.3165 14.5947 12.3069C15.5657 12.2973 16.3929 13.1319 16.3929 14.1125C16.3929 15.1027 15.5657 15.8989 14.5947 15.8989Z" fill="black"/>
</svg>
