<svg width="28" height="28" viewBox="0 0 28 28" fill="none" xmlns="http://www.w3.org/2000/svg">
<path d="M5 9.56141L5.0075 21.3294C5.0075 22.1344 5.53812 22.6864 6.37624 22.6864H18.1463C18.9249 22.6864 19.4778 22.1014 19.4778 21.4123C19.4778 20.7296 18.879 20.1648 18.1805 20.1648H14.0075L8.9595 20.3375L11.0907 18.4515L22.2505 7.27999C22.5162 7.01211 22.6651 6.6718 22.6651 6.35609C22.6651 5.67758 22.0398 5.03094 21.3399 5.03094C21.0146 5.03094 20.6935 5.17016 20.416 5.43594L9.24451 16.6149L7.34889 18.7461L7.54084 13.8999V9.52508C7.54084 8.81704 6.98022 8.22033 6.28366 8.22033C5.585 8.22033 5 8.79454 5 9.56141Z" fill="black"/>
</svg>
