<svg width="28" height="28" viewBox="0 0 28 28" fill="none" xmlns="http://www.w3.org/2000/svg">
<path d="M14.105 26.21C20.7369 26.21 26.2121 20.7273 26.2121 14.105C26.2121 7.47312 20.7273 2 14.0954 2C7.47523 2 2 7.47312 2 14.105C2 20.7273 7.48484 26.21 14.105 26.21Z" fill="black"/>
<path d="M7.68142 15.0842C6.58876 15.0842 6.36916 13.8685 7.29774 13.4345L18.3279 8.23978C19.3362 7.77126 20.2132 8.64618 19.7543 9.64696L14.5981 20.6963C14.1757 21.6132 12.9366 21.4149 12.9366 20.3009V15.4953C12.9366 15.2546 12.7779 15.0938 12.5372 15.0938L7.68142 15.0842Z" fill="white"/>
</svg>
