<svg width="28" height="28" viewBox="0 0 28 28" fill="none" xmlns="http://www.w3.org/2000/svg">
<path d="M14.0705 3C13.3156 3 12.7913 3.52523 12.7913 4.29491V18.8531L12.9317 22.6723L13.7019 22.2881L9.79131 17.9274L7.1342 15.3024C6.91202 15.0706 6.58858 14.9325 6.22507 14.9325C5.5189 14.9325 5 15.4601 5 16.1735C5 16.5159 5.13289 16.8232 5.39984 17.0998L13.1166 24.8379C13.3709 25.1039 13.7164 25.2464 14.0705 25.2464C14.4247 25.2464 14.768 25.1039 15.0244 24.8379L22.7508 17.0998C23.0199 16.8232 23.1432 16.5159 23.1432 16.1735C23.1432 15.4601 22.6243 14.9325 21.9181 14.9325C21.5546 14.9325 21.2387 15.0706 21.009 15.3024L18.3477 17.9274L14.4296 22.2881L15.2072 22.6723L15.3476 18.8531V4.29491C15.3476 3.52523 14.8255 3 14.0705 3Z" fill="black"/>
</svg>
