<svg width="28" height="28" viewBox="0 0 28 28" fill="none" xmlns="http://www.w3.org/2000/svg">
<path d="M14.105 26.2301C20.7369 26.2301 26.2121 20.7549 26.2121 14.123C26.2121 7.50291 20.7273 2.01807 14.0954 2.01807C7.47523 2.01807 2 7.50291 2 14.123C2 20.7549 7.48484 26.2301 14.105 26.2301Z" fill="black"/>
<path d="M11.4413 19.0794C11.1198 19.0794 10.8866 18.9345 10.5575 18.6406L5.69398 14.0902C5.45961 13.858 5.38086 13.6142 5.38086 13.3927C5.38086 13.1457 5.45961 12.9158 5.69188 12.6877L10.5575 8.15869C10.9004 7.83924 11.1186 7.69861 11.4296 7.69861C11.8845 7.69861 12.1859 7.96721 12.2218 8.26228V8.50463L8.33773 12.0648C7.93508 12.4248 7.72109 12.9029 7.72109 13.3927C7.72109 13.8847 7.94469 14.3553 8.33773 14.7153L12.2218 18.2926V18.5349C12.1859 18.8183 11.8845 19.0794 11.4413 19.0794ZM14.69 19.0794C14.3898 19.0794 14.1235 18.9366 13.8019 18.6406L8.95015 14.0902C8.71039 13.8526 8.6232 13.6142 8.6232 13.3927C8.6232 13.1457 8.70406 12.9275 8.95015 12.6877L13.8019 8.15869C14.1469 7.84135 14.3726 7.69861 14.6783 7.69861C15.1456 7.69861 15.4958 8.0872 15.4958 8.53322V10.7689H15.658C19.9102 10.7689 21.875 13.4818 21.875 17.9551C21.875 18.6713 21.5769 19.0562 21.1578 19.0562C20.8365 19.0562 20.5351 18.9488 20.3073 18.5262C19.3527 16.6894 17.9321 16.043 15.658 16.043H15.4958V18.264C15.4958 18.7409 15.1456 19.0794 14.69 19.0794Z" fill="white"/>
</svg>
