<svg width="28" height="28" viewBox="0 0 28 28" fill="none" xmlns="http://www.w3.org/2000/svg">
<path d="M14.105 26.21C20.7369 26.21 26.2121 20.7273 26.2121 14.105C26.2121 7.47312 20.7273 2 14.0954 2C7.47523 2 2 7.47312 2 14.105C2 20.7273 7.48484 26.21 14.105 26.21Z" fill="black"/>
<path d="M8.79459 14.0033C8.27404 14.0033 7.85357 13.5849 7.85357 13.0623C7.85357 12.5513 8.27404 12.1447 8.79459 12.1447H9.31092L10.9959 12.2809L7.97216 9.41256C7.57209 9.01554 7.5592 8.36749 7.96255 7.97163C8.35841 7.57039 9.00646 7.56617 9.39177 7.98124L12.2931 11.0166L12.1548 9.28789V8.76734C12.1548 8.24257 12.5657 7.83593 13.0745 7.83593C13.595 7.83593 14.0155 8.24257 14.0155 8.76734V12.8584C14.0155 13.6545 13.5983 14.0033 12.8685 14.0033H8.79459ZM15.1344 20.3602C14.6139 20.3602 14.1934 19.9515 14.1934 19.4288V15.3282C14.1934 14.5395 14.6106 14.1908 15.3404 14.1908H19.4143C19.9349 14.1908 20.3553 14.6016 20.3553 15.1318C20.3553 15.6427 19.9349 16.0515 19.4143 16.0515H18.898L17.2131 15.9132L20.2367 18.7836C20.6368 19.1689 20.6497 19.8266 20.2464 20.2224C19.8505 20.6258 19.2025 20.63 18.8171 20.2128L15.9158 17.1795L16.0541 18.9062V19.4288C16.0541 19.9515 15.6432 20.3602 15.1344 20.3602Z" fill="white"/>
</svg>
