<svg width="28" height="28" viewBox="0 0 28 28" fill="none" xmlns="http://www.w3.org/2000/svg">
<path d="M23.7595 23.772C24.5578 23.772 24.9087 23.2006 25.0205 22.6252C25.1034 22.1661 25.129 21.5549 25.129 20.8773C25.129 15.3552 22.8504 12.8544 17.4169 12.8544H9.64943L6.85216 13.0142L10.35 9.83515L12.9558 7.19515C13.1876 6.96336 13.3256 6.64953 13.3256 6.28391C13.3256 5.57985 12.798 5.06094 12.0719 5.06094C11.7422 5.06094 11.4253 5.18422 11.1295 5.48L3.42023 13.1797C3.15422 13.434 3 13.7891 3 14.1336C3 14.4877 3.15422 14.8311 3.42023 15.0971L11.1488 22.8118C11.4349 23.0787 11.7422 23.2116 12.0719 23.2116C12.798 23.2116 13.3256 22.6927 13.3256 21.9887C13.3256 21.623 13.1876 21.2996 12.9558 21.0678L10.35 18.4299L6.84255 15.2508L9.64943 15.4203H17.2544C21.1524 15.4203 22.5396 17.019 22.5396 20.9574C22.5396 21.5968 22.5056 22.0595 22.5056 22.5012C22.5056 23.2616 23.0152 23.772 23.7595 23.772Z" fill="black"/>
</svg>
