<svg width="28" height="28" viewBox="0 0 28 28" fill="none" xmlns="http://www.w3.org/2000/svg">
<path d="M6.84421 24.8972H21.0295C23.5685 24.8972 24.8737 23.5919 24.8737 21.0914V6.82921C24.8737 4.32656 23.5685 3.02344 21.0295 3.02344H6.84421C4.31484 3.02344 3 4.31695 3 6.82921V21.0914C3 23.6016 4.31484 24.8972 6.84421 24.8972Z" fill="black"/>
<path d="M7.74835 14.9337C6.6557 14.9337 6.44781 13.7084 7.36679 13.2839L18.3949 8.07956C19.4053 7.61105 20.2823 8.49557 19.8213 9.49635L14.665 20.5362C14.2427 21.4627 13.0153 21.2644 13.0153 20.1408L13.0057 15.3448C13.0057 15.1041 12.8448 14.9337 12.6137 14.9337H7.74835Z" fill="white"/>
</svg>
