<svg width="28" height="28" viewBox="0 0 28 28" fill="none" xmlns="http://www.w3.org/2000/svg">
<path d="M20.6989 25.2485C21.3765 25.2485 21.9664 25.2326 22.4373 25.1496C22.9913 25.0357 23.5841 24.6773 23.5841 23.8983C23.5841 23.1539 23.0544 22.6828 22.3133 22.6828C21.8715 22.6828 21.4184 22.7189 20.7791 22.7189C16.9986 22.7189 15.3305 21.4085 15.3401 17.5608L15.3519 10.0155L15.2497 6.95247L17.3677 9.29646L21.009 12.9462C21.2387 13.178 21.5546 13.316 21.9181 13.316C22.6243 13.316 23.1432 12.7884 23.1432 12.0623C23.1432 11.7326 23.0199 11.4253 22.7508 11.1488L15.0265 3.41062C14.7701 3.14461 14.4268 3 14.0726 3C13.7185 3 13.373 3.14461 13.1187 3.41062L5.39984 11.1488C5.13289 11.4253 5 11.7326 5 12.0623C5 12.7884 5.5189 13.316 6.22507 13.316C6.58858 13.316 6.91202 13.178 7.1342 12.9462L10.7776 9.29646L12.8839 6.96208L12.7934 10.0155V17.7232C12.7934 23.0585 15.3924 25.2485 20.6989 25.2485Z" fill="black"/>
</svg>
