<svg width="28" height="28" viewBox="0 0 28 28" fill="none" xmlns="http://www.w3.org/2000/svg">
<path d="M6.84421 24.8972H21.0295C23.5685 24.8972 24.8737 23.5919 24.8737 21.0914V6.82921C24.8737 4.32656 23.5685 3.02344 21.0295 3.02344H6.84421C4.31484 3.02344 3 4.31695 3 6.82921V21.0914C3 23.6016 4.31484 24.8972 6.84421 24.8972Z" fill="black"/>
<path d="M9.66359 8.306C10.0203 7.94295 10.558 7.96639 10.8955 8.306L13.8456 11.3327C13.9946 11.4818 14.1085 11.7129 14.1085 11.9269C14.1085 12.4113 13.7593 12.7563 13.2845 12.7563C13.0609 12.7563 12.8511 12.6743 12.6999 12.521L11.4767 11.2392L11.0998 10.8314L11.1287 11.4309V19.0376C11.1287 19.5007 10.7698 19.852 10.2758 19.852C9.80516 19.852 9.44961 19.5007 9.44961 19.0376V11.4405L9.45922 10.8314L9.08234 11.2392L7.85914 12.5018C7.70797 12.6647 7.50031 12.7563 7.28633 12.7563C6.80187 12.7563 6.44727 12.4017 6.44727 11.9269C6.44727 11.7321 6.56445 11.5031 6.70391 11.3327L9.66359 8.306ZM18.2816 19.5966C17.9441 19.9383 17.368 19.9362 17.0422 19.5966L14.0921 16.5794C13.9313 16.3994 13.8409 16.178 13.8409 15.9757C13.8409 15.4912 14.1688 15.1537 14.6511 15.1537C14.8843 15.1537 15.0866 15.2283 15.2452 15.4008L16.4685 16.6516L16.8378 17.0712L16.8186 16.4813V8.86287C16.8186 8.39225 17.1774 8.04092 17.6619 8.04092C18.1325 8.04092 18.4956 8.39225 18.4956 8.86287V16.4716L18.4763 17.0616L18.8553 16.6516L20.0785 15.4008C20.2276 15.2475 20.4374 15.1537 20.661 15.1537C21.1529 15.1537 21.4904 15.4912 21.4904 15.9757C21.4904 16.1897 21.3732 16.4091 21.2263 16.5794L18.2816 19.5966Z" fill="white"/>
</svg>
