<svg width="28" height="28" viewBox="0 0 28 28" fill="none" xmlns="http://www.w3.org/2000/svg">
<path d="M6.84421 24.8972H21.0295C23.5685 24.8972 24.8737 23.5919 24.8737 21.0914V6.82921C24.8737 4.32656 23.5685 3.02344 21.0295 3.02344H6.84421C4.31484 3.02344 3 4.31695 3 6.82921V21.0914C3 23.6016 4.31484 24.8972 6.84421 24.8972ZM6.97733 22.6013C5.88772 22.6013 5.29592 22.0371 5.29592 20.8985V7.01999C5.29592 5.88139 5.88772 5.31936 6.97733 5.31936H20.8964C21.9764 5.31936 22.5778 5.88139 22.5778 7.01999V20.8985C22.5778 22.0371 21.9764 22.6013 20.8964 22.6013H6.97733Z" fill="black"/>
<path d="M20.0017 13.9373C20.0017 13.6184 19.8772 13.376 19.6112 13.1163L15.6376 9.18467C15.4452 8.99858 15.2195 8.91022 14.9354 8.91022C14.3959 8.91022 13.9989 9.31358 13.9989 9.86155C13.9989 10.1468 14.1212 10.3936 14.2989 10.5724L15.7164 11.9369L17.0425 13.0087L14.6352 12.9002H8.88288C8.30093 12.9002 7.88281 13.3373 7.88281 13.9373C7.88281 14.5277 8.30093 14.9648 8.88288 14.9648H14.6352L17.0446 14.8659L15.7269 15.9356L14.2989 17.3023C14.1095 17.4694 13.9989 17.7162 13.9989 18.0035C13.9989 18.5536 14.3959 18.9666 14.9354 18.9666C15.2195 18.9666 15.4452 18.8665 15.6376 18.6804L19.6112 14.7583C19.8676 14.5179 20.0017 14.2563 20.0017 13.9373Z" fill="black"/>
</svg>
