<svg width="37" height="28" viewBox="0 0 37 28" fill="none" xmlns="http://www.w3.org/2000/svg">
<path d="M15.2093 13.9999C15.2093 13.2354 14.684 12.7132 13.9144 12.7132H6.30185L4.02677 12.8184L7.64506 9.29742C7.88858 9.0539 8.02662 8.73258 8.02662 8.37868C8.02662 7.6629 7.49694 7.144 6.76335 7.144C6.43359 7.144 6.10499 7.27478 5.82843 7.55556L0.420232 13.0364C0.168046 13.3045 0 13.6352 0 13.9999C0 14.3571 0.168046 14.6974 0.420232 14.9538L5.82843 20.4368C6.10499 20.7176 6.43359 20.8483 6.76335 20.8483C7.49694 20.8483 8.02662 20.3294 8.02662 19.6137C8.02662 19.2501 7.88858 18.9384 7.64506 18.6949L4.02677 15.1835L6.30185 15.2791H13.9144C14.684 15.2791 15.2093 14.7548 15.2093 13.9999ZM18.4329 25.3638C19.1519 25.3638 19.6889 24.829 19.6889 24.1078V4.23679C19.6889 3.52312 19.1519 3 18.4329 3C17.7117 3 17.1672 3.52312 17.1672 4.23679V24.1078C17.1672 24.829 17.7117 25.3638 18.4329 25.3638ZM21.6565 13.9999C21.6565 14.7548 22.1796 15.2791 22.9493 15.2791H30.5543L32.839 15.1835L29.2186 18.6949C28.975 18.9384 28.8391 19.2501 28.8391 19.6137C28.8391 20.3294 29.3667 20.8483 30.0928 20.8483C30.4321 20.8483 30.7607 20.7176 31.0352 20.4368L36.4455 14.9538C36.6977 14.6974 36.8657 14.3571 36.8657 13.9999C36.8657 13.6352 36.6977 13.3045 36.4455 13.0364L31.0352 7.55556C30.7607 7.27478 30.4321 7.144 30.0928 7.144C29.3667 7.144 28.8391 7.6629 28.8391 8.37868C28.8391 8.73258 28.975 9.0539 29.2186 9.29742L32.839 12.8184L30.5543 12.7132H22.9493C22.1796 12.7132 21.6565 13.2354 21.6565 13.9999Z" fill="black"/>
</svg>
