<svg width="28" height="28" viewBox="0 0 28 28" fill="none" xmlns="http://www.w3.org/2000/svg">
<path d="M14.105 26.21C20.7369 26.21 26.2121 20.7273 26.2121 14.105C26.2121 7.47312 20.7273 2 14.0954 2C7.47523 2 2 7.47312 2 14.105C2 20.7273 7.48484 26.21 14.105 26.21ZM14.105 23.8255C8.71085 23.8255 4.39412 19.4991 4.39412 14.105C4.39412 8.71085 8.70124 4.38452 14.0954 4.38452C19.4895 4.38452 23.8276 8.71085 23.8276 14.105C23.8276 19.4991 19.4991 23.8255 14.105 23.8255Z" fill="black"/>
<path d="M19.2925 14.6356C19.2925 11.833 17.0392 9.59866 14.4784 9.52695C14.3793 9.52484 14.2567 9.54195 14.181 9.53984L14.8802 8.82475C14.9974 8.68741 15.0942 8.49452 15.0942 8.26577C15.0942 7.83124 14.7651 7.46726 14.2863 7.46726C14.0479 7.46726 13.8414 7.57999 13.686 7.73327L11.4972 9.95515C11.2002 10.2617 11.1885 10.8291 11.4993 11.1399L13.7095 13.3501C13.8489 13.4841 14.0692 13.5842 14.2778 13.5842C14.7398 13.5842 15.0899 13.2573 15.0899 12.7901C15.0899 12.5717 15.0163 12.3938 14.8884 12.2457L13.9352 11.3054C14.0502 11.2967 14.1899 11.2955 14.3275 11.2998C16.1238 11.3441 17.5277 12.8356 17.5277 14.6666C17.5277 16.5788 16.012 18.1063 14.0955 18.1063C12.1928 18.1063 10.6654 16.5734 10.6654 14.6666C10.6654 14.1887 10.2705 13.7937 9.78086 13.7937C9.30508 13.7937 8.89844 14.1887 8.89844 14.6666C8.89844 17.5421 11.222 19.8753 14.0955 19.8753C16.971 19.8753 19.2925 17.5421 19.2925 14.6356Z" fill="black"/>
</svg>
