<svg width="28" height="28" viewBox="0 0 28 28" fill="none" xmlns="http://www.w3.org/2000/svg">
<path d="M9.06179 25.0134C9.82538 25.0134 10.3241 24.4945 10.3241 23.7691C10.3241 23.3864 10.1765 23.111 9.95218 22.8792L6.93037 19.9406L4.00631 17.4668L3.64139 18.1387L7.58005 18.3176H22.2264C25.1509 18.3176 26.3973 16.9983 26.3973 14.1178V7.17093C26.3973 4.2464 25.1509 3 22.2264 3H15.723C14.9519 3 14.4182 3.57421 14.4182 4.27921C14.4182 4.9842 14.9519 5.55842 15.723 5.55842H22.1715C23.3568 5.55842 23.8546 6.06584 23.8546 7.25108V14.0398C23.8546 15.2517 23.3568 15.7612 22.1715 15.7612H7.58005L3.64139 15.9305L4.00631 16.6024L6.93037 14.1382L9.95218 11.2017C10.1765 10.9699 10.3241 10.6849 10.3241 10.3022C10.3241 9.58639 9.82538 9.05788 9.06179 9.05788C8.75031 9.05788 8.39289 9.20999 8.14516 9.45983L1.40851 16.0844C1.1425 16.3408 1 16.6863 1 17.0383C1 17.3829 1.1425 17.7379 1.40851 17.9922L8.14516 24.6211C8.39289 24.8709 8.75031 25.0134 9.06179 25.0134Z" fill="black"/>
</svg>
