<svg width="28" height="28" viewBox="0 0 28 28" fill="none" xmlns="http://www.w3.org/2000/svg">
<path d="M22.6651 9.56141C22.6651 8.79454 22.0705 8.22033 21.3814 8.22033C20.687 8.22033 20.1263 8.81704 20.1263 9.52508V13.8999L20.3183 18.7461L18.4205 16.6149L7.23944 5.43594C6.97155 5.17016 6.65257 5.03094 6.31554 5.03094C5.61781 5.03094 5 5.67758 5 6.35609C5 6.6718 5.15094 7.01211 5.41461 7.27999L16.5744 18.4515L18.7077 20.3375L13.6576 20.1648H9.48452C8.7882 20.1648 8.18727 20.7296 8.18727 21.4123C8.18727 22.1014 8.74016 22.6864 9.52085 22.6864H21.2888C22.1269 22.6864 22.6576 22.1344 22.6576 21.3294L22.6651 9.56141Z" fill="black"/>
</svg>
