<svg width="28" height="28" viewBox="0 0 28 28" fill="none" xmlns="http://www.w3.org/2000/svg">
<path d="M6.84421 24.8737H21.0295C23.5685 24.8737 24.8737 23.5685 24.8737 21.068V6.80577C24.8737 4.30523 23.5685 3 21.0295 3H6.84421C4.31484 3 3 4.29562 3 6.80577V21.068C3 23.5781 4.31484 24.8737 6.84421 24.8737ZM6.97733 22.5778C5.88772 22.5778 5.29592 22.0158 5.29592 20.8751V6.99866C5.29592 5.86756 5.88772 5.29592 6.97733 5.29592H20.8964C21.9764 5.29592 22.5778 5.86756 22.5778 6.99866V20.8751C22.5778 22.0158 21.9764 22.5778 20.8964 22.5778H6.97733Z" fill="black"/>
<path d="M7.88281 15.3131C7.88281 18.1394 9.90077 19.913 12.6502 19.913C12.7719 19.913 14.1781 19.913 14.281 19.913C14.8632 19.913 15.2816 19.5799 15.2816 19.0008C15.2816 18.4259 14.8611 18.0895 14.2981 18.0895C14.207 18.0895 12.7719 18.0895 12.6502 18.0895C10.9587 18.0895 9.75522 16.995 9.75522 15.2341C9.75522 13.5075 10.9918 12.5358 12.6448 12.5358H16.115L17.3776 12.4804L16.7042 12.9738L15.3069 14.2767C15.1163 14.4375 15.028 14.6803 15.028 14.9114C15.028 15.4151 15.4271 15.8175 15.9149 15.8175C16.1694 15.8175 16.3759 15.7312 16.5463 15.5609L19.6836 12.3637C19.887 12.1582 20.0021 11.9133 20.0021 11.6437C20.0021 11.3583 19.8849 11.1079 19.6836 10.9045L16.558 7.74373C16.3855 7.55952 16.1811 7.47327 15.9308 7.47327C15.4313 7.47327 15.0343 7.8703 15.0343 8.37936C15.0343 8.62217 15.1398 8.85537 15.3165 9.00654L16.4961 10.1362L17.3776 10.826L16.115 10.7707H12.6448C9.89327 10.7707 7.88281 12.5069 7.88281 15.3131Z" fill="black"/>
</svg>
