<svg width="28" height="28" viewBox="0 0 28 28" fill="none" xmlns="http://www.w3.org/2000/svg">
<path d="M14.105 26.21C20.7369 26.21 26.2121 20.7273 26.2121 14.105C26.2121 7.47312 20.7273 2 14.0954 2C7.47523 2 2 7.47312 2 14.105C2 20.7273 7.48484 26.21 14.105 26.21ZM14.105 23.8255C8.71085 23.8255 4.39412 19.4991 4.39412 14.105C4.39412 8.71085 8.70124 4.38452 14.0954 4.38452C19.4895 4.38452 23.8276 8.71085 23.8276 14.105C23.8276 19.4991 19.4991 23.8255 14.105 23.8255Z" fill="black"/>
<path d="M21.2836 14.1125C21.2836 13.8008 21.1634 13.5636 20.9197 13.3262L17.6532 10.0892C17.4713 9.89984 17.2414 9.8157 16.9847 9.8157C16.4684 9.8157 16.0904 10.2118 16.0904 10.7344C16.0904 11.008 16.2052 11.2644 16.3967 11.4188L17.1439 12.1426L18.4711 13.2324L16.088 13.1302H12.0825L9.69936 13.2324L11.0362 12.1426L11.7834 11.4188C11.9749 11.2644 12.0898 11.008 12.0898 10.7344C12.0898 10.2118 11.7117 9.8157 11.1954 9.8157C10.9366 9.8157 10.7088 9.89984 10.527 10.0892L7.26046 13.3262C7.01672 13.5636 6.89648 13.8008 6.89648 14.1125C6.89648 14.405 7.01672 14.6305 7.26046 14.8796L10.527 18.1358C10.7088 18.3155 10.9366 18.3997 11.1954 18.3997C11.7117 18.3997 12.0898 18.0036 12.0898 17.4905C12.0898 17.2074 11.9653 16.9606 11.7834 16.7966L11.0362 16.0632L9.70897 14.9926L12.0825 15.0851H16.088L18.4594 14.9926L17.1439 16.0632L16.3967 16.7966C16.2148 16.9606 16.0904 17.2074 16.0904 17.4905C16.0904 18.0036 16.4684 18.3997 16.9847 18.3997C17.2414 18.3997 17.4713 18.3155 17.6532 18.1358L20.9197 14.8796C21.1634 14.6305 21.2836 14.405 21.2836 14.1125Z" fill="black"/>
</svg>
