<svg width="28" height="28" viewBox="0 0 28 28" fill="none" xmlns="http://www.w3.org/2000/svg">
<path d="M14.105 26.21C20.7369 26.21 26.2121 20.7273 26.2121 14.105C26.2121 7.47312 20.7273 2 14.0954 2C7.47523 2 2 7.47312 2 14.105C2 20.7273 7.48484 26.21 14.105 26.21ZM14.105 23.8255C8.71085 23.8255 4.39412 19.4991 4.39412 14.105C4.39412 8.71085 8.70124 4.38452 14.0954 4.38452C19.4895 4.38452 23.8276 8.71085 23.8276 14.105C23.8276 19.4991 19.4991 23.8255 14.105 23.8255Z" fill="black"/>
<path d="M14.1044 20.0171C14.7044 20.0171 15.1415 19.599 15.1415 19.0074V13.4687L15.0351 11.0497L16.1144 12.3875L17.4213 13.7473C17.5905 13.9367 17.8394 14.0473 18.1246 14.0473C18.6726 14.0473 19.0856 13.6407 19.0856 13.1108C19.0856 12.8267 18.9876 12.601 18.7994 12.4065L14.9371 8.48514C14.6849 8.22663 14.4255 8.10217 14.1044 8.10217C13.795 8.10217 13.5452 8.21702 13.2834 8.48514L9.40937 12.4065C9.22328 12.601 9.14453 12.8267 9.14453 13.1108C9.14453 13.6407 9.54788 14.0473 10.0959 14.0473C10.3736 14.0473 10.6225 13.9271 10.7992 13.7473L12.1178 12.3769L13.1758 11.0614L13.0673 13.4687V19.0074C13.0673 19.599 13.5161 20.0171 14.1044 20.0171Z" fill="black"/>
</svg>
