<svg width="28" height="28" viewBox="0 0 28 28" fill="none" xmlns="http://www.w3.org/2000/svg">
<path d="M14.105 26.21C20.7369 26.21 26.2121 20.7273 26.2121 14.105C26.2121 7.47312 20.7273 2 14.0954 2C7.47523 2 2 7.47312 2 14.105C2 20.7273 7.48484 26.21 14.105 26.21ZM14.105 23.8255C8.71085 23.8255 4.39412 19.4991 4.39412 14.105C4.39412 8.71085 8.70124 4.38452 14.0954 4.38452C19.4895 4.38452 23.8276 8.71085 23.8276 14.105C23.8276 19.4991 19.4991 23.8255 14.105 23.8255Z" fill="black"/>
<path d="M14.0859 20.9799C14.5945 20.9799 14.9681 20.6075 14.9681 20.083V15.1976L14.8349 13.2083L16.6591 15.2787L17.4166 16.0533C17.5975 16.2226 17.8232 16.3161 18.07 16.3161C18.5521 16.3161 18.899 15.9425 18.899 15.4552C18.899 15.2178 18.8278 14.9912 18.6234 14.8027L14.7414 10.9149C14.5647 10.7403 14.3306 10.6264 14.0859 10.6264C13.8433 10.6264 13.607 10.7307 13.4303 10.9149L9.56218 14.8123C9.39625 14.9837 9.29406 15.2466 9.29406 15.4552C9.29406 15.9617 9.64093 16.3161 10.1348 16.3161C10.4104 16.3161 10.6052 16.2247 10.7744 16.0533L11.455 15.3172L13.3368 13.1986L13.2037 15.1976V20.083C13.2037 20.6075 13.5581 20.9799 14.0859 20.9799ZM9.81483 9.79999H18.3878C18.887 9.79999 19.2478 9.42757 19.2478 8.94007C19.2478 8.44085 18.887 8.07054 18.3878 8.07054H9.81483C9.31562 8.07054 8.94531 8.44085 8.94531 8.94007C8.94531 9.42757 9.31562 9.79999 9.81483 9.79999Z" fill="black"/>
</svg>
