<svg width="30" height="28" viewBox="0 0 30 28" fill="none" xmlns="http://www.w3.org/2000/svg">
<path d="M3.04851 24.7057H10.136C12.2646 24.7057 13.1845 23.786 13.1845 21.6862V19.2422H16.0191V23.2404C16.0191 24.1331 16.6819 24.8055 17.5863 24.8055C18.2175 24.8055 18.7221 24.5543 19.3352 23.9805L28.6108 15.2669C29.0763 14.8345 29.2422 14.3344 29.2422 13.9076C29.2422 13.4648 29.0784 12.9731 28.6129 12.5428L19.3352 3.89437C18.6614 3.26414 18.2283 3 17.6055 3C16.6819 3 16.0191 3.73218 16.0191 4.62491V8.92922H8.7806C6.6035 8.92922 5.6646 9.87211 5.6646 12.0204V14.2545H3.04851C0.976871 14.2545 0 15.1898 0 17.2179V21.7348C0 23.7797 0.957887 24.7057 3.04851 24.7057ZM3.28194 22.6275C2.576 22.6275 2.22421 22.2415 2.22421 21.4641V17.4907C2.22421 16.7133 2.576 16.3348 3.28194 16.3348H5.74077V16.815C5.74077 17.5425 5.98873 18.0876 6.66397 18.5653L10.9582 21.3478V21.4641C10.9582 22.2415 10.6085 22.6275 9.90257 22.6275H3.28194ZM18.3293 21.8262C18.2217 21.8262 18.1547 21.7495 18.1547 21.6377V17.1954C18.1547 16.928 18.03 16.8129 17.7626 16.8129H9.02669C8.31232 16.8129 7.96052 16.4205 7.96052 15.6368V12.0994C7.96052 11.306 8.31232 10.9212 9.02669 10.9212H17.7626C18.03 10.9212 18.1547 10.8061 18.1547 10.5387V6.09092C18.1547 5.98873 18.2217 5.91631 18.3293 5.91631C18.3975 5.91631 18.4657 5.95686 18.5243 6.00373L26.5601 13.6891C26.6517 13.7712 26.6848 13.8373 26.6848 13.9076C26.6848 13.9758 26.6517 14.0344 26.5601 14.126L18.5243 21.7228C18.4561 21.791 18.3879 21.8262 18.3293 21.8262Z" fill="black"/>
</svg>
