<svg width="28" height="28" viewBox="0 0 28 28" fill="none" xmlns="http://www.w3.org/2000/svg">
<path d="M6.84421 24.8972H21.0295C23.5685 24.8972 24.8737 23.5919 24.8737 21.0914V6.82921C24.8737 4.32656 23.5685 3.02344 21.0295 3.02344H6.84421C4.31484 3.02344 3 4.31695 3 6.82921V21.0914C3 23.6016 4.31484 24.8972 6.84421 24.8972ZM6.97733 22.6013C5.88772 22.6013 5.29592 22.0371 5.29592 20.8985V7.01999C5.29592 5.88139 5.88772 5.31936 6.97733 5.31936H20.8964C21.9764 5.31936 22.5778 5.88139 22.5778 7.01999V20.8985C22.5778 22.0371 21.9764 22.6013 20.8964 22.6013H6.97733Z" fill="black"/>
<path d="M10.285 10.8487C9.70398 10.8487 9.32617 11.2818 9.32617 11.9107V17.366C9.32617 18.1692 9.77499 18.5273 10.5013 18.5273H15.978C16.6132 18.5273 17.0174 18.1516 17.0174 17.5685C17.0174 16.9854 16.6057 16.6097 15.9651 16.6097H13.9863L12.3784 16.7972L14.1222 15.1959L18.2355 11.0901C18.4333 10.8944 18.5653 10.6157 18.5653 10.3413C18.5653 9.72326 18.1314 9.32013 17.5378 9.32013C17.2207 9.32013 16.9697 9.43615 16.7496 9.64451L12.6543 13.7377L11.0723 15.4601L11.2438 13.767V11.8957C11.2438 11.2551 10.8681 10.8487 10.285 10.8487Z" fill="black"/>
</svg>
