<svg width="28" height="28" viewBox="0 0 28 28" fill="none" xmlns="http://www.w3.org/2000/svg">
<path d="M14.105 26.21C20.7369 26.21 26.2121 20.7273 26.2121 14.105C26.2121 7.47312 20.7273 2 14.0954 2C7.47523 2 2 7.47312 2 14.105C2 20.7273 7.48484 26.21 14.105 26.21ZM14.105 23.8255C8.71085 23.8255 4.39412 19.4991 4.39412 14.105C4.39412 8.71085 8.70124 4.38452 14.0954 4.38452C19.4895 4.38452 23.8276 8.71085 23.8276 14.105C23.8276 19.4991 19.4991 23.8255 14.105 23.8255Z" fill="black"/>
<path d="M8.05664 14.0975C8.05664 14.4165 8.19282 14.678 8.4375 14.9185L12.4111 18.8405C12.6035 19.0266 12.8292 19.1267 13.1154 19.1267C13.6528 19.1267 14.0519 18.7137 14.0519 18.1637C14.0519 17.8763 13.9413 17.6295 13.7519 17.4624L12.3335 16.0958L11.0062 15.0261L13.4252 15.125H19.1679C19.7595 15.125 20.1776 14.6879 20.1776 14.0975C20.1776 13.4975 19.7498 13.0604 19.1679 13.0604H13.4252L11.0159 13.1689L12.3419 12.0971L13.7519 10.7326C13.9275 10.5537 14.0519 10.3069 14.0519 10.0217C14.0519 9.47373 13.6528 9.07037 13.1154 9.07037C12.8292 9.07037 12.6035 9.15873 12.4111 9.34482L8.4375 13.2765C8.1736 13.5362 8.05664 13.7785 8.05664 14.0975Z" fill="black"/>
</svg>
