<svg width="28" height="28" viewBox="0 0 28 28" fill="none" xmlns="http://www.w3.org/2000/svg">
<path d="M14.105 26.21C20.7369 26.21 26.2121 20.7273 26.2121 14.105C26.2121 7.47312 20.7273 2 14.0954 2C7.47523 2 2 7.47312 2 14.105C2 20.7273 7.48484 26.21 14.105 26.21Z" fill="black"/>
<path d="M15.4179 17.9616C14.6266 18.804 13.6127 18.8019 12.8215 17.9574L8.16089 12.9976C7.74582 12.5644 7.74582 11.9335 8.11613 11.5482C8.54386 11.1172 9.20151 11.1172 9.58776 11.5311L14.1159 16.3405L18.6419 11.5311C19.0378 11.1172 19.6858 11.1268 20.1232 11.5482C20.5031 11.9239 20.4839 12.5666 20.0784 12.9997L15.4179 17.9616Z" fill="white"/>
</svg>
