<svg width="28" height="28" viewBox="0 0 28 28" fill="none" xmlns="http://www.w3.org/2000/svg">
<path d="M6.84421 24.8737H21.0295C23.5685 24.8737 24.8737 23.5685 24.8737 21.068V6.80577C24.8737 4.30523 23.5685 3 21.0295 3H6.84421C4.31484 3 3 4.29562 3 6.80577V21.068C3 23.5781 4.31484 24.8737 6.84421 24.8737ZM6.97733 22.5778C5.88772 22.5778 5.29592 22.0158 5.29592 20.8751V6.99866C5.29592 5.86756 5.88772 5.29592 6.97733 5.29592H20.8964C21.9764 5.29592 22.5778 5.86756 22.5778 6.99866V20.8751C22.5778 22.0158 21.9764 22.5778 20.8964 22.5778H6.97733Z" fill="black"/>
<path d="M15.1151 7.90218C12.3068 7.90218 10.5727 9.91265 10.5727 12.6738V16.1365L10.6163 17.4066L9.9382 16.5251L8.80852 15.3359C8.65524 15.1687 8.42203 15.0633 8.17172 15.0633C7.67015 15.0633 7.26562 15.4603 7.26562 15.9598C7.26562 16.2101 7.35188 16.4144 7.5361 16.5869L10.7065 19.7126C10.9099 19.9043 11.1602 20.0215 11.434 20.0215C11.7152 20.0215 11.9602 19.9064 12.1636 19.7126L15.3511 16.5752C15.5236 16.4048 15.6099 16.1984 15.6099 15.9438C15.6099 15.4561 15.2171 15.0591 14.7038 15.0591C14.4727 15.0591 14.2395 15.1453 14.0787 15.3262L12.7758 16.7332L12.2728 17.4066L12.3356 16.1365V12.6738C12.3356 11.0208 13.3074 9.7746 15.0361 9.7746C16.797 9.7746 17.8894 10.9877 17.8894 12.6792C17.8894 12.8008 17.8894 14.2359 17.8894 14.3271C17.8894 14.8805 18.2182 15.3105 18.8028 15.3105C19.3819 15.3105 19.7128 14.8826 19.7128 14.31C19.7128 14.2071 19.7128 12.8008 19.7128 12.6792C19.7128 9.92015 17.9318 7.90218 15.1151 7.90218Z" fill="black"/>
</svg>
