<svg width="28" height="28" viewBox="0 0 28 28" fill="none" xmlns="http://www.w3.org/2000/svg">
<path d="M3.25601 23.1432C3.98678 23.1432 4.52162 22.6276 4.52162 21.916V6.25601C4.52162 5.53273 3.98678 5 3.25601 5C2.53695 5 2 5.53273 2 6.25601V21.916C2 22.6276 2.53695 23.1432 3.25601 23.1432ZM13.5849 23.1432C14.3079 23.1432 14.8376 22.6243 14.8376 21.9181C14.8376 21.5642 14.69 21.2387 14.4657 21.009L11.8407 18.3519L7.47988 14.4509L7.09575 15.2115L10.917 15.3615H25.4848C26.2449 15.3615 26.7776 14.8276 26.7776 14.0726C26.7776 13.3177 26.2449 12.7934 25.4848 12.7934H10.917L7.09575 12.9434L7.47988 13.7136L11.8407 9.79342L14.4657 7.14381C14.69 6.91202 14.8376 6.58858 14.8376 6.22507C14.8376 5.52851 14.3079 5 13.5849 5C13.2542 5 12.9469 5.13289 12.6683 5.39984L4.93014 13.1187C4.66623 13.3848 4.51201 13.7281 4.51201 14.0726C4.51201 14.4268 4.66623 14.7701 4.93014 15.0265L12.6683 22.7508C12.9469 23.0199 13.2542 23.1432 13.5849 23.1432Z" fill="black"/>
</svg>
