<svg width="28" height="28" viewBox="0 0 28 28" fill="none" xmlns="http://www.w3.org/2000/svg">
<path d="M8.85968 18.3166C9.41514 18.1762 9.73436 17.642 9.57686 17.0718L8.60303 13.2032C8.48913 12.7806 8.30186 12.4858 7.96765 12.2952C7.63132 12.0909 7.29499 12.0707 6.8607 12.1985L3.03687 13.282C2.44742 13.4437 2.14953 13.998 2.30914 14.5321C2.46125 15.0939 3.01132 15.4248 3.58577 15.2376L6.82507 14.2762L7.60531 17.5602C7.73398 18.1506 8.30538 18.4687 8.85968 18.3166ZM5.39468 24.88H11.3638C12.0179 24.88 12.5019 24.4152 12.5019 23.7803C12.5019 23.1454 12.0179 22.671 11.3638 22.671H5.53296C4.80873 22.671 4.32873 22.0938 4.32873 21.4452C4.32873 21.2406 4.37654 20.987 4.49912 20.7749L8.36093 13.8541L6.44235 12.7394L2.48633 19.7945C2.18609 20.3418 2 20.9116 2 21.498C2 23.3777 3.27805 24.88 5.39468 24.88ZM19.4633 12.2367L21.3692 11.1189L17.2524 3.76025C16.6273 2.63783 15.4995 2.07017 14.3675 2.07017C13.2237 2.07017 12.1055 2.64322 11.4688 3.76025L8.39679 9.24651C8.04781 9.85611 8.22031 10.4697 8.77437 10.7899C9.34014 11.1004 9.99006 10.9174 10.3081 10.3558L13.2999 4.98531C13.5378 4.56718 13.9548 4.39117 14.3633 4.39117C14.7739 4.39117 15.177 4.56929 15.4074 4.98742L19.4633 12.2367ZM19.8762 12.7689C20.3042 12.8828 20.6448 12.8744 20.979 12.6721C21.3153 12.4677 21.5005 12.1963 21.6144 11.762L22.5786 7.89344C22.7361 7.3211 22.4223 6.78275 21.8647 6.64868C21.3104 6.50501 20.7411 6.81673 20.6145 7.40079L19.8364 10.6891L16.5896 9.73189C16.0227 9.55423 15.4641 9.87345 15.3088 10.4395C15.1672 10.9778 15.4609 11.5237 16.0407 11.6854L19.8762 12.7689ZM15.2363 24.88H23.3265C25.4431 24.88 26.7212 23.3777 26.7212 21.498C26.7212 20.9116 26.5468 20.3577 26.2348 19.7945L23.3129 14.5806C22.9948 13.9902 22.3407 13.8414 21.7984 14.1595C21.2485 14.4796 21.0688 15.1422 21.3751 15.6953L24.2124 20.7749C24.335 20.987 24.402 21.2406 24.402 21.4452C24.402 22.0938 23.9028 22.671 23.1786 22.671H15.2363V24.88ZM17.5419 27.5657C17.9537 27.9808 18.5846 27.9574 18.973 27.5552C19.3848 27.1605 19.3805 26.5178 18.9465 26.0976L16.4949 23.7803L18.9444 21.4652C19.3848 21.0428 19.3869 20.396 18.9687 20.0034C18.5783 19.5958 17.9516 19.582 17.5313 20.0097L14.6717 22.7756C14.3534 23.0821 14.2098 23.395 14.2098 23.7803C14.2098 24.1677 14.3534 24.471 14.6717 24.7776L17.5419 27.5657Z" fill="black"/>
</svg>
