<svg width="28" height="28" viewBox="0 0 28 28" fill="none" xmlns="http://www.w3.org/2000/svg">
<path d="M14.4146 3C14.0396 3 13.7239 3.16242 13.3498 3.46851L5.44718 9.85757C5.16781 10.0945 5 10.4313 5 10.8504C5 11.6369 5.61945 12.2079 6.35327 12.2079C6.68913 12.2079 7.01115 12.0762 7.35146 11.8188L14.4146 6.10943L21.4798 11.8188C21.8084 12.0762 22.1401 12.2079 22.4684 12.2079C23.2097 12.2079 23.8292 11.6369 23.8292 10.8504C23.8292 10.4313 23.6635 10.0945 23.382 9.85757L15.4793 3.4589C15.1053 3.16242 14.7821 3 14.4146 3ZM14.4146 24.6154C14.7821 24.6154 15.1053 24.453 15.4793 24.1586L23.382 17.76C23.6635 17.5209 23.8292 17.1841 23.8292 16.7672C23.8292 15.9806 23.2097 15.4001 22.4684 15.4001C22.1401 15.4001 21.8084 15.5393 21.4798 15.7987L14.4146 21.5081L7.35146 15.7987C7.01115 15.5393 6.68913 15.4001 6.35327 15.4001C5.61945 15.4001 5 15.9806 5 16.7672C5 17.1841 5.16781 17.5209 5.44718 17.76L13.3498 24.149C13.7239 24.453 14.0396 24.6154 14.4146 24.6154Z" fill="black"/>
</svg>
