<svg width="28" height="28" viewBox="0 0 28 28" fill="none" xmlns="http://www.w3.org/2000/svg">
<path d="M14.105 26.21C20.7369 26.21 26.2121 20.7273 26.2121 14.105C26.2121 7.47312 20.7273 2 14.0954 2C7.47523 2 2 7.47312 2 14.105C2 20.7273 7.48484 26.21 14.105 26.21ZM14.105 23.8255C8.71085 23.8255 4.39412 19.4991 4.39412 14.105C4.39412 8.71085 8.70124 4.38452 14.0954 4.38452C19.4895 4.38452 23.8276 8.71085 23.8276 14.105C23.8276 19.4991 19.4991 23.8255 14.105 23.8255Z" fill="black"/>
<path d="M8.89844 14.6356C8.89844 17.5421 11.222 19.8753 14.0955 19.8753C16.971 19.8753 19.2925 17.5421 19.2925 14.6666C19.2925 14.1887 18.888 13.7937 18.4122 13.7937C17.9322 13.7937 17.5277 14.1887 17.5277 14.6666C17.5277 16.5734 16.0003 18.1063 14.0955 18.1063C12.1907 18.1063 10.6654 16.5788 10.6654 14.6666C10.6654 12.8356 12.0789 11.3441 13.8635 11.2998C14.001 11.2955 14.1524 11.2967 14.2654 11.3054L13.3047 12.2457C13.1767 12.3938 13.1031 12.5717 13.1031 12.7901C13.1031 13.2573 13.4608 13.5842 13.9131 13.5842C14.1313 13.5842 14.3442 13.4841 14.4836 13.3501L16.6917 11.1399C17.0142 10.8291 16.9907 10.2617 16.6938 9.95515L14.5049 7.73327C14.3613 7.57999 14.1452 7.46726 13.9068 7.46726C13.428 7.46726 13.0989 7.83124 13.0989 8.26577C13.0989 8.49452 13.1936 8.68741 13.3225 8.82475L14.0217 9.53984C13.9342 9.54195 13.8138 9.52484 13.7146 9.52695C11.1538 9.59866 8.89844 11.833 8.89844 14.6356Z" fill="black"/>
</svg>
