<svg width="28" height="28" viewBox="0 0 28 28" fill="none" xmlns="http://www.w3.org/2000/svg">
<path d="M14.105 26.21C20.7369 26.21 26.2121 20.7273 26.2121 14.105C26.2121 7.47312 20.7273 2 14.0954 2C7.47523 2 2 7.47312 2 14.105C2 20.7273 7.48484 26.21 14.105 26.21ZM14.105 23.8255C8.71085 23.8255 4.39412 19.4991 4.39412 14.105C4.39412 8.71085 8.70124 4.38452 14.0954 4.38452C19.4895 4.38452 23.8276 8.71085 23.8276 14.105C23.8276 19.4991 19.4991 23.8255 14.105 23.8255Z" fill="black"/>
<path d="M9.31469 19.2455C9.8043 19.2455 10.1746 18.8827 10.1746 18.3835V9.81054C10.1746 9.31132 9.8043 8.95062 9.31469 8.95062C8.81547 8.95062 8.43555 9.31132 8.43555 9.81054V18.3835C8.43555 18.8827 8.81547 19.2455 9.31469 19.2455ZM21.3546 14.1125C21.3546 13.5943 20.9747 13.2303 20.4576 13.2303H15.5744L13.5733 13.3634L15.6822 11.5009L16.4184 10.7722C16.5993 10.603 16.6907 10.3794 16.6907 10.1305C16.6907 9.63663 16.3172 9.28976 15.8224 9.28976C15.5925 9.28976 15.37 9.37273 15.187 9.56749L11.2916 13.4473C11.1074 13.6337 11.001 13.8603 11.001 14.1125C11.001 14.3551 11.0978 14.5913 11.2916 14.768L15.1774 18.6212C15.3466 18.7946 15.6117 18.9043 15.832 18.9043C16.3364 18.9043 16.6907 18.5595 16.6907 18.0582C16.6907 17.7901 16.5972 17.5836 16.4184 17.424L15.6726 16.7241L13.5637 14.8616L15.5744 14.9947H20.4576C20.9747 14.9947 21.3546 14.6403 21.3546 14.1125Z" fill="black"/>
</svg>
