<svg width="37" height="28" viewBox="0 0 37 28" fill="none" xmlns="http://www.w3.org/2000/svg">
<path d="M0.953267 15.9582L9.94037 21.4505C11.1697 22.1998 12.5754 21.6329 12.5754 20.0703V8.77674C12.5754 7.24511 11.1973 6.643 9.94037 7.40613L0.953267 12.8984C-0.325245 13.6702 -0.310244 15.1822 0.953267 15.9582ZM2.49404 14.638C2.33724 14.5355 2.24864 14.367 2.49404 14.2069L10.197 9.46181C10.3079 9.38611 10.5629 9.36572 10.5629 9.63994V19.2167C10.5629 19.4738 10.325 19.4802 10.197 19.3948L2.49404 14.638ZM18.1765 26.8353C18.7221 26.8353 19.1977 26.4235 19.1977 25.8652V2.98183C19.1977 2.42777 18.7158 2.02136 18.1765 2.02136C17.6414 2.02136 17.1629 2.42988 17.1629 2.98183V25.8652C17.1629 26.4214 17.6372 26.8353 18.1765 26.8353ZM26.4106 21.4505L35.4073 15.9582C36.6612 15.1822 36.6762 13.6702 35.4073 12.8984L26.4106 7.40613C25.1536 6.643 23.7755 7.24511 23.7755 8.77674V20.0703C23.7755 21.6329 25.1813 22.1998 26.4106 21.4505ZM26.1539 19.3948C26.0281 19.4705 25.7881 19.4738 25.7881 19.2167V9.63994C25.7881 9.36572 26.0452 9.38611 26.1539 9.46181L33.8569 14.2069C34.1023 14.367 34.0233 14.5452 33.8569 14.638L26.1539 19.3948Z" fill="black"/>
</svg>
