<svg width="28" height="28" viewBox="0 0 28 28" fill="none" xmlns="http://www.w3.org/2000/svg">
<path d="M4.36944 4C3.57117 4 3.22031 4.57351 3.11812 5.13718C3.02555 5.60803 3 6.20756 3 6.89686C3 12.4169 5.2882 14.9176 10.7121 14.9176H18.4774L21.2768 14.7578L17.779 17.9273L15.1732 20.5694C14.9414 20.8087 14.8034 21.1246 14.8034 21.4881C14.8034 22.1943 15.3309 22.7132 16.0666 22.7132C16.3868 22.7132 16.7037 22.5803 16.9994 22.292L24.7087 14.5944C24.9844 14.3284 25.129 13.9851 25.129 13.6309C25.129 13.2864 24.9844 12.9313 24.7087 12.677L16.9802 4.95063C16.7037 4.68368 16.3868 4.5604 16.0666 4.5604C15.3309 4.5604 14.8034 5.0793 14.8034 5.78546C14.8034 6.14898 14.951 6.4628 15.1732 6.6946L17.779 9.33249L21.2864 12.5212L18.4774 12.3517H10.8745C6.97663 12.3517 5.58936 10.753 5.58936 6.81459C5.58936 6.16561 5.63295 5.71257 5.63295 5.26116C5.63295 4.51047 5.11381 4 4.36944 4Z" fill="black"/>
</svg>
