<svg width="28" height="28" viewBox="0 0 28 28" fill="none" xmlns="http://www.w3.org/2000/svg">
<path d="M3.81047 15.5127L12.2859 15.5416C12.4139 15.5416 12.4301 15.5514 12.4301 15.6878L12.4493 24.1056C12.4589 26.185 15.0185 26.5701 15.9007 24.6473L18.2463 19.5824L16.5555 17.8874L14.6995 21.9002C14.6836 21.9513 14.6367 21.9375 14.6367 21.8864L14.6773 16.0038L11.9295 13.2656L6.05434 13.2986C6.00114 13.2986 5.98731 13.2517 6.05223 13.2241L10.0533 11.399L8.37 9.70614L3.15891 12.1233C1.30548 12.9745 1.78665 15.5031 3.81047 15.5127ZM20.3351 15.0494L24.5334 5.99456C25.4526 3.98388 23.9013 2.54248 21.9002 3.4713L12.8817 7.63872L14.5959 9.3316L21.8881 5.98776C21.9722 5.9526 22.0158 5.97393 21.9743 6.07612L18.6251 13.3469L20.3351 15.0494Z" fill="black"/>
<path d="M23.5249 22.9101C23.8891 23.2743 24.494 23.2743 24.8444 22.9101C25.1948 22.5459 25.2087 21.9548 24.8444 21.5906L6.52336 3.27158C6.15914 2.90947 5.55633 2.90947 5.19211 3.27158C4.83961 3.62408 4.83961 4.24072 5.19211 4.59111L23.5249 22.9101Z" fill="black"/>
</svg>
