<svg width="28" height="28" viewBox="0 0 28 28" fill="none" xmlns="http://www.w3.org/2000/svg">
<path d="M14.105 26.21C20.7369 26.21 26.2121 20.7273 26.2121 14.105C26.2121 7.47312 20.7273 2 14.0954 2C7.47523 2 2 7.47312 2 14.105C2 20.7273 7.48484 26.21 14.105 26.21ZM14.105 23.8255C8.71085 23.8255 4.39412 19.4991 4.39412 14.105C4.39412 8.71085 8.70124 4.38452 14.0954 4.38452C19.4895 4.38452 23.8276 8.71085 23.8276 14.105C23.8276 19.4991 19.4991 23.8255 14.105 23.8255Z" fill="black"/>
<path d="M14.0859 17.6851C14.3306 17.6851 14.5647 17.5691 14.7414 17.3945L18.6234 13.5087C18.8278 13.3107 18.899 13.0841 18.899 12.8562C18.899 12.369 18.5521 11.9858 18.07 11.9858C17.8232 11.9858 17.5975 12.0793 17.4166 12.2581L16.6879 13.0039L14.8349 15.1032L14.9681 13.1021V8.21888C14.9681 7.70185 14.5945 7.33154 14.0859 7.33154C13.5581 7.33154 13.2037 7.70185 13.2037 8.21888V13.1021L13.3368 15.1128L11.455 12.9943L10.7744 12.2581C10.6052 12.0772 10.4104 11.9858 10.1348 11.9858C9.64093 11.9858 9.29406 12.3498 9.29406 12.8562C9.29406 13.0648 9.39625 13.3278 9.56218 13.4991L13.4303 17.3945C13.607 17.5787 13.8433 17.6851 14.0859 17.6851ZM9.81483 20.2409H18.3878C18.887 20.2409 19.2478 19.8706 19.2478 19.3618C19.2478 18.8722 18.887 18.5019 18.3878 18.5019H9.81483C9.31562 18.5019 8.94531 18.8722 8.94531 19.3618C8.94531 19.8706 9.31562 20.2409 9.81483 20.2409Z" fill="black"/>
</svg>
