<svg width="28" height="28" viewBox="0 0 28 28" fill="none" xmlns="http://www.w3.org/2000/svg">
<path d="M14.105 26.21C20.7369 26.21 26.2121 20.7273 26.2121 14.105C26.2121 7.47312 20.7273 2 14.0954 2C7.47523 2 2 7.47312 2 14.105C2 20.7273 7.48484 26.21 14.105 26.21Z" fill="black"/>
<path d="M6.56836 14.1125C6.56836 13.5741 6.95672 13.1942 7.50563 13.1942H12.5497L14.6253 13.3252L12.4386 11.3966L11.6822 10.6477C11.4874 10.4743 11.396 10.239 11.396 9.97624C11.396 9.46226 11.7952 9.09945 12.3122 9.09945C12.5443 9.09945 12.7826 9.18242 12.9774 9.39101L17.0227 13.4155C17.1994 13.6135 17.3175 13.8444 17.3175 14.1125C17.3175 14.371 17.2207 14.6115 17.0227 14.7999L12.987 18.7976C12.8061 18.987 12.525 19.0967 12.3122 19.0967C11.7759 19.0967 11.396 18.7339 11.396 18.2145C11.396 17.9305 11.4917 17.7123 11.6822 17.5463L12.4482 16.8284L14.6349 14.8998L12.5497 15.0425H7.50563C6.95672 15.0425 6.56836 14.6701 6.56836 14.1125ZM19.0676 19.4497C18.56 19.4497 18.1716 19.0709 18.1716 18.5516V9.6446C18.1716 9.12523 18.56 8.74648 19.0676 8.74648C19.6062 8.74648 19.9946 9.12523 19.9946 9.6446V18.5516C19.9946 19.0709 19.6062 19.4497 19.0676 19.4497Z" fill="white"/>
</svg>
