<svg width="28" height="28" viewBox="0 0 28 28" fill="none" xmlns="http://www.w3.org/2000/svg">
<path d="M14.105 26.2301C20.7369 26.2301 26.2121 20.7549 26.2121 14.123C26.2121 7.50289 20.7273 2.01805 14.0954 2.01805C7.47523 2.01805 2 7.50289 2 14.123C2 20.7549 7.48484 26.2301 14.105 26.2301Z" fill="black"/>
<path d="M14.0947 21.2595C13.5371 21.2595 13.1668 20.8712 13.1668 20.3223V15.2783L13.3095 13.193L11.3595 15.3894L10.6608 16.1457C10.4874 16.3287 10.2809 16.4223 9.98726 16.4223C9.47328 16.4223 9.11047 16.0519 9.11047 15.5157C9.11047 15.3029 9.21265 15.024 9.39242 14.8505L13.4073 10.8031C13.5957 10.6072 13.8362 10.4987 14.0947 10.4987C14.3532 10.4987 14.5937 10.6264 14.7842 10.8031L18.8108 14.8409C19.029 15.0411 19.1002 15.2719 19.1002 15.5157C19.1002 16.0327 18.7353 16.4223 18.2373 16.4223C17.9628 16.4223 17.7329 16.3266 17.5498 16.1457L16.801 15.3798L14.8819 13.2026L15.0151 15.2783V20.3223C15.0151 20.8712 14.6234 21.2595 14.0947 21.2595ZM9.65562 9.6563C9.13835 9.6563 8.75 9.25834 8.75 8.74857C8.75 8.2217 9.13835 7.83334 9.65562 7.83334H18.5647C19.082 7.83334 19.4607 8.2217 19.4607 8.74857C19.4607 9.25834 19.082 9.6563 18.5647 9.6563H9.65562Z" fill="white"/>
</svg>
