<svg width="28" height="28" viewBox="0 0 28 28" fill="none" xmlns="http://www.w3.org/2000/svg">
<path d="M14.105 26.2301C20.7369 26.2301 26.2121 20.7549 26.2121 14.123C26.2121 7.50289 20.7273 2.01805 14.0954 2.01805C7.47523 2.01805 2 7.50289 2 14.123C2 20.7549 7.48484 26.2301 14.105 26.2301Z" fill="black"/>
<path d="M19.5076 14.6813C19.5076 17.7048 17.0947 20.1348 14.1043 20.1348C11.116 20.1348 8.70312 17.7048 8.70312 14.7219C8.70312 14.2142 9.1257 13.8034 9.61953 13.8034C10.1389 13.8034 10.5519 14.2142 10.5519 14.7219C10.5519 16.6958 12.1325 18.286 14.1043 18.286C16.0899 18.286 17.6588 16.6916 17.6588 14.7219C17.6588 12.8206 16.208 11.2737 14.3574 11.2273C14.2156 11.221 14.0759 11.2243 13.9587 11.2308L14.9312 12.2021C15.0612 12.3502 15.1444 12.5419 15.1444 12.755C15.1444 13.2519 14.7784 13.6023 14.2909 13.6023C14.0759 13.6023 13.8397 13.4905 13.6981 13.3447L11.405 11.059C11.0762 10.7323 11.09 10.1448 11.4029 9.82015L13.6768 7.5153C13.8322 7.3503 14.0546 7.22374 14.2972 7.22374C14.8058 7.22374 15.1508 7.61538 15.1508 8.06374C15.1508 8.30843 15.0423 8.51304 14.923 8.6546L14.2121 9.39101C14.292 9.38351 14.4125 9.37601 14.5116 9.37812C17.1713 9.45616 19.5076 11.7776 19.5076 14.6813Z" fill="white"/>
</svg>
