<svg width="28" height="28" viewBox="0 0 28 28" fill="none" xmlns="http://www.w3.org/2000/svg">
<path d="M4.36944 23.772C5.11381 23.772 5.63295 23.2616 5.63295 22.5012C5.63295 22.0595 5.58936 21.5968 5.58936 20.9574C5.58936 17.019 6.97663 15.4203 10.8745 15.4203H18.4774L21.2864 15.2508L17.779 18.4299L15.1732 21.0678C14.951 21.2996 14.8034 21.623 14.8034 21.9887C14.8034 22.6927 15.3309 23.2116 16.0666 23.2116C16.3868 23.2116 16.7037 23.0787 16.9802 22.8118L24.7087 15.0971C24.9844 14.8311 25.129 14.4877 25.129 14.1336C25.129 13.7891 24.9844 13.434 24.7087 13.1797L16.9994 5.48C16.7037 5.18422 16.3868 5.06094 16.0666 5.06094C15.3309 5.06094 14.8034 5.57985 14.8034 6.28391C14.8034 6.64953 14.9414 6.96336 15.1732 7.19515L17.779 9.83515L21.2768 13.0142L18.4774 12.8544H10.7121C5.2882 12.8544 3 15.3552 3 20.8773C3 21.5549 3.02555 22.1661 3.11812 22.6252C3.22031 23.2006 3.57117 23.772 4.36944 23.772Z" fill="black"/>
</svg>
