<svg width="28" height="28" viewBox="0 0 28 28" fill="none" xmlns="http://www.w3.org/2000/svg">
<path d="M14.105 26.21C20.7369 26.21 26.2121 20.7273 26.2121 14.105C26.2121 7.47312 20.7273 2 14.0954 2C7.47523 2 2 7.47312 2 14.105C2 20.7273 7.48484 26.21 14.105 26.21ZM14.105 23.8255C8.71085 23.8255 4.39412 19.4991 4.39412 14.105C4.39412 8.71085 8.70124 4.38452 14.0954 4.38452C19.4895 4.38452 23.8276 8.71085 23.8276 14.105C23.8276 19.4991 19.4991 23.8255 14.105 23.8255Z" fill="black"/>
<path d="M14.115 6.90453C13.8129 6.90453 13.5682 7.03437 13.3287 7.27812L10.0917 10.535C9.91196 10.7169 9.82031 10.9447 9.82031 11.2034C9.82031 11.7198 10.2143 12.0978 10.7391 12.0978C11.0222 12.0978 11.2669 11.983 11.4213 11.7915L12.1451 11.0443L13.237 9.71702L13.1327 12.1001V16.1056L13.237 18.4888L12.1451 17.1615L11.4213 16.4143C11.2669 16.2132 11.0222 16.108 10.7391 16.108C10.2143 16.108 9.82031 16.486 9.82031 17.0023C9.82031 17.2494 9.91196 17.4889 10.0917 17.6708L13.3287 20.9277C13.5682 21.1714 13.8129 21.3012 14.115 21.3012C14.4096 21.3012 14.6447 21.1714 14.8917 20.9277L18.1404 17.6708C18.3202 17.4889 18.4022 17.2494 18.4022 17.0023C18.4022 16.486 18.0178 16.108 17.4931 16.108C17.2099 16.108 16.9652 16.2228 16.8108 16.4143L16.0774 17.1615L14.9951 18.477L15.0994 16.1056V12.1001L14.9951 9.72663L16.0774 11.0443L16.8108 11.7915C16.9652 11.9734 17.2099 12.0978 17.4931 12.0978C18.0178 12.0978 18.4022 11.7198 18.4022 11.2034C18.4022 10.9447 18.3202 10.7169 18.1404 10.535L14.8917 7.27812C14.6447 7.03437 14.4096 6.90453 14.115 6.90453Z" fill="black"/>
</svg>
