<svg width="28" height="28" viewBox="0 0 28 28" fill="none" xmlns="http://www.w3.org/2000/svg">
<path d="M4.3596 24.7562C4.73811 24.7562 5.05498 24.6158 5.32287 24.3618L14.4544 15.437C14.7698 15.1215 14.9229 14.7782 14.9229 14.3819C14.9187 13.9738 14.7677 13.6134 14.4544 13.3267L5.31326 4.39445C5.0592 4.13828 4.74022 4 4.3596 4C3.59413 4 3 4.60163 3 5.36288C3 5.72428 3.15094 6.07725 3.41015 6.34396L12.2421 14.946V13.7997L3.41015 22.4198C3.15304 22.6844 3 23.0298 3 23.403C3 24.1621 3.59413 24.7562 4.3596 24.7562Z" fill="black"/>
<path d="M14.8362 24.7562C15.2147 24.7562 15.5315 24.6158 15.7898 24.3618L24.9213 15.437C25.2347 15.1215 25.3973 14.7782 25.3973 14.3819C25.3952 13.9738 25.2326 13.6134 24.9213 13.3267L15.7898 4.39445C15.524 4.13828 15.2168 4 14.8362 4C14.0707 4 13.4648 4.60163 13.4648 5.36288C13.4648 5.72428 13.6254 6.07725 13.8867 6.34396L22.7091 14.946V13.7997L13.8867 22.4198C13.6275 22.6844 13.4648 23.0298 13.4648 23.403C13.4648 24.1621 14.0707 24.7562 14.8362 24.7562Z" fill="black"/>
</svg>
