<svg width="28" height="28" viewBox="0 0 28 28" fill="none" xmlns="http://www.w3.org/2000/svg">
<path d="M14.105 26.21C20.7369 26.21 26.2121 20.7273 26.2121 14.105C26.2121 7.47312 20.7273 2 14.0954 2C7.47523 2 2 7.47312 2 14.105C2 20.7273 7.48484 26.21 14.105 26.21ZM14.105 23.8255C8.71085 23.8255 4.39412 19.4991 4.39412 14.105C4.39412 8.71085 8.70124 4.38452 14.0954 4.38452C19.4895 4.38452 23.8276 8.71085 23.8276 14.105C23.8276 19.4991 19.4991 23.8255 14.105 23.8255Z" fill="black"/>
<path d="M6.8457 14.1125C6.8457 14.6403 7.21812 14.9947 7.73304 14.9947H12.6184L14.627 14.8616L12.5202 16.7241L11.7723 17.424C11.5935 17.5836 11.4999 17.7901 11.4999 18.0582C11.4999 18.5595 11.8639 18.9043 12.3704 18.9043C12.579 18.9043 12.8441 18.7946 13.0229 18.6212L16.9107 14.768C17.0949 14.5913 17.1896 14.3551 17.1896 14.1125C17.1896 13.8603 17.0853 13.6337 16.9107 13.4473L13.0133 9.56749C12.8227 9.37273 12.5982 9.28976 12.3704 9.28976C11.8831 9.28976 11.4999 9.63663 11.4999 10.1305C11.4999 10.3794 11.5913 10.603 11.7723 10.7722L12.5105 11.5009L14.6174 13.3634L12.6184 13.2303H7.73304C7.21812 13.2303 6.8457 13.5943 6.8457 14.1125ZM18.8759 19.2455C19.3848 19.2455 19.7551 18.8827 19.7551 18.3835V9.81054C19.7551 9.31132 19.3848 8.95062 18.8759 8.95062C18.3884 8.95062 18.016 9.31132 18.016 9.81054V18.3835C18.016 18.8827 18.3884 19.2455 18.8759 19.2455Z" fill="black"/>
</svg>
