<svg width="28" height="28" viewBox="0 0 28 28" fill="none" xmlns="http://www.w3.org/2000/svg">
<path d="M14.105 26.21C20.7369 26.21 26.2121 20.7273 26.2121 14.105C26.2121 7.47312 20.7273 2 14.0954 2C7.47523 2 2 7.47312 2 14.105C2 20.7273 7.48484 26.21 14.105 26.21ZM14.105 23.8255C8.71085 23.8255 4.39412 19.4991 4.39412 14.105C4.39412 8.71085 8.70124 4.38452 14.0954 4.38452C19.4895 4.38452 23.8276 8.71085 23.8276 14.105C23.8276 19.4991 19.4991 23.8255 14.105 23.8255Z" fill="black"/>
<path d="M8.02539 15.4967C8.02539 18.3134 10.053 20.0966 12.8024 20.0966C12.924 20.0966 14.3303 20.0966 14.4332 20.0966C15.0154 20.0966 15.4337 19.7635 15.4337 19.1844C15.4337 18.5998 15.0133 18.2731 14.4503 18.2731C14.3591 18.2731 12.924 18.2731 12.8024 18.2731C11.1131 18.2731 9.89781 17.1786 9.89781 15.4177C9.89781 13.689 11.144 12.7194 12.797 12.7194H16.2693L17.5298 12.6544L16.8564 13.1574L15.459 14.4603C15.2706 14.6211 15.1823 14.8639 15.1823 15.0854C15.1823 15.5987 15.5793 15.9915 16.0691 15.9915C16.3215 15.9915 16.528 15.9052 16.7005 15.7327L19.8358 12.5452C20.0296 12.3418 20.1543 12.0969 20.1543 11.8177C20.1543 11.5419 20.0275 11.2916 19.8358 11.0881L16.7101 7.91772C16.5376 7.7335 16.3333 7.65686 16.083 7.65686C15.5835 7.65686 15.1865 8.05178 15.1865 8.55334C15.1865 8.80365 15.2919 9.03686 15.4687 9.19014L16.6504 10.3198L17.5298 10.9979L16.2693 10.9543H12.797C10.0455 10.9543 8.02539 12.6905 8.02539 15.4967Z" fill="black"/>
</svg>
