<svg width="28" height="28" viewBox="0 0 28 28" fill="none" xmlns="http://www.w3.org/2000/svg">
<path d="M14.7299 24.7959C15.3611 24.7959 15.8678 24.5426 16.4788 23.9709L25.7544 15.2552C26.2103 14.8249 26.3859 14.3248 26.3859 13.898C26.3859 13.4531 26.222 12.9731 25.7566 12.5332L16.4788 3.88476C15.805 3.25453 15.3719 3 14.7491 3C13.8276 3 13.1531 3.72258 13.1531 4.6153V8.8193H12.8617C4.73547 8.8193 1 14.0424 1 22.5591C1 23.9909 1.62062 24.7474 2.43062 24.7474C3.03038 24.7474 3.60952 24.5627 4.06397 23.7157C5.91741 20.2528 8.55648 19.0052 12.8617 19.0052H13.1531V23.2308C13.1531 24.1235 13.8276 24.7959 14.7299 24.7959ZM15.4633 21.8166C15.3653 21.8166 15.2887 21.7399 15.2887 21.6281V17.2765C15.2887 17.0091 15.1736 16.894 14.9062 16.894H13.4012C8.00569 16.894 4.57514 18.623 3.16702 21.5433C3.13397 21.6232 3.10843 21.6563 3.05405 21.6563C3.00717 21.6563 2.97202 21.6211 2.97202 21.5337C3.17054 15.9645 5.78076 10.9116 13.4012 10.9116H14.9062C15.1736 10.9116 15.2887 10.7965 15.2887 10.529V6.08131C15.2887 5.97912 15.3653 5.9067 15.4729 5.9067C15.5411 5.9067 15.6093 5.94725 15.6679 5.99412L23.7037 13.6795C23.7857 13.7616 23.8188 13.8277 23.8188 13.898C23.8188 13.9662 23.7953 14.0248 23.7037 14.1164L15.6583 21.7132C15.5997 21.7814 15.5315 21.8166 15.4633 21.8166Z" fill="black"/>
</svg>
