<svg width="28" height="28" viewBox="0 0 28 28" fill="none" xmlns="http://www.w3.org/2000/svg">
<path d="M23.4302 4.45901C22.2244 3.25527 20.5516 3.02136 18.417 3.02136H9.40827C7.30453 3.02136 5.62968 3.25527 4.42383 4.45901C3.22008 5.66276 3 7.32167 3 9.42002V18.3614C3 20.5003 3.22008 22.1496 4.42383 23.3512C5.63179 24.5571 7.30453 24.7889 9.42749 24.7889H18.417C20.5516 24.7889 22.2265 24.5571 23.4302 23.3512C24.634 22.1475 24.8541 20.5003 24.8541 18.3614V9.44885C24.8541 7.31206 24.634 5.65104 23.4302 4.45901ZM22.5581 9.12073V18.6799C22.5581 19.9071 22.4037 21.0185 21.7458 21.6785C21.0975 22.3247 19.9627 22.493 18.7472 22.493H9.10898C7.89351 22.493 6.75655 22.3247 6.09866 21.6785C5.45248 21.0185 5.29592 19.9071 5.29592 18.6799V9.14955C5.29592 7.91276 5.45248 6.78213 6.09866 6.13384C6.75655 5.47595 7.90312 5.31728 9.13781 5.31728H18.7472C19.9627 5.31728 21.0975 5.48556 21.7458 6.13384C22.4037 6.79174 22.5581 7.90315 22.5581 9.12073Z" fill="black"/>
<path d="M17.5907 16.9446C18.1739 16.9446 18.5496 16.5019 18.5496 15.8826V10.4273C18.5496 9.62623 18.1007 9.26599 17.3744 9.26599H11.8882C11.253 9.26599 10.8487 9.6417 10.8487 10.2248C10.8487 10.8079 11.2605 11.1836 11.9011 11.1836H13.8799L15.4877 10.9961L13.7461 12.5878L9.64031 16.7032C9.4425 16.901 9.31055 17.1776 9.31055 17.452C9.31055 18.0701 9.73476 18.4732 10.3284 18.4732C10.6455 18.4732 10.9062 18.3572 11.1166 18.1488L15.2118 14.0557L16.7939 12.3332L16.6223 14.0264V15.8977C16.6223 16.5307 16.998 16.9446 17.5907 16.9446Z" fill="black"/>
</svg>
