<svg width="34" height="28" viewBox="0 0 34 28" fill="none" xmlns="http://www.w3.org/2000/svg">
<path d="M11.6222 15.9582C12.8761 15.1822 12.9007 13.6702 11.6222 12.8984L2.62546 7.40613C1.37812 6.643 0 7.24511 0 8.77674V20.0703C0 21.6329 1.40578 22.1998 2.62546 21.4505L11.6222 15.9582ZM10.0835 14.638L2.37843 19.3948C2.25257 19.4705 2.00296 19.4738 2.00296 19.2167V9.63994C2.00296 9.36572 2.26968 9.38611 2.37843 9.46181L10.0739 14.2069C10.3268 14.367 10.2382 14.5452 10.0835 14.638ZM16.7069 26.8353C17.2525 26.8353 17.7281 26.4235 17.7281 25.8652V2.98183C17.7281 2.42777 17.2462 2.02136 16.7069 2.02136C16.1718 2.02136 15.6933 2.42988 15.6933 2.98183V25.8652C15.6933 26.4214 16.1676 26.8353 16.7069 26.8353ZM30.7863 21.4505C32.0156 22.1998 33.4213 21.6329 33.4213 20.0703V8.77674C33.4213 7.24511 32.0432 6.643 30.7863 7.40613L21.7896 12.8984C20.5207 13.6702 20.5357 15.1822 21.7896 15.9582L30.7863 21.4505ZM31.0333 19.3948L23.3399 14.638C23.1735 14.5452 23.0946 14.367 23.3399 14.2069L31.0333 9.46181C31.1517 9.38611 31.4088 9.36572 31.4088 9.63994V19.2167C31.4088 19.4738 31.1688 19.4705 31.0333 19.3948Z" fill="black"/>
</svg>
