<svg width="28" height="28" viewBox="0 0 28 28" fill="none" xmlns="http://www.w3.org/2000/svg">
<path d="M11.8177 24.6972C12.552 24.6972 12.9785 24.2345 12.9785 23.4674V14.5839L11.9953 14.8391C13.0355 17.5356 15.6516 19.6999 19.2284 20.9378C19.9913 21.2303 20.6126 20.842 20.8275 20.309C21.0575 19.7866 20.884 19.1301 20.1148 18.7769C15.9401 17.0336 12.9785 14.4346 12.9785 10.2081V6.16398H10.6493V23.4674C10.6493 24.2345 11.0759 24.6972 11.8177 24.6972ZM8.89458 7.75796H14.7333C15.6244 7.75796 15.8649 7.09516 15.3563 6.37469L12.5625 2.44025C12.1432 1.85595 11.4943 1.85056 11.0675 2.44025L8.2695 6.36297C7.75341 7.09305 7.98755 7.75796 8.89458 7.75796Z" fill="black"/>
</svg>
