<svg width="28" height="28" viewBox="0 0 28 28" fill="none" xmlns="http://www.w3.org/2000/svg">
<path d="M14.105 26.21C20.7369 26.21 26.2121 20.7273 26.2121 14.105C26.2121 7.47312 20.7273 2 14.0954 2C7.47523 2 2 7.47312 2 14.105C2 20.7273 7.48484 26.21 14.105 26.21Z" fill="black"/>
<path d="M20.3963 14.0975C20.3963 14.4345 20.2676 14.7024 19.9953 14.9588L15.8686 19.0276C15.6624 19.2296 15.4325 19.3297 15.1325 19.3297C14.5611 19.3297 14.146 18.9008 14.146 18.3188C14.146 18.0273 14.2683 17.7624 14.464 17.5815L15.9282 16.1734L17.3044 15.0685L14.7983 15.1791H8.85664C8.2407 15.1791 7.79492 14.7219 7.79492 14.0975C7.79492 13.4635 8.2407 13.0063 8.85664 13.0063H14.7983L17.3044 13.1265L15.9155 12.0195L14.464 10.6135C14.2822 10.4208 14.146 10.156 14.146 9.86655C14.146 9.28671 14.5611 8.8653 15.1325 8.8653C15.4325 8.8653 15.6624 8.95577 15.8686 9.1578L19.9953 13.2383C20.2772 13.5118 20.3963 13.7605 20.3963 14.0975Z" fill="white"/>
</svg>
