<svg width="28" height="28" viewBox="0 0 28 28" fill="none" xmlns="http://www.w3.org/2000/svg">
<path d="M8.1257 23.3056C8.45781 23.3056 8.80585 23.1938 9.11663 22.9873L9.7239 22.5793C11.3085 21.5157 13.6349 19.1178 14.1315 17.8777H14.1709C14.6537 19.1082 16.9802 21.5136 18.5786 22.5793L19.1859 22.9873C19.4945 23.1896 19.8405 23.3035 20.1651 23.3035C20.8661 23.3035 21.3004 22.8238 21.3004 22.1778C21.3004 21.782 21.0876 21.3882 20.729 21.1616L19.7948 20.5618C18.1469 19.4816 15.3159 16.7544 15.3159 14.0816V8.20625H12.9845V14.0816C12.9845 16.7544 10.1397 19.472 8.50773 20.5618L7.56929 21.1658C7.20109 21.3903 7 21.7916 7 22.1874C7 22.7907 7.42047 23.3056 8.1257 23.3056ZM11.2298 9.75875H17.0706C17.9521 9.75875 18.2022 9.09595 17.684 8.37337L14.8998 4.44103C14.4805 3.85463 13.8316 3.85135 13.4048 4.44103L10.6068 8.36376C10.0907 9.09384 10.3249 9.75875 11.2298 9.75875Z" fill="black"/>
</svg>
