<svg width="28" height="28" viewBox="0 0 28 28" fill="none" xmlns="http://www.w3.org/2000/svg">
<path d="M6.84421 24.8972H21.0295C23.5685 24.8972 24.8737 23.5919 24.8737 21.0914V6.82921C24.8737 4.32656 23.5685 3.02344 21.0295 3.02344H6.84421C4.31484 3.02344 3 4.31695 3 6.82921V21.0914C3 23.6016 4.31484 24.8972 6.84421 24.8972Z" fill="black"/>
<path d="M10.159 17.1305C9.55781 17.1305 9.16406 16.6697 9.16406 16.0165V10.3528C9.16406 9.51564 9.63093 9.13525 10.3955 9.13525H16.0784C16.7475 9.13525 17.172 9.529 17.172 10.144C17.172 10.7494 16.74 11.141 16.0676 11.141H14.0335L12.3628 10.9535L14.1694 12.6059L18.4252 16.852C18.6368 17.0637 18.7709 17.3583 18.7709 17.6391C18.7709 18.289 18.3169 18.7123 17.7031 18.7123C17.3679 18.7123 17.101 18.5941 16.865 18.3698L12.6389 14.1363L10.9962 12.349L11.1677 14.1049V16.0315C11.1677 16.6964 10.774 17.1305 10.159 17.1305Z" fill="white"/>
</svg>
