<svg width="28" height="28" viewBox="0 0 28 28" fill="none" xmlns="http://www.w3.org/2000/svg">
<path d="M5 18.1634C5 18.9207 5.585 19.5066 6.28366 19.5066C6.98022 19.5066 7.54084 18.8982 7.54084 18.1998V13.8174L7.34889 8.96912L9.24451 11.112L20.416 22.2793C20.6935 22.5547 21.0146 22.6864 21.3399 22.6864C22.0398 22.6864 22.6651 22.0494 22.6651 21.3709C22.6651 21.0434 22.5162 20.7148 22.2505 20.447L11.0907 9.26585L8.9595 7.38734L14.0075 7.56007H18.1805C18.879 7.56007 19.4778 6.99734 19.4778 6.3125C19.4778 5.62555 18.9249 5.03094 18.1463 5.03094H6.37624C5.53812 5.03094 5.0075 5.59039 5.0075 6.39758L5 18.1634Z" fill="black"/>
</svg>
