<svg width="28" height="28" viewBox="0 0 28 28" fill="none" xmlns="http://www.w3.org/2000/svg">
<path d="M14.105 26.2301C20.7369 26.2301 26.2121 20.7549 26.2121 14.123C26.2121 7.50291 20.7273 2.01807 14.0954 2.01807C7.47523 2.01807 2 7.50291 2 14.123C2 20.7549 7.48484 26.2301 14.105 26.2301Z" fill="black"/>
<path d="M12.976 19.3716C12.6343 19.3716 12.3693 19.2247 12.0393 18.9202L6.93484 14.1491C6.68664 13.9105 6.58984 13.6487 6.58984 13.3995C6.58984 13.1537 6.68664 12.8961 6.93484 12.6617L12.0393 7.91728C12.4044 7.57017 12.6289 7.43494 12.9664 7.43494C13.4741 7.43494 13.8423 7.82657 13.8423 8.30868V10.6283H14.0024C18.4564 10.6283 20.5199 13.4867 20.5199 18.1745C20.5199 18.9521 20.1589 19.3442 19.7305 19.3442C19.3965 19.3442 19.0909 19.2402 18.8408 18.7836C17.8234 16.8755 16.3668 16.1888 14.0024 16.1888H13.8423V18.5267C13.8423 19.0013 13.4741 19.3716 12.976 19.3716Z" fill="white"/>
</svg>
