<svg width="28" height="28" viewBox="0 0 28 28" fill="none" xmlns="http://www.w3.org/2000/svg">
<path d="M14.3983 25.321C14.7323 25.321 15.0651 25.1923 15.3247 24.9305L21.4115 18.736C21.6529 18.4967 21.7912 18.1402 21.7912 17.8372C21.7912 17.0968 21.287 16.6107 20.5806 16.6107C20.2202 16.6107 19.9415 16.752 19.7181 16.9796L17.252 19.5193L15.5244 21.5293L15.6395 18.8907V8.43029L15.5244 5.78958L17.252 7.79959L19.7181 10.3393C19.9415 10.5669 20.2202 10.7082 20.5806 10.7082C21.287 10.7082 21.7912 10.2221 21.7912 9.48171C21.7912 9.17867 21.6529 8.8243 21.4115 8.58289L15.3247 2.38836C15.0651 2.12656 14.7323 2 14.3983 2C14.0547 2 13.7198 2.12656 13.4718 2.38836L7.38929 8.58289C7.14789 8.8243 7 9.17867 7 9.48171C7 10.2221 7.50414 10.7082 8.21054 10.7082C8.58062 10.7082 8.85929 10.5669 9.07303 10.3393L11.5466 7.79959L13.2625 5.78958L13.157 8.43029V18.8907L13.2625 21.5293L11.5466 19.5193L9.07303 16.9796C8.85929 16.752 8.58062 16.6107 8.21054 16.6107C7.50414 16.6107 7 17.0968 7 17.8372C7 18.1402 7.14789 18.4967 7.38929 18.736L13.4718 24.9305C13.7198 25.1923 14.0547 25.321 14.3983 25.321Z" fill="black"/>
</svg>
