<svg width="37" height="28" viewBox="0 0 37 28" fill="none" xmlns="http://www.w3.org/2000/svg">
<path d="M0.953267 15.9582L9.94037 21.4505C11.239 22.2383 12.5754 21.6329 12.5754 20.0703V8.77674C12.5754 7.24511 11.2667 6.60457 9.94037 7.40613L0.953267 12.8984C-0.325245 13.6702 -0.310244 15.1822 0.953267 15.9582ZM18.1765 26.8353C18.7221 26.8353 19.1977 26.4235 19.1977 25.8652V2.98183C19.1977 2.42777 18.7158 2.02136 18.1765 2.02136C17.6414 2.02136 17.1629 2.42988 17.1629 2.98183V25.8652C17.1629 26.4214 17.6372 26.8353 18.1765 26.8353ZM26.4106 21.4505L35.4073 15.9582C36.6612 15.1822 36.6762 13.6702 35.4073 12.8984L26.4106 7.40613C25.0842 6.60457 23.7755 7.24511 23.7755 8.77674V20.0703C23.7755 21.6329 25.1119 22.2383 26.4106 21.4505Z" fill="black"/>
</svg>
