<svg width="28" height="28" viewBox="0 0 28 28" fill="none" xmlns="http://www.w3.org/2000/svg">
<path d="M6.84421 24.8972H21.0295C23.5685 24.8972 24.8737 23.5919 24.8737 21.0914V6.82921C24.8737 4.32656 23.5685 3.02344 21.0295 3.02344H6.84421C4.31484 3.02344 3 4.31695 3 6.82921V21.0914C3 23.6016 4.31484 24.8972 6.84421 24.8972Z" fill="black"/>
<path d="M20.2674 13.9373C20.2674 14.2744 20.1313 14.5423 19.8568 14.7987L15.7323 18.8674C15.526 19.0694 15.294 19.1695 14.994 19.1695C14.4247 19.1695 14.0096 18.7406 14.0096 18.1587C14.0096 17.8671 14.132 17.6023 14.3256 17.4213L15.8014 16.0132L17.166 14.9083L14.6619 15.019H8.71812C8.1043 15.019 7.66602 14.5617 7.66602 13.9373C7.66602 13.3034 8.1043 12.8461 8.71812 12.8461H14.6619L17.166 12.9663L15.7888 11.8593L14.3256 10.4533C14.1437 10.2607 14.0096 9.99583 14.0096 9.70638C14.0096 9.12654 14.4247 8.70514 14.994 8.70514C15.294 8.70514 15.526 8.79561 15.7323 8.99764L19.8568 13.0781C20.1409 13.3516 20.2674 13.6003 20.2674 13.9373Z" fill="white"/>
</svg>
