<svg width="32" height="28" viewBox="0 0 32 28" fill="none" xmlns="http://www.w3.org/2000/svg">
<path d="M10.7194 25.0617C11.2762 25.0617 11.6622 24.787 11.8406 24.236C13.0725 20.5434 14.9932 19.1248 18.1483 19.1248L18.528 19.1344V23.3599C18.528 24.2526 19.193 24.9251 20.0953 24.9251C20.7265 24.9251 21.2332 24.6738 21.8442 24.1001L31.1294 15.3865C31.5853 14.9541 31.7512 14.4539 31.7512 14.0271C31.7512 13.5844 31.5874 13.0927 31.1315 12.6623L21.8442 4.01388C21.1704 3.38365 20.7372 3.11951 20.1145 3.11951C19.193 3.11951 18.528 3.85169 18.528 4.74442V8.94841H18.2346C14.6646 8.94841 11.5582 10.9678 10.7641 15.2431H10.6458C9.78233 10.575 6.47741 8.95474 3.26389 8.95474C3.13358 8.95474 2.89757 8.95474 2.47265 8.95474C0.754214 8.95474 0 9.69068 0 11.5338V16.9709C0 18.4596 0.744605 19.1571 2.38405 19.1571C2.83475 19.1571 3.2503 19.1571 3.7106 19.1571C6.7453 19.1571 8.73866 21.233 9.61194 24.2264C9.77858 24.787 10.1508 25.0617 10.7194 25.0617Z" fill="black"/>
</svg>
