<svg width="28" height="28" viewBox="0 0 28 28" fill="none" xmlns="http://www.w3.org/2000/svg">
<path d="M6.84421 24.8972H21.0295C23.5685 24.8972 24.8737 23.5919 24.8737 21.0914V6.82921C24.8737 4.32656 23.5685 3.02344 21.0295 3.02344H6.84421C4.31484 3.02344 3 4.31695 3 6.82921V21.0914C3 23.6016 4.31484 24.8972 6.84421 24.8972Z" fill="black"/>
<path d="M16.3363 19.7962C15.9915 20.1272 15.2935 20.108 14.9232 19.7632L10.0925 15.2105C9.3676 14.5441 9.3676 13.3669 10.0925 12.7006L14.9232 8.14996C15.3329 7.76582 15.9458 7.76254 16.3182 8.11691C16.7342 8.50316 16.7438 9.17136 16.3438 9.54589L11.6497 13.9448L16.3438 18.3652C16.7321 18.7397 16.7523 19.3781 16.3363 19.7962Z" fill="white"/>
</svg>
