<svg width="28" height="28" viewBox="0 0 28 28" fill="none" xmlns="http://www.w3.org/2000/svg">
<path d="M14.105 26.21C20.7369 26.21 26.2121 20.7273 26.2121 14.105C26.2121 7.47312 20.7273 2 14.0954 2C7.47523 2 2 7.47312 2 14.105C2 20.7273 7.48484 26.21 14.105 26.21ZM14.105 23.8255C8.71085 23.8255 4.39412 19.4991 4.39412 14.105C4.39412 8.71085 8.70124 4.38452 14.0954 4.38452C19.4895 4.38452 23.8276 8.71085 23.8276 14.105C23.8276 19.4991 19.4991 23.8255 14.105 23.8255Z" fill="black"/>
<path d="M8.64789 10.0681C8.32211 10.3939 8.33383 10.9477 8.64789 11.2597L11.5673 14.1066C11.7238 14.244 11.9432 14.3419 12.1455 14.3419C12.6002 14.3419 12.9313 14.0204 12.9313 13.5636C12.9313 13.3463 12.8493 13.1462 12.7002 12.9992L11.4813 11.8217L11.0734 11.4427L11.6432 11.4716H18.9829C19.4376 11.4716 19.7847 11.117 19.7847 10.6602C19.7847 10.2055 19.4472 9.87009 18.9829 9.87009H11.6528L11.0831 9.8797L11.4813 9.51993L12.7002 8.34032C12.8493 8.19337 12.9313 7.98782 12.9313 7.77806C12.9313 7.30954 12.6002 6.98798 12.1455 6.98798C11.9432 6.98798 11.7142 7.08806 11.5673 7.24251L8.64789 10.0681ZM19.5335 18.1515C19.8688 17.8203 19.8454 17.3103 19.5335 16.9887L16.612 14.1418C16.4746 13.9948 16.2456 13.8948 16.0359 13.8948C15.5716 13.8948 15.25 14.2184 15.25 14.6752C15.25 14.8946 15.3299 15.0927 15.479 15.2396L16.7076 16.4192L17.1154 16.7961L16.5381 16.7673H9.19633C8.75125 16.7673 8.40625 17.1027 8.40625 17.5691C8.40625 18.0237 8.74164 18.3687 9.19633 18.3687H16.5264L17.1154 18.3591L16.7076 18.7189L15.4907 19.9006C15.3396 20.0572 15.25 20.2414 15.25 20.4629C15.25 20.9197 15.5908 21.2509 16.0359 21.2509C16.2264 21.2509 16.4554 21.1529 16.612 21.0059L19.5335 18.1515Z" fill="black"/>
</svg>
