<svg width="28" height="28" viewBox="0 0 28 28" fill="none" xmlns="http://www.w3.org/2000/svg">
<path d="M14.105 26.21C20.7369 26.21 26.2121 20.7273 26.2121 14.105C26.2121 7.47312 20.7273 2 14.0954 2C7.47523 2 2 7.47312 2 14.105C2 20.7273 7.48484 26.21 14.105 26.21Z" fill="black"/>
<path d="M14.114 20.2594C13.4896 20.2594 13.0228 19.8212 13.0228 19.1977V13.4771L13.1451 10.9613L12.0478 12.328L10.6876 13.7462C10.5088 13.9398 10.2344 14.0621 9.9503 14.0621C9.37046 14.0621 8.95117 13.6374 8.95117 13.0777C8.95117 12.7777 9.03203 12.5457 9.23195 12.3373L13.2548 8.26298C13.5304 7.97892 13.7887 7.85986 14.114 7.85986C14.451 7.85986 14.7189 7.98853 14.9849 8.26298L18.996 12.3373C19.1981 12.5457 19.3002 12.7777 19.3002 13.0777C19.3002 13.6374 18.8692 14.0621 18.2894 14.0621C17.9999 14.0621 17.733 13.9494 17.5521 13.7462L16.2037 12.3406L15.085 10.9517L15.2074 13.4771V19.1977C15.2074 19.8212 14.748 20.2594 14.114 20.2594Z" fill="white"/>
</svg>
