<svg width="28" height="28" viewBox="0 0 28 28" fill="none" xmlns="http://www.w3.org/2000/svg">
<path d="M6.84421 24.8972H21.0295C23.5685 24.8972 24.8737 23.5919 24.8737 21.0914V6.82921C24.8737 4.32656 23.5685 3.02344 21.0295 3.02344H6.84421C4.31484 3.02344 3 4.31695 3 6.82921V21.0914C3 23.6016 4.31484 24.8972 6.84421 24.8972Z" fill="black"/>
<path d="M8.31214 9.74951L11.3389 6.81654C11.4975 6.64825 11.7286 6.55029 11.9426 6.55029C12.4174 6.55029 12.7625 6.88779 12.7625 7.37013C12.7625 7.59372 12.6804 7.80349 12.5175 7.96216L11.2646 9.18536L10.8568 9.54513L11.4446 9.53552H19.0437C19.526 9.53552 19.8773 9.88896 19.8773 10.3713C19.8773 10.844 19.5164 11.2125 19.0437 11.2125H11.4349L10.8471 11.1836L11.2646 11.5722L12.5175 12.7858C12.6804 12.9445 12.7625 13.1468 12.7625 13.38C12.7625 13.8527 12.4174 14.1902 11.9426 14.1902C11.7286 14.1902 11.5071 14.0901 11.3389 13.9486L8.31214 10.9889C7.97253 10.6631 7.97042 10.087 8.31214 9.74951ZM19.6026 18.1498L16.5855 21.1116C16.4151 21.2702 16.1841 21.3682 15.9818 21.3682C15.5166 21.3682 15.1598 21.0232 15.1598 20.5484C15.1598 20.3152 15.2536 20.1246 15.4165 19.9563L16.6673 18.7331L17.0848 18.3734L16.4777 18.3851H8.87863C8.408 18.3851 8.05667 18.0199 8.05667 17.5397C8.05667 17.0552 8.41761 16.706 8.87863 16.706H16.4873L17.0848 16.7348L16.6673 16.3462L15.3952 15.1348C15.244 14.974 15.1598 14.7738 15.1598 14.5406C15.1598 14.0658 15.4973 13.7262 15.9818 13.7262C16.2033 13.7262 16.4344 13.8305 16.5855 13.9795L19.6026 16.9392C19.9401 17.2767 19.9657 17.8048 19.6026 18.1498Z" fill="white"/>
</svg>
