<svg width="28" height="28" viewBox="0 0 28 28" fill="none" xmlns="http://www.w3.org/2000/svg">
<path d="M3.86062 12.6662L11.7781 15.8732C12.3952 16.1284 13.0144 16.3841 13.6071 16.3841C14.1902 16.3841 14.8191 16.1284 15.4362 15.8732L23.344 12.6662C23.8568 12.4504 24.2046 11.9971 24.2046 11.4665C24.2046 10.6042 23.5762 10 22.789 10C22.3657 10 21.8147 10.2435 21.4226 10.4038L12.8616 13.8658H14.3452L5.78412 10.4038C5.38991 10.2435 4.8485 10 4.41562 10C3.63046 10 3 10.6042 3 11.4665C3 11.9971 3.34992 12.4504 3.86062 12.6662Z" fill="black"/>
</svg>
