<svg width="28" height="28" viewBox="0 0 28 28" fill="none" xmlns="http://www.w3.org/2000/svg">
<path d="M14.105 26.21C20.7369 26.21 26.2121 20.7273 26.2121 14.105C26.2121 7.47312 20.7273 2 14.0954 2C7.47523 2 2 7.47312 2 14.105C2 20.7273 7.48484 26.21 14.105 26.21Z" fill="black"/>
<path d="M8.44883 9.90967L11.4755 6.9767C11.6363 6.80842 11.8674 6.71045 12.0697 6.71045C12.5542 6.71045 12.9013 7.04795 12.9013 7.53029C12.9013 7.75389 12.8171 7.96365 12.6446 8.12232L11.3937 9.34553L10.9955 9.7053L11.5833 9.69569H19.1825C19.6628 9.69569 20.0141 10.0491 20.0141 10.5315C20.0141 11.0042 19.6532 11.3726 19.1825 11.3726H11.5737L10.9859 11.3438L11.3937 11.7324L12.6446 12.946C12.8171 13.1047 12.9013 13.3069 12.9013 13.5401C12.9013 14.0129 12.5542 14.3504 12.0697 14.3504C11.8674 14.3504 11.6459 14.2503 11.4755 14.1087L8.44883 11.149C8.11133 10.8233 8.10711 10.2472 8.44883 9.90967ZM19.7394 18.3099L16.7223 21.2717C16.5444 21.4304 16.3229 21.5284 16.1185 21.5284C15.6437 21.5284 15.2987 21.1834 15.2987 20.7085C15.2987 20.4753 15.3903 20.2848 15.5532 20.1165L16.8062 18.8933L17.2236 18.5335L16.6166 18.5452H9.00781C8.54469 18.5452 8.19336 18.1801 8.19336 17.6998C8.19336 17.2154 8.54469 16.8662 9.00781 16.8662H16.6262L17.2236 16.895L16.8062 16.5064L15.534 15.2949C15.3711 15.1341 15.2987 14.934 15.2987 14.7008C15.2987 14.2259 15.6341 13.8863 16.1185 13.8863C16.3325 13.8863 16.5636 13.9906 16.7223 14.1397L19.7394 17.0994C20.079 17.4369 20.1024 17.9649 19.7394 18.3099Z" fill="white"/>
</svg>
