<svg width="28" height="28" viewBox="0 0 28 28" fill="none" xmlns="http://www.w3.org/2000/svg">
<path d="M14.105 26.21C20.7369 26.21 26.2121 20.7273 26.2121 14.105C26.2121 7.47312 20.7273 2 14.0954 2C7.47523 2 2 7.47312 2 14.105C2 20.7273 7.48484 26.21 14.105 26.21ZM14.105 23.8255C8.71085 23.8255 4.39412 19.4991 4.39412 14.105C4.39412 8.71085 8.70124 4.38452 14.0954 4.38452C19.4895 4.38452 23.8276 8.71085 23.8276 14.105C23.8276 19.4991 19.4991 23.8255 14.105 23.8255Z" fill="black"/>
<path d="M8.97712 14.0012H12.9086C13.6023 14.0012 13.9939 13.6726 13.9939 12.9083V8.96726C13.9939 8.47437 13.6011 8.08367 13.1103 8.08367C12.6174 8.08367 12.215 8.47437 12.215 8.96726V9.4782L12.3608 11.1463L9.55742 8.21304C9.18805 7.81601 8.56227 7.81812 8.18446 8.20343C7.80665 8.58124 7.81204 9.20702 8.19407 9.57639L11.1156 12.3584L9.49134 12.2223H8.97712C8.48634 12.2223 8.09353 12.613 8.09353 13.108C8.09353 13.5987 8.48634 14.0012 8.97712 14.0012ZM15.0809 20.1125C15.5717 20.1125 15.9646 19.7218 15.9646 19.2268V18.718L15.8305 17.0499L18.6318 19.981C19.0012 20.3823 19.6268 20.378 20.0068 19.9927C20.3825 19.6128 20.3772 18.9774 19.9972 18.6177L17.0736 15.8377L18.6978 15.9718H19.2024C19.6932 15.9718 20.0956 15.5811 20.0956 15.0882C20.0956 14.5878 19.6932 14.1929 19.2024 14.1929H15.2828C14.5869 14.1929 14.1856 14.5236 14.1856 15.2783V19.2268C14.1856 19.7218 14.588 20.1125 15.0809 20.1125Z" fill="black"/>
</svg>
