<svg width="28" height="28" viewBox="0 0 28 28" fill="none" xmlns="http://www.w3.org/2000/svg">
<path d="M12.6559 24.7959C13.5604 24.7959 14.2232 24.1235 14.2232 23.2308V19.0052H14.5166C18.8294 19.0052 21.4609 20.2528 23.324 23.7157C23.7869 24.5585 24.3576 24.7474 24.9573 24.7474C25.7577 24.7474 26.388 23.9909 26.388 22.5591C26.388 14.0424 22.6525 8.8193 14.5166 8.8193H14.2232V4.6153C14.2232 3.72258 13.5604 3 12.6367 3C12.0161 3 11.5809 3.25453 10.9091 3.88476L1.6293 12.5332C1.16594 12.9731 1 13.4531 1 13.898C1 14.3248 1.17765 14.8249 1.63351 15.2552L10.9091 23.9709C11.5202 24.5426 12.0269 24.7959 12.6559 24.7959Z" fill="black"/>
</svg>
