<svg width="28" height="28" viewBox="0 0 28 28" fill="none" xmlns="http://www.w3.org/2000/svg">
<path d="M8.22502 9.75432L3.12854 12.1131C1.37331 12.9163 1.72745 15.3948 3.76088 15.4065L12.2363 15.4353C12.3931 15.4353 12.4306 15.4644 12.4306 15.6296L12.4499 24.0474C12.4499 26.0382 14.9188 26.4906 15.8009 24.5699L18.0945 19.6313L8.22502 9.75432ZM20.2435 14.9535L24.4358 5.91501C25.3475 3.92565 23.8016 2.56324 21.8699 3.46112L12.8954 7.61073L20.2435 14.9535Z" fill="black"/>
<path d="M23.4644 22.9117C23.8286 23.2759 24.4335 23.2759 24.7839 22.9117C25.1343 22.5474 25.1482 21.9564 24.7839 21.5921L6.46281 3.27316C6.09859 2.90895 5.49578 2.90895 5.13156 3.27316C4.77906 3.62566 4.77906 4.2423 5.13156 4.59269L23.4644 22.9117Z" fill="black"/>
</svg>
