<svg width="28" height="28" viewBox="0 0 28 28" fill="none" xmlns="http://www.w3.org/2000/svg">
<path d="M21.7155 5.01382C21.2235 5.01382 20.819 5.21515 20.2677 5.48867L5.4264 12.6957C4.39023 13.2069 4 13.7281 4 14.4441C4 15.1623 4.39023 15.691 5.4264 16.2022L20.2677 23.3996C20.8286 23.6731 21.2331 23.8766 21.7251 23.8766C22.6661 23.8766 23.3137 23.1612 23.3137 22.0173V6.87312C23.3137 5.72703 22.6565 5.01382 21.7155 5.01382ZM20.8921 7.81623C20.9603 7.81623 21.003 7.87271 21.003 7.95263L21.0126 20.9377C21.0126 21.0294 20.9699 21.0742 20.9017 21.0742C20.857 21.0742 20.8143 21.0528 20.7653 21.0294L7.24513 14.5688C7.18654 14.5433 7.14388 14.5006 7.14388 14.4441C7.14388 14.3876 7.18654 14.345 7.24513 14.3216L20.7557 7.87271C20.8047 7.83755 20.8474 7.81623 20.8921 7.81623Z" fill="black"/>
</svg>
