<svg width="28" height="28" viewBox="0 0 28 28" fill="none" xmlns="http://www.w3.org/2000/svg">
<path d="M25.4395 18.7145C25.4395 14.067 22.2947 10.8573 16.9762 10.8573H9.58005L5.64139 11.0382L6.00631 11.7102L8.93037 9.24382L11.9522 6.29772C12.1765 6.06592 12.3241 5.79053 12.3241 5.4078C12.3241 4.68242 11.8254 4.16351 11.0618 4.16351C10.7503 4.16351 10.3929 4.31562 10.1452 4.56335L3.40851 11.1922C3.1425 11.4486 3 11.792 3 12.1461C3 12.4906 3.1425 12.8361 3.40851 13.0904L10.1452 19.7171C10.3929 19.9745 10.7503 20.117 11.0618 20.117C11.8254 20.117 12.3241 19.6002 12.3241 18.8748C12.3241 18.4899 12.1765 18.2145 11.9522 17.9849L8.93037 15.0484L6.00631 12.5745L5.64139 13.2465L9.58005 13.4253H17.0487C20.8233 13.4253 22.8968 15.5652 22.8968 18.6163C22.8968 21.6748 20.8233 23.9131 17.0487 23.9131H14.3217C13.5527 23.9131 13.0191 24.4873 13.0191 25.1923C13.0191 25.8973 13.5527 26.4716 14.3217 26.4716H17.1342C22.3641 26.4716 25.4395 23.3947 25.4395 18.7145Z" fill="black"/>
</svg>
