<svg width="28" height="28" viewBox="0 0 28 28" fill="none" xmlns="http://www.w3.org/2000/svg">
<path d="M6.84421 24.8972H21.0295C23.5685 24.8972 24.8737 23.5919 24.8737 21.0914V6.82921C24.8737 4.32656 23.5685 3.02344 21.0295 3.02344H6.84421C4.31484 3.02344 3 4.31695 3 6.82921V21.0914C3 23.6016 4.31484 24.8972 6.84421 24.8972Z" fill="black"/>
<path d="M10.1609 10.7192C10.7759 10.7192 11.1697 11.1415 11.1697 11.8181V13.7426L10.9981 15.5006L12.6409 13.7112L16.8669 9.47767C17.1029 9.25338 17.3698 9.13525 17.705 9.13525C18.3188 9.13525 18.7749 9.55853 18.7749 10.2085C18.7749 10.4913 18.6387 10.786 18.4271 10.9976L14.1734 15.232L12.3647 16.8961L14.0354 16.7065H16.0695C16.7419 16.7065 17.1739 17.1002 17.1739 17.7035C17.1739 18.3185 16.7494 18.7123 16.0803 18.7123H10.3974C9.63289 18.7123 9.16602 18.334 9.16602 17.4947V11.831C9.16602 11.1682 9.55977 10.7192 10.1609 10.7192Z" fill="white"/>
</svg>
