<svg width="30" height="28" viewBox="0 0 30 28" fill="none" xmlns="http://www.w3.org/2000/svg">
<path d="M0.346225 11.4356C0.834425 11.9259 1.50754 11.8896 1.99035 11.4143L2.94872 10.4676L4.5924 8.68264V21.0914C4.5924 23.6016 5.91685 24.8972 8.43872 24.8972H17.5981C18.3673 24.8972 18.8447 24.4603 18.833 23.753C18.8234 23.036 18.3673 22.6013 17.5981 22.6013H8.58145C7.48972 22.6013 6.88832 22.0371 6.88832 20.8985V8.66342L8.54371 10.4676L9.49997 11.4143C9.98489 11.8896 10.6655 11.9259 11.1441 11.4356C11.6248 10.9624 11.6098 10.2743 11.1249 9.78937L7.12715 5.80125C6.24942 4.93313 5.24841 4.93735 4.37489 5.80125L0.375053 9.78937C-0.117365 10.2743 -0.122756 10.9624 0.346225 11.4356ZM10.726 4.16554C10.7356 4.87499 11.1938 5.31936 11.963 5.31936H20.9893C22.0789 5.31936 22.6707 5.88139 22.6707 7.01999V19.2551L21.0174 17.4413L20.059 16.5042C19.5762 16.0289 18.9052 15.9926 18.4149 16.4754C17.9363 16.9561 17.9513 17.6442 18.4341 18.1291L22.434 22.1076C23.3213 22.9854 24.3106 22.9833 25.1958 22.1076L29.1839 18.1291C29.6785 17.6442 29.6839 16.9561 29.2149 16.4754C28.7342 15.9926 28.0536 16.0193 27.5686 16.5042L26.6124 17.4413L24.9666 19.2359V6.82921C24.9666 4.31695 23.6539 3.02344 21.1224 3.02344H11.963C11.1938 3.02344 10.7164 3.4582 10.726 4.16554Z" fill="black"/>
</svg>
