<svg width="28" height="28" viewBox="0 0 28 28" fill="none" xmlns="http://www.w3.org/2000/svg">
<path d="M14.105 26.21C20.7369 26.21 26.2121 20.7273 26.2121 14.105C26.2121 7.47312 20.7273 2 14.0954 2C7.47523 2 2 7.47312 2 14.105C2 20.7273 7.48484 26.21 14.105 26.21ZM14.105 23.8255C8.71085 23.8255 4.39412 19.4991 4.39412 14.105C4.39412 8.71085 8.70124 4.38452 14.0954 4.38452C19.4895 4.38452 23.8276 8.71085 23.8276 14.105C23.8276 19.4991 19.4991 23.8255 14.105 23.8255Z" fill="black"/>
<path d="M14.1336 20.4901C15.55 20.4901 16.9178 20.0145 17.8909 19.2341C18.4787 18.7845 18.6034 18.1562 18.2218 17.7057C17.8264 17.2489 17.2684 17.2454 16.7448 17.6105C15.9538 18.2195 15.167 18.5331 14.1336 18.5331C11.9725 18.5331 10.1823 17.102 9.67088 15.188H10.7832C11.3476 15.188 11.5018 14.6269 11.1739 14.1894L9.30292 11.6169C8.97386 11.1727 8.41581 11.1439 8.07714 11.6169L6.22956 14.1894C5.90167 14.6366 6.04628 15.188 6.61065 15.188H7.75581C8.32159 18.3118 10.8929 20.4901 14.1336 20.4901ZM14.1144 7.68358C12.7098 7.68358 11.3303 8.14952 10.3689 8.92999C9.77894 9.37952 9.65636 10.0079 10.0379 10.4583C10.4333 10.9151 10.9914 10.9165 11.5032 10.5535C12.2963 9.9542 13.0831 9.631 14.1144 9.631C16.2777 9.631 18.0657 11.0621 18.5889 12.976H17.4168C16.8428 12.976 16.6961 13.5371 17.0164 13.9747L18.8971 16.5472C19.2261 16.9913 19.7842 17.0202 20.1228 16.5472L21.9704 13.9747C22.2983 13.5371 22.1537 12.976 21.5797 12.976H20.4922C19.9361 9.85015 17.3668 7.68358 14.1144 7.68358Z" fill="black"/>
</svg>
