<svg width="28" height="28" viewBox="0 0 28 28" fill="none" xmlns="http://www.w3.org/2000/svg">
<path d="M5.60991 23.8766C6.10187 23.8766 6.5064 23.6731 7.05764 23.3996L21.8969 16.2022C22.9352 15.691 23.3254 15.1623 23.3254 14.4441C23.3254 13.7281 22.9352 13.2069 21.8969 12.6957L7.05764 5.48867C6.49468 5.21515 6.09226 5.01382 5.5982 5.01382C4.65929 5.01382 4 5.72703 4 6.87312L4.00961 22.0173C4.00961 23.1612 4.6689 23.8766 5.60991 23.8766ZM6.42365 21.072C6.35545 21.072 6.31069 21.0252 6.31069 20.9356V7.95052C6.31069 7.86099 6.35545 7.81412 6.42365 7.81412C6.46631 7.81412 6.51108 7.83545 6.56006 7.8706L20.0803 14.3216C20.1388 14.345 20.1815 14.3876 20.1815 14.4441C20.1815 14.5006 20.1388 14.5433 20.0803 14.5688L6.56006 21.0252C6.51108 21.0507 6.46631 21.072 6.42365 21.072Z" fill="black"/>
</svg>
