<svg width="28" height="28" viewBox="0 0 28 28" fill="none" xmlns="http://www.w3.org/2000/svg">
<path d="M6.84421 24.8972H21.0295C23.5685 24.8972 24.8737 23.5919 24.8737 21.0914V6.82921C24.8737 4.32656 23.5685 3.02344 21.0295 3.02344H6.84421C4.31484 3.02344 3 4.31695 3 6.82921V21.0914C3 23.6016 4.31484 24.8972 6.84421 24.8972Z" fill="black"/>
<path d="M13.9774 7.69971C14.6114 7.69971 15.0687 8.13798 15.0687 8.76142V14.482L14.9485 17.0074L16.065 15.6185L17.4134 14.213C17.5964 14.0002 17.8613 13.897 18.1507 13.897C18.7306 13.897 19.1616 14.3121 19.1616 14.8814C19.1616 15.1814 19.0711 15.4134 18.8595 15.6218L14.8484 19.6844C14.5824 19.961 14.3241 20.0993 13.9774 20.0993C13.65 20.0993 13.3918 19.9706 13.1161 19.6844L9.09538 15.6218C8.89335 15.4134 8.8125 15.1814 8.8125 14.8814C8.8125 14.3121 9.23179 13.897 9.81374 13.897C10.1053 13.897 10.3701 14.0098 10.5511 14.213L11.9112 15.6312L13.0064 16.9978L12.8862 14.482V8.76142C12.8862 8.13798 13.3531 7.69971 13.9774 7.69971Z" fill="white"/>
</svg>
