<svg width="28" height="28" viewBox="0 0 28 28" fill="none" xmlns="http://www.w3.org/2000/svg">
<path d="M14.105 26.2121C20.7369 26.2121 26.2121 20.7369 26.2121 14.1071C26.2121 7.48484 20.7273 2 14.0954 2C7.47523 2 2 7.48484 2 14.1071C2 20.7369 7.48484 26.2121 14.105 26.2121Z" fill="black"/>
<path d="M8.05078 15.4862C8.05078 12.7691 9.96703 10.969 12.8398 10.969H16.2966L17.4213 11.0265L16.6371 10.4265L15.462 9.30545C15.2714 9.13084 15.1638 8.89553 15.1638 8.63889C15.1638 8.11178 15.581 7.6796 16.1081 7.6796C16.3798 7.6796 16.5959 7.77756 16.7822 7.96389L19.902 11.1263C20.1171 11.3436 20.2268 11.6194 20.2268 11.8857C20.2268 12.1616 20.1288 12.4278 19.902 12.6472L16.7726 15.8384C16.598 16.013 16.3681 16.111 16.0922 16.111C15.5843 16.111 15.1596 15.6809 15.1596 15.1475C15.1596 14.8951 15.2693 14.6555 15.462 14.4734L16.8335 13.2005L17.4096 12.7894L16.2966 12.8544H12.8398C11.1176 12.8544 9.97827 13.906 9.97827 15.4862C9.97827 17.1582 11.1347 18.2729 12.8431 18.2729H14.4949C15.109 18.2729 15.5166 18.6657 15.5166 19.2298C15.5166 19.8099 15.1015 20.1898 14.4778 20.1898H12.8431C9.97453 20.1898 8.05078 18.3237 8.05078 15.4862Z" fill="white"/>
</svg>
