<svg width="28" height="28" viewBox="0 0 28 28" fill="none" xmlns="http://www.w3.org/2000/svg">
<path d="M8 14.3723C8 14.7686 8.14133 15.1044 8.4589 15.4178L17.5958 24.3522C17.852 24.618 18.1709 24.7466 18.5494 24.7466C19.3149 24.7466 19.9208 24.1525 19.9208 23.3934C19.9208 23.0106 19.7581 22.6748 19.4989 22.4102L11.2587 14.3701L19.4989 6.33435C19.7602 6.06764 19.9208 5.72428 19.9208 5.35327C19.9208 4.59203 19.3149 4 18.5494 4C18.1688 4 17.852 4.12867 17.5958 4.38484L8.4589 13.3267C8.14344 13.6305 8.00211 13.9738 8 14.3723Z" fill="black"/>
</svg>
