<svg width="28" height="28" viewBox="0 0 28 28" fill="none" xmlns="http://www.w3.org/2000/svg">
<path d="M14.105 26.21C20.7369 26.21 26.2121 20.7273 26.2121 14.105C26.2121 7.47312 20.7273 2 14.0954 2C7.47523 2 2 7.47312 2 14.105C2 20.7273 7.48484 26.21 14.105 26.21ZM14.105 23.8255C8.71085 23.8255 4.39412 19.4991 4.39412 14.105C4.39412 8.71085 8.70124 4.38452 14.0954 4.38452C19.4895 4.38452 23.8276 8.71085 23.8276 14.105C23.8276 19.4991 19.4991 23.8255 14.105 23.8255Z" fill="black"/>
<path d="M17.7488 11.0089C17.1678 11.0089 16.7921 11.4153 16.7921 12.0559V13.9271L16.9636 15.6202L15.3816 13.8978L11.2864 9.80466C11.0642 9.59631 10.8132 9.48029 10.4961 9.48029C9.90452 9.48029 9.4707 9.88341 9.4707 10.5015C9.4707 10.7759 9.60265 11.0546 9.79835 11.2503L13.9137 15.3561L15.6554 16.9573L14.0497 16.7698H12.0687C11.4303 16.7698 11.0164 17.1455 11.0164 17.7287C11.0164 18.3118 11.4228 18.6875 12.0558 18.6875H17.5325C18.2609 18.6875 18.7172 18.3294 18.7172 17.5262V12.0709C18.7172 11.442 18.3319 11.0089 17.7488 11.0089Z" fill="black"/>
</svg>
