<svg width="28" height="28" viewBox="0 0 28 28" fill="none" xmlns="http://www.w3.org/2000/svg">
<path d="M3 18.7145C3 23.3947 6.06585 26.4716 11.3053 26.4716H14.1178C14.8868 26.4716 15.4205 25.8973 15.4205 25.1923C15.4205 24.4873 14.8868 23.9131 14.1178 23.9131H11.393C7.61834 23.9131 5.53311 21.6748 5.53311 18.6163C5.53311 15.5652 7.61834 13.4253 11.393 13.4253H18.8499L22.7981 13.2465L22.4332 12.5745L19.4995 15.0484L16.4873 17.9849C16.2534 18.2145 16.1154 18.4899 16.1154 18.8748C16.1154 19.6002 16.6162 20.117 17.3681 20.117C17.6892 20.117 18.0466 19.9745 18.2944 19.7171L25.031 13.0904C25.297 12.8361 25.4395 12.4906 25.4395 12.1461C25.4395 11.792 25.297 11.4486 25.031 11.1922L18.2944 4.56335C18.0466 4.31562 17.6892 4.16351 17.3681 4.16351C16.6162 4.16351 16.1154 4.68242 16.1154 5.4078C16.1154 5.79053 16.2534 6.06592 16.4873 6.29772L19.4995 9.24382L22.4332 11.7102L22.7981 11.0382L18.8499 10.8573H11.4633C6.13523 10.8573 3 14.067 3 18.7145Z" fill="black"/>
</svg>
