<svg width="28" height="28" viewBox="0 0 28 28" fill="none" xmlns="http://www.w3.org/2000/svg">
<path d="M14.105 26.21C20.7369 26.21 26.2121 20.7273 26.2121 14.105C26.2121 7.47312 20.7273 2 14.0954 2C7.47523 2 2 7.47312 2 14.105C2 20.7273 7.48484 26.21 14.105 26.21ZM14.105 23.8255C8.71085 23.8255 4.39412 19.4991 4.39412 14.105C4.39412 8.71085 8.70124 4.38452 14.0954 4.38452C19.4895 4.38452 23.8276 8.71085 23.8276 14.105C23.8276 19.4991 19.4991 23.8255 14.105 23.8255Z" fill="black"/>
<path d="M9.96281 8.67239L7.10836 11.5939C6.97102 11.7504 6.86133 11.9794 6.86133 12.1604C6.86133 12.6151 7.20422 12.9559 7.66101 12.9559C7.87078 12.9559 8.06672 12.8663 8.21367 12.7173L9.39328 11.4886L9.76266 11.0904L9.74344 11.6794V19.0095C9.74344 19.4546 10.0905 19.79 10.5431 19.79C11.0116 19.79 11.3449 19.4546 11.3449 19.0095V11.6698L11.3257 11.0904L11.6951 11.4886L12.8822 12.7269C13.0291 12.8759 13.2293 12.9559 13.437 12.9559C13.8938 12.9559 14.2195 12.6247 14.2195 12.1604C14.2195 11.9602 14.1173 11.7312 13.98 11.5939L11.133 8.67239C10.8307 8.36044 10.3132 8.31779 9.96281 8.67239ZM18.2405 19.5505L21.0778 16.6386C21.2227 16.482 21.3302 16.2627 21.3302 16.0625C21.3302 15.5982 20.9991 15.2745 20.5423 15.2745C20.3208 15.2745 20.1174 15.3566 19.98 15.5056L18.7983 16.7246L18.4289 17.1228L18.4502 16.553V9.21333C18.4502 8.75864 18.1031 8.42325 17.6484 8.42325C17.1916 8.42325 16.8466 8.75864 16.8466 9.21333V16.5627L16.868 17.1324L16.4986 16.7246L15.319 15.5056C15.1624 15.347 14.974 15.2745 14.7546 15.2745C14.2882 15.2745 13.9763 15.5982 13.9763 16.0625C13.9763 16.253 14.0646 16.4724 14.202 16.6386L17.0489 19.5505C17.3513 19.8507 17.9072 19.8934 18.2405 19.5505Z" fill="black"/>
</svg>
