<svg width="28" height="28" viewBox="0 0 28 28" fill="none" xmlns="http://www.w3.org/2000/svg">
<path d="M14.105 26.21C20.7369 26.21 26.2121 20.7273 26.2121 14.105C26.2121 7.47312 20.7273 2 14.0954 2C7.47523 2 2 7.47312 2 14.105C2 20.7273 7.48484 26.21 14.105 26.21ZM14.105 23.8255C8.71085 23.8255 4.39412 19.4991 4.39412 14.105C4.39412 8.71085 8.70124 4.38452 14.0954 4.38452C19.4895 4.38452 23.8276 8.71085 23.8276 14.105C23.8276 19.4991 19.4991 23.8255 14.105 23.8255Z" fill="black"/>
<path d="M15.3462 17.8405L19.8366 13.0667C20.224 12.6516 20.2336 12.0387 19.8718 11.6811C19.4621 11.2777 18.8363 11.2681 18.4681 11.664L14.1059 16.2957L9.74366 11.664C9.36585 11.2681 8.73046 11.2681 8.33249 11.6811C7.97812 12.0484 7.98773 12.6474 8.36554 13.0625L12.8656 17.8384C13.6153 18.6488 14.5868 18.6509 15.3462 17.8405Z" fill="black"/>
</svg>
