<svg width="28" height="28" viewBox="0 0 28 28" fill="none" xmlns="http://www.w3.org/2000/svg">
<path d="M14.105 26.21C20.7369 26.21 26.2121 20.7273 26.2121 14.105C26.2121 7.47312 20.7273 2 14.0954 2C7.47523 2 2 7.47312 2 14.105C2 20.7273 7.48484 26.21 14.105 26.21ZM14.105 23.8255C8.71085 23.8255 4.39412 19.4991 4.39412 14.105C4.39412 8.71085 8.70124 4.38452 14.0954 4.38452C19.4895 4.38452 23.8276 8.71085 23.8276 14.105C23.8276 19.4991 19.4991 23.8255 14.105 23.8255Z" fill="black"/>
<path d="M13.4654 18.5061C13.7466 18.9983 14.4495 19.0175 14.75 18.5061L18.6715 11.8128C18.9975 11.262 18.7367 10.6304 18.1679 10.6304H10.0337C9.46485 10.6304 9.21149 11.3026 9.51828 11.8128L13.4654 18.5061Z" fill="black"/>
</svg>
