<svg width="28" height="28" viewBox="0 0 28 28" fill="none" xmlns="http://www.w3.org/2000/svg">
<path d="M6.84421 24.8972H21.0295C23.5685 24.8972 24.8737 23.5919 24.8737 21.0914V6.82921C24.8737 4.32656 23.5685 3.02344 21.0295 3.02344H6.84421C4.31484 3.02344 3 4.31695 3 6.82921V21.0914C3 23.6016 4.31484 24.8972 6.84421 24.8972Z" fill="black"/>
<path d="M20.0139 15.3143C20.0139 18.1615 18.0902 20.0276 15.2216 20.0276H13.589C12.9653 20.0276 12.5481 19.6401 12.5481 19.0601C12.5481 18.4938 12.9578 18.1106 13.5719 18.1106H15.2216C16.93 18.1106 18.0885 16.9959 18.0885 15.3143C18.0885 13.7362 16.9471 12.6825 15.227 12.6825H11.7798L10.6551 12.6293L11.2312 13.0287L12.6048 14.3133C12.7954 14.4954 12.9072 14.7232 12.9072 14.9852C12.9072 15.5187 12.4804 15.9487 11.9725 15.9487C11.6966 15.9487 11.4667 15.8508 11.2921 15.6762L8.16273 12.487C7.93797 12.258 7.83789 11.9897 7.83789 11.7255C7.83789 11.4476 7.94969 11.1813 8.16273 10.9566L11.2825 7.79202C11.4688 7.60569 11.6849 7.51733 11.9587 7.51733C12.4837 7.51733 12.9009 7.93991 12.9009 8.47873C12.9009 8.72366 12.7933 8.97069 12.6048 9.13358L11.4276 10.2567L10.6455 10.8642L11.7798 10.7993H15.227C18.0977 10.7993 20.0139 12.5993 20.0139 15.3143Z" fill="white"/>
</svg>
