<svg width="28" height="28" viewBox="0 0 28 28" fill="none" xmlns="http://www.w3.org/2000/svg">
<path d="M2 11.0166C2 16.0235 6.20047 20.9674 12.7529 25.1862C13.1023 25.4081 13.5479 25.6355 13.8371 25.6355C14.1359 25.6355 14.5719 25.4081 14.9309 25.1862C21.4833 20.9674 25.6838 16.0235 25.6838 11.0166C25.6838 6.7057 22.7075 3.71484 18.8651 3.71484C16.6402 3.71484 14.8909 4.73977 13.8371 6.28383C12.8026 4.74938 11.0457 3.71484 8.80906 3.71484C4.97632 3.71484 2 6.7057 2 11.0166ZM4.36131 11.006C4.36131 8.03225 6.31366 6.03608 8.93538 6.03608C11.0616 6.03608 12.2459 7.31858 12.9929 8.43772C13.3135 8.91069 13.538 9.0628 13.8371 9.0628C14.1458 9.0628 14.3448 8.89897 14.6888 8.43772C15.4826 7.33569 16.6318 6.03608 18.7388 6.03608C21.3702 6.03608 23.3225 8.03225 23.3225 11.006C23.3225 15.1545 19.0018 19.7356 14.0621 23.0145C13.9576 23.0881 13.884 23.1403 13.8371 23.1403C13.7998 23.1403 13.7262 23.0881 13.6217 23.0145C8.68413 19.7356 4.36131 15.1545 4.36131 11.006Z" fill="black"/>
<path d="M14.7141 11.5304C14.7141 10.9761 14.2395 10.5481 13.6873 10.5481C13.1351 10.5481 12.6701 10.9761 12.6701 11.5304V15.3507L12.7552 17.1744L11.8561 16.2317L10.9767 15.3364C10.8117 15.1438 10.5424 15.0247 10.2923 15.0247C9.75913 15.0247 9.375 15.4025 9.375 15.9198C9.375 16.2167 9.48257 16.4328 9.70171 16.6243L12.9108 19.5617C13.178 19.813 13.4077 19.9149 13.6873 19.9149C13.9669 19.9149 14.1966 19.813 14.4638 19.5617L17.6728 16.6243C17.892 16.4328 17.9996 16.2167 17.9996 15.9198C17.9996 15.4025 17.6058 15.0247 17.0843 15.0247C16.8246 15.0247 16.5682 15.1438 16.3979 15.3364L15.5206 16.2317L14.6194 17.1744L14.7141 15.3507V11.5304Z" fill="black"/>
</svg>
