<svg width="28" height="28" viewBox="0 0 28 28" fill="none" xmlns="http://www.w3.org/2000/svg">
<path d="M14.105 26.21C20.7369 26.21 26.2121 20.7273 26.2121 14.105C26.2121 7.47312 20.7273 2 14.0954 2C7.47523 2 2 7.47312 2 14.105C2 20.7273 7.48484 26.21 14.105 26.21ZM14.105 23.8255C8.71085 23.8255 4.39412 19.4991 4.39412 14.105C4.39412 8.71085 8.70124 4.38452 14.0954 4.38452C19.4895 4.38452 23.8276 8.71085 23.8276 14.105C23.8276 19.4991 19.4991 23.8255 14.105 23.8255Z" fill="black"/>
<path d="M20.1442 14.0975C20.1442 13.7785 20.0294 13.5362 19.7634 13.2765L15.7898 9.34482C15.5995 9.15873 15.3717 9.07037 15.0876 9.07037C14.5502 9.07037 14.151 9.47373 14.151 10.0217C14.151 10.3069 14.2734 10.5537 14.451 10.7326L15.8589 12.0971L17.1967 13.1689L14.7874 13.0604H9.03507C8.45312 13.0604 8.02539 13.4975 8.02539 14.0975C8.02539 14.6879 8.45312 15.125 9.03507 15.125H14.7874L17.1967 15.0261L15.8695 16.0958L14.451 17.4624C14.2617 17.6295 14.151 17.8763 14.151 18.1637C14.151 18.7137 14.5502 19.1267 15.0876 19.1267C15.3717 19.1267 15.5995 19.0266 15.7898 18.8405L19.7634 14.9185C20.0198 14.678 20.1442 14.4165 20.1442 14.0975Z" fill="black"/>
</svg>
