<svg width="28" height="28" viewBox="0 0 28 28" fill="none" xmlns="http://www.w3.org/2000/svg">
<path d="M6.84421 24.8972H21.0295C23.5685 24.8972 24.8737 23.5919 24.8737 21.0914V6.82921C24.8737 4.32656 23.5685 3.02344 21.0295 3.02344H6.84421C4.31484 3.02344 3 4.31695 3 6.82921V21.0914C3 23.6016 4.31484 24.8972 6.84421 24.8972ZM6.97733 22.6013C5.88772 22.6013 5.29592 22.0371 5.29592 20.8985V7.01999C5.29592 5.88139 5.88772 5.31936 6.97733 5.31936H20.8964C21.9764 5.31936 22.5778 5.88139 22.5778 7.01999V20.8985C22.5778 22.0371 21.9764 22.6013 20.8964 22.6013H6.97733Z" fill="black"/>
<path d="M8.18554 16.6826C8.58561 17.0955 9.221 17.0955 9.5892 16.6997L13.9514 12.068L18.3232 16.6997C18.6914 17.0955 19.3268 17.0955 19.7248 16.6826C20.0792 16.3324 20.0696 15.712 19.6918 15.3066L15.1917 10.5211C14.4324 9.72023 13.4705 9.72445 12.7207 10.5253L8.22069 15.3087C7.83327 15.7141 7.82366 16.3324 8.18554 16.6826Z" fill="black"/>
</svg>
