<svg width="28" height="28" viewBox="0 0 28 28" fill="none" xmlns="http://www.w3.org/2000/svg">
<path d="M7.87764 3C7.20756 3 6.60803 3.02555 6.1489 3.09891C5.58312 3.20109 5 3.57117 5 4.35022C5 5.09459 5.52218 5.56357 6.27077 5.56357C6.70296 5.56357 7.16561 5.52959 7.79537 5.52959C11.5855 5.52959 13.2439 6.83998 13.2343 10.6877L13.2247 18.233L13.3344 21.296L11.2067 18.9499L7.57718 15.3024C7.34538 15.0684 7.02194 14.9304 6.65632 14.9304C5.96187 14.9304 5.43336 15.4601 5.43336 16.1862C5.43336 16.5138 5.56625 16.8211 5.8332 17.0998L13.5575 24.8379C13.8139 25.1018 14.1594 25.2485 14.5018 25.2485C14.8559 25.2485 15.2014 25.1018 15.4557 24.8379L23.1842 17.0998C23.4512 16.8211 23.5841 16.5138 23.5841 16.1862C23.5841 15.4601 23.0555 14.9304 22.3515 14.9304C21.9955 14.9304 21.672 15.0684 21.4402 15.3024L17.7969 18.9499L15.6905 21.2864L15.7906 18.233V10.5253C15.7906 5.19 13.1916 3 7.87764 3Z" fill="black"/>
</svg>
