<svg width="28" height="28" viewBox="0 0 28 28" fill="none" xmlns="http://www.w3.org/2000/svg">
<path d="M6.84421 24.8737H21.0295C23.5685 24.8737 24.8737 23.5685 24.8737 21.068V6.80577C24.8737 4.30312 23.5685 3 21.0295 3H6.84421C4.31484 3 3 4.29351 3 6.80577V21.068C3 23.5781 4.31484 24.8737 6.84421 24.8737Z" fill="black"/>
<path d="M7.91211 15.2909C7.91211 12.5758 9.83046 10.7758 12.7107 10.7758H16.1579L17.2827 10.8408L16.5006 10.2333L15.3233 9.11015C15.1349 8.94726 15.0369 8.70023 15.0369 8.45531C15.0369 7.91648 15.4445 7.4939 15.9695 7.4939C16.2432 7.4939 16.4593 7.58226 16.6456 7.76859L19.7654 10.9331C19.9784 11.1579 20.0881 11.4241 20.0881 11.7021C20.0881 11.9662 19.9902 12.2346 19.7654 12.4636L16.636 15.6527C16.4614 15.8273 16.2294 15.9253 15.9556 15.9253C15.4456 15.9253 15.0306 15.4952 15.0306 14.9618C15.0306 14.6998 15.1327 14.4719 15.3233 14.2898L16.697 13.0052L17.2731 12.6058L16.1579 12.659H12.7107C10.981 12.659 9.8396 13.7128 9.8396 15.2909C9.8396 16.9725 10.9981 18.0872 12.7161 18.0872H14.3563C14.9703 18.0872 15.3779 18.4704 15.3779 19.0366C15.3779 19.6167 14.9628 20.0041 14.3392 20.0041H12.7161C9.83796 20.0041 7.91211 18.138 7.91211 15.2909Z" fill="white"/>
</svg>
