<svg width="28" height="28" viewBox="0 0 28 28" fill="none" xmlns="http://www.w3.org/2000/svg">
<path d="M7.87764 25.2485C13.1916 25.2485 15.7906 23.0585 15.7906 17.7232V10.0155L15.6905 6.96208L17.7969 9.29646L21.4402 12.9462C21.672 13.178 21.9955 13.316 22.3515 13.316C23.0555 13.316 23.5841 12.7884 23.5841 12.0623C23.5841 11.7326 23.4512 11.4253 23.1842 11.1488L15.4557 3.41062C15.2014 3.14461 14.8559 3 14.5018 3C14.1594 3 13.8139 3.14461 13.5575 3.41062L5.8332 11.1488C5.56625 11.4253 5.43336 11.7326 5.43336 12.0623C5.43336 12.7884 5.96187 13.316 6.65632 13.316C7.02194 13.316 7.34538 13.178 7.57718 12.9462L11.2067 9.29646L13.3344 6.95247L13.2247 10.0155L13.2343 17.5608C13.2439 21.4085 11.5855 22.7189 7.79537 22.7189C7.16561 22.7189 6.70296 22.6828 6.27077 22.6828C5.52218 22.6828 5 23.1539 5 23.8983C5 24.6773 5.58312 25.0357 6.1489 25.1496C6.60803 25.2326 7.20756 25.2485 7.87764 25.2485Z" fill="black"/>
</svg>
