<svg width="28" height="28" viewBox="0 0 28 28" fill="none" xmlns="http://www.w3.org/2000/svg">
<path d="M14.105 26.21C20.7369 26.21 26.2121 20.7273 26.2121 14.105C26.2121 7.47312 20.7273 2 14.0954 2C7.47523 2 2 7.47312 2 14.105C2 20.7273 7.48484 26.21 14.105 26.21ZM14.105 23.8255C8.71085 23.8255 4.39412 19.4991 4.39412 14.105C4.39412 8.71085 8.70124 4.38452 14.0954 4.38452C19.4895 4.38452 23.8276 8.71085 23.8276 14.105C23.8276 19.4991 19.4991 23.8255 14.105 23.8255Z" fill="black"/>
<path d="M18.7276 19.5495C18.9479 19.772 19.3311 19.772 19.5514 19.5495C19.7835 19.31 19.7835 18.9556 19.5514 18.7257L9.48411 8.64873C9.24458 8.4167 8.87849 8.4167 8.64646 8.64873C8.41654 8.87865 8.41654 9.25224 8.64646 9.47255L18.7276 19.5495ZM17.1034 14.9623L19.5029 9.82459C19.9438 8.86951 19.1007 8.03068 18.1382 8.48115L13.0196 10.8903L17.1034 14.9623ZM7.88638 15.0683H12.9503L10.1343 12.2448L7.50903 13.4865C6.62826 13.9025 6.82982 15.0683 7.88638 15.0683ZM14.5339 20.4751L15.7489 17.8744L12.9521 15.0701V20.0956C12.9521 21.1597 14.1296 21.3516 14.5339 20.4751Z" fill="black"/>
</svg>
