<svg width="28" height="28" viewBox="0 0 28 28" fill="none" xmlns="http://www.w3.org/2000/svg">
<path d="M2.35622 17.1802L11.7598 26.5838C13.5532 28.3772 15.3886 28.3869 17.1703 26.6147L26.6145 17.161C28.3887 15.3868 28.377 13.5439 26.5857 11.7505L17.1896 2.35437C15.3982 0.563039 13.5629 0.54382 11.7811 2.32554L2.32528 11.7697C0.543563 13.5535 0.56278 15.3868 2.35622 17.1802Z" fill="black"/>
<path d="M9.19336 17.6949V14.731C9.19336 12.4927 10.2898 11.3846 12.5482 11.3846H15.908V9.84194C15.908 9.02514 16.7356 8.68741 17.3925 9.20373L20.3679 11.5304C21.0989 12.1175 21.1031 12.8492 20.3679 13.4384L17.3925 15.7726C16.7356 16.2889 15.908 15.9448 15.908 15.1343V13.6053H12.7805C11.8716 13.6053 11.4066 14.0703 11.4066 15.042V17.6949C11.4066 18.4538 10.9884 18.9123 10.2968 18.9219C9.59227 18.9315 9.19336 18.4538 9.19336 17.6949Z" fill="white"/>
</svg>
