<svg width="28" height="28" viewBox="0 0 28 28" fill="none" xmlns="http://www.w3.org/2000/svg">
<path d="M2 11.0166C2 16.0235 6.20047 20.9674 12.7529 25.1862C13.1023 25.4081 13.5479 25.6355 13.8371 25.6355C14.1359 25.6355 14.5719 25.4081 14.9309 25.1862C21.4833 20.9674 25.6838 16.0235 25.6838 11.0166C25.6838 6.7057 22.7075 3.71484 18.8651 3.71484C16.6402 3.71484 14.8909 4.73977 13.8371 6.28383C12.8026 4.74938 11.0457 3.71484 8.80906 3.71484C4.97632 3.71484 2 6.7057 2 11.0166ZM4.36131 11.006C4.36131 8.03225 6.31366 6.03608 8.93538 6.03608C11.0616 6.03608 12.2459 7.31858 12.9929 8.43772C13.3135 8.91069 13.538 9.0628 13.8371 9.0628C14.1458 9.0628 14.3448 8.89897 14.6888 8.43772C15.4826 7.33569 16.6318 6.03608 18.7388 6.03608C21.3702 6.03608 23.3225 8.03225 23.3225 11.006C23.3225 15.1545 19.0018 19.7356 14.0621 23.0145C13.9576 23.0881 13.884 23.1403 13.8371 23.1403C13.7998 23.1403 13.7262 23.0881 13.6217 23.0145C8.68413 19.7356 4.36131 15.1545 4.36131 11.006Z" fill="black"/>
<path d="M14.7141 18.9135V15.1124L14.6194 13.2962L15.5206 14.2313L16.3979 15.1342C16.5682 15.3193 16.8246 15.4363 17.0843 15.4363C17.6058 15.4363 17.9996 15.0681 17.9996 14.5433C17.9996 14.256 17.892 14.0399 17.6728 13.8484L14.4638 10.9013C14.1966 10.6575 13.9669 10.5481 13.6873 10.5481C13.4077 10.5481 13.178 10.6575 12.9108 10.9013L9.70171 13.8484C9.48257 14.0399 9.375 14.256 9.375 14.5433C9.375 15.0681 9.75913 15.4363 10.2923 15.4363C10.5424 15.4363 10.8117 15.3193 10.9767 15.1342L11.8561 14.2313L12.7552 13.2962L12.6701 15.1124V18.9135C12.6701 19.4678 13.1351 19.8957 13.6873 19.8957C14.2395 19.8957 14.7141 19.4678 14.7141 18.9135Z" fill="black"/>
</svg>
