<svg width="28" height="28" viewBox="0 0 28 28" fill="none" xmlns="http://www.w3.org/2000/svg">
<path d="M14.1601 25.1634C14.9092 25.1634 15.321 24.6856 15.321 23.801V17.239C15.321 14.4708 18.4571 10.5319 21.1501 8.81648L22.0961 8.205C22.4643 7.98047 22.6675 7.57711 22.6675 7.18125C22.6675 6.53532 22.2332 6.06517 21.5322 6.06517C21.2075 6.06517 20.8616 6.17696 20.5508 6.38134L19.934 6.78728C17.331 8.51908 14.63 11.8953 14.1761 13.7644H14.1367C13.6806 11.8856 10.9893 8.51908 8.38628 6.78728L7.76941 6.38134C7.45113 6.17485 7.11269 6.06306 6.78058 6.06306C6.07535 6.06306 5.65488 6.56837 5.65488 7.17165C5.65488 7.5675 5.85598 7.97625 6.22418 8.20289L7.17012 8.81648C9.84926 10.5319 13.0014 14.4708 13.0014 17.239V23.801C13.0014 24.6856 13.4132 25.1634 14.1601 25.1634ZM5.92887 10.2504L9.50121 5.63369C10.0431 4.93103 9.67394 4.32564 8.78965 4.2926L3.9695 4.09971C3.24364 4.06666 2.84357 4.57197 3.05755 5.27767L4.4495 9.88477C4.70286 10.7468 5.37528 10.9648 5.92887 10.2504ZM22.2318 10.2323C22.7598 10.9648 23.446 10.7723 23.7174 9.92203L25.2531 5.3522C25.4809 4.65822 25.0946 4.13908 24.3784 4.14658L19.5486 4.1958C18.6643 4.2033 18.2814 4.79275 18.7977 5.50923L22.2318 10.2323Z" fill="black"/>
</svg>
