<svg width="28" height="28" viewBox="0 0 28 28" fill="none" xmlns="http://www.w3.org/2000/svg">
<path d="M4.15891 12.0542C2.30548 12.9054 2.78665 15.434 4.81047 15.4436L13.2859 15.4725C13.4139 15.4725 13.4301 15.4823 13.4301 15.6187L13.4493 24.0365C13.4589 26.1159 16.0185 26.501 16.9007 24.5782L25.5334 5.92548C26.4526 3.91478 24.9013 2.47339 22.9002 3.40221L4.15891 12.0542ZM7.05434 13.2295C7.00114 13.2295 6.98731 13.1826 7.05223 13.155L22.8881 5.91867C22.9722 5.88352 23.0158 5.90485 22.9743 6.00703L15.6995 21.8311C15.6836 21.8822 15.6367 21.8684 15.6367 21.8173L15.689 14.2957C15.6911 13.5733 15.3025 13.1826 14.5705 13.1847L7.05434 13.2295Z" fill="black"/>
</svg>
