<svg width="28" height="28" viewBox="0 0 28 28" fill="none" xmlns="http://www.w3.org/2000/svg">
<path d="M14.105 26.21C20.7369 26.21 26.2121 20.7273 26.2121 14.105C26.2121 7.47312 20.7273 2 14.0954 2C7.47523 2 2 7.47312 2 14.105C2 20.7273 7.48484 26.21 14.105 26.21Z" fill="black"/>
<path d="M9.80242 8.46616C10.1591 8.10311 10.6968 8.12655 11.0322 8.46616L13.9823 11.4929C14.1335 11.6419 14.2357 11.873 14.2357 12.087C14.2357 12.5715 13.8982 12.9165 13.4233 12.9165C13.1997 12.9165 12.9879 12.8344 12.8388 12.6812L11.6059 11.3994L11.2366 10.9915L11.2558 11.5911V19.1977C11.2558 19.6609 10.9087 20.0122 10.4146 20.0122C9.94187 20.0122 9.57882 19.6609 9.57882 19.1977V11.6007L9.59804 10.9915L9.21906 11.3994L7.99585 12.6619C7.84679 12.8248 7.63913 12.9165 7.42515 12.9165C6.9407 12.9165 6.58398 12.5619 6.58398 12.087C6.58398 11.8923 6.70117 11.6633 6.84273 11.4929L9.80242 8.46616ZM18.4204 19.7567C18.0808 20.0984 17.5068 20.0963 17.1693 19.7567L14.2193 16.7396C14.0702 16.5596 13.9797 16.3381 13.9797 16.1359C13.9797 15.6514 14.3055 15.3139 14.79 15.3139C15.0232 15.3139 15.2254 15.3884 15.3841 15.5609L16.6073 16.8118L16.9767 17.2313L16.9554 16.6414V9.02303C16.9554 8.55241 17.3142 8.20108 17.7986 8.20108C18.2714 8.20108 18.6344 8.55241 18.6344 9.02303V16.6318L18.6152 17.2217L18.9942 16.8118L20.2153 15.5609C20.3665 15.4077 20.5741 15.3139 20.7977 15.3139C21.2822 15.3139 21.6293 15.6514 21.6293 16.1359C21.6293 16.3498 21.51 16.5692 21.363 16.7396L18.4204 19.7567Z" fill="white"/>
</svg>
