<svg width="28" height="28" viewBox="0 0 28 28" fill="none" xmlns="http://www.w3.org/2000/svg">
<path d="M14.105 26.21C20.7369 26.21 26.2121 20.7273 26.2121 14.105C26.2121 7.47312 20.7273 2 14.0954 2C7.47523 2 2 7.47312 2 14.105C2 20.7273 7.48484 26.21 14.105 26.21Z" fill="black"/>
<path d="M8.10678 16.9756C7.73647 16.6095 7.74608 15.9573 8.15154 15.5359L12.8121 10.5643C13.6033 9.73153 14.6172 9.72942 15.4085 10.5622L20.069 15.5316C20.4841 15.9552 20.4937 16.6095 20.1138 16.9756C19.686 17.4045 19.0263 17.4045 18.6421 16.9927L14.114 12.1812L9.57841 16.9927C9.19216 17.4045 8.53451 17.4045 8.10678 16.9756Z" fill="white"/>
</svg>
