<svg width="28" height="28" viewBox="0 0 28 28" fill="none" xmlns="http://www.w3.org/2000/svg">
<path d="M14.105 26.21C20.7369 26.21 26.2121 20.7273 26.2121 14.105C26.2121 7.47312 20.7273 2 14.0954 2C7.47523 2 2 7.47312 2 14.105C2 20.7273 7.48484 26.21 14.105 26.21Z" fill="black"/>
<path d="M10.2994 10.8793C10.9144 10.8793 11.3082 11.3017 11.3082 11.9783V13.9027L11.1345 15.6608L12.7794 13.8713L17.0054 9.63783C17.2318 9.41353 17.5084 9.29541 17.8435 9.29541C18.4574 9.29541 18.9114 9.71869 18.9114 10.3686C18.9114 10.6515 18.7773 10.9461 18.5657 11.1577L14.3099 15.3922L12.5012 17.0562L14.1718 16.8666H16.206C16.8805 16.8666 17.3124 17.2604 17.3124 17.8637C17.3124 18.4787 16.888 18.8724 16.2189 18.8724H10.5359C9.7714 18.8724 9.29492 18.4941 9.29492 17.6548V11.9912C9.29492 11.3284 9.69827 10.8793 10.2994 10.8793Z" fill="white"/>
</svg>
