<svg width="28" height="30" viewBox="0 0 28 30" fill="none" xmlns="http://www.w3.org/2000/svg">
<path d="M7.6003 29.133C8.21015 29.133 8.84764 28.7787 9.37217 28.2712L13.9153 23.9257C14.0379 23.7989 14.1295 23.7424 14.2254 23.7424C14.3212 23.7424 14.4108 23.7989 14.5333 23.9257L19.0786 28.2712C19.601 28.7787 20.231 29.133 20.8505 29.133C21.7591 29.133 22.4487 28.3441 22.4487 27.4282C22.4487 26.9088 22.259 26.3384 21.9813 25.623L16.1147 10.7133C15.6487 9.55663 15.0537 8.98804 14.2254 8.98804C13.3971 8.98804 12.8041 9.54608 12.3361 10.7133L6.46734 25.623C6.18961 26.3384 6 26.9088 6 27.4282C6 28.3441 6.67992 29.133 7.6003 29.133ZM14.2254 7.27921C14.8765 7.27921 15.3105 6.82593 15.3105 6.12469V1.14281C15.3105 0.44367 14.8765 0 14.2254 0C13.5722 0 13.1285 0.44367 13.1285 1.14281V6.12469C13.1285 6.82593 13.5722 7.27921 14.2254 7.27921Z" fill="black"/>
</svg>
