<svg width="28" height="28" viewBox="0 0 28 28" fill="none" xmlns="http://www.w3.org/2000/svg">
<path d="M3 9.45679C3 10.6315 4.2682 10.9737 5.04046 10.1918L10.1897 5.04257C10.9812 4.2607 10.6294 3 9.45468 3H4.23093C3.48609 3 3 3.52125 3 4.24476V9.45679ZM6.01711 7.72148L21.0567 22.7749L22.7728 21.0801L7.73319 6.01922L6.01711 7.72148ZM25.8016 19.3469C25.8016 18.1627 24.5313 17.8301 23.7494 18.6023L18.6002 23.7516C17.8184 24.543 18.1702 25.8016 19.3448 25.8016H24.5686C25.3134 25.8016 25.8016 25.2729 25.8016 24.5569V19.3469ZM25.8016 9.45679V4.24476C25.8016 3.52125 25.3134 3 24.5686 3H19.3448C18.1702 3 17.8184 4.2607 18.6002 5.04257L23.7494 10.1918C24.5313 10.9737 25.8016 10.6315 25.8016 9.45679ZM7.73319 22.7749L22.7824 7.72148L21.0663 6.01922L6.01711 21.0705L7.73319 22.7749ZM3 19.3469V24.5569C3 25.2729 3.48609 25.8016 4.23093 25.8016H9.45468C10.6294 25.8016 10.9812 24.543 10.1897 23.7516L5.04046 18.6023C4.2682 17.8301 3 18.1627 3 19.3469Z" fill="black"/>
</svg>
