<svg width="28" height="28" viewBox="0 0 28 28" fill="none" xmlns="http://www.w3.org/2000/svg">
<path d="M23.8723 21.7155C23.8723 21.2214 23.6614 20.819 23.3858 20.2677L16.1883 5.43601C15.6793 4.39023 15.1484 4 14.4303 4C13.7143 4 13.1931 4.39023 12.6819 5.43601L5.47695 20.2677C5.21094 20.8286 5 21.231 5 21.7251C5 22.6661 5.71531 23.3233 6.85929 23.3233L22.0034 23.3137C23.1474 23.3137 23.8723 22.6565 23.8723 21.7155ZM21.0582 20.9017C21.0582 20.9699 21.0135 21.0126 20.9239 21.0126H7.9367C7.84716 21.0126 7.8099 20.9699 7.8099 20.9017C7.8099 20.857 7.83123 20.8143 7.85677 20.7653L14.3077 7.24513C14.3408 7.18654 14.3759 7.14177 14.4303 7.14177C14.4964 7.14177 14.5316 7.18654 14.5646 7.24513L21.0135 20.7653C21.0369 20.8143 21.0582 20.857 21.0582 20.9017Z" fill="black"/>
</svg>
