<svg width="28" height="28" viewBox="0 0 28 28" fill="none" xmlns="http://www.w3.org/2000/svg">
<path d="M23.1954 4.43765C21.9874 3.23179 20.3147 3 18.1821 3H9.40827C7.30453 3 5.62968 3.23179 4.42383 4.43765C3.22008 5.6414 3 7.2982 3 9.39866V18.1821C3 20.3189 3.22008 21.9703 4.42383 23.1719C5.63179 24.3778 7.30453 24.6096 9.42749 24.6096H18.1821C20.3147 24.6096 21.9895 24.3778 23.1954 23.1719C24.3991 21.9682 24.6192 20.3189 24.6192 18.1821V9.42749C24.6192 7.28859 24.3991 5.62968 23.1954 4.43765Z" fill="black"/>
<path d="M17.6197 16.9952C16.9951 16.9952 16.6014 16.5612 16.6014 15.8962V13.9697L16.7751 12.2137L15.1302 14.0011L10.9041 18.2346C10.6798 18.4589 10.4012 18.577 10.066 18.577C9.45219 18.577 9.00781 18.1537 9.00781 17.5038C9.00781 17.223 9.14188 16.9284 9.35352 16.7168L13.5997 12.4706L15.4084 10.8183L13.7378 11.0058H11.7036C11.0291 11.0058 10.5971 10.6141 10.5971 10.0087C10.5971 9.39375 11.0216 9 11.6907 9H17.3833C18.1478 9 18.6147 9.38039 18.6147 10.2176V15.8812C18.6147 16.5344 18.2209 16.9952 17.6197 16.9952Z" fill="white"/>
</svg>
