<svg width="28" height="28" viewBox="0 0 28 28" fill="none" xmlns="http://www.w3.org/2000/svg">
<path d="M14.105 26.21C20.7369 26.21 26.2121 20.7273 26.2121 14.105C26.2121 7.47312 20.7273 2 14.0954 2C7.47523 2 2 7.47312 2 14.105C2 20.7273 7.48484 26.21 14.105 26.21Z" fill="black"/>
<path d="M9.14164 19.4497C8.61476 19.4497 8.2168 19.0709 8.2168 18.5516V9.6446C8.2168 9.12523 8.61476 8.74648 9.14164 8.74648C9.6514 8.74648 10.0398 9.12523 10.0398 9.6446V18.5516C10.0398 19.0709 9.6514 19.4497 9.14164 19.4497ZM21.6526 14.1125C21.6526 14.6701 21.2546 15.0425 20.7057 15.0425H15.6617L13.5765 14.8998L15.7632 16.8284L16.5292 17.5463C16.7197 17.7123 16.8153 17.9305 16.8153 18.2145C16.8153 18.7339 16.445 19.0967 15.9088 19.0967C15.6864 19.0967 15.4053 18.987 15.234 18.7976L11.1962 14.7999C10.9906 14.6115 10.8917 14.371 10.8917 14.1125C10.8917 13.8444 11.0098 13.6135 11.1962 13.4155L15.2436 9.39101C15.4288 9.18242 15.665 9.09945 15.8992 9.09945C16.4258 9.09945 16.8153 9.46226 16.8153 9.97624C16.8153 10.239 16.7218 10.4743 16.5292 10.6477L15.7728 11.3965L13.5861 13.3252L15.6617 13.1942H20.7057C21.2546 13.1942 21.6526 13.5741 21.6526 14.1125Z" fill="white"/>
</svg>
