<svg width="28" height="29" viewBox="0 0 28 29" fill="none" xmlns="http://www.w3.org/2000/svg">
<path d="M3.40855 6.29464C2.85425 6.82338 2.87347 7.62541 3.40855 8.13494L9.44792 14.0348C9.68839 14.2753 10.0416 14.4253 10.35 14.4253C11.0745 14.4253 11.5765 13.9158 11.5765 13.1988C11.5765 12.8594 11.4563 12.5744 11.2191 12.3436L8.71642 9.92932L6.89743 8.35478L9.40618 8.45298H24.6532C25.366 8.45298 25.8818 7.93713 25.8818 7.21479C25.8818 6.50206 25.366 5.9862 24.6532 5.9862H9.40618L6.89743 6.0748L8.71642 4.50986L11.2191 2.08595C11.4563 1.8551 11.5765 1.57971 11.5765 1.23073C11.5765 0.513774 11.0745 0.013855 10.35 0.013855C10.0416 0.013855 9.68839 0.154245 9.44792 0.394712L3.40855 6.29464ZM25.485 21.7966C26.0276 21.2679 26.018 20.4659 25.485 19.9488L19.4456 14.0468C19.2052 13.8159 18.8499 13.6659 18.5339 13.6659C17.8074 13.6659 17.3171 14.168 17.3171 14.8828C17.3171 15.2318 17.4277 15.5168 17.6628 15.738L20.1771 18.1619L21.9961 19.7365L19.4874 19.6383H4.23823C3.5255 19.6383 3.00003 20.1541 3.00003 20.8669C3.00003 21.5892 3.5255 22.1072 4.23823 22.1072H19.4874L21.9961 22.009L20.1771 23.5814L17.6628 25.9978C17.4277 26.2287 17.3171 26.5137 17.3171 26.8626C17.3171 27.5775 17.8074 28.0795 18.5339 28.0795C18.8499 28.0795 19.2052 27.9295 19.4456 27.6987L25.485 21.7966Z" fill="black"/>
</svg>
