<svg width="28" height="28" viewBox="0 0 28 28" fill="none" xmlns="http://www.w3.org/2000/svg">
<path d="M12.4705 26.7147C16.9332 26.7147 19.9217 23.7262 19.9217 19.2421V17.2002C19.9217 16.5482 19.392 16.0185 18.74 16.0185C18.0901 16.0185 17.5508 16.5482 17.5508 17.2002V19.2421C17.5508 22.3049 15.5119 24.3438 12.4705 24.3438C9.40975 24.3438 7.37092 22.3049 7.37092 19.2421V8.44913C7.37092 5.40764 9.40975 3.3592 12.4705 3.3592C15.5119 3.3592 17.5508 5.40764 17.5508 8.44913V9.99366H19.9217V8.44913C19.9217 3.9789 16.9332 1 12.4705 1C7.98851 1 5 3.9789 5 8.44913V19.2421C5 23.7262 7.98851 26.7147 12.4705 26.7147ZM21.6476 8.37367H15.8963C15.0148 8.37367 14.7648 9.03859 15.2734 9.75694L18.0186 13.6176C18.4421 14.2061 19.0848 14.2094 19.5137 13.6176L22.2727 9.76866C22.7888 9.0407 22.5547 8.37367 21.6476 8.37367Z" fill="black"/>
</svg>
