<svg width="28" height="28" viewBox="0 0 28 28" fill="none" xmlns="http://www.w3.org/2000/svg">
<path d="M2 14.3983C2 14.7344 2.13828 15.0651 2.39797 15.3173L8.5925 21.4115C8.83391 21.6529 9.18078 21.7912 9.49343 21.7912C10.2221 21.7912 10.7103 21.287 10.7103 20.5806C10.7103 20.2105 10.5765 19.9415 10.351 19.7181L7.79959 17.252L5.79169 15.5244L8.43029 15.6416H18.8907L21.5293 15.5244L19.5214 17.252L16.9796 19.7181C16.7541 19.9415 16.6203 20.2105 16.6203 20.5806C16.6203 21.287 17.1085 21.7912 17.8372 21.7912C18.1498 21.7912 18.4967 21.6529 18.7381 21.4115L24.9326 15.3173C25.1923 15.0651 25.3306 14.7344 25.3306 14.3983C25.3306 14.0547 25.1923 13.7198 24.9326 13.4718L18.7381 7.37969C18.4967 7.13828 18.1498 7 17.8372 7C17.1085 7 16.6203 7.50414 16.6203 8.21054C16.6203 8.58062 16.7541 8.84968 16.9796 9.07303L19.5214 11.5466L21.5293 13.2625L18.8907 13.1474H8.43029L5.79169 13.2625L7.79959 11.5466L10.351 9.07303C10.5765 8.84968 10.7103 8.58062 10.7103 8.21054C10.7103 7.50414 10.2221 7 9.49343 7C9.18078 7 8.83391 7.13828 8.5925 7.37969L2.39797 13.4718C2.13828 13.7198 2 14.0547 2 14.3983Z" fill="black"/>
</svg>
