<svg width="28" height="28" viewBox="0 0 28 28" fill="none" xmlns="http://www.w3.org/2000/svg">
<path d="M14.105 26.2301C20.7369 26.2301 26.2121 20.7549 26.2121 14.123C26.2121 7.50291 20.7273 2.01807 14.0954 2.01807C7.47523 2.01807 2 7.50291 2 14.123C2 20.7549 7.48484 26.2301 14.105 26.2301Z" fill="black"/>
<path d="M8.61958 19.164L13.1381 7.66507C13.5 6.76039 14.7037 6.73906 15.0635 7.64585L19.582 19.164C19.9554 20.0947 18.9532 20.7828 18.1706 19.9981L14.4145 16.2441C14.227 16.0449 13.9863 16.0449 13.7967 16.2441L10.0427 19.9981C9.2484 20.7828 8.24622 20.0947 8.61958 19.164Z" fill="white"/>
</svg>
