<svg width="28" height="28" viewBox="0 0 28 28" fill="none" xmlns="http://www.w3.org/2000/svg">
<path d="M14.7296 23.3386C14.9433 23.8568 15.3966 24.2067 15.9198 24.2067C16.7799 24.2046 17.3937 23.5805 17.3937 22.7815C17.3937 22.3603 17.1502 21.8168 16.9803 21.413L13.5183 12.8498V14.3494L16.9803 5.78412C17.1502 5.38241 17.3937 4.82718 17.3937 4.41772C17.3937 3.62835 16.7799 3.00422 15.9198 3C15.3966 3 14.9433 3.34031 14.7296 3.85851L11.5109 11.7684C11.2557 12.3877 11 13.0144 11 13.5996C11 14.1848 11.2557 14.8116 11.5109 15.4308L14.7296 23.3386Z" fill="black"/>
</svg>
