<svg width="28" height="28" viewBox="0 0 28 28" fill="none" xmlns="http://www.w3.org/2000/svg">
<path d="M13.6662 23.3386L16.8828 15.4308C17.138 14.8116 17.3937 14.1848 17.3937 13.5996C17.3937 13.0144 17.138 12.3877 16.8828 11.7684L13.6662 3.85851C13.4525 3.34031 12.9971 3 12.4665 3C11.6042 3.00422 11 3.62835 11 4.41772C11 4.82718 11.2435 5.38241 11.4038 5.78412L14.8658 14.3494V12.8498L11.4038 21.413C11.2435 21.8168 11 22.3603 11 22.7815C11 23.5805 11.6042 24.2046 12.4665 24.2067C12.9971 24.2067 13.4525 23.8568 13.6662 23.3386Z" fill="black"/>
</svg>
