<svg width="28" height="28" viewBox="0 0 28 28" fill="none" xmlns="http://www.w3.org/2000/svg">
<path d="M14.105 26.21C20.7369 26.21 26.2121 20.7273 26.2121 14.105C26.2121 7.47312 20.7273 2 14.0954 2C7.47523 2 2 7.47312 2 14.105C2 20.7273 7.48484 26.21 14.105 26.21ZM14.105 23.8255C8.71085 23.8255 4.39412 19.4991 4.39412 14.105C4.39412 8.71085 8.70124 4.38452 14.0954 4.38452C19.4895 4.38452 23.8276 8.71085 23.8276 14.105C23.8276 19.4991 19.4991 23.8255 14.105 23.8255Z" fill="black"/>
<path d="M9.09063 14.1671C9.58351 14.1671 9.98594 13.7764 9.98594 13.2835V12.7494L9.84015 11.0813L12.187 13.558C12.5563 13.9688 13.1821 13.9529 13.562 13.5676C13.9377 13.1898 13.9345 12.5544 13.5524 12.1946L11.0929 9.86913L12.7192 10.0032H13.247C13.7399 10.0032 14.1327 9.61249 14.1327 9.1196C14.1327 8.62882 13.7399 8.22429 13.247 8.22429H9.29242C8.59867 8.22429 8.20703 8.55499 8.20703 9.31929V13.2835C8.20703 13.7764 8.59985 14.1671 9.09063 14.1671ZM14.9402 20.0049H18.8852C19.581 20.0049 19.9823 19.6763 19.9823 18.912V14.9478C19.9823 14.4528 19.5777 14.0621 19.087 14.0621C18.5962 14.0621 18.2034 14.4528 18.2034 14.9478V15.4819L18.3374 17.15L16.0002 14.6712C15.6213 14.2625 15.0051 14.2763 14.6177 14.6616C14.242 15.0416 14.2431 15.6748 14.6273 16.0367L17.0943 18.3622L15.4701 18.226H14.9402C14.4494 18.226 14.047 18.6167 14.047 19.1096C14.047 19.6025 14.4494 20.0049 14.9402 20.0049Z" fill="black"/>
</svg>
