<svg width="28" height="28" viewBox="0 0 28 28" fill="none" xmlns="http://www.w3.org/2000/svg">
<path d="M12.6559 24.7959C13.5604 24.7959 14.2232 24.1235 14.2232 23.2308V19.0052H14.5166C18.8294 19.0052 21.4609 20.2528 23.324 23.7157C23.7869 24.5585 24.3576 24.7474 24.9573 24.7474C25.7577 24.7474 26.388 23.9909 26.388 22.5591C26.388 14.0424 22.6525 8.8193 14.5166 8.8193H14.2232V4.6153C14.2232 3.72258 13.5604 3 12.6367 3C12.0161 3 11.5809 3.25453 10.9091 3.88476L1.6293 12.5332C1.16594 12.9731 1 13.4531 1 13.898C1 14.3248 1.17765 14.8249 1.63351 15.2552L10.9091 23.9709C11.5202 24.5426 12.0269 24.7959 12.6559 24.7959ZM11.9247 21.8166C11.8565 21.8166 11.7862 21.7814 11.7276 21.7132L3.68428 14.1164C3.59264 14.0248 3.55748 13.9662 3.55748 13.898C3.55748 13.8277 3.59264 13.7616 3.68428 13.6795L11.718 5.99412C11.7766 5.94725 11.8469 5.9067 11.9151 5.9067C12.0227 5.9067 12.0876 5.97912 12.0876 6.08131V10.529C12.0876 10.7965 12.2123 10.9116 12.4797 10.9116H13.9846C21.5955 10.9116 24.2174 15.9645 24.4138 21.5337C24.4138 21.6211 24.3808 21.6563 24.3243 21.6563C24.2774 21.6563 24.254 21.6232 24.2188 21.5433C22.8255 18.6166 19.3823 16.894 13.9846 16.894H12.4797C12.2123 16.894 12.0876 17.0091 12.0876 17.2765V21.6281C12.0876 21.7399 12.0227 21.8166 11.9247 21.8166Z" fill="black"/>
</svg>
