<svg width="28" height="28" viewBox="0 0 28 28" fill="none" xmlns="http://www.w3.org/2000/svg">
<path d="M14.105 26.21C20.7369 26.21 26.2121 20.7273 26.2121 14.105C26.2121 7.47312 20.7273 2 14.0954 2C7.47523 2 2 7.47312 2 14.105C2 20.7273 7.48484 26.21 14.105 26.21Z" fill="black"/>
<path d="M10.2975 17.2906C9.69421 17.2906 9.29297 16.8298 9.29297 16.1766V10.513C9.29297 9.6758 9.76945 9.29541 10.534 9.29541H16.2168C16.8839 9.29541 17.3104 9.68916 17.3104 10.3042C17.3104 10.9095 16.8785 11.3012 16.204 11.3012H14.1698L12.4992 11.1137L14.3079 12.766L18.5636 17.0122C18.7753 17.2238 18.9093 17.5184 18.9093 17.7992C18.9093 18.4491 18.4554 18.8724 17.8394 18.8724C17.5064 18.8724 17.2277 18.7543 17.0013 18.53L12.7753 14.2965L11.1326 12.5091L11.3041 14.2651V16.1916C11.3041 16.8566 10.9125 17.2906 10.2975 17.2906Z" fill="white"/>
</svg>
