<svg width="28" height="28" viewBox="0 0 28 28" fill="none" xmlns="http://www.w3.org/2000/svg">
<path d="M6.84421 24.8972H21.0295C23.5685 24.8972 24.8737 23.5919 24.8737 21.0914V6.82921C24.8737 4.32656 23.5685 3.02344 21.0295 3.02344H6.84421C4.31484 3.02344 3 4.31695 3 6.82921V21.0914C3 23.6016 4.31484 24.8972 6.84421 24.8972Z" fill="black"/>
<path d="M11.2107 19.9542C10.7851 19.5265 10.7957 18.8667 11.2032 18.4847L16.0244 13.9544L11.2032 9.43801C10.7839 9.04216 10.7935 8.36435 11.2288 7.96849C11.6108 7.5949 12.2429 7.6174 12.6643 8.01326L17.6221 12.6621C18.3662 13.3573 18.3662 14.5655 17.6221 15.251L12.6643 19.9116C12.2823 20.2755 11.5651 20.2948 11.2107 19.9542Z" fill="white"/>
</svg>
