<svg width="28" height="28" viewBox="0 0 28 28" fill="none" xmlns="http://www.w3.org/2000/svg">
<path d="M14.105 26.21C20.7369 26.21 26.2121 20.7273 26.2121 14.105C26.2121 7.47312 20.7273 2 14.0954 2C7.47523 2 2 7.47312 2 14.105C2 20.7273 7.48484 26.21 14.105 26.21ZM14.105 23.8255C8.71085 23.8255 4.39412 19.4991 4.39412 14.105C4.39412 8.71085 8.70124 4.38452 14.0954 4.38452C19.4895 4.38452 23.8276 8.71085 23.8276 14.105C23.8276 19.4991 19.4991 23.8255 14.105 23.8255Z" fill="black"/>
<path d="M8.82152 18.9427C8.4641 19.8352 9.41847 20.4936 10.1788 19.7312L13.7912 16.1091C13.9766 15.9333 14.2035 15.9333 14.3889 16.1091L18.0013 19.7312C18.7637 20.4936 19.716 19.8352 19.3585 18.9427L14.9963 7.84695C14.6621 6.97836 13.5179 6.99008 13.1741 7.86828L8.82152 18.9427Z" fill="black"/>
</svg>
