<svg width="28" height="28" viewBox="0 0 28 28" fill="none" xmlns="http://www.w3.org/2000/svg">
<path d="M23.4302 4.45901C22.2244 3.25527 20.5516 3.02136 18.417 3.02136H9.40827C7.30453 3.02136 5.62968 3.25527 4.42383 4.45901C3.22008 5.66276 3 7.32167 3 9.42002V18.3614C3 20.5003 3.22008 22.1496 4.42383 23.3512C5.63179 24.5571 7.30453 24.7889 9.42749 24.7889H18.417C20.5516 24.7889 22.2265 24.5571 23.4302 23.3512C24.634 22.1475 24.8541 20.5003 24.8541 18.3614V9.44885C24.8541 7.31206 24.634 5.65104 23.4302 4.45901ZM22.5581 9.12073V18.6799C22.5581 19.9071 22.4037 21.0185 21.7458 21.6785C21.0975 22.3247 19.9627 22.493 18.7472 22.493H9.10898C7.89351 22.493 6.75655 22.3247 6.09866 21.6785C5.45248 21.0185 5.29592 19.9071 5.29592 18.6799V9.14955C5.29592 7.91276 5.45248 6.78213 6.09866 6.13384C6.75655 5.47595 7.90312 5.31728 9.13781 5.31728H18.7472C19.9627 5.31728 21.0975 5.48556 21.7458 6.13384C22.4037 6.79174 22.5581 7.90315 22.5581 9.12073Z" fill="black"/>
<path d="M13.9383 7.88794C13.348 7.88794 12.9109 8.30606 12.9109 8.89762V14.4363L13.0098 16.8436L11.9497 15.528L10.6311 14.1577C10.464 13.9683 10.2172 13.8577 9.92984 13.8577C9.38187 13.8577 8.97852 14.2547 8.97852 14.7942C8.97852 15.0783 9.05727 15.304 9.25297 15.4985L13.1269 19.4102C13.3866 19.6784 13.629 19.8028 13.9383 19.8028C14.2669 19.8028 14.5189 19.6687 14.769 19.4102L18.643 15.4985C18.829 15.304 18.9174 15.0783 18.9174 14.7942C18.9174 14.2547 18.5044 13.8577 17.9565 13.8577C17.6733 13.8577 17.4244 13.9587 17.2552 14.1577L15.9483 15.5175L14.8765 16.8553L14.9754 14.4363V8.89762C14.9754 8.30606 14.5383 7.88794 13.9383 7.88794Z" fill="black"/>
</svg>
