<svg width="32" height="28" viewBox="0 0 32 28" fill="none" xmlns="http://www.w3.org/2000/svg">
<path d="M10.7194 25.0617C11.2762 25.0617 11.6622 24.787 11.8406 24.236C13.0725 20.5434 14.9932 19.1248 18.1483 19.1248L18.528 19.1344V23.3599C18.528 24.2526 19.193 24.9251 20.0953 24.9251C20.7265 24.9251 21.2332 24.6738 21.8442 24.1001L31.1294 15.3865C31.5853 14.9541 31.7512 14.4539 31.7512 14.0271C31.7512 13.5844 31.5874 13.0927 31.1315 12.6623L21.8442 4.01388C21.1704 3.38365 20.7372 3.11951 20.1145 3.11951C19.193 3.11951 18.528 3.85169 18.528 4.74442V8.94841H18.2346C14.6646 8.94841 11.5582 10.9678 10.7641 15.2431H10.6458C9.78233 10.575 6.47741 8.95474 3.26389 8.95474C3.13358 8.95474 2.89757 8.95474 2.47265 8.95474C0.754214 8.95474 0 9.69068 0 11.5338V16.9709C0 18.4596 0.744605 19.1571 2.38405 19.1571C2.83475 19.1571 3.2503 19.1571 3.7106 19.1571C6.7453 19.1571 8.73866 21.233 9.61194 24.2264C9.77858 24.787 10.1508 25.0617 10.7194 25.0617ZM9.96327 21.3631C8.66342 18.1024 6.47646 17.0306 3.37803 17.0114C3.16686 17.0114 2.9503 17.0114 2.74873 17.0114C2.42834 17.0114 2.24741 16.8209 2.24741 16.4599V11.6498C2.24741 11.291 2.42834 11.0887 2.76795 11.0887C2.97913 11.0887 3.14764 11.0887 3.35881 11.0887C7.05818 11.1272 9.87796 13.6465 10.0753 21.3631H9.96327ZM20.8383 21.9457C20.7307 21.9457 20.6637 21.8691 20.6637 21.7573V17.4056C20.6637 17.1382 20.539 17.0231 20.2715 17.0231L18.364 17.0114C14.8113 17.0114 12.6972 18.3298 11.4872 21.3631H11.3751C11.5415 14.3916 14.0367 11.0386 18.4556 11.0386L20.2715 11.0407C20.539 11.0407 20.6637 10.9256 20.6637 10.6582V6.21042C20.6637 6.10823 20.7403 6.03581 20.8383 6.03581C20.9161 6.03581 20.9747 6.07636 21.0333 6.12323L29.0691 13.8087C29.1607 13.8907 29.1937 13.9568 29.1937 14.0271C29.1937 14.0953 29.1607 14.1539 29.0691 14.2455L21.0333 21.8424C20.9651 21.9106 20.8969 21.9457 20.8383 21.9457Z" fill="black"/>
</svg>
