<svg width="28" height="28" viewBox="0 0 28 28" fill="none" xmlns="http://www.w3.org/2000/svg">
<path d="M14.105 26.21C20.7369 26.21 26.2121 20.7273 26.2121 14.105C26.2121 7.47312 20.7273 2 14.0954 2C7.47523 2 2 7.47312 2 14.105C2 20.7273 7.48484 26.21 14.105 26.21ZM14.105 23.8255C8.71085 23.8255 4.39412 19.4991 4.39412 14.105C4.39412 8.71085 8.70124 4.38452 14.0954 4.38452C19.4895 4.38452 23.8276 8.71085 23.8276 14.105C23.8276 19.4991 19.4991 23.8255 14.105 23.8255Z" fill="black"/>
<path d="M15.2694 8.08575C12.4536 8.08575 10.727 10.0962 10.727 12.8574V16.318L10.7705 17.5902L10.0925 16.7087L8.96281 15.5194C8.79992 15.3523 8.57632 15.2469 8.32601 15.2469C7.82445 15.2469 7.41992 15.6439 7.41992 16.1337C7.41992 16.3841 7.50617 16.598 7.69039 16.7684L10.8608 19.8866C11.0642 20.0879 11.3145 20.2051 11.5904 20.2051C11.8695 20.2051 12.1144 20.09 12.3179 19.8866L15.5054 16.7588C15.6779 16.5863 15.7641 16.3723 15.7641 16.1178C15.7641 15.6397 15.3713 15.2405 14.858 15.2405C14.6269 15.2405 14.3937 15.3289 14.233 15.5098L12.9205 16.9168L12.4271 17.5902L12.492 16.318V12.8574C12.492 11.2044 13.4616 9.95817 15.1904 9.95817C16.9512 9.95817 18.0458 11.1713 18.0458 12.8628C18.0458 12.9844 18.0458 14.4195 18.0458 14.5107C18.0458 15.0641 18.3725 15.4824 18.9474 15.4824C19.5362 15.4824 19.8692 15.0662 19.8692 14.4936C19.8692 14.3907 19.8692 12.9844 19.8692 12.8628C19.8692 10.1037 18.0861 8.08575 15.2694 8.08575Z" fill="black"/>
</svg>
