<svg width="28" height="28" viewBox="0 0 28 28" fill="none" xmlns="http://www.w3.org/2000/svg">
<path d="M13.8371 25.6355C14.1359 25.6355 14.5719 25.4081 14.9309 25.1862C21.4833 20.9674 25.6838 16.0235 25.6838 11.0166C25.6838 6.7057 22.7075 3.71484 18.9634 3.71484C16.6402 3.71484 14.8909 4.99945 13.8371 6.92461C12.8026 5.00906 11.0457 3.71484 8.71085 3.71484C4.97632 3.71484 2 6.7057 2 11.0166C2 16.0235 6.20047 20.9674 12.7529 25.1862C13.1023 25.4081 13.5479 25.6355 13.8371 25.6355Z" fill="black"/>
<path d="M14.7648 11.0974V15.0413L14.6659 16.9341L15.5851 15.9638L16.4933 15.0375C16.6733 14.8385 16.9403 14.7077 17.2117 14.7077C17.7555 14.7077 18.1769 15.1036 18.1769 15.6485C18.1769 15.9635 18.0576 16.1817 17.8321 16.387L14.5028 19.4234C14.2176 19.6905 13.9837 19.7967 13.686 19.7967C13.3883 19.7967 13.1544 19.6905 12.8692 19.4234L9.53993 16.387C9.31446 16.1817 9.19727 15.9635 9.19727 15.6485C9.19727 15.1036 9.59735 14.7077 10.1603 14.7077C10.4284 14.7077 10.7019 14.8385 10.8808 15.0375L11.789 15.9638L12.7061 16.9341L12.6168 15.0413V11.0974C12.6168 10.5208 13.1019 10.0748 13.686 10.0748C14.2701 10.0748 14.7648 10.5208 14.7648 11.0974Z" fill="white"/>
</svg>
