<svg width="28" height="28" viewBox="0 0 28 28" fill="none" xmlns="http://www.w3.org/2000/svg">
<path d="M13.9845 24.0103C14.7394 24.0103 15.2637 23.4776 15.2637 22.7079V11.7979L15.1522 9.33019L18.283 12.7722L20.6928 15.1469C20.9225 15.3766 21.2481 15.5285 21.6116 15.5285C22.3177 15.5285 22.8462 14.9988 22.8462 14.2631C22.8462 13.9355 22.7059 13.6144 22.4251 13.3303L14.9384 5.91842C14.6799 5.65451 14.3417 5.49608 13.9845 5.49608C13.6198 5.49608 13.2891 5.65451 13.0306 5.91842L5.53648 13.3303C5.26742 13.6144 5.12703 13.9355 5.12703 14.2631C5.12703 14.9988 5.64593 15.5285 6.36171 15.5285C6.72522 15.5285 7.03694 15.3808 7.28045 15.1469L9.68819 12.7722L12.8169 9.32058L12.6978 11.7979V22.7079C12.6978 23.4776 13.22 24.0103 13.9845 24.0103ZM6.22718 5.52162H21.7131C22.4363 5.52162 22.9616 4.98467 22.9616 4.26562C22.9616 3.54445 22.4363 3 21.7131 3H6.22718C5.51351 3 5 3.54445 5 4.26562C5 4.98467 5.51351 5.52162 6.22718 5.52162Z" fill="black"/>
</svg>
