<svg width="28" height="28" viewBox="0 0 28 28" fill="none" xmlns="http://www.w3.org/2000/svg">
<path d="M14.105 26.21C20.7369 26.21 26.2121 20.7273 26.2121 14.105C26.2121 7.47312 20.7273 2 14.0954 2C7.47523 2 2 7.47312 2 14.105C2 20.7273 7.48484 26.21 14.105 26.21ZM14.105 23.8255C8.71085 23.8255 4.39412 19.4991 4.39412 14.105C4.39412 8.71085 8.70124 4.38452 14.0954 4.38452C19.4895 4.38452 23.8276 8.71085 23.8276 14.105C23.8276 19.4991 19.4991 23.8255 14.105 23.8255Z" fill="black"/>
<path d="M17.747 17.1589C18.3301 17.1589 18.7154 16.7162 18.7154 16.0969V10.6416C18.7154 9.84052 18.2591 9.48029 17.5307 9.48029H12.054C11.421 9.48029 11.0146 9.85599 11.0146 10.4391C11.0146 11.0222 11.4285 11.3979 12.0669 11.3979H14.0457L15.6536 11.2104L13.9119 12.8021L9.79656 16.9175C9.60086 17.1153 9.4668 17.3919 9.4668 17.6663C9.4668 18.2844 9.90273 18.6875 10.4943 18.6875C10.8114 18.6875 11.0624 18.5715 11.2846 18.3631L15.3798 14.27L16.9618 12.5476L16.7882 14.2407V16.1119C16.7882 16.745 17.166 17.1589 17.747 17.1589Z" fill="black"/>
</svg>
