<svg width="29" height="28" viewBox="0 0 29 28" fill="none" xmlns="http://www.w3.org/2000/svg">
<path d="M0 24.5153C0 25.4994 0.65109 26.3125 1.98679 26.3125H11.3159C12.8327 26.3125 13.5626 25.5943 13.5626 24.0754V10.2465C13.5626 8.98538 12.6162 8.28906 11.5859 8.28906C10.8567 8.28906 10.1552 8.60593 9.67994 9.32639L0.422341 23.1416C0.139217 23.5715 0 24.0325 0 24.5153ZM14.9958 24.0754C14.9958 25.5943 15.7256 26.3125 17.2425 26.3125H26.5619C27.9072 26.3125 28.5583 25.4994 28.5583 24.5153C28.5583 24.0325 28.4095 23.5715 28.1264 23.1416L18.8688 9.32639C18.4031 8.60593 17.692 8.28906 16.9629 8.28906C15.9325 8.28906 14.9958 8.98538 14.9958 10.2465V24.0754Z" fill="black"/>
<path d="M1.82907 5.25557L5.05829 7.66986C5.73235 8.18525 6.55008 7.87963 6.55008 7.02885V5.38471H21.9986V7.02885C21.9986 7.87963 22.826 8.18525 23.5022 7.66986L26.7314 5.25557C27.1797 4.91479 27.168 4.29393 26.7314 3.96276L23.5022 1.53464C22.8431 1.03636 21.9986 1.30355 21.9986 2.19159V3.80597H6.55008V2.19159C6.55008 1.32488 5.73446 1.01714 5.05829 1.53464L1.82907 3.96276C1.38071 4.29393 1.38821 4.9244 1.82907 5.25557Z" fill="black"/>
</svg>
