<svg width="28" height="31" viewBox="0 0 28 31" fill="none" xmlns="http://www.w3.org/2000/svg">
<path d="M5.38648 19.0961H22.7823C25.0231 19.0961 26.1709 17.9579 26.1709 15.7555V3.37682C26.1709 1.17862 25.0231 0.019165 22.7823 0.019165H5.38648C3.16906 0.019165 2 1.19034 2 3.37682V15.7555C2 17.9483 3.15945 19.0961 5.38648 19.0961ZM5.59741 16.9975C4.66249 16.9975 4.10819 16.4453 4.10819 15.4987V14.8061L6.90265 12.2535C7.34164 11.8593 7.81062 11.6643 8.2782 11.6643C8.77578 11.6643 9.28507 11.8689 9.73789 12.2769L11.6663 14.0254L16.5153 9.71456C17.0108 9.28729 17.5531 9.08057 18.1423 9.08057C18.6889 9.08057 19.2856 9.28729 19.7384 9.73589L24.1107 13.8791V15.5158C24.1107 16.4453 23.5224 16.9975 22.6194 16.9975H5.59741ZM9.95421 9.76003C8.55335 9.76003 7.40608 8.61698 7.40608 7.2119C7.40608 5.82065 8.55335 4.67339 9.95421 4.67339C11.3476 4.67339 12.4927 5.82065 12.4927 7.2119C12.4927 8.61698 11.3476 9.76003 9.95421 9.76003ZM3.02445 24.6789H25.1368C25.7091 24.6789 26.1709 24.2247 26.1709 23.6427C26.1709 23.0704 25.7091 22.6183 25.1368 22.6183H3.02445C2.45211 22.6183 2 23.0704 2 23.6427C2 24.2247 2.45211 24.6789 3.02445 24.6789ZM3.02445 30.2404H17.5918C18.1641 30.2404 18.6258 29.7882 18.6258 29.2159C18.6258 28.6415 18.1641 28.1797 17.5918 28.1797H3.02445C2.45211 28.1797 2 28.6415 2 29.2159C2 29.7882 2.45211 30.2404 3.02445 30.2404Z" fill="black"/>
</svg>
