<svg width="28" height="28" viewBox="0 0 28 28" fill="none" xmlns="http://www.w3.org/2000/svg">
<path d="M11.2458 27.2092L16.6815 20.4606L8.2231 12.0044L5.76803 15.0519C5.55615 15.3182 5.43896 15.5673 5.43896 15.8399C5.43896 16.3286 5.81584 16.6874 6.33545 16.6874L12.8998 16.7854L9.55717 26.2893C9.11209 27.5701 10.3983 28.2463 11.2458 27.2092ZM19.7075 16.7219L22.1818 13.6647C22.3936 13.4059 22.5012 13.1589 22.5012 12.8767C22.5012 12.3955 22.1339 12.0367 21.6143 12.0271L15.0425 11.927L18.3926 2.42522C18.8398 1.13686 17.5515 0.470303 16.704 1.51491L11.2491 8.27522L19.7075 16.7219Z" fill="black"/>
<path d="M22.3351 24.0444C22.6994 24.4044 23.3022 24.4086 23.6547 24.0444C24.0189 23.6919 24.0189 23.0987 23.6547 22.7249L5.59562 4.66794C5.2314 4.30583 4.61687 4.30583 4.26437 4.66794C3.91188 5.02043 3.91188 5.63708 4.26437 5.98747L22.3351 24.0444Z" fill="black"/>
</svg>
