<svg width="28" height="28" viewBox="0 0 28 28" fill="none" xmlns="http://www.w3.org/2000/svg">
<path d="M14.105 26.2121C20.7369 26.2121 26.2121 20.7369 26.2121 14.105C26.2121 7.48484 20.7273 2 14.0954 2C7.47523 2 2 7.48484 2 14.105C2 20.7369 7.48484 26.2121 14.105 26.2121Z" fill="black"/>
<path d="M14.1553 20.7411C10.7879 20.7411 8.11022 18.4916 7.52639 15.2337H6.34185C5.74021 15.2337 5.59889 14.6546 5.93521 14.1894L7.85404 11.5179C8.21615 11.0386 8.80607 11.0579 9.13935 11.5179L11.0912 14.1894C11.4254 14.6546 11.2787 15.2337 10.6729 15.2337H9.52326C10.0623 17.2126 11.9153 18.6927 14.1553 18.6927C15.2238 18.6927 16.0382 18.3673 16.8548 17.7542C17.4006 17.3656 17.9746 17.3712 18.386 17.8557C18.8006 18.3242 18.6642 18.9823 18.0466 19.4457C17.0437 20.2538 15.6248 20.7411 14.1553 20.7411ZM14.136 7.43256C17.5033 7.43256 20.1714 9.68209 20.7649 12.9399H21.8896C22.4913 12.9399 22.6326 13.5191 22.2963 13.9843L20.3774 16.6461C20.0153 17.1371 19.4254 17.1062 19.0825 16.6461L17.1403 13.9843C16.806 13.5191 16.9528 12.9399 17.549 12.9399H18.7659C18.2268 10.9515 16.3739 9.47138 14.136 9.47138C13.0654 9.47138 12.2509 9.8063 11.4365 10.4194C10.8906 10.8005 10.3049 10.8024 9.90529 10.3179C9.50029 9.85154 9.62498 9.19131 10.2447 8.71834C11.2454 7.92193 12.6665 7.43256 14.136 7.43256Z" fill="white"/>
</svg>
