<svg width="29" height="28" viewBox="0 0 29 28" fill="none" xmlns="http://www.w3.org/2000/svg">
<path d="M3.84421 24.6282H25.1184C27.6403 24.6282 28.9648 23.323 28.9648 20.8224V8.52547C28.9648 6.02492 27.6403 4.7293 25.1184 4.7293H21.9799C21.0605 4.7293 20.7623 4.56289 20.1991 3.97063L19.2722 2.96656C18.663 2.32625 18.0485 2 16.8562 2H12.0412C10.849 2 10.2345 2.32625 9.62531 2.96656L8.69625 3.97063C8.13305 4.55328 7.82742 4.7293 6.91547 4.7293H3.84421C1.31484 4.7293 0 6.02492 0 8.52547V20.8224C0 23.323 1.31484 24.6282 3.84421 24.6282Z" fill="black"/>
<path d="M6.44977 14.0899L8.3332 11.4805C8.68781 10.9991 9.26484 11.0258 9.59062 11.4805L11.505 14.0899C11.8413 14.5476 11.685 15.1117 11.0962 15.1117H9.97125C10.5007 17.0606 12.3119 18.5064 14.5027 18.5064C15.5445 18.5064 16.3439 18.179 17.1455 17.5638C17.6838 17.1902 18.2491 17.2042 18.6487 17.6812C19.0538 18.1422 18.9195 18.7928 18.3148 19.2433C17.3311 20.0343 15.9422 20.5066 14.5027 20.5066C11.205 20.5066 8.58938 18.2999 8.01094 15.1117H6.85313C6.26438 15.1117 6.12305 14.5497 6.44977 14.0899ZM10.3373 10.2934C9.93235 9.8324 10.0666 9.19138 10.6713 8.74092C11.655 7.94779 13.0439 7.46802 14.4834 7.46802C17.7811 7.46802 20.3967 9.67466 20.9752 12.8629H22.0732C22.662 12.8629 22.8033 13.4249 22.4766 13.8848L20.5931 16.5037C20.2406 16.9851 19.6636 16.9584 19.3261 16.5037L17.4213 13.8848C17.085 13.4367 17.2413 12.8629 17.8226 12.8629H19.0149C18.4833 10.9236 16.6741 9.47778 14.4834 9.47778C13.4416 9.47778 12.6326 9.78599 11.8406 10.4108C11.3023 10.7919 10.7466 10.7704 10.3373 10.2934Z" fill="white"/>
</svg>
