<svg width="30" height="28" viewBox="0 0 30 28" fill="none" xmlns="http://www.w3.org/2000/svg">
<path d="M3.84421 20.7446H6.92342V18.4487H3.97733C2.88772 18.4487 2.29592 17.8845 2.29592 16.7459V6.00827C2.29592 4.86967 2.88772 4.29592 3.97733 4.29592H19.5909C20.6709 4.29592 21.282 4.86967 21.282 6.00827V8.45538H23.5779V5.80577C23.5779 3.30523 22.2555 2 19.7337 2H3.84421C1.30523 2 0 3.30523 0 5.80577V16.9388C0 19.449 1.30523 20.7446 3.84421 20.7446Z" fill="black"/>
<path d="M10.0459 25.448H25.385C27.4051 25.448 28.4591 24.4294 28.4591 22.3744V21.7151L23.0195 16.6034C22.5772 16.1963 22.0358 15.9917 21.4839 15.9917C20.9211 15.9917 20.414 16.175 19.9504 16.5938L15.332 20.6837L13.4896 19.0224C13.0611 18.627 12.5912 18.4458 12.1021 18.4458C11.6535 18.4458 11.2199 18.627 10.7839 18.999L6.97186 22.344C6.97186 24.4315 8.01318 25.448 10.0459 25.448ZM14.5557 16.8528C15.9025 16.8528 17.0073 15.7287 17.0073 14.3682C17.0073 13.0311 15.9025 11.907 14.5557 11.907C13.1952 11.907 12.0925 13.0311 12.0925 14.3682C12.0925 15.7287 13.1952 16.8528 14.5557 16.8528ZM9.76819 26.3138H25.7612C28.2831 26.3138 29.6075 25.0107 29.6075 22.508V11.3771C29.6075 8.87652 28.2831 7.57129 25.7612 7.57129H9.76819C7.2271 7.57129 5.92188 8.87652 5.92188 11.3771V22.508C5.92188 25.0203 7.2271 26.3138 9.76819 26.3138ZM9.90132 24.0179C8.8096 24.0179 8.21779 23.4559 8.21779 22.3173V11.5796C8.21779 10.4389 8.8096 9.86721 9.90132 9.86721H25.6185C26.7006 9.86721 27.3116 10.4389 27.3116 11.5796V22.3173C27.3116 23.4559 26.7006 24.0179 25.6185 24.0179H9.90132Z" fill="black"/>
</svg>
