<svg width="28" height="28" viewBox="0 0 28 28" fill="none" xmlns="http://www.w3.org/2000/svg">
<path d="M14.105 26.21C20.7369 26.21 26.2121 20.7273 26.2121 14.105C26.2121 7.47312 20.7273 2 14.0954 2C7.47523 2 2 7.47312 2 14.105C2 20.7273 7.48484 26.21 14.105 26.21ZM14.105 23.8255C8.71085 23.8255 4.39412 19.4991 4.39412 14.105C4.39412 8.71085 8.70124 4.38452 14.0954 4.38452C19.4895 4.38452 23.8276 8.71085 23.8276 14.105C23.8276 19.4991 19.4991 23.8255 14.105 23.8255Z" fill="black"/>
<path d="M11.4711 19.8805C11.8074 20.2072 12.4948 20.1859 12.8567 19.8474L17.6305 15.3495C18.3427 14.6959 18.3427 13.5376 17.6305 12.8839L12.8567 8.38813C12.4555 8.00821 11.8553 8.00282 11.4892 8.35297C11.072 8.73077 11.0624 9.38421 11.4636 9.75452L16.1049 14.105L11.4636 18.4789C11.0741 18.845 11.0635 19.4729 11.4711 19.8805Z" fill="black"/>
</svg>
