<svg width="28" height="28" viewBox="0 0 28 28" fill="none" xmlns="http://www.w3.org/2000/svg">
<path d="M14.1873 19.1751C16.9171 19.1751 19.1165 16.9757 19.1165 14.2384C19.1165 11.5108 16.915 9.30933 14.1873 9.30933C11.4501 9.30933 9.25073 11.5087 9.25073 14.2384C9.25073 16.9853 11.4405 19.1751 14.1873 19.1751ZM14.1873 16.7716C12.7785 16.7716 11.6521 15.6473 11.6521 14.2384C11.6521 12.8467 12.7881 11.7128 14.1873 11.7128C15.5748 11.7128 16.713 12.8605 16.713 14.2384C16.713 15.6377 15.5866 16.7716 14.1873 16.7716Z" fill="black"/>
<path d="M14.1874 23.8166C19.4878 23.8166 23.7774 19.5388 23.7774 14.2171C23.7774 8.94223 19.4665 4.62927 14.1874 4.62927C8.8582 4.62927 4.58789 8.90708 4.58789 14.2171C4.58789 19.5623 8.84226 23.8166 14.1874 23.8166ZM14.1874 22.5374C9.54679 22.5374 5.8671 18.8577 5.8671 14.2171C5.8671 9.6116 9.57234 5.90848 14.1874 5.90848C18.7695 5.90848 22.4981 9.63715 22.4981 14.2171C22.4981 18.8343 18.7929 22.5374 14.1874 22.5374Z" fill="black"/>
<path d="M14.1777 2.32984C14.5408 2.32984 14.8155 2.04133 14.8155 1.69422C14.8155 1.34711 14.5408 1.03516 14.1777 1.03516C13.8423 1.03516 13.5304 1.34711 13.5304 1.69422C13.5304 2.04133 13.8423 2.32984 14.1777 2.32984ZM16.3668 2.51945C16.7022 2.51945 17.0141 2.21922 17.0141 1.88383C17.0141 1.53461 16.7022 1.22477 16.3668 1.22477C15.992 1.22477 15.7173 1.53461 15.7173 1.88383C15.7173 2.21922 15.992 2.51945 16.3668 2.51945ZM18.4738 3.07445C18.7975 3.07445 19.1094 2.78593 19.1094 2.45265C19.1094 2.10344 18.7975 1.79148 18.4738 1.79148C18.0969 1.79148 17.8265 2.10344 17.8265 2.45265C17.8265 2.78593 18.0969 3.07445 18.4738 3.07445ZM20.4498 4.00867C20.7873 4.00867 21.0855 3.72226 21.0855 3.37515C21.0855 3.02805 20.7873 2.7257 20.4498 2.7257C20.0868 2.7257 19.8025 3.02805 19.8025 3.37515C19.8025 3.72226 20.0868 4.00867 20.4498 4.00867ZM22.2383 5.2614C22.5855 5.2614 22.8857 4.96117 22.8857 4.63539C22.8857 4.27867 22.5855 3.97844 22.2383 3.97844C21.8849 3.97844 21.6102 4.27867 21.6102 4.63539C21.6102 4.96117 21.8849 5.2614 22.2383 5.2614ZM23.7883 6.80382C24.1333 6.80382 24.4356 6.51742 24.4356 6.18203C24.4356 5.8232 24.1333 5.52086 23.7883 5.52086C23.4252 5.52086 23.1409 5.8232 23.1409 6.18203C23.1409 6.51742 23.4252 6.80382 23.7883 6.80382ZM25.0431 8.59984C25.3785 8.59984 25.6766 8.31343 25.6766 7.96843C25.6766 7.62882 25.3785 7.31687 25.0431 7.31687C24.678 7.31687 24.4033 7.62882 24.4033 7.96843C24.4033 8.31343 24.678 8.59984 25.0431 8.59984ZM25.9656 10.5897C26.301 10.5897 26.6033 10.3012 26.6033 9.95406C26.6033 9.60695 26.301 9.295 25.9656 9.295C25.593 9.295 25.3183 9.60695 25.3183 9.95406C25.3183 10.3012 25.593 10.5897 25.9656 10.5897ZM26.5227 12.6946C26.856 12.6946 27.168 12.3986 27.168 12.0515C27.168 11.714 26.856 11.402 26.5227 11.402C26.1458 11.402 25.8754 11.714 25.8754 12.0515C25.8754 12.3986 26.1458 12.6946 26.5227 12.6946ZM26.7081 14.8623C27.0435 14.8623 27.3555 14.5663 27.3555 14.2405C27.3555 13.8817 27.0435 13.5794 26.7081 13.5794C26.3451 13.5794 26.0629 13.8817 26.0629 14.2405C26.0629 14.5663 26.3451 14.8623 26.7081 14.8623ZM26.5227 17.0418C26.856 17.0418 27.168 16.7298 27.168 16.3827C27.168 16.0473 26.856 15.7492 26.5227 15.7492C26.1458 15.7492 25.8754 16.0473 25.8754 16.3827C25.8754 16.7298 26.1458 17.0418 26.5227 17.0418ZM25.9656 19.1392C26.301 19.1392 26.6033 18.8369 26.6033 18.478C26.6033 18.1523 26.301 17.8466 25.9656 17.8466C25.593 17.8466 25.3183 18.1523 25.3183 18.478C25.3183 18.8369 25.593 19.1392 25.9656 19.1392ZM25.0431 21.1248C25.3785 21.1248 25.6766 20.815 25.6766 20.4658C25.6766 20.1208 25.3785 19.8323 25.0431 19.8323C24.678 19.8323 24.4033 20.1208 24.4033 20.4658C24.4033 20.815 24.678 21.1248 25.0431 21.1248ZM23.7883 22.9112C24.1333 22.9112 24.4356 22.611 24.4356 22.2618C24.4356 21.9189 24.1333 21.6283 23.7883 21.6283C23.4252 21.6283 23.1409 21.9189 23.1409 22.2618C23.1409 22.611 23.4252 22.9112 23.7883 22.9112ZM22.2383 24.4654C22.5855 24.4654 22.8857 24.1651 22.8857 23.8084C22.8857 23.4709 22.5855 23.1824 22.2383 23.1824C21.8849 23.1824 21.6102 23.4709 21.6102 23.8084C21.6102 24.1651 21.8849 24.4654 22.2383 24.4654ZM20.4498 25.7181C20.7873 25.7181 21.0855 25.4062 21.0855 25.0569C21.0855 24.7216 20.7873 24.4255 20.4498 24.4255C20.0868 24.4255 19.8025 24.7216 19.8025 25.0569C19.8025 25.4062 20.0868 25.7181 20.4498 25.7181ZM18.4738 26.6502C18.7975 26.6502 19.1094 26.3425 19.1094 25.9933C19.1094 25.6483 18.7975 25.3576 18.4738 25.3576C18.0969 25.3576 17.8265 25.6483 17.8265 25.9933C17.8265 26.3425 18.0969 26.6502 18.4738 26.6502ZM16.3668 27.2094C16.7022 27.2094 17.0141 26.8975 17.0141 26.5504C17.0141 26.2129 16.7022 25.9265 16.3668 25.9265C15.992 25.9265 15.7173 26.2129 15.7173 26.5504C15.7173 26.8975 15.992 27.2094 16.3668 27.2094ZM14.1777 27.399C14.5408 27.399 14.8155 27.0967 14.8155 26.7379C14.8155 26.4121 14.5408 26.1161 14.1777 26.1161C13.8423 26.1161 13.5304 26.4121 13.5304 26.7379C13.5304 27.0967 13.8423 27.399 14.1777 27.399ZM11.9908 27.2094C12.3538 27.2094 12.6285 26.8975 12.6285 26.5504C12.6285 26.2129 12.3538 25.9265 11.9908 25.9265C11.6533 25.9265 11.3434 26.2129 11.3434 26.5504C11.3434 26.8975 11.6533 27.2094 11.9908 27.2094ZM9.88375 26.6502C10.2468 26.6502 10.5215 26.3425 10.5215 25.9933C10.5215 25.6483 10.2468 25.3576 9.88375 25.3576C9.54625 25.3576 9.24812 25.6483 9.24812 25.9933C9.24812 26.3425 9.54625 26.6502 9.88375 26.6502ZM7.90562 25.7181C8.27828 25.7181 8.55296 25.4062 8.55296 25.0569C8.55296 24.7216 8.27828 24.4255 7.90562 24.4255C7.56062 24.4255 7.26039 24.7216 7.26039 25.0569C7.26039 25.4062 7.56062 25.7181 7.90562 25.7181ZM6.1075 24.4654C6.47054 24.4654 6.75484 24.1651 6.75484 23.8084C6.75484 23.4709 6.47054 23.1824 6.1075 23.1824C5.77 23.1824 5.46015 23.4709 5.46015 23.8084C5.46015 24.1651 5.77 24.4654 6.1075 24.4654ZM4.55758 22.9112C4.92062 22.9112 5.20281 22.611 5.20281 22.2618C5.20281 21.9189 4.92062 21.6283 4.55758 21.6283C4.22219 21.6283 3.91984 21.9189 3.91984 22.2618C3.91984 22.611 4.22219 22.9112 4.55758 22.9112ZM3.31445 21.1248C3.66789 21.1248 3.96179 20.815 3.96179 20.4658C3.96179 20.1208 3.66789 19.8323 3.31445 19.8323C2.96734 19.8323 2.66711 20.1208 2.66711 20.4658C2.66711 20.815 2.96734 21.1248 3.31445 21.1248ZM2.38984 19.1392C2.7625 19.1392 3.03507 18.8369 3.03507 18.478C3.03507 18.1523 2.7625 17.8466 2.38984 17.8466C2.04484 17.8466 1.7425 18.1523 1.7425 18.478C1.7425 18.8369 2.04484 19.1392 2.38984 19.1392ZM1.82312 17.0418C2.19578 17.0418 2.47047 16.7298 2.47047 16.3827C2.47047 16.0473 2.19578 15.7492 1.82312 15.7492C1.48773 15.7492 1.18961 16.0473 1.18961 16.3827C1.18961 16.7298 1.48773 17.0418 1.82312 17.0418ZM1.64523 14.8623C2.01039 14.8623 2.28297 14.5663 2.28297 14.2405C2.28297 13.8817 2.01039 13.5794 1.64523 13.5794C1.30234 13.5794 1 13.8817 1 14.2405C1 14.5663 1.30234 14.8623 1.64523 14.8623ZM1.82312 12.6946C2.19578 12.6946 2.47047 12.3986 2.47047 12.0515C2.47047 11.714 2.19578 11.402 1.82312 11.402C1.48773 11.402 1.18961 11.714 1.18961 12.0515C1.18961 12.3986 1.48773 12.6946 1.82312 12.6946ZM2.38984 10.5897C2.7625 10.5897 3.03507 10.3012 3.03507 9.95406C3.03507 9.60695 2.7625 9.295 2.38984 9.295C2.04484 9.295 1.7425 9.60695 1.7425 9.95406C1.7425 10.3012 2.04484 10.5897 2.38984 10.5897ZM3.31445 8.59984C3.66789 8.59984 3.96179 8.31343 3.96179 7.96843C3.96179 7.62882 3.66789 7.31687 3.31445 7.31687C2.96734 7.31687 2.66711 7.62882 2.66711 7.96843C2.66711 8.31343 2.96734 8.59984 3.31445 8.59984ZM4.55758 6.80382C4.92062 6.80382 5.20281 6.51742 5.20281 6.18203C5.20281 5.8232 4.92062 5.52086 4.55758 5.52086C4.22219 5.52086 3.91984 5.8232 3.91984 6.18203C3.91984 6.51742 4.22219 6.80382 4.55758 6.80382ZM6.1075 5.2614C6.47054 5.2614 6.75484 4.96117 6.75484 4.63539C6.75484 4.27867 6.47054 3.97844 6.1075 3.97844C5.77 3.97844 5.46015 4.27867 5.46015 4.63539C5.46015 4.96117 5.77 5.2614 6.1075 5.2614ZM7.90562 4.00867C8.27828 4.00867 8.55296 3.72226 8.55296 3.37515C8.55296 3.02805 8.27828 2.7257 7.90562 2.7257C7.56062 2.7257 7.26039 3.02805 7.26039 3.37515C7.26039 3.72226 7.56062 4.00867 7.90562 4.00867ZM9.88375 3.07445C10.2468 3.07445 10.5215 2.78593 10.5215 2.45265C10.5215 2.10344 10.2468 1.79148 9.88375 1.79148C9.54625 1.79148 9.24812 2.10344 9.24812 2.45265C9.24812 2.78593 9.54625 3.07445 9.88375 3.07445ZM11.9908 2.51945C12.3538 2.51945 12.6285 2.21922 12.6285 1.88383C12.6285 1.53461 12.3538 1.22477 11.9908 1.22477C11.6533 1.22477 11.3434 1.53461 11.3434 1.88383C11.3434 2.21922 11.6533 2.51945 11.9908 2.51945Z" fill="black"/>
</svg>
