<svg width="28" height="28" viewBox="0 0 28 28" fill="none" xmlns="http://www.w3.org/2000/svg">
<path d="M3.84421 24.8781H13.0355V22.5821H3.97733C2.88772 22.5821 2.29592 22.018 2.29592 20.8794V14.7967H0V21.0819C0 23.5824 1.31484 24.8781 3.84421 24.8781ZM14.7485 24.8781H23.9109C26.4499 24.8781 27.7552 23.5824 27.7552 21.0819V14.7967H25.4592V20.8794C25.4592 22.018 24.8578 22.5821 23.7778 22.5821H14.7485V24.8781ZM25.4592 13.0932H27.7552V6.81004C27.7552 4.30739 26.4499 3.00427 23.9109 3.00427H14.7485V5.30019H23.7778C24.8578 5.30019 25.4592 5.87183 25.4592 7.01043V13.0932ZM0 13.0932H2.29592V7.01043C2.29592 5.87183 2.88772 5.30019 3.97733 5.30019H13.0355V3.00427H3.84421C1.31484 3.00427 0 4.30739 0 6.81004V13.0932Z" fill="black"/>
<path d="M4.92521 7.01318C4.27247 7.01318 4.00903 7.28834 4.00903 7.9603V13.0931H9.0092C9.3617 11.0681 10.9892 9.45022 13.0335 9.09983V7.01318H4.92521ZM22.8301 7.01318H14.7465V9.09772C16.7619 9.45022 18.3915 11.0681 18.744 13.0931H23.7559V7.9603C23.7559 7.28834 23.4925 7.01318 22.8301 7.01318ZM4.92521 20.8765H13.0335V18.7898C10.9892 18.4395 9.36381 16.8141 9.0092 14.7966H4.00903V19.9294C4.00903 20.6013 4.27247 20.8765 4.92521 20.8765ZM22.8301 20.8765C23.4925 20.8765 23.7559 20.6013 23.7559 19.9294V14.7966H18.744C18.3894 16.8141 16.7619 18.4395 14.7465 18.7941V20.8765H22.8301Z" fill="black"/>
<path d="M13.8893 17.1645C15.6403 17.1645 17.0951 15.7076 17.0951 13.9331C17.0951 12.1821 15.6403 10.7369 13.8893 10.7369C12.1148 10.7369 10.6697 12.1821 10.6697 13.9331C10.6697 15.7076 12.1148 17.1645 13.8893 17.1645Z" fill="black"/>
</svg>
