<svg width="28" height="28" viewBox="0 0 28 28" fill="none" xmlns="http://www.w3.org/2000/svg">
<path d="M4.49105 21.2082L13.5602 26.4577C15.3708 27.4998 16.743 26.7877 16.743 24.6451V19.594L14.4806 17.3316V24.1412C14.4806 24.252 14.4061 24.3031 14.3027 24.2445L5.63948 19.2104C5.27057 18.995 5.17354 18.8159 5.17354 18.3873V9.40881C5.17354 8.95061 5.2408 8.54256 5.29846 8.15163L3.43121 6.27688C3.12324 6.57476 2.91113 7.05172 2.91113 7.66718V18.4667C2.91113 19.8186 3.24652 20.4992 4.49105 21.2082ZM15.5283 21.744L18.5904 23.5175C19.5234 24.0554 20.3423 24.118 20.8968 23.7404L18.0595 20.9105C17.9072 20.8468 17.7239 20.75 17.5523 20.6265L15.5283 19.3241V21.744ZM19.5129 15.575L21.7732 17.847V11.2025C21.7732 9.84149 21.3642 9.12899 20.1841 8.43196L10.9228 3.08961C9.85542 2.46923 8.60714 2.69915 8.15292 3.74633V3.87125L9.52541 5.26085V5.04944C9.59994 5.02905 9.7183 5.04921 9.84088 5.1153L19.0277 10.4328C19.3795 10.6311 19.5129 10.79 19.5129 11.2559V15.575ZM25.9087 20.8259C26.3062 20.4641 26.5321 19.8399 26.5321 18.9535V8.45867C26.5321 7.08805 26.1307 6.37555 24.9431 5.68814L15.6893 0.336179C14.3646 -0.419207 12.7003 0.0849297 12.7003 1.98523V5.61875L14.9627 6.72828V2.80483C14.9627 2.69187 15.0543 2.63327 15.1577 2.69937L23.7942 7.68898C24.1481 7.89687 24.2697 8.04617 24.2697 8.51211V18.9739C24.2697 19.0442 24.2601 19.1145 24.2409 19.1581L25.9087 20.8259Z" fill="black"/>
<path d="M25.1321 25.9098C25.5038 26.2719 26.0991 26.274 26.4516 25.9098C26.8116 25.5455 26.8137 24.9544 26.4516 24.5902L3.59562 1.74802C3.2314 1.3838 2.6382 1.3838 2.26437 1.74802C1.91188 2.09841 1.91188 2.71505 2.26437 3.06755L25.1321 25.9098Z" fill="black"/>
</svg>
