<svg width="28" height="28" viewBox="0 0 28 28" fill="none" xmlns="http://www.w3.org/2000/svg">
<path d="M4.01108 22.5917C2.93975 22.5917 2.29592 21.9479 2.29592 20.867V19.9454L5.61937 17.041C6.13289 16.5882 6.66586 16.3581 7.19835 16.3581C7.76625 16.3581 8.35546 16.5903 8.86898 17.0645L11.0904 19.0632L16.6371 14.1367C17.2008 13.6295 17.8369 13.3993 18.4985 13.3993C19.1346 13.3993 19.7963 13.6412 20.3365 14.1484L25.4592 18.8896V20.8841C25.4592 21.9479 24.7868 22.5917 23.7537 22.5917H4.01108ZM9.12866 14.1788C7.52225 14.1788 6.20882 12.8654 6.20882 11.2568C6.20882 9.66216 7.52225 8.337 9.12866 8.337C10.7255 8.337 12.0389 9.66216 12.0389 11.2568C12.0389 12.8654 10.7255 14.1788 9.12866 14.1788ZM3.84421 24.8781H23.9109C26.4499 24.8781 27.7552 23.5824 27.7552 21.0819V6.81004C27.7552 4.30739 26.4499 3.00427 23.9109 3.00427H3.84421C1.31484 3.00427 0 4.30739 0 6.81004V21.0819C0 23.5824 1.31484 24.8781 3.84421 24.8781Z" fill="black"/>
</svg>
