<svg width="28" height="28" viewBox="0 0 28 28" fill="none" xmlns="http://www.w3.org/2000/svg">
<path d="M14.1873 23.8166C15.8181 23.8166 17.3434 23.4023 18.6653 22.6865L17.7128 21.7244C16.641 22.2487 15.4541 22.5374 14.1873 22.5374C9.54671 22.5374 5.86702 18.8577 5.86702 14.2171C5.86702 12.962 6.16538 11.7634 6.68007 10.7108L5.71797 9.73703C4.99469 11.0727 4.58781 12.598 4.58781 14.2171C4.58781 19.5623 8.84218 23.8166 14.1873 23.8166ZM14.1873 19.1558C14.4822 19.1558 14.7632 19.1186 15.0229 19.0462L9.35828 13.3816C9.28586 13.6509 9.2507 13.9319 9.2507 14.2171C9.2507 16.9661 11.4405 19.1558 14.1873 19.1558ZM14.1873 9.29008C13.5829 9.29008 12.988 9.39461 12.4647 9.60578L18.8008 15.9515C19.0098 15.4185 19.1261 14.8429 19.1261 14.2171C19.1261 11.4916 16.9129 9.29008 14.1873 9.29008ZM14.1873 4.6293C12.2641 4.6293 10.4868 5.18992 8.98773 6.14805L9.93061 7.08133C11.17 6.3414 12.6184 5.90851 14.1873 5.90851C18.779 5.90851 22.498 9.63718 22.498 14.2171C22.498 15.786 22.0748 17.2366 21.3231 18.4738L22.2489 19.4092C23.2166 17.9198 23.7773 16.1404 23.7773 14.2171C23.7773 8.94226 19.4664 4.6293 14.1873 4.6293ZM7.91523 4.00867C8.28789 4.00867 8.56257 3.72226 8.56257 3.37515C8.56257 3.02805 8.28789 2.7257 7.91523 2.7257C7.57023 2.7257 7.27 3.02805 7.27 3.37515C7.27 3.72226 7.57023 4.00867 7.91523 4.00867ZM9.90296 3.07445C10.2564 3.07445 10.5311 2.78593 10.5311 2.45265C10.5311 2.10344 10.2564 1.79148 9.90296 1.79148C9.55586 1.79148 9.25773 2.10344 9.25773 2.45265C9.25773 2.78593 9.55586 3.07445 9.90296 3.07445ZM12.0004 2.51945C12.3634 2.51945 12.6381 2.21922 12.6381 1.88383C12.6381 1.53461 12.3634 1.22477 12.0004 1.22477C11.6629 1.22477 11.3627 1.53461 11.3627 1.88383C11.3627 2.21922 11.6629 2.51945 12.0004 2.51945ZM14.1873 2.32984C14.5504 2.32984 14.8347 2.04133 14.8347 1.69422C14.8347 1.34711 14.5504 1.03516 14.1873 1.03516C13.8519 1.03516 13.54 1.34711 13.54 1.69422C13.54 2.04133 13.8519 2.32984 14.1873 2.32984ZM16.3764 2.51945C16.7118 2.51945 17.0237 2.21922 17.0237 1.88383C17.0237 1.53461 16.7118 1.22477 16.3764 1.22477C16.0037 1.22477 15.7291 1.53461 15.7291 1.88383C15.7291 2.21922 16.0037 2.51945 16.3764 2.51945ZM18.4834 3.07445C18.8167 3.07445 19.1287 2.78593 19.1287 2.45265C19.1287 2.10344 18.8167 1.79148 18.4834 1.79148C18.1066 1.79148 17.8361 2.10344 17.8361 2.45265C17.8361 2.78593 18.1066 3.07445 18.4834 3.07445ZM20.4691 4.00867C20.7969 4.00867 21.0951 3.72226 21.0951 3.37515C21.0951 3.02805 20.7969 2.7257 20.4691 2.7257C20.0964 2.7257 19.8217 3.02805 19.8217 3.37515C19.8217 3.72226 20.0964 4.00867 20.4691 4.00867ZM22.2576 5.2614C22.6047 5.2614 22.907 4.96117 22.907 4.63539C22.907 4.27867 22.6047 3.97844 22.2576 3.97844C21.8945 3.97844 21.6198 4.27867 21.6198 4.63539C21.6198 4.96117 21.8945 5.2614 22.2576 5.2614ZM23.7979 6.80382C24.1429 6.80382 24.4452 6.51742 24.4452 6.18203C24.4452 5.8232 24.1429 5.52086 23.7979 5.52086C23.4348 5.52086 23.1601 5.8232 23.1601 6.18203C23.1601 6.51742 23.4348 6.80382 23.7979 6.80382ZM25.0623 8.59984C25.3881 8.59984 25.6862 8.31343 25.6862 7.96843C25.6862 7.62882 25.3881 7.31687 25.0623 7.31687C24.6897 7.31687 24.415 7.62882 24.415 7.96843C24.415 8.31343 24.6897 8.59984 25.0623 8.59984ZM25.9752 10.5897C26.3106 10.5897 26.613 10.3012 26.613 9.95406C26.613 9.60695 26.3106 9.295 25.9752 9.295C25.6026 9.295 25.3279 9.60695 25.3279 9.95406C25.3279 10.3012 25.6026 10.5897 25.9752 10.5897ZM26.5323 12.6946C26.8656 12.6946 27.1776 12.3986 27.1776 12.0515C27.1776 11.714 26.8656 11.402 26.5323 11.402C26.1576 11.402 25.885 11.714 25.885 12.0515C25.885 12.3986 26.1576 12.6946 26.5323 12.6946ZM26.7177 14.8623C27.0531 14.8623 27.3651 14.5663 27.3651 14.2405C27.3651 13.8817 27.0531 13.5794 26.7177 13.5794C26.3547 13.5794 26.0821 13.8817 26.0821 14.2405C26.0821 14.5663 26.3547 14.8623 26.7177 14.8623ZM26.5323 17.0418C26.8656 17.0418 27.1776 16.7298 27.1776 16.3827C27.1776 16.0473 26.8656 15.7492 26.5323 15.7492C26.1576 15.7492 25.885 16.0473 25.885 16.3827C25.885 16.7298 26.1576 17.0418 26.5323 17.0418ZM25.9752 19.1392C26.3106 19.1392 26.613 18.8369 26.613 18.478C26.613 18.1523 26.3106 17.8466 25.9752 17.8466C25.6026 17.8466 25.3279 18.1523 25.3279 18.478C25.3279 18.8369 25.6026 19.1392 25.9752 19.1392ZM25.0623 21.1248C25.3881 21.1248 25.6862 20.815 25.6862 20.4658C25.6862 20.1208 25.3881 19.8323 25.0623 19.8323C24.6897 19.8323 24.415 20.1208 24.415 20.4658C24.415 20.815 24.6897 21.1248 25.0623 21.1248ZM20.4498 25.7181C20.7873 25.7181 21.0951 25.4062 21.0951 25.0569C21.0951 24.7216 20.7873 24.4255 20.4498 24.4255C20.0868 24.4255 19.8025 24.7216 19.8025 25.0569C19.8025 25.4062 20.0868 25.7181 20.4498 25.7181ZM18.4738 26.6406C18.8071 26.6406 19.1094 26.3425 19.1094 25.9933C19.1094 25.6579 18.8071 25.3576 18.4738 25.3576C18.0969 25.3576 17.8265 25.6579 17.8265 25.9933C17.8265 26.3425 18.0969 26.6406 18.4738 26.6406ZM16.3668 27.2094C16.7022 27.2094 17.0141 26.8975 17.0141 26.5504C17.0141 26.2129 16.7022 25.9265 16.3668 25.9265C15.992 25.9265 15.7173 26.2129 15.7173 26.5504C15.7173 26.8975 15.992 27.2094 16.3668 27.2094ZM14.1777 27.399C14.5408 27.399 14.8251 27.0967 14.8251 26.7475C14.8251 26.4025 14.5408 26.1161 14.1777 26.1161C13.8423 26.1161 13.5304 26.4025 13.5304 26.7475C13.5304 27.0967 13.8423 27.399 14.1777 27.399ZM11.9908 27.2094C12.3538 27.2094 12.6381 26.8975 12.6381 26.5504C12.6381 26.2129 12.3538 25.9265 11.9908 25.9265C11.6533 25.9265 11.353 26.2129 11.353 26.5504C11.353 26.8975 11.6533 27.2094 11.9908 27.2094ZM9.88375 26.6406C10.2468 26.6406 10.5311 26.3425 10.5311 25.9933C10.5311 25.6579 10.2468 25.3576 9.88375 25.3576C9.54625 25.3576 9.23851 25.6579 9.23851 25.9933C9.23851 26.3425 9.54625 26.6406 9.88375 26.6406ZM7.90562 25.7181C8.26867 25.7181 8.55296 25.4062 8.55296 25.0569C8.55296 24.7216 8.26867 24.4255 7.90562 24.4255C7.57023 24.4255 7.26039 24.7216 7.26039 25.0569C7.26039 25.4062 7.57023 25.7181 7.90562 25.7181ZM6.1075 24.4654C6.47054 24.4654 6.75484 24.1555 6.75484 23.8084C6.75484 23.4709 6.47054 23.1728 6.1075 23.1728C5.77 23.1728 5.46015 23.4709 5.46015 23.8084C5.46015 24.1555 5.77 24.4654 6.1075 24.4654ZM4.55758 22.9112C4.93023 22.9112 5.20281 22.611 5.20281 22.2618C5.20281 21.9189 4.93023 21.6283 4.55758 21.6283C4.22219 21.6283 3.91984 21.9189 3.91984 22.2618C3.91984 22.611 4.22219 22.9112 4.55758 22.9112ZM3.31445 21.1152C3.6775 21.1152 3.95218 20.815 3.95218 20.4658C3.95218 20.1208 3.6775 19.8323 3.31445 19.8323C2.97695 19.8323 2.66711 20.1208 2.66711 20.4658C2.66711 20.815 2.97695 21.1152 3.31445 21.1152ZM2.38984 19.1392C2.75289 19.1392 3.03507 18.8369 3.03507 18.478C3.03507 18.1426 2.75289 17.8562 2.38984 17.8562C2.05445 17.8562 1.75211 18.1426 1.75211 18.478C1.75211 18.8369 2.05445 19.1392 2.38984 19.1392ZM1.83273 17.0322C2.19789 17.0322 2.47257 16.7298 2.47257 16.3827C2.47257 16.0377 2.19789 15.7492 1.83273 15.7492C1.49734 15.7492 1.18961 16.0377 1.18961 16.3827C1.18961 16.7298 1.49734 17.0322 1.83273 17.0322ZM1.64523 14.8623C2.01039 14.8623 2.28297 14.5759 2.28297 14.2309C2.28297 13.8817 2.01039 13.5794 1.64523 13.5794C1.30234 13.5794 1 13.8817 1 14.2309C1 14.5759 1.30234 14.8623 1.64523 14.8623ZM1.83273 12.6946C2.19789 12.6946 2.47257 12.3986 2.47257 12.0611C2.47257 11.7044 2.19789 11.402 1.83273 11.402C1.49734 11.402 1.18961 11.7044 1.18961 12.0611C1.18961 12.3986 1.49734 12.6946 1.83273 12.6946ZM2.38984 10.5897C2.75289 10.5897 3.03507 10.2916 3.03507 9.95406C3.03507 9.60695 2.75289 9.295 2.38984 9.295C2.05445 9.295 1.75211 9.60695 1.75211 9.95406C1.75211 10.2916 2.05445 10.5897 2.38984 10.5897ZM3.31445 8.59984C3.6775 8.59984 3.95218 8.31343 3.95218 7.97804C3.95218 7.61922 3.6775 7.31687 3.31445 7.31687C2.97695 7.31687 2.66711 7.61922 2.66711 7.97804C2.66711 8.31343 2.97695 8.59984 3.31445 8.59984Z" fill="black"/>
<path d="M23.9064 25.8354C24.2706 26.1858 24.8755 26.1975 25.2259 25.8354C25.5859 25.4616 25.5997 24.878 25.2259 24.5159L3.33573 2.62778C2.97363 2.26567 2.3687 2.26567 2.00449 2.62778C1.6541 2.98028 1.6541 3.59692 2.00449 3.94731L23.9064 25.8354Z" fill="black"/>
</svg>
