<svg width="29" height="30" viewBox="0 0 29 30" fill="none" xmlns="http://www.w3.org/2000/svg">
<path d="M3.84421 26.5577H25.1184C27.6403 26.5577 28.9648 25.2525 28.9648 22.752V10.455C28.9648 7.95449 27.6403 6.65887 25.1184 6.65887H21.9061C20.9866 6.65887 20.6885 6.49246 20.1253 5.90019L19.1984 4.89613C18.5871 4.25582 17.9747 3.92957 16.7803 3.92957H12.1151C10.9228 3.92957 10.3083 4.25582 9.69914 4.89613L8.77007 5.90019C8.20687 6.48285 7.90125 6.65887 6.9893 6.65887H3.84421C1.31484 6.65887 0 7.95449 0 10.455V22.752C0 25.2525 1.31484 26.5577 3.84421 26.5577ZM3.97733 24.2618C2.90694 24.2618 2.29592 23.6977 2.29592 22.5591V10.6575C2.29592 9.51893 2.90694 8.95479 3.97733 8.95479H7.65421C8.7089 8.95479 9.2578 8.76611 9.84796 8.1183L10.7388 7.13135C11.3941 6.40877 11.7584 6.22549 12.7791 6.22549H16.1163C17.1391 6.22549 17.5012 6.41088 18.1481 7.12502L19.0495 8.1183C19.6397 8.76401 20.1886 8.95479 21.2412 8.95479H24.9757C26.0578 8.95479 26.6688 9.51893 26.6688 10.6575V22.5591C26.6688 23.6977 26.0578 24.2618 24.9757 24.2618H3.97733ZM14.4813 22.7009C17.9866 22.7009 20.8048 19.8924 20.8048 16.3561C20.8048 12.8316 17.9962 10.0231 14.4813 10.0231C10.9706 10.0231 8.15038 12.8316 8.15038 16.3561C8.15038 19.8924 10.9706 22.7009 14.4813 22.7009ZM14.4813 20.6075C12.1472 20.6075 10.2342 18.7212 10.2342 16.3561C10.2342 13.9985 12.1376 12.1069 14.4813 12.1069C16.8293 12.1069 18.7209 13.9985 18.7209 16.3561C18.7209 18.7212 16.8293 20.6075 14.4813 20.6075ZM21.2093 12.1491C21.2093 12.9989 21.9005 13.6688 22.7407 13.6688C23.55 13.6688 24.2508 12.9893 24.2508 12.1491C24.2508 11.3419 23.5479 10.639 22.7407 10.639C21.9026 10.639 21.2093 11.3419 21.2093 12.1491Z" fill="black"/>
<path d="M1.51754 1.79206L4.83582 4.61839C5.07207 4.81526 5.31582 4.95799 5.57457 4.95799C5.84082 4.95799 6.08457 4.81526 6.32082 4.61839L9.6391 1.79206C10.6751 0.923231 9.43589 -0.709654 8.26496 0.341046L5.57457 2.78863L2.89168 0.341046C1.71113 -0.709654 0.481604 0.923231 1.51754 1.79206Z" fill="black"/>
</svg>
