<svg width="28" height="28" viewBox="0 0 28 28" fill="none" xmlns="http://www.w3.org/2000/svg">
<path d="M3.84421 24.8781H13.0355V22.5821H3.97733C2.88772 22.5821 2.29592 22.018 2.29592 20.8794V14.7967H0V21.0819C0 23.5824 1.31484 24.8781 3.84421 24.8781ZM14.7485 24.8781H23.9109C26.4499 24.8781 27.7552 23.5824 27.7552 21.0819V14.7967H25.4592V20.8794C25.4592 22.018 24.8578 22.5821 23.7778 22.5821H14.7485V24.8781ZM25.4592 13.0932H27.7552V6.81004C27.7552 4.30739 26.4499 3.00427 23.9109 3.00427H14.7485V5.30019H23.7778C24.8578 5.30019 25.4592 5.87183 25.4592 7.01043V13.0932ZM0 13.0932H2.29592V7.01043C2.29592 5.87183 2.88772 5.30019 3.97733 5.30019H13.0355V3.00427H3.84421C1.31484 3.00427 0 4.30739 0 6.81004V13.0932Z" fill="black"/>
<path d="M13.6435 16.2724C14.2822 16.2724 14.7003 15.8932 14.7299 15.4193C14.732 15.3745 14.7341 15.3159 14.7362 15.2808C14.7678 14.673 15.1766 14.2638 15.942 13.7648C17.0999 13.0106 17.8452 12.3394 17.8452 10.9732C17.8452 9.0258 16.0897 7.90784 14.011 7.90784C12.0017 7.90784 10.6396 8.83081 10.281 9.92792C10.2118 10.126 10.1724 10.324 10.1724 10.5359C10.1724 11.1012 10.61 11.4499 11.0853 11.4499C11.5091 11.4499 11.8049 11.2667 12.0327 10.9622L12.2183 10.7168C12.6137 10.0814 13.1682 9.73572 13.8753 9.73572C14.8257 9.73572 15.4602 10.2987 15.4602 11.0923C15.4602 11.8385 14.968 12.1999 13.9705 12.8895C13.1427 13.4712 12.531 14.0733 12.531 15.1373C12.531 15.1779 12.531 15.2259 12.531 15.2665C12.531 15.9286 12.932 16.2724 13.6435 16.2724ZM13.6264 19.8595C14.3757 19.8595 14.9954 19.312 14.9954 18.5733C14.9954 17.8366 14.3874 17.287 13.6264 17.287C12.8654 17.287 12.2511 17.8441 12.2511 18.5733C12.2511 19.3024 12.875 19.8595 13.6264 19.8595Z" fill="black"/>
</svg>
