<svg width="28" height="28" viewBox="0 0 28 28" fill="none" xmlns="http://www.w3.org/2000/svg">
<path d="M16.5172 14.8944L23.2266 18.7129C23.2831 18.7363 23.3141 18.7715 23.3141 18.828C23.3141 18.8823 23.2831 18.9079 23.2266 18.9409L14.6019 23.853C14.4249 23.95 14.2777 24.0044 14.1263 24.0044C13.9749 24.0044 13.8277 23.95 13.6412 23.853L5.01639 18.9409C4.96951 18.9079 4.93857 18.8823 4.93857 18.828C4.93857 18.7715 4.96951 18.7363 5.01639 18.7129L12.0043 14.7301L9.68563 13.3888L3.42218 17.0113C2.42656 17.5991 2 18.0822 2 18.828C2 19.5716 2.42656 20.0547 3.42218 20.6329L12.5368 25.9227C13.1499 26.2783 13.6205 26.4517 14.1263 26.4517C14.6225 26.4517 15.1048 26.2783 15.7158 25.9227L24.8209 20.6329C25.8165 20.0547 26.2526 19.5716 26.2526 18.828C26.2526 18.0822 25.8165 17.5991 24.8209 17.0113L18.8082 13.5318L16.5172 14.8944Z" fill="black"/>
<path d="M14.1263 16.6778C14.6225 16.6778 15.1048 16.5044 15.7158 16.1488L24.8209 10.8665C25.8165 10.2808 26.2526 9.79567 26.2526 9.052C26.2526 8.30833 25.8165 7.82529 24.8209 7.24709L15.7158 1.95724C15.1048 1.60169 14.6225 1.42615 14.1263 1.42615C13.6205 1.42615 13.1499 1.60169 12.5368 1.95724L3.42218 7.24709C2.42656 7.82529 2 8.30833 2 9.052C2 9.79567 2.42656 10.2808 3.42218 10.8665L12.5368 16.1488C13.1499 16.5044 13.6205 16.6778 14.1263 16.6778ZM14.1263 14.2305C13.9749 14.2305 13.8277 14.1857 13.6412 14.077L5.01639 9.16708C4.96951 9.14153 4.93857 9.10848 4.93857 9.052C4.93857 8.99762 4.96951 8.97208 5.01639 8.93903L13.6412 4.02699C13.8277 3.92996 13.9749 3.87558 14.1263 3.87558C14.2777 3.87558 14.4249 3.92996 14.6019 4.02699L23.2266 8.93903C23.2831 8.97208 23.3141 8.99762 23.3141 9.052C23.3141 9.10848 23.2831 9.14153 23.2266 9.16708L14.6019 14.077C14.4249 14.1857 14.2777 14.2305 14.1263 14.2305Z" fill="black"/>
</svg>
