<svg width="31" height="28" viewBox="0 0 31 28" fill="none" xmlns="http://www.w3.org/2000/svg">
<path d="M0 16.7751C0 19.2756 1.30523 20.5808 3.84421 20.5808H4.41375V12.314C4.41375 8.86163 6.49194 6.80266 9.971 6.80266H11.6041C11.8788 6.80266 11.9627 6.76656 12.1514 6.57461L13.0045 5.76672C13.9737 4.83203 15.0129 4.40476 16.3687 4.40476H20.6456C22.0207 4.40476 23.0908 4.83953 24.0387 5.79554L24.5976 6.35289C24.6851 6.43609 24.78 6.55234 24.8503 6.58539V4.82921C24.8503 2.32656 23.5355 1.02344 21.0136 1.02344H3.84421C1.30523 1.02344 0 2.32656 0 4.82921V16.7751Z" fill="black"/>
<path d="M9.97092 26.1522H27.0411C29.5726 26.1522 30.8778 24.8469 30.8778 22.3464V12.314C30.8778 9.81128 29.5726 8.51777 27.0411 8.51777H25.4005C24.5195 8.51777 24.2373 8.41441 23.7186 7.88894L22.8327 7.00651C22.2097 6.37347 21.5891 6.11987 20.6455 6.11987H16.3686C15.4154 6.11987 14.8257 6.38308 14.1718 7.00651L13.2454 7.88894C12.7171 8.37597 12.485 8.51777 11.604 8.51777H9.97092C7.43194 8.51777 6.12671 9.81128 6.12671 12.314V22.3464C6.12671 24.8469 7.43194 26.1522 9.97092 26.1522ZM18.4623 22.4598C15.3512 22.4598 12.8411 19.9497 12.8411 16.829C12.8411 13.7275 15.3512 11.2077 18.4623 11.2077C21.5617 11.2077 24.0815 13.7275 24.0815 16.829C24.0815 19.9497 21.5617 22.4598 18.4623 22.4598ZM18.4623 20.4159C20.4306 20.4159 22.0321 18.8069 22.0321 16.8269C22.0321 14.8565 20.4306 13.2571 18.4623 13.2571C16.4919 13.2571 14.8808 14.8565 14.8808 16.8269C14.8808 18.8069 16.4919 20.4159 18.4623 20.4159ZM25.6365 14.1758C24.891 14.1758 24.2903 13.5751 24.2903 12.8317C24.2903 12.0862 24.891 11.4737 25.6365 11.4737C26.3821 11.4737 26.9945 12.0862 26.9945 12.8317C26.9945 13.5751 26.3821 14.1758 25.6365 14.1758Z" fill="black"/>
</svg>
