<svg width="28" height="28" viewBox="0 0 28 28" fill="none" xmlns="http://www.w3.org/2000/svg">
<path d="M14.105 26.21C20.7369 26.21 26.2121 20.7273 26.2121 14.105C26.2121 7.47312 20.7273 2 14.0954 2C7.47523 2 2 7.47312 2 14.105C2 20.7273 7.48484 26.21 14.105 26.21ZM14.105 23.8255C8.71085 23.8255 4.39412 19.4991 4.39412 14.105C4.39412 8.71085 8.70124 4.38452 14.0954 4.38452C19.4895 4.38452 23.8276 8.71085 23.8276 14.105C23.8276 19.4991 19.4991 23.8255 14.105 23.8255Z" fill="black"/>
<path d="M9.21484 19.5259C9.21484 20.221 9.93882 20.5977 11.2607 20.5977C13.1219 20.5977 14.2884 19.5057 14.5738 17.4826L14.9875 14.529H17.8947C18.4535 14.529 18.8505 14.1458 18.8505 13.618C18.8505 13.0709 18.4438 12.6835 17.883 12.6835H15.2631L15.4872 11.0286C15.6386 9.90362 16.0631 9.44611 16.8979 9.44611C17.5549 9.44611 17.7965 9.52393 18.149 9.52393C18.6557 9.52393 18.9932 9.16955 18.9932 8.68299C18.9932 7.98362 18.2521 7.60276 16.9516 7.60487C15.0904 7.60276 13.9239 8.70432 13.646 10.7103L13.3708 12.6835H10.8845C10.345 12.6835 9.94046 13.0709 9.94046 13.618C9.94046 14.1458 10.345 14.529 10.8941 14.529H13.109L12.7263 17.2203C12.5833 18.2914 12.1673 18.7447 11.3523 18.7447C10.6935 18.7447 10.4805 18.6552 10.0949 18.6552C9.56921 18.6552 9.21484 19.0107 9.21484 19.5259Z" fill="black"/>
</svg>
