<svg width="28" height="28" viewBox="0 0 28 28" fill="none" xmlns="http://www.w3.org/2000/svg">
<path d="M7.48022 27.936H20.6565C22.7643 27.936 24.1368 26.6115 24.1368 24.5828V4.3628C24.1368 2.33406 22.7643 1 20.6565 1H7.48022C5.3725 1 4 2.33406 4 4.3628V24.5828C4 26.6115 5.3725 27.936 7.48022 27.936ZM7.79053 25.638C6.82913 25.638 6.29592 25.1176 6.29592 24.2052V4.74038C6.29592 3.82584 6.82913 3.29381 7.79053 3.29381H20.3462C21.298 3.29381 21.8409 3.82584 21.8409 4.74038V24.2031C21.8409 25.1155 21.298 25.638 20.3462 25.638H7.79053Z" fill="black"/>
<path d="M9.37723 7.91921C10.2025 7.91921 10.9213 7.20788 10.9213 6.33788C10.9213 5.50515 10.2025 4.79382 9.37723 4.79382C8.50723 4.79382 7.7959 5.50515 7.7959 6.33788C7.7959 7.20788 8.50723 7.91921 9.37723 7.91921Z" fill="black"/>
</svg>
