<svg width="28" height="28" viewBox="0 0 28 28" fill="none" xmlns="http://www.w3.org/2000/svg">
<path d="M4.05875 12.7648H10.5521C11.8888 12.7648 12.6645 11.9794 12.6645 10.6428V4.23288C12.6645 3.5096 12.1168 2.96164 11.386 2.96164C10.6531 2.96164 10.1171 3.49999 10.1171 4.23288V5.07382L10.3695 8.75868L7.62382 5.87328L4.25186 2.46827C4.01257 2.22147 3.6903 2.09491 3.35421 2.09491C2.56601 2.09491 2 2.63514 2 3.41584C2 3.76693 2.1425 4.09576 2.38719 4.34255L5.77508 7.72624L8.66049 10.4602L4.96297 10.2174H4.05875C3.32587 10.2174 2.7779 10.7438 2.7779 11.4863C2.7779 12.2213 3.31626 12.7648 4.05875 12.7648ZM15.6029 24.6172C16.3358 24.6172 16.8718 24.0884 16.8718 23.3459V22.4014L16.6194 18.724L19.3651 21.6116L22.8043 25.0721C23.0415 25.321 23.3541 25.4455 23.702 25.4455C24.4805 25.4455 25.0466 24.9052 25.0466 24.1267C25.0466 23.7735 24.9137 23.4446 24.6669 23.1999L21.2138 19.7469L18.3167 17.0129L22.0259 17.2578H23.0358C23.7687 17.2578 24.3167 16.7314 24.3167 15.9985C24.3167 15.2539 23.7783 14.72 23.0358 14.72H16.4368C15.098 14.72 14.3244 15.4937 14.3244 16.8303V23.3459C14.3244 24.0788 14.8604 24.6172 15.6029 24.6172Z" fill="black"/>
</svg>
