<svg width="28" height="28" viewBox="0 0 28 28" fill="none" xmlns="http://www.w3.org/2000/svg">
<path d="M14.105 26.21C20.7369 26.21 26.2121 20.7273 26.2121 14.105C26.2121 7.47312 20.7273 2 14.0954 2C7.47523 2 2 7.47312 2 14.105C2 20.7273 7.48484 26.21 14.105 26.21ZM14.105 23.8255C8.71085 23.8255 4.39412 19.4991 4.39412 14.105C4.39412 8.71085 8.70124 4.38452 14.0954 4.38452C19.4895 4.38452 23.8276 8.71085 23.8276 14.105C23.8276 19.4991 19.4991 23.8255 14.105 23.8255Z" fill="black"/>
<path d="M16.4327 19.8805C16.8424 19.4729 16.8222 18.845 16.4402 18.4789L11.7988 14.105L16.4402 9.75452C16.8339 9.38421 16.8243 8.73077 16.4167 8.35297C16.0506 8.00282 15.4504 8.00821 15.0471 8.38813L10.2754 12.8839C9.56314 13.5376 9.56314 14.6959 10.2754 15.3495L15.0471 19.8474C15.411 20.1859 16.0963 20.2072 16.4327 19.8805Z" fill="black"/>
</svg>
