<svg width="28" height="28" viewBox="0 0 28 28" fill="none" xmlns="http://www.w3.org/2000/svg">
<path d="M19.7693 19.2303L22.4381 20.7662C24.2465 21.8082 25.6209 21.1037 25.6209 18.9535V8.45867C25.6209 7.08805 25.2098 6.37555 24.0318 5.68814L14.778 0.336179C13.4512 -0.419207 11.7891 0.0849297 11.7891 1.98523V5.61875L14.0514 6.72828V2.80483C14.0514 2.69187 14.1335 2.63327 14.2443 2.69937L22.8829 7.68898C23.2368 7.89687 23.3585 8.04617 23.3585 8.51211V18.4571C23.3585 18.5701 23.284 18.6116 23.1806 18.553L19.7693 16.5709V19.2303Z" fill="black"/>
<path d="M14.6172 21.7439L17.6697 23.5174C19.4802 24.5498 20.8525 23.8474 20.8525 21.7047V11.2024C20.8525 9.84143 20.4531 9.12893 19.2634 8.4319L10.0096 3.08955C8.68488 2.32456 7.02271 2.83831 7.02271 4.729V8.59479L9.28301 9.78704V5.54649C9.28301 5.44524 9.37465 5.37704 9.47801 5.44313L18.1145 10.4327C18.4685 10.6406 18.5922 10.7899 18.5922 11.2558V21.2008C18.5922 21.3117 18.5156 21.3532 18.4143 21.2946L14.6172 19.094V21.7439Z" fill="black"/>
<path d="M15.8319 14.1426C15.8319 12.7816 15.4208 12.0691 14.2428 11.3817L4.98897 6.02979C3.66218 5.27229 2 5.77854 2 7.66712V18.4666C2 19.8185 2.33328 20.4991 3.57031 21.2081L12.6491 26.4576C14.4575 27.4997 15.8319 26.7876 15.8319 24.645V14.1426ZM13.0939 13.3708C13.4478 13.5808 13.5695 13.7301 13.5695 14.1961V24.1411C13.5695 24.2519 13.4949 24.303 13.3916 24.2444L4.72624 19.2103C4.35944 18.9949 4.26241 18.8158 4.26241 18.3872V8.48673C4.26241 8.38548 4.34444 8.32688 4.4553 8.38126L13.0939 13.3708Z" fill="black"/>
</svg>
