<svg width="28" height="28" viewBox="0 0 28 28" fill="none" xmlns="http://www.w3.org/2000/svg">
<path d="M14.105 26.21C20.7369 26.21 26.2121 20.7273 26.2121 14.105C26.2121 7.47312 20.7273 2 14.0954 2C7.47523 2 2 7.47312 2 14.105C2 20.7273 7.48484 26.21 14.105 26.21Z" fill="black"/>
<path d="M6.93185 16.8003C6.77857 16.3777 6.94661 16.0766 7.41395 16.0766C9.72044 16.0766 11.5758 17.0895 12.7444 18.5734V21.042C12.7444 21.1815 12.7741 21.3348 12.8306 21.4529C10.1051 21.0441 7.76505 19.2329 6.93185 16.8003ZM9.96067 10.6613C9.96067 9.96781 10.1121 9.27219 10.4348 8.56367C10.5677 8.22313 10.9807 8.16782 11.2521 8.45094L12.5758 9.80563L13.7142 8.33258C13.9366 8.03774 14.3165 8.03774 14.5251 8.33258L15.6581 9.80563L16.968 8.45094C17.2394 8.16782 17.6545 8.22524 17.8162 8.56367C18.1315 9.27008 18.2615 9.96571 18.2615 10.6613C18.2615 12.7887 16.8691 14.5276 14.6901 14.7926V19.6909C15.7551 17.6159 17.9404 16.0766 20.804 16.0766C21.2618 16.0766 21.4394 16.3777 21.2861 16.8003C20.3018 19.6086 17.3231 21.5869 14.11 21.5869C13.7972 21.5869 13.5396 21.3582 13.5396 21.042V14.7926C11.3606 14.5372 9.96067 12.7887 9.96067 10.6613Z" fill="white"/>
</svg>
