<svg width="28" height="28" viewBox="0 0 28 28" fill="none" xmlns="http://www.w3.org/2000/svg">
<path d="M18.3645 14.6732L24.9529 10.859C25.9368 10.2829 26.3752 9.78814 26.3752 9.04447C26.3752 8.31041 25.9368 7.81776 24.9529 7.23955L15.8363 1.95931C15.2252 1.60377 14.745 1.42822 14.2488 1.42822C13.7527 1.42822 13.2703 1.60377 12.6593 1.95931L8.21645 4.52854L9.91309 6.21978L13.7712 4.01946C13.9481 3.92032 14.0953 3.86805 14.2488 3.86805C14.4002 3.86805 14.5474 3.92032 14.7244 4.01946L23.3491 8.939C23.4056 8.96455 23.4366 8.99759 23.4366 9.04447C23.4366 9.10095 23.4056 9.134 23.3491 9.15955L16.6711 12.9681L18.3645 14.6732ZM3.54254 10.859L11.7004 15.5875C12.2063 15.891 12.6598 16.0867 13.1175 16.2151L8.13443 11.2321C7.08419 10.6324 6.05106 10.0188 5.00082 9.41688C4.88246 9.34657 4.89113 9.25915 4.96707 9.19844C5.18715 9.04704 5.40723 8.88602 5.63692 8.74422L3.92576 7.04267L3.36747 7.36611C2.48903 7.92228 2.12036 8.38002 2.12036 9.04447C2.12036 9.78814 2.55864 10.2829 3.54254 10.859ZM22.0555 18.343L24.9529 16.6605C25.9368 16.0823 26.3752 15.5992 26.3752 14.8555C26.3752 14.1119 25.9368 13.6267 24.9529 13.041L22.0177 11.3399L19.8363 12.7431L23.3491 14.7405C23.4056 14.766 23.4366 14.7991 23.4366 14.8555C23.4366 14.9099 23.4056 14.9355 23.3491 14.9685L20.3782 16.6635L22.0555 18.343ZM14.2488 22.4814C14.745 22.4814 15.2252 22.3058 15.8363 21.9503L17.7406 20.8361L16.0334 19.1289L14.7033 19.8911C14.5369 19.9818 14.396 20.032 14.2488 20.032C14.0953 20.032 13.9481 19.9776 13.7712 19.8805L5.14636 14.9685C5.08987 14.9355 5.05893 14.9099 5.05893 14.8555C5.05893 14.7991 5.08987 14.766 5.14636 14.7405L8.69481 12.715L6.56552 11.2987L3.54254 13.041C2.55864 13.6246 2.12036 14.1119 2.12036 14.8555C2.12036 15.5992 2.55864 16.0823 3.54254 16.6605L12.6593 21.9503C13.2703 22.3058 13.7527 22.4814 14.2488 22.4814ZM22.1796 16.8988L21.3736 17.4208L25.8167 21.489C26.7773 20.4995 26.4879 19.405 24.9529 18.513L22.1796 16.8988ZM19.5175 22.6227L14.7244 25.3525C14.5474 25.4495 14.4002 25.5039 14.2488 25.5039C14.0953 25.5039 13.9481 25.4495 13.7712 25.3525L5.14636 20.4309C5.08987 20.4074 5.05893 20.3723 5.05893 20.3179C5.05893 20.271 5.08987 20.2359 5.14636 20.2124L8.77003 18.1485L6.49754 16.8011L3.54254 18.513C2.55864 19.0891 2.12036 19.5817 2.12036 20.3179C2.12036 21.0616 2.55864 21.5542 3.54254 22.1324L12.6593 27.4126C13.2703 27.7682 13.7527 27.9437 14.2488 27.9437C14.745 27.9437 15.2252 27.7682 15.8363 27.4126L21.2066 24.3044L19.5175 22.6227Z" fill="black"/>
<path d="M25.1393 26.1444C25.5014 26.5044 26.0967 26.5087 26.4588 26.1444C26.8092 25.7802 26.8209 25.1891 26.4588 24.8249L3.60283 1.98276C3.23861 1.61854 2.6358 1.61854 2.27158 1.98276C1.90947 2.33315 1.90947 2.94979 2.27158 3.30229L25.1393 26.1444Z" fill="black"/>
</svg>
