<svg width="29" height="28" viewBox="0 0 29 28" fill="none" xmlns="http://www.w3.org/2000/svg">
<path d="M3.84421 24.6282H25.1184C27.6403 24.6282 28.9648 23.323 28.9648 20.8224V8.52547C28.9648 6.02492 27.6403 4.7293 25.1184 4.7293H21.9061C20.9866 4.7293 20.6885 4.56289 20.1253 3.97063L19.1984 2.96656C18.5871 2.32625 17.9747 2 16.7803 2H12.1151C10.9228 2 10.3083 2.32625 9.69914 2.96656L8.77007 3.97063C8.20687 4.55328 7.90125 4.7293 6.9893 4.7293H3.84421C1.31484 4.7293 0 6.02492 0 8.52547V20.8224C0 23.323 1.31484 24.6282 3.84421 24.6282ZM3.97733 22.3323C2.90694 22.3323 2.29592 21.7681 2.29592 20.6295V8.72796C2.29592 7.58936 2.90694 7.02522 3.97733 7.02522H7.65421C8.7089 7.02522 9.2578 6.83655 9.84796 6.18874L10.7388 5.20178C11.3941 4.4792 11.7584 4.29592 12.7791 4.29592H16.1163C17.1391 4.29592 17.5012 4.48131 18.1481 5.19545L19.0495 6.18874C19.6397 6.83444 20.1886 7.02522 21.2412 7.02522H24.9757C26.0578 7.02522 26.6688 7.58936 26.6688 8.72796V20.6295C26.6688 21.7681 26.0578 22.3323 24.9757 22.3323H3.97733ZM14.4813 20.7713C17.9866 20.7713 20.8048 17.9628 20.8048 14.4266C20.8048 10.902 17.9962 8.09351 14.4813 8.09351C10.9706 8.09351 8.15038 10.902 8.15038 14.4266C8.15038 17.9628 10.9706 20.7713 14.4813 20.7713ZM14.4813 18.6779C12.1472 18.6779 10.2342 16.7916 10.2342 14.4266C10.2342 12.069 12.1376 10.1773 14.4813 10.1773C16.8293 10.1773 18.7209 12.069 18.7209 14.4266C18.7209 16.7916 16.8293 18.6779 14.4813 18.6779ZM21.2114 10.2195C21.2114 11.0694 21.9122 11.7392 22.7428 11.7392C23.5617 11.7392 24.2529 11.0598 24.2529 10.2195C24.2529 9.41234 23.5596 8.70945 22.7428 8.70945C21.9143 8.70945 21.2114 9.41234 21.2114 10.2195Z" fill="black"/>
</svg>
