<svg width="28" height="28" viewBox="0 0 28 28" fill="none" xmlns="http://www.w3.org/2000/svg">
<path d="M14.105 26.21C20.7369 26.21 26.2121 20.7273 26.2121 14.105C26.2121 7.47312 20.7273 2 14.0954 2C7.47523 2 2 7.47312 2 14.105C2 20.7273 7.48484 26.21 14.105 26.21Z" fill="black"/>
<path d="M9.03198 19.7291C9.03198 19.1863 9.4044 18.8127 9.95236 18.8127C10.3517 18.8127 10.5765 18.9022 11.263 18.9022C12.1013 18.9022 12.5291 18.4372 12.672 17.3309L13.0686 14.5512H10.7771C10.2099 14.5512 9.78737 14.1521 9.78737 13.602C9.78737 13.0231 10.2099 12.6198 10.7675 12.6198H13.3463L13.6353 10.5859C13.9133 8.49687 15.1372 7.3475 17.0717 7.35172C18.4222 7.3475 19.193 7.7464 19.193 8.48187C19.193 8.99398 18.8396 9.3664 18.3169 9.3664C17.9464 9.3664 17.693 9.28858 17.0105 9.28858C16.1501 9.28858 15.7119 9.75991 15.5583 10.9201L15.3247 12.6198H18.0329C18.6256 12.6198 19.0482 13.0231 19.0482 13.602C19.0482 14.1521 18.6352 14.5512 18.0446 14.5512H15.0352L14.6056 17.607C14.318 19.7152 13.0941 20.8529 11.1596 20.8529C9.78783 20.8529 9.03198 20.4561 9.03198 19.7291Z" fill="white"/>
</svg>
