<svg width="28" height="28" viewBox="0 0 28 28" fill="none" xmlns="http://www.w3.org/2000/svg">
<path d="M3.84421 24.8781H13.0355V22.5821H3.97733C2.88772 22.5821 2.29592 22.018 2.29592 20.8794V14.7967H0V21.0819C0 23.5824 1.31484 24.8781 3.84421 24.8781ZM14.7485 24.8781H23.9109C26.4499 24.8781 27.7552 23.5824 27.7552 21.0819V14.7967H25.4592V20.8794C25.4592 22.018 24.8578 22.5821 23.7778 22.5821H14.7485V24.8781ZM25.4592 13.0932H27.7552V6.81004C27.7552 4.30739 26.4499 3.00427 23.9109 3.00427H14.7485V5.30019H23.7778C24.8578 5.30019 25.4592 5.87183 25.4592 7.01043V13.0932ZM0 13.0932H2.29592V7.01043C2.29592 5.87183 2.88772 5.30019 3.97733 5.30019H13.0355V3.00427H3.84421C1.31484 3.00427 0 4.30739 0 6.81004V13.0932Z" fill="black"/>
<path d="M20.3085 14.8062H18.6004C18.1851 17.0416 16.2322 18.7516 13.8967 18.7516C11.5473 18.7516 9.56899 17.0437 9.1654 14.8062H7.45728C7.88103 17.9761 10.6204 20.4258 13.8967 20.4258C17.1433 20.4258 19.8634 17.9665 20.3085 14.8062ZM18.61 13.0931H20.3085C19.8965 9.94453 17.1454 7.47351 13.8967 7.47351C10.6204 7.47351 7.8672 9.94453 7.45728 13.0931H9.15579C9.55727 10.8694 11.5473 9.14975 13.8967 9.14975C16.2322 9.14975 18.216 10.8694 18.61 13.0931Z" fill="black"/>
</svg>
