<svg width="28" height="28" viewBox="0 0 28 28" fill="none" xmlns="http://www.w3.org/2000/svg">
<path d="M10.7921 17.3821C9.37507 17.3821 8.23507 16.2112 8.23507 14.8037C8.23507 13.408 9.37507 12.2605 10.7921 12.2605C12.1974 12.2605 13.347 13.408 13.347 14.8037C13.347 16.2112 12.1974 17.3821 10.7921 17.3821ZM5.85007 24.8282C4.79889 24.8282 4.22631 24.2758 4.22631 23.1756V22.0642L6.8989 19.6872C7.34866 19.3014 7.79397 19.0935 8.27562 19.0935C8.77858 19.0935 9.26023 19.3035 9.70038 19.701L11.611 21.4091L16.403 17.1925C16.8997 16.7523 17.4186 16.5648 17.993 16.5648C18.5684 16.5648 19.1312 16.7715 19.5969 17.2021L24.0456 21.3855V23.1756C24.0456 24.2758 23.4538 24.8282 22.4122 24.8282H5.85007ZM5.71648 27.0545H22.5554C24.991 27.0545 26.274 25.7833 26.274 23.3669V11.5609C26.274 9.14874 24.991 7.88499 22.5554 7.88499H5.71648C3.26375 7.88499 2 9.14874 2 11.5609V23.3669C2 25.7833 3.26375 27.0545 5.71648 27.0545ZM4.33109 5.97718H23.9525C23.7852 4.86648 23.2285 4.23414 21.9849 4.23414H6.29655C5.05296 4.23414 4.49843 4.86648 4.33109 5.97718ZM6.71773 2.59609H21.5637C21.485 1.5557 20.8719 1 19.742 1H8.53202C7.41171 1 6.79648 1.5557 6.71773 2.59609Z" fill="black"/>
</svg>
