<svg width="28" height="28" viewBox="0 0 28 28" fill="none" xmlns="http://www.w3.org/2000/svg">
<path d="M14.105 26.2301C20.7369 26.2301 26.2121 20.7549 26.2121 14.123C26.2121 7.50291 20.7273 2.01807 14.0954 2.01807C7.47523 2.01807 2 7.50291 2 14.123C2 20.7549 7.48484 26.2301 14.105 26.2301Z" fill="black"/>
<path d="M8.84302 14.9361C8.84302 14.7711 8.91755 14.5869 9.05068 14.4399L15.6106 6.26726C16.1546 5.6103 17.0373 6.06593 16.7274 6.88366L14.5887 12.5797H18.5954C18.9329 12.5797 19.1884 12.8234 19.1884 13.1492C19.1884 13.3142 19.1138 13.4984 18.9828 13.655L12.4208 21.818C11.8789 22.475 10.9941 22.0194 11.304 21.2016L13.4448 15.5056H9.4381C9.09849 15.5056 8.84302 15.2619 8.84302 14.9361Z" fill="white"/>
</svg>
