<svg width="29" height="29" viewBox="0 0 29 29" fill="none" xmlns="http://www.w3.org/2000/svg">
<path d="M14.328 25.5944C20.5378 25.5944 25.5614 20.5612 25.5614 14.3419C25.5614 8.1225 20.5378 3.09141 14.328 3.09141C8.11828 3.09141 3.09891 8.1225 3.09891 14.3419C3.09891 20.5612 8.11828 25.5944 14.328 25.5944ZM14.328 23.3384C9.34757 23.3384 5.42413 19.3629 5.42413 14.3419C5.42413 9.32296 9.34757 5.34749 14.328 5.34749C19.3085 5.34749 23.232 9.32296 23.232 14.3419C23.232 19.3629 19.3085 23.3384 14.328 23.3384ZM14.328 28.6678C14.8537 28.6678 15.2613 28.2485 15.2613 27.7228V19.8483C15.2613 19.3205 14.8537 18.9108 14.328 18.9108C13.8023 18.9108 13.3852 19.3205 13.3852 19.8483V27.7228C13.3852 28.2485 13.8023 28.6678 14.328 28.6678ZM0.944996 15.2826H8.82164C9.34734 15.2826 9.76663 14.8655 9.76663 14.3398C9.76663 13.8141 9.34734 13.4065 8.82164 13.4065H0.944996C0.419295 13.4065 0 13.8141 0 14.3398C0 14.8655 0.419295 15.2826 0.944996 15.2826ZM14.328 9.77835C14.8537 9.77835 15.2613 9.35906 15.2613 8.83336V0.958824C15.2613 0.433123 14.8537 0.0117188 14.328 0.0117188C13.8023 0.0117188 13.3852 0.433123 13.3852 0.958824V8.83336C13.3852 9.35906 13.8023 9.77835 14.328 9.77835ZM19.8344 15.2826H27.709C28.2368 15.2826 28.6561 14.8655 28.6561 14.3398C28.6561 13.8141 28.2368 13.4065 27.709 13.4065H19.8344C19.3087 13.4065 18.8895 13.8141 18.8895 14.3398C18.8895 14.8655 19.3087 15.2826 19.8344 15.2826Z" fill="black"/>
</svg>
