<svg width="29" height="28" viewBox="0 0 29 28" fill="none" xmlns="http://www.w3.org/2000/svg">
<path d="M3.84421 24.6282H25.1184C27.6403 24.6282 28.9648 23.323 28.9648 20.8224V8.52547C28.9648 6.02492 27.6403 4.7293 25.1184 4.7293H21.9061C20.9866 4.7293 20.6885 4.56289 20.1253 3.97063L19.1984 2.96656C18.5871 2.32625 17.9747 2 16.7803 2H12.1151C10.9228 2 10.3083 2.32625 9.69914 2.96656L8.77007 3.97063C8.20687 4.55328 7.90125 4.7293 6.9893 4.7293H3.84421C1.31484 4.7293 0 6.02492 0 8.52547V20.8224C0 23.323 1.31484 24.6282 3.84421 24.6282ZM3.97733 22.3323C2.90694 22.3323 2.29592 21.7681 2.29592 20.6295V8.72796C2.29592 7.58936 2.90694 7.02522 3.97733 7.02522H7.65421C8.7089 7.02522 9.2578 6.83655 9.84796 6.18874L10.7388 5.20178C11.3941 4.4792 11.7584 4.29592 12.7791 4.29592H16.1163C17.1391 4.29592 17.5012 4.48131 18.1481 5.19545L19.0495 6.18874C19.6397 6.83444 20.1886 7.02522 21.2412 7.02522H24.9757C26.0578 7.02522 26.6688 7.58936 26.6688 8.72796V20.6295C26.6688 21.7681 26.0578 22.3323 24.9757 22.3323H3.97733Z" fill="black"/>
<path d="M6.7507 14.0876C6.43781 14.5293 6.57492 15.0637 7.13601 15.0637H8.24485C8.80524 18.1254 11.3219 20.2586 14.5027 20.2586C15.8848 20.2586 17.2226 19.8002 18.1765 19.0368C18.7514 18.6023 18.8857 17.9794 18.4924 17.5343C18.1088 17.085 17.5711 17.0794 17.0529 17.437C16.279 18.0267 15.5072 18.3424 14.5027 18.3424C12.3886 18.3424 10.6305 16.9476 10.1191 15.0637H11.2144C11.7755 15.0637 11.9297 14.5272 11.6072 14.0876L9.76617 11.5772C9.45422 11.1385 8.89734 11.1117 8.55867 11.5772L6.7507 14.0876ZM10.4894 10.4337C10.8656 10.883 11.4129 10.8982 11.9194 10.5331C12.6954 9.93377 13.4768 9.63728 14.4813 9.63728C16.5954 9.63728 18.3438 11.0299 18.8552 12.9063H17.7002C17.1509 12.9063 16.9945 13.4524 17.317 13.8804L19.1484 16.4004C19.47 16.8391 20.0269 16.8658 20.3655 16.4004L22.1756 13.8804C22.4864 13.4386 22.3493 12.9063 21.7903 12.9063H20.7295C20.1691 9.84471 17.6524 7.71143 14.4813 7.71143C13.0992 7.71143 11.7518 8.17737 10.8075 8.94284C10.2326 9.37737 10.0983 9.98862 10.4894 10.4337Z" fill="black"/>
</svg>
