<svg width="28" height="28" viewBox="0 0 28 28" fill="none" xmlns="http://www.w3.org/2000/svg">
<path d="M14.105 26.21C20.7369 26.21 26.2121 20.7273 26.2121 14.105C26.2121 7.47312 20.7273 2 14.0954 2C7.47523 2 2 7.47312 2 14.105C2 20.7273 7.48484 26.21 14.105 26.21ZM14.105 23.8255C8.71085 23.8255 4.39412 19.4991 4.39412 14.105C4.39412 8.71085 8.70124 4.38452 14.0954 4.38452C19.4895 4.38452 23.8276 8.71085 23.8276 14.105C23.8276 19.4991 19.4991 23.8255 14.105 23.8255Z" fill="black"/>
<path d="M8.34116 16.8427C8.73913 17.2557 9.37452 17.2557 9.74272 16.8598L14.1049 12.2281L18.4671 16.8598C18.8449 17.2557 19.4803 17.2557 19.8708 16.8427C20.2326 16.4926 20.223 15.8722 19.8356 15.4667L15.3452 10.6812C14.5879 9.88038 13.624 9.8846 12.8742 10.6855L8.37421 15.4688C7.98679 15.8743 7.97718 16.4926 8.34116 16.8427Z" fill="black"/>
</svg>
