<svg width="28" height="28" viewBox="0 0 28 28" fill="none" xmlns="http://www.w3.org/2000/svg">
<path d="M14.105 19.8209C17.2266 19.8209 19.8209 17.2266 19.8209 14.105C19.8209 10.9695 17.2309 8.37945 14.105 8.37945C10.9855 8.37945 8.38905 10.9737 8.38905 14.105C8.38905 17.2266 10.9876 19.8209 14.105 19.8209ZM14.105 17.8447C12.0741 17.8447 10.3653 16.1284 10.3653 14.105C10.3653 12.0507 12.0603 10.3557 14.105 10.3557C16.1464 10.3557 17.8447 12.0561 17.8447 14.105C17.8447 16.1401 16.1497 17.8447 14.105 17.8447ZM23.9837 10.3557V8.39116L14.1552 8.37945V10.3557H23.9837ZM22.3452 20.9279L24.0191 19.8976L19.156 11.4627L17.4491 12.4449L22.3452 20.9279ZM12.372 24.5492L14.094 25.4951L18.9805 17.0623L17.2777 16.0662L12.372 24.5492ZM4.22632 17.8447V19.8092L14.0569 19.8209V17.8447H4.22632ZM5.86694 7.26289L4.19304 8.30281L9.05609 16.7377L10.7609 15.7555L5.86694 7.26289ZM15.838 3.64155L14.1181 2.70523L9.22952 11.138L10.9344 12.132L15.838 3.64155ZM14.105 26.21C20.7369 26.21 26.2121 20.7273 26.2121 14.105C26.2121 7.47312 20.7273 2 14.0954 2C7.47523 2 2 7.47312 2 14.105C2 20.7273 7.48484 26.21 14.105 26.21ZM14.105 23.8255C8.71085 23.8255 4.39412 19.4991 4.39412 14.105C4.39412 8.71085 8.70124 4.38452 14.0954 4.38452C19.4895 4.38452 23.8276 8.71085 23.8276 14.105C23.8276 19.4991 19.4991 23.8255 14.105 23.8255Z" fill="black"/>
</svg>
