<svg width="28" height="28" viewBox="0 0 28 28" fill="none" xmlns="http://www.w3.org/2000/svg">
<path d="M3.84421 24.8781H13.0355V22.5821H3.97733C2.88772 22.5821 2.29592 22.018 2.29592 20.8794V14.7967H0V21.0819C0 23.5824 1.31484 24.8781 3.84421 24.8781ZM14.7485 24.8781H23.9109C26.4499 24.8781 27.7552 23.5824 27.7552 21.0819V14.7967H25.4592V20.8794C25.4592 22.018 24.8578 22.5821 23.7778 22.5821H14.7485V24.8781ZM25.4592 13.0932H27.7552V6.81004C27.7552 4.30739 26.4499 3.00427 23.9109 3.00427H14.7485V5.30019H23.7778C24.8578 5.30019 25.4592 5.87183 25.4592 7.01043V13.0932ZM0 13.0932H2.29592V7.01043C2.29592 5.87183 2.88772 5.30019 3.97733 5.30019H13.0355V3.00427H3.84421C1.31484 3.00427 0 4.30739 0 6.81004V13.0932Z" fill="black"/>
<path d="M13.9181 20.3498C17.4131 20.3498 20.2997 17.4516 20.2997 13.9214C20.2997 10.4285 17.4014 7.54944 13.9181 7.54944C10.388 7.54944 7.48755 10.4264 7.48755 13.9214C7.48755 17.4612 10.3741 20.3498 13.9181 20.3498ZM13.9181 18.7031C11.2821 18.7031 9.13426 16.5478 9.13426 13.9214C9.13426 11.3322 11.2959 9.19616 13.9181 9.19616C16.5052 9.19616 18.653 11.3322 18.653 13.9214C18.653 16.5457 16.5169 18.7031 13.9181 18.7031Z" fill="black"/>
<path d="M13.9065 17.1307C15.6385 17.1307 17.0807 15.7003 17.0807 13.9331C17.0807 12.2011 15.6385 10.7686 13.9065 10.7686C12.1489 10.7686 10.7068 12.2011 10.7068 13.9331C10.7068 15.7003 12.1489 17.1307 13.9065 17.1307Z" fill="black"/>
</svg>
