<svg width="28" height="29" viewBox="0 0 28 29" fill="none" xmlns="http://www.w3.org/2000/svg">
<path d="M2.12296 20.5158C1.62468 22.5848 2.65804 23.8959 4.90967 23.8959H23.1422C25.4034 23.8959 26.4272 22.5848 25.9385 20.5158L22.8009 7.51944C22.3526 5.6339 21.2733 4.60992 19.2588 4.60992H8.80264C6.77859 4.60992 5.7089 5.6339 5.25093 7.51944L2.12296 20.5158ZM4.37036 20.4209L7.35818 7.90686C7.54053 7.15521 7.99568 6.79709 8.80288 6.79709H19.2586C20.0658 6.79709 20.5209 7.15521 20.7033 7.90686L23.6815 20.4209C23.8744 21.2006 23.4961 21.6982 22.7365 21.6982H5.31747C4.56536 21.6982 4.18708 21.2006 4.37036 20.4209ZM14.0414 28.5101C14.6796 28.5101 15.1439 28.0603 15.1439 27.3595V1.15054C15.1439 0.440153 14.6796 0 14.0414 0C13.3873 0 12.923 0.440153 12.923 1.15054V27.3595C12.923 28.0603 13.3873 28.5101 14.0414 28.5101Z" fill="black"/>
</svg>
