<svg width="29" height="30" viewBox="0 0 29 30" fill="none" xmlns="http://www.w3.org/2000/svg">
<path d="M3.84421 26.5577H25.1184C27.6403 26.5577 28.9648 25.2525 28.9648 22.752V10.455C28.9648 7.95449 27.6403 6.65887 25.1184 6.65887H21.9799C21.0605 6.65887 20.7623 6.49246 20.1991 5.90019L19.2722 4.89613C18.663 4.25582 18.0485 3.92957 16.8562 3.92957H12.0412C10.849 3.92957 10.2345 4.25582 9.62531 4.89613L8.69625 5.90019C8.13305 6.48285 7.82742 6.65887 6.91547 6.65887H3.84421C1.31484 6.65887 0 7.95449 0 10.455V22.752C0 25.2525 1.31484 26.5577 3.84421 26.5577ZM14.4813 22.8982C10.9706 22.8982 8.15038 20.0876 8.15038 16.5535C8.15038 13.0289 10.9706 10.2204 14.4813 10.2204C17.9962 10.2204 20.8048 13.0289 20.8048 16.5535C20.8048 20.0876 17.9866 22.8982 14.4813 22.8982ZM14.4813 20.8048C16.8293 20.8048 18.7209 18.9185 18.7209 16.5535C18.7209 14.1959 16.8293 12.3042 14.4813 12.3042C12.1376 12.3042 10.2342 14.1959 10.2342 16.5535C10.2342 18.9185 12.1472 20.8048 14.4813 20.8048ZM21.5604 12.2473C21.5604 11.4209 22.275 10.6967 23.1323 10.6967C23.9587 10.6967 24.683 11.4209 24.683 12.2473C24.683 13.1067 23.9609 13.7937 23.1323 13.8054C22.2729 13.8075 21.5604 13.1163 21.5604 12.2473Z" fill="black"/>
<path d="M1.51754 1.79206L4.83582 4.61839C5.07207 4.81526 5.31582 4.95799 5.57457 4.95799C5.84082 4.95799 6.08457 4.81526 6.32082 4.61839L9.6391 1.79206C10.6751 0.923231 9.43589 -0.709654 8.26496 0.341046L5.57457 2.78863L2.89168 0.341046C1.71113 -0.709654 0.481604 0.923231 1.51754 1.79206Z" fill="black"/>
</svg>
