<svg width="30" height="28" viewBox="0 0 30 28" fill="none" xmlns="http://www.w3.org/2000/svg">
<path d="M9.76827 5.86789H23.5737V5.70242C23.5336 3.26515 22.2197 2 19.7337 2H3.84421C1.30523 2 0 3.30523 0 5.80577V16.9367C0 19.43 1.28203 20.7214 3.79148 20.7404H4.20891V11.3771C4.20891 7.92476 6.2871 5.86789 9.76827 5.86789Z" fill="black"/>
<path d="M14.5557 16.857C13.1952 16.857 12.0925 15.733 12.0925 14.3724C12.0925 13.0353 13.1952 11.9112 14.5557 11.9112C15.9025 11.9112 17.0073 13.0353 17.0073 14.3724C17.0073 15.733 15.9025 16.857 14.5557 16.857ZM9.90132 24.0221C8.8096 24.0221 8.21779 23.4601 8.21779 22.3215V21.2804L10.7839 19.0032C11.2199 18.6312 11.6535 18.4501 12.1021 18.4501C12.5912 18.4501 13.0611 18.6312 13.4896 19.0266L15.332 20.6879L19.9504 16.598C20.414 16.1792 20.9211 15.9959 21.4839 15.9959C22.0358 15.9959 22.5772 16.2005 23.0195 16.6076L27.3116 20.6431V22.3215C27.3116 23.4601 26.7006 24.0221 25.6185 24.0221H9.90132ZM9.76819 26.3138H25.7612C28.2831 26.3138 29.6075 25.0086 29.6075 22.508V11.3771C29.6075 8.87441 28.2831 7.57129 25.7612 7.57129H9.76819C7.2271 7.57129 5.92188 8.87441 5.92188 11.3771V22.508C5.92188 25.0182 7.2271 26.3138 9.76819 26.3138Z" fill="black"/>
</svg>
