<svg width="28" height="28" viewBox="0 0 28 28" fill="none" xmlns="http://www.w3.org/2000/svg">
<path d="M14.105 26.21C20.7369 26.21 26.2121 20.7273 26.2121 14.105C26.2121 7.47312 20.7273 2 14.0954 2C7.47523 2 2 7.47312 2 14.105C2 20.7273 7.48484 26.21 14.105 26.21ZM14.105 23.8255C8.71085 23.8255 4.39412 19.4991 4.39412 14.105C4.39412 8.71085 8.70124 4.38452 14.0954 4.38452C19.4895 4.38452 23.8276 8.71085 23.8276 14.105C23.8276 19.4991 19.4991 23.8255 14.105 23.8255Z" fill="black"/>
<path d="M10.5603 8.79546C10.2514 9.47843 10.1096 10.156 10.1096 10.8198C10.1096 13.0409 11.7022 14.832 14.1005 14.832C16.5181 14.832 18.0915 13.0409 18.0915 10.8198C18.0915 10.1539 17.971 9.47421 17.6621 8.79546C17.5121 8.47507 17.1151 8.41765 16.8575 8.68905L15.5891 9.99804L14.4976 8.57819C14.2911 8.29929 13.9292 8.29929 13.7227 8.57819L12.6237 9.99804L11.3436 8.68905C11.086 8.41765 10.7007 8.47296 10.5603 8.79546ZM13.5502 20.8102C13.5502 21.1126 13.8036 21.3371 14.1005 21.3371C17.1945 21.3371 20.0584 19.43 20.9991 16.7269C21.1524 16.3224 20.9748 16.0372 20.5447 16.0372C17.5142 16.0372 15.2642 17.8062 14.3652 20.1371L14.6509 20.3143V14.1031H13.5502V20.8102ZM12.7986 18.4531C11.6757 17.0129 9.8778 16.0372 7.65217 16.0372C7.21248 16.0372 7.04654 16.3224 7.19772 16.7269C8.00115 19.0723 10.2465 20.8123 12.8731 21.203C12.8262 21.087 12.7986 20.9476 12.7986 20.8102V18.4531Z" fill="black"/>
</svg>
