<svg width="28" height="28" viewBox="0 0 28 28" fill="none" xmlns="http://www.w3.org/2000/svg">
<path d="M14.105 26.21C20.7369 26.21 26.2121 20.7273 26.2121 14.105C26.2121 7.47312 20.7273 2 14.0954 2C7.47523 2 2 7.47312 2 14.105C2 20.7273 7.48484 26.21 14.105 26.21ZM14.105 23.8255C8.71085 23.8255 4.39412 19.4991 4.39412 14.105C4.39412 8.71085 8.70124 4.38452 14.0954 4.38452C19.4895 4.38452 23.8276 8.71085 23.8276 14.105C23.8276 19.4991 19.4991 23.8255 14.105 23.8255Z" fill="black"/>
<path d="M8.97688 14.0012H12.9083C13.602 14.0012 13.9937 13.6726 13.9937 12.9083V8.96727C13.9937 8.47438 13.6009 8.08368 13.1101 8.08368C12.6172 8.08368 12.2148 8.47438 12.2148 8.96727V9.47821L12.3605 11.1463L9.55718 8.21305C9.18781 7.81602 8.56203 7.81813 8.18422 8.20344C7.80641 8.58125 7.8118 9.20702 8.19383 9.57639L11.1153 12.3584L9.4911 12.2223H8.97688C8.4861 12.2223 8.09329 12.613 8.09329 13.108C8.09329 13.5987 8.4861 14.0012 8.97688 14.0012ZM15.0807 20.1125C15.5715 20.1125 15.9643 19.7218 15.9643 19.2268V18.718L15.8302 17.0499L18.6315 19.981C19.0009 20.3823 19.6266 20.378 20.0066 19.9927C20.3823 19.6128 20.3769 18.9774 19.9969 18.6177L17.0733 15.8377L18.6976 15.9718H19.2022C19.693 15.9718 20.0954 15.5811 20.0954 15.0882C20.0954 14.5878 19.693 14.1929 19.2022 14.1929H15.2825C14.5866 14.1929 14.1854 14.5236 14.1854 15.2783V19.2268C14.1854 19.7218 14.5878 20.1125 15.0807 20.1125Z" fill="black"/>
</svg>
