<svg width="28" height="28" viewBox="0 0 28 28" fill="none" xmlns="http://www.w3.org/2000/svg">
<path d="M3.84421 24.8781H23.9109C26.4499 24.8781 27.7552 23.5824 27.7552 21.0819V6.81004C27.7552 4.30739 26.4499 3.00427 23.9109 3.00427H3.84421C1.31484 3.00427 0 4.30739 0 6.81004V21.0819C0 23.5824 1.31484 24.8781 3.84421 24.8781ZM3.97733 22.5821C2.88772 22.5821 2.29592 22.018 2.29592 20.8794V7.01043C2.29592 5.87183 2.88772 5.30019 3.97733 5.30019H23.7778C24.8578 5.30019 25.4592 5.87183 25.4592 7.01043V20.8794C25.4592 22.018 24.8578 22.5821 23.7778 22.5821H3.97733Z" fill="black"/>
<path d="M13.8391 20.4258C17.4115 20.4258 20.3105 17.5268 20.3105 13.9448C20.3105 10.3725 17.4115 7.47351 13.8391 7.47351C10.2572 7.47351 7.35815 10.3725 7.35815 13.9448C7.35815 17.5268 10.2572 20.4258 13.8391 20.4258ZM13.8391 18.7516C11.1682 18.7516 9.03439 16.6158 9.03439 13.9448C9.03439 11.2739 11.1682 9.14975 13.8391 9.14975C16.5101 9.14975 18.6363 11.2739 18.6363 13.9448C18.6363 16.6158 16.5101 18.7516 13.8391 18.7516ZM9.32502 16.8354L16.5284 9.62788L15.1777 8.45624L8.82861 14.8052L9.32502 16.8354ZM12.5752 19.4911L18.9049 13.1613L18.3989 11.1504L11.2341 18.3098L12.5752 19.4911Z" fill="black"/>
</svg>
