<svg width="28" height="28" viewBox="0 0 28 28" fill="none" xmlns="http://www.w3.org/2000/svg">
<path d="M14.105 26.2301C20.7369 26.2301 26.2121 20.7549 26.2121 14.123C26.2121 7.50291 20.7273 2.01807 14.0954 2.01807C7.47523 2.01807 2 7.50291 2 14.123C2 20.7549 7.48484 26.2301 14.105 26.2301Z" fill="black"/>
<path d="M16.7082 6.8837L14.6302 12.4114L12.4391 10.2086L15.5935 6.26519C16.1237 5.60612 17.0105 6.06386 16.7082 6.8837ZM14.8273 12.6085H18.5591C18.8869 12.6085 19.152 12.8523 19.152 13.178C19.152 13.343 19.0775 13.5155 18.9561 13.6742L17.5887 15.3699L14.8273 12.6085ZM13.145 15.3807H9.51499C9.18499 15.3807 8.91031 15.1466 8.91031 14.8112C8.91031 14.6558 9.00195 14.4812 9.12546 14.315L10.4387 12.6701L13.145 15.3807ZM15.5959 17.8433L12.4016 21.8202C11.8618 22.4792 10.9824 22.0215 11.2944 21.2016L13.3747 15.6008L15.5959 17.8433ZM19.6041 20.4821L7.73843 8.63237C7.5139 8.38651 7.50429 7.99487 7.73843 7.77034C7.98429 7.51698 8.37803 7.51698 8.62178 7.77034L20.4716 19.6201C20.7078 19.8563 20.7078 20.2384 20.4716 20.4821C20.2374 20.7184 19.8362 20.7045 19.6041 20.4821Z" fill="white"/>
</svg>
