<svg width="28" height="28" viewBox="0 0 28 28" fill="none" xmlns="http://www.w3.org/2000/svg">
<path d="M14.105 26.21C20.7369 26.21 26.2121 20.7273 26.2121 14.105C26.2121 7.47312 20.7273 2 14.0954 2C7.47523 2 2 7.47312 2 14.105C2 20.7273 7.48484 26.21 14.105 26.21Z" fill="black"/>
<path d="M8.76288 14.183C8.23273 14.183 7.81226 13.7647 7.81226 13.2345V8.99653C7.81226 8.18114 8.22945 7.82068 8.98061 7.82068H13.2069C13.7349 7.82068 14.1554 8.25075 14.1554 8.78302C14.1554 9.31317 13.7349 9.73153 13.2069 9.73153H12.6439L10.9205 9.59325L13.5261 12.053C13.94 12.4426 13.9391 13.1269 13.5357 13.5324C13.1302 13.9454 12.4512 13.9634 12.0563 13.5228L9.57522 10.898L9.721 12.6652V13.2345C9.721 13.7647 9.29093 14.183 8.76288 14.183ZM14.998 20.4085C14.4699 20.4085 14.0398 19.9784 14.0398 19.4483C14.0398 18.916 14.4699 18.4998 14.998 18.4998H15.563L17.2864 18.6359L14.6712 16.1762C14.2573 15.7887 14.2583 15.1023 14.6616 14.6968C15.0767 14.2838 15.744 14.2679 16.1506 14.7064L18.6221 17.3312L18.4838 15.564V14.9968C18.4838 14.4645 18.9043 14.0483 19.4323 14.0483C19.9646 14.0483 20.3947 14.4645 20.3947 14.9968V19.2327C20.3947 20.0502 19.9658 20.4085 19.2167 20.4085H14.998Z" fill="white"/>
</svg>
