<svg width="28" height="28" viewBox="0 0 28 28" fill="none" xmlns="http://www.w3.org/2000/svg">
<path d="M14.105 26.21C20.7369 26.21 26.2121 20.7273 26.2121 14.105C26.2121 7.47312 20.7273 2 14.0954 2C7.47523 2 2 7.47312 2 14.105C2 20.7273 7.48484 26.21 14.105 26.21ZM14.105 23.8255C8.71085 23.8255 4.39412 19.4991 4.39412 14.105C4.39412 8.71085 8.70124 4.38452 14.0954 4.38452C19.4895 4.38452 23.8276 8.71085 23.8276 14.105C23.8276 19.4991 19.4991 23.8255 14.105 23.8255Z" fill="black"/>
<path d="M8.99533 19.3491H19.1996C20.4427 19.3491 21.0966 18.7123 21.0966 17.4809V11.3978C21.0966 10.1568 20.4427 9.51997 19.1996 9.51997H17.7976C17.349 9.51997 17.1945 9.43887 16.9166 9.14801L16.4605 8.64481C16.1612 8.33473 15.8586 8.17371 15.2682 8.17371H12.8884C12.3076 8.17371 12.0029 8.33262 11.696 8.64481L11.2303 9.14801C10.9503 9.42926 10.815 9.51997 10.361 9.51997H8.99533C7.7447 9.51997 7.09619 10.1568 7.09619 11.3978V17.4809C7.09619 18.7123 7.7447 19.3491 8.99533 19.3491ZM14.105 17.8009C12.2145 17.8009 10.6885 16.2845 10.6885 14.3823C10.6885 12.4897 12.2145 10.9733 14.105 10.9733C15.9997 10.9733 17.5119 12.4897 17.5119 14.3823C17.5119 16.3133 15.9997 17.8009 14.105 17.8009ZM14.0954 16.6644C15.3559 16.6644 16.3775 15.6502 16.3775 14.3823C16.3775 13.1218 15.3559 12.1098 14.0954 12.1098C12.8391 12.1098 11.8153 13.1218 11.8153 14.3823C11.8153 15.6502 12.8391 16.6644 14.0954 16.6644ZM18.7133 12.8213C18.2712 12.8213 17.908 12.4794 17.908 12.0202C17.908 11.5782 18.2712 11.2225 18.7133 11.2225C19.1553 11.2225 19.509 11.5782 19.509 12.0202C19.5186 12.4794 19.1553 12.8213 18.7133 12.8213Z" fill="black"/>
</svg>
