<svg width="28" height="28" viewBox="0 0 28 28" fill="none" xmlns="http://www.w3.org/2000/svg">
<path d="M3.84421 24.8781H23.9109C26.4499 24.8781 27.7552 23.5824 27.7552 21.0819V6.81004C27.7552 4.30739 26.4499 3.00427 23.9109 3.00427H3.84421C1.31484 3.00427 0 4.30739 0 6.81004V21.0819C0 23.5824 1.31484 24.8781 3.84421 24.8781ZM3.97733 22.5821C2.88772 22.5821 2.29592 22.018 2.29592 20.8794V7.01043C2.29592 5.87183 2.88772 5.30019 3.97733 5.30019H23.7778C24.8578 5.30019 25.4592 5.87183 25.4592 7.01043V20.8794C25.4592 22.018 24.8578 22.5821 23.7778 22.5821H3.97733Z" fill="black"/>
<path d="M7.44556 13.1333H9.13774C9.25821 12.4144 9.54087 11.7479 9.95899 11.1816L8.76814 9.98114C8.05939 10.8783 7.58619 11.96 7.44556 13.1333ZM9.93533 8.81396L11.1433 10.0198C11.7095 9.6188 12.3493 9.34364 13.0607 9.22106V7.52466C11.8949 7.6695 10.8283 8.13732 9.93533 8.81396ZM14.7156 7.52466V9.22106C15.4152 9.34364 16.0626 9.6188 16.6213 10.0102L17.8197 8.82357C16.9459 8.13732 15.8697 7.67911 14.7156 7.52466ZM19.0061 9.99075L17.8056 11.1912C18.212 11.7575 18.5064 12.4144 18.6173 13.1333H20.3094C20.1571 11.96 19.6935 10.8879 19.0061 9.99075ZM20.3052 14.7978H18.5992C18.4766 15.4836 18.2015 16.1267 17.8122 16.6792L19.0126 17.8775C19.6926 17.0059 20.1508 15.9381 20.3052 14.7978ZM17.8316 19.0543L16.6312 17.8538C16.0787 18.2699 15.4281 18.56 14.7156 18.6634V20.3748C15.8826 20.2224 16.96 19.7513 17.8316 19.0543ZM13.0607 20.3748V18.6634C12.3461 18.56 11.6954 18.2699 11.1334 17.8635L9.92337 19.0639C10.8142 19.761 11.8916 20.2224 13.0607 20.3748ZM8.75197 17.8967L9.95243 16.6888C9.55352 16.1363 9.27837 15.4932 9.15579 14.7978H7.44978C7.60423 15.9477 8.06244 17.0155 8.75197 17.8967Z" fill="black"/>
</svg>
