<svg width="28" height="28" viewBox="0 0 28 28" fill="none" xmlns="http://www.w3.org/2000/svg">
<path d="M14.105 26.21C20.7369 26.21 26.2121 20.7273 26.2121 14.105C26.2121 7.47312 20.7273 2 14.0954 2C7.47523 2 2 7.47312 2 14.105C2 20.7273 7.48484 26.21 14.105 26.21ZM14.105 23.8255C8.71085 23.8255 4.39412 19.4991 4.39412 14.105C4.39412 8.71085 8.70124 4.38452 14.0954 4.38452C19.4895 4.38452 23.8276 8.71085 23.8276 14.105C23.8276 19.4991 19.4991 23.8255 14.105 23.8255Z" fill="black"/>
<path d="M9.96362 11.874C9.96362 12.3826 10.3564 12.7754 10.8746 12.7754H13.2132V15.0887C13.2132 15.5855 13.606 15.9901 14.1146 15.9901C14.6253 15.9901 15.0277 15.5855 15.0277 15.0908V12.7754H17.3429C17.8515 12.7754 18.256 12.3826 18.256 11.874C18.256 11.3654 17.8515 10.963 17.3429 10.963H15.0277V8.64973C15.0277 8.14114 14.6253 7.74622 14.1146 7.74622C13.606 7.74622 13.2132 8.14114 13.2132 8.64973V10.963H10.8746C10.3564 10.963 9.96362 11.3654 9.96362 11.874ZM9.96362 18.7941C9.96362 19.2676 10.3712 19.7051 10.9074 19.7051H17.3122C17.8367 19.7051 18.256 19.2676 18.256 18.7941C18.256 18.2973 17.8367 17.8864 17.3122 17.8864H10.9074C10.3712 17.8864 9.96362 18.2973 9.96362 18.7941Z" fill="black"/>
</svg>
