<svg width="28" height="28" viewBox="0 0 28 28" fill="none" xmlns="http://www.w3.org/2000/svg">
<path d="M3.84421 24.8781H13.0355V22.5821H3.97733C2.88772 22.5821 2.29592 22.018 2.29592 20.8794V14.7967H0V21.0819C0 23.5824 1.31484 24.8781 3.84421 24.8781ZM14.7485 24.8781H23.9109C26.4499 24.8781 27.7552 23.5824 27.7552 21.0819V14.7967H25.4592V20.8794C25.4592 22.018 24.8578 22.5821 23.7778 22.5821H14.7485V24.8781ZM25.4592 13.0932H27.7552V6.81004C27.7552 4.30739 26.4499 3.00427 23.9109 3.00427H14.7485V5.30019H23.7778C24.8578 5.30019 25.4592 5.87183 25.4592 7.01043V13.0932ZM0 13.0932H2.29592V7.01043C2.29592 5.87183 2.88772 5.30019 3.97733 5.30019H13.0355V3.00427H3.84421C1.31484 3.00427 0 4.30739 0 6.81004V13.0932Z" fill="black"/>
<path d="M7.46313 13.9448C7.46313 14.7199 7.98578 15.248 8.75875 15.248H19.0251C19.8001 15.248 20.3207 14.7199 20.3207 13.9448C20.3207 13.1815 19.8001 12.6534 19.0251 12.6534H8.75875C7.98578 12.6534 7.46313 13.1815 7.46313 13.9448Z" fill="black"/>
</svg>
