<svg width="28" height="28" viewBox="0 0 28 28" fill="none" xmlns="http://www.w3.org/2000/svg">
<path d="M14.105 26.21C20.7369 26.21 26.2121 20.7273 26.2121 14.105C26.2121 7.47312 20.7273 2 14.0954 2C7.47523 2 2 7.47312 2 14.105C2 20.7273 7.48484 26.21 14.105 26.21Z" fill="black"/>
<path d="M9.16185 19.4923C7.93911 19.4923 7.28638 18.8492 7.28638 17.6286V10.6261C7.28638 9.40341 7.93911 8.7699 9.16185 8.7699H19.0291C20.2635 8.7699 20.9024 9.40341 20.9024 10.6261V17.6286C20.9024 18.8396 20.2635 19.4923 19.0291 19.4923H9.16185ZM9.26778 18.2389H18.9231C19.372 18.2389 19.6511 17.9586 19.6511 17.5088V16.4056L17.2678 14.2302C17.0067 13.9904 16.6753 13.8561 16.3652 13.8657C16.0338 13.8561 15.7258 13.9883 15.4488 14.2302L12.7401 16.6426L11.634 15.6559C11.3825 15.4374 11.0959 15.3223 10.8189 15.3223C10.5568 15.3223 10.2925 15.4353 10.0389 15.6462L8.54192 16.9203V17.5088C8.54192 17.9586 8.81051 18.2389 9.26778 18.2389ZM11.7554 14.247C12.5406 14.247 13.1831 13.6046 13.1831 12.8119C13.1831 12.0289 12.5406 11.3843 11.7554 11.3843C10.9628 11.3843 10.3204 12.0289 10.3204 12.8119C10.3204 13.6046 10.9628 14.247 11.7554 14.247Z" fill="white"/>
</svg>
