<svg width="31" height="28" viewBox="0 0 31 28" fill="none" xmlns="http://www.w3.org/2000/svg">
<path d="M2.03006 19.234C2.47631 21.6994 3.97209 22.7437 6.47591 22.3071L8.08512 22.0315V19.7058L6.2188 20.022C5.14091 20.216 4.45208 19.7627 4.2559 18.6455L2.38817 8.07188C2.18989 6.94078 2.67715 6.27422 3.75716 6.08765L19.1289 3.38132C20.1876 3.19687 20.8839 3.64054 21.0918 4.76742L21.6737 8.04047H23.9994L23.3059 4.1768C22.8693 1.71353 21.3639 0.659544 18.8697 1.09618L3.21669 3.8522C0.722479 4.29845 -0.341112 5.80594 0.0955283 8.26922L2.03006 19.234Z" fill="black"/>
<path d="M10.7891 25.2817H26.1283C28.1483 25.2817 29.1927 24.2631 29.1927 22.2081V21.5488L23.7627 16.437C23.3204 16.0299 22.779 15.8253 22.2175 15.8253C21.6643 15.8253 21.1572 16.0086 20.684 16.4274L16.0656 20.5173L14.2328 18.856C13.7947 18.4606 13.3344 18.2795 12.8453 18.2795C12.3967 18.2795 11.9631 18.4606 11.5271 18.8326L7.71502 22.1776C7.71502 24.2652 8.75635 25.2817 10.7891 25.2817ZM15.2893 16.6864C16.6457 16.6864 17.7505 15.5624 17.7505 14.2018C17.7505 12.8647 16.6457 11.7406 15.2893 11.7406C13.9288 11.7406 12.8336 12.8647 12.8336 14.2018C12.8336 15.5624 13.9288 16.6864 15.2893 16.6864ZM10.5114 26.1474H26.5044C29.0263 26.1474 30.3411 24.8443 30.3411 22.3417V11.2107C30.3411 8.71014 29.0263 7.40491 26.5044 7.40491H10.5114C7.97027 7.40491 6.66504 8.71014 6.66504 11.2107V22.3417C6.66504 24.8539 7.97027 26.1474 10.5114 26.1474ZM10.6445 23.8515C9.55276 23.8515 8.96096 23.2895 8.96096 22.1509V11.4132C8.96096 10.2725 9.55276 9.70083 10.6445 9.70083H26.3617C27.4417 9.70083 28.0452 10.2725 28.0452 11.4132V22.1509C28.0452 23.2895 27.4417 23.8515 26.3617 23.8515H10.6445Z" fill="black"/>
</svg>
