<svg width="28" height="31" viewBox="0 0 28 31" fill="none" xmlns="http://www.w3.org/2000/svg">
<path d="M5.38648 19.0866H22.7823C25.0231 19.0866 26.1709 17.9484 26.1709 15.746V3.36729C26.1709 1.16909 25.0231 0.00964355 22.7823 0.00964355H5.38648C3.16906 0.00964355 2 1.18081 2 3.36729V15.746C2 17.9388 3.15945 19.0866 5.38648 19.0866ZM5.50694 16.9784C4.58585 16.9784 4.09858 16.5091 4.09858 15.5604V3.54752C4.09858 2.60627 4.58585 2.11033 5.50694 2.11033H22.6756C23.5829 2.11033 24.0702 2.59666 24.0702 3.54752V15.5604C24.0702 16.4995 23.5829 16.9784 22.6756 16.9784H5.50694ZM25.0597 15.1582L19.0435 9.49995C18.5907 9.0919 18.0516 8.88518 17.5051 8.88518C16.9564 8.88518 16.4642 9.07807 15.988 9.48823L11.4026 13.5952L9.53187 11.8948C9.11 11.508 8.63914 11.3109 8.14156 11.3109C7.68359 11.3109 7.27648 11.5059 6.84289 11.8905L3.02538 15.3258C3.07343 17.1855 3.93944 18.1652 5.62951 18.1652H22.0991C24.1393 18.1652 25.1441 17.1183 25.0597 15.1582ZM9.91366 9.73315C11.2451 9.73315 12.3519 8.62854 12.3519 7.28323C12.3519 5.95385 11.2451 4.85463 9.91366 4.85463C8.57046 4.85463 7.48296 5.95385 7.48296 7.28323C7.48296 8.62854 8.57046 9.73315 9.91366 9.73315ZM3.02445 24.6576H25.1368C25.7091 24.6576 26.1709 24.2055 26.1709 23.6236C26.1709 23.0512 25.7091 22.5991 25.1368 22.5991H3.02445C2.45211 22.5991 2 23.0512 2 23.6236C2 24.2055 2.45211 24.6576 3.02445 24.6576ZM3.02445 30.2212H17.5918C18.1641 30.2212 18.6258 29.7691 18.6258 29.1947C18.6258 28.6223 18.1641 28.1606 17.5918 28.1606H3.02445C2.45211 28.1606 2 28.6223 2 29.1947C2 29.7691 2.45211 30.2212 3.02445 30.2212Z" fill="black"/>
</svg>
