<svg width="28" height="28" viewBox="0 0 28 28" fill="none" xmlns="http://www.w3.org/2000/svg">
<path d="M14.105 26.21C20.7369 26.21 26.2121 20.7273 26.2121 14.105C26.2121 7.47312 20.7273 2 14.0954 2C7.47523 2 2 7.47312 2 14.105C2 20.7273 7.48484 26.21 14.105 26.21ZM14.105 23.8255C8.71085 23.8255 4.39412 19.4991 4.39412 14.105C4.39412 8.71085 8.70124 4.38452 14.0954 4.38452C19.4895 4.38452 23.8276 8.71085 23.8276 14.105C23.8276 19.4991 19.4991 23.8255 14.105 23.8255Z" fill="black"/>
<path d="M9.0899 14.1671C9.58278 14.1671 9.98521 13.7764 9.98521 13.2835V12.7494L9.83942 11.0813L12.1863 13.558C12.5556 13.9688 13.1814 13.9529 13.5613 13.5676C13.937 13.1898 13.9338 12.5544 13.5517 12.1946L11.0921 9.86914L12.7185 10.0032H13.2463C13.7392 10.0032 14.132 9.6125 14.132 9.11961C14.132 8.62883 13.7392 8.2243 13.2463 8.2243H9.29169C8.59794 8.2243 8.2063 8.555 8.2063 9.3193V13.2835C8.2063 13.7764 8.59912 14.1671 9.0899 14.1671ZM14.9395 20.0049H18.8845C19.5803 20.0049 19.9816 19.6763 19.9816 18.912V14.9478C19.9816 14.4528 19.577 14.0621 19.0863 14.0621C18.5955 14.0621 18.2027 14.4528 18.2027 14.9478V15.4819L18.3367 17.15L15.9995 14.6712C15.6206 14.2625 15.0044 14.2763 14.617 14.6616C14.2413 15.0416 14.2424 15.6748 14.6266 16.0367L17.0936 18.3622L15.4694 18.226H14.9395C14.4487 18.226 14.0463 18.6167 14.0463 19.1096C14.0463 19.6025 14.4487 20.0049 14.9395 20.0049Z" fill="black"/>
</svg>
