<svg width="28" height="28" viewBox="0 0 28 28" fill="none" xmlns="http://www.w3.org/2000/svg">
<path d="M13.8391 20.4259C17.4115 20.4259 20.3105 17.5269 20.3105 13.9449C20.3105 10.3725 17.4115 7.47356 13.8391 7.47356C10.2572 7.47356 7.3582 10.3725 7.3582 13.9449C7.3582 17.5269 10.2572 20.4259 13.8391 20.4259ZM13.8391 18.7517C11.1682 18.7517 9.03444 16.6159 9.03444 13.9449C9.03444 11.274 11.1682 9.1498 13.8391 9.1498C16.5101 9.1498 18.6363 11.274 18.6363 13.9449C18.6363 16.6159 16.5101 18.7517 13.8391 18.7517ZM1.44257 14.5548L12.0473 3.94997H9.21258L1.44257 11.7275V14.5548ZM13.4487 8.46285H16.2717L20.8221 3.91458L18.0834 3.83771L13.4487 8.46285ZM1.47702 23.2459L8.11007 16.6245V13.8111L1.41936 20.5018L1.47702 23.2459ZM19.3191 14.3825L26.1263 7.57526L26.0494 4.85254L19.3191 11.5925V14.3825ZM10.053 23.6602L14.2692 19.4324H11.4579L7.30477 23.5834L10.053 23.6602ZM16.0795 23.5459H18.9143L26.0817 16.3688V13.5341L16.0795 23.5459ZM3.84421 24.8781H23.9109C26.4499 24.8781 27.7552 23.5824 27.7552 21.0819V6.81004C27.7552 4.30739 26.4499 3.00427 23.9109 3.00427H3.84421C1.31484 3.00427 0 4.30739 0 6.81004V21.0819C0 23.5824 1.31484 24.8781 3.84421 24.8781ZM3.97733 22.5821C2.88772 22.5821 2.29592 22.018 2.29592 20.8794V7.01043C2.29592 5.87183 2.88772 5.30019 3.97733 5.30019H23.7778C24.8578 5.30019 25.4592 5.87183 25.4592 7.01043V20.8794C25.4592 22.018 24.8578 22.5821 23.7778 22.5821H3.97733Z" fill="black"/>
</svg>
