<svg width="28" height="28" viewBox="0 0 28 28" fill="none" xmlns="http://www.w3.org/2000/svg">
<path d="M4.39234 17.6096C4.14039 17.8562 4 18.1848 4 18.5633C4 19.3266 4.59203 19.9229 5.35327 19.9229C5.736 19.9229 6.08897 19.7794 6.33646 19.5127L14.9566 10.6904H13.8102L22.4219 19.5127C22.6769 19.7815 23.032 19.9229 23.403 19.9229C24.1621 19.9229 24.7562 19.3266 24.7562 18.5633C24.7562 18.1827 24.618 17.8541 24.3618 17.6096L15.4391 8.47812C15.1429 8.16476 14.7824 8.00422 14.384 8C13.978 8 13.6251 8.16265 13.3192 8.47812L4.39234 17.6096Z" fill="black"/>
</svg>
