<svg width="28" height="28" viewBox="0 0 28 28" fill="none" xmlns="http://www.w3.org/2000/svg">
<path d="M14.105 26.21C20.7369 26.21 26.2121 20.7273 26.2121 14.105C26.2121 7.47312 20.7273 2 14.0954 2C7.47523 2 2 7.47312 2 14.105C2 20.7273 7.48484 26.21 14.105 26.21Z" fill="black"/>
<path d="M16.4737 19.9564C16.1311 20.2873 15.4331 20.2681 15.0607 19.9234L10.23 15.3706C9.50505 14.7043 9.50505 13.527 10.23 12.8607L15.0607 8.31011C15.4725 7.92598 16.0833 7.92269 16.4578 8.27707C16.8738 8.66332 16.8834 9.33152 16.4812 9.70604L11.7892 14.105L16.4812 18.5253C16.8696 18.8998 16.8897 19.5383 16.4737 19.9564Z" fill="white"/>
</svg>
