<svg width="28" height="28" viewBox="0 0 28 28" fill="none" xmlns="http://www.w3.org/2000/svg">
<path d="M5.43896 16.2683C5.43896 16.757 5.81584 17.1158 6.33545 17.1158H13.0262L9.55717 26.2951C9.07155 27.5781 10.4239 28.266 11.2362 27.215L16.5931 20.376L15.1667 18.9496L11.513 23.7751L11.9234 23.9635L14.5034 18.2767L11.4317 15.2263H8.66606L9.86444 13.6494L8.36677 12.1518L5.75842 15.4803C5.54865 15.7466 5.43896 15.9957 5.43896 16.2683ZM11.3396 8.3598L12.766 9.78832L16.4197 4.96066L16.0093 4.77433L13.4314 10.4633L16.4818 13.5095H19.2666L18.0682 15.0906L19.5638 16.584L22.1818 13.2479C22.3915 12.9892 22.5012 12.7421 22.5012 12.46C22.5012 11.9788 22.1243 11.62 21.6047 11.62H14.914L18.383 2.43105C18.8686 1.14809 17.5184 0.460199 16.704 1.52074L11.3396 8.3598Z" fill="black"/>
<path d="M22.3351 24.0503C22.6994 24.4103 23.3022 24.4145 23.6547 24.0503C24.0189 23.6978 24.0189 23.1046 23.6547 22.7307L5.59562 4.6738C5.2314 4.31169 4.61687 4.31169 4.26437 4.6738C3.91188 5.0263 3.91188 5.64294 4.26437 5.99333L22.3351 24.0503Z" fill="black"/>
</svg>
