<svg width="28" height="28" viewBox="0 0 28 28" fill="none" xmlns="http://www.w3.org/2000/svg">
<path d="M4.27851 12.802C5.01139 12.802 5.54741 12.2636 5.54741 11.5308V10.6919L5.30459 7.00495L8.0407 9.89036L11.4223 13.2954C11.6595 13.5443 11.9721 13.6591 12.3103 13.6591C13.0985 13.6591 13.6645 13.1285 13.6645 12.3478C13.6645 11.9871 13.5316 11.6679 13.2848 11.4211L9.88944 8.0374L7.00193 5.3034L10.7112 5.54621H11.6058C12.3387 5.54621 12.8866 5.01981 12.8866 4.27942C12.8866 3.53482 12.3483 3.00092 11.6058 3.00092H5.11241C3.77367 3.00092 3 3.77458 3 5.11122V11.5308C3 12.254 3.54562 12.802 4.27851 12.802ZM16.9441 25.5797H23.4396C24.7762 25.5797 25.5595 24.806 25.5595 23.4673V17.0477C25.5595 16.3266 25.0139 15.7786 24.2714 15.7786C23.5481 15.7786 23.0025 16.317 23.0025 17.0477V17.8887L23.2549 21.5735L20.5092 18.6881L17.1372 15.2852C16.9001 15.0363 16.5778 14.9215 16.2396 14.9215C15.461 14.9215 14.8854 15.4521 14.8854 16.2307C14.8854 16.5914 15.0279 16.9127 15.2747 17.1574L18.6605 20.5411L21.5576 23.2751L17.8484 23.0323H16.9441C16.2134 23.0323 15.6633 23.5587 15.6633 24.3012C15.6633 25.0458 16.2134 25.5797 16.9441 25.5797Z" fill="black"/>
</svg>
