<svg width="28" height="28" viewBox="0 0 28 28" fill="none" xmlns="http://www.w3.org/2000/svg">
<path d="M8.96671 24.7281C11.7429 24.7281 13.5787 23.1309 14.0238 19.9626L15.4877 9.48273C15.7701 7.42562 16.5998 6.60976 18.0851 6.60976C19.218 6.60976 19.6446 6.75788 20.1293 6.75788C20.7619 6.75788 21.2041 6.34656 21.2041 5.67344C21.2041 4.62555 19.7719 4.30774 18.2374 4.30774C15.4613 4.30774 13.6254 5.905 13.1803 9.07328L11.726 19.5627C11.4457 21.6177 10.6064 22.4261 9.11905 22.4261C7.99569 22.4261 7.57874 22.278 7.08444 22.278C6.44226 22.278 6 22.6893 6 23.3624C6 24.4199 7.43226 24.7281 8.96671 24.7281ZM8.36483 14.8652H19.7789C20.4616 14.8652 20.9571 14.3814 20.9571 13.72C20.9571 13.0586 20.4499 12.5652 19.7651 12.5652H8.35101C7.66828 12.5652 7.17281 13.049 7.17281 13.72C7.17281 14.3814 7.6821 14.8652 8.36483 14.8652Z" fill="black"/>
</svg>
