<svg width="28" height="28" viewBox="0 0 28 28" fill="none" xmlns="http://www.w3.org/2000/svg">
<path d="M14.105 26.21C20.7369 26.21 26.2121 20.7273 26.2121 14.105C26.2121 7.47312 20.7273 2 14.0954 2C7.47523 2 2 7.47312 2 14.105C2 20.7273 7.48484 26.21 14.105 26.21ZM14.105 23.8255C8.71085 23.8255 4.39412 19.4991 4.39412 14.105C4.39412 8.71085 8.70124 4.38452 14.0954 4.38452C19.4895 4.38452 23.8276 8.71085 23.8276 14.105C23.8276 19.4991 19.4991 23.8255 14.105 23.8255Z" fill="black"/>
<path d="M14.1339 20.4901C15.5503 20.4901 16.9181 20.0145 17.8912 19.2341C18.479 18.7845 18.6037 18.1562 18.2221 17.7057C17.8267 17.2489 17.2687 17.2454 16.7451 17.6105C15.9541 18.2195 15.1673 18.5331 14.1339 18.5331C11.9727 18.5331 10.1825 17.102 9.67113 15.188H10.7835C11.3479 15.188 11.5021 14.6269 11.1742 14.1894L9.30317 11.6169C8.97411 11.1727 8.41606 11.1439 8.07739 11.6169L6.22981 14.1894C5.90192 14.6366 6.04653 15.188 6.6109 15.188H7.75606C8.32184 18.3118 10.8932 20.4901 14.1339 20.4901ZM14.1147 7.68359C12.7101 7.68359 11.3305 8.14953 10.3691 8.93C9.77919 9.37953 9.65661 10.0079 10.0382 10.4584C10.4336 10.9152 10.9916 10.9166 11.5035 10.5535C12.2966 9.95421 13.0834 9.63101 14.1147 9.63101C16.278 9.63101 18.066 11.0621 18.5892 12.976H17.4171C16.8431 12.976 16.6964 13.5371 17.0167 13.9747L18.8974 16.5472C19.2264 16.9913 19.7845 17.0202 20.1231 16.5472L21.9707 13.9747C22.2986 13.5371 22.154 12.976 21.58 12.976H20.4925C19.9364 9.85016 17.3671 7.68359 14.1147 7.68359Z" fill="black"/>
</svg>
