<svg width="28" height="28" viewBox="0 0 28 28" fill="none" xmlns="http://www.w3.org/2000/svg">
<path d="M7.85163 19.2303V16.5709L4.4403 18.553C4.33694 18.6116 4.26241 18.5701 4.26241 18.4571V8.51211C4.26241 8.04617 4.38405 7.89687 4.73796 7.68898L13.3745 2.69937C13.4874 2.63327 13.5695 2.69187 13.5695 2.80483V6.72828L15.8319 5.61875V1.98523C15.8319 0.0849297 14.1676 -0.419207 12.8429 0.336179L3.58906 5.68814C2.41109 6.37555 2 7.08805 2 8.45867V18.9535C2 21.1037 3.38187 21.8082 5.1828 20.7662L7.85163 19.2303Z" fill="black"/>
<path d="M13.004 21.7439V19.094L9.2069 21.2946C9.10565 21.3532 9.02901 21.3117 9.02901 21.2008V11.2558C9.02901 10.7899 9.15276 10.6406 9.50456 10.4327L18.1431 5.44313C18.254 5.37704 18.336 5.44524 18.336 5.54649V9.78704L20.5984 8.59479V4.729C20.5984 2.83831 18.9363 2.32456 17.6095 3.08955L8.35566 8.4319C7.16808 9.12893 6.7666 9.84143 6.7666 11.2024V21.7047C6.7666 23.8474 8.14097 24.5498 9.9494 23.5174L13.004 21.7439Z" fill="black"/>
<path d="M11.7891 14.1426V24.645C11.7891 26.7876 13.1709 27.4997 14.9718 26.4576L24.0506 21.2081C25.2855 20.4991 25.6209 19.8185 25.6209 18.4666V7.66712C25.6209 5.77854 23.9566 5.27229 22.6319 6.02979L13.3781 11.3817C12.2001 12.0691 11.7891 12.7816 11.7891 14.1426ZM14.527 13.3708L23.1635 8.38126C23.2765 8.32688 23.3585 8.38548 23.3585 8.48673V18.3872C23.3585 18.8158 23.2711 18.9949 22.9022 19.2103L14.2293 24.2444C14.126 24.303 14.0514 24.2519 14.0514 24.1411V14.1961C14.0514 13.7301 14.1731 13.5808 14.527 13.3708Z" fill="black"/>
</svg>
