<svg width="28" height="28" viewBox="0 0 28 28" fill="none" xmlns="http://www.w3.org/2000/svg">
<path d="M10.7973 27.215L21.7428 13.2479C21.9526 12.9892 22.0622 12.7421 22.0622 12.46C22.0622 11.9788 21.6854 11.62 21.1658 11.62H14.4751L17.944 2.43105C18.4297 1.14809 17.0794 0.460199 16.265 1.52074L5.31945 15.4803C5.10969 15.7466 5 15.9957 5 16.2683C5 16.757 5.37687 17.1158 5.89648 17.1158H12.5872L9.1182 26.2951C8.63257 27.5781 9.98491 28.266 10.7973 27.215ZM11.4844 23.9635L15.5199 15.2263H8.2271L15.9807 4.96066L15.5703 4.77433L11.5465 13.5095H18.8276L11.0741 23.7751L11.4844 23.9635Z" fill="black"/>
</svg>
