<svg width="28" height="28" viewBox="0 0 28 28" fill="none" xmlns="http://www.w3.org/2000/svg">
<path d="M6.18124 26.9568H22.6081C24.7775 26.9568 25.8955 25.8529 25.8955 23.6582V22.9487L20.0795 17.4723C19.6041 17.0301 19.0222 16.8158 18.4255 16.8158C17.8318 16.8158 17.2916 17.0108 16.7853 17.4627L11.8374 21.8277L9.85952 20.0577C9.39804 19.641 8.90468 19.431 8.3846 19.431C7.89124 19.431 7.42671 19.6527 6.96944 20.046L2.88217 23.616C2.88217 25.855 3.99709 26.9568 6.18124 26.9568ZM10.9993 17.7388C12.4527 17.7388 13.6428 16.5294 13.6428 15.0836C13.6428 13.6377 12.4527 12.4497 10.9993 12.4497C9.54171 12.4497 8.36327 13.6377 8.36327 15.0836C8.36327 16.5294 9.54171 17.7388 10.9993 17.7388ZM5.84421 27.5465H22.9196C25.4415 27.5465 26.7659 26.2412 26.7659 23.7407V11.6887C26.7659 9.186 25.4415 7.88288 22.9196 7.88288H5.84421C3.30523 7.88288 2 9.186 2 11.6887V23.7407C2 26.2412 3.30523 27.5465 5.84421 27.5465ZM5.97733 25.2505C4.88772 25.2505 4.29592 24.6789 4.29592 23.5382V11.889C4.29592 10.7504 4.88772 10.1788 5.97733 10.1788H22.7769C23.8569 10.1788 24.4679 10.7504 24.4679 11.889V23.5382C24.4679 24.6789 23.8569 25.2505 22.7769 25.2505H5.97733ZM4.57812 5.97507H24.1974C24.0301 4.86437 23.4755 4.23414 22.232 4.23414H6.54358C5.29999 4.23414 4.74546 4.86437 4.57812 5.97507ZM6.96476 2.59609H21.8108C21.732 1.55359 21.1168 1 19.9869 1H8.77695C7.65664 1 7.04351 1.55359 6.96476 2.59609Z" fill="black"/>
</svg>
