<svg width="28" height="28" viewBox="0 0 28 28" fill="none" xmlns="http://www.w3.org/2000/svg">
<path d="M14.105 26.21C20.7369 26.21 26.2121 20.7273 26.2121 14.105C26.2121 7.47312 20.7273 2 14.0954 2C7.47523 2 2 7.47312 2 14.105C2 20.7273 7.48484 26.21 14.105 26.21Z" fill="black"/>
<path d="M8.7941 14.0033C8.27355 14.0033 7.85308 13.5849 7.85308 13.0623C7.85308 12.5513 8.27355 12.1447 8.7941 12.1447H9.31043L10.9954 12.2809L7.97167 9.41253C7.5716 9.01551 7.55871 8.36746 7.96206 7.9716C8.35792 7.57036 9.00597 7.56614 9.39128 7.98121L12.2926 11.0166L12.1543 9.28786V8.76731C12.1543 8.24254 12.5652 7.8359 13.074 7.8359C13.5945 7.8359 14.015 8.24254 14.015 8.76731V12.8584C14.015 13.6545 13.5978 14.0033 12.868 14.0033H8.7941ZM15.1339 20.3602C14.6134 20.3602 14.1929 19.9515 14.1929 19.4288V15.3282C14.1929 14.5395 14.6101 14.1908 15.3399 14.1908H19.4138C19.9344 14.1908 20.3548 14.6016 20.3548 15.1318C20.3548 15.6427 19.9344 16.0515 19.4138 16.0515H18.8975L17.2126 15.9132L20.2362 18.7836C20.6363 19.1689 20.6492 19.8266 20.2459 20.2224C19.85 20.6258 19.202 20.63 18.8166 20.2128L15.9153 17.1795L16.0536 18.9062V19.4288C16.0536 19.9515 15.6427 20.3602 15.1339 20.3602Z" fill="white"/>
</svg>
