<svg width="29" height="29" viewBox="0 0 29 29" fill="none" xmlns="http://www.w3.org/2000/svg">
<path d="M14.4771 28.5004C15.1153 28.5004 15.5817 28.0603 15.5817 27.3595V1.15054C15.5817 0.440153 15.1153 0 14.4771 0C13.8134 0 13.3587 0.440153 13.3587 1.15054V27.3595C13.3587 28.0603 13.8134 28.5004 14.4771 28.5004ZM1.15265 15.3607H27.8383C28.5487 15.3607 28.9889 14.8964 28.9889 14.2561C28.9889 13.5923 28.5487 13.1377 27.8383 13.1377H1.15265C0.442262 13.1377 0 13.5923 0 14.2561C0 14.8964 0.442262 15.3607 1.15265 15.3607Z" fill="black"/>
<path d="M8.20314 22.4583L20.7858 24.5742C23.1126 24.9663 24.5098 23.4525 24.5098 20.9151V7.59699C24.5098 4.94972 23.1916 3.52449 20.7858 3.92621L8.20314 6.05177C5.79728 6.45348 4.47705 7.62817 4.47705 9.71293V18.7896C4.47705 20.8647 5.79728 22.0565 8.20314 22.4583ZM8.25915 20.3048C7.24289 20.1384 6.66422 19.6097 6.66422 18.678V9.82238C6.66422 8.89074 7.24289 8.36198 8.25915 8.19558L20.6918 6.12393C21.7334 5.9533 22.312 6.55963 22.312 7.75706V20.7551C22.312 21.9023 21.7024 22.5492 20.6918 22.3861L8.25915 20.3048Z" fill="black"/>
</svg>
