<svg width="28" height="28" viewBox="0 0 28 28" fill="none" xmlns="http://www.w3.org/2000/svg">
<path d="M14.9719 26.4577L21.0172 22.9651L19.329 21.2886L14.239 24.2445C14.1261 24.3031 14.0515 24.252 14.0515 24.1412V16.0208L11.7891 13.7776V24.6451C11.7891 26.7877 13.171 27.4998 14.9719 26.4577ZM9.95139 23.5175L13.0039 21.744V19.0941L9.20678 21.2947C9.10553 21.3533 9.02889 21.3118 9.02889 21.2009V11.5913C9.02889 11.4655 9.04811 11.2798 9.15592 11.1347L7.33601 9.32656C6.94461 9.73437 6.76859 10.4459 6.76859 11.2025V21.7048C6.76859 23.8475 8.15046 24.5595 9.95139 23.5175ZM5.1828 20.7662L7.85163 19.2303V16.5709L4.44991 18.553C4.33694 18.6116 4.26241 18.5701 4.26241 18.4571V8.56227C4.26241 8.14508 4.40866 7.89968 4.71499 7.68523C4.91351 7.54976 5.10991 7.41851 5.30843 7.29687L3.65118 5.65133C3.48477 5.75797 3.29914 5.87422 3.13695 5.98836C2.32297 6.56328 2 7.23406 2 8.45867V18.9535C2 21.1037 3.4032 21.7965 5.1828 20.7662ZM9.65561 4.85515L13.3766 2.69937C13.4874 2.63327 13.5695 2.69187 13.5695 2.80483V6.72828L15.8319 5.61875V1.98523C15.8319 0.0849297 14.1772 -0.419207 12.8525 0.336179L7.96109 3.16274L9.65561 4.85515ZM13.1408 8.3307L18.143 5.44319C18.256 5.3771 18.338 5.4453 18.338 5.54655V9.7871L20.5983 8.59485V4.72906C20.5983 2.83837 18.9362 2.32462 17.6115 3.08961L11.4462 6.63829L13.1408 8.3307ZM25.0358 20.2182C25.1804 20.0394 25.2835 19.8467 25.3857 19.6402C25.5699 19.3093 25.621 18.9519 25.621 18.4667V7.66718C25.621 5.7786 23.9663 5.27235 22.6416 6.02985L15.147 10.3412L16.8512 12.0315L23.1753 8.38132C23.2766 8.32694 23.3586 8.38554 23.3586 8.48679V17.6263C23.3586 17.7702 23.349 17.8639 23.3009 17.9598C23.2433 18.0706 23.1856 18.1836 23.128 18.3104L25.0358 20.2182Z" fill="black"/>
<path d="M25.3179 25.2139C25.6896 25.5739 26.2849 25.5781 26.6374 25.2139C26.9974 24.8497 27.0091 24.2586 26.6374 23.8944L3.78141 1.05222C3.41719 0.687998 2.82399 0.687998 2.45017 1.05222C2.09767 1.40261 2.09767 2.01925 2.45017 2.37175L25.3179 25.2139Z" fill="black"/>
</svg>
