<svg width="28" height="28" viewBox="0 0 28 28" fill="none" xmlns="http://www.w3.org/2000/svg">
<path d="M14.105 26.21C20.7369 26.21 26.2121 20.7273 26.2121 14.105C26.2121 7.47312 20.7273 2 14.0954 2C7.47523 2 2 7.47312 2 14.105C2 20.7273 7.48484 26.21 14.105 26.21ZM14.105 23.8255C8.71085 23.8255 4.39412 19.4991 4.39412 14.105C4.39412 8.71085 8.70124 4.38452 14.0954 4.38452C19.4895 4.38452 23.8276 8.71085 23.8276 14.105C23.8276 19.4991 19.4991 23.8255 14.105 23.8255Z" fill="black"/>
<path d="M9.34574 19.2882H18.8471C20.0337 19.2882 20.645 18.6652 20.645 17.4978V10.7549C20.645 9.57784 20.0337 8.9762 18.8471 8.9762H9.34574C8.16871 8.9762 7.54785 9.57784 7.54785 10.7549V17.4978C7.54785 18.6748 8.16871 19.2882 9.34574 19.2882ZM9.44535 18.0889C9.00191 18.0889 8.74503 17.8203 8.74503 17.3865V16.8181L10.1951 15.593C10.4349 15.3842 10.6854 15.2712 10.9432 15.2712C11.2086 15.2712 11.4835 15.3863 11.7329 15.6027L12.7836 16.55L15.4051 14.2205C15.6662 13.9925 15.9624 13.8699 16.28 13.8699C16.5762 13.8699 16.8959 13.9925 17.1453 14.2323L19.4457 16.3269V17.3865C19.4457 17.8203 19.1825 18.0889 18.7475 18.0889H9.44535ZM11.8437 14.2395C11.0808 14.2395 10.4543 13.6227 10.4543 12.8577C10.4543 12.1161 11.0808 11.4875 11.8437 11.4875C12.5895 11.4875 13.2043 12.1161 13.2043 12.8577C13.2043 13.6227 12.5895 14.2395 11.8437 14.2395Z" fill="black"/>
</svg>
