<svg width="28" height="28" viewBox="0 0 28 28" fill="none" xmlns="http://www.w3.org/2000/svg">
<path d="M6.84421 24.8972H21.0295C23.5685 24.8972 24.8737 23.5919 24.8737 21.0914V6.82921C24.8737 4.32656 23.5685 3.02344 21.0295 3.02344H6.84421C4.31484 3.02344 3 4.31695 3 6.82921V21.0914C3 23.6016 4.31484 24.8972 6.84421 24.8972Z" fill="black"/>
<path d="M8.70605 14.7579C8.70605 14.5929 8.77847 14.4087 8.91159 14.2521L15.4737 6.08904C16.0155 5.43209 16.9078 5.88771 16.5905 6.70545L14.4593 12.4015H18.4563C18.7938 12.4015 19.0493 12.6431 19.0493 12.971C19.0493 13.1339 18.9769 13.3181 18.8534 13.4651L12.2838 21.6281C11.7398 22.2968 10.8571 21.8391 11.167 21.0213L13.3057 15.3274H9.29901C8.97112 15.3274 8.70605 15.0837 8.70605 14.7579Z" fill="white"/>
</svg>
