<svg width="29" height="28" viewBox="0 0 29 28" fill="none" xmlns="http://www.w3.org/2000/svg">
<path d="M3.84421 24.6282H25.1184C27.6403 24.6282 28.9648 23.323 28.9648 20.8224V8.52547C28.9648 6.02492 27.6403 4.7293 25.1184 4.7293H21.9799C21.0605 4.7293 20.7623 4.56289 20.1991 3.97063L19.2722 2.96656C18.663 2.32625 18.0485 2 16.8562 2H12.0412C10.849 2 10.2345 2.32625 9.62531 2.96656L8.69625 3.97063C8.13305 4.55328 7.82742 4.7293 6.91547 4.7293H3.84421C1.31484 4.7293 0 6.02492 0 8.52547V20.8224C0 23.323 1.31484 24.6282 3.84421 24.6282ZM14.4813 20.9687C10.9706 20.9687 8.15038 18.158 8.15038 14.6239C8.15038 11.0994 10.9706 8.29085 14.4813 8.29085C17.9962 8.29085 20.8048 11.0994 20.8048 14.6239C20.8048 18.158 17.9866 20.9687 14.4813 20.9687ZM14.4813 18.8752C16.8293 18.8752 18.7209 16.989 18.7209 14.6239C18.7209 12.2663 16.8293 10.3747 14.4813 10.3747C12.1376 10.3747 10.2342 12.2663 10.2342 14.6239C10.2342 16.989 12.1472 18.8752 14.4813 18.8752ZM21.5625 10.3177C21.5625 9.49132 22.2867 8.76711 23.1345 8.76711C23.9705 8.76711 24.683 9.49132 24.683 10.3177C24.683 11.1772 23.9726 11.8641 23.1345 11.8758C22.2825 11.878 21.5625 11.1868 21.5625 10.3177Z" fill="black"/>
</svg>
