<svg width="28" height="28" viewBox="0 0 28 28" fill="none" xmlns="http://www.w3.org/2000/svg">
<path d="M3.84421 24.8781H13.0355V22.5821H3.97733C2.88772 22.5821 2.29592 22.018 2.29592 20.8794V14.7967H0V21.0819C0 23.5824 1.31484 24.8781 3.84421 24.8781ZM14.7485 24.8781H23.9109C26.4499 24.8781 27.7552 23.5824 27.7552 21.0819V14.7967H25.4592V20.8794C25.4592 22.018 24.8578 22.5821 23.7778 22.5821H14.7485V24.8781ZM25.4592 13.0932H27.7552V6.81004C27.7552 4.30739 26.4499 3.00427 23.9109 3.00427H14.7485V5.30019H23.7778C24.8578 5.30019 25.4592 5.87183 25.4592 7.01043V13.0932ZM0 13.0932H2.29592V7.01043C2.29592 5.87183 2.88772 5.30019 3.97733 5.30019H13.0355V3.00427H3.84421C1.31484 3.00427 0 4.30739 0 6.81004V13.0932Z" fill="black"/>
<path d="M13.8873 10.8214C14.8077 10.8214 15.5448 10.0768 15.5448 9.15848C15.5448 8.2552 14.8098 7.50098 13.8873 7.50098C12.9765 7.50098 12.2298 8.2552 12.2298 9.15848C12.2298 10.0768 12.9786 10.8214 13.8873 10.8214ZM13.8873 20.3653C14.8098 20.3653 15.5448 19.6111 15.5448 18.7078C15.5448 17.7799 14.8077 17.0428 13.8873 17.0428C12.9786 17.0428 12.2298 17.7799 12.2298 18.7078C12.2298 19.6111 12.9765 20.3653 13.8873 20.3653ZM18.6716 15.5906C19.5749 15.5906 20.3291 14.8439 20.3291 13.9331C20.3291 13.0106 19.5749 12.2757 18.6716 12.2757C17.7437 12.2757 16.997 13.0106 16.997 13.9331C16.997 14.8418 17.7437 15.5906 18.6716 15.5906ZM9.11258 15.5906C10.0405 15.5906 10.7776 14.8418 10.7776 13.9331C10.7776 13.0127 10.0405 12.2757 9.11258 12.2757C8.2093 12.2757 7.45508 13.0106 7.45508 13.9331C7.45508 14.8439 8.2093 15.5906 9.11258 15.5906Z" fill="black"/>
<path d="M13.8872 15.5906C14.8076 15.5906 15.5447 14.8418 15.5447 13.9331C15.5447 13.0127 14.8076 12.2756 13.8872 12.2756C12.9785 12.2756 12.2297 13.0127 12.2297 13.9331C12.2297 14.8418 12.9785 15.5906 13.8872 15.5906Z" fill="black"/>
</svg>
