<svg width="28" height="28" viewBox="0 0 28 28" fill="none" xmlns="http://www.w3.org/2000/svg">
<path d="M14.105 26.21C20.7369 26.21 26.2121 20.7273 26.2121 14.105C26.2121 7.47312 20.7273 2 14.0954 2C7.47523 2 2 7.47312 2 14.105C2 20.7273 7.48484 26.21 14.105 26.21Z" fill="black"/>
<path d="M8.10727 16.9756C7.73696 16.6095 7.74657 15.9573 8.15203 15.5359L12.8126 10.5643C13.6038 9.73153 14.6177 9.72942 15.409 10.5622L20.0695 15.5316C20.4846 15.9552 20.4942 16.6095 20.1143 16.9756C19.6865 17.4045 19.0268 17.4045 18.6426 16.9927L14.1145 12.1812L9.5789 16.9927C9.19265 17.4045 8.535 17.4045 8.10727 16.9756Z" fill="white"/>
</svg>
