<svg width="28" height="29" viewBox="0 0 28 29" fill="none" xmlns="http://www.w3.org/2000/svg">
<path d="M26.0872 26.6221V17.3047C26.0872 15.7857 25.3573 15.0559 23.8405 15.0559H10.0117C8.75052 15.0559 8.0542 16.0023 8.0542 17.0326C8.0542 17.7617 8.37318 18.4653 9.10114 18.931L22.9067 28.1865C23.3366 28.4792 23.7977 28.6185 24.2901 28.6185C25.2646 28.6185 26.0872 27.9674 26.0872 26.6221ZM23.7172 25.5252C23.7172 25.603 23.6746 25.6649 23.6084 25.6649C23.5712 25.6649 23.5243 25.6511 23.4795 25.6201L11.0994 17.641C11.0504 17.608 11.0344 17.5611 11.0344 17.5335C11.0344 17.4749 11.0813 17.4397 11.1399 17.4397H23.4163C23.6532 17.4397 23.7172 17.5016 23.7172 17.7385V25.5252ZM26.0872 11.376V2.05658C26.0872 0.711271 25.2646 0.0601807 24.2901 0.0601807C23.7977 0.0601807 23.3366 0.201507 22.9067 0.482522L9.10114 9.74973C8.37318 10.2133 8.0542 10.9169 8.0542 11.6481C8.0542 12.6763 8.75052 13.6227 10.0117 13.6227H23.8405C25.3573 13.6227 26.0872 12.895 26.0872 11.376ZM23.7172 10.9401C23.7172 11.1674 23.6532 11.241 23.4163 11.241H11.1495C11.0909 11.241 11.0344 11.2037 11.0344 11.1451C11.0344 11.1079 11.0504 11.0727 11.1186 11.0376L23.4795 3.06063C23.5243 3.02758 23.5712 3.01375 23.6084 3.01375C23.6746 3.01375 23.7172 3.07774 23.7172 3.15555V10.9401Z" fill="black"/>
<path d="M4.97048 26.7916L7.38689 23.5624C7.90228 22.8862 7.59454 22.0589 6.75548 22.0589H5.09962V6.61987H6.75548C7.59454 6.61987 7.90228 5.79253 7.38689 5.11847L4.97048 1.88925C4.63931 1.43879 4.01845 1.443 3.68728 1.88925L1.25166 5.11847C0.75338 5.77542 1.03018 6.61987 1.9065 6.61987H3.52299V22.0589H1.9065C1.0494 22.0589 0.732052 22.8841 1.25166 23.5624L3.68728 26.7916C4.01845 27.2282 4.64892 27.2303 4.97048 26.7916Z" fill="black"/>
</svg>
