<svg width="29" height="28" viewBox="0 0 29 28" fill="none" xmlns="http://www.w3.org/2000/svg">
<path d="M0 17.5315C0 18.9819 0.857343 20.0987 2.34961 20.1008C2.62242 20.1008 3.02437 20.0794 3.57469 19.9866L7.96359 19.3466C9.74202 19.0962 10.2066 18.3678 10.2066 16.8798C10.2066 16.426 10.2066 15.9936 10.2162 15.5398C10.2162 15.1702 10.3802 15.0158 10.6519 14.9476C12.3787 14.5714 16.5565 14.5714 18.2833 14.9476C18.555 15.0158 18.719 15.1702 18.719 15.5398C18.7287 15.9936 18.7287 16.426 18.7287 16.8798C18.7287 18.3678 19.1932 19.0962 20.9716 19.3466L25.3605 19.9866C25.9108 20.0794 26.3128 20.1008 26.5856 20.1008C28.0779 20.0987 28.9352 18.9819 28.9352 17.5315C28.9352 17.1865 28.9352 16.8554 28.9352 16.5221C28.9352 10.9632 22.7719 8.18445 14.4687 8.18445C6.17297 8.18445 0 10.9632 0 16.5221C0 16.8554 0 17.1865 0 17.5315ZM2.0714 17.2313C2.0714 17.0258 2.0714 16.8277 2.0714 16.6222C2.0714 11.8585 8.20804 10.1016 14.4687 10.1016C20.7272 10.1016 26.8638 11.8585 26.8638 16.6222C26.8638 16.8277 26.8638 17.0258 26.8638 17.2313C26.8638 17.7718 26.6069 18.2124 26.0641 18.2124C25.9106 18.2124 25.7475 18.189 25.4615 18.1388L21.4017 17.3773C21.0551 17.3037 20.8001 17.1277 20.8001 16.6189C20.8001 16.1237 20.8001 15.6113 20.8001 15.114C20.8001 13.8673 20.3592 13.3754 19.6992 13.1848C17.7661 12.6352 11.1712 12.6352 9.23601 13.1848C8.57601 13.3754 8.13515 13.8673 8.13515 15.114C8.13515 15.6113 8.13515 16.1237 8.13515 16.6189C8.13515 17.1277 7.88015 17.3037 7.53351 17.3773L3.47578 18.1388C3.18773 18.189 3.03421 18.2124 2.87109 18.2124C2.33038 18.2124 2.0714 17.7718 2.0714 17.2313Z" fill="black"/>
</svg>
