<svg width="28" height="28" viewBox="0 0 28 28" fill="none" xmlns="http://www.w3.org/2000/svg">
<path d="M14.105 26.21C20.7369 26.21 26.2121 20.7273 26.2121 14.105C26.2121 7.47312 20.7273 2 14.0954 2C7.47523 2 2 7.47312 2 14.105C2 20.7273 7.48484 26.21 14.105 26.21ZM14.105 23.8255C8.71085 23.8255 4.39412 19.4991 4.39412 14.105C4.39412 8.71085 8.70124 4.38452 14.0954 4.38452C19.4895 4.38452 23.8276 8.71085 23.8276 14.105C23.8276 19.4991 19.4991 23.8255 14.105 23.8255Z" fill="black"/>
<path d="M11.2836 16.8282C14.0035 19.5577 17.446 21.2752 19.4895 19.2413C19.5737 19.1572 19.6344 19.0848 19.693 19.0006C20.2067 18.4093 20.3621 17.6284 19.674 17.1052C19.1159 16.708 18.5312 16.2894 17.6176 15.6615C16.9316 15.1747 16.4947 15.3024 15.9737 15.8192L15.5112 16.2699C15.3823 16.3967 15.148 16.385 14.9998 16.2912C14.5822 16.0452 13.9067 15.4986 13.261 14.8508C12.627 14.2168 12.0507 13.4987 11.8205 13.1141C11.7427 12.9894 11.6895 12.7784 11.8419 12.624L12.2926 12.1381C12.8115 11.5916 12.9371 11.1845 12.4428 10.4846L11.0183 8.46668C10.5324 7.78582 9.82811 7.90114 9.03451 8.48379C8.97592 8.53067 8.92904 8.57754 8.88428 8.62231C6.82904 10.6679 8.56787 14.1104 11.2836 16.8282Z" fill="black"/>
</svg>
