<svg width="28" height="28" viewBox="0 0 28 28" fill="none" xmlns="http://www.w3.org/2000/svg">
<path d="M1.13459 13.8519V15.2486H11.955C11.2931 16.5812 9.23296 18.4776 7.70741 18.6745C7.07178 18.7689 6.71296 19.1545 6.71296 19.7381C6.71296 20.2938 7.14632 20.8248 7.87756 20.7163C9.61897 20.4351 12.2562 18.4893 13.017 16.187H13.0969V23.9109H14.6203V16.187H14.7119C15.4706 18.4893 18.1078 20.4351 19.8513 20.7163C20.5805 20.8248 21.0159 20.2938 21.0159 19.7381C21.0159 19.1545 20.6571 18.7689 20.0119 18.6745C18.4938 18.4776 16.4241 16.5812 15.7718 15.2486H26.494V13.8519H18.6152C19.9727 13.1924 20.8985 12.0306 20.8985 10.6321C20.8985 8.97179 19.6678 7.73265 18.0056 7.73265C16.6083 7.73265 15.3621 8.59304 14.6203 9.98547V4.4303H13.0969V9.98547C12.3647 8.59304 11.1206 7.73265 9.71366 7.73265C8.06108 7.73265 6.82077 8.97179 6.82077 10.6321C6.82077 12.0306 7.75406 13.1924 9.10195 13.8519H1.13459ZM12.5723 13.7036C10.4156 13.7036 8.57014 12.2038 8.57014 10.8201C8.57014 9.99272 9.07335 9.49585 9.85804 9.49585C11.4722 9.49585 12.8923 11.3219 12.8923 13.3966V13.7036H12.5723ZM15.1448 13.7036H14.827V13.3966C14.827 11.3219 16.245 9.49585 17.8591 9.49585C18.6556 9.49585 19.1491 9.99272 19.1491 10.8201C19.1491 12.2038 17.3133 13.7036 15.1448 13.7036ZM3.84421 24.2889H23.8826C26.4237 24.2889 27.7268 22.9933 27.7268 20.4927V7.81749C27.7268 5.31695 26.4237 4.01172 23.8826 4.01172H3.84421C1.31484 4.01172 0 5.31695 0 7.81749V20.4927C0 22.9933 1.31484 24.2889 3.84421 24.2889ZM3.97733 21.993C2.88772 21.993 2.29592 21.4309 2.29592 20.2923V8.01999C2.29592 6.87928 2.88772 6.30764 3.97733 6.30764H23.7495C24.8199 6.30764 25.4309 6.87928 25.4309 8.01999V20.2923C25.4309 21.4309 24.8199 21.993 23.7495 21.993H3.97733Z" fill="black"/>
</svg>
