<svg width="28" height="28" viewBox="0 0 28 28" fill="none" xmlns="http://www.w3.org/2000/svg">
<path d="M14.105 26.21C20.7369 26.21 26.2121 20.7273 26.2121 14.105C26.2121 7.47312 20.7273 2 14.0954 2C7.47523 2 2 7.47312 2 14.105C2 20.7273 7.48484 26.21 14.105 26.21Z" fill="black"/>
<path d="M15.3687 20.1277C15.0772 20.1277 14.8484 20.0321 14.5451 19.7405L10.4525 15.8614C10.1464 15.5574 9.95563 15.3573 9.95563 14.9134C9.95563 14.3387 10.3632 14.0096 10.9198 14.0096H12.589C13.7593 14.0096 14.5034 13.5725 14.7155 12.7151H10.5723C10.2451 12.7151 9.9957 12.4562 9.9957 12.1365C9.9957 11.7975 10.2451 11.5482 10.5723 11.5482H14.6867C14.4704 10.7464 13.7625 10.2804 12.7139 10.2804H10.6641C10.2247 10.2804 9.86914 9.91948 9.86914 9.48635C9.86914 9.03401 10.2247 8.7019 10.6641 8.7019H13.8153C14.2948 8.7019 14.7511 8.73987 15.1779 8.81159H17.7167C18.0556 8.81159 18.2932 9.03963 18.2932 9.37854C18.2932 9.70034 18.0556 9.96682 17.7167 9.96682H15.9778C16.3371 10.3962 16.5525 10.9418 16.6421 11.5482H17.7743C18.1132 11.5482 18.3413 11.7975 18.3413 12.1365C18.3413 12.4562 18.1132 12.7151 17.7743 12.7151H16.6207C16.3831 14.1837 15.2534 15.4953 12.9736 15.5607L12.6771 15.567L15.8886 18.564C16.0981 18.7756 16.245 19.0161 16.245 19.2854C16.245 19.7982 15.8283 20.1277 15.3687 20.1277Z" fill="white"/>
</svg>
