<svg width="31" height="28" viewBox="0 0 31 28" fill="none" xmlns="http://www.w3.org/2000/svg">
<path d="M5.31163 26.8515C6.93585 26.8515 10.223 25.2747 12.6947 23.5058C13.7873 23.5614 14.8469 23.4836 15.9227 23.3033C15.9005 23.1608 15.8845 23.0141 15.8845 22.8749V21.4748C15.8845 21.2973 15.9089 21.1337 15.9417 20.984C15.1254 21.1162 14.3475 21.1919 13.5675 21.1919C13.35 21.1919 13.0247 21.1823 12.6108 21.1727C12.1101 21.1727 11.733 21.3187 11.2666 21.6892C9.85475 22.7322 7.75616 24.0571 6.71084 24.4802C6.56858 24.5343 6.51444 24.4534 6.60889 24.3271C7.20819 23.586 8.10772 22.4179 8.53569 21.6194C8.88702 20.9678 8.76491 20.4034 8.01069 20.0455C4.42803 18.3684 2.35451 15.6885 2.35451 12.6325C2.35451 7.9101 7.32913 4.06353 13.5675 4.06353C19.8134 4.06353 24.788 7.9101 24.788 12.6325C24.788 13.2953 24.6942 13.9368 24.5109 14.5452C25.2787 14.6099 25.9992 15.0693 26.3655 15.7675C26.4494 15.7675 26.5261 15.7867 26.5856 15.7984C26.9348 14.7974 27.1329 13.7357 27.1329 12.6325C27.1329 6.59034 21.1022 1.71863 13.5675 1.71863C6.0307 1.71863 0 6.59034 0 12.6325C0 16.4762 2.39977 19.9159 6.07125 21.6986C5.56711 22.6485 4.66711 23.9659 4.15453 24.6405C3.41532 25.6211 3.92742 26.8515 5.31163 26.8515Z" fill="black"/>
<path d="M18.5173 23.5319C18.9091 23.5319 19.2169 23.2241 19.2169 22.844V20.9826C19.2169 20.6024 18.9091 20.2947 18.5173 20.2947C18.1392 20.2947 17.8315 20.6024 17.8315 20.9826V22.844C17.8315 23.2241 18.1392 23.5319 18.5173 23.5319Z" fill="black"/>
<path d="M21.3155 25.6145C21.7094 25.6145 22.0055 25.3089 22.0055 24.9212V18.9053C22.0055 18.5176 21.7094 18.212 21.3155 18.212C20.9257 18.212 20.6318 18.5176 20.6318 18.9053V24.9212C20.6318 25.311 20.9278 25.6145 21.3155 25.6145Z" fill="black"/>
<path d="M24.1158 27.5701C24.4959 27.5701 24.8037 27.2624 24.8037 26.8822V16.9635C24.8037 16.5695 24.4959 16.266 24.1158 16.266C23.726 16.266 23.4204 16.5737 23.4204 16.9635V26.8822C23.4204 27.2741 23.7164 27.5701 24.1158 27.5701Z" fill="black"/>
<path d="M26.8947 26.2315C27.2962 26.2315 27.5901 25.9259 27.5901 25.5436V18.2827C27.5901 17.8983 27.2941 17.5948 26.8947 17.5948C26.5146 17.5948 26.2186 17.9004 26.2186 18.2827V25.5436C26.2186 25.9259 26.5146 26.2315 26.8947 26.2315Z" fill="black"/>
<path d="M29.7026 24.1392C30.0923 24.1392 30.3883 23.8528 30.3883 23.4513V20.3754C30.3883 19.9814 30.0902 19.6779 29.7026 19.6779C29.3107 19.6779 29.0051 19.9952 29.0051 20.3754V23.4513C29.0051 23.8453 29.3107 24.1392 29.7026 24.1392Z" fill="black"/>
</svg>
