<svg width="28" height="28" viewBox="0 0 28 28" fill="none" xmlns="http://www.w3.org/2000/svg">
<path d="M14.6001 22.1046C18.1417 22.1046 20.4751 20.277 21.149 18.1521C21.2055 17.955 21.2577 17.7387 21.2577 17.4989C21.2577 16.7515 20.7072 16.2771 19.9598 16.2771C19.3443 16.2771 18.9869 16.6324 18.7244 17.1612C18.0498 18.7104 16.7212 19.7515 14.6223 19.7515C11.7257 19.7515 9.84435 17.7225 9.84435 13.9078C9.84435 10.1646 11.7086 8.05873 14.6031 8.05873C16.6745 8.05873 18.0222 9.10944 18.6871 10.6373C18.9517 11.2066 19.3476 11.5406 19.9705 11.5406C20.7083 11.5406 21.2301 11.0566 21.2301 10.3188C21.2301 10.0812 21.1778 9.86484 21.1213 9.66773C20.44 7.55039 18.074 5.70563 14.5766 5.70563C9.99297 5.70563 7 8.88867 7 13.9078C7 18.9952 9.99086 22.1046 14.6001 22.1046ZM14.5178 24.822C14.9451 24.822 15.2638 24.5278 15.2638 24.075V3.74695C15.2638 3.29414 14.9451 3 14.5178 3C14.0905 3 13.7814 3.29414 13.7814 3.74695V24.075C13.7814 24.5278 14.0905 24.822 14.5178 24.822Z" fill="black"/>
</svg>
