<svg width="31" height="28" viewBox="0 0 31 28" fill="none" xmlns="http://www.w3.org/2000/svg">
<path d="M3.4502 19.4641C3.4502 19.8756 3.6731 20.0964 4.06872 20.0964H26.875C27.261 20.0964 27.4935 19.8756 27.4935 19.4641V8.07669C27.4935 7.67473 27.261 7.44434 26.875 7.44434H4.06872C3.6731 7.44434 3.4502 7.67473 3.4502 8.07669V19.4641ZM4.69075 18.6032V8.93754C4.69075 8.77442 4.77067 8.687 4.93169 8.687H26.0024C26.1635 8.687 26.253 8.77442 26.253 8.93754V18.6032C26.253 18.7663 26.1635 18.8538 26.0024 18.8538H4.93169C4.77067 18.8538 4.69075 18.7663 4.69075 18.6032ZM15.4202 20.0964C17.905 20.0964 19.8447 17.6104 19.8447 13.7586C19.8447 9.91864 17.905 7.44434 15.4202 7.44434C13.0035 7.44434 11.1011 9.91864 11.1011 13.7586C11.1011 17.6104 13.0035 20.0964 15.4202 20.0964ZM15.4202 18.6229C13.851 18.6229 12.5259 16.7479 12.5259 13.7586C12.5259 10.7811 13.851 8.91785 15.4202 8.91785C17.0596 8.91785 18.4295 10.7811 18.4295 13.7586C18.4295 16.7479 17.0596 18.6229 15.4202 18.6229Z" fill="black"/>
<path d="M0 22.5412C0 23.1459 0.402421 23.5483 1.00711 23.5483H29.9358C30.5405 23.5483 30.9333 23.1459 30.9333 22.5412V4.99957C30.9333 4.397 30.5405 4.00208 29.9358 4.00208H1.00711C0.402421 4.00208 0 4.397 0 4.99957V22.5412ZM2.29592 20.9167V6.63363C2.29592 6.38636 2.39389 6.298 2.62944 6.298H28.3038C28.549 6.298 28.6374 6.38636 28.6374 6.63363V20.9167C28.6374 21.1544 28.549 21.2524 28.3038 21.2524H2.62944C2.39389 21.2524 2.29592 21.1544 2.29592 20.9167Z" fill="black"/>
</svg>
