<svg width="28" height="28" viewBox="0 0 28 28" fill="none" xmlns="http://www.w3.org/2000/svg">
<path d="M8.01578 27.2622C8.50023 27.2622 8.87382 27.0299 9.45835 26.489L13.7626 22.5944H21.4504C24.9784 22.5944 26.9547 20.5777 26.9547 17.0998V8.01138C26.9547 4.53349 24.9784 2.50708 21.4504 2.50708H6.50218C2.97625 2.50708 1 4.52388 1 8.01138V17.0998C1 20.5872 3.02476 22.5944 6.42836 22.5944H6.90109V25.9898C6.90109 26.7606 7.30984 27.2622 8.01578 27.2622Z" fill="black"/>
<path d="M11.0666 15.3754C8.23607 12.5544 6.44521 8.97907 8.57381 6.85047C8.61318 6.8036 8.66005 6.75672 8.73787 6.70774C9.56334 6.09954 10.2953 5.98422 10.7971 6.69063L12.2791 8.78618C12.7893 9.51368 12.6637 9.9346 12.1171 10.5088L11.6526 11.0106C11.4885 11.1747 11.5492 11.3898 11.6291 11.5145C11.8635 11.9247 12.4558 12.663 13.1174 13.3246C13.8004 13.998 14.496 14.5605 14.9179 14.8204C15.0895 14.9162 15.3238 14.9397 15.4666 14.7991L15.9332 14.3345C16.4702 13.7901 16.9326 13.6623 17.6559 14.1726C18.5896 14.8281 19.1924 15.2509 19.7877 15.6641C20.5035 16.2053 20.3364 17.0235 19.8088 17.6329C19.7481 17.7191 19.6853 17.8033 19.6012 17.8895C17.4747 19.9947 13.8993 18.2177 11.0666 15.3754Z" fill="white"/>
</svg>
