<svg width="28" height="28" viewBox="0 0 28 28" fill="none" xmlns="http://www.w3.org/2000/svg">
<path d="M14.105 26.21C20.7369 26.21 26.2121 20.7273 26.2121 14.105C26.2121 7.47312 20.7273 2 14.0954 2C7.47523 2 2 7.47312 2 14.105C2 20.7273 7.48484 26.21 14.105 26.21Z" fill="black"/>
<path d="M11.0663 21.3441C10.6789 21.3441 10.3447 21.0216 10.3447 20.6384C10.3447 20.2531 10.6789 19.9189 11.0663 19.9189H13.4098V18.7993C10.9928 18.515 9.31439 16.7016 9.31439 14.2112V12.6927C9.31439 12.3169 9.63478 12.0029 10.0147 12.0029C10.4021 12.0029 10.7267 12.3169 10.7267 12.6927V14.2048C10.7267 16.1305 12.1508 17.5145 14.105 17.5145C16.0634 17.5145 17.495 16.1305 17.495 14.2048V12.6927C17.495 12.3169 17.81 12.0029 18.1974 12.0029C18.5752 12.0029 18.9073 12.3169 18.9073 12.6927V14.2112C18.9073 16.7016 17.229 18.5054 14.8194 18.7993V19.9189H17.1554C17.5428 19.9189 17.8674 20.2531 17.8674 20.6384C17.8674 21.012 17.5332 21.3441 17.1554 21.3441H11.0663ZM14.1092 16.3316C12.9193 16.3316 12.0336 15.4079 12.0336 14.1395V9.07999C12.0336 7.82539 12.9193 6.91882 14.1092 6.91882C15.297 6.91882 16.1785 7.8275 16.1785 9.08632V14.1395C16.1785 15.4079 15.297 16.3316 14.1092 16.3316Z" fill="white"/>
</svg>
