<svg width="28" height="28" viewBox="0 0 28 28" fill="none" xmlns="http://www.w3.org/2000/svg">
<path d="M9.12158 12.5248C9.12158 17.3442 12.3318 20.6533 16.9485 21.0895V23.4994H12.6472C12.039 23.4994 11.533 23.9906 11.533 24.5988C11.533 25.2007 12.039 25.6865 12.6472 25.6865H23.3947C24.0008 25.6865 24.5068 25.2007 24.5068 24.5988C24.5068 23.9906 24.0008 23.4994 23.3947 23.4994H19.0914V21.0895C23.7102 20.6533 26.9204 17.3442 26.9204 12.5248V10.2028C26.9204 9.59671 26.4346 9.12562 25.8243 9.12562C25.214 9.12562 24.7122 9.59671 24.7122 10.2028V12.446C24.7122 16.44 22.0178 19.0652 18.0151 19.0652C14.0242 19.0652 11.3277 16.44 11.3277 12.446V10.2028C11.3277 9.59671 10.8259 9.12562 10.2177 9.12562C9.60744 9.12562 9.12158 9.59671 9.12158 10.2028V12.5248ZM18.0151 16.6364C20.3947 16.6364 22.1296 14.8544 22.1296 12.2634V4.37507C22.1296 1.77656 20.3947 0 18.0151 0C15.643 0 13.904 1.77445 13.904 4.37296V12.2634C13.904 14.8544 15.643 16.6364 18.0151 16.6364Z" fill="black"/>
<path d="M3.24695 24.9766C4.46945 24.9766 5.45663 23.9894 5.45663 22.7648C5.45663 21.5231 4.46734 20.5413 3.24695 20.5413C1.9914 20.5413 1 21.5231 1 22.7648C1 23.9894 2.00101 24.9766 3.24695 24.9766Z" fill="black"/>
<path d="M3.24695 18.7921C4.46734 18.7921 5.45663 17.7889 5.45663 16.5451C5.45663 15.3247 4.46734 14.3354 3.24695 14.3354C2.00312 14.3354 1 15.3247 1 16.5451C1 17.8007 1.9914 18.7921 3.24695 18.7921Z" fill="black"/>
<path d="M3.24695 12.5704C4.46734 12.5704 5.45663 11.5907 5.45663 10.3468C5.45663 9.10307 4.46734 8.11377 3.24695 8.11377C1.9914 8.11377 1 9.10307 1 10.3468C1 11.5907 1.9914 12.5704 3.24695 12.5704Z" fill="black"/>
<path d="M3.24695 6.36467C4.46734 6.36467 5.45663 5.38287 5.45663 4.13904C5.45663 2.91655 4.46945 1.92725 3.24695 1.92725C2.00101 1.92725 1 2.91655 1 4.13904C1 5.38287 1.9914 6.36467 3.24695 6.36467Z" fill="black"/>
</svg>
