<svg width="30" height="28" viewBox="0 0 30 28" fill="none" xmlns="http://www.w3.org/2000/svg">
<path d="M4.73695 23.5778H16.9282C19.9205 23.5778 21.6651 21.8716 21.6651 18.9236V8.64249C21.6651 5.70625 19.9205 4 16.9282 4H4.73695C1.85039 4 0 5.70625 0 8.64671V18.9953C0 21.939 1.74258 23.5778 4.73695 23.5778ZM5.11991 21.4877C3.27608 21.4877 2.23053 20.5084 2.23053 18.5971V8.9807C2.23053 7.03444 3.27608 6.07842 5.11991 6.07842H16.5452C18.3773 6.07842 19.4325 7.05764 19.4325 8.9807V18.5971C19.4325 20.5084 18.3668 21.4877 16.5389 21.4877H5.11991ZM21.2775 10.4507V12.9388L26.7776 8.43459C26.8767 8.35678 26.9449 8.3024 27.0462 8.3024C27.1762 8.3024 27.237 8.40904 27.237 8.56467V19.068C27.237 19.2215 27.1762 19.3206 27.0462 19.3206C26.9449 19.3206 26.8767 19.2641 26.7776 19.1959L21.2775 14.6938V17.1702L25.8966 21.0934C26.4412 21.5476 27.0033 21.8594 27.5533 21.8594C28.6268 21.8594 29.3529 21.0808 29.3529 19.9319V7.70078C29.3529 6.54976 28.6268 5.77117 27.5533 5.77117C27.0012 5.77117 26.4412 6.08289 25.8966 6.5371L21.2775 10.4507Z" fill="black"/>
<path d="M6.98344 18.6201C7.26445 18.6201 7.48148 18.5254 7.67086 18.3306L12.3574 13.6914L13.9861 11.9242L13.7794 14.9034V16.498C13.7794 17.0099 14.1677 17.4229 14.6923 17.4229C15.2318 17.4229 15.6607 17.0355 15.6607 16.5023V10.1544C15.6607 9.4152 15.2897 9.02075 14.5484 9.02075H8.12954C7.59844 9.02075 7.2047 9.46348 7.2047 10.0009C7.2047 10.5254 7.62188 10.9042 8.13376 10.9042H9.78563L12.7988 10.7071L10.9943 12.3357L6.31735 16.9696C6.10454 17.1857 6.00446 17.4187 6.00446 17.7081C6.00446 18.2263 6.42375 18.6201 6.98344 18.6201Z" fill="black"/>
</svg>
