<svg width="28" height="28" viewBox="0 0 28 28" fill="none" xmlns="http://www.w3.org/2000/svg">
<path d="M14.105 26.2301C20.7369 26.2301 26.2121 20.7549 26.2121 14.123C26.2121 7.50291 20.7273 2.01807 14.0954 2.01807C7.47523 2.01807 2 7.50291 2 14.123C2 20.7549 7.48484 26.2301 14.105 26.2301Z" fill="black"/>
<path d="M17.0841 21.0481C16.8392 21.0481 16.6625 20.9405 16.3803 20.6689L14.2304 18.7287H10.3646C8.62694 18.7287 7.62897 17.7212 7.62897 15.9856V11.4503C7.62897 9.73604 8.62694 8.72424 10.3646 8.72424H17.8517C19.5894 8.72424 20.5873 9.73604 20.5873 11.4503V15.9856C20.5873 17.7212 19.5662 18.7287 17.8834 18.7287H17.6347V20.4155C17.6347 20.7978 17.427 21.0481 17.0841 21.0481Z" fill="white"/>
</svg>
