<svg width="28" height="28" viewBox="0 0 28 28" fill="none" xmlns="http://www.w3.org/2000/svg">
<path d="M5.09064 12.4762C5.09064 17.2957 8.30297 20.6048 12.9197 21.041V23.4508H8.61633C8.01024 23.4508 7.50423 23.9421 7.50423 24.5503C7.50423 25.1522 8.01024 25.638 8.61633 25.638H19.3638C19.972 25.638 20.478 25.1522 20.478 24.5503C20.478 23.9421 19.972 23.4508 19.3638 23.4508H15.0625V21.041C16.469 20.9102 17.7391 20.5186 18.824 19.8874L17.2495 18.3012C16.3155 18.7601 15.2208 19.0167 13.9959 19.0167C9.99327 19.0167 7.2989 16.3915 7.2989 12.3975V10.1543C7.2989 9.5482 6.80672 9.07711 6.1868 9.07711C5.57649 9.07711 5.09064 9.5482 5.09064 10.1543V12.4762ZM20.3343 14.5971L22.0809 16.3437C22.6082 15.2147 22.8916 13.912 22.8916 12.4762V10.1543C22.8916 9.5482 22.4036 9.07711 21.7933 9.07711C21.1851 9.07711 20.6833 9.5482 20.6833 10.1543V12.3975C20.6833 13.1944 20.5638 13.9294 20.3343 14.5971ZM13.9959 16.5879C14.4534 16.5879 14.9013 16.5103 15.2981 16.3519L9.87516 10.9289V12.2149C9.87516 14.8059 11.6142 16.5879 13.9959 16.5879ZM13.9959 0C16.3659 0 18.0986 1.77656 18.0986 4.37507V12.0778C18.0986 12.1673 18.089 12.2623 18.0698 12.3422L9.97851 4.25087V3.86649C10.1805 1.55977 11.7717 0 13.9959 0Z" fill="black"/>
<path d="M22.9982 21.967C23.3625 22.3291 23.9557 22.3312 24.3178 21.967C24.6682 21.5953 24.682 21.0117 24.3178 20.6475L5.59404 1.93754C5.23193 1.58293 4.62701 1.57332 4.26279 1.93754C3.9124 2.29965 3.9124 2.90668 4.26279 3.25707L22.9982 21.967Z" fill="black"/>
</svg>
