<svg width="28" height="28" viewBox="0 0 28 28" fill="none" xmlns="http://www.w3.org/2000/svg">
<path d="M4.0207 17.6925C4.61999 17.6925 5.07445 17.2285 5.07445 16.6505V12.3256C5.07445 11.7455 4.61999 11.2719 4.0207 11.2719C3.44273 11.2719 3 11.7455 3 12.3256V16.6505C3 17.2285 3.44273 17.6925 4.0207 17.6925Z" fill="black"/>
<path d="M8.05853 22.418C8.64821 22.418 9.10477 21.9561 9.10477 21.376V7.60014C9.10477 7.02006 8.64821 6.54639 8.05853 6.54639C7.48267 6.54639 7.03033 7.02006 7.03033 7.60014V21.376C7.03033 21.9561 7.48267 22.418 8.05853 22.418Z" fill="black"/>
<path d="M12.0888 26.9762C12.6785 26.9762 13.1426 26.5142 13.1426 25.9341V3.04414C13.1426 2.46406 12.6785 2 12.0888 2C11.5108 2 11.0681 2.46406 11.0681 3.04414V25.9341C11.0681 26.5142 11.5108 26.9762 12.0888 26.9762Z" fill="black"/>
<path d="M16.1287 20.8976C16.7184 20.8976 17.1729 20.4453 17.1729 19.8652V9.11091C17.1729 8.53083 16.7184 8.06677 16.1287 8.06677C15.5412 8.06677 15.0984 8.53083 15.0984 9.11091V19.8652C15.0984 20.4453 15.5412 20.8976 16.1287 20.8976Z" fill="black"/>
<path d="M20.1687 24.3894C20.7487 24.3894 21.2032 23.9274 21.2032 23.3569V5.62134C21.2032 5.05088 20.7487 4.57721 20.1687 4.57721C19.5715 4.57721 19.1287 5.05088 19.1287 5.62134V23.3569C19.1287 23.9274 19.5715 24.3894 20.1687 24.3894Z" fill="black"/>
<path d="M24.1969 18.6118C24.7769 18.6118 25.241 18.1498 25.241 17.5794V11.3968C25.241 10.8263 24.7769 10.3527 24.1969 10.3527C23.6093 10.3527 23.1665 10.8263 23.1665 11.3968V17.5794C23.1665 18.1498 23.6093 18.6118 24.1969 18.6118Z" fill="black"/>
</svg>
