<svg width="28" height="28" viewBox="0 0 28 28" fill="none" xmlns="http://www.w3.org/2000/svg">
<path d="M1 11.7898C1 15.004 3.31609 17.4905 6.3168 17.4905C7.76406 17.4905 9.07773 16.946 10.0314 15.87H10.4216C9.77781 18.0152 7.73218 19.8942 5.0657 20.6306C4.68226 20.7436 4.40429 20.8575 4.2339 21.0192C4.04008 21.1842 3.94211 21.397 3.94211 21.6855C3.94211 22.2157 4.35179 22.5872 4.93937 22.5872C5.41046 22.5872 5.73061 22.5084 6.32428 22.3191C7.89811 21.7938 9.35874 20.8786 10.4985 19.6823C12.111 17.9932 13.0583 15.747 13.0583 13.1391C13.0583 8.62223 10.2144 6.00122 6.79304 6.00122C3.4818 6.00122 1 8.48958 1 11.7898ZM15.4834 11.7898C15.4834 15.004 17.7899 17.4905 20.8002 17.4905C22.2454 17.4905 23.5473 16.946 24.5148 15.87H24.8912C24.2612 18.0152 22.2135 19.8942 19.5374 20.6306C19.1561 20.7436 18.8877 20.8575 18.7131 21.0192C18.5235 21.1842 18.4159 21.397 18.4159 21.6855C18.4159 22.2157 18.8331 22.5872 19.4324 22.5872C19.8822 22.5872 20.214 22.5084 20.7981 22.3191C22.3815 21.7938 23.8325 20.8786 24.9606 19.6823C26.5944 17.9932 27.5418 15.747 27.5418 13.1391C27.5418 8.62223 24.6958 6.00122 21.2744 6.00122C17.9652 6.00122 15.4834 8.48958 15.4834 11.7898Z" fill="black"/>
</svg>
