<svg width="28" height="28" viewBox="0 0 28 28" fill="none" xmlns="http://www.w3.org/2000/svg">
<path d="M14.105 26.2301C20.7369 26.2301 26.2121 20.7549 26.2121 14.123C26.2121 7.50291 20.7273 2.01807 14.0954 2.01807C7.47523 2.01807 2 7.50291 2 14.123C2 20.7549 7.48484 26.2301 14.105 26.2301Z" fill="black"/>
<path d="M14.1092 18.8262C13.8397 18.8262 13.5873 18.8241 13.3571 18.8103C13.2303 18.7965 13.1516 18.8316 13.0163 18.9158C11.8168 19.6423 10.6266 20.1568 9.96289 20.1568C9.42922 20.1568 9.3186 19.7307 9.65211 19.3419C9.90243 19.0501 10.2413 18.6624 10.449 18.2513C10.5235 18.1023 10.5256 17.9701 10.3775 17.8934C8.69234 16.8748 7.55609 15.2891 7.55609 13.4614C7.55609 10.4823 10.4288 8.08484 14.1092 8.08484C17.7875 8.08484 20.6602 10.4823 20.6602 13.4614C20.6602 16.4288 17.7875 18.8262 14.1092 18.8262Z" fill="white"/>
</svg>
