<svg width="28" height="28" viewBox="0 0 28 28" fill="none" xmlns="http://www.w3.org/2000/svg">
<path d="M6.84421 24.8972H21.0295C23.5685 24.8972 24.8737 23.5919 24.8737 21.0914V6.82921C24.8737 4.32656 23.5685 3.02344 21.0295 3.02344H6.84421C4.31484 3.02344 3 4.31695 3 6.82921V21.0914C3 23.6016 4.31484 24.8972 6.84421 24.8972Z" fill="black"/>
<path d="M9.97539 19.6355C9.49563 19.6355 9.17969 19.3141 9.17969 18.8449C9.17969 18.3949 9.51484 18.0757 9.985 18.0757H11.5068C10.142 17.1591 9.22633 15.4685 9.22633 13.4913C9.22633 11.1333 10.4446 9.33514 12.4159 8.67537V7.64904C12.4159 7.30803 12.6536 7.07037 12.985 7.07037C13.3143 7.07037 13.5615 7.30803 13.5615 7.64904V8.45787C13.746 8.43865 13.9497 8.42904 14.132 8.42904C14.2855 8.42904 14.4433 8.42904 14.5968 8.45037V7.64904C14.5968 7.30803 14.8344 7.07037 15.1658 7.07037C15.4951 7.07037 15.7328 7.30803 15.7328 7.64904V8.70631C17.6415 9.36701 18.7679 11.2359 18.7775 13.2C18.7775 13.714 18.4412 14.078 17.9308 14.078C17.402 14.078 17.0699 13.7287 17.0413 13.222C17.0115 12.0347 16.5177 11.1143 15.7328 10.563V13.3851C15.7328 13.7144 15.4951 13.9521 15.1658 13.9521C14.8344 13.9521 14.5968 13.7144 14.5968 13.3851V10.124C14.4529 10.1027 14.2972 10.0793 14.1224 10.0793C13.9454 10.0793 13.746 10.0985 13.5615 10.1219V13.3851C13.5615 13.7144 13.3239 13.9521 12.985 13.9521C12.6578 13.9521 12.4159 13.7144 12.4159 13.3851V10.53C11.5234 11.1077 11.0148 12.194 11.0148 13.7262C11.0148 16.1941 12.9761 18.0546 15.4813 18.0546H17.3793C17.8632 18.0546 18.2047 18.3781 18.2047 18.8344C18.2047 19.3024 17.8729 19.6355 17.3793 19.6355H9.97539Z" fill="white"/>
</svg>
