<svg width="28" height="28" viewBox="0 0 28 28" fill="none" xmlns="http://www.w3.org/2000/svg">
<path d="M14.105 26.21C20.7369 26.21 26.2121 20.7273 26.2121 14.105C26.2121 7.47312 20.7273 2 14.0954 2C7.47523 2 2 7.47312 2 14.105C2 20.7273 7.48484 26.21 14.105 26.21Z" fill="black"/>
<path d="M10.3851 20.0895C9.90327 20.0895 9.62109 19.7373 9.62109 19.1933V9.38164C9.62109 8.79336 9.92765 8.45703 10.4255 8.45703H11.7855C13.591 8.45703 14.5027 9.57664 14.5027 11.8522C14.5027 13.2598 13.9889 14.4863 13.0648 14.9869L14.3614 18.7805C14.4338 18.9723 14.4678 19.1443 14.4678 19.321C14.4678 19.7743 14.1549 20.0937 13.7154 20.0937C13.3442 20.0937 13.0908 19.929 12.9619 19.5055L11.6327 15.5119H11.1705V19.22C11.1705 19.7565 10.8628 20.0895 10.3851 20.0895ZM11.1705 13.8402H11.685C12.5564 13.8402 12.9277 13.1825 12.9277 11.9159C12.9277 10.6632 12.5564 10.0055 11.7255 10.0055H11.1705V13.8402ZM17.1401 20.1012C15.8597 20.1012 15.0493 19.2512 14.9107 18.0734C14.8894 17.9424 14.8873 17.806 14.8873 17.6633C14.8873 17.1575 15.165 16.8233 15.6258 16.8233C16.0791 16.8233 16.3315 17.1319 16.3751 17.6124C16.4199 18.2696 16.6472 18.6781 17.1401 18.6781C17.6213 18.6781 17.8721 18.339 17.8721 17.7118C17.8721 17.1254 17.6311 16.7532 17.0682 16.4579L16.5961 16.2022C15.4543 15.593 14.9759 14.8196 14.9759 13.6498C14.9759 12.1684 15.8461 11.1969 17.1401 11.1969C18.376 11.1969 19.1225 12.0762 19.264 13.2706C19.28 13.408 19.2917 13.5198 19.2917 13.6613C19.2917 14.1671 19.0182 14.4929 18.5541 14.4929C18.0996 14.4929 17.8676 14.1894 17.8282 13.7016C17.7664 13.0241 17.6255 12.6498 17.1305 12.6498C16.7166 12.6498 16.4989 13.0027 16.4989 13.5755C16.4989 14.1256 16.7536 14.4582 17.356 14.7833L17.8046 15.0348C18.9912 15.6877 19.4173 16.4005 19.4173 17.5822C19.4173 19.1202 18.5257 20.1012 17.1401 20.1012Z" fill="white"/>
</svg>
