<svg width="48" height="28" viewBox="0 0 48 28" fill="none" xmlns="http://www.w3.org/2000/svg">
<path d="M9.79125 15.2681C9.83812 16.2183 10.1395 17.0578 10.6987 17.6266C11.1438 18.0621 11.7422 18.3187 12.4565 18.1973L16.8147 17.459C17.4942 17.3494 17.9576 17.1459 18.2569 16.8466C18.652 16.4611 18.7713 15.8901 18.7713 15.1296L18.7809 13.9366C18.7809 13.7491 18.8651 13.6022 18.9684 13.4871C19.0919 13.3465 19.2719 13.2816 19.4051 13.2485C20.2188 13.0631 21.873 12.8756 23.8645 12.8756C25.8677 12.8756 27.5102 13.0631 28.324 13.2485C28.4592 13.2816 28.6392 13.3465 28.7606 13.4871C28.8757 13.6022 28.9598 13.7491 28.9598 13.9366V15.1296C28.9598 15.8901 29.0791 16.4611 29.4743 16.8466C29.7736 17.1459 30.2369 17.3494 30.9164 17.459L35.2746 18.1973C35.9868 18.3187 36.5948 18.0621 37.0324 17.6266C37.5916 17.0578 37.893 16.2183 37.9399 15.2681C38.0102 13.6587 37.4585 12.3368 36.3677 11.2535C33.9487 8.83453 29.0948 7.75336 23.8645 7.74164C18.6363 7.75336 13.7824 8.83453 11.3634 11.2535C10.2801 12.3368 9.72093 13.6587 9.79125 15.2681Z" fill="black"/>
<path d="M4.83002 14.3726C4.83002 16.11 5.39698 17.7323 6.40174 18.9473C6.87729 19.5232 7.64791 19.5051 8.05994 19.023C8.4476 18.5674 8.29947 18.0021 7.91182 17.475C7.26353 16.6551 6.92158 15.5302 6.92158 14.3726C6.92158 13.2054 7.27525 12.0687 7.91182 11.2659C8.29736 10.7409 8.4476 10.1777 8.05994 9.71999C7.64791 9.22828 6.87729 9.21984 6.40174 9.79359C5.39698 11.0128 4.83002 12.6352 4.83002 14.3726ZM42.9107 14.3726C42.9107 12.6352 42.3342 11.0128 41.3273 9.79359C40.8539 9.21984 40.0811 9.22828 39.6712 9.71999C39.2836 10.1777 39.4338 10.7409 39.8193 11.2659C40.4655 12.0783 40.8192 13.215 40.8192 14.3726C40.8192 15.5302 40.4655 16.6551 39.8193 17.475C39.4317 18.0021 39.2836 18.5674 39.6712 19.023C40.0811 19.5051 40.8539 19.5232 41.3273 18.9473C42.3342 17.7323 42.9107 16.11 42.9107 14.3726Z" fill="black"/>
<path d="M0 14.3726C0 17.4183 1.0636 20.2423 2.99836 22.3254C3.51961 22.8851 4.23492 22.8619 4.64156 22.3819C5.03976 21.922 4.91624 21.3312 4.47117 20.8275C2.94515 19.1341 2.09156 16.8605 2.09156 14.3726C2.09156 11.8868 2.94304 9.611 4.47117 7.91975C4.91835 7.41608 5.04398 6.82522 4.64156 6.36538C4.23281 5.87788 3.51539 5.86007 2.99836 6.42186C1.09313 8.4785 0 11.3311 0 14.3726ZM47.7311 14.3726C47.7311 11.3311 46.6476 8.4785 44.7424 6.42186C44.2157 5.86007 43.4983 5.87788 43.0875 6.36538C42.6871 6.82522 42.8128 7.41608 43.26 7.91975C44.7881 9.611 45.6396 11.8868 45.6396 14.3726C45.6396 16.8605 44.786 19.1341 43.26 20.8275C42.8149 21.3312 42.6892 21.922 43.0875 22.3819C43.4962 22.8619 44.2115 22.8851 44.7424 22.3254C46.6771 20.2423 47.7311 17.4183 47.7311 14.3726Z" fill="black"/>
</svg>
