<svg width="28" height="28" viewBox="0 0 28 28" fill="none" xmlns="http://www.w3.org/2000/svg">
<path d="M14.105 26.2301C20.7369 26.2301 26.2121 20.7549 26.2121 14.123C26.2121 7.50291 20.7273 2.01807 14.0954 2.01807C7.47523 2.01807 2 7.50291 2 14.123C2 20.7549 7.48484 26.2301 14.105 26.2301Z" fill="black"/>
<path d="M5.90796 15.2663V15.147C5.90796 11.9802 10.0163 10.3967 14.105 10.3967C18.1958 10.3967 22.3041 11.9802 22.3041 15.147V15.2663C22.3041 16.2024 21.823 16.9098 20.8962 16.9098C20.2229 16.9098 19.426 16.8809 18.0751 16.4687C17.2805 16.2259 16.9302 15.8298 16.9109 14.9616L16.9013 14.2632C16.9013 14.1343 16.8373 14.0405 16.6637 13.9819C16.2957 13.8657 15.3676 13.7016 14.105 13.7016C12.8445 13.7016 11.9164 13.8657 11.5484 13.9819C11.3748 14.0405 11.3108 14.1343 11.3108 14.2632L11.3012 14.9616C11.2915 15.8298 10.9412 16.2237 10.137 16.4687C8.78398 16.8809 7.98921 16.9098 7.31374 16.9098C6.38913 16.9098 5.90796 16.2024 5.90796 15.2663Z" fill="white"/>
</svg>
