<svg width="28" height="28" viewBox="0 0 28 28" fill="none" xmlns="http://www.w3.org/2000/svg">
<path d="M14.105 26.21C20.7369 26.21 26.2121 20.7273 26.2121 14.105C26.2121 7.47312 20.7273 2 14.0954 2C7.47523 2 2 7.47312 2 14.105C2 20.7273 7.48484 26.21 14.105 26.21ZM14.105 23.8255C8.71085 23.8255 4.39412 19.4991 4.39412 14.105C4.39412 8.71085 8.70124 4.38452 14.0954 4.38452C19.4895 4.38452 23.8276 8.71085 23.8276 14.105C23.8276 19.4991 19.4991 23.8255 14.105 23.8255Z" fill="black"/>
<path d="M18.9551 19.193C19.1851 19.4209 19.5491 19.4326 19.7694 19.193C19.9993 18.9727 19.9993 18.5991 19.7694 18.3671L9.7381 8.32627C9.49857 8.09635 9.13248 8.09635 8.91006 8.32627C8.67053 8.5583 8.67053 8.92978 8.91006 9.1522L18.9551 19.193ZM15.5202 17.083C15.1142 17.2834 14.6347 17.3942 14.0954 17.3942C12.2103 17.3942 10.8458 16.0655 10.8458 14.2091V12.7522C10.8458 12.3945 10.5371 12.0943 10.1656 12.0943C9.79413 12.0943 9.48757 12.3945 9.48757 12.7522V14.2133C9.48757 16.6027 11.1022 18.3566 13.4321 18.627V19.7115H11.1694C10.7979 19.7115 10.4797 20.0277 10.4797 20.3991C10.4797 20.7643 10.7979 21.0805 11.1694 21.0805H17.0309C17.3928 21.0805 17.7207 20.7547 17.7207 20.3991C17.7207 20.0277 17.4024 19.7115 17.0309 19.7115H14.7779V18.627C15.4182 18.5546 16.002 18.3596 16.5101 18.073L15.5202 17.083ZM12.1016 13.6644V14.1479C12.1016 15.3685 12.9533 16.2528 14.0975 16.2528C14.2904 16.2528 14.4502 16.2123 14.6047 16.1579L12.1016 13.6644ZM16.0892 13.3695V9.27454C16.0892 8.06775 15.2417 7.18884 14.0975 7.18884C13.0355 7.18884 12.2682 7.96861 12.1901 9.03619L12.1796 9.45245L16.0892 13.3695ZM18.4557 15.7381C18.62 15.2647 18.7128 14.7603 18.7128 14.2133V12.7522C18.7128 12.3945 18.3966 12.0943 18.0348 12.0943C17.6633 12.0943 17.3546 12.3945 17.3546 12.7522V14.0382C17.3546 14.2229 17.3258 14.4001 17.2873 14.5656L18.4557 15.7381Z" fill="black"/>
</svg>
