<svg width="28" height="28" viewBox="0 0 28 28" fill="none" xmlns="http://www.w3.org/2000/svg">
<path d="M6.84421 24.8972H21.0295C23.5685 24.8972 24.8737 23.5919 24.8737 21.0914V6.82921C24.8737 4.32656 23.5685 3.02344 21.0295 3.02344H6.84421C4.31484 3.02344 3 4.31695 3 6.82921V21.0914C3 23.6016 4.31484 24.8972 6.84421 24.8972ZM6.97733 22.6013C5.88772 22.6013 5.29592 22.0371 5.29592 20.8985V7.01999C5.29592 5.88139 5.88772 5.31936 6.97733 5.31936H20.8964C21.9764 5.31936 22.5778 5.88139 22.5778 7.01999V20.8985C22.5778 22.0371 21.9764 22.6013 20.8964 22.6013H6.97733Z" fill="black"/>
<path d="M10.3678 19.7018C10.8274 19.7018 11.1192 19.3847 11.1192 18.878V15.2892H11.5718L12.854 19.1496C12.9829 19.5551 13.2224 19.7039 13.5756 19.7039C14.0045 19.7039 14.2919 19.4004 14.2919 18.9673C14.2919 18.8023 14.2579 18.6345 14.1993 18.4566L12.94 14.7949C13.8248 14.3123 14.3247 13.1348 14.3247 11.7867C14.3247 9.59622 13.4448 8.5202 11.715 8.5202H10.4156C9.93044 8.5202 9.6377 8.84059 9.6377 9.39489V18.8513C9.6377 19.3655 9.90606 19.7018 10.3678 19.7018ZM11.1192 13.6959V9.99864H11.6529C12.4603 9.99864 12.8198 10.6329 12.8198 11.8387C12.8198 13.0638 12.4603 13.6959 11.624 13.6959H11.1192ZM16.8611 19.7114C18.1872 19.7114 19.0448 18.7718 19.0448 17.2955C19.0448 16.1573 18.6325 15.4723 17.5033 14.847L17.061 14.6072C16.4821 14.2884 16.2391 13.9676 16.2391 13.443C16.2391 12.8819 16.4472 12.5407 16.8494 12.5407C17.3327 12.5407 17.4639 12.9033 17.5237 13.5595C17.5631 14.0292 17.7834 14.3189 18.2177 14.3189C18.6637 14.3189 18.9234 14.0091 18.9234 13.5192C18.9234 13.3915 18.9095 13.2797 18.8957 13.1541C18.7659 12.0054 18.0609 11.1537 16.8611 11.1537C15.6128 11.1537 14.7937 12.0815 14.7937 13.5131C14.7937 14.6297 15.2369 15.3755 16.3352 15.9644L16.7913 16.2063C17.3404 16.4899 17.5696 16.8504 17.5696 17.4209C17.5696 18.0246 17.3284 18.352 16.8707 18.352C16.3778 18.352 16.1718 17.9573 16.1174 17.3215C16.0738 16.8569 15.8448 16.5663 15.4096 16.5663C14.9573 16.5663 14.6955 16.8825 14.6955 17.3702C14.6955 17.5109 14.6976 17.6377 14.7189 17.7644C14.8532 18.9049 15.636 19.7114 16.8611 19.7114Z" fill="black"/>
</svg>
