<svg width="28" height="28" viewBox="0 0 28 28" fill="none" xmlns="http://www.w3.org/2000/svg">
<path d="M14.105 26.21C20.7369 26.21 26.2121 20.7273 26.2121 14.105C26.2121 7.47312 20.7273 2 14.0954 2C7.47523 2 2 7.47312 2 14.105C2 20.7273 7.48484 26.21 14.105 26.21Z" fill="black"/>
<path d="M19.1295 19.4069L8.69422 8.97154C8.44836 8.73529 8.44836 8.33615 8.69422 8.0999C8.92836 7.86787 9.31039 7.86787 9.56586 8.0999L19.9915 18.5353C20.2257 18.7811 20.2257 19.161 19.9915 19.4069C19.7553 19.641 19.3754 19.6368 19.1295 19.4069ZM15.5553 17.2054L16.5931 18.2453C16.0691 18.5437 15.4576 18.7408 14.7992 18.8174V19.9274H17.1373C17.5227 19.9274 17.859 20.2692 17.859 20.6566C17.859 21.0302 17.513 21.3527 17.1373 21.3527H11.0462C10.6588 21.3527 10.3224 21.0398 10.3224 20.6566C10.3224 20.2692 10.6588 19.9274 11.0462 19.9274H13.3897V18.8174C10.9726 18.5331 9.29423 16.706 9.29423 14.2155V12.7087C9.29423 12.333 9.60501 12.0093 9.99243 12.0093C10.382 12.0093 10.7066 12.333 10.7066 12.7087V14.2092C10.7066 16.1369 12.1285 17.523 14.0848 17.523C14.6401 17.523 15.1355 17.4079 15.5553 17.2054ZM12.0113 13.6518L14.6122 16.2527C14.446 16.3049 14.2819 16.3359 14.0869 16.3359C12.8991 16.3359 12.0113 15.4122 12.0113 14.1534V13.6518ZM16.1584 13.3347L12.0957 9.25491L12.1084 8.83866C12.1927 7.72842 12.9877 6.9231 14.0869 6.9231C15.2769 6.9231 16.1584 7.83388 16.1584 9.0981V13.3347ZM18.6205 15.7893L17.398 14.5647C17.4364 14.4089 17.4652 14.2221 17.4652 14.0257V12.7087C17.4652 12.333 17.7898 12.0093 18.1773 12.0093C18.5551 12.0093 18.8872 12.333 18.8872 12.7087V14.2155C18.8872 14.7935 18.7944 15.3138 18.6205 15.7893Z" fill="white"/>
</svg>
