<svg width="28" height="28" viewBox="0 0 28 28" fill="none" xmlns="http://www.w3.org/2000/svg">
<path d="M14.0003 27.318C14.6753 27.318 15.1907 26.9919 15.7312 26.0969L17.8443 22.6319H21.4504C24.9784 22.6319 26.9547 20.6055 26.9547 17.1276V8.0392C26.9547 4.56131 24.9784 2.53491 21.4504 2.53491H6.50218C2.97625 2.53491 1 4.5517 1 8.0392V17.1276C1 20.6151 2.97625 22.6319 6.50218 22.6319H10.1437L12.2652 26.1011C12.7994 26.9877 13.3232 27.318 14.0003 27.318ZM14.0003 24.9953L11.9969 21.321C11.587 20.5424 11.272 20.3359 10.4104 20.3359H6.56757C4.35225 20.3359 3.29592 19.2091 3.29592 17.0547V8.10248C3.29592 5.94809 4.35225 4.83083 6.56757 4.83083H21.3871C23.5928 4.83083 24.6588 5.94809 24.6588 8.10248V17.0547C24.6588 19.2091 23.5928 20.3359 21.3871 20.3359H17.5797C16.716 20.3359 16.3947 20.5382 15.9869 21.321L14.0003 24.9953Z" fill="black"/>
</svg>
