<svg width="28" height="28" viewBox="0 0 28 28" fill="none" xmlns="http://www.w3.org/2000/svg">
<path d="M14.105 26.21C20.7369 26.21 26.2121 20.7273 26.2121 14.105C26.2121 7.47312 20.7273 2 14.0954 2C7.47523 2 2 7.47312 2 14.105C2 20.7273 7.48484 26.21 14.105 26.21ZM14.105 23.8255C8.71085 23.8255 4.39412 19.4991 4.39412 14.105C4.39412 8.71085 8.70124 4.38452 14.0954 4.38452C19.4895 4.38452 23.8276 8.71085 23.8276 14.105C23.8276 19.4991 19.4991 23.8255 14.105 23.8255Z" fill="black"/>
<path d="M9.83789 12.4011C9.83789 12.7187 10.0671 12.9617 10.3952 12.9617H11.051V18.9516C11.051 19.512 11.4415 19.8559 11.9531 19.8559C12.468 19.8559 12.8414 19.512 12.8414 18.9516V16.0857H14.7466C16.7416 16.0857 18.1448 14.813 18.359 12.9617H18.8854C19.2115 12.9617 19.4428 12.7187 19.4428 12.4011C19.4428 12.0718 19.2115 11.8479 18.8854 11.8479H18.3398C18.0775 10.0775 16.7254 8.87207 14.7782 8.87207H11.9508C11.3925 8.87207 11.051 9.22316 11.051 9.79105V11.8479H10.3952C10.0671 11.8479 9.83789 12.0718 9.83789 12.4011ZM12.851 14.5573V12.9617H16.5431C16.3662 13.9848 15.6028 14.5594 14.4361 14.5594L12.851 14.5573ZM12.851 11.8479V10.4068H14.4403C15.5505 10.4068 16.2968 10.9132 16.5143 11.8479H12.851Z" fill="black"/>
</svg>
