<svg width="28" height="28" viewBox="0 0 28 28" fill="none" xmlns="http://www.w3.org/2000/svg">
<path d="M6.84421 24.8972H21.0295C23.5685 24.8972 24.8737 23.5919 24.8737 21.0914V6.82921C24.8737 4.32656 23.5685 3.02344 21.0295 3.02344H6.84421C4.31484 3.02344 3 4.31695 3 6.82921V21.0914C3 23.6016 4.31484 24.8972 6.84421 24.8972Z" fill="black"/>
<path d="M9.17285 13.984C9.17285 13.6451 9.42012 13.4074 9.73981 13.4074H10.5036V9.25849C10.5036 8.66389 10.877 8.30553 11.4418 8.30553C11.9992 8.30553 12.365 8.66389 12.365 9.25849V13.399H12.8272L16.4777 8.75529C16.7076 8.43396 16.9755 8.29053 17.252 8.29053C17.7562 8.29053 18.1232 8.64701 18.1232 9.12466C18.1232 9.30232 18.0445 9.53318 17.8933 9.71833L14.9235 13.4074H17.8541C18.193 13.4074 18.4211 13.6451 18.4211 13.984C18.4211 14.3058 18.193 14.5723 17.8541 14.5723H14.9162L17.9029 18.3387C18.0529 18.5461 18.1497 18.8002 18.1497 18.9947C18.1497 19.4829 17.7592 19.8478 17.2424 19.8478C16.9544 19.8478 16.6738 19.6938 16.4481 19.3716L12.8486 14.6187H12.365V18.8927C12.365 19.4777 11.9896 19.8478 11.4418 19.8478C10.8866 19.8478 10.5036 19.4777 10.5036 18.8927V14.5723H9.73981C9.42012 14.5723 9.17285 14.3058 9.17285 13.984Z" fill="white"/>
</svg>
