<svg width="28" height="28" viewBox="0 0 28 28" fill="none" xmlns="http://www.w3.org/2000/svg">
<path d="M8.01578 27.2622C8.50023 27.2622 8.87382 27.0299 9.45835 26.489L13.7626 22.5944H21.4504C24.9784 22.5944 26.9547 20.5777 26.9547 17.0998V8.01138C26.9547 4.53349 24.9784 2.50708 21.4504 2.50708H6.50218C2.97625 2.50708 1 4.52388 1 8.01138V17.0998C1 20.5872 3.02476 22.5944 6.42836 22.5944H6.90109V25.9898C6.90109 26.7606 7.30984 27.2622 8.01578 27.2622Z" fill="black"/>
<path d="M9.08802 17.3566C7.85474 17.3566 7.12396 16.6745 7.12396 15.4602V9.67705C7.12396 8.45315 7.89318 7.7533 9.08802 7.7533H15.2971C16.5496 7.7533 17.2089 8.45315 17.2089 9.67705V15.4328C17.2089 16.645 16.4898 17.3566 15.2491 17.3566H9.08802ZM17.8949 14.2879V10.8431L20.0774 8.96971C20.3158 8.79205 20.5703 8.65799 20.8045 8.65799C21.2795 8.65799 21.5969 8.98823 21.5969 9.49096V15.6283C21.5969 16.1427 21.2795 16.4826 20.8045 16.4826C20.5703 16.4826 20.3233 16.3485 20.0774 16.1537L17.8949 14.2879Z" fill="white"/>
</svg>
