<svg width="28" height="28" viewBox="0 0 28 28" fill="none" xmlns="http://www.w3.org/2000/svg">
<path d="M14.105 26.21C20.7369 26.21 26.2121 20.7273 26.2121 14.105C26.2121 7.47312 20.7273 2 14.0954 2C7.47523 2 2 7.47312 2 14.105C2 20.7273 7.48484 26.21 14.105 26.21ZM14.105 23.8255C8.71085 23.8255 4.39412 19.4991 4.39412 14.105C4.39412 8.71085 8.70124 4.38452 14.0954 4.38452C19.4895 4.38452 23.8276 8.71085 23.8276 14.105C23.8276 19.4991 19.4991 23.8255 14.105 23.8255Z" fill="black"/>
<path d="M9.01902 19.3597C9.50019 19.3597 9.8398 19.0222 9.8398 18.5272V14.9225H10.6559C10.7295 14.9225 10.7956 14.9225 10.8788 14.9225L12.3424 18.8127C12.4756 19.1937 12.7884 19.3512 13.1109 19.3512C13.6402 19.3512 14.1619 18.9371 13.8935 18.2291L12.4587 14.5873C13.3936 14.2069 13.8923 13.0069 13.8923 11.7913C13.8923 9.94367 12.9391 8.85711 11.0136 8.85711H9.21847C8.53878 8.85711 8.18652 9.3118 8.18652 10.0374V18.5272C8.18652 19.0222 8.52402 19.3597 9.01902 19.3597ZM9.8398 13.6576V10.1837H10.8125C11.7774 10.1837 12.2114 10.8095 12.2114 11.8667C12.2114 12.9062 11.7966 13.6576 10.8221 13.6576H9.8398ZM17.6803 18.7948C19.3425 18.7948 20.5301 17.8433 20.5301 16.242C20.5301 15.118 19.927 14.3241 18.5801 13.6313L17.4759 13.0658C16.916 12.781 16.3582 12.4205 16.3582 11.7209C16.3582 11.0534 16.853 10.6269 17.6067 10.6269C18.4172 10.6269 18.8309 11.1451 18.9106 11.8723C18.9647 12.2537 19.2598 12.4784 19.5931 12.4784C20.0231 12.4784 20.4174 12.1632 20.332 11.506C20.1827 10.3046 19.2291 9.31719 17.6109 9.31719C16.0055 9.31719 14.8219 10.2931 14.8219 11.8006C14.8219 13.0695 15.5421 13.8582 16.7367 14.4423L17.7837 14.9525C18.4095 15.2574 19.0034 15.7182 19.0034 16.3686C19.0034 17.0373 18.5194 17.4852 17.6866 17.4852C16.7388 17.4852 16.3252 16.997 16.2347 16.2301C16.1709 15.8316 15.893 15.624 15.5702 15.624C15.1242 15.624 14.7471 15.9786 14.8324 16.5964C15.0052 17.8808 16.0385 18.7948 17.6803 18.7948ZM17.6728 20.0762C17.9327 20.0762 18.1533 19.8577 18.1533 19.5978V8.54516C18.1533 8.27352 17.9327 8.05508 17.6728 8.05508C17.4054 8.05508 17.1849 8.27352 17.1849 8.54516V19.5978C17.1849 19.8577 17.4054 20.0762 17.6728 20.0762Z" fill="black"/>
</svg>
