<svg width="28" height="28" viewBox="0 0 28 28" fill="none" xmlns="http://www.w3.org/2000/svg">
<path d="M2.03031 16.8868C2.61999 16.8868 3.07445 16.4228 3.07445 15.8448V11.5199C3.07445 10.9399 2.61999 10.4662 2.03031 10.4662C1.44273 10.4662 1 10.9399 1 11.5199V15.8448C1 16.4228 1.44273 16.8868 2.03031 16.8868Z" fill="black"/>
<path d="M6.06062 21.6123C6.6503 21.6123 7.11436 21.1504 7.11436 20.5703V6.79447C7.11436 6.21439 6.6503 5.74072 6.06062 5.74072C5.48265 5.74072 5.03992 6.21439 5.03992 6.79447V20.5703C5.03992 21.1504 5.48265 21.6123 6.06062 21.6123Z" fill="black"/>
<path d="M10.0888 26.1705C10.6881 26.1705 11.1447 25.7085 11.1447 25.1284V2.23842C11.1447 1.65833 10.6881 1.19427 10.0888 1.19427C9.51298 1.19427 9.07025 1.65833 9.07025 2.23842V25.1284C9.07025 25.7085 9.51298 26.1705 10.0888 26.1705Z" fill="black"/>
<path d="M14.1383 20.0919C14.7184 20.0919 15.1729 19.6396 15.1729 19.0595V8.30525C15.1729 7.72517 14.7184 7.26111 14.1383 7.26111C13.5412 7.26111 13.0984 7.72517 13.0984 8.30525V19.0595C13.0984 19.6396 13.5412 20.0919 14.1383 20.0919Z" fill="black"/>
<path d="M17.1383 16.3848C17.7536 16.0157 18.553 15.9637 19.2128 16.2501V4.81561C19.2128 4.24515 18.7487 3.77148 18.1687 3.77148C17.5811 3.77148 17.1383 4.24515 17.1383 4.81561V16.3848Z" fill="black"/>
<path d="M19.3169 26.3669H25.1783C25.5787 26.3669 25.8585 26.0795 25.8585 25.6855C25.8585 25.2852 25.5787 24.9958 25.1783 24.9958H22.9157V23.923C25.2456 23.6333 26.8506 21.8891 26.8506 19.4997V18.441C26.8506 18.0833 26.544 17.7735 26.1822 17.7735C25.8107 17.7735 25.4924 18.0833 25.4924 18.441V19.4955C25.4924 21.3519 24.13 22.6806 22.2428 22.6806C20.3481 22.6806 18.9932 21.3519 18.9932 19.4955V18.441C18.9932 18.0833 18.6749 17.7735 18.3034 17.7735C17.9437 17.7735 17.635 18.0833 17.635 18.441V19.4997C17.635 21.8891 19.24 23.643 21.5699 23.923V24.9958H19.3169C18.9165 24.9958 18.6175 25.2852 18.6175 25.6855C18.6175 26.0795 18.9165 26.3669 19.3169 26.3669ZM22.2449 21.5139C23.3976 21.5139 24.2134 20.6212 24.2134 19.4439V14.8237C24.2134 13.6464 23.3933 12.7612 22.2449 12.7612C21.0944 12.7612 20.2743 13.6443 20.2743 14.8194V19.4439C20.2743 20.6233 21.0944 21.5139 22.2449 21.5139Z" fill="black"/>
</svg>
