<svg width="28" height="28" viewBox="0 0 28 28" fill="none" xmlns="http://www.w3.org/2000/svg">
<path d="M8.39687 27.1131C9.04913 27.1131 9.53405 26.7937 10.3459 26.0807L14.3572 22.5294H21.4504C24.9784 22.5294 26.9547 20.503 26.9547 17.0251V7.93679C26.9547 4.45891 24.9784 2.4325 21.4504 2.4325H6.50218C2.97625 2.4325 1 4.4493 1 7.93679V17.0251C1 20.5126 3.02476 22.5294 6.42836 22.5294H6.9107V25.4181C6.9107 26.4533 7.45422 27.1131 8.39687 27.1131ZM8.96593 24.532V21.1863C8.96593 20.4986 8.67132 20.2335 8.01319 20.2335H6.56757C4.35225 20.2335 3.29592 19.1066 3.29592 16.9523V8.00007C3.29592 5.84569 4.35225 4.72842 6.56757 4.72842H21.3871C23.5928 4.72842 24.6588 5.84569 24.6588 8.00007V16.9523C24.6588 19.1066 23.5928 20.2335 21.3871 20.2335H14.2321C13.521 20.2335 13.1823 20.3484 12.6864 20.8497L8.96593 24.532Z" fill="black"/>
<path d="M13.9816 14.4332C14.6158 14.4332 14.9861 14.0788 15.0062 13.402L15.1766 7.70166C15.1989 7.03136 14.6816 6.53003 13.9677 6.53003C13.2463 6.53003 12.7483 7.02175 12.7705 7.69206L12.9313 13.4062C12.9515 14.0692 13.3239 14.4332 13.9816 14.4332ZM13.9816 18.3156C14.733 18.3156 15.3505 17.7777 15.3505 17.0294C15.3505 16.2927 14.7426 15.7527 13.9816 15.7527C13.2205 15.7527 12.6063 16.3002 12.6063 17.0294C12.6063 17.7681 13.2302 18.3156 13.9816 18.3156Z" fill="black"/>
</svg>
