<svg width="28" height="28" viewBox="0 0 28 28" fill="none" xmlns="http://www.w3.org/2000/svg">
<path d="M6.84421 24.8972H21.0295C23.5685 24.8972 24.8737 23.5919 24.8737 21.0914V6.82921C24.8737 4.32656 23.5685 3.02344 21.0295 3.02344H6.84421C4.31484 3.02344 3 4.31695 3 6.82921V21.0914C3 23.6016 4.31484 24.8972 6.84421 24.8972ZM6.97733 22.6013C5.88772 22.6013 5.29592 22.0371 5.29592 20.8985V7.01999C5.29592 5.88139 5.88772 5.31936 6.97733 5.31936H20.8964C21.9764 5.31936 22.5778 5.88139 22.5778 7.01999V20.8985C22.5778 22.0371 21.9764 22.6013 20.8964 22.6013H6.97733Z" fill="black"/>
<path d="M8.86668 19.1995C9.34785 19.1995 9.68746 18.862 9.68746 18.367V14.7623H10.5036C10.5771 14.7623 10.6432 14.7623 10.7264 14.7623L12.188 18.6525C12.3232 19.0336 12.6361 19.1911 12.9682 19.1911C13.4878 19.1911 14.0192 18.777 13.7413 18.0689L12.3064 14.4272C13.2412 14.0468 13.74 12.8468 13.74 11.6311C13.74 9.78349 12.7868 8.69693 10.8612 8.69693H9.06613C8.38645 8.69693 8.03418 9.15162 8.03418 9.87724V18.367C8.03418 18.862 8.37168 19.1995 8.86668 19.1995ZM9.68746 13.4974V10.0235H10.6676C11.625 10.0235 12.0591 10.6493 12.0591 11.7065C12.0591 12.746 11.6443 13.4974 10.6772 13.4974H9.68746ZM17.528 18.6347C19.1902 18.6347 20.3778 17.6831 20.3778 16.0819C20.3778 14.9578 19.7747 14.164 18.4277 13.4712L17.3236 12.9056C16.7712 12.6208 16.2037 12.2604 16.2037 11.5608C16.2037 10.8933 16.7006 10.4667 17.4544 10.4667C18.2627 10.4667 18.6785 10.9849 18.7582 11.7122C18.8123 12.0935 19.1054 12.3183 19.4408 12.3183C19.8805 12.3183 20.2651 12.003 20.1798 11.3458C20.0305 10.1444 19.0767 9.15701 17.4586 9.15701C15.8531 9.15701 14.6695 10.1329 14.6695 11.6404C14.6695 12.9093 15.3898 13.698 16.594 14.2821L17.6313 14.7923C18.2571 15.0973 18.851 15.558 18.851 16.2084C18.851 16.8771 18.367 17.325 17.5343 17.325C16.5865 17.325 16.1728 16.8368 16.0823 16.0699C16.0186 15.6715 15.7406 15.4638 15.4158 15.4638C14.9815 15.4638 14.5949 15.8184 14.6802 16.4362C14.8529 17.7206 15.8862 18.6347 17.528 18.6347ZM17.5205 19.916C17.7804 19.916 18.0009 19.6976 18.0009 19.4377V8.38498C18.0009 8.11334 17.7804 7.8949 17.5205 7.8949C17.2627 7.8949 17.0325 8.11334 17.0325 8.38498V19.4377C17.0325 19.6976 17.2627 19.916 17.5205 19.916Z" fill="black"/>
</svg>
