<svg width="28" height="28" viewBox="0 0 28 28" fill="none" xmlns="http://www.w3.org/2000/svg">
<path d="M0 3.80341C0 4.39989 0.499683 4.90707 1.08233 4.90707H4.77539L6.59133 17.344C6.85008 19.1009 7.78805 20.1839 9.57164 20.1839H23.2137C23.7614 20.1839 24.2463 19.7583 24.2463 19.1489C24.2463 18.5417 23.7614 18.1203 23.2137 18.1203H9.83203C9.26109 18.1203 8.90999 17.7148 8.82139 17.1054L8.63811 15.8918H23.3004C25.0894 15.8918 26.0316 14.8034 26.2882 13.0306L27.173 7.13716C27.1964 6.97849 27.2241 6.78255 27.2241 6.65177C27.2241 5.98381 26.7494 5.51483 25.9509 5.51483H7.14444L6.94381 4.22693C6.80975 3.21912 6.39937 2.70935 5.1007 2.70935H1.08233C0.499683 2.70935 0 3.21443 0 3.80341ZM8.48602 24.0103C8.48602 25.1484 9.39305 26.0416 10.527 26.0416C11.6555 26.0416 12.5562 25.1484 12.5562 24.0103C12.5562 22.886 11.6555 21.9811 10.527 21.9811C9.39305 21.9811 8.48602 22.886 8.48602 24.0103ZM19.3249 24.0103C19.3249 25.1484 20.2395 26.0416 21.3638 26.0416C22.4998 26.0416 23.4026 25.1484 23.4026 24.0103C23.4026 22.886 22.4998 21.9811 21.3638 21.9811C20.2395 21.9811 19.3249 22.886 19.3249 24.0103Z" fill="black"/>
</svg>
