<svg width="28" height="28" viewBox="0 0 28 28" fill="none" xmlns="http://www.w3.org/2000/svg">
<path d="M14.105 26.21C20.7369 26.21 26.2121 20.7273 26.2121 14.105C26.2121 7.47312 20.7273 2 14.0954 2C7.47523 2 2 7.47312 2 14.105C2 20.7273 7.48484 26.21 14.105 26.21ZM14.105 23.8255C8.71085 23.8255 4.39412 19.4991 4.39412 14.105C4.39412 8.71085 8.70124 4.38452 14.0954 4.38452C19.4895 4.38452 23.8276 8.71085 23.8276 14.105C23.8276 19.4991 19.4991 23.8255 14.105 23.8255Z" fill="black"/>
<path d="M14.2672 20.9398C14.5827 20.9398 14.8204 20.7139 14.8204 20.3771V19.632C17.2715 19.4434 18.6104 17.7303 18.6104 15.1398V14.6298C18.6104 14.0731 18.253 13.738 17.7062 13.738H14.8204V10.2678C15.7208 10.4066 16.4568 11.0232 16.7441 11.8667C16.9302 12.309 17.14 12.4941 17.5902 12.4941C18.066 12.4941 18.3873 12.1695 18.3873 11.6844C18.3873 11.4713 18.3383 11.2871 18.2734 11.0954C17.778 9.75665 16.439 8.81446 14.8204 8.64923V7.88751C14.8204 7.55282 14.5827 7.33649 14.2672 7.33649C13.9401 7.33649 13.7045 7.55282 13.7045 7.88751V8.66845C11.18 8.9436 9.58301 11.0024 9.58301 14.1399C9.58301 17.3267 11.1693 19.3346 13.7045 19.6203V20.3771C13.7045 20.7139 13.9497 20.9398 14.2672 20.9398ZM13.7045 18.0153C12.2746 17.6998 11.4106 16.2605 11.4106 14.1315C11.4106 12.027 12.2704 10.592 13.7045 10.2891V18.0153ZM14.8204 18.0559V15.2389H16.8245V15.4672C16.8245 16.8741 16.0832 17.8681 14.8204 18.0559Z" fill="black"/>
</svg>
