<svg width="28" height="28" viewBox="0 0 28 28" fill="none" xmlns="http://www.w3.org/2000/svg">
<path d="M14.105 26.21C20.7369 26.21 26.2121 20.7273 26.2121 14.105C26.2121 7.47312 20.7273 2 14.0954 2C7.47523 2 2 7.47312 2 14.105C2 20.7273 7.48484 26.21 14.105 26.21ZM14.105 23.8255C8.71085 23.8255 4.39412 19.4991 4.39412 14.105C4.39412 8.71085 8.70124 4.38452 14.0954 4.38452C19.4895 4.38452 23.8276 8.71085 23.8276 14.105C23.8276 19.4991 19.4991 23.8255 14.105 23.8255Z" fill="black"/>
<path d="M10.5201 19.862C10.9797 19.862 11.2715 19.5448 11.2715 19.0381V15.4494H11.7241L13.0064 19.3098C13.1353 19.7152 13.3748 19.8641 13.728 19.8641C14.1473 19.8641 14.4442 19.5605 14.4442 19.1274C14.4442 18.9624 14.4103 18.7946 14.342 18.6167L13.0924 14.9551C13.9771 14.4725 14.477 13.295 14.477 11.9468C14.477 9.75638 13.5972 8.68036 11.8673 8.68036H10.5583C10.0828 8.68036 9.79004 9.00075 9.79004 9.55504V19.0114C9.79004 19.5256 10.0584 19.862 10.5201 19.862ZM11.2715 13.8561V10.1588H11.8052C12.6126 10.1588 12.9721 10.793 12.9721 11.9989C12.9721 13.224 12.6126 13.8561 11.7764 13.8561H11.2715ZM17.0135 19.8716C18.3395 19.8716 19.1971 18.932 19.1971 17.4556C19.1971 16.3175 18.7849 15.6324 17.646 15.0071L17.2134 14.7673C16.6345 14.4486 16.3914 14.1277 16.3914 13.6032C16.3914 13.0421 16.5995 12.7008 17.0038 12.7008C17.485 12.7008 17.6163 13.0634 17.6781 13.7197C17.7175 14.1894 17.9357 14.4791 18.37 14.4791C18.8181 14.4791 19.0757 14.1692 19.0757 13.6794C19.0757 13.5516 19.0619 13.4398 19.0481 13.3142C18.9182 12.1655 18.2036 11.3138 17.0135 11.3138C15.7652 11.3138 14.9364 12.2417 14.9364 13.6733C14.9364 14.7898 15.3892 15.5356 16.4875 16.1246L16.9436 16.3665C17.4928 16.6501 17.722 17.0105 17.722 17.581C17.722 18.1848 17.4829 18.5122 17.0135 18.5122C16.5302 18.5122 16.3145 18.1175 16.2698 17.4816C16.2262 17.0171 15.9876 16.7265 15.5524 16.7265C15.1096 16.7265 14.8478 17.0427 14.8478 17.5304C14.8478 17.671 14.8499 17.7978 14.8713 17.9246C15.0077 19.0651 15.7884 19.8716 17.0135 19.8716Z" fill="black"/>
</svg>
