<svg width="28" height="28" viewBox="0 0 28 28" fill="none" xmlns="http://www.w3.org/2000/svg">
<path d="M6.84421 24.8972H21.0295C23.5685 24.8972 24.8737 23.5919 24.8737 21.0914V6.82921C24.8737 4.32656 23.5685 3.02344 21.0295 3.02344H6.84421C4.31484 3.02344 3 4.31695 3 6.82921V21.0914C3 23.6016 4.31484 24.8972 6.84421 24.8972ZM6.97733 22.6013C5.88772 22.6013 5.29592 22.0371 5.29592 20.8985V7.01999C5.29592 5.88139 5.88772 5.31936 6.97733 5.31936H20.8964C21.9764 5.31936 22.5778 5.88139 22.5778 7.01999V20.8985C22.5778 22.0371 21.9764 22.6013 20.8964 22.6013H6.97733Z" fill="black"/>
<path d="M11.9935 19.721C12.5253 19.721 12.8848 19.354 12.8848 18.8306V17.7984H15.2398C15.5754 17.7984 15.8035 17.5533 15.8035 17.2357C15.8035 16.9202 15.5754 16.6847 15.2398 16.6847H12.8848V14.8631H16.5331C17.014 14.8631 17.3567 14.5481 17.3567 14.0714C17.3567 13.5947 17.014 13.2872 16.5331 13.2872H12.8848V10.2978H16.9308C17.4127 10.2978 17.7671 9.97643 17.7671 9.49339C17.7671 9.00284 17.4127 8.68152 16.9308 8.68152H11.9839C11.4244 8.68152 11.085 9.03472 11.085 9.61221V16.6847H10.1644C9.82879 16.6847 9.61035 16.9202 9.61035 17.2357C9.61035 17.5533 9.82879 17.7984 10.1644 17.7984H11.085V18.8423C11.085 19.3753 11.4638 19.721 11.9935 19.721Z" fill="black"/>
</svg>
