<svg width="28" height="28" viewBox="0 0 28 28" fill="none" xmlns="http://www.w3.org/2000/svg">
<path d="M14.105 26.21C20.7369 26.21 26.2121 20.7273 26.2121 14.105C26.2121 7.47312 20.7273 2 14.0954 2C7.47523 2 2 7.47312 2 14.105C2 20.7273 7.48484 26.21 14.105 26.21Z" fill="black"/>
<path d="M12.0787 20.1109C11.5246 20.1109 11.1257 19.7471 11.1257 19.1919V18.117H10.1657C9.81836 18.117 9.5957 17.858 9.5957 17.5287C9.5957 17.2016 9.81836 16.9522 10.1657 16.9522H11.1257V9.61057C11.1257 9.00659 11.4831 8.63745 12.067 8.63745H17.2054C17.7096 8.63745 18.0724 8.96511 18.0724 9.48753C18.0724 9.98862 17.7096 10.328 17.2054 10.328H13.02V13.4155H16.796C17.2875 13.4155 17.6557 13.7368 17.6557 14.2433C17.6557 14.7401 17.2875 15.0732 16.796 15.0732H13.02V16.9522H15.4622C15.8116 16.9522 16.0514 17.2016 16.0514 17.5287C16.0514 17.858 15.8116 18.117 15.4622 18.117H13.02V19.1802C13.02 19.7258 12.6403 20.1109 12.0787 20.1109Z" fill="white"/>
</svg>
