<svg width="28" height="28" viewBox="0 0 28 28" fill="none" xmlns="http://www.w3.org/2000/svg">
<path d="M14.105 26.21C20.7369 26.21 26.2121 20.7273 26.2121 14.105C26.2121 7.47312 20.7273 2 14.0954 2C7.47523 2 2 7.47312 2 14.105C2 20.7273 7.48484 26.21 14.105 26.21ZM14.105 23.8255C8.71085 23.8255 4.39412 19.4991 4.39412 14.105C4.39412 8.71085 8.70124 4.38452 14.0954 4.38452C19.4895 4.38452 23.8276 8.71085 23.8276 14.105C23.8276 19.4991 19.4991 23.8255 14.105 23.8255Z" fill="black"/>
<path d="M9.32422 14.1852C9.32422 16.2739 10.013 17.8676 11.2161 18.7981L10.8247 20.3413C10.8034 20.4287 10.7895 20.5107 10.7895 20.5948C10.7895 20.9295 11.008 21.1555 11.333 21.1555C11.6091 21.1555 11.8137 21.0148 11.8894 20.7195L12.2232 19.3815C12.5303 19.5073 12.849 19.6023 13.187 19.6566L13.0142 20.3509C12.9812 20.4509 12.9716 20.5234 12.9716 20.5991C12.9716 20.9359 13.1858 21.1555 13.5247 21.1555C13.7954 21.1555 14.0033 21.0148 14.0811 20.7195L14.3296 19.7227C16.2196 19.6416 17.6223 18.6636 18.1442 17.2114C18.2209 17.0112 18.2699 16.7919 18.2699 16.5821C18.2699 16.0948 17.9401 15.7384 17.4252 15.7384C16.9846 15.7384 16.727 16.0154 16.5803 16.4176C16.3288 17.2632 15.6535 17.8913 14.7446 18.0458L16.3581 11.6747C16.4509 11.7675 16.5341 11.9222 16.5864 12.1058C16.7331 12.4081 16.9384 12.6704 17.3717 12.6704C17.8665 12.6704 18.1899 12.3491 18.1899 11.8447C18.1899 11.6276 18.1325 11.401 18.0411 11.1861C17.7932 10.5565 17.3853 10.0217 16.8636 9.61247L17.2112 8.21372C17.2421 8.1263 17.2539 8.04427 17.2539 7.96645C17.2539 7.63927 17.0375 7.41333 16.7028 7.41333C16.4342 7.41333 16.22 7.55395 16.1443 7.85138L15.8394 9.01857C15.5537 8.89481 15.2349 8.8095 14.8949 8.74341L15.0196 8.21161C15.0526 8.1338 15.0643 8.04216 15.0643 7.96645C15.0643 7.63927 14.848 7.41333 14.5112 7.41333C14.2447 7.41333 14.0305 7.55395 13.9548 7.85138L13.7448 8.69442C11.0415 8.85028 9.32422 10.9463 9.32422 14.1852ZM11.154 14.1894C11.154 12.1679 11.9635 10.7562 13.3201 10.3918L11.7355 16.6923C11.3567 16.0461 11.154 15.2047 11.154 14.1894ZM12.6266 17.7427L14.5074 10.3172C14.8475 10.3641 15.1621 10.4867 15.4435 10.6582L13.5744 18.102C13.2151 18.0498 12.9081 17.9293 12.6266 17.7427Z" fill="black"/>
</svg>
