<svg width="28" height="28" viewBox="0 0 28 28" fill="none" xmlns="http://www.w3.org/2000/svg">
<path d="M6.84421 24.8972H21.0295C23.5685 24.8972 24.8737 23.5919 24.8737 21.0914V6.82921C24.8737 4.32656 23.5685 3.02344 21.0295 3.02344H6.84421C4.31484 3.02344 3 4.31695 3 6.82921V21.0914C3 23.6016 4.31484 24.8972 6.84421 24.8972ZM6.97733 22.6013C5.88772 22.6013 5.29592 22.0371 5.29592 20.8985V7.01999C5.29592 5.88139 5.88772 5.31936 6.97733 5.31936H20.8964C21.9764 5.31936 22.5778 5.88139 22.5778 7.01999V20.8985C22.5778 22.0371 21.9764 22.6013 20.8964 22.6013H6.97733Z" fill="black"/>
<path d="M14.1007 20.7007C14.4162 20.7007 14.6517 20.4748 14.6517 20.1476V19.3772H14.8779C17.0428 19.3772 18.4235 18.1882 18.4235 16.3193C18.4235 15.0457 17.6384 14.0634 16.4449 13.7107C17.3079 13.2994 17.913 12.3947 17.913 11.4197C17.913 9.81517 16.6931 8.68126 14.8505 8.68126H14.6517V7.81595C14.6517 7.50048 14.4162 7.27454 14.1007 7.27454C13.7927 7.27454 13.5572 7.50048 13.5572 7.81595V8.68126H11.7741C11.1633 8.68126 10.7471 9.09001 10.7471 9.72094V18.3513C10.7471 18.9705 11.1558 19.3772 11.7762 19.3772H13.5572V20.1476C13.5572 20.4748 13.7927 20.7007 14.1007 20.7007ZM12.5098 17.8669V14.5955H13.5572V17.8573L12.5098 17.8669ZM14.6517 17.8477V14.6051C15.987 14.6829 16.6535 15.2299 16.6535 16.227C16.6535 17.2399 15.987 17.7912 14.6517 17.8477ZM12.5098 13.1433V10.182H13.5572V13.1433H12.5098ZM14.6517 13.0931V10.2033C15.6382 10.2907 16.1735 10.7738 16.1735 11.5981C16.1735 12.4299 15.6553 12.9556 14.6517 13.0931Z" fill="black"/>
</svg>
