<svg width="28" height="28" viewBox="0 0 28 28" fill="none" xmlns="http://www.w3.org/2000/svg">
<path d="M6.84421 24.8972H21.0295C23.5685 24.8972 24.8737 23.5919 24.8737 21.0914V6.82921C24.8737 4.32656 23.5685 3.02344 21.0295 3.02344H6.84421C4.31484 3.02344 3 4.31695 3 6.82921V21.0914C3 23.6016 4.31484 24.8972 6.84421 24.8972Z" fill="black"/>
<path d="M8.84961 14.0944C8.84961 13.7534 9.09687 13.504 9.41867 13.504H10.0761V9.42585C10.0761 8.7546 10.5345 8.30554 11.225 8.30554C11.8217 8.30554 12.2079 8.61726 12.4421 9.14272L14.5735 13.5136H16.0377V9.22803C16.0377 8.6653 16.3996 8.31515 16.9367 8.31515C17.4739 8.31515 17.8241 8.6653 17.8241 9.22803V13.5136H18.5155C18.8373 13.5136 19.0942 13.7534 19.0942 14.0944C19.0942 14.4141 18.8373 14.6805 18.5155 14.6805H17.8241V18.7371C17.8241 19.4159 17.3656 19.867 16.6731 19.867C16.0785 19.867 15.6976 19.5553 15.4581 19.0277L13.3374 14.6709H11.8604V18.9424C11.8604 19.5052 11.5102 19.8574 10.973 19.8574C10.4316 19.8574 10.0761 19.5052 10.0761 18.9424V14.6709H9.41867C9.08726 14.6709 8.84961 14.4119 8.84961 14.0944ZM11.8519 13.504H12.8516L11.8519 11.3512V13.504ZM15.054 14.6805L16.0419 16.8279V14.6805H15.054Z" fill="white"/>
</svg>
