<svg width="28" height="28" viewBox="0 0 28 28" fill="none" xmlns="http://www.w3.org/2000/svg">
<path d="M6.84421 24.8972H21.0295C23.5685 24.8972 24.8737 23.5919 24.8737 21.0914V6.82921C24.8737 4.32656 23.5685 3.02344 21.0295 3.02344H6.84421C4.31484 3.02344 3 4.31695 3 6.82921V21.0914C3 23.6016 4.31484 24.8972 6.84421 24.8972Z" fill="black"/>
<path d="M11.9354 19.9601C11.3802 19.9601 10.9972 19.5792 10.9972 19.024V17.9993H9.95609C9.60664 17.9993 9.38492 17.7637 9.38492 17.4206C9.38492 17.0892 9.60453 16.8441 9.95609 16.8441H10.9972V15.6722H9.94649C9.59493 15.6722 9.35938 15.4174 9.35938 15.0839C9.35938 14.7483 9.59493 14.501 9.94649 14.501H10.9972V9.4636C10.9972 8.87134 11.3525 8.49048 11.9363 8.49048H14.8623C17.1144 8.49048 18.5534 9.99915 18.5534 12.0818C18.5534 14.1731 17.0879 15.6647 14.821 15.6647H12.8682V16.8441H15.5478C15.8973 16.8441 16.1211 17.0892 16.1211 17.4206C16.1211 17.7637 15.8973 17.9993 15.5478 17.9993H12.8682V19.024C12.8682 19.5792 12.4831 19.9601 11.9354 19.9601ZM12.8778 14.0737L14.5009 14.093C15.9128 14.093 16.6686 13.323 16.6686 12.0977C16.6686 10.8938 15.9224 10.1355 14.503 10.1355H12.8778V14.0737Z" fill="white"/>
</svg>
