<svg width="28" height="28" viewBox="0 0 28 28" fill="none" xmlns="http://www.w3.org/2000/svg">
<path d="M14.105 26.21C20.7369 26.21 26.2121 20.7273 26.2121 14.105C26.2121 7.47312 20.7273 2 14.0954 2C7.47523 2 2 7.47312 2 14.105C2 20.7273 7.48484 26.21 14.105 26.21ZM14.105 23.8255C8.71085 23.8255 4.39412 19.4991 4.39412 14.105C4.39412 8.71085 8.70124 4.38452 14.0954 4.38452C19.4895 4.38452 23.8276 8.71085 23.8276 14.105C23.8276 19.4991 19.4991 23.8255 14.105 23.8255Z" fill="black"/>
<path d="M10.4996 19.3039H17.3745C17.8554 19.3039 18.1884 18.9964 18.1884 18.5155C18.1884 18.0441 17.8554 17.7388 17.3745 17.7388H12.642C13.2101 17.24 13.5865 16.3848 13.5865 15.4773C13.5865 15.1135 13.5459 14.7903 13.4745 14.4948H16.2523C16.6526 14.4948 16.9306 14.2339 16.9306 13.8366C16.9306 13.4469 16.6526 13.1902 16.2523 13.1902H13.174C13.0791 12.785 12.9937 12.3488 12.9937 11.8454C12.9937 10.6726 13.8328 9.8792 15.2899 9.8792C16.245 9.8792 16.6631 10.1171 17.0356 10.1171C17.4987 10.1171 17.7443 9.85623 17.7443 9.43272C17.7443 9.09311 17.5856 8.83225 17.1551 8.65343C16.6245 8.42351 15.9471 8.31921 15.1362 8.31921C12.6799 8.31921 11.2013 9.71069 11.2013 11.84C11.2013 12.2961 11.2812 12.748 11.3942 13.1902H10.392C9.99168 13.1902 9.7041 13.4469 9.7041 13.8366C9.7041 14.2339 9.99168 14.4948 10.392 14.4948H11.6947C11.7832 14.8299 11.8409 15.1672 11.8409 15.481C11.8409 16.6325 11.1509 17.4022 10.3648 17.6609C9.92277 17.8585 9.70691 18.0917 9.70691 18.5302C9.70691 18.9931 10.0207 19.3039 10.4996 19.3039Z" fill="black"/>
</svg>
