<svg width="28" height="28" viewBox="0 0 28 28" fill="none" xmlns="http://www.w3.org/2000/svg">
<path d="M6.84421 24.8972H21.0295C23.5685 24.8972 24.8737 23.5919 24.8737 21.0914V6.82921C24.8737 4.32656 23.5685 3.02344 21.0295 3.02344H6.84421C4.31484 3.02344 3 4.31695 3 6.82921V21.0914C3 23.6016 4.31484 24.8972 6.84421 24.8972ZM6.97733 22.6013C5.88772 22.6013 5.29592 22.0371 5.29592 20.8985V7.01999C5.29592 5.88139 5.88772 5.31936 6.97733 5.31936H20.8964C21.9764 5.31936 22.5778 5.88139 22.5778 7.01999V20.8985C22.5778 22.0371 21.9764 22.6013 20.8964 22.6013H6.97733Z" fill="black"/>
<path d="M9.75082 11.5213C9.75082 11.9526 10.0246 12.2495 10.4811 12.2495H13.0524V18.8624C13.0524 19.4303 13.4354 19.7708 13.9503 19.7708C14.4695 19.7708 14.8332 19.4303 14.8332 18.8624V12.2495H17.4024C17.859 12.2495 18.1327 11.9526 18.1327 11.5213C18.1327 11.0976 17.8569 10.8006 17.4024 10.8006H10.4811C10.0267 10.8006 9.75082 11.0976 9.75082 11.5213ZM9.72949 9.28188C9.72949 9.60157 9.96293 9.84462 10.2772 9.84462H17.5946C17.9206 9.84462 18.1424 9.60157 18.1424 9.28188C18.1424 8.95259 17.9206 8.72876 17.5946 8.72876H10.2772C9.95871 8.72876 9.72949 8.95259 9.72949 9.28188Z" fill="black"/>
</svg>
