<svg width="30" height="28" viewBox="0 0 30 28" fill="none" xmlns="http://www.w3.org/2000/svg">
<path d="M4.73695 23.5778H16.9282C19.9205 23.5778 21.6651 21.8716 21.6651 18.9236V8.64249C21.6651 5.70625 19.9205 4 16.9282 4H4.73695C1.85039 4 0 5.70625 0 8.64671V18.9953C0 21.939 1.74258 23.5778 4.73695 23.5778ZM5.11991 21.4877C3.27608 21.4877 2.23053 20.5084 2.23053 18.5971V8.9807C2.23053 7.03444 3.27608 6.07842 5.11991 6.07842H16.5452C18.3773 6.07842 19.4325 7.05764 19.4325 8.9807V18.5971C19.4325 20.5084 18.3668 21.4877 16.5389 21.4877H5.11991ZM21.2775 10.4507V12.9388L26.7776 8.43459C26.8767 8.35678 26.9449 8.3024 27.0462 8.3024C27.1762 8.3024 27.237 8.40904 27.237 8.56467V19.068C27.237 19.2215 27.1762 19.3206 27.0462 19.3206C26.9449 19.3206 26.8767 19.2641 26.7776 19.1959L21.2775 14.6938V17.1702L25.8966 21.0934C26.4412 21.5476 27.0033 21.8594 27.5533 21.8594C28.6268 21.8594 29.3529 21.0808 29.3529 19.9319V7.70078C29.3529 6.54976 28.6268 5.77117 27.5533 5.77117C27.0012 5.77117 26.4412 6.08289 25.8966 6.5371L21.2775 10.4507Z" fill="black"/>
<path d="M14.6817 9.02075C14.4103 9.02075 14.1933 9.11754 13.9943 9.31231L9.30985 13.9494L7.68867 15.7188L7.88578 12.7375V11.1428C7.88578 10.6309 7.49742 10.2179 6.97289 10.2179C6.43336 10.2179 6.00446 10.6075 6.00446 11.1407V17.496C6.00446 18.2277 6.37547 18.6201 7.1264 18.6201H13.5356C14.0667 18.6201 14.4701 18.1773 14.4701 17.6399C14.4701 17.1154 14.0454 16.7388 13.5314 16.7388H11.8795L8.87601 16.9338L10.6708 15.3072L15.3478 10.6733C15.5702 10.4668 15.6607 10.2222 15.6607 9.9423C15.6607 9.41449 15.2435 9.02075 14.6817 9.02075Z" fill="black"/>
</svg>
