<svg width="28" height="28" viewBox="0 0 28 28" fill="none" xmlns="http://www.w3.org/2000/svg">
<path d="M14.105 26.21C20.7369 26.21 26.2121 20.7273 26.2121 14.105C26.2121 7.47312 20.7273 2 14.0954 2C7.47523 2 2 7.47312 2 14.105C2 20.7273 7.48484 26.21 14.105 26.21ZM14.105 23.8255C8.71085 23.8255 4.39412 19.4991 4.39412 14.105C4.39412 8.71085 8.70124 4.38452 14.0954 4.38452C19.4895 4.38452 23.8276 8.71085 23.8276 14.105C23.8276 19.4991 19.4991 23.8255 14.105 23.8255Z" fill="black"/>
<path d="M10.1592 14.1008C10.1592 16.5244 11.4747 18.1013 13.5347 18.354V19.1886C13.5347 19.52 13.7702 19.7459 14.0857 19.7459C14.4129 19.7459 14.6484 19.52 14.6484 19.1886V18.3636C16.2232 18.192 17.2504 17.2998 17.565 16.2948C17.5959 16.1764 17.629 16.0358 17.629 15.9015C17.629 15.4323 17.2811 15.1194 16.8119 15.1194C16.4648 15.1194 16.2042 15.3111 16.0352 15.6559C15.7868 16.25 15.3227 16.6618 14.6484 16.8015V11.4021C15.311 11.5461 15.7751 11.9675 16.0214 12.5382C16.1873 12.8949 16.4407 13.0918 16.8173 13.0918C17.2865 13.0918 17.613 12.781 17.613 12.3001C17.613 12.1594 17.5758 12.0158 17.5364 11.8901C17.1944 10.864 16.1575 10.0149 14.6484 9.84754V9.02676C14.6484 8.69957 14.4129 8.46191 14.0857 8.46191C13.7702 8.46191 13.5347 8.69957 13.5347 9.02676V9.85715C11.4747 10.1077 10.1592 11.6984 10.1592 14.1008ZM11.9111 14.1008C11.9111 12.6326 12.5278 11.6879 13.5347 11.4235V16.7802C12.5278 16.5254 11.9111 15.5902 11.9111 14.1008Z" fill="black"/>
</svg>
