<svg width="28" height="28" viewBox="0 0 28 28" fill="none" xmlns="http://www.w3.org/2000/svg">
<path d="M14.105 26.21C20.7369 26.21 26.2121 20.7273 26.2121 14.105C26.2121 7.47312 20.7273 2 14.0954 2C7.47523 2 2 7.47312 2 14.105C2 20.7273 7.48484 26.21 14.105 26.21ZM14.105 23.8255C8.71085 23.8255 4.39412 19.4991 4.39412 14.105C4.39412 8.71085 8.70124 4.38452 14.0954 4.38452C19.4895 4.38452 23.8276 8.71085 23.8276 14.105C23.8276 19.4991 19.4991 23.8255 14.105 23.8255Z" fill="black"/>
<path d="M11.3421 19.6468C13.2078 19.6468 14.2196 18.7252 14.5444 16.7483L14.9016 14.5166H17.2381C17.6544 14.5166 17.9143 14.2536 17.9143 13.8776C17.9143 13.4783 17.6544 13.2099 17.2381 13.2099H15.1114L15.3631 11.6185C15.5401 10.5556 16.0037 10.0962 16.9737 10.0962C17.2841 10.0962 17.4364 10.1271 17.6197 10.156C17.7219 10.1752 17.8316 10.1827 17.9605 10.1785C18.3844 10.1595 18.639 9.88362 18.639 9.49619C18.639 9.16385 18.4557 8.8976 18.072 8.74221C17.7781 8.61143 17.3661 8.54346 16.8465 8.54346C14.983 8.54346 13.9691 9.47674 13.6463 11.4516L13.3648 13.2099H11.1507C10.7344 13.2099 10.4841 13.4783 10.4841 13.8776C10.4841 14.2536 10.7248 14.5166 11.1507 14.5166H13.1626L12.8352 16.5312C12.6507 17.6368 12.1871 18.1037 11.2149 18.1037C10.8971 18.1037 10.7522 18.0652 10.5711 18.0343C10.4593 18.0151 10.3571 18.0076 10.2207 18.0139C9.79668 18.0329 9.54004 18.3088 9.54004 18.6941C9.54004 19.0381 9.72332 19.2927 10.107 19.448C10.3988 19.5927 10.8129 19.6468 11.3421 19.6468Z" fill="black"/>
</svg>
