<svg width="28" height="28" viewBox="0 0 28 28" fill="none" xmlns="http://www.w3.org/2000/svg">
<path d="M6.84421 24.8972H21.0295C23.5685 24.8972 24.8737 23.5919 24.8737 21.0914V6.82921C24.8737 4.32656 23.5685 3.02344 21.0295 3.02344H6.84421C4.31484 3.02344 3 4.31695 3 6.82921V21.0914C3 23.6016 4.31484 24.8972 6.84421 24.8972Z" fill="black"/>
<path d="M9.00195 14.0367C9.00195 10.665 10.783 8.48601 13.5936 8.32054L13.8153 7.44773C13.8931 7.13858 14.117 6.99585 14.4069 6.99585C14.7479 6.99585 14.9781 7.2239 14.9781 7.56491C14.9781 7.65023 14.9546 7.74187 14.9333 7.8239L14.7969 8.36952C15.1487 8.44523 15.4792 8.53265 15.7862 8.6564L16.0878 7.44773C16.1731 7.13858 16.3895 6.99585 16.6794 6.99585C17.0183 6.99585 17.2463 7.2239 17.2463 7.56491C17.2463 7.65444 17.2346 7.73648 17.2016 7.82601L16.8423 9.27585C17.382 9.6989 17.8079 10.2497 18.0697 10.909C18.1632 11.1377 18.2227 11.3707 18.2227 11.6015C18.2227 12.124 17.8834 12.4633 17.3685 12.4633C16.9171 12.4633 16.6979 12.1872 16.547 11.8711C16.4926 11.6897 16.4019 11.5308 16.3091 11.4379L14.6424 18.0368C15.5769 17.8685 16.2756 17.217 16.5367 16.3458C16.6897 15.9234 16.9632 15.6347 17.4219 15.6347C17.9666 15.6347 18.3048 16.0071 18.3048 16.5262C18.3048 16.7402 18.2558 16.9734 18.1792 17.1736C17.637 18.6853 16.1748 19.7048 14.221 19.7859L13.9492 20.8221C13.8831 21.1313 13.6613 21.274 13.3693 21.274C13.0166 21.274 12.8077 21.0502 12.8077 20.6995C12.8077 20.6142 12.8173 20.5418 12.845 20.4396L13.0156 19.7198C12.6659 19.6655 12.3355 19.5705 12.0242 19.433L11.6809 20.8221C11.6105 21.1313 11.3888 21.274 11.0989 21.274C10.76 21.274 10.5277 21.0459 10.5277 20.6953C10.5277 20.6016 10.5416 20.5174 10.5629 20.43L10.966 18.8283C9.71304 17.868 9.00195 16.203 9.00195 14.0367ZM10.9241 14.0388C10.9241 15.0818 11.1268 15.9584 11.5151 16.6184L13.1509 10.1018C11.7591 10.4801 10.9241 11.9407 10.9241 14.0388ZM12.4456 17.722C12.7409 17.9086 13.0501 18.0408 13.4211 18.0952L15.3552 10.38C15.0716 10.1967 14.7432 10.0741 14.3914 10.0272L12.4456 17.722Z" fill="white"/>
</svg>
