<svg width="28" height="28" viewBox="0 0 28 28" fill="none" xmlns="http://www.w3.org/2000/svg">
<path d="M14.105 26.21C20.7369 26.21 26.2121 20.7273 26.2121 14.105C26.2121 7.47312 20.7273 2 14.0954 2C7.47523 2 2 7.47312 2 14.105C2 20.7273 7.48484 26.21 14.105 26.21ZM14.105 23.8255C8.71085 23.8255 4.39412 19.4991 4.39412 14.105C4.39412 8.71085 8.70124 4.38452 14.0954 4.38452C19.4895 4.38452 23.8276 8.71085 23.8276 14.105C23.8276 19.4991 19.4991 23.8255 14.105 23.8255Z" fill="black"/>
<path d="M14.0935 20.6909C14.3993 20.6909 14.6253 20.4746 14.6253 20.1528V19.3662C16.5218 19.1905 17.9461 18.1084 17.9461 16.3283C17.9461 14.7303 16.9212 13.7884 14.88 13.4145L14.6253 13.3604V10.4093C15.3847 10.549 15.9115 10.9981 16.1375 11.6947C16.2989 12.0779 16.5532 12.3026 16.9641 12.3026C17.43 12.3026 17.7568 11.9961 17.7568 11.5437C17.7568 11.4139 17.7216 11.2819 17.6918 11.1446C17.3787 9.93169 16.1886 9.0645 14.6253 8.89505V8.10966C14.6253 7.78786 14.3993 7.57153 14.0935 7.57153C13.7855 7.57153 13.5617 7.78786 13.5617 8.10966V8.89505C11.715 9.0795 10.4051 10.2076 10.4051 11.8414C10.4051 13.3592 11.4214 14.2519 13.3763 14.7005L13.5617 14.7451V17.8658C12.6061 17.7303 12.0441 17.2098 11.8629 16.5111C11.6949 16.0937 11.4331 15.8851 11.0351 15.8851C10.5523 15.8851 10.2373 16.2043 10.2373 16.6693C10.2373 16.8066 10.2629 16.9386 10.3086 17.0726C10.6409 18.3254 11.9007 19.2052 13.5617 19.3491V20.1528C13.5617 20.4746 13.7855 20.6909 14.0935 20.6909ZM13.5617 13.0843L13.4796 13.0609C12.5241 12.792 12.0933 12.3697 12.0933 11.7394C12.0933 11.0858 12.6521 10.5514 13.5617 10.4009V13.0843ZM14.6253 15.0094L14.8536 15.0617C15.889 15.3423 16.2504 15.7679 16.2504 16.4483C16.2504 17.1927 15.7088 17.7399 14.6253 17.8658V15.0094Z" fill="black"/>
</svg>
