<svg width="28" height="28" viewBox="0 0 28 28" fill="none" xmlns="http://www.w3.org/2000/svg">
<path d="M14.105 26.21C20.7369 26.21 26.2121 20.7273 26.2121 14.105C26.2121 7.47312 20.7273 2 14.0954 2C7.47523 2 2 7.47312 2 14.105C2 20.7273 7.48484 26.21 14.105 26.21ZM14.105 23.8255C8.71085 23.8255 4.39412 19.4991 4.39412 14.105C4.39412 8.71085 8.70124 4.38452 14.0954 4.38452C19.4895 4.38452 23.8276 8.71085 23.8276 14.105C23.8276 19.4991 19.4991 23.8255 14.105 23.8255Z" fill="black"/>
<path d="M9.3603 18.7402H15.3022C16.4973 18.7402 17.1887 18.0584 17.1887 16.8898V11.3415C17.1887 10.1729 16.5474 9.50067 15.3523 9.50067H9.3603C8.21327 9.50067 7.47382 10.1729 7.47382 11.3415V16.9152C7.47382 18.0859 8.17483 18.7402 9.3603 18.7402ZM17.8449 15.7876L19.955 17.5714C20.1849 17.7641 20.4181 17.8939 20.648 17.8939C21.1072 17.8939 21.4086 17.57 21.4086 17.0715V11.1692C21.4086 10.6824 21.1072 10.3585 20.648 10.3585C20.4181 10.3585 20.1774 10.4883 19.955 10.6714L17.8449 12.4627V15.7876Z" fill="black"/>
</svg>
