<svg width="28" height="28" viewBox="0 0 28 28" fill="none" xmlns="http://www.w3.org/2000/svg">
<path d="M6.84421 24.8972H21.0295C23.5685 24.8972 24.8737 23.5919 24.8737 21.0914V6.82921C24.8737 4.32656 23.5685 3.02344 21.0295 3.02344H6.84421C4.31484 3.02344 3 4.31695 3 6.82921V21.0914C3 23.6016 4.31484 24.8972 6.84421 24.8972ZM6.97733 22.6013C5.88772 22.6013 5.29592 22.0371 5.29592 20.8985V7.01999C5.29592 5.88139 5.88772 5.31936 6.97733 5.31936H20.8964C21.9764 5.31936 22.5778 5.88139 22.5778 7.01999V20.8985C22.5778 22.0371 21.9764 22.6013 20.8964 22.6013H6.97733Z" fill="black"/>
<path d="M9.68555 12.2409C9.68555 12.5585 9.91476 12.8015 10.2408 12.8015H10.8987V18.7915C10.8987 19.3519 11.2891 19.6957 11.8008 19.6957C12.3157 19.6957 12.689 19.3519 12.689 18.7915V15.9255H14.5943C16.5893 15.9255 17.9903 14.6529 18.2067 12.8015H18.7331C19.0687 12.8015 19.2904 12.5585 19.2904 12.2409C19.2904 11.9116 19.0687 11.6878 18.7331 11.6878H18.1875C17.9348 9.9173 16.571 8.71191 14.6259 8.71191H11.7984C11.2402 8.71191 10.8987 9.063 10.8987 9.63089V11.6878H10.2408C9.91476 11.6878 9.68555 11.9116 9.68555 12.2409ZM12.6987 14.3972V12.8015H16.3907C16.2138 13.8246 15.4504 14.3993 14.2837 14.3993L12.6987 14.3972ZM12.6987 11.6878V10.2466H14.2858C15.3961 10.2466 16.1519 10.7531 16.3619 11.6878H12.6987Z" fill="black"/>
</svg>
