<svg width="28" height="28" viewBox="0 0 28 28" fill="none" xmlns="http://www.w3.org/2000/svg">
<path d="M14.1634 15.5296C14.6587 15.5296 15.1103 15.2964 15.6386 14.7681L25.855 4.62552C25.4045 4.21841 24.5938 4.0213 23.4442 4.0213H4.5496C3.54624 4.0213 2.83374 4.2088 2.42382 4.58708L12.6883 14.7681C13.2091 15.2868 13.6586 15.5296 14.1634 15.5296ZM1.31406 22.5939L9.72367 14.2591L1.32437 5.9727C1.11273 6.33669 1 6.94981 1 7.81746V20.7676C1 21.6271 1.10219 22.2383 1.31406 22.5939ZM4.84421 24.5734H23.7388C24.7675 24.5734 25.4915 24.3754 25.9119 23.9856L17.3404 15.4792L16.6176 16.2116C15.7984 16.9998 15.0241 17.3598 14.1634 17.3598C13.2932 17.3598 12.5167 16.9998 11.7072 16.2116L10.9769 15.4834L2.42453 23.976C2.89726 24.3754 3.69812 24.5734 4.84421 24.5734ZM26.9861 22.5843C27.1862 22.2191 27.2905 21.6175 27.2905 20.7676V7.81746C27.2905 6.96903 27.1778 6.35591 26.9758 6.00153L18.5936 14.2591L26.9861 22.5843Z" fill="black"/>
</svg>
