<svg width="28" height="28" viewBox="0 0 28 28" fill="none" xmlns="http://www.w3.org/2000/svg">
<path d="M14.105 26.21C20.7369 26.21 26.2121 20.7273 26.2121 14.105C26.2121 7.47312 20.7273 2 14.0954 2C7.47523 2 2 7.47312 2 14.105C2 20.7273 7.48484 26.21 14.105 26.21Z" fill="black"/>
<path d="M9.14062 14.1969C9.14062 10.8251 10.9195 8.64617 13.7302 8.4807L13.954 7.60788C14.0297 7.29874 14.2556 7.15601 14.5359 7.15601C14.8866 7.15601 15.1146 7.38405 15.1146 7.72507C15.1146 7.81038 15.0933 7.90202 15.0602 7.98405L14.9334 8.52968C15.2852 8.60538 15.6157 8.69281 15.9152 8.81656L16.2244 7.60788C16.3118 7.29874 16.5281 7.15601 16.8063 7.15601C17.1549 7.15601 17.3829 7.38405 17.3829 7.72507C17.3829 7.8146 17.3712 7.89663 17.3402 7.98616L16.9809 9.43601C17.5186 9.85906 17.9466 10.4098 18.2084 11.0691C18.3019 11.2979 18.3614 11.5308 18.3614 11.7617C18.3614 12.2841 18.022 12.6235 17.505 12.6235C17.0557 12.6235 16.8345 12.3474 16.6856 12.0312C16.6313 11.8498 16.5385 11.6909 16.4477 11.5981L14.7811 18.197C15.7134 18.0287 16.4121 17.3771 16.6753 16.5059C16.8284 16.0836 17.0998 15.7948 17.5606 15.7948C18.1052 15.7948 18.4413 16.1673 18.4413 16.6864C18.4413 16.9004 18.3923 17.1336 18.3157 17.3337C17.7736 18.8455 16.3113 19.865 14.348 19.9461L14.0878 20.9823C14.01 21.2914 13.7904 21.4341 13.508 21.4341C13.1531 21.4341 12.9347 21.2103 12.9347 20.8597C12.9347 20.7744 12.9464 20.702 12.9816 20.5998L13.1543 19.88C12.8046 19.8256 12.4741 19.7307 12.1629 19.5931L11.8174 20.9823C11.7396 21.2914 11.5254 21.4341 11.2355 21.4341C10.8966 21.4341 10.6664 21.2061 10.6664 20.8555C10.6664 20.7617 10.6781 20.6776 10.7016 20.5902L11.1047 18.9884C9.85171 18.0282 9.14062 16.3632 9.14062 14.1969ZM11.0627 14.199C11.0627 15.242 11.2655 16.1185 11.6517 16.7785L13.2895 10.2619C11.8957 10.6402 11.0627 12.1008 11.0627 14.199ZM12.5822 17.8822C12.8796 18.0688 13.1866 18.2009 13.5598 18.2553L15.4917 10.5401C15.2081 10.3569 14.8798 10.2343 14.528 10.1874L12.5822 17.8822Z" fill="white"/>
</svg>
