<svg width="28" height="28" viewBox="0 0 28 28" fill="none" xmlns="http://www.w3.org/2000/svg">
<path d="M14.105 26.2301C20.7369 26.2301 26.2121 20.7549 26.2121 14.123C26.2121 7.50291 20.7273 2.01807 14.0954 2.01807C7.47523 2.01807 2 7.50291 2 14.123C2 20.7549 7.48484 26.2301 14.105 26.2301Z" fill="black"/>
<path d="M11.1322 21.0481C10.7893 21.0481 10.5816 20.7978 10.5816 20.4155V18.7287H10.333C8.65014 18.7287 7.62897 17.7212 7.62897 15.9856V11.4503C7.62897 9.73604 8.62694 8.72424 10.3646 8.72424H17.8517C19.5894 8.72424 20.5873 9.73604 20.5873 11.4503V15.9856C20.5873 17.7212 19.5894 18.7287 17.8517 18.7287H13.9976L11.8456 20.6689C11.5538 20.9405 11.3771 21.0481 11.1322 21.0481Z" fill="white"/>
</svg>
