<svg width="28" height="28" viewBox="0 0 28 28" fill="none" xmlns="http://www.w3.org/2000/svg">
<path d="M14.105 26.21C20.7369 26.21 26.2121 20.7273 26.2121 14.105C26.2121 7.47312 20.7273 2 14.0954 2C7.47523 2 2 7.47312 2 14.105C2 20.7273 7.48484 26.21 14.105 26.21Z" fill="black"/>
<path d="M12.9369 19.7248C12.0873 19.7248 11.642 19.2409 11.642 18.5424V15.0057L10.6852 15.4107C10.5756 15.448 10.4755 15.4735 10.3679 15.4735C10.0365 15.4735 9.81055 15.2316 9.81055 14.9023C9.81055 14.6391 9.93196 14.4655 10.2081 14.3471L11.642 13.7663V12.6622L10.6852 13.0555C10.5756 13.1044 10.4755 13.13 10.3679 13.13C10.0365 13.13 9.81055 12.8977 9.81055 12.5663C9.81055 12.2956 9.93196 12.1198 10.2081 12.0111L11.642 11.409V9.31508C11.642 8.73852 11.9982 8.36938 12.5429 8.36938C13.0705 8.36938 13.4288 8.73852 13.4288 9.31508V10.7174L15.41 9.91039C15.5101 9.86352 15.6219 9.82836 15.7273 9.82836C16.0608 9.82836 16.2772 10.0799 16.2772 10.4091C16.2772 10.6702 16.1558 10.8364 15.8893 10.9623L13.4288 11.9567V13.0609L15.41 12.2464C15.5101 12.207 15.6219 12.1815 15.7273 12.1815C16.0608 12.1815 16.2772 12.4234 16.2772 12.7548C16.2772 13.0062 16.1558 13.1916 15.8893 13.2983L13.4288 14.3023V17.9553C15.2077 17.9553 16.4471 16.5545 16.6571 15.0022C16.7602 14.4123 17.0752 14.1495 17.5337 14.1495C18.0559 14.1495 18.3919 14.5144 18.3919 15.0636C18.3919 17.2348 16.3836 19.7248 12.9369 19.7248Z" fill="white"/>
</svg>
