<svg width="28" height="28" viewBox="0 0 28 28" fill="none" xmlns="http://www.w3.org/2000/svg">
<path d="M14.105 26.21C20.7369 26.21 26.2121 20.7273 26.2121 14.105C26.2121 7.47312 20.7273 2 14.0954 2C7.47523 2 2 7.47312 2 14.105C2 20.7273 7.48484 26.21 14.105 26.21Z" fill="black"/>
<path d="M10.112 19.7956C9.6343 19.7956 9.30664 19.4743 9.30664 19.0051C9.30664 18.5551 9.65352 18.2359 10.1237 18.2359H11.6455C10.2786 17.3192 9.36289 15.6287 9.36289 13.6515C9.36289 11.2934 10.5716 9.4953 12.5525 8.83553V7.8092C12.5525 7.46818 12.7922 7.23053 13.1236 7.23053C13.4508 7.23053 13.7002 7.46818 13.7002 7.8092V8.61803C13.8825 8.59881 14.0862 8.5892 14.2611 8.5892C14.4242 8.5892 14.5798 8.5892 14.7354 8.61053V7.8092C14.7354 7.46818 14.9731 7.23053 15.3045 7.23053C15.6338 7.23053 15.8714 7.46818 15.8714 7.8092V8.86647C17.7802 9.52717 18.9066 11.3961 18.9162 13.3602C18.9162 13.8741 18.5703 14.2381 18.0598 14.2381C17.5311 14.2381 17.2086 13.8889 17.18 13.3822C17.1502 12.1948 16.6564 11.2744 15.8714 10.7232V13.5453C15.8714 13.8746 15.6338 14.1123 15.3045 14.1123C14.9731 14.1123 14.7354 13.8746 14.7354 13.5453V10.2842C14.5915 10.2629 14.4338 10.2394 14.2514 10.2394C14.0841 10.2394 13.8825 10.2587 13.7002 10.2821V13.5453C13.7002 13.8746 13.4508 14.1123 13.1236 14.1123C12.7964 14.1123 12.5525 13.8746 12.5525 13.5453V10.6901C11.6504 11.2679 11.1535 12.3542 11.1535 13.8863C11.1535 16.3543 13.1147 18.2148 15.6179 18.2148H17.5158C17.9998 18.2148 18.3413 18.5382 18.3413 18.9945C18.3413 19.4626 18.0094 19.7956 17.5158 19.7956H10.112Z" fill="white"/>
</svg>
