<svg width="28" height="28" viewBox="0 0 28 28" fill="none" xmlns="http://www.w3.org/2000/svg">
<path d="M14.105 26.21C20.7369 26.21 26.2121 20.7273 26.2121 14.105C26.2121 7.47312 20.7273 2 14.0954 2C7.47523 2 2 7.47312 2 14.105C2 20.7273 7.48484 26.21 14.105 26.21ZM14.105 23.8255C8.71085 23.8255 4.39412 19.4991 4.39412 14.105C4.39412 8.71085 8.70124 4.38452 14.0954 4.38452C19.4895 4.38452 23.8276 8.71085 23.8276 14.105C23.8276 19.4991 19.4991 23.8255 14.105 23.8255Z" fill="black"/>
<path d="M15.3188 19.898C15.7582 19.898 16.1527 19.577 16.1527 19.0918C16.1527 18.8288 16.0195 18.6043 15.8142 18.4065L12.7083 15.5054L12.993 15.4991C15.192 15.4379 16.2802 14.172 16.5157 12.7566H17.6161C17.9412 12.7566 18.1671 12.5115 18.1671 12.2035C18.1671 11.8784 17.9412 11.6429 17.6161 11.6429H16.5274C16.4496 11.0525 16.2342 10.5324 15.8866 10.1169H17.5659C17.8931 10.1169 18.1191 9.8621 18.1191 9.55624C18.1191 9.22905 17.8931 9.00311 17.5659 9.00311H15.1303C14.7195 8.93772 14.2833 8.90186 13.826 8.90186H10.7854C10.3544 8.90186 10.0244 9.22014 10.0244 9.65444C10.0244 10.0674 10.3544 10.4124 10.7854 10.4124H12.7683C13.7754 10.4124 14.4577 10.8666 14.6719 11.6429H10.702C10.3844 11.6429 10.1489 11.8784 10.1489 12.2035C10.1489 12.5115 10.3844 12.7566 10.702 12.7566H14.6911C14.4907 13.5905 13.7721 14.0138 12.6434 14.0138H11.0294C10.5004 14.0138 10.1109 14.3269 10.1109 14.8719C10.1109 15.2977 10.2921 15.4958 10.5876 15.7817L14.5409 19.5289C14.8261 19.8045 15.041 19.898 15.3188 19.898Z" fill="black"/>
</svg>
