<svg width="28" height="28" viewBox="0 0 28 28" fill="none" xmlns="http://www.w3.org/2000/svg">
<path d="M14.105 26.21C20.7369 26.21 26.2121 20.7273 26.2121 14.105C26.2121 7.47312 20.7273 2 14.0954 2C7.47523 2 2 7.47312 2 14.105C2 20.7273 7.48484 26.21 14.105 26.21ZM14.105 23.8255C8.71085 23.8255 4.39412 19.4991 4.39412 14.105C4.39412 8.71085 8.70124 4.38452 14.0954 4.38452C19.4895 4.38452 23.8276 8.71085 23.8276 14.105C23.8276 19.4991 19.4991 23.8255 14.105 23.8255Z" fill="black"/>
<path d="M9.55762 15.1616C9.55762 15.4887 9.78355 15.7243 10.1011 15.7243H10.8589C10.6435 16.0461 10.5464 16.4361 10.5464 16.7675C10.5464 18.5469 12.1498 19.613 14.1328 19.613C15.4355 19.613 16.6505 19.1335 17.2557 18.0814C17.4167 17.8384 17.4999 17.5698 17.5095 17.2958C17.5191 16.8434 17.2064 16.5113 16.7157 16.5113C16.3922 16.5113 16.1494 16.637 15.9474 17.0152C15.6364 17.7064 14.9133 18.0615 14.1061 18.0615C13.1133 18.0615 12.2771 17.5956 12.2771 16.673C12.2771 16.3309 12.4507 15.9514 12.796 15.7243H18.0708C18.3884 15.7243 18.6143 15.4887 18.6143 15.1616C18.6143 14.8557 18.3863 14.6105 18.0708 14.6105H10.1011C9.78355 14.6105 9.55762 14.8557 9.55762 15.1616ZM9.57684 12.9317C9.57684 13.2376 9.80488 13.4827 10.1203 13.4827H18.09C18.4076 13.4827 18.6336 13.2376 18.6336 12.9317C18.6336 12.6045 18.4076 12.3786 18.09 12.3786H17.3323C17.5477 12.0472 17.6447 11.6572 17.6447 11.3258C17.6447 9.54641 16.0414 8.48022 14.0583 8.48022C12.7557 8.48022 11.5461 8.95765 10.9355 10.0215C10.7745 10.2645 10.6913 10.5235 10.6817 10.8071C10.6721 11.2498 10.9847 11.5819 11.4755 11.5819C11.7989 11.5819 12.0418 11.4563 12.2438 11.078C12.5665 10.3869 13.2778 10.0318 14.085 10.0318C15.0779 10.0318 15.9141 10.5073 15.9141 11.4202C15.9141 11.7624 15.7404 12.1419 15.3952 12.3786H10.1203C9.80277 12.3786 9.57684 12.6045 9.57684 12.9317Z" fill="black"/>
</svg>
