<svg width="28" height="28" viewBox="0 0 28 28" fill="none" xmlns="http://www.w3.org/2000/svg">
<path d="M4.70601 26.0136C6.13125 26.0136 9.56555 24.5143 11.6737 23.0129C11.8983 22.8597 12.075 22.8032 12.2623 22.8032C12.4104 22.8128 12.5501 22.8224 12.6813 22.8224C21.1432 22.8161 27.1329 18.1822 27.1329 11.9139C27.1329 5.87171 21.1022 1 13.5675 1C6.0307 1 0 5.87171 0 11.9139C0 15.6808 2.26852 19.0476 6.1125 21.1201C6.32414 21.2371 6.38484 21.4129 6.27633 21.6182C5.59055 22.749 4.44609 24.0254 3.98601 24.624C3.46992 25.2754 3.76781 26.0136 4.70601 26.0136Z" fill="black"/>
<path d="M13.5771 5.7616C14.2111 5.7616 14.6683 6.20737 14.6683 6.82331V12.5514L14.5481 15.0672L15.6647 13.6783L17.013 12.2845C17.1961 12.0695 17.4609 11.9664 17.7504 11.9664C18.3302 11.9664 18.7612 12.3815 18.7612 12.9529C18.7612 13.2433 18.6612 13.4732 18.4591 13.6816L14.4459 17.7559C14.182 18.0304 13.9237 18.159 13.5771 18.159C13.2497 18.159 12.9914 18.04 12.7158 17.7559L8.69506 13.6816C8.49303 13.4732 8.41217 13.2433 8.41217 12.9529C8.41217 12.3815 8.83147 11.9664 9.41131 11.9664C9.69537 11.9664 9.96982 12.0791 10.1487 12.2845L11.5109 13.6909L12.6061 15.0576L12.4859 12.5514V6.82331C12.4859 6.20737 12.9527 5.7616 13.5771 5.7616Z" fill="white"/>
</svg>
