<svg width="28" height="28" viewBox="0 0 28 28" fill="none" xmlns="http://www.w3.org/2000/svg">
<path d="M14.105 26.21C20.7369 26.21 26.2121 20.7273 26.2121 14.105C26.2121 7.47312 20.7273 2 14.0954 2C7.47523 2 2 7.47312 2 14.105C2 20.7273 7.48484 26.21 14.105 26.21ZM14.105 23.8255C8.71085 23.8255 4.39412 19.4991 4.39412 14.105C4.39412 8.71085 8.70124 4.38452 14.0954 4.38452C19.4895 4.38452 23.8276 8.71085 23.8276 14.105C23.8276 19.4991 19.4991 23.8255 14.105 23.8255Z" fill="black"/>
<path d="M14.1059 10.7921C16.0686 10.7921 16.6742 10.9691 16.6742 11.503V11.6776C16.6742 12.3315 16.8615 12.7407 17.6553 12.8227L19.7973 13.0487C20.6314 13.1328 21.1074 12.8776 21.1095 11.9996V11.9954C21.1095 9.60174 18.1048 8.33002 14.1059 8.33002C10.1166 8.33002 7.11194 9.60174 7.11194 11.9954C7.11194 12.0071 7.11194 11.9996 7.11194 11.9996C7.11194 12.8755 7.59968 13.1328 8.44343 13.0487L10.5662 12.8227C11.36 12.7407 11.5569 12.3315 11.5569 11.6776V11.4913C11.5569 11.0075 12.2895 10.7921 14.1059 10.7921ZM8.79898 16.4061H9.87077C10.2969 16.4061 10.5472 16.175 10.5472 15.7297V14.6269C10.5472 14.2126 10.2948 13.9602 9.87077 13.9602H8.79898C8.35155 13.9602 8.08952 14.2105 8.08952 14.6269V15.7297C8.08952 16.1792 8.34944 16.4061 8.79898 16.4061ZM11.9623 16.4061H13.1019C13.5301 16.4061 13.79 16.1792 13.79 15.7297V14.6269C13.79 14.2105 13.528 13.9602 13.1019 13.9602H11.9623C11.5149 13.9602 11.2817 14.2105 11.2817 14.6269V15.7297C11.2817 16.1792 11.5107 16.4061 11.9623 16.4061ZM15.1838 16.4061H16.2535C16.7051 16.4061 16.9555 16.1792 16.9555 15.7297V14.6269C16.9555 14.2105 16.703 13.9602 16.2535 13.9602H15.1838C14.7577 13.9602 14.4978 14.2105 14.4978 14.6269V15.7297C14.4978 16.1792 14.7556 16.4061 15.1838 16.4061ZM18.3589 16.4061H19.4382C19.8685 16.4061 20.1284 16.1792 20.1284 15.7297V14.6269C20.1284 14.2105 19.8664 13.9602 19.4382 13.9602H18.3589C17.9115 13.9602 17.6687 14.2105 17.6687 14.6269V15.7297C17.6687 16.1792 17.9094 16.4061 18.3589 16.4061ZM8.77554 19.5908H9.85905C10.2969 19.5908 10.5472 19.3426 10.5472 18.9048V17.8116C10.5472 17.3855 10.2948 17.1235 9.85905 17.1235H8.77554C8.34944 17.1235 8.08952 17.3855 8.08952 17.8116V18.9048C8.08952 19.3426 8.34734 19.5908 8.77554 19.5908ZM11.9506 19.5908H16.2887C16.7148 19.5908 16.9555 19.3405 16.9555 18.9048V17.8116C16.9555 17.3855 16.7126 17.1235 16.2887 17.1235H11.9506C11.5149 17.1235 11.2817 17.3855 11.2817 17.8116V18.9048C11.2817 19.3426 11.5107 19.5908 11.9506 19.5908ZM18.3706 19.5908H19.4499C19.8898 19.5908 20.1284 19.3426 20.1284 18.9048V17.8116C20.1284 17.3855 19.8877 17.1235 19.4499 17.1235H18.3706C17.9349 17.1235 17.6708 17.3855 17.6708 17.8116V18.9048C17.6708 19.3426 17.9307 19.5908 18.3706 19.5908Z" fill="black"/>
</svg>
