<svg width="28" height="28" viewBox="0 0 28 28" fill="none" xmlns="http://www.w3.org/2000/svg">
<path d="M6.84421 24.8972H21.0295C23.5685 24.8972 24.8737 23.5919 24.8737 21.0914V6.82921C24.8737 4.32656 23.5685 3.02344 21.0295 3.02344H6.84421C4.31484 3.02344 3 4.31695 3 6.82921V21.0914C3 23.6016 4.31484 24.8972 6.84421 24.8972Z" fill="black"/>
<path d="M13.9641 20.7881C13.6444 20.7881 13.4089 20.5601 13.4089 20.2266V19.3931C11.6778 19.2492 10.3766 18.3375 10.0304 17.0337C9.98258 16.8954 9.95703 16.7517 9.95703 16.6123C9.95703 16.1271 10.2901 15.792 10.7909 15.792C11.207 15.792 11.4964 16.0048 11.657 16.4498C11.852 17.1602 12.4257 17.7021 13.4089 17.8418V14.621L13.2151 14.5744C11.1826 14.1002 10.1302 13.1777 10.1302 11.5983C10.1302 9.88897 11.4943 8.71733 13.4089 8.53077V7.71561C13.4089 7.38209 13.6444 7.15405 13.9641 7.15405C14.2838 7.15405 14.5311 7.38209 14.5311 7.71561V8.53077C16.1623 8.70233 17.3865 9.60889 17.7113 10.8675C17.7432 11.0069 17.7783 11.1506 17.7783 11.2847C17.7783 11.753 17.4357 12.0776 16.9496 12.0776C16.5207 12.0776 16.2483 11.8369 16.0826 11.4356C15.845 10.7177 15.3064 10.2548 14.5311 10.1151V13.1641L14.7868 13.2204C16.9034 13.608 17.9719 14.5915 17.9719 16.2511C17.9719 18.1066 16.4998 19.2323 14.5311 19.4102V20.2266C14.5311 20.5601 14.2838 20.7881 13.9641 20.7881ZM13.4089 12.8742V10.1067C12.4716 10.2572 11.9066 10.815 11.9066 11.4825C11.9066 12.1341 12.3554 12.5723 13.3247 12.8508L13.4089 12.8742ZM14.5311 14.8875V17.8418C15.6519 17.7117 16.2073 17.1431 16.2073 16.3753C16.2073 15.6811 15.8246 15.2341 14.7519 14.9494L14.5311 14.8875Z" fill="white"/>
</svg>
