<svg width="34" height="28" viewBox="0 0 34 28" fill="none" xmlns="http://www.w3.org/2000/svg">
<path d="M7.49625 25.457C7.9882 25.457 8.35218 25.2268 8.93671 24.6859L12.2562 21.6282C11.6105 21.0967 11.044 20.2119 11.044 18.3777V10.1758C11.044 6.50128 13.2996 4.2766 16.9837 4.2766H25.3957L25.3861 3.91683C25.1787 1.57448 23.6177 0.00744629 20.8413 0.00744629H4.57125C1.76953 0.00744629 0 1.64456 0 4.50229V16.2273C0 19.0384 1.74422 20.7892 4.49531 20.7892H6.37945V24.1942C6.37945 24.9554 6.79781 25.457 7.49625 25.457Z" fill="black"/>
<path d="M27.1509 27.1313C27.859 27.1313 28.2656 26.6394 28.2656 25.8685V22.4731H29.4909C32.242 22.4731 33.9862 20.7223 33.9862 17.8995V10.475C33.9862 7.62475 32.2146 5.98975 29.4129 5.98975H17.3187C14.4145 5.98975 12.757 7.61842 12.757 10.5205V17.8995C12.757 20.7434 14.4187 22.4731 17.3187 22.4731H21.404L25.7083 26.3699C26.295 26.8991 26.6568 27.1313 27.1509 27.1313Z" fill="black"/>
<path d="M23.4122 15.7635C22.8237 15.7635 22.4873 15.4335 22.4672 14.8374L22.3202 10.6163C22.2926 10.0002 22.7545 9.552 23.3983 9.552C24.0464 9.552 24.5158 10.0098 24.4978 10.6163L24.3391 14.8332C24.3115 15.4431 23.9847 15.7635 23.4122 15.7635ZM23.4004 19.5629C22.7322 19.5629 22.173 19.0857 22.173 18.4161C22.173 17.7411 22.7322 17.266 23.4004 17.266C24.0719 17.266 24.6258 17.7315 24.6258 18.4161C24.6258 19.0953 24.0665 19.5629 23.4004 19.5629Z" fill="white"/>
</svg>
