<svg width="28" height="28" viewBox="0 0 28 28" fill="none" xmlns="http://www.w3.org/2000/svg">
<path d="M14.105 26.21C20.7369 26.21 26.2121 20.7273 26.2121 14.105C26.2121 7.47312 20.7273 2 14.0954 2C7.47523 2 2 7.47312 2 14.105C2 20.7273 7.48484 26.21 14.105 26.21ZM14.105 23.8255C8.71085 23.8255 4.39412 19.4991 4.39412 14.105C4.39412 8.71085 8.70124 4.38452 14.0954 4.38452C19.4895 4.38452 23.8276 8.71085 23.8276 14.105C23.8276 19.4991 19.4991 23.8255 14.105 23.8255Z" fill="black"/>
<path d="M11.1694 21.0805H17.0309C17.3928 21.0805 17.7111 20.7547 17.7111 20.3991C17.7111 20.0277 17.4024 19.7115 17.0309 19.7115H14.7779V18.627C17.0982 18.347 18.7128 16.6027 18.7128 14.2133V12.7522C18.7128 12.3945 18.3966 12.0943 18.0348 12.0943C17.6654 12.0943 17.3546 12.3945 17.3546 12.7522V14.2091C17.3546 16.0655 15.9826 17.3942 14.0954 17.3942C12.2124 17.3942 10.8458 16.0655 10.8458 14.2091V12.7522C10.8458 12.3945 10.5275 12.0943 10.156 12.0943C9.79625 12.0943 9.48758 12.3945 9.48758 12.7522V14.2133C9.48758 16.6027 11.1022 18.3566 13.4321 18.627V19.7115H11.1694C10.8001 19.7115 10.4797 20.0277 10.4797 20.3991C10.4797 20.7643 10.8001 21.0805 11.1694 21.0805ZM14.0996 16.2528C15.2417 16.2528 16.0913 15.3685 16.0913 14.1479V9.27454C16.0913 8.06775 15.2417 7.18884 14.0996 7.18884C12.9554 7.18884 12.1016 8.06564 12.1016 9.27243V14.1479C12.1016 15.3685 12.9554 16.2528 14.0996 16.2528Z" fill="black"/>
</svg>
