<svg width="28" height="28" viewBox="0 0 28 28" fill="none" xmlns="http://www.w3.org/2000/svg">
<path d="M6.84421 24.8972H21.0295C23.5685 24.8972 24.8737 23.5919 24.8737 21.0914V6.82921C24.8737 4.32656 23.5685 3.02344 21.0295 3.02344H6.84421C4.31484 3.02344 3 4.31695 3 6.82921V21.0914C3 23.6016 4.31484 24.8972 6.84421 24.8972ZM6.97733 22.6013C5.88772 22.6013 5.29592 22.0371 5.29592 20.8985V7.01999C5.29592 5.88139 5.88772 5.31936 6.97733 5.31936H20.8964C21.9764 5.31936 22.5778 5.88139 22.5778 7.01999V20.8985C22.5778 22.0371 21.9764 22.6013 20.8964 22.6013H6.97733Z" fill="black"/>
<path d="M9.63449 18.5409C9.63449 19.0102 9.95253 19.3209 10.4292 19.3209H17.2733C17.7542 19.3209 18.0894 19.0038 18.0894 18.5325C18.0894 18.0612 17.7542 17.7558 17.2733 17.7558H12.5524C13.0079 17.3752 13.3257 16.732 13.429 16.0463C13.4546 15.8735 13.4684 15.7104 13.4726 15.5452H16.1553C16.5209 15.5452 16.7757 15.3 16.7757 14.944C16.7757 14.588 16.5209 14.3524 16.1553 14.3524H13.3712C13.2976 14.0135 13.2122 13.6884 13.1323 13.3751H16.1553C16.5209 13.3751 16.7757 13.1278 16.7757 12.7739C16.7757 12.4179 16.5209 12.1802 16.1553 12.1802H12.9256C12.916 12.0799 12.9042 11.9627 12.9042 11.8497C12.9042 10.6896 13.7412 9.89621 15.2101 9.89621C16.0477 9.89621 16.5064 10.0861 16.9076 10.1245C17.3783 10.1437 17.6431 9.87325 17.6431 9.44012C17.6431 9.11013 17.4865 8.84927 17.0827 8.67044C16.5446 8.43091 15.8576 8.33411 15.0542 8.33411C12.5979 8.33411 11.1096 9.72771 11.1096 11.857C11.1096 11.9718 11.1256 12.0675 11.1394 12.1802H10.2446C9.88855 12.1802 9.63379 12.4179 9.63379 12.7739C9.63379 13.1278 9.89066 13.3751 10.2446 13.3751H11.3407C11.4185 13.7002 11.506 14.0273 11.5796 14.3524H10.2446C9.88855 14.3524 9.63379 14.588 9.63379 14.944C9.63379 15.3 9.89066 15.5452 10.2446 15.5452H11.7354C11.7408 15.6677 11.7291 15.7786 11.7153 15.915C11.6044 16.826 11.0112 17.4511 10.2945 17.678C9.85035 17.8566 9.63449 18.1184 9.63449 18.5409Z" fill="black"/>
</svg>
