<svg width="28" height="28" viewBox="0 0 28 28" fill="none" xmlns="http://www.w3.org/2000/svg">
<path d="M5.57389 19.873H8.44499C9.13639 19.873 9.59342 19.4064 9.59342 18.7502V16.5822C9.59342 15.9142 9.13639 15.4572 8.44499 15.4572H5.57389C4.88249 15.4572 4.42546 15.9142 4.42546 16.5822V18.7502C4.42546 19.4064 4.88249 19.873 5.57389 19.873ZM1.31624 11.6165H26.4223V8.87616H1.31624V11.6165ZM3.84421 24.2889H23.8826C26.4237 24.2889 27.7268 22.9933 27.7268 20.4927V7.81749C27.7268 5.31695 26.4237 4.01172 23.8826 4.01172H3.84421C1.31484 4.01172 0 5.31695 0 7.81749V20.4927C0 22.9933 1.31484 24.2889 3.84421 24.2889ZM3.97733 21.993C2.88772 21.993 2.29592 21.4309 2.29592 20.2923V8.01999C2.29592 6.87928 2.88772 6.30764 3.97733 6.30764H23.7495C24.8199 6.30764 25.4309 6.87928 25.4309 8.01999V20.2923C25.4309 21.4309 24.8199 21.993 23.7495 21.993H3.97733Z" fill="black"/>
</svg>
