<svg width="28" height="28" viewBox="0 0 28 28" fill="none" xmlns="http://www.w3.org/2000/svg">
<path d="M14.105 26.21C20.7369 26.21 26.2121 20.7273 26.2121 14.105C26.2121 7.47312 20.7273 2 14.0954 2C7.47523 2 2 7.47312 2 14.105C2 20.7273 7.48484 26.21 14.105 26.21ZM14.105 23.8255C8.71085 23.8255 4.39412 19.4991 4.39412 14.105C4.39412 8.71085 8.70124 4.38452 14.0954 4.38452C19.4895 4.38452 23.8276 8.71085 23.8276 14.105C23.8276 19.4991 19.4991 23.8255 14.105 23.8255Z" fill="black"/>
<path d="M9.18066 14.2545C9.18066 14.5604 9.4066 14.8055 9.72418 14.8055H10.3539V18.9249C10.3539 19.4558 10.6957 19.7921 11.2127 19.7921C11.7297 19.7921 12.064 19.4558 12.064 18.9249V14.8055H13.5005L15.5445 19.0123C15.7627 19.5059 16.133 19.8038 16.7053 19.8038C17.3618 19.8038 17.8022 19.3803 17.8022 18.7238V14.8152H18.4659C18.7739 14.8152 19.0095 14.5604 19.0095 14.2545C19.0095 13.9273 18.7739 13.7014 18.4659 13.7014H17.8022V9.56583C17.8022 9.03497 17.468 8.69864 16.9413 8.69864C16.4264 8.69864 16.0922 9.03497 16.0922 9.56583V13.7014H14.6611L12.6117 9.48051C12.3935 8.98692 12.0232 8.68903 11.4508 8.68903C10.7943 8.68903 10.3539 9.11255 10.3539 9.75731V13.6918H9.72418C9.41621 13.6918 9.18066 13.9273 9.18066 14.2545ZM12.0555 13.6918V11.5934L13.0221 13.6918H12.0555ZM15.1416 14.8152H16.0964V16.9039L15.1416 14.8152Z" fill="black"/>
</svg>
