<svg width="28" height="28" viewBox="0 0 28 28" fill="none" xmlns="http://www.w3.org/2000/svg">
<path d="M3 14.0626C3 18.5722 4.03336 23.0221 6.44226 25.3878C7.56281 26.499 8.97093 27.1532 10.7466 27.1222C12.4941 27.0934 13.7662 25.9827 13.4775 24.3315L12.7563 20.0764C12.5198 18.6376 11.9086 18.1241 10.4173 18.1241H9.67968C8.39507 18.1241 8.1982 16.776 8.1982 14.0626C8.1982 11.3493 8.39507 10.0011 9.67968 10.0011H10.4173C11.8894 10.0011 12.5081 9.49724 12.7563 8.04669L13.4775 3.79373C13.7662 2.13294 12.4941 1.03185 10.7466 1.00091C8.97093 0.972087 7.56281 1.62623 6.44226 2.72568C4.03336 5.09357 3 9.54341 3 14.0626Z" fill="black"/>
<path d="M13.4845 15.0423H19.5909L21.8452 14.9272L19.5373 16.9731L18.3511 18.1656C18.168 18.3486 18.0649 18.6093 18.0649 18.887C18.0649 19.4434 18.4617 19.8285 19.001 19.8285C19.2733 19.8285 19.5213 19.7242 19.7065 19.5411L24.3984 14.8609C24.6504 14.6089 24.7812 14.3272 24.7812 14.0626C24.7812 13.7959 24.6504 13.5067 24.3984 13.2526L19.7065 8.58409C19.5213 8.39893 19.2733 8.29675 19.001 8.29675C18.4617 8.29675 18.0649 8.68182 18.0649 9.22862C18.0649 9.51596 18.168 9.76697 18.3511 9.95002L19.5373 11.1522L21.8452 13.1884L19.5909 13.0712H13.4845C12.8875 13.0712 12.5015 13.5383 12.5015 14.0626C12.5015 14.5848 12.8875 15.0423 13.4845 15.0423Z" fill="black"/>
</svg>
