<svg width="28" height="28" viewBox="0 0 28 28" fill="none" xmlns="http://www.w3.org/2000/svg">
<path d="M6.84421 24.8972H21.0295C23.5685 24.8972 24.8737 23.5919 24.8737 21.0914V6.82921C24.8737 4.32656 23.5685 3.02344 21.0295 3.02344H6.84421C4.31484 3.02344 3 4.31695 3 6.82921V21.0914C3 23.6016 4.31484 24.8972 6.84421 24.8972ZM6.97733 22.6013C5.88772 22.6013 5.29592 22.0371 5.29592 20.8985V7.01999C5.29592 5.88139 5.88772 5.31936 6.97733 5.31936H20.8964C21.9764 5.31936 22.5778 5.88139 22.5778 7.01999V20.8985C22.5778 22.0371 21.9764 22.6013 20.8964 22.6013H6.97733Z" fill="black"/>
<path d="M11.9853 19.7304C12.5107 19.7304 12.8778 19.3676 12.8778 18.8346V17.8387H15.4627C15.7983 17.8387 16.0104 17.6053 16.0104 17.2781C16.0104 16.9584 15.7983 16.725 15.4627 16.725H12.8778V15.5913H14.7635C16.9432 15.5913 18.3471 14.1551 18.3471 12.1467C18.3471 10.1437 16.9676 8.68823 14.8027 8.68823H11.9841C11.4343 8.68823 11.0949 9.05315 11.0949 9.62104V14.4787H10.0761C9.74043 14.4787 9.5166 14.7122 9.5166 15.034C9.5166 15.3558 9.74043 15.5988 10.0761 15.5988H11.0949V16.725H10.0857C9.75004 16.725 9.53793 16.9584 9.53793 17.2781C9.53793 17.6053 9.75215 17.8387 10.0857 17.8387H11.0949V18.8346C11.0949 19.3676 11.4619 19.7304 11.9853 19.7304ZM12.8874 14.0684V10.2632H14.4614C15.8339 10.2632 16.5525 10.998 16.5525 12.1647C16.5525 13.3411 15.8243 14.0876 14.4593 14.0876L12.8874 14.0684Z" fill="black"/>
</svg>
