<svg width="28" height="28" viewBox="0 0 28 28" fill="none" xmlns="http://www.w3.org/2000/svg">
<path d="M12.2445 21.6978C14.5615 21.6978 16.2516 20.6344 17.0489 18.9983H17.1202V20.6743C17.156 21.4505 17.6707 21.9282 18.4446 21.9282C19.2405 21.9282 19.7561 21.4126 19.7561 20.5709V3.39569C19.7561 2.51562 19.2213 2 18.3944 2C17.5676 2 17.0273 2.51562 17.0273 3.39569V10.5704H16.9699C16.2504 8.91219 14.5615 7.85938 12.2445 7.85938C8.89734 7.85938 6 10.4321 6 14.7723C6 19.1145 8.89734 21.6978 12.2445 21.6978ZM12.9527 19.3869C10.5839 19.3869 8.79912 17.5899 8.79912 14.7723C8.79912 11.9579 10.5839 10.1567 12.9527 10.1567C15.2522 10.1567 17.0508 12.054 17.0508 14.7723C17.0508 17.4842 15.2543 19.3869 12.9527 19.3869ZM11.9107 5.02461C11.9107 5.42211 12.2304 5.75141 12.6279 5.75141H21.5304C21.9183 5.75141 22.2476 5.42211 22.2476 5.02461C22.2476 4.63672 21.9183 4.30742 21.5304 4.30742H12.6279C12.2304 4.30742 11.9107 4.63672 11.9107 5.02461ZM7.15359 24.1475C7.15359 24.5546 7.48289 24.8935 7.89 24.8935H19.7081C20.1152 24.8935 20.4445 24.5546 20.4445 24.1475C20.4445 23.75 20.1152 23.4111 19.7081 23.4111H7.89C7.48289 23.4111 7.15359 23.75 7.15359 24.1475Z" fill="black"/>
</svg>
