<svg width="28" height="28" viewBox="0 0 28 28" fill="none" xmlns="http://www.w3.org/2000/svg">
<path d="M6.84421 24.8972H21.0295C23.5685 24.8972 24.8737 23.5919 24.8737 21.0914V6.82921C24.8737 4.32656 23.5685 3.02344 21.0295 3.02344H6.84421C4.31484 3.02344 3 4.31695 3 6.82921V21.0914C3 23.6016 4.31484 24.8972 6.84421 24.8972Z" fill="black"/>
<path d="M14.1413 21.0466C13.8099 21.0466 13.5605 20.809 13.5605 20.4584V19.676C10.9221 19.3861 9.26465 17.2973 9.26465 13.9819C9.26465 10.7135 10.9329 8.58354 13.5605 8.29666V7.48596C13.5605 7.13533 13.8099 6.90729 14.1413 6.90729C14.4685 6.90729 14.7179 7.13533 14.7179 7.48596V8.27744C16.4056 8.44479 17.7945 9.42424 18.3155 10.8087C18.3805 11.0121 18.4294 11.2081 18.4294 11.4253C18.4294 11.9306 18.0922 12.2691 17.6005 12.2691C17.1183 12.2691 16.9065 12.0818 16.7066 11.6161C16.4108 10.7492 15.6535 10.1187 14.7179 9.97032V13.5598H17.7165C18.2951 13.5598 18.6706 13.913 18.6706 14.4898V15.0211C18.6706 17.7105 17.2721 19.4991 14.7179 19.6856V20.4584C14.7179 20.809 14.4685 21.0466 14.1413 21.0466ZM13.5605 17.9967V9.98954C12.087 10.3062 11.1825 11.7902 11.1825 13.9734C11.1825 16.1791 12.0816 17.6716 13.5605 17.9967ZM14.7179 18.0394C16.0297 17.8399 16.7944 16.8225 16.7944 15.3687V15.1287H14.7179V18.0394Z" fill="white"/>
</svg>
