<svg width="28" height="28" viewBox="0 0 28 28" fill="none" xmlns="http://www.w3.org/2000/svg">
<path d="M14.0003 1C13.3232 1 12.7994 1.33234 12.2652 2.21687L10.1437 5.6882H6.50218C2.97625 5.6882 1 7.70289 1 11.1904V20.2808C1 23.7683 2.97625 25.783 6.50218 25.783H21.4504C24.9784 25.783 26.9547 23.7587 26.9547 20.2808V11.1904C26.9547 7.71249 24.9784 5.6882 21.4504 5.6882H17.8443L15.7312 2.22109C15.1907 1.32812 14.6753 1 14.0003 1ZM14.0003 3.32264L15.9869 6.99905C16.3947 7.77975 16.716 7.98412 17.5797 7.98412H21.3871C23.5928 7.98412 24.6588 9.09928 24.6588 11.2558V20.2059C24.6588 22.3623 23.5928 23.4871 21.3871 23.4871H6.56757C4.35225 23.4871 3.29592 22.3623 3.29592 20.2059V11.2558C3.29592 9.09928 4.35225 7.98412 6.56757 7.98412H10.4104C11.272 7.98412 11.587 7.77764 11.9969 6.99905L14.0003 3.32264Z" fill="black"/>
</svg>
