<svg width="31" height="28" viewBox="0 0 31 28" fill="none" xmlns="http://www.w3.org/2000/svg">
<path d="M6.29512 24.2498H18.7775L16.6969 22.1596H6.67808C4.83425 22.1596 3.7887 21.1804 3.7887 19.2691V9.32831L1.60669 7.13668C1.57505 7.67879 1.55817 8.21223 1.55817 8.77965V19.6673C1.55817 22.611 3.30075 24.2498 6.29512 24.2498ZM18.4864 4.672H6.03941L8.11995 6.75043H18.1034C19.9355 6.75043 20.9907 7.72965 20.9907 9.6527V18.9433C20.9907 19.1803 20.9619 19.3478 20.9042 19.5367L22.8992 21.5317C23.105 21.0065 23.2233 20.365 23.2233 19.7247V9.3145C23.2233 6.37825 21.4787 4.672 18.4864 4.672ZM22.8261 11.1323V13.6204L28.3358 9.10659C28.4349 9.02878 28.5031 8.9744 28.6044 8.9744C28.7344 8.9744 28.7951 9.08105 28.7951 9.23667V19.7399C28.7951 19.8935 28.7344 19.9926 28.6044 19.9926C28.5031 19.9926 28.4349 19.9361 28.3358 19.8679L22.8261 15.3562V17.8422L27.4548 21.7654C27.9994 22.2196 28.5615 22.5313 29.1115 22.5313C30.185 22.5313 30.9111 21.7527 30.9111 20.6038V8.37278C30.9111 7.22176 30.185 6.44317 29.1115 6.44317C28.5594 6.44317 27.9994 6.75489 27.4548 7.2091L22.8261 11.1323Z" fill="black"/>
<path d="M23.3094 26.6627C23.6736 27.0227 24.2764 27.0248 24.6289 26.6627C24.9793 26.2888 24.9931 25.7052 24.6289 25.3431L1.59404 2.32C1.23193 1.95789 0.627011 1.94828 0.262793 2.32C-0.0875976 2.6725 -0.0875976 3.28914 0.262793 3.63953L23.3094 26.6627Z" fill="black"/>
</svg>
