<svg width="28" height="28" viewBox="0 0 28 28" fill="none" xmlns="http://www.w3.org/2000/svg">
<path d="M14.105 26.21C20.7369 26.21 26.2121 20.7273 26.2121 14.105C26.2121 7.47312 20.7273 2 14.0954 2C7.47523 2 2 7.47312 2 14.105C2 20.7273 7.48484 26.21 14.105 26.21ZM14.105 23.8255C8.71085 23.8255 4.39412 19.4991 4.39412 14.105C4.39412 8.71085 8.70124 4.38452 14.0954 4.38452C19.4895 4.38452 23.8276 8.71085 23.8276 14.105C23.8276 19.4991 19.4991 23.8255 14.105 23.8255Z" fill="black"/>
<path d="M14.2531 20.8609C14.5685 20.8609 14.8041 20.6349 14.8041 20.3077V19.5373H15.0302C17.1952 19.5373 18.5759 18.3484 18.5759 16.4795C18.5759 15.2059 17.7928 14.2236 16.5994 13.8709C17.4506 13.4595 18.0558 12.5548 18.0558 11.5799C18.0558 9.97531 16.8455 8.84141 15.0028 8.84141H14.8041V7.97609C14.8041 7.66062 14.5685 7.43469 14.2531 7.43469C13.9451 7.43469 13.7095 7.66062 13.7095 7.97609V8.84141H11.9264C11.3157 8.84141 10.8994 9.25016 10.8994 9.88109V18.5115C10.8994 19.1307 11.3082 19.5373 11.9307 19.5373H13.7095V20.3077C13.7095 20.6349 13.9451 20.8609 14.2531 20.8609ZM12.6621 18.027V14.7556H13.7095V18.0174L12.6621 18.027ZM14.8041 18.0078V14.7652C16.1393 14.843 16.8059 15.3901 16.8059 16.3871C16.8059 17.4001 16.1393 17.9513 14.8041 18.0078ZM12.6525 13.3034L12.6621 10.3421H13.7095V13.3034H12.6525ZM14.8041 13.2533V10.3634C15.7927 10.4509 16.3259 10.9339 16.3259 11.7582C16.3259 12.59 15.8077 13.1157 14.8041 13.2533Z" fill="black"/>
</svg>
