<svg width="28" height="29" viewBox="0 0 28 29" fill="none" xmlns="http://www.w3.org/2000/svg">
<path d="M1 23.1008C1 23.8719 1.09047 24.466 1.29062 24.8853L9.36484 16.855L1.24914 9.76582C1.09586 10.1671 1 10.7047 1 11.4205V23.1008ZM2.29703 8.23019L12.7319 17.3659C13.2655 17.8368 13.6513 18.0925 14.1297 18.0925C14.5984 18.0925 14.9842 17.8368 15.5254 17.3659L25.9326 8.24613C25.442 7.87043 24.6744 7.6084 23.6608 7.6084H15.5085V12.6273C15.5085 13.3656 14.8776 13.9848 14.1297 13.9848C13.3722 13.9848 12.7413 13.3656 12.7413 12.6273V7.6084H4.48632C3.52351 7.6084 2.77492 7.87043 2.29703 8.23019ZM2.45781 26.341C2.96992 26.6764 3.73468 26.9129 4.78093 26.9129H23.44C24.4958 26.9129 25.2606 26.6764 25.7823 26.3218L17.4899 18.0946L16.6201 18.8706C15.7307 19.6194 14.9978 20.0401 14.1297 20.0401C13.2616 20.0401 12.5191 19.6194 11.6392 18.8706L10.7598 18.0946L2.45781 26.341ZM18.8891 16.855L26.9441 24.8661C27.1347 24.4468 27.2251 23.8623 27.2251 23.1008V11.4205C27.2251 10.7143 27.1293 10.1863 26.9856 9.78504L18.8891 16.855Z" fill="black"/>
<path d="M5.38939 2.85715L7.89626 5.55082C8.43298 6.10652 9.0386 5.96894 9.17805 5.25011L9.42087 4.00675C11.8504 4.41597 13.0466 5.85902 13.0466 7.63535V7.95504C13.0466 8.71605 13.4657 9.18409 14.1339 9.18409C14.8042 9.18409 15.2137 8.71605 15.2137 7.95504V7.63535C15.2137 5.86324 16.409 4.4223 18.828 4.00886L19.0666 5.25011C19.2081 5.96894 19.8116 6.10652 20.3387 5.55082L22.8552 2.85715C23.2822 2.41535 23.1587 1.85543 22.5955 1.59879L19.2414 0.113328C18.5366 -0.198624 18.0524 0.158094 18.194 0.881139L18.4473 2.1559C16.6656 2.50864 14.6868 3.61841 14.1339 4.93419C13.5747 3.61419 11.5874 2.5002 9.79938 2.15168L10.0506 0.881139C10.1943 0.158094 9.71008 -0.198624 8.99571 0.113328L5.64908 1.59879C5.08798 1.85543 4.96236 2.41535 5.38939 2.85715Z" fill="black"/>
</svg>
