<svg width="28" height="28" viewBox="0 0 28 28" fill="none" xmlns="http://www.w3.org/2000/svg">
<path d="M8.01578 27.2622C8.50023 27.2622 8.87382 27.0299 9.45835 26.489L13.7626 22.5944H21.4504C24.9784 22.5944 26.9547 20.5777 26.9547 17.0998V8.01138C26.9547 4.53349 24.9784 2.50708 21.4504 2.50708H6.50218C2.97625 2.50708 1 4.52388 1 8.01138V17.0998C1 20.5872 3.02476 22.5944 6.42836 22.5944H6.90109V25.9898C6.90109 26.7606 7.30984 27.2622 8.01578 27.2622Z" fill="black"/>
<path d="M10.1345 18.1923C9.46774 18.1923 9.06134 17.7934 9.06134 17.1873C9.06134 16.983 9.09321 16.7629 9.21134 16.4385L12.3112 7.96466C12.6025 7.13357 13.1523 6.73279 13.9731 6.73279C14.8023 6.73279 15.3723 7.13568 15.6594 7.96466L18.7614 16.4385C18.8795 16.7629 18.9114 16.983 18.9114 17.1873C18.9114 17.7934 18.5029 18.1923 17.8457 18.1923C17.3013 18.1923 16.9396 17.9256 16.7341 17.2459L15.9902 15.0508H11.9805L11.2387 17.2459C11.0331 17.9256 10.6715 18.1923 10.1345 18.1923ZM12.4715 13.3855H15.4991L14.0498 8.97669H13.923L12.4715 13.3855Z" fill="white"/>
</svg>
