<svg width="28" height="28" viewBox="0 0 28 28" fill="none" xmlns="http://www.w3.org/2000/svg">
<path d="M14.105 26.2301C20.7369 26.2301 26.2121 20.7549 26.2121 14.123C26.2121 7.50291 20.7273 2.01807 14.0954 2.01807C7.47523 2.01807 2 7.50291 2 14.123C2 20.7549 7.48484 26.2301 14.105 26.2301Z" fill="black"/>
<path d="M10.5562 20.094C9.21508 20.094 8.51758 19.4136 8.51758 18.1034V11.6963C8.51758 10.3765 9.21508 9.70998 10.5562 9.70998H11.4405C11.4639 8.32131 12.6376 7.17944 14.1053 7.17944C15.5729 7.17944 16.7488 8.32131 16.7701 9.70998H17.6544C18.9955 9.70998 19.6951 10.3862 19.6951 11.6963V18.1034C19.6951 19.4136 19.0072 20.094 17.822 20.094H10.5562ZM12.7452 9.70998H15.4654C15.4365 8.91498 14.9228 8.39607 14.1053 8.39607C13.2899 8.39607 12.7762 8.91498 12.7452 9.70998Z" fill="white"/>
</svg>
