<svg width="28" height="28" viewBox="0 0 28 28" fill="none" xmlns="http://www.w3.org/2000/svg">
<path d="M8.01578 27.2622C8.50023 27.2622 8.87382 27.0299 9.45835 26.489L13.7626 22.5944H21.4504C24.9784 22.5944 26.9547 20.5777 26.9547 17.0998V8.01138C26.9547 4.53349 24.9784 2.50708 21.4504 2.50708H6.50218C2.97625 2.50708 1 4.52388 1 8.01138V17.0998C1 20.5872 3.02476 22.5944 6.42836 22.5944H6.90109V25.9898C6.90109 26.7606 7.30984 27.2622 8.01578 27.2622Z" fill="black"/>
<path d="M11.4299 17.1362C10.8965 17.5281 10.2693 17.1714 10.5185 16.4676L11.5295 13.4694L8.90642 11.6017C8.35892 11.2129 8.57221 10.5348 9.23431 10.5348L12.4605 10.539L13.4247 7.55167C13.6387 6.91816 14.3533 6.91816 14.5577 7.55167L15.5123 10.539L18.7384 10.5348C19.4048 10.5348 19.6054 11.2087 19.0642 11.6017L16.4624 13.4673L17.4618 16.4676C17.7034 17.1798 17.0837 17.526 16.5428 17.1362L13.9912 15.2601L11.4299 17.1362Z" fill="white"/>
</svg>
