<svg width="28" height="28" viewBox="0 0 28 28" fill="none" xmlns="http://www.w3.org/2000/svg">
<path d="M6.84421 24.8972H21.0295C23.5685 24.8972 24.8737 23.5919 24.8737 21.0914V6.82921C24.8737 4.32656 23.5685 3.02344 21.0295 3.02344H6.84421C4.31484 3.02344 3 4.31695 3 6.82921V21.0914C3 23.6016 4.31484 24.8972 6.84421 24.8972Z" fill="black"/>
<path d="M9.07453 18.7523C7.84125 18.7523 7.11047 18.0724 7.11047 16.856V11.0728C7.11047 9.85101 7.8818 9.14905 9.07453 9.14905H15.2836C16.5361 9.14905 17.1954 9.85101 17.1954 11.0728V16.8286C17.1954 18.0429 16.4763 18.7523 15.2355 18.7523H9.07453ZM17.8814 15.6858V12.2388L20.0639 10.3676C20.2927 10.1878 20.5568 10.0558 20.7909 10.0558C21.2564 10.0558 21.5834 10.384 21.5834 10.8867V17.0262C21.5834 17.5406 21.2564 17.8784 20.7909 17.8784C20.5568 17.8784 20.3002 17.7464 20.0639 17.5495L17.8814 15.6858Z" fill="white"/>
</svg>
