<svg width="28" height="28" viewBox="0 0 28 28" fill="none" xmlns="http://www.w3.org/2000/svg">
<path d="M14.105 26.21C20.7369 26.21 26.2121 20.7273 26.2121 14.105C26.2121 7.47312 20.7273 2 14.0954 2C7.47523 2 2 7.47312 2 14.105C2 20.7273 7.48484 26.21 14.105 26.21ZM14.105 23.8255C8.71085 23.8255 4.39412 19.4991 4.39412 14.105C4.39412 8.71085 8.70124 4.38452 14.0954 4.38452C19.4895 4.38452 23.8276 8.71085 23.8276 14.105C23.8276 19.4991 19.4991 23.8255 14.105 23.8255Z" fill="black"/>
<path d="M14.091 19.7802C14.6101 19.7802 14.9835 19.4417 14.9835 18.8621V16.3848L16.8828 15.5595C17.1439 15.4391 17.2707 15.2633 17.2707 15.016C17.2707 14.7005 17.0427 14.4725 16.7293 14.4725C16.6323 14.4725 16.5332 14.5034 16.4457 14.5365L14.9835 15.189V14.1221L16.8828 13.2873C17.1439 13.1785 17.2707 13.0006 17.2707 12.7534C17.2707 12.4379 17.0523 12.2002 16.7293 12.2002C16.6419 12.2002 16.5428 12.2333 16.4553 12.2642L14.9835 12.9284V10.4309H17.6101C18.0964 10.4309 18.437 10.1021 18.437 9.62541C18.437 9.14869 18.0964 8.82947 17.6101 8.82947H10.5643C10.078 8.82947 9.73535 9.14869 9.73535 9.62541C9.73535 10.1021 10.078 10.4309 10.5643 10.4309H13.1889V13.633L11.315 14.4465C11.0443 14.5766 10.9272 14.7427 10.9272 14.9804C10.9272 15.2959 11.1456 15.5335 11.4686 15.5335C11.5581 15.5335 11.6551 15.5005 11.7425 15.4695L13.1889 14.8191V15.8956L11.315 16.7166C11.0443 16.8371 10.9272 17.0054 10.9272 17.2527C10.9272 17.566 11.1456 17.7962 11.4686 17.7962C11.5581 17.7962 11.6551 17.7727 11.7425 17.7322L13.1889 17.0893V18.8621C13.1889 19.4417 13.5622 19.7802 14.091 19.7802Z" fill="black"/>
</svg>
