<svg width="31" height="28" viewBox="0 0 31 28" fill="none" xmlns="http://www.w3.org/2000/svg">
<path d="M3.72168 19.5599C3.72168 19.7348 3.82082 19.8222 3.98606 19.8222H12.7641C11.6084 18.584 10.9346 16.4533 10.9346 13.7586C10.9346 11.0757 11.6084 8.95463 12.7407 7.72815H3.98606C3.82082 7.72815 3.72168 7.81557 3.72168 7.99041V19.5599ZM12.421 13.7586C12.421 17.2715 13.6317 19.5562 15.4196 19.5562C17.2702 19.5562 18.5354 17.2715 18.5354 13.7586C18.5354 10.2458 17.2702 7.97494 15.4196 7.97494C13.6317 7.97494 12.421 10.2458 12.421 13.7586ZM18.1475 19.8222H26.9468C27.1121 19.8222 27.2112 19.7348 27.2112 19.5599V7.99041C27.2112 7.81557 27.1121 7.72815 26.9468 7.72815H18.1592C19.3266 8.95463 20.01 11.0757 20.01 13.7586C20.01 16.4533 19.3149 18.584 18.1475 19.8222Z" fill="black"/>
<path d="M0 22.5412C0 23.1459 0.402421 23.5483 1.00711 23.5483H29.9358C30.5405 23.5483 30.9333 23.1459 30.9333 22.5412V4.99957C30.9333 4.397 30.5405 4.00208 29.9358 4.00208H1.00711C0.402421 4.00208 0 4.397 0 4.99957V22.5412ZM2.4335 20.4569V7.09348C2.4335 6.65637 2.67351 6.43558 3.07546 6.43558H27.8578C28.2694 6.43558 28.4998 6.65637 28.4998 7.09348V20.4569C28.4998 20.8844 28.2694 21.1148 27.8578 21.1148H3.07546C2.67351 21.1148 2.4335 20.8844 2.4335 20.4569Z" fill="black"/>
</svg>
