<svg width="28" height="28" viewBox="0 0 28 28" fill="none" xmlns="http://www.w3.org/2000/svg">
<path d="M14.328 24.8128C15.2121 24.8128 15.7544 24.2238 15.7544 23.3133V15.9808L22.35 5.30271C22.5679 4.95935 22.6582 4.65983 22.6582 4.31975C22.6582 3.5632 22.046 3 21.2266 3C20.6634 3 20.232 3.2475 19.9195 3.83483L14.3897 13.3587H14.3013L8.77357 3.83694C8.44521 3.23273 8.02849 3 7.44631 3C6.62601 3 6 3.56742 6 4.32819C6 4.66615 6.09562 4.96568 6.30398 5.30693L12.9113 15.9808V23.3133C12.9113 24.2238 13.4557 24.8128 14.328 24.8128ZM8.35078 16.1344H20.3918C20.8371 16.1344 21.1195 15.8252 21.1195 15.398C21.1195 14.9707 20.8371 14.6615 20.3918 14.6615H8.35078C7.90758 14.6615 7.62516 14.9707 7.62516 15.398C7.62516 15.8252 7.90758 16.1344 8.35078 16.1344ZM8.35078 20.0758H20.3918C20.8371 20.0758 21.1195 19.7667 21.1195 19.3394C21.1195 18.9122 20.8467 18.5934 20.3918 18.5934H8.35078C7.90758 18.5934 7.62516 18.9122 7.62516 19.3394C7.62516 19.7571 7.90758 20.0758 8.35078 20.0758Z" fill="black"/>
</svg>
