<svg width="28" height="28" viewBox="0 0 28 28" fill="none" xmlns="http://www.w3.org/2000/svg">
<path d="M6.84421 24.8972H21.0295C23.5685 24.8972 24.8737 23.5919 24.8737 21.0914V6.82921C24.8737 4.32656 23.5685 3.02344 21.0295 3.02344H6.84421C4.31484 3.02344 3 4.31695 3 6.82921V21.0914C3 23.6016 4.31484 24.8972 6.84421 24.8972Z" fill="black"/>
<path d="M13.964 19.8476C13.413 19.8476 13.0216 19.4911 13.0216 18.885V17.0557L11.5296 17.7241C11.4305 17.7647 11.3238 17.7881 11.2322 17.7881C10.8975 17.7881 10.6652 17.5462 10.6652 17.2169C10.6652 16.9676 10.7962 16.7876 11.0691 16.6671L13.0216 15.8088V14.7026L11.5296 15.3689C11.4305 15.4094 11.3238 15.4425 11.2322 15.4425C10.8975 15.4425 10.6652 15.191 10.6652 14.8659C10.6652 14.6144 10.7962 14.4441 11.0691 14.3023L13.0216 13.4653V10.1431H10.2928C9.78632 10.1431 9.42773 9.79619 9.42773 9.29931C9.42773 8.80455 9.78632 8.46729 10.2928 8.46729H17.6236C18.13 8.46729 18.4886 8.80455 18.4886 9.29931C18.4886 9.79619 18.13 10.1431 17.6236 10.1431H14.8947V12.7247L16.4219 12.037C16.5307 12.0061 16.6181 11.971 16.7097 11.971C17.0465 11.971 17.2767 12.2245 17.2767 12.5517C17.2767 12.8011 17.1361 12.9907 16.875 13.1016L14.8947 13.9737V15.0724L16.4123 14.3998C16.5114 14.3592 16.6181 14.3262 16.7193 14.3262C17.0465 14.3262 17.2767 14.568 17.2767 14.8973C17.2767 15.1563 17.1361 15.3363 16.875 15.4664L14.8947 16.3193V18.885C14.8947 19.4911 14.5054 19.8476 13.964 19.8476Z" fill="white"/>
</svg>
