<svg width="28" height="28" viewBox="0 0 28 28" fill="none" xmlns="http://www.w3.org/2000/svg">
<path d="M14.105 26.21C20.7369 26.21 26.2121 20.7273 26.2121 14.105C26.2121 7.47312 20.7273 2 14.0954 2C7.47523 2 2 7.47312 2 14.105C2 20.7273 7.48484 26.21 14.105 26.21ZM14.105 23.8255C8.71085 23.8255 4.39412 19.4991 4.39412 14.105C4.39412 8.71085 8.70124 4.38452 14.0954 4.38452C19.4895 4.38452 23.8276 8.71085 23.8276 14.105C23.8276 19.4991 19.4991 23.8255 14.105 23.8255Z" fill="black"/>
<path d="M9.07324 13.8992C9.07324 14.2051 9.31839 14.4598 9.62636 14.4598H10.2906L11.0059 18.9601C11.0847 19.4783 11.4688 19.7825 11.9561 19.7825C12.4433 19.7825 12.8295 19.4954 12.9137 18.9655L13.6334 14.4502H14.5552L15.2942 18.9655C15.3805 19.4954 15.7667 19.7825 16.2519 19.7825C16.7274 19.7825 17.1191 19.4783 17.1978 18.9601L17.8939 14.4502H18.5569C18.8724 14.4502 19.108 14.1955 19.108 13.8896C19.108 13.5624 18.8724 13.3365 18.5569 13.3365H18.073L18.6176 9.80631C18.6411 9.67225 18.6645 9.5553 18.6645 9.43272C18.6645 8.96561 18.3165 8.67944 17.8536 8.67944C17.4312 8.67944 17.0811 8.93046 17.0246 9.38702L16.5437 13.3365H15.6528L15.0216 9.49389C14.9471 8.98601 14.5435 8.68905 14.0816 8.68905C13.6004 8.68905 13.2277 8.98601 13.1436 9.5035L12.5199 13.3461H11.6504L11.1887 9.39663C11.1322 8.94007 10.7842 8.68905 10.3501 8.68905C9.87761 8.68905 9.51996 8.98694 9.51996 9.45194C9.51996 9.59467 9.553 9.71608 9.56683 9.84475L10.1115 13.3461H9.62636C9.31839 13.3461 9.07324 13.572 9.07324 13.8992ZM11.7838 14.4406H12.3706L12.027 16.8507L11.7838 14.4406ZM13.8191 13.3461L14.0954 11.3319L14.3867 13.3461H13.8191ZM15.8042 14.4406H16.4391L16.167 16.9084L15.8042 14.4406Z" fill="black"/>
</svg>
