<svg width="28" height="28" viewBox="0 0 28 28" fill="none" xmlns="http://www.w3.org/2000/svg">
<path d="M6.84421 24.8972H21.0295C23.5685 24.8972 24.8737 23.5919 24.8737 21.0914V6.82921C24.8737 4.32656 23.5685 3.02344 21.0295 3.02344H6.84421C4.31484 3.02344 3 4.31695 3 6.82921V21.0914C3 23.6016 4.31484 24.8972 6.84421 24.8972ZM6.97733 22.6013C5.88772 22.6013 5.29592 22.0371 5.29592 20.8985V7.01999C5.29592 5.88139 5.88772 5.31936 6.97733 5.31936H20.8964C21.9764 5.31936 22.5778 5.88139 22.5778 7.01999V20.8985C22.5778 22.0371 21.9764 22.6013 20.8964 22.6013H6.97733Z" fill="black"/>
<path d="M10.2646 18.1584C10.7392 18.1584 11.0734 17.8359 11.0734 17.3505V12.8871C11.0734 12.0916 11.4829 11.5659 12.1611 11.5659C12.755 11.5659 13.1762 12.0436 13.1762 12.7334V13.4362L10.8102 19.803C10.7654 19.9001 10.7441 20.0013 10.7441 20.108C10.7441 20.4042 10.9679 20.628 11.2738 20.628C11.5265 20.628 11.7076 20.4862 11.8089 20.2336L13.1868 16.5164V17.3885C13.1868 17.8528 13.5104 18.1584 13.9682 18.1584C14.4238 18.1584 14.7484 17.8359 14.7484 17.3505V12.8391C14.7484 12.0628 15.1558 11.5755 15.8169 11.5755C16.4685 11.5755 16.8566 12.0436 16.8566 12.8006V17.3505C16.8566 17.8359 17.1812 18.1584 17.6537 18.1584C18.1262 18.1584 18.4604 17.8359 18.4604 17.3505V12.5632C18.4604 11.0435 17.5963 10.1133 16.2643 10.1133C16.0642 10.1133 15.88 10.1484 15.7382 10.207L16.6309 8.06016C16.6661 7.97063 16.6991 7.86938 16.6991 7.76273C16.6991 7.46859 16.4657 7.25226 16.1577 7.25226C15.905 7.25226 15.7335 7.39406 15.6322 7.63711L14.2025 11.066C13.8702 10.3917 13.28 10.0816 12.5629 10.0816C11.9012 10.0816 11.342 10.3894 11.0031 11.0529V10.9312C11.0031 10.3999 10.6827 10.1105 10.2357 10.1105C9.77074 10.1105 9.44824 10.4372 9.44824 10.9235V17.3698C9.44824 17.8359 9.78035 18.1584 10.2646 18.1584Z" fill="black"/>
</svg>
