<svg width="28" height="28" viewBox="0 0 28 28" fill="none" xmlns="http://www.w3.org/2000/svg">
<path d="M14.105 26.21C20.7369 26.21 26.2121 20.7273 26.2121 14.105C26.2121 7.47312 20.7273 2 14.0954 2C7.47523 2 2 7.47312 2 14.105C2 20.7273 7.48484 26.21 14.105 26.21Z" fill="black"/>
<path d="M9.40137 19.1509V9.78476C9.40137 9.05445 9.83871 8.6436 10.5732 8.6436H12.82C14.8546 8.6436 15.7724 9.55063 15.7724 11.7198V15.9226C15.7724 16.3754 15.5038 16.6515 15.0808 16.6515C14.6694 16.6515 14.3816 16.3754 14.3816 15.9226V12.091C14.3816 10.8378 13.8749 10.4743 12.6688 10.4743H11.0823V19.1391C11.0823 19.673 10.761 20.0295 10.2589 20.0295C9.7527 20.0295 9.40137 19.6848 9.40137 19.1509ZM12.059 18.7721V12.6076C12.059 12.1569 12.3447 11.8883 12.7677 11.8883C13.1715 11.8883 13.4455 12.1569 13.4455 12.6076V18.0709H15.0857C16.3438 18.0709 16.7373 17.7824 16.7373 16.3789V9.4039C16.7373 8.86039 17.0619 8.52313 17.5778 8.52313C18.0915 8.52313 18.4108 8.87 18.4108 9.4039V16.5118C18.4108 18.9566 17.4864 19.8995 15.3955 19.8995H13.202C12.4717 19.8995 12.059 19.5066 12.059 18.7721Z" fill="white"/>
</svg>
