<svg width="28" height="28" viewBox="0 0 28 28" fill="none" xmlns="http://www.w3.org/2000/svg">
<path d="M6.84421 24.8972H21.0295C23.5685 24.8972 24.8737 23.5919 24.8737 21.0914V6.82921C24.8737 4.32656 23.5685 3.02344 21.0295 3.02344H6.84421C4.31484 3.02344 3 4.31695 3 6.82921V21.0914C3 23.6016 4.31484 24.8972 6.84421 24.8972ZM6.97733 22.6013C5.88772 22.6013 5.29592 22.0371 5.29592 20.8985V7.01999C5.29592 5.88139 5.88772 5.31936 6.97733 5.31936H20.8964C21.9764 5.31936 22.5778 5.88139 22.5778 7.01999V20.8985C22.5778 22.0371 21.9764 22.6013 20.8964 22.6013H6.97733Z" fill="black"/>
<path d="M11.1898 19.4866C13.0554 19.4866 14.0672 18.5651 14.39 16.5881L14.7472 14.3564H17.0858C17.5095 14.3564 17.7598 14.0934 17.7598 13.7175C17.7598 13.3181 17.5095 13.0498 17.0858 13.0498H14.959L15.2108 11.4583C15.3877 10.3954 15.8492 9.93603 16.8214 9.93603C17.1413 9.93603 17.284 9.96696 17.4652 9.99579C17.5791 10.015 17.6792 10.0225 17.8156 10.0183C18.2417 9.99931 18.4962 9.72345 18.4962 9.33603C18.4962 9.00369 18.3129 8.73744 17.9293 8.58205C17.6354 8.45127 17.2137 8.3833 16.6941 8.3833C14.8306 8.3833 13.8167 9.31658 13.494 11.2914L13.2125 13.0498H10.9962C10.5821 13.0498 10.3318 13.3181 10.3318 13.7175C10.3318 14.0934 10.5821 14.3564 10.9962 14.3564H13.0102L12.6828 16.3711C12.4983 17.4766 12.0347 17.9435 11.0625 17.9435C10.7447 17.9435 10.5999 17.9051 10.4187 17.8741C10.3069 17.8549 10.2047 17.8474 10.0683 17.8538C9.64223 17.8727 9.3877 18.1486 9.3877 18.5339C9.3877 18.878 9.57098 19.1325 9.95465 19.2879C10.2464 19.4325 10.6606 19.4866 11.1898 19.4866Z" fill="black"/>
</svg>
