<svg width="28" height="28" viewBox="0 0 28 28" fill="none" xmlns="http://www.w3.org/2000/svg">
<path d="M6.84421 24.8972H21.0295C23.5685 24.8972 24.8737 23.5919 24.8737 21.0914V6.82921C24.8737 4.32656 23.5685 3.02344 21.0295 3.02344H6.84421C4.31484 3.02344 3 4.31695 3 6.82921V21.0914C3 23.6016 4.31484 24.8972 6.84421 24.8972ZM6.97733 22.6013C5.88772 22.6013 5.29592 22.0371 5.29592 20.8985V7.01999C5.29592 5.88139 5.88772 5.31936 6.97733 5.31936H20.8964C21.9764 5.31936 22.5778 5.88139 22.5778 7.01999V20.8985C22.5778 22.0371 21.9764 22.6013 20.8964 22.6013H6.97733Z" fill="black"/>
<path d="M9.02832 14.0944C9.02832 14.4002 9.25426 14.6454 9.57184 14.6454H10.2016V18.7648C10.2016 19.2956 10.5433 19.632 11.0604 19.632C11.5774 19.632 11.9116 19.2956 11.9116 18.7648V14.6454H13.3481L15.39 18.8522C15.6199 19.3458 15.9806 19.6437 16.553 19.6437C17.2094 19.6437 17.6498 19.2202 17.6498 18.5637V14.655H18.3136C18.6216 14.655 18.8667 14.4002 18.8667 14.0944C18.8667 13.7672 18.6216 13.5412 18.3136 13.5412H17.6498V9.40572C17.6498 8.87486 17.3156 8.53854 16.7986 8.53854C16.2837 8.53854 15.9398 8.87486 15.9398 9.40572V13.5412H14.5184L12.4593 9.32041C12.2411 8.82682 11.8708 8.52893 11.2964 8.52893C10.6399 8.52893 10.2016 8.95244 10.2016 9.5972V13.5316H9.57184C9.26387 13.5316 9.02832 13.7672 9.02832 14.0944ZM11.9032 13.5316V11.4333L12.8697 13.5316H11.9032ZM14.9871 14.655H15.9441V16.7438L14.9871 14.655Z" fill="black"/>
</svg>
