<svg width="28" height="28" viewBox="0 0 28 28" fill="none" xmlns="http://www.w3.org/2000/svg">
<path d="M11.4508 24.2105H11.7241C18.1549 24.2105 21.8653 19.5054 21.8653 15.638C21.8653 14.865 21.4001 14.295 20.5474 14.295C19.7306 14.295 19.3268 14.7715 19.1866 15.5641C18.8009 18.6844 16.2998 21.5168 12.3633 21.5285V4.466C12.3633 3.54679 11.7733 3 10.9345 3C10.0978 3 9.5175 3.53718 9.5175 4.46178V22.3772C9.5175 23.5144 10.1756 24.2105 11.4508 24.2105ZM6.7118 11.5444C6.84188 11.5444 6.97945 11.5134 7.10953 11.4612L17.2279 7.37132C17.5999 7.22531 17.7522 6.98882 17.7522 6.64664C17.7522 6.2257 17.4593 5.91679 17.0383 5.91679C16.9083 5.91679 16.7707 5.94562 16.6502 6L6.52219 10.0898C6.15023 10.2337 6 10.4723 6 10.8166C6 11.228 6.29086 11.5444 6.7118 11.5444ZM6.7118 16.0423C6.84188 16.0423 6.97945 16.0038 7.10953 15.9591L17.2279 11.8692C17.5999 11.7232 17.7522 11.4888 17.7522 11.1445C17.7522 10.7236 17.4593 10.4147 17.0383 10.4147C16.9083 10.4147 16.7707 10.4435 16.6502 10.4979L6.52219 14.5877C6.15023 14.7337 6 14.9723 6 15.3145C6 15.7355 6.29086 16.0423 6.7118 16.0423Z" fill="black"/>
</svg>
