<svg width="28" height="28" viewBox="0 0 28 28" fill="none" xmlns="http://www.w3.org/2000/svg">
<path d="M2.33546 24.7634C3.16795 24.7634 3.68053 24.2316 3.68053 23.3768V16.1496H6.83734C6.96109 16.1496 7.10617 16.14 7.22992 16.14L11.3814 23.7713C11.7482 24.4884 12.1012 24.773 12.756 24.773C13.5196 24.773 14.1083 24.2782 14.1083 23.5542C14.1083 23.2301 13.9949 22.9041 13.7929 22.5024L9.96505 15.663C12.5954 14.8516 14.1306 12.6591 14.1306 9.7514C14.1306 6.00586 11.4899 3.54047 7.27398 3.54047H2.43389C1.53578 3.54047 1 4.10601 1 5.04022V23.3768C1 24.237 1.51468 24.7634 2.33546 24.7634ZM3.68053 13.9059V5.90342H7.06866C9.77172 5.90342 11.3765 7.40717 11.3765 9.89132C11.3765 12.4064 9.83242 13.9059 7.14343 13.9059H3.68053ZM21.7609 24.5658C25.2004 24.5658 27.6648 22.6924 27.6648 19.9688C27.6648 17.7938 26.5105 16.6041 23.4831 15.8944L21.1464 15.3382C19.3567 14.9149 18.624 14.2357 18.624 13.1693C18.624 11.8481 19.8365 10.9277 21.6386 10.9277C23.2691 10.9277 24.3065 11.718 24.9315 13.0779C25.1901 13.5223 25.5866 13.699 26.0371 13.699C26.7067 13.699 27.0972 13.2832 27.0972 12.6684C27.0972 12.5313 27.077 12.3771 27.043 12.2154C26.6075 10.2663 24.5167 8.82938 21.6386 8.82938C18.3069 8.82938 16.0288 10.6816 16.0288 13.3202C16.0288 15.4887 17.3964 16.8398 20.2333 17.4909L22.57 18.0375C24.3758 18.4587 25.0112 19.0889 25.0112 20.2172C25.0112 21.5759 23.7433 22.4653 21.7609 22.4653C19.8653 22.4653 18.7185 21.6708 18.1117 20.2964C17.8133 19.8401 17.4604 19.5654 16.9358 19.5654C16.2796 19.5654 15.8512 20.0119 15.8416 20.6541C15.8416 20.8062 15.8617 20.9208 15.902 21.0834C16.3276 23.0452 18.4183 24.5658 21.7609 24.5658Z" fill="black"/>
</svg>
