<svg width="28" height="28" viewBox="0 0 28 28" fill="none" xmlns="http://www.w3.org/2000/svg">
<path d="M8.39687 27.1131C9.04913 27.1131 9.53405 26.7937 10.3459 26.0807L14.3572 22.5294H21.4504C24.9784 22.5294 26.9547 20.503 26.9547 17.0251V7.93679C26.9547 4.45891 24.9784 2.4325 21.4504 2.4325H6.50218C2.97625 2.4325 1 4.4493 1 7.93679V17.0251C1 20.5126 3.02476 22.5294 6.42836 22.5294H6.9107V25.4181C6.9107 26.4533 7.45422 27.1131 8.39687 27.1131ZM8.96593 24.532V21.1863C8.96593 20.4986 8.67132 20.2335 8.01319 20.2335H6.56757C4.35225 20.2335 3.29592 19.1066 3.29592 16.9523V8.00007C3.29592 5.84569 4.35225 4.72842 6.56757 4.72842H21.3871C23.5928 4.72842 24.6588 5.84569 24.6588 8.00007V16.9523C24.6588 19.1066 23.5928 20.2335 21.3871 20.2335H14.2321C13.521 20.2335 13.1823 20.3484 12.6864 20.8497L8.96593 24.532Z" fill="black"/>
<path d="M11.1677 15.2074C13.8972 17.937 17.3397 19.6524 19.3811 17.6206C19.4556 17.5364 19.5163 17.4619 19.5866 17.3799C20.0887 16.7864 20.2537 16.0076 19.5559 15.4845C18.9979 15.0851 18.4248 14.6782 17.5112 14.0482C16.8135 13.5539 16.3787 13.6817 15.8577 14.1985L15.4028 14.6492C15.2643 14.7856 15.032 14.7642 14.8818 14.6705C14.4759 14.4223 13.7908 13.8757 13.143 13.23C12.509 12.596 11.9327 11.8758 11.7121 11.4912C11.6343 11.3665 11.5736 11.1556 11.7259 11.0011L12.1862 10.5173C12.7052 9.97076 12.8212 9.56154 12.3248 8.8638L10.9002 6.84583C10.424 6.16497 9.71966 6.28029 8.91857 6.86294C8.85998 6.90771 8.8131 6.95458 8.76623 7.00146C6.72061 9.04708 8.44982 12.4896 11.1677 15.2074Z" fill="black"/>
</svg>
