<svg width="28" height="28" viewBox="0 0 28 28" fill="none" xmlns="http://www.w3.org/2000/svg">
<path d="M6.84421 24.8972H21.0295C23.5685 24.8972 24.8737 23.5919 24.8737 21.0914V6.82921C24.8737 4.32656 23.5685 3.02344 21.0295 3.02344H6.84421C4.31484 3.02344 3 4.31695 3 6.82921V21.0914C3 23.6016 4.31484 24.8972 6.84421 24.8972ZM6.97733 22.6013C5.88772 22.6013 5.29592 22.0371 5.29592 20.8985V7.01999C5.29592 5.88139 5.88772 5.31936 6.97733 5.31936H20.8964C21.9764 5.31936 22.5778 5.88139 22.5778 7.01999V20.8985C22.5778 22.0371 21.9764 22.6013 20.8964 22.6013H6.97733Z" fill="black"/>
<path d="M10.0068 13.9406C10.0068 16.3643 11.3224 17.9412 13.3823 18.1938V19.0284C13.3823 19.3598 13.6178 19.5858 13.9333 19.5858C14.2605 19.5858 14.4961 19.3598 14.4961 19.0284V18.2034C16.0687 18.0319 17.0981 17.1396 17.4126 16.1346C17.4436 16.0162 17.4766 15.8756 17.4766 15.7413C17.4766 15.2721 17.1288 14.9592 16.6596 14.9592C16.32 14.9592 16.0497 15.1509 15.8829 15.4957C15.644 16.0898 15.18 16.5016 14.4961 16.6413V11.242C15.1682 11.3859 15.6323 11.8073 15.869 12.378C16.035 12.7347 16.2883 12.9316 16.665 12.9316C17.1342 12.9316 17.4607 12.6208 17.4607 12.1399C17.4607 11.9993 17.4234 11.8556 17.384 11.73C17.0421 10.7039 16.0148 9.85473 14.4961 9.68738V8.8666C14.4961 8.53941 14.2605 8.30176 13.9333 8.30176C13.6178 8.30176 13.3823 8.53941 13.3823 8.8666V9.69699C11.3224 9.94754 10.0068 11.5382 10.0068 13.9406ZM11.7588 13.9406C11.7588 12.4725 12.3733 11.5277 13.3823 11.2633V16.62C12.3733 16.3652 11.7588 15.4301 11.7588 13.9406Z" fill="black"/>
</svg>
