<svg width="28" height="28" viewBox="0 0 28 28" fill="none" xmlns="http://www.w3.org/2000/svg">
<path d="M6.84421 24.8972H21.0295C23.5685 24.8972 24.8737 23.5919 24.8737 21.0914V6.82921C24.8737 4.32656 23.5685 3.02344 21.0295 3.02344H6.84421C4.31484 3.02344 3 4.31695 3 6.82921V21.0914C3 23.6016 4.31484 24.8972 6.84421 24.8972ZM6.97733 22.6013C5.88772 22.6013 5.29592 22.0371 5.29592 20.8985V7.01999C5.29592 5.88139 5.88772 5.31936 6.97733 5.31936H20.8964C21.9764 5.31936 22.5778 5.88139 22.5778 7.01999V20.8985C22.5778 22.0371 21.9764 22.6013 20.8964 22.6013H6.97733Z" fill="black"/>
<path d="M9.33301 13.9882C9.33301 14.2962 9.56856 14.5509 9.88403 14.5509H10.6202V18.7214C10.6202 19.2724 10.983 19.6223 11.5064 19.6223C12.0318 19.6223 12.3914 19.2724 12.3914 18.7214V14.5952H12.8535L16.3392 19.1801C16.5532 19.4843 16.8136 19.6223 17.0932 19.6223C17.5781 19.6223 17.9505 19.2755 17.9505 18.817C17.9505 18.6267 17.8675 18.3928 17.7196 18.1875L14.8331 14.5509H17.6667C17.9918 14.5509 18.2177 14.2962 18.2177 13.9882C18.2177 13.661 17.9918 13.4351 17.6667 13.4351H14.8382L17.71 9.87164C17.857 9.69282 17.9261 9.4779 17.9261 9.30235C17.9261 8.85235 17.5771 8.51392 17.1028 8.51392C16.8325 8.51392 16.5827 8.64352 16.3645 8.94891L12.8439 13.4287H12.3914V9.42985C12.3914 8.86923 12.0414 8.52892 11.5064 8.52892C10.9734 8.52892 10.6202 8.86923 10.6202 9.42985V13.4351H9.88403C9.56856 13.4351 9.33301 13.661 9.33301 13.9882Z" fill="black"/>
</svg>
