<svg width="28" height="28" viewBox="0 0 28 28" fill="none" xmlns="http://www.w3.org/2000/svg">
<path d="M14.105 26.21C20.7369 26.21 26.2121 20.7273 26.2121 14.105C26.2121 7.47312 20.7273 2 14.0954 2C7.47523 2 2 7.47312 2 14.105C2 20.7273 7.48484 26.21 14.105 26.21ZM14.105 23.8255C8.71085 23.8255 4.39412 19.4991 4.39412 14.105C4.39412 8.71085 8.70124 4.38452 14.0954 4.38452C19.4895 4.38452 23.8276 8.71085 23.8276 14.105C23.8276 19.4991 19.4991 23.8255 14.105 23.8255Z" fill="black"/>
<path d="M9.48535 14.1484C9.48535 14.4563 9.72089 14.7111 10.0268 14.7111H10.7725V18.8816C10.7725 19.4326 11.1354 19.7825 11.6587 19.7825C12.1842 19.7825 12.5437 19.4326 12.5437 18.8816V14.7554H13.0059L16.4915 19.3402C16.7055 19.6445 16.9659 19.7825 17.2455 19.7825C17.7304 19.7825 18.0933 19.4356 18.0933 18.9772C18.0933 18.7869 18.0199 18.553 17.872 18.3477L14.9854 14.7111H17.819C18.1441 14.7111 18.37 14.4563 18.37 14.1484C18.37 13.8212 18.1441 13.5952 17.819 13.5952H14.9906L17.8624 10.0318C17.9997 9.85297 18.0785 9.63805 18.0785 9.46251C18.0785 9.01251 17.7295 8.67407 17.2455 8.67407C16.9849 8.67407 16.7351 8.80368 16.519 9.10907L12.9963 13.5889H12.5437V9.59C12.5437 9.02938 12.1938 8.68907 11.6587 8.68907C11.1257 8.68907 10.7725 9.02938 10.7725 9.59V13.5952H10.0268C9.72089 13.5952 9.48535 13.8212 9.48535 14.1484Z" fill="black"/>
</svg>
