<svg width="28" height="28" viewBox="0 0 28 28" fill="none" xmlns="http://www.w3.org/2000/svg">
<path d="M8.01578 27.2622C8.50023 27.2622 8.87382 27.0299 9.45835 26.489L13.7626 22.5944H21.4504C24.9784 22.5944 26.9547 20.5777 26.9547 17.0998V8.01138C26.9547 4.53349 24.9784 2.50708 21.4504 2.50708H6.50218C2.97625 2.50708 1 4.52388 1 8.01138V17.0998C1 20.5872 3.02476 22.5944 6.42836 22.5944H6.90109V25.9898C6.90109 26.7606 7.30984 27.2622 8.01578 27.2622Z" fill="black"/>
<path d="M8.05069 11.2961C8.05069 9.8125 9.16163 8.76672 10.6569 8.76672C12.3032 8.76672 13.379 10.0881 13.379 11.7941C13.379 14.7653 10.9698 16.3155 9.67092 16.3155C9.31842 16.3155 9.04374 16.064 9.04374 15.7382C9.04374 15.441 9.18741 15.2472 9.62124 15.1384C10.5182 14.9127 11.4355 14.2366 11.8366 13.2742H11.7027C11.3758 13.679 10.8592 13.7863 10.3131 13.7863C8.93569 13.7863 8.05069 12.7073 8.05069 11.2961ZM14.6582 11.2961C14.6582 9.8125 15.7595 8.76672 17.2548 8.76672C18.9032 8.76672 19.9865 10.0881 19.9865 11.7941C19.9865 14.7653 17.5773 16.3155 16.2826 16.3155C15.9259 16.3155 15.6534 16.064 15.6534 15.7382C15.6534 15.441 15.8087 15.2472 16.2212 15.1384C17.1278 14.9127 18.043 14.2366 18.4441 13.2742H18.3102C17.9833 13.679 17.4667 13.7863 16.9131 13.7863C15.5432 13.7863 14.6582 12.7073 14.6582 11.2961Z" fill="white"/>
</svg>
