<svg width="28" height="28" viewBox="0 0 28 28" fill="none" xmlns="http://www.w3.org/2000/svg">
<path d="M14.105 26.21C20.7369 26.21 26.2121 20.7273 26.2121 14.105C26.2121 7.47312 20.7273 2 14.0954 2C7.47523 2 2 7.47312 2 14.105C2 20.7273 7.48484 26.21 14.105 26.21ZM14.105 23.8255C8.71085 23.8255 4.39412 19.4991 4.39412 14.105C4.39412 8.71085 8.70124 4.38452 14.0954 4.38452C19.4895 4.38452 23.8276 8.71085 23.8276 14.105C23.8276 19.4991 19.4991 23.8255 14.105 23.8255Z" fill="black"/>
<path d="M12.9624 19.5152C16.2783 19.5152 18.2155 17.1093 18.2155 15.0253C18.2155 14.4942 17.8857 14.1473 17.3954 14.1473C16.9571 14.1473 16.6559 14.4058 16.5549 14.966C16.3588 16.4618 15.1566 17.82 13.4363 17.82V14.2969L15.8096 13.3343C16.0665 13.2255 16.1837 13.054 16.1837 12.8025C16.1837 12.487 15.9694 12.259 15.6498 12.259C15.556 12.259 15.4463 12.2824 15.3483 12.3197L13.4363 13.1086V12.0459L15.8096 11.0813C16.0665 10.9629 16.1837 10.801 16.1837 10.5516C16.1837 10.234 15.9694 9.99634 15.6498 9.99634C15.556 9.99634 15.4463 10.0315 15.3483 10.0667L13.4363 10.8481V9.49477C13.4363 8.94048 13.0939 8.58728 12.5907 8.58728C12.0779 8.58728 11.7375 8.94048 11.7375 9.49477V11.5174L10.3514 12.094C10.0871 12.2006 9.96777 12.3625 9.96777 12.6236C9.96777 12.9391 10.1916 13.1693 10.5113 13.1693C10.6071 13.1693 10.7051 13.1437 10.8127 13.0968L11.7375 12.7153V13.7801L10.3514 14.3449C10.0871 14.4536 9.96777 14.6252 9.96777 14.8767C9.96777 15.1922 10.1916 15.4202 10.5113 15.4202C10.6071 15.4202 10.7051 15.3968 10.8127 15.3595L11.7375 14.9683V18.389C11.7375 19.061 12.1606 19.5152 12.9624 19.5152Z" fill="black"/>
</svg>
