<svg width="28" height="28" viewBox="0 0 28 28" fill="none" xmlns="http://www.w3.org/2000/svg">
<path d="M8.39687 27.1131C9.04913 27.1131 9.53405 26.7937 10.3459 26.0807L14.3572 22.5294H21.4504C24.9784 22.5294 26.9547 20.503 26.9547 17.0251V7.93679C26.9547 4.45891 24.9784 2.4325 21.4504 2.4325H6.50218C2.97625 2.4325 1 4.4493 1 7.93679V17.0251C1 20.5126 3.02476 22.5294 6.42836 22.5294H6.9107V25.4181C6.9107 26.4533 7.45422 27.1131 8.39687 27.1131ZM8.96593 24.532V21.1863C8.96593 20.4986 8.67132 20.2335 8.01319 20.2335H6.56757C4.35225 20.2335 3.29592 19.1066 3.29592 16.9523V8.00007C3.29592 5.84569 4.35225 4.72842 6.56757 4.72842H21.3871C23.5928 4.72842 24.6588 5.84569 24.6588 8.00007V16.9523C24.6588 19.1066 23.5928 20.2335 21.3871 20.2335H14.2321C13.521 20.2335 13.1823 20.3484 12.6864 20.8497L8.96593 24.532Z" fill="black"/>
<path d="M8.56842 12.482C8.56842 13.1174 9.02498 13.5611 9.67537 13.5611H12.8887V16.784C12.8887 17.4248 13.342 17.8813 13.9677 17.8813C14.6244 17.8813 15.0777 17.4344 15.0777 16.784V13.5611H18.3006C18.9414 13.5611 19.398 13.1174 19.398 12.482C19.398 11.8349 18.951 11.372 18.3006 11.372H15.0777V8.15871C15.0777 7.50832 14.6244 7.05176 13.9677 7.05176C13.342 7.05176 12.8887 7.50832 12.8887 8.15871V11.372H9.67537C9.02498 11.372 8.56842 11.8349 8.56842 12.482Z" fill="black"/>
</svg>
