<svg width="28" height="28" viewBox="0 0 28 28" fill="none" xmlns="http://www.w3.org/2000/svg">
<path d="M14.105 26.21C20.7369 26.21 26.2121 20.7273 26.2121 14.105C26.2121 7.47312 20.7273 2 14.0954 2C7.47523 2 2 7.47312 2 14.105C2 20.7273 7.48484 26.21 14.105 26.21Z" fill="black"/>
<path d="M14.2722 21.1278C13.9525 21.1278 13.7052 20.8902 13.7052 20.5491V19.749H11.8509C11.204 19.749 10.7793 19.3243 10.7793 18.6732V9.71728C10.7793 9.05658 11.2115 8.62979 11.8487 8.62979H13.7052V7.73471C13.7052 7.4033 13.9525 7.16565 14.2722 7.16565C14.6036 7.16565 14.8412 7.4033 14.8412 7.73471V8.62979H15.0559C16.974 8.62979 18.2301 9.80518 18.2301 11.4788C18.2301 12.4974 17.5951 13.4298 16.7141 13.857C17.9512 14.2236 18.7661 15.2473 18.7661 16.5741C18.7661 18.5164 17.3355 19.749 15.0833 19.749H14.8412V20.5491C14.8412 20.8902 14.6036 21.1278 14.2722 21.1278ZM12.6226 18.1707L13.7052 18.1611V14.7875H12.6226V18.1707ZM14.8412 18.1494C16.2234 18.0929 16.9155 17.5182 16.9155 16.468C16.9155 15.4433 16.2234 14.8749 14.8412 14.7971V18.1494ZM12.613 13.2694H13.7052V10.1984H12.6226L12.613 13.2694ZM14.8412 13.2076C15.88 13.07 16.412 12.5305 16.412 11.6656C16.412 10.8158 15.8629 10.3168 14.8412 10.2315V13.2076Z" fill="white"/>
</svg>
