<svg width="28" height="28" viewBox="0 0 28 28" fill="none" xmlns="http://www.w3.org/2000/svg">
<path d="M14.105 26.21C20.7369 26.21 26.2121 20.7273 26.2121 14.105C26.2121 7.47312 20.7273 2 14.0954 2C7.47523 2 2 7.47312 2 14.105C2 20.7273 7.48484 26.21 14.105 26.21ZM14.105 23.8255C8.71085 23.8255 4.39412 19.4991 4.39412 14.105C4.39412 8.71085 8.70124 4.38452 14.0954 4.38452C19.4895 4.38452 23.8276 8.71085 23.8276 14.105C23.8276 19.4991 19.4991 23.8255 14.105 23.8255Z" fill="black"/>
<path d="M14.0978 19.9377C14.638 19.9377 14.9807 19.5781 14.9807 19.0166V17.5768H17.1107C17.4421 17.5768 17.668 17.3316 17.668 17.0162C17.668 16.6986 17.4421 16.463 17.1107 16.463H14.9807V15.5923H17.1107C17.4421 15.5923 17.668 15.3568 17.668 15.0392C17.668 14.712 17.4421 14.4765 17.1107 14.4765H15.5261L18.2535 10.0695C18.3758 9.87384 18.4258 9.69736 18.4258 9.48783C18.4258 9.02096 18.0482 8.66143 17.5462 8.66143C17.2058 8.66143 16.9389 8.80814 16.7549 9.15361L14.1116 13.6979L11.4662 9.14822C11.2684 8.7901 11.0195 8.65393 10.6612 8.65393C10.1528 8.65393 9.77734 9.01767 9.77734 9.48666C9.77734 9.69197 9.83265 9.87056 9.94538 10.0642L12.6845 14.4765H11.1234C10.792 14.4765 10.5777 14.712 10.5777 15.0392C10.5777 15.3568 10.8016 15.5923 11.1234 15.5923H13.2299V16.463H11.1234C10.792 16.463 10.5777 16.6986 10.5777 17.0162C10.5777 17.3316 10.8016 17.5768 11.1234 17.5768H13.2299V19.0091C13.2299 19.5706 13.5672 19.9377 14.0978 19.9377Z" fill="black"/>
</svg>
