<svg width="28" height="28" viewBox="0 0 28 28" fill="none" xmlns="http://www.w3.org/2000/svg">
<path d="M6.84421 24.8972H21.0295C23.5685 24.8972 24.8737 23.5919 24.8737 21.0914V6.82921C24.8737 4.32656 23.5685 3.02344 21.0295 3.02344H6.84421C4.31484 3.02344 3 4.31695 3 6.82921V21.0914C3 23.6016 4.31484 24.8972 6.84421 24.8972Z" fill="black"/>
<path d="M11.9398 19.9507C11.3858 19.9507 10.989 19.587 10.989 19.0317V17.9569H10.029C9.67953 17.9569 9.45898 17.6979 9.45898 17.3686C9.45898 17.0414 9.67953 16.792 10.029 16.792H10.989V9.45041C10.989 8.84643 11.3443 8.47729 11.9302 8.47729H17.0687C17.5707 8.47729 17.9452 8.80494 17.9452 9.32736C17.9452 9.82845 17.5707 10.1678 17.0687 10.1678H12.8811V13.2553H16.6592C17.1603 13.2553 17.5189 13.5766 17.5189 14.0831C17.5189 14.58 17.1603 14.913 16.6592 14.913H12.8811V16.792H15.3233C15.6727 16.792 15.9125 17.0414 15.9125 17.3686C15.9125 17.6979 15.6727 17.9569 15.3233 17.9569H12.8811V19.02C12.8811 19.5656 12.5035 19.9507 11.9398 19.9507Z" fill="white"/>
</svg>
