<svg width="28" height="28" viewBox="0 0 28 28" fill="none" xmlns="http://www.w3.org/2000/svg">
<path d="M6.84421 24.8972H21.0295C23.5685 24.8972 24.8737 23.5919 24.8737 21.0914V6.82921C24.8737 4.32656 23.5685 3.02344 21.0295 3.02344H6.84421C4.31484 3.02344 3 4.31695 3 6.82921V21.0914C3 23.6016 4.31484 24.8972 6.84421 24.8972ZM6.97733 22.6013C5.88772 22.6013 5.29592 22.0371 5.29592 20.8985V7.01999C5.29592 5.88139 5.88772 5.31936 6.97733 5.31936H20.8964C21.9764 5.31936 22.5778 5.88139 22.5778 7.01999V20.8985C22.5778 22.0371 21.9764 22.6013 20.8964 22.6013H6.97733Z" fill="black"/>
<path d="M9.4043 15.0014C9.4043 15.3286 9.63024 15.5641 9.95743 15.5641H10.7055C10.4998 15.8859 10.3931 16.2759 10.3931 16.6073C10.3931 18.3867 11.9965 19.4529 13.9795 19.4529C15.2821 19.4529 16.4971 18.9734 17.1023 17.9213C17.2633 17.6782 17.3465 17.4096 17.3561 17.1356C17.3657 16.6833 17.0531 16.3512 16.5719 16.3512C16.2389 16.3512 16.0057 16.4768 15.794 16.8551C15.4809 17.5463 14.76 17.9013 13.9624 17.9013C12.96 17.9013 12.1333 17.4354 12.1333 16.5129C12.1333 16.1707 12.2974 15.7912 12.6405 15.5641H17.9175C18.235 15.5641 18.461 15.3286 18.461 15.0014C18.461 14.6955 18.2308 14.4504 17.9175 14.4504H9.95743C9.63024 14.4504 9.4043 14.6955 9.4043 15.0014ZM9.42352 12.7715C9.42352 13.0774 9.65157 13.3226 9.97665 13.3226H17.9367C18.2543 13.3226 18.4802 13.0774 18.4802 12.7715C18.4802 12.4444 18.2543 12.2184 17.9367 12.2184H17.1789C17.3943 11.887 17.4914 11.497 17.4914 11.1656C17.4914 9.38624 15.888 8.32007 13.905 8.32007C12.6023 8.32007 11.3927 8.79749 10.7822 9.86132C10.6308 10.1044 10.538 10.3633 10.5284 10.6469C10.5284 11.0897 10.8314 11.4218 11.3222 11.4218C11.6456 11.4218 11.8884 11.2962 12.0905 10.9179C12.4132 10.2267 13.1245 9.87162 13.9317 9.87162C14.9245 9.87162 15.7608 10.3472 15.7608 11.2601C15.7608 11.6023 15.5871 11.9817 15.2418 12.2184H9.97665C9.64946 12.2184 9.42352 12.4444 9.42352 12.7715Z" fill="black"/>
</svg>
