<svg width="28" height="28" viewBox="0 0 28 28" fill="none" xmlns="http://www.w3.org/2000/svg">
<path d="M14.105 26.21C20.7369 26.21 26.2121 20.7273 26.2121 14.105C26.2121 7.47312 20.7273 2 14.0954 2C7.47523 2 2 7.47312 2 14.105C2 20.7273 7.48484 26.21 14.105 26.21ZM14.105 23.8255C8.71085 23.8255 4.39412 19.4991 4.39412 14.105C4.39412 8.71085 8.70124 4.38452 14.0954 4.38452C19.4895 4.38452 23.8276 8.71085 23.8276 14.105C23.8276 19.4991 19.4991 23.8255 14.105 23.8255Z" fill="black"/>
<path d="M6.20563 15.1887C6.20563 16.0834 6.66664 16.7705 7.56148 16.7705C8.20719 16.7705 8.9743 16.7417 10.2699 16.3454C11.0443 16.0951 11.3809 15.7245 11.3905 14.8979L11.4001 14.225C11.4001 14.0961 11.4641 14.0044 11.6356 13.9459C11.9898 13.8296 12.8785 13.6676 14.0954 13.6676C15.3144 13.6676 16.2031 13.8296 16.5573 13.9459C16.7288 14.0044 16.7928 14.0961 16.7928 14.225L16.8024 14.8979C16.8216 15.7245 17.1561 16.0972 17.923 16.3454C19.2186 16.7417 19.9857 16.7705 20.6314 16.7705C21.5241 16.7705 21.9873 16.0834 21.9873 15.1887V15.0737C21.9873 12.0174 18.0289 10.4977 14.0954 10.4977C10.164 10.4977 6.20563 12.0174 6.20563 15.0737V15.1887Z" fill="black"/>
</svg>
