<svg width="28" height="28" viewBox="0 0 28 28" fill="none" xmlns="http://www.w3.org/2000/svg">
<path d="M6.84421 24.8972H21.0295C23.5685 24.8972 24.8737 23.5919 24.8737 21.0914V6.82921C24.8737 4.32656 23.5685 3.02344 21.0295 3.02344H6.84421C4.31484 3.02344 3 4.31695 3 6.82921V21.0914C3 23.6016 4.31484 24.8972 6.84421 24.8972ZM6.97733 22.6013C5.88772 22.6013 5.29592 22.0371 5.29592 20.8985V7.01999C5.29592 5.88139 5.88772 5.31936 6.97733 5.31936H20.8964C21.9764 5.31936 22.5778 5.88139 22.5778 7.01999V20.8985C22.5778 22.0371 21.9764 22.6013 20.8964 22.6013H6.97733Z" fill="black"/>
<path d="M11.04 20.8676H16.8572C17.2148 20.8676 17.5406 20.5439 17.5406 20.1926C17.5406 19.8253 17.2244 19.5113 16.8572 19.5113H14.6189V18.4331C16.9319 18.1552 18.5222 16.4236 18.5222 14.0552V12.6026C18.5222 12.2492 18.2081 11.951 17.8505 11.951C17.4832 11.951 17.1787 12.2492 17.1787 12.6026V14.0489C17.1787 15.8927 15.8269 17.213 13.9427 17.213C12.0724 17.213 10.7184 15.8927 10.7184 14.0489V12.6026C10.7184 12.2492 10.4119 11.951 10.0467 11.951C9.67945 11.951 9.375 12.2492 9.375 12.6026V14.0552C9.375 16.4236 10.9748 18.1648 13.2879 18.4331V19.5113H11.04C10.6727 19.5113 10.3566 19.8253 10.3566 20.1926C10.3566 20.5535 10.6727 20.8676 11.04 20.8676ZM13.9469 16.0779C15.0806 16.0779 15.9197 15.202 15.9197 13.992V9.15236C15.9197 7.954 15.0806 7.08142 13.9469 7.08142C12.8112 7.08142 11.9658 7.95189 11.9658 9.14814V13.992C11.9658 15.202 12.8112 16.0779 13.9469 16.0779Z" fill="black"/>
</svg>
