<svg width="28" height="28" viewBox="0 0 28 28" fill="none" xmlns="http://www.w3.org/2000/svg">
<path d="M8.01578 27.2622C8.50023 27.2622 8.87382 27.0299 9.45835 26.489L13.7626 22.5944H21.4504C24.9784 22.5944 26.9547 20.5777 26.9547 17.0998V8.01138C26.9547 4.53349 24.9784 2.50708 21.4504 2.50708H6.50218C2.97625 2.50708 1 4.52388 1 8.01138V17.0998C1 20.5872 3.02476 22.5944 6.42836 22.5944H6.90109V25.9898C6.90109 26.7606 7.30984 27.2622 8.01578 27.2622Z" fill="black"/>
<path d="M8.25226 12.5565C8.25226 11.8775 8.73859 11.3944 9.41335 11.3944H12.8409V7.96907C12.8409 7.29431 13.3122 6.80798 13.972 6.80798C14.6584 6.80798 15.1319 7.29431 15.1319 7.96907V11.3944H18.569C19.2416 11.3944 19.7184 11.8775 19.7184 12.5565C19.7184 13.2237 19.232 13.6854 18.569 13.6854H15.1319V17.1226C15.1319 17.7973 14.6584 18.274 13.972 18.274C13.3122 18.274 12.8409 17.7877 12.8409 17.1226V13.6854H9.41335C8.73859 13.6854 8.25226 13.2237 8.25226 12.5565Z" fill="white"/>
</svg>
