<svg width="28" height="28" viewBox="0 0 28 28" fill="none" xmlns="http://www.w3.org/2000/svg">
<path d="M8.29015 24.4144C11.8362 24.4144 13.7431 22.6505 14.349 18.8934L15.9882 8.70581C16.3601 6.43776 17.5037 5.41471 19.6245 5.41471C20.4289 5.41471 21.0833 5.55674 21.5745 5.58041C21.9186 5.57737 22.1668 5.48151 22.3414 5.29823C22.5104 5.1494 22.6081 4.90917 22.6081 4.61901C22.6081 4.07597 22.2427 3.678 21.6495 3.42488C21.0802 3.16566 20.2444 3.02832 19.3489 3.02832C15.8028 3.02832 13.786 4.82105 13.1898 8.45854L11.5602 18.5693C11.169 20.974 10.1237 22.0067 7.97398 22.0067C7.48461 22.0067 7.05875 21.9532 6.80446 21.9317C6.47633 21.8845 6.16625 21.8597 5.87633 21.8892C5.31453 21.9399 5 22.3179 5 22.8312C5 23.3742 5.32695 23.7839 5.92765 24.0253C6.53539 24.2963 7.33484 24.4144 8.29015 24.4144ZM7.8957 14.1621H20.1148C20.7256 14.1621 21.0929 13.8035 21.0929 13.2415C21.0929 12.656 20.7256 12.2845 20.1148 12.2845H7.8957C7.2732 12.2845 6.90805 12.656 6.90805 13.2415C6.90805 13.7939 7.2732 14.1621 7.8957 14.1621Z" fill="black"/>
</svg>
