<svg width="28" height="28" viewBox="0 0 28 28" fill="none" xmlns="http://www.w3.org/2000/svg">
<path d="M8.01578 27.2622C8.50023 27.2622 8.87382 27.0299 9.45835 26.489L13.7626 22.5944H21.4504C24.9784 22.5944 26.9547 20.5777 26.9547 17.0998V8.01138C26.9547 4.53349 24.9784 2.50708 21.4504 2.50708H6.50218C2.97625 2.50708 1 4.52388 1 8.01138V17.0998C1 20.5872 3.02476 22.5944 6.42836 22.5944H6.90109V25.9898C6.90109 26.7606 7.30984 27.2622 8.01578 27.2622Z" fill="black"/>
<path d="M8.08467 14.3635C7.08694 14.3635 6.26804 13.5521 6.26804 12.5447C6.26804 11.5395 7.08694 10.7281 8.08467 10.7281C9.08991 10.7281 9.90131 11.5395 9.90131 12.5447C9.90131 13.5521 9.08991 14.3635 8.08467 14.3635Z" fill="white"/>
<path d="M13.9912 14.3635C12.9838 14.3635 12.1628 13.5521 12.1628 12.5447C12.1628 11.5395 12.9838 10.7281 13.9912 10.7281C14.9868 10.7281 15.8078 11.5395 15.8078 12.5447C15.8078 13.5521 14.9868 14.3635 13.9912 14.3635Z" fill="white"/>
<path d="M19.8859 14.3635C18.8807 14.3635 18.0714 13.5521 18.0714 12.5447C18.0714 11.5395 18.8807 10.7281 19.8859 10.7281C20.8954 10.7281 21.7047 11.5395 21.7047 12.5447C21.7047 13.5521 20.8954 14.3635 19.8859 14.3635Z" fill="white"/>
</svg>
