<svg width="28" height="28" viewBox="0 0 28 28" fill="none" xmlns="http://www.w3.org/2000/svg">
<path d="M18.3323 25.7673C20.3798 25.7673 21.7675 25.1785 23.0219 23.8067C23.1135 23.7151 23.1934 23.6138 23.2851 23.5201C23.9713 22.7455 24.3142 21.9383 24.3142 21.1894C24.3142 20.3141 23.8368 19.5205 22.7896 18.7918L19.3035 16.3698C18.2024 15.6094 16.9403 15.5443 15.9538 16.5254L15.081 17.4003C14.7756 17.7078 14.4927 17.7237 14.1452 17.4837C13.5198 17.0621 12.3163 16.0079 11.4913 15.185C10.649 14.3523 9.79842 13.3908 9.33928 12.6779C9.10561 12.3303 9.12694 12.0591 9.43233 11.7516L10.2977 10.8788C11.2905 9.8923 11.2274 8.62058 10.465 7.53121L7.98484 3.99449C7.28687 2.98317 6.46163 2.50481 5.58414 2.4952C4.82898 2.48559 4.04289 2.817 3.26617 3.49902C3.16492 3.58855 3.07117 3.66848 2.97836 3.74207C1.59297 5.01965 1 6.38839 1 8.50644C1 11.9614 3.00344 16.0374 6.89828 19.9112C10.7718 23.7615 14.8131 25.7673 18.3323 25.7673ZM18.3271 23.8107C15.3409 23.8609 11.608 21.7201 8.3746 18.5173C5.12195 15.2933 2.91366 11.4336 2.96382 8.44738C2.98304 7.18574 3.42624 6.083 4.32249 5.31355C4.40124 5.23691 4.4821 5.16988 4.57046 5.10706C4.89343 4.82347 5.25695 4.67206 5.57242 4.67206C5.91976 4.67206 6.22656 4.8073 6.45343 5.15886L8.66359 8.46144C8.935 8.86269 8.94578 9.31714 8.54875 9.70784L7.60187 10.6463C6.71195 11.5118 6.79281 12.5173 7.36187 13.313C7.99609 14.2027 9.17734 15.5426 10.1608 16.5176C11.2108 17.5592 12.6562 18.848 13.51 19.4708C14.3078 20.0419 15.3229 20.1132 16.1863 19.2308L17.1248 18.286C17.5155 17.8869 17.9603 17.9019 18.3637 18.1615L21.6156 20.3211C21.9735 20.5576 22.112 20.8548 22.112 21.2C22.112 21.5251 21.9627 21.879 21.6674 22.2137C21.6046 22.302 21.5472 22.3733 21.4705 22.4616C20.6915 23.3483 19.5887 23.7915 18.3271 23.8107Z" fill="black"/>
<path d="M14.3849 9.26376C14.7885 9.26376 15.0845 8.95814 15.0845 8.58759V6.71447C15.0845 6.33431 14.7885 6.02869 14.3849 6.02869C14.0069 6.02869 13.7108 6.33431 13.7108 6.71447V8.58759C13.7108 8.95814 14.0069 9.26376 14.3849 9.26376Z" fill="black"/>
<path d="M17.1852 11.3485C17.5771 11.3485 17.8848 11.0407 17.8848 10.6531V4.63927C17.8848 4.26122 17.5771 3.95349 17.1852 3.95349C16.8051 3.95349 16.4994 4.26122 16.4994 4.63927V10.6531C16.4994 11.0429 16.8072 11.3485 17.1852 11.3485Z" fill="black"/>
<path d="M19.9834 13.3041C20.3753 13.3041 20.6713 12.9964 20.6713 12.6162V2.705C20.6713 2.30352 20.3753 2 19.9834 2C19.5937 2 19.2998 2.30562 19.2998 2.705V12.6162C19.2998 13.006 19.584 13.3041 19.9834 13.3041Z" fill="black"/>
<path d="M22.7645 11.9656C23.1639 11.9656 23.4695 11.6675 23.4695 11.2778V4.01471C23.4695 3.63244 23.1618 3.33643 22.7645 3.33643C22.394 3.33643 22.0862 3.63455 22.0862 4.01471V11.2778C22.0862 11.6675 22.394 11.9656 22.7645 11.9656Z" fill="black"/>
<path d="M25.5702 9.8806C25.9717 9.8806 26.256 9.58458 26.256 9.18521V6.10716C26.256 5.71529 25.9675 5.40967 25.5702 5.40967C25.1783 5.40967 24.8823 5.72701 24.8823 6.10716V9.18521C24.8823 9.57708 25.1783 9.8806 25.5702 9.8806Z" fill="black"/>
</svg>
