<svg width="28" height="28" viewBox="0 0 28 28" fill="none" xmlns="http://www.w3.org/2000/svg">
<path d="M6.84421 24.8972H21.0295C23.5685 24.8972 24.8737 23.5919 24.8737 21.0914V6.82921C24.8737 4.32656 23.5685 3.02344 21.0295 3.02344H6.84421C4.31484 3.02344 3 4.31695 3 6.82921V21.0914C3 23.6016 4.31484 24.8972 6.84421 24.8972Z" fill="black"/>
<path d="M15.2313 19.9676C14.9376 19.9676 14.7088 19.8719 14.4077 19.5804L10.315 15.7012C10.0068 15.3973 9.81808 15.1971 9.81808 14.7532C9.81808 14.1785 10.2236 13.8494 10.7823 13.8494H12.4515C13.6197 13.8494 14.3638 13.4123 14.5781 12.5549H10.4347C10.1054 12.5549 9.85816 12.296 9.85816 11.9763C9.85816 11.6374 10.1054 11.388 10.4347 11.388H14.5471C14.3308 10.5862 13.6251 10.1203 12.5743 10.1203H10.5245C10.085 10.1203 9.72949 9.75932 9.72949 9.3262C9.72949 8.87386 10.085 8.54175 10.5245 8.54175H13.6757C14.1573 8.54175 14.6137 8.57972 15.0405 8.65143H17.5771C17.916 8.65143 18.1537 8.87948 18.1537 9.21838C18.1537 9.54018 17.916 9.80667 17.5771 9.80667H15.8383C16.2072 10.236 16.413 10.7817 16.5046 11.388H17.6369C17.9758 11.388 18.2038 11.6374 18.2038 11.9763C18.2038 12.296 17.9758 12.5549 17.6369 12.5549H16.4812C16.2435 14.0236 15.1138 15.3352 12.834 15.4005L12.5471 15.4069L15.749 18.4038C15.9606 18.6155 16.1151 18.8559 16.1151 19.1252C16.1151 19.638 15.6909 19.9676 15.2313 19.9676Z" fill="white"/>
</svg>
