<svg width="28" height="28" viewBox="0 0 28 28" fill="none" xmlns="http://www.w3.org/2000/svg">
<path d="M7.22 23.2482C7.22 24.1077 7.82727 24.7074 8.66562 24.7074C9.49975 24.7074 10.0995 24.1077 10.0995 23.2482V17.1596H14.1052C18.2562 17.1596 21.0174 14.3061 21.0174 10.2547C21.0174 6.27309 18.4395 3.44092 14.2751 3.44092H8.70358C7.77383 3.44092 7.22 4.01606 7.22 4.95754V23.2482ZM10.0995 14.8112V5.82333H13.5387C16.4788 5.82333 18.0835 7.38309 18.0856 10.2589C18.0856 13.1865 16.358 14.8112 13.4534 14.8112H10.0995ZM5.71719 10.8992H22.19C22.6088 10.8992 22.9264 10.5603 22.9264 10.1532C22.9264 9.73645 22.6088 9.41676 22.19 9.41676H5.71719C5.31008 9.41676 5 9.73645 5 10.1532C5 10.5603 5.31008 10.8992 5.71719 10.8992Z" fill="black"/>
</svg>
