<svg width="28" height="28" viewBox="0 0 28 28" fill="none" xmlns="http://www.w3.org/2000/svg">
<path d="M6.84421 24.8972H21.0295C23.5685 24.8972 24.8737 23.5919 24.8737 21.0914V6.82921C24.8737 4.32656 23.5685 3.02344 21.0295 3.02344H6.84421C4.31484 3.02344 3 4.31695 3 6.82921V21.0914C3 23.6016 4.31484 24.8972 6.84421 24.8972Z" fill="black"/>
<path d="M11.1023 19.7121C10.553 19.7121 10.1208 19.6559 9.81727 19.4974C9.41977 19.3399 9.22266 19.0716 9.22266 18.7137C9.22266 18.3103 9.49312 18.0206 9.93305 17.9974C10.0812 17.9932 10.1834 18.0007 10.2973 18.0199C10.4923 18.0488 10.6392 18.0893 10.9687 18.0893C11.9782 18.0893 12.4556 17.6065 12.6539 16.4637L12.993 14.3787H10.9045C10.4702 14.3787 10.2082 14.1115 10.2082 13.7175C10.2082 13.2926 10.4702 13.02 10.9045 13.02H13.1974L13.4906 11.1914C13.8293 9.13687 14.8889 8.16211 16.8321 8.16211C17.3718 8.16211 17.8073 8.23219 18.1171 8.3789C18.5146 8.5364 18.7118 8.81437 18.7118 9.16265C18.7118 9.56601 18.4413 9.85781 18.0014 9.87679C17.8511 9.88101 17.7511 9.87562 17.635 9.85429C17.4421 9.82546 17.2952 9.79663 16.9657 9.79663C15.9562 9.79663 15.4788 10.2698 15.2901 11.3721L15.0363 13.02H17.23C17.6835 13.02 17.9381 13.2926 17.9381 13.7175C17.9381 14.1115 17.6835 14.3787 17.23 14.3787H14.8127L14.4417 16.6945C14.1051 18.7491 13.0455 19.7121 11.1023 19.7121Z" fill="white"/>
</svg>
