<svg width="28" height="28" viewBox="0 0 28 28" fill="none" xmlns="http://www.w3.org/2000/svg">
<path d="M14.105 26.21C20.7369 26.21 26.2121 20.7273 26.2121 14.105C26.2121 7.47312 20.7273 2 14.0954 2C7.47523 2 2 7.47312 2 14.105C2 20.7273 7.48484 26.21 14.105 26.21Z" fill="black"/>
<path d="M10.6297 19.5978C10.0786 19.5978 9.69238 19.2467 9.69238 18.6605V14.9687C9.69238 11.8414 11.1443 10.0114 13.4267 9.72802V8.52474C13.4267 8.0881 13.7058 7.84106 14.1052 7.84106C14.4703 7.84106 14.7762 8.08177 14.7762 8.52474V9.71841C17.0564 10.0018 18.5297 11.8297 18.5297 14.9687V18.6605C18.5297 19.2488 18.1573 19.5978 17.6042 19.5978C17.0607 19.5978 16.6936 19.2467 16.6936 18.6605V15.0362C16.6936 12.9387 15.9694 11.7404 14.7762 11.4495V18.8982C14.7762 19.3198 14.4703 19.5894 14.1052 19.5894C13.7058 19.5894 13.4267 19.3156 13.4267 18.8982V11.4591C12.241 11.7809 11.5477 12.9676 11.5477 15.0362V18.6605C11.5477 19.2488 11.1807 19.5978 10.6297 19.5978Z" fill="white"/>
</svg>
