<svg width="36" height="28" viewBox="0 0 36 28" fill="none" xmlns="http://www.w3.org/2000/svg">
<path d="M0 13.8452C0 18.18 3.51468 21.6926 7.84734 21.6926H27.7708C32.111 21.6926 35.6161 18.1779 35.6161 13.8452C35.6161 9.50296 32.111 6 27.7708 6C23.4361 6 19.9214 9.51257 19.9214 13.8452C19.9214 15.9867 20.8258 17.9276 22.305 19.2731H13.309C14.7881 17.9276 15.6947 15.9867 15.6947 13.8452C15.6947 9.50296 12.18 6 7.84734 6C3.50507 6 0 9.51257 0 13.8452ZM2.42155 13.8356C2.42155 10.844 4.85577 8.40983 7.85694 8.40983C10.8485 8.40983 13.2731 10.844 13.2731 13.8356C13.2731 16.8389 10.8485 19.2731 7.85694 19.2731C4.85577 19.2731 2.42155 16.8389 2.42155 13.8356ZM22.3429 13.8356C22.3429 10.844 24.7676 8.40983 27.7612 8.40983C30.7582 8.40983 33.1945 10.844 33.1945 13.8356C33.1945 16.8389 30.7582 19.2731 27.7612 19.2731C24.7676 19.2731 22.3429 16.8389 22.3429 13.8356Z" fill="black"/>
</svg>
