<svg width="28" height="28" viewBox="0 0 28 28" fill="none" xmlns="http://www.w3.org/2000/svg">
<path d="M6.84421 24.8972H21.0295C23.5685 24.8972 24.8737 23.5919 24.8737 21.0914V6.82921C24.8737 4.32656 23.5685 3.02344 21.0295 3.02344H6.84421C4.31484 3.02344 3 4.31695 3 6.82921V21.0914C3 23.6016 4.31484 24.8972 6.84421 24.8972Z" fill="black"/>
<path d="M8.97461 16.4536C8.97461 16.1243 9.19305 15.8674 9.54367 15.8674H10.517L10.84 14.8753H9.54367C9.19305 14.8753 8.97461 14.628 8.97461 14.2987C8.97461 13.9694 9.19305 13.7222 9.54367 13.7222H11.2173L12.7288 9.0616C12.9149 8.48341 13.3176 8.14966 13.9544 8.14966C14.5774 8.14966 14.9821 8.49512 15.1703 9.0616L16.6893 13.7222H18.3789C18.7296 13.7222 18.948 13.9694 18.948 14.2987C18.948 14.628 18.7296 14.8753 18.3789 14.8753H17.0688L17.3917 15.8674H18.3789C18.7296 15.8674 18.948 16.1243 18.948 16.4536C18.948 16.7829 18.7296 17.0205 18.3789 17.0205H17.7616L18.2632 18.5391C18.3218 18.7329 18.3548 18.867 18.3548 18.9914C18.3548 19.488 17.9824 19.8265 17.4356 19.8265C16.9549 19.8265 16.6729 19.6064 16.541 19.1393L15.8861 17.0205H12.028L11.3753 19.1297C11.2455 19.5947 10.9527 19.8265 10.4891 19.8265C9.93601 19.8265 9.55937 19.488 9.55937 18.9914C9.55937 18.867 9.57742 18.7329 9.64562 18.5391L10.1472 17.0205H9.54367C9.19305 17.0205 8.97461 16.7829 8.97461 16.4536ZM12.3744 15.8674H15.5439L15.2348 14.8753H12.6719L12.3744 15.8674ZM13.0162 13.7222H14.8926L13.9544 10.6375L13.0162 13.7222Z" fill="white"/>
</svg>
