<svg width="28" height="28" viewBox="0 0 28 28" fill="none" xmlns="http://www.w3.org/2000/svg">
<path d="M14.105 26.21C20.7369 26.21 26.2121 20.7273 26.2121 14.105C26.2121 7.47312 20.7273 2 14.0954 2C7.47523 2 2 7.47312 2 14.105C2 20.7273 7.48484 26.21 14.105 26.21ZM14.105 23.8255C8.71085 23.8255 4.39412 19.4991 4.39412 14.105C4.39412 8.71085 8.70124 4.38452 14.0954 4.38452C19.4895 4.38452 23.8276 8.71085 23.8276 14.105C23.8276 19.4991 19.4991 23.8255 14.105 23.8255Z" fill="black"/>
<path d="M10.2575 19.5819H17.3764C17.8499 19.5819 18.1658 19.2648 18.1658 18.819C18.1658 18.3807 17.8403 18.0732 17.3764 18.0732H15.556C13.1413 18.0732 11.247 16.2777 11.247 13.898C11.247 12.417 11.7301 11.368 12.6088 10.8158V13.5709C12.6088 13.8863 12.8368 14.1123 13.1502 14.1123C13.4678 14.1123 13.7033 13.8863 13.7033 13.5709V10.4216C13.8835 10.4002 14.0755 10.381 14.2386 10.381C14.4135 10.381 14.567 10.4023 14.7013 10.4237V13.5709C14.7013 13.8863 14.9368 14.1123 15.2544 14.1123C15.5699 14.1123 15.7958 13.8863 15.7958 13.5709V10.8488C16.5552 11.3766 17.0373 12.2715 17.0671 13.4141C17.0935 13.9048 17.4001 14.2381 17.897 14.2381C18.3873 14.2381 18.7173 13.8901 18.7173 13.3962C18.7077 11.5046 17.6228 9.71328 15.7958 9.07813V8.05062C15.7958 7.72344 15.5699 7.4975 15.2544 7.4975C14.9368 7.4975 14.7013 7.72344 14.7013 8.05062V8.8243C14.5574 8.80297 14.4039 8.80297 14.2482 8.80297C14.0776 8.80297 13.8835 8.81258 13.7033 8.8318V8.05062C13.7033 7.72344 13.4678 7.4975 13.1502 7.4975C12.8347 7.4975 12.6088 7.72344 12.6088 8.05062V9.04719C10.7033 9.68352 9.54242 11.4062 9.54242 13.6791C9.54242 15.5797 10.4209 17.2149 11.7463 18.0922H10.2671C9.8171 18.0922 9.48828 18.3976 9.48828 18.8274C9.48828 19.2765 9.79788 19.5819 10.2575 19.5819Z" fill="black"/>
</svg>
