<svg width="28" height="28" viewBox="0 0 28 28" fill="none" xmlns="http://www.w3.org/2000/svg">
<path d="M14.105 26.2301C20.7369 26.2301 26.2121 20.7549 26.2121 14.123C26.2121 7.50291 20.7273 2.01807 14.0954 2.01807C7.47523 2.01807 2 7.50291 2 14.123C2 20.7549 7.48484 26.2301 14.105 26.2301Z" fill="black"/>
<path d="M7.98336 15.8494C7.57766 15.8494 7.23688 15.5162 7.23688 15.0816V13.1356C7.23688 12.7203 7.56805 12.3891 7.98336 12.3891C8.42 12.3891 8.75117 12.7203 8.75117 13.1356V15.0816C8.75117 15.5162 8.42 15.8494 7.98336 15.8494Z" fill="white"/>
<path d="M10.4358 18.028C10.0109 18.028 9.67975 17.6989 9.67975 17.2526V10.9646C9.67975 10.5418 10.0088 10.2106 10.4358 10.2106C10.8725 10.2106 11.2036 10.5418 11.2036 10.9646V17.2526C11.2036 17.6947 10.8725 18.028 10.4358 18.028Z" fill="white"/>
<path d="M12.8884 20.6804C12.4517 20.6804 12.1248 20.3588 12.1248 19.9201V8.31637C12.1248 7.88934 12.4613 7.55817 12.8884 7.55817C13.3058 7.55817 13.6369 7.88723 13.6369 8.31637V19.9201C13.6369 20.3492 13.3058 20.6804 12.8884 20.6804Z" fill="white"/>
<path d="M15.3216 17.0002C14.9063 17.0002 14.5655 16.6691 14.5655 16.242V11.9849C14.5655 11.5674 14.9063 11.2363 15.3216 11.2363C15.7466 11.2363 16.0777 11.5653 16.0777 11.9849V16.242C16.0777 16.6691 15.7487 17.0002 15.3216 17.0002Z" fill="white"/>
<path d="M17.772 19.0583C17.3375 19.0583 17.0042 18.7292 17.0042 18.3139V9.9226C17.0042 9.5094 17.3333 9.17072 17.772 9.17072C18.1991 9.17072 18.5281 9.5094 18.5281 9.9226V18.3139C18.5281 18.7292 18.1991 19.0583 17.772 19.0583Z" fill="white"/>
<path d="M20.2203 16.3384C19.7837 16.3384 19.4546 16.0093 19.4546 15.5802V12.6584C19.4546 12.2314 19.7837 11.8885 20.2203 11.8885C20.6452 11.8885 20.9689 12.2176 20.9689 12.6584V15.5802C20.9689 16.0168 20.6494 16.3384 20.2203 16.3384Z" fill="white"/>
</svg>
