<svg width="28" height="28" viewBox="0 0 28 28" fill="none" xmlns="http://www.w3.org/2000/svg">
<path d="M14.105 26.2301C20.7369 26.2301 26.2121 20.7549 26.2121 14.123C26.2121 7.50291 20.7273 2.01807 14.0954 2.01807C7.47523 2.01807 2 7.50291 2 14.123C2 20.7549 7.48484 26.2301 14.105 26.2301Z" fill="black"/>
<path d="M9.21146 18.9305C7.97068 18.9305 7.24951 18.2506 7.24951 17.0438V11.251C7.24951 10.0292 8.00912 9.32935 9.21146 9.32935H15.4227C16.6752 9.32935 17.3248 10.0292 17.3248 11.251V17.0185C17.3248 18.2211 16.6154 18.9305 15.3725 18.9305H9.21146ZM18.0109 15.864V12.4191L20.203 10.5554C20.4317 10.366 20.6959 10.234 20.9279 10.234C21.3955 10.234 21.7107 10.5622 21.7107 11.0745V17.2044C21.7107 17.7284 21.3955 18.0566 20.9279 18.0566C20.6959 18.0566 20.4392 17.9246 20.203 17.7277L18.0109 15.864Z" fill="white"/>
</svg>
