<svg width="28" height="28" viewBox="0 0 28 28" fill="none" xmlns="http://www.w3.org/2000/svg">
<path d="M6.84421 24.8972H21.0295C23.5685 24.8972 24.8737 23.5919 24.8737 21.0914V6.82921C24.8737 4.32656 23.5685 3.02344 21.0295 3.02344H6.84421C4.31484 3.02344 3 4.31695 3 6.82921V21.0914C3 23.6016 4.31484 24.8972 6.84421 24.8972ZM6.97733 22.6013C5.88772 22.6013 5.29592 22.0371 5.29592 20.8985V7.01999C5.29592 5.88139 5.88772 5.31936 6.97733 5.31936H20.8964C21.9764 5.31936 22.5778 5.88139 22.5778 7.01999V20.8985C22.5778 22.0371 21.9764 22.6013 20.8964 22.6013H6.97733Z" fill="black"/>
<path d="M9.20765 18.5801H15.1495C16.3446 18.5801 17.036 17.8983 17.036 16.7297V11.1813C17.036 10.0127 16.3948 9.34052 15.1976 9.34052H9.20765C8.06062 9.34052 7.32117 10.0127 7.32117 11.1813V16.755C7.32117 17.9257 8.02219 18.5801 9.20765 18.5801ZM17.6923 15.6274L19.812 17.4112C20.0323 17.6039 20.2655 17.7337 20.4954 17.7337C20.9545 17.7337 21.2559 17.4098 21.2559 16.9113V11.009C21.2559 10.5222 20.9545 10.1983 20.4954 10.1983C20.2655 10.1983 20.0248 10.3282 19.812 10.5112L17.6923 12.3025V15.6274Z" fill="black"/>
</svg>
