<svg width="28" height="28" viewBox="0 0 28 28" fill="none" xmlns="http://www.w3.org/2000/svg">
<path d="M14.105 26.21C20.7369 26.21 26.2121 20.7273 26.2121 14.105C26.2121 7.47312 20.7273 2 14.0954 2C7.47523 2 2 7.47312 2 14.105C2 20.7273 7.48484 26.21 14.105 26.21ZM14.105 23.8255C8.71085 23.8255 4.39412 19.4991 4.39412 14.105C4.39412 8.71085 8.70124 4.38452 14.0954 4.38452C19.4895 4.38452 23.8276 8.71085 23.8276 14.105C23.8276 19.4991 19.4991 23.8255 14.105 23.8255Z" fill="black"/>
<path d="M15.8701 19.9407C16.4584 19.3812 16.2941 18.8818 15.6814 18.413L14.1277 17.1418C13.5364 16.6634 13.1731 16.8659 12.748 17.2548L12.6298 17.3612C12.2281 17.6977 11.7261 17.4376 10.4157 16.156C9.19178 14.9246 8.87396 14.3073 9.20842 13.9419L9.31693 13.8237C9.72076 13.3751 9.89443 13.0161 9.43201 12.4344L8.16826 10.8807C7.67068 10.2872 7.20756 10.1208 6.62138 10.692C5.04193 12.279 6.19295 15.1044 8.83974 17.7416C11.4261 20.3492 14.278 21.5403 15.8701 19.9407ZM11.3876 12.8471H12.4147C12.8122 12.8471 13.0327 12.6116 13.0327 12.2291V11.2137C13.0327 10.812 12.8122 10.6053 12.4147 10.6053H11.3876C11.0051 10.6053 10.7792 10.812 10.7792 11.2137V12.2291C10.7792 12.6116 11.0051 12.8471 11.3876 12.8471ZM14.3277 12.8471H15.3505C15.7309 12.8471 15.9514 12.6116 15.9514 12.2291V11.2137C15.9514 10.812 15.7309 10.6053 15.3505 10.6053H14.3277C13.9355 10.6053 13.6862 10.812 13.6862 11.2137V12.2291C13.6862 12.6116 13.9355 12.8471 14.3277 12.8471ZM17.2346 12.8471H18.2595C18.6495 12.8471 18.8872 12.6116 18.8872 12.2291V11.2137C18.8872 10.812 18.6495 10.6053 18.2595 10.6053H17.2346C16.8542 10.6053 16.6337 10.812 16.6337 11.2137V12.2291C16.6337 12.6116 16.8542 12.8471 17.2346 12.8471ZM20.1608 12.8471H21.1857C21.597 12.8471 21.8197 12.6116 21.8197 12.2291V11.2137C21.8197 10.812 21.597 10.6053 21.1857 10.6053H20.1608C19.7825 10.6053 19.5641 10.812 19.5641 11.2137V12.2291C19.5641 12.6116 19.7825 12.8471 20.1608 12.8471ZM11.3855 15.7754H12.403C12.8122 15.7754 13.0327 15.5591 13.0327 15.1573V14.1399C13.0327 13.7403 12.8122 13.5315 12.403 13.5315H11.3855C10.9859 13.5315 10.7792 13.7403 10.7792 14.1399V15.1573C10.7792 15.5591 10.9859 15.7754 11.3855 15.7754ZM14.3117 15.7754H18.283C18.673 15.7754 18.8914 15.5591 18.8914 15.1573V14.1399C18.8914 13.7403 18.673 13.5315 18.283 13.5315H14.3117C13.9238 13.5315 13.6862 13.7403 13.6862 14.1399V15.1573C13.6862 15.5591 13.9238 15.7754 14.3117 15.7754ZM20.1767 15.7754H21.2091C21.6109 15.7754 21.8197 15.5591 21.8197 15.1573V14.1399C21.8197 13.7403 21.6109 13.5315 21.2091 13.5315H20.1767C19.8038 13.5315 19.5641 13.7403 19.5641 14.1399V15.1573C19.5641 15.5591 19.8038 15.7754 20.1767 15.7754Z" fill="black"/>
</svg>
