<svg width="28" height="28" viewBox="0 0 28 28" fill="none" xmlns="http://www.w3.org/2000/svg">
<path d="M15.9995 24.409C19.7502 24.409 22.9682 22.7824 24.1443 19.6141C24.2784 19.282 24.3337 18.9382 24.3337 18.6541C24.3337 17.9098 23.8288 17.4227 23.0275 17.4227C22.3788 17.4227 22.0031 17.757 21.6684 18.4699C20.7459 20.8381 18.625 21.8813 16.0028 21.8813C12.0662 21.8813 9.36084 18.712 9.36084 13.6725C9.36084 8.70866 12.0662 5.53733 15.9932 5.53733C18.5889 5.53733 20.7002 6.8646 21.6386 9.21679C21.97 9.91804 22.3776 10.264 23.0423 10.264C23.8108 10.264 24.3243 9.77578 24.3243 9.03774C24.3243 8.72625 24.25 8.35079 24.0747 7.99337C22.8695 4.96899 19.96 3 15.9616 3C10.3659 3 6.45883 7.12336 6.45883 13.6746C6.45883 20.2835 10.3298 24.409 15.9995 24.409ZM4.73734 12.4329H17.5002C17.9455 12.4329 18.2472 12.1141 18.2472 11.6965C18.2472 11.2479 17.9455 10.9483 17.5002 10.9483H4.73734C4.30164 10.9483 4 11.2479 4 11.6965C4 12.1141 4.31125 12.4329 4.73734 12.4329ZM4.73734 16.5007H17.5002C17.9455 16.5007 18.2472 16.182 18.2472 15.7643C18.2472 15.3178 17.9455 15.0162 17.5002 15.0162H4.73734C4.31125 15.0162 4 15.3178 4 15.7643C4 16.182 4.30164 16.5007 4.73734 16.5007Z" fill="black"/>
</svg>
