<svg width="28" height="28" viewBox="0 0 28 28" fill="none" xmlns="http://www.w3.org/2000/svg">
<path d="M6.84421 24.8972H21.0295C23.5685 24.8972 24.8737 23.5919 24.8737 21.0914V6.82921C24.8737 4.32656 23.5685 3.02344 21.0295 3.02344H6.84421C4.31484 3.02344 3 4.31695 3 6.82921V21.0914C3 23.6016 4.31484 24.8972 6.84421 24.8972ZM6.97733 22.6013C5.88772 22.6013 5.29592 22.0371 5.29592 20.8985V7.01999C5.29592 5.88139 5.88772 5.31936 6.97733 5.31936H20.8964C21.9764 5.31936 22.5778 5.88139 22.5778 7.01999V20.8985C22.5778 22.0371 21.9764 22.6013 20.8964 22.6013H6.97733Z" fill="black"/>
<path d="M9.21387 13.9502C9.21387 17.3726 11.0837 19.4761 13.9591 19.4761C15.9869 19.4761 17.4623 18.4786 18.0109 16.9748C18.0759 16.7906 18.1152 16.5947 18.1248 16.3912C18.1248 15.9209 17.7897 15.6059 17.2886 15.6059C16.8543 15.6059 16.5958 15.8421 16.4331 16.2764C16.1688 17.1682 15.3611 17.8156 14.3008 17.9231V16.3673C14.3008 15.2824 14.9816 14.5394 15.9292 14.5394C16.1657 14.5394 16.3256 14.5821 16.4641 14.5821C16.8039 14.5821 17.0341 14.3754 17.0341 14.0707C17.0341 13.6552 16.6152 13.3781 15.974 13.3781C15.292 13.3781 14.646 13.7309 14.2912 14.4012V13.9259C14.2912 13.5572 14.0631 13.3409 13.7317 13.3409C13.3961 13.3409 13.1659 13.5764 13.1659 13.9259L13.1638 17.8261C11.8339 17.4307 11.0457 16.0085 11.0457 13.9406C11.0457 11.5706 12.1867 10.0258 13.9537 10.0258C15.1096 10.0258 16.0237 10.7309 16.3785 11.711C16.5391 12.0869 16.7657 12.3541 17.2277 12.3541C17.7278 12.3541 18.0374 12.0412 18.0374 11.5591C18.0374 11.3388 17.9917 11.1068 17.9003 10.9003C17.3317 9.41789 15.7886 8.42859 13.9422 8.42859C11.09 8.42859 9.21387 10.5546 9.21387 13.9502Z" fill="black"/>
</svg>
