<svg width="28" height="29" viewBox="0 0 28 29" fill="none" xmlns="http://www.w3.org/2000/svg">
<path d="M4.84421 26.9278H23.4442C25.9757 26.9278 27.2905 25.6226 27.2905 23.122V11.5927C27.2905 9.59931 26.8989 8.94001 25.5747 7.94509L16.7629 1.16812C15.8073 0.433594 15.0916 0 14.1442 0C13.199 0 12.4853 0.433594 11.5277 1.16812L2.71585 7.94509C1.39797 8.93579 1 9.59931 1 11.5927V23.122C1 25.6322 2.31484 26.9278 4.84421 26.9278ZM4.83929 24.7552C3.74757 24.7552 3.15366 24.191 3.15366 23.0482V11.3353C3.15366 10.4473 3.3953 10.0223 3.99576 9.57187L12.7527 2.85116C13.3059 2.42694 13.6286 2.19983 14.1442 2.19983C14.6523 2.19983 14.9868 2.42905 15.5378 2.85116L24.2905 9.57187C24.891 10.0266 25.1369 10.4473 25.1369 11.3353V23.0482C25.1369 24.191 24.5237 24.7552 23.4491 24.7552H4.83929ZM2.4339 24.3502L3.84788 25.7566L12.7919 16.9331C13.2735 16.444 13.6926 16.234 14.1339 16.234C14.5656 16.234 14.9868 16.444 15.4759 16.9331L24.422 25.7566L25.8243 24.3502L16.6705 15.3542C15.8291 14.5149 15.0006 14.1614 14.1339 14.1614C13.2576 14.1614 12.4387 14.5127 11.5952 15.3542L2.4339 24.3502ZM9.74594 17.6482L11.162 16.2513L3.89054 9.04712L2.48617 10.4536L9.74594 17.6482ZM17.1058 16.2513L18.5123 17.6482L25.7741 10.4536L24.3677 9.04712L17.1058 16.2513Z" fill="black"/>
</svg>
