<svg width="28" height="28" viewBox="0 0 28 28" fill="none" xmlns="http://www.w3.org/2000/svg">
<path d="M7.23922 23.2482C7.23922 24.1077 7.84648 24.7074 8.68694 24.7074C9.51897 24.7074 10.1208 24.1077 10.1208 23.2482V17.1596H14.1265C18.2754 17.1596 21.0366 14.3061 21.0366 10.2547C21.0366 6.27309 18.4587 3.44092 14.2944 3.44092H8.7228C7.79305 3.44092 7.23922 4.01606 7.23922 4.95754V23.2482ZM10.1208 14.8112V5.82333H13.5601C16.498 5.82333 18.1027 7.38309 18.1048 10.2589C18.1048 13.1865 16.3773 14.8112 13.4726 14.8112H10.1208ZM5 8.76146C5 9.16857 5.3293 9.49786 5.73641 9.49786H22.2113C22.6184 9.49786 22.9573 9.16857 22.9573 8.76146C22.9573 8.35224 22.6184 8.02504 22.2113 8.02504H5.73641C5.3293 8.02504 5 8.35224 5 8.76146ZM5 12.372C5 12.7791 5.3293 13.1085 5.73641 13.1085H22.2113C22.6184 13.1085 22.9573 12.7791 22.9573 12.372C22.9573 11.9649 22.6184 11.6356 22.2113 11.6356H5.73641C5.3293 11.6356 5 11.9649 5 12.372Z" fill="black"/>
</svg>
