<svg width="35" height="28" viewBox="0 0 35 28" fill="none" xmlns="http://www.w3.org/2000/svg">
<path d="M27.2477 17.3175L31.2834 20.798C31.7557 21.2086 32.2645 21.4734 32.7497 21.4734C33.7038 21.4734 34.3479 20.7886 34.3479 19.7707V7.44189C34.3479 6.424 33.7038 5.73916 32.7497 5.73916C32.2624 5.73916 31.7578 6.004 31.2834 6.41462L27.2477 9.88549V17.3175ZM21.6783 3.93353H9.23038C6.80953 3.93353 5.26617 5.35197 5.26617 7.82134V14.1255C5.57156 13.9917 5.91515 13.9078 6.27679 13.9078C7.2764 13.9078 8.14405 14.4888 8.53827 15.3157C8.71218 15.2655 8.87226 15.2367 9.05577 15.2367C10.2802 15.2367 11.2828 16.0608 11.5678 17.1682C11.5837 17.2343 11.5859 17.2983 11.5997 17.374C11.6805 17.3409 11.7614 17.3196 11.854 17.3196C13.3237 17.3196 14.4942 18.5039 14.4942 19.9544V23.2263H21.5801C24.0874 23.2263 25.5443 21.8079 25.5443 19.3502V7.81923C25.5443 5.35197 24.1856 3.93353 21.6783 3.93353Z" fill="black"/>
<path d="M0.676171 23.1333C1.07765 23.1333 1.37578 22.8255 1.37578 22.4454V20.584C1.37578 20.2017 1.07765 19.8961 0.676171 19.8961C0.298124 19.8961 0 20.2017 0 20.584V22.4454C0 22.8255 0.298124 23.1333 0.676171 23.1333Z" fill="black"/>
<path d="M3.47438 25.2159C3.86837 25.2159 4.17399 24.9103 4.17399 24.5205V18.5067C4.17399 18.1191 3.86837 17.8113 3.47438 17.8113C3.09423 17.8113 2.79071 18.1191 2.79071 18.5067V24.5205C2.79071 24.9124 3.09634 25.2159 3.47438 25.2159Z" fill="black"/>
<path d="M6.27471 27.1715C6.65487 27.1715 6.9626 26.8638 6.9626 26.4837V16.5649C6.9626 16.1709 6.65487 15.8674 6.27471 15.8674C5.88495 15.8674 5.58893 16.173 5.58893 16.5649V26.4837C5.58893 26.8734 5.87323 27.1715 6.27471 27.1715Z" fill="black"/>
<path d="M9.05367 25.833C9.45516 25.833 9.75867 25.5253 9.75867 25.1451V17.8821C9.75867 17.4998 9.45094 17.1963 9.05367 17.1963C8.68313 17.1963 8.3775 17.5019 8.3775 17.8821V25.1451C8.3775 25.5253 8.68313 25.833 9.05367 25.833Z" fill="black"/>
<path d="M11.8615 23.7405C12.2512 23.7405 12.5451 23.452 12.5451 23.0526V19.9671C12.5451 19.5827 12.2491 19.2792 11.8615 19.2792C11.4675 19.2792 11.1736 19.5944 11.1736 19.9671V23.0526C11.1736 23.4445 11.4675 23.7405 11.8615 23.7405Z" fill="black"/>
</svg>
