<svg width="28" height="28" viewBox="0 0 28 28" fill="none" xmlns="http://www.w3.org/2000/svg">
<path d="M14.105 26.21C20.7369 26.21 26.2121 20.7273 26.2121 14.105C26.2121 7.47312 20.7273 2 14.0954 2C7.47523 2 2 7.47312 2 14.105C2 20.7273 7.48484 26.21 14.105 26.21Z" fill="black"/>
<path d="M10.0039 14.1008C10.0039 11.5974 11.3694 9.94718 13.5165 9.68492V8.82898C13.5165 8.48374 13.7638 8.23438 14.0952 8.23438C14.4341 8.23438 14.6717 8.48374 14.6717 8.82898V9.67531C16.2446 9.85226 17.323 10.7354 17.6809 11.803C17.7182 11.9307 17.7575 12.0744 17.7575 12.2288C17.7575 12.7278 17.413 13.0566 16.9236 13.0566C16.5289 13.0566 16.2618 12.8555 16.0895 12.4829C15.8336 11.8887 15.3578 11.4577 14.6717 11.3021V16.9037C15.3695 16.7502 15.8453 16.3287 16.1054 15.7091C16.2765 15.358 16.5552 15.1545 16.9182 15.1545C17.4097 15.1545 17.7735 15.4834 17.7735 15.9727C17.7735 16.1209 17.7404 16.2594 17.7095 16.3798C17.3832 17.4263 16.3124 18.3526 14.6717 18.5359V19.3885C14.6717 19.7359 14.4341 19.9735 14.0952 19.9735C13.7638 19.9735 13.5165 19.7359 13.5165 19.3885V18.5262C11.3694 18.2619 10.0039 16.6255 10.0039 14.1008ZM11.8365 14.1008C11.8365 15.6413 12.4745 16.6138 13.5165 16.8706V11.3309C12.4745 11.5995 11.8365 12.5794 11.8365 14.1008Z" fill="white"/>
</svg>
