<svg width="30" height="28" viewBox="0 0 30 28" fill="none" xmlns="http://www.w3.org/2000/svg">
<path d="M3.84632 24.392H12.8485V22.0961H3.98905C2.89733 22.0961 2.29592 21.534 2.29592 20.3954V8.12314C2.29592 6.98244 2.89733 6.4108 3.98905 6.4108H23.7495C24.8316 6.4108 25.433 6.98244 25.433 8.12314V15.4124C25.8169 15.3137 26.2155 15.2575 26.6302 15.2575C27.0077 15.2575 27.3811 15.2936 27.7289 15.3775V7.92065C27.7289 5.42011 26.4237 4.11487 23.8826 4.11487H3.84632C1.32445 4.11487 0 5.42011 0 7.92065V20.5958C0 23.0964 1.32445 24.392 3.84632 24.392ZM1.32584 11.7196H26.4223V8.97932H1.32584V11.7196Z" fill="black"/>
<path d="M15.365 25.4858C15.8738 25.4858 16.2101 25.1495 16.2101 24.6545V17.8925C16.2101 17.3678 15.8482 17.0101 15.3043 17.0101C15.0296 17.0101 14.8231 17.0867 14.5132 17.2944L12.7564 18.4386C12.454 18.6292 12.3125 18.8729 12.3125 19.1678C12.3125 19.5807 12.635 19.8798 13.0597 19.8798C13.2247 19.8798 13.38 19.8287 13.545 19.7169L14.4889 19.1197H14.555V24.6545C14.555 25.1495 14.8913 25.4858 15.365 25.4858ZM18.0146 25.3761H22.4145C22.8647 25.3761 23.1989 25.0515 23.1989 24.6151C23.1989 24.1531 22.8647 23.8189 22.4145 23.8189H19.7984V23.7624L21.2196 22.3571C22.5268 21.0798 22.9453 20.3577 22.9453 19.446C22.9453 18.0294 21.7205 16.9611 20.0771 16.9611C18.7936 16.9611 17.6977 17.6928 17.3398 18.7557C17.2791 18.9336 17.2343 19.1136 17.2343 19.317C17.2343 19.7748 17.5568 20.0877 17.9932 20.0877C18.3882 20.0877 18.6277 19.8908 18.75 19.4628C18.7735 19.3712 18.8032 19.2849 18.8405 19.2071C19.0686 18.7529 19.5174 18.4927 20.0771 18.4927C20.738 18.4927 21.2806 18.965 21.2806 19.5067C21.2806 20.015 21.0589 20.3593 20.0796 21.3226L17.5974 23.7847C17.3152 24.0573 17.1971 24.2968 17.1971 24.5896C17.1971 25.0515 17.5313 25.3761 18.0146 25.3761ZM26.6332 25.4954C28.4428 25.4954 29.7753 24.4037 29.7753 22.9147C29.7753 21.7613 28.9575 20.8721 27.8384 20.7856V21.3181C28.8467 21.0432 29.445 20.2754 29.445 19.2819C29.445 17.9356 28.2575 16.9611 26.6236 16.9611C25.3997 16.9611 24.3825 17.5161 23.9555 18.4077C23.8416 18.6409 23.7809 18.9038 23.7809 19.1488C23.7809 19.5969 24.0917 19.9077 24.5398 19.9077C24.9326 19.9077 25.1604 19.7288 25.2764 19.371C25.4757 18.8124 25.9275 18.4927 26.5864 18.4927C27.3453 18.4927 27.7899 18.8478 27.7899 19.4171C27.7899 20.0099 27.3122 20.3788 26.5437 20.3788H25.9662C25.5298 20.3788 25.2169 20.6992 25.2169 21.1238C25.2169 21.5485 25.5298 21.8614 25.9662 21.8614H26.5554C27.5318 21.8614 28.069 22.2345 28.069 22.9147C28.069 23.5405 27.5072 23.9521 26.6471 23.9521C25.8785 23.9521 25.3414 23.627 25.1496 23.0738C25.0336 22.7181 24.7824 22.5371 24.4034 22.5371C23.9414 22.5371 23.6051 22.8617 23.6051 23.3195C23.6051 23.5548 23.6679 23.8156 23.7936 24.0392C24.3068 24.9681 25.3177 25.4954 26.6332 25.4954Z" fill="black"/>
</svg>
