<svg width="28" height="28" viewBox="0 0 28 28" fill="none" xmlns="http://www.w3.org/2000/svg">
<path d="M14.105 26.21C20.7369 26.21 26.2121 20.7273 26.2121 14.105C26.2121 7.47312 20.7273 2 14.0954 2C7.47523 2 2 7.47312 2 14.105C2 20.7273 7.48484 26.21 14.105 26.21Z" fill="black"/>
<path d="M9.1264 19.1384C7.88562 19.1384 7.22656 18.5007 7.22656 17.2503V12.8548H20.9865V17.2503C20.9865 18.5007 20.3274 19.1384 19.0867 19.1384H9.1264ZM9.64671 17.2883H11.0776C11.4153 17.2883 11.6497 17.0677 11.6497 16.7396V15.6582C11.6497 15.3301 11.4153 15.1095 11.0776 15.1095H9.64671C9.31859 15.1095 9.08421 15.3301 9.08421 15.6582V16.7396C9.08421 17.0677 9.31859 17.2883 9.64671 17.2883ZM7.22656 11.4894V10.9693C7.22656 9.71894 7.88562 9.09082 9.1264 9.09082H19.0867C20.3274 9.09082 20.9865 9.72855 20.9865 10.9693V11.4894H7.22656Z" fill="white"/>
</svg>
