<svg width="28" height="28" viewBox="0 0 28 28" fill="none" xmlns="http://www.w3.org/2000/svg">
<path d="M6.84421 24.8972H21.0295C23.5685 24.8972 24.8737 23.5919 24.8737 21.0914V6.82921C24.8737 4.32656 23.5685 3.02344 21.0295 3.02344H6.84421C4.31484 3.02344 3 4.31695 3 6.82921V21.0914C3 23.6016 4.31484 24.8972 6.84421 24.8972Z" fill="black"/>
<path d="M9.56348 14.408C9.56348 12.135 11.0473 10.6357 12.994 10.6357C13.9594 10.6357 14.7863 11.0055 15.2946 11.6205V9.80835H13.2012C12.8689 9.80835 12.6493 9.5728 12.6493 9.25101C12.6493 8.9271 12.8593 8.68194 13.2012 8.68194H15.3031V8.21014C15.3031 7.67905 15.6563 7.35022 16.1892 7.35022C16.7105 7.35022 17.0679 7.67905 17.0679 8.21014V8.68194H17.8181C18.158 8.68194 18.3797 8.9271 18.3797 9.25101C18.3797 9.5728 18.1463 9.80835 17.8181 9.80835H17.0764V17.4328C17.0764 17.9752 16.7349 18.3145 16.2181 18.3145C15.7381 18.3145 15.3891 18.0026 15.3659 17.5256L15.3638 17.1169C14.8404 17.8019 13.9901 18.1887 13.0078 18.1887C11.0611 18.1887 9.56348 16.6734 9.56348 14.408ZM11.3878 14.4197C11.3878 15.7439 12.1854 16.6287 13.3615 16.6287C14.5109 16.6287 15.3277 15.6959 15.3277 14.4197C15.3277 13.1435 14.5109 12.2086 13.3615 12.2086C12.1854 12.2086 11.3878 13.0933 11.3878 14.4197ZM10.1761 19.523C10.1761 19.2012 10.4138 18.9539 10.7473 18.9539H16.8675C17.201 18.9539 17.4387 19.1916 17.4387 19.523C17.4387 19.8427 17.1914 20.0899 16.8675 20.0899H10.7473C10.4234 20.0899 10.1761 19.8427 10.1761 19.523Z" fill="white"/>
</svg>
