<svg width="28" height="28" viewBox="0 0 28 28" fill="none" xmlns="http://www.w3.org/2000/svg">
<path d="M0 13.863H8.69696C7.25109 13.1577 6.2646 11.9012 6.2646 10.3984C6.2646 8.60945 7.60593 7.25968 9.3989 7.25968C10.9144 7.25968 12.2414 8.17328 13.0289 9.67V4.01172H14.7096V9.67C15.5046 8.17328 16.8337 7.25968 18.3396 7.25968C20.1422 7.25968 21.4739 8.60945 21.4739 10.3984C21.4739 11.9012 20.497 13.1577 19.0416 13.863H27.7268V15.4073L15.9621 15.4052C16.658 16.8091 18.8693 18.846 20.5013 19.0534C21.2102 19.1542 21.6009 19.5716 21.6009 20.2265C21.6009 20.83 21.1219 21.4131 20.3227 21.3004C18.443 21.0107 15.6119 18.8966 14.7991 16.4221H14.7096V24.2889H13.0289V16.4221H12.9469C12.1362 18.8966 9.30515 21.0107 7.42335 21.3004C6.62624 21.4131 6.14718 20.83 6.14718 20.2265C6.14718 19.5716 6.53788 19.1638 7.23725 19.0534C8.87882 18.8268 11.0805 16.8091 11.786 15.4052L0 15.4073V13.863ZM12.4671 13.7071H12.8084V13.3745C12.8084 11.1541 11.2957 9.19397 9.55593 9.19397C8.71593 9.19397 8.17335 9.73022 8.17335 10.6087C8.17335 12.0988 10.1508 13.7071 12.4671 13.7071ZM15.2714 13.7071C17.5952 13.7071 19.5652 12.0988 19.5652 10.6087C19.5652 9.73022 19.0322 9.19397 18.1826 9.19397C16.4407 9.19397 14.9301 11.1541 14.9301 13.3745V13.7071H15.2714ZM3.84421 24.2889H23.8826C26.4237 24.2889 27.7268 22.9933 27.7268 20.4927V7.81749C27.7268 5.31695 26.4237 4.01172 23.8826 4.01172H3.84421C1.31484 4.01172 0 5.31695 0 7.81749V20.4927C0 22.9933 1.31484 24.2889 3.84421 24.2889Z" fill="black"/>
</svg>
