<svg width="28" height="28" viewBox="0 0 28 28" fill="none" xmlns="http://www.w3.org/2000/svg">
<path d="M14.105 26.21C20.7369 26.21 26.2121 20.7273 26.2121 14.105C26.2121 7.47312 20.7273 2 14.0954 2C7.47523 2 2 7.47312 2 14.105C2 20.7273 7.48484 26.21 14.105 26.21ZM14.105 23.8255C8.71085 23.8255 4.39412 19.4991 4.39412 14.105C4.39412 8.71085 8.70124 4.38452 14.0954 4.38452C19.4895 4.38452 23.8276 8.71085 23.8276 14.105C23.8276 19.4991 19.4991 23.8255 14.105 23.8255Z" fill="black"/>
<path d="M16.981 20.7866C17.308 20.7866 17.5039 20.5576 17.5039 20.1934V18.5619H17.743C19.3684 18.5619 20.3438 17.6 20.3438 15.9219V11.563C20.3438 9.89654 19.3916 8.92834 17.7134 8.92834H10.5029C8.82687 8.92834 7.8725 9.90615 7.8725 11.563V15.9219C7.8725 17.6 8.82687 18.5619 10.5029 18.5619H14.2325L16.3091 20.4308C16.5774 20.679 16.7403 20.7866 16.981 20.7866Z" fill="black"/>
</svg>
