<svg width="28" height="28" viewBox="0 0 28 28" fill="none" xmlns="http://www.w3.org/2000/svg">
<path d="M6.84421 24.8972H21.0295C23.5685 24.8972 24.8737 23.5919 24.8737 21.0914V6.82921C24.8737 4.32656 23.5685 3.02344 21.0295 3.02344H6.84421C4.31484 3.02344 3 4.31695 3 6.82921V21.0914C3 23.6016 4.31484 24.8972 6.84421 24.8972Z" fill="black"/>
<path d="M8.75098 13.7252C8.75098 13.3884 8.99825 13.1487 9.32005 13.1487H9.81692L9.25841 9.52288C9.23497 9.38038 9.21153 9.25897 9.21153 9.11624C9.21153 8.61726 9.5734 8.30554 10.0778 8.30554C10.5299 8.30554 10.896 8.57038 10.9525 9.0471L11.428 13.1487H12.3306L12.9681 9.16569C13.0544 8.61632 13.4526 8.30554 13.9539 8.30554C14.4414 8.30554 14.863 8.61632 14.9397 9.15397L15.5868 13.1391H16.5086L17.0013 9.03749C17.062 8.56077 17.4238 8.29382 17.8663 8.29382C18.3611 8.29382 18.7251 8.59804 18.7251 9.0853C18.7251 9.2196 18.7016 9.33655 18.6782 9.47483L18.1101 13.1391H18.6037C18.9447 13.1391 19.1845 13.3767 19.1845 13.7156C19.1845 14.0374 18.9447 14.306 18.6037 14.306H17.9193L17.1955 18.9776C17.1168 19.5255 16.705 19.8478 16.2093 19.8478C15.6944 19.8478 15.288 19.5427 15.2017 18.9809L14.4393 14.306H13.492L12.7487 18.9809C12.6625 19.5427 12.2582 19.8478 11.7411 19.8478C11.2337 19.8478 10.8294 19.5255 10.7486 18.9776L10.0077 14.3156H9.32005C8.99825 14.3156 8.75098 14.047 8.75098 13.7252ZM11.571 14.2964L11.8143 16.7801L12.1717 14.2964H11.571ZM13.6818 13.1487H14.2687L13.9656 11.0683L13.6818 13.1487ZM15.7457 14.2964L16.1224 16.8399L16.3945 14.2964H15.7457Z" fill="white"/>
</svg>
