<svg width="28" height="28" viewBox="0 0 28 28" fill="none" xmlns="http://www.w3.org/2000/svg">
<path d="M13.5975 24.7377C17.8242 24.7377 21.2158 22.5782 21.2158 18.749C21.2158 15.7659 19.32 14.0453 15.1495 13.0619L12.9229 12.5451C10.3793 11.9514 9.18701 10.9628 9.18701 9.35311C9.18701 7.64405 10.8087 6.22232 13.6027 6.22232C15.8745 6.22232 17.4162 7.25779 18.0586 9.15296C18.3389 9.84038 18.8133 10.1863 19.4962 10.1863C20.3332 10.1863 20.8169 9.68194 20.8169 8.90523C20.8169 8.68187 20.7851 8.45101 20.7138 8.21265C19.9959 5.58788 17.2453 3.76421 13.5858 3.76421C9.35578 3.76421 6.31969 6.10327 6.31969 9.56756C6.31969 12.4576 8.22375 14.2131 12.1791 15.1497L14.4056 15.6665C17.2392 16.3359 18.3548 17.2277 18.3548 19.0016C18.3548 21.0841 16.5898 22.2796 13.6336 22.2796C10.9941 22.2796 9.31662 21.1994 8.76467 19.2337C8.49795 18.5451 8.04373 18.1759 7.34811 18.1759C6.49125 18.1759 6 18.7195 6 19.5353C6 19.7385 6.03398 19.9757 6.11578 20.2246C6.85828 22.9635 9.84141 24.7377 13.5975 24.7377ZM13.5874 27.4923C14.0648 27.4923 14.4316 27.1213 14.4316 26.6376V1.90937C14.4316 1.42562 14.0648 1.06421 13.5874 1.06421C13.11 1.06421 12.7528 1.42562 12.7528 1.90937V26.6376C12.7528 27.1213 13.11 27.4923 13.5874 27.4923Z" fill="black"/>
</svg>
