<svg width="28" height="28" viewBox="0 0 28 28" fill="none" xmlns="http://www.w3.org/2000/svg">
<path d="M14.105 26.21C20.7369 26.21 26.2121 20.7273 26.2121 14.105C26.2121 7.47312 20.7273 2 14.0954 2C7.47523 2 2 7.47312 2 14.105C2 20.7273 7.48484 26.21 14.105 26.21ZM14.105 23.8255C8.71085 23.8255 4.39412 19.4991 4.39412 14.105C4.39412 8.71085 8.70124 4.38452 14.0954 4.38452C19.4895 4.38452 23.8276 8.71085 23.8276 14.105C23.8276 19.4991 19.4991 23.8255 14.105 23.8255Z" fill="black"/>
<path d="M12.1456 19.8812C12.6774 19.8812 13.037 19.5141 13.037 18.9908V17.9586H15.3941C15.7276 17.9586 15.9556 17.7134 15.9556 17.3959C15.9556 17.0804 15.7276 16.8448 15.3941 16.8448H13.037V15.0233H16.6853C17.1587 15.0233 17.5089 14.7083 17.5089 14.2316C17.5089 13.7548 17.1587 13.4473 16.6853 13.4473H13.037V10.4579H17.083C17.5649 10.4579 17.9117 10.1366 17.9117 9.65354C17.9117 9.163 17.5649 8.84167 17.083 8.84167H12.136C11.5766 8.84167 11.2372 9.19487 11.2372 9.77237V16.8448H10.3166C9.98309 16.8448 9.76465 17.0804 9.76465 17.3959C9.76465 17.7134 9.98309 17.9586 10.3166 17.9586H11.2372V19.0025C11.2372 19.5355 11.616 19.8812 12.1456 19.8812Z" fill="black"/>
</svg>
