<svg width="29" height="28" viewBox="0 0 29 28" fill="none" xmlns="http://www.w3.org/2000/svg">
<path d="M1.0207 17.6925C1.61999 17.6925 2.07445 17.2285 2.07445 16.6505V12.3256C2.07445 11.7455 1.61999 11.2719 1.0207 11.2719C0.442733 11.2719 0 11.7455 0 12.3256V16.6505C0 17.2285 0.442733 17.6925 1.0207 17.6925Z" fill="black"/>
<path d="M5.0585 22.418C5.64818 22.418 6.10474 21.9561 6.10474 21.376V7.60014C6.10474 7.02006 5.64818 6.54639 5.0585 6.54639C4.48264 6.54639 4.0303 7.02006 4.0303 7.60014V21.376C4.0303 21.9561 4.48264 22.418 5.0585 22.418Z" fill="black"/>
<path d="M9.08882 26.9762C9.6785 26.9762 10.1426 26.5142 10.1426 25.9341V3.04414C10.1426 2.46406 9.6785 2 9.08882 2C8.51085 2 8.06812 2.46406 8.06812 3.04414V25.9341C8.06812 26.5142 8.51085 26.9762 9.08882 26.9762Z" fill="black"/>
<path d="M13.1287 20.8976C13.7184 20.8976 14.1729 20.4453 14.1729 19.8652V9.11091C14.1729 8.53083 13.7184 8.06677 13.1287 8.06677C12.5412 8.06677 12.0984 8.53083 12.0984 9.11091V19.8652C12.0984 20.4453 12.5412 20.8976 13.1287 20.8976Z" fill="black"/>
<path d="M16.1287 15.5637C16.6687 14.8119 17.3733 14.1844 18.2032 13.7654V5.62134C18.2032 5.05088 17.7487 4.57721 17.1687 4.57721C16.5715 4.57721 16.1287 5.05088 16.1287 5.62134V15.5637Z" fill="black"/>
<path d="M20.1665 13.1422C20.8458 13.0285 21.5554 13.0255 22.241 13.1511V11.3968C22.241 10.8263 21.7769 10.3527 21.1969 10.3527C20.6093 10.3527 20.1665 10.8263 20.1665 11.3968V13.1422Z" fill="black"/>
<path d="M21.1169 24.181C23.7492 24.181 25.8914 22.0388 25.8914 19.4044C25.8914 16.7839 23.7492 14.6396 21.1169 14.6396C18.5039 14.6396 16.35 16.7956 16.35 19.4044C16.35 22.0292 18.5039 24.181 21.1169 24.181ZM21.1169 22.463C19.4512 22.463 18.0679 21.0861 18.0679 19.4044C18.0679 17.7462 19.4512 16.3693 21.1169 16.3693C22.7944 16.3693 24.1638 17.7366 24.1638 19.4044C24.1638 21.0861 22.7944 22.463 21.1169 22.463ZM27.1526 26.5958C27.7708 26.5958 28.2262 26.135 28.2262 25.4933C28.2262 25.208 28.0835 24.9324 27.8707 24.71L24.4401 21.2602L22.8075 22.7733L26.2786 26.2231C26.5277 26.4723 26.8054 26.5958 27.1526 26.5958Z" fill="black"/>
</svg>
