<svg width="28" height="28" viewBox="0 0 28 28" fill="none" xmlns="http://www.w3.org/2000/svg">
<path d="M6.84421 24.8972H21.0295C23.5685 24.8972 24.8737 23.5919 24.8737 21.0914V6.82921C24.8737 4.32656 23.5685 3.02344 21.0295 3.02344H6.84421C4.31484 3.02344 3 4.31695 3 6.82921V21.0914C3 23.6016 4.31484 24.8972 6.84421 24.8972ZM6.97733 22.6013C5.88772 22.6013 5.29592 22.0371 5.29592 20.8985V7.01999C5.29592 5.88139 5.88772 5.31936 6.97733 5.31936H20.8964C21.9764 5.31936 22.5778 5.88139 22.5778 7.01999V20.8985C22.5778 22.0371 21.9764 22.6013 20.8964 22.6013H6.97733Z" fill="black"/>
<path d="M10.1022 19.4217H17.2233C17.6967 19.4217 18.0126 19.1046 18.0126 18.6588C18.0126 18.2206 17.6871 17.9131 17.2233 17.9131H15.4008C12.986 17.9131 11.0939 16.1175 11.0939 13.7379C11.0939 12.2569 11.5865 11.2078 12.4556 10.6556V13.4107C12.4556 13.7262 12.6836 13.9521 12.997 13.9521C13.3242 13.9521 13.5501 13.7262 13.5501 13.4107V10.2614C13.7304 10.2401 13.9223 10.2209 14.0951 10.2209C14.2603 10.2209 14.4138 10.2422 14.5481 10.2635V13.4107C14.5481 13.7262 14.7837 13.9521 15.0991 13.9521C15.4167 13.9521 15.6427 13.7262 15.6427 13.4107V10.6887C16.402 11.2165 16.8841 12.1113 16.9139 13.2539C16.9404 13.7447 17.2566 14.078 17.7534 14.078C18.2416 14.078 18.5641 13.7299 18.5641 13.2361C18.5545 11.3445 17.4696 9.55313 15.6427 8.91797V7.89047C15.6427 7.56328 15.4167 7.33734 15.0991 7.33734C14.7837 7.33734 14.5481 7.56328 14.5481 7.89047V8.66414C14.4042 8.64281 14.2486 8.64281 14.1047 8.64281C13.9244 8.64281 13.7304 8.65242 13.5501 8.67164V7.89047C13.5501 7.56328 13.3146 7.33734 12.997 7.33734C12.6815 7.33734 12.4556 7.56328 12.4556 7.89047V8.88703C10.5597 9.52336 9.38926 11.246 9.38926 13.519C9.38926 15.4195 10.2656 17.0548 11.5931 17.932H10.1139C9.66395 17.932 9.34473 18.2374 9.34473 18.6673C9.34473 19.1163 9.64262 19.4217 10.1022 19.4217Z" fill="black"/>
</svg>
