<svg width="28" height="28" viewBox="0 0 28 28" fill="none" xmlns="http://www.w3.org/2000/svg">
<path d="M8.39687 27.1131C9.04913 27.1131 9.53405 26.7937 10.3459 26.0807L14.3572 22.5294H21.4504C24.9784 22.5294 26.9547 20.503 26.9547 17.0251V7.93679C26.9547 4.45891 24.9784 2.4325 21.4504 2.4325H6.50218C2.97625 2.4325 1 4.4493 1 7.93679V17.0251C1 20.5126 3.02476 22.5294 6.42836 22.5294H6.9107V25.4181C6.9107 26.4533 7.45422 27.1131 8.39687 27.1131ZM8.96593 24.532V21.1863C8.96593 20.4986 8.67132 20.2335 8.01319 20.2335H6.56757C4.35225 20.2335 3.29592 19.1066 3.29592 16.9523V8.00007C3.29592 5.84569 4.35225 4.72842 6.56757 4.72842H21.3871C23.5928 4.72842 24.6588 5.84569 24.6588 8.00007V16.9523C24.6588 19.1066 23.5928 20.2335 21.3871 20.2335H14.2321C13.521 20.2335 13.1823 20.3484 12.6864 20.8497L8.96593 24.532Z" fill="black"/>
<path d="M8.31225 14.2232C9.27389 14.2232 10.0513 13.4416 10.0513 12.482C10.0513 11.5204 9.27389 10.7388 8.31225 10.7388C7.3485 10.7388 6.56897 11.5204 6.56897 12.482C6.56897 13.4416 7.3485 14.2232 8.31225 14.2232Z" fill="black"/>
<path d="M13.9891 14.2232C14.9411 14.2232 15.7302 13.4416 15.7302 12.482C15.7302 11.5204 14.9411 10.7388 13.9891 10.7388C13.0274 10.7388 12.2362 11.5204 12.2362 12.482C12.2362 13.4416 13.0274 14.2232 13.9891 14.2232Z" fill="black"/>
<path d="M19.6541 14.2232C20.62 14.2232 21.3974 13.4416 21.3974 12.482C21.3974 11.5204 20.62 10.7388 19.6541 10.7388C18.6946 10.7388 17.9151 11.5204 17.9151 12.482C17.9151 13.4416 18.6946 14.2232 19.6541 14.2232Z" fill="black"/>
</svg>
