<svg width="28" height="28" viewBox="0 0 28 28" fill="none" xmlns="http://www.w3.org/2000/svg">
<path d="M14.105 26.21C20.7369 26.21 26.2121 20.7273 26.2121 14.105C26.2121 7.47312 20.7273 2 14.0954 2C7.47523 2 2 7.47312 2 14.105C2 20.7273 7.48484 26.21 14.105 26.21ZM14.105 23.8255C8.71085 23.8255 4.39412 19.4991 4.39412 14.105C4.39412 8.71085 8.70124 4.38452 14.0954 4.38452C19.4895 4.38452 23.8276 8.71085 23.8276 14.105C23.8276 19.4991 19.4991 23.8255 14.105 23.8255Z" fill="black"/>
<path d="M8.20344 15.7644C8.62625 15.7644 8.94359 15.4374 8.94359 15.0359V13.1548C8.94359 12.7534 8.62625 12.4264 8.20344 12.4264C7.80617 12.4264 7.48883 12.7534 7.48883 13.1548V15.0359C7.48883 15.4374 7.81578 15.7644 8.20344 15.7644Z" fill="black"/>
<path d="M10.5688 17.859C10.9799 17.859 11.2972 17.532 11.2972 17.1251V11.056C11.2972 10.6491 10.9799 10.3318 10.5688 10.3318C10.1577 10.3318 9.84454 10.6491 9.84454 11.056V17.1251C9.84454 17.5341 10.1598 17.859 10.5688 17.859Z" fill="black"/>
<path d="M12.9223 20.4209C13.3238 20.4209 13.6391 20.1036 13.6391 19.6829V8.50786C13.6391 8.09465 13.3238 7.77942 12.9223 7.77942C12.5134 7.77942 12.1885 8.09676 12.1885 8.50786V19.6829C12.1885 20.1132 12.5016 20.4209 12.9223 20.4209Z" fill="black"/>
<path d="M15.2663 16.8589C15.6774 16.8589 15.9905 16.5437 15.9905 16.1422V12.0486C15.9905 11.645 15.6753 11.3223 15.2663 11.3223C14.8669 11.3223 14.54 11.6471 14.54 12.0486V16.1422C14.54 16.5437 14.8669 16.8589 15.2663 16.8589Z" fill="black"/>
<path d="M17.6178 18.8541C18.0289 18.8541 18.3441 18.541 18.3441 18.1299V10.0608C18.3441 9.64974 18.0289 9.33661 17.6178 9.33661C17.2067 9.33661 16.8915 9.64974 16.8915 10.0608V18.1299C16.8915 18.541 17.2088 18.8541 17.6178 18.8541Z" fill="black"/>
<path d="M19.981 16.2373C20.39 16.2373 20.6956 15.9296 20.6956 15.5089V12.6819C20.6956 12.2591 20.3879 11.9534 19.981 11.9534C19.5582 11.9534 19.243 12.2708 19.243 12.6819V15.5089C19.243 15.9221 19.5582 16.2373 19.981 16.2373Z" fill="black"/>
</svg>
