<svg width="28" height="28" viewBox="0 0 28 28" fill="none" xmlns="http://www.w3.org/2000/svg">
<path d="M14.105 26.21C20.7369 26.21 26.2121 20.7273 26.2121 14.105C26.2121 7.47312 20.7273 2 14.0954 2C7.47523 2 2 7.47312 2 14.105C2 20.7273 7.48484 26.21 14.105 26.21ZM14.105 23.8255C8.71085 23.8255 4.39412 19.4991 4.39412 14.105C4.39412 8.71085 8.70124 4.38452 14.0954 4.38452C19.4895 4.38452 23.8276 8.71085 23.8276 14.105C23.8276 19.4991 19.4991 23.8255 14.105 23.8255Z" fill="black"/>
<path d="M10.419 18.3186C10.8915 18.3186 11.2161 17.9961 11.2161 17.5107V13.0473C11.2161 12.2518 11.6352 11.7261 12.3135 11.7261C12.9095 11.7261 13.3286 12.2037 13.3286 12.8935V13.5964L10.9625 19.9632C10.9178 20.0602 10.8964 20.1615 10.8964 20.2681C10.8964 20.5644 11.1203 20.7882 11.4261 20.7882C11.6788 20.7882 11.86 20.6464 11.9612 20.3937L13.3391 16.6766V17.5487C13.3391 18.013 13.6532 18.3186 14.1109 18.3186C14.5762 18.3186 14.9008 17.9961 14.9008 17.5107V12.9992C14.9008 12.223 15.3102 11.7357 15.9693 11.7357C16.6208 11.7357 17.009 12.2037 17.009 12.9608V17.5107C17.009 17.9961 17.3336 18.3186 17.8082 18.3186C18.2786 18.3186 18.6128 17.9961 18.6128 17.5107V12.7234C18.6128 11.2037 17.7487 10.2734 16.4167 10.2734C16.2069 10.2734 16.0323 10.3086 15.8905 10.3672L16.7854 8.2203C16.8184 8.13077 16.8515 8.02952 16.8515 7.92288C16.8515 7.62874 16.6084 7.41241 16.3004 7.41241C16.0574 7.41241 15.8858 7.55421 15.7867 7.79726L14.3549 11.2262C14.0129 10.5519 13.4324 10.2418 12.7056 10.2418C12.0536 10.2418 11.4964 10.5495 11.1554 11.213V11.0914C11.1554 10.5601 10.835 10.2706 10.3881 10.2706C9.92309 10.2706 9.60059 10.5973 9.60059 11.0837V17.5299C9.60059 17.9961 9.93481 18.3186 10.419 18.3186Z" fill="black"/>
</svg>
