<svg width="28" height="28" viewBox="0 0 28 28" fill="none" xmlns="http://www.w3.org/2000/svg">
<path d="M19.5578 27.1131C20.5005 27.1131 21.044 26.4533 21.044 25.4181V22.5294H21.5263C24.9278 22.5294 26.9547 20.5126 26.9547 17.0251V7.93679C26.9547 4.4493 24.9784 2.4325 21.4504 2.4325H6.50218C2.97625 2.4325 1 4.45891 1 7.93679V17.0251C1 20.503 2.97625 22.5294 6.50218 22.5294H13.5974L17.6088 26.0807C18.4206 26.7937 18.9056 27.1131 19.5578 27.1131ZM18.9888 24.532L15.2683 20.8497C14.7724 20.3484 14.4337 20.2335 13.7205 20.2335H6.56757C4.36186 20.2335 3.29592 19.1066 3.29592 16.9523V8.00007C3.29592 5.84569 4.36186 4.72842 6.56757 4.72842H21.3871C23.6024 4.72842 24.6588 5.84569 24.6588 8.00007V16.9523C24.6588 19.1066 23.6024 20.2335 21.3871 20.2335H19.9415C19.2834 20.2335 18.9888 20.4986 18.9888 21.1863V24.532Z" fill="black"/>
</svg>
