<svg width="28" height="28" viewBox="0 0 28 28" fill="none" xmlns="http://www.w3.org/2000/svg">
<path d="M5.09064 12.6082C5.09064 17.4276 8.30297 20.7368 12.9197 21.1729V23.5828H8.61633C8.01024 23.5828 7.50423 24.074 7.50423 24.6822C7.50423 25.2841 8.01024 25.77 8.61633 25.77H19.3638C19.972 25.77 20.478 25.2841 20.478 24.6822C20.478 24.074 19.972 23.5828 19.3638 23.5828H15.0625V21.1729C16.469 21.0422 17.7391 20.6409 18.8336 20.0097L17.2495 18.4331C16.3176 18.892 15.2229 19.1487 13.9959 19.1487C9.99327 19.1487 7.2989 16.5234 7.2989 12.5294V10.2862C7.2989 9.68015 6.80672 9.20906 6.1868 9.20906C5.57649 9.20906 5.09064 9.68015 5.09064 10.2862V12.6082ZM20.3343 14.7248L22.0809 16.4756C22.6082 15.3466 22.8916 14.044 22.8916 12.6082V10.2862C22.8916 9.68015 22.4036 9.20906 21.7933 9.20906C21.1851 9.20906 20.6833 9.68015 20.6833 10.2862V12.5294C20.6833 13.3242 20.5638 14.0592 20.3343 14.7248ZM13.9959 16.8855C14.5193 16.8855 15.0032 16.7941 15.4394 16.6251L13.4123 14.5884C13.3333 14.6248 13.2448 14.6323 13.1562 14.6302C12.5217 14.4884 12.0485 13.9713 11.8908 13.3071L11.8769 13.0626L9.51305 10.6988V12.0935C9.51305 14.9091 11.3571 16.8855 13.9959 16.8855ZM18.4692 4.78991C18.4692 1.97109 16.623 0 13.9959 0C11.7199 0 10.0645 1.49461 9.68859 3.72024V4.10462L11.7297 6.13406V4.75406C11.7297 3.19053 12.614 2.12788 13.9959 2.12788C15.3778 2.12788 16.2504 3.18631 16.2504 4.75406V10.3924C16.2504 10.4799 16.2504 10.5673 16.2408 10.6451L18.4094 12.8137C18.45 12.5801 18.4692 12.3368 18.4692 12.0935V4.78991Z" fill="black"/>
<path d="M22.9982 22.099C23.3625 22.4611 23.9557 22.4632 24.3178 22.099C24.6682 21.7273 24.682 21.1437 24.3178 20.7794L5.59404 2.0695C5.23193 1.71489 4.62701 1.70528 4.26279 2.0695C3.9124 2.43161 3.9124 3.03864 4.26279 3.38903L22.9982 22.099Z" fill="black"/>
</svg>
