<svg width="28" height="28" viewBox="0 0 28 28" fill="none" xmlns="http://www.w3.org/2000/svg">
<path d="M14.105 26.21C20.7369 26.21 26.2121 20.7273 26.2121 14.105C26.2121 7.47312 20.7273 2 14.0954 2C7.47523 2 2 7.47312 2 14.105C2 20.7273 7.48484 26.21 14.105 26.21ZM14.105 23.8255C8.71085 23.8255 4.39412 19.4991 4.39412 14.105C4.39412 8.71085 8.70124 4.38452 14.0954 4.38452C19.4895 4.38452 23.8276 8.71085 23.8276 14.105C23.8276 19.4991 19.4991 23.8255 14.105 23.8255Z" fill="black"/>
<path d="M10.6848 19.8261H17.6837C18.8212 19.8261 19.4793 19.1701 19.4793 17.9152V11.7432C19.4793 10.4809 18.8115 9.83449 17.5279 9.83449H16.6649C16.6436 8.50746 15.5155 7.40918 14.1053 7.40918C12.6972 7.40918 11.5691 8.50746 11.5478 9.83449H10.6848C9.40113 9.83449 8.7334 10.4809 8.7334 11.7432V17.9152C8.7334 19.1797 9.40113 19.8261 10.6848 19.8261ZM12.7867 9.83449C12.8176 9.05754 13.3154 8.56418 14.1053 8.56418C14.8951 8.56418 15.3951 9.05754 15.4239 9.83449H12.7867Z" fill="black"/>
</svg>
