<svg width="28" height="28" viewBox="0 0 28 28" fill="none" xmlns="http://www.w3.org/2000/svg">
<path d="M14.105 26.21C20.7369 26.21 26.2121 20.7273 26.2121 14.105C26.2121 7.47312 20.7273 2 14.0954 2C7.47523 2 2 7.47312 2 14.105C2 20.7273 7.48484 26.21 14.105 26.21Z" fill="black"/>
<path d="M9.7002 14.5681C9.7002 12.2952 11.1765 10.7958 13.1329 10.7958C14.0983 10.7958 14.923 11.1657 15.4335 11.7807V9.96851H13.3401C13.0077 9.96851 12.7764 9.73296 12.7764 9.41116C12.7764 9.08726 12.9981 8.8421 13.3401 8.8421H15.4398V8.3703C15.4398 7.83921 15.7951 7.51038 16.3185 7.51038C16.8494 7.51038 17.2047 7.83921 17.2047 8.3703V8.8421H17.957C18.2947 8.8421 18.5186 9.08726 18.5186 9.41116C18.5186 9.73296 18.2851 9.96851 17.957 9.96851H17.2152V17.593C17.2152 18.1353 16.8737 18.4747 16.3569 18.4747C15.8748 18.4747 15.5258 18.1627 15.5048 17.6858L15.5026 17.277C14.9772 17.9621 14.1269 18.3488 13.1446 18.3488C11.1882 18.3488 9.7002 16.8336 9.7002 14.5681ZM11.5267 14.5798C11.5267 15.9041 12.3243 16.7888 13.5004 16.7888C14.6476 16.7888 15.4644 15.856 15.4644 14.5798C15.4644 13.3037 14.6476 12.3687 13.5004 12.3687C12.3243 12.3687 11.5267 13.2535 11.5267 14.5798ZM10.315 19.6831C10.315 19.3613 10.5526 19.1141 10.8861 19.1141H17.0064C17.3399 19.1141 17.5776 19.3517 17.5776 19.6831C17.5776 20.0028 17.3303 20.2501 17.0064 20.2501H10.8861C10.5622 20.2501 10.315 20.0028 10.315 19.6831Z" fill="white"/>
</svg>
