<svg width="28" height="28" viewBox="0 0 28 28" fill="none" xmlns="http://www.w3.org/2000/svg">
<path d="M6.84421 24.8972H21.0295C23.5685 24.8972 24.8737 23.5919 24.8737 21.0914V6.82921C24.8737 4.32656 23.5685 3.02344 21.0295 3.02344H6.84421C4.31484 3.02344 3 4.31695 3 6.82921V21.0914C3 23.6016 4.31484 24.8972 6.84421 24.8972ZM6.97733 22.6013C5.88772 22.6013 5.29592 22.0371 5.29592 20.8985V7.01999C5.29592 5.88139 5.88772 5.31936 6.97733 5.31936H20.8964C21.9764 5.31936 22.5778 5.88139 22.5778 7.01999V20.8985C22.5778 22.0371 21.9764 22.6013 20.8964 22.6013H6.97733Z" fill="black"/>
<path d="M13.9401 20.5308C14.246 20.5308 14.4815 20.3145 14.4815 19.9927V19.2061C16.3781 19.0303 17.7928 17.9482 17.7928 16.1681C17.7928 14.5702 16.7679 13.6282 14.7267 13.2544L14.4815 13.2002V10.2492C15.2313 10.3889 15.7582 10.8379 15.9841 11.5345C16.1435 11.9177 16.3999 12.1425 16.8107 12.1425C17.2767 12.1425 17.6034 11.8359 17.6034 11.3836C17.6034 11.2537 17.5661 11.1218 17.5364 10.9844C17.2254 9.77153 16.0448 8.90435 14.4815 8.73489V7.9495C14.4815 7.62771 14.246 7.41138 13.9401 7.41138C13.6321 7.41138 13.4062 7.62771 13.4062 7.9495V8.73489C11.5617 8.91935 10.2614 10.0474 10.2614 11.6812C10.2614 13.1991 11.268 14.0918 13.2229 14.5404L13.4062 14.5849V17.7056C12.4507 17.5702 11.8908 17.0496 11.7096 16.3509C11.5512 15.9335 11.2776 15.7249 10.8818 15.7249C10.399 15.7249 10.084 16.0441 10.084 16.5091C10.084 16.6465 10.1095 16.7784 10.1552 16.9125C10.4876 18.1652 11.7452 19.0451 13.4062 19.189V19.9927C13.4062 20.3145 13.6321 20.5308 13.9401 20.5308ZM13.4062 12.9241L13.3263 12.9007C12.3708 12.6318 11.9496 12.2095 11.9496 11.5793C11.9496 10.9256 12.4987 10.3912 13.4062 10.2407V12.9241ZM14.4815 14.8493L14.7002 14.9016C15.7357 15.1821 16.1067 15.6077 16.1067 16.2881C16.1067 17.0325 15.565 17.5798 14.4815 17.7056V14.8493Z" fill="black"/>
</svg>
