<svg width="28" height="28" viewBox="0 0 28 28" fill="none" xmlns="http://www.w3.org/2000/svg">
<path d="M8.39687 27.1131C9.04913 27.1131 9.53405 26.7937 10.3459 26.0807L14.3572 22.5294H21.4504C24.9784 22.5294 26.9547 20.503 26.9547 17.0251V7.93679C26.9547 4.45891 24.9784 2.4325 21.4504 2.4325H6.50218C2.97625 2.4325 1 4.4493 1 7.93679V17.0251C1 20.5126 3.02476 22.5294 6.42836 22.5294H6.9107V25.4181C6.9107 26.4533 7.45422 27.1131 8.39687 27.1131ZM8.96593 24.532V21.1863C8.96593 20.4986 8.67132 20.2335 8.01319 20.2335H6.56757C4.35225 20.2335 3.29592 19.1066 3.29592 16.9523V8.00007C3.29592 5.84569 4.35225 4.72842 6.56757 4.72842H21.3871C23.5928 4.72842 24.6588 5.84569 24.6588 8.00007V16.9523C24.6588 19.1066 23.5928 20.2335 21.3871 20.2335H14.2321C13.521 20.2335 13.1823 20.3484 12.6864 20.8497L8.96593 24.532Z" fill="black"/>
<path d="M10.2496 17.9742C10.7706 17.9742 11.1184 17.7117 11.3123 17.0576L12.0348 14.9243H15.9316L16.6541 17.0576C16.848 17.7021 17.1958 17.9742 17.7264 17.9742C18.3538 17.9742 18.7485 17.5913 18.7485 17.0011C18.7485 16.7967 18.707 16.5905 18.5985 16.28L15.5978 8.06292C15.3224 7.26793 14.7705 6.86926 13.971 6.86926C13.18 6.86926 12.6461 7.26371 12.3686 8.06292L9.3679 16.28C9.25938 16.5905 9.2179 16.7967 9.2179 16.9915C9.2179 17.5913 9.61469 17.9742 10.2496 17.9742ZM12.5247 13.305L13.9187 9.06511H14.0477L15.4438 13.305H12.5247Z" fill="black"/>
</svg>
