<svg width="28" height="29" viewBox="0 0 28 29" fill="none" xmlns="http://www.w3.org/2000/svg">
<path d="M4.85898 26.9129H23.7388C25.9494 26.9129 27.2315 25.6056 27.2315 23.1008V11.4205C27.2315 8.90097 25.9251 7.6084 23.3704 7.6084H16.9267V9.76206H23.4386C24.49 9.76206 25.0778 10.3114 25.0778 11.4247V23.0987C25.0778 24.2024 24.49 24.7593 23.4386 24.7593H4.79077C3.72014 24.7593 3.15366 24.1982 3.15366 23.087V11.413C3.15366 10.3093 3.72014 9.76206 4.79077 9.76206H11.3411V7.6084H4.49054C2.27992 7.6084 1 8.90613 1 11.4205V23.1008C1 25.6203 2.30429 26.9129 4.85898 26.9129ZM14.1339 20.1421C14.9964 20.1421 15.7705 19.7523 16.6958 18.9526L26.3148 10.5402L24.8472 9.07254L15.4548 17.2977C14.9083 17.7622 14.5403 17.9809 14.1339 17.9809C13.7179 17.9809 13.3169 17.7388 12.8151 17.2977L3.37163 9.02356L1.89438 10.4912L11.5741 18.9526C12.4898 19.7544 13.2639 20.1421 14.1339 20.1421ZM24.7258 25.4157L26.1934 23.9385L18.5345 16.3489L17.0669 17.8166L24.7258 25.4157ZM3.53663 25.4232L11.1817 17.8358L9.71617 16.3682L2.06899 23.946L3.53663 25.4232Z" fill="black"/>
<path d="M5.38939 2.85715L7.89626 5.55082C8.43298 6.10652 9.0386 5.96894 9.17805 5.25011L9.42087 4.00675C11.8504 4.41597 13.0466 5.85902 13.0466 7.63535V12.823C13.0466 13.5147 13.487 13.9827 14.1339 13.9827C14.7829 13.9827 15.2137 13.5147 15.2137 12.823V7.63535C15.2137 5.86324 16.409 4.4223 18.828 4.00886L19.0666 5.25011C19.2081 5.96894 19.8116 6.10652 20.3387 5.55082L22.8552 2.85715C23.2822 2.41535 23.1587 1.85543 22.5955 1.59879L19.2414 0.113328C18.5366 -0.198624 18.0524 0.158094 18.194 0.881139L18.4473 2.1559C16.6656 2.50864 14.6868 3.61841 14.1339 4.93419C13.5747 3.61419 11.5874 2.5002 9.79938 2.15168L10.0506 0.881139C10.1943 0.158094 9.71008 -0.198624 8.99571 0.113328L5.64908 1.59879C5.08798 1.85543 4.96236 2.41535 5.38939 2.85715Z" fill="black"/>
</svg>
