<svg width="28" height="28" viewBox="0 0 28 28" fill="none" xmlns="http://www.w3.org/2000/svg">
<path d="M5.31163 26.1329C6.93585 26.1329 10.223 24.5561 12.6947 22.7872C20.9639 22.9403 27.1329 18.1705 27.1329 11.9139C27.1329 5.87171 21.1022 1 13.5675 1C6.0307 1 0 5.87171 0 11.9139C0 15.7576 2.39977 19.1973 6.07125 20.98C5.56711 21.9299 4.66711 23.2473 4.15453 23.9219C3.41532 24.9025 3.92742 26.1329 5.31163 26.1329ZM6.71084 23.7616C6.56858 23.8157 6.51444 23.7348 6.60889 23.6085C7.20819 22.8674 8.10772 21.6993 8.53569 20.9008C8.88702 20.2492 8.76491 19.6848 8.01069 19.3269C4.42803 17.6498 2.35451 14.9699 2.35451 11.9139C2.35451 7.19147 7.32913 3.34491 13.5675 3.34491C19.8134 3.34491 24.788 7.19147 24.788 11.9139C24.788 16.6267 19.8134 20.4733 13.5675 20.4733C13.35 20.4733 13.0247 20.4637 12.6108 20.4541C12.1101 20.4541 11.733 20.6001 11.2666 20.9706C9.85475 22.0136 7.75616 23.3385 6.71084 23.7616Z" fill="black"/>
<path d="M13.5771 6.00183C12.9867 6.00183 12.54 6.42956 12.54 7.01151V12.5598L12.6485 14.9596L11.5884 13.642L10.2698 12.2812C10.1027 12.0918 9.8442 11.9812 9.56646 11.9812C9.0185 11.9812 8.61514 12.3782 8.61514 12.9177C8.61514 13.1922 8.69389 13.42 8.88209 13.6124L12.7561 17.5337C13.0158 17.8019 13.2677 17.9167 13.5771 17.9167C13.9057 17.9167 14.1576 17.7923 14.4077 17.5337L18.2721 13.6124C18.4582 13.42 18.5562 13.1922 18.5562 12.9177C18.5562 12.3782 18.1432 11.9812 17.5952 11.9812C17.31 11.9812 17.0632 12.0822 16.8919 12.2812L15.5871 13.6314L14.5057 14.9788L14.6142 12.5598V7.01151C14.6142 6.42956 14.1771 6.00183 13.5771 6.00183Z" fill="black"/>
</svg>
