<svg width="28" height="28" viewBox="0 0 28 28" fill="none" xmlns="http://www.w3.org/2000/svg">
<path d="M7.07218 19.4574C10.5327 22.9201 14.7294 25.5798 18.1497 25.5798C19.6825 25.5798 21.032 25.0461 22.1132 23.8531C22.7427 23.1512 23.1231 22.3426 23.1231 21.5373C23.1231 20.9155 22.8815 20.3171 22.2873 19.8912L18.6908 17.3302C18.1232 16.9384 17.6556 16.7509 17.2274 16.7509C16.6757 16.7509 16.1964 17.0619 15.651 17.5976L14.8063 18.4348C14.6753 18.5637 14.5091 18.6223 14.3547 18.6223C14.1672 18.6223 13.9947 18.552 13.8658 18.4871C13.1362 18.0877 11.875 17.0023 10.7022 15.8391C9.53898 14.6759 8.45359 13.4127 8.06382 12.6755C7.98929 12.5466 7.92859 12.3741 7.92859 12.1962C7.92859 12.0418 7.97757 11.8831 8.10648 11.7542L8.94156 10.8903C9.47945 10.3428 9.79046 9.86563 9.79046 9.31391C9.79046 8.88571 9.60085 8.41813 9.20148 7.85048L6.66718 4.28282C6.23593 3.68657 5.62586 3.42993 4.96351 3.42993C4.17531 3.42993 3.36672 3.77728 2.67859 4.44735C1.51445 5.54985 1 6.91649 1 8.43009C1 11.8503 3.62125 16.0086 7.07218 19.4574Z" fill="black"/>
<path d="M14.1634 9.26376C14.5649 9.26376 14.863 8.95814 14.863 8.58759V6.71447C14.863 6.33431 14.5649 6.02869 14.1634 6.02869C13.7854 6.02869 13.4873 6.33431 13.4873 6.71447V8.58759C13.4873 8.95814 13.7854 9.26376 14.1634 9.26376Z" fill="black"/>
<path d="M16.9637 11.3485C17.3556 11.3485 17.6634 11.0407 17.6634 10.6531V4.63927C17.6634 4.26122 17.3556 3.95349 16.9637 3.95349C16.5815 3.95349 16.278 4.26122 16.278 4.63927V10.6531C16.278 11.0429 16.5857 11.3485 16.9637 11.3485Z" fill="black"/>
<path d="M19.7619 13.3041C20.1517 13.3041 20.4498 12.9964 20.4498 12.6162V2.705C20.4498 2.30352 20.1517 2 19.7619 2C19.3722 2 19.0783 2.30562 19.0783 2.705V12.6162C19.0783 13.006 19.3626 13.3041 19.7619 13.3041Z" fill="black"/>
<path d="M22.543 11.9656C22.9424 11.9656 23.2459 11.6675 23.2459 11.2778V4.01471C23.2459 3.63244 22.9403 3.33643 22.543 3.33643C22.1704 3.33643 21.8648 3.63455 21.8648 4.01471V11.2778C21.8648 11.6675 22.1704 11.9656 22.543 11.9656Z" fill="black"/>
<path d="M25.3487 9.8806C25.7481 9.8806 26.0345 9.58458 26.0345 9.18521V6.10716C26.0345 5.71529 25.746 5.40967 25.3487 5.40967C24.9569 5.40967 24.6608 5.72701 24.6608 6.10716V9.18521C24.6608 9.57708 24.9569 9.8806 25.3487 9.8806Z" fill="black"/>
</svg>
