<svg width="28" height="28" viewBox="0 0 28 28" fill="none" xmlns="http://www.w3.org/2000/svg">
<path d="M6.84421 24.8972H21.0295C23.5685 24.8972 24.8737 23.5919 24.8737 21.0914V6.82921C24.8737 4.32656 23.5685 3.02344 21.0295 3.02344H6.84421C4.31484 3.02344 3 4.31695 3 6.82921V21.0914C3 23.6016 4.31484 24.8972 6.84421 24.8972ZM6.97733 22.6013C5.88772 22.6013 5.29592 22.0371 5.29592 20.8985V7.01999C5.29592 5.88139 5.88772 5.31936 6.97733 5.31936H20.8964C21.9764 5.31936 22.5778 5.88139 22.5778 7.01999V20.8985C22.5778 22.0371 21.9764 22.6013 20.8964 22.6013H6.97733Z" fill="black"/>
<path d="M10.5768 19.2577C11.1118 19.2577 11.4629 18.9246 11.4629 18.3523V14.8409C11.4629 12.8405 12.1466 11.6848 13.2876 11.3747V18.5836C13.2876 18.9872 13.555 19.2513 13.9426 19.2513C14.294 19.2513 14.5881 18.9935 14.5881 18.5836V11.3651C15.7483 11.6538 16.4533 12.8116 16.4533 14.8409V18.3523C16.4533 18.9204 16.8044 19.2577 17.3319 19.2577C17.867 19.2577 18.2202 18.9246 18.2202 18.3523V14.783C18.2202 11.7419 16.7938 9.97477 14.5881 9.70101V8.5446C14.5881 8.11546 14.294 7.88647 13.9426 7.88647C13.555 7.88647 13.2876 8.11968 13.2876 8.5446V9.71062C11.0839 9.98437 9.67676 11.7516 9.67676 14.783V18.3523C9.67676 18.9204 10.0492 19.2577 10.5768 19.2577Z" fill="black"/>
</svg>
