<svg width="28" height="28" viewBox="0 0 28 28" fill="none" xmlns="http://www.w3.org/2000/svg">
<path d="M6.84421 24.8972H21.0295C23.5685 24.8972 24.8737 23.5919 24.8737 21.0914V6.82921C24.8737 4.32656 23.5685 3.02344 21.0295 3.02344H6.84421C4.31484 3.02344 3 4.31695 3 6.82921V21.0914C3 23.6016 4.31484 24.8972 6.84421 24.8972Z" fill="black"/>
<path d="M10.9294 21.184C10.5398 21.184 10.2056 20.8615 10.2056 20.4783C10.2056 20.093 10.5398 19.7587 10.9294 19.7587H13.2729V18.6391C10.8537 18.3548 9.17529 16.5415 9.17529 14.051V12.5325C9.17529 12.1568 9.5074 11.8427 9.88521 11.8427C10.2726 11.8427 10.5876 12.1568 10.5876 12.5325V14.0447C10.5876 15.9703 12.0117 17.3543 13.968 17.3543C15.9361 17.3543 17.358 15.9703 17.358 14.0447V12.5325C17.358 12.1568 17.6709 11.8427 18.0605 11.8427C18.4383 11.8427 18.7704 12.1568 18.7704 12.5325V14.051C18.7704 16.5415 17.1016 18.3452 14.6824 18.6391V19.7587H17.0163C17.4037 19.7587 17.738 20.093 17.738 20.4783C17.738 20.8519 17.3941 21.184 17.0163 21.184H10.9294ZM13.9701 16.1714C12.7823 16.1714 11.8945 15.2477 11.8945 13.9793V8.91984C11.8945 7.66523 12.7823 6.75867 13.9701 6.75867C15.158 6.75867 16.0416 7.66734 16.0416 8.92617V13.9793C16.0416 15.2477 15.158 16.1714 13.9701 16.1714Z" fill="white"/>
</svg>
