<svg width="28" height="28" viewBox="0 0 28 28" fill="none" xmlns="http://www.w3.org/2000/svg">
<path d="M6.84421 24.8972H21.0295C23.5685 24.8972 24.8737 23.5919 24.8737 21.0914V6.82921C24.8737 4.32656 23.5685 3.02344 21.0295 3.02344H6.84421C4.31484 3.02344 3 4.31695 3 6.82921V21.0914C3 23.6016 4.31484 24.8972 6.84421 24.8972Z" fill="black"/>
<path d="M10.2455 19.9294C9.76364 19.9294 9.48145 19.5771 9.48145 19.0331V9.22147C9.48145 8.63319 9.788 8.29688 10.2975 8.29688H11.648C13.4513 8.29688 14.363 9.41649 14.363 11.692C14.363 13.0997 13.8493 14.3262 12.9272 14.8268L14.2334 18.6204C14.2941 18.8121 14.3281 18.9841 14.3281 19.1609C14.3281 19.6141 14.0269 19.9336 13.5779 19.9336C13.2066 19.9336 12.9532 19.7688 12.8222 19.3453L11.4952 15.3518H11.0309V19.0598C11.0309 19.5963 10.7253 19.9294 10.2455 19.9294ZM11.0309 13.68H11.5475C12.4168 13.68 12.788 13.0223 12.788 11.7558C12.788 10.503 12.4168 9.84538 11.5859 9.84538H11.0309V13.68ZM17.0026 19.9411C15.7222 19.9411 14.9096 19.091 14.7732 17.9133C14.7519 17.7823 14.7476 17.6459 14.7476 17.5031C14.7476 16.9973 15.0254 16.6631 15.4979 16.6631C15.949 16.6631 16.1919 16.9718 16.2376 17.4523C16.2919 18.1095 16.5076 18.518 17.0122 18.518C17.4837 18.518 17.7324 18.1788 17.7324 17.5516C17.7324 16.9652 17.4936 16.593 16.9306 16.2977L16.4586 16.042C15.3146 15.4329 14.8458 14.6594 14.8458 13.4897C14.8458 12.0082 15.7065 11.0367 17.0026 11.0367C18.2459 11.0367 18.9828 11.9161 19.1265 13.1105C19.1403 13.2478 19.152 13.3596 19.152 13.5012C19.152 14.0069 18.8806 14.3327 18.4165 14.3327C17.9621 14.3327 17.728 14.0292 17.6886 13.5415C17.6267 12.8639 17.4858 12.4896 16.993 12.4896C16.5769 12.4896 16.3592 12.8426 16.3592 13.4154C16.3592 13.9655 16.614 14.298 17.2163 14.6231L17.6745 14.8746C18.8515 15.5276 19.2776 16.2403 19.2776 17.422C19.2776 18.96 18.3882 19.9411 17.0026 19.9411Z" fill="white"/>
</svg>
