<svg width="28" height="28" viewBox="0 0 28 28" fill="none" xmlns="http://www.w3.org/2000/svg">
<path d="M6.84421 24.8972H21.0295C23.5685 24.8972 24.8737 23.5919 24.8737 21.0914V6.82921C24.8737 4.32656 23.5685 3.02344 21.0295 3.02344H6.84421C4.31484 3.02344 3 4.31695 3 6.82921V21.0914C3 23.6016 4.31484 24.8972 6.84421 24.8972Z" fill="black"/>
<path d="M14.1333 20.9677C13.8157 20.9677 13.5664 20.73 13.5664 20.389V19.5888H11.712C11.0673 19.5888 10.6426 19.1641 10.6426 18.513V9.55707C10.6426 8.89637 11.0748 8.46957 11.7099 8.46957H13.5664V7.57449C13.5664 7.24309 13.8157 7.00543 14.1333 7.00543C14.4668 7.00543 14.7045 7.24309 14.7045 7.57449V8.46957H14.9171C16.8352 8.46957 18.1029 9.64496 18.1029 11.3186C18.1029 12.3372 17.468 13.2696 16.5753 13.6969C17.8144 14.0634 18.6272 15.0872 18.6272 16.414C18.6272 18.3562 17.1987 19.5888 14.9466 19.5888H14.7045V20.389C14.7045 20.73 14.4668 20.9677 14.1333 20.9677ZM12.4859 18.0106L13.5664 18.0009V14.6273H12.4859V18.0106ZM14.7045 17.9892C16.0845 17.9327 16.7766 17.358 16.7766 16.3078C16.7766 15.2831 16.0845 14.7148 14.7045 14.6369V17.9892ZM12.4859 13.1093H13.5664V10.0382H12.4859V13.1093ZM14.7045 13.0474C15.7411 12.9098 16.2753 12.3703 16.2753 11.5054C16.2753 10.6556 15.724 10.1566 14.7045 10.0713V13.0474Z" fill="white"/>
</svg>
