<svg width="28" height="28" viewBox="0 0 28 28" fill="none" xmlns="http://www.w3.org/2000/svg">
<path d="M8.01578 27.2622C8.50023 27.2622 8.87382 27.0299 9.45835 26.489L13.7626 22.5944H21.4504C24.9784 22.5944 26.9547 20.5777 26.9547 17.0998V8.01138C26.9547 4.53349 24.9784 2.50708 21.4504 2.50708H6.50218C2.97625 2.50708 1 4.52388 1 8.01138V17.0998C1 20.5872 3.02476 22.5944 6.42836 22.5944H6.90109V25.9898C6.90109 26.7606 7.30984 27.2622 8.01578 27.2622Z" fill="black"/>
<path d="M7.78213 9.35171C7.3722 9.35171 7.02838 9.01116 7.02838 8.58741C7.02838 8.17866 7.3701 7.83484 7.78213 7.83484H20.0573C20.4777 7.83484 20.8119 8.17866 20.8119 8.58741C20.8119 9.01116 20.4777 9.35171 20.0573 9.35171H7.78213ZM7.78213 13.2323C7.3722 13.2323 7.02838 12.8821 7.02838 12.4584C7.02838 12.0538 7.3701 11.7058 7.78213 11.7058H20.0573C20.4777 11.7058 20.8119 12.0496 20.8119 12.4584C20.8119 12.8821 20.4777 13.2323 20.0573 13.2323H7.78213ZM7.78213 17.1032C7.3722 17.1032 7.02838 16.7627 7.02838 16.3485C7.02838 15.9227 7.3701 15.5767 7.78213 15.5767H15.7839C16.2044 15.5767 16.5344 15.9205 16.5344 16.3485C16.5344 16.7627 16.2044 17.1032 15.7839 17.1032H7.78213Z" fill="white"/>
</svg>
