<svg width="28" height="28" viewBox="0 0 28 28" fill="none" xmlns="http://www.w3.org/2000/svg">
<path d="M5.31163 26.1329C6.93585 26.1329 10.223 24.5561 12.6947 22.7872C20.9639 22.9403 27.1329 18.1705 27.1329 11.9139C27.1329 5.87171 21.1022 1 13.5675 1C6.0307 1 0 5.87171 0 11.9139C0 15.7576 2.39977 19.1973 6.07125 20.98C5.56711 21.9299 4.66711 23.2473 4.15453 23.9219C3.41532 24.9025 3.92742 26.1329 5.31163 26.1329ZM6.71084 23.7616C6.56858 23.8157 6.51444 23.7348 6.60889 23.6085C7.20819 22.8674 8.10772 21.6993 8.53569 20.9008C8.88702 20.2492 8.76491 19.6848 8.01069 19.3269C4.42803 17.6498 2.35451 14.9699 2.35451 11.9139C2.35451 7.19147 7.32913 3.34491 13.5675 3.34491C19.8134 3.34491 24.788 7.19147 24.788 11.9139C24.788 16.6267 19.8134 20.4733 13.5675 20.4733C13.35 20.4733 13.0247 20.4637 12.6108 20.4541C12.1101 20.4541 11.733 20.6001 11.2666 20.9706C9.85475 22.0136 7.75616 23.3385 6.71084 23.7616Z" fill="black"/>
<path d="M8.15649 12.0121C8.15649 12.64 8.60344 13.0912 9.25594 13.0912H12.4692V16.3141C12.4692 16.957 12.9204 17.4135 13.5579 17.4135C14.2029 17.4135 14.6658 16.957 14.6658 16.3141V13.0912H17.8887C18.5294 13.0912 18.986 12.64 18.986 12.0121C18.986 11.3554 18.5294 10.8946 17.8887 10.8946H14.6658V7.69097C14.6658 7.02887 14.2029 6.58191 13.5579 6.58191C12.9204 6.58191 12.4692 7.02887 12.4692 7.69097V10.8946H9.25594C8.60344 10.8946 8.15649 11.3554 8.15649 12.0121Z" fill="black"/>
</svg>
