<svg width="28" height="28" viewBox="0 0 28 28" fill="none" xmlns="http://www.w3.org/2000/svg">
<path d="M14.105 26.2301C20.7369 26.2301 26.2121 20.7549 26.2121 14.123C26.2121 7.50291 20.7273 2.01807 14.0954 2.01807C7.47523 2.01807 2 7.50291 2 14.123C2 20.7549 7.48484 26.2301 14.105 26.2301Z" fill="black"/>
<path d="M11.1922 16.9494C8.36163 14.1305 6.57077 10.553 8.68976 8.4244C8.73874 8.37963 8.78562 8.33276 8.85382 8.28377C9.67718 7.67346 10.4208 7.55815 10.913 8.26666L12.3929 10.3601C12.9052 11.0897 12.7871 11.5107 12.233 12.0828L11.7664 12.5846C11.6119 12.7487 11.6748 12.9659 11.7451 13.1002C11.9869 13.5083 12.5813 14.2391 13.2409 14.9007C13.9142 15.5741 14.6194 16.1366 15.0413 16.3965C15.2033 16.4923 15.4494 16.5137 15.5804 16.3751L16.0587 15.9085C16.5936 15.3758 17.0581 15.248 17.7814 15.7487C18.7055 16.4042 19.3159 16.827 19.9037 17.2498C20.6173 17.7814 20.4502 18.5996 19.9323 19.209C19.8641 19.2952 19.7991 19.3794 19.7171 19.4635C17.6002 21.5804 14.0152 19.7937 11.1922 16.9494Z" fill="white"/>
</svg>
