<svg width="28" height="28" viewBox="0 0 28 28" fill="none" xmlns="http://www.w3.org/2000/svg">
<path d="M6.84421 24.8972H21.0295C23.5685 24.8972 24.8737 23.5919 24.8737 21.0914V6.82921C24.8737 4.32656 23.5685 3.02344 21.0295 3.02344H6.84421C4.31484 3.02344 3 4.31695 3 6.82921V21.0914C3 23.6016 4.31484 24.8972 6.84421 24.8972ZM6.97733 22.6013C5.88772 22.6013 5.29592 22.0371 5.29592 20.8985V7.01999C5.29592 5.88139 5.88772 5.31936 6.97733 5.31936H20.8964C21.9764 5.31936 22.5778 5.88139 22.5778 7.01999V20.8985C22.5778 22.0371 21.9764 22.6013 20.8964 22.6013H6.97733Z" fill="black"/>
<path d="M13.9541 19.7775C14.4848 19.7775 14.8274 19.418 14.8274 18.8564V17.4166H16.967C17.2984 17.4166 17.5148 17.1715 17.5148 16.856C17.5148 16.5384 17.2984 16.3029 16.967 16.3029H14.8274V15.4322H16.967C17.2984 15.4322 17.5148 15.1966 17.5148 14.8791C17.5148 14.5519 17.2984 14.3163 16.967 14.3163H15.3728L18.1002 9.90939C18.2226 9.71368 18.2821 9.5372 18.2821 9.32767C18.2821 8.8608 17.8949 8.50127 17.3929 8.50127C17.0526 8.50127 16.7952 8.64799 16.5995 8.99345L13.9563 13.5377L11.3129 8.98806C11.1151 8.62994 10.8662 8.49377 10.5175 8.49377C10.0091 8.49377 9.62402 8.85752 9.62402 9.3265C9.62402 9.53181 9.67933 9.7104 9.79207 9.904L12.5291 14.3163H10.97C10.6386 14.3163 10.4223 14.5519 10.4223 14.8791C10.4223 15.1966 10.6482 15.4322 10.97 15.4322H13.0767V16.3029H10.97C10.6386 16.3029 10.4223 16.5384 10.4223 16.856C10.4223 17.1715 10.6482 17.4166 10.97 17.4166H13.0767V18.8489C13.0767 19.4105 13.4235 19.7775 13.9541 19.7775Z" fill="black"/>
</svg>
