<svg width="28" height="28" viewBox="0 0 28 28" fill="none" xmlns="http://www.w3.org/2000/svg">
<path d="M14.105 26.21C20.7369 26.21 26.2121 20.7273 26.2121 14.105C26.2121 7.47312 20.7273 2 14.0954 2C7.47523 2 2 7.47312 2 14.105C2 20.7273 7.48484 26.21 14.105 26.21ZM14.105 23.8255C8.71085 23.8255 4.39412 19.4991 4.39412 14.105C4.39412 8.71085 8.70124 4.38452 14.0954 4.38452C19.4895 4.38452 23.8276 8.71085 23.8276 14.105C23.8276 19.4991 19.4991 23.8255 14.105 23.8255Z" fill="black"/>
<path d="M14.0975 18.638C17.6396 18.638 20.4113 16.3257 20.4113 13.4614C20.4113 10.6046 17.6396 8.29224 14.0975 8.29224C10.5575 8.29224 7.78363 10.6046 7.78363 13.4614C7.78363 15.2316 8.88262 16.7621 10.5125 17.7296C10.6489 17.8116 10.6468 17.9342 10.5743 18.0716C10.3805 18.4763 10.0512 18.8384 9.80723 19.126C9.48543 19.501 9.59395 19.9133 10.1117 19.9133C10.7478 19.9133 11.8965 19.4244 13.0503 18.7159C13.1738 18.6434 13.2484 18.5987 13.3773 18.6104C13.5936 18.6263 13.8418 18.638 14.0975 18.638Z" fill="black"/>
</svg>
