<svg width="28" height="28" viewBox="0 0 28 28" fill="none" xmlns="http://www.w3.org/2000/svg">
<path d="M8.01578 27.2622C8.50023 27.2622 8.87382 27.0299 9.45835 26.489L13.7626 22.5944H21.4504C24.9784 22.5944 26.9547 20.5777 26.9547 17.0998V8.01138C26.9547 4.53349 24.9784 2.50708 21.4504 2.50708H6.50218C2.97625 2.50708 1 4.52388 1 8.01138V17.0998C1 20.5872 3.02476 22.5944 6.42836 22.5944H6.90109V25.9898C6.90109 26.7606 7.30984 27.2622 8.01578 27.2622Z" fill="black"/>
<path d="M13.7198 14.9809C12.9625 14.9809 12.5531 14.6212 12.5531 13.9272C12.5531 13.8866 12.5531 13.8365 12.5531 13.7959C12.5531 12.685 13.1903 12.0669 14.0479 11.4597C15.0848 10.7404 15.5929 10.3652 15.5929 9.59336C15.5929 8.77633 14.935 8.19953 13.9516 8.19953C13.2285 8.19953 12.6527 8.54734 12.2317 9.20617L12.0482 9.46117C11.8044 9.77406 11.5044 9.96906 11.0605 9.96906C10.5555 9.96906 10.0881 9.60016 10.0881 9.0168C10.0881 8.78899 10.1392 8.57923 10.2084 8.37907C10.5967 7.23415 12.0067 6.29102 14.1032 6.29102C16.2733 6.29102 18.1063 7.43969 18.1063 9.47008C18.1063 10.8937 17.3216 11.5905 16.1181 12.3744C15.3271 12.8894 14.8928 13.3124 14.8569 13.9457C14.8527 13.9809 14.8506 14.0395 14.8485 14.0863C14.8169 14.5879 14.3882 14.9809 13.7198 14.9809ZM13.693 18.7115C12.9173 18.7115 12.2615 18.1459 12.2615 17.3732C12.2615 16.6122 12.9077 16.0349 13.693 16.0349C14.488 16.0349 15.1279 16.6047 15.1279 17.3732C15.1279 18.1555 14.4784 18.7115 13.693 18.7115Z" fill="white"/>
</svg>
