<svg width="30" height="28" viewBox="0 0 30 28" fill="none" xmlns="http://www.w3.org/2000/svg">
<path d="M3.96421 23.2928H16.3139C18.8212 23.2928 20.2781 21.8744 20.2781 19.4071V7.87609C20.2781 5.41844 18.9194 4 16.4121 4H3.96421C1.54336 4 0 5.41844 0 7.8782V19.4725C0 21.9398 1.45476 23.2928 3.96421 23.2928ZM21.9816 17.384L26.0173 20.8644C26.4895 21.2751 26.9984 21.5399 27.4835 21.5399C28.4376 21.5399 29.0817 20.8551 29.0817 19.8372V7.50836C29.0817 6.49047 28.4376 5.80562 27.4835 5.80562C26.9962 5.80562 26.4916 6.07047 26.0173 6.48109L21.9816 9.95196V17.384Z" fill="black"/>
<path d="M9.80368 15.9341C9.11767 15.9341 8.74759 15.6074 8.74759 14.973C8.74759 14.9399 8.74759 14.8919 8.74759 14.8513C8.74759 13.8587 9.32298 13.2972 10.106 12.7368C11.032 12.0974 11.5008 11.7383 11.5008 11.0495C11.5008 10.3082 10.9322 9.81857 10.0542 9.81857C9.4036 9.81857 8.93321 10.1279 8.57414 10.6675C8.23524 11.0577 8.08547 11.3997 7.43696 11.3997C6.93657 11.3997 6.51282 11.0605 6.51282 10.5283C6.51282 10.3239 6.55009 10.1301 6.62134 9.93952C6.98954 8.90639 8.24509 8.0528 10.1423 8.0528C12.1123 8.0528 13.777 9.09928 13.777 10.9422C13.777 12.2272 13.0723 12.8676 11.9838 13.5812C11.261 14.0493 10.8715 14.418 10.8419 14.9969C10.8398 15.0395 10.8377 15.0885 10.8356 15.1216C10.7913 15.5816 10.4093 15.9341 9.80368 15.9341ZM9.77696 19.3218C9.0661 19.3218 8.48486 18.7956 8.48486 18.1091C8.48486 17.413 9.05649 16.8869 9.77696 16.8869C10.4932 16.8869 11.0723 17.4173 11.0723 18.1091C11.0723 18.8052 10.4836 19.3218 9.77696 19.3218Z" fill="white"/>
</svg>
