<svg width="28" height="28" viewBox="0 0 28 28" fill="none" xmlns="http://www.w3.org/2000/svg">
<path d="M14.105 26.21C20.7369 26.21 26.2121 20.7273 26.2121 14.105C26.2121 7.47312 20.7273 2 14.0954 2C7.47523 2 2 7.47312 2 14.105C2 20.7273 7.48484 26.21 14.105 26.21ZM14.105 23.8255C8.71085 23.8255 4.39412 19.4991 4.39412 14.105C4.39412 8.71085 8.70124 4.38452 14.0954 4.38452C19.4895 4.38452 23.8276 8.71085 23.8276 14.105C23.8276 19.4991 19.4991 23.8255 14.105 23.8255Z" fill="black"/>
<path d="M11.8503 14.0935L7.90015 10.1668C7.8268 10.2912 7.7832 10.583 7.7832 10.9995V17.2105C7.7832 17.6068 7.82258 17.8977 7.90672 18.0371L11.8503 14.0935ZM14.105 14.6502C14.3084 14.6502 14.5173 14.5714 14.742 14.3466L19.6965 9.38793C19.5336 9.26863 19.1959 9.16949 18.7121 9.16949H9.47867C8.99703 9.16949 8.66679 9.26863 8.5039 9.38793L13.4584 14.3466C13.6948 14.581 13.9016 14.6502 14.105 14.6502ZM16.3212 14.0935L20.2648 18.0371C20.3511 17.8977 20.398 17.6068 20.398 17.2105V10.9995C20.398 10.583 20.3448 10.2912 20.2714 10.1668L16.3212 14.0935ZM14.0954 15.6118C13.6735 15.6118 13.3391 15.4573 12.9148 15.0641L12.5673 14.7453L8.49359 18.8094C8.65109 18.9467 8.98976 19.0309 9.47445 19.0309H18.7067C19.2031 19.0309 19.5301 18.9467 19.6876 18.8094L15.6235 14.7453L15.278 15.0641C14.8421 15.4573 14.5173 15.6118 14.0954 15.6118Z" fill="black"/>
</svg>
