<svg width="28" height="28" viewBox="0 0 28 28" fill="none" xmlns="http://www.w3.org/2000/svg">
<path d="M6.84421 24.8972H21.0295C23.5685 24.8972 24.8737 23.5919 24.8737 21.0914V6.82921C24.8737 4.32656 23.5685 3.02344 21.0295 3.02344H6.84421C4.31484 3.02344 3 4.31695 3 6.82921V21.0914C3 23.6016 4.31484 24.8972 6.84421 24.8972Z" fill="black"/>
<path d="M10.5137 18.4575V9.73851C10.5137 9.09492 10.9363 8.67774 11.5639 8.67774H12.113V7.7543C12.113 7.42289 12.3507 7.19485 12.6587 7.19485C12.9784 7.19485 13.2181 7.42289 13.2181 7.7543V8.67774H13.9787V7.7543C13.9787 7.42289 14.2163 7.19485 14.536 7.19485C14.8419 7.19485 15.0838 7.42289 15.0838 7.7543V8.71618C16.7511 8.9168 17.7873 9.96516 17.7873 11.4499C17.7873 12.4376 17.1779 13.3507 16.3044 13.7662C17.5063 14.1253 18.2881 15.116 18.2881 16.4044C18.2881 18.1544 17.0924 19.2942 15.0838 19.4714V20.4344C15.0838 20.7637 14.844 20.9939 14.536 20.9939C14.2163 20.9939 13.9787 20.7637 13.9787 20.4344V19.5002H13.2181V20.4344C13.2181 20.7637 12.9805 20.9939 12.6587 20.9939C12.3507 20.9939 12.113 20.7637 12.113 20.4344V19.5002H11.5618C10.9245 19.5002 10.5137 19.0873 10.5137 18.4575ZM12.3249 17.9604L14.2803 17.9508C15.7199 17.9412 16.4781 17.3878 16.4781 16.3078C16.4781 15.2191 15.6889 14.6679 14.165 14.6679H12.3249V17.9604ZM12.3249 13.1766L13.873 13.1862C15.2317 13.1958 15.9824 12.6328 15.9824 11.6304C15.9824 10.7123 15.3128 10.2038 14.1622 10.2038H12.3249V13.1766Z" fill="white"/>
</svg>
