<svg width="28" height="28" viewBox="0 0 28 28" fill="none" xmlns="http://www.w3.org/2000/svg">
<path d="M8.01578 27.2622C8.50023 27.2622 8.87382 27.0299 9.45835 26.489L13.7626 22.5944H21.4504C24.9784 22.5944 26.9547 20.5777 26.9547 17.0998V8.01138C26.9547 4.53349 24.9784 2.50708 21.4504 2.50708H6.50218C2.97625 2.50708 1 4.52388 1 8.01138V17.0998C1 20.5872 3.02476 22.5944 6.42836 22.5944H6.90109V25.9898C6.90109 26.7606 7.30984 27.2622 8.01578 27.2622Z" fill="black"/>
<path d="M12.685 18.3323C12.2327 18.3323 11.8804 18.1408 11.545 17.7159L8.67109 14.2246C8.46367 13.9565 8.36359 13.686 8.36359 13.3891C8.36359 12.79 8.82953 12.3058 9.43398 12.3058C9.79585 12.3058 10.0844 12.4323 10.3783 12.8169L12.6348 15.6869L17.4902 7.92832C17.737 7.52825 18.067 7.31543 18.4361 7.31543C19.0213 7.31543 19.5587 7.72606 19.5587 8.34012C19.5587 8.61059 19.4169 8.90871 19.2456 9.16629L13.761 17.7095C13.5034 18.1194 13.1214 18.3323 12.685 18.3323Z" fill="white"/>
</svg>
