<svg width="28" height="28" viewBox="0 0 28 28" fill="none" xmlns="http://www.w3.org/2000/svg">
<path d="M6.84421 24.8972H21.0295C23.5685 24.8972 24.8737 23.5919 24.8737 21.0914V6.82921C24.8737 4.32656 23.5685 3.02344 21.0295 3.02344H6.84421C4.31484 3.02344 3 4.31695 3 6.82921V21.0914C3 23.6016 4.31484 24.8972 6.84421 24.8972Z" fill="black"/>
<path d="M9.10449 13.9577C9.10449 10.6936 10.762 8.5699 13.3727 8.26287V7.35889C13.3727 7.00826 13.6199 6.78021 13.9588 6.78021C14.2881 6.78021 14.5258 7.00826 14.5258 7.35889V8.25326C16.2527 8.40678 17.6111 9.39373 18.1722 10.8204C18.2657 11.0491 18.3252 11.2917 18.3252 11.5226C18.3252 12.0354 17.9859 12.3747 17.4688 12.3747C16.9984 12.3747 16.742 12.1938 16.5656 11.685C16.2897 10.7927 15.5165 10.1177 14.5258 9.94075V18.012C15.5784 17.8638 16.3633 17.2059 16.6392 16.2785C16.8018 15.806 17.0732 15.5749 17.534 15.5749C18.0691 15.5749 18.4052 15.9281 18.4052 16.4377C18.4052 16.6709 18.3562 16.8848 18.2816 17.0946C17.7555 18.5381 16.3816 19.5534 14.5258 19.6856V20.5854C14.5258 20.936 14.2881 21.1758 13.9588 21.1758C13.6316 21.1758 13.3727 20.936 13.3727 20.5854V19.676C10.7418 19.3702 9.10449 17.2519 9.10449 13.9577ZM11.0266 13.9598C11.0266 16.1475 11.9043 17.6337 13.3727 17.9726V9.97591C11.9139 10.3073 11.0266 11.8031 11.0266 13.9598Z" fill="white"/>
</svg>
