<svg width="28" height="28" viewBox="0 0 28 28" fill="none" xmlns="http://www.w3.org/2000/svg">
<path d="M14.105 26.21C20.7369 26.21 26.2121 20.7273 26.2121 14.105C26.2121 7.47312 20.7273 2 14.0954 2C7.47523 2 2 7.47312 2 14.105C2 20.7273 7.48484 26.21 14.105 26.21ZM14.105 23.8255C8.71085 23.8255 4.39412 19.4991 4.39412 14.105C4.39412 8.71085 8.70124 4.38452 14.0954 4.38452C19.4895 4.38452 23.8276 8.71085 23.8276 14.105C23.8276 19.4991 19.4991 23.8255 14.105 23.8255Z" fill="black"/>
<path d="M10.6934 18.5713C10.6934 19.1926 11.0958 19.5971 11.7183 19.5971H12.259V20.5166C12.259 20.8438 12.4849 21.0697 12.8025 21.0697C13.118 21.0697 13.3439 20.8438 13.3439 20.5166V19.5971H14.1035V20.5166C14.1035 20.8438 14.3391 21.0697 14.647 21.0697C14.9625 21.0697 15.1981 20.8438 15.1981 20.5166V19.5683C17.1792 19.3911 18.3539 18.2661 18.3539 16.5371C18.3539 15.2635 17.573 14.2855 16.3955 13.9306C17.2563 13.5214 17.8498 12.6167 17.8498 11.6417C17.8498 10.1759 16.8305 9.14022 15.1981 8.9417V7.99037C15.1981 7.66529 14.9604 7.43936 14.647 7.43936C14.3391 7.43936 14.1035 7.66529 14.1035 7.99037V8.90115H13.3439V7.99037C13.3439 7.66529 13.1159 7.43936 12.8025 7.43936C12.4849 7.43936 12.259 7.66529 12.259 7.99037V8.90115H11.7204C11.1096 8.90115 10.6934 9.31201 10.6934 9.94084V18.5713ZM12.4528 18.0868V14.8154H14.2877C15.8032 14.8154 16.586 15.3645 16.586 16.4469C16.586 17.5163 15.832 18.0676 14.3934 18.0772L12.4528 18.0868ZM12.4528 13.3515V10.3976H14.2774C15.4313 10.3976 16.0945 10.9041 16.0945 11.8137C16.0945 12.8141 15.3502 13.3707 13.9978 13.3611L12.4528 13.3515Z" fill="black"/>
</svg>
