<svg width="35" height="28" viewBox="0 0 35 28" fill="none" xmlns="http://www.w3.org/2000/svg">
<path d="M14.4942 23.3562H22.0498C25.042 23.3562 26.7867 21.6499 26.7867 18.7019V17.2821L31.0181 20.8718C31.5628 21.326 32.1248 21.6377 32.6749 21.6377C33.7483 21.6377 34.4744 20.8591 34.4744 19.7102V7.47915C34.4744 6.32814 33.7483 5.54955 32.6749 5.54955C32.1227 5.54955 31.5628 5.86126 31.0181 6.31548L26.7867 9.90517V8.42087C26.7867 5.48463 25.042 3.77838 22.0498 3.77838H9.85853C6.97197 3.77838 5.12158 5.48463 5.12158 8.42509V14.1914C5.46213 14.0034 5.85353 13.8952 6.27681 13.8952C6.66282 13.8952 7.03079 13.9896 7.35212 14.1499V8.75907C7.35212 6.81282 8.39767 5.8568 10.2415 5.8568H21.6668C23.4989 5.8568 24.5541 6.83602 24.5541 8.75907V18.3755C24.5541 20.2868 23.4884 21.266 21.6605 21.266H14.4942V23.3562ZM26.7867 14.7834V12.4038L31.8991 8.21297C31.9983 8.13516 32.0665 8.08078 32.1677 8.08078C32.2978 8.08078 32.3585 8.18742 32.3585 8.34305V18.8463C32.3585 18.9998 32.2978 19.099 32.1677 19.099C32.0665 19.099 31.9983 19.0425 31.8991 18.9743L26.7867 14.7834Z" fill="black"/>
<path d="M0.676171 23.108C1.07765 23.108 1.37578 22.8002 1.37578 22.4201V20.5587C1.37578 20.1785 1.07765 19.8708 0.676171 19.8708C0.298124 19.8708 0 20.1785 0 20.5587V22.4201C0 22.8002 0.298124 23.108 0.676171 23.108Z" fill="black"/>
<path d="M3.47438 25.1906C3.86837 25.1906 4.17399 24.885 4.17399 24.4952V18.4814C4.17399 18.0937 3.86837 17.7881 3.47438 17.7881C3.09423 17.7881 2.79071 18.0937 2.79071 18.4814V24.4952C2.79071 24.8871 3.09634 25.1906 3.47438 25.1906Z" fill="black"/>
<path d="M6.27471 27.1462C6.65487 27.1462 6.9626 26.8385 6.9626 26.4583V16.5396C6.9626 16.1456 6.65487 15.8421 6.27471 15.8421C5.88495 15.8421 5.58893 16.1498 5.58893 16.5396V26.4583C5.58893 26.8481 5.87323 27.1462 6.27471 27.1462Z" fill="black"/>
<path d="M9.05367 25.8077C9.45516 25.8077 9.75867 25.5 9.75867 25.1198V17.8568C9.75867 17.4745 9.45094 17.171 9.05367 17.171C8.68313 17.171 8.3775 17.4766 8.3775 17.8568V25.1198C8.3775 25.5 8.68313 25.8077 9.05367 25.8077Z" fill="black"/>
<path d="M11.8615 23.7152C12.2512 23.7152 12.5451 23.4267 12.5451 23.0273V19.9418C12.5451 19.5574 12.2491 19.2539 11.8615 19.2539C11.4675 19.2539 11.1736 19.5712 11.1736 19.9418V23.0273C11.1736 23.4192 11.4675 23.7152 11.8615 23.7152Z" fill="black"/>
</svg>
