<svg width="31" height="28" viewBox="0 0 31 28" fill="none" xmlns="http://www.w3.org/2000/svg">
<path d="M4.70601 26.8987C6.13125 26.8987 9.56555 25.3994 11.6737 23.8979C11.8983 23.7447 12.075 23.6882 12.2623 23.6882C12.4104 23.6978 12.5501 23.7074 12.6813 23.7074C13.803 23.7074 14.898 23.6158 15.8845 23.4442V21.1982C15.8845 19.738 17.0646 18.5655 18.5151 18.5655C18.6037 18.5655 18.6944 18.5847 18.7734 18.6135C18.7969 18.4963 18.8065 18.4248 18.8278 18.3353C19.1454 17.26 20.1293 16.4807 21.3133 16.4807C21.4209 16.4807 21.5114 16.5041 21.6073 16.533C21.6253 16.4392 21.6487 16.3347 21.6764 16.2355C22.0287 15.2573 22.9971 14.5368 24.104 14.5368C25.1037 14.5368 25.9617 15.0965 26.3751 15.9041C26.459 15.8945 26.5282 15.8849 26.6121 15.8891C26.9604 14.9083 27.1329 13.8817 27.1329 12.7989C27.1329 6.75673 21.1022 1.88501 13.5675 1.88501C6.0307 1.88501 0 6.75673 0 12.7989C0 16.5658 2.26852 19.9326 6.1125 22.0051C6.32414 22.1221 6.38484 22.2979 6.27633 22.5032C5.59055 23.634 4.44609 24.9105 3.98601 25.509C3.46992 26.1604 3.76781 26.8987 4.70601 26.8987Z" fill="black"/>
<path d="M18.5109 23.7475C18.9049 23.7475 19.2126 23.4419 19.2126 23.0596V21.1982C19.2126 20.818 18.9049 20.5103 18.5109 20.5103C18.135 20.5103 17.8273 20.818 17.8273 21.1982V23.0596C17.8273 23.4419 18.135 23.7475 18.5109 23.7475Z" fill="black"/>
<path d="M21.3112 25.8322C21.7052 25.8322 22.0012 25.5245 22.0012 25.1369V19.123C22.0012 18.7333 21.7052 18.4277 21.3112 18.4277C20.9215 18.4277 20.6255 18.7333 20.6255 19.123V25.1369C20.6255 25.5266 20.9236 25.8322 21.3112 25.8322Z" fill="black"/>
<path d="M24.1115 27.7858C24.4917 27.7858 24.7994 27.4801 24.7994 27.0979V17.1791C24.7994 16.7873 24.4917 16.4816 24.1115 16.4816C23.7197 16.4816 23.4162 16.7894 23.4162 17.1791V27.0979C23.4162 27.4897 23.7101 27.7858 24.1115 27.7858Z" fill="black"/>
<path d="M26.8905 26.4473C27.2899 26.4473 27.5859 26.1416 27.5859 25.7615V18.4984C27.5859 18.114 27.2878 17.8105 26.8905 17.8105C26.5104 17.8105 26.2123 18.1183 26.2123 18.4984V25.7615C26.2123 26.1416 26.5104 26.4473 26.8905 26.4473Z" fill="black"/>
<path d="M29.6983 24.3547C30.0881 24.3547 30.382 24.0683 30.382 23.6669V20.5813C30.382 20.1991 30.086 19.8934 29.6983 19.8934C29.3044 19.8934 29.0008 20.2108 29.0008 20.5813V23.6669C29.0008 24.0608 29.3044 24.3547 29.6983 24.3547Z" fill="black"/>
</svg>
