<svg width="28" height="28" viewBox="0 0 28 28" fill="none" xmlns="http://www.w3.org/2000/svg">
<path d="M14.105 26.21C20.7369 26.21 26.2121 20.7273 26.2121 14.105C26.2121 7.47312 20.7273 2 14.0954 2C7.47523 2 2 7.47312 2 14.105C2 20.7273 7.48484 26.21 14.105 26.21Z" fill="black"/>
<path d="M6.25787 14.1029C6.25787 12.1217 7.84599 10.5123 9.82716 10.5123C11.8179 10.5123 13.4178 12.1217 13.4178 14.1029C13.4178 14.9073 13.1546 15.6807 12.6516 16.2868H15.5572C15.0542 15.6807 14.791 14.9073 14.791 14.1029C14.791 12.1217 16.4005 10.5123 18.3816 10.5123C20.3628 10.5123 21.9605 12.1217 21.9605 14.1029C21.9605 16.0819 20.3628 17.6935 18.3816 17.6935H9.82716C7.84599 17.6935 6.25787 16.0819 6.25787 14.1029ZM7.70982 14.0912C7.70982 15.2708 8.65927 16.2319 9.83888 16.2319C11.0185 16.2319 11.9562 15.2825 11.9562 14.0912C11.9562 12.9233 11.0068 11.9738 9.83888 11.9738C8.6731 11.9738 7.70982 12.9233 7.70982 14.0912ZM16.2526 14.0912C16.2526 15.2825 17.1903 16.2319 18.3699 16.2319C19.5495 16.2319 20.499 15.2708 20.499 14.0912C20.499 12.9233 19.5378 11.9738 18.3699 11.9738C17.202 11.9738 16.2526 12.9233 16.2526 14.0912Z" fill="white"/>
</svg>
