<svg width="28" height="28" viewBox="0 0 28 28" fill="none" xmlns="http://www.w3.org/2000/svg">
<path d="M3.00033 13.5648C2.97595 18.2717 4.31845 22.5994 6.88556 25.1548C8.24563 26.517 9.63547 27.1358 11.6162 27.1294C14.0122 27.121 15.41 25.8373 15.0191 23.4118L14.2756 19.1616C14.0349 17.8412 13.1809 16.9048 11.78 16.8952H10.6545C10.0051 16.8952 9.72289 16.5776 9.64953 15.7177C9.60922 15.3303 9.59211 14.4994 9.59211 13.5648C9.59211 12.6301 9.60922 11.7992 9.64953 11.4118C9.72289 10.5519 10.0051 10.2343 10.6545 10.2343H11.78C13.1809 10.2343 14.0349 9.28836 14.2756 7.96789L15.0191 3.72524C15.41 1.31141 14.041 0.00641267 11.6162 8.48066e-05C9.63547 -0.00835235 8.24563 0.612506 6.88556 1.97258C4.31845 4.53969 2.97595 8.85571 3.00033 13.5648ZM5.03188 13.5648C5.01711 9.24501 6.16672 5.41297 8.3136 3.31625C9.15852 2.50227 10.1565 2.03445 11.3246 2.03445C12.5834 2.03445 13.3304 2.48188 13.0702 3.67227L12.3413 7.36344C12.2509 7.83922 11.9802 8.15539 11.4298 8.15539H10.1877C8.84376 8.15539 8.2018 8.95649 7.94329 10.1553C7.76774 10.9773 7.70915 12.2265 7.70915 13.5648C7.70915 14.903 7.76774 16.1501 7.94329 16.9838C8.2018 18.173 8.84376 18.9741 10.1877 18.9741H11.4298C11.9802 18.9741 12.2509 19.2882 12.3413 19.7661L13.0702 23.4572C13.3208 24.6263 12.6027 25.0951 11.3246 25.0951C10.1565 25.0951 9.15852 24.6272 8.3136 23.8112C6.16672 21.7144 5.01711 17.8845 5.03188 13.5648Z" fill="black"/>
<path d="M14.4812 14.5444H20.5876L22.8418 14.4294L20.536 16.4752L19.3477 17.6677C19.1647 17.8508 19.052 18.1114 19.052 18.3891C19.052 18.9455 19.4584 19.3306 19.9977 19.3306C20.27 19.3306 20.518 19.2263 20.7031 19.0433L25.3855 14.363C25.647 14.1111 25.7778 13.8294 25.7778 13.5648C25.7778 13.298 25.647 13.0088 25.3855 12.7548L20.7031 8.08623C20.518 7.90108 20.27 7.79889 19.9977 7.79889C19.4584 7.79889 19.052 8.18397 19.052 8.73076C19.052 9.0181 19.1647 9.26912 19.3477 9.45216L20.536 10.6543L22.8418 12.6905L20.5876 12.5734H14.4812C13.8842 12.5734 13.4982 13.0405 13.4982 13.5648C13.4982 14.0869 13.8842 14.5444 14.4812 14.5444Z" fill="black"/>
</svg>
