<svg width="28" height="28" viewBox="0 0 28 28" fill="none" xmlns="http://www.w3.org/2000/svg">
<path d="M8.39687 27.1131C9.04913 27.1131 9.53405 26.7937 10.3459 26.0807L14.3572 22.5294H21.4504C24.9784 22.5294 26.9547 20.503 26.9547 17.0251V7.93679C26.9547 4.45891 24.9784 2.4325 21.4504 2.4325H6.50218C2.97625 2.4325 1 4.4493 1 7.93679V17.0251C1 20.5126 3.02476 22.5294 6.42836 22.5294H6.9107V25.4181C6.9107 26.4533 7.45422 27.1131 8.39687 27.1131ZM8.96593 24.532V21.1863C8.96593 20.4986 8.67132 20.2335 8.01319 20.2335H6.56757C4.35225 20.2335 3.29592 19.1066 3.29592 16.9523V8.00007C3.29592 5.84569 4.35225 4.72842 6.56757 4.72842H21.3871C23.5928 4.72842 24.6588 5.84569 24.6588 8.00007V16.9523C24.6588 19.1066 23.5928 20.2335 21.3871 20.2335H14.2321C13.521 20.2335 13.1823 20.3484 12.6864 20.8497L8.96593 24.532Z" fill="black"/>
<path d="M8.01392 9.39742H19.8234C20.2258 9.39742 20.5441 9.07281 20.5441 8.665C20.5441 8.2743 20.2258 7.94641 19.8234 7.94641H8.01392C7.61572 7.94641 7.29205 8.2743 7.29205 8.665C7.29205 9.07281 7.61783 9.39742 8.01392 9.39742ZM8.01392 13.1355H19.8234C20.2258 13.1355 20.5441 12.8012 20.5441 12.3934C20.5441 12.0027 20.2258 11.6727 19.8234 11.6727H8.01392C7.61572 11.6727 7.29205 12.0048 7.29205 12.3934C7.29205 12.8012 7.61783 13.1355 8.01392 13.1355ZM8.01392 16.8639H15.7084C16.1109 16.8639 16.4249 16.5393 16.4249 16.1411C16.4249 15.7312 16.1109 15.4012 15.7084 15.4012H8.01392C7.61572 15.4012 7.29205 15.7333 7.29205 16.1411C7.29205 16.5393 7.61783 16.8639 8.01392 16.8639Z" fill="black"/>
</svg>
