<svg width="28" height="28" viewBox="0 0 28 28" fill="none" xmlns="http://www.w3.org/2000/svg">
<path d="M8.39687 27.1131C9.04913 27.1131 9.53405 26.7937 10.3459 26.0807L14.3572 22.5294H21.4504C24.9784 22.5294 26.9547 20.503 26.9547 17.0251V7.93679C26.9547 4.45891 24.9784 2.4325 21.4504 2.4325H6.50218C2.97625 2.4325 1 4.4493 1 7.93679V17.0251C1 20.5126 3.02476 22.5294 6.42836 22.5294H6.9107V25.4181C6.9107 26.4533 7.45422 27.1131 8.39687 27.1131ZM8.96593 24.532V21.1863C8.96593 20.4986 8.67132 20.2335 8.01319 20.2335H6.56757C4.35225 20.2335 3.29592 19.1066 3.29592 16.9523V8.00007C3.29592 5.84569 4.35225 4.72842 6.56757 4.72842H21.3871C23.5928 4.72842 24.6588 5.84569 24.6588 8.00007V16.9523C24.6588 19.1066 23.5928 20.2335 21.3871 20.2335H14.2321C13.521 20.2335 13.1823 20.3484 12.6864 20.8497L8.96593 24.532Z" fill="black"/>
<path d="M9.25185 17.1195H15.1938C16.3909 17.1195 17.0802 16.4377 17.0802 15.2691V9.72067C17.0802 8.55207 16.439 7.87988 15.2439 7.87988H9.25185C8.10692 7.87988 7.36536 8.55207 7.36536 9.72067V15.2944C7.36536 16.4651 8.06638 17.1195 9.25185 17.1195ZM17.7386 14.1668L19.8466 15.9506C20.0786 16.1412 20.3118 16.271 20.5417 16.271C20.9913 16.271 21.3023 15.9492 21.3023 15.4603V9.5484C21.3023 9.0616 20.9913 8.7377 20.5417 8.7377C20.3118 8.7377 20.0711 8.86754 19.8466 9.05059L17.7386 10.8515V14.1668Z" fill="black"/>
</svg>
