<svg width="28" height="28" viewBox="0 0 28 28" fill="none" xmlns="http://www.w3.org/2000/svg">
<path d="M6.84421 24.8972H21.0295C23.5685 24.8972 24.8737 23.5919 24.8737 21.0914V6.82921C24.8737 4.32656 23.5685 3.02344 21.0295 3.02344H6.84421C4.31484 3.02344 3 4.31695 3 6.82921V21.0914C3 23.6016 4.31484 24.8972 6.84421 24.8972Z" fill="black"/>
<path d="M13.9796 20.0072C13.4267 20.0072 13.0618 19.6221 13.0618 19.0266V17.5516H10.8701C10.5366 17.5516 10.2968 17.3065 10.2968 16.9751C10.2968 16.6458 10.527 16.3985 10.8701 16.3985H13.0618V15.498H10.8701C10.5366 15.498 10.2968 15.2508 10.2968 14.9194C10.2968 14.5805 10.527 14.3311 10.8701 14.3311H12.4866L9.65273 9.75283C9.52617 9.54541 9.46875 9.3626 9.46875 9.14135C9.46875 8.65011 9.87398 8.26831 10.4046 8.26831C10.7735 8.26831 11.0362 8.4087 11.25 8.78487L13.9817 13.508L16.7133 8.79237C16.9228 8.43636 17.1982 8.27581 17.5545 8.27581C18.0809 8.27581 18.4861 8.6555 18.4861 9.14464C18.4861 9.36799 18.4245 9.54869 18.2883 9.75822L15.4662 14.3311H17.1178C17.4631 14.3311 17.6911 14.5805 17.6911 14.9194C17.6911 15.2508 17.4631 15.498 17.1178 15.498H14.891V16.3985H17.1178C17.4631 16.3985 17.6911 16.6458 17.6911 16.9751C17.6911 17.3065 17.4631 17.5516 17.1178 17.5516H14.891V19.0341C14.891 19.6296 14.5346 20.0072 13.9796 20.0072Z" fill="white"/>
</svg>
