<svg width="28" height="28" viewBox="0 0 28 28" fill="none" xmlns="http://www.w3.org/2000/svg">
<path d="M6.84421 24.8972H21.0295C23.5685 24.8972 24.8737 23.5919 24.8737 21.0914V6.82921C24.8737 4.32656 23.5685 3.02344 21.0295 3.02344H6.84421C4.31484 3.02344 3 4.31695 3 6.82921V21.0914C3 23.6016 4.31484 24.8972 6.84421 24.8972ZM6.97733 22.6013C5.88772 22.6013 5.29592 22.0371 5.29592 20.8985V7.01999C5.29592 5.88139 5.88772 5.31936 6.97733 5.31936H20.8964C21.9764 5.31936 22.5778 5.88139 22.5778 7.01999V20.8985C22.5778 22.0371 21.9764 22.6013 20.8964 22.6013H6.97733Z" fill="black"/>
<path d="M9.71484 14.392C9.71484 16.5661 11.1551 18.026 13.0188 18.026C13.9692 18.026 14.7898 17.6552 15.2897 16.9957L15.2939 17.3948C15.315 17.842 15.6459 18.1498 16.1079 18.1498C16.6024 18.1498 16.9258 17.8167 16.9258 17.3062V9.96253H17.6421C17.9585 9.96253 18.1781 9.74081 18.1781 9.43073C18.1781 9.12065 17.9681 8.88932 17.6421 8.88932H16.9195V8.42713C16.9195 7.92581 16.5801 7.6012 16.0791 7.6012C15.5684 7.6012 15.2311 7.92581 15.2311 8.42713V8.88932H13.208C12.882 8.88932 12.6816 9.12065 12.6816 9.43073C12.6816 9.74081 12.8916 9.96253 13.208 9.96253H15.2248V11.7194C14.7398 11.1203 13.9427 10.7643 13.0071 10.7643C11.1413 10.7643 9.71484 12.2104 9.71484 14.392ZM11.4532 14.4037C11.4532 13.1264 12.2252 12.2671 13.3641 12.2671C14.4623 12.2671 15.2557 13.1744 15.2557 14.4037C15.2557 15.6384 14.4623 16.5361 13.3641 16.5361C12.2252 16.5361 11.4532 15.6886 11.4532 14.4037ZM10.302 19.305C10.302 19.613 10.5375 19.8581 10.8497 19.8581H16.7308C17.0409 19.8581 17.2765 19.613 17.2765 19.305C17.2765 18.9895 17.0505 18.7636 16.7308 18.7636H10.8497C10.5279 18.7636 10.302 18.9991 10.302 19.305Z" fill="black"/>
</svg>
