<svg width="28" height="28" viewBox="0 0 28 28" fill="none" xmlns="http://www.w3.org/2000/svg">
<path d="M8.39687 27.1131C9.04913 27.1131 9.53405 26.7937 10.3459 26.0807L14.3572 22.5294H21.4504C24.9784 22.5294 26.9547 20.503 26.9547 17.0251V7.93679C26.9547 4.45891 24.9784 2.4325 21.4504 2.4325H6.50218C2.97625 2.4325 1 4.4493 1 7.93679V17.0251C1 20.5126 3.02476 22.5294 6.42836 22.5294H6.9107V25.4181C6.9107 26.4533 7.45422 27.1131 8.39687 27.1131ZM8.96593 24.532V21.1863C8.96593 20.4986 8.67132 20.2335 8.01319 20.2335H6.56757C4.35225 20.2335 3.29592 19.1066 3.29592 16.9523V8.00007C3.29592 5.84569 4.35225 4.72842 6.56757 4.72842H21.3871C23.5928 4.72842 24.6588 5.84569 24.6588 8.00007V16.9523C24.6588 19.1066 23.5928 20.2335 21.3871 20.2335H14.2321C13.521 20.2335 13.1823 20.3484 12.6864 20.8497L8.96593 24.532Z" fill="black"/>
<path d="M13.7357 14.7981C14.3638 14.7981 14.7639 14.4252 14.7913 13.9577C14.7955 13.9108 14.7976 13.8543 14.7998 13.8191C14.8293 13.2156 15.2392 12.8106 15.9984 12.3159C17.1414 11.5722 17.8825 10.9072 17.8825 9.55583C17.8825 7.63161 16.1481 6.54224 14.099 6.54224C12.115 6.54224 10.7718 7.44505 10.4099 8.5274C10.3429 8.72333 10.3035 8.91716 10.3035 9.12693C10.3035 9.6838 10.7348 10.0241 11.2091 10.0241C11.6266 10.0241 11.9064 9.84294 12.13 9.5427L12.3156 9.29942C12.7068 8.66825 13.2667 8.32465 13.96 8.32465C14.9158 8.32465 15.5439 8.8834 15.5439 9.67067C15.5439 10.4127 15.0602 10.7699 14.0711 11.4531C13.2538 12.0264 12.6484 12.6243 12.6484 13.6799C12.6484 13.7205 12.6484 13.7685 12.6484 13.8091C12.6484 14.4606 13.0314 14.7981 13.7357 14.7981ZM13.709 18.3346C14.4477 18.3346 15.0569 17.8052 15.0569 17.0695C15.0569 16.3455 14.4573 15.8118 13.709 15.8118C12.9723 15.8118 12.3665 16.353 12.3665 17.0695C12.3665 17.7955 12.982 18.3346 13.709 18.3346Z" fill="black"/>
</svg>
