<svg width="28" height="28" viewBox="0 0 28 28" fill="none" xmlns="http://www.w3.org/2000/svg">
<path d="M5 12.5248C5 17.3442 8.21234 20.6533 12.8291 21.0895V23.4994H8.52569C7.9196 23.4994 7.41359 23.9906 7.41359 24.5988C7.41359 25.2007 7.9196 25.6865 8.52569 25.6865H19.2732C19.8814 25.6865 20.3874 25.2007 20.3874 24.5988C20.3874 23.9906 19.8814 23.4994 19.2732 23.4994H14.9719V21.0895C19.5982 20.6533 22.801 17.3442 22.801 12.5248V10.2028C22.801 9.59671 22.313 9.12562 21.7027 9.12562C21.0945 9.12562 20.5927 9.59671 20.5927 10.2028V12.446C20.5927 16.44 17.8983 19.0652 13.9053 19.0652C9.90263 19.0652 7.20826 16.44 7.20826 12.446V10.2028C7.20826 9.59671 6.71608 9.12562 6.09616 9.12562C5.48586 9.12562 5 9.59671 5 10.2028V12.5248ZM13.9053 16.6364C16.2753 16.6364 18.008 14.8544 18.008 12.2634V4.37507C18.008 1.77656 16.2753 0 13.9053 0C11.5236 0 9.78452 1.77445 9.78452 4.37296V12.2634C9.78452 14.8544 11.5236 16.6364 13.9053 16.6364Z" fill="black"/>
</svg>
