<svg width="28" height="28" viewBox="0 0 28 28" fill="none" xmlns="http://www.w3.org/2000/svg">
<path d="M14.105 26.21C20.7369 26.21 26.2121 20.7273 26.2121 14.105C26.2121 7.47312 20.7273 2 14.0954 2C7.47523 2 2 7.47312 2 14.105C2 20.7273 7.48484 26.21 14.105 26.21ZM14.105 23.8255C8.71085 23.8255 4.39412 19.4991 4.39412 14.105C4.39412 8.71085 8.70124 4.38452 14.0954 4.38452C19.4895 4.38452 23.8276 8.71085 23.8276 14.105C23.8276 19.4991 19.4991 23.8255 14.105 23.8255Z" fill="black"/>
<path d="M6.60077 14.1029C6.60077 15.9938 8.12842 17.5332 10.0194 17.5332H18.1894C20.0825 17.5332 21.608 15.9938 21.608 14.1029C21.608 12.2098 20.0825 10.6725 18.1894 10.6725C16.2985 10.6725 14.7591 12.2098 14.7591 14.1029C14.7591 14.8733 15.0181 15.6127 15.503 16.1966H12.7058C13.1907 15.6127 13.4497 14.8733 13.4497 14.1029C13.4497 12.2098 11.9199 10.6725 10.0194 10.6725C8.12842 10.6725 6.60077 12.2098 6.60077 14.1029ZM7.98592 14.0912C7.98592 12.9732 8.91311 12.0577 10.0311 12.0577C11.149 12.0577 12.0645 12.9732 12.0645 14.0912C12.0645 15.2326 11.1629 16.148 10.0311 16.148C8.90139 16.148 7.98592 15.2209 7.98592 14.0912ZM16.1443 14.0912C16.1443 12.9732 17.0598 12.0577 18.1777 12.0577C19.2957 12.0577 20.2229 12.9732 20.2229 14.0912C20.2229 15.2209 19.3074 16.148 18.1777 16.148C17.048 16.148 16.1443 15.2326 16.1443 14.0912Z" fill="black"/>
</svg>
