<svg width="28" height="28" viewBox="0 0 28 28" fill="none" xmlns="http://www.w3.org/2000/svg">
<path d="M14.105 26.21C20.7369 26.21 26.2121 20.7273 26.2121 14.105C26.2121 7.47312 20.7273 2 14.0954 2C7.47523 2 2 7.47312 2 14.105C2 20.7273 7.48484 26.21 14.105 26.21Z" fill="black"/>
<path d="M14.4014 19.8767C11.8757 19.8767 10.2513 18.2773 9.73777 15.8708H8.62308C8.29167 15.8708 8.0498 15.6097 8.0498 15.2825C8.0498 14.9457 8.29167 14.7155 8.62308 14.7155H9.57792C9.55659 14.5163 9.55659 14.3288 9.55659 14.1179C9.55659 13.8983 9.5662 13.7021 9.58542 13.4942H8.62308C8.29167 13.4942 8.0498 13.2352 8.0498 12.9176C8.0498 12.5691 8.29167 12.339 8.62308 12.339H9.75066C10.2921 9.9092 11.9847 8.38037 14.4014 8.38037C16.3913 8.38037 18.0089 9.38748 18.6361 10.9805C18.7296 11.2093 18.787 11.4423 18.787 11.6827C18.787 12.1955 18.4477 12.5349 17.921 12.5349C17.4506 12.5349 17.2038 12.354 17.0274 11.8451C16.6566 10.6915 15.604 10.0498 14.4546 10.0498C13.0929 10.0498 12.1631 10.9913 11.7473 12.339H14.6646C14.996 12.339 15.2475 12.5691 15.2475 12.9176C15.2475 13.2352 14.996 13.4942 14.6646 13.4942H11.5096C11.4979 13.7021 11.4787 13.9025 11.4787 14.12C11.4787 14.3213 11.4883 14.5184 11.5139 14.7155H14.6646C14.996 14.7155 15.2475 14.9457 15.2475 15.2825C15.2475 15.6097 14.996 15.8708 14.6646 15.8708H11.7281C12.1268 17.258 13.0577 18.2115 14.4546 18.2115C15.683 18.2115 16.7548 17.6059 17.1031 16.4387C17.2636 15.9662 17.535 15.7351 17.9958 15.7351C18.5234 15.7351 18.8712 16.0883 18.8712 16.5978C18.8712 16.831 18.818 17.045 18.7434 17.2548C18.0895 19.0358 16.3995 19.8767 14.4014 19.8767Z" fill="white"/>
</svg>
