<svg width="28" height="28" viewBox="0 0 28 28" fill="none" xmlns="http://www.w3.org/2000/svg">
<path d="M14.105 26.2301C20.7369 26.2301 26.2121 20.7549 26.2121 14.123C26.2121 7.50291 20.7273 2.01807 14.0954 2.01807C7.47523 2.01807 2 7.50291 2 14.123C2 20.7549 7.48484 26.2301 14.105 26.2301Z" fill="black"/>
<path d="M15.8621 20.2609C14.202 21.9263 11.2163 20.6811 8.5163 17.9694C5.75161 15.2122 4.55489 12.2551 6.19599 10.5926C6.80442 9.9917 7.28981 10.1698 7.81505 10.793L9.14044 12.4168C9.62302 13.0166 9.43341 13.3937 9.01364 13.8603L8.90302 13.9923C8.56013 14.3832 8.88216 15.0186 10.1719 16.3041C11.5364 17.6441 12.0544 17.9159 12.4838 17.5634L12.6062 17.4528C13.0494 17.0438 13.419 16.8296 14.0401 17.3377L15.6713 18.6706C16.3062 19.1574 16.4801 19.6695 15.8621 20.2609ZM11.3743 12.6629C10.9758 12.6629 10.7457 12.4156 10.7457 12.0076V10.9498C10.7457 10.5226 10.9758 10.3116 11.3743 10.3116H12.4512C12.8647 10.3116 13.0991 10.5226 13.0991 10.9498V12.0076C13.0991 12.4156 12.8647 12.6629 12.4512 12.6629H11.3743ZM14.4439 12.6629C14.0359 12.6629 13.7705 12.4156 13.7705 12.0076V10.9498C13.7705 10.5226 14.0359 10.3116 14.4439 10.3116H15.5166C15.9151 10.3116 16.1494 10.5226 16.1494 10.9498V12.0076C16.1494 12.4156 15.9151 12.6629 15.5166 12.6629H14.4439ZM17.4826 12.6629C17.0841 12.6629 16.8498 12.4156 16.8498 12.0076V10.9498C16.8498 10.5226 17.0841 10.3116 17.4826 10.3116H18.5553C18.9655 10.3116 19.2148 10.5226 19.2148 10.9498V12.0076C19.2148 12.4156 18.9655 12.6629 18.5553 12.6629H17.4826ZM20.5384 12.6629C20.142 12.6629 19.9098 12.4156 19.9098 12.0076V10.9498C19.9098 10.5226 20.142 10.3116 20.5384 10.3116H21.6132C22.0405 10.3116 22.2791 10.5226 22.2791 10.9498V12.0076C22.2791 12.4156 22.0405 12.6629 21.6132 12.6629H20.5384ZM11.3722 15.7229C10.9566 15.7229 10.7457 15.4927 10.7457 15.073V14.0077C10.7457 13.5826 10.9566 13.3695 11.3722 13.3695H12.4278C12.8647 13.3695 13.0991 13.5826 13.0991 14.0077V15.073C13.0991 15.4927 12.8647 15.7229 12.4278 15.7229H11.3722ZM14.4301 15.7229C14.022 15.7229 13.7705 15.4927 13.7705 15.073V14.0077C13.7705 13.5826 14.022 13.3695 14.4301 13.3695H18.5809C18.9868 13.3695 19.2191 13.5826 19.2191 14.0077V15.073C19.2191 15.4927 18.9868 15.7229 18.5809 15.7229H14.4301ZM20.5543 15.7229C20.1655 15.7229 19.9098 15.4927 19.9098 15.073V14.0077C19.9098 13.5826 20.1655 13.3695 20.5543 13.3695H21.6366C22.0564 13.3695 22.2791 13.5826 22.2791 14.0077V15.073C22.2791 15.4927 22.0564 15.7229 21.6366 15.7229H20.5543Z" fill="white"/>
</svg>
