<svg width="28" height="28" viewBox="0 0 28 28" fill="none" xmlns="http://www.w3.org/2000/svg">
<path d="M14.105 26.21C20.7369 26.21 26.2121 20.7273 26.2121 14.105C26.2121 7.47312 20.7273 2 14.0954 2C7.47523 2 2 7.47312 2 14.105C2 20.7273 7.48484 26.21 14.105 26.21ZM14.105 23.8255C8.71085 23.8255 4.39412 19.4991 4.39412 14.105C4.39412 8.71085 8.70124 4.38452 14.0954 4.38452C19.4895 4.38452 23.8276 8.71085 23.8276 14.105C23.8276 19.4991 19.4991 23.8255 14.105 23.8255Z" fill="black"/>
<path d="M9.36621 14.1104C9.36621 17.5327 11.2382 19.6362 14.1018 19.6362C16.1296 19.6362 17.6146 18.6387 18.1537 17.135C18.2282 16.9508 18.2676 16.7548 18.2772 16.5514C18.2772 16.081 17.942 15.766 17.441 15.766C17.0067 15.766 16.7481 16.0023 16.5855 16.4366C16.3115 17.3284 15.5038 17.9757 14.4531 18.0833V16.5275C14.4531 15.4426 15.134 14.6996 16.0816 14.6996C16.3181 14.6996 16.4779 14.7423 16.6164 14.7423C16.9563 14.7423 17.1864 14.5355 17.1864 14.2309C17.1864 13.8153 16.7676 13.5383 16.1263 13.5383C15.4443 13.5383 14.7984 13.891 14.4435 14.5613V14.086C14.4435 13.7173 14.2059 13.501 13.8841 13.501C13.5485 13.501 13.3204 13.7366 13.3204 14.086L13.3162 17.9863C11.9863 17.5909 11.1981 16.1687 11.1981 14.1008C11.1981 11.7308 12.3391 10.186 14.0985 10.186C15.262 10.186 16.176 10.891 16.533 11.8712C16.6914 12.2471 16.9181 12.5143 17.38 12.5143C17.8802 12.5143 18.1898 12.2014 18.1898 11.7193C18.1898 11.499 18.1441 11.267 18.0527 11.0605C17.4841 9.57805 15.941 8.58875 14.0849 8.58875C11.2424 8.58875 9.36621 10.7148 9.36621 14.1104Z" fill="black"/>
</svg>
