<svg width="35" height="28" viewBox="0 0 35 28" fill="none" xmlns="http://www.w3.org/2000/svg">
<path d="M8.05781 25.7524C8.72741 25.7524 9.29483 25.4761 10.0976 24.7777L14.8444 20.5507L13.5651 18.6455L8.62897 23.2446V19.9627C8.62897 19.2588 8.1989 18.9056 7.6221 18.9056H5.42976C3.47366 18.9056 2.29592 17.809 2.29592 15.7706V5.34794C2.29592 3.30747 3.47366 2.20121 5.42976 2.20121H21.9712C23.9273 2.20121 25.1051 3.30747 25.1051 5.34794V6.82404H27.401V5.10678C27.401 1.92678 25.4573 0.0288086 22.2424 0.0288086H5.15859C2.05359 0.0288086 0 1.92678 0 5.10678V16.0664C0 19.2117 2.02195 21.0705 5.08055 21.0705H6.56414V24.0959C6.56414 25.1205 7.11187 25.7524 8.05781 25.7524Z" fill="black"/>
<path d="M27.4999 27.1684C28.4266 27.1684 28.9743 26.5056 28.9743 25.4905V22.7961H29.5024C32.4649 22.7961 34.4388 20.9853 34.4388 17.9457V10.8153C34.4388 7.72178 32.4333 5.88147 29.4222 5.88147H17.6658C14.5469 5.88147 12.6588 7.72178 12.6588 10.8153V17.9457C12.6588 20.9949 14.5469 22.7961 17.6658 22.7961H21.6623L25.5701 26.1456C26.3419 26.8034 26.8805 27.1684 27.4999 27.1684ZM26.9191 24.6549L23.2354 21.3137C22.7182 20.8466 22.3019 20.649 21.6194 20.649H17.9116C16.0516 20.649 14.9219 19.6196 14.9219 17.6656L14.9315 11.0216C14.9315 9.07927 16.0516 8.03067 17.9116 8.03067H29.1881C31.0364 8.03067 32.1661 9.07927 32.1661 11.0216V17.6656C32.1661 19.6196 31.0364 20.649 29.1881 20.649H27.9185C27.3492 20.649 26.9191 21.0001 26.9191 21.6964V24.6549Z" fill="black"/>
</svg>
