<svg width="28" height="28" viewBox="0 0 28 28" fill="none" xmlns="http://www.w3.org/2000/svg">
<path d="M6.84421 24.8972H21.0295C23.5685 24.8972 24.8737 23.5919 24.8737 21.0914V6.82921C24.8737 4.32656 23.5685 3.02344 21.0295 3.02344H6.84421C4.31484 3.02344 3 4.31695 3 6.82921V21.0914C3 23.6016 4.31484 24.8972 6.84421 24.8972ZM6.97733 22.6013C5.88772 22.6013 5.29592 22.0371 5.29592 20.8985V7.01999C5.29592 5.88139 5.88772 5.31936 6.97733 5.31936H20.8964C21.9764 5.31936 22.5778 5.88139 22.5778 7.01999V20.8985C22.5778 22.0371 21.9764 22.6013 20.8964 22.6013H6.97733Z" fill="black"/>
<path d="M14.1139 20.7797C14.4294 20.7797 14.6649 20.5538 14.6649 20.217V19.4719C17.1181 19.2832 18.4571 17.5702 18.4571 14.9796V14.4696C18.4571 13.913 18.0997 13.5778 17.5529 13.5778H14.6649V10.1077C15.5675 10.2464 16.3034 10.863 16.5908 11.7066C16.7769 12.1488 16.9845 12.334 17.4369 12.334C17.9126 12.334 18.234 12.0094 18.234 11.5242C18.234 11.3112 18.185 11.127 18.1201 10.9352C17.6246 9.59649 16.2856 8.6543 14.6649 8.48906V7.72734C14.6649 7.39265 14.4294 7.17633 14.1139 7.17633C13.7963 7.17633 13.5512 7.39265 13.5512 7.72734V8.50828C11.0267 8.78344 9.42969 10.8422 9.42969 13.9798C9.42969 17.1666 11.0138 19.1745 13.5512 19.4602V20.217C13.5512 20.5538 13.7963 20.7797 14.1139 20.7797ZM13.5512 17.8552C12.1212 17.5397 11.2573 16.1004 11.2573 13.9713C11.2573 11.8669 12.1245 10.4318 13.5512 10.129V17.8552ZM14.6649 17.8957V15.0787H16.6712V15.307C16.6712 16.714 15.9298 17.708 14.6649 17.8957Z" fill="black"/>
</svg>
