<svg width="28" height="29" viewBox="0 0 28 29" fill="none" xmlns="http://www.w3.org/2000/svg">
<path d="M1.32437 24.6642L9.02007 17.0698L2.76249 10.9605C2.54382 10.7323 2.54803 10.4646 2.76671 10.2961L12.7748 2.66273C13.363 2.21296 13.6743 1.99546 14.1442 1.99546C14.6141 1.99546 14.9158 2.21296 15.5137 2.66273L25.5196 10.294C25.7404 10.4646 25.7425 10.744 25.5217 10.9648L19.2972 17.0698L26.9662 24.645C27.1778 24.281 27.2905 23.6679 27.2905 22.8098V11.216C27.2905 9.79242 27.0353 9.08485 25.9361 8.21813L16.7565 1.16601C15.7902 0.420938 15.0894 0 14.1442 0C13.2011 0 12.5003 0.420938 11.5319 1.16601L2.34272 8.21813C1.26484 9.07524 1 9.79242 1 11.216V22.8098C1 23.6871 1.11273 24.3002 1.32437 24.6642ZM4.5496 26.6156H23.4442C24.5938 26.6156 25.4045 26.4089 25.855 25.9997L15.6386 15.8688C15.1103 15.3405 14.6587 15.1073 14.1634 15.1073C13.6586 15.1073 13.2091 15.3405 12.6883 15.8688L2.41421 26.0498C2.83374 26.4281 3.54624 26.6156 4.5496 26.6156Z" fill="black"/>
</svg>
