<svg width="28" height="28" viewBox="0 0 28 28" fill="none" xmlns="http://www.w3.org/2000/svg">
<path d="M7.1564 5.77078H10.9884C13.8471 5.77078 15.5081 7.19343 15.5081 9.7275C15.5081 12.2967 13.8886 13.6629 10.9116 13.6629H7.6814C6.69187 13.6629 6.18023 14.3311 6.18023 15.0555C6.18023 15.4896 6.34617 15.9299 6.71742 16.2799L15.0919 24.239C16.5755 25.6671 18.442 23.7316 17.0452 22.4051L10.1979 15.9632H11.4543C16.3371 15.9632 18.4158 12.7798 18.4158 9.71625C18.4158 7.6868 17.6876 5.98642 16.2893 4.9329H20.3018C20.7131 4.9329 21.052 4.60571 21.052 4.19649C21.052 3.77555 20.7131 3.44836 20.3018 3.44836H7.1564C6.51703 3.44836 6 3.975 6 4.61438C6 5.24414 6.51703 5.77078 7.1564 5.77078ZM6.93539 10.481H20.3018C20.7131 10.481 21.052 10.1538 21.052 9.735C21.052 9.32368 20.7131 8.99649 20.3018 8.99649H6.93539C6.52617 8.99649 6.18726 9.32368 6.18726 9.735C6.18726 10.1538 6.52617 10.481 6.93539 10.481Z" fill="black"/>
</svg>
