<svg width="28" height="28" viewBox="0 0 28 28" fill="none" xmlns="http://www.w3.org/2000/svg">
<path d="M8.39687 27.1131C9.04913 27.1131 9.53405 26.7937 10.3459 26.0807L14.3572 22.5294H21.4504C24.9784 22.5294 26.9547 20.503 26.9547 17.0251V7.93679C26.9547 4.45891 24.9784 2.4325 21.4504 2.4325H6.50218C2.97625 2.4325 1 4.4493 1 7.93679V17.0251C1 20.5126 3.02476 22.5294 6.42836 22.5294H6.9107V25.4181C6.9107 26.4533 7.45422 27.1131 8.39687 27.1131ZM8.96593 24.532V21.1863C8.96593 20.4986 8.67132 20.2335 8.01319 20.2335H6.56757C4.35225 20.2335 3.29592 19.1066 3.29592 16.9523V8.00007C3.29592 5.84569 4.35225 4.72842 6.56757 4.72842H21.3871C23.5928 4.72842 24.6588 5.84569 24.6588 8.00007V16.9523C24.6588 19.1066 23.5928 20.2335 21.3871 20.2335H14.2321C13.521 20.2335 13.1823 20.3484 12.6864 20.8497L8.96593 24.532Z" fill="black"/>
<path d="M13.5086 17.6385C13.911 17.6385 14.2314 17.3223 14.2314 16.9082V8.07298C14.2314 7.65884 13.911 7.32556 13.499 7.32556C13.1976 7.32556 13.007 7.45446 12.6939 7.73993L10.2447 10.0359C10.202 10.071 10.1615 10.0806 10.1071 10.0806H8.47935C7.64755 10.0806 7.18958 10.5428 7.18958 11.4194V13.5522C7.18958 14.4287 7.64755 14.893 8.47935 14.893H10.1071C10.1615 14.893 10.202 14.9027 10.2447 14.9336L12.6939 17.2551C12.974 17.5171 13.2051 17.6385 13.5086 17.6385Z" fill="black"/>
<path d="M16.157 15.0998C16.4477 15.3053 16.8278 15.2169 17.0409 14.9369C17.515 14.3137 17.7909 13.4165 17.7909 12.4724C17.7909 11.5551 17.5075 10.6578 17.0409 10.0154C16.8395 9.72783 16.4498 9.65119 16.157 9.85252C15.843 10.0752 15.7855 10.4659 16.0218 10.8233C16.3192 11.2209 16.4941 11.8349 16.4941 12.4724C16.4941 13.0886 16.3075 13.7027 16.0218 14.129C15.7877 14.4981 15.843 14.8708 16.157 15.0998Z" fill="black"/>
<path d="M18.3189 16.6255C18.6309 16.8194 19.0035 16.7523 19.1994 16.4542C19.9752 15.343 20.41 13.9492 20.41 12.4745C20.41 11.0266 19.9848 9.63271 19.2091 8.50443C18.9939 8.19458 18.6116 8.11794 18.3189 8.31177C18.0081 8.54075 17.9516 8.92396 18.187 9.26239C18.7902 10.1298 19.1228 11.2712 19.1228 12.4745C19.1228 13.6682 18.7902 14.8459 18.1773 15.6845C17.942 16.0251 17.9868 16.4275 18.3189 16.6255Z" fill="black"/>
</svg>
