<svg width="28" height="28" viewBox="0 0 28 28" fill="none" xmlns="http://www.w3.org/2000/svg">
<path d="M14.105 26.21C20.7369 26.21 26.2121 20.7273 26.2121 14.105C26.2121 7.47312 20.7273 2 14.0954 2C7.47523 2 2 7.47312 2 14.105C2 20.7273 7.48484 26.21 14.105 26.21ZM14.105 23.8255C8.71085 23.8255 4.39412 19.4991 4.39412 14.105C4.39412 8.71085 8.70124 4.38452 14.0954 4.38452C19.4895 4.38452 23.8276 8.71085 23.8276 14.105C23.8276 19.4991 19.4991 23.8255 14.105 23.8255Z" fill="black"/>
<path d="M9.29883 16.5127C9.29883 16.8282 9.51305 17.0659 9.84985 17.0659H10.4299L9.93047 18.5396C9.87938 18.7217 9.86555 18.8516 9.86555 18.9643C9.86555 19.4387 10.2145 19.7633 10.7358 19.7633C11.1867 19.7633 11.4656 19.5453 11.5933 19.1005L12.2227 17.0659H15.9509L16.5823 19.1101C16.71 19.557 16.9781 19.7633 17.4366 19.7633C17.9536 19.7633 18.3101 19.4387 18.3101 18.9643C18.3101 18.8516 18.2845 18.7217 18.2259 18.5396L17.7265 17.0659H18.33C18.6668 17.0659 18.881 16.8282 18.881 16.5127C18.881 16.1951 18.6668 15.95 18.33 15.95H17.3801L17.0688 15.0015H18.33C18.6668 15.0015 18.881 14.7563 18.881 14.4387C18.881 14.1233 18.6668 13.8856 18.33 13.8856H16.7032L15.2374 9.40062C15.0652 8.86062 14.6805 8.5332 14.0841 8.5332C13.4738 8.5332 13.0913 8.85101 12.919 9.40062L11.4607 13.8856H9.84985C9.51305 13.8856 9.29883 14.1233 9.29883 14.4387C9.29883 14.7563 9.51305 15.0015 9.84985 15.0015H11.0972L10.7859 15.95H9.84985C9.51305 15.95 9.29883 16.1951 9.29883 16.5127ZM12.5456 15.95L12.8409 15.0015H15.3251L15.6204 15.95H12.5456ZM13.1714 13.8856L14.0841 10.9116L14.9925 13.8856H13.1714Z" fill="black"/>
</svg>
