<svg width="28" height="28" viewBox="0 0 28 28" fill="none" xmlns="http://www.w3.org/2000/svg">
<path d="M14.105 26.2301C20.7369 26.2301 26.2121 20.7549 26.2121 14.123C26.2121 7.50291 20.7273 2.01807 14.0954 2.01807C7.47523 2.01807 2 7.50291 2 14.123C2 20.7549 7.48484 26.2301 14.105 26.2301Z" fill="black"/>
<path d="M14.1155 10.6815C12.2258 10.6815 11.4676 10.9203 11.4676 11.4104V11.6084C11.4676 12.2942 11.2686 12.7151 10.4471 12.7993L8.23929 13.0294C7.36366 13.1211 6.84827 12.8595 6.84827 11.9401C6.84827 11.9401 6.84827 11.9476 6.84827 11.938C6.84827 9.45171 9.97741 8.13007 14.1155 8.13007C18.2633 8.13007 21.3924 9.46132 21.3924 11.938V11.9401C21.3903 12.8616 20.8887 13.1211 20.0206 13.0294L17.7936 12.7993C16.9721 12.7151 16.7827 12.2942 16.7827 11.6084V11.42C16.7827 10.8798 16.1537 10.6815 14.1155 10.6815ZM8.60023 16.5251C8.13687 16.5251 7.86312 16.2823 7.86312 15.819V14.6823C7.86312 14.2423 8.14109 13.9782 8.60023 13.9782H9.71773C10.1576 13.9782 10.4143 14.2444 10.4143 14.6823V15.819C10.4143 16.2802 10.1598 16.5251 9.71773 16.5251H8.60023ZM11.8869 16.5251C11.4172 16.5251 11.1765 16.2823 11.1765 15.819V14.6823C11.1765 14.2423 11.4214 13.9782 11.8869 13.9782H13.0721C13.5141 13.9782 13.79 14.2423 13.79 14.6823V15.819C13.79 16.2823 13.5162 16.5251 13.0721 16.5251H11.8869ZM15.2391 16.5251C14.795 16.5251 14.5255 16.2823 14.5255 15.819V14.6823C14.5255 14.2423 14.7971 13.9782 15.2391 13.9782H16.3524C16.8179 13.9782 17.0724 14.2423 17.0724 14.6823V15.819C17.0724 16.2823 16.82 16.5251 16.3524 16.5251H15.2391ZM18.5333 16.5251C18.0678 16.5251 17.8154 16.2823 17.8154 15.819V14.6823C17.8154 14.2423 18.0699 13.9782 18.5333 13.9782H19.6541C20.1003 13.9782 20.3783 14.2423 20.3783 14.6823V15.819C20.3783 16.2823 20.1024 16.5251 19.6541 16.5251H18.5333ZM8.5789 19.8289C8.13476 19.8289 7.86312 19.5882 7.86312 19.1227V17.9764C7.86312 17.544 8.13687 17.2681 8.5789 17.2681H9.70601C10.1576 17.2681 10.4143 17.544 10.4143 17.9764V19.1227C10.4143 19.5882 10.1598 19.8289 9.70601 19.8289H8.5789ZM11.873 19.8289C11.4172 19.8289 11.1765 19.5882 11.1765 19.1227V17.9764C11.1765 17.544 11.4214 17.2681 11.873 17.2681H16.3876C16.8275 17.2681 17.0724 17.544 17.0724 17.9764V19.1227C17.0724 19.5861 16.8317 19.8289 16.3876 19.8289H11.873ZM18.545 19.8289C18.0891 19.8289 17.8175 19.5882 17.8175 19.1227V17.9764C17.8175 17.544 18.0912 17.2681 18.545 17.2681H19.67C20.1195 17.2681 20.3783 17.544 20.3783 17.9764V19.1227C20.3783 19.5882 20.1237 19.8289 19.67 19.8289H18.545Z" fill="white"/>
</svg>
