<svg width="28" height="28" viewBox="0 0 28 28" fill="none" xmlns="http://www.w3.org/2000/svg">
<path d="M18.3323 26.164C20.3798 26.164 21.7675 25.5752 23.0219 24.2034C23.1135 24.1118 23.1934 24.0105 23.2851 23.9168C23.9713 23.1422 24.3142 22.335 24.3142 21.5861C24.3142 20.7108 23.8368 19.9172 22.7896 19.1885L19.3035 16.7665C18.2024 16.0062 16.9403 15.941 15.9538 16.9221L15.081 17.797C14.7756 18.1045 14.4927 18.1204 14.1452 17.8804C13.5198 17.4588 12.3163 16.4046 11.4913 15.5817C10.649 14.749 9.79842 13.7876 9.33928 13.0746C9.10561 12.727 9.12694 12.4558 9.43233 12.1483L10.2977 11.2755C11.2905 10.289 11.2274 9.01731 10.465 7.92794L7.98484 4.39122C7.28687 3.3799 6.46163 2.90154 5.58414 2.89193C4.82898 2.88232 4.04289 3.21372 3.26617 3.89576C3.16492 3.98529 3.07117 4.06521 2.97836 4.1388C1.59297 5.41638 1 6.78513 1 8.90317C1 12.3581 3.00344 16.4341 6.89828 20.3079C10.7718 24.1582 14.8131 26.164 18.3323 26.164ZM18.3271 24.2074C15.3409 24.2576 11.608 22.1168 8.3746 18.914C5.12195 15.69 2.91366 11.8303 2.96382 8.84411C2.98304 7.58247 3.42624 6.47973 4.32249 5.71028C4.40124 5.63364 4.4821 5.56661 4.57046 5.5038C4.89343 5.2202 5.25695 5.06879 5.57242 5.06879C5.91976 5.06879 6.22656 5.20403 6.45343 5.55559L8.66359 8.85817C8.935 9.25942 8.94578 9.71387 8.54875 10.1046L7.60187 11.043C6.71195 11.9086 6.79281 12.914 7.36187 13.7097C7.99609 14.5994 9.17734 15.9394 10.1608 16.9143C11.2108 17.9559 12.6562 19.2447 13.51 19.8675C14.3078 20.4386 15.3229 20.5099 16.1863 19.6275L17.1248 18.6827C17.5155 18.2836 17.9603 18.2986 18.3637 18.5582L21.6156 20.7178C21.9735 20.9543 22.112 21.2515 22.112 21.5967C22.112 21.9218 21.9627 22.2757 21.6674 22.6104C21.6046 22.6987 21.5472 22.77 21.4705 22.8583C20.6915 23.745 19.5887 24.1882 18.3271 24.2074Z" fill="black"/>
<path d="M13.8766 13.3275C14.5178 13.9666 15.5425 13.9666 16.1816 13.3275C16.8133 12.6862 16.8133 11.6615 16.1816 11.0416C15.5425 10.3886 14.5178 10.3886 13.8766 11.0224C13.2353 11.6615 13.2353 12.6862 13.8766 13.3275ZM15.0557 6.74459C14.6512 7.14162 14.6512 7.80161 15.0557 8.19864L19.0054 12.1558C19.4045 12.555 20.0624 12.5529 20.4573 12.1558C20.8565 11.7609 20.8565 11.103 20.4573 10.7039L16.5001 6.74459C16.101 6.34756 15.4431 6.34756 15.0557 6.74459ZM19.3356 7.88763C19.9748 8.50005 20.9994 8.50966 21.6311 7.86841C22.2606 7.23888 22.2606 6.2142 21.6311 5.58256C20.9994 4.94131 19.9651 4.94131 19.3356 5.57084C18.6923 6.2142 18.6923 7.22927 19.3356 7.88763ZM20.5126 1.29935C20.1156 1.69428 20.1177 2.34466 20.5126 2.7513L24.4527 6.69888C24.8615 7.10763 25.5194 7.10763 25.9143 6.69888C26.3134 6.30185 26.3134 5.65357 25.9143 5.25443L21.9688 1.29935C21.5601 0.900215 20.9022 0.900215 20.5126 1.29935Z" fill="black"/>
</svg>
