<svg width="28" height="28" viewBox="0 0 28 28" fill="none" xmlns="http://www.w3.org/2000/svg">
<path d="M14.105 26.21C20.7369 26.21 26.2121 20.7273 26.2121 14.105C26.2121 7.47312 20.7273 2 14.0954 2C7.47523 2 2 7.47312 2 14.105C2 20.7273 7.48484 26.21 14.105 26.21Z" fill="black"/>
<path d="M9.012 19.568C8.50106 19.568 8.14551 19.22 8.14551 18.7091V9.89163C8.14551 9.1278 8.51583 8.65718 9.2316 8.65718H11.0916C13.0906 8.65718 14.0852 9.78944 14.0852 11.7179C14.0852 12.9772 13.5609 14.2229 12.5984 14.6075L14.0864 18.3854C14.3686 19.137 13.8192 19.5554 13.2623 19.5554C12.9218 19.5554 12.5951 19.3958 12.4577 19.0062L10.9409 14.9586C10.8577 14.9682 10.7916 14.9682 10.718 14.9682H9.87637V18.7091C9.87637 19.22 9.52293 19.568 9.012 19.568ZM9.87637 13.6512H10.8863C11.8981 13.6512 12.3267 12.8743 12.3267 11.7955C12.3267 10.6967 11.8789 10.0454 10.8767 10.0454H9.87637V13.6512ZM18.0103 20.3272C17.7312 20.3272 17.5064 20.0949 17.5064 19.8137V18.9533C16.0938 18.7871 15.2161 17.8986 15.0551 16.6953C14.9677 16.0594 15.3628 15.6868 15.8269 15.6868C16.1655 15.6868 16.4552 15.9104 16.5211 16.313C16.5977 16.9573 16.9038 17.4073 17.5064 17.5384V14.6977L17.0402 14.4699C15.8041 13.8411 15.0445 13.0419 15.0445 11.7294C15.0445 10.3051 16.0587 9.32491 17.5064 9.16835V8.32718C17.5064 8.05554 17.7312 7.82327 18.0103 7.82327C18.2862 7.82327 18.5184 8.05554 18.5184 8.32718V9.18007C19.8563 9.37929 20.6447 10.3006 20.7727 11.4071C20.8718 12.1037 20.4616 12.4252 20.0018 12.4252C19.6526 12.4252 19.3458 12.1941 19.2895 11.7894C19.2321 11.24 18.9729 10.8005 18.5184 10.6311V13.3855L18.9633 13.6229C20.3442 14.3551 20.9866 15.1648 20.9866 16.3229C20.9866 17.8271 19.977 18.785 18.5184 18.9608V19.8137C18.5184 20.0949 18.2862 20.3272 18.0103 20.3272ZM17.5064 10.5673C16.9795 10.7016 16.6563 11.0855 16.6563 11.6455C16.6563 12.2309 17.0243 12.5722 17.4584 12.826L17.5064 12.8548V10.5673ZM18.5184 17.5447C19.0741 17.4179 19.392 17.0094 19.392 16.4516C19.392 15.9397 19.0261 15.5483 18.5473 15.2497L18.5184 15.2401V17.5447Z" fill="white"/>
</svg>
