<svg width="28" height="28" viewBox="0 0 28 28" fill="none" xmlns="http://www.w3.org/2000/svg">
<path d="M14.105 26.21C20.7369 26.21 26.2121 20.7273 26.2121 14.105C26.2121 7.47312 20.7273 2 14.0954 2C7.47523 2 2 7.47312 2 14.105C2 20.7273 7.48484 26.21 14.105 26.21Z" fill="black"/>
<path d="M9.62082 18.8724C9.62082 18.4339 9.85262 18.1583 10.3106 17.9734C11.055 17.7327 11.6653 17.0938 11.7804 16.1518C11.7942 16.0112 11.8059 15.8928 11.7984 15.7681H10.2543C9.8866 15.7681 9.6084 15.5091 9.6084 15.1414C9.6084 14.7716 9.88449 14.5222 10.2543 14.5222H11.6446C11.5711 14.1854 11.4644 13.8519 11.392 13.5151H10.2543C9.8866 13.5151 9.6084 13.2561 9.6084 12.8884C9.6084 12.5185 9.88449 12.2691 10.2543 12.2691H11.1886C11.1747 12.1522 11.1609 12.0566 11.1609 11.9396C11.1609 9.71561 12.6991 8.27631 15.2563 8.27631C16.098 8.27631 16.8147 8.37311 17.3805 8.62858C17.7981 8.80951 17.9568 9.08631 17.9568 9.43014C17.9568 9.88341 17.6781 10.1581 17.1874 10.1389C16.7681 10.1004 16.2977 9.90849 15.4302 9.90849C13.9082 9.90849 13.0361 10.7295 13.0361 11.9269C13.0361 12.0516 13.0478 12.1688 13.0574 12.2691H16.4074C16.7847 12.2691 17.0533 12.5185 17.0533 12.8884C17.0533 13.2561 16.7847 13.5151 16.4074 13.5151H13.2759C13.3558 13.8402 13.4411 14.1694 13.5264 14.5222H16.4074C16.7847 14.5222 17.0533 14.7716 17.0533 15.1414C17.0533 15.5091 16.7847 15.7681 16.4074 15.7681H13.6258C13.6216 15.943 13.6077 16.1082 13.5822 16.2734C13.4671 16.9902 13.1493 17.6588 12.6684 18.0512H17.5701C18.0712 18.0512 18.4223 18.3746 18.4223 18.8661C18.4223 19.3672 18.0712 19.6906 17.5701 19.6906H10.4517C9.9548 19.6906 9.62082 19.3735 9.62082 18.8724Z" fill="white"/>
</svg>
