<svg width="28" height="28" viewBox="0 0 28 28" fill="none" xmlns="http://www.w3.org/2000/svg">
<path d="M13.0583 16.7986C13.0583 13.5865 10.754 11.0979 7.74155 11.0979C6.2964 11.0979 4.98483 11.6445 4.02694 12.7205H3.64093C4.28054 10.5753 6.32827 8.6963 9.00436 7.95778C9.37819 7.84481 9.65405 7.73301 9.82866 7.56919C10.0204 7.4063 10.1258 7.19137 10.1258 6.90497C10.1258 6.37481 9.70866 6.00122 9.10937 6.00122C8.6596 6.00122 8.32773 6.08208 7.74367 6.27145C6.16023 6.79669 4.70922 7.71192 3.57156 8.90817C1.94734 10.5952 1 12.8436 1 15.4514C1 19.9683 3.84601 22.5872 7.26741 22.5872C10.5765 22.5872 13.0583 20.1009 13.0583 16.7986ZM27.5418 16.7986C27.5418 13.5865 25.2257 11.0979 22.225 11.0979C20.7777 11.0979 19.4544 11.6445 18.5104 12.7205H18.1201C18.764 10.5753 20.8096 8.6963 23.4782 7.95778C23.8499 7.84481 24.1375 7.73301 24.31 7.56919C24.5017 7.4063 24.5997 7.19137 24.5997 6.90497C24.5997 6.37481 24.19 6.00122 23.5928 6.00122C23.1313 6.00122 22.8112 6.08208 22.2175 6.27145C20.6437 6.79669 19.183 7.71192 18.0433 8.90817C16.4308 10.5952 15.4834 12.8436 15.4834 15.4514C15.4834 19.9683 18.3294 22.5872 21.7487 22.5872C25.06 22.5872 27.5418 20.1009 27.5418 16.7986Z" fill="black"/>
</svg>
