<svg width="28" height="28" viewBox="0 0 28 28" fill="none" xmlns="http://www.w3.org/2000/svg">
<path d="M8.01578 27.2622C8.50023 27.2622 8.87382 27.0299 9.45835 26.489L13.7626 22.5944H21.4504C24.9784 22.5944 26.9547 20.5777 26.9547 17.0998V8.01138C26.9547 4.53349 24.9784 2.50708 21.4504 2.50708H6.50218C2.97625 2.50708 1 4.52388 1 8.01138V17.0998C1 20.5872 3.02476 22.5944 6.42836 22.5944H6.90109V25.9898C6.90109 26.7606 7.30984 27.2622 8.01578 27.2622Z" fill="black"/>
<path d="M11.9983 18.8042C11.481 18.8042 11.0915 18.4348 11.0915 17.9133C11.0915 17.4312 11.481 17.0417 11.9983 17.0417H13.3368V12.3415H12.1963C11.6866 12.3415 11.2874 11.9796 11.2874 11.4602C11.2874 10.9781 11.6866 10.5886 12.1963 10.5886H14.3437C14.9758 10.5886 15.3142 11.041 15.3142 11.7124V17.0417H16.5662C17.0835 17.0417 17.473 17.4312 17.473 17.9133C17.473 18.4348 17.0835 18.8042 16.5662 18.8042H11.9983ZM13.9152 8.84458C13.0645 8.84458 12.3681 8.14614 12.3681 7.28786C12.3681 6.41904 13.0645 5.72693 13.9152 5.72693C14.7756 5.72693 15.4623 6.41904 15.4623 7.28786C15.4623 8.14614 14.7756 8.84458 13.9152 8.84458Z" fill="white"/>
</svg>
