<svg width="28" height="28" viewBox="0 0 28 28" fill="none" xmlns="http://www.w3.org/2000/svg">
<path d="M8.39687 27.1131C9.04913 27.1131 9.53405 26.7937 10.3459 26.0807L14.3572 22.5294H21.4504C24.9784 22.5294 26.9547 20.503 26.9547 17.0251V7.93679C26.9547 4.45891 24.9784 2.4325 21.4504 2.4325H6.50218C2.97625 2.4325 1 4.4493 1 7.93679V17.0251C1 20.5126 3.02476 22.5294 6.42836 22.5294H6.9107V25.4181C6.9107 26.4533 7.45422 27.1131 8.39687 27.1131ZM8.96593 24.532V21.1863C8.96593 20.4986 8.67132 20.2335 8.01319 20.2335H6.56757C4.35225 20.2335 3.29592 19.1066 3.29592 16.9523V8.00007C3.29592 5.84569 4.35225 4.72842 6.56757 4.72842H21.3871C23.5928 4.72842 24.6588 5.84569 24.6588 8.00007V16.9523C24.6588 19.1066 23.5928 20.2335 21.3871 20.2335H14.2321C13.521 20.2335 13.1823 20.3484 12.6864 20.8497L8.96593 24.532Z" fill="black"/>
<path d="M12.7286 18.0549C13.1491 18.0549 13.5152 17.8463 13.7568 17.4598L18.9962 9.27231C19.1537 9.02856 19.2955 8.74638 19.2955 8.48013C19.2955 7.89583 18.7783 7.50537 18.2249 7.50537C17.8738 7.50537 17.5534 7.70974 17.3151 8.09599L12.6805 15.5274L10.5006 12.75C10.2226 12.3792 9.93833 12.2665 9.5945 12.2665C9.01771 12.2665 8.57404 12.7231 8.57404 13.2999C8.57404 13.5809 8.67201 13.8375 8.8656 14.0897L11.6385 17.4682C11.9601 17.8676 12.2943 18.0549 12.7286 18.0549Z" fill="black"/>
</svg>
