<svg width="28" height="28" viewBox="0 0 28 28" fill="none" xmlns="http://www.w3.org/2000/svg">
<path d="M6.84421 24.8972H21.0295C23.5685 24.8972 24.8737 23.5919 24.8737 21.0914V6.82921C24.8737 4.32656 23.5685 3.02344 21.0295 3.02344H6.84421C4.31484 3.02344 3 4.31695 3 6.82921V21.0914C3 23.6016 4.31484 24.8972 6.84421 24.8972ZM6.97733 22.6013C5.88772 22.6013 5.29592 22.0371 5.29592 20.8985V7.01999C5.29592 5.88139 5.88772 5.31936 6.97733 5.31936H20.8964C21.9764 5.31936 22.5778 5.88139 22.5778 7.01999V20.8985C22.5778 22.0371 21.9764 22.6013 20.8964 22.6013H6.97733Z" fill="black"/>
<path d="M13.9386 19.62C14.4577 19.62 14.8311 19.2816 14.8311 18.702V16.2246L16.7305 15.3994C16.9916 15.2789 17.1184 15.1031 17.1184 14.8559C17.1184 14.5404 16.8999 14.3123 16.5866 14.3123C16.4874 14.3123 16.3808 14.3433 16.2913 14.3763L14.8311 15.0288V13.9619L16.7305 13.1271C16.9916 13.0184 17.1184 12.8405 17.1184 12.5932C17.1184 12.2777 16.8999 12.0401 16.577 12.0401C16.4874 12.0401 16.4 12.0731 16.3009 12.1041L14.8311 12.7683V10.2708H17.4578C17.9441 10.2708 18.2846 9.94196 18.2846 9.46524C18.2846 8.98852 17.9441 8.66931 17.4578 8.66931H10.412C9.92566 8.66931 9.58301 8.98852 9.58301 9.46524C9.58301 9.94196 9.92566 10.2708 10.412 10.2708H13.0365V13.4728L11.1606 14.2863C10.892 14.4164 10.7748 14.5826 10.7748 14.8202C10.7748 15.1357 10.9932 15.3734 11.3162 15.3734C11.4036 15.3734 11.5028 15.3403 11.5998 15.3094L13.0365 14.659V15.7355L11.1606 16.5565C10.892 16.6769 10.7748 16.8452 10.7748 17.0925C10.7748 17.4059 10.9932 17.636 11.3162 17.636C11.4036 17.636 11.5028 17.6126 11.5998 17.572L13.0365 16.9291V18.702C13.0365 19.2816 13.4099 19.62 13.9386 19.62Z" fill="black"/>
</svg>
