<svg width="28" height="28" viewBox="0 0 28 28" fill="none" xmlns="http://www.w3.org/2000/svg">
<path d="M8.39687 27.1131C9.04913 27.1131 9.53405 26.7937 10.3459 26.0807L14.3572 22.5294H21.4504C24.9784 22.5294 26.9547 20.503 26.9547 17.0251V7.93679C26.9547 4.45891 24.9784 2.4325 21.4504 2.4325H6.50218C2.97625 2.4325 1 4.4493 1 7.93679V17.0251C1 20.5126 3.02476 22.5294 6.42836 22.5294H6.9107V25.4181C6.9107 26.4533 7.45422 27.1131 8.39687 27.1131ZM8.96593 24.532V21.1863C8.96593 20.4986 8.67132 20.2335 8.01319 20.2335H6.56757C4.35225 20.2335 3.29592 19.1066 3.29592 16.9523V8.00007C3.29592 5.84569 4.35225 4.72842 6.56757 4.72842H21.3871C23.5928 4.72842 24.6588 5.84569 24.6588 8.00007V16.9523C24.6588 19.1066 23.5928 20.2335 21.3871 20.2335H14.2321C13.521 20.2335 13.1823 20.3484 12.6864 20.8497L8.96593 24.532Z" fill="black"/>
<path d="M12.1138 18.389H16.4327C16.9054 18.389 17.278 18.0557 17.278 17.5766C17.278 17.1177 16.9054 16.7664 16.4327 16.7664H15.2284V11.6739C15.2284 11.0437 14.9144 10.6295 14.3214 10.6295H12.3055C11.8307 10.6295 11.458 10.9926 11.458 11.4419C11.458 11.9209 11.8307 12.2563 12.3055 12.2563H13.3919V16.7664H12.1138C11.6411 16.7664 11.278 17.1177 11.278 17.5766C11.278 18.0557 11.6411 18.389 12.1138 18.389ZM13.9227 8.96404C14.7344 8.96404 15.3723 8.31224 15.3723 7.51654C15.3723 6.70068 14.7344 6.06482 13.9227 6.06482C13.127 6.06482 12.4731 6.70068 12.4731 7.51654C12.4731 8.31224 13.127 8.96404 13.9227 8.96404Z" fill="black"/>
</svg>
