<svg width="28" height="28" viewBox="0 0 28 28" fill="none" xmlns="http://www.w3.org/2000/svg">
<path d="M14.3969 3C11.8912 3 9.52687 3.91219 8.39344 6.04593C8.13117 6.45515 7.98398 6.85898 7.97437 7.33008C7.97437 8.00859 8.45249 8.50851 9.20249 8.50851C9.73194 8.50851 10.1266 8.30108 10.4508 7.7121C11.1515 6.19452 12.6396 5.41381 14.4166 5.41381C16.6298 5.41381 18.4437 6.52147 18.4437 8.53148C18.4437 9.52851 17.8973 10.6165 16.6727 11.0381H19.9882C20.805 10.354 21.2475 9.31242 21.2475 8.32335C21.2475 4.9657 18.18 3 14.3969 3ZM6.72891 12.2826H22.2504C22.6809 12.2826 22.9889 11.9576 22.9889 11.5463C22.9889 11.1157 22.6809 10.8098 22.2504 10.8098H6.72891C6.31969 10.8098 6 11.1157 6 11.5463C6 11.9576 6.31969 12.2826 6.72891 12.2826ZM6.72891 16.3029H22.2504C22.6809 16.3029 22.9889 15.9757 22.9889 15.5644C22.9889 15.1359 22.6809 14.828 22.2504 14.828H6.72891C6.31969 14.828 6 15.1359 6 15.5644C6 15.9757 6.31969 16.3029 6.72891 16.3029ZM14.5247 24.6305C17.5887 24.6305 19.9915 23.4237 21.0576 21.2707C21.3082 20.8636 21.4746 20.4694 21.4746 19.977C21.4746 19.2888 20.9484 18.8102 20.2582 18.8102C19.59 18.8102 19.2359 19.1255 18.9405 19.6163C18.18 21.3474 16.7325 22.2167 14.5146 22.2167C11.9086 22.2167 10.2431 20.7973 10.2431 19.0702C10.2431 17.8095 10.9239 16.6233 12.6204 16.0458H9.16407C8.07609 16.7491 7.42968 17.9775 7.42968 19.2398C7.42968 22.2602 10.2122 24.6305 14.5247 24.6305Z" fill="black"/>
</svg>
