<svg width="28" height="28" viewBox="0 0 28 28" fill="none" xmlns="http://www.w3.org/2000/svg">
<path d="M5.31163 26.1329C6.93585 26.1329 10.223 24.5561 12.6947 22.7872C20.9639 22.9403 27.1329 18.1705 27.1329 11.9139C27.1329 5.87171 21.1022 1 13.5675 1C6.0307 1 0 5.87171 0 11.9139C0 15.7576 2.39977 19.1973 6.07125 20.98C5.56711 21.9299 4.66711 23.2473 4.15453 23.9219C3.41532 24.9025 3.92742 26.1329 5.31163 26.1329ZM6.71084 23.7616C6.56858 23.8157 6.51444 23.7348 6.60889 23.6085C7.20819 22.8674 8.10772 21.6993 8.53569 20.9008C8.88702 20.2492 8.76491 19.6848 8.01069 19.3269C4.42803 17.6498 2.35451 14.9699 2.35451 11.9139C2.35451 7.19147 7.32913 3.34491 13.5675 3.34491C19.8134 3.34491 24.788 7.19147 24.788 11.9139C24.788 16.6267 19.8134 20.4733 13.5675 20.4733C13.35 20.4733 13.0247 20.4637 12.6108 20.4541C12.1101 20.4541 11.733 20.6001 11.2666 20.9706C9.85475 22.0136 7.75616 23.3385 6.71084 23.7616Z" fill="black"/>
<path d="M13.5771 17.9167C14.1771 17.9167 14.6142 17.4986 14.6142 16.9166V11.3704L14.5057 8.95142L15.5871 10.2871L16.8919 11.6469C17.0632 11.8459 17.31 11.9469 17.5952 11.9469C18.1432 11.9469 18.5562 11.5499 18.5562 11.0104C18.5562 10.736 18.4582 10.5103 18.2721 10.3061L14.4077 6.3944C14.1576 6.13589 13.9057 6.00183 13.5771 6.00183C13.2677 6.00183 13.0158 6.12628 12.7561 6.3944L8.88212 10.3061C8.69392 10.5103 8.61517 10.736 8.61517 11.0104C8.61517 11.5499 9.01853 11.9469 9.56649 11.9469C9.84423 11.9469 10.1027 11.8363 10.2698 11.6469L11.5884 10.2766L12.6485 8.97064L12.54 11.3704V16.9166C12.54 17.4986 12.9867 17.9167 13.5771 17.9167Z" fill="black"/>
</svg>
