<svg width="28" height="28" viewBox="0 0 28 28" fill="none" xmlns="http://www.w3.org/2000/svg">
<path d="M6.84421 24.8972H21.0295C23.5685 24.8972 24.8737 23.5919 24.8737 21.0914V6.82921C24.8737 4.32656 23.5685 3.02344 21.0295 3.02344H6.84421C4.31484 3.02344 3 4.31695 3 6.82921V21.0914C3 23.6016 4.31484 24.8972 6.84421 24.8972ZM6.97733 22.6013C5.88772 22.6013 5.29592 22.0371 5.29592 20.8985V7.01999C5.29592 5.88139 5.88772 5.31936 6.97733 5.31936H20.8964C21.9764 5.31936 22.5778 5.88139 22.5778 7.01999V20.8985C22.5778 22.0371 21.9764 22.6013 20.8964 22.6013H6.97733Z" fill="black"/>
<path d="M9.16895 14.025C9.16895 16.1137 9.85987 17.7075 11.0629 18.638L10.6715 20.1811C10.6481 20.2685 10.6364 20.3505 10.6364 20.4347C10.6364 20.7694 10.8548 20.9953 11.1799 20.9953C11.456 20.9953 11.6702 20.8547 11.7363 20.5594L12.07 19.2213C12.3771 19.3472 12.6958 19.4421 13.0317 19.4965L12.8611 20.1907C12.8376 20.2908 12.828 20.3632 12.828 20.4389C12.828 20.7757 13.0326 20.9953 13.3716 20.9953C13.6519 20.9953 13.8598 20.8547 13.9259 20.5594L14.186 19.5626C16.0664 19.4815 17.4691 18.5034 17.9911 17.0512C18.0677 16.8511 18.1167 16.6317 18.1167 16.422C18.1167 15.9347 17.7869 15.5782 17.272 15.5782C16.8314 15.5782 16.5738 15.8552 16.4271 16.2574C16.1756 17.1031 15.5004 17.7312 14.5915 17.8856L16.2049 11.5146C16.2977 11.6074 16.3809 11.7621 16.4332 11.9456C16.5799 12.2479 16.7852 12.5102 17.2165 12.5102C17.7134 12.5102 18.0347 12.1889 18.0347 11.6845C18.0347 11.4675 17.9794 11.2408 17.888 11.0259C17.64 10.3964 17.2322 9.86154 16.7084 9.45232L17.0559 8.05356C17.089 7.96614 17.1007 7.88411 17.1007 7.8063C17.1007 7.47911 16.8844 7.25317 16.5593 7.25317C16.2811 7.25317 16.0669 7.3938 15.9912 7.69122L15.6959 8.85841C15.4005 8.73466 15.0818 8.64935 14.7417 8.58325L14.876 8.05145C14.8973 7.97364 14.9112 7.882 14.9112 7.8063C14.9112 7.47911 14.6948 7.25317 14.3676 7.25317C14.0916 7.25317 13.8773 7.3938 13.8016 7.69122L13.5916 8.53427C10.8883 8.69013 9.16895 10.7862 9.16895 14.025ZM11.0008 14.0292C11.0008 12.0077 11.8103 10.5961 13.1648 10.2316L11.5802 16.5321C11.2035 15.8859 11.0008 15.0445 11.0008 14.0292ZM12.4713 17.5826L14.3543 10.1571C14.6944 10.204 15.0089 10.3265 15.2904 10.4981L13.4212 17.9419C13.0619 17.8896 12.7549 17.7691 12.4713 17.5826Z" fill="black"/>
</svg>
