<svg width="28" height="28" viewBox="0 0 28 28" fill="none" xmlns="http://www.w3.org/2000/svg">
<path d="M6.84421 24.8972H21.0295C23.5685 24.8972 24.8737 23.5919 24.8737 21.0914V6.82921C24.8737 4.32656 23.5685 3.02344 21.0295 3.02344H6.84421C4.31484 3.02344 3 4.31695 3 6.82921V21.0914C3 23.6016 4.31484 24.8972 6.84421 24.8972Z" fill="black"/>
<path d="M10.1454 18.3328C9.64102 18.3328 9.29297 17.9944 9.29297 17.508V10.8129C9.29297 10.2968 9.63141 9.95206 10.1144 9.95206C10.5816 9.95206 10.9158 10.2574 10.9158 10.8185V10.9402C11.2706 10.2469 11.8479 9.92323 12.5393 9.92323C13.282 9.92323 13.8998 10.2492 14.2364 10.9491L15.7277 7.39151C15.8386 7.13885 16.0123 6.98322 16.2766 6.98322C16.5984 6.98322 16.8436 7.21127 16.8436 7.51924C16.8436 7.6301 16.8084 7.73885 16.7754 7.82838L15.8391 10.0549C15.9926 9.99424 16.181 9.95698 16.3854 9.95698C17.7705 9.95698 18.6644 10.9308 18.6644 12.5079V17.4771C18.6644 17.9944 18.3164 18.3328 17.8237 18.3328C17.3311 18.3328 16.9884 17.9944 16.9884 17.4771V12.7538C16.9884 11.9829 16.5886 11.4893 15.9136 11.4893C15.229 11.4893 14.8078 12.0021 14.8078 12.7922V17.4771C14.8078 17.9944 14.4694 18.3328 13.9915 18.3328C13.5178 18.3328 13.1761 18.0134 13.1761 17.5214V16.6355L11.745 20.4792C11.6437 20.7436 11.4509 20.8971 11.1961 20.8971C10.8743 20.8971 10.6409 20.6595 10.6409 20.3515C10.6409 20.2427 10.6622 20.1319 10.707 20.0327L13.1677 13.4339V12.6865C13.1677 11.9829 12.7348 11.4797 12.1153 11.4797C11.4115 11.4797 10.9903 12.0309 10.9903 12.8402V17.4771C10.9903 17.9944 10.638 18.3328 10.1454 18.3328Z" fill="white"/>
</svg>
