<svg width="28" height="28" viewBox="0 0 28 28" fill="none" xmlns="http://www.w3.org/2000/svg">
<path d="M6.84421 24.8972H21.0295C23.5685 24.8972 24.8737 23.5919 24.8737 21.0914V6.82921C24.8737 4.32656 23.5685 3.02344 21.0295 3.02344H6.84421C4.31484 3.02344 3 4.31695 3 6.82921V21.0914C3 23.6016 4.31484 24.8972 6.84421 24.8972Z" fill="black"/>
<path d="M9.61132 11.4267C9.61132 10.9828 9.8914 10.672 10.3714 10.672H17.5606C18.0406 10.672 18.3207 10.9828 18.3207 11.4267C18.3207 11.8835 18.047 12.1943 17.5606 12.1943H14.8967V19.054C14.8967 19.6559 14.517 19.9985 13.9756 19.9985C13.4385 19.9985 13.0374 19.6559 13.0374 19.054V12.1943H10.3714C9.88929 12.1943 9.61132 11.8835 9.61132 11.4267ZM9.58789 9.09796C9.58789 8.75694 9.82133 8.53101 10.1516 8.53101H17.7688C18.1086 8.53101 18.3303 8.75694 18.3303 9.09796C18.3303 9.43148 18.1086 9.68413 17.7688 9.68413H10.1516C9.82343 9.68413 9.58789 9.43148 9.58789 9.09796Z" fill="white"/>
</svg>
