<svg width="28" height="28" viewBox="0 0 28 28" fill="none" xmlns="http://www.w3.org/2000/svg">
<path d="M8.39687 27.1131C9.04913 27.1131 9.53405 26.7937 10.3459 26.0807L14.3572 22.5294H21.4504C24.9784 22.5294 26.9547 20.503 26.9547 17.0251V7.93679C26.9547 4.45891 24.9784 2.4325 21.4504 2.4325H6.50218C2.97625 2.4325 1 4.4493 1 7.93679V17.0251C1 20.5126 3.02476 22.5294 6.42836 22.5294H6.9107V25.4181C6.9107 26.4533 7.45422 27.1131 8.39687 27.1131ZM8.96593 24.532V21.1863C8.96593 20.4986 8.67132 20.2335 8.01319 20.2335H6.56757C4.35225 20.2335 3.29592 19.1066 3.29592 16.9523V8.00007C3.29592 5.84569 4.35225 4.72842 6.56757 4.72842H21.3871C23.5928 4.72842 24.6588 5.84569 24.6588 8.00007V16.9523C24.6588 19.1066 23.5928 20.2335 21.3871 20.2335H14.2321C13.521 20.2335 13.1823 20.3484 12.6864 20.8497L8.96593 24.532Z" fill="black"/>
<path d="M13.9891 18.8092C14.8881 18.8092 15.6114 18.088 15.6114 17.1869C15.6114 16.2857 14.8881 15.5645 13.9891 15.5645C13.0879 15.5645 12.3646 16.2857 12.3646 17.1869C12.3646 18.088 13.0879 18.8092 13.9891 18.8092Z" fill="black"/>
<path d="M13.9891 14.1044C14.8881 14.1044 15.6114 13.3811 15.6114 12.482C15.6114 11.5809 14.8881 10.8575 13.9891 10.8575C13.0879 10.8575 12.3646 11.5809 12.3646 12.482C12.3646 13.3811 13.0879 14.1044 13.9891 14.1044Z" fill="black"/>
<path d="M13.9891 9.39736C14.8881 9.39736 15.6114 8.66658 15.6114 7.77502C15.6114 6.87385 14.8881 6.14307 13.9891 6.14307C13.0879 6.14307 12.3646 6.87385 12.3646 7.77502C12.3646 8.66658 13.0879 9.39736 13.9891 9.39736Z" fill="black"/>
</svg>
