<svg width="31" height="28" viewBox="0 0 31 28" fill="none" xmlns="http://www.w3.org/2000/svg">
<path d="M5.6902 24.1169H18.6638L1.93599 7.38909C1.81341 7.70948 1.7356 8.24222 1.7356 8.74284V20.2774C1.7356 22.7446 3.18076 24.1169 5.6902 24.1169ZM18.136 4.8241H6.14349L21.8984 20.5769C21.9657 20.2375 22.0041 19.7807 22.0041 19.3549V8.70019C22.0041 6.24253 20.6455 4.8241 18.136 4.8241ZM23.7076 18.208L27.7433 21.6885C28.2134 22.0991 28.7244 22.364 29.2095 22.364C30.1636 22.364 30.8077 21.6791 30.8077 20.6613V8.33246C30.8077 7.31457 30.1636 6.62972 29.2095 6.62972C28.7222 6.62972 28.2176 6.89457 27.7433 7.30519L23.7076 10.7761V18.208Z" fill="black"/>
<path d="M23.3094 26.6819C23.6736 27.0419 24.2785 27.044 24.6289 26.6819C24.9814 26.3081 24.9931 25.7266 24.6289 25.3624L1.59615 2.33922C1.23193 1.97711 0.627011 1.9675 0.262793 2.33922C-0.0875976 2.69172 -0.0875976 3.30836 0.262793 3.65875L23.3094 26.6819Z" fill="black"/>
</svg>
