<svg width="28" height="28" viewBox="0 0 28 28" fill="none" xmlns="http://www.w3.org/2000/svg">
<path d="M14.105 26.21C20.7369 26.21 26.2121 20.7273 26.2121 14.105C26.2121 7.47312 20.7273 2 14.0954 2C7.47523 2 2 7.47312 2 14.105C2 20.7273 7.48484 26.21 14.105 26.21ZM14.105 23.8255C8.71085 23.8255 4.39412 19.4991 4.39412 14.105C4.39412 8.71085 8.70124 4.38452 14.0954 4.38452C19.4895 4.38452 23.8276 8.71085 23.8276 14.105C23.8276 19.4991 19.4991 23.8255 14.105 23.8255Z" fill="black"/>
<path d="M12.1317 17.9954H18.394C18.7678 17.9954 19.0254 17.743 19.0254 17.349C19.0254 16.9688 18.7678 16.7068 18.394 16.7068H12.2058C11.8964 16.7068 11.6916 16.535 11.651 16.2139L11.602 15.777H18.6487C19.534 15.777 19.9823 15.2497 20.1133 14.3794L20.5462 11.4176C20.5676 11.3548 20.5793 11.2493 20.5793 11.1919C20.5793 10.8652 20.3536 10.6482 19.961 10.6482H10.8391L10.7421 9.93356C10.6634 9.41067 10.268 9.08044 9.69304 9.08044H7.75359C7.36921 9.08044 7.0957 9.35395 7.0957 9.75004C7.0957 10.1365 7.36921 10.41 7.75359 10.41H9.4889L10.3725 16.5573C10.5035 17.4948 11.1002 17.9954 12.1317 17.9954ZM12.3656 20.8538C12.9675 20.8538 13.4308 20.3809 13.4308 19.7982C13.4308 19.1942 12.9675 18.7191 12.3656 18.7191C11.783 18.7191 11.3058 19.1942 11.3058 19.7982C11.3058 20.3809 11.783 20.8538 12.3656 20.8538ZM17.4553 20.8538C18.0454 20.8538 18.5205 20.3809 18.5205 19.7982C18.5205 19.1942 18.0454 18.7191 17.4553 18.7191C16.8609 18.7191 16.3762 19.1942 16.3762 19.7982C16.3762 20.3809 16.8609 20.8538 17.4553 20.8538Z" fill="black"/>
</svg>
