<svg width="28" height="28" viewBox="0 0 28 28" fill="none" xmlns="http://www.w3.org/2000/svg">
<path d="M14.1366 24.8097C19.4333 24.8097 22.3409 21.4227 22.3409 16.139V15.1783C22.3409 14.2248 21.7923 13.6307 20.8876 13.6307H14.4938V15.9201H19.4888V16.6902C19.4888 20.0948 17.4748 22.2991 14.1694 22.2991C10.3915 22.2991 7.99669 19.1214 7.99669 14.0584C7.99669 9.06998 10.3536 5.96896 14.1092 5.96896C16.5605 5.96896 18.5624 7.39936 19.25 9.51577C19.5495 10.2503 19.9332 10.5515 20.6354 10.5515C21.4095 10.5515 21.9209 10.0241 21.9113 9.25328C21.9113 8.88601 21.8443 8.51875 21.6997 8.15476C20.6431 5.38585 17.7083 3.46046 14.1071 3.46046C8.55922 3.46046 5 7.53999 5 14.0732C5 20.6884 8.54 24.8097 14.1366 24.8097ZM14.0037 27.22C14.4247 27.22 14.7423 26.912 14.7423 26.4719V1.80273C14.7423 1.37429 14.4247 1.06421 14.0037 1.06421C13.5849 1.06421 13.2673 1.37429 13.2673 1.80273V26.4719C13.2673 26.912 13.5849 27.22 14.0037 27.22Z" fill="black"/>
</svg>
