<svg width="28" height="28" viewBox="0 0 28 28" fill="none" xmlns="http://www.w3.org/2000/svg">
<path d="M8.7189 24.8938H14.6593C19.0506 24.8938 21.7253 22.7092 21.7253 19.1127C21.7253 16.3033 19.7284 14.3188 16.8775 14.0158V13.9157C19.0525 13.5438 20.6821 11.5853 20.6821 9.32171C20.6821 6.21437 18.2671 4.18257 14.5811 4.18257H8.7189C7.66281 4.18257 7 4.85382 7 5.92678V23.1517C7 24.2226 7.66281 24.8938 8.7189 24.8938ZM9.87951 13.105V6.51834H13.8777C16.3501 6.51834 17.83 7.66537 17.83 9.69319C17.83 11.8865 16.1741 13.105 13.3218 13.105H9.87951ZM9.87951 22.5602V15.3428H13.8737C17.0662 15.3428 18.8001 16.5869 18.8001 18.9409C18.8001 21.3023 17.1163 22.5602 14.0905 22.5602H9.87951ZM11.6638 5.69569V2.11351C11.6638 1.7064 11.3345 1.36749 10.9274 1.36749C10.5086 1.36749 10.1814 1.7064 10.1814 2.11351V5.69569H11.6638ZM15.3405 5.69569V2.11351C15.3405 1.7064 15.0133 1.36749 14.5944 1.36749C14.1873 1.36749 13.858 1.7064 13.858 2.11351V5.69569H15.3405ZM11.6638 23.4557H10.1814V27.1052C10.1814 27.5123 10.5086 27.8416 10.9274 27.8416C11.3345 27.8416 11.6638 27.5123 11.6638 27.1052V23.4557ZM15.3405 23.4557H13.858V27.1052C13.858 27.5123 14.1873 27.8416 14.5944 27.8416C15.0133 27.8416 15.3405 27.5123 15.3405 27.1052V23.4557Z" fill="black"/>
</svg>
