<svg width="28" height="28" viewBox="0 0 28 28" fill="none" xmlns="http://www.w3.org/2000/svg">
<path d="M14.105 26.21C20.7369 26.21 26.2121 20.7273 26.2121 14.105C26.2121 7.47312 20.7273 2 14.0954 2C7.47523 2 2 7.47312 2 14.105C2 20.7273 7.48484 26.21 14.105 26.21ZM14.105 23.8255C8.71085 23.8255 4.39412 19.4991 4.39412 14.105C4.39412 8.71085 8.70124 4.38452 14.0954 4.38452C19.4895 4.38452 23.8276 8.71085 23.8276 14.105C23.8276 19.4991 19.4991 23.8255 14.105 23.8255Z" fill="black"/>
<path d="M9.77344 13.5087C9.77344 13.8188 10.0048 14.0619 10.3308 14.0619H10.9992V18.9613C10.9992 19.512 11.3918 19.8559 11.9013 19.8559C12.4162 19.8559 12.7896 19.512 12.7896 18.9613V16.3515H14.6948C16.3392 16.3515 17.576 15.4496 18.0822 14.0619H18.821C19.1491 14.0619 19.3783 13.8188 19.3783 13.5087C19.3783 13.1698 19.1491 12.946 18.821 12.946H18.3072C18.3307 12.8415 18.3328 12.7189 18.3328 12.6038C18.3328 12.4791 18.3328 12.3779 18.3211 12.2499H18.821C19.1491 12.2499 19.3783 12.0069 19.3783 11.6871C19.3783 11.36 19.1491 11.1361 18.821 11.1361H18.0747C17.5727 9.77816 16.3561 8.87207 14.7265 8.87207H11.899C11.3407 8.87207 10.9992 9.22316 10.9992 9.80066V11.1361H10.3308C10.0048 11.1361 9.77344 11.36 9.77344 11.6871C9.77344 12.0069 10.0048 12.2499 10.3308 12.2499H10.9992V12.946H10.3308C10.0048 12.946 9.77344 13.1698 9.77344 13.5087ZM12.8034 14.8135V14.0619H16.1224C15.7535 14.548 15.1596 14.8156 14.3981 14.8156L12.8034 14.8135ZM12.8034 12.946V12.2499H16.5361C16.5574 12.3629 16.5574 12.4674 16.5574 12.6017C16.5574 12.7168 16.5574 12.8415 16.5361 12.946H12.8034ZM12.8034 11.1361V10.4164H14.4002C15.1575 10.4164 15.7472 10.6702 16.1065 11.1361H12.8034Z" fill="black"/>
</svg>
