<svg width="28" height="28" viewBox="0 0 28 28" fill="none" xmlns="http://www.w3.org/2000/svg">
<path d="M9.08179 19.8628C12.5423 23.3255 16.7294 25.9851 20.1497 25.9851C21.6825 25.9851 23.032 25.4515 24.1132 24.2585C24.7427 23.5565 25.1231 22.748 25.1231 21.9426C25.1231 21.3208 24.8815 20.7225 24.2969 20.2966L20.6908 17.7356C20.1232 17.3437 19.6556 17.1562 19.2274 17.1562C18.6853 17.1562 18.1964 17.4673 17.651 18.003L16.8063 18.8402C16.6753 18.9691 16.5091 19.0277 16.3547 19.0277C16.1768 19.0277 15.9947 18.9574 15.8754 18.8925C15.1362 18.4931 13.875 17.4077 12.7022 16.2445C11.539 15.0813 10.4536 13.818 10.0638 13.0809C9.9989 12.952 9.92859 12.7795 9.92859 12.6017C9.92859 12.4472 9.97757 12.2885 10.1065 12.1596L10.9512 11.2957C11.4795 10.7482 11.8001 10.271 11.8001 9.7193C11.8001 9.2911 11.6009 8.82352 11.2015 8.25587L8.66718 4.68821C8.23593 4.09196 7.62586 3.83533 6.96351 3.83533C6.17531 3.83533 5.37633 4.18267 4.67859 4.85274C3.51445 5.95524 3 7.32188 3 8.83548C3 12.2557 5.62125 16.414 9.08179 19.8628Z" fill="black"/>
<path d="M16.6505 13.4379C16.9228 13.4379 17.16 13.3507 17.359 13.1517L22.1123 8.39292L23.7366 6.61846L23.547 9.69769V11.3868C23.547 11.9156 23.948 12.3199 24.4852 12.3391C25.0319 12.3583 25.4906 11.939 25.4906 11.3932V4.78097C25.4906 4.01644 25.0952 3.61145 24.3307 3.61145H17.6782C17.1323 3.61145 16.7013 4.06262 16.7205 4.61902C16.7419 5.1562 17.1537 5.55722 17.6824 5.55722H19.4077L22.5134 5.3655L20.7113 6.98761L15.9675 11.7506C15.7451 11.9634 15.6366 12.2144 15.6366 12.5027C15.6366 13.0336 16.076 13.4379 16.6505 13.4379Z" fill="black"/>
</svg>
