<svg width="28" height="28" viewBox="0 0 28 28" fill="none" xmlns="http://www.w3.org/2000/svg">
<path d="M6.84421 24.8972H21.0295C23.5685 24.8972 24.8737 23.5919 24.8737 21.0914V6.82921C24.8737 4.32656 23.5685 3.02344 21.0295 3.02344H6.84421C4.31484 3.02344 3 4.31695 3 6.82921V21.0914C3 23.6016 4.31484 24.8972 6.84421 24.8972Z" fill="black"/>
<path d="M9.48344 18.7123C9.48344 18.2738 9.71312 17.9981 10.1732 17.8132C10.9155 17.5725 11.5279 16.9336 11.6409 15.9916C11.6547 15.851 11.6685 15.7327 11.661 15.608H10.1148C9.74922 15.608 9.47852 15.349 9.47852 14.9812C9.47852 14.6114 9.74711 14.362 10.1148 14.362H11.5073C11.4337 14.0252 11.3345 13.6917 11.2546 13.3549H10.1148C9.74922 13.3549 9.47852 13.0959 9.47852 12.7282C9.47852 12.3583 9.74711 12.109 10.1148 12.109H11.0512C11.0352 11.992 11.0214 11.8964 11.0214 11.7794C11.0214 9.55545 12.5692 8.11615 15.119 8.11615C15.9585 8.11615 16.6773 8.21295 17.241 8.46842C17.6587 8.64936 17.8195 8.92615 17.8195 9.26998C17.8195 9.72326 17.5483 9.99794 17.0479 9.97873C16.6286 9.94029 16.1582 9.74833 15.2908 9.74833C13.7688 9.74833 12.8966 10.5694 12.8966 11.7668C12.8966 11.8915 12.9083 12.0087 12.918 12.109H16.2679C16.6474 12.109 16.9138 12.3583 16.9138 12.7282C16.9138 13.0959 16.6474 13.3549 16.2679 13.3549H13.1364C13.2184 13.68 13.3037 14.0093 13.3891 14.362H16.2679C16.6474 14.362 16.9138 14.6114 16.9138 14.9812C16.9138 15.349 16.6474 15.608 16.2679 15.608H13.4863C13.4842 15.7828 13.4683 15.948 13.4448 16.1133C13.3298 16.83 13.012 17.4987 12.5289 17.891H17.4306C17.9317 17.891 18.2849 18.2145 18.2849 18.7059C18.2849 19.207 17.9317 19.5305 17.4306 19.5305H10.3122C9.81742 19.5305 9.48344 19.2134 9.48344 18.7123Z" fill="white"/>
</svg>
