<svg width="28" height="28" viewBox="0 0 28 28" fill="none" xmlns="http://www.w3.org/2000/svg">
<path d="M8.07218 19.3187C11.5327 22.7813 15.7294 25.441 19.1497 25.441C20.6825 25.441 22.032 24.9073 23.1132 23.7144C23.7427 23.0124 24.1231 22.2038 24.1231 21.3985C24.1231 20.7767 23.8815 20.1784 23.2873 19.7525L19.6908 17.1915C19.1232 16.7996 18.6556 16.6121 18.2274 16.6121C17.6757 16.6121 17.1964 16.9231 16.651 17.4589L15.8063 18.2961C15.6753 18.425 15.5091 18.4836 15.3547 18.4836C15.1672 18.4836 14.9947 18.4133 14.8658 18.3484C14.1362 17.949 12.875 16.8636 11.7022 15.7004C10.539 14.5372 9.45359 13.2739 9.06382 12.5368C8.98929 12.4079 8.92859 12.2354 8.92859 12.0575C8.92859 11.903 8.97757 11.7444 9.10648 11.6155L9.94156 10.7515C10.4795 10.204 10.7905 9.72683 10.7905 9.17512C10.7905 8.74691 10.6009 8.27934 10.2015 7.71168L7.66718 4.14402C7.23593 3.54778 6.62586 3.29114 5.96351 3.29114C5.17531 3.29114 4.36672 3.63848 3.67859 4.30856C2.51445 5.41106 2 6.7777 2 8.29129C2 11.7116 4.62125 15.8698 8.07218 19.3187Z" fill="black"/>
<path d="M14.213 13.3275C14.8543 13.9687 15.879 13.9687 16.5181 13.3275C17.1594 12.6862 17.1594 11.6615 16.5181 11.0416C15.879 10.3908 14.8543 10.3908 14.213 11.0224C13.5814 11.6615 13.5814 12.6862 14.213 13.3275ZM15.3922 6.74669C14.9876 7.14162 14.9876 7.80372 15.3922 8.19864L19.3419 12.1579C19.741 12.555 20.3989 12.5529 20.7938 12.1579C21.193 11.7609 21.193 11.103 20.7938 10.7039L16.8366 6.74669C16.4375 6.34756 15.7892 6.34756 15.3922 6.74669ZM19.6721 7.88763C20.3112 8.50216 21.3359 8.51177 21.9676 7.86841C22.5971 7.23888 22.5971 6.2142 21.9676 5.58256C21.3359 4.94341 20.3016 4.94341 19.6721 5.57295C19.0287 6.2142 19.0287 7.22927 19.6721 7.88763ZM20.8491 1.29935C20.4521 1.69428 20.4542 2.34677 20.8491 2.7513L24.7988 6.70099C25.198 7.10763 25.8558 7.10763 26.2508 6.70099C26.6499 6.30185 26.6499 5.65357 26.2508 5.25443L22.3053 1.29935C21.8965 0.900215 21.2387 0.900215 20.8491 1.29935Z" fill="black"/>
</svg>
