<svg width="28" height="28" viewBox="0 0 28 28" fill="none" xmlns="http://www.w3.org/2000/svg">
<path d="M4.70601 26.0136C6.13125 26.0136 9.56555 24.5143 11.6737 23.0129C11.8983 22.8597 12.075 22.8032 12.2623 22.8032C12.4104 22.8128 12.5501 22.8224 12.6813 22.8224C21.1432 22.8161 27.1329 18.1822 27.1329 11.9139C27.1329 5.87171 21.1022 1 13.5675 1C6.0307 1 0 5.87171 0 11.9139C0 15.6808 2.26852 19.0476 6.1125 21.1201C6.32414 21.2371 6.38484 21.4129 6.27633 21.6182C5.59055 22.749 4.44609 24.0254 3.98601 24.624C3.46992 25.2754 3.76781 26.0136 4.70601 26.0136Z" fill="black"/>
<path d="M13.5771 18.159C12.9527 18.159 12.4859 17.7208 12.4859 17.1069V11.3767L12.6061 8.87267L11.5109 10.2276L10.1487 11.6458C9.96982 11.849 9.69537 11.9638 9.41131 11.9638C8.83147 11.9638 8.41217 11.5466 8.41217 10.9774C8.41217 10.687 8.49303 10.4571 8.69506 10.237L12.7158 6.17433C12.9914 5.88816 13.2497 5.7616 13.5771 5.7616C13.9237 5.7616 14.182 5.89777 14.4459 6.17433L18.4591 10.237C18.6612 10.4571 18.7612 10.687 18.7612 10.9774C18.7612 11.5466 18.3302 11.9638 17.7504 11.9638C17.4609 11.9638 17.1961 11.8586 17.013 11.6458L15.6647 10.2403L14.5481 8.85346L14.6683 11.3767V17.1069C14.6683 17.7208 14.2111 18.159 13.5771 18.159Z" fill="white"/>
</svg>
