<svg width="30" height="28" viewBox="0 0 30 28" fill="none" xmlns="http://www.w3.org/2000/svg">
<path d="M4.73695 23.5778H16.9282C19.9205 23.5778 21.6651 21.8716 21.6651 18.9236V8.64249C21.6651 5.70625 19.9205 4 16.9282 4H4.73695C1.85039 4 0 5.70625 0 8.64671V18.9953C0 21.939 1.74258 23.5778 4.73695 23.5778ZM5.11991 21.4877C3.27608 21.4877 2.23053 20.5084 2.23053 18.5971V8.9807C2.23053 7.03444 3.27608 6.07842 5.11991 6.07842H16.5452C18.3773 6.07842 19.4325 7.05764 19.4325 8.9807V18.5971C19.4325 20.5084 18.3668 21.4877 16.5389 21.4877H5.11991ZM21.2775 10.4507V12.9388L26.7776 8.43459C26.8767 8.35678 26.9449 8.3024 27.0462 8.3024C27.1762 8.3024 27.237 8.40904 27.237 8.56467V19.068C27.237 19.2215 27.1762 19.3206 27.0462 19.3206C26.9449 19.3206 26.8767 19.2641 26.7776 19.1959L21.2775 14.6938V17.1702L25.8966 21.0934C26.4412 21.5476 27.0033 21.8594 27.5533 21.8594C28.6268 21.8594 29.3529 21.0808 29.3529 19.9319V7.70078C29.3529 6.54976 28.6268 5.77117 27.5533 5.77117C27.0012 5.77117 26.4412 6.08289 25.8966 6.5371L21.2775 10.4507Z" fill="black"/>
<path d="M10.5052 15.9937C11.0831 15.9937 11.4471 15.655 11.4872 15.213C11.4893 15.1799 11.4914 15.1309 11.4935 15.0862C11.5209 14.5328 11.8924 14.178 12.5918 13.7142C13.6441 13.0399 14.3137 12.4251 14.3137 11.1857C14.3137 9.41619 12.7223 8.41541 10.83 8.41541C9.0061 8.41541 7.80047 9.24135 7.4461 10.2309C7.37696 10.4172 7.35141 10.5993 7.35141 10.7995C7.35141 11.3041 7.75173 11.6231 8.22563 11.6231C8.84438 11.6231 8.98992 11.297 9.315 10.9281C9.66023 10.4045 10.1189 10.0856 10.744 10.0856C11.6006 10.0856 12.1458 10.5709 12.1458 11.291C12.1458 11.9446 11.7026 12.2995 10.8063 12.9229C10.053 13.4578 9.49571 14.0012 9.49571 14.9566C9.49571 14.9971 9.49571 15.0355 9.49571 15.0782C9.49571 15.685 9.85524 15.9937 10.5052 15.9937ZM10.4784 19.2421C11.1553 19.2421 11.7239 18.7532 11.7239 18.0794C11.7239 17.4194 11.1649 16.9145 10.4784 16.9145C9.79407 16.9145 9.24259 17.4152 9.24259 18.0794C9.24259 18.7436 9.80368 19.2421 10.4784 19.2421Z" fill="black"/>
</svg>
