<svg width="28" height="28" viewBox="0 0 28 28" fill="none" xmlns="http://www.w3.org/2000/svg">
<path d="M6.84421 24.8972H21.0295C23.5685 24.8972 24.8737 23.5919 24.8737 21.0914V6.82921C24.8737 4.32656 23.5685 3.02344 21.0295 3.02344H6.84421C4.31484 3.02344 3 4.31695 3 6.82921V21.0914C3 23.6016 4.31484 24.8972 6.84421 24.8972ZM6.97733 22.6013C5.88772 22.6013 5.29592 22.0371 5.29592 20.8985V7.01999C5.29592 5.88139 5.88772 5.31936 6.97733 5.31936H20.8964C21.9764 5.31936 22.5778 5.88139 22.5778 7.01999V20.8985C22.5778 22.0371 21.9764 22.6013 20.8964 22.6013H6.97733Z" fill="black"/>
<path d="M9.42871 18.8173C9.42871 19.3172 9.7641 19.6439 10.2481 19.6439C10.73 19.6439 11.0353 19.3055 11.0353 18.8056V10.4376H12.5623C13.7215 10.4376 14.2187 10.7969 14.2187 12.0033V15.7038C14.2187 16.1407 14.4926 16.4072 14.8901 16.4072C15.2876 16.4072 15.5541 16.1407 15.5541 15.7038V11.6564C15.5541 9.57653 14.664 8.69505 12.7165 8.69505H10.5422C9.848 8.69505 9.42871 9.08786 9.42871 9.78207V18.8173ZM11.9726 18.4545C11.9726 19.1487 12.3673 19.5277 13.069 19.5277H15.1869C17.2001 19.5277 18.0809 18.6145 18.0809 16.2708V9.41715C18.0809 8.91723 17.7776 8.5863 17.2862 8.5863C16.7926 8.5863 16.4818 8.90762 16.4818 9.41715V16.1484C16.4818 17.5029 16.1021 17.7776 14.893 17.7776H13.3102V12.5039C13.3102 12.067 13.0437 11.8122 12.6558 11.8122C12.2487 11.8122 11.9726 12.067 11.9726 12.5039V18.4545Z" fill="black"/>
</svg>
