<svg width="28" height="28" viewBox="0 0 28 28" fill="none" xmlns="http://www.w3.org/2000/svg">
<path d="M14.105 26.21C20.7369 26.21 26.2121 20.7273 26.2121 14.105C26.2121 7.47312 20.7273 2 14.0954 2C7.47523 2 2 7.47312 2 14.105C2 20.7273 7.48484 26.21 14.105 26.21ZM14.105 23.8255C8.71085 23.8255 4.39412 19.4991 4.39412 14.105C4.39412 8.71085 8.70124 4.38452 14.0954 4.38452C19.4895 4.38452 23.8276 8.71085 23.8276 14.105C23.8276 19.4991 19.4991 23.8255 14.105 23.8255Z" fill="black"/>
<path d="M9.78765 18.7011C9.78765 19.1703 10.1057 19.4811 10.5824 19.4811H17.4264C17.9095 19.4811 18.2425 19.164 18.2425 18.6927C18.2425 18.2213 17.9095 17.9159 17.4264 17.9159H12.7056C13.1631 17.5353 13.4788 16.8922 13.5822 16.2064C13.6077 16.0337 13.6216 15.8705 13.6258 15.7053H16.3085C16.6741 15.7053 16.9288 15.4602 16.9288 15.1041C16.9288 14.7481 16.6741 14.5126 16.3085 14.5126H13.5243C13.4507 14.1737 13.3654 13.8486 13.2855 13.5352H16.3085C16.6741 13.5352 16.9288 13.288 16.9288 12.9341C16.9288 12.578 16.6741 12.3404 16.3085 12.3404H13.0788C13.0692 12.2401 13.0574 12.1229 13.0574 12.0099C13.0574 10.8497 13.8944 10.0564 15.3632 10.0564C16.2009 10.0564 16.6596 10.2462 17.0608 10.2846C17.5218 10.3039 17.7984 10.0334 17.7984 9.60027C17.7984 9.27027 17.6397 9.00941 17.238 8.83059C16.6977 8.59105 16.0108 8.49426 15.2074 8.49426C12.7436 8.49426 11.2628 9.88785 11.2628 12.0172C11.2628 12.132 11.2788 12.2276 11.2926 12.3404H10.3977C10.0417 12.3404 9.77734 12.578 9.77734 12.9341C9.77734 13.288 10.0459 13.5352 10.3977 13.5352H11.4939C11.5621 13.8603 11.6591 14.1875 11.7327 14.5126H10.3977C10.0417 14.5126 9.77734 14.7481 9.77734 15.1041C9.77734 15.4602 10.0459 15.7053 10.3977 15.7053H11.8886C11.894 15.8279 11.8823 15.9387 11.8684 16.0752C11.7576 16.9862 11.1644 17.6113 10.4477 17.8381C10.0056 18.0167 9.78765 18.2785 9.78765 18.7011Z" fill="black"/>
</svg>
