<svg width="28" height="28" viewBox="0 0 28 28" fill="none" xmlns="http://www.w3.org/2000/svg">
<path d="M9.12158 12.6082C9.12158 17.4276 12.3318 20.7368 16.9485 21.1729V23.5828H12.6472C12.039 23.5828 11.533 24.074 11.533 24.6822C11.533 25.2841 12.039 25.77 12.6472 25.77H23.3947C24.0008 25.77 24.5068 25.2841 24.5068 24.6822C24.5068 24.074 24.0008 23.5828 23.3947 23.5828H19.0914V21.1729C23.7102 20.7368 26.9204 17.4276 26.9204 12.6082V10.2862C26.9204 9.68015 26.4346 9.20906 25.8243 9.20906C25.214 9.20906 24.7122 9.68015 24.7122 10.2862V12.5294C24.7122 16.5234 22.0178 19.1487 18.0151 19.1487C14.0242 19.1487 11.3277 16.5234 11.3277 12.5294V10.2862C11.3277 9.68015 10.8259 9.20906 10.2177 9.20906C9.60744 9.20906 9.12158 9.68015 9.12158 10.2862V12.6082ZM13.5419 12.0935C13.5419 14.9091 15.388 16.8855 18.0151 16.8855C20.654 16.8855 22.498 14.9091 22.498 12.0935V4.78991C22.498 1.97109 20.654 0 18.0151 0C15.388 0 13.5419 1.97109 13.5419 4.78991V12.0935ZM15.7607 12.1315V4.75406C15.7607 3.19053 16.6333 2.12788 18.0151 2.12788C19.397 2.12788 20.2813 3.18631 20.2813 4.75406V12.1315C20.2813 13.6971 19.397 14.7555 18.0151 14.7555C16.6333 14.7555 15.7607 13.6971 15.7607 12.1315Z" fill="black"/>
<path d="M3.24695 25.0601C4.46945 25.0601 5.45663 24.0729 5.45663 22.8483C5.45663 21.6065 4.46734 20.6248 3.24695 20.6248C1.9914 20.6248 1 21.6065 1 22.8483C1 24.0729 2.00101 25.0601 3.24695 25.0601Z" fill="black"/>
<path d="M3.24695 18.8755C4.46734 18.8755 5.45663 17.8724 5.45663 16.6286C5.45663 15.4082 4.46734 14.4189 3.24695 14.4189C2.00312 14.4189 1 15.4082 1 16.6286C1 17.8841 1.9914 18.8755 3.24695 18.8755Z" fill="black"/>
<path d="M3.24695 12.6539C4.46734 12.6539 5.45663 11.6742 5.45663 10.4304C5.45663 9.18656 4.46734 8.19727 3.24695 8.19727C1.9914 8.19727 1 9.18656 1 10.4304C1 11.6742 1.9914 12.6539 3.24695 12.6539Z" fill="black"/>
<path d="M3.24695 6.44815C4.46734 6.44815 5.45663 5.46636 5.45663 4.22253C5.45663 3.00004 4.46945 2.01074 3.24695 2.01074C2.00101 2.01074 1 3.00004 1 4.22253C1 5.46636 1.9914 6.44815 3.24695 6.44815Z" fill="black"/>
</svg>
