<svg width="28" height="28" viewBox="0 0 28 28" fill="none" xmlns="http://www.w3.org/2000/svg">
<path d="M4.70601 26.0136C6.13125 26.0136 9.56555 24.5143 11.6737 23.0129C11.8983 22.8597 12.075 22.8032 12.2623 22.8032C12.4104 22.8128 12.5501 22.8224 12.6813 22.8224C21.1432 22.8161 27.1329 18.1822 27.1329 11.9139C27.1329 5.87171 21.1022 1 13.5675 1C6.0307 1 0 5.87171 0 11.9139C0 15.6808 2.26852 19.0476 6.1125 21.1201C6.32414 21.2371 6.38484 21.4129 6.27633 21.6182C5.59055 22.749 4.44609 24.0254 3.98601 24.624C3.46992 25.2754 3.76781 26.0136 4.70601 26.0136Z" fill="black"/>
<path d="M7.8382 12.0217C7.8382 11.3352 8.31492 10.8521 8.98968 10.8521H12.4172V7.43425C12.4172 6.7616 12.8885 6.27527 13.5579 6.27527C14.2348 6.27527 14.7178 6.75199 14.7178 7.43425V10.8521H18.1549C18.818 10.8521 19.3043 11.3352 19.3043 12.0217C19.3043 12.6815 18.818 13.1528 18.1549 13.1528H14.7178V16.5899C14.7178 17.2551 14.2348 17.7414 13.5579 17.7414C12.8885 17.7414 12.4172 17.2551 12.4172 16.5899V13.1528H8.98968C8.31492 13.1528 7.8382 12.6815 7.8382 12.0217Z" fill="white"/>
</svg>
