<svg width="28" height="28" viewBox="0 0 28 28" fill="none" xmlns="http://www.w3.org/2000/svg">
<path d="M6.84421 24.8972H21.0295C23.5685 24.8972 24.8737 23.5919 24.8737 21.0914V6.82921C24.8737 4.32656 23.5685 3.02344 21.0295 3.02344H6.84421C4.31484 3.02344 3 4.31695 3 6.82921V21.0914C3 23.6016 4.31484 24.8972 6.84421 24.8972Z" fill="black"/>
<path d="M14.2715 19.7166C11.7384 19.7166 10.1214 18.1172 9.60039 15.7106H8.4857C8.1543 15.7106 7.91992 15.4495 7.91992 15.1223C7.91992 14.7855 8.1543 14.5554 8.4857 14.5554H9.44055C9.42672 14.3562 9.42672 14.1687 9.42672 13.9577C9.42672 13.7381 9.43844 13.5419 9.44805 13.3341H8.4857C8.1543 13.3341 7.91992 13.0751 7.91992 12.7575C7.91992 12.409 8.1543 12.1788 8.4857 12.1788H9.61117C10.1547 9.74903 11.8452 8.22021 14.2715 8.22021C16.2517 8.22021 17.879 9.22732 18.4986 10.8204C18.5922 11.0491 18.6475 11.2821 18.6475 11.5226C18.6475 12.0354 18.3081 12.3747 17.7836 12.3747C17.3111 12.3747 17.0664 12.1938 16.8878 11.685C16.517 10.5314 15.4644 9.88965 14.3268 9.88965C12.9534 9.88965 12.0236 10.8311 11.6078 12.1788H14.525C14.8565 12.1788 15.11 12.409 15.11 12.7575C15.11 13.0751 14.8565 13.3341 14.525 13.3341H11.3723C11.3584 13.5419 11.3488 13.7423 11.3488 13.9598C11.3488 14.1612 11.3584 14.3583 11.3744 14.5554H14.525C14.8565 14.5554 15.11 14.7855 15.11 15.1223C15.11 15.4495 14.8565 15.7106 14.525 15.7106H11.5907C11.9873 17.0979 12.9203 18.0513 14.3268 18.0513C15.5434 18.0513 16.6152 17.4457 16.9656 16.2785C17.124 15.806 17.3976 15.5749 17.8562 15.5749C18.3859 15.5749 18.7316 15.9281 18.7316 16.4377C18.7316 16.6709 18.6805 16.8848 18.6039 17.0946C17.9521 18.8756 16.2716 19.7166 14.2715 19.7166Z" fill="white"/>
</svg>
