<svg width="30" height="28" viewBox="0 0 30 28" fill="none" xmlns="http://www.w3.org/2000/svg">
<path d="M3.96421 23.2928H16.3139C18.8212 23.2928 20.2781 21.8744 20.2781 19.4071V7.87609C20.2781 5.41844 18.9194 4 16.4121 4H3.96421C1.54336 4 0 5.41844 0 7.8782V19.4725C0 21.9398 1.45476 23.2928 3.96421 23.2928ZM21.9816 17.384L26.0173 20.8644C26.4895 21.2751 26.9984 21.5399 27.4835 21.5399C28.4376 21.5399 29.0817 20.8551 29.0817 19.8372V7.50836C29.0817 6.49047 28.4376 5.80562 27.4835 5.80562C26.9962 5.80562 26.4916 6.07047 26.0173 6.48109L21.9816 9.95196V17.384Z" fill="black"/>
<path d="M14.1387 8.70508C14.7323 8.70508 15.1697 9.11476 15.1697 9.66484C15.1697 9.96062 15.075 10.2116 14.8409 10.4298L9.98954 15.2434L8.13399 16.9094L11.243 16.7102H12.949C13.4852 16.7102 13.9355 17.107 13.9355 17.6612C13.9355 18.2305 13.5066 18.6817 12.9553 18.6817H6.30048C5.52095 18.6817 5.12018 18.2788 5.12018 17.4993V10.9026C5.12018 10.3492 5.57674 9.93414 6.13642 9.93414C6.68322 9.93414 7.08751 10.3727 7.08751 10.9047V12.5514L6.8904 15.6456L8.56806 13.8081L13.4194 9.01047C13.6301 8.80187 13.8513 8.70508 14.1387 8.70508Z" fill="white"/>
</svg>
