<svg width="28" height="28" viewBox="0 0 28 28" fill="none" xmlns="http://www.w3.org/2000/svg">
<path d="M8.01578 27.2622C8.50023 27.2622 8.87382 27.0299 9.45835 26.489L13.7626 22.5944H21.4504C24.9784 22.5944 26.9547 20.5777 26.9547 17.0998V8.01138C26.9547 4.53349 24.9784 2.50708 21.4504 2.50708H6.50218C2.97625 2.50708 1 4.52388 1 8.01138V17.0998C1 20.5872 3.02476 22.5944 6.42836 22.5944H6.90109V25.9898C6.90109 26.7606 7.30984 27.2622 8.01578 27.2622Z" fill="black"/>
<path d="M6.40538 13.9061C5.97858 13.9061 5.62421 13.5412 5.62421 13.1005C5.62421 12.6791 5.97436 12.3184 6.40538 12.3184H11.0852C11.5225 12.3184 11.8727 12.677 11.8727 13.1005C11.8727 13.5412 11.5225 13.9061 11.0852 13.9061H6.40538ZM13.6403 13.9061C13.2135 13.9061 12.8591 13.5412 12.8591 13.1005C12.8591 12.6791 13.2114 12.3184 13.6403 12.3184H21.5685C22.0037 12.3184 22.3485 12.677 22.3485 13.1005C22.3485 13.5412 22.0037 13.9061 21.5685 13.9061H13.6403ZM6.40538 17.1027C5.97858 17.1027 5.62421 16.7495 5.62421 16.3227C5.62421 15.8779 5.97436 15.5151 6.40538 15.5151H8.38866C8.82389 15.5151 9.16655 15.8737 9.16655 16.3227C9.16655 16.7495 8.82389 17.1027 8.38866 17.1027H6.40538ZM10.9363 17.1027C10.5074 17.1027 10.1647 16.7495 10.1647 16.3227C10.1647 15.8779 10.5053 15.5151 10.9363 15.5151H16.7777C17.2108 15.5151 17.5673 15.8737 17.5673 16.3227C17.5673 16.7495 17.2108 17.1027 16.7777 17.1027H10.9363ZM19.3328 17.1027C18.9039 17.1027 18.5516 16.7495 18.5516 16.3227C18.5516 15.8779 18.9018 15.5151 19.3328 15.5151H21.5685C22.0016 15.5151 22.3485 15.8737 22.3485 16.3227C22.3485 16.7495 22.0016 17.1027 21.5685 17.1027H19.3328Z" fill="white"/>
</svg>
