<svg width="28" height="28" viewBox="0 0 28 28" fill="none" xmlns="http://www.w3.org/2000/svg">
<path d="M14.105 26.21C20.7369 26.21 26.2121 20.7273 26.2121 14.105C26.2121 7.47312 20.7273 2 14.0954 2C7.47523 2 2 7.47312 2 14.105C2 20.7273 7.48484 26.21 14.105 26.21ZM14.105 23.8255C8.71085 23.8255 4.39412 19.4991 4.39412 14.105C4.39412 8.71085 8.70124 4.38452 14.0954 4.38452C19.4895 4.38452 23.8276 8.71085 23.8276 14.105C23.8276 19.4991 19.4991 23.8255 14.105 23.8255Z" fill="black"/>
<path d="M9.90316 11.6815C9.90316 12.1127 10.1769 12.4097 10.6335 12.4097H13.2048V19.0226C13.2048 19.5904 13.5878 19.931 14.1048 19.931C14.6218 19.931 14.9856 19.5904 14.9856 19.0226V12.4097H17.5452C18.0114 12.4097 18.2851 12.1127 18.2851 11.6815C18.2851 11.2577 18.0092 10.9608 17.5452 10.9608H10.6335C10.179 10.9608 9.90316 11.2577 9.90316 11.6815ZM9.88184 9.44205C9.88184 9.76174 10.1153 10.0048 10.4296 10.0048H17.7374C18.073 10.0048 18.2947 9.76174 18.2947 9.44205C18.2947 9.11275 18.073 8.88892 17.7374 8.88892H10.4296C10.1132 8.88892 9.88184 9.11275 9.88184 9.44205Z" fill="black"/>
</svg>
