<svg width="28" height="28" viewBox="0 0 28 28" fill="none" xmlns="http://www.w3.org/2000/svg">
<path d="M6.84421 24.8972H21.0295C23.5685 24.8972 24.8737 23.5919 24.8737 21.0914V6.82921C24.8737 4.32656 23.5685 3.02344 21.0295 3.02344H6.84421C4.31484 3.02344 3 4.31695 3 6.82921V21.0914C3 23.6016 4.31484 24.8972 6.84421 24.8972Z" fill="black"/>
<path d="M10.2322 19.3437C9.74286 19.3437 9.40137 19.0266 9.40137 18.536C9.40137 18.0773 9.64067 17.8303 10.0911 17.6264C10.9028 17.3517 11.6162 16.5565 11.6162 15.3677C11.6162 15.0443 11.5565 14.6932 11.4679 14.3505H10.1141C9.69997 14.3505 9.40606 14.0737 9.40606 13.6627C9.40606 13.2569 9.69997 12.9864 10.1141 12.9864H11.1536C11.0406 12.5282 10.9586 12.0625 10.9586 11.5926C10.9586 9.36861 12.4968 7.92932 15.0465 7.92932C15.9052 7.92932 16.6049 8.03572 17.1589 8.27197C17.6054 8.46252 17.7662 8.73931 17.7662 9.09275C17.7662 9.53642 17.5142 9.8015 17.0235 9.8015C16.6426 9.8015 16.2031 9.5615 15.2183 9.5615C13.7059 9.5615 12.8338 10.3825 12.8338 11.5926C12.8338 12.1216 12.9287 12.5674 13.0257 12.9864H16.2125C16.6309 12.9864 16.9302 13.2569 16.9302 13.6627C16.9302 14.0737 16.6309 14.3505 16.2125 14.3505H13.34C13.4094 14.6578 13.4499 14.9885 13.4499 15.3661C13.4499 16.3013 13.0618 17.1895 12.4682 17.7042H17.3891C17.8806 17.7042 18.2317 18.0277 18.2317 18.5191C18.2317 19.0298 17.8806 19.3437 17.3891 19.3437H10.2322Z" fill="white"/>
</svg>
