<svg width="28" height="28" viewBox="0 0 28 28" fill="none" xmlns="http://www.w3.org/2000/svg">
<path d="M14.105 26.2301C20.7369 26.2301 26.2121 20.7549 26.2121 14.123C26.2121 7.50291 20.7273 2.01807 14.0954 2.01807C7.47523 2.01807 2 7.50291 2 14.123C2 20.7549 7.48484 26.2301 14.105 26.2301Z" fill="black"/>
<path d="M10.4171 17.8163C7.59405 14.9858 5.79358 11.4104 7.92429 9.28932C7.97116 9.24245 8.01804 9.19557 8.07874 9.1487C8.89999 8.53839 9.63405 8.42307 10.1337 9.1337L11.6178 11.225C12.1398 11.9525 12.0003 12.3755 11.4676 12.9402L11.0009 13.4494C10.8369 13.606 10.8901 13.8287 10.9796 13.9555C11.2119 14.356 11.8159 15.106 12.4658 15.7655C13.1391 16.4293 13.8444 17.0035 14.2759 17.2538C14.4282 17.3593 14.6743 17.371 14.8053 17.2304L15.2933 16.7562C15.8323 16.2352 16.283 16.0937 16.9988 16.6039C17.9401 17.2498 18.5525 17.6823 19.1286 18.1072C19.8444 18.6409 19.689 19.4591 19.1593 20.078C19.089 20.1622 19.0262 20.2367 18.9441 20.3209C16.8251 22.4398 13.2401 20.6511 10.4171 17.8163ZM14.7273 14.2789C14.3291 14.2789 14.0384 14.0138 14.0384 13.6348C14.0384 13.4251 14.1055 13.2697 14.2545 13.1185L16.9977 10.3754L17.777 9.66314L16.3245 9.74939H15.3174C14.9448 9.74939 14.6605 9.47471 14.6509 9.10322C14.6316 8.72424 14.933 8.40479 15.3153 8.40479H19.1455C19.6306 8.40479 19.9168 8.69096 19.9168 9.18361V12.9861C19.9168 13.3662 19.6069 13.6698 19.2184 13.658C18.8532 13.6292 18.5818 13.3449 18.5818 12.9819V12.012L18.6584 10.5488L17.9441 11.3431L15.1967 14.0959C15.0924 14.2215 14.9157 14.2789 14.7273 14.2789Z" fill="white"/>
</svg>
