<svg width="28" height="28" viewBox="0 0 28 28" fill="none" xmlns="http://www.w3.org/2000/svg">
<path d="M3.03031 17.6989C3.61999 17.6989 4.07445 17.2348 4.07445 16.6568V12.332C4.07445 11.7519 3.61999 11.2782 3.03031 11.2782C2.44273 11.2782 2 11.7519 2 12.332V16.6568C2 17.2348 2.44273 17.6989 3.03031 17.6989ZM7.05851 22.4307C7.64819 22.4307 8.11436 21.9687 8.11436 21.3908V12.1449L6.03992 10.0705V21.3908C6.03992 21.9687 6.48265 22.4307 7.05851 22.4307ZM11.0888 2.00635C10.5109 2.00635 10.0681 2.47041 10.0681 3.05048V6.75572L12.1426 8.83016V3.05048C12.1426 2.47041 11.6881 2.00635 11.0888 2.00635ZM11.0888 26.9909C11.6881 26.9909 12.1426 26.5269 12.1426 25.9489V16.1752L10.0681 14.1104V25.9489C10.0681 26.5269 10.5109 26.9909 11.0888 26.9909ZM15.1383 8.07315C14.5412 8.07315 14.0984 8.53721 14.0984 9.11728V10.7956L16.1729 12.868V9.11728C16.1729 8.53721 15.7184 8.07315 15.1383 8.07315ZM15.1426 21.9235C15.7301 21.9235 16.1729 21.4594 16.1729 20.8794V20.195L14.0984 18.1226V20.8794C14.0984 21.4594 14.5529 21.9235 15.1426 21.9235ZM19.1687 4.58354C18.5811 4.58354 18.1383 5.05721 18.1383 5.62767V14.8238L20.2128 16.8962V5.62767C20.2128 5.05721 19.7487 4.58354 19.1687 4.58354ZM23.1969 10.359C22.6093 10.359 22.1665 10.8327 22.1665 11.4031V17.5857C22.1665 18.1561 22.6093 18.6181 23.1969 18.6181C23.7865 18.6181 24.241 18.1561 24.241 17.5857V11.4031C24.241 10.8327 23.7865 10.359 23.1969 10.359Z" fill="black"/>
<path d="M24.0109 25.6869C24.3772 26.049 24.9821 26.0448 25.3304 25.6869C25.6967 25.3109 25.6925 24.7337 25.3304 24.3716L4.25536 3.28907C3.88903 2.92274 3.28411 2.92274 2.92412 3.28486C2.56201 3.63525 2.56623 4.2561 2.92412 4.60438L24.0109 25.6869Z" fill="black"/>
</svg>
