<svg width="28" height="28" viewBox="0 0 28 28" fill="none" xmlns="http://www.w3.org/2000/svg">
<path d="M8.01578 27.2622C8.50023 27.2622 8.87382 27.0299 9.45835 26.489L13.7626 22.5944H21.4504C24.9784 22.5944 26.9547 20.5777 26.9547 17.0998V8.01138C26.9547 4.53349 24.9784 2.50708 21.4504 2.50708H6.50218C2.97625 2.50708 1 4.52388 1 8.01138V17.0998C1 20.5872 3.02476 22.5944 6.42836 22.5944H6.90109V25.9898C6.90109 26.7606 7.30984 27.2622 8.01578 27.2622Z" fill="black"/>
<path d="M13.9891 19.1779C13.0464 19.1779 12.2934 18.4269 12.2934 17.4918C12.2934 16.547 13.0464 15.7982 13.9891 15.7982C14.9296 15.7982 15.6827 16.547 15.6827 17.4918C15.6827 18.4269 14.9296 19.1779 13.9891 19.1779Z" fill="white"/>
<path d="M13.9891 14.2501C13.0464 14.2501 12.2934 13.4971 12.2934 12.5566C12.2934 11.6139 13.0464 10.8608 13.9891 10.8608C14.9296 10.8608 15.6827 11.6139 15.6827 12.5566C15.6827 13.4971 14.9296 14.2501 13.9891 14.2501Z" fill="white"/>
<path d="M13.9891 9.31495C13.0464 9.31495 12.2934 8.55441 12.2934 7.61925C12.2934 6.6841 13.0464 5.92566 13.9891 5.92566C14.9296 5.92566 15.6827 6.6841 15.6827 7.61925C15.6827 8.55441 14.9296 9.31495 13.9891 9.31495Z" fill="white"/>
</svg>
