<svg width="28" height="28" viewBox="0 0 28 28" fill="none" xmlns="http://www.w3.org/2000/svg">
<path d="M14.105 26.2301C20.7369 26.2301 26.2121 20.7549 26.2121 14.123C26.2121 7.50291 20.7273 2.01807 14.0954 2.01807C7.47523 2.01807 2 7.50291 2 14.123C2 20.7549 7.48484 26.2301 14.105 26.2301Z" fill="black"/>
<path d="M11.7749 14.1191L7.67705 18.2094C7.5908 18.0582 7.54932 17.7727 7.54932 17.3412V10.9048C7.54932 10.4745 7.59502 10.1764 7.66838 10.0306L11.7749 14.1191ZM14.1146 14.6799C13.9091 14.6799 13.6885 14.6108 13.4403 14.3818L8.30189 9.23165C8.469 9.11025 8.81306 8.99939 9.31275 8.99939H18.8994C19.3991 8.99939 19.7485 9.11025 19.9177 9.23165L14.7814 14.3818C14.5407 14.5991 14.3319 14.6799 14.1146 14.6799ZM16.418 14.1191L20.5224 10.0306C20.5958 10.1764 20.6532 10.4745 20.6532 10.9048V17.3412C20.6532 17.7727 20.6021 18.0582 20.5159 18.2094L16.418 14.1191ZM14.105 15.6873C14.5428 15.6873 14.8815 15.5403 15.3312 15.1215L15.6905 14.791L19.9088 19.0114C19.7492 19.1509 19.4063 19.2467 18.894 19.2467H9.30642C8.80369 19.2467 8.45119 19.1509 8.29158 19.0114L12.5216 14.791L12.8809 15.1215C13.3189 15.5403 13.6693 15.6873 14.105 15.6873Z" fill="white"/>
</svg>
