<svg width="28" height="28" viewBox="0 0 28 28" fill="none" xmlns="http://www.w3.org/2000/svg">
<path d="M14.105 26.21C20.7369 26.21 26.2121 20.7273 26.2121 14.105C26.2121 7.47312 20.7273 2 14.0954 2C7.47523 2 2 7.47312 2 14.105C2 20.7273 7.48484 26.21 14.105 26.21Z" fill="black"/>
<path d="M9.60645 13.497C9.60645 13.1422 9.83567 12.9066 10.1776 12.9066H10.8737V12.1829H10.1776C9.83567 12.1829 9.60645 11.9302 9.60645 11.5967C9.60645 11.2557 9.83567 11.0297 10.1776 11.0297H10.8737V9.64105C10.8737 9.03918 11.2311 8.67004 11.8255 8.67004H14.7582C16.4633 8.67004 17.7235 9.61012 18.249 11.0297H19.0229C19.3649 11.0297 19.5962 11.2557 19.5962 11.5967C19.5962 11.9302 19.3649 12.1829 19.0229 12.1829H18.4974C18.5092 12.3226 18.5092 12.4259 18.5092 12.5527C18.5092 12.6678 18.5071 12.8021 18.4857 12.9066H19.0229C19.3649 12.9066 19.5962 13.1422 19.5962 13.497C19.5962 13.8188 19.3649 14.064 19.0229 14.064H18.2565C17.7247 15.5133 16.4422 16.4588 14.7245 16.4588H12.7543V19.1464C12.7543 19.7216 12.3629 20.0834 11.8236 20.0834C11.2843 20.0834 10.8737 19.7216 10.8737 19.1464V14.064H10.1776C9.83567 14.064 9.60645 13.8188 9.60645 13.497ZM12.766 14.8433L14.4193 14.8454C15.2064 14.8454 15.8141 14.5735 16.1947 14.064H12.766V14.8433ZM12.766 12.9066H16.6318C16.6553 12.8021 16.6553 12.6657 16.6553 12.5506C16.6553 12.4142 16.6553 12.298 16.6318 12.1829H12.766V12.9066ZM12.766 11.0297H16.1788C15.8057 10.5479 15.2021 10.2844 14.4214 10.2844H12.766V11.0297Z" fill="white"/>
</svg>
