<svg width="28" height="28" viewBox="0 0 28 28" fill="none" xmlns="http://www.w3.org/2000/svg">
<path d="M8.01578 27.2622C8.50023 27.2622 8.87382 27.0299 9.45835 26.489L13.7626 22.5944H21.4504C24.9784 22.5944 26.9547 20.5777 26.9547 17.0998V8.01138C26.9547 4.53349 24.9784 2.50708 21.4504 2.50708H6.50218C2.97625 2.50708 1 4.52388 1 8.01138V17.0998C1 20.5872 3.02476 22.5944 6.42836 22.5944H6.90109V25.9898C6.90109 26.7606 7.30984 27.2622 8.01578 27.2622Z" fill="black"/>
<path d="M13.4863 17.8937C13.169 17.8937 12.9241 17.7777 12.6302 17.5019L10.0937 15.0995C10.0532 15.0686 10.0009 15.059 9.94655 15.059H8.26561C7.40194 15.059 6.91632 14.567 6.91632 13.6565V11.4449C6.91632 10.5323 7.40194 10.0445 8.26561 10.0445H9.94655C10.0009 10.0445 10.0532 10.0349 10.0937 9.99977L12.6302 7.62297C12.9571 7.32367 13.1615 7.19055 13.4671 7.19055C13.9068 7.19055 14.241 7.54187 14.241 7.97406V17.137C14.241 17.5691 13.9068 17.8937 13.4863 17.8937Z" fill="white"/>
<path d="M16.24 15.2678C15.9079 15.025 15.8451 14.6364 16.093 14.2492C16.3905 13.8048 16.577 13.1769 16.577 12.5352C16.577 11.8764 16.4043 11.2443 16.093 10.833C15.843 10.4575 15.9079 10.0488 16.24 9.81441C16.537 9.59925 16.9427 9.68972 17.1557 9.97941C17.6404 10.6516 17.9355 11.5881 17.9355 12.5352C17.9355 13.5229 17.6479 14.4498 17.1557 15.1028C16.9309 15.385 16.5348 15.4872 16.24 15.2678Z" fill="white"/>
<path d="M18.4837 16.8531C18.1377 16.6487 18.0909 16.2187 18.3304 15.8622C18.9709 14.9938 19.3152 13.7746 19.3152 12.5394C19.3152 11.2947 18.9709 10.1118 18.34 9.205C18.1005 8.85813 18.157 8.44727 18.4837 8.21618C18.7944 8.00852 19.1905 8.08727 19.4078 8.41094C20.223 9.58282 20.6641 11.0341 20.6641 12.5394C20.6641 14.0716 20.2037 15.5207 19.3982 16.6755C19.2023 16.9799 18.8137 17.0587 18.4837 16.8531Z" fill="white"/>
</svg>
