<svg width="28" height="29" viewBox="0 0 28 29" fill="none" xmlns="http://www.w3.org/2000/svg">
<path d="M3.16132 28.8501H25.373C26.0314 28.8501 26.5536 28.328 26.5536 27.6792C26.5536 27.0209 26.0314 26.5062 25.373 26.5062H3.16132C2.51257 26.5062 2 27.0209 2 27.6792C2 28.328 2.51257 28.8501 3.16132 28.8501Z" fill="black"/>
<path d="M10.0805 13.773H18.473C20.2311 13.773 21.2748 12.7795 21.2748 10.9898V2.86218C21.2748 1.10133 20.2311 0 18.473 0H10.0362C8.28991 0 7.27881 1.03195 7.27881 2.86218V10.9226C7.27881 12.7219 8.3342 13.773 10.0805 13.773ZM9.6528 20.3517H18.9029C19.6248 20.3517 20.104 19.8748 20.104 19.1911C20.104 18.8475 19.9339 18.4631 19.6531 18.1195L17.1331 15.2062H11.4108L8.94311 18.1195C8.64522 18.4727 8.45163 18.8496 8.45163 19.1911C8.45163 19.8748 8.93303 20.3517 9.6528 20.3517Z" fill="black"/>
</svg>
