<svg width="28" height="28" viewBox="0 0 28 28" fill="none" xmlns="http://www.w3.org/2000/svg">
<path d="M6.84421 24.8972H21.0295C23.5685 24.8972 24.8737 23.5919 24.8737 21.0914V6.82921C24.8737 4.32656 23.5685 3.02344 21.0295 3.02344H6.84421C4.31484 3.02344 3 4.31695 3 6.82921V21.0914C3 23.6016 4.31484 24.8972 6.84421 24.8972ZM6.97733 22.6013C5.88772 22.6013 5.29592 22.0371 5.29592 20.8985V7.01999C5.29592 5.88139 5.88772 5.31936 6.97733 5.31936H20.8964C21.9764 5.31936 22.5778 5.88139 22.5778 7.01999V20.8985C22.5778 22.0371 21.9764 22.6013 20.8964 22.6013H6.97733Z" fill="black"/>
<path d="M9.26758 13.9577C9.26758 17.1232 10.8454 19.1585 13.371 19.4602V20.3344C13.371 20.6712 13.6183 20.8971 13.9316 20.8971C14.2492 20.8971 14.4847 20.6712 14.4847 20.3344V19.4719C16.2651 19.3376 17.5815 18.3659 18.0897 16.9723C18.1642 16.7742 18.2132 16.5623 18.2132 16.3451C18.2132 15.8557 17.8855 15.5184 17.3781 15.5184C16.9396 15.5184 16.682 15.7474 16.5236 16.1902C16.2615 17.0899 15.5001 17.7244 14.4847 17.8683V10.0823C15.4361 10.2475 16.1879 10.9087 16.45 11.7733C16.6222 12.2524 16.8627 12.4312 17.3151 12.4312C17.8119 12.4312 18.1333 12.1099 18.1333 11.6151C18.1333 11.3906 18.0758 11.1619 17.9865 10.949C17.451 9.57021 16.1404 8.62263 14.4847 8.467V7.60989C14.4847 7.27309 14.2492 7.05676 13.9316 7.05676C13.6065 7.05676 13.371 7.27309 13.371 7.60989V8.47661C10.8655 8.77192 9.26758 10.8244 9.26758 13.9577ZM11.0973 13.9598C11.0973 11.8797 11.9612 10.435 13.371 10.1154V17.831C11.9516 17.5059 11.0973 16.0709 11.0973 13.9598Z" fill="black"/>
</svg>
