<svg width="28" height="28" viewBox="0 0 28 28" fill="none" xmlns="http://www.w3.org/2000/svg">
<path d="M8.34428 24.6919C9.17561 24.6919 9.69896 24.1526 9.69896 23.2819V8.06362H9.80232L17.292 23.2948C17.6804 24.1516 18.3078 24.6919 19.3222 24.6919C20.4312 24.6919 21.1754 23.9836 21.1754 22.8863V4.6181C21.1754 3.7474 20.652 3.20599 19.8111 3.20599C18.9798 3.20599 18.4564 3.7474 18.4564 4.6181V19.8727H18.3434L10.8654 4.6031C10.4771 3.75583 9.84005 3.20599 8.8353 3.20599C7.71663 3.20599 6.98 3.91427 6.98 5.01372V23.2819C6.98 24.1526 7.50335 24.6919 8.34428 24.6919ZM5 13.9737C5 14.385 5.31969 14.7122 5.72891 14.7122H22.4686C22.88 14.7122 23.1997 14.385 23.1997 13.9737C23.1997 13.5452 22.88 13.2373 22.4686 13.2373H5.72891C5.31969 13.2373 5 13.5452 5 13.9737Z" fill="black"/>
</svg>
