<svg width="28" height="28" viewBox="0 0 28 28" fill="none" xmlns="http://www.w3.org/2000/svg">
<path d="M15.422 26.21C22.0421 26.21 27.527 20.7273 27.527 14.105C27.527 7.47312 22.0421 2 15.422 2C8.80278 2 3.33809 7.44242 3.31489 14.0553H5.6994C5.72261 8.67804 10.0384 4.39412 15.422 4.39412C20.8161 4.39412 25.1425 8.71085 25.1425 14.105C25.1425 19.4991 20.8161 23.8468 15.422 23.8255C12.2699 23.8159 9.51948 22.34 7.74971 20.0211C7.27886 19.4731 6.5973 19.2997 6.02496 19.7023C5.49082 20.0881 5.39144 20.8381 5.89956 21.4634C8.06918 24.2977 11.6183 26.21 15.422 26.21ZM1.90301 11.7188C0.987547 11.7188 0.761844 12.4091 1.25473 13.0991L4.09699 17.0365C4.49215 17.5756 5.10316 17.566 5.48871 17.0365L8.32885 13.0894C8.81002 12.4112 8.58643 11.7188 7.68268 11.7188H1.90301Z" fill="black"/>
<path d="M15.4253 19.734C17.9425 19.734 19.7505 18.3795 19.7505 16.4321C19.7505 14.8379 18.8545 13.9737 16.6584 13.4727L14.9922 13.0878C13.7282 12.7892 13.2079 12.368 13.2079 11.644C13.2079 10.7398 14.0503 10.1361 15.3232 10.1361C16.4503 10.1361 17.1644 10.6107 17.5703 11.6218C17.7979 12.0467 18.1207 12.2469 18.4846 12.2469C19.1467 12.2469 19.5089 11.6572 19.2916 10.9519C18.9592 9.7477 17.572 8.50059 15.3274 8.50059C12.9105 8.50059 11.2218 9.8295 11.2218 11.7376C11.2218 13.3093 12.2383 14.2726 14.3322 14.7491L16.0059 15.1348C17.2551 15.4184 17.7325 15.8194 17.7325 16.6011C17.7325 17.5182 16.8337 18.1027 15.4296 18.1027C14.1449 18.1027 13.3593 17.6103 12.9564 16.6236C12.7511 16.2209 12.4136 16.0145 12.0496 16.0145C11.4014 16.0145 11.047 16.5519 11.1991 17.2634C11.4846 18.6078 13.0898 19.734 15.4253 19.734ZM14.7297 20.817C14.7297 21.2016 15.0398 21.5213 15.4244 21.5213C15.8048 21.5213 16.1266 21.2016 16.1266 20.817V7.40043C16.1266 7.02004 15.8048 6.69824 15.4244 6.69824C15.0398 6.69824 14.7297 7.02004 14.7297 7.40043V20.817Z" fill="black"/>
</svg>
