<svg width="28" height="28" viewBox="0 0 28 28" fill="none" xmlns="http://www.w3.org/2000/svg">
<path d="M14.105 26.21C20.7369 26.21 26.2121 20.7273 26.2121 14.105C26.2121 7.47312 20.7273 2 14.0954 2C7.47523 2 2 7.47312 2 14.105C2 20.7273 7.48484 26.21 14.105 26.21Z" fill="black"/>
<path d="M8.87891 13.8854C8.87891 13.5486 9.13789 13.3088 9.45758 13.3088H9.95657L9.39805 9.68303C9.3725 9.54053 9.34156 9.41913 9.34156 9.27639C9.34156 8.77741 9.71094 8.4657 10.2153 8.4657C10.6674 8.4657 11.0335 8.73054 11.09 9.20725L11.5676 13.3088H12.4681L13.1077 9.32585C13.1918 8.77648 13.59 8.4657 14.0914 8.4657C14.5714 8.4657 15.0005 8.77648 15.0771 9.31413L15.7243 13.2992H16.6461L17.1408 9.19764C17.1994 8.72093 17.5634 8.45398 18.0059 8.45398C18.4986 8.45398 18.8625 8.75819 18.8625 9.24546C18.8625 9.37975 18.8412 9.49671 18.8157 9.63499L18.2475 13.2992H18.7432C19.0746 13.2992 19.3219 13.5369 19.3219 13.8758C19.3219 14.1976 19.0746 14.4662 18.7432 14.4662H18.0568L17.3351 19.1377C17.2564 19.6857 16.8425 20.008 16.3489 20.008C15.8318 20.008 15.4275 19.7028 15.3413 19.141L14.5789 14.4662H13.6315L12.8883 19.141C12.8021 19.7028 12.3957 20.008 11.8808 20.008C11.3712 20.008 10.9691 19.6857 10.8882 19.1377L10.1473 14.4758H9.45758C9.13789 14.4758 8.87891 14.2072 8.87891 13.8854ZM11.7106 14.4566L11.9539 16.9402L12.3092 14.4566H11.7106ZM13.8193 13.3088H14.4061L14.1052 11.2285L13.8193 13.3088ZM15.8853 14.4566L16.2598 17L16.534 14.4566H15.8853Z" fill="white"/>
</svg>
