<svg width="28" height="28" viewBox="0 0 28 28" fill="none" xmlns="http://www.w3.org/2000/svg">
<path d="M6.84421 24.8972H21.0295C23.5685 24.8972 24.8737 23.5919 24.8737 21.0914V6.82921C24.8737 4.32656 23.5685 3.02344 21.0295 3.02344H6.84421C4.31484 3.02344 3 4.31695 3 6.82921V21.0914C3 23.6016 4.31484 24.8972 6.84421 24.8972ZM6.97733 22.6013C5.88772 22.6013 5.29592 22.0371 5.29592 20.8985V7.01999C5.29592 5.88139 5.88772 5.31936 6.97733 5.31936H20.8964C21.9764 5.31936 22.5778 5.88139 22.5778 7.01999V20.8985C22.5778 22.0371 21.9764 22.6013 20.8964 22.6013H6.97733Z" fill="black"/>
<path d="M9.14355 16.3526C9.14355 16.668 9.35988 16.9057 9.69667 16.9057H10.2768L9.7848 18.3795C9.7262 18.5616 9.71237 18.6914 9.71237 18.8041C9.71237 19.2785 10.071 19.6031 10.5922 19.6031C11.0335 19.6031 11.3124 19.3852 11.4402 18.9403L12.0695 16.9057H15.7977L16.4291 18.9499C16.5569 19.3969 16.8229 19.6031 17.2834 19.6031C17.8004 19.6031 18.1548 19.2785 18.1548 18.8041C18.1548 18.6914 18.1314 18.5616 18.0728 18.3795L17.5808 16.9057H18.1768C18.5115 16.9057 18.7279 16.668 18.7279 16.3526C18.7279 16.035 18.5115 15.7898 18.1768 15.7898H17.2248L16.9157 14.8413H18.1768C18.5115 14.8413 18.7279 14.5962 18.7279 14.2786C18.7279 13.9631 18.5115 13.7255 18.1768 13.7255H16.55L15.0843 9.24046C14.912 8.70047 14.5274 8.37305 13.9309 8.37305C13.3302 8.37305 12.9381 8.69086 12.7658 9.24046L11.3075 13.7255H9.69667C9.35988 13.7255 9.14355 13.9631 9.14355 14.2786C9.14355 14.5962 9.35988 14.8413 9.69667 14.8413H10.9419L10.6328 15.7898H9.69667C9.35988 15.7898 9.14355 16.035 9.14355 16.3526ZM12.4021 15.7898L12.6878 14.8413H15.1698L15.4672 15.7898H12.4021ZM13.0183 13.7255L13.9309 10.7515L14.8394 13.7255H13.0183Z" fill="black"/>
</svg>
