<svg width="28" height="28" viewBox="0 0 28 28" fill="none" xmlns="http://www.w3.org/2000/svg">
<path d="M6.84421 24.8972H21.0295C23.5685 24.8972 24.8737 23.5919 24.8737 21.0914V6.82921C24.8737 4.32656 23.5685 3.02344 21.0295 3.02344H6.84421C4.31484 3.02344 3 4.31695 3 6.82921V21.0914C3 23.6016 4.31484 24.8972 6.84421 24.8972ZM6.97733 22.6013C5.88772 22.6013 5.29592 22.0371 5.29592 20.8985V7.01999C5.29592 5.88139 5.88772 5.31936 6.97733 5.31936H20.8964C21.9764 5.31936 22.5778 5.88139 22.5778 7.01999V20.8985C22.5778 22.0371 21.9764 22.6013 20.8964 22.6013H6.97733Z" fill="black"/>
<path d="M12.8102 19.3551C16.1261 19.3551 18.0611 16.9492 18.0611 14.8651C18.0611 14.334 17.743 13.9872 17.2431 13.9872C16.8049 13.9872 16.5037 14.2457 16.4027 14.8058C16.2065 16.3016 15.0044 17.6598 13.2841 17.6598V14.1367L15.6573 13.1741C15.9121 13.0654 16.0314 12.8938 16.0314 12.6424C16.0314 12.3269 15.8172 12.0988 15.4975 12.0988C15.4016 12.0988 15.2941 12.1223 15.1961 12.1595L13.2841 12.9485V11.8858L15.6573 10.9211C15.9121 10.8027 16.0314 10.6408 16.0314 10.3914C16.0314 10.0738 15.8172 9.83618 15.4975 9.83618C15.4016 9.83618 15.2941 9.87134 15.1961 9.90649L13.2841 10.6879V9.33462C13.2841 8.78032 12.9417 8.42712 12.4385 8.42712C11.9236 8.42712 11.5854 8.78032 11.5854 9.33462V11.3573L10.1993 11.9338C9.93489 12.0405 9.8252 12.2024 9.8252 12.4635C9.8252 12.779 10.0394 13.0091 10.3591 13.0091C10.455 13.0091 10.5529 12.9836 10.6605 12.9367L11.5854 12.5552V13.6199L10.1993 14.1847C9.93489 14.2935 9.8252 14.4651 9.8252 14.7165C9.8252 15.032 10.0394 15.2601 10.3591 15.2601C10.455 15.2601 10.5529 15.2366 10.6605 15.1993L11.5854 14.8082V18.2289C11.5854 18.9008 12.0084 19.3551 12.8102 19.3551Z" fill="black"/>
</svg>
