<svg width="28" height="28" viewBox="0 0 28 28" fill="none" xmlns="http://www.w3.org/2000/svg">
<path d="M6.84421 24.8972H21.0295C23.5685 24.8972 24.8737 23.5919 24.8737 21.0914V6.82921C24.8737 4.32656 23.5685 3.02344 21.0295 3.02344H6.84421C4.31484 3.02344 3 4.31695 3 6.82921V21.0914C3 23.6016 4.31484 24.8972 6.84421 24.8972Z" fill="black"/>
<path d="M9.46777 13.3369C9.46777 12.982 9.6991 12.7464 10.039 12.7464H10.735V12.0227H10.039C9.6991 12.0227 9.46777 11.77 9.46777 11.4365C9.46777 11.0955 9.6991 10.8696 10.039 10.8696H10.735V9.4809C10.735 8.87903 11.0946 8.50989 11.6868 8.50989H14.6217C16.3246 8.50989 17.5945 9.44997 18.1125 10.8696H18.8864C19.2358 10.8696 19.4575 11.0955 19.4575 11.4365C19.4575 11.77 19.2358 12.0227 18.8864 12.0227H18.3588C18.3726 12.1624 18.3726 12.2657 18.3726 12.3925C18.3726 12.5076 18.3705 12.6419 18.3567 12.7464H18.8864C19.2358 12.7464 19.4575 12.982 19.4575 13.3369C19.4575 13.6587 19.2358 13.9038 18.8864 13.9038H18.12C17.5882 15.3532 16.3057 16.2987 14.5879 16.2987H12.6157V18.9863C12.6157 19.5614 12.2243 19.9233 11.6871 19.9233C11.1457 19.9233 10.735 19.5614 10.735 18.9863V13.9038H10.039C9.6991 13.9038 9.46777 13.6587 9.46777 13.3369ZM12.6274 14.6831L14.2807 14.6852C15.0698 14.6852 15.6754 14.4134 16.0582 13.9038H12.6274V14.6831ZM12.6274 12.7464H16.5049C16.5166 12.6419 16.5166 12.5055 16.5166 12.3904C16.5166 12.254 16.5166 12.1378 16.5049 12.0227H12.6274V12.7464ZM12.6274 10.8696H16.0401C15.667 10.3877 15.0635 10.1243 14.2849 10.1243H12.6274V10.8696Z" fill="white"/>
</svg>
