<svg width="28" height="28" viewBox="0 0 28 28" fill="none" xmlns="http://www.w3.org/2000/svg">
<path d="M14.105 26.21C20.7369 26.21 26.2121 20.7273 26.2121 14.105C26.2121 7.47312 20.7273 2 14.0954 2C7.47523 2 2 7.47312 2 14.105C2 20.7273 7.48484 26.21 14.105 26.21ZM14.105 23.8255C8.71085 23.8255 4.39412 19.4991 4.39412 14.105C4.39412 8.71085 8.70124 4.38452 14.0954 4.38452C19.4895 4.38452 23.8276 8.71085 23.8276 14.105C23.8276 19.4991 19.4991 23.8255 14.105 23.8255Z" fill="black"/>
<path d="M10.5202 17.6855C13.2498 20.4055 16.6923 22.1305 18.7241 20.0891C18.8082 20.0145 18.8689 19.9304 18.9392 19.858C19.4412 19.2549 19.5966 18.4761 18.9106 17.9605C18.3526 17.5632 17.7774 17.1467 16.8638 16.5167C16.1661 16.032 15.7313 16.1598 15.2103 16.667L14.7458 17.1273C14.6169 17.2541 14.3846 17.2327 14.2344 17.139C13.8284 16.8908 13.1434 16.3538 12.4955 15.7081C11.8616 15.0645 11.2873 14.3539 11.0551 13.9693C10.9869 13.8446 10.9262 13.6337 11.0785 13.4696L11.5388 12.9955C12.0577 12.4393 12.1737 12.0301 11.6773 11.342L10.2528 9.31437C9.77657 8.63351 9.06267 8.75843 8.27118 9.33898C8.21259 9.38585 8.16571 9.43273 8.11884 9.47C6.07321 11.5252 7.80243 14.9677 10.5202 17.6855ZM14.6698 14.2747C14.8444 14.2747 15.0169 14.2215 15.1308 14.1076L17.7856 11.4357L18.4766 10.6766L18.3903 12.0929V13.0309C18.3903 13.378 18.6458 13.6484 18.9971 13.6773C19.3677 13.6869 19.6712 13.3993 19.6712 13.033V9.37085C19.6712 8.89624 19.4052 8.62811 18.9284 8.62811H15.2366C14.8681 8.62811 14.5923 8.92202 14.6115 9.29468C14.6211 9.64811 14.8819 9.90897 15.2408 9.90897H16.2235L17.6291 9.82483L16.8657 10.5116L14.2226 13.1642C14.0757 13.3016 14.0204 13.4666 14.0204 13.6625C14.0204 14.0234 14.2951 14.2747 14.6698 14.2747Z" fill="black"/>
</svg>
