<svg width="28" height="29" viewBox="0 0 28 29" fill="none" xmlns="http://www.w3.org/2000/svg">
<path d="M3.16132 28.8501H25.373C26.0314 28.8501 26.5536 28.328 26.5536 27.6792C26.5536 27.0209 26.0314 26.5062 25.373 26.5062H3.16132C2.51257 26.5062 2 27.0209 2 27.6792C2 28.328 2.51257 28.8501 3.16132 28.8501Z" fill="black"/>
<path d="M10.8952 14.8495H17.6391C19.9107 14.8495 21.2748 13.4482 21.2748 11.1766V3.67288C21.2748 1.53117 19.9405 0 17.6391 0H10.8952C8.64499 0 7.25961 1.41304 7.25961 3.67288V11.1766C7.25961 13.4482 8.64499 14.8495 10.8952 14.8495ZM11.0987 12.7013C9.84381 12.7013 9.30991 12.1214 9.30991 10.9477V3.92531C9.30991 2.72812 9.84381 2.14827 11.0987 2.14827H17.4357C18.6905 2.14827 19.2341 2.72812 19.2341 3.92531V10.9477C19.2341 12.1214 18.6905 12.7013 17.4357 12.7013H11.0987ZM9.91226 20.3517H18.6221C19.6196 20.3517 20.3328 19.6598 20.3328 18.6933C20.3328 18.2951 20.0954 17.7745 19.7642 17.3944L17.3433 14.5406H14.7544L17.577 17.922C17.6858 18.0616 17.6005 18.2034 17.4491 18.2034H11.1434C10.9824 18.2034 10.8971 18.0616 11.0133 17.922L13.8275 14.5406H11.1889L8.77976 17.3944C8.43898 17.7862 8.21117 18.3068 8.21117 18.6933C8.21117 19.6598 8.91476 20.3517 9.91226 20.3517Z" fill="black"/>
</svg>
