<svg width="30" height="28" viewBox="0 0 30 28" fill="none" xmlns="http://www.w3.org/2000/svg">
<path d="M3.96421 23.2928H16.3139C18.8212 23.2928 20.2781 21.8744 20.2781 19.4071V7.87609C20.2781 5.41844 18.9194 4 16.4121 4H3.96421C1.54336 4 0 5.41844 0 7.8782V19.4725C0 21.9398 1.45476 23.2928 3.96421 23.2928ZM21.9816 17.384L26.0173 20.8644C26.4895 21.2751 26.9984 21.5399 27.4835 21.5399C28.4376 21.5399 29.0817 20.8551 29.0817 19.8372V7.50836C29.0817 6.49047 28.4376 5.80562 27.4835 5.80562C26.9962 5.80562 26.4916 6.07047 26.0173 6.48109L21.9816 9.95196V17.384Z" fill="black"/>
<path d="M6.14908 18.6817C5.55752 18.6817 5.12018 18.272 5.12018 17.722C5.12018 17.4262 5.22236 17.1752 5.449 16.957L10.3003 12.1433L12.1655 10.4657L9.04478 10.6745H7.34088C6.80463 10.6745 6.3619 10.2702 6.3619 9.72343C6.3619 9.15625 6.7833 8.70508 7.33244 8.70508H13.999C14.7785 8.70508 15.1697 9.10796 15.1697 9.88749V16.4842C15.1697 17.0376 14.7206 17.4526 14.1513 17.4526C13.6066 17.4526 13.2002 17.012 13.2002 16.4821V14.8354L13.4091 11.739L11.7293 13.5787L6.88009 18.3742C6.66728 18.5828 6.44603 18.6817 6.14908 18.6817Z" fill="white"/>
</svg>
