<svg width="28" height="28" viewBox="0 0 28 28" fill="none" xmlns="http://www.w3.org/2000/svg">
<path d="M6 4.70413C6 5.45483 6.54984 5.9503 7.30054 5.9503H12.9227V23.295C12.9227 24.1713 13.5574 24.7458 14.3705 24.7458C15.1814 24.7458 15.8065 24.1713 15.8065 23.295V5.9503H21.4383C22.1751 5.9503 22.7388 5.45272 22.7388 4.70413C22.7388 3.95766 22.1751 3.46008 21.4383 3.46008H7.30054C6.54984 3.46008 6 3.95555 6 4.70413ZM9.10687 14.4966C8.23429 14.8472 8.76305 16.2281 9.69422 15.8637L19.6361 11.8842C20.4511 11.5624 20.0569 10.1121 18.9815 10.5556L9.10687 14.4966ZM9.10687 18.9945C8.22375 19.3514 8.77148 20.7335 9.69422 20.3733L19.6361 16.3821C20.4511 16.0603 20.059 14.6217 18.9815 15.0534L9.10687 18.9945Z" fill="black"/>
</svg>
