<svg width="28" height="28" viewBox="0 0 28 28" fill="none" xmlns="http://www.w3.org/2000/svg">
<path d="M14.105 26.2301C20.7369 26.2301 26.2121 20.7549 26.2121 14.123C26.2121 7.50291 20.7273 2.01807 14.0954 2.01807C7.47523 2.01807 2 7.50291 2 14.123C2 20.7549 7.48484 26.2301 14.105 26.2301Z" fill="black"/>
<path d="M12.0794 18.1433C11.0064 18.1433 10.3841 17.6267 10.2414 16.6573L9.33016 10.2835H7.53742C7.13922 10.2835 6.84766 9.994 6.84766 9.59369C6.84766 9.18166 7.13922 8.89221 7.53742 8.89221H9.54813C10.1432 8.89221 10.562 9.24799 10.6429 9.78892L10.742 10.5131H20.2054C20.6181 10.5131 20.8459 10.7557 20.8459 11.0909C20.8459 11.1483 20.8342 11.2538 20.8108 11.3304L20.3662 14.3923C20.233 15.2944 19.757 15.8398 18.8399 15.8398H11.5326L11.5816 16.2948C11.6221 16.6234 11.8408 16.8144 12.1576 16.8144H18.5776C18.9653 16.8144 19.2367 17.0731 19.2367 17.4692C19.2367 17.8887 18.9653 18.1433 18.5776 18.1433H12.0794ZM12.3196 21.1187C11.7114 21.1187 11.2162 20.6394 11.2162 20.0173C11.2162 19.3878 11.7114 18.9043 12.3196 18.9043C12.9395 18.9043 13.4305 19.3878 13.4305 20.0173C13.4305 20.6394 12.9395 21.1187 12.3196 21.1187ZM17.5954 21.1187C16.983 21.1187 16.4727 20.6394 16.4727 20.0173C16.4727 19.3878 16.983 18.9043 17.5954 18.9043C18.2132 18.9043 18.7063 19.3878 18.7063 20.0173C18.7063 20.6394 18.2132 21.1187 17.5954 21.1187Z" fill="white"/>
</svg>
