<svg width="28" height="28" viewBox="0 0 28 28" fill="none" xmlns="http://www.w3.org/2000/svg">
<path d="M8.39687 27.1131C9.04913 27.1131 9.53405 26.7937 10.3459 26.0807L14.3572 22.5294H21.4504C24.9784 22.5294 26.9547 20.503 26.9547 17.0251V7.93679C26.9547 4.45891 24.9784 2.4325 21.4504 2.4325H6.50218C2.97625 2.4325 1 4.4493 1 7.93679V17.0251C1 20.5126 3.02476 22.5294 6.42836 22.5294H6.9107V25.4181C6.9107 26.4533 7.45422 27.1131 8.39687 27.1131ZM8.96593 24.532V21.1863C8.96593 20.4986 8.67132 20.2335 8.01319 20.2335H6.56757C4.35225 20.2335 3.29592 19.1066 3.29592 16.9523V8.00007C3.29592 5.84569 4.35225 4.72842 6.56757 4.72842H21.3871C23.5928 4.72842 24.6588 5.84569 24.6588 8.00007V16.9523C24.6588 19.1066 23.5928 20.2335 21.3871 20.2335H14.2321C13.521 20.2335 13.1823 20.3484 12.6864 20.8497L8.96593 24.532Z" fill="black"/>
<path d="M11.5267 16.881L13.9891 15.0782L16.4514 16.881C16.953 17.2569 17.5546 16.9246 17.3193 16.2442L16.3614 13.3567L18.8718 11.5527C19.3874 11.1735 19.1943 10.5316 18.562 10.5316L15.4506 10.5358L14.5279 7.65581C14.3373 7.05956 13.6429 7.05956 13.4523 7.65581L12.5179 10.5358L9.4087 10.5316C8.78057 10.5316 8.56729 11.1756 9.09464 11.5527L11.6188 13.3588L10.6493 16.2442C10.416 16.9162 11.0134 17.2591 11.5267 16.881Z" fill="black"/>
</svg>
