<svg width="28" height="28" viewBox="0 0 28 28" fill="none" xmlns="http://www.w3.org/2000/svg">
<path d="M6.84421 24.8972H21.0295C23.5685 24.8972 24.8737 23.5919 24.8737 21.0914V6.82921C24.8737 4.32656 23.5685 3.02344 21.0295 3.02344H6.84421C4.31484 3.02344 3 4.31695 3 6.82921V21.0914C3 23.6016 4.31484 24.8972 6.84421 24.8972Z" fill="black"/>
<path d="M9.53613 12.1781C9.53613 11.835 9.76746 11.609 10.1073 11.609H10.7886V9.47129C10.7886 8.87903 11.1482 8.50989 11.7404 8.50989H14.6753C16.7097 8.50989 18.1171 9.76309 18.3815 11.609H18.9547C19.3063 11.609 19.5259 11.835 19.5259 12.1781C19.5259 12.5095 19.3063 12.7664 18.9547 12.7664H18.4007C18.1822 14.6932 16.7237 16.0233 14.6415 16.0233H12.6714V18.9766C12.6714 19.5614 12.28 19.9233 11.7428 19.9233C11.1993 19.9233 10.7886 19.5614 10.7886 18.9766V12.7664H10.1073C9.76746 12.7664 9.53613 12.5095 9.53613 12.1781ZM12.681 14.4173L14.3225 14.4194C15.5265 14.4194 16.3176 13.8309 16.4945 12.7664H12.681V14.4173ZM12.681 11.609H16.4657C16.2557 10.635 15.4722 10.1146 14.3268 10.1146H12.681V11.609Z" fill="white"/>
</svg>
