<svg width="28" height="28" viewBox="0 0 28 28" fill="none" xmlns="http://www.w3.org/2000/svg">
<path d="M6.84421 24.8972H21.0295C23.5685 24.8972 24.8737 23.5919 24.8737 21.0914V6.82921C24.8737 4.32656 23.5685 3.02344 21.0295 3.02344H6.84421C4.31484 3.02344 3 4.31695 3 6.82921V21.0914C3 23.6016 4.31484 24.8972 6.84421 24.8972ZM6.97733 22.6013C5.88772 22.6013 5.29592 22.0371 5.29592 20.8985V7.01999C5.29592 5.88139 5.88772 5.31936 6.97733 5.31936H20.8964C21.9764 5.31936 22.5778 5.88139 22.5778 7.01999V20.8985C22.5778 22.0371 21.9764 22.6013 20.8964 22.6013H6.97733Z" fill="black"/>
<path d="M14.2095 19.4932C16.1363 19.4932 17.753 18.6874 18.375 16.9723C18.4517 16.7742 18.5006 16.5623 18.5006 16.3451C18.5006 15.8557 18.1613 15.5184 17.6656 15.5184C17.225 15.5184 16.9674 15.7474 16.811 16.1902C16.4766 17.318 15.44 17.9077 14.2606 17.9077C12.3797 17.9077 11.3848 16.1205 11.3848 13.9598C11.3848 11.8223 12.4116 10.0333 14.2606 10.0333C15.3631 10.0333 16.3784 10.657 16.7375 11.7733C16.9097 12.2524 17.1406 12.4312 17.5908 12.4312C18.0973 12.4312 18.4186 12.1099 18.4186 11.6151C18.4186 11.3906 18.3633 11.1619 18.2719 10.949C17.6841 9.41131 16.1121 8.44568 14.2095 8.44568C11.3545 8.44568 9.5529 10.6537 9.5529 13.9577C9.5529 17.1668 11.2254 19.4932 14.2095 19.4932ZM8.65125 13.3596H14.4589C14.7764 13.3596 15.0162 13.1102 15.0162 12.8065C15.0162 12.4739 14.7764 12.2458 14.4589 12.2458H8.65125C8.33367 12.2458 8.10352 12.4739 8.10352 12.8065C8.10352 13.1102 8.33367 13.3596 8.65125 13.3596ZM8.65125 15.6415H14.4589C14.7764 15.6415 15.0162 15.3942 15.0162 15.0809C15.0162 14.7558 14.7764 14.5277 14.4589 14.5277H8.65125C8.33367 14.5277 8.10352 14.7558 8.10352 15.0809C8.10352 15.3942 8.33367 15.6415 8.65125 15.6415Z" fill="black"/>
</svg>
