<svg width="31" height="28" viewBox="0 0 31 28" fill="none" xmlns="http://www.w3.org/2000/svg">
<path d="M2.67796 25.0596H6.00445C7.75452 25.0596 8.69413 24.1575 8.69413 22.4937V12.416C8.69413 10.7522 7.75452 9.84045 6.00445 9.84045H2.67796C0.939605 9.84045 0 10.7522 0 12.4202V22.4937C0 24.1575 0.939605 25.0596 2.67796 25.0596Z" fill="black"/>
<path d="M13.4998 25.0595H16.8359C18.586 25.0595 19.5159 24.1574 19.5159 22.4936V8.99313C19.5159 7.32931 18.586 6.4176 16.8359 6.4176H13.4998C11.7614 6.4176 10.8218 7.32931 10.8218 8.99735V22.4936C10.8218 24.1574 11.7614 25.0595 13.4998 25.0595Z" fill="black"/>
<path d="M24.3222 25.0596H27.6583C29.4063 25.0596 30.3459 24.1575 30.3459 22.4937V5.57554C30.3459 3.91171 29.4063 3 27.6583 3H24.3222C22.5935 3 21.6538 3.91171 21.6538 5.57765V22.4937C21.6538 24.1575 22.5935 25.0596 24.3222 25.0596Z" fill="black"/>
</svg>
