<svg width="30" height="28" viewBox="0 0 30 28" fill="none" xmlns="http://www.w3.org/2000/svg">
<path d="M23.3967 23.789C27.0412 23.789 29.9102 21.1148 29.9102 17.7783C29.9102 15.2836 28.488 13.0812 26.1691 12.1118C26.1841 6.81773 22.3633 3 17.4628 3C14.3376 3 12.0063 4.61485 10.5368 6.73523C7.57383 5.93789 4.44797 8.15039 4.33875 11.4506C1.66078 11.9231 0 14.3346 0 17.2573C0 20.8186 3.11086 23.789 7.20515 23.789H23.3967Z" fill="black"/>
<path d="M12.6537 18.5489C12.2534 18.9375 11.6881 18.8651 11.3175 18.5137C10.9545 18.172 10.9013 17.5971 11.2899 17.1968L13.5783 14.8849L11.2899 12.573C10.9013 12.1727 10.9758 11.617 11.3271 11.2464C11.6689 10.8855 12.2534 10.8302 12.6537 11.2188L14.9539 13.5094L17.2561 11.2188C17.666 10.8206 18.2314 10.9047 18.5923 11.2464C18.9628 11.5978 19.0182 12.1727 18.6296 12.573L16.3315 14.8849L18.6296 17.1968C19.0182 17.5971 18.934 18.1507 18.5923 18.5234C18.241 18.8843 17.666 18.9375 17.2561 18.5489L14.9539 16.2605L12.6537 18.5489Z" fill="white"/>
</svg>
