<svg width="32" height="28" viewBox="0 0 32 28" fill="none" xmlns="http://www.w3.org/2000/svg">
<path d="M13.3843 13.6653C13.3843 14.8484 14.4205 15.8494 15.6292 15.8494C16.8379 15.8494 17.8293 14.8484 17.8293 13.6398C17.8293 12.4173 16.8496 11.4163 15.6292 11.4163C14.3971 11.4163 13.3843 12.4428 13.3843 13.6653Z" fill="black"/>
<path d="M8.52637 13.6399C8.52637 15.2249 9.06754 16.7268 10.0114 17.9123C10.4403 18.4593 11.1692 18.4698 11.5713 18.0124C11.9609 17.5781 11.8149 17.0566 11.4349 16.5149C10.8253 15.7349 10.5099 14.7395 10.5099 13.6399C10.5099 12.5422 10.8253 11.5447 11.4349 10.7551C11.8149 10.2231 11.9609 9.70372 11.5713 9.26732C11.1692 8.80982 10.4403 8.82037 10.0114 9.35989C9.06754 10.5432 8.52637 12.0451 8.52637 13.6399ZM22.6945 13.6399C22.6945 12.0451 22.1534 10.5432 21.2074 9.35989C20.7806 8.82037 20.0496 8.80982 19.6474 9.26732C19.2579 9.70372 19.3943 10.2231 19.7838 10.7551C20.3935 11.5447 20.7089 12.5422 20.7089 13.6399C20.7089 14.7395 20.3935 15.7349 19.7838 16.5149C19.3943 17.0566 19.2579 17.5781 19.6474 18.0124C20.0496 18.4698 20.7806 18.4593 21.2074 17.9123C22.1534 16.7268 22.6945 15.2249 22.6945 13.6399Z" fill="black"/>
<path d="M4.26709 13.6399C4.26709 16.4404 5.26951 19.0598 7.07303 21.0166C7.52959 21.5221 8.20739 21.5359 8.60536 21.0731C8.98739 20.6399 8.89153 20.0749 8.4488 19.5906C7.02099 17.9807 6.24309 15.9072 6.24309 13.6399C6.24309 11.3725 7.02099 9.29894 8.4488 7.68902C8.89153 7.2048 8.98739 6.63973 8.60536 6.1991C8.20739 5.74371 7.52959 5.74793 7.07303 6.25559C5.26951 8.21988 4.26709 10.8297 4.26709 13.6399ZM26.9523 13.6399C26.9523 10.8297 25.9498 8.21988 24.1484 6.25559C23.6898 5.74793 23.012 5.74371 22.614 6.1991C22.2223 6.63973 22.3278 7.2048 22.7609 7.68902C24.1984 9.29894 24.9763 11.3725 24.9763 13.6399C24.9763 15.9072 24.1984 17.9807 22.7609 19.5906C22.3278 20.0749 22.2223 20.6399 22.614 21.0731C23.012 21.5359 23.6898 21.5221 24.1484 21.0166C25.9498 19.0598 26.9523 16.4404 26.9523 13.6399Z" fill="black"/>
<path d="M0 13.6398C0 17.5845 1.47445 21.2138 4.04812 23.911C4.51008 24.4006 5.16234 24.3643 5.54109 23.9365C5.92101 23.5269 5.84858 22.9224 5.40585 22.4616C3.18749 20.1432 1.98562 17.0321 1.98562 13.6398C1.98562 10.2474 3.18749 7.13628 5.40585 4.81784C5.84858 4.34957 5.92101 3.75472 5.54109 3.33332C5.16234 2.9152 4.51008 2.87887 4.04812 3.36847C1.47445 6.06566 0 9.69496 0 13.6398ZM31.2192 13.6398C31.2192 9.69496 29.7447 6.06566 27.1711 3.36847C26.7091 2.87887 26.0569 2.9152 25.6781 3.33332C25.2982 3.75472 25.3706 4.34957 25.8133 4.81784C28.0221 7.13628 29.2336 10.2474 29.2336 13.6398C29.2336 17.0321 28.0221 20.1432 25.8133 22.4616C25.3706 22.9224 25.2982 23.5269 25.6781 23.9365C26.0569 24.3643 26.7091 24.4006 27.1711 23.911C29.7447 21.2138 31.2192 17.5845 31.2192 13.6398Z" fill="black"/>
</svg>
