<svg width="28" height="28" viewBox="0 0 28 28" fill="none" xmlns="http://www.w3.org/2000/svg">
<path d="M6.84421 24.8972H21.0295C23.5685 24.8972 24.8737 23.5919 24.8737 21.0914V6.82921C24.8737 4.32656 23.5685 3.02344 21.0295 3.02344H6.84421C4.31484 3.02344 3 4.31695 3 6.82921V21.0914C3 23.6016 4.31484 24.8972 6.84421 24.8972Z" fill="black"/>
<path d="M13.9753 19.553C13.7815 19.553 13.6324 19.4742 13.3608 19.1951L11.7563 17.6491C11.6147 17.5097 11.5774 17.3149 11.6775 17.1659C12.1898 16.466 13.0847 16.0111 13.9753 16.0111C14.8585 16.0111 15.7428 16.448 16.238 17.103C16.3753 17.2659 16.354 17.5034 16.2007 17.6491L14.6058 19.1951C14.3149 19.4838 14.1692 19.553 13.9753 19.553Z" fill="white"/>
<path d="M10.0455 15.9127L9.0281 14.8983C8.87271 14.7396 8.85138 14.5235 8.98873 14.3606C10.0861 13.0394 12.0016 12.1967 13.9757 12.1967C15.9403 12.1967 17.8675 13.0394 18.9553 14.3606C19.1022 14.5139 19.0905 14.7492 18.9255 14.8983L17.9081 15.9127C17.7121 16.1065 17.4588 16.1065 17.265 15.8988C16.4393 14.9941 15.1755 14.4272 13.9757 14.4464C12.7568 14.4272 11.5165 14.9941 10.7025 15.8892C10.4969 16.114 10.2436 16.1065 10.0455 15.9127Z" fill="white"/>
<path d="M7.31243 13.1934L6.4122 12.2698C6.25353 12.109 6.23009 11.8929 6.36743 11.7108C8.00173 9.69729 11.0062 8.36768 13.9754 8.36768C16.9372 8.36768 19.9417 9.69729 21.5739 11.7108C21.7229 11.8929 21.6995 12.109 21.5408 12.2698L20.6406 13.1838C20.4522 13.368 20.1892 13.3776 20.0029 13.1934C18.4473 11.5057 16.3365 10.6235 13.9754 10.6235C11.6207 10.6235 9.53126 11.5111 7.96188 13.1817C7.76384 13.3915 7.47954 13.3915 7.31243 13.1934Z" fill="white"/>
</svg>
