<svg width="28" height="29" viewBox="0 0 28 29" fill="none" xmlns="http://www.w3.org/2000/svg">
<path d="M9.59424 14.3159C9.59424 11.8723 8.75588 9.57583 7.25823 7.75474C6.13581 6.38905 4.34239 7.86279 5.24613 9.06817C6.65145 10.8706 7.16942 12.3356 7.16942 14.3159C7.16942 16.2961 6.65145 17.7633 5.24613 19.5635C4.352 20.7593 6.14542 22.2234 7.25823 20.8673C8.75588 19.0559 9.59424 16.7595 9.59424 14.3159Z" fill="black"/>
<path d="M16.1433 14.3158C16.1433 10.5538 14.9536 7.0145 12.8065 4.15888C11.6602 2.64764 9.69592 4.12887 10.7647 5.48613C12.6959 7.97707 13.7281 11.0315 13.7281 14.3158C13.7281 17.6022 12.6959 20.6566 10.7647 23.1433C9.69592 24.5047 11.6602 25.9818 12.8065 24.4651C14.9536 21.6074 16.1433 18.0777 16.1433 14.3158Z" fill="black"/>
<path d="M22.7111 14.3158C22.7111 9.24901 21.1241 4.52214 18.2584 0.617456C17.2227 -0.793941 15.1605 0.500971 16.2601 1.93393C18.8962 5.47604 20.2862 9.73627 20.2862 14.3158C20.2862 18.8952 18.8865 23.1458 16.2728 26.6732C15.2008 28.0881 17.1939 29.4543 18.2774 27.9929C21.1241 24.0997 22.7111 19.3729 22.7111 14.3158Z" fill="black"/>
</svg>
