<svg width="28" height="28" viewBox="0 0 28 28" fill="none" xmlns="http://www.w3.org/2000/svg">
<path d="M14.105 26.2301C20.7369 26.2301 26.2121 20.7549 26.2121 14.123C26.2121 7.50291 20.7273 2.01807 14.0954 2.01807C7.47523 2.01807 2 7.50291 2 14.123C2 20.7549 7.48484 26.2301 14.105 26.2301Z" fill="black"/>
<path d="M6.00781 12.9074C6.00781 10.9185 7.43961 9.47498 9.42429 9.47498H14.3924C16.3846 9.47498 17.8089 10.9185 17.8089 12.9074C17.8089 14.9038 16.3867 16.3239 14.3924 16.3239H12.8598C12.47 15.9702 12.4222 15.322 12.568 14.9524H14.3359C15.5507 14.9524 16.3787 14.1339 16.3787 12.9074C16.3787 11.6905 15.5485 10.8465 14.3359 10.8465H9.49672C8.29156 10.8465 7.44968 11.6905 7.44968 12.9074C7.44968 14.1339 8.28195 14.9524 9.49672 14.9524H9.72406C9.67086 15.3719 9.70601 15.978 9.78687 16.3239H9.42429C7.42789 16.3239 6.00781 14.9038 6.00781 12.9074ZM10.3815 15.4347C10.3815 13.4458 11.8037 12.0182 13.7884 12.0182H15.3306C15.715 12.3485 15.7682 13.0373 15.601 13.3877H13.8545C12.6418 13.3877 11.8116 14.2178 11.8116 15.4347C11.8116 16.6516 12.6439 17.4956 13.8545 17.4956H18.6861C19.8988 17.4956 20.731 16.6516 20.731 15.4347C20.731 14.2178 19.9084 13.3877 18.6861 13.3877H18.4663C18.5333 12.7776 18.4663 12.3719 18.4056 12.0182H18.766C20.755 12.0182 22.1729 13.4458 22.1729 15.4347C22.1729 17.4311 20.7507 18.865 18.766 18.865H13.7884C11.8058 18.865 10.3815 17.4311 10.3815 15.4347Z" fill="white"/>
</svg>
