<svg width="28" height="28" viewBox="0 0 28 28" fill="none" xmlns="http://www.w3.org/2000/svg">
<path d="M14.105 26.21C20.7369 26.21 26.2121 20.7273 26.2121 14.105C26.2121 7.47312 20.7273 2 14.0954 2C7.47523 2 2 7.47312 2 14.105C2 20.7273 7.48484 26.21 14.105 26.21ZM14.105 23.8255C8.71085 23.8255 4.39412 19.4991 4.39412 14.105C4.39412 8.71085 8.70124 4.38452 14.0954 4.38452C19.4895 4.38452 23.8276 8.71085 23.8276 14.105C23.8276 19.4991 19.4991 23.8255 14.105 23.8255Z" fill="black"/>
<path d="M16.4531 14.0995C16.4531 15.3026 16.8121 16.496 17.429 17.3205C17.7058 17.7176 18.2465 17.8272 18.6562 17.5622C19.1052 17.2481 19.184 16.699 18.8498 16.2054C18.4617 15.6628 18.2388 14.8854 18.2388 14.0995C18.2388 13.2965 18.4617 12.517 18.8498 12.0054C19.1936 11.5097 19.1149 10.9435 18.6562 10.639C18.2465 10.3835 17.7175 10.4932 17.429 10.8785C16.8121 11.7436 16.4531 12.9274 16.4531 14.0995Z" fill="black"/>
<path d="M12.8232 14.0996C12.8232 15.9997 13.3763 17.8454 14.3876 19.2795C14.6836 19.7084 15.2051 19.8094 15.6286 19.5327C16.0414 19.2612 16.1361 18.7079 15.8253 18.2281C15.0439 17.124 14.6089 15.6411 14.6089 14.0996C14.6089 12.5698 15.0439 11.0849 15.8253 9.98283C16.1361 9.50306 16.0414 8.94971 15.6286 8.67619C15.2051 8.3919 14.6836 8.50252 14.3876 8.91971C13.3763 10.3367 12.8232 12.1707 12.8232 14.0996Z" fill="black"/>
<path d="M9.19531 14.0996C9.19531 16.7063 9.95633 19.2298 11.3312 21.2586C11.641 21.6821 12.1763 21.8045 12.5902 21.5234C13.0179 21.237 13.0976 20.6933 12.7911 20.2316C11.6281 18.5307 10.9618 16.337 10.9618 14.0996C10.9618 11.8452 11.6185 9.68025 12.7911 7.96978C13.0976 7.51767 13.0179 6.96431 12.5902 6.6758C12.1667 6.39689 11.6293 6.50963 11.3312 6.95236C9.95633 8.99072 9.19531 11.5142 9.19531 14.0996Z" fill="black"/>
</svg>
