<svg width="28" height="28" viewBox="0 0 28 28" fill="none" xmlns="http://www.w3.org/2000/svg">
<path d="M14.105 26.2301C20.7369 26.2301 26.2121 20.7549 26.2121 14.123C26.2121 7.50291 20.7273 2.01807 14.0954 2.01807C7.47523 2.01807 2 7.50291 2 14.123C2 20.7549 7.48484 26.2301 14.105 26.2301Z" fill="black"/>
<path d="M14.1145 19.7312C13.9207 19.7312 13.7716 19.6524 13.4979 19.3829L11.8954 17.8273C11.7518 17.6879 11.7145 17.5027 11.8167 17.3441C12.329 16.6442 13.2218 16.1989 14.1145 16.1989C14.9955 16.1989 15.8819 16.6283 16.3772 17.2834C16.5145 17.4537 16.4815 17.6816 16.3399 17.8273L14.745 19.3829C14.4541 19.662 14.3083 19.7312 14.1145 19.7312Z" fill="white"/>
<path d="M10.1821 16.0909L9.16677 15.0765C9.01138 14.9178 8.99005 14.7113 9.12739 14.5388C10.2247 13.2294 12.1403 12.3866 14.1144 12.3866C16.0789 12.3866 17.9945 13.2198 19.0918 14.5388C19.2388 14.7017 19.2271 14.9274 19.0621 15.0765L18.0371 16.0909C17.8487 16.2847 17.5975 16.2943 17.4036 16.077C16.5779 15.1819 15.3142 14.615 14.1144 14.6246C12.8954 14.615 11.653 15.1819 10.8411 16.0674C10.6356 16.3018 10.3822 16.2847 10.1821 16.0909Z" fill="white"/>
<path d="M7.4396 13.3737L6.55108 12.4501C6.3903 12.2872 6.36897 12.0711 6.50631 11.889C8.14061 9.87551 11.143 8.5459 14.1144 8.5459C17.0762 8.5459 20.0785 9.88512 21.7128 11.889C21.8598 12.0711 21.8385 12.2872 21.6777 12.4501L20.7796 13.3641C20.5911 13.558 20.3282 13.558 20.1418 13.3737C18.5767 11.6839 16.4755 10.8018 14.1144 10.8018C11.75 10.8018 9.67014 11.6914 8.10077 13.3599C7.90061 13.5697 7.6067 13.5793 7.4396 13.3737Z" fill="white"/>
</svg>
