<svg width="28" height="28" viewBox="0 0 28 28" fill="none" xmlns="http://www.w3.org/2000/svg">
<path d="M14.105 26.2301C20.7369 26.2301 26.2121 20.7549 26.2121 14.123C26.2121 7.50291 20.7273 2.01807 14.0954 2.01807C7.47523 2.01807 2 7.50291 2 14.123C2 20.7549 7.48484 26.2301 14.105 26.2301Z" fill="black"/>
<path d="M9.78846 18.5867C8.03908 18.5867 6.70947 17.4919 6.70947 15.5441C6.70947 14.1702 7.52674 13.0899 8.66439 12.6191C8.8465 11.4307 9.83369 10.56 11.0222 10.5094C11.2008 10.4904 11.4146 10.4916 11.625 10.5268C12.4315 9.44208 13.7344 8.74622 15.1878 8.74622C17.6639 8.74622 19.5839 10.6826 19.643 13.0728C19.6557 13.2078 19.6578 13.3578 19.6482 13.5162C20.7094 13.7994 21.5222 14.7702 21.5222 15.9919C21.5222 17.4394 20.3951 18.5867 18.9411 18.5867H9.78846Z" fill="white"/>
</svg>
