<svg width="30" height="28" viewBox="0 0 30 28" fill="none" xmlns="http://www.w3.org/2000/svg">
<path d="M23.3967 23.7912C27.0412 23.7912 29.9102 21.1148 29.9102 17.7783C29.9102 15.2836 28.488 13.0833 26.1691 12.1118C26.1841 6.81773 22.3633 3 17.4628 3C14.3376 3 12.0063 4.61696 10.5368 6.73523C7.57383 5.93789 4.44797 8.15039 4.33875 11.4527C1.66078 11.9231 0 14.3367 0 17.2573C0 20.8186 3.11086 23.7912 7.20515 23.7912H23.3967ZM23.3988 21.4952H7.20937C4.40389 21.4952 2.32123 19.5382 2.32123 17.2573C2.32123 14.9241 3.76451 13.1705 6.16452 13.1705C6.33491 13.1705 6.40194 13.0821 6.39772 12.9192C6.32811 9.41319 8.84319 8.24553 11.3489 9.03702C11.4937 9.08178 11.5842 9.04663 11.6587 8.9135C12.8144 6.87772 14.5247 5.29592 17.448 5.29592C21.1547 5.29592 23.7705 8.22678 23.9571 11.6419C23.9944 12.2569 23.9508 12.9382 23.8955 13.5037C23.8816 13.6666 23.9445 13.7508 24.0977 13.7838C26.2263 14.1998 27.589 15.7036 27.589 17.7783C27.589 19.8419 25.762 21.4952 23.3988 21.4952Z" fill="black"/>
<path d="M14.9677 15.5544C15.5745 15.5544 15.9141 15.2094 15.9439 14.5579L16.11 10.5883C16.1398 9.90156 15.6319 9.42883 14.9539 9.42883C14.2662 9.42883 13.7796 9.89196 13.8094 10.5787L13.9735 14.56C14.0032 15.1998 14.3374 15.5544 14.9677 15.5544ZM14.9581 19.2737C15.6926 19.2737 16.2785 18.741 16.2785 18.0318C16.2785 17.3226 15.698 16.7898 14.9581 16.7898C14.2055 16.7898 13.6313 17.3322 13.6313 18.0318C13.6313 18.7314 14.2151 19.2737 14.9581 19.2737Z" fill="black"/>
</svg>
