<svg width="30" height="28" viewBox="0 0 30 28" fill="none" xmlns="http://www.w3.org/2000/svg">
<path d="M23.3967 23.7912C27.0412 23.7912 29.9102 21.1148 29.9102 17.7783C29.9102 15.2836 28.488 13.0833 26.1691 12.1118C26.1841 6.81773 22.3633 3 17.4628 3C14.3376 3 12.0063 4.61696 10.5368 6.73523C7.57383 5.93789 4.44797 8.15039 4.33875 11.4527C1.66078 11.9231 0 14.3367 0 17.2573C0 20.8186 3.11086 23.7912 7.20515 23.7912H23.3967ZM23.3988 21.4952H7.20937C4.40389 21.4952 2.32123 19.5382 2.32123 17.2573C2.32123 14.9241 3.76451 13.1705 6.16452 13.1705C6.33491 13.1705 6.40194 13.0821 6.39772 12.9192C6.32811 9.41319 8.84319 8.24553 11.3489 9.03702C11.4937 9.08178 11.5842 9.04663 11.6587 8.9135C12.8144 6.87772 14.5247 5.29592 17.448 5.29592C21.1547 5.29592 23.7705 8.22678 23.9571 11.6419C23.9944 12.2569 23.9508 12.9382 23.8955 13.5037C23.8816 13.6666 23.9445 13.7508 24.0977 13.7838C26.2263 14.1998 27.589 15.7036 27.589 17.7783C27.589 19.8419 25.762 21.4952 23.3988 21.4952Z" fill="black"/>
<path d="M10.2589 18.7132C11.5416 19.9863 13.3484 19.9863 14.6428 18.7132L16.9742 16.3798C18.259 15.1066 18.2473 13.2923 16.9721 12.0075C16.602 11.6278 16.1914 11.4157 15.8651 11.3102L15.1988 11.9669C15.0837 12.0916 14.9398 12.2472 14.7863 12.4605C15.2384 12.3975 15.6703 12.5723 16.035 12.9466C16.8003 13.7023 16.812 14.7595 16.0275 15.5365L13.7953 17.7783C13.0301 18.5435 11.9536 18.5414 11.1959 17.7837C10.4285 17.0067 10.4328 15.9441 11.1959 15.1767L12.0865 14.284C11.911 13.7576 11.8943 13.1165 12.1467 12.4509L10.2589 14.3313C8.98572 15.6044 8.98361 17.4284 10.2589 18.7132ZM20.1654 8.82045C18.8881 7.53349 17.0642 7.53349 15.7814 8.80873L13.448 11.1401C12.1749 12.4153 12.1845 14.2392 13.4576 15.5219C13.8298 15.9037 14.2596 16.1137 14.555 16.2192L15.2309 15.5571C15.4153 15.3438 15.461 15.2747 15.5686 15.1116C15.155 15.1148 14.7305 14.9283 14.3871 14.5849C13.6198 13.8176 13.6081 12.772 14.3946 11.9951L16.6247 9.75326C17.4017 8.97841 18.4685 8.98263 19.2242 9.74576C19.984 10.5227 19.9936 11.5896 19.2284 12.3548L18.3357 13.2284C18.5112 13.774 18.5278 14.415 18.2754 15.0806L20.1633 13.1906C21.4343 11.9058 21.4268 10.0915 20.1654 8.82045Z" fill="black"/>
</svg>
