<svg width="28" height="28" viewBox="0 0 28 28" fill="none" xmlns="http://www.w3.org/2000/svg">
<path d="M6.84421 24.8972H21.0295C23.5685 24.8972 24.8737 23.5919 24.8737 21.0914V6.82921C24.8737 4.32656 23.5685 3.02344 21.0295 3.02344H6.84421C4.31484 3.02344 3 4.31695 3 6.82921V21.0914C3 23.6016 4.31484 24.8972 6.84421 24.8972Z" fill="black"/>
<path d="M9.65125 18.4064C7.89977 18.4064 6.57227 17.302 6.57227 15.3562C6.57227 13.9919 7.38953 12.9021 8.52508 12.4408C8.70719 11.2429 9.69649 10.3701 10.8829 10.3216C11.0615 10.3026 11.2752 10.3134 11.4857 10.3485C12.2922 9.25424 13.595 8.56799 15.0505 8.56799C17.5267 8.56799 19.4542 10.5023 19.5133 12.8946C19.5259 13.0296 19.5205 13.17 19.5109 13.3263C20.57 13.6116 21.3829 14.5919 21.3829 15.8137C21.3829 17.2495 20.2558 18.4064 18.8038 18.4064H9.65125Z" fill="white"/>
</svg>
