<svg width="30" height="28" viewBox="0 0 30 28" fill="none" xmlns="http://www.w3.org/2000/svg">
<path d="M23.3967 23.789C27.0412 23.789 29.9102 21.1148 29.9102 17.7783C29.9102 15.2836 28.488 13.0812 26.1691 12.1118C26.1841 6.81773 22.3633 3 17.4628 3C14.3376 3 12.0063 4.61485 10.5368 6.73523C7.57383 5.93789 4.44797 8.15039 4.33875 11.4506C1.66078 11.9231 0 14.3346 0 17.2573C0 20.8186 3.11086 23.789 7.20515 23.789H23.3967Z" fill="black"/>
<path d="M14.1073 18.998C13.691 18.998 13.3514 18.8149 13.0575 18.4432L10.4325 15.187C10.2356 14.9337 10.1377 14.6887 10.1377 14.4237C10.1377 13.8307 10.6017 13.3751 11.1755 13.3751C11.5397 13.3751 11.8411 13.5412 12.0743 13.8502L14.0667 16.4025L17.9923 9.87774C18.2072 9.50953 18.5384 9.30188 18.9023 9.30188C19.489 9.30188 19.9786 9.72235 19.9786 10.2823C19.9786 10.556 19.8368 10.8319 19.7027 11.0384L15.1123 18.4251C14.8748 18.7936 14.5172 18.998 14.1073 18.998Z" fill="white"/>
</svg>
