<svg width="30" height="28" viewBox="0 0 30 28" fill="none" xmlns="http://www.w3.org/2000/svg">
<path d="M23.3967 23.789C27.0412 23.789 29.9102 21.1148 29.9102 17.7783C29.9102 15.2836 28.488 13.0812 26.1691 12.1118C26.1841 6.81773 22.3633 3 17.4628 3C14.3376 3 12.0063 4.61485 10.5368 6.73523C7.57383 5.93789 4.44797 8.15039 4.33875 11.4506C1.66078 11.9231 0 14.3346 0 17.2573C0 20.8186 3.11086 23.789 7.20515 23.789H23.3967Z" fill="black"/>
<path d="M9.16211 21.3921C10.0692 19.5084 12.3114 17.5277 15.7007 17.5277C19.0879 17.5277 21.3302 19.5084 22.2393 21.3921H9.16211ZM15.7007 16.1273C13.9586 16.1081 12.5777 14.5556 12.5681 12.6984C12.5681 10.8731 13.9607 9.35901 15.7007 9.35901C17.4311 9.35901 18.8313 10.8731 18.8313 12.6984C18.8313 14.5598 17.4332 16.1466 15.7007 16.1273Z" fill="white"/>
</svg>
