<svg width="28" height="29" viewBox="0 0 28 29" fill="none" xmlns="http://www.w3.org/2000/svg">
<path d="M18.1172 14.3159C18.1172 16.7595 18.9577 19.0559 20.4553 20.8673C21.5681 22.2234 23.3595 20.7593 22.4653 19.5635C21.0621 17.7633 20.5345 16.2961 20.5345 14.3159C20.5345 12.3356 21.0621 10.8706 22.4653 9.06817C23.3595 7.86279 21.5778 6.38905 20.4553 7.75474C18.9577 9.57583 18.1172 11.8723 18.1172 14.3159Z" fill="black"/>
<path d="M11.5684 14.3158C11.5684 18.0777 12.7601 21.6074 14.9073 24.4651C16.0418 25.9818 18.0157 24.5047 16.9374 23.1433C15.0157 20.6566 13.9857 17.6022 13.9857 14.3158C13.9857 11.0315 15.0157 7.97707 16.9374 5.48613C18.0157 4.12887 16.0418 2.64764 14.9073 4.15888C12.7601 7.0145 11.5684 10.5538 11.5684 14.3158Z" fill="black"/>
<path d="M5 14.3158C5 19.3729 6.58906 24.0997 9.42406 27.9929C10.5172 29.4543 12.5124 28.0881 11.4404 26.6732C8.8149 23.1458 7.42694 18.8952 7.42694 14.3158C7.42694 9.73627 8.8149 5.47604 11.453 1.93393C12.5506 0.500971 10.4787 -0.793941 9.44304 0.617456C6.58906 4.52214 5 9.24901 5 14.3158Z" fill="black"/>
</svg>
