<svg width="30" height="28" viewBox="0 0 30 28" fill="none" xmlns="http://www.w3.org/2000/svg">
<path d="M23.3967 23.7912C27.0412 23.7912 29.9102 21.1148 29.9102 17.7783C29.9102 15.2836 28.488 13.0833 26.1691 12.1118C26.1841 6.81773 22.3633 3 17.4628 3C14.3376 3 12.0063 4.61696 10.5368 6.73523C7.57383 5.93789 4.44797 8.15039 4.33875 11.4527C1.66078 11.9231 0 14.3367 0 17.2573C0 20.8186 3.11086 23.7912 7.20515 23.7912H23.3967ZM23.3988 21.4952H7.20937C4.40389 21.4952 2.32123 19.5382 2.32123 17.2573C2.32123 14.9241 3.76451 13.1705 6.16452 13.1705C6.33491 13.1705 6.40194 13.0821 6.39772 12.9192C6.32811 9.41319 8.84319 8.24553 11.3489 9.03702C11.4937 9.08178 11.5842 9.04663 11.6587 8.9135C12.8144 6.87772 14.5247 5.29592 17.448 5.29592C21.1547 5.29592 23.7705 8.22678 23.9571 11.6419C23.9944 12.2569 23.9508 12.9382 23.8955 13.5037C23.8816 13.6666 23.9445 13.7508 24.0977 13.7838C26.2263 14.1998 27.589 15.7036 27.589 17.7783C27.589 19.8419 25.762 21.4952 23.3988 21.4952Z" fill="black"/>
<path d="M12.8159 18.2709L14.9542 16.1327L17.0903 18.2709C17.4629 18.634 17.9771 18.5573 18.3104 18.2433C18.6362 17.9196 18.7107 17.3958 18.3477 17.0327L16.202 14.8849L18.3477 12.7393C18.7107 12.3762 18.6341 11.862 18.3104 11.5287C17.9963 11.2029 17.4629 11.1263 17.0903 11.5011L14.9542 13.6371L12.8159 11.5011C12.4529 11.1359 11.9291 11.2125 11.6054 11.5287C11.2721 11.8524 11.2051 12.3762 11.5681 12.7393L13.7063 14.8849L11.5681 17.0327C11.2051 17.3958 11.2817 17.9079 11.5958 18.2337C11.9195 18.5669 12.4529 18.634 12.8159 18.2709Z" fill="black"/>
</svg>
