<svg width="30" height="28" viewBox="0 0 30 28" fill="none" xmlns="http://www.w3.org/2000/svg">
<path d="M23.3967 23.7912C27.0412 23.7912 29.9102 21.1148 29.9102 17.7783C29.9102 15.2836 28.488 13.0833 26.1691 12.1118C26.1841 6.81773 22.3633 3 17.4628 3C14.3376 3 12.0063 4.61696 10.5368 6.73523C7.57383 5.93789 4.44797 8.15039 4.33875 11.4527C1.66078 11.9231 0 14.3367 0 17.2573C0 20.8186 3.11086 23.7912 7.20515 23.7912H23.3967ZM23.3988 21.4952H7.20937C4.40389 21.4952 2.32123 19.5382 2.32123 17.2573C2.32123 14.9241 3.76451 13.1705 6.16452 13.1705C6.33491 13.1705 6.40194 13.0821 6.39772 12.9192C6.32811 9.41319 8.84319 8.24553 11.3489 9.03702C11.4937 9.08178 11.5842 9.04663 11.6587 8.9135C12.8144 6.87772 14.5247 5.29592 17.448 5.29592C21.1547 5.29592 23.7705 8.22678 23.9571 11.6419C23.9944 12.2569 23.9508 12.9382 23.8955 13.5037C23.8816 13.6666 23.9445 13.7508 24.0977 13.7838C26.2263 14.1998 27.589 15.7036 27.589 17.7783C27.589 19.8419 25.762 21.4952 23.3988 21.4952Z" fill="black"/>
<path d="M19.906 14.7642C19.906 12.2512 17.8808 10.2745 15.5766 10.1965C15.4892 10.1944 15.3901 10.2019 15.324 10.2094L15.9367 9.56367C16.0538 9.44437 16.1422 9.26109 16.1422 9.06C16.1422 8.67445 15.8429 8.33484 15.4194 8.33484C15.2087 8.33484 15.0106 8.43164 14.8787 8.58281L12.9188 10.5757C12.642 10.8525 12.6378 11.3529 12.9209 11.636L14.9021 13.6151C15.0299 13.7428 15.2204 13.8216 15.4131 13.8216C15.8197 13.8216 16.138 13.5244 16.138 13.103C16.138 12.9176 16.0644 12.7556 15.9481 12.6288L15.0952 11.7792C15.1986 11.7663 15.3266 11.7651 15.4428 11.7694C17.0504 11.8158 18.3327 13.1529 18.3327 14.793C18.3327 16.5103 16.9597 17.895 15.2424 17.895C13.5369 17.895 12.1618 16.5124 12.1618 14.793C12.1618 14.3705 11.8084 14.017 11.3741 14.017C10.9419 14.017 10.5884 14.3705 10.5884 14.793C10.5884 17.3843 12.665 19.4684 15.2424 19.4684C17.8295 19.4684 19.906 17.3843 19.906 14.7642Z" fill="black"/>
</svg>
