<svg width="28" height="28" viewBox="0 0 28 28" fill="none" xmlns="http://www.w3.org/2000/svg">
<path d="M1 7.50037C1 11.5595 5.93359 15.7145 14.1224 15.7145C18.0454 15.7145 21.5326 14.7346 23.9814 12.9473C23.2541 12.632 22.6365 12.0911 22.2372 11.399C20.4562 13.113 17.6078 14.0334 14.1224 14.0334C7.03679 14.0334 4.38437 10.304 4.38437 8.08724C4.38437 7.55661 4.46429 7.08247 4.63585 6.67232C3.47945 6.03435 2.71914 4.79474 2.69359 3.46982C1.57727 4.50951 1 5.87498 1 7.50037ZM20.6994 18.299C20.6994 13.2065 15.7401 5.55552 10.2034 3.04396C10.2151 3.15787 10.2173 3.26006 10.2173 3.36646C10.2173 4.0363 10.0448 4.6806 9.7232 5.24076C14.0277 6.57318 18.0916 12.3051 18.0916 17.1198C18.0916 19.8873 16.4882 21.7963 14.3544 21.8048C14.4449 22.1615 14.4981 22.5299 14.4981 22.8887C14.4981 23.7247 14.2276 24.5256 13.7261 25.1753C13.8337 25.187 13.9701 25.187 14.1011 25.187C17.9312 25.187 20.6994 22.2995 20.6994 18.299ZM21.5029 2.2356C14.8075 2.2356 7.51984 12.1403 7.51984 18.299C7.51984 19.0307 7.6157 19.7699 7.82875 20.4974C8.40999 19.6722 9.52515 19.1493 10.4345 19.1301C10.2332 18.5219 10.1181 17.8368 10.1181 17.1198C10.1181 11.8152 15.2971 4.93724 20.4037 4.93724C21.7865 4.93724 22.855 5.43904 23.4142 6.35427C24.0287 5.94435 24.738 5.73459 25.4823 5.73459C26.0404 5.73459 26.5888 5.8656 27.0862 6.08919C26.5185 3.69693 24.4309 2.2356 21.5029 2.2356Z" fill="black"/>
<path d="M6.45877 5.73507C7.76236 5.73507 8.82736 4.67968 8.82736 3.36648C8.82736 2.06289 7.76658 1 6.45877 1C5.14346 1 4.08057 2.06289 4.08057 3.36648C4.08057 4.67968 5.14557 5.73507 6.45877 5.73507ZM25.4825 11.8715C26.7957 11.8715 27.8511 10.8065 27.8511 9.50288C27.8511 8.18968 26.7957 7.12468 25.4825 7.12468C24.1789 7.12468 23.1139 8.18968 23.1139 9.50288C23.1139 10.8065 24.1789 11.8715 25.4825 11.8715ZM10.7375 25.2573C12.0528 25.2573 13.1061 24.204 13.1061 22.8887C13.1061 21.5755 12.0432 20.5223 10.7375 20.5223C9.42431 20.5223 8.36892 21.5755 8.36892 22.8887C8.36892 24.204 9.42431 25.2573 10.7375 25.2573Z" fill="black"/>
</svg>
