<svg width="28" height="28" viewBox="0 0 28 28" fill="none" xmlns="http://www.w3.org/2000/svg">
<path d="M5.71327 19.4314C6.12202 18.9632 5.99007 18.3639 5.53656 17.8518C3.98944 16.1352 3.13374 13.832 3.13374 11.3146C3.13374 9.25304 3.7103 7.35882 4.7589 5.79366L3.22328 4.25804C1.79359 6.20546 1 8.68796 1 11.3146C1 14.4025 2.08047 17.274 4.03422 19.3728C4.56601 19.9473 5.29609 19.9241 5.71327 19.4314ZM9.30061 16.0262C9.69671 15.5621 9.54647 14.9863 9.15249 14.4529C8.49999 13.6363 8.15382 12.4848 8.15382 11.3146C8.15382 10.6897 8.27968 10.0874 8.49835 9.5235L6.84367 7.86882C6.29922 8.89257 6.02007 10.0801 6.02007 11.3146C6.02007 13.0752 6.59547 14.7228 7.615 15.9526C8.09898 16.5465 8.88226 16.5285 9.30061 16.0262ZM13.806 24.8783C14.4285 24.8783 14.8147 24.4293 14.8147 23.7397V15.8495L12.7898 13.8245V23.7397C12.7898 24.4133 13.2016 24.8783 13.806 24.8783ZM20.7979 14.6577C21.3151 13.6895 21.5844 12.5324 21.5844 11.3146C21.5844 9.55608 21.0069 7.90843 19.9895 6.67866C19.5055 6.08265 18.7201 6.10281 18.3018 6.60507C17.9078 7.06913 18.0676 7.63327 18.4499 8.17631C19.0736 9.02382 19.4507 10.1464 19.4507 11.3146C19.4507 11.9005 19.3464 12.4862 19.1333 13.0049L20.7979 14.6577ZM24.4365 18.306C25.8409 16.3534 26.6024 13.9171 26.6024 11.3146C26.6024 8.23304 25.5008 5.33195 23.5682 3.25843C23.0364 2.68609 22.3063 2.70929 21.8891 3.19984C21.4804 3.67023 21.6144 4.26952 22.0658 4.78163C23.6108 6.49608 24.4708 8.79718 24.4708 11.3146C24.4708 13.3436 23.9179 15.2127 22.8859 16.7553L24.4365 18.306Z" fill="black"/>
<path d="M23.9013 22.671C24.2676 23.0352 24.8629 23.031 25.2208 22.671C25.5775 22.2971 25.5829 21.7178 25.2208 21.3578L4.13622 0.275275C3.76989 -0.0910523 3.16708 -0.0910523 2.80497 0.271057C2.45458 0.621447 2.45669 1.2402 2.80497 1.59059L23.9013 22.671Z" fill="black"/>
</svg>
