<svg width="30" height="28" viewBox="0 0 30 28" fill="none" xmlns="http://www.w3.org/2000/svg">
<path d="M23.3967 23.789C27.0412 23.789 29.9102 21.1148 29.9102 17.7783C29.9102 15.2836 28.488 13.0812 26.1691 12.1118C26.1841 6.81773 22.3633 3 17.4628 3C14.3376 3 12.0063 4.61485 10.5368 6.73523C7.57383 5.93789 4.44797 8.15039 4.33875 11.4506C1.66078 11.9231 0 14.3346 0 17.2573C0 20.8186 3.11086 23.789 7.20515 23.789H23.3967Z" fill="black"/>
<path d="M10.1642 18.8032C8.86583 17.5005 8.86583 15.6408 10.1642 14.3423L12.0796 12.4345C11.8208 13.1191 11.8417 13.7632 12.0235 14.3076L11.1266 15.2088C10.3508 15.9888 10.3349 17.0662 11.1266 17.8505C11.9066 18.6187 12.9882 18.6326 13.7682 17.8526L16.0522 15.5686C16.8397 14.7715 16.8472 13.676 16.0501 12.9269C15.662 12.558 15.2471 12.3811 14.7887 12.4345C14.9443 12.2287 15.0999 12.0614 15.2075 11.9421L15.8928 11.2685C16.2233 11.3665 16.636 11.5999 17.0124 11.9646C18.3502 13.2471 18.3226 15.1366 17.0145 16.4351L14.6368 18.8032C13.3267 20.1037 11.4744 20.1037 10.1642 18.8032ZM20.2649 8.72812C21.5516 10.0169 21.5612 11.8767 20.2606 13.1773L18.3474 15.0947C18.6062 14.4122 18.5853 13.7639 18.4013 13.2098L19.3004 12.3183C20.0825 11.5479 20.0921 10.4566 19.2983 9.67874C18.5204 8.91256 17.4484 8.89452 16.6588 9.68413L14.3844 11.9585C13.5948 12.7481 13.5777 13.8511 14.3769 14.6001C14.7458 14.9498 15.1531 15.1289 15.571 15.1331C15.4613 15.3005 15.4135 15.3717 15.2291 15.5871L14.5438 16.2586C14.2325 16.1627 13.8102 15.9272 13.4242 15.5625C12.096 14.2821 12.114 12.3905 13.4145 11.092L15.7902 8.71429C17.1024 7.41374 18.9526 7.41374 20.2649 8.72812Z" fill="white"/>
</svg>
