<svg width="28" height="28" viewBox="0 0 28 28" fill="none" xmlns="http://www.w3.org/2000/svg">
<path d="M4 13.7849C4 14.9701 5.02656 15.969 6.23523 15.969C7.4439 15.969 8.44491 14.9701 8.44491 13.7614C8.44491 12.5368 7.46734 11.538 6.23523 11.538C5.01273 11.538 4 12.5645 4 13.7849Z" fill="black"/>
<path d="M10.6912 18.518C11.1074 19.0107 11.8928 19.0308 12.3768 18.4444C13.3963 17.2147 13.9813 15.567 13.9813 13.8085C13.9813 12.0479 13.3963 10.3906 12.3768 9.17042C11.8928 8.57651 11.1074 8.59456 10.6912 9.09682C10.2951 9.56088 10.4549 10.1271 10.8372 10.6702C11.4801 11.4963 11.8476 12.6383 11.8476 13.8085C11.8476 14.9766 11.4897 16.1185 10.8372 16.9468C10.4453 17.4802 10.2951 18.054 10.6912 18.518Z" fill="black"/>
<path d="M14.08 21.9254C14.4972 22.4158 15.2273 22.439 15.7687 21.8667C17.7245 19.7657 18.7933 16.8963 18.7933 13.8084C18.7933 10.7248 17.711 7.81619 15.7687 5.75228C15.2273 5.17033 14.4972 5.19143 14.08 5.69369C13.6713 6.16197 13.8053 6.76126 14.2567 7.27337C15.8114 8.97822 16.6596 11.2814 16.6596 13.8084C16.6596 16.3279 15.8017 18.6311 14.2567 20.3456C13.8053 20.8556 13.6713 21.4454 14.08 21.9254Z" fill="black"/>
<path d="M17.5682 25.1795C17.9758 25.6327 18.6951 25.6796 19.1847 25.1602C22.018 22.1748 23.6214 18.1742 23.6214 13.8083C23.6214 9.44452 22.0372 5.41515 19.1847 2.4489C18.6951 1.92953 17.9758 1.9764 17.5682 2.42757C17.1648 2.88202 17.2405 3.51319 17.6983 3.99647C20.1559 6.54553 21.4876 10.0108 21.4876 13.8083C21.4876 17.608 20.1241 21.036 17.6983 23.6127C17.2426 24.0981 17.1648 24.7346 17.5682 25.1795Z" fill="black"/>
</svg>
