<svg width="28" height="28" viewBox="0 0 28 28" fill="none" xmlns="http://www.w3.org/2000/svg">
<path d="M14.105 26.2301C20.7369 26.2301 26.2121 20.7549 26.2121 14.123C26.2121 7.50291 20.7273 2.01807 14.0954 2.01807C7.47523 2.01807 2 7.50291 2 14.123C2 20.7549 7.48484 26.2301 14.105 26.2301Z" fill="black"/>
<path d="M6.40437 16.2521L10.3801 11.1507C10.659 10.8186 10.9367 10.6611 11.2379 10.6611C11.4678 10.6611 11.701 10.7453 11.9502 10.8847L16.9323 13.577L20.8876 11.4786C21.6889 11.0582 22.3778 11.8478 21.8169 12.5673L17.822 17.69C17.5548 18.0296 17.2578 18.1796 16.9546 18.1796C16.7364 18.1796 16.501 18.0976 16.2519 17.9581L11.2602 15.2595L7.33577 17.36C6.54945 17.7751 5.80296 17.0314 6.40437 16.2521Z" fill="white"/>
</svg>
