<svg width="28" height="28" viewBox="0 0 28 28" fill="none" xmlns="http://www.w3.org/2000/svg">
<path d="M14.105 26.2301C20.7369 26.2301 26.2121 20.7549 26.2121 14.123C26.2121 7.50291 20.7273 2.01807 14.0954 2.01807C7.47523 2.01807 2 7.50291 2 14.123C2 20.7549 7.48484 26.2301 14.105 26.2301Z" fill="black"/>
<path d="M16.5454 14.1294C16.5454 12.9116 16.9183 11.6746 17.565 10.7701C17.8577 10.3668 18.4165 10.255 18.8421 10.5243C19.3209 10.8425 19.4114 11.4332 19.0516 11.9469C18.6497 12.4979 18.4172 13.2891 18.4172 14.1294C18.4172 14.9387 18.6497 15.7299 19.0516 16.3002C19.4018 16.8139 19.3113 17.3853 18.8421 17.7132C18.4165 17.9942 17.846 17.8803 17.565 17.4673C16.9183 16.613 16.5454 15.376 16.5454 14.1294Z" fill="white"/>
<path d="M12.771 14.1294C12.771 12.1271 13.3497 10.2144 14.4025 8.74952C14.7145 8.30468 15.254 8.19195 15.6977 8.48257C16.1306 8.76991 16.237 9.35514 15.9081 9.85295C15.1012 10.9986 14.6427 12.5326 14.6427 14.1294C14.6427 15.7145 15.1012 17.2484 15.9081 18.3941C16.237 18.894 16.1306 19.4792 15.6977 19.7666C15.254 20.0647 14.7145 19.9423 14.4025 19.5071C13.3497 18.0038 12.771 16.0911 12.771 14.1294Z" fill="white"/>
<path d="M9.00781 14.1294C9.00781 11.4354 9.79649 8.82472 11.2245 6.69918C11.529 6.2309 12.0962 6.11394 12.5378 6.42051C12.9857 6.72074 13.0674 7.28675 12.7546 7.76862C11.5309 9.53863 10.8603 11.7823 10.8603 14.1294C10.8603 16.4455 11.5405 18.7084 12.7546 20.488C13.0674 20.9602 12.9857 21.5262 12.5378 21.8382C12.1058 22.1234 11.5386 22.0065 11.2245 21.5478C9.79649 19.4511 9.00781 16.8233 9.00781 14.1294Z" fill="white"/>
</svg>
