<svg width="28" height="28" viewBox="0 0 28 28" fill="none" xmlns="http://www.w3.org/2000/svg">
<path d="M14.105 26.21C20.7369 26.21 26.2121 20.7273 26.2121 14.105C26.2121 7.47312 20.7273 2 14.0954 2C7.47523 2 2 7.47312 2 14.105C2 20.7273 7.48484 26.21 14.105 26.21ZM14.105 23.8255C8.71085 23.8255 4.39412 19.4991 4.39412 14.105C4.39412 8.71085 8.70124 4.38452 14.0954 4.38452C19.4895 4.38452 23.8276 8.71085 23.8276 14.105C23.8276 19.4991 19.4991 23.8255 14.105 23.8255Z" fill="black"/>
<path d="M14.0955 19.493C14.2776 19.493 14.4074 19.4185 14.6962 19.1607L16.2412 17.6743C16.3827 17.521 16.4041 17.3049 16.2785 17.1462C15.8013 16.5113 14.9446 16.0958 14.0955 16.0958C13.2325 16.0958 12.3813 16.5273 11.8944 17.2069C11.7847 17.3443 11.822 17.5273 11.9711 17.6743L13.5065 19.1607C13.7856 19.4068 13.9134 19.493 14.0955 19.493Z" fill="black"/>
<path d="M10.3097 15.9877C10.496 16.1773 10.7431 16.1656 10.9465 15.9643C11.7211 15.1107 12.9295 14.5672 14.0953 14.5768C15.2611 14.5672 16.4716 15.1107 17.2772 15.9739C17.4593 16.1773 17.7063 16.1773 17.8809 15.9877L18.8665 15.0244C19.0155 14.8775 19.039 14.656 18.8941 14.4973C17.8404 13.2294 15.9961 12.4259 14.0953 12.4259C12.2041 12.4259 10.3502 13.2294 9.30611 14.4973C9.16127 14.6656 9.1751 14.8679 9.34338 15.0244L10.3097 15.9877Z" fill="black"/>
<path d="M7.68025 13.379C7.84103 13.5633 8.12322 13.5536 8.30743 13.3577C9.81189 11.7467 11.8259 10.8867 14.0956 10.8867C16.3695 10.8867 18.4069 11.7488 19.9147 13.3695C20.0872 13.542 20.348 13.5515 20.5109 13.3695L21.3814 12.4777C21.5283 12.3287 21.54 12.1147 21.4165 11.9442C19.8418 10.0137 16.95 8.72229 14.0956 8.72229C11.2507 8.72229 8.34939 10.0137 6.78423 11.9442C6.65111 12.1147 6.67244 12.3287 6.80978 12.4777L7.68025 13.379Z" fill="black"/>
</svg>
