<svg width="30" height="28" viewBox="0 0 30 28" fill="none" xmlns="http://www.w3.org/2000/svg">
<path d="M7.20515 23.7637H18.4959L16.1862 21.4678H7.20937C4.40389 21.4678 2.32123 19.5108 2.32123 17.2298C2.32123 14.8966 3.76451 13.143 6.16452 13.143C6.33491 13.143 6.40405 13.0546 6.39772 12.8918C6.39561 12.5022 6.44366 12.1415 6.54725 11.8406L4.65117 9.94448C4.45383 10.3858 4.35469 10.889 4.33875 11.4253C1.66078 11.8978 0 14.3093 0 17.2298C0 20.7911 3.11086 23.7637 7.20515 23.7637ZM25.0296 23.5096C27.9063 22.8604 29.9102 20.5469 29.9102 17.7508C29.9102 15.2561 28.488 13.0558 26.1691 12.0843C26.1841 6.79027 22.3633 2.97253 17.4628 2.97253C14.3376 2.97253 12.0063 4.58949 10.5368 6.70777C9.78703 6.51699 8.98171 6.52542 8.235 6.72464L10.3781 8.86775C10.6875 8.86236 11.0278 8.91674 11.3489 9.00955C11.4937 9.05643 11.5842 9.01916 11.6587 8.88604C12.8144 6.85025 14.5247 5.27056 17.448 5.27056C21.1547 5.27056 23.7705 8.19932 23.9571 11.6144C23.9944 12.2294 23.9508 12.9107 23.8955 13.4763C23.8816 13.6392 23.9445 13.7254 24.0977 13.7564C26.2263 14.1724 27.589 15.6761 27.589 17.7508C27.589 19.8145 25.762 21.4678 23.3988 21.4678H22.9898L25.0296 23.5096Z" fill="black"/>
<path d="M23.4055 26.6075C23.7697 26.9717 24.365 26.9717 24.725 26.6075C25.0871 26.2496 25.0871 25.6522 24.725 25.288L4.99347 5.57019C4.62714 5.19425 4.02433 5.2198 3.66222 5.57019C3.31183 5.92269 3.32355 6.55105 3.66222 6.88972L23.4055 26.6075Z" fill="black"/>
</svg>
