<svg width="30" height="28" viewBox="0 0 30 28" fill="none" xmlns="http://www.w3.org/2000/svg">
<path d="M23.3967 23.789C27.0412 23.789 29.9102 21.1148 29.9102 17.7783C29.9102 15.2836 28.488 13.0812 26.1691 12.1118C26.1841 6.81773 22.3633 3 17.4628 3C14.3376 3 12.0063 4.61485 10.5368 6.73523C7.57383 5.93789 4.44797 8.15039 4.33875 11.4506C1.66078 11.9231 0 14.3346 0 17.2573C0 20.8186 3.11086 23.789 7.20515 23.789H23.3967Z" fill="black"/>
<path d="M11.0645 18.7108V14.4583C11.0645 13.721 11.3703 13.3322 11.9661 13.2759V12.0513C11.9661 10.0411 13.1816 8.70093 14.9542 8.70093C16.7502 8.70093 17.9518 10.0411 17.9518 12.0513V13.278C18.5593 13.3322 18.8652 13.721 18.8652 14.4583V18.7108C18.8652 19.5384 18.4935 19.9101 17.7266 19.9101H12.1934C11.4266 19.9101 11.0645 19.5384 11.0645 18.7108ZM13.2463 13.2537H16.6642V11.9372C16.6642 10.7369 15.9861 9.93632 14.952 9.93632C13.9414 9.93632 13.2463 10.739 13.2463 11.9372V13.2537Z" fill="white"/>
</svg>
