<svg width="30" height="28" viewBox="0 0 30 28" fill="none" xmlns="http://www.w3.org/2000/svg">
<path d="M23.3967 23.789C27.0412 23.789 29.9102 21.1148 29.9102 17.7783C29.9102 15.2836 28.488 13.0812 26.1691 12.1118C26.1841 6.81773 22.3633 3 17.4628 3C14.3376 3 12.0063 4.61485 10.5368 6.73523C7.57383 5.93789 4.44797 8.15039 4.33875 11.4506C1.66078 11.9231 0 14.3346 0 17.2573C0 20.8186 3.11086 23.789 7.20515 23.789H23.3967Z" fill="black"/>
<path d="M7.2535 16.5994L11.2292 11.498C11.5081 11.1563 11.7954 10.9988 12.087 10.9988C12.3265 10.9988 12.5501 11.0904 12.7992 11.2224L17.791 13.9242L21.7367 11.8259C22.538 11.4033 23.2268 12.1854 22.666 12.9146L18.671 18.0373C18.4039 18.3651 18.1069 18.5248 17.8036 18.5248C17.5854 18.5248 17.3597 18.4448 17.101 18.3054L12.1092 15.6068L8.18489 17.7073C7.39857 18.1127 6.65209 17.3691 7.2535 16.5994Z" fill="white"/>
</svg>
