<svg width="28" height="28" viewBox="0 0 28 28" fill="none" xmlns="http://www.w3.org/2000/svg">
<path d="M14.105 26.21C20.7369 26.21 26.2121 20.7273 26.2121 14.105C26.2121 7.47312 20.7273 2 14.0954 2C7.47523 2 2 7.47312 2 14.105C2 20.7273 7.48484 26.21 14.105 26.21ZM14.105 23.8255C8.71085 23.8255 4.39412 19.4991 4.39412 14.105C4.39412 8.71085 8.70124 4.38452 14.0954 4.38452C19.4895 4.38452 23.8276 8.71085 23.8276 14.105C23.8276 19.4991 19.4991 23.8255 14.105 23.8255Z" fill="black"/>
<path d="M11.8077 14.0995C11.8077 12.9274 11.4466 11.7436 10.8297 10.8785C10.5433 10.4932 10.0122 10.3835 9.60462 10.639C9.14384 10.9435 9.06509 11.5097 9.40892 12.0054C9.79704 12.517 10.0199 13.2965 10.0199 14.0995C10.0199 14.8854 9.79704 15.6628 9.40892 16.2054C9.0747 16.699 9.15345 17.2481 9.60462 17.5622C10.0122 17.8272 10.5529 17.7176 10.8297 17.3205C11.4466 16.496 11.8077 15.3026 11.8077 14.0995Z" fill="black"/>
<path d="M15.436 14.0996C15.436 12.1707 14.8828 10.3367 13.8715 8.91971C13.5755 8.50252 13.054 8.3919 12.6305 8.67619C12.2178 8.94971 12.1231 9.50306 12.4339 9.98283C13.2153 11.0849 13.6503 12.5698 13.6503 14.0996C13.6503 15.6411 13.2153 17.124 12.4339 18.2281C12.1231 18.7079 12.2178 19.2612 12.6305 19.5327C13.054 19.8094 13.5755 19.7084 13.8715 19.2795C14.8828 17.8454 15.436 15.9997 15.436 14.0996Z" fill="black"/>
<path d="M19.0635 14.0996C19.0635 11.5142 18.3024 8.99072 16.9297 6.95236C16.6295 6.50963 16.0942 6.39689 15.6685 6.6758C15.2408 6.96431 15.1611 7.51767 15.4698 7.96978C16.6403 9.68025 17.297 11.8452 17.297 14.0996C17.297 16.337 16.6307 18.5307 15.4698 20.2316C15.1611 20.6933 15.2408 21.237 15.6685 21.5234C16.0824 21.8045 16.6199 21.6821 16.9297 21.2586C18.3024 19.2298 19.0635 16.7063 19.0635 14.0996Z" fill="black"/>
</svg>
