<svg width="30" height="28" viewBox="0 0 30 28" fill="none" xmlns="http://www.w3.org/2000/svg">
<path d="M23.3967 23.789C27.0412 23.789 29.9102 21.1148 29.9102 17.7783C29.9102 15.2836 28.488 13.0812 26.1691 12.1118C26.1841 6.81773 22.3633 3 17.4628 3C14.3376 3 12.0063 4.61485 10.5368 6.73523C7.57383 5.93789 4.44797 8.15039 4.33875 11.4506C1.66078 11.9231 0 14.3346 0 17.2573C0 20.8186 3.11086 23.789 7.20515 23.789H23.3967Z" fill="black"/>
<path d="M14.9678 15.8353C14.2888 15.8353 13.8993 15.4521 13.8695 14.7581L13.7066 9.86977C13.6768 9.15891 14.2058 8.64587 14.954 8.64587C15.6967 8.64587 16.2524 9.17063 16.2226 9.87938L16.0405 14.7518C16.0107 15.4617 15.6329 15.8353 14.9678 15.8353ZM14.9582 20.2291C14.1911 20.2291 13.5381 19.6795 13.5381 18.9002C13.5381 18.1209 14.1815 17.5734 14.9582 17.5734C15.7318 17.5734 16.3719 18.1134 16.3719 18.9002C16.3719 19.6891 15.7286 20.2291 14.9582 20.2291Z" fill="white"/>
</svg>
