<svg width="33" height="28" viewBox="0 0 33 28" fill="none" xmlns="http://www.w3.org/2000/svg">
<path d="M0.454263 18.6687C-0.785576 20.2397 0.743248 21.6783 2.27488 20.8165L10.7288 16.0619L20.4715 21.3441C20.9825 21.6101 21.4294 21.757 21.8604 21.757C22.486 21.757 23.0583 21.4624 23.5882 20.7973L32.1352 10.0591C33.2288 8.69202 31.9348 6.99937 30.2954 7.90171L21.8393 12.683L12.0891 7.40507C11.5878 7.12194 11.1237 6.98999 10.7002 6.98999C10.065 6.98999 9.51192 7.28671 8.982 7.95186L0.454263 18.6687ZM3.38863 18.218C3.25222 18.2925 3.16925 18.169 3.26722 18.0614L10.5945 9.4106C10.7522 9.21021 10.9003 9.18678 11.1104 9.29974L21.4702 14.8961C21.9329 15.1413 22.0789 15.0752 22.4466 14.8397L29.2104 10.5023C29.318 10.4278 29.4394 10.5513 29.3415 10.6589L21.9854 19.3659C21.8276 19.5546 21.6699 19.5898 21.4695 19.4768L11.1 13.9057C10.6353 13.6605 10.4914 13.7191 10.1236 13.9526L3.38863 18.218Z" fill="black"/>
</svg>
