<svg width="30" height="28" viewBox="0 0 30 28" fill="none" xmlns="http://www.w3.org/2000/svg">
<path d="M23.3967 23.789C27.0412 23.789 29.9102 21.1148 29.9102 17.7783C29.9102 15.2836 28.488 13.0812 26.1691 12.1118C26.1841 6.81773 22.3633 3 17.4628 3C14.3376 3 12.0063 4.61485 10.5368 6.73523C7.57383 5.93789 4.44797 8.15039 4.33875 11.4506C1.66078 11.9231 0 14.3346 0 17.2573C0 20.8186 3.11086 23.789 7.20515 23.789H23.3967Z" fill="black"/>
<path d="M10.6816 14.7982C10.6816 12.1884 12.7835 10.1384 15.161 10.0561C15.2505 10.054 15.3497 10.0615 15.4296 10.069L14.7956 9.40194C14.6784 9.28054 14.5976 9.08554 14.5976 8.88022C14.5976 8.48085 14.9107 8.12109 15.3501 8.12109C15.5672 8.12109 15.7791 8.2221 15.9131 8.37538L17.9442 10.4491C18.2252 10.7302 18.2412 11.2624 17.94 11.5594L15.8897 13.6097C15.7577 13.7395 15.5555 13.83 15.3607 13.83C14.9339 13.83 14.6018 13.519 14.6018 13.0678C14.6018 12.8803 14.6754 12.7066 14.7895 12.5798L15.6562 11.7068C15.5604 11.6981 15.4324 11.6948 15.3045 11.6991C13.6479 11.7518 12.3326 13.1379 12.3326 14.827C12.3326 16.6092 13.747 18.0471 15.5217 18.0471C17.3039 18.0471 18.7205 16.6113 18.7205 14.827C18.7205 14.3885 19.0919 14.017 19.5518 14.017C19.9903 14.017 20.3714 14.3885 20.3714 14.827C20.3714 17.5193 18.2098 19.6905 15.5217 19.6905C12.8433 19.6905 10.6816 17.5193 10.6816 14.7982Z" fill="white"/>
</svg>
