<svg width="30" height="28" viewBox="0 0 30 28" fill="none" xmlns="http://www.w3.org/2000/svg">
<path d="M23.3967 23.789C27.0412 23.789 29.9102 21.1148 29.9102 17.7783C29.9102 15.2836 28.488 13.0812 26.1691 12.1118C26.1841 6.81773 22.3633 3 17.4628 3C14.3376 3 12.0063 4.61485 10.5368 6.73523C7.57383 5.93789 4.44797 8.15039 4.33875 11.4506C1.66078 11.9231 0 14.3346 0 17.2573C0 20.8186 3.11086 23.789 7.20515 23.789H23.3967Z" fill="black"/>
<path d="M20.092 14.7886C20.092 17.5097 17.9304 19.6809 15.2423 19.6809C12.5639 19.6809 10.4023 17.5097 10.4023 14.8174C10.4023 14.3789 10.7737 14.0074 11.2219 14.0074C11.6817 14.0074 12.0532 14.3789 12.0532 14.8174C12.0532 16.6017 13.4698 18.0375 15.2423 18.0375C17.0266 18.0375 18.4411 16.5996 18.4411 14.8174C18.4411 13.1262 17.1258 11.7421 15.4596 11.6894C15.3412 11.6852 15.2133 11.6885 15.1078 11.6971L15.982 12.5681C16.0983 12.697 16.1719 12.8707 16.1719 13.0582C16.1719 13.5094 15.8398 13.8183 15.413 13.8183C15.2182 13.8183 15.0138 13.7299 14.884 13.6001L12.8316 11.5476C12.5325 11.2507 12.5388 10.7205 12.8294 10.4395L14.8605 8.36363C14.9946 8.21246 15.2065 8.11145 15.4214 8.11145C15.863 8.11145 16.1761 8.47121 16.1761 8.87058C16.1761 9.07379 16.0856 9.2709 15.9684 9.3923L15.3419 10.0572C15.4122 10.0518 15.5114 10.0443 15.6009 10.0465C17.9901 10.1266 20.092 12.1788 20.092 14.7886Z" fill="white"/>
</svg>
