<svg width="30" height="28" viewBox="0 0 30 28" fill="none" xmlns="http://www.w3.org/2000/svg">
<path d="M7.20515 23.7616H18.4959L4.64156 9.93279C4.45383 10.3837 4.35469 10.8869 4.33875 11.4232C1.66078 11.8936 0 14.3072 0 17.2277C0 20.789 3.11086 23.7616 7.20515 23.7616ZM25.0275 23.5075C27.8967 22.8583 29.9102 20.5448 29.9102 17.7487C29.9102 15.254 28.488 13.0537 26.1691 12.0822C26.1841 6.7882 22.3633 2.97046 17.4628 2.97046C14.3376 2.97046 12.0063 4.58741 10.5368 6.70569C9.79664 6.49569 8.98171 6.49452 8.21578 6.70335L25.0275 23.5075Z" fill="black"/>
<path d="M23.4055 26.6075C23.7697 26.9717 24.365 26.9717 24.725 26.6075C25.0871 26.2496 25.0871 25.6522 24.725 25.288L4.99347 5.57019C4.62714 5.19425 4.02433 5.2198 3.66222 5.57019C3.31183 5.92269 3.32355 6.55105 3.66222 6.88972L23.4055 26.6075Z" fill="black"/>
</svg>
