<svg width="28" height="28" viewBox="0 0 28 28" fill="none" xmlns="http://www.w3.org/2000/svg">
<path d="M14.105 26.21C20.7369 26.21 26.2121 20.7273 26.2121 14.105C26.2121 7.47312 20.7273 2 14.0954 2C7.47523 2 2 7.47312 2 14.105C2 20.7273 7.48484 26.21 14.105 26.21ZM14.105 23.8255C8.71085 23.8255 4.39412 19.4991 4.39412 14.105C4.39412 8.71085 8.70124 4.38452 14.0954 4.38452C19.4895 4.38452 23.8276 8.71085 23.8276 14.105C23.8276 19.4991 19.4991 23.8255 14.105 23.8255Z" fill="black"/>
<path d="M12.7085 13.7723C12.7085 14.29 12.9951 14.7279 13.4128 14.9611V20.7658C13.4128 21.2055 13.695 21.5154 14.0953 21.5154C14.5052 21.5154 14.7874 21.2172 14.7874 20.7658V14.9611C15.1975 14.7279 15.4842 14.2804 15.4842 13.7723C15.4842 12.9958 14.8739 12.3813 14.0953 12.3813C13.3284 12.3813 12.7085 12.9958 12.7085 13.7723Z" fill="black"/>
<path d="M9.625 13.7724C9.625 14.7739 9.96391 15.7297 10.5597 16.4525C10.8566 16.8305 11.3976 16.8498 11.6852 16.5027C11.9355 16.2184 11.8898 15.852 11.5989 15.4409C11.2523 14.9984 11.0657 14.4165 11.0657 13.7724C11.0657 13.1509 11.2661 12.5466 11.6191 12.0774C11.8982 11.6864 11.9195 11.3243 11.6852 11.0421C11.388 10.6929 10.8566 10.7121 10.5597 11.0902C9.9618 11.8172 9.625 12.7709 9.625 13.7724ZM17.1253 13.7724C17.1253 14.4228 16.9324 15.0195 16.5836 15.4557C16.2864 15.8562 16.2618 16.2226 16.5079 16.5027C16.7955 16.8498 17.3343 16.8305 17.6334 16.4525C18.227 15.7297 18.5681 14.7739 18.5681 13.7724C18.5681 12.7709 18.2292 11.8172 17.6334 11.0902C17.3343 10.7121 16.8051 10.6929 16.5079 11.0421C16.2714 11.3243 16.3045 11.6864 16.5836 12.0774C16.9249 12.5466 17.1253 13.1509 17.1253 13.7724Z" fill="black"/>
<path d="M6.82471 13.7724C6.82471 15.5326 7.43643 17.1587 8.57362 18.377C8.89612 18.7283 9.38807 18.7517 9.67658 18.41C9.93862 18.1161 9.90135 17.7188 9.59783 17.345C8.7344 16.4155 8.26752 15.1557 8.26752 13.7724C8.26752 12.3934 8.7344 11.139 9.59783 10.1977C9.90135 9.84194 9.93862 9.42874 9.68619 9.13905C9.38807 8.79733 8.89612 8.80694 8.57362 9.16788C7.45237 10.3841 6.82471 12.027 6.82471 13.7724ZM19.9352 13.7724C19.9352 15.1557 19.4683 16.4155 18.6049 17.345C18.2896 17.7188 18.2545 18.1161 18.5165 18.41C18.8029 18.7517 19.2949 18.7283 19.6195 18.377C20.7545 17.1587 21.378 15.5326 21.378 13.7724C21.378 12.027 20.7407 10.3841 19.6195 9.16788C19.2949 8.80694 18.8029 8.79733 18.5069 9.13905C18.2545 9.42874 18.2896 9.84194 18.6049 10.1977C19.4683 11.139 19.9352 12.3934 19.9352 13.7724Z" fill="black"/>
</svg>
