<svg width="28" height="28" viewBox="0 0 28 28" fill="none" xmlns="http://www.w3.org/2000/svg">
<path d="M6.34249 9.11813H22.3365C23.3926 9.11813 24.3699 9.35555 25.1865 9.78023L22.5976 3.69563C21.9066 2.04493 20.4858 1.14844 18.5968 1.14844H10.0843C8.18562 1.14844 6.77656 2.04493 6.08562 3.69563L3.48922 9.77812C4.31328 9.35555 5.28851 9.11813 6.34249 9.11813ZM6.34249 19.2956H22.3365C24.9176 19.2956 26.679 17.546 26.679 14.9883C26.679 12.4284 24.9176 10.6638 22.3365 10.6638H6.34249C3.75922 10.6638 2 12.4284 2 14.9883C2 17.546 3.75922 19.2956 6.34249 19.2956ZM20.8501 14.9883C20.8501 14.2397 21.4986 13.5858 22.2547 13.5858C23.015 13.5858 23.6731 14.2397 23.6731 14.9883C23.6731 15.7699 23.015 16.379 22.2547 16.3929C21.4986 16.395 20.8501 15.7795 20.8501 14.9883ZM13.2052 24.9839H15.4653V18.2175H13.2052V24.9839ZM4.40867 25.9657H24.264C24.8808 25.9657 25.3871 25.4594 25.3871 24.8404C25.3871 24.2119 24.8808 23.7056 24.264 23.7056H4.40867C3.78758 23.7056 3.28133 24.2119 3.28133 24.8404C3.28133 25.4594 3.78758 25.9657 4.40867 25.9657ZM14.3305 27.6989C15.8912 27.6989 17.1751 26.4171 17.1751 24.8543C17.1751 23.2936 15.8912 22.0097 14.3305 22.0097C12.7773 22.0097 11.4934 23.2936 11.4934 24.8543C11.4934 26.4171 12.7773 27.6989 14.3305 27.6989Z" fill="black"/>
</svg>
