<svg width="31" height="28" viewBox="0 0 31 28" fill="none" xmlns="http://www.w3.org/2000/svg">
<path d="M3.04827 25.2541H5.98547C7.95491 25.2541 9.04335 24.2381 9.04335 22.3645V12.7418C9.04335 10.8661 7.95491 9.84045 5.98547 9.84045H3.04827C1.07671 9.84045 0 10.8661 0 12.7439V22.3645C0 24.2381 1.07671 25.2541 3.04827 25.2541ZM3.40991 23.1724C2.55725 23.1724 2.22186 22.8466 2.22186 22.0078V13.0985C2.22186 12.2479 2.55725 11.9222 3.40991 11.9222H5.62383C6.48609 11.9222 6.82148 12.2479 6.82148 13.0985V22.0078C6.82148 22.8466 6.48609 23.1724 5.61961 23.1724H3.40991Z" fill="black"/>
<path d="M13.8701 25.254H16.8169C18.7863 25.254 19.8652 24.238 19.8652 22.3644V9.31891C19.8652 7.44322 18.7863 6.4176 16.8169 6.4176H13.8701C11.8985 6.4176 10.8218 7.44322 10.8218 9.32102V22.3644C10.8218 24.238 11.8985 25.254 13.8701 25.254ZM14.2413 23.1723C13.3791 23.1723 13.0437 22.8465 13.0437 22.0077V9.67563C13.0437 8.83469 13.3791 8.4993 14.2413 8.4993H16.4553C17.3175 8.4993 17.6412 8.83469 17.6412 9.67563V22.0077C17.6412 22.8465 17.3175 23.1723 16.451 23.1723H14.2413Z" fill="black"/>
<path d="M24.6925 25.2541H27.6393C29.6088 25.2541 30.6972 24.2381 30.6972 22.3645V5.89921C30.6972 4.02562 29.6088 3 27.6393 3H24.6925C22.7306 3 21.6538 4.02562 21.6538 5.90343V22.3645C21.6538 24.2381 22.7306 25.2541 24.6925 25.2541ZM25.0638 23.1724C24.2111 23.1724 23.8757 22.8466 23.8757 22.0078V6.25803C23.8757 5.4171 24.2111 5.08171 25.0638 5.08171H27.2756C28.1378 5.08171 28.4732 5.4171 28.4732 6.25803V22.0078C28.4732 22.8466 28.1378 23.1724 27.2735 23.1724H25.0638Z" fill="black"/>
</svg>
