<svg width="28" height="28" viewBox="0 0 28 28" fill="none" xmlns="http://www.w3.org/2000/svg">
<path d="M14.105 26.21C20.7369 26.21 26.2121 20.7273 26.2121 14.105C26.2121 7.47312 20.7273 2 14.0954 2C7.47523 2 2 7.47312 2 14.105C2 20.7273 7.48484 26.21 14.105 26.21ZM14.105 23.8255C8.71085 23.8255 4.39412 19.4991 4.39412 14.105C4.39412 8.71085 8.70124 4.38452 14.0954 4.38452C19.4895 4.38452 23.8276 8.71085 23.8276 14.105C23.8276 19.4991 19.4991 23.8255 14.105 23.8255Z" fill="black"/>
<path d="M9.94119 18.3784H18.7547C20.1492 18.3784 21.2327 17.2651 21.2327 15.8888C21.2327 14.7127 20.4497 13.7717 19.432 13.4928C19.4416 13.3503 19.4395 13.212 19.429 13.0791C19.372 10.774 17.5233 8.91638 15.1364 8.91638C13.7383 8.91638 12.479 9.57708 11.7023 10.6278C11.5099 10.5947 11.3024 10.5819 11.1281 10.5987C9.98854 10.6472 9.03861 11.4882 8.85861 12.6446C7.76666 13.0803 6.97705 14.1362 6.97705 15.443C6.97705 17.3197 8.26096 18.3784 9.94119 18.3784Z" fill="black"/>
</svg>
