<svg width="30" height="29" viewBox="0 0 30 29" fill="none" xmlns="http://www.w3.org/2000/svg">
<path d="M18.183 18.567V20.8629H24.0023C27.6612 20.8629 29.9102 18.6844 29.9102 15.724C29.9102 13.2514 28.488 11.247 26.1691 10.3212C26.1841 5.0272 22.3633 1.20947 17.4628 1.20947C14.3376 1.20947 12.0063 2.82643 10.5368 4.9447C7.76062 4.25517 4.44797 6.35986 4.33875 9.67183C1.66078 10.1283 0 12.3554 0 15.1737C0 18.3197 2.39062 20.8629 6.2871 20.8629H11.704V18.567H6.28382C3.71108 18.567 2.32123 17.0354 2.32123 15.1337C2.32123 12.9354 3.76451 11.3895 6.16452 11.3895C6.33491 11.3895 6.40194 11.2915 6.39772 11.1286C6.32811 7.63226 8.83358 6.52227 11.3489 7.24649C11.4937 7.29336 11.5884 7.26571 11.6587 7.13258C12.7807 5.09258 14.5247 3.50539 17.448 3.50539C21.1547 3.50539 23.7705 6.43625 23.9571 9.86093C23.9944 10.4663 23.9508 11.1476 23.8955 11.7132C23.8816 11.8761 23.9445 11.9719 24.0977 11.9933C26.2432 12.4114 27.589 13.6608 27.589 15.627C27.589 17.3452 26.3798 18.567 23.9463 18.567H18.183Z" fill="black"/>
<path d="M14.9473 28.0137C15.228 28.0137 15.4725 27.9052 15.7587 27.6404L19.6943 23.9478C19.9008 23.7626 20.0072 23.5423 20.0072 23.2529C20.0072 22.7145 19.5647 22.3208 19.0357 22.3208C18.773 22.3208 18.5091 22.4431 18.3122 22.6421L16.6617 24.301L15.9166 25.1508L16.027 23.4153V13.3754C16.027 12.803 15.5419 12.3094 14.9473 12.3094C14.3527 12.3094 13.86 12.803 13.86 13.3754V23.4153L13.9704 25.1604L13.2232 24.301L11.5727 22.6421C11.378 22.4431 11.1044 22.3208 10.8417 22.3208C10.3031 22.3208 9.87988 22.7145 9.87988 23.2529C9.87988 23.5423 9.98629 23.7626 10.1927 23.9478L14.1262 27.6404C14.4145 27.9052 14.659 28.0137 14.9473 28.0137Z" fill="black"/>
</svg>
