<svg width="28" height="28" viewBox="0 0 28 28" fill="none" xmlns="http://www.w3.org/2000/svg">
<path d="M14.105 26.2301C20.7369 26.2301 26.2121 20.7549 26.2121 14.123C26.2121 7.50291 20.7273 2.01807 14.0954 2.01807C7.47523 2.01807 2 7.50291 2 14.123C2 20.7549 7.48484 26.2301 14.105 26.2301Z" fill="black"/>
<path d="M12.6587 13.7394C12.6587 12.9406 13.3062 12.2963 14.105 12.2963C14.9155 12.2963 15.5534 12.9406 15.5534 13.7394C15.5534 14.273 15.2509 14.7364 14.8311 14.9834V20.9956C14.8311 21.4747 14.533 21.7866 14.105 21.7866C13.6887 21.7866 13.3906 21.463 13.3906 20.9956V14.993C12.9591 14.7481 12.6587 14.2848 12.6587 13.7394Z" fill="white"/>
<path d="M9.45801 13.7394C9.45801 12.706 9.80864 11.7204 10.4225 10.9658C10.7353 10.5739 11.2943 10.5547 11.6053 10.9177C11.8439 11.2137 11.8226 11.5918 11.5296 12.0008C11.1809 12.4817 10.9625 13.1136 10.9625 13.7394C10.9625 14.4069 11.1607 15.0144 11.5095 15.4803C11.8121 15.9095 11.8599 16.2821 11.6053 16.5856C11.2955 16.9369 10.7353 16.9337 10.4225 16.5376C9.81286 15.7892 9.45801 14.7941 9.45801 13.7394ZM17.2496 13.7394C17.2496 13.1136 17.0312 12.4817 16.692 12.0008C16.3991 11.5918 16.3681 11.2137 16.6067 10.9177C16.9177 10.5547 17.4746 10.5739 17.7896 10.9658C18.4013 11.7204 18.7541 12.706 18.7541 13.7394C18.7541 14.7941 18.3992 15.7892 17.7896 16.5376C17.4746 16.9337 16.9081 16.9433 16.6067 16.5856C16.3585 16.2842 16.3894 15.9137 16.692 15.4972C17.0387 15.0355 17.2496 14.4153 17.2496 13.7394Z" fill="white"/>
<path d="M6.54688 13.7394C6.54688 11.9419 7.20008 10.2298 8.3607 8.97214C8.70336 8.58565 9.21125 8.57393 9.5232 8.94331C9.78945 9.23721 9.75429 9.67596 9.43484 10.0456C8.54164 11.007 8.05132 12.3242 8.05132 13.7394C8.05132 15.1855 8.54164 16.4813 9.43484 17.4577C9.75429 17.8454 9.78946 18.2607 9.5136 18.5684C9.21126 18.924 8.70336 18.9027 8.3607 18.5354C7.18625 17.2639 6.54688 15.5804 6.54688 13.7394ZM20.1678 13.7394C20.1678 12.3242 19.6796 11.007 18.7864 10.0456C18.4574 9.67596 18.4201 9.23721 18.6885 8.94331C19.0004 8.57393 19.5083 8.58565 19.851 8.97214C21.0116 10.2298 21.6744 11.9419 21.6744 13.7394C21.6744 15.5804 21.0254 17.2639 19.851 18.5354C19.5083 18.9027 19.0004 18.924 18.6981 18.5684C18.4201 18.2607 18.4574 17.8454 18.7864 17.4577C19.6796 16.4813 20.1678 15.1855 20.1678 13.7394Z" fill="white"/>
</svg>
