<svg width="28" height="28" viewBox="0 0 28 28" fill="none" xmlns="http://www.w3.org/2000/svg">
<path d="M14.105 26.21C20.7369 26.21 26.2121 20.7273 26.2121 14.105C26.2121 7.47312 20.7273 2 14.0954 2C7.47523 2 2 7.47312 2 14.105C2 20.7273 7.48484 26.21 14.105 26.21ZM14.105 23.8255C8.71085 23.8255 4.39412 19.4991 4.39412 14.105C4.39412 8.71085 8.70124 4.38452 14.0954 4.38452C19.4895 4.38452 23.8276 8.71085 23.8276 14.105C23.8276 19.4991 19.4991 23.8255 14.105 23.8255Z" fill="black"/>
<path d="M6.37109 12.9392C6.37109 14.8517 7.7232 16.2038 9.62398 16.2038H9.98234C9.90359 15.8684 9.87054 15.2942 9.92164 14.9044H9.70601C8.54116 14.9044 7.74077 14.1179 7.74077 12.9392C7.74077 11.7723 8.54116 10.9601 9.70601 10.9601H14.3221C15.4848 10.9601 16.2831 11.7723 16.2831 12.9392C16.2831 14.1179 15.4965 14.9044 14.3221 14.9044H12.6296C12.4902 15.256 12.5434 15.8682 12.9076 16.2038H14.3882C16.2868 16.2038 17.641 14.8517 17.641 12.9392C17.641 11.0288 16.2847 9.66077 14.3882 9.66077H9.62398C7.72531 9.66077 6.37109 11.0288 6.37109 12.9392ZM10.5493 15.3645C10.5493 17.2749 11.9077 18.643 13.8139 18.643H18.5664C20.4671 18.643 21.831 17.2749 21.831 15.3645C21.831 13.452 20.4789 12.0999 18.5664 12.0999H18.208C18.2708 12.4355 18.3432 12.8211 18.2708 13.3993H18.496C19.6609 13.3993 20.4613 14.1955 20.4613 15.3645C20.4613 16.5315 19.6609 17.3436 18.496 17.3436H13.8704C12.7077 17.3436 11.9073 16.5315 11.9073 15.3645C11.9073 14.1955 12.7056 13.3993 13.8704 13.3993H15.549C15.7119 13.0552 15.6608 12.4142 15.2849 12.0999H13.8139C11.9056 12.0999 10.5493 13.452 10.5493 15.3645Z" fill="black"/>
</svg>
