<svg width="28" height="28" viewBox="0 0 28 28" fill="none" xmlns="http://www.w3.org/2000/svg">
<path d="M5.0051 5.92641C3.06166 6.93422 1.37182 8.24461 0.135958 9.735C-0.0534164 9.95742 -0.0491978 10.2595 0.175332 10.4916L1.82533 12.1404C2.07541 12.3926 2.45416 12.3905 2.70212 12.1245C4.16814 10.5806 5.83338 9.40124 7.714 8.6332L5.0051 5.92641ZM13.3322 7.49578C13.4784 7.46695 13.6322 7.45734 13.7763 7.45734C18.1191 7.53609 21.7648 9.20765 24.6413 12.1596C24.8892 12.398 25.2542 12.3863 25.5021 12.1341L27.1425 10.4916C27.3766 10.2595 27.3713 9.95742 27.1915 9.735C24.3209 6.29907 19.1154 3.76453 13.6589 3.76453C12.4669 3.76453 11.2887 3.88172 9.98345 4.14493L13.3322 7.49578ZM10.2696 11.1654C8.014 11.7929 6.08557 13.0064 4.82955 14.4884C4.64018 14.7225 4.65822 15.0045 4.88064 15.2248L6.72236 17.0316C6.99799 17.2913 7.3608 17.27 7.62259 16.9826C9.02345 15.4547 11.2003 14.4061 13.4466 14.352L10.2696 11.1654ZM21.7519 15.9155L22.4468 15.2248C22.6788 14.9949 22.6873 14.7225 22.4979 14.4884C21.2869 13.0109 19.2349 11.7291 17.0042 11.1657L21.7519 15.9155ZM13.6685 17.5407C11.9927 17.5407 10.4836 18.4207 9.67877 19.5099C9.5426 19.7206 9.60424 19.9716 9.80111 20.1685L12.6699 22.9339C13.1417 23.3897 13.3875 23.5196 13.6685 23.5196C13.9517 23.5196 14.1975 23.3801 14.6768 22.9339L17.5359 20.1685C17.7509 19.9653 17.7999 19.6589 17.6084 19.4206C16.7885 18.3835 15.3209 17.5407 13.6685 17.5407Z" fill="black"/>
<path d="M23.5549 22.3775C23.9212 22.7417 24.5261 22.7375 24.8744 22.3775C25.2311 22.0036 25.2386 21.4243 24.8744 21.0643L5.09295 1.27527C4.72662 0.908948 4.12381 0.908948 3.7617 1.27106C3.4017 1.62145 3.4017 2.25191 3.7617 2.59059L23.5549 22.3775Z" fill="black"/>
</svg>
