<svg width="28" height="28" viewBox="0 0 28 28" fill="none" xmlns="http://www.w3.org/2000/svg">
<path d="M6.84421 24.8972H21.0295C23.5685 24.8972 24.8737 23.5919 24.8737 21.0914V6.82921C24.8737 4.32656 23.5685 3.02344 21.0295 3.02344H6.84421C4.31484 3.02344 3 4.31695 3 6.82921V21.0914C3 23.6016 4.31484 24.8972 6.84421 24.8972ZM6.97733 22.6013C5.88772 22.6013 5.29592 22.0371 5.29592 20.8985V7.01999C5.29592 5.88139 5.88772 5.31936 6.97733 5.31936H20.8964C21.9764 5.31936 22.5778 5.88139 22.5778 7.01999V20.8985C22.5778 22.0371 21.9764 22.6013 20.8964 22.6013H6.97733Z" fill="black"/>
<path d="M9.82244 18.1843H18.5684C19.9523 18.1843 21.0274 17.0795 21.0274 15.7138C21.0274 14.5483 20.2507 13.6136 19.2394 13.3368C19.249 13.1964 19.2565 13.0602 19.2459 12.9295C19.1911 10.6413 17.3475 8.79626 14.9775 8.79626C13.5879 8.79626 12.3392 9.45063 11.5688 10.495C11.3785 10.462 11.1732 10.4491 11.003 10.466C9.86979 10.5102 8.92408 11.347 8.74619 12.4949C7.66268 12.9285 6.87939 13.9759 6.87939 15.2701C6.87939 17.1362 8.15486 18.1843 9.82244 18.1843Z" fill="black"/>
</svg>
