<svg width="28" height="28" viewBox="0 0 28 28" fill="none" xmlns="http://www.w3.org/2000/svg">
<path d="M6.7475 23.2163C7.69953 23.2163 8.47156 22.4347 8.47156 21.4922C8.47156 20.5306 7.71125 19.7565 6.7475 19.7565C5.79547 19.7565 5 20.5637 5 21.5274C5 22.4347 5.8168 23.2163 6.7475 23.2163Z" fill="black"/>
<path d="M5.14404 15.8823C5.14404 16.4654 5.62826 16.94 6.21138 16.94C8.99951 16.94 11.2762 19.2167 11.2762 22.0048C11.2762 22.5879 11.7508 23.0722 12.334 23.0722C12.915 23.0722 13.3992 22.5879 13.3992 22.0048C13.3992 18.043 10.1615 14.817 6.21138 14.817C5.62826 14.817 5.14404 15.3012 5.14404 15.8823Z" fill="black"/>
<path d="M5.14404 11.097C5.14404 11.6801 5.62826 12.1547 6.21138 12.1547C11.6747 12.1547 16.0615 16.5414 16.0615 22.0047C16.0615 22.5878 16.5361 23.0721 17.1192 23.0721C17.7023 23.0721 18.1844 22.5878 18.1844 22.0047C18.1844 15.3752 12.8409 10.0317 6.21138 10.0317C5.62826 10.0317 5.14404 10.516 5.14404 11.097Z" fill="black"/>
<path d="M5.14404 6.05773C5.14404 6.64085 5.62826 7.12507 6.21138 7.12507C14.4419 7.12507 21.0911 13.7743 21.0911 22.0048C21.0911 22.5879 21.5754 23.0722 22.1585 23.0722C22.7416 23.0722 23.2162 22.5879 23.2162 22.0048C23.2162 12.6102 15.6061 5 6.21138 5C5.62826 5 5.14404 5.47461 5.14404 6.05773Z" fill="black"/>
</svg>
