<svg width="30" height="28" viewBox="0 0 30 28" fill="none" xmlns="http://www.w3.org/2000/svg">
<path d="M0 16.1432C0 19.2412 2.58703 21.7342 6.48562 21.7342H13.8792V26.6999C13.8792 27.2701 14.3719 27.7562 14.9686 27.7562C15.5632 27.7562 16.0462 27.2701 16.0462 26.6999V21.7342H24.1005C27.5726 21.7342 29.9102 19.6037 29.9102 16.6935C29.9102 14.2785 28.488 12.1375 26.1691 11.1925C26.1841 5.89842 22.3633 2.08069 17.4628 2.08069C14.3376 2.08069 12.0063 3.69764 10.5368 5.81592C7.76062 5.12639 4.44797 7.23107 4.33875 10.543C1.66078 11.0092 0 13.3729 0 16.1432ZM13.8792 21.123V15.2186L13.9643 13.483L13.3962 14.1791L11.5941 16.0921C11.4068 16.3007 11.1237 16.4113 10.8609 16.4113C10.3223 16.4113 9.89906 16.0176 9.89906 15.4792C9.89906 15.1898 10.0151 14.9812 10.212 14.7843L14.1476 10.9956C14.4241 10.719 14.6782 10.6222 14.9686 10.6222C15.2473 10.6222 15.5013 10.719 15.78 10.9956L19.7135 14.7843C19.9104 14.9812 20.0264 15.1898 20.0264 15.4792C20.0264 16.0176 19.5839 16.4113 19.0549 16.4113C18.7922 16.4113 18.5187 16.3007 18.3335 16.0921L16.5293 14.1791L15.9612 13.483L16.0462 15.2186V21.123C16.0462 21.7229 15.5569 22.2027 14.9686 22.2027C14.3686 22.2027 13.8792 21.7229 13.8792 21.123Z" fill="black"/>
</svg>
