<svg width="28" height="28" viewBox="0 0 28 28" fill="none" xmlns="http://www.w3.org/2000/svg">
<path d="M14.105 26.2301C20.7369 26.2301 26.2121 20.7549 26.2121 14.123C26.2121 7.50291 20.7273 2.01807 14.0954 2.01807C7.47523 2.01807 2 7.50291 2 14.123C2 20.7549 7.48484 26.2301 14.105 26.2301Z" fill="black"/>
<path d="M11.7324 14.1294C11.7324 15.376 11.3595 16.613 10.7225 17.4673C10.4319 17.8803 9.87102 17.9942 9.4454 17.7132C8.97618 17.3853 8.88571 16.8139 9.22626 16.3002C9.62821 15.7299 9.86071 14.9387 9.86071 14.1294C9.86071 13.2891 9.62821 12.4979 9.22626 11.9469C8.8761 11.4332 8.96657 10.8425 9.4454 10.5243C9.87102 10.255 10.4223 10.3668 10.7225 10.7701C11.3595 11.6746 11.7324 12.9116 11.7324 14.1294Z" fill="white"/>
<path d="M15.5071 14.1294C15.5071 16.0911 14.9306 18.0038 13.8756 19.5071C13.5637 19.9423 13.0242 20.0647 12.5922 19.7666C12.1497 19.4792 12.0412 18.894 12.37 18.3941C13.177 17.2484 13.6354 15.7145 13.6354 14.1294C13.6354 12.5326 13.177 10.9986 12.37 9.85295C12.0412 9.35514 12.1497 8.76991 12.5922 8.48257C13.0242 8.19195 13.5637 8.30468 13.8756 8.74952C14.9306 10.2144 15.5071 12.1271 15.5071 14.1294Z" fill="white"/>
<path d="M19.2701 14.1294C19.2701 16.8233 18.491 19.4511 17.0534 21.5478C16.7393 22.0065 16.1721 22.1234 15.7498 21.8382C15.3019 21.5262 15.2105 20.9602 15.5234 20.488C16.7471 18.7084 17.4176 16.4455 17.4176 14.1294C17.4176 11.7823 16.7567 9.53863 15.5234 7.76862C15.2105 7.28675 15.3019 6.72074 15.7498 6.42051C16.1818 6.11394 16.7489 6.2309 17.0534 6.69918C18.491 8.82472 19.2701 11.4354 19.2701 14.1294Z" fill="white"/>
</svg>
