<svg width="28" height="28" viewBox="0 0 28 28" fill="none" xmlns="http://www.w3.org/2000/svg">
<path d="M14.105 26.21C20.7369 26.21 26.2121 20.7273 26.2121 14.105C26.2121 7.47312 20.7273 2 14.0954 2C7.47523 2 2 7.47312 2 14.105C2 20.7273 7.48484 26.21 14.105 26.21ZM14.105 23.8255C8.71085 23.8255 4.39412 19.4991 4.39412 14.105C4.39412 8.71085 8.70124 4.38452 14.0954 4.38452C19.4895 4.38452 23.8276 8.71085 23.8276 14.105C23.8276 19.4991 19.4991 23.8255 14.105 23.8255Z" fill="black"/>
<path d="M6.68983 16.1669C6.10647 16.9047 6.83491 17.6144 7.58303 17.227L11.3649 15.2074L16.1757 17.8092C16.4089 17.9465 16.6421 18.0169 16.8464 18.0169C17.1434 18.0169 17.4148 17.8594 17.6778 17.5453L21.5206 12.6161C22.0613 11.9189 21.4022 11.1708 20.6274 11.5774L16.8263 13.5928L12.0251 10.9878C11.7802 10.8579 11.5587 10.7759 11.3447 10.7759C11.0478 10.7759 10.7743 10.9313 10.523 11.257L6.68983 16.1669Z" fill="black"/>
</svg>
