<svg width="30" height="29" viewBox="0 0 30 29" fill="none" xmlns="http://www.w3.org/2000/svg">
<path d="M6.48562 20.8629H13.609V13.6751C13.609 12.9486 14.2303 12.339 14.9686 12.339C15.7048 12.339 16.3165 12.9486 16.3165 13.6751V20.8629H24.1005C27.5726 20.8629 29.9102 18.7325 29.9102 15.8222C29.9102 13.4072 28.488 11.2662 26.1691 10.3212C26.1841 5.0272 22.3633 1.20947 17.4628 1.20947C14.3376 1.20947 12.0063 2.82643 10.5368 4.9447C7.76062 4.25517 4.44797 6.35986 4.33875 9.67183C1.66078 10.138 0 12.5016 0 15.2719C0 18.3699 2.58703 20.8629 6.48562 20.8629ZM14.9686 28.0137C15.2473 28.0137 15.5013 27.9148 15.78 27.6404L19.7135 23.8496C19.9104 23.6527 20.0264 23.4441 20.0264 23.1547C20.0264 22.6163 19.5839 22.2225 19.0549 22.2225C18.7922 22.2225 18.5187 22.3332 18.3335 22.5439L16.683 24.301L15.9358 25.1508L16.0462 23.4153V20.7268C16.0462 20.1544 15.5632 19.6608 14.9686 19.6608C14.3719 19.6608 13.8792 20.1544 13.8792 20.7268V23.4153L13.9896 25.1604L13.2424 24.301L11.5941 22.5439C11.4068 22.3332 11.1237 22.2225 10.8609 22.2225C10.3223 22.2225 9.89906 22.6163 9.89906 23.1547C9.89906 23.4441 10.0151 23.6527 10.212 23.8496L14.1476 27.6404C14.4241 27.9148 14.6782 28.0137 14.9686 28.0137Z" fill="black"/>
</svg>
