<svg width="28" height="28" viewBox="0 0 28 28" fill="none" xmlns="http://www.w3.org/2000/svg">
<path d="M6.84421 24.8972H21.0295C23.5685 24.8972 24.8737 23.5919 24.8737 21.0914V6.82921C24.8737 4.32656 23.5685 3.02344 21.0295 3.02344H6.84421C4.31484 3.02344 3 4.31695 3 6.82921V21.0914C3 23.6016 4.31484 24.8972 6.84421 24.8972ZM6.97733 22.6013C5.88772 22.6013 5.29592 22.0371 5.29592 20.8985V7.01999C5.29592 5.88139 5.88772 5.31936 6.97733 5.31936H20.8964C21.9764 5.31936 22.5778 5.88139 22.5778 7.01999V20.8985C22.5778 22.0371 21.9764 22.6013 20.8964 22.6013H6.97733Z" fill="black"/>
<path d="M13.9429 19.2928C14.1229 19.2928 14.2507 19.2162 14.5373 18.9605L16.0718 17.4846C16.2091 17.3355 16.2325 17.1216 16.109 16.9629C15.6339 16.3343 14.7857 15.923 13.9429 15.923C13.0863 15.923 12.251 16.3502 11.7588 17.0236C11.6491 17.1609 11.6864 17.3398 11.8333 17.4846L13.3582 18.9605C13.6352 19.2066 13.7629 19.2928 13.9429 19.2928Z" fill="black"/>
<path d="M10.1847 15.8128C10.3689 16.0024 10.6138 15.9886 10.8152 15.7894C11.5834 14.9421 12.7856 14.4007 13.9429 14.4103C15.0982 14.4007 16.3024 14.9421 17.1016 15.799C17.2816 16.0024 17.5265 16.0024 17.699 15.8128L18.6782 14.8559C18.8252 14.7089 18.8486 14.4916 18.7038 14.333C17.6585 13.0755 15.8289 12.2784 13.9429 12.2784C12.0665 12.2784 10.2349 13.0755 9.18955 14.333C9.04681 14.5012 9.05853 14.6993 9.22681 14.8559L10.1847 15.8128Z" fill="black"/>
<path d="M7.57375 13.2231C7.73453 13.4052 8.0125 13.3956 8.1946 13.1997C9.68851 11.6013 11.6877 10.7477 13.9426 10.7477C16.2093 10.7477 18.2223 11.6034 19.7195 13.2135C19.8899 13.3839 20.1561 13.3935 20.319 13.2135L21.1736 12.3281C21.3184 12.179 21.3322 11.9671 21.2066 11.801C19.6541 9.88518 16.776 8.6001 13.9426 8.6001C11.1168 8.6001 8.23867 9.88518 6.68617 11.801C6.55093 11.9671 6.57437 12.179 6.70961 12.3281L7.57375 13.2231Z" fill="black"/>
</svg>
