<svg width="28" height="28" viewBox="0 0 28 28" fill="none" xmlns="http://www.w3.org/2000/svg">
<path d="M16.754 3.00033C14.6856 2.97901 12.3989 3.97815 10.919 6.07463C10.7196 6.32846 10.5414 6.61112 10.3579 7.0187C13.0148 7.48417 15.1743 9.8333 15.1743 12.4635C15.1743 13.212 15.0274 13.902 14.7665 14.5133C16.2438 14.2885 17.2004 13.937 18.0731 13.4363C20.07 12.2724 21.5618 10.4171 21.5618 7.83994C21.5618 4.81158 19.4375 3.02588 16.754 3.00033ZM17.3829 8.1015C17.1232 8.32181 16.7262 8.29205 16.5196 8.02064C16.2961 7.74924 16.3312 7.37236 16.5984 7.15627L18.2494 5.76853C18.5069 5.55244 18.89 5.58338 19.1082 5.859C19.3222 6.11658 19.3085 6.49556 19.0413 6.71377L17.3829 8.1015ZM15.0201 24.1906H15.9489C16.7599 24.1906 17.2834 23.7523 17.2834 22.952V15.2103C16.1439 15.6917 14.9716 15.9545 13.6664 16.047V22.952C13.6664 23.7523 14.2017 24.1906 15.0201 24.1906Z" fill="black"/>
<path d="M10.3858 15.9821C12.3098 15.9821 13.9376 14.7664 13.9376 12.4635C13.9376 10.3454 11.9452 8.17346 9.42492 8.17346C7.29351 8.17346 6 9.8544 6 11.6549C6 14.2295 8.18484 15.9821 10.3858 15.9821ZM9.83999 14.1545C9.47812 14.4727 8.88398 14.1481 8.18625 13.3013C7.49601 12.4546 7.28437 11.8424 7.64414 11.5421C8.02195 11.21 8.60015 11.525 9.3096 12.3835C9.99445 13.2474 10.2019 13.8479 9.83999 14.1545Z" fill="black"/>
</svg>
