<svg width="33" height="28" viewBox="0 0 33 28" fill="none" xmlns="http://www.w3.org/2000/svg">
<path d="M10.7443 3.00033C8.68565 2.97901 6.40096 3.97815 4.91901 6.07463C4.72166 6.32846 4.54143 6.61112 4.35791 7.0187C7.01478 7.48417 9.17642 9.8333 9.17642 12.4635C9.17642 13.212 9.02736 13.902 8.76861 14.5133C10.2437 14.2885 11.2004 13.937 12.0731 13.4363C14.07 12.2724 15.5618 10.4171 15.5618 7.83994C15.5618 4.81158 13.4375 3.02588 10.7443 3.00033ZM11.385 8.1015C11.1253 8.32181 10.7262 8.29205 10.5101 8.02064C10.2982 7.74924 10.3312 7.37236 10.5984 7.15627L12.2515 5.76853C12.5091 5.55244 12.8923 5.58338 13.1007 5.859C13.3244 6.11658 13.3085 6.49556 13.0413 6.71377L11.385 8.1015ZM9.0126 24.1906H9.95104C10.7502 24.1906 11.2834 23.7523 11.2834 22.952V15.2103C10.1439 15.6917 8.97159 15.9545 7.66636 16.047V22.952C7.66636 23.7523 8.20167 24.1906 9.0126 24.1906ZM21.996 3.00033C19.3125 3.02588 17.1882 4.81158 17.1882 7.83994C17.1882 10.4171 18.6801 12.2724 20.6653 13.4363C21.5496 13.937 22.5063 14.2885 23.9815 14.5133C23.711 13.902 23.5737 13.212 23.5737 12.4635C23.5737 9.8333 25.7257 7.48417 28.3826 7.0187C28.2087 6.61112 28.0188 6.32846 27.8311 6.07463C26.3395 3.97815 24.0644 2.97901 21.996 3.00033ZM21.3651 8.1015L19.7087 6.71377C19.4415 6.49556 19.4257 6.11658 19.6397 5.859C19.8483 5.58338 20.241 5.55244 20.4986 5.76853L22.1516 7.15627C22.4188 7.37236 22.4423 7.74924 22.2283 8.02064C22.0144 8.29205 21.6248 8.32181 21.3651 8.1015ZM23.7278 24.1906C24.5483 24.1906 25.0741 23.7523 25.0741 22.952V16.047C23.7689 15.9545 22.6062 15.6917 21.4666 15.2103V22.952C21.4666 23.7523 21.9902 24.1906 22.799 24.1906H23.7278Z" fill="black"/>
<path d="M4.38585 15.9821C6.30983 15.9821 7.93757 14.7664 7.93757 12.4635C7.93757 10.3454 5.94515 8.17346 3.42492 8.17346C1.29351 8.17346 0 9.8544 0 11.6549C0 14.2295 2.18484 15.9821 4.38585 15.9821ZM3.83999 14.1545C3.47812 14.4727 2.88398 14.1481 2.18625 13.3013C1.49601 12.4546 1.28437 11.8424 1.64414 11.5421C2.02195 11.21 2.60015 11.525 3.3096 12.3835C3.99445 13.2474 4.20187 13.8479 3.83999 14.1545ZM28.3622 15.9821C30.5632 15.9821 32.748 14.2295 32.748 11.6549C32.748 9.8544 31.4545 8.17346 29.3231 8.17346C26.8029 8.17346 24.8105 10.3454 24.8105 12.4635C24.8105 14.7664 26.4382 15.9821 28.3622 15.9821ZM28.9101 14.1545C28.5462 13.8479 28.7557 13.2474 29.4384 12.3835C30.1479 11.525 30.7261 11.21 31.1039 11.5421C31.4636 11.8424 31.252 12.4546 30.5618 13.3013C29.8662 14.1481 29.2699 14.4727 28.9101 14.1545Z" fill="black"/>
</svg>
