<svg width="28" height="29" viewBox="0 0 28 29" fill="none" xmlns="http://www.w3.org/2000/svg">
<path d="M14.0691 27.949C21.5858 27.949 26.1362 25.7726 26.1362 20.7244V15.9579H23.8402V20.7244C23.8402 24.2991 20.1439 25.653 14.0691 25.653C7.99436 25.653 4.29592 24.2991 4.29592 20.7244V15.9579H2V20.7244C2 25.7726 6.54078 27.949 14.0691 27.949ZM7.54271 22.1135V19.9664H5.9274V22.1135C5.9274 22.5565 6.29795 22.927 6.73881 22.927C7.18388 22.927 7.54271 22.5586 7.54271 22.1135ZM11.0138 22.8766V20.7274H9.39428V22.8766C9.39428 23.3217 9.75311 23.6901 10.1982 23.6901C10.6433 23.6901 11.0138 23.3217 11.0138 22.8766ZM14.7535 23.1708V21.0215H13.1382V23.1708C13.1382 23.6158 13.5066 23.9726 13.9496 23.9726C14.3947 23.9726 14.7535 23.6158 14.7535 23.1708ZM18.507 22.8766V20.7274H16.8875V22.8766C16.8875 23.3217 17.258 23.6901 17.7031 23.6901C18.1482 23.6901 18.507 23.3217 18.507 22.8766ZM21.9739 22.1135V19.9664H20.3586V22.1135C20.3586 22.5586 20.7174 22.927 21.1604 22.927C21.6034 22.927 21.9739 22.5565 21.9739 22.1135ZM23.8402 15.9579C23.8402 18.1216 19.955 19.5905 14.0691 19.5905C8.18327 19.5905 4.29592 18.1216 4.29592 15.9579C4.29592 14.2237 6.79999 12.9415 10.8275 12.5076L9.06289 10.5284C4.67094 11.3367 2 13.3083 2 15.9579C2 19.5253 6.77023 21.8379 14.0691 21.8379C21.3584 21.8379 26.1362 19.5253 26.1362 15.9579C26.1362 13.3083 23.4556 11.3388 19.0679 10.5284L17.3066 12.5076C21.3266 12.9415 23.8402 14.212 23.8402 15.9579Z" fill="black"/>
<path d="M14.8198 12.8051L18.087 9.11625C18.7461 8.37633 18.3629 7.33383 17.3119 7.33383H15.214V1.1332C15.214 0.477889 14.7076 0 14.0787 0C13.4286 0 12.9338 0.477889 12.9338 1.1332V7.33383H10.8082C9.79669 7.33383 9.36544 8.35172 10.032 9.11625L13.3046 12.8051C13.7455 13.3162 14.3715 13.3162 14.8198 12.8051Z" fill="black"/>
</svg>
