<svg width="28" height="28" viewBox="0 0 28 28" fill="none" xmlns="http://www.w3.org/2000/svg">
<path d="M9.30804 25.535H18.3102C23.1343 25.535 25.6491 23.0298 25.6491 18.2269V9.30804C25.6491 4.50523 23.1343 2 18.3102 2H9.30804C4.50523 2 2 4.50523 2 9.30804V18.2269C2 23.0298 4.50523 25.535 9.30804 25.535ZM9.03757 23.2391C5.91733 23.2391 4.29592 21.6059 4.29592 18.4974V9.03757C4.29592 5.91733 5.91733 4.29592 9.03757 4.29592H18.6404C21.7297 4.29592 23.3532 5.90772 23.3532 8.97992V18.5551C23.3532 21.6252 21.7297 23.2391 18.6404 23.2391H9.03757ZM13.8177 19.2282C16.8395 19.2282 19.2741 16.7424 19.2741 13.7675C19.2741 10.7574 16.7809 8.33233 13.8177 8.33233C13.2849 8.33233 12.8012 8.3771 12.3739 8.50601V11.6002C12.8012 11.288 13.3062 11.1144 13.8177 11.1144C15.2359 11.1144 16.4452 12.3376 16.4452 13.7675C16.4452 15.1974 15.2593 16.3641 13.8177 16.3641C12.3505 16.3641 11.1976 15.223 11.1976 13.7675V8.97804C9.46718 9.94765 8.36866 11.7484 8.36866 13.7675C8.36866 16.8031 10.8034 19.2282 13.8177 19.2282ZM13.8177 15.2091C14.588 15.2091 15.2476 14.5283 15.2476 13.7675C15.2476 13.0302 14.5667 12.3493 13.8177 12.3493C13.0665 12.3493 12.3952 12.995 12.3952 13.7675C12.3952 14.5634 13.043 15.2091 13.8177 15.2091Z" fill="black"/>
</svg>
