<svg width="32" height="29" viewBox="0 0 32 29" fill="none" xmlns="http://www.w3.org/2000/svg">
<path d="M0 16.5966C0 22.1566 3.34126 24.117 9.42469 24.1718C9.0668 23.4506 8.79399 22.6943 8.59126 21.9317C4.03452 21.7338 2.21788 20.0112 2.21788 16.4271V7.77047C2.21788 6.90374 2.36413 6.09678 2.7239 5.39553C4.22178 6.39045 6.80366 6.83624 9.48726 6.83624C12.1826 6.83624 14.7645 6.39045 16.2548 5.39553C16.5356 5.79795 16.7416 6.53976 16.7416 7.09054V7.1339C17.4342 6.98953 18.1767 6.89086 18.9553 6.83461C18.8541 5.19515 18.3848 3.94359 17.7049 3.03281C17.4005 2.61468 16.8738 2.55539 16.4243 2.87367C15.1896 3.82851 12.3853 4.58672 9.48726 4.58672C6.59132 4.58672 3.78702 3.82851 2.56406 2.87367C2.10492 2.55539 1.58578 2.61468 1.28133 3.03281C0.474612 4.09265 0 5.62851 0 7.68398V16.5966ZM20.4773 28.3387C24.4772 28.3387 26.1895 27.8126 27.8029 26.3067C30.063 24.2543 31.3816 21.2604 31.3816 18.1066C31.3816 15.5683 30.5273 13.1313 28.969 11.3126C28.4475 10.6603 27.6265 10.5251 26.8741 10.988C25.5218 11.9541 23.7874 12.603 20.4773 12.603C17.1672 12.603 15.4329 11.9541 14.0709 10.988C13.3165 10.5251 12.5072 10.6507 11.9836 11.3126C10.4273 13.1313 9.56343 15.5587 9.56343 18.1066C9.56343 21.2604 10.882 24.2543 13.1421 26.3067C14.7555 27.8126 16.4754 28.3387 20.4773 28.3387ZM20.4773 25.9615C17.1661 25.9615 15.9087 25.6556 14.7621 24.5655C12.9551 22.9087 11.9482 20.5849 11.9482 18.1066C11.9482 16.0467 12.6326 14.074 14.3081 12.1835L12.4495 12.889C14.1499 14.2387 16.8424 14.9803 20.4773 14.9803C24.1123 14.9803 26.8047 14.2387 28.5051 12.8794L26.6369 12.1835C28.32 14.0644 29.0065 16.0371 29.0065 18.1066C29.0065 20.5849 27.99 22.9087 26.1926 24.5655C25.0247 25.6556 23.7886 25.9615 20.4773 25.9615Z" fill="black"/>
<path d="M9.48729 3.00984C12.4969 3.00984 14.8793 2.38945 14.8793 1.51289C14.8793 0.636329 12.499 0.0234375 9.48729 0.0234375C6.50206 0.0234375 4.11963 0.636329 4.11963 1.51289C4.11963 2.38945 6.50417 3.00984 9.48729 3.00984ZM20.4773 11.2493C23.4176 11.2493 25.5192 10.6727 25.5192 9.87515C25.5192 9.05624 23.4197 8.49351 20.4773 8.49351C17.5422 8.49351 15.4427 9.05624 15.4427 9.87515C15.4427 10.6727 17.5444 11.2493 20.4773 11.2493Z" fill="black"/>
</svg>
