<svg width="28" height="28" viewBox="0 0 28 28" fill="none" xmlns="http://www.w3.org/2000/svg">
<path d="M8.42866 26.4983H18.7646C20.7933 26.4983 22.1405 25.1865 22.1405 23.2369V5.25921C22.1405 3.30218 20.7933 2 18.7646 2H8.42866C6.37039 2 5 3.30218 5 5.2571V23.2391C5 25.1865 6.37039 26.4983 8.42866 26.4983ZM8.8128 24.137C7.89498 24.137 7.29592 23.5752 7.29592 22.7108V5.78748C7.29592 4.92311 7.89498 4.36131 8.8128 4.36131H18.3298C19.2477 4.36131 19.8446 4.92733 19.8446 5.78959V22.7087C19.8446 23.5709 19.2477 24.137 18.3298 24.137H8.8128Z" fill="black"/>
<path d="M13.581 21.7266C14.0345 21.7266 14.4039 21.3477 14.4039 20.8941V18.7149C14.4039 18.2593 14.0345 17.8824 13.581 17.8824C13.1254 17.8824 12.7485 18.2593 12.7485 18.7149V20.8941C12.7485 21.3477 13.1254 21.7266 13.581 21.7266ZM13.5831 16.0421C16.4835 16.0421 18.8533 13.6819 18.8533 10.7698C18.8533 7.85021 16.4835 5.48795 13.5831 5.48795C10.6614 5.48795 8.30127 7.85021 8.30127 10.7698C8.30127 13.6819 10.6614 16.0421 13.5831 16.0421ZM13.5831 14.4137C11.5565 14.4137 9.9297 12.7869 9.9297 10.7698C9.9297 8.74318 11.5565 7.11849 13.5831 7.11849C15.5885 7.11849 17.2249 8.75278 17.2249 10.7698C17.2249 12.7869 15.5885 14.4137 13.5831 14.4137Z" fill="black"/>
</svg>
