<svg width="30" height="28" viewBox="0 0 30 28" fill="none" xmlns="http://www.w3.org/2000/svg">
<path d="M3.23108 22.7647H26.572C28.6962 22.7647 29.8031 21.7079 29.8031 19.5336V6.02796C29.8031 3.86328 28.6962 2.80649 26.572 2.80649H3.23108C1.10695 2.80649 0 3.86328 0 6.02796V19.5336C0 21.7079 1.10695 22.7647 3.23108 22.7647ZM8.90578 26.8639H20.8952C21.4783 26.8639 21.9604 26.3829 21.9604 25.8029C21.9604 25.2228 21.4783 24.7397 20.8952 24.7397H8.90578C8.32476 24.7397 7.84265 25.2228 7.84265 25.8029C7.84265 26.3829 8.32476 26.8639 8.90578 26.8639Z" fill="black"/>
<path d="M11.3092 18.1264C10.7134 18.1264 10.3538 17.739 10.3538 17.0485V16.0301H6.46767C5.6251 16.0301 5.09424 15.5279 5.09424 14.7608C5.09424 14.3947 5.17299 14.049 5.42213 13.6245C6.26471 12.1937 7.5519 10.2692 8.64691 8.59764C9.17659 7.75647 9.73628 7.42882 10.6871 7.42882C11.6211 7.42882 12.2933 8.01803 12.2933 8.83928V14.3026H13.036C13.5868 14.3026 13.9367 14.6516 13.9367 15.1653C13.9367 15.7025 13.573 16.0301 13.0339 16.0301H12.2933V17.0485C12.2933 17.7507 11.9242 18.1264 11.3092 18.1264ZM10.3538 14.3026V9.10365H10.2613C9.16931 10.789 7.84275 12.8335 7.0536 14.228V14.3026H10.3538ZM16.3841 18.0666C15.7482 18.0666 15.3643 17.6412 15.3643 16.9266V8.65741C15.3643 7.93319 15.7482 7.5078 16.3841 7.5078C17.0584 7.5078 17.4252 7.92358 17.4252 8.65741V12.3254H17.5754L21.7391 7.96272C22.0508 7.62897 22.2495 7.5078 22.5866 7.5078C23.1055 7.5078 23.5116 7.86616 23.5116 8.35436C23.5116 8.63936 23.4371 8.84373 23.1957 9.07107L20.2733 12.1571L23.4676 16.3236C23.6579 16.5873 23.742 16.8247 23.742 17.0937C23.742 17.6415 23.322 18.0413 22.752 18.0413C22.3949 18.0413 22.1246 17.903 21.8513 17.5362L18.7644 13.4206L17.4252 14.8512V16.9456C17.4252 17.6593 17.0499 18.0666 16.3841 18.0666Z" fill="white"/>
</svg>
