<svg width="28" height="28" viewBox="0 0 28 28" fill="none" xmlns="http://www.w3.org/2000/svg">
<path d="M14.105 26.2301C20.7369 26.2301 26.2121 20.7549 26.2121 14.123C26.2121 7.50289 20.7273 2.01804 14.0954 2.01804C7.47523 2.01804 2 7.50289 2 14.123C2 20.7549 7.48484 26.2301 14.105 26.2301Z" fill="black"/>
<path d="M7.57666 18.0898V14.8904C7.57666 13.9604 7.75572 13.4234 8.27041 12.766L8.75299 12.1672C8.95971 11.1772 9.30072 10.1562 9.49572 9.75663C9.7983 9.12382 10.3767 8.74249 11.115 8.64663C11.5123 8.59765 12.6741 8.5646 14.1146 8.5646C15.5497 8.5646 16.7232 8.59765 17.1087 8.64663C17.8566 8.7521 18.433 9.12382 18.728 9.75663C18.923 10.1562 19.2641 11.1772 19.4804 12.1672L19.9534 12.766C20.4679 13.4234 20.6429 13.9604 20.6429 14.8904V18.0898C20.6429 18.4958 20.3211 18.8176 19.913 18.8176H19.2577C18.8401 18.8176 18.5203 18.4958 18.5203 18.0898V17.1641C17.3076 17.2386 15.5497 17.2855 14.1146 17.2855C12.6816 17.2855 10.9139 17.2365 9.70338 17.1641V18.0898C9.70338 18.4958 9.38369 18.8176 8.97564 18.8176H8.31822C7.90267 18.8176 7.57666 18.4958 7.57666 18.0898ZM10.2755 11.6187C10.2244 11.8093 10.3052 11.9061 10.5331 11.8965C11.3201 11.8388 12.2868 11.7919 14.1146 11.7919C15.9368 11.7919 16.9132 11.8388 17.6906 11.8965C17.9184 11.9061 18.0069 11.8093 17.9461 11.6187C17.8415 11.0919 17.6187 10.4115 17.4715 10.1576C17.3075 9.8914 17.1584 9.78382 16.8507 9.74655C16.4839 9.68257 15.627 9.67085 14.1146 9.67085C12.5968 9.67085 11.7378 9.69218 11.3827 9.74655C11.0749 9.78382 10.9142 9.8914 10.7618 10.1576C10.6146 10.4211 10.3917 11.0919 10.2755 11.6187ZM9.24096 14.8873C9.24096 15.3934 9.6415 15.7918 10.1475 15.7918C10.6514 15.7918 11.0499 15.3934 11.0499 14.8873C11.0499 14.3792 10.6514 13.9904 10.1475 13.9904C9.6415 13.9904 9.24096 14.3792 9.24096 14.8873ZM12.0008 14.9162C12.0008 15.3029 12.2702 15.5724 12.6569 15.5724H15.5721C15.9514 15.5724 16.2229 15.3029 16.2229 14.9162C16.2229 14.5369 15.9514 14.2653 15.5721 14.2653H12.6569C12.2702 14.2653 12.0008 14.5369 12.0008 14.9162ZM17.1835 14.8873C17.1835 15.3934 17.5702 15.7918 18.0762 15.7918C18.5919 15.7918 18.9902 15.3934 18.9902 14.8873C18.9902 14.3792 18.5919 13.9904 18.0762 13.9904C17.5702 13.9904 17.1835 14.3792 17.1835 14.8873Z" fill="white"/>
</svg>
