<svg width="34" height="28" viewBox="0 0 34 28" fill="none" xmlns="http://www.w3.org/2000/svg">
<path d="M20.8606 26.6312H30.0694C32.0597 26.6312 33.3877 25.3365 33.3877 23.3987V4.23249C33.3877 2.29258 32.0597 1 30.0694 1H20.8606C18.8408 1 17.48 2.29258 17.48 4.23038V23.4008C17.48 25.3365 18.8408 26.6312 20.8606 26.6312Z" fill="black"/>
<path d="M1.27921 23.4562C2.02569 23.4562 2.55631 22.9415 2.55631 22.1866V20.4201C2.55631 16.4826 5.04561 15.089 8.2132 15.089H8.94234L12.4669 14.9582V14.1395L9.23085 17.0162L8.06413 18.0144C7.74608 18.2793 7.63358 18.6208 7.63358 18.9864C7.63358 19.6808 8.15694 20.2093 8.87037 20.2093C9.21068 20.2093 9.51794 20.0765 9.81583 19.7903L14.794 14.7986C15.0832 14.519 15.2395 14.1862 15.2395 13.8215C15.2395 13.4547 15.0832 13.1219 14.794 12.8423L9.79661 7.8313C9.51794 7.55474 9.21068 7.43146 8.87037 7.43146C8.15694 7.43146 7.63358 7.95036 7.63358 8.65442C7.63358 9.02004 7.74608 9.36152 8.06413 9.62637L9.23085 10.6246L12.4669 13.5013V12.6826L8.94234 12.5519H8.21531C3.94547 12.5519 0 14.7046 0 20.4201V22.1844C0 22.9415 0.530621 23.4562 1.27921 23.4562Z" fill="black"/>
</svg>
