<svg width="30" height="28" viewBox="0 0 30 28" fill="none" xmlns="http://www.w3.org/2000/svg">
<path d="M28.1686 18.987L21.2149 12.4733C20.7014 11.9949 20.0899 11.7626 19.4538 11.7626C18.8231 11.7626 18.2372 11.9832 17.7002 12.4615L11.4532 18.0408H12.3822L9.26202 15.2314C8.77944 14.7882 8.23827 14.5655 7.6896 14.5655C7.13788 14.5655 6.65296 14.7861 6.17999 15.2197L1.74772 19.193C1.74772 20.892 2.53639 21.7817 4.02396 21.7817H25.4611C27.2826 21.7817 28.1686 20.7725 28.1686 18.987ZM9.99584 12.7489C11.5233 12.7489 12.7865 11.4835 12.7865 9.91553C12.7865 8.39022 11.5233 7.11311 9.99584 7.11311C8.44709 7.11311 7.1742 8.39022 7.1742 9.91553C7.1742 11.4835 8.44709 12.7489 9.99584 12.7489ZM3.23108 22.7647H26.572C28.6769 22.7647 29.8031 21.6481 29.8031 19.5336V6.02796C29.8031 3.92304 28.6769 2.80648 26.572 2.80648H3.23108C1.12617 2.80648 0 3.92304 0 6.02796V19.5336C0 21.6481 1.12617 22.7647 3.23108 22.7647ZM3.36327 20.5236C2.61514 20.5236 2.24108 20.158 2.24108 19.411V6.16014C2.24108 5.40358 2.61514 5.04756 3.36327 5.04756H26.4377C27.1859 5.04756 27.5599 5.40358 27.5599 6.16014V19.411C27.5599 20.158 27.1859 20.5236 26.4377 20.5236H3.36327ZM8.90578 26.8639H20.8952C21.4783 26.8639 21.9604 26.3829 21.9604 25.8029C21.9604 25.2228 21.4783 24.7397 20.8952 24.7397H8.90578C8.32476 24.7397 7.84265 25.2228 7.84265 25.8029C7.84265 26.3829 8.32476 26.8639 8.90578 26.8639Z" fill="black"/>
</svg>
