<svg width="39" height="28" viewBox="0 0 39 28" fill="none" xmlns="http://www.w3.org/2000/svg">
<path d="M3.57381 19.9667C4.52724 21.3031 6.21872 20.0455 5.42185 18.9188L2.26739 14.4655L5.42185 10.0334C6.22294 8.91007 4.52724 7.64703 3.57381 8.98343L0.293027 13.565C-0.0976756 14.1228 -0.0976756 14.8273 0.293027 15.3755L3.57381 19.9667ZM12.2771 23.948H34.4328C36.9547 23.948 38.277 22.6449 38.277 20.1423V8.79616C38.277 6.30523 36.9547 5 34.4328 5H12.2771C9.73599 5 8.43286 6.29562 8.43286 8.79616V20.1423C8.43286 22.6449 9.73599 23.948 12.2771 23.948ZM12.4102 21.6521C11.3302 21.6521 10.7288 21.0805 10.7288 19.9419V8.99866C10.7288 7.85795 11.3302 7.29592 12.4102 7.29592H34.29C35.3701 7.29592 35.9811 7.85795 35.9811 8.99866V19.9419C35.9811 21.0805 35.3701 21.6521 34.29 21.6521H12.4102ZM13.5378 11.8184H14.6084C14.9513 11.8184 15.1568 11.6129 15.1568 11.2775V10.1951C15.1568 9.85226 14.9513 9.6446 14.6084 9.6446H13.5378C13.1928 9.6446 12.9872 9.85226 12.9872 10.1951V11.2775C12.9872 11.6129 13.1928 11.8184 13.5378 11.8184ZM17.2362 11.8184H18.3164C18.6593 11.8184 18.867 11.6129 18.867 11.2775V10.1951C18.867 9.85226 18.6593 9.6446 18.3164 9.6446H17.2362C16.8933 9.6446 16.6857 9.85226 16.6857 10.1951V11.2775C16.6857 11.6129 16.8933 11.8184 17.2362 11.8184ZM20.9443 11.8184H22.017C22.3599 11.8184 22.5654 11.6129 22.5654 11.2775V10.1951C22.5654 9.85226 22.3599 9.6446 22.017 9.6446H20.9443C20.6014 9.6446 20.3958 9.85226 20.3958 10.1951V11.2775C20.3958 11.6129 20.6014 11.8184 20.9443 11.8184ZM24.6523 11.8184H25.725C26.0679 11.8184 26.2735 11.6129 26.2735 11.2775V10.1951C26.2735 9.85226 26.0679 9.6446 25.725 9.6446H24.6523C24.3094 9.6446 24.1039 9.85226 24.1039 10.1951V11.2775C24.1039 11.6129 24.3094 11.8184 24.6523 11.8184ZM28.3761 11.8184H29.4331C29.7664 11.8184 29.9815 11.6129 29.9815 11.2775V10.1951C29.9815 9.85226 29.7664 9.6446 29.4331 9.6446H28.3761C28.0184 9.6446 27.8023 9.85226 27.8023 10.1951V11.2775C27.8023 11.6129 28.0184 11.8184 28.3761 11.8184ZM32.0609 11.8184H33.1315C33.4744 11.8184 33.6821 11.6129 33.6821 11.2775V10.1951C33.6821 9.85226 33.4744 9.6446 33.1315 9.6446H32.0609C31.718 9.6446 31.5125 9.85226 31.5125 10.1951V11.2775C31.5125 11.6129 31.718 11.8184 32.0609 11.8184ZM13.5378 15.5518H14.6084C14.9513 15.5518 15.1568 15.3441 15.1568 15.0012V13.9285C15.1568 13.5856 14.9513 13.378 14.6084 13.378H13.5378C13.1928 13.378 12.9872 13.5856 12.9872 13.9285V15.0012C12.9872 15.3441 13.1928 15.5518 13.5378 15.5518ZM17.2362 15.5518H18.3164C18.6593 15.5518 18.867 15.3441 18.867 15.0012V13.9285C18.867 13.5856 18.6593 13.378 18.3164 13.378H17.2362C16.8933 13.378 16.6857 13.5856 16.6857 13.9285V15.0012C16.6857 15.3441 16.8933 15.5518 17.2362 15.5518ZM20.9443 15.5518H22.017C22.3599 15.5518 22.5654 15.3441 22.5654 15.0012V13.9285C22.5654 13.5856 22.3599 13.378 22.017 13.378H20.9443C20.6014 13.378 20.3958 13.5856 20.3958 13.9285V15.0012C20.3958 15.3441 20.6014 15.5518 20.9443 15.5518ZM24.6523 15.5518H25.725C26.0679 15.5518 26.2735 15.3441 26.2735 15.0012V13.9285C26.2735 13.5856 26.0679 13.378 25.725 13.378H24.6523C24.3094 13.378 24.1039 13.5856 24.1039 13.9285V15.0012C24.1039 15.3441 24.3094 15.5518 24.6523 15.5518ZM28.3761 15.5518H29.4331C29.7664 15.5518 29.9815 15.3441 29.9815 15.0012V13.9285C29.9815 13.5856 29.7664 13.378 29.4331 13.378H28.3761C28.0184 13.378 27.8023 13.5856 27.8023 13.9285V15.0012C27.8023 15.3441 28.0184 15.5518 28.3761 15.5518ZM32.0609 15.5518H33.1315C33.4744 15.5518 33.6821 15.3441 33.6821 15.0012V13.9285C33.6821 13.5856 33.4744 13.378 33.1315 13.378H32.0609C31.718 13.378 31.5125 13.5856 31.5125 13.9285V15.0012C31.5125 15.3441 31.718 15.5518 32.0609 15.5518ZM13.5378 19.2851H14.6084C14.9513 19.2851 15.1568 19.0775 15.1568 18.7346V17.6523C15.1568 17.319 14.9513 17.1113 14.6084 17.1113H13.5378C13.1928 17.1113 12.9872 17.319 12.9872 17.6523V18.7346C12.9872 19.0775 13.1928 19.2851 13.5378 19.2851ZM17.3344 19.2851H29.3349C29.7375 19.2851 29.9815 19.0487 29.9815 18.6364V17.7505C29.9815 17.3478 29.7375 17.1113 29.3349 17.1113H17.3344C16.9222 17.1113 16.6857 17.3478 16.6857 17.7505V18.6364C16.6857 19.0487 16.9222 19.2851 17.3344 19.2851ZM32.0609 19.2851H33.1315C33.4744 19.2851 33.6821 19.0775 33.6821 18.7346V17.6523C33.6821 17.319 33.4744 17.1113 33.1315 17.1113H32.0609C31.718 17.1113 31.5125 17.319 31.5125 17.6523V18.7346C31.5125 19.0775 31.718 19.2851 32.0609 19.2851Z" fill="black"/>
</svg>
