<svg width="30" height="28" viewBox="0 0 30 28" fill="none" xmlns="http://www.w3.org/2000/svg">
<path d="M3.84421 23.948H25.9999C28.5218 23.948 29.8462 22.6449 29.8462 20.1423V8.79616C29.8462 6.30523 28.5218 5 25.9999 5H3.84421C1.30523 5 0 6.29562 0 8.79616V20.1423C0 22.6449 1.30523 23.948 3.84421 23.948ZM4.70929 11.7174C4.36007 11.7174 4.1503 11.498 4.1503 11.1509V10.0229C4.1503 9.67155 4.36007 9.45429 4.70929 9.45429H5.83522C6.19194 9.45429 6.41132 9.67155 6.41132 10.0229V11.1509C6.41132 11.498 6.19194 11.7174 5.83522 11.7174H4.70929ZM8.55983 11.7174C8.20312 11.7174 7.99335 11.498 7.99335 11.1509V10.0229C7.99335 9.67155 8.20312 9.45429 8.55983 9.45429H9.68577C10.0371 9.45429 10.2544 9.67155 10.2544 10.0229V11.1509C10.2544 11.498 10.0371 11.7174 9.68577 11.7174H8.55983ZM12.4146 11.7174C12.0654 11.7174 11.846 11.498 11.846 11.1509V10.0229C11.846 9.67155 12.0654 9.45429 12.4146 9.45429H13.5309C13.8876 9.45429 14.107 9.67155 14.107 10.0229V11.1509C14.107 11.498 13.8876 11.7174 13.5309 11.7174H12.4146ZM16.2652 11.7174C15.918 11.7174 15.6987 11.498 15.6987 11.1509V10.0229C15.6987 9.67155 15.918 9.45429 16.2652 9.45429H17.3911C17.7382 9.45429 17.9597 9.67155 17.9597 10.0229V11.1509C17.9597 11.498 17.7382 11.7174 17.3911 11.7174H16.2652ZM20.1431 11.7174C19.7716 11.7174 19.5417 11.498 19.5417 11.1509V10.0229C19.5417 9.67155 19.7716 9.45429 20.1431 9.45429H21.2459C21.593 9.45429 21.8006 9.67155 21.8006 10.0229V11.1509C21.8006 11.498 21.593 11.7174 21.2459 11.7174H20.1431ZM23.9705 11.7174C23.6137 11.7174 23.3944 11.498 23.3944 11.1509V10.0229C23.3944 9.67155 23.6137 9.45429 23.9705 9.45429H25.0868C25.4435 9.45429 25.6554 9.67155 25.6554 10.0229V11.1509C25.6554 11.498 25.4435 11.7174 25.0868 11.7174H23.9705ZM4.70929 15.5975C4.36007 15.5975 4.1503 15.3781 4.1503 15.0289V13.9009C4.1503 13.5537 4.36007 13.3323 4.70929 13.3323H5.83522C6.19194 13.3323 6.41132 13.5537 6.41132 13.9009V15.0289C6.41132 15.3781 6.19194 15.5975 5.83522 15.5975H4.70929ZM8.55983 15.5975C8.20312 15.5975 7.99335 15.3781 7.99335 15.0289V13.9009C7.99335 13.5537 8.20312 13.3323 8.55983 13.3323H9.68577C10.0371 13.3323 10.2544 13.5537 10.2544 13.9009V15.0289C10.2544 15.3781 10.0371 15.5975 9.68577 15.5975H8.55983ZM12.4146 15.5975C12.0654 15.5975 11.846 15.3781 11.846 15.0289V13.9009C11.846 13.5537 12.0654 13.3323 12.4146 13.3323H13.5309C13.8876 13.3323 14.107 13.5537 14.107 13.9009V15.0289C14.107 15.3781 13.8876 15.5975 13.5309 15.5975H12.4146ZM16.2652 15.5975C15.918 15.5975 15.6987 15.3781 15.6987 15.0289V13.9009C15.6987 13.5537 15.918 13.3323 16.2652 13.3323H17.3911C17.7382 13.3323 17.9597 13.5537 17.9597 13.9009V15.0289C17.9597 15.3781 17.7382 15.5975 17.3911 15.5975H16.2652ZM20.1431 15.5975C19.7716 15.5975 19.5417 15.3781 19.5417 15.0289V13.9009C19.5417 13.5537 19.7716 13.3323 20.1431 13.3323H21.2459C21.593 13.3323 21.8006 13.5537 21.8006 13.9009V15.0289C21.8006 15.3781 21.593 15.5975 21.2459 15.5975H20.1431ZM23.9705 15.5975C23.6137 15.5975 23.3944 15.3781 23.3944 15.0289V13.9009C23.3944 13.5537 23.6137 13.3323 23.9705 13.3323H25.0868C25.4435 13.3323 25.6554 13.5537 25.6554 13.9009V15.0289C25.6554 15.3781 25.4435 15.5975 25.0868 15.5975H23.9705ZM4.70929 19.4755C4.36007 19.4755 4.1503 19.2582 4.1503 18.9069V17.7788C4.1503 17.4317 4.36007 17.2123 4.70929 17.2123H5.83522C6.19194 17.2123 6.41132 17.4317 6.41132 17.7788V18.9069C6.41132 19.2582 6.19194 19.4755 5.83522 19.4755H4.70929ZM8.66765 19.4755C8.24155 19.4755 7.99335 19.2294 7.99335 18.7991V17.877C7.99335 17.4605 8.24155 17.2123 8.66765 17.2123H21.1359C21.5545 17.2123 21.8006 17.4605 21.8006 17.877V18.7991C21.8006 19.2294 21.5545 19.4755 21.1359 19.4755H8.66765ZM23.9705 19.4755C23.6137 19.4755 23.3944 19.2582 23.3944 18.9069V17.7788C23.3944 17.4317 23.6137 17.2123 23.9705 17.2123H25.0868C25.4435 17.2123 25.6554 17.4317 25.6554 17.7788V18.9069C25.6554 19.2582 25.4435 19.4755 25.0868 19.4755H23.9705Z" fill="black"/>
</svg>
