<svg width="29" height="28" viewBox="0 0 29 28" fill="none" xmlns="http://www.w3.org/2000/svg">
<path d="M2.92101 22.67H25.5131C27.344 22.67 28.4437 21.5703 28.4437 19.7394V5.62105C28.4437 3.79223 27.344 2.70215 25.5131 2.70215H2.92101C1.09968 2.70215 0 3.79223 0 5.62105V19.7394C0 21.5703 1.09968 22.67 2.92101 22.67ZM3.05741 20.4226C2.56077 20.4226 2.24741 20.1092 2.24741 19.6126V5.75956C2.24741 5.2512 2.56077 4.94745 3.05741 4.94745H25.3863C25.883 4.94745 26.1963 5.2512 26.1963 5.75956V19.6126C26.1963 20.1092 25.883 20.4226 25.3863 20.4226H3.05741ZM10.4006 25.3494H18.0431V22.4312H10.4006V25.3494ZM10.343 26.9061H18.1008C18.6839 26.9061 19.1564 26.423 19.1564 25.843C19.1564 25.2629 18.6839 24.7819 18.1008 24.7819H10.343C9.75984 24.7819 9.27773 25.2629 9.27773 25.843C9.27773 26.423 9.75984 26.9061 10.343 26.9061Z" fill="black"/>
<path d="M11.2544 16.418C11.2544 16.9208 11.7794 17.1176 12.199 16.8823L18.4823 13.194C18.8901 12.9512 18.8763 12.4156 18.4727 12.1824L12.199 8.49729C11.7794 8.25026 11.2544 8.45135 11.2544 8.9583V16.418Z" fill="black"/>
</svg>
