<svg width="32" height="28" viewBox="0 0 32 28" fill="none" xmlns="http://www.w3.org/2000/svg">
<path d="M0 10.6633C0 13.768 1.30266 16.7033 3.52968 18.7419C4.38867 19.5465 5.2732 20.0483 6.56203 20.354C6.13899 19.0021 5.91094 17.5916 5.91094 16.1619C5.91094 12.8856 7.06242 9.83008 9.10758 7.48399C9.92648 6.57579 10.737 5.8443 11.6006 5.27782C11.3402 5.30665 11.0531 5.31626 10.7255 5.31626C7.40905 5.31626 5.58608 4.69188 4.00101 3.52938C3.4746 3.16446 2.97797 3.20079 2.51414 3.7879C0.85125 5.75172 0 8.13859 0 10.6633ZM19.44 27.2354C23.7593 27.2354 25.6315 26.6816 27.3897 25.0468C29.8319 22.8123 31.2677 19.5756 31.2677 16.1619C31.2677 13.4254 30.3515 10.7807 28.4958 8.59211C27.9904 7.94758 27.4385 7.92086 26.8664 8.30805C25.1088 9.60156 23.0163 10.2611 19.44 10.2611C15.8658 10.2611 13.7712 9.60156 12.0136 8.30805C11.4436 7.92086 10.9012 7.94758 10.3959 8.59211C8.53054 10.7807 7.62398 13.4254 7.62398 16.1619C7.62398 19.5756 9.05015 22.8123 11.5019 25.0468C13.2602 26.6816 15.1228 27.2354 19.44 27.2354Z" fill="black"/>
<path d="M10.7361 3.81343C13.6859 3.81343 15.7897 3.23897 15.7897 2.42968C15.7897 1.62249 13.6902 1.06937 10.7361 1.06937C7.82233 1.06937 5.7207 1.62249 5.7207 2.42968C5.7207 3.23897 7.82444 3.81343 10.7361 3.81343ZM19.4401 8.61131C22.7042 8.61131 25.021 7.97826 25.021 7.09655C25.021 6.21272 22.7084 5.5935 19.4401 5.5935C16.1949 5.5935 13.8802 6.21272 13.8802 7.09655C13.8802 7.97826 16.197 8.61131 19.4401 8.61131Z" fill="black"/>
</svg>
