<svg width="38" height="28" viewBox="0 0 38 28" fill="none" xmlns="http://www.w3.org/2000/svg">
<path d="M14.059 18.1733C15.5107 18.1733 17.0721 17.3106 17.4087 15.4733L17.9892 12.3332C18.5899 9.03367 16.0903 6.57859 12.0898 5.1993C9.71458 4.37172 7.39591 4 5.05169 4C4.33169 4 4.10693 4.25242 4.10693 4.71578C4.10693 5.84265 4.68958 6.7 5.8324 6.86406C7.68349 7.13992 9.15161 7.53601 10.6038 8.22836C11.1844 8.50632 11.4091 8.92796 11.2973 9.55609L10.59 13.814C10.1927 16.2679 11.8383 18.1733 14.059 18.1733ZM14.0526 16.5273C13.0249 16.5273 12.2027 15.7126 12.2027 14.687C12.2027 13.6518 13.0249 12.8296 14.0526 12.8296C15.0879 12.8296 15.8983 13.6518 15.8983 14.687C15.8983 15.7223 15.0879 16.5273 14.0526 16.5273ZM14.0526 15.7023C14.6323 15.7023 15.0733 15.2549 15.0733 14.687C15.0733 14.1074 14.6323 13.6525 14.0526 13.6525C13.4805 13.6525 13.0277 14.1074 13.0277 14.687C13.0277 15.2549 13.4805 15.7023 14.0526 15.7023ZM14.059 19.2932C11.0782 19.2932 8.97068 16.7001 9.48396 13.6255L9.90583 11.0901C7.61528 11.6823 5.93857 12.6709 5.20802 14.1698C5.85232 16.9888 6.86833 19.5927 8.29966 22.0987C8.98145 22.4301 9.68669 22.543 10.6519 22.543C14.3683 22.543 17.6808 20.7428 17.9477 17.158C17.1694 18.4813 15.7303 19.2932 14.059 19.2932ZM23.8683 18.1733C26.0772 18.1733 27.7345 16.2679 27.3255 13.814L26.6182 9.55609C26.516 8.92796 26.7333 8.50632 27.3234 8.22836C28.7639 7.53601 30.2416 7.13992 32.0927 6.86406C33.2355 6.7 33.8203 5.84265 33.8203 4.71578C33.8203 4.25242 33.5838 4 32.8755 4C30.5313 4 28.203 4.37172 25.8375 5.1993C21.8348 6.57859 19.3352 9.03367 19.938 12.3332L20.5186 15.4733C20.853 17.3106 22.4144 18.1733 23.8683 18.1733ZM23.8746 16.5273C22.8372 16.5273 22.0172 15.7223 22.0172 14.687C22.0172 13.6518 22.8372 12.8296 23.8746 12.8296C24.9002 12.8296 25.7128 13.6518 25.7128 14.687C25.7128 15.7126 24.9002 16.5273 23.8746 16.5273ZM23.8746 15.7023C24.4446 15.7023 24.8899 15.2549 24.8899 14.687C24.8899 14.1074 24.4446 13.6525 23.8746 13.6525C23.2929 13.6525 22.8422 14.1074 22.8422 14.687C22.8422 15.2549 23.2929 15.7023 23.8746 15.7023ZM23.8683 19.2932C22.1948 19.2932 20.7579 18.4813 19.9678 17.158C20.2347 20.7428 23.5589 22.543 27.2754 22.543C28.2384 22.543 28.9436 22.4301 29.6275 22.0987C31.0568 19.5927 32.0749 16.9888 32.7171 14.1698C31.9769 12.6709 30.3098 11.6823 28.0097 11.0901L28.4433 13.6255C28.9544 16.7001 26.849 19.2932 23.8683 19.2932Z" fill="black"/>
<path d="M0 18.7837C0 21.5795 1.88929 23.4805 4.68093 23.4805C5.79913 23.4805 6.76031 23.1236 7.3664 22.7144C5.84226 20.0933 4.75382 17.2881 4.07859 14.2975C1.98258 14.5051 0 16.2072 0 18.7837ZM37.9155 18.7837C37.9155 16.2072 35.9329 14.5051 33.8465 14.2975C33.1713 17.2881 32.085 20.0933 30.5587 22.7144C31.1648 23.1236 32.126 23.4805 33.2442 23.4805C36.0379 23.4805 37.9155 21.5795 37.9155 18.7837Z" fill="black"/>
<path d="M14.0525 16.5273C13.0248 16.5273 12.2026 15.7126 12.2026 14.687C12.2026 13.6518 13.0248 12.8296 14.0525 12.8296C15.0878 12.8296 15.8982 13.6518 15.8982 14.687C15.8982 15.7223 15.0878 16.5273 14.0525 16.5273ZM14.0525 15.7023C14.6322 15.7023 15.0732 15.2549 15.0732 14.687C15.0732 14.1074 14.6322 13.6525 14.0525 13.6525C13.4804 13.6525 13.0276 14.1074 13.0276 14.687C13.0276 15.2549 13.4804 15.7023 14.0525 15.7023ZM23.8745 16.5273C22.8371 16.5273 22.0171 15.7223 22.0171 14.687C22.0171 13.6518 22.8371 12.8296 23.8745 12.8296C24.9001 12.8296 25.7127 13.6518 25.7127 14.687C25.7127 15.7126 24.9001 16.5273 23.8745 16.5273ZM23.8745 15.7023C24.4445 15.7023 24.8898 15.2549 24.8898 14.687C24.8898 14.1074 24.4445 13.6525 23.8745 13.6525C23.2928 13.6525 22.8421 14.1074 22.8421 14.687C22.8421 15.2549 23.2928 15.7023 23.8745 15.7023Z" fill="white"/>
</svg>
