<svg width="31" height="28" viewBox="0 0 31 28" fill="none" xmlns="http://www.w3.org/2000/svg">
<path d="M3.84843 24.8972H19.4763C19.1655 24.4662 18.9537 23.9384 18.8843 23.3381C18.8651 23.1014 18.8555 22.8551 18.8459 22.6013H3.98155C2.88983 22.6013 2.29803 22.0371 2.29803 20.8985V7.01999C2.29803 5.88139 2.88772 5.31936 3.97733 5.31936H23.9845C25.0624 5.31936 25.6659 5.87928 25.6659 7.01577V7.37226C26.4743 7.37226 27.2112 7.37226 27.9619 7.37226V6.82921C27.9619 4.32656 26.6566 3.02344 24.1176 3.02344H3.84421C1.31484 3.02344 0 4.31695 0 6.82921V21.0872C0 23.5994 1.31695 24.8972 3.84843 24.8972ZM9.44695 21.6673H18.8074C18.8074 21.2904 18.8074 20.8964 18.8074 20.5099H9.44695C9.11367 20.5099 8.86664 20.7452 8.86664 21.0945C8.86664 21.4437 9.11367 21.6673 9.44695 21.6673Z" fill="black"/>
<path d="M22.5279 24.8972H28.034C29.4745 24.8972 30.3192 24.0729 30.3192 22.6741V11.0128C30.3192 9.61405 29.4649 8.78015 28.034 8.78015H22.5279C21.0844 8.78015 20.2153 9.61405 20.2153 11.0107V22.6762C20.2153 24.0729 21.0748 24.8972 22.5279 24.8972ZM22.658 23.1448C22.1824 23.1448 21.9319 22.8942 21.9319 22.3994V11.2854C21.9319 10.7906 22.1824 10.5326 22.658 10.5326H23.6831C23.7321 10.5326 23.7555 10.5656 23.7555 10.6146V10.721C23.7555 11.1333 24.0314 11.407 24.4373 11.407H26.0993C26.5052 11.407 26.7811 11.1333 26.7811 10.721V10.6146C26.7811 10.5656 26.8045 10.5326 26.8535 10.5326H27.8808C28.3521 10.5326 28.6048 10.7948 28.6048 11.2875V22.3973C28.6048 22.89 28.3521 23.1448 27.8808 23.1448H22.658ZM23.6702 22.5218H26.8493C27.09 22.5218 27.27 22.3556 27.27 22.1032C27.27 21.87 27.09 21.69 26.8493 21.69H23.6702C23.4295 21.69 23.2687 21.87 23.2687 22.1032C23.2687 22.3652 23.4199 22.5218 23.6702 22.5218Z" fill="black"/>
</svg>
