<svg width="30" height="28" viewBox="0 0 30 28" fill="none" xmlns="http://www.w3.org/2000/svg">
<path d="M3.23108 22.7647H26.572C28.6769 22.7647 29.8031 21.6481 29.8031 19.5336V6.02796C29.8031 3.92304 28.6769 2.80649 26.572 2.80649H3.23108C1.12617 2.80649 0 3.92304 0 6.02796V19.5336C0 21.6481 1.12617 22.7647 3.23108 22.7647ZM3.36327 20.5236C2.61514 20.5236 2.24108 20.158 2.24108 19.411V6.16014C2.24108 5.40358 2.61514 5.04756 3.36327 5.04756H26.4377C27.1859 5.04756 27.5599 5.40358 27.5599 6.16014V19.411C27.5599 20.158 27.1859 20.5236 26.4377 20.5236H3.36327ZM8.90578 26.8639H20.8952C21.4783 26.8639 21.9604 26.3829 21.9604 25.8029C21.9604 25.2228 21.4783 24.7397 20.8952 24.7397H8.90578C8.32476 24.7397 7.84265 25.2228 7.84265 25.8029C7.84265 26.3829 8.32476 26.8639 8.90578 26.8639Z" fill="black"/>
<path d="M15.4653 17.4434C15.6964 17.4434 15.8614 17.2826 15.9083 17.0537C16.5212 13.6316 16.8566 13.006 20.3982 12.5382C20.6431 12.5009 20.806 12.3263 20.806 12.0931C20.806 11.8641 20.6431 11.6799 20.3982 11.6448C16.8894 11.1791 16.4324 10.531 15.9083 7.15062C15.8668 6.90569 15.6964 6.74913 15.4653 6.74913C15.2342 6.74913 15.0617 6.89608 15.017 7.14101C14.4008 10.5706 14.0581 11.1727 10.5228 11.6448C10.28 11.6799 10.1192 11.8641 10.1192 12.0931C10.1192 12.3263 10.28 12.4988 10.5228 12.5382C14.0467 12.9352 14.4962 13.621 15.017 17.0441C15.0542 17.2826 15.2171 17.4434 15.4653 17.4434ZM10.806 19.343C10.9721 19.343 11.1095 19.2312 11.1425 19.063C11.4538 17.3743 11.3556 17.307 13.1999 17.0194C13.3681 16.9918 13.4778 16.8469 13.4778 16.6829C13.4778 16.5242 13.366 16.3794 13.1999 16.3559C11.3577 16.0618 11.4517 15.9924 11.1425 14.3337C11.1095 14.1516 10.986 14.0206 10.806 14.0206C10.6356 14.0206 10.5238 14.142 10.479 14.3337C10.1624 15.9798 10.2777 16.047 8.43339 16.3559C8.25339 16.3836 8.15332 16.5242 8.15332 16.6829C8.15332 16.8704 8.25339 16.9918 8.46105 17.0194C10.2756 17.2965 10.1624 17.3701 10.479 19.0299C10.5238 19.2216 10.626 19.343 10.806 19.343Z" fill="black"/>
</svg>
