<svg width="28" height="28" viewBox="0 0 28 28" fill="none" xmlns="http://www.w3.org/2000/svg">
<path d="M8 24.5833C8 26.2841 9.11562 27.3487 10.9144 27.3487H17.3223C19.119 27.3487 20.2367 26.2841 20.2367 24.5833V3.76749C20.2367 2.07625 19.119 1 17.3223 1H10.9144C9.11562 1 8 2.07625 8 3.76749V24.5833ZM14.128 17.4878C13.261 17.4878 12.574 16.8008 12.574 15.951C12.574 15.0841 13.261 14.4067 14.128 14.4067C14.9778 14.4067 15.6648 15.0841 15.6648 15.951C15.6648 16.8008 14.9778 17.4878 14.128 17.4878ZM14.128 12.704C11.8965 12.704 10.0655 10.8773 10.0655 8.64156C10.0655 6.41007 11.8965 4.58125 14.128 4.58125C16.3616 4.58125 18.1829 6.41007 18.1829 8.64156C18.1829 10.8773 16.3616 12.704 14.128 12.704ZM14.128 10.2808C15.0376 10.2808 15.7693 9.55117 15.7693 8.64156C15.7693 7.73195 15.0376 6.99484 14.128 6.99484C13.2205 6.99484 12.4791 7.73195 12.4791 8.64156C12.4791 9.55117 13.2205 10.2808 14.128 10.2808Z" fill="black"/>
</svg>
