<svg width="28" height="30" viewBox="0 0 28 30" fill="none" xmlns="http://www.w3.org/2000/svg">
<path d="M12.9884 18.7863C13.5296 18.7863 13.7895 18.4326 14.4479 18.4326C15.1456 18.4326 15.3097 18.7863 15.8998 18.7863C16.5134 18.7863 16.9119 18.2196 17.289 17.6901C17.7268 17.0766 17.8674 16.4651 17.8909 16.4278C17.8557 16.4065 16.7009 15.9569 16.7009 14.6477C16.7009 13.5068 17.6075 12.9869 17.6682 12.9518C17.0546 12.0921 16.1598 12.0666 15.8998 12.0666C15.2276 12.0666 14.6961 12.4788 14.3424 12.4788C13.9791 12.4788 13.4944 12.0921 12.916 12.0921C11.8081 12.0921 10.7002 12.9987 10.7002 14.7319C10.7002 15.8046 11.1029 16.9359 11.6206 17.6646C12.0563 18.2686 12.4334 18.7863 12.9884 18.7863ZM14.4031 11.9962C14.7919 11.9962 15.3097 11.715 15.593 11.3496C15.8764 11.0173 16.0639 10.5698 16.0639 10.1107C16.0639 10.0404 16.0639 9.98179 16.0426 9.93492C15.593 9.95624 15.0732 10.23 14.7334 10.5933C14.4734 10.8884 14.2721 11.3496 14.2721 11.8066C14.2721 11.8791 14.2721 11.9494 14.2838 11.9611C14.3073 11.9845 14.3424 11.9962 14.4031 11.9962ZM5.84421 26.3126H22.7295C25.2589 26.3126 26.5737 25.0073 26.5737 22.5164V7.15077C26.5737 4.64062 25.2589 3.345 22.7295 3.345H5.84421C3.30523 3.345 2 4.64062 2 7.15077V22.5164C2 25.0169 3.30523 26.3126 5.84421 26.3126ZM5.97733 24.0166C4.88772 24.0166 4.29592 23.4546 4.29592 22.3139V7.34366C4.29592 6.20506 4.88772 5.64303 5.97733 5.64303H22.5964C23.686 5.64303 24.2778 6.20506 24.2778 7.34366V22.3139C24.2778 23.4546 23.6764 24.0166 22.5964 24.0166H5.97733ZM5.14813 29.9576H9.64694C10.2045 29.9576 10.6461 29.5064 10.6461 28.9488C10.6461 28.387 10.2045 27.9358 9.64694 27.9358H5.14813C4.60016 27.9358 4.14688 28.387 4.14688 28.9488C4.14688 29.5064 4.60016 29.9576 5.14813 29.9576ZM6.39148 28.9915H8.40148V25.0634H6.39148V28.9915ZM18.9036 29.9576H23.4024C23.96 29.9576 24.4015 29.5064 24.4015 28.9488C24.4015 28.387 23.96 27.9358 23.4024 27.9358H18.9036C18.3556 27.9358 17.9045 28.387 17.9045 28.9488C17.9045 29.5064 18.3556 29.9576 18.9036 29.9576ZM20.1469 28.9915H22.159V25.0634H20.1469V28.9915ZM6.39148 4.48687H8.40148V1.00125C8.40148 0.453279 7.95991 0 7.40234 0C6.84265 0 6.39148 0.453279 6.39148 1.00125V4.48687ZM20.1469 4.48687H22.159V1.00125C22.159 0.453279 21.7175 0 21.1599 0C20.5885 0 20.1469 0.453279 20.1469 1.00125V4.48687Z" fill="black"/>
</svg>
