<svg width="30" height="28" viewBox="0 0 30 28" fill="none" xmlns="http://www.w3.org/2000/svg">
<path d="M23.0623 17.3526C23.9173 17.3312 24.6328 16.6232 24.6328 15.7703C24.6328 14.9015 23.9173 14.17 23.0623 14.17C22.2169 14.17 21.4875 14.9015 21.4875 15.7703C21.4875 16.6232 22.2169 17.3664 23.0623 17.3526ZM3.84421 21.5938H25.2958C27.8252 21.5938 29.1401 20.2886 29.1401 17.788V10.7962C29.1401 8.30523 27.8252 7 25.2958 7H3.84421C1.30523 7 0 8.29562 0 10.7962V17.788C0 20.2982 1.30523 21.5938 3.84421 21.5938ZM3.97733 19.2979C2.88772 19.2979 2.29592 18.7358 2.29592 17.5951V10.9987C2.29592 9.85795 2.88772 9.29592 3.97733 9.29592H25.1627C26.2427 9.29592 26.8441 9.85795 26.8441 10.9987V17.5951C26.8441 18.7358 26.2427 19.2979 25.1627 19.2979H3.97733ZM27.8353 12.6892V11.0823H1.32608V12.6892H27.8353Z" fill="black"/>
</svg>
