<svg width="28" height="28" viewBox="0 0 28 28" fill="none" xmlns="http://www.w3.org/2000/svg">
<path d="M6 22.7623C6 24.698 7.35117 25.9906 9.37101 25.9906H19.1135C21.1038 25.9906 22.4435 24.698 22.4435 22.7602V5.23038C22.4435 3.29258 21.1038 2 19.1135 2H9.37101C7.35117 2 6 3.29258 6 5.22827V22.7623ZM8.27905 11.1026V5.68483C8.27905 4.78952 8.81084 4.28537 9.74788 4.28537H18.6977C19.623 4.28537 20.1644 4.79584 20.1644 5.68694V11.1005C20.1644 12.0012 19.623 12.5117 18.6977 12.5117H9.74788C8.81084 12.5117 8.27905 12.0076 8.27905 11.1026ZM14.2266 23.5402C11.6962 23.5402 9.63234 21.4997 9.63234 18.9673C9.63234 16.4253 11.6962 14.3848 14.2266 14.3848C16.7472 14.3848 18.8112 16.4253 18.8112 18.9673C18.8112 21.4997 16.7472 23.5402 14.2266 23.5402ZM14.2266 21.7149C12.6956 21.7149 11.4576 20.479 11.4576 18.9673C11.4576 17.4481 12.6956 16.2123 14.2266 16.2123C15.7479 16.2123 16.9762 17.4481 16.9762 18.9673C16.9762 20.479 15.7479 21.7149 14.2266 21.7149Z" fill="black"/>
</svg>
