<svg width="28" height="28" viewBox="0 0 28 28" fill="none" xmlns="http://www.w3.org/2000/svg">
<path d="M10.4322 25.9906H18.4862C20.5651 25.9906 21.9184 24.6854 21.9184 22.6758V5.31475C21.9184 3.30523 20.5651 2 18.4862 2H10.4322C8.35328 2 7 3.30523 7 5.31475V22.6758C7 24.6854 8.35328 25.9906 10.4322 25.9906ZM10.7521 23.6947C9.82139 23.6947 9.29592 23.1884 9.29592 22.3058V5.68483C9.29592 4.80217 9.82139 4.29592 10.7521 4.29592H18.1663C19.0874 4.29592 19.6225 4.80217 19.6225 5.69749V22.3058C19.6225 23.1884 19.0874 23.6947 18.1663 23.6947H10.7521ZM11.3643 12.9266H17.5583C18.1551 12.9266 18.5183 12.5963 18.5183 12.0338V6.34295C18.5183 5.78045 18.1551 5.45022 17.5583 5.45022H11.3643C10.7633 5.45022 10.4022 5.77834 10.4022 6.34084V12.0359C10.4022 12.5984 10.7633 12.9266 11.3643 12.9266ZM11.185 16.3601H12.2842C12.5483 16.3601 12.7476 16.1844 12.7476 15.9341V14.7997C12.7476 14.559 12.5483 14.3832 12.2842 14.3832H11.185C10.9368 14.3832 10.7589 14.559 10.7589 14.7997V15.9341C10.7589 16.1844 10.9368 16.3601 11.185 16.3601ZM13.8728 16.3601H14.972C15.2361 16.3601 15.4258 16.1844 15.4258 15.9341V14.7997C15.4258 14.559 15.2361 14.3832 14.972 14.3832H13.8728C13.6246 14.3832 13.4467 14.559 13.4467 14.7997V15.9341C13.4467 16.1844 13.6246 16.3601 13.8728 16.3601ZM16.5606 16.3601H17.6598C17.9336 16.3601 18.1232 16.1844 18.1232 15.9341V14.7997C18.1232 14.559 17.9336 14.3832 17.6598 14.3832H16.5606C16.3103 14.3832 16.1345 14.559 16.1345 14.7997V15.9341C16.1345 16.1844 16.3103 16.3601 16.5606 16.3601ZM11.185 19.2387H12.2842C12.5483 19.2387 12.7476 19.0608 12.7476 18.8201V17.6858C12.7476 17.4355 12.5483 17.2597 12.2842 17.2597H11.185C10.9368 17.2597 10.7589 17.4355 10.7589 17.6858V18.8201C10.7589 19.0608 10.9368 19.2387 11.185 19.2387ZM13.8728 19.2387H14.972C15.2361 19.2387 15.4258 19.0608 15.4258 18.8201V17.6858C15.4258 17.4355 15.2361 17.2597 14.972 17.2597H13.8728C13.6246 17.2597 13.4467 17.4355 13.4467 17.6858V18.8201C13.4467 19.0608 13.6246 19.2387 13.8728 19.2387ZM16.5606 19.2387H17.6598C17.9336 19.2387 18.1232 19.0608 18.1232 18.8201V17.6858C18.1232 17.4355 17.9336 17.2597 17.6598 17.2597H16.5606C16.3103 17.2597 16.1345 17.4355 16.1345 17.6858V18.8201C16.1345 19.0608 16.3103 19.2387 16.5606 19.2387ZM11.185 22.1248H12.2842C12.5483 22.1248 12.7476 21.9469 12.7476 21.6987V20.5623C12.7476 20.3119 12.5483 20.1362 12.2842 20.1362H11.185C10.9368 20.1362 10.7589 20.3119 10.7589 20.5623V21.6987C10.7589 21.9469 10.9368 22.1248 11.185 22.1248ZM13.8728 22.1248H14.972C15.2361 22.1248 15.4258 21.9469 15.4258 21.6987V20.5623C15.4258 20.3119 15.2361 20.1362 14.972 20.1362H13.8728C13.6246 20.1362 13.4467 20.3119 13.4467 20.5623V21.6987C13.4467 21.9469 13.6246 22.1248 13.8728 22.1248ZM16.5606 22.1248H17.6598C17.9336 22.1248 18.1232 21.9469 18.1232 21.6987V20.5623C18.1232 20.3119 17.9336 20.1362 17.6598 20.1362H16.5606C16.3103 20.1362 16.1345 20.3119 16.1345 20.5623V21.6987C16.1345 21.9469 16.3103 22.1248 16.5606 22.1248Z" fill="black"/>
</svg>
