<svg width="31" height="28" viewBox="0 0 31 28" fill="none" xmlns="http://www.w3.org/2000/svg">
<path d="M0 9.29274C0 12.3436 1.27617 15.2463 3.46734 17.2362C4.89328 18.5758 6.43523 19.0936 9.59694 19.1726V16.8724C7.08984 16.8009 6.01898 16.4684 5.03343 15.5318C3.29225 13.9387 2.32147 11.6967 2.32147 9.29274C2.32147 7.67531 2.77593 6.17953 3.72796 4.82742C5.33413 5.78672 7.65257 6.27703 10.5649 6.27703C13.4827 6.27703 15.8011 5.78672 17.3977 4.82742C17.8849 5.41757 18.2091 6.06984 18.3647 6.79476H20.7832C20.4752 5.26148 19.8021 3.86039 18.8032 2.74173C18.2923 2.09251 17.486 1.969 16.7505 2.41384C15.4256 3.34384 13.773 3.96517 10.5649 3.96517C7.35257 3.96517 5.69999 3.34384 4.36546 2.41384C3.63 1.969 2.83336 2.0829 2.32453 2.74173C0.829922 4.4979 0 6.83508 0 9.29274Z" fill="black"/>
<path d="M10.5649 2.65172C13.4086 2.65172 15.438 2.0932 15.438 1.32961C15.438 0.537189 13.4107 0 10.5649 0C7.72006 0 5.68311 0.537189 5.68311 1.32961C5.68311 2.0932 7.72217 2.65172 10.5649 2.65172ZM16.5349 27.6731H25.3273C27.0513 27.6731 28.4163 27.487 29.3923 26.5111C30.3682 25.5234 30.5426 24.1723 30.5426 22.444V13.7327C30.5426 11.9948 30.3682 10.6437 29.3923 9.66983C28.4142 8.69178 27.0513 8.49819 25.3273 8.49819H16.5157C14.8205 8.49819 13.448 8.69178 12.4699 9.67944C11.4919 10.6554 11.31 12.0044 11.31 13.7039V22.444C11.31 24.1723 11.4919 25.5234 12.4699 26.5111C13.448 27.487 14.8108 27.6731 16.5349 27.6731ZM19.2712 19.3176C19.121 19.8101 18.7959 20.411 18.3633 20.8214C18.2344 20.9344 18.0532 21.0281 17.8059 21.0281C17.5917 21.0281 17.4532 20.944 17.2507 20.8875C17.1335 20.8469 16.964 20.7553 16.7519 20.7553C16.2724 20.7553 16.0603 21.0473 15.6703 21.0473C15.4017 21.0473 15.1833 20.8875 14.8891 20.5603C14.3339 19.9348 13.9715 18.9586 13.9715 18.1113C13.9715 17.5912 14.0983 17.1096 14.4213 16.7025C14.6941 16.3497 15.1172 16.1451 15.6255 16.1451C16.0976 16.1451 16.3779 16.4393 16.6347 16.4393C16.9193 16.4393 17.2624 16.1334 17.8624 16.1334C18.3825 16.1334 18.8247 16.3497 19.1093 16.7686C18.7373 16.9774 18.5892 17.2481 18.5189 17.474C18.3942 17.7916 18.3633 18.1753 18.5189 18.5707C18.6532 18.9138 18.8876 19.1536 19.2712 19.3176ZM16.5942 15.9799C16.5687 15.2468 17.1569 14.5572 17.9285 14.5008C18.0009 15.2041 17.3829 16.0556 16.5942 15.9799ZM21.8993 14.9782V16.1334H22.8349V16.8954H21.8993V19.5883C21.8993 20.0381 22.0964 20.2076 22.4981 20.2076C22.5973 20.2076 22.7763 20.2076 22.8286 20.1745V20.9908C22.7316 21.0026 22.4981 21.0281 22.2872 21.0281C21.2897 21.0281 20.906 20.6829 20.906 19.7109V16.8954H20.2219V16.1334H20.906V14.9782H21.8993ZM26.1279 20.9908H25.0793L23.2985 16.1334H24.3471L25.6036 20.0381L26.7961 16.1334H27.8735L26.1279 20.9908Z" fill="black"/>
</svg>
