<svg width="30" height="28" viewBox="0 0 30 28" fill="none" xmlns="http://www.w3.org/2000/svg">
<path d="M3.23108 22.7647H26.572C28.6769 22.7647 29.8031 21.6481 29.8031 19.5336V6.02796C29.8031 3.92304 28.6769 2.80649 26.572 2.80649H3.23108C1.12617 2.80649 0 3.92304 0 6.02796V19.5336C0 21.6481 1.12617 22.7647 3.23108 22.7647ZM3.36327 20.5236C2.61514 20.5236 2.24108 20.158 2.24108 19.411V6.16014C2.24108 5.40358 2.61514 5.04756 3.36327 5.04756H26.4377C27.1859 5.04756 27.5599 5.40358 27.5599 6.16014V19.411C27.5599 20.158 27.1859 20.5236 26.4377 20.5236H3.36327ZM8.90578 26.8639H20.8952C21.4783 26.8639 21.9604 26.3829 21.9604 25.8029C21.9604 25.2228 21.4783 24.7397 20.8952 24.7397H8.90578C8.32476 24.7397 7.84265 25.2228 7.84265 25.8029C7.84265 26.3829 8.32476 26.8639 8.90578 26.8639Z" fill="black"/>
<path d="M11.4248 17.9223C12.0176 17.9223 12.3612 17.5625 12.3612 16.8964V15.9069H13.0784C13.6069 15.9069 13.9505 15.5855 13.9505 15.0823C13.9505 14.5887 13.6186 14.2557 13.0805 14.2557H12.3612V8.97756C12.3612 8.19241 11.7305 7.63718 10.8272 7.63718C9.92834 7.63718 9.39631 7.94678 8.891 8.75186C7.84287 10.3585 6.58334 12.2276 5.7738 13.6116C5.5406 14.0138 5.45435 14.3436 5.45435 14.6916C5.45435 15.4248 5.96294 15.9069 6.76942 15.9069H10.5173V16.8964C10.5173 17.5529 10.8609 17.9223 11.4248 17.9223ZM10.5173 14.2557H7.32887V14.1833C8.08286 12.8377 9.38177 10.8528 10.4194 9.23022H10.5173V14.2557ZM16.3043 17.8721C16.9265 17.8721 17.2987 17.4849 17.2987 16.7977V14.7673L18.589 13.3899L21.5705 17.3661C21.8353 17.7127 22.0896 17.851 22.4362 17.851C22.9744 17.851 23.3721 17.4692 23.3721 16.9437C23.3721 16.6906 23.2826 16.4574 23.1061 16.2118L20.014 12.1848L22.8555 9.20303C23.0693 8.98412 23.1555 8.79358 23.1555 8.51491C23.1555 8.05647 22.7674 7.70655 22.2708 7.70655C21.9422 7.70655 21.7498 7.8235 21.4615 8.1392L17.4276 12.3519H17.2987V8.80951C17.2987 8.10217 16.9329 7.70655 16.3043 7.70655C15.6907 7.70655 15.3387 8.11178 15.3387 8.80951V16.7787C15.3387 17.4669 15.6907 17.8721 16.3043 17.8721Z" fill="black"/>
</svg>
