<svg width="28" height="28" viewBox="0 0 28 28" fill="none" xmlns="http://www.w3.org/2000/svg">
<path d="M6 23.4008C6 25.3365 7.35117 26.6312 9.37101 26.6312H18.5798C20.5701 26.6312 21.9002 25.3365 21.9002 23.3987V4.23249C21.9002 2.29258 20.5701 1 18.5798 1H9.37101C7.35117 1 6 2.29258 6 4.23038V23.4008ZM8.29592 22.8726V4.75866C8.29592 3.86545 8.82772 3.36131 9.76475 3.36131H18.1472C19.0725 3.36131 19.6043 3.86967 19.6043 4.76076V22.8705C19.6043 23.7615 19.0725 24.2699 18.1472 24.2699H9.76475C8.82772 24.2699 8.29592 23.7658 8.29592 22.8726Z" fill="black"/>
<path d="M11.9555 17.8258H15.9704C16.6138 17.8258 16.9323 17.4955 16.9323 16.8128V13.7427C16.9323 13.1985 16.7267 12.8875 16.3252 12.7628V11.987C16.3252 10.3987 15.3697 9.32263 13.9571 9.32263C12.5424 9.32263 11.5869 10.3987 11.5869 11.987V12.7766C11.1854 12.8896 10.9819 13.1985 10.9819 13.7427V16.8128C10.9819 17.4955 11.3004 17.8258 11.9555 17.8258ZM12.8166 12.7201V11.8942C12.8166 11.0565 13.2622 10.5194 13.9571 10.5194C14.6424 10.5194 15.0976 11.0565 15.0976 11.8942V12.7201H12.8166Z" fill="black"/>
</svg>
