<svg width="28" height="28" viewBox="0 0 28 28" fill="none" xmlns="http://www.w3.org/2000/svg">
<path d="M11.2126 27.3487H16.9599C18.9476 27.3487 20.1629 26.1728 20.1629 24.283V4.06562C20.1629 2.17586 18.9476 1 16.9599 1H11.2126C9.21523 1 8 2.17586 8 4.06562V24.283C8 26.1728 9.21523 27.3487 11.2126 27.3487ZM11.5278 25.237C10.6768 25.237 10.1436 24.7272 10.1436 23.9273V4.43311C10.1436 3.62147 10.6768 3.1117 11.5278 3.1117H16.6351C17.4957 3.1117 18.0193 3.62147 18.0193 4.43311V23.9273C18.0193 24.7272 17.4957 25.237 16.6351 25.237H11.5278ZM14.0825 11.1266C15.9151 11.1266 17.4024 9.6414 17.4024 7.81632C17.4024 5.97202 15.9151 4.49428 14.0825 4.49428C12.2478 4.49428 10.7701 5.97202 10.7701 7.81632C10.7701 9.6414 12.2478 11.1266 14.0825 11.1266ZM12.4236 14.4871C13.1363 14.4871 13.7126 13.9033 13.7126 13.2001C13.7126 12.4874 13.1363 11.9132 12.4236 11.9132C11.713 11.9132 11.1387 12.4874 11.1387 13.2001C11.1387 13.9033 11.713 14.4871 12.4236 14.4871ZM15.7468 14.4871C16.4574 14.4871 17.0241 13.9033 17.0241 13.2001C17.0241 12.4874 16.4595 11.9132 15.7468 11.9132C15.034 11.9132 14.4619 12.4874 14.4619 13.2001C14.4619 13.9033 15.034 14.4871 15.7468 14.4871ZM12.4236 17.7006C13.1363 17.7006 13.7126 17.1189 13.7126 16.4062C13.7126 15.703 13.1363 15.1192 12.4236 15.1192C11.713 15.1192 11.1387 15.703 11.1387 16.4062C11.1387 17.1189 11.713 17.7006 12.4236 17.7006ZM12.4236 20.9109C13.1363 20.9109 13.7126 20.327 13.7126 19.6239C13.7126 18.9112 13.1363 18.3252 12.4236 18.3252C11.713 18.3252 11.1387 18.9112 11.1387 19.6239C11.1387 20.327 11.713 20.9109 12.4236 20.9109ZM15.7351 20.9109C16.4126 20.9109 16.9655 20.3718 16.9655 19.6963V16.338C16.9655 15.6583 16.4126 15.1192 15.7351 15.1192C15.0692 15.1192 14.5322 15.6583 14.5322 16.338V19.6963C14.5322 20.3526 15.0713 20.9109 15.7351 20.9109Z" fill="black"/>
</svg>
