<svg width="28" height="28" viewBox="0 0 28 28" fill="none" xmlns="http://www.w3.org/2000/svg">
<path d="M5 5.55171V23.1659C5 25.501 6.20703 26.7176 8.52288 26.7176H20.078C22.3939 26.7176 23.5892 25.501 23.5892 23.1659V5.55171C23.5892 3.21664 22.3939 2 20.078 2H8.52288C6.20703 2 5 3.21664 5 5.55171ZM14.3005 23.1505C11.5784 23.1505 9.37952 20.9729 9.37952 18.2412C9.37952 15.4915 11.5784 13.3086 14.3005 13.3203C17.0225 13.332 19.2193 15.4915 19.2193 18.2412C19.2193 20.9729 17.0225 23.1505 14.3005 23.1505ZM14.2984 11.1896C12.7327 11.1896 11.4865 9.94343 11.4865 8.37569C11.4865 6.80046 12.7327 5.55968 14.2984 5.56929C15.8544 5.58312 17.1005 6.81007 17.1144 8.37569C17.1357 9.94343 15.8544 11.1896 14.2984 11.1896ZM14.3005 20.1964C15.3985 20.1964 16.2598 19.3137 16.2598 18.2412C16.2598 17.1155 15.3985 16.2584 14.3005 16.2584C13.1907 16.2584 12.339 17.1155 12.339 18.2412C12.339 19.3137 13.2216 20.1964 14.3005 20.1964ZM14.3005 9.66898C15.0169 9.66898 15.5937 9.08257 15.5937 8.37569C15.5937 7.6571 15.0031 7.0803 14.3005 7.0803C13.5744 7.0803 13.0072 7.62616 13.0072 8.37569C13.0072 9.08257 13.5744 9.66898 14.3005 9.66898Z" fill="black"/>
<path d="M14.3006 23.1505C11.5785 23.1505 9.37964 20.9729 9.37964 18.2412C9.37964 15.4915 11.5785 13.3086 14.3006 13.3203C17.0226 13.332 19.2194 15.4915 19.2194 18.2412C19.2194 20.9729 17.0226 23.1505 14.3006 23.1505ZM14.2985 11.1896C12.7328 11.1896 11.4867 9.94344 11.4867 8.3757C11.4867 6.80047 12.7328 5.55969 14.2985 5.5693C15.8545 5.58313 17.1006 6.81008 17.1145 8.3757C17.1358 9.94344 15.8545 11.1896 14.2985 11.1896Z" fill="white"/>
</svg>
