<svg width="28" height="28" viewBox="0 0 28 28" fill="none" xmlns="http://www.w3.org/2000/svg">
<path d="M4.22827 21.9194H23.4008C25.3365 21.9194 26.6387 20.5565 26.6387 18.5367V9.31828C26.6387 7.32797 25.3461 6 23.4083 6H4.23999C2.30218 6 1 7.32797 1 9.31828V18.5367C1 20.5565 2.29258 21.9194 4.22827 21.9194ZM4.75866 19.6235C3.86334 19.6235 3.3592 19.0821 3.3592 18.1526V9.76264C3.3592 8.83522 3.86967 8.29592 4.76076 8.29592H22.878C23.769 8.29592 24.2795 8.83522 24.2795 9.76264V18.1526C24.2795 19.0821 23.7754 19.6235 22.8705 19.6235H4.75866Z" fill="black"/>
<path d="M5.38092 11.9187H6.53451C6.78483 11.9187 6.96061 11.7408 6.96061 11.4809V10.3645C6.96061 10.0887 6.78483 9.90118 6.53451 9.90118H5.38092C5.13061 9.90118 4.95483 10.0887 4.95483 10.3645V11.4809C4.95483 11.7408 5.13061 11.9187 5.38092 11.9187ZM8.61272 11.9187H9.7567C10.007 11.9187 10.1945 11.7408 10.1945 11.4809V10.3645C10.1945 10.0887 10.0166 9.90118 9.7567 9.90118H8.61272C8.35279 9.90118 8.17701 10.0887 8.17701 10.3645V11.4809C8.17701 11.7408 8.35279 11.9187 8.61272 11.9187ZM11.8349 11.9187H12.981C13.2409 11.9187 13.4167 11.7408 13.4167 11.4809V10.3645C13.4167 10.0887 13.2409 9.90118 12.981 9.90118H11.8349C11.5771 9.90118 11.3992 10.0887 11.3992 10.3645V11.4809C11.3992 11.7408 11.5771 11.9187 11.8349 11.9187ZM15.0592 11.9187H16.2128C16.4631 11.9187 16.6389 11.7408 16.6389 11.4809V10.3645C16.6389 10.0887 16.4631 9.90118 16.2128 9.90118H15.0592C14.8089 9.90118 14.631 10.0887 14.631 10.3645V11.4809C14.631 11.7408 14.8089 11.9187 15.0592 11.9187ZM5.38092 14.9733H6.53451C6.78483 14.9733 6.96061 14.7975 6.96061 14.5376V13.4191C6.96061 13.1454 6.78483 12.9558 6.53451 12.9558H5.38092C5.13061 12.9558 4.95483 13.1454 4.95483 13.4191V14.5376C4.95483 14.7975 5.13061 14.9733 5.38092 14.9733ZM8.61272 14.9733H9.7567C10.007 14.9733 10.1945 14.7975 10.1945 14.5376V13.4191C10.1945 13.1454 10.0166 12.9558 9.7567 12.9558H8.61272C8.35279 12.9558 8.17701 13.1454 8.17701 13.4191V14.5376C8.17701 14.7975 8.35279 14.9733 8.61272 14.9733ZM11.8445 14.9733H12.981C13.2505 14.9733 13.4263 14.7975 13.4263 14.5376V13.4191C13.4263 13.1454 13.2505 12.9558 12.981 12.9558H11.8445C11.5771 12.9558 11.3992 13.1454 11.3992 13.4191V14.5376C11.3992 14.7975 11.5771 14.9733 11.8445 14.9733ZM21.1715 11.9187H22.3155C22.5754 11.9187 22.7512 11.7408 22.7512 11.4809V10.3645C22.7512 10.0887 22.5754 9.90118 22.3251 9.90118H21.1715C20.9212 9.90118 20.7454 10.0887 20.7454 10.3645V11.4809C20.7454 11.7408 20.9115 11.9187 21.1715 11.9187ZM21.1715 14.9733H22.3251C22.5754 14.9733 22.7512 14.7975 22.7512 14.5376V13.4191C22.7512 13.1454 22.5754 12.9558 22.3251 12.9558H21.1715C20.9212 12.9558 20.7454 13.1454 20.7454 13.4191V14.5376C20.7454 14.7975 20.9212 14.9733 21.1715 14.9733ZM21.1715 18.0162H22.3155C22.5754 18.0162 22.7512 17.8404 22.7512 17.5901V16.4737C22.7512 16.1979 22.5754 16.0104 22.3251 16.0104H21.1715C20.9212 16.0104 20.7454 16.1979 20.7454 16.4737V17.5901C20.7454 17.8404 20.9212 18.0162 21.1715 18.0162Z" fill="black"/>
</svg>
