<svg width="35" height="28" viewBox="0 0 35 28" fill="none" xmlns="http://www.w3.org/2000/svg">
<path d="M0 22.1146C0 22.9372 0.673591 23.6087 1.48452 23.6087H33.0147C33.8278 23.6087 34.5014 22.9372 34.5014 22.1146C34.5014 21.2919 33.8278 20.6226 33.0147 20.6226H30.5327V6.80312C30.5327 4.98321 29.5357 4.01501 27.7254 4.01501H6.776C5.03296 4.01501 3.96656 4.98321 3.96656 6.80312V20.6226H1.48452C0.673591 20.6226 0 21.2919 0 22.1146ZM6.26248 20.6226V7.40429C6.26248 6.66695 6.62693 6.31093 7.35584 6.31093H27.1455C27.8723 6.31093 28.2368 6.66695 28.2368 7.40429V20.6226H6.26248Z" fill="black"/>
<path d="M14.2832 17.3076C14.2832 17.8007 14.8178 17.9976 15.2277 17.7623L21.5111 14.0739C21.9168 13.8311 21.905 13.2934 21.5014 13.0623L15.2277 9.37515C14.8178 9.13022 14.2832 9.33132 14.2832 9.83616V17.3076Z" fill="black"/>
</svg>
