<svg width="34" height="28" viewBox="0 0 34 28" fill="none" xmlns="http://www.w3.org/2000/svg">
<path d="M3.96656 21.6194H6.26248V7.38928C6.26248 6.64983 6.62693 6.29592 7.35584 6.29592H30.4366C30.3693 4.80273 29.4663 4 27.9272 4H6.776C5.03296 4 3.96656 4.9682 3.96656 6.78811V21.6194ZM1.48452 23.5916H22.3106C21.9614 23.0453 21.7591 22.3904 21.7399 21.6344C21.7399 21.2868 21.7303 20.953 21.7303 20.6055H1.48452C0.673591 20.6055 0 21.2769 0 22.0996C0 22.9222 0.673591 23.5916 1.48452 23.5916Z" fill="black"/>
<path d="M25.4508 23.7208H30.9569C32.3974 23.7208 33.2421 22.8965 33.2421 21.4977V9.83642C33.2421 8.43767 32.3878 7.60376 30.9569 7.60376H25.4508C23.9976 7.60376 23.1382 8.43767 23.1382 9.83431V21.4998C23.1382 22.8965 23.9976 23.7208 25.4508 23.7208ZM25.5712 21.9683C25.0957 21.9683 24.8547 21.7082 24.8547 21.223V10.109C24.8547 9.61422 25.0957 9.35617 25.5712 9.35617H26.606C26.6454 9.35617 26.6784 9.38922 26.6784 9.4286V9.54461C26.6784 9.95688 26.9543 10.2306 27.3602 10.2306H29.0222C29.4185 10.2306 29.704 9.95688 29.704 9.54461V9.4286C29.704 9.38922 29.7274 9.35617 29.7764 9.35617H30.8037C31.275 9.35617 31.5276 9.61844 31.5276 10.1132V21.2209C31.5276 21.704 31.275 21.9683 30.8037 21.9683H25.5712ZM26.5931 21.3454H29.7722C30.0129 21.3454 30.1929 21.1792 30.1929 20.9268C30.1929 20.6936 30.0129 20.5136 29.7722 20.5136H26.5931C26.3545 20.5136 26.1916 20.6936 26.1916 20.9268C26.1916 21.1888 26.3428 21.3454 26.5931 21.3454Z" fill="black"/>
</svg>
