<svg width="34" height="28" viewBox="0 0 34 28" fill="none" xmlns="http://www.w3.org/2000/svg">
<path d="M5.65734 20.4294H14.9095C15.4259 20.4294 15.8219 20.0973 15.8826 19.5638L16.2715 15.5239C16.3247 14.8808 15.8808 14.4092 15.2452 14.4092H5.65734C3.99469 14.4092 2.65687 15.7609 2.65687 17.4331C2.65687 19.0916 3.99469 20.4294 5.65734 20.4294ZM5.65734 18.5052C6.26367 18.5052 6.75281 18.0352 6.75281 17.4289C6.75281 16.8205 6.26367 16.3313 5.65734 16.3313C5.05312 16.3313 4.56937 16.8205 4.56937 17.4289C4.56937 18.0352 5.05312 18.5052 5.65734 18.5052ZM12.4043 25.9976H13.6104L14.0269 21.9526H12.8133L12.4043 25.9976ZM5.65734 19.3984C4.56234 19.3984 3.67617 18.526 3.67617 17.4289C3.67617 16.3318 4.55812 15.4381 5.65734 15.4381C6.76406 15.4381 7.64601 16.3297 7.64601 17.4289C7.64601 18.526 6.76406 19.3984 5.65734 19.3984ZM10.5916 2C5.04445 2 0 7.00882 0 13.9144C0 18.5902 1.48922 24.8748 3.96562 24.894C4.61507 24.894 5.06671 24.2382 5.06671 22.8448C5.06671 22.4696 5.04539 22.1178 4.96218 21.5654C2.98055 21.237 1.45899 19.5097 1.45899 17.4331C1.45899 16.5807 1.72266 15.7974 2.16398 15.1363C2.09671 14.686 2.05617 14.1973 2.05617 13.8165C2.05617 8.48163 6.46078 4.05617 10.4627 4.05617C12.8695 4.05617 14.0895 5.93234 13.7613 9.09757L12.3776 22.3601C12.2402 23.7146 14.2666 23.7188 14.3902 22.5188L15.7526 9.01765C16.2042 4.52867 14.3039 2 10.5916 2ZM28.2351 20.4294C29.9074 20.4294 31.2452 19.0916 31.2452 17.4331C31.2452 15.7609 29.9074 14.4092 28.2351 14.4092H18.6569C18.0117 14.4092 17.5657 14.8808 17.6306 15.5239L18.0194 19.5638C18.0801 20.0973 18.4762 20.4294 18.983 20.4294H28.2351ZM28.2351 18.5052C28.849 18.5052 29.3231 18.0352 29.3231 17.4289C29.3231 16.8205 28.849 16.3313 28.2351 16.3313C27.6288 16.3313 27.1493 16.8205 27.1493 17.4289C27.1493 18.0352 27.6288 18.5052 28.2351 18.5052ZM21.4978 25.9976L21.0792 21.9526H19.8752L20.2917 25.9976H21.4978ZM28.2351 19.3984C27.138 19.3984 26.2465 18.526 26.2465 17.4289C26.2465 16.3297 27.138 15.4381 28.2351 15.4381C29.344 15.4381 30.2163 16.3318 30.2163 17.4289C30.2163 18.526 29.3398 19.3984 28.2351 19.3984ZM23.3105 2C19.5886 2 17.6883 4.52867 18.1495 9.01765L19.5119 22.5188C19.6355 23.7188 21.6619 23.7146 21.5149 22.3601L20.1408 9.09757C19.803 5.93234 21.0326 4.05617 23.4394 4.05617C27.4317 4.05617 31.8342 8.48163 31.8342 13.8165C31.8342 14.1973 31.7958 14.686 31.7381 15.1363C32.1698 15.7974 32.4335 16.5807 32.4335 17.4331C32.4335 19.5097 30.9215 21.237 28.9399 21.5654C28.8567 22.1178 28.8258 22.4696 28.8258 22.8448C28.8258 24.2382 29.2774 24.894 29.9269 24.894C32.4129 24.8748 33.9021 18.5902 33.9021 13.9144C33.9021 7.00882 28.848 2 23.3105 2Z" fill="black"/>
<path d="M5.65744 18.5052C6.26377 18.5052 6.75291 18.0352 6.75291 17.4289C6.75291 16.8205 6.26377 16.3313 5.65744 16.3313C5.05322 16.3313 4.56947 16.8205 4.56947 17.4289C4.56947 18.0352 5.05322 18.5052 5.65744 18.5052ZM5.65744 19.3984C4.56244 19.3984 3.67627 18.526 3.67627 17.4289C3.67627 16.3318 4.55822 15.4381 5.65744 15.4381C6.76416 15.4381 7.64611 16.3297 7.64611 17.4289C7.64611 18.526 6.76416 19.3984 5.65744 19.3984ZM28.2352 18.5052C28.8491 18.5052 29.3232 18.0352 29.3232 17.4289C29.3232 16.8205 28.8491 16.3313 28.2352 16.3313C27.6289 16.3313 27.1494 16.8205 27.1494 17.4289C27.1494 18.0352 27.6289 18.5052 28.2352 18.5052ZM28.2352 19.3984C27.1381 19.3984 26.2466 18.526 26.2466 17.4289C26.2466 16.3297 27.1381 15.4381 28.2352 15.4381C29.3441 15.4381 30.2164 16.3318 30.2164 17.4289C30.2164 18.526 29.3399 19.3984 28.2352 19.3984Z" fill="white"/>
</svg>
