<svg width="32" height="28" viewBox="0 0 32 28" fill="none" xmlns="http://www.w3.org/2000/svg">
<path d="M20.4774 27.2154C24.4112 27.2154 26.1055 26.7105 27.7051 25.2206C29.93 23.1916 31.2327 20.235 31.2327 17.1227C31.2327 14.5959 30.3814 12.2091 28.7089 10.2356C28.2451 9.64852 27.7505 9.63141 27.2241 9.97711C25.6306 11.1651 23.7992 11.7736 20.4774 11.7736C17.1439 11.7736 15.3146 11.1651 13.7211 9.97711C13.2043 9.63141 12.6981 9.64852 12.2342 10.2356C10.5713 12.2091 9.71045 14.5959 9.71045 17.1227C9.71045 20.235 11.0153 23.1916 13.2402 25.2206C14.8377 26.7105 16.5437 27.2154 20.4774 27.2154Z" fill="black"/>
<path d="M2.85562 20.7808H8.37891C8.11898 19.8994 7.96875 19.0132 7.8907 18.0251C5.60367 17.8678 3.81726 15.9837 3.81726 13.6741C3.81726 11.2659 5.76726 9.30632 8.18507 9.30632C8.90133 9.30632 9.58453 9.49288 10.1855 9.80835C11.7166 7.74328 13.8082 6.6825 16.448 6.15422V2.87695C16.448 1.00922 15.4505 0 13.5944 0H2.85562C0.997497 0 0 1.00922 0 2.87695V17.9039C0 19.7737 0.997497 20.7808 2.85562 20.7808ZM8.17546 7.66194C6.82992 7.66194 5.71875 6.5646 5.71875 5.21694C5.71875 3.87351 6.82031 2.77194 8.17546 2.77194C9.53062 2.77194 10.6301 3.87351 10.6301 5.21694C10.6301 6.5646 9.52101 7.66194 8.17546 7.66194ZM8.17546 6.35789C8.81414 6.35789 9.31852 5.84179 9.31852 5.21694C9.31852 4.58999 8.81414 4.0835 8.17546 4.0835C7.53679 4.0835 7.0303 4.58999 7.0303 5.21694C7.0303 5.84179 7.53679 6.35789 8.17546 6.35789ZM6.43429 13.6645C6.43429 14.5774 7.11374 15.3005 7.99031 15.3919C8.13304 14.2191 8.44969 13.1048 8.91891 12.0717C8.6939 11.9693 8.44429 11.917 8.18507 11.917C7.21054 11.917 6.43429 12.6996 6.43429 13.6645ZM20.4773 10.2633C23.4176 10.2633 25.5192 9.69632 25.5192 8.88914C25.5192 8.07234 23.4197 7.51711 20.4773 7.51711C17.5422 7.51711 15.4427 8.07234 15.4427 8.88914C15.4427 9.69632 17.5444 10.2633 20.4773 10.2633Z" fill="black"/>
</svg>
