<svg width="28" height="28" viewBox="0 0 28 28" fill="none" xmlns="http://www.w3.org/2000/svg">
<path d="M8.42749 25.5936H19.212C21.3446 25.5936 23.0194 25.3597 24.2232 24.1559C25.4291 22.9522 25.6491 21.2933 25.6491 19.1565V8.45093C25.6491 6.31203 25.4291 4.66062 24.2232 3.45898C23.0173 2.25523 21.3446 2.02344 19.212 2.02344H8.40827C6.30453 2.02344 4.62968 2.25523 3.42383 3.45898C2.22008 4.66484 2 6.32164 2 8.43171V19.1565C2 21.2933 2.22008 22.9543 3.42383 24.1559C4.63179 25.3597 6.30453 25.5936 8.42749 25.5936Z" fill="black"/>
<path d="M8.49514 11.206C8.46959 10.3025 9.18139 9.45218 10.1351 9.4053C10.2117 10.2577 9.45631 11.3052 8.49514 11.206ZM11.7738 15.3137C11.6001 15.9158 11.1909 16.6444 10.6795 17.1486C10.5154 17.285 10.2874 17.4043 9.98693 17.4043C9.71412 17.4043 9.55217 17.2946 9.31029 17.2189C9.15795 17.1762 8.94162 17.0708 8.69014 17.0708C8.10092 17.0708 7.83982 17.4256 7.35396 17.4256C7.03427 17.4256 6.76685 17.2189 6.4024 16.8247C5.71943 16.066 5.27295 14.8587 5.27295 13.8252C5.27295 13.1954 5.43701 12.5923 5.83029 12.099C6.16591 11.6621 6.67943 11.4085 7.30709 11.4085C7.88881 11.4085 8.23193 11.7772 8.5399 11.7772C8.90435 11.7772 9.32412 11.3968 10.0476 11.3968C10.6891 11.3968 11.2294 11.6525 11.5746 12.1651C11.1164 12.4346 10.9427 12.7681 10.8511 13.0409C10.7008 13.4427 10.6753 13.9105 10.8511 14.3846C11.0184 14.8119 11.3135 15.1027 11.7738 15.3137ZM15.0131 9.99241V11.3968H16.1585V12.3409H15.0131V15.6451C15.0131 16.1832 15.2454 16.3899 15.7354 16.3899C15.8601 16.3899 16.0765 16.3899 16.1287 16.3569V17.3574C16.0317 17.3691 15.7354 17.4043 15.4659 17.4043C14.2565 17.4043 13.7845 16.9749 13.7845 15.7815V12.3409H12.9342V11.3968H13.7845V9.99241H15.0131ZM20.1862 17.3574H18.8948L16.7104 11.3968H18.0115L19.548 16.1832L21.0014 11.3968H22.3333L20.1862 17.3574Z" fill="white"/>
</svg>
