<svg width="30" height="28" viewBox="0 0 30 28" fill="none" xmlns="http://www.w3.org/2000/svg">
<path d="M3.23108 22.7647H26.572C28.6962 22.7647 29.8031 21.7079 29.8031 19.5336V6.02796C29.8031 3.86328 28.6962 2.80648 26.572 2.80648H3.23108C1.10695 2.80648 0 3.86328 0 6.02796V19.5336C0 21.7079 1.10695 22.7647 3.23108 22.7647ZM8.90578 26.8639H20.8952C21.4783 26.8639 21.9604 26.3829 21.9604 25.8029C21.9604 25.2228 21.4783 24.7397 20.8952 24.7397H8.90578C8.32476 24.7397 7.84265 25.2228 7.84265 25.8029C7.84265 26.3829 8.32476 26.8639 8.90578 26.8639Z" fill="black"/>
<path d="M10.8586 17.7643V7.81319C10.8586 7.15718 11.5603 6.89866 12.098 7.21062L20.2971 12.0331C20.8882 12.3814 20.9095 13.1961 20.3067 13.5519L12.098 18.3584C11.5603 18.6704 10.8586 18.4161 10.8586 17.7643Z" fill="white"/>
</svg>
