<svg width="28" height="28" viewBox="0 0 28 28" fill="none" xmlns="http://www.w3.org/2000/svg">
<path d="M17.347 23.8507C17.9379 23.8507 18.4266 23.362 18.4266 22.7498C18.4266 22.159 17.9379 21.6703 17.347 21.6703C16.7327 21.6703 16.2558 22.159 16.2558 22.7498C16.2558 23.362 16.7327 23.8507 17.347 23.8507ZM6 23.981C6 26.3815 7.27687 27.637 9.69867 27.637H18.5217C20.9339 27.637 22.2108 26.3815 22.2108 23.981V6.199C22.2108 5.15205 21.9947 4.49112 21.3869 3.75565L19.6591 1.65049C18.8058 0.609872 17.9712 0.129639 16.8553 0.129639H11.3555C10.2396 0.129639 9.41461 0.609872 8.55164 1.65049L6.82383 3.75565C6.21609 4.49112 6 5.15205 6 6.199V23.981ZM8.29592 23.6679V7.29306C8.60178 7.44986 8.91842 7.50001 9.30116 7.50001H18.9096C19.3019 7.50001 19.6186 7.44986 19.9148 7.29306V23.6679C19.9148 24.7685 19.323 25.3411 18.263 25.3411H9.9478C8.88772 25.3411 8.29592 24.7685 8.29592 23.6679ZM8.87647 4.46674L10.2328 2.80971C10.7158 2.23924 10.9992 1.92892 11.7105 1.92892H16.5023C17.2212 1.92892 17.5066 2.23924 17.978 2.80971L19.3343 4.46674C19.5572 4.7344 19.4998 5.2294 18.9344 5.2294H9.27842C8.711 5.2294 8.66529 4.7344 8.87647 4.46674Z" fill="black"/>
</svg>
