<svg width="28" height="29" viewBox="0 0 28 29" fill="none" xmlns="http://www.w3.org/2000/svg">
<path d="M13.6925 28.3312C19.1555 28.3312 22.3871 26.25 22.3871 22.733V6.06979C22.3871 4.7062 21.9476 3.56034 21.1906 2.74893C20.7413 2.16441 20.1275 2.04723 19.6442 2.53449C18.9252 3.75559 16.4623 4.49457 13.6925 4.49457C10.9247 4.49457 8.45233 3.75559 7.73327 2.53449C7.25 2.04723 6.63618 2.16441 6.19649 2.74893C5.43946 3.56034 5 4.7062 5 6.06979V22.733C5 26.25 8.22945 28.3312 13.6925 28.3312ZM13.6925 26.0501C9.4653 26.0501 7.27155 24.7432 7.27155 22.5351V6.18721C7.27155 5.81057 7.36764 5.5033 7.55983 5.23236C8.94006 6.24135 11.1844 6.78534 13.6925 6.78534C16.2027 6.78534 18.4449 6.24135 19.8252 5.23236C20.0195 5.5033 20.1155 5.81057 20.1155 6.18721V22.5351C20.1155 24.7432 17.9218 26.0501 13.6925 26.0501ZM13.6925 3.08669C16.4192 3.08669 18.6315 2.40184 18.6315 1.54544C18.6315 0.706137 16.4192 0.0137939 13.6925 0.0137939C10.9679 0.0137939 8.75562 0.706137 8.75562 1.54544C8.75562 2.40184 10.9679 3.08669 13.6925 3.08669Z" fill="black"/>
</svg>
