<svg width="28" height="28" viewBox="0 0 28 28" fill="none" xmlns="http://www.w3.org/2000/svg">
<path d="M8.21546 24.8003H20.7313C25.6171 24.8003 27.9468 22.4802 27.9468 17.6137V11.1866C27.9468 6.32008 25.6171 4 20.7313 4H8.21546C3.3393 4 1 6.32008 1 11.1866V17.6137C1 22.4802 3.3393 24.8003 8.21546 24.8003ZM8.21546 22.5044C4.82241 22.5044 3.29592 20.9875 3.29592 17.6137V11.1866C3.29592 7.8128 4.82241 6.29592 8.21546 6.29592H20.7313C24.134 6.29592 25.6509 7.8128 25.6509 11.1866V17.6137C25.6509 20.9875 24.134 22.5044 20.7313 22.5044H8.21546ZM2.15382 12.0869H26.793V10.8484H2.15382V12.0869ZM9.73421 12.8976H19.2222C20.0594 12.8976 20.6601 12.3128 20.6601 11.4639C20.6601 10.6246 20.0594 10.0377 19.2222 10.0377H9.73421C8.92257 10.0377 8.28671 10.6246 8.28671 11.4639C8.28671 12.3128 8.92257 12.8976 9.73421 12.8976ZM14.4744 16.9612C15.1166 16.9494 15.6449 16.4212 15.6449 15.812C15.6449 15.1698 15.1166 14.6394 14.4744 14.6394C13.8344 14.6394 13.3115 15.1698 13.3115 15.812C13.3115 16.4425 13.8344 16.975 14.4744 16.9612Z" fill="black"/>
</svg>
