<svg width="29" height="29" viewBox="0 0 29 29" fill="none" xmlns="http://www.w3.org/2000/svg">
<path d="M2.92101 23.3053H25.5131C27.344 23.3053 28.4437 22.2056 28.4437 20.3747V6.25641C28.4437 4.42759 27.344 3.33752 25.5131 3.33752H16.9167V5.58282H25.3863C25.883 5.58282 26.1963 5.88657 26.1963 6.39493V17.3887C26.1963 17.7532 26.0344 17.88 25.6955 17.88H2.73866C2.39764 17.88 2.24741 17.7532 2.24741 17.3887V6.39493C2.24741 5.88657 2.56077 5.58282 3.05741 5.58282H11.527V3.33752H2.92101C1.09968 3.33752 0 4.42759 0 6.25641V20.3747C0 22.2056 1.09968 23.3053 2.92101 23.3053ZM10.4006 25.9847H18.0431V23.0665H10.4006V25.9847ZM10.343 27.5414H18.1008C18.6839 27.5414 19.1564 27.0583 19.1564 26.4783C19.1564 25.8982 18.6839 25.4173 18.1008 25.4173H10.343C9.75984 25.4173 9.27773 25.8982 9.27773 26.4783C9.27773 27.0583 9.75984 27.5414 10.343 27.5414Z" fill="black"/>
<path d="M13.2304 0.982963V10.1496L13.3476 12.4134L11.3113 10.098L10.6527 9.46289C10.4675 9.27984 10.2165 9.165 9.92918 9.165C9.38449 9.165 8.99731 9.5639 8.99731 10.1011C8.99731 10.3851 9.09199 10.6235 9.28465 10.8066L13.4118 14.9571C13.6658 15.2091 13.9454 15.3494 14.2218 15.3494C14.4864 15.3494 14.7777 15.2091 15.02 14.9571L19.1589 10.8066C19.3419 10.6235 19.4462 10.3851 19.4462 10.1011C19.4462 9.5639 19.0494 9.165 18.5047 9.165C18.227 9.165 17.9685 9.27773 17.7812 9.46289L17.1322 10.098L15.0864 12.4134L15.2014 10.1496V0.982963C15.2014 0.386013 14.7461 0 14.2218 0C13.6975 0 13.2304 0.386013 13.2304 0.982963Z" fill="black"/>
</svg>
