<svg width="32" height="28" viewBox="0 0 32 28" fill="none" xmlns="http://www.w3.org/2000/svg">
<path d="M0 10.6729C0 13.7873 1.30266 16.7322 3.52968 18.7708C4.38867 19.5658 5.28281 20.0868 6.57164 20.3828C6.31641 19.5698 6.16407 18.767 6.09985 17.9041C5.58867 17.6983 5.16937 17.4231 4.7639 17.0327C3.05155 15.3798 2.07913 13.0935 2.07913 10.6729C2.07913 8.96826 2.56335 7.31263 3.65601 5.84567C5.02124 6.76818 6.97336 7.21373 9.35649 7.33607C10.0369 6.54974 10.8014 5.81733 11.5718 5.28741C11.3135 5.31624 11.0456 5.31624 10.7468 5.31624C7.48405 5.31624 5.68171 4.68624 4.28601 3.68733C3.62085 3.26265 2.87015 3.33741 2.38711 3.96506C0.86086 5.76131 0 8.14818 0 10.6729ZM19.44 27.2354C23.7593 27.2354 25.6219 26.6816 27.3801 25.0468C29.8319 22.8123 31.2581 19.5756 31.2581 16.1619C31.2581 13.4254 30.3515 10.7807 28.6345 8.7885C28.1079 8.10553 27.2901 8.02866 26.5622 8.47561C25.0512 9.5535 23.0163 10.2611 19.44 10.2611C15.8658 10.2611 13.8309 9.5535 12.3199 8.47561C11.5919 8.02866 10.7646 8.10553 10.2476 8.7885C8.53054 10.7807 7.61437 13.4254 7.61437 16.1619C7.61437 19.5756 9.05015 22.8123 11.4923 25.0468C13.2506 26.6816 15.1228 27.2354 19.44 27.2354ZM19.44 24.9522C15.7324 24.9522 14.3461 24.5898 13.0472 23.373C11.0388 21.5265 9.89553 18.9332 9.89553 16.1619C9.89553 13.9933 10.5874 11.9385 12.1983 9.99224L10.999 10.4701C12.9712 11.9181 15.9837 12.5422 19.44 12.5422C22.8984 12.5422 25.9108 11.9181 27.8735 10.4701L26.6838 9.99224C28.2947 11.9385 28.9769 13.9933 28.9769 16.1619C28.9769 18.9332 27.8412 21.5265 25.8349 23.373C24.536 24.5898 23.138 24.9522 19.44 24.9522Z" fill="black"/>
<path d="M10.7552 3.81343C13.7051 3.81343 15.8184 3.23897 15.8184 2.42968C15.8184 1.62249 13.7093 1.05975 10.7552 1.05975C7.83187 1.05975 5.73022 1.62249 5.73022 2.42968C5.73022 3.23897 7.83398 3.81343 10.7552 3.81343ZM19.44 8.61131C22.7041 8.61131 25.0209 7.97826 25.0209 7.09655C25.0209 6.21272 22.7083 5.5935 19.44 5.5935C16.1948 5.5935 13.8801 6.21272 13.8801 7.09655C13.8801 7.97826 16.1969 8.61131 19.44 8.61131Z" fill="black"/>
</svg>
