<svg width="28" height="28" viewBox="0 0 28 28" fill="none" xmlns="http://www.w3.org/2000/svg">
<path d="M10.8077 3.00033C8.12414 3.02588 6 4.81158 6 7.83994C6 10.4171 7.4918 12.2724 9.48867 13.4363C10.3612 13.937 11.318 14.2885 12.7931 14.5133C12.5344 13.902 12.3874 13.212 12.3874 12.4635C12.3874 9.8333 14.547 7.48417 17.2038 7.0187C17.0203 6.61112 16.8401 6.32846 16.6427 6.07463C15.1608 3.97815 12.8761 2.97901 10.8077 3.00033ZM10.1768 8.1015L8.52047 6.71377C8.25328 6.49556 8.23734 6.11658 8.45133 5.859C8.66953 5.58338 9.05273 5.55244 9.31031 5.76853L10.9634 7.15627C11.2305 7.37236 11.2636 7.74924 11.0517 8.02064C10.8356 8.29205 10.4365 8.32181 10.1768 8.1015ZM12.5491 24.1906C13.3601 24.1906 13.8954 23.7523 13.8954 22.952V16.047C12.5901 15.9545 11.4178 15.6917 10.2783 15.2103V22.952C10.2783 23.7523 10.8019 24.1906 11.6107 24.1906H12.5491Z" fill="black"/>
<path d="M17.176 15.9821C19.377 15.9821 21.5619 14.2295 21.5619 11.6549C21.5619 9.8544 20.2759 8.17346 18.137 8.17346C15.6168 8.17346 13.6318 10.3454 13.6318 12.4635C13.6318 14.7664 15.2521 15.9821 17.176 15.9821ZM17.7219 14.1545C17.36 13.8479 17.5674 13.2474 18.2523 12.3835C18.9596 11.525 19.5378 11.21 19.9156 11.5421C20.2775 11.8424 20.0659 12.4546 19.3756 13.3013C18.6779 14.1481 18.0838 14.4727 17.7219 14.1545Z" fill="black"/>
</svg>
