<svg width="29" height="28" viewBox="0 0 29 28" fill="none" xmlns="http://www.w3.org/2000/svg">
<path d="M0 15.2794C0 19.8841 2.4757 22.0408 7.86023 22.2462C7.82929 21.8294 7.80586 21.4169 7.80586 20.9756V10.4742C7.80586 7.71586 8.58351 5.60813 10.1152 4.14587C9.67593 4.19602 9.22077 4.20563 8.76023 4.20563C6.10429 4.20563 3.53202 3.46032 2.37515 2.6154C1.93734 2.33555 1.45664 2.40235 1.17141 2.78414C0.414845 3.74578 0 5.17594 0 7.05211V15.2794ZM19.1716 27.7783C25.8079 27.7783 28.8436 25.4161 28.8436 20.0777V11.0037C28.8436 8.92711 28.3551 7.37133 27.5454 6.28289C27.2346 5.86383 26.6911 5.79821 26.2268 6.11532C24.971 7.08282 22.095 7.8654 19.1716 7.8654C16.2483 7.8654 13.3722 7.08282 12.1261 6.11532C11.6522 5.79821 11.1183 5.86383 10.8075 6.28289C9.98812 7.37133 9.5114 8.92711 9.5114 11.0037V20.0777C9.5114 25.4161 12.5353 27.7783 19.1716 27.7783Z" fill="black"/>
<path d="M8.76864 2.74406C11.6034 2.74406 13.7243 2.16961 13.7243 1.37203C13.7243 0.555235 11.6055 0 8.76864 0C5.9245 0 3.79614 0.555235 3.79614 1.37203C3.79614 2.16961 5.92661 2.74406 8.76864 2.74406ZM19.1611 6.24938C22.2213 6.24938 24.6438 5.61844 24.6438 4.73672C24.6438 3.83367 22.2234 3.21445 19.1611 3.21445C16.1294 3.21445 13.709 3.83367 13.709 4.73672C13.709 5.61844 16.1315 6.24938 19.1611 6.24938Z" fill="black"/>
</svg>
