<svg width="28" height="28" viewBox="0 0 28 28" fill="none" xmlns="http://www.w3.org/2000/svg">
<path d="M15.6935 16.2084C17.3754 15.4809 18.1711 13.5529 17.4436 11.8869L15.0649 6.45202C14.3182 4.76686 12.4019 3.98077 10.7243 4.69233C9.05836 5.41561 8.26055 7.37124 8.98594 9.02335L11.3742 14.4604C12.0996 16.105 14.0318 16.9178 15.6935 16.2084ZM14.4783 15.2369C13.3247 15.2369 12.4151 14.3252 12.4151 13.1833C12.4151 12.0489 13.3247 11.1297 14.4783 11.1297C15.6084 11.1297 16.5202 12.0489 16.5202 13.1833C16.5202 14.3252 15.6223 15.2369 14.4783 15.2369ZM14.4783 14.3437C15.1294 14.3437 15.627 13.8247 15.627 13.1833C15.627 12.5493 15.1294 12.0229 14.4783 12.0229C13.8038 12.0229 13.3083 12.5493 13.3083 13.1833C13.3083 13.8247 13.8038 14.3437 14.4783 14.3437ZM4.2593 12.7061C3.36984 15.7633 4.81641 18.5924 7.86609 19.7887L10.0978 20.6718C13.8977 22.1575 17.6276 21.2807 19.0957 17.1864C19.8853 15.021 19.6898 13.1387 18.6919 11.8454C19.4121 14.0017 18.3321 16.3844 16.1801 17.3294C13.9041 18.2847 11.265 17.2335 10.2628 14.9512L7.87664 9.51413C7.74774 9.23709 7.6561 8.96967 7.5975 8.67881C6.3232 9.74006 4.85273 10.7115 4.2593 12.7061Z" fill="black"/>
<path d="M20.2424 17.6026C19.4019 19.9504 17.8306 21.513 15.8291 22.1807C16.7124 22.9724 17.8454 23.418 19.1588 23.418C22.0541 23.418 24.4039 21.0681 24.4039 18.1591C24.4039 15.7588 22.8277 13.7601 20.6246 13.1371C20.9272 14.6324 20.7974 16.0963 20.2424 17.6026Z" fill="black"/>
<path d="M14.4783 15.2369C13.3246 15.2369 12.415 14.3252 12.415 13.1833C12.415 12.0489 13.3246 11.1297 14.4783 11.1297C15.6084 11.1297 16.5202 12.0489 16.5202 13.1833C16.5202 14.3252 15.6223 15.2369 14.4783 15.2369ZM14.4783 14.3437C15.1294 14.3437 15.627 13.8247 15.627 13.1833C15.627 12.5493 15.1294 12.0229 14.4783 12.0229C13.8037 12.0229 13.3082 12.5493 13.3082 13.1833C13.3082 13.8247 13.8037 14.3437 14.4783 14.3437Z" fill="white"/>
</svg>
