<svg width="39" height="28" viewBox="0 0 39 28" fill="none" xmlns="http://www.w3.org/2000/svg">
<path d="M13.825 22.2337V5.40713H25.1334V22.2337H13.825ZM19.4958 25.3457C18.8932 25.3457 18.4045 24.857 18.4045 24.2523C18.4045 23.6615 18.8932 23.1749 19.4958 23.1749C20.0866 23.1749 20.5753 23.6615 20.5753 24.2523C20.5753 24.857 20.0866 25.3457 19.4958 25.3457ZM17.1035 3.27433C17.1035 2.97316 17.3142 2.77417 17.6036 2.77417H21.3623C21.6635 2.77417 21.8646 2.97316 21.8646 3.27433C21.8646 3.57761 21.6635 3.76276 21.3623 3.76276H17.6036C17.3142 3.76276 17.1035 3.57761 17.1035 3.27433Z" fill="white"/>
<path d="M11.5291 23.4104C11.5291 25.3483 12.8803 26.6408 14.9001 26.6408H24.1089C26.0993 26.6408 27.4293 25.3483 27.4293 23.4083V4.23249C27.4293 2.29258 26.0993 1 24.1089 1H14.9001C12.8803 1 11.5291 2.29258 11.5291 4.23038V23.4104ZM13.825 22.2337V5.40717H25.1334V22.2337H13.825ZM19.4958 25.3457C18.8932 25.3457 18.4045 24.857 18.4045 24.2523C18.4045 23.6615 18.8932 23.1749 19.4958 23.1749C20.0866 23.1749 20.5753 23.6615 20.5753 24.2523C20.5753 24.857 20.0866 25.3457 19.4958 25.3457ZM17.1035 3.27437C17.1035 2.9732 17.3142 2.77421 17.6036 2.77421H21.3623C21.6635 2.77421 21.8646 2.9732 21.8646 3.27437C21.8646 3.57765 21.6635 3.7628 21.3623 3.7628H17.6036C17.3142 3.7628 17.1035 3.57765 17.1035 3.27437Z" fill="black"/>
<path d="M8.06 18.4762C8.44766 18.0205 8.29953 17.4552 7.91188 16.9281C7.26359 16.1083 6.92164 14.9833 6.92164 13.8257C6.92164 12.6681 7.26359 11.5314 7.91188 10.719C8.29742 10.194 8.44766 9.6308 8.06 9.17307C7.64797 8.68135 6.87735 8.67291 6.4018 9.24666C5.39704 10.4659 4.83008 12.0883 4.83008 13.8257C4.83008 15.5631 5.39704 17.1855 6.4018 18.4005C6.87735 18.9763 7.64797 18.9583 8.06 18.4762ZM30.8911 18.4762C31.3032 18.9583 32.0738 18.9763 32.5493 18.4005C33.5562 17.1855 34.1307 15.5631 34.1307 13.8257C34.1307 12.0883 33.5562 10.4659 32.5493 9.24666C32.0738 8.67291 31.3032 8.68135 30.8911 9.17307C30.5035 9.6308 30.6633 10.194 31.0393 10.719C31.6876 11.5314 32.0391 12.6681 32.0391 13.8257C32.0391 14.9833 31.6876 16.1083 31.0393 16.9281C30.6612 17.4552 30.5035 18.0205 30.8911 18.4762Z" fill="black"/>
<path d="M4.64156 21.835C5.03976 21.3751 4.91624 20.7843 4.47117 20.2806C2.94515 18.5873 2.09156 16.3136 2.09156 13.8257C2.09156 11.3399 2.94304 9.06412 4.47117 7.37287C4.91835 6.8692 5.04398 6.27834 4.64156 5.8185C4.23281 5.331 3.51539 5.31319 2.99836 5.87498C1.09313 7.93163 0 10.7842 0 13.8257C0 16.8714 1.0636 19.6954 2.99836 21.7785C3.51961 22.3382 4.23492 22.315 4.64156 21.835ZM34.3094 21.835C34.716 22.315 35.4313 22.3382 35.9622 21.7785C37.8991 19.6954 38.951 16.8714 38.951 13.8257C38.951 10.7842 37.8695 7.93163 35.9622 5.87498C35.4377 5.31319 34.7203 5.331 34.3094 5.8185C33.9091 6.27834 34.0326 6.8692 34.4798 7.37287C36.01 9.06623 36.8594 11.3399 36.8594 13.8257C36.8594 16.3136 36.0058 18.5873 34.4798 20.2806C34.0368 20.7843 33.9112 21.3751 34.3094 21.835Z" fill="black"/>
</svg>
