<svg width="34" height="28" viewBox="0 0 34 28" fill="none" xmlns="http://www.w3.org/2000/svg">
<path d="M3.23108 22.038H19.2197V19.7969H3.36327C2.58631 19.7969 2.24108 19.4815 2.24108 18.6844V5.4335C2.24108 4.62678 2.58631 4.32092 3.36327 4.32092H26.4185C27.188 4.32092 27.5311 4.62678 27.5311 5.4335V9.00935H29.7743V5.30131C29.7743 3.13663 28.6769 2.07984 26.5528 2.07984H3.23108C1.10695 2.07984 0 3.13663 0 5.30131V18.8069C0 20.9812 1.10695 22.038 3.23108 22.038ZM8.31069 26.1372H19.3807C19.2464 25.6015 19.2197 24.9879 19.2197 24.0131H8.31069C7.71796 24.0131 7.24546 24.4961 7.24546 25.0762C7.24546 25.6563 7.71796 26.1372 8.31069 26.1372Z" fill="black"/>
<path d="M23.6681 27.4106H31.3338C33.0504 27.4106 33.9574 26.5132 33.9574 24.7678V13.4887C33.9574 11.7433 33.0504 10.8363 31.3338 10.8363H23.6681C21.9248 10.8363 21.0466 11.7433 21.0466 13.4887V24.7678C21.0466 26.5132 21.9248 27.4106 23.6681 27.4106ZM27.4924 25.2904C25.5044 25.2904 23.9266 23.6934 23.9266 21.7054C23.9266 19.7036 25.5044 18.1183 27.4924 18.1066C29.4687 18.0949 31.0795 19.7036 31.0795 21.7054C31.0795 23.6934 29.4687 25.2904 27.4924 25.2904ZM27.502 17.0238C26.3622 17.0238 25.443 16.1109 25.4526 14.9573C25.4622 13.8154 26.3622 12.9197 27.502 12.9175C28.646 12.9154 29.5493 13.8154 29.5493 14.9573C29.5493 16.1109 28.646 17.0238 27.502 17.0238ZM27.4924 23.1147C28.2855 23.1147 28.923 22.4868 28.923 21.7054C28.923 20.8793 28.2972 20.261 27.4924 20.261C26.7089 20.261 26.0831 20.8793 26.0831 21.7054C26.0831 22.4868 26.7089 23.1147 27.4924 23.1147ZM27.4924 15.8892C28.0052 15.8892 28.4147 15.4797 28.4147 14.9573C28.4147 14.4349 28.0052 14.0425 27.4924 14.0425C26.9934 14.0425 26.5797 14.4562 26.5797 14.9573C26.5797 15.4797 26.9817 15.8892 27.4924 15.8892Z" fill="black"/>
<path d="M27.4923 25.2904C25.5043 25.2904 23.9265 23.6934 23.9265 21.7054C23.9265 19.7036 25.5043 18.1183 27.4923 18.1066C29.4686 18.0949 31.0794 19.7036 31.0794 21.7054C31.0794 23.6934 29.4686 25.2904 27.4923 25.2904ZM27.5019 17.0238C26.3621 17.0238 25.4429 16.1109 25.4525 14.9573C25.4621 13.8154 26.3621 12.9197 27.5019 12.9175C28.6459 12.9154 29.5492 13.8154 29.5492 14.9573C29.5492 16.1109 28.6459 17.0238 27.5019 17.0238ZM27.4923 23.1147C28.2854 23.1147 28.9229 22.4868 28.9229 21.7054C28.9229 20.8793 28.2971 20.261 27.4923 20.261C26.7088 20.261 26.083 20.8793 26.083 21.7054C26.083 22.4868 26.7088 23.1147 27.4923 23.1147ZM27.4923 15.8892C28.0051 15.8892 28.4146 15.4797 28.4146 14.9573C28.4146 14.4349 28.0051 14.0425 27.4923 14.0425C26.9933 14.0425 26.5796 14.4562 26.5796 14.9573C26.5796 15.4797 26.9816 15.8892 27.4923 15.8892Z" fill="white"/>
</svg>
