<svg width="41" height="28" viewBox="0 0 41 28" fill="none" xmlns="http://www.w3.org/2000/svg">
<path d="M8.28623 16.6491C9.87553 17.3234 11.7118 16.5554 12.4021 14.9832L14.6807 9.80819C15.3709 8.23811 14.6104 6.36874 13.0168 5.68062C11.4233 5.01171 9.60084 5.75304 8.88928 7.35616L6.6203 12.5312C5.92795 14.1247 6.6885 15.9568 8.28623 16.6491ZM9.45248 15.7245C8.36709 15.7245 7.50436 14.8597 7.50436 13.7668C7.50436 12.6814 8.37881 11.8112 9.45248 11.8112C10.5475 11.8112 11.4081 12.6814 11.4081 13.7668C11.4081 14.8597 10.5475 15.7245 9.45248 15.7245ZM9.45248 14.8707C10.0918 14.8707 10.5543 14.3848 10.5543 13.7668C10.5543 13.168 10.0918 12.665 9.45248 12.665C8.83444 12.665 8.35819 13.168 8.35819 13.7668C8.35819 14.3848 8.83444 14.8707 9.45248 14.8707ZM19.175 13.313C18.605 11.4123 17.2049 10.4876 15.9988 9.47538C15.9402 9.75241 15.8582 10.0081 15.741 10.2734L13.4624 15.4505C12.5071 17.6136 9.99155 18.6254 7.82311 17.7169C5.77655 16.8113 4.75514 14.5416 5.43694 12.4908C4.49124 13.7255 4.30538 15.5183 5.05022 17.5803C6.44803 21.4775 10.0021 22.3107 13.6199 20.8974L15.7461 20.0633C18.6414 18.916 20.0272 16.2179 19.175 13.313ZM32.0821 16.6491C33.6702 15.9568 34.4404 14.1247 33.748 12.5312L31.479 7.35616C30.7675 5.75304 28.945 5.01171 27.3514 5.68062C25.7579 6.36874 24.9974 8.23811 25.6876 9.80819L27.9662 14.9832C28.6564 16.5554 30.4928 17.3234 32.0821 16.6491ZM30.9158 15.7245C29.8208 15.7245 28.9602 14.8597 28.9602 13.7668C28.9602 12.6814 29.8208 11.8112 30.9158 11.8112C31.9895 11.8112 32.8639 12.6814 32.8639 13.7668C32.8639 14.8597 32.0012 15.7245 30.9158 15.7245ZM30.9158 14.8707C31.5339 14.8707 32.0101 14.3848 32.0101 13.7668C32.0101 13.168 31.5339 12.665 30.9158 12.665C30.2786 12.665 29.8044 13.168 29.8044 13.7668C29.8044 14.3848 30.2786 14.8707 30.9158 14.8707ZM21.1836 13.313C20.3411 16.2179 21.7173 18.916 24.6222 20.0633L26.7484 20.8974C30.3662 22.3107 33.9203 21.4775 35.3085 17.5803C36.0629 15.5183 35.8771 13.7255 34.9314 12.4908C35.6132 14.5416 34.5918 16.8113 32.5356 17.7169C30.3768 18.6254 27.8612 17.6136 26.9059 15.4505L24.6273 10.2734C24.5101 10.0081 24.4281 9.75241 24.3695 9.47538C23.1538 10.4876 21.7632 11.4123 21.1836 13.313Z" fill="black"/>
<path d="M3.96445 17.9731C3.43289 16.535 3.30516 15.1435 3.59602 13.7206C1.50797 14.3159 0 16.223 0 18.4965C0 21.2724 2.23266 23.5147 4.98515 23.5147C6.24 23.5147 7.31859 23.083 8.16469 22.336C6.25898 21.6917 4.76016 20.2037 3.96445 17.9731ZM36.404 17.9731C35.5987 20.2037 34.1095 21.6917 32.2038 22.336C33.0499 23.083 34.1285 23.5147 35.3833 23.5147C38.1358 23.5147 40.3685 21.2724 40.3685 18.4965C40.3685 16.223 38.8605 14.3159 36.7725 13.7206C37.0633 15.1435 36.926 16.535 36.404 17.9731Z" fill="black"/>
<path d="M9.45251 15.7245C8.36712 15.7245 7.50439 14.8597 7.50439 13.7668C7.50439 12.6814 8.37884 11.8112 9.45251 11.8112C10.5475 11.8112 11.4081 12.6814 11.4081 13.7668C11.4081 14.8597 10.5475 15.7245 9.45251 15.7245ZM9.45251 14.8707C10.0918 14.8707 10.5543 14.3848 10.5543 13.7668C10.5543 13.1679 10.0918 12.665 9.45251 12.665C8.83447 12.665 8.35822 13.1679 8.35822 13.7668C8.35822 14.3848 8.83447 14.8707 9.45251 14.8707ZM30.9158 15.7245C29.8208 15.7245 28.9602 14.8597 28.9602 13.7668C28.9602 12.6814 29.8208 11.8112 30.9158 11.8112C31.9895 11.8112 32.8639 12.6814 32.8639 13.7668C32.8639 14.8597 32.0012 15.7245 30.9158 15.7245ZM30.9158 14.8707C31.5339 14.8707 32.0101 14.3848 32.0101 13.7668C32.0101 13.1679 31.5339 12.665 30.9158 12.665C30.2786 12.665 29.8044 13.1679 29.8044 13.7668C29.8044 14.3848 30.2786 14.8707 30.9158 14.8707Z" fill="white"/>
</svg>
