<svg width="28" height="28" viewBox="0 0 28 28" fill="none" xmlns="http://www.w3.org/2000/svg">
<path d="M22.2338 19.6043H5.40518V8.2959H22.2338V19.6043ZM25.3437 13.9432C25.3437 14.5457 24.8646 15.0344 24.2524 15.0344C23.6616 15.0344 23.1729 14.5457 23.1729 13.9432C23.1729 13.3406 23.6616 12.8636 24.2524 12.8636C24.8646 12.8636 25.3437 13.3406 25.3437 13.9432ZM3.27449 16.3258C2.97332 16.3258 2.78394 16.1226 2.78394 15.8332V12.0649C2.78394 11.7754 2.97332 11.5743 3.27449 11.5743C3.57566 11.5743 3.77253 11.7754 3.77253 12.0649V15.8332C3.77253 16.1226 3.57566 16.3258 3.27449 16.3258Z" fill="white"/>
<path d="M23.4104 21.9002C25.3461 21.9002 26.6483 20.5469 26.6483 18.5292V9.32039C26.6483 7.33008 25.3461 6 23.4083 6H4.23038C2.29258 6 1 7.33008 1 9.32039V18.5292C1 20.5469 2.29258 21.9002 4.22827 21.9002H23.4104ZM22.2337 19.6043H5.40506V8.29592H22.2337V19.6043ZM25.3436 13.9432C25.3436 14.5458 24.8645 15.0344 24.2523 15.0344C23.6615 15.0344 23.1728 14.5458 23.1728 13.9432C23.1728 13.3406 23.6615 12.8637 24.2523 12.8637C24.8645 12.8637 25.3436 13.3406 25.3436 13.9432ZM3.27437 16.3258C2.9732 16.3258 2.78382 16.1226 2.78382 15.8332V12.0649C2.78382 11.7755 2.9732 11.5744 3.27437 11.5744C3.57554 11.5744 3.77241 11.7755 3.77241 12.0649V15.8332C3.77241 16.1226 3.57554 16.3258 3.27437 16.3258Z" fill="black"/>
</svg>
