<svg width="28" height="28" viewBox="0 0 28 28" fill="none" xmlns="http://www.w3.org/2000/svg">
<path d="M14.105 26.21C20.7369 26.21 26.2121 20.7273 26.2121 14.105C26.2121 7.47312 20.7273 2 14.0954 2C7.47523 2 2 7.47312 2 14.105C2 20.7273 7.48484 26.21 14.105 26.21ZM14.105 23.8255C8.71085 23.8255 4.39412 19.4991 4.39412 14.105C4.39412 8.71085 8.70124 4.38452 14.0954 4.38452C19.4895 4.38452 23.8276 8.71085 23.8276 14.105C23.8276 19.4991 19.4991 23.8255 14.105 23.8255Z" fill="black"/>
<path d="M7.81055 17.9016C7.81055 18.3012 8.12274 18.6038 8.52235 18.6038H9.15423C9.54634 18.6038 9.8543 18.3012 9.8543 17.9016V17.0077C11.0191 17.078 12.7293 17.1366 14.1049 17.1366C15.4826 17.1366 17.1811 17.0802 18.3501 17.0077V17.9016C18.3501 18.3012 18.6581 18.6038 19.0598 18.6038H19.6896C20.0817 18.6038 20.3897 18.3012 20.3897 17.9016V14.8212C20.3897 13.921 20.2233 13.4054 19.7257 12.7702L19.2708 12.1969C19.0683 11.2484 18.7272 10.2573 18.5557 9.87147C18.2648 9.26421 17.7065 8.90843 16.9863 8.80718C16.6167 8.75819 15.4826 8.73265 14.1049 8.73265C12.7218 8.73265 11.5973 8.75819 11.2181 8.80718C10.5075 8.89882 9.94712 9.26421 9.65837 9.87147C9.4772 10.2573 9.13618 11.2484 8.94329 12.1969L8.47665 12.7702C7.98868 13.4054 7.81055 13.921 7.81055 14.8212V17.9016ZM12.1861 13.355C12.1861 13.2805 12.2137 13.208 12.2723 13.1398L14.5793 10.2294C14.8104 9.93218 15.1767 10.126 15.0436 10.4785L14.3486 12.3406H15.7713C15.9161 12.3406 16.0279 12.4503 16.0279 12.5951C16.0279 12.658 15.9832 12.74 15.9438 12.8028L13.6561 15.7091C13.4229 16.0062 13.0352 15.8028 13.1704 15.4503L13.8654 13.5786H12.4448C12.2979 13.5786 12.1861 13.4806 12.1861 13.355Z" fill="black"/>
</svg>
