<svg width="28" height="28" viewBox="0 0 28 28" fill="none" xmlns="http://www.w3.org/2000/svg">
<path d="M7 24.5833C7 26.2841 8.11562 27.3487 9.91444 27.3487H17.3659C19.1626 27.3487 20.2783 26.2841 20.2783 24.5833V3.76749C20.2783 2.07625 19.1626 1 17.3659 1H9.91444C8.11562 1 7 2.07625 7 3.76749V24.5833ZM9.14358 24.2739V4.07475C9.14358 3.48178 9.53709 3.1117 10.179 3.1117H17.0992C17.7508 3.1117 18.1347 3.48178 18.1347 4.07475V24.2739C18.1347 24.869 17.7508 25.237 17.0992 25.237H10.179C9.53709 25.237 9.14358 24.869 9.14358 24.2739ZM13.6508 12.4152C15.654 12.4152 17.2811 10.7786 17.2811 8.78499C17.2811 6.78178 15.654 5.14514 13.6508 5.14514C11.6476 5.14514 10.011 6.78178 10.011 8.78499C10.011 10.7786 11.6476 12.4152 13.6508 12.4152ZM13.6508 10.2269C12.8441 10.2269 12.1994 9.57999 12.1994 8.78499C12.1994 7.97827 12.8441 7.3335 13.6508 7.3335C14.4555 7.3335 15.0927 7.97827 15.0927 8.78499C15.0927 9.57999 14.4555 10.2269 13.6508 10.2269ZM13.6508 16.443C14.3966 16.443 15.0039 15.8357 15.0039 15.0878C15.0039 14.3324 14.3966 13.7251 13.6508 13.7251C12.8933 13.7251 12.2765 14.3324 12.2765 15.0878C12.2765 15.8357 12.8933 16.443 13.6508 16.443Z" fill="black"/>
</svg>
