<svg width="28" height="28" viewBox="0 0 28 28" fill="none" xmlns="http://www.w3.org/2000/svg">
<path d="M8.2959 22.2337V5.40712H19.6043V22.2337H8.2959ZM13.9666 25.3457C13.364 25.3457 12.8754 24.857 12.8754 24.2523C12.8754 23.6615 13.364 23.1749 13.9666 23.1749C14.5575 23.1749 15.0461 23.6615 15.0461 24.2523C15.0461 24.857 14.5575 25.3457 13.9666 25.3457ZM13.9666 3.9376C13.5525 3.9376 13.2171 3.6001 13.2171 3.18596C13.2171 2.78354 13.5525 2.45776 13.9666 2.45776C14.369 2.45776 14.6948 2.78354 14.6948 3.18596C14.6948 3.6001 14.369 3.9376 13.9666 3.9376Z" fill="white"/>
<path d="M6 23.4104C6 25.3483 7.35117 26.6408 9.37101 26.6408H18.5798C20.5701 26.6408 21.9002 25.3483 21.9002 23.4083V4.23249C21.9002 2.29258 20.5701 1 18.5798 1H9.37101C7.35117 1 6 2.29258 6 4.23038V23.4104ZM8.29592 22.2337V5.40717H19.6043V22.2337H8.29592ZM13.9666 25.3457C13.364 25.3457 12.8754 24.857 12.8754 24.2523C12.8754 23.6615 13.364 23.1749 13.9666 23.1749C14.5575 23.1749 15.0462 23.6615 15.0462 24.2523C15.0462 24.857 14.5575 25.3457 13.9666 25.3457ZM13.9666 3.93765C13.5525 3.93765 13.2171 3.60015 13.2171 3.18601C13.2171 2.78359 13.5525 2.45781 13.9666 2.45781C14.369 2.45781 14.6948 2.78359 14.6948 3.18601C14.6948 3.60015 14.369 3.93765 13.9666 3.93765Z" fill="black"/>
</svg>
