<svg width="28" height="28" viewBox="0 0 28 28" fill="none" xmlns="http://www.w3.org/2000/svg">
<path d="M13.8256 24.7837C18.1428 24.7837 20.0075 24.2299 21.7658 22.5951C24.2154 20.3606 25.6416 17.126 25.6416 13.7006C25.6416 10.9641 24.7372 8.32898 23.018 6.33679C22.4935 5.65383 21.6758 5.56734 20.9478 6.0239C19.4368 7.10179 17.4019 7.79976 13.8256 7.79976C10.2397 7.79976 8.20694 7.10179 6.70554 6.0239C5.97546 5.56734 5.14812 5.65383 4.62359 6.33679C2.91406 8.32898 2 10.9641 2 13.7006C2 17.126 3.42617 20.3606 5.87586 22.5951C7.63413 24.2299 9.49882 24.7837 13.8256 24.7837ZM13.8256 22.5005C10.118 22.5005 8.7296 22.1381 7.42319 20.9212C5.41483 19.0748 4.28116 16.4719 4.28116 13.7006C4.28116 11.5416 4.96342 9.48678 6.58389 7.54054L5.3825 8.01842C7.34726 9.45678 10.3693 10.0809 13.8256 10.0809C17.2723 10.0809 20.2944 9.45678 22.2591 8.01842L21.0598 7.54054C22.6782 9.48678 23.3605 11.5416 23.3605 13.7006C23.3605 16.4719 22.2268 19.0748 20.2184 20.9212C18.9216 22.1381 17.5236 22.5005 13.8256 22.5005Z" fill="black"/>
<path d="M13.8257 6.1596C17.0899 6.1596 19.397 5.52655 19.397 4.64483C19.397 3.7514 17.092 3.14178 13.8257 3.14178C10.5688 3.14178 8.26587 3.7514 8.26587 4.64483C8.26587 5.52655 10.5709 6.1596 13.8257 6.1596Z" fill="black"/>
</svg>
