<svg width="28" height="28" viewBox="0 0 28 28" fill="none" xmlns="http://www.w3.org/2000/svg">
<path d="M14.105 26.21C20.7369 26.21 26.2121 20.7273 26.2121 14.105C26.2121 7.47312 20.7273 2 14.0954 2C7.47523 2 2 7.47312 2 14.105C2 20.7273 7.48484 26.21 14.105 26.21ZM14.105 23.8255C8.71085 23.8255 4.39412 19.4991 4.39412 14.105C4.39412 8.71085 8.70124 4.38452 14.0954 4.38452C19.4895 4.38452 23.8276 8.71085 23.8276 14.105C23.8276 19.4991 19.4991 23.8255 14.105 23.8255Z" fill="black"/>
<path d="M9.62842 19.5795C9.62842 20.6853 10.4091 21.4384 11.5618 21.4384H16.6503C17.803 21.4384 18.5816 20.6853 18.5816 19.5795V8.62629C18.5816 7.52051 17.803 6.76746 16.6503 6.76746H11.5618C10.4091 6.76746 9.62842 7.52051 9.62842 8.62629V19.5795ZM10.8865 18.976V9.2298H17.3255V18.976H10.8865ZM14.1188 20.6855C13.7928 20.6855 13.5233 20.4181 13.5233 20.0921C13.5233 19.7661 13.7928 19.4987 14.1188 19.4987C14.431 19.4987 14.6888 19.7661 14.6888 20.0921C14.6888 20.4181 14.431 20.6855 14.1188 20.6855ZM12.7543 8.04551C12.7543 7.87184 12.8694 7.77059 13.0313 7.77059H15.1904C15.3544 7.77059 15.4557 7.87184 15.4557 8.04551C15.4557 8.20746 15.3544 8.32254 15.1904 8.32254H13.0313C12.8694 8.32254 12.7543 8.20746 12.7543 8.04551Z" fill="black"/>
</svg>
