<svg width="30" height="28" viewBox="0 0 30 28" fill="none" xmlns="http://www.w3.org/2000/svg">
<path d="M3.84421 23.948H25.9999C28.5218 23.948 29.8462 22.6449 29.8462 20.1423V8.79616C29.8462 6.30523 28.5218 5 25.9999 5H3.84421C1.30523 5 0 6.29562 0 8.79616V20.1423C0 22.6449 1.30523 23.948 3.84421 23.948ZM3.97733 21.6521C2.88772 21.6521 2.29592 21.0805 2.29592 19.9419V8.99866C2.29592 7.85795 2.88772 7.29592 3.97733 7.29592H25.8572C26.9393 7.29592 27.5503 7.85795 27.5503 8.99866V19.9419C27.5503 21.0805 26.9393 21.6521 25.8572 21.6521H3.97733Z" fill="black"/>
<path d="M4.94201 11.7992H5.79021C6.00209 11.7992 6.13943 11.6523 6.13943 11.4137V10.059C6.13943 9.82252 6.00209 9.67346 5.79021 9.67346H4.94201C4.72263 9.67346 4.57568 9.82252 4.57568 10.059V11.4137C4.57568 11.6523 4.72263 11.7992 4.94201 11.7992ZM7.47795 11.7992H8.31654C8.53803 11.7992 8.67537 11.6523 8.67537 11.4137V10.059C8.67537 9.82252 8.53803 9.67346 8.31654 9.67346H7.47795C7.24685 9.67346 7.10951 9.82252 7.10951 10.059V11.4137C7.10951 11.6523 7.24685 11.7992 7.47795 11.7992ZM10.0043 11.7992H10.8525C11.0623 11.7992 11.1996 11.6523 11.1996 11.4137V10.059C11.1996 9.82252 11.0623 9.67346 10.8525 9.67346H10.0043C9.78279 9.67346 9.63584 9.82252 9.63584 10.059V11.4137C9.63584 11.6523 9.78279 11.7992 10.0043 11.7992ZM12.5285 11.7992H13.3671C13.5886 11.7992 13.7355 11.6523 13.7355 11.4137V10.059C13.7355 9.82252 13.5886 9.67346 13.3671 9.67346H12.5285C12.3091 9.67346 12.1718 9.82252 12.1718 10.059V11.4137C12.1718 11.6523 12.3091 11.7992 12.5285 11.7992ZM15.0717 11.7992H15.9127C16.1245 11.7992 16.2619 11.6523 16.2619 11.4137V10.059C16.2619 9.82252 16.1245 9.67346 15.9127 9.67346H15.0717C14.8418 9.67346 14.696 9.82252 14.696 10.059V11.4137C14.696 11.6523 14.8418 11.7992 15.0717 11.7992ZM17.6004 11.7992H18.4294C18.6487 11.7992 18.7957 11.6523 18.7957 11.4137V10.059C18.7957 9.82252 18.6487 9.67346 18.4294 9.67346H17.6004C17.3693 9.67346 17.2319 9.82252 17.2319 10.059V11.4137C17.2319 11.6523 17.3693 11.7992 17.6004 11.7992ZM4.94201 15.523H5.79021C6.00209 15.523 6.13943 15.3856 6.13943 15.1374V13.7924C6.13943 13.5442 6.00209 13.4068 5.79021 13.4068H4.94201C4.72263 13.4068 4.57568 13.5442 4.57568 13.7924V15.1374C4.57568 15.3856 4.72263 15.523 4.94201 15.523ZM7.47795 15.523H8.31654C8.53803 15.523 8.67537 15.3856 8.67537 15.1374V13.7924C8.67537 13.5442 8.53803 13.4068 8.31654 13.4068H7.47795C7.24685 13.4068 7.10951 13.5442 7.10951 13.7924V15.1374C7.10951 15.3856 7.24685 15.523 7.47795 15.523ZM10.0043 15.523H10.8525C11.0623 15.523 11.1996 15.3856 11.1996 15.1374V13.7924C11.1996 13.5442 11.0623 13.4068 10.8525 13.4068H10.0043C9.78279 13.4068 9.63584 13.5442 9.63584 13.7924V15.1374C9.63584 15.3856 9.78279 15.523 10.0043 15.523ZM12.5285 15.523H13.3671C13.5886 15.523 13.7355 15.3856 13.7355 15.1374V13.7924C13.7355 13.5442 13.5886 13.4068 13.3671 13.4068H12.5285C12.3091 13.4068 12.1718 13.5442 12.1718 13.7924V15.1374C12.1718 15.3856 12.3091 15.523 12.5285 15.523ZM15.0717 15.523H15.9127C16.1245 15.523 16.2619 15.3856 16.2619 15.1374V13.7924C16.2619 13.5442 16.1245 13.4068 15.9127 13.4068H15.0717C14.8418 13.4068 14.696 13.5442 14.696 13.7924V15.1374C14.696 15.3856 14.8418 15.523 15.0717 15.523ZM17.6004 15.523H18.4294C18.6487 15.523 18.7957 15.3856 18.7957 15.1374V13.7924C18.7957 13.5442 18.6487 13.4068 18.4294 13.4068H17.6004C17.3693 13.4068 17.2319 13.5442 17.2319 13.7924V15.1374C17.2319 15.3856 17.3693 15.523 17.6004 15.523ZM4.94201 19.2563H5.79021C6.00209 19.2563 6.13943 19.1094 6.13943 18.8708V17.5161C6.13943 17.2775 6.00209 17.1305 5.79021 17.1305H4.94201C4.72263 17.1305 4.57568 17.2775 4.57568 17.5161V18.8708C4.57568 19.1094 4.72263 19.2563 4.94201 19.2563ZM7.47795 19.2563H15.9127C16.1245 19.2563 16.2619 19.1094 16.2619 18.8708V17.5161C16.2619 17.2775 16.1245 17.1305 15.9127 17.1305H7.47795C7.24685 17.1305 7.10951 17.2775 7.10951 17.5161V18.8708C7.10951 19.1094 7.24685 19.2563 7.47795 19.2563ZM17.6004 19.2563H18.4294C18.6487 19.2563 18.7957 19.1094 18.7957 18.8708V17.5161C18.7957 17.2775 18.6487 17.1305 18.4294 17.1305H17.6004C17.3693 17.1305 17.2319 17.2775 17.2319 17.5161V18.8708C17.2319 19.1094 17.3693 19.2563 17.6004 19.2563ZM20.7741 13.7872C20.3194 14.2079 20.3194 14.7327 20.7741 15.1512L24.0853 18.2595C24.5259 18.6619 25.2225 18.4885 25.2225 17.8388V11.0996C25.2225 10.4617 24.5259 10.2861 24.0853 10.6885L20.7741 13.7872Z" fill="black"/>
</svg>
