<svg width="28" height="28" viewBox="0 0 28 28" fill="none" xmlns="http://www.w3.org/2000/svg">
<path d="M7.33554 11.8477C10.179 11.8733 12.6167 9.63475 12.6083 6.90523C12.5977 4.20875 10.1726 2 7.33554 2C4.84765 2 3.22484 3.48688 2.37477 4.72859C2.11812 5.12257 2 5.56648 2 6.05304V7.7989C2 8.27702 2.12562 8.71671 2.37266 9.11491C3.17398 10.344 4.83921 11.8147 7.33554 11.8477ZM4.30788 8.87304C3.99382 8.87304 3.74468 8.62179 3.74468 8.29601V5.5421C3.74468 5.21632 3.99382 4.96507 4.30788 4.96507C4.64327 4.96507 4.88491 5.21632 4.88491 5.5421V8.29601C4.88491 8.62179 4.64327 8.87304 4.30788 8.87304ZM9.10273 20.9321H10.1115C10.9044 20.9321 11.4024 20.5194 11.4024 19.7487V11.7331C10.3902 12.5091 9.14679 12.9926 7.8214 13.0653V19.7487C7.8214 20.5194 8.33328 20.9321 9.10273 20.9321ZM8.93937 25.4145H10.2748V19.6369H8.93937V25.4145ZM20.5414 11.8477C23.0356 11.8147 24.7029 10.344 25.5022 9.11491C25.7513 8.71671 25.8748 8.27702 25.8748 7.7989V6.05304C25.8748 5.56648 25.7588 5.12257 25.5001 4.72859C24.65 3.48688 23.0293 2 20.5414 2C17.7022 2 15.2771 4.20875 15.2666 6.90523C15.2602 9.63475 17.698 11.8733 20.5414 11.8477ZM23.5573 8.87304C23.2315 8.87304 22.9899 8.62179 22.9899 8.29601V5.5421C22.9899 5.21632 23.2315 4.96507 23.5573 4.96507C23.881 4.96507 24.1322 5.21632 24.1322 5.5421V8.29601C24.1322 8.62179 23.881 8.87304 23.5573 8.87304ZM17.7633 20.9321H18.7742C19.5415 20.9321 20.0555 20.5194 20.0555 19.7487V13.0653C18.728 12.9926 17.4868 12.5091 16.4724 11.7331V19.7487C16.4724 20.5194 16.9726 20.9321 17.7633 20.9321ZM18.9376 25.4145V19.6369H17.6V25.4145H18.9376Z" fill="black"/>
</svg>
