<svg width="33" height="28" viewBox="0 0 33 28" fill="none" xmlns="http://www.w3.org/2000/svg">
<path d="M10.0631 3.01172C4.54312 3.01172 0 9.34968 0 17.0857C0 20.7511 0.983203 24.7978 2.21625 24.7978C3.1439 24.7978 3.90328 23.5833 4.02656 22.429C2.13656 21.929 0.725861 20.1912 0.725861 18.1413C0.725861 16.8851 1.24828 15.7704 2.18578 14.9205C2.63273 9.67312 6.04312 5.11359 9.94804 5.11359C12.2941 5.11359 13.3554 6.85148 13.3554 10.1294L3.89015 15.0703C2.5043 15.7936 1.86094 16.9355 1.86094 18.1413C1.86094 19.9446 3.33305 21.4273 5.13 21.4273C5.9939 21.4273 6.57234 21.2121 7.81757 20.5357L12.6131 17.9004C14.7105 16.7489 15.4573 15.3492 15.4573 12.3858V9.7432C15.4573 5.60883 13.6336 3.01172 10.0631 3.01172ZM5.05851 20.1982C3.91875 20.1982 2.99625 19.2715 2.99625 18.1413C2.99625 17.0154 3.91875 16.0887 5.05851 16.0887C6.18445 16.0887 7.11117 17.0154 7.11117 18.1413C7.11117 19.2715 6.18445 20.1982 5.05851 20.1982ZM5.05851 19.3519C5.72133 19.3519 6.25734 18.8062 6.25734 18.1413C6.25734 17.4806 5.72133 16.935 5.05851 16.935C4.38398 16.935 3.84796 17.4806 3.84796 18.1413C3.84796 18.8062 4.38398 19.3519 5.05851 19.3519ZM22.4116 3.01172C18.8433 3.01172 17.0196 5.60883 17.0196 9.7432V12.3858C17.0196 15.3492 17.7642 16.7489 19.8541 17.9004L24.6572 20.5357C25.9045 21.2121 26.483 21.4273 27.3469 21.4273C29.1417 21.4273 30.6159 19.9446 30.6159 18.1413C30.6159 16.9355 29.9705 15.7936 28.5771 15.0703L19.1194 10.1294C19.1194 6.85148 20.1827 5.11359 22.5288 5.11359C26.4337 5.11359 29.842 9.67312 30.2911 14.9205C31.2286 15.7704 31.751 16.8851 31.751 18.1413C31.751 20.1912 30.3286 21.929 28.4386 22.429C28.5619 23.5833 29.333 24.7978 30.2585 24.7978C31.4915 24.7978 32.4769 20.7511 32.4769 17.0857C32.4769 9.34968 27.9316 3.01172 22.4116 3.01172ZM27.4183 20.1982C26.2903 20.1982 25.3657 19.2715 25.3657 18.1413C25.3657 17.0154 26.2903 16.0887 27.4183 16.0887C28.5581 16.0887 29.4806 17.0154 29.4806 18.1413C29.4806 19.2715 28.5581 20.1982 27.4183 20.1982ZM27.4183 19.3519C28.0908 19.3519 28.6289 18.8062 28.6289 18.1413C28.6289 17.4806 28.0908 16.935 27.4183 16.935C26.7555 16.935 26.2099 17.4806 26.2099 18.1413C26.2099 18.8062 26.7555 19.3519 27.4183 19.3519Z" fill="black"/>
<path d="M5.0586 20.1982C3.91884 20.1982 2.99634 19.2715 2.99634 18.1413C2.99634 17.0154 3.91884 16.0887 5.0586 16.0887C6.18454 16.0887 7.11126 17.0154 7.11126 18.1413C7.11126 19.2715 6.18454 20.1982 5.0586 20.1982ZM5.0586 19.3519C5.72142 19.3519 6.25743 18.8062 6.25743 18.1413C6.25743 17.4806 5.72142 16.935 5.0586 16.935C4.38407 16.935 3.84805 17.4806 3.84805 18.1413C3.84805 18.8062 4.38407 19.3519 5.0586 19.3519ZM27.4184 20.1982C26.2904 20.1982 25.3658 19.2715 25.3658 18.1413C25.3658 17.0154 26.2904 16.0887 27.4184 16.0887C28.5582 16.0887 29.4807 17.0154 29.4807 18.1413C29.4807 19.2715 28.5582 20.1982 27.4184 20.1982ZM27.4184 19.3519C28.0909 19.3519 28.629 18.8062 28.629 18.1413C28.629 17.4806 28.0909 16.935 27.4184 16.935C26.7556 16.935 26.21 17.4806 26.21 18.1413C26.21 18.8062 26.7556 19.3519 27.4184 19.3519Z" fill="white"/>
</svg>
