<svg width="28" height="28" viewBox="0 0 28 28" fill="none" xmlns="http://www.w3.org/2000/svg">
<path d="M9.37101 26.6312H18.5894C20.5797 26.6312 21.9098 25.3365 21.9098 23.3987V4.23249C21.9098 2.29258 20.5797 1 18.5894 1H9.37101C7.35117 1 6 2.29258 6 4.23038V23.4008C6 25.3365 7.35117 26.6312 9.37101 26.6312ZM9.76475 24.3247C8.82772 24.3247 8.29592 23.8206 8.29592 22.9253V4.70803C8.29592 3.81272 8.82772 3.30858 9.76475 3.30858H18.1568C19.0821 3.30858 19.6139 3.81905 19.6139 4.71014V22.9232C19.6139 23.8164 19.0821 24.3247 18.1568 24.3247H9.76475Z" fill="black"/>
<path d="M10.86 11.4217H17.0573C17.6784 11.4217 18.1003 10.9998 18.1003 10.3553V8.11327C18.1003 7.46874 17.6784 7.04688 17.0573 7.04688H10.86C10.2314 7.04688 9.81909 7.46874 9.81909 8.11327V10.3553C9.81909 10.9998 10.2314 11.4217 10.86 11.4217ZM10.86 20.5576H17.0573C17.6784 20.5576 18.1003 20.1454 18.1003 19.4912V17.2588C18.1003 16.6047 17.6784 16.1924 17.0573 16.1924H10.86C10.2314 16.1924 9.81909 16.6047 9.81909 17.2588V19.4912C9.81909 20.1454 10.2314 20.5576 10.86 20.5576Z" fill="black"/>
</svg>
