<svg width="30" height="28" viewBox="0 0 30 28" fill="none" xmlns="http://www.w3.org/2000/svg">
<path d="M3.36316 20.5236C2.61503 20.5236 2.24097 20.158 2.24097 19.411V6.16014C2.24097 5.40358 2.61503 5.04756 3.36316 5.04756H26.4376C27.1858 5.04756 27.5598 5.40358 27.5598 6.16014V19.411C27.5598 20.158 27.1858 20.5236 26.4376 20.5236H3.36316Z" fill="white"/>
<path d="M3.23108 22.7647H26.572C28.6769 22.7647 29.8031 21.6481 29.8031 19.5336V6.02796C29.8031 3.92304 28.6769 2.80649 26.572 2.80649H3.23108C1.12617 2.80649 0 3.92304 0 6.02796V19.5336C0 21.6481 1.12617 22.7647 3.23108 22.7647ZM3.36327 20.5236C2.61514 20.5236 2.24108 20.158 2.24108 19.411V6.16014C2.24108 5.40358 2.61514 5.04756 3.36327 5.04756H26.4377C27.1859 5.04756 27.5599 5.40358 27.5599 6.16014V19.411C27.5599 20.158 27.1859 20.5236 26.4377 20.5236H3.36327ZM8.90578 26.8639H20.8952C21.4783 26.8639 21.9604 26.3829 21.9604 25.8029C21.9604 25.2228 21.4783 24.7397 20.8952 24.7397H8.90578C8.32476 24.7397 7.84265 25.2228 7.84265 25.8029C7.84265 26.3829 8.32476 26.8639 8.90578 26.8639Z" fill="black"/>
</svg>
