<svg width="28" height="28" viewBox="0 0 28 28" fill="none" xmlns="http://www.w3.org/2000/svg">
<path d="M3.84843 24.8972H24.1176C26.6566 24.8972 27.9619 23.5898 27.9619 21.0872V6.82921C27.9619 4.32656 26.6566 3.02344 24.1176 3.02344H3.84421C1.31484 3.02344 0 4.31695 0 6.82921V21.0872C0 23.5994 1.31695 24.8972 3.84843 24.8972ZM3.98155 22.6013C2.88983 22.6013 2.29803 22.0371 2.29803 20.8985V7.01999C2.29803 5.88139 2.88772 5.31936 3.97733 5.31936H23.9845C25.0645 5.31936 25.6659 5.88139 25.6659 7.01999V20.8985C25.6659 22.0371 25.0645 22.6013 23.9845 22.6013H3.98155Z" fill="black"/>
<path d="M5.60336 16.7351H11.8379C12.4569 16.7351 12.8788 16.3132 12.8788 15.6687V12.2498C12.8788 11.5957 12.4569 11.1834 11.8379 11.1834H5.60336C4.97477 11.1834 4.5625 11.5957 4.5625 12.2498V15.6687C4.5625 16.3132 4.97477 16.7351 5.60336 16.7351ZM15.9484 16.7351H22.1905C22.8095 16.7351 23.2314 16.3132 23.2314 15.6687V12.2498C23.2314 11.5957 22.8095 11.1834 22.1905 11.1834H15.9484C15.3273 11.1834 14.9054 11.5957 14.9054 12.2498V15.6687C14.9054 16.3132 15.3273 16.7351 15.9484 16.7351Z" fill="black"/>
</svg>
