<svg width="28" height="28" viewBox="0 0 28 28" fill="none" xmlns="http://www.w3.org/2000/svg">
<path d="M11.2126 27.3487H17.6921C19.6798 27.3487 20.895 26.1728 20.895 24.283V4.06562C20.895 2.17586 19.6798 1 17.6921 1H11.2126C9.21523 1 8 2.17586 8 4.06562V24.283C8 26.1728 9.21523 27.3487 11.2126 27.3487ZM11.5278 25.237C10.6768 25.237 10.1436 24.7272 10.1436 23.9273V4.43311C10.1436 3.62147 10.6768 3.1117 11.5278 3.1117H17.3673C18.2183 3.1117 18.7515 3.62147 18.7515 4.43311V23.9273C18.7515 24.7272 18.2183 25.237 17.3673 25.237H11.5278ZM12.5855 11.8483C13.3451 11.8483 13.9545 11.2251 13.9545 10.4772C13.9545 9.72507 13.3472 9.10608 12.5855 9.10608C11.8313 9.10608 11.2123 9.72296 11.2123 10.4772C11.2123 11.2293 11.8334 11.8483 12.5855 11.8483ZM16.3372 11.8483C17.0851 11.8483 17.7062 11.2251 17.7062 10.4772C17.7062 9.72507 17.0893 9.10608 16.3372 9.10608C15.5733 9.10608 14.9619 9.72296 14.9619 10.4772C14.9619 11.2293 15.5755 11.8483 16.3372 11.8483ZM12.5855 15.5694C13.3451 15.5694 13.9545 14.9484 13.9545 14.1984C13.9545 13.4366 13.3472 12.8273 12.5855 12.8273C11.8313 12.8273 11.2123 13.4345 11.2123 14.1984C11.2123 14.9505 11.8334 15.5694 12.5855 15.5694ZM12.5855 19.2831C13.3451 19.2831 13.9545 18.6716 13.9545 17.912C13.9545 17.1599 13.3472 16.5409 12.5855 16.5409C11.8313 16.5409 11.2123 17.1578 11.2123 17.912C11.2123 18.6737 11.8334 19.2831 12.5855 19.2831ZM16.3276 19.2831C17.052 19.2831 17.6412 18.7131 17.6412 17.9791V14.1217C17.6412 13.3994 17.0499 12.8273 16.3276 12.8273C15.6169 12.8273 15.0448 13.4015 15.0448 14.1217V17.9791C15.0448 18.711 15.6169 19.2831 16.3276 19.2831Z" fill="black"/>
</svg>
