<svg width="28" height="28" viewBox="0 0 28 28" fill="none" xmlns="http://www.w3.org/2000/svg">
<path d="M7.41333 16.5205V23.4008C7.41333 25.3365 8.76661 26.6312 10.7865 26.6312H19.9953C21.9856 26.6312 23.3135 25.3365 23.3135 23.3987V4.23249C23.3135 2.29258 21.9856 1 19.9953 1H10.7865C8.76661 1 7.41333 2.29258 7.41333 4.23038V11.1309H9.71136V4.75866C9.71136 3.86545 10.2411 3.36131 11.1802 3.36131H19.5605C20.4879 3.36131 21.0176 3.86967 21.0176 4.76076V22.8705C21.0176 23.7615 20.4879 24.2699 19.5605 24.2699H11.1802C10.2411 24.2699 9.71136 23.7658 9.71136 22.8726V16.5205H7.41333Z" fill="black"/>
<path d="M4.99257 14.7958H12.6859L14.9498 14.6807L12.644 16.7265L11.9992 17.3755C11.8279 17.5607 11.7013 17.8213 11.7013 18.099C11.7013 18.6533 12.1098 19.0384 12.647 19.0384C12.9215 19.0384 13.1694 18.9362 13.3525 18.7511L17.4934 14.6144C17.755 14.3624 17.8858 14.0807 17.8858 13.8161C17.8858 13.5494 17.755 13.2505 17.4934 13.0061L13.3525 8.87895C13.1694 8.69379 12.9215 8.59161 12.647 8.59161C12.1098 8.59161 11.7013 8.97668 11.7013 9.52348C11.7013 9.81082 11.8237 10.0597 11.9992 10.2449L12.644 10.9056L14.9498 12.9419L12.6859 12.8247H4.99257C4.39562 12.8247 4 13.2918 4 13.8161C4 14.3383 4.39562 14.7958 4.99257 14.7958Z" fill="black"/>
</svg>
