<svg width="28" height="28" viewBox="0 0 28 28" fill="none" xmlns="http://www.w3.org/2000/svg">
<path d="M14.105 26.21C20.7369 26.21 26.2121 20.7273 26.2121 14.105C26.2121 7.47312 20.7273 2 14.0954 2C7.47523 2 2 7.47312 2 14.105C2 20.7273 7.48484 26.21 14.105 26.21ZM14.105 23.8255C8.71085 23.8255 4.39412 19.4991 4.39412 14.105C4.39412 8.71085 8.70124 4.38452 14.0954 4.38452C19.4895 4.38452 23.8276 8.71085 23.8276 14.105C23.8276 19.4991 19.4991 23.8255 14.105 23.8255Z" fill="black"/>
<path d="M11.5618 21.4384H16.6386C17.4221 21.4384 18.0029 21.0875 18.2701 20.4807V20.423L16.7173 18.8703V18.976H10.8865V13.0299L9.62842 11.7814V19.5795C9.62842 20.6853 10.3995 21.4384 11.5618 21.4384ZM14.1071 20.6855C13.7811 20.6855 13.5116 20.4181 13.5116 20.0921C13.5116 19.7661 13.7811 19.4987 14.1071 19.4987C14.431 19.4987 14.6888 19.7661 14.6888 20.0921C14.6888 20.4181 14.431 20.6855 14.1071 20.6855ZM16.6386 6.76746H11.5618C10.7644 6.76746 10.1954 7.12043 9.91857 7.73684V7.77528L11.45 9.31629V9.2298H17.3138V15.1918L18.5719 16.4478V8.62629C18.5719 7.52051 17.7912 6.76746 16.6386 6.76746ZM12.7447 8.04551C12.7447 7.87184 12.8694 7.77059 13.0217 7.77059H15.1787C15.3427 7.77059 15.4557 7.87184 15.4557 8.04551C15.4557 8.20746 15.3427 8.32254 15.1787 8.32254H13.0217C12.8694 8.32254 12.7447 8.20746 12.7447 8.04551ZM19.1427 19.9686C19.3651 20.1964 19.7387 20.1985 19.9686 19.9686C20.1985 19.7387 20.1985 19.3843 19.9686 19.1448L9.0406 8.22434C8.80857 7.99442 8.43287 7.99442 8.20295 8.22434C7.98053 8.44465 7.98053 8.82785 8.20295 9.05027L19.1427 19.9686Z" fill="black"/>
</svg>
