<svg width="29" height="28" viewBox="0 0 29 28" fill="none" xmlns="http://www.w3.org/2000/svg">
<path d="M7.32117 23.0584H21.165C26.118 23.0584 28.4883 20.7362 28.4883 15.8889V12.1197H0V15.8889C0 20.7362 2.36812 23.0584 7.32117 23.0584ZM14.2441 16.5285C13.6041 16.5306 13.0812 16.0077 13.0812 15.3676C13.0812 14.7255 13.6041 14.1951 14.2441 14.1951C14.8863 14.1951 15.4167 14.7255 15.4167 15.3676C15.4167 16.0077 14.8863 16.5243 14.2441 16.5285ZM0 10.8812H28.4883V10.5318C28.4883 6.13445 25.9483 4 21.1842 4H7.32117C2.56336 4 0 6.13023 0 10.5339V10.8812Z" fill="black"/>
</svg>
