<svg width="28" height="28" viewBox="0 0 28 28" fill="none" xmlns="http://www.w3.org/2000/svg">
<path d="M6 23.4008C6 25.3365 7.35117 26.6312 9.37101 26.6312H18.5798C20.5701 26.6312 21.9002 25.3365 21.9002 23.3987V4.23249C21.9002 2.29258 20.5701 1 18.5798 1H9.37101C7.35117 1 6 2.29258 6 4.23038V23.4008ZM8.29592 22.8726V4.75866C8.29592 3.86545 8.82772 3.36131 9.76475 3.36131H18.1472C19.0725 3.36131 19.6043 3.86967 19.6043 4.76076V22.8705C19.6043 23.7615 19.0725 24.2699 18.1472 24.2699H9.76475C8.82772 24.2699 8.29592 23.7658 8.29592 22.8726Z" fill="black"/>
<path d="M10.7311 14.8755C10.7311 15.0606 10.7768 15.2373 10.9087 15.3735L13.3846 17.8893C13.5443 18.0531 13.7475 18.1436 13.9549 18.1436C14.1506 18.1436 14.358 18.051 14.5155 17.8893L16.9915 15.3735C17.1234 15.2373 17.1787 15.0606 17.1787 14.8755C17.1787 14.4688 16.8935 14.1995 16.4922 14.1995C16.2837 14.1899 16.1135 14.2825 15.974 14.4229L15.1938 15.2284L14.6294 15.9484L14.6805 14.5687V11.3652C14.6805 10.9577 14.3805 10.6565 13.9549 10.6565C13.5293 10.6565 13.2196 10.9577 13.2196 11.3652V14.5687L13.2782 15.9484L12.716 15.2284L11.9261 14.4229C11.7867 14.2825 11.6165 14.1899 11.4079 14.1995C11.0163 14.1995 10.7311 14.4688 10.7311 14.8755ZM10.86 22.7563H17.0477C17.6688 22.7563 18.0886 22.3344 18.0886 21.6899V20.2089C18.0886 19.5548 17.6688 19.1425 17.0477 19.1425H10.86C10.2314 19.1425 9.81909 19.5548 9.81909 20.2089V21.6899C9.81909 22.3344 10.2314 22.7563 10.86 22.7563Z" fill="black"/>
</svg>
