<svg width="28" height="28" viewBox="0 0 28 28" fill="none" xmlns="http://www.w3.org/2000/svg">
<path d="M16.5734 3C10.7796 3 6 9.6682 6 17.793C6 21.6384 7.03219 25.8865 8.32593 25.8865C9.30046 25.8865 10.1067 24.623 10.2342 23.4026C8.24414 22.8792 6.75891 21.0551 6.75891 18.9073C6.75891 17.5882 7.30898 16.4107 8.29757 15.514C8.77007 10.0109 12.3445 5.22117 16.4466 5.22117C18.9077 5.22117 20.0276 7.04109 20.0276 10.4852L10.0915 15.6722C8.63531 16.4402 7.95469 17.6311 7.95469 18.9073C7.95469 20.7968 9.49922 22.3594 11.3803 22.3594C12.3007 22.3594 12.9047 22.125 14.2106 21.4209L19.2523 18.6471C21.4573 17.4349 22.2391 15.9649 22.2391 12.8566V10.0734C22.2391 5.73773 20.3196 3 16.5734 3ZM11.3088 21.06C10.1105 21.06 9.1507 20.0864 9.1507 18.8977C9.1507 17.7131 10.1105 16.7395 11.3088 16.7395C12.4955 16.7395 13.4669 17.7131 13.4669 18.8977C13.4669 20.0864 12.4955 21.06 11.3088 21.06ZM11.3088 20.1668C12.0068 20.1668 12.5738 19.5956 12.5738 18.8977C12.5738 18.2135 12.0068 17.6327 11.3088 17.6327C10.6012 17.6327 10.0397 18.2135 10.0397 18.8977C10.0397 19.5956 10.6012 20.1668 11.3088 20.1668Z" fill="black"/>
<path d="M11.3088 21.06C10.1104 21.06 9.15063 20.0864 9.15063 18.8977C9.15063 17.7131 10.1104 16.7395 11.3088 16.7395C12.4954 16.7395 13.4669 17.7131 13.4669 18.8977C13.4669 20.0864 12.4954 21.06 11.3088 21.06ZM11.3088 20.1668C12.0067 20.1668 12.5737 19.5956 12.5737 18.8977C12.5737 18.2135 12.0067 17.6327 11.3088 17.6327C10.6012 17.6327 10.0396 18.2135 10.0396 18.8977C10.0396 19.5956 10.6012 20.1668 11.3088 20.1668Z" fill="white"/>
</svg>
