<svg width="28" height="28" viewBox="0 0 28 28" fill="none" xmlns="http://www.w3.org/2000/svg">
<path d="M3.84843 24.8972H24.1176C26.6566 24.8972 27.9619 23.5898 27.9619 21.0872V6.82921C27.9619 4.32656 26.6566 3.02344 24.1176 3.02344H3.84421C1.31484 3.02344 0 4.31695 0 6.82921V21.0872C0 23.5994 1.31695 24.8972 3.84843 24.8972ZM3.98155 22.6013C2.88983 22.6013 2.29803 22.0371 2.29803 20.8985V7.01999C2.29803 5.88139 2.88772 5.31936 3.97733 5.31936H23.9845C25.0645 5.31936 25.6659 5.88139 25.6659 7.01999V20.8985C25.6659 22.0371 25.0645 22.6013 23.9845 22.6013H3.98155Z" fill="black"/>
<path d="M5.02808 9.74181H6.17347C6.51753 9.74181 6.78495 9.50532 6.78495 9.17931V7.99665C6.78495 7.65891 6.51753 7.42993 6.17347 7.42993H5.02808C4.70956 7.42993 4.46558 7.66852 4.46558 7.99665V9.17931C4.46558 9.49571 4.70956 9.74181 5.02808 9.74181ZM9.21097 9.74181H10.3584C10.71 9.74181 10.9678 9.50532 10.9678 9.17931V7.99665C10.9678 7.65891 10.71 7.42993 10.3584 7.42993H9.21097C8.89245 7.42993 8.64636 7.66852 8.64636 7.99665V9.17931C8.64636 9.49571 8.89034 9.74181 9.21097 9.74181ZM13.3938 9.74181H14.5371C14.8791 9.74181 15.1369 9.50532 15.1369 9.17931V7.99665C15.1369 7.65891 14.8791 7.42993 14.5371 7.42993H13.3938C13.0657 7.42993 12.8271 7.66852 12.8271 7.99665V9.17931C12.8271 9.49571 13.0615 9.74181 13.3938 9.74181ZM17.5608 9.74181H18.7083C19.0619 9.74181 19.3177 9.50532 19.3177 9.17931V7.99665C19.3177 7.65891 19.0619 7.42993 18.7083 7.42993H17.5608C17.2444 7.42993 16.9983 7.66852 16.9983 7.99665V9.17931C16.9983 9.49571 17.2444 9.74181 17.5608 9.74181ZM21.7437 9.74181H22.8891C23.2331 9.74181 23.4909 9.50532 23.4909 9.17931V7.99665C23.4909 7.65891 23.2331 7.42993 22.8891 7.42993H21.7437C21.4155 7.42993 21.1791 7.66852 21.1791 7.99665V9.17931C21.1791 9.49571 21.4155 9.74181 21.7437 9.74181ZM5.02808 13.5879H6.17347C6.51753 13.5879 6.78495 13.3535 6.78495 13.0275V11.8449C6.78495 11.5071 6.51753 11.2781 6.17347 11.2781H5.02808C4.70956 11.2781 4.46558 11.5167 4.46558 11.8449V13.0275C4.46558 13.3439 4.70956 13.5879 5.02808 13.5879ZM9.21097 13.5879H10.3584C10.71 13.5879 10.9678 13.3535 10.9678 13.0275V11.8449C10.9678 11.5071 10.71 11.2781 10.3584 11.2781H9.21097C8.89245 11.2781 8.64636 11.5167 8.64636 11.8449V13.0275C8.64636 13.3439 8.89034 13.5879 9.21097 13.5879ZM13.3938 13.5879H14.5371C14.8791 13.5879 15.1369 13.3535 15.1369 13.0275V11.8449C15.1369 11.5071 14.8791 11.2781 14.5371 11.2781H13.3938C13.0657 11.2781 12.8271 11.5167 12.8271 11.8449V13.0275C12.8271 13.3439 13.0615 13.5879 13.3938 13.5879ZM17.5608 13.5879H18.7083C19.0619 13.5879 19.3177 13.3535 19.3177 13.0275V11.8449C19.3177 11.5071 19.0619 11.2781 18.7083 11.2781H17.5608C17.2444 11.2781 16.9983 11.5167 16.9983 11.8449V13.0275C16.9983 13.3439 17.2444 13.5879 17.5608 13.5879ZM5.02808 20.478H6.17347C6.51753 20.478 6.78495 20.2437 6.78495 19.9177V18.735C6.78495 18.3973 6.51753 18.1587 6.17347 18.1587H5.02808C4.70956 18.1587 4.46558 18.4069 4.46558 18.735V19.9177C4.46558 20.2341 4.70956 20.478 5.02808 20.478ZM9.21097 20.478H10.3584C10.71 20.478 10.9678 20.2437 10.9678 19.9177V18.735C10.9678 18.3973 10.71 18.1587 10.3584 18.1587H9.21097C8.89245 18.1587 8.64636 18.4069 8.64636 18.735V19.9177C8.64636 20.2341 8.89034 20.478 9.21097 20.478ZM13.3938 20.478H14.5371C14.8791 20.478 15.1369 20.2437 15.1369 19.9177V18.735C15.1369 18.3973 14.8791 18.1587 14.5371 18.1587H13.3938C13.0657 18.1587 12.8271 18.4069 12.8271 18.735V19.9177C12.8271 20.2341 13.0615 20.478 13.3938 20.478ZM17.5608 20.478H18.7083C19.0619 20.478 19.3177 20.2437 19.3177 19.9177V18.735C19.3177 18.3973 19.0619 18.1587 18.7083 18.1587H17.5608C17.2444 18.1587 16.9983 18.4069 16.9983 18.735V19.9177C16.9983 20.2341 17.2444 20.478 17.5608 20.478ZM21.7437 20.478H22.8891C23.2331 20.478 23.4909 20.2437 23.4909 19.9177V18.735C23.4909 18.3973 23.2331 18.1587 22.8891 18.1587H21.7437C21.4155 18.1587 21.1791 18.4069 21.1791 18.735V19.9177C21.1791 20.2341 21.4155 20.478 21.7437 20.478Z" fill="black"/>
</svg>
