<svg width="28" height="28" viewBox="0 0 28 28" fill="none" xmlns="http://www.w3.org/2000/svg">
<path d="M16.9597 14.0691C16.9597 21.132 19.149 25.7218 22.4253 25.7218C25.7016 25.7218 27.8909 21.132 27.8909 14.0691C27.8909 7.00414 25.7016 2.40476 22.4253 2.40476C19.149 2.40476 16.9597 7.00414 16.9597 14.0691ZM10.4438 14.0691C10.4438 21.5879 12.6106 26.1383 17.6684 26.1383H19.0011C17.9914 25.2669 17.1563 23.9907 16.5439 22.3683H14.9387C14.4957 22.3683 14.1252 21.9978 14.1252 21.5569C14.1252 21.1119 14.4936 20.753 14.9387 20.753H16.0243C15.841 20.0839 15.7025 19.3679 15.5949 18.7032H14.1734C13.7305 18.7032 13.362 18.3444 13.362 17.8993C13.362 17.4563 13.7305 17.0858 14.1734 17.0858H15.3948C15.3169 16.3325 15.2722 15.4885 15.2584 14.7535H13.8814C13.4363 14.7535 13.0796 14.3947 13.0796 13.9517C13.0796 13.5066 13.4363 13.1382 13.8814 13.1382H15.268C15.2818 12.3648 15.3266 11.5709 15.4161 10.8176H14.1734C13.7305 10.8176 13.362 10.445 13.362 10.002C13.362 9.55695 13.7305 9.19812 14.1734 9.19812H15.6334C15.7505 8.47578 15.9008 7.80031 16.0937 7.14827H14.9387C14.4936 7.14827 14.1252 6.78945 14.1252 6.34648C14.1252 5.90351 14.4957 5.53297 14.9387 5.53297H16.6325C17.2353 4.01844 18.0416 2.82125 19.0011 2H17.6684C12.6106 2 10.4438 6.54078 10.4438 14.0691Z" fill="black"/>
<path d="M4.93579 23.4938C5.58782 23.4938 6.21852 22.9482 5.90469 22.1089C5.11297 19.9501 4.71336 17.6431 4.71336 15.1081C4.71336 12.5279 5.13406 10.1628 5.96164 7.9681L3.98962 7.26287C3.0929 9.67037 2.62322 12.2853 2.62322 15.1081C2.62322 17.8698 3.08564 20.4362 3.93478 22.8141C4.10283 23.2981 4.52517 23.4938 4.93579 23.4938ZM1.67986 8.63535L7.00789 10.4752C7.90883 10.7722 8.50718 9.86817 8.25617 9.17419L6.75008 4.95357C6.52368 4.32052 5.83673 4.08849 5.24423 4.4649L1.45791 6.88294C0.811974 7.29567 0.817365 8.34801 1.67986 8.63535Z" fill="black"/>
</svg>
