<svg width="28" height="28" viewBox="0 0 28 28" fill="none" xmlns="http://www.w3.org/2000/svg">
<path d="M8.42749 25.5936H19.212C21.3446 25.5936 23.0194 25.3597 24.2232 24.1559C25.4291 22.9522 25.6491 21.2933 25.6491 19.1565V8.45093C25.6491 6.31203 25.4291 4.66062 24.2232 3.45898C23.0173 2.25523 21.3446 2.02344 19.212 2.02344H8.40827C6.30453 2.02344 4.62968 2.25523 3.42383 3.45898C2.22008 4.66484 2 6.32164 2 8.43171V19.1565C2 21.2933 2.22008 22.9543 3.42383 24.1559C4.63179 25.3597 6.30453 25.5936 8.42749 25.5936ZM8.10898 23.2956C6.89351 23.2956 5.75655 23.1273 5.09866 22.4715C4.45248 21.8232 4.29592 20.7022 4.29592 19.4846V8.16124C4.29592 6.91273 4.45248 5.79171 5.09866 5.13381C5.75655 4.48764 6.90312 4.31936 8.13781 4.31936H19.5402C20.7556 4.31936 21.8905 4.48764 22.5409 5.14342C23.1966 5.79171 23.3532 6.91273 23.3532 8.13241V19.4846C23.3532 20.7022 23.1966 21.8232 22.5409 22.4715C21.8905 23.1273 20.7556 23.2956 19.5402 23.2956H8.10898Z" fill="black"/>
<path d="M8.69311 11.289C9.6149 11.3881 10.3384 10.3705 10.2756 9.5574C9.3517 9.59467 8.66545 10.4152 8.69311 11.289ZM11.8452 15.2424C11.4083 15.0432 11.1196 14.7566 10.9619 14.3452C10.7903 13.8945 10.8137 13.4427 10.9619 13.0548C11.0439 12.7958 11.2155 12.474 11.6598 12.2108C11.3284 11.7195 10.802 11.468 10.1882 11.468C9.49233 11.468 9.08639 11.8325 8.73787 11.8325C8.44162 11.8325 8.11022 11.4798 7.54654 11.4798C6.94443 11.4798 6.44685 11.7291 6.12717 12.1447C5.74349 12.6221 5.58154 13.2071 5.58154 13.8092C5.58154 14.8034 6.01631 15.9671 6.66951 16.7002C7.02225 17.0785 7.28545 17.2735 7.59342 17.2735C8.06334 17.2735 8.31272 16.9325 8.87428 16.9325C9.12365 16.9325 9.32826 17.0359 9.47639 17.0785C9.70655 17.1542 9.86639 17.2597 10.1275 17.2597C10.4141 17.2597 10.6401 17.1446 10.7924 17.0082C11.29 16.5275 11.6833 15.8211 11.8452 15.2424ZM14.9697 10.119H13.7847V11.468H12.9642V12.3823H13.7847V15.6964C13.7847 16.8462 14.2429 17.2597 15.4087 17.2597C15.6644 17.2597 15.9468 17.2266 16.046 17.2149V16.2462C15.9916 16.2793 15.7891 16.2793 15.6644 16.2793C15.1903 16.2793 14.9697 16.0843 14.9697 15.56V12.3823H16.0736V11.468H14.9697V10.119ZM19.9471 17.2149L22.0251 11.468H20.7367L19.3366 16.0843L17.8553 11.468H16.6L18.711 17.2149H19.9471Z" fill="black"/>
</svg>
