<svg width="29" height="28" viewBox="0 0 29 28" fill="none" xmlns="http://www.w3.org/2000/svg">
<path d="M0 15.2869C0 19.9268 2.51508 22.0793 7.99125 22.2537C7.87734 21.644 7.82507 21.0623 7.81546 20.1724C3.72046 19.9755 2.07913 18.3874 2.07913 15.1195V7.1482C2.07913 6.36046 2.21577 5.63037 2.5371 4.99638C3.84186 5.89873 6.21703 6.30819 8.84813 6.30162C9.24656 5.42319 9.74578 4.58038 10.1407 4.13742C9.95765 4.15664 9.37546 4.20891 8.77194 4.20891C6.10241 4.20891 3.52335 3.51047 2.37726 2.62289C1.95656 2.33343 1.46836 2.39273 1.18524 2.78202C0.436174 3.76288 0 5.18343 0 7.0596V15.2869ZM19.1812 27.7837C25.8176 27.7837 28.8436 25.4215 28.8436 20.0831V11.0069C28.8436 8.93249 28.3647 7.3746 27.5454 6.28828C27.2346 5.86922 26.7007 5.80359 26.2268 6.1207C24.9722 7.09031 22.132 7.86445 19.1812 7.86445C16.2208 7.86445 13.3903 7.09031 12.1261 6.1207C11.6522 5.80359 11.1183 5.86922 10.8075 6.28828C9.98812 7.3746 9.5114 8.93249 9.5114 11.0069V20.0831C9.5114 25.4215 12.5353 27.7837 19.1812 27.7837ZM19.1812 25.5026C13.8715 25.5026 11.7926 23.7748 11.7926 19.9019V11.0955C11.7926 10.2288 11.9367 9.41764 12.2965 8.71638C13.788 9.71131 16.3615 10.1751 19.1812 10.1751C21.9914 10.1751 24.5648 9.71131 26.0564 8.71638C26.4162 9.41764 26.5603 10.2288 26.5603 11.0955V19.9019C26.5603 23.7748 24.4814 25.5026 19.1812 25.5026Z" fill="black"/>
<path d="M8.76138 2.75156C11.5362 2.75156 13.7339 2.18672 13.7339 1.37953C13.7339 0.562735 11.5383 0 8.76138 0C6.00349 0 3.80786 0.562735 3.80786 1.37953C3.80786 2.18672 6.0056 2.75156 8.76138 2.75156ZM19.1707 6.25477C22.2213 6.25477 24.6438 5.62172 24.6438 4.74211C24.6438 3.83907 22.2234 3.21774 19.1707 3.21774C16.1294 3.21774 13.709 3.83907 13.709 4.74211C13.709 5.62172 16.1315 6.25477 19.1707 6.25477Z" fill="black"/>
</svg>
