<svg width="32" height="29" viewBox="0 0 32 29" fill="none" xmlns="http://www.w3.org/2000/svg">
<path d="M0 16.5731C0 22.1332 3.33165 24.0935 9.42469 24.1484C8.41571 22.3109 7.85039 20.2205 7.85039 18.0832C7.85039 11.2844 11.8856 7.25343 18.9553 6.81117C18.8541 5.17171 18.3848 3.92015 17.7049 3.00937C17.4005 2.59125 16.8738 2.53195 16.4243 2.85023C15.1896 3.80508 12.3853 4.56328 9.48726 4.56328C6.59132 4.56328 3.78702 3.80508 2.56406 2.85023C2.10492 2.53195 1.58578 2.59125 1.28133 3.00937C0.474612 4.06921 0 5.60507 0 7.66055V16.5731ZM20.4773 28.2164C24.4111 28.2164 26.1054 27.7136 27.705 26.2216C29.9299 24.1926 31.2326 21.2477 31.2326 18.1333C31.2326 15.6065 30.3813 13.2122 28.7088 11.2387C28.245 10.6612 27.7504 10.6345 27.224 10.9898C25.6305 12.1683 23.7991 12.7767 20.4773 12.7767C17.1438 12.7767 15.3145 12.1683 13.721 10.9898C13.2042 10.6345 12.698 10.6612 12.2341 11.2387C10.5712 13.2122 9.71039 15.6065 9.71039 18.1333C9.71039 21.2477 11.0152 24.1926 13.2401 26.2216C14.8376 27.7136 16.5436 28.2164 20.4773 28.2164Z" fill="black"/>
<path d="M9.48729 2.98641C12.4969 2.98641 14.8793 2.36602 14.8793 1.48945C14.8793 0.612892 12.499 0 9.48729 0C6.50206 0 4.11963 0.612892 4.11963 1.48945C4.11963 2.36602 6.50417 2.98641 9.48729 2.98641ZM20.4773 11.2739C23.4176 11.2739 25.5192 10.6994 25.5192 9.89976C25.5192 9.08296 23.4197 8.52023 20.4773 8.52023C17.5422 8.52023 15.4427 9.08296 15.4427 9.89976C15.4427 10.6994 17.5444 11.2739 20.4773 11.2739Z" fill="black"/>
</svg>
