<svg width="29" height="28" viewBox="0 0 29 28" fill="none" xmlns="http://www.w3.org/2000/svg">
<path d="M2.92101 22.67H25.5131C27.344 22.67 28.4437 21.5703 28.4437 19.7394V5.62105C28.4437 3.79223 27.344 2.70215 25.5131 2.70215H2.92101C1.09968 2.70215 0 3.79223 0 5.62105V19.7394C0 21.5703 1.09968 22.67 2.92101 22.67ZM3.05741 20.4226C2.56077 20.4226 2.24741 20.1092 2.24741 19.6126V5.75956C2.24741 5.2512 2.56077 4.94745 3.05741 4.94745H25.3863C25.883 4.94745 26.1963 5.2512 26.1963 5.75956V19.6126C26.1963 20.1092 25.883 20.4226 25.3863 20.4226H3.05741ZM10.4006 25.3494H18.0431V22.4312H10.4006V25.3494ZM10.343 26.9061H18.1008C18.6839 26.9061 19.1564 26.423 19.1564 25.843C19.1564 25.2629 18.6839 24.7819 18.1008 24.7819H10.343C9.75984 24.7819 9.27773 25.2629 9.27773 25.843C9.27773 26.423 9.75984 26.9061 10.343 26.9061Z" fill="black"/>
<path d="M10.0549 15.6615C10.0549 16.3442 10.383 16.6862 11.0264 16.6862H15.0433C15.6867 16.6862 16.0052 16.3442 16.0052 15.6615V12.5935C16.0052 11.9108 15.6867 11.5805 15.0433 11.5805H11.0264C10.383 11.5805 10.0549 11.9108 10.0549 12.5935V15.6615ZM14.0313 12.2265H15.2611V10.6447C15.2611 9.79741 15.6949 9.26983 16.4728 9.26983C17.2486 9.26983 17.6941 9.79741 17.6941 10.6447V11.3954C17.6941 11.7425 17.9667 12.0247 18.3138 12.0247C18.6396 12.0247 18.9218 11.7425 18.9218 11.3954V10.6447C18.9218 9.14913 17.9662 8.07312 16.4728 8.07312C14.9869 8.07312 14.0313 9.14913 14.0313 10.7375V12.2265Z" fill="black"/>
</svg>
