<svg width="28" height="28" viewBox="0 0 28 28" fill="none" xmlns="http://www.w3.org/2000/svg">
<path d="M2.3112 14.6433C1.93432 14.6529 1.62237 14.3313 1.61276 13.9427C1.60315 13.5755 1.9226 13.2635 2.30159 13.2635C2.69229 13.2635 2.99252 13.5755 2.99252 13.9427C2.99252 14.3313 2.68057 14.6337 2.3112 14.6433ZM4.30806 22.6013V5.31934H23.6517V22.6013H4.30806ZM25.6123 15.034C25.0118 15.034 24.5423 14.5453 24.5423 13.9427C24.5423 13.3519 25.0214 12.8632 25.6219 12.8632C26.2266 12.8632 26.7035 13.3519 26.7035 13.9427C26.7035 14.5453 26.2266 15.034 25.6123 15.034Z" fill="white"/>
<path d="M3.84843 24.8972H24.1176C26.6566 24.8972 27.9619 23.5898 27.9619 21.0872V6.82921C27.9619 4.32656 26.6566 3.02344 24.1176 3.02344H3.84421C1.31484 3.02344 0 4.31695 0 6.82921V21.0872C0 23.5994 1.31695 24.8972 3.84843 24.8972ZM2.31117 14.6433C1.93429 14.6529 1.62234 14.3313 1.61273 13.9427C1.60312 13.5755 1.92257 13.2635 2.30156 13.2635C2.69226 13.2635 2.99249 13.5755 2.99249 13.9427C2.99249 14.3313 2.68054 14.6337 2.31117 14.6433ZM4.30803 22.6013V5.31936H23.6517V22.6013H4.30803ZM25.6123 15.034C25.0118 15.034 24.5423 14.5453 24.5423 13.9427C24.5423 13.3519 25.0214 12.8632 25.6219 12.8632C26.2266 12.8632 26.7035 13.3519 26.7035 13.9427C26.7035 14.5453 26.2266 15.034 25.6123 15.034Z" fill="black"/>
</svg>
