<svg width="28" height="28" viewBox="0 0 28 28" fill="none" xmlns="http://www.w3.org/2000/svg">
<path d="M14.105 26.21C20.7369 26.21 26.2121 20.7273 26.2121 14.105C26.2121 7.47312 20.7273 2 14.0954 2C7.47523 2 2 7.47312 2 14.105C2 20.7273 7.48484 26.21 14.105 26.21ZM14.105 23.8255C8.71085 23.8255 4.39412 19.4991 4.39412 14.105C4.39412 8.71085 8.70124 4.38452 14.0954 4.38452C19.4895 4.38452 23.8276 8.71085 23.8276 14.105C23.8276 19.4991 19.4991 23.8255 14.105 23.8255Z" fill="black"/>
<path d="M11.5618 21.4384H16.6386C17.4221 21.4384 17.9912 21.0875 18.2659 20.4807V20.423L17.2358 19.3909V19.5542C17.1739 19.9332 16.9198 20.1296 16.4694 20.1296H11.7172C11.1701 20.1296 10.8769 19.846 10.8769 19.3278V13.0224L9.62842 11.7739V19.5699C9.62842 20.6853 10.4091 21.4384 11.5618 21.4384ZM12.657 19.6194H15.553C15.7522 19.6194 15.8853 19.4884 15.8853 19.2891C15.8853 19.074 15.7522 18.9334 15.553 18.9334H12.657C12.4578 18.9334 12.3151 19.074 12.3151 19.2891C12.3151 19.4884 12.4578 19.6194 12.657 19.6194ZM18.5719 16.4478V8.62629C18.5719 7.50879 17.7912 6.76746 16.6386 6.76746H11.5618C10.7548 6.76746 10.174 7.13004 9.90897 7.73684V7.77528L10.9583 8.82457V8.68043C10.9892 8.28011 11.255 8.0666 11.7172 8.0666H12.5576C12.6664 8.0666 12.7037 8.11347 12.7037 8.21683V8.3755C12.7037 8.67058 12.9008 8.87308 13.1916 8.87308H15.0087C15.2996 8.87308 15.4871 8.67058 15.4871 8.3755V8.21683C15.4871 8.11347 15.534 8.0666 15.6331 8.0666H16.4778C17.0302 8.0666 17.3234 8.3523 17.3234 8.87051V15.1993L18.5719 16.4478ZM19.1427 19.9686C19.3651 20.1964 19.7387 20.1985 19.9686 19.9686C20.1985 19.7387 20.1985 19.3843 19.9686 19.1448L9.0406 8.22434C8.80857 7.99442 8.43287 7.99442 8.20295 8.22434C7.98053 8.44465 7.98053 8.82785 8.20295 9.05027L19.1427 19.9686Z" fill="black"/>
</svg>
