<svg width="29" height="28" viewBox="0 0 29 28" fill="none" xmlns="http://www.w3.org/2000/svg">
<path d="M2.92101 22.67H25.5131C27.344 22.67 28.4437 21.5703 28.4437 19.7394V5.62105C28.4437 3.79223 27.344 2.70215 25.5131 2.70215H2.92101C1.09968 2.70215 0 3.79223 0 5.62105V19.7394C0 21.5703 1.09968 22.67 2.92101 22.67ZM2.73866 17.2447C2.39764 17.2447 2.24741 17.1179 2.24741 16.7534V5.75956C2.24741 5.2512 2.56077 4.94745 3.05741 4.94745H25.3863C25.883 4.94745 26.1963 5.2512 26.1963 5.75956V16.7534C26.1963 17.1179 26.0344 17.2447 25.6955 17.2447H2.73866ZM10.4006 25.3494H18.0431V22.4312H10.4006V25.3494ZM10.343 26.9061H18.1008C18.6839 26.9061 19.1564 26.423 19.1564 25.843C19.1564 25.2629 18.6839 24.7819 18.1008 24.7819H10.343C9.75984 24.7819 9.27773 25.2629 9.27773 25.843C9.27773 26.423 9.75984 26.9061 10.343 26.9061Z" fill="black"/>
<path d="M10.0549 14.1813C10.0549 14.864 10.383 15.1943 11.0264 15.1943H15.0433C15.6867 15.1943 16.0052 14.864 16.0052 14.1813V11.1134C16.0052 10.4306 15.6867 10.0887 15.0433 10.0887H11.0264C10.383 10.0887 10.0549 10.4306 10.0549 11.1134V14.1813ZM14.0313 10.7442H15.2611V9.15282C15.2611 8.31517 15.6949 7.7897 16.4728 7.7897C17.2486 7.7897 17.6941 8.31517 17.6941 9.15282V9.91525C17.6941 10.2528 17.9667 10.5349 18.3138 10.5349C18.6396 10.5349 18.9218 10.2528 18.9218 9.91525V9.15282C18.9218 7.65939 17.9662 6.58337 16.4728 6.58337C14.9869 6.58337 14.0313 7.65939 14.0313 9.24775V10.7442Z" fill="black"/>
</svg>
