<svg width="32" height="28" viewBox="0 0 32 28" fill="none" xmlns="http://www.w3.org/2000/svg">
<path d="M4.14843 20.322H21.1357C24.2674 20.322 25.282 18.8258 25.282 14.1669C25.282 9.49625 24.277 8 21.1357 8H4.14843C1.005 8 0 9.49625 0 14.1669C0 18.8258 1.005 20.322 4.14843 20.322ZM4.14843 13.3716C3.43921 13.3716 2.87906 12.8115 2.87906 12.1044C2.87906 11.409 3.43921 10.8563 4.14843 10.8563C4.84382 10.8563 5.39647 11.409 5.39647 12.1044C5.39647 12.8115 4.84382 13.3716 4.14843 13.3716Z" fill="black"/>
<path d="M26.7012 17.5496H29.4751C30.9282 17.5496 31.8462 16.6613 31.8462 15.2998V13.0084C31.8462 11.6565 30.9282 10.7586 29.4751 10.7586H26.7012C26.9014 11.7118 26.9855 12.8408 26.9855 14.1669C26.9855 15.4695 26.8918 16.5964 26.7012 17.5496Z" fill="black"/>
</svg>
