<svg width="28" height="28" viewBox="0 0 28 28" fill="none" xmlns="http://www.w3.org/2000/svg">
<path d="M5.41553 17.1697V24.5828C5.41553 26.6115 6.79975 27.936 8.89787 27.936H22.0721C24.1798 27.936 25.5544 26.6115 25.5544 24.5828V4.3628C25.5544 2.33406 24.1798 1 22.0721 1H8.89787C6.79975 1 5.41553 2.33406 5.41553 4.3628V11.7801H7.71145V4.74249C7.71145 3.82795 8.25427 3.29592 9.21778 3.29592H21.7618C22.7253 3.29592 23.2585 3.82795 23.2585 4.74249V24.2052C23.2585 25.1176 22.7253 25.6401 21.7618 25.6401H9.21778C8.25427 25.6401 7.71145 25.1176 7.71145 24.2052V17.1697H5.41553Z" fill="black"/>
<path d="M2.99257 15.445H10.6976L12.9615 15.3299L10.6461 17.3758L10.0013 18.0248C9.82788 18.2099 9.71304 18.4705 9.71304 18.7483C9.71304 19.3026 10.1119 19.6876 10.6491 19.6876C10.9311 19.6876 11.1716 19.5855 11.3546 19.4003L15.5051 15.2636C15.7571 15.0116 15.8879 14.7299 15.8879 14.4653C15.8879 14.1986 15.7571 13.8998 15.5051 13.6553L11.3546 9.52819C11.1716 9.34303 10.9311 9.24084 10.6491 9.24084C10.1119 9.24084 9.71304 9.62592 9.71304 10.1727C9.71304 10.4601 9.82577 10.709 10.0013 10.8941L10.6461 11.5548L12.9615 13.5911L10.6976 13.4739H2.99257C2.39562 13.4739 2 13.941 2 14.4653C2 14.9875 2.39562 15.445 2.99257 15.445Z" fill="black"/>
</svg>
