<svg width="30" height="28" viewBox="0 0 30 28" fill="none" xmlns="http://www.w3.org/2000/svg">
<path d="M3.84421 23.948H25.9999C28.5218 23.948 29.8462 22.6449 29.8462 20.1423V8.79616C29.8462 6.30523 28.5218 5 25.9999 5H3.84421C1.30523 5 0 6.29562 0 8.79616V20.1423C0 22.6449 1.30523 23.948 3.84421 23.948ZM3.97733 21.6521C2.88772 21.6521 2.29592 21.0805 2.29592 19.9419V8.99866C2.29592 7.85795 2.88772 7.29592 3.97733 7.29592H25.8572C26.9393 7.29592 27.5503 7.85795 27.5503 8.99866V19.9419C27.5503 21.0805 26.9393 21.6521 25.8572 21.6521H3.97733Z" fill="black"/>
<path d="M11.4073 11.7992H12.2555C12.4769 11.7992 12.6143 11.6523 12.6143 11.4137V10.059C12.6143 9.82252 12.4769 9.67346 12.2555 9.67346H11.4073C11.1858 9.67346 11.0484 9.82252 11.0484 10.059V11.4137C11.0484 11.6523 11.1858 11.7992 11.4073 11.7992ZM13.9432 11.7992H14.7818C15.0012 11.7992 15.1406 11.6523 15.1406 11.4137V10.059C15.1406 9.82252 15.0012 9.67346 14.7818 9.67346H13.9432C13.7217 9.67346 13.5748 9.82252 13.5748 10.059V11.4137C13.5748 11.6523 13.7217 11.7992 13.9432 11.7992ZM16.477 11.7992H17.3177C17.5275 11.7992 17.6744 11.6523 17.6744 11.4137V10.059C17.6744 9.82252 17.5275 9.67346 17.3177 9.67346H16.477C16.248 9.67346 16.1107 9.82252 16.1107 10.059V11.4137C16.1107 11.6523 16.248 11.7992 16.477 11.7992ZM19.0034 11.7992H19.8323C20.0634 11.7992 20.2008 11.6523 20.2008 11.4137V10.059C20.2008 9.82252 20.0634 9.67346 19.8323 9.67346H19.0034C18.7723 9.67346 18.6349 9.82252 18.6349 10.059V11.4137C18.6349 11.6523 18.7723 11.7992 19.0034 11.7992ZM21.5369 11.7992H22.3779C22.5877 11.7992 22.7367 11.6523 22.7367 11.4137V10.059C22.7367 9.82252 22.5877 9.67346 22.3779 9.67346H21.5369C21.3166 9.67346 21.1709 9.82252 21.1709 10.059V11.4137C21.1709 11.6523 21.3166 11.7992 21.5369 11.7992ZM24.0635 11.7992H24.8925C25.1236 11.7992 25.2609 11.6523 25.2609 11.4137V10.059C25.2609 9.82252 25.1236 9.67346 24.8925 9.67346H24.0635C23.8345 9.67346 23.6972 9.82252 23.6972 10.059V11.4137C23.6972 11.6523 23.8345 11.7992 24.0635 11.7992ZM11.4073 15.523H12.2555C12.4769 15.523 12.6143 15.3856 12.6143 15.1374V13.7924C12.6143 13.5442 12.4769 13.4068 12.2555 13.4068H11.4073C11.1858 13.4068 11.0484 13.5442 11.0484 13.7924V15.1374C11.0484 15.3856 11.1858 15.523 11.4073 15.523ZM13.9432 15.523H14.7818C15.0012 15.523 15.1406 15.3856 15.1406 15.1374V13.7924C15.1406 13.5442 15.0012 13.4068 14.7818 13.4068H13.9432C13.7217 13.4068 13.5748 13.5442 13.5748 13.7924V15.1374C13.5748 15.3856 13.7217 15.523 13.9432 15.523ZM16.477 15.523H17.3177C17.5275 15.523 17.6744 15.3856 17.6744 15.1374V13.7924C17.6744 13.5442 17.5275 13.4068 17.3177 13.4068H16.477C16.248 13.4068 16.1107 13.5442 16.1107 13.7924V15.1374C16.1107 15.3856 16.248 15.523 16.477 15.523ZM19.0034 15.523H19.8323C20.0634 15.523 20.2008 15.3856 20.2008 15.1374V13.7924C20.2008 13.5442 20.0634 13.4068 19.8323 13.4068H19.0034C18.7723 13.4068 18.6349 13.5442 18.6349 13.7924V15.1374C18.6349 15.3856 18.7723 15.523 19.0034 15.523ZM21.5369 15.523H22.3779C22.5877 15.523 22.7367 15.3856 22.7367 15.1374V13.7924C22.7367 13.5442 22.5877 13.4068 22.3779 13.4068H21.5369C21.3166 13.4068 21.1709 13.5442 21.1709 13.7924V15.1374C21.1709 15.3856 21.3166 15.523 21.5369 15.523ZM24.0635 15.523H24.8925C25.1236 15.523 25.2609 15.3856 25.2609 15.1374V13.7924C25.2609 13.5442 25.1236 13.4068 24.8925 13.4068H24.0635C23.8345 13.4068 23.6972 13.5442 23.6972 13.7924V15.1374C23.6972 15.3856 23.8345 15.523 24.0635 15.523ZM11.4073 19.2563H12.2555C12.4769 19.2563 12.6143 19.1094 12.6143 18.8708V17.5161C12.6143 17.2775 12.4769 17.1305 12.2555 17.1305H11.4073C11.1858 17.1305 11.0484 17.2775 11.0484 17.5161V18.8708C11.0484 19.1094 11.1858 19.2563 11.4073 19.2563ZM13.9432 19.2563H22.3779C22.5877 19.2563 22.7367 19.1094 22.7367 18.8708V17.5161C22.7367 17.2775 22.5877 17.1305 22.3779 17.1305H13.9432C13.7217 17.1305 13.5748 17.2775 13.5748 17.5161V18.8708C13.5748 19.1094 13.7217 19.2563 13.9432 19.2563ZM24.0635 19.2563H24.8925C25.1236 19.2563 25.2609 19.1094 25.2609 18.8708V17.5161C25.2609 17.2775 25.1236 17.1305 24.8925 17.1305H24.0635C23.8345 17.1305 23.6972 17.2775 23.6972 17.5161V18.8708C23.6972 19.1094 23.8345 19.2563 24.0635 19.2563ZM9.02201 13.7872L5.71076 10.6885C5.27224 10.2861 4.57568 10.4617 4.57568 11.0996V17.8388C4.57568 18.4885 5.27224 18.6619 5.71076 18.2595L9.02201 15.1512C9.4767 14.7327 9.4767 14.2079 9.02201 13.7872Z" fill="black"/>
</svg>
