<svg width="39" height="28" viewBox="0 0 39 28" fill="none" xmlns="http://www.w3.org/2000/svg">
<path d="M5.12898 9.82242C5.38164 8.65054 5.91578 7.08444 6.28141 6.42163C6.5936 5.84765 6.98617 5.60062 7.69914 5.49632C8.42383 5.39296 9.92289 5.33109 12.547 5.30976C12.8387 4.38375 13.2379 3.65156 13.9366 3C10.5297 3.01922 8.40649 3.09375 7.64219 3.18633C6.02243 3.37476 4.75938 4.23844 4.11298 5.6196C3.70282 6.47929 2.93689 8.70164 2.50118 10.8089L1.48212 12.1137C0.391341 13.5443 -0.00944115 14.6859 0.000168311 16.7444L0.00977777 18.7331C0.0193872 20.3386 0.976337 21.2901 2.66172 21.4786C3.88352 21.6213 5.98821 21.7406 8.28883 21.8226V16.7444C8.28883 14.6859 8.66524 13.5337 9.76117 12.1137L10.7898 10.8089L10.9412 10.328C8.5661 10.3685 7.14882 10.44 5.74492 10.5232C5.21617 10.5466 5.00664 10.3172 5.12898 9.82242ZM4.57001 18.0459C3.55821 18.0459 2.79673 17.2769 2.79673 16.2726C2.79673 15.2609 3.55821 14.5015 4.57001 14.5015C5.57219 14.5015 6.33368 15.2609 6.33368 16.2726C6.33368 17.2769 5.57219 18.0459 4.57001 18.0459ZM1.60751 25.249H3.01024C3.90392 25.249 4.58876 24.5545 4.58876 23.6705V20.3967L0.00977777 18.1364V23.6801C0.00977777 24.5641 0.71384 25.249 1.60751 25.249Z" fill="black"/>
<path d="M24.1385 21.9377C28.1393 21.9377 33.3806 21.7385 35.6114 21.4786C37.2968 21.288 38.2634 20.329 38.2634 18.7235V16.7348C38.2634 14.6763 37.8818 13.5347 36.7814 12.1137L35.7527 10.8089C35.3149 8.70164 34.5415 6.4889 34.1292 5.6196C33.4849 4.23844 32.2219 3.41531 30.6021 3.19594C29.7621 3.08414 27.2442 3.01922 24.1385 3.01922C21.0211 3.01922 18.5032 3.09375 17.6632 3.19594C16.0456 3.39609 14.7804 4.23844 14.1361 5.6196C13.7335 6.4889 12.9504 8.70164 12.5147 10.8089L11.486 12.1137C10.3835 13.5347 10.002 14.6763 10.002 16.7348V18.7235C10.002 20.329 10.9685 21.2901 12.6539 21.4786C14.8847 21.7364 20.126 21.9377 24.1385 21.9377ZM15.1266 9.73383C15.3888 8.56195 15.9091 7.0064 16.26 6.37733C16.5996 5.76116 16.9934 5.5003 17.7084 5.40773C18.5388 5.29476 20.5437 5.22116 24.1385 5.22116C27.7238 5.22116 29.7265 5.27554 30.5686 5.40773C31.2837 5.50991 31.6561 5.76116 32.0053 6.37733C32.3679 6.99679 32.8594 8.56195 33.1388 9.73383C33.259 10.2328 33.0516 10.458 32.5228 10.4346C30.7104 10.3247 28.4281 10.2096 24.1385 10.2096C19.8415 10.2096 17.557 10.3247 15.7425 10.4346C15.2138 10.458 15.0138 10.2328 15.1266 9.73383ZM15.5552 18.6766C14.4467 18.6766 13.6043 17.8247 13.6043 16.7161C13.6043 15.5979 14.4467 14.7555 15.5552 14.7555C16.6734 14.7555 17.5158 15.5979 17.5158 16.7161C17.5158 17.8247 16.6734 18.6766 15.5552 18.6766ZM20.9719 18.1826C20.1413 18.1826 19.5534 17.6023 19.5534 16.7641C19.5534 15.9356 20.1413 15.3553 20.9719 15.3553H27.2956C28.1241 15.3553 28.7119 15.9356 28.7119 16.7641C28.7119 17.6023 28.1241 18.1826 27.2956 18.1826H20.9719ZM32.7101 18.6766C31.5919 18.6766 30.7516 17.8247 30.7516 16.7161C30.7516 15.5979 31.5919 14.7555 32.7101 14.7555C33.8187 14.7555 34.661 15.5979 34.661 16.7161C34.661 17.8247 33.8187 18.6766 32.7101 18.6766ZM11.5901 25.249H13.0024C13.8961 25.249 14.581 24.5545 14.581 23.6705V20.6913L10.002 18.4214V23.6705C10.002 24.5545 10.6964 25.249 11.5901 25.249ZM35.2629 25.249H36.6752C37.5689 25.249 38.2634 24.5545 38.2634 23.6705V18.4214L33.6844 20.6913V23.6705C33.6844 24.5545 34.3788 25.249 35.2629 25.249Z" fill="black"/>
</svg>
