<svg width="28" height="28" viewBox="0 0 28 28" fill="none" xmlns="http://www.w3.org/2000/svg">
<path d="M9.35708 26.6408H18.5851C19.9946 26.6408 21.0289 25.994 21.5068 24.8931V24.845L18.7993 22.1472V22.2337H8.282V11.6415L5.98608 9.34562V23.4104C5.98608 25.3483 7.33724 26.6408 9.35708 26.6408ZM13.9527 25.3457C13.3501 25.3457 12.8615 24.857 12.8615 24.2523C12.8615 23.6615 13.3501 23.1749 13.9527 23.1749C14.5436 23.1749 15.0322 23.6615 15.0322 24.2523C15.0322 24.857 14.5436 25.3457 13.9527 25.3457ZM21.9055 18.4527V4.23249C21.9055 2.29258 20.5754 1 18.5851 1H9.35708C7.88919 1 6.81248 1.67875 6.34537 2.83281V2.89047L8.93683 5.48405V5.40717H19.6V16.1568L21.9055 18.4527ZM11.7508 3.27437C11.7508 2.9732 11.9518 2.77421 12.2413 2.77421H16.0096C16.299 2.77421 16.5001 2.9732 16.5001 3.27437C16.5001 3.57765 16.299 3.7628 16.0096 3.7628H12.2413C11.9518 3.7628 11.7508 3.57765 11.7508 3.27437Z" fill="black"/>
<path d="M23.2973 24.5429C23.6615 24.9147 24.2665 24.9072 24.6168 24.5429C24.979 24.1883 24.9811 23.5972 24.6168 23.2234L4.59562 3.21391C4.2314 2.84969 3.63609 2.84008 3.26437 3.21391C2.91188 3.5643 2.91188 4.18094 3.26437 4.53344L23.2973 24.5429Z" fill="black"/>
</svg>
