<svg width="28" height="28" viewBox="0 0 28 28" fill="none" xmlns="http://www.w3.org/2000/svg">
<path d="M14.4267 27.2711C19.9544 27.2711 22.863 23.9769 22.863 17.744C22.863 14.0015 22.7149 10.6227 22.4997 8.2977C22.0397 3.18317 19.6509 1.03302 14.4267 1.03302C9.21421 1.03302 6.82336 3.18317 6.35578 8.2977C6.14062 10.6227 6 14.0015 6 17.744C6 23.9769 8.89898 27.2711 14.4267 27.2711ZM14.4267 25.0426C10.3383 25.0426 8.23053 22.5641 8.23053 17.744C8.23053 14.2009 8.35944 10.8646 8.5842 8.50723C8.92944 4.56386 10.3566 3.26355 14.4267 3.26355C18.4969 3.26355 19.9336 4.56386 20.2788 8.50723C20.494 10.8646 20.6346 14.2009 20.6346 17.744C20.6346 22.5641 18.5173 25.0426 14.4267 25.0426ZM7.4939 10.1614H21.383V8.35208H7.4939V10.1614ZM13.5396 9.35847L15.349 9.37019V2.31809L13.5396 2.30426V9.35847Z" fill="black"/>
</svg>
