<svg width="28" height="28" viewBox="0 0 28 28" fill="none" xmlns="http://www.w3.org/2000/svg">
<path d="M9.37101 26.6312H18.5894C20.5797 26.6312 21.9098 25.3365 21.9098 23.3987V4.23249C21.9098 2.29258 20.5797 1 18.5894 1H9.37101C7.35117 1 6 2.29258 6 4.23038V23.4008C6 25.3365 7.35117 26.6312 9.37101 26.6312ZM9.76475 24.3247C8.82772 24.3247 8.29592 23.8206 8.29592 22.9253V4.70803C8.29592 3.81272 8.82772 3.30858 9.76475 3.30858H18.1568C19.0821 3.30858 19.6139 3.81905 19.6139 4.71014V22.9232C19.6139 23.8164 19.0821 24.3247 18.1568 24.3247H9.76475Z" fill="black"/>
<path d="M10.3273 22.7437H11.4457C11.7099 22.7437 11.9091 22.5658 11.9091 22.3176V21.1619C11.9091 20.9115 11.7099 20.7358 11.4457 20.7358H10.3273C10.0695 20.7358 9.8916 20.9115 9.8916 21.1619V22.3176C9.8916 22.5658 10.0695 22.7437 10.3273 22.7437ZM13.3744 22.7437H14.5004C14.7666 22.7437 14.9637 22.5658 14.9637 22.3176V21.1619C14.9637 20.9115 14.7666 20.7358 14.5004 20.7358H13.3744C13.1241 20.7358 12.9483 20.9115 12.9483 21.1619V22.3176C12.9483 22.5658 13.1241 22.7437 13.3744 22.7437ZM16.427 22.7437H17.5454C17.8191 22.7437 18.0088 22.5658 18.0088 22.3176V21.1619C18.0088 20.9115 17.8191 20.7358 17.5454 20.7358H16.427C16.1766 20.7358 16.0009 20.9115 16.0009 21.1619V22.3176C16.0009 22.5658 16.1766 22.7437 16.427 22.7437ZM10.3273 13.3787H11.4457C11.7099 13.3787 11.9091 13.2008 11.9091 12.9409V11.7969C11.9091 11.537 11.7099 11.3612 11.4457 11.3612H10.3273C10.0695 11.3612 9.8916 11.537 9.8916 11.7969V12.9409C9.8916 13.2008 10.0695 13.3787 10.3273 13.3787ZM13.3744 13.3787H14.5004C14.7666 13.3787 14.9637 13.2008 14.9637 12.9409V11.7969C14.9637 11.537 14.7666 11.3612 14.5004 11.3612H13.3744C13.1241 11.3612 12.9483 11.537 12.9483 11.7969V12.9409C12.9483 13.2008 13.1241 13.3787 13.3744 13.3787ZM10.3273 10.1659H11.4457C11.7099 10.1659 11.9091 9.988 11.9091 9.73769V8.58409C11.9091 8.32417 11.7099 8.14839 11.4457 8.14839H10.3273C10.0695 8.14839 9.8916 8.32417 9.8916 8.58409V9.73769C9.8916 9.988 10.0695 10.1659 10.3273 10.1659ZM13.3744 10.1659H14.5004C14.7666 10.1659 14.9637 9.988 14.9637 9.73769V8.58409C14.9637 8.32417 14.7666 8.14839 14.5004 8.14839H13.3744C13.1241 8.14839 12.9483 8.32417 12.9483 8.58409V9.73769C12.9483 9.988 13.1241 10.1659 13.3744 10.1659ZM16.427 10.1659H17.5454C17.8191 10.1659 18.0088 9.988 18.0088 9.73769V8.58409C18.0088 8.32417 17.8191 8.14839 17.5454 8.14839H16.427C16.1766 8.14839 16.0009 8.32417 16.0009 8.58409V9.73769C16.0009 9.988 16.1766 10.1659 16.427 10.1659ZM10.3273 6.96269H11.4457C11.7099 6.96269 11.9091 6.7848 11.9091 6.52698V5.38089C11.9091 5.12097 11.7099 4.94519 11.4457 4.94519H10.3273C10.0695 4.94519 9.8916 5.12097 9.8916 5.38089V6.52698C9.8916 6.7848 10.0695 6.96269 10.3273 6.96269ZM13.3744 6.96269H14.5004C14.7666 6.96269 14.9637 6.7848 14.9637 6.52698V5.38089C14.9637 5.12097 14.7666 4.94519 14.5004 4.94519H13.3744C13.1241 4.94519 12.9483 5.12097 12.9483 5.38089V6.52698C12.9483 6.7848 13.1241 6.96269 13.3744 6.96269ZM16.427 6.96269H17.5454C17.8191 6.96269 18.0088 6.7848 18.0088 6.52698V5.38089C18.0088 5.12097 17.8191 4.94519 17.5454 4.94519H16.427C16.1766 4.94519 16.0009 5.12097 16.0009 5.38089V6.52698C16.0009 6.7848 16.1766 6.96269 16.427 6.96269Z" fill="black"/>
</svg>
