<svg width="30" height="28" viewBox="0 0 30 28" fill="none" xmlns="http://www.w3.org/2000/svg">
<path d="M8.02171 4.07567C4.34297 4.05224 0 7.72794 0 11.2632C0 14.1841 2.93133 16.5482 5.34351 16.5344C8.68452 16.5226 13.1991 12.6828 13.1991 9.48739C13.1991 6.3995 10.8131 4.097 8.02171 4.07567ZM4.25343 14.8096C3.58663 14.8096 2.55984 13.9724 1.91648 12.9339C1.28484 11.874 1.31039 11.0507 1.97718 11.0507C2.63015 11.0507 3.66656 11.874 4.30242 12.9339C4.93406 13.9724 4.91062 14.8096 4.25343 14.8096ZM7.51031 9.57879C7.12687 9.04301 7.25999 8.32301 7.78406 7.95129L9.41929 6.76559C9.93374 6.38215 10.6634 6.51528 11.0234 7.05106C11.4281 7.57934 11.313 8.27379 10.7826 8.66684L9.15163 9.83121C8.60202 10.2264 7.87031 10.1071 7.51031 9.57879ZM8.60648 24.9592H10.046C10.8548 24.9592 11.388 24.523 11.388 23.7323V15.1028C10.17 16.1889 8.71992 17.0408 7.26234 17.4597V23.7323C7.26234 24.523 7.78804 24.9592 8.60648 24.9592ZM21.0119 4.07567C18.2205 4.097 15.8346 6.3995 15.8346 9.48739C15.8346 12.6828 20.3491 16.5226 23.6901 16.5344C26.1023 16.5482 29.0358 14.1841 29.0358 11.2632C29.0358 7.72794 24.6907 4.05224 21.0119 4.07567ZM24.7823 14.8096C24.1251 14.8096 24.0996 13.9724 24.7333 12.9339C25.3671 11.874 26.4035 11.0507 27.0586 11.0507C27.7254 11.0507 27.7488 11.874 27.1172 12.9339C26.4855 13.9724 25.447 14.8096 24.7823 14.8096ZM21.5255 9.57879C21.1633 10.1071 20.4337 10.2264 19.8937 9.83121L18.2627 8.66684C17.7227 8.27379 17.6076 7.57934 18.0124 7.05106C18.3724 6.51528 19.0999 6.38215 19.6144 6.76559L21.2592 7.95129C21.7854 8.32301 21.9068 9.04301 21.5255 9.57879ZM20.4272 24.9592C21.2477 24.9592 21.7734 24.523 21.7734 23.7323V17.4597C20.3158 17.0408 18.8658 16.1889 17.6456 15.1028V23.7323C17.6456 24.523 18.1788 24.9592 18.9898 24.9592H20.4272Z" fill="black"/>
</svg>
