<svg width="28" height="28" viewBox="0 0 28 28" fill="none" xmlns="http://www.w3.org/2000/svg">
<path d="M24.289 18.1429C24.289 19.0725 23.7849 19.6118 22.8896 19.6118H4.7778C3.87499 19.6118 3.37085 19.0725 3.37085 18.1429V16.6017C3.37085 16.4217 3.47632 16.3162 3.65421 16.3162H3.95749C4.45905 16.3162 4.81366 15.985 4.81366 15.4835V12.4146C4.81366 11.9109 4.45905 11.5797 3.95749 11.5797H3.65421C3.47632 11.5797 3.37085 11.4743 3.37085 11.2964V9.76262C3.37085 8.8352 3.87921 8.2959 4.77991 8.2959H22.8875C23.7807 8.2959 24.289 8.8352 24.289 9.76262V18.1429Z" fill="white"/>
<path d="M26.6483 18.5271V9.31828C26.6483 7.32797 25.3558 6 23.4179 6H4.25171C2.31179 6 1 7.32797 1 9.31828V18.5271C1 20.5469 2.31179 21.9077 4.24749 21.9077H23.4201C25.3558 21.9077 26.6483 20.5469 26.6483 18.5271ZM24.2891 18.1429C24.2891 19.0725 23.785 19.6118 22.8897 19.6118H4.77787C3.87506 19.6118 3.37092 19.0725 3.37092 18.1429V16.6017C3.37092 16.4217 3.47639 16.3162 3.65428 16.3162H3.95756C4.45912 16.3162 4.81373 15.9851 4.81373 15.4835V12.4146C4.81373 11.9109 4.45912 11.5798 3.95756 11.5798H3.65428C3.47639 11.5798 3.37092 11.4743 3.37092 11.2964V9.76264C3.37092 8.83522 3.87928 8.29592 4.77998 8.29592H22.8876C23.7808 8.29592 24.2891 8.83522 24.2891 9.76264V18.1429ZM10.7287 18.6898H16.941C17.2827 18.6898 17.5244 18.4523 17.5244 18.0968C17.5244 17.7412 17.2827 17.5092 16.941 17.5092H10.7287C10.3869 17.5092 10.1432 17.7412 10.1432 18.0968C10.1432 18.4523 10.3869 18.6898 10.7287 18.6898Z" fill="black"/>
</svg>
