<svg width="28" height="28" viewBox="0 0 28 28" fill="none" xmlns="http://www.w3.org/2000/svg">
<path d="M22.2337 19.6444H5.40501V8.33606H22.2337V19.6444ZM25.3436 13.9737C25.3436 14.5763 24.8645 15.065 24.2523 15.065C23.6615 15.065 23.1728 14.5763 23.1728 13.9737C23.1728 13.3829 23.6615 12.8942 24.2523 12.8942C24.8645 12.8942 25.3436 13.3829 25.3436 13.9737ZM3.93549 13.9737C3.93549 14.3879 3.6001 14.7136 3.19557 14.7136C2.78354 14.7136 2.45776 14.3879 2.45776 13.9737C2.45776 13.5617 2.78354 13.2455 3.19557 13.2455C3.6001 13.2455 3.93549 13.5617 3.93549 13.9737Z" fill="white"/>
<path d="M23.4104 21.9404C25.3461 21.9404 26.6483 20.5892 26.6483 18.5694V9.36055C26.6483 7.37024 25.3461 6.04016 23.4083 6.04016H4.23038C2.29258 6.04016 1 7.37024 1 9.36055V18.5694C1 20.5892 2.29258 21.9404 4.22827 21.9404H23.4104ZM22.2337 19.6445H5.40506V8.33608H22.2337V19.6445ZM25.3436 13.9737C25.3436 14.5763 24.8645 15.065 24.2523 15.065C23.6615 15.065 23.1728 14.5763 23.1728 13.9737C23.1728 13.3829 23.6615 12.8942 24.2523 12.8942C24.8645 12.8942 25.3436 13.3829 25.3436 13.9737ZM3.93554 13.9737C3.93554 14.3879 3.60015 14.7137 3.19562 14.7137C2.78359 14.7137 2.45781 14.3879 2.45781 13.9737C2.45781 13.5617 2.78359 13.2455 3.19562 13.2455C3.60015 13.2455 3.93554 13.5617 3.93554 13.9737Z" fill="black"/>
</svg>
