<svg width="28" height="28" viewBox="0 0 28 28" fill="none" xmlns="http://www.w3.org/2000/svg">
<path d="M14.105 26.21C20.7369 26.21 26.2121 20.7273 26.2121 14.105C26.2121 7.47312 20.7273 2 14.0954 2C7.47523 2 2 7.47312 2 14.105C2 20.7273 7.48484 26.21 14.105 26.21ZM14.105 23.8255C8.71085 23.8255 4.39412 19.4991 4.39412 14.105C4.39412 8.71085 8.70124 4.38452 14.0954 4.38452C19.4895 4.38452 23.8276 8.71085 23.8276 14.105C23.8276 19.4991 19.4991 23.8255 14.105 23.8255Z" fill="black"/>
<path d="M11.5523 21.4384H16.6291C17.7838 21.4384 18.572 20.6853 18.572 19.5699V8.62629C18.572 7.50879 17.7838 6.76746 16.6291 6.76746H11.5523C10.4092 6.76746 9.6189 7.50879 9.6189 8.62629V19.5699C9.6189 20.6853 10.4092 21.4384 11.5523 21.4384ZM11.7173 20.1296C11.1702 20.1296 10.8674 19.846 10.8674 19.3278V8.86629C10.8674 8.35019 11.1702 8.0666 11.7173 8.0666H12.5577C12.6686 8.0666 12.7038 8.11347 12.7038 8.21683V8.3755C12.7038 8.67058 12.8913 8.87308 13.1917 8.87308H14.9992C15.2922 8.87308 15.4872 8.67058 15.4872 8.3755V8.21683C15.4872 8.11347 15.5341 8.0666 15.6353 8.0666H16.4779C17.0228 8.0666 17.3256 8.3523 17.3256 8.87051V19.3257C17.3256 19.8439 17.0228 20.1296 16.4779 20.1296H11.7173ZM12.6475 19.6194H15.5435C15.7427 19.6194 15.8875 19.4884 15.8875 19.2891C15.8875 19.074 15.7427 18.9334 15.5435 18.9334H12.6475C12.4504 18.9334 12.3056 19.074 12.3056 19.2891C12.3056 19.4884 12.4504 19.6194 12.6475 19.6194Z" fill="black"/>
</svg>
