<svg width="28" height="28" viewBox="0 0 28 28" fill="none" xmlns="http://www.w3.org/2000/svg">
<path d="M5 19.8246C5 23.213 7.0789 25.3113 10.381 25.3113C12.8525 25.3113 14.6799 24.1894 15.8417 22.0748L16.8837 20.1881C19.1961 15.9305 23.3354 15.1251 23.3354 9.29578C23.3354 3.72492 19.7066 0 14.2723 0C8.73242 0 5 3.75468 5 9.36163V19.8246ZM7.05429 19.7264V9.36163C7.05429 4.97062 9.94085 2.05429 14.2723 2.05429C18.481 2.05429 21.2811 4.96218 21.2811 9.29578C21.2811 14.1253 17.483 14.9648 15.0212 19.3153L14.0501 21.015C13.2308 22.4829 12.1002 23.2186 10.4757 23.2186C8.34147 23.2186 7.05429 21.9014 7.05429 19.7264Z" fill="black"/>
<path d="M8.82446 16.406C8.82446 17.6142 9.74274 18.4312 11.116 18.4312C12.9108 18.4216 14.1284 16.9638 14.1284 15.0792C14.1284 11.7675 10.71 11.205 10.7121 8.79866C10.7121 7.00733 12.1362 5.70491 14.2627 5.70491C16.4433 5.70491 17.8554 7.11819 17.8554 9.27867C17.8554 9.79499 18.2791 10.2284 18.7954 10.2284C19.3076 10.2284 19.7409 9.79499 19.7409 9.27867C19.7409 6.01523 17.5504 3.82148 14.2627 3.82148C11.0098 3.82148 8.82446 5.90413 8.82446 8.79866C8.82446 11.3585 11.1361 12.1758 11.1361 13.2766C11.1361 14.5169 8.82446 14.2652 8.82446 16.406Z" fill="black"/>
</svg>
