<svg width="28" height="28" viewBox="0 0 28 28" fill="none" xmlns="http://www.w3.org/2000/svg">
<path d="M13.8256 24.7837C18.1428 24.7837 20.0075 24.2299 21.7658 22.5951C24.2154 20.3606 25.6416 17.126 25.6416 13.7006C25.6416 10.9641 24.7372 8.32898 22.8718 6.14039C22.3665 5.49586 21.822 5.45953 21.252 5.85632C19.4944 7.14984 17.4019 7.79976 13.8256 7.79976C10.2397 7.79976 8.14718 7.14984 6.39921 5.85632C5.82921 5.45953 5.27726 5.49586 4.77195 6.14039C2.91406 8.32898 2 10.9641 2 13.7006C2 17.126 3.42617 20.3606 5.87586 22.5951C7.63413 24.2299 9.49882 24.7837 13.8256 24.7837Z" fill="black"/>
<path d="M13.8257 6.1596C17.0899 6.1596 19.397 5.52655 19.397 4.64483C19.397 3.7514 17.092 3.14178 13.8257 3.14178C10.5688 3.14178 8.26587 3.7514 8.26587 4.64483C8.26587 5.52655 10.5709 6.1596 13.8257 6.1596Z" fill="black"/>
</svg>
