<svg width="30" height="28" viewBox="0 0 30 28" fill="none" xmlns="http://www.w3.org/2000/svg">
<path d="M3.23108 22.7647H26.572C28.6962 22.7647 29.8031 21.7079 29.8031 19.5336V6.02796C29.8031 3.86328 28.6962 2.80649 26.572 2.80649H3.23108C1.10695 2.80649 0 3.86328 0 6.02796V19.5336C0 21.7079 1.10695 22.7647 3.23108 22.7647ZM8.90578 26.8639H20.8952C21.4783 26.8639 21.9604 26.3829 21.9604 25.8029C21.9604 25.2228 21.4783 24.7397 20.8952 24.7397H8.90578C8.32476 24.7397 7.84265 25.2228 7.84265 25.8029C7.84265 26.3829 8.32476 26.8639 8.90578 26.8639Z" fill="black"/>
</svg>
