<svg width="29" height="28" viewBox="0 0 29 28" fill="none" xmlns="http://www.w3.org/2000/svg">
<path d="M7.41609 23.0659H21.0722C26.0885 23.0659 28.4883 20.7142 28.4883 15.8036V11.2987C28.4883 6.36884 26.1269 4.00751 21.1779 4.00751H7.31038C2.36883 4.00751 0 6.36884 0 11.2987V15.8036C0 20.7142 2.39765 23.0659 7.41609 23.0659ZM7.39288 20.77C3.88405 20.77 2.29592 19.2395 2.29592 15.8289V11.2734C2.29592 7.84351 3.84561 6.30343 7.28718 6.30343H21.199C24.6523 6.30343 26.1902 7.84351 26.1902 11.2734V15.8289C26.1902 19.2395 24.6138 20.77 21.0933 20.77H7.39288ZM1.15382 12.1197H27.3344V10.8812H1.15382V12.1197ZM14.2441 16.4875C14.8863 16.4854 15.4167 15.9592 15.4167 15.3191C15.4167 14.6748 14.8863 14.1562 14.2441 14.1562C13.6041 14.1562 13.0812 14.6748 13.0812 15.3191C13.0812 15.9592 13.6041 16.4896 14.2441 16.4875Z" fill="black"/>
</svg>
