<svg width="28" height="28" viewBox="0 0 28 28" fill="none" xmlns="http://www.w3.org/2000/svg">
<path d="M14.105 26.21C20.7369 26.21 26.2121 20.7273 26.2121 14.105C26.2121 7.47312 20.7273 2 14.0954 2C7.47523 2 2 7.47312 2 14.105C2 20.7273 7.48484 26.21 14.105 26.21ZM14.105 23.8255C8.71085 23.8255 4.39412 19.4991 4.39412 14.105C4.39412 8.71085 8.70124 4.38452 14.0954 4.38452C19.4895 4.38452 23.8276 8.71085 23.8276 14.105C23.8276 19.4991 19.4991 23.8255 14.105 23.8255Z" fill="black"/>
<path d="M9.04304 18.1843H19.1446C20.2342 18.1843 20.8731 17.555 20.8731 16.4654V10.6608C20.8731 9.56163 20.2438 8.92812 19.1446 8.92812H9.04304C7.95343 8.92812 7.3103 9.56163 7.3103 10.6608V16.4654C7.3103 17.555 7.96304 18.1843 9.04304 18.1843ZM9.22257 16.5664C9.00389 16.5664 8.9378 16.5003 8.9378 16.2837V10.8404C8.9378 10.6121 9.00389 10.546 9.22257 10.546H18.963C19.1796 10.546 19.2574 10.6238 19.2574 10.8404V16.2837C19.2574 16.4907 19.1796 16.5664 18.963 16.5664H9.22257ZM11.0603 20.5822H17.1562C17.5884 20.5822 17.9313 20.2297 17.9313 19.7858C17.9313 19.3632 17.5788 19.0128 17.1562 19.0128H11.0603C10.6239 19.0128 10.2639 19.3632 10.2639 19.7858C10.2639 20.2297 10.6143 20.5822 11.0603 20.5822Z" fill="black"/>
</svg>
