<svg width="29" height="28" viewBox="0 0 29 28" fill="none" xmlns="http://www.w3.org/2000/svg">
<path d="M2.92101 22.67H25.5131C27.344 22.67 28.4437 21.5703 28.4437 19.7394V5.62105C28.4437 3.79223 27.344 2.70215 25.5131 2.70215H2.92101C1.09968 2.70215 0 3.79223 0 5.62105V19.7394C0 21.5703 1.09968 22.67 2.92101 22.67ZM3.05741 20.4226C2.56077 20.4226 2.24741 20.1092 2.24741 19.6126V5.75956C2.24741 5.2512 2.56077 4.94745 3.05741 4.94745H25.3863C25.883 4.94745 26.1963 5.2512 26.1963 5.75956V19.6126C26.1963 20.1092 25.883 20.4226 25.3863 20.4226H3.05741ZM10.4006 25.3494H18.0431V22.4312H10.4006V25.3494ZM10.343 26.9061H18.1008C18.6839 26.9061 19.1564 26.423 19.1564 25.843C19.1564 25.2629 18.6839 24.7819 18.1008 24.7819H10.343C9.75984 24.7819 9.27773 25.2629 9.27773 25.843C9.27773 26.423 9.75984 26.9061 10.343 26.9061Z" fill="black"/>
<path d="M12.2223 16.6862H16.2372C16.8805 16.6862 17.199 16.3442 17.199 15.6615V12.5914C17.199 12.0568 16.9935 11.7458 16.6016 11.6115V10.8453C16.6016 9.25904 15.6365 8.18091 14.2335 8.18091C12.8188 8.18091 11.8632 9.25904 11.8632 10.8453V11.6349C11.4618 11.7479 11.2583 12.0568 11.2583 12.5914V15.6615C11.2583 16.3442 11.5768 16.6862 12.2223 16.6862ZM13.093 11.5805V10.7525C13.093 9.90521 13.5268 9.37763 14.2335 9.37763C14.9188 9.37763 15.374 9.90521 15.374 10.7525V11.5805H13.093Z" fill="black"/>
</svg>
