<svg width="28" height="28" viewBox="0 0 28 28" fill="none" xmlns="http://www.w3.org/2000/svg">
<path d="M14.105 26.2301C20.7369 26.2301 26.2121 20.7549 26.2121 14.123C26.2121 7.50289 20.7273 2.01805 14.0954 2.01805C7.47523 2.01805 2 7.50289 2 14.123C2 20.7549 7.48484 26.2301 14.105 26.2301Z" fill="black"/>
<path d="M7.56714 18.0802V14.8904C7.56714 13.9508 7.74948 13.4096 8.26089 12.766L8.74347 12.1576C8.95019 11.1676 9.2912 10.1466 9.4862 9.74702C9.78878 9.11421 10.3672 8.73288 11.1055 8.63702C11.5028 8.58804 12.6645 8.5646 14.105 8.5646C15.5401 8.5646 16.7136 8.58804 17.0991 8.63702C17.847 8.74249 18.4212 9.11421 18.7184 9.74702C18.9113 10.1466 19.2544 11.1676 19.4708 12.1576L19.9437 12.766C20.4648 13.4096 20.6333 13.9508 20.6333 14.8904V18.0802C20.6333 18.4958 20.3115 18.8176 19.9034 18.8176H19.2481C18.8305 18.8176 18.5108 18.4958 18.5108 18.0802V17.1544C17.2981 17.2386 15.5401 17.2855 14.105 17.2855C12.672 17.2855 10.9044 17.2365 9.69386 17.1544V18.0802C9.69386 18.4958 9.37417 18.8176 8.96612 18.8176H8.30659C7.89316 18.8176 7.56714 18.4958 7.56714 18.0802ZM12.1128 13.3592C12.1128 13.4966 12.2267 13.6062 12.3758 13.6062H13.8495L13.1387 15.5375C12.9917 15.9134 13.3953 16.1211 13.6423 15.8176L16.0173 12.8007C16.0566 12.7304 16.1014 12.6441 16.1014 12.5717C16.1014 12.4248 15.9875 12.313 15.8405 12.313L14.3626 12.3226L15.0852 10.3838C15.2204 10.0079 14.8381 9.81944 14.5953 10.1208L12.2012 13.1398C12.1405 13.208 12.1128 13.2847 12.1128 13.3592Z" fill="white"/>
</svg>
