<svg width="28" height="28" viewBox="0 0 28 28" fill="none" xmlns="http://www.w3.org/2000/svg">
<path d="M5 18.726C5 20.5508 5.70641 21.8889 7.04961 22.6597C7.70891 23.0249 8.09867 23.4733 8.34359 24.2415L8.79664 25.603C9.04249 26.3678 9.61202 26.7501 10.4309 26.7501H15.9146C16.7548 26.7501 17.2934 26.3774 17.5393 25.603L18.0019 24.2415C18.2469 23.4733 18.6387 23.0249 19.2959 22.6597C20.637 21.8889 21.3455 20.553 21.3455 18.726V9.02405C21.3455 7.1971 20.637 5.87077 19.2959 5.09031C18.6387 4.72515 18.2469 4.27468 18.0019 3.51812L17.5393 2.14703C17.3148 1.39187 16.7452 1 15.9146 1H10.4309C9.61202 1 9.04249 1.38226 8.79664 2.14703L8.34359 3.51812C8.10195 4.27351 7.70797 4.74531 7.04961 5.09031C5.71602 5.83984 5 7.17788 5 9.02405V18.726ZM7.03788 18.3597V9.39999C7.03788 7.68764 8.02577 6.66248 9.69663 6.66248H16.651C18.3198 6.66248 19.3119 7.68975 19.3119 9.39999V18.3597C19.3119 20.0603 18.3198 21.0855 16.651 21.0855H9.69663C8.02577 21.0855 7.03788 20.0624 7.03788 18.3597ZM20.9612 13.09H21.4484C22.1105 13.09 22.5533 12.6355 22.5533 11.9148V10.3117C22.5533 9.59523 22.1105 9.13867 21.4484 9.13867H20.9612V13.09Z" fill="black"/>
<path d="M9.71585 11.3542C9.39874 11.7203 9.44773 12.2875 9.82976 12.6121L12.1857 14.5897C12.7234 15.039 13.2587 15.039 13.7666 14.5897L17.7783 11.0851C18.1508 10.7563 18.155 10.1849 17.7964 9.82094C17.4601 9.49212 16.9248 9.49001 16.5566 9.81673L12.9596 12.9362L10.9524 11.2403C10.5863 10.9445 10.0489 10.986 9.71585 11.3542Z" fill="black"/>
</svg>
