<svg width="28" height="28" viewBox="0 0 28 28" fill="none" xmlns="http://www.w3.org/2000/svg">
<path d="M13.6279 12.9269C15.6383 12.9269 17.2642 11.301 17.2642 9.29053C17.2642 7.29178 15.6383 5.6542 13.6279 5.6542C11.6312 5.6542 10.0171 7.29178 10.0171 9.29053C10.0171 11.301 11.6312 12.9269 13.6279 12.9269ZM13.63 11.4114C12.4656 11.4114 11.5304 10.4741 11.5304 9.29053C11.5304 8.11654 12.4656 7.16966 13.63 7.16966C14.8136 7.16966 15.7508 8.11654 15.7508 9.29053C15.7508 10.4741 14.8136 11.4114 13.63 11.4114ZM10.371 26.6408H16.9417C18.9704 26.6408 20.2621 25.3771 20.2621 23.4083V4.23249C20.2621 2.26375 18.9704 1 16.9417 1H10.371C8.31273 1 7 2.26375 7 4.23038V23.4104C7 25.3771 8.31273 26.6408 10.371 26.6408ZM10.7648 24.2795C9.83733 24.2795 9.29592 23.7658 9.29592 22.8822V4.75866C9.29592 3.87506 9.83733 3.36131 10.7648 3.36131H16.509C17.4248 3.36131 17.9662 3.87928 17.9662 4.76076V22.8801C17.9662 23.7615 17.4248 24.2795 16.509 24.2795H10.7648Z" fill="black"/>
</svg>
