<svg width="28" height="28" viewBox="0 0 28 28" fill="none" xmlns="http://www.w3.org/2000/svg">
<path d="M4 19.4069C4 21.251 5.13695 22.4348 6.87765 22.4348H22.0454C23.7861 22.4348 24.9231 21.251 24.9231 19.4069V9.02999C24.9231 7.18593 23.7861 6 22.0454 6H6.87765C5.13695 6 4 7.18593 4 9.02999V19.4069ZM6.3592 19.0228V9.41413C6.3592 8.72014 6.7642 8.29592 7.41553 8.29592H21.5151C22.1589 8.29592 22.5618 8.72014 22.5618 9.46264V19.0228C22.5618 19.7168 22.1589 20.1389 21.5151 20.1389H7.41553C6.7642 20.1389 6.3592 19.7168 6.3592 19.0228ZM16.4671 18.8133C19.0119 18.8133 21.0667 16.751 21.0667 14.2136C21.0667 11.6763 19.0119 9.61405 16.4671 9.61405C13.9319 9.61405 11.8834 11.6763 11.8834 14.2136C11.8834 16.751 13.9319 18.8133 16.4671 18.8133ZM16.4713 17.0538C14.886 17.0538 13.6386 15.7969 13.6386 14.2136C13.6386 12.6283 14.886 11.3735 16.4713 11.3735C18.0641 11.3735 19.3115 12.6283 19.3115 14.2136C19.3115 15.7969 18.0641 17.0538 16.4713 17.0538Z" fill="black"/>
</svg>
