<svg width="28" height="28" viewBox="0 0 28 28" fill="none" xmlns="http://www.w3.org/2000/svg">
<path d="M9.37882 23.9925H19.2744C24.2947 23.9925 26.6553 21.6223 26.6553 16.6137V11.2001H20.5477C20.323 11.7403 19.7935 12.0801 19.1351 12.0801H9.52015C8.87562 12.0801 8.33444 11.7403 8.11718 11.2001H2V16.6137C2 21.6223 4.35852 23.9925 9.37882 23.9925ZM14.3276 16.7794C13.6972 16.7911 13.1668 16.2586 13.1668 15.6398C13.1668 14.9977 13.6972 14.479 14.3276 14.479C14.9602 14.479 15.4885 14.9977 15.4885 15.6398C15.4885 16.2298 14.9602 16.7676 14.3276 16.7794ZM2 9.95624H8.09796C8.30562 9.4064 8.84679 9.06656 9.49132 9.06656H19.1234C19.768 9.06656 20.3091 9.4064 20.5285 9.95624H26.6147V9.58195C26.6147 5.11851 24.0129 3 19.2359 3H9.37882C4.61141 3 2 5.11851 2 9.58195V9.95624Z" fill="black"/>
</svg>
