<svg width="28" height="28" viewBox="0 0 28 28" fill="none" xmlns="http://www.w3.org/2000/svg">
<path d="M8.49796 25.017H17.5352C20.9337 25.017 23.0332 22.8802 23.0332 19.419V7.62144C23.0332 4.16231 20.9337 2.03302 17.5352 2.03302H8.49796C5.10164 2.03302 3 4.16231 3 7.62144V19.419C3 22.8802 5.10164 25.017 8.49796 25.017ZM8.43069 22.7759C6.42936 22.7759 5.2453 21.56 5.2453 19.4862V7.60012C5.2453 5.53808 6.42936 4.32425 8.43069 4.32425H17.6046C19.6134 4.32425 20.79 5.53808 20.79 7.60012V19.4862C20.79 21.56 19.6134 22.7759 17.6046 22.7759H8.43069ZM22.7315 12.3505H23.3095C24.1017 12.3505 24.6117 11.8053 24.6117 10.9503V8.99113C24.6117 8.12113 24.1017 7.57176 23.3095 7.57176H22.7315V12.3505Z" fill="black"/>
<path d="M6.72998 9.55083C6.72998 10.5652 7.31498 11.1875 8.27826 11.1875H17.7664C18.7201 11.1875 19.3051 10.5652 19.3051 9.55083V7.39974C19.3051 6.38325 18.7201 5.75348 17.7664 5.75348H8.27826C7.31498 5.75348 6.72998 6.38325 6.72998 7.39974V9.55083ZM8.16575 9.37716V7.57129C8.16575 7.33973 8.3045 7.18715 8.53607 7.18715H17.5065C17.7402 7.18715 17.8693 7.33973 17.8693 7.57129V9.37716C17.8693 9.61083 17.7402 9.75169 17.5065 9.75169H8.53607C8.3045 9.75169 8.16575 9.61083 8.16575 9.37716Z" fill="black"/>
</svg>
