<svg width="28" height="28" viewBox="0 0 28 28" fill="none" xmlns="http://www.w3.org/2000/svg">
<path d="M7.96514 26.8881H20.6031C22.2644 26.8881 23.0861 26.1358 23.0861 24.4148V22.3968H23.9052C26.2853 22.3968 27.5683 21.164 27.5683 18.7818V9.3545C27.5683 6.97232 26.2853 5.7299 23.9052 5.7299H4.65343C2.38117 5.7299 1 6.97232 1 9.3545V18.7818C1 21.164 2.28297 22.3968 4.65343 22.3968H5.48429V24.4148C5.48429 26.1358 6.3039 26.8881 7.96514 26.8881ZM8.45827 24.8751C7.88873 24.8751 7.60725 24.5957 7.60725 24.0241V15.5026C7.60725 14.9406 7.89834 14.6633 8.45827 14.6633H20.1217C20.6816 14.6633 20.961 14.9406 20.961 15.5026V24.0241C20.961 24.5957 20.6816 24.8751 20.1217 24.8751H8.45827ZM5.7482 4.05741H22.8201V3.88561C22.8201 2.11537 21.3923 1.29553 19.4369 1.29553H9.1314C7.24749 1.29553 5.7482 2.11537 5.7482 3.88561V4.05741ZM10.4134 18.594H18.1804C18.6306 18.594 18.9766 18.2439 18.9766 17.7862C18.9766 17.3476 18.6306 17.0113 18.1804 17.0113H10.4134C9.94186 17.0113 9.60554 17.3476 9.60554 17.7862C9.60554 18.2439 9.94397 18.594 10.4134 18.594ZM10.4134 22.5805H18.1804C18.6306 22.5805 18.9766 22.2346 18.9766 21.7982C18.9766 21.348 18.6306 20.9978 18.1804 20.9978H10.4134C9.94397 20.9978 9.60554 21.348 9.60554 21.7982C9.60554 22.2346 9.94186 22.5805 10.4134 22.5805ZM19.8756 9.7881C19.8756 8.95208 20.5881 8.22786 21.4455 8.22786C22.2719 8.22786 22.9961 8.95208 22.9961 9.7881C22.9961 10.6475 22.274 11.3249 21.4455 11.3366C20.586 11.3387 19.8756 10.6572 19.8756 9.7881Z" fill="black"/>
</svg>
