<svg width="28" height="28" viewBox="0 0 28 28" fill="none" xmlns="http://www.w3.org/2000/svg">
<path d="M14.0691 11.7504C21.3584 11.7504 26.1362 9.44952 26.1362 5.87999C26.1362 2.31258 21.3584 0 14.0691 0C6.77023 0 2 2.31258 2 5.87999C2 9.44952 6.77023 11.7504 14.0691 11.7504ZM14.0691 9.50508C8.18327 9.50508 4.29592 8.04586 4.29592 5.87999C4.29592 3.71624 8.18327 2.24741 14.0691 2.24741C19.955 2.24741 23.8402 3.71624 23.8402 5.87999C23.8402 8.04586 19.955 9.50508 14.0691 9.50508ZM14.0691 17.8636C21.5858 17.8636 26.1362 15.6947 26.1362 10.639V5.87999H23.8402V10.639C23.8402 14.2137 20.1439 15.5677 14.0691 15.5677C7.99436 15.5677 4.29592 14.2137 4.29592 10.639V5.87999H2V10.639C2 15.6947 6.54078 17.8636 14.0691 17.8636ZM7.54271 12.0356V9.89061H5.9274V12.0356C5.9274 12.4786 6.29795 12.8491 6.73881 12.8491C7.18388 12.8491 7.54271 12.4807 7.54271 12.0356ZM11.0138 12.8008V10.6516H9.39428V12.8008C9.39428 13.2438 9.75311 13.6123 10.1982 13.6123C10.6433 13.6123 11.0138 13.2438 11.0138 12.8008ZM14.7535 13.095V10.9458H13.1382V13.095C13.1382 13.538 13.5066 13.8947 13.9496 13.8947C14.3947 13.8947 14.7535 13.538 14.7535 13.095ZM18.507 12.8008V10.6516H16.8875V12.8008C16.8875 13.2438 17.258 13.6123 17.7031 13.6123C18.1482 13.6123 18.507 13.2438 18.507 12.8008ZM21.9739 12.0356V9.89061H20.3586V12.0356C20.3586 12.4807 20.7174 12.8491 21.1604 12.8491C21.6034 12.8491 21.9739 12.4786 21.9739 12.0356Z" fill="black"/>
<path d="M23.4361 23.4464C23.4361 22.8061 22.8904 22.1733 22.0608 22.4796C19.95 23.2019 17.5854 23.5919 15.108 23.5919C12.5758 23.5919 10.1627 23.1829 8.02565 22.4226L7.33003 24.4022C9.68738 25.2316 12.3525 25.6842 15.108 25.6842C17.8003 25.6842 20.4147 25.2389 22.7468 24.457C23.25 24.289 23.4361 23.857 23.4361 23.4464ZM8.76486 26.6109L10.45 21.2404C10.7217 20.3353 9.80713 19.7622 9.11948 20.0376L4.95605 21.6518C4.31972 21.9025 4.11628 22.5916 4.51917 23.1736L7.02088 26.8846C7.45799 27.5179 8.50072 27.4776 8.76486 26.6109Z" fill="black"/>
</svg>
