<svg width="28" height="28" viewBox="0 0 28 28" fill="none" xmlns="http://www.w3.org/2000/svg">
<path d="M14.2443 11.8477C16.7385 11.8147 18.4155 10.344 19.2072 9.11491C19.4542 8.71671 19.5799 8.27702 19.5799 7.7989V6.05304C19.5799 5.56648 19.4617 5.12257 19.2051 4.72859C18.3646 3.48688 16.7322 2 14.2443 2C11.4051 2 9.0398 4.20875 9.00042 6.90523C8.96316 9.63475 11.4009 11.8733 14.2443 11.8477ZM17.272 8.87304C16.9345 8.87304 16.6757 8.61218 16.6757 8.27679V5.56132C16.6757 5.22593 16.9345 4.96507 17.272 4.96507C17.6053 4.96507 17.8544 5.22593 17.8544 5.56132V8.27679C17.8544 8.61218 17.6053 8.87304 17.272 8.87304ZM13.7585 21.4229V13.0653C12.4289 12.9863 11.1897 12.5091 10.1774 11.7331V21.4229H13.7585ZM12.4771 25.4145C13.2562 25.4145 13.7585 25.0018 13.7585 24.2408V22.7002H10.1774V24.2408C10.1774 25.0018 10.6755 25.4145 11.4684 25.4145H12.4771Z" fill="black"/>
</svg>
