<svg width="28" height="29" viewBox="0 0 28 29" fill="none" xmlns="http://www.w3.org/2000/svg">
<path d="M13.0517 18.0653C13.5929 18.0653 13.8528 17.7137 14.5133 17.7137C15.2089 17.7137 15.373 18.0653 15.9727 18.0653C16.5767 18.0653 16.9773 17.4911 17.3544 16.9712C17.7901 16.3576 17.9424 15.744 17.9541 15.6993C17.919 15.6854 16.7759 15.238 16.7759 13.9192C16.7759 12.7857 17.6729 12.2659 17.7315 12.2329C17.1179 11.3711 16.2326 11.3476 15.9727 11.3476C15.3026 11.3476 14.7615 11.7503 14.4078 11.7503C14.0424 11.7503 13.5694 11.3711 12.9814 11.3711C11.8735 11.3711 10.7656 12.2797 10.7656 14.0108C10.7656 15.0857 11.1779 16.2053 11.6839 16.9361C12.1196 17.5497 12.4988 18.0653 13.0517 18.0653ZM14.4664 11.2656C14.8648 11.2656 15.373 10.994 15.668 10.6286C15.9397 10.2983 16.1272 9.83924 16.1272 9.39182C16.1272 9.31939 16.1272 9.2608 16.1155 9.21603C15.668 9.22775 15.1386 9.509 14.8062 9.87439C14.5463 10.1673 14.3354 10.6286 14.3354 11.0877C14.3354 11.158 14.3354 11.2304 14.3492 11.2422C14.3705 11.2635 14.4078 11.2656 14.4664 11.2656ZM4.56546 28.1427H6.31952C7.36577 28.1427 8.06912 27.6362 8.3417 26.6687L8.78959 25.1333H19.8833L20.3312 26.6687C20.6037 27.6362 21.3167 28.1427 22.363 28.1427H24.117C25.7607 28.1427 26.6729 27.1794 26.6729 25.4537V2.69643C26.6729 0.970724 25.7607 0.00744629 24.117 0.00744629H22.363C21.3167 0.00744629 20.6037 0.511819 20.3312 1.48143L19.8833 3.01682H8.78959L8.3417 1.48143C8.06912 0.511819 7.36577 0.00744629 6.31952 0.00744629H4.56546C2.92179 0.00744629 2 0.970724 2 2.69643V25.4537C2 27.1794 2.92179 28.1427 4.56546 28.1427ZM4.82186 25.8468C4.49327 25.8468 4.29592 25.6419 4.29592 25.3091V2.84103C4.29592 2.50611 4.49327 2.30337 4.82186 2.30337H5.94851C6.15101 2.30337 6.31531 2.42595 6.37929 2.62751L6.89421 4.42142C7.06554 5.01603 7.44499 5.31275 8.15046 5.31275H20.532C21.2279 5.31275 21.6073 5.01603 21.7787 4.42142L22.2936 2.62751C22.3576 2.42595 22.5219 2.30337 22.7244 2.30337H23.851C24.1796 2.30337 24.377 2.50611 24.377 2.84103V25.3091C24.377 25.6419 24.1796 25.8468 23.851 25.8468H22.7244C22.5219 25.8468 22.3576 25.7242 22.2936 25.5226L21.7787 23.7191C21.6073 23.1341 21.2279 22.8374 20.532 22.8374H8.15046C7.44499 22.8374 7.06554 23.1341 6.89421 23.7191L6.37929 25.5226C6.31531 25.7242 6.15101 25.8468 5.94851 25.8468H4.82186Z" fill="black"/>
</svg>
