<svg width="28" height="28" viewBox="0 0 28 28" fill="none" xmlns="http://www.w3.org/2000/svg">
<path d="M14.105 26.2301C20.7369 26.2301 26.2121 20.7549 26.2121 14.123C26.2121 7.50291 20.7273 2.01807 14.0954 2.01807C7.47523 2.01807 2 7.50291 2 14.123C2 20.7549 7.48484 26.2301 14.105 26.2301ZM14.1071 23.7851C8.74343 23.7851 4.44289 19.4888 4.44289 14.1092C4.44289 8.72002 8.7275 4.43119 14.0954 4.43119C19.4729 4.43119 23.7734 8.72002 23.7851 14.1092C23.7948 19.475 19.4867 23.7851 14.1071 23.7851ZM14.1071 22.5479C18.8059 22.5479 22.5575 18.7866 22.5479 14.1092C22.5341 9.40087 18.7845 5.67056 14.0954 5.67056C9.41046 5.67056 5.68225 9.41048 5.68225 14.1092C5.68225 18.7962 9.42007 22.5479 14.1071 22.5479ZM14.2105 17.3101C13.5615 17.3101 13.3271 17.6649 12.8049 17.6649C12.2572 17.6649 11.8981 17.1833 11.4655 16.5866C10.9817 15.8811 10.5725 14.791 10.5725 13.7478C10.5725 12.1004 11.6562 11.2074 12.7229 11.2074C13.2844 11.2074 13.7523 11.5836 14.0954 11.5836C14.4427 11.5836 14.9649 11.1957 15.6064 11.1957C15.8579 11.1957 16.7295 11.2074 17.3028 12.0322C17.2538 12.0887 16.3843 12.5682 16.3843 13.6679C16.3843 14.937 17.4936 15.3856 17.5309 15.3973C17.5309 15.4229 17.3614 16.0175 16.9459 16.61C16.5793 17.1247 16.1797 17.6532 15.6064 17.6532C15.0235 17.6532 14.8871 17.3101 14.2105 17.3101ZM15.308 10.486C15.0235 10.8409 14.5419 11.1041 14.154 11.1041C14.0954 11.1041 14.0644 11.0945 14.0293 11.0945C14.0293 11.0689 14.0176 11.0007 14.0176 10.94C14.0176 10.486 14.2552 10.0609 14.4854 9.77634C14.8051 9.41188 15.308 9.14446 15.7449 9.13485C15.7566 9.17962 15.7566 9.2361 15.7566 9.29681C15.7566 9.74118 15.5734 10.1621 15.308 10.486Z" fill="black"/>
</svg>
