<svg width="28" height="28" viewBox="0 0 28 28" fill="none" xmlns="http://www.w3.org/2000/svg">
<path d="M2.84132 19.8319H7.93688V17.1192C7.80562 17.1384 7.70531 17.148 7.53984 17.148C5.39601 17.148 3.62507 15.3954 3.62507 13.2185C3.62507 11.063 5.38429 9.2932 7.53562 9.2932C7.70531 9.2932 7.81734 9.31241 7.93688 9.32202V7.4264C7.82695 7.44562 7.70742 7.45733 7.53984 7.45733C6.34453 7.45733 5.38898 6.49124 5.38898 5.2896C5.38898 4.05702 6.3839 3.14202 7.55461 3.15163C8.16351 3.16124 8.70516 3.40664 9.04617 3.77789C9.85523 2.81742 11.0899 2.14805 12.9433 2.14805H14.5887C14.5844 2.09368 14.5685 1.99875 14.5547 1.91555C14.2891 0.663049 13.3807 0 11.8859 0H2.84132C0.990934 0 0 0.990934 0 2.84132V16.9713C0 18.8409 0.990934 19.8319 2.84132 19.8319ZM6.53742 5.28749C6.53742 5.86968 6.97781 6.31429 7.55461 6.31429C7.78195 6.31429 7.97836 6.2257 8.04023 6.16804C8.09883 5.6564 8.17875 5.31445 8.42086 4.84546C8.30039 4.51358 7.99102 4.26491 7.55461 4.26491C6.99585 4.26491 6.53742 4.67226 6.53742 5.28749ZM5.96296 13.2185C5.96296 14.0927 6.65812 14.8155 7.54195 14.8155C7.70742 14.8155 7.8675 14.7867 7.93688 14.7675V11.6812C7.86539 11.6599 7.71703 11.6311 7.55906 11.6311C6.66773 11.6311 5.96296 12.3368 5.96296 13.2185ZM9.63093 7.22343V23.996C9.63093 26.2172 10.7848 27.3731 12.9813 27.3731H23.9869C26.2026 27.3731 27.3447 26.2172 27.3447 23.996V7.22343C27.3447 4.98844 26.2026 3.83672 23.9869 3.83672H12.9813C10.7751 3.83672 9.63093 4.98844 9.63093 7.22343ZM18.483 23.9763C15.8995 23.9763 13.8061 21.9042 13.8061 19.2994C13.8061 16.6807 15.8995 14.6032 18.483 14.6149C21.0762 14.6266 23.1675 16.6807 23.1675 19.2994C23.1675 21.9042 21.0762 23.9763 18.483 23.9763ZM18.4809 12.5876C16.9994 12.5876 15.8023 11.4117 15.8023 9.9089C15.8023 8.41359 16.9994 7.23351 18.4809 7.23351C19.9741 7.24734 21.1542 8.41359 21.1659 9.9089C21.1872 11.4021 19.9741 12.5876 18.4809 12.5876ZM18.483 21.1671C19.5459 21.1671 20.355 20.3292 20.355 19.2994C20.355 18.2301 19.5459 17.4178 18.483 17.4178C17.4394 17.4178 16.6132 18.2301 16.6132 19.2994C16.6132 20.3292 17.4586 21.1671 18.483 21.1671ZM18.483 11.1457C19.1761 11.1457 19.7219 10.5806 19.7219 9.9089C19.7219 9.22124 19.1548 8.67749 18.483 8.67749C17.79 8.67749 17.2537 9.19991 17.2537 9.9089C17.2537 10.5806 17.7996 11.1457 18.483 11.1457Z" fill="black"/>
<path d="M18.4831 23.9763C15.8996 23.9763 13.8062 21.9042 13.8062 19.2994C13.8062 16.6807 15.8996 14.6032 18.4831 14.6149C21.0763 14.6266 23.1676 16.6807 23.1676 19.2994C23.1676 21.9042 21.0763 23.9763 18.4831 23.9763ZM18.481 12.5876C16.9995 12.5876 15.8024 11.4117 15.8024 9.90891C15.8024 8.4136 16.9995 7.23352 18.481 7.23352C19.9742 7.24735 21.1543 8.4136 21.166 9.90891C21.1873 11.4021 19.9742 12.5876 18.481 12.5876Z" fill="white"/>
</svg>
