<svg width="28" height="28" viewBox="0 0 28 28" fill="none" xmlns="http://www.w3.org/2000/svg">
<path d="M15.0217 4.07567C11.343 4.05224 7 7.72794 7 11.2632C7 14.1841 9.93133 16.5482 12.3435 16.5344C15.6845 16.5226 20.1991 12.6828 20.1991 9.48739C20.1991 6.3995 17.8131 4.097 15.0217 4.07567ZM11.2534 14.8096C10.5866 14.8096 9.55984 13.9724 8.91648 12.9339C8.28484 11.874 8.31039 11.0507 8.97718 11.0507C9.63015 11.0507 10.6666 11.874 11.3024 12.9339C11.9341 13.9724 11.9106 14.8096 11.2534 14.8096ZM14.5103 9.57879C14.1269 9.04301 14.26 8.32301 14.7841 7.95129L16.4193 6.76559C16.9337 6.38215 17.6634 6.51528 18.0234 7.05106C18.4281 7.57934 18.313 8.27379 17.7826 8.66684L16.1516 9.83121C15.602 10.2264 14.8703 10.1071 14.5103 9.57879ZM15.6065 24.9592H17.046C17.8548 24.9592 18.388 24.523 18.388 23.7323V15.1028C17.17 16.1889 15.7199 17.0408 14.2623 17.4597V23.7323C14.2623 24.523 14.788 24.9592 15.6065 24.9592Z" fill="black"/>
</svg>
