<svg width="29" height="28" viewBox="0 0 29 28" fill="none" xmlns="http://www.w3.org/2000/svg">
<path d="M3.0982 21.5871H7.7353V19.4822H3.26671C2.51436 19.4822 2.10491 19.0835 2.10491 18.33V3.25499C2.10491 2.50358 2.51436 2.10491 3.26671 2.10491H13.1353C13.8952 2.10491 14.3046 2.50358 14.3046 3.25499V6.85592C14.5711 6.82311 14.8598 6.81467 15.1633 6.81467H16.4095V3.11741C16.4095 1.09218 15.3173 0 13.3017 0H3.0982C1.09218 0 0 1.09218 0 3.11741V18.458C0 20.4949 1.09218 21.5871 3.0982 21.5871ZM4.04647 13.8872C4.04647 16.0355 5.64679 17.7905 7.7353 18.0145C7.7353 17.0536 7.7353 16.2253 7.74163 15.4226C7.07858 15.2316 6.58827 14.6121 6.58827 13.8872C6.58827 13.1208 7.10507 12.4791 7.82108 12.3464C7.93803 11.2999 8.15506 10.4998 8.53077 9.78163C8.43022 9.74788 8.31374 9.73101 8.20265 9.73101C5.89007 9.7214 4.04647 11.5746 4.04647 13.8872ZM8.20476 8.30882C9.52171 8.30882 10.5851 7.25507 10.5637 5.94773C10.5541 4.6446 9.5196 3.60046 8.20476 3.59085C6.88991 3.58124 5.83616 4.6446 5.83616 5.94773C5.83616 7.26468 6.88781 8.30882 8.20476 8.30882ZM8.20476 6.99164C7.62046 6.99164 7.15874 6.52031 7.15874 5.94773C7.15874 5.35593 7.61085 4.89421 8.20476 4.89421C8.77945 4.89421 9.25078 5.37725 9.25078 5.94773C9.25078 6.52031 8.78906 6.99164 8.20476 6.99164ZM14.6733 27.7026H23.456C25.1801 27.7026 26.5451 27.5165 27.5306 26.5406C28.5087 25.5433 28.6809 24.2018 28.6809 22.4735V13.7526C28.6809 12.0244 28.5087 10.6732 27.5306 9.69936C26.543 8.72131 25.1801 8.52772 23.456 8.52772H14.6444C12.9492 8.52772 11.5863 8.72131 10.6083 9.69936C9.62272 10.6849 9.43874 12.0244 9.43874 13.7334V22.4735C9.43874 24.2018 9.62272 25.553 10.6083 26.5406C11.5863 27.5165 12.9492 27.7026 14.6733 27.7026ZM17.4 19.3472C17.2519 19.8396 16.9247 20.4309 16.5016 20.8509C16.3652 20.9639 16.184 21.0576 15.9464 21.0576C15.7205 21.0576 15.5937 20.9735 15.389 20.9074C15.2622 20.8765 15.0928 20.7848 14.8903 20.7848C14.4129 20.7848 14.1987 21.0673 13.799 21.0673C13.5304 21.0673 13.3216 20.9074 13.0275 20.5802C12.4626 19.9643 12.1003 18.9881 12.1003 18.1408C12.1003 17.6208 12.2367 17.1391 12.5597 16.732C12.8325 16.3793 13.2555 16.1747 13.766 16.1747C14.2359 16.1747 14.5183 16.4592 14.7656 16.4592C15.0597 16.4592 15.3912 16.163 16.0008 16.163C16.5112 16.163 16.9652 16.3697 17.238 16.7885C16.8661 17.0069 16.7276 17.2776 16.6476 17.5036C16.523 17.8212 16.5016 18.2048 16.6476 18.5906C16.7937 18.9433 17.0259 19.1831 17.4 19.3472ZM14.7326 15.9998C14.6995 15.2763 15.2953 14.5772 16.0669 14.5303C16.1297 15.2337 15.5116 16.0851 14.7326 15.9998ZM20.0376 15.0077V16.163H20.9733V16.9249H20.0376V19.6179C20.0376 20.058 20.2348 20.2371 20.6269 20.2371C20.726 20.2371 20.9051 20.2371 20.9573 20.204V21.0204C20.872 21.0321 20.6269 21.0576 20.4159 21.0576C19.4184 21.0576 19.0348 20.7028 19.0348 19.7405V16.9249H18.3506V16.163H19.0348V15.0077H20.0376ZM24.2662 21.0204H23.208L21.4273 16.163H22.4759L23.7323 20.058L24.9248 16.163H26.0119L24.2662 21.0204Z" fill="black"/>
</svg>
