<svg width="28" height="28" viewBox="0 0 28 28" fill="none" xmlns="http://www.w3.org/2000/svg">
<path d="M0 21.3626C0 23.8631 1.31484 25.1587 3.84421 25.1587H23.9585C26.4783 25.1587 27.8027 23.8535 27.8027 21.3626V17.3311C27.8027 16.5007 27.5325 15.5871 26.8966 14.9023L22.4869 10.2112C21.3614 9.02294 20.501 8.38684 18.9211 8.38684H8.67374C7.28789 8.38684 6.43922 9.02505 5.31586 10.2112L0.906092 14.9023C0.270233 15.5871 0 16.5007 0 17.3311V21.3626ZM2.87483 16.0373L7.05468 11.3685C7.65023 10.7123 8.05218 10.3828 8.69414 10.3828H19.099C19.7409 10.3828 20.1525 10.7027 20.748 11.3685L24.9279 16.0373C25.2021 16.3521 25.0538 16.8068 24.5395 16.8068H3.26319C2.75108 16.8068 2.60061 16.3521 2.87483 16.0373ZM1.76625 4.94902L5.46492 8.67652C6.55547 9.78629 7.12617 10.1357 8.4757 10.1357H19.2405C20.6691 10.1357 21.2473 9.78629 22.3378 8.67652L26.0365 4.94902C26.7248 4.26067 26.3496 3.01379 25.2075 3.01379H2.59523C1.45312 3.01379 1.08 4.26067 1.76625 4.94902ZM6.93187 15.2374C7.03616 15.5355 7.36522 15.6729 7.67296 15.559L12.8885 13.6535C13.208 13.5438 13.3612 13.2436 13.2473 12.9283C13.1355 12.6185 12.8278 12.4811 12.5062 12.6046L7.29069 14.508C6.97124 14.6219 6.82007 14.918 6.93187 15.2374ZM7.07601 13.1224C7.18991 13.4398 7.50515 13.5654 7.81499 13.4536L11.4033 12.1544C11.7131 12.0426 11.8835 11.7328 11.7621 11.425C11.6524 11.1056 11.333 10.9896 11.0327 11.1014L7.43273 12.4026C7.11327 12.5144 6.96421 12.8221 7.07601 13.1224ZM18.7148 20.8983C18.7127 20.5043 19.0151 20.2179 19.4229 20.2179H22.7184C23.1187 20.2179 23.4148 20.5043 23.4169 20.8983C23.419 21.2923 23.1166 21.5691 22.7184 21.5691H19.4229C19.0343 21.5691 18.7191 21.2923 18.7148 20.8983Z" fill="black"/>
</svg>
