<svg width="30" height="28" viewBox="0 0 30 28" fill="none" xmlns="http://www.w3.org/2000/svg">
<path d="M3.84421 23.948H25.9999C28.5218 23.948 29.8462 22.6449 29.8462 20.1423V8.79616C29.8462 6.30523 28.5218 5 25.9999 5H3.84421C1.30523 5 0 6.29562 0 8.79616V20.1423C0 22.6449 1.30523 23.948 3.84421 23.948Z" fill="black"/>
<path d="M4.55381 11.6982C4.31849 11.6982 4.16943 11.5374 4.16943 11.2989V9.88252C4.16943 9.63221 4.31849 9.48315 4.55381 9.48315H5.43178C5.65537 9.48315 5.79482 9.63221 5.79482 9.88252V11.2989C5.79482 11.5374 5.65537 11.6982 5.43178 11.6982H4.55381ZM7.18654 11.6982C6.94584 11.6982 6.80428 11.5374 6.80428 11.2989V9.88252C6.80428 9.63221 6.94584 9.48315 7.18654 9.48315H8.0549C8.29021 9.48315 8.43178 9.63221 8.43178 9.88252V11.2989C8.43178 11.5374 8.29021 11.6982 8.0549 11.6982H7.18654ZM9.81389 11.6982C9.58068 11.6982 9.43162 11.5374 9.43162 11.2989V9.88252C9.43162 9.63221 9.58068 9.48315 9.81389 9.48315H10.6918C10.9175 9.48315 11.057 9.63221 11.057 9.88252V11.2989C11.057 11.5374 10.9175 11.6982 10.6918 11.6982H9.81389ZM12.4412 11.6982C12.2059 11.6982 12.0643 11.5374 12.0643 11.2989V9.88252C12.0643 9.63221 12.2059 9.48315 12.4412 9.48315H13.3096C13.5428 9.48315 13.6918 9.63221 13.6918 9.88252V11.2989C13.6918 11.5374 13.5428 11.6982 13.3096 11.6982H12.4412ZM15.0737 11.6982C14.8396 11.6982 14.6821 11.5374 14.6821 11.2989V9.88252C14.6821 9.63221 14.8396 9.48315 15.0737 9.48315H15.9519C16.168 9.48315 16.3171 9.63221 16.3171 9.88252V11.2989C16.3171 11.5374 16.168 11.6982 15.9519 11.6982H15.0737ZM17.7013 11.6982C17.4681 11.6982 17.3169 11.5374 17.3169 11.2989V9.88252C17.3169 9.63221 17.4681 9.48315 17.7013 9.48315H18.5697C18.7954 9.48315 18.954 9.63221 18.954 9.88252V11.2989C18.954 11.5374 18.7954 11.6982 18.5697 11.6982H17.7013ZM4.55381 15.5687C4.31849 15.5687 4.16943 15.4292 4.16943 15.1672V13.7626C4.16943 13.5006 4.31849 13.3611 4.55381 13.3611H5.43178C5.65537 13.3611 5.79482 13.5006 5.79482 13.7626V15.1672C5.79482 15.4292 5.65537 15.5687 5.43178 15.5687H4.55381ZM7.18654 15.5687C6.94584 15.5687 6.80428 15.4292 6.80428 15.1672V13.7626C6.80428 13.5006 6.94584 13.3611 7.18654 13.3611H8.0549C8.29021 13.3611 8.43178 13.5006 8.43178 13.7626V15.1672C8.43178 15.4292 8.29021 15.5687 8.0549 15.5687H7.18654ZM9.81389 15.5687C9.58068 15.5687 9.43162 15.4292 9.43162 15.1672V13.7626C9.43162 13.5006 9.58068 13.3611 9.81389 13.3611H10.6918C10.9175 13.3611 11.057 13.5006 11.057 13.7626V15.1672C11.057 15.4292 10.9175 15.5687 10.6918 15.5687H9.81389ZM12.4412 15.5687C12.2059 15.5687 12.0643 15.4292 12.0643 15.1672V13.7626C12.0643 13.5006 12.2059 13.3611 12.4412 13.3611H13.3096C13.5428 13.3611 13.6918 13.5006 13.6918 13.7626V15.1672C13.6918 15.4292 13.5428 15.5687 13.3096 15.5687H12.4412ZM15.0737 15.5687C14.8396 15.5687 14.6821 15.4292 14.6821 15.1672V13.7626C14.6821 13.5006 14.8396 13.3611 15.0737 13.3611H15.9519C16.168 13.3611 16.3171 13.5006 16.3171 13.7626V15.1672C16.3171 15.4292 16.168 15.5687 15.9519 15.5687H15.0737ZM17.7013 15.5687C17.4681 15.5687 17.3169 15.4292 17.3169 15.1672V13.7626C17.3169 13.5006 17.4681 13.3611 17.7013 13.3611H18.5697C18.7954 13.3611 18.954 13.5006 18.954 13.7626V15.1672C18.954 15.4292 18.7954 15.5687 18.5697 15.5687H17.7013ZM4.55381 19.4466C4.31849 19.4466 4.16943 19.2976 4.16943 19.0473V17.6309C4.16943 17.3923 4.31849 17.2316 4.55381 17.2316H5.43178C5.65537 17.2316 5.79482 17.3923 5.79482 17.6309V19.0473C5.79482 19.2976 5.65537 19.4466 5.43178 19.4466H4.55381ZM7.18654 19.4466C6.94584 19.4466 6.80428 19.2976 6.80428 19.0473V17.6309C6.80428 17.3923 6.94584 17.2316 7.18654 17.2316H15.9519C16.168 17.2316 16.3171 17.3923 16.3171 17.6309V19.0473C16.3171 19.2976 16.168 19.4466 15.9519 19.4466H7.18654ZM17.7013 19.4466C17.4681 19.4466 17.3169 19.2976 17.3169 19.0473V17.6309C17.3169 17.3923 17.4681 17.2316 17.7013 17.2316H18.5697C18.7954 17.2316 18.954 17.3923 18.954 17.6309V19.0473C18.954 19.2976 18.7954 19.4466 18.5697 19.4466H17.7013ZM21.0058 13.7553L24.4415 10.5481C24.898 10.1298 25.6286 10.3074 25.6286 10.9773V17.9633C25.6286 18.6406 24.898 18.8204 24.4415 18.3999L21.0058 15.181C20.5351 14.7465 20.5351 14.192 21.0058 13.7553Z" fill="white"/>
</svg>
