<svg width="28" height="28" viewBox="0 0 28 28" fill="none" xmlns="http://www.w3.org/2000/svg">
<path d="M9.37629 26.6312H18.5851C19.9159 26.6312 20.9108 26.0568 21.3962 25.0389C21.426 24.9761 21.4653 24.8961 21.4951 24.8354L19.58 22.8777C19.5758 22.9513 19.5737 23.0153 19.5695 23.0793C19.4973 23.8506 18.9812 24.2699 18.1407 24.2699H9.76043C8.83089 24.2699 8.3012 23.7658 8.3012 22.8726V11.6298L6.00317 9.3339V23.4008C6.00317 25.3365 7.35645 26.6312 9.37629 26.6312ZM11.4261 23.3575H16.4825C16.8243 23.3575 17.0776 23.1201 17.0776 22.7645C17.0776 22.4069 16.8243 22.1769 16.4825 22.1769H11.4261C11.0844 22.1769 10.8407 22.4069 10.8407 22.7645C10.8407 23.1201 11.0844 23.3575 11.4261 23.3575ZM19.6075 16.143L21.9034 18.441V4.23249C21.9034 2.29258 20.5754 1 18.5851 1H9.37629C7.967 1 6.89239 1.59883 6.44872 2.6943L6.36669 2.89047L8.31597 4.84186L8.32652 4.63608C8.35394 3.80615 8.87097 3.36131 9.76043 3.36131H11.3017C11.4913 3.36131 11.585 3.45717 11.585 3.63506V3.93834C11.585 4.45162 11.9183 4.79451 12.4199 4.79451H15.4888C15.9904 4.79451 16.3311 4.45162 16.3311 3.93834V3.63506C16.3311 3.45717 16.427 3.36131 16.607 3.36131H18.1407C19.0682 3.36131 19.6075 3.86967 19.6075 4.76076V16.143Z" fill="black"/>
<path d="M23.2994 24.5429C23.6615 24.9147 24.2665 24.9072 24.6168 24.5429C24.979 24.1883 24.9811 23.5972 24.6168 23.2234L4.59562 3.21391C4.2314 2.84969 3.6382 2.84008 3.26437 3.21391C2.91188 3.5643 2.91188 4.18094 3.26437 4.53344L23.2994 24.5429Z" fill="black"/>
</svg>
