<svg width="28" height="28" viewBox="0 0 28 28" fill="none" xmlns="http://www.w3.org/2000/svg">
<path d="M10.0412 25.6869H17.5281C21.5926 25.6869 23.5694 23.7123 23.5694 19.6477V10.0156H18.4415C18.2284 10.4759 17.732 10.8019 17.1088 10.8019H10.4584C9.86077 10.8019 9.35265 10.4759 9.13749 10.0156H4V19.6477C4 23.7123 5.97672 25.6869 10.0412 25.6869ZM4 8.7814H9.13749C9.35265 8.30304 9.86077 7.97702 10.4584 7.97702H17.1088C17.732 7.97702 18.2284 8.30304 18.4415 8.7814H23.5694V8.03914C23.5694 3.97461 21.5926 2 17.5281 2H10.0412C5.97672 2 4 3.97461 4 8.03914V8.7814Z" fill="black"/>
</svg>
