<svg width="28" height="28" viewBox="0 0 28 28" fill="none" xmlns="http://www.w3.org/2000/svg">
<path d="M14.0691 11.9312C21.132 11.9312 25.7218 9.74195 25.7218 6.46562C25.7218 3.1893 21.132 1 14.0691 1C7.00414 1 2.41437 3.1893 2.41437 6.46562C2.41437 9.74195 7.00414 11.9312 14.0691 11.9312ZM14.0691 18.4567C21.5858 18.4567 26.1362 16.2803 26.1362 11.2321V9.88984C25.2669 10.9091 23.9907 11.7346 22.3683 12.347V13.9619C22.3683 14.4048 21.9978 14.7658 21.5548 14.7658C21.1119 14.7658 20.753 14.4069 20.753 13.9619V12.8762C20.0818 13.0499 19.3679 13.1884 18.7032 13.296V14.7271C18.7032 15.1701 18.3444 15.5289 17.8993 15.5289C17.4563 15.5289 17.0837 15.1701 17.0837 14.7271V13.5058C16.3304 13.574 15.4885 13.6284 14.7535 13.6422V15.0095C14.7535 15.4546 14.3947 15.8209 13.9496 15.8209C13.5066 15.8209 13.1382 15.4546 13.1382 15.0095V13.6326C12.3648 13.6187 11.5688 13.5623 10.8155 13.4844V14.7271C10.8155 15.1701 10.445 15.5289 9.99991 15.5289C9.55695 15.5289 9.19812 15.1701 9.19812 14.7271V13.2576C8.47578 13.1383 7.7982 12.9901 7.14827 12.8069V13.9619C7.14827 14.4069 6.78945 14.7658 6.34437 14.7658C5.90351 14.7658 5.53297 14.4048 5.53297 13.9619V12.2584C4.01844 11.6556 2.82125 10.859 2 9.88984V11.2321C2 16.2803 6.54078 18.4567 14.0691 18.4567Z" fill="black"/>
<path d="M4.2832 23.9551C4.2832 24.3658 4.48101 24.7881 4.96499 24.9561C7.34296 25.8149 9.90937 26.2677 12.6689 26.2677C15.4821 26.2677 18.1087 25.8076 20.5141 24.9013L19.8089 22.9293C17.6142 23.7569 15.2491 24.1776 12.6689 24.1776C10.136 24.1776 7.82694 23.778 5.67022 22.9862C4.82882 22.6724 4.2832 23.3127 4.2832 23.9551ZM19.0938 27.1867C19.3706 28.0513 20.4154 28.0768 20.842 27.4447L23.3121 23.6945C23.7065 23.1083 23.4925 22.4289 22.8595 22.1887L18.6633 20.605C17.9714 20.3476 17.0611 20.9258 17.3517 21.8385L19.0938 27.1867Z" fill="black"/>
</svg>
