<svg width="29" height="29" viewBox="0 0 29 29" fill="none" xmlns="http://www.w3.org/2000/svg">
<path d="M2.92101 23.3053H25.5131C27.344 23.3053 28.4437 22.2056 28.4437 20.3747V6.25641C28.4437 4.42759 27.344 3.33752 25.5131 3.33752H16.8914V5.58282H25.3863C25.883 5.58282 26.1963 5.88657 26.1963 6.39493V20.2479C26.1963 20.7445 25.883 21.0579 25.3863 21.0579H3.05741C2.56077 21.0579 2.24741 20.7445 2.24741 20.2479V6.39493C2.24741 5.88657 2.56077 5.58282 3.05741 5.58282H11.5017V3.33752H2.92101C1.09968 3.33752 0 4.42759 0 6.25641V20.3747C0 22.2056 1.09968 23.3053 2.92101 23.3053ZM10.4006 25.9847H18.0431V23.0665H10.4006V25.9847ZM10.343 27.5414H18.1008C18.6839 27.5414 19.1564 27.0583 19.1564 26.4783C19.1564 25.8982 18.6839 25.4173 18.1008 25.4173H10.343C9.75984 25.4173 9.27773 25.8982 9.27773 26.4783C9.27773 27.0583 9.75984 27.5414 10.343 27.5414Z" fill="black"/>
<path d="M13.2074 0.982963V10.1496L13.3224 12.4134L11.2862 10.098L10.6276 9.46289C10.4424 9.27984 10.1914 9.165 9.90404 9.165C9.35936 9.165 8.97217 9.5639 8.97217 10.1011C8.97217 10.3851 9.06686 10.6235 9.26163 10.8066L13.3888 14.9571C13.6407 15.2091 13.9224 15.3494 14.1967 15.3494C14.4634 15.3494 14.7526 15.2091 14.997 14.9571L19.1338 10.8066C19.3189 10.6235 19.4211 10.3851 19.4211 10.1011C19.4211 9.5639 19.0264 9.165 18.4796 9.165C18.2019 9.165 17.9434 9.27773 17.7582 9.46289L17.1071 10.098L15.0613 12.4134L15.1784 10.1496V0.982963C15.1784 0.386013 14.7209 0 14.1967 0C13.6745 0 13.2074 0.386013 13.2074 0.982963Z" fill="black"/>
</svg>
