<svg width="28" height="28" viewBox="0 0 28 28" fill="none" xmlns="http://www.w3.org/2000/svg">
<path d="M14.3355 11.8477C17.179 11.8733 19.6167 9.63475 19.5794 6.90523C19.5401 4.20875 17.1726 2 14.3355 2C11.8476 2 10.2248 3.48688 9.37477 4.72859C9.11812 5.12257 9 5.56648 9 6.05304V7.7989C9 8.27702 9.12562 8.71671 9.37266 9.11491C10.174 10.344 11.8392 11.8147 14.3355 11.8477ZM11.3079 8.87304C10.9842 8.87304 10.7234 8.61218 10.7234 8.27679V5.56132C10.7234 5.22593 10.9842 4.96507 11.3079 4.96507C11.655 4.96507 11.9041 5.22593 11.9041 5.56132V8.27679C11.9041 8.61218 11.655 8.87304 11.3079 8.87304ZM14.8214 21.4229H18.4024V11.7331C17.3902 12.5091 16.151 12.9863 14.8214 13.0653V21.4229ZM16.1027 25.4145H17.1115C17.9044 25.4145 18.4024 25.0018 18.4024 24.2408V22.7002H14.8214V24.2408C14.8214 25.0018 15.3333 25.4145 16.1027 25.4145Z" fill="black"/>
</svg>
