<svg width="28" height="28" viewBox="0 0 28 28" fill="none" xmlns="http://www.w3.org/2000/svg">
<path d="M7.88429 26.4329H19.9881C22.5554 26.4329 23.8724 25.1394 23.8724 22.6072V4.92112C23.8724 2.38894 22.5554 1.08582 19.9881 1.08582H7.88429C5.31695 1.08582 4 2.38894 4 4.92112V22.6072C4 25.1394 5.31695 26.4329 7.88429 26.4329ZM7.90984 24.137C6.86874 24.137 6.29592 23.5834 6.29592 22.4997V5.03081C6.29592 3.94495 6.86874 3.38385 7.90984 3.38385H19.9647C20.9941 3.38385 21.5765 3.94495 21.5765 5.03081V22.4997C21.5765 23.5834 20.9941 24.137 19.9647 24.137H7.90984ZM4.39468 10.0724H8.88858C10.7481 10.0724 11.6788 9.15557 11.6788 7.3312V1.68534H10.071V7.23112C10.071 8.02214 9.63061 8.46464 8.85342 8.46464H4.39468V10.0724Z" fill="black"/>
</svg>
