<svg width="39" height="28" viewBox="0 0 39 28" fill="none" xmlns="http://www.w3.org/2000/svg">
<path d="M3.57381 19.9667C4.52724 21.3031 6.21872 20.0455 5.42185 18.9188L2.26739 14.4655L5.42185 10.0334C6.22294 8.91007 4.52724 7.64703 3.57381 8.98343L0.293027 13.565C-0.0976756 14.1228 -0.0976756 14.8273 0.293027 15.3755L3.57381 19.9667ZM12.2771 23.948H34.4328C36.9547 23.948 38.277 22.6449 38.277 20.1423V8.79616C38.277 6.30523 36.9547 5 34.4328 5H12.2771C9.73599 5 8.43286 6.29562 8.43286 8.79616V20.1423C8.43286 22.6449 9.73599 23.948 12.2771 23.948ZM13.1497 11.7174C12.7929 11.7174 12.5811 11.498 12.5811 11.1509V10.0229C12.5811 9.67155 12.7929 9.45429 13.1497 9.45429H14.266C14.6248 9.45429 14.8421 9.67155 14.8421 10.0229V11.1509C14.8421 11.498 14.6248 11.7174 14.266 11.7174H13.1497ZM16.9927 11.7174C16.6339 11.7174 16.4262 11.498 16.4262 11.1509V10.0229C16.4262 9.67155 16.6339 9.45429 16.9927 9.45429H18.1186C18.4775 9.45429 18.6968 9.67155 18.6968 10.0229V11.1509C18.6968 11.498 18.4775 11.7174 18.1186 11.7174H16.9927ZM20.8454 11.7174C20.4982 11.7174 20.2768 11.498 20.2768 11.1509V10.0229C20.2768 9.67155 20.4982 9.45429 20.8454 9.45429H21.9617C22.3205 9.45429 22.5378 9.67155 22.5378 10.0229V11.1509C22.5378 11.498 22.3205 11.7174 21.9617 11.7174H20.8454ZM24.7076 11.7174C24.3488 11.7174 24.1315 11.498 24.1315 11.1509V10.0229C24.1315 9.67155 24.3488 9.45429 24.7076 9.45429H25.824C26.1711 9.45429 26.3925 9.67155 26.3925 10.0229V11.1509C26.3925 11.498 26.1711 11.7174 25.824 11.7174H24.7076ZM28.576 11.7174C28.2024 11.7174 27.9725 11.498 27.9725 11.1509V10.0229C27.9725 9.67155 28.2024 9.45429 28.576 9.45429H29.6766C30.0258 9.45429 30.2431 9.67155 30.2431 10.0229V11.1509C30.2431 11.498 30.0258 11.7174 29.6766 11.7174H28.576ZM32.4033 11.7174C32.0445 11.7174 31.8272 11.498 31.8272 11.1509V10.0229C31.8272 9.67155 32.0445 9.45429 32.4033 9.45429H33.5197C33.8764 9.45429 34.0882 9.67155 34.0882 10.0229V11.1509C34.0882 11.498 33.8764 11.7174 33.5197 11.7174H32.4033ZM13.1497 15.5975C12.7929 15.5975 12.5811 15.3781 12.5811 15.0289V13.9009C12.5811 13.5537 12.7929 13.3323 13.1497 13.3323H14.266C14.6248 13.3323 14.8421 13.5537 14.8421 13.9009V15.0289C14.8421 15.3781 14.6248 15.5975 14.266 15.5975H13.1497ZM16.9927 15.5975C16.6339 15.5975 16.4262 15.3781 16.4262 15.0289V13.9009C16.4262 13.5537 16.6339 13.3323 16.9927 13.3323H18.1186C18.4775 13.3323 18.6968 13.5537 18.6968 13.9009V15.0289C18.6968 15.3781 18.4775 15.5975 18.1186 15.5975H16.9927ZM20.8454 15.5975C20.4982 15.5975 20.2768 15.3781 20.2768 15.0289V13.9009C20.2768 13.5537 20.4982 13.3323 20.8454 13.3323H21.9617C22.3205 13.3323 22.5378 13.5537 22.5378 13.9009V15.0289C22.5378 15.3781 22.3205 15.5975 21.9617 15.5975H20.8454ZM24.7076 15.5975C24.3488 15.5975 24.1315 15.3781 24.1315 15.0289V13.9009C24.1315 13.5537 24.3488 13.3323 24.7076 13.3323H25.824C26.1711 13.3323 26.3925 13.5537 26.3925 13.9009V15.0289C26.3925 15.3781 26.1711 15.5975 25.824 15.5975H24.7076ZM28.576 15.5975C28.2024 15.5975 27.9725 15.3781 27.9725 15.0289V13.9009C27.9725 13.5537 28.2024 13.3323 28.576 13.3323H29.6766C30.0258 13.3323 30.2431 13.5537 30.2431 13.9009V15.0289C30.2431 15.3781 30.0258 15.5975 29.6766 15.5975H28.576ZM32.4033 15.5975C32.0445 15.5975 31.8272 15.3781 31.8272 15.0289V13.9009C31.8272 13.5537 32.0445 13.3323 32.4033 13.3323H33.5197C33.8764 13.3323 34.0882 13.5537 34.0882 13.9009V15.0289C34.0882 15.3781 33.8764 15.5975 33.5197 15.5975H32.4033ZM13.1497 19.4755C12.7929 19.4755 12.5811 19.2582 12.5811 18.9069V17.7788C12.5811 17.4317 12.7929 17.2123 13.1497 17.2123H14.266C14.6248 17.2123 14.8421 17.4317 14.8421 17.7788V18.9069C14.8421 19.2582 14.6248 19.4755 14.266 19.4755H13.1497ZM17.1005 19.4755C16.6744 19.4755 16.4262 19.2294 16.4262 18.7991V17.877C16.4262 17.4605 16.6744 17.2123 17.1005 17.2123H29.5688C29.9853 17.2123 30.2431 17.4605 30.2431 17.877V18.7991C30.2431 19.2294 29.9853 19.4755 29.5688 19.4755H17.1005ZM32.4033 19.4755C32.0445 19.4755 31.8272 19.2582 31.8272 18.9069V17.7788C31.8272 17.4317 32.0445 17.2123 32.4033 17.2123H33.5197C33.8764 17.2123 34.0882 17.4317 34.0882 17.7788V18.9069C34.0882 19.2582 33.8764 19.4755 33.5197 19.4755H32.4033Z" fill="black"/>
</svg>
