<svg width="28" height="28" viewBox="0 0 28 28" fill="none" xmlns="http://www.w3.org/2000/svg">
<path d="M14.0691 11.7504C21.3584 11.7504 26.1362 9.44952 26.1362 5.87999C26.1362 2.31258 21.3584 0 14.0691 0C6.77023 0 2 2.31258 2 5.87999C2 9.44952 6.77023 11.7504 14.0691 11.7504ZM14.0691 9.50508C8.18327 9.50508 4.29592 8.04586 4.29592 5.87999C4.29592 3.71624 8.18327 2.24741 14.0691 2.24741C19.955 2.24741 23.8402 3.71624 23.8402 5.87999C23.8402 8.04586 19.955 9.50508 14.0691 9.50508ZM14.0691 17.8636C21.5858 17.8636 26.1362 15.6947 26.1362 10.639V5.87999H23.8402V10.639C23.8402 14.2137 20.1439 15.5677 14.0691 15.5677C7.99436 15.5677 4.29592 14.2137 4.29592 10.639V5.87999H2V10.639C2 15.6947 6.54078 17.8636 14.0691 17.8636ZM7.54271 12.0356V9.89061H5.9274V12.0356C5.9274 12.4786 6.29795 12.8491 6.73881 12.8491C7.18388 12.8491 7.54271 12.4807 7.54271 12.0356ZM11.0138 12.8008V10.6516H9.39428V12.8008C9.39428 13.2438 9.75311 13.6123 10.1982 13.6123C10.6433 13.6123 11.0138 13.2438 11.0138 12.8008ZM14.7535 13.095V10.9458H13.1382V13.095C13.1382 13.538 13.5066 13.8947 13.9496 13.8947C14.3947 13.8947 14.7535 13.538 14.7535 13.095ZM18.507 12.8008V10.6516H16.8875V12.8008C16.8875 13.2438 17.258 13.6123 17.7031 13.6123C18.1482 13.6123 18.507 13.2438 18.507 12.8008ZM21.9739 12.0356V9.89061H20.3586V12.0356C20.3586 12.4807 20.7174 12.8491 21.1604 12.8491C21.6034 12.8491 21.9739 12.4786 21.9739 12.0356Z" fill="black"/>
<path d="M4.32715 23.4464C4.32715 23.857 4.52285 24.289 5.02605 24.457C7.34847 25.2389 9.96292 25.6842 12.6648 25.6842C15.4203 25.6842 18.0854 25.2316 20.4427 24.4022L19.7471 22.4226C17.6005 23.1829 15.1873 23.5919 12.6648 23.5919C10.1874 23.5919 7.82284 23.2019 5.71206 22.4796C4.87277 22.1733 4.32715 22.8061 4.32715 23.4464ZM18.9983 26.5821C19.2624 27.4488 20.3052 27.4891 20.7423 26.8558L23.2536 23.1447C23.6469 22.5628 23.4434 21.8833 22.8167 21.6229L18.6437 20.0088C17.956 19.7334 17.0415 20.3065 17.3131 21.2116L18.9983 26.5821Z" fill="black"/>
</svg>
