<svg width="35" height="28" viewBox="0 0 35 28" fill="none" xmlns="http://www.w3.org/2000/svg">
<path d="M0 22.1146C0 22.9372 0.673591 23.6087 1.48452 23.6087H33.0147C33.8278 23.6087 34.5014 22.9372 34.5014 22.1146C34.5014 21.2919 33.8278 20.6226 33.0147 20.6226H30.5327V6.80312C30.5327 4.98321 29.5357 4.01501 27.7254 4.01501H6.776C5.03296 4.01501 3.96656 4.98321 3.96656 6.80312V20.6226H1.48452C0.673591 20.6226 0 21.2919 0 22.1146ZM6.26248 20.6226V7.40429C6.26248 6.66695 6.62693 6.31093 7.35584 6.31093H27.1455C27.8723 6.31093 28.2368 6.66695 28.2368 7.40429V20.6226H6.26248Z" fill="black"/>
<path d="M15.2513 17.566H19.2662C19.917 17.566 20.2356 17.2336 20.2356 16.5509V13.4809C20.2356 12.9367 20.0321 12.6256 19.6306 12.501V11.7252C19.6306 10.1389 18.6751 9.06079 17.2625 9.06079C15.8478 9.06079 14.8923 10.1389 14.8923 11.7252V12.5148C14.4908 12.6277 14.2874 12.9367 14.2874 13.4809V16.5509C14.2874 17.2336 14.6059 17.566 15.2513 17.566ZM16.1199 12.4604V11.6324C16.1199 10.7947 16.5559 10.2575 17.2625 10.2575C17.9478 10.2575 18.403 10.7947 18.403 11.6324V12.4604H16.1199Z" fill="black"/>
</svg>
