<svg width="29" height="28" viewBox="0 0 29 28" fill="none" xmlns="http://www.w3.org/2000/svg">
<path d="M2.92101 22.67H25.5131C27.344 22.67 28.4437 21.5703 28.4437 19.7394V5.62105C28.4437 3.79223 27.344 2.70215 25.5131 2.70215H2.92101C1.09968 2.70215 0 3.79223 0 5.62105V19.7394C0 21.5703 1.09968 22.67 2.92101 22.67ZM2.73866 17.2447C2.39764 17.2447 2.24741 17.1179 2.24741 16.7534V5.75956C2.24741 5.2512 2.56077 4.94745 3.05741 4.94745H25.3863C25.883 4.94745 26.1963 5.2512 26.1963 5.75956V16.7534C26.1963 17.1179 26.0344 17.2447 25.6955 17.2447H2.73866ZM10.4006 25.3494H18.0431V22.4312H10.4006V25.3494ZM10.343 26.9061H18.1008C18.6839 26.9061 19.1564 26.423 19.1564 25.843C19.1564 25.2629 18.6839 24.7819 18.1008 24.7819H10.343C9.75984 24.7819 9.27773 25.2629 9.27773 25.843C9.27773 26.423 9.75984 26.9061 10.343 26.9061Z" fill="black"/>
<path d="M11.2544 14.938C11.2544 15.4311 11.7794 15.6376 12.199 15.3905L18.4823 11.7139C18.8901 11.4711 18.8763 10.9238 18.4727 10.6906L12.199 7.00552C11.7794 6.7606 11.2544 6.96169 11.2544 7.46654V14.938Z" fill="black"/>
</svg>
