<svg width="33" height="28" viewBox="0 0 33 28" fill="none" xmlns="http://www.w3.org/2000/svg">
<path d="M10.7041 24.4083C16.5572 24.4083 21.4083 19.5572 21.4083 13.7041C21.4083 7.85109 16.5668 3 10.7137 3C4.8607 3 0 7.85109 0 13.7041C0 19.5572 4.85109 24.4083 10.7041 24.4083ZM10.7137 22.1388C6.03772 22.1388 2.27905 18.3801 2.28866 13.7041C2.28866 9.02811 6.04733 5.27905 10.7233 5.27905C15.3801 5.27905 19.1292 9.02811 19.1292 13.7041C19.1292 18.3801 15.3898 22.1388 10.7137 22.1388ZM10.8021 17.0897C11.5073 17.0897 11.6597 17.4412 12.2615 17.4412C12.8613 17.4412 13.2715 16.8862 13.6507 16.3472C14.0885 15.724 14.2622 15.1125 14.2622 15.0869C14.2249 15.0752 13.0701 14.6023 13.0701 13.2834C13.0701 12.1329 13.9788 11.629 14.0257 11.58C13.4355 10.7203 12.5194 10.7086 12.2615 10.7086C11.5894 10.7086 11.0503 11.107 10.6945 11.107C10.3291 11.107 9.84655 10.7203 9.24889 10.7203C8.141 10.7203 7.02139 11.6503 7.02139 13.3676C7.02139 14.4541 7.43577 15.593 7.94178 16.3216C8.3892 16.949 8.77803 17.453 9.34264 17.453C9.8817 17.453 10.132 17.0897 10.8021 17.0897ZM11.9526 9.96608C12.2243 9.63163 12.4256 9.19053 12.4256 8.72178C12.4256 8.65897 12.4256 8.60038 12.4118 8.5535C11.9526 8.56311 11.4232 8.85069 11.1047 9.22569C10.8586 9.51655 10.6125 9.96608 10.6125 10.4348C10.6125 10.4955 10.6242 10.568 10.6242 10.5914C10.6594 10.5914 10.6945 10.6031 10.7435 10.6031C11.1515 10.6031 11.6597 10.3315 11.9526 9.96608Z" fill="black"/>
<path d="M24.2019 18.3567C24.6118 18.8388 25.3846 18.8569 25.858 18.281C26.8649 17.066 27.4414 15.4437 27.4414 13.7062C27.4414 11.9688 26.8649 10.3465 25.858 9.12727C25.3846 8.55352 24.6118 8.56196 24.2019 9.05368C23.8142 9.51141 23.9645 10.0746 24.35 10.5996C24.9962 11.412 25.3499 12.5487 25.3499 13.7062C25.3499 14.8638 24.9962 15.9888 24.35 16.8087C23.9624 17.3358 23.8142 17.9011 24.2019 18.3567Z" fill="black"/>
<path d="M27.6182 21.7154C28.027 22.1954 28.7423 22.2186 29.2636 21.6589C31.2079 19.5758 32.2619 16.7518 32.2619 13.7061C32.2619 10.6647 31.1784 7.81212 29.2636 5.75548C28.7465 5.19369 28.0291 5.2115 27.6182 5.699C27.2179 6.15884 27.3436 6.7497 27.7907 7.25337C29.321 8.94673 30.1704 11.2204 30.1704 13.7061C30.1704 16.194 29.3168 18.4677 27.7907 20.1611C27.3457 20.6647 27.22 21.2556 27.6182 21.7154Z" fill="black"/>
</svg>
