<svg width="28" height="28" viewBox="0 0 28 28" fill="none" xmlns="http://www.w3.org/2000/svg">
<path d="M8.21546 24.8003H20.7313C25.6171 24.8003 27.9468 22.4781 27.9468 17.6137V12.0367H20.56C20.3523 12.5577 19.8538 12.8976 19.2222 12.8976H9.73421C9.11851 12.8976 8.59656 12.5577 8.3964 12.0367H1V17.6137C1 22.4781 3.3393 24.8003 8.21546 24.8003ZM14.4744 17.4046C13.8632 17.4163 13.3595 16.903 13.3595 16.3035C13.3595 15.6901 13.8632 15.1811 14.4744 15.1811C15.0857 15.1811 15.5969 15.6901 15.5969 16.3035C15.5969 16.8838 15.0857 17.3929 14.4744 17.4046ZM1 10.8986H8.37718C8.57734 10.368 9.09929 10.0377 9.71499 10.0377H19.2126C19.8283 10.0377 20.3406 10.368 20.5408 10.8986H27.918V10.5531C27.918 6.12812 25.393 4 20.7025 4H8.21546C3.53453 4 1 6.12812 1 10.5531V10.8986Z" fill="black"/>
</svg>
