<svg width="28" height="28" viewBox="0 0 28 28" fill="none" xmlns="http://www.w3.org/2000/svg">
<path d="M8 24.5833C8 26.2841 9.11562 27.3487 10.9144 27.3487H17.6379C19.4272 27.3487 20.5524 26.2841 20.5524 24.5833V3.76749C20.5524 2.07625 19.4272 1 17.6379 1H10.9144C9.11562 1 8 2.07625 8 3.76749V24.5833ZM10.1436 24.2739V4.07475C10.1436 3.48178 10.5371 3.1117 11.179 3.1117H17.3733C18.0153 3.1117 18.4088 3.48178 18.4088 4.07475V24.2739C18.4088 24.869 18.0153 25.237 17.3733 25.237H11.179C10.5371 25.237 10.1436 24.869 10.1436 24.2739ZM12.4086 15.3414C13.1565 15.3414 13.7637 14.7245 13.7637 13.9766C13.7637 13.2308 13.1565 12.614 12.4086 12.614C11.6532 12.614 11.0363 13.2308 11.0363 13.9766C11.0363 14.7245 11.6532 15.3414 12.4086 15.3414ZM16.1651 15.3414C16.913 15.3414 17.5203 14.7245 17.5203 13.9766C17.5203 13.2308 16.913 12.614 16.1651 12.614C15.4097 12.614 14.7908 13.2308 14.7908 13.9766C14.7908 14.7245 15.4097 15.3414 16.1651 15.3414ZM14.2772 11.1365C16.0841 11.1365 17.5435 9.67701 17.5435 7.87022C17.5435 6.06342 16.0841 4.60397 14.2772 4.60397C12.4801 4.60397 11.011 6.06342 11.011 7.87022C11.011 9.67701 12.4801 11.1365 14.2772 11.1365ZM14.2869 9.16795C13.5708 9.16795 12.9795 8.58834 12.9795 7.87022C12.9795 7.1542 13.5708 6.57248 14.2869 6.57248C15.005 6.57248 15.5846 7.1542 15.5846 7.87022C15.5846 8.58834 15.005 9.16795 14.2869 9.16795Z" fill="black"/>
</svg>
