<svg width="28" height="28" viewBox="0 0 28 28" fill="none" xmlns="http://www.w3.org/2000/svg">
<path d="M9.30804 25.535H18.3102C23.1343 25.535 25.6491 23.0298 25.6491 18.2269V9.30804C25.6491 4.50523 23.1343 2 18.3102 2H9.30804C4.50523 2 2 4.50523 2 9.30804V18.2269C2 23.0298 4.50523 25.535 9.30804 25.535ZM13.8177 19.4419C10.6885 19.4419 8.15492 16.918 8.15492 13.7675C8.15492 11.6654 9.29492 9.80304 11.0966 8.79195V13.7675C11.0966 15.2783 12.293 16.4652 13.8177 16.4652C15.3167 16.4652 16.5462 15.2548 16.5462 13.7675C16.5462 12.2802 15.2912 11.0133 13.8177 11.0133C13.2903 11.0133 12.7576 11.1891 12.3165 11.513V8.30187C12.7576 8.16335 13.269 8.11648 13.8177 8.11648C16.8957 8.11648 19.4879 10.6405 19.4879 13.7675C19.4879 16.8594 16.9543 19.4419 13.8177 19.4419ZM13.8177 15.2666C13.0133 15.2666 12.3399 14.5932 12.3399 13.7675C12.3399 12.9652 13.0388 12.2919 13.8177 12.2919C14.5965 12.2919 15.305 13.0004 15.305 13.7675C15.305 14.558 14.6178 15.2666 13.8177 15.2666Z" fill="black"/>
</svg>
