<svg width="36" height="28" viewBox="0 0 36 28" fill="none" xmlns="http://www.w3.org/2000/svg">
<path d="M3.96656 21.5282H6.26248V7.38928C6.26248 6.64983 6.62693 6.29592 7.35584 6.29592H27.1455C27.8428 6.29592 28.203 6.63084 28.2241 7.23764V7.36257H30.5327V6.78811C30.5327 4.9682 29.4663 4 27.7254 4H6.776C5.03296 4 3.96656 4.9682 3.96656 6.78811V21.5282ZM1.48452 23.5916H15.457C15.1484 22.9644 14.9834 22.3312 14.9737 20.6055H1.48452C0.673591 20.6055 0 21.2769 0 22.0996C0 22.9222 0.673591 23.5916 1.48452 23.5916Z" fill="black"/>
<path d="M19.3581 24.1762H33.0454C34.8589 24.1762 35.833 23.2022 35.833 21.4036V11.7588C35.833 9.9527 34.8589 8.97864 33.0454 8.97864H19.356C17.552 8.97864 16.5779 9.94309 16.5779 11.7588V21.4036C16.5779 23.2022 17.552 24.1762 19.3581 24.1762ZM19.4659 22.2033C18.842 22.2033 18.553 21.9452 18.553 21.2829V11.8603C18.553 11.2192 18.842 10.9399 19.4659 10.9399H32.9472C33.5518 10.9399 33.8622 11.2192 33.8622 11.8603V21.2829C33.8622 21.9452 33.5518 22.2033 32.9472 22.2033H19.4659ZM23.17 21.2184H29.2527C29.5649 21.2184 29.7875 21.0117 29.7875 20.6878C29.7875 20.3597 29.5649 20.1434 29.2527 20.1434H23.17C22.8503 20.1434 22.6255 20.3597 22.6255 20.6878C22.6255 21.0117 22.8503 21.2184 23.17 21.2184Z" fill="black"/>
</svg>
