<svg width="28" height="28" viewBox="0 0 28 28" fill="none" xmlns="http://www.w3.org/2000/svg">
<path d="M14.105 26.2301C20.7369 26.2301 26.2121 20.7549 26.2121 14.123C26.2121 7.50291 20.7273 2.01807 14.0954 2.01807C7.47523 2.01807 2 7.50291 2 14.123C2 20.7549 7.48484 26.2301 14.105 26.2301Z" fill="black"/>
<path d="M9.92773 19.2439V9.00964C9.92773 7.97628 10.6595 7.27222 11.7418 7.27222H16.4895C17.5719 7.27222 18.3036 7.97628 18.3036 9.00964V19.2439C18.3036 20.2773 17.5719 20.9792 16.4895 20.9792H11.7418C10.6595 20.9792 9.92773 20.2773 9.92773 19.2439ZM11.1167 18.6777H17.1146V9.57378H11.1167V18.6777ZM14.1284 20.2679C14.4268 20.2679 14.6516 20.0122 14.6516 19.7096C14.6516 19.4166 14.4268 19.1727 14.1284 19.1727C13.8259 19.1727 13.5777 19.4166 13.5777 19.7096C13.5777 20.0122 13.8259 20.2679 14.1284 20.2679ZM12.8598 8.47573C12.8598 8.62807 12.9748 8.71972 13.1059 8.71972H15.1255C15.2682 8.71972 15.3716 8.62807 15.3716 8.47573C15.3716 8.31378 15.2682 8.21253 15.1255 8.21253H13.1059C12.9748 8.21253 12.8598 8.31378 12.8598 8.47573Z" fill="white"/>
<path d="M8.90603 16.1553C8.71431 16.3864 8.37142 16.3822 8.17009 16.1255C7.72782 15.5682 7.47095 14.8744 7.47095 14.1209C7.47095 13.377 7.72782 12.6737 8.17009 12.128C8.37142 11.8693 8.71431 11.8555 8.90603 12.0887C9.0722 12.29 9.01993 12.5307 8.84204 12.7852C8.55845 13.1253 8.41454 13.6072 8.41454 14.1209C8.41454 14.6347 8.55845 15.0973 8.84204 15.4566C9.01993 15.7133 9.0722 15.954 8.90603 16.1553ZM19.3347 16.1553C19.1686 15.954 19.2208 15.7133 19.3987 15.4566C19.6823 15.0973 19.8358 14.6347 19.8358 14.1209C19.8358 13.6072 19.6823 13.1253 19.3987 12.7852C19.2208 12.5307 19.1686 12.29 19.3347 12.0887C19.5265 11.8555 19.8811 11.8693 20.0707 12.128C20.5129 12.6737 20.7794 13.377 20.7794 14.1209C20.7794 14.8744 20.5129 15.5682 20.0707 16.1255C19.8811 16.3822 19.5265 16.3864 19.3347 16.1553Z" fill="white"/>
<path d="M7.19157 17.5824C7.03501 17.8093 6.70595 17.8093 6.46946 17.5728C5.62431 16.6531 5.16821 15.4222 5.16821 14.1209C5.16821 12.8293 5.62431 11.5983 6.46946 10.6712C6.70595 10.4326 7.03501 10.4326 7.19157 10.6594C7.37157 10.8608 7.32892 11.1174 7.12337 11.3602C6.44649 12.1128 6.08837 13.0763 6.08837 14.1209C6.08837 15.1655 6.44649 16.1291 7.12337 16.8816C7.32892 17.1266 7.37157 17.3907 7.19157 17.5824ZM21.0492 17.5824C20.8692 17.3907 20.914 17.1266 21.127 16.8816C21.7943 16.1291 22.162 15.1655 22.162 14.1209C22.162 13.0763 21.7943 12.1128 21.127 11.3602C20.914 11.1174 20.8692 10.8608 21.0492 10.6594C21.2154 10.4326 21.5444 10.4326 21.7713 10.6712C22.6165 11.5983 23.0822 12.8293 23.0822 14.1209C23.0822 15.4222 22.6165 16.6531 21.7713 17.5728C21.5444 17.8093 21.2154 17.8093 21.0492 17.5824Z" fill="white"/>
</svg>
