<svg width="28" height="29" viewBox="0 0 28 29" fill="none" xmlns="http://www.w3.org/2000/svg">
<path d="M2 25.899C2 27.2666 2.8175 28.1427 4.11054 28.1427H6.69007C7.47217 28.1427 8.04358 27.7288 8.25756 27.002L8.78959 25.1333H19.8833L20.4153 27.002C20.6293 27.7288 21.2103 28.1427 21.9924 28.1427H24.5623C25.8554 28.1427 26.6729 27.2666 26.6729 25.899V2.249C26.6729 0.883537 25.8554 0.00744629 24.5623 0.00744629H21.9924C21.2103 0.00744629 20.6293 0.42135 20.4153 1.14815L19.8833 3.01682H8.78959L8.25756 1.14815C8.04358 0.42135 7.47217 0.00744629 6.69007 0.00744629H4.11054C2.8175 0.00744629 2 0.883537 2 2.249V25.899ZM12.9964 18.246C12.4234 18.246 12.0303 17.7123 11.5787 17.069C11.045 16.3084 10.6168 15.1452 10.6168 14.0268C10.6168 12.2202 11.7704 11.2818 12.9219 11.2818C13.5397 11.2818 14.0286 11.6727 14.4078 11.6727C14.7753 11.6727 15.3441 11.2562 16.0344 11.2562C16.3081 11.2562 17.2348 11.2818 17.8665 12.1733C17.8079 12.2064 16.8694 12.7539 16.8694 13.933C16.8694 15.2997 18.0678 15.7726 18.1008 15.7865C18.0891 15.8333 17.9251 16.4629 17.4734 17.1062C17.0825 17.6516 16.666 18.246 16.0344 18.246C15.4166 18.246 15.2408 17.8785 14.5154 17.8785C13.8369 17.8785 13.5652 18.246 12.9964 18.246ZM14.4685 11.1763C14.4078 11.1763 14.3705 11.1625 14.3492 11.1411C14.3354 11.1273 14.3354 11.0549 14.3354 10.9846C14.3354 10.5095 14.5505 10.0227 14.8222 9.72346C15.1683 9.34424 15.7233 9.04705 16.1888 9.03533C16.2026 9.08221 16.2026 9.14291 16.2026 9.21322C16.2026 9.69041 16.0013 10.1633 15.7233 10.5095C15.4166 10.8887 14.8829 11.1763 14.4685 11.1763Z" fill="black"/>
</svg>
