<svg width="39" height="28" viewBox="0 0 39 28" fill="none" xmlns="http://www.w3.org/2000/svg">
<path d="M10.9746 18.7431C10.9746 20.568 11.681 21.906 13.0338 22.6769C13.6835 23.042 14.0733 23.4925 14.3278 24.2587L14.7808 25.6201C15.0171 26.3849 15.5866 26.7672 16.4055 26.7672H21.8892C22.739 26.7672 23.268 26.3945 23.5235 25.6201L23.9765 24.2587C24.2332 23.4925 24.6133 23.042 25.2705 22.6769C26.6137 21.906 27.3222 20.5701 27.3222 18.7431V9.04114C27.3222 7.21419 26.6137 5.88786 25.2705 5.1074C24.6133 4.74224 24.2332 4.29177 23.9765 3.53521L23.5235 2.16412C23.2893 1.40896 22.7294 1.01709 21.8892 1.01709H16.4055C15.5866 1.01709 15.0171 1.39935 14.7808 2.16412L14.3278 3.53521C14.0765 4.2906 13.6826 4.7624 13.0338 5.1074C11.6906 5.85692 10.9746 7.19708 10.9746 9.04114V18.7431ZM13.0125 18.3768V9.41708C13.0125 7.70473 14.0004 6.67957 15.6712 6.67957H22.6352C24.2965 6.67957 25.2865 7.70684 25.2865 9.41708V18.3768C25.2865 20.0774 24.2965 21.1026 22.6352 21.1026H15.6712C14.0004 21.1026 13.0125 20.0795 13.0125 18.3768ZM26.9357 13.1071H27.4326C28.0872 13.1071 28.5278 12.6548 28.5278 11.9319V10.3288C28.5278 9.61232 28.0872 9.15576 27.4326 9.15576H26.9357V13.1071Z" fill="black"/>
<path d="M8.06 18.5282C8.44766 18.0726 8.29953 17.5073 7.91188 16.9801C7.26359 16.1603 6.92164 15.0353 6.92164 13.8777C6.92164 12.7201 7.26359 11.5834 7.91188 10.7711C8.29742 10.2461 8.44766 9.68285 8.06 9.22512C7.64797 8.73341 6.87735 8.72497 6.4018 9.29872C5.39704 10.5179 4.83008 12.1403 4.83008 13.8777C4.83008 15.6151 5.39704 17.2375 6.4018 18.4525C6.87735 19.0283 7.64797 19.0103 8.06 18.5282ZM30.8911 18.5282C31.3032 19.0103 32.0738 19.0283 32.5493 18.4525C33.5562 17.2375 34.1307 15.6151 34.1307 13.8777C34.1307 12.1403 33.5562 10.5179 32.5493 9.29872C32.0738 8.72497 31.3032 8.73341 30.8911 9.22512C30.5035 9.68285 30.6633 10.2461 31.0393 10.7711C31.6876 11.5834 32.0391 12.7201 32.0391 13.8777C32.0391 15.0353 31.6876 16.1603 31.0393 16.9801C30.6612 17.5073 30.5035 18.0726 30.8911 18.5282Z" fill="black"/>
<path d="M4.64156 21.887C5.03976 21.4272 4.91624 20.8363 4.47117 20.3326C2.94515 18.6393 2.09156 16.3656 2.09156 13.8777C2.09156 11.3919 2.94304 9.11613 4.47117 7.42487C4.91835 6.9212 5.04398 6.33035 4.64156 5.8705C4.23281 5.383 3.51539 5.36519 2.99836 5.92699C1.09313 7.98363 0 10.8362 0 13.8777C0 16.9234 1.0636 19.7474 2.99836 21.8305C3.51961 22.3902 4.23492 22.367 4.64156 21.887ZM34.3094 21.887C34.716 22.367 35.4313 22.3902 35.9622 21.8305C37.8991 19.7474 38.951 16.9234 38.951 13.8777C38.951 10.8362 37.8695 7.98363 35.9622 5.92699C35.4377 5.36519 34.7203 5.383 34.3094 5.8705C33.9091 6.33035 34.0326 6.9212 34.4798 7.42487C36.01 9.11824 36.8594 11.3919 36.8594 13.8777C36.8594 16.3656 36.0058 18.6393 34.4798 20.3326C34.0368 20.8363 33.9112 21.4272 34.3094 21.887Z" fill="black"/>
</svg>
