<svg width="28" height="28" viewBox="0 0 28 28" fill="none" xmlns="http://www.w3.org/2000/svg">
<path d="M10.9079 27.3465H17.0626C18.894 27.3465 19.9704 26.2806 19.9704 24.4682V3.87835C19.9704 2.06594 18.894 1 17.0626 1H10.9332C9.08703 1 8 2.06594 8 3.87835V24.4682C8 26.2806 9.07648 27.3465 10.9079 27.3465ZM11.836 11.3022C10.9733 11.3022 10.2938 10.6077 10.2938 9.76632C10.2938 8.91109 10.9712 8.22414 11.836 8.22414C12.6753 8.22414 13.3601 8.91109 13.3601 9.76632C13.3601 10.6077 12.6732 11.3022 11.836 11.3022ZM16.1237 11.3022C15.2705 11.3022 14.5815 10.6077 14.5815 9.76632C14.5815 8.91109 15.2684 8.22414 16.1237 8.22414C16.9726 8.22414 17.6574 8.91109 17.6574 9.76632C17.6574 10.6077 16.9705 11.3022 16.1237 11.3022ZM11.836 15.7129C10.9712 15.7129 10.2938 15.0205 10.2938 14.177C10.2938 13.3218 10.9712 12.6348 11.836 12.6348C12.6753 12.6348 13.3601 13.3218 13.3601 14.177C13.3601 15.0163 12.6753 15.7129 11.836 15.7129ZM11.836 20.114C10.9712 20.114 10.2938 19.4408 10.2938 18.5781C10.2938 17.7325 10.9712 17.0359 11.836 17.0359C12.6753 17.0359 13.3601 17.7346 13.3601 18.5781C13.3601 19.4366 12.6753 20.114 11.836 20.114ZM16.114 20.114C15.3183 20.114 14.6846 19.4802 14.6846 18.6611V14.0877C14.6846 13.2824 15.3204 12.6348 16.114 12.6348C16.9278 12.6348 17.5883 13.2782 17.5883 14.0877V18.6611C17.5883 19.4865 16.9299 20.114 16.114 20.114Z" fill="black"/>
</svg>
