<svg width="28" height="29" viewBox="0 0 28 29" fill="none" xmlns="http://www.w3.org/2000/svg">
<path d="M14.0691 27.949C21.5858 27.949 26.1362 25.7726 26.1362 20.7244V19.3821C25.2669 20.4014 23.9907 21.2269 22.3683 21.8414V23.4562C22.3683 23.8971 21.9978 24.258 21.5548 24.258C21.1119 24.258 20.753 23.8992 20.753 23.4562V22.3685C20.0818 22.5422 19.3679 22.6807 18.7032 22.7883V24.2194C18.7032 24.6644 18.3444 25.0233 17.8993 25.0233C17.4563 25.0233 17.0837 24.6644 17.0837 24.2194V22.998C16.3304 23.0662 15.4885 23.1227 14.7535 23.1344V24.5039C14.7535 24.9469 14.3947 25.3132 13.9496 25.3132C13.5066 25.3132 13.1382 24.9469 13.1382 24.5039V23.1248C12.3648 23.1131 11.5688 23.0566 10.8155 22.9788V24.2194C10.8155 24.6644 10.445 25.0233 9.99991 25.0233C9.55695 25.0233 9.19812 24.6644 9.19812 24.2194V22.7498C8.47578 22.6326 7.7982 22.4824 7.14827 22.2991V23.4562C7.14827 23.8992 6.78945 24.258 6.34437 24.258C5.90351 24.258 5.53297 23.8971 5.53297 23.4562V21.7528C4.01844 21.15 2.82125 20.3533 2 19.3821V20.7244C2 25.7726 6.54078 27.949 14.0691 27.949ZM12.0629 13.9116L9.37953 10.8832C5.0375 11.6395 2.41437 13.4878 2.41437 15.9579C2.41437 19.2342 7.00414 21.4235 14.0691 21.4235C21.132 21.4235 25.7218 19.2342 25.7218 15.9579C25.7218 13.4878 23.0933 11.6395 18.7608 10.8832L16.0616 13.9116C14.9647 15.165 13.1694 15.165 12.0629 13.9116Z" fill="black"/>
<path d="M14.8198 12.8051L18.087 9.11625C18.7461 8.37633 18.3629 7.33383 17.3119 7.33383H15.214V1.1332C15.214 0.477889 14.7076 0 14.0787 0C13.4286 0 12.9338 0.477889 12.9338 1.1332V7.33383H10.8082C9.79669 7.33383 9.36544 8.35172 10.032 9.11625L13.3046 12.8051C13.7455 13.3162 14.3715 13.3162 14.8198 12.8051Z" fill="black"/>
</svg>
