<svg width="28" height="28" viewBox="0 0 28 28" fill="none" xmlns="http://www.w3.org/2000/svg">
<path d="M8 24.5833C8 26.2841 9.11562 27.3487 10.9144 27.3487H17.0682C18.8553 27.3487 19.9805 26.2841 19.9805 24.5833V3.76749C19.9805 2.07625 18.8553 1 17.0682 1H10.9144C9.11562 1 8 2.07625 8 3.76749V24.5833ZM11.828 16.2936C10.9899 16.2936 10.3126 15.6142 10.3126 14.7878C10.3126 13.9497 10.9899 13.2798 11.828 13.2798C12.6662 13.2798 13.3264 13.9497 13.3264 14.7878C13.3264 15.6142 12.6662 16.2936 11.828 16.2936ZM16.1759 16.2936C15.3282 16.2936 14.6583 15.6142 14.6583 14.7878C14.6583 13.9497 15.3282 13.2798 16.1759 13.2798C17.0023 13.2798 17.6722 13.9497 17.6722 14.7878C17.6722 15.6142 17.0023 16.2936 16.1759 16.2936ZM13.9913 11.687C11.8484 11.687 10.0655 9.92757 10.0655 7.76124C10.0655 5.59702 11.8484 3.83757 13.9913 3.83757C16.1459 3.83757 17.9192 5.59702 17.9192 7.76124C17.9192 9.92757 16.1459 11.687 13.9913 11.687ZM14.0009 9.3428C14.8817 9.3428 15.5921 8.64202 15.5921 7.76124C15.5921 6.88257 14.8817 6.17429 14.0009 6.17429C13.1222 6.17429 12.4022 6.88257 12.4022 7.76124C12.4022 8.64202 13.1222 9.3428 14.0009 9.3428Z" fill="black"/>
</svg>
