<svg width="30" height="28" viewBox="0 0 30 28" fill="none" xmlns="http://www.w3.org/2000/svg">
<path d="M3.84421 22.3872H25.2958C27.8252 22.3872 29.1401 21.0841 29.1401 18.5815V9.80577C29.1401 7.30523 27.8252 6 25.2958 6H3.84421C1.30523 6 0 7.29562 0 9.80577V18.5815C0 21.0937 1.30523 22.3872 3.84421 22.3872ZM3.97733 20.0913C2.88772 20.0913 2.29592 19.5197 2.29592 18.3907V9.99866C2.29592 8.85795 2.88772 8.29592 3.97733 8.29592H25.1627C26.2427 8.29592 26.8441 8.85795 26.8441 9.99866V18.3907C26.8441 19.5197 26.2427 20.0913 25.1627 20.0913H3.97733ZM4.95045 18.322C5.42623 18.3082 5.79982 17.9346 5.79982 17.4801V15.6651C5.79982 15.1894 5.41662 14.8158 4.95045 14.8275C4.48639 14.8158 4.11069 15.1894 4.11069 15.6651V17.4684C4.11069 17.9442 4.47467 18.3082 4.95045 18.322ZM7.87076 18.322C8.34865 18.3082 8.71052 17.9346 8.71052 17.4801V15.6651C8.71052 15.1894 8.33693 14.8158 7.87076 14.8275C7.4067 14.8158 7.02139 15.1894 7.02139 15.6651V17.4684C7.02139 17.9442 7.39498 18.3082 7.87076 18.322ZM10.9617 17.4183H15.5517C16.0158 17.4183 16.4011 17.033 16.4011 16.5689C16.4011 16.1048 16.0158 15.7291 15.5517 15.7291H10.9617C10.4976 15.7291 10.1123 16.1048 10.1123 16.5689C10.1123 17.033 10.4976 17.4183 10.9617 17.4183ZM23.7241 18.0002C24.476 17.9885 25.1224 17.3421 25.1224 16.5806C25.1224 15.8032 24.476 15.1472 23.722 15.1472C22.9446 15.1472 22.2907 15.8032 22.2907 16.5806C22.2907 17.3463 22.9467 18.0119 23.7241 18.0002Z" fill="black"/>
</svg>
