<svg width="28" height="28" viewBox="0 0 28 28" fill="none" xmlns="http://www.w3.org/2000/svg">
<path d="M13.5891 26.0804C18.8972 26.0804 22.1644 23.0286 22.1644 17.7564V7.88424C22.1644 5.9155 20.8749 4.65175 18.8461 4.65175H7.29592V2.19081C7.29592 1.56128 6.78124 1.03699 6.14421 1.03699C5.51468 1.03699 5 1.56128 5 2.19081V17.7564C5 23.0286 8.26929 26.0804 13.5891 26.0804ZM13.5891 23.8229C9.72944 23.8229 7.29592 21.6442 7.29592 17.8874V6.94767H18.4018C19.3271 6.94767 19.8685 7.46775 19.8685 8.34924V17.8874C19.8685 21.6442 17.4446 23.8229 13.5891 23.8229ZM9.43155 15.9791H17.7371C18.3626 15.9791 18.7451 15.5987 18.7451 14.9882V9.07369C18.7451 8.45142 18.3626 8.07314 17.7371 8.07314H9.43155C8.81139 8.07314 8.42139 8.44932 8.42139 9.07158V14.9903C8.42139 15.6008 8.81139 15.9791 9.43155 15.9791ZM11.8618 21.8073H15.2462C15.7189 21.8073 16.0979 21.4283 16.0979 20.9535C16.0979 20.4808 15.7189 20.0997 15.2462 20.0997H11.8618C11.3987 20.0997 11.008 20.4808 11.008 20.9535C11.008 21.4283 11.3987 21.8073 11.8618 21.8073Z" fill="black"/>
</svg>
