<svg width="28" height="28" viewBox="0 0 28 28" fill="none" xmlns="http://www.w3.org/2000/svg">
<path d="M14.105 26.2301C20.7369 26.2301 26.2121 20.7549 26.2121 14.123C26.2121 7.50291 20.7273 2.01807 14.0954 2.01807C7.47523 2.01807 2 7.50291 2 14.123C2 20.7549 7.48484 26.2301 14.105 26.2301Z" fill="black"/>
<path d="M11.4607 21.7477C10.2624 21.7477 9.4519 20.9628 9.4519 19.8017V8.44016C9.4519 7.26946 10.2624 6.49414 11.4607 6.49414H16.7396C17.938 6.49414 18.758 7.26946 18.758 8.44016V19.8017C18.758 20.9628 17.938 21.7477 16.7396 21.7477H11.4607ZM11.6278 20.3785H16.5842C17.1409 20.3785 17.4575 20.0715 17.4575 19.5416V8.70031C17.4575 8.17039 17.1409 7.86336 16.5842 7.86336H15.7002C15.5989 7.86336 15.5499 7.91023 15.5499 8.01359V8.18609C15.5499 8.50461 15.3432 8.69961 15.0481 8.69961H13.1523C12.8572 8.69961 12.6601 8.50461 12.6601 8.18609V8.01359C12.6601 7.91023 12.6111 7.86336 12.5098 7.86336H11.6278C11.0595 7.86336 10.7524 8.16828 10.7524 8.6982V19.5437C10.7524 20.0736 11.0595 20.3785 11.6278 20.3785ZM12.6017 19.8448C12.4004 19.8448 12.2438 19.7021 12.2438 19.4987C12.2438 19.2718 12.4004 19.1291 12.6017 19.1291H15.6104C15.8096 19.1291 15.9683 19.2718 15.9683 19.4987C15.9683 19.7021 15.8096 19.8448 15.6104 19.8448H12.6017Z" fill="white"/>
</svg>
