<svg width="35" height="28" viewBox="0 0 35 28" fill="none" xmlns="http://www.w3.org/2000/svg">
<path d="M1.48452 24.0599H33.0147C33.8278 24.0599 34.5014 23.3884 34.5014 22.5658C34.5014 21.7431 33.8278 21.0737 33.0147 21.0737H1.48452C0.673591 21.0737 0 21.7431 0 22.5658C0 23.3884 0.673591 24.0599 1.48452 24.0599ZM19.9434 6.76212H27.1455C27.8723 6.76212 28.2368 7.11813 28.2368 7.85548V22.0759H30.5327V7.25431C30.5327 5.43439 29.5357 4.46619 27.7254 4.46619H19.9434V6.76212ZM14.5559 4.46619H6.776C5.03296 4.46619 3.96656 5.43439 3.96656 7.25431V22.0759H6.26248V7.85548C6.26248 7.11813 6.62693 6.76212 7.35584 6.76212H14.5559V4.46619Z" fill="black"/>
<path d="M16.2688 1.98296V11.1496L16.3764 13.4113L14.3401 11.0959L13.6794 10.4512C13.4964 10.2798 13.2454 10.165 12.9676 10.165C12.4112 10.165 12.0261 10.5618 12.0261 11.1011C12.0261 11.383 12.1283 11.6214 12.3135 11.8066L16.4406 15.955C16.7043 16.2091 16.9839 16.3398 17.2506 16.3398C17.5152 16.3398 17.8065 16.2091 18.0585 15.955L22.1856 11.8066C22.3707 11.6214 22.4729 11.383 22.4729 11.1011C22.4729 10.5618 22.0879 10.165 21.5336 10.165C21.2558 10.165 21.0069 10.2777 20.8197 10.4512L20.1611 11.0959L18.1248 13.4113L18.2399 11.1496V1.98296C18.2399 1.38601 17.7728 1 17.2506 1C16.7263 1 16.2688 1.38601 16.2688 1.98296Z" fill="black"/>
</svg>
