<svg width="35" height="28" viewBox="0 0 35 28" fill="none" xmlns="http://www.w3.org/2000/svg">
<path d="M0 19.9821C0 22.8276 1.8614 24.6173 4.57664 24.6173C6.10264 24.6173 7.4946 23.9702 8.53803 22.7473L10.6212 20.3158C10.9216 19.9715 11.231 19.8063 11.5931 19.8063H22.7072C23.0693 19.8063 23.3787 19.9715 23.6791 20.3158L25.7644 22.7473C26.8078 23.9681 28.1976 24.6173 29.7237 24.6173C32.4389 24.6173 34.3003 22.8276 34.3003 19.9821C34.3003 18.7554 34.035 17.3634 33.5695 15.8222C32.8483 13.4051 31.5923 10.1271 30.3991 7.60429C29.3829 5.48015 28.8293 4.44117 26.2605 3.85969C24.0089 3.34523 20.9166 3.00961 17.156 3.00961C13.3934 3.00961 10.2914 3.34523 8.03976 3.85969C5.47101 4.44117 4.91742 5.48015 3.90328 7.60429C2.71008 10.1271 1.45195 13.4051 0.73289 15.8222C0.267422 17.3634 0 18.7554 0 19.9821ZM2.1642 19.9723C2.1642 19.2551 2.32194 18.3961 2.68639 17.1546C3.47788 14.4382 4.83303 10.946 6.01452 8.37304C6.5803 7.13811 6.89249 6.43756 8.29358 6.11131C10.4421 5.59897 13.4634 5.27178 17.156 5.27178C20.839 5.27178 23.8582 5.59897 26.0067 6.11131C27.4078 6.43756 27.7104 7.13811 28.2858 8.37304C29.4844 10.946 30.7936 14.4478 31.6139 17.1546C31.988 18.3961 32.1382 19.2551 32.1382 19.9723C32.1382 21.484 31.0753 22.4191 29.6712 22.4191C28.8269 22.4191 27.9914 21.982 27.3223 21.1964L24.9862 18.5236C24.4153 17.8608 23.9487 17.5441 22.92 17.5441H11.3803C10.3537 17.5441 9.88499 17.8608 9.31405 18.5236L6.97804 21.1964C6.31312 21.9841 5.47335 22.4191 4.62913 22.4191C3.22499 22.4191 2.1642 21.484 2.1642 19.9723Z" fill="black"/>
<path d="M7.59009 11.5223C7.59009 12.176 7.99345 12.5848 8.65134 12.5848H10.632V14.4984C10.632 15.153 11.0183 15.5702 11.6612 15.5702C12.2924 15.5702 12.6882 15.153 12.6882 14.4984V12.5848H14.5463C15.2553 12.5848 15.6821 12.176 15.6821 11.5223C15.6821 10.8879 15.2553 10.4909 14.5463 10.4909H12.6882V8.57507C12.6882 7.92257 12.2924 7.51288 11.6612 7.51288C11.0183 7.51288 10.632 7.92257 10.632 8.57507V10.4909H8.65134C7.99345 10.4909 7.59009 10.8879 7.59009 11.5223ZM24.4672 11.408C25.4513 11.408 26.199 10.6624 26.199 9.68788C26.199 8.70163 25.4513 7.94437 24.4672 7.94437C23.5023 7.94437 22.7333 8.70163 22.7333 9.68788C22.7333 10.6624 23.5023 11.408 24.4672 11.408ZM20.9881 14.9327C21.9648 14.9327 22.722 14.1755 22.722 13.203C22.722 12.2168 21.9648 11.4595 20.9881 11.4595C20.0253 11.4595 19.2563 12.2168 19.2563 13.203C19.2563 14.1755 20.0253 14.9327 20.9881 14.9327Z" fill="black"/>
</svg>
