<svg width="28" height="28" viewBox="0 0 28 28" fill="none" xmlns="http://www.w3.org/2000/svg">
<path d="M11.3841 26.7501H16.8677C17.708 26.7501 18.2541 26.3774 18.4924 25.603L18.9551 24.2415C19.1128 23.7179 19.3441 23.3715 19.7067 23.0774C19.7536 23.038 19.7963 23.0008 19.8431 22.956L17.8552 20.9798C17.4853 21.047 17.0749 21.0855 16.6378 21.0855H10.6498C8.97889 21.0855 7.991 20.0624 7.991 18.3597V11.4876C7.991 11.3629 7.991 11.2403 8.00061 11.1252L5.96273 9.09695C5.96273 9.2132 5.95312 9.34117 5.95312 9.46703V18.726C5.95312 20.5508 6.65953 21.8889 8.00273 22.6597C8.66203 23.0249 9.0614 23.4733 9.29671 24.2415L9.74976 25.603C9.99773 26.3678 10.5651 26.7501 11.3841 26.7501ZM11.3841 1C10.5651 1 9.99773 1.38226 9.74976 2.14703L9.29671 3.51812C9.11765 4.08226 8.80946 4.47133 8.44688 4.77297L10.4421 6.76819C10.7437 6.70092 11.07 6.66248 11.4176 6.66248H17.6042C19.2729 6.66248 20.265 7.68975 20.265 9.39999V16.0305C20.265 16.2095 20.265 16.3886 20.265 16.5677L22.2795 18.5938C22.2891 18.3369 22.2987 18.0801 22.2987 17.8136V9.02405C22.2987 7.1971 21.5902 5.87077 20.2491 5.09031C19.5919 4.72515 19.1904 4.27468 18.9551 3.51812L18.4924 2.14703C18.2541 1.39187 17.6984 1 16.8677 1H11.3841ZM21.9143 13.09H22.4016C23.0637 13.09 23.5064 12.6355 23.5064 11.9148V10.3117C23.5064 9.59523 23.0637 9.13867 22.4016 9.13867H21.9143V13.09Z" fill="black"/>
<path d="M22.7179 23.7351C23.0821 24.1089 23.6774 24.1089 24.0374 23.7351C24.3899 23.373 24.4016 22.7894 24.0374 22.4155L5.59562 3.98124C5.2314 3.61702 4.63609 3.60742 4.26437 3.98124C3.91188 4.33374 3.91188 4.95038 4.26437 5.30077L22.7179 23.7351Z" fill="black"/>
</svg>
