<svg width="28" height="28" viewBox="0 0 28 28" fill="none" xmlns="http://www.w3.org/2000/svg">
<path d="M5 19.2105C5 21.0546 6.13695 22.2384 7.87765 22.2384H19.5427C21.2834 22.2384 22.4203 21.0546 22.4203 19.2105V9.02999C22.4203 7.18593 21.2546 6 19.5427 6H7.87765C6.13695 6 5 7.18593 5 9.02999V19.2105ZM7.3592 18.8264V9.41413C7.3592 8.72014 7.7642 8.29803 8.41553 8.29803H19.0048C19.6465 8.29803 20.0611 8.72014 20.0611 9.46264V18.8264C20.0611 19.5204 19.6465 19.9425 19.0048 19.9425H8.41553C7.7642 19.9425 7.3592 19.5204 7.3592 18.8264ZM13.707 18.7151C16.2422 18.7151 18.3066 16.6528 18.3066 14.1154C18.3066 11.5781 16.2422 9.51584 13.707 9.51584C11.1718 9.51584 9.11373 11.5781 9.11373 14.1154C9.11373 16.6528 11.1718 18.7151 13.707 18.7151ZM13.7112 16.9556C12.1259 16.9556 10.8689 15.6987 10.8689 14.1154C10.8689 12.5301 12.1259 11.2753 13.7112 11.2753C15.2944 11.2753 16.5514 12.5301 16.5514 14.1154C16.5514 15.6987 15.2944 16.9556 13.7112 16.9556Z" fill="black"/>
</svg>
