<svg width="28" height="28" viewBox="0 0 28 28" fill="none" xmlns="http://www.w3.org/2000/svg">
<path d="M14.105 26.21C20.7369 26.21 26.2121 20.7273 26.2121 14.105C26.2121 7.47312 20.7273 2 14.0954 2C7.47523 2 2 7.47312 2 14.105C2 20.7273 7.48484 26.21 14.105 26.21ZM14.105 23.8255C8.71085 23.8255 4.39412 19.4991 4.39412 14.105C4.39412 8.71085 8.70124 4.38452 14.0954 4.38452C19.4895 4.38452 23.8276 8.71085 23.8276 14.105C23.8276 19.4991 19.4991 23.8255 14.105 23.8255Z" fill="black"/>
<path d="M10.0786 19.028C10.0786 20.0199 10.7785 20.7038 11.8172 20.7038H16.3948C17.4315 20.7038 18.1334 20.0199 18.1334 19.028V9.17773C18.1334 8.18586 17.4315 7.50195 16.3948 7.50195H11.8172C10.7785 7.50195 10.0786 8.18586 10.0786 9.17773V19.028ZM11.2156 18.4937V9.71211H16.9965V18.4937H11.2156ZM14.1188 20.0223C13.828 20.0223 13.5861 19.7783 13.5861 19.4895C13.5861 19.2008 13.828 18.961 14.1188 18.961C14.4055 18.961 14.626 19.2008 14.626 19.4895C14.626 19.7783 14.4055 20.0223 14.1188 20.0223ZM12.898 8.65976C12.898 8.50953 13.0109 8.40828 13.1377 8.40828H15.0744C15.2129 8.40828 15.3141 8.50953 15.3141 8.65976C15.3141 8.80789 15.2129 8.90164 15.0744 8.90164H13.1377C13.0109 8.90164 12.898 8.80789 12.898 8.65976Z" fill="black"/>
<path d="M9.13522 16.0639C9.29929 15.8647 9.24702 15.6399 9.07124 15.3971C8.79936 15.0495 8.66506 14.6007 8.66506 14.1029C8.66506 13.603 8.79936 13.1466 9.07124 12.8087C9.24702 12.5659 9.29929 12.339 9.13522 12.1419C8.95522 11.9204 8.61655 11.9246 8.42694 12.1674C8.00272 12.7088 7.75757 13.3749 7.75757 14.1029C7.75757 14.8191 8.00272 15.4969 8.42694 16.0266C8.61655 16.2716 8.95522 16.2854 9.13522 16.0639ZM19.0863 16.0639C19.2663 16.2854 19.605 16.2716 19.7925 16.0266C20.2188 15.4969 20.4736 14.8191 20.4736 14.1029C20.4736 13.3749 20.2188 12.7088 19.7925 12.1674C19.605 11.9246 19.2663 11.9204 19.0863 12.1419C18.9222 12.339 18.9745 12.5659 19.1503 12.8087C19.4222 13.1466 19.5661 13.603 19.5661 14.1029C19.5661 14.6007 19.4222 15.0495 19.1503 15.3971C18.9745 15.6399 18.9222 15.8647 19.0863 16.0639Z" fill="black"/>
<path d="M7.50054 17.4399C7.66672 17.2428 7.62406 16.9979 7.43234 16.771C6.78101 16.0419 6.43671 15.1081 6.43671 14.1029C6.43671 13.0976 6.78101 12.1639 7.43234 11.4347C7.62406 11.2057 7.66672 10.9533 7.50054 10.7637C7.34609 10.5506 7.03086 10.5506 6.80609 10.7754C5.9907 11.6632 5.55054 12.8431 5.55054 14.1029C5.55054 15.3509 5.9907 16.5329 6.80609 17.4303C7.03086 17.653 7.34609 17.653 7.50054 17.4399ZM20.7212 17.4399C20.8852 17.653 21.1984 17.653 21.4156 17.4303C22.231 16.5329 22.6808 15.3509 22.6808 14.1029C22.6808 12.8431 22.231 11.6632 21.4156 10.7754C21.1984 10.5506 20.8852 10.5506 20.7212 10.7637C20.5529 10.9533 20.5977 11.2057 20.799 11.4347C21.4407 12.1639 21.7946 13.0976 21.7946 14.1029C21.7946 15.1081 21.4407 16.0419 20.799 16.771C20.5977 16.9979 20.5529 17.2428 20.7212 17.4399Z" fill="black"/>
</svg>
