<svg width="30" height="28" viewBox="0 0 30 28" fill="none" xmlns="http://www.w3.org/2000/svg">
<path d="M3.23108 22.7647H26.572C28.6962 22.7647 29.8031 21.7079 29.8031 19.5336V6.02796C29.8031 3.86328 28.6962 2.80649 26.572 2.80649H3.23108C1.10695 2.80649 0 3.86328 0 6.02796V19.5336C0 21.7079 1.10695 22.7647 3.23108 22.7647ZM8.90578 26.8639H20.8952C21.4783 26.8639 21.9604 26.3829 21.9604 25.8029C21.9604 25.2228 21.4783 24.7397 20.8952 24.7397H8.90578C8.32476 24.7397 7.84265 25.2228 7.84265 25.8029C7.84265 26.3829 8.32476 26.8639 8.90578 26.8639Z" fill="black"/>
<path d="M18.5384 10.6423L15.6935 11.3349C15.4312 11.401 15.3384 11.4959 15.3384 11.9298V15.9692C15.3384 17.7526 14.1347 19.0065 12.3769 19.0065C11.1464 19.0065 10.3486 18.2544 10.3486 17.1912C10.3486 16.0011 11.2544 15.3216 12.4015 15.0202L13.5192 14.7315C14.1054 14.5737 14.148 14.4776 14.148 13.948V8.60983C14.148 7.86944 14.2908 7.73327 14.9053 7.57881L18.4767 6.69663C19.1372 6.52295 19.3212 6.736 19.3212 7.23217V9.63475C19.3212 10.3496 19.1529 10.4975 18.5384 10.6423Z" fill="white"/>
</svg>
