<svg width="38" height="28" viewBox="0 0 38 28" fill="none" xmlns="http://www.w3.org/2000/svg">
<path d="M0 14.1421C0 20.5937 4.59937 24.2746 12.6855 24.2746H24.7666C32.8507 24.2746 37.4522 20.5937 37.4522 14.1421C37.4522 7.68086 32.8507 4 24.7666 4H12.6855C4.59937 4 0 7.68086 0 14.1421ZM2.29592 14.1421C2.29592 9.12178 6.04241 6.29592 12.6876 6.29592H24.7645C31.398 6.29592 35.1562 9.12178 35.1562 14.1421C35.1562 19.1528 31.398 21.9766 24.7645 21.9766H12.6876C6.04241 21.9766 2.29592 19.1528 2.29592 14.1421ZM1.16554 14.1578H36.2866V12.9215H1.16554V14.1578ZM10.3144 14.9559H27.1282C27.9654 14.9559 28.5736 14.3711 28.5736 13.5318C28.5736 12.6829 27.9654 12.096 27.1282 12.096H10.3144C9.50062 12.096 8.87648 12.6829 8.87648 13.5318C8.87648 14.3711 9.50062 14.9559 10.3144 14.9559ZM18.7202 18.4935C19.3912 18.4818 19.9409 17.9162 19.9409 17.2942C19.9409 16.6136 19.3912 16.0757 18.7202 16.0757C18.0513 16.0757 17.5017 16.6136 17.5017 17.2942C17.5017 17.9514 18.0513 18.5148 18.7202 18.4935Z" fill="black"/>
</svg>
