<svg width="28" height="28" viewBox="0 0 28 28" fill="none" xmlns="http://www.w3.org/2000/svg">
<path d="M12.1677 4.07567C9.37633 4.097 7 6.3995 7 9.48739C7 12.6828 11.5049 16.5226 14.8459 16.5344C17.2677 16.5482 20.1991 14.1841 20.1991 11.2632C20.1991 7.72794 15.8561 4.05224 12.1677 4.07567ZM15.936 14.8096C15.2884 14.8096 15.2554 13.9724 15.8966 12.9339C16.5325 11.874 17.5689 11.0507 18.224 11.0507C18.8812 11.0507 18.9142 11.874 18.273 12.9339C17.6392 13.9724 16.6028 14.8096 15.936 14.8096ZM12.6887 9.57879C12.3191 10.1071 11.597 10.2264 11.0495 9.83121L9.4164 8.66684C8.8764 8.27379 8.77093 7.57934 9.1757 7.05106C9.53781 6.51528 10.2557 6.38215 10.7798 6.76559L12.415 7.95129C12.9391 8.32301 13.0626 9.04301 12.6887 9.57879ZM11.5926 24.9592C12.4014 24.9592 12.9367 24.523 12.9367 23.7323V17.4597C11.4812 17.0408 10.0312 16.1889 8.81102 15.1028V23.7323C8.81102 24.523 9.33461 24.9592 10.1434 24.9592H11.5926Z" fill="black"/>
</svg>
