<svg width="28" height="28" viewBox="0 0 28 28" fill="none" xmlns="http://www.w3.org/2000/svg">
<path d="M11.9079 27.3465H17.0833C18.9147 27.3465 19.9816 26.2806 19.9816 24.4682V3.87835C19.9816 2.06594 18.9147 1 17.0833 1H11.9332C10.0774 1 9 2.06594 9 3.87835V24.4682C9 26.2806 10.0669 27.3465 11.9079 27.3465ZM14.4919 10.6769C12.453 10.6769 10.8009 9.03858 10.8009 6.99015C10.8009 4.9471 12.453 3.31093 14.4919 3.31093C16.5382 3.31093 18.1903 4.9471 18.1903 6.99015C18.1903 9.03858 16.5382 10.6769 14.4919 10.6769ZM12.6597 14.3071C11.9205 14.3071 11.3198 13.7064 11.3198 12.9639C11.3198 12.2226 11.9088 11.624 12.6597 11.624C13.4086 11.624 14.0105 12.2205 14.0105 12.9639C14.0105 13.7085 13.3926 14.3071 12.6597 14.3071ZM16.3474 14.3071C15.5932 14.3071 14.9829 13.7064 14.9829 12.9639C14.9829 12.2205 15.589 11.624 16.3474 11.624C17.0887 11.624 17.6735 12.2226 17.6735 12.9639C17.6735 13.6968 17.0728 14.3071 16.3474 14.3071ZM12.6597 17.8466C11.9184 17.8466 11.3198 17.2523 11.3198 16.513C11.3198 15.7738 11.9184 15.1677 12.6597 15.1677C13.4044 15.1677 14.0105 15.7642 14.0105 16.513C14.0105 17.2619 13.4044 17.8466 12.6597 17.8466ZM12.6597 21.4021C11.9184 21.4021 11.3198 20.8056 11.3198 20.0685C11.3198 19.3176 11.9184 18.6997 12.6597 18.6997C13.3948 18.6997 14.0105 19.3155 14.0105 20.0685C14.0105 20.8152 13.4044 21.4021 12.6597 21.4021ZM16.3282 21.4021C15.6443 21.4021 15.0776 20.8312 15.0776 20.1547V16.4226C15.0776 15.729 15.6347 15.1677 16.3282 15.1677C17.0344 15.1677 17.6065 15.7302 17.6065 16.4226V20.1547C17.6065 20.8492 17.0365 21.4021 16.3282 21.4021Z" fill="black"/>
</svg>
