<svg width="28" height="28" viewBox="0 0 28 28" fill="none" xmlns="http://www.w3.org/2000/svg">
<path d="M8.42866 26.4983H18.7646C20.7933 26.4983 22.1405 25.1865 22.1405 23.2369V5.25921C22.1405 3.30218 20.7933 2 18.7646 2H8.42866C6.37039 2 5 3.30218 5 5.2571V23.2391C5 25.1865 6.37039 26.4983 8.42866 26.4983ZM13.5809 22.2833C13.119 22.2833 12.7337 21.9076 12.7337 21.4456V19.223C12.7337 18.7611 13.119 18.3854 13.5809 18.3854C14.0429 18.3854 14.4186 18.7611 14.4186 19.223V21.4456C14.4186 21.9076 14.0429 22.2833 13.5809 22.2833ZM13.583 16.513C10.1007 16.513 7.27671 13.6794 7.27671 10.2066C7.27671 6.7339 10.1007 3.90992 13.583 3.90992C17.0462 3.90992 19.8798 6.7339 19.8798 10.2066C19.8798 13.6794 17.0462 16.513 13.583 16.513ZM13.583 14.8824C16.1532 14.8824 18.2492 12.7864 18.2492 10.2066C18.2492 7.62897 16.1532 5.54046 13.583 5.54046C10.9937 5.54046 8.90725 7.62897 8.90725 10.2066C8.90725 12.7864 10.9937 14.8824 13.583 14.8824Z" fill="black"/>
<path d="M13.5808 22.2833C13.1189 22.2833 12.7336 21.9076 12.7336 21.4456V19.223C12.7336 18.7611 13.1189 18.3854 13.5808 18.3854C14.0428 18.3854 14.4185 18.7611 14.4185 19.223V21.4456C14.4185 21.9076 14.0428 22.2833 13.5808 22.2833ZM13.5829 16.513C10.1006 16.513 7.27661 13.6794 7.27661 10.2066C7.27661 6.73391 10.1006 3.90993 13.5829 3.90993C17.0461 3.90993 19.8797 6.73391 19.8797 10.2066C19.8797 13.6794 17.0461 16.513 13.5829 16.513ZM13.5829 14.8824C16.1531 14.8824 18.2491 12.7864 18.2491 10.2066C18.2491 7.62898 16.1531 5.54047 13.5829 5.54047C10.9936 5.54047 8.90715 7.62898 8.90715 10.2066C8.90715 12.7864 10.9936 14.8824 13.5829 14.8824Z" fill="white"/>
</svg>
