<svg width="28" height="28" viewBox="0 0 28 28" fill="none" xmlns="http://www.w3.org/2000/svg">
<path d="M14.105 26.2301C20.7369 26.2301 26.2121 20.7549 26.2121 14.123C26.2121 7.50291 20.7273 2.01807 14.0954 2.01807C7.47523 2.01807 2 7.50291 2 14.123C2 20.7549 7.48484 26.2301 14.105 26.2301Z" fill="black"/>
<path d="M11.4704 21.7477C10.272 21.7477 9.45942 20.9628 9.45942 19.8017V11.7207L10.7621 13.0308V19.5437C10.7621 20.0736 11.067 20.3785 11.6375 20.3785H16.5779C17.038 20.3785 17.292 20.1746 17.3635 19.7839V19.6302L18.4339 20.7048V20.7528C18.1433 21.383 17.5604 21.7477 16.7492 21.7477H11.4704ZM12.6092 19.8448C12.41 19.8448 12.2513 19.7021 12.2513 19.4987C12.2513 19.2718 12.41 19.1291 12.6092 19.1291H15.6179C15.8288 19.1291 15.9662 19.2718 15.9662 19.4987C15.9662 19.7021 15.8288 19.8448 15.6179 19.8448H12.6092ZM18.758 16.5509L17.4575 15.2462V8.70031C17.4575 8.17039 17.1505 7.86336 16.5842 7.86336H15.7002C15.5989 7.86336 15.5499 7.91023 15.5499 8.01359V8.18609C15.5499 8.50461 15.3507 8.69961 15.0577 8.69961H13.1715C12.8668 8.69961 12.6601 8.50461 12.6601 8.18609V8.01359C12.6601 7.91023 12.6207 7.86336 12.5098 7.86336H11.6375C11.1561 7.86336 10.8903 8.0982 10.8476 8.49641V8.64055L9.75801 7.54134V7.51251C10.039 6.88016 10.6357 6.49414 11.4704 6.49414H16.7492C17.9476 6.49414 18.758 7.26946 18.758 8.44016V16.5509ZM19.3438 20.2259L7.98285 8.87679C7.75832 8.65015 7.75832 8.26062 7.98285 8.01688C8.22871 7.78063 8.62035 7.78063 8.8566 8.01688L20.2058 19.3639C20.4399 19.6002 20.4399 19.9705 20.2058 20.2259C19.962 20.4484 19.5704 20.4462 19.3438 20.2259Z" fill="white"/>
</svg>
