<svg width="30" height="28" viewBox="0 0 30 28" fill="none" xmlns="http://www.w3.org/2000/svg">
<path d="M3.23108 22.7647H26.572C28.6962 22.7647 29.8031 21.7079 29.8031 19.5336V6.02796C29.8031 3.86328 28.6962 2.80649 26.572 2.80649H3.23108C1.10695 2.80649 0 3.86328 0 6.02796V19.5336C0 21.7079 1.10695 22.7647 3.23108 22.7647ZM8.90578 26.8639H20.8952C21.4783 26.8639 21.9604 26.3829 21.9604 25.8029C21.9604 25.2228 21.4783 24.7397 20.8952 24.7397H8.90578C8.32476 24.7397 7.84265 25.2228 7.84265 25.8029C7.84265 26.3829 8.32476 26.8639 8.90578 26.8639Z" fill="black"/>
<path d="M15.5173 17.701C15.2552 17.701 15.0764 17.5339 15.0349 17.2751C14.4876 13.6824 14.018 12.9669 10.3148 12.5455C10.0561 12.504 9.88683 12.3155 9.88683 12.0643C9.88683 11.8269 10.0561 11.6288 10.3148 11.5916C14.0294 11.0973 14.3965 10.4612 15.0349 6.85014C15.0893 6.59889 15.2723 6.436 15.5173 6.436C15.7568 6.436 15.9431 6.6085 15.9867 6.86186C16.5373 10.4237 17.024 11.1036 20.7143 11.5916C20.9676 11.6288 21.1444 11.8269 21.1444 12.0643C21.1444 12.3155 20.9676 12.5082 20.7143 12.5455C16.987 13.0334 16.6315 13.693 15.9867 17.2848C15.9377 17.5339 15.7568 17.701 15.5173 17.701ZM10.6034 19.7089C10.4095 19.7089 10.3052 19.5758 10.2466 19.3798C9.91402 17.6213 10.0369 17.5498 8.12574 17.2623C7.91175 17.2229 7.79785 17.0973 7.79785 16.9034C7.79785 16.7309 7.91175 16.5882 8.09597 16.5563C10.039 16.2315 9.91402 16.1642 10.2466 14.4216C10.3052 14.2257 10.4191 14.0905 10.6034 14.0905C10.7876 14.0905 10.9174 14.2353 10.9622 14.4216C11.2755 16.179 11.1837 16.2483 13.1245 16.5563C13.2949 16.5861 13.4184 16.7309 13.4184 16.9034C13.4184 17.0759 13.297 17.2229 13.1245 17.2623C11.1816 17.5604 11.2798 17.6276 10.9622 19.4129C10.9174 19.5854 10.7759 19.7089 10.6034 19.7089Z" fill="white"/>
</svg>
