<svg width="28" height="30" viewBox="0 0 28 30" fill="none" xmlns="http://www.w3.org/2000/svg">
<path d="M5.84421 26.3126H22.7295C25.2589 26.3126 26.5737 25.0073 26.5737 22.5164V7.15077C26.5737 4.64062 25.2589 3.345 22.7295 3.345H5.84421C3.30523 3.345 2 4.64062 2 7.15077V22.5164C2 25.0169 3.30523 26.3126 5.84421 26.3126ZM12.931 18.9649C12.3601 18.9649 11.9649 18.4312 11.5154 17.7975C10.97 17.0391 10.5535 15.8641 10.5535 14.7457C10.5535 12.9391 11.705 12.0007 12.8586 12.0007C13.4668 12.0007 13.9632 12.4034 14.3424 12.4034C14.712 12.4034 15.2712 11.9773 15.9615 11.9773C16.2331 11.9773 17.1694 12.0007 17.8032 12.8923C17.7446 12.9274 16.8041 13.4749 16.8041 14.6637C16.8041 16.0186 18.0045 16.4916 18.0376 16.5171C18.0162 16.5523 17.8618 17.1839 17.4101 17.8251C17.0171 18.3823 16.6006 18.9649 15.9615 18.9649C15.3533 18.9649 15.1775 18.5974 14.4521 18.5974C13.7715 18.5974 13.4998 18.9649 12.931 18.9649ZM14.4052 11.9048C14.3424 11.9048 14.3073 11.8835 14.2838 11.8601C14.2721 11.8462 14.2721 11.7759 14.2721 11.7035C14.2721 11.2284 14.4755 10.7437 14.7472 10.4444C15.103 10.0631 15.6505 9.77765 16.1159 9.75421C16.1373 9.80109 16.1373 9.8639 16.1373 9.93421C16.1373 10.4189 15.9359 10.8823 15.6505 11.2284C15.3533 11.6077 14.81 11.9048 14.4052 11.9048ZM5.14813 29.9576H9.64694C10.2045 29.9576 10.6461 29.5064 10.6461 28.9488C10.6461 28.387 10.2045 27.9358 9.64694 27.9358H5.14813C4.60016 27.9358 4.14688 28.387 4.14688 28.9488C4.14688 29.5064 4.60016 29.9576 5.14813 29.9576ZM6.39148 28.9915H8.40148V25.0634H6.39148V28.9915ZM18.9036 29.9576H23.4024C23.96 29.9576 24.4015 29.5064 24.4015 28.9488C24.4015 28.387 23.96 27.9358 23.4024 27.9358H18.9036C18.3556 27.9358 17.9045 28.387 17.9045 28.9488C17.9045 29.5064 18.3556 29.9576 18.9036 29.9576ZM20.1469 28.9915H22.159V25.0634H20.1469V28.9915ZM6.39148 4.48687H8.40148V1.00125C8.40148 0.453279 7.95991 0 7.40234 0C6.84265 0 6.39148 0.453279 6.39148 1.00125V4.48687ZM20.1469 4.48687H22.159V1.00125C22.159 0.453279 21.7175 0 21.1599 0C20.5885 0 20.1469 0.453279 20.1469 1.00125V4.48687Z" fill="black"/>
</svg>
