<svg width="28" height="28" viewBox="0 0 28 28" fill="none" xmlns="http://www.w3.org/2000/svg">
<path d="M8.49796 25.017H17.5352C20.9337 25.017 23.0332 22.8802 23.0332 19.419V7.62144C23.0332 4.16231 20.9337 2.03302 17.5352 2.03302H8.49796C5.10164 2.03302 3 4.16231 3 7.62144V19.419C3 22.8802 5.10164 25.017 8.49796 25.017ZM8.43069 22.7759C6.42936 22.7759 5.2453 21.56 5.2453 19.4862V7.60012C5.2453 5.53808 6.42936 4.32425 8.43069 4.32425H17.6046C19.6134 4.32425 20.79 5.53808 20.79 7.60012V19.4862C20.79 21.56 19.6134 22.7759 17.6046 22.7759H8.43069ZM22.7315 12.3505H23.3095C24.1017 12.3505 24.6117 11.8053 24.6117 10.9503V8.99113C24.6117 8.12113 24.1017 7.57176 23.3095 7.57176H22.7315V12.3505Z" fill="black"/>
<path d="M11.6529 14.416C12.281 14.9462 12.896 14.9419 13.4965 14.416L18.2182 10.3027C18.6457 9.92094 18.6267 9.29844 18.251 8.90259C17.8774 8.51845 17.2901 8.46993 16.8232 8.88149L12.5651 12.5694L10.0066 10.3979C9.60025 10.0489 8.96392 10.1117 8.6065 10.5223C8.23947 10.9459 8.3044 11.581 8.73424 11.9438L11.6529 14.416Z" fill="black"/>
</svg>
