<svg width="30" height="30" viewBox="0 0 30 30" fill="none" xmlns="http://www.w3.org/2000/svg">
<path d="M14.9173 29.8501C15.3933 29.8501 15.9708 29.6083 16.4691 29.4379L22.3772 27.3093C22.9102 27.1241 23.145 26.6528 23.145 26.3031C23.145 25.6415 22.6854 25.1167 21.9862 25.1167C21.6342 25.1167 21.225 25.2829 20.9048 25.4052L13.8923 28.0014H15.9635L8.94139 25.4052C8.62123 25.2829 8.23123 25.1167 7.8696 25.1167C7.19929 25.1167 6.71085 25.6222 6.71085 26.3031C6.71085 26.6528 6.93397 27.1241 7.47866 27.3093L13.3772 29.4379C13.8947 29.6179 14.453 29.8501 14.9173 29.8501ZM3.84421 23.3901H25.9999C28.5218 23.3901 29.8462 22.0869 29.8462 19.5843V8.23819C29.8462 5.74725 28.5218 4.44202 25.9999 4.44202H3.84421C1.30523 4.44202 0 5.73764 0 8.23819V19.5843C0 22.0869 1.30523 23.3901 3.84421 23.3901ZM4.70929 11.1594C4.36007 11.1594 4.1503 10.9401 4.1503 10.593V9.46489C4.1503 9.11359 4.36007 8.89629 4.70929 8.89629H5.83522C6.19194 8.89629 6.41132 9.11359 6.41132 9.46489V10.593C6.41132 10.9401 6.19194 11.1594 5.83522 11.1594H4.70929ZM8.55983 11.1594C8.20312 11.1594 7.99335 10.9401 7.99335 10.593V9.46489C7.99335 9.11359 8.20312 8.89629 8.55983 8.89629H9.68577C10.0371 8.89629 10.2544 9.11359 10.2544 9.46489V10.593C10.2544 10.9401 10.0371 11.1594 9.68577 11.1594H8.55983ZM12.4146 11.1594C12.0654 11.1594 11.846 10.9401 11.846 10.593V9.46489C11.846 9.11359 12.0654 8.89629 12.4146 8.89629H13.5309C13.8876 8.89629 14.107 9.11359 14.107 9.46489V10.593C14.107 10.9401 13.8876 11.1594 13.5309 11.1594H12.4146ZM16.2652 11.1594C15.918 11.1594 15.6987 10.9401 15.6987 10.593V9.46489C15.6987 9.11359 15.918 8.89629 16.2652 8.89629H17.3911C17.7382 8.89629 17.9597 9.11359 17.9597 9.46489V10.593C17.9597 10.9401 17.7382 11.1594 17.3911 11.1594H16.2652ZM20.1431 11.1594C19.7716 11.1594 19.5417 10.9401 19.5417 10.593V9.46489C19.5417 9.11359 19.7716 8.89629 20.1431 8.89629H21.2459C21.593 8.89629 21.8006 9.11359 21.8006 9.46489V10.593C21.8006 10.9401 21.593 11.1594 21.2459 11.1594H20.1431ZM23.9705 11.1594C23.6137 11.1594 23.3944 10.9401 23.3944 10.593V9.46489C23.3944 9.11359 23.6137 8.89629 23.9705 8.89629H25.0868C25.4435 8.89629 25.6554 9.11359 25.6554 9.46489V10.593C25.6554 10.9401 25.4435 11.1594 25.0868 11.1594H23.9705ZM4.70929 15.0395C4.36007 15.0395 4.1503 14.8201 4.1503 14.4709V13.3429C4.1503 12.9958 4.36007 12.7743 4.70929 12.7743H5.83522C6.19194 12.7743 6.41132 12.9958 6.41132 13.3429V14.4709C6.41132 14.8201 6.19194 15.0395 5.83522 15.0395H4.70929ZM8.55983 15.0395C8.20312 15.0395 7.99335 14.8201 7.99335 14.4709V13.3429C7.99335 12.9958 8.20312 12.7743 8.55983 12.7743H9.68577C10.0371 12.7743 10.2544 12.9958 10.2544 13.3429V14.4709C10.2544 14.8201 10.0371 15.0395 9.68577 15.0395H8.55983ZM12.4146 15.0395C12.0654 15.0395 11.846 14.8201 11.846 14.4709V13.3429C11.846 12.9958 12.0654 12.7743 12.4146 12.7743H13.5309C13.8876 12.7743 14.107 12.9958 14.107 13.3429V14.4709C14.107 14.8201 13.8876 15.0395 13.5309 15.0395H12.4146ZM16.2652 15.0395C15.918 15.0395 15.6987 14.8201 15.6987 14.4709V13.3429C15.6987 12.9958 15.918 12.7743 16.2652 12.7743H17.3911C17.7382 12.7743 17.9597 12.9958 17.9597 13.3429V14.4709C17.9597 14.8201 17.7382 15.0395 17.3911 15.0395H16.2652ZM20.1431 15.0395C19.7716 15.0395 19.5417 14.8201 19.5417 14.4709V13.3429C19.5417 12.9958 19.7716 12.7743 20.1431 12.7743H21.2459C21.593 12.7743 21.8006 12.9958 21.8006 13.3429V14.4709C21.8006 14.8201 21.593 15.0395 21.2459 15.0395H20.1431ZM23.9705 15.0395C23.6137 15.0395 23.3944 14.8201 23.3944 14.4709V13.3429C23.3944 12.9958 23.6137 12.7743 23.9705 12.7743H25.0868C25.4435 12.7743 25.6554 12.9958 25.6554 13.3429V14.4709C25.6554 14.8201 25.4435 15.0395 25.0868 15.0395H23.9705ZM4.70929 18.9175C4.36007 18.9175 4.1503 18.7002 4.1503 18.3489V17.2208C4.1503 16.8737 4.36007 16.6544 4.70929 16.6544H5.83522C6.19194 16.6544 6.41132 16.8737 6.41132 17.2208V18.3489C6.41132 18.7002 6.19194 18.9175 5.83522 18.9175H4.70929ZM8.66765 18.9175C8.24155 18.9175 7.99335 18.6714 7.99335 18.2411V17.3191C7.99335 16.9026 8.24155 16.6544 8.66765 16.6544H21.1359C21.5545 16.6544 21.8006 16.9026 21.8006 17.3191V18.2411C21.8006 18.6714 21.5545 18.9175 21.1359 18.9175H8.66765ZM23.9705 18.9175C23.6137 18.9175 23.3944 18.7002 23.3944 18.3489V17.2208C23.3944 16.8737 23.6137 16.6544 23.9705 16.6544H25.0868C25.4435 16.6544 25.6554 16.8737 25.6554 17.2208V18.3489C25.6554 18.7002 25.4435 18.9175 25.0868 18.9175H23.9705Z" fill="black"/>
</svg>
