<svg width="31" height="28" viewBox="0 0 31 28" fill="none" xmlns="http://www.w3.org/2000/svg">
<path d="M13.5169 25.0193H16.9451C20.276 25.0193 22.695 24.6103 24.5698 23.6953C28.4983 21.8034 30.4619 18.0869 30.4619 14.0048C30.4619 12.4312 30.1657 10.9087 29.5774 9.52476H0.884532C0.29625 10.9087 0 12.4312 0 14.0048C0 18.0869 1.96359 21.8034 5.89218 23.6953C7.76695 24.6103 10.1859 25.0193 13.5169 25.0193ZM15.2416 18.5651C13.826 18.5651 12.7439 17.483 12.7439 16.11V12.5055L13.8687 12.0145V14.0095C14.299 13.7006 14.741 13.5675 15.2416 13.5675C16.5954 13.5675 17.7511 14.7136 17.7511 16.11C17.7511 17.452 16.6263 18.5651 15.2416 18.5651ZM15.2416 17.452C15.9851 17.452 16.5954 16.8321 16.5954 16.11C16.5954 15.3729 15.9851 14.7349 15.2416 14.7349C14.5024 14.7349 13.8687 15.3548 13.8687 16.11C13.8687 16.8321 14.4886 17.452 15.2416 17.452ZM1.51195 8.28843H28.95C27.9733 6.63164 26.5101 5.24625 24.5698 4.32187C22.695 3.39937 20.276 3 16.9451 3H13.5169C10.1859 3 7.76695 3.39937 5.89218 4.32187C3.95179 5.24625 2.48859 6.63164 1.51195 8.28843Z" fill="black"/>
</svg>
