<svg width="31" height="28" viewBox="0 0 31 28" fill="none" xmlns="http://www.w3.org/2000/svg">
<path d="M9.58054 2C4.33008 2 0 8.04078 0 15.4114C0 18.901 0.926718 22.756 2.10867 22.756C2.99695 22.756 3.72328 21.6097 3.84445 20.5023C2.03859 20.0237 0.690705 18.372 0.690705 16.4298C0.690705 15.2267 1.18758 14.161 2.07398 13.3367C2.50921 8.35461 5.75343 4.00179 9.47296 4.00179C11.7061 4.00179 12.7205 5.66187 12.7205 8.78539L3.71015 13.4919C2.38711 14.1779 1.7768 15.2708 1.7768 16.4298C1.7768 18.1393 3.17859 19.5495 4.87968 19.5495C5.70843 19.5495 6.26133 19.3365 7.44046 18.7048L12.0284 16.1909C14.0224 15.0863 14.7319 13.7494 14.7319 10.9362V8.41297C14.7319 4.48953 12.9923 2 9.58054 2ZM4.81781 18.3812C3.72914 18.3812 2.85351 17.4917 2.85351 16.4202C2.85351 15.3411 3.72914 14.4612 4.81781 14.4612C5.88937 14.4612 6.76711 15.3411 6.76711 16.4202C6.76711 17.4917 5.88937 18.3812 4.81781 18.3812ZM4.81781 17.5721C5.44008 17.5721 5.96226 17.0499 5.96226 16.4202C5.96226 15.7925 5.44008 15.2703 4.81781 15.2703C4.18054 15.2703 3.66586 15.7925 3.66586 16.4202C3.66586 17.0499 4.18054 17.5721 4.81781 17.5721ZM1.605 26.6431H2.82023V22.2727H1.605V26.6431ZM21.3518 2C17.94 2 16.2005 4.48953 16.2005 8.41297V10.9362C16.2005 13.7494 16.9099 15.0863 18.904 16.1909L23.4919 18.7048C24.671 19.3365 25.2239 19.5495 26.0526 19.5495C27.7537 19.5495 29.1555 18.1393 29.1555 16.4298C29.1555 15.2708 28.5452 14.1779 27.2222 13.4919L18.2119 8.78539C18.2119 5.66187 19.2262 4.00179 21.4594 4.00179C25.1693 4.00179 28.4231 8.35461 28.8583 13.3367C29.7448 14.161 30.2416 15.2267 30.2416 16.4298C30.2416 18.372 28.8937 20.0237 27.09 20.5023C27.1994 21.6097 27.9354 22.756 28.8237 22.756C29.996 22.756 30.9323 18.901 30.9323 15.4114C30.9323 8.04078 26.6023 2 21.3518 2ZM26.1145 18.3812C25.043 18.3812 24.1556 17.4917 24.1556 16.4202C24.1556 15.3411 25.043 14.4612 26.1145 14.4612C27.2053 14.4612 28.0788 15.3411 28.0788 16.4202C28.0788 17.4917 27.2053 18.3812 26.1145 18.3812ZM26.1145 17.5721C26.7539 17.5721 27.2665 17.0499 27.2665 16.4202C27.2665 15.7925 26.7539 15.2703 26.1145 15.2703C25.4826 15.2703 24.9605 15.7925 24.9605 16.4202C24.9605 17.0499 25.4826 17.5721 26.1145 17.5721ZM29.3273 26.6431V22.2727H28.1121V26.6431H29.3273Z" fill="black"/>
<path d="M4.81782 18.3812C3.72915 18.3812 2.85352 17.4917 2.85352 16.4202C2.85352 15.3411 3.72915 14.4612 4.81782 14.4612C5.88938 14.4612 6.76712 15.3411 6.76712 16.4202C6.76712 17.4917 5.88938 18.3812 4.81782 18.3812ZM4.81782 17.5721C5.44009 17.5721 5.96227 17.0499 5.96227 16.4202C5.96227 15.7925 5.44009 15.2703 4.81782 15.2703C4.18055 15.2703 3.66587 15.7925 3.66587 16.4202C3.66587 17.0499 4.18055 17.5721 4.81782 17.5721ZM26.1145 18.3812C25.043 18.3812 24.1556 17.4917 24.1556 16.4202C24.1556 15.3411 25.043 14.4612 26.1145 14.4612C27.2053 14.4612 28.0788 15.3411 28.0788 16.4202C28.0788 17.4917 27.2053 18.3812 26.1145 18.3812ZM26.1145 17.5721C26.7539 17.5721 27.2665 17.0499 27.2665 16.4202C27.2665 15.7925 26.7539 15.2703 26.1145 15.2703C25.4826 15.2703 24.9605 15.7925 24.9605 16.4202C24.9605 17.0499 25.4826 17.5721 26.1145 17.5721Z" fill="white"/>
</svg>
