<svg width="32" height="28" viewBox="0 0 32 28" fill="none" xmlns="http://www.w3.org/2000/svg">
<path d="M20.4773 27.3623C24.4772 27.3623 26.1895 26.8361 27.8029 25.3303C30.063 23.2779 31.3816 20.2744 31.3816 17.1227C31.3816 14.5844 30.5273 12.1549 28.969 10.3383C28.4475 9.67431 27.6265 9.54869 26.8741 10.0019C25.5218 10.9776 23.7874 11.6266 20.4773 11.6266C17.1672 11.6266 15.4329 10.9776 14.0709 10.0019C13.3165 9.54869 12.5072 9.6647 11.9836 10.3383C10.4273 12.1549 9.56348 14.5727 9.56348 17.1227C9.56348 20.2744 10.882 23.2779 13.1421 25.3303C14.7555 26.8361 16.4754 27.3623 20.4773 27.3623ZM20.4773 24.9851C17.1661 24.9851 15.9087 24.6792 14.7621 23.5795C12.9551 21.9323 11.9482 19.6085 11.9482 17.1227C11.9482 15.0703 12.6326 13.0976 14.3081 11.2071L12.4495 11.9126C14.1499 13.2623 16.8424 14.0039 20.4773 14.0039C24.1123 14.0039 26.8047 13.2623 28.5051 11.9029L26.6369 11.2071C28.32 13.0879 29.0065 15.0607 29.0065 17.1227C29.0065 19.6085 27.99 21.9323 26.1926 23.5795C25.0247 24.6792 23.7886 24.9851 20.4773 24.9851Z" fill="black"/>
<path d="M3.41414 20.7808H8.40773C8.20969 20.1063 8.07867 19.3336 8.00812 18.6663H3.59015C2.62218 18.6663 2.11452 18.1406 2.11452 17.2099V3.57093C2.11452 2.64022 2.62218 2.11452 3.59015 2.11452H12.8482C13.8258 2.11452 14.3355 2.64022 14.3355 3.57093V6.80812C14.9716 6.53812 15.679 6.33187 16.448 6.17555V3.44296C16.448 1.2 15.2693 0 13.0359 0H3.41414C1.18078 0 0 1.2 0 3.44296V17.3379C0 19.5905 1.18078 20.7808 3.41414 20.7808ZM4.04647 13.298C4.04647 15.5002 5.73726 17.3025 7.89914 17.4661C7.87547 16.7815 7.94883 15.6506 8.07328 14.9339C7.21241 14.8702 6.54772 14.1673 6.54772 13.2884C6.54772 12.3532 7.30054 11.6004 8.23359 11.6004C8.51859 11.6004 8.80242 11.6698 9.02859 11.816C9.38766 11.0437 9.81492 10.328 10.3242 9.66327C9.67523 9.30819 8.9864 9.09913 8.23359 9.09913C5.90929 9.09913 4.04647 10.9737 4.04647 13.298ZM8.22398 8.09319C9.50999 8.09319 10.5734 7.03944 10.5734 5.74171C10.5734 4.4578 9.5196 3.40405 8.22398 3.40405C6.92835 3.40405 5.8746 4.4578 5.8746 5.74171C5.8746 7.03944 6.93796 8.09319 8.22398 8.09319ZM8.22398 6.84538C7.61085 6.84538 7.1203 6.35273 7.1203 5.74171C7.1203 5.1403 7.61085 4.64975 8.22398 4.64975C8.83711 4.64975 9.32976 5.1403 9.32976 5.74171C9.32976 6.35273 8.83711 6.84538 8.22398 6.84538ZM20.4773 10.2633C23.4176 10.2633 25.5192 9.69632 25.5192 8.88914C25.5192 8.07234 23.4197 7.51711 20.4773 7.51711C17.5422 7.51711 15.4427 8.07234 15.4427 8.88914C15.4427 9.69632 17.5444 10.2633 20.4773 10.2633Z" fill="black"/>
</svg>
