<svg width="28" height="28" viewBox="0 0 28 28" fill="none" xmlns="http://www.w3.org/2000/svg">
<path d="M8.21546 24.8003H18.9383C23.8145 24.8003 26.1538 22.4802 26.1538 17.6137V11.1866C26.1538 6.32008 23.8145 4 18.9383 4H8.21546C3.3393 4 1 6.32008 1 11.1866V17.6137C1 22.4802 3.3393 24.8003 8.21546 24.8003ZM8.21546 22.5044C4.82241 22.5044 3.29592 20.9875 3.29592 17.6137V11.1866C3.29592 7.8128 4.82241 6.29592 8.21546 6.29592H18.9383C22.3314 6.29592 23.8579 7.8128 23.8579 11.1866V17.6137C23.8579 20.9875 22.3314 22.5044 18.9383 22.5044H8.21546ZM2.15382 12.0869H25V10.8484H2.15382V12.0869ZM8.83187 12.8976H18.3219C19.157 12.8976 19.7577 12.3128 19.7577 11.4639C19.7577 10.6246 19.157 10.0377 18.3219 10.0377H8.83187C8.02023 10.0377 7.39609 10.6246 7.39609 11.4639C7.39609 12.3128 8.02023 12.8976 8.83187 12.8976ZM13.5817 16.9612C14.2239 16.9494 14.7447 16.4212 14.7447 15.812C14.7447 15.1698 14.2239 14.6394 13.5817 14.6394C12.932 14.6394 12.4091 15.1698 12.4091 15.812C12.4091 16.4425 12.932 16.975 13.5817 16.9612Z" fill="black"/>
</svg>
