<svg width="35" height="28" viewBox="0 0 35 28" fill="none" xmlns="http://www.w3.org/2000/svg">
<path d="M7.58999 11.5223C7.58999 10.8879 7.99335 10.4908 8.65124 10.4908H10.6319V8.57507C10.6319 7.92257 11.0182 7.51288 11.6611 7.51288C12.2923 7.51288 12.6881 7.92257 12.6881 8.57507V10.4908H14.5462C15.2552 10.4908 15.682 10.8879 15.682 11.5223C15.682 12.176 15.2552 12.5848 14.5462 12.5848H12.6881V14.4984C12.6881 15.153 12.2923 15.5702 11.6611 15.5702C11.0182 15.5702 10.6319 15.153 10.6319 14.4984V12.5848H8.65124C7.99335 12.5848 7.58999 12.176 7.58999 11.5223ZM19.1559 13.203C19.1559 12.2168 19.927 11.4595 20.8898 11.4595C21.8665 11.4595 22.6237 12.2168 22.6237 13.203C22.6237 14.1755 21.8665 14.9327 20.8898 14.9327C19.927 14.9327 19.1559 14.1755 19.1559 13.203ZM22.6446 9.68788C22.6446 8.70163 23.404 7.94437 24.3689 7.94437C25.353 7.94437 26.1007 8.70163 26.1007 9.68788C26.1007 10.6624 25.353 11.408 24.3689 11.408C23.404 11.408 22.6446 10.6624 22.6446 9.68788ZM4.57664 24.6173C6.30866 24.6173 7.4946 23.9702 8.53803 22.7473L10.6212 20.3158C10.9216 19.9715 11.231 19.8063 11.5931 19.8063H22.7072C23.0693 19.8063 23.3787 19.9715 23.6791 20.3158L25.7644 22.7473C26.8078 23.9681 27.9916 24.6173 29.7237 24.6173C32.4389 24.6173 34.3003 22.8276 34.3003 19.9821C34.3003 18.7554 34.035 17.3634 33.5695 15.8222C32.8483 13.4051 31.5923 10.1271 30.3991 7.60429C29.3829 5.48015 28.8293 4.44117 26.2605 3.85969C24.0089 3.34523 20.9166 3.00961 17.156 3.00961C13.3934 3.00961 10.2914 3.34523 8.03976 3.85969C5.47101 4.44117 4.91742 5.48015 3.90328 7.60429C2.71008 10.1271 1.45195 13.4051 0.73289 15.8222C0.267422 17.3634 0 18.7554 0 19.9821C0 22.8276 1.8614 24.6173 4.57664 24.6173Z" fill="black"/>
</svg>
