<svg width="28" height="28" viewBox="0 0 28 28" fill="none" xmlns="http://www.w3.org/2000/svg">
<path d="M14.105 26.2301C20.7369 26.2301 26.2121 20.7549 26.2121 14.123C26.2121 7.50291 20.7273 2.01807 14.0954 2.01807C7.47523 2.01807 2 7.50291 2 14.123C2 20.7549 7.48484 26.2301 14.105 26.2301Z" fill="black"/>
<path d="M11.4703 21.7477C10.2624 21.7477 9.46149 20.9649 9.46149 19.823V11.7165L10.7716 13.0383V19.1877H16.8152V19.0819L18.4401 20.7069V20.7645C18.1591 21.383 17.5624 21.7477 16.7512 21.7477H11.4703ZM14.1187 20.963C14.4565 20.963 14.726 20.6839 14.726 20.3419C14.726 20.0117 14.4565 19.723 14.1187 19.723C13.7768 19.723 13.4955 20.0117 13.4955 20.3419C13.4955 20.6839 13.7768 20.963 14.1187 20.963ZM16.7512 6.50586C17.9496 6.50586 18.76 7.27696 18.76 8.42844V16.5509L17.4499 15.2387V9.06383H11.3712V9.15031L9.76969 7.53923V7.50079C10.0603 6.86094 10.6474 6.50586 11.4703 6.50586H16.7512ZM12.6968 7.83383C12.6968 7.99578 12.8332 8.12258 12.9876 8.12258H15.2339C15.4 8.12258 15.5247 7.99578 15.5247 7.83383C15.5247 7.64633 15.4 7.54297 15.2339 7.54297H12.9876C12.8332 7.54297 12.6968 7.64633 12.6968 7.83383ZM19.3479 20.2259L7.98492 8.87468C7.75828 8.65015 7.75828 8.26062 7.98492 8.01477C8.23078 7.77852 8.62242 7.77852 8.85656 8.01477L20.2078 19.366C20.444 19.6023 20.444 19.9705 20.2078 20.2259C19.9619 20.4526 19.5724 20.4484 19.3479 20.2259Z" fill="white"/>
</svg>
