<svg width="28" height="28" viewBox="0 0 28 28" fill="none" xmlns="http://www.w3.org/2000/svg">
<path d="M8.3586 18.3555C10.7563 18.3555 12.5457 16.2944 12.1037 13.6305L11.3419 9.02085C11.228 8.33835 11.4666 7.88156 12.1016 7.58226C13.6721 6.82593 15.2649 6.40429 17.2695 6.0975C18.5136 5.92172 19.1389 4.99617 19.1389 3.77227C19.1389 3.27375 18.8928 3 18.1184 3C15.5759 3 13.0569 3.40476 10.4834 4.29844C6.15032 5.7982 3.44071 8.45367 4.0979 12.0314L4.72321 15.4242C5.09071 17.4267 6.7843 18.3555 8.3586 18.3555ZM8.36492 16.5773C7.24016 16.5773 6.35399 15.6944 6.35399 14.5739C6.35399 13.4491 7.24016 12.5683 8.36492 12.5683C9.48008 12.5683 10.3609 13.4587 10.3609 14.5739C10.3609 15.6848 9.48008 16.5773 8.36492 16.5773ZM8.36492 15.6841C8.97969 15.6841 9.46766 15.1941 9.46766 14.5739C9.46766 13.9591 8.97969 13.4616 8.36492 13.4616C7.73094 13.4616 7.24719 13.9591 7.24719 14.5739C7.24719 15.1941 7.73094 15.6841 8.36492 15.6841ZM8.3586 19.5766C6.54336 19.5766 4.98594 18.6794 4.13938 17.2591C4.42977 21.1467 8.02039 23.1026 12.0439 23.1026C13.0944 23.1026 13.8636 22.9662 14.6019 22.6038C16.1537 19.8975 17.2496 17.0719 17.9483 14.0194C17.1516 12.3905 15.3331 11.3241 12.8485 10.6774L13.313 13.4304C13.869 16.7618 11.5845 19.5766 8.3586 19.5766Z" fill="black"/>
<path d="M23.5805 19.0106C23.5805 16.2337 21.4327 14.3878 19.1694 14.1588C18.4398 17.3946 17.2618 20.4429 15.6055 23.2835C16.2659 23.7258 17.3028 24.104 18.5202 24.104C21.5452 24.104 23.5805 22.0474 23.5805 19.0106Z" fill="black"/>
<path d="M8.36493 16.5773C7.24017 16.5773 6.354 15.6944 6.354 14.5739C6.354 13.4491 7.24017 12.5684 8.36493 12.5684C9.48009 12.5684 10.3609 13.4587 10.3609 14.5739C10.3609 15.6848 9.48009 16.5773 8.36493 16.5773ZM8.36493 15.6841C8.9797 15.6841 9.46767 15.1941 9.46767 14.5739C9.46767 13.9591 8.9797 13.4616 8.36493 13.4616C7.73095 13.4616 7.2472 13.9591 7.2472 14.5739C7.2472 15.1941 7.73095 15.6841 8.36493 15.6841Z" fill="white"/>
</svg>
