<svg width="30" height="28" viewBox="0 0 30 28" fill="none" xmlns="http://www.w3.org/2000/svg">
<path d="M3.84421 22.3872H25.2958C27.8252 22.3872 29.1401 21.0841 29.1401 18.5815V9.80577C29.1401 7.30523 27.8252 6 25.2958 6H3.84421C1.30523 6 0 7.29562 0 9.80577V18.5815C0 21.0937 1.30523 22.3872 3.84421 22.3872ZM4.50655 18.5451C4.00101 18.5334 3.62109 18.1514 3.62109 17.6458V15.7851C3.62109 15.2775 4.01272 14.8879 4.50655 14.8997C4.99288 14.8879 5.39202 15.2775 5.39202 15.7851V17.6576C5.39202 18.1418 5.0046 18.5334 4.50655 18.5451ZM7.57545 18.5451C7.06991 18.5334 6.67827 18.1514 6.67827 17.6458V15.7851C6.67827 15.2775 7.08162 14.8879 7.57545 14.8997C8.06178 14.8879 8.45342 15.2775 8.45342 15.7851V17.6576C8.45342 18.1418 8.07139 18.5334 7.57545 18.5451ZM10.8171 17.6041C10.3329 17.6041 9.92951 17.2008 9.92951 16.7165C9.92951 16.2323 10.3329 15.8386 10.8171 15.8386H15.5847C16.0669 15.8386 16.4702 16.2323 16.4702 16.7165C16.4702 17.2008 16.0669 17.6041 15.5847 17.6041H10.8171ZM24.1289 18.2095C23.3196 18.2212 22.6317 17.5258 22.6317 16.7283C22.6317 15.919 23.3175 15.2332 24.1247 15.2332C24.9127 15.2332 25.5867 15.919 25.5867 16.7283C25.5867 17.5237 24.9127 18.1978 24.1289 18.2095Z" fill="black"/>
</svg>
