<svg width="28" height="28" viewBox="0 0 28 28" fill="none" xmlns="http://www.w3.org/2000/svg">
<path d="M6.2959 24.2052V4.74247C6.2959 3.82793 6.82911 3.2959 7.79051 3.2959H20.3462C21.298 3.2959 21.8409 3.82793 21.8409 4.74247V24.2052C21.8409 25.1176 21.298 25.6401 20.3462 25.6401H7.79051C6.82911 25.6401 6.2959 25.1176 6.2959 24.2052Z" fill="white"/>
<path d="M4 24.5828C4 26.6115 5.3725 27.936 7.48022 27.936H20.6565C22.7643 27.936 24.1368 26.6115 24.1368 24.5828V4.3628C24.1368 2.33406 22.7643 1 20.6565 1H7.48022C5.3725 1 4 2.33406 4 4.3628V24.5828ZM6.29592 24.2052V4.74249C6.29592 3.82795 6.82913 3.29592 7.79053 3.29592H20.3462C21.298 3.29592 21.8409 3.82795 21.8409 4.74249V24.2052C21.8409 25.1176 21.298 25.6401 20.3462 25.6401H7.79053C6.82913 25.6401 6.29592 25.1176 6.29592 24.2052ZM10.6354 24.6756H17.5056C17.8569 24.6756 18.0986 24.4361 18.0986 24.0805C18.0986 23.725 17.8569 23.493 17.5056 23.493H10.6354C10.2937 23.493 10.0499 23.725 10.0499 24.0805C10.0499 24.4361 10.2937 24.6756 10.6354 24.6756Z" fill="black"/>
</svg>
