<svg width="28" height="28" viewBox="0 0 28 28" fill="none" xmlns="http://www.w3.org/2000/svg">
<path d="M6.2959 23.6301V5.31761H21.8409V23.6301H6.2959ZM14.0849 26.6915C13.4727 26.6915 12.9936 26.2028 12.9936 25.6002C12.9936 25.0073 13.4727 24.5207 14.0849 24.5207C14.6779 24.5207 15.1644 25.0073 15.1644 25.6002C15.1644 26.2028 14.6779 26.6915 14.0849 26.6915ZM14.0657 4.00207C13.6867 4.00207 13.3843 3.69223 13.3843 3.31114C13.3843 2.94387 13.6867 2.62231 14.0657 2.62231C14.4447 2.62231 14.7545 2.94387 14.7545 3.31114C14.7545 3.69223 14.4447 4.00207 14.0657 4.00207Z" fill="white"/>
<path d="M7.48022 27.936H20.6565C22.7643 27.936 24.1368 26.6115 24.1368 24.5828V4.3628C24.1368 2.33406 22.7643 1 20.6565 1H7.48022C5.3725 1 4 2.33406 4 4.3628V24.5828C4 26.6115 5.3725 27.936 7.48022 27.936ZM6.29592 23.6301V5.31764H21.8409V23.6301H6.29592ZM14.0849 26.6915C13.4727 26.6915 12.9937 26.2028 12.9937 25.6002C12.9937 25.0073 13.4727 24.5207 14.0849 24.5207C14.6779 24.5207 15.1644 25.0073 15.1644 25.6002C15.1644 26.2028 14.6779 26.6915 14.0849 26.6915ZM14.0657 4.0021C13.6867 4.0021 13.3844 3.69226 13.3844 3.31117C13.3844 2.9439 13.6867 2.62234 14.0657 2.62234C14.4447 2.62234 14.7545 2.9439 14.7545 3.31117C14.7545 3.69226 14.4447 4.0021 14.0657 4.0021Z" fill="black"/>
</svg>
