<svg width="28" height="28" viewBox="0 0 28 28" fill="none" xmlns="http://www.w3.org/2000/svg">
<path d="M9.76473 24.2699C8.8277 24.2699 8.2959 23.7658 8.2959 22.8726V4.75868C8.2959 3.86547 8.8277 3.36133 9.76473 3.36133H11.2964C11.486 3.36133 11.5818 3.45719 11.5818 3.63508V3.93836C11.5818 4.45164 11.9226 4.79453 12.4263 4.79453H15.4835C15.9968 4.79453 16.3279 4.45164 16.3279 3.93836V3.63508C16.3279 3.45719 16.4238 3.36133 16.6113 3.36133H18.1472C19.0725 3.36133 19.6043 3.86969 19.6043 4.76078V22.8705C19.6043 23.7615 19.0725 24.2699 18.1472 24.2699H9.76473Z" fill="white"/>
<path d="M9.37101 26.6312H18.5798C20.5701 26.6312 21.9002 25.3365 21.9002 23.3987V4.23249C21.9002 2.29258 20.5701 1 18.5798 1H9.37101C7.35117 1 6 2.29258 6 4.23038V23.4008C6 25.3365 7.35117 26.6312 9.37101 26.6312ZM9.76475 24.2699C8.82772 24.2699 8.29592 23.7658 8.29592 22.8726V4.75866C8.29592 3.86545 8.82772 3.36131 9.76475 3.36131H11.2964C11.486 3.36131 11.5819 3.45717 11.5819 3.63506V3.93834C11.5819 4.45162 11.9226 4.79451 12.4263 4.79451H15.4835C15.9968 4.79451 16.3279 4.45162 16.3279 3.93834V3.63506C16.3279 3.45717 16.4238 3.36131 16.6113 3.36131H18.1472C19.0725 3.36131 19.6043 3.86967 19.6043 4.76076V22.8705C19.6043 23.7615 19.0725 24.2699 18.1472 24.2699H9.76475ZM11.4304 23.3575H16.489C16.8307 23.3575 17.0723 23.1201 17.0723 22.7645C17.0723 22.4069 16.8307 22.1769 16.489 22.1769H11.4304C11.0887 22.1769 10.8354 22.4069 10.8354 22.7645C10.8354 23.1201 11.0887 23.3575 11.4304 23.3575Z" fill="black"/>
</svg>
