<svg width="28" height="28" viewBox="0 0 28 28" fill="none" xmlns="http://www.w3.org/2000/svg">
<path d="M3.98162 22.6013C2.8899 22.6013 2.2981 22.0371 2.2981 20.8985V7.01997C2.2981 5.88137 2.88779 5.31934 3.9774 5.31934H23.9846C25.0646 5.31934 25.666 5.88137 25.666 7.01997V20.8985C25.666 22.0371 25.0646 22.6013 23.9846 22.6013H3.98162Z" fill="white"/>
<path d="M3.84843 24.8972H24.1176C26.6566 24.8972 27.9619 23.5898 27.9619 21.0872V6.82921C27.9619 4.32656 26.6566 3.02344 24.1176 3.02344H3.84421C1.31484 3.02344 0 4.31695 0 6.82921V21.0872C0 23.5994 1.31695 24.8972 3.84843 24.8972ZM3.98155 22.6013C2.88983 22.6013 2.29803 22.0371 2.29803 20.8985V7.01999C2.29803 5.88139 2.88772 5.31936 3.97733 5.31936H23.9845C25.0645 5.31936 25.6659 5.88139 25.6659 7.01999V20.8985C25.6659 22.0371 25.0645 22.6013 23.9845 22.6013H3.98155ZM9.44695 21.6673H18.5266C18.8599 21.6673 19.0994 21.4437 19.0994 21.0945C19.0994 20.7452 18.8599 20.5099 18.5266 20.5099H9.44695C9.11367 20.5099 8.86664 20.7452 8.86664 21.0945C8.86664 21.4437 9.11367 21.6673 9.44695 21.6673Z" fill="black"/>
</svg>
