<svg width="28" height="28" viewBox="0 0 28 28" fill="none" xmlns="http://www.w3.org/2000/svg">
<path d="M11.6658 3C7.91953 3 6 5.73773 6 10.0734V12.8566C6 15.9649 6.78188 17.4349 8.98687 18.6471L14.0285 21.4209C15.3344 22.125 15.9384 22.3594 16.8492 22.3594C18.7399 22.3594 20.2844 20.7968 20.2844 18.9073C20.2844 17.6311 19.6059 16.4402 18.1498 15.6722L8.21156 10.4852C8.21156 7.04109 9.32179 5.22117 11.7851 5.22117C15.8967 5.22117 19.4691 10.0109 19.9416 15.514C20.9301 16.4107 21.4802 17.5882 21.4802 18.9073C21.4802 21.0551 19.9854 22.8792 18.007 23.4026C18.1324 24.623 18.9387 25.8865 19.9132 25.8865C21.2069 25.8865 22.2391 21.6384 22.2391 17.793C22.2391 9.6682 17.4595 3 11.6658 3ZM16.9207 21.06C15.7458 21.06 14.7722 20.0864 14.7722 18.8977C14.7722 17.7131 15.7458 16.7395 16.9207 16.7395C18.1191 16.7395 19.0905 17.7131 19.0905 18.8977C19.0905 20.0864 18.1191 21.06 16.9207 21.06ZM16.9207 20.1668C17.6283 20.1668 18.1994 19.5956 18.1994 18.8977C18.1994 18.2135 17.6283 17.6327 16.9207 17.6327C16.2323 17.6327 15.6654 18.2135 15.6654 18.8977C15.6654 19.5956 16.2323 20.1668 16.9207 20.1668Z" fill="black"/>
<path d="M16.9207 21.06C15.7458 21.06 14.7722 20.0864 14.7722 18.8977C14.7722 17.7131 15.7458 16.7395 16.9207 16.7395C18.1191 16.7395 19.0905 17.7131 19.0905 18.8977C19.0905 20.0864 18.1191 21.06 16.9207 21.06ZM16.9207 20.1668C17.6283 20.1668 18.1994 19.5956 18.1994 18.8977C18.1994 18.2135 17.6283 17.6327 16.9207 17.6327C16.2323 17.6327 15.6654 18.2135 15.6654 18.8977C15.6654 19.5956 16.2323 20.1668 16.9207 20.1668Z" fill="white"/>
</svg>
