<svg width="28" height="28" viewBox="0 0 28 28" fill="none" xmlns="http://www.w3.org/2000/svg">
<path d="M3.22312 19.7152H7.99242V17.685H3.38648C2.49304 17.685 2.03015 17.2254 2.03015 16.3554V3.37687C2.03015 2.50898 2.49304 2.03015 3.38648 2.03015H11.4455C11.8556 2.03015 12.199 2.18788 12.3909 2.49585L12.4144 2.59077C12.7561 2.52585 13.1693 2.50241 13.4885 2.50241H14.7433L14.7145 2.31046C14.4007 0.877028 13.4212 0 11.6184 0H3.22312C1.11398 0 0 1.12359 0 3.25406V16.4728C0 18.597 1.10437 19.7152 3.22312 19.7152ZM5.42578 5.44429C5.42578 6.69937 6.42632 7.72335 7.69429 7.7339C7.85226 7.7339 7.93125 7.72429 8.02195 7.70507C8.02828 7.56562 8.03672 7.44117 8.04516 7.32093C8.06625 6.9907 8.10445 6.65085 8.15859 6.40593C8.09906 6.44953 7.92961 6.49851 7.71328 6.49851C7.12054 6.49851 6.65156 6.03164 6.65156 5.44429C6.65156 4.85484 7.11632 4.36874 7.71328 4.36874C8.10211 4.36874 8.50593 4.6371 8.62336 4.87522C8.80101 4.5239 9.11836 4.09241 9.36093 3.86577C9.01476 3.4453 8.39273 3.15468 7.71328 3.14296C6.43687 3.14296 5.42578 4.17538 5.42578 5.44429ZM3.71694 12.5473C3.71694 14.727 5.42367 16.4749 7.59399 16.5277C7.75922 16.5319 7.88063 16.534 7.99242 16.5265V14.1047C7.90922 14.1122 7.77375 14.1218 7.63078 14.1197C6.77765 14.0902 6.1207 13.4088 6.1207 12.5665C6.1207 11.707 6.78304 11.0257 7.66289 10.9983C7.76953 10.9941 7.90711 11.0112 7.99242 11.0262V9.15773C7.99242 8.98007 7.99453 8.77781 7.99875 8.58515C7.91672 8.58515 7.79203 8.56804 7.62141 8.57015C5.44804 8.61023 3.71694 10.3784 3.71694 12.5473ZM9.67898 7.58998V24.2297C9.67898 26.4415 10.8201 27.6115 13.0319 27.6115H23.9468C26.1586 27.6115 27.3094 26.4415 27.3094 24.2297V7.58998C27.3094 5.37069 26.1586 4.19858 23.9468 4.19858H13.0319C10.8201 4.19858 9.67898 5.37069 9.67898 7.58998ZM11.9074 7.70295C11.9074 6.85872 12.3211 6.427 13.193 6.427H23.7858C24.6501 6.427 25.0788 6.85872 25.0788 7.70295V24.1092C25.0788 24.9513 24.6501 25.3809 23.7858 25.3809H13.193C12.3307 25.3809 11.9074 24.9513 11.9074 24.1092V7.70295ZM18.4894 23.7808C20.9934 23.7808 23.0062 21.7776 23.0062 19.2661C23.0062 16.7557 20.9934 14.7684 18.4894 14.7588C15.9949 14.7354 13.9821 16.7653 13.9821 19.2661C13.9821 21.768 15.9949 23.7808 18.4894 23.7808ZM18.4894 21.0199C17.5181 21.0199 16.7313 20.2523 16.7313 19.2661C16.7313 18.2576 17.4989 17.4867 18.4894 17.4867C19.4798 17.4867 20.2549 18.2576 20.2549 19.2661C20.2549 20.2523 19.4798 21.0199 18.4894 21.0199ZM18.4873 13.1906C19.9296 13.1906 21.1057 12.0379 21.0823 10.5977C21.0705 9.16709 19.9296 8.04326 18.4873 8.03154C17.0587 8.00271 15.9061 9.15748 15.9061 10.5977C15.9061 12.0476 17.0491 13.1906 18.4873 13.1906ZM18.4894 11.76C17.8432 11.76 17.3442 11.246 17.3442 10.5977C17.3442 9.94732 17.8432 9.44294 18.4894 9.44294C19.1238 9.44294 19.6441 9.97076 19.6441 10.5977C19.6441 11.246 19.1259 11.76 18.4894 11.76Z" fill="black"/>
</svg>
