<svg width="33" height="28" viewBox="0 0 33 28" fill="none" xmlns="http://www.w3.org/2000/svg">
<path d="M10.7041 24.4125C16.5466 24.4125 21.4104 19.5487 21.4104 13.7062C21.4104 7.86163 16.5541 3 10.7116 3C4.86702 3 0 7.85952 0 13.7062C0 19.5487 4.86163 24.4125 10.7041 24.4125ZM10.8138 17.2978C10.1001 17.2978 9.8435 17.6812 9.27256 17.6812C8.67397 17.6812 8.27671 17.1626 7.80913 16.5033C7.27874 15.7289 6.83882 14.5413 6.83882 13.4006C6.83882 11.5931 8.01257 10.6228 9.18421 10.6228C9.79663 10.6228 10.309 11.0393 10.6924 11.0393C11.0683 11.0393 11.6393 10.6111 12.3358 10.6111C12.6096 10.6111 13.5703 10.6228 14.1923 11.5228C14.1337 11.5814 13.1869 12.1055 13.1869 13.3165C13.1869 14.6937 14.3958 15.1868 14.4351 15.2081C14.4351 15.2379 14.2551 15.8833 13.7993 16.5288C13.3999 17.0901 12.9696 17.6674 12.3358 17.6674C11.7 17.6674 11.5476 17.2978 10.8138 17.2978ZM12.011 9.83038C11.7 10.2159 11.1717 10.5035 10.7456 10.5035C10.6924 10.5035 10.6594 10.4918 10.6125 10.4918C10.6125 10.4662 10.6008 10.3938 10.6008 10.3193C10.6008 9.83038 10.8607 9.3628 11.1152 9.0539C11.4593 8.65874 12.011 8.35522 12.4903 8.34562C12.5041 8.3946 12.5041 8.4628 12.5041 8.52772C12.5041 9.01452 12.3007 9.47788 12.011 9.83038Z" fill="black"/>
<path d="M24.1998 18.3567C24.6097 18.8388 25.3824 18.8569 25.8559 18.281C26.8628 17.066 27.4372 15.4437 27.4372 13.7062C27.4372 11.9688 26.8628 10.3465 25.8559 9.12727C25.3824 8.55352 24.6097 8.56196 24.1998 9.05368C23.8121 9.51141 23.9624 10.0746 24.3479 10.5996C24.9941 11.412 25.3457 12.5487 25.3457 13.7062C25.3457 14.8638 24.9941 15.9888 24.3479 16.8087C23.9582 17.3358 23.8121 17.9011 24.1998 18.3567Z" fill="black"/>
<path d="M27.616 21.7154C28.0248 22.1954 28.7401 22.2186 29.2613 21.6589C31.2057 19.5758 32.2597 16.7518 32.2597 13.7061C32.2597 10.6647 31.1762 7.81212 29.2613 5.75548C28.7443 5.19369 28.0269 5.2115 27.616 5.699C27.2157 6.15884 27.3414 6.7497 27.7885 7.25337C29.3188 8.94673 30.1682 11.2204 30.1682 13.7061C30.1682 16.194 29.3124 18.4677 27.7885 20.1611C27.3435 20.6647 27.2178 21.2556 27.616 21.7154Z" fill="black"/>
</svg>
