<svg width="31" height="28" viewBox="0 0 31 28" fill="none" xmlns="http://www.w3.org/2000/svg">
<path d="M0 14.0027C0 18.0848 1.96359 21.8013 5.89218 23.6932C7.76695 24.6082 10.1859 25.0172 13.5169 25.0172H16.9451C20.276 25.0172 22.695 24.6082 24.5698 23.6932C28.4983 21.8013 30.4619 18.0848 30.4619 14.0027C30.4619 10.3341 28.4644 6.6314 24.5698 4.75758C22.695 3.84258 20.276 3.43359 16.9451 3.43359H13.5169C10.1859 3.43359 7.76695 3.84258 5.89218 4.75758C1.98796 6.6314 0 10.3341 0 14.0027ZM2.29592 14.0027C2.29592 10.2818 4.83514 7.10623 8.73632 6.18022C10.0031 5.87764 11.5587 5.72951 13.5169 5.72951H16.9451C19.9922 5.72951 22.0348 6.07264 23.5723 6.82381C26.4152 8.19842 28.166 10.9338 28.166 14.0027C28.166 18.5095 25.2026 21.8128 20.3709 22.3655C19.4226 22.5584 18.3194 22.6474 16.9451 22.6474H13.5169C10.6385 22.6474 8.66342 22.3317 7.16177 21.648C4.10178 20.3121 2.29592 17.4984 2.29592 14.0027ZM2.47803 9.79288H27.9956V8.55655H2.47803V9.79288ZM15.2416 18.1326C16.5668 18.1326 17.6576 17.0557 17.6576 15.7753C17.6576 14.4288 16.5433 13.3263 15.2416 13.3263C14.7591 13.3263 14.3309 13.4531 13.9282 13.7503V11.8308L12.8374 12.3037V15.7753C12.8374 17.0887 13.8813 18.1326 15.2416 18.1326ZM15.2416 17.0557C14.5184 17.0557 13.9282 16.4676 13.9282 15.7753C13.9282 15.0541 14.5322 14.4501 15.2416 14.4501C15.9553 14.4501 16.5433 15.0659 16.5433 15.7753C16.5433 16.4676 15.9553 17.0557 15.2416 17.0557Z" fill="black"/>
</svg>
