<svg width="29" height="28" viewBox="0 0 29 28" fill="none" xmlns="http://www.w3.org/2000/svg">
<path d="M5.81038 10.3901C5.70397 10.8551 5.90506 11.074 6.41155 11.0527C8.14733 10.9427 10.3212 10.8394 14.1248 10.8394C17.9402 10.8394 20.1141 10.9427 21.8477 11.0527C22.3467 11.074 22.5478 10.8551 22.4393 10.3901C22.1833 9.25757 21.6865 7.76483 21.3452 7.17093C21.0258 6.59085 20.648 6.34593 19.9711 6.25335C19.178 6.14249 17.2645 6.0689 14.1248 6.0689C10.9948 6.0689 9.08343 6.14249 8.28069 6.25335C7.60382 6.34593 7.22812 6.59085 6.90444 7.17093C6.5653 7.76483 6.08014 9.25757 5.81038 10.3901ZM5.6503 18.6068C6.761 18.6068 7.61085 17.7548 7.61085 16.6462C7.61085 15.528 6.761 14.6878 5.6503 14.6878C4.54171 14.6878 3.69187 15.528 3.69187 16.6462C3.69187 17.7548 4.54171 18.6068 5.6503 18.6068ZM10.9678 18.1127H17.2915C18.1221 18.1127 18.7003 17.5324 18.7003 16.6943C18.7003 15.8658 18.1221 15.2855 17.2915 15.2855H10.9678C10.1297 15.2855 9.55148 15.8658 9.55148 16.6943C9.55148 17.5324 10.1297 18.1127 10.9678 18.1127ZM22.5994 18.6068C23.7176 18.6068 24.5599 17.7548 24.5599 16.6462C24.5599 15.528 23.7176 14.6878 22.5994 14.6878C21.4908 14.6878 20.6505 15.528 20.6505 16.6462C20.6505 17.7548 21.4908 18.6068 22.5994 18.6068ZM14.1248 21.9902C18.1277 21.9902 23.3787 21.7889 25.5998 21.5332C27.2948 21.3426 28.2518 20.3815 28.2518 18.7781V16.7156C28.2518 14.655 27.885 13.5028 26.7773 12.0923L25.739 10.7897C25.3129 8.68031 24.5299 6.46757 24.1272 5.59828C23.4712 4.22133 22.2178 3.39398 20.6001 3.17672C19.7601 3.06281 17.2423 3 14.1248 3C11.0191 3 8.50124 3.07242 7.66124 3.17672C6.04148 3.37476 4.77843 4.21922 4.13414 5.59828C3.72398 6.46757 2.94844 8.68031 2.51062 10.7897L1.48195 12.0923C0.366798 13.5028 0 14.655 0 16.7156V18.7781C0 20.3815 0.966559 21.3426 2.65195 21.5332C4.88273 21.7889 10.1241 21.9902 14.1248 21.9902ZM14.1248 20.1281C10.1088 20.1281 5.11124 19.9343 3.20553 19.7041C2.20733 19.5891 1.83889 19.0819 1.83889 18.187V16.6165C1.83889 15.0321 2.13046 14.28 2.96858 13.1817L4.22506 11.5291C4.52038 9.95225 5.27155 7.526 5.76913 6.47108C6.15678 5.64561 6.90139 5.16491 7.93194 5.036C8.72624 4.93382 11.0292 4.83257 14.1248 4.83257C17.2301 4.83257 19.564 4.93803 20.3006 5.036C21.3579 5.1703 22.0887 5.65522 22.4923 6.47952C22.9835 7.51335 23.7347 9.93538 24.0267 11.5291L25.2907 13.1817C26.1213 14.28 26.4129 15.0321 26.4129 16.6165V18.187C26.4129 19.0819 26.0423 19.5891 25.0462 19.7041C23.148 19.9343 18.143 20.1281 14.1248 20.1281ZM2.18578 25.2276H3.58851C4.48218 25.2276 5.17664 24.5353 5.17664 23.6491V20.7778L0.597656 19.9476V23.6491C0.597656 24.5353 1.29211 25.2276 2.18578 25.2276ZM24.6633 25.2276H26.0756C26.9693 25.2276 27.6541 24.5353 27.6541 23.6491V19.9476L23.0847 20.7778V23.6491C23.0847 24.5353 23.7696 25.2276 24.6633 25.2276Z" fill="black"/>
</svg>
