<svg width="29" height="28" viewBox="0 0 29 28" fill="none" xmlns="http://www.w3.org/2000/svg">
<path d="M14.1248 21.9164C18.1277 21.9164 23.3787 21.7172 25.5998 21.4594C27.2948 21.2667 28.2518 20.3076 28.2518 18.7043V16.7156C28.2518 14.655 27.8702 13.5155 26.7773 12.0923L25.739 10.7897C25.3129 8.68031 24.5299 6.46757 24.1272 5.59828C23.4733 4.21922 22.2178 3.39398 20.6001 3.17672C19.7601 3.06281 17.2423 3 14.1248 3C11.0191 3 8.50124 3.07242 7.66124 3.17672C6.04148 3.37476 4.77843 4.21922 4.13414 5.59828C3.72187 6.46757 2.94844 8.68031 2.51062 10.7897L1.48195 12.0923C0.381563 13.5155 0 14.655 0 16.7156V18.7043C0 20.3076 0.966559 21.2688 2.65195 21.4594C4.88273 21.7151 10.1241 21.9164 14.1248 21.9164ZM1.58812 25.2276H2.99086C3.88453 25.2276 4.57898 24.5353 4.57898 23.6491V20.6721L0 18.4022V23.6491C0 24.5353 0.694453 25.2276 1.58812 25.2276ZM25.2609 25.2276H26.6733C27.5669 25.2276 28.2518 24.5353 28.2518 23.6491V18.4022L23.6824 20.6721V23.6491C23.6824 24.5353 24.3672 25.2276 25.2609 25.2276Z" fill="black"/>
<path d="M10.3489 13.1998C10.3489 13.0645 10.4075 12.9485 10.5055 12.8313L15.3031 6.85686C15.6917 6.37241 16.3412 6.70452 16.1155 7.30827L14.5597 11.4612H17.4805C17.72 11.4612 17.9298 11.6475 17.9298 11.8774C17.9298 12.003 17.8712 12.1383 17.754 12.2459L12.9777 18.2203C12.5774 18.7048 11.9183 18.363 12.1515 17.7689L13.719 13.6064H10.7907C10.547 13.6064 10.3489 13.4297 10.3489 13.1998Z" fill="white"/>
</svg>
