<svg width="38" height="28" viewBox="0 0 38 28" fill="none" xmlns="http://www.w3.org/2000/svg">
<path d="M0.060703 13.0506H9.0075C9.22265 12.5479 9.71578 12.2273 10.3144 12.2273H27.1282C27.731 12.2273 28.2274 12.5479 28.4447 13.0506H37.3894C36.7739 7.08062 32.5155 4 24.7666 4H12.6855C4.94625 4 0.687889 7.07641 0.060703 13.0506ZM24.7666 24.2746C32.8891 24.2746 37.3584 20.8265 37.4522 14.2869H28.432C28.2126 14.7749 27.7183 15.0871 27.1282 15.0871H10.3144C9.72632 15.0871 9.24164 14.7749 9.02015 14.2869H0C0.0841405 20.6523 4.78828 24.2746 12.6855 24.2746H24.7666ZM18.7202 19.0487C18.0513 19.0626 17.5017 18.4991 17.5017 17.8419C17.5017 17.1709 18.0513 16.6213 18.7202 16.6213C19.3912 16.6213 19.9409 17.1709 19.9409 17.8419C19.9409 18.464 19.3912 19.0274 18.7202 19.0487Z" fill="black"/>
</svg>
