<svg width="28" height="28" viewBox="0 0 28 28" fill="none" xmlns="http://www.w3.org/2000/svg">
<path d="M13.6623 26.5798C20.2987 26.5798 23.3322 24.2155 23.3322 18.8771V9.80305C23.3322 7.72648 22.8554 6.1707 22.0361 5.08227C21.7232 4.66321 21.1818 4.59969 20.7175 4.91469C19.4512 5.8843 16.6131 6.65845 13.6623 6.65845C10.7094 6.65845 7.87139 5.8843 6.61468 4.91469C6.14078 4.59969 5.60899 4.66321 5.2961 5.08227C4.47672 6.1707 4 7.72648 4 9.80305V18.8771C4 24.2155 7.0239 26.5798 13.6623 26.5798ZM13.6623 24.2987C8.36217 24.2987 6.28116 22.5687 6.28116 18.6959V9.89164C6.28116 9.02492 6.42741 8.21374 6.78718 7.51249C8.27873 8.5053 10.8522 8.97124 13.6623 8.97124C16.48 8.97124 19.0534 8.5053 20.5354 7.51249C20.9048 8.21374 21.051 9.02492 21.051 9.89164V18.6959C21.051 22.5687 18.97 24.2987 13.6623 24.2987Z" fill="black"/>
<path d="M13.6517 5.04875C16.7888 5.04875 19.1323 4.41781 19.1323 3.53609C19.1323 2.63304 16.7909 2.01382 13.6517 2.01382C10.5315 2.01382 8.19971 2.63304 8.19971 3.53609C8.19971 4.41781 10.5336 5.04875 13.6517 5.04875Z" fill="black"/>
</svg>
