<svg width="28" height="28" viewBox="0 0 28 28" fill="none" xmlns="http://www.w3.org/2000/svg">
<path d="M7.48022 27.936H20.6565C22.7643 27.936 24.1368 26.6115 24.1368 24.5828V4.3628C24.1368 2.33406 22.7643 1 20.6565 1H7.48022C5.3725 1 4 2.33406 4 4.3628V24.5828C4 26.6115 5.3725 27.936 7.48022 27.936ZM7.79053 25.638C6.82913 25.638 6.29592 25.1176 6.29592 24.2052V4.74038C6.29592 3.82584 6.82913 3.29381 7.79053 3.29381H20.3462C21.298 3.29381 21.8409 3.82584 21.8409 4.74038V24.2031C21.8409 25.1155 21.298 25.638 20.3462 25.638H7.79053Z" fill="black"/>
<path d="M8.73165 7.36678H9.75962C10.0727 7.36678 10.3209 7.15162 10.3209 6.86404V5.7892C10.3209 5.4899 10.0727 5.27264 9.75962 5.27264H8.73165C8.44196 5.27264 8.22681 5.49951 8.22681 5.7892V6.86404C8.22681 7.1399 8.44196 7.36678 8.73165 7.36678ZM11.948 7.36678H12.9759C13.2912 7.36678 13.5181 7.15162 13.5181 6.86404V5.7892C13.5181 5.4899 13.2912 5.27264 12.9759 5.27264H11.948C11.6583 5.27264 11.4314 5.49951 11.4314 5.7892V6.86404C11.4314 7.1399 11.6562 7.36678 11.948 7.36678ZM15.1472 7.36678H16.1827C16.4958 7.36678 16.7344 7.15162 16.7344 6.86404V5.7892C16.7344 5.4899 16.4958 5.27264 16.1827 5.27264H15.1472C14.8575 5.27264 14.6381 5.49951 14.6381 5.7892V6.86404C14.6381 7.1399 14.8554 7.36678 15.1472 7.36678ZM18.3497 7.36678H19.3894C19.7121 7.36678 19.9315 7.15162 19.9315 6.86404V5.7892C19.9315 5.4899 19.7121 5.27264 19.3894 5.27264H18.3497C18.0621 5.27264 17.847 5.49951 17.847 5.7892V6.86404C17.847 7.1399 18.0621 7.36678 18.3497 7.36678ZM8.73165 10.6026H9.75962C10.0727 10.6026 10.3209 10.3757 10.3209 10.0806V9.01537C10.3209 8.71607 10.0727 8.50841 9.75962 8.50841H8.73165C8.44196 8.50841 8.22681 8.72568 8.22681 9.01537V10.0806C8.22681 10.3757 8.44196 10.6026 8.73165 10.6026ZM11.948 10.6026H12.9759C13.2912 10.6026 13.5181 10.3757 13.5181 10.0806V9.01537C13.5181 8.71607 13.2912 8.50841 12.9759 8.50841H11.948C11.6583 8.50841 11.4218 8.72568 11.4218 9.01537V10.0806C11.4218 10.3757 11.6562 10.6026 11.948 10.6026ZM15.1472 10.6026H16.1827C16.4958 10.6026 16.7344 10.3757 16.7344 10.0902V9.01537C16.7344 8.71607 16.4958 8.50841 16.1827 8.50841H15.1472C14.8575 8.50841 14.6381 8.72568 14.6381 9.01537V10.0902C14.6381 10.3757 14.8554 10.6026 15.1472 10.6026ZM18.3497 10.6026H19.3894C19.7121 10.6026 19.9315 10.3757 19.9315 10.0902V9.01537C19.9315 8.71607 19.7121 8.50841 19.3894 8.50841H18.3497C18.0621 8.50841 17.847 8.72568 17.847 9.01537V10.0902C17.847 10.3757 18.0621 10.6026 18.3497 10.6026ZM8.73165 13.8287H9.75962C10.0727 13.8287 10.3209 13.6232 10.3209 13.326V12.2608C10.3209 11.9615 10.0727 11.7346 9.75962 11.7346H8.73165C8.44196 11.7346 8.22681 11.9615 8.22681 12.2608V13.326C8.22681 13.6136 8.44196 13.8287 8.73165 13.8287ZM11.948 13.8287H12.9759C13.2912 13.8287 13.5181 13.6232 13.5181 13.326V12.2608C13.5181 11.9615 13.2912 11.7346 12.9759 11.7346H11.948C11.6583 11.7346 11.4218 11.9615 11.4218 12.2608V13.326C11.4218 13.6136 11.6562 13.8287 11.948 13.8287ZM8.73165 23.6612H9.75962C10.0727 23.6612 10.3209 23.4536 10.3209 23.1585V22.0837C10.3209 21.7844 10.0727 21.5746 9.75962 21.5746H8.73165C8.44196 21.5746 8.22681 21.794 8.22681 22.0837V23.1585C8.22681 23.444 8.44196 23.6612 8.73165 23.6612ZM11.948 23.6612H12.9759C13.2912 23.6612 13.5181 23.4536 13.5181 23.1585V22.0837C13.5181 21.7844 13.2912 21.5746 12.9759 21.5746H11.948C11.6583 21.5746 11.4218 21.794 11.4218 22.0837V23.1585C11.4218 23.444 11.6562 23.6612 11.948 23.6612ZM15.1472 23.6612H16.1923C16.4958 23.6612 16.7344 23.4536 16.7344 23.1585V22.0837C16.7344 21.7844 16.4958 21.5746 16.1923 21.5746H15.1472C14.8575 21.5746 14.6381 21.794 14.6381 22.0837V23.1585C14.6381 23.444 14.8554 23.6612 15.1472 23.6612ZM18.3497 23.6612H19.3894C19.7121 23.6612 19.9315 23.4536 19.9315 23.1585V22.0837C19.9315 21.7844 19.7121 21.5746 19.3894 21.5746H18.3497C18.0621 21.5746 17.8566 21.794 17.8566 22.0837V23.1585C17.8566 23.444 18.0621 23.6612 18.3497 23.6612Z" fill="black"/>
</svg>
