<svg width="28" height="28" viewBox="0 0 28 28" fill="none" xmlns="http://www.w3.org/2000/svg">
<path d="M13.6623 26.584C20.2987 26.584 23.3322 24.2218 23.3322 18.8834V9.80726C23.3322 7.73069 22.8554 6.17491 22.0361 5.08859C21.7232 4.66742 21.1818 4.6039 20.7175 4.9189C19.4617 5.8864 16.5857 6.66898 13.6623 6.66898C10.7369 6.66898 7.86085 5.8864 6.61468 4.9189C6.14078 4.6039 5.60899 4.66742 5.2961 5.08859C4.47672 6.17491 4 7.73069 4 9.80726V18.8834C4 24.2218 7.0239 26.584 13.6623 26.584Z" fill="black"/>
<path d="M13.6517 5.05296C16.7888 5.05296 19.1323 4.42202 19.1323 3.5403C19.1323 2.63726 16.7909 2.01804 13.6517 2.01804C10.5315 2.01804 8.19971 2.63726 8.19971 3.5403C8.19971 4.42202 10.5336 5.05296 13.6517 5.05296Z" fill="black"/>
</svg>
