<svg width="39" height="28" viewBox="0 0 39 28" fill="none" xmlns="http://www.w3.org/2000/svg">
<path d="M11.6449 21.9614V20.0993C8.22607 20.0449 4.73787 19.8745 3.25405 19.7105C2.24108 19.605 1.83889 19.0523 1.83889 18.1385V16.6186C1.83889 15.0321 2.13046 14.2821 2.96858 13.1817L4.22506 11.5312C4.52038 9.95225 5.27155 7.526 5.76913 6.47319C6.15678 5.64772 6.90139 5.16491 7.93194 5.03811C8.72624 4.93382 11.0292 4.83468 14.1248 4.83468C15.8325 4.83468 17.2783 4.86772 18.4003 4.9146L19.379 3.09562C18.1804 3.03609 16.3383 3 14.1248 3C11.0191 3 8.50124 3.07453 7.66124 3.17672C6.04148 3.37687 4.77843 4.21922 4.13414 5.60039C3.72398 6.46968 2.94844 8.68242 2.51062 10.7897L1.48195 12.0944C0.366798 13.5028 0 14.6571 0 16.7156V18.5332C0 20.3196 0.924138 21.333 2.65195 21.5332C4.44327 21.7601 8.16467 21.9091 11.6449 21.9614ZM13.7395 10.8394L14.8739 6.07101C14.639 6.07101 14.3862 6.07101 14.1248 6.07101C10.9948 6.07101 9.08343 6.1446 8.28069 6.25335C7.60382 6.34804 7.23022 6.59296 6.92554 7.13296C6.56741 7.7564 6.07053 9.25968 5.81038 10.3901C5.70186 10.8551 5.90506 11.0761 6.41155 11.0527C8.05124 10.9427 10.6401 10.849 13.7395 10.8394ZM2.18578 25.2297H3.58851C4.48218 25.2297 5.17664 24.5353 5.17664 23.6512V20.8066L0.597656 20.0079V23.6512C0.597656 24.5353 1.29211 25.2297 2.18578 25.2297ZM5.6503 18.6068C6.761 18.6068 7.61085 17.7569 7.61085 16.6484C7.61085 15.5302 6.761 14.6878 5.6503 14.6878C4.54171 14.6878 3.69187 15.5302 3.69187 16.6484C3.69187 17.7569 4.54171 18.6068 5.6503 18.6068Z" fill="black"/>
<path d="M24.2054 21.9923C28.2083 21.9923 33.4496 21.791 35.6804 21.5332C37.3658 21.3447 38.3324 20.3836 38.3324 18.7781V16.7156C38.3324 14.6571 37.9656 13.5028 36.8504 12.0944L35.8196 10.7897C35.3839 8.68242 34.6105 6.46968 34.1982 5.60039C33.5518 4.22133 32.2888 3.39609 30.6711 3.17672C29.8311 3.06492 27.3132 3 24.2054 3C21.0901 3 18.5722 3.07453 17.7322 3.17672C16.1146 3.37687 14.8494 4.21922 14.2051 5.60039C13.8046 6.46968 13.0194 8.68242 12.5933 10.7897L11.5529 12.0944C10.4378 13.5028 10.071 14.6571 10.071 16.7156V18.7781C10.071 20.3836 11.0375 21.3447 12.7325 21.5332C14.9537 21.791 20.195 21.9923 24.2054 21.9923ZM24.2054 20.1281C20.1894 20.1281 15.1822 19.9343 13.2861 19.7041C12.2879 19.5891 11.9099 19.0819 11.9099 18.1891V16.6186C11.9099 15.0321 12.211 14.2821 13.0396 13.1817L14.3057 11.5312C14.5914 9.95225 15.3542 7.526 15.8422 6.47319C16.2374 5.64772 16.982 5.16491 18.0125 5.03811C18.8068 4.93382 21.1002 4.83468 24.2054 4.83468C27.301 4.83468 29.6446 4.94014 30.3812 5.03811C31.4385 5.17241 32.1693 5.65733 32.5653 6.47952C33.0641 7.51335 33.8057 9.93538 34.1073 11.5312L35.3617 13.1817C36.2019 14.2821 36.4935 15.0321 36.4935 16.6186V18.1891C36.4935 19.0819 36.1229 19.5891 35.1172 19.7041C33.219 19.9343 28.2235 20.1281 24.2054 20.1281ZM15.8931 10.3901C15.7846 10.8572 15.9857 11.0761 16.4825 11.0527C18.2183 10.9427 20.3921 10.8394 24.2054 10.8394C28.0112 10.8394 30.185 10.9427 31.9187 11.0527C32.4273 11.0761 32.6188 10.8572 32.5103 10.3901C32.2543 9.25968 31.7671 7.76694 31.4258 7.17093C31.1064 6.59085 30.7285 6.34804 30.0517 6.25335C29.2489 6.1446 27.3355 6.07101 24.2054 6.07101C21.0678 6.07101 19.1544 6.1446 18.3613 6.25335C17.6844 6.34804 17.2991 6.59085 16.9775 7.17093C16.6459 7.76694 16.1511 9.25968 15.8931 10.3901ZM12.2568 25.2297H13.6691C14.5628 25.2297 15.2476 24.5353 15.2476 23.6512V20.7778L10.6782 19.9498V23.6512C10.6782 24.5353 11.3631 25.2297 12.2568 25.2297ZM34.7439 25.2297H36.1466C37.0403 25.2297 37.7347 24.5353 37.7347 23.6512V19.9498L33.1557 20.7778V23.6512C33.1557 24.5353 33.8502 25.2297 34.7439 25.2297ZM15.733 18.6068C16.8416 18.6068 17.6818 17.7569 17.6818 16.6484C17.6818 15.5302 16.8416 14.6878 15.733 14.6878C14.6148 14.6878 13.7725 15.5302 13.7725 16.6484C13.7725 17.7569 14.6148 18.6068 15.733 18.6068ZM21.0388 18.1127H27.3624C28.2027 18.1127 28.7809 17.5345 28.7809 16.6964C28.7809 15.8658 28.2027 15.2876 27.3624 15.2876H21.0388C20.2103 15.2876 19.6225 15.8658 19.6225 16.6964C19.6225 17.5345 20.2103 18.1127 21.0388 18.1127ZM32.68 18.6068C33.7885 18.6068 34.6405 17.7569 34.6405 16.6484C34.6405 15.5302 33.7885 14.6878 32.68 14.6878C31.5617 14.6878 30.7215 15.5302 30.7215 16.6484C30.7215 17.7569 31.5617 18.6068 32.68 18.6068Z" fill="black"/>
</svg>
