<svg width="30" height="28" viewBox="0 0 30 28" fill="none" xmlns="http://www.w3.org/2000/svg">
<path d="M3.84421 23.948H25.9999C28.5218 23.948 29.8462 22.6449 29.8462 20.1423V8.79616C29.8462 6.30523 28.5218 5 25.9999 5H3.84421C1.30523 5 0 6.29562 0 8.79616V20.1423C0 22.6449 1.30523 23.948 3.84421 23.948ZM3.97733 21.6521C2.88772 21.6521 2.29592 21.0805 2.29592 19.9419V8.99866C2.29592 7.85795 2.88772 7.29592 3.97733 7.29592H25.8572C26.9393 7.29592 27.5503 7.85795 27.5503 8.99866V19.9419C27.5503 21.0805 26.9393 21.6521 25.8572 21.6521H3.97733ZM5.0953 11.8184H6.17553C6.52053 11.8184 6.72608 11.6129 6.72608 11.2775V10.1951C6.72608 9.85226 6.52053 9.6446 6.17553 9.6446H5.0953C4.76202 9.6446 4.55647 9.85226 4.55647 10.1951V11.2775C4.55647 11.6129 4.76202 11.8184 5.0953 11.8184ZM8.80335 11.8184H9.88569C10.219 11.8184 10.4245 11.6129 10.4245 11.2775V10.1951C10.4245 9.85226 10.219 9.6446 9.88569 9.6446H8.80335C8.46046 9.6446 8.25491 9.85226 8.25491 10.1951V11.2775C8.25491 11.6129 8.46046 11.8184 8.80335 11.8184ZM12.5114 11.8184H13.5841C13.927 11.8184 14.1326 11.6129 14.1326 11.2775V10.1951C14.1326 9.85226 13.927 9.6446 13.5841 9.6446H12.5114C12.1685 9.6446 11.963 9.85226 11.963 10.1951V11.2775C11.963 11.6129 12.1685 11.8184 12.5114 11.8184ZM16.2119 11.8184H17.2922C17.6351 11.8184 17.8427 11.6129 17.8427 11.2775V10.1951C17.8427 9.85226 17.6351 9.6446 17.2922 9.6446H16.2119C15.8787 9.6446 15.671 9.85226 15.671 10.1951V11.2775C15.671 11.6129 15.8787 11.8184 16.2119 11.8184ZM19.9453 11.8184H21.0002C21.3356 11.8184 21.5412 11.6129 21.5412 11.2775V10.1951C21.5412 9.85226 21.3356 9.6446 21.0002 9.6446H19.9453C19.5877 9.6446 19.3716 9.85226 19.3716 10.1951V11.2775C19.3716 11.6129 19.5877 11.8184 19.9453 11.8184ZM23.628 11.8184H24.7008C25.0437 11.8184 25.2492 11.6129 25.2492 11.2775V10.1951C25.2492 9.85226 25.0437 9.6446 24.7008 9.6446H23.628C23.2852 9.6446 23.0796 9.85226 23.0796 10.1951V11.2775C23.0796 11.6129 23.2852 11.8184 23.628 11.8184ZM5.0953 15.5518H6.17553C6.52053 15.5518 6.72608 15.3441 6.72608 15.0012V13.9285C6.72608 13.5856 6.52053 13.378 6.17553 13.378H5.0953C4.76202 13.378 4.55647 13.5856 4.55647 13.9285V15.0012C4.55647 15.3441 4.76202 15.5518 5.0953 15.5518ZM8.80335 15.5518H9.88569C10.219 15.5518 10.4245 15.3441 10.4245 15.0012V13.9285C10.4245 13.5856 10.219 13.378 9.88569 13.378H8.80335C8.46046 13.378 8.25491 13.5856 8.25491 13.9285V15.0012C8.25491 15.3441 8.46046 15.5518 8.80335 15.5518ZM12.5114 15.5518H13.5841C13.927 15.5518 14.1326 15.3441 14.1326 15.0012V13.9285C14.1326 13.5856 13.927 13.378 13.5841 13.378H12.5114C12.1685 13.378 11.963 13.5856 11.963 13.9285V15.0012C11.963 15.3441 12.1685 15.5518 12.5114 15.5518ZM16.2119 15.5518H17.2922C17.6351 15.5518 17.8427 15.3441 17.8427 15.0012V13.9285C17.8427 13.5856 17.6351 13.378 17.2922 13.378H16.2119C15.8787 13.378 15.671 13.5856 15.671 13.9285V15.0012C15.671 15.3441 15.8787 15.5518 16.2119 15.5518ZM19.9453 15.5518H21.0002C21.3356 15.5518 21.5412 15.3441 21.5412 15.0012V13.9285C21.5412 13.5856 21.3356 13.378 21.0002 13.378H19.9453C19.5877 13.378 19.3716 13.5856 19.3716 13.9285V15.0012C19.3716 15.3441 19.5877 15.5518 19.9453 15.5518ZM23.628 15.5518H24.7008C25.0437 15.5518 25.2492 15.3441 25.2492 15.0012V13.9285C25.2492 13.5856 25.0437 13.378 24.7008 13.378H23.628C23.2852 13.378 23.0796 13.5856 23.0796 13.9285V15.0012C23.0796 15.3441 23.2852 15.5518 23.628 15.5518ZM5.0953 19.2851H6.17553C6.52053 19.2851 6.72608 19.0775 6.72608 18.7346V17.6523C6.72608 17.319 6.52053 17.1113 6.17553 17.1113H5.0953C4.76202 17.1113 4.55647 17.319 4.55647 17.6523V18.7346C4.55647 19.0775 4.76202 19.2851 5.0953 19.2851ZM8.90155 19.2851H20.902C21.3047 19.2851 21.5412 19.0487 21.5412 18.6364V17.7505C21.5412 17.3478 21.3047 17.1113 20.902 17.1113H8.90155C8.48929 17.1113 8.25491 17.3478 8.25491 17.7505V18.6364C8.25491 19.0487 8.48929 19.2851 8.90155 19.2851ZM23.628 19.2851H24.7008C25.0437 19.2851 25.2492 19.0775 25.2492 18.7346V17.6523C25.2492 17.319 25.0437 17.1113 24.7008 17.1113H23.628C23.2852 17.1113 23.0796 17.319 23.0796 17.6523V18.7346C23.0796 19.0775 23.2852 19.2851 23.628 19.2851Z" fill="black"/>
</svg>
