<svg width="28" height="28" viewBox="0 0 28 28" fill="none" xmlns="http://www.w3.org/2000/svg">
<path d="M14.105 26.21C20.7369 26.21 26.2121 20.7273 26.2121 14.105C26.2121 7.47312 20.7273 2 14.0954 2C7.47523 2 2 7.47312 2 14.105C2 20.7273 7.48484 26.21 14.105 26.21ZM14.105 23.8255C8.71085 23.8255 4.39412 19.4991 4.39412 14.105C4.39412 8.71085 8.70124 4.38452 14.0954 4.38452C19.4895 4.38452 23.8276 8.71085 23.8276 14.105C23.8276 19.4991 19.4991 23.8255 14.105 23.8255Z" fill="black"/>
<path d="M7.86011 14.1048C7.86011 16.2889 8.38112 17.9438 9.2687 19.475C9.5073 19.8702 9.96526 19.9916 10.3839 19.7605C10.7694 19.5591 10.8887 19.0777 10.6714 18.6495C9.91909 17.2632 9.48433 15.9896 9.48433 14.1048C9.48433 11.0506 11.3237 9.03547 14.1071 9.03547C16.9002 9.03547 18.7651 11.0623 18.7651 14.1048C18.7651 15.98 18.3303 17.277 17.5524 18.6495C17.3255 19.0639 17.4566 19.5495 17.8421 19.7605C18.249 19.9916 18.7208 19.8702 18.9573 19.475C19.8566 17.8948 20.3893 16.2516 20.3893 14.1048C20.3893 10.1059 17.8587 7.41547 14.1071 7.41547C10.3651 7.41547 7.86011 10.092 7.86011 14.1048ZM9.94487 19.213C10.1633 19.9801 10.8526 20.3647 11.608 20.1228C12.3868 19.9119 12.7597 19.2406 12.5274 18.4714L11.7048 15.6359C11.4746 14.8571 10.8109 14.48 10.0417 14.7144C9.27456 14.9232 8.88995 15.5987 9.12222 16.3541L9.94487 19.213ZM18.2694 19.213L19.092 16.3541C19.3243 15.5869 18.9514 14.9232 18.1726 14.7144C17.4172 14.48 16.7513 14.8571 16.5212 15.6359L15.6868 18.4852C15.4662 19.2619 15.8295 19.9119 16.6084 20.1228C17.3755 20.353 18.0509 19.9801 18.2694 19.213Z" fill="black"/>
</svg>
