<svg width="30" height="28" viewBox="0 0 30 28" fill="none" xmlns="http://www.w3.org/2000/svg">
<path d="M19.3638 27.7828C26.0097 27.7828 29.0358 25.4205 29.0358 20.0822V11.006C29.0358 8.93156 28.5569 7.37368 27.7375 6.28735C27.4268 5.86829 26.8929 5.80267 26.419 6.11977C25.1548 7.08938 22.3242 7.86353 19.3638 7.86353C16.413 7.86353 13.5825 7.08938 12.3183 6.11977C11.8444 5.80267 11.3105 5.86829 10.9997 6.28735C10.1803 7.37368 9.70361 8.93156 9.70361 11.006V20.0822C9.70361 25.4205 12.7275 27.7828 19.3638 27.7828ZM19.3638 25.5016C14.0637 25.5016 11.9847 23.7738 11.9847 19.901V11.0946C11.9847 10.2279 12.1289 9.41671 12.4887 8.71546C13.9802 9.71038 16.5537 10.1742 19.3638 10.1742C22.1836 10.1742 24.757 9.71038 26.2486 8.71546C26.6083 9.41671 26.7525 10.2279 26.7525 11.0946V19.901C26.7525 23.7738 24.6736 25.5016 19.3638 25.5016Z" fill="black"/>
<path d="M3.41414 20.7808L7.99804 20.7787V18.6663H3.59015C2.62218 18.6663 2.11452 18.1406 2.11452 17.2099V3.57093C2.11452 2.64022 2.62218 2.11452 3.59015 2.11452H12.4441C12.7216 2.11452 12.9298 2.22983 13.0226 2.42202C13.0845 2.46046 13.0845 2.52772 13.1175 2.63554C13.8635 2.28703 14.6977 2.02453 15.6412 1.83633C15.6061 1.67742 15.5634 1.55156 15.5166 1.47375C15.0258 0.527108 14.0344 0 12.6223 0H3.41414C1.18078 0 0 1.2 0 3.44296V17.3379C0 19.5905 1.18078 20.783 3.41414 20.7808ZM3.91077 13.2884C3.91077 15.5819 5.75156 17.4274 7.99804 17.437V14.9358C7.16085 14.9135 6.38858 14.2514 6.38858 13.2787C6.38858 12.4181 7.05421 11.6716 7.99804 11.6196C7.99804 10.5035 8.03109 9.85147 8.13984 9.14718C5.80054 9.08952 3.91077 10.9683 3.91077 13.2884ZM5.82655 5.74593C5.82655 7.11866 6.92882 8.18226 8.33367 8.14452C8.46258 7.64718 8.61703 7.16577 8.79703 6.72913C8.63484 6.83906 8.44382 6.89882 8.22187 6.89882C7.58413 6.89882 7.06686 6.37945 7.06686 5.74593C7.06686 5.1178 7.59585 4.58881 8.22187 4.58881C8.86734 4.58881 9.36867 5.14475 9.32578 5.74757C9.5857 5.31093 9.88289 4.91695 10.2152 4.54851C9.86906 3.82429 9.1132 3.32718 8.22398 3.33678C6.88781 3.34639 5.82655 4.39804 5.82655 5.74593ZM19.3533 6.25383C22.4135 6.25383 24.836 5.62078 24.836 4.74117C24.836 3.83813 22.4156 3.2168 19.3533 3.2168C16.3216 3.2168 13.9012 3.83813 13.9012 4.74117C13.9012 5.62078 16.3237 6.25383 19.3533 6.25383Z" fill="black"/>
</svg>
