<svg width="28" height="28" viewBox="0 0 28 28" fill="none" xmlns="http://www.w3.org/2000/svg">
<path d="M14.105 26.21C20.7369 26.21 26.2121 20.7273 26.2121 14.105C26.2121 7.47312 20.7273 2 14.0954 2C7.47523 2 2 7.47312 2 14.105C2 20.7273 7.48484 26.21 14.105 26.21ZM14.105 23.8255C8.71085 23.8255 4.39412 19.4991 4.39412 14.105C4.39412 8.71085 8.70124 4.38452 14.0954 4.38452C19.4895 4.38452 23.8276 8.71085 23.8276 14.105C23.8276 19.4991 19.4991 23.8255 14.105 23.8255Z" fill="black"/>
<path d="M7.81055 17.9016C7.81055 18.3012 8.12274 18.6038 8.52235 18.6038H9.15423C9.54634 18.6038 9.8543 18.3012 9.8543 17.9016V17.0077C11.0191 17.078 12.7293 17.1366 14.1049 17.1366C15.4826 17.1366 17.1811 17.0802 18.3501 17.0077V17.9016C18.3501 18.3012 18.6581 18.6038 19.0598 18.6038H19.6896C20.0817 18.6038 20.3897 18.3012 20.3897 17.9016V14.8212C20.3897 13.921 20.2169 13.4096 19.7257 12.7702L19.2708 12.1969C19.0683 11.2484 18.7272 10.2573 18.5557 9.87147C18.2648 9.26421 17.7065 8.90843 16.9863 8.80718C16.6167 8.75819 15.4826 8.73265 14.1049 8.73265C12.7218 8.73265 11.5973 8.75819 11.2181 8.80718C10.5075 8.89882 9.94712 9.26421 9.65837 9.87147C9.4772 10.2573 9.13618 11.2484 8.94329 12.1969L8.47665 12.7702C7.98751 13.4096 7.81055 13.921 7.81055 14.8212V17.9016ZM10.3999 11.6666C10.5183 11.1631 10.7273 10.5158 10.8745 10.2544C11.0152 9.99991 11.1738 9.89444 11.4656 9.85929C11.809 9.80491 12.6403 9.78358 14.1049 9.78358C15.5641 9.78358 16.3933 9.7953 16.7484 9.85929C17.0402 9.89444 17.1872 9.99991 17.3395 10.2544C17.4846 10.5062 17.6958 11.1631 17.8003 11.6666C17.8589 11.855 17.7747 11.9497 17.5608 11.9401C16.8068 11.8824 15.858 11.8452 14.1049 11.8452C12.3464 11.8452 11.4052 11.8824 10.6437 11.9401C10.4297 11.9497 10.3509 11.855 10.3999 11.6666ZM9.41532 14.8257C9.41532 14.326 9.79993 13.9531 10.2804 13.9531C10.7684 13.9531 11.153 14.326 11.153 14.8257C11.153 15.3158 10.7684 15.6791 10.2804 15.6791C9.79993 15.6791 9.41532 15.3158 9.41532 14.8257ZM12.074 14.8545C12.074 14.4816 12.3318 14.2217 12.7047 14.2217H15.5072C15.8704 14.2217 16.1304 14.4816 16.1304 14.8545C16.1304 15.2178 15.8704 15.4756 15.5072 15.4756H12.7047C12.3318 15.4756 12.074 15.2178 12.074 14.8545ZM17.059 14.8257C17.059 14.326 17.4319 13.9531 17.9219 13.9531C18.4141 13.9531 18.7945 14.326 18.7945 14.8257C18.7945 15.3158 18.4141 15.6791 17.9219 15.6791C17.4319 15.6791 17.059 15.3158 17.059 14.8257Z" fill="black"/>
</svg>
