<svg width="28" height="28" viewBox="0 0 28 28" fill="none" xmlns="http://www.w3.org/2000/svg">
<path d="M9.36686 26.6408H18.5949C20.0045 26.6408 21.0387 25.994 21.5166 24.8931V24.845L18.8092 22.1472V22.2337H8.29178V11.6415L5.99585 9.34562V23.4104C5.99585 25.3483 7.34702 26.6408 9.36686 26.6408ZM13.9625 25.3457C13.3599 25.3457 12.8712 24.857 12.8712 24.2523C12.8712 23.6615 13.3599 23.1749 13.9625 23.1749C14.5534 23.1749 15.042 23.6615 15.042 24.2523C15.042 24.857 14.5534 25.3457 13.9625 25.3457ZM21.9153 18.4527V4.23249C21.9153 2.29258 20.5852 1 18.5949 1H9.36686C7.89897 1 6.82226 1.67875 6.35515 2.83281V2.89047L8.94661 5.48405V5.40717H19.6098V16.1568L21.9153 18.4527ZM13.9625 3.93765C13.5484 3.93765 13.2226 3.60015 13.2226 3.18601C13.2226 2.78359 13.5484 2.45781 13.9625 2.45781C14.3745 2.45781 14.6907 2.78359 14.6907 3.18601C14.6907 3.60015 14.3745 3.93765 13.9625 3.93765Z" fill="black"/>
<path d="M23.2973 24.5429C23.6615 24.9147 24.2665 24.9072 24.6168 24.5429C24.979 24.1883 24.9811 23.5972 24.6168 23.2234L4.59562 3.21391C4.2314 2.84969 3.63609 2.84008 3.26437 3.21391C2.91188 3.5643 2.91188 4.18094 3.26437 4.53344L23.2973 24.5429Z" fill="black"/>
</svg>
