<svg width="28" height="28" viewBox="0 0 28 28" fill="none" xmlns="http://www.w3.org/2000/svg">
<path d="M14.105 26.21C20.7369 26.21 26.2121 20.7273 26.2121 14.105C26.2121 7.47312 20.7273 2 14.0954 2C7.47523 2 2 7.47312 2 14.105C2 20.7273 7.48484 26.21 14.105 26.21ZM14.105 23.8817C8.68812 23.8817 4.33788 19.5219 4.33788 14.105C4.33788 8.67851 8.67851 4.31866 14.0954 4.31866C19.5144 4.31866 23.8817 8.67851 23.8913 14.105C23.9009 19.5219 19.524 23.8817 14.105 23.8817ZM14.1071 22.7251C18.8966 22.7251 22.7431 18.8743 22.7293 14.1029C22.7176 9.31554 18.8827 5.48069 14.0954 5.48069C9.32397 5.48069 5.49874 9.31554 5.49874 14.1029C5.49874 18.8881 9.33569 22.7251 14.1071 22.7251ZM14.1071 21.4899C10.0166 21.4899 6.73389 18.2073 6.73389 14.1029C6.73389 9.99639 10.0027 6.71584 14.0954 6.71584C18.2019 6.71584 21.4824 9.99639 21.4941 14.1029C21.5059 18.1977 18.2157 21.4899 14.1071 21.4899ZM14.2009 17.191C14.8498 17.191 14.9841 17.5182 15.5532 17.5182C16.1084 17.5182 16.4846 17.0056 16.8373 16.5069C17.237 15.9399 17.3968 15.3709 17.3968 15.3474C17.3595 15.3357 16.3013 14.903 16.3013 13.6754C16.3013 12.6193 17.1336 12.1536 17.1784 12.1088C16.6327 11.3117 15.7909 11.3 15.5532 11.3C14.9277 11.3 14.4289 11.6741 14.0975 11.6741C13.7565 11.6741 13.3121 11.3117 12.7686 11.3117C11.7434 11.3117 10.699 12.1653 10.699 13.7553C10.699 14.7687 11.0965 15.8131 11.5623 16.4834C11.9715 17.0642 12.3263 17.5299 12.8485 17.5299C13.3473 17.5299 13.5774 17.191 14.2009 17.191ZM15.2666 10.618C15.518 10.3079 15.7013 9.89116 15.7013 9.46061C15.7013 9.40202 15.7013 9.34553 15.6875 9.30077C15.2666 9.31038 14.7678 9.57569 14.4737 9.92632C14.2456 10.2066 14.0197 10.618 14.0197 11.0485C14.0197 11.1071 14.0314 11.1753 14.0314 11.1987C14.0644 11.1987 14.0975 11.2084 14.1444 11.2084C14.5184 11.2084 14.9841 10.959 15.2666 10.618Z" fill="black"/>
</svg>
