<svg width="28" height="28" viewBox="0 0 28 28" fill="none" xmlns="http://www.w3.org/2000/svg">
<path d="M7.33554 11.8477C10.179 11.8733 12.6167 9.63475 12.5794 6.90523C12.5401 4.20875 10.1726 2 7.33554 2C4.84765 2 3.22484 3.48688 2.37477 4.72859C2.11812 5.12257 2 5.56648 2 6.05304V7.7989C2 8.27702 2.12562 8.71671 2.37266 9.11491C3.17398 10.344 4.83921 11.8147 7.33554 11.8477ZM4.30788 8.87304C3.98421 8.87304 3.72335 8.61218 3.72335 8.27679V5.56132C3.72335 5.22593 3.98421 4.96507 4.30788 4.96507C4.65499 4.96507 4.90413 5.22593 4.90413 5.56132V8.27679C4.90413 8.61218 4.65499 8.87304 4.30788 8.87304ZM7.8214 21.4229H11.4024V11.7331C10.3902 12.5091 9.15101 12.9863 7.8214 13.0653V21.4229ZM9.10273 25.4145H10.1115C10.9044 25.4145 11.4024 25.0018 11.4024 24.2408V22.7002H7.8214V24.2408C7.8214 25.0018 8.33328 25.4145 9.10273 25.4145ZM20.5414 11.8477C23.0356 11.8147 24.7126 10.344 25.5022 9.11491C25.7513 8.71671 25.8748 8.27702 25.8748 7.7989V6.05304C25.8748 5.56648 25.7588 5.12257 25.5001 4.72859C24.6596 3.48688 23.0293 2 20.5414 2C17.7022 2 15.3369 4.20875 15.2975 6.90523C15.2602 9.63475 17.698 11.8733 20.5414 11.8477ZM23.5669 8.87304C23.2219 8.87304 22.9707 8.61218 22.9707 8.27679V5.56132C22.9707 5.22593 23.2219 4.96507 23.5669 4.96507C23.8906 4.96507 24.1515 5.22593 24.1515 5.56132V8.27679C24.1515 8.61218 23.8906 8.87304 23.5669 8.87304ZM20.0555 21.4229V13.0653C18.7259 12.9863 17.4868 12.5091 16.4724 11.7331V21.4229H20.0555ZM18.7742 25.4145C19.5415 25.4145 20.0555 25.0018 20.0555 24.2408V22.7002H16.4724V24.2408C16.4724 25.0018 16.9726 25.4145 17.7633 25.4145H18.7742Z" fill="black"/>
</svg>
