<svg width="28" height="28" viewBox="0 0 28 28" fill="none" xmlns="http://www.w3.org/2000/svg">
<path d="M10.371 26.6408H16.9417C18.9704 26.6408 20.2621 25.3771 20.2621 23.4083V4.23249C20.2621 2.26375 18.9704 1 16.9417 1H10.371C8.31273 1 7 2.26375 7 4.23038V23.4104C7 25.3771 8.31273 26.6408 10.371 26.6408ZM10.7648 24.2795C9.83733 24.2795 9.29592 23.7658 9.29592 22.8822V4.75866C9.29592 3.87506 9.83733 3.36131 10.7648 3.36131H16.509C17.4248 3.36131 17.9662 3.87928 17.9662 4.76076V22.8801C17.9662 23.7615 17.4248 24.2795 16.509 24.2795H10.7648Z" fill="black"/>
</svg>
