<svg width="28" height="28" viewBox="0 0 28 28" fill="none" xmlns="http://www.w3.org/2000/svg">
<path d="M12.7125 16.2084C14.3742 16.9178 16.3043 16.105 17.0297 14.4604L19.418 9.02335C20.1434 7.37124 19.3477 5.41561 17.6796 4.69233C16.0041 3.98077 14.0761 4.76686 13.339 6.45202L10.9624 11.8869C10.2232 13.5529 11.0306 15.4809 12.7125 16.2084ZM13.9278 15.2369C12.7838 15.2369 11.8838 14.3252 11.8838 13.1833C11.8838 12.0489 12.7955 11.1297 13.9278 11.1297C15.0813 11.1297 15.991 12.0489 15.991 13.1833C15.991 14.3252 15.0813 15.2369 13.9278 15.2369ZM13.9278 14.3437C14.6002 14.3437 15.0881 13.8247 15.0881 13.1833C15.0881 12.5493 14.6002 12.0229 13.9278 12.0229C13.2767 12.0229 12.777 12.5493 12.777 13.1833C12.777 13.8247 13.2767 14.3437 13.9278 14.3437ZM24.1446 12.7061C23.5416 10.7115 22.0732 9.74006 20.8085 8.67881C20.7403 8.96967 20.6562 9.23709 20.5294 9.51413L18.1411 14.9512C17.1389 17.2335 14.502 18.2847 12.2238 17.3294C10.0643 16.3844 8.99182 14.0017 9.71417 11.8454C8.71619 13.1387 8.52072 15.021 9.30822 17.1864C10.7667 21.2807 14.5062 22.1575 18.3061 20.6718L20.5399 19.7887C23.5875 18.5924 25.0341 15.7633 24.1446 12.7061Z" fill="black"/>
<path d="M8.16367 17.6026C7.60656 16.0963 7.46711 14.6324 7.78141 13.1371C5.57828 13.7601 4 15.7588 4 18.1591C4 21.0681 6.34984 23.418 9.23547 23.418C10.5489 23.418 11.6936 22.9724 12.5748 22.1807C10.5754 21.513 9.00414 19.9504 8.16367 17.6026Z" fill="black"/>
<path d="M13.9278 15.2369C12.7838 15.2369 11.8838 14.3252 11.8838 13.1833C11.8838 12.0489 12.7955 11.1297 13.9278 11.1297C15.0813 11.1297 15.991 12.0489 15.991 13.1833C15.991 14.3252 15.0813 15.2369 13.9278 15.2369ZM13.9278 14.3437C14.6002 14.3437 15.0881 13.8247 15.0881 13.1833C15.0881 12.5493 14.6002 12.0229 13.9278 12.0229C13.2767 12.0229 12.777 12.5493 12.777 13.1833C12.777 13.8247 13.2767 14.3437 13.9278 14.3437Z" fill="white"/>
</svg>
