<svg width="28" height="28" viewBox="0 0 28 28" fill="none" xmlns="http://www.w3.org/2000/svg">
<path d="M6 23.4008C6 25.3365 7.35117 26.6312 9.37101 26.6312H18.5798C20.5701 26.6312 21.9002 25.3365 21.9002 23.3987V4.23249C21.9002 2.29258 20.5701 1 18.5798 1H9.37101C7.35117 1 6 2.29258 6 4.23038V23.4008ZM8.29592 22.8726V4.75866C8.29592 3.86545 8.82772 3.36131 9.76475 3.36131H18.1472C19.0725 3.36131 19.6043 3.86967 19.6043 4.76076V22.8705C19.6043 23.7615 19.0725 24.2699 18.1472 24.2699H9.76475C8.82772 24.2699 8.29592 23.7658 8.29592 22.8726Z" fill="black"/>
<path d="M10.86 22.7563H17.0477C17.6688 22.7563 18.0886 22.3344 18.0886 21.6899V20.2089C18.0886 19.5548 17.6688 19.1425 17.0477 19.1425H10.86C10.2314 19.1425 9.81909 19.5548 9.81909 20.2089V21.6899C9.81909 22.3344 10.2314 22.7563 10.86 22.7563Z" fill="black"/>
</svg>
