<svg width="28" height="28" viewBox="0 0 28 28" fill="none" xmlns="http://www.w3.org/2000/svg">
<path d="M6 23.4008C6 25.3365 7.35117 26.6312 9.37101 26.6312H18.5798C20.5701 26.6312 21.9002 25.3365 21.9002 23.3987V4.23249C21.9002 2.29258 20.5701 1 18.5798 1H9.37101C7.35117 1 6 2.29258 6 4.23038V23.4008ZM8.29592 22.8726V4.75866C8.29592 3.86545 8.82772 3.36131 9.76475 3.36131H18.1472C19.0725 3.36131 19.6043 3.86967 19.6043 4.76076V22.8705C19.6043 23.7615 19.0725 24.2699 18.1472 24.2699H9.76475C8.82772 24.2699 8.29592 23.7658 8.29592 22.8726Z" fill="black"/>
<path d="M10.6329 12.854C10.6329 13.2606 10.9181 13.5299 11.3097 13.5299C11.5183 13.5395 11.6864 13.4469 11.8279 13.3065L12.716 12.4028L13.2782 11.6828L13.2196 13.0625V16.266C13.2196 16.6736 13.5293 16.9747 13.9549 16.9747C14.3805 16.9747 14.6805 16.6736 14.6805 16.266V13.0625L14.6294 11.6828L15.1938 12.4028L16.0723 13.3065C16.2117 13.4469 16.3819 13.5395 16.5905 13.5299C16.9917 13.5299 17.2769 13.2606 17.2769 12.854C17.2769 12.6688 17.2216 12.4921 17.0897 12.3559L14.5155 9.74191C14.358 9.58019 14.1506 9.48761 13.9549 9.48761C13.7475 9.48761 13.5443 9.57808 13.3846 9.74191L10.8105 12.3559C10.6786 12.4921 10.6329 12.6688 10.6329 12.854ZM10.86 8.48871H17.0477C17.6688 8.48871 18.0886 8.07644 18.0886 7.4223V5.94129C18.0886 5.29676 17.6688 4.87488 17.0477 4.87488H10.86C10.2314 4.87488 9.81909 5.29676 9.81909 5.94129V7.4223C9.81909 8.07644 10.2314 8.48871 10.86 8.48871Z" fill="black"/>
</svg>
