<svg width="30" height="28" viewBox="0 0 30 28" fill="none" xmlns="http://www.w3.org/2000/svg">
<path d="M8.77171 12.6411C11.7187 12.6411 14.096 10.2244 14.096 7.32639C14.096 4.39319 11.658 2.01593 8.77171 2.01593C8.25515 2.01593 7.78757 2.06281 7.37437 2.19382V5.19944C7.78757 4.90014 8.26687 4.73186 8.77171 4.73186C10.151 4.73186 11.3311 5.91944 11.3311 7.32639C11.3311 8.7099 10.1787 9.85272 8.77171 9.85272C7.34132 9.85272 6.22195 8.74717 6.22195 7.32639V2.64007C4.52953 3.60077 3.45703 5.34428 3.45703 7.32639C3.45703 10.2851 5.82468 12.6411 8.77171 12.6411ZM8.77171 8.73334C9.52686 8.73334 10.1669 8.07194 10.1669 7.32639C10.1669 6.60639 9.50554 5.93327 8.77171 5.93327C8.03999 5.93327 7.38609 6.58295 7.38609 7.32639C7.38609 8.08576 8.01444 8.73334 8.77171 8.73334ZM6.75492 11.4905V14.1737C6.75492 14.9347 7.2689 15.3474 8.03624 15.3474H9.50718C10.3001 15.3474 10.7981 14.9347 10.7981 14.1737V11.4905H6.75492ZM7.81265 25.3836H9.74038V14.0834H7.81265V25.3836ZM20.7164 12.6411C23.6634 12.6411 26.0407 10.2244 26.0407 7.32639C26.0407 4.39319 23.6027 2.01593 20.7164 2.01593C20.1998 2.01593 19.7322 2.06281 19.319 2.19382V5.19944C19.7322 4.90014 20.2115 4.73186 20.7164 4.73186C22.0957 4.73186 23.2758 5.91944 23.2758 7.32639C23.2758 8.7099 22.1233 9.85272 20.7164 9.85272C19.286 9.85272 18.1666 8.74717 18.1666 7.32639V2.64007C16.4742 3.60077 15.4017 5.34428 15.4017 7.32639C15.4017 10.2851 17.7715 12.6411 20.7164 12.6411ZM20.7164 8.73334C21.4715 8.73334 22.1116 8.07194 22.1116 7.32639C22.1116 6.60639 21.4502 5.93327 20.7164 5.93327C19.9847 5.93327 19.3308 6.58295 19.3308 7.32639C19.3308 8.08576 19.9591 8.73334 20.7164 8.73334ZM22.7428 11.4905H18.6996V14.1737C18.6996 14.9347 19.1901 15.3474 19.9809 15.3474H21.4615C22.2288 15.3474 22.7428 14.9347 22.7428 14.1737V11.4905ZM21.6851 25.3836V14.0834H19.7573V25.3836H21.6851Z" fill="black"/>
<path d="M2.45766 7.33811C2.45766 5.24514 3.4793 3.40038 5.03883 2.25241C2.18273 2.34358 0 4.52702 0 7.34022C0 10.1342 2.15601 12.3315 5.04726 12.4259C3.48141 11.2801 2.45766 9.43108 2.45766 7.33811ZM27.04 7.33811C27.04 9.43108 26.0163 11.2801 24.4525 12.4259C27.3032 12.3315 29.4977 10.1534 29.4977 7.34022C29.4977 4.54624 27.3363 2.34358 24.4589 2.25241C26.0184 3.40038 27.04 5.24514 27.04 7.33811Z" fill="black"/>
</svg>
