<svg width="29" height="28" viewBox="0 0 29 28" fill="none" xmlns="http://www.w3.org/2000/svg">
<path d="M0 15.2794C0 19.8075 2.39671 22.0113 7.79342 22.2344V13.7039C7.79342 11.2732 8.21084 9.70756 9.46334 8.46678C10.7083 7.21428 12.3028 6.78514 14.7143 6.78514H17.5036C17.494 6.5646 17.4844 6.33655 17.4747 6.11811C17.3765 4.70202 16.95 3.56858 16.3397 2.77241C16.064 2.38523 15.5662 2.32593 15.1455 2.61539C13.9994 3.50086 11.4225 4.1993 8.7614 4.1993C6.10241 4.1993 3.52335 3.50086 2.37726 2.61539C1.95656 2.32593 1.46836 2.38523 1.18524 2.77241C0.436174 3.75538 0 5.17382 0 7.0521V15.2794Z" fill="black"/>
<path d="M8.76129 2.74195C11.615 2.74195 13.7338 2.16961 13.7338 1.36992C13.7338 0.553126 11.6172 0 8.76129 0C5.92652 0 3.81738 0.553126 3.81738 1.36992C3.81738 2.16961 5.92863 2.74195 8.76129 2.74195ZM14.7334 27.671H23.5236C25.2477 27.671 26.6148 27.4891 27.5907 26.4994C28.5667 25.5234 28.7507 24.1744 28.7507 22.4461V13.7231C28.7507 11.9948 28.5667 10.6458 27.5907 9.66983C26.6031 8.68428 25.2477 8.49819 23.5236 8.49819H14.7142C13.0189 8.49819 11.6443 8.69389 10.6663 9.66983C9.69034 10.6458 9.50635 11.9948 9.50635 13.7039V22.4461C9.50635 24.1744 9.69034 25.5255 10.6663 26.4994C11.6443 27.4891 13.0093 27.671 14.7334 27.671ZM17.4697 19.3176C17.3195 19.8101 16.9944 20.4014 16.5693 20.8214C16.4328 20.9344 16.2517 21.0281 16.0044 21.0281C15.7881 21.0281 15.6517 20.944 15.4588 20.8779C15.3299 20.8469 15.1625 20.7553 14.9579 20.7553C14.4709 20.7553 14.2684 21.0377 13.8688 21.0377C13.5981 21.0377 13.3817 20.8779 13.0876 20.5507C12.5303 19.9348 12.1679 18.9586 12.1679 18.1113C12.1679 17.5912 12.2947 17.1075 12.6294 16.7025C12.9001 16.3497 13.3253 16.1451 13.824 16.1451C14.2939 16.1451 14.5764 16.4297 14.8332 16.4297C15.1274 16.4297 15.4609 16.1334 16.0705 16.1334C16.5789 16.1334 17.0232 16.3401 17.3078 16.759C16.9358 16.9753 16.7856 17.2481 16.7174 17.474C16.5927 17.7916 16.5693 18.1732 16.7174 18.5611C16.8517 18.9138 17.0936 19.1536 17.4697 19.3176ZM14.7927 15.9703C14.7671 15.2468 15.3554 14.5455 16.1366 14.5008C16.1973 15.202 15.5814 16.0556 14.7927 15.9703ZM20.1074 14.9782V16.1334H21.0334V16.8954H20.1074V19.5862C20.1074 20.0285 20.2928 20.2076 20.6945 20.2076C20.7957 20.2076 20.9748 20.2076 21.025 20.1745V20.9908C20.9397 21.0026 20.6945 21.0281 20.4836 21.0281C19.4882 21.0281 19.1024 20.6733 19.1024 19.7088V16.8954H18.4182V16.1334H19.1024V14.9782H20.1074ZM24.3243 20.9908H23.2757L21.4949 16.1334H22.5435L23.8 20.0285L24.9946 16.1334H26.0816L24.3243 20.9908Z" fill="black"/>
</svg>
