<svg width="28" height="28" viewBox="0 0 28 28" fill="none" xmlns="http://www.w3.org/2000/svg">
<path d="M13.5063 27.2491C17.7953 27.2491 20.3235 25.1686 20.6964 20.9932C21.1258 16.0718 21.1162 11.3353 20.6772 6.06913C20.3331 2.09015 17.7953 0 13.5063 0C9.21721 0 6.6794 2.09015 6.33533 6.06913C5.89635 11.3353 5.88674 16.0718 6.31612 20.9932C6.68901 25.1686 9.21721 27.2491 13.5063 27.2491ZM13.4988 22.2258C13.1313 22.2258 13.0024 22.4175 12.7052 22.4175C12.408 22.4175 12.2163 22.1458 11.9798 21.8114C11.6943 21.4108 11.4791 20.8144 11.4791 20.2455C11.4791 19.3188 12.0852 18.8437 12.6775 18.8437C12.9651 18.8437 13.1898 19.0333 13.4402 19.0333C13.6905 19.0333 13.9035 18.8437 14.2827 18.8437C14.4138 18.8437 14.9006 18.8437 15.2095 19.2837C15.186 19.3071 14.7131 19.5787 14.7131 20.1965C14.7131 20.8889 15.317 21.1254 15.3309 21.1488C15.3309 21.1605 15.2446 21.4929 15.0081 21.8252C14.8047 22.1203 14.5917 22.4175 14.2827 22.4175C13.9621 22.4175 13.8684 22.2258 13.4988 22.2258ZM13.3933 18.7734C13.3933 18.1301 13.8566 17.6571 14.3413 17.6571C14.4372 18.1887 13.9621 18.7969 13.3933 18.7734Z" fill="black"/>
</svg>
