<svg width="39" height="28" viewBox="0 0 39 28" fill="none" xmlns="http://www.w3.org/2000/svg">
<path d="M2.92101 22.67H18.1612V20.3741L3.05741 20.4226C2.56077 20.4247 2.24741 20.1092 2.24741 19.6126V5.75956C2.24741 5.2512 2.56077 4.94745 3.05741 4.94745H25.3863C25.883 4.94745 26.1963 5.2512 26.1963 5.75956V9.19902H28.4437V5.62105C28.4437 3.79223 27.344 2.70215 25.5131 2.70215H2.92101C1.09968 2.70215 0 3.79223 0 5.62105V19.7394C0 21.5703 1.09968 22.67 2.92101 22.67ZM10.4006 25.3494H18.0431V22.4312H10.4006V25.3494ZM10.343 26.9061H18.1008C18.6839 26.9061 19.1564 26.423 19.1564 25.843C19.1564 25.2629 18.6839 24.7819 18.1008 24.7819H10.343C9.75984 24.7819 9.27773 25.2629 9.27773 25.843C9.27773 26.423 9.75984 26.9061 10.343 26.9061Z" fill="black"/>
<path d="M16.1968 20.4582C16.1968 22.6229 17.3017 23.6797 19.4279 23.6797H34.8533C36.9775 23.6797 38.0748 22.6229 38.0748 20.4582V11.7266C38.0748 9.564 36.9775 8.49548 34.8533 8.49548H19.4279C17.3017 8.49548 16.1968 9.564 16.1968 11.7266V20.4582ZM18.4421 20.3197V11.8651C18.4421 11.0584 18.7874 10.7429 19.5643 10.7429H34.7148C35.4822 10.7429 35.8274 11.0584 35.8274 11.8651V20.3197C35.8274 21.1189 35.4822 21.4323 34.7148 21.4323H19.5643C18.7874 21.4323 18.4421 21.1189 18.4421 20.3197ZM23.9413 25.3494H30.3379V22.5369H23.9413V25.3494ZM23.8836 26.9061H30.3859C30.9786 26.9061 31.4511 26.423 31.4511 25.843C31.4511 25.2629 30.9786 24.7819 30.3859 24.7819H23.8836C23.3005 24.7819 22.8184 25.2629 22.8184 25.843C22.8184 26.423 23.3005 26.9061 23.8836 26.9061Z" fill="black"/>
</svg>
