<svg width="28" height="28" viewBox="0 0 28 28" fill="none" xmlns="http://www.w3.org/2000/svg">
<path d="M13.7847 14.8751C14.4248 14.8634 14.9573 14.3309 14.9573 13.726C14.9573 13.0742 14.4269 12.5534 13.7847 12.5534C13.1446 12.5534 12.6121 13.0742 12.6121 13.726C12.6121 14.3565 13.1446 14.889 13.7847 14.8751ZM10.0412 25.6869H17.5281C21.5926 25.6869 23.5694 23.7123 23.5694 19.6477V8.03914C23.5694 3.97461 21.5926 2 17.5281 2H10.0412C5.97672 2 4 3.97461 4 8.03914V19.6477C4 23.7123 5.97672 25.6869 10.0412 25.6869ZM10.0412 23.4162C7.41975 23.4162 6.27061 22.2692 6.27061 19.6477V8.03914C6.27061 5.41764 7.41975 4.27061 10.0412 4.27061H17.5281C20.1496 4.27061 21.2966 5.41764 21.2966 8.03914V19.6477C21.2966 22.2692 20.1496 23.4162 17.5281 23.4162H10.0412ZM5.14116 10.0135H22.4282V8.77507H5.14116V10.0135ZM10.4584 10.8019H17.1088C17.928 10.8019 18.534 10.2214 18.534 9.39054C18.534 8.55757 17.928 7.97702 17.1088 7.97702H10.4584C9.67445 7.97702 9.0332 8.55757 9.0332 9.39054C9.0332 10.2214 9.67445 10.8019 10.4584 10.8019Z" fill="black"/>
</svg>
