<svg width="28" height="28" viewBox="0 0 28 28" fill="none" xmlns="http://www.w3.org/2000/svg">
<path d="M13.8492 26.9384C20.1391 26.9384 25.2286 21.3589 25.2286 14.4692C25.2286 7.57953 20.1391 2 13.8492 2C10.5316 2 7.49761 3.56 5.39926 6.13508C5.15668 6.42242 5.05566 6.70227 5.05566 6.97883C5.05566 7.55656 5.56965 7.98194 6.13988 7.98194C6.47386 7.98194 6.81534 7.83734 7.08956 7.51929C8.77308 5.43874 11.2242 4.18624 13.8492 4.18624C18.9199 4.18624 23.0306 8.79124 23.0306 14.4692C23.0306 20.1472 18.9199 24.7501 13.8492 24.7501C11.2242 24.7501 8.77308 23.4901 7.08745 21.4191C6.81956 21.1011 6.47808 20.9544 6.13988 20.9544C5.56965 20.9544 5.05566 21.3798 5.05566 21.9575C5.05566 22.2265 5.15668 22.516 5.39926 22.8033C7.49761 25.3784 10.5316 26.9384 13.8492 26.9384Z" fill="black"/>
<path d="M2 20.5135C2 22.1368 3.28484 23.4268 4.87249 23.4887C4.43632 22.9735 4.19398 22.486 4.19398 21.9767C4.19398 20.926 5.14694 20.0926 6.17093 20.0926C6.98514 20.0926 7.35592 20.476 7.95146 21.1327C7.99412 20.9302 8.01545 20.7277 8.01545 20.5135V8.47014C8.01545 8.23905 7.99201 8.03139 7.94514 7.81412C7.41311 8.42725 6.96006 8.83623 6.18053 8.83623C5.14694 8.83623 4.19398 8.0103 4.19398 6.9596C4.19398 6.49671 4.39624 6.02726 4.81765 5.50671C3.28812 5.58757 2 6.85741 2 8.47014V20.5135ZM5.04218 14.4624C3.96968 14.4624 3.09523 13.5976 3.09523 12.5368C3.09523 11.4643 3.96968 10.6015 5.04218 10.6015C6.08163 10.6015 6.95608 11.4739 6.95608 12.5368C6.95608 13.5955 6.09124 14.4624 5.04218 14.4624ZM5.04429 13.5113C5.58218 13.5113 6.00499 13.0885 6.00499 12.5368C6.00499 11.9893 5.57585 11.5484 5.04429 11.5484C4.47335 11.5484 4.0421 11.9893 4.0421 12.5368C4.0421 13.0822 4.47335 13.5113 5.04429 13.5113Z" fill="black"/>
</svg>
