<svg width="28" height="28" viewBox="0 0 28 28" fill="none" xmlns="http://www.w3.org/2000/svg">
<path d="M0 14.0691C0 21.5879 2.1764 26.1383 7.2246 26.1383H8.56686C7.54757 25.2669 6.71249 23.9907 6.10007 22.3683H4.49484C4.05187 22.3683 3.68132 21.9978 3.68132 21.5569C3.68132 21.1119 4.04976 20.753 4.49484 20.753H5.58046C5.4089 20.0839 5.25866 19.3679 5.15109 18.7032H3.73171C3.28663 18.7032 2.9278 18.3444 2.9278 17.8993C2.9278 17.4563 3.28663 17.0858 3.73171 17.0858H4.95304C4.87523 16.3325 4.82835 15.4885 4.81452 14.7535H3.44718C3.0021 14.7535 2.63577 14.3947 2.63577 13.9517C2.63577 13.5066 3.0021 13.1382 3.44718 13.1382H4.82624C4.83796 12.3648 4.88484 11.5709 4.97226 10.8176H3.73171C3.28663 10.8176 2.9278 10.445 2.9278 10.002C2.9278 9.55695 3.28663 9.19812 3.73171 9.19812H5.19163C5.31843 8.47578 5.45695 7.80031 5.64984 7.14827H4.49484C4.04976 7.14827 3.68132 6.78945 3.68132 6.34648C3.68132 5.90351 4.05187 5.53297 4.49484 5.53297H6.18866C6.79148 4.01844 7.59772 2.82125 8.56686 2H7.2246C2.1764 2 0 6.54078 0 14.0691ZM14.0395 12.0629L17.0562 9.37953C16.3115 5.0375 14.4537 2.40476 11.9911 2.40476C8.71686 2.40476 6.52546 7.00414 6.52546 14.0691C6.52546 21.132 8.71686 25.7218 11.9911 25.7218C14.4537 25.7218 16.3115 23.0933 17.0562 18.7608L14.0395 16.0616C12.7861 14.9647 12.784 13.1715 14.0395 12.0629Z" fill="black"/>
<path d="M15.1342 14.8198L18.8326 18.087C19.5629 18.7461 20.6171 18.3629 20.6171 17.3119V15.214H26.8061C27.4731 15.214 27.9489 14.7076 27.9489 14.0787C27.9489 13.4307 27.4731 12.9338 26.8061 12.9338H20.6171V10.8083C20.6171 9.79675 19.5875 9.3655 18.8326 10.0321L15.1342 13.3046C14.6326 13.7455 14.623 14.3715 15.1342 14.8198Z" fill="black"/>
</svg>
