<svg width="28" height="28" viewBox="0 0 28 28" fill="none" xmlns="http://www.w3.org/2000/svg">
<path d="M6 23.4008C6 25.3365 7.35117 26.6312 9.37101 26.6312H18.5798C20.5701 26.6312 21.9002 25.3365 21.9002 23.3987V4.23249C21.9002 2.29258 20.5701 1 18.5798 1H9.37101C7.35117 1 6 2.29258 6 4.23038V23.4008ZM8.29592 22.8726V4.75866C8.29592 3.86545 8.82772 3.36131 9.76475 3.36131H18.1472C19.0725 3.36131 19.6043 3.86967 19.6043 4.76076V22.8705C19.6043 23.7615 19.0725 24.2699 18.1472 24.2699H9.76475C8.82772 24.2699 8.29592 23.7658 8.29592 22.8726Z" fill="black"/>
<path d="M10.86 8.48871H17.0477C17.6688 8.48871 18.0886 8.07644 18.0886 7.4223V5.94129C18.0886 5.29676 17.6688 4.87488 17.0477 4.87488H10.86C10.2314 4.87488 9.81909 5.29676 9.81909 5.94129V7.4223C9.81909 8.07644 10.2314 8.48871 10.86 8.48871Z" fill="black"/>
</svg>
