<svg width="28" height="28" viewBox="0 0 28 28" fill="none" xmlns="http://www.w3.org/2000/svg">
<path d="M14.105 26.21C20.7369 26.21 26.2121 20.7273 26.2121 14.105C26.2121 7.47312 20.7273 2 14.0954 2C7.47523 2 2 7.47312 2 14.105C2 20.7273 7.48484 26.21 14.105 26.21Z" fill="black"/>
<path d="M8.85678 18.3277C7.73108 18.3277 7.0603 17.6762 7.0603 16.5409V10.513C7.0603 9.36804 7.72147 8.70476 8.85678 8.70476H19.3497C20.4947 8.70476 21.1441 9.36804 21.1441 10.513V16.5409C21.1441 17.6762 20.4851 18.3277 19.3497 18.3277H8.85678ZM9.05225 16.6377H19.1522C19.3783 16.6377 19.4583 16.562 19.4583 16.3433V10.6967C19.4583 10.4801 19.3783 10.4002 19.1522 10.4002H9.05225C8.82608 10.4002 8.75576 10.4705 8.75576 10.6967V16.3433C8.75576 16.5716 8.82608 16.6377 9.05225 16.6377ZM10.9486 20.8245C10.4866 20.8245 10.1203 20.4603 10.1203 19.9866C10.1203 19.5481 10.4962 19.1797 10.9486 19.1797H17.2868C17.7274 19.1797 18.0937 19.5481 18.0937 19.9866C18.0937 20.4603 17.737 20.8245 17.2868 20.8245H10.9486Z" fill="white"/>
</svg>
