<svg width="28" height="28" viewBox="0 0 28 28" fill="none" xmlns="http://www.w3.org/2000/svg">
<path d="M14.105 26.21C20.7369 26.21 26.2121 20.7273 26.2121 14.105C26.2121 7.47312 20.7273 2 14.0954 2C7.47523 2 2 7.47312 2 14.105C2 20.7273 7.48484 26.21 14.105 26.21ZM14.105 23.8255C8.71085 23.8255 4.39412 19.4991 4.39412 14.105C4.39412 8.71085 8.70124 4.38452 14.0954 4.38452C19.4895 4.38452 23.8276 8.71085 23.8276 14.105C23.8276 19.4991 19.4991 23.8255 14.105 23.8255Z" fill="black"/>
<path d="M11.8173 20.7038H16.3756C17.4123 20.7038 18.1238 20.0199 18.1238 19.0184V9.1777C18.1238 8.17622 17.4123 7.49231 16.3756 7.49231H11.8173C10.7786 7.49231 10.0691 8.17622 10.0691 9.1777V19.0184C10.0691 20.0199 10.7786 20.7038 11.8173 20.7038ZM11.9568 19.5322C11.4662 19.5322 11.1943 19.2624 11.1943 18.8007V9.39333C11.1943 8.93161 11.4662 8.66395 11.9568 8.66395H12.7217C12.8305 8.66395 12.856 8.70871 12.856 8.79825V8.94309C12.856 9.21262 13.0276 9.39379 13.2929 9.39379H14.9C15.1632 9.39379 15.3348 9.21262 15.3348 8.94309V8.79825C15.3348 8.70871 15.372 8.66395 15.4616 8.66395H16.2362C16.7246 8.66395 16.9965 8.93582 16.9965 9.39544V18.7986C16.9965 19.2603 16.7246 19.5322 16.2362 19.5322H11.9568ZM12.7986 19.0731H15.4039C15.5872 19.0731 15.7086 18.9559 15.7086 18.7684C15.7086 18.5734 15.5872 18.4445 15.4039 18.4445H12.7986C12.6132 18.4445 12.4843 18.5734 12.4843 18.7684C12.4843 18.9559 12.6132 19.0731 12.7986 19.0731Z" fill="black"/>
<path d="M9.05417 16.0639C9.21823 15.8647 9.16596 15.6399 8.99018 15.3971C8.71831 15.0495 8.58401 14.6007 8.58401 14.1029C8.58401 13.603 8.71831 13.1466 8.99018 12.8087C9.16596 12.5659 9.21823 12.339 9.05417 12.1419C8.87417 11.9204 8.54511 11.9246 8.34589 12.1674C7.92167 12.7088 7.67651 13.3749 7.67651 14.1029C7.67651 14.8191 7.92167 15.4969 8.34589 16.0266C8.54511 16.2716 8.87417 16.2854 9.05417 16.0639ZM19.1035 16.0639C19.2835 16.2854 19.6222 16.2716 19.8097 16.0266C20.236 15.4969 20.4908 14.8191 20.4908 14.1029C20.4908 13.3749 20.236 12.7088 19.8097 12.1674C19.6222 11.9246 19.2835 11.9204 19.1035 12.1419C18.9395 12.339 18.9917 12.5659 19.1675 12.8087C19.4394 13.1466 19.5833 13.603 19.5833 14.1029C19.5833 14.6007 19.4394 15.0495 19.1675 15.3971C18.9917 15.6399 18.9395 15.8647 19.1035 16.0639Z" fill="black"/>
<path d="M7.41948 17.4399C7.58565 17.2428 7.543 16.9979 7.35128 16.771C6.69995 16.0419 6.35565 15.1081 6.35565 14.1029C6.35565 13.0976 6.69995 12.1639 7.35128 11.4348C7.543 11.2058 7.58565 10.9534 7.41948 10.7638C7.26503 10.5507 6.94979 10.5507 6.72503 10.7755C5.90964 11.6633 5.46948 12.8431 5.46948 14.1029C5.46948 15.3509 5.90964 16.5329 6.72503 17.4303C6.94979 17.653 7.26503 17.653 7.41948 17.4399ZM20.7383 17.4399C20.9023 17.653 21.2155 17.653 21.4327 17.4303C22.2481 16.5329 22.6979 15.3509 22.6979 14.1029C22.6979 12.8431 22.2481 11.6633 21.4327 10.7755C21.2155 10.5507 20.9023 10.5507 20.7383 10.7638C20.5721 10.9534 20.6148 11.2058 20.8161 11.4348C21.4578 12.1639 21.8117 13.0976 21.8117 14.1029C21.8117 15.1081 21.4578 16.0419 20.8161 16.771C20.6148 16.9979 20.5721 17.2428 20.7383 17.4399Z" fill="black"/>
</svg>
