<svg width="28" height="28" viewBox="0 0 28 28" fill="none" xmlns="http://www.w3.org/2000/svg">
<path d="M7.15884 15.5634H12.6453C12.9113 15.5634 13.1199 15.3623 13.1199 15.077C13.1199 14.7993 12.9113 14.6217 12.6453 14.6217H7.15884C6.86939 14.6217 6.67041 14.7993 6.67041 15.077C6.67041 15.3665 6.86939 15.5634 7.15884 15.5634ZM7.15884 13.5112H14.8601C15.1358 13.5112 15.3251 13.3218 15.3251 13.0227C15.3251 12.745 15.1358 12.5695 14.8601 12.5695H7.15884C6.86939 12.5695 6.67041 12.745 6.67041 13.0227C6.67041 13.3218 6.86939 13.5112 7.15884 13.5112ZM7.28775 8.73551C7.62947 8.73551 7.90298 8.4566 7.90298 8.12238C7.90298 7.77645 7.62947 7.49543 7.28775 7.49543C6.94181 7.49543 6.67041 7.77645 6.67041 8.12238C6.67041 8.4566 6.94181 8.73551 7.28775 8.73551ZM7.28775 10.8723C7.62947 10.8723 7.90298 10.5913 7.90298 10.2454C7.90298 9.91113 7.62947 9.63012 7.28775 9.63012C6.94181 9.63012 6.67041 9.91113 6.67041 10.2454C6.67041 10.5913 6.94181 10.8723 7.28775 10.8723ZM8.69705 9.12902C8.69705 9.86192 9.0765 10.5789 9.46181 10.9047C9.56189 10.9888 9.6779 11.0345 9.80657 11.0345C10.0248 11.0345 10.2003 10.859 10.2003 10.644C10.2003 10.4811 10.1141 10.3907 9.99595 10.2683C9.67298 9.93692 9.52603 9.53403 9.52603 9.12902C9.52603 8.71652 9.69431 8.33074 9.99595 7.99184C10.1141 7.85777 10.2003 7.76731 10.2003 7.60652C10.2003 7.38949 10.0248 7.21606 9.80657 7.21606C9.68751 7.21606 9.56189 7.26926 9.46181 7.35551C8.9879 7.75067 8.69705 8.39613 8.69705 9.12902Z" fill="black"/>
<path d="M2 19.1377C2 21.2907 3.09734 22.3688 5.21187 22.3688H21.9526C24.0671 22.3688 25.1644 21.2907 25.1644 19.1377V5.23108C25.1644 3.06851 24.0575 2 21.9333 2H5.23108C3.10695 2 2 3.06851 2 5.23108V19.1377ZM4.24741 17.4247V5.3696C4.24741 4.56288 4.59053 4.24741 5.3696 4.24741H21.7948C22.5718 4.24741 22.917 4.56288 22.917 5.3696V17.4247C22.917 18.2218 22.5718 18.5373 21.7948 18.5373H5.3696C4.59053 18.5373 4.24741 18.2218 4.24741 17.4247ZM20.0314 21.1564C19.6032 21.1564 19.2282 20.7814 19.2282 20.3319C19.2282 19.9037 19.6032 19.5287 20.0314 19.5287C20.4905 19.5287 20.8538 19.9037 20.8538 20.3319C20.8538 20.7814 20.4905 21.1564 20.0314 21.1564ZM13.5812 23.9185C16.9484 23.9185 19.7314 23.0977 20.4554 21.8298H6.70906C7.43305 23.0977 10.0684 23.9185 13.5812 23.9185ZM7.67141 25.7049H19.493C20.6616 25.7049 20.7762 24.357 19.9191 23.9942L17.3047 22.8104H9.83447L7.24321 23.9942C6.39243 24.3655 6.50071 25.7049 7.67141 25.7049Z" fill="black"/>
</svg>
