<svg width="28" height="28" viewBox="0 0 28 28" fill="none" xmlns="http://www.w3.org/2000/svg">
<path d="M21.5367 8.98621C22.3158 8.96278 22.9702 8.32223 22.9702 7.54105C22.9702 6.75027 22.3158 6.08629 21.5367 6.08629C20.7673 6.08629 20.1012 6.75449 20.1012 7.54105C20.1012 8.32223 20.7673 8.99793 21.5367 8.98621ZM21.5367 15.3709C22.3158 15.3495 22.9702 14.7069 22.9702 13.9278C22.9702 13.137 22.3158 12.473 21.5367 12.473C20.7673 12.473 20.1012 13.1413 20.1012 13.9278C20.1012 14.7069 20.7673 15.3847 21.5367 15.3709ZM21.5367 21.7555C22.3158 21.7342 22.9702 21.0915 22.9702 20.3124C22.9702 19.5195 22.3158 18.8556 21.5367 18.8556C20.7673 18.8556 20.1012 19.5259 20.1012 20.3124C20.1012 21.0915 20.7673 21.7672 21.5367 21.7555ZM26.6512 11.7232V9.77231H1.13273V11.7232H26.6512ZM26.6512 18.1292V16.1783H1.13273V18.1292H26.6512ZM3.84421 24.8781H23.9109C26.4499 24.8781 27.7552 23.5824 27.7552 21.0819V6.81004C27.7552 4.30739 26.4499 3.00427 23.9109 3.00427H3.84421C1.31484 3.00427 0 4.30739 0 6.81004V21.0819C0 23.5824 1.31484 24.8781 3.84421 24.8781ZM3.97733 22.5821C2.88772 22.5821 2.29592 22.018 2.29592 20.8794V7.01043C2.29592 5.87183 2.88772 5.30019 3.97733 5.30019H23.7778C24.8578 5.30019 25.4592 5.87183 25.4592 7.01043V20.8794C25.4592 22.018 24.8578 22.5821 23.7778 22.5821H3.97733Z" fill="black"/>
</svg>
