<svg width="30" height="28" viewBox="0 0 30 28" fill="none" xmlns="http://www.w3.org/2000/svg">
<path d="M19.3713 27.787C26.0172 27.787 29.0411 25.4248 29.0411 20.0864V11.0123C29.0411 8.93578 28.5644 7.38 27.745 6.29157C27.4343 5.87251 26.9004 5.80688 26.4265 6.12399C25.1707 7.09149 22.3043 7.87407 19.3713 7.87407C16.448 7.87407 13.5815 7.09149 12.3258 6.12399C11.8519 5.80688 11.318 5.87251 11.0072 6.29157C10.1878 7.38 9.70898 8.93578 9.70898 11.0123V20.0864C9.70898 25.4248 12.735 27.787 19.3713 27.787Z" fill="black"/>
<path d="M2.86523 20.8043H8.03859V17.9822C7.91906 17.9939 7.80703 17.9939 7.6875 17.9939C5.29851 17.9939 3.35812 16.0652 3.35812 13.6666C3.35812 11.2638 5.29851 9.36819 7.6875 9.34686C7.83047 9.34686 7.95 9.36608 8.10047 9.37569C8.16445 8.74288 8.27742 8.1389 8.42344 7.57335C8.20265 7.65444 7.96054 7.69288 7.69921 7.69288C6.30351 7.69288 5.15812 6.59015 5.16773 5.18273C5.17734 3.78491 6.30351 2.65874 7.69921 2.65874C8.74804 2.65874 9.62953 3.31991 9.95742 4.22507C9.97547 4.29328 9.9893 4.36898 9.99562 4.43296C11.1375 3.15398 12.7809 2.26148 15.1537 1.78664V1.6425C14.8048 0.555937 13.9146 0 12.5119 0H2.86523C0.978278 0 0 0.987888 0 2.88656V17.9081C0 19.826 0.987888 20.8043 2.86523 20.8043ZM7.6875 6.375C8.35078 6.375 8.88188 5.84179 8.88188 5.18273C8.88188 4.51733 8.36039 3.99795 7.6875 3.99795C7.03804 3.99795 6.49312 4.51944 6.49312 5.18273C6.49312 5.84179 7.02632 6.375 7.6875 6.375ZM7.6875 15.4045C7.80703 15.4045 7.92867 15.3832 8.03859 15.364V11.963C7.92867 11.9437 7.80703 11.9341 7.6875 11.9341C6.73218 11.9341 5.9571 12.6858 5.9571 13.6666C5.9571 14.6294 6.73218 15.4045 7.6875 15.4045ZM19.3608 6.25805C22.421 6.25805 24.8435 5.62711 24.8435 4.74539C24.8435 3.84235 22.4231 3.22313 19.3608 3.22313C16.3291 3.22313 13.9087 3.84235 13.9087 4.74539C13.9087 5.62711 16.3312 6.25805 19.3608 6.25805Z" fill="black"/>
</svg>
