<svg width="28" height="28" viewBox="0 0 28 28" fill="none" xmlns="http://www.w3.org/2000/svg">
<path d="M2.85011 16.2482H3.98824V13.6649H2.85011V16.2482ZM8.35722 27.3273C9.86003 27.3273 10.5756 25.9248 9.74707 24.4403L5.3748 16.7048C4.99347 16.0434 4.40144 15.7251 3.67301 15.7251C2.55246 15.7251 1.92949 16.5454 2.00637 17.6774C2.19856 19.1015 3.22887 21.5242 4.48159 23.4704C6.20285 26.3116 7.23105 27.3273 8.35722 27.3273ZM25.6414 16.2482V13.6649H24.5033V16.2482H25.6414ZM20.1322 27.3273C21.2605 27.3273 22.2887 26.3116 24.01 23.4704C25.2531 21.5242 26.293 19.1015 26.4852 17.6774C26.5621 16.5454 25.937 15.7251 24.8185 15.7251C24.0901 15.7251 23.4981 16.0434 23.1167 16.7048L18.7445 24.4403C17.9064 25.9248 18.6315 27.3273 20.1322 27.3273ZM2.33777 13.548C2.33777 14.1557 2.75683 14.563 3.36668 14.563C3.97652 14.563 4.37003 14.1578 4.37003 13.548C4.41808 7.30751 8.19034 3.32079 14.241 3.32079C20.3012 3.32079 24.0639 7.30751 24.1119 13.548C24.1119 14.1578 24.515 14.563 25.1228 14.563C25.7347 14.563 26.1442 14.1557 26.1442 13.548C26.1442 6.26104 21.606 1.27893 14.241 1.27893C6.87597 1.27893 2.33777 6.26104 2.33777 13.548Z" fill="black"/>
<path d="M11.9749 24.929C12.7692 24.4785 12.979 23.4848 12.4732 22.6L8.56408 15.6822C8.05619 14.7974 7.10393 14.4864 6.31502 14.9432C5.82002 15.2104 5.71455 15.6735 5.9658 16.1111L10.7899 24.6128C11.055 25.0726 11.5001 25.1962 11.9749 24.929ZM16.5164 24.929C16.9913 25.1962 17.4363 25.0726 17.6918 24.6128L22.5159 16.1111C22.7768 15.6735 22.6713 15.2104 22.1763 14.9432C21.3778 14.4864 20.4352 14.7974 19.9177 15.6822L16.0085 22.6C15.5027 23.4848 15.7221 24.4785 16.5164 24.929ZM7.37604 7.57187C9.28736 6.5289 11.5416 6.01961 14.2409 6.02171C16.9498 6.01961 19.204 6.5289 21.1057 7.57187C19.6001 5.54617 17.3538 4.50906 14.2409 4.51117C11.1375 4.50906 8.89127 5.54617 7.37604 7.57187Z" fill="black"/>
</svg>
