<svg width="28" height="28" viewBox="0 0 28 28" fill="none" xmlns="http://www.w3.org/2000/svg">
<path d="M14.105 26.2301C20.7369 26.2301 26.2121 20.7549 26.2121 14.123C26.2121 7.50291 20.7273 2.01807 14.0954 2.01807C7.47523 2.01807 2 7.50291 2 14.123C2 20.7549 7.48484 26.2301 14.105 26.2301Z" fill="black"/>
<path d="M9.4519 19.823V8.42844C9.4519 7.27696 10.2603 6.50586 11.4607 6.50586H16.7513C17.9497 6.50586 18.7601 7.27696 18.7601 8.42844V19.823C18.7601 20.9649 17.9497 21.7477 16.7513 21.7477H11.4607C10.2603 21.7477 9.4519 20.9649 9.4519 19.823ZM10.7621 19.1877H17.45V9.06383H10.7621V19.1877ZM14.1188 20.963C14.4469 20.963 14.7165 20.6839 14.7165 20.3419C14.7165 20.0117 14.4469 19.723 14.1188 19.723C13.7769 19.723 13.4956 20.0117 13.4956 20.3419C13.4956 20.6839 13.7769 20.963 14.1188 20.963ZM12.6969 7.83383C12.6969 7.99578 12.8237 8.12258 12.9877 8.12258H15.234C15.4001 8.12258 15.5152 7.99578 15.5152 7.83383C15.5152 7.64633 15.4001 7.54297 15.234 7.54297H12.9877C12.8237 7.54297 12.6969 7.64633 12.6969 7.83383Z" fill="white"/>
</svg>
