<svg width="28" height="28" viewBox="0 0 28 28" fill="none" xmlns="http://www.w3.org/2000/svg">
<path d="M13.5063 27.2491C17.7953 27.2491 20.3235 25.1686 20.6964 20.9932C21.1258 16.0718 21.1162 11.3353 20.6772 6.06913C20.3331 2.09015 17.7953 0 13.5063 0C9.21721 0 6.6794 2.09015 6.33533 6.06913C5.89635 11.3353 5.88674 16.0718 6.31612 20.9932C6.68901 25.1686 9.21721 27.2491 13.5063 27.2491ZM13.5063 24.9637C10.5719 24.9637 8.84454 23.7129 8.60149 20.9932C8.18172 16.0622 8.19133 11.3236 8.62282 6.06913C8.83493 3.53623 10.5719 2.28537 13.5063 2.28537C16.4427 2.28537 18.1776 3.53623 18.3918 6.06913C18.8212 11.3236 18.8329 16.0622 18.411 20.9932C18.168 23.7129 16.4427 24.9637 13.5063 24.9637ZM13.5063 22.1151C13.8716 22.1151 13.942 22.293 14.2392 22.293C14.5534 22.293 14.7527 22.0097 14.9423 21.738C15.1649 21.4216 15.2491 21.1148 15.2491 21.1031C15.2374 21.0914 14.6493 20.857 14.6493 20.1869C14.6493 19.5989 15.1063 19.3507 15.1415 19.3176C14.8464 18.8958 14.3756 18.8958 14.2392 18.8958C13.9047 18.8958 13.6352 19.0812 13.4594 19.0812C13.2644 19.0812 13.0141 18.8958 12.719 18.8958C12.1661 18.8958 11.5898 19.3645 11.5898 20.2338C11.5898 20.7963 11.8007 21.3513 12.0606 21.7167C12.2854 22.0448 12.4846 22.293 12.7659 22.293C13.0471 22.293 13.1664 22.1151 13.5063 22.1151ZM14.3074 17.7879C13.8599 17.7879 13.4125 18.2332 13.4125 18.8351C13.942 18.8681 14.4011 18.2801 14.3074 17.7879Z" fill="black"/>
</svg>
