<svg width="28" height="28" viewBox="0 0 28 28" fill="none" xmlns="http://www.w3.org/2000/svg">
<path d="M7.48022 27.936H20.6565C22.7643 27.936 24.1368 26.6115 24.1368 24.5828V4.3628C24.1368 2.33406 22.7643 1 20.6565 1H7.48022C5.3725 1 4 2.33406 4 4.3628V24.5828C4 26.6115 5.3725 27.936 7.48022 27.936ZM7.79053 25.638C6.82913 25.638 6.29592 25.1176 6.29592 24.2052V4.74038C6.29592 3.82584 6.82913 3.29381 7.79053 3.29381H20.3462C21.298 3.29381 21.8409 3.82584 21.8409 4.74038V24.2031C21.8409 25.1155 21.298 25.638 20.3462 25.638H7.79053Z" fill="black"/>
<path d="M9.6871 12.1368H18.4635C19.0825 12.1368 19.5044 11.7245 19.5044 11.0704V8.51806C19.5044 7.86392 19.0825 7.45166 18.4635 7.45166H9.6871C9.06601 7.45166 8.64624 7.86392 8.64624 8.51806V11.0704C8.64624 11.7245 9.06601 12.1368 9.6871 12.1368ZM9.6871 21.4609H18.4635C19.0825 21.4609 19.5044 21.0391 19.5044 20.3945V17.8326C19.5044 17.188 19.0825 16.7662 18.4635 16.7662H9.6871C9.06601 16.7662 8.64624 17.188 8.64624 17.8326V20.3945C8.64624 21.0391 9.06601 21.4609 9.6871 21.4609Z" fill="black"/>
</svg>
