<svg width="28" height="28" viewBox="0 0 28 28" fill="none" xmlns="http://www.w3.org/2000/svg">
<path d="M14.105 26.2301C20.7369 26.2301 26.2121 20.7549 26.2121 14.123C26.2121 7.50291 20.7273 2.01807 14.0954 2.01807C7.47523 2.01807 2 7.50291 2 14.123C2 20.7549 7.48484 26.2301 14.105 26.2301Z" fill="black"/>
<path d="M11.7396 20.9771C10.6615 20.9771 9.92017 20.2634 9.92017 19.2205V9.02141C9.92017 7.96883 10.6615 7.26477 11.7396 7.26477H16.4702C17.5526 7.26477 18.2939 7.96883 18.2939 9.02141V19.2205C18.2939 20.2634 17.5526 20.9771 16.4702 20.9771H11.7396ZM11.8833 19.7555H16.3308C16.8309 19.7555 17.1145 19.4698 17.1145 18.9943V9.23797C17.1145 8.76242 16.8309 8.48843 16.3308 8.48843H15.5243C15.4368 8.48843 15.39 8.53531 15.39 8.62484V8.7739C15.39 9.05515 15.2163 9.25765 14.9393 9.25765H13.2747C12.9956 9.25765 12.8219 9.05515 12.8219 8.7739V8.62484C12.8219 8.54492 12.7943 8.48843 12.678 8.48843H11.8833C11.381 8.48843 11.0974 8.76031 11.0974 9.23586V18.9964C11.0974 19.4741 11.381 19.7555 11.8833 19.7555ZM12.7624 19.2784C12.5674 19.2784 12.4343 19.1495 12.4343 18.9502C12.4343 18.7552 12.5674 18.6221 12.7624 18.6221H15.4687C15.6541 18.6221 15.7776 18.7552 15.7776 18.9502C15.7776 19.1495 15.6541 19.2784 15.4687 19.2784H12.7624Z" fill="white"/>
<path d="M8.8756 16.1511C8.68388 16.3864 8.34099 16.3822 8.13005 16.1255C7.68989 15.5682 7.44263 14.8744 7.44263 14.1209C7.44263 13.377 7.68989 12.6737 8.13005 12.128C8.34099 11.8693 8.68388 11.8555 8.8756 12.0908C9.04388 12.2921 8.99161 12.5307 8.802 12.7852C8.52802 13.137 8.382 13.6072 8.382 14.1209C8.382 14.6347 8.52802 15.0952 8.802 15.4566C8.99161 15.7133 9.04388 15.9498 8.8756 16.1511ZM19.3013 16.1511C19.133 15.9498 19.1853 15.7133 19.3749 15.4566C19.6489 15.0952 19.8045 14.6347 19.8045 14.1209C19.8045 13.6072 19.6489 13.137 19.3749 12.7852C19.1853 12.5307 19.133 12.2921 19.3013 12.0908C19.493 11.8555 19.8455 11.8693 20.0469 12.128C20.487 12.6737 20.7439 13.377 20.7439 14.1209C20.7439 14.8744 20.487 15.5682 20.0469 16.1255C19.8455 16.3822 19.493 16.3864 19.3013 16.1511Z" fill="white"/>
<path d="M7.17595 17.5824C7.00977 17.8072 6.69032 17.8072 6.44962 17.5728C5.60657 16.6531 5.15259 15.4222 5.15259 14.1209C5.15259 12.8293 5.60657 11.5984 6.44962 10.6712C6.69032 10.4347 7.00977 10.4347 7.17595 10.6594C7.34423 10.8608 7.29946 11.1195 7.10352 11.3602C6.42876 12.117 6.06852 13.0763 6.06852 14.1209C6.06852 15.1655 6.42876 16.127 7.10352 16.8816C7.29946 17.1223 7.34423 17.3907 7.17595 17.5824ZM21.001 17.5824C20.8327 17.3907 20.8775 17.1223 21.083 16.8816C21.7482 16.127 22.118 15.1655 22.118 14.1209C22.118 13.0763 21.7482 12.117 21.083 11.3602C20.8775 11.1195 20.8327 10.8608 21.001 10.6594C21.1789 10.4347 21.4962 10.4347 21.7273 10.6712C22.5704 11.5984 23.034 12.8293 23.034 14.1209C23.034 15.4222 22.5704 16.6531 21.7273 17.5728C21.4962 17.8072 21.1789 17.8072 21.001 17.5824Z" fill="white"/>
</svg>
