<svg width="28" height="28" viewBox="0 0 28 28" fill="none" xmlns="http://www.w3.org/2000/svg">
<path d="M7.96514 26.8881H20.6031C22.2644 26.8881 23.0861 26.1358 23.0861 24.4148V22.3968H23.9052C26.2853 22.3968 27.5683 21.164 27.5683 18.7818V9.3545C27.5683 6.97232 26.2853 5.7299 23.9052 5.7299H4.65343C2.38117 5.7299 1 6.97232 1 9.3545V18.7818C1 21.164 2.28297 22.3968 4.65343 22.3968H5.48429V24.4148C5.48429 26.1358 6.3039 26.8881 7.96514 26.8881ZM8.75288 24.8751C8.18335 24.8751 7.90186 24.5957 7.90186 24.0241V15.5026C7.90186 14.9406 8.19296 14.6633 8.75288 14.6633H19.8271C20.387 14.6633 20.6664 14.9406 20.6664 15.5026V24.0241C20.6664 24.5957 20.387 24.8751 19.8271 24.8751H8.75288ZM5.7482 4.05741H22.8201V3.88561C22.8201 2.11537 21.3923 1.29553 19.4369 1.29553H9.1314C7.24749 1.29553 5.7482 2.11537 5.7482 3.88561V4.05741ZM10.7277 17.7407C11.3242 17.7407 11.811 17.271 11.811 16.667C11.811 16.0705 11.3242 15.6008 10.7277 15.6008C10.143 15.6008 9.65405 16.0705 9.65405 16.667C9.65405 17.271 10.143 17.7407 10.7277 17.7407ZM10.7277 20.8621C11.3242 20.8621 11.811 20.3945 11.811 19.798C11.811 19.2037 11.3242 18.7244 10.7277 18.7244C10.143 18.7244 9.65405 19.2037 9.65405 19.798C9.65405 20.3945 10.143 20.8621 10.7277 20.8621ZM10.7277 23.9952C11.3242 23.9952 11.811 23.5277 11.811 22.9216C11.811 22.3251 11.3242 21.8575 10.7277 21.8575C10.143 21.8575 9.65405 22.3251 9.65405 22.9216C9.65405 23.5277 10.143 23.9952 10.7277 23.9952ZM17.8586 17.7407C18.453 17.7407 18.9323 17.271 18.9323 16.667C18.9323 16.0705 18.453 15.6008 17.8586 15.6008C17.2621 15.6008 16.7849 16.0705 16.7849 16.667C16.7849 17.271 17.2621 17.7407 17.8586 17.7407ZM17.8586 20.8621C18.453 20.8621 18.9323 20.3945 18.9323 19.798C18.9323 19.2037 18.453 18.7244 17.8586 18.7244C17.2621 18.7244 16.7849 19.2037 16.7849 19.798C16.7849 20.4009 17.2621 20.8621 17.8586 20.8621ZM17.8586 23.9952C18.453 23.9952 18.9323 23.5277 18.9323 22.9216C18.9323 22.3251 18.453 21.8575 17.8586 21.8575C17.2621 21.8575 16.7849 22.3251 16.7849 22.9216C16.7849 23.5277 17.2621 23.9952 17.8586 23.9952ZM19.8756 9.7881C19.8756 8.95208 20.5881 8.22786 21.4455 8.22786C22.2719 8.22786 22.9961 8.95208 22.9961 9.7881C22.9961 10.6475 22.274 11.3249 21.4455 11.3366C20.586 11.3387 19.8756 10.6572 19.8756 9.7881Z" fill="black"/>
</svg>
