<svg width="31" height="28" viewBox="0 0 31 28" fill="none" xmlns="http://www.w3.org/2000/svg">
<path d="M5.35756 19.4417C5.87201 19.4417 6.27678 19.0273 6.27678 18.5033V10.1469C6.27678 9.64412 5.87201 9.22975 5.35756 9.22975C4.83561 9.22975 4.42873 9.64412 4.42873 10.1469V18.5033C4.42873 19.0252 4.83561 19.4417 5.35756 19.4417ZM8.90741 18.8103C9.44108 18.8103 9.86507 18.3704 9.86507 17.8304C9.86507 17.3084 9.43897 16.8631 8.90741 16.8631C8.38335 16.8631 7.93593 17.3084 7.93593 17.8304C7.93593 18.3704 8.37913 18.8103 8.90741 18.8103ZM11.9775 18.8103C12.4973 18.8103 12.9351 18.3683 12.9351 17.8304C12.9351 17.3084 12.4994 16.8631 11.9775 16.8631C11.4438 16.8631 11.0039 17.3084 11.0039 17.8304C11.0039 18.3683 11.4438 18.8103 11.9775 18.8103ZM15.056 18.8103C15.5759 18.8103 16.0158 18.3619 16.0158 17.8304C16.0158 17.3126 15.5759 16.8631 15.056 16.8631C14.5181 16.8631 14.0761 17.3105 14.0761 17.8304C14.0761 18.3662 14.5202 18.8103 15.056 18.8103ZM18.1123 18.8103C18.6246 18.8103 19.0645 18.3683 19.0645 17.8304C19.0645 17.3084 18.6246 16.8631 18.1123 16.8631C17.5807 16.8631 17.1546 17.3084 17.1546 17.8304C17.1546 18.3683 17.5828 18.8103 18.1123 18.8103ZM21.1631 18.8103C21.683 18.8103 22.1208 18.3662 22.1208 17.8304C22.1208 17.3105 21.683 16.8631 21.1631 16.8631C20.6295 16.8631 20.2034 17.3084 20.2034 17.8304C20.2034 18.3704 20.6273 18.8103 21.1631 18.8103ZM10.4355 15.3045C10.9692 15.3045 11.3932 14.8646 11.3932 14.3246C11.3932 13.793 10.9671 13.3573 10.4355 13.3573C9.90936 13.3573 9.47366 13.793 9.47366 14.3246C9.47366 14.8646 9.90726 15.3045 10.4355 15.3045ZM13.5056 15.3045C14.0351 15.3045 14.4633 14.8625 14.4633 14.3246C14.4633 13.793 14.0372 13.3573 13.5056 13.3573C12.9698 13.3573 12.532 13.793 12.532 14.3246C12.532 14.8625 12.9698 15.3045 13.5056 15.3045ZM16.5724 15.3045C17.0923 15.3045 17.5343 14.8562 17.5343 14.3246C17.5343 13.7973 17.0923 13.3573 16.5724 13.3573C16.0462 13.3573 15.6042 13.7951 15.6042 14.3246C15.6042 14.8604 16.0484 15.3045 16.5724 15.3045ZM19.6308 15.3045C20.1431 15.3045 20.583 14.8625 20.583 14.3246C20.583 13.793 20.1431 13.3573 19.6308 13.3573C19.0992 13.3573 18.6731 13.793 18.6731 14.3246C18.6731 14.8625 19.1013 15.3045 19.6308 15.3045ZM8.90741 11.8008C9.44108 11.8008 9.86507 11.3609 9.86507 10.8326C9.86507 10.299 9.43897 9.86327 8.90741 9.86327C8.38335 9.86327 7.93593 10.299 7.93593 10.8326C7.93593 11.3609 8.37913 11.8008 8.90741 11.8008ZM11.9775 11.8008C12.4973 11.8008 12.9351 11.3588 12.9351 10.8326C12.9351 10.299 12.4994 9.86327 11.9775 9.86327C11.4438 9.86327 11.0039 10.299 11.0039 10.8326C11.0039 11.3588 11.4438 11.8008 11.9775 11.8008ZM15.056 11.8008C15.5759 11.8008 16.0158 11.3546 16.0158 10.8326C16.0158 10.3053 15.5759 9.86327 15.056 9.86327C14.5181 9.86327 14.0761 10.3011 14.0761 10.8326C14.0761 11.3567 14.5202 11.8008 15.056 11.8008ZM18.1123 11.8008C18.6246 11.8008 19.0645 11.3588 19.0645 10.8326C19.0645 10.299 18.6246 9.86327 18.1123 9.86327C17.5807 9.86327 17.1546 10.299 17.1546 10.8326C17.1546 11.3588 17.5828 11.8008 18.1123 11.8008ZM21.1631 11.8008C21.683 11.8008 22.1208 11.3567 22.1208 10.8326C22.1208 10.3011 21.683 9.86327 21.1631 9.86327C20.6295 9.86327 20.2034 10.299 20.2034 10.8326C20.2034 11.3609 20.6273 11.8008 21.1631 11.8008ZM24.7109 19.4417C25.2211 19.4417 25.6376 19.0252 25.6376 18.5033V10.1469C25.6376 9.64623 25.2211 9.22975 24.7109 9.22975C24.1922 9.22975 23.7799 9.64412 23.7799 10.1469V18.5033C23.7799 19.0273 24.1922 19.4417 24.7109 19.4417ZM3.84421 23.6886H26.2594C28.7909 23.6886 30.1057 22.3855 30.1057 19.8828V8.80577C30.1057 6.30523 28.7909 5 26.2594 5H3.84421C1.30523 5 0 6.30523 0 8.80577V19.8828C0 22.3855 1.30523 23.6886 3.84421 23.6886ZM3.97733 21.3927C2.88772 21.3927 2.29592 20.821 2.29592 19.6824V9.00827C2.29592 7.86756 2.88772 7.29592 3.97733 7.29592H26.1262C27.218 7.29592 27.8098 7.86756 27.8098 9.00827V19.6824C27.8098 20.821 27.2084 21.3927 26.1262 21.3927H3.97733Z" fill="black"/>
</svg>
