<svg width="28" height="28" viewBox="0 0 28 28" fill="none" xmlns="http://www.w3.org/2000/svg">
<path d="M4.22827 21.9194H23.4008C25.3365 21.9194 26.6387 20.5565 26.6387 18.5367V9.31828C26.6387 7.32797 25.3461 6 23.4083 6H4.23999C2.30218 6 1 7.32797 1 9.31828V18.5367C1 20.5565 2.29258 21.9194 4.22827 21.9194ZM4.75866 19.6235C3.86334 19.6235 3.3592 19.0821 3.3592 18.1526V9.76264C3.3592 8.83522 3.86967 8.29592 4.76076 8.29592H22.878C23.769 8.29592 24.2795 8.83522 24.2795 9.76264V18.1526C24.2795 19.0821 23.7754 19.6235 22.8705 19.6235H4.75866Z" fill="black"/>
<path d="M6.69467 16.2152H11.828C12.4566 16.2152 12.8688 15.8029 12.8688 15.1509V12.7493C12.8688 12.1047 12.4566 11.6829 11.828 11.6829H6.69467C6.07358 11.6829 5.65381 12.1047 5.65381 12.7493V15.1509C5.65381 15.8029 6.07358 16.2152 6.69467 16.2152ZM15.8109 16.2152H20.9442C21.5653 16.2152 21.9872 15.8029 21.9872 15.1509V12.7493C21.9872 12.1047 21.5653 11.6829 20.9442 11.6829H15.8109C15.192 11.6829 14.7701 12.1047 14.7701 12.7493V15.1509C14.7701 15.8029 15.192 16.2152 15.8109 16.2152Z" fill="black"/>
</svg>
