<svg width="33" height="28" viewBox="0 0 33 28" fill="none" xmlns="http://www.w3.org/2000/svg">
<path d="M9.41878 24.8344H10.6439C11.6428 24.8344 12.239 24.254 12.239 23.2774V16.9999C12.239 15.5451 12.599 14.8092 13.777 13.774C15.0391 12.6684 15.8433 11.1145 15.8433 9.31988C15.8433 6.11411 13.252 3.52075 10.0324 3.52075C6.81276 3.52075 4.22363 6.11411 4.22363 9.31988C4.22363 11.1145 5.02566 12.6684 6.27816 13.774C7.46784 14.8092 7.82573 15.5451 7.82573 16.9999V23.2774C7.82573 24.254 8.4262 24.8344 9.41878 24.8344ZM11.336 10.8569C10.9615 10.8569 10.6561 10.5536 10.6561 10.1674V7.8227C10.6561 7.45989 10.9615 7.1545 11.336 7.1545C11.7063 7.1545 12.0138 7.45989 12.0138 7.8227V10.1674C12.0138 10.5494 11.7063 10.8569 11.336 10.8569ZM22.5611 24.8344H23.7862C24.7851 24.8344 25.3814 24.254 25.3814 23.2774V16.9999C25.3814 15.615 25.7278 14.8929 26.7124 13.9629C23.8943 13.3966 21.7619 10.8982 21.7619 7.92254C21.7619 6.19286 22.481 4.62934 23.6325 3.52075C23.2835 3.52075 23.2174 3.52075 23.1747 3.52075C19.9551 3.52075 17.366 6.11411 17.366 9.31988C17.366 11.1145 18.1659 12.6684 19.428 13.774C20.6102 14.8092 20.9681 15.5451 20.9681 16.9999V23.2774C20.9681 24.254 21.5686 24.8344 22.5611 24.8344Z" fill="black"/>
<path d="M0 7.92256C0 10.283 1.65328 12.2524 3.86039 12.7399C3.30328 11.7281 2.97515 10.5661 2.97515 9.3199C2.97515 6.74038 4.38117 4.47186 6.46031 3.25265C5.98078 3.08952 5.4682 3.00421 4.94179 3.00421C2.2057 3.00421 0 5.20991 0 7.92256ZM27.9384 12.8547C30.6532 12.8547 32.8685 10.6469 32.8685 7.92256C32.8685 5.20991 30.6532 3.00421 27.9384 3.00421C25.2161 3.00421 23.0083 5.20991 23.0083 7.92256C23.0083 10.6469 25.2161 12.8547 27.9384 12.8547ZM30.3035 10.0162C29.6561 10.0162 29.16 9.09725 29.16 7.92256C29.16 6.77131 29.6561 5.84272 30.3035 5.84272C30.9295 5.84272 31.4257 6.77131 31.4257 7.92256C31.4257 9.09725 30.9295 10.0162 30.3035 10.0162Z" fill="black"/>
</svg>
