<svg width="34" height="28" viewBox="0 0 34 28" fill="none" xmlns="http://www.w3.org/2000/svg">
<path d="M3.23108 22.038H13.7156V19.7969H3.36327C2.58631 19.7969 2.24108 19.4815 2.24108 18.6844V5.4335C2.24108 4.62678 2.58631 4.32092 3.36327 4.32092H26.4185C27.188 4.32092 27.5311 4.62678 27.5311 5.4335V15.8105H29.7743V5.30131C29.7743 3.13663 28.6769 2.07984 26.5528 2.07984H3.23108C1.10695 2.07984 0 3.13663 0 5.30131V18.8069C0 20.9812 1.10695 22.038 3.23108 22.038ZM8.90578 26.1372H13.8863C13.752 25.6015 13.7252 24.9879 13.7252 24.0131H8.90578C8.32476 24.0131 7.84265 24.4961 7.84265 25.0762C7.84265 25.6563 8.32476 26.1372 8.90578 26.1372Z" fill="black"/>
<path d="M18.1737 27.4106H31.3338C33.0504 27.4106 33.9574 26.5132 33.9574 24.7678V20.2877C33.9574 18.5348 33.0504 17.6374 31.3338 17.6374H18.1737C16.4304 17.6374 15.5522 18.5348 15.5522 20.2301V24.7678C15.5522 26.5132 16.4304 27.4106 18.1737 27.4106ZM29.8235 23.2858C29.0081 23.2858 28.3556 22.6237 28.3556 21.8083C28.3556 21.0068 29.0081 20.3543 29.8235 20.3543C30.6251 20.3543 31.2776 21.0068 31.2776 21.8083C31.2776 22.6237 30.6251 23.2858 29.8235 23.2858Z" fill="black"/>
</svg>
