<svg width="28" height="28" viewBox="0 0 28 28" fill="none" xmlns="http://www.w3.org/2000/svg">
<path d="M9.76473 22.7219C8.8277 22.7219 8.2959 22.2177 8.2959 21.3245V4.75868C8.2959 3.86547 8.8277 3.36133 9.76473 3.36133H18.1472C19.0725 3.36133 19.6043 3.86969 19.6043 4.76078V21.3705C19.6043 22.2712 19.0725 22.7219 18.1472 22.7219H9.76473Z" fill="white"/>
<path d="M9.37101 26.6312H18.5798C20.5701 26.6312 21.9002 25.3365 21.9002 23.3987V4.23249C21.9002 2.29258 20.5701 1 18.5798 1H9.37101C7.35117 1 6 2.29258 6 4.23038V23.4008C6 25.3365 7.35117 26.6312 9.37101 26.6312ZM9.76475 22.7219C8.82772 22.7219 8.29592 22.2177 8.29592 21.3245V4.75866C8.29592 3.86545 8.82772 3.36131 9.76475 3.36131H18.1472C19.0725 3.36131 19.6043 3.86967 19.6043 4.76076V21.3705C19.6043 22.2712 19.0725 22.7219 18.1472 22.7219H9.76475ZM12.0668 22.9977H15.843V22.3129C15.843 21.8092 15.5119 21.4567 15.0103 21.4567H12.9091C12.398 21.4567 12.0668 21.8092 12.0668 22.3129V22.9977Z" fill="black"/>
</svg>
