<svg width="28" height="28" viewBox="0 0 28 28" fill="none" xmlns="http://www.w3.org/2000/svg">
<path d="M5 18.726C5 20.5508 5.70641 21.8889 7.04961 22.6597C7.70891 23.0249 8.09867 23.4733 8.34359 24.2415L8.79664 25.603C9.04249 26.3678 9.61202 26.7501 10.4309 26.7501H15.9146C16.7548 26.7501 17.2934 26.3774 17.5393 25.603L18.0019 24.2415C18.2469 23.4733 18.6387 23.0249 19.2959 22.6597C20.637 21.8889 21.3455 20.553 21.3455 18.726V9.02405C21.3455 7.1971 20.637 5.87077 19.2959 5.09031C18.6387 4.72515 18.2469 4.27468 18.0019 3.51812L17.5393 2.14703C17.3148 1.39187 16.7452 1 15.9146 1H10.4309C9.61202 1 9.04249 1.38226 8.79664 2.14703L8.34359 3.51812C8.10195 4.27351 7.70797 4.74531 7.04961 5.09031C5.71602 5.83984 5 7.17788 5 9.02405V18.726ZM7.03788 18.3597V9.39999C7.03788 7.68764 8.02577 6.66248 9.69663 6.66248H16.651C18.3198 6.66248 19.3119 7.68975 19.3119 9.39999V18.3597C19.3119 20.0603 18.3198 21.0855 16.651 21.0855H9.69663C8.02577 21.0855 7.03788 20.0624 7.03788 18.3597ZM20.9612 13.09H21.4484C22.1105 13.09 22.5533 12.6355 22.5533 11.9148V10.3117C22.5533 9.59523 22.1105 9.13867 21.4484 9.13867H20.9612V13.09Z" fill="black"/>
<path d="M9.03027 16.8573C9.03027 17.5422 9.3584 17.882 10.0018 17.882H14.0304C14.6738 17.882 15.0019 17.5422 15.0019 16.8573V13.7798C15.0019 13.097 14.6738 12.7647 14.0304 12.7647H10.0018C9.3584 12.7647 9.03027 13.097 9.03027 13.7798V16.8573ZM13.0184 13.4106H14.2482V11.8192C14.2482 10.9816 14.6916 10.4444 15.4695 10.4444C16.2453 10.4444 16.6909 10.9816 16.6909 11.8192V12.5795C16.6909 12.9287 16.9634 13.2013 17.3126 13.2013C17.6384 13.2013 17.9206 12.9287 17.9206 12.5795V11.8192C17.9206 10.3237 16.9533 9.24554 15.4695 9.24554C13.9739 9.24554 13.0184 10.3237 13.0184 11.912V13.4106Z" fill="black"/>
</svg>
