<svg width="30" height="28" viewBox="0 0 30 28" fill="none" xmlns="http://www.w3.org/2000/svg">
<path d="M3.84421 23.948H25.9999C28.5218 23.948 29.8462 22.6449 29.8462 20.1423V8.79616C29.8462 6.30523 28.5218 5 25.9999 5H3.84421C1.30523 5 0 6.29562 0 8.79616V20.1423C0 22.6449 1.30523 23.948 3.84421 23.948Z" fill="black"/>
<path d="M11.2668 11.6982C11.0411 11.6982 10.892 11.5374 10.892 11.2989V9.88252C10.892 9.63221 11.0411 9.48315 11.2668 9.48315H12.1543C12.3779 9.48315 12.527 9.63221 12.527 9.88252V11.2989C12.527 11.5374 12.3779 11.6982 12.1543 11.6982H11.2668ZM13.9037 11.6982C13.678 11.6982 13.5172 11.5374 13.5172 11.2989V9.88252C13.5172 9.63221 13.678 9.48315 13.9037 9.48315H14.7817C15.0053 9.48315 15.1543 9.63221 15.1543 9.88252V11.2989C15.1543 11.5374 15.0053 11.6982 14.7817 11.6982H13.9037ZM16.5365 11.6982C16.2936 11.6982 16.1542 11.5374 16.1542 11.2989V9.88252C16.1542 9.63221 16.2936 9.48315 16.5365 9.48315H17.4144C17.6305 9.48315 17.7913 9.63221 17.7913 9.88252V11.2989C17.7913 11.5374 17.6305 11.6982 17.4144 11.6982H16.5365ZM19.1638 11.6982C18.9189 11.6982 18.7773 11.5374 18.7773 11.2989V9.88252C18.7773 9.63221 18.9189 9.48315 19.1638 9.48315H20.0226C20.2654 9.48315 20.4048 9.63221 20.4048 9.88252V11.2989C20.4048 11.5374 20.2654 11.6982 20.0226 11.6982H19.1638ZM21.7984 11.6982C21.5622 11.6982 21.4143 11.5374 21.4143 11.2989V9.88252C21.4143 9.63221 21.5622 9.48315 21.7984 9.48315H22.667C22.8906 9.48315 23.0418 9.63221 23.0418 9.88252V11.2989C23.0418 11.5374 22.8906 11.6982 22.667 11.6982H21.7984ZM24.4239 11.6982C24.1811 11.6982 24.0416 11.5374 24.0416 11.2989V9.88252C24.0416 9.63221 24.1811 9.48315 24.4239 9.48315H25.2826C25.5276 9.48315 25.667 9.63221 25.667 9.88252V11.2989C25.667 11.5374 25.5276 11.6982 25.2826 11.6982H24.4239ZM11.2668 15.5687C11.0411 15.5687 10.892 15.4292 10.892 15.1672V13.7626C10.892 13.5006 11.0411 13.3611 11.2668 13.3611H12.1543C12.3779 13.3611 12.527 13.5006 12.527 13.7626V15.1672C12.527 15.4292 12.3779 15.5687 12.1543 15.5687H11.2668ZM13.9037 15.5687C13.678 15.5687 13.5172 15.4292 13.5172 15.1672V13.7626C13.5172 13.5006 13.678 13.3611 13.9037 13.3611H14.7817C15.0053 13.3611 15.1543 13.5006 15.1543 13.7626V15.1672C15.1543 15.4292 15.0053 15.5687 14.7817 15.5687H13.9037ZM16.5365 15.5687C16.2936 15.5687 16.1542 15.4292 16.1542 15.1672V13.7626C16.1542 13.5006 16.2936 13.3611 16.5365 13.3611H17.4144C17.6305 13.3611 17.7913 13.5006 17.7913 13.7626V15.1672C17.7913 15.4292 17.6305 15.5687 17.4144 15.5687H16.5365ZM19.1638 15.5687C18.9189 15.5687 18.7773 15.4292 18.7773 15.1672V13.7626C18.7773 13.5006 18.9189 13.3611 19.1638 13.3611H20.0226C20.2654 13.3611 20.4048 13.5006 20.4048 13.7626V15.1672C20.4048 15.4292 20.2654 15.5687 20.0226 15.5687H19.1638ZM21.7984 15.5687C21.5622 15.5687 21.4143 15.4292 21.4143 15.1672V13.7626C21.4143 13.5006 21.5622 13.3611 21.7984 13.3611H22.667C22.8906 13.3611 23.0418 13.5006 23.0418 13.7626V15.1672C23.0418 15.4292 22.8906 15.5687 22.667 15.5687H21.7984ZM24.4239 15.5687C24.1811 15.5687 24.0416 15.4292 24.0416 15.1672V13.7626C24.0416 13.5006 24.1811 13.3611 24.4239 13.3611H25.2826C25.5276 13.3611 25.667 13.5006 25.667 13.7626V15.1672C25.667 15.4292 25.5276 15.5687 25.2826 15.5687H24.4239ZM11.2668 19.4466C11.0411 19.4466 10.892 19.2976 10.892 19.0473V17.6309C10.892 17.3923 11.0411 17.2316 11.2668 17.2316H12.1543C12.3779 17.2316 12.527 17.3923 12.527 17.6309V19.0473C12.527 19.2976 12.3779 19.4466 12.1543 19.4466H11.2668ZM13.9037 19.4466C13.678 19.4466 13.5172 19.2976 13.5172 19.0473V17.6309C13.5172 17.3923 13.678 17.2316 13.9037 17.2316H22.667C22.8906 17.2316 23.0418 17.3923 23.0418 17.6309V19.0473C23.0418 19.2976 22.8906 19.4466 22.667 19.4466H13.9037ZM24.4239 19.4466C24.1811 19.4466 24.0416 19.2976 24.0416 19.0473V17.6309C24.0416 17.3923 24.1811 17.2316 24.4239 17.2316H25.2826C25.5276 17.2316 25.667 17.3923 25.667 17.6309V19.0473C25.667 19.2976 25.5276 19.4466 25.2826 19.4466H24.4239ZM8.79225 13.7553C9.26287 14.192 9.26287 14.7465 8.79225 15.181L5.35443 18.3999C4.89787 18.8204 4.16943 18.6406 4.16943 17.9633V10.9773C4.16943 10.3074 4.89787 10.1298 5.35443 10.5481L8.79225 13.7553Z" fill="white"/>
</svg>
