<svg width="28" height="28" viewBox="0 0 28 28" fill="none" xmlns="http://www.w3.org/2000/svg">
<path d="M15.5549 14.0691C15.5549 21.3584 17.8579 26.1383 21.4253 26.1383C24.9927 26.1383 27.3053 21.3584 27.3053 14.0691C27.3053 6.77023 24.9927 2 21.4253 2C17.8579 2 15.5549 6.77023 15.5549 14.0691ZM17.8023 14.0691C17.8023 8.18327 19.2615 4.29592 21.4253 4.29592C23.5912 4.29592 25.0579 8.18327 25.0579 14.0691C25.0579 19.9454 23.5912 23.8402 21.4253 23.8402C19.2615 23.8402 17.8023 19.9454 17.8023 14.0691ZM9.44385 14.0691C9.44385 21.5879 11.6106 26.1383 16.6684 26.1383H21.4253V23.8402H16.6684C13.0937 23.8402 11.7397 20.1439 11.7397 14.0691C11.7397 7.99436 13.0937 4.29592 16.6684 4.29592H21.4253V2H16.6684C11.6106 2 9.44385 6.54078 9.44385 14.0691ZM15.2697 7.54271H17.4168V5.9274H15.2697C14.8267 5.9274 14.4562 6.29795 14.4562 6.74092C14.4562 7.18388 14.8246 7.54271 15.2697 7.54271ZM14.5066 11.0138H16.6558V9.39428H14.5066C14.0615 9.39428 13.693 9.75311 13.693 10.1982C13.693 10.6433 14.0615 11.0138 14.5066 11.0138ZM14.2124 14.7535H16.3616V13.1382H14.2124C13.7673 13.1382 13.4106 13.5066 13.4106 13.9517C13.4106 14.3947 13.7673 14.7535 14.2124 14.7535ZM14.5066 18.507H16.6558V16.8875H14.5066C14.0615 16.8875 13.693 17.258 13.693 17.7031C13.693 18.1482 14.0615 18.507 14.5066 18.507ZM15.2697 21.9739H17.4168V20.3586H15.2697C14.8246 20.3586 14.4562 20.7174 14.4562 21.1625C14.4562 21.6034 14.8267 21.9739 15.2697 21.9739Z" fill="black"/>
<path d="M3.85891 4.33978C3.44829 4.33978 3.01634 4.53548 2.84829 5.02908C2.06642 7.36111 1.62322 9.97556 1.62322 12.6774C1.62322 15.433 2.07368 18.098 2.90314 20.4554L4.88476 19.7598C4.12445 17.6131 3.71336 15.2 3.71336 12.6774C3.71336 10.2001 4.10336 7.83548 4.82781 5.7247C5.13203 4.8854 4.50133 4.33978 3.85891 4.33978ZM0.679859 19.0925C-0.182635 19.3895 -0.188026 20.4322 0.457909 20.8449L4.24423 23.263C4.83673 23.6415 5.52368 23.4073 5.75008 22.7743L7.25617 18.5558C7.50718 18.1908 6.90883 16.9557 6.00789 17.2623L0.679859 19.0925Z" fill="black"/>
</svg>
