<svg width="28" height="28" viewBox="0 0 28 28" fill="none" xmlns="http://www.w3.org/2000/svg">
<path d="M19.2315 18.3555C20.7961 18.3555 22.4897 17.4267 22.8572 15.4242L23.4825 12.0314C24.1397 8.45367 21.428 5.7982 17.0949 4.29844C14.5215 3.40476 12.0045 3 9.46203 3C8.69726 3 8.43945 3.27375 8.43945 3.77227C8.43945 4.99617 9.07648 5.92172 10.3109 6.0975C12.3252 6.40429 13.918 6.82593 15.4789 7.58226C16.1138 7.88156 16.3599 8.33835 16.2385 9.02085L15.4747 13.6305C15.0347 16.2944 16.8242 18.3555 19.2315 18.3555ZM19.223 16.5773C18.1079 16.5773 17.2196 15.6848 17.2196 14.5739C17.2196 13.4587 18.1079 12.5683 19.223 12.5683C20.3382 12.5683 21.2264 13.4491 21.2264 14.5739C21.2264 15.6944 20.3382 16.5773 19.223 16.5773ZM19.223 15.6841C19.8474 15.6841 20.3332 15.1941 20.3332 14.5739C20.3332 13.9591 19.8474 13.4616 19.223 13.4616C18.5986 13.4616 18.1128 13.9591 18.1128 14.5739C18.1128 15.1941 18.5986 15.6841 19.223 15.6841ZM19.2315 19.5766C15.9938 19.5766 13.7094 16.7618 14.277 13.4304L14.7319 10.6774C12.2473 11.3241 10.4288 12.3905 9.64179 14.0194C10.3309 17.0719 11.4364 19.8975 12.9882 22.6038C13.7244 22.9662 14.4957 23.1026 15.5365 23.1026C19.5697 23.1026 23.1603 21.1467 23.4507 17.2591C22.5945 18.6794 21.035 19.5766 19.2315 19.5766Z" fill="black"/>
<path d="M4 19.0106C4 22.0474 6.03531 24.104 9.06039 24.104C10.2777 24.104 11.3242 23.7258 11.9751 23.2835C10.3263 20.4429 9.15039 17.3946 8.40906 14.1588C6.14781 14.3878 4 16.2337 4 19.0106Z" fill="black"/>
<path d="M19.2231 16.5773C18.108 16.5773 17.2197 15.6848 17.2197 14.5739C17.2197 13.4587 18.108 12.5684 19.2231 12.5684C20.3383 12.5684 21.2265 13.4491 21.2265 14.5739C21.2265 15.6944 20.3383 16.5773 19.2231 16.5773ZM19.2231 15.6841C19.8475 15.6841 20.3333 15.1941 20.3333 14.5739C20.3333 13.9591 19.8475 13.4616 19.2231 13.4616C18.5987 13.4616 18.1129 13.9591 18.1129 14.5739C18.1129 15.1941 18.5987 15.6841 19.2231 15.6841Z" fill="white"/>
</svg>
