<svg width="28" height="28" viewBox="0 0 28 28" fill="none" xmlns="http://www.w3.org/2000/svg">
<path d="M4.6778 23.3109H7.10147V21.2355H4.67546C3.70421 21.2355 3.20639 20.7302 3.20639 19.7664V8.81475C3.20639 7.851 3.70421 7.34146 4.67546 7.34146H24.1148C25.0764 7.34146 25.5838 7.851 25.5838 8.81475V19.7664C25.5838 20.7302 25.0764 21.2355 24.1148 21.2355H21.8559V23.3109H24.1124C26.4934 23.3109 27.7806 22.0717 27.7806 19.6811V8.89795C27.7806 6.51694 26.4934 5.26819 24.1124 5.26819H4.6778C2.38539 5.26819 1 6.51694 1 8.89795V19.6811C1 22.0717 2.28718 23.3109 4.6778 23.3109ZM8.36592 26.9073H20.4147C22.0759 26.9073 22.8955 26.1454 22.8955 24.4244V15.1867C22.8955 13.4678 22.0759 12.7059 20.4147 12.7059H8.36592C6.76444 12.7059 5.88507 13.4678 5.88507 15.1867V24.4244C5.88507 26.1454 6.70468 26.9073 8.36592 26.9073ZM8.85905 24.8847C8.29913 24.8847 8.00803 24.6053 8.00803 24.0337V15.5699C8.00803 14.9983 8.29913 14.7306 8.85905 14.7306H19.9312C20.5007 14.7306 20.7726 14.9983 20.7726 15.5699V24.0337C20.7726 24.6053 20.5007 24.8847 19.9312 24.8847H8.85905ZM5.7482 6.35874H7.88733V4.47601C7.88733 3.58866 8.34694 3.15038 9.22046 3.15038H19.5602C20.4433 3.15038 20.8933 3.58866 20.8933 4.47601V6.33952H23.0324V4.63866C23.0324 2.25859 21.8493 1.17578 19.5578 1.17578H9.2228C7.02953 1.17578 5.7482 2.25859 5.7482 4.63866V6.35874ZM10.5196 18.61H18.2962C18.7443 18.61 19.0827 18.2619 19.0827 17.8021C19.0827 17.3657 18.7443 17.0294 18.2962 17.0294H10.5196C10.0576 17.0294 9.71171 17.3657 9.71171 17.8021C9.71171 18.2619 10.0597 18.61 10.5196 18.61ZM10.5196 22.5986H18.2962C18.7443 22.5986 19.0827 22.2526 19.0827 21.8141C19.0827 21.3639 18.7443 21.0159 18.2962 21.0159H10.5196C10.0597 21.0159 9.71171 21.3639 9.71171 21.8141C9.71171 22.2526 10.0576 22.5986 10.5196 22.5986ZM19.9162 10.0387C19.9162 10.8885 20.617 11.5583 21.4497 11.5583C22.2665 11.5583 22.9598 10.8885 22.9598 10.0387C22.9598 9.23147 22.2644 8.52858 21.4497 8.52858C20.6191 8.52858 19.9162 9.23147 19.9162 10.0387Z" fill="black"/>
</svg>
