<svg width="29" height="28" viewBox="0 0 29 28" fill="none" xmlns="http://www.w3.org/2000/svg">
<path d="M0 19.2525C0 20.8753 1.32492 22.2003 2.94561 22.2003C4.04951 22.2003 5.02357 21.5677 5.51506 20.6541L22.9507 25.7546C23.3037 26.9534 24.4277 27.8297 25.7519 27.8297C27.3609 27.8297 28.6858 26.5144 28.6858 24.8916C28.6858 23.7047 27.9682 22.6786 26.9611 22.2265L26.4761 10.7389C27.5282 10.3114 28.2759 9.27454 28.2759 8.05556C28.2759 6.43697 26.9606 5.12166 25.3495 5.12166C24.3021 5.12166 23.3878 5.66893 22.86 6.47588L13.4885 3.83353C13.4111 2.27635 12.1265 1.03088 10.5684 1.03088C8.94773 1.03088 7.62281 2.3558 7.62281 3.97439C7.62281 4.7858 7.96054 5.51728 8.49961 6.05376L3.14437 16.3634C3.01968 16.3388 2.90671 16.3313 2.78952 16.3355C1.24265 16.4051 0 17.6888 0 19.2525ZM5.10138 17.273L10.4388 6.88156C11.3761 6.96922 12.2697 6.53985 12.7849 5.82805L22.4941 8.57235C22.631 9.6193 23.3925 10.5066 24.3905 10.8376L24.7943 22.1147C24.0272 22.3627 23.3944 22.9348 23.0878 23.6668L5.76583 18.5747C5.67443 18.0708 5.45084 17.6522 5.10138 17.273Z" fill="black"/>
</svg>
