<svg width="28" height="28" viewBox="0 0 28 28" fill="none" xmlns="http://www.w3.org/2000/svg">
<path d="M23.2122 25.4048C23.7761 25.9826 24.7465 25.9826 25.2975 25.4048C25.8635 24.8154 25.8539 23.8899 25.2975 23.3196L14.1689 12.1273C13.6029 11.5613 12.6229 11.5613 12.0719 12.1273C11.5155 12.7167 11.5251 13.654 12.0719 14.2221L23.2122 25.4048ZM16.5829 17.2929L13.0596 13.7716C12.8233 13.5333 12.7458 13.2525 12.9766 13.0238C13.184 12.8109 13.4819 12.8726 13.7245 13.1227L17.2373 16.6397L16.5829 17.2929Z" fill="black"/>
<path d="M15.0498 21.9661C15.0498 21.3213 14.5114 20.783 13.8667 20.783C13.2336 20.783 12.6953 21.3213 12.6953 21.9661V25.5586C12.6953 26.1937 13.2336 26.7342 13.8667 26.7342C14.5114 26.7342 15.0498 26.1937 15.0498 25.5586V21.9661Z" fill="black"/>
<path d="M4.79311 21.2562C4.34522 21.702 4.34311 22.4712 4.77506 22.9128C5.22295 23.3607 5.99217 23.3724 6.44544 22.9308L8.96216 20.4162C9.41005 19.9704 9.41216 19.2108 8.9706 18.7693C8.53232 18.3118 7.7535 18.3096 7.30983 18.7608L4.79311 21.2562Z" fill="black"/>
<path d="M2.1714 12.6909C1.53836 12.6909 1 13.2271 1 13.8623C1 14.4974 1.53836 15.0358 2.1714 15.0358H5.78523C6.42038 15.0358 6.96085 14.4974 6.96085 13.8623C6.96085 13.2271 6.42038 12.6909 5.78523 12.6909H2.1714Z" fill="black"/>
<path d="M7.30609 8.97854C7.75187 9.42643 8.51147 9.42854 8.96264 8.98487C9.41053 8.52737 9.41264 7.76988 8.97108 7.32621L6.46397 4.80738C6.0203 4.36371 5.2607 4.34777 4.80742 4.79144C4.36164 5.23933 4.35742 5.99893 4.80109 6.4501L7.30609 8.97854Z" fill="black"/>
<path d="M15.0498 2.17562C15.0498 1.54047 14.5114 1 13.8667 1C13.2336 1 12.6953 1.54047 12.6953 2.17562V5.76812C12.6953 6.41288 13.2336 6.95124 13.8667 6.95124C14.5114 6.95124 15.0498 6.41288 15.0498 5.76812V2.17562Z" fill="black"/>
<path d="M18.7642 7.32629C18.3109 7.76996 18.313 8.52745 18.7705 8.98495C19.2142 9.42862 19.9834 9.42651 20.4367 8.97862L22.9438 6.45979C23.3949 6.00862 23.3928 5.24902 22.9353 4.79152C22.4938 4.34785 21.7342 4.35418 21.2884 4.79785L18.7642 7.32629Z" fill="black"/>
<path d="M25.5619 15.0358C26.2067 15.0358 26.7472 14.4974 26.7472 13.8623C26.7472 13.2271 26.2067 12.6909 25.5619 12.6909H21.9673C21.3343 12.6909 20.7959 13.2271 20.7959 13.8623C20.7959 14.4974 21.3343 15.0358 21.9673 15.0358H25.5619Z" fill="black"/>
</svg>
