<svg width="28" height="28" viewBox="0 0 28 28" fill="none" xmlns="http://www.w3.org/2000/svg">
<path d="M14.105 26.2301C20.7369 26.2301 26.2121 20.7549 26.2121 14.123C26.2121 7.50291 20.7273 2.01807 14.0954 2.01807C7.47523 2.01807 2 7.50291 2 14.123C2 20.7549 7.48484 26.2301 14.105 26.2301Z" fill="black"/>
<path d="M10.3496 19.355L8.66541 19.992C8.33799 20.1111 7.97963 19.79 8.13174 19.4199L8.8051 17.803L16.5706 10.0289L18.1386 11.599L10.3496 19.355ZM18.8694 10.8619L17.3077 9.30988L18.1941 8.41714C18.6179 8.0105 19.118 7.96996 19.5109 8.36277L19.7973 8.66089C20.1976 9.05159 20.1805 9.56136 19.7546 9.98721L18.8694 10.8619Z" fill="white"/>
</svg>
