<svg width="28" height="28" viewBox="0 0 28 28" fill="none" xmlns="http://www.w3.org/2000/svg">
<path d="M3 9.24562H5.29592V7.01999C5.29592 5.88139 5.88772 5.31936 6.97733 5.31936H9.18375V3.02344H6.84421C4.31484 3.02344 3 4.31695 3 6.82921V9.24562ZM10.8968 5.31936H16.9769V3.02344H10.8968V5.31936ZM22.5778 9.24562H24.8737V6.82921C24.8737 4.32656 23.5589 3.02344 21.0295 3.02344H18.69V5.31936H20.8964C21.9764 5.31936 22.5778 5.88139 22.5778 7.01999V9.24562ZM22.5778 16.9598H24.8737V10.9587H22.5778V16.9598ZM18.69 24.8972H21.0295C23.5589 24.8972 24.8737 23.5919 24.8737 21.0914V18.6729H22.5778V20.8985C22.5778 22.0371 21.9764 22.6013 20.8964 22.6013H18.69V24.8972ZM10.8968 24.8972H16.9769V22.6013H10.8968V24.8972ZM6.84421 24.8972H9.18375V22.6013H6.97733C5.88772 22.6013 5.29592 22.0371 5.29592 20.8985V18.6729H3V21.0914C3 23.6016 4.31484 24.8972 6.84421 24.8972ZM3 16.9598H5.29592V10.9587H3V16.9598Z" fill="black"/>
</svg>
