<svg width="28" height="28" viewBox="0 0 28 28" fill="none" xmlns="http://www.w3.org/2000/svg">
<path d="M2 14.384C2 21.0138 7.48484 26.489 14.105 26.489C20.7369 26.489 26.2121 21.0138 26.2121 14.384C26.2121 8.57619 22.0135 3.65783 16.5101 2.52908V0.886115C16.5101 -0.00497597 15.8558 -0.244507 15.1365 0.261038L11.202 2.97346C10.5997 3.38642 10.5943 4.04806 11.202 4.46853L15.1269 7.19266C15.8537 7.70782 16.5101 7.47462 16.5101 6.56759V4.98368C20.731 6.03368 23.8159 9.82563 23.8159 14.384C23.8159 19.7781 19.4991 24.1045 14.105 24.1045C8.71085 24.1045 4.37491 19.7781 4.38452 14.384C4.39412 11.2415 5.87421 8.4836 8.1889 6.72133C8.73476 6.24837 8.91452 5.57103 8.50765 4.99658C8.12188 4.45494 7.37188 4.35345 6.74868 4.86368C3.89516 7.00236 2 10.5899 2 14.384Z" fill="black"/>
<path d="M8.66172 12.6638H14.4115V10.965H8.66172C8.17633 10.965 7.79102 11.3482 7.79102 11.8123C7.79102 12.2902 8.17633 12.6638 8.66172 12.6638ZM15.9761 14.2385C17.3065 14.2385 18.3982 13.1447 18.3982 11.8027C18.3982 10.4724 17.3065 9.38062 15.9761 9.38062C14.6341 9.38062 13.5445 10.4724 13.5445 11.8027C13.5445 13.1447 14.6341 14.2385 15.9761 14.2385ZM15.9761 12.9007C15.3546 12.9007 14.8919 12.4168 14.8919 11.8027C14.8919 11.1811 15.3546 10.7185 15.9761 10.7185C16.5785 10.7185 17.0604 11.1811 17.0604 11.8027C17.0604 12.4168 16.5785 12.9007 15.9761 12.9007ZM17.4333 12.6638H19.5928C20.0292 12.6638 20.4187 12.2902 20.4187 11.8123C20.4187 11.3482 20.0292 10.965 19.5928 10.965H17.4333V12.6638ZM8.61485 18.8834H10.7744V17.1825H8.61485C8.17633 17.1825 7.79102 17.5582 7.79102 18.0223C7.79102 18.5002 8.17633 18.8834 8.61485 18.8834ZM12.2315 20.4561C13.5832 20.4561 14.677 19.3664 14.677 18.0223C14.677 16.6824 13.5832 15.5907 12.2315 15.5907C10.8991 15.5907 9.80946 16.6824 9.80946 18.0223C9.80946 19.3664 10.8991 20.4561 12.2315 20.4561ZM12.2315 19.1182C11.6291 19.1182 11.1473 18.6364 11.1473 18.0127C11.1473 17.4007 11.6291 16.9285 12.2315 16.9285C12.8552 16.9285 13.3392 17.4007 13.3392 18.0127C13.3392 18.6364 12.8552 19.1182 12.2315 19.1182ZM13.7941 18.8834H19.5438C20.0292 18.8834 20.4187 18.5002 20.4187 18.0223C20.4187 17.5582 20.0292 17.1825 19.5438 17.1825H13.7941V18.8834Z" fill="black"/>
</svg>
