<svg width="30" height="28" viewBox="0 0 30 28" fill="none" xmlns="http://www.w3.org/2000/svg">
<path d="M11.0292 17.3627C12.9258 17.3627 14.051 16.2492 14.051 14.3836V6.35391C14.051 4.4829 12.9258 3.36938 11.0292 3.36938H3.02179C1.12523 3.36938 0 4.4829 0 6.35391V14.3836C0 16.2492 1.12523 17.3627 3.02179 17.3627H11.0292ZM10.8307 15.0914H3.22241C2.58045 15.0914 2.27131 14.7705 2.27131 14.1307V6.60141C2.27131 5.96156 2.58045 5.6407 3.22241 5.6407H10.8307C11.4588 5.6407 11.7797 5.96156 11.7797 6.60141V14.1307C11.7797 14.7705 11.4588 15.0914 10.8307 15.0914Z" fill="black"/>
<path d="M26.8952 17.2083C28.7449 17.2083 29.8467 16.1278 29.8467 14.2919V6.43801C29.8467 4.60427 28.7449 3.5238 26.8952 3.5238H19.0657C17.216 3.5238 16.1067 4.61388 16.1067 6.43801V14.2919C16.1067 16.1182 17.216 17.2083 19.0657 17.2083H26.8952ZM1.05515 21.5046C0.477654 21.5046 0 22.0045 0 22.6204C0 23.23 0.479763 23.7267 1.05515 23.7267H4.93522V21.5046H1.05515ZM7.06077 25.6565C8.72998 25.6565 10.0969 24.2918 10.0969 22.6204C10.0969 20.9395 8.72998 19.5747 7.06077 19.5747C5.38733 19.5747 4.02468 20.9395 4.02468 22.6204C4.02468 24.2918 5.38944 25.6565 7.06077 25.6565ZM7.06077 24.0548C6.24936 24.0548 5.62639 23.4159 5.62639 22.6108C5.62639 21.7994 6.24936 21.1765 7.06077 21.1765C7.85623 21.1765 8.49514 21.7994 8.49514 22.6108C8.49514 23.4159 7.85623 24.0548 7.06077 24.0548ZM9.05272 21.5046V23.7267H28.7435C29.3552 23.7267 29.8467 23.2258 29.8467 22.6204C29.8467 22.0087 29.3573 21.5046 28.7435 21.5046H9.05272Z" fill="black"/>
</svg>
