<svg width="41" height="28" viewBox="0 0 41 28" fill="none" xmlns="http://www.w3.org/2000/svg">
<path d="M11.6023 24.8972H29.138C31.6674 24.8972 32.9822 23.5919 32.9822 21.0914V6.82921C32.9822 4.32656 31.6674 3.02344 29.138 3.02344H11.6023C9.08047 3.02344 7.76562 4.31695 7.76562 6.82921V21.0914C7.76562 23.6016 9.08047 24.8972 11.6023 24.8972ZM9.91976 17.6011V10.3174C9.91976 9.87796 10.2901 9.51937 10.7295 9.51937C11.169 9.51937 11.5276 9.87796 11.5276 10.3174V17.6011C11.5276 18.0405 11.169 18.3991 10.7295 18.3991C10.2901 18.3991 9.91976 18.0405 9.91976 17.6011ZM13.6892 22.6013V5.31936H27.0587V22.6013H13.6892ZM29.2149 17.6011V10.3174C29.2149 9.87796 29.5831 9.51937 30.0226 9.51937C30.462 9.51937 30.8206 9.87796 30.8206 10.3174V17.6011C30.8206 18.0405 30.462 18.3991 30.0226 18.3991C29.5831 18.3991 29.2149 18.0405 29.2149 17.6011Z" fill="black"/>
<path d="M1.92422 17.7187L5.24554 15.0087C5.92593 14.4422 5.89616 13.5466 5.24554 12.9961L1.92422 10.2253C1.05633 9.50226 0 9.94312 0 11.0676V16.8977C0 17.9892 1.09359 18.3949 1.92422 17.7187ZM38.8633 17.7187C39.7003 18.3886 40.7897 17.9892 40.7897 16.8977V11.0676C40.7897 9.94312 39.7375 9.50859 38.8633 10.2253L35.4935 12.9961C34.8483 13.5424 34.8089 14.4485 35.4935 15.0087L38.8633 17.7187Z" fill="black"/>
</svg>
