<svg width="29" height="28" viewBox="0 0 29 28" fill="none" xmlns="http://www.w3.org/2000/svg">
<path d="M1.98679 26.3125H11.3159C12.8327 26.3125 13.5626 25.5943 13.5626 24.0754V10.2465C13.5626 8.98538 12.6162 8.28906 11.5859 8.28906C10.8567 8.28906 10.1531 8.60804 9.67994 9.32639L0.422341 23.1416C0.139217 23.5715 0 24.0325 0 24.5153C0 25.4994 0.65109 26.3125 1.98679 26.3125ZM3.08576 23.9425C3.01755 23.9425 2.95357 23.9094 2.95357 23.8337C2.95357 23.7965 2.9674 23.7592 2.99084 23.7069L10.9774 11.3343C11.0105 11.2853 11.0477 11.2618 11.085 11.2618C11.1436 11.2618 11.1809 11.3162 11.1809 11.3769V23.6512C11.1809 23.8785 11.1073 23.9425 10.8799 23.9425H3.08576ZM17.2425 26.3125H26.5619C27.9072 26.3125 28.5583 25.4994 28.5583 24.5153C28.5583 24.0325 28.4095 23.5715 28.1264 23.1416L18.8688 9.32639C18.4052 8.60804 17.692 8.28906 16.9629 8.28906C15.9325 8.28906 14.9958 8.98538 14.9958 10.2465V24.0754C14.9958 25.5943 15.7256 26.3125 17.2425 26.3125ZM17.6784 23.9425C17.4414 23.9425 17.3775 23.8785 17.3775 23.6512V11.3865C17.3775 11.3162 17.4147 11.2618 17.4637 11.2618C17.501 11.2618 17.5479 11.2853 17.5809 11.3439L25.5579 23.7069C25.5909 23.7592 25.6047 23.7965 25.6047 23.8337C25.6047 23.9094 25.5408 23.9425 25.463 23.9425H17.6784Z" fill="black"/>
<path d="M1.82858 5.20538L5.0578 7.62179C5.73186 8.13718 6.54959 7.82944 6.54959 6.98077V5.33452H21.9981V6.98077C21.9981 7.82944 22.8255 8.13718 23.5017 7.62179L26.7309 5.20538C27.1792 4.8646 27.1675 4.24374 26.7309 3.91257L23.5017 1.48656C22.8426 0.98828 21.9981 1.25547 21.9981 2.1414V3.75789H6.54959V2.1414C6.54959 1.27469 5.73397 0.966951 5.0578 1.48656L1.82858 3.91257C1.38022 4.24374 1.38772 4.87421 1.82858 5.20538Z" fill="black"/>
</svg>
