<svg width="28" height="28" viewBox="0 0 28 28" fill="none" xmlns="http://www.w3.org/2000/svg">
<path d="M6.63574 23.6786H24.0816C24.7112 23.6786 25.2258 23.1639 25.2258 22.5343C25.2258 21.9048 24.7112 21.3826 24.0816 21.3826H8.93916L6.63574 23.6786Z" fill="black"/>
<path d="M5.42607 22.5857L18.593 9.42412L16.344 7.16546L3.1674 20.3366L2.0267 23.0816C1.89803 23.4303 2.2585 23.8049 2.59248 23.6708L5.42607 22.5857ZM19.715 8.32139L20.9829 7.07476C21.6122 6.44546 21.6378 5.7482 21.0703 5.16906L20.6128 4.70945C20.0454 4.13992 19.3439 4.20062 18.7125 4.80859L17.4467 6.06273L19.715 8.32139Z" fill="black"/>
</svg>
