<svg width="28" height="30" viewBox="0 0 28 30" fill="none" xmlns="http://www.w3.org/2000/svg">
<path d="M11.0504 26.5387H22.6426C24.7668 26.5387 25.8737 25.4702 25.8737 23.3076V11.7347C25.8737 9.56994 24.7668 8.50354 22.6426 8.50354H11.0504C8.92629 8.50354 7.81934 9.56994 7.81934 11.7347V23.3076C7.81934 25.4702 8.92629 26.5387 11.0504 26.5387Z" fill="black"/>
<path d="M2.83836 10.8937C3.30007 10.8937 3.68843 10.515 3.68843 10.0533V8.21224C3.68843 5.73185 5.29601 3.98037 7.77992 3.98037H8.146V5.42904C8.146 6.30654 8.86553 6.53529 9.55131 6.0295L12.6204 3.76146C13.1286 3.39185 13.1169 2.92897 12.6204 2.54764L9.55131 0.267876C8.86342 -0.240013 8.146 -0.0208743 8.146 0.884281V2.40163H7.78296C4.34468 2.40163 2 4.75404 2 8.20263V10.0533C2 10.515 2.37875 10.8937 2.83836 10.8937Z" fill="black"/>
</svg>
