<svg width="28" height="28" viewBox="0 0 28 28" fill="none" xmlns="http://www.w3.org/2000/svg">
<path d="M3.86379 24.8097C6.42621 27.3667 10.1232 27.3053 12.8905 24.5498L16.4394 20.9774L14.8178 19.4432L11.3258 22.949C9.50238 24.765 7.09933 25.064 5.35065 23.3228C3.59237 21.5859 3.89682 19.1775 5.72659 17.3456L9.23027 13.8419L7.69395 12.2362L4.12582 15.7809C1.36606 18.5482 1.30887 22.2431 3.86379 24.8097ZM24.8038 3.86761C22.2414 1.3127 18.5443 1.36238 15.7867 4.12004L12.2282 7.69027L13.8519 9.2362L17.3535 5.73042C19.1673 3.90698 21.5703 3.61542 23.3169 5.34698C25.0752 7.08604 24.7707 9.50198 22.9431 11.32L19.4394 14.8237L20.9811 16.4411L24.5417 12.8889C27.3111 10.1313 27.3587 6.43425 24.8038 3.86761ZM20.9886 12.0316L16.6323 7.68277C15.1578 6.20832 13.7441 6.16473 12.2282 7.69027L7.69395 12.2362C6.15879 13.7521 6.21411 15.1638 7.67894 16.6382L12.0353 20.9946C13.5097 22.4594 14.9235 22.5126 16.4394 20.9774L20.9811 16.4411C22.5088 14.9156 22.4631 13.5157 20.9886 12.0316ZM15.2926 9.28636L19.3893 13.3788C19.9602 13.9518 19.9025 14.3702 19.3007 14.9625L14.9565 19.3066C14.3664 19.9064 13.9438 19.964 13.375 19.3952L9.28042 15.2943C8.71159 14.7234 8.76925 14.2933 9.36902 13.7053L13.7132 9.37495C14.3033 8.77518 14.7238 8.71753 15.2926 9.28636Z" fill="black"/>
<path d="M14.3245 13.0125C14.8903 13.0125 15.3016 12.5714 15.3016 12.045C15.3229 11.5165 14.8785 11.0679 14.3362 11.0679C13.7981 11.0679 13.3708 11.5144 13.3708 12.0663C13.3708 12.5596 13.8173 13.0125 14.3245 13.0125ZM12.0766 15.3093C12.6051 15.3093 13.026 14.8469 13.0303 14.3514C13.0324 13.7995 12.6051 13.3626 12.0628 13.3626C11.5108 13.3626 11.0898 13.8037 11.0898 14.3439C11.0898 14.8703 11.5108 15.3093 12.0766 15.3093ZM16.6075 15.3009C17.1499 15.3009 17.59 14.8523 17.5804 14.3217C17.5804 13.7974 17.1616 13.3563 16.5937 13.3563C16.0865 13.3563 15.64 13.8091 15.64 14.3025C15.64 14.8544 16.0769 15.3009 16.6075 15.3009ZM14.3341 17.5882C14.8743 17.5882 15.2974 17.1513 15.2974 16.5993C15.2974 16.1039 14.8743 15.6414 14.3437 15.6414C13.78 15.6414 13.3591 16.0825 13.3591 16.6089C13.3591 17.1492 13.78 17.5882 14.3341 17.5882Z" fill="black"/>
</svg>
