<svg width="28" height="28" viewBox="0 0 28 28" fill="none" xmlns="http://www.w3.org/2000/svg">
<path d="M5.84632 25.3755H19.5008C21.7473 25.3755 23.0525 24.0703 23.0525 21.5697V9.1837L20.7545 11.4796V21.3769C20.7545 22.5154 20.153 23.0796 19.3677 23.0796H5.98694C4.89733 23.0796 4.29592 22.5154 4.29592 21.3769V8.33127C4.29592 7.19057 4.89733 6.61892 5.98694 6.61892H16.0046L18.3005 4.323H5.84632C3.32445 4.323 2 5.62823 2 8.12878V21.5697C2 24.0799 3.32445 25.3755 5.84632 25.3755Z" fill="black"/>
<path d="M10.2721 17.5497L12.6563 16.541L23.357 5.84996L21.568 4.08232L10.8791 14.7712L9.82233 17.0883C9.70749 17.3529 10.003 17.6583 10.2721 17.5497ZM24.2516 4.96497L25.07 4.1252C25.5212 3.65481 25.5317 3.01216 25.0848 2.57904L24.7773 2.26404C24.3782 1.86912 23.7196 1.93076 23.2822 2.35849L22.4626 3.1706L24.2516 4.96497Z" fill="black"/>
</svg>
