<svg width="28" height="28" viewBox="0 0 28 28" fill="none" xmlns="http://www.w3.org/2000/svg">
<path d="M5.30683 20.6031L8.25292 23.4097C9.88417 24.9643 11.9167 25.0292 13.4818 23.4545L24.0085 12.9278C25.0508 11.8759 25.0508 10.4026 23.9734 9.36037L19.2594 4.78795C18.1841 3.75951 16.746 3.72014 15.6824 4.77412L5.15566 15.2657C3.5884 16.8404 3.59261 18.9676 5.30683 20.6031ZM6.80541 19.094C6.01861 18.3423 6.00479 17.42 6.73299 16.6939L17.0317 6.43465C17.296 6.17989 17.6265 6.16067 17.8696 6.40582L22.3428 10.7439C22.5943 10.9954 22.5751 11.3481 22.3257 11.6071L12.0556 21.8772C11.3317 22.6108 10.4713 22.5894 9.72596 21.875L6.80541 19.094ZM6.90902 14.7571L14.0063 21.6852L15.2827 20.3929L8.22479 13.469L6.90902 14.7571Z" fill="black"/>
</svg>
