<svg width="28" height="28" viewBox="0 0 28 28" fill="none" xmlns="http://www.w3.org/2000/svg">
<path d="M14.105 26.2301C20.7369 26.2301 26.2121 20.7549 26.2121 14.123C26.2121 7.50291 20.7273 2.01807 14.0954 2.01807C7.47523 2.01807 2 7.50291 2 14.123C2 20.7549 7.48484 26.2301 14.105 26.2301Z" fill="black"/>
<path d="M10.4051 19.9414C9.07129 19.9414 8.31543 19.1973 8.31543 17.8773V10.868C8.31543 9.55011 9.07129 8.79214 10.4051 8.79214H16.729L15.3495 10.1696H10.4264C9.95183 10.1696 9.69285 10.4189 9.69285 10.9329V17.8027C9.69285 18.3146 9.95183 18.5619 10.4264 18.5619H17.5336C17.8451 18.5619 18.0872 18.3146 18.0872 17.8027V12.9605L19.4529 11.5948V17.8773C19.4529 19.1973 18.7118 19.9414 17.5454 19.9414H10.4051ZM12.6607 15.973C12.4137 16.0773 12.1465 15.8197 12.2604 15.5705L12.8335 14.3977L18.2972 8.91589L19.3878 9.97128L13.8985 15.4627L12.6607 15.973ZM19.9287 9.41651L18.852 8.3494L19.3941 7.81691C19.6582 7.54737 20.0618 7.53683 20.3164 7.79347L20.4729 7.95003C20.7157 8.19284 20.7211 8.56128 20.4537 8.83503L19.9287 9.41651Z" fill="white"/>
</svg>
