<svg width="29" height="28" viewBox="0 0 29 28" fill="none" xmlns="http://www.w3.org/2000/svg">
<path d="M8.20311 22.5991L20.7858 24.715C23.1126 25.1071 24.5098 23.5933 24.5098 21.056V7.73785C24.5098 5.09059 23.1916 3.66536 20.7858 4.06708L8.20311 6.19263C5.79725 6.59435 4.47702 7.76903 4.47702 9.85379V18.9304C4.47702 21.0056 5.79725 22.1974 8.20311 22.5991ZM8.25912 20.4457C7.24286 20.2793 6.66419 19.7505 6.66419 18.8189V9.96324C6.66419 9.0316 7.24286 8.50285 8.25912 8.33644L20.6918 6.26479C21.7334 6.09417 22.312 6.7005 22.312 7.89792V20.8959C22.312 22.0432 21.7024 22.6901 20.6918 22.5269L8.25912 20.4457ZM1.15265 15.5015H27.8383C28.5487 15.5015 28.9889 15.0372 28.9889 14.3969C28.9889 13.7332 28.5487 13.2785 27.8383 13.2785H1.15265C0.442262 13.2785 0 13.7332 0 14.3969C0 15.0372 0.442262 15.5015 1.15265 15.5015Z" fill="black"/>
</svg>
