<svg width="28" height="28" viewBox="0 0 28 28" fill="none" xmlns="http://www.w3.org/2000/svg">
<path d="M3 17.0315C3 18.686 4.35422 20.0402 6.00866 20.0402C7.66522 20.0402 9.02905 18.6902 9.02905 17.0315C9.02905 15.375 7.66522 14.0229 6.00866 14.0229C4.35422 14.0229 3 15.375 3 17.0315ZM4.57429 17.0315C4.57429 16.2265 5.2132 15.5972 6.01827 15.5972C6.82968 15.5972 7.45476 16.2265 7.45476 17.0315C7.45476 17.8429 6.82968 18.4659 6.01827 18.4659C5.2132 18.4659 4.57429 17.8429 4.57429 17.0315ZM6.01827 3C5.415 3 4.90242 3.49148 4.90242 4.10531V14.989H7.12452V4.10531C7.12452 3.48937 6.6321 3 6.01827 3ZM6.01827 24.2747C6.63632 24.2747 7.12452 23.7874 7.12452 23.2099V19.2056H4.90242V23.2099C4.90242 23.7853 5.40867 24.2747 6.01827 24.2747ZM11.0735 10.1168C11.0735 11.7691 12.4373 13.1276 14.0918 13.1276C15.7483 13.1276 17.1026 11.7733 17.1026 10.1168C17.1026 8.46234 15.7483 7.10812 14.0918 7.10812C12.4373 7.10812 11.0735 8.46234 11.0735 10.1168ZM12.6574 10.1168C12.6574 9.32132 13.2963 8.68241 14.0918 8.68241C14.9032 8.68241 15.5283 9.32132 15.5283 10.1168C15.5283 10.9282 14.9032 11.5533 14.0918 11.5533C13.2963 11.5533 12.6574 10.9282 12.6574 10.1168ZM14.0918 3C13.4885 3 12.9855 3.49148 12.9855 4.06476V7.98515H15.2076V4.06476C15.2076 3.48937 14.7035 3 14.0918 3ZM14.0918 24.2747C14.7098 24.2747 15.2076 23.7874 15.2076 23.1715V12.1319H12.9855V23.1715C12.9855 23.7853 13.4822 24.2747 14.0918 24.2747ZM19.1662 17.0315C19.1662 18.686 20.5205 20.0402 22.1749 20.0402C23.8315 20.0402 25.1857 18.686 25.1857 17.0315C25.1857 15.375 23.8315 14.0229 22.1749 14.0229C20.5205 14.0229 19.1662 15.375 19.1662 17.0315ZM20.7405 17.0315C20.7405 16.2265 21.3794 15.5972 22.1749 15.5972C22.9959 15.5972 23.6114 16.2265 23.6114 17.0315C23.6114 17.8429 22.9959 18.4659 22.1749 18.4659C21.3794 18.4659 20.7405 17.8429 20.7405 17.0315ZM22.1749 3C21.5716 3 21.059 3.49148 21.059 4.10531V15.0391H23.2811V4.10531C23.2811 3.48937 22.7866 3 22.1749 3ZM22.1749 24.2747C22.7929 24.2747 23.2811 23.7874 23.2811 23.2099V19.069H21.059V23.2099C21.059 23.7853 21.5653 24.2747 22.1749 24.2747Z" fill="black"/>
</svg>
