<svg width="28" height="28" viewBox="0 0 28 28" fill="none" xmlns="http://www.w3.org/2000/svg">
<path d="M2.30965 17.4488C2.74043 17.8838 3.39128 17.8721 3.81456 17.4488L5.87706 15.3863C13.317 7.94417 17.0863 4.18244 18.3526 5.43706C19.2613 6.34151 16.9574 8.96347 13.8409 12.6392C10.6567 16.3976 7.04309 20.4127 9.53801 22.9214C11.7355 25.1306 15.2314 22.2987 18.3074 19.3271C20.7978 16.9238 22.3813 15.4285 22.8568 15.8923C23.2703 16.3036 22.5604 17.1968 21.6676 18.7383C20.5447 20.6773 19.0834 22.9235 20.5482 24.3884C21.6714 25.5115 23.5274 24.8895 25.783 22.5858C26.2958 22.0847 26.316 21.4339 25.8789 20.9989C25.4502 20.5798 24.8153 20.5873 24.3803 21.0021C22.8857 22.3943 22.1211 22.9418 21.9158 22.7386C21.6847 22.516 22.2315 21.6884 23.3399 19.8621C24.9915 17.1457 25.5172 15.5567 24.3948 14.4385C22.8929 12.9291 20.6171 14.1671 16.7992 17.7924C13.3616 21.0467 11.7139 22.0716 11.0429 21.4102C10.2395 20.626 11.5025 18.5405 15.4351 14.0175C20.1531 8.57113 21.8171 5.89175 19.8458 3.93214C17.4017 1.4998 14.762 3.49574 4.38387 13.8835L2.31176 15.946C1.89059 16.3671 1.90231 17.0159 2.30965 17.4488Z" fill="black"/>
</svg>
