<svg width="28" height="28" viewBox="0 0 28 28" fill="none" xmlns="http://www.w3.org/2000/svg">
<path d="M9.17632 14.4559C9.17632 18.796 10.4876 23.0893 13.1049 25.7415L14.8937 24.7431C12.5787 22.3946 11.3973 18.4587 11.3973 14.4601C11.3973 10.2638 12.613 6.07413 14.8768 3.45217L13.089 2.47179C10.5261 5.35718 9.17632 9.91179 9.17632 14.4559ZM13.719 18.485C18.2513 18.485 22.808 17.1448 25.6934 14.5723L24.7227 12.7866C22.1007 15.0559 17.911 16.2598 13.719 16.2598C9.70648 16.2598 5.77272 15.0805 3.42428 12.7656L2.43546 14.5543C5.07593 17.1716 9.3671 18.485 13.719 18.485ZM14.105 26.21C20.7369 26.21 26.2121 20.7273 26.2121 14.105C26.2121 7.47312 20.7273 2 14.0954 2C7.47523 2 2 7.47312 2 14.105C2 20.7273 7.48484 26.21 14.105 26.21ZM14.105 23.8255C8.71085 23.8255 4.39412 19.4991 4.39412 14.105C4.39412 8.71085 8.70124 4.38452 14.0954 4.38452C19.4895 4.38452 23.8276 8.71085 23.8276 14.105C23.8276 19.4991 19.4991 23.8255 14.105 23.8255Z" fill="black"/>
</svg>
