<svg width="28" height="28" viewBox="0 0 28 28" fill="none" xmlns="http://www.w3.org/2000/svg">
<path d="M0 9.24562H2.29592V7.01999C2.29592 5.88139 2.88772 5.31936 3.97733 5.31936H6.18375V3.02344H3.84421C1.31484 3.02344 0 4.31695 0 6.82921V9.24562ZM0 16.9598H2.29592V10.9587H0V16.9598ZM3.84421 24.8972H6.18375V22.6013H3.97733C2.88772 22.6013 2.29592 22.0371 2.29592 20.8985V18.6729H0V21.0914C0 23.6016 1.31484 24.8972 3.84421 24.8972ZM7.89679 24.8972H13.0259V22.6013H7.89679V24.8972ZM14.7293 24.8972H19.8584V22.6013H14.7293V24.8972ZM23.9109 24.8972C26.4403 24.8972 27.7552 23.6016 27.7552 21.0914V18.6729H25.4592V20.8985C25.4592 22.0371 24.8674 22.6013 23.7778 22.6013H21.5714V24.8972H23.9109ZM27.7552 9.24562V6.82921C27.7552 4.31695 26.4403 3.02344 23.9109 3.02344H21.5714V5.31936H23.7778C24.8674 5.31936 25.4592 5.88139 25.4592 7.01999V9.24562H27.7552ZM27.7552 16.9598V10.9587H25.4592V16.9598H27.7552ZM7.89679 5.31936H13.0259V3.02344H7.89679V5.31936ZM14.7293 5.31936H19.8584V3.02344H14.7293V5.31936Z" fill="black"/>
</svg>
