<svg width="28" height="28" viewBox="0 0 28 28" fill="none" xmlns="http://www.w3.org/2000/svg">
<path d="M3.3442 18.0041C1.72514 22.4879 5.89888 25.5843 14.159 25.5843C22.419 25.5843 26.5918 22.4605 24.9737 18.002L22.2812 10.4711V6.59876C22.2812 4.61126 19.0201 3.10681 14.159 3.10681C9.31161 3.10681 6.05802 4.61126 6.05802 6.59876V10.4284L3.3442 18.0041ZM5.52316 18.725L7.58449 13.0614C8.8773 14.0272 11.1854 14.6296 14.159 14.6296C17.094 14.6296 19.4352 14.0272 20.7451 13.071L22.7947 18.725C23.7505 21.38 20.4754 23.2787 14.159 23.2787C7.84043 23.2787 4.55895 21.4032 5.52316 18.725ZM8.33707 6.59876C8.33707 5.88133 10.6731 5.18219 14.159 5.18219C17.6661 5.18219 20.0001 5.88133 20.0001 6.59876C20.0001 7.30446 17.6661 8.01532 14.159 8.01532C10.6731 8.01532 8.33707 7.30446 8.33707 6.59876Z" fill="black"/>
</svg>
