<svg width="28" height="28" viewBox="0 0 28 28" fill="none" xmlns="http://www.w3.org/2000/svg">
<path d="M7.10241 25.2485C7.76499 25.2485 8.08303 24.9028 8.19787 24.3464L10.5773 12.6858L9.13538 13.7341H18.1265L16.6867 12.6858L19.0787 24.3464C19.1936 24.9028 19.5116 25.2485 20.1763 25.2485C21.0901 25.2485 21.4124 24.5892 21.2476 23.8362L18.9993 12.9394C18.8249 12.1167 18.1384 11.4996 17.3329 11.4996H9.93858C9.13515 11.4996 8.44445 12.1167 8.2764 12.9373L6.0407 23.8362C5.87594 24.5892 6.20781 25.2485 7.10241 25.2485ZM9.48882 12.6534H17.7847L14.7381 3.81351C14.5518 3.29812 14.1899 3 13.6501 3C13.0869 3 12.7026 3.29812 12.5258 3.81351L9.48882 12.6534Z" fill="black"/>
</svg>
