<svg width="28" height="32" viewBox="0 0 28 32" fill="none" xmlns="http://www.w3.org/2000/svg">
<path d="M8.62773 24.5215H20.7777C21.3557 24.5215 21.8394 23.9545 21.8394 23.4274C21.8394 22.8928 21.3557 22.3238 20.7777 22.3238H8.75499C7.83928 22.3238 7.37663 21.8311 7.37663 20.9358V3.01945H5.0807V21.0246C5.0807 23.3259 6.29547 24.5215 8.62773 24.5215ZM20.1379 29.213H22.4338V10.9174C22.4338 8.67375 21.2479 7.51875 18.9946 7.51875H6.72718C6.15883 7.51875 5.67508 8.0857 5.67508 8.61281C5.67508 9.1378 6.15883 9.71647 6.72718 9.71647H18.7595C19.6752 9.71647 20.1379 10.2091 20.1379 11.1044V29.213ZM21.2673 31.6153C22.4884 31.6153 23.4974 30.6042 23.4974 29.3852C23.4974 28.1463 22.5158 27.1552 21.2673 27.1552C20.0474 27.1552 19.0373 28.159 19.0373 29.3852C19.0373 30.6042 20.0474 31.6153 21.2673 31.6153ZM6.23007 4.88507C7.45116 4.88507 8.46014 3.87398 8.46014 2.655C8.46014 1.4161 7.47858 0.424927 6.23007 0.424927C5.00804 0.424927 4 1.42875 4 2.655C4 3.87398 5.00804 4.88507 6.23007 4.88507Z" fill="black"/>
</svg>
