<svg width="28" height="29" viewBox="0 0 28 29" fill="none" xmlns="http://www.w3.org/2000/svg">
<path d="M2.43207 26.6748C4.30871 28.5674 6.75394 28.5887 8.60925 26.7334C9.99793 25.3447 11.3461 22.2683 12.385 20.6267L15.1134 23.3668C16.0375 24.3006 17.1661 24.3048 18.0412 23.4041L19.0364 22.4089C19.9467 21.4848 19.9307 20.4245 18.9991 19.4928L9.62152 10.1078C8.67817 9.17822 7.60614 9.15807 6.69372 10.0705L5.70278 11.0614C4.80208 11.9621 4.80419 13.0618 5.73583 13.9913L8.4663 16.7197C6.83857 17.7587 3.76965 19.1068 2.37348 20.4934C0.525669 22.3508 0.539497 24.8056 2.43207 26.6748ZM5.63059 25.0206C4.8473 25.0206 4.21543 24.3812 4.21543 23.6054C4.21543 22.8317 4.8473 22.202 5.63059 22.202C6.40637 22.202 7.03403 22.8317 7.03403 23.6054C7.03403 24.3812 6.40637 25.0206 5.63059 25.0206ZM20.4949 18.9875L25.0312 14.4533C26.3826 13.104 26.3453 11.4854 24.9705 10.0829L24.3117 9.41026C23.095 10.9754 19.6272 12.8375 18.9677 12.178C18.8622 12.0725 18.8463 11.8637 18.9986 11.7017C20.4039 10.3006 21.3529 8.90096 21.566 6.67627L15.5446 0.647445C14.347 -0.552317 12.329 -0.0898988 11.7637 2.07854C10.9938 5.07643 10.3321 6.84572 9.6984 8.20065L20.4949 18.9875Z" fill="black"/>
</svg>
