<svg width="36" height="28" viewBox="0 0 36 28" fill="none" xmlns="http://www.w3.org/2000/svg">
<path d="M3.4493 24.9659H27.7617C29.9753 24.9659 31.211 23.7762 31.211 21.5613V11.5674L28.8897 13.8865V21.3851C28.8897 22.2987 28.3664 22.8263 27.4443 22.8263H3.76452C2.84248 22.8263 2.32123 22.2987 2.32123 21.3851V11.6077C2.32123 10.6836 2.84248 10.1665 3.76452 10.1665H22.9547L25.1039 8.02905H3.4493C1.23562 8.02905 0 9.21452 0 11.4336V21.5613C0 23.7762 1.23562 24.9659 3.4493 24.9659Z" fill="black"/>
<path d="M21.2701 17.0841L23.7409 16.0273L33.85 5.92783L32.0247 4.11964L21.9348 14.2212L20.8204 16.6226C20.6938 16.8893 21.0011 17.2022 21.2701 17.0841ZM34.7467 5.02151L35.594 4.16463C36.0547 3.68252 36.0749 3.03026 35.6183 2.58964L35.3012 2.27464C34.8925 1.87011 34.2243 1.92214 33.7773 2.36698L32.9364 3.19831L34.7467 5.02151Z" fill="black"/>
<path d="M6.65051 18.2328C7.61004 18.2328 8.38957 17.4532 8.38957 16.4916C8.38957 15.53 7.61004 14.7504 6.65051 14.7504C5.68465 14.7504 4.90723 15.53 4.90723 16.4916C4.90723 17.4532 5.68465 18.2328 6.65051 18.2328Z" fill="black"/>
<path d="M11.8223 18.2328C12.7839 18.2328 13.5634 17.4532 13.5634 16.4916C13.5634 15.53 12.7839 14.7504 11.8223 14.7504C10.8606 14.7504 10.0811 15.53 10.0811 16.4916C10.0811 17.4532 10.8606 18.2328 11.8223 18.2328Z" fill="black"/>
<path d="M16.995 18.2328C17.9587 18.2328 18.7361 17.4532 18.7361 16.4916C18.7361 15.53 17.9587 14.7504 16.995 14.7504C16.0333 14.7504 15.2559 15.53 15.2559 16.4916C15.2559 17.4532 16.0333 18.2328 16.995 18.2328Z" fill="black"/>
</svg>
