<svg width="28" height="28" viewBox="0 0 28 28" fill="none" xmlns="http://www.w3.org/2000/svg">
<path d="M2 14.105C2 20.7273 7.48484 26.21 14.105 26.21C20.7369 26.21 26.2121 20.7273 26.2121 14.105C26.2121 7.47312 20.7273 2 14.0954 2C7.47523 2 2 7.47312 2 14.105ZM4.39412 14.105C4.39412 8.71085 8.70124 4.38452 14.0954 4.38452C19.4895 4.38452 23.8159 8.71085 23.8276 14.105C23.8372 17.4406 22.1555 20.3731 19.6018 22.093L18.1601 15.6359C18.0273 15.0228 17.5524 14.562 16.9627 14.5121H16.8955L14.9417 8.78257C14.6607 7.97656 13.5652 7.97656 13.2821 8.78257L11.3284 14.5121H11.2611C10.681 14.562 10.1923 15.0228 10.0637 15.6242L8.63164 22.0951C6.06405 20.3752 4.39412 17.4523 4.39412 14.105ZM10.2202 23.019L11.7202 16.2221H16.5111L18.009 23.019C16.8134 23.5325 15.4944 23.8255 14.105 23.8255C12.7177 23.8255 11.4008 23.5442 10.2202 23.019Z" fill="black"/>
</svg>
