<svg width="28" height="28" viewBox="0 0 28 28" fill="none" xmlns="http://www.w3.org/2000/svg">
<path d="M4.84421 20.5808H7.97147V18.2849H4.97733C3.88772 18.2849 3.29592 17.7133 3.29592 16.5726V5.0296C3.29592 3.891 3.88772 3.31936 4.97733 3.31936H16.5705C17.6505 3.31936 18.2519 3.891 18.2519 5.0296V7.57702H20.5478V4.82921C20.5478 2.32656 19.233 1.02344 16.7132 1.02344H4.84421C2.30523 1.02344 1 2.32656 1 4.82921V16.7751C1 19.2756 2.30523 20.5808 4.84421 20.5808Z" fill="black"/>
<path d="M11.6226 14.2229H16.8438V12.5601H11.6226C11.1456 12.5601 10.7784 12.9273 10.7784 13.3808C10.7784 13.8482 11.1456 14.2229 11.6226 14.2229ZM18.3916 15.7745C19.6987 15.7745 20.7714 14.7018 20.7714 13.3808C20.7714 12.0737 19.6987 10.9989 18.3916 10.9989C17.0728 10.9989 16 12.0737 16 13.3808C16 14.7018 17.0728 15.7745 18.3916 15.7745ZM18.3916 14.4662C17.7742 14.4662 17.3179 13.9907 17.3179 13.3808C17.3179 12.7656 17.7742 12.3072 18.3916 12.3072C18.9876 12.3072 19.4632 12.7656 19.4632 13.3808C19.4632 13.9907 18.9876 14.4662 18.3916 14.4662ZM19.8318 14.2229H21.6438C22.0739 14.2229 22.4432 13.8482 22.4432 13.3808C22.4432 12.9273 22.0739 12.5601 21.6438 12.5601H19.8318V14.2229ZM11.5757 20.2562H13.3898V18.5934H11.5757C11.1456 18.5934 10.7784 18.9585 10.7784 19.4141C10.7784 19.8911 11.1456 20.2562 11.5757 20.2562ZM14.83 21.8078C16.1606 21.8078 17.2333 20.7351 17.2333 19.4141C17.2333 18.1049 16.1606 17.0322 14.83 17.0322C13.5208 17.0322 12.4481 18.1049 12.4481 19.4141C12.4481 20.7351 13.5208 21.8078 14.83 21.8078ZM14.83 20.4995C14.234 20.4995 13.7563 20.0219 13.7563 19.4141C13.7563 18.7989 14.234 18.3405 14.83 18.3405C15.4474 18.3405 15.9154 18.7989 15.9154 19.4141C15.9154 20.0219 15.4474 20.4995 14.83 20.4995ZM16.3757 20.2562H21.5969C22.0739 20.2562 22.4432 19.8911 22.4432 19.4141C22.4432 18.9585 22.0739 18.5934 21.5969 18.5934H16.3757V20.2562ZM10.6774 26.1522H22.5442C25.0661 26.1522 26.3788 24.8469 26.3788 22.3464V10.3984C26.3788 7.89788 25.0661 6.59265 22.5442 6.59265H10.6774C8.13628 6.59265 6.83105 7.88827 6.83105 10.3984V22.3464C6.83105 24.8469 8.13628 26.1522 10.6774 26.1522ZM10.8105 23.8562C9.72838 23.8562 9.12697 23.2825 9.12697 22.1439V10.6009C9.12697 9.46232 9.72838 8.89068 10.8105 8.89068H22.4015C23.4815 8.89068 24.0829 9.46232 24.0829 10.6009V22.1439C24.0829 23.2825 23.4815 23.8562 22.4015 23.8562H10.8105Z" fill="black"/>
</svg>
