<svg width="28" height="28" viewBox="0 0 28 28" fill="none" xmlns="http://www.w3.org/2000/svg">
<path d="M18.4297 24.6215C20.0841 24.6215 21.4383 23.2672 21.4383 21.6107C21.4383 19.9562 20.0862 18.602 18.4297 18.602C16.7731 18.602 15.4093 19.9562 15.4093 21.6107C15.4093 23.2672 16.7731 24.6215 18.4297 24.6215ZM18.4297 23.0472C17.6225 23.0472 16.9932 22.4083 16.9932 21.6107C16.9932 20.7918 17.6225 20.1763 18.4297 20.1763C19.239 20.1763 19.864 20.7918 19.864 21.6107C19.864 22.4083 19.239 23.0472 18.4297 23.0472ZM16.4356 20.4948H3.09359C2.47976 20.4948 2 20.999 2 21.6107C2 22.2161 2.48187 22.7169 3.09359 22.7169H16.4356V20.4948ZM25.099 20.4948H20.5531V22.7169H25.099C25.6744 22.7169 26.1638 22.2203 26.1638 21.6107C26.1638 20.9948 25.6765 20.4948 25.099 20.4948ZM9.86726 17.3338C11.5175 17.3338 12.878 15.97 12.878 14.3155C12.878 12.659 11.5238 11.3048 9.86726 11.3048C8.21281 11.3048 6.8586 12.659 6.8586 14.3155C6.8586 15.97 8.21281 17.3338 9.86726 17.3338ZM9.86726 15.7499C9.07179 15.7499 8.43289 15.111 8.43289 14.3155C8.43289 13.5041 9.07179 12.8791 9.86726 12.8791C10.6787 12.8791 11.3037 13.5041 11.3037 14.3155C11.3037 15.111 10.6787 15.7499 9.86726 15.7499ZM3.05515 13.1997C2.47976 13.1997 2 13.7038 2 14.3155C2 14.9188 2.48187 15.4218 3.05515 15.4218H7.78414V13.1997H3.05515ZM25.0606 13.1997H11.8339V15.4218H25.0606C25.6744 15.4218 26.1638 14.9251 26.1638 14.3155C26.1638 13.6975 25.6765 13.1997 25.0606 13.1997ZM18.4297 10.029C20.0841 10.029 21.4383 8.67483 21.4383 7.01827C21.4383 5.36382 20.0841 4 18.4297 4C16.7731 4 15.4093 5.36382 15.4093 7.01827C15.4093 8.67483 16.7731 10.029 18.4297 10.029ZM18.4297 8.45476C17.6225 8.45476 16.9932 7.81374 16.9932 7.00866C16.9932 6.19937 17.6225 5.57429 18.4297 5.57429C19.239 5.57429 19.864 6.19937 19.864 7.00866C19.864 7.81374 19.239 8.45476 18.4297 8.45476ZM16.4858 5.91203H3.09359C2.47976 5.91203 2 6.40656 2 7.01827C2 7.62366 2.48187 8.13413 3.09359 8.13413H16.4858V5.91203ZM25.099 5.91203H20.4165V8.13413H25.099C25.6744 8.13413 26.1638 7.62788 26.1638 7.01827C26.1638 6.40234 25.6765 5.91203 25.099 5.91203Z" fill="black"/>
</svg>
