<svg width="28" height="28" viewBox="0 0 28 28" fill="none" xmlns="http://www.w3.org/2000/svg">
<path d="M16.7568 12.2078L14.9512 14.0176C14.5504 14.4025 14.0737 14.5145 13.7057 14.1273C13.308 13.6944 13.3848 13.3084 13.8241 12.8596L15.6008 11.0347L14.3863 9.84463L5.08632 19.1488C1.3239 22.9133 2.85274 22.779 1 25.3518L2.19179 26.6106C4.68977 24.759 4.77787 26.4531 8.57357 22.6733L17.9172 13.3904L16.7568 12.2078ZM19.8264 14.5883L20.1862 14.2018C20.8215 13.5472 20.8462 12.7745 20.1702 12.0997L19.8397 11.7768C21.7002 10.1376 23.7156 9.97189 25.0157 8.64838C26.8272 6.82096 26.3532 4.19128 24.9709 2.80472C23.6045 1.41067 20.9856 0.959261 19.1273 2.75363C17.7899 4.04831 17.6359 6.06909 15.9946 7.92956L15.678 7.59909C15.036 6.92433 14.2347 6.95198 13.5716 7.58737L13.1905 7.94292C12.4113 8.68495 12.5329 9.36815 13.2182 10.0589L17.7168 14.5532C18.4096 15.246 19.0919 15.3538 19.8264 14.5883Z" fill="black"/>
</svg>
