<svg width="28" height="28" viewBox="0 0 28 28" fill="none" xmlns="http://www.w3.org/2000/svg">
<path d="M2 14.4053C2 19.8707 6.67203 23.0671 12.657 23.0671C13.2615 23.0671 13.8882 23.0289 14.4737 22.982L13.977 20.9092C13.5725 20.9411 13.1755 20.9591 12.7869 20.9591C7.9646 20.9591 4.12178 18.7265 4.12178 14.4191C4.12178 9.32874 9.78499 5.78499 15.508 5.78499C20.4835 5.78499 24.5853 8.80655 24.5853 13.3869C24.5853 17.5724 20.0591 21.2413 15.7325 21.2413C14.9342 21.2413 14.3375 20.9259 14.3375 20.4477C14.3375 19.5245 15.6589 18.8873 17.3602 18.8873C19.3505 18.8873 20.8309 20.328 20.8309 22.3574C20.8309 23.6877 20.0445 25.0166 18.7648 25.8466C18.3617 26.1369 18.0849 26.4358 18.0849 26.9125C18.0849 27.4515 18.5208 27.894 19.174 27.894C19.456 27.894 19.6484 27.8132 19.9102 27.6472C21.7791 26.4248 22.9505 24.396 22.9505 22.3244C22.9505 19.1134 20.468 16.7538 17.2229 16.7538C14.3356 16.7538 12.204 18.2676 12.204 20.4894C12.204 22.2158 13.6313 23.3514 15.7325 23.3514C21.2065 23.3514 26.7071 18.7818 26.7071 13.3987C26.7071 7.63914 21.7203 3.66321 15.4962 3.66321C8.6443 3.66321 2 8.03008 2 14.4053Z" fill="black"/>
</svg>
