<svg width="28" height="30" viewBox="0 0 28 30" fill="none" xmlns="http://www.w3.org/2000/svg">
<path d="M5.23108 26.5387H16.8233C18.9474 26.5387 20.0544 25.4702 20.0544 23.3076V11.7347C20.0544 9.56994 18.9474 8.50354 16.8233 8.50354H5.23108C3.10695 8.50354 2 9.56994 2 11.7347V23.3076C2 25.4702 3.10695 26.5387 5.23108 26.5387ZM5.36538 24.2955C4.59592 24.2955 4.24319 23.9801 4.24319 23.1829V11.8668C4.24319 11.0601 4.59592 10.7446 5.36538 10.7446H16.689C17.468 10.7446 17.8112 11.0601 17.8112 11.8668V23.1829C17.8112 23.9801 17.468 24.2955 16.689 24.2955H5.36538Z" fill="black"/>
<path d="M25.0348 10.8937C25.4944 10.8937 25.8827 10.515 25.8827 10.0533V8.20263C25.8827 4.75404 23.5284 2.40163 20.0998 2.40163H19.7271V0.884281C19.7271 -0.0208743 19.0097 -0.240013 18.3239 0.267876L15.2527 2.54764C14.7563 2.92897 14.7445 3.39185 15.2527 3.76146L18.3239 6.0295C19.0076 6.53529 19.7271 6.30654 19.7271 5.42904V3.98037H20.1028C22.5867 3.98037 24.1943 5.73185 24.1943 8.21224V10.0533C24.1943 10.515 24.5731 10.8937 25.0348 10.8937Z" fill="black"/>
</svg>
