<svg width="29" height="28" viewBox="0 0 29 28" fill="none" xmlns="http://www.w3.org/2000/svg">
<path d="M14.1643 23.7135C18.874 23.7135 22.7154 19.8913 22.7154 15.1527C22.7154 10.4313 18.874 6.61121 14.1643 6.61121C9.45454 6.61121 5.60352 10.4313 5.60352 15.1527C5.60352 19.8817 9.45454 23.7135 14.1643 23.7135ZM14.1643 8.81339C17.6581 8.81339 20.5132 11.6643 20.5132 15.1527C20.5132 18.6508 17.6581 21.5059 14.1643 21.5059C10.6662 21.5059 7.80148 18.6508 7.80148 15.1527C7.80148 11.6643 10.6662 8.81339 14.1643 8.81339ZM18.1721 20.3505L19.4541 19.0333L14.8081 14.2998C14.4441 13.9232 13.7918 13.9316 13.4353 14.2998C13.0395 14.7212 13.0311 15.3107 13.4353 15.6981L18.1721 20.3505Z" fill="black"/>
<path d="M23.1063 25.5841C23.9454 25.5841 24.6333 24.9175 24.6333 24.0571C24.6333 23.218 23.9571 22.5323 23.1063 22.5323C22.2577 22.5323 21.5698 23.2084 21.5698 24.0571C21.5698 24.9079 22.248 25.5841 23.1063 25.5841ZM26.7923 16.6893C27.6314 16.6893 28.3289 16.0014 28.3289 15.1527C28.3289 14.3137 27.641 13.6258 26.7923 13.6258C25.9533 13.6258 25.2558 14.2923 25.2558 15.1527C25.2558 15.9918 25.9341 16.6893 26.7923 16.6893ZM23.1063 7.79242C23.9454 7.79242 24.6333 7.11625 24.6333 6.26547C24.6333 5.4168 23.9571 4.73852 23.1063 4.73852C22.2577 4.73852 21.5698 5.40719 21.5698 6.26547C21.5698 7.10453 22.248 7.79242 23.1063 7.79242ZM14.1645 4.06351C15.0035 4.06351 15.6914 3.38523 15.6914 2.52695C15.6914 1.68789 15.0131 1 14.1645 1C13.3158 1 12.6375 1.67617 12.6375 2.52695C12.6375 3.37562 13.3062 4.06351 14.1645 4.06351ZM5.23218 7.7732C6.07125 7.7732 6.75913 7.09492 6.75913 6.24625C6.75913 5.39758 6.08085 4.7193 5.23218 4.7193C4.39312 4.7193 3.70523 5.38797 3.70523 6.24625C3.70523 7.08531 4.38351 7.7732 5.23218 7.7732ZM1.53656 16.6893C2.36601 16.6893 3.06351 16.0014 3.06351 15.1527C3.06351 14.3137 2.38523 13.6258 1.53656 13.6258C0.697499 13.6258 0 14.2923 0 15.1527C0 15.9918 0.687889 16.6893 1.53656 16.6893ZM5.24179 25.5937C6.08085 25.5937 6.76874 24.9271 6.76874 24.0667C6.76874 23.2277 6.09046 22.5419 5.24179 22.5419C4.40273 22.5419 3.71484 23.218 3.71484 24.0667C3.71484 24.9175 4.39312 25.5937 5.24179 25.5937Z" fill="black"/>
</svg>
