<svg width="28" height="30" viewBox="0 0 28 30" fill="none" xmlns="http://www.w3.org/2000/svg">
<path d="M5.23108 26.5387H16.8233C18.9474 26.5387 20.0544 25.4702 20.0544 23.3076V11.7347C20.0544 9.56994 18.9474 8.50354 16.8233 8.50354H5.23108C3.10695 8.50354 2 9.56994 2 11.7347V23.3076C2 25.4702 3.10695 26.5387 5.23108 26.5387Z" fill="black"/>
<path d="M25.0355 10.8937C25.4951 10.8937 25.8834 10.515 25.8834 10.0533V8.20263C25.8834 4.75404 23.5291 2.40163 20.1005 2.40163H19.7278V0.884281C19.7278 -0.0208743 19.0104 -0.240013 18.3246 0.267876L15.2534 2.54764C14.7474 2.91936 14.7452 3.39185 15.2534 3.76146L18.3246 6.0295C19.0083 6.53529 19.7278 6.30654 19.7278 5.42904V3.98037H20.1035C22.5874 3.98037 24.195 5.73185 24.195 8.21224V10.0533C24.195 10.515 24.5738 10.8937 25.0355 10.8937Z" fill="black"/>
</svg>
