<svg width="28" height="28" viewBox="0 0 28 28" fill="none" xmlns="http://www.w3.org/2000/svg">
<path d="M4.90391 20.9927L6.02609 22.9031L14.4427 18.6741L22.8594 22.9031L23.9794 20.9927L15.5607 16.7616V6.79712H13.3344V16.7616L4.90391 20.9927ZM2.02133 22.7065C2.02133 23.246 2.2543 23.6545 2.72679 23.9205L5.05789 25.279C5.42164 25.4981 5.69163 25.5312 6.14819 25.2694L8.42702 23.9494C8.89319 23.6855 9.00686 23.442 8.99936 22.992L9.01319 20.2859C9.0153 19.7581 8.77272 19.357 8.31944 19.091L5.9703 17.7305C5.60866 17.5327 5.29179 17.4825 4.85328 17.7305L2.5414 19.0718C2.09656 19.3219 2 19.6006 2 20.0025L2.02133 22.7065ZM19.8116 23.0037C19.8041 23.4558 19.9177 23.6993 20.3839 23.9611L22.6606 25.2811C23.1193 25.545 23.3893 25.5098 23.753 25.2907L26.0841 23.9323C26.5545 23.6663 26.7896 23.2598 26.7896 22.7182L26.8109 20.0163C26.8109 19.6123 26.7144 19.3357 26.2695 19.0835L23.9576 17.7422C23.5191 17.4942 23.2023 17.5465 22.8406 17.7422L20.4915 19.1027C20.0382 19.3688 19.7935 19.7698 19.7977 20.2976L19.8116 23.0037ZM11.3785 9.1132L13.7309 10.4662C14.1842 10.7227 14.6384 10.7227 15.0917 10.4662L17.4441 9.1132C17.8271 8.89406 17.9909 8.66344 17.9909 8.13235V5.49235C17.9909 4.96876 17.8292 4.75196 17.4634 4.54032L15.1109 3.19689C14.6384 2.93087 14.1746 2.9372 13.7117 3.199L11.3593 4.53822C11.0052 4.73814 10.82 4.97087 10.82 5.49235V8.13235C10.82 8.66133 11.0148 8.90156 11.3785 9.1132Z" fill="black"/>
</svg>
