<svg width="28" height="28" viewBox="0 0 28 28" fill="none" xmlns="http://www.w3.org/2000/svg">
<path d="M6.58813 21.8481C9.86376 25.1237 13.9855 26.1322 15.9437 26.342C16.707 26.446 17.184 26.0394 17.2245 25.4692C17.263 24.9304 16.9398 24.4808 16.2547 24.3461C14.4704 24.0524 10.8057 23.2023 8.03421 20.4095C3.54382 15.9116 2.64288 8.97387 6.36335 5.2534C9.3364 2.28996 14.2672 2.59442 17.9021 4.5552L19.4119 3.07842C14.7659 0.248812 8.57492 0.137948 4.91516 3.80521C0.54829 8.1838 1.07282 16.3328 6.58813 21.8481ZM11.0204 18.2914C14.7765 22.1741 21.1789 23.631 24.6833 20.1362C27.5422 17.2698 27.2801 12.1804 24.1756 7.77294L22.6977 9.24879C25.006 12.6529 25.4368 16.4842 23.233 18.688C20.5327 21.3904 16.1248 20.1601 13.2268 17.3915L11.0204 18.2914Z" fill="black"/>
<path d="M12.8884 16.3281L23.4625 5.76156L21.4696 3.77828L10.9052 14.3352L9.89361 16.7718C9.76072 17.0959 10.0891 17.4086 10.4017 17.2916L12.8884 16.3281ZM24.3327 4.90304L25.3272 3.89172C25.8273 3.37891 25.874 2.62774 25.3621 2.13837L25.0173 1.8086C24.5746 1.38087 23.8342 1.41673 23.3469 1.89977L22.3494 2.91016L24.3327 4.90304Z" fill="black"/>
</svg>
