<svg width="30" height="28" viewBox="0 0 30 28" fill="none" xmlns="http://www.w3.org/2000/svg">
<path d="M18.8177 17.3627H26.8155C28.7216 17.3627 29.8469 16.2492 29.8469 14.3836V6.35391C29.8469 4.4829 28.7216 3.36938 26.8155 3.36938H18.8177C16.9211 3.36938 15.7959 4.4829 15.7959 6.35391V14.3836C15.7959 16.2492 16.9211 17.3627 18.8177 17.3627ZM19.0162 15.0914C18.3859 15.0914 18.0672 14.7705 18.0672 14.1307V6.60141C18.0672 5.96156 18.3859 5.6407 19.0162 5.6407H26.6149C27.2643 5.6407 27.5756 5.96156 27.5756 6.60141V14.1307C27.5756 14.7705 27.2643 15.0914 26.6149 15.0914H19.0162Z" fill="black"/>
<path d="M2.94187 17.2083H10.7789C12.6307 17.2083 13.74 16.1182 13.74 14.2919V6.43801C13.74 4.61388 12.6307 3.5238 10.7789 3.5238H2.94187C1.10179 3.5238 0 4.60427 0 6.43801V14.2919C0 16.1278 1.10179 17.2083 2.94187 17.2083ZM1.05515 21.5046C0.477654 21.5046 0 22.0045 0 22.6204C0 23.23 0.479763 23.7267 1.05515 23.7267H4.93522V21.5046H1.05515ZM7.06077 25.6565C8.72998 25.6565 10.0969 24.2918 10.0969 22.6204C10.0969 20.9395 8.72998 19.5747 7.06077 19.5747C5.38733 19.5747 4.02468 20.9395 4.02468 22.6204C4.02468 24.2918 5.38944 25.6565 7.06077 25.6565ZM7.06077 24.0548C6.24936 24.0548 5.62639 23.4159 5.62639 22.6108C5.62639 21.7994 6.24936 21.1765 7.06077 21.1765C7.85623 21.1765 8.49514 21.7994 8.49514 22.6108C8.49514 23.4159 7.85623 24.0548 7.06077 24.0548ZM9.05272 21.5046V23.7267H28.7435C29.3552 23.7267 29.8467 23.2258 29.8467 22.6204C29.8467 22.0087 29.3573 21.5046 28.7435 21.5046H9.05272Z" fill="black"/>
</svg>
