<svg width="28" height="29" viewBox="0 0 28 29" fill="none" xmlns="http://www.w3.org/2000/svg">
<path d="M26.039 26.6221V17.3047C26.039 15.7857 25.3092 15.0559 23.7902 15.0559H9.96351C8.70234 15.0559 8.00391 16.0023 8.00391 17.0326C8.00391 17.7617 8.32078 18.4632 9.05086 18.931L22.8565 28.1865C23.2863 28.4792 23.7494 28.6185 24.2397 28.6185C25.2164 28.6185 26.039 27.9674 26.039 26.6221ZM23.7902 13.6227C25.3092 13.6227 26.039 12.895 26.039 11.376V2.05658C26.039 0.711271 25.2164 0.0601807 24.2397 0.0601807C23.7494 0.0601807 23.2863 0.201507 22.8565 0.482522L9.05086 9.74973C8.32078 10.2154 8.00391 10.9169 8.00391 11.6481C8.00391 12.6763 8.70234 13.6227 9.96351 13.6227H23.7902Z" fill="black"/>
<path d="M4.97048 26.7916L7.38689 23.5624C7.90228 22.8862 7.59454 22.0589 6.75548 22.0589H5.09962V6.61987H6.75548C7.59454 6.61987 7.90228 5.79253 7.38689 5.11847L4.97048 1.88925C4.63931 1.43879 4.01845 1.443 3.68728 1.88925L1.25166 5.11847C0.75338 5.77542 1.03018 6.61987 1.9065 6.61987H3.52299V22.0589H1.9065C1.0494 22.0589 0.732052 22.8841 1.25166 23.5624L3.68728 26.7916C4.01845 27.2282 4.64892 27.2303 4.97048 26.7916Z" fill="black"/>
</svg>
