<svg width="28" height="28" viewBox="0 0 28 28" fill="none" xmlns="http://www.w3.org/2000/svg">
<path d="M5.6682 17.1887H21.3439C23.7345 17.1887 25.0217 15.9399 25.0217 13.5589V5.62976C25.0217 3.24875 23.7345 2 21.3439 2H5.6682C3.38539 2 2 3.24875 2 5.62976V13.5589C2 15.9399 3.28718 17.1887 5.6682 17.1887ZM5.71647 15.0648C4.78436 15.0648 4.29592 14.5763 4.29592 13.6442V5.54655C4.29592 4.61444 4.78436 4.12389 5.71647 4.12389H21.2956C22.2373 4.12389 22.7258 4.61444 22.7258 5.54655V13.6442C22.7258 14.5763 22.2373 15.0648 21.2956 15.0648H5.71647Z" fill="black"/>
<path d="M17.9314 24.8753C19.6027 24.8753 20.9675 23.5105 20.9675 21.8392C20.9675 20.1583 19.6048 18.7935 17.9314 18.7935C16.2526 18.7935 14.8857 20.1583 14.8857 21.8392C14.8857 23.5105 16.2526 24.8753 17.9314 24.8753ZM17.9314 23.2736C17.1263 23.2736 16.497 22.6347 16.497 21.8296C16.497 21.0182 17.1263 20.3952 17.9314 20.3952C18.7428 20.3952 19.3679 21.0182 19.3679 21.8296C19.3679 22.6347 18.7428 23.2736 17.9314 23.2736ZM16.0386 20.7234H3.09359C2.47976 20.7234 2 21.2275 2 21.8392C2 22.4446 2.48187 22.9455 3.09359 22.9455H16.0386V20.7234ZM23.9569 20.7234H19.9482V22.9455H23.9569C24.5323 22.9455 25.0217 22.4488 25.0217 21.8392C25.0217 21.2233 24.5344 20.7234 23.9569 20.7234Z" fill="black"/>
</svg>
