<svg width="28" height="28" viewBox="0 0 28 28" fill="none" xmlns="http://www.w3.org/2000/svg">
<path d="M7.42912 22.585L13.8426 16.1716L11.5818 13.9183L5.17046 20.3359L4.02976 23.0809C3.89148 23.4297 4.26155 23.8021 4.59553 23.6702L7.42912 22.585ZM17.1831 12.8343L20.5961 9.42342L18.347 7.16476L14.934 10.5873L17.1831 12.8343ZM21.718 8.32069L22.986 7.07405C23.6153 6.44476 23.6504 5.755 23.0734 5.16836L22.6159 4.71836C22.0389 4.14133 21.3374 4.19992 20.7156 4.80789L19.4401 6.06203L21.718 8.32069Z" fill="black"/>
<path d="M21.523 21.8441C21.883 22.2062 22.4901 22.2084 22.8426 21.8441C23.1951 21.4724 23.2047 20.8888 22.8426 20.5246L7.48565 5.17192C7.12143 4.8077 6.50478 4.79809 6.15439 5.17192C5.79228 5.52231 5.79228 6.13895 6.15439 6.48934L21.523 21.8441Z" fill="black"/>
</svg>
