<svg width="28" height="29" viewBox="0 0 28 29" fill="none" xmlns="http://www.w3.org/2000/svg">
<path d="M2.53691 26.8313C4.56988 28.8664 6.94784 28.8898 8.94987 26.892C10.3446 25.4973 11.8097 22.2587 12.8986 20.9124L15.3357 23.3612C16.3151 24.3523 17.5158 24.3566 18.4697 23.3984L20.0067 21.8497C20.9649 20.8798 20.9585 19.7164 19.9695 18.7274L10.6526 9.39669C9.66143 8.40342 8.48628 8.39381 7.51644 9.36365L5.98152 10.9081C5.02129 11.8684 5.01379 13.0489 6.00918 14.0422L8.45371 16.4792C7.11918 17.5681 3.88058 19.0257 2.48793 20.4184C0.490115 22.4204 0.501833 24.808 2.53691 26.8313ZM7.86565 12.1789L8.7769 11.2848C9.04151 11.0223 9.32956 11.0105 9.59417 11.2752L18.0985 19.7698C18.3535 20.0345 18.3535 20.3246 18.0792 20.5988L17.1968 21.4909C16.9301 21.7768 16.6249 21.7864 16.3561 21.5005L13.5427 18.6774C13.0648 18.1974 12.4306 18.2443 11.8878 18.7733C10.9737 19.6735 9.383 23.5037 7.51339 25.3595C6.44112 26.4413 5.14714 26.4392 4.03221 25.336C2.93862 24.2307 2.92479 22.9229 4.00666 21.8506C5.87627 19.997 9.70432 18.4041 10.6067 17.488C11.1239 16.9377 11.1804 16.3034 10.7004 15.8331L7.86565 13.0058C7.59893 12.7412 7.59893 12.4456 7.86565 12.1789ZM5.74503 25.0428C6.51448 25.0428 7.13581 24.4119 7.13581 23.6445C7.13581 22.8772 6.51448 22.2559 5.74503 22.2559C4.97768 22.2559 4.34674 22.8772 4.34674 23.6445C4.34674 24.4119 4.97768 25.0428 5.74503 25.0428ZM19.6507 20.1237L25.3142 14.4624C26.6719 13.1026 26.6442 11.4659 25.2514 10.0709L16.0395 0.845288C14.7078 -0.486427 12.4632 0.0552113 12.0043 2.07505C10.8722 6.96973 10.8612 7.36981 9.02605 9.93458L10.5741 11.4784C12.7514 8.67879 12.8764 7.35153 13.9971 3.22277C14.1305 2.70105 14.5594 2.56558 14.9114 2.90801L23.6128 11.5998C24.0992 12.0861 24.0971 12.6432 23.6501 13.0923L18.1357 18.6088L19.6507 20.1237ZM17.7654 13.2838C18.3844 13.9048 21.8084 12.0064 22.9899 10.5181L20.4139 7.95176C20.1912 10.0259 19.1131 11.5259 17.8006 12.8384C17.6482 12.9908 17.6599 13.1804 17.7654 13.2838Z" fill="black"/>
</svg>
