<svg width="28" height="28" viewBox="0 0 28 28" fill="none" xmlns="http://www.w3.org/2000/svg">
<path d="M14.105 26.21C20.7369 26.21 26.2121 20.7273 26.2121 14.105C26.2121 7.47312 20.7273 2 14.0954 2C7.47523 2 2 7.47312 2 14.105C2 20.7273 7.48484 26.21 14.105 26.21ZM14.105 23.8255C8.71085 23.8255 4.39412 19.4991 4.39412 14.105C4.39412 8.71085 8.70124 4.38452 14.0954 4.38452C19.4895 4.38452 23.8276 8.71085 23.8276 14.105C23.8276 19.4991 19.4991 23.8255 14.105 23.8255Z" fill="black"/>
<path d="M10.4807 19.1349L17.9826 11.6522L16.4901 10.1576L8.99989 17.637L8.34458 19.2041C8.20841 19.554 8.5445 19.8591 8.86348 19.7422L10.4807 19.1349ZM18.6857 10.9545L19.5294 10.1074C19.9276 9.69002 19.9586 9.21963 19.5817 8.84486L19.2995 8.56057C18.9248 8.1858 18.4426 8.21463 18.0444 8.61494L17.1995 9.45658L18.6857 10.9545Z" fill="black"/>
</svg>
