<svg width="28" height="28" viewBox="0 0 28 28" fill="none" xmlns="http://www.w3.org/2000/svg">
<path d="M14.105 26.21C20.7369 26.21 26.2121 20.7273 26.2121 14.105C26.2121 7.47312 20.7273 2 14.0954 2C7.47523 2 2 7.47312 2 14.105C2 20.7273 7.48484 26.21 14.105 26.21ZM14.105 23.8255C8.71085 23.8255 4.39412 19.4991 4.39412 14.105C4.39412 8.71085 8.70124 4.38452 14.0954 4.38452C19.4895 4.38452 23.8276 8.71085 23.8276 14.105C23.8276 19.4991 19.4991 23.8255 14.105 23.8255Z" fill="black"/>
<path d="M10.5805 19.6515H17.4053C18.5197 19.6515 19.2247 18.9455 19.2247 17.6776V11.6671L17.9312 12.9701V17.6169C17.9312 18.1032 17.6933 18.3484 17.3936 18.3484H10.5922C10.1389 18.3484 9.88628 18.1032 9.88628 17.6169V11.035C9.88628 10.5444 10.1389 10.2918 10.5922 10.2918H15.3252L16.6305 8.98653H10.5805C9.30082 8.98653 8.58105 9.7159 8.58105 10.9818V17.6776C8.58105 18.9455 9.30082 19.6515 10.5805 19.6515ZM12.7384 15.853L13.9199 15.3629L19.168 10.1148L18.1295 9.10183L12.8973 14.3499L12.3583 15.4611C12.2444 15.7039 12.5052 15.9455 12.7384 15.853ZM19.6867 9.59402L20.1915 9.0348C20.443 8.76527 20.4376 8.40316 20.2108 8.16668L20.0584 8.03355C19.8177 7.78324 19.4322 7.8109 19.1744 8.05488L18.662 8.55762L19.6867 9.59402Z" fill="black"/>
</svg>
