<svg width="28" height="28" viewBox="0 0 28 28" fill="none" xmlns="http://www.w3.org/2000/svg">
<path d="M14.105 26.2301C20.7369 26.2301 26.2121 20.7549 26.2121 14.123C26.2121 7.50291 20.7273 2.01807 14.0954 2.01807C7.47523 2.01807 2 7.50291 2 14.123C2 20.7549 7.48484 26.2301 14.105 26.2301Z" fill="black"/>
<path d="M9.4746 19.5687C8.19726 19.5687 7.17773 18.5396 7.17773 17.2602C7.17773 15.9945 8.19726 14.9708 9.4746 14.9708C10.5293 14.9708 10.6924 15.3959 11.1729 15.3959C11.2688 15.3959 11.3487 15.3704 11.4839 15.3076L12.248 14.8988C12.6964 14.6539 12.8328 14.5271 12.9073 14.2341L13.0245 13.824C13.197 13.1987 13.5209 12.8525 14.1952 12.5947L18.9739 10.8793C20.4228 10.3541 21.3462 10.5606 21.5647 11.4371L12.1484 16.426C11.8055 16.6102 11.7736 16.7881 11.7736 17.2602C11.7736 18.5492 10.7562 19.5687 9.4746 19.5687ZM9.4746 18.5246C10.1719 18.5246 10.7391 17.9649 10.7391 17.258C10.7391 16.5608 10.1719 16.0032 9.4746 16.0032C8.78695 16.0032 8.21976 16.5608 8.21976 17.258C8.21976 17.9649 8.78695 18.5246 9.4746 18.5246ZM14.3178 14.2459C14.5575 14.2459 14.7739 14.0509 14.7739 13.7973C14.7739 13.5479 14.5575 13.3604 14.3178 13.3604C14.078 13.3604 13.8692 13.5479 13.8692 13.7973C13.8692 14.0509 14.078 14.2459 14.3178 14.2459ZM13.1745 12.3652C12.822 12.6378 12.5843 12.9744 12.4266 13.4366L11.4839 12.9535C11.3571 12.8811 11.273 12.8576 11.175 12.8576C10.6819 12.8576 10.5293 13.269 9.4746 13.269C8.19726 13.269 7.17773 12.2591 7.17773 10.9817C7.17773 9.70649 8.19726 8.67102 9.4746 8.67102C10.752 8.67102 11.7736 9.69477 11.7736 10.9817C11.7736 11.4793 11.8151 11.6295 12.2061 11.8522L13.1745 12.3652ZM9.4746 12.2366C10.1719 12.2366 10.7391 11.6769 10.7391 10.9817C10.7391 10.2727 10.1719 9.71515 9.4746 9.71515C8.78695 9.71515 8.21976 10.2727 8.21976 10.9817C8.21976 11.6769 8.78695 12.2366 9.4746 12.2366ZM14.8055 15.8063L17.2435 14.5208L21.5647 16.8017C21.3441 17.69 20.4132 17.9019 18.9739 17.3574L14.8055 15.8063Z" fill="white"/>
</svg>
