<svg width="28" height="28" viewBox="0 0 28 28" fill="none" xmlns="http://www.w3.org/2000/svg">
<path d="M4.39412 14.105C4.39412 13.0892 4.54764 12.1086 4.83124 11.1994L2.62648 10.2762C2.23016 11.4854 2 12.7669 2 14.105C2 15.4334 2.23016 16.7225 2.63609 17.9337L4.83124 17.0084C4.54764 16.1014 4.39412 15.1208 4.39412 14.105ZM9.59491 5.47108L8.69094 3.29516C6.36851 4.46797 4.45836 6.37812 3.28765 8.70055L5.4828 9.61413C6.38866 7.84577 7.83616 6.39616 9.59491 5.47108ZM14.0954 4.38452C15.1112 4.38452 16.0918 4.53803 17.0202 4.83124L17.9241 2.63609C16.715 2.23016 15.4238 2 14.0954 2C12.7691 2 11.4683 2.23016 10.257 2.63609L11.1823 4.83124C12.099 4.53803 13.0796 4.38452 14.0954 4.38452ZM22.7293 9.60452L24.9148 8.70055C23.7324 6.37812 21.8223 4.46797 19.4998 3.28555L18.5959 5.47108C20.3546 6.38655 21.8138 7.83616 22.7293 9.60452ZM23.8276 14.105C23.8276 15.1208 23.672 16.1014 23.3884 17.018L25.5739 17.9434C25.9819 16.7321 26.2121 15.4334 26.2121 14.105C26.2121 12.7669 25.9819 11.4758 25.5739 10.2666L23.3788 11.1898C23.672 12.1086 23.8276 13.0892 23.8276 14.105ZM18.5959 22.7272L19.4998 24.9223C21.8319 23.742 23.742 21.8319 24.9052 19.5094L22.7389 18.6055C21.8234 20.3738 20.3642 21.8117 18.5959 22.7272ZM14.105 23.8255C13.0796 23.8255 12.099 23.672 11.1823 23.3788L10.2666 25.5739C11.4779 25.9798 12.7787 26.21 14.105 26.21C15.4334 26.21 16.7246 25.9798 17.9241 25.5835L17.0105 23.3884C16.0918 23.672 15.1208 23.8255 14.105 23.8255ZM5.4828 18.6055L3.29726 19.5094C4.47758 21.8319 6.36851 23.742 8.69094 24.9127L9.59491 22.7176C7.83616 21.8021 6.38866 20.3642 5.4828 18.6055Z" fill="black"/>
<path d="M14.086 21.9556C18.4484 21.9556 21.9462 18.4578 21.9366 14.105C21.927 9.7522 18.4292 6.25439 14.0764 6.25439C9.72356 6.25439 6.24707 9.74259 6.24707 14.105C6.24707 18.4674 9.73316 21.9556 14.086 21.9556Z" fill="black"/>
</svg>
