<svg width="28" height="28" viewBox="0 0 28 28" fill="none" xmlns="http://www.w3.org/2000/svg">
<path d="M26.9544 21.0489C26.9544 20.3948 26.4899 19.9452 25.7849 19.9452H9.13749C8.89233 19.9452 8.80397 19.8569 8.80397 19.6096V2.92213C8.80397 2.21175 8.30874 1.73315 7.64172 1.73315C6.97797 1.73315 6.48274 2.21175 6.48274 2.92213V21.1455C6.48274 21.748 6.87555 22.143 7.48024 22.143H25.7849C26.4899 22.143 26.9544 21.6913 26.9544 21.0489ZM1 8.37112C1 9.03487 1.46453 9.47478 2.15991 9.47478H18.817C19.0621 9.47478 19.1505 9.57275 19.1505 9.8083V26.4958C19.1505 27.2062 19.6457 27.6869 20.3052 27.6869C20.9786 27.6869 21.4717 27.2062 21.4717 26.4958V8.28417C21.4717 7.67949 21.0789 7.27707 20.4763 7.27707H2.15991C1.46453 7.27707 1 7.7287 1 8.37112Z" fill="black"/>
</svg>
