<svg width="28" height="31" viewBox="0 0 28 31" fill="none" xmlns="http://www.w3.org/2000/svg">
<path d="M15.0973 23.2249C14.7003 23.2568 14.2958 23.2748 13.9051 23.2748C9.09448 23.2748 5.25166 21.0422 5.25166 16.7348C5.25166 16.1552 5.3583 15.6162 5.53104 15.1005C5.19682 14.5734 4.53917 14.4316 3.52831 14.2657C3.2705 15.0366 3.12988 15.8543 3.12988 16.721C3.12988 22.1864 7.80191 25.3828 13.7869 25.3828C14.3893 25.3828 15.0085 25.3446 15.6036 25.2977L15.0973 23.2249ZM10.8769 7.03638C11.0766 8.20075 11.1992 8.68356 11.7643 9.00325C13.2964 8.41754 14.9736 8.10066 16.6379 8.10066C21.6134 8.10066 25.7152 11.1223 25.7152 15.7027C25.7152 19.8881 21.189 23.557 16.8603 23.557C16.0545 23.557 15.4578 23.2416 15.4578 22.7634C15.4578 21.8402 16.7888 21.203 18.4901 21.203C20.4805 21.203 21.9587 22.6437 21.9587 24.6731C21.9587 26.0034 21.1744 27.3323 19.8851 28.1623C19.482 28.4527 19.2148 28.7515 19.2148 29.2282C19.2148 29.7673 19.6508 30.2097 20.2944 30.2097C20.5859 30.2097 20.7783 30.1289 21.0305 29.963C22.9069 28.7405 24.0708 26.7117 24.0708 24.6401C24.0708 21.4291 21.5958 19.0695 18.3432 19.0695C15.4634 19.0695 13.3243 20.5833 13.3243 22.8051C13.3243 24.5315 14.7612 25.6671 16.8603 25.6671C22.3365 25.6671 27.8274 21.0975 27.8274 15.7144C27.8274 9.95481 22.8502 5.97888 16.6262 5.97888C14.6499 5.97888 12.6776 6.35412 10.8769 7.03638Z" fill="black"/>
<path d="M8.56406 18.3033C8.84203 18.3033 9.04429 18.1052 9.09117 17.8369C9.83835 13.6498 10.2225 13.1013 14.3552 12.5494C14.6491 12.5142 14.8547 12.3002 14.8547 12.0202C14.8547 11.7401 14.6491 11.5282 14.3552 11.4909C10.249 10.9411 9.71742 10.417 9.09117 6.21516C9.05179 5.93297 8.84203 5.72742 8.56406 5.72742C8.29359 5.72742 8.08382 5.92336 8.03695 6.20555C7.31531 10.3948 6.90562 10.9348 2.77078 11.4909C2.47898 11.5282 2.27132 11.7401 2.27132 12.0202C2.27132 12.3002 2.47898 12.51 2.77078 12.5494C6.87281 13.1309 7.40648 13.6158 8.03695 17.8252C8.07632 18.1052 8.27648 18.3033 8.56406 18.3033ZM3.15961 9.68883C3.36516 9.68883 3.53344 9.54187 3.56859 9.33844C3.93633 7.34625 3.8093 7.2982 5.96133 6.94781C6.1882 6.91055 6.32133 6.74226 6.32133 6.53883C6.32133 6.33539 6.18398 6.16711 5.96133 6.13195C3.81351 5.78133 3.93422 5.71945 3.56859 3.76266C3.53344 3.5475 3.37687 3.38883 3.15961 3.38883C2.94445 3.38883 2.7975 3.53789 2.75273 3.76266C2.37961 5.70469 2.50242 5.76234 0.36 6.13195C0.142734 6.16922 0 6.33539 0 6.53883C0 6.7657 0.142734 6.91055 0.385546 6.94781C2.50031 7.28555 2.3775 7.33992 2.75273 9.30539C2.7975 9.53226 2.93484 9.68883 3.15961 9.68883ZM6.96281 4.24688C7.09383 4.24688 7.1993 4.14141 7.22484 4.00828C7.47094 2.69344 7.41117 2.66461 8.84977 2.39508C8.9925 2.36203 9.07664 2.25445 9.07664 2.12344C9.07664 1.99031 8.99039 1.87734 8.84766 1.8518C7.40156 1.57055 7.44961 1.53211 7.22484 0.248203C7.1993 0.105469 7.10344 0 6.96281 0C6.82008 0 6.72422 0.105469 6.68906 0.250312C6.41836 1.53211 6.50906 1.57055 5.06414 1.8518C4.93101 1.87734 4.83726 1.99031 4.83726 2.12344C4.83726 2.26406 4.93101 2.35781 5.07797 2.39508C6.50906 2.63578 6.41836 2.69344 6.68906 3.98906C6.72422 4.14141 6.82008 4.24688 6.96281 4.24688Z" fill="black"/>
</svg>
