<svg width="28" height="31" viewBox="0 0 28 31" fill="none" xmlns="http://www.w3.org/2000/svg">
<path d="M25.7984 19.8241C25.7984 19.1681 25.3306 18.7301 24.6385 18.7301H10.7304C10.4949 18.7301 10.3969 18.6417 10.3969 18.3966V4.6985C10.3969 3.98811 9.93545 3.50952 9.24428 3.50952C8.53929 3.50952 8.0757 3.98811 8.0757 4.6985V19.9303C8.0757 20.535 8.47062 20.9278 9.08281 20.9278H24.6385C25.3306 20.9278 25.7984 20.4898 25.7984 19.8241ZM2 10.5738C2 11.2298 2.46781 11.6679 3.1503 11.6679H17.1256C17.3612 11.6679 17.4591 11.7659 17.4591 12.0014V25.7667C17.4591 26.4792 17.9227 26.9578 18.6139 26.9578C19.3189 26.9578 19.7804 26.4792 19.7804 25.7667V10.4773C19.7804 9.87257 19.3779 9.47014 18.7733 9.47014H3.1503C2.46781 9.47014 2 9.9178 2 10.5738Z" fill="black"/>
<path d="M2.29785 22.11C2.29785 25.5682 4.65214 27.9206 8.09042 27.9206H8.45346V29.4283C8.45346 30.3335 9.17088 30.5622 9.85877 30.0447L12.9279 27.765C13.4244 27.3933 13.4361 26.9304 12.9279 26.5512L9.85877 24.2831C9.17299 23.7869 8.45346 24.0061 8.45346 24.8836V26.3419H8.08737C5.60346 26.3419 3.98628 24.5808 3.98628 22.11V20.269C3.98628 19.8073 3.60753 19.4189 3.14581 19.4189C2.68621 19.4189 2.29785 19.8073 2.29785 20.269V22.11ZM14.9398 3.85642L18.0186 6.12446C18.6947 6.63025 19.4239 6.40149 19.4239 5.52399V4.07532H19.79C22.2739 4.07532 23.8815 5.82681 23.8815 8.3072V10.1482C23.8815 10.6099 24.2602 10.9887 24.7315 10.9887C25.1911 10.9887 25.5699 10.6099 25.5699 10.1482V8.29759C25.5699 4.849 23.2156 2.49658 19.7869 2.49658H19.4239V0.97924C19.4239 0.0740846 18.6969 -0.154664 18.0186 0.362835L14.9398 2.64259C14.453 3.02392 14.4413 3.48681 14.9398 3.85642Z" fill="black"/>
</svg>
