<svg width="28" height="29" viewBox="0 0 28 29" fill="none" xmlns="http://www.w3.org/2000/svg">
<path d="M4.90476 23.8959H23.1811C25.3573 23.8959 26.4537 22.6176 25.9875 20.6299L22.7934 7.45733C22.3463 5.58281 21.1636 4.60992 19.3263 4.60992H8.77125C6.92438 4.60992 5.73962 5.58281 5.29033 7.45733L2.10587 20.6299C1.6397 22.6176 2.73821 23.8959 4.90476 23.8959ZM14.0616 28.5101C13.4074 28.5101 12.9431 28.0603 12.9431 27.3595V1.15054C12.9431 0.440153 13.4074 0 14.0616 0C14.6998 0 15.1641 0.440153 15.1641 1.15054V27.3595C15.1641 28.0603 14.6998 28.5101 14.0616 28.5101Z" fill="black"/>
</svg>
