<svg width="28" height="28" viewBox="0 0 28 28" fill="none" xmlns="http://www.w3.org/2000/svg">
<path d="M4.05405 20.2339L5.16451 22.1443L13.5811 17.9152L21.9978 22.1443L23.12 20.2339L14.7012 16.0028V6.03831H12.4728V16.0028L4.05405 20.2339ZM1.14405 22.0297C0.77796 22.8704 1.12366 23.4542 2.02178 23.5585L6.88389 24.0964C8.10967 24.2443 8.81841 23.4392 8.1767 22.3367L5.27795 17.3106C4.66178 16.2336 3.59913 16.4328 3.1203 17.5501L1.14405 22.0297ZM26.0204 22.0297L24.0537 17.5501C23.5653 16.4328 22.5122 16.2336 21.894 17.3106L18.9856 22.3367C18.346 23.4392 19.0644 24.2443 20.2805 24.0964L25.1426 23.5585C26.0386 23.4542 26.3864 22.8704 26.0204 22.0297ZM12.6896 2.55854L9.80373 6.48643C9.07272 7.47174 9.42241 8.49947 10.6803 8.49947H16.4682C17.7495 8.49947 18.0842 7.48979 17.3468 6.48854L14.4514 2.55644C13.898 1.81792 13.2408 1.81042 12.6896 2.55854Z" fill="black"/>
</svg>
