<svg width="29" height="28" viewBox="0 0 29 28" fill="none" xmlns="http://www.w3.org/2000/svg">
<path d="M14.1643 23.7135C18.874 23.7135 22.7154 19.8817 22.7154 15.1527C22.7154 10.7465 19.3639 7.11273 15.0694 6.66016L15.1231 15.3032C15.1294 15.8352 14.6602 16.2918 14.1579 16.278C13.5769 16.2566 13.1588 15.847 13.1672 15.2819L13.2284 6.66227C8.95414 7.1275 5.60352 10.7528 5.60352 15.1527C5.60352 19.8913 9.45454 23.7135 14.1643 23.7135Z" fill="black"/>
<path d="M5.22257 25.5841C6.07125 25.5841 6.74953 24.9079 6.74953 24.0571C6.74953 23.2084 6.06164 22.5323 5.22257 22.5323C4.3718 22.5323 3.69562 23.218 3.69562 24.0571C3.69562 24.9175 4.38351 25.5841 5.22257 25.5841ZM1.53656 16.6893C2.38523 16.6893 3.06351 15.9918 3.06351 15.1527C3.06351 14.2923 2.36601 13.6258 1.53656 13.6258C0.687889 13.6258 0 14.3137 0 15.1527C0 16.0014 0.697499 16.6893 1.53656 16.6893ZM5.22257 7.79242C6.07125 7.79242 6.74953 7.10453 6.74953 6.26547C6.74953 5.40719 6.06164 4.73852 5.22257 4.73852C4.3718 4.73852 3.69562 5.4168 3.69562 6.26547C3.69562 7.11625 4.38351 7.79242 5.22257 7.79242ZM14.1645 4.06351C15.0131 4.06351 15.6914 3.37562 15.6914 2.52695C15.6914 1.67617 15.0035 1 14.1645 1C13.3062 1 12.6375 1.68789 12.6375 2.52695C12.6375 3.38523 13.3158 4.06351 14.1645 4.06351ZM23.0967 7.7732C23.9454 7.7732 24.6237 7.08531 24.6237 6.24625C24.6237 5.38797 23.9358 4.7193 23.0967 4.7193C22.2384 4.7193 21.5602 5.39758 21.5602 6.24625C21.5602 7.09492 22.248 7.7732 23.0967 7.7732ZM26.7923 16.6893C27.641 16.6893 28.3289 15.9918 28.3289 15.1527C28.3289 14.2923 27.6314 13.6258 26.7923 13.6258C25.9341 13.6258 25.2558 14.3137 25.2558 15.1527C25.2558 16.0014 25.9533 16.6893 26.7923 16.6893ZM23.0871 25.5937C23.9358 25.5937 24.6141 24.9175 24.6141 24.0667C24.6141 23.218 23.9262 22.5419 23.0871 22.5419C22.2288 22.5419 21.5506 23.2277 21.5506 24.0667C21.5506 24.9271 22.2384 25.5937 23.0871 25.5937Z" fill="black"/>
</svg>
