<svg width="28" height="28" viewBox="0 0 28 28" fill="none" xmlns="http://www.w3.org/2000/svg">
<path d="M14.105 26.21C20.7369 26.21 26.2121 20.7273 26.2121 14.105C26.2121 7.47312 20.7273 2 14.0954 2C7.47523 2 2 7.47312 2 14.105C2 20.7273 7.48484 26.21 14.105 26.21ZM14.105 23.8255C8.71085 23.8255 4.39412 19.4991 4.39412 14.105C4.39412 8.71085 8.70124 4.38452 14.0954 4.38452C19.4895 4.38452 23.8276 8.71085 23.8276 14.105C23.8276 19.4991 19.4991 23.8255 14.105 23.8255Z" fill="black"/>
<path d="M9.65891 19.3487C10.883 19.3487 11.8707 18.3706 11.8707 17.1294C11.8707 16.6712 11.9005 16.4954 12.2296 16.3133L21.2938 11.5105C21.0892 10.6754 20.1955 10.4806 18.804 10.9824L14.2093 12.6362C13.5531 12.8727 13.2451 13.2029 13.0843 13.8198L12.9671 14.214C12.8926 14.4973 12.7679 14.622 12.3355 14.8531L11.5948 15.2384C11.4638 15.313 11.3818 15.3268 11.2859 15.3268C10.8331 15.3268 10.67 14.9272 9.65891 14.9272C8.42727 14.9272 7.44922 15.8977 7.44922 17.1294C7.44922 18.361 8.42727 19.3487 9.65891 19.3487ZM9.65891 18.3545C8.98719 18.3545 8.44344 17.8086 8.44344 17.1273C8.44344 16.4534 8.98719 15.9118 9.65891 15.9118C10.3306 15.9118 10.8744 16.4534 10.8744 17.1273C10.8744 17.8086 10.3306 18.3545 9.65891 18.3545ZM14.3202 14.2278C14.0921 14.2278 13.895 14.0349 13.895 13.793C13.895 13.5554 14.0921 13.3625 14.3202 13.3625C14.5578 13.3625 14.7624 13.5554 14.7624 13.793C14.7624 14.0349 14.5578 14.2278 14.3202 14.2278ZM13.2205 12.4088L12.2872 11.9075C11.9101 11.7083 11.8707 11.558 11.8707 11.0764C11.8707 9.83514 10.8809 8.85498 9.65891 8.85498C8.42727 8.85498 7.44922 9.84475 7.44922 11.0764C7.44922 12.2984 8.42727 13.2765 9.65891 13.2765C10.67 13.2765 10.8226 12.8673 11.288 12.8673C11.3881 12.8673 11.468 12.9024 11.5948 12.9631L12.5003 13.4323C12.658 12.9978 12.8839 12.6655 13.2205 12.4088ZM9.65891 12.2919C8.98719 12.2919 8.44344 11.746 8.44344 11.0764C8.44344 10.3908 8.98719 9.8492 9.65891 9.8492C10.3306 9.8492 10.8744 10.3908 10.8744 11.0764C10.8744 11.746 10.3306 12.2919 9.65891 12.2919ZM14.7983 15.7191L18.804 17.2203C20.1859 17.7275 21.0871 17.5294 21.2938 16.673L17.1332 14.4793L14.7983 15.7191Z" fill="black"/>
</svg>
