<svg width="29" height="28" viewBox="0 0 29 28" fill="none" xmlns="http://www.w3.org/2000/svg">
<path d="M8.0974 22.5376L20.4923 24.6216C22.9251 25.0243 24.5098 23.7401 24.5098 21.3542V7.34115C24.5098 4.95733 22.9251 3.66358 20.4923 4.07584L8.0974 6.16952C5.75881 6.55202 4.47702 7.78436 4.47702 9.81147V18.8839C4.47702 20.9014 5.75881 22.1454 8.0974 22.5376ZM1.15265 15.4592C0.442262 15.4592 0 14.9949 0 14.3546C0 13.6908 0.442262 13.2362 1.15265 13.2362H27.8383C28.5487 13.2362 28.9889 13.6908 28.9889 14.3546C28.9889 14.9949 28.5487 15.4592 27.8383 15.4592H1.15265Z" fill="black"/>
</svg>
