<svg width="28" height="28" viewBox="0 0 28 28" fill="none" xmlns="http://www.w3.org/2000/svg">
<path d="M9.4082 26.967C14.0533 26.967 17.8164 23.1943 17.8164 18.5471C17.8164 13.9234 14.0416 10.1506 9.4082 10.1506C4.77273 10.1506 1 13.9234 1 18.5471C1 23.1943 4.77273 26.967 9.4082 26.967ZM9.4082 24.8748C5.91249 24.8748 3.09226 22.0524 3.09226 18.5471C3.09226 15.0748 5.91249 12.2429 9.4082 12.2429C12.8922 12.2429 15.7241 15.0652 15.7241 18.5471C15.7241 22.0428 12.8922 24.8748 9.4082 24.8748Z" fill="white"/>
<path d="M18.7889 26.967C23.4126 26.967 27.1875 23.1943 27.1875 18.5471C27.1875 13.9234 23.4126 10.1506 18.7889 10.1506C14.1438 10.1506 10.3711 13.9234 10.3711 18.5471C10.3711 23.1943 14.1438 26.967 18.7889 26.967ZM18.7889 24.8748C15.2932 24.8748 12.4633 22.0524 12.4633 18.5471C12.4633 15.0748 15.2932 12.2429 18.7889 12.2429C22.2633 12.2429 25.0952 15.0652 25.0952 18.5471C25.0952 22.0428 22.2825 24.8748 18.7889 24.8748Z" fill="white"/>
<path d="M14.0965 18.8867C18.7299 18.8867 22.493 15.1236 22.493 10.4785C22.493 5.84512 18.7299 2.07239 14.0965 2.07239C9.45144 2.07239 5.67871 5.84512 5.67871 10.4785C5.67871 15.1236 9.45144 18.8867 14.0965 18.8867ZM14.0965 16.7944C10.6008 16.7944 7.76886 13.9742 7.76886 10.4785C7.76886 6.99449 10.6008 4.16254 14.0965 4.16254C17.5709 4.16254 20.4029 6.99449 20.4029 10.4785C20.4029 13.9742 17.5805 16.7944 14.0965 16.7944Z" fill="black"/>
</svg>
