<svg width="28" height="28" viewBox="0 0 28 28" fill="none" xmlns="http://www.w3.org/2000/svg">
<path d="M1.6344 17.3773C2.35978 18.0773 3.74423 18.2402 4.82211 17.2687C5.22289 16.9116 5.98039 16.1009 7.17945 14.9018C13.0327 8.9728 16.6487 5.2331 17.2878 5.82186C17.8072 6.28452 15.8132 9.11085 13.8107 11.876C10.1741 16.9362 7.10824 20.6252 9.41448 22.9315C11.2239 24.7408 13.9574 23.0906 18.3477 19.2391C20.7031 17.1649 22.3524 15.6262 22.7478 16.0312C23.0207 16.2923 22.3935 17.3116 21.601 18.6853C20.4685 20.6285 18.9683 22.8241 20.4332 24.2869C21.4635 25.3055 23.4022 24.8669 25.6679 22.6312C26.1338 22.1632 26.2381 21.6145 25.85 21.2285C25.4821 20.8723 24.9632 20.9276 24.5729 21.2754C23.1064 22.6898 22.0231 23.2929 21.838 23.096C21.6186 22.8841 22.2371 21.7652 23.3249 19.8448C24.8176 17.1942 25.7274 15.4099 24.3467 14.0686C22.5114 12.2864 20.3553 14.1689 16.6096 17.464C13.445 20.2509 12.1459 20.9869 11.8461 20.6735C11.4299 20.2223 12.5991 18.6401 16.0696 13.7913C19.8095 8.56217 22.0447 5.16023 19.9311 3.10851C17.1753 0.41883 13.4699 2.40469 4.29267 11.4849C2.97314 12.7927 2.13713 13.5956 1.71877 14.0817C0.654013 15.3098 0.898464 16.6666 1.6344 17.3773Z" fill="black"/>
</svg>
