<svg width="28" height="29" viewBox="0 0 28 29" fill="none" xmlns="http://www.w3.org/2000/svg">
<path d="M26.0868 26.6221V17.3047C26.0868 15.7857 25.3569 15.0559 23.8401 15.0559H10.0112C8.75003 15.0559 8.05371 16.0023 8.05371 17.0326C8.05371 17.7617 8.37269 18.4653 9.10065 18.931L22.9063 28.1865C23.3362 28.4792 23.7972 28.6185 24.2896 28.6185C25.2641 28.6185 26.0868 27.9674 26.0868 26.6221ZM23.7168 25.5252C23.7168 25.603 23.6741 25.6649 23.608 25.6649C23.5708 25.6649 23.5239 25.6511 23.4791 25.6201L11.099 17.641C11.05 17.608 11.034 17.5611 11.034 17.5335C11.034 17.4749 11.0809 17.4397 11.1395 17.4397H23.4159C23.6528 17.4397 23.7168 17.5016 23.7168 17.7385V25.5252ZM26.0868 11.376V2.05658C26.0868 0.711271 25.2641 0.0601807 24.2896 0.0601807C23.7972 0.0601807 23.3362 0.201507 22.9063 0.482522L9.10065 9.74973C8.37269 10.2133 8.05371 10.9169 8.05371 11.6481C8.05371 12.6763 8.75003 13.6227 10.0112 13.6227H23.8401C25.3569 13.6227 26.0868 12.895 26.0868 11.376ZM23.7168 10.9401C23.7168 11.1674 23.6528 11.241 23.4159 11.241H11.1491C11.0905 11.241 11.034 11.2037 11.034 11.1451C11.034 11.1079 11.05 11.0727 11.1182 11.0376L23.4791 3.06063C23.5239 3.02758 23.5708 3.01375 23.608 3.01375C23.6741 3.01375 23.7168 3.07774 23.7168 3.15555V10.9401Z" fill="black"/>
<path d="M4.97048 26.7916L7.38689 23.5624C7.90228 22.8862 7.59454 22.0589 6.75548 22.0589H5.09962V6.61987H6.75548C7.59454 6.61987 7.90228 5.79253 7.38689 5.11847L4.97048 1.88925C4.63931 1.43879 4.01845 1.443 3.68728 1.88925L1.25166 5.11847C0.75338 5.77542 1.03018 6.61987 1.9065 6.61987H3.52299V22.0589H1.9065C1.0494 22.0589 0.732052 22.8841 1.25166 23.5624L3.68728 26.7916C4.01845 27.2282 4.64892 27.2303 4.97048 26.7916Z" fill="black"/>
</svg>
