<svg width="34" height="28" viewBox="0 0 34 28" fill="none" xmlns="http://www.w3.org/2000/svg">
<path d="M0 14.1071C0 14.7165 0.492419 15.2598 1.12382 15.2598H32.212C32.8434 15.2598 33.3316 14.7165 33.3316 14.1071C33.3316 13.4935 32.8434 12.9598 32.212 12.9598H1.12382C0.492419 12.9598 0 13.4935 0 14.1071ZM16.6765 26.21C23.2966 26.21 28.7815 20.7273 28.7815 14.105C28.7815 7.47312 23.287 2 16.6669 2C10.035 2 4.56937 7.47312 4.56937 14.105C4.56937 20.7273 10.0446 26.21 16.6765 26.21ZM16.6765 23.8255C11.2823 23.8255 6.956 19.4991 6.956 14.105C6.956 8.71085 11.2706 4.38452 16.6669 4.38452C22.0514 4.38452 26.397 8.71085 26.397 14.105C26.397 19.4991 22.061 23.8255 16.6765 23.8255Z" fill="black"/>
</svg>
