<svg width="28" height="28" viewBox="0 0 28 28" fill="none" xmlns="http://www.w3.org/2000/svg">
<path d="M13.7901 8.26453C15.2365 8.26453 16.4186 7.08234 16.4186 5.61679C16.4186 4.17047 15.2365 3 13.7901 3C12.3246 3 11.1541 4.17047 11.1541 5.61679C11.1541 7.08234 12.3246 8.26453 13.7901 8.26453ZM2.76935 19.2963L8.71545 19.7969C9.70475 19.8844 10.0645 19.9758 11.0196 20.2423L18.2632 22.279L24.7781 24.6619C25.3638 24.8695 26.1698 24.6619 26.403 23.9069C26.6011 23.2584 26.3072 22.5408 25.6523 22.3055L19.1491 19.9364C19.0436 19.9012 18.8327 19.8213 18.7486 19.7841L13.7426 17.9773C14.4147 16.6851 15.3108 14.628 15.5451 12.3973C15.5686 12.1584 15.7052 12.0506 15.9227 12.0506H24.6171C25.3167 12.0506 25.864 11.482 25.864 10.7941C25.864 10.0924 25.3167 9.53554 24.6171 9.53554H15.0822C13.4854 9.53554 13.349 9.52804 11.6116 9.05296L2.59873 6.55289C1.92045 6.36656 1.24217 6.76265 1.04623 7.42499C0.859905 8.10327 1.25389 8.79538 1.92045 8.9796L10.3336 11.3018C10.5318 11.3583 10.6493 11.497 10.6258 11.7241C10.3563 13.8176 9.34521 15.8407 8.79771 16.7855H4.12802V12C4.12802 11.31 3.53388 10.7456 2.85982 10.7456C2.16982 10.7456 1.60123 11.31 1.60123 12V18.0302C1.60123 18.7629 1.93873 19.2143 2.76935 19.2963Z" fill="black"/>
</svg>
