<svg width="28" height="29" viewBox="0 0 28 29" fill="none" xmlns="http://www.w3.org/2000/svg">
<path d="M11.9647 6.82264C13.4207 6.82264 14.6029 5.64256 14.6029 4.20584C14.6029 2.75952 13.4207 1.57733 11.9647 1.57733C10.5184 1.57733 9.34583 2.75952 9.34583 4.20584C9.34583 5.64256 10.5184 6.82264 11.9647 6.82264ZM21.1459 8.04678H7.54982L8.05864 8.43349C8.6856 8.22255 8.92513 7.62326 8.78778 7.11115C8.63122 6.54256 8.08817 6.07826 7.1788 6.28592L3.68591 7.08701C1.37709 7.61951 1.44623 10.597 3.85302 10.597H7.66232C7.98739 10.597 8.23161 10.8529 8.23161 11.1759V16.1529L4.58732 19.7758C4.08248 20.2786 3.75013 20.7951 3.54248 21.5737L2.15662 26.7752C1.9117 27.6942 2.45474 28.2745 3.09787 28.3746C3.707 28.4864 4.3895 28.1925 4.59716 27.4258L5.9106 22.5471C6.0395 22.0879 6.12903 21.9152 6.47638 21.6243L9.34395 19.169C9.9013 18.7108 10.8529 18.795 11.2365 19.4674L12.974 22.499L15.734 27.6963C16.1556 28.5002 17.0532 28.5822 17.6293 28.2138C18.133 27.8826 18.347 27.2022 17.9786 26.5143L15.2047 21.2329L13.6314 17.6463C13.3715 17.0465 13.235 16.3924 13.235 15.7127V11.1759C13.235 10.8529 13.4793 10.597 13.8118 10.597H21.1459C21.8551 10.597 22.4258 10.0305 22.4258 9.34053C22.4258 8.62709 21.8551 8.04678 21.1459 8.04678ZM23.728 9.34053C23.728 11.8701 23.1735 14.4677 21.9416 17.6165C21.7841 18.0358 21.9596 18.4593 22.3321 18.6147C22.7279 18.7765 23.1322 18.6265 23.3249 18.2348C24.6599 15.2805 25.2411 12.573 25.2411 9.34053C25.2411 6.1924 24.6599 3.4753 23.3153 0.444124C23.1322 0.0524853 22.7279 -0.0975138 22.3321 0.0642041C21.95 0.219594 21.7841 0.643108 21.9416 1.06451C23.1735 4.23045 23.728 6.81841 23.728 9.34053Z" fill="black"/>
</svg>
