<svg width="28" height="29" viewBox="0 0 28 29" fill="none" xmlns="http://www.w3.org/2000/svg">
<path d="M13.4745 9.00543C14.9305 9.00543 16.1105 7.82536 16.1105 6.36942C16.1105 4.91349 14.9305 3.74091 13.4745 3.74091C12.0186 3.74091 10.846 4.91349 10.846 6.36942C10.846 7.82536 12.0186 9.00543 13.4745 9.00543ZM23.9921 28.2628C24.68 28.2628 25.2369 27.6963 25.2369 27.0159V21.0112C25.2369 20.5662 25.0015 20.235 24.6863 19.9687L20.0429 16.1402L19.1246 11.1612C19.0405 10.6573 19.1012 10.1777 19.3451 9.68769L23.2641 1.85934C23.574 1.24177 23.3152 0.488951 22.6976 0.179108C22.0801 -0.126517 21.3273 0.118405 21.0216 0.724263L17.1709 8.44715C16.9034 8.97989 16.523 9.32933 15.953 9.5616L9.19179 12.3675L6.48054 10.1932C6.30452 10.0598 6.1039 10.0055 5.92788 9.99708V6.62677H4.44359V11.1312C4.44359 11.5401 4.57555 11.9011 4.89289 12.1556L8.23343 14.8101C8.65414 15.1371 9.1332 15.1179 9.66359 14.9006L13.3759 13.3465C13.843 13.1428 14.0923 13.4041 14.1467 13.7367L15.9758 23.8237L10.922 25.8457C10.2905 26.0927 9.97109 26.82 10.216 27.4727C10.5078 28.1789 11.2149 28.4065 11.8451 28.1531L17.8498 25.7585C18.3929 25.5391 18.6772 25.0036 18.6399 24.4434L18.2958 19.7777C18.2649 19.3001 18.7789 19.0219 19.1562 19.2766L22.7431 21.6799V27.0159C22.7431 27.6963 23.2904 28.2628 23.9921 28.2628ZM5.19054 0.310128C3.4025 0.310128 2 1.72646 2 3.52622C2 5.15559 3.395 6.9427 5.19054 7.53919C6.9882 6.9427 8.36937 5.15559 8.36937 3.52622C8.36937 1.72646 6.96898 0.310128 5.19054 0.310128ZM5.19054 1.79442C6.1475 1.79442 6.88508 2.55333 6.88508 3.56138C6.88508 4.54599 6.17422 5.59154 5.19054 5.93888C4.20476 5.59154 3.48429 4.54599 3.48429 3.56138C3.48429 2.55333 4.21976 1.79442 5.19054 1.79442Z" fill="black"/>
</svg>
