<svg width="28" height="28" viewBox="0 0 28 28" fill="none" xmlns="http://www.w3.org/2000/svg">
<path d="M14.105 26.21C20.7369 26.21 26.2121 20.7273 26.2121 14.105C26.2121 7.47312 20.7273 2 14.0954 2C7.47523 2 2 7.47312 2 14.105C2 20.7273 7.48484 26.21 14.105 26.21ZM14.105 23.8255C8.71085 23.8255 4.39412 19.4991 4.39412 14.105C4.39412 8.71085 8.70124 4.38452 14.0954 4.38452C19.4895 4.38452 23.8276 8.71085 23.8276 14.105C23.8276 19.4991 19.4991 23.8255 14.105 23.8255Z" fill="black"/>
<path d="M19.5467 8.62317C18.0582 7.14427 15.4925 7.33927 13.7877 9.03239C12.8148 10.0329 12.3896 11.2829 12.3833 12.4827C12.3556 14.2695 12.1808 15.267 10.5207 16.8995L11.2726 17.6492C12.9146 15.9891 13.8812 15.8473 15.6756 15.7962C16.8967 15.759 18.1253 15.3669 19.1258 14.3802C20.8307 12.6657 21.0353 10.0979 19.5467 8.62317ZM18.7747 9.38559C19.8575 10.4663 19.6839 12.293 18.3613 13.606C17.027 14.9286 15.2141 15.1119 14.1409 14.027C13.0485 12.958 13.2317 11.1333 14.5756 9.80653C15.8886 8.48606 17.7036 8.30278 18.7747 9.38559ZM8.00586 19.7527L8.39164 20.1523C8.68133 20.442 9.10625 20.442 9.39594 20.1523L11.6593 17.8752C11.949 17.5737 11.949 17.1765 11.6593 16.8751L11.2735 16.4851C10.9934 16.1975 10.5706 16.1975 10.2809 16.4851L8.00586 18.774C7.72789 19.0637 7.71617 19.463 8.00586 19.7527ZM19.1645 13.3808L19.7408 12.7756L15.4614 8.48653L14.8658 9.08208L19.1645 13.3808ZM17.5574 14.9591L18.1721 14.3806L13.8735 10.084L13.2779 10.67L17.5574 14.9591ZM13.2395 12.8909L13.6028 13.7187L18.4089 8.91474L17.6919 8.44809L13.2395 12.8909ZM14.6249 14.6087L15.3845 15.0071L19.7985 10.6027L19.3201 9.87614L14.6249 14.6087Z" fill="black"/>
</svg>
