<svg width="29" height="28" viewBox="0 0 29 28" fill="none" xmlns="http://www.w3.org/2000/svg">
<path d="M6.65425 7.26453C8.10058 7.26453 9.28277 6.08234 9.28277 4.61679C9.28277 3.17047 8.10058 2 6.65425 2C5.20793 2 4.01613 3.17047 4.01613 4.61679C4.01613 6.08234 5.20793 7.26453 6.65425 7.26453ZM4.0002 22.73C4.86856 22.403 5.62769 21.9474 6.54738 21.6108L6.73277 19.9547C6.7541 19.8279 6.92988 19.8024 6.97886 19.9079L7.67261 21.3017C8.04129 21.226 8.443 21.1812 8.9141 21.1812C9.56636 21.1812 10.0846 21.2907 10.5357 21.4704L9.26144 18.0636V10.9435C9.26144 9.60265 8.31785 8.48867 6.66597 8.48867H6.10676C5.13527 8.48867 4.02551 8.61968 3.03176 9.59421L0.344181 12.2701C-0.116834 12.729 -0.112615 13.5169 0.344181 13.9641L4.0002 17.5733V22.73ZM4.02551 14.307L2.85105 13.123L3.69597 12.2663C3.82394 12.1383 4.02551 12.2141 4.02551 12.3997V14.307ZM1.8784 19.3327L26.9528 3.94976C27.3135 3.72312 27.4081 3.27945 27.1698 2.91125C26.9591 2.55265 26.5133 2.45586 26.1568 2.68039L1.09207 18.0559C0.73137 18.2825 0.624964 18.7379 0.861213 19.0944C1.07613 19.4508 1.5198 19.5573 1.8784 19.3327ZM1.43051 26.3647H2.6659C5.87074 26.3647 6.57293 24.4205 8.71769 24.4205C10.7886 24.4205 11.5625 26.3647 14.7695 26.3647C17.9764 26.3647 18.7503 24.4205 20.8213 24.4205C22.966 24.4205 23.6682 26.3647 26.8731 26.3647H28.1085C28.5118 26.3647 28.8247 26.0497 28.8247 25.6484C28.8247 25.2451 28.5118 24.9205 28.1085 24.9205H26.8731C24.6463 24.9205 23.8951 22.9763 20.8213 22.9763C17.8213 22.9763 16.9963 24.9205 14.7695 24.9205C12.5427 24.9205 11.7177 22.9763 8.71769 22.9763C5.63426 22.9763 4.89269 24.9205 2.6659 24.9205H1.43051C1.02715 24.9205 0.702542 25.2451 0.702542 25.6484C0.702542 26.0497 1.02715 26.3647 1.43051 26.3647Z" fill="black"/>
</svg>
