<svg width="28" height="30" viewBox="0 0 28 30" fill="none" xmlns="http://www.w3.org/2000/svg">
<path d="M7.78054 29.1862C8.49187 29.1862 9.02531 28.6453 9.02531 27.9766V22.3233L12.2644 18.8775C12.3377 18.7999 12.4643 18.8062 12.5313 18.8913L15.6509 23.0646L18.348 28.4238C19.1243 29.988 21.3199 28.8626 20.5713 27.375L15.0279 16.2647C14.5315 15.2761 14.2833 13.9455 14.164 12.5873C14.133 12.1748 14.37 11.9976 14.7218 12.1725L16.8982 13.2783L18.9169 17.3156C19.6655 18.8053 21.9239 17.7937 21.1242 16.204L18.9213 11.812C18.7978 11.5671 18.6115 11.3787 18.3666 11.2552L15.2156 9.67968C14.2772 9.20461 13.309 9.0225 12.4237 8.79984C11.4075 8.55164 10.5094 8.23945 9.90632 7.37648L8.47992 5.30343V1.21922C8.47992 0.552655 7.91132 0 7.23515 0C6.55687 0 6 0.552655 6 1.21922V5.69742C6 5.97 6.06703 6.15843 6.22148 6.38953L8.73539 10.0134C8.95805 10.3394 9.09234 10.5483 9.13922 11.0885C9.23508 12.3998 9.51633 14.8287 10.0458 16.5959L6.79453 21.1137C6.62953 21.3586 6.56883 21.596 6.56883 21.8313V27.9766C6.56883 28.6453 7.10015 29.1862 7.78054 29.1862ZM13.2745 7.56375C14.7208 7.56375 15.8913 6.39328 15.8913 4.92773C15.8913 3.48141 14.7208 2.30883 13.2745 2.30883C11.809 2.30883 10.6364 3.48141 10.6364 4.92773C10.6364 6.39328 11.809 7.56375 13.2745 7.56375Z" fill="black"/>
</svg>
