<svg width="28" height="29" viewBox="0 0 28 29" fill="none" xmlns="http://www.w3.org/2000/svg">
<path d="M13.5733 5.95171C15.0196 5.95171 16.2018 4.78125 16.2018 3.30609C16.2018 1.86937 15.0196 0.687188 13.5733 0.687188C12.1077 0.687188 10.9352 1.86937 10.9352 3.30609C10.9352 4.78125 12.1077 5.95171 13.5733 5.95171ZM5.23539 28.7297C5.77422 29.0097 6.56218 28.9022 6.93062 28.2356L9.9196 22.8562L11.6467 18.9769C11.6903 18.8737 11.8265 18.8365 11.9137 18.9152L16.5527 22.2778V27.6201C16.5527 28.3197 17.1095 28.8745 17.8016 28.8745C18.5012 28.8745 19.0464 28.3197 19.0464 27.6201V21.7209C19.0464 21.3684 18.9484 20.9958 18.6641 20.7349L13.7437 16.0861L14.1817 12.5231C14.1934 12.3888 14.3767 12.3771 14.4236 12.4943L15.4544 14.9512C15.6545 15.4315 16.0975 15.7158 16.6033 15.7158H21.6833C22.3733 15.7158 22.9281 15.1631 22.9281 14.471C22.9281 13.7789 22.3733 13.2262 21.6833 13.2262H17.4189L15.723 9.23882C15.2692 8.18437 14.5898 7.58577 13.0645 7.16507L12.3742 6.97335C10.7263 6.50999 9.58562 6.43968 8.2457 7.02234L6.49164 7.77468V3.40757C6.49164 2.7314 5.92515 2.17453 5.24476 2.17453C4.55477 2.17453 4 2.7314 4 3.40757V9.81702C4 10.7093 4.92742 11.1874 5.73882 10.8307L9.06086 9.38061C9.21109 9.32202 9.34117 9.41366 9.31773 9.56929L7.6239 21.8564L4.73922 27.0356C4.41766 27.6201 4.62531 28.4177 5.23539 28.7297ZM20.7937 11.3119H22.278V0.73734C22.278 0.325545 21.9428 0 21.531 0C21.1192 0 20.7937 0.325545 20.7937 0.73734V11.3119ZM19.9012 12.0886H23.1587C23.5876 12.0886 23.7791 11.7225 23.6355 11.3287C23.3341 10.4309 22.5001 9.79828 21.531 9.79828C20.5598 9.79828 19.728 10.4309 19.4223 11.333C19.2808 11.733 19.4828 12.0886 19.9012 12.0886Z" fill="black"/>
</svg>
