<svg width="28" height="30" viewBox="0 0 28 30" fill="none" xmlns="http://www.w3.org/2000/svg">
<path d="M14.3045 5.27413C15.7508 5.27413 16.933 4.08445 16.933 2.63812C16.933 1.1918 15.7508 0 14.3045 0C12.8581 0 11.6684 1.1918 11.6684 2.63812C11.6684 4.08445 12.8581 5.27413 14.3045 5.27413ZM4.99954 14.4183C5.63423 14.5258 6.32844 14.2223 6.48922 13.4674L7.48743 9.00796H9.21899C9.42266 9.00796 9.56985 9.17647 9.51548 9.38226L8.32556 13.9641C7.82071 15.8726 9.07954 17.7555 11.4749 17.1548L15.7461 16.0948L14.9183 20.2094C14.7809 20.8802 15.226 21.5585 15.8947 21.7033C16.4708 21.8247 17.2299 21.4542 17.3865 20.7152L18.5945 14.6637C18.7787 13.7564 18.0066 13.0622 17.2379 13.1367L13.4471 13.5075L14.5573 9.29671C14.6021 9.12725 14.7791 9.02061 14.9443 9.08671L19.344 10.755C20.1788 11.0744 21.0359 10.5921 21.0359 9.71577V4.12335C21.0359 3.43335 20.4791 2.86476 19.7656 2.86476C19.0777 2.86476 18.507 3.43335 18.507 4.12335V7.74796L16.3131 6.89765C15.5717 6.61968 14.7601 6.48117 13.9506 6.48117H6.46204C5.87423 6.48117 5.36634 6.89859 5.24071 7.46718L4.03275 12.9148C3.87407 13.6026 4.30743 14.2969 4.99954 14.4183ZM10.4567 28.965C11.0391 29.0843 11.7995 28.6945 11.9368 27.9769L13.1384 21.9485C13.1661 21.8219 13.1682 21.6909 13.1682 21.5728V17.9726L11.7592 18.3133C11.2023 18.4603 10.6848 18.4955 10.2066 18.454L10.6435 21.6176L9.47282 27.4594C9.33759 28.1451 9.76673 28.8255 10.4567 28.965ZM15.1852 26.504H22.9517C23.3635 26.504 23.6987 26.1689 23.6987 25.7571C23.6987 25.3432 23.3635 25.0198 22.9517 25.0198H15.1852C14.7734 25.0198 14.4383 25.3432 14.4383 25.7571C14.4383 26.1689 14.7734 26.504 15.1852 26.504ZM13.9402 29.2905H24.1227C24.5366 29.2905 24.8696 28.9575 24.8696 28.5436C24.8696 28.1318 24.5366 27.8062 24.1227 27.8062H13.9402C13.5284 27.8062 13.2029 28.1318 13.2029 28.5436C13.2029 28.9575 13.5284 29.2905 13.9402 29.2905Z" fill="black"/>
</svg>
