<svg width="28" height="28" viewBox="0 0 28 28" fill="none" xmlns="http://www.w3.org/2000/svg">
<path d="M14.105 26.21C20.7369 26.21 26.2121 20.7273 26.2121 14.105C26.2121 7.47312 20.7273 2 14.0954 2C7.47523 2 2 7.47312 2 14.105C2 20.7273 7.48484 26.21 14.105 26.21ZM14.105 23.8255C8.71085 23.8255 4.39412 19.4991 4.39412 14.105C4.39412 8.71085 8.70124 4.38452 14.0954 4.38452C19.4895 4.38452 23.8276 8.71085 23.8276 14.105C23.8276 19.4991 19.4991 23.8255 14.105 23.8255Z" fill="black"/>
<path d="M14.1054 20.2817C17.4691 20.2817 20.2821 17.4687 20.2821 14.105C20.2821 10.7371 17.4755 7.93042 14.0958 7.93042C10.7321 7.93042 7.94043 10.7413 7.94043 14.105C7.94043 17.4666 10.7459 20.2817 14.1054 20.2817ZM14.1054 8.95346C14.7406 8.95346 15.3481 9.06221 15.9129 9.28604L14.513 10.3949V12.0544L16.0186 13.205L17.5802 12.5776L18.1102 10.8653C18.8231 11.7498 19.2708 12.8677 19.2708 14.1062L17.891 13.3437L16.241 14.0084L15.6748 15.7402L16.5759 16.8767L18.4247 16.898C17.7586 17.9361 16.7419 18.7034 15.5536 19.0541L15.9321 17.3982L15.1024 16.3332H13.0945L12.267 17.3898L12.6572 19.0541C11.4593 18.7034 10.4405 17.9298 9.77441 16.8959L11.6349 16.8725L12.5264 15.7456L11.9602 14.0084L10.3123 13.3437L8.93254 14.1062C8.93254 12.8677 9.38019 11.7498 10.1028 10.8653L10.6231 12.5776L12.1847 13.205L13.6978 12.0544V10.3991L12.2883 9.28604C12.8531 9.06643 13.482 8.95346 14.1054 8.95346Z" fill="black"/>
</svg>
