<svg width="29" height="28" viewBox="0 0 29 28" fill="none" xmlns="http://www.w3.org/2000/svg">
<path d="M10.9237 14.0543C12.3701 14.0543 13.5501 12.8817 13.5501 11.4161C13.5501 9.96982 12.3701 8.78974 10.9237 8.78974C9.4582 8.78974 8.28562 9.96982 8.28562 11.4161C8.28562 12.8817 9.4582 14.0543 10.9237 14.0543ZM12.229 23.2125C12.8297 22.8525 13.4517 22.5393 14.1014 22.2911V17.8127C14.1014 17.6613 14.2219 17.5429 14.3733 17.5429H15.8531C16.5452 17.5429 17.1117 16.9765 17.1117 16.2865V8.83498L14.5966 10.799V15.0375H10.3938C9.29906 15.0375 8.54296 15.7957 8.54296 16.8766V19.1022C9.88593 20.0875 11.1544 21.4179 12.229 23.2125ZM19.0029 14.9791C19.6929 14.9791 20.2636 14.4361 20.2636 13.7344V5.69295L17.7368 8.20592V13.7344C17.7368 14.4361 18.3171 14.9791 19.0029 14.9791ZM14.5966 11.7937H16.1044V10.6054L24.4263 2.28771C24.72 1.99193 24.72 1.52271 24.4263 1.22904C24.1305 0.923653 23.6517 0.923653 23.3559 1.22904L14.9639 9.61357C14.7051 9.86693 14.5966 10.1735 14.5966 10.5834V11.7937ZM0.746949 19.9861C4.31343 19.9861 8.25421 21.3316 10.5361 27.2163C10.7841 27.8889 11.5577 28.0188 12.0143 27.5643C14.6519 24.9171 17.6744 24.052 22.0591 25.2888C22.4667 25.3952 22.7965 25.2197 22.9594 24.828C23.8638 22.7463 25.7156 21.7043 27.9677 21.7043C28.3816 21.7043 28.7147 21.3787 28.7147 20.9669C28.7147 20.553 28.3816 20.22 27.9677 20.22C25.4517 20.22 23.0934 21.4472 21.8601 23.7002C17.6435 22.6741 14.3198 23.5211 11.6055 25.9216C8.97468 19.9654 4.4646 18.5018 0.746949 18.5018C0.323436 18.5018 0 18.8348 0 19.2487C0 19.6626 0.323436 19.9861 0.746949 19.9861Z" fill="black"/>
</svg>
