<svg width="31" height="28" viewBox="0 0 31 28" fill="none" xmlns="http://www.w3.org/2000/svg">
<path d="M2.3782 20.3086H4.04272V18.3399H2.48272C2.1778 18.3399 1.96663 18.117 1.96663 17.8217V10.2151C1.96663 9.91014 2.1778 9.67764 2.48272 9.67764H4.04272V7.71312H2.3782C1.03898 7.71312 0 8.74999 0 10.0892V17.9422C0 19.2654 1.03898 20.3086 2.3782 20.3086ZM6.45772 23.0314H7.27076C9.32693 23.0314 10.567 21.7815 10.567 19.6843V8.36843C10.567 6.26914 9.33654 5 7.28998 5H6.34029C4.41327 5 3.25218 6.26914 3.25218 8.36843V19.6843C3.25218 21.7815 4.45381 23.0314 6.45772 23.0314ZM6.48326 20.9391C5.77521 20.9391 5.34232 20.4528 5.34232 19.6337V8.41695C5.34232 7.5903 5.73678 7.09225 6.37545 7.09225H7.25694C8.01303 7.09225 8.47475 7.5903 8.47475 8.41695V19.6337C8.47475 20.4528 8.01303 20.9391 7.23772 20.9391H6.48326ZM10.0155 13.1454H20.7698V11.0532H10.0155V13.1454ZM10.0155 16.9665H20.7698V14.8742H10.0155V16.9665ZM23.5125 23.0314H24.3276C26.3315 23.0314 27.5332 21.7815 27.5332 19.6843V8.36843C27.5332 6.26914 26.37 5 24.4354 5H23.4933C21.4392 5 20.2183 6.26914 20.2183 8.36843V19.6843C20.2183 21.7815 21.4584 23.0314 23.5125 23.0314ZM23.5476 20.9391C22.7723 20.9391 22.3085 20.4528 22.3085 19.6337V8.41695C22.3085 7.5903 22.7627 7.09225 23.5284 7.09225H24.4099C25.0486 7.09225 25.443 7.5903 25.443 8.41695V19.6337C25.443 20.4528 25.0101 20.9391 24.3021 20.9391H23.5476ZM26.7426 20.3086H28.4071C29.7464 20.3086 30.7853 19.2654 30.7853 17.9422V10.0892C30.7853 8.74999 29.7464 7.71312 28.4071 7.71312H26.7426V9.67764H28.3005C28.5958 9.67764 28.8187 9.91014 28.8187 10.2151V17.8217C28.8187 18.117 28.5958 18.3399 28.3005 18.3399H26.7426V20.3086Z" fill="black"/>
</svg>
