<svg width="28" height="28" viewBox="0 0 28 28" fill="none" xmlns="http://www.w3.org/2000/svg">
<path d="M14.105 26.21C20.7369 26.21 26.2121 20.7273 26.2121 14.105C26.2121 7.47312 20.7273 2 14.0954 2C7.47523 2 2 7.47312 2 14.105C2 20.7273 7.48484 26.21 14.105 26.21ZM14.105 23.8255C8.71085 23.8255 4.39412 19.4991 4.39412 14.105C4.39412 8.71085 8.70124 4.38452 14.0954 4.38452C19.4895 4.38452 23.8276 8.71085 23.8276 14.105C23.8276 19.4991 19.4991 23.8255 14.105 23.8255Z" fill="black"/>
<path d="M7.9336 13.9461C8.46844 13.2399 9.08953 12.6158 9.79899 12.0704C9.78938 11.5723 9.49969 10.7907 9.00258 10.647C8.35477 11.5866 7.93172 12.8998 7.9336 13.9461ZM10.5359 11.5454C10.7044 11.4387 10.875 11.3342 11.0595 11.2372C10.938 10.2237 10.9648 9.37248 11.1476 8.69467C10.5256 9.04201 9.95789 9.49365 9.48282 10.0273C10.0514 10.2118 10.4006 10.9479 10.5359 11.5454ZM11.79 10.8729C12.0619 10.7429 12.3488 10.6362 12.6303 10.5296C12.6186 10.4241 12.6186 10.3015 12.6186 10.1726C12.6186 9.25857 13.0744 8.45021 13.86 7.94092C13.3878 7.95053 12.5834 8.0935 11.996 8.31217C11.8123 8.87818 11.6791 9.70295 11.79 10.8729ZM13.4353 10.3081C14.1771 10.1098 14.9574 10.0224 15.7536 10.0224C16.951 10.0224 18.1505 10.246 19.1968 10.6646C18.3132 9.36474 16.9395 8.40381 15.3528 8.06209C14.0907 8.46498 13.366 9.25482 13.4353 10.3081ZM8.03977 15.2082C8.27813 16.5031 8.93859 17.6712 9.86555 18.5569C9.22781 16.9105 9.65227 14.8911 9.76829 13.1361C9.10547 13.7412 8.53102 14.4188 8.03977 15.2082ZM10.6019 12.4644C10.5947 15.1594 9.43078 18.0533 11.9191 19.7998C12.5757 20.1005 13.325 20.2787 14.1052 20.2787C14.4162 20.2787 14.7251 20.267 15.034 20.218C12.7674 17.4162 11.6123 14.4324 11.183 12.087C10.9826 12.2021 10.7864 12.3343 10.6019 12.4644ZM11.8922 11.6993C12.2768 13.9681 13.4447 17.0926 15.8923 20.0136C17.2109 19.6077 18.3472 18.773 19.1241 17.6623C18.8644 14.7134 13.996 13.8181 12.856 11.3091C12.5255 11.4061 12.211 11.5458 11.8922 11.6993ZM13.6503 11.0663C14.6611 12.9711 18.7175 13.88 19.7194 16.6463C20.0743 15.8663 20.2789 15.0139 20.2789 14.105C20.2789 13.3074 20.1167 12.5429 19.8169 11.8402C18.5417 11.1586 17.2238 10.82 15.7536 10.82C15.0382 10.82 14.3325 10.9053 13.6503 11.0663Z" fill="black"/>
</svg>
