<svg width="28" height="28" viewBox="0 0 28 28" fill="none" xmlns="http://www.w3.org/2000/svg">
<path d="M7.96887 16.0683L9.46535 14.4827L5.32722 6.39892L7.05364 3.76594L11.8829 13.248L14.0811 12.6954L8.4962 2.3529H20.3678L14.7829 12.6954L16.981 13.248L21.8125 3.76594L23.5485 6.39892L19.3986 14.4827L20.8951 16.0683L25.6925 7.12782C25.9468 6.67993 25.9288 6.15657 25.6468 5.73845L22.4078 0.805563C22.1258 0.412987 21.7717 0.229004 21.2514 0.229004H7.62223C7.09231 0.229004 6.73817 0.412987 6.46794 0.805563L3.21716 5.73845C2.94482 6.15657 2.92677 6.67993 3.17357 7.12782L7.96887 16.0683ZM9.93622 7.68962H18.9416V5.61635H9.93622V7.68962ZM14.4379 27.3544C18.7918 27.3544 22.3161 23.828 22.3161 19.474C22.3161 15.1104 18.7918 11.5861 14.4379 11.5861C10.0743 11.5861 6.54786 15.1104 6.54786 19.474C6.54786 23.828 10.0743 27.3544 14.4379 27.3544ZM14.4379 25.2305C11.2527 25.2305 8.67175 22.6591 8.67175 19.474C8.67175 16.2909 11.2431 13.71 14.4379 13.71C17.6113 13.71 20.1922 16.2813 20.1922 19.474C20.1922 22.6495 17.6209 25.2305 14.4379 25.2305ZM12.4239 23.1644L14.4475 21.6886L16.4476 23.1644C16.9119 23.4977 17.3825 23.1548 17.21 22.6289L16.4033 20.243L18.4461 18.7809C18.8561 18.4945 18.7337 17.9004 18.1639 17.9025L15.6608 17.9259L14.8946 15.5283C14.7296 15.0066 14.1418 15.0066 13.9789 15.5283L13.2107 17.9259L10.7118 17.9025C10.1516 17.9004 10.0058 18.4849 10.435 18.7905L12.4778 20.2451L11.6689 22.6289C11.4964 23.1506 11.9692 23.4956 12.4239 23.1644Z" fill="black"/>
</svg>
