<svg width="28" height="28" viewBox="0 0 28 28" fill="none" xmlns="http://www.w3.org/2000/svg">
<path d="M13.5497 6.01546C15.0057 6.01546 16.1782 4.84289 16.1782 3.38695C16.1782 1.93101 15.0057 0.750937 13.5497 0.750937C12.0938 0.750937 10.9116 1.93101 10.9116 3.38695C10.9116 4.84289 12.0938 6.01546 13.5497 6.01546ZM23.4507 8.23757C22.9428 7.72968 22.1686 7.74351 21.665 8.23757L18.8098 11.0672L15.9525 8.1907C15.3732 7.60171 14.4615 7.2396 13.5497 7.2396H5.76825C5.21771 7.2396 4.75669 7.57077 4.56287 8.11382L2.70193 13.7041C2.40591 14.6018 2.92552 15.2173 3.55271 15.3663C4.13091 15.5229 4.82302 15.278 5.09138 14.4921L6.67763 9.7664H9.16575C9.39802 9.7664 9.55154 9.971 9.47161 10.2033L7.91302 14.8908C7.38474 16.4501 7.86615 17.9571 9.62138 18.7261L14.6569 20.9344L16.3571 26.8903C16.5807 27.6708 17.2962 27.904 17.8979 27.7432C18.507 27.5845 19.0212 27.0159 18.7859 26.1886L16.9132 19.6502C16.8036 19.2977 16.629 19.0348 16.2115 18.8526L12.3092 17.1279L14.375 10.905C14.4666 10.6493 14.7565 10.5661 14.9536 10.7653L17.91 13.7548C18.402 14.2467 19.2134 14.2488 19.7096 13.7548L23.4507 10.0212C23.9564 9.50788 23.9564 8.74124 23.4507 8.23757ZM8.2988 19.35L7.72341 22.6085L2.65271 25.4379C1.8999 25.8553 1.86685 26.6475 2.20763 27.2001C2.52498 27.7134 3.19154 28.0371 3.89747 27.6431L9.50161 24.5412C9.85833 24.3314 9.98395 24.0919 10.1032 23.7201L11.1209 20.6822L9.14115 19.8164C8.83341 19.6812 8.55544 19.5225 8.2988 19.35ZM24.3914 6.01968C24.8194 5.8057 25.0761 5.39156 25.0761 4.94015V1.2457C25.0761 0.563202 24.5501 0 23.8538 0H21.248C20.5634 0 20.0183 0.561092 20.0183 1.2457V4.94015C20.0183 5.39156 20.2749 5.8057 20.7104 6.01968L22.5509 6.96023L24.3914 6.01968ZM21.8136 9.08859H23.2979V5.59031H21.8136V9.08859Z" fill="black"/>
</svg>
