<svg width="28" height="28" viewBox="0 0 28 28" fill="none" xmlns="http://www.w3.org/2000/svg">
<path d="M2 14.1071C2 16.0452 2.4657 17.8723 3.30547 19.5045L5.33914 17.4709C5.63188 17.1802 6.07578 17.1823 6.3664 17.4709C6.65281 17.7657 6.66875 18.2054 6.3664 18.5077L4.05922 20.817C4.34797 21.2293 4.64305 21.6277 4.98078 21.9931L22.0006 4.97867C21.6256 4.64305 21.2155 4.34047 20.8128 4.06133L18.4801 6.39406C18.1916 6.68468 17.7338 6.67297 17.4432 6.39406C17.1547 6.10344 17.1526 5.66164 17.4432 5.3593L19.4949 3.31719C17.8702 2.46781 16.0355 2 14.0954 2C7.47523 2 2 7.47523 2 14.1071ZM16.6681 8.20812L15.0458 9.83468C14.7552 10.1274 14.2995 10.1094 14.0089 9.83468C13.7258 9.53984 13.7162 9.07672 14.0089 8.7957L15.6409 7.17125C15.9294 6.89024 16.3871 6.88063 16.6681 7.17125C16.9587 7.45977 16.9566 7.91539 16.6681 8.20812ZM13.2413 11.6445L11.6052 13.269C11.3241 13.55 10.8727 13.55 10.58 13.269C10.2915 12.9762 10.2915 12.5227 10.58 12.2321L12.2045 10.6077C12.4951 10.3191 12.9486 10.3191 13.2413 10.6077C13.5223 10.8908 13.5341 11.3656 13.2413 11.6445ZM9.8007 15.0734L8.18797 16.6958C7.88773 16.9864 7.44172 16.9768 7.1532 16.6958C6.86047 16.4052 6.86047 15.9634 7.1532 15.6706L8.76805 14.0366C9.05867 13.7438 9.51219 13.7534 9.8007 14.0366C10.0817 14.3272 10.103 14.7807 9.8007 15.0734ZM14.105 26.2121C20.7369 26.2121 26.2121 20.7273 26.2121 14.1071C26.2121 12.1766 25.7464 10.3419 24.9045 8.71929L22.873 10.7455C22.5727 11.0457 22.1342 11.0361 21.8457 10.7455C21.5668 10.4506 21.5455 10.0088 21.8457 9.70859L24.1529 7.4089C23.8758 6.99875 23.5829 6.60242 23.2473 6.23703L6.23375 23.2536C6.60664 23.5775 7.00086 23.878 7.39929 24.155L9.72992 21.8244C10.0323 21.5124 10.4783 21.5337 10.7668 21.8244C11.0574 22.1129 11.067 22.5493 10.7668 22.8474L8.70968 24.9066C10.3419 25.7389 12.1669 26.2121 14.105 26.2121ZM21.0589 12.5478L19.4441 14.1819C19.1513 14.4746 18.6999 14.4629 18.4093 14.1819C18.1304 13.8816 18.1166 13.4377 18.4093 13.145L20.0316 11.5226C20.3244 11.2299 20.7683 11.2299 21.0589 11.5226C21.3612 11.8037 21.3516 12.2551 21.0589 12.5478ZM17.63 15.9842L16.0055 17.5991C15.717 17.8993 15.2614 17.8993 14.9687 17.5991C14.6898 17.318 14.678 16.8528 14.9687 16.5622L16.6069 14.9473C16.8859 14.6684 17.349 14.6684 17.63 14.9473C17.9206 15.2401 17.9206 15.6861 17.63 15.9842ZM14.2032 19.4131L12.5712 21.0376C12.2806 21.3186 11.8346 21.3282 11.544 21.0376C11.2512 20.7469 11.2533 20.2934 11.544 20.0007L13.1663 18.3741C13.4569 18.0814 13.9126 18.1091 14.2032 18.3741C14.4842 18.6786 14.4959 19.13 14.2032 19.4131Z" fill="black"/>
</svg>
