<svg width="28" height="28" viewBox="0 0 28 28" fill="none" xmlns="http://www.w3.org/2000/svg">
<path d="M14.105 26.21C20.7369 26.21 26.2121 20.7273 26.2121 14.105C26.2121 7.47312 20.7273 2 14.0954 2C7.47523 2 2 7.47312 2 14.105C2 20.7273 7.48484 26.21 14.105 26.21Z" fill="black"/>
<path d="M7.68652 14.105C7.68652 13.5041 7.77394 12.9116 7.93589 12.3596C8.38449 12.4651 8.81925 12.6015 9.24652 12.8178L9.13777 13.0215C9.00464 13.2526 9.08878 13.5209 9.30605 13.6189C9.5041 13.7286 9.75652 13.6721 9.88214 13.4485L9.99839 13.2331C10.2042 13.3536 10.4004 13.5092 10.5827 13.6564L10.4707 13.7609C10.312 13.9292 10.3216 14.2114 10.4824 14.3701C10.6645 14.533 10.9211 14.5426 11.0936 14.3797L11.2057 14.2676C11.4093 14.4755 11.5767 14.709 11.7536 14.9382L11.5968 15.031C11.3892 15.1449 11.3168 15.4271 11.4424 15.6209C11.5617 15.8319 11.8141 15.8989 12.0143 15.7892L12.1711 15.6943C12.3012 15.9469 12.4003 16.1975 12.4974 16.4598L12.2745 16.5141C12.0509 16.5769 11.9156 16.8177 11.9784 17.0584C12.0274 17.2766 12.267 17.4226 12.4917 17.3619L12.7188 17.2979C12.754 17.5719 12.7849 17.8245 12.7988 18.0793L12.5834 18.0697C12.3309 18.0697 12.1563 18.2848 12.1467 18.5159C12.1467 18.7437 12.3256 18.9451 12.5641 18.9547L12.787 18.9643C12.7327 19.4225 12.6485 19.8732 12.5025 20.3218C9.75675 19.5814 7.68652 17.052 7.68652 14.105ZM14.1143 20.5444C13.8319 20.5444 13.557 20.5231 13.2724 20.4784C13.4323 19.9925 13.5281 19.4832 13.5921 18.9739L13.8724 18.9835C14.1131 18.9835 14.2995 18.7876 14.2995 18.5544C14.2995 18.3233 14.1227 18.1081 13.882 18.0985H13.6156C13.6017 17.7713 13.5687 17.4249 13.5101 17.1019L13.7649 17.0337C13.9884 16.9752 14.1195 16.7323 14.0684 16.4895C14.0077 16.2638 13.7724 16.1253 13.5434 16.1839L13.3003 16.2638C13.1916 15.9249 13.0669 15.6019 12.9091 15.2886L13.1702 15.1426C13.3896 15.0212 13.4461 14.7432 13.3289 14.5494C13.2033 14.3354 12.9541 14.2501 12.7432 14.379L12.4725 14.5229C12.27 14.2137 12.0345 13.9409 11.7893 13.6723L12.0152 13.4368C12.1898 13.2718 12.1835 13.0076 12.0056 12.8511C11.8118 12.6744 11.5743 12.669 11.4082 12.833L11.1567 13.0611C10.9254 12.8745 10.6706 12.6741 10.3945 12.5185L10.5171 12.3064C10.6385 12.0966 10.5586 11.825 10.3467 11.7228C10.1369 11.6068 9.87816 11.6738 9.76097 11.8869L9.63628 12.1011C9.17597 11.8805 8.69972 11.7186 8.20214 11.6035C9.1823 9.31811 11.4794 7.66553 14.1047 7.66553C14.3679 7.66553 14.6386 7.68897 14.9018 7.7199C14.7537 8.22709 14.6407 8.72467 14.5938 9.23397L14.3562 9.22436C14.1059 9.22647 13.912 9.4299 13.912 9.65561C13.9057 9.8942 14.0803 10.0997 14.3252 10.1094H14.5821C14.5938 10.4227 14.6173 10.7436 14.6813 11.0548L14.3562 11.1326C14.1038 11.1976 13.9899 11.4383 14.0506 11.6597C14.1134 11.8887 14.3285 12.0378 14.5638 11.9633L14.8814 11.8854C14.9806 12.2298 15.1287 12.5708 15.2822 12.9055L15.0253 13.0515C14.8315 13.1516 14.7783 13.4178 14.8784 13.6372C14.9902 13.8331 15.2468 13.9194 15.4641 13.7959L15.7113 13.6498C15.9096 13.944 16.1217 14.218 16.3669 14.4887L16.1824 14.6635C16.0238 14.8297 16.0409 15.0959 16.2155 15.2609C16.3795 15.4079 16.6458 15.4355 16.8108 15.2705L16.9974 15.084C17.2563 15.2982 17.5324 15.5103 17.8245 15.6777L17.6923 15.9015C17.5784 16.1112 17.6529 16.3775 17.8563 16.4989C18.064 16.6224 18.3345 16.5287 18.4441 16.321L18.5806 16.0855C19.0451 16.3039 19.5309 16.468 20.052 16.5692C19.0622 18.8898 16.7534 20.5444 14.1143 20.5444ZM20.5538 14.105C20.5538 14.7038 20.4759 15.275 20.3065 15.8194C19.8462 15.7332 19.3997 15.5968 18.9628 15.3901L19.0716 15.1885C19.193 14.9691 19.1206 14.7221 18.9012 14.6007C18.7127 14.4793 18.4348 14.5688 18.3272 14.7807L18.2206 14.9727C17.9892 14.8405 17.7813 14.6752 17.5734 14.5025L17.7387 14.3394C17.9208 14.153 17.8835 13.873 17.7345 13.7323C17.5491 13.5619 17.3116 13.5343 17.1157 13.7323L16.9568 13.8912C16.7702 13.6834 16.6071 13.4637 16.4398 13.2324L16.5966 13.1396C16.7979 13.032 16.867 12.8009 16.7552 12.5656C16.6456 12.3559 16.3751 12.2717 16.1695 12.3952L16.0245 12.4784C15.8827 12.2119 15.7835 11.9476 15.6823 11.6874L15.8391 11.633C16.0648 11.5723 16.2012 11.3445 16.1309 11.1197C16.0723 10.8812 15.8529 10.7417 15.6059 10.8066L15.4746 10.8354C15.432 10.5966 15.4106 10.3578 15.3893 10.1286L15.6377 10.1382C15.8784 10.1382 16.0627 9.94647 16.0627 9.69404C16.0723 9.47045 15.8902 9.2649 15.6549 9.2553L15.3947 9.24569C15.4512 8.78326 15.5428 8.32506 15.6909 7.86686C18.4547 8.5967 20.5538 11.1378 20.5538 14.105Z" fill="white"/>
</svg>
