<svg width="28" height="30" viewBox="0 0 28 30" fill="none" xmlns="http://www.w3.org/2000/svg">
<path d="M10.9887 5.2666C12.435 5.2666 13.6268 4.08653 13.6268 2.6402C13.6268 1.19387 12.435 0.0020752 10.9887 0.0020752C9.54445 0.0020752 8.36226 1.19387 8.36226 2.6402C8.36226 4.08653 9.54445 5.2666 10.9887 5.2666ZM12.7793 23.4005C13.3458 23.4942 13.9549 23.2195 14.1764 22.4773L15.7732 17.1255C15.9968 16.3652 15.6752 15.7083 14.9618 15.4495L10.856 13.973L11.4633 9.74551C11.4942 9.53433 11.6606 9.47035 11.8622 9.55566L13.931 10.4974C14.2069 10.6305 14.4305 10.6636 14.7884 10.7008L20.0229 11.2345C20.7129 11.3091 21.3305 10.8171 21.3794 10.1367C21.4401 9.47012 20.9482 8.85465 20.2678 8.79184L14.9362 8.26989L10.9043 6.41739C9.14695 5.62286 7.32257 6.51114 7.09148 8.27692L6.4289 13.324C6.23508 14.8289 7.17656 16.1911 8.64421 16.5394L13.0952 17.561L11.8083 21.7713C11.5357 22.6753 12.1245 23.2908 12.7793 23.4005ZM4.60289 27.1235C5.11617 27.4057 5.84765 27.3354 6.31617 26.6337L9.52359 21.839C9.65882 21.641 9.73757 21.4057 9.78444 21.1202L10.2661 18.1483L8.39085 17.7192C8.09695 17.6543 7.81476 17.5563 7.53679 17.4211L7.31625 20.7178L4.27922 25.2654C3.74039 26.0843 4.05445 26.8158 4.60289 27.1235ZM23.5959 7.57098C23.399 7.17723 22.9692 7.02723 22.583 7.2145C22.0638 7.46715 21.6675 7.67598 21.2733 7.8827C21.7563 8.12856 22.1426 8.53707 22.3502 9.02855C22.6071 8.88465 22.8715 8.75035 23.2512 8.5509C23.6194 8.36363 23.7736 7.93168 23.5959 7.57098ZM7.50702 29.3095H11.917C12.3288 29.3095 12.6619 28.9861 12.6619 28.5722V26.5345H16.3387C16.7388 26.5345 17.074 26.1876 17.074 25.7737V23.734H19.3561C19.7583 23.734 20.0892 23.4105 20.103 23.0008L20.5195 12.2979C20.3348 12.2979 20.273 12.3075 20.1666 12.3075C19.7824 12.3267 19.3833 12.2831 19.0373 12.232L18.6347 22.2358H16.3387C15.911 22.2358 15.5918 22.5497 15.5918 22.9732V25.0385H11.917C11.501 25.0385 11.1797 25.3619 11.1797 25.7737V27.8252H7.50702C7.09312 27.8252 6.74836 28.1721 6.74836 28.5722C6.74836 28.9722 7.10695 29.3095 7.50702 29.3095Z" fill="black"/>
</svg>
