<svg width="28" height="28" viewBox="0 0 28 28" fill="none" xmlns="http://www.w3.org/2000/svg">
<path d="M2.35622 17.1802L11.7598 26.5838C13.5532 28.3772 15.3886 28.3869 17.1703 26.6147L26.6145 17.161C28.3887 15.3868 28.377 13.5439 26.5857 11.7505L17.1896 2.35437C15.3982 0.563039 13.5629 0.54382 11.7811 2.32554L2.32528 11.7697C0.543563 13.5535 0.56278 15.3868 2.35622 17.1802ZM4.08261 15.6622C3.30753 14.8775 3.27987 14.0787 4.09222 13.2664L13.2682 4.09037C14.0806 3.27802 14.8793 3.29607 15.664 4.08076L24.8593 13.276C25.6343 14.0511 25.662 14.8615 24.8497 15.6718L15.6736 24.8499C14.8613 25.6602 14.0433 25.6346 13.2778 24.8691L4.08261 15.6622Z" fill="black"/>
<path d="M17.1684 21.4266C17.5465 21.4266 17.9034 21.17 17.9034 20.731C17.9034 20.5552 17.865 20.4029 17.7649 20.2069L16.4243 17.5093C16.2794 17.2163 16.1376 17.0192 16.0057 16.8341L15.2233 15.7011L15.2915 15.5124C15.5418 14.8165 15.6422 14.3626 15.689 13.6742L15.8158 11.8646C15.8904 10.8526 15.3056 10.0449 14.2092 10.0449C13.4911 10.0449 12.8336 10.4124 12.1411 11.0785L11.0503 12.1088C10.6913 12.4477 10.5879 12.7311 10.5506 13.1785L10.4142 14.7151C10.377 15.1817 10.6486 15.4948 11.0747 15.5279C11.4794 15.5534 11.7766 15.3106 11.8235 14.8046L11.9503 13.1677L12.5362 12.6849C12.6993 12.5473 12.885 12.6305 12.8636 12.863L12.7582 14.2337C12.6879 15.0083 13.0746 15.5644 13.455 16.0344L14.7668 17.6851C14.8978 17.8395 14.9318 17.9129 15.0042 18.0502L16.4376 20.9462C16.59 21.2701 16.8499 21.4266 17.1684 21.4266ZM10.9495 21.4266C11.1785 21.4266 11.3735 21.3404 11.5162 21.1784L13.5996 18.7376C13.8318 18.4627 13.8637 18.4278 13.9181 18.1784L14.0184 17.7357L12.8381 16.2465L12.4971 17.8524L10.582 20.0844C10.4339 20.2655 10.2773 20.4594 10.2773 20.7406C10.2773 21.1625 10.5649 21.4266 10.9495 21.4266ZM17.5678 14.1223H19.1833C19.6755 14.1223 19.9631 13.8486 19.9631 13.4129C19.9631 12.9943 19.6755 12.7109 19.1833 12.7109H17.475L16.4168 11.5259L16.2858 13.3815L16.7261 13.8197C16.9584 14.0616 17.1693 14.1223 17.5678 14.1223ZM15.0808 9.51523C15.9108 9.51523 16.5979 8.83016 16.5979 8.01406C16.5979 7.16281 15.9129 6.49695 15.0808 6.49695C14.2434 6.49695 13.5797 7.16281 13.5797 8.01406C13.5797 8.83016 14.2455 9.51523 15.0808 9.51523Z" fill="black"/>
</svg>
