<svg width="28" height="28" viewBox="0 0 28 28" fill="none" xmlns="http://www.w3.org/2000/svg">
<path d="M14.105 26.21C20.7369 26.21 26.2121 20.7273 26.2121 14.105C26.2121 7.47312 20.7273 2 14.0954 2C7.47523 2 2 7.47312 2 14.105C2 20.7273 7.48484 26.21 14.105 26.21Z" fill="black"/>
<path d="M6.67578 15.9305V12.2869H8.22078C8.41813 12.2869 8.54399 12.4203 8.54399 12.608V15.6094C8.54399 15.8143 8.41813 15.9305 8.22078 15.9305H6.67578ZM8.41766 19.168C7.25961 19.168 6.67578 18.5937 6.67578 17.4591V16.8451H8.26977C8.99516 16.8451 9.46602 16.3913 9.46602 15.6563V12.5846C9.46602 11.8358 8.99516 11.3725 8.26977 11.3725H6.67578V10.7797C6.67578 9.64511 7.25961 9.073 8.41766 9.073H13.6227V11.2925C12.2525 11.5023 11.2201 12.6934 11.2201 14.1146C11.2201 15.5572 12.2525 16.7483 13.6227 16.958V19.168H8.41766ZM13.6227 16.0318C12.755 15.8262 12.1346 15.0727 12.1346 14.1146C12.1346 13.1799 12.755 12.4264 13.6227 12.2187V16.0318ZM14.5351 16.0318V12.2187C15.4144 12.4264 16.0327 13.1799 16.0327 14.1146C16.0327 15.0727 15.4144 15.8262 14.5351 16.0318ZM14.5351 19.168V16.958C15.9148 16.7483 16.9494 15.5572 16.9494 14.1146C16.9494 12.6934 15.9148 11.5023 14.5351 11.2925V9.073H19.771C20.9269 9.073 21.5108 9.64511 21.5108 10.7797V11.3725H19.9168C19.1914 11.3725 18.7302 11.8358 18.7302 12.5846V15.6563C18.7302 16.3913 19.1914 16.8451 19.9168 16.8451H21.5108V17.4591C21.5108 18.5937 20.9269 19.168 19.771 19.168H14.5351ZM21.5108 15.9305H19.9658C19.778 15.9305 19.6522 15.8143 19.6522 15.6094V12.608C19.6522 12.4203 19.778 12.2869 19.9658 12.2869H21.5108V15.9305Z" fill="white"/>
</svg>
