<svg width="28" height="30" viewBox="0 0 28 30" fill="none" xmlns="http://www.w3.org/2000/svg">
<path d="M20.5384 5.38733C21.9751 5.38733 23.1669 4.20514 23.1669 2.75882C23.1669 1.31249 21.9751 0.122803 20.5384 0.122803C19.0921 0.122803 17.9024 1.31249 17.9024 2.75882C17.9024 4.20514 19.0921 5.38733 20.5384 5.38733ZM15.9241 22.0861C16.6375 22.0861 17.1848 21.5196 17.1848 20.8275V15.1179C17.1848 14.7771 17.0687 14.4438 16.8376 14.2298L13.7322 11.1403L16.4936 8.36506C16.6546 8.20404 16.9138 8.20193 17.0769 8.36506L19.0274 10.3315C19.251 10.5668 19.5864 10.6903 19.9058 10.6903H25.6155C26.3172 10.6903 26.874 10.1355 26.874 9.42209C26.874 8.72998 26.3172 8.16561 25.6155 8.16561H20.4255L16.1964 3.91522C15.6564 3.3635 14.8619 3.04827 14.0887 3.04827H9.62429C8.36781 3.04827 7.99515 4.43037 8.78312 5.21623L10.7392 7.16061L9.17406 8.6885C8.14843 9.7024 8.15054 11.4246 9.17406 12.4289L11.2684 14.4998V21.113C11.2684 21.8008 11.8115 22.3694 12.5249 22.3694C13.217 22.3694 13.7856 21.8008 13.7856 21.113V14.7651L14.6676 15.6375V20.8275C14.6676 21.5196 15.2362 22.0861 15.9241 22.0861ZM1.74695 8.60412H13.2965V7.11983H1.74695C1.33516 7.11983 1 7.45498 1 7.86678C1 8.26897 1.33516 8.60412 1.74695 8.60412ZM26.1079 21.63C26.5101 21.63 26.8548 21.2852 26.8548 20.883V9.45092H25.3705V20.883C25.3705 21.2852 25.7036 21.63 26.1079 21.63ZM20.4915 29.5978C20.9033 29.5978 21.2385 29.2647 21.2385 28.8508C21.2385 28.439 20.9033 28.1156 20.4915 28.1156C19.6998 28.1156 19.4708 27.9687 18.8123 27.3218L6.19468 14.6967C5.8914 14.4052 5.42007 14.403 5.14023 14.6967C4.84867 14.9766 4.85078 15.45 5.14023 15.7394L17.9516 28.553C18.7047 29.306 19.5491 29.5978 20.4915 29.5978ZM23.5605 28.9608C23.9722 28.9608 24.2978 28.6277 24.2978 28.2138C24.2978 27.802 23.9722 27.4786 23.5605 27.4786C22.7687 27.4786 22.528 27.3316 21.8694 26.6848L9.25397 14.0693C8.95069 13.7681 8.48898 13.766 8.19953 14.0597C7.91758 14.3491 7.91968 14.8108 8.19953 15.1024L21.0109 27.9159C21.7619 28.669 22.6084 28.9608 23.5605 28.9608Z" fill="black"/>
</svg>
