<svg width="32" height="28" viewBox="0 0 32 28" fill="none" xmlns="http://www.w3.org/2000/svg">
<path d="M0 21.0914C0 23.6016 1.31484 24.8972 3.84421 24.8972H14.9323V19.4789C12.1357 19.1116 10.2563 16.9608 10.2563 13.9544C10.2563 10.9205 12.1357 8.77171 14.9323 8.42789V3.02344H3.84421C1.31484 3.02344 0 4.31695 0 6.82921V8.15062H4.08352C5.63883 8.15062 6.55805 9.06984 6.55805 10.6177V17.2891C6.55805 18.8369 5.63883 19.7562 4.08352 19.7562H0V21.0914ZM0 17.9562H4.03688C4.48922 17.9562 4.76016 17.6831 4.76016 17.2191V10.6877C4.76016 10.2237 4.48922 9.95273 4.03688 9.95273H0V17.9562ZM11.9752 13.9427C11.9752 15.8974 13.1681 17.3555 14.9323 17.7047V10.2159C13.1681 10.5609 11.9752 11.9998 11.9752 13.9427ZM16.7302 24.8972H27.8843C30.4158 24.8972 31.721 23.5919 31.721 21.0914V19.7562H27.6471C26.0801 19.7562 25.1705 18.8369 25.1705 17.2891V10.6177C25.1705 9.06984 26.0801 8.15062 27.6471 8.15062H31.721V6.82921C31.721 4.32656 30.4158 3.02344 27.8843 3.02344H16.7302V8.45343C19.5108 8.84624 21.3785 11.0046 21.4062 13.9544C21.4434 16.965 19.5598 19.0999 16.7302 19.4789V24.8972ZM16.7302 17.7026C18.4943 17.3555 19.6777 15.8953 19.6873 13.9427C19.6969 11.9977 18.506 10.5513 16.7302 10.2159V17.7026ZM26.9705 17.2191C26.9705 17.6831 27.2414 17.9562 27.6841 17.9562H31.721V9.95273H27.6841C27.2414 9.95273 26.9705 10.2237 26.9705 10.6877V17.2191Z" fill="black"/>
</svg>
