<svg width="28" height="28" viewBox="0 0 28 28" fill="none" xmlns="http://www.w3.org/2000/svg">
<path d="M20.8883 5.25492C22.3346 5.25492 23.5051 4.08234 23.5051 2.61679C23.5051 1.17047 22.3346 0 20.8883 0C19.4227 0 18.2502 1.17047 18.2502 2.61679C18.2502 4.08234 19.4227 5.25492 20.8883 5.25492ZM11.8255 15.3068L17.8283 19.8832L15.9641 25.6294C15.684 26.4919 16.2291 27.1073 16.8776 27.2681C17.4559 27.4012 18.1341 27.1563 18.395 26.3449L20.4903 19.8673C20.649 19.3774 20.5627 18.8503 20.2177 18.5149L16.2015 14.4987L20.8196 9.86882C21.0019 9.68647 21.2813 9.68647 21.4616 9.86882L23.0384 11.4319L20.8714 13.601C20.3656 14.1185 20.3752 14.9182 20.8714 15.408C21.3378 15.8669 22.1609 15.9159 22.6688 15.408L25.7335 12.3412C26.2414 11.8333 26.2276 11.0496 25.7335 10.5438L22.7743 7.55695C22.0585 6.83906 21.1873 6.47906 20.1563 6.47906H5.93445C5.24234 6.47906 4.66414 7.04554 4.66414 7.74937C4.66414 8.44897 5.24234 9.02718 5.93445 9.02718H14.1048C14.4854 9.02718 14.6476 9.39843 14.3799 9.6682L12.0109 12.0373C10.9287 13.1236 11.0769 14.7424 11.8255 15.3068ZM11.438 16.5058L10.8648 19.9798H5.2325C4.50734 19.9798 3.94086 20.5483 3.94086 21.2597C3.94086 21.9635 4.50734 22.5321 5.2325 22.5321H11.8902C12.5546 22.5321 12.9955 22.1967 13.168 21.6089L14.094 18.5388L11.438 16.5058ZM4.71265 13.1262C6.19835 13.1262 7.42742 11.9067 7.42742 10.4135C7.42742 8.9278 6.19835 7.69874 4.71265 7.69874C3.21734 7.69874 2 8.9278 2 10.4135C2 11.9067 3.21734 13.1262 4.71265 13.1262Z" fill="black"/>
</svg>
