<svg width="35" height="28" viewBox="0 0 35 28" fill="none" xmlns="http://www.w3.org/2000/svg">
<path d="M0.678425 18.9401L6.07327 22.6943C6.74381 23.168 7.67522 23.1446 8.41185 22.6475L13.7247 18.9401C14.6261 18.3122 14.6303 17.2686 13.7247 16.6386L8.34904 12.8939C7.65928 12.4203 6.74381 12.4107 6.07327 12.8747L0.678425 16.6386C-0.227196 17.2686 -0.225087 18.3122 0.678425 18.9401ZM10.6848 11.4111L16.0893 15.1653C16.7598 15.6389 17.6912 15.6176 18.4182 15.1088L23.7428 11.4111C24.6421 10.7832 24.6484 9.73951 23.7428 9.10951L18.3575 5.3649C17.6774 4.88162 16.7598 4.88162 16.0893 5.34568L10.6848 9.10951C9.78881 9.73951 9.79091 10.7832 10.6848 11.4111ZM20.7104 18.9401L26.0446 22.6571C26.762 23.1542 27.6934 23.1584 28.3735 22.6847L33.7588 18.9401C34.6527 18.3122 34.6548 17.2686 33.7588 16.6386L28.3735 12.8939C27.6934 12.4203 26.7758 12.4107 26.1053 12.8747L20.7104 16.6386C19.8048 17.2686 19.8111 18.3122 20.7104 18.9401Z" fill="black"/>
</svg>
