<svg width="28" height="28" viewBox="0 0 28 28" fill="none" xmlns="http://www.w3.org/2000/svg">
<path d="M13.9839 16.1487L16.7955 20.5594L18.9238 26.4267C19.1709 27.105 19.832 27.3286 20.3868 27.1188C20.9788 26.9208 21.2887 26.2404 21.0672 25.6558L18.9112 19.7236L16.769 13.8424V8.51296C16.769 8.27741 16.8852 8.07374 17.0995 7.96077L24.359 4.09077C24.9159 3.79476 25.1298 3.11226 24.8296 2.54578C24.5336 1.98679 23.8511 1.78664 23.2942 2.08476L16.2829 5.79281C15.5074 6.20296 14.7499 6.39046 13.9839 6.39046C13.2201 6.39046 12.4626 6.20296 11.6849 5.79281L4.67361 2.08476C4.11674 1.78664 3.43635 1.98679 3.14033 2.54578C2.83049 3.11226 3.05408 3.79476 3.61096 4.09077L10.8705 7.96077C11.0847 8.07374 11.2009 8.27741 11.2009 8.51296V13.8424L9.05877 19.7236L6.90064 25.6558C6.68127 26.2404 6.989 26.9208 7.57353 27.1188C8.13791 27.3286 8.79908 27.105 9.04611 26.4267L11.1745 20.5594L13.9839 16.1487ZM13.9839 5.17593C15.4014 5.17593 16.5527 4.01296 16.5527 2.57836C16.5527 1.16086 15.4014 0 13.9839 0C12.5493 0 11.3863 1.16086 11.3863 2.57836C11.3863 4.01296 12.5493 5.17593 13.9839 5.17593Z" fill="black"/>
</svg>
