<svg width="28" height="28" viewBox="0 0 28 28" fill="none" xmlns="http://www.w3.org/2000/svg">
<path d="M14.105 26.21C20.7369 26.21 26.2121 20.7273 26.2121 14.105C26.2121 7.47312 20.7273 2 14.0954 2C7.47523 2 2 7.47312 2 14.105C2 20.7273 7.48484 26.21 14.105 26.21Z" fill="black"/>
<path d="M16.1976 10.876C14.6737 9.68376 11.7625 8.81119 9.49844 9.6308C10.6652 8.42868 12.3051 7.66345 14.1049 7.66345C14.9786 7.66345 15.8055 7.85423 16.5717 8.1622C16.9169 8.92931 16.7571 9.86376 16.1976 10.876ZM13.6608 13.9477C11.6906 13.1464 9.20266 12.5839 7.68555 13.5622C7.74626 12.7808 7.96587 12.0165 8.30173 11.3396C10.3028 9.43087 13.9605 10.3046 15.6993 11.6895C15.1868 12.4376 14.4813 13.1975 13.6608 13.9477ZM9.72181 13.9482C9.77618 16.4492 10.9368 18.8061 12.0972 20.2006C9.71337 19.4187 7.93798 17.2662 7.69516 14.7024C8.12782 14.1399 8.85345 13.929 9.72181 13.9482ZM13.3392 14.8379C13.4468 16.7813 14.5943 19.2542 16.1351 20.1917C15.4987 20.4092 14.8453 20.5318 14.0254 20.5339C12.956 20.1791 10.7941 17.3588 10.6652 14.0429C11.5241 14.1664 12.4685 14.4626 13.3392 14.8379ZM17.3447 19.6508C16.7149 19.6175 16.0767 19.104 15.5451 18.3498C18.3848 16.1886 19.7208 13.7569 20.1829 12.0587C20.4026 12.6896 20.5305 13.3803 20.5305 14.1008C20.5305 16.4405 19.2316 18.5225 17.3447 19.6508ZM15.067 17.5437C14.6097 16.6721 14.3081 15.6202 14.2687 14.6558C16.2879 12.8412 17.8221 10.607 17.6184 8.74579C18.3389 9.21782 18.9665 9.82954 19.4461 10.5521C19.6504 11.4413 18.784 14.6415 15.067 17.5437Z" fill="white"/>
</svg>
