<svg width="28" height="28" viewBox="0 0 28 28" fill="none" xmlns="http://www.w3.org/2000/svg">
<path d="M14.105 26.21C20.7369 26.21 26.2121 20.7273 26.2121 14.105C26.2121 7.47312 20.7273 2 14.0954 2C7.47523 2 2 7.47312 2 14.105C2 20.7273 7.48484 26.21 14.105 26.21Z" fill="black"/>
<path d="M19.7595 8.41697C21.3054 9.95329 21.0966 12.6104 19.3247 14.3961C18.2923 15.4147 17.0084 15.8206 15.7416 15.8675C14.0932 15.909 13.1225 16.0391 11.7458 17.2517C11.847 17.5116 11.7938 17.795 11.5691 18.024L9.22062 20.3841C8.92672 20.6877 8.46453 20.6877 8.18023 20.3841L7.77851 19.9728C7.47711 19.6693 7.49094 19.2519 7.77851 18.9559L10.1429 16.5819C10.3698 16.3475 10.6883 16.2943 10.9545 16.4265C12.1491 15.0465 12.2834 14.0619 12.3111 12.4231C12.3249 11.1798 12.766 9.87455 13.7729 8.84423C15.5543 7.07986 18.2114 6.88275 19.7595 8.41697ZM15.9704 8.72962L16.6601 9.40556L17.5482 8.51751C17.0429 8.43642 16.4991 8.51423 15.9704 8.72962ZM17.262 10.0288L18.2457 11.0007L19.3979 9.8272C19.2849 9.61087 19.1368 9.40626 18.9556 9.21337C18.7979 9.06735 18.6305 8.93306 18.4611 8.83181L17.262 10.0288ZM18.8593 11.626L19.4489 12.2178C19.6388 11.7519 19.7187 11.2667 19.6632 10.8221L18.8593 11.626ZM14.1354 10.1811L15.0052 11.0509L16.0369 10.0288L15.1789 9.17282C14.9764 9.30923 14.7739 9.46907 14.5927 9.64814C14.4157 9.8272 14.2697 10.002 14.1354 10.1811ZM15.6188 11.6741L16.6025 12.6577L17.6321 11.626L16.6601 10.6541L15.6188 11.6741ZM17.2139 13.2713L17.9879 14.0431C18.1627 13.9184 18.3514 13.7649 18.5166 13.588C18.6978 13.4047 18.8789 13.2022 19.0154 13.0093L18.2553 12.2396L17.2139 13.2713ZM13.444 12.6195L14.3895 11.6741L13.6859 10.978C13.445 11.5227 13.365 12.0866 13.444 12.6195ZM13.77 13.5324C13.8617 13.7115 13.996 13.8671 14.1516 14.0248C14.3349 14.2198 14.5533 14.368 14.7889 14.4809L15.9889 13.2734L15.0148 12.2877L13.77 13.5324ZM15.7507 14.7345C16.223 14.7805 16.7166 14.6984 17.2006 14.4905L16.6025 13.8828L15.7507 14.7345Z" fill="white"/>
</svg>
