<svg width="28" height="28" viewBox="0 0 28 28" fill="none" xmlns="http://www.w3.org/2000/svg">
<path d="M26.0483 7.83784C26.0483 7.3091 25.6164 6.88676 25.0855 6.88676H25.0164C23.8351 6.88676 23.1468 6.4016 22.232 5.75308C21.464 5.19597 20.4789 4.49097 19.1275 4.49097C17.7376 4.49097 16.743 5.22691 15.9749 5.80113C15.16 6.41472 14.5323 6.88676 13.5252 6.88676C12.5064 6.88676 11.8905 6.41472 11.0734 5.80113C10.3075 5.22691 9.31069 4.49097 7.92085 4.49097C7.63585 4.49097 7.36796 4.52941 7.12139 4.59879L9.70066 7.16845C9.75293 7.19728 9.82981 7.23783 9.89168 7.26665C10.8887 7.72885 11.6134 8.80065 13.5252 8.80065C16.8182 8.80065 17.3106 6.40487 19.1275 6.40487C20.9753 6.40487 21.2716 8.80065 25.0164 8.80065H25.0855C25.6164 8.80065 26.0483 8.3687 26.0483 7.83784ZM1 15.1156C1 15.6465 1.42234 16.0688 1.96281 16.0688H2.03195C5.76718 16.0688 6.07515 13.6731 7.92085 13.6731C8.81054 13.6731 9.2003 14.4636 10.2979 14.6921L7.8911 12.2875C7.75774 12.2532 7.64242 12.1764 7.52617 12.1016C7.37148 12.0076 7.21679 11.8944 6.99906 11.8965C6.3925 11.9429 5.38843 12.6015 4.81843 13.0213C3.90156 13.6815 3.20359 14.155 2.03195 14.155H1.96281C1.42234 14.155 1 14.5869 1 15.1156ZM26.0483 15.1156C26.0483 14.5869 25.6164 14.155 25.0855 14.155H25.0164C23.8351 14.155 23.1468 13.6815 22.232 13.0213C21.464 12.4663 20.4789 11.7592 19.1275 11.7592C17.7904 11.7592 16.821 12.4562 16.0593 13.0082C15.9559 13.086 15.8622 13.168 15.7609 13.2245L17.1653 14.6406C17.7913 14.1446 18.3116 13.6731 19.1275 13.6731C20.9753 13.6731 21.2716 16.0688 25.0164 16.0688H25.0855C25.6164 16.0688 26.0483 15.6465 26.0483 15.1156ZM1 22.3839C1 22.9147 1.42234 23.3488 1.96281 23.3488H2.03195C5.76718 23.3488 6.07515 20.9509 7.92085 20.9509C9.73984 20.9509 10.2226 23.3488 13.5252 23.3488C15.6086 23.3488 16.5555 22.3557 17.4911 21.6793L16.0825 20.2707C15.2458 20.8569 14.6073 21.4328 13.5252 21.4328C12.5064 21.4328 11.8905 20.9607 11.0734 20.3396C10.3075 19.7729 9.31069 19.037 7.92085 19.037C6.57156 19.037 5.58437 19.7345 4.81843 20.2991C3.90156 20.9497 3.20359 21.4328 2.03195 21.4328H1.96281C1.42234 21.4328 1 21.8572 1 22.3839Z" fill="black"/>
<path d="M23.4548 25.6058C23.819 25.9679 24.424 25.97 24.7743 25.6058C25.1268 25.232 25.1386 24.6505 24.7743 24.2863L3.5247 3.02916C3.16259 2.67666 2.55767 2.66705 2.19345 3.02916C1.84307 3.39127 1.84307 3.9983 2.19345 4.34869L23.4548 25.6058Z" fill="black"/>
</svg>
