<svg width="28" height="29" viewBox="0 0 28 29" fill="none" xmlns="http://www.w3.org/2000/svg">
<path d="M13.2742 5.26453C14.7088 5.26453 15.9006 4.08234 15.9006 2.63812C15.9006 1.1918 14.7088 0 13.2742 0C11.8278 0 10.6361 1.1918 10.6361 2.63812C10.6361 4.08234 11.8278 5.26453 13.2742 5.26453ZM5.27964 8.8596H9.10933C9.27035 8.8596 9.40371 8.98757 9.38449 9.14647L9.0191 14.1298C8.88597 15.9457 9.95308 17.0747 11.4868 17.3878L16.4043 18.4233L17.4632 23.6986C17.6101 24.4493 18.3789 24.8039 18.9453 24.6963C19.6353 24.5611 20.0825 23.8828 19.9452 23.1907L18.733 17.0944C18.635 16.5982 18.2176 16.2532 17.7533 16.0966L13.9639 14.913L14.2921 10.3322C14.3251 10.0207 14.6132 9.90866 14.851 10.1039L16.6672 11.6112C16.8983 11.7954 17.1709 11.9051 17.4786 11.9051H22.9731C23.6769 11.9051 24.2317 11.3365 24.2317 10.6369C24.2317 9.93304 23.6769 9.37827 22.9731 9.37827H17.9333L15.3074 7.18804C14.6406 6.63632 14.0239 6.3232 13.059 6.3232H6.99292L8.33214 1.85929C8.53019 1.18312 8.14792 0.469683 7.48347 0.271636C6.80519 0.0756991 6.08215 0.457964 5.8841 1.13413L4.07004 7.22296C3.82512 8.05569 4.22121 8.8596 5.27964 8.8596ZM10.4153 28.2733C11.019 28.4576 11.7718 28.1871 12.0029 27.4343L13.817 21.3806C13.866 21.2102 13.8798 21.026 13.8798 20.8343V19.1086L11.2494 18.5505C11.1866 18.5388 11.1334 18.5367 11.0802 18.5208L11.3296 20.8301L9.5666 26.707C9.36855 27.3619 9.75082 28.0732 10.4153 28.2733Z" fill="black"/>
</svg>
