<svg width="28" height="28" viewBox="0 0 28 28" fill="none" xmlns="http://www.w3.org/2000/svg">
<path d="M18.7158 6.26453C20.1718 6.26453 21.3326 5.09406 21.3326 3.62851C21.3326 2.17258 20.1718 1 18.7158 1C17.2482 1 16.0681 2.17258 16.0681 3.62851C16.0681 5.09406 17.2482 6.26453 18.7158 6.26453ZM10.6257 27.4905C11.3157 27.4905 11.9035 26.9219 11.9035 26.218V15.1382C14.6049 14.6877 16.9463 12.8929 18.0701 10.4514C18.1597 10.2201 18.4051 10.1155 18.8633 10.2754L24.8583 12.2908C25.7187 12.5751 26.3108 12.0981 26.4971 11.4986C26.693 10.8873 26.4715 10.1324 25.6698 9.87367L7.71429 3.8807C6.85601 3.5889 6.24804 4.07125 6.06594 4.67078C5.86789 5.28202 6.1032 6.02523 6.90078 6.29569L13.3592 8.45171C13.6311 8.55085 13.7666 8.86023 13.5896 9.14804C12.9078 10.2187 11.9148 10.8569 10.6257 10.8569H4.55234V4.75585C4.55234 4.00515 4.04234 3.48976 3.27031 3.48976C2.50789 3.48976 2 4.00515 2 4.75585V12.0292C2 12.8619 2.42164 13.258 3.06054 13.3677L8.45093 14.2626L9.35539 19.5784V26.218C9.35539 26.9219 9.92187 27.4905 10.6257 27.4905Z" fill="black"/>
</svg>
