<svg width="28" height="28" viewBox="0 0 28 28" fill="none" xmlns="http://www.w3.org/2000/svg">
<path d="M2 14.105C2 19.6805 5.87891 24.4466 11.0562 25.8076C11.4343 24.8084 11.6792 23.7315 11.758 22.6524L11.3375 22.6332C11.0033 22.6236 10.7171 22.3522 10.7171 21.999C10.7267 21.6563 11.0045 21.3744 11.3567 21.384L11.7793 21.4032C11.7655 20.8252 11.7015 20.2569 11.5927 19.6789L11.168 19.7888C10.8317 19.8612 10.4966 19.6737 10.4019 19.3323C10.3189 19.0034 10.52 18.6608 10.8488 18.5757L11.2735 18.4637C11.1008 17.9049 10.8854 17.3483 10.606 16.8108L10.2805 16.988C9.96125 17.1476 9.62281 17.0286 9.4557 16.7401C9.25883 16.4527 9.35258 16.0484 9.65586 15.8813L9.97391 15.7137C9.62633 15.1838 9.2382 14.6912 8.80953 14.2466L8.58007 14.4952C8.3246 14.739 7.9639 14.7209 7.70633 14.473C7.47008 14.2505 7.43609 13.8568 7.68195 13.6109L7.91141 13.3719C7.50617 13.0135 7.07 12.7128 6.61671 12.4238L6.39054 12.8602C6.21499 13.1816 5.85851 13.2657 5.55734 13.0986C5.24445 12.9411 5.14015 12.5612 5.31148 12.2398L5.53344 11.813C4.56734 11.3401 3.50961 11.012 2.45938 10.8467C2.15563 11.8866 2 12.9734 2 14.105ZM14.105 26.21C19.1307 26.21 23.5088 23.0525 25.31 18.6413C24.1555 18.4421 23.0244 18.0692 21.9678 17.5644L21.7236 18.0123C21.5736 18.3273 21.1618 18.4198 20.8723 18.2581C20.5808 18.0868 20.4627 17.7027 20.6478 17.3994L20.8803 16.977C20.2737 16.6093 19.6981 16.2064 19.1555 15.7416L18.8206 16.0766C18.5738 16.333 18.1897 16.3107 17.9577 16.0766C17.6916 15.8298 17.6905 15.4381 17.9363 15.2136L18.2691 14.8712C17.7734 14.3574 17.33 13.7797 16.9196 13.1497L16.4269 13.4291C16.1258 13.6217 15.7437 13.4865 15.6012 13.2066C15.432 12.8991 15.515 12.5213 15.8162 12.3596L16.2971 12.0802C15.9453 11.397 15.6671 10.6967 15.4604 9.98257L14.8707 10.1244C14.5196 10.2212 14.195 10.0212 14.1397 9.69124C14.0333 9.36242 14.1971 9.01554 14.5515 8.92297L15.1688 8.76734C15.0387 8.12023 14.9727 7.44968 14.9588 6.78874L14.4842 6.76952C14.1214 6.76952 13.8617 6.49507 13.883 6.16085C13.883 5.80226 14.1512 5.52242 14.5055 5.51281L14.9802 5.53203C15.0877 4.36039 15.3134 3.19836 15.732 2.11297C15.1897 2.04266 14.6494 2 14.0954 2C9.07179 2 4.72883 5.14367 2.90633 9.5389C4.04914 9.74773 5.16429 10.0801 6.20914 10.6041L6.43953 10.1914C6.59492 9.88273 6.98328 9.79344 7.3046 9.98281C7.60577 10.1307 7.70046 10.4989 7.52702 10.8064L7.30624 11.2053C7.86382 11.5475 8.40218 11.9248 8.9075 12.362L9.34461 11.9173C9.58625 11.6736 9.97249 11.6886 10.2289 11.9525C10.4534 12.1866 10.4991 12.5452 10.2289 12.8155L9.80983 13.2345C10.3311 13.7813 10.8055 14.3612 11.218 15.005L11.7127 14.7394C12.0118 14.5648 12.3842 14.6715 12.5598 14.9736C12.729 15.2588 12.6544 15.6451 12.3256 15.8206L11.8426 16.0904C12.1826 16.7438 12.4491 17.4186 12.6634 18.0976L13.1103 17.9813C13.452 17.8887 13.7797 18.0772 13.8786 18.4304C13.9691 18.7634 13.768 19.0998 13.4391 19.1944L12.9687 19.3224C13.1009 20.0185 13.1691 20.7167 13.1851 21.4128L13.6906 21.432C14.0333 21.4416 14.3152 21.7236 14.3056 22.0566C14.3056 22.3993 14.0237 22.6909 13.6714 22.6812L13.1478 22.662C13.0616 23.8358 12.8145 24.984 12.4034 26.0853C12.95 26.1673 13.5275 26.21 14.105 26.21ZM26.2121 14.105C26.2121 8.5039 22.2863 3.72406 17.0696 2.37687C16.6991 3.38773 16.4466 4.47219 16.37 5.55336L16.8373 5.57258C17.1842 5.58219 17.4619 5.88007 17.4481 6.21851C17.4481 6.57499 17.18 6.82718 16.8298 6.81757L16.3604 6.79835C16.3763 7.32945 16.4286 7.87226 16.5352 8.40125L16.8542 8.32976C17.1905 8.24984 17.4833 8.45937 17.5674 8.78515C17.6483 9.10132 17.5013 9.43015 17.1629 9.53327L16.8385 9.60687C17.0251 10.2008 17.2522 10.783 17.5433 11.3577L17.8751 11.1763C18.1742 11.0038 18.5424 11.1294 18.6999 11.4209C18.8691 11.754 18.7766 12.0924 18.488 12.2574L18.1541 12.4409C18.4974 12.9528 18.8642 13.4284 19.2598 13.8612L19.5842 13.5369C19.8448 13.2762 20.2365 13.3027 20.4685 13.5273C20.7101 13.7551 20.743 14.1552 20.4823 14.435L20.1676 14.7498C20.608 15.1337 21.0697 15.4749 21.5698 15.7702L21.7822 15.3552C21.9301 15.0498 22.3142 14.9476 22.6175 15.1114C22.9229 15.2944 23.041 15.6648 22.8655 15.9776L22.6531 16.381C23.6309 16.8498 24.6833 17.1662 25.7644 17.326C26.0544 16.2957 26.2121 15.2206 26.2121 14.105Z" fill="black"/>
</svg>
