<svg width="28" height="31" viewBox="0 0 28 31" fill="none" xmlns="http://www.w3.org/2000/svg">
<path d="M10.8979 9.67851C12.3421 9.67851 13.5339 8.49632 13.5339 7.03078C13.5339 5.58445 12.3421 4.41399 10.8979 4.41399C9.44195 4.41399 8.26937 5.58445 8.26937 7.03078C8.26937 8.49632 9.44195 9.67851 10.8979 9.67851ZM4 15.4826C4 16.4473 5.00195 16.9041 5.7782 16.5122L9.8882 14.4433C10.0811 14.34 10.289 14.4466 10.3359 14.6491L11.5312 19.4367L9.65195 24.1284H5.22133C4.55687 24.1284 4 24.6694 4 25.3401C4 26.0067 4.55687 26.5476 5.22133 26.5476H10.409C10.9616 26.5476 11.3108 26.3219 11.5792 25.8342L14.0521 21.2634L15.4087 24.8461L10.9621 27.8311C10.4095 28.2016 10.2466 28.9779 10.6192 29.5113C10.9876 30.0522 11.6936 30.2386 12.2973 29.835L17.5926 26.3144C18.01 26.0461 18.2101 25.634 18.0259 24.9014L14.8963 12.4052C14.8302 12.1643 14.8984 11.9489 15.1682 11.8092L23.249 7.76882C23.8548 7.48242 24.0998 6.74554 23.792 6.13968C23.4843 5.53383 22.7666 5.30062 22.1608 5.59664L6.43515 13.4616V9.59507C6.43515 8.93062 5.89961 8.38757 5.22133 8.38757C4.55687 8.38757 4 8.93062 4 9.59507V15.4826ZM20.3816 4.68492C21.6777 4.68492 22.7193 3.64125 22.7193 2.34726C22.7193 1.06289 21.6777 0 20.3816 0C19.078 0 18.0365 1.06289 18.0365 2.34726C18.0365 3.64125 19.078 4.68492 20.3816 4.68492Z" fill="black"/>
</svg>
