<svg width="28" height="28" viewBox="0 0 28 28" fill="none" xmlns="http://www.w3.org/2000/svg">
<path d="M14.105 26.21C20.7369 26.21 26.2121 20.7273 26.2121 14.105C26.2121 7.47312 20.7273 2 14.0954 2C7.47523 2 2 7.47312 2 14.105C2 20.7273 7.48484 26.21 14.105 26.21ZM14.105 23.8255C8.71085 23.8255 4.39412 19.4991 4.39412 14.105C4.39412 8.71085 8.70124 4.38452 14.0954 4.38452C19.4895 4.38452 23.8276 8.71085 23.8276 14.105C23.8276 19.4991 19.4991 23.8255 14.105 23.8255Z" fill="black"/>
<path d="M9.52078 21.1416C9.78281 21.1416 9.98836 21.0085 10.2014 20.7955L12.3326 18.7016C12.5393 18.5183 12.5745 18.4534 12.6821 18.17L13.6231 15.7442C13.7532 15.4084 14.0496 15.323 14.3972 15.5288L16.1632 16.5626L14.5315 17.9504C14.359 18.0952 14.2418 18.3008 14.2418 18.5298C14.2418 18.8961 14.5144 19.2167 14.9 19.2167C15.1503 19.2167 15.3399 19.123 15.5743 18.9237L17.8461 16.9972C18.0549 16.8214 18.1315 16.6414 18.1315 16.422C18.1315 16.1963 17.9942 16.0025 17.7171 15.8192L15.3087 14.2409L15.7756 12.6303C15.8257 12.4116 16.0327 12.3807 16.1703 12.578L16.7991 13.4862C16.9929 13.7696 17.3211 13.8505 17.6363 13.7194L19.8718 12.7306C20.2765 12.5548 20.4247 12.1906 20.2468 11.8381C20.0806 11.4919 19.7419 11.3567 19.3254 11.5346L17.6384 12.2827L16.4597 10.6191C15.8738 9.7913 15.1067 9.44606 13.9772 9.52598L11.2699 9.7327C10.8865 9.75614 10.6073 10.0266 10.5466 10.4347L10.2248 12.8588C10.162 13.3147 10.3856 13.6278 10.8511 13.6651C11.227 13.6981 11.5188 13.4766 11.5774 13.0271L11.846 11.1418L12.8436 11.0853C13.0472 11.0661 13.1593 11.1919 13.1049 11.3914L11.3241 17.6748L9.10008 19.8891C8.92219 20.067 8.83594 20.2491 8.83594 20.443C8.83594 20.8051 9.11813 21.1416 9.52078 21.1416ZM16.0986 9.25223C16.9402 9.25223 17.6295 8.56083 17.6295 7.75223C17.6295 6.89888 16.9498 6.21497 16.0986 6.21497C15.2548 6.21497 14.5847 6.89888 14.5847 7.75223C14.5847 8.56083 15.2548 9.25223 16.0986 9.25223Z" fill="black"/>
</svg>
