<svg width="28" height="28" viewBox="0 0 28 28" fill="none" xmlns="http://www.w3.org/2000/svg">
<path d="M20.2615 6.25492C21.6982 6.25492 22.8687 5.08445 22.8687 3.61679C22.8687 2.17258 21.6982 1 20.2615 1C18.7959 1 17.6233 2.17258 17.6233 3.61679C17.6233 5.08445 18.7959 6.25492 20.2615 6.25492ZM14.1281 25.4636H16.6336V17.7273C16.6336 17.4824 16.5591 17.1981 16.3866 16.9745L13.7808 13.4685L17.0918 10.1437C17.3039 9.92405 17.5941 9.92405 17.8062 10.1437L20.9763 13.3415C21.202 13.5906 21.547 13.6907 21.8665 13.6907C22.188 13.6907 22.5096 13.5651 22.7407 13.3415L26.2943 9.78788C26.5551 9.52913 26.6648 9.20757 26.6648 8.90195C26.6648 7.80414 25.3104 7.21421 24.5086 8.01601L21.8665 10.6581L17.3773 6.20195C16.7904 5.62679 16.1972 5.29773 15.2557 5.29773H10.2246C9.77203 5.29773 9.45257 5.42546 9.12351 5.74281L5.67539 9.18882C4.86187 10.0023 5.46773 11.343 6.55382 11.343C6.86156 11.343 7.18101 11.2098 7.42593 10.9607L10.5994 7.80319H12.6853C12.8358 7.80319 12.8829 7.93351 12.7549 8.02445L10.1909 10.5981C9.10453 11.6823 9.09281 13.217 10.1909 14.3151L14.1281 18.2448V25.4636ZM8.71289 14.3427L7.10695 16.4943H1.24476C0.570702 16.4943 0 17.0352 0 17.7391C0 18.4312 0.570702 18.9721 1.24476 18.9721H7.72453C8.08124 18.9721 8.4007 18.8348 8.68077 18.5547L10.7224 16.5269L9.34968 15.1658C9.09515 14.8996 8.88328 14.6366 8.71289 14.3427ZM25.1805 22.1873C25.1805 22.5991 25.5157 22.9342 25.9083 22.9342C26.3222 22.9342 26.6648 22.5991 26.6648 22.1873V8.90195H25.1805V22.1873ZM0.756563 9.85867C0.344768 9.85867 0.00961375 10.1938 0.00961375 10.5864C0.00961375 10.9982 0.344768 11.343 0.756563 11.343H6.55382V9.85867H0.756563ZM24.0694 26.3047C25.2963 26.3047 26.0344 25.997 26.8769 25.5965C27.2791 25.4251 27.4186 24.9932 27.2791 24.6623C27.1664 24.2941 26.7248 24.0313 26.246 24.2739C25.5759 24.6137 25.0591 24.8205 24.0694 24.8205H3.35179C2.95383 24.8205 2.60695 25.1397 2.60695 25.5419C2.60695 25.9398 2.93578 26.3047 3.35179 26.3047H24.0694Z" fill="black"/>
</svg>
