<svg width="28" height="28" viewBox="0 0 28 28" fill="none" xmlns="http://www.w3.org/2000/svg">
<path d="M14.105 26.21C20.7369 26.21 26.2121 20.7273 26.2121 14.105C26.2121 7.47312 20.7273 2 14.0954 2C7.47523 2 2 7.47312 2 14.105C2 20.7273 7.48484 26.21 14.105 26.21ZM14.105 23.8255C8.71085 23.8255 4.39412 19.4991 4.39412 14.105C4.39412 8.71085 8.70124 4.38452 14.0954 4.38452C19.4895 4.38452 23.8276 8.71085 23.8276 14.105C23.8276 19.4991 19.4991 23.8255 14.105 23.8255Z" fill="black"/>
<path d="M17.5045 8.99091L16.3281 10.1363C16.1737 10.3004 15.9405 10.3004 15.7764 10.1363C15.6199 9.97974 15.6295 9.74865 15.7764 9.58247L16.7878 8.57325C15.9681 8.16919 15.0473 7.93036 14.0955 7.93036C10.7221 7.93036 7.9209 10.7412 7.9209 14.1146C7.9209 15.0664 8.15012 15.9755 8.55418 16.7877L9.58473 15.7838C9.74129 15.6273 9.97239 15.6273 10.1386 15.7838C10.293 15.9404 10.3047 16.179 10.1386 16.3452L8.97606 17.5119C9.10707 17.7291 9.25192 17.9251 9.43192 18.1093L18.1115 9.44677C17.9177 9.27849 17.7142 9.12403 17.5045 8.99091ZM15.4075 11.0665L14.5668 11.8997C14.4124 12.0563 14.177 12.0542 14.0226 11.8997C13.8564 11.7528 13.8564 11.5121 14.0226 11.3459L14.8537 10.5148C15.0103 10.3583 15.251 10.3583 15.4075 10.5148C15.5641 10.6693 15.562 10.91 15.4075 11.0665ZM13.6537 12.8204L12.813 13.6707C12.666 13.8177 12.4103 13.8177 12.2613 13.6707C12.1047 13.5045 12.1047 13.2638 12.2613 13.1052L13.0924 12.2762C13.2468 12.1121 13.4971 12.1121 13.6537 12.2762C13.8006 12.4231 13.8006 12.6734 13.6537 12.8204ZM11.8903 14.5742L11.0634 15.4149C10.9186 15.5811 10.6619 15.5694 10.5075 15.4149C10.3509 15.268 10.3509 15.0177 10.5075 14.8611L11.3386 14.03C11.5047 13.8638 11.7358 13.8638 11.8903 14.03C12.0468 14.1866 12.0372 14.4177 11.8903 14.5742ZM19.6389 11.4298L18.6393 12.4198C18.4731 12.5764 18.242 12.5764 18.0855 12.4198C17.9214 12.2516 17.9214 12.013 18.0855 11.8585L19.2267 10.7131C19.0839 10.5075 18.9391 10.302 18.7633 10.1082L10.1029 18.7824C10.2775 18.9486 10.481 19.0934 10.6865 19.2362L11.8863 18.0577C12.0428 17.9012 12.2835 17.9033 12.438 18.0577C12.5945 18.2239 12.5945 18.455 12.438 18.6116L11.4128 19.658C12.2367 20.0642 13.1437 20.3009 14.0955 20.3009C17.4688 20.3009 20.2818 17.488 20.2818 14.1146C20.2818 13.1628 20.0451 12.2419 19.6389 11.4298ZM17.707 13.3426L16.8759 14.1737C16.7097 14.3398 16.4786 14.3398 16.3242 14.1737C16.1676 14.015 16.1772 13.786 16.3242 13.6273L17.151 12.7791C17.298 12.6226 17.5504 12.6322 17.707 12.7791C17.8635 12.9357 17.8635 13.186 17.707 13.3426ZM15.9414 15.0943L15.1124 15.935C14.9559 16.0916 14.7173 16.0916 14.5511 15.935C14.4042 15.7859 14.4042 15.5302 14.5511 15.3833L15.3993 14.5426C15.5484 14.3956 15.7945 14.3956 15.9414 14.5426C16.1097 14.6991 16.1097 14.9473 15.9414 15.0943ZM14.1918 16.8577L13.3607 17.6888C13.2042 17.8454 12.9538 17.8454 12.8165 17.6888C12.6503 17.5344 12.6503 17.2916 12.8165 17.1329L13.6455 16.3039C13.8042 16.1473 14.0331 16.1494 14.1918 16.3039C14.3484 16.4509 14.3484 16.6916 14.1918 16.8577Z" fill="black"/>
</svg>
