<svg width="28" height="28" viewBox="0 0 28 28" fill="none" xmlns="http://www.w3.org/2000/svg">
<path d="M14.105 26.21C20.7369 26.21 26.2121 20.7273 26.2121 14.105C26.2121 7.47312 20.7273 2 14.0954 2C7.47523 2 2 7.47312 2 14.105C2 20.7273 7.48484 26.21 14.105 26.21Z" fill="black"/>
<path d="M7.69922 13.9407C7.69735 12.8626 8.14594 11.4823 8.80969 10.5087C9.32696 10.6641 9.63258 11.4211 9.64219 11.9895C8.90086 12.5626 8.26172 13.2048 7.69922 13.9407ZM10.4088 11.4465C10.2715 10.8214 9.90633 10.0533 9.30797 9.86888C9.81071 9.30755 10.3964 8.84208 11.0461 8.4788C10.8591 9.18849 10.8227 10.0716 10.9538 11.1265C10.7597 11.2236 10.587 11.3419 10.4088 11.4465ZM11.7183 10.7485C11.5957 9.53278 11.7406 8.67075 11.9306 8.08247C12.5339 7.86919 13.2197 7.72622 13.8638 7.69739C13.0441 8.23435 12.5702 9.07247 12.5702 10.0184C12.5702 10.1611 12.5702 10.2837 12.582 10.3913C12.2888 10.5 11.9923 10.6142 11.7183 10.7485ZM13.421 10.1656C13.3922 8.97473 14.0752 8.25872 15.4235 7.82278C17.0698 8.18044 18.4966 9.18286 19.41 10.5401C18.3202 10.096 17.077 9.86817 15.8201 9.86817C14.9984 9.86817 14.1905 9.9556 13.421 10.1656ZM7.80961 15.2623C8.3243 14.4432 8.91891 13.738 9.60727 13.1051C9.48914 14.9314 9.06258 17.0316 9.70875 18.7334C8.75203 17.8222 8.06391 16.603 7.80961 15.2623ZM10.4749 12.4016C10.6711 12.2715 10.8694 12.1372 11.0815 12.0083C11.5247 14.4526 12.7233 17.5491 15.0888 20.4573C14.764 20.5105 14.4413 20.5222 14.1143 20.5222C13.3064 20.5222 12.5391 20.3419 11.857 20.0295C9.26016 18.2087 10.4656 15.203 10.4749 12.4016ZM11.8226 11.6068C12.153 11.4511 12.4814 11.3114 12.814 11.2027C14.0072 13.8043 19.065 14.7411 19.3289 17.8069C18.5168 18.957 17.3391 19.8214 15.979 20.2412C13.4325 17.2074 12.2231 13.9702 11.8226 11.6068ZM13.6519 10.9557C14.3501 10.785 15.0813 10.6955 15.8201 10.6955C17.352 10.6955 18.7273 11.0522 20.0578 11.7636C20.3597 12.4897 20.5315 13.284 20.5315 14.105C20.5315 15.0533 20.3152 15.9376 19.9444 16.7452C18.9127 13.8683 14.6946 12.9296 13.6519 10.9557Z" fill="white"/>
</svg>
