<svg width="28" height="28" viewBox="0 0 28 28" fill="none" xmlns="http://www.w3.org/2000/svg">
<path d="M1.40931 13.1522L5.37728 17.1298C5.94165 17.6941 6.86486 17.708 7.41751 17.0222L9.85853 14.0154C10.0163 13.83 10.2551 13.9312 10.2551 14.1593V19.2579L5.83173 18.7636C4.23658 18.5794 3.71486 20.9252 5.25353 21.431L10.2935 23.1035C10.0706 24.1718 11.0067 25.0751 12.0717 24.7247L13.6207 24.2208L15.1697 24.7247C16.2326 25.0751 17.1687 24.1718 16.9458 23.1035L21.9975 21.431C23.5341 20.9252 23.0048 18.5794 21.4097 18.7636L16.9863 19.2579V14.1593C16.9863 13.9312 17.2348 13.8342 17.3829 14.0154L19.8239 17.0222C20.3745 17.708 21.2977 17.6941 21.862 17.1298L25.83 13.1522C26.3709 12.6016 26.3827 11.753 25.83 11.2141C25.305 10.6807 24.4329 10.6828 23.892 11.2141L21.0016 14.1098L18.0506 10.493C17.5458 9.87843 16.7864 9.49078 15.9759 9.49078H11.2751C10.4529 9.49078 9.70314 9.87843 9.18869 10.493L6.23767 14.1098L3.34947 11.2141C2.80642 10.6828 1.93431 10.6807 1.40931 11.2141C0.858768 11.753 0.868377 12.6016 1.40931 13.1522ZM13.6207 8.26663C15.067 8.26663 16.2375 7.08445 16.2375 5.6189C16.2375 4.17258 15.067 3 13.6207 3C12.1552 3 10.973 4.17258 10.973 5.6189C10.973 7.08445 12.1552 8.26663 13.6207 8.26663Z" fill="black"/>
</svg>
