<svg width="28" height="28" viewBox="0 0 28 28" fill="none" xmlns="http://www.w3.org/2000/svg">
<path d="M2.35622 17.1802L11.7598 26.5838C13.5532 28.3772 15.3886 28.3869 17.1703 26.6147L26.6145 17.161C28.3887 15.3868 28.377 13.5439 26.5857 11.7505L17.1896 2.35437C15.3982 0.563039 13.5629 0.54382 11.7811 2.32554L2.32528 11.7697C0.543563 13.5535 0.56278 15.3868 2.35622 17.1802Z" fill="black"/>
<path d="M17.2717 21.7367C16.9553 21.7367 16.7167 21.5823 16.5718 21.2659L15.0606 18.2356C14.9764 18.0844 14.9307 17.9994 14.7997 17.8428L13.4101 16.1068C13.018 15.6113 12.6388 15.0455 12.6995 14.2475L12.8167 12.6936C12.838 12.4601 12.6109 12.3322 12.4297 12.4953L11.7224 13.1016L11.5817 14.8419C11.5466 15.3148 11.2674 15.5672 10.8648 15.5438C10.4387 15.5087 10.1841 15.2094 10.2193 14.7502L10.3599 13.1455C10.4068 12.6863 10.5155 12.3933 10.8692 12.064L12.0228 10.9899C12.7557 10.3079 13.4185 9.92025 14.1601 9.92025C15.2277 9.92025 15.8626 10.6585 15.7827 11.7633L15.6559 13.6646C15.609 14.3668 15.4682 14.8325 15.2349 15.5689L15.155 15.8023L16.0056 17.0056C16.1471 17.1929 16.2889 17.4113 16.4242 17.7181L17.8426 20.5501C17.9406 20.7439 17.9832 20.8962 17.9832 21.0645C17.9832 21.4512 17.6743 21.7367 17.2717 21.7367ZM10.7352 21.7463C10.3484 21.7463 10.0918 21.4705 10.0918 21.0837C10.0918 20.8217 10.227 20.6375 10.3986 20.4371L12.4267 18.073L12.7581 16.4905L13.9032 17.9445L13.8029 18.3776C13.7506 18.6153 13.7284 18.6385 13.4844 18.9326L11.2881 21.4981C11.1432 21.6622 10.9503 21.7463 10.7352 21.7463ZM17.6828 14.068C17.2768 14.068 17.0755 13.9976 16.8528 13.7654L16.4028 13.3175L16.5221 11.5536L17.5665 12.713H19.3803C19.8491 12.713 20.1463 12.9751 20.1463 13.3894C20.1463 13.8059 19.8608 14.068 19.3803 14.068H17.6828ZM15.0807 9.22649C14.2529 9.22649 13.5678 8.53181 13.5678 7.70399C13.5678 6.85063 14.2412 6.16345 15.0807 6.16345C15.9341 6.16345 16.6192 6.85063 16.6192 7.70399C16.6192 8.5222 15.9128 9.22649 15.0807 9.22649Z" fill="white"/>
</svg>
