<svg width="28" height="28" viewBox="0 0 28 28" fill="none" xmlns="http://www.w3.org/2000/svg">
<path d="M14.105 26.21C20.7369 26.21 26.2121 20.7273 26.2121 14.105C26.2121 7.47312 20.7273 2 14.0954 2C7.47523 2 2 7.47312 2 14.105C2 20.7273 7.48484 26.21 14.105 26.21Z" fill="black"/>
<path d="M7.76055 13.0018C8.2239 10.4944 10.1462 8.46123 12.6088 7.87858C12.7982 8.31732 12.8769 8.76897 12.8769 9.27264C12.8769 11.502 11.1878 13.1794 8.97226 13.1794C8.54312 13.1794 8.14164 13.1103 7.76055 13.0018ZM14.0861 20.5637C10.5702 20.5637 7.65625 17.6497 7.65625 14.1338C7.65625 14.0647 7.65625 13.9955 7.66047 13.9243C8.07578 14.053 8.52086 14.1125 8.97226 14.1125C11.6512 14.1125 13.81 11.9419 13.81 9.27264C13.81 8.71998 13.727 8.19498 13.5494 7.7199C13.7315 7.70818 13.904 7.69647 14.0861 7.69647C17.6019 7.69647 20.5255 10.6083 20.5255 14.1338C20.5255 14.1891 20.5255 14.2444 20.5255 14.2976C20.1069 14.1648 19.6769 14.0998 19.2276 14.0998C16.539 14.0998 14.3877 16.2758 14.3877 18.9493C14.3877 19.5083 14.4728 20.0513 14.6727 20.5381C14.4843 20.5616 14.2745 20.5637 14.0861 20.5637ZM15.6112 20.3752C15.4079 19.9365 15.3208 19.4668 15.3208 18.9493C15.3208 16.722 16.9982 15.0329 19.2276 15.0329C19.6651 15.0329 20.0432 15.102 20.4255 15.2298C19.9994 17.7338 18.0599 19.7691 15.6112 20.3752Z" fill="white"/>
</svg>
