<svg width="28" height="28" viewBox="0 0 28 28" fill="none" xmlns="http://www.w3.org/2000/svg">
<path d="M14.105 26.21C20.7369 26.21 26.2121 20.7273 26.2121 14.105C26.2121 7.47312 20.7273 2 14.0954 2C7.47523 2 2 7.47312 2 14.105C2 20.7273 7.48484 26.21 14.105 26.21Z" fill="black"/>
<path d="M16.9064 21.3695C16.59 21.3695 16.3514 21.215 16.2065 20.8986L14.7049 17.8684C14.609 17.7172 14.5654 17.6321 14.4323 17.4755L13.0448 15.7395C12.6527 15.2441 12.2714 14.6783 12.3342 13.8802L12.461 12.3263C12.4727 12.0929 12.2552 11.9649 12.0644 12.128L11.3571 12.7344L11.2165 14.4746C11.1792 14.9476 10.9097 15.2 10.4995 15.1766C10.0713 15.1414 9.8168 14.8421 9.86367 14.383L9.99469 12.7782C10.0395 12.3191 10.1599 12.0261 10.504 11.6968L11.6576 10.6226C12.4 9.94059 13.0511 9.55294 13.8044 9.55294C14.8624 9.55294 15.4973 10.2912 15.427 11.3961L15.2885 13.2973C15.2416 13.9995 15.1125 14.4652 14.8697 15.2016L14.7993 15.4351L15.6478 16.6384C15.7818 16.8256 15.9236 17.0441 16.0685 17.3509L17.4773 20.1828C17.5753 20.3766 17.6254 20.529 17.6254 20.6973C17.6254 21.084 17.3165 21.3695 16.9064 21.3695ZM10.3699 21.3791C9.9907 21.3791 9.72656 21.1032 9.72656 20.7165C9.72656 20.4545 9.8714 20.2702 10.043 20.0698L12.071 17.7057L12.3928 16.1232L13.5454 17.5773L13.4451 18.0104C13.3854 18.248 13.3631 18.2712 13.117 18.5654L10.9228 21.1309C10.7876 21.2949 10.5851 21.3791 10.3699 21.3791ZM17.3271 13.7007C16.9115 13.7007 16.7198 13.6304 16.4876 13.3981L16.0376 12.9502L16.1568 11.1863L17.1991 12.3458H19.0226C19.4934 12.3458 19.7906 12.6078 19.7906 13.0222C19.7906 13.4387 19.503 13.7007 19.0226 13.7007H17.3271ZM14.7154 8.85919C13.8876 8.85919 13.2004 8.1645 13.2004 7.33669C13.2004 6.48333 13.8759 5.79614 14.7154 5.79614C15.5688 5.79614 16.2539 6.48333 16.2539 7.33669C16.2539 8.15489 15.555 8.85919 14.7154 8.85919Z" fill="white"/>
</svg>
