<svg width="28" height="28" viewBox="0 0 28 28" fill="none" xmlns="http://www.w3.org/2000/svg">
<path d="M14.105 26.21C20.7369 26.21 26.2121 20.7273 26.2121 14.105C26.2121 7.47312 20.7273 2 14.0954 2C7.47523 2 2 7.47312 2 14.105C2 20.7273 7.48484 26.21 14.105 26.21Z" fill="black"/>
<path d="M9.36301 19.977C8.6695 19.7544 8.44591 19.5308 8.23286 18.8469C7.92161 17.7767 7.88012 16.569 8.10512 15.3762L12.8336 20.0952C11.6334 20.3202 10.4332 20.2883 9.36301 19.977ZM17.5666 17.5604C16.5703 18.5705 15.4153 19.2941 14.1984 19.7234L8.47684 14.0019C8.91583 12.7946 9.62973 11.63 10.6399 10.6433C11.6245 9.63313 12.7912 8.91172 14.0006 8.48234L19.7276 14.1997C19.2886 15.4187 18.5768 16.5758 17.5666 17.5604ZM13.3054 16.6405C13.4118 16.5127 13.4118 16.3243 13.3054 16.1987L12.8782 15.7618L13.2759 15.3758L13.6818 15.7955C13.8129 15.9404 14.0151 15.9308 14.1333 15.7955C14.2643 15.6795 14.2643 15.4698 14.1333 15.3441L13.7018 14.9244L14.107 14.5447L14.5343 14.9506C14.6503 15.0762 14.8579 15.0816 14.974 14.9506C15.1071 14.8421 15.09 14.6269 14.974 14.5088L14.5488 14.0837L14.9423 13.6859L15.3717 14.1057C15.5048 14.2313 15.6954 14.2409 15.8189 14.1153C15.9466 13.9897 15.9466 13.7799 15.8189 13.6735L15.3937 13.2484L15.7872 12.8527L16.2049 13.2683C16.3476 13.396 16.5403 13.396 16.6638 13.2779C16.7798 13.1448 16.7894 12.9446 16.6638 12.8169L15.3717 11.5365C15.2461 11.4109 15.0651 11.4205 14.9203 11.5365C14.8043 11.66 14.8139 11.8623 14.9203 11.9954L15.3476 12.413L14.9423 12.7969L14.5268 12.3814C14.4204 12.2537 14.2202 12.2537 14.085 12.3814C13.9593 12.5028 13.9593 12.7147 14.085 12.8265L14.5143 13.2484L14.107 13.6515L13.6818 13.2263C13.5637 13.0911 13.3678 13.0911 13.2497 13.2359C13.1144 13.3423 13.1261 13.55 13.2497 13.666L13.6556 14.0837L13.2759 14.4889L12.8561 14.0574C12.7326 13.936 12.5208 13.936 12.4047 14.067C12.2695 14.1852 12.2695 14.4066 12.4047 14.5184L12.8245 14.9244L12.4268 15.3221L12.0112 14.9044C11.8856 14.7884 11.6972 14.7884 11.5598 14.9044C11.4363 15.0397 11.4384 15.2398 11.5598 15.3537L12.8465 16.6309C12.9818 16.7523 13.1702 16.7619 13.3054 16.6405ZM19.9736 9.35892C20.2849 10.427 20.3264 11.6251 20.0939 12.8295L15.3707 8.10642C16.5752 7.88352 17.7733 7.9154 18.8414 8.22665C19.5274 8.45142 19.751 8.6729 19.9736 9.35892Z" fill="white"/>
</svg>
