<svg width="28" height="29" viewBox="0 0 28 29" fill="none" xmlns="http://www.w3.org/2000/svg">
<path d="M11.5316 5.26453C12.9779 5.26453 14.1483 4.08234 14.1483 2.61679C14.1483 1.17047 12.9779 0 11.5316 0C10.066 0 8.88382 1.17047 8.88382 2.61679C8.88382 4.08234 10.066 5.26453 11.5316 5.26453ZM16.9578 28.3706C17.6712 28.3706 18.2239 27.8041 18.2239 27.112V20.3883C18.2239 20.088 18.0673 19.6685 17.6712 19.4076L13.3707 16.5452V9.30093C13.3707 9.13804 13.4954 9.00585 13.6658 9.00585H23.0094C23.7132 9.00585 24.268 8.43726 24.268 7.74515C24.268 7.05726 23.7132 6.48867 23.0094 6.48867H9.64929C8.49476 6.48867 7.86218 6.90398 7.27742 7.63148L4.12437 11.5057C3.34273 12.4619 3.97953 13.8494 5.00703 13.8494H8.43757V15.468C8.43757 16.5895 9.06382 17.6386 10.0735 18.1786L15.6992 21.2093V27.112C15.6992 27.8041 16.2657 28.3706 16.9578 28.3706ZM7.30741 11.43L8.5332 9.90257V11.43H7.30741ZM3.29984 27.9394C3.77797 28.4803 4.56804 28.5079 5.09726 28.049L9.8471 23.8915C10.0878 23.6784 10.1879 23.5741 10.2762 23.3409L11.5027 20.2912L9.50703 19.2199C9.31109 19.1102 9.11726 18.974 8.93304 18.8177L7.99437 22.1707L3.42125 26.1633C2.91336 26.6083 2.85476 27.4336 3.29984 27.9394Z" fill="black"/>
</svg>
