<svg width="28" height="28" viewBox="0 0 28 28" fill="none" xmlns="http://www.w3.org/2000/svg">
<path d="M20.8983 7.20734C22.3458 7.20734 23.5079 6.04531 23.5079 4.60953C23.5079 3.16203 22.3458 2 20.8983 2C19.453 2 18.2909 3.16203 18.2909 4.60953C18.2909 6.04531 19.453 7.20734 20.8983 7.20734ZM13.7515 26.603C18.7006 26.603 22.4567 22.8521 22.4567 17.9705C22.4567 15.7337 21.5396 14.3841 19.5413 13.7077L17.6708 13.0611C17.3724 12.9673 17.2988 12.7519 17.4938 12.4674L18.7114 10.6948C19.6658 9.31976 19.3196 8.18117 17.8571 7.15648L13.3597 4.00765C12.8783 3.68281 12.2734 3.66687 11.7898 3.98422L7.62265 6.78898C6.05913 7.84765 7.50335 9.76999 8.92085 8.80507L12.4416 6.42523L14.8662 8.11906C15.2722 8.40781 15.3169 8.71906 15.0495 9.09195L13.0969 11.9319C12.0308 13.4752 12.8956 15.1348 14.5541 15.5778L19.572 16.8711C20.1544 17.0169 20.473 17.4612 20.473 18.0919C20.473 21.7189 17.5557 24.6097 13.7612 24.6097C9.88929 24.6097 6.98374 21.6746 6.98374 17.8672C6.98374 16.5455 7.35593 15.3615 7.99132 14.3715C8.76359 13.1314 7.05992 12.102 6.23352 13.4619C5.46383 14.7052 5 16.1982 5 17.8672C5 22.8099 8.75187 26.603 13.7515 26.603ZM22.5108 26.603C23.2648 26.603 23.8484 26.0098 23.8484 25.258C23.8484 24.5136 23.2648 23.9204 22.5108 23.9204C21.759 23.9204 21.1658 24.5136 21.1658 25.258C21.1658 26.0098 21.759 26.603 22.5108 26.603Z" fill="black"/>
</svg>
