<svg width="28" height="28" viewBox="0 0 28 28" fill="none" xmlns="http://www.w3.org/2000/svg">
<path d="M20.6782 8.26453C22.1341 8.26453 23.3163 7.09406 23.3163 5.63812C23.3163 4.18219 22.1341 3 20.6782 3C19.2222 3 18.0497 4.18219 18.0497 5.63812C18.0497 7.09406 19.2222 8.26453 20.6782 8.26453ZM12.3968 24.2224C13.1337 24.2224 13.7022 23.6187 13.7022 22.9031V17.3852C13.7022 16.8485 13.4552 16.4684 13.1421 16.1531L9.5442 12.5435L13.849 11.4492C14.0674 11.3927 14.2423 11.5484 14.2423 11.7605V14.0798C14.2423 14.4248 14.3754 14.7581 14.6245 15.0051L18.3933 18.7931C18.9087 19.2989 19.7435 19.2989 20.2589 18.7931C20.7668 18.2916 20.7764 17.4408 20.2589 16.935L16.8532 13.5506V11.3079L18.6607 13.3648C18.9173 13.6533 19.2762 13.8216 19.6467 13.8216H25.319C26.0442 13.8216 26.6128 13.2434 26.6128 12.5044C26.6128 11.7792 26.0442 11.2127 25.319 11.2127H20.2462L17.2411 7.74843C16.2942 6.65461 14.8308 6.22219 13.428 6.57047L6.97171 8.19281C4.3964 8.8425 3.95015 12.0366 5.99296 13.6938L11.0913 17.8483V22.9031C11.0913 23.6187 11.6716 24.2224 12.3968 24.2224ZM1.38374 23.8401C1.88952 24.3459 2.73608 24.3459 3.24936 23.8401L7.65725 19.4344C7.89467 19.1852 7.9671 18.9595 8.03952 18.5782L8.30178 17.1164L5.41898 14.7703V17.9585L1.38374 21.982C0.866243 22.4899 0.877962 23.3344 1.38374 23.8401Z" fill="black"/>
</svg>
