<svg width="28" height="28" viewBox="0 0 28 28" fill="none" xmlns="http://www.w3.org/2000/svg">
<path d="M14.105 9.40788L9.54734 12.9172L11.367 18.5274H16.8451L18.6648 12.9172L14.105 9.40788ZM18.3195 4.00578L14.0933 2.61383L9.85742 4.00578L14.0933 7.41827L18.3195 4.00578ZM13.393 3.00804V10.9009H14.8287V3.00804H13.393ZM22.2784 6.83023L20.6905 12.0774L25.4658 14.7516L24.5504 9.70273L22.2784 6.83023ZM25.0451 11.0801L24.5023 9.76039L17.1826 12.7173L17.7254 14.0487L25.0451 11.0801ZM16.7307 24.8886L20.7481 23.1451L23.4685 19.6719L17.9555 19.5877L16.7307 24.8886ZM21.2291 22.6393L16.3794 16.4028L15.2288 17.2798L20.0923 23.5025L21.2291 22.6393ZM11.4676 24.8375L10.2427 19.5387L4.73187 19.6208L7.45226 23.0961L11.4676 24.8375ZM6.96922 22.5903L8.10593 23.4535L12.9694 17.2309L11.8189 16.3538L6.96922 22.5903ZM5.93374 6.83023L3.66171 9.70273L2.74414 14.7516L7.52163 12.0774L5.93374 6.83023ZM3.16695 11.0801L10.4867 14.0487L11.0295 12.7173L3.70976 9.76039L3.16695 11.0801ZM14.105 26.21C20.7369 26.21 26.2121 20.7273 26.2121 14.105C26.2121 7.47312 20.7273 2 14.0954 2C7.47523 2 2 7.47312 2 14.105C2 20.7273 7.48484 26.21 14.105 26.21ZM14.105 24.3336C8.51233 24.3336 3.8785 19.6998 3.8785 14.105C3.8785 8.51023 8.50273 3.87639 14.0954 3.87639C19.6902 3.87639 24.3336 8.51023 24.3336 14.105C24.3336 19.6998 19.6998 24.3336 14.105 24.3336Z" fill="black"/>
</svg>
