<svg width="28" height="31" viewBox="0 0 28 31" fill="none" xmlns="http://www.w3.org/2000/svg">
<path d="M12.0028 5.26453C13.4395 5.26453 14.6292 4.07273 14.6292 2.63601C14.6292 1.1918 13.4395 0 12.0028 0C10.5565 0 9.36468 1.1918 9.36468 2.63601C9.36468 4.07273 10.5565 5.26453 12.0028 5.26453ZM13.5187 24.7587C13.999 24.8822 14.8104 24.7118 15.0457 23.9238L16.7639 18.2217C16.9481 17.587 16.6659 16.9258 15.9898 16.6926L11.3695 15.0947L11.9332 11.2533C11.9566 11.04 12.2318 10.9856 12.333 11.1935L13.2858 13.0446C13.519 13.4972 13.9289 13.7229 14.3974 13.7229H19.159C19.833 13.7229 20.4037 13.1916 20.4037 12.4898C20.4037 11.8212 19.8351 11.2568 19.159 11.2568H15.1619L13.6226 8.2132C13.1198 7.20773 12.2177 6.49523 11.0908 6.28007L10.4262 6.14906C9.19382 5.91046 8.19586 6.17671 7.42898 6.6539L3.58031 9.04851C3.23531 9.2796 3 9.6757 3 10.1166V14.8706C3 15.5489 3.56648 16.125 4.24476 16.125C4.92515 16.125 5.49164 15.5489 5.49164 14.8706V10.7873L7.05633 9.81421C7.20234 9.73218 7.36969 9.82171 7.33875 9.99538L6.8018 14.3093C6.58664 16.0092 7.15429 17.1839 9.11296 17.6419L14.0039 18.7903L12.6776 23.2296C12.4913 23.8664 12.7404 24.5393 13.5187 24.7587ZM4.76484 29.0409C5.20781 29.3348 6.00961 29.3369 6.4664 28.6704L9.97312 23.4476C10.1414 23.1951 10.2276 22.995 10.2745 22.6936L10.7604 19.2914L8.84039 18.8409C8.54648 18.776 8.28562 18.6801 8.0407 18.5918L7.79672 22.2539L4.41562 27.3138C4.03336 27.8803 4.1707 28.6587 4.76484 29.0409ZM9.64616 30.9694H13.4365C13.8483 30.9694 14.1951 30.6225 14.1951 30.2086V28.008H17.2364C17.6386 28.008 17.9716 27.6825 17.9716 27.2611V25.0467H21.0363C21.4481 25.0467 21.7737 24.7233 21.7737 24.3094V22.0971H24.723C25.1348 22.0971 25.4817 21.7619 25.4817 21.3501C25.4817 20.9501 25.1348 20.6032 24.723 20.6032H21.0363C20.6203 20.6032 20.3011 20.9522 20.3011 21.3501V23.5645H17.2364C16.8108 23.5645 16.5012 23.9114 16.5012 24.3094V26.5237H13.4365C13.0343 26.5237 12.7108 26.8493 12.7108 27.2611V29.4851H9.64616C9.22054 29.4851 8.90882 29.8085 8.90882 30.2086C8.90882 30.6204 9.21843 30.9694 9.64616 30.9694Z" fill="black"/>
</svg>
