<svg width="28" height="28" viewBox="0 0 28 28" fill="none" xmlns="http://www.w3.org/2000/svg">
<path d="M14.105 26.21C20.7369 26.21 26.2121 20.7273 26.2121 14.105C26.2121 7.47312 20.7273 2 14.0954 2C7.47523 2 2 7.47312 2 14.105C2 20.7273 7.48484 26.21 14.105 26.21Z" fill="black"/>
<path d="M16.7372 19.0892C16.4848 19.2383 16.1674 19.1595 16.0205 18.8858L13.1009 13.8437C12.8824 13.9332 12.6063 14.0227 12.2951 14.2135C11.1912 14.8358 10.7309 15.9087 9.47791 16.6311C9.14018 16.8399 8.72252 17.0445 8.28682 17.0445C7.86822 17.0445 7.58486 16.8591 7.38143 16.4895L5.47408 13.2076C5.25682 12.837 5.4326 12.4803 5.75322 12.3024C5.96416 12.1831 6.39143 12.0659 6.90072 11.7697C8.02385 11.1261 8.46283 10.0882 9.7158 9.35418C10.077 9.14746 10.4829 8.95996 10.8089 8.95996C11.186 8.95996 11.546 9.05793 11.8102 9.49246L16.931 18.3608C17.078 18.6132 16.9959 18.9444 16.7372 19.0892ZM19.8759 17.0445C19.4402 17.0445 19.0343 16.8399 18.687 16.6311C17.4724 15.9376 16.7484 14.5241 15.4289 13.9904L14.591 12.5616L16.3643 9.50207C16.6167 9.05793 16.9884 8.95996 17.3656 8.95996C17.6916 8.95996 18.0879 9.14746 18.4566 9.35418C19.7116 10.0882 20.1389 11.1261 21.2738 11.7697C21.7734 12.0659 22.2082 12.1831 22.4191 12.3024C22.7398 12.4899 22.9177 12.837 22.6983 13.2076L20.7909 16.4895C20.5779 16.8591 20.3063 17.0445 19.8759 17.0445ZM11.4352 19.0892C11.1689 18.9444 11.0944 18.6132 11.2413 18.3608L12.9764 15.3755L13.5834 16.4234L12.1519 18.8858C12.0049 19.1595 11.6876 19.2479 11.4352 19.0892Z" fill="white"/>
</svg>
