<svg width="28" height="28" viewBox="0 0 28 28" fill="none" xmlns="http://www.w3.org/2000/svg">
<path d="M14.105 26.21C20.7369 26.21 26.2121 20.7273 26.2121 14.105C26.2121 7.47312 20.7273 2 14.0954 2C7.47523 2 2 7.47312 2 14.105C2 20.7273 7.48484 26.21 14.105 26.21ZM14.105 23.8255C8.71085 23.8255 4.39412 19.4991 4.39412 14.105C4.39412 8.71085 8.70124 4.38452 14.0954 4.38452C19.4895 4.38452 23.8276 8.71085 23.8276 14.105C23.8276 19.4991 19.4991 23.8255 14.105 23.8255Z" fill="black"/>
<path d="M14.0955 20.3009C17.4688 20.3009 20.2818 17.488 20.2818 14.1146C20.2818 10.7467 17.4656 7.93042 14.0955 7.93042C10.7221 7.93042 7.9209 10.7413 7.9209 14.1146C7.9209 17.4762 10.736 20.3009 14.0955 20.3009ZM9.7741 16.9205C9.2498 16.1159 8.95145 15.1686 8.94184 14.135L10.1946 13.4206L11.8926 14.1141L12.3991 15.6837L11.467 16.8896L9.7741 16.9205ZM10.0331 10.9016C10.6352 10.1652 11.4206 9.56729 12.3381 9.2455L13.5801 10.239V12.0235L12.1844 13.0855L10.4957 12.3983L10.0331 10.9016ZM18.1696 10.9016L17.7166 12.3983L16.0279 13.0855L14.6418 12.0235V10.2177L15.8645 9.2455C16.7821 9.56729 17.575 10.1652 18.1696 10.9016ZM18.4265 16.944L16.7432 16.9152L15.8111 15.6976L16.3197 14.1141L18.0178 13.4206L19.2705 14.135C19.2609 15.1686 18.9529 16.1373 18.4265 16.944ZM14.1051 19.2662C13.6063 19.2662 13.1247 19.1884 12.6686 19.0616L12.3072 17.5264L13.1444 16.4506H15.0424L15.903 17.5637L15.5437 19.0637C15.0876 19.198 14.606 19.2662 14.1051 19.2662Z" fill="black"/>
</svg>
