<svg width="28" height="28" viewBox="0 0 28 28" fill="none" xmlns="http://www.w3.org/2000/svg">
<path d="M14.105 26.21C20.7369 26.21 26.2121 20.7273 26.2121 14.105C26.2121 7.47312 20.7273 2 14.0954 2C7.47523 2 2 7.47312 2 14.105C2 20.7273 7.48484 26.21 14.105 26.21ZM14.105 23.8255C8.71085 23.8255 4.39412 19.4991 4.39412 14.105C4.39412 8.71085 8.70124 4.38452 14.0954 4.38452C19.4895 4.38452 23.8276 8.71085 23.8276 14.105C23.8276 19.4991 19.4991 23.8255 14.105 23.8255Z" fill="black"/>
<path d="M16.127 11.0047C16.6588 10.0222 16.8165 9.12919 16.4872 8.39185C15.7466 8.08599 14.9495 7.90692 14.1055 7.90692C12.3749 7.90692 10.7923 8.64661 9.66922 9.80724C11.8461 9.01317 14.6563 9.85599 16.127 11.0047ZM13.6794 13.9519C14.4702 13.2294 15.148 12.4972 15.6467 11.7746C13.9653 10.4471 10.4523 9.6031 8.52031 11.4385C8.19828 12.0994 7.99039 12.8361 7.92969 13.5919C9.38727 12.6413 11.7784 13.1783 13.6794 13.9519ZM9.88508 13.9482C9.05399 13.9386 8.35602 14.1357 7.9393 14.6823C8.16828 17.1514 9.88625 19.2209 12.185 19.9709C11.0682 18.6338 9.93524 16.3641 9.88508 13.9482ZM13.3717 14.8081C12.5286 14.4446 11.6237 14.1622 10.7944 14.0408C10.9191 17.2398 12.9981 19.9494 14.0239 20.2904C14.8161 20.2883 15.4536 20.1678 16.0665 19.9599C14.5832 19.0543 13.4771 16.6803 13.3717 14.8081ZM17.2262 19.4391C19.0419 18.3523 20.2876 16.3534 20.2876 14.1008C20.2876 13.408 20.1596 12.7428 19.9517 12.1278C19.5076 13.7666 18.227 16.1035 15.4883 18.1934C16.0039 18.9179 16.6145 19.4016 17.2262 19.4391ZM15.0282 17.4172C18.6102 14.6277 19.4373 11.5487 19.2489 10.685C18.7832 9.99005 18.1832 9.40177 17.4861 8.94567C17.6802 10.7356 16.2034 12.8848 14.2672 14.6398C14.3045 15.5628 14.5944 16.5774 15.0282 17.4172Z" fill="black"/>
</svg>
