<svg width="28" height="28" viewBox="0 0 28 28" fill="none" xmlns="http://www.w3.org/2000/svg">
<path d="M14.105 26.21C20.7369 26.21 26.2121 20.7273 26.2121 14.105C26.2121 7.47312 20.7273 2 14.0954 2C7.47523 2 2 7.47312 2 14.105C2 20.7273 7.48484 26.21 14.105 26.21Z" fill="black"/>
<path d="M17.6335 8.78678C17.855 8.92201 18.0627 9.08819 18.2682 9.26069L9.24406 18.2677C9.06406 18.0718 8.90539 17.8695 8.77226 17.6384L9.97835 16.4281C10.1584 16.2598 10.1466 16.0095 9.97835 15.8412C9.81007 15.6805 9.56726 15.6805 9.40859 15.8412L8.33445 16.8845C7.91867 16.0447 7.67773 15.1058 7.67773 14.1146C7.67773 10.6105 10.5917 7.68475 14.0959 7.68475C15.0871 7.68475 16.0377 7.9374 16.885 8.35319L15.8342 9.40389C15.6852 9.57428 15.6756 9.81709 15.8342 9.97577C16.01 10.1516 16.2549 10.1516 16.4136 9.97577L17.6335 8.78678ZM15.4515 10.9475C15.6177 10.7792 15.6219 10.5343 15.4515 10.3681C15.2928 10.2073 15.0383 10.2073 14.8775 10.3681L14.0188 11.2269C13.8388 11.4069 13.8388 11.6614 14.0188 11.8105C14.1753 11.967 14.4245 11.9712 14.581 11.8105L15.4515 10.9475ZM13.6382 12.7609C13.7872 12.6139 13.7872 12.3498 13.6382 12.1986C13.4678 12.0228 13.2132 12.0228 13.0567 12.1986L12.1862 13.0594C12.0275 13.2277 12.0275 13.4748 12.1862 13.6527C12.3353 13.8017 12.609 13.8017 12.7581 13.6527L13.6382 12.7609ZM11.8013 14.5859C11.9525 14.4273 11.9621 14.1844 11.8013 14.0258C11.6448 13.8458 11.402 13.8458 11.2241 14.0258L10.3611 14.8845C10.2024 15.0432 10.2024 15.3073 10.3611 15.4564C10.5273 15.6226 10.7881 15.6343 10.9447 15.4564L11.8013 14.5859ZM19.8573 11.3309C20.2773 12.1728 20.5257 13.1234 20.5257 14.1146C20.5257 17.6187 17.6 20.5444 14.0959 20.5444C13.1047 20.5444 12.1679 20.2939 11.3185 19.876L12.381 18.788C12.5396 18.6294 12.5396 18.3866 12.381 18.2183C12.2148 18.05 11.972 18.0479 11.8016 18.2183L10.5603 19.4403C10.3409 19.2955 10.1333 19.1389 9.94695 18.9685L18.9519 9.94975C19.1298 10.1553 19.2864 10.3672 19.4312 10.5844L18.2443 11.7734C18.0685 11.93 18.0685 12.1845 18.2443 12.3528C18.4051 12.5211 18.6479 12.5211 18.8162 12.3528L19.8573 11.3309ZM17.8541 13.317C18.0128 13.1584 18.0128 12.8942 17.8541 12.7238C17.6879 12.5748 17.4292 12.5651 17.2705 12.7238L16.4139 13.6135C16.2627 13.7722 16.2531 14.0192 16.4139 14.1779C16.58 14.3558 16.8153 14.3558 16.9932 14.1779L17.8541 13.317ZM16.0194 15.1379C16.1973 14.9792 16.1973 14.7289 16.0194 14.5585C15.8703 14.4094 15.6062 14.4094 15.4592 14.5585L14.5674 15.429C14.4184 15.5876 14.4184 15.8614 14.5674 16.0105C14.7474 16.1691 14.9903 16.1691 15.1585 16.0105L16.0194 15.1379ZM14.1964 16.9726C14.3647 16.7947 14.3647 16.5423 14.1964 16.3911C14.0378 16.2345 13.7949 16.2324 13.6342 16.3911L12.7754 17.2519C12.5954 17.4202 12.5954 17.6694 12.7754 17.8334C12.9149 17.9921 13.1769 17.9921 13.3356 17.8334L14.1964 16.9726Z" fill="white"/>
</svg>
