<svg width="29" height="29" viewBox="0 0 29 29" fill="none" xmlns="http://www.w3.org/2000/svg">
<path d="M11.9714 5.46633C13.4156 5.46633 14.5882 4.29587 14.5882 2.83993C14.5882 1.3936 13.4156 0.221024 11.9714 0.221024C10.5037 0.221024 9.33328 1.3936 9.33328 2.83993C9.33328 4.29587 10.5037 5.46633 11.9714 5.46633ZM12.7533 16.6558L19.2682 18.6691L25.4955 21.4952C27.1652 22.2459 28.1491 19.8916 26.5732 19.1686L15.8737 14.3355V8.61493C15.8737 8.18836 15.9867 8.11922 16.3055 7.99664L19.5384 6.6811C19.9326 6.51914 19.9805 6.42539 20.1965 6.16993L23.5957 2.2254C24.0621 1.68657 23.978 0.884769 23.4487 0.439692C22.9195 -0.0213225 22.106 0.0574271 21.6609 0.584536L18.4247 4.35446L3.50179 10.4487C3.10523 10.6043 2.81671 10.7822 2.62406 10.9685H8.98709L10.563 10.3369C10.8884 10.2089 11.013 10.3294 11.013 10.5373V14.2638C11.013 15.528 11.5966 16.3055 12.7533 16.6558ZM11.6426 26.9231C11.3604 27.8974 12.1387 28.499 12.8916 28.499C13.4069 28.499 13.9319 28.219 14.0969 27.5876L15.8344 21.2878C15.862 21.1622 15.8737 21.0387 15.8737 20.9449V18.8409L12.9591 17.9475L13.3118 20.8683L11.6426 26.9231ZM0.746949 13.6774H9.79804V12.1931H0.746949C0.323436 12.1931 0 12.5187 0 12.9305C0 13.3444 0.323436 13.6774 0.746949 13.6774ZM27.7408 13.6774C28.1526 13.6774 28.4782 13.3444 28.4782 12.9305C28.4782 12.5187 28.1526 12.1931 27.7408 12.1931H17.149V13.1437L17.5497 13.6774H27.7408Z" fill="black"/>
</svg>
