<svg width="28" height="33" viewBox="0 0 28 33" fill="none" xmlns="http://www.w3.org/2000/svg">
<path d="M14.0217 8.89317C15.4488 8.89317 16.6097 7.7302 16.6097 6.28387C16.6097 4.84926 15.4488 3.69591 14.0217 3.69591C12.5754 3.69591 11.4145 4.84926 11.4145 6.28387C11.4145 7.7302 12.5754 8.89317 14.0217 8.89317ZM12.3035 32.3949C12.9487 32.3949 13.5035 31.838 13.5035 31.197V24.9931L14.0217 20.7847L14.5324 24.9931V31.197C14.5324 31.838 15.0851 32.3949 15.7303 32.3949C16.383 32.3949 16.9261 31.838 16.9261 31.197V14.8557C16.9261 14.7066 17.1073 14.6895 17.1659 14.8046C18.5259 17.3223 19.376 19.7127 19.7222 20.7502C19.9394 21.3582 20.6219 21.7053 21.2374 21.4934C21.7315 21.3327 22.0434 20.8663 22.0434 20.3701C22.0434 20.2487 22.02 20.1134 21.9806 19.9878C21.9019 19.7206 19.9141 13.8139 17.445 11.0167C16.9188 10.4138 16.1339 10.0496 15.2883 10.0496H12.7455C11.8999 10.0496 11.115 10.4138 10.5984 11.0167C8.11969 13.8139 6.14156 19.7206 6.06281 19.9878C6.01383 20.1134 6 20.2583 6 20.3797C6 20.8663 6.31195 21.3327 6.80601 21.4934C7.42148 21.7053 8.09437 21.3582 8.31164 20.7502C8.66742 19.7127 9.50789 17.3223 10.8755 14.8109C10.9383 14.6895 11.1173 14.7109 11.1173 14.8599V31.197C11.1173 31.838 11.6625 32.3949 12.3035 32.3949ZM14.0217 1.48856C18.1739 1.48856 20.5591 5.32106 20.5591 11.8543V20.3818H22.0434V11.8543C22.0434 4.37395 19.1231 0.00427246 14.0217 0.00427246C8.93203 0.00427246 6.00961 4.37395 6.00961 11.8543V20.3914H7.4939V11.8543C7.4939 5.32106 9.86952 1.48856 14.0217 1.48856Z" fill="black"/>
</svg>
