<svg width="43" height="28" viewBox="0 0 43 28" fill="none" xmlns="http://www.w3.org/2000/svg">
<path d="M21.9092 11.9656L23.1734 14.1495L23.5814 13.4346C24.09 13.635 24.8527 13.9027 25.7018 14.3806C28.4407 15.9739 29.5941 18.5775 32.4668 20.2451C33.3654 20.7764 34.3111 21.1503 35.0405 21.2302C35.9222 21.3164 36.6837 21.0418 37.2111 20.1277L41.9211 11.9745C42.3413 11.235 42.0263 10.5268 41.3274 10.1161C40.797 9.81473 39.7282 9.5452 38.5282 8.85356C35.7797 7.26989 34.636 4.65661 31.7611 2.98903C30.8646 2.46731 29.9093 2.09559 29.1875 2.01356C28.3079 1.93153 27.5485 2.21161 27.019 3.12989L21.9092 11.9656ZM20.2013 19.2956L18.9296 17.1021L14.5681 24.6638C14.265 25.1848 14.4586 25.8622 14.97 26.1694C15.5028 26.4767 16.163 26.296 16.4585 25.7611L20.2013 19.2956Z" fill="black"/>
<path d="M27.5442 24.6638L15.0933 3.12989C14.5638 2.21161 13.8044 1.93153 12.9248 2.01356C12.1933 2.09559 11.2476 2.46731 10.3512 2.98903C7.47631 4.65661 6.32295 7.26989 3.57443 8.85356C2.37443 9.5452 1.31529 9.81473 0.784898 10.1161C0.0763859 10.5268 -0.229003 11.235 0.191229 11.9745L4.89162 20.1277C5.41896 21.0418 6.19006 21.3164 7.06216 21.2302C7.79154 21.1503 8.74685 20.7764 9.63372 20.2451C12.5182 18.5775 13.6619 15.9739 16.4104 14.3806C17.25 13.9027 18.0223 13.635 18.5308 13.4346L25.6441 25.7611C25.9493 26.296 26.6074 26.4767 27.1422 26.1694C27.6537 25.8622 27.8376 25.1848 27.5442 24.6638Z" fill="black"/>
</svg>
