<svg width="28" height="28" viewBox="0 0 28 28" fill="none" xmlns="http://www.w3.org/2000/svg">
<path d="M8.29798 7.26663C9.75392 7.26663 10.9265 6.08445 10.9265 4.6189C10.9265 3.17258 9.75392 2 8.29798 2C6.85165 2 5.66197 3.17258 5.66197 4.6189C5.66197 6.08445 6.85165 7.26663 8.29798 7.26663ZM25.8452 23.7608L18.0381 19.5488L13.5269 16.4096C13.2093 16.1933 12.9098 15.9172 12.6583 15.6059C13.1048 15.3057 13.2838 14.7816 13.1549 14.2693L12.2676 10.6709C11.9427 9.37906 10.7744 8.49078 9.44735 8.49078H6.62876C5.75431 8.49078 5.13767 8.70593 4.5679 9.27359L1.36048 12.4852C0.954782 12.8888 0.88986 13.5181 1.17416 14.0122L3.41548 17.9441V24.8724C3.41548 25.5507 3.98408 26.1289 4.67407 26.1289C5.36618 26.1289 5.93478 25.5507 5.93478 24.8724V18.9652L12.7731 19.4616L16.9457 21.8265L24.6569 25.9702C25.3959 26.3642 26.1114 25.9915 26.3723 25.474C26.68 24.8565 26.4468 24.0823 25.8452 23.7608ZM3.83618 13.5926L5.83962 11.5775L7.42189 15.6467L6.19001 16.3522H5.41517L3.83618 13.5926Z" fill="black"/>
</svg>
