<svg width="28" height="28" viewBox="0 0 28 28" fill="none" xmlns="http://www.w3.org/2000/svg">
<path d="M13.5252 23.4629C16.8182 23.4629 17.3106 21.0671 19.1275 21.0671C20.9753 21.0671 21.2716 23.4629 25.0164 23.4629H25.0855C25.6164 23.4629 26.0483 23.0309 26.0483 22.5001C26.0483 21.9713 25.6164 21.549 25.0855 21.549H25.0164C23.8351 21.549 23.1468 21.0659 22.232 20.4153C21.464 19.8507 20.4789 19.1532 19.1275 19.1532C17.7376 19.1532 16.743 19.8891 15.9749 20.4559C15.16 21.077 14.5323 21.549 13.5252 21.549C12.5064 21.549 11.8905 21.077 11.0734 20.4559C10.3075 19.8891 9.31069 19.1532 7.92085 19.1532C6.57156 19.1532 5.58437 19.8507 4.81843 20.4153C3.90156 21.0659 3.20359 21.549 2.03195 21.549H1.96281C1.42234 21.549 1 21.9713 1 22.5001C1 23.0309 1.42234 23.4629 1.96281 23.4629H2.03195C5.76718 23.4629 6.07515 21.0671 7.92085 21.0671C9.73984 21.0671 10.2226 23.4629 13.5252 23.4629Z" fill="black"/>
<path d="M13.5252 16.3815C16.8182 16.3815 17.3106 13.9857 19.1275 13.9857C20.9753 13.9857 21.2716 16.3815 25.0164 16.3815H25.0855C25.6164 16.3815 26.0483 15.9591 26.0483 15.4283C26.0483 14.8995 25.6164 14.4676 25.0855 14.4676H25.0164C23.8351 14.4676 23.1468 13.9941 22.232 13.3339C21.464 12.7789 20.4789 12.0718 19.1275 12.0718C17.7376 12.0718 16.743 12.8173 15.9749 13.384C15.16 13.9955 14.5323 14.4676 13.5252 14.4676C12.5064 14.4676 11.8905 13.9955 11.0734 13.384C10.3075 12.8173 9.31069 12.0718 7.92085 12.0718C6.57156 12.0718 5.58437 12.7789 4.81843 13.3339C3.90156 13.9941 3.20359 14.4676 2.03195 14.4676H1.96281C1.42234 14.4676 1 14.8995 1 15.4283C1 15.9591 1.42234 16.3815 1.96281 16.3815H2.03195C5.76718 16.3815 6.07515 13.9857 7.92085 13.9857C9.73984 13.9857 10.2226 16.3815 13.5252 16.3815Z" fill="black"/>
<path d="M13.5252 9.31179C16.8182 9.31179 17.3106 6.9139 19.1275 6.9139C20.9753 6.9139 21.2716 9.31179 25.0164 9.31179H25.0855C25.6164 9.31179 26.0483 8.87773 26.0483 8.34687C26.0483 7.81812 25.6164 7.39578 25.0855 7.39578H25.0164C23.8351 7.39578 23.1468 6.91273 22.232 6.26211C21.464 5.70711 20.4789 5 19.1275 5C17.7376 5 16.743 5.73594 15.9749 6.31226C15.16 6.92375 14.5323 7.39578 13.5252 7.39578C12.5064 7.39578 11.8905 6.92375 11.0734 6.31226C10.3075 5.73594 9.31069 5 7.92085 5C6.57156 5 5.58437 5.70711 4.81843 6.26211C3.90156 6.91273 3.20359 7.39578 2.03195 7.39578H1.96281C1.42234 7.39578 1 7.81812 1 8.34687C1 8.87773 1.42234 9.31179 1.96281 9.31179H2.03195C5.76718 9.31179 6.07515 6.9139 7.92085 6.9139C9.73984 6.9139 10.2226 9.31179 13.5252 9.31179Z" fill="black"/>
</svg>
