<svg width="28" height="30" viewBox="0 0 28 30" fill="none" xmlns="http://www.w3.org/2000/svg">
<path d="M12.0199 5.26453C13.4662 5.26453 14.658 4.07273 14.658 2.6264C14.658 1.18969 13.4662 0 12.0199 0C10.5736 0 9.39351 1.18969 9.39351 2.6264C9.39351 4.07273 10.5736 5.26453 12.0199 5.26453ZM18.2044 24.1174C18.7219 23.8683 19.0551 23.2645 18.724 22.4339L16.6362 17.2069C16.5712 17.0323 16.4414 16.8928 16.1815 16.7032L12.3912 13.8973L12.6682 9.79194C12.6799 9.55968 12.862 9.47671 13.0847 9.54702L15.4959 10.3685C15.7408 10.4451 16.0444 10.4782 16.3127 10.4451L20.9102 9.9328C22.6076 9.73687 22.2998 7.25906 20.6259 7.44539L16.1817 7.9514L11.6555 6.44835C9.96632 5.88281 8.50406 6.83812 8.35922 8.52937L8.02476 12.6752C7.91719 13.9373 8.57648 15.1622 9.6607 15.7905L14.4916 18.5911L16.4027 23.3571C16.7477 24.2334 17.6102 24.4155 18.2044 24.1174ZM7.04578 26.2352C7.54945 26.4874 8.21156 26.4234 8.66085 25.7601L11.8001 21.0806C11.898 20.9198 11.9843 20.6962 11.996 20.43L12.1186 18.479L9.34664 16.8647L9.49687 20.0435L6.61219 24.3642C6.08719 25.1651 6.45258 25.9425 7.04578 26.2352ZM16.3957 27.9724L21.0401 26.4342C21.4221 26.3022 21.6169 26.0299 21.6169 25.5851V10.9652C21.4362 11.0383 21.229 11.0967 20.9953 11.1265L20.1347 11.2223V25.1648L15.952 26.5551C15.4338 26.7361 15.304 27.1936 15.4498 27.5543C15.5646 27.8798 15.9232 28.1299 16.3957 27.9724ZM6.73523 29.0029H11.5694C11.9812 29.0029 12.3281 28.6582 12.3281 28.256C12.3281 27.8442 11.9812 27.5208 11.5694 27.5208H6.73523C6.32554 27.5208 6 27.8442 6 28.256C6 28.6582 6.32554 29.0029 6.73523 29.0029Z" fill="black"/>
</svg>
