<svg width="28" height="28" viewBox="0 0 28 28" fill="none" xmlns="http://www.w3.org/2000/svg">
<path d="M14.105 26.21C20.7369 26.21 26.2121 20.7273 26.2121 14.105C26.2121 7.47312 20.7273 2 14.0954 2C7.47523 2 2 7.47312 2 14.105C2 20.7273 7.48484 26.21 14.105 26.21Z" fill="black"/>
<path d="M14.1047 20.5445C10.6143 20.5445 7.68652 17.6071 7.68652 14.1147C7.68652 10.6105 10.6026 7.68481 14.1047 7.68481C17.6034 7.68481 20.5345 10.6159 20.5345 14.1147C20.5345 17.6188 17.6088 20.5445 14.1047 20.5445ZM9.61519 17.0313L11.3751 17.0003L12.3391 15.7371L11.8188 14.1163L10.0474 13.3931L8.75315 14.1351C8.76276 15.2102 9.07706 16.1873 9.61519 17.0313ZM9.888 10.7772L10.3645 12.3271L12.1245 13.042L13.5734 11.9427V10.0869L12.2782 9.06363C11.3308 9.39715 10.5178 10.0131 9.888 10.7772ZM18.3331 10.7772C17.7225 10.0131 16.8902 9.39715 15.9429 9.06363L14.6766 10.0635V11.9427L16.1063 13.042L17.8662 12.3271L18.3331 10.7772ZM18.6017 17.0547C19.144 16.2182 19.4679 15.2102 19.4775 14.1351L18.1833 13.3931L16.4119 14.1163L15.8895 15.753L16.8534 17.0259L18.6017 17.0547ZM14.1143 19.4641C14.629 19.4641 15.1383 19.3938 15.6103 19.2478L15.9813 17.6945L15.0888 16.5379H13.1163L12.2473 17.6573L12.6204 19.2456C13.0924 19.3842 13.6017 19.4641 14.1143 19.4641Z" fill="white"/>
</svg>
