<svg width="28" height="28" viewBox="0 0 28 28" fill="none" xmlns="http://www.w3.org/2000/svg">
<path d="M14.105 26.21C20.7369 26.21 26.2121 20.7273 26.2121 14.105C26.2121 7.47312 20.7273 2 14.0954 2C7.47523 2 2 7.47312 2 14.105C2 20.7273 7.46562 26.21 14.105 26.21ZM11.2337 23.9138C8.8714 23.2191 6.84476 21.6762 5.52569 19.6454L9.32632 19.591L10.9965 17.4554L9.80163 13.7717L6.69992 12.5159L3.85718 14.1191C3.871 11.6544 4.73304 9.43062 6.16624 7.67679L7.23101 11.1845L10.2137 12.3945L13.3737 9.96452V6.8382L10.5259 4.5296C11.6415 4.10655 12.8487 3.87639 14.0954 3.87639C15.3399 3.87639 16.5472 4.10444 17.6628 4.52749L14.8287 6.83609V9.96452L17.9867 12.3945L20.9598 11.1845L22.0245 7.67679C23.4598 9.43062 24.3219 11.6544 24.3336 14.1191L21.4909 12.5159L18.3891 13.7717L17.1922 17.4617L18.8623 19.5994L22.6566 19.6559C21.3397 21.6805 19.3152 23.2212 16.955 23.9138L17.7491 20.4924L16.2069 18.5274H11.9733L10.4492 20.4819L11.2337 23.9138Z" fill="black"/>
</svg>
