<svg width="30" height="28" viewBox="0 0 30 28" fill="none" xmlns="http://www.w3.org/2000/svg">
<path d="M8.0542 6.48296C9.43021 6.48296 10.5496 5.36148 10.5496 3.98758C10.5496 2.61367 9.43021 1.50391 8.0542 1.50391C6.6824 1.50391 5.56842 2.61367 5.56842 3.98758C5.56842 5.36148 6.6824 6.48296 8.0542 6.48296ZM22.359 5.98117C23.7329 5.98117 24.8523 4.85757 24.8523 3.48578C24.8523 2.11937 23.7329 1 22.359 1C20.9851 1 19.8733 2.11937 19.8733 3.48578C19.8733 4.85757 20.9851 5.98117 22.359 5.98117ZM1.18819 9.58186L3.66295 9.77897C3.81647 9.7928 3.92311 9.89944 3.92311 10.0764V14.59C3.92311 15.5092 4.2203 16.4134 4.78163 17.1196L7.69303 20.8651L6.20803 25.8027C6.00038 26.481 6.39436 27.2083 7.0492 27.3904C7.69983 27.5767 8.41748 27.269 8.63896 26.53L10.285 21.021C10.3159 20.9261 10.3297 20.8483 10.3319 20.7512L14.7915 26.3966C15.2228 26.9376 16.0384 27.0451 16.558 26.6118C17.1107 26.1475 17.2108 25.3808 16.7795 24.8303L8.7135 14.6221L9.07889 11.0277C9.11193 10.7931 9.31889 10.6832 9.51834 10.7802L12.3104 12.1811C12.5043 12.2887 12.8589 12.3653 13.139 12.3653H17.5872C17.879 12.3653 18.1888 12.2556 18.4007 12.0693L20.4343 10.3202C20.6125 10.1612 20.8333 10.2348 20.9165 10.446L22.0468 13.5826L17.2539 14.8994C16.746 15.0367 16.3562 15.4755 16.3051 16.0068L15.7703 21.4335C15.6936 22.263 16.4188 22.8156 17.0364 22.8156C17.6795 22.8156 18.2322 22.3429 18.295 21.6805L18.7436 17.226L22.0119 16.7251L20.4297 19.9089C20.2476 20.271 20.1496 20.6788 20.2986 21.0611L22.5367 26.6418C22.8189 27.3456 23.5855 27.5905 24.1893 27.3456C24.8282 27.0869 25.1518 26.3479 24.8931 25.693L22.9117 20.7533L25.6431 16.8693C26.3493 15.8851 26.6038 14.6155 26.3886 13.4301L25.9647 11.095C25.9124 10.8144 26.1311 10.6342 26.3945 10.7216L27.7911 11.1904C28.7847 11.5354 29.5438 10.9115 29.4554 9.91585L28.8866 4.27867C28.8238 3.55984 28.1753 3.06156 27.5045 3.13398C26.8262 3.20851 26.297 3.83242 26.3598 4.53952L26.7306 8.18124L23.4383 7.08062C22.0515 6.61515 20.5743 6.86757 19.424 7.85921L17.1283 9.83851H13.2922L9.6885 8.04038C9.141 7.75703 8.59889 7.61007 7.98858 7.5632L2.99311 7.1882L4.14904 3.7096C4.38014 3.03132 4.01381 2.31367 3.35686 2.09218C2.69452 1.87492 1.96725 2.22953 1.75538 2.89398L0.0648313 7.90585C-0.196028 8.69593 0.360846 9.51905 1.18819 9.58186Z" fill="black"/>
</svg>
