<svg width="28" height="28" viewBox="0 0 28 28" fill="none" xmlns="http://www.w3.org/2000/svg">
<path d="M14.105 26.21C20.7369 26.21 26.2121 20.7273 26.2121 14.105C26.2121 7.47312 20.7273 2 14.0954 2C7.47523 2 2 7.47312 2 14.105C2 20.7273 7.48484 26.21 14.105 26.21ZM14.105 23.8255C8.71085 23.8255 4.39412 19.4991 4.39412 14.105C4.39412 8.71085 8.70124 4.38452 14.0954 4.38452C19.4895 4.38452 23.8276 8.71085 23.8276 14.105C23.8276 19.4991 19.4991 23.8255 14.105 23.8255Z" fill="black"/>
<path d="M7.9209 14.105C7.9209 16.9393 9.90606 19.3794 12.5528 20.09C12.6988 19.6573 12.7788 19.2205 12.8331 18.7782L12.6124 18.7686C12.3876 18.759 12.2109 18.5694 12.2109 18.3458C12.2205 18.1285 12.393 17.9251 12.6316 17.9251L12.8449 17.9347C12.8331 17.682 12.8022 17.4411 12.767 17.1809L12.542 17.2353C12.329 17.296 12.1054 17.1575 12.0564 16.9456C11.9936 16.7166 12.1267 16.478 12.3344 16.4269L12.5477 16.3726C12.4624 16.1145 12.3632 15.8757 12.2352 15.6348L12.0881 15.718C11.89 15.8277 11.6514 15.7606 11.5343 15.5614C11.4225 15.3697 11.4832 15.1034 11.6887 14.9916L11.8338 14.9084C11.6686 14.6813 11.5033 14.4617 11.3093 14.2538L11.1972 14.3659C11.0386 14.5245 10.7861 14.5149 10.6157 14.3562C10.4571 14.2093 10.4475 13.9313 10.604 13.7748L10.7064 13.6723C10.5337 13.523 10.3396 13.3812 10.1477 13.2608L10.0293 13.4762C9.91543 13.6859 9.66723 13.7403 9.48301 13.6327C9.26996 13.5348 9.19543 13.2823 9.31473 13.0651L9.42348 12.8614C9.01215 12.6589 8.59121 12.5204 8.15856 12.4266C8.00832 12.953 7.9209 13.5317 7.9209 14.105ZM14.1051 20.3009C16.6431 20.3009 18.8648 18.7058 19.8131 16.482C19.3197 16.3787 18.8498 16.2167 18.3991 16.01L18.2744 16.2338C18.1668 16.4394 17.9102 16.5214 17.7067 16.4096C17.515 16.2903 17.4426 16.0379 17.5523 15.8323L17.6749 15.6202C17.3967 15.455 17.1323 15.2546 16.8754 15.0521L16.7006 15.2269C16.5377 15.3877 16.2831 15.3622 16.1212 15.2173C15.9604 15.0544 15.9433 14.802 16.0999 14.6476L16.2747 14.4748C16.0413 14.218 15.8313 13.9536 15.6426 13.6637L15.3974 13.8097C15.194 13.929 14.9512 13.8448 14.8415 13.651C14.7435 13.4455 14.7946 13.193 14.9863 13.0951L15.2315 12.9512C15.0759 12.6282 14.9416 12.301 14.8424 11.9684L14.5408 12.0484C14.3076 12.1091 14.1042 11.9717 14.0456 11.7491C13.9828 11.5393 14.0945 11.3124 14.3331 11.2475L14.6486 11.1697C14.5942 10.8702 14.5687 10.5631 14.557 10.254H14.3043C14.0711 10.2444 13.9124 10.0505 13.9145 9.82578C13.9145 9.6043 14.0967 9.41258 14.3331 9.41047L14.5687 9.42008C14.6156 8.92672 14.7189 8.44508 14.8649 7.96344C14.6156 7.9325 14.3449 7.90906 14.0955 7.90906C11.5713 7.90906 9.36137 9.50211 8.42059 11.7024C8.89262 11.8079 9.35293 11.9656 9.79942 12.1744L9.91239 11.9741C10.0296 11.7631 10.2724 11.7078 10.48 11.8121C10.6781 11.9101 10.758 12.17 10.6387 12.3755L10.5257 12.578C10.788 12.7316 11.0311 12.9202 11.2603 13.1047L11.4979 12.8809C11.6641 12.7264 11.8898 12.7318 12.0794 12.8947C12.2435 13.0491 12.2519 13.3016 12.089 13.4644L11.8673 13.6862C12.1082 13.943 12.332 14.2137 12.5228 14.5112L12.7893 14.3673C12.9885 14.2501 13.2238 14.3258 13.3452 14.5334C13.4645 14.7155 13.4081 14.9893 13.1983 15.1011L12.9414 15.245C13.0992 15.5466 13.2217 15.8558 13.3209 16.1787L13.5618 16.1127C13.777 16.0541 13.9985 16.1809 14.0592 16.4023C14.1102 16.6313 13.9792 16.8624 13.7695 16.921L13.5264 16.9871C13.5829 17.2984 13.6085 17.6309 13.6202 17.9539H13.8845C14.1135 17.9635 14.2881 18.167 14.2881 18.3842C14.2881 18.6132 14.1039 18.7974 13.8749 18.7974L13.5988 18.7878C13.5424 19.2812 13.4486 19.7745 13.293 20.2348C13.5616 20.2775 13.8344 20.3009 14.1051 20.3009ZM20.301 14.105C20.301 11.2505 18.2849 8.80086 15.6222 8.09867C15.4762 8.54094 15.3867 8.98531 15.3398 9.4318L15.5861 9.44141C15.8097 9.45102 15.9897 9.64484 15.9801 9.86422C15.9801 10.1049 15.8076 10.2828 15.569 10.2828L15.3323 10.2732C15.344 10.5003 15.3674 10.7253 15.408 10.9641L15.5392 10.9332C15.7724 10.8725 15.9897 11.0098 16.0483 11.2367C16.1069 11.4455 15.9822 11.6691 15.7586 11.7319L15.6135 11.7725C15.7031 12.0348 15.8022 12.2853 15.9419 12.5401L16.0753 12.4665C16.2808 12.3451 16.5353 12.4271 16.645 12.6251C16.7526 12.8541 16.6877 13.0735 16.4885 13.179L16.3413 13.2622C16.4969 13.4914 16.66 13.6993 16.8328 13.9051L16.9917 13.7462C17.1759 13.5641 17.4091 13.5896 17.5828 13.7462C17.7276 13.8889 17.767 14.153 17.5849 14.3373L17.4335 14.4887C17.6296 14.6593 17.8354 14.8149 18.0529 14.9471L18.1596 14.753C18.2692 14.5571 18.5313 14.4655 18.708 14.5869C18.921 14.6966 18.9935 14.9394 18.8742 15.1449L18.7654 15.3465C19.1885 15.5394 19.6211 15.6779 20.0655 15.7599C20.2232 15.2335 20.301 14.6762 20.301 14.105Z" fill="black"/>
</svg>
