<svg width="28" height="31" viewBox="0 0 28 31" fill="none" xmlns="http://www.w3.org/2000/svg">
<path d="M12.2569 12.0053C13.6937 12.0053 14.8663 10.8349 14.8663 9.3672C14.8663 7.92087 13.6937 6.75041 12.2569 6.75041C10.7914 6.75041 9.61883 7.92087 9.61883 9.3672C9.61883 10.8349 10.7914 12.0053 12.2569 12.0053ZM6.25859 30.0381H12.3709C13.1333 30.0381 13.4921 29.6634 13.6156 28.9935L14.649 23.3219H19.3817L18.4421 28.525C18.293 29.4013 18.8776 29.9774 19.5186 30.0381C20.1298 30.0988 20.8102 29.8049 20.9572 28.9935L22.1417 22.3945C22.3025 21.4403 21.7435 20.86 21.0556 20.7855L16.8059 20.3146L17.1692 16.315C17.1809 16.1242 17.3323 16.0017 17.5093 16.0017H20.9204C21.6125 16.0017 22.1907 15.4139 22.1907 14.7217V8.00759C22.1907 7.49009 21.8691 7.02158 21.391 6.83525C20.9204 6.6372 20.3794 6.72767 20.0089 7.09822L13.3161 13.8124C12.7175 14.411 12.3298 15.1661 12.2478 16.0938L11.2006 27.5017H6.25859C5.55476 27.5017 5 28.0544 5 28.7582C5 29.4621 5.55476 30.0381 6.25859 30.0381ZM19.6775 11.0142V13.4671H17.2032L19.6775 11.0142ZM17.123 7.32204L19.9536 9.84907L20.6644 9.05314L17.8712 6.51861L17.123 7.32204ZM10.385 2.38329L16.6316 8.01415C17.034 8.3772 17.5662 8.32821 17.9485 7.93212L18.5675 7.2972C18.9678 6.89267 18.8933 6.32314 18.5068 5.96431L12.223 0.305796C11.8269 -0.0530323 11.2573 -0.017876 10.8943 0.384545L10.3063 1.06424C9.95492 1.46033 9.97086 2.00431 10.385 2.38329Z" fill="black"/>
</svg>
