<svg width="28" height="28" viewBox="0 0 28 28" fill="none" xmlns="http://www.w3.org/2000/svg">
<path d="M15.0457 6.26663C16.492 6.26663 17.6742 5.07484 17.6742 3.62851C17.6742 2.18219 16.492 1 15.0457 1C13.5994 1 12.4097 2.18219 12.4097 3.62851C12.4097 5.07484 13.5994 6.26663 15.0457 6.26663ZM18.3619 26.9001C18.908 26.7008 19.3326 26.1494 19.1187 25.3881L17.3301 19.1448C17.2343 18.8392 17.0618 18.5901 16.7658 18.4197L13.068 16.2475L14.8301 11.0158C14.9505 10.6426 15.326 10.6021 15.6042 10.8782L18.247 13.5093C18.4898 13.7404 18.788 13.8777 19.1095 13.8777C19.4407 13.8777 19.7484 13.7638 19.9933 13.5093L23.5608 9.93225C24.0314 9.44241 24.0644 8.68749 23.5608 8.19132C23.0826 7.71109 22.3043 7.69726 21.8102 8.19132L19.1095 10.892L16.8583 8.55882C15.7922 7.45749 14.6515 7.23062 12.454 7.23062H1.25953C0.581248 7.23062 0.014765 7.78538 0.014765 8.47749C0.014765 9.15577 0.581248 9.71054 1.25953 9.71054H9.57257C9.89976 9.71054 10.1803 9.96015 10.0268 10.4036L8.63882 14.5591C8.14359 16.0523 8.84437 17.653 10.2886 18.2793L15.0876 20.3917L16.7409 26.0312C16.9859 26.8928 17.7506 27.1089 18.3619 26.9001ZM3.22945 26.473C3.55312 26.9331 4.17609 27.1738 4.85976 26.8033L10.1763 23.8579C10.451 23.7088 10.6491 23.4576 10.7566 23.1423L11.7412 20.2215L9.81796 19.3792C9.58265 19.2695 9.35906 19.1535 9.14179 19.0065L8.51203 21.9348L3.66187 24.6491C2.86758 25.1059 2.85047 25.9417 3.22945 26.473ZM19.7018 16.6874H27.0588V15.2052H19.7018C19.29 15.2052 18.9666 15.5287 18.9666 15.9405C18.9666 16.3544 19.29 16.6874 19.7018 16.6874ZM1.62141 7.76358H2.93999V5.99312H1.62141V7.76358ZM2.28656 1.41648C1.01391 1.41648 0 2.43461 0 3.71687C0 4.87773 1.0118 6.26757 2.28656 6.55093C3.55921 6.26757 4.56351 4.87773 4.56351 3.71687C4.56351 2.43461 3.5571 1.41648 2.28656 1.41648Z" fill="black"/>
</svg>
