<svg width="28" height="28" viewBox="0 0 28 28" fill="none" xmlns="http://www.w3.org/2000/svg">
<path d="M14.105 26.21C20.7369 26.21 26.2121 20.7273 26.2121 14.105C26.2121 7.47312 20.7273 2 14.0954 2C7.47523 2 2 7.47312 2 14.105C2 20.7273 7.48484 26.21 14.105 26.21ZM14.105 23.8255C8.71085 23.8255 4.39412 19.4991 4.39412 14.105C4.39412 8.71085 8.70124 4.38452 14.0954 4.38452C19.4895 4.38452 23.8276 8.71085 23.8276 14.105C23.8276 19.4991 19.4991 23.8255 14.105 23.8255Z" fill="black"/>
<path d="M6.96094 15.8614H8.45063C8.63626 15.8614 8.76001 15.7569 8.76001 15.552V12.6655C8.76001 12.4798 8.63626 12.3561 8.45063 12.3561H6.96094V15.8614ZM8.63157 18.9798H13.6409V16.8528C12.3282 16.6473 11.3255 15.5019 11.3255 14.1146C11.3255 12.7508 12.3282 11.6033 13.6409 11.3956V9.25903H8.63157C7.51922 9.25903 6.96094 9.81521 6.96094 10.9062V11.4776H8.4879C9.19313 11.4776 9.63844 11.9229 9.63844 12.6399V15.5989C9.63844 16.3041 9.19313 16.7398 8.4879 16.7398H6.96094V17.3305C6.96094 18.4236 7.51922 18.9798 8.63157 18.9798ZM13.6409 15.9627V12.2879C12.7988 12.4817 12.2039 13.2097 12.2039 14.1146C12.2039 15.043 12.7988 15.7688 13.6409 15.9627ZM14.5193 15.9627C15.3689 15.7688 15.9638 15.043 15.9638 14.1146C15.9638 13.2097 15.3689 12.4817 14.5193 12.2879V15.9627ZM14.5193 18.9798H19.5554C20.6698 18.9798 21.226 18.4236 21.226 17.3305V16.7398H19.699C18.9938 16.7398 18.5581 16.3041 18.5581 15.5989V12.6399C18.5581 11.9229 18.9938 11.4776 19.699 11.4776H21.226V10.9062C21.226 9.81521 20.6698 9.25903 19.5554 9.25903H14.5193V11.3956C15.8417 11.6033 16.8422 12.7508 16.8422 14.1146C16.8422 15.5019 15.8417 16.6473 14.5193 16.8528V18.9798ZM21.226 15.8614V12.3561H19.7363C19.5603 12.3561 19.4365 12.4798 19.4365 12.6655V15.552C19.4365 15.7569 19.5603 15.8614 19.7363 15.8614H21.226Z" fill="black"/>
</svg>
