<svg width="28" height="30" viewBox="0 0 28 30" fill="none" xmlns="http://www.w3.org/2000/svg">
<path d="M14.8205 5.26453C16.2668 5.26453 17.4373 4.08234 17.4373 2.61679C17.4373 1.17047 16.2668 0 14.8205 0C13.3549 0 12.1727 1.17047 12.1727 2.61679C12.1727 4.08234 13.3549 5.26453 14.8205 5.26453ZM19.2485 29.7426C19.9172 29.5446 20.2601 28.8035 20.0407 28.1412L18.1584 22.4667C18.0977 22.2804 18.0328 22.2016 17.921 22.0472L14.7752 18.4401L15.4273 11.3266C15.4411 11.1112 15.697 11.0473 15.8154 11.2317L17.2997 13.5173C17.5287 13.856 17.8652 14.1637 18.2039 14.3533L22.0334 16.4156C22.6446 16.7372 23.4037 16.5136 23.7466 15.9077C24.0607 15.2944 23.8446 14.5235 23.2409 14.1944L19.4102 12.1502L16.8717 8.22796C16.1655 7.14046 15.1303 6.48867 13.7041 6.48867H11.1363L10.151 15.8782C10.02 17.1009 10.2469 17.8997 11.2406 18.9169L15.8531 23.5528L17.6609 28.9291C17.9313 29.7447 18.6628 29.8992 19.2485 29.7426ZM8.71875 15.933H10.6491C11.7162 15.933 12.5468 15.1333 12.5468 14.1068V7.06218C12.5468 6.03351 11.7162 5.22421 10.6491 5.22421H9.33446C7.79133 5.22421 6.8904 6.13265 6.8904 7.69921V14.1068C6.8904 15.1823 7.6411 15.933 8.71875 15.933ZM5.36696 29.4094C5.87274 29.9269 6.63727 29.8992 7.12922 29.4094L11.5584 25.0036C11.6447 24.9077 11.7448 24.8194 11.7959 24.7055L12.9586 22.3364L10.7723 20.1501L9.57469 23.4394L5.36696 27.6684C4.88462 28.1646 4.87079 28.9312 5.36696 29.4094ZM22.5635 9.68906C22.1517 9.68906 21.8262 10.0146 21.8262 10.4264V12.0832L23.3105 12.8834V10.4264C23.3105 10.0146 22.9774 9.68906 22.5635 9.68906ZM22.5635 29.7968C22.9774 29.7968 23.3105 29.4616 23.3105 29.0498V17.651C22.8337 17.8019 22.3188 17.7944 21.8262 17.6222V29.0498C21.8262 29.4616 22.1517 29.7968 22.5635 29.7968Z" fill="black"/>
</svg>
