<svg width="28" height="30" viewBox="0 0 28 30" fill="none" xmlns="http://www.w3.org/2000/svg">
<path d="M19.016 5.27722C20.472 5.27722 21.652 4.09504 21.652 2.6391C21.652 1.18316 20.472 0.0126953 19.016 0.0126953C17.5601 0.0126953 16.3875 1.18316 16.3875 2.6391C16.3875 4.09504 17.5601 5.27722 19.016 5.27722ZM10.7726 14.764L15.1753 19.1901V26.0248H17.7021V18.8154C17.7021 18.4533 17.6138 18.1104 17.3709 17.793L14.4211 14.0421L16.9289 10.1962C17.0782 9.97339 17.3918 9.97339 17.5081 10.2251L18.3443 11.9114C18.5637 12.333 18.997 12.611 19.4752 12.611H24.356C25.046 12.611 25.6125 12.0466 25.6125 11.3428C25.6125 10.6507 25.046 10.0842 24.356 10.0842H20.2535L18.9879 7.51995C18.4734 6.48472 17.4063 5.8212 16.2305 5.8212H9.74111C9.32369 5.8212 8.91166 6.03519 8.68056 6.3898L6.2508 10.0488C5.87064 10.6153 6.02932 11.4033 6.60963 11.7876C7.17822 12.1816 7.96619 12.0187 8.36228 11.4288L10.4173 8.348H12.3302C12.4742 8.348 12.5616 8.47596 12.4742 8.61776L10.4574 11.6456C9.80556 12.6148 9.93869 13.9301 10.7726 14.764ZM3.44275 16.5567L8.21603 20.7377C9.00189 21.4331 9.87611 21.0647 10.2563 20.4672L12.0326 17.7255L9.96025 15.6553C9.93471 15.618 9.90705 15.5904 9.86978 15.551L8.74103 17.8266L5.09533 14.6454C4.57783 14.2024 3.77604 14.2376 3.31713 14.7689C2.85072 15.2981 2.90393 16.0978 3.44275 16.5567ZM9.50252 26.9756H17.7518C19.08 26.9756 20.1865 26.6955 21.0417 25.9575C21.4364 25.6277 21.4099 25.1991 21.2016 24.9192C20.9803 24.6169 20.5184 24.4741 20.0937 24.7987C19.4768 25.2867 18.8417 25.4913 17.7518 25.4913H9.50252C8.40306 25.4913 7.77962 25.2867 7.15103 24.7987C6.75728 24.4934 6.33377 24.5976 6.10291 24.8594C5.83479 25.1393 5.79119 25.5989 6.20299 25.9575C7.05822 26.6955 8.1647 26.9756 9.50252 26.9756ZM9.50252 29.7764C10.087 29.7764 10.5769 29.2962 10.5769 28.7116C10.5769 28.1292 10.087 27.6372 9.50252 27.6372C8.9201 27.6372 8.43025 28.1292 8.43025 28.7116C8.43025 29.2962 8.9201 29.7764 9.50252 29.7764ZM17.7518 29.7764C18.3342 29.7764 18.8145 29.2962 18.8145 28.7116C18.8145 28.1292 18.3342 27.6372 17.7518 27.6372C17.1673 27.6372 16.6774 28.1292 16.6774 28.7116C16.6774 29.2962 17.1673 29.7764 17.7518 29.7764Z" fill="black"/>
</svg>
