<svg width="28" height="28" viewBox="0 0 28 28" fill="none" xmlns="http://www.w3.org/2000/svg">
<path d="M3.59655 15.0413C6.73975 10.7401 11.5463 8.03585 17.1209 8.03585C19.3923 8.03585 21.5103 8.47366 23.5313 9.3535L23.2735 7.71522C21.3739 7.00788 19.257 6.62116 17.1209 6.62116C11.1547 6.62116 5.85429 9.59351 2.52054 14.1214L3.59655 15.0413ZM23.2168 19.6585L24.5729 19.2636C22.8519 13.0433 12.7878 11.7357 12.7878 6.86397C12.7878 5.40944 13.5221 4.35967 14.9019 3.63405L14.0659 2.47718C12.433 3.39874 11.3731 4.9721 11.3731 6.86397C11.3731 12.882 21.7627 14.4015 23.2168 19.6585ZM6.30288 22.3735L7.93788 22.5036C6.12616 19.1982 7.83218 14.4207 7.58772 10.1068C7.52046 8.91218 6.78358 6.84265 5.4589 6.57171L5.11601 7.95124C5.68273 8.02788 6.13882 9.4039 6.17937 10.168C6.39288 13.846 4.84132 18.6094 6.30288 22.3735ZM15.6934 25.152L16.8312 24.2994C9.9071 15.7196 8.99936 6.33899 10.1961 4.1178L8.60937 4.35921C7.73257 7.98687 9.18569 17.0312 15.6934 25.152ZM14.105 26.21C20.7369 26.21 26.2121 20.7273 26.2121 14.105C26.2121 7.47312 20.7273 2 14.0954 2C7.47523 2 2 7.47312 2 14.105C2 20.7273 7.48484 26.21 14.105 26.21ZM14.105 24.3336C8.51233 24.3336 3.8785 19.6998 3.8785 14.105C3.8785 8.51023 8.50273 3.87639 14.0954 3.87639C19.6902 3.87639 24.3336 8.51023 24.3336 14.105C24.3336 19.6998 19.6998 24.3336 14.105 24.3336Z" fill="black"/>
</svg>
