<svg width="35" height="28" viewBox="0 0 35 28" fill="none" xmlns="http://www.w3.org/2000/svg">
<path d="M0 19.9821C0 22.8276 1.8614 24.6173 4.57664 24.6173C6.10264 24.6173 7.4946 23.9702 8.53803 22.7473L10.6212 20.3158C10.9216 19.9715 11.231 19.8063 11.5931 19.8063H22.7072C23.0693 19.8063 23.3787 19.9715 23.6791 20.3158L25.7644 22.7473C26.8078 23.9681 28.1976 24.6173 29.7237 24.6173C32.4389 24.6173 34.3003 22.8276 34.3003 19.9821C34.3003 18.7554 34.035 17.3634 33.5695 15.8222C32.8483 13.4051 31.5923 10.1271 30.3991 7.60426C29.3829 5.48012 28.8293 4.44114 26.2605 3.85966C24.0089 3.34521 20.9166 3.00958 17.156 3.00958C13.3934 3.00958 10.2914 3.34521 8.03976 3.85966C5.47101 4.44114 4.91742 5.48012 3.90328 7.60426C2.71008 10.1271 1.45195 13.4051 0.73289 15.8222C0.267422 17.3634 0 18.7554 0 19.9821ZM2.1642 19.9723C2.1642 19.2551 2.32194 18.3961 2.68639 17.1546C3.47788 14.4382 4.83303 10.946 6.01452 8.37301C6.5803 7.13808 6.89249 6.43753 8.29358 6.11128C10.4421 5.59894 13.4634 5.27175 17.156 5.27175C20.839 5.27175 23.8582 5.59894 26.0067 6.11128C27.4078 6.43753 27.7104 7.13808 28.2858 8.37301C29.4844 10.946 30.7936 14.4478 31.6139 17.1546C31.988 18.3961 32.1382 19.2551 32.1382 19.9723C32.1382 21.484 31.0753 22.4191 29.6712 22.4191C28.8269 22.4191 27.9914 21.982 27.3223 21.1964L24.9862 18.5236C24.4153 17.8608 23.9487 17.5441 22.92 17.5441H11.3803C10.3537 17.5441 9.88499 17.8608 9.31405 18.5236L6.97804 21.1964C6.31312 21.9841 5.47335 22.4191 4.62913 22.4191C3.22499 22.4191 2.1642 21.484 2.1642 19.9723Z" fill="black"/>
<path d="M7.58984 11.5223C7.58984 12.176 7.9932 12.5847 8.65109 12.5847H10.6318V14.4984C10.6318 15.153 11.0181 15.5702 11.661 15.5702C12.2922 15.5702 12.688 15.153 12.688 14.4984V12.5847H14.5461C15.2551 12.5847 15.6819 12.176 15.6819 11.5223C15.6819 10.8879 15.2551 10.4908 14.5461 10.4908H12.688V8.57507C12.688 7.92257 12.2922 7.51288 11.661 7.51288C11.0181 7.51288 10.6318 7.92257 10.6318 8.57507V10.4908H8.65109C7.9932 10.4908 7.58984 10.8879 7.58984 11.5223ZM24.467 11.408C25.4511 11.408 26.1988 10.6624 26.1988 9.68788C26.1988 8.70163 25.4511 7.94437 24.467 7.94437C23.5021 7.94437 22.7331 8.70163 22.7331 9.68788C22.7331 10.6624 23.5021 11.408 24.467 11.408ZM20.9879 14.9327C21.9646 14.9327 22.7218 14.1755 22.7218 13.203C22.7218 12.2168 21.9646 11.4595 20.9879 11.4595C20.0251 11.4595 19.2561 12.2168 19.2561 13.203C19.2561 14.1755 20.0251 14.9327 20.9879 14.9327Z" fill="black"/>
</svg>
