<svg width="28" height="28" viewBox="0 0 28 28" fill="none" xmlns="http://www.w3.org/2000/svg">
<path d="M14.105 26.21C20.7369 26.21 26.2121 20.7273 26.2121 14.105C26.2121 7.47312 20.7273 2 14.0954 2C7.47523 2 2 7.47312 2 14.105C2 20.7273 7.48484 26.21 14.105 26.21ZM14.105 23.8255C8.71085 23.8255 4.39412 19.4991 4.39412 14.105C4.39412 8.71085 8.70124 4.38452 14.0954 4.38452C19.4895 4.38452 23.8276 8.71085 23.8276 14.105C23.8276 19.4991 19.4991 23.8255 14.105 23.8255Z" fill="black"/>
<path d="M8.0016 13.0475C8.36886 13.1518 8.75019 13.2092 9.1655 13.2092C11.2981 13.2092 12.9202 11.5967 12.9202 9.45243C12.9202 8.96681 12.8436 8.52899 12.668 8.10829C10.2905 8.6729 8.43941 10.6253 8.0016 13.0475ZM14.0858 20.318C14.2721 20.318 14.468 20.3159 14.6523 20.2904C14.4566 19.8237 14.3757 19.3062 14.3757 18.7674C14.3757 16.1907 16.4516 14.0956 19.0337 14.0956C19.4649 14.0956 19.877 14.1627 20.2817 14.2934C20.2817 14.2402 20.2817 14.1849 20.2817 14.1317C20.2817 10.737 17.4709 7.93579 14.0858 7.93579C13.9058 7.93579 13.7471 7.94962 13.565 7.96134C13.7426 8.41837 13.8235 8.91782 13.8235 9.45243C13.8235 12.0249 11.738 14.1083 9.1655 14.1083C8.73215 14.1083 8.30301 14.053 7.90363 13.9285C7.89941 13.9955 7.89941 14.0647 7.89941 14.1317C7.89941 17.5168 10.7007 20.318 14.0858 20.318ZM15.5492 20.1413C17.9129 19.5533 19.7715 17.5988 20.1837 15.1841C19.8153 15.068 19.4532 14.9989 19.0337 14.9989C16.8873 14.9989 15.2769 16.621 15.2769 18.7674C15.2769 19.2669 15.3598 19.7206 15.5492 20.1413Z" fill="black"/>
</svg>
