<svg width="29" height="28" viewBox="0 0 29 28" fill="none" xmlns="http://www.w3.org/2000/svg">
<path d="M18.8723 11.1839C20.3283 11.1839 21.5083 10.0135 21.5083 8.55752C21.5083 7.10158 20.3283 5.91939 18.8723 5.91939C17.4164 5.91939 16.2438 7.10158 16.2438 8.55752C16.2438 10.0135 17.4164 11.1839 18.8723 11.1839ZM14.0552 16.0565C16.0725 16.0565 16.7428 14.7075 18.7303 14.2725L10.4299 5.63556C9.88148 5.0733 9.07429 5.00088 8.41195 5.46517L3.76758 8.76845C2.93695 9.35416 3.02109 10.2305 3.49922 10.748C3.89531 11.191 4.61836 11.3752 5.30624 10.8853L9.03914 8.2465L11.1169 10.3828C11.3555 10.6289 11.4089 10.9892 11.0562 11.2268L6.38063 14.2938C6.93095 14.2006 7.56493 14.1509 8.36109 14.1701C11.1225 14.2662 11.7223 16.0565 14.0552 16.0565ZM0.727966 19.2937H1.95375C5.15648 19.2937 5.85866 17.3592 8.00554 17.3592C10.0765 17.3592 10.8504 19.2937 14.0552 19.2937C17.2718 19.2937 18.0361 17.3592 20.1166 17.3592C22.2614 17.3592 22.9561 19.2937 26.1684 19.2937H27.3942C27.7976 19.2937 28.1222 18.9808 28.1222 18.5775C28.1222 18.1741 27.7976 17.8495 27.3942 17.8495H26.1684C23.9416 17.8495 23.1905 15.915 20.1166 15.915C17.107 15.915 16.282 17.8495 14.0552 17.8495C11.8305 17.8495 11.0152 15.915 8.00554 15.915C4.93172 15.915 4.17843 17.8495 1.95375 17.8495H0.727966C0.314999 17.8495 0 18.1741 0 18.5775C0 18.9808 0.314999 19.2937 0.727966 19.2937ZM0.998905 22.6928C1.4025 22.6928 1.72406 22.3713 1.72406 21.9773C1.72406 21.5716 1.4025 21.25 0.998905 21.25C0.602812 21.25 0.28125 21.5716 0.28125 21.9773C0.28125 22.3713 0.602812 22.6928 0.998905 22.6928ZM3.23367 22.2923C3.62765 22.2923 3.94921 21.9803 3.94921 21.5746C3.94921 21.1711 3.62765 20.8591 3.23367 20.8591C2.82797 20.8591 2.5064 21.1711 2.5064 21.5746C2.5064 21.9803 2.82797 22.2923 3.23367 22.2923ZM5.30554 21.3187C5.71125 21.3187 6.03281 20.9971 6.03281 20.5914C6.03281 20.1975 5.71125 19.8759 5.30554 19.8759C4.91156 19.8759 4.59 20.1975 4.59 20.5914C4.59 20.9971 4.91156 21.3187 5.30554 21.3187ZM7.54148 20.7597C7.94507 20.7597 8.26663 20.4382 8.26663 20.0442C8.26663 19.6385 7.94507 19.3169 7.54148 19.3169C7.14539 19.3169 6.82383 19.6385 6.82383 20.0442C6.82383 20.4382 7.14539 20.7597 7.54148 20.7597ZM9.7732 21.3187C10.1789 21.3187 10.4909 20.9971 10.4909 20.5914C10.4909 20.1975 10.1789 19.8759 9.7732 19.8759C9.3675 19.8759 9.05765 20.1975 9.05765 20.5914C9.05765 20.9971 9.3675 21.3187 9.7732 21.3187ZM11.8664 22.2923C12.27 22.2923 12.5916 21.9803 12.5916 21.5746C12.5916 21.1711 12.27 20.8591 11.8664 20.8591C11.4703 20.8591 11.1487 21.1711 11.1487 21.5746C11.1487 21.9803 11.4703 22.2923 11.8664 22.2923ZM14.0766 22.6928C14.4705 22.6928 14.7921 22.3713 14.7921 21.9773C14.7921 21.5716 14.4705 21.25 14.0766 21.25C13.6709 21.25 13.3493 21.5716 13.3493 21.9773C13.3493 22.3713 13.6709 22.6928 14.0766 22.6928ZM16.275 22.2923C16.6807 22.2923 16.9926 21.9803 16.9926 21.5746C16.9926 21.1711 16.6807 20.8591 16.275 20.8591C15.8714 20.8591 15.5594 21.1711 15.5594 21.5746C15.5594 21.9803 15.8714 22.2923 16.275 22.2923ZM18.3682 21.3187C18.7739 21.3187 19.0933 20.9971 19.0933 20.5914C19.0933 20.1975 18.7739 19.8759 18.3682 19.8759C17.9721 19.8759 17.6505 20.1975 17.6505 20.5914C17.6505 20.9971 17.9721 21.3187 18.3682 21.3187ZM20.5999 20.7597C21.0056 20.7597 21.3176 20.4382 21.3176 20.0442C21.3176 19.6385 21.0056 19.3169 20.5999 19.3169C20.1963 19.3169 19.8844 19.6385 19.8844 20.0442C19.8844 20.4382 20.1963 20.7597 20.5999 20.7597ZM22.8358 21.3187C23.2394 21.3187 23.5514 20.9971 23.5514 20.5914C23.5514 20.1975 23.2394 19.8759 22.8358 19.8759C22.4301 19.8759 22.1182 20.1975 22.1182 20.5914C22.1182 20.9971 22.4301 21.3187 22.8358 21.3187ZM24.9173 22.2923C25.323 22.2923 25.635 21.9803 25.635 21.5746C25.635 21.1711 25.323 20.8591 24.9173 20.8591C24.5137 20.8591 24.2018 21.1711 24.2018 21.5746C24.2018 21.9803 24.5137 22.2923 24.9173 22.2923ZM27.1329 22.6928C27.5386 22.6928 27.8601 22.3713 27.8601 21.9773C27.8601 21.5716 27.5386 21.25 27.1329 21.25C26.7389 21.25 26.4173 21.5716 26.4173 21.9773C26.4173 22.3713 26.7389 22.6928 27.1329 22.6928Z" fill="black"/>
</svg>
