<svg width="30" height="28" viewBox="0 0 30 28" fill="none" xmlns="http://www.w3.org/2000/svg">
<path d="M14.5687 6.26453C16.0055 6.26453 17.1951 5.07273 17.1951 3.6264C17.1951 2.18969 16.0055 1 14.5687 1C13.1224 1 11.9306 2.18969 11.9306 3.6264C11.9306 5.07273 13.1224 6.26453 14.5687 6.26453ZM10.6383 21.7288C11.1323 22.2208 11.9086 22.2208 12.4026 21.7288L17.2814 16.848C17.9852 16.1558 17.5305 14.86 16.4817 14.7599L10.9969 14.1698C10.5947 14.1271 10.5403 13.8775 10.7163 13.6183L12.6593 10.6804C12.8459 10.4139 13.1712 10.3499 13.4301 10.5311L16.8858 12.8181C17.0721 12.9374 17.3095 13.0354 17.5662 13.0354H23.0041C23.6824 13.0354 24.2489 12.4689 24.2489 11.7906C24.2489 11.0889 23.6824 10.5224 23.0041 10.5224H17.925L7.38445 3.49398C7.18851 3.36086 6.95109 3.2725 6.69445 3.2725H1.24476C0.566483 3.2725 0 3.8507 0 4.54281C0 5.21898 0.566483 5.78757 1.24476 5.78757H6.3239L8.25421 7.06913C8.5207 7.24819 8.59429 7.57773 8.40562 7.84421L5.59875 12.0604C4.27383 14.0425 5.43047 16.6944 7.98234 16.8393L13.4726 17.1301L10.6383 19.9623C10.1346 20.4585 10.1346 21.239 10.6383 21.7288ZM6.11015 17.5377V21.5003L2.77265 25.3576C2.32758 25.8848 2.37445 26.7142 2.91961 27.1689C3.53507 27.6587 4.2996 27.4883 4.7032 27.0198L8.3196 22.7919C8.52937 22.547 8.59007 22.2723 8.62734 22.0199L9.28687 18.0904L7.92914 18.0255C7.24968 17.9903 6.63515 17.8178 6.11015 17.5377ZM22.9535 8.46179C22.9535 9.3264 24.3476 10.0155 26.024 10.0155C27.7026 10.0155 29.0829 9.3264 29.0829 8.46179C29.0829 7.59718 27.7026 6.89851 26.024 6.89851C24.3476 6.89851 22.9535 7.59718 22.9535 8.46179Z" fill="black"/>
</svg>
