<svg width="28" height="28" viewBox="0 0 28 28" fill="none" xmlns="http://www.w3.org/2000/svg">
<path d="M14.105 26.21C20.7369 26.21 26.2121 20.7273 26.2121 14.105C26.2121 7.47312 20.7273 2 14.0954 2C7.47523 2 2 7.47312 2 14.105C2 20.7273 7.48484 26.21 14.105 26.21Z" fill="black"/>
<path d="M14.115 20.3577C10.7132 20.3577 7.87402 17.5088 7.87402 14.105C7.87402 10.699 10.7015 7.85229 14.1054 7.85229C17.5273 7.85229 20.3677 10.6948 20.3677 14.105C20.3677 17.5109 17.5209 20.3577 14.115 20.3577ZM14.115 8.89431C13.4852 8.89431 12.848 9.00939 12.2768 9.23111L13.7011 10.3547V12.0334L12.1732 13.1923L10.5904 12.5565L10.0638 10.8293C9.33487 11.7223 8.883 12.853 8.883 14.1062L10.2754 13.3353L11.9465 14.0105L12.517 15.7604L11.6107 16.9041L9.73542 16.9276C10.4078 17.972 11.4393 18.7562 12.6499 19.111L12.2576 17.4319L13.0978 16.3606H15.1205L15.9628 17.4404L15.5801 19.111C16.781 18.7562 17.8104 17.9804 18.4849 16.9297L16.6172 16.9105L15.7034 15.755L16.2759 14.0105L17.947 13.3353L19.3395 14.1062C19.3395 12.853 18.8876 11.7223 18.1662 10.8293L17.632 12.5565L16.0472 13.1923L14.531 12.0334V10.3463L15.9415 9.23111C15.3703 9.00517 14.7565 8.89431 14.115 8.89431Z" fill="white"/>
</svg>
