<svg width="28" height="28" viewBox="0 0 28 28" fill="none" xmlns="http://www.w3.org/2000/svg">
<path d="M13.5252 8.77015C16.8182 8.77015 17.3106 6.37437 19.1275 6.37437C20.9753 6.37437 21.2716 8.77015 25.0164 8.77015H25.0855C25.6164 8.77015 26.0483 8.3382 26.0483 7.80735C26.0483 7.2786 25.6164 6.85415 25.0855 6.85415H25.0164C23.8351 6.85415 23.1468 6.3711 22.232 5.72048C21.464 5.16548 20.4789 4.45837 19.1275 4.45837C17.7376 4.45837 16.743 5.19431 15.9749 5.77063C15.16 6.38212 14.5323 6.85415 13.5252 6.85415C12.5064 6.85415 11.8905 6.38212 11.0734 5.77063C10.3075 5.19431 9.31069 4.45837 7.92085 4.45837C6.57156 4.45837 5.58437 5.16548 4.81843 5.72048C3.90156 6.3711 3.20359 6.85415 2.03195 6.85415H1.96281C1.42234 6.85415 1 7.2786 1 7.80735C1 8.3382 1.42234 8.77015 1.96281 8.77015H2.03195C5.76718 8.77015 6.07515 6.37437 7.92085 6.37437C9.73984 6.37437 10.2226 8.77015 13.5252 8.77015Z" fill="black"/>
<path d="M7.92085 13.592C9.06812 13.592 9.65008 14.522 10.742 15.155V14.199C10.742 13.7288 10.7842 13.2575 10.8517 12.8073C10.6459 12.7081 10.4573 12.5684 10.2569 12.4405C9.6175 12.0385 8.87265 11.678 7.92085 11.678C6.57156 11.678 5.58437 12.3852 4.81843 12.9402C3.90156 13.6004 3.20359 14.0738 2.03195 14.0738H1.96281C1.42234 14.0738 1 14.5058 1 15.0345C1 15.5654 1.42234 15.9877 1.96281 15.9877H2.03195C5.76718 15.9877 6.07515 13.592 7.92085 13.592ZM19.1275 13.592C20.9753 13.592 21.2716 15.9877 25.0164 15.9877H25.0855C25.6164 15.9877 26.0483 15.5654 26.0483 15.0345C26.0483 14.5058 25.6164 14.0738 25.0855 14.0738H25.0164C23.8351 14.0738 23.1468 13.6004 22.232 12.9402C21.464 12.3852 20.4789 11.678 19.1275 11.678C18.1694 11.678 17.4224 12.0427 16.7767 12.4489C16.573 12.5748 16.3982 12.7102 16.1966 12.8073C16.2662 13.2575 16.3084 13.7192 16.3084 14.199V15.155C17.4004 14.522 17.9823 13.592 19.1275 13.592Z" fill="black"/>
<path d="M10.296 18.8572C9.48906 18.8572 9.15062 19.6386 9.64117 20.2569L12.7541 24.2884C13.2151 24.8612 13.8057 24.8558 14.2614 24.2884L17.3722 20.2473C17.8553 19.6365 17.5105 18.8572 16.7153 18.8572H10.296ZM12.4354 20.0204H14.6024V12.08C14.6024 11.5055 14.1097 11.0215 13.5151 11.0215C12.9205 11.0215 12.4354 11.5055 12.4354 12.08V20.0204Z" fill="black"/>
</svg>
