<svg width="32" height="28" viewBox="0 0 32 28" fill="none" xmlns="http://www.w3.org/2000/svg">
<path d="M3.84421 24.8972H27.8843C30.4158 24.8972 31.721 23.5919 31.721 21.0914V6.82921C31.721 4.32656 30.4158 3.02344 27.8843 3.02344H3.84421C1.31484 3.02344 0 4.31695 0 6.82921V21.0914C0 23.6016 1.31484 24.8972 3.84421 24.8972ZM3.97733 22.6013C2.88772 22.6013 2.29592 22.0371 2.29592 20.8985V7.01999C2.29592 5.88139 2.88772 5.31936 3.97733 5.31936H27.7416C28.8237 5.31936 29.4251 5.88139 29.4251 7.01999V20.8985C29.4251 22.0371 28.8237 22.6013 27.7416 22.6013H3.97733ZM0 19.1166H5.02171C6.58663 19.1166 7.50585 18.1952 7.50585 16.6495V11.2573C7.50585 9.71155 6.58663 8.79023 5.02171 8.79023H0V10.5923H4.98468C5.43703 10.5923 5.70796 10.8633 5.70796 11.3294V16.5773C5.70796 17.0435 5.43703 17.3166 4.98468 17.3166H0V19.1166ZM14.9365 22.9945H16.7365V4.92397H14.9365V22.9945ZM15.8189 19.4456C19.1067 19.4456 21.357 17.2167 21.3218 13.9544C21.2963 10.7369 19.0556 8.49843 15.8189 8.47288C12.5876 8.43773 10.3491 10.6687 10.3491 13.9544C10.3491 17.2146 12.5876 19.4456 15.8189 19.4456ZM15.8306 17.7319C13.6116 17.7319 12.0553 16.1756 12.0553 13.9427C12.0553 11.7215 13.6116 10.1887 15.8306 10.1887C18.0731 10.1887 19.6294 11.7215 19.6177 13.9427C19.6081 16.1735 18.0518 17.7319 15.8306 17.7319ZM31.721 19.1166V17.3166H26.7363C26.2936 17.3166 26.0227 17.0435 26.0227 16.5773V11.3294C26.0227 10.8633 26.2936 10.5923 26.7363 10.5923H31.721V8.79023H26.6993C25.1323 8.79023 24.2227 9.71155 24.2227 11.2573V16.6495C24.2227 18.1952 25.1323 19.1166 26.6993 19.1166H31.721Z" fill="black"/>
</svg>
