<svg width="28" height="28" viewBox="0 0 28 28" fill="none" xmlns="http://www.w3.org/2000/svg">
<path d="M14.105 26.21C20.7369 26.21 26.2121 20.7273 26.2121 14.105C26.2121 7.47312 20.7273 2 14.0954 2C7.47523 2 2 7.47312 2 14.105C2 20.7273 7.48484 26.21 14.105 26.21Z" fill="black"/>
<path d="M14.105 15.054C10.4891 15.054 7.63184 13.7394 7.63184 12.0563C7.63184 10.4063 10.4891 9.12476 14.105 9.12476C17.7188 9.12476 20.5803 10.4063 20.5803 12.0563C20.5803 13.7394 17.7188 15.054 14.105 15.054ZM14.105 19.0693C10.4561 19.0693 7.63184 17.4266 7.63184 15.3877V13.981C8.89536 15.222 11.3968 15.938 14.105 15.938C16.8228 15.938 19.3222 15.222 20.5803 13.981V15.3877C20.5803 17.4266 17.7444 19.0693 14.105 19.0693Z" fill="white"/>
</svg>
