<svg width="29" height="28" viewBox="0 0 29 28" fill="none" xmlns="http://www.w3.org/2000/svg">
<path d="M10.0781 3.02344C3.06 3.02344 0 6.18258 0 12.8864V21.0914C0 23.6016 1.31484 24.8972 3.84421 24.8972H24.5993C27.1287 24.8972 28.4435 23.5919 28.4435 21.0914V12.8864C28.4435 6.18258 25.3835 3.02344 18.375 3.02344H10.0781ZM10.1182 5.33858H18.3253C23.7802 5.33858 26.1476 7.70061 26.1476 12.8105V20.8985C26.1476 22.0202 25.5399 22.6013 24.4662 22.6013H3.97733C2.89616 22.6013 2.29592 22.0202 2.29592 20.8985V12.8105C2.29592 7.70061 4.66335 5.33858 10.1182 5.33858Z" fill="black"/>
<path d="M7.02568 19.132H13.5722C14.1242 19.132 14.505 18.7894 14.505 18.251C14.505 17.7031 14.1284 17.3817 13.5722 17.3817H8.82309V17.2816L13.7801 10.5286C14.0693 10.1594 14.131 9.97757 14.131 9.62882C14.131 9.07453 13.7288 8.67656 13.1468 8.67656H6.90873C6.35256 8.67656 5.97803 9.01711 5.97803 9.55968C5.97803 10.1076 6.35889 10.4311 6.90873 10.4311H11.3954V10.529L6.43506 17.2746C6.13506 17.6695 6.05115 17.8917 6.05115 18.2128C6.05115 18.7554 6.45545 19.132 7.02568 19.132ZM17.2969 19.132H22.4567C23.0053 19.132 23.3862 18.7969 23.3862 18.232C23.3862 17.6672 23.0053 17.3395 22.4567 17.3395H18.4233V9.78585C18.4233 9.00726 18.0256 8.53711 17.2969 8.53711C16.5757 8.53711 16.1897 9.02437 16.1897 9.78585V17.8833C16.1897 18.6373 16.5853 19.132 17.2969 19.132Z" fill="black"/>
</svg>
