<svg width="28" height="30" viewBox="0 0 28 30" fill="none" xmlns="http://www.w3.org/2000/svg">
<path d="M14.3921 22.214C21.9387 22.214 26.7863 18.8637 26.7863 14.1562C26.7863 9.4563 21.9291 6.10803 14.3804 6.10803C6.84757 6.10803 2 9.4563 2 14.1562C2 18.8637 6.84757 22.214 14.3921 22.214ZM14.3921 19.8841C8.461 19.8841 4.49233 17.5652 4.49233 14.1562C4.49233 10.7472 8.461 8.44004 14.3804 8.44004C20.3115 8.44004 24.294 10.7472 24.294 14.1562C24.294 17.5652 20.3253 19.8841 14.3921 19.8841ZM14.3921 27.4401C17.4106 27.4401 19.2331 26.024 19.2331 23.6306V23.223C17.7521 23.5497 16.1328 23.7211 14.3921 23.7211C12.6535 23.7211 11.0342 23.5497 9.56281 23.223V23.6306C9.56281 26.024 11.3853 27.4401 14.3921 27.4401Z" fill="black"/>
<path d="M12.836 17.8052H16.38C16.9046 17.8052 17.2526 17.4635 17.2526 16.9708C17.2526 16.4569 16.9046 16.1248 16.38 16.1248H13.8319V11.1581C13.8319 10.4836 13.4499 10.0751 12.836 10.0751C12.2318 10.0751 11.8423 10.489 11.8423 11.1581V16.7222C11.8423 17.3838 12.2222 17.8052 12.836 17.8052Z" fill="black"/>
<path d="M11.3295 1.50351L13.7459 4.73273C14.0771 5.18109 14.6958 5.17898 15.027 4.73273L17.4647 1.50351C17.963 0.844452 17.6958 0 16.8099 0H11.9609C11.1218 0 10.8141 0.827342 11.3295 1.50351Z" fill="black"/>
</svg>
