<svg width="31" height="34" viewBox="0 0 31 34" fill="none" xmlns="http://www.w3.org/2000/svg">
<path d="M15.1326 33.2084C23.4888 33.2084 30.2728 26.4319 30.2728 18.0758C30.2728 11.4692 26.0254 5.83531 20.1047 3.78523C20.2533 4.5439 20.0606 5.3089 19.5914 5.86226C24.5791 7.68241 28.1498 12.4609 28.1498 18.0758C28.1498 25.2561 22.313 31.0834 15.1326 31.0834C7.95022 31.0834 2.12296 25.2561 2.12296 18.0758C2.12296 12.4512 5.70327 7.6728 10.691 5.86226C10.2314 5.29929 10.0334 4.53218 10.182 3.77563C4.25906 5.81398 0 11.4554 0 18.0758C0 26.4319 6.77648 33.2084 15.1326 33.2084Z" fill="black"/>
<path d="M15.1328 28.464C20.8767 28.464 25.5285 23.81 25.5285 18.0758C25.5285 12.3416 20.8767 7.67797 15.1328 7.67797C9.39861 7.67797 4.74463 12.3416 4.74463 18.0758C4.74463 23.81 9.39861 28.464 15.1328 28.464ZM12.0796 3.56469C11.5739 4.24086 11.8699 5.0661 12.7207 5.0661H17.56C18.446 5.0661 18.7132 4.22375 18.2149 3.56469L15.7868 0.335479C15.446 -0.110771 14.8251 -0.11288 14.4939 0.335479L12.0796 3.56469ZM12.1291 23.3776C11.4461 23.3776 11.0728 22.9168 11.0728 22.1839V14.0251C11.0728 13.2383 11.4672 12.7531 12.2039 12.7531H15.4675C17.887 12.7531 19.3825 14.0584 19.3825 16.163C19.3825 17.5948 18.5301 18.7796 17.2047 19.2144L18.8207 21.7114C18.9867 21.9669 19.0537 22.1722 19.0537 22.4574C19.0537 23.0042 18.6527 23.3776 18.0698 23.3776C17.5964 23.3776 17.324 23.1882 16.9912 22.6513L15.1087 19.5641H13.2142V22.1839C13.2142 22.9339 12.8271 23.3776 12.1291 23.3776ZM13.2142 17.9928H15.1664C16.4067 17.9928 17.2033 17.3424 17.2033 16.2163C17.2033 15.0516 16.4034 14.3841 15.1952 14.3841H13.2142V17.9928Z" fill="black"/>
</svg>
