<svg width="28" height="28" viewBox="0 0 28 28" fill="none" xmlns="http://www.w3.org/2000/svg">
<path d="M14.3152 20.1132C22.006 20.1132 26.6283 16.6454 26.6283 12.35C26.6283 8.0621 22.006 4.59851 14.3014 4.59851C6.62234 4.59851 2 8.0621 2 12.35C2 16.6454 6.62234 20.1132 14.3152 20.1132ZM14.3152 25.6339C17.3316 25.6339 19.1562 24.2178 19.1562 21.8244V21.3186C17.6539 21.6357 16.0346 21.8166 14.3152 21.8166C12.5937 21.8166 10.9766 21.6357 9.48383 21.3186V21.8244C9.48383 24.2178 11.3063 25.6339 14.3152 25.6339Z" fill="black"/>
<path d="M12.7351 16.2418C12.0779 16.2418 11.6631 15.7758 11.6631 15.057V9.20323C11.6631 8.48229 12.0875 8.02808 12.7351 8.02808C13.404 8.02808 13.8167 8.4769 13.8167 9.20323V14.4247H16.489C17.0506 14.4247 17.4294 14.7812 17.4294 15.3322C17.4294 15.8757 17.0506 16.2418 16.489 16.2418H12.7351Z" fill="white"/>
</svg>
