<svg width="28" height="28" viewBox="0 0 28 28" fill="none" xmlns="http://www.w3.org/2000/svg">
<path d="M14.105 26.21C20.7369 26.21 26.2121 20.7273 26.2121 14.105C26.2121 7.47312 20.7273 2 14.0954 2C7.47523 2 2 7.47312 2 14.105C2 20.7273 7.48484 26.21 14.105 26.21Z" fill="black"/>
<path d="M14.1049 19.688C13.3425 19.688 12.9162 19.1584 12.9162 18.3376V15.6212L9.61564 10.0484C9.47947 9.81335 9.42627 9.59632 9.42627 9.38047C9.42627 8.79992 9.89314 8.34149 10.5173 8.34149C11.0563 8.34149 11.3371 8.53602 11.6392 9.12382L14.0772 13.4459H14.1539L16.6111 9.12382C16.9036 8.54563 17.1747 8.34149 17.7042 8.34149C18.3379 8.34149 18.7856 8.79031 18.7856 9.39968C18.7856 9.60593 18.7303 9.83257 18.5962 10.0484L15.315 15.6019V18.3376C15.315 19.1851 14.8769 19.688 14.1049 19.688Z" fill="white"/>
</svg>
