<svg width="29" height="28" viewBox="0 0 29 28" fill="none" xmlns="http://www.w3.org/2000/svg">
<path d="M10.0781 24.8972H18.375C25.3835 24.8972 28.4435 21.7359 28.4435 15.0246V6.82921C28.4435 4.32656 27.1287 3.02344 24.5993 3.02344H3.84421C1.31484 3.02344 0 4.31695 0 6.82921V15.0246C0 21.7359 3.06 24.8972 10.0781 24.8972Z" fill="black"/>
<path d="M9.00652 19.3192C8.25676 19.3192 7.85059 18.8021 7.85059 18.0121V9.61972C7.85059 8.82004 8.25676 8.31262 9.00652 8.31262C9.75745 8.31262 10.1754 8.80293 10.1754 9.61972V17.4343H14.3557C14.9341 17.4343 15.3352 17.7821 15.3352 18.3767C15.3352 18.966 14.9341 19.3192 14.3557 19.3192H9.00652ZM19.4548 19.6025C18.7559 19.6025 18.3284 19.1607 18.3284 18.3545V10.6911H18.2325L16.7941 11.6421C16.4993 11.8465 16.3598 11.87 16.1512 11.87C15.7034 11.87 15.3607 11.4846 15.3607 11.0443C15.3607 10.6889 15.4936 10.4731 15.8159 10.2443L17.891 8.8416C18.4732 8.45629 18.8508 8.32223 19.3636 8.32223C20.1262 8.32223 20.6004 8.78488 20.6004 9.57238V18.3545C20.6004 19.1607 20.1708 19.6025 19.4548 19.6025Z" fill="white"/>
</svg>
