<svg width="28" height="28" viewBox="0 0 28 28" fill="none" xmlns="http://www.w3.org/2000/svg">
<path d="M14.105 26.21C20.7369 26.21 26.2121 20.7273 26.2121 14.105C26.2121 7.47312 20.7273 2 14.0954 2C7.47523 2 2 7.47312 2 14.105C2 20.7273 7.48484 26.21 14.105 26.21ZM14.105 23.8255C8.71085 23.8255 4.39412 19.4991 4.39412 14.105C4.39412 8.71085 8.70124 4.38452 14.0954 4.38452C19.4895 4.38452 23.8276 8.71085 23.8276 14.105C23.8276 19.4991 19.4991 23.8255 14.105 23.8255Z" fill="black"/>
<path d="M8.75703 18.5939C8.75703 19.4355 9.28742 19.9479 10.1727 19.9479H18.0416C18.9247 19.9479 19.4476 19.4355 19.4476 18.5939V14.0109L14.4683 9.82758C14.236 9.63047 13.9686 9.64008 13.7363 9.82758L8.75703 14.0013V18.5939ZM15.6692 18.7148H12.5429V14.9969C12.5429 14.7178 12.7283 14.5366 13.0128 14.5366H15.2014C15.4977 14.5366 15.6692 14.7178 15.6692 14.9969V18.7148ZM6.81055 13.2199C6.81055 13.5316 7.04469 13.8138 7.43211 13.8138C7.62593 13.8138 7.78554 13.7083 7.9271 13.5806L13.8111 8.65687C14.0145 8.47477 14.2093 8.49609 14.4052 8.65687L20.2775 13.5806C20.4383 13.7083 20.5883 13.8138 20.7725 13.8138C21.1194 13.8138 21.3941 13.5818 21.3941 13.2391C21.3941 13.0315 21.3228 12.873 21.1653 12.7336L15.0078 7.5661C14.4605 7.10508 13.7558 7.10508 13.2181 7.5661L7.03929 12.7357C6.89141 12.8751 6.81055 13.0507 6.81055 13.2199ZM17.8079 10.3528L19.4623 11.7539V8.88399C19.4623 8.62618 19.3004 8.44501 19.033 8.44501H18.249C17.9912 8.44501 17.8079 8.62618 17.8079 8.88399V10.3528Z" fill="black"/>
</svg>
