<svg width="28" height="28" viewBox="0 0 28 28" fill="none" xmlns="http://www.w3.org/2000/svg">
<path d="M14.105 26.21C20.7369 26.21 26.2121 20.7273 26.2121 14.105C26.2121 7.47312 20.7273 2 14.0954 2C7.47523 2 2 7.47312 2 14.105C2 20.7273 7.48484 26.21 14.105 26.21ZM14.105 23.8255C8.71085 23.8255 4.39412 19.4991 4.39412 14.105C4.39412 8.71085 8.70124 4.38452 14.0954 4.38452C19.4895 4.38452 23.8276 8.71085 23.8276 14.105C23.8276 19.4991 19.4991 23.8255 14.105 23.8255Z" fill="black"/>
<path d="M11.9598 19.3147H17.1871C17.7526 19.3147 18.1419 18.9669 18.1419 18.3948C18.1419 17.8173 17.7526 17.4674 17.1871 17.4674H13.1199V9.84615C13.1199 9.05397 12.7096 8.55945 11.9598 8.55945C11.2271 8.55945 10.8188 9.07108 10.8188 9.84615V18.0376C10.8188 18.8127 11.2271 19.3147 11.9598 19.3147Z" fill="black"/>
</svg>
