<svg width="28" height="28" viewBox="0 0 28 28" fill="none" xmlns="http://www.w3.org/2000/svg">
<path d="M14.105 26.21C20.7369 26.21 26.2121 20.7273 26.2121 14.105C26.2121 7.47312 20.7273 2 14.0954 2C7.47523 2 2 7.47312 2 14.105C2 20.7273 7.48484 26.21 14.105 26.21Z" fill="black"/>
<path d="M11.2517 19.5401C10.4117 19.5401 9.93408 19.0604 9.93408 18.2258V9.81124C9.93408 8.95953 10.4139 8.48938 11.2517 8.48938H14.8594C16.959 8.48938 18.3066 9.54735 18.3066 11.2156C18.3066 12.4311 17.5367 13.3707 16.3119 13.6468V13.7276C17.9363 13.929 18.9282 14.9581 18.9282 16.4516C18.9282 18.3268 17.3216 19.5401 14.8803 19.5401H11.2517ZM12.1646 13.1148H13.8376C15.3008 13.1148 16.1016 12.5518 16.1016 11.5752C16.1016 10.6571 15.4236 10.092 14.2977 10.092H12.1646V13.1148ZM12.1604 17.9016H13.9613C15.7681 17.9016 16.6116 17.3804 16.6116 16.2683C16.6116 15.203 15.8237 14.5836 14.4716 14.5836H12.1604V17.9016Z" fill="white"/>
</svg>
