<svg width="28" height="28" viewBox="0 0 28 28" fill="none" xmlns="http://www.w3.org/2000/svg">
<path d="M14.105 26.21C20.7369 26.21 26.2121 20.7273 26.2121 14.105C26.2121 7.47312 20.7273 2 14.0954 2C7.47523 2 2 7.47312 2 14.105C2 20.7273 7.48484 26.21 14.105 26.21ZM14.105 23.8255C8.71085 23.8255 4.39412 19.4991 4.39412 14.105C4.39412 8.71085 8.70124 4.38452 14.0954 4.38452C19.4895 4.38452 23.8276 8.71085 23.8276 14.105C23.8276 19.4991 19.4991 23.8255 14.105 23.8255Z" fill="black"/>
<path d="M9.92602 19.9109H18.2838C19.3776 19.9109 19.9129 19.2987 19.9129 18.1088V9.89839C19.9129 8.82801 19.3776 8.2948 18.2838 8.2948H9.92602C8.95173 8.2948 8.29688 8.94543 8.29688 9.89839V18.1088C8.29688 19.1813 8.95173 19.9109 9.92602 19.9109ZM10.7454 17.9848C10.4405 17.9848 10.2251 17.7673 10.2251 17.4528V10.7529C10.2251 10.4384 10.4405 10.2209 10.7454 10.2209H17.4644C17.7694 10.2209 17.9869 10.4384 17.9869 10.7529V17.4528C17.9869 17.7673 17.7694 17.9848 17.4644 17.9848H10.7454Z" fill="black"/>
</svg>
