<svg width="29" height="28" viewBox="0 0 29 28" fill="none" xmlns="http://www.w3.org/2000/svg">
<path d="M10.0781 24.8972H18.375C25.3835 24.8972 28.4435 21.7359 28.4435 15.0246V6.82921C28.4435 4.32656 27.1287 3.02344 24.5993 3.02344H3.84421C1.31484 3.02344 0 4.31695 0 6.82921V15.0246C0 21.7359 3.06 24.8972 10.0781 24.8972ZM10.1182 22.5799C4.66335 22.5799 2.29592 20.2083 2.29592 15.108V7.01999C2.29592 5.89827 2.89616 5.31936 3.97733 5.31936H24.4662C25.5399 5.31936 26.1476 5.89827 26.1476 7.01999V15.108C26.1476 20.2083 23.7802 22.5799 18.3253 22.5799H10.1182Z" fill="black"/>
<path d="M12.097 19.1972H17.3147C17.8877 19.1972 18.2791 18.8494 18.2791 18.2677C18.2791 17.6902 17.8877 17.352 17.3147 17.352H13.2572V9.72869C13.2572 8.9269 12.8372 8.44409 12.097 8.44409C11.3548 8.44409 10.9561 8.94401 10.9561 9.72869V17.9105C10.9561 18.6855 11.3548 19.1972 12.097 19.1972Z" fill="black"/>
</svg>
