<svg width="29" height="28" viewBox="0 0 29 28" fill="none" xmlns="http://www.w3.org/2000/svg">
<path d="M10.0781 24.8972H18.375C25.3835 24.8972 28.4435 21.7359 28.4435 15.0246V6.82921C28.4435 4.32656 27.1287 3.02344 24.5993 3.02344H3.84421C1.31484 3.02344 0 4.31695 0 6.82921V15.0246C0 21.7359 3.06 24.8972 10.0781 24.8972Z" fill="black"/>
<path d="M7.72567 19.4766C7.02231 19.4766 6.63184 18.9987 6.63184 18.2454V9.7519C6.63184 8.96815 7.03169 8.45839 7.79621 8.45839H11.1733C13.6795 8.45839 15.2318 9.81495 15.2318 11.9935C15.2318 13.4798 14.3376 14.7138 12.9555 15.1636L14.64 17.76C14.8209 18.023 14.8975 18.2337 14.8975 18.5264C14.8975 19.0861 14.4815 19.4766 13.8804 19.4766C13.3973 19.4766 13.11 19.2776 12.7643 18.7298L10.8133 15.5208H8.8366V18.2454C8.8366 19.0158 8.43441 19.4766 7.72567 19.4766ZM8.8366 13.9087H10.855C12.1701 13.9087 12.9956 13.2316 12.9956 12.0425C12.9956 10.8298 12.1593 10.1281 10.8956 10.1281H8.8366V13.9087ZM20.8359 19.597C20.137 19.597 19.6999 19.1627 19.6999 18.3469V10.7037H19.6115L18.1849 11.6644C17.8804 11.8549 17.7314 11.8847 17.5324 11.8847C17.0845 11.8847 16.7515 11.5069 16.7515 11.0665C16.7515 10.7091 16.8865 10.4836 17.2066 10.2666L19.2839 8.86386C19.8522 8.47104 20.2319 8.33276 20.7426 8.33276C21.517 8.33276 21.9911 8.80714 21.9911 9.59252V18.3469C21.9911 19.1627 21.5615 19.597 20.8359 19.597Z" fill="white"/>
</svg>
