<svg width="34" height="31" viewBox="0 0 34 31" fill="none" xmlns="http://www.w3.org/2000/svg">
<path d="M15.1305 0C6.77437 0 0 6.77648 0 15.1326C0 23.4888 6.77437 30.2653 15.1305 30.2653C21.7392 30.2653 27.3614 26.0158 29.4211 20.1047C28.6549 20.2533 27.8974 20.051 27.3441 19.5914C25.5239 24.5812 20.7455 28.1402 15.1305 28.1402C7.95022 28.1402 2.12296 22.313 2.12296 15.1326C2.12296 7.95022 7.95022 2.12296 15.1305 2.12296C20.7551 2.12296 25.5335 5.69367 27.3441 10.6931C27.907 10.2239 28.6645 10.0334 29.4307 10.182C27.3827 4.25906 21.7509 0 15.1305 0Z" fill="black"/>
<path d="M15.1305 25.5208C20.8648 25.5208 25.5283 20.8669 25.5283 15.1326C25.5283 9.39845 20.8648 4.73486 15.1305 4.73486C9.39634 4.73486 4.73486 9.39845 4.73486 15.1326C4.73486 20.8669 9.39634 25.5208 15.1305 25.5208ZM15.1305 23.2987C10.6228 23.2987 6.95695 19.6404 6.95695 15.1326C6.95695 10.6249 10.6228 6.95695 15.1305 6.95695C19.6383 6.95695 23.3062 10.6249 23.3062 15.1326C23.3062 19.6404 19.6383 23.2987 15.1305 23.2987ZM29.6416 12.0698C28.9676 11.5544 28.1402 11.8601 28.1402 12.7109V17.5598C28.1402 18.4362 28.9847 18.7033 29.6416 18.2051L32.8708 15.7769C33.3171 15.4458 33.3192 14.8249 32.8708 14.4937L29.6416 12.0698ZM13.144 20.0023H18.0267C18.5531 20.0023 18.918 19.6809 18.918 19.1534C18.918 18.6204 18.5531 18.3066 18.0267 18.3066H14.2108V11.144C14.2108 10.409 13.829 9.95696 13.144 9.95696C12.4643 9.95696 12.0942 10.4262 12.0942 11.144V18.8227C12.0942 19.5405 12.4643 20.0023 13.144 20.0023Z" fill="black"/>
</svg>
