<svg width="28" height="28" viewBox="0 0 28 28" fill="none" xmlns="http://www.w3.org/2000/svg">
<path d="M14.105 26.21C20.7369 26.21 26.2121 20.7273 26.2121 14.105C26.2121 7.47312 20.7273 2 14.0954 2C7.47523 2 2 7.47312 2 14.105C2 20.7273 7.48484 26.21 14.105 26.21ZM14.105 23.8255C8.71085 23.8255 4.39412 19.4991 4.39412 14.105C4.39412 8.71085 8.70124 4.38452 14.0954 4.38452C19.4895 4.38452 23.8276 8.71085 23.8276 14.105C23.8276 19.4991 19.4991 23.8255 14.105 23.8255Z" fill="black"/>
<path d="M11.583 19.5068H19.1433C20.2193 19.5068 20.7614 18.9647 20.7614 17.8983V12.5636C20.7614 11.5165 20.2193 10.9552 19.1433 10.9552H11.583C10.5049 10.9552 9.95531 11.5165 9.95531 12.5636V17.8983C9.95531 18.9647 10.5049 19.5068 11.583 19.5068ZM9.24281 12.4891C9.24281 11.0159 10.0256 10.2331 11.5064 10.2331H18.2182V10.1274C18.2182 9.08837 17.6761 8.54626 16.6001 8.54626H9.02812C7.96171 8.54626 7.41211 9.08837 7.41211 10.1548V15.4509C7.41211 16.5077 7.96171 17.0594 9.01757 17.0594H9.24281V12.4891Z" fill="black"/>
</svg>
