<svg width="28" height="28" viewBox="0 0 28 28" fill="none" xmlns="http://www.w3.org/2000/svg">
<path d="M14.3152 20.1132C22.006 20.1132 26.6283 16.6454 26.6283 12.35C26.6283 8.0621 22.006 4.59851 14.3014 4.59851C6.62234 4.59851 2 8.0621 2 12.35C2 16.6454 6.62234 20.1132 14.3152 20.1132ZM14.3152 25.6339C17.3316 25.6339 19.1562 24.2178 19.1562 21.8244V21.3186C17.6539 21.6357 16.0346 21.8166 14.3152 21.8166C12.5937 21.8166 10.9766 21.6357 9.48383 21.3186V21.8244C9.48383 24.2178 11.3063 25.6339 14.3152 25.6339Z" fill="black"/>
<path d="M12.3426 16.1197C11.8024 16.1197 11.4727 15.7526 11.4727 15.155V9.47956C11.4727 8.82683 11.8193 8.44714 12.4143 8.44714H14.6829C16.4444 8.44714 17.5497 9.40363 17.5497 10.9517C17.5497 11.9473 16.9917 12.7855 16.0727 13.1349L17.1478 14.7666C17.2743 14.9581 17.3414 15.1358 17.3414 15.3624C17.3414 15.8208 16.9743 16.141 16.5129 16.141C16.1449 16.141 15.914 15.9889 15.6515 15.552L14.3547 13.4464H13.2297V15.155C13.2297 15.7505 12.8861 16.1197 12.3426 16.1197ZM13.2297 12.0997H14.4691C15.2889 12.0997 15.7537 11.685 15.7537 10.9814C15.7537 10.2778 15.2836 9.8344 14.4883 9.8344H13.2297V12.0997Z" fill="white"/>
</svg>
