<svg width="29" height="28" viewBox="0 0 29 28" fill="none" xmlns="http://www.w3.org/2000/svg">
<path d="M10.0781 3.02344C3.06 3.02344 0 6.18258 0 12.8864V21.0914C0 23.6016 1.31484 24.8972 3.84421 24.8972H24.5993C27.1287 24.8972 28.4435 23.5919 28.4435 21.0914V12.8864C28.4435 6.18258 25.3835 3.02344 18.375 3.02344H10.0781ZM10.1182 5.33858H18.3253C23.7802 5.33858 26.1476 7.70061 26.1476 12.8105V20.8985C26.1476 22.0202 25.5399 22.6013 24.4662 22.6013H3.97733C2.89616 22.6013 2.29592 22.0202 2.29592 20.8985V12.8105C2.29592 7.70061 4.66335 5.33858 10.1182 5.33858Z" fill="black"/>
</svg>
