<svg width="34" height="31" viewBox="0 0 34 31" fill="none" xmlns="http://www.w3.org/2000/svg">
<path d="M15.1305 0C6.77437 0 0 6.77648 0 15.1326C0 23.4888 6.77437 30.2653 15.1305 30.2653C21.7392 30.2653 27.3614 26.0158 29.4211 20.1047C28.6549 20.2533 27.8974 20.051 27.3441 19.5914C25.5239 24.5812 20.7455 28.1402 15.1305 28.1402C7.95022 28.1402 2.12296 22.313 2.12296 15.1326C2.12296 7.95022 7.95022 2.12296 15.1305 2.12296C20.7551 2.12296 25.5335 5.69367 27.3441 10.6931C27.907 10.2239 28.6645 10.0334 29.4307 10.182C27.3827 4.25906 21.7509 0 15.1305 0Z" fill="black"/>
<path d="M15.1305 25.5208C20.8648 25.5208 25.5283 20.8669 25.5283 15.1326C25.5283 9.39845 20.8648 4.73486 15.1305 4.73486C9.39634 4.73486 4.73486 9.39845 4.73486 15.1326C4.73486 20.8669 9.39634 25.5208 15.1305 25.5208ZM29.6416 12.0698C28.9676 11.5544 28.1402 11.8601 28.1402 12.7109V17.5598C28.1402 18.4362 28.9847 18.7033 29.6416 18.2051L32.8708 15.7769C33.3171 15.4458 33.3192 14.8249 32.8708 14.4937L29.6416 12.0698ZM12.1289 20.4344C11.4459 20.4344 11.0726 19.9737 11.0726 19.2408V11.0819C11.0726 10.2951 11.467 9.81001 12.2037 9.81001H15.4673C17.8868 9.81001 19.3823 11.1152 19.3823 13.2199C19.3823 14.6517 18.5299 15.8365 17.2045 16.2712L18.8205 18.7683C18.9865 19.0237 19.0535 19.2291 19.0535 19.5143C19.0535 20.0611 18.6525 20.4344 18.0696 20.4344C17.5962 20.4344 17.3238 20.2451 16.991 19.7081L15.1085 16.6209H13.214V19.2408C13.214 19.9908 12.8269 20.4344 12.1289 20.4344ZM13.214 15.0497H15.1662C16.4065 15.0497 17.2031 14.3993 17.2031 13.2731C17.2031 12.1085 16.4032 11.441 15.195 11.441H13.214V15.0497Z" fill="black"/>
</svg>
