<svg width="29" height="28" viewBox="0 0 29 28" fill="none" xmlns="http://www.w3.org/2000/svg">
<path d="M10.0781 3.02344C3.06 3.02344 0 6.18258 0 12.8864V21.0914C0 23.6016 1.31484 24.8972 3.84421 24.8972H24.5993C27.1287 24.8972 28.4435 23.5919 28.4435 21.0914V12.8864C28.4435 6.18258 25.3835 3.02344 18.375 3.02344H10.0781Z" fill="black"/>
<path d="M6.22144 19.4894C5.5202 19.4894 5.13184 19.0158 5.13184 18.2604V9.76901C5.13184 8.98104 5.52957 8.4755 6.2941 8.4755H9.67121C12.1774 8.4755 13.7296 9.82784 13.7296 12.0042C13.7296 13.4948 12.8451 14.7309 11.4513 15.1786L13.1571 17.7729C13.3188 18.0359 13.3975 18.2487 13.3975 18.5435C13.3975 19.1011 12.9794 19.4894 12.3857 19.4894C11.8973 19.4894 11.6175 19.2926 11.2718 18.7448L9.32082 15.5358H7.33238V18.2604C7.33238 19.0329 6.9398 19.4894 6.22144 19.4894ZM7.33238 13.9237H9.35293C10.668 13.9237 11.4914 13.2466 11.4914 12.0574C11.4914 10.8469 10.6551 10.1431 9.40309 10.1431H7.33238V13.9237ZM19.4756 19.4894C18.7279 19.4894 18.3122 18.9724 18.3122 18.1748V10.3329H15.7068C15.138 10.3329 14.7475 9.98393 14.7475 9.41276C14.7475 8.81698 15.138 8.47339 15.7068 8.47339H23.2786C23.8591 8.47339 24.2496 8.81698 24.2496 9.41276C24.2496 9.98393 23.8591 10.3329 23.2786 10.3329H20.6603V18.1748C20.6603 18.9895 20.2425 19.4894 19.4756 19.4894Z" fill="white"/>
</svg>
