<svg width="29" height="28" viewBox="0 0 29 28" fill="none" xmlns="http://www.w3.org/2000/svg">
<path d="M10.0781 3.02344C3.06 3.02344 0 6.18258 0 12.8864V21.0914C0 23.6016 1.31484 24.8972 3.84421 24.8972H24.5993C27.1287 24.8972 28.4435 23.5919 28.4435 21.0914V12.8864C28.4435 6.18258 25.3835 3.02344 18.375 3.02344H10.0781ZM10.1182 5.33858H18.3253C23.7802 5.33858 26.1476 7.70061 26.1476 12.8105V20.8985C26.1476 22.0202 25.5399 22.6013 24.4662 22.6013H3.97733C2.89616 22.6013 2.29592 22.0202 2.29592 20.8985V12.8105C2.29592 7.70061 4.66335 5.33858 10.1182 5.33858Z" fill="black"/>
<path d="M6.24328 19.1384H12.7973C13.3376 19.1384 13.7184 18.7915 13.7184 18.2531C13.7184 17.7052 13.3439 17.3859 12.7973 17.3859H8.03858V17.2859L12.9956 10.5307C13.2869 10.1637 13.3582 9.98391 13.3582 9.63305C13.3582 9.07665 12.9443 8.68079 12.3645 8.68079H6.12422C5.57766 8.68079 5.19141 9.02134 5.19141 9.5618C5.19141 10.1098 5.58188 10.4353 6.12422 10.4353H10.6109V10.5312L5.65805 17.2767C5.36016 17.6716 5.26875 17.8959 5.26875 18.2149C5.26875 18.7596 5.67094 19.1384 6.24328 19.1384ZM16.2844 19.2778C16.9687 19.2778 17.3454 18.8468 17.3454 18.1104V15.4699H19.2635L21.1592 18.5672C21.491 19.0927 21.7528 19.2778 22.2136 19.2778C22.785 19.2778 23.183 18.9075 23.183 18.3776C23.183 18.0987 23.1063 17.8922 22.9488 17.6409L21.3155 15.1329C22.6444 14.6991 23.5012 13.5066 23.5012 12.0734C23.5012 9.98204 22.016 8.68079 19.6034 8.68079H16.3603C15.6223 8.68079 15.2447 9.16079 15.2447 9.90844V18.1104C15.2447 18.8297 15.615 19.2778 16.2844 19.2778ZM17.3454 13.9301V10.2708H19.3395C20.5563 10.2708 21.3692 10.9512 21.3692 12.1223C21.3692 13.2785 20.5692 13.9301 19.301 13.9301H17.3454Z" fill="black"/>
</svg>
