<svg width="29" height="28" viewBox="0 0 29 28" fill="none" xmlns="http://www.w3.org/2000/svg">
<path d="M10.0781 24.8972H18.375C25.3835 24.8972 28.4435 21.7359 28.4435 15.0246V6.82921C28.4435 4.32656 27.1287 3.02344 24.5993 3.02344H3.84421C1.31484 3.02344 0 4.31695 0 6.82921V15.0246C0 21.7359 3.06 24.8972 10.0781 24.8972Z" fill="black"/>
<path d="M7.11426 19.3169C6.3645 19.3169 5.94873 18.7924 5.94873 18.0002V9.61969C5.94873 8.82001 6.35489 8.30298 7.11426 8.30298C7.87902 8.30298 8.29691 8.8029 8.29691 9.61969V17.4342H12.4635C13.0461 17.4342 13.445 17.782 13.445 18.367C13.445 18.9637 13.0461 19.3169 12.4635 19.3169H7.11426ZM16.3273 19.3266C15.5105 19.3266 15.0477 18.8616 15.0477 18.0448V9.71883C15.0477 8.89876 15.5126 8.44665 16.3273 8.44665H19.8739C21.9397 8.44665 23.2663 9.49946 23.2663 11.1211C23.2663 12.3197 22.5111 13.2445 21.3095 13.5164V13.593C22.9023 13.8019 23.874 14.8162 23.874 16.2769C23.874 18.1226 22.3001 19.3266 19.8926 19.3266H16.3273ZM17.2149 12.997H18.873C20.3278 12.997 21.1202 12.4458 21.1202 11.4722C21.1202 10.5701 20.4486 10.0113 19.3352 10.0113H17.2149V12.997ZM17.2128 17.7206H18.999C20.7931 17.7206 21.6302 17.2078 21.6302 16.1137C21.6302 15.0473 20.8487 14.4342 19.4975 14.4342H17.2128V17.7206Z" fill="white"/>
</svg>
