<svg width="28" height="28" viewBox="0 0 28 28" fill="none" xmlns="http://www.w3.org/2000/svg">
<path d="M5.14523 19.0805C7.96289 19.0805 10.2841 16.7571 10.2841 13.9395C10.2841 11.1335 7.96289 8.80805 5.14523 8.80805C2.30203 8.80805 0 11.1335 0 13.9395C0 16.7571 2.30203 19.0805 5.14523 19.0805ZM5.14312 16.9432C3.45093 16.9432 2.12553 15.6295 2.12553 13.9416C2.12553 12.2611 3.45093 10.9048 5.14312 10.9048C6.82149 10.9048 8.14899 12.2611 8.14899 13.9416C8.14899 15.6295 6.82149 16.9432 5.14312 16.9432ZM13.6657 10.2745C16.4834 10.2745 18.8067 7.94906 18.8067 5.1314C18.8067 2.31586 16.4834 0 13.6657 0C10.8342 0 8.52047 2.31586 8.52047 5.1314C8.52047 7.94906 10.8342 10.2745 13.6657 10.2745ZM13.6636 8.12556C11.9714 8.12556 10.6481 6.81188 10.6481 5.13351C10.6481 3.45515 11.9714 2.09671 13.6636 2.09671C15.3537 2.09671 16.6695 3.45515 16.6695 5.13351C16.6695 6.81188 15.3537 8.12556 13.6636 8.12556ZM13.6657 27.8864C16.4834 27.8864 18.8067 25.5609 18.8067 22.7454C18.8067 19.9395 16.4834 17.614 13.6657 17.614C10.8342 17.614 8.52047 19.9395 8.52047 22.7454C8.52047 25.5609 10.8342 27.8864 13.6657 27.8864ZM13.6636 25.7491C11.9714 25.7491 10.6481 24.4355 10.6481 22.7475C10.6481 21.0766 11.9714 19.7107 13.6636 19.7107C15.3537 19.7107 16.6695 21.0766 16.6695 22.7475C16.6695 24.4355 15.3537 25.7491 13.6636 25.7491Z" fill="black"/>
<path d="M22.2119 19.0806C25.02 19.0806 27.3433 16.7572 27.3433 13.9396C27.3433 11.1336 25.02 8.80811 22.2119 8.80811C19.3708 8.80811 17.0571 11.1336 17.0571 13.9396C17.0571 16.7572 19.3708 19.0806 22.2119 19.0806Z" fill="black"/>
</svg>
