<svg width="28" height="28" viewBox="0 0 28 28" fill="none" xmlns="http://www.w3.org/2000/svg">
<path d="M6.50992 18.7684C7.81468 18.7684 8.24382 18.6405 9.09671 17.7876L11.3723 15.5099C12.2369 14.6474 12.2369 13.4507 11.3723 12.5861L9.09671 10.3105C8.24382 9.45765 7.81468 9.32007 6.50992 9.32007H3.57273C1.98203 9.32007 1 10.202 1 11.6202V16.4779C1 17.8865 1.98203 18.7684 3.57273 18.7684H6.50992ZM9.32968 6.51742C9.32968 7.81468 9.46726 8.24382 10.3223 9.09671L12.5978 11.3723C13.4603 12.2348 14.657 12.2348 15.5216 11.3723L17.7972 9.09671C18.6501 8.24382 18.778 7.81468 18.778 6.51742V3.57062C18.778 1.98203 17.8961 1 16.48 1H11.6298C10.2116 1 9.32968 1.98203 9.32968 3.57062V6.51742ZM21.584 9.32968C20.2792 9.32968 19.8501 9.45765 18.9972 10.3105L16.7195 12.5861C15.857 13.4507 15.857 14.6474 16.7195 15.5099L18.9972 17.7876C19.8501 18.6405 20.2792 18.778 21.584 18.778H24.5212C26.1119 18.778 27.0939 17.8961 27.0939 16.4779V11.6202C27.0939 10.2116 26.1119 9.32968 24.5212 9.32968H21.584ZM18.778 21.5744C18.778 20.2771 18.6405 19.8501 17.7876 18.9951L15.512 16.7099C14.6474 15.857 13.4507 15.857 12.5882 16.7099L10.3126 18.9951C9.45765 19.8501 9.32968 20.2771 9.32968 21.5744V24.5212C9.32968 26.1119 10.2116 27.0843 11.6298 27.0843H16.48C17.8961 27.0843 18.778 26.1119 18.778 24.5212V21.5744Z" fill="black"/>
</svg>
