<svg width="28" height="28" viewBox="0 0 28 28" fill="none" xmlns="http://www.w3.org/2000/svg">
<path d="M5.14523 19.0805C7.96289 19.0805 10.2841 16.7571 10.2841 13.9395C10.2841 11.1335 7.96289 8.80805 5.14523 8.80805C2.30203 8.80805 0 11.1335 0 13.9395C0 16.7571 2.30203 19.0805 5.14523 19.0805ZM13.6657 10.2745C16.4834 10.2745 18.8067 7.94906 18.8067 5.1314C18.8067 2.31586 16.4834 0 13.6657 0C10.8342 0 8.52047 2.31586 8.52047 5.1314C8.52047 7.94906 10.8342 10.2745 13.6657 10.2745ZM22.2117 19.0805C25.0198 19.0805 27.3431 16.7571 27.3431 13.9395C27.3431 11.1335 25.0198 8.80805 22.2117 8.80805C19.3706 8.80805 17.0569 11.1335 17.0569 13.9395C17.0569 16.7571 19.3706 19.0805 22.2117 19.0805ZM13.6657 27.8864C16.4834 27.8864 18.8067 25.5609 18.8067 22.7454C18.8067 19.9395 16.4834 17.614 13.6657 17.614C10.8342 17.614 8.52047 19.9395 8.52047 22.7454C8.52047 25.5609 10.8342 27.8864 13.6657 27.8864Z" fill="black"/>
</svg>
