<svg width="29" height="28" viewBox="0 0 29 28" fill="none" xmlns="http://www.w3.org/2000/svg">
<path d="M10.0781 3.02344C3.06 3.02344 0 6.18258 0 12.8864V21.0914C0 23.6016 1.31484 24.8972 3.84421 24.8972H24.5993C27.1287 24.8972 28.4435 23.5919 28.4435 21.0914V12.8864C28.4435 6.18258 25.3835 3.02344 18.375 3.02344H10.0781Z" fill="black"/>
<path d="M6.83977 19.4894C6.13852 19.4894 5.75977 19.0095 5.75977 18.2583V9.76262C5.75977 8.97887 6.1554 8.48083 6.92414 8.48083H10.2917C12.8032 8.48083 14.3576 9.82778 14.3576 12.0021C14.3576 13.4948 13.4635 14.7267 12.0792 15.1882L13.7754 17.7729C13.9468 18.0359 14.0159 18.2466 14.0159 18.5372C14.0159 19.1011 13.5957 19.4894 13.0041 19.4894C12.5178 19.4894 12.2475 19.2905 11.8997 18.7427L9.93704 15.5391H7.95492V18.2583C7.95492 19.0362 7.56234 19.4894 6.83977 19.4894ZM7.95492 13.9216H9.98297C11.296 13.9216 12.1118 13.2562 12.1118 12.0532C12.1118 10.8447 11.2873 10.1409 10.031 10.1409H7.95492V13.9216ZM16.7433 19.3341C16.1464 19.3341 15.7634 18.9691 15.7634 18.4254C15.7634 18.1191 15.871 17.8458 16.1759 17.5502L19.8268 13.8002C20.5489 13.0608 21.2049 12.3815 21.2049 11.5849C21.2049 10.6952 20.5456 10.1191 19.53 10.1191C18.4847 10.1191 17.9311 10.8082 17.6135 11.4672C17.3803 11.8113 17.1345 12.0998 16.6514 12.0998C16.0941 12.0998 15.7165 11.7614 15.7165 11.2167C15.7165 11.0379 15.7346 10.8782 15.7857 10.6844C16.201 9.33677 17.7296 8.32544 19.5028 8.32544C21.7854 8.32544 23.2978 9.55263 23.2978 11.403C23.2978 12.6958 22.5764 13.6453 21.4519 14.7809L18.8867 17.4073V17.5052H22.7316C23.3175 17.5052 23.7059 17.8308 23.7059 18.4127C23.7059 18.9734 23.3133 19.3341 22.7316 19.3341H16.7433Z" fill="white"/>
</svg>
