<svg width="30" height="28" viewBox="0 0 30 28" fill="none" xmlns="http://www.w3.org/2000/svg">
<path d="M11.0853 3C13.1361 3.45703 16.0541 4.33594 17.6713 4.875C21.7494 6.23438 23.1908 7.98047 23.1908 11.9062C23.1908 14.7656 21.8549 16.2773 19.8978 16.2773C19.2416 16.2773 18.515 16.0898 17.7533 15.7383V8.61328C17.7533 7.80469 17.6713 7.08984 16.8744 6.83203C16.2181 6.62109 15.89 7.19531 15.89 7.98047V25.875L11.0853 24.3633V3ZM16.7806 22.7695V25.5117L26.6009 22.0195C28.0658 21.4922 28.9799 20.9883 29.3197 20.5312C29.8588 19.8281 29.6127 18.7266 27.4916 17.9883C25.3119 17.25 22.7338 16.9922 20.683 17.1562C19.4174 17.2617 17.8939 17.6602 16.7806 18.0352V20.9883L21.9486 19.1133C22.8158 18.7969 24.0345 18.7734 24.7845 19.0195C25.4994 19.2656 25.4291 19.6641 24.515 19.9922L16.7806 22.7695ZM1.76891 22.2656C3.93688 23.0391 6.70251 23.6602 10.1127 22.9336V20.4492L7.83923 21.2812C6.90173 21.6328 5.39001 21.6914 4.86266 21.5039C4.11266 21.2578 4.26501 20.7656 5.2611 20.4023L10.1127 18.668V15.9141L3.45641 18.3164C2.55407 18.6562 1.66345 18.9023 0.632196 19.6055C-0.492804 20.3672 -0.117804 21.5977 1.76891 22.2656Z" fill="black"/>
</svg>
