<svg width="29" height="28" viewBox="0 0 29 28" fill="none" xmlns="http://www.w3.org/2000/svg">
<path d="M10.0781 3.02344C3.06 3.02344 0 6.18258 0 12.8864V21.0914C0 23.6016 1.31484 24.8972 3.84421 24.8972H24.5993C27.1287 24.8972 28.4435 23.5919 28.4435 21.0914V12.8864C28.4435 6.18258 25.3835 3.02344 18.375 3.02344H10.0781ZM10.1182 5.33858H18.3253C23.7802 5.33858 26.1476 7.70061 26.1476 12.8105V20.8985C26.1476 22.0202 25.5399 22.6013 24.4662 22.6013H3.97733C2.89616 22.6013 2.29592 22.0202 2.29592 20.8985V12.8105C2.29592 7.70061 4.66335 5.33858 10.1182 5.33858Z" fill="black"/>
<path d="M8.13501 19.1362H13.2873C13.8435 19.1362 14.2243 18.799 14.2243 18.232C14.2243 17.6714 13.8339 17.3416 13.2873 17.3416H9.2518V9.78796C9.2518 9.00937 8.85407 8.53711 8.13501 8.53711C7.41384 8.53711 7.02783 9.02648 7.02783 9.78796V17.8854C7.02783 18.6373 7.41384 19.1362 8.13501 19.1362ZM18.1926 19.2778C18.9233 19.2778 19.3211 18.8055 19.3211 18.027V10.4205H21.91C22.4544 10.4205 22.829 10.0854 22.829 9.53648C22.829 8.97469 22.4544 8.64492 21.91 8.64492H14.5253C13.9808 8.64492 13.6063 8.97469 13.6063 9.53648C13.6063 10.0854 13.9808 10.4205 14.5253 10.4205H17.095V18.027C17.095 18.7884 17.4831 19.2778 18.1926 19.2778Z" fill="black"/>
</svg>
