<svg width="28" height="28" viewBox="0 0 28 28" fill="none" xmlns="http://www.w3.org/2000/svg">
<path d="M14.105 26.21C20.7369 26.21 26.2121 20.7273 26.2121 14.105C26.2121 7.47312 20.7273 2 14.0954 2C7.47523 2 2 7.47312 2 14.105C2 20.7273 7.48484 26.21 14.105 26.21Z" fill="black"/>
<path d="M6.53076 13.1848C6.53076 13.0114 6.61584 12.8241 6.76584 12.6826L13.1935 7.3034C13.7471 6.82644 14.488 6.82644 15.0512 7.3034L17.9514 9.73973V8.67238C17.9514 8.40285 18.1485 8.21746 18.418 8.21746H19.2327C19.5118 8.21746 19.6855 8.40285 19.6855 8.67238V11.2046L21.4597 12.6805C21.6172 12.822 21.6927 12.9922 21.6927 13.2062C21.6927 13.5648 21.4117 13.8085 21.0489 13.8085C20.8487 13.8085 20.687 13.6934 20.522 13.5636L14.4306 8.4462C14.2208 8.28331 14.0218 8.26409 13.8046 8.4462L7.70146 13.5636C7.54607 13.6934 7.38435 13.8085 7.17458 13.8085C6.77334 13.8085 6.53076 13.5146 6.53076 13.1848ZM8.55482 18.7684V14.0162L13.7298 9.67644C13.9759 9.47511 14.2475 9.4655 14.4936 9.67644L19.6686 14.0258V18.7684C19.6686 19.6398 19.1181 20.1798 18.2052 20.1798H10.03C9.11076 20.1798 8.55482 19.6398 8.55482 18.7684ZM12.4928 18.8872H15.7382V15.0331C15.7382 14.7423 15.5645 14.5473 15.2523 14.5473H12.9807C12.6824 14.5473 12.4928 14.7423 12.4928 15.0331V18.8872Z" fill="white"/>
</svg>
