<svg width="31" height="34" viewBox="0 0 31 34" fill="none" xmlns="http://www.w3.org/2000/svg">
<path d="M15.1326 33.2084C23.4888 33.2084 30.2728 26.4319 30.2728 18.0758C30.2728 11.4692 26.0254 5.83531 20.1047 3.78523C20.2533 4.5439 20.0606 5.3089 19.5914 5.86226C24.5791 7.68241 28.1498 12.4609 28.1498 18.0758C28.1498 25.2561 22.313 31.0834 15.1326 31.0834C7.95022 31.0834 2.12296 25.2561 2.12296 18.0758C2.12296 12.4512 5.70327 7.6728 10.691 5.86226C10.2314 5.29929 10.0334 4.53218 10.182 3.77563C4.25906 5.81398 0 11.4554 0 18.0758C0 26.4319 6.77648 33.2084 15.1326 33.2084Z" fill="black"/>
<path d="M15.1328 28.464C20.8767 28.464 25.5285 23.81 25.5285 18.0758C25.5285 12.3416 20.8767 7.67797 15.1328 7.67797C9.39861 7.67797 4.74463 12.3416 4.74463 18.0758C4.74463 23.81 9.39861 28.464 15.1328 28.464ZM15.1328 26.2419C10.6251 26.2419 6.96672 22.5835 6.96672 18.0758C6.96672 13.568 10.6251 9.90007 15.1328 9.90007C19.6502 9.90007 23.3064 13.568 23.3064 18.0758C23.3064 22.5835 19.6502 26.2419 15.1328 26.2419ZM12.0796 3.56469C11.5739 4.24086 11.8699 5.0661 12.7207 5.0661H17.56C18.446 5.0661 18.7132 4.22375 18.2149 3.56469L15.7868 0.335479C15.446 -0.110771 14.8251 -0.11288 14.4939 0.335479L12.0796 3.56469ZM13.1442 22.9454H18.0269C18.5533 22.9454 18.9182 22.6241 18.9182 22.0965C18.9182 21.5635 18.5533 21.2497 18.0269 21.2497H14.211V14.0872C14.211 13.3522 13.8292 12.9001 13.1442 12.9001C12.4645 12.9001 12.0944 13.3693 12.0944 14.0872V21.7658C12.0944 22.4837 12.4645 22.9454 13.1442 22.9454Z" fill="black"/>
</svg>
