<svg width="28" height="28" viewBox="0 0 28 28" fill="none" xmlns="http://www.w3.org/2000/svg">
<path d="M14.105 26.21C20.7369 26.21 26.2121 20.7273 26.2121 14.105C26.2121 7.47312 20.7273 2 14.0954 2C7.47523 2 2 7.47312 2 14.105C2 20.7273 7.48484 26.21 14.105 26.21ZM14.105 23.8255C8.71085 23.8255 4.39412 19.4991 4.39412 14.105C4.39412 8.71085 8.70124 4.38452 14.0954 4.38452C19.4895 4.38452 23.8276 8.71085 23.8276 14.105C23.8276 19.4991 19.4991 23.8255 14.105 23.8255Z" fill="black"/>
<path d="M11.3452 19.3339H14.8346C17.1887 19.3339 18.7262 18.1641 18.7262 16.3601C18.7262 14.9241 17.7758 13.929 16.2151 13.7394V13.6606C17.39 13.3984 18.128 12.4906 18.128 11.3187C18.128 9.72171 16.8378 8.69562 14.8159 8.69562H11.3452C10.5476 8.69562 10.0977 9.14772 10.0977 9.95701V18.0821C10.0977 18.8743 10.5434 19.3339 11.3452 19.3339ZM12.2178 13.1509V10.2282H14.2805C15.3692 10.2282 16.0313 10.7815 16.0313 11.6602C16.0313 12.6092 15.2581 13.1509 13.8397 13.1509H12.2178ZM12.2157 17.7676V14.5538H14.4545C15.7576 14.5538 16.5221 15.1594 16.5221 16.1853C16.5221 17.2623 15.702 17.7676 13.9655 17.7676H12.2157Z" fill="black"/>
</svg>
