<svg width="29" height="28" viewBox="0 0 29 28" fill="none" xmlns="http://www.w3.org/2000/svg">
<path d="M10.0781 24.8972H18.375C25.3835 24.8972 28.4435 21.7359 28.4435 15.0246V6.82921C28.4435 4.32656 27.1287 3.02344 24.5993 3.02344H3.84421C1.31484 3.02344 0 4.31695 0 6.82921V15.0246C0 21.7359 3.06 24.8972 10.0781 24.8972ZM10.1182 22.5799C4.66335 22.5799 2.29592 20.2083 2.29592 15.108V7.01999C2.29592 5.89827 2.89616 5.31936 3.97733 5.31936H24.4662C25.5399 5.31936 26.1476 5.89827 26.1476 7.01999V15.108C26.1476 20.2083 23.7802 22.5799 18.3253 22.5799H10.1182Z" fill="black"/>
<path d="M7.38517 19.117H12.545C13.0915 19.117 13.4745 18.7819 13.4745 18.217C13.4745 17.6543 13.0915 17.3245 12.545 17.3245H8.51157V9.77083C8.51157 8.99224 8.11173 8.52209 7.38517 8.52209C6.6619 8.52209 6.27588 9.00935 6.27588 9.77083V17.8683C6.27588 18.6223 6.67151 19.117 7.38517 19.117ZM16.2399 19.1266H19.6723C21.9947 19.1266 23.5015 17.9759 23.5015 16.1972C23.5015 14.7844 22.5734 13.8115 21.0359 13.6165V13.5398C22.1939 13.2797 22.9193 12.3825 22.9193 11.2296C22.9193 9.66537 21.6481 8.65193 19.6535 8.65193H16.2399C15.4634 8.65193 15.0261 9.08599 15.0261 9.86997V17.9107C15.0261 18.6893 15.4613 19.1266 16.2399 19.1266ZM17.0914 13.0385V10.1508H19.1414C20.2196 10.1508 20.8775 10.6882 20.8775 11.5647C20.8775 12.5128 20.1064 13.0385 18.6985 13.0385H17.0914ZM17.0892 17.6004V14.4141H19.3036C20.6079 14.4141 21.364 15.0134 21.364 16.0425C21.364 17.0993 20.5524 17.6004 18.8243 17.6004H17.0892Z" fill="black"/>
</svg>
