<svg width="28" height="28" viewBox="0 0 28 28" fill="none" xmlns="http://www.w3.org/2000/svg">
<path d="M14.105 26.21C20.7369 26.21 26.2121 20.7273 26.2121 14.105C26.2121 7.47312 20.7273 2 14.0954 2C7.47523 2 2 7.47312 2 14.105C2 20.7273 7.48484 26.21 14.105 26.21ZM14.105 23.8255C8.71085 23.8255 4.39412 19.4991 4.39412 14.105C4.39412 8.71085 8.70124 4.38452 14.0954 4.38452C19.4895 4.38452 23.8276 8.71085 23.8276 14.105C23.8276 19.4991 19.4991 23.8255 14.105 23.8255Z" fill="black"/>
<path d="M14.0955 20.3009C17.4688 20.3009 20.2818 17.488 20.2818 14.1146C20.2818 10.7467 17.4656 7.93042 14.0955 7.93042C10.7221 7.93042 7.9209 10.7413 7.9209 14.1146C7.9209 17.4762 10.736 20.3009 14.0955 20.3009ZM14.0955 18.2387C11.8628 18.2387 9.98316 16.3569 9.98316 14.1146C9.98316 11.8607 11.8415 9.99057 14.0955 9.99057C16.3378 9.99057 18.21 11.8724 18.21 14.1146C18.21 16.3707 16.3516 18.2387 14.0955 18.2387Z" fill="black"/>
</svg>
