<svg width="28" height="28" viewBox="0 0 28 28" fill="none" xmlns="http://www.w3.org/2000/svg">
<path d="M14.105 26.21C20.7369 26.21 26.2121 20.7273 26.2121 14.105C26.2121 7.47312 20.7273 2 14.0954 2C7.47523 2 2 7.47312 2 14.105C2 20.7273 7.48484 26.21 14.105 26.21ZM14.105 23.8255C8.71085 23.8255 4.39412 19.4991 4.39412 14.105C4.39412 8.71085 8.70124 4.38452 14.0954 4.38452C19.4895 4.38452 23.8276 8.71085 23.8276 14.105C23.8276 19.4991 19.4991 23.8255 14.105 23.8255Z" fill="black"/>
<path d="M14.0952 19.468C14.8311 19.468 15.2469 18.9894 15.2469 18.1897V15.5319L18.4133 10.1804C18.5356 9.97834 18.591 9.76764 18.591 9.56561C18.591 8.99022 18.1635 8.55945 17.5637 8.55945C17.0586 8.55945 16.8034 8.74976 16.5193 9.30147L14.1442 13.4724H14.0654L11.702 9.30147C11.418 8.74015 11.1531 8.55945 10.6384 8.55945C10.0483 8.55945 9.60156 8.99983 9.60156 9.54639C9.60156 9.75592 9.65476 9.95912 9.7771 10.1804L12.9648 15.5511V18.1897C12.9648 18.9723 13.371 19.468 14.0952 19.468Z" fill="black"/>
</svg>
