<svg width="28" height="28" viewBox="0 0 28 28" fill="none" xmlns="http://www.w3.org/2000/svg">
<path d="M14.105 26.21C20.7369 26.21 26.2121 20.7273 26.2121 14.105C26.2121 7.47312 20.7273 2 14.0954 2C7.47523 2 2 7.47312 2 14.105C2 20.7273 7.48484 26.21 14.105 26.21Z" fill="black"/>
<path d="M10.949 19.688C10.2363 19.688 9.8374 19.19 9.8374 18.4252V9.83046C9.8374 9.0118 10.2478 8.5011 11.028 8.5011H14.4536C17.0062 8.5011 18.5838 9.86493 18.5838 12.0868C18.5838 13.591 17.6866 14.844 16.2813 15.3001L17.9868 17.9272C18.1624 18.1986 18.2411 18.4135 18.2411 18.7147C18.2411 19.2891 17.8145 19.688 17.204 19.688C16.7029 19.688 16.4167 19.4848 16.0584 18.9106L14.0863 15.6657H12.0895V18.4252C12.0895 19.2071 11.6768 19.688 10.949 19.688ZM12.0895 14.0136H14.1386C15.4525 14.0136 16.2918 13.3302 16.2918 12.1421C16.2918 10.9231 15.4417 10.213 14.177 10.213H12.0895V14.0136Z" fill="white"/>
</svg>
