<svg width="28" height="28" viewBox="0 0 28 28" fill="none" xmlns="http://www.w3.org/2000/svg">
<path d="M14.105 26.3198C20.7369 26.3198 26.2121 20.837 26.2121 14.2148C26.2121 7.58497 20.7273 2.10974 14.0954 2.10974C7.47523 2.10974 2 7.58497 2 14.2148C2 20.837 7.48484 26.3198 14.105 26.3198Z" fill="black"/>
<path d="M8.01105 16.4373L12.4885 8.64901C13.3117 7.23174 14.9406 7.27018 15.737 8.6394L20.222 16.4373C21.0632 17.896 20.3788 19.3194 18.7496 19.3194H9.493C7.85637 19.3194 7.17949 17.896 8.01105 16.4373ZM9.96338 17.0016C9.84502 17.1828 9.91323 17.348 10.1328 17.348H18.1002C18.3315 17.348 18.3901 17.1828 18.2814 17.0016L14.2998 10.0984C14.2039 9.92469 14.0174 9.91509 13.9236 10.0984L9.96338 17.0016Z" fill="white"/>
</svg>
