<svg width="28" height="28" viewBox="0 0 28 28" fill="none" xmlns="http://www.w3.org/2000/svg">
<path d="M6.78125 14.4922C8.10547 12.3711 9.3125 10.5664 10.8008 8.76172C10.8242 8.73828 10.8242 8.69141 10.8008 8.65625C10.1094 7.97656 9.47656 7.39062 8.9375 6.96875C8.12891 6.34766 6.93359 5.43359 5.98438 5.43359C5.78516 5.43359 5.67969 5.45703 5.62109 5.51562C4.53125 6.58203 3.60547 7.95312 2.97266 9.39453C2.32812 10.9531 2 12.5 2 14.1523C2 16.8477 2.82031 19.2969 4.47266 21.5C4.49609 21.5352 4.55469 21.5117 4.54297 21.4648C4.48438 21.3008 4.44922 20.9961 4.44922 20.7266C4.44922 20.1172 4.55469 19.4609 4.75391 18.8516C5.33984 17.1523 5.96094 15.793 6.78125 14.4922ZM17.4922 8.76172C18.9805 10.5664 20.1875 12.3711 21.5 14.4922C22.332 15.793 22.9531 17.1523 23.5391 18.8516C23.7383 19.4609 23.8438 20.1172 23.8438 20.7266C23.8438 20.9961 23.8086 21.3008 23.75 21.4648C23.7383 21.5117 23.7969 21.5352 23.8203 21.5C25.4727 19.2969 26.293 16.8477 26.293 14.1523C26.293 12.5 25.9648 10.9531 25.3203 9.39453C24.6875 7.95312 23.7617 6.58203 22.6719 5.51562C22.6133 5.45703 22.5078 5.43359 22.3086 5.43359C21.3594 5.43359 20.1641 6.34766 19.3555 6.96875C18.8164 7.39062 18.1836 7.97656 17.4922 8.65625C17.4688 8.69141 17.4688 8.73828 17.4922 8.76172ZM7.85938 3.75781C7.80078 3.78125 7.82422 3.875 7.89453 3.86328C8.12891 3.81641 8.42188 3.78125 8.70312 3.78125C9.72266 3.78125 10.6719 4.05078 11.8672 4.51953C12.3828 4.70703 12.8164 4.90625 13.2383 5.12891C13.6016 5.31641 13.8945 5.48047 14.0586 5.5625C14.1172 5.59766 14.1758 5.59766 14.2344 5.5625C14.3984 5.48047 14.6797 5.31641 15.0547 5.12891C15.4766 4.90625 15.9102 4.70703 16.4141 4.51953C17.6211 4.05078 18.5703 3.78125 19.5898 3.78125C19.8711 3.78125 20.1641 3.81641 20.3984 3.86328C20.4688 3.875 20.4922 3.78125 20.4336 3.75781C19.4961 3.21875 18.5469 2.78516 17.5273 2.50391C16.4961 2.16406 15.3711 2 14.1406 2C12.9219 2 11.7969 2.16406 10.7656 2.50391C9.74609 2.78516 8.78516 3.21875 7.85938 3.75781ZM5.78516 22.332C5.78516 22.707 5.90234 23 6.33594 23.4102C8.1875 25.1328 11.1289 26.293 14.1406 26.293C17.1641 26.293 20.0938 25.1328 21.957 23.4102C22.3906 23 22.5078 22.707 22.5078 22.332C22.5078 21.8867 22.3672 21.3711 22.0859 20.8086C21.5352 19.5547 20.5039 18.1133 19.5312 16.9648C17.8672 15.043 16.0742 13.1797 14.2812 11.8438C14.2227 11.7969 14.1875 11.7734 14.1406 11.7734C14.1055 11.7734 14.0703 11.7969 14.0117 11.8438C12.2188 13.1797 10.4258 15.043 8.76172 16.9648C7.78906 18.1133 6.75781 19.5547 6.20703 20.8086C5.91406 21.3711 5.78516 21.8867 5.78516 22.332Z" fill="black"/>
</svg>
