<svg width="43" height="28" viewBox="0 0 43 28" fill="none" xmlns="http://www.w3.org/2000/svg">
<path d="M27.5442 24.6638L15.0933 3.12989C14.5638 2.21161 13.8044 1.93153 12.9248 2.01356C12.1933 2.09559 11.2476 2.46731 10.3512 2.98903C7.47631 4.65661 6.32295 7.26989 3.57443 8.85356C2.37443 9.5452 1.31529 9.81473 0.784898 10.1161C0.0763859 10.5268 -0.229003 11.235 0.191229 11.9745L4.89162 20.1277C5.41896 21.0418 6.19006 21.3164 7.06216 21.2302C7.79154 21.1503 8.74685 20.7764 9.63372 20.2451C12.5182 18.5775 13.6619 15.9739 16.4104 14.3806C17.25 13.9027 18.0223 13.635 18.5308 13.4346L25.6441 25.7611C25.9493 26.296 26.6074 26.4767 27.1422 26.1694C27.6537 25.8622 27.8376 25.1848 27.5442 24.6638ZM17.3962 11.4823C16.7168 11.6827 15.9157 12.1414 15.311 12.4826C12.2419 14.2543 11.2179 16.8263 8.53545 18.3547C8.25396 18.5157 7.49529 18.9425 6.77294 18.9936L2.59824 11.7657C3.2777 11.5536 4.07879 11.1045 4.67388 10.7632C7.74302 8.98949 8.767 6.43128 11.4494 4.89331C11.7309 4.72807 12.4917 4.29377 13.2215 4.25018L17.3962 11.4823Z" fill="black"/>
<path d="M21.9087 11.9656L23.1729 14.1495L23.5809 13.4346C24.0895 13.635 24.8522 13.9027 25.7013 14.3806C28.4402 15.9739 29.5936 18.5775 32.4663 20.2451C33.3649 20.7764 34.3106 21.1503 35.04 21.2302C35.9217 21.3164 36.6832 21.0418 37.2106 20.1277L41.9206 11.9745C42.3408 11.235 42.0258 10.5268 41.3269 10.1161C40.7965 9.81473 39.7277 9.5452 38.5277 8.85356C35.7792 7.26989 34.6355 4.65661 31.7606 2.98903C30.8641 2.46731 29.9088 2.09559 29.187 2.01356C28.3074 1.93153 27.548 2.21161 27.0185 3.12989L21.9087 11.9656ZM20.2008 19.2956L18.9291 17.1021L14.5676 24.6638C14.2645 25.1848 14.4581 25.8622 14.9695 26.1694C15.5023 26.4767 16.1625 26.296 16.458 25.7611L20.2008 19.2956Z" fill="black"/>
</svg>
