<svg width="29" height="28" viewBox="0 0 29 28" fill="none" xmlns="http://www.w3.org/2000/svg">
<path d="M10.0781 3.02344C3.06 3.02344 0 6.18258 0 12.8864V21.0914C0 23.6016 1.31484 24.8972 3.84421 24.8972H24.5993C27.1287 24.8972 28.4435 23.5919 28.4435 21.0914V12.8864C28.4435 6.18258 25.3835 3.02344 18.375 3.02344H10.0781Z" fill="black"/>
<path d="M5.93883 19.3362C5.34212 19.3362 4.92189 18.9319 4.92189 18.3745C4.92189 18.0279 5.0154 17.8069 5.33134 17.3843L10.4471 10.4119V10.316H5.81344C5.25095 10.316 4.84033 9.9724 4.84033 9.40217C4.84033 8.82772 5.24462 8.47546 5.81344 8.47546H12.2867C12.8984 8.47546 13.3303 8.88725 13.3303 9.47553C13.3303 9.84443 13.2612 10.0263 12.9476 10.4156L7.81804 17.3956V17.4999H12.743C13.3118 17.4999 13.7065 17.835 13.7065 18.4148C13.7065 18.9734 13.3055 19.3362 12.743 19.3362H5.93883ZM16.3693 19.4894C15.6659 19.4894 15.2775 19.0158 15.2775 18.2604V9.76897C15.2775 8.981 15.6774 8.47546 16.4515 8.47546H19.8265C22.3348 8.47546 23.8775 9.8278 23.8775 12.0042C23.8775 13.4948 22.9908 14.7288 21.6183 15.1786L23.3028 17.7729C23.4645 18.0359 23.5411 18.2487 23.5411 18.5435C23.5411 19.1011 23.1251 19.4894 22.5336 19.4894C22.043 19.4894 21.777 19.2926 21.4271 18.7448L19.4665 15.5358H17.4802V18.2604C17.4802 19.0329 17.0876 19.4894 16.3693 19.4894ZM17.4802 13.9237H19.5103C20.8137 13.9237 21.6488 13.2466 21.6488 12.0574C21.6488 10.8469 20.8029 10.143 19.5488 10.143H17.4802V13.9237Z" fill="white"/>
</svg>
