<svg width="28" height="30" viewBox="0 0 28 30" fill="none" xmlns="http://www.w3.org/2000/svg">
<path d="M14.3921 22.214C21.9387 22.214 26.7863 18.8637 26.7863 14.1562C26.7863 9.4563 21.9291 6.10803 14.3804 6.10803C6.84757 6.10803 2 9.4563 2 14.1562C2 18.8637 6.84757 22.214 14.3921 22.214ZM14.3921 19.8841C8.461 19.8841 4.49233 17.5652 4.49233 14.1562C4.49233 10.7472 8.461 8.44004 14.3804 8.44004C20.3115 8.44004 24.294 10.7472 24.294 14.1562C24.294 17.5652 20.3253 19.8841 14.3921 19.8841ZM14.3921 27.4401C17.4106 27.4401 19.2331 26.024 19.2331 23.6306V23.223C17.7521 23.5497 16.1328 23.7211 14.3921 23.7211C12.6535 23.7211 11.0342 23.5497 9.56281 23.223V23.6306C9.56281 26.024 11.3853 27.4401 14.3921 27.4401Z" fill="black"/>
<path d="M12.4687 17.7044C12.9752 17.7044 13.2902 17.3618 13.2902 16.8075V15.1774H14.3695L15.6037 17.1823C15.8493 17.58 16.0579 17.7162 16.3973 17.7162C16.8239 17.7162 17.1644 17.4225 17.1644 16.9948C17.1644 16.7883 17.0995 16.6212 16.9793 16.4498L15.9625 14.8945C16.8286 14.5652 17.3505 13.7737 17.3505 12.8311C17.3505 11.3826 16.312 10.4845 14.6723 10.4845H12.5278C11.992 10.4845 11.6719 10.8335 11.6719 11.429V16.8075C11.6719 17.3639 11.9773 17.7044 12.4687 17.7044ZM13.2902 13.927V11.7658H14.4904C15.2496 11.7658 15.7017 12.1912 15.7017 12.8608C15.7017 13.5305 15.255 13.927 14.4712 13.927H13.2902Z" fill="black"/>
<path d="M11.3295 1.50351L13.7459 4.73273C14.0771 5.18109 14.6958 5.17898 15.027 4.73273L17.4647 1.50351C17.963 0.844452 17.6958 0 16.8099 0H11.9609C11.1218 0 10.8141 0.827342 11.3295 1.50351Z" fill="black"/>
</svg>
