<svg width="29" height="28" viewBox="0 0 29 28" fill="none" xmlns="http://www.w3.org/2000/svg">
<path d="M10.0781 3.02344C3.06 3.02344 0 6.18258 0 12.8864V21.0914C0 23.6016 1.31484 24.8972 3.84421 24.8972H24.5993C27.1287 24.8972 28.4435 23.5919 28.4435 21.0914V12.8864C28.4435 6.18258 25.3835 3.02344 18.375 3.02344H10.0781Z" fill="black"/>
<path d="M6.74486 19.3319C6.14486 19.3319 5.72252 18.9277 5.72252 18.3628C5.72252 18.0258 5.81815 17.7952 6.12447 17.3822L11.2594 10.4119V10.3097H6.6258C6.04409 10.3097 5.64307 9.96822 5.64307 9.38837C5.64307 8.82775 6.03776 8.46916 6.6258 8.46916H13.0948C13.7086 8.46916 14.131 8.88517 14.131 9.46173C14.131 9.83064 14.0576 10.0242 13.76 10.4135L8.6304 17.3956V17.4935H13.5361C14.1242 17.4935 14.5189 17.8329 14.5189 18.4031C14.5189 18.9712 14.1178 19.3319 13.5361 19.3319H6.74486ZM17.4202 19.3319C16.6704 19.3319 16.2568 18.8053 16.2568 18.0152V9.6347C16.2568 8.83502 16.6608 8.31799 17.4202 8.31799C18.1828 8.31799 18.6007 8.81791 18.6007 9.6347V17.4492H22.7693C23.3499 17.4492 23.7509 17.797 23.7509 18.382C23.7509 18.9787 23.3499 19.3319 22.7693 19.3319H17.4202Z" fill="white"/>
</svg>
