<svg width="29" height="28" viewBox="0 0 29 28" fill="none" xmlns="http://www.w3.org/2000/svg">
<path d="M10.0781 3.02344C3.06 3.02344 0 6.18258 0 12.8864V21.0914C0 23.6016 1.31484 24.8972 3.84421 24.8972H24.5993C27.1287 24.8972 28.4435 23.5919 28.4435 21.0914V12.8864C28.4435 6.18258 25.3835 3.02344 18.375 3.02344H10.0781Z" fill="black"/>
<path d="M7.78224 19.3319C7.04631 19.3319 6.64014 18.8053 6.64014 18.0152V9.6347C6.64014 8.83502 7.04631 8.31799 7.78224 8.31799C8.547 8.31799 8.96489 8.81791 8.96489 9.6347V17.4492H12.935C13.5177 17.4492 13.9283 17.797 13.9283 18.382C13.9283 18.9787 13.5273 19.3319 12.935 19.3319H7.78224ZM15.9695 19.3319C15.3746 19.3319 14.9896 18.967 14.9896 18.4137C14.9896 18.1052 15.0992 17.8362 15.3945 17.5427L19.0454 13.7885C19.7771 13.0533 20.431 12.3741 20.431 11.5753C20.431 10.6931 19.7642 10.1095 18.7583 10.1095C17.7034 10.1095 17.1594 10.8007 16.8322 11.4577C16.6086 11.7996 16.3606 12.086 15.8701 12.086C15.3181 12.086 14.9448 11.756 14.9448 11.2071C14.9448 11.0379 14.9607 10.8708 15.0139 10.6824C15.4217 9.32721 16.9578 8.31799 18.7215 8.31799C21.0041 8.31799 22.5165 9.55479 22.5165 11.401C22.5165 12.6842 21.7951 13.6315 20.6685 14.7787L18.1149 17.4073V17.4935H21.9599C22.5266 17.4935 22.9245 17.8329 22.9245 18.4031C22.9245 18.9712 22.5224 19.3319 21.9599 19.3319H15.9695Z" fill="white"/>
</svg>
