<svg width="29" height="28" viewBox="0 0 29 28" fill="none" xmlns="http://www.w3.org/2000/svg">
<path d="M10.0781 24.8972H18.375C25.3835 24.8972 28.4435 21.7359 28.4435 15.0246V6.82921C28.4435 4.32656 27.1287 3.02344 24.5993 3.02344H3.84421C1.31484 3.02344 0 4.31695 0 6.82921V15.0246C0 21.7359 3.06 24.8972 10.0781 24.8972ZM10.1182 22.5799C4.66335 22.5799 2.29592 20.2083 2.29592 15.108V7.01999C2.29592 5.89827 2.89616 5.31936 3.97733 5.31936H24.4662C25.5399 5.31936 26.1476 5.89827 26.1476 7.01999V15.108C26.1476 20.2083 23.7802 22.5799 18.3253 22.5799H10.1182Z" fill="black"/>
<path d="M9.20435 19.1212H14.3545C14.9128 19.1212 15.2937 18.784 15.2937 18.2191C15.2937 17.6564 14.9128 17.3266 14.3545 17.3266H10.3212V9.77291C10.3212 8.99432 9.92341 8.52417 9.20435 8.52417C8.48318 8.52417 8.09717 9.01143 8.09717 9.77291V17.8725C8.09717 18.6244 8.48318 19.1212 9.20435 19.1212ZM19.2581 19.3908C19.938 19.3908 20.3496 18.9649 20.3496 18.1969V9.72979C20.3496 8.97627 19.8977 8.53378 19.1691 8.53378C18.6785 8.53378 18.319 8.66362 17.7666 9.03299L15.7605 10.3846C15.4542 10.5974 15.3255 10.8091 15.3255 11.1485C15.3255 11.5687 15.6523 11.9402 16.0779 11.9402C16.2748 11.9402 16.4121 11.9146 16.6931 11.7124L18.09 10.7985H18.1763V18.1969C18.1763 18.9649 18.5836 19.3908 19.2581 19.3908Z" fill="black"/>
</svg>
