<svg width="28" height="28" viewBox="0 0 28 28" fill="none" xmlns="http://www.w3.org/2000/svg">
<path d="M14.105 26.21C20.7369 26.21 26.2121 20.7273 26.2121 14.105C26.2121 7.47312 20.7273 2 14.0954 2C7.47523 2 2 7.47312 2 14.105C2 20.7273 7.48484 26.21 14.105 26.21ZM14.105 23.8255C8.71085 23.8255 4.39412 19.4991 4.39412 14.105C4.39412 8.71085 8.70124 4.38452 14.0954 4.38452C19.4895 4.38452 23.8276 8.71085 23.8276 14.105C23.8276 19.4991 19.4991 23.8255 14.105 23.8255Z" fill="black"/>
<path d="M8.23361 16.2488C7.43392 17.6363 8.08642 19.0034 9.65181 19.0034H18.5745C20.1282 19.0034 20.7924 17.6363 19.981 16.2488L15.6619 8.74128C14.8995 7.41238 13.3343 7.38355 12.5431 8.75089L8.23361 16.2488ZM10.0915 16.7919L13.9165 10.1196C14.0082 9.95017 14.1947 9.95978 14.2864 10.1196L18.1327 16.7919C18.234 16.9592 18.1829 17.1341 17.9558 17.1341H10.2588C10.0413 17.1341 9.98274 16.9592 10.0915 16.7919Z" fill="black"/>
</svg>
