<svg width="28" height="30" viewBox="0 0 28 30" fill="none" xmlns="http://www.w3.org/2000/svg">
<path d="M14.3152 21.9194C22.006 21.9194 26.6283 18.4516 26.6283 14.1562C26.6283 9.86838 22.006 6.40479 14.3014 6.40479C6.62234 6.40479 2 9.86838 2 14.1562C2 18.4516 6.62234 21.9194 14.3152 21.9194ZM14.3152 27.4401C17.3316 27.4401 19.1562 26.024 19.1562 23.6306V23.1248C17.6539 23.4419 16.0346 23.6229 14.3152 23.6229C12.5937 23.6229 10.9766 23.4419 9.48383 23.1248V23.6306C9.48383 26.024 11.3063 27.4401 14.3152 27.4401Z" fill="black"/>
<path d="M12.3426 17.9259C11.8024 17.9259 11.4727 17.5589 11.4727 16.9612V11.2858C11.4727 10.6331 11.8193 10.2534 12.4143 10.2534H14.6829C16.4444 10.2534 17.5497 11.2099 17.5497 12.758C17.5497 13.7536 16.9917 14.5917 16.0727 14.9412L17.1478 16.5729C17.2743 16.7644 17.3414 16.942 17.3414 17.1687C17.3414 17.6271 16.9743 17.9472 16.5129 17.9472C16.1449 17.9472 15.914 17.7951 15.6515 17.3583L14.3547 15.2526H13.2297V16.9612C13.2297 17.5568 12.8861 17.9259 12.3426 17.9259ZM13.2297 13.9059H14.4691C15.2889 13.9059 15.7537 13.4913 15.7537 12.7877C15.7537 12.0841 15.2836 11.6407 14.4883 11.6407H13.2297V13.9059Z" fill="white"/>
<path d="M11.3295 1.50351L13.7459 4.73273C14.0771 5.18109 14.6958 5.17898 15.027 4.73273L17.4647 1.50351C17.963 0.844452 17.6958 0 16.8099 0H11.9609C11.1218 0 10.8141 0.827342 11.3295 1.50351Z" fill="black"/>
</svg>
