<svg width="29" height="28" viewBox="0 0 29 28" fill="none" xmlns="http://www.w3.org/2000/svg">
<path d="M10.0781 24.8972H18.375C25.3835 24.8972 28.4435 21.7359 28.4435 15.0246V6.82921C28.4435 4.32656 27.1287 3.02344 24.5993 3.02344H3.84421C1.31484 3.02344 0 4.31695 0 6.82921V15.0246C0 21.7359 3.06 24.8972 10.0781 24.8972Z" fill="black"/>
<path d="M12.0117 19.4034C11.2292 19.4034 10.8125 18.862 10.8125 18.0466V9.57321C10.8125 8.74822 11.2292 8.21643 12.0117 8.21643C12.7901 8.21643 13.2303 8.73322 13.2303 9.57321V17.4638H17.4251C18.0343 17.4638 18.4437 17.82 18.4437 18.424C18.4437 19.0396 18.0343 19.4034 17.4251 19.4034H12.0117Z" fill="white"/>
</svg>
