<svg width="28" height="28" viewBox="0 0 28 28" fill="none" xmlns="http://www.w3.org/2000/svg">
<path d="M5.14523 19.0806C7.96289 19.0806 10.2841 16.7572 10.2841 13.9396C10.2841 11.1336 7.96289 8.80811 5.14523 8.80811C2.30203 8.80811 0 11.1336 0 13.9396C0 16.7572 2.30203 19.0806 5.14523 19.0806ZM5.14312 16.9433C3.45093 16.9433 2.12553 15.6296 2.12553 13.9417C2.12553 12.2612 3.45093 10.9049 5.14312 10.9049C6.82149 10.9049 8.14899 12.2612 8.14899 13.9417C8.14899 15.6296 6.82149 16.9433 5.14312 16.9433ZM22.2117 19.0806C25.0198 19.0806 27.3431 16.7572 27.3431 13.9396C27.3431 11.1336 25.0198 8.80811 22.2117 8.80811C19.3706 8.80811 17.0569 11.1336 17.0569 13.9396C17.0569 16.7572 19.3706 19.0806 22.2117 19.0806ZM22.2096 16.9433C20.5078 16.9433 19.192 15.6296 19.192 13.9417C19.192 12.2612 20.5078 10.9049 22.2096 10.9049C23.888 10.9049 25.2059 12.2612 25.2059 13.9417C25.2059 15.6296 23.888 16.9433 22.2096 16.9433ZM13.6657 27.8865C16.4834 27.8865 18.8067 25.561 18.8067 22.7455C18.8067 19.9396 16.4834 17.6141 13.6657 17.6141C10.8342 17.6141 8.52047 19.9396 8.52047 22.7455C8.52047 25.561 10.8342 27.8865 13.6657 27.8865ZM13.6636 25.7492C11.9714 25.7492 10.6481 24.4356 10.6481 22.7476C10.6481 21.0767 11.9714 19.7108 13.6636 19.7108C15.3537 19.7108 16.6695 21.0767 16.6695 22.7476C16.6695 24.4356 15.3537 25.7492 13.6636 25.7492Z" fill="black"/>
<path d="M13.6657 10.2745C16.4834 10.2745 18.8067 7.94906 18.8067 5.1314C18.8067 2.31586 16.4834 0 13.6657 0C10.8342 0 8.52051 2.31586 8.52051 5.1314C8.52051 7.94906 10.8342 10.2745 13.6657 10.2745Z" fill="black"/>
</svg>
