<svg width="29" height="28" viewBox="0 0 29 28" fill="none" xmlns="http://www.w3.org/2000/svg">
<path d="M10.0781 24.8972H18.375C25.3835 24.8972 28.4435 21.7359 28.4435 15.0246V6.82921C28.4435 4.32656 27.1287 3.02344 24.5993 3.02344H3.84421C1.31484 3.02344 0 4.31695 0 6.82921V15.0246C0 21.7359 3.06 24.8972 10.0781 24.8972ZM10.1182 22.5799C4.66335 22.5799 2.29592 20.2083 2.29592 15.108V7.01999C2.29592 5.89827 2.89616 5.31936 3.97733 5.31936H24.4662C25.5399 5.31936 26.1476 5.89827 26.1476 7.01999V15.108C26.1476 20.2083 23.7802 22.5799 18.3253 22.5799H10.1182Z" fill="black"/>
<path d="M7.97099 19.2628C8.64786 19.2628 9.032 18.8297 9.032 18.0954V15.457H10.9522L12.8383 18.5522C13.168 19.0777 13.4394 19.2628 13.9023 19.2628C14.4716 19.2628 14.8696 18.8925 14.8696 18.3605C14.8696 18.0837 14.7951 17.8772 14.6279 17.6259L12.9946 15.12C14.3331 14.6819 15.1879 13.4916 15.1879 12.0583C15.1879 9.96701 13.6951 8.66365 11.2921 8.66365H8.03732C7.31099 8.66365 6.9292 9.14576 6.9292 9.8913V18.0954C6.9292 18.8126 7.30373 19.2628 7.97099 19.2628ZM9.032 13.9151V10.2536H11.0282C12.2451 10.2536 13.0558 10.934 13.0558 12.1073C13.0558 13.2635 12.2558 13.9151 10.9876 13.9151H9.032ZM20.5815 19.3833C21.2732 19.3833 21.6826 18.9649 21.6826 18.1873V9.74786C21.6826 8.99646 21.2308 8.54224 20.4946 8.54224C20.0019 8.54224 19.6403 8.67631 19.0996 9.05318L17.0936 10.4027C16.7894 10.608 16.6586 10.8272 16.6586 11.1686C16.6586 11.5889 16.9757 11.9486 17.4034 11.9486C17.6003 11.9486 17.7376 11.9231 18.0283 11.7325L19.4155 10.8091H19.5018V18.1873C19.5018 18.9649 19.9187 19.3833 20.5815 19.3833Z" fill="black"/>
</svg>
