<svg width="28" height="28" viewBox="0 0 28 28" fill="none" xmlns="http://www.w3.org/2000/svg">
<path d="M6.84421 25.155H21.0295C23.5685 25.155 24.8737 23.8594 24.8737 21.3588V7.08702C24.8737 4.58648 23.5685 3.28125 21.0295 3.28125H6.84421C4.31484 3.28125 3 4.58648 3 7.08702V21.3588C3 23.8594 4.31484 25.155 6.84421 25.155ZM6.97733 22.8591C5.88772 22.8591 5.29592 22.297 5.29592 21.1563V7.28952C5.29592 6.14881 5.88772 5.57717 6.97733 5.57717H20.8964C21.9764 5.57717 22.5778 6.14881 22.5778 7.28952V21.1563C22.5778 22.297 21.9764 22.8591 20.8964 22.8591H6.97733Z" fill="black"/>
<path d="M11.4283 19.6065H18.9906C20.0666 19.6065 20.6183 19.074 20.6183 17.998V12.6613C20.6183 11.6142 20.0666 11.0624 18.9906 11.0624H11.4283C10.3522 11.0624 9.80052 11.6142 9.80052 12.6613V17.998C9.80052 19.074 10.3522 19.6065 11.4283 19.6065ZM9.09013 12.5889C9.09013 11.1231 9.87084 10.3328 11.3537 10.3328L18.0655 10.3424V10.2346C18.0655 9.19563 17.5234 8.64392 16.4474 8.64392H8.87544C7.80904 8.64392 7.25732 9.18602 7.25732 10.262V15.5582C7.25732 16.615 7.80904 17.1571 8.86279 17.1571H9.09013V12.5889Z" fill="black"/>
</svg>
