<svg width="28" height="28" viewBox="0 0 28 28" fill="none" xmlns="http://www.w3.org/2000/svg">
<path d="M9.32959 6.51742C9.32959 7.81468 9.46717 8.24382 10.3222 9.09671L12.5977 11.3723C13.4602 12.2348 14.6569 12.2348 15.5215 11.3723L17.7971 9.09671C18.65 8.24382 18.7779 7.81468 18.7779 6.51742V3.57062C18.7779 1.98203 17.896 1 16.4799 1H11.6297C10.2115 1 9.32959 1.98203 9.32959 3.57062V6.51742ZM11.2775 6.54484V3.73983C11.2775 3.24202 11.5749 2.94038 12.0802 2.94038H16.039C16.5422 2.94038 16.8322 3.24202 16.8322 3.73983V6.54484C16.8322 7.08133 16.7576 7.37336 16.3972 7.73383L14.31 9.82094C14.1385 9.9925 13.969 9.9925 13.7975 9.82094L11.72 7.73383C11.3574 7.37125 11.2775 7.07922 11.2775 6.54484ZM21.5839 9.32968C20.2791 9.32968 19.85 9.45765 18.9971 10.3105L16.7194 12.5861C15.8569 13.4507 15.8569 14.6474 16.7194 15.5099L18.9971 17.7876C19.85 18.6405 20.2791 18.778 21.5839 18.778H24.5211C26.1118 18.778 27.0938 17.8961 27.0938 16.4779V11.6202C27.0938 10.2116 26.1118 9.32968 24.5211 9.32968H21.5839ZM21.5564 11.2755H24.354C24.8593 11.2755 25.1513 11.5654 25.1513 12.0686V16.0274C25.1513 16.5327 24.8593 16.8302 24.354 16.8302H21.5564C21.0104 16.8302 20.7204 16.7481 20.36 16.3877L18.2728 14.3101C18.1013 14.129 18.1109 13.9595 18.2825 13.788L20.36 11.7105C20.7225 11.3479 21.0125 11.2755 21.5564 11.2755ZM18.7779 21.5744C18.7779 20.2771 18.6404 19.8501 17.7875 18.9951L15.5119 16.7099C14.6473 15.857 13.4506 15.857 12.5881 16.7099L10.3126 18.9951C9.45756 19.8501 9.32959 20.2771 9.32959 21.5744V24.5212C9.32959 26.1119 10.2115 27.0843 11.6297 27.0843H16.4799C17.896 27.0843 18.7779 26.1119 18.7779 24.5212V21.5744ZM16.8322 21.5469V24.3541C16.8322 24.8498 16.5326 25.1418 16.0294 25.1418H12.0706C11.5653 25.1418 11.2775 24.8498 11.2775 24.3541V21.5469C11.2775 21.0008 11.3499 20.7109 11.7104 20.3601L13.7975 18.2708C13.969 18.0918 14.1385 18.1014 14.31 18.2708L16.3972 20.3601C16.7501 20.713 16.8322 21.003 16.8322 21.5469Z" fill="black"/>
<path d="M6.50992 18.7684C7.81468 18.7684 8.24382 18.6405 9.09671 17.7876L11.3723 15.5099C12.2369 14.6474 12.2369 13.4507 11.3723 12.5861L9.09671 10.3105C8.24382 9.45765 7.81468 9.32007 6.50992 9.32007H3.57273C1.98203 9.32007 1 10.202 1 11.6202V16.4779C1 17.8865 1.98203 18.7684 3.57273 18.7684H6.50992Z" fill="black"/>
</svg>
