<svg width="28" height="30" viewBox="0 0 28 30" fill="none" xmlns="http://www.w3.org/2000/svg">
<path d="M14.3152 21.9194C22.006 21.9194 26.6283 18.4516 26.6283 14.1562C26.6283 9.86838 22.006 6.40479 14.3014 6.40479C6.62234 6.40479 2 9.86838 2 14.1562C2 18.4516 6.62234 21.9194 14.3152 21.9194ZM14.3152 27.4401C17.3316 27.4401 19.1562 26.024 19.1562 23.6306V23.1248C17.6539 23.4419 16.0346 23.6229 14.3152 23.6229C12.5937 23.6229 10.9766 23.4419 9.48383 23.1248V23.6306C9.48383 26.024 11.3063 27.4401 14.3152 27.4401Z" fill="black"/>
<path d="M12.7351 18.048C12.0779 18.048 11.6631 17.5821 11.6631 16.8633V11.0095C11.6631 10.2886 12.0875 9.83435 12.7351 9.83435C13.404 9.83435 13.8167 10.2832 13.8167 11.0095V16.2309H16.489C17.0506 16.2309 17.4294 16.5874 17.4294 17.1384C17.4294 17.6819 17.0506 18.048 16.489 18.048H12.7351Z" fill="white"/>
<path d="M11.3295 1.50351L13.7459 4.73273C14.0771 5.18109 14.6958 5.17898 15.027 4.73273L17.4647 1.50351C17.963 0.844452 17.6958 0 16.8099 0H11.9609C11.1218 0 10.8141 0.827342 11.3295 1.50351Z" fill="black"/>
</svg>
