<svg width="28" height="28" viewBox="0 0 28 28" fill="none" xmlns="http://www.w3.org/2000/svg">
<path d="M14.105 26.21C20.7369 26.21 26.2121 20.7273 26.2121 14.105C26.2121 7.47312 20.7273 2 14.0954 2C7.47523 2 2 7.47312 2 14.105C2 20.7273 7.48484 26.21 14.105 26.21ZM14.105 23.8255C8.71085 23.8255 4.39412 19.4991 4.39412 14.105C4.39412 8.71085 8.70124 4.38452 14.0954 4.38452C19.4895 4.38452 23.8276 8.71085 23.8276 14.105C23.8276 19.4991 19.4991 23.8255 14.105 23.8255Z" fill="black"/>
<path d="M10.2426 19.0283C10.5522 19.0283 10.8119 18.9144 11.013 18.7037L14.0953 15.6139L17.201 18.7037C17.4021 18.9048 17.6522 19.0283 17.9618 19.0283C18.547 19.0283 19.0174 18.5579 19.0174 17.9609C19.0174 17.6682 18.9089 17.4256 18.7003 17.217L15.6021 14.1167L18.7099 10.9972C18.9281 10.779 19.027 10.546 19.027 10.2629C19.027 9.67556 18.5566 9.20728 17.9714 9.20728C17.6831 9.20728 17.4501 9.30947 17.2298 9.52978L14.0953 12.6334L10.9938 9.5415C10.7927 9.32868 10.5522 9.2265 10.2426 9.2265C9.6574 9.2265 9.18701 9.68516 9.18701 10.2725C9.18701 10.5556 9.30514 10.8099 9.50412 11.0068L12.6044 14.1167L9.50412 17.2266C9.30514 17.4256 9.18701 17.6799 9.18701 17.9609C9.18701 18.5579 9.6574 19.0283 10.2426 19.0283Z" fill="black"/>
</svg>
