<svg width="28" height="28" viewBox="0 0 28 28" fill="none" xmlns="http://www.w3.org/2000/svg">
<path d="M14.105 26.21C20.7369 26.21 26.2121 20.7273 26.2121 14.105C26.2121 7.47312 20.7273 2 14.0954 2C7.47523 2 2 7.47312 2 14.105C2 20.7273 7.48484 26.21 14.105 26.21ZM14.105 23.8255C8.71085 23.8255 4.39412 19.4991 4.39412 14.105C4.39412 8.71085 8.70124 4.38452 14.0954 4.38452C19.4895 4.38452 23.8276 8.71085 23.8276 14.105C23.8276 19.4991 19.4991 23.8255 14.105 23.8255Z" fill="black"/>
<path d="M16.6377 18.901C16.8997 18.77 16.9742 18.443 16.8294 18.2023L11.8904 9.66265C11.6539 9.24405 11.2981 9.14819 10.9348 9.14819C10.6109 9.14819 10.2284 9.33569 9.87358 9.52858C8.67381 10.2329 8.26037 11.2388 7.16912 11.8569C6.68748 12.1393 6.27615 12.2544 6.05772 12.3737C5.75842 12.5398 5.59436 12.8806 5.79029 13.2331L7.62639 16.4023C7.83733 16.7539 8.09725 16.9318 8.50951 16.9318C8.93139 16.9318 9.32139 16.7347 9.65702 16.5301C10.8664 15.8375 11.2915 14.806 12.3732 14.2018C12.661 14.0227 12.9254 13.9332 13.1396 13.8437L15.9507 18.7114C16.1052 18.9734 16.397 19.0501 16.6377 18.901ZM19.6712 16.9318C20.0835 16.9318 20.3434 16.7539 20.5447 16.4023L22.3883 13.2331C22.5864 12.8806 22.4202 12.5494 22.1209 12.3737C21.9046 12.2544 21.4932 12.1393 21.0095 11.8569C19.9182 11.2388 19.4952 10.2329 18.305 9.52858C17.9502 9.33569 17.5581 9.14819 17.2363 9.14819C16.873 9.14819 16.5268 9.24405 16.2882 9.67226L14.582 12.6191L15.3784 13.9862C16.6543 14.5039 17.3507 15.8663 18.5216 16.5301C18.8476 16.7347 19.2493 16.9318 19.6712 16.9318ZM11.5334 18.901C11.772 19.0597 12.0756 18.9734 12.23 18.7114L13.6084 16.3203L13.0194 15.316L11.3513 18.2023C11.2065 18.443 11.2789 18.77 11.5334 18.901Z" fill="black"/>
</svg>
