<svg width="29" height="28" viewBox="0 0 29 28" fill="none" xmlns="http://www.w3.org/2000/svg">
<path d="M10.0781 3.02344C3.06 3.02344 0 6.18258 0 12.8864V21.0914C0 23.6016 1.31484 24.8972 3.84421 24.8972H24.5993C27.1287 24.8972 28.4435 23.5919 28.4435 21.0914V12.8864C28.4435 6.18258 25.3835 3.02344 18.375 3.02344H10.0781ZM10.1182 5.33858H18.3253C23.7802 5.33858 26.1476 7.70061 26.1476 12.8105V20.8985C26.1476 22.0202 25.5399 22.6013 24.4662 22.6013H3.97733C2.89616 22.6013 2.29592 22.0202 2.29592 20.8985V12.8105C2.29592 7.70061 4.66335 5.33858 10.1182 5.33858Z" fill="black"/>
<path d="M8.03718 19.132H12.9985C13.5568 19.132 13.9376 18.7969 13.9376 18.232C13.9376 17.6672 13.5471 17.3395 12.9985 17.3395H9.16147V9.78585C9.16147 9.00726 8.76373 8.53711 8.03718 8.53711C7.32351 8.53711 6.9375 9.02437 6.9375 9.78585V17.8833C6.9375 18.6373 7.32351 19.132 8.03718 19.132ZM15.9054 19.132H21.6725C22.2127 19.132 22.5968 18.7894 22.5968 18.251C22.5968 17.7031 22.2169 17.3817 21.6725 17.3817H17.9489V17.2955L20.4204 14.7469C21.5089 13.6453 22.2047 12.7352 22.2047 11.4956C22.2047 9.7207 20.7497 8.53711 18.5564 8.53711C16.8586 8.53711 15.38 9.50695 14.9902 10.8068C14.9349 10.991 14.9211 11.1464 14.9211 11.3135C14.9211 11.838 15.2764 12.1563 15.806 12.1563C16.2764 12.1563 16.5106 11.8837 16.7224 11.5535C17.0358 10.9125 17.5681 10.2426 18.5878 10.2426C19.5704 10.2426 20.2137 10.807 20.2137 11.6637C20.2137 12.439 19.5832 13.0927 18.8813 13.8002L15.3507 17.4309C15.0755 17.7063 14.9637 17.9712 14.9637 18.2616C14.9637 18.783 15.3328 19.132 15.9054 19.132Z" fill="black"/>
</svg>
