<svg width="29" height="28" viewBox="0 0 29 28" fill="none" xmlns="http://www.w3.org/2000/svg">
<path d="M10.0781 3.02344C3.06 3.02344 0 6.18258 0 12.8864V21.0914C0 23.6016 1.31484 24.8972 3.84421 24.8972H24.5993C27.1287 24.8972 28.4435 23.5919 28.4435 21.0914V12.8864C28.4435 6.18258 25.3835 3.02344 18.375 3.02344H10.0781Z" fill="black"/>
<path d="M7.88935 19.3341C7.13419 19.3341 6.72803 18.8128 6.72803 18.027V9.64426C6.72803 8.84458 7.13419 8.32544 7.88935 8.32544C8.6445 8.32544 9.06238 8.81997 9.06238 9.64426V17.4588H13.2427C13.8115 17.4588 14.2221 17.797 14.2221 18.3874C14.2221 18.9809 13.8211 19.3341 13.2427 19.3341H7.88935ZM18.3467 19.4894C17.599 19.4894 17.1907 18.9703 17.1907 18.1685V10.2991H14.5315C13.9606 10.2991 13.5701 9.94379 13.5701 9.37473C13.5701 8.77895 13.9606 8.44286 14.5315 8.44286H22.1982C22.7766 8.44286 23.1671 8.77895 23.1671 9.37473C23.1671 9.94379 22.7766 10.2991 22.1982 10.2991H19.5272V18.1685C19.5272 18.9949 19.1093 19.4894 18.3467 19.4894Z" fill="white"/>
</svg>
