<svg width="28" height="28" viewBox="0 0 28 28" fill="none" xmlns="http://www.w3.org/2000/svg">
<path d="M14.105 26.21C20.7369 26.21 26.2121 20.7273 26.2121 14.105C26.2121 7.47312 20.7273 2 14.0954 2C7.47523 2 2 7.47312 2 14.105C2 20.7273 7.48484 26.21 14.105 26.21ZM14.105 23.8255C8.71085 23.8255 4.39412 19.4991 4.39412 14.105C4.39412 8.71085 8.70124 4.38452 14.0954 4.38452C19.4895 4.38452 23.8276 8.71085 23.8276 14.105C23.8276 19.4991 19.4991 23.8255 14.105 23.8255Z" fill="black"/>
<path d="M8.54037 11.1476H19.6908C20.2676 11.1476 20.6826 10.7815 20.6826 10.2249C20.6826 9.67576 20.2676 9.30756 19.6908 9.30756H8.54037C7.95186 9.30756 7.54639 9.67576 7.54639 10.2249C7.54639 10.7815 7.95186 11.1476 8.54037 11.1476ZM8.54037 15.016H19.6908C20.2676 15.016 20.6826 14.6499 20.6826 14.0933C20.6826 13.5441 20.2676 13.1759 19.6908 13.1759H8.54037C7.95186 13.1759 7.54639 13.5441 7.54639 14.0933C7.54639 14.6499 7.95186 15.016 8.54037 15.016ZM8.54037 18.894H19.6908C20.2676 18.894 20.6826 18.5183 20.6826 17.9712C20.6826 17.4221 20.2676 17.0539 19.6908 17.0539H8.54037C7.95186 17.0539 7.54639 17.4221 7.54639 17.9712C7.54639 18.5183 7.95186 18.894 8.54037 18.894Z" fill="black"/>
</svg>
