<svg width="28" height="28" viewBox="0 0 28 28" fill="none" xmlns="http://www.w3.org/2000/svg">
<path d="M14.105 26.21C20.7369 26.21 26.2121 20.7273 26.2121 14.105C26.2121 7.47312 20.7273 2 14.0954 2C7.47523 2 2 7.47312 2 14.105C2 20.7273 7.48484 26.21 14.105 26.21Z" fill="black"/>
<path d="M14.1051 20.5445C10.6148 20.5445 7.68701 17.6071 7.68701 14.1147C7.68701 10.6105 10.6031 7.68481 14.1051 7.68481C17.6038 7.68481 20.5349 10.6159 20.5349 14.1147C20.5349 17.6188 17.6092 20.5445 14.1051 20.5445ZM14.1051 18.3825C16.4378 18.3825 18.3632 16.4453 18.3632 14.1147C18.3632 11.7957 16.424 9.84902 14.1051 9.84902C11.7745 9.84902 9.84911 11.784 9.84911 14.1147C9.84911 16.4336 11.7958 18.3825 14.1051 18.3825Z" fill="white"/>
</svg>
