<svg width="28" height="28" viewBox="0 0 28 28" fill="none" xmlns="http://www.w3.org/2000/svg">
<path d="M14.105 26.21C20.7369 26.21 26.2121 20.7273 26.2121 14.105C26.2121 7.47312 20.7273 2 14.0954 2C7.47523 2 2 7.47312 2 14.105C2 20.7273 7.48484 26.21 14.105 26.21ZM14.105 23.8255C8.71085 23.8255 4.39412 19.4991 4.39412 14.105C4.39412 8.71085 8.70124 4.38452 14.0954 4.38452C19.4895 4.38452 23.8276 8.71085 23.8276 14.105C23.8276 19.4991 19.4991 23.8255 14.105 23.8255Z" fill="black"/>
<path d="M10.6888 19.468C11.1313 19.468 11.3664 19.3137 11.7217 18.8129L14.0315 15.4798H14.0889L16.386 18.8129C16.7212 19.3095 16.9722 19.468 17.4093 19.468C18.021 19.468 18.468 19.0658 18.468 18.4838C18.468 18.2094 18.3829 17.9956 18.1905 17.7458L15.441 14.011L18.2097 10.2624C18.4117 10.0029 18.4872 9.77959 18.4872 9.51686C18.4872 8.97335 18.0499 8.55945 17.467 8.55945C17.0299 8.55945 16.7596 8.7296 16.4554 9.20702L14.2277 12.538H14.1585L11.8776 9.19741C11.5532 8.72327 11.2989 8.55945 10.8372 8.55945C10.2447 8.55945 9.78603 9.00218 9.78603 9.5553C9.78603 9.84686 9.86361 10.051 10.0849 10.351L12.7244 13.963L9.9365 17.7842C9.7558 18.0458 9.67822 18.2499 9.67822 18.5223C9.67822 19.0658 10.106 19.468 10.6888 19.468Z" fill="black"/>
</svg>
