<svg width="34" height="31" viewBox="0 0 34 31" fill="none" xmlns="http://www.w3.org/2000/svg">
<path d="M18.0759 0C11.4576 0 5.8258 4.25906 3.77783 10.182C4.544 10.0334 5.3015 10.2239 5.86447 10.6931C7.6729 5.69367 12.4535 2.12296 18.0759 2.12296C25.2583 2.12296 31.0856 7.95022 31.0856 15.1326C31.0856 22.313 25.2583 28.1402 18.0759 28.1402C12.4631 28.1402 7.68251 24.5812 5.86447 19.5914C5.31111 20.051 4.55361 20.2533 3.78744 20.1047C5.84713 26.0158 11.4693 30.2653 18.0759 30.2653C26.4342 30.2653 33.2085 23.4888 33.2085 15.1326C33.2085 6.77648 26.4342 0 18.0759 0Z" fill="black"/>
<path d="M18.0758 25.5208C23.81 25.5208 28.4736 20.8669 28.4736 15.1326C28.4736 9.39845 23.81 4.73486 18.0758 4.73486C12.3416 4.73486 7.68008 9.39845 7.68008 15.1326C7.68008 20.8669 12.3416 25.5208 18.0758 25.5208ZM3.5668 12.0698L0.335479 14.4937C-0.11288 14.8249 -0.110771 15.4458 0.335479 15.7769L3.5668 18.2051C4.22375 18.7033 5.06821 18.4362 5.06821 17.5598V12.7109C5.06821 11.8601 4.24086 11.5544 3.5668 12.0698ZM15.9704 20.2887C15.2293 20.2887 14.8285 19.7749 14.8285 18.9935V10.9422C14.8285 10.1587 15.2293 9.65462 15.9704 9.65462C16.7073 9.65462 17.1198 10.1533 17.1198 10.9422V18.4383H21.1184C21.6882 18.4383 22.0838 18.7807 22.0838 19.3528C22.0838 19.9409 21.6882 20.2887 21.1184 20.2887H15.9704Z" fill="black"/>
</svg>
