<svg width="31" height="34" viewBox="0 0 31 34" fill="none" xmlns="http://www.w3.org/2000/svg">
<path d="M15.1326 33.2084C23.4888 33.2084 30.2728 26.4319 30.2728 18.0758C30.2728 11.4692 26.0254 5.83531 20.1047 3.78523C20.2533 4.5439 20.0606 5.3089 19.5914 5.86226C24.5791 7.68241 28.1498 12.4609 28.1498 18.0758C28.1498 25.2561 22.313 31.0834 15.1326 31.0834C7.95022 31.0834 2.12296 25.2561 2.12296 18.0758C2.12296 12.4512 5.70327 7.6728 10.691 5.86226C10.2314 5.29929 10.0334 4.53218 10.182 3.77563C4.25906 5.81398 0 11.4554 0 18.0758C0 26.4319 6.77648 33.2084 15.1326 33.2084Z" fill="black"/>
<path d="M15.1328 28.464C20.8767 28.464 25.5285 23.81 25.5285 18.0758C25.5285 12.3416 20.8767 7.67797 15.1328 7.67797C9.39861 7.67797 4.74463 12.3416 4.74463 18.0758C4.74463 23.81 9.39861 28.464 15.1328 28.464ZM15.1328 26.2419C10.6251 26.2419 6.96672 22.5835 6.96672 18.0758C6.96672 13.568 10.6251 9.90007 15.1328 9.90007C19.6502 9.90007 23.3064 13.568 23.3064 18.0758C23.3064 22.5835 19.6502 26.2419 15.1328 26.2419ZM12.0796 3.56469C11.5739 4.24086 11.8699 5.0661 12.7207 5.0661H17.56C18.446 5.0661 18.7132 4.22375 18.2149 3.56469L15.7868 0.335479C15.446 -0.110771 14.8251 -0.11288 14.4939 0.335479L12.0796 3.56469ZM12.3126 23.0848C12.9576 23.0848 13.3183 22.6698 13.3183 21.9845V19.4666H15.1394L16.9338 22.4061C17.2401 22.9114 17.4998 23.0848 17.9329 23.0848C18.4746 23.0848 18.847 22.738 18.847 22.2378C18.847 21.9727 18.7821 21.7684 18.6267 21.5427L17.0732 19.1476C18.3414 18.7351 19.1514 17.6129 19.1514 16.2617C19.1514 14.2726 17.7407 13.0395 15.4516 13.0395H12.3843C11.6899 13.0395 11.3261 13.4919 11.3261 14.2055V21.9845C11.3261 22.6527 11.673 23.0848 12.3126 23.0848ZM13.3183 18.0097V14.5466H15.2111C16.364 14.5466 17.1321 15.1918 17.1321 16.3107C17.1321 17.3912 16.3769 18.0097 15.1727 18.0097H13.3183Z" fill="black"/>
</svg>
