<svg width="28" height="28" viewBox="0 0 28 28" fill="none" xmlns="http://www.w3.org/2000/svg">
<path d="M14.105 26.21C20.7369 26.21 26.2121 20.7273 26.2121 14.105C26.2121 7.47312 20.7273 2 14.0954 2C7.47523 2 2 7.47312 2 14.105C2 20.7273 7.48484 26.21 14.105 26.21Z" fill="black"/>
<path d="M11.8843 19.5209C11.1114 19.5209 10.6851 18.9891 10.6851 18.1738V9.69076C10.6851 8.87327 11.1114 8.33398 11.8843 8.33398C12.6723 8.33398 13.1028 8.86038 13.1028 9.69076V17.5813H17.3073C17.9068 17.5813 18.3163 17.9471 18.3163 18.549C18.3163 19.1572 17.9068 19.5209 17.3073 19.5209H11.8843Z" fill="white"/>
</svg>
