<svg width="35" height="28" viewBox="0 0 35 28" fill="none" xmlns="http://www.w3.org/2000/svg">
<path d="M0 19.9821C0 22.8276 1.8614 24.6173 4.57664 24.6173C6.10264 24.6173 7.4946 23.9702 8.53803 22.7473L10.6212 20.3158C10.9216 19.9715 11.231 19.8063 11.5931 19.8063H22.7072C23.0693 19.8063 23.3787 19.9715 23.6791 20.3158L25.7644 22.7473C26.8078 23.9681 28.1976 24.6173 29.7237 24.6173C32.4389 24.6173 34.3003 22.8276 34.3003 19.9821C34.3003 18.7554 34.035 17.3634 33.5695 15.8222C32.8483 13.4051 31.5923 10.1271 30.3991 7.60432C29.3829 5.48018 28.8293 4.4412 26.2605 3.85972C24.0089 3.34527 20.9166 3.00964 17.156 3.00964C13.3934 3.00964 10.2914 3.34527 8.03976 3.85972C5.47101 4.4412 4.91742 5.48018 3.90328 7.60432C2.71008 10.1271 1.45195 13.4051 0.73289 15.8222C0.267422 17.3634 0 18.7554 0 19.9821ZM2.1642 19.9723C2.1642 19.2551 2.32194 18.3961 2.68639 17.1546C3.47788 14.4382 4.83303 10.946 6.01452 8.37307C6.5803 7.13814 6.89249 6.43759 8.29358 6.11134C10.4421 5.599 13.4634 5.27181 17.156 5.27181C20.839 5.27181 23.8582 5.599 26.0067 6.11134C27.4078 6.43759 27.7104 7.13814 28.2858 8.37307C29.4844 10.946 30.7936 14.4478 31.6139 17.1546C31.988 18.3961 32.1382 19.2551 32.1382 19.9723C32.1382 21.484 31.0753 22.4191 29.6712 22.4191C28.8269 22.4191 27.9914 21.982 27.3223 21.1964L24.9862 18.5236C24.4153 17.8608 23.9487 17.5441 22.92 17.5441H11.3803C10.3537 17.5441 9.88499 17.8608 9.31405 18.5236L6.97804 21.1964C6.31312 21.9841 5.47335 22.4191 4.62913 22.4191C3.22499 22.4191 2.1642 21.484 2.1642 19.9723Z" fill="black"/>
<path d="M7.58984 11.5224C7.58984 12.1761 7.9932 12.5848 8.65109 12.5848H10.6318V14.4985C10.6318 15.1531 11.0181 15.5703 11.661 15.5703C12.2922 15.5703 12.688 15.1531 12.688 14.4985V12.5848H14.5461C15.2551 12.5848 15.6819 12.1761 15.6819 11.5224C15.6819 10.8879 15.2551 10.4909 14.5461 10.4909H12.688V8.57513C12.688 7.92263 12.2922 7.51294 11.661 7.51294C11.0181 7.51294 10.6318 7.92263 10.6318 8.57513V10.4909H8.65109C7.9932 10.4909 7.58984 10.8879 7.58984 11.5224ZM24.467 11.408C25.4511 11.408 26.1988 10.6625 26.1988 9.68794C26.1988 8.70169 25.4511 7.94443 24.467 7.94443C23.5021 7.94443 22.7331 8.70169 22.7331 9.68794C22.7331 10.6625 23.5021 11.408 24.467 11.408ZM20.9879 14.9328C21.9646 14.9328 22.7218 14.1756 22.7218 13.2031C22.7218 12.2168 21.9646 11.4596 20.9879 11.4596C20.0251 11.4596 19.2561 12.2168 19.2561 13.2031C19.2561 14.1756 20.0251 14.9328 20.9879 14.9328Z" fill="black"/>
</svg>
