<svg width="29" height="28" viewBox="0 0 29 28" fill="none" xmlns="http://www.w3.org/2000/svg">
<path d="M10.0781 24.8972H18.375C25.3835 24.8972 28.4435 21.7359 28.4435 15.0246V6.82921C28.4435 4.32656 27.1287 3.02344 24.5993 3.02344H3.84421C1.31484 3.02344 0 4.31695 0 6.82921V15.0246C0 21.7359 3.06 24.8972 10.0781 24.8972Z" fill="black"/>
<path d="M6.25658 19.4744C5.56283 19.4744 5.18408 19.0008 5.18408 18.2454V9.75393C5.18408 8.96596 5.5722 8.46042 6.33673 8.46042H9.71384C12.22 8.46042 13.784 9.81276 13.784 11.9913C13.784 13.4798 12.8781 14.7138 11.5035 15.1636L13.1901 17.7579C13.3614 18.023 13.4401 18.2337 13.4401 18.5285C13.4401 19.0861 13.0124 19.4744 12.4208 19.4744C11.9399 19.4744 11.6601 19.2776 11.3144 18.7298L9.35385 15.5208H7.36751V18.2454C7.36751 19.0179 6.97282 19.4744 6.25658 19.4744ZM7.36751 13.9087H9.39556C10.7127 13.9087 11.5361 13.2316 11.5361 12.0424C11.5361 10.8318 10.6977 10.128 9.43611 10.128H7.36751V13.9087ZM16.7298 19.3329C15.9109 19.3329 15.4597 18.8754 15.4597 18.0586V9.73471C15.4597 8.90831 15.9151 8.45081 16.7298 8.45081H20.286C22.3518 8.45081 23.6783 9.50151 23.6783 11.1328C23.6783 12.3292 22.9253 13.2584 21.7215 13.5302V13.6048C23.3207 13.8136 24.2861 14.8184 24.2861 16.2886C24.2861 18.1385 22.7144 19.3329 20.3047 19.3329H16.7298ZM17.627 13.0012H19.2852C20.7421 13.0012 21.5345 12.4617 21.5345 11.4742C21.5345 10.5763 20.8553 10.0251 19.7378 10.0251H17.627V13.0012ZM17.6249 17.7345H19.4111C21.1956 17.7345 22.0445 17.2216 22.0445 16.1255C22.0445 15.0612 21.2512 14.4384 19.9192 14.4384H17.6249V17.7345Z" fill="white"/>
</svg>
