<svg width="28" height="28" viewBox="0 0 28 28" fill="none" xmlns="http://www.w3.org/2000/svg">
<path d="M13.6657 10.2745C16.4834 10.2745 18.8067 7.94906 18.8067 5.1314C18.8067 2.31586 16.4834 0 13.6657 0C10.8342 0 8.52051 2.31586 8.52051 5.1314C8.52051 7.94906 10.8342 10.2745 13.6657 10.2745ZM13.6636 8.12556C11.9714 8.12556 10.6481 6.81188 10.6481 5.13351C10.6481 3.45515 11.9714 2.09671 13.6636 2.09671C15.3537 2.09671 16.6695 3.45515 16.6695 5.13351C16.6695 6.81188 15.3537 8.12556 13.6636 8.12556ZM22.2117 19.0805C25.0198 19.0805 27.3431 16.7571 27.3431 13.9395C27.3431 11.1335 25.0198 8.80805 22.2117 8.80805C19.3706 8.80805 17.0569 11.1335 17.0569 13.9395C17.0569 16.7571 19.3706 19.0805 22.2117 19.0805ZM22.2096 16.9432C20.5078 16.9432 19.192 15.6295 19.192 13.9416C19.192 12.2611 20.5078 10.9048 22.2096 10.9048C23.888 10.9048 25.2059 12.2611 25.2059 13.9416C25.2059 15.6295 23.888 16.9432 22.2096 16.9432ZM13.6657 27.8864C16.4834 27.8864 18.8067 25.5609 18.8067 22.7454C18.8067 19.9395 16.4834 17.614 13.6657 17.614C10.8342 17.614 8.52051 19.9395 8.52051 22.7454C8.52051 25.5609 10.8342 27.8864 13.6657 27.8864ZM13.6636 25.7491C11.9714 25.7491 10.6481 24.4355 10.6481 22.7475C10.6481 21.0766 11.9714 19.7107 13.6636 19.7107C15.3537 19.7107 16.6695 21.0766 16.6695 22.7475C16.6695 24.4355 15.3537 25.7491 13.6636 25.7491Z" fill="black"/>
<path d="M5.14523 19.0806C7.96289 19.0806 10.2841 16.7572 10.2841 13.9396C10.2841 11.1336 7.96289 8.80811 5.14523 8.80811C2.30203 8.80811 0 11.1336 0 13.9396C0 16.7572 2.30203 19.0806 5.14523 19.0806Z" fill="black"/>
</svg>
