<svg width="28" height="28" viewBox="0 0 28 28" fill="none" xmlns="http://www.w3.org/2000/svg">
<path d="M6.50992 18.7684C7.81468 18.7684 8.24382 18.6405 9.09671 17.7876L11.3723 15.5099C12.2369 14.6474 12.2369 13.4507 11.3723 12.5861L9.09671 10.3105C8.24382 9.45765 7.81468 9.32007 6.50992 9.32007H3.57273C1.98203 9.32007 1 10.202 1 11.6202V16.4779C1 17.8865 1.98203 18.7684 3.57273 18.7684H6.50992ZM6.53734 16.8205H3.73983C3.23241 16.8205 2.94249 16.5327 2.94249 16.0274V12.0686C2.94249 11.5654 3.23241 11.2658 3.73983 11.2658H6.53734C7.08343 11.2658 7.37336 11.35 7.73383 11.7105L9.82094 13.788C9.9925 13.9691 9.98289 14.1386 9.81133 14.3101L7.73383 16.3877C7.37125 16.7502 7.07922 16.8205 6.53734 16.8205ZM9.32968 6.51742C9.32968 7.81468 9.46726 8.24382 10.3223 9.09671L12.5978 11.3723C13.4603 12.2348 14.657 12.2348 15.5216 11.3723L17.7972 9.09671C18.6501 8.24382 18.778 7.81468 18.778 6.51742V3.57062C18.778 1.98203 17.8961 1 16.48 1H11.6298C10.2116 1 9.32968 1.98203 9.32968 3.57062V6.51742ZM11.2776 6.54484V3.73983C11.2776 3.24202 11.575 2.94038 12.0803 2.94038H16.0391C16.5423 2.94038 16.8323 3.24202 16.8323 3.73983V6.54484C16.8323 7.08133 16.7577 7.37336 16.3973 7.73383L14.3101 9.82094C14.1386 9.9925 13.9691 9.9925 13.7976 9.82094L11.7201 7.73383C11.3575 7.37125 11.2776 7.07922 11.2776 6.54484ZM18.778 21.5744C18.778 20.2771 18.6405 19.8501 17.7876 18.9951L15.512 16.7099C14.6474 15.857 13.4507 15.857 12.5882 16.7099L10.3126 18.9951C9.45765 19.8501 9.32968 20.2771 9.32968 21.5744V24.5212C9.32968 26.1119 10.2116 27.0843 11.6298 27.0843H16.48C17.8961 27.0843 18.778 26.1119 18.778 24.5212V21.5744ZM16.8323 21.5469V24.3541C16.8323 24.8498 16.5327 25.1418 16.0295 25.1418H12.0707C11.5654 25.1418 11.2776 24.8498 11.2776 24.3541V21.5469C11.2776 21.0008 11.35 20.7109 11.7105 20.3601L13.7976 18.2708C13.9691 18.0918 14.1386 18.1014 14.3101 18.2708L16.3973 20.3601C16.7502 20.713 16.8323 21.003 16.8323 21.5469Z" fill="black"/>
<path d="M21.5841 9.32971C20.2793 9.32971 19.8502 9.45768 18.9973 10.3106L16.7196 12.5861C15.8571 13.4507 15.8571 14.6474 16.7196 15.5099L18.9973 17.7876C19.8502 18.6405 20.2793 18.778 21.5841 18.778H24.5213C26.112 18.778 27.094 17.8961 27.094 16.4779V11.6202C27.094 10.2117 26.112 9.32971 24.5213 9.32971H21.5841Z" fill="black"/>
</svg>
