<svg width="28" height="28" viewBox="0 0 28 28" fill="none" xmlns="http://www.w3.org/2000/svg">
<path d="M14.105 26.21C20.7369 26.21 26.2121 20.7273 26.2121 14.105C26.2121 7.47312 20.7273 2 14.0954 2C7.47523 2 2 7.47312 2 14.105C2 20.7273 7.48484 26.21 14.105 26.21Z" fill="black"/>
<path d="M10.2506 19.7483C9.58381 19.7483 9.17529 19.3515 9.17529 18.7433C9.17529 18.5389 9.20717 18.3209 9.32529 17.9966L12.4272 9.52059C12.726 8.6895 13.2684 8.27911 14.0892 8.27911C14.928 8.27911 15.4884 8.69161 15.7755 9.52059L18.8849 17.9966C18.9935 18.3209 19.0349 18.5389 19.0349 18.7433C19.0349 19.3515 18.6189 19.7483 17.9617 19.7483C17.4173 19.7483 17.0557 19.4741 16.8576 18.8019L16.1158 16.6067H12.0965L11.3526 18.8019C11.1567 19.4837 10.7854 19.7483 10.2506 19.7483ZM12.5875 14.9415H15.6152L14.1658 10.5347H14.0369L12.5875 14.9415Z" fill="white"/>
</svg>
