<svg width="28" height="28" viewBox="0 0 28 28" fill="none" xmlns="http://www.w3.org/2000/svg">
<path d="M14.105 26.21C20.7369 26.21 26.2121 20.7273 26.2121 14.105C26.2121 7.47312 20.7273 2 14.0954 2C7.47523 2 2 7.47312 2 14.105C2 20.7273 7.48484 26.21 14.105 26.21Z" fill="black"/>
<path d="M10.5695 19.688C9.95262 19.688 9.50684 19.2636 9.50684 18.6903C9.50684 18.402 9.58442 18.1895 9.78106 17.9141L12.6636 13.963L9.92942 10.2212C9.69223 9.90734 9.61465 9.69476 9.61465 9.38726C9.61465 8.80227 10.101 8.34149 10.7178 8.34149C11.1997 8.34149 11.4699 8.51914 11.8124 9.01344L14.1678 12.4679H14.2391L16.551 9.02515C16.8636 8.52547 17.1477 8.34149 17.605 8.34149C18.2218 8.34149 18.6793 8.77344 18.6793 9.34883C18.6793 9.61578 18.6017 9.85718 18.3838 10.1326L15.5225 14.011L18.3646 17.8756C18.5708 18.1414 18.6601 18.3615 18.6601 18.6498C18.6601 19.2636 18.193 19.688 17.5473 19.688C17.09 19.688 16.8231 19.5137 16.472 18.9948L14.1024 15.5499H14.0408L11.6448 18.9948C11.2735 19.5179 11.0321 19.688 10.5695 19.688Z" fill="white"/>
</svg>
