<svg width="29" height="28" viewBox="0 0 29 28" fill="none" xmlns="http://www.w3.org/2000/svg">
<path d="M10.0781 24.8972H18.375C25.3835 24.8972 28.4435 21.7359 28.4435 15.0246V6.82921C28.4435 4.32656 27.1287 3.02344 24.5993 3.02344H3.84421C1.31484 3.02344 0 4.31695 0 6.82921V15.0246C0 21.7359 3.06 24.8972 10.0781 24.8972Z" fill="black"/>
<path d="M11.0765 19.5609C10.3542 19.5609 9.96484 19.0746 9.96484 18.3002V9.70338C9.96484 8.89433 10.3753 8.37402 11.1555 8.37402H14.5811C17.1337 8.37402 18.7113 9.74957 18.7113 11.9597C18.7113 13.4735 17.8045 14.7265 16.4088 15.1826L18.1143 17.8022C18.2899 18.0715 18.359 18.2885 18.359 18.5876C18.359 19.162 17.9304 19.5609 17.3219 19.5609C16.8208 19.5609 16.5443 19.3598 16.1859 18.7931L14.2043 15.5503H12.2074V18.3002C12.2074 19.0917 11.8043 19.5609 11.0765 19.5609ZM12.2074 13.8961H14.2661C15.58 13.8961 16.4097 13.2148 16.4097 12.015C16.4097 10.796 15.5672 10.0859 14.3046 10.0859H12.2074V13.8961Z" fill="white"/>
</svg>
