<svg width="34" height="31" viewBox="0 0 34 31" fill="none" xmlns="http://www.w3.org/2000/svg">
<path d="M15.1305 0C6.77437 0 0 6.77648 0 15.1326C0 23.4888 6.77437 30.2653 15.1305 30.2653C21.7392 30.2653 27.3614 26.0158 29.4211 20.1047C28.6549 20.2533 27.8974 20.051 27.3441 19.5914C25.5239 24.5812 20.7455 28.1402 15.1305 28.1402C7.95022 28.1402 2.12296 22.313 2.12296 15.1326C2.12296 7.95022 7.95022 2.12296 15.1305 2.12296C20.7551 2.12296 25.5335 5.69367 27.3441 10.6931C27.907 10.2239 28.6645 10.0334 29.4307 10.182C27.3827 4.25906 21.7509 0 15.1305 0Z" fill="black"/>
<path d="M15.1305 25.5208C20.8648 25.5208 25.5283 20.8669 25.5283 15.1326C25.5283 9.39845 20.8648 4.73486 15.1305 4.73486C9.39634 4.73486 4.73486 9.39845 4.73486 15.1326C4.73486 20.8669 9.39634 25.5208 15.1305 25.5208ZM15.1305 23.2987C10.6228 23.2987 6.95695 19.6404 6.95695 15.1326C6.95695 10.6249 10.6228 6.95695 15.1305 6.95695C19.6383 6.95695 23.3062 10.6249 23.3062 15.1326C23.3062 19.6404 19.6383 23.2987 15.1305 23.2987ZM29.6416 12.0698C28.9676 11.5544 28.1402 11.8601 28.1402 12.7109V17.5598C28.1402 18.4362 28.9847 18.7033 29.6416 18.2051L32.8708 15.7769C33.3171 15.4458 33.3192 14.8249 32.8708 14.4937L29.6416 12.0698ZM12.3124 20.1417C12.9574 20.1417 13.3181 19.7266 13.3181 19.0413V16.5234H15.1392L16.9336 19.463C17.2399 19.9683 17.4996 20.1417 17.9327 20.1417C18.4744 20.1417 18.8468 19.7948 18.8468 19.2947C18.8468 19.0296 18.7819 18.8252 18.6265 18.5995L17.073 16.2044C18.3412 15.7919 19.1512 14.6698 19.1512 13.3186C19.1512 11.3294 17.7405 10.0964 15.4514 10.0964H12.3841C11.6897 10.0964 11.3259 10.5487 11.3259 11.2624V19.0413C11.3259 19.7095 11.6728 20.1417 12.3124 20.1417ZM13.3181 15.0666V11.6034H15.2109C16.3638 11.6034 17.1319 12.2487 17.1319 13.3676C17.1319 14.448 16.3767 15.0666 15.1725 15.0666H13.3181Z" fill="black"/>
</svg>
