<svg width="28" height="28" viewBox="0 0 28 28" fill="none" xmlns="http://www.w3.org/2000/svg">
<path d="M14.105 26.21C20.7369 26.21 26.2121 20.7273 26.2121 14.105C26.2121 7.47312 20.7273 2 14.0954 2C7.47523 2 2 7.47312 2 14.105C2 20.7273 7.48484 26.21 14.105 26.21Z" fill="black"/>
<path d="M8.35087 11.037C7.73049 11.037 7.30908 10.655 7.30908 10.074C7.30908 9.4972 7.73049 9.11096 8.35087 9.11096H19.8993C20.51 9.11096 20.9411 9.4972 20.9411 10.074C20.9411 10.655 20.51 11.037 19.8993 11.037H8.35087ZM8.35087 15.0659C7.73049 15.0659 7.30908 14.6818 7.30908 14.0933C7.30908 13.5144 7.73049 13.126 8.35087 13.126H19.8993C20.51 13.126 20.9411 13.5144 20.9411 14.0933C20.9411 14.6818 20.51 15.0659 19.8993 15.0659H8.35087ZM8.35087 19.0927C7.73049 19.0927 7.30908 18.699 7.30908 18.1222C7.30908 17.5508 7.73049 17.1645 8.35087 17.1645H19.8993C20.51 17.1645 20.9411 17.5508 20.9411 18.1222C20.9411 18.699 20.51 19.0927 19.8993 19.0927H8.35087Z" fill="white"/>
</svg>
