<svg width="29" height="28" viewBox="0 0 29 28" fill="none" xmlns="http://www.w3.org/2000/svg">
<path d="M10.0781 24.8972H18.375C25.3835 24.8972 28.4435 21.7359 28.4435 15.0246V6.82921C28.4435 4.32656 27.1287 3.02344 24.5993 3.02344H3.84421C1.31484 3.02344 0 4.31695 0 6.82921V15.0246C0 21.7359 3.06 24.8972 10.0781 24.8972ZM10.1182 22.5799C4.66335 22.5799 2.29592 20.2083 2.29592 15.108V7.01999C2.29592 5.89827 2.89616 5.31936 3.97733 5.31936H24.4662C25.5399 5.31936 26.1476 5.89827 26.1476 7.01999V15.108C26.1476 20.2083 23.7802 22.5799 18.3253 22.5799H10.1182Z" fill="black"/>
<path d="M11.1976 19.3409C11.8988 19.3409 12.286 18.8993 12.286 18.1439V15.4823H14.2126L16.1293 18.6112C16.4675 19.1536 16.7399 19.3409 17.2112 19.3409C17.7953 19.3409 18.2059 18.96 18.2059 18.4174C18.2059 18.1322 18.1367 17.9215 17.9654 17.666L16.3152 15.1369C17.6652 14.6946 18.5401 13.4873 18.5401 12.0331C18.5401 9.908 17.0242 8.58777 14.5693 8.58777H11.2799C10.5303 8.58777 10.1401 9.08042 10.1401 9.84916V18.1439C10.1401 18.8822 10.5114 19.3409 11.1976 19.3409ZM12.286 13.9024V10.2178H14.3066C15.534 10.2178 16.3414 10.9024 16.3414 12.0842C16.3414 13.2466 15.5448 13.9024 14.2681 13.9024H12.286Z" fill="black"/>
</svg>
