<svg width="34" height="31" viewBox="0 0 34 31" fill="none" xmlns="http://www.w3.org/2000/svg">
<path d="M18.0759 0C11.4576 0 5.8258 4.25906 3.77783 10.182C4.544 10.0334 5.3015 10.2239 5.86447 10.6931C7.6729 5.69367 12.4535 2.12296 18.0759 2.12296C25.2583 2.12296 31.0856 7.95022 31.0856 15.1326C31.0856 22.313 25.2583 28.1402 18.0759 28.1402C12.4631 28.1402 7.68251 24.5812 5.86447 19.5914C5.31111 20.051 4.55361 20.2533 3.78744 20.1047C5.84713 26.0158 11.4693 30.2653 18.0759 30.2653C26.4342 30.2653 33.2085 23.4888 33.2085 15.1326C33.2085 6.77648 26.4342 0 18.0759 0Z" fill="black"/>
<path d="M18.0758 25.5208C23.81 25.5208 28.4736 20.8669 28.4736 15.1326C28.4736 9.39845 23.81 4.73486 18.0758 4.73486C12.3416 4.73486 7.68008 9.39845 7.68008 15.1326C7.68008 20.8669 12.3416 25.5208 18.0758 25.5208ZM3.5668 12.0698L0.335479 14.4937C-0.11288 14.8249 -0.110771 15.4458 0.335479 15.7769L3.5668 18.2051C4.22375 18.7033 5.06821 18.4362 5.06821 17.5598V12.7109C5.06821 11.8601 4.24086 11.5544 3.5668 12.0698ZM15.0741 20.4344C14.3912 20.4344 14.0178 19.9737 14.0178 19.2408V11.0819C14.0178 10.2951 14.4123 9.81001 15.1489 9.81001H18.4126C20.832 9.81001 22.3276 11.1152 22.3276 13.2199C22.3276 14.6517 21.4752 15.8365 20.1498 16.2712L21.7658 18.7683C21.9317 19.0237 21.9987 19.2291 21.9987 19.5143C21.9987 20.0611 21.5977 20.4344 21.0148 20.4344C20.5414 20.4344 20.2691 20.2451 19.9363 19.7081L18.0538 16.6209H16.1593V19.2408C16.1593 19.9908 15.7721 20.4344 15.0741 20.4344ZM16.1593 15.0497H18.1114C19.3517 15.0497 20.1484 14.3993 20.1484 13.2731C20.1484 12.1085 19.3484 11.441 18.1402 11.441H16.1593V15.0497Z" fill="black"/>
</svg>
