<svg width="28" height="28" viewBox="0 0 28 28" fill="none" xmlns="http://www.w3.org/2000/svg">
<path d="M14.105 26.3198C20.7369 26.3198 26.2121 20.837 26.2121 14.2148C26.2121 7.58497 20.7273 2.10974 14.0954 2.10974C7.47523 2.10974 2 7.58497 2 14.2148C2 20.837 7.48484 26.3198 14.105 26.3198Z" fill="black"/>
<path d="M9.77409 20.2503C8.76159 20.2503 8.0791 19.4888 8.0791 18.3727V9.84635C8.0791 8.85729 8.76159 8.1748 9.77409 8.1748H18.4574C19.597 8.1748 20.1524 8.72815 20.1524 9.84635V18.3727C20.1524 19.6084 19.597 20.2503 18.4574 20.2503H9.77409ZM10.6413 18.2244H17.5903C17.909 18.2244 18.1265 18.0144 18.1265 17.6785V10.7466C18.1265 10.4203 17.909 10.2007 17.5903 10.2007H10.6413C10.3225 10.2007 10.1029 10.4203 10.1029 10.7466V17.6785C10.1029 18.0144 10.3225 18.2244 10.6413 18.2244Z" fill="white"/>
</svg>
