<svg width="34" height="31" viewBox="0 0 34 31" fill="none" xmlns="http://www.w3.org/2000/svg">
<path d="M18.0759 25.5208C23.8101 25.5208 28.4737 20.8669 28.4737 15.1326C28.4737 9.39843 23.8101 4.73484 18.0759 4.73484C12.3417 4.73484 7.68017 9.39843 7.68017 15.1326C7.68017 20.8669 12.3417 25.5208 18.0759 25.5208ZM18.0759 23.2987C13.5681 23.2987 9.90227 19.6404 9.90227 15.1326C9.90227 10.6249 13.5681 6.95693 18.0759 6.95693C22.5836 6.95693 26.2516 10.6249 26.2516 15.1326C26.2516 19.6404 22.5836 23.2987 18.0759 23.2987ZM18.0759 0C11.4576 0 5.8258 4.25906 3.77783 10.182C4.544 10.0334 5.3015 10.2239 5.86447 10.6931C7.6729 5.69367 12.4535 2.12296 18.0759 2.12296C25.2583 2.12296 31.0856 7.95022 31.0856 15.1326C31.0856 22.313 25.2583 28.1402 18.0759 28.1402C12.4631 28.1402 7.68251 24.5812 5.86447 19.5914C5.31111 20.051 4.55361 20.2533 3.78744 20.1047C5.84713 26.0158 11.4693 30.2653 18.0759 30.2653C26.4342 30.2653 33.2085 23.4888 33.2085 15.1326C33.2085 6.77648 26.4342 0 18.0759 0Z" fill="black"/>
<path d="M18.0758 25.5208C23.81 25.5208 28.4736 20.8669 28.4736 15.1326C28.4736 9.39845 23.81 4.73486 18.0758 4.73486C12.3416 4.73486 7.68008 9.39845 7.68008 15.1326C7.68008 20.8669 12.3416 25.5208 18.0758 25.5208ZM18.0758 23.2987C13.568 23.2987 9.90218 19.6404 9.90218 15.1326C9.90218 10.6249 13.568 6.95695 18.0758 6.95695C22.5835 6.95695 26.2515 10.6249 26.2515 15.1326C26.2515 19.6404 22.5835 23.2987 18.0758 23.2987ZM3.5668 12.0698L0.335479 14.4937C-0.11288 14.8249 -0.110771 15.4458 0.335479 15.7769L3.5668 18.2051C4.22375 18.7033 5.06821 18.4362 5.06821 17.5598V12.7109C5.06821 11.8601 4.24086 11.5544 3.5668 12.0698ZM16.0892 20.0023H20.972C21.4984 20.0023 21.8633 19.6809 21.8633 19.1534C21.8633 18.6204 21.4984 18.3066 20.972 18.3066H17.1561V11.144C17.1561 10.409 16.7743 9.95696 16.0892 9.95696C15.4095 9.95696 15.0395 10.4262 15.0395 11.144V18.8227C15.0395 19.5405 15.4095 20.0023 16.0892 20.0023Z" fill="black"/>
</svg>
