<svg width="28" height="28" viewBox="0 0 28 28" fill="none" xmlns="http://www.w3.org/2000/svg">
<path d="M14.105 26.21C20.7369 26.21 26.2121 20.7273 26.2121 14.105C26.2121 7.47312 20.7273 2 14.0954 2C7.47523 2 2 7.47312 2 14.105C2 20.7273 7.48484 26.21 14.105 26.21Z" fill="black"/>
<path d="M11.4978 19.7248C10.3782 19.7248 9.80633 19.1647 9.80633 18.0547V12.5084C9.80633 11.4176 10.3782 10.8404 11.4978 10.8404H19.3506C20.4681 10.8404 21.0282 11.4176 21.0282 12.5084V18.0547C21.0282 19.1647 20.4681 19.7248 19.3506 19.7248H11.4978ZM9.06618 12.4318V17.1744H8.82922C7.73399 17.1744 7.16211 16.6067 7.16211 15.5042V9.99849C7.16211 8.88849 7.73399 8.33044 8.84188 8.33044H16.7021C17.8239 8.33044 18.384 8.88849 18.384 9.96896V10.0864H11.4191C9.87875 10.0864 9.06618 10.899 9.06618 12.4318Z" fill="white"/>
</svg>
