<svg width="31" height="35" viewBox="0 0 31 35" fill="none" xmlns="http://www.w3.org/2000/svg">
<path d="M15.1326 0.927856C6.77648 0.927856 0 7.70434 0 16.0605C0 22.6788 4.25906 28.3127 10.182 30.3606C10.0334 29.5923 10.2314 28.8348 10.691 28.274C5.70327 26.4634 2.12296 21.685 2.12296 16.0605C2.12296 8.87813 7.95022 3.05082 15.1326 3.05082C22.313 3.05082 28.1498 8.87813 28.1498 16.0605C28.1498 21.6637 24.5791 26.4538 19.5914 28.274C20.0606 28.8252 20.2533 29.5827 20.1047 30.351C26.0254 28.2892 30.2728 22.667 30.2728 16.0605C30.2728 7.70434 23.4888 0.927856 15.1326 0.927856Z" fill="black"/>
<path d="M15.1328 5.66272C9.39861 5.66272 4.74463 10.3263 4.74463 16.0605C4.74463 21.7947 9.39861 26.4487 15.1328 26.4487C20.8767 26.4487 25.5285 21.7947 25.5285 16.0605C25.5285 10.3263 20.8767 5.66272 15.1328 5.66272ZM12.0796 30.5717L14.4939 33.8008C14.8251 34.2491 15.446 34.2374 15.7868 33.8008L18.2149 30.5717C18.7132 29.9126 18.446 29.0681 17.56 29.0681H12.7207C11.8699 29.0681 11.5739 29.8955 12.0796 30.5717ZM12.1291 21.3624C11.4461 21.3624 11.0728 20.9015 11.0728 20.1686V12.0098C11.0728 11.223 11.4672 10.7378 12.2039 10.7378H15.4675C17.887 10.7378 19.3825 12.0431 19.3825 14.1477C19.3825 15.5795 18.5301 16.7643 17.2047 17.1992L18.8207 19.6961C18.9867 19.9516 19.0537 20.1569 19.0537 20.4422C19.0537 20.9889 18.6527 21.3624 18.0698 21.3624C17.5964 21.3624 17.324 21.1729 16.9912 20.636L15.1087 17.5488H13.2142V20.1686C13.2142 20.9186 12.8271 21.3624 12.1291 21.3624ZM13.2142 15.9776H15.1664C16.4067 15.9776 17.2033 15.3271 17.2033 14.2009C17.2033 13.0363 16.4034 12.3688 15.1952 12.3688H13.2142V15.9776Z" fill="black"/>
</svg>
