<svg width="30" height="28" viewBox="0 0 30 28" fill="none" xmlns="http://www.w3.org/2000/svg">
<path d="M9.76827 5.86789H23.5737V5.70242C23.5336 3.26515 22.2197 2 19.7337 2H3.84421C1.30523 2 0 3.30523 0 5.80577V16.9388C0 19.4321 1.28203 20.7214 3.79148 20.7404H4.20891V11.3771C4.20891 7.92687 6.2871 5.86789 9.76827 5.86789Z" fill="black"/>
<path d="M9.76819 26.3138H25.7612C28.2831 26.3138 29.6075 25.0107 29.6075 22.508V11.3771C29.6075 8.87652 28.2831 7.57129 25.7612 7.57129H9.76819C7.2271 7.57129 5.92188 8.87652 5.92188 11.3771V22.508C5.92188 25.0203 7.2271 26.3138 9.76819 26.3138Z" fill="black"/>
</svg>
