<svg width="31" height="35" viewBox="0 0 31 35" fill="none" xmlns="http://www.w3.org/2000/svg">
<path d="M15.1326 0.927856C6.77648 0.927856 0 7.70434 0 16.0605C0 22.6788 4.25906 28.3127 10.182 30.3606C10.0334 29.5923 10.2314 28.8348 10.691 28.274C5.70327 26.4634 2.12296 21.685 2.12296 16.0605C2.12296 8.87813 7.95022 3.05082 15.1326 3.05082C22.313 3.05082 28.1498 8.87813 28.1498 16.0605C28.1498 21.6637 24.5791 26.4538 19.5914 28.274C20.0606 28.8252 20.2533 29.5827 20.1047 30.351C26.0254 28.2892 30.2728 22.667 30.2728 16.0605C30.2728 7.70434 23.4888 0.927856 15.1326 0.927856Z" fill="black"/>
<path d="M15.1328 5.66272C9.39861 5.66272 4.74463 10.3263 4.74463 16.0605C4.74463 21.7947 9.39861 26.4487 15.1328 26.4487C20.8767 26.4487 25.5285 21.7947 25.5285 16.0605C25.5285 10.3263 20.8767 5.66272 15.1328 5.66272ZM15.1328 7.88481C19.6502 7.88481 23.3064 11.5527 23.3064 16.0605C23.3064 20.5682 19.6502 24.2267 15.1328 24.2267C10.6251 24.2267 6.96672 20.5682 6.96672 16.0605C6.96672 11.5527 10.6251 7.88481 15.1328 7.88481ZM12.0796 30.5717L14.4939 33.8008C14.8251 34.2491 15.446 34.2374 15.7868 33.8008L18.2149 30.5717C18.7132 29.9126 18.446 29.0681 17.56 29.0681H12.7207C11.8699 29.0681 11.5739 29.8955 12.0796 30.5717ZM13.1442 20.9301H18.0269C18.5533 20.9301 18.9182 20.6088 18.9182 20.0812C18.9182 19.5482 18.5533 19.2344 18.0269 19.2344H14.211V12.0719C14.211 11.3369 13.8292 10.8848 13.1442 10.8848C12.4645 10.8848 12.0944 11.3541 12.0944 12.0719V19.7505C12.0944 20.4684 12.4645 20.9301 13.1442 20.9301Z" fill="black"/>
</svg>
