<svg width="28" height="28" viewBox="0 0 28 28" fill="none" xmlns="http://www.w3.org/2000/svg">
<path d="M6.50992 18.7684C7.81468 18.7684 8.24382 18.6405 9.09671 17.7876L11.3723 15.5099C12.2369 14.6474 12.2369 13.4507 11.3723 12.5861L9.09671 10.3105C8.24382 9.45765 7.81468 9.32007 6.50992 9.32007H3.57273C1.98203 9.32007 1 10.202 1 11.6202V16.4779C1 17.8865 1.98203 18.7684 3.57273 18.7684H6.50992ZM6.53734 16.8205H3.73983C3.23241 16.8205 2.94249 16.5327 2.94249 16.0274V12.0686C2.94249 11.5654 3.23241 11.2658 3.73983 11.2658H6.53734C7.08343 11.2658 7.37336 11.35 7.73383 11.7105L9.82094 13.788C9.9925 13.9691 9.98289 14.1386 9.81133 14.3101L7.73383 16.3877C7.37125 16.7502 7.07922 16.8205 6.53734 16.8205ZM21.584 9.32968C20.2792 9.32968 19.8501 9.45765 18.9972 10.3105L16.7195 12.5861C15.857 13.4507 15.857 14.6474 16.7195 15.5099L18.9972 17.7876C19.8501 18.6405 20.2792 18.778 21.584 18.778H24.5212C26.1119 18.778 27.0939 17.8961 27.0939 16.4779V11.6202C27.0939 10.2116 26.1119 9.32968 24.5212 9.32968H21.584ZM21.5565 11.2755H24.3541C24.8594 11.2755 25.1514 11.5654 25.1514 12.0686V16.0274C25.1514 16.5327 24.8594 16.8302 24.3541 16.8302H21.5565C21.0105 16.8302 20.7205 16.7481 20.3601 16.3877L18.2729 14.3101C18.1014 14.129 18.111 13.9595 18.2826 13.788L20.3601 11.7105C20.7226 11.3479 21.0126 11.2755 21.5565 11.2755ZM18.778 21.5744C18.778 20.2771 18.6405 19.8501 17.7876 18.9951L15.512 16.7099C14.6474 15.857 13.4507 15.857 12.5882 16.7099L10.3126 18.9951C9.45765 19.8501 9.32968 20.2771 9.32968 21.5744V24.5212C9.32968 26.1119 10.2116 27.0843 11.6298 27.0843H16.48C17.8961 27.0843 18.778 26.1119 18.778 24.5212V21.5744ZM16.8323 21.5469V24.3541C16.8323 24.8498 16.5327 25.1418 16.0295 25.1418H12.0707C11.5654 25.1418 11.2776 24.8498 11.2776 24.3541V21.5469C11.2776 21.0008 11.35 20.7109 11.7105 20.3601L13.7976 18.2708C13.9691 18.0918 14.1386 18.1014 14.3101 18.2708L16.3973 20.3601C16.7502 20.713 16.8323 21.003 16.8323 21.5469Z" fill="black"/>
<path d="M9.32959 6.51742C9.32959 7.81468 9.46717 8.24382 10.3222 9.09671L12.5977 11.3723C13.4602 12.2348 14.6569 12.2348 15.5215 11.3723L17.7971 9.09671C18.65 8.24382 18.7779 7.81468 18.7779 6.51742V3.57062C18.7779 1.98203 17.896 1 16.4799 1H11.6297C10.2115 1 9.32959 1.98203 9.32959 3.57062V6.51742Z" fill="black"/>
</svg>
