<svg width="29" height="28" viewBox="0 0 29 28" fill="none" xmlns="http://www.w3.org/2000/svg">
<path d="M10.0781 3.02344C3.06 3.02344 0 6.18258 0 12.8864V21.0914C0 23.6016 1.31484 24.8972 3.84421 24.8972H24.5993C27.1287 24.8972 28.4435 23.5919 28.4435 21.0914V12.8864C28.4435 6.18258 25.3835 3.02344 18.375 3.02344H10.0781ZM10.1182 5.33858H18.3253C23.7802 5.33858 26.1476 7.70061 26.1476 12.8105V20.8985C26.1476 22.0202 25.5399 22.6013 24.4662 22.6013H3.97733C2.89616 22.6013 2.29592 22.0202 2.29592 20.8985V12.8105C2.29592 7.70061 4.66335 5.33858 10.1182 5.33858Z" fill="black"/>
<path d="M6.52991 19.2779C7.21639 19.2779 7.59092 18.8469 7.59092 18.1105V15.47H9.51117L11.3972 18.5673C11.7269 19.0928 12.0004 19.2779 12.4612 19.2779C13.0305 19.2779 13.4306 18.9076 13.4306 18.3777C13.4306 18.0988 13.3518 17.8923 13.1964 17.641L11.5514 15.133C12.892 14.6992 13.7489 13.5067 13.7489 12.0734C13.7489 9.98207 12.254 8.68082 9.85101 8.68082H6.59623C5.86991 8.68082 5.49023 9.16082 5.49023 9.90847V18.1105C5.49023 18.8298 5.86054 19.2779 6.52991 19.2779ZM7.59092 13.9302V10.2708H9.5871C10.804 10.2708 11.6147 10.9512 11.6147 12.1224C11.6147 13.2786 10.8147 13.9302 9.54655 13.9302H7.59092ZM19.2757 19.2779C20.0064 19.2779 20.4042 18.8078 20.4042 18.0292V10.4543H22.9467C23.4933 10.4543 23.8657 10.1192 23.8657 9.57027C23.8657 9.00636 23.4933 8.67871 22.9467 8.67871H15.6527C15.1061 8.67871 14.7337 9.00636 14.7337 9.57027C14.7337 10.1192 15.1061 10.4543 15.6527 10.4543H18.1685V18.0292C18.1685 18.7906 18.5641 19.2779 19.2757 19.2779Z" fill="black"/>
</svg>
