<svg width="28" height="28" viewBox="0 0 28 28" fill="none" xmlns="http://www.w3.org/2000/svg">
<path d="M14.105 26.21C20.7369 26.21 26.2121 20.7273 26.2121 14.105C26.2121 7.47312 20.7273 2 14.0954 2C7.47523 2 2 7.47312 2 14.105C2 20.7273 7.48484 26.21 14.105 26.21ZM14.105 23.8255C8.71085 23.8255 4.39412 19.4991 4.39412 14.105C4.39412 8.71085 8.70124 4.38452 14.0954 4.38452C19.4895 4.38452 23.8276 8.71085 23.8276 14.105C23.8276 19.4991 19.4991 23.8255 14.105 23.8255Z" fill="black"/>
<path d="M11.07 19.468C11.7617 19.468 12.1585 19.0168 12.1585 18.271V15.5998H14.0872L15.9922 18.7287C16.3325 19.2786 16.6123 19.468 17.0837 19.468C17.6677 19.468 18.0784 19.0871 18.0784 18.5445C18.0784 18.2593 17.9996 18.0486 17.8283 17.7931L16.178 15.2523C17.5376 14.8121 18.403 13.6027 18.403 12.158C18.403 10.0255 16.887 8.71484 14.4322 8.71484H11.1427C10.3932 8.71484 10.0029 9.19577 10.0029 9.97623V18.271C10.0029 18.9997 10.3838 19.468 11.07 19.468ZM12.1585 14.0199V10.3428H14.1694C15.3969 10.3428 16.2139 11.0274 16.2139 12.2091C16.2139 13.362 15.4077 14.0199 14.131 14.0199H12.1585Z" fill="black"/>
</svg>
