<svg width="28" height="28" viewBox="0 0 28 28" fill="none" xmlns="http://www.w3.org/2000/svg">
<path d="M4.07835 25.2274C4.67389 25.2274 5.16092 24.7542 5.16092 24.1544V17.7401C5.47498 17.6196 6.4753 17.261 7.99125 17.261C12.2555 17.261 15.1029 19.3926 19.2342 19.3926C21.0391 19.3926 21.8496 19.1681 22.755 18.7549C23.591 18.3726 24.0888 17.7 24.0888 16.6092V4.9172C24.0888 4.15783 23.4991 3.68698 22.7119 3.68698C22.0554 3.68698 21.0026 4.13909 19.1072 4.13909C15.0265 4.13909 12.1381 2.00745 7.86421 2.00745C6.0846 2.00745 5.28773 2.22354 4.34437 2.6494C3.51258 3.02745 3 3.63471 3 4.69901V24.1544C3 24.7425 3.49453 25.2274 4.07835 25.2274ZM5.20733 12.161V8.39299C5.41357 8.04846 6.29342 7.58533 7.89796 7.58533C8.26031 7.58533 8.84976 7.6151 9.30632 7.67674V4.27126C10.8187 4.44376 12.1795 4.88392 13.5755 5.29525V8.69861C14.9695 9.13338 16.3669 9.50205 17.835 9.64478V6.23931C18.2372 6.28501 18.6436 6.30517 19.0671 6.30517C20.2116 6.30517 21.1713 6.17814 21.8911 5.97868V9.37994C21.3326 9.53556 20.3152 9.71064 19.0671 9.71064C18.7102 9.71064 18.2845 9.69142 17.835 9.64478V13.4107C18.2972 13.4669 18.7244 13.4765 19.143 13.4765C20.2854 13.4765 21.1903 13.3453 21.8911 13.1479V16.4126C21.6933 16.7571 20.8029 17.2118 19.1941 17.2118C18.7343 17.2118 18.282 17.1799 17.835 17.1183V13.4107C16.3036 13.2265 15.0164 12.9335 13.5755 12.4645V16.073C12.2477 15.6755 10.8795 15.2897 9.30632 15.1427V11.4448C8.86522 11.3916 8.49726 11.3534 7.89796 11.3534C6.29342 11.3534 5.41357 11.8165 5.20733 12.161ZM9.30632 11.4448C10.8708 11.6311 12.0675 12.0244 13.5755 12.4645V8.69861C12.157 8.27978 10.8804 7.85767 9.30632 7.67674V11.4448Z" fill="black"/>
</svg>
