<svg width="29" height="28" viewBox="0 0 29 28" fill="none" xmlns="http://www.w3.org/2000/svg">
<path d="M10.0781 3.02344C3.06 3.02344 0 6.18258 0 12.8864V21.0914C0 23.6016 1.31484 24.8972 3.84421 24.8972H24.5993C27.1287 24.8972 28.4435 23.5919 28.4435 21.0914V12.8864C28.4435 6.18258 25.3835 3.02344 18.375 3.02344H10.0781ZM10.1182 5.33858H18.3253C23.7802 5.33858 26.1476 7.70061 26.1476 12.8105V20.8985C26.1476 22.0202 25.5399 22.6013 24.4662 22.6013H3.97733C2.89616 22.6013 2.29592 22.0202 2.29592 20.8985V12.8105C2.29592 7.70061 4.66335 5.33858 10.1182 5.33858Z" fill="black"/>
<path d="M6.98075 19.2778C7.66724 19.2778 8.04387 18.8447 8.04387 18.1104V15.4678H9.9599L11.8576 18.5672C12.1874 19.0927 12.4513 19.2778 12.91 19.2778C13.4814 19.2778 13.8815 18.9075 13.8815 18.3755C13.8815 18.0987 13.8144 17.8922 13.6452 17.6409L12.0118 15.1329C13.345 14.6969 14.2093 13.5066 14.2093 12.0712C14.2093 9.98203 12.7124 8.67867 10.3018 8.67867H7.05669C6.32826 8.67867 5.95068 9.15867 5.95068 9.90632V18.1104C5.95068 18.8276 6.31138 19.2778 6.98075 19.2778ZM8.04387 13.928V10.2687H10.0454C11.2644 10.2687 12.0676 10.9491 12.0676 12.1223C12.0676 13.2785 11.2773 13.928 10.007 13.928H8.04387ZM16.5079 19.1362H22.2707C22.8226 19.1362 23.1972 18.7915 23.1972 18.2531C23.1972 17.7031 22.8269 17.3838 22.2707 17.3838H18.5472V17.2976L21.0283 14.749C22.1092 13.6474 22.8029 12.7373 22.8029 11.4977C22.8029 9.7207 21.3501 8.53711 19.1547 8.53711C17.4569 8.53711 15.9878 9.50906 15.5884 10.8089C15.5373 10.991 15.5214 11.1485 15.5214 11.3135C15.5214 11.838 15.8788 12.1584 16.4139 12.1584C16.8789 12.1584 17.1109 11.8859 17.3303 11.5556C17.6361 10.9125 18.178 10.2448 19.1882 10.2448C20.1707 10.2448 20.8162 10.8091 20.8162 11.6679C20.8162 12.439 20.1815 13.0927 19.4795 13.8044L15.9606 17.4309C15.6758 17.7084 15.5662 17.9733 15.5662 18.2637C15.5662 18.7873 15.9332 19.1362 16.5079 19.1362Z" fill="black"/>
</svg>
