<svg width="28" height="28" viewBox="0 0 28 28" fill="none" xmlns="http://www.w3.org/2000/svg">
<path d="M14.3921 20.4078C21.9387 20.4078 26.7863 17.0574 26.7863 12.35C26.7863 7.65004 21.9291 4.30176 14.3804 4.30176C6.84757 4.30176 2 7.65004 2 12.35C2 17.0574 6.84757 20.4078 14.3921 20.4078ZM14.3921 18.0779C8.461 18.0779 4.49233 15.759 4.49233 12.35C4.49233 8.94097 8.461 6.63378 14.3804 6.63378C20.3115 6.63378 24.294 8.94097 24.294 12.35C24.294 15.759 20.3253 18.0779 14.3921 18.0779ZM14.3921 25.6339C17.4106 25.6339 19.2331 24.2178 19.2331 21.8244V21.4168C17.7521 21.7435 16.1328 21.9148 14.3921 21.9148C12.6535 21.9148 11.0342 21.7435 9.56281 21.4168V21.8244C9.56281 24.2178 11.3853 25.6339 14.3921 25.6339Z" fill="black"/>
<path d="M12.836 15.999H16.38C16.9046 15.999 17.2526 15.6573 17.2526 15.1646C17.2526 14.6506 16.9046 14.3185 16.38 14.3185H13.8319V9.35184C13.8319 8.67731 13.4499 8.2688 12.836 8.2688C12.2318 8.2688 11.8423 8.6827 11.8423 9.35184V14.9159C11.8423 15.5776 12.2222 15.999 12.836 15.999Z" fill="black"/>
</svg>
