<svg width="28" height="28" viewBox="0 0 28 28" fill="none" xmlns="http://www.w3.org/2000/svg">
<path d="M6.84421 24.8972H21.0295C23.5685 24.8972 24.8737 23.5919 24.8737 21.0914V6.82921C24.8737 4.32656 23.5685 3.02344 21.0295 3.02344H6.84421C4.31484 3.02344 3 4.31695 3 6.82921V21.0914C3 23.6016 4.31484 24.8972 6.84421 24.8972Z" fill="black"/>
<path d="M11.3611 19.5647C10.2394 19.5647 9.66961 19.0045 9.66961 17.8945V12.3483C9.66961 11.2575 10.2394 10.6802 11.3611 10.6802H19.2117C20.3292 10.6802 20.9011 11.2575 20.9011 12.3483V17.8945C20.9011 19.0045 20.3292 19.5647 19.2117 19.5647H11.3611ZM8.92734 12.2716V17.0142H8.6925C7.59515 17.0142 7.02539 16.4466 7.02539 15.3441V9.83834C7.02539 8.72834 7.59515 8.17029 8.70305 8.17029H16.5654C17.685 8.17029 18.2473 8.72834 18.2473 9.80881V9.92623H11.2823C9.74203 9.92623 8.92734 10.7388 8.92734 12.2716Z" fill="white"/>
</svg>
