<svg width="34" height="31" viewBox="0 0 34 31" fill="none" xmlns="http://www.w3.org/2000/svg">
<path d="M18.0759 0C11.4576 0 5.8258 4.25906 3.77783 10.182C4.544 10.0334 5.3015 10.2239 5.86447 10.6931C7.6729 5.69367 12.4535 2.12296 18.0759 2.12296C25.2583 2.12296 31.0856 7.95022 31.0856 15.1326C31.0856 22.313 25.2583 28.1402 18.0759 28.1402C12.4631 28.1402 7.68251 24.5812 5.86447 19.5914C5.31111 20.051 4.55361 20.2533 3.78744 20.1047C5.84713 26.0158 11.4693 30.2653 18.0759 30.2653C26.4342 30.2653 33.2085 23.4888 33.2085 15.1326C33.2085 6.77648 26.4342 0 18.0759 0Z" fill="black"/>
<path d="M18.0758 25.5208C23.81 25.5208 28.4736 20.8669 28.4736 15.1326C28.4736 9.39845 23.81 4.73486 18.0758 4.73486C12.3416 4.73486 7.68008 9.39845 7.68008 15.1326C7.68008 20.8669 12.3416 25.5208 18.0758 25.5208ZM18.0758 23.2987C13.568 23.2987 9.90218 19.6404 9.90218 15.1326C9.90218 10.6249 13.568 6.95695 18.0758 6.95695C22.5835 6.95695 26.2515 10.6249 26.2515 15.1326C26.2515 19.6404 22.5835 23.2987 18.0758 23.2987ZM3.5668 12.0698L0.335479 14.4937C-0.11288 14.8249 -0.110771 15.4458 0.335479 15.7769L3.5668 18.2051C4.22375 18.7033 5.06821 18.4362 5.06821 17.5598V12.7109C5.06821 11.8601 4.24086 11.5544 3.5668 12.0698ZM15.2577 20.1417C15.9027 20.1417 16.2634 19.7266 16.2634 19.0413V16.5234H18.0845L19.8788 19.463C20.1852 19.9683 20.4449 20.1417 20.878 20.1417C21.4196 20.1417 21.792 19.7948 21.792 19.2947C21.792 19.0296 21.7271 18.8252 21.5717 18.5995L20.0183 16.2044C21.2865 15.7919 22.0965 14.6698 22.0965 13.3186C22.0965 11.3294 20.6858 10.0964 18.3966 10.0964H15.3294C14.6349 10.0964 14.2712 10.5487 14.2712 11.2624V19.0413C14.2712 19.7095 14.6181 20.1417 15.2577 20.1417ZM16.2634 15.0666V11.6034H18.1562C19.3091 11.6034 20.0771 12.2487 20.0771 13.3676C20.0771 14.448 19.322 15.0666 18.1177 15.0666H16.2634Z" fill="black"/>
</svg>
