<svg width="28" height="28" viewBox="0 0 28 28" fill="none" xmlns="http://www.w3.org/2000/svg">
<path d="M14.3921 20.4078C21.9387 20.4078 26.7863 17.0574 26.7863 12.35C26.7863 7.65004 21.9291 4.30176 14.3804 4.30176C6.84757 4.30176 2 7.65004 2 12.35C2 17.0574 6.84757 20.4078 14.3921 20.4078ZM14.3921 18.0779C8.461 18.0779 4.49233 15.759 4.49233 12.35C4.49233 8.94097 8.461 6.63378 14.3804 6.63378C20.3115 6.63378 24.294 8.94097 24.294 12.35C24.294 15.759 20.3253 18.0779 14.3921 18.0779ZM14.3921 25.6339C17.4106 25.6339 19.2331 24.2178 19.2331 21.8244V21.4168C17.7521 21.7435 16.1328 21.9148 14.3921 21.9148C12.6535 21.9148 11.0342 21.7435 9.56281 21.4168V21.8244C9.56281 24.2178 11.3853 25.6339 14.3921 25.6339Z" fill="black"/>
<path d="M12.4687 15.8982C12.9752 15.8982 13.2902 15.5555 13.2902 15.0012V13.3712H14.3695L15.6037 15.376C15.8493 15.7737 16.0579 15.9099 16.3973 15.9099C16.8239 15.9099 17.1644 15.6162 17.1644 15.1885C17.1644 14.982 17.0995 14.8149 16.9793 14.6436L15.9625 13.0883C16.8286 12.759 17.3505 11.9674 17.3505 11.0248C17.3505 9.57635 16.312 8.67822 14.6723 8.67822H12.5278C11.992 8.67822 11.6719 9.0272 11.6719 9.62275V15.0012C11.6719 15.5576 11.9773 15.8982 12.4687 15.8982ZM13.2902 12.1208V9.95954H14.4904C15.2496 9.95954 15.7017 10.3849 15.7017 11.0546C15.7017 11.7242 15.255 12.1208 14.4712 12.1208H13.2902Z" fill="black"/>
</svg>
