<svg width="28" height="28" viewBox="0 0 28 28" fill="none" xmlns="http://www.w3.org/2000/svg">
<path d="M14.105 26.21C20.7369 26.21 26.2121 20.7273 26.2121 14.105C26.2121 7.47312 20.7273 2 14.0954 2C7.47523 2 2 7.47312 2 14.105C2 20.7273 7.48484 26.21 14.105 26.21ZM14.105 23.8255C8.71085 23.8255 4.39412 19.4991 4.39412 14.105C4.39412 8.71085 8.70124 4.38452 14.0954 4.38452C19.4895 4.38452 23.8276 8.71085 23.8276 14.105C23.8276 19.4991 19.4991 23.8255 14.105 23.8255Z" fill="black"/>
<path d="M10.0342 17.7186H18.1684C18.7372 17.7186 18.998 17.0869 18.672 16.5362L14.7505 9.83536C14.4458 9.33145 13.7492 9.35067 13.4659 9.83536L9.51877 16.5362C9.21198 17.0464 9.46534 17.7186 10.0342 17.7186Z" fill="black"/>
</svg>
