<svg width="28" height="28" viewBox="0 0 28 28" fill="none" xmlns="http://www.w3.org/2000/svg">
<path d="M14.105 26.21C20.7369 26.21 26.2121 20.7273 26.2121 14.105C26.2121 7.47312 20.7273 2 14.0954 2C7.47523 2 2 7.47312 2 14.105C2 20.7273 7.48484 26.21 14.105 26.21Z" fill="black"/>
<path d="M16.7367 19.0892C16.4843 19.2383 16.1669 19.1595 16.02 18.8858L13.1004 13.8437C12.8819 13.9332 12.6058 14.0227 12.2946 14.2135C11.1907 14.8358 10.7304 15.9087 9.47742 16.6311C9.13969 16.8399 8.72203 17.0445 8.28633 17.0445C7.86773 17.0445 7.58437 16.8591 7.38094 16.4895L5.47359 13.2076C5.25633 12.837 5.43211 12.4803 5.75273 12.3024C5.96367 12.1831 6.39094 12.0659 6.90023 11.7697C8.02336 11.1261 8.46234 10.0882 9.71531 9.35418C10.0765 9.14746 10.4824 8.95996 10.8084 8.95996C11.1855 8.95996 11.5455 9.05793 11.8097 9.49246L16.9305 18.3608C17.0775 18.6132 16.9954 18.9444 16.7367 19.0892ZM19.8754 17.0445C19.4397 17.0445 19.0338 16.8399 18.6865 16.6311C17.4719 15.9376 16.7479 14.5241 15.4284 13.9904L14.5905 12.5616L16.3638 9.50207C16.6162 9.05793 16.9879 8.95996 17.3651 8.95996C17.6911 8.95996 18.0874 9.14746 18.4561 9.35418C19.7111 10.0882 20.1384 11.1261 21.2733 11.7697C21.7729 12.0659 22.2077 12.1831 22.4186 12.3024C22.7393 12.4899 22.9172 12.837 22.6978 13.2076L20.7904 16.4895C20.5774 16.8591 20.3058 17.0445 19.8754 17.0445ZM11.4347 19.0892C11.1684 18.9444 11.0939 18.6132 11.2409 18.3608L12.9759 15.3755L13.5829 16.4234L12.1514 18.8858C12.0044 19.1595 11.6871 19.2479 11.4347 19.0892Z" fill="white"/>
</svg>
