<svg width="29" height="28" viewBox="0 0 29 28" fill="none" xmlns="http://www.w3.org/2000/svg">
<path d="M10.0781 24.8972H18.375C25.3835 24.8972 28.4435 21.7359 28.4435 15.0246V6.82921C28.4435 4.32656 27.1287 3.02344 24.5993 3.02344H3.84421C1.31484 3.02344 0 4.31695 0 6.82921V15.0246C0 21.7359 3.06 24.8972 10.0781 24.8972ZM10.1182 22.5799C4.66335 22.5799 2.29592 20.2083 2.29592 15.108V7.01999C2.29592 5.89827 2.89616 5.31936 3.97733 5.31936H24.4662C25.5399 5.31936 26.1476 5.89827 26.1476 7.01999V15.108C26.1476 20.2083 23.7802 22.5799 18.3253 22.5799H10.1182Z" fill="black"/>
<path d="M6.55546 19.2629C7.24194 19.2629 7.61858 18.8319 7.61858 18.0955V15.4571H9.53672L11.4323 18.5523C11.7621 19.0778 12.026 19.2629 12.4868 19.2629C13.0561 19.2629 13.4583 18.8926 13.4583 18.3627C13.4583 18.0838 13.3891 17.8773 13.222 17.626L11.5887 15.1201C12.9176 14.6842 13.7841 13.4917 13.7841 12.0584C13.7841 9.96707 12.2892 8.66794 9.87656 8.66794H6.6314C5.89546 8.66794 5.52539 9.14583 5.52539 9.89348V18.0955C5.52539 18.8148 5.8882 19.2629 6.55546 19.2629ZM7.61858 13.9152V10.2558H9.61265C10.8391 10.2558 11.6402 10.9362 11.6402 12.1074C11.6402 13.2636 10.8541 13.9152 9.57421 13.9152H7.61858ZM16.6268 19.1331H20.0592C22.3837 19.1331 23.898 17.9802 23.898 16.1994C23.898 14.7866 22.9624 13.8137 21.4249 13.6187V13.542C22.583 13.2819 23.3062 12.3868 23.3062 11.2318C23.3062 9.66966 22.035 8.65833 20.0426 8.65833H16.6268C15.8503 8.65833 15.413 9.08817 15.413 9.87426V17.915C15.413 18.6936 15.8482 19.1331 16.6268 19.1331ZM17.4804 13.0428V10.155H19.5284C20.6086 10.155 21.2644 10.6946 21.2644 11.5669C21.2644 12.5171 20.4975 13.0428 19.0854 13.0428H17.4804ZM17.4762 17.6047V14.4184H19.7002C20.9949 14.4184 21.7531 15.0177 21.7531 16.0447C21.7531 17.1036 20.9393 17.6047 19.2112 17.6047H17.4762Z" fill="black"/>
</svg>
