<svg width="28" height="28" viewBox="0 0 28 28" fill="none" xmlns="http://www.w3.org/2000/svg">
<path d="M6.84421 24.8972H21.0295C23.5685 24.8972 24.8737 23.5919 24.8737 21.0914V6.82921C24.8737 4.32656 23.5685 3.02344 21.0295 3.02344H6.84421C4.31484 3.02344 3 4.31695 3 6.82921V21.0914C3 23.6016 4.31484 24.8972 6.84421 24.8972ZM6.97733 22.6013C5.88772 22.6013 5.29592 22.0371 5.29592 20.8985V7.01999C5.29592 5.88139 5.88772 5.31936 6.97733 5.31936H20.8964C21.9764 5.31936 22.5778 5.88139 22.5778 7.01999V20.8985C22.5778 22.0371 21.9764 22.6013 20.8964 22.6013H6.97733Z" fill="black"/>
<path d="M13.9426 20.1408C17.316 20.1408 20.129 17.3278 20.129 13.9544C20.129 10.5865 17.3106 7.77026 13.9426 7.77026C10.5693 7.77026 7.76807 10.5811 7.76807 13.9544C7.76807 17.3161 10.581 20.1408 13.9426 20.1408ZM13.9426 18.0785C11.71 18.0785 9.82821 16.1967 9.82821 13.9544C9.82821 11.7005 11.6983 9.83041 13.9426 9.83041C16.1849 9.83041 18.0571 11.7122 18.0571 13.9544C18.0571 16.2105 16.1987 18.0785 13.9426 18.0785Z" fill="black"/>
</svg>
