<svg width="28" height="28" viewBox="0 0 28 28" fill="none" xmlns="http://www.w3.org/2000/svg">
<path d="M18.6786 2.74577L25.5748 9.6495L25.644 9.57825C27.5431 7.68873 27.365 4.79537 25.4478 2.8878C23.5327 0.974834 20.6373 0.796709 18.7498 2.67452L18.6786 2.74577ZM3.40834 22.438L5.87841 24.9059L7.23146 23.5508C10.1276 20.6515 13.6564 21.5754 16.827 18.4048L24.5276 10.7063L17.6143 3.79084L9.91366 11.5011C6.57921 14.8355 7.66601 18.1803 4.76561 21.0807L3.40834 22.438ZM13.678 14.6907C12.9015 13.9163 12.9186 12.7273 13.678 11.97L17.255 8.37169C18.0144 7.61232 19.1991 7.59521 19.9405 8.37169C20.7233 9.10974 20.7212 10.2807 19.9447 11.0593L16.3634 14.6715C15.6083 15.4224 14.4214 15.4362 13.678 14.6907ZM11.0675 15.9172C10.7352 15.6019 10.8034 15.1515 11.0696 14.8735C11.3476 14.5838 11.7788 14.5582 12.1016 14.8735L13.4504 16.2085C13.7816 16.5279 13.7326 16.9784 13.4504 17.266C13.1841 17.5301 12.7454 17.5716 12.4067 17.2425L11.0675 15.9172ZM14.5934 13.7539C14.8526 14.0131 15.2356 14.0846 15.5141 13.8136L19.0986 10.2036C19.377 9.92513 19.2959 9.55059 19.0409 9.29677C18.7583 9.03755 18.3699 9.0045 18.0894 9.28505L14.5934 12.7969C14.3225 13.0657 14.3225 13.4829 14.5934 13.7539ZM1.57155 26.7427C2.31334 27.5079 3.31576 27.5079 4.06506 26.7406L4.66599 26.1472L2.17882 23.6579L1.57155 24.2651C0.810538 25.0262 0.808429 26.0105 1.57155 26.7427Z" fill="black"/>
</svg>
