<svg width="28" height="28" viewBox="0 0 28 28" fill="none" xmlns="http://www.w3.org/2000/svg">
<path d="M8.84902 8.60234C9.08831 8.60234 9.28612 8.43968 9.32761 8.19289C9.72183 6.10437 9.64636 6.18945 11.7306 5.77601C11.9837 5.73452 12.1539 5.53882 12.1539 5.29531C12.1539 5.0539 11.9837 4.8657 11.7306 4.82211C9.64636 4.41289 9.72183 4.49797 9.32761 2.41367C9.28612 2.16055 9.08831 2 8.84902 2C8.6055 2 8.4098 2.16055 8.36621 2.41367C7.97199 4.49797 8.04957 4.41289 5.96105 4.82422C5.71215 4.8657 5.54199 5.0539 5.54199 5.29531C5.54199 5.53671 5.71004 5.73452 5.96105 5.77601C8.04957 6.18945 7.97199 6.10437 8.36621 8.19289C8.4098 8.4439 8.60761 8.60234 8.84902 8.60234ZM21.6662 26.2986C21.9608 26.2986 22.2098 26.0794 22.2512 25.7752C22.6115 23.0176 22.5916 23.041 25.5693 22.4689C25.8714 22.4136 26.0884 22.1806 26.0884 21.8881C26.0884 21.5839 25.8672 21.3584 25.5533 21.3073C22.6457 20.8981 22.6019 20.866 22.2512 18.0212C22.2236 17.7052 21.9747 17.4819 21.6662 17.4819C21.3503 17.4819 21.111 17.7148 21.0834 18.0329C20.7487 20.7716 20.7365 20.7448 17.7536 21.3094C17.4536 21.3723 17.2483 21.6116 17.2483 21.8881C17.2483 22.1944 17.4674 22.4136 17.8047 22.471C20.7027 22.9388 20.7466 22.9751 21.0834 25.7476C21.111 26.0635 21.3503 26.2986 21.6662 26.2986Z" fill="black"/>
<path d="M18.8409 14.5555C19.1985 14.6342 19.5658 14.6619 19.9469 14.6619C23.091 14.6619 25.6408 12.1259 25.6408 8.99142C25.6408 5.85478 23.0952 3.30713 19.9469 3.30713C16.8198 3.30713 14.2743 5.85478 14.2743 8.99142C14.2743 9.34814 14.3041 9.72079 14.3711 10.0878H16.4195C16.3164 9.72079 16.2611 9.36736 16.2611 8.99142C16.2611 6.94767 17.9052 5.29181 19.9469 5.29181C22.0119 5.29181 23.654 6.93595 23.654 8.99142C23.654 11.0352 21.9906 12.6772 19.9469 12.6772C19.6201 12.6772 19.3145 12.6432 19.0164 12.5422L18.8409 14.5555ZM15.2118 18.2731C17.8073 18.2731 19.9054 16.1846 19.9054 13.5816C19.9054 10.9883 17.8073 8.88807 15.2118 8.88807C12.6184 8.88807 10.5224 10.9883 10.5224 13.5816C10.5224 16.1825 12.6205 18.2731 15.2118 18.2731ZM15.2118 16.2863C13.7113 16.2863 12.5071 15.0917 12.5071 13.5816C12.5071 12.0791 13.7113 10.8748 15.2118 10.8748C16.7123 10.8748 17.9186 12.0812 17.9186 13.5816C17.9186 15.0917 16.7144 16.2863 15.2118 16.2863ZM4.22781 15.2169C5.9828 15.2169 7.44601 13.7654 7.44601 11.9891C7.44601 10.232 5.9828 8.78049 4.22781 8.78049C2.45148 8.78049 1 10.232 1 11.9891C1 13.7654 2.45148 15.2169 4.22781 15.2169ZM4.22781 13.2744C3.51906 13.2744 2.94038 12.6978 2.94038 11.9891C2.94038 11.2995 3.51906 10.723 4.22781 10.723C4.92695 10.723 5.50351 11.2995 5.50351 11.9891C5.50351 12.6978 4.92695 13.2744 4.22781 13.2744ZM8.83187 25.8962C10.7158 25.8962 12.2727 24.335 12.2727 22.4298C12.2727 20.5459 10.7158 18.9889 8.83187 18.9889C6.92453 18.9889 5.36758 20.5437 5.36758 22.4298C5.36758 24.3371 6.92453 25.8962 8.83187 25.8962ZM8.83398 23.9546C7.98366 23.9546 7.2953 23.2759 7.2953 22.4298C7.2953 21.605 7.99538 20.9187 8.83398 20.9187C9.65453 20.9187 10.3408 21.605 10.3408 22.4298C10.3408 23.2545 9.65453 23.9546 8.83398 23.9546Z" fill="black"/>
</svg>
