<svg width="28" height="29" viewBox="0 0 28 29" fill="none" xmlns="http://www.w3.org/2000/svg">
<path d="M9.05241 12.7137H19.0066C19.4577 12.7137 19.8377 12.3412 19.8377 11.8901C19.8377 11.4368 19.4577 11.0569 19.0066 11.0569H9.05241C8.60124 11.0569 8.21921 11.4368 8.21921 11.8901C8.21921 12.3412 8.60124 12.7137 9.05241 12.7137ZM9.05241 16.8612H19.0066C19.4695 16.8612 19.8377 16.493 19.8377 16.0301C19.8377 15.5768 19.4673 15.2182 19.0066 15.2182H9.05241C8.59163 15.2182 8.21921 15.5768 8.21921 16.0301C8.21921 16.493 8.58741 16.8612 9.05241 16.8612ZM9.05241 21.2334H14.1501C14.6012 21.2334 14.9737 20.8631 14.9737 20.4098C14.9737 19.9587 14.613 19.5905 14.1501 19.5905H9.05241C8.59163 19.5905 8.21921 19.9587 8.21921 20.4098C8.21921 20.8631 8.60124 21.2334 9.05241 21.2334ZM7.80999 28.6413H20.2448C22.7359 28.6413 24.0569 27.3087 24.0569 24.7802V7.05046C24.0569 4.57219 22.7765 3.18938 20.3526 3.18938H20.0882C20.1316 3.33586 20.1484 3.5025 20.1484 3.66796V4.75429C20.1484 4.99663 20.1219 5.23265 20.0573 5.43679H20.3048C21.2987 5.43679 21.8095 6.08202 21.8095 7.0739V24.7568C21.8095 25.8063 21.239 26.3939 20.1468 26.3939H7.91007C6.81577 26.3939 6.24741 25.8063 6.24741 24.7568V7.0739C6.24741 6.08202 6.75811 5.43679 7.7521 5.43679H7.99749C7.93281 5.23265 7.90632 4.99663 7.90632 4.75429V3.66796C7.90632 3.5025 7.9232 3.33586 7.96866 3.18938H7.70218C5.28039 3.18938 4 4.57219 4 7.05046V24.7802C4 27.3087 5.31882 28.6413 7.80999 28.6413ZM10.4158 6.10078H17.639C18.344 6.10078 18.7689 5.65031 18.7689 4.89843V3.66796C18.7689 2.91398 18.344 2.46562 17.639 2.46562H16.6452C16.5569 1.10344 15.4258 0 14.0284 0C12.6311 0 11.5 1.10344 11.4116 2.46562H10.4158C9.71288 2.46562 9.28796 2.91398 9.28796 3.66796V4.89843C9.28796 5.65031 9.71288 6.10078 10.4158 6.10078ZM14.0284 3.59578C13.4575 3.59578 12.9941 3.1207 12.9941 2.56359C12.9941 1.98515 13.4575 1.52179 14.0284 1.52179C14.5994 1.52179 15.0606 1.98515 15.0606 2.56359C15.0606 3.1207 14.5994 3.59578 14.0284 3.59578Z" fill="black"/>
</svg>
