<svg width="28" height="28" viewBox="0 0 28 28" fill="none" xmlns="http://www.w3.org/2000/svg">
<path d="M14.105 26.21C20.7369 26.21 26.2121 20.7273 26.2121 14.105C26.2121 7.47312 20.7273 2 14.0954 2C7.47523 2 2 7.47312 2 14.105C2 20.7273 7.48484 26.21 14.105 26.21ZM14.105 23.8255C8.71085 23.8255 4.39412 19.4991 4.39412 14.105C4.39412 8.71085 8.70124 4.38452 14.0954 4.38452C19.4895 4.38452 23.8276 8.71085 23.8276 14.105C23.8276 19.4991 19.4991 23.8255 14.105 23.8255Z" fill="black"/>
<path d="M8.72324 11.101C8.34191 11.818 8.44527 12.1653 9.11418 12.5349L11.9028 14.0464L9.10457 15.6678C8.42816 16.0545 8.33441 16.3998 8.73918 17.1071L8.80902 17.2341C9.20957 17.949 9.56652 18.0385 10.2387 17.6305L12.9219 16.0763V19.2005C12.9198 19.9974 13.183 20.2531 14.0255 20.2531H14.1802C14.9994 20.2531 15.2647 19.9974 15.2647 19.1984V16.0763L17.9478 17.6305C18.6488 18.0577 18.9962 17.9607 19.3775 17.2341L19.4452 17.1071C19.8191 16.388 19.7349 16.047 19.0798 15.6678L16.2816 14.0464L19.0702 12.5349C19.7487 12.1653 19.8446 11.8138 19.4633 11.101L19.3817 10.9515C19.0079 10.2313 18.6509 10.1216 17.9265 10.5573L15.2647 12.1114V8.99353C15.2647 8.21798 14.9994 7.96228 14.1802 7.96228H14.0255C13.1872 7.96228 12.9219 8.21798 12.9219 8.99353V12.1114L10.2579 10.5573C9.53137 10.1354 9.17441 10.2292 8.80269 10.9515L8.72324 11.101Z" fill="black"/>
</svg>
