<svg width="28" height="28" viewBox="0 0 28 28" fill="none" xmlns="http://www.w3.org/2000/svg">
<path d="M14.2094 26.903H14.5622C16.2586 26.903 16.9155 26.3874 16.9155 24.6753V17.0827L15.4701 17.8958L22.023 21.6849C22.5598 21.9734 22.9994 22.1619 23.3955 22.1619C24.0633 22.1619 24.5423 21.7102 25.094 20.8552L25.2731 20.5534C25.631 19.9986 25.8131 19.5012 25.8131 19.0902C25.8131 18.3917 25.3265 17.8827 24.4821 17.4184L17.7222 13.5378V15.1862L24.4725 11.4636C25.3223 11.0089 25.7716 10.5073 25.7716 9.81733C25.7716 9.40413 25.5895 8.92601 25.2818 8.37757L25.0985 8.05438C24.5543 7.16305 24.0527 6.71047 23.3904 6.71047C22.9964 6.71047 22.5396 6.8968 22.0092 7.1832L15.4882 10.985L16.9155 11.7917V4.22562C16.9155 2.51141 16.2586 2 14.5622 2H14.2094C12.5131 2 11.8582 2.51562 11.8582 4.22773V11.777L13.3355 10.9913L6.77202 7.18531C6.23952 6.87758 5.74007 6.67953 5.32054 6.67953C4.65492 6.67953 4.10859 7.13328 3.66046 8.06727L3.4868 8.36913C3.21211 8.92507 3.03961 9.4107 3.03961 9.82179C3.03961 10.4935 3.47062 10.9993 4.32258 11.4732L11.0655 15.1841V13.5378L4.31086 17.4184C3.47062 17.8827 3 18.38 3 19.0583C3 19.4736 3.19172 19.9688 3.50906 20.5311L3.68906 20.8243C4.20234 21.7093 4.69429 22.1694 5.38335 22.1694C5.77523 22.1694 6.23319 21.9776 6.7603 21.6912L13.3228 17.8936L11.8582 17.089V24.6774C11.8582 26.3895 12.5131 26.903 14.2094 26.903Z" fill="black"/>
</svg>
