<svg width="28" height="28" viewBox="0 0 28 28" fill="none" xmlns="http://www.w3.org/2000/svg">
<path d="M14.105 26.2301C20.7369 26.2301 26.2121 20.7549 26.2121 14.123C26.2121 7.50291 20.7273 2.01807 14.0954 2.01807C7.47523 2.01807 2 7.50291 2 14.123C2 20.7549 7.48484 26.2301 14.105 26.2301Z" fill="black"/>
<path d="M8.51934 11.0063L8.61262 10.8484C9.00028 10.0867 9.37106 10.0025 10.1274 10.4307L12.8839 12.0477V8.82338C12.8839 8.00635 13.163 7.73682 14.0311 7.73682H14.206C15.0549 7.73682 15.334 8.00635 15.334 8.82338V12.0477L18.0905 10.4307C18.8543 9.9812 19.2251 10.0888 19.6053 10.8484L19.6986 11.0063C20.0883 11.7488 19.9904 12.1163 19.2821 12.4998L16.3871 14.0644L19.2917 15.7391C19.9744 16.1342 20.0586 16.4912 19.6805 17.2379L19.5968 17.3809C19.2113 18.1372 18.848 18.2363 18.1118 17.8027L15.334 16.1837V19.4164C15.334 20.2452 15.0549 20.5147 14.206 20.5147H14.0311C13.1609 20.5147 12.8818 20.2452 12.8839 19.4185V16.1837L10.1061 17.8027C9.40622 18.2171 9.03754 18.1234 8.61895 17.3809L8.547 17.2379C8.12419 16.5029 8.22005 16.1513 8.92622 15.7391L11.8308 14.0644L8.93583 12.4998C8.22755 12.1259 8.13169 11.7627 8.51934 11.0063Z" fill="white"/>
</svg>
