<svg width="28" height="28" viewBox="0 0 28 28" fill="none" xmlns="http://www.w3.org/2000/svg">
<path d="M13.5142 4.02155C14.35 4.02155 15.025 3.35078 15.025 2.51289C15.025 1.675 14.35 1 13.5142 1C12.6763 1 12.0034 1.675 12.0034 2.51289C12.0034 3.35078 12.6763 4.02155 13.5142 4.02155ZM18.2664 5.29163C18.9808 5.71538 19.9028 5.47796 20.3266 4.74437C20.7407 4.01617 20.5012 3.09414 19.7751 2.68C19.0511 2.25625 18.1291 2.5075 17.7074 3.23148C17.2912 3.95547 17.5307 4.87749 18.2664 5.29163ZM21.7389 8.76414C22.1509 9.49984 23.073 9.74148 23.7991 9.32523C24.5252 8.91109 24.7722 7.97734 24.3505 7.25125C23.9364 6.52938 23.0219 6.29195 22.2883 6.70398C21.5547 7.12562 21.3131 8.04015 21.7389 8.76414ZM23.009 13.5163C23.009 14.3542 23.6798 15.0292 24.5177 15.0292C25.3459 15.0292 26.0305 14.3542 26.0305 13.5142C26.0305 12.6784 25.3534 12.0173 24.5198 12.0077C23.6819 12.0077 23.009 12.6784 23.009 13.5163ZM21.741 18.2589C21.3173 18.9808 21.5526 19.9049 22.2862 20.3287C23.0144 20.7449 23.9364 20.4937 24.3527 19.7676C24.7722 19.0436 24.523 18.1408 23.8012 17.7095C23.0772 17.2837 22.153 17.5328 21.741 18.2589ZM18.2685 21.741C17.5349 22.1552 17.2912 23.0655 17.7032 23.8012C18.1216 24.5273 19.0511 24.7743 19.7814 24.3505C20.5033 23.9364 20.729 23.0261 20.3287 22.2829C19.907 21.5547 18.9925 21.3173 18.2685 21.741ZM13.5142 23.0111C12.6763 23.0111 12.0034 23.6723 12.0034 24.5198C12.0034 25.3577 12.6763 26.0327 13.5142 26.0327C14.35 26.0327 15.025 25.3577 15.025 24.5198C15.025 23.6723 14.35 23.0111 13.5142 23.0111ZM8.77164 21.7389C8.04554 21.3173 7.12562 21.5547 6.70398 22.2787C6.28774 23.0165 6.52727 23.9385 7.26086 24.3505C7.98484 24.7764 8.89937 24.5252 9.32312 23.8012C9.73726 23.0676 9.49773 22.1552 8.77164 21.7389ZM5.28952 18.2568C4.87539 17.5328 3.96507 17.2858 3.23148 17.7074C2.50328 18.1216 2.25414 19.0457 2.67789 19.7772C3.08992 20.4937 4.00656 20.7407 4.74976 20.3287C5.47374 19.907 5.71327 18.9946 5.28952 18.2568ZM4.02155 13.5163C4.02155 12.6784 3.34656 12.0077 2.51289 12.0077C1.6825 12.0077 1 12.6784 1 13.5142C1 14.3542 1.675 15.0196 2.51078 15.0292C3.34656 15.0292 4.02155 14.3542 4.02155 13.5163ZM5.29374 8.77585C5.71327 8.04015 5.47374 7.12773 4.75187 6.70609C4.01617 6.29195 3.08992 6.52727 2.68 7.25125C2.25414 7.97734 2.5075 8.89187 3.22937 9.32523C3.96507 9.73726 4.87539 9.49773 5.29374 8.77585ZM8.77585 5.29374C9.49773 4.87539 9.73515 3.95757 9.32523 3.23359C8.90898 2.5075 7.98695 2.25414 7.26508 2.68C6.52727 3.09414 6.29945 4.00656 6.69977 4.74226C7.12773 5.47796 8.03804 5.71327 8.77585 5.29374ZM13.4929 20.7339C17.5073 20.7339 20.7243 17.5094 20.7126 13.5046C20.7126 9.50945 17.4881 6.28491 13.4833 6.28491C9.48062 6.28491 6.27319 9.49984 6.27319 13.5046C6.27319 17.519 9.49023 20.7339 13.4929 20.7339Z" fill="black"/>
</svg>
