<svg width="28" height="28" viewBox="0 0 28 28" fill="none" xmlns="http://www.w3.org/2000/svg">
<path d="M1 15.9758C1 18.3034 2.1782 19.4891 4.47483 19.4891H8.43461V23.4489C8.43461 25.7476 9.62242 26.9237 11.9479 26.9237H15.9683C18.2959 26.9237 19.4816 25.7476 19.4816 23.4489V19.4891H23.4393C25.738 19.4891 26.9141 18.3034 26.9141 15.9758V11.9554C26.9141 9.62992 25.738 8.44211 23.4393 8.44211H19.4816V4.47483C19.4816 2.1782 18.2959 1 15.9683 1H11.9479C9.62242 1 8.43461 2.1782 8.43461 4.47483V8.44211H4.47483C2.1782 8.44211 1 9.62992 1 11.9554V15.9758ZM3.36342 15.7445V12.1867C3.36342 11.2818 3.81764 10.8266 4.74272 10.8266H10.8191V4.74272C10.8191 3.81764 11.2743 3.36342 12.1792 3.36342H15.737C16.6419 3.36342 17.0971 3.81764 17.0971 4.74272V10.8266H23.1714C24.0965 10.8266 24.5507 11.2818 24.5507 12.1867V15.7445C24.5507 16.6494 24.0965 17.1046 23.1714 17.1046H17.0971V23.1906C17.0971 24.1178 16.6419 24.5624 15.737 24.5624H12.1792C11.2743 24.5624 10.8191 24.1178 10.8191 23.1906V17.1046H4.74272C3.81764 17.1046 3.36342 16.6494 3.36342 15.7445Z" fill="black"/>
</svg>
