<svg width="28" height="28" viewBox="0 0 28 28" fill="none" xmlns="http://www.w3.org/2000/svg">
<path d="M14.105 26.2301C20.7369 26.2301 26.2121 20.7549 26.2121 14.123C26.2121 7.50291 20.7273 2.01807 14.0954 2.01807C7.47523 2.01807 2 7.50291 2 14.123C2 20.7549 7.48484 26.2301 14.105 26.2301Z" fill="black"/>
<path d="M13.9281 14.1734L10.2015 10.4468L12.054 8.57301C13.2259 7.40113 14.7418 7.38191 15.8701 8.51441C17.0005 9.60965 16.9909 11.1511 15.8157 12.3071L13.9281 14.1734ZM13.2156 14.9052L11.33 16.7832C10.1581 17.9455 8.64755 17.9743 7.52138 16.8673C6.41021 15.7466 6.44115 14.2306 7.6088 13.0609L9.47935 11.1572L13.2156 14.9052ZM21.0983 16.4375H14.5867C14.8274 14.8756 16.1921 13.6503 17.8339 13.6503C19.495 13.6503 20.8651 14.8756 21.0983 16.4375ZM21.0983 17.4472C20.8651 19.0069 19.5046 20.2344 17.8339 20.2344C16.1825 20.2344 14.8274 19.0069 14.5867 17.4472H21.0983Z" fill="white"/>
</svg>
