<svg width="28" height="28" viewBox="0 0 28 28" fill="none" xmlns="http://www.w3.org/2000/svg">
<path d="M5 19.8246C5 23.213 7.0789 25.3113 10.381 25.3113C12.8525 25.3113 14.6799 24.1894 15.8417 22.0748L16.8837 20.1881C19.1961 15.9305 23.3354 15.123 23.3354 9.29367C23.3354 3.72492 19.7066 0 14.2723 0C8.73242 0 5 3.75258 5 9.35952V19.8246ZM7.05429 19.7264V9.35952C7.05429 4.97062 9.94085 2.05429 14.2723 2.05429C18.481 2.05429 21.2811 4.96007 21.2811 9.29367C21.2811 14.1232 17.483 14.9627 15.0212 19.3153L14.0501 21.015C13.2308 22.4829 12.1002 23.2165 10.4757 23.2165C8.34147 23.2165 7.05429 21.8993 7.05429 19.7264ZM9.57569 15.2885C10.0983 15.2885 10.5233 14.8636 10.5233 14.3388V9.29765C10.5233 7.13413 12.005 5.7028 14.2627 5.7028C16.4434 5.7028 17.8555 7.11819 17.8555 9.27867C17.8555 9.79499 18.2792 10.2262 18.7955 10.2262C19.3077 10.2262 19.741 9.79499 19.741 9.27867C19.741 6.01523 17.5505 3.82148 14.2627 3.82148C10.902 3.82148 8.63772 6.02155 8.63772 9.29765V14.3388C8.63772 14.8636 9.05093 15.2885 9.57569 15.2885ZM9.45874 11.9135H13.2214C13.9845 11.9135 14.4673 12.3729 14.4673 13.0465C14.4673 13.4098 14.2883 13.8682 14.0134 14.2017L12.6809 15.8784C12.5159 16.0903 12.4276 16.3202 12.4276 16.5513C12.4276 17.0592 12.8567 17.4766 13.3751 17.4766C13.6658 17.4766 13.9362 17.3276 14.1418 17.0709L15.5914 15.2323C16.0845 14.6102 16.403 13.7069 16.403 12.9719C16.403 11.2198 15.1238 10.0364 13.1959 10.0364H9.45874V11.9135Z" fill="black"/>
</svg>
