<svg width="28" height="28" viewBox="0 0 28 28" fill="none" xmlns="http://www.w3.org/2000/svg">
<path d="M14.105 26.21C20.7369 26.21 26.2121 20.7273 26.2121 14.105C26.2121 7.47312 20.7273 2 14.0954 2C7.47523 2 2 7.47312 2 14.105C2 20.7273 7.48484 26.21 14.105 26.21ZM14.105 23.8255C8.71085 23.8255 4.39412 19.4991 4.39412 14.105C4.39412 8.71085 8.70124 4.38452 14.0954 4.38452C19.4895 4.38452 23.8276 8.71085 23.8276 14.105C23.8276 19.4991 19.4991 23.8255 14.105 23.8255Z" fill="black"/>
<path d="M11.3348 9.01501C9.39534 9.01501 7.96777 10.4876 7.96777 12.5597C7.96777 15.7514 11.4121 18.5304 13.4917 19.8408C13.7027 19.9558 13.9593 20.1199 14.1264 20.1199C14.2914 20.1199 14.5363 19.9654 14.7185 19.8408C16.7831 18.5036 20.2446 15.7514 20.2446 12.5597C20.2446 10.4876 18.817 9.01501 16.8754 9.01501C15.6269 9.01501 14.6636 9.73829 14.1051 10.7414C13.5466 9.73829 12.595 9.01501 11.3348 9.01501Z" fill="black"/>
</svg>
