<svg width="28" height="28" viewBox="0 0 28 28" fill="none" xmlns="http://www.w3.org/2000/svg">
<path d="M1 15.8727C1 17.4144 2.05445 18.4476 3.60577 18.4476H8.69171V23.5431C8.69171 25.0965 9.72272 26.1372 11.2644 26.1372H15.8844C17.4261 26.1372 18.4593 25.0965 18.4593 23.5431V18.4476H23.5548C25.1083 18.4476 26.1489 17.4144 26.1489 15.8727V11.2527C26.1489 9.71101 25.1083 8.67789 23.5548 8.67789H18.4593V3.59405C18.4593 2.04273 17.4261 1 15.8844 1H11.2644C9.72272 1 8.69171 2.04273 8.69171 3.59405V8.67789H3.59405C2.04273 8.67789 1 9.71101 1 11.2527V15.8727Z" fill="black"/>
</svg>
