<svg width="28" height="29" viewBox="0 0 28 29" fill="none" xmlns="http://www.w3.org/2000/svg">
<path d="M10.1543 5.76491H18.3012C19.6587 5.76491 20.4668 4.94506 20.4668 3.56202V2.19867C20.4668 0.819842 19.6587 0 18.3012 0H10.1543C8.80641 0 8.00039 0.819842 8.00039 2.19867V3.56202C8.00039 4.94506 8.80641 5.76491 10.1543 5.76491ZM10.2455 7.9378H18.2196V5.00647H10.2455V7.9378ZM9.96445 28.5398H18.5006C20.887 28.5398 22.4651 26.9437 22.4651 24.5168V11.3037C22.4651 8.8746 20.887 7.27851 18.5006 7.27851H9.96445C7.58015 7.27851 6 8.8746 6 11.3037V24.5168C6 26.9437 7.58015 28.5398 9.96445 28.5398Z" fill="black"/>
<path d="M9.72656 18.6961V17.1244C9.72656 16.5665 10.0938 16.2185 10.6324 16.2185H12.5339V14.3266C12.5339 13.7763 12.8841 13.4187 13.4419 13.4187H15.0136C15.5714 13.4187 15.9216 13.7763 15.9216 14.3266V16.2185H17.823C18.352 16.2185 18.7385 16.5665 18.7385 17.1244V18.6961C18.7385 19.2539 18.352 19.6062 17.823 19.6062H15.9216V21.4959C15.9216 22.0441 15.5714 22.4114 15.0136 22.4114H13.4419C12.8841 22.4114 12.5339 22.0441 12.5339 21.4959V19.6062H10.6324C10.0938 19.6062 9.72656 19.2539 9.72656 18.6961Z" fill="white"/>
</svg>
