<svg width="29" height="28" viewBox="0 0 29 28" fill="none" xmlns="http://www.w3.org/2000/svg">
<path d="M1.72588 19.7769C4.04853 22.0783 7.09939 22.09 9.39321 19.7983L18.1333 11.0561C20.4208 8.76863 20.4208 5.67418 18.112 3.38669C15.7989 1.08747 12.7363 1.08536 10.4446 3.37708L1.71416 12.1096C-0.573336 14.3971 -0.573336 17.4915 1.72588 19.7769ZM3.38149 18.1213C2.07133 16.8091 2.1161 15.003 3.48485 13.6342L11.9692 5.14988C13.3422 3.7673 15.1483 3.72253 16.4563 5.04441C17.7761 6.36629 17.7314 8.16067 16.3509 9.54114L7.87822 18.0159C6.49564 19.3984 4.69915 19.4432 3.38149 18.1213ZM6.12909 9.43801L12.0745 15.3737L13.7301 13.716L7.7847 7.78029L6.12909 9.43801ZM21.9025 26.5689C25.5735 26.5689 28.5278 23.6104 28.5278 19.949C28.5278 16.3248 25.5597 13.3546 21.9025 13.3546C18.2666 13.3546 15.2964 16.3248 15.2964 19.949C15.2964 23.5965 18.2645 26.5689 21.9025 26.5689ZM21.9025 24.2708C19.5236 24.2708 17.5923 22.3321 17.5923 19.949C17.5923 17.5818 19.5332 15.6526 21.9025 15.6526C24.291 15.6526 26.2319 17.5818 26.2319 19.949C26.2319 22.3513 24.3048 24.2708 21.9025 24.2708ZM16.4978 21.0934H27.3147V18.8162H16.4978V21.0934Z" fill="black"/>
</svg>
