<svg width="28" height="28" viewBox="0 0 28 28" fill="none" xmlns="http://www.w3.org/2000/svg">
<path d="M6.84421 24.8972H21.0295C23.5685 24.8972 24.8737 23.5919 24.8737 21.0914V6.82921C24.8737 4.32656 23.5685 3.02344 21.0295 3.02344H6.84421C4.31484 3.02344 3 4.31695 3 6.82921V21.0914C3 23.6016 4.31484 24.8972 6.84421 24.8972ZM6.97733 22.6013C5.88772 22.6013 5.29592 22.0371 5.29592 20.8985V7.01999C5.29592 5.88139 5.88772 5.31936 6.97733 5.31936H20.8964C21.9764 5.31936 22.5778 5.88139 22.5778 7.01999V20.8985C22.5778 22.0371 21.9764 22.6013 20.8964 22.6013H6.97733Z" fill="black"/>
<path d="M9.15394 7.2417C8.22675 7.2417 7.52246 7.97061 7.52246 8.98921C7.52246 10.5443 9.22636 11.8486 10.2304 12.539C10.3455 12.6169 10.4627 12.6776 10.5415 12.6776C10.6298 12.6776 10.7299 12.6051 10.8332 12.539C11.8544 11.9222 13.5316 10.5443 13.5316 8.98921C13.5316 7.97061 12.8315 7.2417 11.8809 7.2417C11.2854 7.2417 10.7983 7.60499 10.5318 8.10608C10.2579 7.60499 9.79004 7.2417 9.15394 7.2417ZM8.28183 16.2633H19.5C19.9228 16.2633 20.2455 15.9363 20.2455 15.5135C20.2455 15.1024 19.9228 14.7797 19.5 14.7797H8.28183C7.84519 14.7797 7.52246 15.1024 7.52246 15.5135C7.52246 15.9363 7.84519 16.2633 8.28183 16.2633ZM8.28183 20.1277H16.5741C16.9969 20.1277 17.3217 19.8049 17.3217 19.3938C17.3217 18.971 16.9969 18.6441 16.5741 18.6441H8.28183C7.84519 18.6441 7.52246 18.971 7.52246 19.3938C7.52246 19.8049 7.84519 20.1277 8.28183 20.1277Z" fill="black"/>
</svg>
