<svg width="28" height="28" viewBox="0 0 28 28" fill="none" xmlns="http://www.w3.org/2000/svg">
<path d="M13.8371 25.6355C14.1359 25.6355 14.5719 25.4081 14.9309 25.1862C21.4833 20.9674 25.6838 16.0235 25.6838 11.0166C25.6838 6.7057 22.7075 3.71484 18.9634 3.71484C16.6402 3.71484 14.8909 4.99945 13.8371 6.92461C12.8026 5.00906 11.0457 3.71484 8.71085 3.71484C4.97632 3.71484 2 6.7057 2 11.0166C2 16.0235 6.20047 20.9674 12.7529 25.1862C13.1023 25.4081 13.5479 25.6355 13.8371 25.6355Z" fill="black"/>
<path d="M9.89844 15.7777C9.89844 15.6424 9.95704 15.5285 10.055 15.4092L14.8527 9.43472C15.2413 8.95027 15.8907 9.28237 15.665 9.88612L14.1092 14.0391H17.03C17.2696 14.0391 17.4793 14.2254 17.4793 14.4553C17.4793 14.5809 17.4207 14.7162 17.3132 14.8237L12.5272 20.8003C12.1269 21.2827 11.4795 20.943 11.701 20.3489L13.2685 16.1864H10.3402C10.0965 16.1864 9.89844 16.0097 9.89844 15.7777Z" fill="white"/>
</svg>
