<svg width="28" height="28" viewBox="0 0 28 28" fill="none" xmlns="http://www.w3.org/2000/svg">
<path d="M14.105 26.21C20.7369 26.21 26.2121 20.7273 26.2121 14.105C26.2121 7.47312 20.7273 2 14.0954 2C7.47523 2 2 7.47312 2 14.105C2 20.7273 7.48484 26.21 14.105 26.21ZM14.105 23.8255C8.71085 23.8255 4.39412 19.4991 4.39412 14.105C4.39412 8.71085 8.70124 4.38452 14.0954 4.38452C19.4895 4.38452 23.8276 8.71085 23.8276 14.105C23.8276 19.4991 19.4991 23.8255 14.105 23.8255Z" fill="black"/>
<path d="M13.9187 14.1554L15.7393 12.354C16.8709 11.2417 16.8826 9.75973 15.7937 8.70598C14.709 7.61918 13.2504 7.6384 12.1338 8.76457L10.3367 10.5639L13.9187 14.1554ZM13.2358 14.8477L9.64432 11.2541L7.83119 13.0789C6.71674 14.2147 6.68791 15.6753 7.75549 16.7504C8.83807 17.8159 10.2987 17.7849 11.4153 16.6684L13.2358 14.8477ZM20.8176 16.3419C20.5983 14.8299 19.2814 13.6557 17.6799 13.6557C16.0977 13.6557 14.7785 14.8299 14.5516 16.3419H20.8176ZM20.8176 17.308H14.5516C14.7785 18.8103 16.0977 19.9845 17.6799 19.9845C19.291 19.9845 20.5983 18.8103 20.8176 17.308Z" fill="black"/>
</svg>
