<svg width="28" height="28" viewBox="0 0 28 28" fill="none" xmlns="http://www.w3.org/2000/svg">
<path d="M6.84421 24.8972H21.0295C23.5685 24.8972 24.8737 23.5919 24.8737 21.0914V6.82921C24.8737 4.32656 23.5685 3.02344 21.0295 3.02344H6.84421C4.31484 3.02344 3 4.31695 3 6.82921V21.0914C3 23.6016 4.31484 24.8972 6.84421 24.8972Z" fill="black"/>
<path d="M8.48882 6.36145C9.12375 6.36145 9.6 6.73106 9.87609 7.23848C10.1564 6.73106 10.6498 6.36145 11.2463 6.36145C12.2213 6.36145 12.9298 7.1009 12.9298 8.13426C12.9298 9.71887 11.2188 11.1179 10.1934 11.7443C10.0901 11.8029 9.97617 11.8754 9.8857 11.8754C9.80484 11.8754 9.68555 11.8147 9.58008 11.7443C8.57179 11.0443 6.83203 9.71887 6.83203 8.13426C6.83203 7.1009 7.54898 6.36145 8.48882 6.36145ZM7.60617 17.1031C7.15359 17.1031 6.83203 16.772 6.83203 16.3407C6.83203 15.9212 7.15359 15.5921 7.60617 15.5921H19.2084C19.6375 15.5921 19.9591 15.9212 19.9591 16.3407C19.9591 16.772 19.6375 17.1031 19.2084 17.1031H7.60617ZM7.60617 21.1215C7.15359 21.1215 6.83203 20.7903 6.83203 20.3729C6.83203 19.9438 7.15359 19.6083 7.60617 19.6083H16.237C16.6778 19.6083 16.9973 19.9438 16.9973 20.3729C16.9973 20.7903 16.6778 21.1215 16.237 21.1215H7.60617Z" fill="white"/>
</svg>
