<svg width="28" height="29" viewBox="0 0 28 29" fill="none" xmlns="http://www.w3.org/2000/svg">
<path d="M8.09531 3.56202C8.09531 4.94506 8.89922 5.76491 10.2471 5.76491H18.2083C19.5658 5.76491 20.3698 4.94506 20.3698 3.56202V2.19867C20.3698 0.819842 19.5658 0 18.2083 0H10.2471C8.89922 0 8.09531 0.819842 8.09531 2.19867V3.56202ZM10.0894 3.39937V2.36132C10.0894 2.09905 10.2429 1.93382 10.5169 1.93382H17.9871C18.2611 1.93382 18.4242 2.09905 18.4242 2.36132V3.39937C18.4242 3.65414 18.2611 3.82476 17.9871 3.82476H10.5169C10.2429 3.82476 10.0894 3.65414 10.0894 3.39937ZM11.7307 7.9378V5.00647H9.85054V7.9378H11.7307ZM18.6145 7.9378V5.00647H16.7344V7.9378H18.6145ZM6 24.5168C6 26.9437 7.58015 28.5398 9.96445 28.5398H18.5006C20.887 28.5398 22.4651 26.9437 22.4651 24.5168V11.3037C22.4651 8.8746 20.887 7.27851 18.5006 7.27851H9.96445C7.58015 7.27851 6 8.8746 6 11.3037V24.5168ZM8.12202 24.4933V11.3271C8.12202 10.1597 8.87905 9.41224 10.0603 9.41224H18.4048C19.586 9.41224 20.3452 10.1597 20.3452 11.3271V24.4933C20.3452 25.6683 19.586 26.4199 18.4048 26.4199H10.0603C8.87905 26.4199 8.12202 25.6683 8.12202 24.4933Z" fill="black"/>
<path d="M9.90137 18.6726C9.90137 19.2007 10.2527 19.5445 10.7711 19.5445H12.5939V21.3598C12.5939 21.8857 12.9398 22.2391 13.4657 22.2391H14.9906C15.5165 22.2391 15.8625 21.8857 15.8625 21.3598V19.5445H17.6852C18.194 19.5445 18.5645 19.2007 18.5645 18.6726V17.152C18.5645 16.6219 18.194 16.2801 17.6852 16.2801H15.8625V14.4628C15.8625 13.9369 15.5165 13.593 14.9906 13.593H13.4657C12.9398 13.593 12.5939 13.9369 12.5939 14.4628V16.2801H10.7711C10.2527 16.2801 9.90137 16.6219 9.90137 17.152V18.6726Z" fill="black"/>
</svg>
