<svg width="28" height="28" viewBox="0 0 28 28" fill="none" xmlns="http://www.w3.org/2000/svg">
<path d="M14.105 26.21C20.7369 26.21 26.2121 20.7273 26.2121 14.105C26.2121 7.47312 20.7273 2 14.0954 2C7.47523 2 2 7.47312 2 14.105C2 20.7273 7.48484 26.21 14.105 26.21ZM14.105 23.8255C8.71085 23.8255 4.39412 19.4991 4.39412 14.105C4.39412 8.71085 8.70124 4.38452 14.0954 4.38452C19.4895 4.38452 23.8276 8.71085 23.8276 14.105C23.8276 19.4991 19.4991 23.8255 14.105 23.8255Z" fill="black"/>
<path d="M14.0958 18.9987C18.7123 18.9987 21.8559 15.2633 21.8559 14.1125C21.8559 12.9521 18.7027 9.21875 14.0958 9.21875C9.50156 9.21875 6.32812 12.9521 6.32812 14.1125C6.32812 15.2633 9.53039 18.9987 14.0958 18.9987ZM14.0958 17.2794C12.3354 17.2794 10.9172 15.8323 10.9172 14.1146C10.9076 12.3404 12.3354 10.9381 14.0958 10.9381C15.8529 10.9381 17.2744 12.3404 17.2744 14.1146C17.2744 15.8323 15.8529 17.2794 14.0958 17.2794ZM14.1054 15.4967C14.8545 15.4967 15.4917 14.8519 15.4917 14.1146C15.4917 13.3676 14.8545 12.7208 14.1054 12.7208C13.3467 12.7208 12.7041 13.3676 12.7041 14.1146C12.7041 14.8519 13.3467 15.4967 14.1054 15.4967Z" fill="black"/>
</svg>
