<svg width="28" height="28" viewBox="0 0 28 28" fill="none" xmlns="http://www.w3.org/2000/svg">
<path d="M14.105 26.21C20.7369 26.21 26.2121 20.7273 26.2121 14.105C26.2121 7.47312 20.7273 2 14.0954 2C7.47523 2 2 7.47312 2 14.105C2 20.7273 7.48484 26.21 14.105 26.21ZM14.105 23.8255C8.71085 23.8255 4.39412 19.4991 4.39412 14.105C4.39412 8.71085 8.70124 4.38452 14.0954 4.38452C19.4895 4.38452 23.8276 8.71085 23.8276 14.105C23.8276 19.4991 19.4991 23.8255 14.105 23.8255Z" fill="black"/>
<path d="M19.0073 9.20515C17.669 7.88398 15.8962 7.88187 14.5356 9.26586L12.2481 11.5576L16.6377 15.9568L18.9412 13.6608C20.3242 12.2874 20.3434 10.4891 19.0073 9.20515ZM9.18627 19.0304C10.5086 20.326 12.2952 20.3068 13.6675 18.927L15.955 16.6353L11.5654 12.2457L9.27369 14.5491C7.90025 15.9385 7.8747 17.7113 9.18627 19.0304Z" fill="black"/>
</svg>
