<svg width="28" height="28" viewBox="0 0 28 28" fill="none" xmlns="http://www.w3.org/2000/svg">
<path d="M3.78773 24.3058H23.917C26.4251 24.3058 27.7026 23.0378 27.7026 20.5565V9.08874C27.7026 6.59991 26.4251 5.34156 23.917 5.34156H3.78773C1.28718 5.34156 0 6.59991 0 9.08874V20.5565C0 23.0378 1.28718 24.3058 3.78773 24.3058ZM7.71211 6.29781H9.83436V4.27421C9.83436 3.4321 10.3237 2.96194 11.1851 2.96194H16.5176C17.3789 2.96194 17.8587 3.43421 17.8587 4.27421V6.27859H19.983V4.27445C19.983 2.05867 18.7849 1 16.5794 1H11.1094C9.0021 1 7.71211 2.05867 7.71211 4.27445V6.29781Z" fill="black"/>
<path d="M8.25977 15.7848V13.8294C8.25977 13.1505 8.71844 12.6843 9.40492 12.6843H11.7335V10.3674C11.7335 9.67674 12.19 9.22229 12.8807 9.22229H14.8361C15.5172 9.22229 15.9834 9.67674 15.9834 10.3674V12.6843H18.3002C18.9888 12.6843 19.455 13.1505 19.455 13.8294V15.7848C19.455 16.4659 18.9888 16.9321 18.3002 16.9321H15.9834V19.2489C15.9834 19.9492 15.5172 20.4058 14.8361 20.4058H12.8807C12.19 20.4058 11.7335 19.9492 11.7335 19.2489V16.9321H9.40703C8.72805 16.9321 8.25977 16.4659 8.25977 15.7848Z" fill="white"/>
</svg>
