<svg width="28" height="28" viewBox="0 0 28 28" fill="none" xmlns="http://www.w3.org/2000/svg">
<path d="M0 15.0606V13.3696H4.33171L6.36398 8.40121C6.67265 7.64981 7.73156 7.66153 7.9678 8.37028L10.5326 16.1542L11.2891 14.0593C11.4488 13.6154 11.7223 13.3696 12.2344 13.3696H15.003L17.0428 8.40121C17.344 7.64981 18.4104 7.66153 18.637 8.37028L21.2114 16.1542L21.9584 14.0593C22.1276 13.6154 22.4032 13.3696 22.9036 13.3696H27.7552V15.0606H23.393L22.0277 19.3735C21.7915 20.1099 20.6325 20.1292 20.408 19.4045L17.8369 11.119L16.4376 14.3771C16.2546 14.8231 16.0003 15.0606 15.4924 15.0606H12.7141L11.3489 19.3735C11.1127 20.1099 9.96328 20.1292 9.73875 19.4045L7.15804 11.1275L5.82913 14.3771C5.64069 14.8252 5.38007 15.0606 4.68749 15.0606H0ZM3.84421 24.8781H23.9109C26.4499 24.8781 27.7552 23.5824 27.7552 21.0819V6.81004C27.7552 4.30739 26.4499 3.00427 23.9109 3.00427H3.84421C1.31484 3.00427 0 4.30739 0 6.81004V21.0819C0 23.5824 1.31484 24.8781 3.84421 24.8781Z" fill="black"/>
</svg>
