<svg width="28" height="28" viewBox="0 0 28 28" fill="none" xmlns="http://www.w3.org/2000/svg">
<path d="M2.97242 16.1628H8.17226C8.75866 16.1628 9.12569 15.8925 9.25554 15.3647L11.5405 4.83406H10.363L13.8423 25.7965C14.0061 26.7774 15.5094 26.7678 15.7008 25.7986L19.0789 9.88063L18.0601 9.86258L19.1274 15.2625C19.2455 15.8649 19.5987 16.1628 20.2128 16.1628H24.7723C25.3149 16.1628 25.7469 15.7425 25.7469 15.2138C25.7469 14.667 25.3266 14.251 24.7723 14.251H19.3212L21.0362 15.717L19.3901 8.37898C19.1827 7.44172 17.7774 7.44594 17.555 8.41625L14.1099 23.8252H15.2267L11.7826 2.87656C11.6326 1.92125 10.239 1.89571 10.0241 2.87023L7.25516 15.6832L9.03125 14.251H2.97242C2.42234 14.251 2 14.6829 2 15.2138C2 15.7425 2.42234 16.1628 2.97242 16.1628Z" fill="black"/>
</svg>
