<svg width="28" height="28" viewBox="0 0 28 28" fill="none" xmlns="http://www.w3.org/2000/svg">
<path d="M3.38621 22.5428L5.86589 25.0225L7.09941 23.7751C10.0265 20.8087 13.7132 21.8863 16.9532 18.6463L25.5813 10.0162C27.6267 7.96327 27.6161 4.89062 25.5623 2.8464C23.5202 0.792575 20.4358 0.782029 18.3925 2.82742L9.76239 11.4597C6.34146 14.8827 7.59794 18.3684 4.64528 21.2955L3.38621 22.5428ZM8.54878 18.2289C9.14996 16.4685 9.57722 14.6547 11.2673 12.9646L19.8975 4.33444C21.0794 3.14288 22.8766 3.16092 24.067 4.3417C25.2499 5.53421 25.2679 7.3239 24.0785 8.51335L15.4462 17.1435C13.7444 18.8453 12.0009 19.3216 10.2916 19.9717L8.54878 18.2289ZM1.58036 24.3508C0.798016 25.131 0.815126 26.0865 1.58036 26.8401C2.32004 27.5936 3.30113 27.6011 4.07175 26.8283L4.67269 26.2349L2.1759 23.7552L1.58036 24.3508ZM13.9954 14.4463C14.7112 15.1696 15.8524 15.16 16.5778 14.4346L20.0294 10.9595C20.7761 10.2107 20.7707 9.08335 20.0294 8.37718C19.3061 7.63046 18.1767 7.65718 17.4471 8.37718L13.9954 11.8405C13.2679 12.5584 13.2562 13.7113 13.9954 14.4463ZM14.815 13.615C14.5462 13.3462 14.5462 12.9386 14.815 12.6601L18.2667 9.19467C18.5067 8.95467 18.8662 8.93967 19.1254 9.15085C19.469 9.38874 19.5075 9.84225 19.2119 10.1399L15.772 13.6054C15.4936 13.8742 15.0743 13.8742 14.815 13.615ZM11.5312 15.5744L12.8322 16.8637C13.1475 17.1789 13.5778 17.1299 13.8323 16.8775C14.1103 16.6016 14.1454 16.1788 13.8323 15.8657L12.5313 14.5764C12.2278 14.2867 11.7954 14.2984 11.5312 14.5764C11.2788 14.8384 11.2298 15.2847 11.5312 15.5744ZM17.8064 4.25124L24.1554 10.6002L25.1906 9.55749L18.8374 3.19468L17.8064 4.25124Z" fill="black"/>
</svg>
