<svg width="32" height="28" viewBox="0 0 32 28" fill="none" xmlns="http://www.w3.org/2000/svg">
<path d="M15.9391 24.1243C18.0818 24.1243 20.0721 23.7385 21.829 23.1013L18.6089 19.8812C17.8029 20.278 16.8945 20.4946 15.9434 20.4946C12.3609 20.4946 9.50648 17.5782 9.49687 14.0875C9.49687 13.115 9.71343 12.1948 10.1027 11.375L5.89032 7.14546C2.24532 9.48148 0 12.6938 0 14.0853C0 16.4546 6.56414 24.1243 15.9391 24.1243ZM26.2781 20.8639C29.6958 18.5685 31.875 15.4672 31.875 14.0853C31.875 11.7085 25.4344 4.05054 15.9391 4.05054C13.9491 4.05054 12.0825 4.38617 10.3875 4.94445L13.5862 8.14319C14.3133 7.84882 15.1043 7.6803 15.9434 7.6803C19.497 7.6803 22.3802 10.505 22.3802 14.0875C22.3802 14.9211 22.2021 15.7218 21.8843 16.4296L26.2781 20.8639ZM12.1692 13.8854C12.1692 15.9395 13.86 17.6014 15.9066 17.6014C16.0474 17.6014 16.1745 17.5918 16.3132 17.5822L12.1905 13.4575C12.1788 13.5983 12.1692 13.7446 12.1692 13.8854ZM19.691 13.8435C19.691 11.7969 18.0408 10.1349 15.975 10.1349C15.8437 10.1349 15.7167 10.1445 15.5972 10.1541L19.6718 14.2288C19.6814 14.1093 19.691 13.9726 19.691 13.8435Z" fill="black"/>
<path d="M25.1745 24.4257C25.5388 24.7996 26.1224 24.8188 26.4941 24.4257C26.885 24.0327 26.8562 23.48 26.4941 23.1062L6.64934 3.27316C6.28512 2.90895 5.68981 2.90895 5.31809 3.27316C4.96559 3.62566 4.96559 4.2423 5.31809 4.59269L25.1745 24.4257Z" fill="black"/>
</svg>
