<svg width="28" height="28" viewBox="0 0 28 28" fill="none" xmlns="http://www.w3.org/2000/svg">
<path d="M13.1841 26.1058H14.1905C16.1492 26.1058 17.1214 25.2156 17.1214 23.3859V19.4654L20.498 21.4326C21.0594 21.7574 21.5801 21.914 22.0541 21.914C22.9316 21.914 23.6801 21.3676 24.3181 20.2675L24.8272 19.3928C25.1968 18.7452 25.3864 18.1562 25.3864 17.6237C25.3864 16.7697 24.8933 16.0584 23.9241 15.5024L20.5358 13.547L23.9124 11.5937C24.8912 11.0378 25.3768 10.3265 25.3768 9.47241C25.3768 8.95163 25.1851 8.36054 24.8155 7.71507L24.3181 6.84789C23.6684 5.73813 22.9177 5.1918 22.0264 5.1918C21.5546 5.1918 21.0476 5.34836 20.4863 5.6711L17.1214 7.61477V3.71992C17.1214 1.89015 16.1492 1 14.1905 1H13.1841C11.2255 1 10.265 1.88804 10.265 3.71992V7.61477L6.90007 5.6711C6.34835 5.34836 5.82968 5.1918 5.35999 5.1918C4.46866 5.1918 3.71796 5.73813 3.06828 6.84789L2.57094 7.71507C2.20133 8.36054 2.00961 8.95163 2.00961 9.47241C2.00961 10.3265 2.50484 11.0378 3.47398 11.5937L6.84852 13.547L3.47187 15.5024C2.49312 16.0584 2 16.7697 2 17.6237C2 18.1562 2.18961 18.7452 2.55922 19.3928L3.06828 20.2675C3.70624 21.3676 4.45484 21.914 5.33233 21.914C5.80624 21.914 6.33452 21.7574 6.88624 21.4326L10.265 19.4654V23.3859C10.265 25.2177 11.2255 26.1058 13.1841 26.1058ZM13.5322 24.1391C12.6134 24.1391 12.3266 23.8853 12.3287 22.9996L12.3413 16.4376C12.3413 16.2428 12.2148 16.113 12.0455 16.113C11.9881 16.113 11.9307 16.1268 11.8679 16.1662L6.21335 19.4467C5.92343 19.6141 5.6921 19.694 5.4821 19.694C5.15374 19.694 4.9128 19.4626 4.63038 18.9702L4.46398 18.697C4.2828 18.3698 4.18155 18.115 4.18155 17.8912C4.18155 17.5745 4.38405 17.3336 4.84882 17.0788L10.595 13.7629C10.711 13.6959 10.7717 13.5937 10.7717 13.4873C10.7717 13.3691 10.7089 13.2648 10.5812 13.1978L4.85843 10.0227C4.40327 9.75835 4.19116 9.51741 4.19116 9.19444C4.19116 8.98444 4.2828 8.72968 4.46187 8.40671L4.63038 8.12382C4.91069 7.6239 5.16546 7.40218 5.49382 7.40218C5.70171 7.40218 5.93515 7.47999 6.22296 7.64734L11.8487 10.9204C11.9115 10.9598 11.9689 10.9736 12.0359 10.9736C12.2148 10.9736 12.3413 10.8438 12.3413 10.6394L12.3287 4.12304C12.3266 3.23734 12.6134 2.98351 13.5322 2.98351H13.8521C14.773 2.98351 15.0598 3.23734 15.0556 4.12304L15.0451 10.6394C15.0451 10.8341 15.1716 10.9736 15.3408 10.9736C15.4079 10.9736 15.4632 10.9598 15.5281 10.9204L21.1709 7.64734C21.4609 7.47788 21.6922 7.40007 21.8947 7.40007C22.2209 7.40007 22.4736 7.62179 22.7656 8.12382L22.9245 8.40671C23.1057 8.72968 23.2048 8.98655 23.2048 9.19655C23.2048 9.51741 22.9927 9.75835 22.5376 10.0227L16.8127 13.1978C16.685 13.2648 16.6105 13.3691 16.6105 13.4873C16.6105 13.5937 16.6829 13.6862 16.7968 13.7629L22.5493 17.0788C23.0044 17.3336 23.2166 17.5745 23.2166 17.8912C23.2166 18.115 23.1057 18.3698 22.9245 18.697L22.7677 18.9702C22.4757 19.4626 22.2348 19.694 21.9064 19.694C21.6964 19.694 21.4651 19.6044 21.1848 19.4467L15.5185 16.1662C15.4536 16.1268 15.4079 16.113 15.3408 16.113C15.1716 16.113 15.0451 16.2428 15.0451 16.4376L15.0556 22.9996C15.0598 23.8853 14.773 24.1391 13.8521 24.1391H13.5322Z" fill="black"/>
</svg>
