<svg width="33" height="28" viewBox="0 0 33 28" fill="none" xmlns="http://www.w3.org/2000/svg">
<path d="M4.55343 25.7352L9.21375 24.8314C11.8158 24.3287 12.9701 22.9039 12.9701 20.1516V6.13015C12.9701 3.64226 11.2385 2 8.65899 2C6.43665 2 4.59141 3.49484 4.00782 5.82617L0.185864 21.1192C-0.62015 24.3221 1.26117 26.3666 4.55343 25.7352ZM28.0418 25.7352C31.334 26.3666 33.2175 24.3221 32.4115 21.1192L28.5874 5.82617C27.9963 3.49484 26.1607 2 23.9362 2C21.3588 2 19.6176 3.64226 19.6176 6.13015V20.1516C19.6176 22.9039 20.7794 24.3287 23.3719 24.8314L28.0418 25.7352Z" fill="black"/>
<path d="M6.00799 20.1973C5.41456 20.326 4.78386 19.9166 4.66152 19.3189C4.54878 18.718 4.9519 18.1128 5.53784 17.998L8.79895 17.296L6.09612 14.8759C5.64097 14.4781 5.58988 13.7389 6.00894 13.2742C6.40878 12.8232 7.15971 12.801 7.60103 13.1987L11.5121 16.7281L12.9683 16.4167V18.7245L6.00799 20.1973ZM19.6179 18.7245V16.4167L21.072 16.7281L24.9755 13.1987C25.4148 12.801 26.1678 12.8232 26.5751 13.2742C26.9963 13.7389 26.9452 14.4781 26.4901 14.8759L23.7776 17.296L27.0387 17.998C27.6343 18.1128 28.0374 18.718 27.9129 19.3189C27.8002 19.9166 27.1716 20.326 26.5761 20.1973L19.6179 18.7245Z" fill="white"/>
<path d="M19.6172 16.4167V18.7245L16.2983 18.0109L12.9697 18.7245V16.4167L15.1613 15.9423V3.46409C15.1613 2.84511 15.6793 2.32715 16.2983 2.32715C16.9172 2.32715 17.4235 2.84511 17.4235 3.46409V15.9423L19.6172 16.4167Z" fill="black"/>
</svg>
