<svg width="31" height="31" viewBox="0 0 31 31" fill="none" xmlns="http://www.w3.org/2000/svg">
<path d="M10.4587 25.357C13.2923 25.357 15.5826 23.0646 15.5826 20.2055C15.5826 17.3953 13.2806 15.1071 10.4587 15.1071C7.63687 15.1071 5.33273 17.3953 5.33273 20.2055C5.33273 23.055 7.63687 25.357 10.4587 25.357ZM19.6483 16.8919C22.89 16.8919 25.5457 14.2244 25.5457 10.9786C25.5457 7.73906 22.89 5.09718 19.6483 5.09718C16.4163 5.09718 13.7489 7.73906 13.7489 10.9786C13.7489 14.2244 16.4163 16.8919 19.6483 16.8919ZM19.6483 3.02155C20.4841 3.02155 21.1591 2.34867 21.1591 1.51078C21.1591 0.674998 20.4841 0 19.6483 0C18.8105 0 18.1376 0.674998 18.1376 1.51078C18.1376 2.34867 18.8105 3.02155 19.6483 3.02155ZM26.6086 5.8753C27.4465 5.8753 28.1194 5.20031 28.1194 4.36453C28.1194 3.52664 27.4465 2.85375 26.6086 2.85375C25.7632 2.85375 25.0882 3.52664 25.0882 4.36453C25.0882 5.20031 25.7632 5.8753 26.6086 5.8753ZM29.13 12.5383C29.9679 12.5383 30.6408 11.8655 30.6408 11.018C30.6408 10.1822 29.9679 9.50718 29.13 9.50718C28.2942 9.50718 27.6213 10.1822 27.6213 11.018C27.6213 11.8655 28.2942 12.5383 29.13 12.5383ZM26.257 19.4751C27.1003 19.4751 27.7753 18.8001 27.7753 17.9665C27.7753 17.119 27.1003 16.444 26.257 16.444C25.4191 16.444 24.7441 17.119 24.7441 17.9665C24.7441 18.8023 25.4191 19.4751 26.257 19.4751ZM19.6336 21.7183C20.4694 21.7183 21.1444 21.0433 21.1444 20.2055C21.1444 19.358 20.4694 18.6947 19.6336 18.6947C18.7957 18.6947 18.1228 19.358 18.1228 20.2055C18.1228 21.0433 18.7957 21.7183 19.6336 21.7183ZM16.8991 27.8147C17.7349 27.8147 18.4099 27.1418 18.4099 26.3039C18.4099 25.4681 17.7349 24.7931 16.8991 24.7931C16.0612 24.7931 15.3884 25.4681 15.3884 26.3039C15.3884 27.1418 16.0612 27.8147 16.8991 27.8147ZM10.4587 30.6919C11.2966 30.6919 11.9674 30.0169 11.9674 29.179C11.9674 28.3315 11.2966 27.6586 10.4587 27.6586C9.61124 27.6586 8.94586 28.3315 8.94586 29.179C8.94586 30.0169 9.61124 30.6919 10.4587 30.6919ZM4.38375 28.1332C5.22163 28.1332 5.89663 27.4603 5.89663 26.6224C5.89663 25.777 5.22163 25.102 4.38375 25.102C3.54047 25.102 2.87508 25.777 2.87508 26.6224C2.87508 27.4582 3.54047 28.1332 4.38375 28.1332ZM1.51078 21.7418C2.34656 21.7418 3.01945 21.0668 3.01945 20.231C3.01945 19.3931 2.34656 18.7202 1.51078 18.7202C0.672889 18.7202 0 19.3931 0 20.231C0 21.0668 0.672889 21.7418 1.51078 21.7418ZM4.38375 15.3462C5.22163 15.3462 5.89663 14.6733 5.89663 13.8375C5.89663 12.99 5.22163 12.3171 4.38375 12.3171C3.54047 12.3171 2.87508 12.9921 2.87508 13.8375C2.87508 14.6712 3.54047 15.3462 4.38375 15.3462ZM10.4587 12.5062C11.2966 12.5062 11.9674 11.8312 11.9674 10.9934C11.9674 10.148 11.2966 9.47507 10.4587 9.47507C9.61124 9.47507 8.94586 10.148 8.94586 10.9934C8.94586 11.8312 9.61124 12.5062 10.4587 12.5062ZM13.0418 5.55468C13.8776 5.55468 14.5526 4.87968 14.5526 4.03218C14.5526 3.1964 13.8776 2.52351 13.0418 2.52351C12.1943 2.52351 11.531 3.1964 11.531 4.03218C11.531 4.87968 12.1943 5.55468 13.0418 5.55468Z" fill="black"/>
</svg>
