<svg width="28" height="28" viewBox="0 0 28 28" fill="none" xmlns="http://www.w3.org/2000/svg">
<path d="M14.105 26.2301C20.7369 26.2301 26.2121 20.7549 26.2121 14.123C26.2121 7.50291 20.7273 2.01807 14.0954 2.01807C7.47523 2.01807 2 7.50291 2 14.123C2 20.7549 7.48484 26.2301 14.105 26.2301Z" fill="black"/>
<path d="M19.189 9.03924C20.5826 10.3785 20.5634 12.2384 19.1229 13.6693L16.7365 16.0557L12.1746 11.4842L14.543 9.10955C15.961 7.65853 17.805 7.67236 19.189 9.03924ZM8.99999 19.2324C7.63312 17.8773 7.65656 16.0236 9.08742 14.5885L11.4621 12.2042L16.024 16.7565L13.6557 19.1387C12.226 20.5662 10.3701 20.5855 8.99999 19.2324Z" fill="white"/>
</svg>
