<svg width="28" height="28" viewBox="0 0 28 28" fill="none" xmlns="http://www.w3.org/2000/svg">
<path d="M14.105 26.21C20.7369 26.21 26.2121 20.7273 26.2121 14.105C26.2121 7.47312 20.7273 2 14.0954 2C7.47523 2 2 7.47312 2 14.105C2 20.7273 7.48484 26.21 14.105 26.21Z" fill="black"/>
<path d="M11.2203 8.80127C12.5359 8.80127 13.5214 9.55221 14.1034 10.5968C14.6778 9.55221 15.6826 8.80127 16.9885 8.80127C18.9896 8.80127 20.4842 10.3292 20.4842 12.4884C20.4842 15.798 16.8751 18.663 14.7369 20.0407C14.541 20.1771 14.2939 20.3336 14.1247 20.3336C13.9555 20.3336 13.6754 20.1675 13.4603 20.0407C11.3166 18.6876 7.72461 15.798 7.72461 12.4884C7.72461 10.3292 9.20961 8.80127 11.2203 8.80127Z" fill="white"/>
</svg>
