<svg width="37" height="28" viewBox="0 0 37 28" fill="none" xmlns="http://www.w3.org/2000/svg">
<path d="M0 12.9503C0 16.8017 2.82234 19.4975 7.05374 19.5418L7.95256 19.5565V17.3914L6.86624 17.3766C4.06288 17.3555 2.16514 15.5077 2.16514 12.9503C2.16514 11.7212 2.82491 10.9602 4.00077 10.9602H7.44678V8.79504H4.00077C1.49273 8.79504 0 10.3794 0 12.9503ZM36.5857 12.9503C36.5857 10.3794 35.1004 8.79504 32.5849 8.79504H29.1389V10.9602H32.5849C33.7587 10.9602 34.4205 11.7212 34.4205 12.9503C34.4205 15.5077 32.5228 17.3555 29.7173 17.3766L28.631 17.3914V19.5565L29.5415 19.5418C33.7633 19.4975 36.5857 16.8017 36.5857 12.9503Z" fill="black"/>
<path d="M18.2993 23.4891C25.4615 23.4891 30.5186 20.6872 30.5186 16.5816V10.7222C30.5186 7.07585 26.1133 5 18.2993 5C10.4756 5 6.07031 7.07585 6.07031 10.7222V16.5816C6.07031 20.6872 11.1274 23.4891 18.2993 23.4891Z" fill="black"/>
<path d="M11.8066 11.6502C11.8066 11.0743 12.2823 10.5911 12.8657 10.5911H23.7353C24.3304 10.5911 24.8041 11.0743 24.8041 11.6502C24.8041 12.2378 24.3325 12.719 23.7353 12.719H12.8657C12.2781 12.719 11.8066 12.2378 11.8066 11.6502ZM11.8066 16.3382C11.8066 15.7506 12.2781 15.2695 12.8657 15.2695H23.7353C24.3325 15.2695 24.8041 15.7506 24.8041 16.3382C24.8041 16.9216 24.3304 17.3973 23.7353 17.3973H12.8657C12.2823 17.3973 11.8066 16.9216 11.8066 16.3382Z" fill="white"/>
</svg>
