<svg width="28" height="28" viewBox="0 0 28 28" fill="none" xmlns="http://www.w3.org/2000/svg">
<path d="M8.38101 25.3113C9.42445 25.3113 10.3516 25.1055 11.1626 24.7174C10.4934 24.3515 10.0758 23.7471 9.95836 22.9465C9.5189 23.1354 9.02718 23.2165 8.47569 23.2165C6.34147 23.2165 5.05429 21.8993 5.05429 19.7264V9.35952C5.05429 4.97062 7.94085 2.05429 12.2723 2.05429C16.481 2.05429 19.2811 4.96007 19.2811 9.29367C19.2811 11.7923 18.2634 13.219 16.942 14.6191C17.7178 14.2334 18.6473 14.2983 19.3603 14.8341C20.489 13.4555 21.3354 11.9109 21.3354 9.29367C21.3354 3.72492 17.7066 0 12.2723 0C6.73242 0 3 3.75258 3 9.35952V19.8246C3 23.213 5.0789 25.3113 8.38101 25.3113ZM7.57569 15.2885C8.09835 15.2885 8.52327 14.8636 8.52327 14.3388V9.29765C8.52327 7.13413 10.005 5.7028 12.2627 5.7028C14.4434 5.7028 15.8555 7.11819 15.8555 9.27867C15.8555 9.79499 16.2792 10.2262 16.7955 10.2262C17.3077 10.2262 17.741 9.79499 17.741 9.27867C17.741 6.01523 15.5505 3.82148 12.2627 3.82148C8.90202 3.82148 6.63772 6.02155 6.63772 9.29765V14.3388C6.63772 14.8636 7.05093 15.2885 7.57569 15.2885ZM7.45874 11.9135H11.2214C11.9845 11.9135 12.4673 12.3729 12.4673 13.0465C12.4673 13.4098 12.2883 13.8682 12.0134 14.2017L10.6809 15.8784C10.5159 16.0903 10.4276 16.3202 10.4276 16.5513C10.4276 17.0592 10.8567 17.4766 11.3751 17.4766C11.6658 17.4766 11.9362 17.3276 12.1418 17.0709L13.5914 15.2323C14.0845 14.6102 14.403 13.7069 14.403 12.9719C14.403 11.2198 13.1238 10.0364 11.1959 10.0364H7.45874V11.9135Z" fill="black"/>
<path d="M12.2992 23.2992C12.6911 23.2992 12.9988 22.9915 12.9988 22.6113V20.7499C12.9988 20.3698 12.6911 20.062 12.2992 20.062C11.9212 20.062 11.623 20.3698 11.623 20.7499V22.6113C11.623 22.9915 11.9212 23.2992 12.2992 23.2992Z" fill="black"/>
<path d="M15.0977 25.3819C15.4917 25.3819 15.7973 25.0762 15.7973 24.6865V18.6727C15.7973 18.285 15.4917 17.9794 15.0977 17.9794C14.7176 17.9794 14.4141 18.285 14.4141 18.6727V24.6865C14.4141 25.0783 14.7197 25.3819 15.0977 25.3819Z" fill="black"/>
<path d="M17.8975 27.3375C18.2777 27.3375 18.5854 27.0298 18.5854 26.6496V16.7309C18.5854 16.3369 18.2777 16.0334 17.8975 16.0334C17.5078 16.0334 17.2021 16.3411 17.2021 16.7309V26.6496C17.2021 27.0394 17.4982 27.3375 17.8975 27.3375Z" fill="black"/>
<path d="M20.6772 25.999C21.0787 25.999 21.3822 25.6912 21.3822 25.3111V18.048C21.3822 17.6658 21.0766 17.3623 20.6772 17.3623C20.3067 17.3623 20.001 17.6679 20.001 18.048V25.3111C20.001 25.6912 20.3067 25.999 20.6772 25.999Z" fill="black"/>
<path d="M23.4846 23.9065C23.8744 23.9065 24.1683 23.618 24.1683 23.2186V20.133C24.1683 19.7487 23.8723 19.4451 23.4846 19.4451C23.0906 19.4451 22.7871 19.7625 22.7871 20.133V23.2186C22.7871 23.6105 23.0906 23.9065 23.4846 23.9065Z" fill="black"/>
</svg>
