<svg width="37" height="28" viewBox="0 0 37 28" fill="none" xmlns="http://www.w3.org/2000/svg">
<path d="M12.063 11.788C12.063 12.3458 12.5187 12.811 13.0765 12.811H23.5369C24.0947 12.811 24.5482 12.3458 24.5482 11.788C24.5482 11.2419 24.0905 10.7788 23.5369 10.7788H13.0765C12.5208 10.7788 12.063 11.2419 12.063 11.788ZM12.063 16.2003C12.063 16.7539 12.5208 17.2095 13.0765 17.2095H23.5369C24.0905 17.2095 24.5482 16.7539 24.5482 16.2003C24.5482 15.6425 24.0947 15.1773 23.5369 15.1773H13.0765C12.5187 15.1773 12.063 15.6425 12.063 16.2003ZM0 12.9503C0 16.8017 2.82234 19.4975 7.05374 19.5418L7.95256 19.5565V17.3914L6.86624 17.3766C4.06288 17.3555 2.16514 15.5077 2.16514 12.9503C2.16514 11.7212 2.82491 10.9602 4.00077 10.9602H7.44678V8.79504H4.00077C1.49273 8.79504 0 10.3794 0 12.9503ZM36.5857 12.9503C36.5857 10.3794 35.1004 8.79504 32.5849 8.79504H29.1389V10.9602H32.5849C33.7587 10.9602 34.4205 11.7212 34.4205 12.9503C34.4205 15.5077 32.5228 17.3555 29.7173 17.3766L28.631 17.3914V19.5565L29.5415 19.5418C33.7633 19.4975 36.5857 16.8017 36.5857 12.9503Z" fill="black"/>
<path d="M18.2993 23.4891C25.4615 23.4891 30.5186 20.6872 30.5186 16.5816V10.7222C30.5186 7.07585 26.1133 5 18.2993 5C10.4756 5 6.07031 7.07585 6.07031 10.7222V16.5816C6.07031 20.6872 11.1274 23.4891 18.2993 23.4891ZM18.2993 21.2438C12.5301 21.2438 8.32733 19.2247 8.32733 16.5816V10.7222C8.32733 8.5067 11.916 7.24741 18.2993 7.24741C24.6728 7.24741 28.2712 8.5067 28.2712 10.7222V16.5816C28.2712 19.2247 24.0588 21.2438 18.2993 21.2438Z" fill="black"/>
</svg>
