<svg width="28" height="28" viewBox="0 0 28 28" fill="none" xmlns="http://www.w3.org/2000/svg">
<path d="M2 11.0166C2 16.0235 6.20047 20.9674 12.7529 25.1862C13.1023 25.4081 13.5479 25.6355 13.8371 25.6355C14.1359 25.6355 14.5719 25.4081 14.9309 25.1862C21.4833 20.9674 25.6838 16.0235 25.6838 11.0166C25.6838 6.7057 22.7075 3.71484 18.8651 3.71484C16.6402 3.71484 14.8909 4.73977 13.8371 6.28383C12.8026 4.74938 11.0457 3.71484 8.80906 3.71484C4.97632 3.71484 2 6.7057 2 11.0166ZM4.36131 11.006C4.36131 8.03225 6.31366 6.03608 8.93538 6.03608C11.0616 6.03608 12.2459 7.31858 12.9929 8.43772C13.3135 8.91069 13.538 9.0628 13.8371 9.0628C14.1458 9.0628 14.3448 8.89897 14.6888 8.43772C15.4826 7.33569 16.6318 6.03608 18.7388 6.03608C21.3702 6.03608 23.3225 8.03225 23.3225 11.006C23.3225 15.1545 19.0018 19.7356 14.0621 23.0145C13.9576 23.0881 13.884 23.1403 13.8371 23.1403C13.7998 23.1403 13.7262 23.0881 13.6217 23.0145C8.68413 19.7356 4.36131 15.1545 4.36131 11.006Z" fill="black"/>
<path d="M10.043 15.7308C10.043 15.9565 10.2293 16.1215 10.4688 16.1215H13.2865L11.7764 20.1319C11.5645 20.708 12.1863 21.0316 12.5686 20.5652L17.1802 14.8162C17.276 14.7087 17.3346 14.5755 17.3346 14.4637C17.3346 14.238 17.1366 14.0634 16.9013 14.0634H14.0911L15.5916 10.0626C15.8034 9.47693 15.1838 9.16287 14.8111 9.62928L10.1878 15.3783C10.1016 15.4955 10.043 15.6094 10.043 15.7308Z" fill="black"/>
</svg>
