<svg width="28" height="32" viewBox="0 0 28 32" fill="none" xmlns="http://www.w3.org/2000/svg">
<path d="M8.47483 26.4063H19.4598C21.6582 26.4063 22.9325 25.1011 22.9325 22.8834V6.11108C22.9325 3.88382 21.6582 2.5882 19.4598 2.5882H16.4968V2.51671C16.4968 1.01672 15.4705 0 13.9662 0C12.4641 0 11.4378 1.01672 11.4378 2.51671V2.5882H8.47483C6.2764 2.5882 5 3.88382 5 6.11108V22.8834C5 25.1011 6.2764 26.4063 8.47483 26.4063ZM13.9684 3.3914C13.49 3.3914 13.115 3.00679 13.115 2.52843C13.115 2.06179 13.49 1.67718 13.9684 1.67718C14.4446 1.67718 14.8217 2.06179 14.8217 2.52843C14.8217 3.00679 14.4446 3.3914 13.9684 3.3914ZM16.6693 31.5689H21.901C22.4731 31.5689 22.9325 31.1095 22.9325 30.5374C22.9325 29.9515 22.4731 29.4825 21.901 29.4825H16.6946C15.4672 29.4825 14.8285 28.9601 14.8285 27.7453V24.978H12.74V27.7706C12.74 30.1772 14.2501 31.5689 16.6693 31.5689Z" fill="black"/>
<path d="M9.93231 22.7993C9.19192 22.7993 8.71567 22.3465 8.71778 21.6178V8.66033C8.71567 7.94127 9.19192 7.46924 9.93231 7.46924H18.0202C18.7605 7.46924 19.2389 7.94127 19.2368 8.66033V21.6178C19.2389 22.3465 18.7605 22.7993 18.0202 22.7993H9.93231Z" fill="white"/>
<path d="M12.4745 20.4988H15.4806C15.8554 20.4988 16.1258 20.2358 16.1258 19.8908C16.1258 19.5298 15.8554 19.2317 15.4806 19.2317H12.4745C12.0922 19.2317 11.8293 19.5298 11.8293 19.8908C11.8293 20.2358 12.0922 20.4988 12.4745 20.4988ZM11.5487 17.8948H16.4331C16.7961 17.8948 17.0687 17.6106 17.0687 17.2475C17.0687 16.8983 16.7961 16.6236 16.4331 16.6236H11.5487C11.1643 16.6236 10.9014 16.8983 10.9014 17.2475C10.9014 17.6106 11.1643 17.8948 11.5487 17.8948ZM13.9679 14.9741C14.9961 14.9741 15.8486 14.176 15.8486 13.1382C15.8486 12.5607 15.5481 11.9949 15.2732 11.4781L14.3373 9.7641C14.1095 9.33403 13.821 9.34574 13.6007 9.7641L12.6627 11.4781C12.3878 11.9949 12.0873 12.5607 12.0873 13.1382C12.0873 14.176 12.9514 14.9741 13.9679 14.9741Z" fill="black"/>
</svg>
