<svg width="28" height="28" viewBox="0 0 28 28" fill="none" xmlns="http://www.w3.org/2000/svg">
<path d="M21.6662 26.2986C21.9608 26.2986 22.2098 26.0794 22.2512 25.7752C22.6115 23.0176 22.5916 23.041 25.5693 22.4689C25.8714 22.4136 26.0884 22.1806 26.0884 21.8881C26.0884 21.5839 25.8672 21.3584 25.5533 21.3073C22.6457 20.8981 22.6019 20.866 22.2512 18.0212C22.2236 17.7052 21.9747 17.4819 21.6662 17.4819C21.3503 17.4819 21.111 17.7148 21.0834 18.0329C20.7487 20.7716 20.7365 20.7448 17.7536 21.3094C17.4536 21.3723 17.2483 21.6116 17.2483 21.8881C17.2483 22.1944 17.4674 22.4136 17.8047 22.471C20.7027 22.9388 20.7466 22.9751 21.0834 25.7476C21.111 26.0635 21.3503 26.2986 21.6662 26.2986ZM8.84902 8.60234C9.08831 8.60234 9.28612 8.43968 9.32761 8.19289C9.72183 6.10437 9.64636 6.18945 11.7306 5.77601C11.9837 5.73452 12.1539 5.53882 12.1539 5.29531C12.1539 5.0539 11.9837 4.8657 11.7306 4.82211C9.64636 4.41289 9.72183 4.49797 9.32761 2.41367C9.28612 2.16055 9.08831 2 8.84902 2C8.6055 2 8.4098 2.16055 8.36621 2.41367C7.97199 4.49797 8.04957 4.41289 5.96105 4.82422C5.71215 4.8657 5.54199 5.0539 5.54199 5.29531C5.54199 5.53671 5.71004 5.73452 5.96105 5.77601C8.04957 6.18945 7.97199 6.10437 8.36621 8.19289C8.4098 8.4439 8.60761 8.60234 8.84902 8.60234Z" fill="black"/>
<path d="M15.2118 18.0746C17.6973 18.0746 19.709 16.0768 19.709 13.5816C19.709 11.0961 17.6973 9.08658 15.2118 9.08658C12.7262 9.08658 10.7188 11.0961 10.7188 13.5816C10.7188 16.0747 12.7284 18.0746 15.2118 18.0746ZM4.22781 15.2169C5.9828 15.2169 7.44601 13.7654 7.44601 11.9891C7.44601 10.232 5.9828 8.78049 4.22781 8.78049C2.45148 8.78049 1 10.232 1 11.9891C1 13.7654 2.45148 15.2169 4.22781 15.2169ZM8.83187 25.8962C10.7158 25.8962 12.2727 24.335 12.2727 22.4298C12.2727 20.5459 10.7158 18.9889 8.83187 18.9889C6.92453 18.9889 5.36758 20.5437 5.36758 22.4298C5.36758 24.3371 6.92453 25.8962 8.83187 25.8962ZM25.6408 8.99142C25.6408 5.85478 23.0952 3.30713 19.9469 3.30713C17.2612 3.30713 15.0102 5.18893 14.4442 7.70448C14.6955 7.66721 14.9488 7.65338 15.2118 7.65338C18.4895 7.65338 21.1422 10.306 21.1422 13.5816C21.1422 13.9149 21.1166 14.2311 21.0655 14.5334C23.6652 14.0356 25.6408 11.7474 25.6408 8.99142Z" fill="black"/>
</svg>
