<svg width="29" height="28" viewBox="0 0 29 28" fill="none" xmlns="http://www.w3.org/2000/svg">
<path d="M28.2083 19.3353C27.7222 16.3398 25.1073 14.0375 21.9596 14.0375C18.812 14.0375 16.2088 16.3398 15.7227 19.3353H28.2083ZM28.2083 21.4175H15.7227C16.2184 24.4226 18.812 26.727 21.9596 26.727C25.1307 26.727 27.7243 24.4247 28.2083 21.4175Z" fill="black"/>
<path d="M13.9715 14.9949L17.4761 11.4924C19.735 9.2431 19.7617 6.29022 17.6146 4.15272C15.4558 2.0035 12.5209 2.05366 10.2791 4.29545L6.77663 7.80007L13.9715 14.9949ZM12.4352 16.5408L5.23071 9.33639L1.72398 12.8506C-0.53492 15.0999 -0.565858 18.0549 1.58336 20.1903C3.7464 22.3374 6.67702 22.299 8.92093 20.0572L12.4352 16.5408Z" fill="black"/>
</svg>
