<svg width="28" height="28" viewBox="0 0 28 28" fill="none" xmlns="http://www.w3.org/2000/svg">
<path d="M3.84421 24.8781H23.9109C26.4499 24.8781 27.7552 23.5824 27.7552 21.0819V6.81004C27.7552 4.30739 26.4499 3.00427 23.9109 3.00427H3.84421C1.31484 3.00427 0 4.30739 0 6.81004V21.0819C0 23.5824 1.31484 24.8781 3.84421 24.8781ZM3.97733 22.5821C2.88772 22.5821 2.29592 22.018 2.29592 20.8794V7.01043C2.29592 5.87183 2.88772 5.30019 3.97733 5.30019H23.7778C24.8578 5.30019 25.4592 5.87183 25.4592 7.01043V20.8794C25.4592 22.018 24.8578 22.5821 23.7778 22.5821H3.97733Z" fill="black"/>
<path d="M2.30762 15.015H5.1159C5.60903 15.015 5.85488 14.7839 6.0316 14.3526L7.35747 11.1367L9.88849 19.2788C10.1025 19.9781 11.2214 19.9685 11.4534 19.2478L12.7934 15.015H15.4219C15.915 15.015 16.1512 14.7839 16.3376 14.3526L17.7124 11.1325L20.2531 19.2788C20.4649 19.9781 21.5859 19.9685 21.8063 19.2478L23.1579 15.015H25.4709V13.3809H22.6854C22.1902 13.3809 21.9167 13.6237 21.7697 14.0496L21.0291 16.1381L18.4927 8.4766C18.267 7.79105 17.246 7.78894 16.9533 8.50753L14.9515 13.3809H12.3209C11.8352 13.3809 11.5638 13.628 11.4052 14.0496L10.6645 16.1381L8.1302 8.4766C7.912 7.79105 6.88145 7.78894 6.58872 8.50753L4.58692 13.3809H2.30762V15.015Z" fill="black"/>
</svg>
