<svg width="28" height="28" viewBox="0 0 28 28" fill="none" xmlns="http://www.w3.org/2000/svg">
<path d="M0.294652 27.0233C0.672227 27.3892 1.26683 27.3712 1.64652 26.9957L7.22348 21.4208L5.877 20.0669L0.292542 25.6513C-0.0871425 26.0289 -0.108471 26.6437 0.294652 27.0233ZM14.9546 5.83632L13.4272 7.36163L16.3393 10.2812C16.5554 10.5069 16.5629 10.8892 16.3393 11.1053C16.104 11.3331 15.7622 11.331 15.5269 11.1053L12.6052 8.18358L11.0086 9.78226L13.9186 12.6923C14.154 12.9276 14.154 13.2885 13.9283 13.5142C13.6929 13.7516 13.3395 13.742 13.1063 13.5142L10.1942 10.5925L8.57841 12.1987L11.5001 15.1204C11.7258 15.344 11.7333 15.707 11.5118 15.9327C11.2744 16.1701 10.9231 16.168 10.6878 15.9327L7.76607 13.0089L6.16739 14.6172L9.09122 17.5218C9.30731 17.7475 9.31692 18.1084 9.10083 18.3341C8.86341 18.5887 8.51419 18.5887 8.26716 18.3437L5.35505 15.4295L4.22536 16.5517C2.95083 17.8389 2.91263 19.3558 4.12739 20.578L6.75286 23.2152C7.96551 24.4258 9.50793 24.3768 10.793 23.0917L21.4967 12.3784L14.9546 5.83632ZM14.655 3.61351L23.7345 12.6929C24.1885 13.1469 24.9232 13.1469 25.3751 12.6929C25.8345 12.2432 25.8366 11.4946 25.3751 11.0448L24.1043 9.77406L24.6206 9.25773C25.0746 8.80375 25.0842 8.06899 24.6206 7.61712L23.0754 6.07188L24.4179 4.72515L25.6828 5.9943C26.1326 6.44617 26.8737 6.44406 27.3234 5.9943C27.7849 5.53071 27.7849 4.79595 27.3234 4.34408L23.3255 0.346111C22.8715 -0.11537 22.1367 -0.11537 21.6753 0.346111C21.2255 0.795873 21.2234 1.53696 21.6753 1.98672L22.9519 3.25165L21.6094 4.59416L19.7288 2.71563C19.2769 2.26165 18.5325 2.26165 18.0785 2.71563L17.5622 3.23196L16.3053 1.9729C15.8321 1.49009 15.1069 1.51142 14.655 1.9729C14.2032 2.42688 14.1818 3.14031 14.655 3.61351Z" fill="black"/>
</svg>
