<svg width="28" height="28" viewBox="0 0 28 28" fill="none" xmlns="http://www.w3.org/2000/svg">
<path d="M14.105 26.2301C20.7369 26.2301 26.2121 20.7549 26.2121 14.123C26.2121 7.50291 20.7273 2.01807 14.0954 2.01807C7.47523 2.01807 2 7.50291 2 14.123C2 20.7549 7.48484 26.2301 14.105 26.2301Z" fill="black"/>
<path d="M7.41895 15.2853V12.9352C7.41895 12.1294 7.96926 11.5695 8.77504 11.5695H11.5611V8.8144C11.5611 7.98519 12.1114 7.43909 12.9193 7.43909H15.2694C16.089 7.43909 16.6276 7.98519 16.6276 8.8144V11.5695H19.4136C20.229 11.5695 20.7793 12.1294 20.7793 12.9352V15.2853C20.7793 16.0953 20.229 16.6435 19.4136 16.6435H16.6276V19.4199C16.6276 20.247 16.089 20.7856 15.2694 20.7856H12.9193C12.1114 20.7856 11.5611 20.247 11.5611 19.4199V16.6435H8.77926C7.97887 16.6435 7.41895 16.0953 7.41895 15.2853Z" fill="white"/>
</svg>
