<svg width="28" height="28" viewBox="0 0 28 28" fill="none" xmlns="http://www.w3.org/2000/svg">
<path d="M6.84421 24.8972H21.0295C23.5685 24.8972 24.8737 23.5919 24.8737 21.0914V6.82921C24.8737 4.32656 23.5685 3.02344 21.0295 3.02344H6.84421C4.31484 3.02344 3 4.31695 3 6.82921V21.0914C3 23.6016 4.31484 24.8972 6.84421 24.8972ZM6.97733 22.6013C5.88772 22.6013 5.29592 22.0371 5.29592 20.8985V7.01999C5.29592 5.88139 5.88772 5.31936 6.97733 5.31936H20.8964C21.9764 5.31936 22.5778 5.88139 22.5778 7.01999V20.8985C22.5778 22.0371 21.9764 22.6013 20.8964 22.6013H6.97733Z" fill="black"/>
<path d="M13.9423 18.8006C18.523 18.8006 21.6455 15.0947 21.6455 13.9523C21.6455 12.7983 18.5133 9.09448 13.9423 9.09448C9.38184 9.09448 6.22949 12.7983 6.22949 13.9523C6.22949 15.0947 9.41066 18.8006 13.9423 18.8006ZM13.9423 17.096C12.1946 17.096 10.7869 15.6574 10.7869 13.9544C10.7773 12.1908 12.1946 10.8012 13.9423 10.8012C15.6868 10.8012 17.0998 12.1908 17.0998 13.9544C17.0998 15.6574 15.6868 17.096 13.9423 17.096ZM13.9615 15.326C14.6947 15.326 15.3277 14.6855 15.3277 13.9544C15.3277 13.2117 14.6947 12.5691 13.9615 12.5691C13.1975 12.5691 12.5611 13.2117 12.5611 13.9544C12.5611 14.6855 13.1975 15.326 13.9615 15.326Z" fill="black"/>
</svg>
