<svg width="28" height="28" viewBox="0 0 28 28" fill="none" xmlns="http://www.w3.org/2000/svg">
<path d="M3.87779 23.8173C6.4402 26.3743 10.1084 26.3534 12.9045 23.5574L23.5662 12.8935C26.3548 10.1049 26.3735 6.44096 23.8207 3.87432C21.2562 1.3173 17.5901 1.34987 14.8036 4.13636L4.13982 14.7885C1.34161 17.5867 1.32287 21.2506 3.87779 23.8173ZM5.36465 22.34C3.6352 20.6223 3.8916 18.2331 5.74059 16.3649L16.3683 5.73502C18.2014 3.89236 20.6044 3.64134 22.3435 5.36119C24.0708 7.07353 23.8357 9.46815 21.9579 11.3364L11.3398 21.9662C9.50676 23.8014 7.09411 24.062 5.36465 22.34ZM9.53396 10.9899L16.6179 18.0697L18.0975 16.5985L10.9976 9.50823L9.53396 10.9899Z" fill="black"/>
</svg>
