<svg width="28" height="28" viewBox="0 0 28 28" fill="none" xmlns="http://www.w3.org/2000/svg">
<path d="M6.84421 24.8972H21.0295C23.5685 24.8972 24.8737 23.5919 24.8737 21.0914V6.82921C24.8737 4.32656 23.5685 3.02344 21.0295 3.02344H6.84421C4.31484 3.02344 3 4.31695 3 6.82921V21.0914C3 23.6016 4.31484 24.8972 6.84421 24.8972Z" fill="black"/>
<path d="M13.9683 18.8977C9.3418 18.8977 6.10156 15.1179 6.10156 13.9523C6.10156 12.7793 9.31297 8.99951 13.9683 8.99951C18.6322 8.99951 21.8234 12.7793 21.8234 13.9523C21.8234 15.1179 18.6418 18.8977 13.9683 18.8977ZM13.9683 17.1551C15.7444 17.1551 17.1828 15.6912 17.1828 13.9544C17.1828 12.1591 15.7444 10.7421 13.9683 10.7421C12.1869 10.7421 10.7422 12.1591 10.7518 13.9544C10.7518 15.6912 12.1869 17.1551 13.9683 17.1551ZM13.9876 15.3534C13.2087 15.3534 12.5577 14.7023 12.5577 13.9544C12.5577 13.1969 13.2087 12.5437 13.9876 12.5437C14.7354 12.5437 15.379 13.1969 15.379 13.9544C15.379 14.7023 14.7354 15.3534 13.9876 15.3534Z" fill="white"/>
</svg>
