<svg width="28" height="28" viewBox="0 0 28 28" fill="none" xmlns="http://www.w3.org/2000/svg">
<path d="M0.294652 27.0233C0.672227 27.3892 1.26683 27.3733 1.64652 26.9957L6.61293 22.0314L5.25684 20.687L0.292542 25.6513C-0.0871425 26.031 -0.108471 26.6437 0.294652 27.0233ZM4.26403 20.7264L6.62582 23.0669C7.88652 24.3179 9.60613 24.2786 10.9296 22.9551L23.1521 10.7326L21.6263 9.20264L9.45144 21.3892C9.01551 21.823 8.42394 21.8017 7.96668 21.3444L5.97683 19.3663C5.51957 18.9208 5.51957 18.3271 5.96722 17.8794L18.1357 5.71631L16.6004 4.18093L4.37372 16.4151C3.03099 17.7653 2.99161 19.4732 4.26403 20.7264ZM6.29113 15.3681L9.12754 18.2162C9.37036 18.4612 9.71418 18.4494 9.9591 18.2066C10.1773 17.9905 10.1656 17.62 9.94949 17.3943L7.10348 14.5675L6.29113 15.3681ZM8.74762 12.9351L11.5819 15.7715C11.8172 16.0068 12.1686 16.0068 12.4039 15.7715C12.6296 15.5458 12.6104 15.1827 12.3943 14.9591L9.55785 12.1227L8.74762 12.9351ZM11.1999 10.4711L14.0363 13.3171C14.2716 13.5407 14.6208 13.5524 14.8561 13.3171C15.0818 13.0914 15.0797 12.7326 14.8465 12.4952L12.0122 9.65874L11.1999 10.4711ZM13.6543 8.02632L16.4886 10.8744C16.7218 11.1001 17.0656 11.098 17.3009 10.8744C17.5308 10.6584 17.517 10.2761 17.3009 10.0504L14.457 7.21609L13.6543 8.02632ZM14.655 3.61351L23.7345 12.6951C24.1885 13.1469 24.9232 13.1469 25.3751 12.6951C25.8345 12.2453 25.8366 11.4967 25.3751 11.0448L16.3053 1.97501C15.83 1.49009 15.1069 1.51142 14.655 1.97501C14.2032 2.42688 14.1818 3.14242 14.655 3.61351ZM16.9301 3.86617L23.4605 10.42L24.6206 9.25773C25.0746 8.80586 25.0842 8.0711 24.6206 7.61712L23.0754 6.07188L24.4179 4.72726L25.6828 5.9943C26.1326 6.44617 26.8737 6.44406 27.3234 5.9943C27.7849 5.53282 27.7849 4.79806 27.3234 4.34408L23.3255 0.346111C22.8715 -0.11537 22.1367 -0.11537 21.6753 0.346111C21.2255 0.795873 21.2234 1.53696 21.6753 1.98672L22.9519 3.25165L21.6094 4.59626L19.7288 2.71563C19.2769 2.26376 18.5325 2.26376 18.0785 2.71563L16.9301 3.86617Z" fill="black"/>
</svg>
