<svg width="31" height="28" viewBox="0 0 31 28" fill="none" xmlns="http://www.w3.org/2000/svg">
<path d="M0 23.229C0 23.8574 0.405702 24.2568 1.02984 24.2568H1.75617C2.37281 24.2568 2.78601 23.8574 2.78601 23.229V21.5369C2.91703 21.5741 3.32695 21.5997 3.62507 21.5997H26.528C26.8261 21.5997 27.236 21.5741 27.367 21.5369V23.229C27.367 23.8574 27.7802 24.2568 28.3969 24.2568H29.1232C29.7473 24.2568 30.153 23.8574 30.153 23.229V16.1202C30.153 13.7954 28.8687 12.527 26.5376 12.527H3.61546C1.28648 12.527 0 13.7954 0 16.1202V23.229Z" fill="black"/>
<path d="M2.89062 10.7373H5.95157V9.10679C5.95157 7.98109 6.5736 7.37078 7.72062 7.37078H12.0601C13.1975 7.37078 13.8195 7.98109 13.8195 9.10679V10.7373H16.4607V9.10679C16.4607 7.98109 17.0827 7.37078 18.2799 7.37078H22.3963C23.5934 7.37078 24.2155 7.98109 24.2155 9.10679V10.7373H27.286V7.36984C27.286 5.14914 26.0846 4 23.9056 4H6.26141C4.08243 4 2.89062 5.14914 2.89062 7.36984V10.7373Z" fill="black"/>
</svg>
