<svg width="35" height="28" viewBox="0 0 35 28" fill="none" xmlns="http://www.w3.org/2000/svg">
<path d="M4.85363 26.3098L9.81137 25.3496C12.5636 24.8117 13.7978 23.2953 13.7978 20.3694V6.38585C13.7978 3.74562 11.9512 2 9.20973 2C6.84676 2 4.92372 3.58438 4.2602 6.05633L0.212308 21.3988C-0.687456 24.803 1.35043 26.9764 4.85363 26.3098ZM11.5336 6.43015V20.3694C11.5336 22.1673 11.0208 22.7973 9.38059 23.1151L4.44581 24.0669C2.98566 24.3589 2.04252 23.4179 2.45104 21.8595L6.4755 6.59585C6.84558 5.19757 7.93027 4.26428 9.19918 4.26428C10.5855 4.26428 11.5336 5.13663 11.5336 6.43015ZM29.2324 26.3098C32.7356 26.9764 34.7735 24.803 33.8737 21.3988L29.8258 6.05633C29.1719 3.58438 27.2392 2 24.8763 2C22.1348 2 20.2978 3.74562 20.2978 6.38585V20.3694C20.2978 23.2953 21.5224 24.8117 24.2843 25.3496L29.2324 26.3098ZM22.5621 6.43015C22.5621 5.13663 23.5005 4.26428 24.8868 4.26428C26.1557 4.26428 27.2404 5.19757 27.6105 6.59585L31.6446 21.8595C32.0435 23.4179 31.1004 24.3589 29.6402 24.0669L24.7054 23.1151C23.0749 22.7973 22.5621 22.1673 22.5621 20.3694V6.43015Z" fill="black"/>
<path d="M13.7979 18.9212V16.6154L12.2679 16.9395L8.35479 13.4122C7.91558 13.0145 7.16253 13.0367 6.7648 13.4856C6.34363 13.9503 6.39684 14.6916 6.84988 15.0894L9.55271 17.5074L6.2916 18.2094C5.70777 18.3263 5.30465 18.9294 5.41738 19.5324C5.53973 20.1301 6.16832 20.5374 6.76386 20.4109L13.7979 18.9212ZM20.2979 16.6154V18.9212L27.3319 20.4109C27.9254 20.5374 28.5561 20.1301 28.6688 19.5324C28.7911 18.9294 28.388 18.3263 27.7946 18.2094L24.5314 17.5074L27.2438 15.0894C27.699 14.6916 27.7501 13.9503 27.331 13.4856C26.9237 13.0367 26.1706 13.0145 25.7314 13.4122L21.8279 16.9395L20.2979 16.6154Z" fill="black"/>
<path d="M20.2979 18.9212V16.6154L18.18 16.1558V3.72617C18.18 3.10719 17.6738 2.58923 17.0527 2.58923C16.4337 2.58923 15.9179 3.10719 15.9179 3.72617V16.1558L13.7979 16.6154V18.9212L17.0527 18.2223L20.2979 18.9212Z" fill="black"/>
</svg>
