<svg width="28" height="28" viewBox="0 0 28 28" fill="none" xmlns="http://www.w3.org/2000/svg">
<path d="M10.8976 23.7684H16.621C17.034 23.7684 17.3682 23.4375 17.3682 23.0233C17.3682 22.605 17.034 22.2762 16.621 22.2762H10.8976C10.4729 22.2762 10.1387 22.605 10.1387 23.0233C10.1387 23.4375 10.4729 23.7684 10.8976 23.7684ZM13.7593 27.2053C15.373 27.2053 16.5338 26.3383 16.7588 24.9855H10.748C10.9538 26.3383 12.1147 27.2053 13.7593 27.2053Z" fill="black"/>
<path d="M11.0524 21.0035H16.4509C16.9466 21.0035 17.222 20.7281 17.222 20.2399V19.1494C17.222 13.6181 21.2265 10.6141 22.8402 7.44983H4.68652C6.31191 10.5928 10.2813 13.6608 10.2813 19.1494V20.2399C10.2813 20.7281 10.5567 21.0035 11.0524 21.0035Z" fill="black"/>
<path d="M4.07688 5.60885H23.4306C23.4787 5.39112 23.5075 5.16166 23.5075 4.93643C23.5075 1.82346 19.9192 0.088623 13.7596 0.088623C7.58828 0.088623 4 1.82346 4 4.93643C4 5.16166 4.02883 5.38151 4.07688 5.60885Z" fill="black"/>
</svg>
