<svg width="34" height="28" viewBox="0 0 34 28" fill="none" xmlns="http://www.w3.org/2000/svg">
<path d="M16.8005 24.5422C26.7881 24.5422 33.6403 19.9312 33.6403 14.2759C33.6403 8.6207 26.7881 4 16.8005 4C6.84046 4 0 8.6207 0 14.2759C0 19.9312 6.84046 24.5422 16.8005 24.5422ZM16.8005 20.7407C10.5387 20.7407 5.87483 18.1138 5.87483 14.5691C5.87483 11.05 10.5387 8.42523 16.8005 8.42523C23.0974 8.42523 27.7751 11.05 27.7751 14.5691C27.7751 18.1042 23.0878 20.7407 16.8005 20.7407ZM16.7972 15.2819C20.3979 15.2819 23.4888 13.6984 24.7106 11.4569C23.0133 10.2904 20.2795 9.56499 16.8005 9.56499C13.3202 9.56499 10.5736 10.3 8.87413 11.4974C10.1173 13.7273 13.1986 15.2819 16.7972 15.2819Z" fill="black"/>
</svg>
