<svg width="28" height="28" viewBox="0 0 28 28" fill="none" xmlns="http://www.w3.org/2000/svg">
<path d="M14.105 26.21C20.7369 26.21 26.2121 20.7273 26.2121 14.105C26.2121 7.47312 20.7273 2 14.0954 2C7.47523 2 2 7.47312 2 14.105C2 20.7273 7.48484 26.21 14.105 26.21Z" fill="black"/>
<path d="M9.20863 16.3398C7.91137 16.3398 6.87402 15.2832 6.87402 13.9977C6.87402 12.7004 7.91137 11.6534 9.20863 11.6534C10.5038 11.6534 11.5507 12.7004 11.5507 13.9977C11.5507 15.2832 10.5038 16.3398 9.20863 16.3398ZM19.0018 16.3398C17.7045 16.3398 16.6575 15.2832 16.6575 13.9977C16.6575 12.7004 17.7045 11.6534 19.0018 11.6534C20.299 11.6534 21.3343 12.7004 21.3343 13.9977C21.3343 15.2832 20.299 16.3398 19.0018 16.3398ZM12.6575 18.3889H15.5529C15.9364 18.3889 16.1386 18.587 16.1386 18.9683V19.8472C16.1386 20.9773 15.245 21.8785 14.1052 21.8785C12.9537 21.8785 12.0739 20.987 12.0739 19.8472V18.9683C12.0739 18.587 12.2782 18.3889 12.6575 18.3889Z" fill="white"/>
</svg>
