<svg width="29" height="28" viewBox="0 0 29 28" fill="none" xmlns="http://www.w3.org/2000/svg">
<path d="M2.27554 15.8301H4.30523C5.7703 15.8301 6.56905 15.0548 6.56905 13.627V5.20312C6.56905 3.77531 5.7703 3 4.30523 3H2.27554C0.800858 3 0 3.77531 0 5.20312V13.627C0 15.0548 0.800858 15.8301 2.27554 15.8301ZM5.50359 12.9448H10.4644L11.7501 10.5373C12.3434 9.41788 13.2792 8.81413 14.4452 8.81413C15.6037 8.81413 16.53 9.41788 17.1349 10.5394L18.4399 12.9448H23.3772V5.82773H5.50359V12.9448ZM24.5777 15.8301H26.5978C28.0821 15.8301 28.8733 15.0548 28.8733 13.627V5.20312C28.8733 3.77531 28.0821 3 26.5978 3H24.5777C23.103 3 22.3043 3.77531 22.3043 5.20312V13.627C22.3043 15.0548 23.103 15.8301 24.5777 15.8301Z" fill="black"/>
<path d="M14.4452 25.7831C17.4054 25.7831 19.7615 23.4738 19.7615 20.5861C19.7615 19.0043 18.9701 17.4448 18.3159 16.2281L15.6834 11.3285C15.3724 10.7512 14.9925 10.4787 14.4452 10.4787C13.898 10.4787 13.5201 10.7534 13.2091 11.3189L10.5884 16.2281C9.9321 17.4448 9.14062 19.0043 9.14062 20.5861C9.14062 23.4738 11.4989 25.7831 14.4452 25.7831Z" fill="black"/>
</svg>
