<svg width="32" height="28" viewBox="0 0 32 28" fill="none" xmlns="http://www.w3.org/2000/svg">
<path d="M8.81273 6C7.13343 6 6.13898 6.71976 4.92516 7.97414L0.961405 12.1376C-0.32578 13.4611 -0.311952 15.1856 0.951795 16.5251L4.91133 20.7588C6.01969 21.929 7.24101 22.7426 8.81273 22.7426H22.8347C24.4064 22.7426 25.6202 21.929 26.7382 20.7588L30.6881 16.5251C31.9519 15.1835 31.9753 13.4611 30.6881 12.1376L26.7223 7.97414C25.4988 6.71976 24.514 6 22.8347 6H8.81273Z" fill="black"/>
<path d="M7.93528 12.2274C9.1102 12.2274 10.0763 13.1892 10.0763 14.3588C10.0763 15.5241 9.1102 16.4998 7.93528 16.4998C6.76575 16.4998 5.81348 15.5241 5.81348 14.3588C5.81348 13.1892 6.76575 12.2274 7.93528 12.2274ZM15.8342 14.2559C17.0016 14.2559 17.956 15.2295 17.956 16.3969C17.956 17.5643 17.0016 18.5283 15.8342 18.5283C14.655 18.5283 13.7028 17.5643 13.7028 16.3969C13.7028 15.2295 14.655 14.2559 15.8342 14.2559ZM23.7235 12.2274C24.893 12.2274 25.8549 13.1892 25.8549 14.3588C25.8549 15.5241 24.893 16.4998 23.7235 16.4998C22.5582 16.4998 21.5825 15.5241 21.5825 14.3588C21.5825 13.1892 22.5582 12.2274 23.7235 12.2274Z" fill="white"/>
</svg>
