<svg width="28" height="28" viewBox="0 0 28 28" fill="none" xmlns="http://www.w3.org/2000/svg">
<path d="M6.84421 24.8972H21.0295C23.5685 24.8972 24.8737 23.5919 24.8737 21.0914V6.82921C24.8737 4.32656 23.5685 3.02344 21.0295 3.02344H6.84421C4.31484 3.02344 3 4.31695 3 6.82921V21.0914C3 23.6016 4.31484 24.8972 6.84421 24.8972ZM6.97733 22.6013C5.88772 22.6013 5.29592 22.0371 5.29592 20.8985V7.01999C5.29592 5.88139 5.88772 5.31936 6.97733 5.31936H20.8964C21.9764 5.31936 22.5778 5.88139 22.5778 7.01999V20.8985C22.5778 22.0371 21.9764 22.6013 20.8964 22.6013H6.97733Z" fill="black"/>
<path d="M9.54399 19.3523H18.3293C19.0212 19.3523 19.5237 18.8498 19.5237 18.158V9.72745C19.5237 9.03557 19.0212 8.53308 18.3293 8.53308H9.54399C8.85211 8.53308 8.34961 9.03557 8.34961 9.72745V18.158C8.34961 18.8498 8.85211 19.3523 9.54399 19.3523ZM11.7021 14.0095C11.3433 14.0095 11.059 13.7327 11.059 13.3547V11.3845C11.059 11.0139 11.3433 10.7221 11.7021 10.7221C12.0727 10.7221 12.3666 11.0139 12.3666 11.3845V13.3547C12.3666 13.7306 12.0727 14.0095 11.7021 14.0095ZM16.1595 14.0095C15.791 14.0095 15.5067 13.7327 15.5067 13.3547V11.3845C15.5067 11.0139 15.791 10.7221 16.1595 10.7221C16.5204 10.7221 16.8143 11.0139 16.8143 11.3845V13.3547C16.8143 13.7306 16.5204 14.0095 16.1595 14.0095ZM13.1841 17.5109C12.9593 17.5109 12.8454 17.4033 12.8454 17.1806V16.5007C12.8454 15.8829 13.3151 15.4036 13.9404 15.4036C14.5486 15.4036 15.0279 15.8829 15.0279 16.5007V17.1806C15.0279 17.4033 14.914 17.5109 14.6892 17.5109H13.1841Z" fill="black"/>
</svg>
