<svg width="28" height="28" viewBox="0 0 28 28" fill="none" xmlns="http://www.w3.org/2000/svg">
<path d="M14.3102 6.34455C17.1307 6.34455 19.4653 4.67393 19.8293 2.36979C19.9584 1.51761 19.5431 0.90706 18.6752 0.671748C16.2002 0.00166988 12.4181 0.00166988 9.95483 0.671748C9.08483 0.90706 8.67163 1.51761 8.79866 2.36979C9.16265 4.67393 11.4898 6.34455 14.3102 6.34455ZM13.2652 13.0809H15.3628V5.58237H13.2652V13.0809ZM14.3102 16.8361C18.5259 16.8361 22.1318 17.5887 24.4186 18.9349C23.3744 16.9793 21.4917 15.0928 19.2879 14.0011C18.5871 11.6876 16.5637 10.2211 14.3102 10.2211C12.0609 10.2211 10.0355 11.6834 9.33047 14.0011C7.12663 15.0928 5.246 16.9793 4.19975 18.9349C6.48654 17.5887 10.0924 16.8361 14.3102 16.8361ZM14.3102 27.6572C21.1118 27.6572 25.6183 25.7245 25.6183 22.8209C25.6183 20.1326 20.3498 18.4666 14.3102 18.4666C8.26852 18.4666 3 20.1134 3 22.8209C3 25.7245 7.50656 27.6572 14.3102 27.6572ZM14.3102 23.5718C12.0607 23.5718 10.0566 22.2499 9.92718 20.5212C11.2805 20.2976 12.7291 20.1602 14.3102 20.1602C15.8796 20.1602 17.34 20.2976 18.6933 20.5212C18.5543 22.2499 16.5886 23.5718 14.3102 23.5718Z" fill="black"/>
</svg>
