<svg width="28" height="28" viewBox="0 0 28 28" fill="none" xmlns="http://www.w3.org/2000/svg">
<path d="M8.28601 27.8456H19.0047C19.5184 27.8456 19.8313 27.4512 19.8313 26.9182C19.8313 25.9676 19.0405 25.3064 17.883 25.3064H14.766V19.2152C19.5571 18.6705 23.2928 14.5837 23.2928 9.65225C23.2928 4.33359 18.9571 0 13.6405 0C8.32609 0 4 4.33359 4 9.65225C4 14.603 7.74531 18.6801 12.5439 19.2248V25.3064H9.40023C8.24265 25.3064 7.45187 25.9676 7.45187 26.9182C7.45187 27.4512 7.76265 27.8456 8.28601 27.8456Z" fill="black"/>
<path d="M10.6544 15.6274C8.97484 15.6274 7.26367 13.7236 7.26367 11.7752C7.26367 10.7166 7.8707 10.1468 8.96452 10.1468H11.0125C10.9816 9.97968 10.972 9.76968 10.9741 9.58546C8.86796 8.85936 7.7057 8.10538 7.7057 6.68554C7.7057 5.01562 9.62664 3.29272 11.5708 3.29272C12.6316 3.29272 13.2013 3.91147 13.2013 4.99358V6.9914C13.3855 6.95085 13.5955 6.95085 13.784 6.95296C14.4888 4.88741 15.2641 3.75608 16.6551 3.75608C18.3346 3.75608 20.0383 5.66952 20.0383 7.59444C20.0383 8.66061 19.4292 9.2346 18.3471 9.2346H16.3279C16.3417 9.43594 16.3513 9.6096 16.3396 9.80553C18.4361 10.5199 19.5963 11.276 19.5963 12.7033C19.5963 14.3754 17.6849 16.0865 15.7408 16.0865C14.68 16.0865 14.1081 15.4795 14.1081 14.3974V12.2855C13.9356 12.3302 13.7737 12.3302 13.5756 12.3185C12.842 14.4513 12.0763 15.6274 10.6544 15.6274ZM13.6499 11.033C14.4042 11.033 14.9943 10.4428 14.9943 9.7003C14.9943 8.9428 14.4042 8.34632 13.6499 8.34632C12.8978 8.34632 12.3077 8.93647 12.3077 9.7003C12.3077 10.4407 12.8978 11.033 13.6499 11.033Z" fill="white"/>
</svg>
