<svg width="28" height="28" viewBox="0 0 28 28" fill="none" xmlns="http://www.w3.org/2000/svg">
<path d="M14.3062 0C11.7613 0 9.53197 1.05141 8.06736 2.71312L9.51743 4.16319C10.6129 2.84718 12.37 2.04796 14.3062 2.04796C17.5169 2.05007 20.2331 4.25718 20.2331 7.35374C20.2331 9.38953 19.3518 10.4817 18.4556 13.0938L20.1396 14.7853C21.1242 11.8573 22.281 10.3036 22.281 7.35585C22.281 3.20953 18.7417 0 14.3062 0ZM10.6361 21.6077H17.9667C18.4279 21.6077 18.7249 21.371 18.7893 20.9712L18.8662 20.3562L17.3107 18.8796L17.2242 19.5619H11.5509C11.0111 15.0258 9.9761 13.099 9.48672 11.2174C9.44195 11.0575 9.4068 10.8998 9.38336 10.7442L6.38244 7.74327C6.36955 8.03835 6.38549 8.32171 6.41525 8.60296C6.824 12.143 9.04096 13.8035 9.67635 20.7159C9.72955 21.2644 10.0588 21.6077 10.6361 21.6077ZM10.5407 24.3246H18.0621C18.4867 24.3246 18.8189 23.984 18.8189 23.5699C18.8189 23.1612 18.4867 22.8227 18.0621 22.8227H10.5407C10.1181 22.8227 9.79353 23.1612 9.79353 23.5699C9.79353 23.984 10.1181 24.3246 10.5407 24.3246ZM14.3062 27.8053C16.151 27.8053 17.6575 26.9041 17.7693 25.5417H10.8208C10.9134 26.9041 12.4422 27.8053 14.3062 27.8053Z" fill="black"/>
<path d="M22.9612 22.2757C23.3351 22.6591 23.9208 22.6474 24.2808 22.2757C24.6387 21.9115 24.6429 21.3279 24.2808 20.9562L4.59046 1.26372C4.22414 0.887775 3.61922 0.911212 3.25922 1.26372C2.90672 1.61411 2.92054 2.24247 3.25922 2.58325L22.9612 22.2757Z" fill="black"/>
</svg>
