<svg width="28" height="28" viewBox="0 0 28 28" fill="none" xmlns="http://www.w3.org/2000/svg">
<path d="M6.84421 24.8972H21.0295C23.5685 24.8972 24.8737 23.5919 24.8737 21.0914V6.82921C24.8737 4.32656 23.5685 3.02344 21.0295 3.02344H6.84421C4.31484 3.02344 3 4.31695 3 6.82921V21.0914C3 23.6016 4.31484 24.8972 6.84421 24.8972Z" fill="black"/>
<path d="M9.27717 19.7116C8.5239 19.7116 7.98438 19.1721 7.98438 18.4188V9.46663C7.98438 8.71335 8.5239 8.17383 9.27717 8.17383H18.5969C19.3502 8.17383 19.8897 8.71335 19.8897 9.46663V18.4188C19.8897 19.1721 19.3502 19.7116 18.5969 19.7116H9.27717ZM11.5478 14.0201C11.9469 14.0201 12.2652 13.7147 12.2652 13.3102V11.2118C12.2652 10.8148 11.9469 10.4944 11.5478 10.4944C11.1583 10.4944 10.8496 10.8148 10.8496 11.2118V13.3102C10.8496 13.7189 11.1583 14.0201 11.5478 14.0201ZM16.3146 14.0201C16.7041 14.0201 17.0245 13.7147 17.0245 13.3102V11.2118C17.0245 10.8148 16.7041 10.4944 16.3146 10.4944C15.9175 10.4944 15.6089 10.8148 15.6089 11.2118V13.3102C15.6089 13.7189 15.9175 14.0201 16.3146 14.0201ZM13.1315 17.7588H14.7426C14.9896 17.7588 15.1057 17.6332 15.1057 17.4V16.6776C15.1057 16.0111 14.5999 15.5011 13.9408 15.5011C13.2646 15.5011 12.7684 16.0111 12.7684 16.6776V17.4C12.7684 17.6332 12.8844 17.7588 13.1315 17.7588Z" fill="white"/>
</svg>
