<svg width="28" height="28" viewBox="0 0 28 28" fill="none" xmlns="http://www.w3.org/2000/svg">
<path d="M6.84421 24.8972H21.0295C23.5685 24.8972 24.8737 23.5919 24.8737 21.0914V6.82921C24.8737 4.32656 23.5685 3.02344 21.0295 3.02344H6.84421C4.31484 3.02344 3 4.31695 3 6.82921V21.0914C3 23.6016 4.31484 24.8972 6.84421 24.8972Z" fill="black"/>
<path d="M10.0934 19.5668C9.69968 19.5668 9.32398 19.4466 9.05141 19.1836C7.7218 17.9222 6.79297 15.9825 6.79297 13.9544C6.79297 11.9146 7.73351 9.96324 9.07906 8.69761C9.33781 8.46019 9.70179 8.35168 10.0934 8.35168H17.7795C18.1733 8.35168 18.549 8.47191 18.8215 8.73488C20.1512 9.98668 21.08 11.9285 21.08 13.9544C21.08 15.9825 20.1512 17.9222 18.8215 19.1836C18.549 19.4466 18.1733 19.5668 17.7795 19.5668H10.0934ZM10.9386 16.8377C11.3591 16.8377 11.6891 16.5077 11.6891 16.0873V11.8099C11.6891 11.3894 11.3591 11.069 10.9386 11.069C10.5298 11.069 10.1977 11.3894 10.1977 11.8099V16.0873C10.1977 16.5077 10.5298 16.8377 10.9386 16.8377ZM16.9344 16.8377C17.3527 16.8377 17.6752 16.5077 17.6752 16.0873V11.8099C17.6752 11.3894 17.3527 11.069 16.9344 11.069C16.5139 11.069 16.1935 11.3894 16.1935 11.8099V16.0873C16.1935 16.5077 16.5139 16.8377 16.9344 16.8377Z" fill="white"/>
</svg>
