<svg width="28" height="28" viewBox="0 0 28 28" fill="none" xmlns="http://www.w3.org/2000/svg">
<path d="M12.6444 15.2769H14.8918V5.45585C14.8918 4.7178 15.3749 4.23264 16.1129 4.23264C16.851 4.23264 17.3361 4.71991 17.3361 5.45585V7.42882C17.3361 8.04569 17.8457 8.55522 18.4625 8.55522C19.0794 8.55522 19.5814 8.04569 19.5814 7.42882V5.41999C19.5814 3.37132 18.1616 2 16.1129 2C14.0643 2 12.6444 3.37132 12.6444 5.41999V15.2769ZM9.02616 15.2769H10.9051V12.0062C10.9051 11.3581 10.4648 10.9273 9.82631 10.9273H6.28256C5.76788 10.9273 5.34038 11.3548 5.34038 11.8716C5.34038 12.3884 5.76788 12.8063 6.28256 12.8063H8.81827C8.94835 12.8063 9.02616 12.8937 9.02616 13.0163V15.2769ZM16.6311 15.2769H18.5101V13.0163C18.5101 12.8937 18.5879 12.8063 18.718 12.8063H21.2537C21.7684 12.8063 22.1863 12.3884 22.1863 11.8716C22.1863 11.3548 21.7684 10.9273 21.2537 10.9273H17.71C17.0598 10.9273 16.6311 11.3581 16.6311 12.0062V15.2769ZM2.1189 16.6775H2.45312V20.5079C2.45312 23.885 4.54983 25.8464 8.15076 25.8464H19.4816C23.0825 25.8464 25.1889 23.885 25.1889 20.5079V16.6775H25.5135C26.1282 16.6775 26.6324 16.1637 26.6324 15.549C26.6324 14.9342 26.1282 14.4301 25.5135 14.4301H2.1189C1.50414 14.4301 1 14.9342 1 15.549C1 16.1637 1.50414 16.6775 2.1189 16.6775Z" fill="black"/>
</svg>
