<svg width="28" height="28" viewBox="0 0 28 28" fill="none" xmlns="http://www.w3.org/2000/svg">
<path d="M7.06031 7.52773H20.8858C20.0325 6.23 19.0704 4.90133 18.0773 3.56515C17.2978 2.54281 16.8166 2 15.4561 2H12.5018C11.1412 2 10.6622 2.54281 9.88265 3.56515C8.87578 4.90133 7.92328 6.23 7.06031 7.52773ZM13.9901 14.112C15.4364 14.112 16.6387 15.0111 17.0848 16.3074H24.9152C24.6372 14.3619 23.6707 12.1144 22.2799 9.73155H5.66836C4.2893 12.1144 3.32062 14.3619 3.03516 16.3074H10.8837C11.3318 15.0111 12.5395 14.112 13.9901 14.112ZM13.9901 18.8255C14.7954 18.8255 15.4153 18.2056 15.4153 17.3928C15.4153 16.5992 14.7954 15.958 13.9901 15.958C13.1869 15.958 12.5573 16.5992 12.5573 17.3928C12.5573 18.2056 13.1869 18.8255 13.9901 18.8255ZM11.1171 25.1853H16.8333C21.8398 25.1853 24.577 22.734 24.9558 18.5091H17.0826C16.6441 19.7745 15.446 20.6736 13.9901 20.6736C12.5437 20.6736 11.3243 19.7745 10.8858 18.5091H3C3.37125 22.734 6.11062 25.1853 11.1171 25.1853Z" fill="black"/>
</svg>
