<svg width="31" height="28" viewBox="0 0 31 28" fill="none" xmlns="http://www.w3.org/2000/svg">
<path d="M0 3.17684C0 4.27113 0.892028 5.16316 1.97671 5.16316C2.62124 5.16316 3.20929 4.83269 3.5414 4.33066H26.5753C26.9095 4.83269 27.4997 5.16316 28.1442 5.16316C29.2268 5.16316 30.1167 4.27113 30.1167 3.17684C30.1167 2.09426 29.2268 1.20435 28.1442 1.20435C27.4997 1.20435 26.9137 1.54442 26.5795 2.03474H3.53929C3.20718 1.54442 2.61913 1.20435 1.97671 1.20435C0.892028 1.20435 0 2.09426 0 3.17684Z" fill="black"/>
<path d="M5.4316 26.241H7.57191C8.12409 26.241 8.51784 25.8451 8.51784 25.2833V1.96726C8.51784 1.40547 8.12409 1 7.57402 1H5.42949C4.87731 1 4.48145 1.40547 4.48145 1.96726V25.2833C4.48145 25.8451 4.87942 26.241 5.4316 26.241ZM22.5448 26.241H24.6872C25.2394 26.241 25.6352 25.8451 25.6352 25.2833V1.96726C25.6352 1.40547 25.2415 1 24.6893 1H22.5448C21.9947 1 21.5988 1.40547 21.5988 1.96726V25.2833C21.5988 25.8451 21.9926 26.241 22.5448 26.241Z" fill="black"/>
</svg>
