<svg width="29" height="28" viewBox="0 0 29 28" fill="none" xmlns="http://www.w3.org/2000/svg">
<path d="M3.55125 25.4197H25.1184C27.4113 25.4197 28.6718 24.1496 28.6718 21.8867V5.54468C28.6718 3.28179 27.4113 2.01172 25.1184 2.01172H3.55125C1.26586 2.01172 0 3.28179 0 5.54468V21.8867C0 24.1496 1.26586 25.4197 3.55125 25.4197ZM7.39898 12.8269C5.39835 12.8269 3.77366 11.1926 3.77366 9.19202C3.77366 7.1914 5.39835 5.55499 7.39898 5.55499C9.4071 5.55499 11.0318 7.1914 11.0318 9.19202C11.0318 11.1926 9.4071 12.8269 7.39898 12.8269ZM16.7191 12.8269C14.7089 12.8269 13.0842 11.1926 13.0842 9.19202C13.0842 7.1914 14.7089 5.55499 16.7191 5.55499C18.7294 5.55499 20.3466 7.1914 20.3466 9.19202C20.3466 11.1926 18.7294 12.8269 16.7191 12.8269ZM7.39898 21.837C5.39835 21.837 3.77366 20.2123 3.77366 18.2021C3.77366 16.2015 5.39835 14.5747 7.39898 14.5747C9.4071 14.5747 11.0318 16.2015 11.0318 18.2021C11.0318 20.2123 9.4071 21.837 7.39898 21.837ZM16.7191 21.837C14.7089 21.837 13.0842 20.2123 13.0842 18.2021C13.0842 16.2015 14.7089 14.5747 16.7191 14.5747C18.7294 14.5747 20.3466 16.2015 20.3466 18.2021C20.3466 20.2123 18.7294 21.837 16.7191 21.837ZM24.1638 9.58507C23.543 9.58507 23.0552 9.09734 23.0552 8.47648C23.0552 7.87695 23.543 7.3796 24.1638 7.3796C24.7751 7.3796 25.2607 7.87695 25.2607 8.47648C25.2607 9.09734 24.7751 9.58507 24.1638 9.58507ZM24.1638 13.0623C23.543 13.0623 23.0552 12.5841 23.0552 11.9537C23.0552 11.3541 23.543 10.8568 24.1638 10.8568C24.7751 10.8568 25.2607 11.3541 25.2607 11.9537C25.2607 12.5841 24.7751 13.0623 24.1638 13.0623ZM24.1638 16.5608C23.543 16.5608 23.0552 16.0613 23.0552 15.4522C23.0552 14.8313 23.543 14.3511 24.1638 14.3511C24.7751 14.3511 25.2607 14.8313 25.2607 15.4522C25.2607 16.0613 24.7751 16.5608 24.1638 16.5608ZM24.1638 20.0358C23.543 20.0358 23.0552 19.5385 23.0552 18.9294C23.0552 18.3181 23.543 17.8304 24.1638 17.8304C24.7751 17.8304 25.2607 18.3181 25.2607 18.9294C25.2607 19.5385 24.7751 20.0358 24.1638 20.0358ZM7.39898 11.5908C8.72999 11.5908 9.80531 10.5252 9.80531 9.19202C9.80531 7.8589 8.72999 6.79319 7.39898 6.79319C6.07546 6.79319 5.00975 7.8589 5.00975 9.19202C5.00975 10.5252 6.07546 11.5908 7.39898 11.5908ZM7.39898 11.0136C6.39069 11.0136 5.59663 10.2195 5.59663 9.19202C5.59663 8.16452 6.39069 7.38007 7.39898 7.38007C8.42437 7.38007 9.20882 8.16452 9.20882 9.19202C9.20882 10.2195 8.42437 11.0136 7.39898 11.0136ZM16.7191 11.5908C18.0502 11.5908 19.118 10.5252 19.118 9.19202C19.118 7.8589 18.0502 6.79319 16.7191 6.79319C15.3998 6.79319 14.3203 7.8589 14.3203 9.19202C14.3203 10.5252 15.3998 11.5908 16.7191 11.5908ZM16.7191 11.0136C15.6937 11.0136 14.8997 10.2195 14.8997 9.19202C14.8997 8.16452 15.6937 7.38007 16.7191 7.38007C17.7349 7.38007 18.529 8.16452 18.529 9.19202C18.529 10.2195 17.7349 11.0136 16.7191 11.0136ZM7.39898 20.5988C8.72999 20.5988 9.80531 19.5427 9.80531 18.2021C9.80531 16.869 8.72999 15.8129 7.39898 15.8129C6.07546 15.8129 5.00975 16.869 5.00975 18.2021C5.00975 19.5427 6.07546 20.5988 7.39898 20.5988ZM7.39898 20.0237C6.39069 20.0237 5.59663 19.2296 5.59663 18.2021C5.59663 17.1821 6.39069 16.3901 7.39898 16.3901C8.42437 16.3901 9.20882 17.1821 9.20882 18.2021C9.20882 19.2296 8.42437 20.0237 7.39898 20.0237ZM16.7191 20.5988C18.0502 20.5988 19.118 19.5427 19.118 18.2021C19.118 16.869 18.0502 15.8129 16.7191 15.8129C15.3998 15.8129 14.3203 16.869 14.3203 18.2021C14.3203 19.5427 15.3998 20.5988 16.7191 20.5988ZM16.7191 20.0237C15.6937 20.0237 14.8997 19.2296 14.8997 18.2021C14.8997 17.1821 15.6937 16.3901 16.7191 16.3901C17.7349 16.3901 18.529 17.1821 18.529 18.2021C18.529 19.2296 17.7349 20.0237 16.7191 20.0237Z" fill="black"/>
</svg>
