<svg width="28" height="28" viewBox="0 0 28 28" fill="none" xmlns="http://www.w3.org/2000/svg">
<path d="M6.84421 24.8972H21.0295C23.5685 24.8972 24.8737 23.5919 24.8737 21.0914V6.82921C24.8737 4.32656 23.5685 3.02344 21.0295 3.02344H6.84421C4.31484 3.02344 3 4.31695 3 6.82921V21.0914C3 23.6016 4.31484 24.8972 6.84421 24.8972ZM6.97733 22.6013C5.88772 22.6013 5.29592 22.0371 5.29592 20.8985V7.01999C5.29592 5.88139 5.88772 5.31936 6.97733 5.31936H20.8964C21.9764 5.31936 22.5778 5.88139 22.5778 7.01999V20.8985C22.5778 22.0371 21.9764 22.6013 20.8964 22.6013H6.97733Z" fill="black"/>
<path d="M13.9407 19.9938C17.296 19.9938 19.9843 17.2959 19.9843 13.9427C19.9843 10.5874 17.296 7.8916 13.9407 7.8916C10.5779 7.8916 7.88965 10.5874 7.88965 13.9427C7.88965 17.2959 10.5779 19.9938 13.9407 19.9938ZM11.0818 15.3244C10.3234 15.3244 9.69809 14.7012 9.69809 13.9427C9.69809 13.1843 10.3234 12.559 11.0818 12.559C11.8478 12.559 12.4677 13.1843 12.4677 13.9427C12.4677 14.7012 11.8478 15.3244 11.0818 15.3244ZM16.7921 15.3244C16.0337 15.3244 15.4042 14.7012 15.4042 13.9427C15.4042 13.1843 16.0337 12.559 16.7921 12.559C17.5485 12.559 18.1738 13.1843 18.1738 13.9427C18.1738 14.7012 17.5485 15.3244 16.7921 15.3244Z" fill="black"/>
</svg>
