<svg width="28" height="28" viewBox="0 0 28 28" fill="none" xmlns="http://www.w3.org/2000/svg">
<path d="M1.35398 8.92552H26.4475C27.2491 8.92552 27.8015 8.3731 27.8015 7.56194V3.34226C27.8015 2.5482 27.2491 2 26.4475 2H1.35398C0.550311 2 0 2.5482 0 3.34226V7.56194C0 8.3731 0.550311 8.92552 1.35398 8.92552ZM2.52256 6.70343C2.34889 6.70343 2.2221 6.57663 2.2221 6.39335V4.53428C2.2221 4.34889 2.34889 4.2221 2.52256 4.2221H25.279C25.4526 4.2221 25.5794 4.34889 25.5794 4.53428V6.39335C25.5794 6.57663 25.4526 6.70343 25.279 6.70343H2.52256ZM2.79234 25.3327H5.01444V7.80428H2.79234V25.3327ZM22.7892 25.3327H25.0113V7.80428H22.7892V25.3327ZM6.97287 25.3327H8.61607V12.8918C8.61607 12.5316 8.83451 12.3132 9.18724 12.3132H18.6164C18.967 12.3132 19.1855 12.5316 19.1855 12.8918V25.3327H20.8286V12.3244C20.8286 11.307 20.1916 10.6817 19.1859 10.6817H8.61772C7.60991 10.6817 6.97287 11.307 6.97287 12.3244V25.3327ZM1.15945 26.4865H26.6442C27.2737 26.4865 27.7959 25.9622 27.7959 25.3327C27.7959 24.7032 27.2737 24.1906 26.6442 24.1906H1.15945C0.529919 24.1906 0.0056262 24.7032 0.0056262 25.3327C0.0056262 25.9622 0.529919 26.4865 1.15945 26.4865ZM13.728 23.2651C16.0038 23.2651 17.489 21.7426 17.489 19.4593C17.489 15.6439 14.2437 14.0574 12.0115 14.0574C11.4213 14.0574 11.171 14.3972 11.4778 14.8116C12.0021 15.4723 12.4826 16.2012 12.4558 17.2379C12.2022 16.7658 11.7558 16.4419 11.3808 16.4419C11.205 16.4419 11.107 16.5474 11.107 16.7157C11.107 16.819 11.107 17.0354 11.107 17.1973C11.107 18.2586 10.4006 18.819 10.4006 20.3511C10.4006 22.1133 11.7356 23.2651 13.728 23.2651ZM13.8473 22.0707C13.0568 22.0707 12.5198 21.5965 12.5198 20.8625C12.5198 20.1188 13.0568 19.8493 13.1463 19.3144C13.3711 19.4668 13.5171 19.6831 13.6247 19.9782C13.8665 19.6329 14.0231 19.0416 13.8804 18.2544C14.5666 18.5016 15.3581 19.3859 15.3581 20.4779C15.3581 21.327 14.8701 22.0707 13.8473 22.0707Z" fill="black"/>
</svg>
