<svg width="28" height="28" viewBox="0 0 28 28" fill="none" xmlns="http://www.w3.org/2000/svg">
<path d="M11.1649 25.1853H16.8832C22.2961 25.1853 25.0577 22.3351 25.0577 17.457C25.0577 13.6334 21.9368 8.63398 18.1251 3.56515C17.3477 2.54281 16.8665 2 15.506 2H12.5517C11.1912 2 10.71 2.54281 9.93258 3.56515C6.12094 8.63398 3 13.6334 3 17.457C3 22.3351 5.76164 25.1853 11.1649 25.1853ZM5.19678 17.457C5.19678 14.3909 7.65046 10.2812 11.7347 4.70538C11.9948 4.35991 12.2058 4.19889 12.6375 4.19889H15.4202C15.8519 4.19889 16.0533 4.35991 16.3134 4.70538C20.4073 10.2812 22.8609 14.3909 22.8609 17.457C22.8609 20.9752 20.9266 22.9885 16.8832 22.9885H11.1649C7.11937 22.9885 5.19678 20.9752 5.19678 17.457ZM8.01023 7.76703L7.59328 9.86679H20.4687L20.0496 7.76703H8.01023ZM4.55273 18.2462H11.7921V16.1485H4.55273V18.2462ZM14.0358 20.3351C15.8004 20.3351 17.1773 18.9561 17.1773 17.1798C17.1773 15.4269 15.8004 14.0382 14.0358 14.0382C12.2691 14.0382 10.8825 15.4269 10.8825 17.1798C10.8825 18.9561 12.2691 20.3351 14.0358 20.3351ZM14.0358 18.5647C13.2623 18.5647 12.6509 17.9628 12.6509 17.1798C12.6509 16.4159 13.2623 15.8044 14.0358 15.8044C14.8092 15.8044 15.4111 16.4159 15.4111 17.1798C15.4111 17.9628 14.8092 18.5647 14.0358 18.5647ZM16.2677 18.2462H23.5551V16.1485H16.2677V18.2462Z" fill="black"/>
</svg>
