<svg width="32" height="28" viewBox="0 0 32 28" fill="none" xmlns="http://www.w3.org/2000/svg">
<path d="M8.81273 6C7.13343 6 6.13898 6.71976 4.92516 7.97414L0.961405 12.1376C-0.32578 13.4611 -0.311952 15.1856 0.951795 16.5251L4.91133 20.7588C6.01969 21.929 7.24101 22.7426 8.81273 22.7426H22.8347C24.4064 22.7426 25.6202 21.929 26.7382 20.7588L30.6881 16.5251C31.9519 15.1835 31.9753 13.4611 30.6881 12.1376L26.7223 7.97414C25.4988 6.71976 24.514 6 22.8347 6H8.81273ZM8.81273 8.24741H22.8347C23.8247 8.24741 24.2023 8.56616 24.9534 9.33444L28.9151 13.469C29.4982 14.0693 29.4961 14.6105 28.9226 15.2053L24.9513 19.3964C24.2981 20.0688 23.7129 20.4952 22.8347 20.4952H8.81273C7.92491 20.4952 7.3514 20.0688 6.69819 19.3964L2.72694 15.2053C2.1417 14.6105 2.13959 14.0693 2.73233 13.469L6.69608 9.33444C7.44726 8.56616 7.81523 8.24741 8.81273 8.24741Z" fill="black"/>
<path d="M8.24687 12.3506C7.12726 12.3506 6.20898 13.2785 6.20898 14.3981C6.20898 15.5178 7.12726 16.4456 8.24687 16.4456C9.37609 16.4456 10.2943 15.5178 10.2943 14.3981C10.2943 13.2785 9.37609 12.3506 8.24687 12.3506ZM15.8343 14.31C14.7051 14.31 13.7868 15.2379 13.7868 16.3575C13.7868 17.4771 14.7051 18.405 15.8343 18.405C16.9539 18.405 17.8722 17.4771 17.8722 16.3575C17.8722 15.2379 16.9539 14.31 15.8343 14.31ZM23.4121 12.3506C22.2925 12.3506 21.3625 13.2785 21.3625 14.3981C21.3625 15.5178 22.2925 16.4456 23.4121 16.4456C24.5296 16.4456 25.4596 15.5178 25.4596 14.3981C25.4596 13.2785 24.5296 12.3506 23.4121 12.3506Z" fill="black"/>
</svg>
