<svg width="28" height="28" viewBox="0 0 28 28" fill="none" xmlns="http://www.w3.org/2000/svg">
<path d="M4.96289 23.7773C4.96289 24.3926 5.10445 24.8086 5.42484 25.1416L6.38719 26.1485C6.78797 26.5704 7.56234 26.4565 7.56234 25.762V8.0306C7.56234 7.40575 7.41867 6.99935 7.10038 6.6567L6.13593 5.65943C5.73726 5.22795 4.96289 5.34396 4.96289 6.0363V23.7773ZM10.8809 23.7773C10.8809 24.3926 11.0128 24.8086 11.3407 25.1416L12.3051 26.1485C12.7059 26.5704 13.4686 26.4565 13.4686 25.762V8.0306C13.4686 7.40575 13.3366 6.99935 13.0087 6.6567L12.0443 5.65943C11.6435 5.22795 10.8809 5.34396 10.8809 6.0363V23.7773ZM16.785 23.7773C16.785 24.3926 16.9287 24.8086 17.2469 25.1416L18.2093 26.1485C18.6101 26.5704 19.3844 26.4565 19.3844 25.762V8.0306C19.3844 7.40575 19.2429 6.99935 18.9225 6.6567L17.9601 5.65943C17.5594 5.22795 16.785 5.34396 16.785 6.0363V23.7773ZM22.703 23.7773C22.703 24.3926 22.8349 24.8086 23.1649 25.1416L24.1272 26.1485C24.528 26.5704 25.2928 26.4565 25.2928 25.762V8.0306C25.2928 7.40575 25.1587 6.99935 24.8308 6.6567L23.8664 5.65943C23.4677 5.22795 22.703 5.34396 22.703 6.0363V23.7773Z" fill="black"/>
<path d="M1 3.15376C1 3.78329 1.52429 4.30758 2.15382 4.30758H25.1786C25.8081 4.30758 26.3303 3.78329 26.3303 3.15376C26.3303 2.52423 25.8081 2.01166 25.1786 2.01166H2.15382C1.52429 2.01166 1 2.52423 1 3.15376ZM2.15382 7.17398C2.61905 7.17398 3.00554 6.78117 3.00554 6.32015C3.00554 5.8432 2.62116 5.46844 2.15382 5.46844C1.67476 5.46844 1.29039 5.8432 1.29039 6.32015C1.29039 6.78117 1.67687 7.17398 2.15382 7.17398ZM2.15382 9.88851C2.61905 9.88851 3.00554 9.49031 3.00554 9.02718C3.00554 8.55984 2.62116 8.17125 2.15382 8.17125C1.67476 8.17125 1.29039 8.55984 1.29039 9.02718C1.29039 9.49031 1.67687 9.88851 2.15382 9.88851ZM2.15382 12.5871C2.61905 12.5871 3.00554 12.1985 3.00554 11.7354C3.00554 11.2584 2.62116 10.8837 2.15382 10.8837C1.67476 10.8837 1.29039 11.2584 1.29039 11.7354C1.29039 12.1985 1.67687 12.5871 2.15382 12.5871ZM2.15382 15.2995C2.61905 15.2995 3.00554 14.8992 3.00554 14.4382C3.00554 13.9729 2.62116 13.5843 2.15382 13.5843C1.67476 13.5843 1.29039 13.9729 1.29039 14.4382C1.29039 14.8992 1.67687 15.2995 2.15382 15.2995ZM2.15382 18.0002C2.61905 18.0002 3.00554 17.6137 3.00554 17.1485C3.00554 16.6736 2.62116 16.2968 2.15382 16.2968C1.67476 16.2968 1.29039 16.6736 1.29039 17.1485C1.29039 17.6137 1.67687 18.0002 2.15382 18.0002ZM2.15382 20.7126C2.61905 20.7126 3.00554 20.3144 3.00554 19.8492C3.00554 19.3818 2.62116 18.9996 2.15382 18.9996C1.67476 18.9996 1.29039 19.3818 1.29039 19.8492C1.29039 20.3144 1.67687 20.7126 2.15382 20.7126ZM2.15382 26.3864C2.69147 26.3864 3.14405 25.9413 3.14405 25.394V22.7001C3.14405 22.155 2.70108 21.7078 2.15382 21.7078C1.60445 21.7078 1.15187 22.155 1.15187 22.7001V25.394C1.15187 25.9413 1.60445 26.3864 2.15382 26.3864Z" fill="black"/>
</svg>
