<svg width="37" height="31" viewBox="0 0 37 31" fill="none" xmlns="http://www.w3.org/2000/svg">
<path d="M18.4125 6.81351C21.3858 6.81351 24.3044 4.78593 24.3044 2.23078C24.3044 1.40039 23.8467 0.841405 22.8021 0.524062C21.543 0.158672 19.9973 0 18.4125 0C16.8351 0 15.2916 0.158672 14.0325 0.524062C12.9858 0.841405 12.5302 1.40039 12.5302 2.23078C12.5302 4.78593 15.4392 6.81351 18.4125 6.81351ZM18.4125 5.08219C16.3015 5.08219 14.6315 3.96187 14.2964 2.38452C14.2826 2.30999 14.3369 2.23757 14.4424 2.19281C15.6846 1.87734 17.04 1.71749 18.4125 1.71749C19.785 1.71749 21.1383 1.87734 22.3922 2.19281C22.4955 2.23757 22.552 2.30999 22.5382 2.38452C22.203 3.96187 20.5289 5.08219 18.4125 5.08219ZM17.5158 5.6925V13.6544H19.3188V5.6925H17.5158ZM2.61328 18.96C4.04882 18.96 5.22444 17.7769 5.22444 16.3392C5.22444 14.8995 4.06265 13.7259 2.61328 13.7259C1.18523 13.7259 0 14.9016 0 16.3392C0 17.7769 1.18523 18.96 2.61328 18.96ZM2.61328 17.4757C1.9971 17.4757 1.48429 16.9629 1.48429 16.3392C1.48429 15.7252 1.9971 15.2102 2.61328 15.2102C3.24867 15.2102 3.74016 15.7113 3.74016 16.3392C3.74016 16.9629 3.22734 17.4757 2.61328 17.4757ZM9.54327 18.96C11.2994 18.96 12.7425 17.5191 12.7425 15.7725C12.7425 14.0163 11.2994 12.5754 9.54327 12.5754C7.79671 12.5754 6.36539 14.0163 6.36539 15.7725C6.36539 17.5191 7.79671 18.96 9.54327 18.96ZM9.54327 17.2308C8.74593 17.2308 8.0946 16.5698 8.0946 15.7725C8.0946 14.9655 8.74593 14.3046 9.54327 14.3046C10.3523 14.3046 11.0112 14.9655 11.0112 15.7725C11.0112 16.5698 10.3523 17.2308 9.54327 17.2308ZM18.4221 21.7498C20.909 21.7498 22.9167 19.74 22.9167 17.2552C22.9167 14.7586 20.909 12.7509 18.4221 12.7509C15.9255 12.7509 13.9179 14.7586 13.9179 17.2552C13.9179 19.74 15.9255 21.7498 18.4221 21.7498ZM18.4125 20.0184C16.8748 20.0184 15.6471 18.7929 15.6471 17.2552C15.6471 15.7078 16.8748 14.4801 18.4125 14.4801C19.9502 14.4801 21.1854 15.7078 21.1854 17.2552C21.1854 18.7929 19.9502 20.0184 18.4125 20.0184ZM27.2796 18.96C29.0262 18.96 30.4596 17.5191 30.4596 15.7725C30.4596 14.0163 29.0262 12.5754 27.2796 12.5754C25.5255 12.5754 24.0825 14.0163 24.0825 15.7725C24.0825 17.5191 25.5255 18.96 27.2796 18.96ZM27.2796 17.2308C26.4726 17.2308 25.8117 16.5698 25.8117 15.7725C25.8117 14.9655 26.4726 14.3046 27.2796 14.3046C28.079 14.3046 28.7283 14.9655 28.7283 15.7725C28.7283 16.5698 28.079 17.2308 27.2796 17.2308ZM34.2117 18.96C35.6397 18.96 36.825 17.7769 36.825 16.3392C36.825 14.9016 35.6397 13.7259 34.2117 13.7259C32.7623 13.7259 31.6005 14.8995 31.6005 16.3392C31.6005 17.7769 32.774 18.96 34.2117 18.96ZM34.2117 17.4757C33.5976 17.4757 33.0827 16.9629 33.0827 16.3392C33.0827 15.7113 33.5763 15.2102 34.2117 15.2102C34.8258 15.2102 35.3407 15.7252 35.3407 16.3392C35.3407 16.9629 34.8258 17.4757 34.2117 17.4757ZM18.4221 30.188C20.159 30.188 21.5904 28.7641 21.5904 27.0176C21.5904 25.271 20.159 23.8493 18.4221 23.8493C16.6755 23.8493 15.2442 25.271 15.2442 27.0176C15.2442 28.7641 16.6755 30.188 18.4221 30.188ZM18.4221 28.4566C17.6248 28.4566 16.9734 27.817 16.9734 27.0176C16.9734 26.2202 17.6248 25.5785 18.4221 25.5785C19.2098 25.5785 19.8612 26.2202 19.8612 27.0176C19.8612 27.817 19.2098 28.4566 18.4221 28.4566ZM3.7596 18.0316H2.02617C2.0025 22.1055 7.67226 24.2686 10.6833 21.0284L9.73101 19.5675C7.88811 22.0638 3.72117 20.7509 3.7596 18.0316ZM10.4105 18.0316H8.67703C8.52023 22.3376 13.7908 24.244 17.3151 20.8795L15.6731 20.0133C13.324 21.8262 10.2675 20.6789 10.4105 18.0316ZM26.4124 18.0316C26.5575 20.6789 23.4989 21.8262 21.1519 20.0133L19.5098 20.8795C23.032 24.244 28.3047 22.3376 28.1479 18.0316H26.4124ZM33.0654 18.0316C33.1038 20.7509 28.9369 22.0638 27.094 19.5675L26.1396 21.0284C29.1527 24.2686 34.8204 22.1055 34.7967 18.0316H33.0654ZM17.5516 20.7937V24.9916H19.2808V20.7937H17.5516Z" fill="black"/>
</svg>
