<svg width="28" height="28" viewBox="0 0 28 28" fill="none" xmlns="http://www.w3.org/2000/svg">
<path d="M13.9683 26.2447C21.1747 26.2447 25.9463 23.7601 25.9463 19.8965V7.79991C25.9463 3.66882 21.1608 1 13.9683 1C6.78546 1 2 3.66882 2 7.79991V19.8965C2 23.7601 6.77164 26.2447 13.9683 26.2447ZM13.9683 24.048C8.17038 24.048 4.19467 22.2899 4.19467 19.8965V7.79991C4.19467 5.11679 8.13639 3.19889 13.9683 3.19889C19.8078 3.19889 23.7516 5.11679 23.7516 7.79991V19.8965C23.7516 22.2899 19.7642 24.048 13.9683 24.048ZM13.9683 15.7471C19.7642 15.7471 23.7516 17.5051 23.7516 19.8965H25.9463C25.9463 16.0349 21.1747 13.5482 13.9683 13.5482C6.77164 13.5482 2 16.0349 2 19.8965H4.19467C4.19467 17.5051 8.17038 15.7471 13.9683 15.7471ZM13.9683 20.5117C16.5905 20.5117 18.732 19.1338 18.8825 17.428C17.503 17.0882 15.822 16.8847 13.9683 16.8847C12.1243 16.8847 10.4337 17.0882 9.06382 17.428C9.21217 19.1338 11.3462 20.5117 13.9683 20.5117Z" fill="black"/>
</svg>
