<svg width="28" height="29" viewBox="0 0 28 29" fill="none" xmlns="http://www.w3.org/2000/svg">
<path d="M6.08093 2.2003H21.4412C22.0369 2.2003 22.5221 1.70343 22.5221 1.10765C22.5221 0.513983 22.0369 0.02672 21.4412 0.02672H6.08093C5.48726 0.02672 5 0.513983 5 1.10765C5 1.70343 5.48726 2.2003 6.08093 2.2003ZM13.7659 16.2551C18.5626 16.2551 22.0559 14.9531 22.0559 13.1536C22.0559 11.3658 18.5433 10.0734 13.7659 10.0734C8.98835 10.0734 5.46617 11.3658 5.46617 13.1536C5.46617 14.9531 8.98835 16.2551 13.7659 16.2551ZM13.4033 21.7994H14.1209C18.1112 21.7994 21.1166 19.5258 21.8511 15.6928C20.2215 16.8654 17.3443 17.5289 13.7659 17.5289C10.2012 17.5289 7.30484 16.8654 5.68273 15.6874C6.40226 19.5258 9.41515 21.7994 13.4033 21.7994ZM13.7659 28.8244C15.7719 28.8244 18.3706 28.3045 19.5324 27.1364C19.8561 26.8064 19.8889 26.3637 19.7473 25.8975L18.6179 22.154C17.2709 22.7967 15.7229 23.1361 14.1327 23.1361H13.3606C11.7896 23.1361 10.2512 22.8063 8.90422 22.1733L7.77688 25.8975C7.63321 26.3637 7.67563 26.8064 7.98969 27.1364C9.1632 28.3045 11.7502 28.8244 13.7659 28.8244ZM20.7174 9.9171L21.1597 3.53272H6.36242L6.81641 9.9171C8.52383 9.1582 10.9489 8.73679 13.7659 8.73679C16.5828 8.73679 19.0079 9.1582 20.7174 9.9171Z" fill="black"/>
</svg>
