<svg width="31" height="28" viewBox="0 0 31 28" fill="none" xmlns="http://www.w3.org/2000/svg">
<path d="M0 3.17684C0 4.27113 0.892028 5.16316 1.97671 5.16316C2.62124 5.16316 3.20929 4.83269 3.5414 4.33066H26.6744C27.0087 4.83269 27.5967 5.16316 28.2433 5.16316C29.3259 5.16316 30.2158 4.27113 30.2158 3.17684C30.2158 2.09426 29.3259 1.20435 28.2433 1.20435C27.5967 1.20435 27.0108 1.54442 26.6765 2.03474H3.53929C3.20718 1.54442 2.61913 1.20435 1.97671 1.20435C0.892028 1.20435 0 2.09426 0 3.17684Z" fill="black"/>
<path d="M5.42949 26.241H13.3413C13.8935 26.241 14.2873 25.8451 14.2873 25.2833V1.96726C14.2873 1.40547 13.8935 1 13.3434 1H5.42949C4.87731 1 4.48145 1.40547 4.48145 1.96726V25.2833C4.48145 25.8451 4.87731 26.241 5.42949 26.241ZM16.8745 26.241H24.7863C25.3406 26.241 25.7344 25.8451 25.7344 25.2833V1.96726C25.7344 1.40547 25.3406 1 24.7905 1H16.8745C16.3223 1 15.9286 1.40547 15.9286 1.96726V25.2833C15.9286 25.8451 16.3223 26.241 16.8745 26.241Z" fill="black"/>
</svg>
