<svg width="29" height="29" viewBox="0 0 29 29" fill="none" xmlns="http://www.w3.org/2000/svg">
<path d="M2.91749 28.7655H10.3983C12.1947 28.7655 13.3158 27.6541 13.3158 25.8886V2.87694C13.3158 1.1114 12.1947 0 10.3983 0H2.91749C1.12101 0 0 1.1114 0 2.87694V25.8886C0 27.6541 1.12101 28.7655 2.91749 28.7655ZM9.84115 9.49288C9.46428 9.49288 9.18115 9.19264 9.18115 8.82538V4.08749C9.18115 3.72655 9.46428 3.4221 9.84115 3.4221C10.2063 3.4221 10.4948 3.72655 10.4948 4.08749V8.82538C10.4948 9.19264 10.2063 9.49288 9.84115 9.49288ZM7.26608 9.49288C6.89342 9.49288 6.58897 9.19264 6.58897 8.82538V4.08749C6.58897 3.72655 6.89342 3.4221 7.26608 3.4221C7.62162 3.4221 7.91225 3.72655 7.91225 4.08749V8.82538C7.91225 9.19264 7.62162 9.49288 7.26608 9.49288ZM9.84115 17.3787C9.46428 17.3787 9.18115 17.0859 9.18115 16.7091V11.9712C9.18115 11.6081 9.46428 11.3175 9.84115 11.3175C10.2063 11.3175 10.4948 11.6081 10.4948 11.9712V16.7091C10.4948 17.0859 10.2063 17.3787 9.84115 17.3787ZM7.26608 17.3787C6.89342 17.3787 6.58897 17.0859 6.58897 16.7091V11.9712C6.58897 11.6081 6.89342 11.3175 7.26608 11.3175C7.62162 11.3175 7.91225 11.6081 7.91225 11.9712V16.7091C7.91225 17.0859 7.62162 17.3787 7.26608 17.3787ZM9.84115 25.2858C9.46428 25.2858 9.18115 24.9813 9.18115 24.63V19.89C9.18115 19.5152 9.46428 19.2129 9.84115 19.2129C10.2063 19.2129 10.4948 19.5152 10.4948 19.89V24.63C10.4948 24.9813 10.2063 25.2858 9.84115 25.2858ZM7.26608 25.2858C6.89342 25.2858 6.58897 24.9813 6.58897 24.63V19.89C6.58897 19.5152 6.89342 19.2129 7.26608 19.2129C7.62162 19.2129 7.91225 19.5152 7.91225 19.89V24.63C7.91225 24.9813 7.62162 25.2858 7.26608 25.2858Z" fill="black"/>
<path d="M18.6228 9.12047C18.9144 9.12047 19.1209 8.86079 19.0869 8.56501L19.0072 7.6029L19.8031 8.16212C20.0319 8.32266 20.3619 8.27579 20.5131 8.02149C20.6781 7.77142 20.5599 7.43298 20.2705 7.32118L19.4021 6.9129L20.2939 6.48868C20.5567 6.36095 20.6706 6.05439 20.5269 5.7947C20.3907 5.55212 20.0373 5.48392 19.7893 5.66157L19.0114 6.21236L19.0965 5.25868C19.1305 4.9629 18.924 4.70322 18.6228 4.70322C18.3099 4.70322 18.1014 4.94368 18.1353 5.24907L18.2087 6.21986L17.4116 5.65946C17.1636 5.49142 16.8486 5.53501 16.7049 5.7947C16.5517 6.05439 16.6602 6.36938 16.9304 6.49079L17.8051 6.90868L16.9379 7.31368C16.6581 7.42759 16.5421 7.75431 16.6974 8.02149C16.8336 8.27579 17.1615 8.32266 17.4116 8.16212L18.2087 7.60923L18.1449 8.56501C18.1227 8.8704 18.3196 9.12047 18.6228 9.12047ZM25.4052 23.9897C25.7063 23.9897 25.9224 23.7492 25.8884 23.4438L25.8151 22.4805L26.6122 23.0409C26.8506 23.2068 27.1752 23.16 27.3092 22.9078C27.4646 22.6385 27.3582 22.3319 27.0859 22.2138L26.2154 21.7896L27.0741 21.3717C27.3636 21.2695 27.4721 20.9407 27.3263 20.6714C27.1944 20.4171 26.8548 20.3606 26.6143 20.5308L25.8088 21.0879L25.8788 20.1279C25.9032 19.8225 25.6967 19.582 25.4052 19.582C25.1136 19.582 24.9071 19.8321 24.939 20.1279L25.0124 21.0933L24.2152 20.5404C23.994 20.3798 23.6661 20.4267 23.5107 20.6714C23.3436 20.9172 23.4617 21.2653 23.7512 21.3792L24.6184 21.7938L23.7341 22.2117C23.4734 22.3331 23.3532 22.6385 23.499 22.9078C23.6309 23.1483 23.9865 23.2207 24.2248 23.043L25.0124 22.4922L24.9294 23.4342C24.8933 23.7279 25.104 23.9897 25.4052 23.9897ZM18.0901 12.9527C21.3477 12.9527 22.9923 10.3465 25.7438 10.3465C26.3809 10.3465 26.9094 10.4796 27.5774 10.8525C28.0372 11.1101 28.4776 10.946 28.7052 10.6216C28.9859 10.2122 28.9266 9.62696 28.3646 9.30868C27.5595 8.83478 26.6799 8.59946 25.7438 8.59946C22.4499 8.59946 20.8053 11.2153 18.0901 11.2153C17.4552 11.2153 16.9267 11.0726 16.2491 10.6901C15.8064 10.4379 15.35 10.5987 15.1171 10.9561C14.8618 11.3517 14.919 11.9369 15.4597 12.2435C16.2648 12.7366 17.154 12.9527 18.0901 12.9527ZM18.1018 16.5583C21.3477 16.5583 23.0019 13.9563 25.7438 13.9563C26.3905 13.9563 26.919 14.0852 27.5891 14.4623C28.0372 14.7157 28.4872 14.5537 28.7148 14.2294C28.9859 13.8241 28.9363 13.2347 28.3838 12.9143C27.5692 12.4425 26.6799 12.2093 25.7438 12.2093C22.4595 12.2093 20.8149 14.8209 18.1018 14.8209C17.4552 14.8209 16.9267 14.6824 16.2587 14.3074C15.816 14.0456 15.35 14.2064 15.1171 14.5659C14.8618 14.9615 14.919 15.5426 15.4714 15.8533C16.2744 16.3444 17.1657 16.5583 18.1018 16.5583ZM18.0901 20.1682C21.3477 20.1682 22.9923 17.564 25.7438 17.564C26.3809 17.564 26.9094 17.6951 27.5774 18.0818C28.0372 18.3351 28.4776 18.1636 28.7052 17.8392C28.9859 17.434 28.9266 16.8424 28.3646 16.5241C27.5595 16.0502 26.6799 15.817 25.7438 15.817C22.4499 15.817 20.8053 18.4308 18.0901 18.4308C17.4552 18.4308 16.9267 18.2901 16.2491 17.9151C15.8064 17.6555 15.35 17.8162 15.1171 18.1737C14.8618 18.5693 14.919 19.162 15.4597 19.4707C16.2648 19.9542 17.154 20.1682 18.0901 20.1682Z" fill="black"/>
</svg>
