<svg width="36" height="28" viewBox="0 0 36 28" fill="none" xmlns="http://www.w3.org/2000/svg">
<path d="M1.14421 26.1541C1.78124 26.1541 2.29592 25.6394 2.29592 25.0098V3.93389C2.29592 3.54623 2.54623 3.29592 2.91256 3.29592H32.2176C32.5861 3.29592 32.8364 3.54623 32.8364 3.93389V25.0098C32.8364 25.6394 33.3511 26.1541 33.9881 26.1541C34.6176 26.1541 35.1323 25.6394 35.1323 25.0098V3.72178C35.1323 2.07273 34.0521 1 32.3604 1H2.77194C1.08984 1 0 2.07273 0 3.72178V25.0098C0 25.6394 0.514684 26.1541 1.14421 26.1541Z" fill="black"/>
<path d="M4.07199 9.85934H31.0703C31.2728 9.85934 31.4423 9.68989 31.4423 9.48739V5.06427C31.4423 4.85005 31.2728 4.6806 31.0703 4.6806H4.07199C3.85988 4.6806 3.69043 4.85005 3.69043 5.06427V9.48739C3.69043 9.68989 3.85988 9.85934 4.07199 9.85934ZM15.0532 7.89317C14.688 7.89317 14.4241 7.62926 14.4241 7.27372C14.4241 6.90856 14.688 6.64677 15.0532 6.64677H20.0892C20.4447 6.64677 20.7086 6.90856 20.7086 7.27372C20.7086 7.62926 20.4447 7.89317 20.0892 7.89317H15.0532Z" fill="black"/>
</svg>
