<svg width="31" height="30" viewBox="0 0 31 30" fill="none" xmlns="http://www.w3.org/2000/svg">
<path d="M18.9919 22.47C22.3683 21.0602 19.2659 15.7683 16.6118 13.0929C13.8448 10.3472 8.8681 7.15758 7.23474 10.7287L0.228571 26.258C-0.637676 28.1894 1.10279 29.9451 3.02278 29.1405L18.9919 22.47ZM2.02785 26.8296L7.73419 14.167C8.34966 15.6215 9.50583 17.2479 10.9786 18.7303C12.4238 20.1637 14.0011 21.2965 15.4301 21.9194L2.47129 27.304C2.09817 27.4596 1.84879 27.2241 2.02785 26.8296ZM9.11278 11.2153C9.83348 10.4765 12.44 11.6018 15.264 14.4429C18.121 17.2669 19.2143 19.8872 18.4915 20.5962C17.7612 21.3445 15.1505 20.2214 12.319 17.3803C9.48543 14.5563 8.37614 11.9381 9.11278 11.2153Z" fill="black"/>
<path d="M10.833 2.77944C11.5973 2.77944 12.2276 2.16093 12.2276 1.38703C12.2276 0.622732 11.5973 0 10.833 0C10.0474 0 9.43848 0.622732 9.43848 1.38703C9.43848 2.16093 10.0474 2.77944 10.833 2.77944ZM12.5339 4.88226C12.4371 4.40015 12.12 3.9968 11.606 3.9968C11.1049 4.0064 10.6047 4.43086 10.7154 4.96077C11.2385 7.70624 11.2385 10.5148 10.7154 13.2944C10.5951 13.819 11.1049 14.2317 11.5964 14.2413C12.0881 14.2413 12.4275 13.8602 12.5243 13.3634C13.0687 10.5061 13.0687 7.70859 12.5339 4.88226ZM18.1511 4.75406C19.4365 4.75406 20.4576 3.72328 20.4576 2.44547C20.4576 1.14422 19.4365 0.138986 18.1511 0.138986C16.8637 0.138986 15.8426 1.14422 15.8426 2.44547C15.8426 3.72328 16.8637 4.75406 18.1511 4.75406ZM15.9288 8.50663C16.5663 8.50663 17.0697 7.98937 17.0697 7.35609C17.0697 6.73664 16.5663 6.21516 15.9288 6.21516C15.3072 6.21516 14.7804 6.73453 14.7804 7.35609C14.7804 7.99148 15.3072 8.50663 15.9288 8.50663ZM27.8318 3.32718C28.4491 3.32718 28.9547 2.82164 28.9547 2.18625C28.9547 1.55719 28.4491 1.03782 27.8318 1.03782C27.1943 1.03782 26.6887 1.55719 26.6887 2.18625C26.6887 2.82164 27.1943 3.32718 27.8318 3.32718ZM24.3143 3.97922L22.1292 6.1643C21.7802 6.52711 21.7823 7.10812 22.1292 7.46671C22.4953 7.82531 23.0826 7.82952 23.4412 7.47093L25.6263 5.29335C25.9753 4.93476 25.9732 4.33992 25.6263 3.97922C25.2635 3.63024 24.6686 3.63446 24.3143 3.97922ZM19.897 8.43773L13.8677 14.4469C13.5187 14.8076 13.523 15.4045 13.8719 15.761C14.2284 16.11 14.8211 16.1121 15.1818 15.761L21.1973 9.73593C21.5261 9.39749 21.5367 8.80804 21.1973 8.43984C20.8249 8.09203 20.2376 8.10469 19.897 8.43773ZM28.9404 13.9992C29.7122 13.9992 30.3349 13.3807 30.3349 12.5951C30.3349 11.8308 29.7143 11.208 28.9404 11.208C28.1526 11.208 27.5437 11.8308 27.5437 12.5951C27.5437 13.3807 28.1547 13.9992 28.9404 13.9992ZM23.819 14.4755C24.919 14.4755 25.7995 13.6226 25.7995 12.5227C25.7995 11.4344 24.9211 10.5539 23.819 10.5539C22.7308 10.5539 21.8758 11.4344 21.8758 12.5227C21.8758 13.6226 22.7308 14.4755 23.819 14.4755ZM28.4233 20.0477C29.1972 20.0477 29.8179 19.4367 29.8179 18.6532C29.8179 17.8772 29.1972 17.2587 28.4233 17.2587C27.6494 17.2587 27.0288 17.8772 27.0288 18.6532C27.0288 19.4367 27.6494 20.0477 28.4233 20.0477ZM24.7774 17.097C21.9415 16.5642 19.1515 16.5621 16.2867 17.097C15.8036 17.2055 15.4129 17.5448 15.4226 18.0269C15.4226 18.528 15.8353 19.0378 16.3652 18.9314C19.1491 18.4062 21.9438 18.3944 24.6989 18.9197C25.2075 19.0303 25.6479 18.5398 25.6575 18.0269C25.6671 17.513 25.2478 17.1937 24.7774 17.097Z" fill="black"/>
</svg>
