<svg width="29" height="28" viewBox="0 0 29 28" fill="none" xmlns="http://www.w3.org/2000/svg">
<path d="M2.59804 23.3858H18.6862V5.01383H2.59804C1.05257 5.01383 0 6.09195 0 7.7014V20.6982C0 22.3055 1.05257 23.3858 2.59804 23.3858ZM3.6757 20.1394C2.99484 20.1394 2.55586 19.6983 2.55586 19.0196V9.37788C2.55586 8.69912 2.99484 8.25803 3.6757 8.25803H15.3105C15.9935 8.25803 16.4325 8.69912 16.4325 9.37788V19.0196C16.4325 19.6983 15.9935 20.1394 15.3105 20.1394H3.6757ZM4.3439 18.6488H14.6348C14.8118 18.6488 14.944 18.5241 14.944 18.3514V10.0482C14.944 9.87544 14.8118 9.75076 14.6348 9.75076H4.3439C4.18077 9.75076 4.04647 9.87544 4.04647 10.0482V18.3514C4.04647 18.5241 4.18077 18.6488 4.3439 18.6488ZM20.1874 17.5355H28.0399V7.7014C28.0399 6.09195 26.9852 5.01383 25.4419 5.01383H20.1874V17.5355ZM22.3235 10.5249C22.1629 10.5249 22.0364 10.408 22.0364 10.2516V8.44811C22.0364 8.29928 22.1629 8.161 22.3235 8.161H25.7618C25.9202 8.161 26.0489 8.29928 26.0489 8.44811V10.2516C26.0489 10.408 25.9202 10.5249 25.7618 10.5249H22.3235ZM22.7186 12.7348C22.3195 12.7348 22.0364 12.4592 22.0364 12.0622C22.0364 11.6555 22.3195 11.3799 22.7186 11.3799H25.3666C25.7636 11.3799 26.0489 11.6555 26.0489 12.0622C26.0489 12.4592 25.7636 12.7348 25.3666 12.7348H22.7186ZM22.7186 14.9586C22.3195 14.9586 22.0364 14.6851 22.0364 14.2763C22.0364 13.8772 22.3195 13.6154 22.7186 13.6154H25.3666C25.7636 13.6154 26.0489 13.8772 26.0489 14.2763C26.0489 14.6851 25.7636 14.9586 25.3666 14.9586H22.7186ZM20.1874 23.3858H25.4419C26.9852 23.3858 28.0399 22.3055 28.0399 20.6982V19.0536H20.1874V23.3858Z" fill="black"/>
</svg>
