<svg width="28" height="28" viewBox="0 0 28 28" fill="none" xmlns="http://www.w3.org/2000/svg">
<path d="M4.84421 23.4498H23.2101C25.7394 23.4498 27.0447 22.1446 27.0447 19.6441V7.8271C27.0447 5.32656 25.7394 4.02133 23.2101 4.02133H4.84421C2.31484 4.02133 1 5.32656 1 7.8271V19.6441C1 22.1446 2.31484 23.4498 4.84421 23.4498Z" fill="black"/>
<path d="M9.55179 19.0206C7.3646 19.0206 5.89648 17.5951 5.89648 15.4719C5.89648 14.4562 6.30476 13.5388 6.64976 12.7923C7.22515 11.5616 8.14062 10.0705 8.93234 8.83233C9.125 8.56093 9.31226 8.43436 9.55179 8.43436C9.7796 8.43436 9.97109 8.56093 10.1595 8.83233C10.963 10.0705 11.8785 11.5595 12.4421 12.7881C12.7871 13.5367 13.2071 14.4562 13.2071 15.4719C13.2071 17.5951 11.7411 19.0206 9.55179 19.0206ZM16.9857 11.4557C16.1879 11.4557 15.5425 10.7964 15.5425 10.0124C15.5425 9.22632 16.1879 8.56913 16.9857 8.56913C17.7697 8.56913 18.4248 9.22632 18.4248 10.0124C18.4248 10.7964 17.7697 11.4557 16.9857 11.4557ZM21.1122 11.4557C20.3239 11.4557 19.6689 10.7964 19.6689 10.0124C19.6689 9.22632 20.3239 8.56913 21.1122 8.56913C21.8961 8.56913 22.5512 9.22632 22.5512 10.0124C22.5512 10.7964 21.8961 11.4557 21.1122 11.4557ZM16.9857 15.1602C16.1879 15.1602 15.5425 14.503 15.5425 13.719C15.5425 12.9351 16.1879 12.2779 16.9857 12.2779C17.7697 12.2779 18.4248 12.9351 18.4248 13.719C18.4248 14.503 17.7697 15.1602 16.9857 15.1602ZM21.1122 15.1602C20.3239 15.1602 19.6689 14.503 19.6689 13.719C19.6689 12.9351 20.3239 12.2779 21.1122 12.2779C21.8961 12.2779 22.5512 12.9351 22.5512 13.719C22.5512 14.503 21.8961 15.1602 21.1122 15.1602ZM16.9857 18.8669C16.1879 18.8669 15.5425 18.2097 15.5425 17.4257C15.5425 16.6417 16.1879 15.9803 16.9857 15.9803C17.7697 15.9803 18.4248 16.6417 18.4248 17.4257C18.4248 18.2097 17.7697 18.8669 16.9857 18.8669ZM21.1122 18.8669C20.3239 18.8669 19.6689 18.2097 19.6689 17.4257C19.6689 16.6417 20.3239 15.9803 21.1122 15.9803C21.8961 15.9803 22.5512 16.6417 22.5512 17.4257C22.5512 18.2097 21.8961 18.8669 21.1122 18.8669Z" fill="white"/>
</svg>
