<svg width="28" height="28" viewBox="0 0 28 28" fill="none" xmlns="http://www.w3.org/2000/svg">
<path d="M6.84421 24.8972H21.0295C23.5685 24.8972 24.8737 23.5919 24.8737 21.0914V6.82921C24.8737 4.32656 23.5685 3.02344 21.0295 3.02344H6.84421C4.31484 3.02344 3 4.31695 3 6.82921V21.0914C3 23.6016 4.31484 24.8972 6.84421 24.8972Z" fill="black"/>
<path d="M13.9406 20.4019C10.3563 20.4019 7.48145 17.5174 7.48145 13.9427C7.48145 10.366 10.3563 7.48151 13.9406 7.48151C17.5174 7.48151 20.3923 10.366 20.3923 13.9427C20.3923 17.5174 17.5174 20.4019 13.9406 20.4019ZM10.8909 15.4282C11.7119 15.4282 12.3785 14.7541 12.3785 13.9427C12.3785 13.1313 11.7119 12.4573 10.8909 12.4573C10.0753 12.4573 9.40333 13.1313 9.40333 13.9427C9.40333 14.7541 10.0753 15.4282 10.8909 15.4282ZM16.9807 15.4282C17.7942 15.4282 18.4662 14.7541 18.4662 13.9427C18.4662 13.1313 17.7942 12.4573 16.9807 12.4573C16.1693 12.4573 15.491 13.1313 15.491 13.9427C15.491 14.7541 16.1693 15.4282 16.9807 15.4282ZM13.931 18.8327C14.6489 18.8327 15.2048 18.2885 15.2048 17.5706V17.0273C15.2048 16.7824 15.0909 16.661 14.8364 16.661H13.0373C12.7828 16.661 12.6689 16.7824 12.6689 17.0273V17.5706C12.6689 18.2885 13.211 18.8327 13.931 18.8327Z" fill="white"/>
</svg>
