<svg width="28" height="28" viewBox="0 0 28 28" fill="none" xmlns="http://www.w3.org/2000/svg">
<path d="M8.80577 1C6.29562 1 5 2.32234 5 4.84421V23.197C5 25.7284 6.29562 27.0316 8.80577 27.0316H18.8337C21.3364 27.0316 22.6395 25.7284 22.6395 23.197V4.84421C22.6395 2.32234 21.3364 1 18.8337 1H8.80577Z" fill="black"/>
<path d="M9.37594 15.6534H18.2149C18.9422 15.6534 19.2333 15.937 19.2333 16.6546V22.5829C19.2333 23.3006 18.9422 23.5841 18.2149 23.5841H9.37594C8.65828 23.5841 8.36719 23.3006 8.36719 22.5829V16.6546C8.36719 15.937 8.65828 15.6534 9.37594 15.6534Z" fill="white"/>
</svg>
