<svg width="28" height="28" viewBox="0 0 28 28" fill="none" xmlns="http://www.w3.org/2000/svg">
<path d="M5 9.1078H22.04V2.68757C22.04 1.07812 20.9853 0 19.4302 0H7.59804C6.05257 0 5 1.07812 5 2.68757V9.1078ZM8.49077 6.85194C8.10241 6.85194 7.80874 6.56577 7.80874 6.1657V3.49171C7.80874 3.10125 8.0928 2.81508 8.49077 2.81508C8.88335 2.81508 9.16952 3.08953 9.16952 3.49171V6.1657C9.16952 6.55616 8.89296 6.85194 8.49077 6.85194ZM5 22.0692H22.04V10.6012H5V22.0692ZM8.49077 16.4158C8.10241 16.4158 7.80874 16.1414 7.80874 15.7392V13.0652C7.80874 12.6747 8.0928 12.3886 8.49077 12.3886C8.88335 12.3886 9.16952 12.6651 9.16952 13.0652V15.7392C9.16952 16.1297 8.89296 16.4158 8.49077 16.4158ZM5 23.5626V24.3635C5 25.973 6.05257 27.0511 7.59804 27.0511H19.4302C20.9853 27.0511 22.04 25.973 22.04 24.3635V23.5626H5Z" fill="black"/>
</svg>
