<svg width="39" height="29" viewBox="0 0 39 29" fill="none" xmlns="http://www.w3.org/2000/svg">
<path d="M9.09304 16.2913C14.2352 16.2913 18.1605 13.8585 18.1605 10.6297C18.1605 7.39131 14.2352 4.94678 9.09304 4.94678C3.94125 4.94678 0 7.37959 0 10.6297C0 13.8681 3.94125 16.2913 9.09304 16.2913ZM9.08343 13.9374C5.84671 13.9374 3.44554 12.5687 3.44554 10.7577C3.44554 8.91779 5.84671 7.55326 9.08343 7.55326C12.3436 7.55326 14.7384 8.91779 14.7384 10.7577C14.7384 12.5687 12.3436 13.9374 9.08343 13.9374ZM9.08343 11.341C10.7266 11.341 12.2428 10.6686 13.0214 9.65631C12.2231 9.04271 10.7123 8.63677 9.08343 8.63677C7.4332 8.63677 5.92992 9.04482 5.13164 9.69146C5.92195 10.6707 7.45406 11.341 9.08343 11.341ZM29.3754 16.2913C34.4941 16.2913 38.4429 13.8585 38.4429 10.6297C38.4429 7.39131 34.4941 4.94678 29.3754 4.94678C24.2098 4.94678 20.2823 7.37959 20.2823 10.6297C20.2823 13.8681 24.2098 16.2913 29.3754 16.2913ZM29.3562 13.9374C26.1194 13.9374 23.7141 12.5687 23.7141 10.7577C23.7141 8.91779 26.1194 7.55326 29.3562 7.55326C32.6142 7.55326 35.0016 8.91779 35.0016 10.7577C35.0016 12.5687 32.6142 13.9374 29.3562 13.9374ZM29.3658 11.341C30.9994 11.341 32.5252 10.6686 33.3016 9.65631C32.4916 9.04271 30.983 8.63677 29.3658 8.63677C27.7017 8.63677 26.2005 9.04482 25.414 9.69146C26.1926 10.6707 27.7247 11.341 29.3658 11.341ZM19.2166 28.0393C24.3567 28.0393 28.282 25.5969 28.282 22.3681C28.282 19.1277 24.3567 16.6949 19.2166 16.6949C14.0606 16.6949 10.1215 19.1181 10.1215 22.3681C10.1215 25.6065 14.0606 28.0393 19.2166 28.0393ZM19.207 25.6834C15.9703 25.6834 13.567 24.3167 13.567 22.4865C13.567 20.6659 15.9703 19.2896 19.207 19.2896C22.4555 19.2896 24.862 20.6659 24.862 22.4865C24.862 24.3167 22.4555 25.6834 19.207 25.6834ZM19.207 23.0678C20.8502 23.0678 22.376 22.4167 23.1429 21.4044C22.3446 20.7791 20.8338 20.3849 19.207 20.3849C17.5643 20.3849 16.0535 20.7812 15.2552 21.4395C16.0338 22.4188 17.5755 23.0678 19.207 23.0678Z" fill="black"/>
</svg>
