<svg width="28" height="29" viewBox="0 0 28 29" fill="none" xmlns="http://www.w3.org/2000/svg">
<path d="M15.4057 14.7717L24.6949 5.48245C25.4508 4.7362 25.0355 3.79214 23.9763 3.46003C21.7603 2.75152 19.32 2.53964 16.173 2.72714L15.5625 2.08355C14.5348 0.985507 13.0556 0.985507 11.9608 2.05261C10.8928 3.13894 10.882 4.66378 11.9918 5.66057L12.6312 6.24557C12.4362 9.36582 12.6321 11.8158 13.3385 14.0585C13.6866 15.1357 14.6189 15.5564 15.4057 14.7717ZM12.5822 4.07854L13.9868 2.66644L11.771 0.480429C11.3772 0.0866807 10.7686 0.0845715 10.3727 0.480429C9.9907 0.862459 9.97687 1.47323 10.3727 1.86909L12.5822 4.07854ZM20.7258 14.0904C22.5129 14.0904 23.9869 12.611 23.9869 10.8452C23.9869 10.0889 23.7215 9.35596 23.2005 8.76698L18.6476 13.3179C19.2344 13.8293 19.9694 14.0904 20.7258 14.0904ZM5.36038 16.4641L14.1811 8.354L12.968 6.61284L3.92484 14.9243L5.36038 16.4641ZM4.96734 17.3433C6.06491 17.3433 6.93468 16.4831 6.93468 15.3759C6.93468 14.2805 6.0628 13.4086 4.96734 13.4086C3.86015 13.4086 3 14.2783 3 15.3759C3 16.4831 3.86015 17.3433 4.96734 17.3433ZM9.78632 21.573L11.2826 20.0843L5.23476 14.0578L3.74602 15.5487L9.78632 21.573ZM10.1442 22.796C11.2418 22.796 12.1116 21.9379 12.1116 20.8287C12.1116 19.7332 11.2301 18.8613 10.1442 18.8613C9.03703 18.8613 8.17687 19.7311 8.17687 20.8287C8.17687 21.9379 9.03703 22.796 10.1442 22.796ZM9.07898 26.5568H11.1977V20.7933H9.07898V26.5568ZM4.38351 28.3125H17.2193C17.733 28.3125 18.0555 27.918 18.0555 27.3851C18.0555 26.4344 17.2242 25.7733 16.009 25.7733H5.59594C4.37859 25.7733 3.54938 26.4344 3.54938 27.3851C3.54938 27.918 3.86977 28.3125 4.38351 28.3125Z" fill="black"/>
</svg>
