<svg width="37" height="31" viewBox="0 0 37 31" fill="none" xmlns="http://www.w3.org/2000/svg">
<path d="M18.3159 6.60047C21.2154 6.60047 24.0623 4.62562 24.0623 2.1443C24.0623 1.34977 23.6278 0.818203 22.6212 0.513516C21.3874 0.152344 19.8691 0 18.3159 0C16.7723 0 15.2541 0.152344 14.0203 0.513516C13.0137 0.818203 12.5791 1.34977 12.5791 2.1443C12.5791 4.62562 15.4165 6.60047 18.3159 6.60047ZM17.4192 13.6059H19.2222V5.64187H17.4192V13.6059ZM2.51461 18.777C3.8939 18.777 5.0271 17.6437 5.0271 16.2548C5.0271 14.8713 3.90773 13.7402 2.51461 13.7402C1.1332 13.7402 0 14.8734 0 16.2548C0 17.6341 1.14281 18.777 2.51461 18.777ZM9.4446 18.777C11.1445 18.777 12.5451 17.3784 12.5451 15.6881C12.5451 13.9882 11.1445 12.5897 9.4446 12.5897C7.7564 12.5897 6.36539 13.9882 6.36539 15.6881C6.36539 17.3784 7.7564 18.777 9.4446 18.777ZM18.3234 21.5667C20.752 21.5667 22.7194 19.5994 22.7194 17.1708C22.7194 14.7305 20.752 12.7652 18.3234 12.7652C15.8831 12.7652 13.9179 14.7305 13.9179 17.1708C13.9179 19.5994 15.8831 21.5667 18.3234 21.5667ZM27.1809 18.777C28.8712 18.777 30.2622 17.3784 30.2622 15.6881C30.2622 13.9882 28.8712 12.5897 27.1809 12.5897C25.4831 12.5897 24.0825 13.9882 24.0825 15.6881C24.0825 17.3784 25.4831 18.777 27.1809 18.777ZM34.113 18.777C35.4848 18.777 36.6276 17.6341 36.6276 16.2548C36.6276 14.8734 35.4944 13.7402 34.113 13.7402C32.7199 13.7402 31.6005 14.8713 31.6005 16.2548C31.6005 17.6437 32.7337 18.777 34.113 18.777ZM18.3234 30.0049C20.0041 30.0049 21.393 28.6235 21.393 26.9332C21.393 25.245 20.0041 23.8636 18.3234 23.8636C16.6331 23.8636 15.2442 25.245 15.2442 26.9332C15.2442 28.6235 16.6331 30.0049 18.3234 30.0049ZM3.66093 17.9473H1.9275C1.90383 22.0212 7.57359 24.1842 10.5867 20.944L9.63234 19.4831C7.78944 21.9795 3.6225 20.6665 3.66093 17.9473ZM10.3118 17.9473H8.57836C8.42156 22.2532 13.6922 24.1596 17.2165 20.7952L15.5744 19.9289C13.2253 21.7418 10.1688 20.5945 10.3118 17.9473ZM26.3137 17.9473C26.4588 20.5945 23.4023 21.7418 21.0532 19.9289L19.4112 20.7952C22.9355 24.1596 28.2061 22.2532 28.0493 17.9473H26.3137ZM32.9667 17.9473C33.0051 20.6665 28.8382 21.9795 26.9953 19.4831L26.0409 20.944C29.054 24.1842 34.7217 22.0212 34.7001 17.9473H32.9667ZM17.453 20.7094V24.9073H19.1843V20.7094H17.453Z" fill="black"/>
</svg>
