<svg width="47" height="28" viewBox="0 0 47 28" fill="none" xmlns="http://www.w3.org/2000/svg">
<path d="M3.37851 19.9444H33.2491C35.2406 19.9444 36.6276 18.5498 36.6276 16.568V9.38601C36.6276 7.40414 35.2406 6 33.2491 6H3.37851C1.38492 6 0 7.39453 0 9.38601V16.568C0 18.5594 1.38492 19.9444 3.37851 19.9444ZM3.46921 17.9862C2.55866 17.9862 1.95608 17.3845 1.95608 16.4773V9.47882C1.95608 8.55983 2.55866 7.95819 3.46921 7.95819H33.1584C34.0594 7.95819 34.6694 8.55983 34.6694 9.47882V16.4773C34.6694 17.3845 34.0594 17.9862 33.1584 17.9862H3.46921ZM35.6791 17.1797H37.6495C38.5235 17.1797 39.1802 16.5326 39.1802 15.6586V10.5035C39.1802 9.62953 38.5235 8.98242 37.6495 8.98242H35.6791V10.5637H37.1287C37.4006 10.5637 37.5968 10.7524 37.5968 11.0222V15.1282C37.5968 15.4097 37.4006 15.5983 37.1287 15.5983H35.6791V17.1797ZM38.8256 14.0915H46.6082V12.2864H38.8256V14.0915Z" fill="black"/>
<path d="M4.79035 15.7357H5.57457C5.93644 15.7357 6.19191 15.4781 6.19191 15.1045V10.8281C6.19191 10.4353 5.93644 10.1874 5.57457 10.1874H4.79035C4.40715 10.1874 4.15918 10.4353 4.15918 10.8281V15.1045C4.15918 15.4781 4.40715 15.7357 4.79035 15.7357ZM11.8839 16.6364C13.9098 16.6364 15.5502 15.0077 15.5502 12.9743C15.5502 10.9622 13.9098 9.30798 11.8839 9.30798C9.86222 9.30798 8.22183 10.9622 8.22183 12.9743C8.22183 15.0077 9.86222 16.6364 11.8839 16.6364ZM10.5534 14.8706C10.2721 14.8706 10.0335 14.6342 10.0335 14.3646V11.5957C10.0335 11.322 10.2721 11.0759 10.5534 11.0759C10.8346 11.0759 11.0498 11.3102 11.0498 11.5957V14.3646C11.0498 14.6459 10.8346 14.8706 10.5534 14.8706ZM13.2187 14.8706C12.9374 14.8706 12.6988 14.6459 12.6988 14.3646V11.5957C12.6988 11.3102 12.9236 11.0759 13.2187 11.0759C13.4999 11.0759 13.713 11.3102 13.713 11.5957V14.3646C13.713 14.6459 13.4999 14.8706 13.2187 14.8706ZM20.5961 16.6364C22.6157 16.6364 24.2699 15.0077 24.2699 12.9743C24.2699 10.9622 22.6157 9.30798 20.5961 9.30798C18.5744 9.30798 16.9415 10.9622 16.9415 12.9743C16.9415 15.0077 18.5744 16.6364 20.5961 16.6364ZM19.2517 14.8706C18.9801 14.8706 18.7457 14.6459 18.7457 14.3646V11.5957C18.7457 11.322 18.9801 11.0759 19.2517 11.0759C19.5468 11.0759 19.7694 11.3102 19.7694 11.5957V14.3646C19.7694 14.6459 19.5468 14.8706 19.2517 14.8706ZM21.9266 14.8706C21.6454 14.8706 21.4089 14.6459 21.4089 14.3646V11.5957C21.4089 11.3102 21.6454 11.0759 21.9266 11.0759C22.21 11.0759 22.4327 11.3102 22.4327 11.5957V14.3646C22.4327 14.6459 22.1983 14.8706 21.9266 14.8706ZM29.3041 16.6364C31.3279 16.6364 32.9683 15.0077 32.9683 12.9743C32.9683 10.9622 31.3279 9.30798 29.3041 9.30798C27.2823 9.30798 25.6516 10.9622 25.6516 12.9743C25.6516 15.0077 27.2823 16.6364 29.3041 16.6364ZM27.9714 14.8706C27.6902 14.8706 27.4558 14.6459 27.4558 14.3646V11.5957C27.4558 11.322 27.6902 11.0759 27.9714 11.0759C28.2569 11.0759 28.4795 11.3102 28.4795 11.5957V14.3646C28.4795 14.6459 28.2452 14.8706 27.9714 14.8706ZM30.6367 14.8706C30.3555 14.8706 30.1169 14.6459 30.1169 14.3646V11.5957C30.1169 11.3102 30.3416 11.0759 30.6367 11.0759C30.918 11.0759 31.131 11.3102 31.131 11.5957V14.3646C31.131 14.6459 30.918 14.8706 30.6367 14.8706Z" fill="black"/>
</svg>
