<svg width="28" height="28" viewBox="0 0 28 28" fill="none" xmlns="http://www.w3.org/2000/svg">
<path d="M13.7719 13.7919C19.1752 13.7919 23.3588 15.1306 25.5514 17.4535V8.6014C25.5514 4.61656 20.8951 2 13.7719 2C6.65843 2 2 4.61656 2 8.6014V17.4535C4.19257 15.1306 8.36655 13.7919 13.7719 13.7919ZM13.7719 26.8498C20.5854 26.8498 25.5129 24.6289 25.5129 21.1911C25.5129 17.7512 20.5854 15.5302 13.7719 15.5302C6.96804 15.5302 2.03844 17.7512 2.03844 21.1911C2.03844 24.6289 6.96804 26.8498 13.7719 26.8498ZM13.7719 20.7992C11.0841 20.7992 8.88804 19.4497 8.64922 17.7057C10.1082 17.3652 11.8491 17.1683 13.7719 17.1683C15.7022 17.1683 17.4336 17.3652 18.9022 17.7057C18.6633 19.4497 16.4576 20.7992 13.7719 20.7992Z" fill="black"/>
</svg>
