<svg width="28" height="33" viewBox="0 0 28 33" fill="none" xmlns="http://www.w3.org/2000/svg">
<path d="M15.3663 15.8037L13.5213 14.8992C12.8159 17.2627 11.3018 18.8372 9.45117 18.8372C6.93327 18.8372 5.02593 15.9314 5.02593 12.2878C5.02593 9.66889 6.81515 7.59303 9.45117 7.59303C10.1018 7.59303 10.6631 7.7367 11.2242 7.94529L11.4253 5.87155C10.8438 5.69483 10.1667 5.58093 9.45117 5.58093C5.64773 5.58093 3 8.51413 3 12.2878C3 16.999 5.80547 20.8631 9.45117 20.8631C12.1284 20.8727 14.3639 18.776 15.3663 15.8037ZM7.61883 19.8201L7.09922 21.8475C6.95344 22.3453 7.25648 22.8518 7.86304 22.8518H10.5548C11.1752 22.8518 11.4548 22.3453 11.3187 21.8475L10.7894 19.8201H7.61883ZM9.13241 32.538C9.60069 32.538 9.98272 32.156 9.98272 31.7069C9.98272 29.5024 11.9536 29.1682 11.9536 26.9163C11.9536 24.4955 10.0097 24.4078 10.0521 22.3474H8.38992C8.35804 25.3118 10.3073 25.3997 10.3073 26.9163C10.3073 28.4137 8.32265 28.4308 8.32265 31.7069C8.32265 32.156 8.67164 32.538 9.13241 32.538Z" fill="black"/>
<path d="M18.1803 18.3054C22.5312 18.3054 25.9268 13.6849 25.9268 7.94788C25.9268 3.42 22.7476 0 18.1803 0C13.613 0 10.4551 3.42 10.4551 7.94788C10.4551 13.6849 13.839 18.3054 18.1803 18.3054ZM18.1803 16.3008C14.9551 16.3008 12.4672 12.5332 12.4672 7.94788C12.4672 4.62163 14.8135 2.0121 18.1803 2.0121C21.545 2.0121 23.9126 4.62163 23.9126 7.94788C23.9126 12.5332 21.3959 16.3008 18.1803 16.3008ZM16.4342 17.2837L15.8539 19.507C15.6964 20.0538 16.0187 20.6252 16.6901 20.6252H19.6779C20.3515 20.6252 20.6642 20.0538 20.5163 19.507L19.9243 17.2837H16.4342ZM18.0629 32.3465C18.5621 32.3465 18.9826 31.9261 18.9826 31.4269C18.9826 28.8605 21.3125 28.2691 21.3125 25.6655C21.3125 22.9514 19.0423 22.5255 19.0615 20.1851L17.2435 20.1947C17.2339 23.4822 19.5083 23.8901 19.5083 25.6655C19.5083 27.4718 17.1666 27.7298 17.1666 31.4269C17.1666 31.9261 17.5658 32.3465 18.0629 32.3465Z" fill="black"/>
</svg>
