<svg width="29" height="28" viewBox="0 0 29 28" fill="none" xmlns="http://www.w3.org/2000/svg">
<path d="M19.88 23.3168H22.0789V14.4208C22.0789 10.0465 18.6974 6.65741 14.323 6.65741C9.95819 6.65741 6.57664 10.0465 6.57664 14.4208V23.3168H8.77342V14.4208C8.77342 11.2666 11.1763 8.8542 14.323 8.8542C17.4772 8.8542 19.88 11.2666 19.88 14.4208V23.3168ZM23.5171 24.4158C24.1267 24.4158 24.632 23.9222 24.632 23.3222C24.632 22.7126 24.1267 22.2072 23.5171 22.2072H5.11718C4.51719 22.2072 4.0332 22.7126 4.0332 23.3222C4.0332 23.9222 4.51719 24.4158 5.11718 24.4158H23.5171ZM15.4262 14.8115C15.4262 14.2115 14.923 13.7083 14.323 13.7083C13.723 13.7083 13.239 14.2115 13.239 14.8115V23.3168H15.4262V14.8115Z" fill="black"/>
<path d="M3.42538 15.4987C4.06054 15.4987 4.61483 14.97 4.61483 14.3423C4.61483 13.6933 4.06054 13.1646 3.42538 13.1646H1.15851C0.530856 13.1646 0 13.7051 0 14.3423C0 14.9583 0.530856 15.4987 1.15851 15.4987H3.42538ZM5.77078 7.43366C6.22077 7.88366 6.96655 7.89748 7.41655 7.43366C7.87826 6.97405 7.86655 6.23999 7.41655 5.79L5.81975 4.18359C5.37936 3.72398 4.62398 3.72398 4.16437 4.18359C3.71437 4.6432 3.71437 5.36975 4.16437 5.82936L5.77078 7.43366ZM13.155 3.4446C13.155 4.07976 13.6837 4.62444 14.3231 4.62444C14.9721 4.62444 15.5008 4.07976 15.5008 3.4446V1.17773C15.5008 0.540466 14.9583 0 14.3231 0C13.6858 0 13.155 0.540466 13.155 1.17773V3.4446ZM21.2201 5.79C20.7701 6.23999 20.7583 6.97405 21.2201 7.43366C21.6893 7.89748 22.4137 7.88366 22.8637 7.43366L24.4797 5.82936C24.9297 5.36975 24.9297 4.6432 24.4797 4.18359C24.0105 3.72398 23.2861 3.72398 22.8361 4.18359L21.2201 5.79ZM27.4781 15.4987C28.1154 15.4987 28.6558 14.9583 28.6558 14.3423C28.6558 13.7051 28.1154 13.1646 27.4781 13.1646H25.2112C24.5836 13.1646 24.041 13.6933 24.041 14.3423C24.041 14.97 24.5836 15.4987 25.2112 15.4987H27.4781Z" fill="black"/>
</svg>
