<svg width="36" height="28" viewBox="0 0 36 28" fill="none" xmlns="http://www.w3.org/2000/svg">
<path d="M2.04004 22.6579V18.201C2.04004 18.0934 2.12629 17.9976 2.24347 17.9976L7.65075 17.8633V22.5063L2.30511 22.8815C2.1455 22.8932 2.04004 22.8241 2.04004 22.6579ZM2.04004 15.7288V10.829C2.04004 10.7097 2.12629 10.6234 2.24558 10.6234L7.65075 10.7598V15.798L2.24558 15.9365C2.12207 15.9365 2.04004 15.8406 2.04004 15.7288ZM2.04004 8.35681V3.89031C2.04004 3.73374 2.1434 3.6646 2.30511 3.67632L7.65075 4.05156V8.69665L2.24347 8.56024C2.12629 8.56024 2.04004 8.46649 2.04004 8.35681ZM27.7807 22.5063V17.8633L33.188 17.9976C33.3052 17.9976 33.3915 18.0934 33.3915 18.201V22.6579C33.3915 22.8241 33.286 22.8932 33.1264 22.8815L27.7807 22.5063ZM27.7807 15.798V10.7598L33.1742 10.6234C33.3052 10.6234 33.3915 10.7097 33.3915 10.829V15.7288C33.3915 15.8406 33.3094 15.9365 33.1742 15.9365L27.7807 15.798ZM27.7807 8.69665V4.05156L33.1264 3.67632C33.2881 3.6646 33.3915 3.73374 33.3915 3.89031V8.35681C33.3915 8.46649 33.3052 8.56024 33.188 8.56024L27.7807 8.69665Z" fill="white"/>
<path d="M7.65047 24.981H9.94639V3.606C9.94639 3.42272 10.0711 3.29592 10.2469 3.29592H25.1841C25.3577 3.29592 25.4728 3.42272 25.4728 3.606V24.981H27.7804V24.4427L33.6309 24.9414C34.8433 25.0532 35.4309 24.223 35.4309 23.2009V3.34725C35.4309 2.32515 34.8433 1.5046 33.6309 1.6089L27.4898 2.1332L27.4664 1.9539C27.158 1.35625 26.4846 1 25.672 1H9.7589C8.92711 1 8.27297 1.35625 7.96454 1.9539L7.9411 2.1332L1.78828 1.6089C0.587576 1.5046 0 2.32515 0 3.34725V23.2009C0 24.223 0.587576 25.0532 1.78828 24.9414L7.65047 24.4427V24.981ZM2.03976 22.6579V18.201C2.03976 18.0934 2.12601 17.9976 2.24319 17.9976L7.65047 17.8633V22.5063L2.30483 22.8815C2.14522 22.8932 2.03976 22.8241 2.03976 22.6579ZM2.03976 15.7288V10.829C2.03976 10.7097 2.12601 10.6234 2.2453 10.6234L7.65047 10.7598V15.798L2.2453 15.9365C2.12179 15.9365 2.03976 15.8406 2.03976 15.7288ZM2.03976 8.3568V3.8903C2.03976 3.73373 2.14312 3.66459 2.30483 3.67631L7.65047 4.05155V8.69664L2.24319 8.56023C2.12601 8.56023 2.03976 8.46648 2.03976 8.3568ZM27.7804 22.5063V17.8633L33.1877 17.9976C33.3049 17.9976 33.3912 18.0934 33.3912 18.201V22.6579C33.3912 22.8241 33.2857 22.8932 33.1261 22.8815L27.7804 22.5063ZM27.7804 15.798V10.7598L33.1739 10.6234C33.3049 10.6234 33.3912 10.7097 33.3912 10.829V15.7288C33.3912 15.8406 33.3091 15.9365 33.1739 15.9365L27.7804 15.798ZM27.7804 8.69664V4.05155L33.1261 3.67631C33.2878 3.66459 33.3912 3.73373 33.3912 3.8903V8.3568C33.3912 8.46648 33.3049 8.56023 33.1877 8.56023L27.7804 8.69664ZM5.94095 24.981C5.94095 25.6201 6.46313 26.1541 7.11188 26.1541H28.334C28.9828 26.1541 29.5167 25.6201 29.5167 24.981C29.5167 24.3323 28.9828 23.8101 28.334 23.8101H7.11188C6.46313 23.8101 5.94095 24.3323 5.94095 24.981ZM17.0927 24.922H18.8473V2.22999H17.0927V24.922Z" fill="black"/>
</svg>
