<svg width="28" height="29" viewBox="0 0 28 29" fill="none" xmlns="http://www.w3.org/2000/svg">
<path d="M7.5707 12.1617H19.5161C18.7881 11.0777 17.9699 9.94733 17.1069 8.79772C16.4551 7.94038 16.0155 7.43155 14.7953 7.43155H12.2915C11.0809 7.43155 10.6412 7.94038 9.97773 8.79772C9.11688 9.94733 8.29867 11.0777 7.5707 12.1617ZM4.10523 19.4152H10.9466C11.3373 18.3605 12.3365 17.6264 13.5562 17.6264C14.7524 17.6264 15.7516 18.3605 16.1519 19.4152H22.9816C22.7057 17.873 21.9318 16.0992 20.8063 14.1841H6.29008C5.155 16.0992 4.38109 17.873 4.10523 19.4152ZM13.5562 21.5292C14.188 21.5292 14.6601 21.0593 14.6601 20.4157C14.6601 19.7838 14.188 19.3118 13.5562 19.3118C12.903 19.3118 12.4426 19.7838 12.4426 20.4157C12.4426 21.0593 12.903 21.5292 13.5562 21.5292ZM11.0184 27.3248H16.0684C20.4262 27.3248 22.7929 25.1604 23.0868 21.4397H16.1402C15.7398 22.4848 14.7407 23.2167 13.5562 23.2167C12.3365 23.2167 11.347 22.4848 10.9563 21.4397H4C4.2918 25.1604 6.66062 27.3248 11.0184 27.3248Z" fill="black"/>
<path d="M7.92221 2.98898C8.38557 2.65453 8.48776 1.98352 8.17253 1.51594C7.84979 1.06008 7.20222 0.931172 6.71331 1.26562C6.25534 1.58836 6.11261 2.26687 6.43956 2.72695C6.77401 3.19242 7.45464 3.31383 7.92221 2.98898ZM10.0972 6.09937C10.715 5.69461 10.8599 4.8382 10.4413 4.21828C10.0131 3.61969 9.1801 3.47906 8.56229 3.89344C7.95409 4.30031 7.7762 5.16093 8.22784 5.77664C8.66776 6.38484 9.49112 6.55101 10.0972 6.09937ZM13.5564 2.1068C14.139 2.1068 14.6087 1.61578 14.6087 1.06195C14.6087 0.477187 14.1294 0 13.5564 0C12.9887 0 12.5211 0.477187 12.5211 1.06195C12.5211 1.61578 12.9791 2.1068 13.5564 2.1068ZM13.5564 5.90437C14.3031 5.90437 14.9209 5.28656 14.9209 4.54945C14.9209 3.80812 14.3031 3.19031 13.5564 3.19031C12.8246 3.19031 12.2185 3.80812 12.2185 4.54945C12.2185 5.28656 12.8246 5.90437 13.5564 5.90437ZM19.1884 2.98898C19.6677 3.31383 20.3249 3.19242 20.6732 2.72695C20.9959 2.26687 20.8745 1.58836 20.3973 1.26562C19.9105 0.931172 19.2629 1.06008 18.9381 1.51594C18.625 1.98352 18.7229 2.65453 19.1884 2.98898ZM17.0155 6.09937C17.6195 6.55101 18.4525 6.38484 18.8828 5.77664C19.3323 5.16093 19.1586 4.30031 18.5504 3.89344C17.9188 3.47906 17.0975 3.61969 16.6715 4.21828C16.2411 4.84781 16.3956 5.69461 17.0155 6.09937Z" fill="black"/>
</svg>
