<svg width="35" height="28" viewBox="0 0 35 28" fill="none" xmlns="http://www.w3.org/2000/svg">
<path d="M3.48562 25.2345H30.8932C33.0489 25.2345 34.3767 23.9281 34.3767 21.7894V17.798C34.3767 15.6615 33.0489 14.353 30.8932 14.353H3.48562C1.32773 14.353 0 15.6615 0 17.798V21.7894C0 23.9281 1.32773 25.2345 3.48562 25.2345ZM3.551 23.0124C2.77475 23.0124 2.29592 22.5528 2.29592 21.7979V17.7938C2.29592 17.0368 2.77475 16.5751 3.551 16.5751H30.8257C31.6019 16.5751 32.0808 17.0368 32.0808 17.7938V21.7979C32.0808 22.5528 31.6019 23.0124 30.8257 23.0124H3.551ZM5.32264 20.2479H9.13499C9.68506 20.2479 10.0915 19.8533 10.0915 19.3032C10.0915 18.751 9.68506 18.3467 9.13499 18.3467H5.32264C4.77256 18.3467 4.37788 18.751 4.37788 19.3032C4.37788 19.8533 4.77256 20.2479 5.32264 20.2479ZM15.0869 21.3767C15.9431 21.3767 16.664 20.6558 16.664 19.7761C16.664 18.9221 15.9431 18.2012 15.0869 18.2012C14.2094 18.2012 13.4885 18.9221 13.4885 19.7761C13.4885 20.6558 14.2094 21.3767 15.0869 21.3767ZM19.5525 21.3767C20.4087 21.3767 21.1296 20.6558 21.1296 19.7761C21.1296 18.9221 20.4087 18.2012 19.5525 18.2012C18.675 18.2012 17.954 18.9221 17.954 19.7761C17.954 20.6558 18.675 21.3767 19.5525 21.3767ZM24.0159 21.3767C24.8721 21.3767 25.593 20.6558 25.593 19.7761C25.593 18.9221 24.8721 18.2012 24.0159 18.2012C23.1384 18.2012 22.4175 18.9221 22.4175 19.7761C22.4175 20.6558 23.1384 21.3767 24.0159 21.3767ZM28.4815 21.3767C29.3472 21.3767 30.0682 20.6558 30.0682 19.7858C30.0682 18.9221 29.3472 18.2012 28.4815 18.2012C27.604 18.2012 26.883 18.9221 26.883 19.7858C26.883 20.6558 27.604 21.3767 28.4815 21.3767Z" fill="black"/>
<path d="M17.1754 9.3739C15.9651 9.3739 14.7526 9.7393 13.9134 10.3646C13.5079 10.6498 13.3961 11.2032 13.6654 11.6234C13.9879 12.0851 14.5497 12.1639 15.0601 11.833C15.6069 11.431 16.3832 11.206 17.1754 11.206C17.9964 11.206 18.7727 11.431 19.3002 11.833C19.8086 12.1735 20.38 12.0948 20.7025 11.6234C20.9622 11.2032 20.8504 10.6595 20.4545 10.3646C19.5768 9.7393 18.3644 9.3739 17.1754 9.3739Z" fill="black"/>
<path d="M17.1842 5.68484C15.2663 5.68484 13.3953 6.24853 11.9283 7.2704C11.5006 7.57696 11.3836 8.10898 11.6764 8.54515C11.9562 8.97054 12.5222 9.06733 13.0168 8.74812C14.1336 7.96788 15.6354 7.51695 17.1842 7.51695C18.7426 7.51695 20.2423 7.96788 21.3612 8.74812C21.8558 9.06733 22.4197 8.97054 22.6995 8.54515C22.9922 8.10898 22.8774 7.57696 22.4401 7.2704C21.0115 6.24853 19.1405 5.68484 17.1842 5.68484Z" fill="black"/>
<path d="M17.1751 2C14.5421 2 11.9752 2.77156 9.92236 4.16328C9.47658 4.47945 9.36174 5.02953 9.63947 5.45609C9.94182 5.89437 10.5003 5.97616 10.9651 5.66117C12.7009 4.48765 14.9103 3.81499 17.1751 3.81499C19.4666 3.81499 21.6589 4.47804 23.3947 5.66117C23.8595 5.97616 24.4159 5.89437 24.7086 5.45609C25.0056 5.01992 24.8907 4.46985 24.4353 4.16328C22.3632 2.77156 19.8081 2 17.1751 2Z" fill="black"/>
</svg>
