<svg width="28" height="28" viewBox="0 0 28 28" fill="none" xmlns="http://www.w3.org/2000/svg">
<path d="M8.80577 1C6.29562 1 5 2.32234 5 4.84421V23.197C5 25.7284 6.29562 27.0316 8.80577 27.0316H18.9097C21.4102 27.0316 22.7154 25.7284 22.7154 23.197V4.84421C22.7154 2.32234 21.4102 1 18.9097 1H8.80577ZM8.99866 3.29592H18.7072C19.8458 3.29592 20.4174 3.89733 20.4174 4.98694V23.0542C20.4174 24.1438 19.8458 24.7356 18.7072 24.7356H8.99866C7.85795 24.7356 7.29592 24.1438 7.29592 23.0542V4.98694C7.29592 3.89733 7.85795 3.29592 8.99866 3.29592Z" fill="black"/>
<path d="M9.92466 16.0081C9.26231 16.0081 8.98926 16.2736 8.98926 16.936V22.1044C8.98926 22.7668 9.26231 23.0323 9.92466 23.0323H17.7397C18.4116 23.0323 18.6847 22.7668 18.6847 22.1044V16.936C18.6847 16.2736 18.4116 16.0081 17.7397 16.0081H9.92466Z" fill="black"/>
</svg>
