<svg width="29" height="28" viewBox="0 0 29 28" fill="none" xmlns="http://www.w3.org/2000/svg">
<path d="M17.3688 22.7488H11.2228V15.1419C11.2228 14.5944 11.5903 14.2386 12.1378 14.2386H16.4655C17.013 14.2386 17.3688 14.5944 17.3688 15.1419V22.7488ZM3.78914 22.3431C3.78914 24.0268 4.84734 25.0447 6.58194 25.0447H22.0364C23.771 25.0447 24.8175 24.0268 24.8175 22.3431V13.4141L15.0286 5.20275C14.5727 4.81931 14.0306 4.82892 13.5844 5.20275L3.78914 13.4141V22.3431ZM0 11.814C0 12.4189 0.455153 12.935 1.19765 12.935C1.56163 12.935 1.886 12.7466 2.17217 12.5115L13.8119 2.7458C14.1267 2.46713 14.4958 2.46713 14.8127 2.7458L26.4462 12.5115C26.7248 12.7466 27.0492 12.935 27.4132 12.935C28.0863 12.935 28.6012 12.5171 28.6012 11.8428C28.6012 11.447 28.4482 11.1409 28.1515 10.8878L15.9544 0.635973C14.9522 -0.211991 13.6821 -0.211991 12.6703 0.635973L0.459372 10.8899C0.153045 11.1451 0 11.4875 0 11.814ZM21.547 6.13864L24.8576 8.92464V3.26801C24.8576 2.73973 24.521 2.40317 23.9927 2.40317H22.414C21.8953 2.40317 21.547 2.73973 21.547 3.26801V6.13864Z" fill="black"/>
</svg>
