<svg width="30" height="28" viewBox="0 0 30 28" fill="none" xmlns="http://www.w3.org/2000/svg">
<path d="M28.1229 26.1541C28.762 26.1541 29.2767 25.6394 29.2767 25.0098V3.72178C29.2767 2.07273 28.1869 1 26.4973 1H2.77194C1.08984 1 0 2.07273 0 3.72178V25.0098C0 25.6394 0.514684 26.1541 1.14421 26.1541C1.78124 26.1541 2.29592 25.6394 2.29592 25.0098V3.93389C2.29592 3.54623 2.54623 3.29592 2.91256 3.29592H26.3641C26.7305 3.29592 26.9808 3.54623 26.9808 3.93389V25.0098C26.9808 25.6394 27.4955 26.1541 28.1229 26.1541Z" fill="black"/>
<path d="M14.1742 25.6553C14.3864 25.6553 14.5579 25.4762 14.5579 25.2716V5.06427C14.5579 4.85005 14.3864 4.6806 14.1742 4.6806H4.07199C3.85988 4.6806 3.69043 4.85005 3.69043 5.06427V25.2716C3.69043 25.4762 3.85988 25.6553 4.07199 25.6553H14.1742ZM11.8947 16.8855C11.5401 16.8855 11.2846 16.63 11.2846 16.2733V14.2267C11.2846 13.87 11.5401 13.6241 11.8947 13.6241C12.2418 13.6241 12.4973 13.87 12.4973 14.2267V16.2733C12.4973 16.63 12.2418 16.8855 11.8947 16.8855Z" fill="black"/>
</svg>
