<svg width="28" height="28" viewBox="0 0 28 28" fill="none" xmlns="http://www.w3.org/2000/svg">
<path d="M8.80577 27.0316H18.8337C21.3364 27.0316 22.6395 25.7188 22.6395 23.197V4.84421C22.6395 2.31273 21.3364 1 18.8337 1H8.80577C6.29562 1 5 2.31273 5 4.84421V23.197C5 25.7188 6.29562 27.0316 8.80577 27.0316Z" fill="black"/>
<path d="M9.37594 12.3878C8.65828 12.3878 8.36719 12.1042 8.36719 11.3865V5.46039C8.36719 4.74062 8.65828 4.45703 9.37594 4.45703H18.2149C18.9422 4.45703 19.2333 4.74062 19.2333 5.46039V11.3865C19.2333 12.1042 18.9422 12.3878 18.2149 12.3878H9.37594Z" fill="white"/>
</svg>
