<svg width="28" height="28" viewBox="0 0 28 28" fill="none" xmlns="http://www.w3.org/2000/svg">
<path d="M4.46582 6.53047V9.0329C4.46582 9.59469 4.85957 9.96922 5.43308 9.96922H24.3349C24.9256 9.96922 25.2926 9.58297 25.2926 9.01907V6.52086C25.2926 5.95906 24.9159 5.57703 24.3349 5.57703H5.43308C4.84996 5.57703 4.46582 5.97078 4.46582 6.53047ZM4.46582 11.9872V14.5046C4.46582 15.0568 4.84996 15.4334 5.43308 15.4334H24.3445C24.9159 15.4334 25.2926 15.0451 25.2926 14.5025V11.9734C25.2926 11.4212 24.9181 11.0487 24.3467 11.0487H5.44269C4.85957 11.0487 4.46582 11.4233 4.46582 11.9872ZM4.46582 17.4493V19.9571C4.46582 20.521 4.84996 20.9051 5.43308 20.9051H24.337C24.9277 20.9051 25.2926 20.5168 25.2926 19.955V17.4376C25.2926 16.895 24.9256 16.5205 24.3349 16.5205H5.43308C4.85957 16.5205 4.46582 16.8971 4.46582 17.4493ZM4.46793 22.9114V25.4213C4.46793 25.9831 4.84035 26.3576 5.42136 26.3576H24.3253C24.9063 26.3576 25.2926 25.981 25.2926 25.4171V22.9093C25.2926 22.3379 24.9159 21.9751 24.3349 21.9751H5.43308C4.84035 21.9751 4.46793 22.3496 4.46793 22.9114Z" fill="black"/>
<path d="M1 3.14516C1 3.77468 1.52429 4.29898 2.15382 4.29898H25.1786C25.8081 4.29898 26.3303 3.77468 26.3303 3.14516C26.3303 2.51563 25.8081 2.00305 25.1786 2.00305H2.15382C1.52429 2.00305 1 2.51563 1 3.14516ZM2.15382 7.16538C2.61905 7.16538 3.00554 6.77257 3.00554 6.31155C3.00554 5.8346 2.62116 5.45984 2.15382 5.45984C1.67476 5.45984 1.29039 5.8346 1.29039 6.31155C1.29039 6.77257 1.67687 7.16538 2.15382 7.16538ZM2.15382 9.87991C2.61905 9.87991 3.00554 9.48171 3.00554 9.01858C3.00554 8.55124 2.62116 8.16265 2.15382 8.16265C1.67476 8.16265 1.29039 8.55124 1.29039 9.01858C1.29039 9.48171 1.67687 9.87991 2.15382 9.87991ZM2.15382 12.5785C2.61905 12.5785 3.00554 12.1899 3.00554 11.7268C3.00554 11.2498 2.62116 10.8751 2.15382 10.8751C1.67476 10.8751 1.29039 11.2498 1.29039 11.7268C1.29039 12.1899 1.67687 12.5785 2.15382 12.5785ZM2.15382 15.2909C2.61905 15.2909 3.00554 14.8906 3.00554 14.4296C3.00554 13.9644 2.62116 13.5758 2.15382 13.5758C1.67476 13.5758 1.29039 13.9644 1.29039 14.4296C1.29039 14.8906 1.67687 15.2909 2.15382 15.2909ZM2.15382 17.9916C2.61905 17.9916 3.00554 17.6051 3.00554 17.1399C3.00554 16.6651 2.62116 16.2882 2.15382 16.2882C1.67476 16.2882 1.29039 16.6651 1.29039 17.1399C1.29039 17.6051 1.67687 17.9916 2.15382 17.9916ZM2.15382 20.704C2.61905 20.704 3.00554 20.3058 3.00554 19.8406C3.00554 19.3733 2.62116 18.991 2.15382 18.991C1.67476 18.991 1.29039 19.3733 1.29039 19.8406C1.29039 20.3058 1.67687 20.704 2.15382 20.704ZM2.15382 26.3778C2.69147 26.3778 3.14405 25.9327 3.14405 25.3855V22.6915C3.14405 22.1464 2.70108 21.6992 2.15382 21.6992C1.60445 21.6992 1.15187 22.1464 1.15187 22.6915V25.3855C1.15187 25.9327 1.60445 26.3778 2.15382 26.3778Z" fill="black"/>
</svg>
