<svg width="28" height="28" viewBox="0 0 28 28" fill="none" xmlns="http://www.w3.org/2000/svg">
<path d="M6.84421 24.8972H21.7931C24.3225 24.8972 25.6373 23.5919 25.6373 21.0914V6.82921C25.6373 4.32656 24.3225 3.02344 21.7931 3.02344H6.84421C4.31484 3.02344 3 4.31695 3 6.82921V21.0914C3 23.6016 4.31484 24.8972 6.84421 24.8972ZM6.97733 22.6013C5.88772 22.6013 5.29592 22.0371 5.29592 20.8985V7.01999C5.29592 5.88139 5.88772 5.31936 6.97733 5.31936H21.6504C22.7304 5.31936 23.3414 5.88139 23.3414 7.01999V20.8985C23.3414 22.0371 22.7304 22.6013 21.6504 22.6013H6.97733Z" fill="black"/>
<path d="M10.303 13.9216C10.911 13.9216 11.4051 13.4468 11.4051 12.8217V9.29221C11.4051 8.68425 10.911 8.19019 10.303 8.19019C9.68757 8.19019 9.21484 8.68425 9.21484 9.29221V12.8217C9.21484 13.4489 9.68757 13.9216 10.303 13.9216ZM12.9327 20.336H15.705C16.0703 20.336 16.2705 20.1497 16.2705 19.7864V18.5234C16.2705 17.4293 15.4108 16.5621 14.3189 16.5621C13.2131 16.5621 12.3693 17.4293 12.3693 18.5234V19.7864C12.3693 20.1497 12.5673 20.336 12.9327 20.336ZM18.3112 13.9216C18.9288 13.9216 19.4228 13.4468 19.4228 12.8217V9.29221C19.4228 8.68425 18.9288 8.19019 18.3112 8.19019C17.6957 8.19019 17.2251 8.68425 17.2251 9.29221V12.8217C17.2251 13.4489 17.6957 13.9216 18.3112 13.9216Z" fill="black"/>
</svg>
