<svg width="28" height="28" viewBox="0 0 28 28" fill="none" xmlns="http://www.w3.org/2000/svg">
<path d="M13.9291 27.1622C18.5855 27.1622 21.854 24.0321 21.854 19.5942V7.56796C21.854 3.12046 18.5855 0 13.9291 0C9.28031 0 6 3.12046 6 7.56796V19.5942C6 24.0321 9.28031 27.1622 13.9291 27.1622Z" fill="black"/>
<path d="M13.9294 12.5337C11.4069 12.5337 9.41797 10.5523 9.41797 8.0297C9.41797 5.50923 11.4069 3.52032 13.9294 3.52032C16.4499 3.52032 18.4271 5.50923 18.4271 8.0297C18.4271 10.5523 16.4499 12.5337 13.9294 12.5337ZM13.9294 23.613C11.4069 23.613 9.41797 21.622 9.41797 19.1037C9.41797 16.5811 11.4069 14.5997 13.9294 14.5997C16.4499 14.5997 18.4271 16.5811 18.4271 19.1037C18.4271 21.622 16.4499 23.613 13.9294 23.613ZM13.9294 9.66211C14.8362 9.66211 15.5363 8.95243 15.5363 8.0297C15.5363 7.11329 14.8362 6.40359 13.9294 6.40359C13.0205 6.40359 12.3087 7.11329 12.3087 8.0297C12.3087 8.95243 13.0205 9.66211 13.9294 9.66211ZM13.9294 21.8695C15.4824 21.8695 16.6878 20.6684 16.6878 19.1037C16.6878 17.5369 15.4824 16.3315 13.9294 16.3315C12.3626 16.3315 11.1573 17.5369 11.1573 19.1037C11.1573 20.6684 12.3626 21.8695 13.9294 21.8695Z" fill="white"/>
</svg>
