<svg width="32" height="28" viewBox="0 0 32 28" fill="none" xmlns="http://www.w3.org/2000/svg">
<path d="M0 6.60155C0 8.06944 1.13367 9.19139 2.58773 9.19139H29.1037C30.5557 9.19139 31.6936 8.06944 31.6936 6.60155C31.6936 5.11445 30.5557 4 29.1037 4H2.58773C1.13367 4 0 5.11445 0 6.60155ZM2.15858 6.60155C2.15858 6.28608 2.39624 6.05804 2.73093 6.05804H28.9584C29.2931 6.05804 29.5308 6.28608 29.5308 6.60155C29.5308 6.90741 29.2931 7.13546 28.9584 7.13546H2.73093C2.39624 7.13546 2.15858 6.90741 2.15858 6.60155ZM9.04077 20.1988H22.6603C27.2079 20.1988 29.5943 17.9476 29.5943 13.611V8.00031H27.3469V13.611C27.3469 16.5039 25.7822 17.9535 22.6603 17.9535H9.04077C5.90928 17.9535 4.3467 16.5039 4.3467 13.611V8.00031H2.09929V13.611C2.09929 17.9476 4.48359 20.1988 9.04077 20.1988ZM5.67421 22.8965C6.2496 23.1177 6.90584 22.8018 7.11537 22.2285L8.17475 19.2995L6.06351 18.5305L5.00625 21.4553C4.79461 22.0328 5.09882 22.6965 5.67421 22.8965ZM26.0269 22.8965C26.598 22.7008 26.8969 22.0328 26.6873 21.4574L25.6279 18.5305L23.5167 19.2995L24.5761 22.2285C24.7856 22.8018 25.4419 23.1177 26.0269 22.8965Z" fill="black"/>
</svg>
