<svg width="28" height="28" viewBox="0 0 28 28" fill="none" xmlns="http://www.w3.org/2000/svg">
<path d="M6.84421 24.8972H21.0295C23.5685 24.8972 24.8737 23.5919 24.8737 21.0914V6.82921C24.8737 4.32656 23.5685 3.02344 21.0295 3.02344H6.84421C4.31484 3.02344 3 4.31695 3 6.82921V21.0914C3 23.6016 4.31484 24.8972 6.84421 24.8972ZM6.97733 22.6013C5.88772 22.6013 5.29592 22.0371 5.29592 20.8985V7.01999C5.29592 5.88139 5.88772 5.31936 6.97733 5.31936H20.8964C21.9764 5.31936 22.5778 5.88139 22.5778 7.01999V20.8985C22.5778 22.0371 21.9764 22.6013 20.8964 22.6013H6.97733Z" fill="black"/>
<path d="M10.9007 7.87634C10.3621 7.87634 9.97559 8.25532 9.97559 8.81102V19.1094C9.97559 19.6438 10.3621 20.0345 10.9007 20.0345H16.9738C17.5124 20.0345 17.8989 19.6438 17.8989 19.1094V8.81102C17.8989 8.25532 17.5124 7.87634 16.9738 7.87634H10.9007ZM11.7456 15.0653H16.1289C16.3781 15.0653 16.5388 15.2399 16.5388 15.489V18.2507C16.5388 18.5094 16.3781 18.6723 16.1289 18.6723H11.7456C11.506 18.6723 11.3357 18.5094 11.3357 18.2507V15.489C11.3357 15.2399 11.506 15.0653 11.7456 15.0653Z" fill="black"/>
</svg>
