<svg width="28" height="28" viewBox="0 0 28 28" fill="none" xmlns="http://www.w3.org/2000/svg">
<path d="M6.84421 24.8972H21.0295C23.5685 24.8972 24.8737 23.5919 24.8737 21.0914V6.82921C24.8737 4.32656 23.5685 3.02344 21.0295 3.02344H6.84421C4.31484 3.02344 3 4.31695 3 6.82921V21.0914C3 23.6016 4.31484 24.8972 6.84421 24.8972Z" fill="black"/>
<path d="M9.9495 9.50952H17.9234C18.8234 9.50952 19.2265 9.81514 19.654 10.3671L21.7058 13.0308C22.1272 13.5682 22.1293 14.28 21.7037 14.8333L19.6519 17.5184C19.2244 18.0682 18.7252 18.3663 17.9234 18.3663H9.9495C9.14771 18.3663 8.64849 18.0682 8.221 17.5184L6.16927 14.8333C5.74365 14.28 5.74576 13.5682 6.16717 13.0308L8.21889 10.3671C8.64638 9.81514 9.04951 9.50952 9.9495 9.50952ZM9.50701 12.7242C8.8456 12.7242 8.28638 13.2834 8.28638 13.9448C8.28638 14.6062 8.8456 15.1559 9.50701 15.1559C10.1705 15.1559 10.7297 14.6062 10.7297 13.9448C10.7297 13.2834 10.1705 12.7242 9.50701 12.7242ZM13.9402 14.2144C13.2692 14.2144 12.7196 14.7736 12.7196 15.435C12.7196 16.0964 13.2692 16.6556 13.9402 16.6556C14.6037 16.6556 15.1533 16.0964 15.1533 15.435C15.1533 14.7736 14.6037 14.2144 13.9402 14.2144ZM18.3659 12.7242C17.7024 12.7242 17.1528 13.2834 17.1528 13.9448C17.1528 14.6062 17.7024 15.1559 18.3659 15.1559C19.0273 15.1559 19.5865 14.6062 19.5865 13.9448C19.5865 13.2834 19.0273 12.7242 18.3659 12.7242Z" fill="white"/>
</svg>
