<svg width="28" height="28" viewBox="0 0 28 28" fill="none" xmlns="http://www.w3.org/2000/svg">
<path d="M14.105 26.21C20.7369 26.21 26.2121 20.7273 26.2121 14.105C26.2121 7.47312 20.7273 2 14.0954 2C7.47523 2 2 7.47312 2 14.105C2 20.7273 7.48484 26.21 14.105 26.21ZM14.105 23.8255C8.71085 23.8255 4.39412 19.4991 4.39412 14.105C4.39412 8.71085 8.70124 4.38452 14.0954 4.38452C19.4895 4.38452 23.8276 8.71085 23.8276 14.105C23.8276 19.4991 19.4991 23.8255 14.105 23.8255Z" fill="black"/>
<path d="M7.21484 18.2436C7.21484 18.5206 7.40984 18.7039 7.68687 18.7039H8.01288C8.28991 18.7039 8.47952 18.5206 8.47952 18.2436V17.4676C8.54351 17.4793 8.7214 17.4814 8.86413 17.4814H19.3463C19.489 17.4814 19.669 17.4793 19.733 17.4676V18.2436C19.733 18.5206 19.9226 18.7039 20.1997 18.7039H20.5257C20.8123 18.7039 20.9977 18.5206 20.9977 18.2436V14.9956C20.9977 13.9376 20.4064 13.358 19.3463 13.358H8.86413C7.80405 13.358 7.21484 13.9376 7.21484 14.9956V18.2436ZM8.53507 12.5506H9.92984V11.814C9.92984 11.2951 10.209 11.0105 10.7396 11.0105H12.7327C13.2441 11.0105 13.5307 11.2951 13.5307 11.814V12.5506H14.7394V11.814C14.7394 11.2951 15.0261 11.0105 15.5642 11.0105H17.4441C18.0014 11.0105 18.2902 11.2951 18.2902 11.814V12.5506H19.685V11.0159C19.685 10.0133 19.1351 9.49437 18.1496 9.49437H10.063C9.07742 9.49437 8.53507 10.0133 8.53507 11.0159V12.5506Z" fill="black"/>
</svg>
