<svg width="28" height="29" viewBox="0 0 28 29" fill="none" xmlns="http://www.w3.org/2000/svg">
<path d="M10.2126 28.0244H17.9697C19.967 28.0244 21.1822 26.8507 21.1822 24.9609V3.05601C21.1822 1.16625 19.967 0 17.9697 0H10.2126C8.21523 0 7 1.16625 7 3.05601V24.9609C7 26.8507 8.21523 28.0244 10.2126 28.0244ZM10.5278 25.9127C9.67678 25.9127 9.14358 25.4051 9.14358 24.603V3.42351C9.14358 2.62147 9.67678 2.1117 10.5278 2.1117H17.6544C18.5055 2.1117 19.0387 2.62147 19.0387 3.42351V24.603C19.0387 25.4051 18.5055 25.9127 17.6544 25.9127H10.5278ZM14.8091 4.96615H17.3031C17.7238 4.96615 18.0646 4.63498 18.0646 4.21428C18.0646 3.77975 17.7238 3.44858 17.3031 3.44858H14.8091C14.3884 3.44858 14.0476 3.77975 14.0476 4.21428C14.0476 4.63498 14.3884 4.96615 14.8091 4.96615ZM11.2412 9.37404C11.8888 9.37404 12.4054 8.86709 12.4054 8.21201C12.4054 7.58037 11.8888 7.05209 11.2412 7.05209C10.5979 7.05209 10.0813 7.58037 10.0813 8.21201C10.0813 8.86709 10.5979 9.37404 11.2412 9.37404ZM14.0901 9.37404C14.7376 9.37404 15.2521 8.86709 15.2521 8.21201C15.2521 7.58037 14.7398 7.05209 14.0901 7.05209C13.4404 7.05209 12.9301 7.58037 12.9301 8.21201C12.9301 8.86709 13.4446 9.37404 14.0901 9.37404ZM16.9527 9.37404C17.5961 9.37404 18.1126 8.86709 18.1126 8.21201C18.1126 7.58037 17.5961 7.05209 16.9527 7.05209C16.303 7.05209 15.7907 7.58037 15.7907 8.21201C15.7907 8.86709 16.3051 9.37404 16.9527 9.37404ZM11.2412 12.6469C11.8888 12.6469 12.4054 12.1324 12.4054 11.4869C12.4054 10.8532 11.8888 10.3249 11.2412 10.3249C10.5979 10.3249 10.0813 10.8532 10.0813 11.4869C10.0813 12.1324 10.5979 12.6469 11.2412 12.6469ZM14.0901 12.6469C14.7376 12.6469 15.2521 12.1324 15.2521 11.4869C15.2521 10.8532 14.7398 10.3249 14.0901 10.3249C13.4404 10.3249 12.9301 10.8532 12.9301 11.4869C12.9301 12.1324 13.4446 12.6469 14.0901 12.6469ZM16.9527 12.6469C17.5961 12.6469 18.1126 12.1324 18.1126 11.4869C18.1126 10.8532 17.5961 10.3249 16.9527 10.3249C16.303 10.3249 15.7907 10.8532 15.7907 11.4869C15.7907 12.1324 16.3051 12.6469 16.9527 12.6469ZM11.2412 15.9143C11.8888 15.9143 12.4054 15.4052 12.4054 14.7522C12.4054 14.1164 11.8888 13.5902 11.2412 13.5902C10.5979 13.5902 10.0813 14.1164 10.0813 14.7522C10.0813 15.4052 10.5979 15.9143 11.2412 15.9143ZM14.0901 15.9143C14.7376 15.9143 15.2521 15.386 15.2521 14.7522C15.2521 14.1047 14.7376 13.5902 14.0901 13.5902C13.4446 13.5902 12.9301 14.1047 12.9301 14.7522C12.9301 15.386 13.4446 15.9143 14.0901 15.9143ZM16.9527 15.9143C17.5961 15.9143 18.1126 15.386 18.1126 14.7522C18.1126 14.1047 17.5961 13.5902 16.9527 13.5902C16.3051 13.5902 15.7907 14.1047 15.7907 14.7522C15.7907 15.386 16.3051 15.9143 16.9527 15.9143ZM10.9876 23.5837C11.4904 23.5837 11.8919 23.1705 11.8919 22.6795V18.5901C11.8919 18.0874 11.4904 17.6859 10.9876 17.6859C10.4903 17.6859 10.0813 18.0874 10.0813 18.5901V22.6795C10.0813 23.1705 10.4903 23.5837 10.9876 23.5837ZM13.518 20.2233H14.6547C15.0679 20.2233 15.299 19.972 15.299 19.5844V18.8226C15.299 18.4254 15.0679 18.1783 14.6547 18.1783H13.518C13.1261 18.1783 12.8833 18.4254 12.8833 18.8226V19.5844C12.8833 19.972 13.1261 20.2233 13.518 20.2233ZM13.518 23.0817H14.6547C15.0679 23.0817 15.299 22.8464 15.299 22.447V21.6874C15.299 21.288 15.0679 21.0485 14.6547 21.0485H13.518C13.1261 21.0485 12.8833 21.288 12.8833 21.6874V22.447C12.8833 22.8464 13.1282 23.0817 13.518 23.0817ZM17.2063 23.5837C17.7037 23.5837 18.1126 23.1705 18.1126 22.6795V18.5901C18.1126 18.0874 17.7037 17.6859 17.2063 17.6859C16.7036 17.6859 16.3021 18.0874 16.3021 18.5901V22.6795C16.3021 23.1705 16.7036 23.5837 17.2063 23.5837Z" fill="black"/>
</svg>
