<svg width="28" height="28" viewBox="0 0 28 28" fill="none" xmlns="http://www.w3.org/2000/svg">
<path d="M6.84421 24.8972H21.7931C24.3225 24.8972 25.6373 23.5919 25.6373 21.0914V6.82921C25.6373 4.32656 24.3225 3.02344 21.7931 3.02344H6.84421C4.31484 3.02344 3 4.31695 3 6.82921V21.0914C3 23.6016 4.31484 24.8972 6.84421 24.8972Z" fill="black"/>
<path d="M10.2471 19.6882C9.20972 19.6882 8.36621 18.8468 8.36621 17.8094C8.36621 16.7892 9.20972 15.9382 10.2471 15.9382C11.2769 15.9382 12.1087 16.7892 12.1087 17.8094C12.1087 18.8468 11.2769 19.6882 10.2471 19.6882ZM18.3993 19.6882C17.3599 19.6882 16.5281 18.8468 16.5281 17.8094C16.5281 16.7892 17.3599 15.9382 18.3993 15.9382C19.4174 15.9382 20.2706 16.7892 20.2706 17.8094C20.2706 18.8468 19.4174 19.6882 18.3993 19.6882ZM14.3184 11.9376C13.281 11.9376 12.4375 11.0962 12.4375 10.0568C12.4375 9.02904 13.281 8.19513 14.3184 8.19513C15.3461 8.19513 16.1896 9.02904 16.1896 10.0568C16.1896 11.0962 15.3461 11.9376 14.3184 11.9376Z" fill="white"/>
</svg>
