<svg width="28" height="28" viewBox="0 0 28 28" fill="none" xmlns="http://www.w3.org/2000/svg">
<path d="M6.84421 24.8972H21.0295C23.5685 24.8972 24.8737 23.5919 24.8737 21.0914V6.82921C24.8737 4.32656 23.5685 3.02344 21.0295 3.02344H6.84421C4.31484 3.02344 3 4.31695 3 6.82921V21.0914C3 23.6016 4.31484 24.8972 6.84421 24.8972ZM6.97733 22.6013C5.88772 22.6013 5.29592 22.0371 5.29592 20.8985V7.01999C5.29592 5.88139 5.88772 5.31936 6.97733 5.31936H20.8964C21.9764 5.31936 22.5778 5.88139 22.5778 7.01999V20.8985C22.5778 22.0371 21.9764 22.6013 20.8964 22.6013H6.97733Z" fill="black"/>
<path d="M9.63269 19.3577H18.2985C18.9883 19.3577 19.4908 18.8573 19.4908 18.1655V9.73921C19.4908 9.04733 18.9883 8.54694 18.2985 8.54694H9.63269C8.94293 8.54694 8.44043 9.04733 8.44043 9.73921V18.1655C8.44043 18.8573 8.94293 19.3577 9.63269 19.3577ZM10.179 13.3559C9.97137 13.1545 9.97137 12.9054 10.179 12.6998L11.7831 11.1096C11.9886 10.8965 12.2411 10.8944 12.4328 11.1L12.8366 11.4996C13.0572 11.7009 13.0433 11.9693 12.8366 12.1727L11.2379 13.7555C11.0291 13.976 10.7746 13.976 10.5925 13.7555L10.179 13.3559ZM17.3408 13.7555C17.1587 13.976 16.8925 13.9685 16.6911 13.7555L15.085 12.1727C14.874 11.9672 14.874 11.7009 15.0829 11.4996L15.4963 11.0904C15.6901 10.8848 15.9522 10.8965 16.1481 11.1L17.7522 12.6998C17.9598 12.9054 17.9577 13.1545 17.7522 13.3559L17.3408 13.7555ZM13.6752 17.6468C13.4111 17.6468 13.2076 17.4626 13.2076 17.1984V15.1821C13.2076 14.902 13.409 14.7028 13.6752 14.7028H14.2485C14.5126 14.7028 14.7257 14.902 14.7257 15.1821V17.1984C14.7257 17.4722 14.5201 17.6468 14.2485 17.6468H13.6752Z" fill="black"/>
</svg>
