<svg width="28" height="28" viewBox="0 0 28 28" fill="none" xmlns="http://www.w3.org/2000/svg">
<path d="M5.09755 8.17671H22.7455C23.3725 8.17671 23.7789 8.03515 24.1215 7.71476L25.1314 6.73976C25.5503 6.35164 25.411 5.57727 24.7166 5.57727H7.06653C6.44169 5.57727 6.03528 5.72094 5.69263 6.03922L4.6806 7.01422C4.26388 7.40234 4.4031 8.17671 5.09755 8.17671ZM5.09755 14.1603H22.7455C23.3725 14.1603 23.7789 14.0283 24.1215 13.7101L25.1314 12.7233C25.5503 12.3448 25.411 11.5726 24.7166 11.5726H7.06653C6.44169 11.5726 6.03528 11.7141 5.69263 12.0324L4.6806 13.0095C4.26388 13.3976 4.4031 14.1603 5.09755 14.1603ZM5.09755 20.1626H22.7455C23.3725 20.1626 23.7789 20.019 24.1215 19.6911L25.1314 18.7161C25.5503 18.3376 25.411 17.5728 24.7166 17.5728H7.06653C6.44169 17.5728 6.03528 17.7048 5.69263 18.0347L4.6806 19.0098C4.26388 19.3979 4.4031 20.1626 5.09755 20.1626ZM5.09755 26.1537H22.7455C23.3725 26.1537 23.7789 26.0004 24.1215 25.6726L25.1314 24.6976C25.5503 24.319 25.411 23.5447 24.7166 23.5447H7.06653C6.44169 23.5447 6.03528 23.6862 5.69263 24.0162L4.6806 24.9912C4.26388 25.3794 4.4031 26.1537 5.09755 26.1537Z" fill="black"/>
<path d="M1 3.14516C1 3.77468 1.52429 4.29898 2.15382 4.29898H25.1786C25.8081 4.29898 26.3303 3.77468 26.3303 3.14516C26.3303 2.51563 25.8081 2.00305 25.1786 2.00305H2.15382C1.52429 2.00305 1 2.51563 1 3.14516ZM2.15382 7.16538C2.61905 7.16538 3.00554 6.77257 3.00554 6.31155C3.00554 5.8346 2.62116 5.45984 2.15382 5.45984C1.67476 5.45984 1.29039 5.8346 1.29039 6.31155C1.29039 6.77257 1.67687 7.16538 2.15382 7.16538ZM2.15382 9.87991C2.61905 9.87991 3.00554 9.48171 3.00554 9.01858C3.00554 8.55124 2.62116 8.16265 2.15382 8.16265C1.67476 8.16265 1.29039 8.55124 1.29039 9.01858C1.29039 9.48171 1.67687 9.87991 2.15382 9.87991ZM2.15382 12.5785C2.61905 12.5785 3.00554 12.1899 3.00554 11.7268C3.00554 11.2498 2.62116 10.8751 2.15382 10.8751C1.67476 10.8751 1.29039 11.2498 1.29039 11.7268C1.29039 12.1899 1.67687 12.5785 2.15382 12.5785ZM2.15382 15.2909C2.61905 15.2909 3.00554 14.8906 3.00554 14.4296C3.00554 13.9644 2.62116 13.5758 2.15382 13.5758C1.67476 13.5758 1.29039 13.9644 1.29039 14.4296C1.29039 14.8906 1.67687 15.2909 2.15382 15.2909ZM2.15382 17.9916C2.61905 17.9916 3.00554 17.6051 3.00554 17.1399C3.00554 16.6651 2.62116 16.2882 2.15382 16.2882C1.67476 16.2882 1.29039 16.6651 1.29039 17.1399C1.29039 17.6051 1.67687 17.9916 2.15382 17.9916ZM2.15382 20.704C2.61905 20.704 3.00554 20.3058 3.00554 19.8406C3.00554 19.3733 2.62116 18.991 2.15382 18.991C1.67476 18.991 1.29039 19.3733 1.29039 19.8406C1.29039 20.3058 1.67687 20.704 2.15382 20.704ZM2.15382 26.3778C2.69147 26.3778 3.14405 25.9327 3.14405 25.3855V22.6915C3.14405 22.1464 2.70108 21.6992 2.15382 21.6992C1.60445 21.6992 1.15187 22.1464 1.15187 22.6915V25.3855C1.15187 25.9327 1.60445 26.3778 2.15382 26.3778Z" fill="black"/>
</svg>
