<svg width="28" height="28" viewBox="0 0 28 28" fill="none" xmlns="http://www.w3.org/2000/svg">
<path d="M7.43663 24.6634H20.323C21.2333 24.6634 22.0935 24.3409 22.7216 23.7299C25.2653 21.3067 26.7693 17.7897 26.7693 14.3376C26.7693 10.8855 25.2653 7.36843 22.7216 4.94523C22.0935 4.33422 21.2333 4 20.323 4H7.43663C6.49749 4 5.59679 4.36305 4.94945 5.02211C2.48476 7.4357 1 10.9239 1 14.3376C1 17.7897 2.50398 21.3067 5.04765 23.7299C5.67578 24.3409 6.52632 24.6634 7.43663 24.6634ZM7.49569 22.4662C7.09514 22.4662 6.8085 22.3607 6.5678 22.1242C4.50366 20.1773 3.2453 17.2485 3.2453 14.3856C3.2453 11.5248 4.51327 8.56514 6.58702 6.6278C6.82983 6.40092 7.10475 6.29756 7.49569 6.29756H20.264C20.6645 6.29756 20.9608 6.41053 21.2036 6.64913C23.2581 8.59608 24.5261 11.5248 24.5261 14.3856C24.5261 17.2485 23.2581 20.1773 21.2036 22.1242C20.9608 22.3607 20.6645 22.4662 20.264 22.4662H7.49569Z" fill="black"/>
<path d="M8.95316 19.0634C9.578 19.0634 10.0868 18.5855 10.0868 17.9532V10.8317C10.0868 10.1994 9.578 9.69055 8.95316 9.69055C8.32081 9.69055 7.84082 10.1994 7.84082 10.8317V17.9532C7.84082 18.5855 8.31659 19.0634 8.95316 19.0634ZM18.8067 19.0634C19.4391 19.0634 19.9287 18.5738 19.9287 17.9393V10.8359C19.9287 10.1994 19.4391 9.69055 18.8067 9.69055C18.1723 9.69055 17.6848 10.2015 17.6848 10.8359V17.9393C17.6848 18.5642 18.1723 19.0634 18.8067 19.0634Z" fill="black"/>
</svg>
