<svg width="28" height="33" viewBox="0 0 28 33" fill="none" xmlns="http://www.w3.org/2000/svg">
<path d="M13.7252 18.3054C18.0762 18.3054 21.4622 13.6849 21.4622 7.94788C21.4622 3.42 18.2925 0 13.7252 0C9.15797 0 6 3.42 6 7.94788C6 13.6849 9.37429 18.3054 13.7252 18.3054ZM11.9791 17.2837L11.3988 19.507C11.2606 20.0538 11.5636 20.6252 12.2351 20.6252H15.2229C15.8965 20.6252 16.2091 20.0538 16.0612 19.507L15.4596 17.2837H11.9791ZM13.6078 32.3465C14.107 32.3465 14.5179 31.9261 14.5179 31.4269C14.5179 28.8605 16.8478 28.2691 16.8478 25.6655C16.8478 22.9514 14.5873 22.5255 14.6065 20.1851H12.7884C12.7788 23.4822 15.0436 23.8901 15.0436 25.6655C15.0436 27.4718 12.702 27.7298 12.702 31.4269C12.702 31.9261 13.1107 32.3465 13.6078 32.3465Z" fill="black"/>
</svg>
