<svg width="28" height="28" viewBox="0 0 28 28" fill="none" xmlns="http://www.w3.org/2000/svg">
<path d="M8.52335 13.8576H10.7276V8.69359H8.52335V13.8576ZM16.6923 13.8576H18.8966V8.69359H16.6923V13.8576ZM7.41944 26.7761H7.74898C8.38437 26.7761 8.8271 26.3333 8.8271 25.698V17.886H6.34343V25.698C6.34343 26.3333 6.78406 26.7761 7.41944 26.7761ZM8.09538 21.6477H19.3245V19.6968H8.09538V21.6477ZM19.6688 26.7761H19.9983C20.6337 26.7761 21.0765 26.3333 21.0765 25.698V17.886H18.5928V25.698C18.5928 26.3333 19.0313 26.7761 19.6688 26.7761ZM8.15163 9.92101H19.2704C20.7038 9.92101 21.3833 9.26288 21.3833 7.8646V3.05429C21.3833 1.65812 20.7038 1 19.2704 1H8.15163C6.7182 1 6.03664 1.65812 6.03664 3.05429V7.8646C6.03664 9.26288 6.7182 9.92101 8.15163 9.92101ZM7.02851 18.719H20.3935C21.7501 18.719 22.4199 18.0822 22.4199 16.7587V14.8593C22.4199 13.54 21.7501 12.9011 20.3935 12.9011H7.02851C5.67195 12.9011 5 13.54 5 14.8593V16.7587C5 18.0822 5.67195 18.719 7.02851 18.719Z" fill="black"/>
</svg>
