<svg width="31" height="28" viewBox="0 0 31 28" fill="none" xmlns="http://www.w3.org/2000/svg">
<path d="M0 5.68796C0 6.63718 0.738748 7.37592 1.68796 7.37592H29.1042C30.0534 7.37592 30.8018 6.63718 30.8018 5.68796C30.8018 4.73875 30.0534 4 29.1042 4H1.68796C0.738748 4 0 4.73875 0 5.68796ZM8.58631 20.1006H22.2058C26.763 20.1006 29.1494 17.8494 29.1494 13.5128V9.03084H1.65445V13.5128C1.65445 17.8494 4.02913 20.1006 8.58631 20.1006ZM5.21976 22.7983C5.80475 23.0195 6.461 22.7015 6.67053 22.1303L7.7299 19.2013L5.61866 18.4323L4.5614 21.3571C4.34976 21.9346 4.64437 22.5983 5.21976 22.7983ZM25.5724 22.7983C26.1457 22.6005 26.452 21.9346 26.2425 21.3592L25.1831 18.4323L23.0623 19.2013L24.1216 22.1303C24.3408 22.7015 24.997 23.0195 25.5724 22.7983Z" fill="black"/>
</svg>
