<svg width="28" height="28" viewBox="0 0 28 28" fill="none" xmlns="http://www.w3.org/2000/svg">
<path d="M6.89265 25.3922H12.9529V0H6.89265C5.17 0 4 1.19765 4 2.98218V22.41C4 24.1945 5.17 25.3922 6.89265 25.3922ZM9.95851 14.5284C9.22609 14.5284 8.63195 13.9355 8.63195 13.2157C8.63195 12.4821 9.22609 11.8891 9.95851 11.8891C10.6825 11.8891 11.283 12.4779 11.283 13.2157C11.283 13.9397 10.6825 14.5284 9.95851 14.5284ZM20.6987 25.3922C22.4214 25.3922 23.5956 24.1945 23.5956 22.41V2.98218C23.5956 1.19765 22.4214 0 20.6987 0H14.6427V25.3922H20.6987ZM17.6275 14.5284C16.8951 14.5284 16.3009 13.9355 16.3009 13.2157C16.3009 12.4821 16.8951 11.8891 17.6275 11.8891C18.3515 11.8891 18.9519 12.4779 18.9519 13.2157C18.9519 13.9397 18.3515 14.5284 17.6275 14.5284ZM7.69093 27.7331C8.35913 27.7331 8.826 27.2566 8.826 26.5884V24.0579H6.55586V26.5884C6.55586 27.2566 7.02273 27.7331 7.69093 27.7331ZM19.8941 27.7331C20.5623 27.7331 21.0292 27.2566 21.0292 26.5884V24.0579H18.7591V26.5884C18.7591 27.2566 19.2259 27.7331 19.8941 27.7331Z" fill="black"/>
</svg>
