<svg width="30" height="28" viewBox="0 0 30 28" fill="none" xmlns="http://www.w3.org/2000/svg">
<path d="M1.974 15.4417C2.68532 16.6706 3.80094 16.9588 5.01266 16.2646L20.4887 7.32885C21.7121 6.62502 22.021 5.50307 21.3097 4.27636L19.718 1.53628C19.0067 0.297842 17.9049 -0.003093 16.689 0.714562L1.18532 9.66206C-0.0402207 10.3584 -0.328971 11.4632 0.382356 12.7017L1.974 15.4417ZM16.1021 5.45034C15.8338 4.98604 15.9903 4.39495 16.4525 4.1287C16.9243 3.86034 17.5154 4.01901 17.7837 4.4887C18.05 4.94877 17.8955 5.54198 17.4216 5.81244C16.9595 6.0808 16.3684 5.92002 16.1021 5.45034ZM13.0491 7.21119C12.7829 6.74901 12.9395 6.15791 13.3995 5.88956C13.8713 5.62331 14.4645 5.77987 14.7329 6.24416C15.0013 6.70424 14.8426 7.30705 14.3687 7.57541C13.9086 7.84166 13.3175 7.67549 13.0491 7.21119ZM9.99618 8.97627C9.72782 8.51409 9.89821 7.92088 10.3583 7.64291C10.8184 7.37666 11.4116 7.54284 11.682 8.00502C11.9504 8.46721 11.7896 9.06041 11.3274 9.32666C10.8652 9.59502 10.272 9.43846 9.99618 8.97627ZM6.95282 10.7275C6.68657 10.2653 6.84524 9.68174 7.31704 9.41549C7.77711 9.13752 8.37782 9.29409 8.64618 9.75838C8.91453 10.2323 8.74836 10.8117 8.28407 11.08C7.81438 11.3463 7.22118 11.1993 6.95282 10.7275ZM3.90196 12.4926C3.63571 12.0304 3.79227 11.4372 4.26407 11.1667C4.72626 10.9005 5.31946 11.0592 5.58571 11.5213C5.86368 11.9931 5.6975 12.5746 5.23321 12.843C4.7593 13.1092 4.17032 12.9623 3.90196 12.4926ZM18.4932 1.31831L19.2528 2.62471L21.3493 1.41838C21.7259 1.20346 21.8387 0.753466 21.6216 0.386437C21.4184 0.0215168 20.9567 -0.112545 20.5897 0.104485L18.4932 1.31831ZM20.1291 4.13854L20.8887 5.45244L22.9756 4.24612C23.3811 4.01948 23.4842 3.61003 23.248 3.20456C23.033 2.82792 22.5927 2.71519 22.216 2.93222L20.1291 4.13854ZM10.1755 25.619C10.8772 26.8382 12.0078 27.1466 13.2334 26.4503L28.7178 17.5124C29.9337 16.8065 30.2129 15.6728 29.5208 14.4536L27.9291 11.7114C27.2178 10.473 26.1139 10.1868 24.9001 10.9003L9.40484 19.8456C8.19102 20.5399 7.88211 21.6405 8.59344 22.8768L10.1755 25.619ZM24.3174 15.6339C24.0491 15.1696 24.196 14.5881 24.6699 14.3219C25.1438 14.0439 25.7232 14.2026 25.9916 14.6627C26.2578 15.1324 26.1108 15.716 25.6391 15.9864C25.1673 16.2644 24.5837 16.1036 24.3174 15.6339ZM21.2687 17.3948C20.9886 16.9326 21.1548 16.3511 21.6287 16.0849C22.0887 15.8069 22.6819 15.9635 22.9503 16.4277C23.2166 16.8974 23.0579 17.481 22.5957 17.7494C22.126 18.0252 21.5349 17.8687 21.2687 17.3948ZM18.2211 19.1577C17.9527 18.6977 18.1135 18.1045 18.5757 17.8361C19.0379 17.5602 19.6407 17.7264 19.9069 18.1865C20.1753 18.6508 20.007 19.244 19.5448 19.5102C19.0848 19.7882 18.4916 19.622 18.2211 19.1577ZM15.1702 20.9111C14.9019 20.4489 15.0723 19.8557 15.5344 19.5895C15.9966 19.3211 16.5856 19.4798 16.854 19.9516C17.1202 20.4159 16.9637 20.9974 16.5036 21.2732C16.0414 21.5416 15.4386 21.3829 15.1702 20.9111ZM12.1194 22.6762C11.8531 22.214 12.0172 21.6208 12.4815 21.3428C12.9437 21.0745 13.5348 21.2427 13.8031 21.7049C14.0694 22.1671 13.9128 22.7678 13.4506 23.0362C12.9884 23.3024 12.3877 23.1363 12.1194 22.6762ZM11.4099 25.8562L10.6503 24.5285L8.54422 25.7444C8.16758 25.9593 8.06446 26.4018 8.28149 26.7763C8.51563 27.1818 8.92719 27.3041 9.31343 27.07L11.4099 25.8562ZM9.78359 23.0263L9.02398 21.7124L6.9275 22.9188C6.55297 23.1316 6.44024 23.5933 6.65516 23.9603C6.87008 24.3252 7.31047 24.4455 7.6775 24.2327L9.78359 23.0263ZM6.18009 16.9117H12.1831L23.4167 10.4186H17.4158L6.18009 16.9117Z" fill="black"/>
</svg>
