<svg width="36" height="28" viewBox="0 0 36 28" fill="none" xmlns="http://www.w3.org/2000/svg">
<path d="M1.14421 26.1541C1.78124 26.1541 2.29592 25.6394 2.29592 25.0098V3.93389C2.29592 3.54623 2.54623 3.29592 2.91256 3.29592H32.2176C32.5861 3.29592 32.8364 3.54623 32.8364 3.93389V25.0098C32.8364 25.6394 33.3511 26.1541 33.9881 26.1541C34.6176 26.1541 35.1323 25.6394 35.1323 25.0098V3.72178C35.1323 2.07273 34.0521 1 32.3604 1H2.77194C1.08984 1 0 2.07273 0 3.72178V25.0098C0 25.6394 0.514684 26.1541 1.14421 26.1541Z" fill="black"/>
<path d="M4.07199 25.6553H31.0703C31.2728 25.6553 31.4423 25.4762 31.4423 25.2716V5.06427C31.4423 4.85005 31.2728 4.6806 31.0703 4.6806H4.07199C3.85988 4.6806 3.69043 4.85005 3.69043 5.06427V25.2716C3.69043 25.4762 3.85988 25.6553 4.07199 25.6553ZM5.79558 11.2241C5.52113 11.2241 5.32636 11.0315 5.32636 10.757V6.69926C5.32636 6.4227 5.52113 6.22044 5.79558 6.22044H9.86574C10.1402 6.22044 10.3446 6.4227 10.3446 6.69926V10.757C10.3446 11.0315 10.1402 11.2241 9.86574 11.2241H5.79558ZM12.3145 11.2241C12.04 11.2241 11.8356 11.0315 11.8356 10.757V6.69926C11.8356 6.4227 12.04 6.22044 12.3145 6.22044H16.375C16.6495 6.22044 16.8539 6.4227 16.8539 6.69926V10.757C16.8539 11.0315 16.6495 11.2241 16.375 11.2241H12.3145ZM18.8099 11.2241C18.5355 11.2241 18.3407 11.0315 18.3407 10.757V6.69926C18.3407 6.4227 18.5355 6.22044 18.8099 6.22044H22.8609C23.1257 6.22044 23.3301 6.4227 23.3301 6.69926V10.757C23.3301 11.0315 23.1257 11.2241 22.9378 11.2241H18.8099ZM25.2862 11.2241C25.0117 11.2241 24.817 11.0315 24.817 10.757V6.69926C24.817 6.4227 25.0117 6.22044 25.2862 6.22044H29.3371C29.6116 6.22044 29.8042 6.4227 29.8042 6.69926V10.757C29.8042 11.0315 29.6116 11.2241 29.414 11.2241H25.2862ZM15.0532 23.639C14.688 23.639 14.4241 23.3772 14.4241 23.0216C14.4241 22.6544 14.688 22.3926 15.0532 22.3926H20.0892C20.4447 22.3926 20.7086 22.6544 20.7086 23.0216C20.7086 23.3772 20.4447 23.639 20.0892 23.639H15.0532Z" fill="black"/>
</svg>
