<svg width="28" height="28" viewBox="0 0 28 28" fill="none" xmlns="http://www.w3.org/2000/svg">
<path d="M9.14022 15.1101H18.3725V12.8188C18.3725 10.5791 19.8945 8.93336 22.0393 8.93336H22.1766V6.71593C22.1766 5.08375 21.1088 4 19.5385 4H7.97632C6.3964 4 5.32648 5.08375 5.32648 6.71593V8.93336H5.45961C7.61397 8.93336 9.14022 10.5812 9.14022 12.8188V15.1101ZM2 19.7919C2 21.3665 3.04859 22.4193 4.58796 22.4193H22.9205C24.4524 22.4193 25.5127 21.3665 25.5127 19.7919V12.8188C25.5127 11.2539 24.4524 10.1894 22.9205 10.1894H22.3937C20.8618 10.1894 19.8057 11.2539 19.8057 12.8188V16.5433H7.69741V12.8188C7.69741 11.2539 6.64671 10.1894 5.10734 10.1894H4.58796C3.04859 10.1894 2 11.2539 2 12.8188V19.7919ZM6.20633 24.925H6.96148C7.60695 24.925 8.03187 24.5139 8.03187 23.8684V21.3187H5.14555V23.8684C5.14555 24.5139 5.56086 24.925 6.20633 24.925ZM20.469 24.925H21.2082C21.8916 24.925 22.3365 24.4801 22.3365 23.7988V21.1942H19.3332V23.7988C19.3332 24.4801 19.7834 24.925 20.469 24.925Z" fill="black"/>
</svg>
