<svg width="35" height="28" viewBox="0 0 35 28" fill="none" xmlns="http://www.w3.org/2000/svg">
<path d="M3.48562 25.2345H30.8932C33.0489 25.2345 34.3767 23.9281 34.3767 21.7894V17.798C34.3767 15.6615 33.0489 14.353 30.8932 14.353H3.48562C1.32773 14.353 0 15.6615 0 17.798V21.7894C0 23.9281 1.32773 25.2345 3.48562 25.2345ZM4.85272 20.2723C4.27077 20.2723 3.85593 19.8596 3.85593 19.2872C3.85593 18.7053 4.27077 18.2808 4.85272 18.2808H8.81929C9.39374 18.2808 9.81819 18.7053 9.81819 19.2872C9.81819 19.8596 9.39374 20.2723 8.81929 20.2723H4.85272ZM14.9934 21.4426C14.0819 21.4426 13.3291 20.6897 13.3291 19.7761C13.3291 18.8902 14.0819 18.1353 14.9934 18.1353C15.8911 18.1353 16.6439 18.8902 16.6439 19.7761C16.6439 20.6897 15.8911 21.4426 14.9934 21.4426ZM19.6376 21.4426C18.7261 21.4426 17.9754 20.6897 17.9754 19.7761C17.9754 18.8902 18.7261 18.1353 19.6376 18.1353C20.5373 18.1353 21.288 18.8902 21.288 19.7761C21.288 20.6897 20.5373 21.4426 19.6376 21.4426ZM24.2817 21.4426C23.3723 21.4426 22.6195 20.6897 22.6195 19.7761C22.6195 18.8902 23.3723 18.1353 24.2817 18.1353C25.1836 18.1353 25.9364 18.8902 25.9364 19.7761C25.9364 20.6897 25.1836 21.4426 24.2817 21.4426ZM28.9301 21.4426C28.0165 21.4426 27.2637 20.6897 27.2637 19.7858C27.2637 18.8902 28.0165 18.1353 28.9301 18.1353C29.8373 18.1353 30.5901 18.8902 30.5901 19.7858C30.5901 20.6897 29.8373 21.4426 28.9301 21.4426Z" fill="black"/>
<path d="M17.185 9.3739C15.9747 9.3739 14.7623 9.7393 13.9251 10.3646C13.5175 10.6498 13.4057 11.2032 13.675 11.6234C13.9975 12.0851 14.5593 12.1639 15.0697 11.833C15.6165 11.431 16.3928 11.206 17.185 11.206C18.006 11.206 18.7823 11.431 19.3098 11.833C19.8182 12.1735 20.3917 12.0948 20.7121 11.6234C20.9739 11.2032 20.86 10.6595 20.4641 10.3646C19.5864 9.7393 18.374 9.3739 17.185 9.3739Z" fill="black"/>
<path d="M17.1842 5.68484C15.2663 5.68484 13.3953 6.24853 11.9283 7.2704C11.5006 7.57696 11.3836 8.10898 11.6764 8.54515C11.9562 8.97054 12.5222 9.06733 13.0168 8.74812C14.1336 7.96788 15.6354 7.51695 17.1842 7.51695C18.7426 7.51695 20.2423 7.96788 21.3612 8.74812C21.8558 9.06733 22.4197 8.97054 22.6995 8.54515C22.9922 8.10898 22.8774 7.57696 22.4401 7.2704C21.0115 6.24853 19.1405 5.68484 17.1842 5.68484Z" fill="black"/>
<path d="M17.1843 2C14.5513 2 11.9844 2.77156 9.93159 4.16328C9.48792 4.47945 9.37097 5.02953 9.6487 5.45609C9.95105 5.89437 10.5095 5.97616 10.9743 5.66117C12.7101 4.48765 14.9195 3.81499 17.1843 3.81499C19.4758 3.81499 21.6681 4.47804 23.4039 5.66117C23.8687 5.97616 24.4251 5.89437 24.7178 5.45609C25.0148 5.01992 24.8999 4.46985 24.4445 4.16328C22.3745 2.77156 19.8173 2 17.1843 2Z" fill="black"/>
</svg>
