<svg width="28" height="28" viewBox="0 0 28 28" fill="none" xmlns="http://www.w3.org/2000/svg">
<path d="M6.84421 24.8972H21.0295C23.5685 24.8972 24.8737 23.5919 24.8737 21.0914V6.82921C24.8737 4.32656 23.5685 3.02344 21.0295 3.02344H6.84421C4.31484 3.02344 3 4.31695 3 6.82921V21.0914C3 23.6016 4.31484 24.8972 6.84421 24.8972ZM6.97733 22.6013C5.88772 22.6013 5.29592 22.0371 5.29592 20.8985V7.01999C5.29592 5.88139 5.88772 5.31936 6.97733 5.31936H20.8964C21.9764 5.31936 22.5778 5.88139 22.5778 7.01999V20.8985C22.5778 22.0371 21.9764 22.6013 20.8964 22.6013H6.97733Z" fill="black"/>
<path d="M10.3291 19.2193H17.5446C17.9077 19.2193 18.2569 19.1075 18.5072 18.8551C19.7637 17.6764 20.6374 15.8565 20.6374 13.9545C20.6374 12.0525 19.7637 10.2326 18.5072 9.06356C18.2569 8.81113 17.9077 8.69934 17.5446 8.69934H10.3291C9.96609 8.69934 9.63281 8.80152 9.3825 9.0284C8.12391 10.2113 7.23633 12.0408 7.23633 13.9545C7.23633 15.8565 8.11008 17.6764 9.36656 18.8551C9.61688 19.1075 9.96609 19.2193 10.3291 19.2193ZM11.1319 16.6513C10.7517 16.6513 10.444 16.3456 10.444 15.9559V11.9415C10.444 11.5517 10.7517 11.2578 11.1319 11.2578C11.5195 11.2578 11.8252 11.5517 11.8252 11.9415V15.9559C11.8252 16.3456 11.5195 16.6513 11.1319 16.6513ZM16.7419 16.6513C16.3542 16.6513 16.0582 16.3478 16.0582 15.958V11.9415C16.0582 11.5538 16.3542 11.2578 16.7419 11.2578C17.1316 11.2578 17.4298 11.5538 17.4298 11.9415V15.958C17.4298 16.3478 17.1316 16.6513 16.7419 16.6513Z" fill="black"/>
</svg>
