<svg width="29" height="28" viewBox="0 0 29 28" fill="none" xmlns="http://www.w3.org/2000/svg">
<path d="M1.18722 9.50273C-0.0362133 10.2066 -0.331292 11.3423 0.382145 12.5712L2.1055 15.5536C2.60495 16.4172 3.32472 16.7545 4.16706 16.7545H12.6325L7.75205 19.5764C6.54034 20.2823 6.24643 21.4064 6.93854 22.6256L8.65768 25.6176C9.37111 26.8486 10.4867 27.1507 11.7102 26.4468L27.2 17.5186C28.4159 16.8147 28.7131 15.6715 28.0051 14.448L26.2742 11.4677C25.7919 10.6329 25.0934 10.2689 24.2607 10.2689H15.7356L20.6256 7.4428C21.8469 6.73897 22.1333 5.6053 21.4412 4.3957L19.7199 1.40367C19.0065 0.165232 17.893 -0.138985 16.6771 0.574451L1.18722 9.50273ZM2.21682 10.9179L17.3933 2.16163C17.7442 1.95046 18.0767 2.05171 18.3017 2.43772L19.8582 5.10538C20.0736 5.47218 19.9787 5.82398 19.6065 6.03726L4.44503 14.7839C4.08034 14.9951 3.72854 14.898 3.51315 14.5216L1.9801 11.8711C1.76471 11.4851 1.84253 11.1312 2.21682 10.9179ZM7.55236 15.0108L12.7236 12.0084H20.8103L15.6486 15.0108H7.55236ZM8.77533 20.9819L23.9326 12.2278C24.2973 12.0145 24.6491 12.1115 24.8645 12.4901L26.3954 15.1481C26.6108 15.5362 26.5351 15.8901 26.1629 16.1034L10.996 24.848C10.6335 25.0612 10.3009 24.9579 10.0759 24.5815L8.53111 21.9042C8.30611 21.5374 8.40103 21.1973 8.77533 20.9819ZM18.5567 1.30359L19.3227 2.63553L21.4192 1.4196C21.7904 1.20046 21.9245 0.746245 21.6978 0.381325C21.4904 0.0100772 21.0287 -0.108047 20.6596 0.106873L18.5567 1.30359ZM20.1789 4.11116L20.9523 5.44311L23.0295 4.23679C23.4392 4.00804 23.552 3.59226 23.3061 3.18468C23.1008 2.80054 22.6487 2.68992 22.2699 2.90484L20.1789 4.11116ZM15.9732 5.54835C16.216 5.99999 16.7795 6.14483 17.2236 5.90202C17.6774 5.63788 17.8243 5.07655 17.5719 4.6228C17.3056 4.17866 16.756 4.03171 16.3098 4.27663C15.8582 4.55788 15.7208 5.1021 15.9732 5.54835ZM13.0489 7.23796C13.2917 7.6821 13.8456 7.83233 14.2876 7.58952C14.7531 7.32749 14.9171 6.75655 14.6359 6.33374C14.3952 5.86827 13.8221 5.73515 13.3759 5.98757C12.9221 6.2496 12.7869 6.79382 13.0489 7.23796ZM10.1033 8.94889C10.3653 9.38132 10.9405 9.51655 11.375 9.28335C11.8096 9.0096 11.964 8.44827 11.7116 8.02335C11.4496 7.5696 10.8765 7.41304 10.4612 7.66968C10.0074 7.94132 9.84128 8.49515 10.1033 8.94889ZM7.17362 10.6385C7.43565 11.073 7.99909 11.2158 8.45073 10.973C8.89698 10.7109 9.05143 10.1358 8.76807 9.71507C8.54448 9.25921 7.97354 9.10686 7.51768 9.36679C7.07565 9.6096 6.91698 10.1923 7.17362 10.6385ZM4.24932 12.3281C4.50175 12.7744 5.05557 12.9054 5.52643 12.6668C5.95346 12.4005 6.09409 11.8392 5.85338 11.4068C5.58924 10.953 5.03964 10.8061 4.5955 11.051C4.13214 11.3034 3.99479 11.884 4.24932 12.3281ZM9.82087 25.7156L9.05494 24.374L6.96057 25.5996C6.58932 25.8187 6.45315 26.2633 6.67979 26.6421C6.88932 27.0016 7.35104 27.1197 7.71806 26.9123L9.82087 25.7156ZM8.21048 22.908L7.42533 21.5761L5.34807 22.7749C4.93839 23.0112 4.82354 23.4269 5.07151 23.8345C5.27893 24.2111 5.72893 24.3314 6.10768 24.1144L8.21048 22.908ZM22.5263 15.6145C22.7884 16.0683 23.3422 16.2152 23.7863 15.9628C24.2497 15.7104 24.3849 15.1352 24.1325 14.6911C23.878 14.2469 23.322 14.1021 22.8512 14.3545C22.4263 14.6187 22.2835 15.18 22.5263 15.6145ZM19.6192 17.3062C19.8427 17.7621 20.4062 17.9165 20.8717 17.6503C21.3041 17.4117 21.4606 16.8269 21.2082 16.3807C20.9462 15.9483 20.3785 15.7959 19.9365 16.0483C19.4827 16.3104 19.3283 16.8834 19.6192 17.3062ZM16.666 18.9958C16.9281 19.4496 17.5032 19.5965 17.9164 19.3441C18.3702 19.0821 18.5385 18.5262 18.2743 18.0703C18.0219 17.6379 17.4392 17.493 17.0026 17.7358C16.566 18.0117 16.4136 18.573 16.666 18.9958ZM13.7396 20.678C13.9824 21.153 14.5672 21.2883 15.0017 21.0337C15.4555 20.7717 15.5928 20.2275 15.3287 19.7833C15.0859 19.3296 14.532 19.1869 14.0879 19.4297C13.632 19.6917 13.4605 20.2551 13.7396 20.678ZM10.8078 22.3985C11.0699 22.833 11.6333 22.9896 12.0699 22.7468C12.5195 22.4634 12.661 21.9075 12.4044 21.4612C12.1616 21.0213 11.5981 20.8765 11.154 21.1193C10.7077 21.3834 10.5554 21.9447 10.8078 22.3985Z" fill="black"/>
</svg>
