<svg width="28" height="28" viewBox="0 0 28 28" fill="none" xmlns="http://www.w3.org/2000/svg">
<path d="M11.8089 13.9172H16.4275C17.2537 13.9172 17.8424 13.3285 17.8424 12.5044V11.6272C17.8424 10.2814 16.8808 9.35492 15.4605 9.35492H12.7781C11.3674 9.35492 10.4057 10.2814 10.4057 11.6272V12.5044C10.4057 13.3285 10.9945 13.9172 11.8089 13.9172ZM12.3775 16.1933H15.8706V13.0086H12.3775V16.1933ZM11.8649 19.7562H16.3811C17.2347 19.7562 17.8424 19.1611 17.8424 18.3085V16.4907C17.8424 15.6498 17.2347 15.0643 16.3811 15.0643H11.8649C11.0114 15.0643 10.4057 15.6498 10.4057 16.4907V18.3085C10.4057 19.1611 11.0114 19.7562 11.8649 19.7562ZM12.3775 24.7986H15.8706V19.0128H12.3775V24.7986ZM4.44441 25.9252H23.8037C24.3815 25.9252 24.872 25.4422 24.872 24.8644C24.872 24.2654 24.3772 23.7962 23.8037 23.7962H4.44441C3.86668 23.7962 3.37402 24.2675 3.37402 24.8644C3.37402 25.4422 3.86879 25.9252 4.44441 25.9252Z" fill="black"/>
<path d="M8.84485 12.2075C8.84485 11.4727 8.25493 10.8849 7.53188 10.8849C6.81633 10.8849 6.22852 11.4748 6.22852 12.2075C6.22852 12.9134 6.81633 13.4991 7.53188 13.4991C8.25282 13.4991 8.84485 12.9134 8.84485 12.2075ZM10.0769 8.47342C10.5923 7.95803 10.5827 7.12319 10.0769 6.61741C9.58078 6.11374 8.75227 6.10835 8.23477 6.62702C7.72899 7.12319 7.72899 7.95803 8.23477 8.45631C8.75227 8.97709 9.58078 8.9867 10.0769 8.47342ZM14.1242 7.84225C14.8355 7.84225 15.4158 7.24694 15.4158 6.52928C15.4158 5.81584 14.8376 5.21631 14.1242 5.21631C13.3873 5.21631 12.8112 5.81795 12.8112 6.52928C12.8112 7.24694 13.3873 7.84225 14.1242 7.84225ZM18.1692 8.47342C18.6654 8.9867 19.4939 8.97709 20.0114 8.45631C20.5172 7.95803 20.5172 7.12319 20.0114 6.62702C19.4939 6.10835 18.6654 6.11374 18.1692 6.61741C17.6538 7.12319 17.6442 7.95803 18.1692 8.47342ZM19.4013 12.2075C19.4013 12.9134 19.9934 13.4991 20.7143 13.4991C21.432 13.4991 22.0177 12.9134 22.0177 12.2075C22.0177 11.4748 21.432 10.8849 20.7143 10.8849C19.9913 10.8849 19.4013 11.4727 19.4013 12.2075Z" fill="black"/>
<path d="M5.04328 12.2075C5.04328 11.6239 4.57687 11.1821 4.0275 11.1821C3.45891 11.1821 3 11.6314 3 12.2075C3 12.7665 3.45891 13.2158 4.0275 13.2158C4.57687 13.2158 5.04328 12.774 5.04328 12.2075ZM7.36195 5.75468C7.77937 5.35109 7.76976 4.70375 7.37156 4.31727C6.97757 3.91156 6.33234 3.91367 5.92453 4.31516C5.52843 4.71336 5.52843 5.35109 5.93414 5.74718C6.32273 6.14117 6.96796 6.1625 7.36195 5.75468ZM14.1237 4.04117C14.6922 4.04117 15.1277 3.57265 15.1277 3.01578C15.1277 2.44719 14.6826 2 14.1237 2C13.5572 2 13.094 2.44719 13.094 3.01578C13.094 3.57687 13.5433 4.04117 14.1237 4.04117ZM20.8833 5.75468C21.2794 6.1625 21.9225 6.14117 22.3111 5.74718C22.7189 5.35109 22.7189 4.71336 22.3207 4.31516C21.9129 3.91367 21.2676 3.91156 20.8736 4.31727C20.4754 4.70375 20.4658 5.35109 20.8833 5.75468ZM23.2019 12.2075C23.2019 12.774 23.6683 13.2158 24.2177 13.2158C24.7863 13.2158 25.2452 12.7665 25.2452 12.2075C25.2452 11.6314 24.7863 11.1821 24.2177 11.1821C23.6683 11.1821 23.2019 11.6239 23.2019 12.2075Z" fill="black"/>
</svg>
