<svg width="28" height="28" viewBox="0 0 28 28" fill="none" xmlns="http://www.w3.org/2000/svg">
<path d="M6.84421 24.8972H21.7931C24.3225 24.8972 25.6373 23.5919 25.6373 21.0914V6.82921C25.6373 4.32656 24.3225 3.02344 21.7931 3.02344H6.84421C4.31484 3.02344 3 4.31695 3 6.82921V21.0914C3 23.6016 4.31484 24.8972 6.84421 24.8972Z" fill="black"/>
<path d="M13.8347 20.0212C13.3697 20.0212 13.058 19.7095 13.058 19.2403V15.7615C13.058 15.2986 13.3814 14.9752 13.8347 14.9752H14.7968C15.2597 14.9752 15.5778 15.2986 15.5778 15.7615V19.2403C15.5778 19.7191 15.2639 20.0212 14.7968 20.0212H13.8347ZM8.10095 12.8592C7.77752 12.522 7.77963 12.0825 8.11056 11.7474L10.8579 9.00964C11.1964 8.67448 11.6271 8.6787 11.9581 9.00213L12.641 9.69049C12.972 10.0256 12.9741 10.4639 12.6431 10.8024L9.89368 13.538C9.55853 13.8731 9.11697 13.8752 8.79353 13.538L8.10095 12.8592ZM19.8434 13.538C19.5103 13.8752 19.0784 13.8731 18.7432 13.538L15.9938 10.8024C15.6628 10.4639 15.665 10.0256 15.9959 9.69049L16.6789 9.00213C17.0098 8.6787 17.4502 8.67448 17.779 9.00964L20.5167 11.7474C20.8573 12.0921 20.8594 12.522 20.536 12.8496L19.8434 13.538Z" fill="white"/>
</svg>
