<svg width="28" height="28" viewBox="0 0 28 28" fill="none" xmlns="http://www.w3.org/2000/svg">
<path d="M2 6.96116H22.9796V3.86647C22.9796 2.09156 21.8054 0.884293 20.0848 0.884293H4.90226C3.17 0.884293 2 2.09156 2 3.86647V6.96116ZM6.49108 5.61608C5.85874 5.61608 5.33609 5.08382 5.33609 4.45898C5.33609 3.81703 5.85874 3.29437 6.49108 3.29437C7.12343 3.29437 7.63436 3.81703 7.63436 4.45898C7.63436 5.08382 7.12343 5.61608 6.49108 5.61608ZM9.75873 5.61608C9.12428 5.61608 8.61335 5.08382 8.61335 4.45898C8.61335 3.81703 9.12428 3.29437 9.75873 3.29437C10.3932 3.29437 10.902 3.81703 10.902 4.45898C10.902 5.08382 10.3932 5.61608 9.75873 5.61608ZM2 21.1894H8.54467C8.53928 21.0283 8.53178 20.8887 8.53389 20.7276C8.64568 16.6228 11.9968 13.3519 16.1471 13.3519C16.5528 13.3519 16.9648 13.3795 17.3492 13.4423C17.8168 13.3795 18.3195 13.3519 18.8447 13.3519C20.3726 13.3519 21.7918 13.8037 22.9796 14.5711V8.6899H2V21.1894ZM9.64155 11.7161C9.23186 11.7161 8.94358 11.4225 8.94358 11.0128C8.94358 10.6052 9.23186 10.3169 9.64155 10.3169H15.3476C15.7573 10.3169 16.036 10.6052 16.036 11.0128C16.036 11.4225 15.7573 11.7161 15.3476 11.7161H9.64155ZM4.90226 26.1518H10.5312C9.69663 25.2555 9.08116 24.1486 8.7678 22.9181H2V23.1792C2 24.9541 3.17 26.1518 4.90226 26.1518Z" fill="black"/>
<path d="M16.1472 27.2207C19.5979 27.2207 22.3776 24.4411 22.3776 20.9765C22.3776 17.5162 19.5979 14.7365 16.1472 14.7365C12.6848 14.7365 9.89551 17.5162 9.89551 20.9765C9.89551 24.4411 12.6848 27.2207 16.1472 27.2207ZM16.1472 25.7576C13.3956 25.7576 11.3545 23.7206 11.3545 20.9765C11.3545 18.2346 13.3956 16.1976 16.1472 16.1976C18.8774 16.1976 20.9186 18.2346 20.9186 20.9765C20.9186 23.7206 18.8774 25.7576 16.1472 25.7576ZM16.1472 24.5503C18.104 24.5503 19.7092 22.9451 19.7092 20.9765C19.7092 19.0122 18.104 17.4166 16.1472 17.4166C14.1691 17.4166 12.5734 19.0122 12.5734 20.9765C12.5734 22.9451 14.1691 24.5503 16.1472 24.5503ZM16.1472 23.3742C14.7395 23.3742 13.7495 22.3746 13.7495 20.9765C13.7495 19.5806 14.7395 18.5927 16.1472 18.5927C17.5431 18.5927 18.5331 19.5806 18.5331 20.9765C18.5331 22.3842 17.5335 23.3742 16.1472 23.3742ZM18.8448 27.2207C22.2934 27.2207 25.0827 24.4411 25.0827 20.9765C25.0827 17.5162 22.2934 14.7365 18.8448 14.7365C18.0508 14.7365 17.2898 14.8865 16.6084 15.1706L18.2666 16.2328C18.4626 16.2094 18.6468 16.1976 18.8448 16.1976C21.5826 16.1976 23.6237 18.2346 23.6237 20.9765C23.6237 23.7206 21.5826 25.7576 18.8448 25.7576C18.6426 25.7576 18.4466 25.7458 18.2402 25.732L17.0598 26.9559C17.6294 27.1336 18.2254 27.2207 18.8448 27.2207Z" fill="black"/>
</svg>
