<svg width="34" height="28" viewBox="0 0 34 28" fill="none" xmlns="http://www.w3.org/2000/svg">
<path d="M16.8101 24.5422C26.7881 24.5422 33.6403 19.9312 33.6403 14.2759C33.6403 8.6207 26.7881 4 16.8101 4C6.84046 4 0 8.6207 0 14.2759C0 19.9312 6.84046 24.5422 16.8101 24.5422ZM16.8101 21.0151C10.2888 21.0151 5.53499 18.2563 5.53499 14.5691C5.53499 10.9075 10.2984 8.14866 16.8101 8.14866C23.3376 8.14866 28.1149 10.9075 28.1149 14.5691C28.1149 18.2467 23.328 21.0151 16.8101 21.0151ZM16.8101 19.2395C22.1974 19.2395 26.314 17.1051 26.314 14.5691C26.314 13.5541 25.6519 12.6062 24.5058 11.844C23.148 13.8894 20.1888 15.2924 16.778 15.2924C13.3767 15.2924 10.4442 13.9087 9.07686 11.8846C7.97131 12.6447 7.33803 13.5637 7.33803 14.5691C7.33803 17.1051 11.4098 19.2395 16.8101 19.2395Z" fill="black"/>
</svg>
