<svg width="29" height="28" viewBox="0 0 29 28" fill="none" xmlns="http://www.w3.org/2000/svg">
<path d="M2.54578 15.9335H4.08351C5.74054 15.9335 6.61967 15.0778 6.61967 13.458V5.47756C6.61967 3.8578 5.74054 3.00421 4.08351 3.00421H2.54578C0.881247 3.00421 0 3.8578 0 5.47756V13.458C0 15.0778 0.881247 15.9335 2.54578 15.9335ZM2.60273 13.9087C2.22093 13.9087 2.02476 13.7105 2.02476 13.3169V5.62076C2.02476 5.22725 2.22093 5.02896 2.60273 5.02896H4.02867C4.40085 5.02896 4.59703 5.22725 4.59703 5.62076V13.3169C4.59703 13.7105 4.40085 13.9087 4.02867 13.9087H2.60273ZM24.848 15.9335H26.3761C28.0523 15.9335 28.9218 15.0778 28.9218 13.458V5.47756C28.9218 3.8578 28.0523 3.00421 26.3761 3.00421H24.848C23.1855 3.00421 22.3043 3.8578 22.3043 5.47756V13.458C22.3043 15.0778 23.1855 15.9335 24.848 15.9335ZM24.9049 13.9087C24.5252 13.9087 24.329 13.7105 24.329 13.3169V5.62076C24.329 5.22725 24.5252 5.02896 24.9049 5.02896H26.3233C26.703 5.02896 26.8992 5.22725 26.8992 5.62076V13.3169C26.8992 13.7105 26.703 13.9087 26.3233 13.9087H24.9049ZM5.5289 7.74959H23.4026V5.80663H5.5289V7.74959ZM5.5289 13.0734H10.4876L11.5219 11.1283H5.5289V13.0734ZM23.4026 13.0734V11.1283H17.415L18.4631 13.0734H23.4026Z" fill="black"/>
<path d="M14.4706 25.859C17.4308 25.859 19.7848 23.5519 19.7848 20.662C19.7848 19.0823 18.9934 17.5228 18.3413 16.3062L15.7088 11.4065C15.3957 10.8293 15.0179 10.5567 14.4706 10.5567C13.9234 10.5567 13.5456 10.8314 13.2345 11.3969L10.6138 16.3062C9.9575 17.5228 9.16602 19.0823 9.16602 20.662C9.16602 23.5519 11.5243 25.859 14.4706 25.859ZM14.4706 23.9777C12.5682 23.9777 11.0495 22.5155 11.0495 20.662C11.0495 19.5122 11.6302 18.4092 12.2844 17.183L14.3534 13.3209C14.4216 13.2037 14.5409 13.2037 14.6091 13.3209L16.6665 17.183C17.311 18.4092 17.9035 19.5122 17.9035 20.662C17.9035 22.5155 16.3869 23.9777 14.4706 23.9777Z" fill="black"/>
</svg>
