<svg width="28" height="28" viewBox="0 0 28 28" fill="none" xmlns="http://www.w3.org/2000/svg">
<path d="M4.61471 13.4432L5.18636 9.4745H13.3558L13.3239 13.8419H4.9569C4.73729 13.8419 4.56995 13.6649 4.61471 13.4432ZM5.46925 7.596L6.043 3.64442C6.07815 3.43231 6.1869 3.2959 6.3894 3.2959H13.4354L13.3844 7.596H5.46925ZM15.4565 3.2959H22.5292C22.7317 3.2959 22.8426 3.43231 22.8756 3.64442L23.4472 7.596H15.4979L15.4565 3.2959ZM15.5244 9.4745H23.7205L24.3039 13.4432C24.3369 13.6649 24.1813 13.8419 23.9521 13.8419H15.5659L15.5244 9.4745Z" fill="white"/>
<path d="M3.93897 16.1378H24.9805C26.2491 16.1378 26.9642 15.2416 26.7568 13.8161L25.1719 3.08921C24.9825 1.8414 24.2867 1 23.0079 1H5.91358C4.63273 1 3.93687 1.83929 3.7475 3.08921L2.16054 13.8161C1.94562 15.2416 2.6682 16.1378 3.93897 16.1378ZM4.61513 13.4432L5.18678 9.47452H13.3562L13.3243 13.8419H4.95732C4.73771 13.8419 4.57037 13.6649 4.61513 13.4432ZM5.46967 7.59602L6.04342 3.64444C6.07857 3.43233 6.18732 3.29592 6.38982 3.29592H13.4358L13.3848 7.59602H5.46967ZM15.4569 3.29592H22.5296C22.7321 3.29592 22.843 3.43233 22.876 3.64444L23.4476 7.59602H15.4983L15.4569 3.29592ZM15.5248 9.47452H23.7209L24.3043 13.4432C24.3373 13.6649 24.1817 13.8419 23.9525 13.8419H15.5663L15.5248 9.47452ZM3.71163 15.0355V24.981H6.00756V15.0355H3.71163ZM22.7581 15.0355V24.981H25.054V15.0355H22.7581ZM2 24.981C2 25.6201 2.52429 26.1541 3.17304 26.1541H25.6193C26.2681 26.1541 26.7903 25.6201 26.7903 24.981C26.7903 24.3323 26.2681 23.8101 25.6193 23.8101H3.17304C2.52429 23.8101 2 24.3323 2 24.981Z" fill="black"/>
</svg>
