<svg width="28" height="28" viewBox="0 0 28 28" fill="none" xmlns="http://www.w3.org/2000/svg">
<path d="M10.2169 24.3247H17.7361C18.1608 24.3247 18.4854 23.9841 18.4854 23.57C18.4854 23.1613 18.1608 22.8228 17.7361 22.8228H10.2169C9.79223 22.8228 9.45801 23.1613 9.45801 23.57C9.45801 23.9841 9.79223 24.3247 10.2169 24.3247ZM13.9728 27.8054C15.8271 27.8054 17.3219 26.9042 17.4455 25.5418H10.497C10.5896 26.9042 12.1067 27.8054 13.9728 27.8054Z" fill="black"/>
<path d="M9.35281 20.7159C9.37625 21.2644 9.73531 21.6077 10.303 21.6077H17.6431C18.2204 21.6077 18.5677 21.2644 18.6029 20.7159C18.8642 15.9335 20.1275 13.6697 21.0045 11.5601H6.95117C7.82609 13.6697 9.07977 15.9335 9.35281 20.7159Z" fill="black"/>
<path d="M21.9476 7.35585C21.9476 3.20953 18.4083 0 13.9727 0C9.53718 0 6 3.20742 6 7.35374C6 8.24601 6.11836 9.00492 6.31781 9.71906H21.6394C21.8292 9.00492 21.9476 8.24812 21.9476 7.35585Z" fill="black"/>
</svg>
