<svg width="28" height="28" viewBox="0 0 28 28" fill="none" xmlns="http://www.w3.org/2000/svg">
<path d="M6.84421 24.8972H21.0295C23.5685 24.8972 24.8737 23.5919 24.8737 21.0914V6.82921C24.8737 4.32656 23.5685 3.02344 21.0295 3.02344H6.84421C4.31484 3.02344 3 4.31695 3 6.82921V21.0914C3 23.6016 4.31484 24.8972 6.84421 24.8972Z" fill="black"/>
<path d="M6.92773 15.0804V12.8189C6.92773 12.3239 7.27367 11.9876 7.76656 11.9876H8.23906V11.4692C8.23906 9.35064 10.9766 7.40674 13.9409 7.40674C16.8978 7.40674 19.6353 9.35064 19.6353 11.4692V11.9876H20.1078C20.6007 11.9876 20.9466 12.3239 20.9466 12.8189V15.0804C20.9466 15.5754 20.6007 15.9117 20.1078 15.9117H19.6353V16.4205C19.6353 18.5487 16.8978 20.4926 13.9409 20.4926C10.9766 20.4926 8.23906 18.5487 8.23906 16.4205V15.9117H7.76656C7.27367 15.9117 6.92773 15.5754 6.92773 15.0804ZM10.8702 15.3649C11.6574 15.3649 12.2902 14.7321 12.2902 13.9448C12.2902 13.1672 11.6574 12.5344 10.8702 12.5344C10.0967 12.5344 9.45429 13.1651 9.45429 13.9448C9.45429 14.7342 10.0967 15.3649 10.8702 15.3649ZM17.0042 15.3649C17.7776 15.3649 18.4222 14.7342 18.4222 13.9448C18.4222 13.1651 17.7776 12.5344 17.0042 12.5344C16.2265 12.5344 15.5841 13.1672 15.5841 13.9448C15.5841 14.7321 16.2265 15.3649 17.0042 15.3649Z" fill="white"/>
</svg>
