<svg width="28" height="28" viewBox="0 0 28 28" fill="none" xmlns="http://www.w3.org/2000/svg">
<path d="M10.7866 27.0048H17.0228C19.4966 27.0048 20.8115 25.6996 20.8115 23.2567V4.75773C20.8115 2.31484 19.4966 1 17.0228 1H10.7866C8.32445 1 7 2.31484 7 4.75773V23.2567C7 25.6996 8.32445 27.0048 10.7866 27.0048Z" fill="black"/>
<path d="M13.916 9.34748C12.8787 9.34748 12.0352 8.51357 12.0352 7.46662C12.0352 6.45061 12.8787 5.6167 13.916 5.6167C14.9416 5.6167 15.7852 6.45061 15.7852 7.46662C15.7852 8.51357 14.9416 9.34748 13.916 9.34748ZM13.916 15.8737C12.8787 15.8737 12.0352 15.0398 12.0352 14.0024C12.0352 12.9747 12.8787 12.1312 13.916 12.1312C14.9416 12.1312 15.7852 12.9747 15.7852 14.0024C15.7852 15.0398 14.9416 15.8737 13.916 15.8737ZM13.916 22.3998C12.8787 22.3998 12.0352 21.5563 12.0352 20.5286C12.0352 19.5009 12.8787 18.6669 13.916 18.6669C14.9416 18.6669 15.7852 19.5009 15.7852 20.5286C15.7852 21.5563 14.9416 22.3998 13.916 22.3998Z" fill="white"/>
</svg>
