<svg width="28" height="28" viewBox="0 0 28 28" fill="none" xmlns="http://www.w3.org/2000/svg">
<path d="M6.84421 24.8972H21.0295C23.5685 24.8972 24.8737 23.5919 24.8737 21.0914V6.82921C24.8737 4.32656 23.5685 3.02344 21.0295 3.02344H6.84421C4.31484 3.02344 3 4.31695 3 6.82921V21.0914C3 23.6016 4.31484 24.8972 6.84421 24.8972Z" fill="black"/>
<path d="M9.27717 19.7116C8.5239 19.7116 7.98438 19.1721 7.98438 18.4188V9.46663C7.98438 8.71335 8.5239 8.17383 9.27717 8.17383H18.5969C19.3502 8.17383 19.8897 8.71335 19.8897 9.46663V18.4188C19.8897 19.1721 19.3502 19.7116 18.5969 19.7116H9.27717ZM13.9525 13.1646C14.6374 13.1646 15.205 12.6066 15.205 11.9079C15.205 11.2134 14.6374 10.6554 13.9525 10.6554C13.2496 10.6554 12.6841 11.2092 12.6841 11.9079C12.6841 12.6066 13.2496 13.1646 13.9525 13.1646ZM11.3167 17.2301C12.0133 17.2301 12.5788 16.672 12.5788 15.9734C12.5788 15.2768 12.0133 14.7112 11.3167 14.7112C10.6255 14.7112 10.06 15.2747 10.06 15.9734C10.06 16.672 10.6255 17.2301 11.3167 17.2301ZM16.5787 17.2301C17.2774 17.2301 17.8375 16.672 17.8375 15.9734C17.8375 15.2768 17.2774 14.7112 16.5787 14.7112C15.88 14.7112 15.3145 15.2768 15.3145 15.9734C15.3145 16.672 15.88 17.2301 16.5787 17.2301Z" fill="white"/>
</svg>
