<svg width="28" height="28" viewBox="0 0 28 28" fill="none" xmlns="http://www.w3.org/2000/svg">
<path d="M6.84421 24.8972H21.0295C23.5685 24.8972 24.8737 23.5919 24.8737 21.0914V6.82921C24.8737 4.32656 23.5685 3.02344 21.0295 3.02344H6.84421C4.31484 3.02344 3 4.31695 3 6.82921V21.0914C3 23.6016 4.31484 24.8972 6.84421 24.8972ZM6.97733 22.6013C5.88772 22.6013 5.29592 22.0371 5.29592 20.8985V7.01999C5.29592 5.88139 5.88772 5.31936 6.97733 5.31936H20.8964C21.9764 5.31936 22.5778 5.88139 22.5778 7.01999V20.8985C22.5778 22.0371 21.9764 22.6013 20.8964 22.6013H6.97733Z" fill="black"/>
<path d="M9.54675 19.3481H18.3278C19.0176 19.3481 19.5201 18.8477 19.5201 18.1559V9.72962C19.5201 9.03774 19.0176 8.53735 18.3278 8.53735H9.54675C8.85699 8.53735 8.35449 9.03774 8.35449 9.72962V18.1559C8.35449 18.8477 8.85699 19.3481 9.54675 19.3481ZM13.9527 12.8782C13.2923 12.8782 12.7511 12.3467 12.7511 11.6745C12.7511 11.0215 13.2902 10.492 13.9527 10.492C14.6036 10.492 15.1427 11.0215 15.1427 11.6745C15.1427 12.3467 14.6015 12.8782 13.9527 12.8782ZM11.475 17.3913C10.8304 17.3913 10.2956 16.8682 10.2956 16.2162C10.2956 15.5641 10.8304 15.041 11.475 15.041C12.1249 15.041 12.6597 15.5662 12.6597 16.2162C12.6597 16.8682 12.1249 17.3913 11.475 17.3913ZM16.4209 17.3913C15.7689 17.3913 15.2362 16.8682 15.2362 16.2162C15.2362 15.5662 15.7689 15.041 16.4209 15.041C17.073 15.041 17.6003 15.5662 17.6003 16.2162C17.6003 16.8682 17.073 17.3913 16.4209 17.3913Z" fill="black"/>
</svg>
