<svg width="28" height="28" viewBox="0 0 28 28" fill="none" xmlns="http://www.w3.org/2000/svg">
<path d="M14.105 26.21C20.7369 26.21 26.2121 20.7273 26.2121 14.105C26.2121 7.47312 20.7273 2 14.0954 2C7.47523 2 2 7.47312 2 14.105C2 20.7273 7.48484 26.21 14.105 26.21ZM14.105 23.8255C8.71085 23.8255 4.39412 19.4991 4.39412 14.105C4.39412 8.71085 8.70124 4.38452 14.0954 4.38452C19.4895 4.38452 23.8276 8.71085 23.8276 14.105C23.8276 19.4991 19.4991 23.8255 14.105 23.8255Z" fill="black"/>
<path d="M10.0908 10.7668C10.0908 13.0081 11.5702 13.6266 11.7868 17.4755C11.8102 17.7563 11.9771 17.9202 12.2344 17.9202H15.9366C16.2152 17.9202 16.3938 17.7563 16.4056 17.4755C16.6146 13.6266 18.1036 13.0604 18.1036 10.8148C18.1036 8.73074 16.3221 7.11426 14.0855 7.11426C11.8627 7.11426 10.0908 8.67848 10.0908 10.7668ZM12.3307 19.4766H15.8616C16.1215 19.4766 16.342 19.2561 16.342 19.0004C16.342 18.7489 16.1215 18.5337 15.8616 18.5337H12.3307C12.0729 18.5337 11.862 18.7489 11.862 19.0004C11.862 19.2561 12.0729 19.4766 12.3307 19.4766ZM14.0972 21.0713C14.9452 21.0713 15.562 20.6825 15.6323 20.0827H12.5599C12.6185 20.6825 13.2534 21.0713 14.0972 21.0713Z" fill="black"/>
</svg>
