<svg width="28" height="28" viewBox="0 0 28 28" fill="none" xmlns="http://www.w3.org/2000/svg">
<path d="M5.90226 26.3556H14.6203C14.6587 25.7324 15.0291 25.4575 15.0387 24.9901C15.0483 24.7647 14.944 24.5137 14.6946 24.1335H6.06444C5.56967 24.1335 5.22421 23.788 5.22421 23.2837V4.16008C5.22421 3.64398 5.56967 3.31023 6.06444 3.31023H20.913C21.4195 3.31023 21.7533 3.64398 21.7533 4.16008V15.3144C22.3823 14.7667 23.2308 14.6383 23.9796 14.9059V4.07032C23.9796 2.28579 22.8075 1.08814 21.0869 1.08814H5.90226C4.17 1.08814 3 2.28579 3 4.07032V23.3734C3 25.158 4.17 26.3556 5.90226 26.3556ZM7.80819 6.54577C8.42037 6.54577 8.91326 6.04328 8.91326 5.4407C8.91326 4.82851 8.42037 4.33562 7.80819 4.33562C7.20561 4.33562 6.70311 4.82851 6.70311 5.4407C6.70311 6.04328 7.20561 6.54577 7.80819 6.54577ZM10.9441 6.54577C11.5584 6.54577 12.0513 6.04328 12.0513 5.4407C12.0513 4.82851 11.5584 4.33562 10.9441 4.33562C10.3415 4.33562 9.84865 4.82851 9.84865 5.4407C9.84865 6.04328 10.3415 6.54577 10.9441 6.54577ZM16.8241 6.09413H19.5595C19.9512 6.09413 20.2172 5.82812 20.2172 5.43859C20.2172 5.04695 19.9512 4.77344 19.5595 4.77344H16.8241C16.4325 4.77344 16.1644 5.04695 16.1644 5.43859C16.1644 5.82812 16.4325 6.09413 16.8241 6.09413ZM4.26749 9.27507H22.7004V7.59437H4.26749V9.27507ZM8.95827 22.2044H13.792C13.6228 21.7872 13.4674 21.303 13.362 20.7454H9.30209C9.04193 20.7454 8.86498 20.5684 8.86498 20.2987V13.1099C8.86498 12.8401 9.04193 12.6632 9.30209 12.6632H17.6775C17.9376 12.6632 18.1146 12.8401 18.1146 13.1099V15.3442C18.5426 14.9673 19.0608 14.7836 19.5832 14.7859V12.7661C19.5832 11.8391 18.9387 11.2042 18.0213 11.2042H8.95827C8.03881 11.2042 7.406 11.8391 7.406 12.7661V20.6425C7.406 21.5694 8.03881 22.2044 8.95827 22.2044Z" fill="black"/>
<path d="M16.5841 27.2955C16.961 27.5509 17.5455 27.5371 17.8767 26.9835C18.2334 26.3455 18.4411 25.5937 18.4411 24.8673C18.4411 22.2219 16.425 20.9427 16.425 18.9948C16.425 18.5144 16.5166 18.164 16.8138 17.6612C17.0693 17.2173 16.8766 16.7552 16.5295 16.5529C16.1623 16.3059 15.5819 16.3506 15.2838 16.8766C14.9058 17.507 14.7119 18.2547 14.7119 18.9948C14.7119 21.5976 16.7163 22.8768 16.7163 24.8673C16.7163 25.3478 16.6322 25.6748 16.3371 26.1892C16.0741 26.6427 16.2893 27.0911 16.5841 27.2955ZM20.1471 27.2858C20.5411 27.5509 21.1277 27.5179 21.4301 26.9739C21.7964 26.3338 22.0019 25.5937 22.0019 24.8673C22.0019 22.2123 19.9858 20.9331 19.9858 18.9852C19.9858 18.5144 20.0796 18.164 20.3651 17.6516C20.6322 17.2077 20.43 16.7455 20.0808 16.5529C19.7252 16.3059 19.1353 16.3506 18.8351 16.8648C18.4687 17.507 18.2749 18.2451 18.2749 18.9852C18.2749 21.5976 20.2772 22.8672 20.2772 24.8673C20.2772 25.3382 20.1951 25.6651 19.9076 26.1775C19.6446 26.6427 19.8426 27.0815 20.1471 27.2858ZM23.7143 27.2762C24.1083 27.5413 24.6949 27.5083 24.9972 26.9643C25.3636 26.3242 25.5691 25.5841 25.5691 24.8577C25.5691 22.2027 23.553 20.9235 23.553 18.9756C23.553 18.5027 23.6468 18.1544 23.9322 17.642C24.1994 17.1981 23.9972 16.7359 23.6479 16.5433C23.2828 16.2962 22.7025 16.3389 22.4022 16.8552C22.0263 17.4974 21.8421 18.2355 21.8421 18.9756C21.8421 21.588 23.8444 22.8555 23.8444 24.8577C23.8444 25.3286 23.7623 25.6534 23.4651 26.1679C23.2022 26.6331 23.4098 27.0719 23.7143 27.2762Z" fill="black"/>
</svg>
