<svg width="29" height="28" viewBox="0 0 29 28" fill="none" xmlns="http://www.w3.org/2000/svg">
<path d="M1.15382 26.1541C1.78124 26.1541 2.29592 25.6394 2.29592 25.0098V2.14421C2.29592 1.51468 1.78124 1 1.15382 1C0.514684 1 0 1.51468 0 2.14421V25.0098C0 25.6394 0.514684 26.1541 1.15382 26.1541ZM27.7097 26.1541C28.3392 26.1541 28.8539 25.6394 28.8539 25.0098V2.14421C28.8539 1.51468 28.3392 1 27.7097 1C27.0726 1 26.558 1.51468 26.558 2.14421V25.0098C26.558 25.6394 27.0726 26.1541 27.7097 26.1541ZM24.2707 6.07773H27.581V4.44765H24.2707V6.07773ZM24.2707 11.6366H27.581V10.0044H24.2707V11.6366ZM24.2707 17.1838H27.581V15.5537H24.2707V17.1838ZM24.2707 22.7331H27.581V21.1009H24.2707V22.7331Z" fill="black"/>
<path d="M4.62727 7.54188H24.2171C24.7981 7.54188 25.1768 7.16313 25.1768 6.60134V3.92734C25.1768 3.36555 24.7981 2.98352 24.2171 2.98352H4.62727C4.04625 2.98352 3.67383 3.36766 3.67383 3.93156V6.60345C3.67383 7.16524 4.04625 7.54188 4.62727 7.54188ZM4.62727 13.0987H24.2171C24.7981 13.0987 25.1768 12.7124 25.1768 12.1485V9.47664C25.1768 8.91485 24.7981 8.54032 24.2171 8.54032H4.62727C4.04625 8.54032 3.67383 8.91696 3.67383 9.47875V12.1527C3.67383 12.7145 4.04625 13.0987 4.62727 13.0987ZM4.62727 18.648H24.2171C24.7981 18.648 25.1768 18.2692 25.1768 17.6978V15.0238C25.1768 14.462 24.7981 14.0896 24.2171 14.0896H4.62727C4.04625 14.0896 3.67383 14.4641 3.67383 15.028V17.6999C3.67383 18.2713 4.04625 18.648 4.62727 18.648ZM4.62727 24.1951H24.2171C24.7981 24.1951 25.1768 23.8185 25.1768 23.2546V20.5827C25.1768 20.0209 24.7981 19.6368 24.2171 19.6368H4.62727C4.04625 19.6368 3.67383 20.023 3.67383 20.5848V23.2588C3.67383 23.8206 4.04625 24.1951 4.62727 24.1951Z" fill="black"/>
</svg>
