<svg width="28" height="28" viewBox="0 0 28 28" fill="none" xmlns="http://www.w3.org/2000/svg">
<path d="M4.84421 23.4498H23.2101C25.7394 23.4498 27.0447 22.1446 27.0447 19.6441V7.8271C27.0447 5.32656 25.7394 4.02133 23.2101 4.02133H4.84421C2.31484 4.02133 1 5.32656 1 7.8271V19.6441C1 22.1446 2.31484 23.4498 4.84421 23.4498ZM4.97733 21.1539C3.88772 21.1539 3.29592 20.5823 3.29592 19.4416V8.0296C3.29592 6.891 3.88772 6.31725 4.97733 6.31725H23.0673C24.1473 6.31725 24.7488 6.891 24.7488 8.0296V19.4416C24.7488 20.5823 24.1473 21.1539 23.0673 21.1539H4.97733Z" fill="black"/>
<path d="M9.7236 18.8186C11.8353 18.8186 13.2364 17.4484 13.2364 15.4124C13.2364 14.4264 12.8398 13.5463 12.5108 12.82C11.9609 11.6446 11.087 10.2088 10.3133 9.0142C10.1366 8.74913 9.9493 8.63428 9.7236 8.63428C9.49789 8.63428 9.31485 8.74913 9.13602 9.0142C8.37196 10.2088 7.49586 11.6467 6.93852 12.8242C6.60735 13.5484 6.20117 14.4264 6.20117 15.4124C6.20117 17.4484 7.62149 18.8186 9.7236 18.8186ZM16.8842 11.5408C17.6384 11.5408 18.2659 10.9091 18.2659 10.1549C18.2659 9.39858 17.6384 8.77116 16.8842 8.77116C16.1183 8.77116 15.5005 9.39858 15.5005 10.1549C15.5005 10.9091 16.1183 11.5408 16.8842 11.5408ZM20.8522 11.5408C21.6064 11.5408 22.2359 10.9091 22.2359 10.1549C22.2359 9.39858 21.6064 8.77116 20.8522 8.77116C20.098 8.77116 19.4685 9.39858 19.4685 10.1549C19.4685 10.9091 20.098 11.5408 20.8522 11.5408ZM16.8842 15.1007C17.6384 15.1007 18.2659 14.4733 18.2659 13.719C18.2659 12.9627 17.6384 12.3353 16.8842 12.3353C16.1183 12.3353 15.5005 12.9627 15.5005 13.719C15.5005 14.4733 16.1183 15.1007 16.8842 15.1007ZM20.8522 15.1007C21.6064 15.1007 22.2359 14.4733 22.2359 13.719C22.2359 12.9627 21.6064 12.3353 20.8522 12.3353C20.098 12.3353 19.4685 12.9627 19.4685 13.719C19.4685 14.4733 20.098 15.1007 20.8522 15.1007ZM16.8842 18.6648C17.6384 18.6648 18.2659 18.0374 18.2659 17.2832C18.2659 16.5269 17.6384 15.8973 16.8842 15.8973C16.1183 15.8973 15.5005 16.5269 15.5005 17.2832C15.5005 18.0374 16.1183 18.6648 16.8842 18.6648ZM20.8522 18.6648C21.6064 18.6648 22.2359 18.0374 22.2359 17.2832C22.2359 16.5269 21.6064 15.8973 20.8522 15.8973C20.098 15.8973 19.4685 16.5269 19.4685 17.2832C19.4685 18.0374 20.098 18.6648 20.8522 18.6648Z" fill="black"/>
</svg>
