<svg width="30" height="28" viewBox="0 0 30 28" fill="none" xmlns="http://www.w3.org/2000/svg">
<path d="M1.14421 26.1541C1.78124 26.1541 2.29592 25.6394 2.29592 25.0098V3.93389C2.29592 3.54623 2.54623 3.29592 2.91256 3.29592H26.3641C26.7305 3.29592 26.9808 3.54623 26.9808 3.93389V25.0098C26.9808 25.6394 27.4955 26.1541 28.1229 26.1541C28.762 26.1541 29.2767 25.6394 29.2767 25.0098V3.72178C29.2767 2.07273 28.1869 1 26.4973 1H2.77194C1.08984 1 0 2.07273 0 3.72178V25.0098C0 25.6394 0.514684 26.1541 1.14421 26.1541Z" fill="black"/>
<path d="M4.07199 25.6553H13.5588C13.773 25.6553 13.9425 25.4762 13.9425 25.2716V5.06427C13.9425 4.85005 13.773 4.6806 13.5588 4.6806H4.07199C3.85988 4.6806 3.69043 4.85005 3.69043 5.06427V25.2716C3.69043 25.4762 3.85988 25.6553 4.07199 25.6553ZM6.35152 16.8855C6.00441 16.8855 5.75105 16.63 5.75105 16.2733V14.2267C5.75105 13.87 6.00441 13.6241 6.35152 13.6241C6.70613 13.6241 6.9616 13.87 6.9616 14.2267V16.2733C6.9616 16.63 6.70613 16.8855 6.35152 16.8855ZM15.7087 25.6553H25.2051C25.4172 25.6553 25.5867 25.4762 25.5867 25.2716V5.06427C25.5867 4.85005 25.4172 4.6806 25.2051 4.6806H15.7087C15.5041 4.6806 15.3346 4.85005 15.3346 5.06427V25.2716C15.3346 25.4762 15.5041 25.6553 15.7087 25.6553Z" fill="black"/>
</svg>
