<svg width="28" height="28" viewBox="0 0 28 28" fill="none" xmlns="http://www.w3.org/2000/svg">
<path d="M5 25.0098C5 25.6394 5.51468 26.1541 6.14421 26.1541C6.78124 26.1541 7.29592 25.6394 7.29592 25.0098V3.93389C7.29592 3.54623 7.54623 3.29592 7.91256 3.29592H20.6429C21.0092 3.29592 21.2595 3.54623 21.2595 3.93389V25.0098C21.2595 25.6394 21.7742 26.1541 22.4133 26.1541C23.0429 26.1541 23.5554 25.6394 23.5554 25.0098V3.72178C23.5554 2.07273 22.4752 1 20.7856 1H7.77194C6.08984 1 5 2.07273 5 3.72178V25.0098Z" fill="black"/>
<path d="M8.69043 25.3637C8.69043 25.6138 8.89269 25.7416 9.15121 25.633L12.7887 24.0463C13.0859 23.9174 13.2094 23.8068 13.2094 23.5084V6.81157C13.2094 6.52071 13.0859 6.40047 12.7983 6.28329L9.15121 4.68485C8.89269 4.57844 8.69043 4.70617 8.69043 4.96586V25.3637Z" fill="black"/>
</svg>
