<svg width="28" height="28" viewBox="0 0 28 28" fill="none" xmlns="http://www.w3.org/2000/svg">
<path d="M5.43308 9.61879H24.3349C24.8967 9.61879 25.2926 9.22293 25.2926 8.66113V6.54215C25.2926 5.98997 24.8967 5.58661 24.3349 5.58661H5.43308C4.87129 5.58661 4.46582 5.98997 4.46582 6.54005V8.66113C4.46582 9.22293 4.87129 9.61879 5.43308 9.61879ZM6.62347 14.8859H23.1328C23.6946 14.8859 24.1001 14.4825 24.1001 13.9304V11.2484H5.66793V13.9325C5.66793 14.4846 6.06168 14.8859 6.62347 14.8859Z" fill="black"/>
<path d="M1 3.14516C1 3.77468 1.52429 4.29898 2.15382 4.29898H25.1786C25.8081 4.29898 26.3303 3.77468 26.3303 3.14516C26.3303 2.51563 25.8081 2.00305 25.1786 2.00305H2.15382C1.52429 2.00305 1 2.51563 1 3.14516ZM2.15382 7.16538C2.61905 7.16538 3.00554 6.77257 3.00554 6.31155C3.00554 5.8346 2.62116 5.45984 2.15382 5.45984C1.67476 5.45984 1.29039 5.8346 1.29039 6.31155C1.29039 6.77257 1.67687 7.16538 2.15382 7.16538ZM2.15382 9.87991C2.61905 9.87991 3.00554 9.48171 3.00554 9.01858C3.00554 8.55124 2.62116 8.16265 2.15382 8.16265C1.67476 8.16265 1.29039 8.55124 1.29039 9.01858C1.29039 9.48171 1.67687 9.87991 2.15382 9.87991ZM2.15382 12.5785C2.61905 12.5785 3.00554 12.1899 3.00554 11.7268C3.00554 11.2498 2.62116 10.8751 2.15382 10.8751C1.67476 10.8751 1.29039 11.2498 1.29039 11.7268C1.29039 12.1899 1.67687 12.5785 2.15382 12.5785ZM2.15382 15.2909C2.61905 15.2909 3.00554 14.8906 3.00554 14.4296C3.00554 13.9644 2.62116 13.5758 2.15382 13.5758C1.67476 13.5758 1.29039 13.9644 1.29039 14.4296C1.29039 14.8906 1.67687 15.2909 2.15382 15.2909ZM2.15382 17.9916C2.61905 17.9916 3.00554 17.6051 3.00554 17.1399C3.00554 16.6651 2.62116 16.2882 2.15382 16.2882C1.67476 16.2882 1.29039 16.6651 1.29039 17.1399C1.29039 17.6051 1.67687 17.9916 2.15382 17.9916ZM2.15382 20.704C2.61905 20.704 3.00554 20.3058 3.00554 19.8406C3.00554 19.3733 2.62116 18.991 2.15382 18.991C1.67476 18.991 1.29039 19.3733 1.29039 19.8406C1.29039 20.3058 1.67687 20.704 2.15382 20.704ZM2.15382 26.3778C2.69147 26.3778 3.14405 25.9327 3.14405 25.3855V22.6915C3.14405 22.1464 2.70108 21.6992 2.15382 21.6992C1.60445 21.6992 1.15187 22.1464 1.15187 22.6915V25.3855C1.15187 25.9327 1.60445 26.3778 2.15382 26.3778Z" fill="black"/>
</svg>
