<svg width="29" height="28" viewBox="0 0 29 28" fill="none" xmlns="http://www.w3.org/2000/svg">
<path d="M1.15382 26.1541C1.78124 26.1541 2.29592 25.6394 2.29592 25.0098V2.14421C2.29592 1.51468 1.78124 1 1.15382 1C0.514684 1 0 1.51468 0 2.14421V25.0098C0 25.6394 0.514684 26.1541 1.15382 26.1541ZM27.7097 26.1541C28.3392 26.1541 28.8539 25.6394 28.8539 25.0098V2.14421C28.8539 1.51468 28.3392 1 27.7097 1C27.0726 1 26.558 1.51468 26.558 2.14421V25.0098C26.558 25.6394 27.0726 26.1541 27.7097 26.1541ZM24.2707 6.07773H27.581V4.44765H24.2707V6.07773ZM24.2707 11.6366H27.581V10.0044H24.2707V11.6366ZM24.2707 17.1838H27.581V15.5537H24.2707V17.1838ZM24.2707 22.7331H27.581V21.1009H24.2707V22.7331Z" fill="black"/>
<path d="M12.9007 8.84919L24.2724 7.51537C24.8332 7.45044 25.1761 7.15349 25.1761 6.61701V3.81318C25.1761 3.23123 24.8248 2.80607 24.2513 2.94013L12.7378 5.48638C12.2142 5.60451 11.9717 5.9324 11.9717 6.3463V8.04974C11.9717 8.63193 12.2846 8.92794 12.9007 8.84919ZM12.721 13.1071H24.2724C24.8227 13.1071 25.1761 12.7537 25.1761 12.2151V9.41333C25.1761 8.85248 24.8323 8.46271 24.2724 8.52552L12.721 9.8774C12.2569 9.92849 11.9717 10.2744 11.9717 10.7502V12.2737C11.9717 12.7867 12.2761 13.1071 12.721 13.1071ZM12.721 17.3226L24.2724 18.6723C24.8323 18.7351 25.1761 18.3454 25.1761 17.7866V14.9828C25.1761 14.4442 24.8227 14.0908 24.2724 14.0908H12.721C12.2761 14.0908 11.9717 14.4112 11.9717 14.9242V16.4477C11.9717 16.9234 12.2569 17.2598 12.721 17.3226ZM12.7378 21.7115L24.2513 24.2598C24.8248 24.3822 25.1761 23.9666 25.1761 23.3847V20.5734C25.1761 20.0444 24.8332 19.7474 24.2724 19.6846L12.9007 18.3487C12.2846 18.2699 11.9717 18.5659 11.9717 19.1481V20.8516C11.9717 21.2655 12.2142 21.5934 12.7378 21.7115Z" fill="black"/>
</svg>
