<svg width="28" height="28" viewBox="0 0 28 28" fill="none" xmlns="http://www.w3.org/2000/svg">
<path d="M13.9291 27.1622C18.5855 27.1622 21.854 24.0321 21.854 19.5942V7.56796C21.854 3.12046 18.5855 0 13.9291 0C9.28031 0 6 3.12046 6 7.56796V19.5942C6 24.0321 9.28031 27.1622 13.9291 27.1622ZM13.9174 24.9844C10.541 24.9844 8.16397 22.7576 8.16397 19.5942V7.56796C8.16397 4.40249 10.541 2.1778 13.9174 2.1778C17.313 2.1778 19.6922 4.40249 19.6922 7.56796V19.5942C19.6922 22.7576 17.313 24.9844 13.9174 24.9844Z" fill="black"/>
<path d="M13.9289 12.6194C16.3484 12.6194 18.2522 10.7156 18.2522 8.29408C18.2522 5.86502 16.3484 3.95697 13.9289 3.95697C11.5073 3.95697 9.5918 5.86502 9.5918 8.29408C9.5918 10.7156 11.5073 12.6194 13.9289 12.6194ZM13.9289 9.85736C13.0498 9.85736 12.3656 9.17322 12.3656 8.29408C12.3656 7.40744 13.0498 6.7233 13.9289 6.7233C14.8059 6.7233 15.4805 7.40744 15.4805 8.29408C15.4805 9.17322 14.8059 9.85736 13.9289 9.85736ZM13.9289 23.1743C16.3484 23.1743 18.2522 21.2684 18.2522 18.8393C18.2522 16.4177 16.3484 14.5139 13.9289 14.5139C11.5073 14.5139 9.5918 16.4177 9.5918 18.8393C9.5918 21.2684 11.5073 23.1743 13.9289 23.1743ZM13.9289 21.5126C12.4153 21.5126 11.2535 20.3508 11.2535 18.8393C11.2535 17.3278 12.4153 16.1735 13.9289 16.1735C15.4287 16.1735 16.5905 17.3278 16.5905 18.8393C16.5905 20.3508 15.4287 21.5126 13.9289 21.5126Z" fill="black"/>
</svg>
