<svg width="29" height="28" viewBox="0 0 29 28" fill="none" xmlns="http://www.w3.org/2000/svg">
<path d="M3.55125 25.4197H25.1184C27.4113 25.4197 28.6718 24.1496 28.6718 21.8867V5.54468C28.6718 3.28179 27.4113 2.01172 25.1184 2.01172H3.55125C1.26586 2.01172 0 3.28179 0 5.54468V21.8867C0 24.1496 1.26586 25.4197 3.55125 25.4197ZM3.65367 23.1976C2.74897 23.1976 2.22421 22.6749 2.22421 21.7297V5.70382C2.22421 4.75858 2.74897 4.23381 3.65367 4.23381H25.0392C25.9334 4.23381 26.4476 4.74804 26.4476 5.67851V21.7529C26.4476 22.6834 25.9334 23.1976 25.0392 23.1976H3.65367ZM7.79577 12.8567C9.71882 12.8567 11.2861 11.2916 11.2861 9.36429C11.2861 7.43702 9.71882 5.86975 7.79577 5.86975C5.86851 5.86975 4.30124 7.43702 4.30124 9.36429C4.30124 11.2916 5.86851 12.8567 7.79577 12.8567ZM7.79577 11.678C6.51585 11.678 5.48952 10.6421 5.48952 9.36429C5.48952 8.08436 6.51585 7.04842 7.79577 7.04842C9.07148 7.04842 10.1074 8.08436 10.1074 9.36429C10.1074 10.6421 9.07148 11.678 7.79577 11.678ZM7.79577 11.1188C8.78179 11.1188 9.53859 10.3524 9.53859 9.36429C9.53859 8.37616 8.78179 7.61936 7.79577 7.61936C6.81514 7.61936 6.05085 8.37616 6.05085 9.36429C6.05085 10.3524 6.81514 11.1188 7.79577 11.1188ZM16.7597 12.8567C18.6827 12.8567 20.2404 11.2916 20.2404 9.36429C20.2404 7.43702 18.6827 5.86975 16.7597 5.86975C14.8228 5.86975 13.2652 7.43702 13.2652 9.36429C13.2652 11.2916 14.8228 12.8567 16.7597 12.8567ZM16.7597 11.678C15.4798 11.678 14.4438 10.6421 14.4438 9.36429C14.4438 8.08436 15.4798 7.04842 16.7597 7.04842C18.0354 7.04842 19.0617 8.08436 19.0617 9.36429C19.0617 10.6421 18.0354 11.678 16.7597 11.678ZM16.7597 11.1188C17.7361 11.1188 18.5025 10.3524 18.5025 9.36429C18.5025 8.37616 17.7361 7.61936 16.7597 7.61936C15.7694 7.61936 15.003 8.37616 15.003 9.36429C15.003 10.3524 15.7694 11.1188 16.7597 11.1188ZM7.79577 21.5223C9.71882 21.5223 11.2861 19.9646 11.2861 18.0298C11.2861 16.1026 9.71882 14.5449 7.79577 14.5449C5.86851 14.5449 4.30124 16.1026 4.30124 18.0298C4.30124 19.9646 5.86851 21.5223 7.79577 21.5223ZM7.79577 20.3436C6.51585 20.3436 5.48952 19.3173 5.48952 18.0298C5.48952 16.7499 6.51585 15.7236 7.79577 15.7236C9.07148 15.7236 10.1074 16.7499 10.1074 18.0298C10.1074 19.3173 9.07148 20.3436 7.79577 20.3436ZM7.79577 19.7844C8.78179 19.7844 9.53859 19.018 9.53859 18.0298C9.53859 17.0492 8.78179 16.2828 7.79577 16.2828C6.81514 16.2828 6.05085 17.0492 6.05085 18.0298C6.05085 19.018 6.81514 19.7844 7.79577 19.7844ZM16.7597 21.5223C18.6827 21.5223 20.2404 19.9646 20.2404 18.0298C20.2404 16.1026 18.6827 14.5449 16.7597 14.5449C14.8228 14.5449 13.2652 16.1026 13.2652 18.0298C13.2652 19.9646 14.8228 21.5223 16.7597 21.5223ZM16.7597 20.3436C15.4798 20.3436 14.4438 19.3173 14.4438 18.0298C14.4438 16.7499 15.4798 15.7236 16.7597 15.7236C18.0354 15.7236 19.0617 16.7499 19.0617 18.0298C19.0617 19.3173 18.0354 20.3436 16.7597 20.3436ZM16.7597 19.7844C17.7361 19.7844 18.5025 19.018 18.5025 18.0298C18.5025 17.0492 17.7361 16.2828 16.7597 16.2828C15.7694 16.2828 15.003 17.0492 15.003 18.0298C15.003 19.018 15.7694 19.7844 16.7597 19.7844ZM23.7916 9.7414C24.3827 9.7414 24.8449 9.27171 24.8449 8.68062C24.8449 8.09913 24.3827 7.62734 23.7916 7.62734C23.2005 7.62734 22.7287 8.09913 22.7287 8.68062C22.7287 9.27171 23.2005 9.7414 23.7916 9.7414ZM23.7916 13.0878C24.3827 13.0878 24.8449 12.6256 24.8449 12.0249C24.8449 11.4434 24.3827 10.9716 23.7916 10.9716C23.2005 10.9716 22.7287 11.4434 22.7287 12.0249C22.7287 12.6256 23.2005 13.0878 23.7916 13.0878ZM23.7916 16.4417C24.3827 16.4417 24.8449 15.972 24.8449 15.3788C24.8449 14.7877 24.3827 14.3277 23.7916 14.3277C23.2005 14.3277 22.7287 14.7877 22.7287 15.3788C22.7287 15.972 23.2005 16.4417 23.7916 16.4417ZM23.7916 19.7881C24.3827 19.7881 24.8449 19.3163 24.8449 18.7252C24.8449 18.1437 24.3827 17.6719 23.7916 17.6719C23.2005 17.6719 22.7287 18.1437 22.7287 18.7252C22.7287 19.3163 23.2005 19.7881 23.7916 19.7881Z" fill="black"/>
</svg>
