<svg width="28" height="28" viewBox="0 0 28 28" fill="none" xmlns="http://www.w3.org/2000/svg">
<path d="M14.105 26.21C20.7369 26.21 26.2121 20.7273 26.2121 14.105C26.2121 7.47312 20.7273 2 14.0954 2C7.47523 2 2 7.47312 2 14.105C2 20.7273 7.48484 26.21 14.105 26.21ZM14.105 23.8255C8.71085 23.8255 4.39412 19.4991 4.39412 14.105C4.39412 8.71085 8.70124 4.38452 14.0954 4.38452C19.4895 4.38452 23.8276 8.71085 23.8276 14.105C23.8276 19.4991 19.4991 23.8255 14.105 23.8255Z" fill="black"/>
<path d="M12.2365 11.7718C12.6605 11.2016 13.3702 10.8861 14.0766 10.8861C14.7947 10.8861 15.5023 11.2016 15.9145 11.7718C16.3088 11.3094 16.9001 11.042 17.5308 11.042C17.9196 11.042 18.2967 11.1378 18.6131 11.3253C18.7615 11.0853 18.8522 10.7952 18.8522 10.4954C18.8522 9.51733 18.232 8.82264 17.3264 8.80038C17.0857 8.24632 16.6404 7.88608 16.0341 7.88608C15.642 7.88608 15.2925 8.01077 15.023 8.26436C14.8854 8.23132 14.7031 8.2196 14.5559 8.25053C14.3055 7.70069 13.7707 7.35757 13.1698 7.35757C12.3705 7.35757 11.8348 7.83499 11.7251 8.34311C11.3105 8.311 10.9448 8.69796 10.9343 9.06991C10.0756 9.05491 9.36914 9.76343 9.36914 10.636C9.36914 10.8772 9.41719 11.0874 9.53461 11.3211C9.85102 11.1453 10.2335 11.042 10.6299 11.042C11.2627 11.042 11.8519 11.3094 12.2365 11.7718ZM11.8995 20.6476H12.5438L11.8491 13.0065C11.7926 12.2902 11.2383 11.9098 10.6299 11.9098C9.90305 11.9098 9.21023 12.463 9.40852 13.5012L10.522 19.348C10.6744 20.1608 11.0695 20.6476 11.8995 20.6476ZM13.384 20.6476H14.7788L15.4554 13.1712C15.5374 12.1641 14.7061 11.754 14.0766 11.754C13.4588 11.754 12.6274 12.1641 12.7073 13.1712L13.384 20.6476ZM16.2612 20.6476C17.0932 20.6476 17.4863 20.1608 17.6386 19.348L18.7521 13.5012C18.9504 12.463 18.2576 11.9098 17.5308 11.9098C16.9245 11.9098 16.368 12.2902 16.3116 13.0065L15.619 20.6476H16.2612Z" fill="black"/>
</svg>
