<svg width="28" height="28" viewBox="0 0 28 28" fill="none" xmlns="http://www.w3.org/2000/svg">
<path d="M8.80577 27.0316H18.9097C21.4102 27.0316 22.7154 25.7188 22.7154 23.197V4.84421C22.7154 2.31273 21.4102 1 18.9097 1H8.80577C6.29562 1 5 2.31273 5 4.84421V23.197C5 25.7188 6.29562 27.0316 8.80577 27.0316ZM8.99866 24.7356C7.85795 24.7356 7.29592 24.1438 7.29592 23.0542V4.98694C7.29592 3.89733 7.85795 3.29592 8.99866 3.29592H18.7072C19.8458 3.29592 20.4174 3.89733 20.4174 4.98694V23.0542C20.4174 24.1438 19.8458 24.7356 18.7072 24.7356H8.99866Z" fill="black"/>
<path d="M9.92466 12.0332H17.7397C18.4116 12.0332 18.6847 11.7676 18.6847 11.1053V5.93681C18.6847 5.27446 18.4116 5.00891 17.7397 5.00891H9.92466C9.26231 5.00891 8.98926 5.27446 8.98926 5.93681V11.1053C8.98926 11.7676 9.26231 12.0332 9.92466 12.0332Z" fill="black"/>
</svg>
