<svg width="28" height="28" viewBox="0 0 28 28" fill="none" xmlns="http://www.w3.org/2000/svg">
<path d="M14.105 26.21C20.7369 26.21 26.2121 20.7273 26.2121 14.105C26.2121 7.47312 20.7273 2 14.0954 2C7.47523 2 2 7.47312 2 14.105C2 20.7273 7.48484 26.21 14.105 26.21ZM14.105 23.8255C8.71085 23.8255 4.39412 19.4991 4.39412 14.105C4.39412 8.71085 8.70124 4.38452 14.0954 4.38452C19.4895 4.38452 23.8276 8.71085 23.8276 14.105C23.8276 19.4991 19.4991 23.8255 14.105 23.8255Z" fill="black"/>
<path d="M14.1048 10.2866C14.9525 10.2866 15.6533 9.58583 15.6533 8.7381C15.6533 7.89036 14.9525 7.18958 14.1048 7.18958C13.2571 7.18958 12.5563 7.89036 12.5563 8.7381C12.5563 9.58583 13.2571 10.2866 14.1048 10.2866ZM9.05214 16.3474C10.2974 16.3474 11.2965 15.3386 11.2965 14.103C11.2965 12.8674 10.2974 11.8586 9.05214 11.8586C7.81652 11.8586 6.81738 12.8674 6.81738 14.103C6.81738 15.3386 7.81652 16.3474 9.05214 16.3474ZM19.1553 16.3474C20.391 16.3474 21.3901 15.3386 21.3901 14.103C21.3901 12.8674 20.391 11.8586 19.1553 11.8586C17.9101 11.8586 16.911 12.8674 16.911 14.103C16.911 15.3386 17.9101 16.3474 19.1553 16.3474Z" fill="black"/>
</svg>
