<svg width="28" height="28" viewBox="0 0 28 28" fill="none" xmlns="http://www.w3.org/2000/svg">
<path d="M6.84421 24.8972H21.0295C23.5685 24.8972 24.8737 23.5919 24.8737 21.0914V6.82921C24.8737 4.32656 23.5685 3.02344 21.0295 3.02344H6.84421C4.31484 3.02344 3 4.31695 3 6.82921V21.0914C3 23.6016 4.31484 24.8972 6.84421 24.8972ZM6.97733 22.6013C5.88772 22.6013 5.29592 22.0371 5.29592 20.8985V7.01999C5.29592 5.88139 5.88772 5.31936 6.97733 5.31936H20.8964C21.9764 5.31936 22.5778 5.88139 22.5778 7.01999V20.8985C22.5778 22.0371 21.9764 22.6013 20.8964 22.6013H6.97733Z" fill="black"/>
<path d="M9.63089 19.3641H18.3009C18.9928 19.3641 19.4953 18.8616 19.4953 18.1697V9.73918C19.4953 9.0473 18.9928 8.5448 18.3009 8.5448H9.63089C8.93902 8.5448 8.43652 9.0473 8.43652 9.73918V18.1697C8.43652 18.8616 8.93902 19.3641 9.63089 19.3641ZM13.7011 13.1137C13.4093 13.1137 13.1995 12.9295 13.1995 12.6281V10.7779C13.1995 10.4882 13.4114 10.2785 13.7011 10.2785H14.2115C14.5012 10.2785 14.7323 10.4882 14.7323 10.7779V12.6281C14.7323 12.9295 14.5033 13.1137 14.2115 13.1137H13.7011ZM10.6818 17.5165C10.3783 17.5165 10.1824 17.3088 10.1824 17.0128V16.4906C10.1824 16.203 10.3783 15.9858 10.6818 15.9858H12.4172C12.7068 15.9858 12.9028 16.2009 12.9028 16.4906V17.0128C12.9028 17.3088 12.7089 17.5165 12.4172 17.5165H10.6818ZM15.5348 17.5165C15.2334 17.5165 15.0396 17.3088 15.0396 17.0128V16.4906C15.0396 16.2009 15.2355 15.9858 15.5348 15.9858H17.2605C17.5619 15.9858 17.7621 16.203 17.7621 16.4906V17.0128C17.7621 17.3067 17.5598 17.5165 17.2605 17.5165H15.5348Z" fill="black"/>
</svg>
