<svg width="29" height="28" viewBox="0 0 29 28" fill="none" xmlns="http://www.w3.org/2000/svg">
<path d="M12.9729 3.29094L6.81539 2.61664C5.68992 2.49312 4.8893 3.21711 4.8893 4.28398C4.8893 5.36257 5.68992 6.08655 6.81539 5.95343L12.9729 5.29085V3.29094ZM14.1152 6.57007C15.3855 6.57007 16.4109 5.55429 16.4109 4.28398C16.4109 3.02539 15.3855 2 14.1152 2C12.8566 2 11.8312 3.02539 11.8312 4.28398C11.8312 5.55429 12.8566 6.57007 14.1152 6.57007ZM15.2597 3.29094V5.29085L21.4289 5.95343C22.5447 6.08655 23.3433 5.36257 23.3433 4.28398C23.3433 3.21711 22.5447 2.49312 21.4289 2.61664L15.2597 3.29094ZM12.968 5.70851V8.61756H15.2721V5.70851H12.968ZM15.9124 11.1779H17.7297V9.32303C17.7297 8.23179 16.958 7.4621 15.8763 7.4621H12.3307C11.2416 7.4621 10.4698 8.23179 10.4698 9.32303V11.1779H12.2871V9.51991C12.2871 9.22764 12.4919 9.0303 12.7746 9.0303H15.4345C15.7172 9.0303 15.9124 9.22764 15.9124 9.51991V11.1779ZM14.1035 23.1558C16.3505 23.1558 17.6259 22.1747 18.9082 20.9958C19.358 20.5716 19.9017 20.3276 20.4101 20.3276C21.3321 20.3276 22.058 21.0256 22.058 22.3046V23.9431C22.058 24.635 22.5485 25.1255 23.2404 25.1255H27.5674C28.2593 25.1255 28.7594 24.635 28.7594 23.9431V22.7276C28.7594 15.7918 24.469 13.4213 20.6018 13.4213H20.1759C19.9708 13.4213 19.8073 13.3076 19.7414 13.1239L19.0898 11.3687C18.8247 10.6245 18.4076 10.2957 17.7157 10.2957H10.4817C9.79195 10.2957 9.38437 10.6245 9.10968 11.3687L8.46773 13.1239C8.39226 13.3076 8.22867 13.4213 8.0332 13.4213H0.771093V15.3601H8.31913C9.49991 15.3601 9.90022 14.8566 10.2058 14.0302L10.8581 12.2365H17.3489L18.0033 14.0302C18.3068 14.8566 18.7249 15.3601 19.9153 15.3601H20.5289C23.9013 15.3601 26.8324 17.2273 26.8324 22.7276V23.1868H23.9967V22.3046C23.9967 19.1089 22.0535 18.3697 20.5134 18.3697C19.2994 18.3697 18.4226 18.8384 17.6116 19.5973C16.7993 20.3162 15.8709 21.2171 14.1035 21.2171C12.4139 21.2171 11.3773 20.476 10.5157 19.5038C9.7828 18.6303 9.22967 18.3387 7.93311 18.3387H0.771093V20.2796H7.83304C8.44499 20.2796 8.70796 20.3668 9.11202 20.8294C10.3326 22.1904 12.0443 23.1558 14.1035 23.1558ZM1.05773 22.936C1.64624 22.936 2.12296 22.4497 2.12296 21.8687V12.1151C2.12296 11.5362 1.64624 11.0499 1.05773 11.0499C0.476717 11.0499 0 11.5362 0 12.1151V21.8687C0 22.4497 0.476717 22.936 1.05773 22.936Z" fill="black"/>
</svg>
