<svg width="29" height="28" viewBox="0 0 29 28" fill="none" xmlns="http://www.w3.org/2000/svg">
<path d="M2.30929 19.4268C4.20257 19.4268 5.26733 18.2088 5.26733 16.0769V12.5128C5.26733 10.3809 4.20257 9.16077 2.30929 9.16077H1.21429C0.45117 9.16077 0 9.61194 0 10.3772V18.2126C0 18.9757 0.45117 19.4268 1.21429 19.4268H2.30929ZM2.30929 17.7321H1.87499C1.76835 17.7321 1.69476 17.6585 1.69476 17.5444V11.0454C1.69476 10.9291 1.76835 10.8555 1.87499 10.8555H2.30929C3.13429 10.8555 3.57258 11.4239 3.57258 12.5128V16.0769C3.57258 17.1637 3.13429 17.7321 2.30929 17.7321ZM14.2357 21.7C15.3525 21.7 16.0774 20.9793 16.0774 19.8604V8.72717C16.0774 7.60827 15.3525 6.88968 14.2357 6.88968H11.707C8.57273 6.88968 6.60257 8.86733 6.60257 12.0016V16.5956C6.60257 19.7299 8.57273 21.7 11.707 21.7H14.2357ZM13.8497 19.8072H11.707C9.7167 19.8072 8.49748 18.5784 8.49748 16.5956V12.0016C8.49748 10.0113 9.7167 8.79209 11.707 8.79209H13.8497C14.0449 8.79209 14.1825 8.91795 14.1825 9.11318V19.484C14.1825 19.6697 14.0449 19.8072 13.8497 19.8072ZM18.3862 16.9294V11.67C18.3862 10.013 17.4588 8.98756 15.9968 8.98756H15.3211V19.5979H15.9968C17.4588 19.5979 18.3862 18.5629 18.3862 16.9294ZM7.8553 17.1122V15.2194H4.41609V17.1122H7.8553ZM7.8553 13.2469V11.3519H4.41609V13.2469H7.8553Z" fill="black"/>
<path d="M21.5924 19.0197C21.8425 18.5557 21.6679 17.981 21.2038 17.7213C20.7323 17.4733 20.1672 17.6479 19.9075 18.1216C19.6595 18.5911 19.8341 19.1465 20.3057 19.4041C20.7698 19.6542 21.3444 19.4796 21.5924 19.0197ZM21.7051 14.2821C21.7051 13.751 21.2784 13.3338 20.7473 13.3338C20.2204 13.3338 19.8032 13.751 19.8032 14.2821C19.8032 14.809 20.2204 15.2358 20.7473 15.2358C21.2784 15.2358 21.7051 14.809 21.7051 14.2821ZM21.5924 9.55405C21.3444 9.10381 20.7698 8.9292 20.3057 9.17928C19.8341 9.42725 19.6595 9.99232 19.9075 10.4522C20.1672 10.9354 20.7323 11.1004 21.2038 10.8525C21.6679 10.6024 21.8425 10.0277 21.5924 9.55405Z" fill="black"/>
<path d="M24.4737 20.5523C24.7238 20.0808 24.5396 19.5061 24.0755 19.256C23.6018 19.0176 23.0389 19.1922 22.793 19.6542C22.5526 20.1183 22.7154 20.6929 23.1774 20.9409C23.6415 21.191 24.2236 21.0164 24.4737 20.5523ZM24.9591 14.2821C24.9591 13.7552 24.5323 13.338 24.0012 13.338C23.4743 13.338 23.0572 13.7552 23.0572 14.2821C23.0572 14.8111 23.4743 15.24 24.0012 15.24C24.5323 15.24 24.9591 14.8111 24.9591 14.2821ZM24.4737 8.03108C24.2236 7.56702 23.6415 7.39241 23.1774 7.64249C22.7154 7.89045 22.5526 8.46514 22.793 8.9292C23.0389 9.38154 23.6018 9.56576 24.0755 9.3274C24.5396 9.07732 24.7238 8.49303 24.4737 8.03108Z" fill="black"/>
<path d="M27.3384 22.087C27.5864 21.6251 27.4214 21.0408 26.9477 20.7907C26.4762 20.5427 25.9132 20.7269 25.6652 21.1889C25.4151 21.6508 25.5876 22.2255 26.0592 22.4735C26.5233 22.714 27.0883 22.549 27.3384 22.087ZM28.2232 14.2821C28.2232 13.7552 27.7964 13.338 27.2653 13.338C26.7384 13.338 26.3212 13.7552 26.3212 14.2821C26.3212 14.8111 26.7384 15.24 27.2653 15.24C27.7964 15.24 28.2232 14.8111 28.2232 14.2821ZM27.3384 6.4985C27.0883 6.03444 26.5233 5.86944 26.0592 6.10991C25.5876 6.35788 25.4151 6.92295 25.6652 7.39662C25.9132 7.85647 26.4762 8.04068 26.9477 7.79272C27.4214 7.54264 27.5864 6.95834 27.3384 6.4985Z" fill="black"/>
</svg>
