<svg width="28" height="28" viewBox="0 0 28 28" fill="none" xmlns="http://www.w3.org/2000/svg">
<path d="M3.34082 9.47138C3.81778 9.47138 4.20426 9.08279 4.20426 8.61756C4.20426 8.15233 3.81989 7.76373 3.34082 7.76373C2.87348 7.76373 2.48911 8.15233 2.48911 8.61756C2.48911 9.08279 2.87559 9.47138 3.34082 9.47138ZM3.34082 12.2579C3.81778 12.2579 4.20426 11.8693 4.20426 11.4062C4.20426 10.9292 3.81989 10.5544 3.34082 10.5544C2.87348 10.5544 2.48911 10.9292 2.48911 11.4062C2.48911 11.8693 2.87559 12.2579 3.34082 12.2579ZM3.34082 15.0465C3.81778 15.0465 4.20426 14.6462 4.20426 14.1926C4.20426 13.7199 3.81989 13.3313 3.34082 13.3313C2.87348 13.3313 2.48911 13.7199 2.48911 14.1926C2.48911 14.6462 2.87559 15.0465 3.34082 15.0465ZM3.34082 17.8351C3.81778 17.8351 4.20426 17.4369 4.20426 16.9833C4.20426 16.5064 3.81989 16.122 3.34082 16.122C2.87348 16.122 2.48911 16.5064 2.48911 16.9833C2.48911 17.4369 2.87559 17.8351 3.34082 17.8351ZM3.34082 20.6258C3.81778 20.6258 4.20426 20.2276 4.20426 19.7623C4.20426 19.295 3.81989 18.9127 3.34082 18.9127C2.87348 18.9127 2.48911 19.295 2.48911 19.7623C2.48911 20.2276 2.87559 20.6258 3.34082 20.6258ZM3.34082 26.3778C3.8902 26.3778 4.34278 25.9327 4.34278 25.3855V22.6915C4.34278 22.1464 3.8902 21.6992 3.34082 21.6992C2.79356 21.6992 2.35059 22.1464 2.35059 22.6915V25.3855C2.35059 25.9327 2.80317 26.3778 3.34082 26.3778Z" fill="black"/>
<path d="M6.31233 6.6882H24.0433C25.3349 6.6882 26.3837 5.63938 26.3837 4.34352C26.3837 3.04977 25.3349 2.00305 24.0433 2.00305H6.31233C6.81811 2.64196 7.12585 3.45758 7.12585 4.34352C7.12585 5.23157 6.81811 6.04508 6.31233 6.6882ZM3.34046 6.6882C4.63421 6.6882 5.68304 5.63938 5.68304 4.34352C5.68304 3.04977 4.63421 2.00305 3.34046 2.00305C2.04883 2.00305 1 3.04977 1 4.34352C1 5.63938 2.04883 6.6882 3.34046 6.6882Z" fill="black"/>
</svg>
