<svg width="28" height="28" viewBox="0 0 28 28" fill="none" xmlns="http://www.w3.org/2000/svg">
<path d="M17.1574 1.77039L12.6101 14.2876C12.4366 14.7761 12.6792 15.3081 13.1676 15.4815C13.6603 15.6667 14.1902 15.4028 14.3637 14.9357L18.9281 2.41633C19.1015 1.93 18.8515 1.39797 18.3609 1.21282C17.8821 1.03188 17.3287 1.29368 17.1574 1.77039ZM11.9084 13.9014L16.3594 1.64852C14.0787 1.08485 11.9119 1.53555 10.297 2.93337L10.0744 2.85556C8.54742 2.33032 7.14375 3.11735 6.48562 4.91383L1.30758 19.1601C0.898831 20.2895 1.36313 21.3346 2.53992 21.7773C3.69702 22.1669 4.7571 21.6859 5.15624 20.5799L9.16663 9.55516L8.38804 9.98781C8.92687 11.6774 10.1543 13.0373 11.9084 13.9014ZM3.49382 21.3648L2.09367 20.852L0 26.6069L1.40015 27.1197L3.49382 21.3648Z" fill="black"/>
<path d="M18.1417 14.1135C18.5526 13.7462 18.5866 13.1598 18.2385 12.7565C17.8734 12.3477 17.2677 12.2924 16.874 12.6714C16.4844 13.0558 16.4526 13.6422 16.8156 14.0338C17.1733 14.4062 17.7597 14.4669 18.1417 14.1135ZM19.8681 9.72201C20.0491 9.2399 19.7798 8.68537 19.288 8.51404C18.7963 8.33522 18.2439 8.57358 18.063 9.07279C17.882 9.57412 18.13 10.1479 18.6292 10.3309C19.1326 10.5097 19.6776 10.2426 19.8681 9.72201ZM21.3637 5.30944C21.2636 4.79428 20.8103 4.45584 20.2717 4.5367C19.7373 4.61545 19.3797 5.06123 19.4563 5.586C19.5276 6.10537 20.0043 6.46302 20.5387 6.40138C21.0773 6.32052 21.4253 5.83631 21.3637 5.30944Z" fill="black"/>
<path d="M20.3342 16.5355C20.7375 16.1725 20.7619 15.5626 20.3925 15.1497C20.0541 14.789 19.4602 14.7571 19.061 15.1148C18.6769 15.4607 18.645 16.0684 18.9792 16.4366C19.3582 16.8304 19.9446 16.8836 20.3342 16.5355ZM22.9188 10.8618C23.1019 10.3701 22.8443 9.82515 22.3409 9.64632C21.8492 9.46538 21.3256 9.70374 21.1446 10.2126C20.9637 10.6968 21.202 11.2417 21.7034 11.4205C22.2047 11.6015 22.74 11.3535 22.9188 10.8618ZM24.5784 4.86554C24.5168 4.33656 24.0155 3.98101 23.4961 4.05226C22.9906 4.14062 22.6137 4.61523 22.6849 5.15382C22.7658 5.64015 23.2458 6.0053 23.7748 5.94577C24.292 5.86491 24.6593 5.3828 24.5784 4.86554Z" fill="black"/>
<path d="M22.5135 18.9383C22.8817 18.5828 22.9349 18.0156 22.589 17.593C22.2334 17.2035 21.6236 17.1908 21.2458 17.556C20.8734 17.9019 20.8105 18.4926 21.1565 18.88C21.512 19.2812 22.1294 19.296 22.5135 18.9383ZM25.9928 11.961C26.1737 11.4693 25.914 10.9265 25.4223 10.7434C24.9231 10.5646 24.3686 10.8126 24.1855 11.3043C24.0067 11.796 24.2547 12.3815 24.756 12.5603C25.2552 12.7412 25.8098 12.4644 25.9928 11.961ZM27.8069 4.42373C27.7143 3.89475 27.2493 3.52749 26.732 3.59874C26.2051 3.65827 25.8475 4.17342 25.9284 4.67147C25.9996 5.19623 26.4742 5.55389 26.9894 5.47303C27.5162 5.4135 27.8835 4.91967 27.8069 4.42373Z" fill="black"/>
</svg>
