<svg width="28" height="28" viewBox="0 0 28 28" fill="none" xmlns="http://www.w3.org/2000/svg">
<path d="M4.90226 26.1518H11.3073C10.7445 25.5124 10.3147 24.7519 10.0463 23.9297H5.06444C4.56967 23.9297 4.22421 23.5938 4.22421 23.0798V3.96584C4.22421 3.44975 4.56967 3.10639 5.06444 3.10639H19.9362C20.4301 3.10639 20.7533 3.44131 20.7533 3.94053V14.4012C21.5553 14.5303 22.2945 14.8071 22.9796 15.2008V3.86647C22.9796 2.09156 21.8054 0.884293 20.0848 0.884293H4.90226C3.17 0.884293 2 2.09156 2 3.86647V23.1792C2 24.9541 3.17 26.1518 4.90226 26.1518ZM6.80819 6.35154C7.42037 6.35154 7.91326 5.84904 7.91326 5.23686C7.91326 4.63428 7.42037 4.13178 6.80819 4.13178C6.20561 4.13178 5.70311 4.63428 5.70311 5.23686C5.70311 5.84904 6.20561 6.35154 6.80819 6.35154ZM9.94412 6.35154C10.5584 6.35154 11.0513 5.84904 11.0513 5.23686C11.0513 4.63428 10.5584 4.13178 9.94412 4.13178C9.34154 4.13178 8.84865 4.63428 8.84865 5.23686C8.84865 5.84904 9.34154 6.35154 9.94412 6.35154ZM3.26749 9.08083H21.7196V7.40014H3.26749V9.08083ZM9.71842 11.7867H15.2708C15.6708 11.7867 15.9474 11.5005 15.9474 11.1004C15.9474 10.7004 15.6708 10.4259 15.2708 10.4259H9.71842C9.31835 10.4259 9.03218 10.7004 9.03218 11.1004C9.03218 11.5005 9.31835 11.7867 9.71842 11.7867ZM3.1435 22.5007H9.63148C9.54288 21.8812 9.55015 21.3832 9.61483 20.82H3.1435V22.5007Z" fill="black"/>
<path d="M16.736 27.2207C19.9615 27.2207 22.564 24.6279 22.564 21.3907C22.564 18.146 19.9615 15.5531 16.736 15.5531C13.5009 15.5531 10.8984 18.146 10.8984 21.3907C10.8984 24.6279 13.5009 27.2207 16.736 27.2207ZM16.736 25.8558C14.1616 25.8558 12.2592 23.9458 12.2592 21.3907C12.2592 18.8259 14.1616 16.916 16.736 16.916C19.2912 16.916 21.2032 18.8259 21.2032 21.3907C21.2032 23.9458 19.2912 25.8558 16.736 25.8558ZM16.736 24.9431C18.6832 24.9431 20.2884 23.3475 20.2884 21.3907C20.2884 19.4339 18.6832 17.8383 16.736 17.8383C14.7696 17.8383 13.174 19.4339 13.174 21.3907C13.174 23.3475 14.7696 24.9431 16.736 24.9431ZM16.736 23.767C15.338 23.767 14.3501 22.777 14.3501 21.3907C14.3501 19.9947 15.338 19.0143 16.736 19.0143C18.1341 19.0143 19.1123 19.9947 19.1123 21.3907C19.1123 22.7866 18.1244 23.767 16.736 23.767ZM19.2565 27.2207C22.4798 27.2207 25.0823 24.6279 25.0823 21.3907C25.0823 18.146 22.4798 15.5531 19.2565 15.5531C18.5126 15.5531 17.8017 15.6914 17.1684 15.9583L18.7071 16.949C18.8934 16.9277 19.068 16.916 19.2565 16.916C21.8191 16.916 23.7215 18.8259 23.7215 21.3907C23.7215 23.9458 21.8191 25.8558 19.2565 25.8558C19.0659 25.8558 18.8796 25.844 18.6923 25.8302L17.591 26.9772C18.12 27.1432 18.6776 27.2207 19.2565 27.2207Z" fill="black"/>
</svg>
