<svg width="28" height="28" viewBox="0 0 28 28" fill="none" xmlns="http://www.w3.org/2000/svg">
<path d="M6.84421 24.8972H21.7931C24.3225 24.8972 25.6373 23.5919 25.6373 21.0914V6.82921C25.6373 4.32656 24.3225 3.02344 21.7931 3.02344H6.84421C4.31484 3.02344 3 4.31695 3 6.82921V21.0914C3 23.6016 4.31484 24.8972 6.84421 24.8972Z" fill="black"/>
<path d="M10.2471 19.0188C9.20972 19.0188 8.36621 18.1753 8.36621 17.138C8.36621 16.1081 9.20972 15.2688 10.2471 15.2688C11.2769 15.2688 12.1087 16.1081 12.1087 17.138C12.1087 18.1753 11.2769 19.0188 10.2471 19.0188ZM18.3993 19.0188C17.3599 19.0188 16.5281 18.1753 16.5281 17.138C16.5281 16.1081 17.3599 15.2688 18.3993 15.2688C19.4174 15.2688 20.2706 16.1081 20.2706 17.138C20.2706 18.1753 19.4174 19.0188 18.3993 19.0188ZM14.3184 12.6262C13.281 12.6262 12.4375 11.7848 12.4375 10.7454C12.4375 9.71762 13.281 8.87622 14.3184 8.87622C15.3461 8.87622 16.1896 9.71762 16.1896 10.7454C16.1896 11.7848 15.3461 12.6262 14.3184 12.6262Z" fill="white"/>
</svg>
