<svg width="28" height="29" viewBox="0 0 28 29" fill="none" xmlns="http://www.w3.org/2000/svg">
<path d="M10.2126 28.0244H17.9697C19.967 28.0244 21.1822 26.8507 21.1822 24.9609V3.05601C21.1822 1.16625 19.967 0 17.9697 0H10.2126C8.21523 0 7 1.16625 7 3.05601V24.9609C7 26.8507 8.21523 28.0244 10.2126 28.0244ZM14.8389 4.48147C14.4001 4.48147 14.0434 4.13437 14.0434 3.69983C14.0434 3.25687 14.4001 2.90226 14.8389 2.90226H17.436C17.8726 2.90226 18.2176 3.25687 18.2176 3.69983C18.2176 4.13437 17.8726 4.48147 17.436 4.48147H14.8389ZM11.1011 9.17131C10.4376 9.17131 9.89335 8.6367 9.89335 7.95186C9.89335 7.30006 10.4376 6.74413 11.1011 6.74413C11.7784 6.74413 12.3226 7.30006 12.3226 7.95186C12.3226 8.6367 11.7784 9.17131 11.1011 9.17131ZM14.0901 9.17131C13.4148 9.17131 12.8823 8.6367 12.8823 7.95186C12.8823 7.30006 13.4127 6.74413 14.0901 6.74413C14.7695 6.74413 15.2999 7.30006 15.2999 7.95186C15.2999 8.6367 14.7674 9.17131 14.0901 9.17131ZM17.0929 9.17131C16.4155 9.17131 15.883 8.6367 15.883 7.95186C15.883 7.30006 16.4134 6.74413 17.0929 6.74413C17.7564 6.74413 18.3006 7.30006 18.3006 7.95186C18.3006 8.6367 17.7564 9.17131 17.0929 9.17131ZM11.1011 12.5779C10.4376 12.5779 9.89335 12.0433 9.89335 11.3702C9.89335 10.7184 10.4376 10.1625 11.1011 10.1625C11.7784 10.1625 12.3226 10.7184 12.3226 11.3702C12.3226 12.0433 11.7784 12.5779 11.1011 12.5779ZM14.0901 12.5779C13.4148 12.5779 12.8823 12.0433 12.8823 11.3702C12.8823 10.7184 13.4127 10.1625 14.0901 10.1625C14.7695 10.1625 15.2999 10.7184 15.2999 11.3702C15.2999 12.0433 14.7674 12.5779 14.0901 12.5779ZM17.0929 12.5779C16.4155 12.5779 15.883 12.0433 15.883 11.3702C15.883 10.7184 16.4134 10.1625 17.0929 10.1625C17.7564 10.1625 18.3006 10.7184 18.3006 11.3702C18.3006 12.0433 17.7564 12.5779 17.0929 12.5779ZM11.1011 15.9867C10.4376 15.9867 9.89335 15.4617 9.89335 14.779C9.89335 14.1155 10.4376 13.5712 11.1011 13.5712C11.7784 13.5712 12.3226 14.1155 12.3226 14.779C12.3226 15.4617 11.7784 15.9867 11.1011 15.9867ZM14.0901 15.9867C13.4148 15.9867 12.8823 15.4425 12.8823 14.779C12.8823 14.1016 13.4148 13.5712 14.0901 13.5712C14.7674 13.5712 15.2999 14.1016 15.2999 14.779C15.2999 15.4425 14.7674 15.9867 14.0901 15.9867ZM17.0929 15.9867C16.4155 15.9867 15.883 15.4425 15.883 14.779C15.883 14.1016 16.4155 13.5712 17.0929 13.5712C17.7564 13.5712 18.3006 14.1016 18.3006 14.779C18.3006 15.4425 17.7564 15.9867 17.0929 15.9867ZM10.8412 24.0309C10.3183 24.0309 9.89335 23.6039 9.89335 23.0852V18.8416C9.89335 18.3229 10.3183 17.9034 10.8412 17.9034C11.3619 17.9034 11.7815 18.3229 11.7815 18.8416V23.0852C11.7815 23.6039 11.3619 24.0309 10.8412 24.0309ZM13.4903 20.5418C13.0804 20.5418 12.8355 20.2767 12.8355 19.8731V19.0816C12.8355 18.6705 13.0804 18.4076 13.4903 18.4076H14.6823C15.1136 18.4076 15.3447 18.6705 15.3447 19.0816V19.8731C15.3447 20.2767 15.1136 20.5418 14.6823 20.5418H13.4903ZM13.4903 23.5076C13.0825 23.5076 12.8355 23.2659 12.8355 22.8527V22.0633C12.8355 21.6459 13.0804 21.3968 13.4903 21.3968H14.6823C15.1136 21.3968 15.3447 21.6459 15.3447 22.0633V22.8527C15.3447 23.2659 15.1136 23.5076 14.6823 23.5076H13.4903ZM17.3507 24.0309C16.832 24.0309 16.4125 23.6039 16.4125 23.0852V18.8416C16.4125 18.3229 16.832 17.9034 17.3507 17.9034C17.8757 17.9034 18.3006 18.3229 18.3006 18.8416V23.0852C18.3006 23.6039 17.8757 24.0309 17.3507 24.0309Z" fill="black"/>
</svg>
