<svg width="32" height="28" viewBox="0 0 32 28" fill="none" xmlns="http://www.w3.org/2000/svg">
<path d="M4.01758 13.082V6.61348C4.01758 6.4302 4.13265 6.2959 4.30633 6.2959H14.6005V13.082H4.01758ZM16.4542 13.082V6.2959H26.758C26.9317 6.2959 27.0468 6.4302 27.0468 6.61348V13.082H16.4542ZM4.01758 21.8214V15.0833H14.6005V21.8214H4.01758ZM16.4542 21.8214V15.0833H27.0468V21.8214H16.4542Z" fill="white"/>
<path d="M0 22.9944C0 23.6432 0.533903 24.1654 1.17304 24.1654H29.9076C30.5564 24.1654 31.0807 23.6432 31.0807 22.9944C31.0807 22.3457 30.5564 21.8214 29.9076 21.8214H29.3444V6.05827C29.3444 4.82757 28.5051 4 27.236 4H3.81795C2.55843 4 1.71163 4.82757 1.71163 6.05827V21.8214H1.17304C0.533903 21.8214 0 22.3457 0 22.9944ZM4.01717 13.082V6.6135C4.01717 6.43022 4.13224 6.29592 4.30592 6.29592H14.6001V13.082H4.01717ZM16.4538 13.082V6.29592H26.7576C26.9313 6.29592 27.0464 6.43022 27.0464 6.6135V13.082H16.4538ZM4.01717 21.8214V15.0833H14.6001V21.8214H4.01717ZM16.4538 21.8214V15.0833H27.0464V21.8214H16.4538Z" fill="black"/>
</svg>
