<svg width="29" height="28" viewBox="0 0 29 28" fill="none" xmlns="http://www.w3.org/2000/svg">
<path d="M6.13827 25.6662H21.5079C25.552 25.6662 28.6844 22.604 28.6844 18.6762C28.6844 14.711 25.5208 11.7014 21.1919 11.7014C19.6101 8.58023 16.736 6.72937 13.1871 6.72937C8.57273 6.72937 4.6814 10.2314 4.20375 14.9662C1.79461 15.6869 0.210467 17.7042 0.210467 20.2244C0.210467 23.2666 2.4389 25.6662 6.13827 25.6662ZM1.67859 13.8919C2.59992 13.8919 3.34336 13.1484 3.34336 12.2133C3.34336 11.292 2.59992 10.5485 1.67859 10.5485C0.743437 10.5485 0 11.292 0 12.2133C0 13.1484 0.743437 13.8919 1.67859 13.8919ZM19.2147 6.15164C20.0775 6.15164 20.7858 5.44336 20.7858 4.58062C20.7858 3.71789 20.0775 3 19.2147 3C18.352 3 17.6437 3.71789 17.6437 4.58062C17.6437 5.44336 18.352 6.15164 19.2147 6.15164ZM24.2601 10.297C25.5574 10.297 26.598 9.25429 26.598 7.93781C26.598 6.63093 25.5574 5.5882 24.2601 5.5882C22.9415 5.5882 21.8892 6.63093 21.8892 7.93781C21.8892 9.25429 22.9415 10.297 24.2601 10.297Z" fill="black"/>
<path d="M10.2799 21.5822C8.14969 21.5822 7.3125 19.7585 7.3125 17.6665C7.3125 15.5372 8.22422 13.7913 10.2426 13.7913C11.8488 13.7913 12.8531 14.9353 12.8819 16.189C12.8915 16.6479 12.6168 16.9544 12.2081 16.9544C11.8216 16.9544 11.613 16.7362 11.5012 16.2912C11.3765 15.7092 11.0674 15.0912 10.2661 15.0912C9.13969 15.0912 8.7539 16.3762 8.7539 17.6665C8.7539 19.043 9.11625 20.2802 10.2799 20.2802C11.0791 20.2802 11.4159 19.6547 11.5427 19.0748C11.6482 18.6298 11.8525 18.4116 12.2453 18.4116C12.652 18.4116 12.9267 18.7277 12.9171 19.177C12.8882 20.4286 11.8839 21.5822 10.2799 21.5822ZM16.365 21.5822C14.5575 21.5822 13.421 20.0632 13.421 17.6878C13.421 15.3028 14.5575 13.7913 16.3553 13.7913C18.1586 13.7913 19.2834 15.3028 19.2834 17.6878C19.2834 20.0632 18.1586 21.5822 16.365 21.5822ZM20.2471 21.9949C19.9938 21.9949 19.799 21.7884 19.799 21.5233C19.799 21.3743 19.8778 21.172 19.9938 21.056L20.9397 20.1089C21.1912 19.8478 21.4565 19.5314 21.4565 19.2766C21.4565 19.1198 21.3445 19.0036 21.1781 19.0036C21.0074 19.0036 20.8987 19.1081 20.8284 19.3277C20.7442 19.5002 20.6069 19.7344 20.2907 19.7344C20.0235 19.7344 19.7894 19.5279 19.7894 19.1979C19.7894 18.6675 20.3186 18.0253 21.1685 18.0253C21.963 18.0253 22.5487 18.544 22.5487 19.2511C22.5487 19.7484 22.1878 20.1916 21.7094 20.673L21.3754 21.0305H22.2253C22.4786 21.0305 22.6968 21.2583 22.6968 21.502C22.6968 21.7692 22.4903 21.9949 22.2253 21.9949H20.2471ZM16.365 20.2802C17.2868 20.2802 17.8558 19.335 17.8558 17.6878C17.8558 16.0406 17.2868 15.0912 16.3553 15.0912C15.4293 15.0912 14.8603 16.0406 14.8603 17.6878C14.8603 19.335 15.4293 20.2802 16.365 20.2802Z" fill="white"/>
</svg>
