<svg width="28" height="29" viewBox="0 0 28 29" fill="none" xmlns="http://www.w3.org/2000/svg">
<path d="M5.79827 26.1232H16.7208C19.2043 26.1232 20.5095 24.8201 20.5095 22.3655V13.3355C19.8303 13.6704 19.1194 14.1651 18.2136 14.4916V22.1747C18.2136 23.2556 17.6101 23.8273 16.5781 23.8273H5.93139C4.89733 23.8273 4.29592 23.2556 4.29592 22.1747V3.95061C4.29592 2.85795 4.89733 2.29592 5.93139 2.29592H16.7958C17.6949 1.68632 18.5248 1.31671 19.3885 1.05421C18.8316 0.364449 17.9058 0 16.6632 0H5.79827C3.32445 0 2 1.29562 2 3.74812V22.3655C2 24.8201 3.32445 26.1232 5.79827 26.1232ZM7.41826 7.24615C8.3417 7.24615 9.10857 6.47928 9.10857 5.54201C9.10857 4.62069 8.3417 3.86342 7.41826 3.86342C6.481 3.86342 5.72584 4.62069 5.72584 5.54201C5.72584 6.47928 6.481 7.24615 7.41826 7.24615ZM6.45709 16.3798H9.74702C10.1963 16.3798 10.5434 16.0401 10.5434 15.593C10.5434 15.1533 10.1963 14.8019 9.74702 14.8019H6.45709C6.0174 14.8019 5.66819 15.1533 5.66819 15.593C5.66819 16.0401 6.0174 16.3798 6.45709 16.3798ZM6.45709 19.2968H9.74702C10.1963 19.2968 10.5434 18.9551 10.5434 18.5079C10.5434 18.0607 10.1963 17.719 9.74702 17.719H6.45709C6.0174 17.719 5.66819 18.0607 5.66819 18.5079C5.66819 18.9551 6.0174 19.2968 6.45709 19.2968ZM6.45709 22.2138H9.74702C10.1963 22.2138 10.5434 21.8625 10.5434 21.4249C10.5434 20.9756 10.1963 20.6243 9.74702 20.6243H6.45709C6.0174 20.6243 5.66819 20.9756 5.66819 21.4249C5.66819 21.8625 6.0174 22.2138 6.45709 22.2138ZM12.7625 16.3798H16.0524C16.4921 16.3798 16.8413 16.0401 16.8413 15.593C16.8413 15.1533 16.4921 14.8019 16.0524 14.8019H12.7625C12.3132 14.8019 11.964 15.1533 11.964 15.593C11.964 16.0401 12.3132 16.3798 12.7625 16.3798ZM12.7625 19.2968H16.0524C16.4921 19.2968 16.8413 18.9551 16.8413 18.5079C16.8413 18.0607 16.4921 17.719 16.0524 17.719H12.7625C12.3132 17.719 11.964 18.0607 11.964 18.5079C11.964 18.9551 12.3132 19.2968 12.7625 19.2968ZM12.7625 22.2138H16.0524C16.4921 22.2138 16.8413 21.8625 16.8413 21.4249C16.8413 20.9756 16.4921 20.6243 16.0524 20.6243H12.7625C12.3132 20.6243 11.964 20.9756 11.964 21.4249C11.964 21.8625 12.3132 22.2138 12.7625 22.2138ZM5.47648 28.3375C6.11281 28.3375 6.54476 27.8939 6.54476 27.2576V24.8257H4.39649V27.2576C4.39649 27.8939 4.84016 28.3375 5.47648 28.3375ZM17.033 28.3375C17.679 28.3375 18.113 27.8939 18.113 27.2576V24.8257H15.9647V27.2576C15.9647 27.8939 16.3967 28.3375 17.033 28.3375Z" fill="black"/>
<path d="M14.9463 6.54115C18.0668 6.54115 19.6662 3.98975 22.3418 3.98975C22.962 3.98975 23.4724 4.11865 24.1352 4.47256C24.5634 4.70061 24.9616 4.55342 25.1681 4.25858C25.414 3.8892 25.3748 3.35249 24.8508 3.05108C24.0698 2.59827 23.2282 2.37561 22.3418 2.37561C19.1829 2.37561 17.5856 4.94085 14.9463 4.94085C14.3262 4.94085 13.8157 4.79389 13.155 4.43459C12.7397 4.21616 12.3223 4.35374 12.1221 4.67952C11.8859 5.03928 11.9346 5.57389 12.4352 5.86358C13.2087 6.33772 14.0578 6.54115 14.9463 6.54115ZM14.9559 9.77483C18.0668 9.77483 19.6758 7.21381 22.3418 7.21381C22.9716 7.21381 23.482 7.34272 24.1448 7.70624C24.5634 7.93428 24.9712 7.78709 25.1777 7.48264C25.414 7.12288 25.3845 6.57444 24.8721 6.27514C24.0795 5.82233 23.2282 5.59968 22.3418 5.59968C19.1925 5.59968 17.5952 8.17663 14.9559 8.17663C14.3262 8.17663 13.8157 8.01796 13.1646 7.66827C12.7493 7.44022 12.3223 7.58741 12.1221 7.91319C11.8859 8.27295 11.9346 8.80967 12.4491 9.09725C13.2183 9.55967 14.0695 9.77483 14.9559 9.77483ZM14.9463 12.9968C18.0668 12.9968 19.6662 10.4496 22.3418 10.4496C22.962 10.4496 23.4724 10.5764 24.1352 10.9282C24.5634 11.1562 24.9616 11.009 25.1681 10.7142C25.414 10.3469 25.3748 9.80811 24.8508 9.50882C24.0698 9.05601 23.2282 8.83335 22.3418 8.83335C19.1829 8.83335 17.5856 11.4007 14.9463 11.4007C14.3262 11.4007 13.8157 11.2516 13.155 10.8923C12.7418 10.6718 12.3223 10.8115 12.1221 11.1373C11.8859 11.4949 11.9346 12.0337 12.4394 12.3213C13.2087 12.7933 14.0578 12.9968 14.9463 12.9968Z" fill="black"/>
</svg>
