<svg width="28" height="28" viewBox="0 0 28 28" fill="none" xmlns="http://www.w3.org/2000/svg">
<path d="M6.84421 24.8972H21.7931C24.3225 24.8972 25.6373 23.5919 25.6373 21.0914V6.82921C25.6373 4.32656 24.3225 3.02344 21.7931 3.02344H6.84421C4.31484 3.02344 3 4.31695 3 6.82921V21.0914C3 23.6016 4.31484 24.8972 6.84421 24.8972ZM6.97733 22.6013C5.88772 22.6013 5.29592 22.0371 5.29592 20.8985V7.01999C5.29592 5.88139 5.88772 5.31936 6.97733 5.31936H21.6504C22.7304 5.31936 23.3414 5.88139 23.3414 7.01999V20.8985C23.3414 22.0371 22.7304 22.6013 21.6504 22.6013H6.97733Z" fill="black"/>
<path d="M13.8505 12.6359H14.7765C15.2234 12.6359 15.5171 12.3326 15.5171 11.8857V8.57347C15.5171 8.13073 15.2213 7.82324 14.7765 7.82324H13.8505C13.4152 7.82324 13.1098 8.13073 13.1098 8.57347V11.8857C13.1098 12.3326 13.4131 12.6359 13.8505 12.6359ZM8.8334 19.4761H11.814C12.2609 19.4761 12.5567 19.1824 12.5567 18.7355V17.8052C12.5567 17.3646 12.2588 17.0667 11.814 17.0667H8.8334C8.38855 17.0667 8.09277 17.3742 8.09277 17.8052V18.7355C8.09277 19.1824 8.38644 19.4761 8.8334 19.4761ZM16.8226 19.4761H19.7977C20.2501 19.4761 20.548 19.1782 20.548 18.7355V17.8052C20.548 17.3742 20.2383 17.0667 19.7977 17.0667H16.8226C16.3777 17.0667 16.0702 17.3646 16.0702 17.8052V18.7355C16.0702 19.1824 16.3756 19.4761 16.8226 19.4761Z" fill="black"/>
</svg>
