<svg width="28" height="28" viewBox="0 0 28 28" fill="none" xmlns="http://www.w3.org/2000/svg">
<path d="M8.80577 27.0316H18.9097C21.4102 27.0316 22.7154 25.7284 22.7154 23.197V4.84421C22.7154 2.32234 21.4102 1 18.9097 1H8.80577C6.29562 1 5 2.32234 5 4.84421V23.197C5 25.7284 6.29562 27.0316 8.80577 27.0316Z" fill="black"/>
<path d="M9.76172 11.8565C9.07382 11.8565 8.78906 11.5771 8.78906 10.8988V5.49343C8.78906 4.80343 9.07382 4.53577 9.76172 4.53577H17.9039C18.6014 4.53577 18.8862 4.80343 18.8862 5.49343V10.8988C18.8862 11.5771 18.6014 11.8565 17.9039 11.8565H9.76172ZM9.76172 23.5054C9.07382 23.5054 8.78906 23.2377 8.78906 22.5477V17.1423C8.78906 16.4641 9.07382 16.1847 9.76172 16.1847H17.9039C18.6014 16.1847 18.8862 16.4641 18.8862 17.1423V22.5477C18.8862 23.2377 18.6014 23.5054 17.9039 23.5054H9.76172Z" fill="white"/>
</svg>
