<svg width="28" height="28" viewBox="0 0 28 28" fill="none" xmlns="http://www.w3.org/2000/svg">
<path d="M23.3611 26.7143L19.8012 22.4705C19.4412 22.0498 19.3859 21.9476 19.2473 21.5098L19.0275 20.8289L20.9901 18.3668L21.5421 20.9562L25.0563 25.1213C26.2085 26.5046 24.3173 27.8548 23.3611 26.7143ZM14.7429 26.3522C13.9868 27.8804 11.7293 26.9358 12.5482 25.2746L14.9684 20.3778C15.1559 20.0103 15.4041 19.6097 15.6469 19.2765L17.1628 17.1235L17.0658 16.824C16.6598 15.5799 16.4948 14.8428 16.4107 13.6231L16.1742 10.1942C16.0528 8.53604 17.0421 7.29198 18.7186 7.29198C19.9882 7.29198 20.8434 7.93205 21.9949 9.0601L23.8111 10.8486C24.4055 11.4312 24.6035 11.9147 24.6642 12.7018L24.889 15.5033C24.9518 16.2359 24.5301 16.7534 23.854 16.7768C23.1682 16.8258 22.7466 16.4138 22.6859 15.6385L22.4259 12.5822L21.5883 11.8341C21.3005 11.5697 20.9072 11.7425 20.9306 12.0568L21.1181 14.6C21.2236 15.9092 20.9252 16.5535 19.9955 17.7005L17.5987 20.7129C17.3569 21.0155 17.3292 21.1285 17.2216 21.3244L14.7429 26.3522ZM10.5921 11.9192H13.3022L14.9667 10.0852L15.1765 13.0423L14.5938 13.6229C14.2062 14.0105 13.8537 14.134 13.1391 14.134H10.5921C9.84351 14.134 9.36328 13.7124 9.36328 13.0266C9.36328 12.3622 9.85523 11.9192 10.5921 11.9192ZM17.3819 6.2858C15.926 6.2858 14.7534 5.10362 14.7534 3.65729C14.7534 2.20136 15.926 1.03088 17.3819 1.03088C18.8379 1.03088 20.0105 2.20136 20.0105 3.65729C20.0105 5.10362 18.8379 6.2858 17.3819 6.2858Z" fill="black"/>
<path d="M2 26.2326C2 26.8813 2.5339 27.4056 3.17304 27.4056C3.81967 27.4056 4.35358 26.8813 4.35358 26.2326V2.17304C4.35358 1.52429 3.81967 1 3.17304 1C2.5339 1 2 1.52429 2 2.17304V26.2326Z" fill="black"/>
</svg>
