<svg width="34" height="28" viewBox="0 0 34 28" fill="none" xmlns="http://www.w3.org/2000/svg">
<path d="M16.8005 24.5422C26.7881 24.5422 33.6403 19.9312 33.6403 14.2759C33.6403 8.6207 26.7881 4 16.8005 4C6.84046 4 0 8.6207 0 14.2759C0 19.9312 6.84046 24.5422 16.8005 24.5422ZM16.8005 22.4448C8.03882 22.4448 2.09952 18.6351 2.09952 14.2759C2.09952 9.91467 8.03882 6.10702 16.8005 6.10702C25.5919 6.10702 31.5429 9.91467 31.5429 14.2759C31.5429 18.6351 25.5919 22.4448 16.8005 22.4448ZM16.8005 20.7407C23.0878 20.7407 27.7751 18.1042 27.7751 14.5691C27.7751 11.05 23.0974 8.42523 16.8005 8.42523C10.5387 8.42523 5.87483 11.05 5.87483 14.5691C5.87483 18.1138 10.5387 20.7407 16.8005 20.7407ZM16.8005 18.8045C11.7635 18.8045 7.8342 16.8395 7.8342 14.5691C7.8342 12.3072 11.7539 10.3635 16.8005 10.3635C21.8726 10.3635 25.8178 12.3072 25.8178 14.5691C25.8178 16.8395 21.8534 18.8045 16.8005 18.8045ZM16.7972 15.2819C20.4778 15.2819 23.6135 13.6302 24.7809 11.297C22.5916 10.1214 19.6788 9.49023 16.8005 9.42085C13.8762 9.49023 10.9697 10.1193 8.77288 11.3045C9.94569 13.6398 13.0856 15.2819 16.7972 15.2819Z" fill="black"/>
</svg>
