<svg width="28" height="28" viewBox="0 0 28 28" fill="none" xmlns="http://www.w3.org/2000/svg">
<path d="M6.84421 24.8972H21.7931C24.3225 24.8972 25.6373 23.5919 25.6373 21.0914V6.82921C25.6373 4.32656 24.3225 3.02344 21.7931 3.02344H6.84421C4.31484 3.02344 3 4.31695 3 6.82921V21.0914C3 23.6016 4.31484 24.8972 6.84421 24.8972ZM6.97733 22.6013C5.88772 22.6013 5.29592 22.0371 5.29592 20.8985V7.01999C5.29592 5.88139 5.88772 5.31936 6.97733 5.31936H21.6504C22.7304 5.31936 23.3414 5.88139 23.3414 7.01999V20.8985C23.3414 22.0371 22.7304 22.6013 21.6504 22.6013H6.97733Z" fill="black"/>
<path d="M10.4123 19.4555C11.3923 19.4555 12.1922 18.6459 12.1922 17.6564C12.1922 16.6744 11.3923 15.867 10.4123 15.867C9.4132 15.867 8.61328 16.6744 8.61328 17.6564C8.61328 18.6459 9.4132 19.4555 10.4123 19.4555ZM18.235 19.4555C19.215 19.4555 20.0245 18.6459 20.0245 17.6564C20.0245 16.6744 19.215 15.867 18.235 15.867C17.2455 15.867 16.4456 16.6744 16.4456 17.6564C16.4456 18.6459 17.2455 19.4555 18.235 19.4555ZM14.3189 12.0089C15.2988 12.0089 16.1083 11.209 16.1083 10.2098C16.1083 9.2278 15.2988 8.42999 14.3189 8.42999C13.3293 8.42999 12.5198 9.2278 12.5198 10.2098C12.5198 11.209 13.3293 12.0089 14.3189 12.0089Z" fill="black"/>
</svg>
