<svg width="31" height="28" viewBox="0 0 31 28" fill="none" xmlns="http://www.w3.org/2000/svg">
<path d="M8.45364 5C6.77223 5 5.64044 5.60164 4.56396 6.96242L0.847236 11.8025C-0.288777 13.2655 -0.27284 15.2138 0.837626 16.6693L4.55013 21.5584C5.54036 22.8542 6.88192 23.5421 8.45364 23.5421H22.4543C24.026 23.5421 25.3675 22.8542 26.3578 21.5584L30.0703 16.6693C31.1829 15.2117 31.1967 13.2634 30.0607 11.8025L26.344 6.96242C25.2675 5.60164 24.1357 5 22.4543 5H8.45364ZM8.45364 7.24741H22.4543C23.4539 7.24741 23.9156 7.48202 24.573 8.33444L28.2897 13.1703C28.8143 13.8291 28.8047 14.6405 28.2951 15.3015L24.5709 20.1959C23.9976 20.9408 23.3442 21.2968 22.4543 21.2968H8.45364C7.57332 21.2968 6.91988 20.9408 6.33699 20.1959L2.61277 15.3015C2.10324 14.6405 2.10324 13.8291 2.61816 13.1703L6.33488 8.33444C7.00192 7.48202 7.46364 7.24741 8.45364 7.24741Z" fill="black"/>
<path d="M7.90395 12.2208C6.77473 12.2208 5.85645 13.1487 5.85645 14.2683C5.85645 15.388 6.77473 16.3159 7.90395 16.3159C9.02356 16.3159 9.94183 15.388 9.94183 14.2683C9.94183 13.1487 9.02356 12.2208 7.90395 12.2208ZM15.4544 14.9424C14.3347 14.9424 13.4069 15.8607 13.4069 16.9803C13.4069 18.1095 14.3347 19.0278 15.4544 19.0278C16.574 19.0278 17.5019 18.1095 17.5019 16.9803C17.5019 15.8607 16.574 14.9424 15.4544 14.9424ZM23.0048 12.2208C21.8851 12.2208 20.9669 13.1487 20.9669 14.2683C20.9669 15.388 21.8851 16.3159 23.0048 16.3159C24.134 16.3159 25.0523 15.388 25.0523 14.2683C25.0523 13.1487 24.134 12.2208 23.0048 12.2208Z" fill="black"/>
</svg>
