<svg width="28" height="28" viewBox="0 0 28 28" fill="none" xmlns="http://www.w3.org/2000/svg">
<path d="M6.84421 24.8972H21.0295C23.5685 24.8972 24.8737 23.5919 24.8737 21.0914V6.82921C24.8737 4.32656 23.5685 3.02344 21.0295 3.02344H6.84421C4.31484 3.02344 3 4.31695 3 6.82921V21.0914C3 23.6016 4.31484 24.8972 6.84421 24.8972Z" fill="black"/>
<path d="M9.95033 10.1107H17.9242C18.8242 10.1107 19.1657 10.4738 19.6548 10.9683L21.7298 13.0561C22.2287 13.553 22.2287 14.3154 21.7277 14.8101L19.6527 16.9172C19.1636 17.4096 18.726 17.7748 17.9242 17.7748H9.95033C9.14854 17.7748 8.71096 17.4096 8.22183 16.9172L6.1469 14.8101C5.64581 14.3154 5.65542 13.553 6.14479 13.0561L8.21972 10.9683C8.70885 10.4738 9.05034 10.1107 9.95033 10.1107ZM9.50784 12.7242C8.84643 12.7242 8.28721 13.2834 8.28721 13.9448C8.28721 14.6062 8.84643 15.1559 9.50784 15.1559C10.1713 15.1559 10.7306 14.6062 10.7306 13.9448C10.7306 13.2834 10.1713 12.7242 9.50784 12.7242ZM13.941 13.6167C13.27 13.6167 12.7204 14.1759 12.7204 14.8373C12.7204 15.4987 13.27 16.058 13.941 16.058C14.6045 16.058 15.1541 15.4987 15.1541 14.8373C15.1541 14.1759 14.6045 13.6167 13.941 13.6167ZM18.3667 12.7242C17.7032 12.7242 17.1536 13.2834 17.1536 13.9448C17.1536 14.6062 17.7032 15.1559 18.3667 15.1559C19.0281 15.1559 19.5873 14.6062 19.5873 13.9448C19.5873 13.2834 19.0281 12.7242 18.3667 12.7242Z" fill="white"/>
</svg>
