<svg width="37" height="28" viewBox="0 0 37 28" fill="none" xmlns="http://www.w3.org/2000/svg">
<path d="M0 15.5626C0 21.968 6.01359 26.239 15.0726 26.239C24.1476 26.239 30.1591 21.9701 30.1591 15.5626C30.1591 12.792 23.9379 10.617 15.0726 10.617C6.22124 10.617 0 12.792 0 15.5626ZM2.19046 15.5626C2.19046 14.337 8.58209 12.684 15.0726 12.684C21.5653 12.684 27.9666 14.337 27.9666 15.5626C27.9666 16.7433 21.9035 18.3891 15.0726 18.3891C8.24388 18.3891 2.19046 16.7433 2.19046 15.5626ZM27.6759 14.4413L35.4989 9.4707C38.7775 7.39437 35.632 2.40149 31.568 5.36703L22.2776 12.162L27.6759 14.4413ZM8.10585 18.8126L21.0159 18.8511C21.0888 16.2997 19.028 14.5667 16.578 14.5667C15.0588 14.5667 13.7039 15.2316 12.8829 16.28C12.4917 16.1562 12.1294 16.1019 11.6913 16.1019C9.86859 16.1019 8.34304 17.2864 8.10585 18.8126Z" fill="black"/>
</svg>
