<svg width="28" height="28" viewBox="0 0 28 28" fill="none" xmlns="http://www.w3.org/2000/svg">
<path d="M6.84421 24.9267H21.0295C23.5685 24.9267 24.8737 23.6215 24.8737 21.1209V6.85875C24.8737 4.3561 23.5685 3.05298 21.0295 3.05298H6.84421C4.31484 3.05298 3 4.34649 3 6.85875V21.1209C3 23.6311 4.31484 24.9267 6.84421 24.9267Z" fill="black"/>
<path d="M10.7476 20.3815C10.1708 20.3815 9.75781 19.9685 9.75781 19.3917V8.55634C9.75781 7.96994 10.1708 7.55908 10.7476 7.55908H17.1263C17.7031 7.55908 18.1161 7.96994 18.1161 8.55634V19.3917C18.1161 19.9685 17.7031 20.3815 17.1263 20.3815H10.7476ZM11.6349 12.8053H16.239C16.4966 12.8053 16.6733 12.6169 16.6733 12.3455V9.4479C16.6733 9.18072 16.4966 9.00189 16.239 9.00189H11.6349C11.3773 9.00189 11.2006 9.18072 11.2006 9.4479V12.3455C11.2006 12.6169 11.3773 12.8053 11.6349 12.8053ZM11.6349 18.9387H16.239C16.4966 18.9387 16.6733 18.7598 16.6733 18.4905V15.593C16.6733 15.3237 16.4966 15.1427 16.239 15.1427H11.6349C11.3773 15.1427 11.2006 15.3237 11.2006 15.593V18.4905C11.2006 18.7598 11.3773 18.9387 11.6349 18.9387Z" fill="white"/>
</svg>
