<svg width="30" height="28" viewBox="0 0 30 28" fill="none" xmlns="http://www.w3.org/2000/svg">
<path d="M1.14421 26.1541C1.78124 26.1541 2.29592 25.6394 2.29592 25.0098V3.93389C2.29592 3.54623 2.54623 3.29592 2.91256 3.29592H26.3641C26.7305 3.29592 26.9808 3.54623 26.9808 3.93389V25.0098C26.9808 25.6394 27.4955 26.1541 28.1229 26.1541C28.762 26.1541 29.2767 25.6394 29.2767 25.0098V3.72178C29.2767 2.07273 28.1869 1 26.4973 1H2.77194C1.08984 1 0 2.07273 0 3.72178V25.0098C0 25.6394 0.514684 26.1541 1.14421 26.1541Z" fill="black"/>
<path d="M4.07199 25.6649H13.5588C13.773 25.6649 13.9425 25.4955 13.9425 25.2812V5.08349C13.9425 4.86927 13.773 4.69982 13.5588 4.69982H4.07199C3.85988 4.69982 3.69043 4.86927 3.69043 5.08349V25.2812C3.69043 25.4955 3.85988 25.6649 4.07199 25.6649ZM5.79769 11.0183C5.583 11.0183 5.43839 10.8716 5.43839 10.6377V6.84528C5.43839 6.60927 5.583 6.46466 5.79769 6.46466H11.8331C12.0499 6.46466 12.1945 6.60927 12.1945 6.84528V10.6377C12.1945 10.8716 12.0499 11.0183 11.8331 11.0183H5.79769ZM5.79769 17.4533C5.583 17.4533 5.43839 17.3087 5.43839 17.0727V13.2845C5.43839 13.0485 5.583 12.9135 5.79769 12.9135H11.8331C12.0499 12.9135 12.1945 13.0485 12.1945 13.2845V17.0727C12.1945 17.3087 12.0499 17.4533 11.8331 17.4533H5.79769ZM5.79769 23.9001C5.583 23.9001 5.43839 23.7555 5.43839 23.5194V19.7291C5.43839 19.4952 5.583 19.3602 5.79769 19.3602H11.8331C12.0499 19.3602 12.1945 19.4952 12.1945 19.7291V23.5194C12.1945 23.7555 12.0499 23.9001 11.8331 23.9001H5.79769ZM15.7087 25.6553H25.2051C25.4172 25.6553 25.5867 25.4762 25.5867 25.2716V5.06427C25.5867 4.85005 25.4172 4.6806 25.2051 4.6806H15.7087C15.5041 4.6806 15.3346 4.85005 15.3346 5.06427V25.2716C15.3346 25.4762 15.5041 25.6553 15.7087 25.6553ZM17.444 10.9991C17.2272 10.9991 17.0826 10.8524 17.0826 10.6185V6.82606C17.0826 6.59005 17.2272 6.45505 17.444 6.45505H23.4794C23.6941 6.45505 23.8291 6.59005 23.8291 6.82606V10.6185C23.8291 10.8524 23.6941 10.9991 23.4794 10.9991H17.444ZM17.444 17.4341C17.2272 17.4341 17.0826 17.2895 17.0826 17.0631V13.2653C17.0826 13.0389 17.2272 12.8943 17.444 12.8943H23.4794C23.6941 12.8943 23.8291 13.0389 23.8291 13.2653V17.0631C23.8291 17.2895 23.6941 17.4341 23.4794 17.4341H17.444ZM17.444 23.8809C17.2272 23.8809 17.0826 23.7362 17.0826 23.5098V19.7099C17.0826 19.4856 17.2272 19.341 17.444 19.341H23.4794C23.6941 19.341 23.8291 19.4856 23.8291 19.7099V23.5098C23.8291 23.7362 23.6941 23.8809 23.4794 23.8809H17.444Z" fill="black"/>
</svg>
