<svg width="30" height="28" viewBox="0 0 30 28" fill="none" xmlns="http://www.w3.org/2000/svg">
<path d="M1.14421 26.1541C1.78124 26.1541 2.29592 25.6394 2.29592 25.0098V3.93389C2.29592 3.54623 2.54623 3.29592 2.91256 3.29592H26.3641C26.7305 3.29592 26.9808 3.54623 26.9808 3.93389V25.0098C26.9808 25.6394 27.4955 26.1541 28.1229 26.1541C28.762 26.1541 29.2767 25.6394 29.2767 25.0098V3.72178C29.2767 2.07273 28.1869 1 26.4973 1H2.77194C1.08984 1 0 2.07273 0 3.72178V25.0098C0 25.6394 0.514684 26.1541 1.14421 26.1541Z" fill="black"/>
<path d="M4.07199 9.85934H25.2051C25.4172 9.85934 25.5867 9.68989 25.5867 9.48739V5.06427C25.5867 4.85005 25.4172 4.6806 25.2051 4.6806H4.07199C3.85988 4.6806 3.69043 4.85005 3.69043 5.06427V9.48739C3.69043 9.68989 3.85988 9.85934 4.07199 9.85934ZM12.3159 7.89317C11.9507 7.89317 11.6986 7.62926 11.6986 7.27372C11.6986 6.90856 11.9507 6.64677 12.3159 6.64677H16.9612C17.3264 6.64677 17.5785 6.90856 17.5785 7.27372C17.5785 7.62926 17.3264 7.89317 16.9612 7.89317H12.3159Z" fill="black"/>
</svg>
