<svg width="28" height="31" viewBox="0 0 28 31" fill="none" xmlns="http://www.w3.org/2000/svg">
<path d="M3 24.7526C3 26.4588 3.98226 27.4453 5.67046 27.4453H9.86717C11.5554 27.4453 12.5472 26.4588 12.5472 24.7429V5.30741C12.5472 3.59156 11.5554 2.60297 9.86717 2.60297H5.62195C3.93164 2.60297 3 3.59156 3 5.2978V24.7526ZM4.98234 3.61148H6.77178V0.893667C6.77178 0.394685 6.36538 0 5.86851 0C5.36952 0 4.98234 0.394685 4.98234 0.893667V3.61148ZM8.77546 3.61148H10.5649V0.893667C10.5649 0.394685 10.1681 0 9.66912 0C9.17014 0 8.77546 0.394685 8.77546 0.893667V3.61148ZM7.77256 8.31843C7.13155 8.31843 6.62366 7.80093 6.62366 7.1578C6.62366 6.51468 7.13155 5.99929 7.77256 5.99929C8.41569 5.99929 8.93319 6.51468 8.93319 7.1578C8.93319 7.80093 8.41569 8.31843 7.77256 8.31843ZM7.77256 12.2487C7.13155 12.2487 6.62366 11.7387 6.62366 11.0955C6.62366 10.4449 7.13155 9.93702 7.77256 9.93702C8.41569 9.93702 8.93319 10.4449 8.93319 11.0955C8.93319 11.7387 8.41569 12.2487 7.77256 12.2487ZM7.77256 16.1768C7.13155 16.1768 6.62366 15.6689 6.62366 15.0279C6.62366 14.3848 7.13155 13.8769 7.77256 13.8769C8.41569 13.8769 8.93319 14.3848 8.93319 15.0279C8.93319 15.6689 8.41569 16.1768 7.77256 16.1768ZM7.77256 20.1283C7.13155 20.1283 6.62366 19.6108 6.62366 18.9677C6.62366 18.3246 7.13155 17.805 7.77256 17.805C8.41569 17.805 8.93319 18.3246 8.93319 18.9677C8.93319 19.6108 8.41569 20.1283 7.77256 20.1283ZM7.77256 24.0565C7.13155 24.0565 6.62366 23.5486 6.62366 22.8958C6.62366 22.2527 7.13155 21.7448 7.77256 21.7448C8.41569 21.7448 8.93319 22.2527 8.93319 22.8958C8.93319 23.5486 8.41569 24.0565 7.77256 24.0565ZM15.2334 24.7814C15.2334 26.4876 16.165 27.4741 17.865 27.4741H22.1006C23.7984 27.4741 24.7903 26.4876 24.7903 24.7718V5.33624C24.7903 3.62038 23.7984 2.6339 22.1006 2.6339H17.9135C16.2157 2.6339 15.2334 3.62038 15.2334 5.32663V24.7814ZM17.2157 26.4677V29.1855C17.2157 29.6845 17.6125 30.0696 18.1115 30.0696C18.6105 30.0696 19.0052 29.6845 19.0052 29.1855V26.4677H17.2157ZM21.0185 26.4677V29.1855C21.0185 29.6845 21.4036 30.0696 21.9025 30.0696C22.4015 30.0696 22.8079 29.6845 22.8079 29.1855V26.4677H21.0185ZM20.0081 8.33225C19.365 8.33225 18.8571 7.81475 18.8571 7.17374C18.8571 6.53062 19.365 6.01312 20.0081 6.01312C20.6587 6.01312 21.1666 6.53062 21.1666 7.17374C21.1666 7.81475 20.6587 8.33225 20.0081 8.33225ZM20.0081 12.2742C19.365 12.2742 18.8571 11.7546 18.8571 11.1115C18.8571 10.4683 19.365 9.95085 20.0081 9.95085C20.6587 9.95085 21.1666 10.4683 21.1666 11.1115C21.1666 11.7546 20.6587 12.2742 20.0081 12.2742ZM20.0081 16.2023C19.365 16.2023 18.8571 15.6944 18.8571 15.0513C18.8571 14.4082 19.365 13.8907 20.0081 13.8907C20.6587 13.8907 21.1666 14.4082 21.1666 15.0513C21.1666 15.6944 20.6587 16.2023 20.0081 16.2023ZM20.0081 20.1422C19.365 20.1422 18.8571 19.6247 18.8571 18.9815C18.8571 18.3405 19.365 17.8284 20.0081 17.8284C20.6587 17.8284 21.1666 18.3405 21.1666 18.9815C21.1666 19.6247 20.6587 20.1422 20.0081 20.1422ZM20.0081 24.0799C19.365 24.0799 18.8571 23.5624 18.8571 22.9193C18.8571 22.2783 19.365 21.7608 20.0081 21.7608C20.6587 21.7608 21.1666 22.2783 21.1666 22.9193C21.1666 23.5624 20.6587 24.0799 20.0081 24.0799Z" fill="black"/>
</svg>
