<svg width="28" height="28" viewBox="0 0 28 28" fill="none" xmlns="http://www.w3.org/2000/svg">
<path d="M6.84421 24.8972H21.0295C23.5685 24.8972 24.8737 23.5919 24.8737 21.0914V6.82921C24.8737 4.32656 23.5685 3.02344 21.0295 3.02344H6.84421C4.31484 3.02344 3 4.31695 3 6.82921V21.0914C3 23.6016 4.31484 24.8972 6.84421 24.8972Z" fill="black"/>
<path d="M9.36312 19.7212C8.60984 19.7212 8.07031 19.1817 8.07031 18.4284V9.47621C8.07031 8.72293 8.60984 8.18341 9.36312 8.18341H18.5675C19.3208 8.18341 19.8603 8.72293 19.8603 9.47621V18.4284C19.8603 19.1817 19.3208 19.7212 18.5675 19.7212H9.36312ZM13.6803 13.0608H14.2311C14.5472 13.0608 14.7847 12.8564 14.7847 12.5285V10.567C14.7847 10.2529 14.5451 10.0326 14.2311 10.0326H13.6803C13.3662 10.0326 13.1459 10.2529 13.1459 10.567V12.5285C13.1459 12.8564 13.3641 13.0608 13.6803 13.0608ZM10.4766 17.756H12.3275C12.6341 17.756 12.8502 17.5378 12.8502 17.2174V16.657C12.8502 16.3409 12.632 16.1152 12.3275 16.1152H10.4766C10.1487 16.1152 9.93054 16.3451 9.93054 16.657V17.2174C9.93054 17.5378 10.1466 17.756 10.4766 17.756ZM15.635 17.756H17.4687C17.7945 17.756 18.0148 17.5357 18.0148 17.2174V16.657C18.0148 16.3451 17.7966 16.1152 17.4687 16.1152H15.635C15.3113 16.1152 15.0931 16.3409 15.0931 16.657V17.2174C15.0931 17.5378 15.3092 17.756 15.635 17.756Z" fill="white"/>
</svg>
