<svg width="28" height="28" viewBox="0 0 28 28" fill="none" xmlns="http://www.w3.org/2000/svg">
<path d="M14.105 26.21C20.7369 26.21 26.2121 20.7273 26.2121 14.105C26.2121 7.47312 20.7273 2 14.0954 2C7.47523 2 2 7.47312 2 14.105C2 20.7273 7.48484 26.21 14.105 26.21ZM14.105 23.8255C8.71085 23.8255 4.39412 19.4991 4.39412 14.105C4.39412 8.71085 8.70124 4.38452 14.0954 4.38452C19.4895 4.38452 23.8276 8.71085 23.8276 14.105C23.8276 19.4991 19.4991 23.8255 14.105 23.8255Z" fill="black"/>
<path d="M9.10292 15.7869C10.3482 15.7869 11.3473 14.776 11.3473 13.5425C11.3473 12.3069 10.3482 11.296 9.10292 11.296C7.8673 11.296 6.86816 12.3069 6.86816 13.5425C6.86816 14.776 7.8673 15.7869 9.10292 15.7869ZM19.11 15.7869C20.3456 15.7869 21.3448 14.776 21.3448 13.5425C21.3448 12.3069 20.3456 11.296 19.11 11.296C17.8648 11.296 16.8656 12.3069 16.8656 13.5425C16.8656 14.776 17.8648 15.7869 19.11 15.7869ZM14.1054 21.1677C15.341 21.1677 16.3498 20.1664 16.3498 18.9308C16.3498 17.6877 15.341 16.6864 14.1054 16.6864C12.8719 16.6864 11.8611 17.6877 11.8611 18.9308C11.8611 20.1664 12.8719 21.1677 14.1054 21.1677Z" fill="black"/>
</svg>
