<svg width="28" height="28" viewBox="0 0 28 28" fill="none" xmlns="http://www.w3.org/2000/svg">
<path d="M6.84421 24.8972H21.0295C23.5685 24.8972 24.8737 23.5919 24.8737 21.0914V6.82921C24.8737 4.32656 23.5685 3.02344 21.0295 3.02344H6.84421C4.31484 3.02344 3 4.31695 3 6.82921V21.0914C3 23.6016 4.31484 24.8972 6.84421 24.8972ZM6.97733 22.6013C5.88772 22.6013 5.29592 22.0371 5.29592 20.8985V7.01999C5.29592 5.88139 5.88772 5.31936 6.97733 5.31936H20.8964C21.9764 5.31936 22.5778 5.88139 22.5778 7.01999V20.8985C22.5778 22.0371 21.9764 22.6013 20.8964 22.6013H6.97733Z" fill="black"/>
<path d="M11.9022 20.6058H15.9709C16.6724 20.6058 17.1632 20.1108 17.1632 19.4135V8.47618C17.1632 7.78852 16.6724 7.29352 15.9709 7.29352H11.9022C11.2007 7.29352 10.71 7.78852 10.71 8.47618V19.4135C10.71 20.1108 11.2007 20.6058 11.9022 20.6058ZM13.9466 11.3988C13.2862 11.3988 12.7493 10.8694 12.7493 10.2152C12.7493 9.55899 13.2862 9.03376 13.9466 9.03376C14.5891 9.03376 15.126 9.5611 15.126 10.2152C15.126 10.8694 14.5891 11.3988 13.9466 11.3988ZM13.9466 15.1263C13.2862 15.1263 12.7493 14.599 12.7493 13.9427C12.7493 13.2886 13.2862 12.7613 13.9466 12.7613C14.5891 12.7613 15.126 13.2907 15.126 13.9427C15.126 14.599 14.5891 15.1263 13.9466 15.1263ZM13.9466 18.8559C13.2862 18.8559 12.7493 18.3265 12.7493 17.6723C12.7493 17.0044 13.2862 16.4866 13.9466 16.4866C14.5891 16.4866 15.126 17.0065 15.126 17.6723C15.126 18.3265 14.5891 18.8559 13.9466 18.8559Z" fill="black"/>
</svg>
