<svg width="28" height="28" viewBox="0 0 28 28" fill="none" xmlns="http://www.w3.org/2000/svg">
<path d="M10.8721 9.19867H16.3694C17.2893 9.19867 17.927 8.54922 17.927 7.6293V6.59102C17.927 5.05235 16.8407 4.0054 15.2179 4.0054H12.0215C10.4008 4.0054 9.31234 5.05235 9.31234 6.59102V7.6293C9.31234 8.54922 9.95007 9.19867 10.8721 9.19867ZM11.6563 11.9184H15.5926V8.35751H11.6563V11.9184ZM10.9302 16.1434H16.3187C17.2682 16.1434 17.927 15.4951 17.927 14.5487V12.3876C17.927 11.4529 17.2682 10.8046 16.3187 10.8046H10.9302C9.98077 10.8046 9.31234 11.4529 9.31234 12.3876V14.5487C9.31234 15.4951 9.98077 16.1434 10.9302 16.1434ZM11.6563 22.2311H15.5926V15.3095H11.6563V22.2311ZM1 22.409C1 23.0207 1.49359 23.5122 2.09359 23.5122H25.1458C25.7479 23.5122 26.249 23.0186 26.249 22.409C26.249 21.8069 25.7458 21.3154 25.1458 21.3154H2.09359C1.49148 21.3154 1 21.809 1 22.409Z" fill="black"/>
</svg>
