<svg width="30" height="28" viewBox="0 0 30 28" fill="none" xmlns="http://www.w3.org/2000/svg">
<path d="M3.84421 24.5819H16.474C19.0151 24.5819 20.3182 23.2766 20.3182 20.7761V7.80577C20.3182 5.30523 19.0151 4 16.474 4H3.84421C1.31484 4 0 5.29562 0 7.80577V20.7761C0 23.2766 1.31484 24.5819 3.84421 24.5819ZM3.92882 22.3345C2.83921 22.3345 2.24741 21.7628 2.24741 20.6221V7.94804C2.24741 6.81905 2.83921 6.24741 3.92882 6.24741H16.3894C17.4619 6.24741 18.0729 6.81905 18.0729 7.94804V20.6221C18.0729 21.7628 17.4619 22.3345 16.3894 22.3345H3.92882ZM9.37688 14.927C9.81328 14.927 10.1466 14.6012 10.1466 14.1648V8.76952C10.1466 8.33311 9.81328 8.00944 9.37688 8.00944C8.93836 8.00944 8.61469 8.33311 8.61469 8.76952V14.1648C8.61469 14.6012 8.93836 14.927 9.37688 14.927ZM12.383 14.927C12.8194 14.927 13.1548 14.6012 13.1548 14.1648V8.76952C13.1548 8.33311 12.8194 8.00944 12.383 8.00944C11.9445 8.00944 11.6208 8.33311 11.6208 8.76952V14.1648C11.6208 14.6012 11.9445 14.927 12.383 14.927ZM15.3987 14.927C15.8351 14.927 16.1609 14.6012 16.1609 14.1648V8.76952C16.1609 8.33311 15.8351 8.00944 15.3987 8.00944C14.9602 8.00944 14.6269 8.33311 14.6269 8.76952V14.1648C14.6269 14.6012 14.9602 14.927 15.3987 14.927Z" fill="black"/>
<path d="M22.5597 15.1307C22.9098 15.534 23.575 15.5554 23.9603 15.0423C24.723 14.0411 25.1767 12.797 25.1767 11.4634C25.1767 10.1298 24.723 8.87404 23.9603 7.8824C23.575 7.36936 22.9195 7.38319 22.5693 7.78444C22.1936 8.18451 22.3457 8.66451 22.6673 9.10748C23.1564 9.80545 23.3962 10.5951 23.3962 11.4634C23.3962 12.3201 23.1564 13.1214 22.6673 13.8173C22.3553 14.2506 22.1936 14.7327 22.5597 15.1307Z" fill="black"/>
<path d="M25.3258 17.6725C25.6781 18.0876 26.3018 18.0876 26.7126 17.6256C28.1965 15.9639 29.0039 13.8111 29.0039 11.4634C29.0039 9.11357 28.1965 6.95123 26.7126 5.28951C26.3114 4.83717 25.6973 4.83717 25.3451 5.23303C24.9853 5.63639 25.0842 6.13982 25.459 6.57951C26.6224 7.9049 27.2255 9.59475 27.2255 11.4634C27.2255 13.3204 26.6224 15.0198 25.459 16.3356C25.0842 16.7753 24.9853 17.2691 25.3258 17.6725Z" fill="black"/>
</svg>
