<svg width="30" height="28" viewBox="0 0 30 28" fill="none" xmlns="http://www.w3.org/2000/svg">
<path d="M3.84421 24.5819H16.474C19.0151 24.5819 20.3182 23.2766 20.3182 20.7761V7.80577C20.3182 5.30523 19.0151 4 16.474 4H3.84421C1.31484 4 0 5.29562 0 7.80577V20.7761C0 23.2766 1.31484 24.5819 3.84421 24.5819ZM9.32953 15.0695C8.86336 15.0695 8.52375 14.7299 8.52375 14.2659V8.61999C8.52375 8.15593 8.86336 7.81632 9.32953 7.81632C9.78398 7.81632 10.1353 8.15593 10.1353 8.61999V14.2659C10.1353 14.7299 9.78398 15.0695 9.32953 15.0695ZM12.4568 15.0695C12.0023 15.0695 11.6606 14.7299 11.6606 14.2659V8.61999C11.6606 8.15593 12.0023 7.81632 12.4568 7.81632C12.9112 7.81632 13.2626 8.15593 13.2626 8.61999V14.2659C13.2626 14.7299 12.9112 15.0695 12.4568 15.0695ZM15.5937 15.0695C15.1392 15.0695 14.7879 14.7299 14.7879 14.2659V8.61999C14.7879 8.15593 15.1392 7.81632 15.5937 7.81632C16.0598 7.81632 16.3994 8.15593 16.3994 8.61999V14.2659C16.3994 14.7299 16.0598 15.0695 15.5937 15.0695Z" fill="black"/>
<path d="M22.5597 15.1307C22.9098 15.534 23.575 15.5554 23.9603 15.0423C24.723 14.0411 25.1767 12.797 25.1767 11.4634C25.1767 10.1298 24.723 8.87404 23.9603 7.8824C23.575 7.36936 22.9195 7.38319 22.5693 7.78444C22.1936 8.18451 22.3457 8.66451 22.6673 9.10748C23.1564 9.80545 23.3962 10.5951 23.3962 11.4634C23.3962 12.3201 23.1564 13.1214 22.6673 13.8173C22.3553 14.2506 22.1936 14.7327 22.5597 15.1307Z" fill="black"/>
<path d="M25.3258 17.6725C25.6781 18.0876 26.3018 18.0876 26.7126 17.6256C28.1965 15.9639 29.0039 13.8111 29.0039 11.4634C29.0039 9.11357 28.1965 6.95123 26.7126 5.28951C26.3114 4.83717 25.6973 4.83717 25.3451 5.23303C24.9853 5.63639 25.0842 6.13982 25.459 6.57951C26.6224 7.9049 27.2255 9.59475 27.2255 11.4634C27.2255 13.3204 26.6224 15.0198 25.459 16.3356C25.0842 16.7753 24.9853 17.2691 25.3258 17.6725Z" fill="black"/>
</svg>
