<svg width="28" height="28" viewBox="0 0 28 28" fill="none" xmlns="http://www.w3.org/2000/svg">
<path d="M5.58898 20.3819H11.5196C12.0544 20.3819 12.3519 20.0533 12.3912 19.5644C12.6767 16.4556 13.4098 14.6971 13.9937 13.1388L12.706 11.0786C12.2248 12.5289 11.2386 14.0706 10.6655 18.5008H6.43343C5.59038 11.8689 3.89491 11.3291 3.89491 8.76037C3.89491 6.31912 6.01015 4.5681 8.54843 4.5681C10.1272 4.5681 11.5737 5.26466 12.3057 6.40066L13.3311 4.71739C12.207 3.45974 10.4787 2.67529 8.54843 2.67529C4.91937 2.67529 2 5.32772 2 8.76037C2 12.4361 4.14172 13.4662 4.71735 19.5644C4.74711 20.0533 5.05414 20.3819 5.58898 20.3819ZM5.51375 22.7624H11.5948C11.9994 22.7624 12.3251 22.4516 12.3251 22.0534C12.3251 21.6456 11.9994 21.3348 11.5948 21.3348H5.51375C5.10922 21.3348 4.80266 21.6552 4.80266 22.0534C4.80266 22.4399 5.10922 22.7624 5.51375 22.7624ZM8.56015 25.7638C10.1429 25.7638 11.4619 24.9276 11.4917 23.7133H5.62765C5.66164 24.9276 6.9657 25.7638 8.56015 25.7638Z" fill="black"/>
<path d="M18.9934 1C14.825 1 11.5039 4.02648 11.5039 7.93867C11.5039 12.126 13.9836 13.3051 14.6446 20.4205C14.686 20.9573 15.0057 21.2889 15.5574 21.2889H22.4389C22.9885 21.2889 23.3082 20.9573 23.3539 20.4205C24.0149 13.3051 26.5063 12.126 26.5063 7.94289C26.5063 4.02859 23.1735 1 18.9934 1ZM18.9934 3.00952C21.9742 3.01163 24.4989 5.06663 24.4989 7.93867C24.4989 10.9244 22.491 11.6519 21.5157 19.2836H16.4806C15.5096 11.6519 13.5113 10.9244 13.5113 7.93867C13.5113 5.06663 16.0243 3.00952 18.9934 3.00952ZM15.4876 23.8398H22.5184C22.9334 23.8398 23.2677 23.5185 23.2677 23.1044C23.2677 22.686 22.9334 22.3668 22.5184 22.3668H15.4876C15.0629 22.3668 14.75 22.686 14.75 23.1044C14.75 23.5185 15.0629 23.8398 15.4876 23.8398ZM19.003 27.1119C20.7657 27.1119 22.202 26.2321 22.2936 24.9177H15.7039C15.7785 26.2321 17.2306 27.1119 19.003 27.1119Z" fill="black"/>
</svg>
