<svg width="28" height="28" viewBox="0 0 28 28" fill="none" xmlns="http://www.w3.org/2000/svg">
<path d="M10.7866 27.0048H17.0228C19.4966 27.0048 20.8115 25.6996 20.8115 23.2567V4.75773C20.8115 2.31484 19.4966 1 17.0228 1H10.7866C8.32445 1 7 2.31484 7 4.75773V23.2567C7 25.6996 8.32445 27.0048 10.7866 27.0048ZM10.9293 24.7089C9.89733 24.7089 9.29592 24.1352 9.29592 23.0638V4.95061C9.29592 3.86967 9.89733 3.29803 10.9293 3.29803H16.8801C17.9141 3.29803 18.5155 3.86967 18.5155 4.95061V23.0638C18.5155 24.1352 17.9141 24.7089 16.8801 24.7089H10.9293Z" fill="black"/>
<path d="M13.9164 9.53239C14.8963 9.53239 15.7059 8.73247 15.7059 7.73333C15.7059 6.7513 14.8963 5.95349 13.9164 5.95349C12.9248 5.95349 12.1152 6.7513 12.1152 7.73333C12.1152 8.73247 12.9248 9.53239 13.9164 9.53239ZM13.9164 15.7919C14.8963 15.7919 15.7059 14.9941 15.7059 14.0024C15.7059 13.0225 14.8963 12.213 13.9164 12.213C12.9248 12.213 12.1152 13.0225 12.1152 14.0024C12.1152 14.9941 12.9248 15.7919 13.9164 15.7919ZM13.9164 22.0609C14.8963 22.0609 15.7059 21.2535 15.7059 20.2619C15.7059 19.2819 14.8963 18.482 13.9164 18.482C12.9248 18.482 12.1152 19.2819 12.1152 20.2619C12.1152 21.2535 12.9248 22.0609 13.9164 22.0609Z" fill="black"/>
</svg>
