<svg width="28" height="28" viewBox="0 0 28 28" fill="none" xmlns="http://www.w3.org/2000/svg">
<path d="M6.84421 24.8972H21.7931C24.3225 24.8972 25.6373 23.5919 25.6373 21.0914V6.82921C25.6373 4.32656 24.3225 3.02344 21.7931 3.02344H6.84421C4.31484 3.02344 3 4.31695 3 6.82921V21.0914C3 23.6016 4.31484 24.8972 6.84421 24.8972ZM6.97733 22.6013C5.88772 22.6013 5.29592 22.0371 5.29592 20.8985V7.01999C5.29592 5.88139 5.88772 5.31936 6.97733 5.31936H21.6504C22.7304 5.31936 23.3414 5.88139 23.3414 7.01999V20.8985C23.3414 22.0371 22.7304 22.6013 21.6504 22.6013H6.97733Z" fill="black"/>
<path d="M10.4123 18.802C11.3923 18.802 12.1922 18.0042 12.1922 17.0126C12.1922 16.0327 11.3923 15.2231 10.4123 15.2231C9.4132 15.2231 8.61328 16.0327 8.61328 17.0126C8.61328 18.0042 9.4132 18.802 10.4123 18.802ZM18.235 18.802C19.215 18.802 20.0245 18.0042 20.0245 17.0126C20.0245 16.0327 19.215 15.2231 18.235 15.2231C17.2455 15.2231 16.4456 16.0327 16.4456 17.0126C16.4456 18.0042 17.2455 18.802 18.235 18.802ZM14.3189 12.6623C15.2988 12.6623 16.1083 11.8624 16.1083 10.8707C16.1083 9.88122 15.2988 9.0813 14.3189 9.0813C13.3293 9.0813 12.5198 9.88122 12.5198 10.8707C12.5198 11.8624 13.3293 12.6623 14.3189 12.6623Z" fill="black"/>
</svg>
