<svg width="29" height="28" viewBox="0 0 29 28" fill="none" xmlns="http://www.w3.org/2000/svg">
<path d="M6.13827 25.6662H21.5079C25.552 25.6662 28.6844 22.6019 28.6844 18.6762C28.6844 14.711 25.5208 11.7014 21.1919 11.7014C19.6101 8.58023 16.736 6.72937 13.1871 6.72937C8.57273 6.72937 4.6814 10.2314 4.20375 14.9641C1.79461 15.6869 0.210467 17.7042 0.210467 20.2244C0.210467 23.2666 2.4389 25.6662 6.13827 25.6662ZM6.14436 23.4694C3.80319 23.4694 2.40936 22.2171 2.40936 20.2851C2.40936 18.6293 3.47061 17.456 5.3817 16.95C6.05061 16.7838 6.29249 16.4855 6.35623 15.7678C6.70498 11.7867 9.56975 8.92615 13.1871 8.92615C15.9279 8.92615 18.0919 10.4648 19.4234 13.139C19.7076 13.7322 20.0517 13.9315 20.7834 13.9315C24.4219 13.9315 26.4855 16.0514 26.4855 18.7294C26.4855 21.4029 24.3574 23.4694 21.5883 23.4694H6.14436ZM1.67859 13.8919C2.59992 13.8919 3.34336 13.1484 3.34336 12.2133C3.34336 11.2898 2.59992 10.5485 1.67859 10.5485C0.743437 10.5485 0 11.2898 0 12.2133C0 13.1484 0.743437 13.8919 1.67859 13.8919ZM19.2147 6.15164C20.0775 6.15164 20.7858 5.44336 20.7858 4.58062C20.7858 3.71789 20.0775 3 19.2147 3C18.352 3 17.6437 3.71789 17.6437 4.58062C17.6437 5.44336 18.352 6.15164 19.2147 6.15164ZM24.2601 10.297C25.5574 10.297 26.598 9.25218 26.598 7.93781C26.598 6.63093 25.5574 5.58609 24.2601 5.58609C22.9415 5.58609 21.8892 6.63093 21.8892 7.93781C21.8892 9.25218 22.9415 10.297 24.2601 10.297Z" fill="black"/>
<path d="M10.5847 21.4333C12.1292 21.4333 13.0878 20.3233 13.1166 19.1175C13.1263 18.6862 12.8654 18.3839 12.4789 18.3839C12.0999 18.3839 11.8998 18.6 11.806 19.0174C11.6813 19.5834 11.3563 20.193 10.5847 20.193C9.45289 20.193 9.10437 18.9973 9.10437 17.6665C9.10437 16.4198 9.47844 15.1805 10.573 15.1805C11.3424 15.1805 11.642 15.7805 11.7667 16.3486C11.8646 16.766 12.0669 16.9821 12.4417 16.9821C12.8324 16.9821 13.0911 16.6894 13.0815 16.2485C13.0527 15.0405 12.092 13.9401 10.5474 13.9401C8.60445 13.9401 7.72461 15.6148 7.72461 17.6665C7.72461 19.6809 8.53414 21.4333 10.5847 21.4333ZM16.3177 21.4333C18.0381 21.4333 19.1192 19.9718 19.1192 17.6878C19.1192 15.3921 18.0381 13.9401 16.3081 13.9401C14.5761 13.9401 13.4832 15.3921 13.4832 17.6878C13.4832 19.9718 14.5761 21.4333 16.3177 21.4333ZM16.3177 20.193C15.414 20.193 14.8588 19.2755 14.8588 17.6878C14.8588 16.1001 15.414 15.1805 16.3081 15.1805C17.2002 15.1805 17.7533 16.1001 17.7533 17.6878C17.7533 19.2755 17.2002 20.193 16.3177 20.193ZM19.9276 21.8557H21.8302C22.0815 21.8557 22.2838 21.6321 22.2838 21.3808C22.2838 21.1413 22.0677 20.9252 21.8302 20.9252H21.0038L21.3282 20.5816C21.7991 20.1225 22.1356 19.6889 22.1356 19.2075C22.1356 18.5323 21.5797 18.0391 20.8149 18.0391C19.997 18.0391 19.4879 18.6516 19.4879 19.166C19.4879 19.4801 19.7157 19.6727 19.9691 19.6727C20.2714 19.6727 20.4066 19.4524 20.4791 19.2841C20.5473 19.0762 20.656 18.9717 20.8245 18.9717C20.9792 18.9717 21.0913 19.0858 21.0913 19.233C21.0913 19.4878 20.8398 19.7883 20.5904 20.0376L19.6859 20.9529C19.5741 21.0668 19.4975 21.2552 19.4975 21.4022C19.4975 21.6534 19.6859 21.8557 19.9276 21.8557Z" fill="black"/>
</svg>
