<svg width="30" height="28" viewBox="0 0 30 28" fill="none" xmlns="http://www.w3.org/2000/svg">
<path d="M1.14421 26.1541C1.78124 26.1541 2.29592 25.6394 2.29592 25.0098V3.93389C2.29592 3.54623 2.54623 3.29592 2.91256 3.29592H26.3641C26.7305 3.29592 26.9808 3.54623 26.9808 3.93389V25.0098C26.9808 25.6394 27.4955 26.1541 28.1229 26.1541C28.762 26.1541 29.2767 25.6394 29.2767 25.0098V3.72178C29.2767 2.07273 28.1869 1 26.4973 1H2.77194C1.08984 1 0 2.07273 0 3.72178V25.0098C0 25.6394 0.514684 26.1541 1.14421 26.1541Z" fill="black"/>
<path d="M4.07199 25.6553H25.2051C25.4172 25.6553 25.5867 25.4762 25.5867 25.2716V5.06427C25.5867 4.85005 25.4172 4.6806 25.2051 4.6806H4.07199C3.85988 4.6806 3.69043 4.85005 3.69043 5.06427V25.2716C3.69043 25.4762 3.85988 25.6553 4.07199 25.6553ZM12.3159 23.639C11.9507 23.639 11.6986 23.3772 11.6986 23.0216C11.6986 22.6544 11.9507 22.3926 12.3159 22.3926H16.9612C17.3264 22.3926 17.5785 22.6544 17.5785 23.0216C17.5785 23.3772 17.3264 23.639 16.9612 23.639H12.3159ZM5.79558 11.2241C5.52113 11.2241 5.32636 11.0315 5.32636 10.757V6.69926C5.32636 6.4227 5.52113 6.22044 5.79558 6.22044H10.0966C10.371 6.22044 10.5658 6.4227 10.5658 6.69926V10.757C10.5658 11.0315 10.371 11.2241 10.0966 11.2241H5.79558ZM12.5104 11.2241C12.2339 11.2241 12.0412 11.0315 12.0412 10.757V6.69926C12.0412 6.4227 12.2339 6.22044 12.5104 6.22044H16.7997C17.0742 6.22044 17.2785 6.4227 17.2785 6.69926V10.757C17.2785 11.0315 17.0742 11.2241 16.7997 11.2241H12.5104ZM19.2114 11.2241C18.9349 11.2241 18.7326 11.0315 18.7326 10.757V6.69926C18.7326 6.4227 18.9349 6.22044 19.2114 6.22044H23.4815C23.756 6.22044 23.9507 6.4227 23.9507 6.69926V10.757C23.9507 11.0315 23.756 11.2241 23.5584 11.2241H19.2114Z" fill="black"/>
</svg>
