<svg width="28" height="28" viewBox="0 0 28 28" fill="none" xmlns="http://www.w3.org/2000/svg">
<path d="M6.84421 24.8972H21.0295C23.5685 24.8972 24.8737 23.5919 24.8737 21.0914V6.82921C24.8737 4.32656 23.5685 3.02344 21.0295 3.02344H6.84421C4.31484 3.02344 3 4.31695 3 6.82921V21.0914C3 23.6016 4.31484 24.8972 6.84421 24.8972Z" fill="black"/>
<path d="M9.27717 19.7116C8.5239 19.7116 7.98438 19.1721 7.98438 18.4188V9.46663C7.98438 8.71335 8.5239 8.17383 9.27717 8.17383H18.5969C19.3502 8.17383 19.8897 8.71335 19.8897 9.46663V18.4188C19.8897 19.1721 19.3502 19.7116 18.5969 19.7116H9.27717ZM13.9525 12.8304C14.65 12.8304 15.2261 12.2543 15.2261 11.543C15.2261 10.8412 14.6521 10.2694 13.9525 10.2694C13.2412 10.2694 12.6672 10.8412 12.6672 11.543C12.6672 12.2543 13.2433 12.8304 13.9525 12.8304ZM11.3167 17.6161C12.0133 17.6161 12.5788 17.0505 12.5788 16.3519C12.5788 15.6649 12.0133 15.0994 11.3167 15.0994C10.6255 15.0994 10.06 15.6628 10.06 16.3519C10.06 17.0505 10.6255 17.6161 11.3167 17.6161ZM16.5787 17.6161C17.2774 17.6161 17.8375 17.0505 17.8375 16.3519C17.8375 15.6649 17.2774 15.0994 16.5787 15.0994C15.88 15.0994 15.3145 15.6649 15.3145 16.3519C15.3145 17.0505 15.88 17.6161 16.5787 17.6161Z" fill="white"/>
</svg>
