<svg width="28" height="28" viewBox="0 0 28 28" fill="none" xmlns="http://www.w3.org/2000/svg">
<path d="M14.105 26.21C20.7369 26.21 26.2121 20.7273 26.2121 14.105C26.2121 7.47312 20.7273 2 14.0954 2C7.47523 2 2 7.47312 2 14.105C2 20.7273 7.48484 26.21 14.105 26.21Z" fill="black"/>
<path d="M9.20863 16.445C7.91137 16.445 6.87402 15.3884 6.87402 14.1029C6.87402 12.8152 7.91137 11.7587 9.20863 11.7587C10.5038 11.7587 11.5507 12.8152 11.5507 14.1029C11.5507 15.3884 10.5038 16.445 9.20863 16.445ZM19.0018 16.445C17.7045 16.445 16.6575 15.3884 16.6575 14.1029C16.6575 12.8152 17.7045 11.7587 19.0018 11.7587C20.299 11.7587 21.3343 12.8152 21.3343 14.1029C21.3343 15.3884 20.299 16.445 19.0018 16.445Z" fill="white"/>
</svg>
