<svg width="28" height="28" viewBox="0 0 28 28" fill="none" xmlns="http://www.w3.org/2000/svg">
<path d="M6.01758 12.5012V3.60598C6.01758 3.4227 6.13265 3.2959 6.30633 3.2959H13.466V12.5012H6.01758ZM15.3197 12.4991V3.2959H22.4698C22.6434 3.2959 22.7585 3.4227 22.7585 3.60598V12.4991H15.3197ZM6.01758 23.8101V14.6474H13.466V23.8101H6.01758ZM15.3197 23.8101V14.6474H22.7585V23.8101H15.3197Z" fill="white"/>
<path d="M2 24.981C2 25.6201 2.5339 26.1541 3.17304 26.1541H25.629C26.2681 26.1541 26.7999 25.6201 26.7999 24.981C26.7999 24.3323 26.2681 23.8101 25.629 23.8101H25.0636V3.06038C25.0636 1.82968 24.2169 1 22.9552 1H5.81795C4.55843 1 3.71163 1.82968 3.71163 3.06038V23.8101H3.17304C2.5339 23.8101 2 24.3323 2 24.981ZM6.01717 12.5012V3.606C6.01717 3.42272 6.13224 3.29592 6.30592 3.29592H13.4656V12.5012H6.01717ZM15.3193 12.4991V3.29592H22.4694C22.643 3.29592 22.7581 3.42272 22.7581 3.606V12.4991H15.3193ZM6.01717 23.8101V14.6474H13.4656V23.8101H6.01717ZM15.3193 23.8101V14.6474H22.7581V23.8101H15.3193Z" fill="black"/>
</svg>
