<svg width="28" height="28" viewBox="0 0 28 28" fill="none" xmlns="http://www.w3.org/2000/svg">
<path d="M6.84421 24.8972H21.0295C23.5685 24.8972 24.8737 23.5919 24.8737 21.0914V6.82921C24.8737 4.32656 23.5685 3.02344 21.0295 3.02344H6.84421C4.31484 3.02344 3 4.31695 3 6.82921V21.0914C3 23.6016 4.31484 24.8972 6.84421 24.8972ZM6.97733 22.6013C5.88772 22.6013 5.29592 22.0371 5.29592 20.8985V7.01999C5.29592 5.88139 5.88772 5.31936 6.97733 5.31936H20.8964C21.9764 5.31936 22.5778 5.88139 22.5778 7.01999V20.8985C22.5778 22.0371 21.9764 22.6013 20.8964 22.6013H6.97733Z" fill="black"/>
<path d="M13.9694 20.5118C17.5603 20.5118 20.5268 17.5357 20.5268 13.9544C20.5268 10.3786 17.5453 7.39709 13.9694 7.39709C10.3903 7.39709 7.42383 10.3753 7.42383 13.9544C7.42383 17.5219 10.4116 20.5118 13.9694 20.5118ZM13.9694 18.7793C11.3625 18.7793 9.14461 16.571 9.14461 13.9544C9.14461 11.3262 11.3508 9.12959 13.9694 9.12959C16.5881 9.12959 18.806 11.3379 18.806 13.9544C18.806 16.5827 16.5998 18.7793 13.9694 18.7793ZM13.9694 17.5491C15.9288 17.5491 17.5641 15.9042 17.5641 13.9544C17.5641 12.0164 15.9171 10.3619 13.9694 10.3619C12.0197 10.3619 10.3866 12.0047 10.3866 13.9544C10.3866 15.8925 12.0335 17.5491 13.9694 17.5491Z" fill="black"/>
</svg>
