<svg width="28" height="28" viewBox="0 0 28 28" fill="none" xmlns="http://www.w3.org/2000/svg">
<path d="M6.84421 24.8972H21.0295C23.5685 24.8972 24.8737 23.5919 24.8737 21.0914V6.82921C24.8737 4.32656 23.5685 3.02344 21.0295 3.02344H6.84421C4.31484 3.02344 3 4.31695 3 6.82921V21.0914C3 23.6016 4.31484 24.8972 6.84421 24.8972Z" fill="black"/>
<path d="M9.36312 19.7212C8.60984 19.7212 8.07031 19.1817 8.07031 18.4284V9.47621C8.07031 8.72293 8.60984 8.18341 9.36312 8.18341H18.5675C19.3208 8.18341 19.8603 8.72293 19.8603 9.47621V18.4284C19.8603 19.1817 19.3208 19.7212 18.5675 19.7212H9.36312ZM9.92328 13.3167L10.3632 13.7428C10.5655 13.9718 10.8423 13.9718 11.0616 13.7428L12.7611 12.0572C12.9805 11.8432 12.9922 11.5504 12.7611 11.3311L12.335 10.905C12.1231 10.6889 11.8484 10.691 11.6323 10.9146L9.92328 12.6077C9.70718 12.8238 9.70718 13.0952 9.92328 13.3167ZM17.5695 13.7428L18.0073 13.3167C18.2192 13.0973 18.2234 12.8238 18.0073 12.6077L16.2983 10.905C16.0918 10.691 15.8075 10.6793 15.5935 10.8954L15.1578 11.3311C14.9384 11.5504 14.9384 11.8411 15.1599 12.0572L16.8669 13.7428C17.0787 13.9643 17.3672 13.9718 17.5695 13.7428ZM13.6569 17.8959H14.2662C14.5644 17.8959 14.7805 17.7012 14.7805 17.4052V15.2669C14.7805 14.9646 14.5569 14.7548 14.2662 14.7548H13.6569C13.3641 14.7548 13.1523 14.9646 13.1523 15.2669V17.4052C13.1523 17.6916 13.3662 17.8959 13.6569 17.8959Z" fill="white"/>
</svg>
