<svg width="29" height="28" viewBox="0 0 29 28" fill="none" xmlns="http://www.w3.org/2000/svg">
<path d="M10.9282 23.5192H17.6709V15.0554C17.6709 14.5079 17.3173 14.1521 16.7698 14.1521H11.8432C11.2861 14.1521 10.9282 14.5079 10.9282 15.0554V23.5192ZM6.34194 25.0447H22.1995C23.9712 25.0447 25.0155 24.0217 25.0155 22.2946V9.30948L22.7196 7.73567V21.5926C22.7196 22.3354 22.3158 22.7488 21.5944 22.7488H6.94709C6.21607 22.7488 5.81224 22.3354 5.81224 21.5926V7.74528L3.51632 9.30948V22.2946C3.51632 24.0217 4.55859 25.0447 6.34194 25.0447ZM0 11.814C0 12.4189 0.455153 12.935 1.19765 12.935C1.56163 12.935 1.886 12.7466 2.17217 12.5115L13.8119 2.7458C14.1267 2.46713 14.4958 2.46713 14.8127 2.7458L26.4462 12.5115C26.7248 12.7466 27.0492 12.935 27.4132 12.935C28.0863 12.935 28.6012 12.5171 28.6012 11.8428C28.6012 11.447 28.4482 11.1409 28.1515 10.8878L15.9544 0.635973C14.9522 -0.211991 13.6821 -0.211991 12.6703 0.635973L0.459372 10.8899C0.153045 11.143 0 11.4875 0 11.814ZM21.705 6.13864L25.0155 8.92464V3.26801C25.0155 2.73973 24.679 2.40317 24.1507 2.40317H22.5719C22.0533 2.40317 21.705 2.73973 21.705 3.26801V6.13864Z" fill="black"/>
</svg>
