<svg width="28" height="28" viewBox="0 0 28 28" fill="none" xmlns="http://www.w3.org/2000/svg">
<path d="M13.6792 21.3701C19.0162 21.3701 23.3467 17.0354 23.3467 11.6813C23.3467 6.33476 19.0162 2 13.6792 2C8.33054 2 4 6.33476 4 11.6813C4 17.0354 8.33054 21.3701 13.6792 21.3701ZM12.5962 25.0808H14.7697V20.2667H12.5962V25.0808ZM9.45953 26.1617H17.8947C18.4905 26.1617 18.9798 25.6765 18.9798 25.0808C18.9798 24.4871 18.4905 23.9902 17.8947 23.9902H9.46914C8.87336 23.9902 8.37648 24.4871 8.37648 25.0808C8.37648 25.6765 8.86375 26.1617 9.45953 26.1617Z" fill="black"/>
<path d="M13.6797 17.3783C10.5074 17.3783 7.99023 14.8611 7.99023 11.6792C7.99023 8.50692 10.5074 5.99396 13.6797 5.99396C16.8616 5.99396 19.3574 8.50692 19.3574 11.6792C19.3574 14.8611 16.8616 17.3783 13.6797 17.3783ZM13.6797 14.2072C15.0897 14.2072 16.1939 13.0892 16.1939 11.6792C16.1939 10.2713 15.0897 9.15543 13.6797 9.15543C12.2697 9.15543 11.1538 10.2713 11.1538 11.6792C11.1538 13.0892 12.2697 14.2072 13.6797 14.2072Z" fill="white"/>
</svg>
