<svg width="32" height="28" viewBox="0 0 32 28" fill="none" xmlns="http://www.w3.org/2000/svg">
<path d="M15.9117 21.188C17.7959 21.188 19.1011 20.6018 19.1011 19.9097C19.1011 19.2176 17.7959 18.6314 15.9117 18.6314C14.0393 18.6314 12.7245 19.2176 12.7245 19.9097C12.7245 20.6018 14.0393 21.188 15.9117 21.188ZM15.9117 6.7746C18.8703 6.7746 21.7805 4.75757 21.7805 2.21507C21.7805 1.3664 21.3312 0.846796 20.2971 0.533672C19.0381 0.158672 17.4987 0 15.9117 0C14.3365 0 12.7971 0.158672 11.5381 0.533672C10.504 0.846796 10.0547 1.3664 10.0547 2.21507C10.0547 4.75757 12.9553 6.7746 15.9117 6.7746ZM15.9117 5.0939C13.7796 5.0939 12.0928 3.95671 11.7619 2.34984C11.7481 2.26781 11.7874 2.20499 11.9079 2.16023C13.1628 1.84054 14.5383 1.66898 15.9117 1.66898C17.2969 1.66898 18.6649 1.84054 19.9273 2.16023C20.0478 2.20499 20.0871 2.26781 20.0733 2.34984C19.7445 3.95461 18.0577 5.0939 15.9117 5.0939ZM14.892 5.70211V13.7095H16.9432V5.70211H14.892ZM15.9117 14.4445C17.0614 14.4445 18.2011 14.7886 18.9553 15.2742L20.5329 14.231C19.4688 13.26 17.749 12.6403 15.9117 12.6403C14.1 12.6403 12.4153 13.2483 11.3513 14.198L12.9896 15.2114C13.7438 14.7513 14.8207 14.4445 15.9117 14.4445ZM15.9117 23.7387C19.3671 23.7387 21.6497 22.2028 21.6497 19.9097C21.6497 17.6166 19.3671 16.0807 15.9117 16.0807C12.4681 16.0807 10.1759 17.6166 10.1759 19.9097C10.1759 22.2028 12.4681 23.7387 15.9117 23.7387ZM15.9117 21.9344C13.541 21.9344 11.978 21.1118 11.978 19.9097C11.978 18.7076 13.541 17.8849 15.9117 17.8849C18.2846 17.8849 19.8476 18.7076 19.8476 19.9097C19.8476 21.1118 18.2846 21.9344 15.9117 21.9344ZM16.0995 16.1777L4.52066 10.2509C0.598399 8.24977 -1.78707 13.4072 1.66761 15.0834L11.2048 19.7238L11.5847 17.9691L2.41995 13.5255C0.912452 12.7835 1.83261 10.8419 3.68676 11.7855L13.7944 16.9523L16.0995 16.1777ZM10.8073 20.7155V18.7894L3.94761 22.0034C0.153087 23.7839 2.85917 28.8199 6.32769 27.049L13.8424 23.2076L12.1589 22.103L5.52425 25.4932C4.02636 26.2608 3.03706 24.3394 4.69058 23.5814L10.8073 20.7155ZM15.7261 16.1777L18.0408 16.9523L28.1485 11.7855C30.0026 10.8419 30.9228 12.7835 29.4153 13.5255L20.2505 17.9691L20.6208 19.7238L30.1676 15.0834C33.6223 13.4072 31.2368 8.24977 27.3146 10.2509L15.7261 16.1777ZM21.0183 20.7155L27.1446 23.5814C28.7982 24.3394 27.7992 26.2608 26.3013 25.4932L19.6667 22.103L17.9832 23.2076L25.5075 27.049C28.976 28.8199 31.6725 23.7839 27.878 22.0034L21.0183 18.7894V20.7155Z" fill="black"/>
</svg>
