<svg width="29" height="28" viewBox="0 0 29 28" fill="none" xmlns="http://www.w3.org/2000/svg">
<path d="M6.13827 25.6662H21.5079C25.552 25.6662 28.6844 22.604 28.6844 18.6762C28.6844 14.711 25.5208 11.7014 21.1919 11.7014C19.6101 8.58023 16.736 6.72937 13.1871 6.72937C8.57273 6.72937 4.6814 10.2314 4.20375 14.9662C1.79461 15.6869 0.210467 17.7042 0.210467 20.2244C0.210467 23.2666 2.4389 25.6662 6.13827 25.6662ZM1.67859 13.8919C2.59992 13.8919 3.34336 13.1484 3.34336 12.2133C3.34336 11.292 2.59992 10.5485 1.67859 10.5485C0.743437 10.5485 0 11.292 0 12.2133C0 13.1484 0.743437 13.8919 1.67859 13.8919ZM19.2147 6.15164C20.0775 6.15164 20.7858 5.44336 20.7858 4.58062C20.7858 3.71789 20.0775 3 19.2147 3C18.352 3 17.6437 3.71789 17.6437 4.58062C17.6437 5.44336 18.352 6.15164 19.2147 6.15164ZM24.2601 10.297C25.5574 10.297 26.598 9.25429 26.598 7.93781C26.598 6.63093 25.5574 5.5882 24.2601 5.5882C22.9415 5.5882 21.8892 6.63093 21.8892 7.93781C21.8892 9.25429 22.9415 10.297 24.2601 10.297Z" fill="black"/>
<path d="M11.1998 21.5822C9.07171 21.5822 8.23242 19.7585 8.23242 17.6665C8.23242 15.5372 9.14413 13.7913 11.1626 13.7913C12.7783 13.7913 13.7751 14.9353 13.8136 16.189C13.8232 16.6479 13.5485 16.9544 13.1301 16.9544C12.7416 16.9544 12.533 16.7362 12.4233 16.2912C12.2986 15.7092 11.9873 15.0912 11.1881 15.0912C10.0617 15.0912 9.67382 16.3762 9.67382 17.6665C9.67382 19.043 10.0458 20.2802 11.1998 20.2802C12.0012 20.2802 12.338 19.6547 12.4648 19.0748C12.5702 18.6298 12.7746 18.4116 13.1674 18.4116C13.5816 18.4116 13.8562 18.7277 13.8466 19.177C13.8082 20.4286 12.8156 21.5822 11.1998 21.5822ZM17.2849 21.5822C15.4891 21.5822 14.343 20.0632 14.343 17.6878C14.343 15.3028 15.4891 13.7913 17.2849 13.7913C19.0786 13.7913 20.213 15.3028 20.213 17.6878C20.213 20.0632 19.0786 21.5822 17.2849 21.5822ZM17.2849 20.2802C18.2067 20.2802 18.7779 19.335 18.7779 17.6878C18.7779 16.0406 18.2067 15.0912 17.2849 15.0912C16.361 15.0912 15.7823 16.0406 15.7823 17.6878C15.7823 19.335 16.361 20.2802 17.2849 20.2802Z" fill="white"/>
</svg>
