<svg width="28" height="30" viewBox="0 0 28 30" fill="none" xmlns="http://www.w3.org/2000/svg">
<path d="M14.1556 29.0395C21.0481 29.0395 26.3209 27.5641 26.3209 24.9846C26.3209 23.3372 24.1653 22.1421 20.7845 21.4955L19.6817 23.2251C22.647 23.6311 24.3952 24.3279 24.3952 24.9846C24.3952 25.9973 20.2815 27.1139 14.1556 27.1139C8.03937 27.1139 3.92562 25.9973 3.92562 24.9846C3.92562 24.3279 5.67382 23.6311 8.64124 23.2251L7.52679 21.4955C4.15554 22.1421 2 23.3372 2 24.9846C2 27.5641 7.27273 29.0395 14.1556 29.0395ZM6.56328 21.0614L7.7689 23.9376C7.95945 24.3846 8.51585 24.4772 8.86929 23.9557L10.3393 21.7755C10.6533 21.3211 10.5193 20.7921 9.9296 20.6655L7.30718 20.1654C6.67812 20.0388 6.37062 20.5931 6.56328 21.0614ZM21.7597 21.0614C21.9502 20.5931 21.6331 20.0388 21.0137 20.1654L18.3912 20.6655C17.8016 20.7921 17.6696 21.3211 17.9741 21.7755L19.4516 23.9557C19.805 24.4772 20.3518 24.3846 20.5423 23.9376L21.7597 21.0614Z" fill="black"/>
<path d="M4.64062 12.6435C4.64062 15.5408 7.23539 18.5542 9.76406 18.5542C11.9077 18.5542 13.1667 16.7394 14.3175 13.6518C14.4467 13.6518 14.5277 13.6422 14.6281 13.6229V16.3508C14.6281 18.1253 15.5492 19.0698 17.265 19.0698C20.1527 19.0698 23.1757 16.4772 23.1757 13.956C23.1757 11.9073 21.4988 10.5543 18.2733 9.4026C18.2733 9.28518 18.2637 9.19237 18.2348 9.09416H20.9489C22.7159 9.09416 23.6913 8.16346 23.6913 6.45721C23.6913 3.56948 21.0774 0.546509 18.5562 0.546509C16.4552 0.546509 15.1908 2.45527 14.0145 5.43511C13.8874 5.43511 13.8042 5.44472 13.7156 5.46394V2.75948C13.7156 0.982913 12.7849 0.019165 11.0552 0.019165C8.18133 0.0404932 5.15835 2.62354 5.15835 5.1426C5.15835 7.2862 6.96797 8.53893 10.0256 9.69393C10.0256 9.81346 10.0352 9.90417 10.0545 9.99487H7.37133C5.59688 9.99487 4.64062 10.9372 4.64062 12.6435ZM14.1553 11.3558C13.1581 11.3558 12.345 10.5599 12.345 9.55518C12.345 8.54081 13.1581 7.73104 14.1553 7.73104C15.1601 7.73104 15.9849 8.54081 15.9849 9.55518C15.9849 10.5599 15.1601 11.3558 14.1553 11.3558Z" fill="black"/>
</svg>
