<svg width="28" height="28" viewBox="0 0 28 28" fill="none" xmlns="http://www.w3.org/2000/svg">
<path d="M14.105 26.2301C20.7369 26.2301 26.2121 20.7549 26.2121 14.123C26.2121 7.50289 20.7273 2.01805 14.0954 2.01805C7.47523 2.01805 2 7.50289 2 14.123C2 20.7549 7.48484 26.2301 14.105 26.2301Z" fill="black"/>
<path d="M12.1628 11.7005C11.7644 11.2222 11.1454 10.943 10.4967 10.943C10.0865 10.943 9.68808 11.056 9.35785 11.2339C9.23082 11.0002 9.18066 10.7804 9.18066 10.5275C9.18066 9.61343 9.91683 8.89647 10.8171 8.91147C10.8297 8.51819 11.1879 8.1153 11.6259 8.14741C11.7452 7.61374 12.3011 7.12999 13.128 7.12999C13.7566 7.12999 14.317 7.47733 14.5715 8.04311C14.7304 8.01218 14.9128 8.0239 15.0428 8.06444C15.3337 7.81085 15.697 7.66694 16.105 7.66694C16.739 7.66694 17.2024 8.0389 17.4548 8.61851C18.3902 8.64077 19.0401 9.36733 19.0401 10.3869C19.0401 10.6845 18.9494 10.9885 18.7893 11.2402C18.4591 11.0485 18.0681 10.943 17.6634 10.943C17.0125 10.943 16.386 11.2222 15.9855 11.7005C15.5594 11.1144 14.8242 10.7851 14.0763 10.7851C13.3401 10.7851 12.6049 11.1144 12.1628 11.7005ZM11.8162 20.923C10.9523 20.923 10.5433 20.4181 10.3793 19.5755L9.22214 13.5012C9.02386 12.4236 9.74222 11.8545 10.4967 11.8545C11.1211 11.8545 11.703 12.2466 11.7595 12.9905L12.4818 20.923H11.8162ZM13.3539 20.923L12.6517 13.1595C12.5697 12.113 13.4191 11.689 14.0763 11.689C14.7356 11.689 15.5924 12.113 15.5125 13.1595L14.8061 20.923H13.3539ZM16.3438 20.923H15.6803L16.4006 12.9905C16.457 12.2466 17.039 11.8545 17.6634 11.8545C18.4178 11.8545 19.1383 12.4236 18.9379 13.5012L17.7808 19.5755C17.6167 20.4181 17.2056 20.923 16.3438 20.923Z" fill="white"/>
</svg>
