<svg width="28" height="28" viewBox="0 0 28 28" fill="none" xmlns="http://www.w3.org/2000/svg">
<path d="M21.0796 22.3564H18.7837V22.9637C18.7837 24.0538 18.1928 24.6158 17.1508 24.6158H7.93843C6.88889 24.6158 6.29592 24.0538 6.29592 22.9637V5.95015C6.29592 4.86006 6.88889 4.29592 7.93843 4.29592H17.1508C18.1928 4.29592 18.7837 4.86006 18.7837 5.95015V17.7071H21.0796V5.75726C21.0796 3.28625 19.7954 2 17.2935 2H7.7957C5.30547 2 4 3.27664 4 5.75726V23.1566C4 25.6372 5.30547 26.9117 7.7957 26.9117H17.2935C19.7954 26.9117 21.0796 25.6276 21.0796 23.1566V22.3564ZM8.991 8.37006C9.77288 8.37006 10.4024 7.7267 10.4024 6.97038C10.4024 6.17467 9.77288 5.54514 8.991 5.54514C8.20913 5.54514 7.5796 6.17467 7.5796 6.97038C7.5796 7.7267 8.20913 8.37006 8.991 8.37006ZM12.5261 8.37006C13.3293 8.37006 13.9492 7.7267 13.9492 6.97038C13.9492 6.17467 13.3293 5.54514 12.5261 5.54514C11.7442 5.54514 11.1243 6.17467 11.1243 6.97038C11.1243 7.7267 11.7442 8.37006 12.5261 8.37006ZM16.0825 8.37006C16.8644 8.37006 17.4843 7.7267 17.4843 6.97038C17.4843 6.17467 16.8644 5.54514 16.0825 5.54514C15.291 5.54514 14.6711 6.17467 14.6711 6.97038C14.6711 7.7267 15.291 8.37006 16.0825 8.37006ZM8.991 11.7762C9.77288 11.7762 10.4024 11.1467 10.4024 10.3627C10.4024 9.56913 9.77288 8.9396 8.991 8.9396C8.20913 8.9396 7.5796 9.56913 7.5796 10.3627C7.5796 11.1467 8.20913 11.7762 8.991 11.7762ZM12.5261 11.7762C13.3293 11.7762 13.9492 11.1467 13.9492 10.3627C13.9492 9.56913 13.3293 8.9396 12.5261 8.9396C11.7442 8.9396 11.1243 9.56913 11.1243 10.3627C11.1243 11.1467 11.7442 11.7762 12.5261 11.7762ZM16.0825 11.7762C16.8644 11.7762 17.4843 11.1467 17.4843 10.3627C17.4843 9.56913 16.8644 8.9396 16.0825 8.9396C15.291 8.9396 14.6711 9.56913 14.6711 10.3627C14.6711 11.1467 15.291 11.7762 16.0825 11.7762ZM8.991 15.1941C9.77288 15.1941 10.4024 14.5646 10.4024 13.771C10.4024 13.0008 9.77288 12.3596 8.991 12.3596C8.20913 12.3596 7.5796 13.0008 7.5796 13.771C7.5796 14.5646 8.20913 15.1941 8.991 15.1941ZM12.5261 15.1941C13.3293 15.1941 13.9492 14.5646 13.9492 13.771C13.9492 13.0008 13.3293 12.3596 12.5261 12.3596C11.7442 12.3596 11.1243 13.0008 11.1243 13.771C11.1243 14.5646 11.7442 15.1941 12.5261 15.1941ZM16.0825 15.1941C16.8644 15.1941 17.4843 14.5646 17.4843 13.771C17.4843 13.0008 16.8644 12.3596 16.0825 12.3596C15.291 12.3596 14.6711 13.0008 14.6711 13.771C14.6711 14.5646 15.291 15.1941 16.0825 15.1941Z" fill="black"/>
<path d="M12.5266 23.4106C14.4084 23.4106 15.9182 21.905 15.9182 20.0307C15.9182 18.1681 14.4084 16.6625 12.5266 16.6625C10.6523 16.6625 9.14453 18.1681 9.14453 20.0307C9.14453 21.905 10.6523 23.4106 12.5266 23.4106ZM12.7755 21.4226H22.3375C23.0873 21.4226 23.7273 20.8081 23.7273 20.0328C23.7273 19.2575 23.0873 18.6409 22.3375 18.6409H12.7755C12.0098 18.6409 11.3835 19.2575 11.3835 20.0328C11.3835 20.8081 12.0098 21.4226 12.7755 21.4226Z" fill="black"/>
</svg>
