<svg width="28" height="28" viewBox="0 0 28 28" fill="none" xmlns="http://www.w3.org/2000/svg">
<path d="M14.105 26.21C20.7369 26.21 26.2121 20.7273 26.2121 14.105C26.2121 7.47312 20.7273 2 14.0954 2C7.47523 2 2 7.47312 2 14.105C2 20.7273 7.48484 26.21 14.105 26.21Z" fill="black"/>
<path d="M8.89694 15.773C7.59968 15.773 6.56445 14.7186 6.56445 13.4309C6.56445 12.1358 7.59968 11.0888 8.89694 11.0888C10.1942 11.0888 11.2412 12.1358 11.2412 13.4309C11.2412 14.7186 10.1942 15.773 8.89694 15.773ZM19.3121 15.773C18.0169 15.773 16.97 14.7186 16.97 13.4309C16.97 12.1358 18.0169 11.0888 19.3121 11.0888C20.6093 11.0888 21.6467 12.1358 21.6467 13.4309C21.6467 14.7186 20.6093 15.773 19.3121 15.773ZM14.1045 21.3769C12.8189 21.3769 11.7624 20.3375 11.7624 19.0423C11.7624 17.7451 12.8189 16.7002 14.1045 16.7002C15.3921 16.7002 16.4487 17.7451 16.4487 19.0423C16.4487 20.3375 15.3921 21.3769 14.1045 21.3769Z" fill="white"/>
</svg>
