<svg width="28" height="28" viewBox="0 0 28 28" fill="none" xmlns="http://www.w3.org/2000/svg">
<path d="M7.43663 24.6634H20.323C21.2333 24.6634 22.0935 24.3409 22.7216 23.7299C25.2653 21.3067 26.7693 17.7897 26.7693 14.3376C26.7693 10.8855 25.2653 7.36843 22.7216 4.94523C22.0935 4.33422 21.2333 4 20.323 4H7.43663C6.49749 4 5.59679 4.36305 4.94945 5.02211C2.48476 7.4357 1 10.9239 1 14.3376C1 17.7897 2.50398 21.3067 5.04765 23.7299C5.67578 24.3409 6.52632 24.6634 7.43663 24.6634Z" fill="black"/>
<path d="M8.74183 19.2666C8.07129 19.2666 7.57324 18.7706 7.57324 18.1022V10.683C7.57324 10.0263 8.0734 9.4856 8.74183 9.4856C9.40066 9.4856 9.92964 10.0263 9.92964 10.683V18.1022C9.92964 18.7706 9.40066 19.2666 8.74183 19.2666ZM19.0182 19.2666C18.3498 19.2666 17.8421 18.7376 17.8421 18.0788V10.6968C17.8421 10.0284 18.3498 9.4856 19.0182 9.4856C19.6867 9.4856 20.1985 10.0263 20.1985 10.6968V18.0788C20.1985 18.7472 19.6867 19.2666 19.0182 19.2666Z" fill="white"/>
</svg>
