<svg width="28" height="28" viewBox="0 0 28 28" fill="none" xmlns="http://www.w3.org/2000/svg">
<path d="M4 23.4323C4 25.0834 5.08984 26.1541 6.77194 26.1541H21.9812C23.6729 26.1541 24.7532 25.0834 24.7532 23.4323V3.72178C24.7532 2.07273 23.6729 1 21.9812 1H6.77194C5.08984 1 4 2.07273 4 3.72178V23.4323ZM6.29592 23.2202V3.93389C6.29592 3.54623 6.54623 3.29592 6.91256 3.29592H21.8385C22.2166 3.29592 22.4573 3.54623 22.4573 3.93389V23.2202C22.4573 23.6078 22.2166 23.8581 21.8385 23.8581H6.91256C6.54623 23.8581 6.29592 23.6078 6.29592 23.2202Z" fill="black"/>
<path d="M8.07199 8.90145H20.6891C20.9033 8.90145 21.0728 8.73199 21.0728 8.52739V5.06427C21.0728 4.85005 20.9033 4.6806 20.6891 4.6806H8.07199C7.85988 4.6806 7.69043 4.85005 7.69043 5.06427V8.52739C7.69043 8.73199 7.85988 8.90145 8.07199 8.90145ZM12.6088 7.39254C12.25 7.39254 11.9966 7.14669 11.9966 6.78997C11.9966 6.43536 12.25 6.1895 12.6088 6.1895H16.1544C16.5111 6.1895 16.757 6.43536 16.757 6.78997C16.757 7.14669 16.5111 7.39254 16.1544 7.39254H12.6088Z" fill="black"/>
</svg>
