<svg width="29" height="28" viewBox="0 0 29 28" fill="none" xmlns="http://www.w3.org/2000/svg">
<path d="M2.93109 23.7786H25.5335C27.2871 23.7786 28.4688 22.5905 28.4688 20.8348V7.95546C28.4688 6.19976 27.2871 5.01383 25.5335 5.01383H2.93109C1.17961 5.01383 0 6.19976 0 7.95546V20.8348C0 22.5905 1.17961 23.7786 2.93109 23.7786ZM3.04522 21.5565C2.55046 21.5565 2.22421 21.211 2.22421 20.6874V8.10499C2.22421 7.57928 2.55046 7.23592 3.04522 7.23592H25.4468C25.9289 7.23592 26.2446 7.56874 26.2446 8.07968V20.7106C26.2446 21.2215 25.9289 21.5565 25.4468 21.5565H3.04522ZM4.70225 20.1062H16.0859C16.7391 20.1062 17.1642 19.681 17.1642 19.0299V9.76038C17.1642 9.10928 16.7391 8.68412 16.0859 8.68412H4.70225C4.04694 8.68412 3.62389 9.10928 3.62389 9.76038V19.0299C3.62389 19.681 4.04694 20.1062 4.70225 20.1062ZM5.37818 18.6451C5.21506 18.6451 5.08287 18.5225 5.08287 18.3498V10.4405C5.08287 10.2678 5.21506 10.1452 5.37818 10.1452H15.4078C15.573 10.1452 15.7052 10.2678 15.7052 10.4405V18.3498C15.7052 18.5225 15.573 18.6451 15.4078 18.6451H5.37818ZM18.6717 22.3341H20.156V6.44444H18.6717V22.3341ZM19.4667 18.7177H27.1465V17.2334H19.4667V18.7177ZM21.5027 10.9608H24.8241C24.9666 10.9608 25.0931 10.8439 25.0931 10.7035V8.95318C25.0931 8.81069 24.9666 8.68412 24.8241 8.68412H21.5027C21.3581 8.68412 21.2337 8.81069 21.2337 8.95318V10.7035C21.2337 10.8439 21.3581 10.9608 21.5027 10.9608ZM21.884 12.9812H24.4427C24.8238 12.9812 25.0931 12.7215 25.0931 12.3404C25.0931 11.9497 24.8238 11.69 24.4427 11.69H21.884C21.5008 11.69 21.2337 11.9497 21.2337 12.3404C21.2337 12.7215 21.5008 12.9812 21.884 12.9812ZM21.884 15.0249H24.4427C24.8238 15.0249 25.0931 14.7577 25.0931 14.3745C25.0931 13.9934 24.8238 13.7358 24.4427 13.7358H21.884C21.5008 13.7358 21.2337 13.9934 21.2337 14.3745C21.2337 14.7577 21.5008 15.0249 21.884 15.0249Z" fill="black"/>
</svg>
