<svg width="28" height="28" viewBox="0 0 28 28" fill="none" xmlns="http://www.w3.org/2000/svg">
<path d="M16.8532 1.80884L12.3059 14.3261C12.1207 14.8145 12.375 15.3562 12.873 15.5392C13.3657 15.7244 13.9052 15.4605 14.0862 14.9837L18.6431 2.46649C18.8144 1.96844 18.5665 1.42681 18.0759 1.24165C17.5779 1.06071 17.0245 1.32251 16.8532 1.80884ZM2.45132 22.0837C3.71624 22.5383 4.95562 21.94 5.40069 20.7165L9.25522 10.2041L8.41898 10.6752C9.14202 12.4009 10.6158 13.7371 12.6286 14.3601L13.2063 12.7501C10.7782 11.898 9.39233 10.202 9.36749 7.98133L8.8535 7.79829C8.60788 7.69938 8.32288 7.83016 8.23359 8.0854L3.88875 20.0078C3.73195 20.4398 3.32882 20.5687 2.98124 20.4407C2.66671 20.3169 2.46726 19.9961 2.61444 19.6068L7.75405 5.51196C8.04069 4.70734 8.89335 4.31406 9.68835 4.59859L10.444 4.87C11.8959 3.14031 14.0916 2.69383 16.5433 3.60531L17.1169 2.00501C14.4436 1.00728 11.8566 1.37079 10.0024 2.97181L9.78937 2.88767C8.28257 2.33618 6.83742 3.18462 6.19101 4.95227L1.0418 19.112C0.59461 20.3472 1.15711 21.61 2.45132 22.0837ZM3.49382 21.4033L2.09367 20.8905L0 26.6549L1.40015 27.1581L3.49382 21.4033Z" fill="black"/>
<path d="M17.8446 14.154C18.2576 13.7943 18.2915 13.2079 17.9435 12.7949C17.5783 12.3862 16.9919 12.3714 16.579 12.7194C16.1894 13.1059 16.1576 13.6827 16.5206 14.0723C16.8783 14.4543 17.4647 14.5054 17.8446 14.154ZM19.5731 9.76047C19.7519 9.27836 19.4847 8.73344 18.993 8.5525C18.5013 8.37368 17.9489 8.61203 17.768 9.11336C17.5849 9.62219 17.8329 10.1863 18.3342 10.3694C18.8376 10.5482 19.3826 10.281 19.5731 9.76047ZM21.0686 5.3575C20.9686 4.83274 20.5132 4.50391 19.9767 4.57516C19.4423 4.66352 19.0826 5.09969 19.1613 5.62445C19.2326 6.15344 19.7093 6.50148 20.2437 6.43984C20.7822 6.35898 21.1303 5.88648 21.0686 5.3575Z" fill="black"/>
<path d="M20.0394 16.574C20.4407 16.2109 20.4651 15.6011 20.0978 15.1998C19.7594 14.8295 19.1655 14.8073 18.7642 15.1532C18.3822 15.5087 18.3503 16.1069 18.6845 16.4751C19.0635 16.8784 19.6499 16.922 20.0394 16.574ZM22.6241 10.9098C22.8051 10.4181 22.5475 9.86359 22.0462 9.69438C21.5544 9.50383 21.0287 9.74219 20.8499 10.251C20.669 10.7448 20.9073 11.2801 21.4066 11.459C21.91 11.6399 22.4453 11.394 22.6241 10.9098ZM24.2837 4.9061C24.2221 4.37501 23.7187 4.01946 23.2014 4.09071C22.6958 4.17907 22.319 4.65368 22.3902 5.19227C22.4711 5.67859 22.9511 6.04375 23.478 5.98422C23.9973 5.90336 24.3646 5.42125 24.2837 4.9061Z" fill="black"/>
<path d="M22.2167 18.9768C22.5849 18.6212 22.6402 18.054 22.2943 17.6411C21.9366 17.2419 21.3289 17.2293 20.9511 17.5944C20.5786 17.9404 20.5137 18.531 20.8597 18.928C21.2152 19.3293 21.8347 19.3344 22.2167 18.9768ZM25.696 11.9994C25.879 11.5098 25.6193 10.9745 25.1276 10.7819C24.6263 10.603 24.0718 10.851 23.8908 11.3427C23.712 11.8462 23.96 12.4199 24.4592 12.5987C24.9605 12.7797 25.515 12.5029 25.696 11.9994ZM27.51 4.46217C27.4196 3.9353 26.9546 3.56593 26.4352 3.63718C25.9104 3.69671 25.5528 4.21186 25.6336 4.7099C25.7049 5.23467 26.1774 5.59232 26.6925 5.52318C27.2215 5.46154 27.5888 4.95811 27.51 4.46217Z" fill="black"/>
</svg>
