<svg width="28" height="28" viewBox="0 0 28 28" fill="none" xmlns="http://www.w3.org/2000/svg">
<path d="M6.84421 24.8972H21.7931C24.3225 24.8972 25.6373 23.5919 25.6373 21.0914V6.82921C25.6373 4.32656 24.3225 3.02344 21.7931 3.02344H6.84421C4.31484 3.02344 3 4.31695 3 6.82921V21.0914C3 23.6016 4.31484 24.8972 6.84421 24.8972Z" fill="black"/>
<path d="M14.3184 12.6087C13.0403 12.6087 12.0072 11.581 12.0072 10.2954C12.0072 9.01949 13.0403 7.98425 14.3184 7.98425C15.5964 7.98425 16.6295 9.01949 16.6295 10.2954C16.6295 11.581 15.5964 12.6087 14.3184 12.6087ZM10.2471 19.9172C9.20972 19.9172 8.36621 19.0737 8.36621 18.0363C8.36621 17.0086 9.20972 16.1747 10.2471 16.1747C11.2769 16.1747 12.1087 17.0086 12.1087 18.0363C12.1087 19.0737 11.2769 19.9172 10.2471 19.9172ZM18.3993 19.9172C17.3599 19.9172 16.5281 19.0737 16.5281 18.0363C16.5281 17.0086 17.3599 16.1747 18.3993 16.1747C19.4174 16.1747 20.2706 17.0086 20.2706 18.0363C20.2706 19.0737 19.4174 19.9172 18.3993 19.9172Z" fill="white"/>
</svg>
