<svg width="28" height="28" viewBox="0 0 28 28" fill="none" xmlns="http://www.w3.org/2000/svg">
<path d="M4.1189 25.9406C4.74327 25.9406 5.24741 25.4269 5.24741 24.8121V21.0422H9.16124C9.93468 21.0422 10.5091 20.4677 10.5091 19.6964V15.7805H14.4251C15.1964 15.7805 15.7805 15.206 15.7805 14.4326V10.5187H19.6868C20.4677 10.5187 21.0443 9.94218 21.0443 9.17085V5.2453H24.8025C25.4269 5.2453 25.931 4.74116 25.931 4.12851C25.931 3.51375 25.4269 3 24.8025 3H20.1426C19.3713 3 18.7969 3.58406 18.7969 4.35538V8.27133H14.8809C14.1096 8.27133 13.5352 8.84578 13.5352 9.61921V13.533H9.6096C8.83828 13.533 8.26172 14.1096 8.26172 14.8905V18.7969H4.34788C3.57445 18.7969 3 19.3809 3 20.1523V24.8121C3 25.4269 3.50414 25.9406 4.1189 25.9406Z" fill="black"/>
</svg>
