<svg width="28" height="28" viewBox="0 0 28 28" fill="none" xmlns="http://www.w3.org/2000/svg">
<path d="M6.84421 24.8972H21.0295C23.5685 24.8972 24.8737 23.5919 24.8737 21.0914V6.82921C24.8737 4.32656 23.5685 3.02344 21.0295 3.02344H6.84421C4.31484 3.02344 3 4.31695 3 6.82921V21.0914C3 23.6016 4.31484 24.8972 6.84421 24.8972Z" fill="black"/>
<path d="M9.27717 19.7116C8.5239 19.7116 7.98438 19.1721 7.98438 18.4188V9.46663C7.98438 8.71335 8.5239 8.17383 9.27717 8.17383H18.5969C19.3502 8.17383 19.8897 8.71335 19.8897 9.46663V18.4188C19.8897 19.1721 19.3502 19.7116 18.5969 19.7116H9.27717ZM13.9525 13.1608C14.7726 13.1608 15.4478 12.4835 15.4478 11.6538C15.4478 10.822 14.7726 10.1489 13.9525 10.1489C13.1207 10.1489 12.4476 10.822 12.4476 11.6538C12.4476 12.4835 13.1207 13.1608 13.9525 13.1608ZM11.3167 17.7173C12.0133 17.7173 12.5788 17.1593 12.5788 16.4606C12.5788 15.7662 12.0133 15.1985 11.3167 15.1985C10.6255 15.1985 10.06 15.7619 10.06 16.4606C10.06 17.1593 10.6255 17.7173 11.3167 17.7173ZM16.5787 17.7173C17.2774 17.7173 17.8375 17.1593 17.8375 16.4606C17.8375 15.7662 17.2774 15.1985 16.5787 15.1985C15.88 15.1985 15.3145 15.7662 15.3145 16.4606C15.3145 17.1593 15.88 17.7173 16.5787 17.7173Z" fill="white"/>
</svg>
