<svg width="28" height="28" viewBox="0 0 28 28" fill="none" xmlns="http://www.w3.org/2000/svg">
<path d="M6.84421 24.8972H21.7931C24.3225 24.8972 25.6373 23.5919 25.6373 21.0914V6.82921C25.6373 4.32656 24.3225 3.02344 21.7931 3.02344H6.84421C4.31484 3.02344 3 4.31695 3 6.82921V21.0914C3 23.6016 4.31484 24.8972 6.84421 24.8972Z" fill="black"/>
<path d="M13.8326 12.5944C13.3772 12.5944 13.0538 12.2731 13.0538 11.806V8.36089C13.0538 7.89589 13.3793 7.57996 13.8326 7.57996H14.7947C15.2576 7.57996 15.5714 7.89589 15.5714 8.36089V11.806C15.5714 12.2731 15.2597 12.5944 14.7947 12.5944H13.8326ZM8.61687 19.7194C8.14015 19.7194 7.83594 19.4151 7.83594 18.9502V17.9763C7.83594 17.523 8.14226 17.1996 8.61687 17.1996H11.7174C12.1803 17.1996 12.4962 17.5134 12.4962 17.9763V18.9502C12.4962 19.4151 12.1824 19.7194 11.7174 19.7194H8.61687ZM16.9196 19.7194C16.4546 19.7194 16.1311 19.4151 16.1311 18.9502V17.9763C16.1311 17.5134 16.4567 17.1996 16.9196 17.1996H20.0126C20.4851 17.1996 20.8032 17.523 20.8032 17.9763V18.9502C20.8032 19.413 20.4968 19.7194 20.0126 19.7194H16.9196Z" fill="white"/>
</svg>
