<svg width="30" height="28" viewBox="0 0 30 28" fill="none" xmlns="http://www.w3.org/2000/svg">
<path d="M1.14421 26.1541C1.78124 26.1541 2.29592 25.6394 2.29592 25.0098V3.93389C2.29592 3.54623 2.54623 3.29592 2.91256 3.29592H26.3641C26.7305 3.29592 26.9808 3.54623 26.9808 3.93389V25.0098C26.9808 25.6394 27.4955 26.1541 28.1229 26.1541C28.762 26.1541 29.2767 25.6394 29.2767 25.0098V3.72178C29.2767 2.07273 28.1869 1 26.4973 1H2.77194C1.08984 1 0 2.07273 0 3.72178V25.0098C0 25.6394 0.514684 26.1541 1.14421 26.1541Z" fill="black"/>
<path d="M15.1022 25.6553H25.2045C25.4166 25.6553 25.5861 25.4762 25.5861 25.2716V5.06427C25.5861 4.85005 25.4166 4.6806 25.2045 4.6806H15.1022C14.8901 4.6806 14.7207 4.85005 14.7207 5.06427V25.2716C14.7207 25.4762 14.8901 25.6553 15.1022 25.6553ZM17.3818 16.8855C17.0347 16.8855 16.7792 16.63 16.7792 16.2733V14.2267C16.7792 13.87 17.0347 13.6241 17.3818 13.6241C17.7364 13.6241 17.9822 13.87 17.9822 14.2267V16.2733C17.9822 16.63 17.7364 16.8855 17.3818 16.8855Z" fill="black"/>
</svg>
