<svg width="28" height="28" viewBox="0 0 28 28" fill="none" xmlns="http://www.w3.org/2000/svg">
<path d="M3.41675 22.7134L5.62925 14.8086H12.5143L10.1236 23.3502H3.92136C3.48824 23.3502 3.30261 23.1336 3.41675 22.7134ZM6.24917 12.5572L8.38691 4.93645C8.49894 4.51715 8.76566 4.29309 9.17113 4.29309H15.4534L13.1417 12.5572H6.24917ZM12.4466 23.3502L14.8255 14.8086H21.8399L19.6328 22.7068C19.5207 23.1165 19.2561 23.3502 18.8464 23.3502H12.4466ZM15.4454 12.5572L17.7645 4.29309H24.0962C24.5314 4.29309 24.7171 4.50965 24.6029 4.92989L22.4673 12.5572H15.4454Z" fill="white"/>
<path d="M3.40214 25.624H19.3263C20.5146 25.624 21.3438 24.9512 21.6482 23.8386L26.883 5.03281C27.3855 3.2368 26.451 2.01923 24.6157 2.01923H8.69152C7.50324 2.01923 6.68363 2.69212 6.37168 3.79508L1.13481 22.6105C0.632309 24.3969 1.56676 25.624 3.40214 25.624ZM3.4169 22.7134L5.6294 14.8086H12.5144L10.1238 23.3502H3.92151C3.48839 23.3502 3.30276 23.1336 3.4169 22.7134ZM6.24932 12.5572L8.38706 4.93648C8.49909 4.51718 8.76581 4.29312 9.17128 4.29312H15.4535L13.1418 12.5572H6.24932ZM12.4467 23.3502L14.8256 14.8086H21.84L19.6329 22.7068C19.5208 23.1165 19.2562 23.3502 18.8465 23.3502H12.4467ZM15.4455 12.5572L17.7646 4.29312H24.0963C24.5315 4.29312 24.7172 4.50968 24.603 4.92992L22.4674 12.5572H15.4455Z" fill="black"/>
</svg>
