<svg width="28" height="30" viewBox="0 0 28 30" fill="none" xmlns="http://www.w3.org/2000/svg">
<path d="M13.9208 8.64493C13.9208 7.0029 14.5806 5.56055 15.0062 4.64111C15.5408 3.48564 16.3119 2.16376 17.0596 0.935638H7.10874C5.21875 0.935638 4 2.12884 4 3.99422V23.9906C4 25.8539 5.21664 27.0588 7.10874 27.0588H19.4104C21.3025 27.0588 22.5095 25.8539 22.5095 23.9906V14.3086C21.7895 14.5706 20.98 14.7134 20.1193 14.7134C16.494 14.7134 13.9208 12.2053 13.9208 8.64493ZM9.32124 8.06321C8.34038 8.06321 7.55546 7.26446 7.55546 6.28571C7.55546 5.32079 8.34038 4.52954 9.32124 4.52954C10.2904 4.52954 11.087 5.32079 11.087 6.28571C11.087 7.26446 10.2904 8.06321 9.32124 8.06321ZM8.22038 17.8333C7.76264 17.8333 7.3996 17.4757 7.3996 17.0105C7.3996 16.5548 7.76264 16.1855 8.22038 16.1855H11.6369C12.1021 16.1855 12.4672 16.5548 12.4672 17.0105C12.4672 17.4757 12.1021 17.8333 11.6369 17.8333H8.22038ZM8.22038 20.8652C7.76264 20.8652 7.3996 20.5097 7.3996 20.0423C7.3996 19.5771 7.76264 19.2194 8.22038 19.2194H11.6369C12.1021 19.2194 12.4672 19.5771 12.4672 20.0423C12.4672 20.5097 12.1021 20.8652 11.6369 20.8652H8.22038ZM8.22038 23.8992C7.76264 23.8992 7.3996 23.5319 7.3996 23.0763C7.3996 22.6111 7.76264 22.2417 8.22038 22.2417H11.6369C12.1021 22.2417 12.4672 22.6111 12.4672 23.0763C12.4672 23.5319 12.1021 23.8992 11.6369 23.8992H8.22038ZM14.8726 17.8333C14.4074 17.8333 14.0422 17.4757 14.0422 17.0105C14.0422 16.5548 14.4074 16.1855 14.8726 16.1855H18.2891C18.7469 16.1855 19.1099 16.5548 19.1099 17.0105C19.1099 17.4757 18.7469 17.8333 18.2891 17.8333H14.8726ZM14.8726 20.8652C14.4074 20.8652 14.0422 20.5097 14.0422 20.0423C14.0422 19.5771 14.4074 19.2194 14.8726 19.2194H18.2891C18.7469 19.2194 19.1099 19.5771 19.1099 20.0423C19.1099 20.5097 18.7469 20.8652 18.2891 20.8652H14.8726ZM14.8726 23.8992C14.4074 23.8992 14.0422 23.5319 14.0422 23.0763C14.0422 22.6111 14.4074 22.2417 14.8726 22.2417H18.2891C18.7469 22.2417 19.1099 22.6111 19.1099 23.0763C19.1099 23.5319 18.7469 23.8992 18.2891 23.8992H14.8726ZM7.47648 29.2732C8.11281 29.2732 8.54476 28.8295 8.54476 28.1932V25.7613H6.39649V28.1932C6.39649 28.8295 6.84016 29.2732 7.47648 29.2732ZM19.033 29.2732C19.679 29.2732 20.113 28.8295 20.113 28.1932V25.7613H17.9647V28.1932C17.9647 28.8295 18.3967 29.2732 19.033 29.2732Z" fill="black"/>
<path d="M20.1189 13.0099C22.8138 13.0099 24.6119 11.2577 24.6119 8.64492C24.6119 7.40554 24.1003 6.27211 23.6798 5.34586C22.9767 3.84047 21.8557 2.0107 20.8797 0.493591C20.651 0.162655 20.4063 0 20.1189 0C19.8316 0 19.5869 0.162655 19.3582 0.493591C18.3759 2.0107 17.257 3.84258 16.5581 5.34797C16.1376 6.27422 15.626 7.40554 15.626 8.64492C15.626 11.2577 17.4241 13.0099 20.1189 13.0099Z" fill="black"/>
</svg>
