<svg width="30" height="28" viewBox="0 0 30 28" fill="none" xmlns="http://www.w3.org/2000/svg">
<path d="M1.14421 26.1541C1.78124 26.1541 2.29592 25.6394 2.29592 25.0098V3.93389C2.29592 3.54623 2.54623 3.29592 2.91256 3.29592H26.3641C26.7305 3.29592 26.9808 3.54623 26.9808 3.93389V25.0098C26.9808 25.6394 27.4955 26.1541 28.1229 26.1541C28.762 26.1541 29.2767 25.6394 29.2767 25.0098V3.72178C29.2767 2.07273 28.1869 1 26.4973 1H2.77194C1.08984 1 0 2.07273 0 3.72178V25.0098C0 25.6394 0.514684 26.1541 1.14421 26.1541Z" fill="black"/>
<path d="M3.69043 25.2182C3.69043 25.4683 3.88847 25.6623 4.15121 25.607L11.2989 24.0182C11.5406 23.9671 11.7196 23.8 11.7196 23.5593V6.39742C11.7196 6.16633 11.5502 5.99922 11.3085 5.94813L4.1416 4.3518C3.88847 4.30398 3.69043 4.48844 3.69043 4.74812V25.2182ZM9.71059 18.6501C9.90418 18.6341 10.0424 18.7511 10.0424 18.9585V22.3441C10.0424 22.5451 9.91379 22.6609 9.72981 22.7003L5.7091 23.4869C5.52511 23.5262 5.38894 23.4294 5.38894 23.2103V19.2866C5.38894 19.0834 5.52511 18.9526 5.7091 18.9388L9.71059 18.6501ZM5.38894 17.0861V12.8865C5.38894 12.6695 5.52511 12.5547 5.7091 12.5664L9.7202 12.7848C9.91379 12.7965 10.0424 12.9273 10.0424 13.1326V16.8379C10.0424 17.0453 9.90418 17.1644 9.7202 17.1782L5.7091 17.4062C5.51551 17.418 5.38894 17.2935 5.38894 17.0861ZM9.71809 11.3226L5.69949 11.0242C5.51551 11.0083 5.38894 10.9169 5.38894 10.6999V6.7464C5.38894 6.52937 5.52511 6.43047 5.7091 6.46984L9.72652 7.22758C9.91894 7.25945 10.0424 7.37312 10.0424 7.58383V10.979C10.0424 11.1906 9.91379 11.3364 9.71809 11.3226ZM25.5867 25.2182V4.74812C25.5867 4.48844 25.3886 4.30398 25.1355 4.3518L17.9685 5.94813C17.7269 5.99922 17.5575 6.16633 17.5575 6.39742V23.5593C17.5575 23.8 17.7269 23.9671 17.9782 24.0182L25.1259 25.607C25.3886 25.6623 25.5867 25.4683 25.5867 25.2182ZM19.5665 18.6501L23.5584 18.9388C23.752 18.9526 23.8882 19.0834 23.8882 19.2866V23.2103C23.8882 23.4294 23.752 23.5262 23.568 23.4869L19.5473 22.7003C19.3633 22.6609 19.2346 22.5451 19.2346 22.3441V18.9585C19.2346 18.7511 19.3729 18.6341 19.5665 18.6501ZM23.8882 17.0861C23.8882 17.2935 23.7616 17.418 23.568 17.4062L19.5569 17.1782C19.3633 17.1644 19.2346 17.0453 19.2346 16.8379V13.1326C19.2346 12.9273 19.3633 12.7965 19.5569 12.7848L23.568 12.5664C23.752 12.5547 23.8882 12.6695 23.8882 12.8865V17.0861ZM19.559 11.3226C19.3633 11.3364 19.2346 11.1906 19.2346 10.979V7.58383C19.2346 7.37312 19.3582 7.25945 19.5506 7.22758L23.568 6.46984C23.7424 6.43047 23.8882 6.52937 23.8882 6.7464V10.6999C23.8882 10.9169 23.7616 11.0083 23.5776 11.0242L19.559 11.3226Z" fill="black"/>
</svg>
