<svg width="28" height="28" viewBox="0 0 28 28" fill="none" xmlns="http://www.w3.org/2000/svg">
<path d="M6.84421 24.8972H21.7931C24.3225 24.8972 25.6373 23.5919 25.6373 21.0914V6.82921C25.6373 4.32656 24.3225 3.02344 21.7931 3.02344H6.84421C4.31484 3.02344 3 4.31695 3 6.82921V21.0914C3 23.6016 4.31484 24.8972 6.84421 24.8972ZM6.97733 22.6013C5.88772 22.6013 5.29592 22.0371 5.29592 20.8985V7.01999C5.29592 5.88139 5.88772 5.31936 6.97733 5.31936H21.6504C22.7304 5.31936 23.3414 5.88139 23.3414 7.01999V20.8985C23.3414 22.0371 22.7304 22.6013 21.6504 22.6013H6.97733Z" fill="black"/>
<path d="M13.8533 19.7939H14.7793C15.2262 19.7939 15.522 19.5002 15.522 19.0437V15.7019C15.522 15.2592 15.2241 14.9517 14.7793 14.9517H13.8533C13.418 14.9517 13.1126 15.2592 13.1126 15.7019V19.0437C13.1126 19.4906 13.4063 19.7939 13.8533 19.7939ZM8.35012 12.9188L9.01294 13.5698C9.33005 13.8869 9.75145 13.8848 10.0664 13.5698L12.7032 10.9373C13.0257 10.617 13.0236 10.1967 12.7011 9.88384L12.0479 9.22103C11.7329 8.91775 11.3243 8.91353 11.0018 9.22853L8.35973 11.8631C8.04684 12.1802 8.04473 12.6017 8.35012 12.9188ZM19.625 13.5698L20.2878 12.9091C20.5932 12.6017 20.5911 12.1899 20.2686 11.8631L17.6361 9.22853C17.3232 8.91353 16.9051 8.91775 16.5901 9.22103L15.9369 9.88384C15.6144 10.1967 15.6123 10.617 15.9347 10.9373L18.5715 13.5698C18.8865 13.8848 19.2983 13.8869 19.625 13.5698Z" fill="black"/>
</svg>
