<svg width="28" height="28" viewBox="0 0 28 28" fill="none" xmlns="http://www.w3.org/2000/svg">
<path d="M6.84421 24.8972H21.0295C23.5685 24.8972 24.8737 23.5919 24.8737 21.0914V6.82921C24.8737 4.32656 23.5685 3.02344 21.0295 3.02344H6.84421C4.31484 3.02344 3 4.31695 3 6.82921V21.0914C3 23.6016 4.31484 24.8972 6.84421 24.8972Z" fill="black"/>
<path d="M13.9406 20.4019C10.3563 20.4019 7.48145 17.5174 7.48145 13.9427C7.48145 10.3659 10.3563 7.48145 13.9406 7.48145C17.5174 7.48145 20.3923 10.3659 20.3923 13.9427C20.3923 17.5174 17.5174 20.4019 13.9406 20.4019ZM13.9406 11.6175C14.4656 11.6175 14.899 11.1787 14.899 10.6537C14.899 10.117 14.4656 9.68364 13.9406 9.68364C13.4039 9.68364 12.9726 10.117 12.9726 10.6537C12.9726 11.1787 13.4039 11.6175 13.9406 11.6175ZM10.7224 15.3947C11.5265 15.3947 12.1825 14.7312 12.1825 13.9366C12.1825 13.1421 11.5265 12.4807 10.7224 12.4807C9.92786 12.4807 9.26856 13.1379 9.26856 13.9366C9.26856 14.7354 9.92786 15.3947 10.7224 15.3947ZM17.1471 15.3755C17.9416 15.3755 18.603 14.7119 18.603 13.9174C18.603 13.1187 17.9395 12.4614 17.1471 12.4614C16.3505 12.4614 15.6891 13.1229 15.6891 13.9174C15.6891 14.7119 16.3505 15.3755 17.1471 15.3755Z" fill="white"/>
</svg>
