<svg width="29" height="28" viewBox="0 0 29 28" fill="none" xmlns="http://www.w3.org/2000/svg">
<path d="M6.13827 25.6662H21.5079C25.552 25.6662 28.6844 22.6019 28.6844 18.6762C28.6844 14.711 25.5208 11.7014 21.1919 11.7014C19.6101 8.58023 16.736 6.72937 13.1871 6.72937C8.57273 6.72937 4.6814 10.2314 4.20375 14.9641C1.79461 15.6869 0.210467 17.7042 0.210467 20.2244C0.210467 23.2666 2.4389 25.6662 6.13827 25.6662ZM6.14436 23.4694C3.80319 23.4694 2.40936 22.2171 2.40936 20.2851C2.40936 18.6293 3.47061 17.456 5.3817 16.95C6.05061 16.7838 6.29249 16.4855 6.35623 15.7678C6.70498 11.7867 9.56975 8.92615 13.1871 8.92615C15.9279 8.92615 18.0919 10.4648 19.4234 13.139C19.7076 13.7322 20.0517 13.9315 20.7834 13.9315C24.4219 13.9315 26.4855 16.0514 26.4855 18.7294C26.4855 21.4029 24.3574 23.4694 21.5883 23.4694H6.14436ZM1.67859 13.8919C2.59992 13.8919 3.34336 13.1484 3.34336 12.2133C3.34336 11.2898 2.59992 10.5485 1.67859 10.5485C0.743437 10.5485 0 11.2898 0 12.2133C0 13.1484 0.743437 13.8919 1.67859 13.8919ZM19.2147 6.15164C20.0775 6.15164 20.7858 5.44336 20.7858 4.58062C20.7858 3.71789 20.0775 3 19.2147 3C18.352 3 17.6437 3.71789 17.6437 4.58062C17.6437 5.44336 18.352 6.15164 19.2147 6.15164ZM24.2601 10.297C25.5574 10.297 26.598 9.25218 26.598 7.93781C26.598 6.63093 25.5574 5.58609 24.2601 5.58609C22.9415 5.58609 21.8892 6.63093 21.8892 7.93781C21.8892 9.25218 22.9415 10.297 24.2601 10.297Z" fill="black"/>
<path d="M11.2928 21.4333C12.8449 21.4333 13.796 20.3233 13.8344 19.1175C13.844 18.6862 13.5832 18.3839 13.185 18.3839C12.806 18.3839 12.6175 18.6 12.5217 19.0174C12.397 19.5834 12.0623 20.193 11.2928 20.193C10.1707 20.193 9.82003 18.9973 9.82003 17.6665C9.82003 16.4198 10.1941 15.1805 11.2811 15.1805C12.0506 15.1805 12.348 15.7805 12.4823 16.3486C12.5803 16.766 12.775 16.9821 13.1477 16.9821C13.548 16.9821 13.8089 16.6894 13.7993 16.2485C13.7608 15.0405 12.8097 13.9401 11.2556 13.9401C9.32222 13.9401 8.44238 15.6148 8.44238 17.6665C8.44238 19.6809 9.2423 21.4333 11.2928 21.4333ZM17.0259 21.4333C18.7462 21.4333 19.8349 19.9718 19.8349 17.6878C19.8349 15.3921 18.7462 13.9401 17.0259 13.9401C15.2939 13.9401 14.1893 15.3921 14.1893 17.6878C14.1893 19.9718 15.2939 21.4333 17.0259 21.4333ZM17.0259 20.193C16.1296 20.193 15.5744 19.2755 15.5744 17.6878C15.5744 16.1001 16.1296 15.1805 17.0259 15.1805C17.9083 15.1805 18.4593 16.1001 18.4593 17.6878C18.4593 19.2755 17.9083 20.193 17.0259 20.193Z" fill="black"/>
</svg>
