<svg width="28" height="28" viewBox="0 0 28 28" fill="none" xmlns="http://www.w3.org/2000/svg">
<path d="M22.4133 26.1541C23.0429 26.1541 23.5554 25.6394 23.5554 25.0098V3.72178C23.5554 2.07273 22.4752 1 20.7856 1H7.77194C6.08984 1 5 2.07273 5 3.72178V25.0098C5 25.6394 5.51468 26.1541 6.14421 26.1541C6.78124 26.1541 7.29592 25.6394 7.29592 25.0098V3.93389C7.29592 3.54623 7.54623 3.29592 7.91256 3.29592H20.6429C21.0092 3.29592 21.2595 3.54623 21.2595 3.93389V25.0098C21.2595 25.6394 21.7742 26.1541 22.4133 26.1541Z" fill="black"/>
<path d="M19.4935 25.6553C19.6981 25.6553 19.8675 25.4762 19.8675 25.2716V5.06427C19.8675 4.85005 19.6981 4.6806 19.4935 4.6806H9.07199C8.85988 4.6806 8.69043 4.85005 8.69043 5.06427V25.2716C8.69043 25.4762 8.85988 25.6553 9.07199 25.6553H19.4935ZM11.4964 16.1976C10.9765 16.1976 10.5546 15.7715 10.5546 15.2559C10.5546 14.7285 10.9765 14.3141 11.4964 14.3141C12.0141 14.3141 12.436 14.7285 12.436 15.2559C12.436 15.7715 12.0141 16.1976 11.4964 16.1976Z" fill="black"/>
</svg>
