<svg width="28" height="28" viewBox="0 0 28 28" fill="none" xmlns="http://www.w3.org/2000/svg">
<path d="M13.5162 26.2759C19.234 26.2759 24.5034 22.5287 24.5034 18.4152V17.4285H25.4196C26.3819 17.4285 27.0344 16.776 27.0344 15.8212V11.4665C27.0344 10.502 26.3819 9.84953 25.4196 9.84953H24.5034V8.87031C24.5034 4.7589 19.234 1 13.5162 1C7.80046 1 2.53101 4.7589 2.53101 8.87031V9.84953H1.61484C0.652498 9.84953 0 10.502 0 11.4665V15.8212C0 16.776 0.652498 17.4285 1.61484 17.4285H2.53101V18.4152C2.53101 22.5287 7.80046 26.2759 13.5162 26.2759ZM13.5162 24.1023C8.95124 24.1023 4.70249 21.2083 4.70249 18.3161V8.96944C4.70249 6.07937 8.95124 3.17569 13.5162 3.17569C18.0832 3.17569 22.3298 6.07937 22.3298 8.96944V18.3161C22.3298 21.2083 18.0832 24.1023 13.5162 24.1023Z" fill="black"/>
<path d="M8.19863 15.8882C9.44387 15.8882 10.443 14.8794 10.443 13.6438C10.443 12.4082 9.44387 11.3994 8.19863 11.3994C6.96301 11.3994 5.96387 12.4082 5.96387 13.6438C5.96387 14.8794 6.96301 15.8882 8.19863 15.8882ZM18.8256 15.8882C20.0709 15.8882 21.07 14.8794 21.07 13.6438C21.07 12.4082 20.0709 11.3994 18.8256 11.3994C17.59 11.3994 16.5909 12.4082 16.5909 13.6438C16.5909 14.8794 17.59 15.8882 18.8256 15.8882Z" fill="black"/>
</svg>
