<svg width="28" height="28" viewBox="0 0 28 28" fill="none" xmlns="http://www.w3.org/2000/svg">
<path d="M6.84421 24.8972H21.0295C23.5685 24.8972 24.8737 23.5919 24.8737 21.0914V6.82921C24.8737 4.32656 23.5685 3.02344 21.0295 3.02344H6.84421C4.31484 3.02344 3 4.31695 3 6.82921V21.0914C3 23.6016 4.31484 24.8972 6.84421 24.8972Z" fill="black"/>
<path d="M11.7588 21.0478C11.0055 21.0478 10.4639 20.5083 10.4639 19.7454V8.14431C10.4639 7.39103 11.0055 6.8515 11.7588 6.8515H16.1158C16.8691 6.8515 17.4107 7.39103 17.4107 8.14431V19.7454C17.4107 20.5083 16.8691 21.0478 16.1158 21.0478H11.7588ZM13.9473 11.2388C14.6385 11.2388 15.2083 10.669 15.2083 9.97361C15.2083 9.27283 14.6385 8.70306 13.9473 8.70306C13.2381 8.70306 12.6705 9.27072 12.6705 9.97361C12.6705 10.669 13.2381 11.2388 13.9473 11.2388ZM13.9473 15.2079C14.6385 15.2079 15.2083 14.6456 15.2083 13.9427C15.2083 13.2419 14.6385 12.6797 13.9473 12.6797C13.2381 12.6797 12.6705 13.2398 12.6705 13.9427C12.6705 14.6456 13.2381 15.2079 13.9473 15.2079ZM13.9473 19.1845C14.6385 19.1845 15.2083 18.6148 15.2083 17.9098C15.2083 17.209 14.6385 16.6467 13.9473 16.6467C13.2381 16.6467 12.6705 17.2069 12.6705 17.9098C12.6705 18.6148 13.2381 19.1845 13.9473 19.1845Z" fill="white"/>
</svg>
