<svg width="28" height="28" viewBox="0 0 28 28" fill="none" xmlns="http://www.w3.org/2000/svg">
<path d="M11.6393 26.7143L15.2013 22.4705C15.5613 22.0498 15.6145 21.9476 15.7551 21.5098L15.9749 20.8289L14.0102 18.3668L13.4603 20.9562L9.94614 25.1213C8.79396 26.5046 10.683 27.8548 11.6393 26.7143ZM20.2574 26.3522C21.0156 27.8804 23.271 26.9358 22.4521 25.2746L20.0341 20.3778C19.8445 20.0103 19.5963 19.6097 19.3555 19.2765L17.8375 17.1235L17.9366 16.824C18.3426 15.5799 18.5076 14.8428 18.5896 13.6231L18.8282 10.1942C18.9475 8.53604 17.9603 7.29198 16.2838 7.29198C15.0142 7.29198 14.159 7.93205 13.0054 9.0601L11.1914 10.8486C10.597 11.4312 10.399 11.9147 10.3383 12.7018L10.1114 15.5033C10.0603 16.2359 10.4723 16.7534 11.1464 16.7768C11.8322 16.8258 12.2538 16.4138 12.3166 15.6385L12.5765 12.5822L13.4141 11.8341C13.6998 11.5697 14.0952 11.7425 14.0697 12.0568L13.8843 14.6C13.7884 15.9092 14.0772 16.5535 15.007 17.7005L17.4037 20.7129C17.6456 21.0155 17.6732 21.1285 17.7808 21.3244L20.2574 26.3522ZM24.4103 11.9192H21.7002L20.0336 10.0852L19.8259 13.0423L20.4086 13.6229C20.8038 14.0105 21.1488 14.134 21.8613 14.134H24.4103C25.1589 14.134 25.6487 13.7124 25.6487 13.0266C25.6487 12.3622 25.1451 11.9192 24.4103 11.9192ZM17.6184 6.2858C19.0764 6.2858 20.2469 5.10362 20.2469 3.65729C20.2469 2.20136 19.0764 1.03088 17.6184 1.03088C16.1624 1.03088 14.992 2.20136 14.992 3.65729C14.992 5.10362 16.1624 6.2858 17.6184 6.2858Z" fill="black"/>
<path d="M2 26.2326C2 26.8813 2.5339 27.4056 3.17304 27.4056C3.81967 27.4056 4.35358 26.8813 4.35358 26.2326V2.17304C4.35358 1.52429 3.81967 1 3.17304 1C2.5339 1 2 1.52429 2 2.17304V26.2326Z" fill="black"/>
</svg>
