<svg width="28" height="28" viewBox="0 0 28 28" fill="none" xmlns="http://www.w3.org/2000/svg">
<path d="M6.84421 24.8972H21.0295C23.5685 24.8972 24.8737 23.5919 24.8737 21.0914V6.82921C24.8737 4.32656 23.5685 3.02344 21.0295 3.02344H6.84421C4.31484 3.02344 3 4.31695 3 6.82921V21.0914C3 23.6016 4.31484 24.8972 6.84421 24.8972ZM6.97733 22.6013C5.88772 22.6013 5.29592 22.0371 5.29592 20.8985V7.01999C5.29592 5.88139 5.88772 5.31936 6.97733 5.31936H20.8964C21.9764 5.31936 22.5778 5.88139 22.5778 7.01999V20.8985C22.5778 22.0371 21.9764 22.6013 20.8964 22.6013H6.97733Z" fill="black"/>
<path d="M10.3125 9.93817C9.51843 9.93817 9.16616 10.2194 8.79585 10.694L6.92366 13.1442C6.54889 13.6148 6.54889 14.2355 6.92366 14.7199L8.79796 17.1914C9.17038 17.666 9.60702 17.9377 10.3125 17.9377H17.5622C18.2677 17.9377 18.7043 17.666 19.0767 17.1914L20.951 14.7199C21.3258 14.2355 21.3258 13.6148 20.951 13.1442L19.0789 10.694C18.7085 10.2194 18.3563 9.93817 17.5622 9.93817H10.3125ZM9.93655 12.8409C10.5375 12.8409 11.0405 13.3439 11.0405 13.9448C11.0405 14.5437 10.5375 15.037 9.93655 15.037C9.34944 15.037 8.84647 14.5437 8.84647 13.9448C8.84647 13.3439 9.34944 12.8409 9.93655 12.8409ZM13.9411 14.1921C14.5421 14.1921 15.0354 14.6951 15.0354 15.2843C15.0354 15.8831 14.5421 16.3861 13.9411 16.3861C13.3327 16.3861 12.8393 15.8831 12.8393 15.2843C12.8393 14.6951 13.3327 14.1921 13.9411 14.1921ZM17.9382 12.8409C18.5253 12.8409 19.0282 13.3439 19.0282 13.9448C19.0282 14.5437 18.5253 15.037 17.9382 15.037C17.3372 15.037 16.8439 14.5437 16.8439 13.9448C16.8439 13.3439 17.3372 12.8409 17.9382 12.8409Z" fill="black"/>
</svg>
