<svg width="28" height="28" viewBox="0 0 28 28" fill="none" xmlns="http://www.w3.org/2000/svg">
<path d="M6.84421 24.8972H21.0295C23.5685 24.8972 24.8737 23.5919 24.8737 21.0914V6.82921C24.8737 4.32656 23.5685 3.02344 21.0295 3.02344H6.84421C4.31484 3.02344 3 4.31695 3 6.82921V21.0914C3 23.6016 4.31484 24.8972 6.84421 24.8972ZM6.97733 22.6013C5.88772 22.6013 5.29592 22.0371 5.29592 20.8985V7.01999C5.29592 5.88139 5.88772 5.31936 6.97733 5.31936H20.8964C21.9764 5.31936 22.5778 5.88139 22.5778 7.01999V20.8985C22.5778 22.0371 21.9764 22.6013 20.8964 22.6013H6.97733Z" fill="black"/>
<path d="M13.9407 19.9959C17.296 19.9959 19.9843 17.298 19.9843 13.9448C19.9843 10.5916 17.296 7.89374 13.9407 7.89374C10.5779 7.89374 7.88965 10.5916 7.88965 13.9448C7.88965 17.298 10.5779 19.9959 13.9407 19.9959ZM11.1451 15.2189C10.4162 15.2189 9.80988 14.6147 9.80988 13.8858C9.80988 13.1611 10.4162 12.5548 11.1451 12.5548C11.8815 12.5548 12.4782 13.1611 12.4782 13.8858C12.4782 14.6147 11.8815 15.2189 11.1451 15.2189ZM16.6993 15.2189C15.9704 15.2189 15.3662 14.6168 15.3662 13.8858C15.3662 13.1611 15.9725 12.5548 16.6993 12.5548C17.4282 12.5548 18.0303 13.1611 18.0303 13.8858C18.0303 14.6147 17.4282 15.2189 16.6993 15.2189ZM13.9407 18.2719C13.2064 18.2719 12.6097 17.6559 12.6097 16.9387C12.6097 16.212 13.2064 15.5981 13.9407 15.5981C14.6717 15.5981 15.2685 16.2098 15.2685 16.9387C15.2685 17.6559 14.6717 18.2719 13.9407 18.2719Z" fill="black"/>
</svg>
