<svg width="28" height="28" viewBox="0 0 28 28" fill="none" xmlns="http://www.w3.org/2000/svg">
<path d="M10.8721 9.19232H16.3694C17.2893 9.19232 17.927 8.54498 17.927 7.62506V6.58678C17.927 5.04811 16.8407 4.00116 15.2179 4.00116H12.0215C10.4008 4.00116 9.31234 5.04811 9.31234 6.58678V7.62506C9.31234 8.54498 9.95007 9.19232 10.8721 9.19232ZM11.357 7.35108C11.2302 7.35108 11.1461 7.27444 11.1461 7.14764V6.58678C11.1461 6.09084 11.4585 5.8328 12.0151 5.8328H15.2263C15.7808 5.8328 16.0933 6.09084 16.0933 6.58678V7.14764C16.0933 7.27444 16.0091 7.35108 15.8919 7.35108H11.357ZM10.9302 16.1371H16.3187C17.2682 16.1371 17.927 15.4888 17.927 14.5445V12.3833C17.927 11.4487 17.2682 10.8004 16.3187 10.8004H10.9302C9.98077 10.8004 9.31234 11.4487 9.31234 12.3833V14.5445C9.31234 15.4888 9.98077 16.1371 10.9302 16.1371ZM11.357 14.3055C11.2302 14.3055 11.1461 14.2192 11.1461 14.0924V12.8354C11.1461 12.7183 11.2302 12.632 11.357 12.632H15.8919C16.0091 12.632 16.0933 12.7183 16.0933 12.8354V14.0924C16.0933 14.2192 16.0091 14.3055 15.8919 14.3055H11.357ZM11.1705 11.9141H13.0042V8.35327H11.1705V11.9141ZM14.2469 11.9141H16.0785V8.35327H14.2469V11.9141ZM11.1705 22.2269H13.0042V15.5017H11.1705V22.2269ZM14.2469 22.2269H16.0785V15.5017H14.2469V22.2269ZM2.09359 23.508H25.1458C25.7479 23.508 26.249 23.0144 26.249 22.4048C26.249 21.8027 25.7458 21.3112 25.1458 21.3112H2.09359C1.49148 21.3112 1 21.8048 1 22.4048C1 23.0165 1.49359 23.508 2.09359 23.508Z" fill="black"/>
</svg>
