<svg width="28" height="28" viewBox="0 0 28 28" fill="none" xmlns="http://www.w3.org/2000/svg">
<path d="M14.105 26.21C20.7369 26.21 26.2121 20.7273 26.2121 14.105C26.2121 7.47312 20.7273 2 14.0954 2C7.47523 2 2 7.47312 2 14.105C2 20.7273 7.48484 26.21 14.105 26.21ZM14.105 23.8255C8.71085 23.8255 4.39412 19.4991 4.39412 14.105C4.39412 8.71085 8.70124 4.38452 14.0954 4.38452C19.4895 4.38452 23.8276 8.71085 23.8276 14.105C23.8276 19.4991 19.4991 23.8255 14.105 23.8255Z" fill="black"/>
<path d="M9.39786 16.3473C10.6431 16.3473 11.6422 15.3385 11.6422 14.1029C11.6422 12.8673 10.6431 11.8585 9.39786 11.8585C8.16223 11.8585 7.16309 12.8673 7.16309 14.1029C7.16309 15.3385 8.16223 16.3473 9.39786 16.3473ZM18.8127 16.3473C20.0462 16.3473 21.0475 15.3385 21.0475 14.1029C21.0475 12.8673 20.0462 11.8585 18.8127 11.8585C17.5675 11.8585 16.5662 12.8673 16.5662 14.1029C16.5662 15.3385 17.5675 16.3473 18.8127 16.3473ZM12.7192 18.3273C12.3538 18.3273 12.1558 18.5136 12.1558 18.8769V19.7239C12.1558 20.8159 13.0016 21.6734 14.1053 21.6734C15.1994 21.6734 16.0569 20.8062 16.0569 19.7239V18.8769C16.0569 18.5136 15.8568 18.3273 15.4914 18.3273H12.7192Z" fill="black"/>
</svg>
