<svg width="28" height="28" viewBox="0 0 28 28" fill="none" xmlns="http://www.w3.org/2000/svg">
<path d="M14.105 26.21C20.7369 26.21 26.2121 20.7273 26.2121 14.105C26.2121 7.47312 20.7273 2 14.0954 2C7.47523 2 2 7.47312 2 14.105C2 20.7273 7.48484 26.21 14.105 26.21Z" fill="black"/>
<path d="M6.53125 13.1848C6.53125 13.0114 6.61633 12.8241 6.76633 12.6826L13.194 7.3034C13.7476 6.82644 14.4885 6.82644 15.0517 7.3034L17.9519 9.73973V8.67238C17.9519 8.40285 18.149 8.21746 18.4185 8.21746H19.2332C19.5123 8.21746 19.686 8.40285 19.686 8.67238V11.2046L21.4602 12.6805C21.6177 12.822 21.6932 12.9922 21.6932 13.2062C21.6932 13.5648 21.4122 13.8085 21.0494 13.8085C20.8492 13.8085 20.6875 13.6934 20.5225 13.5636L14.4311 8.4462C14.2213 8.28331 14.0223 8.26409 13.8051 8.4462L7.70195 13.5636C7.54656 13.6934 7.38484 13.8085 7.17507 13.8085C6.77383 13.8085 6.53125 13.5146 6.53125 13.1848ZM8.55531 18.7684V14.0162L13.7303 9.67644C13.9764 9.47511 14.248 9.4655 14.4941 9.67644L19.6691 14.0258V18.7684C19.6691 19.6398 19.1186 20.1798 18.2057 20.1798H10.0305C9.11125 20.1798 8.55531 19.6398 8.55531 18.7684ZM12.4933 18.8872H15.7387V15.0331C15.7387 14.7423 15.565 14.5473 15.2528 14.5473H12.9812C12.6829 14.5473 12.4933 14.7423 12.4933 15.0331V18.8872Z" fill="white"/>
</svg>
