<svg width="28" height="28" viewBox="0 0 28 28" fill="none" xmlns="http://www.w3.org/2000/svg">
<path d="M4.93109 23.4219H22.8415C24.6026 23.4219 25.7843 22.2338 25.7843 20.4781V4.94374C25.7843 3.18804 24.6026 2 22.8415 2H4.93109C3.17961 2 2 3.18804 2 4.94374V20.4781C2 22.2338 3.17961 23.4219 4.93109 23.4219ZM5.04522 21.1998C4.55046 21.1998 4.22421 20.8543 4.22421 20.3307V5.09116C4.22421 4.57718 4.55046 4.2221 5.04522 4.2221H22.7623C23.2348 4.2221 23.5601 4.56663 23.5601 5.06585V20.356C23.5601 20.8648 23.2348 21.1998 22.7623 21.1998H5.04522ZM7.73046 7.64889C8.39913 7.64889 8.96233 7.10584 8.96233 6.43295C8.96233 5.74834 8.39913 5.2053 7.73046 5.2053C7.05218 5.2053 6.49319 5.74834 6.49319 6.43295C6.49319 7.10584 7.05218 7.64889 7.73046 7.64889ZM11.8379 7.64889C12.5065 7.64889 13.0655 7.10584 13.0655 6.43295C13.0655 5.74834 12.5065 5.2053 11.8379 5.2053C11.1575 5.2053 10.5964 5.74834 10.5964 6.43295C10.5964 7.10584 11.1575 7.64889 11.8379 7.64889ZM15.939 7.64889C16.6076 7.64889 17.1687 7.10584 17.1687 6.43295C17.1687 5.74834 16.6076 5.2053 15.939 5.2053C15.2586 5.2053 14.6996 5.74834 14.6996 6.43295C14.6996 7.10584 15.2586 7.64889 15.939 7.64889ZM20.0443 7.64889C20.7247 7.64889 21.2837 7.10584 21.2837 6.43295C21.2837 5.74834 20.7247 5.2053 20.0443 5.2053C19.3756 5.2053 18.8145 5.74834 18.8145 6.43295C18.8145 7.10584 19.3756 7.64889 20.0443 7.64889ZM3.44467 10.2962H24.3514V8.61545H3.44467V10.2962ZM6.90897 19.8359H20.8796C21.5412 19.8359 21.9727 19.4066 21.9727 18.7524V12.7046C21.9727 12.0408 21.5412 11.6094 20.8796 11.6094H6.90897C6.24522 11.6094 5.82335 12.0408 5.82335 12.7046V18.7524C5.82335 19.4066 6.24522 19.8359 6.90897 19.8359ZM7.54904 18.4023C7.38381 18.4023 7.25912 18.2776 7.25912 18.1123V13.3193C7.25912 13.1541 7.38381 13.0198 7.54904 13.0198H20.2491C20.4048 13.0198 20.539 13.1541 20.539 13.3193V18.1123C20.539 18.2776 20.4048 18.4023 20.2491 18.4023H7.54904ZM5.67639 25.719C6.31272 25.719 6.74467 25.287 6.74467 24.6507V22.1804H4.5964V24.6507C4.5964 25.287 5.04007 25.719 5.67639 25.719ZM22.108 25.719C22.7443 25.719 23.1783 25.287 23.1783 24.6507V22.1804H21.0301V24.6507C21.0301 25.287 21.4716 25.719 22.108 25.719Z" fill="black"/>
</svg>
