<svg width="31" height="28" viewBox="0 0 31 28" fill="none" xmlns="http://www.w3.org/2000/svg">
<path d="M8.45364 5C6.77223 5 5.64044 5.60164 4.56396 6.96242L0.847236 11.8025C-0.288777 13.2655 -0.27284 15.2138 0.837626 16.6693L4.55013 21.5584C5.54036 22.8542 6.88192 23.5421 8.45364 23.5421H22.4543C24.026 23.5421 25.3675 22.8542 26.3578 21.5584L30.0703 16.6693C31.1829 15.2117 31.1967 13.2634 30.0607 11.8025L26.344 6.96242C25.2675 5.60164 24.1357 5 22.4543 5H8.45364Z" fill="black"/>
<path d="M7.59429 12.0774C8.7596 12.0774 9.7257 13.0393 9.7257 14.2088C9.7257 15.3784 8.7596 16.3498 7.59429 16.3498C6.41515 16.3498 5.46289 15.3784 5.46289 14.2088C5.46289 13.0393 6.41515 12.0774 7.59429 12.0774ZM15.4541 14.9084C16.6236 14.9084 17.5855 15.8703 17.5855 17.0398C17.5855 18.219 16.6236 19.1712 15.4541 19.1712C14.2845 19.1712 13.3226 18.219 13.3226 17.0398C13.3226 15.8703 14.2845 14.9084 15.4541 14.9084ZM23.3138 12.0774C24.493 12.0774 25.4452 13.0393 25.4452 14.2088C25.4452 15.3784 24.493 16.3498 23.3138 16.3498C22.1485 16.3498 21.1824 15.3784 21.1824 14.2088C21.1824 13.0393 22.1485 12.0774 23.3138 12.0774Z" fill="white"/>
</svg>
