<svg width="28" height="28" viewBox="0 0 28 28" fill="none" xmlns="http://www.w3.org/2000/svg">
<path d="M14.105 26.21C20.7369 26.21 26.2121 20.7273 26.2121 14.105C26.2121 7.47312 20.7273 2 14.0954 2C7.47523 2 2 7.47312 2 14.105C2 20.7273 7.48484 26.21 14.105 26.21Z" fill="black"/>
<path d="M14.1047 10.1942C13.2209 10.1942 12.4882 9.45941 12.4882 8.57559C12.4882 7.69176 13.2209 6.95911 14.1047 6.95911C14.9906 6.95911 15.7233 7.69176 15.7233 8.57559C15.7233 9.45941 14.9906 10.1942 14.1047 10.1942ZM8.83738 16.5544C7.55183 16.5544 6.50488 15.4979 6.50488 14.2102C6.50488 12.9268 7.55183 11.8681 8.83738 11.8681C10.1443 11.8681 11.1816 12.9268 11.1816 14.2102C11.1816 15.4979 10.1443 16.5544 8.83738 16.5544ZM19.3699 16.5544C18.0631 16.5544 17.0257 15.4979 17.0257 14.2102C17.0257 12.9268 18.0631 11.8681 19.3699 11.8681C20.6576 11.8681 21.7024 12.9268 21.7024 14.2102C21.7024 15.4979 20.6576 16.5544 19.3699 16.5544Z" fill="white"/>
</svg>
