<svg width="28" height="28" viewBox="0 0 28 28" fill="none" xmlns="http://www.w3.org/2000/svg">
<path d="M14.105 26.21C20.7369 26.21 26.2121 20.7273 26.2121 14.105C26.2121 7.47312 20.7273 2 14.0954 2C7.47523 2 2 7.47312 2 14.105C2 20.7273 7.48484 26.21 14.105 26.21Z" fill="black"/>
<path d="M9.91602 10.6189C9.91602 8.4359 11.7666 6.79504 14.0959 6.79504C16.4389 6.79504 18.2992 8.48606 18.2992 10.6669C18.2992 13.0126 16.7356 13.6032 16.5266 17.6267C16.5149 17.9138 16.3203 18.0894 16.0257 18.0894H12.166C11.8906 18.0894 11.7099 17.9138 11.6886 17.6267C11.4603 13.6032 9.91602 12.9624 9.91602 10.6189ZM12.2603 19.7171C11.9886 19.7171 11.7638 19.4923 11.7638 19.2249C11.7638 18.9596 11.9886 18.7348 12.2603 18.7348H15.9528C16.2245 18.7348 16.461 18.9596 16.461 19.2249C16.461 19.4923 16.2245 19.7171 15.9528 19.7171H12.2603ZM14.1097 21.3905C13.2224 21.3905 12.5598 20.9783 12.5012 20.3509H15.7119C15.6416 20.9783 14.9992 21.3905 14.1097 21.3905Z" fill="white"/>
</svg>
