<svg width="28" height="28" viewBox="0 0 28 28" fill="none" xmlns="http://www.w3.org/2000/svg">
<path d="M14.105 26.2301C20.7369 26.2301 26.2121 20.7549 26.2121 14.123C26.2121 7.50289 20.7273 2.01805 14.0954 2.01805C7.47523 2.01805 2 7.50289 2 14.123C2 20.7549 7.48484 26.2301 14.105 26.2301Z" fill="black"/>
<path d="M6.94727 18.418V15.0551C6.94727 13.9632 7.56626 13.3484 8.66993 13.3484H19.5414C20.6451 13.3484 21.2641 13.9632 21.2641 15.0551V18.418C21.2641 18.7184 21.0648 18.9038 20.7665 18.9038H20.4341C20.1433 18.9038 19.9419 18.7184 19.9419 18.418V17.6164C19.878 17.6281 19.6862 17.6302 19.5414 17.6302H8.66993C8.52509 17.6302 8.33337 17.6281 8.26938 17.6164V18.418C8.26938 18.7184 8.06806 18.9038 7.7772 18.9038H7.44485C7.1561 18.9038 6.94727 18.7184 6.94727 18.418ZM8.32704 12.5112V10.9191C8.32704 9.87499 8.88321 9.33054 9.91024 9.33054H18.3011C19.3281 9.33054 19.8939 9.87499 19.8939 10.9191V12.5112H18.4459V11.7469C18.4459 11.2121 18.1508 10.9137 17.568 10.9137H15.6189C15.0552 10.9137 14.7644 11.2121 14.7644 11.7469V12.5112H13.5046V11.7469C13.5046 11.2121 13.2137 10.9137 12.6789 10.9137H10.6124C10.0584 10.9137 9.77501 11.2121 9.77501 11.7469V12.5112H8.32704Z" fill="white"/>
</svg>
