<svg width="29" height="28" viewBox="0 0 29 28" fill="none" xmlns="http://www.w3.org/2000/svg">
<path d="M11.2236 16.1434C11.2236 16.8906 11.6815 17.3272 12.4702 17.3272H16.0892C16.8875 17.3272 17.3379 16.8906 17.3379 16.1434V12.1935L15.0036 10.233C14.5491 9.85518 14.0124 9.85307 13.5655 10.233L11.2236 12.1935V16.1434ZM13.133 15.1865V13.0839L14.0164 12.336C14.1795 12.2059 14.3895 12.2059 14.543 12.336L15.4264 13.0839V15.1865C15.4264 15.3601 15.3465 15.4476 15.1653 15.4476H13.3941C13.2226 15.4476 13.133 15.3601 13.133 15.1865Z" fill="black"/>
<path d="M7.33789 19.596C7.33789 20.6284 7.94399 21.1972 9.07437 21.1972H19.4952C20.616 21.1972 21.2317 20.6284 21.2317 19.596V10.3101L15.0934 5.1613C14.5888 4.75255 13.9712 4.75255 13.4762 5.1613L7.33789 10.3101V19.596ZM9.2846 18.6238V11.2494L13.8871 7.378C14.1065 7.19378 14.4493 7.18207 14.6729 7.378L19.285 11.2494V18.6238C19.285 19.0398 19.0604 19.2665 18.6444 19.2665H9.91764C9.51124 19.2665 9.2846 19.0398 9.2846 18.6238Z" fill="black"/>
<path d="M3.44461 22.3117C3.44461 24.0409 4.48476 25.0576 6.27233 25.0576H22.2975C24.0755 25.0576 25.1156 24.0409 25.1156 22.3117V9.11006L23.1689 9.01397V21.8884C23.1689 22.7008 22.7524 23.1247 21.9509 23.1247H6.62108C5.8078 23.1247 5.39131 22.7008 5.39131 21.8884V8.9603L3.44461 9.04678V22.3117ZM0 11.7897C0 12.3386 0.398904 12.7056 0.975698 12.7056C1.25202 12.7056 1.46038 12.6142 1.65491 12.4611L13.8605 2.22857C14.115 2.0017 14.4377 1.99209 14.7019 2.22857L26.9074 12.4611C27.0902 12.6142 27.3007 12.7056 27.5845 12.7056C28.1538 12.7056 28.5506 12.3386 28.5506 11.7897C28.5506 11.4407 28.4081 11.1897 28.1165 10.9492L15.7865 0.587723C14.8645 -0.194853 13.7053 -0.196962 12.7737 0.587723L0.43406 10.9492C0.142499 11.1897 0 11.4407 0 11.7897ZM21.8051 6.34772L25.1156 9.20966V3.28515C25.1156 2.75687 24.779 2.42242 24.2508 2.42242H22.672C22.1534 2.42242 21.8051 2.75687 21.8051 3.28515V6.34772Z" fill="black"/>
</svg>
