<svg width="28" height="28" viewBox="0 0 28 28" fill="none" xmlns="http://www.w3.org/2000/svg">
<path d="M6.84421 24.8972H21.7931C24.3225 24.8972 25.6373 23.5919 25.6373 21.0914V6.82921C25.6373 4.32656 24.3225 3.02344 21.7931 3.02344H6.84421C4.31484 3.02344 3 4.31695 3 6.82921V21.0914C3 23.6016 4.31484 24.8972 6.84421 24.8972Z" fill="black"/>
<path d="M10.0896 13.9162C9.43378 13.9162 8.93457 13.417 8.93457 12.7495V9.04497C8.93457 8.3988 9.43378 7.86865 10.0896 7.86865C10.7378 7.86865 11.2584 8.3988 11.2584 9.04497V12.7495C11.2584 13.4149 10.7378 13.9162 10.0896 13.9162ZM12.8561 20.6576C12.4685 20.6576 12.2641 20.4574 12.2641 20.0719V18.7547C12.2641 17.6002 13.1524 16.6788 14.3187 16.6788C15.4732 16.6788 16.3732 17.6002 16.3732 18.7547V20.0719C16.3732 20.4574 16.1688 20.6576 15.7812 20.6576H12.8561ZM18.5243 13.9162C17.8685 13.9162 17.3693 13.417 17.3693 12.7495V9.04497C17.3693 8.3988 17.8685 7.86865 18.5243 7.86865C19.1822 7.86865 19.7027 8.3988 19.7027 9.04497V12.7495C19.7027 13.4149 19.1822 13.9162 18.5243 13.9162Z" fill="white"/>
</svg>
