<svg width="28" height="32" viewBox="0 0 28 32" fill="none" xmlns="http://www.w3.org/2000/svg">
<path d="M6.84421 25.9256H12.5416V5.44336H6.84421C4.31484 5.44336 3 6.74859 3 9.24913V22.1295C3 24.63 4.31484 25.9256 6.84421 25.9256ZM6.92882 23.6782C5.83921 23.6782 5.24741 23.1162 5.24741 21.9755V9.401C5.24741 8.26241 5.83921 7.69076 6.92882 7.69076H10.2963V23.6782H6.92882ZM20.2193 25.9256C22.7604 25.9256 24.0656 24.6204 24.0656 22.1295V9.24913C24.0656 6.74859 22.7604 5.44336 20.2193 5.44336H14.5174V25.9256H20.2193ZM20.1368 23.6782H16.7648V7.69076H20.1368C21.2072 7.69076 21.8182 8.26241 21.8182 9.401V21.9755C21.8182 23.1162 21.2072 23.6782 20.1368 23.6782ZM13.5295 0C12.9759 0 12.5416 0.441796 12.5416 0.987888V5.44336H14.5174V0.987888C14.5174 0.441796 14.0852 0 13.5295 0ZM13.5295 31.369C14.0852 31.369 14.5174 30.9347 14.5174 30.3811V25.9256H12.5416V30.3811C12.5416 30.9347 12.9759 31.369 13.5295 31.369Z" fill="black"/>
</svg>
