<svg width="28" height="28" viewBox="0 0 28 28" fill="none" xmlns="http://www.w3.org/2000/svg">
<path d="M6.14421 26.1541C6.78124 26.1541 7.29592 25.6394 7.29592 25.0098V3.93389C7.29592 3.54623 7.54623 3.29592 7.91256 3.29592H20.6429C21.0092 3.29592 21.2595 3.54623 21.2595 3.93389V25.0098C21.2595 25.6394 21.7742 26.1541 22.4133 26.1541C23.0429 26.1541 23.5554 25.6394 23.5554 25.0098V3.72178C23.5554 2.07273 22.4752 1 20.7856 1H7.77194C6.08984 1 5 2.07273 5 3.72178V25.0098C5 25.6394 5.51468 26.1541 6.14421 26.1541Z" fill="black"/>
<path d="M9.07199 25.6553H19.4935C19.6981 25.6553 19.8675 25.4762 19.8675 25.2716V5.06427C19.8675 4.85005 19.6981 4.6806 19.4935 4.6806H9.07199C8.85988 4.6806 8.69043 4.85005 8.69043 5.06427V25.2716C8.69043 25.4762 8.85988 25.6553 9.07199 25.6553ZM17.0595 16.1976C16.5418 16.1976 16.122 15.7715 16.122 15.2559C16.122 14.7285 16.5418 14.3141 17.0595 14.3141C17.5889 14.3141 18.0012 14.7285 18.0012 15.2559C18.0012 15.7715 17.5889 16.1976 17.0595 16.1976Z" fill="black"/>
</svg>
