<svg width="29" height="28" viewBox="0 0 29 28" fill="none" xmlns="http://www.w3.org/2000/svg">
<path d="M12.9729 3.29094L6.81539 2.62625C5.68992 2.50273 4.8893 3.21711 4.8893 4.28398C4.8893 5.36257 5.68992 6.08655 6.81539 5.96304L12.9729 5.29085V3.29094ZM14.1152 6.57968C15.3855 6.57968 16.4109 5.55429 16.4109 4.28398C16.4109 3.02539 15.3855 2 14.1152 2C12.8566 2 11.8312 3.02539 11.8312 4.28398C11.8312 5.55429 12.8566 6.57968 14.1152 6.57968ZM15.2597 3.29094V5.29085L21.4289 5.96304C22.5447 6.08655 23.3433 5.36257 23.3433 4.28398C23.3433 3.21711 22.5447 2.50273 21.4289 2.62625L15.2597 3.29094ZM12.968 5.70851V8.62717H15.2721V5.70851H12.968ZM10.736 10.9426H17.4731V9.32303C17.4731 8.32976 16.8504 7.70702 15.8571 7.70702H12.3403C11.3587 7.70702 10.736 8.32976 10.736 9.32303V10.9426ZM14.1035 22.8223C16.2483 22.8223 17.4129 21.9158 18.6684 20.7615C19.1705 20.2658 19.8155 19.9941 20.4101 19.9941C21.5175 19.9941 22.4032 20.8348 22.4032 22.3142V23.9431C22.4032 24.4986 22.6849 24.7803 23.2404 24.7803H27.5674C28.1229 24.7803 28.4142 24.4986 28.4142 23.9431V22.7373C28.4142 16.0081 24.3987 13.774 20.6018 13.774H20.1759C19.8035 13.774 19.5302 13.5612 19.4175 13.2507L18.768 11.4837C18.536 10.8387 18.2904 10.6505 17.7157 10.6505H10.4817C9.90913 10.6505 9.67312 10.8387 9.43148 11.4837L8.78952 13.2507C8.66718 13.5612 8.39601 13.774 8.0332 13.774H1.10672V19.9344H7.83304C8.51952 19.9344 8.89546 20.0492 9.37523 20.611C10.549 21.9134 12.1242 22.8223 14.1035 22.8223ZM1.05773 22.936C1.64624 22.936 2.12296 22.4497 2.12296 21.8687V12.1151C2.12296 11.5362 1.64624 11.0499 1.05773 11.0499C0.476717 11.0499 0 11.5362 0 12.1151V21.8687C0 22.4497 0.476717 22.936 1.05773 22.936Z" fill="black"/>
</svg>
