<svg width="28" height="28" viewBox="0 0 28 28" fill="none" xmlns="http://www.w3.org/2000/svg">
<path d="M6.84421 24.8972H21.0295C23.5685 24.8972 24.8737 23.5919 24.8737 21.0914V6.82921C24.8737 4.32656 23.5685 3.02344 21.0295 3.02344H6.84421C4.31484 3.02344 3 4.31695 3 6.82921V21.0914C3 23.6016 4.31484 24.8972 6.84421 24.8972Z" fill="black"/>
<path d="M13.9691 20.7691C10.2688 20.7691 7.16406 17.6644 7.16406 13.9544C7.16406 10.2328 10.2475 7.13977 13.9691 7.13977C17.6875 7.13977 20.7859 10.2361 20.7859 13.9544C20.7859 17.6782 17.7025 20.7691 13.9691 20.7691ZM13.9691 18.9612C16.6984 18.9612 18.9876 16.6816 18.9876 13.9544C18.9876 11.2411 16.6825 8.94773 13.9691 8.94773C11.2516 8.94773 8.96241 11.2273 8.96241 13.9544C8.96241 16.6678 11.2675 18.9612 13.9691 18.9612ZM13.9691 17.681C11.9683 17.681 10.2522 15.9553 10.2522 13.9544C10.2522 11.9377 11.9545 10.2279 13.9691 10.2279C15.9817 10.2279 17.6957 11.9536 17.6957 13.9544C17.6957 15.9712 15.9956 17.681 13.9691 17.681Z" fill="white"/>
</svg>
