<svg width="28" height="28" viewBox="0 0 28 28" fill="none" xmlns="http://www.w3.org/2000/svg">
<path d="M6.84421 24.8972H21.0295C23.5685 24.8972 24.8737 23.5919 24.8737 21.0914V6.82921C24.8737 4.32656 23.5685 3.02344 21.0295 3.02344H6.84421C4.31484 3.02344 3 4.31695 3 6.82921V21.0914C3 23.6016 4.31484 24.8972 6.84421 24.8972ZM6.97733 22.6013C5.88772 22.6013 5.29592 22.0371 5.29592 20.8985V7.01999C5.29592 5.88139 5.88772 5.31936 6.97733 5.31936H20.8964C21.9764 5.31936 22.5778 5.88139 22.5778 7.01999V20.8985C22.5778 22.0371 21.9764 22.6013 20.8964 22.6013H6.97733Z" fill="black"/>
<path d="M7.3623 15.0093C7.3623 15.4715 7.68175 15.7813 8.14183 15.7813H8.5984V16.2721C8.5984 18.2624 11.1653 20.0844 13.941 20.0844C16.7092 20.0844 19.2761 18.2624 19.2761 16.2721V15.7813H19.7327C20.1927 15.7813 20.5122 15.4715 20.5122 15.0093V12.8899C20.5122 12.4277 20.1927 12.1178 19.7327 12.1178H19.2761V11.6174C19.2761 9.63885 16.7092 7.8147 13.941 7.8147C11.1653 7.8147 8.5984 9.63885 8.5984 11.6174V12.1178H8.14183C7.68175 12.1178 7.3623 12.4277 7.3623 12.8899V15.0093ZM11.0652 15.2758C10.3384 15.2758 9.73629 14.6875 9.73629 13.9447C9.73629 13.2116 10.3384 12.6234 11.0652 12.6234C11.8058 12.6234 12.3962 13.2137 12.3962 13.9447C12.3962 14.6854 11.8058 15.2758 11.0652 15.2758ZM16.8093 15.2758C16.0783 15.2758 15.4783 14.6854 15.4783 13.9447C15.4783 13.2137 16.0783 12.6234 16.8093 12.6234C17.5361 12.6234 18.1403 13.2116 18.1403 13.9447C18.1403 14.6875 17.5361 15.2758 16.8093 15.2758Z" fill="black"/>
</svg>
