<svg width="28" height="28" viewBox="0 0 28 28" fill="none" xmlns="http://www.w3.org/2000/svg">
<path d="M6.84421 24.8972H21.0295C23.5685 24.8972 24.8737 23.5919 24.8737 21.0914V6.82921C24.8737 4.32656 23.5685 3.02344 21.0295 3.02344H6.84421C4.31484 3.02344 3 4.31695 3 6.82921V21.0914C3 23.6016 4.31484 24.8972 6.84421 24.8972ZM6.97733 22.6013C5.88772 22.6013 5.29592 22.0371 5.29592 20.8985V7.01999C5.29592 5.88139 5.88772 5.31936 6.97733 5.31936H20.8964C21.9764 5.31936 22.5778 5.88139 22.5778 7.01999V20.8985C22.5778 22.0371 21.9764 22.6013 20.8964 22.6013H6.97733Z" fill="black"/>
<path d="M9.54675 19.3481H18.3278C19.0176 19.3481 19.5201 18.8477 19.5201 18.1559V9.72962C19.5201 9.03774 19.0176 8.53735 18.3278 8.53735H9.54675C8.85699 8.53735 8.35449 9.03774 8.35449 9.72962V18.1559C8.35449 18.8477 8.85699 19.3481 9.54675 19.3481ZM13.9527 13.2028C13.2965 13.2028 12.7638 12.6797 12.7638 12.0277C12.7638 11.3756 13.2965 10.8621 13.9527 10.8621C14.5909 10.8621 15.1258 11.3778 15.1258 12.0277C15.1258 12.6797 14.5909 13.2028 13.9527 13.2028ZM11.475 17.0212C10.8304 17.0212 10.2956 16.5077 10.2956 15.8557C10.2956 15.1941 10.8304 14.6709 11.475 14.6709C12.1249 14.6709 12.6597 15.1962 12.6597 15.8557C12.6597 16.5077 12.1249 17.0212 11.475 17.0212ZM16.4209 17.0212C15.7689 17.0212 15.2362 16.5077 15.2362 15.8557C15.2362 15.1962 15.7689 14.6709 16.4209 14.6709C17.073 14.6709 17.6003 15.1962 17.6003 15.8557C17.6003 16.5077 17.073 17.0212 16.4209 17.0212Z" fill="black"/>
</svg>
