<svg width="28" height="28" viewBox="0 0 28 28" fill="none" xmlns="http://www.w3.org/2000/svg">
<path d="M6.84421 24.8972H21.0295C23.5685 24.8972 24.8737 23.5919 24.8737 21.0914V6.82921C24.8737 4.32656 23.5685 3.02344 21.0295 3.02344H6.84421C4.31484 3.02344 3 4.31695 3 6.82921V21.0914C3 23.6016 4.31484 24.8972 6.84421 24.8972ZM6.97733 22.6013C5.88772 22.6013 5.29592 22.0371 5.29592 20.8985V7.01999C5.29592 5.88139 5.88772 5.31936 6.97733 5.31936H20.8964C21.9764 5.31936 22.5778 5.88139 22.5778 7.01999V20.8985C22.5778 22.0371 21.9764 22.6013 20.8964 22.6013H6.97733Z" fill="black"/>
<path d="M9.54675 19.3481H18.3278C19.0176 19.3481 19.5201 18.8477 19.5201 18.1559V9.72962C19.5201 9.03774 19.0176 8.53735 18.3278 8.53735H9.54675C8.85699 8.53735 8.35449 9.03774 8.35449 9.72962V18.1559C8.35449 18.8477 8.85699 19.3481 9.54675 19.3481ZM13.9527 13.1906C13.1718 13.1906 12.5454 12.5599 12.5454 11.7811C12.5454 11.0023 13.1718 10.3758 13.9527 10.3758C14.722 10.3758 15.3484 11.0023 15.3484 11.7811C15.3484 12.5599 14.722 13.1906 13.9527 13.1906ZM11.475 17.4905C10.8304 17.4905 10.2956 16.9652 10.2956 16.3132C10.2956 15.6612 10.8304 15.1402 11.475 15.1402C12.1249 15.1402 12.6597 15.6633 12.6597 16.3132C12.6597 16.9652 12.1249 17.4905 11.475 17.4905ZM16.4209 17.4905C15.7689 17.4905 15.2362 16.9652 15.2362 16.3132C15.2362 15.6633 15.7689 15.1402 16.4209 15.1402C17.073 15.1402 17.6003 15.6633 17.6003 16.3132C17.6003 16.9652 17.073 17.4905 16.4209 17.4905Z" fill="black"/>
</svg>
