<svg width="28" height="28" viewBox="0 0 28 28" fill="none" xmlns="http://www.w3.org/2000/svg">
<path d="M0 15.8212C0 16.776 0.652498 17.4285 1.61484 17.4285H2.53101V18.4152C2.53101 22.5287 7.80046 26.2759 13.5162 26.2759C19.234 26.2759 24.5034 22.5287 24.5034 18.4152V17.4285H25.4196C26.3819 17.4285 27.0344 16.776 27.0344 15.8212V11.4665C27.0344 10.502 26.3819 9.84953 25.4196 9.84953H24.5034V8.87031C24.5034 4.7589 19.234 1 13.5162 1C7.80046 1 2.53101 4.7589 2.53101 8.87031V9.84953H1.61484C0.652498 9.84953 0 10.502 0 11.4665V15.8212Z" fill="black"/>
<path d="M7.91941 15.9859C6.63386 15.9859 5.58691 14.9294 5.58691 13.6438C5.58691 12.3562 6.63386 11.2996 7.91941 11.2996C9.22417 11.2996 10.2637 12.3562 10.2637 13.6438C10.2637 14.9294 9.22417 15.9859 7.91941 15.9859ZM19.1027 15.9859C17.8096 15.9859 16.7702 14.9294 16.7702 13.6438C16.7702 12.3562 17.8096 11.2996 19.1027 11.2996C20.3999 11.2996 21.4469 12.3562 21.4469 13.6438C21.4469 14.9294 20.3999 15.9859 19.1027 15.9859Z" fill="white"/>
</svg>
