<svg width="36" height="28" viewBox="0 0 36 28" fill="none" xmlns="http://www.w3.org/2000/svg">
<path d="M3.78773 20.0932H31.8326C34.3235 20.0932 35.6299 18.7964 35.6299 16.3439V9.74929C35.6299 7.2989 34.3235 6 31.8326 6H3.78773C1.31601 6 0 7.2989 0 9.74929V16.3439C0 18.7964 1.31601 20.0932 3.78773 20.0932ZM6.79429 15.7057C5.30414 15.7057 4.10906 14.5127 4.10906 13.0322C4.10906 11.542 5.30414 10.3491 6.79429 10.3491C8.26101 10.3491 9.45398 11.542 9.45398 13.0322C9.45398 14.5127 8.26101 15.7057 6.79429 15.7057ZM12.9197 15.6668C12.2967 15.6668 11.8877 15.2674 11.8877 14.6466V11.4562C11.8877 10.8354 12.2967 10.4264 12.9197 10.4264H22.7027C23.3332 10.4264 23.7326 10.8354 23.7326 11.4562V14.6466C23.7326 15.2674 23.3332 15.6668 22.7027 15.6668H12.9197ZM28.8356 15.7057C27.3689 15.7057 26.178 14.5127 26.178 13.0322C26.178 11.542 27.3689 10.3491 28.8356 10.3491C30.3161 10.3491 31.5112 11.542 31.5112 13.0322C31.5112 14.5127 30.3161 15.7057 28.8356 15.7057ZM9.04006 19.162H2.61844V21.0344C2.61844 21.6951 3.07054 22.1494 3.73335 22.1494H7.92515C8.59968 22.1494 9.04006 21.6951 9.04006 21.0344V19.162ZM26.5898 19.162V21.0344C26.5898 21.6951 27.0323 22.1494 27.7047 22.1494H31.8869C32.5594 22.1494 33.0115 21.6951 33.0115 21.0344V19.162H26.5898Z" fill="black"/>
</svg>
