<svg width="28" height="28" viewBox="0 0 28 28" fill="none" xmlns="http://www.w3.org/2000/svg">
<path d="M6.84421 24.8972H21.7931C24.3225 24.8972 25.6373 23.5919 25.6373 21.0914V6.82921C25.6373 4.32656 24.3225 3.02344 21.7931 3.02344H6.84421C4.31484 3.02344 3 4.31695 3 6.82921V21.0914C3 23.6016 4.31484 24.8972 6.84421 24.8972ZM6.97733 22.6013C5.88772 22.6013 5.29592 22.0371 5.29592 20.8985V7.01999C5.29592 5.88139 5.88772 5.31936 6.97733 5.31936H21.6504C22.7304 5.31936 23.3414 5.88139 23.3414 7.01999V20.8985C23.3414 22.0371 22.7304 22.6013 21.6504 22.6013H6.97733Z" fill="black"/>
<path d="M14.3189 12.6576C15.5449 12.6576 16.5323 11.6681 16.5323 10.442C16.5323 9.21813 15.5449 8.23071 14.3189 8.23071C13.0929 8.23071 12.1055 9.21813 12.1055 10.442C12.1055 11.6681 13.0929 12.6576 14.3189 12.6576ZM10.4123 19.6705C11.3923 19.6705 12.1922 18.8706 12.1922 17.8715C12.1922 16.8915 11.3923 16.0916 10.4123 16.0916C9.4132 16.0916 8.61328 16.8915 8.61328 17.8715C8.61328 18.8706 9.4132 19.6705 10.4123 19.6705ZM18.235 19.6705C19.215 19.6705 20.0245 18.8706 20.0245 17.8715C20.0245 16.8915 19.215 16.0916 18.235 16.0916C17.2455 16.0916 16.4456 16.8915 16.4456 17.8715C16.4456 18.8706 17.2455 19.6705 18.235 19.6705Z" fill="black"/>
</svg>
