<svg width="28" height="29" viewBox="0 0 28 29" fill="none" xmlns="http://www.w3.org/2000/svg">
<path d="M11.0418 27.3248H16.094C20.7414 27.3248 23.1358 24.859 23.1358 20.6527C23.1358 17.3613 20.3638 13.0966 17.1325 8.79772C16.4786 7.94038 16.0389 7.43155 14.8187 7.43155H12.317C11.1065 7.43155 10.6668 7.94038 10.0033 8.79772C6.77195 13.0966 4 17.3613 4 20.6527C4 24.859 6.39226 27.3248 11.0418 27.3248ZM6.10468 20.6527C6.10468 18.086 8.25507 14.6451 11.7238 9.9042C11.935 9.63115 12.0597 9.54584 12.3827 9.54584H14.7531C15.0761 9.54584 15.2008 9.63115 15.412 9.9042C18.8807 14.6451 21.0311 18.086 21.0311 20.6527C21.0311 23.584 19.4643 25.218 16.094 25.218H11.0418C7.67148 25.218 6.10468 23.584 6.10468 20.6527ZM8.38773 12.3084L7.96961 14.3309H19.1875L18.779 12.3084H8.38773ZM5.3132 21.4397H11.8026V19.4152H5.3132V21.4397ZM13.5796 23.2167C15.126 23.2167 16.3593 21.9759 16.3593 20.4157C16.3593 18.8597 15.126 17.6264 13.5796 17.6264C12.0001 17.6264 10.7786 18.8597 10.7786 20.4157C10.7786 21.9759 12.0001 23.2167 13.5796 23.2167ZM13.5796 21.4598C12.9669 21.4598 12.5355 21.0187 12.5355 20.4157C12.5355 19.8223 12.9669 19.3695 13.5796 19.3695C14.173 19.3695 14.6141 19.8223 14.6141 20.4157C14.6141 21.0187 14.173 21.4598 13.5796 21.4598ZM15.347 21.4397H21.8748V19.4152H15.347V21.4397Z" fill="black"/>
<path d="M7.94765 2.98898C8.41101 2.65453 8.51109 1.98352 8.19796 1.51594C7.87312 1.06008 7.22554 0.931172 6.73875 1.26562C6.27867 1.58836 6.13593 2.26687 6.46289 2.72695C6.79945 3.19242 7.47796 3.31383 7.94765 2.98898ZM10.1205 6.09937C10.7384 5.69461 10.8853 4.8382 10.4646 4.21828C10.0385 3.61969 9.20343 3.47906 8.58562 3.89344C7.97742 4.30031 7.80164 5.16093 8.25328 5.77664C8.69109 6.38484 9.51656 6.55101 10.1205 6.09937ZM13.5797 2.1068C14.1645 2.1068 14.632 1.61578 14.632 1.06195C14.632 0.477187 14.1549 0 13.5797 0C13.0141 0 12.5445 0.477187 12.5445 1.06195C12.5445 1.61578 13.0045 2.1068 13.5797 2.1068ZM13.5797 5.90437C14.3285 5.90437 14.9463 5.28656 14.9463 4.54945C14.9463 3.80812 14.3285 3.19031 13.5797 3.19031C12.8501 3.19031 12.244 3.80812 12.244 4.54945C12.244 5.28656 12.8501 5.90437 13.5797 5.90437ZM19.2138 2.98898C19.691 3.31383 20.3482 3.19242 20.6965 2.72695C21.0213 2.26687 20.8978 1.58836 20.4228 1.26562C19.9338 0.931172 19.2863 1.06008 18.9635 1.51594C18.6483 1.98352 18.7463 2.65453 19.2138 2.98898ZM17.0389 6.09937C17.6449 6.55101 18.4758 6.38484 18.9082 5.77664C19.3556 5.16093 19.182 4.30031 18.5738 3.89344C17.9442 3.47906 17.123 3.61969 16.6948 4.21828C16.2666 4.84781 16.421 5.69461 17.0389 6.09937Z" fill="black"/>
</svg>
