<svg width="28" height="28" viewBox="0 0 28 28" fill="none" xmlns="http://www.w3.org/2000/svg">
<path d="M17.4873 1H14.1871C12.0852 1 10.7692 2.29468 10.7692 4.34757V6.53452H12.8108V4.34757C12.8108 3.52585 13.3068 3.05124 14.1871 3.05124H17.4873C20.0101 3.05124 21.5969 4.76687 21.5969 7.4814V25.8714C21.5969 26.4726 22.0192 26.9108 22.615 26.9108C23.2086 26.9108 23.6385 26.4704 23.6385 25.8714V7.4814C23.6385 3.53781 21.2455 1 17.4873 1ZM4 15.6515C4 16.1451 4.40851 16.544 4.9021 16.544H18.6758C19.1694 16.544 19.5662 16.1451 19.5662 15.6515C19.5662 15.1874 19.2212 14.7958 18.7815 14.7641L18.7155 14.762C18.5732 12.2193 16.9888 10.0312 14.7655 8.96828V8.1271C14.7655 6.41921 13.5283 5.1564 11.7831 5.1564C10.0401 5.1564 8.8007 6.41921 8.8007 8.1271V8.96828C6.57742 10.0312 4.99515 12.2193 4.85078 14.762L4.7964 14.7641C4.35672 14.7958 4 15.1874 4 15.6515Z" fill="black"/>
<path d="M7.8023 19.8116C8.33339 19.8116 8.75058 19.3944 8.75058 18.8537C8.75058 18.3269 8.33339 17.9097 7.8023 17.9097C7.27543 17.9097 6.84863 18.3269 6.84863 18.8537C6.84863 19.3944 7.27543 19.8116 7.8023 19.8116ZM11.7733 19.8116C12.3044 19.8116 12.7216 19.3944 12.7216 18.8537C12.7216 18.3269 12.3044 17.9097 11.7733 17.9097C11.2464 17.9097 10.8197 18.3269 10.8197 18.8537C10.8197 19.3944 11.2464 19.8116 11.7733 19.8116ZM15.7347 19.8116C16.2616 19.8116 16.6788 19.3944 16.6788 18.8537C16.6788 18.3269 16.2616 17.9097 15.7347 17.9097C15.2057 17.9097 14.7768 18.3269 14.7768 18.8537C14.7768 19.3944 15.2057 19.8116 15.7347 19.8116Z" fill="black"/>
<path d="M7.80261 23.0753C8.32949 23.0753 8.74667 22.6485 8.74667 22.1174C8.74667 21.5905 8.32949 21.1733 7.80261 21.1733C7.27363 21.1733 6.84473 21.5905 6.84473 22.1174C6.84473 22.6485 7.27363 23.0753 7.80261 23.0753ZM11.7757 23.0753C12.3047 23.0753 12.7219 22.6485 12.7219 22.1174C12.7219 21.5905 12.3047 21.1733 11.7757 21.1733C11.2467 21.1733 10.82 21.5905 10.82 22.1174C10.82 22.6485 11.2467 23.0753 11.7757 23.0753ZM15.735 23.0753C16.2661 23.0753 16.6833 22.6485 16.6833 22.1174C16.6833 21.5905 16.2661 21.1733 15.735 21.1733C15.2081 21.1733 14.7813 21.5905 14.7813 22.1174C14.7813 22.6485 15.2081 23.0753 15.735 23.0753Z" fill="black"/>
<path d="M7.80261 26.339C8.32949 26.339 8.74667 25.9122 8.74667 25.3811C8.74667 24.8542 8.32949 24.437 7.80261 24.437C7.27363 24.437 6.84473 24.8542 6.84473 25.3811C6.84473 25.9122 7.27363 26.339 7.80261 26.339ZM11.7757 26.339C12.3047 26.339 12.7219 25.9122 12.7219 25.3811C12.7219 24.8542 12.3047 24.437 11.7757 24.437C11.2467 24.437 10.82 24.8542 10.82 25.3811C10.82 25.9122 11.2467 26.339 11.7757 26.339ZM15.735 26.339C16.2661 26.339 16.6833 25.9122 16.6833 25.3811C16.6833 24.8542 16.2661 24.437 15.735 24.437C15.2081 24.437 14.7813 24.8542 14.7813 25.3811C14.7813 25.9122 15.2081 26.339 15.735 26.339Z" fill="black"/>
</svg>
