<svg width="28" height="30" viewBox="0 0 28 30" fill="none" xmlns="http://www.w3.org/2000/svg">
<path d="M14.1556 29.0395C21.0481 29.0395 26.3209 27.5641 26.3209 24.9846C26.3209 23.3372 24.1653 22.1421 20.7845 21.4955L19.6817 23.2251C22.647 23.6311 24.3952 24.3279 24.3952 24.9846C24.3952 25.9973 20.2815 27.1139 14.1556 27.1139C8.03937 27.1139 3.92562 25.9973 3.92562 24.9846C3.92562 24.3279 5.67382 23.6311 8.64124 23.2251L7.52679 21.4955C4.15554 22.1421 2 23.3372 2 24.9846C2 27.5641 7.27273 29.0395 14.1556 29.0395ZM6.56328 21.0614L7.7689 23.9376C7.95945 24.3846 8.52546 24.4772 8.86929 23.9557L10.3393 21.7755C10.6437 21.3211 10.5193 20.7921 9.9296 20.6655L7.30718 20.1654C6.67812 20.0388 6.37062 20.5931 6.56328 21.0614ZM21.7597 21.0614C21.9502 20.5931 21.6331 20.0388 21.0137 20.1654L18.3912 20.6655C17.8016 20.7921 17.6792 21.3211 17.9741 21.7755L19.4516 23.9557C19.7954 24.4772 20.3518 24.3846 20.5423 23.9376L21.7597 21.0614Z" fill="black"/>
<path d="M13.7156 7.1001V2.75948C13.7156 0.982913 12.7849 0.019165 11.0552 0.019165C8.18133 0.0404932 5.15835 2.62354 5.15835 5.1426C5.15835 7.60073 7.52695 8.88955 11.2519 10.2498L12.0513 8.44448C8.79937 7.20675 7.08398 6.50878 7.08398 5.1426C7.08398 3.68057 9.18633 1.9469 11.0552 1.9469C11.6897 1.9469 11.7762 2.02377 11.7762 2.75948V7.67596L13.7156 7.1001ZM16.62 9.09416H20.9489C22.7159 9.09416 23.6913 8.16346 23.6913 6.45721C23.6913 3.56948 21.0774 0.546509 18.5562 0.546509C16.1119 0.546509 14.8092 2.9151 13.4702 6.64002L15.2777 7.4533C16.492 4.18752 17.19 2.47213 18.5562 2.47213C20.032 2.47213 21.754 4.56276 21.754 6.45721C21.754 7.08745 21.6963 7.15472 20.9489 7.15472H16.0324L16.62 9.09416ZM14.6281 12.0081V16.3508C14.6281 18.1253 15.5492 19.0698 17.265 19.0698C20.1527 19.0698 23.1757 16.4772 23.1757 13.956C23.1757 11.5 20.805 10.209 17.0822 8.85839L16.2689 10.6541C19.5209 11.894 21.248 12.5898 21.248 13.956C21.248 15.4201 19.136 17.1538 17.265 17.1325C16.6252 17.1325 16.5675 17.0727 16.5675 16.3508V11.4344L14.6281 12.0081ZM11.7002 9.99487H7.37133C5.59688 9.99487 4.64062 10.9372 4.64062 12.6435C4.64062 15.5408 7.23539 18.5542 9.76406 18.5542C12.2222 18.5542 13.511 16.1931 14.8617 12.4607L13.0563 11.6474C11.8186 14.9228 11.1302 16.6147 9.76406 16.6147C8.27859 16.6147 6.58007 14.5358 6.58007 12.6435C6.58007 11.9994 6.64734 11.9322 7.37133 11.9322H12.2878L11.7002 9.99487ZM14.1553 12.9285C16.0331 12.9285 17.5617 11.4308 17.5617 9.55518C17.5617 7.66987 16.0331 6.15839 14.1553 6.15839C12.2817 6.15839 10.7723 7.66987 10.7723 9.55518C10.7723 11.4308 12.2817 12.9285 14.1553 12.9285ZM14.1553 11.0875C13.2954 11.0875 12.6113 10.4129 12.6113 9.55518C12.6113 8.68565 13.2954 7.9994 14.1553 7.9994C15.0131 7.9994 15.7165 8.68565 15.7165 9.55518C15.7165 10.4129 15.0131 11.0875 14.1553 11.0875Z" fill="black"/>
</svg>
