<svg width="28" height="28" viewBox="0 0 28 28" fill="none" xmlns="http://www.w3.org/2000/svg">
<path d="M5.43308 11.4251L24.3349 11.423C24.8967 11.423 25.2926 11.0272 25.2926 10.4654V6.537C25.2926 5.98481 24.8967 5.57935 24.3349 5.57935L5.43308 5.58357C4.87129 5.58357 4.46582 5.98692 4.46582 6.537V10.4675C4.46582 11.0293 4.87129 11.4251 5.43308 11.4251ZM5.43308 18.8984L24.3349 18.8942C24.8967 18.8942 25.2926 18.4908 25.2926 17.9387V14.0103C25.2926 13.4485 24.8967 13.0526 24.3349 13.0526L5.43308 13.0547C4.87129 13.0547 4.46582 13.4506 4.46582 14.0103V17.9408C4.46582 18.493 4.87129 18.8984 5.43308 18.8984ZM5.43308 26.36L24.3349 26.3579C24.8967 26.3579 25.2926 25.962 25.2926 25.4098V21.4719C25.2926 20.9197 24.8967 20.5259 24.3349 20.5259L5.43308 20.528C4.87129 20.528 4.46582 20.9218 4.46582 21.4719V25.4119C4.46582 25.9641 4.87129 26.36 5.43308 26.36Z" fill="black"/>
<path d="M1 3.1421C1 3.77163 1.52429 4.29592 2.15382 4.29592H25.1786C25.8081 4.29592 26.3303 3.77163 26.3303 3.1421C26.3303 2.51257 25.8081 2 25.1786 2H2.15382C1.52429 2 1 2.51257 1 3.1421ZM2.15382 7.16232C2.61905 7.16232 3.00554 6.76951 3.00554 6.3085C3.00554 5.83154 2.62116 5.45678 2.15382 5.45678C1.67476 5.45678 1.29039 5.83154 1.29039 6.3085C1.29039 6.76951 1.67687 7.16232 2.15382 7.16232ZM2.15382 9.87685C2.61905 9.87685 3.00554 9.47865 3.00554 9.01553C3.00554 8.54818 2.62116 8.15959 2.15382 8.15959C1.67476 8.15959 1.29039 8.54818 1.29039 9.01553C1.29039 9.47865 1.67687 9.87685 2.15382 9.87685ZM2.15382 12.5754C2.61905 12.5754 3.00554 12.1869 3.00554 11.7237C3.00554 11.2468 2.62116 10.872 2.15382 10.872C1.67476 10.872 1.29039 11.2468 1.29039 11.7237C1.29039 12.1869 1.67687 12.5754 2.15382 12.5754ZM2.15382 18.2534C2.69147 18.2534 3.14405 17.8083 3.14405 17.259V14.5768C3.14405 14.0316 2.70108 13.5727 2.15382 13.5727C1.60445 13.5727 1.15187 14.0316 1.15187 14.5768V17.259C1.15187 17.8083 1.60445 18.2534 2.15382 18.2534Z" fill="black"/>
</svg>
