<svg width="28" height="28" viewBox="0 0 28 28" fill="none" xmlns="http://www.w3.org/2000/svg">
<path d="M6.84421 24.8972H21.0295C23.5685 24.8972 24.8737 23.5919 24.8737 21.0914V6.82921C24.8737 4.32656 23.5685 3.02344 21.0295 3.02344H6.84421C4.31484 3.02344 3 4.31695 3 6.82921V21.0914C3 23.6016 4.31484 24.8972 6.84421 24.8972ZM6.97733 22.6013C5.88772 22.6013 5.29592 22.0371 5.29592 20.8985V7.01999C5.29592 5.88139 5.88772 5.31936 6.97733 5.31936H20.8964C21.9764 5.31936 22.5778 5.88139 22.5778 7.01999V20.8985C22.5778 22.0371 21.9764 22.6013 20.8964 22.6013H6.97733Z" fill="black"/>
<path d="M13.9407 19.9938C17.296 19.9938 19.9843 17.2959 19.9843 13.9427C19.9843 10.5874 17.296 7.8916 13.9407 7.8916C10.5779 7.8916 7.88965 10.5874 7.88965 13.9427C7.88965 17.2959 10.5779 19.9938 13.9407 19.9938ZM13.9407 11.7944C13.4368 11.7944 13.0438 11.3918 13.0438 10.8996C13.0438 10.3936 13.4368 9.99301 13.9407 9.99301C14.435 9.99301 14.8398 10.3936 14.8398 10.8996C14.8398 11.3918 14.435 11.7944 13.9407 11.7944ZM10.925 15.3035C10.1814 15.3035 9.557 14.6887 9.557 13.943C9.557 13.1951 10.1814 12.5824 10.925 12.5824C11.6708 12.5824 12.2877 13.1993 12.2877 13.943C12.2877 14.6887 11.6708 15.3035 10.925 15.3035ZM16.9564 15.2843C16.2106 15.2843 15.582 14.6674 15.582 13.9237C15.582 13.1801 16.2106 12.5611 16.9564 12.5611C17.6863 12.5611 18.3149 13.1759 18.3149 13.9237C18.3149 14.6674 17.6884 15.2843 16.9564 15.2843Z" fill="black"/>
</svg>
