<svg width="28" height="28" viewBox="0 0 28 28" fill="none" xmlns="http://www.w3.org/2000/svg">
<path d="M2.48911 8.55032C2.48911 9.00595 2.87559 9.40415 3.34082 9.40415C3.81778 9.40415 4.20426 9.00595 4.20426 8.55032C4.20426 8.07548 3.81989 7.68689 3.34082 7.68689C2.87348 7.68689 2.48911 8.07548 2.48911 8.55032ZM2.48911 11.262C2.48911 11.7155 2.87559 12.1137 3.34082 12.1137C3.81778 12.1137 4.20426 11.7155 4.20426 11.262C4.20426 10.7851 3.81989 10.4007 3.34082 10.4007C2.87348 10.4007 2.48911 10.7851 2.48911 11.262ZM2.35059 16.7965C2.35059 17.3438 2.80317 17.7985 3.34082 17.7985C3.8902 17.7985 4.34278 17.3438 4.34278 16.7965V14.1144C4.34278 13.5671 3.8902 13.1103 3.34082 13.1103C2.79356 13.1103 2.35059 13.5671 2.35059 14.1144V16.7965Z" fill="black"/>
<path d="M1 4.34352C1 5.63938 2.04883 6.6882 3.34046 6.6882C4.63421 6.6882 5.68304 5.63938 5.68304 4.34352C5.68304 3.04977 4.63421 2.00305 3.34046 2.00305C2.04883 2.00305 1 3.04977 1 4.34352ZM9.46842 26.3778H24.9435C26.2277 26.3778 27.2861 25.329 27.2861 24.0373V4.34352C27.2861 3.04977 26.2277 2.00305 24.9435 2.00305H6.31233C6.85866 2.5843 7.12585 3.34016 7.12585 4.34352V24.0373C7.12585 25.329 8.17467 26.3778 9.46842 26.3778Z" fill="black"/>
</svg>
