<svg width="28" height="28" viewBox="0 0 28 28" fill="none" xmlns="http://www.w3.org/2000/svg">
<path d="M2.62115 15.3034L4.9117 11.334H11.8778L8.98655 16.3906H3.24107C2.50583 16.3906 2.25622 15.9521 2.62115 15.3034ZM6.18575 9.13249L8.68255 4.78271C8.90123 4.40724 9.1049 4.28138 9.51342 4.28138H15.9313L13.1615 9.13249H6.18575ZM11.5656 16.3885L14.4548 11.334H21.1834L18.5694 15.8947C18.3604 16.2702 18.1471 16.3885 17.7269 16.3885H11.5656ZM15.7246 9.13249L18.4869 4.27716H24.0088C24.7345 4.27716 24.9841 4.7349 24.6191 5.37404L22.4671 9.13249H15.7246Z" fill="white"/>
<path d="M0.435423 14.6919C-0.5677 16.4298 0.238785 18.2206 2.07207 18.5628L2.37511 18.5787L1.25714 22.6105C0.756754 24.3969 1.68909 25.624 3.52448 25.624H19.4582C20.6081 25.624 21.4565 24.9512 21.7706 23.8386L27.0257 5.55172C27.5901 3.58602 26.6036 2.01923 24.5095 2.01923H9.42956C7.88479 2.01923 7.35323 2.62321 6.63323 3.86938L0.435423 14.6919ZM2.62096 15.3034L4.91151 11.334H11.8776L8.98636 16.3906H3.24088C2.50564 16.3906 2.25603 15.9521 2.62096 15.3034ZM6.18556 9.13251L8.68236 4.78273C8.90104 4.40726 9.10471 4.2814 9.51323 4.2814H15.9311L13.1613 9.13251H6.18556ZM11.5654 16.3885L14.4546 11.334H21.1832L18.5692 15.8947C18.3602 16.2702 18.1469 16.3885 17.7267 16.3885H11.5654ZM15.7244 9.13251L18.4867 4.27718H24.0086C24.7343 4.27718 24.9839 4.73492 24.6189 5.37406L22.4669 9.13251H15.7244ZM3.53924 22.7134L4.67033 18.6486H17.8103C19.2604 18.6486 19.7053 18.1205 20.3894 17.0485L22.4732 13.3697L19.7627 22.7173C19.641 23.1228 19.3635 23.3502 18.9794 23.3502H4.04385C3.62033 23.3502 3.4251 23.1336 3.53924 22.7134ZM18.5458 25.0025L20.4949 24.0015L17.6111 17.0811L15.6429 18.0362L18.5458 25.0025Z" fill="black"/>
</svg>
