<svg width="28" height="28" viewBox="0 0 28 28" fill="none" xmlns="http://www.w3.org/2000/svg">
<path d="M6.84421 24.8972H21.0295C23.5685 24.8972 24.8737 23.5919 24.8737 21.0914V6.82921C24.8737 4.32656 23.5685 3.02344 21.0295 3.02344H6.84421C4.31484 3.02344 3 4.31695 3 6.82921V21.0914C3 23.6016 4.31484 24.8972 6.84421 24.8972Z" fill="black"/>
<path d="M13.9406 20.4061C10.3563 20.4061 7.48145 17.5216 7.48145 13.9448C7.48145 10.368 10.3563 7.48358 13.9406 7.48358C17.5174 7.48358 20.3923 10.368 20.3923 13.9448C20.3923 17.5216 17.5174 20.4061 13.9406 20.4061ZM10.9689 15.2932C11.7541 15.2932 12.3911 14.6466 12.3911 13.871C12.3911 13.0976 11.7541 12.4509 10.9689 12.4509C10.1955 12.4509 9.54676 13.0976 9.54676 13.871C9.54676 14.6466 10.1955 15.2932 10.9689 15.2932ZM16.8668 15.2932C17.6423 15.2932 18.2869 14.6466 18.2869 13.871C18.2869 13.0976 17.6402 12.4509 16.8668 12.4509C16.0934 12.4509 15.4446 13.0976 15.4446 13.871C15.4446 14.6487 16.0891 15.2932 16.8668 15.2932ZM13.9406 18.5412C14.7183 18.5412 15.3574 17.8924 15.3574 17.119C15.3574 16.3434 14.7183 15.6989 13.9406 15.6989C13.1597 15.6989 12.5226 16.3455 12.5226 17.119C12.5226 17.8924 13.1597 18.5412 13.9406 18.5412Z" fill="white"/>
</svg>
