<svg width="28" height="28" viewBox="0 0 28 28" fill="none" xmlns="http://www.w3.org/2000/svg">
<path d="M6.84421 24.8972H21.0295C23.5685 24.8972 24.8737 23.5919 24.8737 21.0914V6.82921C24.8737 4.32656 23.5685 3.02344 21.0295 3.02344H6.84421C4.31484 3.02344 3 4.31695 3 6.82921V21.0914C3 23.6016 4.31484 24.8972 6.84421 24.8972ZM6.97733 22.6013C5.88772 22.6013 5.29592 22.0371 5.29592 20.8985V7.01999C5.29592 5.88139 5.88772 5.31936 6.97733 5.31936H20.8964C21.9764 5.31936 22.5778 5.88139 22.5778 7.01999V20.8985C22.5778 22.0371 21.9764 22.6013 20.8964 22.6013H6.97733Z" fill="black"/>
<path d="M10.2022 10.4009C9.40066 10.4009 9.09621 10.7353 8.65887 11.1781L6.70793 13.1323C6.26613 13.5816 6.25863 14.2805 6.71004 14.734L8.66098 16.7074C9.09832 17.1502 9.48715 17.4825 10.2022 17.4825H17.6717C18.3847 17.4825 18.7756 17.1502 19.213 16.7074L21.1639 14.734C21.6153 14.2805 21.6174 13.5816 21.166 13.1323L19.2151 11.1781C18.7778 10.7353 18.4733 10.4009 17.6717 10.4009H10.2022ZM9.8284 12.8121C10.4486 12.8121 10.9611 13.3343 10.9611 13.9448C10.9611 14.5533 10.4486 15.0659 9.8284 15.0659C9.21996 15.0659 8.70738 14.5533 8.70738 13.9448C8.70738 13.3343 9.21996 12.8121 9.8284 12.8121ZM13.9407 13.6411C14.5513 13.6411 15.0638 14.1537 15.0638 14.7717C15.0638 15.3823 14.5513 15.8927 13.9407 15.8927C13.3227 15.8927 12.8101 15.3823 12.8101 14.7717C12.8101 14.1537 13.3227 13.6411 13.9407 13.6411ZM18.0456 12.8121C18.654 12.8121 19.1666 13.3343 19.1666 13.9448C19.1666 14.5533 18.654 15.0659 18.0456 15.0659C17.4254 15.0659 16.9224 14.5533 16.9224 13.9448C16.9224 13.3343 17.4254 12.8121 18.0456 12.8121Z" fill="black"/>
</svg>
