<svg width="28" height="28" viewBox="0 0 28 28" fill="none" xmlns="http://www.w3.org/2000/svg">
<path d="M14.105 26.21C20.7369 26.21 26.2121 20.7273 26.2121 14.105C26.2121 7.47312 20.7273 2 14.0954 2C7.47523 2 2 7.47312 2 14.105C2 20.7273 7.48484 26.21 14.105 26.21ZM14.105 23.8255C8.71085 23.8255 4.39412 19.4991 4.39412 14.105C4.39412 8.71085 8.70124 4.38452 14.0954 4.38452C19.4895 4.38452 23.8276 8.71085 23.8276 14.105C23.8276 19.4991 19.4991 23.8255 14.105 23.8255Z" fill="black"/>
<path d="M8.90636 19.9662H19.284C19.795 19.9662 20.0429 19.6119 20.0429 19.1562C20.0429 17.882 18.1642 14.615 14.0952 14.615C10.0262 14.615 8.14746 17.882 8.14746 19.1562C8.14746 19.6119 8.39542 19.9662 8.90636 19.9662ZM14.0952 13.6995C15.7403 13.7091 17.0732 12.3005 17.0732 10.4467C17.0732 8.70993 15.7403 7.27368 14.0952 7.27368C12.4522 7.27368 11.1193 8.70993 11.1193 10.4467C11.1193 12.3005 12.4522 13.6899 14.0952 13.6995Z" fill="black"/>
</svg>
