<svg width="29" height="29" viewBox="0 0 29 29" fill="none" xmlns="http://www.w3.org/2000/svg">
<path d="M14.2263 5.26453C15.6726 5.26453 16.8644 4.09406 16.8644 2.6189C16.8644 1.17258 15.6726 0 14.2263 0C12.7704 0 11.5978 1.17258 11.5978 2.6189C11.5978 4.09406 12.7704 5.26453 14.2263 5.26453ZM11.5819 14.0344H16.8942V11.4551C16.8942 11.2664 17.1769 11.1853 17.2856 11.4103L20.5425 18.0295C20.8481 18.645 21.5913 18.9058 22.2089 18.5843C22.7988 18.2883 23.0576 17.5355 22.7498 16.92L18.4026 8.11804C17.8744 7.05726 16.886 6.43312 15.6473 6.43312H12.8149C11.5762 6.43312 10.59 7.05726 10.0596 8.11804L5.71242 16.92C5.40468 17.5355 5.66554 18.2883 6.25546 18.5843C6.87093 18.9058 7.60452 18.645 7.91015 18.0295L11.1905 11.4103C11.2971 11.1853 11.5819 11.2472 11.5819 11.4455V14.0344ZM9.42116 28.8211C10.0132 28.9404 10.6915 28.6347 10.8757 27.7978L11.9857 22.7144L14.2263 18.705L16.4766 22.7144L17.5866 27.7978C17.7729 28.6699 18.5034 28.9638 19.1051 28.8094C19.6917 28.657 20.1665 28.1001 19.9844 27.259L18.8585 22.0106C18.8468 21.9051 18.8308 21.8285 18.7861 21.7209L17.4412 17.9048H11.0348L9.66867 21.7209C9.6314 21.8285 9.61546 21.9051 9.59414 22.0106L8.4682 27.259C8.28187 28.1353 8.81531 28.6976 9.42116 28.8211ZM2.52468 20.0168H3.1875C3.70476 20.0168 4.06124 19.6486 4.06124 19.1292V12.7962C4.06124 12.2747 3.70476 11.9203 3.1875 11.9203H2.52468C2.0032 11.9203 1.64883 12.2747 1.64883 12.7962V19.1292C1.64883 19.6486 2.0032 20.0168 2.52468 20.0168ZM25.2534 20.0168H25.928C26.4452 20.0168 26.7921 19.6486 26.7921 19.1292V12.7962C26.7921 12.2747 26.4452 11.9203 25.928 11.9203H25.2534C24.7362 11.9203 24.3797 12.2747 24.3797 12.7962V19.1292C24.3797 19.6486 24.7362 20.0168 25.2534 20.0168ZM0.746949 16.7048H27.7036C28.1196 16.7048 28.4409 16.3814 28.4409 15.9696C28.4409 15.5557 28.1196 15.2226 27.7036 15.2226H0.746949C0.321326 15.2226 0 15.5557 0 15.9696C0 16.3814 0.321326 16.7048 0.746949 16.7048Z" fill="black"/>
</svg>
