<svg width="28" height="28" viewBox="0 0 28 28" fill="none" xmlns="http://www.w3.org/2000/svg">
<path d="M7.34527 6.26453C8.8012 6.26453 9.97378 5.09406 9.97378 3.63812C9.97378 2.18219 8.8012 1 7.34527 1C5.88933 1 4.70925 2.18219 4.70925 3.63812C4.70925 5.09406 5.88933 6.26453 7.34527 6.26453ZM11.4314 26.3113C12.0351 26.4838 12.7603 26.174 12.9583 25.435L14.7468 18.9456C14.98 18.0916 14.6233 17.4719 13.765 17.2269L8.5919 15.7558L8.99245 11.226C9.01167 11.098 9.11245 11.0455 9.21159 11.1308L11.6275 12.8587C12.0705 13.1802 12.6391 13.1802 13.0938 12.8587L17.3003 9.85257C17.8647 9.45858 18.0021 8.66851 17.5942 8.10413C17.2003 7.53343 16.4081 7.41414 15.8416 7.80812L12.3665 10.3084L9.50714 8.25554C8.89472 7.8039 8.14917 7.48867 7.22784 7.48867C5.67183 7.48867 4.49925 8.46952 4.40339 9.85726L4.00285 15.4966C3.88144 17.2007 4.71534 18.467 6.61542 18.7429L11.9751 19.5184L10.5433 24.7726C10.3453 25.5095 10.7552 26.1292 11.4314 26.3113ZM22.4378 11.773C24.2556 11.773 25.7498 10.2789 25.7498 8.45358C25.7498 6.62616 24.2556 5.15124 22.4378 5.15124C20.6008 5.15124 19.1184 6.62616 19.1184 8.45358C19.1184 10.2789 20.6008 11.773 22.4378 11.773ZM22.4378 10.2887C21.3977 10.2887 20.6027 9.49374 20.6027 8.45358C20.6027 7.43264 21.3977 6.63553 22.4378 6.63553C23.4705 6.63553 24.2655 7.43264 24.2655 8.45358C24.2655 9.49374 23.4705 10.2887 22.4378 10.2887ZM14.6116 26.5792H21.2788C22.0375 26.5792 22.263 25.6152 21.6438 25.2013L19.3656 23.6915C19.5852 23.327 19.7292 22.9274 19.8325 22.499L22.6073 11.4351L21.1272 11.0882L18.3663 22.1479C17.9348 23.8951 16.4249 25.0715 14.6116 25.0715C14.1839 25.0715 13.8604 25.4226 13.8604 25.8301C13.8604 26.2281 14.1839 26.5792 14.6116 26.5792ZM5.51949 21.9974L7.88855 21.4893C8.2237 21.4319 8.4248 21.1244 8.4248 20.7955C8.4248 20.4487 8.16839 20.1784 7.85879 20.1348L3.86738 19.4488C3.13941 19.3307 2.89168 19.9776 3.12254 20.4618L3.34941 20.9017C3.77855 21.7729 4.4866 22.2189 5.51949 21.9974ZM3.7748 26.5792H8.90386C9.3412 26.5792 9.66253 26.2281 9.66253 25.8301C9.66253 25.4226 9.3412 25.0715 8.90386 25.0715C8.17378 25.0715 7.63238 24.7605 7.44792 23.9054L6.7291 20.6701L5.25863 20.9957L5.82418 23.5776L3.3609 25.2013C2.73207 25.6152 2.95965 26.5792 3.7748 26.5792Z" fill="black"/>
</svg>
