<svg width="28" height="28" viewBox="0 0 28 28" fill="none" xmlns="http://www.w3.org/2000/svg">
<path d="M14.105 26.21C20.7369 26.21 26.2121 20.7273 26.2121 14.105C26.2121 7.47312 20.7273 2 14.0954 2C7.47523 2 2 7.47312 2 14.105C2 20.7273 7.48484 26.21 14.105 26.21Z" fill="black"/>
<path d="M20.8276 12.1262C20.8276 14.1036 19.7291 15.6645 18.2727 15.6645H17.4027C17.9587 14.8873 18.5462 13.7642 18.5655 12.1826C18.591 10.7155 18.0808 9.44327 16.9297 8.5803H18.0447C19.6546 8.5803 20.8276 10.1755 20.8276 12.1262ZM17.6802 12.1709C17.6568 13.6777 17.2518 14.611 16.4294 15.7084C15.4586 17.003 14.2012 18.5141 13.2421 20.3607C12.993 20.8655 12.748 21.1756 12.2856 21.1756C11.7649 21.1756 11.3622 20.7955 11.3622 20.1936C11.3622 19.0632 12.4267 17.4936 12.4267 16.6304C12.4267 16.1879 12.0749 15.9043 11.5014 15.9043H9.25727C8.61391 15.9043 8.11328 15.3844 8.11328 14.7294C8.11328 14.398 8.23375 14.0816 8.41914 13.8919C8.52578 13.8184 8.545 13.7661 8.44258 13.6967C8.28484 13.5284 8.1932 13.1991 8.1932 12.9019C8.1932 12.4651 8.3882 12.1273 8.69617 11.9335C8.78477 11.8791 8.79649 11.798 8.73672 11.7052C8.59492 11.5231 8.50539 11.2641 8.50539 10.9796C8.50539 10.4808 8.83375 10.0962 9.2268 9.92913C9.28656 9.9078 9.29828 9.83421 9.25563 9.76061C9.18953 9.6296 9.12344 9.4271 9.12344 9.20327C9.12344 8.5864 9.61258 8.27022 10.1589 8.12749C10.5147 8.04335 11.1337 7.97515 11.9383 7.98687L12.8195 7.99858C15.7998 8.03585 17.7133 9.79929 17.6802 12.1709Z" fill="white"/>
</svg>
