<svg width="28" height="29" viewBox="0 0 28 29" fill="none" xmlns="http://www.w3.org/2000/svg">
<path d="M5.64773 5.26453C7.08445 5.26453 8.26453 4.08445 8.26453 2.61679C8.26453 1.17258 7.08445 0 5.64773 0C4.18219 0 3 1.17258 3 2.61679C3 4.08445 4.18219 5.26453 5.64773 5.26453ZM4.32117 14.9871H9.20859L9.49101 15.2695C10.0896 15.8702 10.9076 16.1716 11.7 16.1716C12.3593 16.1716 13.0015 15.9682 13.567 15.5475L19.4876 11.1204L25.3708 7.57851C25.965 7.22929 26.1609 6.46687 25.8255 5.87695C25.4571 5.28281 24.6947 5.1007 24.1026 5.45742L12.9185 12.1526L9.82804 9.05249C9.73968 8.97374 9.7507 8.96108 9.8646 8.96108H12.7205C13.4126 8.96108 13.9791 8.40421 13.9791 7.71421V2.47757C13.9791 1.77585 13.4126 1.22109 12.7205 1.22109C12.0283 1.22109 11.4757 1.77585 11.4757 2.47757V6.47906H5.50781C4.17656 6.47906 3.07641 7.56749 3.07641 8.91046V13.7423C3.07641 14.411 3.62367 14.9871 4.32117 14.9871ZM5.44898 12.5698V11.4827C5.44898 11.3313 5.62593 11.2514 5.74101 11.3665L6.94008 12.5698H5.44898ZM11.8694 28.1831C12.5126 28.3024 13.226 27.885 13.3633 27.195L14.5596 21.1903C14.5926 21.0337 14.5926 20.906 14.5713 20.7419L14.3508 16.4557C13.5105 17.0735 12.5904 17.3578 11.7 17.3578C11.584 17.3578 11.4584 17.3578 11.3306 17.3461L12.0445 20.9412L10.8952 26.7009C10.7599 27.3813 11.2029 28.0458 11.8694 28.1831ZM13.3266 4.31671C14.3447 4.31671 15.187 3.49991 15.187 2.47757C15.187 1.44562 14.3447 0.628825 13.3266 0.628825C12.3138 0.628825 11.4757 1.44562 11.4757 2.47757C11.4757 3.49991 12.3138 4.31671 13.3266 4.31671Z" fill="black"/>
</svg>
