<svg width="31" height="28" viewBox="0 0 31 28" fill="none" xmlns="http://www.w3.org/2000/svg">
<path d="M0.717255 12.6326C5.24327 18.2517 9.45217 21.1706 15.1615 21.1706C20.8613 21.1706 25.0714 18.2475 29.5962 12.6326C30.9151 10.9964 30.3242 9.42492 28.7124 9.23344C24.7266 8.75695 23.5531 6.02554 19.9958 6.02554C17.1987 6.02554 15.5403 8.1818 15.1615 8.1818C14.7732 8.1818 13.1148 6.02554 10.3177 6.02554C6.76038 6.02554 5.59648 8.75906 1.60108 9.23344C-0.00110126 9.4207 -0.589849 10.9943 0.717255 12.6326ZM3.47889 12.2226C2.81163 11.8172 3.21288 11.0353 3.85225 11.3269C5.47928 12.0867 7.14592 12.011 9.29585 11.7745C9.87007 11.7 10.4506 11.6159 11.0312 11.6159C12.8462 11.6159 13.8324 12.2538 14.4706 12.6405C14.884 12.8824 15.0057 12.923 15.1637 12.923C15.3216 12.923 15.4433 12.8824 15.8567 12.6384C16.4991 12.2655 17.4694 11.6159 19.2865 11.6159C19.8671 11.6159 20.4476 11.7 21.0336 11.7745C23.195 12.078 24.8649 12.0804 26.4751 11.3269C27.1144 11.0353 27.5157 11.8172 26.8388 12.2226C24.1149 13.8813 21.016 13.3432 19.7785 13.3336C17.0691 13.3336 16.7719 14.7642 15.1637 14.7642C13.5575 14.7642 13.2603 13.3336 10.5392 13.3336C9.31131 13.3432 6.20069 13.9069 3.47889 12.2226Z" fill="black"/>
</svg>
