<svg width="28" height="28" viewBox="0 0 28 28" fill="none" xmlns="http://www.w3.org/2000/svg">
<path d="M16.1828 8.26453C17.6291 8.26453 18.8092 7.09195 18.8092 5.6264C18.8092 4.18008 17.6291 3 16.1828 3C14.7173 3 13.5447 4.18008 13.5447 5.6264C13.5447 7.09195 14.7173 8.26453 16.1828 8.26453ZM18.0037 16.4906C18.7288 16.4906 19.307 15.9241 19.307 15.199C19.307 14.4738 18.7288 13.9073 18.0037 13.9073H13.705V9.5032C13.705 7.99195 12.4323 7.0207 11.0287 7.31039L3.70843 8.82515C1.01382 9.37898 0.294761 12.5583 2.24288 14.2889L6.7239 18.2773V24.5325C6.7239 25.2363 7.31171 25.8262 8.01554 25.8262C8.71937 25.8262 9.3114 25.2363 9.3114 24.5325V17.7832C9.3114 17.3306 9.20921 17.0815 8.93124 16.7759L5.51733 13.29C5.33616 13.0992 5.42358 12.8423 5.65374 12.7955L10.5161 11.8952C10.9523 11.8099 11.1217 11.9655 11.1217 12.3516V15.199C11.1217 15.9241 11.7095 16.4906 12.4133 16.4906H18.0037ZM24.6901 21.3729H26.6162C27.2507 21.3729 27.6817 20.944 27.6817 20.3095V9.53296C27.6817 8.92945 27.2507 8.50054 26.6354 8.50054H24.6433C20.4154 8.50054 17.8377 9.59671 15.1438 12.7116H17.1048C17.1622 12.7116 17.2197 12.7116 17.2675 12.7137C19.3166 10.7566 21.4454 10.0233 24.6433 10.0233H26.1494V19.8288H24.6901C24.2755 19.8288 23.9908 19.6369 23.8042 19.2926L22.7251 17.1365C22.524 16.7344 22.1198 16.646 21.7963 16.763C21.4089 16.897 21.1119 17.3184 21.362 17.8261L22.4507 19.9917C22.8777 20.8362 23.7285 21.3729 24.6901 21.3729ZM10.5072 20.5437C11.6301 19.733 12.5366 18.7294 13.3431 17.6885H12.4133C12.0965 17.6885 11.7838 17.6184 11.4998 17.4888C11.1913 17.8645 10.8637 18.2039 10.5072 18.5316V20.5437ZM1.77789 22.4705H3.89265C4.47578 22.4705 5.03757 22.4395 5.52812 22.3701V20.8378C5.04507 20.9051 4.47788 20.9477 3.89265 20.9477H1.77789C1.34898 20.9477 1 21.2627 1 21.716C1 22.114 1.34687 22.4705 1.77789 22.4705Z" fill="black"/>
</svg>
