<svg width="28" height="28" viewBox="0 0 28 28" fill="none" xmlns="http://www.w3.org/2000/svg">
<path d="M3.84421 24.8781H23.9109C26.4499 24.8781 27.7552 23.5824 27.7552 21.0819V6.81004C27.7552 4.30739 26.4499 3.00427 23.9109 3.00427H3.84421C1.31484 3.00427 0 4.30739 0 6.81004V21.0819C0 23.5824 1.31484 24.8781 3.84421 24.8781ZM3.97733 22.5821C2.88772 22.5821 2.29592 22.018 2.29592 20.8794V7.01043C2.29592 5.87183 2.88772 5.30019 3.97733 5.30019H23.7778C24.8578 5.30019 25.4592 5.87183 25.4592 7.01043V20.8794C25.4592 22.018 24.8578 22.5821 23.7778 22.5821H3.97733Z" fill="black"/>
<path d="M16.679 10.1726H22.761C23.1838 10.1726 23.5087 9.84567 23.5087 9.42285C23.5087 9.01387 23.1838 8.68903 22.761 8.68903H16.679C16.2423 8.68903 15.9196 9.01387 15.9196 9.42285C15.9196 9.84567 16.2423 10.1726 16.679 10.1726ZM16.679 14.6946H22.761C23.1838 14.6946 23.5087 14.358 23.5087 13.9352C23.5087 13.5241 23.1838 13.211 22.761 13.211H16.679C16.2423 13.211 15.9196 13.5241 15.9196 13.9352C15.9196 14.358 16.2423 14.6946 16.679 14.6946ZM16.679 19.2008H22.761C23.1838 19.2008 23.5087 18.8876 23.5087 18.4765C23.5087 18.0537 23.1838 17.7171 22.761 17.7171H16.679C16.2423 17.7171 15.9196 18.0537 15.9196 18.4765C15.9196 18.8876 16.2423 19.2008 16.679 19.2008ZM4.7464 19.2008H13.5908C14.0134 19.2008 14.222 18.9112 14.222 18.528C14.222 17.4434 12.6224 14.6686 9.16484 14.6686C5.70524 14.6686 4.11523 17.4434 4.11523 18.528C4.11523 18.9112 4.32382 19.2008 4.7464 19.2008ZM9.16484 13.8799C10.5693 13.8895 11.6933 12.7015 11.6933 11.1193C11.6933 9.64035 10.5693 8.41504 9.16484 8.41504C7.76586 8.41504 6.63429 9.64035 6.63429 11.1193C6.63429 12.7015 7.76586 13.8799 9.16484 13.8799Z" fill="black"/>
</svg>
