<svg width="28" height="28" viewBox="0 0 28 28" fill="none" xmlns="http://www.w3.org/2000/svg">
<path d="M14.105 26.21C20.7369 26.21 26.2121 20.7273 26.2121 14.105C26.2121 7.47312 20.7273 2 14.0954 2C7.47523 2 2 7.47312 2 14.105C2 20.7273 7.48484 26.21 14.105 26.21ZM14.105 23.8255C8.71085 23.8255 4.39412 19.4991 4.39412 14.105C4.39412 8.71085 8.70124 4.38452 14.0954 4.38452C19.4895 4.38452 23.8276 8.71085 23.8276 14.105C23.8276 19.4991 19.4991 23.8255 14.105 23.8255Z" fill="black"/>
<path d="M7.53125 15.9116C7.53125 17.7889 8.66071 19.3191 10.2036 19.3191H11.2867C10.1771 18.4934 9.68493 17.267 9.71047 15.8551C9.72969 14.3309 10.2821 13.2514 10.8317 12.5157H9.98727C8.57868 12.5157 7.53125 14.0096 7.53125 15.9116ZM10.5542 15.8689C10.5191 18.1534 12.3613 19.8711 15.2406 19.8828L16.0825 19.8945C16.8594 19.9041 17.4603 19.8477 17.8023 19.7656C18.321 19.625 18.7963 19.3248 18.7963 18.7238C18.7963 18.5138 18.7302 18.3134 18.6641 18.192C18.6193 18.1184 18.6214 18.0587 18.6929 18.0256C19.07 17.8723 19.3867 17.492 19.3867 17.0166C19.3867 16.7342 19.3068 16.487 19.1692 16.3187C19.1073 16.2355 19.119 16.1448 19.2076 16.0946C19.5018 15.9125 19.685 15.5769 19.685 15.1634C19.685 14.8822 19.6051 14.5646 19.4378 14.408C19.3567 14.3312 19.3663 14.2864 19.4687 14.2053C19.6541 14.0295 19.7628 13.7344 19.7628 13.4073C19.7628 12.7702 19.2899 12.2684 18.6625 12.2684H16.5034C15.9554 12.2684 15.6153 12.0062 15.6153 11.5658C15.6153 10.7515 16.6405 9.23936 16.6405 8.14085C16.6405 7.55702 16.2538 7.20241 15.7489 7.20241C15.3003 7.20241 15.0714 7.49655 14.8264 7.98757C13.9046 9.76296 12.6833 11.209 11.7594 12.4623C10.9592 13.5139 10.5755 14.4291 10.5542 15.8689Z" fill="black"/>
</svg>
