<svg width="28" height="29" viewBox="0 0 28 29" fill="none" xmlns="http://www.w3.org/2000/svg">
<path d="M18.6754 5.24531C20.1314 5.24531 21.3039 4.07484 21.3039 2.62851C21.3039 1.17258 20.1314 0 18.6754 0C17.2195 0 16.049 1.17258 16.049 2.62851C16.049 4.07484 17.2195 5.24531 18.6754 5.24531ZM5.83729 17.6065H12.6548L18.9503 18.4938C21.3351 18.8304 23.0711 17.7813 23.0711 15.4978V11.2896C23.0711 11.0998 23.2663 11.0262 23.3943 11.1541L24.5123 12.2838V16.3127C24.5123 17.0262 25.1139 17.6065 25.7943 17.6065C26.4981 17.6065 27.0625 17.0262 27.0625 16.3127V11.7429C27.0625 11.4096 26.9411 11.0784 26.6803 10.8293L23.6955 7.86046C22.7997 6.9839 21.6494 6.46945 20.3702 6.46945H8.67932C7.98722 6.46945 7.3973 7.06148 7.3973 7.74937C7.3973 8.4628 7.96589 9.0314 8.67932 9.0314H17.6688C18.0056 9.0314 18.2381 9.27351 18.2381 9.59858V15.0424H5.83729C5.11003 15.0424 4.54144 15.611 4.54144 16.3127C4.54144 17.0262 5.13347 17.6065 5.83729 17.6065ZM20.917 28.0746C21.4089 28.5665 22.2107 28.5708 22.7006 28.0746C23.2085 27.5847 23.1946 26.783 22.7006 26.2772L18.8069 22.3345L20.1496 19.7311C19.7247 19.7641 19.2571 19.7311 18.7799 19.6704L17.0156 19.4233L16.0235 22.1578C15.8531 22.6167 15.9607 23.1225 16.3312 23.4909L20.917 28.0746ZM2.22441 12.3572C3.78581 13.9069 5.54526 13.7344 6.21511 13.0805C6.86151 12.3989 6.9126 10.7684 5.37042 9.20695C3.78979 7.63593 2.14753 7.68281 1.4798 8.36648C0.809955 9.03632 0.663002 10.7681 2.22441 12.3572Z" fill="black"/>
</svg>
