<svg width="28" height="28" viewBox="0 0 28 28" fill="none" xmlns="http://www.w3.org/2000/svg">
<path d="M21.0265 5.26663C22.4632 5.26663 23.6454 4.08445 23.6454 2.6189C23.6454 1.17258 22.4632 0 21.0265 0C19.5609 0 18.3809 1.17258 18.3809 2.6189C18.3809 4.08445 19.5609 5.26663 21.0265 5.26663ZM15.0445 23.6177C15.758 23.6177 16.3383 23.0374 16.3383 22.3474V16.1414C16.3383 15.8358 16.2244 15.5632 16.0402 15.3396L13.2417 11.9041C13.0828 11.7026 13.1351 11.4893 13.3345 11.3848L16.7264 9.61851C16.9493 9.50015 17.1797 9.58335 17.2127 9.84468L17.5078 11.9316C17.5824 12.4097 17.8549 12.743 18.3523 12.9879L21.7259 14.6805C22.6683 15.1565 23.4106 14.7689 23.6597 14.1715C23.8917 13.605 23.7213 12.8576 22.9334 12.4594L19.9441 10.9338L19.4637 7.37999C19.192 5.44054 17.0524 4.24664 15.0117 5.31492L10.557 7.63921C8.4865 8.72343 8.19892 11.0953 9.75072 12.645L13.7998 16.6802V22.3474C13.7998 23.0374 14.3663 23.6177 15.0445 23.6177ZM5.56619 16.0462C6.03799 16.894 6.91548 17.1527 7.78665 16.9589L10.3453 16.3922C10.7222 16.3155 10.966 16.0324 10.966 15.6321C10.966 15.2393 10.6967 14.9583 10.3177 14.8933L5.94916 14.137C5.17197 13.9997 4.77705 14.6362 5.13049 15.2782L5.56619 16.0462ZM7.57268 16.0854L10.7705 25.5935L12.2229 25.0849L9.07407 15.6321L7.57268 16.0854ZM15.0211 27.9094C17.6965 27.9094 19.7988 25.7815 19.7988 23.1433C19.7988 21.319 18.7786 19.7449 17.2674 18.9366V20.9749C17.8327 21.5196 18.1538 22.2905 18.1538 23.1433C18.1538 24.8801 16.7599 26.2643 15.0211 26.2643C13.3153 26.2643 11.8981 24.8449 11.8981 23.1433C11.8981 22.2766 12.2756 21.4781 12.859 20.9175V18.9131C11.3222 19.6821 10.2551 21.2955 10.2551 23.1433C10.2551 25.7815 12.4085 27.9094 15.0211 27.9094ZM17.7938 25.2222L19.2792 25.7245L22.2387 16.7142C22.3824 16.3162 22.1641 15.8566 21.7812 15.7364C21.3363 15.6044 20.9395 15.8353 20.8097 16.229L17.7938 25.2222ZM8.47455 26.7846C7.94135 27.1326 8.10307 27.9382 8.73306 27.9382H21.2995C21.9295 27.9382 22.087 27.1134 21.5773 26.7846L18.7643 24.9441L16.2239 26.6941H13.8204L11.2779 24.9441L8.47455 26.7846Z" fill="black"/>
</svg>
