<svg width="28" height="28" viewBox="0 0 28 28" fill="none" xmlns="http://www.w3.org/2000/svg">
<path d="M3.84421 24.8781H23.9109C26.4499 24.8781 27.7552 23.5824 27.7552 21.0819V6.81004C27.7552 4.30739 26.4499 3.00427 23.9109 3.00427H3.84421C1.31484 3.00427 0 4.30739 0 6.81004V21.0819C0 23.5824 1.31484 24.8781 3.84421 24.8781ZM6.26085 22.6921C7.19788 19.8885 10.2312 17.9054 13.8893 17.9054C17.5357 17.9054 20.569 19.8885 21.5177 22.6921H6.26085ZM13.8893 15.9873C11.6531 15.9681 9.91429 14.1144 9.90468 11.6361C9.89507 9.3059 11.6616 7.36058 13.8893 7.36058C16.1149 7.36058 17.8718 9.3059 17.8718 11.6361C17.8718 14.1144 16.1234 16.0086 13.8893 15.9873Z" fill="black"/>
</svg>
