<svg width="28" height="28" viewBox="0 0 28 28" fill="none" xmlns="http://www.w3.org/2000/svg">
<path d="M18.9379 24.7323C23.8668 22.9431 25.5385 18.8333 23.6246 13.5709L22.8355 11.3877C22.1134 9.40348 20.695 8.49012 19.5643 8.89465C19.292 9.00106 19.191 9.2127 19.2878 9.47543L19.6318 10.4235C19.7875 10.8456 19.652 11.1259 19.3993 11.225C19.1329 11.3146 18.8493 11.1878 18.6936 10.7614L18.4689 10.1457C18.0397 8.94879 16.9771 8.43457 15.9357 8.81684C15.4504 8.99567 15.3004 9.29355 15.4536 9.71285L15.9191 11.0071C16.0768 11.4334 15.951 11.7095 15.6983 11.8086C15.4201 11.9078 15.1386 11.7756 14.9905 11.3471L14.5506 10.1542C14.0692 8.82926 13.0661 8.4484 12.0313 8.82738C11.5672 8.99449 11.3959 9.31371 11.5492 9.71918L12.4705 12.2617C12.6262 12.6859 12.5003 12.9662 12.2476 13.0632C11.9833 13.1624 11.6997 13.026 11.544 12.5997L8.47396 4.17879C8.162 3.31207 7.38482 2.9502 6.64068 3.21738C5.84967 3.5059 5.51006 4.27769 5.82201 5.14441L10.2772 17.3851C10.386 17.6708 10.2622 17.8766 10.0874 17.9427C9.91677 18.0067 9.74404 17.9523 9.52326 17.7219L6.53474 14.5044C6.06623 14.0082 5.55646 13.8383 4.98623 14.0532C4.16334 14.346 3.8303 15.0964 4.08248 15.8094C4.18045 16.0682 4.31358 16.2767 4.45303 16.4396L8.31552 21.2567C11.5384 25.2681 15.2472 26.0729 18.9379 24.7323Z" fill="black"/>
</svg>
