<svg width="28" height="31" viewBox="0 0 28 31" fill="none" xmlns="http://www.w3.org/2000/svg">
<path d="M15.3312 30.6103C20.5774 30.6103 23.5549 27.3215 23.5549 21.7204V19.3924C23.5549 17.2772 22.5389 15.9368 21.3316 15.9368C21.0359 15.9368 20.8774 16.1069 20.8774 16.3835V17.3901C20.8774 17.8453 20.6503 18.0616 20.3859 18.0616C20.0981 18.0616 19.8827 17.8474 19.8827 17.3901V16.7297C19.8827 15.4657 19.0596 14.6182 17.9534 14.6182C17.4328 14.6182 17.186 14.8491 17.186 15.2939V16.6723C17.186 17.1295 16.9727 17.3437 16.7084 17.3437C16.4184 17.3437 16.1934 17.1337 16.1934 16.6723V15.3973C16.1934 13.9957 15.3851 13.29 14.2875 13.29C13.7958 13.29 13.5202 13.5305 13.5202 13.9615V16.6723C13.5202 17.1274 13.3027 17.3437 13.0404 17.3437C12.7547 17.3437 12.5276 17.1295 12.5276 16.6723V7.706C12.5276 6.7903 11.9271 6.17929 11.134 6.17929C10.2919 6.17929 9.71062 6.78819 9.71062 7.706V20.734C9.71062 21.0389 9.52288 21.1945 9.33632 21.1945C9.15608 21.1945 9.00257 21.0858 8.87882 20.801L7.17092 16.7482C6.90046 16.1189 6.4821 15.7915 5.87038 15.7915C4.99851 15.7915 4.42383 16.3823 4.42383 17.1389C4.42383 17.4115 4.48031 17.6531 4.54734 17.8533L6.53437 23.699C8.20218 28.5773 11.4072 30.6103 15.3312 30.6103Z" fill="black"/>
<path d="M4.90382 9.42186C5.99953 9.42186 6.8428 8.55725 6.8428 7.48077C6.8428 6.42022 5.99953 5.55562 4.90382 5.55562C3.85078 5.55562 3 6.42022 3 7.48077C3 8.55725 3.85078 9.42186 4.90382 9.42186ZM11.1377 3.86835C12.2121 3.86835 13.0767 3.00374 13.0767 1.92726C13.0767 0.876326 12.2121 0 11.1377 0C10.0847 0 9.20835 0.876326 9.20835 1.92726C9.20835 3.00374 10.0847 3.86835 11.1377 3.86835ZM17.4323 9.42186C18.5067 9.42186 19.3734 8.55725 19.3734 7.48077C19.3734 6.42022 18.5067 5.55562 17.4323 5.55562C16.3718 5.55562 15.5072 6.42022 15.5072 7.48077C15.5072 8.55725 16.3718 9.42186 17.4323 9.42186ZM23.036 9.42186C24.1082 9.42186 24.9729 8.55725 24.9729 7.48077C24.9729 6.42022 24.1082 5.55562 23.036 5.55562C21.9829 5.55562 21.1162 6.42022 21.1162 7.48077C21.1162 8.55725 21.9829 9.42186 23.036 9.42186ZM23.036 3.86835C24.1082 3.86835 24.9729 3.00374 24.9729 1.92726C24.9729 0.876326 24.1082 0 23.036 0C21.9829 0 21.1162 0.876326 21.1162 1.92726C21.1162 3.00374 21.9829 3.86835 23.036 3.86835Z" fill="black"/>
</svg>
