<svg width="31" height="28" viewBox="0 0 31 28" fill="none" xmlns="http://www.w3.org/2000/svg">
<path d="M10.6401 22.5287C10.6401 25.0602 11.9432 26.3655 14.4458 26.3655H26.9291C29.4393 26.3655 30.7349 25.0602 30.7349 22.5287V4.84632C30.7349 2.32445 29.4393 1 26.9291 1H14.4458C11.9432 1 10.6401 2.32445 10.6401 4.84632V22.5287ZM12.936 22.386V4.98905C12.936 3.89733 13.5076 3.29592 14.6462 3.29592H26.7362C27.8769 3.29592 28.439 3.89733 28.439 4.98905V22.386C28.439 23.4777 27.8769 24.0695 26.7362 24.0695H14.6462C13.5076 24.0695 12.936 23.4777 12.936 22.386Z" fill="black"/>
<path d="M15.1559 19.1546C16.4185 19.1546 19.6853 17.2758 19.6853 13.2068C19.6853 9.13778 16.4185 7.25903 15.1559 7.25903C14.6885 7.25903 14.3438 7.50699 14.3438 8.01793V18.3956C14.3438 18.897 14.6885 19.1546 15.1559 19.1546ZM23.858 16.1731C25.5947 16.1731 27.0406 14.8498 27.0406 13.2068C27.0406 11.5521 25.5947 10.2309 23.858 10.2309C22.002 10.2309 20.6242 11.5521 20.6146 13.2068C20.6029 14.8498 22.002 16.1731 23.858 16.1731Z" fill="black"/>
<path d="M0.301788 11.8225C-0.324226 12.5294 0.0760863 13.4875 1.02038 13.4875H3.01679V18.3292C3.01679 18.9229 3.48483 19.3698 4.09444 19.3698C4.68271 19.3698 5.15076 18.9229 5.15076 18.3292V13.4875H7.12162C8.11279 13.4875 8.46716 12.5048 7.85615 11.8225L4.78537 8.3493C4.37545 7.87868 3.78037 7.87868 3.36084 8.3493L0.301788 11.8225Z" fill="black"/>
</svg>
