<svg width="29" height="28" viewBox="0 0 29 28" fill="none" xmlns="http://www.w3.org/2000/svg">
<path d="M2.10515 24.5753H17.6977C19.0148 24.5753 19.8007 23.9513 19.8007 22.9154C19.8007 19.9004 15.9776 15.7538 9.89555 15.7538C3.82523 15.7538 0 19.9004 0 22.9154C0 23.9513 0.787967 24.5753 2.10515 24.5753ZM9.90515 13.6731C12.4594 13.6731 14.6327 11.4019 14.6327 8.46591C14.6327 5.58403 12.453 3.39099 9.90515 3.39099C7.35727 3.39099 5.17547 5.62458 5.17969 8.48724C5.1818 11.4019 7.34344 13.6731 9.90515 13.6731Z" fill="black"/>
<path d="M19.7918 13.4571C20.0918 13.4571 20.3515 13.3432 20.5526 13.1325L23.6466 10.0427L26.7406 13.1325C26.9417 13.3336 27.2034 13.4571 27.5131 13.4571C28.0962 13.4571 28.5666 12.9771 28.5666 12.3898C28.5666 12.0971 28.4484 11.8545 28.2495 11.6459L25.1512 8.54556L28.2591 5.42602C28.4677 5.20782 28.5762 4.97485 28.5762 4.69173C28.5762 4.10439 28.1079 3.63611 27.5227 3.63611C27.2323 3.63611 26.9918 3.7383 26.7715 3.95861L23.6466 7.06221L20.5334 3.97033C20.3323 3.75751 20.0918 3.65533 19.7918 3.65533C19.197 3.65533 18.7383 4.114 18.7383 4.70134C18.7383 4.98446 18.8468 5.23876 19.0554 5.43563L22.1536 8.54556L19.0554 11.6555C18.8468 11.8545 18.7383 12.1088 18.7383 12.3898C18.7383 12.9771 19.197 13.4571 19.7918 13.4571Z" fill="black"/>
</svg>
