<svg width="28" height="28" viewBox="0 0 28 28" fill="none" xmlns="http://www.w3.org/2000/svg">
<path d="M14.105 26.21C20.7369 26.21 26.2121 20.7273 26.2121 14.105C26.2121 7.47312 20.7273 2 14.0954 2C7.47523 2 2 7.47312 2 14.105C2 20.7273 7.48484 26.21 14.105 26.21Z" fill="black"/>
<path d="M14.095 24.2199C11.4768 24.2199 8.6884 23.1394 6.92285 21.2335C8.25809 19.2139 10.9361 18.0526 14.095 18.0526C17.2305 18.0526 19.9298 19.1905 21.2788 21.2335C19.5015 23.1394 16.7228 24.2199 14.095 24.2199ZM14.095 16.0287C11.807 16.0095 10.0206 14.0923 10.0206 11.5602C10.0089 9.174 11.825 7.17151 14.095 7.17151C16.3766 7.17151 18.1715 9.174 18.1715 11.5602C18.1715 14.0923 16.3947 16.048 14.095 16.0287Z" fill="white"/>
</svg>
