<svg width="33" height="28" viewBox="0 0 33 28" fill="none" xmlns="http://www.w3.org/2000/svg">
<path d="M2.63812 18.8261C4.08445 18.8261 5.26453 17.6556 5.26453 16.1997C5.26453 14.7437 4.08445 13.5616 2.63812 13.5616C1.18219 13.5616 0 14.7437 0 16.1997C0 17.6556 1.18219 18.8261 2.63812 18.8261ZM5.42297 19.6063C4.95328 20.8141 5.41336 22.0527 6.41343 22.7535C8.02078 23.8741 9.52687 24.2905 11.914 24.2905H15.6902C18.6426 24.2905 19.4477 21.9655 18.438 20.0165L15.3989 14.1512V5.27992C15.3989 4.55476 14.8303 4 14.0913 4C13.3779 4 12.8348 4.55476 12.8348 5.27992V14.4611C12.8348 14.6273 12.8466 14.7688 12.8859 14.8923L14.5809 19.7387H12.4221C11.002 19.7387 10.1838 19.3424 9.05788 18.6681C8.77968 18.4987 8.70609 18.2608 8.83288 17.9357L11.5929 10.8754C11.8495 10.2227 11.5162 9.45812 10.8518 9.2132C10.166 8.95234 9.45046 9.27601 9.1896 9.95429L5.42297 19.6063ZM20.0857 22.352L24.409 20.9383L31.4044 19.6738C32.1082 19.5482 32.5788 18.9072 32.4532 18.1799C32.318 17.4782 31.6514 17.0214 30.9518 17.147L23.6442 18.4743L19.4712 19.2339L19.5776 19.4233C20.1485 20.3819 20.2465 21.4469 20.0857 22.352Z" fill="black"/>
</svg>
