<svg width="33" height="28" viewBox="0 0 33 28" fill="none" xmlns="http://www.w3.org/2000/svg">
<path d="M16.1039 24.2275C18.2667 24.2275 20.2462 23.8513 22.0458 23.2428L20.1795 21.3723C18.9009 21.7511 17.5488 21.9793 16.1039 21.9793C8.60694 21.9793 2.65404 15.7187 2.65404 14.0853C2.65404 13.2988 4.65326 10.7518 7.8614 8.78095L6.10032 7.02198C2.26547 9.45291 0 12.68 0 14.0853C0 16.4823 6.62578 24.2275 16.1039 24.2275ZM16.1039 3.94745C14.0627 3.94745 12.2027 4.2969 10.4822 4.8669L12.3581 6.73533C13.5459 6.3929 14.771 6.19556 16.1039 6.19556C23.5913 6.19556 29.5463 12.7161 29.5463 14.0853C29.5463 15.0029 27.6516 17.3973 24.6312 19.2925L26.37 21.0376C30.0415 18.6163 32.2003 15.4618 32.2003 14.0853C32.2003 11.683 25.7119 3.94745 16.1039 3.94745ZM16.1039 20.4032C17.0128 20.4032 17.8695 20.1833 18.6375 19.8247L10.3399 11.5271C9.9696 12.2931 9.76147 13.1593 9.76147 14.0875C9.77108 17.5246 12.5794 20.4032 16.1039 20.4032ZM21.9532 16.3501C22.2638 15.6536 22.4313 14.8801 22.4313 14.0832C22.4313 10.5608 19.6134 7.77173 16.106 7.77173C15.292 7.77173 14.5282 7.93931 13.8316 8.22853L21.9532 16.3501Z" fill="black"/>
<path d="M25.3391 24.4257C25.7033 24.7996 26.2869 24.8188 26.6586 24.4257C27.0496 24.0327 27.0207 23.48 26.6586 23.1062L6.81388 3.27316C6.44967 2.90895 5.85435 2.90895 5.48264 3.27316C5.13014 3.62566 5.13014 4.2423 5.48264 4.59269L25.3391 24.4257Z" fill="black"/>
</svg>
