<svg width="28" height="28" viewBox="0 0 28 28" fill="none" xmlns="http://www.w3.org/2000/svg">
<path d="M7.94953 0C5.34445 0 3 3.87867 3 6.95765C3 8.39156 3.47836 11.1956 4.59281 13.47H11.318C12.4228 11.1956 12.9108 8.39156 12.9108 6.95765C12.9108 3.87867 10.5642 0 7.94953 0ZM7.96335 20.6306C9.85265 20.6306 10.8792 18.7657 10.8792 16.1285C10.8792 15.8845 10.86 15.5276 10.8152 15.183H5.10727C5.0625 15.5276 5.04328 15.8845 5.04328 16.1285C5.04328 18.7657 6.06984 20.6306 7.96335 20.6306ZM22.3798 7.82156C19.9216 6.92906 16.4065 9.76171 15.3457 12.6607C14.8631 14.0105 14.3454 16.8124 14.6044 19.3287L20.9301 21.6279C22.7519 19.8691 24.1636 17.4082 24.6558 16.0392C25.7069 13.1541 24.8379 8.72156 22.3798 7.82156ZM15.3307 27.2081C17.1103 27.8503 18.7141 26.4476 19.612 23.9765C19.6962 23.7443 19.792 23.399 19.8834 23.0608L14.5162 21.1003C14.3566 21.4172 14.2127 21.7411 14.1307 21.9733C13.2307 24.4561 13.5586 26.5521 15.3307 27.2081Z" fill="black"/>
</svg>
