<svg width="28" height="28" viewBox="0 0 28 28" fill="none" xmlns="http://www.w3.org/2000/svg">
<path d="M2 14.384C2 21.0138 7.48484 26.489 14.105 26.489C20.7369 26.489 26.2121 21.0138 26.2121 14.384C26.2121 8.57619 22.0135 3.65783 16.5101 2.52908V0.886115C16.5101 -0.00497597 15.8558 -0.244507 15.1365 0.261038L11.202 2.97346C10.5997 3.38642 10.5943 4.04806 11.202 4.46853L15.1269 7.19266C15.8537 7.70782 16.5101 7.47462 16.5101 6.56759V4.98368C20.731 6.03368 23.8159 9.82563 23.8159 14.384C23.8159 19.7781 19.4991 24.1045 14.105 24.1045C8.71085 24.1045 4.37491 19.7781 4.38452 14.384C4.39412 11.2415 5.87421 8.4836 8.1889 6.72133C8.73476 6.24837 8.91452 5.57103 8.50765 4.99658C8.12188 4.45494 7.37188 4.35345 6.74868 4.86368C3.89516 7.00236 2 10.5899 2 14.384Z" fill="black"/>
<path d="M13.6137 18.9575H20.5503C21.4653 18.9575 21.7775 18.6828 21.7775 18.1704C21.7775 16.7457 19.9693 14.7795 17.0879 14.7795C14.1947 14.7795 12.3748 16.7457 12.3748 18.1704C12.3748 18.6828 12.6987 18.9575 13.6137 18.9575ZM17.0879 13.8033C18.3036 13.8033 19.3212 12.709 19.3212 11.3131C19.3212 9.94686 18.2939 8.91772 17.0879 8.91772C15.8743 8.91772 14.8428 9.97569 14.8449 11.3227C14.8566 12.709 15.87 13.8033 17.0879 13.8033ZM7.57498 18.9575H11.7644C11.171 18.12 11.8301 16.4288 13.0775 15.4639C12.4582 15.0673 11.6569 14.7699 10.6549 14.7699C8.16115 14.7699 6.56201 16.6072 6.56201 18.11C6.56201 18.653 6.83904 18.9575 7.57498 18.9575ZM10.6549 13.9163C11.7108 13.9163 12.6038 12.9722 12.6038 11.7596C12.6038 10.5767 11.7108 9.66256 10.6549 9.66256C9.61077 9.66256 8.69647 10.5959 8.69647 11.7692C8.70608 12.9722 9.59905 13.9163 10.6549 13.9163Z" fill="black"/>
</svg>
