<svg width="28" height="28" viewBox="0 0 28 28" fill="none" xmlns="http://www.w3.org/2000/svg">
<path d="M8.00122 2.16976L8.22387 6.33577C8.26114 7.09632 8.56043 7.55523 9.10676 7.9546L11.6835 9.83898C11.9999 10.0616 12.1504 10.2236 12.1504 10.7322V26.2719C12.1504 26.9364 12.6871 27.4635 13.3515 27.4635C14.0139 27.4635 14.5431 26.9343 14.5431 26.2719V17.9062C14.5431 17.7037 14.7222 17.5246 14.9268 17.5246C15.1293 17.5246 15.2987 17.7037 15.2987 17.9062V26.2719C15.2987 26.9343 15.8375 27.4635 16.4999 27.4635C17.1643 27.4635 17.6914 26.9364 17.6914 26.2719V12.4874C17.6914 12.2849 17.8609 12.1251 18.0634 12.1251C18.268 12.1251 18.4278 12.2849 18.4278 12.4874V17.054C18.4278 17.6673 18.9198 18.1497 19.5235 18.1497C20.1273 18.1497 20.6171 17.6673 20.6171 17.054V11.9537C20.6171 9.30906 18.6491 7.54843 15.8118 7.54843H13.3194C12.6163 7.54843 12.189 7.41203 11.6244 7.01148L10.4078 6.14429L10.1809 2.06007C10.1554 1.45633 9.63785 0.966482 9.0341 1.01547C8.42075 1.06445 7.97356 1.56601 8.00122 2.16976ZM14.9268 6.25492C16.3827 6.25492 17.5532 5.08445 17.5532 3.62851C17.5532 2.17258 16.3827 1 14.9268 1C13.4708 1 12.2982 2.17258 12.2982 3.62851C12.2982 5.08445 13.4708 6.25492 14.9268 6.25492Z" fill="black"/>
</svg>
