<svg width="29" height="32" viewBox="0 0 29 32" fill="none" xmlns="http://www.w3.org/2000/svg">
<path d="M9.64792 27.9368C13.3653 31.6542 18.0662 31.3788 21.433 28.012C23.9748 25.4702 24.5759 22.8094 23.6302 19.6059C23.1308 17.5401 21.9545 15.2466 20.8773 13.2288C20.3441 12.2072 19.6939 10.8811 19.2828 10.4173C18.8227 9.89602 18.1468 9.87423 17.6211 10.3409C17.0241 10.8682 17.0054 11.5538 17.3912 12.6687L18.7116 16.3125C18.8534 16.6643 18.8225 16.8734 18.6999 17.0056C18.5431 17.1527 18.347 17.1783 18.073 16.9043L9.3144 8.14571C8.78964 7.61884 7.94308 7.61884 7.41832 8.1436C6.88605 8.67587 6.88605 9.51493 7.42042 10.0493L13.779 16.41C13.4912 16.5443 13.1916 16.7074 12.8942 16.9153L5.54589 9.56696C5.01152 9.03258 4.17457 9.03258 3.6423 9.56696C3.10793 10.0917 3.10793 10.9383 3.6423 11.4609L10.9065 18.7273C10.6794 18.9916 10.4673 19.2656 10.269 19.5492L3.60996 12.888C3.07769 12.3675 2.23441 12.3654 1.70426 12.888C1.172 13.4182 1.1741 14.2615 1.70426 14.7937L8.93003 22.0195C8.79574 22.3884 8.7041 22.7594 8.62207 23.1112L3.59051 18.0818C3.05824 17.5474 2.21918 17.5453 1.68692 18.0776C1.16426 18.6023 1.16426 19.451 1.68692 19.9758L9.64792 27.9368ZM15.8687 10.2223L13.79 8.14571C13.2535 7.61884 12.407 7.62095 11.8843 8.1436C11.8588 8.16915 11.8386 8.18931 11.8227 8.22868L15.7644 12.1779C15.6892 11.4703 15.7086 10.8235 15.8687 10.2223ZM25.899 28.0216C28.4387 25.4702 29.0419 22.7997 28.1058 19.5963C27.5926 17.5401 26.4205 15.2562 25.3412 13.2288C24.8218 12.2093 24.1599 10.8811 23.7488 10.4269C23.2887 9.90774 22.6203 9.87633 22.0871 10.3409C21.8661 10.5164 21.7269 10.7356 21.6502 10.977C21.9481 11.5397 22.2385 12.1141 22.5385 12.6673C23.5677 14.621 24.7873 17.0386 25.2856 19.226C26.3722 23.0911 25.5207 26.3496 22.636 29.2151C22.1279 29.7328 21.5888 30.1706 21.0263 30.554C22.7748 30.3218 24.4667 29.4464 25.899 28.0216Z" fill="black"/>
<path d="M18.4146 8.29641C18.6328 8.29641 18.7882 8.15485 18.8041 7.92493C19.1334 5.22164 19.2539 5.145 22.0263 4.69102C22.27 4.66547 22.4095 4.53141 22.4095 4.31321C22.4095 4.11094 22.27 3.97688 22.0753 3.93961C19.271 3.39633 19.1334 3.4186 18.8041 0.711096C18.7882 0.485393 18.6328 0.343831 18.4146 0.343831C18.2219 0.343831 18.0665 0.485393 18.0506 0.699377C17.6936 3.46219 17.6083 3.54211 14.7815 3.93961C14.5889 3.96516 14.4452 4.11094 14.4452 4.31321C14.4452 4.51969 14.5825 4.66125 14.7794 4.69102C17.6125 5.25563 17.684 5.23547 18.0506 7.95047C18.0665 8.15485 18.224 8.29641 18.4146 8.29641ZM10.2942 5.15766C10.4411 5.15766 10.5412 5.0768 10.5764 4.91813C10.8759 3.19406 10.878 3.18445 12.6159 2.86688C12.7788 2.82961 12.881 2.73164 12.881 2.58469C12.881 2.42391 12.7788 2.32594 12.6222 2.29078C10.8717 1.94133 10.9176 1.93594 10.5764 0.251249C10.5412 0.0904684 10.4508 0 10.2942 0C10.143 0 10.0333 0.100078 10.012 0.24914C9.66443 1.9507 9.71248 1.96242 7.96826 2.29078C7.79787 2.32383 7.7074 2.43352 7.7074 2.58469C7.7074 2.72203 7.79576 2.82961 7.96615 2.86688C9.71248 3.21422 9.70076 3.2025 10.012 4.92024C10.0333 5.06719 10.143 5.15766 10.2942 5.15766ZM3.42562 31.8035C3.60867 31.8035 3.7214 31.6833 3.74695 31.4981C4.16156 29.2033 4.15195 29.1649 6.54586 28.7184C6.73734 28.6694 6.85546 28.5705 6.85546 28.3779C6.85546 28.1852 6.73734 28.0863 6.5564 28.0469C4.14773 27.5665 4.19367 27.5322 3.74695 25.2597C3.7214 25.0725 3.60867 24.9522 3.42562 24.9522C3.24469 24.9522 3.13406 25.0725 3.0968 25.2576C2.64797 27.5512 2.71523 27.5939 0.301171 28.0469C0.120234 28.0842 0 28.1852 0 28.3779C0 28.5705 0.118124 28.6694 0.299061 28.7184C2.71523 29.1893 2.68008 29.216 3.0968 31.5044C3.13406 31.6833 3.24469 31.8035 3.42562 31.8035Z" fill="black"/>
</svg>
