<svg width="43" height="28" viewBox="0 0 43 28" fill="none" xmlns="http://www.w3.org/2000/svg">
<path d="M8.69507 13.5977C11.1565 13.5977 13.1686 11.4215 13.1686 8.7492C13.1686 6.11084 11.1673 4.00732 8.69507 4.00732C6.23039 4.00732 4.20562 6.14178 4.21945 8.75881C4.22156 11.4408 6.23156 13.5977 8.69507 13.5977ZM8.69507 11.8125C7.28601 11.8125 6.09538 10.4948 6.09327 8.7567C6.08155 7.0781 7.27312 5.79255 8.69507 5.79255C10.117 5.79255 11.2948 7.04716 11.2948 8.7492C11.2948 10.4756 10.1159 11.8125 8.69507 11.8125ZM2.59382 23.0951H14.7846C16.5213 23.0951 17.3784 22.5159 17.3784 21.3237C17.3784 18.5297 14.1394 14.7767 8.68546 14.7767C3.23906 14.7767 0 18.5297 0 21.3237C0 22.5159 0.847498 23.0951 2.59382 23.0951ZM2.26522 21.3099C2.05944 21.3099 1.96663 21.2236 1.96663 21.0476C1.96663 19.4848 4.20936 16.564 8.68546 16.564C13.1595 16.564 15.4022 19.4848 15.4022 21.0476C15.4022 21.2236 15.3094 21.3099 15.1132 21.3099H2.26522ZM33.6183 13.5977C36.0818 13.5977 38.0939 11.4215 38.0939 8.7492C38.0939 6.11084 36.0905 4.00732 33.6183 4.00732C31.1557 4.00732 29.1309 6.14178 29.1427 8.75881C29.1448 11.4408 31.1548 13.5977 33.6183 13.5977ZM33.6183 11.8125C32.2092 11.8125 31.0207 10.4948 31.0186 8.7567C31.0048 7.0781 32.1963 5.79255 33.6183 5.79255C35.0423 5.79255 36.218 7.04716 36.218 8.7492C36.218 10.4756 35.0391 11.8125 33.6183 11.8125ZM27.5191 23.0951H39.7078C41.4466 23.0951 42.3016 22.5159 42.3016 21.3237C42.3016 18.5297 39.0626 14.7767 33.6087 14.7767C28.1644 14.7767 24.9232 18.5297 24.9232 21.3237C24.9232 22.5159 25.7707 23.0951 27.5191 23.0951ZM27.1884 21.3099C26.9826 21.3099 26.8898 21.2236 26.8898 21.0476C26.8898 19.4848 29.1422 16.564 33.6087 16.564C38.0848 16.564 40.3275 19.4848 40.3275 21.0476C40.3275 21.2236 40.2347 21.3099 40.0385 21.3099H27.1884Z" fill="black"/>
<path d="M16.5338 14.2591C17.4348 14.2591 18.1536 13.5402 18.1536 12.6393C18.1536 11.7501 17.4348 11.0312 16.5338 11.0312C15.6446 11.0312 14.9258 11.7501 14.9258 12.6393C14.9258 13.5402 15.6446 14.2591 16.5338 14.2591ZM21.152 14.2591C22.0412 14.2591 22.76 13.5402 22.76 12.6393C22.76 11.7501 22.0412 11.0312 21.152 11.0312C20.251 11.0312 19.5418 11.7501 19.5418 12.6393C19.5418 13.5402 20.251 14.2591 21.152 14.2591ZM25.7467 14.2591C26.6455 14.2591 27.3643 13.5402 27.3643 12.6393C27.3643 11.7501 26.6455 11.0312 25.7467 11.0312C24.8553 11.0312 24.1365 11.7501 24.1365 12.6393C24.1365 13.5402 24.8553 14.2591 25.7467 14.2591Z" fill="black"/>
</svg>
