<svg width="31" height="28" viewBox="0 0 31 28" fill="none" xmlns="http://www.w3.org/2000/svg">
<path d="M20.137 8.26453C21.593 8.26453 22.7751 7.08445 22.7751 5.62851C22.7751 4.17258 21.593 3 20.137 3C18.6811 3 17.5106 4.17258 17.5106 5.62851C17.5106 7.08445 18.6811 8.26453 20.137 8.26453ZM11.3508 25.3425C11.8289 25.6108 12.6466 25.5012 13.0055 24.7856L15.9785 18.8747C16.2075 18.3944 16.1351 17.828 15.7432 17.4457L12.2147 13.9033L16.669 11.6735C16.8748 11.5626 17.0892 11.6128 17.2469 11.7684L19.5544 14.0876V19.0092C19.5544 19.6875 20.1208 20.2444 20.8012 20.2444C21.4795 20.2444 22.0343 19.6875 22.0343 19.0092V13.5818C22.0343 13.2548 21.9576 12.9546 21.6755 12.6916L16.3237 7.36546C15.7071 6.75093 14.9009 6.42609 14.0381 6.42609H9.48749C8.25656 6.42609 7.89562 7.77093 8.64843 8.51202L10.0188 9.86859L9.50367 10.0798C7.32023 10.9861 6.67804 13.8586 8.7464 15.3656L13.3005 18.7022L10.8056 23.6878C10.4958 24.2937 10.7449 25.023 11.3508 25.3425ZM1.23304 20.7492H7.16742C7.65937 20.7492 8.05968 20.4394 8.25562 20.0571L9.5557 17.4431L8.04258 16.3282C7.70812 16.0854 7.41844 15.8116 7.18734 15.5219L6.26976 18.2714H1.23304C0.554765 18.2714 0 18.8241 0 19.5162C0 20.1944 0.554765 20.7492 1.23304 20.7492ZM26.1893 24.9895H29.7651C30.1535 24.9895 30.4908 24.6544 30.4908 24.2543V23.6599C30.4908 23.2502 30.1535 22.913 29.7651 22.913H25.8565L14.332 11.4045L13.0116 12.1652L25.5687 24.7244C25.7965 24.9522 25.9603 24.9895 26.1893 24.9895Z" fill="black"/>
</svg>
