<svg width="28" height="34" viewBox="0 0 28 34" fill="none" xmlns="http://www.w3.org/2000/svg">
<path d="M24.3694 11.2781C25.8137 11.2781 26.9862 10.1055 26.9862 8.64961C26.9862 7.20328 25.8137 6.03071 24.3694 6.03071C22.9114 6.03071 21.7313 7.20328 21.7313 8.64961C21.7313 10.1055 22.9114 11.2781 24.3694 11.2781ZM3.27031 14.6262H9.14632L12.6605 17.8165C12.815 17.9496 12.7309 18.1744 12.5274 18.1744H8.52617C8.16406 18.1744 7.7914 18.2606 7.53054 18.5236L3.1407 22.9294C2.64664 23.4351 2.63281 24.2093 3.1407 24.7172C3.63265 25.2091 4.43234 25.2091 4.92429 24.7172L8.85195 20.7874L13.6489 21.581C15.204 21.8334 16.79 21.3499 17.919 20.2017L20.6185 17.5118C20.8222 17.3081 21.1048 17.4265 21.1048 17.6974V19.5216L17.8376 22.7866C17.3436 23.2807 17.3574 24.0804 17.8376 24.5723C18.0847 24.8194 18.4062 24.9429 18.7491 24.9429C19.0707 24.9429 19.388 24.8194 19.6372 24.5723L23.2728 20.9346C23.506 20.7014 23.6433 20.3585 23.6433 20.0391V14.6245C23.6433 13.83 23.3909 13.1782 22.9191 12.7181L15.8152 5.63976V9.21538L18.7421 12.1402C18.9479 12.3438 18.9383 12.5773 18.7442 12.7617L15.5588 15.9567L10.3559 12.307C10.127 12.1505 9.9364 12.0898 9.59351 12.0898H3.27031C2.56648 12.0898 2 12.6562 2 13.358C2 14.048 2.56648 14.6262 3.27031 14.6262ZM16.3076 26.8376C18.1053 26.8376 19.4844 25.4255 19.4748 23.6405H17.9905C18.0001 24.6337 17.288 25.3554 16.3076 25.3554C15.3369 25.3554 14.6194 24.7798 14.6194 23.6747V0.73734C14.6194 0.333045 14.2864 0 13.8821 0C13.4757 0 13.1352 0.333045 13.1352 0.73734V23.6747C13.1352 25.6289 14.5259 26.8376 16.3076 26.8376ZM18.7278 33.3443C19.1492 33.3443 19.4748 33.0112 19.4748 32.5994V18.082H17.9905V32.5994C17.9905 33.0112 18.3139 33.3443 18.7278 33.3443Z" fill="black"/>
</svg>
