<svg width="32" height="28" viewBox="0 0 32 28" fill="none" xmlns="http://www.w3.org/2000/svg">
<path d="M9.62271 27.0039H21.566C23.8141 27.0039 24.9553 25.8787 24.9904 23.6423L25.1386 12.4108L27.7333 12.9953C28.9856 13.2646 29.809 12.756 30.0932 11.5192L31.1109 7.31474C31.4048 6.08123 30.9154 5.18124 29.7309 4.6853L21.5779 1.22241C21.0459 0.986164 20.568 0.995773 20.0838 1.23202C18.5032 1.97874 17.302 2.33265 15.6002 2.33265C13.8867 2.33265 12.6876 1.97874 11.107 1.23202C10.6207 0.995773 10.1449 0.986164 9.61287 1.22241L1.4599 4.6853C0.273261 5.18124 -0.204392 6.08123 0.079904 7.31474L1.09545 11.5192C1.37975 12.756 2.20521 13.2646 3.45747 12.9953L6.05975 12.4108L6.20037 23.6423C6.23342 25.8787 7.37459 27.0039 9.62271 27.0039ZM15.6002 6.19561C13.706 6.19561 12.3018 5.20654 11.7274 3.64232C12.922 4.0731 14.2479 4.30771 15.6002 4.30771C16.9429 4.30771 18.2784 4.0731 19.4634 3.64232C18.8986 5.18521 17.5137 6.19561 15.6002 6.19561Z" fill="black"/>
</svg>
