<svg width="29" height="28" viewBox="0 0 29 28" fill="none" xmlns="http://www.w3.org/2000/svg">
<path d="M3.71015 20.1257H10.8391L9.27047 18.1701C8.81227 17.5764 8.83032 16.8679 9.2993 16.4373L9.67617 16.086C10.2799 15.5078 11.0918 15.6034 11.6878 16.1685L13.7843 18.2052L14.531 17.6076L10.8045 7.35343C10.5497 6.67327 10.789 6.17944 11.3252 5.94015L12.3788 5.49296C13.133 5.1639 13.5811 5.49953 13.8239 6.11945L15.6832 10.8967L17.0208 10.3044C18.1095 9.82117 18.9422 10.4134 19.3116 11.1163C19.8841 10.7268 20.4408 10.5309 21.0602 10.5309H22.9992V4.47672C22.9992 2.05493 21.7514 0.807114 19.3008 0.807114H3.71015C1.25742 0.807114 0 2.04532 0 4.47672V16.4636C0 18.8971 1.25742 20.1257 3.71015 20.1257Z" fill="black"/>
<path d="M23.3763 26.848C28.207 25.0876 30.1917 20.784 28.2766 15.5223L27.3365 12.9491C26.4023 10.3926 24.6068 9.30835 22.5011 10.0307C21.9229 9.32639 21.0412 9.08335 20.0965 9.42952C19.7915 9.53827 19.5058 9.69929 19.2532 9.90085C18.6239 9.12835 17.6864 8.85975 16.7308 9.21132C16.5131 9.2903 16.3071 9.39811 16.1086 9.54648L14.9034 6.23709C14.3679 4.75818 13.0284 4.13006 11.639 4.64006C10.2253 5.14888 9.5918 6.49677 10.1369 7.97567L13.2785 16.6211C13.304 16.6743 13.2923 16.7308 13.2358 16.7521C13.1932 16.7638 13.1601 16.7425 13.1271 16.7116L11.9658 15.468C11.2797 14.7866 10.4669 14.601 9.67547 14.8844C8.51204 15.3069 7.8122 16.4268 8.27321 17.7076C8.40095 18.0632 8.64376 18.4977 8.92594 18.8343L12.8369 23.5508C15.8451 27.1759 19.4172 28.2976 23.3763 26.848ZM22.7786 25.0155C19.7114 26.1266 16.8993 25.5135 14.2514 22.3663L10.3129 17.7058C10.2063 17.5799 10.1327 17.4679 10.0708 17.3015C9.94711 16.9612 10.09 16.5878 10.489 16.4406C10.8058 16.319 11.0651 16.4406 11.3297 16.7148L14.0779 19.4776C14.5413 19.9422 14.9735 19.9912 15.3792 19.8442C15.8763 19.6654 16.1219 19.1385 15.9112 18.565L11.7986 7.24583C11.6418 6.82982 11.8179 6.43513 12.2243 6.28794C12.6307 6.14286 13.0104 6.3306 13.1651 6.7445L16.0666 14.7161C16.2241 15.1471 16.7083 15.3503 17.1393 15.1928C17.5608 15.0374 17.7832 14.582 17.6278 14.151L16.5972 11.3205C16.739 11.1775 16.9481 11.0462 17.1475 10.9823C17.6308 10.8062 18.0415 11.0132 18.2271 11.5157L19.1529 14.0821C19.32 14.5302 19.7979 14.71 20.2172 14.5546C20.6268 14.4088 20.8664 13.9598 20.711 13.5212L19.9851 11.5323C20.1269 11.3915 20.336 11.2581 20.5279 11.1941C21.0187 11.0202 21.4294 11.2251 21.615 11.7297L22.2319 13.4397C22.399 13.8824 22.8832 14.0664 23.3067 13.9185C23.7185 13.7706 23.9622 13.3173 23.7951 12.865L23.3929 11.7608C24.2824 11.4334 25.0943 12.1281 25.6554 13.6759L26.4853 15.9721C28.0666 20.3005 26.6292 23.6123 22.7786 25.0155Z" fill="black"/>
</svg>
