<svg width="36" height="28" viewBox="0 0 36 28" fill="none" xmlns="http://www.w3.org/2000/svg">
<path d="M8.00175 6.20687C9.44807 6.20687 10.611 5.05562 10.611 3.60929C10.611 2.16297 9.44807 1 8.00175 1C6.55542 1 5.39456 2.16297 5.39456 3.60929C5.39456 5.05562 6.55542 6.20687 8.00175 6.20687ZM3.91659 27.5483C4.48847 27.5483 4.88667 27.2289 5.09432 26.477C5.49698 25.0208 6.68901 20.0601 7.09167 18.8659C7.36542 18.018 7.54237 17.7109 8.00175 17.7109C8.46323 17.7109 8.64018 18.018 8.91393 18.8659C9.28495 19.963 10.5466 25.1558 10.9113 26.477C11.1189 27.2289 11.5171 27.5483 12.089 27.5483C12.8728 27.5483 13.353 26.837 13.1357 26.065C12.9292 25.2297 11.3271 18.512 11.0873 17.0915C10.8881 15.8277 10.8412 13.2979 10.8391 12.021C10.8391 11.8419 11.0395 11.7758 11.1503 11.9294L12.3986 13.6818C12.5118 12.8889 13.2283 12.1009 14.2347 12.0775L12.4584 9.47968C11.4996 8.07554 10.3021 7.39515 8.00175 7.39515C5.70347 7.39515 4.50605 8.06382 3.54722 9.47968L0.465657 14.0247C0.350579 14.1984 0.217454 14.3762 0.125813 14.5541C-0.137155 15.0205 0.00229824 15.6967 0.636984 16.03C1.113 16.2983 1.70081 16.2259 2.05964 15.8106C2.37815 15.4356 3.95737 13.2053 4.85526 11.9294C4.95651 11.7855 5.16651 11.8419 5.16651 12.0306C5.16441 13.3075 5.10792 15.8277 4.9087 17.0915C4.668 18.5711 2.95402 25.7486 2.86987 26.065C2.65261 26.837 3.13284 27.5483 3.91659 27.5483ZM17.8603 14.2771C18.9295 14.2771 19.8103 13.4059 19.8103 12.3367C19.8103 11.2696 18.9295 10.3963 17.8603 10.3963C16.791 10.3963 15.9199 11.2696 15.9199 12.3367C15.9199 13.4059 16.791 14.2771 17.8603 14.2771ZM15.3231 27.5483C15.7896 27.5483 16.1718 27.2779 16.3284 26.6666C16.5808 25.7708 17.3125 22.682 17.5553 21.929C17.7004 21.497 17.7398 21.4576 17.8624 21.4576C17.9849 21.4576 18.0147 21.497 18.1619 21.929C18.4047 22.682 19.1343 25.7708 19.3964 26.6666C19.5433 27.2779 19.9352 27.5483 20.4016 27.5483C21.0991 27.5483 21.5111 26.8998 21.3365 26.2567C21.2821 26.0765 20.2331 21.617 20.069 20.684C19.9497 19.9405 19.9146 18.4989 19.9146 17.8982C19.9146 17.5541 20.0275 17.3273 20.2129 17.0992C21.0799 16.0255 22.18 14.7721 22.3153 14.5687C22.6028 14.1437 22.5016 13.6359 22.1704 13.2951C21.7818 12.8702 21.1429 12.8777 20.8138 13.2205L19.5316 14.5912C19.0075 15.1525 18.5739 15.4082 17.8624 15.4082C17.1529 15.4082 16.7193 15.1525 16.1931 14.5912L14.913 13.2205C14.5839 12.8777 13.9333 12.8702 13.5564 13.2951C13.2157 13.6359 13.1219 14.1437 13.402 14.5687C13.5372 14.7721 14.647 16.0255 15.5118 17.0992C15.6993 17.3273 15.8006 17.5541 15.8006 17.8982C15.8006 18.4989 15.7771 19.9405 15.6557 20.684C15.4917 21.617 14.4426 26.0765 14.3807 26.2567C14.2157 26.8998 14.6278 27.5483 15.3231 27.5483ZM27.723 6.20687C29.1693 6.20687 30.3227 5.05562 30.3227 3.60929C30.3227 2.16297 29.1693 1 27.723 1C26.2767 1 25.1137 2.16297 25.1137 3.60929C25.1137 5.05562 26.2767 6.20687 27.723 6.20687ZM23.6378 27.5483C24.2097 27.5483 24.5962 27.2289 24.8135 26.477C25.1706 25.1558 26.4419 19.963 26.8108 18.8659C27.077 18.018 27.2615 17.7109 27.723 17.7109C28.1728 17.7109 28.3593 18.018 28.6352 18.8659C29.0261 20.0601 30.2299 25.0208 30.6325 26.477C30.8402 27.2289 31.2363 27.5483 31.8081 27.5483C32.594 27.5483 33.0742 26.837 32.8549 26.065C32.7632 25.7486 31.0471 18.5711 30.8064 17.0915C30.6072 15.8277 30.5624 13.3075 30.5582 12.0306C30.5582 11.8419 30.7703 11.7855 30.8599 11.9294C31.7674 13.2053 33.337 15.4356 33.6555 15.8106C34.0239 16.2259 34.6021 16.2983 35.0877 16.03C35.7128 15.6967 35.8619 15.0205 35.601 14.5541C35.4977 14.3762 35.3763 14.1984 35.2516 14.0247L32.1775 9.47968C31.2091 8.06382 30.0213 7.39515 27.723 7.39515C25.4226 7.39515 24.2273 8.07554 23.2685 9.47968L21.4804 12.0775C22.4985 12.1009 23.2054 12.8889 23.3261 13.6818L24.5765 11.9294C24.6853 11.7758 24.8878 11.8419 24.8878 12.021C24.8835 13.2979 24.8292 15.8277 24.6299 17.0915C24.3998 18.512 22.7976 25.2297 22.5911 26.065C22.3621 26.837 22.852 27.5483 23.6378 27.5483Z" fill="black"/>
</svg>
