<svg width="28" height="28" viewBox="0 0 28 28" fill="none" xmlns="http://www.w3.org/2000/svg">
<path d="M14.105 26.21C20.7369 26.21 26.2121 20.7273 26.2121 14.105C26.2121 7.47312 20.7273 2 14.0954 2C7.47523 2 2 7.47312 2 14.105C2 20.7273 7.48484 26.21 14.105 26.21Z" fill="black"/>
<path d="M9.2812 21.4421C8.92331 21.4421 8.62402 21.1407 8.62402 20.7711C8.62402 20.5857 8.71566 20.4015 8.87644 20.2407L11.2336 17.8974L13.1038 11.2784C13.1699 11.0396 13.0206 10.8627 12.7701 10.8744L11.6533 10.9309L11.3805 12.9631C11.3219 13.3871 11.0653 13.6278 10.6743 13.5873C10.2536 13.5575 10.0225 13.2561 10.0811 12.8162L10.4168 10.2845C10.4754 9.87009 10.7374 9.62188 11.1166 9.59634L13.9528 9.38001C15.112 9.29798 15.8887 9.63571 16.5013 10.4945L17.7663 12.2794L19.5939 11.4823C19.9774 11.312 20.3118 11.4141 20.4684 11.7603C20.6442 12.1107 20.5014 12.4419 20.1072 12.6059L17.7503 13.6512C17.4531 13.7801 17.1367 13.696 16.9642 13.4298L16.3024 12.4747C16.1392 12.2262 15.846 12.2806 15.7682 12.5546L15.28 14.3016L17.8408 15.9566C18.1167 16.1366 18.2338 16.3379 18.2338 16.553C18.2338 16.7862 18.1593 16.9428 17.9718 17.0951L15.5711 19.1251C15.3442 19.3435 15.1567 19.4277 14.9203 19.4277C14.5656 19.4277 14.2898 19.1305 14.2898 18.7705C14.2898 18.5574 14.3953 18.3498 14.587 18.2028L16.356 16.6819L14.4217 15.564C14.0252 15.3326 13.668 15.4318 13.522 15.8166L12.5287 18.3746C12.4211 18.6505 12.3817 18.7016 12.175 18.8869L9.95011 21.1002C9.70402 21.327 9.5273 21.4421 9.2812 21.4421ZM16.0804 9.02962C15.2463 9.02962 14.5612 8.34032 14.5612 7.49657C14.5612 6.64532 15.2292 5.95392 16.0804 5.95392C16.9338 5.95392 17.6231 6.64532 17.6231 7.49657C17.6231 8.3286 16.9242 9.02962 16.0804 9.02962Z" fill="white"/>
</svg>
