<svg width="28" height="29" viewBox="0 0 28 29" fill="none" xmlns="http://www.w3.org/2000/svg">
<path d="M8.86492 9.10921C10.3113 9.10921 11.4838 7.93874 11.4838 6.4732C11.4838 5.02687 10.3113 3.85429 8.86492 3.85429C7.40899 3.85429 6.2268 5.02687 6.2268 6.4732C6.2268 7.93874 7.40899 9.10921 8.86492 9.10921ZM15.5216 21.4188L19.146 16.4372L21.426 20.6051C22.2058 24.2365 22.2974 27.0073 22.2974 27.4333C22.2974 28.1937 22.866 28.7622 23.5581 28.7622C24.2716 28.7622 24.8146 28.1937 24.8146 27.4685C24.8146 27.3513 24.8024 24.1601 23.89 19.8991L23.841 19.6861C22.7933 14.8019 19.724 5.72648 11.6699 0.373828C11.2567 0.123515 10.8925 0 10.4676 0H5.25859C4.56648 0 4 0.568593 4 1.25859C4 1.98164 4.56648 2.55023 5.25859 2.55023H10.3612C11.6193 3.42374 12.7155 4.36546 13.7158 5.3796C13.8458 5.49585 13.8555 5.67304 13.7659 5.81695L9.66906 12.8166C9.14945 13.7259 9.78086 14.7258 10.7648 14.7258H16.2707L13.3729 20.0548L13.2536 20.2699L9.64351 26.8765C9.30062 27.4962 9.52211 28.2841 10.1397 28.6036C10.7158 28.9092 11.5058 28.774 11.8743 28.0978L15.5216 21.4188ZM12.9182 12.2243L13.8058 10.7102C13.9443 10.4534 14.1981 10.5119 14.309 10.6751L15.3489 12.2243H12.9182Z" fill="black"/>
</svg>
