<svg width="28" height="28" viewBox="0 0 28 28" fill="none" xmlns="http://www.w3.org/2000/svg">
<path d="M14.105 26.21C20.7369 26.21 26.2121 20.7273 26.2121 14.105C26.2121 7.47312 20.7273 2 14.0954 2C7.47523 2 2 7.47312 2 14.105C2 20.7273 7.48484 26.21 14.105 26.21Z" fill="black"/>
<path d="M13.0762 22.0688C12.602 22.0688 12.3187 21.7674 12.3187 21.2593V12.1112C12.3187 11.8107 12.2036 11.6061 11.9543 11.4207L10.2091 10.0892C9.81608 9.79527 9.64241 9.49059 9.61897 9.04199L9.4528 6.60637C9.41553 6.14301 9.67217 5.85121 10.0929 5.82027C10.519 5.78512 10.799 6.05348 10.8225 6.51473L10.9919 8.95902L12.0702 9.7409C12.4528 10.0147 12.7106 10.1075 13.2349 10.1075H14.2267C16.897 10.1075 18.0829 10.7145 18.0829 12.8434V16.1363C18.0829 16.5997 17.8209 16.883 17.4044 16.883C16.9825 16.883 16.7109 16.5997 16.7109 16.1363V12.6812C16.7109 12.4426 16.5681 12.2722 16.3689 12.2722C16.1559 12.2722 16.027 12.4309 16.027 12.6812V21.2593C16.027 21.7791 15.7607 22.0688 15.2781 22.0688C14.804 22.0688 14.511 21.7674 14.511 21.2593V16.1103C14.511 15.8813 14.3758 15.7152 14.1649 15.7152C13.9518 15.7152 13.825 15.8696 13.825 16.1103V21.2593C13.825 21.7791 13.5513 22.0688 13.0762 22.0688ZM14.2267 9.34996C13.3968 9.34996 12.6958 8.66067 12.6958 7.83496C12.6958 6.97949 13.3776 6.28598 14.2267 6.28598C15.0801 6.28598 15.7715 6.9816 15.7715 7.83496C15.7715 8.64684 15.0567 9.34996 14.2267 9.34996Z" fill="white"/>
</svg>
