<svg width="28" height="28" viewBox="0 0 28 28" fill="none" xmlns="http://www.w3.org/2000/svg">
<path d="M14.105 26.2301C20.7369 26.2301 26.2121 20.7549 26.2121 14.123C26.2121 7.50288 20.7273 2.01804 14.0954 2.01804C7.47523 2.01804 2 7.50288 2 14.123C2 20.7549 7.48484 26.2301 14.105 26.2301Z" fill="black"/>
<path d="M16.7693 19.0053C15.9497 19.2516 15.0469 19.4127 14.1047 19.4127C9.16477 19.4127 5.70703 15.376 5.70703 14.1305C5.70703 13.4485 6.74415 11.948 8.47712 10.711L10.8457 13.1009C10.7262 13.4178 10.6685 13.7656 10.6685 14.1326C10.6685 15.9898 12.2027 17.555 14.1047 17.555C14.4717 17.555 14.8078 17.4877 15.1268 17.3682L16.7693 19.0053ZM13.7297 15.9711C12.9174 15.9617 12.251 15.2548 12.2513 14.5044L13.7297 15.9711ZM17.3562 15.1548C17.4736 14.8283 17.543 14.4901 17.543 14.1326C17.543 12.2244 16.0034 10.7082 14.1047 10.7082C13.7494 10.7082 13.4016 10.768 13.0868 10.8758L11.4614 9.25039C12.281 9.00195 13.1646 8.85054 14.1047 8.85054C19.0957 8.85054 22.4949 12.8797 22.4949 14.1305C22.4949 14.8072 21.4695 16.3194 19.7461 17.5468L17.3562 15.1548ZM14.486 12.2771C15.2845 12.2961 15.922 12.9816 15.9431 13.7342L14.486 12.2771ZM19.59 20.48L7.71891 8.63233C7.49649 8.38647 7.49649 7.99483 7.71891 7.76069C7.97438 7.51694 8.35851 7.51694 8.60437 7.76069L20.4617 19.6084C20.6958 19.8542 20.6958 20.2341 20.4617 20.48C20.2254 20.7141 19.8263 20.7024 19.59 20.48Z" fill="white"/>
</svg>
