<svg width="43" height="28" viewBox="0 0 43 28" fill="none" xmlns="http://www.w3.org/2000/svg">
<path d="M8.71218 13.4106C11.0372 13.4106 13.0261 11.3315 13.0261 8.65565C13.0261 6.04143 11.0212 4.03284 8.71218 4.03284C6.3914 4.03284 4.38445 6.07026 4.39617 8.67698C4.39828 11.3411 6.38508 13.4106 8.71218 13.4106ZM1.9282 23.304H15.4844C16.7025 23.304 17.4126 22.727 17.4126 21.7593C17.4126 19.0005 14.228 15.2514 8.70257 15.2514C3.18468 15.2514 0 19.0005 0 21.7593C0 22.727 0.702654 23.304 1.9282 23.304ZM33.6354 13.4106C35.9604 13.4106 37.9514 11.3315 37.9514 8.65565C37.9514 6.04143 35.9466 4.03284 33.6354 4.03284C31.3146 4.03284 29.3077 6.07026 29.3194 8.67698C29.3215 11.3411 31.3104 13.4106 33.6354 13.4106ZM26.8514 23.304H40.4098C41.6257 23.304 42.3358 22.727 42.3358 21.7593C42.3358 19.0005 39.1512 15.2514 33.6258 15.2514C28.11 15.2514 24.9232 19.0005 24.9232 21.7593C24.9232 22.727 25.6259 23.304 26.8514 23.304Z" fill="black"/>
<path d="M16.555 14.3636C17.4538 14.3636 18.1726 13.6447 18.1726 12.7438C18.1726 11.8546 17.4538 11.1357 16.555 11.1357C15.6636 11.1357 14.9448 11.8546 14.9448 12.7438C14.9448 13.6447 15.6636 14.3636 16.555 14.3636ZM21.171 14.3636C22.0602 14.3636 22.779 13.6447 22.779 12.7438C22.779 11.8546 22.0602 11.1357 21.171 11.1357C20.2701 11.1357 19.5629 11.8546 19.5629 12.7438C19.5629 13.6447 20.2701 14.3636 21.171 14.3636ZM25.7657 14.3636C26.6645 14.3636 27.3833 13.6447 27.3833 12.7438C27.3833 11.8546 26.6645 11.1357 25.7657 11.1357C24.8743 11.1357 24.1576 11.8546 24.1576 12.7438C24.1576 13.6447 24.8743 14.3636 25.7657 14.3636Z" fill="black"/>
</svg>
