<svg width="29" height="28" viewBox="0 0 29 28" fill="none" xmlns="http://www.w3.org/2000/svg">
<path d="M14.0552 17.8563C16.0725 17.8563 16.7428 16.5073 18.7303 16.0723L10.4299 7.43531C9.88148 6.87304 9.07429 6.79101 8.41195 7.26492L3.76758 10.5703C2.93695 11.1464 3.02109 12.0302 3.49922 12.5477C3.89531 12.9907 4.61836 13.1749 5.30624 12.6851L9.03914 10.0462L11.1169 12.1826C11.3555 12.4308 11.4089 12.791 11.0562 13.0287L6.38063 16.0936C6.93095 16.0003 7.56493 15.941 8.36109 15.9602C11.1225 16.0563 11.7223 17.8563 14.0552 17.8563ZM0.727966 21.0935H1.95375C5.15648 21.0935 5.85866 19.159 8.00554 19.159C10.0765 19.159 10.8504 21.0935 14.0552 21.0935C17.2718 21.0935 18.0361 19.159 20.1166 19.159C22.2614 19.159 22.9561 21.0935 26.1684 21.0935H27.3942C27.7976 21.0935 28.1222 20.7806 28.1222 20.3773C28.1222 19.9739 27.7976 19.6493 27.3942 19.6493H26.1684C23.9416 19.6493 23.1905 17.7148 20.1166 17.7148C17.107 17.7148 16.282 19.6493 14.0552 19.6493C11.8305 19.6493 11.0152 17.7148 8.00554 17.7148C4.93172 17.7148 4.17843 19.6493 1.95375 19.6493H0.727966C0.314999 19.6493 0 19.9739 0 20.3773C0 20.7806 0.314999 21.0935 0.727966 21.0935ZM0.727966 24.4481H1.95375C5.15648 24.4481 5.85866 22.5019 8.00554 22.5019C10.0765 22.5019 10.8504 24.4481 14.0552 24.4481C17.2718 24.4481 18.0361 22.5019 20.1166 22.5019C22.2614 22.5019 22.9561 24.4481 26.1684 24.4481H27.3942C27.7976 24.4481 28.1222 24.1235 28.1222 23.7201C28.1222 23.3168 27.7976 22.9943 27.3942 22.9943H26.1684C23.9416 22.9943 23.1166 21.0576 20.1166 21.0576C17.1808 21.0576 16.282 22.9943 14.0552 22.9943C11.8305 22.9943 10.9392 21.0576 8.00554 21.0576C5.00554 21.0576 4.17843 22.9943 1.95375 22.9943H0.727966C0.314999 22.9943 0 23.3168 0 23.7201C0 24.1235 0.314999 24.4481 0.727966 24.4481ZM10.1529 3.72797C10.1529 4.12921 10.4775 4.45382 10.8787 4.45382C11.9355 4.45382 12.5632 4.6371 13.2269 5.36695C13.4932 5.66507 13.7742 5.79492 14.0552 5.79492C14.348 5.79492 14.629 5.66507 14.8952 5.36695C15.559 4.6371 16.1866 4.45382 17.2413 4.45382C17.6447 4.45382 17.9693 4.12921 17.9693 3.72797C17.9693 3.32461 17.6447 3 17.2317 3C15.9204 3 15.0342 3.31641 14.0552 4.18477C13.088 3.31641 12.1997 3 10.8787 3C10.4775 3 10.1529 3.32461 10.1529 3.72797ZM18.8723 12.9837C20.3283 12.9837 21.5083 11.8036 21.5083 10.3477C21.5083 8.90133 20.3283 7.71914 18.8723 7.71914C17.4164 7.71914 16.2438 8.90133 16.2438 10.3477C16.2438 11.8036 17.4164 12.9837 18.8723 12.9837Z" fill="black"/>
</svg>
