<svg width="28" height="28" viewBox="0 0 28 28" fill="none" xmlns="http://www.w3.org/2000/svg">
<path d="M5.71648 27.0545H22.5554C24.991 27.0545 26.274 25.7833 26.274 23.3669V11.5609C26.274 9.14874 24.991 7.88499 22.5554 7.88499H5.71648C3.26375 7.88499 2 9.14874 2 11.5609V23.3669C2 25.7833 3.26375 27.0545 5.71648 27.0545ZM4.33109 5.97718H23.9525C23.7852 4.86648 23.2285 4.23414 21.9849 4.23414H6.29655C5.05296 4.23414 4.49843 4.86648 4.33109 5.97718ZM6.71773 2.59609H21.5637C21.485 1.5557 20.8719 1 19.742 1H8.53202C7.41171 1 6.79648 1.5557 6.71773 2.59609ZM7.50218 24.809C8.42796 22.4657 11.0237 20.818 14.1469 20.818C17.2777 20.818 19.8734 22.4657 20.8013 24.809H7.50218ZM14.1469 19.1872C12.189 19.168 10.658 17.534 10.6484 15.3627C10.6367 13.2969 12.1953 11.5968 14.1469 11.5968C16.1082 11.5968 17.6551 13.2969 17.6551 15.3627C17.6551 17.534 16.1166 19.2065 14.1469 19.1872Z" fill="black"/>
</svg>
