<svg width="28" height="28" viewBox="0 0 28 28" fill="none" xmlns="http://www.w3.org/2000/svg">
<path d="M14.0017 6.20687C15.4481 6.20687 16.611 5.05562 16.611 3.60929C16.611 2.16297 15.4481 1 14.0017 1C12.5554 1 11.3946 2.16297 11.3946 3.60929C11.3946 5.05562 12.5554 6.20687 14.0017 6.20687ZM14.0017 17.7109C14.4632 17.7109 14.6402 18.018 14.9139 18.8659C15.3166 20.0601 16.5086 25.0208 16.9113 26.477C17.1189 27.2289 17.5171 27.5483 18.089 27.5483C18.8728 27.5483 19.353 26.837 19.1357 26.065C19.0516 25.7486 17.3355 18.5711 17.0873 17.0915C16.8881 15.8277 16.8412 13.2979 16.8391 12.021C16.8391 11.8419 17.0395 11.7758 17.1503 11.9294C18.0482 13.1957 19.6178 15.4356 19.9364 15.8106C20.3048 16.2259 20.8926 16.2983 21.3686 16.03C21.9937 15.6967 22.1428 15.0205 21.8798 14.5541C21.7881 14.3762 21.655 14.1984 21.5399 14.0247L18.4584 9.47968C17.4996 8.06382 16.3021 7.39515 14.0017 7.39515C11.7035 7.39515 10.5061 8.06382 9.54722 9.47968L6.46566 14.0247C6.35058 14.1984 6.21745 14.3762 6.12581 14.5541C5.86285 15.0205 6.0023 15.6967 6.63698 16.03C7.113 16.2983 7.70081 16.2259 8.05964 15.8106C8.37815 15.4356 9.95737 13.2053 10.8553 11.9294C10.9565 11.7855 11.1665 11.8419 11.1665 12.0306C11.1644 13.3075 11.1079 15.8277 10.9087 17.0915C10.668 18.5711 8.95402 25.7486 8.86987 26.065C8.65261 26.837 9.13284 27.5483 9.91659 27.5483C10.4885 27.5483 10.8867 27.2289 11.0943 26.477C11.497 25.0208 12.689 20.0601 13.0917 18.8659C13.3654 18.018 13.5424 17.7109 14.0017 17.7109Z" fill="black"/>
</svg>
