<svg width="28" height="28" viewBox="0 0 28 28" fill="none" xmlns="http://www.w3.org/2000/svg">
<path d="M13.3176 26.2774C17.6292 26.2774 20.4251 23.8619 22.2839 19.4032L24.7036 13.5583C25.3188 12.0741 24.6422 10.8593 23.6182 10.3523C22.6451 9.87515 21.3565 10.0603 20.602 11.3184L19.6722 12.9795C19.6392 13.0242 19.6179 13.0552 19.5752 13.0552C19.5187 13.0552 19.4761 13.0125 19.4953 12.9485L20.9744 4.51429C21.2554 2.95359 20.4855 1.83914 19.0943 1.57312C17.6165 1.30711 16.473 2.02125 16.1421 3.64171L15.8412 5.37188L16.1041 5.44571V2.5528C16.1041 1.04344 15.0905 0 13.6448 0C12.1448 0 11.16 1.07648 11.16 2.63062V4.07789L11.569 3.95601L11.4199 3.07546C11.0527 1.72101 9.92601 1.14281 8.72086 1.3589C7.26024 1.61226 6.51821 2.82913 6.74133 4.31811L6.97031 6.09656L7.60851 5.93531C7.18265 4.65375 6.18234 4.21828 5.07562 4.40484C3.54492 4.65937 2.81602 5.77265 3.03961 7.36593L4.54758 17.7769C5.30063 23.0409 8.10328 26.2774 13.3176 26.2774ZM13.2527 24.3101C9.05577 24.3101 7.08937 21.8796 6.42679 17.5746L4.77726 7.12499C4.71327 6.69303 4.95749 6.34639 5.37445 6.2728C5.76046 6.21092 6.09867 6.45842 6.19781 6.85616L7.88437 13.2806C8.01843 13.804 8.44804 14.0029 8.86616 13.9158C9.30679 13.8382 9.62061 13.4487 9.55475 12.9658L8.43726 4.02351C8.38499 3.56061 8.59406 3.22569 9.0239 3.1521C9.45375 3.08061 9.79617 3.34522 9.86227 3.76757L11.1823 12.6616C11.2502 13.1252 11.6639 13.3924 12.1226 13.3296C12.6539 13.2455 12.8993 12.9091 12.8993 12.4155V2.60343C12.8993 2.16186 13.2033 1.85038 13.6448 1.85038C14.0672 1.85038 14.3712 2.16186 14.3712 2.60343V12.5105C14.3712 12.9806 14.7532 13.3444 15.2158 13.3444C15.6776 13.3444 16.0242 13.0591 16.1093 12.5995L17.8176 4.00921C17.9126 3.50788 18.2667 3.2967 18.6719 3.37241C19.0826 3.4385 19.3226 3.78303 19.249 4.24382L17.4921 15.3602C17.3334 16.3669 17.9053 16.77 18.4544 16.8016C18.9396 16.8311 19.3401 16.6054 19.6915 15.9776L21.7394 12.2512C21.9644 11.8204 22.3697 11.7084 22.695 11.846C23.0512 11.974 23.2453 12.3537 23.048 12.824L20.542 18.7875C18.8915 22.6727 16.6404 24.3101 13.2527 24.3101Z" fill="black"/>
</svg>
