<svg width="28" height="33" viewBox="0 0 28 33" fill="none" xmlns="http://www.w3.org/2000/svg">
<path d="M14.0217 8.89311C15.4488 8.89311 16.6097 7.73014 16.6097 6.28381C16.6097 4.8492 15.4488 3.69585 14.0217 3.69585C12.5754 3.69585 11.4145 4.8492 11.4145 6.28381C11.4145 7.73014 12.5754 8.89311 14.0217 8.89311ZM12.3035 32.3948C12.9487 32.3948 13.5035 31.8379 13.5035 31.1969V24.993L14.0217 20.7846L14.5324 24.993V31.1969C14.5324 31.8379 15.0851 32.3948 15.7303 32.3948C16.383 32.3948 16.9261 31.8379 16.9261 31.1969V14.8556C16.9261 14.7065 17.1073 14.6894 17.1659 14.8045C18.5259 17.3222 19.376 19.7126 19.7222 20.7501C19.9394 21.3581 20.6219 21.7052 21.2374 21.4933C21.7315 21.3326 22.0434 20.8662 22.0434 20.37C22.0434 20.2486 22.02 20.1133 21.9806 19.9877C21.9019 19.7205 19.9141 13.8138 17.445 11.0166C16.9188 10.4137 16.1339 10.0495 15.2883 10.0495H12.7455C11.8999 10.0495 11.115 10.4137 10.5984 11.0166C8.11969 13.8138 6.14156 19.7205 6.06281 19.9877C6.01383 20.1133 6 20.2582 6 20.3796C6 20.8662 6.31195 21.3326 6.80601 21.4933C7.42148 21.7052 8.09437 21.3581 8.31164 20.7501C8.66742 19.7126 9.50789 17.3222 10.8755 14.8108C10.9383 14.6894 11.1173 14.7108 11.1173 14.8598V31.1969C11.1173 31.8379 11.6625 32.3948 12.3035 32.3948ZM14.0217 1.4885C18.1739 1.4885 20.5591 5.321 20.5591 11.8542V20.3817H22.0434V11.8542C22.0434 4.37389 19.1231 0.00421143 14.0217 0.00421143C8.93203 0.00421143 6.00961 4.37389 6.00961 11.8542V20.3913H7.4939V11.8542C7.4939 5.321 9.86952 1.4885 14.0217 1.4885Z" fill="black"/>
</svg>
