<svg width="28" height="28" viewBox="0 0 28 28" fill="none" xmlns="http://www.w3.org/2000/svg">
<path d="M1 15.7217C1.00211 21.1631 4.55758 24.6996 10.4844 24.6996H13.3874C16.274 24.6996 18.0055 23.2908 18.0522 20.9339C18.9704 20.6168 19.5179 19.8183 19.5179 18.765C19.5179 18.4153 19.4561 18.0753 19.3611 17.7586C20.354 17.4021 20.957 16.5713 20.957 15.4901C20.957 15.2531 20.9282 15.0066 20.8492 14.76H24.5509C26.2309 14.76 27.3327 13.657 27.3327 12.0804C27.3327 10.4848 26.2309 9.37339 24.5509 9.37339H14.8497C14.7868 9.37339 14.74 9.34996 14.74 9.28386C14.74 9.2391 14.7613 9.19855 14.8157 9.18261L16.4617 8.49097C17.3741 8.05128 17.8569 7.31745 17.8569 6.42378C17.8569 5.10402 17.0024 4.00082 15.5577 4.00082C15.1469 3.99121 14.6336 4.06574 14.1948 4.23824L8.09054 6.42098C3.39742 8.09746 0.997892 11.2474 1 15.7217ZM3.04608 15.7962C3.04608 12.3382 4.68202 9.76479 8.76132 8.2669L14.8201 6.03026C14.9791 5.96628 15.122 5.94495 15.3076 5.94495C15.6927 5.94495 16.0138 6.22339 16.0138 6.66495C16.0138 7.03198 15.7994 7.24105 15.4323 7.40535L11.6823 9.12847C11.0666 9.42027 10.8548 9.84284 10.8548 10.3018C10.8548 10.868 11.2966 11.303 11.9338 11.303H24.6829C25.1512 11.303 25.4765 11.6166 25.4765 12.0656C25.4765 12.5243 25.1512 12.8325 24.6829 12.8325H15.7103C15.2315 12.8325 14.8431 13.2401 14.8431 13.7285C14.8431 14.1978 15.2315 14.6053 15.7103 14.6053H18.9008C18.9777 14.7898 19.0375 15.0511 19.0375 15.2644C19.0375 15.7978 18.6737 16.1487 18.1072 16.1487H15.2343C14.7287 16.1487 14.3659 16.5521 14.3659 17.0171C14.3659 17.4842 14.7287 17.8875 15.2343 17.8875H17.4597C17.5387 18.0816 17.5888 18.3429 17.5888 18.5541C17.5888 19.0992 17.2326 19.4288 16.6778 19.4288H14.7538C14.2537 19.4288 13.8845 19.8577 13.8845 20.329C13.8845 20.7982 14.2537 21.1962 14.7538 21.1962H15.9934C15.9934 22.1965 15.0182 22.748 13.2805 22.748H10.6921C5.81733 22.748 3.04608 20.1312 3.04608 15.7962Z" fill="black"/>
</svg>
