<svg width="30" height="28" viewBox="0 0 30 28" fill="none" xmlns="http://www.w3.org/2000/svg">
<path d="M9.11495 25.4537H22.0009C23.087 25.4537 23.7418 24.9416 23.7418 24.0878C23.7418 21.5917 20.5803 18.159 15.5638 18.159C10.5355 18.159 7.37402 21.5917 7.37402 24.0878C7.37402 24.9416 8.02886 25.4537 9.11495 25.4537ZM15.5638 16.4448C17.6684 16.4448 19.4635 14.5679 19.4635 12.1434C19.4635 9.76658 17.6663 7.95276 15.5638 7.95276C13.4591 7.95276 11.6502 9.79752 11.6523 12.1626C11.6544 14.5679 13.457 16.4448 15.5638 16.4448Z" fill="black"/>
<path d="M1.68422 20.6611H4.10414C5.20476 20.6611 5.78836 20.0892 5.78836 19.0024V16.5218C5.78836 15.4425 5.20476 14.8706 4.10414 14.8706H1.68422C0.583593 14.8706 0 15.4329 0 16.5218V19.0024C0 20.0892 0.583593 20.6611 1.68422 20.6611ZM4.85625 12.0863H9.94875C9.97312 8.99953 12.2789 6.46781 15.1887 6.26109V4.64906C15.1887 3.56976 14.6051 3 13.4948 3H4.85625C3.75562 3 3.17203 3.56976 3.17203 4.64906V10.4372C3.17203 11.5261 3.75562 12.0863 4.85625 12.0863ZM24.0832 18.3944H27.6098C28.7201 18.3944 29.3037 17.8247 29.3037 16.7454V9.80789C29.3037 8.72859 28.7201 8.15883 27.6098 8.15883H24.0832C22.9847 8.15883 22.4011 8.72859 22.4011 9.80789V16.7454C22.4011 17.8247 22.9847 18.3944 24.0832 18.3944Z" fill="black"/>
</svg>
