<svg width="34" height="28" viewBox="0 0 34 28" fill="none" xmlns="http://www.w3.org/2000/svg">
<path d="M0 13.9234C0 17.7805 3.96164 20.7106 8.8582 20.7106C12.3173 20.7106 15.1287 19.512 16.803 17.2906C18.487 19.512 21.2866 20.7106 24.7458 20.7106C29.6541 20.7106 33.6136 17.7805 33.6136 13.9234C33.6136 12.5687 33.2037 11.6935 32.3531 11.6935C32.0498 11.6935 31.7294 11.8787 31.5293 12.181C30.9389 13.0367 29.9405 13.5045 28.6959 13.5045C25.2066 13.5045 24.203 9.20703 19.8944 9.20703C17.6531 9.20703 16.0952 10.5355 15.8412 12.6816H17.7628C17.5087 10.5355 15.9605 9.20703 13.7095 9.20703C9.41273 9.20703 8.40703 13.5045 4.91765 13.5045C3.75726 13.5045 2.76093 13.0463 2.06085 12.163C1.83515 11.8766 1.54992 11.6935 1.25086 11.6935C0.400311 11.6935 0 12.5687 0 13.9234Z" fill="black"/>
</svg>
