<svg width="28" height="28" viewBox="0 0 28 28" fill="none" xmlns="http://www.w3.org/2000/svg">
<path d="M13.6632 26.6263C17.2569 26.6263 19.5655 25.169 21.1672 22.2404C22.2645 20.4217 23.0508 17.9708 23.7216 15.7867C24.0664 14.6884 24.5518 13.289 24.5876 12.6716C24.6298 11.9755 24.1653 11.4756 23.469 11.4334C22.6705 11.3849 22.1694 11.86 21.6523 12.9227L20.0204 16.4331C19.8573 16.7849 19.6887 16.9108 19.5139 16.9108C19.3006 16.9108 19.0969 16.7828 19.1471 16.4001L20.506 4.07406C20.588 3.25211 20.0314 2.75828 19.3791 2.66219C18.6905 2.56398 17.998 2.93195 17.8754 3.70211L16.4546 13.0143C16.153 12.9034 15.8225 12.8139 15.4707 12.7457V2.30312C15.4707 1.58242 14.8787 1 14.1282 1C13.3777 1 12.7878 1.58242 12.7878 2.30312V12.6189C12.4381 12.6423 12.0863 12.6946 11.7462 12.7469L10.5856 3.47266C10.4844 2.65445 9.81851 2.27383 9.12031 2.36243C8.44883 2.44141 7.84203 2.9875 7.93367 3.81367L9.06125 13.5501C8.69984 13.7207 8.37898 13.903 8.06984 14.0971L6.61953 6.69132C6.46179 5.87547 5.82031 5.53187 5.15094 5.60875C4.48907 5.69734 3.89938 6.24344 4.01446 7.10898L5.38485 18.2415C6.02962 23.4789 8.9075 26.6263 13.6632 26.6263Z" fill="black"/>
</svg>
