<svg width="28" height="29" viewBox="0 0 28 29" fill="none" xmlns="http://www.w3.org/2000/svg">
<path d="M13.065 5.25492C14.5093 5.25492 15.6818 4.08445 15.6818 2.6189C15.6818 1.17258 14.5093 0 13.065 0C11.5974 0 10.4269 1.17258 10.4269 2.6189C10.4269 4.08445 11.5974 5.25492 13.065 5.25492ZM2.44504 28.278C2.96254 28.721 3.76012 28.6954 4.24035 28.1524L8.45863 23.3322C8.68972 23.0681 8.82496 22.7763 8.86011 22.4313L9.3748 17.3997C9.39074 17.2008 9.60144 17.1283 9.73128 17.2816L13.0144 21.0677V27.3176C13.0144 28.0172 13.583 28.5975 14.2964 28.5975C14.9864 28.5975 15.5764 28.0172 15.5764 27.3176V20.6482C15.5764 20.3032 15.4646 20.0679 15.3059 19.8368L11.7202 14.5999L13.4672 9.38647C13.5546 9.11999 13.7189 9.02929 13.9875 9.02929H23.4638C24.1538 9.02929 24.7458 8.4628 24.7458 7.75898C24.7458 7.05937 24.1538 6.47906 23.4638 6.47906H9.19082C8.18746 6.47906 7.36527 6.76874 6.55152 7.57288L4.21973 9.92812C3.4041 10.7512 3.85129 12.0982 4.97465 12.0982H7.10793L6.65816 13.4463C6.40785 14.2048 6.28644 14.9972 6.28644 15.7694V21.9544L2.31942 26.4785C1.8509 27.0077 1.90199 27.8095 2.44504 28.278ZM23.4638 10.2745C24.4978 10.2745 25.3477 9.42468 25.3477 8.36507C25.3477 7.33101 24.4978 6.47906 23.4638 6.47906C22.4063 6.47906 21.5543 7.33101 21.5543 8.36507C21.5543 9.42468 22.4063 10.2745 23.4638 10.2745Z" fill="black"/>
</svg>
