<svg width="28" height="29" viewBox="0 0 28 29" fill="none" xmlns="http://www.w3.org/2000/svg">
<path d="M12.4753 5.24742C13.9216 5.24742 15.1017 4.06523 15.1017 2.62851C15.1017 1.18219 13.9216 0 12.4753 0C11.0289 0 9.84675 1.18219 9.84675 2.62851C9.84675 4.06523 11.0289 5.24742 12.4753 5.24742ZM5.58792 11.3245C4.16714 13.297 5.42597 15.9808 8.23987 15.5601L12.509 14.9198L10.8576 19.8272C10.2698 21.5458 12.6848 22.2635 13.2257 20.6386L15.4596 13.8689C15.7417 13.0181 15.2104 12.1791 14.2169 12.1791H10.0274L12.2182 9.26061C12.4324 8.96647 12.5519 8.93765 12.8428 8.93765H21.7033C22.3816 8.93765 22.9363 8.3946 22.9363 7.7046C22.9363 7.02421 22.3933 6.47156 21.7033 6.47156H10.4364C9.59292 6.47156 8.77495 6.90398 8.24456 7.6282L5.58792 11.3245ZM6.57277 26.9981C6.57277 27.6047 6.99839 28.009 7.61878 28.009H16.4774C17.0978 28.009 17.5117 27.6047 17.5117 26.9981V23.5572C17.5117 22.9603 17.0978 22.556 16.4774 22.556H7.61878C6.99839 22.556 6.57277 22.9603 6.57277 23.5572V26.9981Z" fill="black"/>
</svg>
