<svg width="28" height="28" viewBox="0 0 28 28" fill="none" xmlns="http://www.w3.org/2000/svg">
<path d="M14.105 26.21C20.7369 26.21 26.2121 20.7273 26.2121 14.105C26.2121 7.47312 20.7273 2 14.0954 2C7.47523 2 2 7.47312 2 14.105C2 20.7273 7.48484 26.21 14.105 26.21Z" fill="black"/>
<path d="M14.1051 20.0727C11.5401 20.0727 9.82402 18.3683 9.82402 17.5566C9.82402 17.2552 10.1275 17.12 10.3905 17.2435C11.2875 17.7102 12.3229 18.2663 14.1051 18.2663C15.8756 18.2663 16.9143 17.7113 17.8101 17.2435C18.0827 17.1221 18.3745 17.2552 18.3745 17.5566C18.3745 18.3683 16.6563 20.0727 14.1051 20.0727ZM10.5086 12.976C9.7448 12.976 9.09277 12.2846 9.09277 11.3279C9.09277 10.3477 9.7448 9.65631 10.5086 9.65631C11.2779 9.65631 11.9575 10.3477 11.9575 11.3279C11.9575 12.2846 11.2779 12.976 10.5086 12.976ZM17.6899 12.976C16.9239 12.976 16.2719 12.2846 16.2719 11.3279C16.2719 10.3477 16.9239 9.65631 17.6899 9.65631C18.4591 9.65631 19.1388 10.3477 19.1388 11.3279C19.1388 12.2846 18.4591 12.976 17.6899 12.976Z" fill="white"/>
</svg>
