<svg width="28" height="28" viewBox="0 0 28 28" fill="none" xmlns="http://www.w3.org/2000/svg">
<path d="M3.84421 24.8781H23.9109C26.4499 24.8781 27.7552 23.5824 27.7552 21.0819V6.81004C27.7552 4.30739 26.4499 3.00427 23.9109 3.00427H3.84421C1.31484 3.00427 0 4.30739 0 6.81004V21.0819C0 23.5824 1.31484 24.8781 3.84421 24.8781Z" fill="black"/>
<path d="M4.97266 18.9853C3.81461 18.9853 3.25 18.4153 3.25 17.2882V10.6132C3.25 9.47433 3.81461 8.91394 4.97266 8.91394H11.5848C12.7492 8.91394 13.3213 9.48394 13.3213 10.6132V17.2882C13.3213 18.4153 12.7492 18.9853 11.5848 18.9853H4.97266ZM4.71531 17.7663H11.8518C11.4632 16.7102 10.1228 15.7762 8.28836 15.7762C6.43469 15.7762 5.1018 16.7102 4.71531 17.7663ZM8.27875 14.9039C9.325 14.9039 10.1624 14.0079 10.1624 12.8402C10.1624 11.7396 9.325 10.8414 8.27875 10.8414C7.23039 10.8414 6.40469 11.7396 6.40469 12.8402C6.40469 14.0079 7.23039 14.9039 8.27875 14.9039ZM20.1897 18.8648C17.2386 18.8648 15.2729 16.9109 15.2729 13.9566C15.2729 11.0097 17.2483 9.00886 20.1503 9.00886C22.9426 9.00886 24.8966 10.8243 24.8966 13.4505C24.8966 15.3661 24.0018 16.6221 22.634 16.6221C22.0469 16.6221 21.5333 16.3748 21.2713 15.9347C20.9219 16.3748 20.4243 16.6221 19.8489 16.6221C18.5364 16.6221 17.6223 15.544 17.6223 13.9641C17.6223 12.431 18.5385 11.3177 19.8158 11.3177C20.3542 11.3177 20.7505 11.5127 21.0561 11.8239V11.7471C21.1328 11.5127 21.3852 11.3177 21.6547 11.3177C22.0211 11.3177 22.2958 11.6074 22.2958 11.9896V14.9327C22.2958 15.2641 22.4301 15.3996 22.7533 15.3996C23.2979 15.3996 23.6507 14.6782 23.6507 13.523C23.6507 11.5612 22.2388 10.2452 20.1503 10.2452C18.0437 10.2452 16.6051 11.7562 16.6051 13.9704C16.6051 16.2209 18.0128 17.5912 20.3345 17.5912C21.0845 17.5912 21.418 17.4485 21.7855 17.3899C21.9411 17.3686 22.0445 17.3355 22.1617 17.3355C22.4908 17.3355 22.724 17.5922 22.724 17.9116C22.724 18.2365 22.5184 18.4484 22.1755 18.5953C21.7089 18.7828 20.9673 18.8648 20.1897 18.8648ZM20.0469 15.341C20.6779 15.341 21.0808 14.7975 21.0808 13.9097C21.0808 13.072 20.6875 12.5636 20.0608 12.5636C19.4277 12.5636 19.045 13.0678 19.045 13.9406C19.045 14.8252 19.4181 15.341 20.0469 15.341Z" fill="white"/>
</svg>
