<svg width="28" height="28" viewBox="0 0 28 28" fill="none" xmlns="http://www.w3.org/2000/svg">
<path d="M14.9073 26.5151C20.1515 26.5151 23.1311 23.2285 23.1311 17.637V15.309C23.1311 13.1937 22.1033 11.8534 20.9078 11.8534C20.612 11.8534 20.4515 12.0139 20.4515 12.3001V13.3067C20.4515 13.7523 20.2265 13.9782 19.9621 13.9782C19.6743 13.9782 19.4589 13.7544 19.4589 13.3067V12.6462C19.4589 11.3823 18.6337 10.5348 17.5295 10.5348C17.0069 10.5348 16.7622 10.7656 16.7622 11.2105V12.5888C16.7622 13.0365 16.5489 13.2603 16.2845 13.2603C15.9946 13.2603 15.7675 13.0407 15.7675 12.5888V11.3138C15.7675 9.91226 14.9495 9.20656 13.8616 9.20656C13.3623 9.20656 13.0942 9.44703 13.0942 9.87804V12.5888C13.0942 13.0344 12.8692 13.2603 12.6069 13.2603C12.3191 13.2603 12.1037 13.0365 12.1037 12.5888V3.62257C12.1037 2.70687 11.4937 2.09586 10.708 2.09586C9.86804 2.09586 9.27718 2.70476 9.27718 3.62257V16.6505C9.27718 16.9555 9.09906 17.1111 8.91249 17.1111C8.73015 17.1111 8.57874 17.0023 8.45288 16.708L6.7471 12.6648C6.47663 12.0355 6.04866 11.708 5.43695 11.708C4.57468 11.708 4 12.2989 4 13.0459C4 13.3259 4.05648 13.5697 4.12352 13.7698L6.11054 19.6156C7.77835 24.4843 10.9813 26.5151 14.9073 26.5151Z" fill="black"/>
</svg>
