<svg width="36" height="28" viewBox="0 0 36 28" fill="none" xmlns="http://www.w3.org/2000/svg">
<path d="M4.75449 13.2549C6.21042 13.2549 7.383 12.0844 7.383 10.6285C7.383 9.18219 6.21042 8 4.75449 8C3.30816 8 2.13769 9.18219 2.13769 10.6285C2.13769 12.0844 3.30816 13.2549 4.75449 13.2549ZM12.543 20.4437H15.9304C18.7731 20.4437 19.5815 18.8089 19.345 16.9482L18.5695 10.7874H24.5896C25.3031 10.7874 25.8557 10.2209 25.8557 9.5075C25.8557 8.80367 25.3031 8.25101 24.5896 8.25101H17.0053C16.2864 8.25101 15.7274 8.75468 15.7274 9.61296V15.8408H13.751C12.6824 15.8408 11.7949 15.4604 11.2814 14.6443C11.1705 14.4673 11.1684 14.2156 11.3826 13.9683L14.4281 10.3562C15.1628 9.49578 14.575 8.25101 13.5007 8.25101H9.25964C8.55581 8.25101 7.98722 8.80367 7.98722 9.5075C7.98722 10.2327 8.53448 10.7874 9.25964 10.7874H10.8482L9.14316 12.8047C7.8787 14.3056 6.75909 15.3411 4.87144 16.1795L3.11925 16.966L3.65339 15.0821C3.85355 14.3804 3.39464 13.6883 2.7398 13.5413C2.05191 13.3709 1.36191 13.7905 1.19152 14.4411L0.0590191 18.8635C-0.270043 20.1137 0.835267 20.7589 1.92675 20.2829L5.75198 18.5902C6.13237 18.4379 6.32761 18.4517 6.61214 18.6755C7.85409 19.7279 9.83104 20.4437 12.543 20.4437ZM25.6239 17.6933H34.4195C35.1234 17.6933 35.6899 17.1268 35.6899 16.4134C35.6899 15.7116 35.1234 15.1452 34.4195 15.1452H25.5004C25.4046 15.1452 25.2853 15.1451 25.1521 15.1569L20.3683 15.5532L20.5387 16.7778C20.6271 17.4882 20.609 18.1442 20.4599 18.7299L25.6239 17.6933Z" fill="black"/>
</svg>
