<svg width="28" height="28" viewBox="0 0 28 28" fill="none" xmlns="http://www.w3.org/2000/svg">
<path d="M12.9081 5.25703C14.3524 5.25703 15.5249 4.08445 15.5249 2.6189C15.5249 1.17258 14.3524 0 12.9081 0C11.4405 0 10.27 1.17258 10.27 2.6189C10.27 4.08445 11.4405 5.25703 12.9081 5.25703ZM1.9612 27.0583C2.43182 27.5109 3.20596 27.5972 3.74901 27.0583L8.93666 21.8824C9.26994 21.5608 9.33065 21.2937 9.29549 20.824L9.01096 17.6311C8.98541 17.4054 9.20151 17.3095 9.3569 17.449L12.9459 20.5371L14.8729 26.527C15.1082 27.2564 15.8472 27.5386 16.4723 27.3544C17.1857 27.1446 17.5232 26.429 17.3017 25.7508L15.296 19.4255C15.2353 19.2455 15.1277 19.0336 14.9723 18.8962L11.0008 14.9653L13.548 9.86882C13.6429 9.67686 13.867 9.63632 14.0259 9.79522L16.8989 12.6895C17.0341 12.8248 17.2342 12.9387 17.426 12.9973L23.1963 14.7251C23.6903 14.872 24.5135 14.6782 24.7743 13.853C24.9702 13.1864 24.588 12.4612 23.9139 12.2653L18.4652 10.6568L15.3557 7.51429C14.6357 6.79429 13.806 6.48117 12.824 6.48117H4.57917C4.08721 6.48117 3.65597 6.75585 3.44409 7.18499L1.13573 11.7825C0.830108 12.3937 1.04948 13.1721 1.70432 13.4798C2.35284 13.7897 3.09604 13.5544 3.41549 12.9037L5.35331 9.0314H7.75471C7.99893 9.0314 8.13979 9.25968 8.02565 9.49007L6.24135 13.0704C5.59589 14.3496 5.42221 15.8461 5.778 17.25L6.61964 20.5748L1.93987 25.2333C1.44581 25.7177 1.45542 26.5526 1.9612 27.0583ZM23.5551 21.7558C25.1442 21.7558 26.4201 20.4682 26.4201 18.8908C26.4201 17.3093 25.1442 16.0312 23.5551 16.0312C21.9756 16.0312 20.6976 17.3093 20.6976 18.8908C20.6976 20.4682 21.9756 21.7558 23.5551 21.7558Z" fill="black"/>
</svg>
