<svg width="28" height="32" viewBox="0 0 28 32" fill="none" xmlns="http://www.w3.org/2000/svg">
<path d="M21.975 28.3085C25.0301 25.263 25.5284 21.4762 23.4527 17.111L20.7907 11.4856C20.5906 11.0714 20.351 10.7318 20.0838 10.4646C19.1438 9.52454 17.7588 9.54189 16.8328 10.4796C16.2417 11.059 16.0364 11.9419 16.3988 12.8709L17.0532 14.4263C17.0628 14.4689 17.0745 14.5116 17.0414 14.5446C16.9967 14.5894 16.9519 14.5777 16.9092 14.535L10.522 8.14782C9.47554 7.10134 8.13351 7.10978 7.11703 8.12626C6.79829 8.4429 6.61501 8.83314 6.57797 9.2447C5.57906 8.56548 4.48735 8.64165 3.63 9.49899C2.80782 10.3212 2.73165 11.4459 3.36821 12.4235C2.98008 12.4446 2.6154 12.6279 2.3318 12.9094C1.38024 13.8513 1.40274 15.1498 2.37587 16.1346L3.16243 16.9095C2.75392 16.9209 2.34962 17.1129 2.02219 17.4403C1.08024 18.3823 1.12079 19.7456 2.1204 20.7452L9.36985 27.9947C13.369 31.9938 18.2876 31.9959 21.975 28.3085ZM20.5383 26.9665C17.5653 29.9299 13.8656 29.8509 10.5481 26.5259L3.59109 19.5785C3.27749 19.2649 3.25828 18.8426 3.57187 18.529C3.87797 18.225 4.31742 18.225 4.63313 18.5386L8.89524 22.8103C9.25595 23.1614 9.78351 23.1208 10.1058 22.7986C10.4377 22.4667 10.4761 21.9316 10.125 21.5805L3.73148 15.1774C3.41788 14.8638 3.39867 14.4415 3.70265 14.1375C4.00664 13.8335 4.4482 13.8335 4.77352 14.1471L10.7346 20.1103C11.0857 20.4593 11.6229 20.4283 11.9452 20.0986C12.277 19.7667 12.3155 19.2295 11.9644 18.8784L4.95093 11.865C4.63734 11.5514 4.61812 11.1098 4.93171 10.8059C5.22609 10.5019 5.66765 10.5211 5.99086 10.8347L12.9115 17.7553C13.2434 18.0851 13.7806 18.0734 14.1124 17.7415C14.4539 17.4021 14.4731 16.8649 14.1317 16.5234L8.26336 10.6455C7.94976 10.332 7.93805 9.90211 8.24203 9.59812C8.55563 9.28453 8.98007 9.29203 9.30328 9.61523L17.5545 17.8664C18.0279 18.3398 18.5927 18.3082 18.9865 17.9102C19.309 17.5835 19.4611 17.1335 19.2141 16.5063L17.7408 12.6403C17.5606 12.1711 17.7279 11.7797 18.0938 11.6154C18.481 11.4394 18.8339 11.6133 19.0718 12.1125L21.7821 17.9086C23.5817 21.7523 22.9313 24.5618 20.5383 26.9665ZM10.5115 7.19391C10.1874 7.49672 10.0137 7.88813 9.9649 8.28704L11.6123 9.81023C11.2903 9.45351 11.2765 8.98663 11.6027 8.66671C11.9194 8.35429 12.3745 8.37351 12.7071 8.70609L16.5101 12.507L17.6977 10.9988L13.9069 7.21547C12.8583 6.16899 11.5385 6.18797 10.5115 7.19391ZM25.2101 27.4385C28.2673 24.3834 28.7655 20.5966 26.6974 16.2293L24.0258 10.5963C23.5221 9.51445 22.6502 8.8868 21.6049 8.89313C20.8474 8.89524 19.4475 9.4036 19.4475 11.0632C19.4475 11.1837 19.4475 11.302 19.4667 11.4321L20.9972 11.9665C20.9332 11.8247 20.8927 11.6744 20.8927 11.4984C20.8927 11.153 21.1774 10.818 21.6349 10.818C21.9176 10.818 22.212 11.0154 22.3688 11.3503L25.0268 17.0269C26.8242 20.861 26.1856 23.6918 23.7755 26.0751C22.7557 27.0928 21.6476 27.7488 20.5043 28.024L18.3884 30.0037C20.7825 30.3302 23.1856 29.4609 25.2101 27.4385Z" fill="black"/>
<path d="M18.4146 8.29641C18.6232 8.29641 18.7882 8.15485 18.8041 7.92493C19.1334 5.22164 19.2539 5.145 22.0167 4.69102C22.27 4.66547 22.4095 4.53141 22.4095 4.31321C22.4095 4.11094 22.27 3.97688 22.0657 3.93961C19.271 3.39633 19.1334 3.4186 18.8041 0.711096C18.7882 0.485393 18.6232 0.343831 18.4146 0.343831C18.2219 0.343831 18.0665 0.485393 18.0506 0.699377C17.684 3.46219 17.6083 3.54211 14.7815 3.93961C14.5793 3.96516 14.4356 4.11094 14.4356 4.31321C14.4356 4.51969 14.5729 4.66125 14.7794 4.69102C17.6125 5.25563 17.6744 5.23547 18.0506 7.95047C18.0665 8.15485 18.224 8.29641 18.4146 8.29641ZM10.2942 5.15766C10.4315 5.15766 10.5412 5.0768 10.5764 4.91813C10.8759 3.19406 10.878 3.18445 12.6159 2.86688C12.7788 2.82961 12.881 2.73164 12.881 2.58469C12.881 2.42391 12.7788 2.32594 12.6222 2.29078C10.8717 1.94133 10.908 1.93594 10.5764 0.251249C10.5412 0.0904684 10.4411 0 10.2942 0C10.143 0 10.0333 0.100078 10.012 0.24914C9.66443 1.9507 9.71248 1.96242 7.95865 2.29078C7.79787 2.32383 7.69779 2.43352 7.69779 2.58469C7.69779 2.72203 7.79576 2.82961 7.95654 2.86688C9.71248 3.21422 9.69115 3.2025 10.012 4.92024C10.0333 5.06719 10.143 5.15766 10.2942 5.15766ZM3.41601 31.8035C3.60867 31.8035 3.7214 31.6833 3.74695 31.4981C4.15195 29.2033 4.14234 29.1649 6.53625 28.7184C6.73734 28.6694 6.84585 28.5705 6.84585 28.3779C6.84585 28.1852 6.73734 28.0863 6.54679 28.0469C4.14773 27.5665 4.19367 27.5322 3.74695 25.2597C3.7214 25.0725 3.60867 24.9522 3.41601 24.9522C3.23508 24.9522 3.13406 25.0725 3.08719 25.2576C2.63836 27.5512 2.71523 27.5939 0.301171 28.0469C0.120234 28.0842 0 28.1852 0 28.3779C0 28.5705 0.118124 28.6694 0.299061 28.7184C2.71523 29.1893 2.67047 29.216 3.08719 31.5044C3.13406 31.6833 3.23508 31.8035 3.41601 31.8035Z" fill="black"/>
</svg>
