<svg width="28" height="28" viewBox="0 0 28 28" fill="none" xmlns="http://www.w3.org/2000/svg">
<path d="M6.43312 24.2967C10.0922 24.2967 12.9119 19.9868 12.9119 13.6425C12.9119 7.2982 10.0922 3 6.43312 3C3.03679 3 0.350155 6.74063 0 12.3891C0.561328 11.3194 1.62023 10.6791 3.00516 10.6791C5.06953 10.6791 6.43195 12.1256 6.43195 14.2582C6.43195 16.428 5.06953 17.8608 3.00516 17.8608C1.74188 17.8608 0.742735 17.3325 0.152579 16.425C0.848439 21.2123 3.34406 24.2967 6.43312 24.2967ZM2.04844 13.8384C2.47242 13.9205 2.86336 13.5337 2.97844 13.0001C3.08391 12.4748 2.82609 11.9646 2.37867 11.8826C1.96641 11.8069 1.52859 12.1894 1.43695 12.7209C1.3432 13.26 1.62234 13.766 2.04844 13.8384ZM21.405 24.2967C25.0619 24.2967 27.8817 19.9868 27.8817 13.6425C27.8817 7.2982 25.0619 3 21.405 3C18.0065 3 15.322 6.74063 14.9698 12.3891C15.5311 11.3194 16.59 10.6791 17.9653 10.6791C20.0393 10.6791 21.4017 12.1256 21.4017 14.2582C21.4017 16.428 20.0393 17.8608 17.9653 17.8608C16.7137 17.8608 15.7125 17.3325 15.1223 16.425C15.8182 21.2123 18.3138 24.2967 21.405 24.2967ZM17.0203 13.8384C17.4347 13.9205 17.8427 13.5337 17.9482 13.0001C18.044 12.4748 17.7862 11.9487 17.3484 11.8826C16.9362 11.8069 16.5005 12.1894 16.4067 12.7209C16.313 13.26 16.5825 13.7585 17.0203 13.8384Z" fill="black"/>
</svg>
