<svg width="29" height="29" viewBox="0 0 29 29" fill="none" xmlns="http://www.w3.org/2000/svg">
<path d="M21.577 13.7027C23.033 13.7027 24.2055 12.5323 24.2055 11.0763C24.2055 9.6204 23.033 8.43821 21.577 8.43821C20.1115 8.43821 18.941 9.6204 18.941 11.0763C18.941 12.5323 20.1115 13.7027 21.577 13.7027ZM13.2848 23.0695H18.0307L22.8658 18.2344C23.1002 18.0021 23.4743 18 23.6991 18.2344L25.6298 20.1534L23.6034 22.1916C22.5035 23.3053 24.1762 24.9855 25.2858 23.8718L28.1608 21.0042C28.6528 20.508 28.6411 19.7829 28.1608 19.3026L24.8107 15.9621C24.1514 15.3028 23.2823 14.929 22.3589 14.929H13.5926V17.3344H16.4489C16.6619 17.3344 16.7409 17.5432 16.6087 17.685L13.2848 20.9993V23.0695ZM1.66687 23.0695H14.0923V1.2968C14.0923 0.370551 12.7465 -0.0255413 12.1662 1.0254L0.821485 21.4458C0.350861 22.3083 0.825703 23.0695 1.66687 23.0695ZM2.75319 21.5873C2.5978 21.5873 2.55515 21.4479 2.60835 21.3532L12.333 3.83249C12.4109 3.69608 12.608 3.73335 12.608 3.88358V21.5873H2.75319ZM0.727966 28.0565H1.93054C5.1471 28.0565 5.83757 26.1103 7.99195 26.1103C10.1367 26.1103 10.8293 28.0565 14.0437 28.0565C17.2507 28.0565 17.9529 26.1103 20.0955 26.1103C22.2403 26.1103 22.9425 28.0565 26.1473 28.0565H27.3616C27.765 28.0565 28.08 27.7415 28.08 27.3382C28.08 26.9369 27.765 26.6123 27.3616 26.6123H26.1473C23.9226 26.6123 23.1715 24.6661 20.0955 24.6661C17.0217 24.6661 16.2684 26.6123 14.0437 26.6123C11.8169 26.6123 11.0658 24.6661 7.99195 24.6661C4.90851 24.6661 4.16695 26.6123 1.93054 26.6123H0.727966C0.324608 26.6123 0 26.9369 0 27.3382C0 27.7415 0.324608 28.0565 0.727966 28.0565Z" fill="black"/>
</svg>
