<svg width="28" height="28" viewBox="0 0 28 28" fill="none" xmlns="http://www.w3.org/2000/svg">
<path d="M27.3348 15.7216C27.3369 11.2474 24.9374 8.09736 20.2443 6.42088L14.1379 4.23815C13.6991 4.07737 13.1858 3.99112 12.7867 4.00073C11.3324 4.00073 10.4758 5.10393 10.4758 6.42369C10.4854 7.31736 10.9682 8.05119 11.8731 8.49087L13.5288 9.18252C13.5735 9.19846 13.5949 9.239 13.5949 9.28377C13.5949 9.34986 13.5576 9.3733 13.4948 9.3733H3.78179C2.10179 9.3733 1 10.4847 1 12.0803C1 13.657 2.10179 14.7599 3.78179 14.7599H7.48563C7.41626 15.0065 7.37782 15.2531 7.37782 15.49C7.37782 16.5712 7.98087 17.402 8.97368 17.7585C8.87876 18.0752 8.81688 18.4152 8.81688 18.7649C8.81688 19.8182 9.37188 20.6167 10.2827 20.9338C10.3293 23.2907 12.0588 24.6995 14.9453 24.6995H17.8504C23.7751 24.6995 27.3327 21.163 27.3348 15.7216ZM25.2866 15.7961C25.2866 20.1311 22.5175 22.7479 17.6406 22.7479H15.0543C13.3166 22.7479 12.3393 22.1964 12.3393 21.1961H13.5789C14.0812 21.1961 14.4482 20.7981 14.4482 20.3289C14.4482 19.8576 14.0812 19.4287 13.5789 19.4287H11.657C11.1002 19.4287 10.746 19.0992 10.746 18.554C10.746 18.3428 10.7962 18.0815 10.8827 17.8874H13.1102C13.6157 17.8874 13.9689 17.4841 13.9689 17.017C13.9689 16.552 13.6157 16.1486 13.1102 16.1486H10.2276C9.66109 16.1486 9.29734 15.7977 9.29734 15.2643C9.29734 15.051 9.35499 14.7897 9.43398 14.6052H12.6245C13.1034 14.6052 13.4917 14.1977 13.4917 13.7284C13.4917 13.24 13.1034 12.8324 12.6245 12.8324H3.65195C3.19327 12.8324 2.85835 12.5242 2.85835 12.0656C2.85835 11.6165 3.19327 11.3029 3.65195 11.3029L16.401 11.3008C17.0383 11.3008 17.4801 10.8679 17.4801 10.3017C17.4801 9.84275 17.2661 9.42017 16.6504 9.12837L12.9004 7.40525C12.5451 7.25056 12.3189 7.03189 12.3189 6.66486C12.3189 6.22329 12.6421 5.94485 13.0251 5.94485C13.2107 5.94485 13.3558 5.96618 13.5147 6.03017L19.5735 8.2668C23.6528 9.76469 25.2866 12.3381 25.2866 15.7961Z" fill="black"/>
</svg>
