<svg width="29" height="28" viewBox="0 0 29 28" fill="none" xmlns="http://www.w3.org/2000/svg">
<path d="M18.8723 11.184C20.3283 11.184 21.5083 10.0135 21.5083 8.55758C21.5083 7.10164 20.3283 5.91945 18.8723 5.91945C17.4164 5.91945 16.2438 7.10164 16.2438 8.55758C16.2438 10.0135 17.4164 11.184 18.8723 11.184ZM14.0552 16.0566C16.0725 16.0566 16.7428 14.7076 18.7303 14.2726L10.4299 5.63562C9.88148 5.07336 9.07429 5.00094 8.41195 5.46523L3.76758 8.76851C2.93695 9.35422 3.02109 10.2305 3.49922 10.748C3.89531 11.191 4.61836 11.3752 5.30624 10.8854L9.03914 8.24656L11.1169 10.3829C11.3555 10.629 11.4089 10.9892 11.0562 11.2269L6.38063 14.2939C6.93095 14.2006 7.56493 14.1509 8.36109 14.1702C11.1225 14.2662 11.7223 16.0566 14.0552 16.0566ZM0.727966 19.2938H1.95375C5.15648 19.2938 5.85866 17.3593 8.00554 17.3593C10.0765 17.3593 10.8504 19.2938 14.0552 19.2938C17.2718 19.2938 18.0361 17.3593 20.1166 17.3593C22.2614 17.3593 22.9561 19.2938 26.1684 19.2938H27.3942C27.7976 19.2938 28.1222 18.9809 28.1222 18.5776C28.1222 18.1742 27.7976 17.8496 27.3942 17.8496H26.1684C23.9416 17.8496 23.1905 15.9151 20.1166 15.9151C17.107 15.9151 16.282 17.8496 14.0552 17.8496C11.8305 17.8496 11.0152 15.9151 8.00554 15.9151C4.93172 15.9151 4.17843 17.8496 1.95375 17.8496H0.727966C0.314999 17.8496 0 18.1742 0 18.5776C0 18.9809 0.314999 19.2938 0.727966 19.2938ZM0.998905 22.6929C1.4025 22.6929 1.72406 22.3714 1.72406 21.9774C1.72406 21.5717 1.4025 21.2501 0.998905 21.2501C0.602812 21.2501 0.28125 21.5717 0.28125 21.9774C0.28125 22.3714 0.602812 22.6929 0.998905 22.6929ZM3.23367 22.2924C3.62765 22.2924 3.94921 21.9804 3.94921 21.5747C3.94921 21.1712 3.62765 20.8592 3.23367 20.8592C2.82797 20.8592 2.5064 21.1712 2.5064 21.5747C2.5064 21.9804 2.82797 22.2924 3.23367 22.2924ZM5.30554 21.3188C5.71125 21.3188 6.03281 20.9972 6.03281 20.5915C6.03281 20.1976 5.71125 19.876 5.30554 19.876C4.91156 19.876 4.59 20.1976 4.59 20.5915C4.59 20.9972 4.91156 21.3188 5.30554 21.3188ZM7.54148 20.7598C7.94507 20.7598 8.26663 20.4383 8.26663 20.0443C8.26663 19.6386 7.94507 19.317 7.54148 19.317C7.14539 19.317 6.82383 19.6386 6.82383 20.0443C6.82383 20.4383 7.14539 20.7598 7.54148 20.7598ZM9.7732 21.3188C10.1789 21.3188 10.4909 20.9972 10.4909 20.5915C10.4909 20.1976 10.1789 19.876 9.7732 19.876C9.3675 19.876 9.05765 20.1976 9.05765 20.5915C9.05765 20.9972 9.3675 21.3188 9.7732 21.3188ZM11.8664 22.2924C12.27 22.2924 12.5916 21.9804 12.5916 21.5747C12.5916 21.1712 12.27 20.8592 11.8664 20.8592C11.4703 20.8592 11.1487 21.1712 11.1487 21.5747C11.1487 21.9804 11.4703 22.2924 11.8664 22.2924ZM14.0766 22.6929C14.4705 22.6929 14.7921 22.3714 14.7921 21.9774C14.7921 21.5717 14.4705 21.2501 14.0766 21.2501C13.6709 21.2501 13.3493 21.5717 13.3493 21.9774C13.3493 22.3714 13.6709 22.6929 14.0766 22.6929ZM16.275 22.2924C16.6807 22.2924 16.9926 21.9804 16.9926 21.5747C16.9926 21.1712 16.6807 20.8592 16.275 20.8592C15.8714 20.8592 15.5594 21.1712 15.5594 21.5747C15.5594 21.9804 15.8714 22.2924 16.275 22.2924ZM18.3682 21.3188C18.7739 21.3188 19.0933 20.9972 19.0933 20.5915C19.0933 20.1976 18.7739 19.876 18.3682 19.876C17.9721 19.876 17.6505 20.1976 17.6505 20.5915C17.6505 20.9972 17.9721 21.3188 18.3682 21.3188ZM20.5999 20.7598C21.0056 20.7598 21.3176 20.4383 21.3176 20.0443C21.3176 19.6386 21.0056 19.317 20.5999 19.317C20.1963 19.317 19.8844 19.6386 19.8844 20.0443C19.8844 20.4383 20.1963 20.7598 20.5999 20.7598ZM22.8358 21.3188C23.2394 21.3188 23.5514 20.9972 23.5514 20.5915C23.5514 20.1976 23.2394 19.876 22.8358 19.876C22.4301 19.876 22.1182 20.1976 22.1182 20.5915C22.1182 20.9972 22.4301 21.3188 22.8358 21.3188ZM24.9173 22.2924C25.323 22.2924 25.635 21.9804 25.635 21.5747C25.635 21.1712 25.323 20.8592 24.9173 20.8592C24.5137 20.8592 24.2018 21.1712 24.2018 21.5747C24.2018 21.9804 24.5137 22.2924 24.9173 22.2924ZM27.1329 22.6929C27.5386 22.6929 27.8601 22.3714 27.8601 21.9774C27.8601 21.5717 27.5386 21.2501 27.1329 21.2501C26.7389 21.2501 26.4173 21.5717 26.4173 21.9774C26.4173 22.3714 26.7389 22.6929 27.1329 22.6929Z" fill="black"/>
</svg>
