<svg width="28" height="28" viewBox="0 0 28 28" fill="none" xmlns="http://www.w3.org/2000/svg">
<path d="M14.105 26.21C20.7369 26.21 26.2121 20.7273 26.2121 14.105C26.2121 7.47312 20.7273 2 14.0954 2C7.47523 2 2 7.47312 2 14.105C2 20.7273 7.48484 26.21 14.105 26.21Z" fill="black"/>
<path d="M7.14294 13.7276C7.06841 13.2718 7.26224 12.9352 7.7352 12.7126L8.57685 12.3045C10.5627 11.3691 12.099 10.6958 13.1985 10.2622L14.215 9.84663L14.9427 7.33648C15.242 6.28202 16.7096 6.6889 16.3986 7.75718L15.5942 10.508C15.4867 10.8957 15.115 11.0087 14.8007 11.161L13.6126 11.7097C13.5177 11.7598 13.4783 11.8142 13.5231 11.9155L14.9188 14.773C14.9828 14.8934 15.1107 14.9244 15.2504 14.8487L16.8688 13.8706C17.2618 13.6299 17.6528 13.6182 18.081 13.8099L21.4998 15.376C22.6672 15.9193 21.8481 17.3966 20.8874 16.9407L17.7092 15.4257L15.3653 16.7959C15.2256 16.8716 15.2256 17.0347 15.3418 17.12L18.8544 19.808C19.8046 20.5313 18.8117 21.804 17.9171 21.1501L13.2976 17.7781C12.9599 17.5203 12.5807 17.2391 12.1332 16.3719L10.6736 13.4612C10.6288 13.3503 10.5531 13.3194 10.4251 13.3641L8.76083 14.0173L9.11567 16.3123C9.27434 17.3902 7.79708 17.6405 7.6288 16.5509L7.14294 13.7276ZM10.2899 10.6923C9.37583 10.6923 8.6195 9.93804 8.6195 9.01014C8.6195 8.0492 9.362 7.28748 10.2899 7.28748C11.2412 7.28748 12.0008 8.04709 12.0008 9.01014C12.0008 9.92631 11.2253 10.6923 10.2899 10.6923Z" fill="white"/>
</svg>
