<svg width="40" height="28" viewBox="0 0 40 28" fill="none" xmlns="http://www.w3.org/2000/svg">
<path d="M14.858 24.762H29.4787C31.3987 24.762 32.0677 24.1798 32.0677 23.1021C32.0677 20.0871 28.2445 15.9406 22.1625 15.9406C16.0922 15.9406 12.267 20.0871 12.267 23.1021C12.267 24.1798 12.9359 24.762 14.858 24.762ZM22.1721 13.8598C24.7359 13.8598 26.8997 11.5887 26.8997 8.65268C26.8997 5.7708 24.72 3.57776 22.1721 3.57776C19.6242 3.57776 17.4445 5.81135 17.4466 8.67401C17.4487 11.5887 19.6104 13.8598 22.1721 13.8598ZM2.16164 24.7641H10.954C9.7057 22.9713 11.0801 19.4236 13.7093 17.3623C12.4254 16.5288 10.7475 15.9075 8.62148 15.9075C3.38484 15.9075 0 19.7719 0 22.9568C0 24.1085 0.594375 24.7641 2.16164 24.7641ZM8.63109 14.1272C10.8509 14.1272 12.7451 12.1395 12.7451 9.59229C12.7451 7.0833 10.837 5.17362 8.63109 5.17362C6.41766 5.17362 4.49789 7.12174 4.50961 9.61151C4.51383 12.1395 6.40383 14.1272 8.63109 14.1272Z" fill="black"/>
<path d="M30.9937 13.7149C31.4871 14.0351 32.1391 13.9277 32.4977 13.4138C33.4401 12.1563 34.0003 10.3681 34.0003 8.516C34.0003 6.66397 33.4401 4.8853 32.4977 3.61405C32.1391 3.10429 31.4871 2.99484 30.9937 3.3171C30.4322 3.69163 30.3185 4.38092 30.7758 5.03646C31.4238 5.95709 31.7916 7.20935 31.7916 8.516C31.7916 9.82264 31.4142 11.0632 30.7758 11.9956C30.3281 12.6586 30.4322 13.3308 30.9937 13.7149Z" fill="black"/>
<path d="M35.6769 16.8473C36.2033 17.1825 36.852 17.0538 37.2148 16.522C38.7423 14.3667 39.6254 11.4823 39.6254 8.51603C39.6254 5.54978 38.7519 2.64611 37.2148 0.507911C36.852 -0.0217732 36.2033 -0.150444 35.6769 0.184711C35.1231 0.532521 35.0443 1.2183 35.4516 1.82532C36.6995 3.64478 37.4188 6.04103 37.4188 8.51603C37.4188 10.991 36.6802 13.3756 35.4516 15.2046C35.0539 15.8138 35.1231 16.4995 35.6769 16.8473Z" fill="black"/>
</svg>
