<svg width="31" height="28" viewBox="0 0 31 28" fill="none" xmlns="http://www.w3.org/2000/svg">
<path d="M15.2168 20.2004C15.8951 20.2004 16.4498 19.6477 16.4498 18.9673V13.0095C16.4498 12.7156 16.3401 12.4388 16.1069 12.1726L13.024 8.73382C12.8576 8.54398 12.9738 8.26343 13.2309 8.26343H17.0053C17.4349 8.26343 17.5587 8.55359 17.5587 8.86367V11.8112C17.5587 12.4894 18.1155 13.0367 18.7938 13.0367H23.5692C24.2454 13.0367 24.7905 12.4894 24.7905 11.8112C24.7905 11.135 24.2454 10.5781 23.5692 10.5781H20.0269V6.43601C20.0269 5.08133 18.9522 4.00461 17.5955 4.00461H11.7825C10.5534 4.00461 9.47132 4.75015 8.9878 5.86953C8.51812 7.01445 8.78436 8.29249 9.65132 9.16906L13.9837 13.527V18.9673C13.9837 19.6477 14.5385 20.2004 15.2168 20.2004ZM6.50671 24.9905C10.1175 24.9905 13.0209 22.0871 13.0209 18.4742C13.0209 14.8688 10.1175 11.9558 6.50671 11.9558C2.90343 11.9558 0 14.8688 0 18.4742C0 22.0871 2.90343 24.9905 6.50671 24.9905ZM6.50671 23.1737C3.91898 23.1737 1.81687 21.0694 1.81687 18.4742C1.81687 15.8769 3.91898 13.7748 6.50671 13.7748C9.10406 13.7748 11.2062 15.8769 11.2062 18.4742C11.2062 21.0694 9.10406 23.1737 6.50671 23.1737ZM27.0452 14.9872C27.9923 15.8405 28.6071 17.0818 28.6071 18.4742C28.6071 21.0694 26.5029 23.1737 23.9172 23.1737C21.3199 23.1737 19.2178 21.0694 19.2178 18.4742C19.2178 17.8158 19.3446 17.1819 19.5907 16.6194C19.8855 15.9338 19.578 15.4421 19.1341 15.2867C18.7158 15.1259 18.2102 15.2654 17.9761 15.8157C17.6065 16.6391 17.403 17.5315 17.403 18.4742C17.403 22.0871 20.3065 24.9905 23.9172 24.9905C27.5205 24.9905 30.424 22.0871 30.424 18.4742C30.424 16.5123 29.5708 14.7805 28.1958 13.5758C27.7221 13.167 27.1772 13.2734 26.861 13.6151C26.5544 13.959 26.4991 14.5039 27.0452 14.9872ZM23.8012 7.26453C25.2476 7.26453 26.4201 6.08445 26.4201 4.62851C26.4201 3.18219 25.2476 2 23.8012 2C22.3357 2 21.1556 3.18219 21.1556 4.62851C21.1556 6.08445 22.3357 7.26453 23.8012 7.26453Z" fill="black"/>
</svg>
