<svg width="33" height="28" viewBox="0 0 33 28" fill="none" xmlns="http://www.w3.org/2000/svg">
<path d="M4.55343 25.7352L9.21375 24.8314C11.8158 24.3287 12.9701 22.9039 12.9701 20.1516V6.13015C12.9701 3.64226 11.2385 2 8.65899 2C6.43665 2 4.59141 3.49484 4.00782 5.82617L0.185864 21.1192C-0.62015 24.3221 1.26117 26.3666 4.55343 25.7352ZM28.0418 25.7352C31.334 26.3666 33.2175 24.3221 32.4115 21.1192L28.5874 5.82617C27.9963 3.49484 26.1607 2 23.9362 2C21.3588 2 19.6176 3.64226 19.6176 6.13015V20.1516C19.6176 22.9039 20.7794 24.3287 23.3719 24.8314L28.0418 25.7352Z" fill="black"/>
<path d="M6.0075 20.1973C5.41407 20.326 4.78337 19.9166 4.66103 19.3189C4.54829 18.718 4.95141 18.1128 5.53735 17.998L8.79846 17.296L6.09563 14.8759C5.64048 14.4781 5.58939 13.7389 6.00845 13.2742C6.40829 12.8232 7.15922 12.801 7.60054 13.1987L11.5116 16.7281L12.9678 16.4167V18.7245L6.0075 20.1973ZM19.6174 18.7245V16.4167L21.0715 16.7281L24.975 13.1987C25.4143 12.801 26.1673 12.8232 26.5746 13.2742C26.9958 13.7389 26.9447 14.4781 26.4896 14.8759L23.7771 17.296L27.0382 17.998C27.6338 18.1128 28.0369 18.718 27.9124 19.3189C27.7997 19.9166 27.1711 20.326 26.5756 20.1973L19.6174 18.7245Z" fill="white"/>
<path d="M19.6177 16.4167V18.7245L16.2988 18.0109L12.9702 18.7245V16.4167L15.1618 15.9423V3.46412C15.1618 2.84514 15.6798 2.32718 16.2988 2.32718C16.9177 2.32718 17.424 2.84514 17.424 3.46412V15.9423L19.6177 16.4167Z" fill="black"/>
</svg>
