<svg width="29" height="28" viewBox="0 0 29 28" fill="none" xmlns="http://www.w3.org/2000/svg">
<path d="M14.7082 11.2437C16.1641 11.2437 17.3442 10.0711 17.3442 8.61516C17.3442 7.15922 16.1641 5.97914 14.7082 5.97914C13.2523 5.97914 12.0797 7.15922 12.0797 8.61516C12.0797 10.0711 13.2523 11.2437 14.7082 11.2437ZM9.00984 16.9591C11.6508 17.2725 12.1268 18.8318 14.0552 18.8318C14.1424 18.8318 14.2083 18.8234 14.2933 18.8011L15.4523 15.5616C15.5728 15.214 15.7837 15.0712 16.1505 15.0712H26.6803C27.3958 15.0712 27.9996 14.4717 27.9996 13.7444C27.9996 13.0427 27.3958 12.439 26.6803 12.439H6.87843L5.2432 7.09547C5.03132 6.38625 4.30828 5.99016 3.63 6.19992C2.94211 6.4193 2.55984 7.16039 2.75789 7.81523L4.605 13.984C4.78711 14.5793 5.24929 15.0712 5.89453 15.0712H9.26507C9.49007 15.0712 9.63515 15.2494 9.55734 15.4765L9.00984 16.9591ZM7.67132 6.80507C8.71499 6.80507 9.56905 5.95523 9.56905 4.90734C9.56905 3.86156 8.71499 3 7.67132 3C6.62554 3 5.77359 3.86156 5.77359 4.90734C5.77359 5.95523 6.62554 6.80507 7.67132 6.80507ZM0.727966 22.069H1.95375C5.15648 22.069 5.85866 20.1344 8.00554 20.1344C10.0765 20.1344 10.8504 22.069 14.0552 22.069C17.2718 22.069 18.0361 20.1344 20.1166 20.1344C22.2614 20.1344 22.9561 22.069 26.1684 22.069H27.3942C27.7976 22.069 28.1222 21.754 28.1222 21.3527C28.1222 20.9494 27.7976 20.6248 27.3942 20.6248H26.1684C23.9416 20.6248 23.1905 18.6902 20.1166 18.6902C17.107 18.6902 16.282 20.6248 14.0552 20.6248C11.8305 20.6248 11.0152 18.6902 8.00554 18.6902C4.93172 18.6902 4.17843 20.6248 1.95375 20.6248H0.727966C0.314999 20.6248 0 20.9494 0 21.3527C0 21.754 0.314999 22.069 0.727966 22.069ZM0.998905 25.4681C1.4025 25.4681 1.72406 25.1465 1.72406 24.7429C1.72406 24.3469 1.4025 24.0253 0.998905 24.0253C0.602812 24.0253 0.28125 24.3469 0.28125 24.7429C0.28125 25.1465 0.602812 25.4681 0.998905 25.4681ZM3.23367 25.0676C3.62765 25.0676 3.94921 24.746 3.94921 24.3499C3.94921 23.9442 3.62765 23.6247 3.23367 23.6247C2.82797 23.6247 2.5064 23.9442 2.5064 24.3499C2.5064 24.746 2.82797 25.0676 3.23367 25.0676ZM5.30554 24.0844C5.71125 24.0844 6.03281 23.7724 6.03281 23.3667C6.03281 22.9631 5.71125 22.6512 5.30554 22.6512C4.91156 22.6512 4.59 22.9631 4.59 23.3667C4.59 23.7724 4.91156 24.0844 5.30554 24.0844ZM7.54148 23.535C7.94507 23.535 8.26663 23.2134 8.26663 22.8077C8.26663 22.4137 7.94507 22.0922 7.54148 22.0922C7.14539 22.0922 6.82383 22.4137 6.82383 22.8077C6.82383 23.2134 7.14539 23.535 7.54148 23.535ZM9.7732 24.0844C10.1789 24.0844 10.4909 23.7724 10.4909 23.3667C10.4909 22.9631 10.1789 22.6512 9.7732 22.6512C9.3675 22.6512 9.05765 22.9631 9.05765 23.3667C9.05765 23.7724 9.3675 24.0844 9.7732 24.0844ZM11.8664 25.0676C12.27 25.0676 12.5916 24.746 12.5916 24.3499C12.5916 23.9442 12.27 23.6247 11.8664 23.6247C11.4703 23.6247 11.1487 23.9442 11.1487 24.3499C11.1487 24.746 11.4703 25.0676 11.8664 25.0676ZM14.0766 25.4681C14.4705 25.4681 14.7921 25.1465 14.7921 24.7429C14.7921 24.3469 14.4705 24.0253 14.0766 24.0253C13.6709 24.0253 13.3493 24.3469 13.3493 24.7429C13.3493 25.1465 13.6709 25.4681 14.0766 25.4681ZM16.275 25.0676C16.6807 25.0676 16.9926 24.746 16.9926 24.3499C16.9926 23.9442 16.6807 23.6247 16.275 23.6247C15.8714 23.6247 15.5594 23.9442 15.5594 24.3499C15.5594 24.746 15.8714 25.0676 16.275 25.0676ZM18.3682 24.0844C18.7739 24.0844 19.0933 23.7724 19.0933 23.3667C19.0933 22.9631 18.7739 22.6512 18.3682 22.6512C17.9721 22.6512 17.6505 22.9631 17.6505 23.3667C17.6505 23.7724 17.9721 24.0844 18.3682 24.0844ZM20.5999 23.535C21.0056 23.535 21.3176 23.2134 21.3176 22.8077C21.3176 22.4137 21.0056 22.0922 20.5999 22.0922C20.1963 22.0922 19.8844 22.4137 19.8844 22.8077C19.8844 23.2134 20.1963 23.535 20.5999 23.535ZM22.8358 24.0844C23.2394 24.0844 23.5514 23.7724 23.5514 23.3667C23.5514 22.9631 23.2394 22.6512 22.8358 22.6512C22.4301 22.6512 22.1182 22.9631 22.1182 23.3667C22.1182 23.7724 22.4301 24.0844 22.8358 24.0844ZM24.9173 25.0676C25.323 25.0676 25.635 24.746 25.635 24.3499C25.635 23.9442 25.323 23.6247 24.9173 23.6247C24.5137 23.6247 24.2018 23.9442 24.2018 24.3499C24.2018 24.746 24.5137 25.0676 24.9173 25.0676ZM27.1329 25.4681C27.5386 25.4681 27.8601 25.1465 27.8601 24.7429C27.8601 24.3469 27.5386 24.0253 27.1329 24.0253C26.7389 24.0253 26.4173 24.3469 26.4173 24.7429C26.4173 25.1465 26.7389 25.4681 27.1329 25.4681Z" fill="black"/>
</svg>
