<svg width="28" height="28" viewBox="0 0 28 28" fill="none" xmlns="http://www.w3.org/2000/svg">
<path d="M2.35622 17.1802L11.7598 26.5838C13.5532 28.3772 15.3886 28.3869 17.1703 26.6147L26.6145 17.161C28.3887 15.3868 28.377 13.5439 26.5857 11.7505L17.1896 2.35437C15.3982 0.563039 13.5629 0.54382 11.7811 2.32554L2.32528 11.7697C0.543563 13.5535 0.56278 15.3868 2.35622 17.1802Z" fill="black"/>
<path d="M17.2712 21.7367C16.9548 21.7367 16.7162 21.5823 16.5713 21.2659L15.0601 18.2356C14.9759 18.0844 14.9302 17.9994 14.7992 17.8428L13.4096 16.1068C13.0175 15.6113 12.6383 15.0455 12.699 14.2475L12.8162 12.6936C12.8375 12.4601 12.6104 12.3322 12.4292 12.4953L11.7219 13.1016L11.5812 14.8419C11.5461 15.3148 11.2669 15.5672 10.8643 15.5438C10.4382 15.5087 10.1837 15.2094 10.2188 14.7502L10.3594 13.1455C10.4063 12.6863 10.5151 12.3933 10.8687 12.064L12.0223 10.9899C12.7552 10.3078 13.418 9.92019 14.1596 9.92019C15.2272 9.92019 15.8621 10.6585 15.7822 11.7633L15.6554 13.6646C15.6085 14.3668 15.4677 14.8325 15.2344 15.5689L15.1545 15.8023L16.0051 17.0056C16.1466 17.1929 16.2884 17.4113 16.4237 17.7181L17.8421 20.5501C17.9401 20.7439 17.9827 20.8962 17.9827 21.0645C17.9827 21.4512 17.6738 21.7367 17.2712 21.7367ZM10.7347 21.7463C10.3479 21.7463 10.0913 21.4705 10.0913 21.0837C10.0913 20.8217 10.2265 20.6375 10.3981 20.4371L12.4262 18.073L12.7576 16.4905L13.9027 17.9445L13.8024 18.3776C13.7501 18.6153 13.7279 18.6385 13.4839 18.9326L11.2876 21.4981C11.1427 21.6622 10.9498 21.7463 10.7347 21.7463ZM17.6823 14.068C17.2763 14.068 17.075 13.9976 16.8523 13.7654L16.4023 13.3175L16.5216 11.5536L17.566 12.713H19.3798C19.8486 12.713 20.1458 12.9751 20.1458 13.3894C20.1458 13.8059 19.8603 14.068 19.3798 14.068H17.6823ZM15.0802 9.22643C14.2524 9.22643 13.5673 8.53175 13.5673 7.70393C13.5673 6.85057 14.2407 6.16339 15.0802 6.16339C15.9336 6.16339 16.6187 6.85057 16.6187 7.70393C16.6187 8.52214 15.9123 9.22643 15.0802 9.22643Z" fill="white"/>
</svg>
