<svg width="28" height="29" viewBox="0 0 28 29" fill="none" xmlns="http://www.w3.org/2000/svg">
<path d="M19.4418 26.6299C24.3557 24.8432 26.3721 20.4679 24.4232 15.1092L23.4738 12.4791C22.5227 9.86859 20.6817 8.77499 18.5381 9.50039C17.9472 8.78343 17.0486 8.54788 16.0966 8.89077C15.7779 9.00913 15.4996 9.17226 15.2353 9.36632C14.5912 8.59078 13.6486 8.31796 12.6686 8.66624C12.4509 8.74523 12.2428 8.86476 12.0443 9.0014L10.8307 5.67842C10.2846 4.16788 8.92524 3.52499 7.50634 4.03804C6.05135 4.56702 5.41268 5.93483 5.95877 7.44537L9.13831 16.1878C9.16385 16.2506 9.15214 16.2996 9.09565 16.3209C9.06049 16.3423 9.01995 16.3209 8.98268 16.2879L7.83095 15.0368C7.13439 14.3587 6.29932 14.1614 5.49307 14.4511C4.30221 14.8917 3.58971 16.0272 4.07088 17.3355C4.19112 17.7091 4.43815 18.1425 4.72666 18.495L8.70096 23.2875C11.7619 26.9641 15.4014 28.1048 19.4418 26.6299ZM18.8156 24.7425C15.7073 25.8801 12.8552 25.2426 10.1576 22.0554L6.15376 17.3327C6.04712 17.2069 5.97353 17.0927 5.91165 16.9167C5.7879 16.5839 5.93087 16.1988 6.33189 16.0516C6.65837 15.9375 6.92931 16.0591 7.18642 16.3354L9.98111 19.1404C10.4433 19.6134 10.886 19.6624 11.3098 19.5112C11.8195 19.3282 12.0618 18.7811 11.8545 18.1929L7.66688 6.69444C7.51219 6.27631 7.69782 5.8774 8.10634 5.73232C8.50525 5.58513 8.89876 5.78248 9.04384 6.2006L11.9876 14.2882C12.1493 14.7297 12.644 14.9372 13.0877 14.7776C13.5196 14.6158 13.758 14.1403 13.5963 13.7083L12.5531 10.8302C12.6949 10.6969 12.9082 10.5635 13.1001 10.4899C13.5834 10.3139 13.9982 10.5304 14.1839 11.0372L15.1361 13.6437C15.2957 14.0927 15.7938 14.2788 16.2236 14.1192C16.6343 13.9692 16.8897 13.5192 16.7205 13.0605L15.9958 11.0463C16.1397 10.9151 16.3413 10.7817 16.5428 10.706C17.0261 10.5321 17.441 10.7487 17.6266 11.2533L18.254 12.9811C18.4254 13.444 18.9222 13.6343 19.3563 13.4726C19.7786 13.3226 20.0266 12.8545 19.8649 12.4012L19.4606 11.2833C20.3489 10.9612 21.165 11.6505 21.7303 13.2164L22.5909 15.5641C24.1837 19.9558 22.7369 23.3182 18.8156 24.7425Z" fill="black"/>
<path d="M8.25381 0C4.80429 0 2 2.79796 2 6.24537C2 7.65467 2.49219 9.04287 3.29656 10.0844C3.52953 10.3917 3.81875 10.5108 4.09414 10.5108C4.78858 10.5108 5.33983 9.72139 4.79702 9.02998C4.19163 8.27576 3.82624 7.29584 3.82624 6.24537C3.82624 3.80202 5.80835 1.82835 8.2517 1.82835C10.6086 1.82835 12.5368 3.6839 12.638 6.04077C12.6422 6.10687 12.6444 6.17718 12.6465 6.2721C12.694 6.83319 13.0573 7.12663 13.5251 7.12663C14.0108 7.12663 14.4237 6.79288 14.4525 6.29836C14.4622 6.20578 14.4579 6.06023 14.4474 5.90367C14.285 2.59125 11.5557 0 8.25381 0Z" fill="black"/>
</svg>
