<svg width="28" height="28" viewBox="0 0 28 28" fill="none" xmlns="http://www.w3.org/2000/svg">
<path d="M6.84421 24.8972H21.0295C23.5685 24.8972 24.8737 23.5919 24.8737 21.0914V6.82921C24.8737 4.32656 23.5685 3.02344 21.0295 3.02344H6.84421C4.31484 3.02344 3 4.31695 3 6.82921V21.0914C3 23.6016 4.31484 24.8972 6.84421 24.8972Z" fill="black"/>
<path d="M13.9678 18.8977C9.34131 18.8977 6.10107 15.1179 6.10107 13.9523C6.10107 12.7793 9.31248 8.99954 13.9678 8.99954C18.6317 8.99954 21.8229 12.7793 21.8229 13.9523C21.8229 15.1179 18.6413 18.8977 13.9678 18.8977ZM13.9678 17.1551C15.7439 17.1551 17.1823 15.6912 17.1823 13.9544C17.1823 12.1591 15.7439 10.7421 13.9678 10.7421C12.1864 10.7421 10.7417 12.1591 10.7513 13.9544C10.7513 15.6912 12.1864 17.1551 13.9678 17.1551ZM13.9871 15.3534C13.2082 15.3534 12.5572 14.7023 12.5572 13.9544C12.5572 13.1969 13.2082 12.5438 13.9871 12.5438C14.7349 12.5438 15.3785 13.1969 15.3785 13.9544C15.3785 14.7023 14.7349 15.3534 13.9871 15.3534Z" fill="white"/>
</svg>
