<svg width="28" height="28" viewBox="0 0 28 28" fill="none" xmlns="http://www.w3.org/2000/svg">
<path d="M22.6314 22.9743C25.6864 19.9171 26.1847 16.142 24.1091 11.7651L21.4471 6.15134C21.2469 5.73509 21.0074 5.39548 20.7402 5.1304C19.8001 4.18822 18.4152 4.20767 17.4871 5.13579C16.8981 5.72267 16.6928 6.60556 17.0551 7.52501L17.7074 9.08994C17.7287 9.13471 17.7287 9.17737 17.6978 9.21041C17.653 9.24557 17.6062 9.23174 17.5656 9.2008L11.1784 2.8115C10.1415 1.76713 8.7899 1.77345 7.77342 2.78993C7.45467 3.09696 7.27139 3.49681 7.23436 3.91048C6.23545 3.22915 5.14373 3.30743 4.29389 4.15516C3.4642 4.98274 3.39014 6.10962 4.0246 7.08719C3.63647 7.10829 3.27178 7.28946 2.98819 7.57305C2.04624 8.51711 2.05913 9.81343 3.03225 10.7887L3.81882 11.5731C3.4103 11.5846 3.0039 11.7766 2.68819 12.0944C1.73663 13.0459 1.77718 14.4114 2.77679 15.4089L10.0241 22.6583C14.0254 26.6575 18.9418 26.6596 22.6314 22.9743ZM21.1947 21.6302C18.2291 24.5957 14.5199 24.5146 11.2044 21.1916L4.25709 14.2422C3.93388 13.9307 3.92427 13.4966 4.22826 13.1926C4.53224 12.8887 4.97381 12.8887 5.28951 13.2023L9.56123 17.4644C9.91232 17.8155 10.4399 17.7845 10.7622 17.4623C11.1036 17.1304 11.1325 16.5953 10.7814 16.2442L4.38787 9.84109C4.07427 9.52961 4.05505 9.10515 4.35904 8.80328C4.66302 8.48757 5.1142 8.48757 5.4299 8.80328L11.391 14.774C11.7421 15.1251 12.2814 15.0845 12.6015 14.7623C12.9313 14.4304 12.9718 13.8932 12.6229 13.5442L5.60732 6.53079C5.29372 6.21508 5.2745 5.77563 5.5881 5.46953C5.88248 5.16765 6.33365 5.17726 6.64725 5.48875L13.5679 12.4094C13.8997 12.7509 14.4369 12.737 14.7688 12.4073C15.1103 12.0658 15.1295 11.519 14.7976 11.1871L8.91974 5.30922C8.60614 4.99774 8.59653 4.56789 8.89841 4.25219C9.212 3.9482 9.64607 3.9557 9.95966 4.27141L18.2129 12.5205C18.6822 13.0014 19.2608 12.9623 19.6429 12.576C19.9675 12.2493 20.1154 11.7972 19.8704 11.1625L18.3972 7.30399C18.2169 6.82516 18.3939 6.44547 18.748 6.27906C19.1469 6.10515 19.5095 6.28656 19.7378 6.77617L22.4481 12.5627C24.2434 16.4064 23.5876 19.2276 21.1947 21.6302Z" fill="black"/>
</svg>
