<svg width="28" height="28" viewBox="0 0 28 28" fill="none" xmlns="http://www.w3.org/2000/svg">
<path d="M16.4597 6.25492C17.9157 6.25492 19.0882 5.08234 19.0882 3.6264C19.0882 2.17047 17.9157 1 16.4597 1C15.0038 1 13.8333 2.17047 13.8333 3.6264C13.8333 5.08234 15.0038 6.25492 16.4597 6.25492ZM12.3654 16.5916L16.8537 19.1132L13.9676 21.5912C13.3339 22.127 13.3224 22.8543 13.7269 23.3078C14.1432 23.773 14.8662 23.8595 15.5276 23.2982L19.6191 19.8107C20.1973 19.3166 20.1068 18.2666 19.4114 17.8141L14.9874 14.9144L15.8567 11.8708C15.9675 11.4646 16.4356 11.4081 16.6786 11.7641L17.9846 13.6762C18.3019 14.1308 18.8843 14.3087 19.4051 14.068L23.1664 12.3946C23.85 12.0869 24.1088 11.481 23.8128 10.8559C23.5093 10.2468 22.9172 10.0605 22.2336 10.364L19.2858 11.6669L17.2521 8.85976C16.1721 7.37078 14.828 6.7689 12.6422 6.93296L8.47621 7.22804C7.79676 7.27703 7.32825 7.72 7.23028 8.42499L6.67106 12.6475C6.56348 13.4057 6.94575 13.937 7.62614 14.0116C8.30981 14.0723 8.75277 13.6783 8.85285 12.9201L9.35676 9.50148L10.9964 9.38429C11.3471 9.35335 11.6808 9.5964 11.5603 10.0239L10.591 13.4155C10.0116 15.4551 11.3428 16.011 12.3654 16.5916ZM4.42223 26.8305C4.88746 27.2254 5.58918 27.2533 6.19738 26.6664L10.0385 22.8604C10.3676 22.5334 10.44 22.4547 10.6393 21.954L12.2182 17.867L11.783 17.6287C10.8797 17.1398 10.2418 16.637 9.80723 16.1012L8.42114 21.0074L4.44145 24.9712C3.80559 25.5932 3.90801 26.3833 4.42223 26.8305Z" fill="black"/>
</svg>
