<svg width="36" height="28" viewBox="0 0 36 28" fill="none" xmlns="http://www.w3.org/2000/svg">
<path d="M17.6988 16.1399C19.6767 16.1399 21.3663 14.3802 21.3663 12.1154C21.3663 9.89309 19.6553 8.18262 17.6988 8.18262C15.7113 8.18262 14.0175 9.92191 14.0313 12.1346C14.0334 14.3802 15.7092 16.1399 17.6988 16.1399ZM11.823 24.3405H23.5532C24.5946 24.3405 25.2515 23.8401 25.2515 22.9937C25.2515 20.65 22.319 17.4848 17.6988 17.4848C13.0593 17.4848 10.1343 20.65 10.1343 22.9937C10.1343 23.8401 10.7721 24.3405 11.823 24.3405Z" fill="black"/>
<path d="M6.56259 24.1204C7.17735 24.1204 7.7082 23.6301 7.7082 23.0153C7.7082 19.1971 9.60547 15.7508 12.6163 13.8172C12.3571 12.9897 12.3081 12.1604 12.4832 11.3148C8.2365 13.4216 5.4458 17.9793 5.4458 23.0153C5.4458 23.6301 5.93611 24.1204 6.56259 24.1204ZM28.8034 24.1204C29.4203 24.1204 29.9298 23.6301 29.9298 23.0153C29.9298 17.9889 27.1583 13.4601 22.9309 11.334C23.0772 12.1593 23.0282 13.0164 22.7786 13.8364C25.7701 15.7701 27.6674 19.2088 27.6674 23.0153C27.6674 23.6301 28.1886 24.1204 28.8034 24.1204Z" fill="black"/>
<path d="M1.1264 24.1246C1.74116 24.1246 2.23897 23.6322 2.23897 23.0057C2.23897 13.7652 9.16007 6.24108 17.6794 6.24108C26.1891 6.24108 33.1273 13.7652 33.1273 23.0057C33.1273 23.6322 33.6176 24.1246 34.2302 24.1246C34.8567 24.1246 35.3662 23.6322 35.3662 23.0057C35.3662 12.542 27.4165 4 17.6794 4C7.93265 4 0 12.542 0 23.0057C0 23.6322 0.502028 24.1246 1.1264 24.1246Z" fill="black"/>
</svg>
