<svg width="28" height="28" viewBox="0 0 28 28" fill="none" xmlns="http://www.w3.org/2000/svg">
<path d="M14.105 26.21C20.7369 26.21 26.2121 20.7273 26.2121 14.105C26.2121 7.47312 20.7273 2 14.0954 2C7.47523 2 2 7.47312 2 14.105C2 20.7273 7.48484 26.21 14.105 26.21ZM14.105 23.8255C8.71085 23.8255 4.39412 19.4991 4.39412 14.105C4.39412 8.71085 8.70124 4.38452 14.0954 4.38452C19.4895 4.38452 23.8276 8.71085 23.8276 14.105C23.8276 19.4991 19.4991 23.8255 14.105 23.8255ZM21.9181 21.8361L21.8766 21.6418C21.14 19.9212 18.196 18.1442 14.105 18.1442C10.0257 18.1442 7.07959 19.9212 6.33545 21.6322L6.29397 21.8361C8.49826 23.8651 11.8683 24.9826 14.105 24.9826C16.3534 24.9826 19.6946 23.8747 21.9181 21.8361ZM14.105 16.2132C16.3794 16.2324 18.1414 14.2979 18.1414 11.7847C18.1414 9.4196 16.3655 7.4478 14.105 7.4478C11.8466 7.4478 10.059 9.4196 10.0707 11.7847C10.0803 14.2979 11.8423 16.194 14.105 16.2132Z" fill="black"/>
</svg>
