<svg width="28" height="28" viewBox="0 0 28 28" fill="none" xmlns="http://www.w3.org/2000/svg">
<path d="M1 15.538C1 20.9978 4.41578 24.0948 10.2517 24.0948H12.6662C14.8605 24.0948 16.2585 23.0287 16.2585 21.783C16.2585 21.4872 16.0905 21.3074 15.7926 21.3074H14.7475C14.2827 21.3074 14.0568 21.0728 14.0568 20.7967C14.0568 20.5014 14.2785 20.2647 14.7475 20.2647H15.4389C16.7488 20.2647 17.6273 19.4223 17.6273 18.268C17.6273 17.7358 17.3964 17.4815 16.9323 17.4815H15.5059C15.0273 17.4815 14.7939 17.249 14.7939 16.9729C14.7939 16.6637 15.0252 16.4387 15.5059 16.4387H16.8269C18.2786 16.4387 19.0131 15.5802 19.0131 14.4538C19.0131 13.9333 18.7726 13.6673 18.3128 13.6673H15.5059C15.0294 13.6673 14.7939 13.4305 14.7939 13.1587C14.7939 12.8516 15.0273 12.6266 15.5059 12.6266H24.8319C25.7882 12.6266 26.428 11.9973 26.428 11.1733C26.428 10.3023 25.7903 9.69226 24.8319 9.69226H11.2574C10.9504 9.69226 10.7776 9.50453 10.7776 9.29874C10.7776 9.1164 10.8939 8.95538 11.1979 8.82952L15.4087 7.04476C16.0668 6.76468 16.4038 6.3271 16.4038 5.69617C16.4038 4.79336 15.8033 4.18984 15.018 4.18984C14.7166 4.18984 14.4749 4.24633 14.263 4.33258L8.17492 6.38898C3.10984 8.12406 1 11.4562 1 15.538Z" fill="black"/>
</svg>
