<svg width="28" height="28" viewBox="0 0 28 28" fill="none" xmlns="http://www.w3.org/2000/svg">
<path d="M22.5753 10.2645C24.0312 10.2645 25.2017 9.09195 25.2017 7.63601C25.2017 6.18008 24.0312 5 22.5753 5C21.1193 5 19.9372 6.18008 19.9372 7.63601C19.9372 9.09195 21.1193 10.2645 22.5753 10.2645ZM1.65216 22.5537L8.67778 20.8015V22.3723C8.67778 23.0602 9.24638 23.6171 9.92676 23.6171C10.6147 23.6171 11.1832 23.0602 11.1832 22.3723V20.3405L16.1998 19.5905C17.1425 19.4574 18.068 19.0388 18.8403 18.4562L23.1825 15.2016C23.3445 15.0823 23.5725 15.1058 23.6567 15.3029L24.9172 17.8578V22.3723C24.9172 23.0996 25.441 23.6171 26.1779 23.6171C26.9126 23.6171 27.4226 23.0996 27.4226 22.3723V17.5639C27.4226 17.3658 27.3811 17.1561 27.2853 16.9836L25.2155 12.8494C24.7927 12.0059 23.9663 11.4851 23.0269 11.4851H21.9596C20.9189 11.4851 19.8879 11.8334 19.0507 12.4651L15.6333 15.0111L10.6095 14.0065C9.53067 13.7893 8.67778 14.2695 8.67778 15.4175V18.2098L1.04631 20.1483C0.23701 20.3464 -0.0707237 20.9736 0.0134168 21.5539C0.127323 22.2024 0.726853 22.7869 1.65216 22.5537ZM11.1832 17.6462V16.7881L12.7657 17.2541L11.1832 17.6462ZM16.5954 23.6171H21.6507C22.673 23.6171 23.5015 22.7907 23.5015 21.7566C23.5015 20.7439 22.673 19.9058 21.6507 19.9058H16.5954C15.5635 19.9058 14.7446 20.7439 14.7446 21.7566C14.7446 22.7907 15.5635 23.6171 16.5954 23.6171ZM21.6507 22.6721C21.1519 22.6721 20.7448 22.2554 20.7448 21.7449C20.7448 21.2537 21.1519 20.8508 21.6507 20.8508C22.1632 20.8508 22.5586 21.2537 22.5586 21.7449C22.5586 22.2554 22.1632 22.6721 21.6507 22.6721Z" fill="black"/>
</svg>
