<svg width="48" height="28" viewBox="0 0 48 28" fill="none" xmlns="http://www.w3.org/2000/svg">
<path d="M2.99132 25.2755H17.6121C19.6291 25.2755 20.6034 24.641 20.6034 23.2655C20.6034 20.0581 16.5916 15.7516 10.3055 15.7516C4.01179 15.7516 0 20.0581 0 23.2655C0 24.641 0.974295 25.2755 2.99132 25.2755ZM2.60929 23.2507C2.33413 23.2507 2.2221 23.1666 2.2221 22.9479C2.2221 21.1526 5.12483 17.7764 10.3055 17.7764C15.4765 17.7764 18.3813 21.1526 18.3813 22.9479C18.3813 23.1666 18.2789 23.2507 18.0016 23.2507H2.60929ZM10.3055 14.2462C13.1292 14.2462 15.4334 11.745 15.4334 8.67938C15.4334 5.66157 13.1496 3.2522 10.3055 3.2522C7.48266 3.2522 5.16586 5.69251 5.17969 8.6986C5.1818 11.7546 7.47422 14.2462 10.3055 14.2462ZM10.3076 12.2215C8.67773 12.2215 7.30265 10.6758 7.30265 8.69649C7.29304 6.77133 8.66484 5.27695 10.3076 5.27695C11.9545 5.27695 13.3125 6.75 13.3125 8.67938C13.3125 10.6524 11.9416 12.2215 10.3076 12.2215Z" fill="black"/>
<path d="M23.5695 15.7516C21.6567 15.7516 19.9594 16.162 18.5105 16.8122C19.1276 17.2877 19.6885 17.8015 20.1516 18.3609C21.1334 18.0068 22.2837 17.7764 23.5695 17.7764C28.7501 17.7764 31.6528 21.1526 31.6528 22.9479C31.6528 23.1666 31.5408 23.2507 31.2657 23.2507H22.1829C22.1881 23.9763 22.0667 24.6605 21.6453 25.2755H30.874C32.9007 25.2755 33.8749 24.641 33.8749 23.2655C33.8749 20.0581 29.8632 15.7516 23.5695 15.7516ZM23.5791 14.2462C26.4124 14.2462 28.7049 11.745 28.7049 8.67938C28.7049 5.66157 26.4211 3.2522 23.5791 3.2522C20.7563 3.2522 18.4395 5.69251 18.4512 8.6986C18.4629 11.7546 20.7457 14.2462 23.5791 14.2462ZM23.5791 12.2215C21.9567 12.2215 20.5721 10.6758 20.5721 8.69649C20.5624 6.77133 21.9342 5.27695 23.5791 5.27695C25.2239 5.27695 26.5819 6.75 26.5819 8.67938C26.5819 10.6524 25.2132 12.2215 23.5791 12.2215Z" fill="black"/>
<path d="M36.8533 15.7516C34.9406 15.7516 33.2315 16.162 31.7868 16.8218C32.4114 17.2877 32.9627 17.8015 33.4237 18.3801C34.4076 18.0068 35.5675 17.7764 36.8533 17.7764C42.0361 17.7764 44.9388 21.1526 44.9388 22.9479C44.9388 23.1666 44.8268 23.2507 44.5495 23.2507H35.4571C35.4623 23.9763 35.3388 24.6605 34.9099 25.2755H44.16C46.1866 25.2755 47.1609 24.641 47.1609 23.2655C47.1609 20.0581 43.1491 15.7516 36.8533 15.7516ZM36.8533 14.2462C39.6867 14.2462 41.9812 11.745 41.9812 8.67938C41.9812 5.66157 39.6975 3.2522 36.8533 3.2522C34.0401 3.2522 31.7254 5.69251 31.7275 8.6986C31.7393 11.7546 34.0317 14.2462 36.8533 14.2462ZM36.8575 12.2215C35.2352 12.2215 33.8505 10.6758 33.8505 8.69649C33.8505 6.77133 35.2223 5.27695 36.8575 5.27695C38.5024 5.27695 39.8603 6.75 39.8603 8.67938C39.8603 10.6524 38.4991 12.2215 36.8575 12.2215Z" fill="black"/>
</svg>
