<svg width="28" height="28" viewBox="0 0 28 28" fill="none" xmlns="http://www.w3.org/2000/svg">
<path d="M14.105 26.21C20.7369 26.21 26.2121 20.7273 26.2121 14.105C26.2121 7.47312 20.7273 2 14.0954 2C7.47523 2 2 7.47312 2 14.105C2 20.7273 7.48484 26.21 14.105 26.21ZM14.105 23.8255C8.71085 23.8255 4.39412 19.4991 4.39412 14.105C4.39412 8.71085 8.70124 4.38452 14.0954 4.38452C19.4895 4.38452 23.8276 8.71085 23.8276 14.105C23.8276 19.4991 19.4991 23.8255 14.105 23.8255Z" fill="black"/>
<path d="M16.6676 18.7969L15.0847 17.2215C14.7774 17.341 14.453 17.4083 14.0956 17.4083C12.2649 17.4083 10.786 15.9027 10.786 14.1146C10.786 13.7593 10.8457 13.4115 10.9653 13.1138L8.68599 10.8174C7.01044 11.9991 6.0127 13.456 6.0127 14.1125C6.0127 15.3123 9.34598 19.1926 14.0956 19.1926C15.008 19.1926 15.8736 19.0433 16.6676 18.7969ZM13.7407 15.8797L12.3155 14.4523C12.3132 15.1911 12.9561 15.8703 13.7407 15.8797ZM17.2184 15.0941L19.5169 17.4022C21.185 16.2205 22.171 14.7615 22.171 14.1125C22.171 12.9052 18.8963 9.02492 14.0956 9.02492C13.1832 9.02492 12.3368 9.17422 11.5449 9.42055L13.1107 10.9864C13.4159 10.8765 13.7499 10.8092 14.0956 10.8092C15.923 10.8092 17.4052 12.268 17.4052 14.1146C17.4052 14.4528 17.3379 14.7889 17.2184 15.0941ZM14.4525 12.3324L15.8586 13.7384C15.8417 13.0093 15.2297 12.3493 14.4525 12.3324ZM19.3894 20.2227C19.6097 20.4409 19.9929 20.4451 20.2132 20.2227C20.4453 19.9927 20.4453 19.6288 20.2132 19.3988L8.78676 7.97023C8.55473 7.74031 8.18863 7.74031 7.9491 7.97023C7.72879 8.20015 7.72879 8.57375 7.9491 8.79617L19.3894 20.2227Z" fill="black"/>
</svg>
