<svg width="30" height="28" viewBox="0 0 30 28" fill="none" xmlns="http://www.w3.org/2000/svg">
<path d="M15.1402 17.8244C10.6411 18.0487 7.3739 21.1169 7.3739 23.7426C7.3739 24.5964 8.02874 25.1085 9.11483 25.1085H22.0008C22.1362 25.1085 22.2642 25.0989 22.3859 25.0797L15.1402 17.8244ZM1.68422 20.3158H4.10414C5.20476 20.3158 5.78836 19.7439 5.78836 18.6571V16.1765C5.78836 15.0972 5.20476 14.5253 4.10414 14.5253H1.68422C0.583593 14.5253 0 15.0876 0 16.1765V18.6571C0 19.7439 0.583593 20.3158 1.68422 20.3158ZM3.17203 5.84661V10.0919C3.17203 11.1808 3.75562 11.7409 4.85625 11.7409H9.06844L3.17203 5.84661ZM24.0832 18.0491H27.6098C28.7201 18.0491 29.3037 17.4794 29.3037 16.4001V9.46255C29.3037 8.38325 28.7201 7.81349 27.6098 7.81349H24.0832C22.9847 7.81349 22.4011 8.38325 22.4011 9.46255V16.4001C22.4011 17.4794 22.9847 18.0491 24.0832 18.0491ZM11.6119 7.63748C12.5395 6.66693 13.7911 6.0074 15.1887 5.91576V4.30373C15.1887 3.22443 14.6051 2.65466 13.4948 2.65466H6.61734L11.6119 7.63748ZM18.5362 14.5598C19.1149 13.8311 19.4634 12.8594 19.4634 11.7981C19.4634 9.4213 17.6662 7.60747 15.5637 7.60747C14.5078 7.60747 13.5319 8.09029 12.8287 8.85013L18.5362 14.5598Z" fill="black"/>
<path d="M25.8384 26.5166C26.2005 26.8808 26.7958 26.8787 27.158 26.5145C27.5083 26.1407 27.5201 25.5688 27.158 25.195L3.55807 1.57793C3.18424 1.2041 2.59854 1.21371 2.22471 1.57793C1.87432 1.93043 1.87432 2.54707 2.22471 2.89746L25.8384 26.5166Z" fill="black"/>
</svg>
