<svg width="29" height="28" viewBox="0 0 29 28" fill="none" xmlns="http://www.w3.org/2000/svg">
<path d="M2.10515 24.5753H17.6977C19.0148 24.5753 19.8007 23.9513 19.8007 22.9154C19.8007 19.9004 15.9776 15.7538 9.89555 15.7538C3.82523 15.7538 0 19.9004 0 22.9154C0 23.9513 0.787967 24.5753 2.10515 24.5753ZM9.90515 13.6731C12.4594 13.6731 14.6327 11.4019 14.6327 8.46591C14.6327 5.58403 12.453 3.39099 9.90515 3.39099C7.35727 3.39099 5.17547 5.62458 5.17969 8.48724C5.1818 11.4019 7.34344 13.6731 9.90515 13.6731Z" fill="black"/>
<path d="M22.1428 14.4192C22.5633 14.4192 22.9294 14.2106 23.1806 13.8337L28.4201 5.63674C28.568 5.39299 28.7119 5.12041 28.7119 4.84666C28.7119 4.26986 28.1925 3.87939 27.6391 3.87939C27.2881 3.87939 26.9773 4.07416 26.7293 4.47002L22.1044 11.9035L19.9244 9.12612C19.6369 8.75534 19.3622 8.63089 19.0087 8.63089C18.4416 8.63089 17.9883 9.08956 17.9883 9.67385C17.9883 9.94737 18.0959 10.2115 18.2895 10.4637L21.0623 13.8422C21.3743 14.2416 21.7181 14.4192 22.1428 14.4192Z" fill="black"/>
</svg>
