<svg width="28" height="28" viewBox="0 0 28 28" fill="none" xmlns="http://www.w3.org/2000/svg">
<path d="M3.84421 24.8781H23.9109C26.4499 24.8781 27.7552 23.5824 27.7552 21.0819V6.81004C27.7552 4.30739 26.4499 3.00427 23.9109 3.00427H3.84421C1.31484 3.00427 0 4.30739 0 6.81004V21.0819C0 23.5824 1.31484 24.8781 3.84421 24.8781ZM3.97733 22.5821C2.88772 22.5821 2.29592 22.018 2.29592 20.8794V7.01043C2.29592 5.87183 2.88772 5.30019 3.97733 5.30019H23.7778C24.8578 5.30019 25.4592 5.87183 25.4592 7.01043V20.8794C25.4592 22.018 24.8578 22.5821 23.7778 22.5821H3.97733Z" fill="black"/>
<path d="M5.52226 18.7148H11.7834C12.8927 18.7148 13.417 18.1788 13.417 17.1143V10.785C13.417 9.72047 12.8927 9.18445 11.7834 9.18445H5.52226C4.43429 9.18445 3.88867 9.71086 3.88867 10.785V17.1143C3.88867 18.1788 4.43429 18.7148 5.52226 18.7148ZM5.26281 17.5732C5.62703 16.5712 6.90273 15.6734 8.65868 15.6734C10.4125 15.6734 11.6882 16.5712 12.0524 17.5732H5.26281ZM8.65868 14.8498C7.65906 14.8498 6.87578 14.0079 6.87578 12.9049C6.87578 11.853 7.65906 11.0133 8.65868 11.0133C9.64657 11.0133 10.4298 11.853 10.4298 12.9049C10.4298 14.0079 9.64657 14.8498 8.65868 14.8498ZM19.4477 18.5965C20.1946 18.5965 20.8863 18.5262 21.3285 18.345C21.6513 18.2119 21.8367 18.0084 21.8367 17.7037C21.8367 17.4045 21.6215 17.168 21.3147 17.168C21.2017 17.168 21.1005 17.201 20.9587 17.2223C20.6135 17.2692 20.2863 17.4098 19.5787 17.4098C17.3896 17.4098 16.0488 16.1041 16.0488 13.9704C16.0488 11.8655 17.4131 10.4309 19.4104 10.4309C21.3981 10.4309 22.7315 11.6843 22.7315 13.5452C22.7315 14.64 22.3989 15.3349 21.8765 15.3349C21.5629 15.3349 21.4328 15.1994 21.4328 14.8786V12.0926C21.4328 11.7368 21.1804 11.463 20.8363 11.463C20.5828 11.463 20.3505 11.6421 20.2738 11.8702V11.947C19.9905 11.6421 19.6164 11.463 19.0961 11.463C17.8877 11.463 17.0374 12.5137 17.0374 13.9641C17.0374 15.4591 17.8856 16.4768 19.1313 16.4768C19.6706 16.4768 20.1438 16.2455 20.4752 15.8255C20.7309 16.2455 21.2041 16.4768 21.7668 16.4768C23.054 16.4768 23.9043 15.2855 23.9043 13.4749C23.9043 10.9941 22.0628 9.27726 19.4104 9.27726C16.6642 9.27726 14.7897 11.1752 14.7897 13.9566C14.7897 16.7475 16.6546 18.5965 19.4477 18.5965ZM19.3113 15.2763C18.7185 15.2763 18.3592 14.7827 18.3592 13.9406C18.3592 13.1081 18.7281 12.6284 19.323 12.6284C19.9274 12.6284 20.3006 13.1144 20.3006 13.9097C20.3006 14.7593 19.9274 15.2763 19.3113 15.2763Z" fill="black"/>
</svg>
