<svg width="28" height="28" viewBox="0 0 28 28" fill="none" xmlns="http://www.w3.org/2000/svg">
<path d="M14.5059 26.2774C16.5555 26.2774 18.3337 25.744 19.7786 24.6909L18.3738 23.2978C17.2488 23.9787 15.9396 24.3005 14.441 24.3005C10.244 24.3005 7.68111 21.6276 7.68111 16.9357V12.6286L5.81152 10.759V17.138C5.81152 22.7932 9.29151 26.2774 14.5059 26.2774ZM21.3539 19.6821L22.7554 21.0815C23.0121 20.5586 23.2645 20.0006 23.4721 19.3936L25.56 13.5337C25.7111 13.1154 25.7857 12.7108 25.7857 12.3201C25.776 11.0608 24.8798 10.0273 23.4297 10.0273C22.6289 10.0273 21.8814 10.5056 21.4788 11.4166L20.8436 12.9698C20.8202 13.0242 20.7893 13.0456 20.7445 13.0456C20.688 13.0456 20.6667 13.0125 20.6667 12.9485V3.91288C20.6667 2.44593 19.71 1.49226 18.2688 1.49226C17.8221 1.49226 17.4138 1.63523 17.092 1.90945C16.87 0.719298 16.0418 0 14.8436 0C13.6732 0 12.8236 0.740626 12.5803 1.88813C12.2958 1.62352 11.9013 1.49226 11.5089 1.49226C10.17 1.49226 9.26222 2.42578 9.26222 3.80132V4.91555C8.9669 4.62844 8.53495 4.47586 8.09127 4.47586C7.5276 4.47586 7.04502 4.69664 6.74057 5.06883L8.20025 6.53062V6.46335C8.23541 6.3096 8.33572 6.2135 8.51502 6.2135C8.94486 6.2135 9.26057 6.52921 9.26057 6.97827V7.58883L10.8902 9.22593V4.08819C10.8902 3.64874 11.1749 3.33303 11.6048 3.33303C12.0443 3.33303 12.3504 3.64874 12.3504 4.08819V10.6786L14.0875 12.4158V2.61304C14.0875 2.16397 14.3936 1.84077 14.8331 1.84077C15.2533 1.84077 15.5594 2.16397 15.5594 2.61304V12.3984C15.5594 12.8761 15.9445 13.2398 16.4243 13.2398C16.8923 13.2398 17.2966 12.8761 17.2966 12.3984V4.08819C17.2966 3.64874 17.5985 3.33303 18.0283 3.33303C18.4582 3.33303 18.7664 3.64874 18.7664 4.08819V15.764C18.7664 16.3378 19.1695 16.8143 19.7439 16.8122C20.2101 16.8079 20.625 16.593 20.905 15.9776L22.5637 12.2705C22.777 11.7724 23.1555 11.5814 23.5385 11.7169C23.9449 11.8469 24.0888 12.2651 23.9011 12.7952L21.7303 18.7875C21.6098 19.0999 21.4936 19.3985 21.3539 19.6821Z" fill="black"/>
<path d="M23.2147 26.1431C23.5651 26.4935 24.1818 26.5073 24.5343 26.1431C24.8847 25.7693 24.8985 25.1878 24.5343 24.8236L3.59615 3.89717C3.23193 3.53295 2.63662 3.53295 2.26279 3.89717C1.9124 4.25716 1.9124 4.8642 2.26279 5.21669L23.2147 26.1431Z" fill="black"/>
</svg>
