<svg width="31" height="28" viewBox="0 0 31 28" fill="none" xmlns="http://www.w3.org/2000/svg">
<path d="M10.6421 22.5287C10.6421 25.0602 11.9473 26.3655 14.4478 26.3655H26.9311C29.4434 26.3655 30.7369 25.0602 30.7369 22.5287V4.84632C30.7369 2.32445 29.4434 1 26.9311 1H14.4478C11.9473 1 10.6421 2.32445 10.6421 4.84632V22.5287ZM12.938 22.386V4.98905C12.938 3.89733 13.5096 3.29592 14.6503 3.29592H26.7403C27.8789 3.29592 28.441 3.89733 28.441 4.98905V22.386C28.441 23.4777 27.8789 24.0695 26.7403 24.0695H14.6503C13.5096 24.0695 12.938 23.4777 12.938 22.386Z" fill="black"/>
<path d="M15.5006 19.5461H25.8783C26.3892 19.5461 26.6372 19.2034 26.6372 18.7361C26.6372 17.4714 24.7585 14.2066 20.6895 14.2066C16.6205 14.2066 14.7417 17.4714 14.7417 18.7361C14.7417 19.2034 14.9993 19.5461 15.5006 19.5461ZM20.6895 13.2794C22.3442 13.289 23.6653 11.89 23.6653 10.0361C23.6653 8.29938 22.3442 6.85352 20.6895 6.85352C19.0465 6.85352 17.7232 8.29938 17.7232 10.0361C17.7232 11.89 19.0465 13.2698 20.6895 13.2794Z" fill="black"/>
<path d="M0.301788 11.8225C-0.324226 12.5294 0.0760863 13.4875 1.02038 13.4875H3.01679V18.3292C3.01679 18.9229 3.48483 19.3698 4.09444 19.3698C4.68271 19.3698 5.15076 18.9229 5.15076 18.3292V13.4875H7.12162C8.11279 13.4875 8.46716 12.5048 7.85615 11.8225L4.78537 8.3493C4.37545 7.87868 3.78037 7.87868 3.36084 8.3493L0.301788 11.8225Z" fill="black"/>
</svg>
