<svg width="28" height="28" viewBox="0 0 28 28" fill="none" xmlns="http://www.w3.org/2000/svg">
<path d="M23.3616 26.7144L19.8017 22.4706C19.4417 22.0499 19.3864 21.9477 19.2478 21.5099L19.028 20.829L20.9906 18.3669L21.5426 20.9563L25.0568 25.1214C26.209 26.5047 24.3178 27.8549 23.3616 26.7144ZM14.7434 26.3523C13.9873 27.8805 11.7298 26.9359 12.5487 25.2747L14.9689 20.3779C15.1564 20.0104 15.4046 19.6098 15.6474 19.2766L17.1633 17.1236L17.0663 16.8241C16.6603 15.58 16.4953 14.8429 16.4112 13.6232L16.1747 10.1943C16.0533 8.5361 17.0426 7.29204 18.7191 7.29204C19.9887 7.29204 20.8439 7.93211 21.9954 9.06016L23.8116 10.8487C24.406 11.4313 24.604 11.9148 24.6647 12.7019L24.8895 15.5034C24.9523 16.236 24.5306 16.7535 23.8545 16.7769C23.1687 16.8259 22.7471 16.4139 22.6864 15.6386L22.4264 12.5823L21.5888 11.8342C21.301 11.5698 20.9077 11.7426 20.9311 12.0569L21.1186 14.6001C21.2241 15.9093 20.9257 16.5536 19.996 17.7006L17.5992 20.713C17.3574 21.0156 17.3297 21.1286 17.2221 21.3245L14.7434 26.3523ZM10.5926 11.9193H13.3027L14.9672 10.0853L15.177 13.0424L14.5943 13.623C14.2067 14.0106 13.8542 14.1341 13.1396 14.1341H10.5926C9.844 14.1341 9.36377 13.7125 9.36377 13.0267C9.36377 12.3623 9.85572 11.9193 10.5926 11.9193ZM17.3824 6.28586C15.9265 6.28586 14.7539 5.10368 14.7539 3.65735C14.7539 2.20142 15.9265 1.03094 17.3824 1.03094C18.8384 1.03094 20.011 2.20142 20.011 3.65735C20.011 5.10368 18.8384 6.28586 17.3824 6.28586Z" fill="black"/>
<path d="M2 26.2326C2 26.8813 2.5339 27.4056 3.17304 27.4056C3.81967 27.4056 4.35358 26.8813 4.35358 26.2326V2.17304C4.35358 1.52429 3.81967 1 3.17304 1C2.5339 1 2 1.52429 2 2.17304V26.2326Z" fill="black"/>
</svg>
