<svg width="28" height="28" viewBox="0 0 28 28" fill="none" xmlns="http://www.w3.org/2000/svg">
<path d="M2.60062 24.762H17.2118C19.1339 24.762 19.8028 24.1798 19.8028 23.1021C19.8028 20.0871 15.9776 15.9406 9.90515 15.9406C3.82523 15.9406 0 20.0871 0 23.1021C0 24.1798 0.668906 24.762 2.60062 24.762ZM9.90515 13.8598C12.469 13.8598 14.6327 11.5887 14.6327 8.65268C14.6327 5.7708 12.453 3.57776 9.90515 3.57776C7.35727 3.57776 5.17758 5.81135 5.17969 8.67401C5.1818 11.5887 7.35305 13.8598 9.90515 13.8598Z" fill="black"/>
<path d="M18.7364 13.7149C19.2201 14.0351 19.8722 13.9277 20.2308 13.4138C21.1732 12.1563 21.7354 10.3681 21.7354 8.516C21.7354 6.66397 21.1732 4.8853 20.2308 3.61405C19.8722 3.10429 19.2201 2.99484 18.7364 3.3171C18.1652 3.69163 18.0612 4.38092 18.5088 5.03646C19.1569 5.95709 19.5246 7.20935 19.5246 8.516C19.5246 9.82264 19.1473 11.0632 18.5088 11.9956C18.0729 12.6586 18.1652 13.3308 18.7364 13.7149Z" fill="black"/>
<path d="M23.4102 16.8473C23.9366 17.1825 24.5854 17.0538 24.9503 16.522C26.4756 14.3667 27.3587 11.4823 27.3587 8.51603C27.3587 5.54978 26.4852 2.64611 24.9503 0.507911C24.5854 -0.0217732 23.9366 -0.150444 23.4102 0.184711C22.8585 0.532521 22.7798 1.2183 23.185 1.82532C24.4424 3.64478 25.1521 6.04103 25.1521 8.51603C25.1521 10.991 24.4232 13.3756 23.185 15.2046C22.7894 15.8138 22.8585 16.4995 23.4102 16.8473Z" fill="black"/>
</svg>
