<svg width="28" height="28" viewBox="0 0 28 28" fill="none" xmlns="http://www.w3.org/2000/svg">
<path d="M6.84421 25.155H21.0295C23.5685 25.155 24.8737 23.8594 24.8737 21.3588V7.08702C24.8737 4.58648 23.5685 3.28125 21.0295 3.28125H6.84421C4.31484 3.28125 3 4.58648 3 7.08702V21.3588C3 23.8594 4.31484 25.155 6.84421 25.155ZM6.97733 22.8591C5.88772 22.8591 5.29592 22.297 5.29592 21.1563V7.28952C5.29592 6.14881 5.88772 5.57717 6.97733 5.57717H20.8964C21.9764 5.57717 22.5778 6.14881 22.5778 7.28952V21.1563C22.5778 22.297 21.9764 22.8591 20.8964 22.8591H6.97733Z" fill="black"/>
<path d="M9.10791 16.3573C9.10791 19.2485 11.0183 21.0122 13.6858 21.0122C15.6208 21.0122 16.967 20.2498 17.8909 18.4943C18.4698 17.4949 18.8894 16.1887 19.269 14.9524C19.4512 14.3571 19.7057 13.6106 19.7204 13.2837C19.7373 12.9002 19.4729 12.6213 19.0862 12.6023C18.643 12.5834 18.3662 12.8445 18.0794 13.4384L17.1702 15.3874C17.0849 15.5794 17.0017 15.6412 16.9047 15.6412C16.7809 15.6412 16.7052 15.5602 16.7052 15.3757V8.51952C16.7052 8.10514 16.3696 7.76952 15.9552 7.76952C15.5387 7.76952 15.2127 8.10725 15.2127 8.51952V13.4491C15.0421 13.4044 14.8693 13.3404 14.6849 13.3094V7.58248C14.6849 7.17561 14.3589 6.83038 13.937 6.83038C13.5205 6.83038 13.1849 7.17561 13.1849 7.58248V13.2316C13.0025 13.253 12.8202 13.2743 12.6399 13.3052V8.13467C12.6399 7.7203 12.3022 7.39217 11.8857 7.39217C11.4735 7.39217 11.1378 7.7203 11.1378 8.13467V13.7625C10.9438 13.8478 10.7828 13.9523 10.61 14.0473V10.1726C10.61 9.75397 10.2744 9.40874 9.86962 9.40874C9.44564 9.40874 9.10791 9.75397 9.10791 10.1726V16.3573Z" fill="black"/>
</svg>
