<svg width="28" height="28" viewBox="0 0 28 28" fill="none" xmlns="http://www.w3.org/2000/svg">
<path d="M25.9339 9.86444C25.9339 6.22694 23.6677 3.2321 20.6593 3.2321H18.62C20.7441 4.84741 21.7365 7.24999 21.6875 9.98795C21.6523 12.9345 20.5915 15.0744 19.4771 16.534H21.1013C23.8327 16.534 25.9339 13.6161 25.9339 9.86444ZM20.0138 9.9528C20.0862 5.48351 16.4551 2.14789 10.8455 2.10101L9.22343 2.08929C7.68311 2.07757 6.5096 2.19476 5.8346 2.37265C4.81718 2.61851 3.9214 3.25155 3.9214 4.40913C3.9214 4.85233 4.03437 5.1985 4.17289 5.45304C4.2582 5.58522 4.24226 5.69725 4.11101 5.75163C3.34977 6.09733 2.75726 6.81827 2.75726 7.7492C2.75726 8.29249 2.9075 8.76428 3.17492 9.11561C3.28695 9.27241 3.26141 9.40999 3.08211 9.52202C2.53367 9.86045 2.15445 10.5483 2.15445 11.3417C2.15445 11.9199 2.33445 12.5068 2.63914 12.8133C2.81094 12.9584 2.78211 13.0672 2.6082 13.2197C2.23016 13.5476 2 14.1108 2 14.7915C2 16.0051 2.94851 16.9899 4.1846 16.9899H8.41718C9.44116 16.9899 10.1052 17.51 10.1052 18.3371C10.1052 19.9126 8.10078 22.8617 8.10078 25.0043C8.10078 26.1713 8.84702 26.8737 9.85718 26.8737C10.7272 26.8737 11.1837 26.3016 11.6797 25.332C13.4658 21.8715 15.8347 19.0597 17.6548 16.6409C19.2286 14.5538 19.969 12.7712 20.0138 9.9528Z" fill="black"/>
</svg>
