<svg width="28" height="32" viewBox="0 0 28 32" fill="none" xmlns="http://www.w3.org/2000/svg">
<path d="M19.3013 8.45484C20.7476 8.45484 21.9181 7.27476 21.9181 5.8071C21.9181 4.3725 20.7476 3.19031 19.3013 3.19031C17.8357 3.19031 16.6535 4.3725 16.6535 5.8071C16.6535 7.27476 17.8357 8.45484 19.3013 8.45484ZM13.2453 31.9849C13.9235 31.9849 14.49 31.4301 14.49 30.7401V24.8419L17.1457 20.9254C17.266 20.7403 17.5235 20.7977 17.5512 21.0276L17.9583 24.4915C17.9818 24.6949 18.019 24.8088 18.1128 25.0336L20.4446 31.1831C20.7385 31.9572 21.4625 32.1201 22.0385 31.9104C22.6146 31.691 23.0618 31.0947 22.7679 30.3068L20.4713 24.203V12.937C20.4713 11.6599 19.9313 10.3233 18.6884 9.8121L17.9417 9.49898C16.5528 8.92171 15.2417 9.09632 14.0679 9.93562L11.2842 11.9437L8.2737 10.6713L14.4652 2.08827H16.4949C17.0728 2.08827 17.5486 1.61038 17.5486 1.04625C17.5486 0.454451 17.0728 0 16.4949 0H14.5285C14.2943 0 14.0518 0.106406 13.9081 0.305389L6.27262 10.8724C5.80973 11.5087 5.93512 12.386 6.65793 12.6926L10.951 14.5355C11.1469 14.61 11.2885 14.6196 11.5622 14.6196H14.416C14.8381 14.6196 14.9735 14.8809 14.9735 15.1985V18.4678L12.1219 23.8697C12.0122 24.0773 11.9867 24.2423 11.9867 24.4713V30.7401C11.9867 31.4301 12.5414 31.9849 13.2453 31.9849Z" fill="black"/>
</svg>
