<svg width="28" height="28" viewBox="0 0 28 28" fill="none" xmlns="http://www.w3.org/2000/svg">
<path d="M3.84421 24.8781H23.9109C26.4499 24.8781 27.7552 23.5824 27.7552 21.0819V6.81004C27.7552 4.30739 26.4499 3.00427 23.9109 3.00427H3.84421C1.31484 3.00427 0 4.30739 0 6.81004V21.0819C0 23.5824 1.31484 24.8781 3.84421 24.8781ZM3.97733 22.5821C2.88772 22.5821 2.29592 22.018 2.29592 20.8794V7.01043C2.29592 5.87183 2.88772 5.30019 3.97733 5.30019H23.7778C24.8578 5.30019 25.4592 5.87183 25.4592 7.01043V20.8794C25.4592 22.018 24.8578 22.5821 23.7778 22.5821H3.97733ZM6.03561 23.3274H21.7409C21.0073 20.1758 17.8017 17.916 13.8893 17.916C9.96515 17.916 6.76171 20.1758 6.03561 23.3274ZM13.8893 16.0264C16.1297 16.0477 17.8845 14.1355 17.8845 11.6508C17.8845 9.31433 16.1234 7.36269 13.8893 7.36269C11.6531 7.36269 9.88242 9.31433 9.89203 11.6508C9.90164 14.1355 11.6468 16.0072 13.8893 16.0264Z" fill="black"/>
</svg>
