<svg width="32" height="29" viewBox="0 0 32 29" fill="none" xmlns="http://www.w3.org/2000/svg">
<path d="M6.34479 7.01079C7.63479 7.01079 8.6808 5.95727 8.6808 4.66517C8.6808 3.36767 7.63479 2.33337 6.34479 2.33337C5.04518 2.33337 4.00127 3.36767 4.00127 4.66517C4.00127 5.95727 5.04518 7.01079 6.34479 7.01079ZM4.93971 26.0146C5.5308 26.0146 6.00049 25.5449 6.00049 24.9538V20.623C6.00049 20.4322 6.15612 20.2883 6.34479 20.2883C6.52385 20.2883 6.67737 20.4322 6.67737 20.623V24.9538C6.67737 25.5449 7.13745 26.0146 7.73815 26.0146C8.32924 26.0146 8.80104 25.547 8.80104 24.9538V20.623H10.1632C10.7576 20.623 11.0079 20.1266 10.8279 19.5536L8.6876 12.696C8.53315 12.1921 9.21705 11.9886 9.37151 12.5085L10.7117 16.7964C11.1239 18.1089 13.032 17.5954 12.6197 16.2594L11.3754 12.2879C10.5647 9.67798 9.71346 8.18196 6.77861 8.18196H5.89925C2.9644 8.18196 2.10565 9.67798 1.29284 12.2879L0.0581481 16.2594C-0.354118 17.5954 1.54643 18.1089 1.96619 16.7964L3.30635 12.5085C3.46291 11.9886 4.14682 12.1921 3.98276 12.696L1.84994 19.5536C1.67205 20.1266 1.92026 20.623 2.50502 20.623H3.86721V24.9538C3.86721 25.547 4.34862 26.0146 4.93971 26.0146ZM26.7352 7.01079C28.0348 7.01079 29.0691 5.95727 29.0691 4.66517C29.0691 3.36767 28.0348 2.33337 26.7352 2.33337C25.4452 2.33337 24.3916 3.36767 24.3916 4.66517C24.3916 5.95727 25.4452 7.01079 26.7352 7.01079ZM25.3301 26.0146C25.9308 26.0146 26.3909 25.5449 26.3909 24.9538V17.4217C26.3909 17.2426 26.5561 17.0849 26.7352 17.0849C26.9142 17.0849 27.0698 17.2426 27.0698 17.4217V24.9538C27.0698 25.5449 27.5513 26.0146 28.1381 26.0146C28.7313 26.0146 29.201 25.547 29.201 24.9538V12.5891C29.201 12.4004 29.3449 12.2661 29.5336 12.2661C29.7148 12.2661 29.8608 12.4004 29.8608 12.5891V16.6621C29.8608 17.2138 30.2953 17.6504 30.8374 17.6504C31.3699 17.6504 31.8045 17.2138 31.8045 16.6621V12.1108C31.8045 9.7586 30.0502 8.19157 27.5213 8.19157H25.947C23.4106 8.19157 21.6563 9.7586 21.6563 12.1108V16.6621C21.6563 17.2138 22.0908 17.6504 22.6329 17.6504C23.175 17.6504 23.6116 17.2138 23.6116 16.6621V12.5891C23.6116 12.4004 23.7556 12.2661 23.9346 12.2661C24.1137 12.2661 24.2672 12.4004 24.2672 12.5891V24.9538C24.2672 25.547 24.739 26.0146 25.3301 26.0146Z" fill="black"/>
<path d="M16.8203 28.4667C17.4341 28.4667 17.9235 28.0062 17.9235 27.3923V1.07437C17.9235 0.458435 17.4341 0 16.8203 0C16.2044 0 15.7246 0.458435 15.7246 1.07437V27.3923C15.7246 28.0062 16.2044 28.4667 16.8203 28.4667Z" fill="black"/>
</svg>
