<svg width="28" height="28" viewBox="0 0 28 28" fill="none" xmlns="http://www.w3.org/2000/svg">
<path d="M5 19.8246C5 23.213 7.0789 25.3113 10.381 25.3113C12.8525 25.3113 14.6799 24.1894 15.8417 22.0748L16.8837 20.1881C19.1961 15.9305 23.3354 15.123 23.3354 9.29367C23.3354 3.72492 19.7066 0 14.2723 0C8.73242 0 5 3.75258 5 9.35952V19.8246Z" fill="black"/>
<path d="M8.39062 14.6862V8.97983C8.39062 5.67209 10.6718 3.45303 14.2606 3.45303C17.7785 3.45303 19.9901 5.66155 19.9901 8.95873C19.9901 9.46662 19.5651 9.89154 19.0572 9.89154C18.5472 9.89154 18.1319 9.46662 18.1319 8.95873C18.1319 6.75186 16.6861 5.30482 14.2606 5.30482C11.7621 5.30482 10.2466 6.7699 10.2466 8.97983V10.3542H13.4672C15.412 10.3542 16.6954 11.5418 16.6954 13.3066C16.6954 14.0522 16.3727 14.9597 15.8775 15.5838L14.411 17.4457C14.2055 17.7002 13.9392 17.8451 13.6549 17.8451C13.147 17.8451 12.7221 17.4382 12.7221 16.9366C12.7221 16.7055 12.8105 16.4798 12.9734 16.2722L14.3206 14.5765C14.6081 14.2261 14.7893 13.755 14.7893 13.3812C14.7893 12.6801 14.2812 12.2018 13.4906 12.2018H10.2466V14.6862C10.2466 15.2025 9.82804 15.6232 9.31172 15.6232C8.79539 15.6232 8.39062 15.2046 8.39062 14.6862Z" fill="white"/>
</svg>
