<svg width="30" height="28" viewBox="0 0 30 28" fill="none" xmlns="http://www.w3.org/2000/svg">
<path d="M17.6433 8.24742C19.0896 8.24742 20.2718 7.06523 20.2718 5.6189C20.2718 4.18219 19.0896 3 17.6433 3C16.1969 3 15.0148 4.18219 15.0148 5.6189C15.0148 7.06523 16.1969 8.24742 17.6433 8.24742ZM13.3132 22.8804C13.0034 24.5447 15.495 24.9387 15.8027 23.2551L17.0245 16.5975C17.1459 15.9565 16.7264 15.2526 15.9874 15.1526L12.0813 14.5985L14.4883 12.1915C14.7101 11.958 15.0237 11.958 15.2475 12.1915L22.1533 19.0952C22.6336 19.5658 23.4333 19.6169 23.9273 19.0952C24.4076 18.5819 24.4172 17.8195 23.9252 17.3234L14.7717 8.16773C14.2062 7.60007 13.433 7.26562 12.6054 7.26562H7.31015C6.97687 7.26562 6.65742 7.40085 6.42211 7.63617L2.79609 11.2697C2.30203 11.7659 2.30414 12.5517 2.79609 13.0437C3.29226 13.5377 4.06851 13.5377 4.56257 13.0437L7.83726 9.77858H9.88851C10.0859 9.77858 10.1691 9.95249 10.0336 10.0858L6.80132 13.3085C5.20805 14.9114 6.05367 17.6421 8.60015 17.6421H14.2645L13.3132 22.8804ZM6.44789 18.2543L6.14203 21.7868H1.25859C0.566483 21.7868 0 22.3533 0 23.0412C0 23.7333 0.566483 24.2998 1.25859 24.2998H7.31015C7.93945 24.2998 8.44523 23.8174 8.55702 23.1923L9.34546 18.84H8.60015C7.75031 18.84 7.02187 18.6206 6.44789 18.2543ZM24.7638 24.2998H28.3898C29.2343 24.2998 29.9147 23.6119 29.9147 22.7632C29.9147 21.9283 29.2343 21.2383 28.3898 21.2383H24.7638C23.9055 21.2383 23.2176 21.9283 23.2176 22.7632C23.2176 23.6119 23.9055 24.2998 24.7638 24.2998ZM27.1835 22.0146H28.3903V20.7891C28.3903 19.7531 27.633 18.9841 26.6067 18.9841H25.3446C25.004 18.9841 24.7284 19.2555 24.7284 19.5982C24.7284 19.9387 25.004 20.2048 25.3446 20.2048H26.6067C26.9447 20.2048 27.1835 20.4511 27.1835 20.7891V22.0146Z" fill="black"/>
</svg>
