<svg width="28" height="31" viewBox="0 0 28 31" fill="none" xmlns="http://www.w3.org/2000/svg">
<path d="M16.011 30.9597C20.8422 30.9555 23.739 29.2261 23.739 26.3339V19.9699C25.7706 18.1955 26.9659 15.3396 26.9659 12.1992C26.9659 4.86773 22.2058 0 15.0852 0C7.99984 0 3.27695 4.77187 3.27695 11.9297C3.27695 12.3422 3.28656 12.6853 3.3175 13.0029L1.62742 16.0305C1.20555 16.7901 1 17.5155 1 18.1919C1 19.4864 1.81609 20.5294 3.27484 20.8256V23.2041C3.27484 25.6172 4.92179 26.8017 7.22217 26.5612L9.47991 26.3182L8.39898 25.3908V26.3339C8.39898 29.2261 11.2448 30.9597 16.011 30.9597ZM16.011 28.6976C12.5924 28.6976 10.5494 27.637 10.5494 25.9462V24.3293C10.5494 24.0724 10.3797 23.9325 10.1186 23.9548L6.94865 24.3087C6.03576 24.4045 5.5349 24.0061 5.5349 23.036V19.3078C5.5349 19.1252 5.39897 18.9968 5.19296 18.9968H4.55288C3.79772 18.9968 3.3742 18.6213 3.3742 18.0218C3.3742 17.722 3.47662 17.3646 3.68147 16.9976L5.65303 13.4613C5.56467 12.933 5.52529 12.4174 5.52529 11.9041C5.52529 6.11085 9.33881 2.26217 15.0852 2.26217C20.8434 2.26217 24.6995 6.23014 24.6995 12.1992C24.6995 15.1045 23.4766 17.6105 21.4705 18.8384L21.4727 25.9462C21.4727 27.637 19.4254 28.6976 16.011 28.6976Z" fill="black"/>
<path d="M7.34375 10.0134C7.34375 12.2604 8.90352 13.7754 11.2069 13.7754C13.4794 13.7754 15.0275 12.4202 15.0275 10.3896C15.0275 9.55006 14.7366 8.83943 14.1997 8.39623C13.9526 8.18646 13.7843 8.11615 13.5511 8.11615C13.1923 8.11615 12.9218 8.35146 12.9218 8.69435C12.9218 9.06396 13.133 9.16849 13.4075 9.42912C13.6292 9.64662 13.7572 9.96537 13.7572 10.3662C13.7572 11.6461 12.7522 12.4934 11.2229 12.4934C9.65633 12.4934 8.62578 11.5097 8.62578 10.0113C8.62578 9.09279 9.11164 8.25302 9.90969 7.81919L9.26446 6.67873C8.09164 7.34998 7.34375 8.64232 7.34375 10.0134ZM8.92297 6.89599C8.92297 8.34701 9.95001 9.32927 11.4575 9.32927C11.7929 9.32927 12.0985 9.03326 12.0985 8.68826C12.0985 8.34115 11.8025 8.04725 11.4575 8.04725C10.6986 8.04725 10.205 7.5942 10.205 6.89599C10.205 6.16474 10.8158 5.63388 11.6621 5.63388C12.1383 5.63388 12.62 5.81388 13.0142 6.1249L13.7649 5.07607C13.1555 4.60849 12.428 4.35185 11.6717 4.35185C10.112 4.35185 8.92297 5.43748 8.92297 6.89599ZM12.0959 6.71506C12.0863 7.09943 12.3547 7.39334 12.7327 7.39334C13.1011 7.39334 13.3524 7.1442 13.3641 6.76615C13.4185 5.70888 14.1699 4.98091 15.2133 4.9713C15.8283 4.9713 16.3815 5.29638 16.5957 5.80802C16.6936 5.98802 16.8833 5.99646 17.1465 5.93037C17.285 5.88349 17.449 5.87388 17.6068 5.87388C18.6661 5.87388 19.4942 6.69982 19.4942 7.78381C19.4942 10.4534 15.5865 10.0584 15.5865 12.9333C15.5865 14.2638 16.6381 15.195 18.1339 15.195C18.2246 15.195 18.3153 15.195 18.4252 15.195C18.635 16.365 19.4042 17.1684 20.3567 17.1684C21.7395 17.1684 22.7239 15.6286 22.7239 13.4541C22.7239 12.5775 22.6653 12.0129 22.6142 11.4717L21.3151 11.8338C21.3736 12.3612 21.4418 12.8224 21.4418 13.4306C21.4418 14.8594 20.9452 15.8843 20.3567 15.8843C19.8439 15.8843 19.4954 15.232 19.4954 14.2941C19.4954 14.1194 19.3718 14.0248 19.2047 14.0248C19.0404 14.0248 18.8494 14.0344 18.6877 14.0344C17.5013 14.0344 16.9013 13.6444 16.9013 12.9068C16.9013 10.8942 20.7858 11.4002 20.7858 7.78381C20.7858 5.97045 19.452 4.58013 17.7303 4.58013C17.6119 4.58013 17.4743 4.59185 17.3325 4.62068C16.8169 4.04201 16.0402 3.70099 15.2133 3.70099C13.4565 3.70099 12.1536 4.93263 12.0959 6.71506ZM19.0986 12.5433C19.0986 12.8904 19.3594 13.1587 19.7183 13.1939C21.8405 13.3291 23.2852 12.0581 23.2852 10.0488C23.2852 8.33248 22.0292 7.03381 20.1818 6.86224L19.9817 8.16443C21.1922 8.08896 22.0053 8.8542 22.0053 10.0488C22.0053 11.2701 21.1133 12.0216 19.7459 11.914C19.4063 11.8884 19.0986 12.1941 19.0986 12.5433ZM16.2596 13.1416C15.9005 13.2886 15.4444 13.3727 15.0172 13.3727C14.0412 13.3727 13.1133 12.963 12.83 12.3914L11.7007 13.2837C12.3783 14.1441 13.5699 14.6526 14.9065 14.6526C15.4934 14.6526 16.1187 14.5547 16.6854 14.363L16.2596 13.1416ZM14.0386 9.06842L14.4603 10.3036C16.0604 10.0404 16.9189 9.07943 16.9083 7.50162C16.9041 7.16412 16.5964 6.8606 16.2493 6.8606C15.9043 6.8606 15.6179 7.15451 15.6242 7.51123C15.6368 8.51295 15.1489 8.96177 14.0386 9.06842Z" fill="black"/>
</svg>
