<svg width="28" height="28" viewBox="0 0 28 28" fill="none" xmlns="http://www.w3.org/2000/svg">
<path d="M11.6393 26.7144L15.2013 22.4706C15.5613 22.0499 15.6145 21.9477 15.7551 21.5099L15.9749 20.829L14.0102 18.3669L13.4603 20.9563L9.94614 25.1214C8.79396 26.5047 10.683 27.8549 11.6393 26.7144ZM20.2574 26.3523C21.0156 27.8805 23.271 26.9359 22.4521 25.2747L20.0341 20.3779C19.8445 20.0104 19.5963 19.6098 19.3555 19.2766L17.8375 17.1236L17.9366 16.8241C18.3426 15.58 18.5076 14.8429 18.5896 13.6232L18.8282 10.1943C18.9475 8.5361 17.9603 7.29204 16.2838 7.29204C15.0142 7.29204 14.159 7.93211 13.0054 9.06016L11.1914 10.8487C10.597 11.4313 10.399 11.9148 10.3383 12.7019L10.1114 15.5034C10.0603 16.236 10.4723 16.7535 11.1464 16.7769C11.8322 16.8259 12.2538 16.4139 12.3166 15.6386L12.5765 12.5823L13.4141 11.8342C13.6998 11.5698 14.0952 11.7426 14.0697 12.0569L13.8843 14.6001C13.7884 15.9093 14.0772 16.5536 15.007 17.7006L17.4037 20.713C17.6456 21.0156 17.6732 21.1286 17.7808 21.3245L20.2574 26.3523ZM24.4103 11.9193H21.7002L20.0336 10.0853L19.8259 13.0424L20.4086 13.623C20.8038 14.0106 21.1488 14.1341 21.8613 14.1341H24.4103C25.1589 14.1341 25.6487 13.7125 25.6487 13.0267C25.6487 12.3623 25.1451 11.9193 24.4103 11.9193ZM17.6184 6.28586C19.0764 6.28586 20.2469 5.10368 20.2469 3.65735C20.2469 2.20142 19.0764 1.03094 17.6184 1.03094C16.1624 1.03094 14.992 2.20142 14.992 3.65735C14.992 5.10368 16.1624 6.28586 17.6184 6.28586Z" fill="black"/>
<path d="M2 26.2326C2 26.8813 2.5339 27.4056 3.17304 27.4056C3.81967 27.4056 4.35358 26.8813 4.35358 26.2326V2.17304C4.35358 1.52429 3.81967 1 3.17304 1C2.5339 1 2 1.52429 2 2.17304V26.2326Z" fill="black"/>
</svg>
