<svg width="28" height="32" viewBox="0 0 28 32" fill="none" xmlns="http://www.w3.org/2000/svg">
<path d="M14.6327 31.0968C19.8682 31.0926 23.2584 27.6738 23.2584 21.9743V19.177C23.2584 16.3983 21.9093 14.7361 19.639 14.6895C19.3315 13.8192 18.5714 13.2834 17.549 13.2834C17.2186 13.2834 16.8977 13.3336 16.5907 13.4402C16.2438 12.4763 15.4514 11.902 14.4108 11.902C14.1834 11.902 13.9465 11.9309 13.7095 12.0002V8.45436C13.7095 6.85335 12.6471 5.78039 11.1377 5.78039C9.60183 5.78039 8.52886 6.85335 8.52886 8.45436V17.7649C8.52886 17.8298 8.49581 17.8746 8.43933 17.8746C8.39456 17.8746 8.36363 17.8437 8.34769 17.7989L7.68487 16.2319C7.26651 15.3558 6.5498 14.8847 5.69667 14.8847C4.42707 14.8847 3.3623 15.7104 3.3623 17.107C3.3623 17.4965 3.43684 17.9885 3.59012 18.4197L5.68426 24.2796C7.29347 28.7859 10.3357 31.099 14.6327 31.0968ZM14.6976 29.1063C11.3763 29.1063 8.91065 27.5419 7.47041 23.628L5.33198 17.8137C5.26799 17.6547 5.23706 17.5214 5.23706 17.3454C5.23706 16.9816 5.50589 16.6776 5.92823 16.6776C6.27605 16.6776 6.48511 16.8825 6.6398 17.2303L8.30315 20.8244C8.57573 21.4209 8.97909 21.6232 9.41878 21.6232C9.9658 21.6232 10.387 21.2006 10.387 20.573L10.3891 8.33413C10.3891 7.89467 10.6931 7.57897 11.1229 7.57897C11.5528 7.57897 11.8514 7.89467 11.8514 8.33413V16.9427C11.8514 17.4119 12.2493 17.7811 12.7185 17.7811C13.1782 17.7811 13.5569 17.4119 13.5569 16.9427V13.8909C13.7393 13.8119 13.9814 13.7639 14.1947 13.7639C14.7089 13.7639 15.0288 14.0988 15.0288 14.6461V17.4091C15.0288 17.8955 15.4226 18.239 15.8801 18.239C16.3279 18.239 16.7196 17.8955 16.7196 17.4091V15.2702C16.904 15.1933 17.1462 15.1432 17.3477 15.1432C17.8737 15.1432 18.184 15.4877 18.184 16.0254V17.8704C18.184 18.3609 18.5915 18.6991 19.0533 18.6991C19.5033 18.6991 19.8916 18.3609 19.8916 17.8704V16.6788C20.8418 16.6788 21.374 17.6156 21.374 19.2764V21.7741C21.374 26.445 18.8555 29.1063 14.6976 29.1063Z" fill="black"/>
<path d="M4.90382 9.42186C5.99953 9.42186 6.8428 8.55725 6.8428 7.48077C6.8428 6.42022 5.99953 5.55562 4.90382 5.55562C3.85078 5.55562 3 6.42022 3 7.48077C3 8.55725 3.85078 9.42186 4.90382 9.42186ZM11.1377 3.86835C12.2121 3.86835 13.0767 3.00374 13.0767 1.92726C13.0767 0.876326 12.2121 0 11.1377 0C10.0847 0 9.20835 0.876326 9.20835 1.92726C9.20835 3.00374 10.0847 3.86835 11.1377 3.86835ZM17.4323 9.42186C18.5067 9.42186 19.3734 8.55725 19.3734 7.48077C19.3734 6.42022 18.5067 5.55562 17.4323 5.55562C16.3718 5.55562 15.5072 6.42022 15.5072 7.48077C15.5072 8.55725 16.3718 9.42186 17.4323 9.42186ZM23.036 9.42186C24.1082 9.42186 24.9729 8.55725 24.9729 7.48077C24.9729 6.42022 24.1082 5.55562 23.036 5.55562C21.9829 5.55562 21.1162 6.42022 21.1162 7.48077C21.1162 8.55725 21.9829 9.42186 23.036 9.42186ZM23.036 3.86835C24.1082 3.86835 24.9729 3.00374 24.9729 1.92726C24.9729 0.876326 24.1082 0 23.036 0C21.9829 0 21.1162 0.876326 21.1162 1.92726C21.1162 3.00374 21.9829 3.86835 23.036 3.86835Z" fill="black"/>
</svg>
