<svg width="31" height="28" viewBox="0 0 31 28" fill="none" xmlns="http://www.w3.org/2000/svg">
<path d="M0.854867 13.2218C5.15986 18.4076 9.3165 21.2709 15.1529 21.2709C20.9989 21.2709 25.1535 18.4076 29.4585 13.2218C30.9331 11.4373 30.4927 9.35766 28.2106 9.08719C24.9336 8.71312 23.7697 6.02554 20.1238 6.02554C17.2691 6.02554 15.5797 8.13375 15.1529 8.13375C14.7336 8.13375 13.0463 6.02554 10.1917 6.02554C6.54573 6.02554 5.38182 8.71312 2.10479 9.08719C-0.17943 9.35766 -0.617708 11.4373 0.854867 13.2218ZM2.00048 11.8556C1.65454 11.4595 1.75486 11.0154 2.2726 10.9352L3.15267 10.7615C6.8047 10.0683 8.06072 8.08757 10.3131 8.08757C11.4831 8.08757 12.3132 8.66507 13.1281 9.25733C13.9374 9.85147 14.4807 10.1958 15.1529 10.1958C15.8326 10.1958 16.3663 9.85147 17.1873 9.25733C18.0001 8.66507 18.8324 8.08757 20.0003 8.08757C22.2547 8.08757 23.5107 10.0683 27.1606 10.7615L28.0407 10.9352C28.5606 11.0154 28.6609 11.4595 28.3149 11.8556C24.9376 15.379 20.9239 19.2068 15.1529 19.2068C9.38939 19.2068 5.37572 15.379 2.00048 11.8556ZM15.1529 14.899C16.809 14.899 17.0956 13.5684 19.4813 13.5684C21.8968 13.578 24.8917 14.632 28.7795 11.7644C29.4819 11.2493 29.0359 10.5422 28.3796 10.8359C26.0288 12.0244 23.4863 12.0958 21.1496 11.8467C20.5424 11.7626 19.9405 11.6784 19.3578 11.6784C17.5035 11.6784 16.5013 12.3419 15.8513 12.7169C15.4874 12.9347 15.3046 13.009 15.1529 13.009C15.0088 13.009 14.8163 12.9347 14.4524 12.7169C13.812 12.3441 12.812 11.6784 10.9555 11.6784C10.3728 11.6784 9.78268 11.7743 9.19463 11.8371C6.86096 12.0958 4.30252 12.0148 1.93158 10.8359C1.27955 10.5422 0.833537 11.2493 1.53807 11.7644C5.42588 14.6245 8.41439 13.578 10.832 13.5684C13.2177 13.5684 13.5064 14.899 15.1529 14.899Z" fill="black"/>
</svg>
