<svg width="28" height="28" viewBox="0 0 28 28" fill="none" xmlns="http://www.w3.org/2000/svg">
<path d="M10.0017 6.20687C11.4481 6.20687 12.611 5.05562 12.611 3.60929C12.611 2.16297 11.4481 1 10.0017 1C8.55542 1 7.39456 2.16297 7.39456 3.60929C7.39456 5.05562 8.55542 6.20687 10.0017 6.20687ZM5.91659 27.5483C6.48847 27.5483 6.88667 27.2289 7.09432 26.477C7.49698 25.0208 8.68901 20.0601 9.09167 18.8659C9.36542 18.018 9.54237 17.7109 10.0017 17.7109C10.4632 17.7109 10.6402 18.018 10.9139 18.8659C11.285 19.963 12.5466 25.1558 12.9113 26.477C13.1189 27.2289 13.5171 27.5483 14.089 27.5483C14.8728 27.5483 15.353 26.837 15.1357 26.065C14.9292 25.2297 13.3271 18.512 13.0873 17.0915C12.8881 15.8277 12.8412 13.2979 12.8391 12.021C12.8391 11.8419 13.0395 11.7758 13.1503 11.9294L14.3986 13.6818C14.5118 12.8985 15.2166 12.1009 16.2347 12.0775L14.4584 9.47968C13.4761 8.0521 12.3021 7.39515 10.0017 7.39515C7.70347 7.39515 6.50605 8.06382 5.54722 9.47968L2.46566 14.0247C2.35058 14.1984 2.21745 14.3762 2.12581 14.5541C1.86285 15.0205 2.0023 15.6967 2.63698 16.03C3.113 16.2983 3.70081 16.2259 4.05964 15.8106C4.37815 15.4356 5.95737 13.2053 6.85526 11.9294C6.95651 11.7855 7.16651 11.8419 7.16651 12.0306C7.16441 13.3075 7.10792 15.8277 6.9087 17.0915C6.668 18.5711 4.95402 25.7486 4.86987 26.065C4.65261 26.837 5.13284 27.5483 5.91659 27.5483ZM19.9627 14.2771C21.0319 14.2771 21.9148 13.4059 21.9148 12.3367C21.9148 11.2696 21.0319 10.3963 19.9627 10.3963C18.8956 10.3963 18.0244 11.2696 18.0244 12.3367C18.0244 13.4059 18.8956 14.2771 19.9627 14.2771ZM17.3231 27.5483C17.7896 27.5483 18.1718 27.2779 18.3284 26.6666C18.5808 25.7708 19.3125 22.682 19.5553 21.929C19.7004 21.497 19.7398 21.4576 19.8624 21.4576C19.9849 21.4576 20.0147 21.497 20.1619 21.929C20.4047 22.682 21.1343 25.7708 21.3964 26.6666C21.5433 27.2779 21.9352 27.5483 22.4016 27.5483C23.0991 27.5483 23.5111 26.8998 23.3365 26.2567C23.2821 26.0765 22.2331 21.617 22.069 20.684C21.9753 20.1236 21.9326 19.1814 21.9326 18.7776C21.9326 18.6006 22.1426 18.5441 22.2417 18.688L23.7375 20.8476C24.0687 21.3257 24.6096 21.3395 24.961 21.0871C25.3027 20.8635 25.4719 20.4025 25.1578 19.9255L23.2083 16.9171C22.5024 15.8268 21.4456 15.4082 20.2999 15.4082H19.8624C19.0835 15.4082 18.7289 15.1621 18.1931 14.5912L16.913 13.2205C16.5839 12.8777 15.9333 12.8702 15.5564 13.2951C15.2157 13.6359 15.1219 14.1437 15.402 14.5687C15.5372 14.7721 16.647 16.0255 17.5118 17.0992C17.6993 17.3273 17.8006 17.5541 17.8006 17.8982C17.8006 18.4989 17.7771 19.9405 17.6557 20.684C17.4917 21.617 16.4426 26.0765 16.3807 26.2567C16.2157 26.8998 16.6278 27.5483 17.3231 27.5483Z" fill="black"/>
</svg>
