<svg width="28" height="31" viewBox="0 0 28 31" fill="none" xmlns="http://www.w3.org/2000/svg">
<path d="M22.7548 11.5439C24.199 11.5439 25.3716 10.3617 25.3716 8.89617C25.3716 7.44984 24.199 6.27937 22.7548 6.27937C21.2872 6.27937 20.1071 7.44984 20.1071 8.89617C20.1071 10.3617 21.2872 11.5439 22.7548 11.5439ZM12.0641 20.9086L16.4265 24.0928L13.8847 29.1626C13.5748 29.7684 13.8219 30.5426 14.4512 30.862C15.0261 31.1388 15.7885 30.9612 16.1176 30.2955L19.1141 24.3026C19.3698 23.7837 19.3013 23.2078 18.8553 22.7777L16.6824 20.7391H20.4066C21.1318 20.7391 21.6652 20.1748 21.6652 19.4848V14.6646C21.6652 12.6569 20.0431 11.0114 18.0141 11.0114H13.6386L14.3898 8.37538C14.574 7.72054 14.2151 7.02843 13.5411 6.8346C12.8745 6.63656 12.1866 7.02843 12.0003 7.68538L10.802 11.9016C10.5688 12.7343 11.0649 13.503 11.9487 13.503H16.051C16.1042 13.503 16.1394 13.5797 16.0883 13.6169L12.5199 15.4235C10.3674 16.5056 10.0991 19.4665 12.0641 20.9086ZM16.7593 18.3101L19.0231 17.2336C19.1286 17.1888 19.2554 17.2549 19.2554 17.3742V18.3101H16.7593ZM10.2643 20.723L9.27429 23.6386H3.27992C2.56648 23.6386 2 24.2072 2 24.8951C2 25.6085 2.56648 26.1771 3.27992 26.1771H10.1741C10.6447 26.1771 11.1111 25.9024 11.3209 25.4519L12.6444 22.7986L11.3602 21.8733C10.914 21.5367 10.5423 21.1437 10.2643 20.723ZM12.6798 5.44945H13.7082C14.4303 4.58132 15.2705 3.09351 15.2705 2.0925C15.2705 0.862498 14.4144 0 13.2057 0C11.9715 0 11.1036 0.862498 11.1036 2.0925C11.1036 3.19898 11.9438 4.67929 12.6798 5.44945ZM12.4374 17.887H13.9409V4.89773H12.4374V17.887Z" fill="black"/>
</svg>
