<svg width="28" height="28" viewBox="0 0 28 28" fill="none" xmlns="http://www.w3.org/2000/svg">
<path d="M2 18.0093C2 21.6489 4.25867 24.6437 7.27671 24.6437H9.31601C7.19187 23.0284 6.25718 20.6258 6.26773 17.8879C6.28156 14.9413 7.34234 12.8015 8.44718 11.3418H6.83257C4.10117 11.3418 2 14.2598 2 18.0093ZM7.97773 17.9113C7.96718 22.3827 11.4905 25.7781 17.0979 25.7844L18.7318 25.7865C20.2604 25.7886 21.436 25.6811 22.1089 25.5032C23.1284 25.2573 24.0221 24.6147 24.0221 23.4667C24.0221 23.0139 23.9091 22.6773 23.7727 22.4228C23.6874 22.281 23.7108 22.1786 23.8346 22.1242C24.6033 21.7689 25.1862 21.0576 25.1862 20.117C25.1862 19.5833 25.0381 19.1019 24.7803 18.7602C24.6682 18.6034 24.6821 18.4562 24.8731 18.3538C25.4098 18.0154 25.789 17.3254 25.789 16.5341C25.789 15.9559 25.6111 15.369 25.3043 15.0625C25.1422 14.9153 25.1731 14.8087 25.3374 14.6561C25.7133 14.3282 25.9435 13.7629 25.9435 13.0844C25.9435 11.8708 24.995 10.8859 23.7589 10.8859H19.5284C18.5044 10.8859 17.8404 10.3658 17.8404 9.53663C17.8404 7.96327 19.8523 5.00452 19.8523 2.86187C19.8523 1.70453 19.0965 1 18.0959 1C17.2163 1 16.7597 1.57422 16.2638 2.54382C14.4776 6.00437 12.1088 8.81616 10.2908 11.2232C8.71694 13.3124 7.98616 15.1047 7.97773 17.9113Z" fill="black"/>
</svg>
