<svg width="28" height="29" viewBox="0 0 28 29" fill="none" xmlns="http://www.w3.org/2000/svg">
<path d="M13.4745 9.00537C14.9305 9.00537 16.1105 7.82529 16.1105 6.36935C16.1105 4.91342 14.9305 3.74084 13.4745 3.74084C12.0186 3.74084 10.846 4.91342 10.846 6.36935C10.846 7.82529 12.0186 9.00537 13.4745 9.00537ZM23.9921 28.2628C24.68 28.2628 25.2369 27.6963 25.2369 27.0159V21.0112C25.2369 20.5662 25.0015 20.235 24.6863 19.9687L20.0429 16.1402L19.1246 11.1612C19.0405 10.6573 19.1012 10.1777 19.3451 9.68763L23.2641 1.85927C23.574 1.2417 23.3152 0.48889 22.6976 0.179047C22.0801 -0.126578 21.3273 0.118344 21.0216 0.724202L17.1709 8.44709C16.9034 8.97982 16.523 9.32927 15.953 9.56154L9.19179 12.3675L6.48054 10.1932C6.30452 10.0598 6.1039 10.0055 5.92788 9.99701V6.6267H4.44359V11.1312C4.44359 11.5401 4.57555 11.9011 4.89289 12.1556L8.23343 14.8101C8.65414 15.1371 9.1332 15.1179 9.66359 14.9006L13.3759 13.3465C13.843 13.1428 14.0923 13.4041 14.1467 13.7367L15.9758 23.8237L10.922 25.8457C10.2905 26.0927 9.97109 26.82 10.216 27.4727C10.5078 28.1789 11.2149 28.4065 11.8451 28.1531L17.8498 25.7585C18.3929 25.5391 18.6772 25.0036 18.6399 24.4434L18.2958 19.7777C18.2649 19.3001 18.7789 19.0219 19.1562 19.2766L22.7431 21.6799V27.0159C22.7431 27.6963 23.2904 28.2628 23.9921 28.2628ZM5.19054 0.310067C3.4025 0.310067 2 1.72639 2 3.52615C2 5.15552 3.395 6.94263 5.19054 7.53912C6.9882 6.94263 8.36937 5.15552 8.36937 3.52615C8.36937 1.72639 6.96898 0.310067 5.19054 0.310067ZM5.19054 1.79435C6.1475 1.79435 6.88508 2.55326 6.88508 3.56131C6.88508 4.54592 6.17422 5.59147 5.19054 5.93881C4.20476 5.59147 3.48429 4.54592 3.48429 3.56131C3.48429 2.55326 4.21976 1.79435 5.19054 1.79435Z" fill="black"/>
</svg>
