<svg width="28" height="28" viewBox="0 0 28 28" fill="none" xmlns="http://www.w3.org/2000/svg">
<path d="M14.105 26.2301C20.7369 26.2301 26.2121 20.7549 26.2121 14.123C26.2121 7.50291 20.7273 2.01807 14.0954 2.01807C7.47523 2.01807 2 7.50291 2 14.123C2 20.7549 7.48484 26.2301 14.105 26.2301Z" fill="black"/>
<path d="M13.5494 18.9017C12.5908 18.9017 12.2531 18.6015 12.2531 18.0828C12.2531 16.5931 14.1443 14.5557 17.1501 14.5557C20.1422 14.5557 22.0237 16.5931 22.0237 18.0828C22.0237 18.6015 21.6977 18.9017 20.737 18.9017H13.5494ZM17.1501 13.5401C15.8887 13.5401 14.8317 12.4023 14.82 10.9627C14.8179 9.56792 15.8908 8.45886 17.1501 8.45886C18.3998 8.45886 19.4707 9.53909 19.4707 10.9531C19.4707 12.4023 18.4094 13.5401 17.1501 13.5401ZM7.27351 18.9017C6.50359 18.9017 6.21484 18.5738 6.21484 17.9989C6.21484 16.4429 7.88312 14.5365 10.4737 14.5365C11.5054 14.5365 12.3365 14.8456 12.9834 15.256C11.6882 16.2645 11.0057 18.0153 11.6151 18.9017H7.27351ZM10.4737 13.6552C9.37633 13.6552 8.44398 12.6772 8.44398 11.423C8.43437 10.204 9.38804 9.23886 10.4737 9.23886C11.5635 9.23886 12.4959 10.1848 12.4959 11.4134C12.4959 12.6772 11.5635 13.6552 10.4737 13.6552Z" fill="white"/>
</svg>
