<svg width="28" height="28" viewBox="0 0 28 28" fill="none" xmlns="http://www.w3.org/2000/svg">
<path d="M14.105 26.21C20.7369 26.21 26.2121 20.7273 26.2121 14.105C26.2121 7.47312 20.7273 2 14.0954 2C7.47523 2 2 7.47312 2 14.105C2 20.7273 7.48484 26.21 14.105 26.21ZM14.105 23.8255C8.71085 23.8255 4.39412 19.4991 4.39412 14.105C4.39412 8.71085 8.70124 4.38452 14.0954 4.38452C19.4895 4.38452 23.8276 8.71085 23.8276 14.105C23.8276 19.4991 19.4991 23.8255 14.105 23.8255Z" fill="black"/>
<path d="M16.7936 21.0594C17.1792 21.0594 17.5286 20.8027 17.5286 20.3638C17.5286 20.188 17.4977 20.0356 17.3976 19.8397L16.0591 17.142C15.9046 16.8491 15.7724 16.652 15.6384 16.4668L14.8485 15.3338L14.9167 15.1452C15.167 14.4493 15.2674 13.9953 15.3142 13.3069L15.441 11.4973C15.5156 10.4853 14.9383 9.67761 13.844 9.67761C13.1163 9.67761 12.4685 10.0451 11.7641 10.7112L10.6755 11.7415C10.3143 12.0805 10.2227 12.3638 10.1758 12.8112L10.0469 14.3478C10.0021 14.8144 10.2738 15.1276 10.7095 15.1606C11.1046 15.1862 11.4018 14.9434 11.4466 14.4373L11.5851 12.8005L12.1593 12.3176C12.3245 12.1801 12.5102 12.2633 12.4888 12.4958L12.3834 13.8664C12.3206 14.641 12.6998 15.1972 13.0781 15.6671L14.4016 17.3178C14.5209 17.4723 14.557 17.5456 14.6294 17.683L16.0724 20.5789C16.2248 20.9028 16.4751 21.0594 16.7936 21.0594ZM10.5747 21.0594C10.8037 21.0594 11.0083 20.9731 11.1414 20.8112L13.2227 18.3704C13.457 18.0955 13.4985 18.0605 13.5508 17.8112L13.6511 17.3684L12.4633 15.8792L12.1298 17.4852L10.2168 19.7171C10.057 19.8983 9.90039 20.0921 9.90039 20.3734C9.90039 20.7952 10.1901 21.0594 10.5747 21.0594ZM17.193 13.7551H18.8085C19.3007 13.7551 19.5862 13.4813 19.5862 13.0456C19.5862 12.627 19.3007 12.3437 18.8085 12.3437H17.1098L16.042 11.1586L15.9088 13.0142L16.3492 13.4525C16.5932 13.6944 16.7924 13.7551 17.193 13.7551ZM14.706 9.14792C15.5435 9.14792 16.2328 8.46284 16.2328 7.64675C16.2328 6.7955 15.5456 6.12964 14.706 6.12964C13.8686 6.12964 13.2049 6.7955 13.2049 7.64675C13.2049 8.46284 13.8707 9.14792 14.706 9.14792Z" fill="black"/>
</svg>
