<svg width="34" height="28" viewBox="0 0 34 28" fill="none" xmlns="http://www.w3.org/2000/svg">
<path d="M9.21046 20.7301C12.3375 20.7301 15.0265 19.7242 16.8173 17.9127C18.6061 19.7242 21.2972 20.7301 24.4242 20.7301C29.6083 20.7301 33.6347 17.571 33.6347 13.4938C33.6347 11.7264 32.8842 10.6682 31.5726 10.6682C31.0223 10.6682 30.5487 10.9023 30.1207 11.376C29.6433 11.9024 28.9502 12.2458 28.1391 12.2458C25.3073 12.2458 24.442 8.20914 19.7248 8.20914C18.5812 8.20914 17.5739 8.55812 16.8173 9.1764C16.0608 8.55812 15.0534 8.20914 13.9078 8.20914C9.19054 8.20914 8.32734 12.2458 5.49562 12.2458C4.68445 12.2458 3.98929 11.9024 3.51397 11.376C3.0839 10.9023 2.61023 10.6682 2.06203 10.6682C0.750466 10.6682 0 11.7264 0 13.4938C0 17.571 4.02633 20.7301 9.21046 20.7301ZM9.21046 18.5312C5.36272 18.5312 2.34865 16.3947 2.19467 13.6719C2.18413 13.3818 2.44124 13.3415 2.62452 13.4598C3.32132 14.0666 4.39148 14.394 5.49562 14.394C7.60124 14.394 9.00702 13.2562 10.1651 12.2622C11.3604 11.2522 12.326 10.4059 13.9141 10.4059C14.9789 10.4059 15.7807 10.8812 16.2302 11.6202C16.5832 12.0803 17.0515 12.0899 17.3948 11.6202C17.8422 10.8812 18.6558 10.4059 19.7205 10.4059C21.3087 10.4059 22.2743 11.2522 23.4696 12.2622C24.6276 13.2562 26.0334 14.394 28.1391 14.394C29.2432 14.394 30.3134 14.057 31.039 13.4214C31.234 13.2934 31.4484 13.3241 31.44 13.6719C31.286 16.3947 28.2698 18.5312 24.4242 18.5312C20.9944 18.5312 18.4666 17.1599 17.478 15.0458C17.1598 14.4604 16.4749 14.4508 16.1566 15.0458C15.1777 17.1599 12.6499 18.5312 9.21046 18.5312Z" fill="black"/>
</svg>
