<svg width="36" height="28" viewBox="0 0 36 28" fill="none" xmlns="http://www.w3.org/2000/svg">
<path d="M1.1264 23.7642C1.74116 23.7642 2.23897 23.2814 2.23897 22.6453C2.23897 17.1598 4.6828 12.2996 8.43913 9.24706L6.85968 7.65051C2.69062 11.1242 0 16.5631 0 22.6453C0 23.2814 0.502028 23.7642 1.1264 23.7642ZM34.2302 23.7642C34.8567 23.7642 35.3662 23.2814 35.3662 22.6453C35.3662 12.1913 27.4165 3.63965 17.6794 3.63965C15.3117 3.63965 13.0549 4.14379 10.9964 5.07215L12.7373 6.81308C14.279 6.22104 15.9424 5.89245 17.6794 5.89245C26.1891 5.89245 33.1273 13.4145 33.1273 22.6453C33.1273 23.2814 33.6176 23.7642 34.2302 23.7642ZM6.56273 23.7621C7.17749 23.7621 7.70834 23.2793 7.70834 22.6549C7.70834 18.8965 9.55757 15.5175 12.468 13.5764C12.3288 13.3538 12.2032 13.1227 12.1104 12.9087L11.0541 11.8428C7.62961 14.1807 5.44594 18.2314 5.44594 22.6549C5.44594 23.2793 5.93625 23.7621 6.56273 23.7621ZM29.5617 23.3546C29.7794 23.2106 29.9299 22.9472 29.9299 22.6549C29.9299 17.6381 27.1584 13.1018 22.931 10.9758C23.0773 11.7989 23.0283 12.656 22.7787 13.4782C25.4055 15.1491 27.1725 18.0204 27.469 21.2618L29.5617 23.3546ZM20.3386 14.4218C20.9702 13.7663 21.3661 12.8215 21.3661 11.7551C21.3661 9.54237 19.6551 7.83191 17.6986 7.83191C16.6547 7.83191 15.7015 8.35152 15.0801 9.1559L20.3386 14.4218ZM11.8228 23.9801H23.1839L16.4381 17.2343C12.5313 17.7195 10.1341 20.5125 10.1341 22.6355C10.1341 23.4818 10.7719 23.9801 11.8228 23.9801Z" fill="black"/>
<path d="M28.7373 27.4985C29.1015 27.8606 29.7064 27.8585 30.0568 27.4943C30.4072 27.1322 30.421 26.5486 30.0568 26.1769L7.57561 3.68608C7.20178 3.31225 6.61608 3.31436 6.24436 3.68608C5.89186 4.03858 5.89186 4.64561 6.24436 5.00561L28.7373 27.4985Z" fill="black"/>
</svg>
