<svg width="28" height="28" viewBox="0 0 28 28" fill="none" xmlns="http://www.w3.org/2000/svg">
<path d="M14.105 26.21C20.7369 26.21 26.2121 20.7273 26.2121 14.105C26.2121 7.47312 20.7273 2 14.0954 2C7.47523 2 2 7.47312 2 14.105C2 20.7273 7.48484 26.21 14.105 26.21Z" fill="black"/>
<path d="M7.2998 16.0105C7.2998 14.033 8.39081 12.4742 9.85472 12.4742H10.7268C10.1613 13.2493 9.58331 14.3724 9.56199 15.954C9.53855 17.4212 10.0467 18.6934 11.1977 19.5584H10.0828C8.47284 19.5584 7.2998 17.9612 7.2998 16.0105ZM10.4493 15.9657C10.4707 14.461 10.8682 13.5277 11.6981 12.4304C12.6613 11.1336 13.9263 9.62257 14.8778 7.77593C15.1345 7.27108 15.3794 6.96101 15.8418 6.96101C16.3647 6.96101 16.7674 7.34116 16.7674 7.94515C16.7674 9.07343 15.7007 10.643 15.7007 11.4966C15.7007 11.9487 16.0525 12.2323 16.626 12.2323H18.8702C19.5156 12.2323 20.0142 12.7522 20.0142 13.4073C20.0142 13.7408 19.8937 14.0551 19.7083 14.2447C19.6038 14.3183 19.5824 14.3727 19.6774 14.4399C19.8426 14.6103 19.9267 14.9375 19.9267 15.2347C19.9267 15.6737 19.7392 16.0114 19.4313 16.2052C19.3427 16.2575 19.331 16.3386 19.3928 16.4314C19.5346 16.6135 19.622 16.8725 19.622 17.157C19.622 17.6558 19.2937 18.0425 18.9028 18.2075C18.8313 18.2309 18.8292 18.2928 18.8739 18.376C18.94 18.507 19.0061 18.7095 19.0061 18.9334C19.0061 19.5502 18.5149 19.8664 17.9685 20.0091C17.6128 20.0933 16.9938 20.1498 16.1913 20.1498L15.3079 20.138C12.3276 20.1167 10.4142 18.3373 10.4493 15.9657Z" fill="white"/>
</svg>
