<svg width="28" height="28" viewBox="0 0 28 28" fill="none" xmlns="http://www.w3.org/2000/svg">
<path d="M2 18.6983C2 22.686 4.57179 25.9874 7.84905 25.9874H11.5979C13.1241 26.7704 14.9457 27.2169 16.9529 27.2169H18.5443C20.018 27.2169 21.2769 27.1286 22.1002 26.9209C23.7697 26.5131 24.8321 25.3199 24.8321 23.8379C24.8321 23.5661 24.7894 23.3251 24.7233 23.0842C25.5031 22.4645 25.9388 21.5774 25.9388 20.6062C25.9388 20.1533 25.8493 19.7047 25.6915 19.3436C26.2189 18.7771 26.5097 17.9793 26.5097 17.14C26.5097 16.6021 26.3829 16.0438 26.1624 15.621C26.4788 15.1344 26.6621 14.4709 26.6621 13.7659C26.6621 11.9582 25.2704 10.5527 23.4669 10.5527H19.2338C19.0055 10.5527 18.8562 10.446 18.8647 10.2381C18.9237 9.06788 20.7697 6.25069 20.7697 3.93905C20.7697 2.23046 19.5669 1 17.9265 1C16.7267 1 15.9029 1.62484 15.1224 3.11335C13.7134 5.83233 11.9905 8.24593 9.45569 11.3582H7.42084C4.34914 11.3582 2 14.6266 2 18.6983ZM9.08279 18.6081C9.08279 16.1884 9.62514 14.6467 11.157 12.5833C12.8752 10.2824 15.2623 7.51725 16.9826 4.09374C17.3454 3.36061 17.5929 3.1942 17.9567 3.1942C18.3844 3.1942 18.6704 3.5003 18.6704 4.05295C18.6704 5.74398 16.7464 8.5539 16.7464 10.4026C16.7464 11.7782 17.8454 12.6519 19.3322 12.6519H23.4183C24.0711 12.6519 24.5628 13.1415 24.5628 13.7976C24.5628 14.2733 24.406 14.5773 24.0209 14.9784C23.7214 15.265 23.6832 15.6871 23.9454 15.9836C24.2687 16.4572 24.4062 16.7516 24.4062 17.1442C24.4062 17.6062 24.1855 18.0083 23.7268 18.3508C23.3464 18.6346 23.2102 19.0794 23.4228 19.5344C23.6799 20.0005 23.8037 20.2297 23.8037 20.5914C23.8037 21.1321 23.4549 21.549 22.7295 21.9266C22.3683 22.138 22.2739 22.5177 22.4215 22.8693C22.6627 23.4712 22.6958 23.5703 22.6937 23.8274C22.6937 24.3095 22.3353 24.7009 21.574 24.8929C20.9082 25.0548 19.8312 25.1294 18.44 25.1273L17.0649 25.1251C12.2747 25.1167 9.08279 22.4167 9.08279 18.6081ZM4.06975 18.6983C4.06975 15.8141 5.55358 13.5102 7.2521 13.4406C7.54554 13.4385 7.84109 13.4364 8.13453 13.4322C7.33414 14.9983 6.9814 16.6326 6.9814 18.6046C6.9814 20.6812 7.70187 22.5156 9.00945 23.9523C8.58781 23.9523 8.16312 23.9502 7.73304 23.9481C5.75679 23.8764 4.06975 21.5385 4.06975 18.6983Z" fill="black"/>
</svg>
