<svg width="28" height="28" viewBox="0 0 28 28" fill="none" xmlns="http://www.w3.org/2000/svg">
<path d="M14.105 26.21C20.7369 26.21 26.2121 20.7273 26.2121 14.105C26.2121 7.47312 20.7273 2 14.0954 2C7.47523 2 2 7.47312 2 14.105C2 20.7273 7.48484 26.21 14.105 26.21ZM14.105 23.8255C8.71085 23.8255 4.39412 19.4991 4.39412 14.105C4.39412 8.71085 8.70124 4.38452 14.0954 4.38452C19.4895 4.38452 23.8276 8.71085 23.8276 14.105C23.8276 19.4991 19.4991 23.8255 14.105 23.8255Z" fill="black"/>
<path d="M13.0312 21.9448C13.4828 21.9448 13.7971 21.6573 13.7971 21.1182V16.4443C13.7971 16.2045 13.9026 16.0639 14.0955 16.0639C14.267 16.0639 14.3767 16.1949 14.3767 16.4443V21.1182C14.3767 21.6552 14.7081 21.9448 15.1673 21.9448C15.6189 21.9448 15.9215 21.6573 15.9215 21.1182V12.9819C15.9215 12.7901 16.0366 12.657 16.191 12.657C16.3434 12.657 16.4413 12.7805 16.4413 12.9819V16.2645C16.4413 16.745 16.7439 17.0187 17.1658 17.0187C17.5706 17.0187 17.8518 16.745 17.8518 16.2645V13.1441C17.8518 11.0844 16.6935 10.4933 14.1072 10.4933H13.1376C12.6677 10.4933 12.4492 10.4101 12.0923 10.1597L11.098 9.43107L10.9499 7.14756C10.9147 6.65327 10.6058 6.40085 10.1915 6.42639C9.77496 6.45733 9.4991 6.73741 9.53426 7.24131L9.67699 9.53959C9.71004 10.0287 9.93809 10.3271 10.2725 10.5762L11.9326 11.8407C12.1586 12.0026 12.2524 12.1838 12.2524 12.447V21.1182C12.2524 21.6552 12.5763 21.9448 13.0312 21.9448ZM14.1072 9.82295C14.9425 9.82295 15.6318 9.12404 15.6318 8.33349C15.6318 7.48435 14.9425 6.80677 14.1072 6.80677C13.2623 6.80677 12.6081 7.48435 12.6081 8.33349C12.6081 9.12615 13.2623 9.82295 14.1072 9.82295Z" fill="black"/>
</svg>
