<svg width="28" height="28" viewBox="0 0 28 28" fill="none" xmlns="http://www.w3.org/2000/svg">
<path d="M12.6257 1.09492C7.38812 1.09914 4 4.51797 4 10.2175V13.0147C4 15.7935 5.34906 17.4557 7.61945 17.5023C7.92484 18.3725 8.68491 18.9083 9.70725 18.9083C10.0377 18.9083 10.3586 18.8561 10.6677 18.7515C11.0146 19.7155 11.8049 20.2897 12.8476 20.2897C13.075 20.2897 13.3119 20.2588 13.5489 20.1915V23.7374C13.5489 25.3384 14.6113 26.4114 16.1207 26.4114C17.6565 26.4114 18.7274 25.3384 18.7274 23.7374V14.4268C18.7274 14.3619 18.7626 14.3172 18.819 14.3172C18.8638 14.3172 18.8947 14.3481 18.9086 14.3929L19.5714 15.9599C20.0015 16.8339 20.7065 17.3071 21.5596 17.3071C22.8313 17.3071 23.8961 16.4814 23.8961 15.0848C23.8961 14.6952 23.8194 14.2012 23.6683 13.772L21.5741 7.91218C19.9649 3.40586 16.9227 1.09281 12.6257 1.09492ZM12.5608 3.08334C15.88 3.08334 18.3477 4.6499 19.7858 8.56374L21.9339 14.3781C21.9883 14.537 22.0213 14.6704 22.0213 14.8464C22.0213 15.2101 21.7525 15.5237 21.328 15.5237C20.9823 15.5237 20.7711 15.3093 20.6186 14.9615L18.9531 11.3673C18.6805 10.7708 18.2793 10.5686 17.8396 10.5686C17.2926 10.5686 16.8693 10.9912 16.8693 11.6188L16.8672 23.8576C16.8672 24.2971 16.5653 24.6128 16.1355 24.6128C15.7056 24.6128 15.407 24.2971 15.407 23.8576V15.249C15.407 14.7798 15.009 14.4107 14.5398 14.4107C14.0802 14.4107 13.7015 14.7798 13.7015 15.249V18.3008C13.517 18.3798 13.277 18.4279 13.0637 18.4279C12.5474 18.4279 12.2275 18.0929 12.2275 17.5457V14.7826C12.2275 14.2963 11.8337 13.9527 11.3783 13.9527C10.9305 13.9527 10.5367 14.2963 10.5367 14.7826V16.9215C10.3544 16.9984 10.1122 17.0486 9.90858 17.0486C9.38475 17.0486 9.07444 16.7137 9.07444 16.1664V14.3214C9.07444 13.8405 8.66686 13.4926 8.20304 13.4926C7.75515 13.4926 7.36679 13.8405 7.36679 14.3214V15.513C6.41452 15.513 5.88225 14.5858 5.88225 12.9154V10.4176C5.88225 5.74678 8.40085 3.08334 12.5608 3.08334Z" fill="black"/>
</svg>
