<svg width="32" height="28" viewBox="0 0 32 28" fill="none" xmlns="http://www.w3.org/2000/svg">
<path d="M8.35167 25.2755H22.9629C24.9895 25.2755 25.9638 24.641 25.9638 23.2655C25.9638 20.0581 21.952 15.7516 15.6562 15.7516C9.37214 15.7516 5.36035 20.0581 5.36035 23.2655C5.36035 24.641 6.33465 25.2755 8.35167 25.2755ZM7.96214 23.2507C7.68487 23.2507 7.58245 23.1666 7.58245 22.9479C7.58245 21.1526 10.4852 17.7764 15.6562 17.7764C20.839 17.7764 23.7417 21.1526 23.7417 22.9479C23.7417 23.1666 23.6297 23.2507 23.3524 23.2507H7.96214ZM15.6658 14.385C18.4896 14.385 20.7937 11.8816 20.7937 8.81598C20.7937 5.79067 18.5004 3.38879 15.6658 3.38879C12.843 3.38879 10.5283 5.82911 10.54 8.83731C10.5422 11.8912 12.8346 14.385 15.6658 14.385ZM15.6658 12.3602C14.0456 12.3602 12.6651 10.8335 12.663 8.83309C12.6513 6.88895 14.0231 5.41355 15.6658 5.41355C17.3128 5.41355 18.6708 6.86973 18.6708 8.81598C18.6708 10.8143 17.2999 12.3602 15.6658 12.3602Z" fill="black"/>
<path d="M0.328271 9.4762L3.55749 11.8926C4.24116 12.408 5.05889 12.1002 5.05889 11.2612V9.80174H8.04436C8.59795 9.80174 9.03975 9.36955 9.03975 8.81596C9.03975 8.27409 8.59795 7.83229 8.04436 7.83229H5.05889V6.41222C5.05889 5.52628 4.22405 5.25909 3.55749 5.75737L0.328271 8.19299C-0.108369 8.52417 -0.110478 9.14502 0.328271 9.4762ZM22.2838 8.81596C22.2838 9.36955 22.716 9.80174 23.2696 9.80174H26.2551V11.2612C26.2551 12.1002 27.0824 12.408 27.7565 11.8926L30.9857 9.4762C31.434 9.14502 31.4319 8.52417 30.9857 8.19299L27.7565 5.75737C27.0995 5.25909 26.2551 5.52628 26.2551 6.41222V7.83229H23.2696C22.716 7.83229 22.2838 8.27409 22.2838 8.81596Z" fill="black"/>
</svg>
