<svg width="28" height="28" viewBox="0 0 28 28" fill="none" xmlns="http://www.w3.org/2000/svg">
<path d="M14.105 26.21C20.7369 26.21 26.2121 20.7273 26.2121 14.105C26.2121 7.47312 20.7273 2 14.0954 2C7.47523 2 2 7.47312 2 14.105C2 20.7273 7.48484 26.21 14.105 26.21ZM14.105 23.8255C8.71085 23.8255 4.39412 19.4991 4.39412 14.105C4.39412 8.71085 8.70124 4.38452 14.0954 4.38452C19.4895 4.38452 23.8276 8.71085 23.8276 14.105C23.8276 19.4991 19.4991 23.8255 14.105 23.8255Z" fill="black"/>
<path d="M13.5537 18.6762H20.4882C21.4053 18.6762 21.7175 18.4016 21.7175 17.8892C21.7175 16.4645 19.9072 14.4983 17.0279 14.4983C14.1348 14.4983 12.3148 16.4645 12.3148 17.8892C12.3148 18.4016 12.6387 18.6762 13.5537 18.6762ZM17.0279 13.5221C18.2415 13.5221 19.2612 12.4278 19.2612 11.0319C19.2612 9.66574 18.2319 8.6366 17.0279 8.6366C15.8122 8.6366 14.7807 9.69457 14.7828 11.0415C14.7966 12.4278 15.8101 13.5221 17.0279 13.5221ZM7.51297 18.6762H11.7024C11.1111 17.8388 11.7702 16.1476 13.0175 15.1827C12.3983 14.7861 11.597 14.4887 10.5929 14.4887C8.10125 14.4887 6.5 16.3259 6.5 17.8287C6.5 18.3718 6.77703 18.6762 7.51297 18.6762ZM10.5929 13.6351C11.6488 13.6351 12.5438 12.691 12.5438 11.4784C12.5438 10.2955 11.6488 9.38145 10.5929 9.38145C9.55086 9.38145 8.63656 10.3147 8.63656 11.488C8.64617 12.691 9.53914 13.6351 10.5929 13.6351Z" fill="black"/>
</svg>
