<svg width="30" height="28" viewBox="0 0 30 28" fill="none" xmlns="http://www.w3.org/2000/svg">
<path d="M8.00175 6.20687C9.44807 6.20687 10.611 5.05562 10.611 3.60929C10.611 2.16297 9.44807 1 8.00175 1C6.55542 1 5.39456 2.16297 5.39456 3.60929C5.39456 5.05562 6.55542 6.20687 8.00175 6.20687ZM8.00175 17.7109C8.46323 17.7109 8.64018 18.018 8.91393 18.8659C9.31659 20.0601 10.5086 25.0208 10.9113 26.477C11.1189 27.2289 11.5171 27.5483 12.089 27.5483C12.8728 27.5483 13.353 26.837 13.1357 26.065C13.0516 25.7486 11.3355 18.5711 11.0873 17.0915C10.8881 15.8277 10.8412 13.2979 10.8391 12.021C10.8391 11.8419 11.0395 11.7758 11.1503 11.9294C12.0482 13.1957 13.6178 15.4356 13.9364 15.8106C14.3048 16.2259 14.8926 16.2983 15.3686 16.03C15.9937 15.6967 16.1428 15.0205 15.8798 14.5541C15.7881 14.3762 15.655 14.1984 15.5399 14.0247L12.4584 9.47968C11.4996 8.06382 10.3021 7.39515 8.00175 7.39515C5.70347 7.39515 4.50605 8.06382 3.54722 9.47968L0.465657 14.0247C0.350579 14.1984 0.217454 14.3762 0.125813 14.5541C-0.137155 15.0205 0.00229824 15.6967 0.636984 16.03C1.113 16.2983 1.70081 16.2259 2.05964 15.8106C2.37815 15.4356 3.95737 13.2053 4.85526 11.9294C4.95651 11.7855 5.16651 11.8419 5.16651 12.0306C5.16441 13.3075 5.10792 15.8277 4.9087 17.0915C4.668 18.5711 2.95402 25.7486 2.86987 26.065C2.65261 26.837 3.13284 27.5483 3.91659 27.5483C4.48847 27.5483 4.88667 27.2289 5.09432 26.477C5.49698 25.0208 6.68901 20.0601 7.09167 18.8659C7.36542 18.018 7.54237 17.7109 8.00175 17.7109ZM21.6217 6.20687C23.0681 6.20687 24.231 5.05562 24.231 3.60929C24.231 2.16297 23.0681 1 21.6217 1C20.1754 1 19.0146 2.16297 19.0146 3.60929C19.0146 5.05562 20.1754 6.20687 21.6217 6.20687ZM21.6217 17.7109C22.0736 17.7109 22.2581 18.018 22.5339 18.8659C22.927 20.0601 24.1286 25.0208 24.5313 26.477C24.7389 27.2289 25.1371 27.5483 25.7069 27.5483C26.4928 27.5483 26.973 26.837 26.7536 26.065C26.662 25.7486 24.9459 18.5711 24.7052 17.0915C24.5081 15.8277 24.4516 13.2979 24.4495 12.021C24.4495 11.8419 24.6595 11.7758 24.7607 11.9294C25.6682 13.1957 27.2378 15.4356 27.5563 15.8106C27.9227 16.2259 28.503 16.2983 28.9865 16.03C29.6137 15.6967 29.7628 15.0205 29.4902 14.5541C29.3964 14.3762 29.275 14.1984 29.1503 14.0247L26.0784 9.47968C25.1078 8.06382 23.9221 7.39515 21.6217 7.39515C19.3235 7.39515 18.126 8.06382 17.1672 9.47968L14.0857 14.0247C13.961 14.1984 13.8374 14.3762 13.7437 14.5541C13.4828 15.0205 13.6223 15.6967 14.2474 16.03C14.733 16.2983 15.3112 16.2259 15.6796 15.8106C15.9981 15.4356 17.5678 13.2053 18.4753 11.9294C18.5744 11.7855 18.7865 11.8419 18.7865 12.0306C18.7844 13.3075 18.7279 15.8277 18.5287 17.0915C18.288 18.5711 16.574 25.7486 16.4899 26.065C16.2609 26.837 16.7528 27.5483 17.5366 27.5483C18.1085 27.5483 18.4949 27.2289 18.7047 26.477C19.1053 25.0208 20.309 20.0601 20.7021 18.8659C20.9758 18.018 21.1624 17.7109 21.6217 17.7109Z" fill="black"/>
</svg>
