<svg width="29" height="28" viewBox="0 0 29 28" fill="none" xmlns="http://www.w3.org/2000/svg">
<path d="M13.7749 9.27413C15.2309 9.27413 16.413 8.09406 16.413 6.63812C16.413 5.18219 15.2309 4 13.7749 4C12.319 4 11.1464 5.18219 11.1464 6.63812C11.1464 8.09406 12.319 9.27413 13.7749 9.27413ZM1.0404 7.54585L9.74649 12.2137C10.0172 12.3597 10.1665 12.6252 10.0791 12.929L9.24282 15.9705C11.5343 16.3419 12.3401 17.7876 14.0573 17.7876C14.4457 17.7876 14.7764 17.6873 15.0996 17.5347L16.249 13.2824C16.3641 12.853 16.4749 12.6355 16.9118 12.415L26.0344 7.54585C26.7084 7.18163 26.9651 6.33085 26.6201 5.65468C26.2282 4.98062 25.4072 4.70805 24.7172 5.07648L15.6691 9.87531C14.2545 10.6274 12.9291 10.7191 11.2395 9.81671L2.35336 5.07648C1.66758 4.70805 0.818913 4.98062 0.464305 5.65679C0.0958679 6.33085 0.364227 7.17952 1.0404 7.54585ZM0.727966 21.0269H1.95375C5.15648 21.0269 5.86077 19.0806 8.00554 19.0806C10.0765 19.0806 10.8504 21.0269 14.0573 21.0269C17.2718 21.0269 18.0361 19.0806 20.1166 19.0806C22.2635 19.0806 22.9561 21.0269 26.1684 21.0269H27.3942C27.7976 21.0269 28.1222 20.7119 28.1222 20.3085C28.1222 19.9051 27.7976 19.5805 27.3942 19.5805H26.1684C23.9437 19.5805 23.1905 17.6364 20.1166 17.6364C17.107 17.6364 16.282 19.5805 14.0573 19.5805C11.8305 19.5805 11.0152 17.6364 8.00554 17.6364C4.93172 17.6364 4.18054 19.5805 1.95375 19.5805H0.727966C0.314999 19.5805 0 19.9051 0 20.3085C0 20.7119 0.314999 21.0269 0.727966 21.0269ZM0.998905 24.426C1.40461 24.426 1.72617 24.1044 1.72617 23.6987C1.72617 23.3047 1.40461 22.9832 0.998905 22.9832C0.602812 22.9832 0.283359 23.3047 0.283359 23.6987C0.283359 24.1044 0.602812 24.426 0.998905 24.426ZM3.23367 24.0233C3.62765 24.0233 3.94921 23.7018 3.94921 23.3057C3.94921 22.9021 3.62765 22.5805 3.23367 22.5805C2.82797 22.5805 2.5064 22.9021 2.5064 23.3057C2.5064 23.7018 2.82797 24.0233 3.23367 24.0233ZM5.30765 23.0401C5.71125 23.0401 6.03281 22.7282 6.03281 22.3246C6.03281 21.9189 5.71125 21.6069 5.30765 21.6069C4.91156 21.6069 4.59 21.9189 4.59 22.3246C4.59 22.7282 4.91156 23.0401 5.30765 23.0401ZM7.54148 22.4908C7.94718 22.4908 8.26663 22.1692 8.26663 21.7656C8.26663 21.3695 7.94718 21.048 7.54148 21.048C7.14539 21.048 6.82383 21.3695 6.82383 21.7656C6.82383 22.1692 7.14539 22.4908 7.54148 22.4908ZM9.7732 23.0401C10.1789 23.0401 10.4909 22.7282 10.4909 22.3246C10.4909 21.9189 10.1789 21.6069 9.7732 21.6069C9.3696 21.6069 9.05765 21.9189 9.05765 22.3246C9.05765 22.7282 9.3696 23.0401 9.7732 23.0401ZM11.8664 24.0233C12.2721 24.0233 12.5916 23.7018 12.5916 23.3057C12.5916 22.9021 12.2721 22.5805 11.8664 22.5805C11.4703 22.5805 11.1487 22.9021 11.1487 23.3057C11.1487 23.7018 11.4703 24.0233 11.8664 24.0233ZM14.0766 24.426C14.4705 24.426 14.7921 24.1044 14.7921 23.6987C14.7921 23.3047 14.4705 22.9832 14.0766 22.9832C13.6709 22.9832 13.3493 23.3047 13.3493 23.6987C13.3493 24.1044 13.6709 24.426 14.0766 24.426ZM16.275 24.0233C16.6807 24.0233 16.9926 23.7018 16.9926 23.3057C16.9926 22.9021 16.6807 22.5805 16.275 22.5805C15.8714 22.5805 15.5594 22.9021 15.5594 23.3057C15.5594 23.7018 15.8714 24.0233 16.275 24.0233ZM18.3682 23.0401C18.7739 23.0401 19.0955 22.7282 19.0955 22.3246C19.0955 21.9189 18.7739 21.6069 18.3682 21.6069C17.9742 21.6069 17.6526 21.9189 17.6526 22.3246C17.6526 22.7282 17.9742 23.0401 18.3682 23.0401ZM20.5999 22.4908C21.0056 22.4908 21.3176 22.1692 21.3176 21.7656C21.3176 21.3695 21.0056 21.048 20.5999 21.048C20.1963 21.048 19.8844 21.3695 19.8844 21.7656C19.8844 22.1692 20.1963 22.4908 20.5999 22.4908ZM22.8358 23.0401C23.2415 23.0401 23.5514 22.7282 23.5514 22.3246C23.5514 21.9189 23.2415 21.6069 22.8358 21.6069C22.4301 21.6069 22.1182 21.9189 22.1182 22.3246C22.1182 22.7282 22.4301 23.0401 22.8358 23.0401ZM24.9194 24.0233C25.323 24.0233 25.635 23.7018 25.635 23.3057C25.635 22.9021 25.323 22.5805 24.9194 22.5805C24.5137 22.5805 24.2018 22.9021 24.2018 23.3057C24.2018 23.7018 24.5137 24.0233 24.9194 24.0233ZM27.1329 24.426C27.5386 24.426 27.8601 24.1044 27.8601 23.6987C27.8601 23.3047 27.5386 22.9832 27.1329 22.9832C26.7389 22.9832 26.4173 23.3047 26.4173 23.6987C26.4173 24.1044 26.7389 24.426 27.1329 24.426Z" fill="black"/>
</svg>
