<svg width="28" height="30" viewBox="0 0 28 30" fill="none" xmlns="http://www.w3.org/2000/svg">
<path d="M14.8238 5.26453C16.2702 5.26453 17.4406 4.08234 17.4406 2.61679C17.4406 1.17047 16.2702 0 14.8238 0C13.3562 0 12.1761 1.17047 12.1761 2.61679C12.1761 4.08234 13.3562 5.26453 14.8238 5.26453ZM17.5576 12.2623C18.0655 12.7894 19.0377 12.7563 19.4827 12.0525L22.362 7.43577C23.2852 5.9557 21.1173 4.76742 20.2665 6.12609L18.2124 9.43734L16.6227 7.83374C15.0367 6.25523 13.3016 5.93671 10.8964 6.20835L6.68236 6.68132C6.11166 6.74413 5.66869 7.20093 5.60588 7.74609L5.01151 12.4001C4.81346 13.9568 7.23478 14.3604 7.44666 12.6961L7.91541 9.0164L10.0782 8.77241C10.3618 8.75108 10.5411 8.91655 10.4963 9.23741L9.94135 13.7976C9.66549 15.9832 10.9339 17.2558 13.096 17.0993L17.3853 16.7946L16.1026 21.4769C15.6458 23.137 18.0512 23.7215 18.4824 22.1083L20.1985 15.783C20.4221 14.944 19.8514 14.2284 18.9207 14.2284H14.4781L15.0364 10.3994C15.0887 10.0645 15.3716 10.0549 15.5699 10.2724L17.5576 12.2623ZM11.1036 18.0321L10.8287 22.1576L8.60447 27.716C8.19877 28.7468 8.93986 29.4644 9.70861 29.4644C10.1867 29.4644 10.667 29.2057 10.9119 28.5902L13.1851 22.8827C13.2106 22.7965 13.2479 22.6985 13.2596 22.6101L13.9074 18.2461L13.1802 18.2951C12.4103 18.344 11.7052 18.2461 11.1036 18.0321Z" fill="black"/>
</svg>
