<svg width="28" height="28" viewBox="0 0 28 28" fill="none" xmlns="http://www.w3.org/2000/svg">
<path d="M2.35622 17.1802L11.7598 26.5838C13.5532 28.3772 15.3886 28.3869 17.1703 26.6147L26.6145 17.161C28.3887 15.3868 28.377 13.5439 26.5857 11.7505L17.1896 2.35437C15.3982 0.563039 13.5629 0.54382 11.7811 2.32554L2.32528 11.7697C0.543563 13.5535 0.56278 15.3868 2.35622 17.1802ZM4.08261 15.6622C3.30753 14.8775 3.27987 14.0787 4.09222 13.2664L13.2682 4.09037C14.0806 3.27802 14.8793 3.29607 15.664 4.08076L24.8593 13.276C25.6343 14.0511 25.662 14.8615 24.8497 15.6718L15.6736 24.8499C14.8613 25.6602 14.0433 25.6346 13.2778 24.8691L4.08261 15.6622Z" fill="black"/>
<path d="M17.1679 21.4266C17.546 21.4266 17.9029 21.17 17.9029 20.731C17.9029 20.5552 17.8645 20.4029 17.7644 20.2069L16.4238 17.5093C16.2789 17.2163 16.1371 17.0192 16.0052 16.8341L15.2228 15.7011L15.291 15.5124C15.5413 14.8165 15.6417 14.3626 15.6885 13.6742L15.8153 11.8646C15.8899 10.8526 15.3051 10.0449 14.2087 10.0449C13.4906 10.0449 12.8331 10.4124 12.1406 11.0785L11.0498 12.1088C10.6908 12.4477 10.5874 12.7311 10.5501 13.1785L10.4137 14.7151C10.3765 15.1817 10.6481 15.4948 11.0742 15.5279C11.4789 15.5534 11.7761 15.3106 11.823 14.8046L11.9498 13.1677L12.5357 12.6849C12.6988 12.5473 12.8845 12.6305 12.8631 12.863L12.7577 14.2337C12.6874 15.0083 13.0741 15.5644 13.4545 16.0344L14.7663 17.6851C14.8973 17.8395 14.9313 17.9129 15.0037 18.0502L16.4371 20.9462C16.5895 21.2701 16.8494 21.4266 17.1679 21.4266ZM10.949 21.4266C11.178 21.4266 11.373 21.3404 11.5157 21.1784L13.5991 18.7376C13.8313 18.4627 13.8632 18.4278 13.9176 18.1784L14.0179 17.7357L12.8376 16.2465L12.4966 17.8524L10.5815 20.0844C10.4334 20.2655 10.2769 20.4594 10.2769 20.7406C10.2769 21.1625 10.5644 21.4266 10.949 21.4266ZM17.5673 14.1223H19.1828C19.675 14.1223 19.9626 13.8486 19.9626 13.4129C19.9626 12.9943 19.675 12.7109 19.1828 12.7109H17.4745L16.4163 11.5259L16.2853 13.3815L16.7256 13.8197C16.9579 14.0616 17.1688 14.1223 17.5673 14.1223ZM15.0803 9.51523C15.9103 9.51523 16.5974 8.83016 16.5974 8.01406C16.5974 7.16281 15.9124 6.49695 15.0803 6.49695C14.2429 6.49695 13.5792 7.16281 13.5792 8.01406C13.5792 8.83016 14.245 9.51523 15.0803 9.51523Z" fill="black"/>
</svg>
