<svg width="28" height="28" viewBox="0 0 28 28" fill="none" xmlns="http://www.w3.org/2000/svg">
<path d="M2 19.8242C2 22.9072 4.14687 24.9751 7.37796 24.9751C8.3989 24.9751 9.49225 24.6195 10.2582 24.0219C9.59608 23.6459 9.05702 23.1589 8.43499 22.374C8.14859 22.5102 7.79163 22.5859 7.43679 22.5859C6.45359 22.5859 5.79101 22.0065 5.79101 21.178C5.79101 20.3825 6.38304 19.8362 7.24999 19.8362C8.00304 19.8362 8.5196 20.2845 9.08304 20.8981C10.2446 22.1525 11.3855 23.6368 14.0148 23.6368C16.6461 23.6368 17.7891 22.1546 18.9486 20.8981C19.5099 20.2824 20.0286 19.8362 20.7816 19.8362C21.6369 19.8362 22.2406 20.3825 22.2406 21.178C22.2406 22.0065 21.578 22.5859 20.5852 22.5859C20.24 22.5859 19.883 22.5102 19.587 22.374C18.9746 23.1589 18.4355 23.6459 17.7734 24.0219C18.5394 24.6195 19.6327 24.9751 20.6516 24.9751C23.8826 24.9751 26.0316 22.9072 26.0316 19.8242C26.0316 16.8629 23.8765 14.6902 20.809 14.3863C19.6191 11.5887 18.7775 8.59437 18.1294 5.80273C17.5608 3.31625 16.2598 2 14.0148 2C11.7718 2 10.4729 3.31625 9.90008 5.80273C9.25203 8.59437 8.41039 11.5887 7.22257 14.3863C4.15507 14.6902 2 16.8629 2 19.8242Z" fill="black"/>
</svg>
