<svg width="28" height="28" viewBox="0 0 28 28" fill="none" xmlns="http://www.w3.org/2000/svg">
<path d="M4 18.2415C4 23.496 7.53226 26.6263 12.288 26.6263C15.8816 26.6263 18.1902 25.169 19.7823 22.2404C20.8893 20.4217 21.6756 17.9708 22.3464 15.7867C22.6912 14.6884 23.1669 13.289 23.2028 12.6716C23.245 11.9755 22.7901 11.4756 22.0841 11.4334C21.2952 11.3849 20.7845 11.86 20.2771 12.9227L18.6355 16.4331C18.482 16.7849 18.3135 16.9108 18.1387 16.9108C17.9158 16.9108 17.7622 16.7828 17.7622 16.4001V4.01429C17.7622 3.26172 17.1723 2.66969 16.4197 2.66969C15.6735 2.66969 15.0794 3.26383 15.0794 4.01429V13.0143C14.7777 12.9034 14.4473 12.8139 14.0955 12.7457V2.35211C14.0955 1.60164 13.5034 1 12.753 1C12.0025 1 11.403 1.60164 11.403 2.35211V12.6189C11.0629 12.6423 10.7111 12.6946 10.371 12.7469V3.33133C10.371 2.58297 9.77686 1.98883 9.02851 1.98883C8.28015 1.98883 7.68601 2.58297 7.68601 3.33133V13.5501C7.3246 13.7207 6.99413 13.903 6.6946 14.0971V6.98429C6.6946 6.23172 6.10257 5.63969 5.35422 5.63969C4.60375 5.63969 4 6.23172 4 6.98429V18.2415Z" fill="black"/>
</svg>
