<svg width="28" height="28" viewBox="0 0 28 28" fill="none" xmlns="http://www.w3.org/2000/svg">
<path d="M6.66921 8.93175C8.12514 8.93175 9.29561 7.75917 9.29561 6.30324C9.29561 4.85691 8.12514 3.67683 6.66921 3.67683C5.21327 3.67683 4.0407 4.85691 4.0407 6.30324C4.0407 7.75917 5.21327 8.93175 6.66921 8.93175ZM2.03351 13.9064L2.72374 18.1502C3.00382 19.7688 5.21866 19.4355 4.95991 17.8328L4.36225 14.2012L6.73905 13.2733C7.08757 13.139 7.39132 13.1922 7.53733 13.5173L9.74772 17.8912C10.4187 19.2173 10.9684 19.6242 11.5159 20.0172L18.6666 25.2698C19.9658 26.226 21.5237 24.337 20.068 23.2593L14.5044 19.1817C14.2538 18.9993 14.2772 18.6635 14.547 18.5121L18.3148 16.3432L23.2555 18.7059C24.7229 19.3938 25.8889 17.3397 24.1765 16.5208L18.8867 14.0027C18.2316 13.6938 17.6129 13.7833 17.0698 14.1049L14.5794 15.5589C14.2723 15.7359 14.0548 15.6548 13.9461 15.4235L11.9424 11.3416C11.7633 10.9814 11.8144 10.635 12.1972 10.4505L14.023 9.61964C14.6417 9.32995 14.8707 9.11808 15.0411 8.52698L16.2022 4.50581C16.6472 2.93621 14.5304 2.35801 14.0778 3.9255L12.954 7.84566L2.86413 12.2824C2.16124 12.588 1.90038 13.1268 2.03351 13.9064Z" fill="black"/>
</svg>
