<svg width="28" height="29" viewBox="0 0 28 29" fill="none" xmlns="http://www.w3.org/2000/svg">
<path d="M13.3778 7.66124C14.8241 7.66124 15.9967 6.48867 15.9967 5.03273C15.9967 3.5864 14.8241 2.41594 13.3778 2.41594C11.9123 2.41594 10.7418 3.5864 10.7418 5.03273C10.7418 6.48867 11.9123 7.66124 13.3778 7.66124ZM6.82889 28.9415C7.521 29.0629 8.16413 28.6083 8.29725 27.8948L9.41897 21.8665L14.043 19.3542C14.1845 19.2658 14.3144 19.2989 14.3772 19.4426L16.7326 25.1219C16.8754 25.4393 17.1032 25.6608 17.3769 25.8056L22.7329 28.7787C23.4388 29.1844 24.1778 28.8553 24.4717 28.3005C24.8263 27.6947 24.5931 26.895 23.9776 26.55L19.0103 23.8005L15.6409 10.3092C15.4333 9.4807 14.7144 8.88538 13.8273 8.88538H6.66506L10.0546 1.68234C10.5327 0.674998 9.80967 0 9.06436 0C8.64694 0 8.23069 0.211874 8.02303 0.731483L4.09257 10.953C3.88608 11.482 4.04476 11.9695 4.37358 12.2983L7.3703 15.3047C7.85475 15.7774 8.67788 15.7753 9.15811 15.3047L10.4823 13.9708C10.6433 13.8098 10.8833 13.8162 10.9452 14.0465L11.6495 16.886L7.49593 20.0041C7.18819 20.2394 7.05296 20.61 6.97843 20.9465L5.80561 27.4476C5.6821 28.1184 6.141 28.8063 6.82889 28.9415ZM9.48577 11.3859L8.26046 12.6112L7.03303 11.3859H9.48577Z" fill="black"/>
</svg>
