<svg width="40" height="28" viewBox="0 0 40 28" fill="none" xmlns="http://www.w3.org/2000/svg">
<path d="M15.2451 25.1121H29.8563C31.8734 25.1121 32.8476 24.4777 32.8476 23.1021C32.8476 19.8947 28.8359 15.5883 22.5518 15.5883C16.256 15.5883 12.2442 19.8947 12.2442 23.1021C12.2442 24.4777 13.2185 25.1121 15.2451 25.1121ZM14.8556 23.0874C14.5783 23.0874 14.4663 23.0032 14.4663 22.7845C14.4663 20.9892 17.3712 17.6131 22.5518 17.6131C27.7228 17.6131 30.6256 20.9892 30.6256 22.7845C30.6256 23.0032 30.5231 23.0874 30.248 23.0874H14.8556ZM22.5518 14.0829C25.3851 14.0829 27.6776 11.5817 27.6776 8.51606C27.6776 5.49825 25.3842 3.08887 22.5518 3.08887C19.7386 3.08887 17.4218 5.52918 17.4239 8.53528C17.4356 11.5913 19.728 14.0829 22.5518 14.0829ZM22.5518 12.0581C20.9294 12.0581 19.5469 10.5124 19.5469 8.53317C19.5448 6.60801 20.9166 5.11363 22.5518 5.11363C24.1966 5.11363 25.5546 6.58668 25.5546 8.51606C25.5546 10.489 24.1955 12.0581 22.5518 12.0581ZM2.52351 25.1142H11.6299C10.9936 24.743 10.56 23.9049 10.6463 23.1267H2.39296C2.17546 23.1267 2.07303 23.033 2.07303 22.8356C2.07303 20.134 5.23757 17.5545 8.96414 17.5545C10.2888 17.5545 11.6004 17.8828 12.6253 18.4559C13.0172 17.8943 13.4981 17.4103 14.1309 16.9943C12.6487 16.0699 10.7965 15.5712 8.96414 15.5712C4.01391 15.5712 0 19.1147 0 23.0149C0 24.4043 0.839061 25.1142 2.52351 25.1142ZM8.97375 14.3407C11.4321 14.3407 13.4358 12.1517 13.4358 9.45356C13.4358 6.82246 11.4408 4.68684 8.97375 4.68684C6.52383 4.68684 4.49789 6.8534 4.50961 9.47489C4.52344 12.1655 6.51539 14.3407 8.97375 14.3407ZM8.97375 12.3457C7.64109 12.3457 6.50671 11.0674 6.50671 9.47489C6.5046 7.92801 7.6357 6.68394 8.97375 6.68394C10.3385 6.68394 11.4504 7.90879 11.4504 9.45356C11.4504 11.0674 10.3181 12.3457 8.97375 12.3457Z" fill="black"/>
<path d="M31.344 13.7149C31.8277 14.0351 32.4798 13.9277 32.8384 13.4138C33.7829 12.1563 34.343 10.3681 34.343 8.516C34.343 6.66397 33.7829 4.8853 32.8384 3.61405C32.4798 3.10429 31.8277 2.99484 31.344 3.3171C30.7728 3.69163 30.6709 4.38092 31.1185 5.03646C31.7666 5.95709 32.1322 7.20935 32.1322 8.516C32.1322 9.82264 31.757 11.0632 31.1185 11.9956C30.6805 12.6586 30.7728 13.3308 31.344 13.7149Z" fill="black"/>
<path d="M36.0195 16.8473C36.5438 17.1825 37.1926 17.0538 37.5575 16.522C39.0828 14.3667 39.968 11.4823 39.968 8.51603C39.968 5.54978 39.0924 2.64611 37.5575 0.507911C37.1926 -0.0217732 36.5438 -0.150444 36.0195 0.184711C35.4753 0.532521 35.387 1.2183 35.7922 1.82532C37.0496 3.64478 37.7593 6.04103 37.7593 8.51603C37.7593 10.991 37.0304 13.3756 35.7922 15.2046C35.3966 15.8138 35.4753 16.4995 36.0195 16.8473Z" fill="black"/>
</svg>
