<svg width="28" height="28" viewBox="0 0 28 28" fill="none" xmlns="http://www.w3.org/2000/svg">
<path d="M6.84421 24.8972H21.0295C23.5685 24.8972 24.8737 23.5919 24.8737 21.0914V6.82921C24.8737 4.32656 23.5685 3.02344 21.0295 3.02344H6.84421C4.31484 3.02344 3 4.31695 3 6.82921V21.0914C3 23.6016 4.31484 24.8972 6.84421 24.8972Z" fill="black"/>
<path d="M8.99512 16.211V9.73851C8.99512 9.29976 9.3509 8.93859 9.80676 8.93859C10.2275 8.93859 10.5907 9.29976 10.5907 9.73851V13.7852C10.7581 13.6903 10.9191 13.5837 11.127 13.4984V7.60499C11.127 7.17468 11.4786 6.82851 11.911 6.82851C12.3476 6.82851 12.7109 7.17468 12.7109 7.60499V13.0134C12.8932 12.9804 13.0798 12.9612 13.2717 12.9398V7.03686C13.2717 6.60983 13.6158 6.24655 14.0599 6.24655C14.5019 6.24655 14.846 6.60983 14.846 7.03686V13.008C15.0326 13.0624 15.217 13.1243 15.3898 13.1691V8.00999C15.3898 7.57546 15.7317 7.21968 16.178 7.21968C16.6029 7.21968 16.9566 7.57335 16.9566 8.00999V15.1711C16.9566 15.3673 17.0302 15.4505 17.1677 15.4505C17.2648 15.4505 17.3576 15.3865 17.4333 15.1828L18.3881 13.1477C18.6888 12.5262 18.972 12.2513 19.447 12.2745C19.8614 12.2934 20.1396 12.5904 20.1206 12.994C20.1037 13.339 19.8237 14.1258 19.6256 14.7572C19.2342 16.0425 18.7924 17.4176 18.1732 18.4669C17.2111 20.2819 15.8053 21.0741 13.7948 21.0741C10.9979 21.0741 8.99512 19.2169 8.99512 16.211Z" fill="white"/>
</svg>
