<svg width="32" height="28" viewBox="0 0 32 28" fill="none" xmlns="http://www.w3.org/2000/svg">
<path d="M15.6921 5.26453C17.148 5.26453 18.3206 4.09406 18.3206 2.63601C18.3206 1.18008 17.148 0 15.6921 0C14.2361 0 13.056 1.18008 13.056 2.63601C13.056 4.09406 14.2361 5.26453 15.6921 5.26453ZM25.915 9.00163C26.605 9.00163 27.1715 8.44687 27.1715 7.73343C27.1715 7.04343 26.605 6.48867 25.915 6.48867H13.1941C12.0182 6.48867 10.9926 7.1107 10.4505 8.18531L5.11659 18.8669L2.13136 15.8838C1.6373 15.3876 0.8355 15.4036 0.357376 15.8838C-0.124967 16.3779 -0.113248 17.1658 0.357376 17.6578L4.63425 21.9464C5.16347 22.466 5.99292 22.3936 6.42628 21.7601L9.93299 16.6427C10.1121 16.3666 10.48 16.324 10.7369 16.5169L15.0299 19.8054V25.7965C15.0299 26.4886 15.5847 27.0412 16.2864 27.0412C16.9881 27.0412 17.5429 26.4886 17.5429 25.7965V19.174C17.5429 18.8449 17.4077 18.5212 17.1724 18.2901L13.0049 14.1185L15.2421 9.6389C15.4605 9.21163 15.824 9.00163 16.263 9.00163H25.915ZM18.0867 14.4162H22.9068C23.5989 14.4162 24.1537 13.8401 24.1537 13.1693C24.1537 12.4697 23.5989 11.9032 22.9068 11.9032H18.6042L16.8792 10.1899H16.4871C16.3656 10.1899 16.2848 10.241 16.222 10.3528L15.307 12.1519L17.2124 14.0456C17.4574 14.2788 17.7651 14.4162 18.0867 14.4162ZM25.1655 11.8807C25.1655 13.0638 26.5532 14.0287 28.2339 14.0287C29.9263 14.0287 31.3024 13.0638 31.3024 11.8807C31.3024 10.6783 29.9263 9.72515 28.2339 9.72515C26.5532 9.72515 25.1655 10.6783 25.1655 11.8807Z" fill="black"/>
</svg>
