<svg width="28" height="28" viewBox="0 0 28 28" fill="none" xmlns="http://www.w3.org/2000/svg">
<path d="M12.2237 2.14812C6.9796 2.14812 4 5.43687 4 11.0262V13.3543C4 15.4695 5.01601 16.8099 6.22328 16.8099C6.51906 16.8099 6.6796 16.6515 6.6796 16.3632V15.3587C6.6796 14.911 6.9046 14.6851 7.16898 14.6851C7.45679 14.6851 7.67218 14.9089 7.67218 15.3587V16.0191C7.67218 17.281 8.49531 18.1285 9.60155 18.1285C10.1242 18.1285 10.3689 17.9072 10.3689 17.4549V16.0765C10.3689 15.6268 10.5822 15.403 10.8465 15.403C11.1365 15.403 11.3615 15.6247 11.3615 16.0765V17.3494C11.3615 18.751 12.1698 19.4567 13.2695 19.4567C13.7591 19.4567 14.0369 19.2162 14.0369 18.7852V16.0765C14.0369 15.6289 14.2523 15.403 14.5145 15.403C14.8023 15.403 15.0273 15.6268 15.0273 16.0765V25.0407C15.0273 25.9564 15.6278 26.577 16.423 26.577C17.263 26.577 17.8443 25.9585 17.8443 25.0407V12.0148C17.8443 11.7174 18.032 11.5543 18.2186 11.5543C18.4009 11.5543 18.5523 11.6609 18.6761 11.9553L20.384 15.9985C20.6544 16.6278 21.0728 16.9648 21.6845 16.9648C22.5564 16.9648 23.1311 16.374 23.1311 15.6195C23.1311 15.3373 23.0746 15.0936 22.9979 14.8934L21.0205 9.04765C19.3527 4.18109 16.1497 2.14812 12.2237 2.14812Z" fill="black"/>
</svg>
