<svg width="33" height="28" viewBox="0 0 33 28" fill="none" xmlns="http://www.w3.org/2000/svg">
<path d="M4.93653 20.8765H17.9938C18.7834 19.3137 20.4963 18.008 22.5335 17.3864C21.4143 16.4374 20.6948 14.9681 20.6948 13.3101C20.6852 11.1494 21.9693 9.27139 23.7555 8.55303V7.9603C23.7555 7.35771 23.4227 7.01318 22.8297 7.01318H4.93653C4.34145 7.01318 4.01074 7.35771 4.01074 7.9603V19.9294C4.01074 20.532 4.34145 20.8765 4.93653 20.8765Z" fill="white"/>
<path d="M3.84632 24.8781H17.2113C16.9104 24.207 16.943 23.3703 17.1816 22.5821H3.98905C2.89733 22.5821 2.29592 22.018 2.29592 20.8794V7.01043C2.29592 5.87183 2.89733 5.30019 3.98905 5.30019H23.7778C24.8578 5.30019 25.4688 5.87183 25.4688 7.01043V8.01942C26.2348 7.94044 26.9979 8.0077 27.7648 8.3459V6.81004C27.7648 4.30739 26.452 3.00427 23.9205 3.00427H3.84632C1.32445 3.00427 0 4.30739 0 6.81004V21.0819C0 23.5824 1.32445 24.8781 3.84632 24.8781ZM20.183 24.8781H31.4156C32.343 24.8781 32.9212 24.4384 32.9212 23.691C32.9212 21.5155 30.1709 18.5302 25.8052 18.5302C21.4202 18.5302 18.6773 21.5155 18.6773 23.691C18.6773 24.4384 19.2459 24.8781 20.183 24.8781ZM25.8052 17.0387C27.634 17.0387 29.2001 15.4046 29.2001 13.2889C29.2001 11.221 27.6319 9.64785 25.8052 9.64785C23.9688 9.64785 22.3964 11.2402 22.4006 13.3081C22.4006 15.4046 23.9667 17.0387 25.8052 17.0387Z" fill="black"/>
</svg>
