<svg width="28" height="28" viewBox="0 0 28 28" fill="none" xmlns="http://www.w3.org/2000/svg">
<path d="M6.84421 24.8972H21.0295C23.5685 24.8972 24.8737 23.5919 24.8737 21.0914V6.82921C24.8737 4.32656 23.5685 3.02344 21.0295 3.02344H6.84421C4.31484 3.02344 3 4.31695 3 6.82921V21.0914C3 23.6016 4.31484 24.8972 6.84421 24.8972Z" fill="black"/>
<path d="M6.31445 22.7112C7.2632 19.9076 10.2965 17.9149 13.9525 17.9149C17.6011 17.9149 20.6322 19.9076 21.581 22.7112H6.31445ZM13.9429 16.0064C11.7088 15.9872 9.97001 14.1239 9.9604 11.6456C9.94868 9.31544 11.7152 7.37012 13.9429 7.37012C16.1707 7.37012 17.9275 9.31544 17.9275 11.6456C17.9275 14.1239 16.177 16.0277 13.9429 16.0064Z" fill="white"/>
</svg>
