<svg width="33" height="28" viewBox="0 0 33 28" fill="none" xmlns="http://www.w3.org/2000/svg">
<path d="M12.3586 4.73476C13.3926 4.73476 14.2212 3.92007 14.2212 2.87218C14.2212 1.83812 13.3926 1 12.3586 1C11.3224 1 10.4843 1.83812 10.4843 2.87218C10.4843 3.92007 11.3224 4.73476 12.3586 4.73476ZM1.24476 21.0238H7.72453C8.08663 21.0238 8.2432 20.9929 8.50523 20.9322L14.9552 19.3703C15.0839 19.3405 15.1966 19.4469 15.1828 19.5798L14.7682 22.9586L12.3497 21.235C11.7853 20.8314 10.9952 20.9645 10.6012 21.5289C10.1817 22.0954 10.3052 22.8854 10.8759 23.2912L14.7532 26.0272C15.6562 26.6619 16.7658 26.4501 16.999 25.513L20.2566 12.4412C20.3034 12.2826 20.4431 12.1973 20.6018 12.2324L31.248 14.3469C32.1968 14.5429 32.7419 13.8252 32.7419 13.1235C32.7419 12.5868 32.4321 12.0236 31.7442 11.8905L21.2123 9.7696C18.0848 9.15179 16.1355 8.85882 13.9071 8.85882H10.9826V5.87569C10.9826 5.16226 10.4161 4.61499 9.72609 4.61499C9.01265 4.61499 8.45789 5.16226 8.45789 5.87569V10.1036C8.45789 10.7936 9.01265 11.3601 9.72609 11.3601H14.6862C14.9004 11.3601 15.0422 11.5487 14.9836 11.7597L14.0269 15.4586C13.8745 16.0478 13.4749 16.4922 12.8974 16.701L7.69265 18.5108H1.24476C0.540936 18.5108 0 19.0773 0 19.779C0 20.4829 0.540936 21.0238 1.24476 21.0238ZM19.0341 8.15358C20.4783 8.15358 21.6605 6.9714 21.6605 5.50585C21.6605 4.05953 20.4783 2.88906 19.0341 2.88906C17.5664 2.88906 16.3959 4.05953 16.3959 5.50585C16.3959 6.9714 17.5664 8.15358 19.0341 8.15358Z" fill="black"/>
</svg>
