<svg width="28" height="28" viewBox="0 0 28 28" fill="none" xmlns="http://www.w3.org/2000/svg">
<path d="M14.4737 9.53805C16.6748 9.55727 18.4082 7.67477 18.4082 5.22531C18.4082 2.93359 16.6684 1 14.4737 1C12.2962 1 10.5351 2.93359 10.5372 5.22531C10.5393 7.67477 12.2823 9.52844 14.4737 9.53805ZM7.71881 18.0667H21.2383C22.0459 18.0667 22.4959 17.5705 22.4959 16.866C22.4959 14.9385 19.7343 10.9696 14.4737 10.9696C9.20147 10.9696 6.45155 14.9385 6.45155 16.866C6.45155 17.5705 6.90905 18.0667 7.71881 18.0667ZM5.09359 26.5337H23.8593C24.4614 26.5337 24.9529 26.0423 24.9529 25.4401C24.9529 24.838 24.4614 24.337 23.8593 24.337H23.1327V21.8237C23.1327 20.4962 22.4446 19.7312 21.0402 19.7312H7.91475C6.51788 19.7312 5.82226 20.4962 5.82226 21.8237V24.337H5.09359C4.49148 24.337 4 24.838 4 25.4401C4 26.0423 4.49148 26.5337 5.09359 26.5337ZM12.198 23.9528C11.7426 23.9528 11.4065 23.5996 11.4065 23.14C11.4065 22.6942 11.7426 22.3506 12.198 22.3506H16.7741C17.222 22.3506 17.5635 22.6942 17.5635 23.14C17.5635 23.5996 17.222 23.9528 16.7741 23.9528H12.198Z" fill="black"/>
</svg>
