<svg width="28" height="28" viewBox="0 0 28 28" fill="none" xmlns="http://www.w3.org/2000/svg">
<path d="M18.5232 24.8907C23.4371 23.1041 25.4534 18.7288 23.5046 13.37L22.5551 10.7399C21.604 8.12939 19.763 7.0358 17.6194 7.76119C17.0286 7.04423 16.13 6.80869 15.1779 7.15158C14.8592 7.26994 14.581 7.43306 14.3166 7.62713C13.6725 6.85158 12.7299 6.57877 11.7479 6.92705C11.5322 7.00603 11.3241 7.12556 11.1256 7.26221L9.91199 3.93922C9.36589 2.42868 7.99691 1.7858 6.57801 2.29884C5.13263 2.82782 4.49396 4.19563 5.04005 5.70617L8.21959 14.4486C8.24513 14.5114 8.23342 14.5604 8.17693 14.5817C8.14178 14.6031 8.10123 14.5817 8.06396 14.5487L6.91223 13.2976C6.21567 12.6195 5.3806 12.4222 4.57435 12.7119C3.38138 13.1525 2.67099 14.2881 3.15216 15.5963C3.2724 15.9699 3.51943 16.4033 3.80794 16.7558L7.78224 21.5483C10.8336 25.2249 14.4828 26.3656 18.5232 24.8907ZM17.8969 23.0033C14.7886 24.1409 11.9269 23.5034 9.23887 20.3162L5.23504 15.5935C5.1284 15.4677 5.05481 15.3535 4.99293 15.1775C4.86918 14.8447 5.01215 14.4596 5.41317 14.3124C5.73965 14.1983 6.00098 14.3199 6.2677 14.5963L9.06239 17.4013C9.52457 17.8742 9.96731 17.9232 10.3815 17.772C10.9008 17.589 11.1432 17.042 10.9261 16.4537L6.74816 4.95524C6.59348 4.53711 6.7791 4.1382 7.17801 3.99312C7.58653 3.84594 7.96833 4.04328 8.12512 4.46141L11.0689 12.549C11.2306 12.9906 11.7254 13.198 12.169 13.0384C12.601 12.8767 12.8297 12.4011 12.6776 11.9692L11.6248 9.09102C11.7762 8.95766 11.9799 8.8243 12.1814 8.75071C12.6647 8.57469 13.0796 8.79125 13.2652 9.29797L14.2175 11.9045C14.3771 12.3535 14.8655 12.5396 15.2954 12.38C15.7156 12.23 15.9711 11.78 15.8018 11.3213L15.0675 9.30711C15.2189 9.17586 15.4226 9.0425 15.6242 8.9668C16.1075 8.79289 16.5223 9.00945 16.7079 9.51407L17.3354 11.2419C17.5067 11.7048 18.0036 11.8951 18.4376 11.7334C18.86 11.5834 19.1079 11.1153 18.9462 10.662L18.5323 9.54406C19.4302 9.22203 20.2463 9.91133 20.8116 11.4772L21.6722 13.8249C23.265 18.2166 21.8182 21.579 17.8969 23.0033Z" fill="black"/>
</svg>
