<svg width="28" height="28" viewBox="0 0 28 28" fill="none" xmlns="http://www.w3.org/2000/svg">
<path d="M14.4737 9.56359C16.7214 9.56359 18.4801 7.6525 18.4801 5.22367C18.4801 2.87898 16.7034 1 14.4737 1C12.242 1 10.4631 2.88859 10.4748 5.245C10.4791 7.66211 12.2261 9.56359 14.4737 9.56359ZM14.4737 7.73196C13.2744 7.73196 12.3897 6.71266 12.3897 5.24078C12.3876 3.84015 13.2904 2.83374 14.4737 2.83374C15.6592 2.83374 16.5653 3.84015 16.5653 5.22367C16.5653 6.70094 15.673 7.73196 14.4737 7.73196ZM8.13788 18.0323H20.8096C21.8477 18.0323 22.4755 17.4423 22.4755 16.4556C22.4755 13.9584 19.3464 10.6412 14.4737 10.6412C9.58936 10.6412 6.46984 13.9584 6.46984 16.4556C6.46984 17.4423 7.08812 18.0323 8.13788 18.0323ZM8.75733 16.1964C8.54709 16.1964 8.45639 16.1228 8.47561 15.9723C8.66241 14.6992 10.765 12.4729 14.4737 12.4729C18.1708 12.4729 20.283 14.6992 20.4698 15.9723C20.4911 16.1228 20.3908 16.1964 20.188 16.1964H8.75733ZM5.09359 26.4993H23.8593C24.4614 26.4993 24.9529 26.0078 24.9529 25.4057C24.9529 24.8036 24.4614 24.3025 23.8593 24.3025H23.1327V21.7893C23.1327 20.4618 22.4446 19.6968 21.0402 19.6968H7.91475C6.51788 19.6968 5.82226 20.4618 5.82226 21.7893V24.3025H5.09359C4.49148 24.3025 4 24.8036 4 25.4057C4 26.0078 4.49148 26.4993 5.09359 26.4993ZM12.198 23.9183C11.7426 23.9183 11.4065 23.5651 11.4065 23.1055C11.4065 22.6598 11.7426 22.3162 12.198 22.3162H16.7741C17.222 22.3162 17.5635 22.6598 17.5635 23.1055C17.5635 23.5651 17.222 23.9183 16.7741 23.9183H12.198Z" fill="black"/>
</svg>
