<svg width="28" height="28" viewBox="0 0 28 28" fill="none" xmlns="http://www.w3.org/2000/svg">
<path d="M5.84421 27.5465H22.9196C25.4415 27.5465 26.7659 26.2412 26.7659 23.7407V11.6887C26.7659 9.186 25.4415 7.88288 22.9196 7.88288H5.84421C3.30523 7.88288 2 9.186 2 11.6887V23.7407C2 26.2412 3.30523 27.5465 5.84421 27.5465ZM5.97733 25.2505C4.88772 25.2505 4.29592 24.6789 4.29592 23.5382V11.889C4.29592 10.7504 4.88772 10.1788 5.97733 10.1788H22.7769C23.8569 10.1788 24.4679 10.7504 24.4679 11.889V23.5382C24.4679 24.6789 23.8569 25.2505 22.7769 25.2505H5.97733ZM4.57812 5.97507H24.1974C24.0301 4.86437 23.4755 4.23414 22.232 4.23414H6.54358C5.29999 4.23414 4.74546 4.86437 4.57812 5.97507ZM6.96476 2.59609H21.8108C21.732 1.55359 21.1168 1 19.9869 1H8.77695C7.65664 1 7.04351 1.55359 6.96476 2.59609ZM7.32733 26.2408H21.5516C20.8904 23.3833 17.9853 21.3397 14.4373 21.3397C10.8894 21.3397 7.97678 23.3833 7.32733 26.2408ZM14.4373 19.6492C16.4668 19.6684 18.0554 17.9458 18.0554 15.6976C18.0554 13.5721 16.4584 11.8143 14.4373 11.8143C12.4088 11.8143 10.8118 13.5721 10.8214 15.6976C10.831 17.9458 12.4025 19.63 14.4373 19.6492Z" fill="black"/>
</svg>
