<svg width="31" height="28" viewBox="0 0 31 28" fill="none" xmlns="http://www.w3.org/2000/svg">
<path d="M20.0449 7.26663C21.5008 7.26663 22.683 6.08445 22.683 4.62851C22.683 3.17258 21.5008 2 20.0449 2C18.589 2 17.4185 3.17258 17.4185 4.62851C17.4185 6.08445 18.589 7.26663 20.0449 7.26663ZM11.7129 25.4126C12.2634 25.6107 12.9576 25.4733 13.3144 24.7503L16.346 18.6849C16.5909 18.2068 16.5323 17.6382 16.1128 17.2283L12.5001 13.606L17.0674 11.3272C17.2699 11.2184 17.4865 11.2686 17.6421 11.4221L20.4 14.1608C20.6215 14.3823 20.9451 14.5313 21.2763 14.5313H26.8233C27.5112 14.5313 28.0797 13.9744 28.0797 13.2631C28.0797 12.5731 27.5112 12.0045 26.8233 12.0045H21.7938L16.703 6.90195C16.0926 6.28742 15.247 5.93913 14.3705 5.93913H4.29234C3.60023 5.93913 3.03375 6.50562 3.03375 7.19773C3.03375 7.89944 3.60023 8.46593 4.29234 8.46593H11.7103C11.8477 8.46593 11.8924 8.65038 11.7647 8.7153L9.66773 9.75898C8.45461 10.3597 7.84218 11.5046 7.84218 12.6591C7.84218 13.655 8.28843 14.6412 9.20015 15.3026L13.6094 18.5124L11.0559 23.6269C10.6364 24.4756 11.0857 25.1677 11.7129 25.4126ZM1.2607 20.5946H7.32398C7.81382 20.5946 8.24718 20.3145 8.46866 19.9025L9.79429 17.2161L8.50593 16.2673C8.05968 15.9425 7.68047 15.5494 7.395 15.1405L6.43593 18.0699H1.2607C0.568593 18.0699 0 18.6364 0 19.3264C0 20.0185 0.568593 20.5946 1.2607 20.5946ZM27.352 2.68414C25.7055 2.68414 24.4959 3.87992 24.4959 5.52851C24.4959 7.73773 26.4075 10.2055 26.8336 10.7867H27.8608C28.2986 10.216 30.2102 7.74828 30.2102 5.52851C30.2102 3.87992 29.0006 2.68414 27.352 2.68414ZM27.352 4.16843C28.1536 4.16843 28.7259 4.75038 28.7259 5.52851C28.7259 6.5682 27.9283 8.04312 27.352 8.98578C26.7778 8.04312 25.9802 6.5682 25.9802 5.52851C25.9802 4.75038 26.5526 4.16843 27.352 4.16843ZM26.6093 13.2631H28.0797V10.1598H26.6093V13.2631Z" fill="black"/>
</svg>
