<svg width="28" height="28" viewBox="0 0 28 28" fill="none" xmlns="http://www.w3.org/2000/svg">
<path d="M24.1317 17.8528C25.2497 16.6519 23.5629 14.9754 22.301 16.2298C20.79 17.7312 18.206 18.653 15.3525 18.653C12.1945 18.653 9.1974 17.9189 6.31435 16.3516C4.77076 15.507 3.6303 17.7333 5.21232 18.5758C8.38365 20.2664 11.8531 21.1165 15.3525 21.1165C18.9689 21.1165 22.1899 19.9235 24.1317 17.8528ZM7.16467 18.9799C6.86139 19.5715 6.31014 20.4471 5.89624 20.8866C4.9114 21.9108 6.36827 23.2038 7.34256 22.1423C8.10404 21.3105 8.70896 20.0915 9.01388 19.5562L7.16467 18.9799ZM11.2376 20.0398C11.0255 21.1481 10.6592 22.2935 10.4494 22.7737C9.86984 24.0862 11.6851 24.7976 12.2424 23.4574C12.6652 22.4008 12.9485 20.8943 13.0219 20.3194L11.2376 20.0398ZM15.6033 20.3608C15.7873 21.48 15.7266 22.6882 15.6893 23.2195C15.6117 24.6511 17.5758 24.6872 17.6056 23.2418C17.6386 22.1032 17.4916 20.5891 17.3759 20.0142L15.6033 20.3608ZM19.7627 19.6265C20.4174 20.8755 20.6027 22.0671 20.7082 22.5879C20.9592 23.9993 22.8797 23.4002 22.5691 22.1294C22.2316 20.722 21.791 19.35 21.2803 18.6748L19.7627 19.6265Z" fill="black"/>
<path d="M4.646 12.9012C6.90303 12.9012 14.4986 7.50022 18.0408 7.50022C19.2907 7.50022 20.3777 8.00319 21.536 9.05601L24.5386 11.8116C25.6294 12.8098 27.2125 11.6243 26.4907 10.4194C25.9687 9.57351 25.211 8.42062 23.4344 6.45234C21.4751 4.27781 19.7367 3 17.0594 3C13.6507 3 8.27787 5.04305 3.19569 7.70273C0.946168 8.87929 2.12085 12.9012 4.646 12.9012Z" fill="black"/>
</svg>
