<svg width="28" height="28" viewBox="0 0 28 28" fill="none" xmlns="http://www.w3.org/2000/svg">
<path d="M8 17.0732C8 17.6866 8.48023 18.1689 9.09359 18.1689C9.69734 18.1689 10.1797 17.6866 10.1797 17.0732V12.5066C10.1797 12.3041 10.3491 12.1443 10.5516 12.1443C10.7563 12.1443 10.9161 12.3041 10.9161 12.5066V26.3605C10.9161 27.025 11.4528 27.5521 12.1173 27.5521C12.7775 27.5521 13.3184 27.0229 13.3184 26.3605V17.9254C13.3184 17.7229 13.4879 17.5438 13.6904 17.5438C13.895 17.5438 14.0719 17.7229 14.0719 17.9254V26.3605C14.0719 27.0229 14.6033 27.5521 15.2656 27.5521C15.9301 27.5521 16.4668 27.025 16.4668 26.3605V12.5066C16.4668 12.3041 16.6245 12.1443 16.8291 12.1443C17.0316 12.1443 17.2011 12.3041 17.2011 12.5066V17.0732C17.2011 17.6866 17.6834 18.1689 18.2872 18.1689C18.9005 18.1689 19.3808 17.6866 19.3808 17.0732V11.973C19.3808 9.32827 17.4127 7.57937 14.5658 7.57937H12.815C9.96804 7.57937 8 9.32827 8 11.973V17.0732ZM13.6904 6.25492C15.1463 6.25492 16.3189 5.08445 16.3189 3.62851C16.3189 2.17258 15.1463 1 13.6904 1C12.2345 1 11.0619 2.17258 11.0619 3.62851C11.0619 5.08445 12.2345 6.25492 13.6904 6.25492Z" fill="black"/>
</svg>
