<svg width="33" height="28" viewBox="0 0 33 28" fill="none" xmlns="http://www.w3.org/2000/svg">
<path d="M14.8581 24.5773H29.4671C31.3988 24.5773 32.0678 23.9951 32.0678 22.9174C32.0678 19.9024 28.2425 15.7559 22.1626 15.7559C16.0923 15.7559 12.2671 19.9024 12.2671 22.9174C12.2671 23.9951 12.936 24.5773 14.8581 24.5773ZM22.1722 13.6751C24.7243 13.6751 26.8902 11.404 26.8902 8.46799C26.8902 5.58611 24.7105 3.39307 22.1722 3.39307C19.6243 3.39307 17.4329 5.62666 17.4446 8.48932C17.4488 11.404 19.6105 13.6751 22.1722 13.6751Z" fill="black"/>
<path d="M2.16164 24.5794H10.9444C9.6961 22.7866 11.0684 19.2389 13.7072 17.1776C12.4137 16.3441 10.7358 15.7228 8.62148 15.7228C3.38484 15.7228 0 19.5872 0 22.7721C0 23.9238 0.582656 24.5794 2.16164 24.5794ZM8.62148 13.9425C10.8509 13.9425 12.7355 11.9547 12.7355 9.40756C12.7355 6.89857 10.837 4.98889 8.62148 4.98889C6.41766 4.98889 4.49789 6.93701 4.50961 9.42678C4.51172 11.9547 6.40172 13.9425 8.62148 13.9425Z" fill="black"/>
</svg>
