<svg width="28" height="28" viewBox="0 0 28 28" fill="none" xmlns="http://www.w3.org/2000/svg">
<path d="M18.3577 7.26453C19.8136 7.26453 20.9862 6.09406 20.9862 4.63812C20.9862 3.18219 19.8136 2 18.3577 2C16.9017 2 15.7217 3.18219 15.7217 4.63812C15.7217 6.09406 16.9017 7.26453 18.3577 7.26453ZM9.00894 22.8966C9.58925 23.2555 10.422 23.0712 10.7925 22.4813L13.6922 17.8367L16.7431 18.0083L14.8071 21.0971C14.4132 21.7147 14.5878 22.542 15.2171 22.8966C15.8325 23.2533 16.6163 23.083 16.9889 22.4792L20.0536 17.577C20.5711 16.7326 20.1399 15.654 18.976 15.5326L13.8 14.9541C13.3353 14.8998 13.1529 14.4167 13.3981 14.0703L15.5318 10.8638C15.6544 10.6655 15.8974 10.6187 16.0978 10.7316L23.9328 15.4475C24.5344 15.8042 25.3639 15.6179 25.7025 15.0162C26.0496 14.3869 25.8675 13.6011 25.2499 13.2305L9.75073 3.92351C9.5262 3.79695 9.31316 3.74796 9.05792 3.74796H4.10652C3.38136 3.74796 2.80316 4.31445 2.80316 5.01827C2.80316 5.73171 3.38136 6.30991 4.10652 6.30991H8.71269L10.8509 7.59686C11.0747 7.71944 11.1312 7.98171 10.999 8.19921L8.31777 12.2131C6.85738 14.3797 8.03464 17.2887 10.7405 17.6675L8.58941 21.0971C8.20714 21.7147 8.37964 22.5144 9.00894 22.8966ZM4.61464 25.872H23.4968C24.8325 25.872 25.939 25.594 26.7942 24.856C27.1964 24.5229 27.1699 24.0952 26.9496 23.8037C26.723 23.4983 26.2601 23.3759 25.8504 23.6951C25.2197 24.1927 24.5984 24.3898 23.4968 24.3898H4.61464C3.5173 24.3898 2.89175 24.1927 2.26316 23.6951C1.87902 23.4036 1.46722 23.4748 1.22254 23.7249C0.941522 24.0144 0.881992 24.4857 1.30761 24.856C2.17246 25.594 3.27894 25.872 4.61464 25.872Z" fill="black"/>
</svg>
