<svg width="28" height="28" viewBox="0 0 28 28" fill="none" xmlns="http://www.w3.org/2000/svg">
<path d="M15.2615 26.3143C20.4969 26.3122 23.8968 22.8934 23.8968 17.1939V14.387C23.8968 11.6179 22.5477 9.9557 20.2773 9.90907C19.9698 9.02922 19.2002 8.50305 18.1895 8.50305C17.857 8.50305 17.5382 8.55321 17.2195 8.65985C16.8822 7.69586 16.0919 7.12165 15.0491 7.12165C14.8218 7.12165 14.5848 7.15047 14.3479 7.21985V3.67398C14.3479 2.07086 13.2855 1 11.7761 1C10.2403 1 9.15767 2.07086 9.15767 3.67398V12.9749C9.15767 13.0474 9.13424 13.0846 9.07775 13.0846C9.03299 13.0846 9.00205 13.0633 8.97861 13.0089L8.3254 11.4515C7.89533 10.5754 7.19033 10.1022 6.33509 10.1022C5.05588 10.1022 4.00073 10.93 4.00073 12.3149C3.99112 12.7162 4.07737 13.2081 4.22854 13.6297L6.32268 19.4896C7.93189 23.9959 10.9741 26.3186 15.2615 26.3143ZM15.3264 24.3259C12.0168 24.3259 9.54907 22.7594 8.11094 18.838L5.96079 13.0333C5.90853 12.8744 5.87548 12.741 5.87548 12.5554C5.87548 12.2012 6.14431 11.8876 6.56665 11.8876C6.91447 11.8876 7.12564 12.0925 7.26861 12.4403L8.94369 16.0323C9.21626 16.6384 9.6079 16.8428 10.0572 16.8428C10.6042 16.8428 11.0158 16.4106 11.0158 15.7926L11.02 3.55374C11.02 3.11429 11.3315 2.79858 11.7613 2.79858C12.1912 2.79858 12.4898 3.11429 12.4898 3.55374V12.1623C12.4898 12.6316 12.8877 13.0007 13.3474 13.0007C13.8166 13.0007 14.1953 12.6316 14.1953 12.1623V9.11054C14.3777 9.03155 14.6198 8.9739 14.8331 8.9739C15.3494 8.9739 15.6693 9.31843 15.6693 9.86359V12.6287C15.6693 13.1151 16.0609 13.4587 16.5184 13.4587C16.9663 13.4587 17.3601 13.1151 17.3601 12.6287V10.4898C17.5424 10.413 17.7845 10.3628 17.9882 10.3628C18.5024 10.3628 18.8224 10.6977 18.8224 11.245V13.09C18.8224 13.5709 19.2299 13.9187 19.6916 13.9187C20.132 13.9187 20.53 13.5709 20.53 13.09V11.8984C21.4802 11.8984 22.0145 12.8256 22.0145 14.4864V16.9937C22.0145 21.6646 19.4938 24.3259 15.3264 24.3259Z" fill="black"/>
</svg>
