<svg width="29" height="29" viewBox="0 0 29 29" fill="none" xmlns="http://www.w3.org/2000/svg">
<path d="M3.13845 1.73959H4.97385C4.90447 1.22795 5.01041 0.697096 5.26517 0.2553H3.13845C2.72666 0.2553 2.3915 0.590455 2.3915 1.00225C2.3915 1.41404 2.72666 1.73959 3.13845 1.73959ZM10.6167 1.73959H21.3897L22.1976 0.540063C22.2634 0.44983 22.3356 0.346706 22.412 0.2553H9.60392C9.67822 0.346706 9.75251 0.44983 9.81837 0.549672L10.6167 1.73959ZM27.04 1.73959H28.1184C28.5302 1.73959 28.8557 1.41404 28.8557 1.00225C28.8557 0.590455 28.5302 0.2553 28.1184 0.2553H26.7508C27.0056 0.699205 27.1094 1.21834 27.04 1.73959ZM16.0863 8.13615C17.5422 8.13615 18.7244 6.96568 18.7244 5.50975C18.7244 4.05381 17.5422 2.87162 16.0863 2.87162C14.6303 2.87162 13.4577 4.05381 13.4577 5.50975C13.4577 6.96568 14.6303 8.13615 16.0863 8.13615ZM9.76986 18.7289C11.2258 20.4745 13.5742 20.2317 14.7543 18.4627L25.6708 2.11787C26.069 1.51412 25.904 0.721932 25.3162 0.330058C24.7359 -0.063926 23.9341 0.0872453 23.5284 0.688885L18.591 8.11459C18.0402 8.95623 17.092 9.39521 16.0863 9.39521C15.0177 9.39521 13.9406 8.89763 13.2492 7.86638L8.48759 0.688885C8.0915 0.0872453 7.30353 -0.063926 6.69978 0.330058C6.11197 0.721932 5.94697 1.51412 6.34095 2.11787L12.1816 10.8708C12.4469 11.2608 12.4565 11.7724 12.1816 12.1784L10.5909 14.5831L7.07947 11.5404C6.56197 11.0761 5.7665 11.0485 5.20002 11.6128L0.377753 16.4585C-0.125918 16.9739 -0.125918 17.7544 0.377753 18.2581C0.932518 18.7852 1.69916 18.7245 2.16556 18.2581L6.10939 14.3398L9.76986 18.7289ZM12.7624 27.8803C13.1584 27.2862 13.0052 26.5313 12.4056 26.1277L8.11657 23.2587L10.412 20.7256C9.84767 20.4572 9.32806 20.0461 8.85627 19.4935L7.99142 18.4795L5.12127 22.7902C4.72939 23.3684 4.87635 24.1723 5.46838 24.5759L11.0097 28.2392C11.6038 28.6427 12.3939 28.4564 12.7624 27.8803Z" fill="black"/>
</svg>
