<svg width="28" height="28" viewBox="0 0 28 28" fill="none" xmlns="http://www.w3.org/2000/svg">
<path d="M26.428 15.4783C26.428 11.3964 24.3182 8.06429 19.2531 6.32711L13.165 4.27282C12.9531 4.18657 12.7115 4.13008 12.4197 4.13008C11.6343 4.13008 11.0242 4.73359 11.0242 5.63429C11.0242 6.26523 11.3612 6.70491 12.0194 6.98288L16.2302 8.76976C16.5438 8.89351 16.6504 9.05663 16.6504 9.23687C16.6504 9.44265 16.4777 9.6325 16.1706 9.6325H2.59609C1.63773 9.6325 1 10.2426 1 11.1114C1 11.9355 1.63984 12.5669 2.59609 12.5669H11.9317C12.4007 12.5669 12.6341 12.7919 12.6341 13.0989C12.6341 13.3708 12.3986 13.6054 11.9317 13.6054H9.11523C8.665 13.6054 8.41492 13.8735 8.41492 14.3919C8.41492 15.5205 9.14945 16.379 10.6012 16.379H11.9317C12.4049 16.379 12.6341 16.604 12.6341 16.9131C12.6341 17.1871 12.4007 17.4196 11.9317 17.4196H10.4957C10.0316 17.4196 9.80078 17.676 9.80078 18.2083C9.80078 19.3626 10.6792 20.2049 11.9987 20.2049H12.6805C13.1591 20.2049 13.3809 20.4395 13.3809 20.7369C13.3809 21.0109 13.157 21.2476 12.6805 21.2476H11.6355C11.3376 21.2476 11.1695 21.4253 11.1695 21.7232C11.1695 22.9689 12.5676 24.0329 14.7714 24.0329H17.1763C23.0123 24.0329 26.428 20.938 26.428 15.4783Z" fill="black"/>
</svg>
