<svg width="28" height="28" viewBox="0 0 28 28" fill="none" xmlns="http://www.w3.org/2000/svg">
<path d="M3.10515 25.0687H18.6977C20.0148 25.0687 20.8007 24.4448 20.8007 23.4089C20.8007 20.3939 16.9776 16.2473 10.8955 16.2473C4.82523 16.2473 1 20.3939 1 23.4089C1 24.4448 1.78797 25.0687 3.10515 25.0687ZM10.9052 14.1666C13.4594 14.1666 15.6327 11.8955 15.6327 8.95944C15.6327 6.07757 13.453 3.88452 10.9052 3.88452C8.35727 3.88452 6.17547 6.11811 6.17969 8.98077C6.1818 11.8955 8.34344 14.1666 10.9052 14.1666Z" fill="black"/>
<path d="M22.413 11.3646C23.0613 11.3646 23.4698 10.9854 23.4993 10.5115C23.5014 10.4667 23.5035 10.4081 23.5056 10.373C23.5373 9.75563 23.9556 9.35602 24.7115 8.85703C25.8693 8.10281 26.6146 7.43156 26.6146 6.06539C26.6146 4.11797 24.8592 3 22.7805 3C20.7808 3 19.4186 3.92297 19.0504 5.02008C18.9813 5.21813 18.9419 5.41617 18.9419 5.62805C18.9419 6.19336 19.3795 6.5421 19.8548 6.5421C20.2903 6.5421 20.5743 6.35882 20.8021 6.05437L20.9878 5.80898C21.3832 5.17359 21.9473 4.82788 22.6448 4.82788C23.5952 4.82788 24.2296 5.39085 24.2296 6.18445C24.2296 6.9307 23.7375 7.29211 22.7496 7.98164C21.9121 8.56336 21.31 9.16547 21.31 10.2295C21.31 10.2701 21.31 10.3181 21.31 10.3587C21.31 11.0208 21.7014 11.3646 22.413 11.3646ZM22.3959 14.9517C23.1452 14.9517 23.7649 14.4042 23.7649 13.6655C23.7649 12.9288 23.1569 12.3792 22.3959 12.3792C21.6349 12.3792 21.0206 12.9363 21.0206 13.6655C21.0206 14.3946 21.6445 14.9517 22.3959 14.9517Z" fill="black"/>
</svg>
