<svg width="28" height="28" viewBox="0 0 28 28" fill="none" xmlns="http://www.w3.org/2000/svg">
<path d="M11.4984 10.4742C12.9544 10.4742 14.1344 9.29413 14.1344 7.8382C14.1344 6.38226 12.9544 5.20968 11.4984 5.20968C10.0425 5.20968 8.86992 6.38226 8.86992 7.8382C8.86992 9.29413 10.0425 10.4742 11.4984 10.4742ZM5.13539 26.1026L12.2522 27.8911C13.2968 28.1498 14.0027 27.3832 13.8654 26.4173L13.2091 21.9354H18.7704L23.1614 26.385C23.6437 26.8673 24.4434 26.8673 24.9258 26.385C25.4412 25.9069 25.4156 25.0933 24.9258 24.6014L20.2697 19.9219C19.9448 19.597 19.8012 19.4927 19.2591 19.4341L14.183 18.9239L12.9014 15.0621C12.8161 14.8116 12.9954 14.5842 13.2609 14.6407L22.5944 16.5016C23.2195 16.623 23.9255 16.2876 24.0532 15.5327C24.1608 14.8566 23.7668 14.2017 23.0864 14.0665L10.1876 11.4961C9.05414 11.2713 8.46281 11.1115 7.96312 10.6235L5.49164 8.17335V2.68617C5.49164 1.99617 4.93687 1.43929 4.25859 1.43929C3.54094 1.43929 3 1.99617 3 2.68617V8.49163C3 8.99437 3.0607 9.29249 3.42914 9.66093L6.20086 12.423C6.76125 12.993 6.83156 13.1859 7.02867 13.7644L10.7423 24.933L5.73703 23.6737C5.07047 23.5033 4.3943 23.9208 4.24523 24.599C4.09617 25.2539 4.47844 25.9322 5.13539 26.1026ZM7.78359 3.05835C8.61843 3.05835 9.31382 2.38429 9.31382 1.52812C9.31382 0.683671 8.61843 0 7.78359 0C6.9157 0 6.26507 0.683671 6.26507 1.52812C6.26507 2.38429 6.9157 3.05835 7.78359 3.05835Z" fill="black"/>
</svg>
