<svg width="28" height="28" viewBox="0 0 28 28" fill="none" xmlns="http://www.w3.org/2000/svg">
<path d="M7.44971 22.2909C7.44971 22.6928 7.67261 22.9232 8.06823 22.9232H20.0266C20.4243 22.9232 20.6451 22.6928 20.6451 22.2909V5.08425C20.6451 4.68229 20.4243 4.4519 20.0266 4.4519H8.06823C7.67261 4.4519 7.44971 4.68229 7.44971 5.08425V22.2909ZM8.69026 21.4321V5.9451C8.69026 5.78198 8.77018 5.69456 8.9312 5.69456H19.1636C19.3267 5.69456 19.4045 5.78198 19.4045 5.9451V21.4321C19.4045 21.5931 19.3267 21.6806 19.1636 21.6806H8.9312C8.77018 21.6806 8.69026 21.5931 8.69026 21.4321ZM8.68557 22.2501H19.39C19.9105 22.2501 20.1585 21.9074 20.1585 21.4305C20.1585 20.1295 18.2317 16.7568 14.0378 16.7568C9.85346 16.7568 7.91706 20.1295 7.91706 21.4305C7.91706 21.9074 8.16502 22.2501 8.68557 22.2501ZM14.0378 15.8008C15.7405 15.8125 17.1002 14.3751 17.1002 12.4614C17.1002 10.6671 15.7405 9.18277 14.0378 9.18277C12.3467 9.18277 10.9754 10.6671 10.9754 12.4614C10.9754 14.3751 12.3467 15.7912 14.0378 15.8008Z" fill="black"/>
<path d="M4 25.368C4 25.9726 4.40242 26.3655 5.00711 26.3655H23.0877C23.6924 26.3655 24.0948 25.9726 24.0948 25.368V2.00711C24.0948 1.40242 23.6924 1 23.0877 1H5.00711C4.40242 1 4 1.40242 4 2.00711V25.368ZM6.24741 23.7845V3.59053C6.24741 3.34538 6.34538 3.24741 6.58092 3.24741H21.5139C21.7516 3.24741 21.8495 3.34538 21.8495 3.59053V23.7845C21.8495 24.0297 21.7516 24.1181 21.5139 24.1181H6.58092C6.34538 24.1181 6.24741 24.0297 6.24741 23.7845Z" fill="black"/>
</svg>
