<svg width="34" height="28" viewBox="0 0 34 28" fill="none" xmlns="http://www.w3.org/2000/svg">
<path d="M7.49625 25.457C7.9882 25.457 8.35218 25.2268 8.93671 24.6859L12.2562 21.6282C11.6105 21.0967 11.044 20.2119 11.044 18.3777V10.1758C11.044 6.50128 13.2996 4.2766 16.9837 4.2766H25.3957L25.3861 3.91683C25.1787 1.57448 23.6177 0.00744629 20.8413 0.00744629H4.57125C1.76953 0.00744629 0 1.64456 0 4.50229V16.2273C0 19.0384 1.74422 20.7892 4.49531 20.7892H6.37945V24.1942C6.37945 24.9554 6.79781 25.457 7.49625 25.457Z" fill="black"/>
<path d="M27.1507 27.1313C27.8588 27.1313 28.2654 26.6394 28.2654 25.8685V22.4731H29.4907C32.2418 22.4731 33.986 20.7223 33.986 17.8995V10.475C33.986 7.62475 32.2144 5.98975 29.4127 5.98975H17.3185C14.4143 5.98975 12.7568 7.61842 12.7568 10.5205V17.8995C12.7568 20.7434 14.4185 22.4731 17.3185 22.4731H21.4038L25.7081 26.3699C26.2948 26.8991 26.6566 27.1313 27.1507 27.1313Z" fill="black"/>
<path d="M23.4121 15.7635C22.8236 15.7635 22.4872 15.4335 22.4671 14.8374L22.3201 10.6163C22.2925 10.0002 22.7544 9.552 23.3982 9.552C24.0463 9.552 24.5157 10.0098 24.4977 10.6163L24.339 14.8332C24.3114 15.4431 23.9846 15.7635 23.4121 15.7635ZM23.4003 19.5629C22.7321 19.5629 22.1729 19.0857 22.1729 18.4161C22.1729 17.7411 22.7321 17.266 23.4003 17.266C24.0718 17.266 24.6257 17.7315 24.6257 18.4161C24.6257 19.0953 24.0664 19.5629 23.4003 19.5629Z" fill="white"/>
</svg>
