<svg width="28" height="28" viewBox="0 0 28 28" fill="none" xmlns="http://www.w3.org/2000/svg">
<path d="M6.84421 24.8972H21.0295C23.5685 24.8972 24.8737 23.5919 24.8737 21.0914V6.82921C24.8737 4.32656 23.5685 3.02344 21.0295 3.02344H6.84421C4.31484 3.02344 3 4.31695 3 6.82921V21.0914C3 23.6016 4.31484 24.8972 6.84421 24.8972ZM6.97733 22.6013C5.88772 22.6013 5.29592 22.0371 5.29592 20.8985V7.01999C5.29592 5.88139 5.88772 5.31936 6.97733 5.31936H20.8964C21.9764 5.31936 22.5778 5.88139 22.5778 7.01999V20.8985C22.5778 22.0371 21.9764 22.6013 20.8964 22.6013H6.97733ZM6.09116 23.337H21.806C21.0703 20.1853 17.8669 17.9255 13.9523 17.9255C10.0303 17.9255 6.82475 20.1853 6.09116 23.337ZM13.9427 16.0359C16.1852 16.0573 17.94 14.145 17.94 11.6604C17.94 9.32389 16.1768 7.37225 13.9427 7.37225C11.7087 7.37225 9.93796 9.32389 9.94757 11.6604C9.95718 14.145 11.7002 16.0167 13.9427 16.0359Z" fill="black"/>
</svg>
