<svg width="32" height="28" viewBox="0 0 32 28" fill="none" xmlns="http://www.w3.org/2000/svg">
<path d="M9.70735 27.1506H21.641C23.7537 27.1506 25.1016 25.8144 25.1388 23.7135L25.287 12.719L27.7924 13.2876C29.1009 13.5665 29.9541 13.0555 30.2513 11.754L31.2593 7.40195C31.5607 6.10375 31.0542 5.19509 29.8453 4.68321L21.7692 1.25126C21.1113 0.964859 20.6484 0.984078 20.0981 1.24165C18.5388 1.97876 17.3536 2.32845 15.6752 2.32845C13.9873 2.32845 12.8116 1.97876 11.2406 1.24165C10.702 0.984078 10.2274 0.964859 9.56954 1.25126L1.50517 4.68321C0.284546 5.19509 -0.210217 6.10375 0.0815791 7.40195L1.09713 11.754C1.38681 13.0555 2.23782 13.5665 3.55594 13.2876L6.06142 12.719L6.21166 23.7135C6.2372 25.8144 7.58509 27.1506 9.70735 27.1506ZM9.7329 24.9894C8.89336 24.9894 8.38032 24.4647 8.37071 23.6092L8.20453 10.5386C8.20453 10.2658 7.99242 10.0708 7.66969 10.1411L3.51961 11.0636C3.30118 11.1083 3.14672 11.0167 3.10196 10.825L2.23102 7.12305C2.16914 6.84273 2.24696 6.73726 2.47078 6.64773L10.7236 3.13867C12.2981 3.96648 13.8237 4.37781 15.6752 4.37781C17.5247 4.37781 19.0406 3.96648 20.6269 3.13867L28.8776 6.64773C29.0939 6.73726 29.1813 6.84273 29.1174 7.12305L28.2368 10.825C28.192 11.0167 28.0493 11.1083 27.8288 11.0636L23.6787 10.1411C23.3485 10.0708 23.1438 10.2658 23.1438 10.5386L22.9777 23.6092C22.9681 24.4647 22.4571 24.9894 21.6176 24.9894H9.7329ZM15.6752 8.10225C18.6012 8.10225 21.1031 6.05335 21.604 3.17851L19.602 2.31039C19.3959 4.40149 17.6993 5.9411 15.6752 5.9411C13.6395 5.9411 11.9524 4.40149 11.7464 2.31039L9.74439 3.17851C10.2356 6.05335 12.7376 8.10225 15.6752 8.10225Z" fill="black"/>
</svg>
