<svg width="28" height="28" viewBox="0 0 28 28" fill="none" xmlns="http://www.w3.org/2000/svg">
<path d="M3.84421 24.8781H23.9109C26.4499 24.8781 27.7552 23.5824 27.7552 21.0819V6.81004C27.7552 4.30739 26.4499 3.00427 23.9109 3.00427H3.84421C1.31484 3.00427 0 4.30739 0 6.81004V21.0819C0 23.5824 1.31484 24.8781 3.84421 24.8781Z" fill="black"/>
<path d="M16.7532 10.1178C16.3102 10.1178 15.9812 9.78659 15.9812 9.35745C15.9812 8.94002 16.3102 8.60674 16.7532 8.60674H22.9133C23.3424 8.60674 23.6715 8.94002 23.6715 9.35745C23.6715 9.78659 23.3424 10.1178 22.9133 10.1178H16.7532ZM16.7532 14.7094C16.3102 14.7094 15.9812 14.3686 15.9812 13.9373C15.9812 13.5199 16.3102 13.1984 16.7532 13.1984H22.9133C23.3424 13.1984 23.6715 13.5199 23.6715 13.9373C23.6715 14.3686 23.3424 14.7094 22.9133 14.7094H16.7532ZM16.7532 19.2851C16.3102 19.2851 15.9812 18.9656 15.9812 18.5461C15.9812 18.1148 16.3102 17.7741 16.7532 17.7741H22.9133C23.3424 17.7741 23.6715 18.1148 23.6715 18.5461C23.6715 18.9656 23.3424 19.2851 22.9133 19.2851H16.7532ZM4.59711 19.3544C4.16609 19.3544 3.95117 19.0566 3.95117 18.6649C3.95117 17.5634 5.56649 14.7464 9.07672 14.7464C12.589 14.7464 14.2097 17.5634 14.2097 18.6649C14.2097 19.0566 13.9948 19.3544 13.5638 19.3544H4.59711ZM9.07672 13.9472C7.65875 13.9472 6.50821 12.7519 6.50821 11.1464C6.50821 9.64432 7.65875 8.40002 9.07672 8.40002C10.5043 8.40002 11.6452 9.64432 11.6452 11.1464C11.6452 12.7519 10.5043 13.9568 9.07672 13.9472Z" fill="white"/>
</svg>
