<svg width="32" height="28" viewBox="0 0 32 28" fill="none" xmlns="http://www.w3.org/2000/svg">
<path d="M0 13.3909C0 17.7758 3.01195 20.694 7.51405 20.694C11.948 20.694 14.9226 18.0688 14.9226 14.1313C14.9226 12.4816 14.3496 11.1524 13.3678 10.3197C12.8962 9.92476 12.6143 9.79281 12.1662 9.79281C11.5491 9.79281 11.1108 10.1821 11.1108 10.7406C11.1108 11.3772 11.4316 11.519 12.0614 12.0997C12.5262 12.5486 12.7863 13.2372 12.7863 14.094C12.7863 16.758 10.6999 18.5343 7.55132 18.5343C4.32069 18.5343 2.17358 16.4767 2.17358 13.3792C2.17358 11.564 3.10874 9.86991 4.6446 8.94483L3.5489 7.07125C1.34695 8.39101 0 10.8032 0 13.3909ZM3.16406 7.17155C3.16406 9.8903 5.06062 11.8084 8.00765 11.8084C8.59171 11.8084 9.08858 11.3137 9.08858 10.7275C9.08858 10.1317 8.59171 9.63695 8.00765 9.63695C6.35343 9.63695 5.33764 8.61249 5.33764 7.17155C5.33764 5.58343 6.64757 4.4685 8.41781 4.4685C9.3007 4.4685 10.2253 4.76334 11.0691 5.37553L12.3415 3.60413C11.1295 2.72054 9.74858 2.29703 8.43163 2.29703C5.49445 2.29703 3.16406 4.31828 3.16406 7.17155ZM9.49242 6.80452C9.4732 7.50038 9.94031 7.97382 10.5616 7.97382C11.1616 7.97382 11.6149 7.57069 11.6426 6.89921C11.7225 4.73171 13.289 3.15975 15.4908 3.15975C16.8134 3.15975 17.977 3.86101 18.4448 4.89905C18.566 5.11374 18.7476 5.14233 19.0209 5.07319C19.3908 4.97405 19.8117 4.91968 20.2188 4.91968C22.2869 4.941 24.2074 6.50077 24.2074 8.93077C24.2074 14.3594 16.4962 13.7254 16.4962 19.1812C16.4962 21.8223 18.5552 23.492 21.2983 23.492C21.5395 23.492 21.802 23.4824 22.0603 23.4728C22.3826 25.524 23.7082 27.407 25.7419 27.407C28.7053 27.407 30.27 23.9331 30.27 20.2555C30.27 18.6236 30.1774 17.5619 30.0614 16.5503L27.8962 17.1494C28.0059 18.1291 28.1102 19.0396 28.1102 20.23C28.1102 23.1219 27.0532 25.2334 25.7419 25.2334C24.4047 25.2334 23.8167 23.4222 23.8167 21.8669C23.8167 21.6843 23.6958 21.5559 23.4705 21.5655C23.1825 21.5655 22.7962 21.5655 22.4548 21.5655C20.1881 21.5655 18.7183 20.8337 18.7183 19.1123C18.7183 14.9983 26.3789 15.8127 26.3789 8.93077C26.3789 5.26234 23.6543 2.74609 20.4776 2.74609C20.2601 2.74609 19.9594 2.77914 19.6544 2.84852C18.6769 1.6968 17.1537 1 15.5025 1C12.0921 1 9.60984 3.3932 9.49242 6.80452ZM23.415 18.4546C23.415 19.0579 23.8917 19.494 24.4992 19.5376C28.6284 19.8123 31.3985 17.3692 31.3985 13.4488C31.3985 10.2316 29.0761 7.76406 25.6151 7.33351L25.2651 9.51647C27.6387 9.48413 29.2249 11.0612 29.2249 13.4488C29.2249 16.0382 27.3462 17.6048 24.5161 17.3758C23.9086 17.3226 23.415 17.8525 23.415 18.4546ZM17.4738 19.8051C16.7719 20.0765 15.9464 20.2148 15.1615 20.2148C13.3561 20.2148 11.524 19.5257 10.7674 18.4316L8.83757 19.9103C10.1144 21.3885 12.3241 22.3841 14.9243 22.3841C15.9654 22.3841 17.1068 22.2224 18.2196 21.8765L17.4738 19.8051ZM13.44 11.6476L14.1741 13.7158C17.2495 13.15 18.7024 11.2457 18.6792 8.37061C18.6708 7.77694 18.1676 7.28968 17.5718 7.28968C16.9781 7.28968 16.493 7.77694 16.5056 8.37061C16.5309 10.2946 15.6769 11.3629 13.44 11.6476Z" fill="black"/>
</svg>
