<svg width="28" height="31" viewBox="0 0 28 31" fill="none" xmlns="http://www.w3.org/2000/svg">
<path d="M20.661 11.942C22.1169 11.942 23.297 10.7598 23.297 9.30389C23.297 7.84796 22.1169 6.66788 20.661 6.66788C19.2051 6.66788 18.0325 7.84796 18.0325 9.30389C18.0325 10.7598 19.2051 11.942 20.661 11.942ZM14.0085 0.795378C12.8711 -0.355871 11.4974 -0.297277 9.7464 1.44624C8.78031 2.43788 8.26586 4.42022 7.95695 5.83373L6.19304 7.61358C5.6582 8.15053 5.76906 8.89514 6.24742 9.3735L9.76984 12.8842C9.99882 13.096 10.297 13.2334 10.6441 13.2334H12.8043C12.8863 13.2334 12.9257 13.3602 12.8491 13.3974L10.574 14.5339C8.44914 15.5809 7.9539 18.4107 10.1181 20.0073L14.4667 23.184L11.9387 28.2357C11.6289 28.8533 11.8759 29.6199 12.4797 29.916C13.0483 30.1981 13.8128 30.0256 14.1557 29.3591L17.0957 23.4854C17.3406 22.9881 17.3917 22.3684 16.8369 21.8178L13.3553 18.3479L17.8916 16.0904C18.0995 15.9796 18.3161 16.0222 18.4621 16.1778L24.7736 22.4797C25.2676 22.9759 26.0812 22.9482 26.5262 22.4797C27.0065 21.9857 27.0182 21.2073 26.5262 20.7153L17.2183 11.4074C16.7955 10.9846 16.3429 10.7396 15.7497 10.7396H11.1594L8.13226 7.71037L8.99359 6.84904C10.4071 6.54975 12.3991 6.03529 13.3576 5.05748C15.1225 3.31608 15.1811 1.9328 14.0085 0.795378ZM13.0049 1.82241C13.5911 2.39686 13.4066 2.95233 12.3402 4.04006C11.7018 4.66889 10.5133 4.96936 9.57671 5.24639C9.83452 4.29061 10.1467 3.12342 10.7873 2.47326C11.8633 1.39725 12.3953 1.23412 13.0049 1.82241ZM2.24476 25.2428H8.25156C8.78078 25.2428 9.21413 24.8605 9.43351 24.4079L10.6771 21.9282L9.39507 20.9795C8.94883 20.6546 8.58461 20.285 8.29914 19.8878L7.34007 22.7394H2.24476C1.56859 22.7394 1 23.3059 1 23.9842C1 24.6976 1.56859 25.2428 2.24476 25.2428Z" fill="black"/>
</svg>
