<svg width="28" height="28" viewBox="0 0 28 28" fill="none" xmlns="http://www.w3.org/2000/svg">
<path d="M14.105 26.2301C20.7369 26.2301 26.2121 20.7549 26.2121 14.123C26.2121 7.50291 20.7273 2.01807 14.0954 2.01807C7.47523 2.01807 2 7.50291 2 14.123C2 20.7549 7.48484 26.2301 14.105 26.2301Z" fill="black"/>
<path d="M8.72258 20.2321C8.18188 20.2321 7.92969 19.8693 7.92969 19.386C7.92969 18.0778 9.87758 14.6842 14.105 14.6842C18.3345 14.6842 20.2824 18.0778 20.2824 19.386C20.2824 19.8693 20.0302 20.2321 19.4895 20.2321H8.72258ZM14.105 13.7177C12.4025 13.7081 11.0143 12.273 11.0143 10.3361C11.0143 8.5377 12.4025 7.04614 14.105 7.04614C15.8096 7.04614 17.1978 8.5377 17.1978 10.3361C17.1978 12.273 15.8096 13.7273 14.105 13.7177Z" fill="white"/>
</svg>
