<svg width="34" height="30" viewBox="0 0 34 30" fill="none" xmlns="http://www.w3.org/2000/svg">
<path d="M14.2812 26.361C17.9986 30.0784 22.7016 29.803 26.0663 26.4362C28.6102 23.8944 29.2092 21.2335 28.2656 18.0301C27.7662 15.9643 26.5898 13.6707 25.5105 11.653C24.9773 10.6314 24.3293 9.30528 23.9278 8.84145C23.4581 8.3202 22.7822 8.29841 22.2544 8.76505C21.6574 9.29239 21.6408 9.97794 22.0266 11.0929L23.3567 14.7367C23.4888 15.0885 23.4579 15.2976 23.3353 15.4297C23.1764 15.5769 22.9824 15.6025 22.7084 15.3285L13.9498 6.5699C13.4229 6.04302 12.586 6.04302 12.0537 6.56779C11.5214 7.10005 11.5214 7.93911 12.0537 8.47349L18.4144 14.8342C18.1266 14.9685 17.827 15.1316 17.5275 15.3395L10.1813 7.99114C9.64688 7.45677 8.80993 7.45677 8.27556 7.99114C7.74329 8.51591 7.74329 9.36247 8.27556 9.88512L15.5419 17.1514C15.3148 17.4158 15.1027 17.6898 14.9044 17.9734L8.24321 11.3122C7.71306 10.7917 6.86978 10.7896 6.33751 11.3122C5.80525 11.8424 5.80736 12.6857 6.33962 13.2179L13.5654 20.4437C13.4311 20.8126 13.3395 21.1836 13.2553 21.5354L8.22587 16.506C7.69361 15.9716 6.85455 15.9695 6.32228 16.5018C5.79752 17.0265 5.79752 17.8752 6.32228 18.4L14.2812 26.361ZM20.502 8.64647L18.4254 6.5699C17.8889 6.04302 17.0423 6.04513 16.5197 6.56779C16.492 6.59333 16.474 6.61349 16.4581 6.65286L20.3977 10.6021C20.3245 9.89452 20.344 9.24764 20.502 8.64647ZM30.5344 26.4458C33.0741 23.8944 33.6773 21.2239 32.7391 18.0205C32.228 15.9643 31.0559 13.6804 29.9765 11.653C29.4551 10.6335 28.7953 9.30528 28.3842 8.85106C27.922 8.33192 27.2557 8.30052 26.7204 8.76505C26.509 8.9406 26.3623 9.15974 26.2835 9.40114C26.5835 9.96387 26.8739 10.5383 27.1718 11.0914C28.203 13.0452 29.4227 15.4628 29.9189 17.6502C31.0055 21.5153 30.1561 24.7738 27.2714 27.6392C26.7633 28.157 26.2242 28.5948 25.6617 28.9782C27.408 28.746 29.1021 27.8706 30.5344 26.4458Z" fill="black"/>
<path d="M3.93974 10.1387C4.36958 10.2217 4.83247 9.94934 4.91122 9.48856C4.99958 9.03739 4.72395 8.61177 4.26317 8.50958L1.01778 7.81255C0.527234 7.70825 0.0781736 8.02536 0.00903337 8.50418C-0.0558882 8.94363 0.235673 9.36504 0.673015 9.45551L3.93974 10.1387ZM5.14232 6.13301C5.47536 6.46606 6.00528 6.46606 6.32239 6.13301C6.6395 5.80208 6.65333 5.28599 6.32239 4.95505L3.96692 2.60708C3.62426 2.26653 3.11778 2.27614 2.78684 2.60708C2.45591 2.94012 2.44419 3.4466 2.78684 3.78715L5.14232 6.13301ZM9.67254 4.89481C10.1237 4.79802 10.4324 4.33724 10.3302 3.90951L9.63316 0.666218C9.53098 0.207548 9.09364 -0.0765128 8.64036 0.0181741C8.18919 0.110752 7.8763 0.554421 7.98059 1.01309L8.67552 4.24255C8.77981 4.68622 9.21926 4.99911 9.67254 4.89481Z" fill="black"/>
</svg>
