<svg width="28" height="28" viewBox="0 0 28 28" fill="none" xmlns="http://www.w3.org/2000/svg">
<path d="M7.84421 27.8095H21.3257C23.5626 27.8095 24.8753 26.5043 24.8753 24.0037V10.7379C24.8753 8.23734 23.553 6.93211 21.0311 6.93211H7.84421C5.31484 6.93211 4 8.22773 4 10.7379V24.0037C4 26.5043 5.31484 27.8095 7.84421 27.8095ZM6.58633 5.07703H22.2013C22.034 3.96 21.4731 3.32344 20.219 3.32344H8.56867C7.31453 3.32344 6.75367 3.96 6.58633 5.07703ZM8.60219 1.67274H20.1951C20.1163 0.621809 19.4873 0.0618896 18.3564 0.0618896H10.4312C9.30039 0.0618896 8.68094 0.621809 8.60219 1.67274ZM13.1057 25.5813C12.895 25.5429 12.5903 25.2096 12.5903 24.6537C12.5903 22.5811 14.638 20.227 17.8879 20.227C20.0207 20.227 21.8481 21.2925 22.7038 22.7388V23.8605C22.7038 25.0308 22.0241 25.5813 21.0119 25.5813H13.1057ZM17.8879 18.979C16.4976 18.979 15.3201 17.7377 15.3201 16.1672C15.3105 14.6051 16.5093 13.3926 17.8996 13.3926C19.2899 13.3926 20.4524 14.5762 20.4524 16.148C20.4524 17.7377 19.2824 18.979 17.8879 18.979ZM7.87515 25.5813C6.74546 25.5813 6.18319 25.0308 6.18319 23.8605V22.4927C6.89686 21.2789 8.47374 20.2057 10.5156 20.2057C11.5026 20.2057 12.2868 20.4337 12.9988 20.872C11.863 21.7305 11.1009 23.3777 11.103 24.6115C11.103 24.9947 11.17 25.3268 11.3137 25.5813H7.87515ZM10.5156 19.1346C9.30319 19.1346 8.28132 18.0595 8.2696 16.6648C8.26749 15.3115 9.3053 14.2568 10.5156 14.2568C11.7205 14.2568 12.752 15.2901 12.752 16.6551C12.752 18.0595 11.7323 19.1346 10.5156 19.1346Z" fill="black"/>
</svg>
