<svg width="36" height="28" viewBox="0 0 36 28" fill="none" xmlns="http://www.w3.org/2000/svg">
<path d="M0 16.3405C0 16.873 0.434531 17.3096 0.96703 17.3096C1.50914 17.3096 1.94367 16.873 1.94367 16.3405V12.2579C1.94367 12.0788 2.08969 11.9328 2.26875 11.9328C2.45742 11.9328 2.60344 12.0788 2.60344 12.2579V24.6226C2.60344 25.2158 3.07312 25.6834 3.66422 25.6834C4.26281 25.6834 4.73461 25.2137 4.73461 24.6226V17.0884C4.73461 16.9093 4.89023 16.7537 5.06929 16.7537C5.25797 16.7537 5.41359 16.9093 5.41359 17.0884V24.6226C5.41359 25.2137 5.88539 25.6834 6.47437 25.6834C7.06546 25.6834 7.54476 25.2158 7.54476 24.6226V12.2579C7.54476 12.0788 7.69078 11.9328 7.86984 11.9328C8.0489 11.9328 8.20453 12.0788 8.20453 12.2579V16.3405C8.20453 16.873 8.62945 17.3096 9.17156 17.3096C9.71367 17.3096 10.1386 16.873 10.1386 16.3405V11.7795C10.1386 9.41562 8.3939 7.86031 5.85539 7.86031H4.29281C1.7543 7.86031 0 9.41562 0 11.7795V16.3405ZM5.06929 6.67953C6.3689 6.67953 7.41281 5.63562 7.41281 4.33601C7.41281 3.04391 6.3689 2 5.06929 2C3.77929 2 2.73328 3.04391 2.73328 4.33601C2.73328 5.63562 3.77929 6.67953 5.06929 6.67953ZM25.519 16.3405C25.519 16.873 25.9535 17.3096 26.486 17.3096C27.0281 17.3096 27.4626 16.873 27.4626 16.3405V12.2579C27.4626 12.0788 27.6087 11.9328 27.7877 11.9328C27.9764 11.9328 28.1224 12.0788 28.1224 12.2579V24.6226C28.1224 25.2158 28.5921 25.6834 29.1832 25.6834C29.7722 25.6834 30.2536 25.2137 30.2536 24.6226V17.0884C30.2536 16.9093 30.4092 16.7537 30.5883 16.7537C30.7673 16.7537 30.9326 16.9093 30.9326 17.0884V24.6226C30.9326 25.2137 31.4044 25.6834 31.9934 25.6834C32.5844 25.6834 33.0541 25.2158 33.0541 24.6226V12.2579C33.0541 12.0788 33.2098 11.9328 33.3888 11.9328C33.5679 11.9328 33.7139 12.0788 33.7139 12.2579V16.3405C33.7139 16.873 34.1484 17.3096 34.6905 17.3096C35.2326 17.3096 35.6576 16.873 35.6576 16.3405V11.7795C35.6576 9.41562 33.9129 7.86031 31.3744 7.86031H29.8022C27.2733 7.86031 25.519 9.41562 25.519 11.7795V16.3405ZM30.5883 6.67953C31.8879 6.67953 32.9339 5.63562 32.9339 4.33601C32.9339 3.04391 31.8879 2 30.5883 2C29.2983 2 28.2544 3.04391 28.2544 4.33601C28.2544 5.63562 29.2983 6.67953 30.5883 6.67953Z" fill="black"/>
<path d="M13.1909 15.5101C14.0801 15.5101 14.7989 14.7912 14.7989 13.902C14.7989 13.0011 14.0801 12.294 13.1909 12.294C12.2899 12.294 11.5732 13.0011 11.5732 13.902C11.5732 14.7912 12.2899 15.5101 13.1909 15.5101ZM17.8549 15.5101C18.7462 15.5101 19.463 14.7912 19.463 13.902C19.463 13.0011 18.7462 12.294 17.8549 12.294C16.9561 12.294 16.2469 13.0011 16.2469 13.902C16.2469 14.7912 16.9561 15.5101 17.8549 15.5101ZM22.5073 15.5101C23.3965 15.5101 24.1153 14.7912 24.1153 13.902C24.1153 13.0011 23.3965 12.294 22.5073 12.294C21.6084 12.294 20.8992 13.0011 20.8992 13.902C20.8992 14.7912 21.6084 15.5101 22.5073 15.5101Z" fill="black"/>
</svg>
