<svg width="28" height="28" viewBox="0 0 28 28" fill="none" xmlns="http://www.w3.org/2000/svg">
<path d="M9.20215 20.8246C9.20215 24.2226 11.2714 26.3209 14.5831 26.3209C17.0546 26.3209 18.882 25.1894 20.0342 23.0748L21.0741 21.1881C23.3886 16.9401 27.5375 16.1251 27.5375 10.3054C27.5375 4.72492 23.9087 1 18.4723 1C12.9249 1 9.20215 4.75468 9.20215 10.3616V20.8246ZM11.2564 20.7264V10.3616C11.2564 5.97062 14.1409 3.05429 18.4723 3.05429C22.6831 3.05429 25.4811 5.96218 25.4811 10.3054C25.4811 15.1253 21.6852 15.9648 19.2233 20.3249L18.2523 22.015C17.4329 23.4829 16.3023 24.2261 14.6757 24.2261C12.5436 24.2261 11.2564 22.9014 11.2564 20.7264ZM13.017 17.4156C13.017 18.6238 13.9449 19.4312 15.3181 19.4312C17.1034 19.4216 18.3209 17.9638 18.3209 16.0888C18.3209 12.7771 14.9026 12.205 14.9047 9.79866C14.9047 8.00733 16.3287 6.71452 18.4531 6.71452C20.6359 6.71452 22.0576 8.11819 22.0576 10.2883C22.0576 10.8046 22.4813 11.2262 22.9977 11.2262C23.5098 11.2262 23.9431 10.8046 23.9431 10.2883C23.9431 7.01523 21.743 4.83109 18.4531 4.83109C15.2023 4.83109 13.017 6.90413 13.017 9.79866C13.017 12.3585 15.3287 13.1758 15.3287 14.2862C15.3287 15.5148 13.017 15.2748 13.017 17.4156Z" fill="black"/>
<path d="M3.24695 25.3448C4.46945 25.3448 5.45663 24.3576 5.45663 23.133C5.45663 21.8891 4.46734 20.9094 3.24695 20.9094C1.9914 20.9094 1 21.8891 1 23.133C1 24.3576 2.00101 25.3448 3.24695 25.3448Z" fill="black"/>
<path d="M3.24695 19.1603C4.46734 19.1603 5.45663 18.1572 5.45663 16.9134C5.45663 15.693 4.46734 14.7016 3.24695 14.7016C2.00312 14.7016 1 15.693 1 16.9134C1 18.1689 1.9914 19.1603 3.24695 19.1603Z" fill="black"/>
<path d="M3.24695 12.9386C4.46734 12.9386 5.45663 11.9472 5.45663 10.7151C5.45663 9.47126 4.46734 8.48196 3.24695 8.48196C1.9914 8.48196 1 9.47126 1 10.7151C1 11.9472 1.9914 12.9386 3.24695 12.9386Z" fill="black"/>
<path d="M3.24695 6.7328C4.46734 6.7328 5.45663 5.751 5.45663 4.50718C5.45663 3.28468 4.46945 2.29538 3.24695 2.29538C2.00101 2.29538 1 3.28468 1 4.50718C1 5.751 1.9914 6.7328 3.24695 6.7328Z" fill="black"/>
</svg>
