<svg width="28" height="28" viewBox="0 0 28 28" fill="none" xmlns="http://www.w3.org/2000/svg">
<path d="M5 19.8246C5 23.213 7.0789 25.3113 10.381 25.3113C12.8504 25.3113 14.6799 24.1894 15.8321 22.0748L16.872 20.1881C19.1865 15.9305 23.3333 15.123 23.3333 9.29367C23.3333 3.72492 19.7066 0 14.2702 0C8.72281 0 5 3.75258 5 9.35952V19.8246Z" fill="black"/>
<path d="M8.59863 16.6123C8.59863 14.3885 11.0125 14.6381 11.0125 13.3542C11.0125 12.2119 8.59863 11.3648 8.59863 8.71149C8.59863 5.7 10.869 3.52805 14.2485 3.52805C17.6692 3.52805 19.9565 5.80899 19.9565 9.20321C19.9565 9.74719 19.5072 10.1965 18.9653 10.1965C18.4309 10.1965 17.9816 9.74719 17.9816 9.20321C17.9816 6.96938 16.5142 5.50078 14.2485 5.50078C12.0453 5.50078 10.5756 6.84891 10.5756 8.71149C10.5735 11.2092 14.1226 11.7801 14.1226 15.2301C14.1226 17.1881 12.8668 18.713 10.9965 18.7247C9.568 18.7247 8.59863 17.8641 8.59863 16.6123Z" fill="white"/>
</svg>
