<svg width="28" height="28" viewBox="0 0 28 28" fill="none" xmlns="http://www.w3.org/2000/svg">
<path d="M14.3544 26.6263C16.5027 26.6263 18.2258 26.0971 19.5974 25.0483L6.06641 11.5152V18.2415C6.06641 23.496 9.59867 26.6263 14.3544 26.6263ZM22.5137 21.2055C22.6501 20.9167 22.779 20.6205 22.8824 20.305C23.4491 18.853 23.9446 17.309 24.4128 15.7867C24.766 14.6905 25.2334 13.289 25.2692 12.6716C25.3114 11.9755 24.8565 11.4756 24.1506 11.4334C23.3617 11.3849 22.8606 11.86 22.3435 12.9227L20.702 16.4331C20.5485 16.7849 20.3799 16.9108 20.2051 16.9108C19.9822 16.9108 19.8287 16.7828 19.8287 16.4001V4.01429C19.8287 3.26172 19.2388 2.66969 18.4862 2.66969C17.7399 2.66969 17.1458 3.26383 17.1458 4.01429V13.0143C16.8442 12.9034 16.5137 12.8139 16.1619 12.7457V2.35211C16.1619 1.60164 15.5699 1 14.8194 1C14.0689 1 13.4694 1.60164 13.4694 2.35211V11.8302C13.321 11.8398 13.2709 11.8398 13.1631 11.8687L22.5137 21.2055ZM9.75242 8.45055L12.4375 11.1409V3.33133C12.4375 2.58297 11.8433 1.98883 11.0949 1.98883C10.3466 1.98883 9.75242 2.58297 9.75242 3.33133V8.45055ZM7.05242 5.76977L8.76101 7.46664V6.98429C8.76101 6.23172 8.16898 5.63969 7.42062 5.63969C7.26945 5.63969 7.15133 5.69195 7.05242 5.76977Z" fill="black"/>
<path d="M23.2142 26.6066C23.5667 26.957 24.1834 26.9708 24.5337 26.6066C24.8862 26.2328 24.898 25.6513 24.5337 25.2871L3.59562 4.36069C3.2314 3.99647 2.6382 3.99647 2.26437 4.36069C1.91188 4.72069 1.91188 5.32772 2.26437 5.68022L23.2142 26.6066Z" fill="black"/>
</svg>
