<svg width="29" height="28" viewBox="0 0 29 28" fill="none" xmlns="http://www.w3.org/2000/svg">
<path d="M1.01789 4.73109C1.39898 4.73109 1.72687 4.4032 1.72687 4.01789C1.72687 3.62508 1.39898 3.3068 1.01789 3.3068C0.625077 3.3068 0.306797 3.62508 0.306797 4.01789C0.306797 4.4032 0.625077 4.73109 1.01789 4.73109ZM4.73882 4.73109C5.13164 4.73109 5.44992 4.4032 5.44992 4.01789C5.44992 3.62508 5.13164 3.3068 4.73882 3.3068C4.34601 3.3068 4.02773 3.62508 4.02773 4.01789C4.02773 4.4032 4.34601 4.73109 4.73882 4.73109ZM8.45976 4.73109C8.85468 4.73109 9.17296 4.4032 9.17296 4.01789C9.17296 3.62508 8.85468 3.3068 8.45976 3.3068C8.07867 3.3068 7.74867 3.62508 7.74867 4.01789C7.74867 4.4032 8.07867 4.73109 8.45976 4.73109ZM12.1945 5.02617C12.7418 5.02617 13.2007 4.56726 13.2007 4.01789C13.2007 3.46101 12.7418 3 12.1945 3C11.6355 3 11.1766 3.46101 11.1766 4.01789C11.1766 4.56726 11.6355 5.02617 12.1945 5.02617ZM15.9155 5.02617C16.4648 5.02617 16.9216 4.56726 16.9216 4.01789C16.9216 3.46101 16.4648 3 15.9155 3C15.3565 3 14.8976 3.46101 14.8976 4.01789C14.8976 4.56726 15.3565 5.02617 15.9155 5.02617ZM19.6523 4.73109C20.043 4.73109 20.3634 4.4032 20.3634 4.01789C20.3634 3.62508 20.043 3.3068 19.6523 3.3068C19.267 3.3068 18.9391 3.62508 18.9391 4.01789C18.9391 4.4032 19.267 4.73109 19.6523 4.73109ZM23.3829 4.73109C23.7661 4.73109 24.094 4.4032 24.094 4.01789C24.094 3.62508 23.7661 3.3068 23.3829 3.3068C22.9901 3.3068 22.6622 3.62508 22.6622 4.01789C22.6622 4.4032 22.9901 4.73109 23.3829 4.73109ZM27.1038 4.73109C27.487 4.73109 27.8149 4.4032 27.8149 4.01789C27.8149 3.62508 27.487 3.3068 27.1038 3.3068C26.7131 3.3068 26.3927 3.62508 26.3927 4.01789C26.3927 4.4032 26.7131 4.73109 27.1038 4.73109ZM1.01789 8.8057C1.39898 8.8057 1.72687 8.4757 1.72687 8.085C1.72687 7.70179 1.39898 7.3739 1.01789 7.3739C0.625077 7.3739 0.306797 7.70179 0.306797 8.085C0.306797 8.4757 0.625077 8.8057 1.01789 8.8057ZM4.73882 9.10078C5.29781 9.10078 5.7546 8.64398 5.7546 8.085C5.7546 7.53562 5.29781 7.07672 4.73882 7.07672C4.17984 7.07672 3.72094 7.53562 3.72094 8.085C3.72094 8.64398 4.17984 9.10078 4.73882 9.10078ZM8.45976 9.10078C8.59945 9.10078 8.73703 9.06234 8.8575 9.01007C9.02671 8.66226 9.23203 8.325 9.4671 8.0175C9.43968 7.49976 8.99765 7.07672 8.45976 7.07672C7.91039 7.07672 7.45359 7.53562 7.45359 8.085C7.45359 8.64398 7.91039 9.10078 8.45976 9.10078ZM19.6523 9.10078C20.2113 9.10078 20.6681 8.64398 20.6681 8.085C20.6681 7.53562 20.2113 7.07672 19.6523 7.07672C19.1454 7.07672 18.7301 7.45172 18.6546 7.9289C18.9185 8.27484 19.1548 8.64304 19.3432 9.05062C19.4444 9.09117 19.5415 9.10078 19.6523 9.10078ZM23.3829 9.10078C23.9323 9.10078 24.3912 8.64398 24.3912 8.085C24.3912 7.53562 23.9323 7.07672 23.3829 7.07672C22.8239 7.07672 22.365 7.53562 22.365 8.085C22.365 8.64398 22.8239 9.10078 23.3829 9.10078ZM27.1038 8.8057C27.487 8.8057 27.8149 8.4757 27.8149 8.085C27.8149 7.70179 27.487 7.3739 27.1038 7.3739C26.7131 7.3739 26.3927 7.70179 26.3927 8.085C26.3927 8.4757 26.7131 8.8057 27.1038 8.8057ZM1.01789 13.1775C1.56304 13.1775 2.02406 12.7165 2.02406 12.1575C2.02406 11.6027 1.56304 11.1417 1.01789 11.1417C0.458905 11.1417 0 11.6027 0 12.1575C0 12.7165 0.458905 13.1775 1.01789 13.1775ZM4.73882 13.4747C5.46187 13.4747 6.05179 12.8848 6.05179 12.1575C6.05179 11.4366 5.46187 10.8445 4.73882 10.8445C4.01578 10.8445 3.42586 11.4366 3.42586 12.1575C3.42586 12.8848 4.01578 13.4747 4.73882 13.4747ZM7.14679 12.1575C7.14679 12.8613 7.71539 13.4534 8.40328 13.4747C8.26593 12.9614 8.20312 12.413 8.20312 11.8528C8.20312 11.5036 8.23078 11.1799 8.28187 10.8562C7.64086 10.95 7.14679 11.4952 7.14679 12.1575ZM20.9749 12.1575C20.9749 11.524 20.5097 10.9884 19.8996 10.868C19.9507 11.1799 19.9666 11.494 19.9666 11.8336C19.9666 12.4033 19.9038 12.9518 19.7665 13.4747C20.4255 13.4128 20.9749 12.8421 20.9749 12.1575ZM23.3829 13.4747C24.0963 13.4747 24.6958 12.8848 24.6958 12.1575C24.6958 11.4366 24.0963 10.8445 23.3829 10.8445C22.6598 10.8445 22.0603 11.4366 22.0603 12.1575C22.0603 12.8848 22.6598 13.4747 23.3829 13.4747ZM27.1038 13.1775C27.6628 13.1775 28.1217 12.7165 28.1217 12.1575C28.1217 11.6027 27.6628 11.1417 27.1038 11.1417C26.5491 11.1417 26.088 11.6027 26.088 12.1575C26.088 12.7165 26.5491 13.1775 27.1038 13.1775ZM1.01789 17.2425C1.56304 17.2425 2.02406 16.7836 2.02406 16.2342C2.02406 15.6773 1.56304 15.2184 1.01789 15.2184C0.458905 15.2184 0 15.6773 0 16.2342C0 16.7836 0.458905 17.2425 1.01789 17.2425ZM4.73882 17.5493C5.46187 17.5493 6.05179 16.9476 6.05179 16.2342C6.05179 15.5133 5.46187 14.9116 4.73882 14.9116C4.01578 14.9116 3.42586 15.5133 3.42586 16.2342C3.42586 16.9476 4.01578 17.5493 4.73882 17.5493ZM7.85109 17.3836C8.41336 17.0173 9.03632 16.717 9.70078 16.4508C9.82781 15.6647 9.22922 14.9391 8.43234 14.9391C7.73367 14.9391 7.14679 15.528 7.14679 16.2342C7.14679 16.7285 7.44304 17.1642 7.85109 17.3836ZM20.3058 17.3505C20.6883 17.1312 20.9749 16.7051 20.9749 16.2342C20.9749 15.528 20.3859 14.9391 19.6798 14.9391C18.8925 14.9391 18.2939 15.6551 18.4209 16.4391C19.095 16.684 19.7201 17.0013 20.3058 17.3505ZM23.3829 17.5493C24.0963 17.5493 24.6958 16.9476 24.6958 16.2342C24.6958 15.5133 24.0963 14.9116 23.3829 14.9116C22.6598 14.9116 22.0603 15.5133 22.0603 16.2342C22.0603 16.9476 22.6598 17.5493 23.3829 17.5493ZM27.1038 17.2425C27.6628 17.2425 28.1217 16.7836 28.1217 16.2342C28.1217 15.6773 27.6628 15.2184 27.1038 15.2184C26.5491 15.2184 26.088 15.6773 26.088 16.2342C26.088 16.7836 26.5491 17.2425 27.1038 17.2425ZM1.01789 21.0124C1.39898 21.0124 1.72687 20.6941 1.72687 20.2992C1.72687 19.9181 1.39898 19.5881 1.01789 19.5881C0.625077 19.5881 0.306797 19.9181 0.306797 20.2992C0.306797 20.6941 0.625077 21.0124 1.01789 21.0124ZM4.27805 21.1948C4.56023 20.6177 4.92867 20.047 5.36086 19.5136C5.18836 19.373 4.97531 19.293 4.73882 19.293C4.17984 19.293 3.72094 19.7541 3.72094 20.2992C3.72094 20.6869 3.94781 21.0276 4.27805 21.1948ZM23.8926 21.1767C24.1802 21 24.3912 20.6751 24.3912 20.2992C24.3912 19.7541 23.9323 19.293 23.3829 19.293C23.1485 19.293 22.9568 19.3612 22.7885 19.4784C23.2378 20.0236 23.6008 20.5943 23.8926 21.1767ZM27.1038 21.0124C27.487 21.0124 27.8149 20.6941 27.8149 20.2992C27.8149 19.9181 27.487 19.5881 27.1038 19.5881C26.7131 19.5881 26.3927 19.9181 26.3927 20.2992C26.3927 20.6941 26.7131 21.0124 27.1038 21.0124ZM1.01789 25.087C1.39898 25.087 1.72687 24.7687 1.72687 24.3759C1.72687 23.9852 1.39898 23.6648 1.01789 23.6648C0.625077 23.6648 0.306797 23.9852 0.306797 24.3759C0.306797 24.7687 0.625077 25.087 1.01789 25.087ZM27.1038 25.087C27.487 25.087 27.8149 24.7687 27.8149 24.3759C27.8149 23.9852 27.487 23.6648 27.1038 23.6648C26.7131 23.6648 26.3927 23.9852 26.3927 24.3759C26.3927 24.7687 26.7131 25.087 27.1038 25.087Z" fill="black"/>
<path d="M14.0843 16.369C16.2731 16.369 18.2116 14.374 18.2116 11.8273C18.2116 9.28476 16.2731 7.4325 14.0843 7.4325C11.9072 7.4325 9.97076 9.33164 9.97076 11.8528C9.97076 14.374 11.9072 16.369 14.0843 16.369ZM8.03576 25.3118H20.1349C21.9136 25.3118 22.4641 24.7943 22.4641 23.8912C22.4641 21.3157 19.2654 17.7687 14.0843 17.7687C8.9149 17.7687 5.71826 21.3157 5.71826 23.8912C5.71826 24.7943 6.25709 25.3118 8.03576 25.3118Z" fill="black"/>
</svg>
