<svg width="28" height="28" viewBox="0 0 28 28" fill="none" xmlns="http://www.w3.org/2000/svg">
<path d="M7.37796 24.9751C8.55007 24.9751 9.76038 24.496 10.7602 23.6415L9.34226 22.1991C8.76171 22.6473 8.10335 22.8889 7.39179 22.8889C5.59507 22.8889 4.25866 21.654 4.25866 19.9182C4.25866 17.4109 6.44116 16.1239 8.85663 16.5601C10.264 13.4091 11.0476 9.51031 11.8646 6.19765C12.1951 4.87437 12.8302 4.14827 14.0148 4.14827C15.1993 4.14827 15.8366 4.87437 16.1574 6.19765C16.9841 9.51031 17.7676 13.4091 19.175 16.5601C21.5905 16.1239 23.773 17.4109 23.773 19.9182C23.773 21.654 22.4366 22.8889 20.6398 22.8889C19.9283 22.8889 19.2699 22.6473 18.6798 22.1991L17.2714 23.6415C18.2616 24.496 19.4816 24.9751 20.6516 24.9751C23.8826 24.9751 26.0316 22.9072 26.0316 19.8242C26.0316 16.8629 23.8765 14.6902 20.809 14.3863C19.7194 11.5887 18.8757 8.59437 18.2276 5.80273C17.6569 3.31625 16.2598 2 14.0148 2C11.7718 2 10.3747 3.31625 9.80187 5.80273C9.15593 8.59437 8.31218 11.5887 7.22257 14.3863C4.15507 14.6902 2 16.8629 2 19.8242C2 22.9072 4.14687 24.9751 7.37796 24.9751ZM14.0148 25.103C16.929 25.103 18.4112 23.7418 19.4731 22.4089C19.7171 22.5507 19.9782 22.6264 20.2606 22.6264C21.1876 22.6264 21.773 21.9723 21.773 21.2377C21.773 20.4905 21.2164 19.8322 20.3269 19.8322C19.6751 19.8322 19.2802 20.1763 18.717 20.78C17.3419 22.2437 16.0062 22.9128 14.0148 22.9128C12.0254 22.9128 10.6801 22.2512 9.3146 20.78C8.75139 20.1763 8.35436 19.8322 7.70468 19.8322C6.80562 19.8322 6.25648 20.4905 6.25648 21.2377C6.25648 21.9723 6.84405 22.6264 7.7614 22.6264C8.05343 22.6264 8.31452 22.5507 8.5489 22.4089C9.62046 23.7418 11.1026 25.103 14.0148 25.103Z" fill="black"/>
</svg>
