<svg width="28" height="28" viewBox="0 0 28 28" fill="none" xmlns="http://www.w3.org/2000/svg">
<path d="M5 19.8246C5 23.213 7.0789 25.3113 10.381 25.3113C12.8525 25.3113 14.6799 24.1894 15.8417 22.0748L16.8837 20.1881C19.1961 15.9305 23.3354 15.1251 23.3354 9.29578C23.3354 3.72492 19.7066 0 14.2723 0C8.73242 0 5 3.75468 5 9.36163V19.8246ZM7.05429 19.7264V9.36163C7.05429 4.97062 9.94085 2.05429 14.2723 2.05429C18.481 2.05429 21.2811 4.96218 21.2811 9.29578C21.2811 14.1253 17.483 14.9648 15.0212 19.3153L14.0501 21.015C13.2308 22.4829 12.1002 23.2186 10.4757 23.2186C8.34147 23.2186 7.05429 21.9014 7.05429 19.7264Z" fill="black"/>
<path d="M8.82422 16.406C8.82422 17.6142 9.7425 18.4312 11.1157 18.4312C12.9105 18.4216 14.1281 16.9638 14.1281 15.0792C14.1281 11.7675 10.7098 11.205 10.7119 8.79865C10.7119 7.00732 12.1359 5.7049 14.2624 5.7049C16.4431 5.7049 17.8552 7.11818 17.8552 9.27866C17.8552 9.79498 18.2789 10.2284 18.7952 10.2284C19.3074 10.2284 19.7407 9.79498 19.7407 9.27866C19.7407 6.01522 17.5502 3.82147 14.2624 3.82147C11.0095 3.82147 8.82422 5.90412 8.82422 8.79865C8.82422 11.3585 11.1359 12.1758 11.1359 13.2766C11.1359 14.5169 8.82422 14.2652 8.82422 16.406Z" fill="black"/>
</svg>
