<svg width="33" height="30" viewBox="0 0 33 30" fill="none" xmlns="http://www.w3.org/2000/svg">
<path d="M26.6088 26.7327C29.666 23.6872 30.1643 19.9004 28.0886 15.5352L25.4245 9.90974C25.2265 9.4956 24.9869 9.15599 24.7197 8.8888C23.7797 7.94873 22.3947 7.96607 21.4666 8.9038C20.8776 9.48318 20.6723 10.3661 21.0422 11.2951L21.6869 12.8505C21.7083 12.8931 21.7083 12.9358 21.6752 12.9688C21.6326 13.0136 21.5878 13.0019 21.5451 12.9592L15.1558 6.57201C14.119 5.52552 12.7673 5.53396 11.7508 6.55044C11.4342 6.86708 11.2488 7.25732 11.2139 7.66888C10.215 6.98966 9.12111 7.06583 8.27338 7.92317C7.44369 8.74536 7.36752 9.87013 8.00198 10.8477C7.61596 10.8688 7.24916 11.0521 6.96768 11.3336C6.02573 12.2755 6.03651 13.5739 7.01174 14.5588L7.79831 15.3336C7.38979 15.3451 6.98338 15.5371 6.66768 15.8645C5.71612 16.8064 5.75667 18.1698 6.75627 19.1694L14.0037 26.4189C18.0049 30.418 22.9214 30.4201 26.6088 26.7327ZM25.1721 25.3907C22.2087 28.3541 18.4994 28.2751 15.184 24.95L8.23657 18.0027C7.91337 17.6891 7.90376 17.2668 8.20775 16.9532C8.51173 16.6492 8.9533 16.6492 9.26689 16.9628L13.5408 21.2345C13.8898 21.5856 14.4194 21.545 14.7492 21.2228C15.0811 20.8909 15.1216 20.3558 14.7705 20.0047L8.36735 13.6016C8.05376 13.288 8.03454 12.8657 8.33853 12.5617C8.65212 12.2577 9.09369 12.2577 9.40728 12.5713L15.3705 18.5345C15.7216 18.8835 16.2588 18.8525 16.5811 18.5228C16.9108 18.1909 16.9514 17.6537 16.6003 17.3026L9.58681 10.2892C9.27321 9.97559 9.2636 9.53403 9.56759 9.23004C9.86196 8.92605 10.3132 8.94527 10.6268 9.25887L17.5453 16.1795C17.8772 16.5093 18.4165 16.4975 18.7462 16.1657C19.0877 15.8263 19.109 15.2891 18.7772 14.9476L12.8993 9.06973C12.5857 8.75614 12.574 8.32629 12.8876 8.02231C13.1915 7.70871 13.6256 7.71621 13.9392 8.03942L22.1904 16.2906C22.6617 16.764 23.2383 16.7324 23.6224 16.3344C23.9449 16.0077 24.0949 15.5577 23.85 14.9305L22.3767 11.0645C22.1943 10.5953 22.3734 10.2039 22.7275 10.0396C23.1243 9.86355 23.4794 10.0375 23.7173 10.5367L26.4276 16.3328C28.2251 20.1765 27.5672 22.986 25.1721 25.3907ZM15.1453 5.61809C14.8233 5.92091 14.6496 6.31232 14.5987 6.71122L16.2461 8.23441C15.9337 7.87769 15.922 7.41082 16.2365 7.0909C16.5553 6.77847 17.0104 6.79769 17.3526 7.13027L21.146 10.9311L22.3336 9.42294L18.5503 5.63966C17.4942 4.59318 16.1744 4.61216 15.1453 5.61809ZM29.8556 25.8627C32.9032 22.8076 33.4014 19.0208 31.3333 14.6535L28.6617 9.02051C28.1559 7.93864 27.2861 7.31098 26.2408 7.31731C25.4908 7.31942 24.0834 7.82778 24.0834 9.48739C24.0834 9.60786 24.0834 9.72622 24.1026 9.85629L25.6427 10.3907C25.5787 10.2489 25.5361 10.0986 25.5361 9.92261C25.5361 9.57714 25.8133 9.24222 26.2708 9.24222C26.5535 9.24222 26.8457 9.43957 27.0025 9.77449L29.6627 15.451C31.4601 19.2852 30.8214 22.116 28.4114 24.4993C27.3916 25.517 26.2814 26.173 25.1477 26.4482L23.0339 28.4279C25.4184 28.7544 27.8215 27.8851 29.8556 25.8627Z" fill="black"/>
<path d="M3.93013 10.1387C4.36958 10.2217 4.83247 9.94934 4.91122 9.48856C4.99958 9.03739 4.72395 8.61177 4.26317 8.50958L1.01778 7.81255C0.527234 7.70825 0.0781736 8.02536 0.00903337 8.50418C-0.0558882 8.94363 0.235673 9.36504 0.673015 9.45551L3.93013 10.1387ZM5.13271 6.13301C5.46575 6.46606 6.00528 6.46606 6.32239 6.13301C6.6395 5.80208 6.65333 5.28599 6.32239 4.95505L3.96692 2.60708C3.62426 2.26653 3.11778 2.27614 2.78684 2.60708C2.45591 2.94012 2.44419 3.4466 2.78684 3.78715L5.13271 6.13301ZM9.67254 4.89481C10.1237 4.79802 10.4324 4.33724 10.3302 3.90951L9.63316 0.666218C9.53098 0.207548 9.08403 -0.0765128 8.64036 0.0181741C8.18919 0.110752 7.8763 0.554421 7.98059 1.01309L8.67552 4.24255C8.77981 4.68622 9.20966 4.99911 9.67254 4.89481Z" fill="black"/>
</svg>
