<svg width="28" height="28" viewBox="0 0 28 28" fill="none" xmlns="http://www.w3.org/2000/svg">
<path d="M11.9956 25.0544C12.4632 24.9233 12.7592 24.7764 12.9593 24.4058L15.5543 19.742C15.6012 19.66 15.6448 19.6227 15.7481 19.6227H22.036V25.5768C22.036 26.2902 22.6046 26.8333 23.2807 26.8333C23.9942 26.8333 24.551 26.2902 24.551 25.5768V18.5069C24.551 17.688 24.1017 17.1918 23.2498 17.1194L17.9285 16.6368V9.94351C17.9285 8.60476 16.9849 7.48867 15.3331 7.48867H14.7642C13.7982 7.48867 13.0505 7.65695 12.094 8.37484L8.11221 11.3596C7.403 11.8771 7.44776 12.9259 8.17713 13.4062L13.021 16.6265V16.9016L10.9149 22.7415L4.92167 24.3927C4.25511 24.5769 3.86112 25.2573 4.04534 25.9197C4.24339 26.6235 4.87479 26.9823 5.58401 26.7981L11.9956 25.0544ZM11.0372 12.2966L12.713 11.0387C12.8536 10.9429 13.021 11.0111 13.021 11.1826V13.6152L11.0372 12.2966ZM15.3331 6.26453C16.7698 6.26453 17.952 5.08445 17.952 3.6189C17.952 2.18219 16.7698 1 15.3331 1C13.8675 1 12.6853 2.18219 12.6853 3.6189C12.6853 5.08445 13.8675 6.26453 15.3331 6.26453Z" fill="black"/>
</svg>
