<svg width="28" height="28" viewBox="0 0 28 28" fill="none" xmlns="http://www.w3.org/2000/svg">
<path d="M11.353 23.1945C15.0704 26.9023 19.7809 26.6173 23.1381 23.2719C25.6799 20.7205 26.281 18.0479 25.3449 14.8465C24.8359 12.7883 23.6595 10.5064 22.5824 8.47905C22.0492 7.45742 21.399 6.12922 20.9879 5.67711C20.5278 5.15586 19.8519 5.12235 19.3262 5.5911C18.7292 6.11633 18.7105 6.80399 19.0963 7.92641L20.4167 11.5606C20.5585 11.9145 20.5372 12.1236 20.405 12.2537C20.2578 12.403 20.0521 12.4285 19.7685 12.1545L11.0291 3.39384C10.4947 2.86907 9.64604 2.86907 9.12339 3.39173C8.59112 3.92399 8.59112 4.76516 9.1255 5.29743L15.4841 11.6581C15.1963 11.7924 14.8967 11.9673 14.5993 12.1634L7.25096 4.81719C6.7262 4.28282 5.87964 4.28282 5.34737 4.81719C4.82261 5.34946 4.82261 6.18641 5.34737 6.72078L12.602 13.9754C12.3845 14.2398 12.1724 14.5234 11.9741 14.8069L5.31503 8.13828C4.78277 7.60602 3.93949 7.60391 3.40722 8.13617C2.88668 8.66844 2.88879 9.50961 3.40933 10.0419L10.6447 17.2676C10.5008 17.6387 10.4092 18.0097 10.3271 18.3615L5.29558 13.3299C4.77293 12.7977 3.92426 12.7955 3.39199 13.3278C2.86934 13.8601 2.86934 14.7012 3.39199 15.2356L11.353 23.1945Z" fill="black"/>
</svg>
