<svg width="28" height="28" viewBox="0 0 28 28" fill="none" xmlns="http://www.w3.org/2000/svg">
<path d="M7.84421 27.7711H21.3257C23.5626 27.7711 24.8753 26.4658 24.8753 23.9653V10.6994C24.8753 8.19889 23.553 6.89366 21.0311 6.89366H7.84421C5.31484 6.89366 4 8.18928 4 10.6994V23.9653C4 26.4658 5.31484 27.7711 7.84421 27.7711ZM7.97733 25.473C6.88772 25.473 6.29592 24.9014 6.29592 23.7628V10.8923C6.29592 9.76123 6.88772 9.18958 7.97733 9.18958H20.8884C21.9684 9.18958 22.5794 9.76123 22.5794 10.8923V23.7628C22.5794 24.9014 21.9684 25.473 21.183 25.473H7.97733ZM6.58633 5.03858H22.2013C22.034 3.92155 21.4731 3.28499 20.219 3.28499H8.56867C7.31453 3.28499 6.75367 3.92155 6.58633 5.03858ZM8.60219 1.63429H20.1951C20.1163 0.583358 19.4873 0.0234375 18.3564 0.0234375H10.4312C9.30039 0.0234375 8.68094 0.583358 8.60219 1.63429ZM13.4845 25.8169H21.8019C23.0934 25.8169 23.478 25.1121 23.478 24.3576C23.305 22.5335 21.3023 20.4091 18.1211 20.4091C14.7904 20.4091 12.6916 22.7737 12.6916 24.6363C12.6916 25.4121 13.0272 25.8169 13.4845 25.8169ZM18.1211 19.0544C19.5241 19.0544 20.7025 17.8048 20.7025 16.2065C20.7025 14.6243 19.5219 13.4323 18.1211 13.4323C16.7244 13.4323 15.5268 14.6531 15.5364 16.2258C15.5364 17.8048 16.7223 19.0544 18.1211 19.0544ZM10.7024 20.3857C7.89155 20.3857 5.97109 22.4208 5.91343 24.2674C5.91343 25.1358 6.30882 25.8169 7.38882 25.8169H11.5473C11.3898 25.462 11.3111 25.0519 11.3111 24.6194C11.3111 23.2669 11.9676 21.9574 13.0712 20.958C12.4436 20.5849 11.6477 20.3857 10.7024 20.3857ZM10.7024 19.208C11.9275 19.208 12.9536 18.1265 12.9536 16.718C12.9536 15.3424 11.9158 14.3027 10.7024 14.3027C9.48577 14.3027 8.44374 15.3637 8.44374 16.7276C8.45335 18.1265 9.48366 19.208 10.7024 19.208Z" fill="black"/>
</svg>
