<svg width="28" height="28" viewBox="0 0 28 28" fill="none" xmlns="http://www.w3.org/2000/svg">
<path d="M13.8773 5.24531C15.3333 5.24531 16.5133 4.05351 16.5133 2.62851C16.5133 1.17258 15.3333 0 13.8773 0C12.431 0 11.2584 1.17258 11.2584 2.62851C11.2584 4.05351 12.431 5.24531 13.8773 5.24531ZM4.62724 24.5109C3.9649 25.1733 4.11396 25.9868 4.60381 26.4297C5.04677 26.8237 5.81341 26.9079 6.42677 26.2966L10.9254 21.8001C11.0339 21.6916 11.0733 21.648 11.1595 21.4894L13.3816 17.3189C13.6938 16.7201 14.5315 16.7008 15.06 17.093L20.0817 20.8992V26.085C20.0817 26.9177 20.5992 27.4373 21.3616 27.4373C22.124 27.4373 22.6436 26.9177 22.6436 26.085V20.2837C22.6436 19.9132 22.4946 19.5916 22.1634 19.2977L16.4962 14.4337V9.17108C16.4962 8.88655 16.6933 8.6585 17.028 8.60202L26.4405 7.1714C27.1305 7.06171 27.6086 6.39726 27.5011 5.70515C27.3989 5.01515 26.7482 4.53281 26.0561 4.6446L7.32888 7.48031V3.69468H4.79037V8.98476C4.79037 9.78444 5.4431 10.3383 6.25451 10.2148L10.2972 9.60327C10.6458 9.54679 10.9005 9.7685 10.9005 10.1191V14.8821L8.95427 20.1818L4.62724 24.5109ZM5.14779 5.13491C6.56435 5.13491 8.11427 4.47984 9.03771 3.44343C9.37404 3.07406 9.37404 2.59289 9.03771 2.21179C8.11427 1.17539 6.56435 0.522419 5.14779 0.522419C3.74084 0.522419 2.18881 1.17539 1.25787 2.20968C0.914043 2.59289 0.914043 3.07406 1.25787 3.45726C2.18881 4.47984 3.74084 5.13491 5.14779 5.13491Z" fill="black"/>
</svg>
