<svg width="33" height="28" viewBox="0 0 33 28" fill="none" xmlns="http://www.w3.org/2000/svg">
<path d="M15.2354 25.2777H29.8466C31.8733 25.2777 32.8475 24.6432 32.8475 23.2677C32.8475 20.0603 28.8358 15.7538 22.54 15.7538C16.2559 15.7538 12.2441 20.0603 12.2441 23.2677C12.2441 24.6432 13.2184 25.2777 15.2354 25.2777ZM14.8459 23.2529C14.5686 23.2529 14.4662 23.1688 14.4662 22.9501C14.4662 21.1548 17.3689 17.7786 22.54 17.7786C27.7227 17.7786 30.6255 21.1548 30.6255 22.9501C30.6255 23.1688 30.5134 23.2529 30.2362 23.2529H14.8459ZM22.5496 14.3872C25.3829 14.3872 27.6775 11.8838 27.6775 8.81817C27.6775 5.79286 25.3841 3.39099 22.5496 3.39099C19.7268 3.39099 17.4121 5.8313 17.4238 8.8395C17.4355 11.8934 19.7183 14.3872 22.5496 14.3872ZM22.5496 12.3624C20.9293 12.3624 19.5468 10.8146 19.5468 8.83528C19.535 6.91012 20.9068 5.41574 22.5496 5.41574C24.1965 5.41574 25.5545 6.8909 25.5545 8.81817C25.5545 10.7933 24.1836 12.3624 22.5496 12.3624Z" fill="black"/>
<path d="M2.51179 25.2797H11.6203C10.984 24.9084 10.5579 24.0703 10.6463 23.2922H2.39296C2.16374 23.2922 2.07303 23.1984 2.07303 23.0011C2.07303 20.2994 5.23757 17.7199 8.96414 17.7199C10.2771 17.7199 11.6004 18.0483 12.6253 18.6213C13.0076 18.0598 13.496 17.5758 14.1309 17.1598C12.6466 16.2354 10.7965 15.7366 8.96414 15.7366C4.01391 15.7366 0 19.2802 0 23.1804C0 24.5698 0.839061 25.2797 2.51179 25.2797ZM8.97375 14.5062C11.4321 14.5062 13.4358 12.3171 13.4358 9.61901C13.4358 6.98792 11.4408 4.85229 8.97375 4.85229C6.52172 4.85229 4.49789 7.01886 4.50961 9.64034C4.51172 12.331 6.51539 14.5062 8.97375 14.5062ZM8.97375 12.5112C7.63148 12.5112 6.50671 11.2329 6.50671 9.64034C6.50249 8.09346 7.62609 6.84939 8.97375 6.84939C10.3385 6.84939 11.4504 8.07424 11.4504 9.61901C11.4504 11.2329 10.3181 12.5112 8.97375 12.5112Z" fill="black"/>
</svg>
