<svg width="29" height="28" viewBox="0 0 29 28" fill="none" xmlns="http://www.w3.org/2000/svg">
<path d="M14.5494 26.6835L18.1114 22.4397C18.4714 22.019 18.5246 21.9168 18.6652 21.479L18.8851 20.7981L16.9224 18.336L16.3705 20.9254L12.8563 25.0905C11.7041 26.4737 13.5931 27.824 14.5494 26.6835ZM23.1697 26.3214C23.9162 27.8495 26.1812 26.905 25.3623 25.2437L22.9442 20.3469C22.7546 19.9794 22.4989 19.5789 22.2657 19.2456L20.7477 17.0926L20.8468 16.7931C21.2527 15.5491 21.4177 14.8119 21.4998 13.5923L21.7384 10.1634C21.8577 8.50515 20.8705 7.26109 19.194 7.26109C17.9244 7.26109 17.0691 7.90117 15.9177 9.02921L14.1015 10.8177C13.5071 11.4004 13.3091 11.8839 13.2484 12.6709L13.0236 15.4724C12.9608 16.2051 13.3728 16.7226 14.0565 16.746C14.7444 16.795 15.166 16.383 15.2267 15.6076L15.4866 12.5514L16.3243 11.8033C16.61 11.5389 17.0054 11.7116 16.9798 12.0259L16.7945 14.5691C16.689 15.8784 16.9873 16.5226 17.9171 17.6697L20.3138 20.6821C20.5557 20.9847 20.5834 21.0976 20.6909 21.2936L23.1697 26.3214ZM27.3205 11.8884H24.6104L22.9459 10.0544L22.7361 13.0115L23.3187 13.592C23.7064 13.9797 24.0589 14.1032 24.7714 14.1032H27.3205C28.0691 14.1032 28.5493 13.6816 28.5493 12.9958C28.5493 12.3313 28.0573 11.8884 27.3205 11.8884ZM20.5306 6.25492C21.9866 6.25492 23.157 5.07273 23.157 3.6264C23.157 2.17047 21.9866 1 20.5306 1C19.0747 1 17.9021 2.17047 17.9021 3.6264C17.9021 5.07273 19.0747 6.25492 20.5306 6.25492Z" fill="black"/>
<path d="M5.31631 5.48146H12.1202C12.5536 5.48146 12.9028 5.11841 12.9028 4.67123C12.9028 4.22404 12.5536 3.85138 12.1202 3.85138H5.31631C4.87123 3.85138 4.53163 4.22404 4.53163 4.67123C4.53163 5.11841 4.87123 5.48146 5.31631 5.48146ZM0.768748 11.4116H9.10616C9.54913 11.4116 9.88662 11.0486 9.88662 10.6014C9.88662 10.1542 9.54913 9.78154 9.10616 9.78154H0.768748C0.337499 9.78154 0 10.1638 0 10.6014C0 11.039 0.337499 11.4116 0.768748 11.4116ZM4.54053 17.3418H9.13194C9.56529 17.3418 9.90279 16.9787 9.90279 16.5316C9.90279 16.0844 9.56529 15.7117 9.13194 15.7117H4.54053C4.09757 15.7117 3.75796 16.0844 3.75796 16.5316C3.75796 16.9787 4.09757 17.3418 4.54053 17.3418ZM1.2539 23.2122H7.61577C8.04913 23.2122 8.38873 22.8491 8.38873 22.4019C8.38873 21.9548 8.04913 21.5821 7.61577 21.5821H1.2539C0.820544 21.5821 0.480935 21.9548 0.480935 22.4019C0.480935 22.8491 0.820544 23.2122 1.2539 23.2122Z" fill="black"/>
</svg>
