<svg width="28" height="28" viewBox="0 0 28 28" fill="none" xmlns="http://www.w3.org/2000/svg">
<path d="M14.105 26.21C20.7369 26.21 26.2121 20.7273 26.2121 14.105C26.2121 7.47312 20.7273 2 14.0954 2C7.47523 2 2 7.47312 2 14.105C2 20.7273 7.48484 26.21 14.105 26.21ZM14.105 23.8255C8.71085 23.8255 4.39412 19.4991 4.39412 14.105C4.39412 8.71085 8.70124 4.38452 14.0954 4.38452C19.4895 4.38452 23.8276 8.71085 23.8276 14.105C23.8276 19.4991 19.4991 23.8255 14.105 23.8255Z" fill="black"/>
<path d="M20.5772 12.1995C20.5772 10.3339 19.4499 8.80367 17.9049 8.80367H16.8218C17.9314 9.62937 18.4236 10.8462 18.398 12.2656C18.3788 13.7919 17.8168 14.8714 17.2768 15.6071H18.1212C19.5202 15.6071 20.5772 14.1132 20.5772 12.1995ZM17.5543 12.2539C17.5894 9.95984 15.7472 8.26765 12.87 8.23039L12.0261 8.21867C11.2513 8.20484 10.6482 8.27515 10.3084 8.35719C9.78757 8.4882 9.31226 8.79804 9.31226 9.39898C9.31226 9.60898 9.37835 9.80937 9.44445 9.93078C9.48921 10.0044 9.4775 10.0641 9.41562 10.0972C9.03851 10.2505 8.71226 10.6309 8.71226 11.0966C8.71226 11.3865 8.80179 11.6337 8.94148 11.8041C9.00125 11.8873 8.98953 11.9684 8.90093 12.0282C8.60679 12.2103 8.4139 12.5459 8.4139 12.9594C8.4139 13.2406 8.50554 13.5582 8.66117 13.7148C8.75187 13.7916 8.74226 13.8364 8.63984 13.9175C8.45656 14.0933 8.3457 14.3884 8.3457 14.7155C8.3457 15.3526 8.81867 15.8544 9.44609 15.8544H11.6052C12.1552 15.8544 12.4953 16.1166 12.4953 16.557C12.4953 17.3712 11.468 18.8834 11.468 19.9723C11.468 20.5562 11.8548 20.9183 12.3596 20.9183C12.8082 20.9183 13.0393 20.6262 13.2746 20.1352C14.2039 18.3598 15.4177 16.9116 16.3491 15.6509C17.1418 14.6068 17.5329 13.6937 17.5543 12.2539Z" fill="black"/>
</svg>
