<svg width="47" height="28" viewBox="0 0 47 28" fill="none" xmlns="http://www.w3.org/2000/svg">
<path d="M2.59101 24.5753H17.2001C19.1318 24.5753 19.8007 23.9931 19.8007 22.9154C19.8007 19.9004 15.9776 15.7538 9.89555 15.7538C3.82523 15.7538 0 19.9004 0 22.9154C0 23.9931 0.668906 24.5753 2.59101 24.5753ZM9.90515 13.6731C12.4594 13.6731 14.6327 11.4019 14.6327 8.46591C14.6327 5.58403 12.453 3.39099 9.90515 3.39099C7.35727 3.39099 5.17547 5.62458 5.17969 8.48724C5.1818 11.4019 7.34344 13.6731 9.90515 13.6731Z" fill="black"/>
<path d="M23.1613 15.7538C21.207 15.7538 19.4767 16.1919 18.0479 16.8868C20.0902 18.4932 21.406 20.6303 21.406 22.9154C21.406 23.5628 21.2708 24.1238 20.9907 24.5753H30.4658C32.3879 24.5753 33.0568 23.9931 33.0568 22.9154C33.0568 19.9004 29.2316 15.7538 23.1613 15.7538ZM23.1613 13.6731C25.723 13.6731 27.8867 11.4019 27.8867 8.46591C27.8867 5.58403 25.7092 3.39099 23.1613 3.39099C20.623 3.39099 18.4316 5.62458 18.4433 8.48724C18.4454 11.4019 20.607 13.6731 23.1613 13.6731Z" fill="black"/>
<path d="M36.4014 15.7538C34.4493 15.7538 32.7307 16.1919 31.2998 16.8772C33.356 18.4815 34.6717 20.6281 34.6717 22.9154C34.6717 23.5628 34.5248 24.1238 34.2543 24.5753H43.706C45.6377 24.5753 46.3066 23.9931 46.3066 22.9154C46.3066 19.9004 42.4835 15.7538 36.4014 15.7538ZM36.411 13.6731C38.9728 13.6731 41.1386 11.4019 41.1386 8.46591C41.1386 5.58403 38.9589 3.39099 36.411 3.39099C33.8632 3.39099 31.6814 5.62458 31.6856 8.48724C31.6877 11.4019 33.8493 13.6731 36.411 13.6731Z" fill="black"/>
</svg>
