<svg width="28" height="30" viewBox="0 0 28 30" fill="none" xmlns="http://www.w3.org/2000/svg">
<path d="M13.3417 8.14804C14.788 8.14804 15.9702 6.97547 15.9702 5.51953C15.9702 4.0732 14.788 2.89102 13.3417 2.89102C11.8858 2.89102 10.7132 4.0732 10.7132 5.51953C10.7132 6.97547 11.8858 8.14804 13.3417 8.14804ZM7.0403 26.2294H12.572C13.0459 26.2294 13.524 26.0121 13.7753 25.5415L16.2482 20.9899C16.3302 20.8141 16.5646 20.8258 16.6232 21.0016L17.8998 24.4223L13.1465 27.5852C12.5662 27.9771 12.4192 28.7672 12.8015 29.3709C13.1837 29.963 13.9855 30.1237 14.5754 29.7201L20.0113 26.1176C20.5736 25.7395 20.844 25.1358 20.6833 24.4776L17.3683 11.2934C17.2595 10.8893 17.3598 10.6676 17.6732 10.5098L26.2504 6.22124C26.8893 5.89968 27.1363 5.11382 26.8286 4.48453C26.507 3.84351 25.7425 3.57305 25.0919 3.90422L7.31287 12.8086L4.53412 10.0298C4.39983 9.89554 4.25803 9.78257 4.11412 9.6771L6.87201 4.8314L5.58131 4.09406L2.15897 10.0823C1.87889 10.586 1.97686 11.1312 2.39007 11.5465L6.13092 15.2843C6.47381 15.6155 7.08717 15.8039 7.72608 15.4823L11.9022 13.3826C12.1909 13.2419 12.4541 13.3666 12.5127 13.6169L13.7624 18.6455L11.7543 23.644H7.0403C6.31514 23.644 5.74866 24.2126 5.74866 24.9377C5.74866 25.6415 6.31514 26.2294 7.0403 26.2294ZM7.12022 5.29077C8.59092 5.29077 9.76771 4.11609 9.76771 2.64539C9.76771 1.17469 8.59092 0 7.12022 0C5.64952 0 4.47483 1.17469 4.47483 2.64539C4.47483 4.11609 5.64952 5.29077 7.12022 5.29077ZM7.12022 3.84656C6.4274 3.84656 5.91904 3.32859 5.91904 2.64539C5.91904 1.96218 6.4274 1.44421 7.12022 1.44421C7.80342 1.44421 8.32139 1.96218 8.32139 2.64539C8.32139 3.32859 7.80342 3.84656 7.12022 3.84656Z" fill="black"/>
</svg>
