<svg width="29" height="29" viewBox="0 0 29 29" fill="none" xmlns="http://www.w3.org/2000/svg">
<path d="M18.0384 7.08633C19.4847 7.08633 20.6765 5.90415 20.6765 4.45782C20.6765 3.0136 19.4847 1.82182 18.0384 1.82182C16.592 1.82182 15.412 3.0136 15.412 4.45782C15.412 5.90415 16.592 7.08633 18.0384 7.08633ZM9.86618 22.4433C10.4188 22.8255 11.2206 22.7062 11.6242 22.1515L14.4025 18.2674L16.9399 18.698L14.3765 22.5227C13.9942 23.1105 14.1295 23.924 14.7353 24.2733C15.4466 24.6886 16.1366 24.4554 16.4838 23.924L20.0139 18.6171C20.4845 17.8919 20.2333 16.7653 19.1791 16.5066L14.3355 15.3455C13.8984 15.2388 13.7373 14.8657 13.9879 14.4851L16.0342 11.43C16.1601 11.2284 16.4022 11.1879 16.5941 11.3255L19.5672 13.3622C19.7238 13.4601 19.8791 13.5326 20.0591 13.5602L26.7168 14.7799C27.3323 14.8896 28.0712 14.4977 28.1948 13.7545C28.3023 13.0784 27.8594 12.4118 27.1811 12.3L20.7843 11.1314L10.9729 4.42852L13.7463 2.43938C14.3245 2.03157 14.4501 1.24361 14.0519 0.690951C13.6366 0.124467 12.8465 -0.0128761 12.2896 0.383217L8.05001 3.41486C7.32486 3.94197 7.31314 4.97907 8.06595 5.48696L11.676 7.95938C11.8563 8.09696 11.9085 8.33158 11.7709 8.5097L8.76275 12.892C7.48892 14.7452 8.28134 17.2619 10.7863 17.6688L11.6191 17.8085L9.57017 20.6714C9.16235 21.24 9.28376 22.0397 9.86618 22.4433ZM0.247672 18.588C-0.0504525 18.87 -0.124983 19.3617 0.280484 19.7257C5.8579 24.6757 15.9124 28.9514 26.1074 28.9514C26.5213 28.9514 26.8448 28.6258 26.8448 28.214C26.8448 27.8001 26.5213 27.4671 26.1074 27.4671C16.2496 27.4671 6.63251 23.3904 1.25407 18.5925C0.898762 18.2787 0.499858 18.3466 0.247672 18.588ZM1.00166 23.9308C1.97079 23.9308 3.41689 23.5486 4.71602 22.7287L2.75197 20.7586C2.07345 21.6262 1.65158 21.9715 0.682673 22.5176C0.291034 22.7538 0.146191 23.1112 0.256815 23.4433C0.334392 23.703 0.605798 23.9308 1.00166 23.9308Z" fill="black"/>
</svg>
