<svg width="28" height="30" viewBox="0 0 28 30" fill="none" xmlns="http://www.w3.org/2000/svg">
<path d="M15.9765 5.26453C17.4228 5.26453 18.6029 4.09195 18.6029 2.61679C18.6029 1.17047 17.4228 0 15.9765 0C14.5205 0 13.3383 1.17047 13.3383 2.61679C13.3383 4.09195 14.5205 5.26453 15.9765 5.26453ZM4.45178 19.6207H12.2588C13.3897 19.6207 13.8816 18.3663 13.2406 17.5858L10.8645 14.6632L17.7554 14.2104H24.3129C25.0051 14.2104 25.5833 13.6535 25.5833 12.9614C25.5833 12.2852 25.0051 11.707 24.3129 11.707H12.2928L15.0739 8.91421C15.1965 8.80124 15.3437 8.72764 15.5089 8.74897L24.1074 9.86108C24.8368 9.94944 25.5033 9.39468 25.5033 8.63015C25.5033 8.01046 25.0423 7.46742 24.4172 7.39288L6.41069 5.11968C6.0167 5.0707 5.65577 5.20593 5.37569 5.46468L2.36538 8.47499C1.87132 8.96905 1.88515 9.72186 2.36538 10.2276C2.81046 10.6919 3.62397 10.7451 4.13186 10.2276L6.7067 7.6603L9.4503 8.00975C9.69124 8.03108 9.78405 8.2828 9.60921 8.45976L6.98842 11.0454C5.93936 12.0848 5.88077 13.7559 6.98842 14.8699L9.22624 17.1312H4.45178C3.76178 17.1312 3.20702 17.6838 3.20702 18.3759C3.20702 19.0542 3.76178 19.6207 4.45178 19.6207ZM16.1834 29.9381C16.5973 29.9381 16.9208 29.6147 16.9208 29.2008V17.0341C16.9208 16.6223 16.5973 16.2968 16.1834 16.2968C15.7716 16.2968 15.4365 16.6223 15.4365 17.0341V29.2008C15.4365 29.6147 15.7716 29.9381 16.1834 29.9381Z" fill="black"/>
</svg>
