<svg width="29" height="28" viewBox="0 0 29 28" fill="none" xmlns="http://www.w3.org/2000/svg">
<path d="M6.62648 24.7598C10.3598 24.7598 13.2412 20.3543 13.2412 13.8741C13.2412 7.38422 10.3598 3 6.62648 3C2.88351 3 0 7.38422 0 13.8741C0 20.3543 2.88351 24.7598 6.62648 24.7598ZM6.62648 22.7088C4.13179 22.7227 2.08405 19.1358 2.08405 13.8741C2.08405 8.6496 4.13179 5.07233 6.62648 5.051C9.1446 5.03717 11.1923 8.61444 11.1923 13.8741C11.1923 19.0985 9.1446 22.6875 6.62648 22.7088ZM4.25342 17.9264C6.22311 17.9264 7.52811 16.5607 7.52811 14.4898C7.52811 12.454 6.22311 11.0766 4.25342 11.0766C2.27624 11.0766 0.969126 12.454 0.969126 14.4898C0.969126 16.5607 2.27624 17.9264 4.25342 17.9264ZM3.32764 14.0829C2.90577 14.0222 2.64584 13.5204 2.73959 13.0027C2.84506 12.4945 3.24772 12.1216 3.64616 12.2016C4.07014 12.2815 4.32795 12.7662 4.22249 13.2722C4.12452 13.7899 3.73991 14.1532 3.32764 14.0829ZM21.5524 24.7598C25.2954 24.7598 28.1789 20.3543 28.1789 13.8741C28.1789 7.38422 25.2954 3 21.5524 3C17.819 3 14.9355 7.38422 14.9355 13.8741C14.9355 20.3543 17.819 24.7598 21.5524 24.7598ZM21.5524 22.6992C19.0481 22.7013 16.9907 19.1262 16.9907 13.8741C16.9907 8.6496 19.0385 5.07233 21.5524 5.06061C24.0513 5.0585 26.1087 8.63366 26.1087 13.8741C26.1087 19.1081 24.0513 22.6875 21.5524 22.6992ZM19.1697 17.9264C21.1373 17.9264 22.4636 16.5607 22.4636 14.4898C22.4636 12.454 21.1373 11.0766 19.1697 11.0766C17.2022 11.0766 15.8854 12.454 15.8854 14.4898C15.8854 16.5607 17.2022 17.9264 19.1697 17.9264ZM18.244 14.0829C17.8317 14.0126 17.5622 13.5204 17.6655 13.0027C17.7689 12.4945 18.164 12.1216 18.5721 12.2016C18.9961 12.2698 19.2443 12.7662 19.1388 13.2722C19.0429 13.7899 18.6562 14.1532 18.244 14.0829Z" fill="black"/>
</svg>
