<svg width="29" height="28" viewBox="0 0 29 28" fill="none" xmlns="http://www.w3.org/2000/svg">
<path d="M3.71015 20.1257H10.6066L9.28384 18.1H3.85288C2.66858 18.1 2.02569 17.4571 2.02569 16.2632V4.67922C2.02569 3.48531 2.66858 2.83281 3.85288 2.83281H19.158C20.3306 2.83281 20.9756 3.48531 20.9756 4.67922V10.5309H22.9992V4.47672C22.9992 2.05493 21.7514 0.807114 19.3008 0.807114H3.71015C1.25742 0.807114 0 2.04532 0 4.47672V16.4636C0 18.8971 1.25742 20.1257 3.71015 20.1257Z" fill="black"/>
<path d="M23.3768 26.848C28.2075 25.0876 30.1922 20.784 28.2771 15.5223L27.337 12.9491C26.4028 10.3926 24.6073 9.30835 22.5016 10.0307C21.9234 9.32639 21.0417 9.08335 20.097 9.42952C19.792 9.53827 19.5063 9.69929 19.2537 9.90085C18.6244 9.12835 17.6869 8.85975 16.7313 9.21132C16.5136 9.2903 16.3076 9.39811 16.1091 9.54648L14.9039 6.23709C14.3684 4.75818 13.0289 4.13006 11.6395 4.64006C10.2258 5.14888 9.59229 6.49677 10.1374 7.97567L13.279 16.6211C13.3045 16.6743 13.2928 16.7308 13.2363 16.7521C13.1937 16.7638 13.1606 16.7521 13.1276 16.7116L11.9663 15.468C11.2802 14.7962 10.4674 14.601 9.67596 14.8844C8.51253 15.3069 7.81269 16.4268 8.2737 17.7076C8.40144 18.0632 8.64425 18.4977 8.92643 18.8343L12.8374 23.5508C15.836 27.1759 19.4177 28.2976 23.3768 26.848ZM22.7791 25.0155C19.7119 26.1266 16.8998 25.5135 14.2519 22.3663L10.3134 17.7058C10.2068 17.5799 10.1332 17.4679 10.0713 17.3015C9.9476 16.9612 10.0905 16.5878 10.4895 16.4406C10.8063 16.319 11.0752 16.4406 11.3302 16.7148L14.0784 19.4776C14.5418 19.9422 14.974 19.9912 15.3797 19.8442C15.8768 19.6654 16.1224 19.1385 15.9117 18.565L11.7991 7.24583C11.6423 6.82982 11.8184 6.43513 12.2248 6.28794C12.6312 6.14286 13.0109 6.3306 13.1656 6.7445L16.0671 14.7161C16.2246 15.1471 16.7088 15.3503 17.1398 15.1928C17.5613 15.0374 17.7837 14.582 17.6283 14.151L16.5977 11.3205C16.7395 11.1775 16.9486 11.0462 17.148 10.9823C17.6313 10.8062 18.042 11.0132 18.2276 11.5157L19.1534 14.0821C19.3205 14.5302 19.7984 14.71 20.2177 14.5546C20.6273 14.4088 20.8669 13.9598 20.7115 13.5212L19.9856 11.5323C20.1274 11.3915 20.3365 11.2581 20.5284 11.1941C21.0192 11.0202 21.4299 11.2251 21.6155 11.7297L22.2324 13.4397C22.3995 13.8824 22.8837 14.0664 23.3072 13.9185C23.719 13.7706 23.9627 13.3173 23.7956 12.865L23.3934 11.7608C24.2829 11.4334 25.0948 12.1281 25.6559 13.6759L26.4858 15.9721C28.0671 20.3005 26.6297 23.6123 22.7791 25.0155Z" fill="black"/>
</svg>
