<svg width="32" height="28" viewBox="0 0 32 28" fill="none" xmlns="http://www.w3.org/2000/svg">
<path d="M7.85579 24.5753H23.4579C24.7751 24.5753 25.5631 23.9513 25.5631 22.9154C25.5631 19.9004 21.7378 15.7538 15.6558 15.7538C9.58548 15.7538 5.76025 19.9004 5.76025 22.9154C5.76025 23.9513 6.54822 24.5753 7.85579 24.5753ZM15.6654 13.6731C18.2196 13.6731 20.393 11.4019 20.393 8.46591C20.393 5.58403 18.2154 3.39099 15.6654 3.39099C13.1175 3.39099 10.9379 5.62458 10.94 8.48724C10.9421 11.4019 13.1037 13.6731 15.6654 13.6731Z" fill="black"/>
<path d="M0.328271 9.12609L3.55749 11.5425C4.24116 12.0579 5.05889 11.7502 5.05889 10.9111V9.45164H8.04436C8.59795 9.45164 9.03975 9.01945 9.03975 8.46586C9.03975 7.92398 8.59795 7.48219 8.04436 7.48219H5.05889V6.06211C5.05889 5.17617 4.22405 4.90899 3.55749 5.40727L0.328271 7.84289C-0.108369 8.17406 -0.110478 8.79492 0.328271 9.12609ZM22.2838 8.46586C22.2838 9.01945 22.716 9.45164 23.2696 9.45164H26.2551V10.9111C26.2551 11.7502 27.0824 12.0579 27.7565 11.5425L30.9857 9.12609C31.434 8.79492 31.4319 8.17406 30.9857 7.84289L27.7565 5.40727C27.0995 4.90899 26.2551 5.17617 26.2551 6.06211V7.48219H23.2696C22.716 7.48219 22.2838 7.92398 22.2838 8.46586Z" fill="black"/>
</svg>
