<svg width="28" height="28" viewBox="0 0 28 28" fill="none" xmlns="http://www.w3.org/2000/svg">
<path d="M14.105 26.21C20.7369 26.21 26.2121 20.7273 26.2121 14.105C26.2121 7.47312 20.7273 2 14.0954 2C7.47523 2 2 7.47312 2 14.105C2 20.7273 7.48484 26.21 14.105 26.21Z" fill="black"/>
<path d="M9.29346 16.273V9.80046C9.29346 9.36171 9.64924 9.00054 10.1051 9.00054C10.5279 9.00054 10.8912 9.36171 10.8912 9.80046V13.8472C11.0564 13.7523 11.2174 13.6456 11.4253 13.5603V7.66694C11.4253 7.23663 11.779 6.89046 12.2093 6.89046C12.6459 6.89046 13.0092 7.23663 13.0092 7.66694V13.0754C13.1936 13.0423 13.3781 13.0231 13.5722 13.0018V7.09882C13.5722 6.67179 13.9141 6.3085 14.3583 6.3085C14.8024 6.3085 15.1465 6.67179 15.1465 7.09882V13.07C15.3309 13.1244 15.5175 13.1862 15.6881 13.231V8.06983C15.6881 7.63741 16.0322 7.28163 16.4784 7.28163C16.9012 7.28163 17.2549 7.6353 17.2549 8.06983V15.233C17.2549 15.4292 17.3306 15.5124 17.4661 15.5124C17.5652 15.5124 17.6463 15.4484 17.7337 15.2448L18.6886 13.2097C18.9872 12.5881 19.2724 12.3132 19.7454 12.3343C20.1501 12.3554 20.4304 12.6523 20.4094 13.0559C20.3925 13.4009 20.122 14.1877 19.9261 14.8191C19.5326 16.1044 19.0908 17.4795 18.4737 18.5288C17.5094 20.3438 16.1058 21.1339 14.0932 21.1339C11.2983 21.1339 9.29346 19.2788 9.29346 16.273Z" fill="white"/>
</svg>
