<svg width="28" height="28" viewBox="0 0 28 28" fill="none" xmlns="http://www.w3.org/2000/svg">
<path d="M14.105 26.21C20.7369 26.21 26.2121 20.7273 26.2121 14.105C26.2121 7.47312 20.7273 2 14.0954 2C7.47523 2 2 7.47312 2 14.105C2 20.7273 7.48484 26.21 14.105 26.21ZM14.105 23.8255C8.71085 23.8255 4.39412 19.4991 4.39412 14.105C4.39412 8.71085 8.70124 4.38452 14.0954 4.38452C19.4895 4.38452 23.8276 8.71085 23.8276 14.105C23.8276 19.4991 19.4991 23.8255 14.105 23.8255Z" fill="black"/>
<path d="M14.0955 19.8706C16.5552 19.8706 18.2001 18.2375 18.2001 17.4577C18.2001 17.1723 17.9242 17.0391 17.6655 17.1584C16.8016 17.6145 15.7968 18.1398 14.0955 18.1398C12.3963 18.1398 11.3852 17.6091 10.5372 17.1584C10.2688 17.037 9.99087 17.1723 9.99087 17.4577C9.99087 18.2375 11.6357 19.8706 14.0955 19.8706ZM10.6415 13.0473C11.3755 13.0473 12.0255 12.3856 12.0255 11.4587C12.0255 10.52 11.3852 9.85834 10.6415 9.85834C9.90954 9.85834 9.27344 10.52 9.27344 11.4587C9.27344 12.3856 9.90954 13.0473 10.6415 13.0473ZM17.557 13.0473C18.2889 13.0473 18.941 12.3856 18.941 11.4587C18.941 10.52 18.2985 9.85834 17.557 9.85834C16.8208 9.85834 16.1868 10.52 16.1868 11.4587C16.1868 12.3856 16.8208 13.0473 17.557 13.0473Z" fill="black"/>
</svg>
