<svg width="29" height="28" viewBox="0 0 29 28" fill="none" xmlns="http://www.w3.org/2000/svg">
<path d="M23.4407 26.9496C28.2853 25.1824 29.9158 21.1636 28.0432 15.9802L27.2592 13.8232C26.5614 11.8823 25.1566 10.9805 24.0492 11.3862C23.7832 11.4884 23.696 11.6862 23.7789 11.9426L24.1167 12.8812C24.2627 13.2916 24.1368 13.5795 23.8959 13.6765C23.624 13.7756 23.3425 13.6392 23.1869 13.2171L22.9664 12.6045C22.536 11.4382 21.5137 10.9324 20.4818 11.3084C20.0069 11.4809 19.8494 11.7628 20.0027 12.1833L20.4693 13.4468C20.6346 13.8689 20.4916 14.1525 20.2486 14.2378C19.9821 14.337 19.6973 14.2069 19.5492 13.7923L19.1252 12.6129C18.6597 11.3091 17.6585 10.9484 16.6523 11.3189C16.2009 11.4722 16.0317 11.7926 16.1732 12.1779L17.0798 14.692C17.2333 15.1078 17.1054 15.386 16.8686 15.4809C16.5968 15.5801 16.3153 15.4479 16.1618 15.0258L13.1477 6.7357C12.8346 5.88375 12.0721 5.52281 11.3503 5.79117C10.5665 6.08296 10.2332 6.83038 10.5389 7.68023L14.9383 19.7374C15.0471 20.0231 14.9116 20.2289 14.741 20.2908C14.5725 20.3355 14.3976 20.3025 14.1789 20.0721L11.2443 16.901C10.7768 16.4037 10.2775 16.2497 9.72 16.4625C8.92571 16.7585 8.58938 17.4804 8.84485 18.1765C8.9311 18.4235 9.06633 18.6333 9.19946 18.7962L13.0019 23.5193C16.1721 27.4652 19.8079 28.2649 23.4407 26.9496Z" fill="black"/>
<path d="M3.71015 20.662H8.47993C7.90688 19.9814 7.5504 19.2966 7.41259 18.6363H3.85288C2.66858 18.6363 2.02569 17.9934 2.02569 16.7995V5.21555C2.02569 4.02164 2.66858 3.36913 3.85288 3.36913H19.158C20.3306 3.36913 20.9756 4.02164 20.9756 5.21555V9.54563C21.6373 9.47813 22.3221 9.60727 22.9992 9.94805V5.01305C22.9992 2.59126 21.7514 1.34344 19.3008 1.34344H3.71015C1.25742 1.34344 0 2.58165 0 5.01305V16.9999C0 19.4334 1.25742 20.662 3.71015 20.662Z" fill="black"/>
</svg>
