<svg width="28" height="28" viewBox="0 0 28 28" fill="none" xmlns="http://www.w3.org/2000/svg">
<path d="M21.3156 24.8907C26.2295 23.1041 28.2459 18.7288 26.297 13.37L25.3455 10.7399C24.3965 8.12939 22.5555 7.0358 20.4119 7.76119C19.821 7.04423 18.9224 6.80869 17.9704 7.15158C17.6517 7.26994 17.3735 7.43306 17.1091 7.62713C16.465 6.85158 15.5224 6.57877 14.5403 6.92705C14.3247 7.00603 14.1166 7.12556 13.9181 7.26221L12.7045 3.93922C12.1584 2.42868 10.7894 1.7858 9.37049 2.29884C7.9251 2.82782 7.28643 4.19563 7.83252 5.70617L11.0121 14.4486C11.0376 14.5114 11.0238 14.5604 10.9694 14.5817C10.9343 14.6031 10.8916 14.5817 10.8564 14.5487L9.70471 13.2976C9.00815 12.6195 8.17096 12.4222 7.36682 12.7119C6.17386 13.1525 5.46347 14.2881 5.94464 15.5963C6.06487 15.9699 6.3119 16.4033 6.60042 16.7558L10.5747 21.5483C13.6357 25.2249 17.2753 26.3656 21.3156 24.8907ZM20.6894 23.0033C17.5811 24.1409 14.729 23.5034 12.0314 20.3162L8.02752 15.5935C7.92088 15.4677 7.84728 15.3535 7.78541 15.1775C7.65955 14.8447 7.80463 14.4596 8.20564 14.3124C8.53213 14.1983 8.80307 14.3199 9.06018 14.5963L11.8549 17.4013C12.3171 17.8742 12.7598 17.9232 13.1835 17.772C13.6933 17.589 13.9356 17.042 13.7186 16.4537L9.54064 4.95524C9.38384 4.53711 9.57158 4.1382 9.98009 3.99312C10.379 3.84594 10.7704 4.04328 10.9176 4.46141L13.8614 12.549C14.0231 12.9906 14.5178 13.198 14.9594 13.0384C15.3935 12.8767 15.6318 12.4011 15.4701 11.9692L14.4269 9.09102C14.5687 8.95766 14.7799 8.8243 14.9718 8.75071C15.4572 8.57469 15.8721 8.79125 16.0577 9.29797L17.01 11.9045C17.1696 12.3535 17.6676 12.5396 18.0974 12.38C18.5081 12.23 18.7635 11.78 18.5943 11.3213L17.86 9.30711C18.0114 9.17586 18.2151 9.0425 18.4167 8.9668C18.8999 8.79289 19.3148 9.00945 19.5004 9.51407L20.1278 11.2419C20.2992 11.7048 20.7939 11.8951 21.2301 11.7334C21.6524 11.5834 21.9004 11.1153 21.7387 10.662L21.3344 9.54406C22.2206 9.22203 23.0388 9.91133 23.6041 11.4772L24.4647 13.8249C26.0575 18.2166 24.6107 21.579 20.6894 23.0033Z" fill="black"/>
<path d="M5.76844 5.04103C2.28094 7.17126 0 11.1242 0 15.9437C0 16.4246 0.407576 16.8322 0.862965 16.8184C1.32585 16.8066 1.66523 16.4459 1.67905 15.9692C1.78241 11.8234 3.5407 8.54399 6.3675 6.68071L5.76844 5.04103Z" fill="black"/>
</svg>
