<svg width="28" height="28" viewBox="0 0 28 28" fill="none" xmlns="http://www.w3.org/2000/svg">
<path d="M26.6621 9.59733C26.6621 5.59796 24.0903 2.30828 20.813 2.30828H17.0663C15.538 1.52523 13.7164 1.06914 11.7113 1.06914H10.1178C8.64405 1.06914 7.38523 1.1575 6.56187 1.37265C4.89242 1.77296 3.83 2.97577 3.83 4.45772C3.83 4.71999 3.87266 4.97053 3.93875 5.20186C3.15898 5.82905 2.72328 6.70866 2.72328 7.68952C2.72328 8.14233 2.8032 8.5792 2.97055 8.95209C2.4432 9.51647 2.14273 10.3164 2.14273 11.1557C2.14273 11.6936 2.27914 12.2519 2.49969 12.6747C2.18328 13.1591 2 13.8247 2 14.5201C2 16.3354 3.39172 17.743 5.19523 17.743H9.42828C9.65656 17.743 9.80586 17.8497 9.79742 18.0575C9.73836 19.2278 7.89242 22.045 7.89242 24.3566C7.89242 26.0652 9.09523 27.2936 10.7356 27.2936C11.9354 27.2936 12.7592 26.6708 13.5301 25.1823C14.9487 22.4537 16.6716 20.0497 19.2064 16.9375H21.2433C24.3129 16.9375 26.6621 13.667 26.6621 9.59733ZM19.5793 9.68756C19.5793 12.1072 19.0369 13.649 17.5051 15.7124C15.7869 18.0037 13.3901 20.7784 11.6794 24.2019C11.307 24.9255 11.0691 25.1015 10.7054 25.1015C10.2776 25.1015 9.9917 24.7954 9.9917 24.2427C9.9917 22.5421 11.9157 19.7322 11.9157 17.893C11.9157 16.5175 10.8167 15.6437 9.32983 15.6437H5.24374C4.591 15.6437 4.09928 15.1541 4.09928 14.4885C4.09928 14.0127 4.24647 13.7066 4.64116 13.3173C4.94069 13.0307 4.97889 12.599 4.71663 12.3121C4.39342 11.8384 4.24623 11.544 4.24623 11.1515C4.24623 10.6799 4.47663 10.2852 4.9353 9.93529C5.31569 9.66107 5.45186 9.21623 5.22967 8.76132C4.98217 8.29514 4.85842 8.06592 4.85842 7.70428C4.85842 7.16357 5.20717 6.73701 5.93257 6.35943C6.29373 6.15764 6.38819 5.77796 6.23303 5.41679C5.99936 4.82452 5.96631 4.72538 5.97053 4.46827C5.97053 3.98615 6.31717 3.59475 7.07842 3.40068C7.74428 3.22912 8.82124 3.1567 10.2242 3.15881L11.5972 3.16092C16.3873 3.17896 19.5793 5.87897 19.5793 9.68756ZM24.5923 9.59733C24.5923 12.4698 23.1085 14.7855 21.41 14.8551C21.1165 14.8572 20.821 14.8593 20.5275 14.8614C21.3279 13.2878 21.6807 11.6535 21.6807 9.69108C21.6807 7.61451 20.9623 5.78006 19.6526 4.34334C20.0647 4.34334 20.499 4.34545 20.929 4.34756C22.9053 4.41928 24.5923 6.74756 24.5923 9.59733Z" fill="black"/>
</svg>
