<svg width="28" height="28" viewBox="0 0 28 28" fill="none" xmlns="http://www.w3.org/2000/svg">
<path d="M10.3929 8.27271C11.8584 8.27271 13.031 7.09052 13.031 5.63459C13.031 4.17865 11.8584 3.00818 10.3929 3.00818C8.93695 3.00818 7.76648 4.17865 7.76648 5.63459C7.76648 7.09052 8.93695 8.27271 10.3929 8.27271ZM4.07976 17.2929C3.55148 19.2813 4.81992 20.5519 6.37593 20.5519C6.86906 20.5519 7.38773 20.4326 7.89046 20.1588L14.3023 16.7468L21.398 20.2973C22.2893 20.7382 23.0187 20.3815 23.2987 19.8033C23.5713 19.2389 23.403 18.4584 22.5448 18.0314L15.0935 14.2882C14.5941 14.0337 14.0456 14.0144 13.5248 14.2413L8.81132 16.2848L9.75116 12.9986C9.92273 12.4307 10.4332 12.0257 11.0341 12.0257H20.8141C21.5137 12.0257 22.0802 11.4593 22.0802 10.7575C22.0802 10.0654 21.5137 9.48724 20.8141 9.48724H10.1426C7.75453 9.48724 5.80218 10.8644 5.25047 12.9361L4.07976 17.2929ZM3.74695 24.4158H24.5723C24.9841 24.4158 25.3193 24.0923 25.3193 23.6784C25.3193 23.2666 24.9841 22.9315 24.5723 22.9315H3.74695C3.32344 22.9315 3 23.2666 3 23.6784C3 24.0923 3.32344 24.4158 3.74695 24.4158Z" fill="black"/>
</svg>
