<svg width="46" height="28" viewBox="0 0 46 28" fill="none" xmlns="http://www.w3.org/2000/svg">
<path d="M15.2471 25.2776H29.8561C31.8732 25.2776 32.8571 24.6431 32.8571 23.2676C32.8571 20.0602 28.8453 15.7537 22.5516 15.7537C16.2579 15.7537 12.2461 20.0602 12.2461 23.2676C12.2461 24.6431 13.2204 25.2776 15.2471 25.2776ZM14.8554 23.2528C14.5803 23.2528 14.4682 23.1687 14.4682 22.95C14.4682 21.1547 17.371 17.7785 22.5516 17.7785C27.7322 17.7785 30.635 21.1547 30.635 22.95C30.635 23.1687 30.5229 23.2528 30.2478 23.2528H14.8554ZM22.5516 14.2484C25.3849 14.2484 27.6795 11.7471 27.6795 8.68146C27.6795 5.66365 25.4053 3.25427 22.5516 3.25427C19.7384 3.25427 17.4216 5.69459 17.4333 8.70068C17.4375 11.7567 19.7278 14.2484 22.5516 14.2484ZM22.5516 12.2236C20.9292 12.2236 19.5584 10.6779 19.5584 8.69857C19.5446 6.77341 20.9185 5.27903 22.5516 5.27903C24.2082 5.27903 25.5544 6.75208 25.5544 8.68146C25.5544 10.6544 24.1953 12.2236 22.5516 12.2236Z" fill="black"/>
<path d="M2.51179 25.2797H11.6203C10.984 24.9084 10.5579 24.0703 10.6463 23.2922H2.39296C2.16374 23.2922 2.07303 23.1984 2.07303 23.0011C2.07303 20.2994 5.23757 17.7199 8.96414 17.7199C10.2771 17.7199 11.6004 18.0483 12.6253 18.6213C13.0076 18.0598 13.496 17.5758 14.1309 17.1598C12.6466 16.2354 10.7965 15.7366 8.96414 15.7366C4.01391 15.7366 0 19.2802 0 23.1804C0 24.5698 0.839061 25.2797 2.51179 25.2797ZM8.97375 14.5062C11.4321 14.5062 13.4358 12.3171 13.4358 9.61901C13.4358 6.98792 11.4408 4.85229 8.97375 4.85229C6.52172 4.85229 4.49789 7.01886 4.50961 9.64034C4.51172 12.331 6.51539 14.5062 8.97375 14.5062ZM8.97375 12.5112C7.63148 12.5112 6.50671 11.2329 6.50671 9.64034C6.50249 8.09346 7.62609 6.84939 8.97375 6.84939C10.3385 6.84939 11.4504 8.07424 11.4504 9.61901C11.4504 11.2329 10.3181 12.5112 8.97375 12.5112ZM42.5918 25.2797C44.2645 25.2797 45.1036 24.5698 45.1036 23.1804C45.1036 19.2802 41.0897 15.7366 36.1394 15.7366C34.3071 15.7366 32.4569 16.2354 30.9726 17.1598C31.6076 17.5758 32.096 18.0598 32.4804 18.6213C33.5032 18.0483 34.8169 17.7199 36.1394 17.7199C39.866 17.7199 43.0327 20.2994 43.0327 23.0011C43.0327 23.1984 42.9398 23.2922 42.7106 23.2922H34.4594C34.5457 24.0703 34.11 24.9084 33.4833 25.2797H42.5918ZM36.1298 14.5062C38.5882 14.5062 40.5919 12.331 40.594 9.64034C40.6057 7.01886 38.5819 4.85229 36.1298 4.85229C33.6628 4.85229 31.6678 6.98792 31.6678 9.61901C31.6678 12.3171 33.6736 14.5062 36.1298 14.5062ZM36.1298 12.5112C34.7855 12.5112 33.6532 11.2329 33.6532 9.61901C33.6532 8.07424 34.7672 6.84939 36.1298 6.84939C37.4775 6.84939 38.6011 8.09346 38.599 9.64034C38.599 11.2329 37.4625 12.5112 36.1298 12.5112Z" fill="black"/>
</svg>
