<svg width="28" height="28" viewBox="0 0 28 28" fill="none" xmlns="http://www.w3.org/2000/svg">
<path d="M17.4481 5.26453C18.904 5.26453 20.0745 4.09406 20.0745 2.63812C20.0745 1.18219 18.904 0 17.4481 0C15.9825 0 14.81 1.18219 14.81 2.63812C14.81 4.09406 15.9825 5.26453 17.4481 5.26453ZM5.56035 13.9432C6.31106 14.2882 6.98723 13.9528 7.28113 13.365L9.43621 9.06655H11.9773C12.23 9.06655 12.3964 9.29905 12.2663 9.52827L10.0015 14.0205C9.14629 15.7172 10.1954 17.8631 12.4404 17.7279L18.4843 17.3529L16.2565 22.3005C15.9605 22.965 16.2448 23.7764 16.9071 24.0276C17.6419 24.3056 18.285 24.082 18.6066 23.3686L21.7554 16.4531C22.1142 15.6769 21.6085 14.6109 20.6086 14.6109H15.1336L17.55 9.78983C17.6396 9.59155 17.8763 9.53928 18.0298 9.70452L20.9072 12.453C21.5131 13.0355 22.5853 12.9354 23.0007 12.1101L25.4986 7.08655C25.8181 6.43593 25.6221 5.64796 24.93 5.3264C24.2794 5.02289 23.5032 5.28703 23.1816 5.93015L21.4641 9.32671L20.0895 7.9446C19.1213 6.9764 18.0903 6.47156 16.5118 6.47156H8.63652C8.14668 6.47156 7.69949 6.75585 7.48973 7.18499L4.9545 12.2182C4.63504 12.8613 4.88207 13.612 5.56035 13.9432ZM2.13379 26.0859C2.54371 26.9325 3.43926 26.9442 3.85668 26.76L10.1117 24.0372C10.3843 23.9137 10.6196 23.704 10.7548 23.4218L13.0018 18.8906L12.515 18.9258C11.4778 18.9865 10.5865 18.6905 9.93051 18.1826L8.56129 21.8576L2.80996 24.3375C2.13379 24.6314 1.79301 25.3959 2.13379 26.0859ZM22.9479 27.2862C24.4315 27.2862 25.602 26.1274 25.602 24.6438C25.602 23.1837 24.4315 22.0111 22.9479 22.0111C21.4899 22.0111 20.3269 23.1837 20.3269 24.6438C20.3269 26.1274 21.4899 27.2862 22.9479 27.2862Z" fill="black"/>
</svg>
