<svg width="28" height="28" viewBox="0 0 28 28" fill="none" xmlns="http://www.w3.org/2000/svg">
<path d="M14.105 26.21C20.7369 26.21 26.2121 20.7273 26.2121 14.105C26.2121 7.47312 20.7273 2 14.0954 2C7.47523 2 2 7.47312 2 14.105C2 20.7273 7.48484 26.21 14.105 26.21ZM14.105 23.8255C8.71085 23.8255 4.39412 19.4991 4.39412 14.105C4.39412 8.71085 8.70124 4.38452 14.0954 4.38452C19.4895 4.38452 23.8276 8.71085 23.8276 14.105C23.8276 19.4991 19.4991 23.8255 14.105 23.8255Z" fill="black"/>
<path d="M7.42067 13.7276L7.88098 16.4403C8.04715 17.4842 9.47449 17.2573 9.31043 16.2134L8.96731 14.0056L10.5721 13.378C10.7 13.3428 10.7661 13.3662 10.8205 13.4633L12.2153 16.2709C12.6425 17.1083 13.0079 17.3853 13.334 17.6218L17.7792 20.8651C18.6418 21.4988 19.5932 20.274 18.6824 19.5805L15.3027 17.003C15.1864 16.9081 15.1865 16.7663 15.324 16.6906L17.5829 15.3566L20.642 16.8216C21.5612 17.2541 22.3484 15.8363 21.2384 15.3186L17.9408 13.812C17.5264 13.6245 17.1514 13.6362 16.7722 13.8706L15.2134 14.8072C15.0833 14.8829 14.9574 14.8519 14.8934 14.7432L13.5626 11.9985C13.5104 11.8972 13.5498 11.8332 13.6426 11.7831L14.7774 11.262C15.0875 11.1118 15.4454 11.0085 15.5434 10.6367L16.3159 7.9869C16.613 6.96432 15.2028 6.56377 14.9194 7.58424L14.229 9.99338L13.2444 10.3951C12.1906 10.8149 10.7118 11.4606 8.79715 12.3737L7.98739 12.7562C7.53035 12.9671 7.34825 13.2898 7.42067 13.7276ZM10.4389 10.8071C11.3467 10.8071 12.0903 10.0731 12.0903 9.19838C12.0903 8.27682 11.3584 7.54275 10.4389 7.54275C9.55465 7.54275 8.84192 8.27893 8.84192 9.19838C8.84192 10.0827 9.56637 10.8071 10.4389 10.8071Z" fill="black"/>
</svg>
