<svg width="28" height="28" viewBox="0 0 28 28" fill="none" xmlns="http://www.w3.org/2000/svg">
<path d="M21.5906 24.7323C26.5216 22.9431 28.1934 18.8333 26.2773 13.5709L25.4882 11.3877C24.7565 9.40348 23.3477 8.49012 22.217 8.89465C21.9351 9.00106 21.8362 9.2127 21.933 9.47543L22.2749 10.4235C22.4306 10.8456 22.3047 11.1259 22.052 11.225C21.7856 11.3146 21.5041 11.1878 21.3463 10.7614L21.1216 10.1457C20.6828 8.94879 19.6319 8.43457 18.5885 8.81684C18.1031 8.99567 17.9435 9.29355 18.0988 9.71285L18.5739 11.0071C18.7295 11.4334 18.5962 11.7095 18.351 11.8086C18.0749 11.9078 17.7913 11.7735 17.6357 11.345L17.2054 10.1542C16.7219 8.82926 15.7188 8.4484 14.684 8.82738C14.2221 8.99449 14.0486 9.31371 14.1944 9.71918L15.1232 12.2617C15.2789 12.6859 15.1434 12.9662 14.9024 13.0632C14.6263 13.1624 14.3449 13.026 14.1871 12.5997L11.1267 4.17879C10.8168 3.31207 10.0396 2.9502 9.29337 3.21738C8.50447 3.5059 8.16486 4.27769 8.47471 5.14441L12.9299 17.3851C13.0291 17.6708 12.9171 17.8766 12.7422 17.9427C12.5716 18.0067 12.3871 17.9523 12.1781 17.7219L9.18744 14.5044C8.71142 14.0082 8.20166 13.8383 7.62932 14.0532C6.81815 14.346 6.48299 15.0964 6.73518 15.8094C6.83315 16.0682 6.96838 16.2767 7.09822 16.4396L10.9703 21.2567C14.1932 25.2681 17.8999 26.0729 21.5906 24.7323Z" fill="black"/>
<path d="M6.76844 5.44862C3.28094 7.57885 1 11.5318 1 16.3513C1 16.8322 1.40758 17.2398 1.86296 17.226C2.32585 17.2142 2.66523 16.8535 2.67905 16.3768C2.78241 12.231 4.5407 8.95158 7.3675 7.0883L6.76844 5.44862Z" fill="black"/>
</svg>
