<svg width="28" height="28" viewBox="0 0 28 28" fill="none" xmlns="http://www.w3.org/2000/svg">
<path d="M14.105 26.21C20.7369 26.21 26.2121 20.7273 26.2121 14.105C26.2121 7.47312 20.7273 2 14.0954 2C7.47523 2 2 7.47312 2 14.105C2 20.7273 7.48484 26.21 14.105 26.21Z" fill="black"/>
<path d="M14.0946 19.7872C11.4777 19.7872 9.75195 17.5229 9.75195 14.1029C9.75195 10.6808 11.4777 8.41648 14.0946 8.41648C16.7042 8.41648 18.4489 10.6808 18.4489 14.1029C18.4489 17.5229 16.7042 19.7872 14.0946 19.7872ZM14.1052 17.986C15.3872 17.986 16.2704 16.5043 16.2704 14.1029C16.2704 11.7015 15.3872 10.2198 14.1052 10.2198C12.8135 10.2198 11.9401 11.7015 11.9401 14.1029C11.9401 16.5043 12.8135 17.986 14.1052 17.986Z" fill="white"/>
</svg>
