<svg width="28" height="28" viewBox="0 0 28 28" fill="none" xmlns="http://www.w3.org/2000/svg">
<path d="M14.105 26.21C20.7369 26.21 26.2121 20.7251 26.2121 14.105C26.2121 7.47312 20.7273 2 14.0954 2C7.47523 2 2 7.47312 2 14.105C2 20.7251 7.48484 26.21 14.105 26.21Z" fill="black"/>
<path d="M10.4058 19.2376C8.35781 19.2376 7.00781 17.3551 7.00781 14.1029C7.00781 10.8486 8.35781 8.96606 10.4058 8.96606C12.4441 8.96606 13.8227 10.8486 13.8227 14.1029C13.8227 17.3551 12.4441 19.2376 10.4058 19.2376ZM10.4163 17.5859C11.4394 17.5859 12.0687 16.3325 12.0687 14.1029C12.0687 11.8711 11.4202 10.6177 10.4163 10.6177C9.40078 10.6177 8.76609 11.8711 8.76609 14.1029C8.76609 16.3325 9.40078 17.5859 10.4163 17.5859ZM16.8248 19.1202C16.3012 19.1202 15.9075 18.7562 15.9075 18.2359C15.9075 17.9804 15.949 17.8229 16.065 17.6122L19.548 10.8277V10.7382H15.6698C15.1919 10.7382 14.8549 10.4454 14.8549 9.9795C14.8549 9.50395 15.1814 9.1995 15.6698 9.1995H20.261C21.0206 9.1995 21.4551 9.71677 21.4551 10.3449C21.4551 10.6175 21.404 10.8612 21.2229 11.2395L17.7016 18.4339C17.4642 18.9106 17.2247 19.1202 16.8248 19.1202Z" fill="white"/>
</svg>
