<svg width="28" height="28" viewBox="0 0 28 28" fill="none" xmlns="http://www.w3.org/2000/svg">
<path d="M6.84421 24.8972H21.0295C23.5685 24.8972 24.8737 23.5919 24.8737 21.0914V6.82921C24.8737 4.32656 23.5685 3.02344 21.0295 3.02344H6.84421C4.31484 3.02344 3 4.31695 3 6.82921V21.0914C3 23.6016 4.31484 24.8972 6.84421 24.8972Z" fill="black"/>
<path d="M7.77975 18.8152C7.29976 18.8152 6.9721 18.5023 6.9721 18.0096C6.9721 17.7171 7.0689 17.4724 7.30702 17.212L10.2625 13.7384C10.8325 13.0725 11.4189 12.4455 11.4189 11.711C11.4189 10.9153 10.8409 10.3725 9.96953 10.3725C9.18882 10.3725 8.64811 10.7723 8.37507 11.5914C8.20772 11.9674 8.00663 12.1898 7.61827 12.1898C7.15843 12.1898 6.87109 11.8715 6.87109 11.4021C6.87109 11.2446 6.89874 11.0976 6.92851 10.9326C7.24913 9.70849 8.5096 8.80591 9.93624 8.80591C11.8115 8.80591 13.0146 9.89669 13.0188 11.5652C13.023 12.7448 12.3887 13.6036 11.4918 14.6529L9.35873 17.123V17.2209H12.5179C12.9604 17.2209 13.2829 17.4987 13.2829 18.0042C13.2829 18.4969 12.9604 18.8152 12.5179 18.8152H7.77975ZM17.9564 19.0774C15.8735 19.0774 14.4949 17.9128 14.4949 16.1665C14.4949 14.9402 15.2332 13.965 16.4866 13.6955V13.6167C15.4333 13.316 14.8443 12.487 14.8443 11.4386C14.8443 9.87888 16.1282 8.80591 17.9756 8.80591C19.8304 8.80591 21.1143 9.87888 21.1143 11.4386C21.1143 12.487 20.5157 13.3352 19.47 13.6167V13.6955C20.7063 13.965 21.4659 14.9306 21.4659 16.1569C21.4659 17.8936 20.0489 19.0774 17.9564 19.0774ZM17.9852 17.6789C19.0218 17.6789 19.7695 17.0039 19.7695 16.042C19.7695 15.0823 19.0411 14.3955 17.9852 14.3955C16.9464 14.3955 16.2105 15.0919 16.2105 16.042C16.2105 17.0039 16.9464 17.6789 17.9852 17.6789ZM17.9756 13.0519C18.8383 13.0519 19.4367 12.4375 19.4367 11.6079C19.4367 10.7782 18.8362 10.2002 17.9756 10.2002C17.1246 10.2002 16.522 10.7782 16.522 11.6079C16.522 12.4375 17.1203 13.0519 17.9756 13.0519Z" fill="white"/>
</svg>
