<svg width="28" height="28" viewBox="0 0 28 28" fill="none" xmlns="http://www.w3.org/2000/svg">
<path d="M14.105 26.21C20.7369 26.21 26.2121 20.7273 26.2121 14.105C26.2121 7.47312 20.7273 2 14.0954 2C7.47523 2 2 7.47312 2 14.105C2 20.7273 7.48484 26.21 14.105 26.21Z" fill="black"/>
<path d="M9.37891 15.1988C9.37891 14.8791 9.61657 14.6319 9.94587 14.6319H18.2451C18.5723 14.6319 18.8024 14.8791 18.8024 15.1988C18.8024 15.5398 18.5744 15.7892 18.2451 15.7892H12.7607C12.4038 16.0259 12.228 16.4192 12.228 16.7752C12.228 17.7212 13.0877 18.2031 14.1156 18.2031C14.9505 18.2031 15.697 17.8438 16.0197 17.127C16.2302 16.737 16.4847 16.5997 16.8262 16.5997C17.335 16.5997 17.6636 16.9456 17.654 17.4181C17.6444 17.7059 17.5612 17.9841 17.3927 18.241C16.7577 19.3388 15.4949 19.8343 14.1424 19.8343C12.0817 19.8343 10.4092 18.7224 10.4092 16.8739C10.4092 16.5287 10.5159 16.1206 10.7334 15.7892H9.94587C9.61657 15.7892 9.37891 15.5398 9.37891 15.1988ZM9.40774 12.8902C9.40774 12.5471 9.63579 12.3094 9.96509 12.3094H15.4495C15.8085 12.0631 15.9843 11.6677 15.9843 11.3138C15.9843 10.3775 15.1225 9.886 14.0967 9.886C13.2597 9.886 12.5228 10.2432 12.1905 10.9599C11.98 11.3499 11.7255 11.4873 11.384 11.4873C10.8752 11.4873 10.5466 11.1413 10.5562 10.6805C10.5658 10.3831 10.649 10.1124 10.8196 9.85765C11.4578 8.74812 12.7174 8.25476 14.0678 8.25476C16.1306 8.25476 17.8031 9.36663 17.8031 11.2152C17.8031 11.5604 17.6943 11.9663 17.4768 12.3094H18.2664C18.5936 12.3094 18.8334 12.5471 18.8334 12.8902C18.8334 13.2078 18.5936 13.4572 18.2664 13.4572H9.96509C9.6379 13.4572 9.40774 13.2078 9.40774 12.8902Z" fill="white"/>
</svg>
