<svg width="28" height="28" viewBox="0 0 28 28" fill="none" xmlns="http://www.w3.org/2000/svg">
<path d="M6.25601 21.4957C7.02827 21.4957 7.53334 20.9534 7.53334 20.194V11.8451C7.53334 9.88265 8.5046 8.33554 10.1316 8.33554C11.6944 8.33554 12.4405 9.54655 12.4405 11.2291V20.194C12.4405 20.9534 12.9212 21.4957 13.6606 21.4957C14.4118 21.4957 14.9021 20.9534 14.9021 20.194V11.6508C14.9021 9.74085 15.8436 8.33554 17.4791 8.33554C19.1134 8.33554 19.8019 9.53062 19.8019 11.3871V20.194C19.8019 20.9534 20.2974 21.4957 21.0601 21.4957C21.8281 21.4957 22.3332 20.9534 22.3332 20.194V10.7433C22.3332 7.93172 20.8144 5.99555 18.2532 5.99555C16.2985 5.99555 14.8601 7.18618 14.431 8.89126H14.3778C13.9691 7.03267 12.7686 5.99555 10.8919 5.99555C9.1224 5.99555 7.88795 7.17751 7.48412 8.87555H7.41405V7.32398C7.41405 6.57422 6.89397 6.0436 6.20702 6.0436C5.49125 6.0436 5 6.57422 5 7.32398V20.194C5 20.9534 5.49336 21.4957 6.25601 21.4957ZM7.16186 27.1866C7.55209 27.1866 7.75342 26.9595 7.89733 26.6194L18.694 1.48219C18.7601 1.35001 18.7911 1.18477 18.7911 1.05258C18.7911 0.64547 18.499 0.380157 18.0898 0.380157C17.7284 0.380157 17.5079 0.605158 17.3619 0.947346L6.56725 26.092C6.50116 26.2167 6.46811 26.3799 6.46811 26.5238C6.46811 26.9309 6.76014 27.1866 7.16186 27.1866Z" fill="black"/>
</svg>
