<svg width="28" height="28" viewBox="0 0 28 28" fill="none" xmlns="http://www.w3.org/2000/svg">
<path d="M10.4189 24.9398C11.3029 24.9398 11.8856 24.3295 11.8856 23.4286V15.168H19.5136C20.28 15.168 20.816 14.7012 20.816 13.942C20.816 13.1808 20.2758 12.7139 19.5136 12.7139H11.8856V6.04102H20.2919C21.0785 6.04102 21.626 5.56993 21.626 4.7822C21.626 4.00619 21.0827 3.52338 20.2919 3.52338H10.4189C9.50812 3.52338 8.9543 4.10275 8.9543 5.04423V23.4286C8.9543 24.3391 9.52734 24.9398 10.4189 24.9398ZM6 20.2971C6 20.6946 6.3293 21.0335 6.73641 21.0335H16.9685C17.3756 21.0335 17.7145 20.6946 17.7145 20.2971C17.7145 19.89 17.3756 19.5511 16.9685 19.5511H6.73641C6.3293 19.5511 6 19.89 6 20.2971Z" fill="black"/>
</svg>
