<svg width="28" height="28" viewBox="0 0 28 28" fill="none" xmlns="http://www.w3.org/2000/svg">
<path d="M14.105 26.21C20.7369 26.21 26.2121 20.7273 26.2121 14.105C26.2121 7.47312 20.7273 2 14.0954 2C7.47523 2 2 7.47312 2 14.105C2 20.7273 7.48484 26.21 14.105 26.21ZM14.105 23.8255C8.71085 23.8255 4.39412 19.4991 4.39412 14.105C4.39412 8.71085 8.70124 4.38452 14.0954 4.38452C19.4895 4.38452 23.8276 8.71085 23.8276 14.105C23.8276 19.4991 19.4991 23.8255 14.105 23.8255Z" fill="black"/>
<path d="M10.1602 14.1008C10.1602 16.5244 11.4757 18.1013 13.5357 18.354V19.1886C13.5357 19.52 13.7712 19.7459 14.0867 19.7459C14.4139 19.7459 14.6494 19.52 14.6494 19.1886V18.3636C16.2242 18.192 17.2514 17.2998 17.566 16.2948C17.5969 16.1764 17.63 16.0358 17.63 15.9015C17.63 15.4323 17.2821 15.1194 16.8129 15.1194C16.4658 15.1194 16.2052 15.3111 16.0362 15.6559C15.7878 16.25 15.3237 16.6618 14.6494 16.8015V11.4021C15.312 11.5461 15.7761 11.9675 16.0224 12.5382C16.1883 12.8949 16.4417 13.0918 16.8183 13.0918C17.2875 13.0918 17.614 12.781 17.614 12.3001C17.614 12.1594 17.5768 12.0158 17.5374 11.8901C17.1954 10.864 16.1585 10.0149 14.6494 9.84754V9.02676C14.6494 8.69957 14.4139 8.46191 14.0867 8.46191C13.7712 8.46191 13.5357 8.69957 13.5357 9.02676V9.85715C11.4757 10.1077 10.1602 11.6984 10.1602 14.1008ZM11.9121 14.1008C11.9121 12.6326 12.5288 11.6879 13.5357 11.4235V16.7802C12.5288 16.5254 11.9121 15.5902 11.9121 14.1008Z" fill="black"/>
</svg>
