<svg width="28" height="28" viewBox="0 0 28 28" fill="none" xmlns="http://www.w3.org/2000/svg">
<path d="M14.105 26.21C20.7369 26.21 26.2121 20.7273 26.2121 14.105C26.2121 7.47312 20.7273 2 14.0954 2C7.47523 2 2 7.47312 2 14.105C2 20.7273 7.48484 26.21 14.105 26.21ZM14.105 23.8255C8.71085 23.8255 4.39412 19.4991 4.39412 14.105C4.39412 8.71085 8.70124 4.38452 14.0954 4.38452C19.4895 4.38452 23.8276 8.71085 23.8276 14.105C23.8276 19.4991 19.4991 23.8255 14.105 23.8255Z" fill="black"/>
<path d="M10.5005 19.3039H17.3755C17.8564 19.3039 18.1894 18.9964 18.1894 18.5155C18.1894 18.0441 17.8564 17.7388 17.3755 17.7388H12.643C13.2111 17.24 13.5875 16.3848 13.5875 15.4773C13.5875 15.1135 13.5469 14.7903 13.4755 14.4948H16.2533C16.6536 14.4948 16.9316 14.2339 16.9316 13.8366C16.9316 13.4469 16.6536 13.1902 16.2533 13.1902H13.175C13.0801 12.785 12.9947 12.3488 12.9947 11.8454C12.9947 10.6726 13.8338 9.8792 15.2909 9.8792C16.246 9.8792 16.6641 10.1171 17.0366 10.1171C17.4997 10.1171 17.7453 9.85623 17.7453 9.43272C17.7453 9.09311 17.5866 8.83225 17.1561 8.65343C16.6255 8.42351 15.9481 8.31921 15.1372 8.31921C12.6809 8.31921 11.2023 9.71069 11.2023 11.84C11.2023 12.2961 11.2822 12.748 11.3952 13.1902H10.393C9.99266 13.1902 9.70508 13.4469 9.70508 13.8366C9.70508 14.2339 9.99266 14.4948 10.393 14.4948H11.6956C11.7842 14.8299 11.8419 15.1672 11.8419 15.481C11.8419 16.6325 11.1519 17.4022 10.3658 17.6609C9.92375 17.8585 9.70789 18.0917 9.70789 18.5302C9.70789 18.9931 10.0217 19.3039 10.5005 19.3039Z" fill="black"/>
</svg>
