<svg width="28" height="28" viewBox="0 0 28 28" fill="none" xmlns="http://www.w3.org/2000/svg">
<path d="M14.105 26.21C20.7369 26.21 26.2121 20.7273 26.2121 14.105C26.2121 7.47312 20.7273 2 14.0954 2C7.47523 2 2 7.47312 2 14.105C2 20.7273 7.48484 26.21 14.105 26.21ZM14.105 23.8255C8.71085 23.8255 4.39412 19.4991 4.39412 14.105C4.39412 8.71085 8.70124 4.38452 14.0954 4.38452C19.4895 4.38452 23.8276 8.71085 23.8276 14.105C23.8276 19.4991 19.4991 23.8255 14.105 23.8255Z" fill="black"/>
<path d="M9.58203 18.9774C9.58203 19.4773 9.91742 19.8041 10.4014 19.8041C10.8833 19.8041 11.1887 19.4656 11.1887 18.9657V10.5978H12.7156C13.8748 10.5978 14.3719 10.9571 14.3719 12.1634V15.864C14.3719 16.3009 14.6459 16.5673 15.0455 16.5673C15.443 16.5673 15.7074 16.3009 15.7074 15.864V11.8166C15.7074 9.73672 14.8172 8.85523 12.8698 8.85523H10.6955C10.0013 8.85523 9.58203 9.24805 9.58203 9.94226V18.9774ZM12.128 18.6146C12.128 19.3088 12.5206 19.6878 13.2223 19.6878H15.3401C17.3438 19.6878 18.2363 18.7747 18.2363 16.4309V9.57734C18.2363 9.07742 17.9309 8.74648 17.4394 8.74648C16.9458 8.74648 16.635 9.06781 16.635 9.57734V16.3086C16.635 17.6631 16.2554 17.9377 15.0462 17.9377H13.4635V12.664C13.4635 12.2272 13.197 11.9724 12.8091 11.9724C12.402 11.9724 12.128 12.2272 12.128 12.664V18.6146Z" fill="black"/>
</svg>
