<svg width="28" height="28" viewBox="0 0 28 28" fill="none" xmlns="http://www.w3.org/2000/svg">
<path d="M14.105 26.21C20.7369 26.21 26.2121 20.7273 26.2121 14.105C26.2121 7.47312 20.7273 2 14.0954 2C7.47523 2 2 7.47312 2 14.105C2 20.7273 7.48484 26.21 14.105 26.21ZM14.105 23.8255C8.71085 23.8255 4.39412 19.4991 4.39412 14.105C4.39412 8.71085 8.70124 4.38452 14.0954 4.38452C19.4895 4.38452 23.8276 8.71085 23.8276 14.105C23.8276 19.4991 19.4991 23.8255 14.105 23.8255Z" fill="black"/>
<path d="M10.2656 19.0419C12.2306 19.0419 13.5539 17.2243 13.5539 14.1029C13.5539 10.9794 12.2306 9.16391 10.2656 9.16391C8.29844 9.16391 6.99414 10.9794 6.99414 14.1029C6.99414 17.2243 8.29844 19.0419 10.2656 19.0419ZM10.274 17.472C9.29149 17.472 8.66851 16.2516 8.66851 14.1029C8.66851 11.9541 9.29149 10.7337 10.274 10.7337C11.2565 10.7337 11.8774 11.9541 11.8774 14.1029C11.8774 16.2516 11.2661 17.472 10.274 17.472ZM18.0593 19.0419C20.0667 19.0419 21.4359 17.8995 21.4359 16.2341C21.4359 15.0514 20.7178 14.1251 19.5133 13.8673V13.7907C20.5219 13.5188 21.1003 12.7025 21.1003 11.6935C21.1003 10.1954 19.8621 9.16391 18.0785 9.16391C16.3045 9.16391 15.0642 10.1954 15.0642 11.6935C15.0642 12.7025 15.6351 13.4996 16.6511 13.7907V13.8673C15.4392 14.1251 14.7286 15.061 14.7286 16.2437C14.7286 17.9187 16.0593 19.0419 18.0593 19.0419ZM18.0881 17.7071C17.0866 17.7071 16.3624 17.0555 16.3624 16.1213C16.3624 15.2063 17.0866 14.5334 18.0881 14.5334C19.1088 14.5334 19.8117 15.1967 19.8117 16.1213C19.8117 17.0555 19.0896 17.7071 18.0881 17.7071ZM18.0785 13.2481C17.2509 13.2481 16.6739 12.6573 16.6739 11.8531C16.6739 11.0469 17.253 10.4923 18.0785 10.4923C18.9136 10.4923 19.4927 11.0469 19.4927 11.8531C19.4927 12.6573 18.9157 13.2481 18.0785 13.2481Z" fill="black"/>
</svg>
