<svg width="28" height="28" viewBox="0 0 28 28" fill="none" xmlns="http://www.w3.org/2000/svg">
<path d="M6.84421 24.8972H21.0295C23.5685 24.8972 24.8737 23.5919 24.8737 21.0914V6.82921C24.8737 4.32656 23.5685 3.02344 21.0295 3.02344H6.84421C4.31484 3.02344 3 4.31695 3 6.82921V21.0914C3 23.6016 4.31484 24.8972 6.84421 24.8972ZM6.97733 22.6013C5.88772 22.6013 5.29592 22.0371 5.29592 20.8985V7.01999C5.29592 5.88139 5.88772 5.31936 6.97733 5.31936H20.8964C21.9764 5.31936 22.5778 5.88139 22.5778 7.01999V20.8985C22.5778 22.0371 21.9764 22.6013 20.8964 22.6013H6.97733Z" fill="black"/>
<path d="M10.1454 18.8817C12.1186 18.8817 13.4751 17.7202 13.4751 16.0495C13.4751 14.839 12.6523 13.8523 11.5172 13.7435V13.6669C12.454 13.5091 13.184 12.5682 13.184 11.513C13.184 10.0257 11.9651 9.00378 10.2148 9.00378C8.66859 9.00378 7.5389 9.89558 7.24054 10.9554C7.19062 11.1289 7.18429 11.2587 7.18429 11.4195C7.18429 11.8793 7.4632 12.1828 7.89656 12.1828C8.26288 12.1828 8.46937 11.9911 8.60343 11.6288C8.86124 10.8844 9.36679 10.478 10.1796 10.478C11.002 10.478 11.5866 10.9835 11.5866 11.7279C11.5866 12.4843 11.0189 13.0505 10.1721 13.0505H9.64265C9.21281 13.0505 8.92007 13.3516 8.92007 13.8094C8.92007 14.2329 9.19054 14.5533 9.64265 14.5533H10.2223C11.2132 14.5533 11.8437 15.1165 11.8437 15.9645C11.8437 16.7709 11.1556 17.3906 10.1634 17.3906C9.34101 17.3906 8.75671 16.9821 8.45085 16.2377C8.29546 15.8733 8.07726 15.6858 7.73226 15.6858C7.32327 15.6858 7.00195 15.9893 7.00195 16.4395C7.00195 16.6099 7.0296 16.7398 7.06898 16.8984C7.37484 17.9386 8.60437 18.8817 10.1454 18.8817ZM17.8007 18.8817C19.8581 18.8817 21.1912 17.6224 21.1912 15.5831C21.1912 13.8037 19.9936 12.563 18.2868 12.563C17.5312 12.563 16.7435 12.9307 16.3961 13.4517H16.3439L16.5475 10.6657H20.1691C20.5521 10.6657 20.8331 10.3814 20.8331 9.94831C20.8331 9.5248 20.5659 9.23511 20.1691 9.23511H16.2855C15.655 9.23511 15.247 9.62698 15.2097 10.2882L14.9442 13.7925C14.909 14.423 15.2582 14.8319 15.8109 14.8319C16.2058 14.8319 16.4369 14.7276 16.7824 14.4504C17.227 14.0707 17.5682 13.9076 18.048 13.9076C18.9759 13.9076 19.6158 14.6583 19.6158 15.6352C19.6158 16.7496 18.9183 17.4352 17.8912 17.4352C17.1576 17.4352 16.5527 17.0386 16.2351 16.422C16.053 16.1137 15.8313 15.9244 15.5217 15.9244C15.1 15.9244 14.8085 16.2427 14.8085 16.6631C14.8085 16.8527 14.8415 17.0327 14.9182 17.2094C15.2496 18.1125 16.3633 18.8817 17.8007 18.8817Z" fill="black"/>
</svg>
