<svg width="28" height="28" viewBox="0 0 28 28" fill="none" xmlns="http://www.w3.org/2000/svg">
<path d="M14.105 26.21C20.7369 26.21 26.2121 20.7273 26.2121 14.105C26.2121 7.47312 20.7273 2 14.0954 2C7.47523 2 2 7.47312 2 14.105C2 20.7273 7.48484 26.21 14.105 26.21ZM14.105 23.8255C8.71085 23.8255 4.39412 19.4991 4.39412 14.105C4.39412 8.71085 8.70124 4.38452 14.0954 4.38452C19.4895 4.38452 23.8276 8.71085 23.8276 14.105C23.8276 19.4991 19.4991 23.8255 14.105 23.8255Z" fill="black"/>
<path d="M10.2977 19.0419C12.2709 19.0419 13.6179 17.8803 13.6179 16.2097C13.6179 14.9991 12.8067 14.0124 11.6695 13.9037V13.827C12.5967 13.6693 13.3268 12.7283 13.3268 11.6732C13.3268 10.1858 12.1174 9.16394 10.3671 9.16394C8.82095 9.16394 7.68165 10.0557 7.38329 11.1156C7.34298 11.289 7.33665 11.4189 7.33665 11.5796C7.33665 12.0394 7.61555 12.343 8.04891 12.343C8.41735 12.343 8.62383 12.1512 8.74617 11.7889C9.0136 11.0446 9.51915 10.6382 10.332 10.6382C11.1544 10.6382 11.741 11.1437 11.741 11.8881C11.741 12.6444 11.1713 13.2106 10.3245 13.2106H9.79501C9.36516 13.2106 9.07243 13.5118 9.07243 13.9695C9.07243 14.393 9.3429 14.7134 9.79501 14.7134H10.3746C11.3677 14.7134 11.996 15.2766 11.996 16.1246C11.996 16.9311 11.3079 17.5508 10.3158 17.5508C9.49336 17.5508 8.90907 17.1423 8.60321 16.3979C8.44992 16.0334 8.22961 15.8459 7.88461 15.8459C7.47774 15.8459 7.1543 16.1495 7.1543 16.5997C7.1543 16.7701 7.18196 16.8999 7.22133 17.0586C7.52719 18.0987 8.75673 19.0419 10.2977 19.0419ZM17.9531 19.0419C20.0008 19.0419 21.3436 17.7826 21.3436 15.7433C21.3436 13.9639 20.1459 12.7231 18.4392 12.7231C17.6836 12.7231 16.8862 13.0909 16.5506 13.6119H16.4962L16.702 10.8259H20.3215C20.7044 10.8259 20.9758 10.5416 20.9758 10.1085C20.9758 9.68495 20.7183 9.39526 20.3215 9.39526H16.4379C15.8074 9.39526 15.3994 9.78714 15.3621 10.4483L15.0965 13.9527C15.0614 14.5831 15.401 14.9921 15.9633 14.9921C16.3582 14.9921 16.5893 14.8878 16.9347 14.6105C17.3793 14.2308 17.7227 14.0677 18.2004 14.0677C19.1283 14.0677 19.7681 14.8184 19.7681 15.7953C19.7681 16.9098 19.0706 17.5953 18.0436 17.5953C17.31 17.5953 16.705 17.1988 16.3779 16.5821C16.2075 16.2739 15.9836 16.0845 15.674 16.0845C15.2545 16.0845 14.9608 16.4028 14.9608 16.8233C14.9608 17.0129 14.9939 17.1929 15.063 17.3696C15.4019 18.2727 16.5157 19.0419 17.9531 19.0419Z" fill="black"/>
</svg>
