<svg width="28" height="28" viewBox="0 0 28 28" fill="none" xmlns="http://www.w3.org/2000/svg">
<path d="M14.105 26.21C20.7369 26.21 26.2121 20.7273 26.2121 14.105C26.2121 7.47312 20.7273 2 14.0954 2C7.47523 2 2 7.47312 2 14.105C2 20.7273 7.48484 26.21 14.105 26.21Z" fill="black"/>
<path d="M10.9971 19.5209C10.2052 19.5209 9.79688 19.0219 9.79688 18.197V9.8304C9.79688 9.00963 10.2073 8.50854 10.9971 8.50854H14.0707C17.5331 8.50854 19.4433 10.4623 19.4433 13.9918C19.4433 17.5576 17.5022 19.5209 14.0707 19.5209H10.9971ZM12.0431 17.7446H13.7711C15.9464 17.7446 17.0887 16.5226 17.0887 14.0206C17.0887 11.5709 15.9368 10.287 13.7711 10.287H12.0431V17.7446Z" fill="white"/>
</svg>
