<svg width="28" height="28" viewBox="0 0 28 28" fill="none" xmlns="http://www.w3.org/2000/svg">
<path d="M8.7189 24.5809H14.6593C19.0506 24.5809 21.7253 22.3963 21.7253 18.7998C21.7253 15.9904 19.7284 14.0059 16.8775 13.7029V13.6028C19.0525 13.2309 20.6821 11.2724 20.6821 9.00883C20.6821 5.90149 18.2671 3.86969 14.5811 3.86969H8.7189C7.66281 3.86969 7 4.54094 7 5.6139V22.8388C7 23.9097 7.66281 24.5809 8.7189 24.5809ZM9.84998 6.20546H13.9157C16.3902 6.20546 17.8701 7.35249 17.8701 9.38031C17.8701 11.5736 16.2121 12.7921 13.3619 12.7921H9.84998V6.20546ZM9.84998 22.2473V15.0299H13.8737C17.0662 15.0299 18.8001 16.274 18.8001 18.6281C18.8001 20.9894 17.1163 22.2473 14.0905 22.2473H9.84998ZM12.6498 26.4698C12.6498 26.8769 12.9887 27.2158 13.398 27.2158C13.8051 27.2158 14.1344 26.8769 14.1344 26.4698V1.80063C14.1344 1.39352 13.8051 1.05461 13.398 1.05461C12.9887 1.05461 12.6498 1.39352 12.6498 1.80063V26.4698Z" fill="black"/>
</svg>
