<svg width="28" height="28" viewBox="0 0 28 28" fill="none" xmlns="http://www.w3.org/2000/svg">
<path d="M14.105 26.21C20.7369 26.21 26.2121 20.7273 26.2121 14.105C26.2121 7.47312 20.7273 2 14.0954 2C7.47523 2 2 7.47312 2 14.105C2 20.7273 7.48484 26.21 14.105 26.21Z" fill="black"/>
<path d="M10.0786 19.2184C8.48016 19.2184 7.20703 18.2359 6.88734 17.1563C6.84586 17.003 6.82031 16.8615 6.82031 16.689C6.82031 16.2069 7.14797 15.9012 7.58039 15.9012C7.94343 15.9012 8.16586 16.0887 8.33507 16.4595C8.65265 17.2391 9.25289 17.6497 10.0988 17.6497C11.1218 17.6497 11.8355 17.0162 11.8355 16.1862C11.8355 15.3031 11.1816 14.7378 10.1651 14.7378H9.56625C9.09399 14.7378 8.80969 14.4015 8.80969 13.9599C8.80969 13.4724 9.11625 13.1574 9.56625 13.1574H10.1053C10.9852 13.1574 11.5667 12.5752 11.5667 11.7976C11.5667 11.0276 10.9683 10.5104 10.1128 10.5104C9.27445 10.5104 8.75718 10.9168 8.48554 11.6963C8.35148 12.0746 8.13117 12.2684 7.7468 12.2684C7.2975 12.2684 7.00266 11.949 7.00266 11.4711C7.00266 11.2986 7.01109 11.1645 7.0493 10.989C7.36359 9.89187 8.54438 8.95648 10.1576 8.95648C11.9716 8.95648 13.2363 10.0198 13.2363 11.5667C13.2363 12.6612 12.4786 13.6437 11.512 13.8036V13.8823C12.6886 13.989 13.5391 15.0097 13.5391 16.2734C13.5391 18.0036 12.1368 19.2184 10.0786 19.2184ZM18.0637 19.2184C16.0211 19.2184 14.6615 17.3455 14.6615 14.0933C14.6615 10.8315 16.0211 8.95648 18.0637 8.95648C20.1096 8.95648 21.4786 10.8315 21.4786 14.0933C21.4786 17.3455 20.1096 19.2184 18.0637 19.2184ZM18.0701 17.5688C19.0973 17.5688 19.732 16.3133 19.732 14.0933C19.732 11.8616 19.0877 10.6081 18.0701 10.6081C17.0641 10.6081 16.4198 11.8616 16.4198 14.0933C16.4198 16.3133 17.0641 17.5688 18.0701 17.5688Z" fill="white"/>
</svg>
