<svg width="28" height="28" viewBox="0 0 28 28" fill="none" xmlns="http://www.w3.org/2000/svg">
<path d="M6.84421 24.8972H21.0295C23.5685 24.8972 24.8737 23.5919 24.8737 21.0914V6.82921C24.8737 4.32656 23.5685 3.02344 21.0295 3.02344H6.84421C4.31484 3.02344 3 4.31695 3 6.82921V21.0914C3 23.6016 4.31484 24.8972 6.84421 24.8972ZM6.97733 22.6013C5.88772 22.6013 5.29592 22.0371 5.29592 20.8985V7.01999C5.29592 5.88139 5.88772 5.31936 6.97733 5.31936H20.8964C21.9764 5.31936 22.5778 5.88139 22.5778 7.01999V20.8985C22.5778 22.0371 21.9764 22.6013 20.8964 22.6013H6.97733Z" fill="black"/>
<path d="M13.9229 19.4808C16.5202 19.4808 18.2436 18.2086 18.2436 16.3092C18.2436 15.0021 17.2986 13.9514 15.8893 13.6912V13.6041C17.0832 13.2621 17.8004 12.3689 17.8004 11.2385C17.8004 9.55218 16.2315 8.40468 13.9421 8.40468C11.6506 8.40468 10.0817 9.55218 10.0817 11.2385C10.0817 12.3689 10.7797 13.2408 11.9949 13.6041V13.6912C10.5739 13.9514 9.62891 15.0138 9.62891 16.3188C9.62891 18.2278 11.333 19.4808 13.9229 19.4808ZM13.9517 17.9787C12.7144 17.9787 11.8046 17.2322 11.8046 16.1892C11.8046 15.173 12.7241 14.4126 13.9517 14.4126C15.1986 14.4126 16.0796 15.1634 16.0796 16.1892C16.0796 17.2322 15.1794 17.9787 13.9517 17.9787ZM13.9421 13.0071C12.901 13.0071 12.1651 12.3501 12.1651 11.4415C12.1651 10.5541 12.9031 9.90467 13.9421 9.90467C14.9811 9.90467 15.7192 10.5541 15.7192 11.4415C15.7192 12.3501 14.9757 13.0071 13.9421 13.0071Z" fill="black"/>
</svg>
