<svg width="28" height="28" viewBox="0 0 28 28" fill="none" xmlns="http://www.w3.org/2000/svg">
<path d="M14.105 26.21C20.7369 26.21 26.2121 20.7273 26.2121 14.105C26.2121 7.47312 20.7273 2 14.0954 2C7.47523 2 2 7.47312 2 14.105C2 20.7273 7.48484 26.21 14.105 26.21Z" fill="black"/>
<path d="M8.98633 14.2545C8.98633 13.9135 9.23571 13.6641 9.5575 13.6641H10.2128V9.586C10.2128 8.91476 10.6734 8.4657 11.3638 8.4657C11.9584 8.4657 12.3467 8.77741 12.5809 9.30288L14.7027 13.6737H16.1764V9.38819C16.1764 8.82546 16.5266 8.4753 17.0659 8.4753C17.601 8.4753 17.9628 8.82546 17.9628 9.38819V13.6737H18.6542C18.976 13.6737 19.2233 13.9135 19.2233 14.2545C19.2233 14.5742 18.976 14.8407 18.6542 14.8407H17.9628V18.8973C17.9628 19.576 17.5023 20.0272 16.8118 20.0272C16.2172 20.0272 15.8268 19.7155 15.5947 19.1879L13.4762 14.8311H11.9971V19.1026C11.9971 19.6653 11.6491 20.0176 11.1098 20.0176C10.5705 20.0176 10.2128 19.6653 10.2128 19.1026V14.8311H9.5575C9.2261 14.8311 8.98633 14.5721 8.98633 14.2545ZM11.9908 13.6641H12.9903L11.9908 11.5114V13.6641ZM15.1928 14.8407L16.1807 16.9881V14.8407H15.1928Z" fill="white"/>
</svg>
