<svg width="28" height="28" viewBox="0 0 28 28" fill="none" xmlns="http://www.w3.org/2000/svg">
<path d="M6.84421 24.8972H21.0295C23.5685 24.8972 24.8737 23.5919 24.8737 21.0914V6.82921C24.8737 4.32656 23.5685 3.02344 21.0295 3.02344H6.84421C4.31484 3.02344 3 4.31695 3 6.82921V21.0914C3 23.6016 4.31484 24.8972 6.84421 24.8972Z" fill="black"/>
<path d="M10.8086 18.9504C10.2841 18.9504 9.97211 18.6141 9.97211 18.0504V10.9975H9.90602L8.78054 11.8624C8.49508 12.1082 8.35469 12.1495 8.11539 12.1495C7.72586 12.1495 7.36914 11.8036 7.36914 11.3723C7.36914 11.0243 7.52992 10.7805 7.82781 10.5541L9.51883 9.3445C9.99039 8.99458 10.2606 8.87528 10.6823 8.87528C11.2832 8.87528 11.6664 9.28286 11.6664 9.88801V18.0504C11.6664 18.6141 11.3448 18.9504 10.8086 18.9504ZM17.1226 19.0774C15.0843 19.0774 13.7225 17.1949 13.7225 13.9427C13.7225 10.6905 15.0843 8.80591 17.1226 8.80591C19.1685 8.80591 20.5375 10.6905 20.5375 13.9427C20.5375 17.1949 19.1685 19.0774 17.1226 19.0774ZM17.1311 17.4279C18.1562 17.4279 18.7909 16.1723 18.7909 13.9427C18.7909 11.7131 18.1466 10.4575 17.1311 10.4575C16.1251 10.4575 15.4787 11.7131 15.4787 13.9427C15.4787 16.1723 16.1251 17.4279 17.1311 17.4279Z" fill="white"/>
</svg>
