<svg width="28" height="28" viewBox="0 0 28 28" fill="none" xmlns="http://www.w3.org/2000/svg">
<path d="M6.84421 24.8972H21.0295C23.5685 24.8972 24.8737 23.5919 24.8737 21.0914V6.82921C24.8737 4.32656 23.5685 3.02344 21.0295 3.02344H6.84421C4.31484 3.02344 3 4.31695 3 6.82921V21.0914C3 23.6016 4.31484 24.8972 6.84421 24.8972ZM6.97733 22.6013C5.88772 22.6013 5.29592 22.0371 5.29592 20.8985V7.01999C5.29592 5.88139 5.88772 5.31936 6.97733 5.31936H20.8964C21.9764 5.31936 22.5778 5.88139 22.5778 7.01999V20.8985C22.5778 22.0371 21.9764 22.6013 20.8964 22.6013H6.97733Z" fill="black"/>
<path d="M10.3475 19.1437H17.2299C17.7033 19.1437 18.0364 18.8362 18.0364 18.3553C18.0364 17.884 17.7033 17.5786 17.2299 17.5786H12.4899C13.058 17.0798 13.4344 16.2246 13.4344 15.3171C13.4344 14.9534 13.3918 14.6302 13.3224 14.3346H16.1002C16.5005 14.3346 16.7881 14.0737 16.7881 13.6765C16.7881 13.2867 16.5005 13.0301 16.1002 13.0301H13.0219C12.927 12.6248 12.8417 12.1887 12.8417 11.6852C12.8417 10.5124 13.6786 9.71906 15.1379 9.71906C16.0908 9.71906 16.5207 9.95695 16.8835 9.95695C17.3445 9.95695 17.5922 9.69609 17.5922 9.27257C17.5922 8.93297 17.4336 8.67211 17.003 8.49328C16.4724 8.26336 15.8047 8.15906 14.982 8.15906C12.5279 8.15906 11.0471 9.55055 11.0471 11.6798C11.0471 12.1359 11.1291 12.5878 11.24 13.0301H10.2399C9.8396 13.0301 9.56163 13.2867 9.56163 13.6765C9.56163 14.0737 9.8396 14.3346 10.2399 14.3346H11.5426C11.6312 14.6698 11.6888 15.007 11.6888 15.3209C11.6888 16.4723 10.9988 17.242 10.2127 17.5008C9.7803 17.6984 9.55273 17.9316 9.55273 18.3701C9.55273 18.833 9.87827 19.1437 10.3475 19.1437Z" fill="black"/>
</svg>
