<svg width="28" height="28" viewBox="0 0 28 28" fill="none" xmlns="http://www.w3.org/2000/svg">
<path d="M14.105 26.21C20.7369 26.21 26.2121 20.7273 26.2121 14.105C26.2121 7.47312 20.7273 2 14.0954 2C7.47523 2 2 7.47312 2 14.105C2 20.7273 7.48484 26.21 14.105 26.21ZM14.105 23.8255C8.71085 23.8255 4.39412 19.4991 4.39412 14.105C4.39412 8.71085 8.70124 4.38452 14.0954 4.38452C19.4895 4.38452 23.8276 8.71085 23.8276 14.105C23.8276 19.4991 19.4991 23.8255 14.105 23.8255Z" fill="black"/>
<path d="M10.6332 19.468C11.2801 19.468 11.6567 19.0691 11.6567 18.3786V12.2016H11.7334L16.4841 18.8401C16.8427 19.3243 17.1024 19.468 17.5418 19.468C18.1688 19.468 18.5541 19.0784 18.5541 18.4046V9.64881C18.5541 8.96796 18.1775 8.55945 17.5306 8.55945C16.8954 8.55945 16.5284 8.98507 16.5284 9.64881V15.8999H16.44L11.72 9.20421C11.3562 8.71273 11.0858 8.55945 10.6442 8.55945C10.013 8.55945 9.64062 8.99046 9.64062 9.64928V18.3786C9.64062 19.0519 10.0055 19.468 10.6332 19.468Z" fill="black"/>
</svg>
