<svg width="28" height="28" viewBox="0 0 28 28" fill="none" xmlns="http://www.w3.org/2000/svg">
<path d="M6.84421 24.8972H21.0295C23.5685 24.8972 24.8737 23.5919 24.8737 21.0914V6.82921C24.8737 4.32656 23.5685 3.02344 21.0295 3.02344H6.84421C4.31484 3.02344 3 4.31695 3 6.82921V21.0914C3 23.6016 4.31484 24.8972 6.84421 24.8972ZM6.97733 22.6013C5.88772 22.6013 5.29592 22.0371 5.29592 20.8985V7.01999C5.29592 5.88139 5.88772 5.31936 6.97733 5.31936H20.8964C21.9764 5.31936 22.5778 5.88139 22.5778 7.01999V20.8985C22.5778 22.0371 21.9764 22.6013 20.8964 22.6013H6.97733Z" fill="black"/>
<path d="M10.5839 18.7643C11.0979 18.7643 11.4056 18.4439 11.4056 17.9046V10.0338C11.4056 9.45302 11.0384 9.06138 10.4597 9.06138C10.0657 9.06138 9.79969 9.18067 9.35789 9.51255L7.71796 10.6786C7.43601 10.9008 7.27734 11.1307 7.27734 11.4607C7.27734 11.8781 7.62023 12.2081 7.98961 12.2081C8.21718 12.2081 8.35335 12.1668 8.62499 11.9369L9.72492 11.0955H9.79102V17.9046C9.79102 18.4439 10.087 18.7643 10.5839 18.7643ZM16.8654 18.8913C18.73 18.8913 20.0514 17.6395 20.0514 15.5372C20.0514 13.5933 18.7415 12.5095 17.2814 12.5095C16.1013 12.5095 15.371 13.1641 15.0822 13.8933H15.0044C15.0023 13.8391 15.0002 13.7925 15.0002 13.7098C15.0002 11.7269 15.8212 10.4653 17.0189 10.4653C17.6416 10.4653 18.0618 10.7681 18.3379 11.1808C18.5329 11.4527 18.7289 11.5954 19.06 11.5954C19.4114 11.5954 19.6954 11.325 19.6954 10.9108C19.6954 10.7332 19.6657 10.5841 19.5944 10.4128C19.2918 9.66349 18.3797 9.00372 17.0775 9.00372C14.8832 9.00372 13.4836 10.7257 13.4836 14.1659C13.4836 15.5196 13.6978 16.5478 14.0814 17.2861C14.6622 18.4195 15.6679 18.8913 16.8654 18.8913ZM16.7866 17.4884C15.8064 17.4884 15.1185 16.7152 15.1185 15.6178C15.1185 14.5706 15.8064 13.8241 16.7962 13.8241C17.7797 13.8241 18.4483 14.561 18.4483 15.6274C18.4483 16.7632 17.7989 17.4884 16.7866 17.4884Z" fill="black"/>
</svg>
