<svg width="28" height="28" viewBox="0 0 28 28" fill="none" xmlns="http://www.w3.org/2000/svg">
<path d="M6.84421 24.8972H21.0295C23.5685 24.8972 24.8737 23.5919 24.8737 21.0914V6.82921C24.8737 4.32656 23.5685 3.02344 21.0295 3.02344H6.84421C4.31484 3.02344 3 4.31695 3 6.82921V21.0914C3 23.6016 4.31484 24.8972 6.84421 24.8972Z" fill="black"/>
<path d="M7.97297 18.8152C7.49508 18.8152 7.16743 18.5023 7.16743 18.0096C7.16743 17.7171 7.27383 17.4724 7.50024 17.212L10.4557 13.7384C11.0236 13.0725 11.6142 12.4455 11.6142 11.711C11.6142 10.9153 11.0438 10.3725 10.1606 10.3725C9.39376 10.3725 8.84133 10.7723 8.56078 11.5914C8.41055 11.9674 8.19985 12.1898 7.80188 12.1898C7.35165 12.1898 7.06641 11.8715 7.06641 11.4021C7.06641 11.2446 7.09196 11.0976 7.12173 10.9326C7.44235 9.70849 8.71243 8.80591 10.1316 8.80591C12.0068 8.80591 13.2173 9.89669 13.2215 11.5652C13.2257 12.7448 12.5916 13.6036 11.6829 14.6529L9.56156 17.123V17.2209H12.7015C13.1536 17.2209 13.4782 17.4987 13.4782 18.0042C13.4782 18.4969 13.1536 18.8152 12.7015 18.8152H7.97297ZM17.9123 19.0774C15.8643 19.0774 14.5122 17.1949 14.5122 13.9427C14.5122 10.6905 15.8643 8.80591 17.9123 8.80591C19.9582 8.80591 21.3293 10.6905 21.3293 13.9427C21.3293 17.1949 19.9582 19.0774 17.9123 19.0774ZM17.9207 17.4279C18.9459 17.4279 19.571 16.1723 19.571 13.9427C19.571 11.7131 18.9363 10.4575 17.9207 10.4575C16.9031 10.4575 16.278 11.7131 16.278 13.9427C16.278 16.1723 16.9031 17.4279 17.9207 17.4279Z" fill="white"/>
</svg>
