<svg width="28" height="28" viewBox="0 0 28 28" fill="none" xmlns="http://www.w3.org/2000/svg">
<path d="M14.105 26.21C20.7369 26.21 26.2121 20.7273 26.2121 14.105C26.2121 7.47312 20.7273 2 14.0954 2C7.47523 2 2 7.47312 2 14.105C2 20.7273 7.48484 26.21 14.105 26.21Z" fill="black"/>
<path d="M10.9183 19.1105C10.3991 19.1105 10.0872 18.7742 10.0872 18.2105V11.1577H10.0211L8.88601 12.0226C8.60265 12.2684 8.46976 12.3097 8.23047 12.3097C7.83133 12.3097 7.47461 11.9637 7.47461 11.5325C7.47461 11.1844 7.645 10.9407 7.93539 10.7143L9.63602 9.50466C10.0959 9.15474 10.3778 9.03544 10.7973 9.03544C11.3887 9.03544 11.7719 9.44302 11.7719 10.0482V18.2105C11.7719 18.7742 11.4503 19.1105 10.9183 19.1105ZM16.9265 19.2376C15.3184 19.2376 14.0453 18.2551 13.7277 17.1755C13.6841 17.0127 13.6586 16.8711 13.6586 16.6986C13.6586 16.2282 14.0076 15.9109 14.4187 15.9109C14.7838 15.9109 15.0138 16.1005 15.1734 16.4809C15.4909 17.2487 16.0912 17.6689 16.9467 17.6689C17.9718 17.6689 18.6717 17.0354 18.6717 16.2076C18.6717 15.3244 18.0295 14.7474 17.0034 14.7474H16.4045C15.9419 14.7474 15.6576 14.4111 15.6576 13.9695C15.6576 13.482 15.9545 13.167 16.4045 13.167H16.9532C17.8235 13.167 18.4146 12.5848 18.4146 11.8072C18.4146 11.0372 17.8066 10.52 16.9607 10.52C16.1224 10.52 15.5955 10.936 15.3356 11.7059C15.1898 12.0842 14.9791 12.278 14.5947 12.278C14.1454 12.278 13.8506 11.9586 13.8506 11.4807C13.8506 11.3178 13.859 11.1741 13.9089 10.9986C14.2115 9.90146 15.3923 8.96606 16.9959 8.96606C18.8292 8.96606 20.0842 10.0294 20.0842 11.5763C20.0842 12.6709 19.3265 13.6534 18.3599 13.8132V13.8919C19.5386 14.0103 20.387 15.0289 20.387 16.2927C20.387 18.0228 18.9731 19.2376 16.9265 19.2376Z" fill="white"/>
</svg>
