<svg width="28" height="28" viewBox="0 0 28 28" fill="none" xmlns="http://www.w3.org/2000/svg">
<path d="M6.84421 24.8972H21.0295C23.5685 24.8972 24.8737 23.5919 24.8737 21.0914V6.82921C24.8737 4.32656 23.5685 3.02344 21.0295 3.02344H6.84421C4.31484 3.02344 3 4.31695 3 6.82921V21.0914C3 23.6016 4.31484 24.8972 6.84421 24.8972Z" fill="black"/>
<path d="M13.9668 19.6357C10.8595 19.6357 8.66016 17.317 8.66016 13.8584C8.66016 10.39 10.8595 8.07349 13.9668 8.07349C17.0859 8.07349 19.2832 10.39 19.2832 13.8584C19.2832 17.317 17.0859 19.6357 13.9668 19.6357ZM13.9668 17.7895C15.7586 17.7895 16.9497 16.2666 16.9497 13.8584C16.9497 11.4405 15.7586 9.91754 13.9668 9.91754C12.1772 9.91754 10.9861 11.4405 10.9861 13.8584C10.9861 16.2666 12.1772 17.7895 13.9668 17.7895Z" fill="white"/>
</svg>
