<svg width="28" height="28" viewBox="0 0 28 28" fill="none" xmlns="http://www.w3.org/2000/svg">
<path d="M6.84421 24.8972H21.0295C23.5685 24.8972 24.8737 23.5919 24.8737 21.0914V6.82921C24.8737 4.32656 23.5685 3.02344 21.0295 3.02344H6.84421C4.31484 3.02344 3 4.31695 3 6.82921V21.0914C3 23.6016 4.31484 24.8972 6.84421 24.8972ZM6.97733 22.6013C5.88772 22.6013 5.29592 22.0371 5.29592 20.8985V7.01999C5.29592 5.88139 5.88772 5.31936 6.97733 5.31936H20.8964C21.9764 5.31936 22.5778 5.88139 22.5778 7.01999V20.8985C22.5778 22.0371 21.9764 22.6013 20.8964 22.6013H6.97733Z" fill="black"/>
<path d="M9.14453 16.3526C9.14453 16.668 9.36086 16.9057 9.69765 16.9057H10.2777L9.78578 18.3795C9.72718 18.5616 9.71335 18.6914 9.71335 18.8041C9.71335 19.2785 10.072 19.6031 10.5932 19.6031C11.0345 19.6031 11.3134 19.3852 11.4412 18.9403L12.0705 16.9057H15.7987L16.4301 18.9499C16.5579 19.3969 16.8239 19.6031 17.2844 19.6031C17.8014 19.6031 18.1558 19.2785 18.1558 18.8041C18.1558 18.6914 18.1324 18.5616 18.0738 18.3795L17.5818 16.9057H18.1778C18.5125 16.9057 18.7289 16.668 18.7289 16.3526C18.7289 16.035 18.5125 15.7898 18.1778 15.7898H17.2258L16.9167 14.8413H18.1778C18.5125 14.8413 18.7289 14.5962 18.7289 14.2786C18.7289 13.9631 18.5125 13.7255 18.1778 13.7255H16.551L15.0853 9.24046C14.913 8.70047 14.5284 8.37305 13.9319 8.37305C13.3312 8.37305 12.9391 8.69086 12.7668 9.24046L11.3085 13.7255H9.69765C9.36086 13.7255 9.14453 13.9631 9.14453 14.2786C9.14453 14.5962 9.36086 14.8413 9.69765 14.8413H10.9429L10.6338 15.7898H9.69765C9.36086 15.7898 9.14453 16.035 9.14453 16.3526ZM12.403 15.7898L12.6887 14.8413H15.1708L15.4682 15.7898H12.403ZM13.0193 13.7255L13.9319 10.7515L14.8404 13.7255H13.0193Z" fill="black"/>
</svg>
