<svg width="28" height="28" viewBox="0 0 28 28" fill="none" xmlns="http://www.w3.org/2000/svg">
<path d="M14.105 26.21C20.7369 26.21 26.2121 20.7273 26.2121 14.105C26.2121 7.47312 20.7273 2 14.0954 2C7.47523 2 2 7.47312 2 14.105C2 20.7273 7.48484 26.21 14.105 26.21Z" fill="black"/>
<path d="M10.0472 19.2376C8.44125 19.2376 7.1543 18.2551 6.84422 17.1755C6.79524 17.0127 6.76758 16.8711 6.76758 16.6986C6.76758 16.2282 7.11656 15.9109 7.52976 15.9109C7.90031 15.9109 8.12484 16.1005 8.28234 16.4809C8.59992 17.2487 9.20976 17.6689 10.0652 17.6689C11.0829 17.6689 11.7945 17.0354 11.7945 16.2076C11.7945 15.3244 11.1406 14.7474 10.1123 14.7474H9.52312C9.05086 14.7474 8.77618 14.4111 8.77618 13.9695C8.77618 13.482 9.06563 13.167 9.52312 13.167H10.0622C10.9345 13.167 11.5235 12.5848 11.5235 11.8072C11.5235 11.0372 10.9252 10.52 10.0697 10.52C9.23344 10.52 8.71406 10.936 8.44453 11.7059C8.29875 12.0842 8.08805 12.278 7.70367 12.278C7.26399 12.278 6.95953 11.9586 6.95953 11.4807C6.95953 11.3178 6.96797 11.1741 7.02 10.9986C7.33008 9.90146 8.50125 8.96606 10.107 8.96606C11.9381 8.96606 13.1932 10.0294 13.1932 11.5763C13.1932 12.6709 12.4355 13.6534 11.4689 13.8132V13.8919C12.6476 14.0103 13.496 15.0289 13.496 16.2927C13.496 18.0228 12.0841 19.2376 10.0472 19.2376ZM18.2625 19.2376C16.6449 19.2376 15.3696 18.2551 15.0595 17.1755C15.0106 17.0127 14.9829 16.8711 14.9829 16.6986C14.9829 16.2282 15.3319 15.9109 15.7451 15.9109C16.1177 15.9109 16.3381 16.1005 16.4955 16.4809C16.8173 17.2487 17.4155 17.6689 18.2784 17.6689C19.2865 17.6689 19.9981 17.0354 19.9981 16.2076C19.9981 15.3244 19.3559 14.7474 18.3277 14.7474H17.7288C17.2683 14.7474 16.9819 14.4111 16.9819 13.9695C16.9819 13.482 17.2809 13.167 17.7288 13.167H18.2796C19.1499 13.167 19.7313 12.5848 19.7313 11.8072C19.7313 11.0372 19.1426 10.52 18.2871 10.52C17.4391 10.52 16.9198 10.936 16.6502 11.7059C16.512 12.0842 16.2938 12.278 15.9094 12.278C15.4697 12.278 15.1652 11.9586 15.1652 11.4807C15.1652 11.3178 15.1737 11.1741 15.2236 10.9986C15.5379 9.90146 16.707 8.96606 18.3202 8.96606C20.1534 8.96606 21.4085 10.0294 21.4085 11.5763C21.4085 12.6709 20.6529 13.6534 19.6746 13.8132V13.8919C20.8608 14.0103 21.7134 15.0289 21.7134 16.2927C21.7134 18.0228 20.2995 19.2376 18.2625 19.2376Z" fill="white"/>
</svg>
