<svg width="28" height="28" viewBox="0 0 28 28" fill="none" xmlns="http://www.w3.org/2000/svg">
<path d="M6.84421 24.8972H21.0295C23.5685 24.8972 24.8737 23.5919 24.8737 21.0914V6.82921C24.8737 4.32656 23.5685 3.02344 21.0295 3.02344H6.84421C4.31484 3.02344 3 4.31695 3 6.82921V21.0914C3 23.6016 4.31484 24.8972 6.84421 24.8972ZM6.97733 22.6013C5.88772 22.6013 5.29592 22.0371 5.29592 20.8985V7.01999C5.29592 5.88139 5.88772 5.31936 6.97733 5.31936H20.8964C21.9764 5.31936 22.5778 5.88139 22.5778 7.01999V20.8985C22.5778 22.0371 21.9764 22.6013 20.8964 22.6013H6.97733Z" fill="black"/>
<path d="M13.9392 19.4156C16.0293 19.4156 17.6847 18.4418 18.2599 16.8809C18.3504 16.6615 18.3801 16.4817 18.3801 16.2806C18.3801 15.7125 18.0068 15.3656 17.4187 15.3656C16.9858 15.3656 16.7072 15.5604 16.4859 16.0052C16.0434 17.0313 15.1582 17.5924 13.9689 17.5924C12.268 17.5924 11.1386 16.107 11.1386 13.8584C11.1386 11.6098 12.268 10.1147 13.9711 10.1147C15.1582 10.1147 16.0434 10.68 16.488 11.7199C16.7135 12.1732 16.9795 12.3499 17.4187 12.3499C18.0068 12.3499 18.3801 12.0031 18.3801 11.4349C18.3801 11.2242 18.3504 11.0541 18.2599 10.8326C17.6847 9.28126 16.0134 8.2915 13.9392 8.2915C10.8829 8.2915 8.91016 10.4724 8.91016 13.8584C8.91016 17.2465 10.8712 19.4156 13.9392 19.4156Z" fill="black"/>
</svg>
