<svg width="28" height="28" viewBox="0 0 28 28" fill="none" xmlns="http://www.w3.org/2000/svg">
<path d="M6.84421 24.8972H21.0295C23.5685 24.8972 24.8737 23.5919 24.8737 21.0914V6.82921C24.8737 4.32656 23.5685 3.02344 21.0295 3.02344H6.84421C4.31484 3.02344 3 4.31695 3 6.82921V21.0914C3 23.6016 4.31484 24.8972 6.84421 24.8972ZM6.97733 22.6013C5.88772 22.6013 5.29592 22.0371 5.29592 20.8985V7.01999C5.29592 5.88139 5.88772 5.31936 6.97733 5.31936H20.8964C21.9764 5.31936 22.5778 5.88139 22.5778 7.01999V20.8985C22.5778 22.0371 21.9764 22.6013 20.8964 22.6013H6.97733Z" fill="black"/>
<path d="M9.62109 13.3486C9.62109 13.6587 9.85031 13.9017 10.1784 13.9017H10.8469V18.8011C10.8469 19.3519 11.2395 19.6957 11.749 19.6957C12.2639 19.6957 12.6373 19.3519 12.6373 18.8011V16.1913H14.5425C16.1868 16.1913 17.4215 15.2894 17.9299 13.9017H18.6686C19.0064 13.9017 19.226 13.6587 19.226 13.3486C19.226 13.0097 19.0064 12.7858 18.6686 12.7858H18.1645C18.1783 12.6813 18.1804 12.5587 18.1804 12.4436C18.1804 12.3189 18.1804 12.2177 18.1687 12.0897H18.6686C19.0064 12.0897 19.226 11.8467 19.226 11.527C19.226 11.1998 19.0064 10.976 18.6686 10.976H17.9224C17.43 9.618 16.2037 8.71191 14.5741 8.71191H11.7466C11.1884 8.71191 10.8469 9.063 10.8469 9.6405V10.976H10.1784C9.85031 10.976 9.62109 11.1998 9.62109 11.527C9.62109 11.8467 9.85031 12.0897 10.1784 12.0897H10.8469V12.7858H10.1784C9.85031 12.7858 9.62109 13.0097 9.62109 13.3486ZM12.6511 14.6534V13.9017H15.9679C15.6011 14.3878 15.0072 14.6555 14.2457 14.6555L12.6511 14.6534ZM12.6511 12.7858V12.0897H16.3933C16.405 12.2027 16.405 12.3072 16.405 12.4415C16.405 12.5566 16.405 12.6813 16.3933 12.7858H12.6511ZM12.6511 10.976V10.2562H14.2479C15.0051 10.2562 15.5948 10.51 15.9541 10.976H12.6511Z" fill="black"/>
</svg>
