<svg width="28" height="28" viewBox="0 0 28 28" fill="none" xmlns="http://www.w3.org/2000/svg">
<path d="M6.84421 24.8972H21.0295C23.5685 24.8972 24.8737 23.5919 24.8737 21.0914V6.82921C24.8737 4.32656 23.5685 3.02344 21.0295 3.02344H6.84421C4.31484 3.02344 3 4.31695 3 6.82921V21.0914C3 23.6016 4.31484 24.8972 6.84421 24.8972ZM6.97733 22.6013C5.88772 22.6013 5.29592 22.0371 5.29592 20.8985V7.01999C5.29592 5.88139 5.88772 5.31936 6.97733 5.31936H20.8964C21.9764 5.31936 22.5778 5.88139 22.5778 7.01999V20.8985C22.5778 22.0371 21.9764 22.6013 20.8964 22.6013H6.97733Z" fill="black"/>
<path d="M8.14374 18.6312H12.7127C13.135 18.6312 13.4436 18.3267 13.4436 17.8542C13.4436 17.3784 13.135 17.1049 12.7127 17.1049H9.66108V17.0208L11.7217 14.621C12.5868 13.6153 13.1954 12.7884 13.1933 11.6503C13.1891 10.0509 12.0297 9.00372 10.2257 9.00372C8.85226 9.00372 7.6375 9.86481 7.34031 11.0454C7.30093 11.2083 7.27539 11.3435 7.27539 11.4968C7.27539 11.9461 7.54679 12.2505 7.98859 12.2505C8.36851 12.2505 8.56538 12.0323 8.71351 11.6723C8.97273 10.8862 9.51343 10.4906 10.2569 10.4906C11.1049 10.4906 11.6615 11.0196 11.6615 11.7918C11.6615 12.5029 11.0964 13.1044 10.5445 13.7501L7.69117 17.1002C7.46898 17.3543 7.3839 17.5852 7.3839 17.8596C7.3839 18.3321 7.68601 18.6312 8.14374 18.6312ZM17.8794 18.8817C19.8526 18.8817 21.1996 17.7202 21.1996 16.0495C21.1996 14.839 20.3884 13.8523 19.2512 13.7435V13.6669C20.1784 13.5091 20.9085 12.5681 20.9085 11.5129C20.9085 10.0256 19.6991 9.00372 17.9488 9.00372C16.4026 9.00372 15.2633 9.89552 14.965 10.9554C14.9247 11.1288 14.9183 11.2586 14.9183 11.4194C14.9183 11.8793 15.1972 12.1828 15.6306 12.1828C15.999 12.1828 16.2034 11.9911 16.3279 11.6287C16.5857 10.8843 17.1008 10.4779 17.9137 10.4779C18.7361 10.4779 19.3131 10.9835 19.3131 11.7279C19.3131 12.4842 18.753 13.0505 17.9061 13.0505H17.3767C16.9372 13.0505 16.6541 13.3516 16.6541 13.8094C16.6541 14.2329 16.9246 14.5533 17.3767 14.5533H17.9563C18.9494 14.5533 19.5777 15.1165 19.5777 15.9645C19.5777 16.7709 18.8896 17.3906 17.8975 17.3906C17.0751 17.3906 16.4908 16.9821 16.1849 16.2377C16.0316 15.8733 15.8113 15.6858 15.4663 15.6858C15.0594 15.6858 14.736 15.9893 14.736 16.4395C14.736 16.6099 14.7636 16.7398 14.803 16.8984C15.0993 17.9386 16.3384 18.8817 17.8794 18.8817Z" fill="black"/>
</svg>
