<svg width="28" height="28" viewBox="0 0 28 28" fill="none" xmlns="http://www.w3.org/2000/svg">
<path d="M14.105 26.21C20.7369 26.21 26.2121 20.7273 26.2121 14.105C26.2121 7.47312 20.7273 2 14.0954 2C7.47523 2 2 7.47312 2 14.105C2 20.7273 7.48484 26.21 14.105 26.21ZM14.105 23.8255C8.71085 23.8255 4.39412 19.4991 4.39412 14.105C4.39412 8.71085 8.70124 4.38452 14.0954 4.38452C19.4895 4.38452 23.8276 8.71085 23.8276 14.105C23.8276 19.4991 19.4991 23.8255 14.105 23.8255Z" fill="black"/>
<path d="M10.7301 19.4178C11.2651 19.4178 11.6162 19.0848 11.6162 18.5124V15.001C11.6162 13.0006 12.2924 11.8449 13.4408 11.5348V18.7437C13.4408 19.1473 13.7082 19.4115 14.0959 19.4115C14.4472 19.4115 14.7414 19.1537 14.7414 18.7437V11.5252C15.9015 11.814 16.6065 12.9718 16.6065 15.001V18.5124C16.6065 19.0805 16.9576 19.4178 17.4852 19.4178C18.0128 19.4178 18.3735 19.0848 18.3735 18.5124V14.9431C18.3735 11.9021 16.9471 10.1349 14.7414 9.86116V8.70476C14.7414 8.27562 14.4472 8.04663 14.0959 8.04663C13.7082 8.04663 13.4408 8.27983 13.4408 8.70476V9.87077C11.2373 10.1445 9.83008 11.9117 9.83008 14.9431V18.5124C9.83008 19.0805 10.2025 19.4178 10.7301 19.4178Z" fill="black"/>
</svg>
