<svg width="28" height="28" viewBox="0 0 28 28" fill="none" xmlns="http://www.w3.org/2000/svg">
<path d="M14.105 26.21C20.7369 26.21 26.2121 20.7273 26.2121 14.105C26.2121 7.47312 20.7273 2 14.0954 2C7.47523 2 2 7.47312 2 14.105C2 20.7273 7.48484 26.21 14.105 26.21ZM14.105 23.8255C8.71085 23.8255 4.39412 19.4991 4.39412 14.105C4.39412 8.71085 8.70124 4.38452 14.0954 4.38452C19.4895 4.38452 23.8276 8.71085 23.8276 14.105C23.8276 19.4991 19.4991 23.8255 14.105 23.8255Z" fill="black"/>
<path d="M10.2489 19.0419C12.2125 19.0419 13.569 17.8803 13.569 16.2097C13.569 14.9991 12.7483 14.0124 11.6111 13.9037V13.827C12.55 13.6693 13.2779 12.7283 13.2779 11.6732C13.2779 10.1858 12.0686 9.16394 10.3087 9.16394C8.76251 9.16394 7.63282 10.0557 7.33446 11.1156C7.29415 11.289 7.27821 11.4189 7.27821 11.5796C7.27821 12.0394 7.56672 12.343 7.99047 12.343C8.35891 12.343 8.56539 12.1512 8.69735 11.7889C8.95516 11.0446 9.47032 10.6382 10.2756 10.6382C11.1056 10.6382 11.6826 11.1437 11.6826 11.8881C11.6826 12.6444 11.1128 13.2106 10.2777 13.2106H9.73657C9.30672 13.2106 9.02571 13.5118 9.02571 13.9695C9.02571 14.393 9.29407 14.7134 9.73657 14.7134H10.3162C11.3092 14.7134 11.9397 15.2766 11.9397 16.1246C11.9397 16.9311 11.2591 17.5508 10.267 17.5508C9.44453 17.5508 8.85274 17.1423 8.55438 16.3979C8.39149 16.0334 8.18289 15.8459 7.82617 15.8459C7.42891 15.8459 7.10547 16.1495 7.10547 16.5997C7.10547 16.7701 7.12352 16.8999 7.1725 17.0586C7.46875 18.0987 8.69829 19.0419 10.2489 19.0419ZM18.129 19.0419C20.1386 19.0419 21.5078 17.8995 21.5078 16.2341C21.5078 15.0514 20.778 14.1251 19.5852 13.8673V13.7907C20.5916 13.5188 21.1626 12.7025 21.1626 11.6936C21.1626 10.1954 19.934 9.16394 18.1504 9.16394C16.3764 9.16394 15.1361 10.1954 15.1361 11.6936C15.1361 12.7025 15.707 13.4996 16.723 13.7907V13.8673C15.5111 14.1251 14.7908 15.061 14.7908 16.2437C14.7908 17.9187 16.1312 19.0419 18.129 19.0419ZM18.16 17.7071C17.1585 17.7071 16.4343 17.0555 16.4343 16.1213C16.4343 15.2063 17.1585 14.5334 18.16 14.5334C19.1807 14.5334 19.8836 15.1967 19.8836 16.1213C19.8836 17.0555 19.1615 17.7071 18.16 17.7071ZM18.1504 13.2481C17.3207 13.2481 16.7458 12.6573 16.7458 11.8532C16.7458 11.0469 17.3249 10.4924 18.1504 10.4924C18.9855 10.4924 19.5646 11.0469 19.5646 11.8532C19.5646 12.6573 18.978 13.2481 18.1504 13.2481Z" fill="black"/>
</svg>
