<svg width="28" height="28" viewBox="0 0 28 28" fill="none" xmlns="http://www.w3.org/2000/svg">
<path d="M6.84421 24.8972H21.0295C23.5685 24.8972 24.8737 23.5919 24.8737 21.0914V6.82921C24.8737 4.32656 23.5685 3.02344 21.0295 3.02344H6.84421C4.31484 3.02344 3 4.31695 3 6.82921V21.0914C3 23.6016 4.31484 24.8972 6.84421 24.8972Z" fill="black"/>
<path d="M7.98062 18.8152C7.50484 18.8152 7.18469 18.5023 7.18469 18.0096C7.18469 17.7171 7.27398 17.482 7.51 17.212L10.4634 13.748C11.0334 13.0746 11.6219 12.4594 11.6219 11.711C11.6219 10.9174 11.0514 10.3725 10.1704 10.3725C9.40351 10.3725 8.84898 10.7841 8.57804 11.5915C8.42781 11.9695 8.21921 12.1994 7.81914 12.1994C7.3593 12.1994 7.07617 11.8812 7.07617 11.4042C7.07617 11.2467 7.09961 11.1094 7.13898 10.9348C7.45 9.70851 8.71047 8.81976 10.1413 8.81976C12.0166 8.81976 13.2154 9.90632 13.2218 11.5652C13.2239 12.7491 12.6013 13.6153 11.6927 14.6529L9.56921 17.1347V17.2209H12.7188C13.1613 17.2209 13.4859 17.5083 13.4859 18.0042C13.4859 18.4969 13.1613 18.8152 12.7188 18.8152H7.98062ZM15.8414 18.8152C15.3635 18.8152 15.0337 18.5023 15.0337 18.0096C15.0337 17.7171 15.1326 17.482 15.3707 17.212L18.3241 13.748C18.892 13.0746 19.4805 12.4594 19.4805 11.711C19.4805 10.9174 18.9047 10.3725 18.0311 10.3725C17.2525 10.3725 16.7097 10.7841 16.4367 11.5915C16.2672 11.9695 16.0682 12.1994 15.6724 12.1994C15.22 12.1994 14.9348 11.8812 14.9348 11.4042C14.9348 11.2467 14.9582 11.1094 14.9901 10.9348C15.3107 9.70851 16.5691 8.81976 18 8.81976C19.8752 8.81976 21.0761 9.90632 21.0825 11.5652C21.0846 12.7491 20.4503 13.6153 19.5534 14.6529L17.4321 17.1347V17.2209H20.5816C21.022 17.2209 21.3445 17.5083 21.3445 18.0042C21.3445 18.4969 21.022 18.8152 20.5816 18.8152H15.8414Z" fill="white"/>
</svg>
