<svg width="28" height="28" viewBox="0 0 28 28" fill="none" xmlns="http://www.w3.org/2000/svg">
<path d="M6.84421 24.8972H21.0295C23.5685 24.8972 24.8737 23.5919 24.8737 21.0914V6.82921C24.8737 4.32656 23.5685 3.02344 21.0295 3.02344H6.84421C4.31484 3.02344 3 4.31695 3 6.82921V21.0914C3 23.6016 4.31484 24.8972 6.84421 24.8972ZM6.97733 22.6013C5.88772 22.6013 5.29592 22.0371 5.29592 20.8985V7.01999C5.29592 5.88139 5.88772 5.31936 6.97733 5.31936H20.8964C21.9764 5.31936 22.5778 5.88139 22.5778 7.01999V20.8985C22.5778 22.0371 21.9764 22.6013 20.8964 22.6013H6.97733Z" fill="black"/>
<path d="M10.541 18.4111C10.541 19.0324 10.9434 19.437 11.5659 19.437H12.1066V20.3564C12.1066 20.6836 12.3422 20.9095 12.6502 20.9095C12.9656 20.9095 13.2012 20.6836 13.2012 20.3564V19.437H13.9512V20.3564C13.9512 20.6836 14.1867 20.9095 14.5043 20.9095C14.8102 20.9095 15.0457 20.6836 15.0457 20.3564V19.4081C17.0248 19.2309 18.2016 18.1059 18.2016 16.377C18.2016 15.1034 17.4302 14.1253 16.241 13.7705C17.104 13.3612 17.707 12.4566 17.707 11.4816C17.707 10.0158 16.6877 8.98007 15.0457 8.78155V7.83023C15.0457 7.50515 14.808 7.27921 14.5043 7.27921C14.1867 7.27921 13.9512 7.50515 13.9512 7.83023V8.74101H13.2012V7.83023C13.2012 7.50515 12.9635 7.27921 12.6502 7.27921C12.3422 7.27921 12.1066 7.50515 12.1066 7.83023V8.74101H11.568C10.9573 8.74101 10.541 9.15186 10.541 9.78069V18.4111ZM12.3101 17.9266V14.6552H14.1354C15.6509 14.6552 16.4316 15.2044 16.4316 16.2867C16.4316 17.3562 15.6797 17.9074 14.2507 17.917L12.3101 17.9266ZM12.3101 13.1913V10.2375H14.1347C15.2768 10.2375 15.9422 10.744 15.9422 11.6536C15.9422 12.6539 15.1957 13.2105 13.8455 13.2009L12.3101 13.1913Z" fill="black"/>
</svg>
