<svg width="28" height="28" viewBox="0 0 28 28" fill="none" xmlns="http://www.w3.org/2000/svg">
<path d="M14.105 26.21C20.7369 26.21 26.2121 20.7273 26.2121 14.105C26.2121 7.47312 20.7273 2 14.0954 2C7.47523 2 2 7.47312 2 14.105C2 20.7273 7.48484 26.21 14.105 26.21ZM14.105 23.8255C8.71085 23.8255 4.39412 19.4991 4.39412 14.105C4.39412 8.71085 8.70124 4.38452 14.0954 4.38452C19.4895 4.38452 23.8276 8.71085 23.8276 14.105C23.8276 19.4991 19.4991 23.8255 14.105 23.8255Z" fill="black"/>
<path d="M8.46016 18.7913H13.0195C13.4514 18.7913 13.758 18.4869 13.758 18.0144C13.758 17.5386 13.4514 17.2651 13.0195 17.2651H9.97539V17.1809L12.036 14.7812C12.9032 13.7755 13.5119 12.9486 13.5077 11.8104C13.5034 10.2111 12.344 9.16388 10.5421 9.16388C9.16657 9.16388 7.9518 10.025 7.64501 11.2055C7.61524 11.3684 7.5918 11.5036 7.5918 11.6569C7.5918 12.1062 7.8611 12.4107 8.29329 12.4107C8.67531 12.4107 8.87219 12.1925 9.0182 11.8325C9.28914 11.0464 9.81813 10.6507 10.5733 10.6507C11.4213 10.6507 11.9758 11.1797 11.9758 11.952C11.9758 12.6631 11.4107 13.2645 10.8588 13.9102L8.00547 17.2604C7.7854 17.5145 7.6886 17.7453 7.6886 18.0198C7.6886 18.4923 8.00032 18.7913 8.46016 18.7913ZM16.7308 18.9341C17.1147 18.9341 17.3479 18.7287 17.5715 18.2818L20.9767 11.3321C21.1441 10.9697 21.1952 10.7377 21.1952 10.4811C21.1952 9.87098 20.7766 9.38559 20.0531 9.38559H15.6119C15.1607 9.38559 14.8427 9.67411 14.8427 10.1295C14.8427 10.5753 15.1692 10.8542 15.6119 10.8542H19.372V10.9416L16.0049 17.4941C15.8931 17.6909 15.8613 17.8463 15.8613 18.0859C15.8613 18.5881 16.237 18.9341 16.7308 18.9341Z" fill="black"/>
</svg>
