<svg width="28" height="28" viewBox="0 0 28 28" fill="none" xmlns="http://www.w3.org/2000/svg">
<path d="M6.84421 24.8972H21.0295C23.5685 24.8972 24.8737 23.5919 24.8737 21.0914V6.82921C24.8737 4.32656 23.5685 3.02344 21.0295 3.02344H6.84421C4.31484 3.02344 3 4.31695 3 6.82921V21.0914C3 23.6016 4.31484 24.8972 6.84421 24.8972ZM6.97733 22.6013C5.88772 22.6013 5.29592 22.0371 5.29592 20.8985V7.01999C5.29592 5.88139 5.88772 5.31936 6.97733 5.31936H20.8964C21.9764 5.31936 22.5778 5.88139 22.5778 7.01999V20.8985C22.5778 22.0371 21.9764 22.6013 20.8964 22.6013H6.97733Z" fill="black"/>
<path d="M10.7004 19.1545H17.3271C17.8939 19.1545 18.2853 18.8088 18.2853 18.2557C18.2853 17.693 17.9002 17.3557 17.3271 17.3557H12.5442V17.2535L17.5477 10.4573C17.8453 10.0798 17.9112 9.88405 17.9112 9.53226C17.9112 8.95148 17.4942 8.55469 16.8975 8.55469H10.5792C10.0062 8.55469 9.62109 8.89406 9.62109 9.44929C9.62109 10.012 10.0104 10.3556 10.5792 10.3556H15.0997V10.4536L10.0929 17.2498C9.79617 17.6552 9.69844 17.8763 9.69844 18.2058C9.69844 18.7652 10.1154 19.1545 10.7004 19.1545Z" fill="black"/>
</svg>
