<svg width="28" height="28" viewBox="0 0 28 28" fill="none" xmlns="http://www.w3.org/2000/svg">
<path d="M14.105 26.21C20.7369 26.21 26.2121 20.7273 26.2121 14.105C26.2121 7.47312 20.7273 2 14.0954 2C7.47523 2 2 7.47312 2 14.105C2 20.7273 7.48484 26.21 14.105 26.21Z" fill="black"/>
<path d="M14.1406 19.844C10.9055 19.844 8.83594 17.5737 8.83594 14.0185C8.83594 10.4729 10.9055 8.18567 14.1021 8.18567C16.381 8.18567 18.0244 9.27176 18.6125 10.7774C18.6933 10.9893 18.7423 11.1669 18.7423 11.3968C18.7423 11.9757 18.3614 12.3418 17.7509 12.3418C17.2536 12.3418 16.9897 12.1163 16.7651 11.7083C16.2992 10.651 15.4104 10.0581 14.1605 10.0581C12.3713 10.0581 11.1865 11.6476 11.1865 14.0185C11.1865 16.4075 12.383 18.0085 14.1914 18.0085C15.8562 18.0085 16.7316 17.1277 16.7316 15.8288V15.1522H14.8203C14.299 15.1522 13.9957 14.8051 13.9957 14.3647C13.9957 13.8976 14.2969 13.5751 14.8203 13.5751H17.8343C18.5717 13.5751 18.9964 14.0019 18.9964 14.7584V15.5246C18.9964 18.0472 17.1753 19.844 14.1406 19.844Z" fill="white"/>
</svg>
