<svg width="28" height="28" viewBox="0 0 28 28" fill="none" xmlns="http://www.w3.org/2000/svg">
<path d="M6.84421 24.8972H21.0295C23.5685 24.8972 24.8737 23.5919 24.8737 21.0914V6.82921C24.8737 4.32656 23.5685 3.02344 21.0295 3.02344H6.84421C4.31484 3.02344 3 4.31695 3 6.82921V21.0914C3 23.6016 4.31484 24.8972 6.84421 24.8972Z" fill="black"/>
<path d="M13.9676 19.6357C11.0853 19.6357 9.14258 17.9984 9.14258 15.4701V9.46939C9.14258 8.65682 9.56164 8.18127 10.2976 8.18127C11.0389 8.18127 11.4601 8.65893 11.4601 9.46939V15.2468C11.4601 16.7667 12.4594 17.7265 13.9676 17.7265C15.4737 17.7265 16.4656 16.7667 16.4656 15.2468V9.46939C16.4656 8.65893 16.8943 8.18127 17.6185 8.18127C18.3715 8.18127 18.7927 8.65682 18.7927 9.46939V15.4701C18.7927 17.9984 16.8479 19.6357 13.9676 19.6357Z" fill="white"/>
</svg>
