<svg width="28" height="28" viewBox="0 0 28 28" fill="none" xmlns="http://www.w3.org/2000/svg">
<path d="M6.84421 24.8972H21.0295C23.5685 24.8972 24.8737 23.5919 24.8737 21.0914V6.82921C24.8737 4.32656 23.5685 3.02344 21.0295 3.02344H6.84421C4.31484 3.02344 3 4.31695 3 6.82921V21.0914C3 23.6016 4.31484 24.8972 6.84421 24.8972Z" fill="black"/>
<path d="M11.5759 19.056C11.0616 19.056 10.7818 18.6897 10.7818 18.1914V16.9126H7.51601C6.83703 16.9126 6.40039 16.4943 6.40039 15.7991C6.40039 15.4246 6.48546 15.1087 6.67836 14.7104C7.39414 13.3616 8.48727 11.411 9.4161 9.83618C9.81759 9.11126 10.2892 8.80798 11.0757 8.80798C11.878 8.80798 12.3774 9.31352 12.3774 10.1052V15.4098H12.943C13.4028 15.4098 13.6775 15.7014 13.6775 16.1751C13.6775 16.6349 13.4028 16.9063 12.943 16.9063H12.3774V18.1914C12.3774 18.6993 12.088 19.056 11.5759 19.056ZM10.7818 15.4161V10.5667H10.7274C9.86023 12.0892 8.75632 14.1015 8.12913 15.3693V15.4161H10.7818ZM18.1477 19.0848C16.9163 19.0848 15.867 18.5971 15.2703 17.4104C14.8707 16.6499 14.6373 15.5823 14.6373 14.1754C14.6373 10.5991 16.104 8.80798 18.3737 8.80798C19.7195 8.80798 20.671 9.49329 20.9895 10.2703C21.0629 10.4554 21.1023 10.6066 21.1023 10.796C21.1023 11.2281 20.7906 11.5145 20.4254 11.5145C20.0783 11.5145 19.876 11.3601 19.6714 11.0744C19.3815 10.6499 18.9495 10.345 18.3151 10.345C17.0802 10.345 16.2219 11.646 16.2219 13.6874C16.2219 13.7819 16.224 13.8327 16.2261 13.889H16.3177C16.6086 13.1322 17.3624 12.452 18.586 12.452C20.0973 12.452 21.4604 13.5772 21.4604 15.5924C21.4604 17.7798 20.0954 19.0848 18.1477 19.0848ZM18.0669 17.6181C19.1185 17.6181 19.7776 16.8674 19.7776 15.6965C19.7776 14.5928 19.0972 13.8325 18.0765 13.8325C17.0516 13.8325 16.3499 14.6024 16.3499 15.6868C16.3499 16.8215 17.0612 17.6181 18.0669 17.6181Z" fill="white"/>
</svg>
