<svg width="28" height="28" viewBox="0 0 28 28" fill="none" xmlns="http://www.w3.org/2000/svg">
<path d="M6.84421 24.8972H21.0295C23.5685 24.8972 24.8737 23.5919 24.8737 21.0914V6.82921C24.8737 4.32656 23.5685 3.02344 21.0295 3.02344H6.84421C4.31484 3.02344 3 4.31695 3 6.82921V21.0914C3 23.6016 4.31484 24.8972 6.84421 24.8972Z" fill="black"/>
<path d="M9.53711 12.1781C9.53711 11.835 9.76844 11.609 10.1083 11.609H10.7896V9.47129C10.7896 8.87903 11.1491 8.50989 11.7414 8.50989H14.6763C16.7107 8.50989 18.1181 9.76309 18.3825 11.609H18.9557C19.3073 11.609 19.5269 11.835 19.5269 12.1781C19.5269 12.5095 19.3073 12.7664 18.9557 12.7664H18.4017C18.1832 14.6932 16.7247 16.0233 14.6425 16.0233H12.6723V18.9766C12.6723 19.5614 12.2809 19.9233 11.7437 19.9233C11.2002 19.9233 10.7896 19.5614 10.7896 18.9766V12.7664H10.1083C9.76844 12.7664 9.53711 12.5095 9.53711 12.1781ZM12.6819 14.4173L14.3235 14.4194C15.5275 14.4194 16.3186 13.8309 16.4955 12.7664H12.6819V14.4173ZM12.6819 11.609H16.4667C16.2567 10.635 15.4732 10.1146 14.3278 10.1146H12.6819V11.609Z" fill="white"/>
</svg>
