<svg width="28" height="28" viewBox="0 0 28 28" fill="none" xmlns="http://www.w3.org/2000/svg">
<path d="M14.105 26.21C20.7369 26.21 26.2121 20.7273 26.2121 14.105C26.2121 7.47312 20.7273 2 14.0954 2C7.47523 2 2 7.47312 2 14.105C2 20.7273 7.48484 26.21 14.105 26.21Z" fill="black"/>
<path d="M10.1188 19.2376C8.07836 19.2376 6.71875 17.3551 6.71875 14.1029C6.71875 10.8411 8.07836 8.96606 10.1188 8.96606C12.1647 8.96606 13.5337 10.8411 13.5337 14.1029C13.5337 17.3551 12.1647 19.2376 10.1188 19.2376ZM10.1273 17.5881C11.1524 17.5881 11.7871 16.3229 11.7871 14.1029C11.7871 11.8733 11.1428 10.6177 10.1273 10.6177C9.11922 10.6177 8.47492 11.8733 8.47492 14.1029C8.47492 16.3229 9.11922 17.5881 10.1273 17.5881ZM18.0808 19.2376C16.4866 19.2376 15.2092 18.2551 14.8895 17.1659C14.8481 17.0127 14.8225 16.8711 14.8225 16.6986C14.8225 16.2282 15.1619 15.9109 15.5847 15.9109C15.9456 15.9109 16.1702 16.1005 16.3373 16.4712C16.6549 17.2487 17.2551 17.6689 18.101 17.6689C19.1282 17.6689 19.8377 17.0354 19.8377 16.2076C19.8377 15.3244 19.1859 14.7474 18.1673 14.7474H17.5685C17.0962 14.7474 16.8215 14.4111 16.8215 13.9695C16.8215 13.482 17.1185 13.167 17.5685 13.167H18.1075C18.9895 13.167 19.5689 12.5848 19.5689 11.8072C19.5689 11.0372 18.9705 10.52 18.1246 10.52C17.2788 10.52 16.7594 10.9264 16.4877 11.7059C16.3537 12.0842 16.1334 12.278 15.749 12.278C15.3093 12.278 15.0049 11.9586 15.0049 11.4807C15.0049 11.3178 15.0133 11.1741 15.0632 10.9986C15.3754 9.90146 16.5466 8.96606 18.1598 8.96606C19.9738 8.96606 21.2481 10.0294 21.2481 11.5763C21.2481 12.6709 20.4904 13.6534 19.5142 13.8132V13.8919C20.6908 14.0103 21.551 15.0193 21.551 16.2927C21.551 18.0228 20.1391 19.2376 18.0808 19.2376Z" fill="white"/>
</svg>
