<svg width="28" height="28" viewBox="0 0 28 28" fill="none" xmlns="http://www.w3.org/2000/svg">
<path d="M14.105 26.21C20.7369 26.21 26.2121 20.7273 26.2121 14.105C26.2121 7.47312 20.7273 2 14.0954 2C7.47523 2 2 7.47312 2 14.105C2 20.7273 7.48484 26.21 14.105 26.21Z" fill="black"/>
<path d="M13.9641 19.7959C11.7737 19.7959 10.2835 18.8054 9.81617 17.6844C9.70015 17.4533 9.65234 17.233 9.65234 17.0201C9.65234 16.438 10.0491 16.0538 10.6536 16.0538C11.0998 16.0538 11.3851 16.2521 11.6584 16.6721C12.1456 17.5466 12.9443 17.9797 14.1045 17.9797C15.319 17.9797 16.2415 17.457 16.2415 16.5087C16.2415 15.7409 15.781 15.4198 14.364 15.0573L12.7264 14.6145C10.7881 14.1369 9.75523 13.2169 9.75523 11.6366C9.75523 9.63759 11.518 8.24329 14.0855 8.24329C16.1068 8.24329 17.6 9.13439 18.0854 10.377C18.1981 10.6049 18.2417 10.8369 18.2417 11.0251C18.2417 11.6234 17.8425 11.9427 17.2711 11.9427C16.7888 11.9427 16.512 11.7348 16.254 11.33C15.8122 10.4277 15.1243 10.0105 14.0257 10.0105C12.8686 10.0105 12.1189 10.5791 12.1189 11.473C12.1189 12.1522 12.5761 12.549 13.7489 12.8284L15.3071 13.2177C17.4324 13.7295 18.6 14.6602 18.6 16.3046C18.6 18.4454 16.7661 19.7959 13.9641 19.7959Z" fill="white"/>
</svg>
