<svg width="28" height="28" viewBox="0 0 28 28" fill="none" xmlns="http://www.w3.org/2000/svg">
<path d="M6.84421 24.8972H21.0295C23.5685 24.8972 24.8737 23.5919 24.8737 21.0914V6.82921C24.8737 4.32656 23.5685 3.02344 21.0295 3.02344H6.84421C4.31484 3.02344 3 4.31695 3 6.82921V21.0914C3 23.6016 4.31484 24.8972 6.84421 24.8972ZM6.97733 22.6013C5.88772 22.6013 5.29592 22.0371 5.29592 20.8985V7.01999C5.29592 5.88139 5.88772 5.31936 6.97733 5.31936H20.8964C21.9764 5.31936 22.5778 5.88139 22.5778 7.01999V20.8985C22.5778 22.0371 21.9764 22.6013 20.8964 22.6013H6.97733Z" fill="black"/>
<path d="M13.4048 19.406C15.7903 19.406 17.1211 18.1165 17.1211 15.8077V9.6628C17.1211 8.88538 16.717 8.39929 15.982 8.39929C15.2641 8.39929 14.8643 8.90249 14.8643 9.6628V15.7631C14.8643 16.8654 14.3384 17.4947 13.4543 17.4947C12.6682 17.4947 12.1498 17.1075 11.8884 16.4196C11.685 15.9047 11.3702 15.6729 10.86 15.6729C10.2452 15.675 9.82617 16.1016 9.82617 16.7025C9.82617 16.9165 9.86343 17.1112 9.92413 17.2997C10.3427 18.5754 11.6801 19.406 13.4048 19.406Z" fill="black"/>
</svg>
