<svg width="28" height="28" viewBox="0 0 28 28" fill="none" xmlns="http://www.w3.org/2000/svg">
<path d="M14.105 26.21C20.7369 26.21 26.2121 20.7273 26.2121 14.105C26.2121 7.47312 20.7273 2 14.0954 2C7.47523 2 2 7.47312 2 14.105C2 20.7273 7.48484 26.21 14.105 26.21ZM14.105 23.8255C8.71085 23.8255 4.39412 19.4991 4.39412 14.105C4.39412 8.71085 8.70124 4.38452 14.0954 4.38452C19.4895 4.38452 23.8276 8.71085 23.8276 14.105C23.8276 19.4991 19.4991 23.8255 14.105 23.8255Z" fill="black"/>
<path d="M10.1348 19.0419C12.0999 19.0419 13.4211 17.2243 13.4211 14.1029C13.4211 10.9794 12.0999 9.16391 10.1348 9.16391C8.16774 9.16391 6.86133 10.9794 6.86133 14.1029C6.86133 17.2243 8.16774 19.0419 10.1348 19.0419ZM10.1412 17.472C9.15867 17.472 8.53781 16.2516 8.53781 14.1029C8.53781 11.9541 9.15867 10.7337 10.1412 10.7337C11.1333 10.7337 11.7466 11.9541 11.7466 14.1029C11.7466 16.2516 11.1429 17.472 10.1412 17.472ZM18.0305 19.0419C19.9955 19.0419 21.3188 17.2243 21.3188 14.1029C21.3188 10.9794 19.9955 9.16391 18.0305 9.16391C16.0634 9.16391 14.7591 10.9794 14.7591 14.1029C14.7591 17.2243 16.0634 19.0419 18.0305 19.0419ZM18.039 17.472C17.0564 17.472 16.4335 16.2516 16.4335 14.1029C16.4335 11.9541 17.0564 10.7337 18.039 10.7337C19.029 10.7337 19.6423 11.9541 19.6423 14.1029C19.6423 16.2516 19.0407 17.472 18.039 17.472Z" fill="black"/>
</svg>
