<svg width="28" height="28" viewBox="0 0 28 28" fill="none" xmlns="http://www.w3.org/2000/svg">
<path d="M14.105 26.21C20.7369 26.21 26.2121 20.7273 26.2121 14.105C26.2121 7.47312 20.7273 2 14.0954 2C7.47523 2 2 7.47312 2 14.105C2 20.7273 7.48484 26.21 14.105 26.21Z" fill="black"/>
<path d="M10.0759 19.2376C8.0375 19.2376 6.67578 17.3455 6.67578 14.1029C6.67578 10.8507 8.0375 8.96606 10.0759 8.96606C12.1313 8.96606 13.5003 10.8507 13.5003 14.1029C13.5003 17.3455 12.1313 19.2376 10.0759 19.2376ZM10.0822 17.5881C11.1191 17.5881 11.7345 16.3325 11.7345 14.1029C11.7345 11.8733 11.1095 10.6177 10.0822 10.6177C9.07835 10.6177 8.44155 11.8733 8.44155 14.1029C8.44155 16.3325 9.07835 17.5881 10.0822 17.5881ZM18.3561 19.2493C17.1247 19.2493 16.0754 18.7595 15.4766 17.5707C15.0716 16.8102 14.8456 15.7426 14.8456 14.3356C14.8456 10.7593 16.3123 8.96606 18.582 8.96606C19.9299 8.96606 20.8794 9.65349 21.1883 10.4304C21.2712 10.6135 21.3106 10.7647 21.3106 10.9561C21.3106 11.3883 21.001 11.6747 20.6337 11.6747C20.2866 11.6747 20.0886 11.5203 19.8819 11.2346C19.5941 10.8101 19.1621 10.5052 18.5138 10.5052C17.2885 10.5052 16.4302 11.8041 16.4302 13.8477C16.4302 13.9421 16.4323 13.993 16.4344 14.0492H16.524C16.8169 13.2924 17.5824 12.6123 18.7944 12.6123C20.3077 12.6123 21.6709 13.7375 21.6709 15.7527C21.6709 17.9401 20.3037 19.2493 18.3561 19.2493ZM18.2848 17.7784C19.3269 17.7784 19.9859 17.0277 19.9859 15.8567C19.9859 14.753 19.2959 13.9927 18.2848 13.9927C17.2599 13.9927 16.5603 14.7626 16.5603 15.8471C16.5603 16.9817 17.2716 17.7784 18.2848 17.7784Z" fill="white"/>
</svg>
