<svg width="28" height="28" viewBox="0 0 28 28" fill="none" xmlns="http://www.w3.org/2000/svg">
<path d="M6.84421 24.8972H21.0295C23.5685 24.8972 24.8737 23.5919 24.8737 21.0914V6.82921C24.8737 4.32656 23.5685 3.02344 21.0295 3.02344H6.84421C4.31484 3.02344 3 4.31695 3 6.82921V21.0914C3 23.6016 4.31484 24.8972 6.84421 24.8972ZM6.97733 22.6013C5.88772 22.6013 5.29592 22.0371 5.29592 20.8985V7.01999C5.29592 5.88139 5.88772 5.31936 6.97733 5.31936H20.8964C21.9764 5.31936 22.5778 5.88139 22.5778 7.01999V20.8985C22.5778 22.0371 21.9764 22.6013 20.8964 22.6013H6.97733Z" fill="black"/>
<path d="M10.9343 18.8817C12.8979 18.8817 14.2545 17.7202 14.2545 16.0495C14.2545 14.839 13.4316 13.8523 12.2965 13.7435V13.6669C13.2333 13.5091 13.9634 12.5681 13.9634 11.5129C13.9634 10.0256 12.7519 9.00372 10.9941 9.00372C9.44578 9.00372 8.3182 9.89552 8.01774 10.9554C7.96992 11.1288 7.96149 11.2586 7.96149 11.4194C7.96149 11.8793 8.25211 12.1828 8.67375 12.1828C9.04219 12.1828 9.24867 11.9911 9.38062 11.6287C9.63844 10.8843 10.144 10.4779 10.9589 10.4779C11.7888 10.4779 12.3659 10.9835 12.3659 11.7279C12.3659 12.4842 11.7982 13.0505 10.9514 13.0505H10.422C9.99211 13.0505 9.70899 13.3516 9.70899 13.8094C9.70899 14.2329 9.97946 14.5533 10.422 14.5533H10.9995C11.9925 14.5533 12.623 15.1165 12.623 15.9645C12.623 16.7709 11.9445 17.3906 10.9524 17.3906C10.1203 17.3906 9.53601 16.9821 9.23015 16.2377C9.07476 15.8733 8.86617 15.6858 8.51156 15.6858C8.11219 15.6858 7.78125 15.9893 7.78125 16.4395C7.78125 16.6099 7.80891 16.7398 7.85789 16.8984C8.15414 17.9386 9.38367 18.8817 10.9343 18.8817ZM18.9249 18.7643C19.4292 18.7643 19.737 18.4439 19.737 17.9046V10.0338C19.737 9.45302 19.3793 9.06138 18.8007 9.06138C18.3971 9.06138 18.1407 9.18067 17.6893 9.51255L16.0493 10.6786C15.7674 10.9008 15.6183 11.1307 15.6183 11.4607C15.6183 11.8781 15.9612 12.2081 16.3306 12.2081C16.5582 12.2081 16.6943 12.1668 16.966 11.9369L18.0659 11.0955H18.1224V17.9046C18.1224 18.4439 18.4301 18.7643 18.9249 18.7643Z" fill="black"/>
</svg>
