<svg width="28" height="28" viewBox="0 0 28 28" fill="none" xmlns="http://www.w3.org/2000/svg">
<path d="M6.84421 24.8972H21.0295C23.5685 24.8972 24.8737 23.5919 24.8737 21.0914V6.82921C24.8737 4.32656 23.5685 3.02344 21.0295 3.02344H6.84421C4.31484 3.02344 3 4.31695 3 6.82921V21.0914C3 23.6016 4.31484 24.8972 6.84421 24.8972Z" fill="black"/>
<path d="M10.8089 18.9504C10.2919 18.9504 9.97031 18.6237 9.97031 18.0504V11.0072H9.90211L8.77663 11.872C8.49327 12.1083 8.35499 12.1495 8.11148 12.1495C7.72406 12.1495 7.36523 11.8036 7.36523 11.3723C7.36523 11.0243 7.5164 10.7902 7.8164 10.5541L9.51703 9.34453C9.98648 8.99461 10.2609 8.87531 10.6784 8.87531C11.2814 8.87531 11.6529 9.28289 11.6529 9.88804V18.0504C11.6529 18.6237 11.3313 18.9504 10.8089 18.9504ZM14.7907 18.8152C14.3128 18.8152 13.9851 18.5023 13.9851 18.0096C13.9851 17.7171 14.0819 17.482 14.318 17.212L17.2734 13.748C17.8338 13.0725 18.4319 12.4456 18.4319 11.711C18.4319 10.9153 17.8519 10.3725 16.9805 10.3725C16.204 10.3725 15.659 10.782 15.3785 11.5915C15.2283 11.9674 15.0176 12.1898 14.6196 12.1898C14.1694 12.1898 13.8745 11.8812 13.8745 11.4021C13.8745 11.2446 13.9097 11.0977 13.9394 10.9327C14.2601 9.70852 15.5205 8.81555 16.9493 8.81555C18.8245 8.81555 20.0255 9.89672 20.0318 11.5652C20.0339 12.7449 19.4093 13.6036 18.5027 14.6529L16.3697 17.1326V17.2209H19.5192C19.9713 17.2209 20.2959 17.5083 20.2959 18.0042C20.2959 18.4969 19.9713 18.8152 19.5192 18.8152H14.7907Z" fill="white"/>
</svg>
