<svg width="28" height="28" viewBox="0 0 28 28" fill="none" xmlns="http://www.w3.org/2000/svg">
<path d="M6.84421 24.8972H21.0295C23.5685 24.8972 24.8737 23.5919 24.8737 21.0914V6.82921C24.8737 4.32656 23.5685 3.02344 21.0295 3.02344H6.84421C4.31484 3.02344 3 4.31695 3 6.82921V21.0914C3 23.6016 4.31484 24.8972 6.84421 24.8972ZM6.97733 22.6013C5.88772 22.6013 5.29592 22.0371 5.29592 20.8985V7.01999C5.29592 5.88139 5.88772 5.31936 6.97733 5.31936H20.8964C21.9764 5.31936 22.5778 5.88139 22.5778 7.01999V20.8985C22.5778 22.0371 21.9764 22.6013 20.8964 22.6013H6.97733Z" fill="black"/>
<path d="M13.955 19.7775C14.4857 19.7775 14.8283 19.418 14.8283 18.8564V17.4166H16.9679C17.2993 17.4166 17.5157 17.1715 17.5157 16.856C17.5157 16.5384 17.2993 16.3029 16.9679 16.3029H14.8283V15.4322H16.9679C17.2993 15.4322 17.5157 15.1966 17.5157 14.8791C17.5157 14.5519 17.2993 14.3163 16.9679 14.3163H15.3737L18.1011 9.90933C18.2235 9.71362 18.283 9.53714 18.283 9.32761C18.283 8.86074 17.8958 8.50121 17.3938 8.50121C17.0535 8.50121 16.7961 8.64793 16.6004 8.99339L13.9572 13.5377L11.3139 8.988C11.1161 8.62988 10.8672 8.49371 10.5184 8.49371C10.0101 8.49371 9.625 8.85746 9.625 9.32644C9.625 9.53175 9.68031 9.71034 9.79305 9.90394L12.5301 14.3163H10.971C10.6396 14.3163 10.4233 14.5519 10.4233 14.8791C10.4233 15.1966 10.6492 15.4322 10.971 15.4322H13.0776V16.3029H10.971C10.6396 16.3029 10.4233 16.5384 10.4233 16.856C10.4233 17.1715 10.6492 17.4166 10.971 17.4166H13.0776V18.8489C13.0776 19.4105 13.4244 19.7775 13.955 19.7775Z" fill="black"/>
</svg>
