<svg width="28" height="28" viewBox="0 0 28 28" fill="none" xmlns="http://www.w3.org/2000/svg">
<path d="M6.84421 24.8972H21.0295C23.5685 24.8972 24.8737 23.5919 24.8737 21.0914V6.82921C24.8737 4.32656 23.5685 3.02344 21.0295 3.02344H6.84421C4.31484 3.02344 3 4.31695 3 6.82921V21.0914C3 23.6016 4.31484 24.8972 6.84421 24.8972ZM6.97733 22.6013C5.88772 22.6013 5.29592 22.0371 5.29592 20.8985V7.01999C5.29592 5.88139 5.88772 5.31936 6.97733 5.31936H20.8964C21.9764 5.31936 22.5778 5.88139 22.5778 7.01999V20.8985C22.5778 22.0371 21.9764 22.6013 20.8964 22.6013H6.97733Z" fill="black"/>
<path d="M10.1407 18.8817C12.1036 18.8817 13.4269 17.0641 13.4269 13.9427C13.4269 10.8192 12.1036 9.00375 10.1407 9.00375C8.17149 9.00375 6.86719 10.8192 6.86719 13.9427C6.86719 17.0641 8.17149 18.8817 10.1407 18.8817ZM10.147 17.3119C9.16453 17.3119 8.54367 16.0915 8.54367 13.9427C8.54367 11.794 9.16453 10.5736 10.147 10.5736C11.1391 10.5736 11.7525 11.794 11.7525 13.9427C11.7525 16.0915 11.1488 17.3119 10.147 17.3119ZM17.6918 18.8817C19.9838 18.8817 21.2262 17.0512 21.2262 13.6251C21.2262 10.654 20.0175 9.00375 17.8186 9.00375C15.8921 9.00375 14.6199 10.2942 14.6199 12.3293C14.6199 14.269 15.9087 15.3855 17.4228 15.3855C18.6232 15.3855 19.3512 14.749 19.6432 13.969H19.7093C19.7264 16.069 18.9476 17.4202 17.6663 17.4202C17.0616 17.4202 16.5816 17.1129 16.3151 16.65C16.1128 16.3282 15.8754 16.2014 15.5771 16.2014C15.1737 16.2014 14.8969 16.5037 14.8969 16.9329C14.8969 17.0691 14.9363 17.2416 14.9958 17.4012C15.2119 18.033 16.1316 18.8817 17.6918 18.8817ZM17.9061 14.0688C16.9109 14.0688 16.2326 13.3148 16.2326 12.2484C16.2326 11.1319 16.8917 10.3971 17.9061 10.3971C18.8745 10.3971 19.572 11.1682 19.572 12.2677C19.572 13.3148 18.8862 14.0688 17.9061 14.0688Z" fill="black"/>
</svg>
