<svg width="28" height="28" viewBox="0 0 28 28" fill="none" xmlns="http://www.w3.org/2000/svg">
<path d="M14.105 26.21C20.7369 26.21 26.2121 20.7273 26.2121 14.105C26.2121 7.47312 20.7273 2 14.0954 2C7.47523 2 2 7.47312 2 14.105C2 20.7273 7.48484 26.21 14.105 26.21ZM14.105 23.8255C8.71085 23.8255 4.39412 19.4991 4.39412 14.105C4.39412 8.71085 8.70124 4.38452 14.0954 4.38452C19.4895 4.38452 23.8276 8.71085 23.8276 14.105C23.8276 19.4991 19.4991 23.8255 14.105 23.8255Z" fill="black"/>
<path d="M12.3626 19.0227C12.8684 19.0227 13.144 18.6798 13.144 18.1995V16.9517H13.6861C14.1279 16.9517 14.3984 16.6941 14.3984 16.2502C14.3984 15.7967 14.1183 15.5211 13.6861 15.5211H13.144V10.3996C13.144 9.63972 12.6509 9.16394 11.8826 9.16394C11.1417 9.16394 10.6978 9.45128 10.2984 10.1443C9.4186 11.6584 8.3489 13.5495 7.64695 14.8536C7.46578 15.2338 7.38281 15.5337 7.38281 15.8902C7.38281 16.5556 7.80562 16.9559 8.46023 16.9559H11.6142V18.1995C11.6142 18.6702 11.8781 19.0227 12.3626 19.0227ZM11.6142 15.5274H9.03187V15.4805C9.64734 14.2618 10.7257 12.3048 11.5502 10.8451H11.6142V15.5274ZM18.7374 18.9245C19.2418 18.9245 19.5474 18.6041 19.5474 18.0648V10.194C19.5474 9.61323 19.1822 9.22159 18.6111 9.22159C18.2096 9.22159 17.9532 9.34089 17.5018 9.67276L15.8618 10.8388C15.5778 11.061 15.4308 11.2909 15.4308 11.6209C15.4308 12.0383 15.7716 12.3683 16.1431 12.3683C16.3686 12.3683 16.4972 12.327 16.7785 12.0971L17.8688 11.2557H17.9349V18.0648C17.9349 18.6041 18.2405 18.9245 18.7374 18.9245Z" fill="black"/>
</svg>
