<svg width="28" height="28" viewBox="0 0 28 28" fill="none" xmlns="http://www.w3.org/2000/svg">
<path d="M14.105 26.21C20.7369 26.21 26.2121 20.7273 26.2121 14.105C26.2121 7.47312 20.7273 2 14.0954 2C7.47523 2 2 7.47312 2 14.105C2 20.7273 7.48484 26.21 14.105 26.21ZM14.105 23.8255C8.71085 23.8255 4.39412 19.4991 4.39412 14.105C4.39412 8.71085 8.70124 4.38452 14.0954 4.38452C19.4895 4.38452 23.8276 8.71085 23.8276 14.105C23.8276 19.4991 19.4991 23.8255 14.105 23.8255Z" fill="black"/>
<path d="M10.3579 19.595C10.8789 19.595 11.2363 19.3325 11.4205 18.6784L12.1432 16.5451H16.0495L16.7721 18.6784C16.9563 19.3229 17.302 19.595 17.8326 19.595C18.4601 19.595 18.8665 19.2024 18.8665 18.6219C18.8665 18.4175 18.8154 18.2113 18.7165 17.9028L15.7061 9.68588C15.4307 8.88878 14.8884 8.49011 14.0793 8.49011C13.2862 8.49011 12.764 8.88667 12.4748 9.68588L9.47617 17.9028C9.36766 18.2113 9.32617 18.4175 9.32617 18.6123C9.32617 19.212 9.72086 19.595 10.3579 19.595ZM12.6309 14.9258L14.0271 10.686H14.156L15.5501 14.9258H12.6309Z" fill="black"/>
</svg>
