<svg width="28" height="28" viewBox="0 0 28 28" fill="none" xmlns="http://www.w3.org/2000/svg">
<path d="M6.84421 24.8972H21.0295C23.5685 24.8972 24.8737 23.5919 24.8737 21.0914V6.82921C24.8737 4.32656 23.5685 3.02344 21.0295 3.02344H6.84421C4.31484 3.02344 3 4.31695 3 6.82921V21.0914C3 23.6016 4.31484 24.8972 6.84421 24.8972Z" fill="black"/>
<path d="M9.945 19.0774C7.89703 19.0774 6.54492 17.1853 6.54492 13.9427C6.54492 10.6905 7.89703 8.80594 9.945 8.80594C11.9909 8.80594 13.3619 10.6905 13.3619 13.9427C13.3619 17.1853 11.9909 19.0774 9.945 19.0774ZM9.95344 17.4279C10.9786 17.4279 11.5941 16.1723 11.5941 13.9427C11.5941 11.7131 10.969 10.4576 9.95344 10.4576C8.94 10.4576 8.30109 11.7131 8.30109 13.9427C8.30109 16.1723 8.94 17.4279 9.95344 17.4279ZM18.2177 19.0891C16.9863 19.0891 15.937 18.5993 15.3382 17.4105C14.9311 16.65 14.7052 15.5824 14.7052 14.1755C14.7052 10.5991 16.174 8.80594 18.4437 8.80594C19.7895 8.80594 20.7389 9.49336 21.0499 10.2703C21.1329 10.4534 21.1723 10.6045 21.1723 10.796C21.1723 11.2282 20.8627 11.5146 20.5029 11.5146C20.1483 11.5146 19.9481 11.3602 19.751 11.0744C19.4536 10.65 19.0216 10.3451 18.3734 10.3451C17.148 10.3451 16.2994 11.644 16.2994 13.6875C16.2994 13.782 16.3036 13.8328 16.3057 13.8891H16.3835C16.6765 13.1323 17.4419 12.4521 18.6539 12.4521C20.1673 12.4521 21.5421 13.5773 21.5421 15.5925C21.5421 17.7799 20.1654 19.0891 18.2177 19.0891ZM18.1465 17.6182C19.1864 17.6182 19.8572 16.8675 19.8572 15.6966C19.8572 14.5929 19.1576 13.8326 18.1465 13.8326C17.1216 13.8326 16.4198 14.6025 16.4198 15.6869C16.4198 16.8216 17.1312 17.6182 18.1465 17.6182Z" fill="white"/>
</svg>
