<svg width="28" height="28" viewBox="0 0 28 28" fill="none" xmlns="http://www.w3.org/2000/svg">
<path d="M14.105 26.21C20.7369 26.21 26.2121 20.7273 26.2121 14.105C26.2121 7.47312 20.7273 2 14.0954 2C7.47523 2 2 7.47312 2 14.105C2 20.7273 7.48484 26.21 14.105 26.21Z" fill="black"/>
<path d="M10.5705 19.688C9.95359 19.688 9.50781 19.2636 9.50781 18.6903C9.50781 18.402 9.58539 18.1895 9.78203 17.9141L12.6646 13.963L9.93039 10.2212C9.6932 9.90734 9.61562 9.69476 9.61562 9.38726C9.61562 8.80227 10.102 8.34149 10.7188 8.34149C11.2007 8.34149 11.4709 8.51914 11.8133 9.01344L14.1688 12.4679H14.2401L16.552 9.02515C16.8646 8.52547 17.1487 8.34149 17.606 8.34149C18.2228 8.34149 18.6803 8.77344 18.6803 9.34883C18.6803 9.61578 18.6027 9.85718 18.3848 10.1326L15.5235 14.011L18.3656 17.8756C18.5718 18.1414 18.6611 18.3615 18.6611 18.6498C18.6611 19.2636 18.194 19.688 17.5483 19.688C17.091 19.688 16.8241 19.5137 16.473 18.9948L14.1034 15.5499H14.0418L11.6458 18.9948C11.2745 19.5179 11.0331 19.688 10.5705 19.688Z" fill="white"/>
</svg>
