<svg width="28" height="28" viewBox="0 0 28 28" fill="none" xmlns="http://www.w3.org/2000/svg">
<path d="M6.84421 24.8972H21.0295C23.5685 24.8972 24.8737 23.5919 24.8737 21.0914V6.82921C24.8737 4.32656 23.5685 3.02344 21.0295 3.02344H6.84421C4.31484 3.02344 3 4.31695 3 6.82921V21.0914C3 23.6016 4.31484 24.8972 6.84421 24.8972Z" fill="black"/>
<path d="M10.0429 18.9408C8.48499 18.9408 7.22687 17.9871 6.92851 16.9364C6.87952 16.7735 6.85938 16.6416 6.85938 16.4691C6.85938 16.0083 7.18913 15.7005 7.60444 15.7005C7.95578 15.7005 8.17819 15.8902 8.33569 16.2609C8.64577 17.0095 9.23429 17.4202 10.0609 17.4202C11.0573 17.4202 11.74 16.7963 11.74 15.9877C11.74 15.1334 11.117 14.568 10.108 14.568H9.53804C9.07538 14.568 8.8007 14.2413 8.8007 13.8094C8.8007 13.3411 9.09015 13.0357 9.53804 13.0357H10.0696C10.911 13.0357 11.4808 12.4653 11.4808 11.7068C11.4808 10.9561 10.9016 10.4484 10.075 10.4484C9.25797 10.4484 8.74069 10.8549 8.47866 11.6035C8.34249 11.9721 8.1414 12.166 7.76874 12.166C7.32906 12.166 7.03421 11.8561 7.03421 11.3899C7.03421 11.2249 7.05016 11.093 7.09258 10.9174C7.39516 9.84915 8.53539 8.9447 10.1123 8.9447C11.8837 8.9447 13.11 9.97923 13.11 11.4856C13.11 12.5513 12.3714 13.5049 11.4337 13.6627V13.7414C12.5835 13.8502 13.4032 14.8495 13.4032 16.0727C13.4032 17.7644 12.0414 18.9408 10.0429 18.9408ZM17.7389 18.9408C16.1618 18.9408 15.2219 18.0858 15.0133 17.4455C14.9517 17.2837 14.9006 17.1049 14.9006 16.9687C14.9006 16.5312 15.1816 16.2225 15.5955 16.2225C15.8981 16.2225 16.1472 16.3535 16.3537 16.6774C16.6223 17.1424 17.0948 17.4518 17.7154 17.4518C18.9998 17.4518 19.7882 16.0838 19.7711 13.9711H19.705C19.4013 14.7616 18.6628 15.4024 17.4635 15.4024C15.9325 15.4024 14.6311 14.2711 14.6311 12.3103C14.6311 10.2499 15.918 8.9447 17.8699 8.9447C20.0887 8.9447 21.31 10.616 21.31 13.623C21.31 17.085 20.0604 18.9408 17.7389 18.9408ZM17.9456 14.0625C18.9396 14.0625 19.6317 13.3022 19.6317 12.2466C19.6317 11.1408 18.93 10.3634 17.9552 10.3634C16.9366 10.3634 16.2733 11.1045 16.2733 12.2274C16.2733 13.3022 16.9462 14.0625 17.9456 14.0625Z" fill="white"/>
</svg>
