<svg width="28" height="28" viewBox="0 0 28 28" fill="none" xmlns="http://www.w3.org/2000/svg">
<path d="M14.105 26.21C20.7369 26.21 26.2121 20.7273 26.2121 14.105C26.2121 7.47312 20.7273 2 14.0954 2C7.47523 2 2 7.47312 2 14.105C2 20.7273 7.48484 26.21 14.105 26.21ZM14.105 23.8255C8.71085 23.8255 4.39412 19.4991 4.39412 14.105C4.39412 8.71085 8.70124 4.38452 14.0954 4.38452C19.4895 4.38452 23.8276 8.71085 23.8276 14.105C23.8276 19.4991 19.4991 23.8255 14.105 23.8255Z" fill="black"/>
<path d="M10.1583 19.0419C12.1211 19.0419 13.4444 17.2243 13.4444 14.1029C13.4444 10.9794 12.1211 9.16391 10.1583 9.16391C8.18907 9.16391 6.88477 10.9794 6.88477 14.1029C6.88477 17.2243 8.18907 19.0419 10.1583 19.0419ZM10.1646 17.472C9.18211 17.472 8.55914 16.2516 8.55914 14.1029C8.55914 11.9541 9.18211 10.7337 10.1646 10.7337C11.1471 10.7337 11.7701 11.9541 11.7701 14.1029C11.7701 16.2516 11.1567 17.472 10.1646 17.472ZM19.5752 19.0227C20.081 19.0227 20.3566 18.6798 20.3566 18.1995V16.9517H20.8987C21.3405 16.9517 21.611 16.6941 21.611 16.2502C21.611 15.7967 21.3309 15.5211 20.8987 15.5211H20.3566V10.3995C20.3566 9.63969 19.8635 9.16391 19.0952 9.16391C18.3544 9.16391 17.9083 9.45125 17.5111 10.1443C16.6291 11.6584 15.5615 13.5495 14.8596 14.8536C14.6784 15.2338 14.5954 15.5337 14.5954 15.8902C14.5954 16.5556 15.0161 16.9559 15.6729 16.9559H18.8247V18.1995C18.8247 18.6702 19.0908 19.0227 19.5752 19.0227ZM18.8247 15.5274H16.2445V15.4805C16.86 14.2618 17.9383 12.3048 18.7629 10.8451H18.8247V15.5274Z" fill="black"/>
</svg>
