<svg width="28" height="28" viewBox="0 0 28 28" fill="none" xmlns="http://www.w3.org/2000/svg">
<path d="M14.105 26.21C20.7369 26.21 26.2121 20.7273 26.2121 14.105C26.2121 7.47312 20.7273 2 14.0954 2C7.47523 2 2 7.47312 2 14.105C2 20.7273 7.48484 26.21 14.105 26.21Z" fill="black"/>
<path d="M9.72266 12.2581C9.72266 9.95842 11.498 8.34686 14.124 8.34686C16.7689 8.34686 18.5358 9.96381 18.5358 12.3814C18.5358 13.7762 17.9853 14.9961 16.8519 16.5097C16.2917 17.2555 15.4695 18.3261 14.8915 19.0437C14.5041 19.5259 14.2512 19.8493 13.6866 19.8493C13.0742 19.8493 12.6861 19.426 12.6861 18.9826C12.6861 18.6807 12.8136 18.4159 13.0339 18.1667C13.6559 17.4059 14.3516 16.5737 14.9352 15.8279C15.1984 15.5241 15.3847 15.2621 15.5007 15.08H15.3324C14.9223 15.4955 14.1059 15.7578 13.3184 15.7578C11.2452 15.7578 9.72266 14.2791 9.72266 12.2581ZM11.8091 12.1625C11.8091 13.3217 12.7986 14.1685 14.124 14.1685C15.444 14.1685 16.4314 13.3313 16.4314 12.1625C16.4314 11.0108 15.4344 10.1447 14.1144 10.1447C12.7986 10.1447 11.8091 11.0012 11.8091 12.1625Z" fill="white"/>
</svg>
