<svg width="28" height="28" viewBox="0 0 28 28" fill="none" xmlns="http://www.w3.org/2000/svg">
<path d="M14.105 26.21C20.7369 26.21 26.2121 20.7273 26.2121 14.105C26.2121 7.47312 20.7273 2 14.0954 2C7.47523 2 2 7.47312 2 14.105C2 20.7273 7.48484 26.21 14.105 26.21ZM14.105 23.8255C8.71085 23.8255 4.39412 19.4991 4.39412 14.105C4.39412 8.71085 8.70124 4.38452 14.0954 4.38452C19.4895 4.38452 23.8276 8.71085 23.8276 14.105C23.8276 19.4991 19.4991 23.8255 14.105 23.8255Z" fill="black"/>
<path d="M14.0845 19.6409C16.6247 19.6409 18.3309 17.4343 18.3309 14.1029C18.3309 10.7694 16.6247 8.56484 14.0845 8.56484C11.5348 8.56484 9.84961 10.7694 9.84961 14.1029C9.84961 17.4343 11.5348 19.6409 14.0845 19.6409ZM14.0951 17.8878C12.8323 17.8878 11.9897 16.4445 11.9897 14.1029C11.9897 11.7612 12.8323 10.318 14.0951 10.318C15.3462 10.318 16.2005 11.7612 16.2005 14.1029C16.2005 16.4445 15.3462 17.8878 14.0951 17.8878Z" fill="black"/>
</svg>
