<svg width="28" height="28" viewBox="0 0 28 28" fill="none" xmlns="http://www.w3.org/2000/svg">
<path d="M14.105 26.21C20.7369 26.21 26.2121 20.7273 26.2121 14.105C26.2121 7.47312 20.7273 2 14.0954 2C7.47523 2 2 7.47312 2 14.105C2 20.7273 7.48484 26.21 14.105 26.21Z" fill="black"/>
<path d="M10.2125 19.1009C8.645 19.1009 7.4007 18.1473 7.10234 17.0966C7.04914 16.9337 7.0332 16.8017 7.0332 16.6292C7.0332 16.1684 7.36296 15.8607 7.76445 15.8607C8.12749 15.8607 8.34241 16.0503 8.50952 16.4211C8.80788 17.1697 9.40601 17.5803 10.2327 17.5803C11.2269 17.5803 11.9117 16.9564 11.9117 16.1478C11.9117 15.2935 11.277 14.7282 10.2798 14.7282H9.70015C9.24922 14.7282 8.97242 14.4015 8.97242 13.9695C8.97242 13.5012 9.26187 13.1959 9.70015 13.1959H10.2392C11.0806 13.1959 11.6525 12.6254 11.6525 11.867C11.6525 11.1163 11.0734 10.6086 10.2371 10.6086C9.42968 10.6086 8.91031 11.015 8.65038 11.7636C8.51632 12.1323 8.30351 12.3261 7.93086 12.3261C7.50078 12.3261 7.20594 12.0162 7.20594 11.5501C7.20594 11.3851 7.22398 11.2531 7.2664 11.0776C7.56687 10.0093 8.70922 9.10486 10.2723 9.10486C12.0575 9.10486 13.2816 10.1394 13.2816 11.6457C13.2816 12.7114 12.5452 13.6651 11.5979 13.8228V13.9016C12.7456 14.0103 13.5748 15.0097 13.5748 16.2329C13.5748 17.9246 12.2035 19.1009 10.2125 19.1009ZM18.1876 19.1009C16.1623 19.1009 14.8051 17.963 14.8051 16.269C14.8051 15.0694 15.5359 14.1251 16.7605 13.8652V13.7865C15.7339 13.4954 15.1566 12.6877 15.1566 11.6682C15.1566 10.149 16.4096 9.10486 18.2068 9.10486C20.0115 9.10486 21.2569 10.149 21.2569 11.6682C21.2569 12.6877 20.6797 13.5146 19.6627 13.7865V13.8652C20.8681 14.1251 21.6064 15.0598 21.6064 16.2594C21.6064 17.9438 20.2203 19.1009 18.1876 19.1009ZM18.2164 17.7409C19.2221 17.7409 19.9505 17.0851 19.9505 16.1424C19.9505 15.2136 19.2434 14.5461 18.2164 14.5461C17.2107 14.5461 16.4823 15.2232 16.4823 16.1424C16.4823 17.0851 17.2107 17.7409 18.2164 17.7409ZM18.2068 13.2312C19.0407 13.2312 19.6316 12.6362 19.6316 11.8278C19.6316 11.0173 19.0461 10.4586 18.2068 10.4586C17.375 10.4586 16.7916 11.0173 16.7916 11.8278C16.7916 12.6362 17.3729 13.2312 18.2068 13.2312Z" fill="white"/>
</svg>
