<svg width="28" height="28" viewBox="0 0 28 28" fill="none" xmlns="http://www.w3.org/2000/svg">
<path d="M14.105 26.21C20.7369 26.21 26.2121 20.7273 26.2121 14.105C26.2121 7.47312 20.7273 2 14.0954 2C7.47523 2 2 7.47312 2 14.105C2 20.7273 7.48484 26.21 14.105 26.21ZM14.105 23.8255C8.71085 23.8255 4.39412 19.4991 4.39412 14.105C4.39412 8.71085 8.70124 4.38452 14.0954 4.38452C19.4895 4.38452 23.8276 8.71085 23.8276 14.105C23.8276 19.4991 19.4991 23.8255 14.105 23.8255Z" fill="black"/>
<path d="M11.0296 19.4321C11.7297 19.4321 12.1391 18.9788 12.1391 18.2234V16.1487L13.4528 14.7629L16.5604 18.8907C16.8411 19.2725 17.1189 19.4321 17.5103 19.4321C18.1241 19.4321 18.5687 18.9959 18.5687 18.414C18.5687 18.1353 18.4728 17.8733 18.2675 17.6021L15.0664 13.385L18.0074 10.3018C18.2521 10.0348 18.3425 9.81873 18.3425 9.51663C18.3425 9.00921 17.8958 8.59741 17.3331 8.59741C16.9789 8.59741 16.7439 8.72608 16.4343 9.06733L12.2157 13.4956H12.1391V9.82506C12.1391 9.05913 11.7381 8.59741 11.0296 8.59741C10.3478 8.59741 9.94141 9.05702 9.94141 9.82506V18.2023C9.94141 18.9725 10.3478 19.4321 11.0296 19.4321Z" fill="black"/>
</svg>
