<svg width="28" height="28" viewBox="0 0 28 28" fill="none" xmlns="http://www.w3.org/2000/svg">
<path d="M14.105 26.21C20.7369 26.21 26.2121 20.7273 26.2121 14.105C26.2121 7.47312 20.7273 2 14.0954 2C7.47523 2 2 7.47312 2 14.105C2 20.7273 7.48484 26.21 14.105 26.21ZM14.105 23.8255C8.71085 23.8255 4.39412 19.4991 4.39412 14.105C4.39412 8.71085 8.70124 4.38452 14.0954 4.38452C19.4895 4.38452 23.8276 8.71085 23.8276 14.105C23.8276 19.4991 19.4991 23.8255 14.105 23.8255Z" fill="black"/>
<path d="M10.537 19.0419C12.502 19.0419 13.8253 17.2243 13.8253 14.1029C13.8253 10.9794 12.502 9.16391 10.537 9.16391C8.56992 9.16391 7.26562 10.9794 7.26562 14.1029C7.26562 17.2243 8.56992 19.0419 10.537 19.0419ZM10.5455 17.472C9.56297 17.472 8.93999 16.2516 8.93999 14.1029C8.93999 11.9541 9.56297 10.7337 10.5455 10.7337C11.528 10.7337 12.1488 11.9541 12.1488 14.1029C12.1488 16.2516 11.5376 17.472 10.5455 17.472ZM16.7105 18.9341C17.0923 18.9341 17.3255 18.7287 17.5491 18.2818L20.9564 11.3321C21.1238 10.9698 21.1749 10.7377 21.1749 10.4811C21.1749 9.87101 20.7542 9.38562 20.0328 9.38562H15.5991C15.1404 9.38562 14.8202 9.67414 14.8202 10.1295C14.8202 10.5753 15.1488 10.8542 15.5991 10.8542H19.3517V10.9416L15.9846 17.4941C15.8824 17.6909 15.8409 17.8463 15.8409 18.0859C15.8409 18.5881 16.2166 18.9341 16.7105 18.9341Z" fill="black"/>
</svg>
