<svg width="28" height="28" viewBox="0 0 28 28" fill="none" xmlns="http://www.w3.org/2000/svg">
<path d="M6.84421 24.8972H21.0295C23.5685 24.8972 24.8737 23.5919 24.8737 21.0914V6.82921C24.8737 4.32656 23.5685 3.02344 21.0295 3.02344H6.84421C4.31484 3.02344 3 4.31695 3 6.82921V21.0914C3 23.6016 4.31484 24.8972 6.84421 24.8972ZM6.97733 22.6013C5.88772 22.6013 5.29592 22.0371 5.29592 20.8985V7.01999C5.29592 5.88139 5.88772 5.31936 6.97733 5.31936H20.8964C21.9764 5.31936 22.5778 5.88139 22.5778 7.01999V20.8985C22.5778 22.0371 21.9764 22.6013 20.8964 22.6013H6.97733Z" fill="black"/>
<path d="M11.1888 19.4866C13.0544 19.4866 14.0662 18.5651 14.389 16.5881L14.7462 14.3564H17.0848C17.5085 14.3564 17.7588 14.0934 17.7588 13.7175C17.7588 13.3181 17.5085 13.0498 17.0848 13.0498H14.958L15.2098 11.4584C15.3867 10.3955 15.8482 9.93609 16.8204 9.93609C17.1403 9.93609 17.283 9.96702 17.4642 9.99585C17.5781 10.0151 17.6782 10.0226 17.8146 10.0184C18.2407 9.99937 18.4952 9.72351 18.4952 9.33609C18.4952 9.00375 18.3119 8.7375 17.9283 8.58211C17.6344 8.45133 17.2127 8.38336 16.6931 8.38336C14.8296 8.38336 13.8157 9.31664 13.493 11.2915L13.2115 13.0498H10.9952C10.5811 13.0498 10.3308 13.3181 10.3308 13.7175C10.3308 14.0934 10.5811 14.3564 10.9952 14.3564H13.0092L12.6818 16.3711C12.4973 17.4766 12.0337 17.9435 11.0616 17.9435C10.7437 17.9435 10.5989 17.9051 10.4177 17.8741C10.3059 17.8549 10.2037 17.8474 10.0673 17.8538C9.64125 17.8727 9.38672 18.1486 9.38672 18.5339C9.38672 18.878 9.57 19.1325 9.95367 19.2879C10.2455 19.4325 10.6596 19.4866 11.1888 19.4866Z" fill="black"/>
</svg>
