<svg width="28" height="28" viewBox="0 0 28 28" fill="none" xmlns="http://www.w3.org/2000/svg">
<path d="M14.105 26.21C20.7369 26.21 26.2121 20.7273 26.2121 14.105C26.2121 7.47312 20.7273 2 14.0954 2C7.47523 2 2 7.47312 2 14.105C2 20.7273 7.48484 26.21 14.105 26.21ZM14.105 23.8255C8.71085 23.8255 4.39412 19.4991 4.39412 14.105C4.39412 8.71085 8.70124 4.38452 14.0954 4.38452C19.4895 4.38452 23.8276 8.71085 23.8276 14.105C23.8276 19.4991 19.4991 23.8255 14.105 23.8255Z" fill="black"/>
<path d="M10.2206 19.0419C12.1953 19.0419 13.5185 17.2243 13.5185 14.1029C13.5185 10.9794 12.1953 9.16391 10.2206 9.16391C8.25351 9.16391 6.94922 10.9794 6.94922 14.1029C6.94922 17.2243 8.25351 19.0419 10.2206 19.0419ZM10.2291 17.472C9.24656 17.472 8.63319 16.2516 8.63319 14.1029C8.63319 11.9541 9.24656 10.7337 10.2291 10.7337C11.2212 10.7337 11.8324 11.9541 11.8324 14.1029C11.8324 16.2516 11.2308 17.472 10.2291 17.472ZM18.1925 19.0515C20.0689 19.0515 21.3786 17.7997 21.3786 15.6973C21.3786 13.7534 20.0686 12.6697 18.6106 12.6697C17.438 12.6697 16.6981 13.3243 16.421 14.0534H16.3315C16.3294 13.9993 16.3273 13.9527 16.3273 13.8699C16.3273 11.8871 17.1579 10.6255 18.346 10.6255C18.9687 10.6255 19.3889 10.9283 19.665 11.341C19.8697 11.6129 20.056 11.7556 20.3872 11.7556C20.7385 11.7556 21.0343 11.4852 21.0343 11.071C21.0343 10.8934 20.9949 10.7443 20.9236 10.573C20.6189 9.82367 19.7068 9.16391 18.4046 9.16391C16.22 9.16391 14.8107 10.8859 14.8107 14.326C14.8107 15.6798 15.0345 16.708 15.4182 17.4462C15.9989 18.5797 17.0046 19.0515 18.1925 19.0515ZM18.1233 17.6485C17.1432 17.6485 16.4553 16.8753 16.4553 15.778C16.4553 14.7308 17.1335 13.9843 18.1233 13.9843C19.1068 13.9843 19.7754 14.7212 19.7754 15.7876C19.7754 16.9234 19.1281 17.6485 18.1233 17.6485Z" fill="black"/>
</svg>
