<svg width="28" height="28" viewBox="0 0 28 28" fill="none" xmlns="http://www.w3.org/2000/svg">
<path d="M6.84421 24.8972H21.0295C23.5685 24.8972 24.8737 23.5919 24.8737 21.0914V6.82921C24.8737 4.32656 23.5685 3.02344 21.0295 3.02344H6.84421C4.31484 3.02344 3 4.31695 3 6.82921V21.0914C3 23.6016 4.31484 24.8972 6.84421 24.8972ZM6.97733 22.6013C5.88772 22.6013 5.29592 22.0371 5.29592 20.8985V7.01999C5.29592 5.88139 5.88772 5.31936 6.97733 5.31936H20.8964C21.9764 5.31936 22.5778 5.88139 22.5778 7.01999V20.8985C22.5778 22.0371 21.9764 22.6013 20.8964 22.6013H6.97733Z" fill="black"/>
<path d="M10.879 18.8817C12.844 18.8817 14.1651 17.0641 14.1651 13.9427C14.1651 10.8192 12.844 9.00375 10.879 9.00375C8.90226 9.00375 7.60547 10.8192 7.60547 13.9427C7.60547 17.0641 8.90226 18.8817 10.879 18.8817ZM10.8853 17.3119C9.8932 17.3119 9.28195 16.0915 9.28195 13.9427C9.28195 11.794 9.8932 10.5736 10.8853 10.5736C11.8678 10.5736 12.4812 11.794 12.4812 13.9427C12.4812 16.0915 11.8774 17.3119 10.8853 17.3119ZM18.8472 18.7643C19.3612 18.7643 19.6689 18.4439 19.6689 17.9046V10.0338C19.6689 9.45305 19.3017 9.06141 18.723 9.06141C18.329 9.06141 18.063 9.1807 17.6212 9.51258L15.9813 10.6786C15.6993 10.9008 15.5407 11.1307 15.5407 11.4607C15.5407 11.8781 15.8836 12.2081 16.2529 12.2081C16.4805 12.2081 16.6167 12.1669 16.8883 11.937L17.9883 11.0955H18.0543V17.9046C18.0543 18.4439 18.3504 18.7643 18.8472 18.7643Z" fill="black"/>
</svg>
