<svg width="28" height="28" viewBox="0 0 28 28" fill="none" xmlns="http://www.w3.org/2000/svg">
<path d="M6.84421 24.8972H21.0295C23.5685 24.8972 24.8737 23.5919 24.8737 21.0914V6.82921C24.8737 4.32656 23.5685 3.02344 21.0295 3.02344H6.84421C4.31484 3.02344 3 4.31695 3 6.82921V21.0914C3 23.6016 4.31484 24.8972 6.84421 24.8972Z" fill="black"/>
<path d="M11.5739 19.0582C11.0618 19.0582 10.782 18.6919 10.782 18.1915V16.9127H7.52578C6.8393 16.9127 6.39844 16.4944 6.39844 15.7992C6.39844 15.4247 6.48563 15.1088 6.67852 14.7105C7.39431 13.3575 8.48955 11.4089 9.41416 9.83622C9.81775 9.1113 10.2914 8.80591 11.0641 8.80591C11.8685 8.80591 12.3797 9.31356 12.3797 10.1053V15.4099H12.9431C13.3934 15.4099 13.6798 15.7036 13.6798 16.1752C13.6798 16.635 13.3934 16.9064 12.9431 16.9064H12.3797V18.1915C12.3797 18.7036 12.0998 19.0582 11.5739 19.0582ZM10.782 15.4162V10.5668H10.7159C9.8604 12.085 8.7661 14.1016 8.1293 15.3694V15.4162H10.782ZM18.1854 19.0774C16.147 19.0774 14.7853 17.1949 14.7853 13.9427C14.7853 10.6905 16.147 8.80591 18.1854 8.80591C20.2312 8.80591 21.6023 10.6905 21.6023 13.9427C21.6023 17.1949 20.2312 19.0774 18.1854 19.0774ZM18.1938 17.4279C19.219 17.4279 19.8441 16.1723 19.8441 13.9427C19.8441 11.7131 19.2094 10.4575 18.1938 10.4575C17.1762 10.4575 16.5415 11.7131 16.5415 13.9427C16.5415 16.1723 17.1762 17.4279 18.1938 17.4279Z" fill="white"/>
</svg>
