<svg width="28" height="28" viewBox="0 0 28 28" fill="none" xmlns="http://www.w3.org/2000/svg">
<path d="M14.105 26.21C20.7369 26.21 26.2121 20.7273 26.2121 14.105C26.2121 7.47312 20.7273 2 14.0954 2C7.47523 2 2 7.47312 2 14.105C2 20.7273 7.48484 26.21 14.105 26.21Z" fill="black"/>
<path d="M14.1285 19.8589C11.4878 19.8589 9.73047 18.2462 9.73047 15.8415C9.73047 14.5037 10.2916 13.1605 11.4906 11.5841C12.0506 10.8322 12.7931 9.89796 13.4917 8.97522C13.7383 8.67335 14.0245 8.35648 14.526 8.35648C15.2017 8.35648 15.5057 8.79476 15.5078 9.23397C15.5078 9.48944 15.4002 9.70225 15.2139 9.96311C14.6732 10.6552 13.9619 11.5468 13.4146 12.2487C13.0734 12.6945 12.9189 12.9055 12.7731 13.1354L12.9105 13.1642C13.2984 12.7794 14.1084 12.4651 14.9296 12.4651C17.0306 12.4651 18.501 13.9555 18.501 15.9498C18.501 18.2293 16.7449 19.8589 14.1285 19.8589ZM14.1285 18.0823C15.4581 18.0823 16.4264 17.2046 16.4264 16.0646C16.4264 14.9054 15.4581 14.0703 14.1189 14.0703C12.8127 14.0703 11.8253 14.9054 11.8253 16.0454C11.8253 17.2046 12.8224 18.0823 14.1285 18.0823Z" fill="white"/>
</svg>
