<svg width="28" height="28" viewBox="0 0 28 28" fill="none" xmlns="http://www.w3.org/2000/svg">
<path d="M14.105 26.21C20.7369 26.21 26.2121 20.7273 26.2121 14.105C26.2121 7.47312 20.7273 2 14.0954 2C7.47523 2 2 7.47312 2 14.105C2 20.7273 7.48484 26.21 14.105 26.21Z" fill="black"/>
<path d="M7.90851 18.9753C7.43062 18.9753 7.10086 18.6624 7.10086 18.1698C7.10086 17.8773 7.19977 17.6326 7.43789 17.3722L10.3913 13.8985C10.9592 13.2327 11.5477 12.6057 11.5477 11.8711C11.5477 11.0754 10.9718 10.5326 10.0983 10.5326C9.31969 10.5326 8.77687 10.9325 8.50382 11.7516C8.33648 12.1276 8.13539 12.35 7.74914 12.35C7.2893 12.35 7.00195 12.0317 7.00195 11.5622C7.00195 11.4047 7.0275 11.2578 7.05727 11.0928C7.38 9.86864 8.63625 8.96606 10.0671 8.96606C11.9424 8.96606 13.1454 10.0569 13.1496 11.7254C13.1517 12.905 12.5175 13.7637 11.6206 14.813L9.49921 17.2831V17.3811H12.6466C13.0891 17.3811 13.4116 17.6588 13.4116 18.1644C13.4116 18.657 13.0891 18.9753 12.6466 18.9753H7.90851ZM18.1706 19.2493C16.9392 19.2493 15.8995 18.7595 15.2953 17.5707C14.8957 16.8102 14.6602 15.7426 14.6602 14.3356C14.6602 10.7593 16.129 8.96606 18.3966 8.96606C19.7445 8.96606 20.696 9.65349 21.0124 10.4304C21.0954 10.6135 21.1252 10.7647 21.1252 10.9561C21.1252 11.3883 20.8156 11.6747 20.4579 11.6747C20.1012 11.6747 19.9127 11.5203 19.706 11.2346C19.4086 10.8101 18.9767 10.5052 18.3476 10.5052C17.1127 10.5052 16.2544 11.8041 16.2544 13.8477C16.2544 13.9421 16.2565 13.993 16.2586 14.0492H16.3502C16.6315 13.2924 17.3991 12.6123 18.6185 12.6123C20.1223 12.6123 21.495 13.7375 21.495 15.7527C21.495 17.9401 20.1183 19.2493 18.1706 19.2493ZM18.1015 17.7784C19.1414 17.7784 19.8197 17.0277 19.8197 15.8567C19.8197 14.753 19.1222 13.9927 18.1015 13.9927C17.0862 13.9927 16.3845 14.7626 16.3845 15.8471C16.3845 16.9817 17.0958 17.7784 18.1015 17.7784Z" fill="white"/>
</svg>
