<svg width="28" height="28" viewBox="0 0 28 28" fill="none" xmlns="http://www.w3.org/2000/svg">
<path d="M14.105 26.21C20.7369 26.21 26.2121 20.7273 26.2121 14.105C26.2121 7.47312 20.7273 2 14.0954 2C7.47523 2 2 7.47312 2 14.105C2 20.7273 7.48484 26.21 14.105 26.21ZM14.105 23.8255C8.71085 23.8255 4.39412 19.4991 4.39412 14.105C4.39412 8.71085 8.70124 4.38452 14.0954 4.38452C19.4895 4.38452 23.8276 8.71085 23.8276 14.105C23.8276 19.4991 19.4991 23.8255 14.105 23.8255Z" fill="black"/>
<path d="M10.873 18.9245C11.3752 18.9245 11.683 18.6041 11.683 18.0648V10.194C11.683 9.6132 11.3274 9.22156 10.7466 9.22156C10.343 9.22156 10.0888 9.34086 9.63735 9.67273L7.99532 10.8387C7.71337 11.0609 7.56641 11.2909 7.56641 11.6209C7.56641 12.0383 7.90719 12.3683 8.27868 12.3683C8.50414 12.3683 8.64242 12.327 8.91196 12.0971L10.0023 11.2557H10.0684V18.0648C10.0684 18.6041 10.3761 18.9245 10.873 18.9245ZM16.8825 19.0419C18.9324 19.0419 20.2655 17.7826 20.2655 15.7433C20.2655 13.9639 19.0679 12.7231 17.3611 12.7231C16.613 12.7231 15.8178 13.0909 15.4704 13.6119H15.4257L15.6314 10.8258H19.2413C19.6339 10.8258 19.9074 10.5416 19.9074 10.1084C19.9074 9.68492 19.6498 9.39523 19.2413 9.39523H15.3694C14.7272 9.39523 14.3213 9.78711 14.284 10.4483L14.0164 13.9527C13.9833 14.5831 14.3304 14.9921 14.8927 14.9921C15.2897 14.9921 15.5112 14.8878 15.8567 14.6105C16.3013 14.2308 16.6425 14.0677 17.1223 14.0677C18.0502 14.0677 18.69 14.8184 18.69 15.7953C18.69 16.9098 17.9904 17.5953 16.9634 17.5953C16.2319 17.5953 15.6345 17.1988 15.3094 16.5821C15.1273 16.2739 14.9035 16.0845 14.5939 16.0845C14.1839 16.0845 13.8828 16.4028 13.8828 16.8233C13.8828 17.0129 13.9137 17.1929 13.9925 17.3696C14.3335 18.2727 15.4355 19.0419 16.8825 19.0419Z" fill="black"/>
</svg>
