<svg width="28" height="28" viewBox="0 0 28 28" fill="none" xmlns="http://www.w3.org/2000/svg">
<path d="M14.105 26.21C20.7369 26.21 26.2121 20.7273 26.2121 14.105C26.2121 7.47312 20.7273 2 14.0954 2C7.47523 2 2 7.47312 2 14.105C2 20.7273 7.48484 26.21 14.105 26.21Z" fill="black"/>
<path d="M9.19141 14.1104C9.19141 10.5861 11.1409 8.36539 14.1004 8.36539C16.0276 8.36539 17.6282 9.38985 18.2265 10.9297C18.3201 11.1521 18.3679 11.3841 18.3679 11.6204C18.3679 12.1226 18.0423 12.4536 17.5199 12.4536C17.0399 12.4536 16.7994 12.1705 16.6347 11.7786C16.2543 10.7729 15.3147 10.0423 14.114 10.0423C12.2938 10.0423 11.1135 11.6424 11.1135 14.1008C11.1135 16.2474 11.9273 17.7111 13.2965 18.1299L13.2986 14.0839C13.2986 13.7227 13.5405 13.4734 13.892 13.4734C14.2255 13.4734 14.4749 13.7035 14.4749 14.0839V14.5752C14.8457 13.8793 15.5097 13.5106 16.2173 13.5106C16.8883 13.5106 17.3188 13.8015 17.3188 14.2309C17.3188 14.5494 17.0748 14.7699 16.7212 14.7699C16.5826 14.7699 16.4207 14.7273 16.1725 14.7273C15.1951 14.7273 14.4845 15.4979 14.4845 16.6222V18.2291C15.5704 18.1215 16.4015 17.4486 16.6893 16.5312C16.8541 16.0693 17.1285 15.8288 17.5808 15.8288C18.1138 15.8288 18.4553 16.1598 18.4553 16.6503C18.4457 16.8676 18.4042 17.0677 18.3297 17.2637C17.763 18.8248 16.2205 19.8596 14.1194 19.8596C11.1367 19.8596 9.19141 17.6731 9.19141 14.1104Z" fill="white"/>
</svg>
