<svg width="28" height="28" viewBox="0 0 28 28" fill="none" xmlns="http://www.w3.org/2000/svg">
<path d="M6.84421 24.8972H21.0295C23.5685 24.8972 24.8737 23.5919 24.8737 21.0914V6.82921C24.8737 4.32656 23.5685 3.02344 21.0295 3.02344H6.84421C4.31484 3.02344 3 4.31695 3 6.82921V21.0914C3 23.6016 4.31484 24.8972 6.84421 24.8972ZM6.97733 22.6013C5.88772 22.6013 5.29592 22.0371 5.29592 20.8985V7.01999C5.29592 5.88139 5.88772 5.31936 6.97733 5.31936H20.8964C21.9764 5.31936 22.5778 5.88139 22.5778 7.01999V20.8985C22.5778 22.0371 21.9764 22.6013 20.8964 22.6013H6.97733Z" fill="black"/>
<path d="M10.8945 18.7643C11.3988 18.7643 11.7045 18.4439 11.7045 17.9046V10.0338C11.7045 9.45302 11.3489 9.06138 10.7681 9.06138C10.3666 9.06138 10.1102 9.18067 9.65883 9.51255L8.01891 10.6786C7.73485 10.9008 7.58789 11.1307 7.58789 11.4607C7.58789 11.8781 7.92867 12.2081 8.30016 12.2081C8.52562 12.2081 8.65429 12.1668 8.93344 11.9369L10.0259 11.0955H10.092V17.9046C10.092 18.4439 10.3976 18.7643 10.8945 18.7643ZM14.7275 18.6312H19.2847C19.7187 18.6312 20.0253 18.3267 20.0253 17.8542C20.0253 17.3784 19.7187 17.1049 19.2847 17.1049H16.2331V17.0208L18.3033 14.621C19.1684 13.6153 19.7771 12.7884 19.775 11.6503C19.7708 10.0509 18.6113 9.00372 16.8073 9.00372C15.4339 9.00372 14.2191 9.86481 13.9123 11.0454C13.8826 11.2083 13.8495 11.3435 13.8495 11.4968C13.8495 11.9461 14.1284 12.2505 14.5606 12.2505C14.9405 12.2505 15.1374 12.0323 15.2855 11.6723C15.5543 10.8862 16.0854 10.4906 16.8406 10.4906C17.6865 10.4906 18.2431 11.0196 18.2431 11.7918C18.2431 12.5029 17.6684 13.1044 17.1261 13.7501L14.2728 17.1002C14.0506 17.3543 13.9559 17.5852 13.9559 17.8596C13.9559 18.3321 14.2676 18.6312 14.7275 18.6312Z" fill="black"/>
</svg>
