<svg width="28" height="28" viewBox="0 0 28 28" fill="none" xmlns="http://www.w3.org/2000/svg">
<path d="M14.105 26.21C20.7369 26.21 26.2121 20.7273 26.2121 14.105C26.2121 7.47312 20.7273 2 14.0954 2C7.47523 2 2 7.47312 2 14.105C2 20.7273 7.48484 26.21 14.105 26.21ZM14.105 23.8255C8.71085 23.8255 4.39412 19.4991 4.39412 14.105C4.39412 8.71085 8.70124 4.38452 14.0954 4.38452C19.4895 4.38452 23.8276 8.71085 23.8276 14.105C23.8276 19.4991 19.4991 23.8255 14.105 23.8255Z" fill="black"/>
<path d="M10.3124 19.0536C12.3602 19.0536 13.7029 17.7943 13.7029 15.7646C13.7029 13.9777 12.4956 12.7348 10.7985 12.7348C10.0429 12.7348 9.24766 13.1026 8.90032 13.6236H8.85555L9.06133 10.8397H12.6808C13.0638 10.8397 13.3373 10.5533 13.3373 10.1223C13.3373 9.69668 13.0776 9.4166 12.6808 9.4166H8.7972C8.15712 9.4166 7.75868 9.81059 7.71181 10.46L7.45587 13.9644C7.42071 14.6044 7.76032 15.0134 8.32259 15.0134C8.71751 15.0134 8.9486 14.9091 9.28657 14.6223C9.74079 14.2522 10.0724 14.0891 10.5597 14.0891C11.4897 14.0891 12.1295 14.8301 12.1295 15.807C12.1295 16.9236 11.4203 17.607 10.4029 17.607C9.6597 17.607 9.06438 17.2105 8.7393 16.5959C8.55719 16.2856 8.34297 16.0962 8.03337 16.0962C7.61383 16.0962 7.31055 16.4145 7.31055 16.8371C7.31055 17.0363 7.35321 17.2142 7.42235 17.3813C7.76126 18.2844 8.87501 19.0536 10.3124 19.0536ZM18.164 19.0536C20.129 19.0536 21.4523 17.2381 21.4523 14.1146C21.4523 10.9932 20.129 9.17566 18.164 9.17566C16.1873 9.17566 14.883 10.9932 14.883 14.1146C14.883 17.2381 16.1873 19.0536 18.164 19.0536ZM18.1724 17.4838C17.1803 17.4838 16.567 16.2634 16.567 14.1146C16.567 11.9659 17.1803 10.7455 18.1724 10.7455C19.1549 10.7455 19.7662 11.9659 19.7662 14.1146C19.7662 16.2634 19.1646 17.4838 18.1724 17.4838Z" fill="black"/>
</svg>
