<svg width="28" height="28" viewBox="0 0 28 28" fill="none" xmlns="http://www.w3.org/2000/svg">
<path d="M6.84421 24.8972H21.0295C23.5685 24.8972 24.8737 23.5919 24.8737 21.0914V6.82921C24.8737 4.32656 23.5685 3.02344 21.0295 3.02344H6.84421C4.31484 3.02344 3 4.31695 3 6.82921V21.0914C3 23.6016 4.31484 24.8972 6.84421 24.8972Z" fill="black"/>
<path d="M11.5915 19.056C11.0869 19.056 10.7974 18.6897 10.7974 18.1914V16.9126H7.54125C6.85266 16.9126 6.41602 16.4943 6.41602 15.7991C6.41602 15.4246 6.50321 15.1087 6.69399 14.7104C7.41188 13.3616 8.5029 11.411 9.43174 9.83618C9.83533 9.11126 10.3165 8.80798 11.0913 8.80798C11.8936 8.80798 12.3952 9.31352 12.3952 10.1052V15.4098H12.9586C13.4184 15.4098 13.7048 15.7014 13.7048 16.1751C13.7048 16.6349 13.4184 16.9063 12.9586 16.9063H12.3952V18.1914C12.3952 18.6993 12.1249 19.056 11.5915 19.056ZM10.7974 15.4161V10.5667H10.7431C9.87587 12.0892 8.78157 14.1015 8.14477 15.3693V15.4161H10.7974ZM16.6298 18.9578C16.1159 18.9578 15.7221 18.5959 15.7221 18.0756C15.7221 17.8201 15.7636 17.6626 15.87 17.4519L19.3627 10.6696V10.578H15.4748C15.0066 10.578 14.662 10.2852 14.662 9.8193C14.662 9.34587 14.9981 9.03931 15.4748 9.03931H20.0756C20.8352 9.03931 21.2698 9.55657 21.2698 10.1847C21.2698 10.4573 21.2283 10.7031 21.0375 11.0793L17.5162 18.2758C17.2884 18.7525 17.0318 18.9578 16.6298 18.9578Z" fill="white"/>
</svg>
