<svg width="28" height="28" viewBox="0 0 28 28" fill="none" xmlns="http://www.w3.org/2000/svg">
<path d="M7.23922 23.2481C7.23922 24.1076 7.84648 24.7073 8.68694 24.7073C9.51897 24.7073 10.1208 24.1076 10.1208 23.2481V17.1595H14.1265C18.2754 17.1595 21.0366 14.306 21.0366 10.2546C21.0366 6.27303 18.4587 3.44086 14.2944 3.44086H8.7228C7.79305 3.44086 7.23922 4.016 7.23922 4.95748V23.2481ZM10.1208 14.8111V5.82326H13.5601C16.498 5.82326 18.1027 7.38303 18.1048 10.2588C18.1048 13.1864 16.3773 14.8111 13.4726 14.8111H10.1208ZM5 8.76139C5 9.1685 5.3293 9.4978 5.73641 9.4978H22.2113C22.6184 9.4978 22.9573 9.1685 22.9573 8.76139C22.9573 8.35217 22.6184 8.02498 22.2113 8.02498H5.73641C5.3293 8.02498 5 8.35217 5 8.76139ZM5 12.3719C5 12.7791 5.3293 13.1084 5.73641 13.1084H22.2113C22.6184 13.1084 22.9573 12.7791 22.9573 12.3719C22.9573 11.9648 22.6184 11.6355 22.2113 11.6355H5.73641C5.3293 11.6355 5 11.9648 5 12.3719Z" fill="black"/>
</svg>
