<svg width="28" height="28" viewBox="0 0 28 28" fill="none" xmlns="http://www.w3.org/2000/svg">
<path d="M6.84421 24.8972H21.0295C23.5685 24.8972 24.8737 23.5919 24.8737 21.0914V6.82921C24.8737 4.32656 23.5685 3.02344 21.0295 3.02344H6.84421C4.31484 3.02344 3 4.31695 3 6.82921V21.0914C3 23.6016 4.31484 24.8972 6.84421 24.8972Z" fill="black"/>
<path d="M11.2492 19.3608C10.4498 19.3608 10.0469 18.8618 10.0469 18.0368V9.67026C10.0469 8.84948 10.4519 8.34839 11.2492 8.34839H16.795C17.3777 8.34839 17.7607 8.68026 17.7607 9.26643C17.7607 9.8376 17.3777 10.1962 16.795 10.1962H12.3369V12.9281H16.5377C17.0824 12.9281 17.4464 13.2356 17.4464 13.7923C17.4464 14.3222 17.0824 14.6255 16.5377 14.6255H12.3369V17.513H16.795C17.3777 17.513 17.7607 17.8545 17.7607 18.4406C17.7607 19.0118 17.3777 19.3608 16.795 19.3608H11.2492Z" fill="white"/>
</svg>
