<svg width="28" height="28" viewBox="0 0 28 28" fill="none" xmlns="http://www.w3.org/2000/svg">
<path d="M14.105 26.21C20.7369 26.21 26.2121 20.7273 26.2121 14.105C26.2121 7.47312 20.7273 2 14.0954 2C7.47523 2 2 7.47312 2 14.105C2 20.7273 7.48484 26.21 14.105 26.21Z" fill="black"/>
<path d="M11.2512 19.5401C10.4113 19.5401 9.93359 19.0604 9.93359 18.2258V9.81124C9.93359 8.95953 10.4134 8.48938 11.2512 8.48938H14.8589C16.9585 8.48938 18.3061 9.54735 18.3061 11.2156C18.3061 12.4311 17.5362 13.3707 16.3114 13.6468V13.7276C17.9358 13.929 18.9277 14.9581 18.9277 16.4516C18.9277 18.3268 17.3211 19.5401 14.8798 19.5401H11.2512ZM12.1641 13.1148H13.8371C15.3003 13.1148 16.1011 12.5518 16.1011 11.5752C16.1011 10.6571 15.4231 10.092 14.2972 10.092H12.1641V13.1148ZM12.1599 17.9016H13.9608C15.7676 17.9016 16.6111 17.3804 16.6111 16.2683C16.6111 15.203 15.8232 14.5836 14.4711 14.5836H12.1599V17.9016Z" fill="white"/>
</svg>
