<svg width="28" height="28" viewBox="0 0 28 28" fill="none" xmlns="http://www.w3.org/2000/svg">
<path d="M14.105 26.21C20.7369 26.21 26.2121 20.7273 26.2121 14.105C26.2121 7.47312 20.7273 2 14.0954 2C7.47523 2 2 7.47312 2 14.105C2 20.7273 7.48484 26.21 14.105 26.21Z" fill="black"/>
<path d="M7.91633 18.9753C7.43844 18.9753 7.10868 18.6624 7.10868 18.1698C7.10868 17.8773 7.20758 17.6326 7.4457 17.3722L10.3991 13.8985C10.9691 13.2327 11.5555 12.6057 11.5555 11.8711C11.5555 11.0754 10.9796 10.5326 10.1061 10.5326C9.3275 10.5326 8.78469 10.9325 8.50203 11.7516C8.34641 12.1276 8.1432 12.35 7.74735 12.35C7.29711 12.35 7.00977 12.0317 7.00977 11.5622C7.00977 11.4047 7.03532 11.2578 7.06508 11.0928C7.38782 9.86864 8.64617 8.96606 10.0749 8.96606C11.9502 8.96606 13.1532 10.0569 13.1574 11.7254C13.1596 12.905 12.5274 13.7637 11.6284 14.813L9.49742 17.2831V17.3811H12.6449C13.097 17.3811 13.4195 17.6588 13.4195 18.1644C13.4195 18.657 13.097 18.9753 12.6449 18.9753H7.91633ZM18.0929 19.2376C16.01 19.2376 14.6335 18.073 14.6335 16.3266C14.6335 15.1004 15.3697 14.1251 16.6253 13.8556V13.7769C15.572 13.4762 14.9809 12.6472 14.9809 11.5988C14.9809 10.039 16.2648 8.96606 18.1142 8.96606C19.9691 8.96606 21.2434 10.039 21.2434 11.5988C21.2434 12.6472 20.6523 13.4954 19.6086 13.7769V13.8556C20.8428 14.1251 21.6025 15.0908 21.6025 16.317C21.6025 18.0537 20.1875 19.2376 18.0929 19.2376ZM18.1239 17.8391C19.1584 17.8391 19.9082 17.1641 19.9082 16.2022C19.9082 15.2424 19.1797 14.5557 18.1239 14.5557C17.0851 14.5557 16.3492 15.252 16.3492 16.2022C16.3492 17.1641 17.0851 17.8391 18.1239 17.8391ZM18.1142 13.212C18.9653 13.212 19.5753 12.5977 19.5753 11.768C19.5753 10.9383 18.9728 10.3604 18.1142 10.3604C17.2632 10.3604 16.6585 10.9383 16.6585 11.768C16.6585 12.5977 17.259 13.212 18.1142 13.212Z" fill="white"/>
</svg>
