<svg width="28" height="28" viewBox="0 0 28 28" fill="none" xmlns="http://www.w3.org/2000/svg">
<path d="M14.105 26.21C20.7369 26.21 26.2121 20.7273 26.2121 14.105C26.2121 7.47312 20.7273 2 14.0954 2C7.47523 2 2 7.47312 2 14.105C2 20.7273 7.48484 26.21 14.105 26.21ZM14.105 23.8255C8.71085 23.8255 4.39412 19.4991 4.39412 14.105C4.39412 8.71085 8.70124 4.38452 14.0954 4.38452C19.4895 4.38452 23.8276 8.71085 23.8276 14.105C23.8276 19.4991 19.4991 23.8255 14.105 23.8255Z" fill="black"/>
<path d="M13.848 19.6409C16.7283 19.6409 18.314 17.6178 18.314 13.7912C18.314 10.4183 16.7283 8.56485 14.0273 8.56485C11.5594 8.56485 9.9375 10.0508 9.9375 12.3158C9.9375 14.4746 11.5521 15.7222 13.4182 15.7222C14.8924 15.7222 15.7833 15.0057 16.1583 14.1512H16.2562C16.3113 16.493 15.3185 17.9333 13.8267 17.9333C13.091 17.9333 12.5866 17.6251 12.1357 17.0511C11.9175 16.7984 11.6641 16.6013 11.2439 16.6013C10.7278 16.6013 10.3406 16.9545 10.3406 17.4622C10.3406 17.6122 10.38 17.758 10.4395 17.9112C10.7449 18.7241 11.8633 19.6409 13.848 19.6409ZM14.1124 14.2355C12.9168 14.2355 12.0775 13.4005 12.0775 12.2337C12.0775 11.0115 12.8955 10.1914 14.1124 10.1914C15.277 10.1914 16.1334 11.0595 16.1334 12.253C16.1334 13.3984 15.3004 14.2355 14.1124 14.2355Z" fill="black"/>
</svg>
