<svg width="28" height="28" viewBox="0 0 28 28" fill="none" xmlns="http://www.w3.org/2000/svg">
<path d="M14.105 26.21C20.7369 26.21 26.2121 20.7273 26.2121 14.105C26.2121 7.47312 20.7273 2 14.0954 2C7.47523 2 2 7.47312 2 14.105C2 20.7273 7.48484 26.21 14.105 26.21ZM14.105 23.8255C8.71085 23.8255 4.39412 19.4991 4.39412 14.105C4.39412 8.71085 8.70124 4.38452 14.0954 4.38452C19.4895 4.38452 23.8276 8.71085 23.8276 14.105C23.8276 19.4991 19.4991 23.8255 14.105 23.8255Z" fill="black"/>
<path d="M11.6848 19.0227C12.1906 19.0227 12.4566 18.6798 12.4566 18.1995V16.9517H13.0104C13.4426 16.9517 13.7131 16.6941 13.7131 16.2502C13.7131 15.7967 13.4426 15.5211 13.0104 15.5211H12.4566V10.3996C12.4566 9.63972 11.9731 9.16394 11.207 9.16394C10.464 9.16394 10.0105 9.45128 9.62282 10.1443C8.73126 11.6584 7.66367 13.5495 6.97133 14.8536C6.78804 15.2338 6.70508 15.5337 6.70508 15.8902C6.70508 16.5556 7.12789 16.9559 7.7825 16.9559H10.9269V18.1995C10.9269 18.6702 11.2025 19.0227 11.6848 19.0227ZM10.9269 15.5274H8.35624V15.4805C8.96 14.2618 10.0405 12.3048 10.8725 10.8451H10.9269V15.5274ZM17.9208 19.0419C20.2149 19.0419 21.4573 17.2114 21.4573 13.7853C21.4573 10.8142 20.2465 9.16394 18.0497 9.16394C16.1232 9.16394 14.8489 10.4544 14.8489 12.4894C14.8489 14.4291 16.1377 15.5457 17.6539 15.5457C18.8522 15.5457 19.5823 14.9091 19.8722 14.1291H19.9383C19.9554 16.2291 19.1787 17.5803 17.8974 17.5803C17.2906 17.5803 16.8127 17.273 16.5462 16.8102C16.3418 16.4884 16.1065 16.3616 15.806 16.3616C15.4048 16.3616 15.1259 16.6639 15.1259 17.093C15.1259 17.2292 15.1653 17.4017 15.2269 17.5613C15.4409 18.1932 16.3627 19.0419 17.9208 19.0419ZM18.135 14.229C17.1399 14.229 16.4637 13.475 16.4637 12.4086C16.4637 11.2921 17.1207 10.5573 18.135 10.5573C19.1056 10.5573 19.801 11.3284 19.801 12.4278C19.801 13.475 19.1152 14.229 18.135 14.229Z" fill="black"/>
</svg>
