<svg width="28" height="28" viewBox="0 0 28 28" fill="none" xmlns="http://www.w3.org/2000/svg">
<path d="M14.105 26.21C20.7369 26.21 26.2121 20.7273 26.2121 14.105C26.2121 7.47312 20.7273 2 14.0954 2C7.47523 2 2 7.47312 2 14.105C2 20.7273 7.48484 26.21 14.105 26.21Z" fill="black"/>
<path d="M10.363 19.1785C8.78148 19.1785 7.52312 18.2066 7.20765 17.1376C7.16827 16.9789 7.14062 16.8395 7.14062 16.6691C7.14062 16.2071 7.47155 15.8961 7.89015 15.8961C8.24475 15.8961 8.46508 16.0815 8.62796 16.4577C8.94553 17.2213 9.53945 17.6394 10.3907 17.6394C11.402 17.6394 12.1115 17.0101 12.1115 16.1844C12.1115 15.3055 11.4618 14.7326 10.4474 14.7326H9.8507C9.38899 14.7326 9.1089 14.4026 9.1089 13.9695C9.1089 13.4926 9.41125 13.1818 9.8507 13.1818H10.3994C11.2654 13.1818 11.8448 12.6059 11.8448 11.8304C11.8448 11.0647 11.2485 10.5495 10.4069 10.5495C9.56312 10.5495 9.04797 10.9655 8.78055 11.7291C8.64859 12.1032 8.4325 12.2949 8.05445 12.2949C7.61149 12.2949 7.32086 11.9797 7.32086 11.5102C7.32086 11.3494 7.3293 11.21 7.37922 11.0366C7.68719 9.94789 8.8457 9.02515 10.442 9.02515C12.2404 9.02515 13.4904 10.078 13.4904 11.6037C13.4904 12.6898 12.7411 13.6597 11.7733 13.8174V13.8941C12.9393 14.0124 13.7911 15.0184 13.7911 16.2673C13.7911 17.9785 12.394 19.1785 10.363 19.1785ZM16.8342 19.0611C16.3308 19.0611 15.9358 18.7055 15.9358 18.1937C15.9358 17.9445 15.9773 17.7891 16.0912 17.5827L19.5448 10.853V10.7656H15.6865C15.2341 10.7656 14.8884 10.4771 14.8884 10.0217C14.8884 9.55672 15.2257 9.25648 15.6865 9.25648H20.2472C20.9878 9.25648 21.4181 9.7632 21.4181 10.3829C21.4181 10.6491 21.367 10.8908 21.1997 11.2627L17.6845 18.3917C17.4705 18.8579 17.2181 19.0611 16.8342 19.0611Z" fill="white"/>
</svg>
