<svg width="28" height="28" viewBox="0 0 28 28" fill="none" xmlns="http://www.w3.org/2000/svg">
<path d="M6.84421 24.8972H21.0295C23.5685 24.8972 24.8737 23.5919 24.8737 21.0914V6.82921C24.8737 4.32656 23.5685 3.02344 21.0295 3.02344H6.84421C4.31484 3.02344 3 4.31695 3 6.82921V21.0914C3 23.6016 4.31484 24.8972 6.84421 24.8972ZM6.97733 22.6013C5.88772 22.6013 5.29592 22.0371 5.29592 20.8985V7.01999C5.29592 5.88139 5.88772 5.31936 6.97733 5.31936H20.8964C21.9764 5.31936 22.5778 5.88139 22.5778 7.01999V20.8985C22.5778 22.0371 21.9764 22.6013 20.8964 22.6013H6.97733Z" fill="black"/>
<path d="M11.6477 18.8625C12.1535 18.8625 12.4195 18.5196 12.4195 18.0394V16.7916H12.9734C13.4055 16.7916 13.676 16.534 13.676 16.0901C13.676 15.6366 13.4055 15.3609 12.9734 15.3609H12.4195V10.2394C12.4195 9.47956 11.936 9.00378 11.1698 9.00378C10.4269 9.00378 9.97337 9.29112 9.58572 9.98417C8.69415 11.4982 7.62657 13.3894 6.93422 14.6934C6.75094 15.0736 6.66797 15.3736 6.66797 15.7301C6.66797 16.3955 7.09078 16.7958 7.74539 16.7958H10.8898V18.0394C10.8898 18.51 11.1654 18.8625 11.6477 18.8625ZM10.8898 15.3673H8.31914V15.3204C8.92289 14.1016 10.0034 12.1446 10.8354 10.685H10.8898V15.3673ZM16.5 18.7739C16.8839 18.7739 17.1267 18.5686 17.3407 18.1216L20.7459 11.172C20.9229 10.8096 20.9644 10.5776 20.9644 10.321C20.9644 9.71089 20.5458 9.2255 19.8223 9.2255H15.3907C14.9299 9.2255 14.6119 9.51401 14.6119 9.9694C14.6119 10.4152 14.9383 10.6941 15.3907 10.6941H19.1412V10.7815L15.7741 17.3339C15.6719 17.5308 15.6305 17.6862 15.6305 17.9257C15.6305 18.428 16.0062 18.7739 16.5 18.7739Z" fill="black"/>
</svg>
