<svg width="28" height="28" viewBox="0 0 28 28" fill="none" xmlns="http://www.w3.org/2000/svg">
<path d="M14.105 26.21C20.7369 26.21 26.2121 20.7273 26.2121 14.105C26.2121 7.47312 20.7273 2 14.0954 2C7.47523 2 2 7.47312 2 14.105C2 20.7273 7.48484 26.21 14.105 26.21Z" fill="black"/>
<path d="M11.7126 19.2161C11.1984 19.2161 10.9185 18.8498 10.9185 18.3516V17.0728H7.65273C6.97586 17.0728 6.53711 16.6544 6.53711 15.9593C6.53711 15.5847 6.6243 15.2688 6.81508 14.8706C7.53297 13.5218 8.6261 11.5711 9.55283 9.99634C9.95642 9.27142 10.4184 8.96814 11.2049 8.96814C12.0147 8.96814 12.5163 9.47369 12.5163 10.2654V15.57H13.0818C13.5396 15.57 13.8164 15.8615 13.8164 16.3352C13.8164 16.7951 13.5396 17.0665 13.0818 17.0665H12.5163V18.3516C12.5163 18.8595 12.2268 19.2161 11.7126 19.2161ZM10.9185 15.5763V10.7269H10.8663C9.99696 12.2493 8.89516 14.2617 8.25836 15.5294V15.5763H10.9185ZM18.2866 19.245C17.0531 19.245 16.0038 18.7572 15.3996 17.5706C15 16.8101 14.774 15.7425 14.774 14.3355C14.774 10.7592 16.2333 8.96814 18.5104 8.96814C19.8583 8.96814 20.8078 9.65346 21.1263 10.4304C21.2018 10.6156 21.2315 10.7667 21.2315 10.9561C21.2315 11.3883 20.9273 11.6747 20.5622 11.6747C20.2151 11.6747 20.0149 11.5202 19.8082 11.2345C19.5204 10.8101 19.0884 10.5052 18.4518 10.5052C17.2073 10.5052 16.3586 11.8062 16.3586 13.8476C16.3586 13.942 16.3607 13.9929 16.365 14.0491H16.4449C16.7454 13.2923 17.5012 12.6122 18.7228 12.6122C20.2361 12.6122 21.5993 13.7374 21.5993 15.7526C21.5993 17.94 20.2247 19.245 18.2866 19.245ZM18.2036 17.7783C19.2553 17.7783 19.9144 17.0276 19.9144 15.8566C19.9144 14.7529 19.2361 13.9926 18.2133 13.9926C17.1904 13.9926 16.4887 14.7625 16.4887 15.847C16.4887 16.9816 17.1904 17.7783 18.2036 17.7783Z" fill="white"/>
</svg>
