<svg width="28" height="28" viewBox="0 0 28 28" fill="none" xmlns="http://www.w3.org/2000/svg">
<path d="M6.84421 24.8972H21.0295C23.5685 24.8972 24.8737 23.5919 24.8737 21.0914V6.82921C24.8737 4.32656 23.5685 3.02344 21.0295 3.02344H6.84421C4.31484 3.02344 3 4.31695 3 6.82921V21.0914C3 23.6016 4.31484 24.8972 6.84421 24.8972ZM6.97733 22.6013C5.88772 22.6013 5.29592 22.0371 5.29592 20.8985V7.01999C5.29592 5.88139 5.88772 5.31936 6.97733 5.31936H20.8964C21.9764 5.31936 22.5778 5.88139 22.5778 7.01999V20.8985C22.5778 22.0371 21.9764 22.6013 20.8964 22.6013H6.97733Z" fill="black"/>
<path d="M10.8984 18.7643C11.4123 18.7643 11.718 18.4439 11.718 17.9046V10.0338C11.718 9.45302 11.3528 9.06138 10.7816 9.06138C10.3802 9.06138 10.1141 9.18067 9.67235 9.51255L8.03243 10.6786C7.74837 10.9008 7.5918 11.1307 7.5918 11.4607C7.5918 11.8781 7.93258 12.2081 8.30407 12.2081C8.53914 12.2081 8.66782 12.1668 8.93735 11.9369L10.0394 11.0955H10.1055V17.9046C10.1055 18.4439 10.4015 18.7643 10.8984 18.7643ZM16.9807 18.8817C18.9457 18.8817 20.2689 17.0641 20.2689 13.9427C20.2689 10.8192 18.9457 9.00372 16.9807 9.00372C15.0136 9.00372 13.7071 10.8192 13.7071 13.9427C13.7071 17.0641 15.0136 18.8817 16.9807 18.8817ZM16.987 17.3119C16.0066 17.3119 15.3836 16.0915 15.3836 13.9427C15.3836 11.794 16.0066 10.5736 16.987 10.5736C17.9695 10.5736 18.5925 11.794 18.5925 13.9427C18.5925 16.0915 17.9791 17.3119 16.987 17.3119Z" fill="black"/>
</svg>
