<svg width="28" height="28" viewBox="0 0 28 28" fill="none" xmlns="http://www.w3.org/2000/svg">
<path d="M6.84421 24.8972H21.0295C23.5685 24.8972 24.8737 23.5919 24.8737 21.0914V6.82921C24.8737 4.32656 23.5685 3.02344 21.0295 3.02344H6.84421C4.31484 3.02344 3 4.31695 3 6.82921V21.0914C3 23.6016 4.31484 24.8972 6.84421 24.8972ZM6.97733 22.6013C5.88772 22.6013 5.29592 22.0371 5.29592 20.8985V7.01999C5.29592 5.88139 5.88772 5.31936 6.97733 5.31936H20.8964C21.9764 5.31936 22.5778 5.88139 22.5778 7.01999V20.8985C22.5778 22.0371 21.9764 22.6013 20.8964 22.6013H6.97733Z" fill="black"/>
<path d="M11.193 19.1736H14.6824C17.0365 19.1736 18.574 18.0039 18.574 16.1999C18.574 14.7639 17.6236 13.7687 16.0608 13.5791V13.5004C17.2378 13.2381 17.9759 12.3304 17.9759 11.1585C17.9759 9.56149 16.6856 8.5354 14.6616 8.5354H11.193C10.403 8.5354 9.95508 8.98751 9.95508 9.7968V17.9219C9.95508 18.714 10.4009 19.1736 11.193 19.1736ZM12.0656 12.9906V10.068H14.1284C15.2171 10.068 15.8792 10.6213 15.8792 11.5C15.8792 12.449 15.1039 12.9906 13.6875 12.9906H12.0656ZM12.0635 17.6073V14.3936H14.3023C15.6054 14.3936 16.37 14.9992 16.37 16.0251C16.37 17.102 15.5499 17.6073 13.8113 17.6073H12.0635Z" fill="black"/>
</svg>
