<svg width="28" height="28" viewBox="0 0 28 28" fill="none" xmlns="http://www.w3.org/2000/svg">
<path d="M6.84421 24.8972H21.0295C23.5685 24.8972 24.8737 23.5919 24.8737 21.0914V6.82921C24.8737 4.32656 23.5685 3.02344 21.0295 3.02344H6.84421C4.31484 3.02344 3 4.31695 3 6.82921V21.0914C3 23.6016 4.31484 24.8972 6.84421 24.8972Z" fill="black"/>
<path d="M10.2313 19.3437C9.74188 19.3437 9.40039 19.0266 9.40039 18.536C9.40039 18.0773 9.63969 17.8303 10.0902 17.6264C10.9018 17.3517 11.6152 16.5565 11.6152 15.3677C11.6152 15.0443 11.5555 14.6932 11.4669 14.3505H10.1131C9.69899 14.3505 9.40508 14.0737 9.40508 13.6627C9.40508 13.2569 9.69899 12.9865 10.1131 12.9865H11.1526C11.0396 12.5283 10.9576 12.0626 10.9576 11.5927C10.9576 9.36867 12.4958 7.92938 15.0456 7.92938C15.9043 7.92938 16.604 8.03578 17.158 8.27203C17.6045 8.46258 17.7653 8.73937 17.7653 9.09281C17.7653 9.53648 17.5133 9.80156 17.0226 9.80156C16.6417 9.80156 16.2022 9.56156 15.2174 9.56156C13.705 9.56156 12.8328 10.3826 12.8328 11.5927C12.8328 12.1216 12.9277 12.5674 13.0248 12.9865H16.2116C16.63 12.9865 16.9293 13.2569 16.9293 13.6627C16.9293 14.0737 16.63 14.3505 16.2116 14.3505H13.3391C13.4085 14.6578 13.449 14.9885 13.449 15.3661C13.449 16.3013 13.0609 17.1895 12.4672 17.7042H17.3882C17.8797 17.7042 18.2308 18.0277 18.2308 18.5191C18.2308 19.0298 17.8797 19.3437 17.3882 19.3437H10.2313Z" fill="white"/>
</svg>
