<svg width="28" height="28" viewBox="0 0 28 28" fill="none" xmlns="http://www.w3.org/2000/svg">
<path d="M6.84421 24.8972H21.0295C23.5685 24.8972 24.8737 23.5919 24.8737 21.0914V6.82921C24.8737 4.32656 23.5685 3.02344 21.0295 3.02344H6.84421C4.31484 3.02344 3 4.31695 3 6.82921V21.0914C3 23.6016 4.31484 24.8972 6.84421 24.8972Z" fill="black"/>
<path d="M9.58594 12.098C9.58594 9.79827 11.3613 8.18671 13.9872 8.18671C16.63 8.18671 18.397 9.80366 18.397 12.2212C18.397 13.616 17.8464 14.8359 16.7151 16.3495C16.1528 17.0953 15.3328 18.1659 14.7548 18.8836C14.3653 19.3657 14.122 19.6891 13.5478 19.6891C12.9354 19.6891 12.5473 19.2659 12.5473 18.8224C12.5473 18.5205 12.6748 18.2557 12.8972 18.0066C13.5171 17.2458 14.2127 16.4135 14.7963 15.6677C15.0616 15.364 15.2575 15.1019 15.3618 14.9198H15.1957C14.793 15.3354 13.9692 15.5976 13.1796 15.5976C11.1063 15.5976 9.58594 14.119 9.58594 12.098ZM11.6702 12.0023C11.6702 13.1616 12.6619 14.0084 13.9872 14.0084C15.3051 14.0084 16.2925 13.1712 16.2925 12.0023C16.2925 10.8506 15.2955 9.98459 13.9776 9.98459C12.6619 9.98459 11.6702 10.841 11.6702 12.0023Z" fill="white"/>
</svg>
