<svg width="28" height="28" viewBox="0 0 28 28" fill="none" xmlns="http://www.w3.org/2000/svg">
<path d="M14.105 26.21C20.7369 26.21 26.2121 20.7273 26.2121 14.105C26.2121 7.47312 20.7273 2 14.0954 2C7.47523 2 2 7.47312 2 14.105C2 20.7273 7.48484 26.21 14.105 26.21ZM14.105 23.8255C8.71085 23.8255 4.39412 19.4991 4.39412 14.105C4.39412 8.71085 8.70124 4.38452 14.0954 4.38452C19.4895 4.38452 23.8276 8.71085 23.8276 14.105C23.8276 19.4991 19.4991 23.8255 14.105 23.8255Z" fill="black"/>
<path d="M14.7392 19.4328C15.4478 19.4328 15.872 18.9985 15.872 18.2073V9.98889C15.872 9.21851 15.4032 8.76124 14.646 8.76124C14.1428 8.76124 13.7727 8.89741 13.2172 9.27312L11.1859 10.6416C10.8733 10.8608 10.7383 11.0766 10.7383 11.4244C10.7383 11.8573 11.0617 12.2373 11.5021 12.2373C11.7128 12.2373 11.8448 12.2117 12.1417 12.0073L13.5416 11.0829H13.6396V18.2073C13.6396 18.9985 14.0596 19.4328 14.7392 19.4328Z" fill="black"/>
</svg>
