<svg width="28" height="28" viewBox="0 0 28 28" fill="none" xmlns="http://www.w3.org/2000/svg">
<path d="M6.84421 24.8972H21.0295C23.5685 24.8972 24.8737 23.5919 24.8737 21.0914V6.82921C24.8737 4.32656 23.5685 3.02344 21.0295 3.02344H6.84421C4.31484 3.02344 3 4.31695 3 6.82921V21.0914C3 23.6016 4.31484 24.8972 6.84421 24.8972ZM6.97733 22.6013C5.88772 22.6013 5.29592 22.0371 5.29592 20.8985V7.01999C5.29592 5.88139 5.88772 5.31936 6.97733 5.31936H20.8964C21.9764 5.31936 22.5778 5.88139 22.5778 7.01999V20.8985C22.5778 22.0371 21.9764 22.6013 20.8964 22.6013H6.97733Z" fill="black"/>
<path d="M10.0038 18.8817C11.9688 18.8817 13.2921 17.0641 13.2921 13.9427C13.2921 10.8192 11.9688 9.00375 10.0038 9.00375C8.03672 9.00375 6.73242 10.8192 6.73242 13.9427C6.73242 17.0641 8.03672 18.8817 10.0038 18.8817ZM10.0123 17.3119C9.02976 17.3119 8.40679 16.0915 8.40679 13.9427C8.40679 11.794 9.02976 10.5736 10.0123 10.5736C10.9948 10.5736 11.6156 11.794 11.6156 13.9427C11.6156 16.0915 11.0044 17.3119 10.0123 17.3119ZM19.4325 18.8625C19.9286 18.8625 20.2043 18.5196 20.2043 18.0394V16.7916H20.7464C21.1882 16.7916 21.4586 16.534 21.4586 16.0901C21.4586 15.6366 21.1882 15.3609 20.7464 15.3609H20.2043V10.2394C20.2043 9.47953 19.7186 9.00375 18.9429 9.00375C18.202 9.00375 17.756 9.29109 17.3587 9.98414C16.4768 11.4982 15.4092 13.3894 14.7168 14.6934C14.5261 15.0736 14.4527 15.3736 14.4527 15.7301C14.4527 16.3955 14.8638 16.7958 15.5205 16.7958H18.6724V18.0394C18.6724 18.51 18.948 18.8625 19.4325 18.8625ZM18.6724 15.3673H16.0921V15.3204C16.7076 14.1016 17.786 12.1446 18.618 10.6849H18.6724V15.3673Z" fill="black"/>
</svg>
