<svg width="28" height="28" viewBox="0 0 28 28" fill="none" xmlns="http://www.w3.org/2000/svg">
<path d="M6.84421 24.8972H21.0295C23.5685 24.8972 24.8737 23.5919 24.8737 21.0914V6.82921C24.8737 4.32656 23.5685 3.02344 21.0295 3.02344H6.84421C4.31484 3.02344 3 4.31695 3 6.82921V21.0914C3 23.6016 4.31484 24.8972 6.84421 24.8972Z" fill="black"/>
<path d="M10.8421 19.0774C9.23617 19.0774 7.94922 18.0949 7.64875 17.0154C7.59976 16.8525 7.57422 16.7109 7.57422 16.5384C7.57422 16.068 7.90937 15.7507 8.33429 15.7507C8.70695 15.7507 8.91976 15.9403 9.08687 16.3207C9.39695 17.0885 10.0047 17.5088 10.8602 17.5088C11.8874 17.5088 12.5873 16.8752 12.5873 16.0474C12.5873 15.1643 11.9355 14.5873 10.9094 14.5873H10.3201C9.85539 14.5873 9.5732 14.2509 9.5732 13.8094C9.5732 13.3219 9.87016 13.0069 10.3201 13.0069H10.8592C11.7391 13.0069 12.3205 12.4247 12.3205 11.647C12.3205 10.8771 11.7297 10.3598 10.8667 10.3598C10.0284 10.3598 9.51109 10.7758 9.23945 11.5457C9.10328 11.924 8.88507 12.1179 8.49859 12.1179C8.0589 12.1179 7.75445 11.7984 7.75445 11.3205C7.75445 11.1576 7.76289 11.014 7.81492 10.8384C8.125 9.7413 9.29617 8.80591 10.9115 8.80591C12.733 8.80591 13.9977 9.86927 13.9977 11.4161C13.9977 12.5107 13.24 13.4932 12.2638 13.653V13.7318C13.4404 13.8502 14.2909 14.8687 14.2909 16.1325C14.2909 17.8627 12.8887 19.0774 10.8421 19.0774ZM19.1474 18.9504C18.6304 18.9504 18.3088 18.6141 18.3088 18.0504V10.9975H18.2502L17.1172 11.8624C16.8318 12.1082 16.6914 12.1495 16.45 12.1495C16.0626 12.1495 15.7037 11.8036 15.7037 11.3723C15.7037 11.0243 15.8645 10.7805 16.1549 10.5541L17.8555 9.3445C18.325 8.99458 18.5994 8.87528 19.0169 8.87528C19.6199 8.87528 19.9914 9.28286 19.9914 9.88801V18.0504C19.9914 18.6141 19.6794 18.9504 19.1474 18.9504Z" fill="white"/>
</svg>
