<svg width="28" height="28" viewBox="0 0 28 28" fill="none" xmlns="http://www.w3.org/2000/svg">
<path d="M6.84421 24.8972H21.0295C23.5685 24.8972 24.8737 23.5919 24.8737 21.0914V6.82921C24.8737 4.32656 23.5685 3.02344 21.0295 3.02344H6.84421C4.31484 3.02344 3 4.31695 3 6.82921V21.0914C3 23.6016 4.31484 24.8972 6.84421 24.8972Z" fill="black"/>
<path d="M7.89093 18.8152C7.42265 18.8152 7.0929 18.5023 7.0929 18.0096C7.0929 17.7171 7.18218 17.4724 7.42992 17.212L10.3833 13.7384C10.9416 13.0725 11.5397 12.4455 11.5397 11.711C11.5397 10.9153 10.9542 10.3725 10.0903 10.3725C9.31171 10.3725 8.76891 10.7723 8.48625 11.5914C8.33063 11.9674 8.12742 12.1898 7.73156 12.1898C7.27172 12.1898 6.98438 11.8715 6.98438 11.4021C6.98438 11.2446 7.02164 11.0976 7.04929 10.9326C7.37203 9.70849 8.62828 8.80591 10.0591 8.80591C11.9344 8.80591 13.1278 9.89669 13.132 11.5652C13.1341 12.7448 12.4999 13.6036 11.603 14.6529L9.48164 17.123V17.2209H12.6312C13.0811 17.2209 13.4036 17.4987 13.4036 18.0042C13.4036 18.4969 13.0811 18.8152 12.6312 18.8152H7.89093ZM17.8197 19.0774C16.2042 19.0774 15.243 18.1936 15.0248 17.5341C14.9632 17.3723 14.9217 17.1935 14.9217 17.0456C14.9217 16.5984 15.2144 16.2823 15.6358 16.2823C15.948 16.2823 16.1896 16.4133 16.4057 16.7468C16.6839 17.231 17.1736 17.5404 17.7963 17.5404C19.1287 17.5404 19.9289 16.1414 19.9118 13.9711H19.8436C19.5419 14.7809 18.7842 15.443 17.5443 15.443C15.9729 15.443 14.6329 14.2828 14.6329 12.2718C14.6329 10.1517 15.9508 8.80591 17.9604 8.80591C20.2464 8.80591 21.4987 10.5274 21.4987 13.6134C21.4987 17.1736 20.2085 19.0774 17.8197 19.0774ZM18.0457 14.0625C19.061 14.0625 19.7723 13.2809 19.7723 12.1985C19.7723 11.0639 19.0514 10.2651 18.0457 10.2651C16.9961 10.2651 16.3253 11.0254 16.3253 12.1793C16.3253 13.2809 17.0175 14.0625 18.0457 14.0625Z" fill="white"/>
</svg>
