<svg width="28" height="28" viewBox="0 0 28 28" fill="none" xmlns="http://www.w3.org/2000/svg">
<path d="M14.105 26.21C20.7369 26.21 26.2121 20.7273 26.2121 14.105C26.2121 7.47312 20.7273 2 14.0954 2C7.47523 2 2 7.47312 2 14.105C2 20.7273 7.48484 26.21 14.105 26.21ZM14.105 23.8255C8.71085 23.8255 4.39412 19.4991 4.39412 14.105C4.39412 8.71085 8.70124 4.38452 14.0954 4.38452C19.4895 4.38452 23.8276 8.71085 23.8276 14.105C23.8276 19.4991 19.4991 23.8255 14.105 23.8255Z" fill="black"/>
<path d="M9.63172 19.5277C10.2277 19.5277 10.5779 19.1445 10.5779 18.4761V12.1257H10.6855L13.1319 18.4053C13.3098 18.8652 13.6004 19.0855 14.0794 19.0855C14.5531 19.0855 14.8587 18.8715 15.0312 18.4074L17.5053 12.1257H17.6033V18.4761C17.6033 19.1349 17.9534 19.5277 18.5302 19.5277C19.1337 19.5277 19.486 19.1445 19.486 18.4761V9.79483C19.486 9.06171 18.972 8.55945 18.2305 8.55945C17.5731 8.55945 17.1453 8.86999 16.9133 9.48358L14.1326 16.6522H14.0698L11.2679 9.48358C11.0455 8.86788 10.6177 8.55945 9.96031 8.55945C9.20914 8.55945 8.69727 9.06171 8.69727 9.79483V18.4761C8.69727 19.1349 9.05492 19.5277 9.63172 19.5277Z" fill="black"/>
</svg>
