<svg width="28" height="28" viewBox="0 0 28 28" fill="none" xmlns="http://www.w3.org/2000/svg">
<path d="M14.105 26.21C20.7369 26.21 26.2121 20.7273 26.2121 14.105C26.2121 7.47312 20.7273 2 14.0954 2C7.47523 2 2 7.47312 2 14.105C2 20.7273 7.48484 26.21 14.105 26.21Z" fill="black"/>
<path d="M10.2821 18.493C9.77984 18.493 9.42969 18.1545 9.42969 17.6682V10.973C9.42969 10.457 9.77023 10.1122 10.2533 10.1122C10.7204 10.1122 11.0546 10.4176 11.0546 10.9787V11.1003C11.4094 10.407 11.9846 10.0834 12.6664 10.0834C13.4209 10.0834 14.0291 10.4094 14.3731 11.1092L15.8645 7.55164C15.9774 7.29899 16.149 7.14336 16.4038 7.14336C16.7256 7.14336 16.9803 7.37141 16.9803 7.67938C16.9803 7.79024 16.9473 7.89899 16.9121 7.98852L15.9758 10.2151C16.1314 10.1544 16.3081 10.1171 16.5242 10.1171C17.9094 10.1171 18.8033 11.0909 18.8033 12.668V17.6373C18.8033 18.1545 18.4532 18.493 17.9626 18.493C17.4678 18.493 17.1273 18.1545 17.1273 17.6373V12.9139C17.1273 12.143 16.7253 11.6494 16.0503 11.6494C15.3657 11.6494 14.9467 12.1623 14.9467 12.9523V17.6373C14.9467 18.1545 14.6061 18.493 14.1207 18.493C13.6471 18.493 13.315 18.1735 13.315 17.6816V16.7956L11.8838 20.6394C11.7826 20.9037 11.5876 21.0573 11.3328 21.0573C11.011 21.0573 10.7776 20.8196 10.7776 20.5116C10.7776 20.4029 10.801 20.292 10.8437 20.1929L13.3044 13.594V12.8466C13.3044 12.143 12.8715 11.6398 12.2521 11.6398C11.5482 11.6398 11.1174 12.1911 11.1174 13.0004V17.6373C11.1174 18.1545 10.7769 18.493 10.2821 18.493Z" fill="white"/>
</svg>
