<svg width="28" height="28" viewBox="0 0 28 28" fill="none" xmlns="http://www.w3.org/2000/svg">
<path d="M14.105 26.21C20.7369 26.21 26.2121 20.7273 26.2121 14.105C26.2121 7.47312 20.7273 2 14.0954 2C7.47523 2 2 7.47312 2 14.105C2 20.7273 7.48484 26.21 14.105 26.21ZM14.105 23.8255C8.71085 23.8255 4.39412 19.4991 4.39412 14.105C4.39412 8.71085 8.70124 4.38452 14.0954 4.38452C19.4895 4.38452 23.8276 8.71085 23.8276 14.105C23.8276 19.4991 19.4991 23.8255 14.105 23.8255Z" fill="black"/>
<path d="M10.8548 19.3147H17.4795C18.0387 19.3147 18.4376 18.969 18.4376 18.4159C18.4376 17.8531 18.0429 17.5159 17.4795 17.5159H12.6966V17.4137L17.7 10.6175C17.9998 10.2399 18.0636 10.0442 18.0636 9.69241C18.0636 9.11163 17.6487 8.71484 17.0424 8.71484H10.7219C10.1585 8.71484 9.77344 9.05421 9.77344 9.60944C9.77344 10.1722 10.1648 10.5158 10.7219 10.5158H15.2541V10.6137L10.2452 17.4099C9.93891 17.8154 9.85289 18.0364 9.85289 18.3659C9.85289 18.9254 10.2581 19.3147 10.8548 19.3147Z" fill="black"/>
</svg>
