<svg width="28" height="28" viewBox="0 0 28 28" fill="none" xmlns="http://www.w3.org/2000/svg">
<path d="M6.84421 24.8972H21.0295C23.5685 24.8972 24.8737 23.5919 24.8737 21.0914V6.82921C24.8737 4.32656 23.5685 3.02344 21.0295 3.02344H6.84421C4.31484 3.02344 3 4.31695 3 6.82921V21.0914C3 23.6016 4.31484 24.8972 6.84421 24.8972ZM6.97733 22.6013C5.88772 22.6013 5.29592 22.0371 5.29592 20.8985V7.01999C5.29592 5.88139 5.88772 5.31936 6.97733 5.31936H20.8964C21.9764 5.31936 22.5778 5.88139 22.5778 7.01999V20.8985C22.5778 22.0371 21.9764 22.6013 20.8964 22.6013H6.97733Z" fill="black"/>
<path d="M10.0966 18.8817C12.0698 18.8817 13.4167 17.7202 13.4167 16.0495C13.4167 14.839 12.6055 13.8523 11.4684 13.7435V13.6669C12.3955 13.5091 13.1256 12.5682 13.1256 11.513C13.1256 10.0257 11.9163 9.00378 10.1659 9.00378C8.61015 9.00378 7.48046 9.89558 7.1821 10.9554C7.14179 11.1289 7.12585 11.2587 7.12585 11.4195C7.12585 11.8793 7.41437 12.1828 7.83812 12.1828C8.20656 12.1828 8.41305 11.9911 8.545 11.6288C8.80281 10.8844 9.31796 10.478 10.1308 10.478C10.9532 10.478 11.5302 10.9835 11.5302 11.7279C11.5302 12.4843 10.9605 13.0505 10.1233 13.0505H9.59383C9.15438 13.0505 8.87125 13.3516 8.87125 13.8094C8.87125 14.2329 9.14172 14.5533 9.59383 14.5533H10.1638C11.1665 14.5533 11.7852 15.1165 11.7852 15.9645C11.7852 16.7709 11.1067 17.3906 10.1146 17.3906C9.29218 17.3906 8.69827 16.9821 8.40202 16.2377C8.24874 15.8733 8.02843 15.6858 7.68343 15.6858C7.27655 15.6858 6.95312 15.9893 6.95312 16.4395C6.95312 16.6099 6.97116 16.7398 7.02015 16.8984C7.3164 17.9386 8.55554 18.8817 10.0966 18.8817ZM17.9767 18.8817C19.9862 18.8817 21.3554 17.7394 21.3554 16.0739C21.3554 14.8912 20.6256 13.965 19.4329 13.7072V13.6305C20.4393 13.3587 21.0198 12.5424 21.0198 11.5334C21.0198 10.0353 19.7795 9.00378 17.9959 9.00378C16.2219 9.00378 14.9837 10.0353 14.9837 11.5334C14.9837 12.5424 15.5525 13.3394 16.5707 13.6305V13.7072C15.3566 13.965 14.6481 14.9009 14.6481 16.0835C14.6481 17.7586 15.9768 18.8817 17.9767 18.8817ZM18.0076 17.547C17.004 17.547 16.2819 16.8954 16.2819 15.9612C16.2819 15.0462 17.004 14.3733 18.0076 14.3733C19.0283 14.3733 19.7312 15.0366 19.7312 15.9612C19.7312 16.8954 19.0091 17.547 18.0076 17.547ZM17.9959 13.088C17.1683 13.088 16.5913 12.4971 16.5913 11.693C16.5913 10.8868 17.1704 10.3322 17.9959 10.3322C18.8331 10.3322 19.4122 10.8868 19.4122 11.693C19.4122 12.4971 18.8352 13.088 17.9959 13.088Z" fill="black"/>
</svg>
