<svg width="28" height="28" viewBox="0 0 28 28" fill="none" xmlns="http://www.w3.org/2000/svg">
<path d="M6.84421 24.8972H21.0295C23.5685 24.8972 24.8737 23.5919 24.8737 21.0914V6.82921C24.8737 4.32656 23.5685 3.02344 21.0295 3.02344H6.84421C4.31484 3.02344 3 4.31695 3 6.82921V21.0914C3 23.6016 4.31484 24.8972 6.84421 24.8972Z" fill="black"/>
<path d="M10.0993 19.0774C8.04922 19.0774 6.69922 17.1949 6.69922 13.9427C6.69922 10.6905 8.04922 8.80594 10.0993 8.80594C12.1355 8.80594 13.5162 10.6905 13.5162 13.9427C13.5162 17.1949 12.1355 19.0774 10.0993 19.0774ZM10.1077 17.4279C11.1329 17.4279 11.758 16.1723 11.758 13.9427C11.758 11.7131 11.1233 10.4576 10.1077 10.4576C9.09007 10.4576 8.45538 11.7131 8.45538 13.9427C8.45538 16.1723 9.09007 17.4279 10.1077 17.4279ZM15.7294 18.8152C15.2611 18.8152 14.9314 18.5023 14.9314 18.0096C14.9314 17.7171 15.0208 17.4724 15.2684 17.212L18.2196 13.7384C18.78 13.0725 19.3783 12.4455 19.3783 11.711C19.3783 10.9153 18.8023 10.3725 17.9288 10.3725C17.1502 10.3725 16.5978 10.7723 16.3247 11.5915C16.1745 11.9674 15.9659 12.1898 15.5679 12.1898C15.106 12.1898 14.8228 11.8716 14.8228 11.4021C14.8228 11.2446 14.8559 11.0977 14.8878 10.9327C15.2063 9.70852 16.4764 8.80594 17.8976 8.80594C19.7729 8.80594 20.9621 9.89672 20.9684 11.5652C20.9726 12.7448 20.3481 13.6036 19.4415 14.6529L17.3201 17.123V17.2209H20.4675C20.9196 17.2209 21.2421 17.4987 21.2421 18.0042C21.2421 18.4969 20.9196 18.8152 20.4675 18.8152H15.7294Z" fill="white"/>
</svg>
