<svg width="28" height="28" viewBox="0 0 28 28" fill="none" xmlns="http://www.w3.org/2000/svg">
<path d="M14.105 26.21C20.7369 26.21 26.2121 20.7273 26.2121 14.105C26.2121 7.47312 20.7273 2 14.0954 2C7.47523 2 2 7.47312 2 14.105C2 20.7273 7.48484 26.21 14.105 26.21ZM14.105 23.8255C8.71085 23.8255 4.39412 19.4991 4.39412 14.105C4.39412 8.71085 8.70124 4.38452 14.0954 4.38452C19.4895 4.38452 23.8276 8.71085 23.8276 14.105C23.8276 19.4991 19.4991 23.8255 14.105 23.8255Z" fill="black"/>
<path d="M14.0945 19.5758C17.0924 19.5758 19.2025 17.3422 19.2025 14.0185C19.2025 10.6874 17.0924 8.45166 14.0945 8.45166C11.1041 8.45166 8.99609 10.6874 8.99609 14.0185C8.99609 17.3422 11.1041 19.5758 14.0945 19.5758ZM14.0945 17.8124C12.3634 17.8124 11.2074 16.348 11.2074 14.0185C11.2074 11.6795 12.3634 10.2172 14.0945 10.2172C15.8256 10.2172 16.9794 11.6795 16.9794 14.0185C16.9794 16.348 15.8256 17.8124 14.0945 17.8124Z" fill="black"/>
</svg>
