<svg width="28" height="28" viewBox="0 0 28 28" fill="none" xmlns="http://www.w3.org/2000/svg">
<path d="M14.105 26.21C20.7369 26.21 26.2121 20.7273 26.2121 14.105C26.2121 7.47312 20.7273 2 14.0954 2C7.47523 2 2 7.47312 2 14.105C2 20.7273 7.48484 26.21 14.105 26.21ZM14.105 23.8255C8.71085 23.8255 4.39412 19.4991 4.39412 14.105C4.39412 8.71085 8.70124 4.38452 14.0954 4.38452C19.4895 4.38452 23.8276 8.71085 23.8276 14.105C23.8276 19.4991 19.4991 23.8255 14.105 23.8255Z" fill="black"/>
<path d="M15.6239 19.4328C16.2518 19.4328 16.621 19.04 16.621 18.3387V17.3396H17.3787C17.9445 17.3396 18.3136 16.9927 18.3136 16.4619C18.3136 15.931 17.9562 15.5745 17.3829 15.5745H16.621V9.99358C16.621 9.14772 15.9551 8.56484 14.989 8.56484C14.0253 8.56484 13.4581 8.89999 12.9176 9.74444C11.8077 11.4481 10.4916 13.4356 9.62023 14.8911C9.37531 15.3327 9.27734 15.6666 9.27734 16.0477C9.27734 16.8277 9.8232 17.3396 10.6766 17.3396H14.6557V18.3387C14.6557 19.0304 15.0228 19.4328 15.6239 19.4328ZM14.6557 15.5745H11.2775V15.5021C12.0837 14.0787 13.4466 11.9872 14.5578 10.2558H14.6557V15.5745Z" fill="black"/>
</svg>
