<svg width="28" height="28" viewBox="0 0 28 28" fill="none" xmlns="http://www.w3.org/2000/svg">
<path d="M6.84421 24.8972H21.0295C23.5685 24.8972 24.8737 23.5919 24.8737 21.0914V6.82921C24.8737 4.32656 23.5685 3.02344 21.0295 3.02344H6.84421C4.31484 3.02344 3 4.31695 3 6.82921V21.0914C3 23.6016 4.31484 24.8972 6.84421 24.8972Z" fill="black"/>
<path d="M13.9676 19.6261C13.0142 19.6261 12.5326 19.2274 12.1782 18.2489L9.05187 9.9138C8.98063 9.68411 8.94336 9.52029 8.94336 9.31287C8.94336 8.64936 9.44328 8.19092 10.1365 8.19092C10.7958 8.19092 11.1415 8.50358 11.3534 9.22334L13.9153 17.0484H14.0037L16.5753 9.22334C16.7871 8.49936 17.1307 8.19092 17.79 8.19092C18.4854 8.19092 18.9799 8.63764 18.9799 9.30443C18.9799 9.50974 18.9544 9.6799 18.8789 9.9138L15.7664 18.2128C15.4174 19.1805 14.8868 19.6261 13.9676 19.6261Z" fill="white"/>
</svg>
