<svg width="28" height="28" viewBox="0 0 28 28" fill="none" xmlns="http://www.w3.org/2000/svg">
<path d="M6.84421 24.8972H21.0295C23.5685 24.8972 24.8737 23.5919 24.8737 21.0914V6.82921C24.8737 4.32656 23.5685 3.02344 21.0295 3.02344H6.84421C4.31484 3.02344 3 4.31695 3 6.82921V21.0914C3 23.6016 4.31484 24.8972 6.84421 24.8972ZM6.97733 22.6013C5.88772 22.6013 5.29592 22.0371 5.29592 20.8985V7.01999C5.29592 5.88139 5.88772 5.31936 6.97733 5.31936H20.8964C21.9764 5.31936 22.5778 5.88139 22.5778 7.01999V20.8985C22.5778 22.0371 21.9764 22.6013 20.8964 22.6013H6.97733Z" fill="black"/>
<path d="M10.7909 18.7643C11.3028 18.7643 11.6105 18.4439 11.6105 17.9046V10.0338C11.6105 9.45302 11.2454 9.06138 10.6742 9.06138C10.2727 9.06138 10.0067 9.18067 9.56493 9.51255L7.9229 10.6786C7.64095 10.9008 7.48438 11.1307 7.48438 11.4607C7.48438 11.8781 7.82516 12.2081 8.19665 12.2081C8.43172 12.2081 8.5604 12.1668 8.82993 11.9369L9.92985 11.0955H9.99594V17.9046C9.99594 18.4439 10.2941 18.7643 10.7909 18.7643ZM18.3012 18.8625C18.7974 18.8625 19.073 18.5196 19.073 18.0394V16.7916H19.6248C20.0569 16.7916 20.3274 16.534 20.3274 16.0901C20.3274 15.6366 20.0569 15.3609 19.6248 15.3609H19.073V10.2393C19.073 9.4795 18.5874 9.00372 17.8116 9.00372C17.0708 9.00372 16.6248 9.29106 16.2371 9.98411C15.3455 11.4982 14.278 13.3894 13.5856 14.6934C13.4044 15.0736 13.3215 15.3736 13.3215 15.7301C13.3215 16.3955 13.7422 16.7958 14.3893 16.7958H17.5412V18.0394C17.5412 18.51 17.8168 18.8625 18.3012 18.8625ZM17.5412 15.3673H14.9609V15.3204C15.5764 14.1016 16.6547 12.1446 17.4868 10.6849H17.5412V15.3673Z" fill="black"/>
</svg>
