<svg width="28" height="28" viewBox="0 0 28 28" fill="none" xmlns="http://www.w3.org/2000/svg">
<path d="M6.84421 24.8972H21.0295C23.5685 24.8972 24.8737 23.5919 24.8737 21.0914V6.82921C24.8737 4.32656 23.5685 3.02344 21.0295 3.02344H6.84421C4.31484 3.02344 3 4.31695 3 6.82921V21.0914C3 23.6016 4.31484 24.8972 6.84421 24.8972Z" fill="black"/>
<path d="M9.98227 19.0774C7.93969 19.0774 6.58008 17.1949 6.58008 13.9427C6.58008 10.6905 7.93969 8.80594 9.98227 8.80594C12.0281 8.80594 13.3971 10.6905 13.3971 13.9427C13.3971 17.1949 12.0281 19.0774 9.98227 19.0774ZM9.98859 17.4279C11.0159 17.4279 11.6506 16.1723 11.6506 13.9427C11.6506 11.7131 11.0063 10.4576 9.98859 10.4576C8.98265 10.4576 8.33835 11.7131 8.33835 13.9427C8.33835 16.1723 8.98265 17.4279 9.98859 17.4279ZM17.9421 19.0774C16.3479 19.0774 15.0706 18.0949 14.7626 17.0154C14.7115 16.8525 14.6839 16.7109 14.6839 16.5384C14.6839 16.068 15.0328 15.7507 15.4481 15.7507C15.8091 15.7507 16.0315 15.9403 16.1986 16.3207C16.5183 17.0885 17.1164 17.5088 17.9623 17.5088C18.9896 17.5088 19.7011 16.8752 19.7011 16.0474C19.7011 15.1643 19.0493 14.5873 18.0286 14.5873H17.4298C16.9692 14.5873 16.6828 14.2509 16.6828 13.8094C16.6828 13.3219 16.9798 13.0069 17.4298 13.0069H17.971C18.8529 13.0069 19.4323 12.4247 19.4323 11.647C19.4323 10.8771 18.8435 10.3598 17.9881 10.3598C17.1422 10.3598 16.6207 10.7759 16.3512 11.5458C16.215 11.9241 15.9947 12.1179 15.6124 12.1179C15.1728 12.1179 14.8683 11.7984 14.8683 11.3205C14.8683 11.1577 14.8746 11.014 14.9267 10.8384C15.2367 9.74133 16.4079 8.80594 18.0211 8.80594C19.8448 8.80594 21.1095 9.8693 21.1095 11.4162C21.1095 12.5107 20.3539 13.4932 19.3756 13.653V13.7318C20.5542 13.8502 21.4123 14.8687 21.4123 16.1325C21.4123 17.8627 20.0025 19.0774 17.9421 19.0774Z" fill="white"/>
</svg>
