<svg width="28" height="28" viewBox="0 0 28 28" fill="none" xmlns="http://www.w3.org/2000/svg">
<path d="M6.84421 24.8972H21.0295C23.5685 24.8972 24.8737 23.5919 24.8737 21.0914V6.82921C24.8737 4.32656 23.5685 3.02344 21.0295 3.02344H6.84421C4.31484 3.02344 3 4.31695 3 6.82921V21.0914C3 23.6016 4.31484 24.8972 6.84421 24.8972Z" fill="black"/>
<path d="M7.95703 18.8152C7.48125 18.8152 7.15148 18.5023 7.15148 18.0096C7.15148 17.7171 7.25039 17.4724 7.4864 17.212L10.4398 13.7384C11.0002 13.0725 11.6004 12.4455 11.6004 11.711C11.6004 10.9153 11.0107 10.3725 10.1468 10.3725C9.37031 10.3725 8.82539 10.7723 8.54695 11.5914C8.3871 11.9674 8.18812 12.1898 7.78804 12.1898C7.33781 12.1898 7.04297 11.8715 7.04297 11.4021C7.04297 11.2446 7.07813 11.0976 7.10789 10.9326C7.42852 9.70849 8.68688 8.80591 10.1177 8.80591C11.993 8.80591 13.1939 9.89669 13.1981 11.5652C13.2003 12.7448 12.5681 13.6036 11.6691 14.6529L9.53062 17.123V17.2209H12.6877C13.1398 17.2209 13.4623 17.4987 13.4623 18.0042C13.4623 18.4969 13.1398 18.8152 12.6877 18.8152H7.95703ZM19.4982 19.0582C18.986 19.0582 18.7158 18.6919 18.7158 18.1915V16.9127H15.4479C14.7614 16.9127 14.3227 16.4944 14.3227 15.7992C14.3227 15.4247 14.4078 15.1088 14.6028 14.7105C15.326 13.3575 16.4213 11.4089 17.3363 9.83622C17.7516 9.1113 18.2136 8.80591 18.9905 8.80591C19.8003 8.80591 20.3114 9.31356 20.3114 10.1053V15.4099H20.8674C21.3176 15.4099 21.6019 15.7036 21.6019 16.1752C21.6019 16.635 21.3176 16.9064 20.8674 16.9064H20.3114V18.1915C20.3114 18.7036 20.022 19.0582 19.4982 19.0582ZM18.7158 15.4162V10.5668H18.6422C17.7942 12.085 16.6903 14.1016 16.0535 15.3694V15.4162H18.7158Z" fill="white"/>
</svg>
