<svg width="28" height="28" viewBox="0 0 28 28" fill="none" xmlns="http://www.w3.org/2000/svg">
<path d="M14.105 26.21C20.7369 26.21 26.2121 20.7273 26.2121 14.105C26.2121 7.47312 20.7273 2 14.0954 2C7.47523 2 2 7.47312 2 14.105C2 20.7273 7.48484 26.21 14.105 26.21Z" fill="black"/>
<path d="M11.5915 19.2161C11.089 19.2161 10.7995 18.8498 10.7995 18.3516V17.0728H7.54125C6.86437 17.0728 6.42773 16.6544 6.42773 15.9593C6.42773 15.5847 6.5032 15.2688 6.69398 14.8706C7.41188 13.5218 8.51462 11.5711 9.43173 9.99634C9.84493 9.27142 10.3069 8.96814 11.0838 8.96814C11.8936 8.96814 12.4048 9.47369 12.4048 10.2654V15.57H12.9703C13.4206 15.57 13.7049 15.8615 13.7049 16.3352C13.7049 16.7951 13.4206 17.0665 12.9703 17.0665H12.4048V18.3516C12.4048 18.8595 12.1153 19.2161 11.5915 19.2161ZM10.7995 15.5763V10.7269H10.7452C9.87797 12.2493 8.77406 14.2617 8.13726 15.5294V15.5763H10.7995ZM18.319 19.2354C16.2457 19.2354 14.85 18.0729 14.85 16.3265C14.85 15.1003 15.6 14.125 16.8418 13.8555V13.7768C15.7885 13.4761 15.2112 12.6471 15.2112 11.5988C15.2112 10.0432 16.4951 8.96814 18.3404 8.96814C20.1856 8.96814 21.4674 10.0432 21.4674 11.5988C21.4674 12.6471 20.8688 13.4953 19.8251 13.7768V13.8555C21.0764 14.125 21.8264 15.0907 21.8264 16.3169C21.8264 18.0536 20.4136 19.2354 18.319 19.2354ZM18.35 17.839C19.3749 17.839 20.1247 17.1619 20.1247 16.2021C20.1247 15.2423 19.3962 14.5556 18.35 14.5556C17.3112 14.5556 16.5657 15.2519 16.5657 16.2021C16.5657 17.1619 17.3112 17.839 18.35 17.839ZM18.3404 13.214C19.1914 13.214 19.7918 12.5976 19.7918 11.768C19.7918 10.9383 19.1893 10.3624 18.3404 10.3624C17.4797 10.3624 16.8868 10.9383 16.8868 11.768C16.8868 12.5976 17.4851 13.214 18.3404 13.214Z" fill="white"/>
</svg>
