<svg width="28" height="28" viewBox="0 0 28 28" fill="none" xmlns="http://www.w3.org/2000/svg">
<path d="M14.105 26.2151C20.7369 26.2151 26.2121 20.7303 26.2121 14.108C26.2121 7.47828 20.7273 2.00305 14.0954 2.00305C7.47523 2.00305 2 7.47828 2 14.108C2 20.7303 7.48484 26.2151 14.105 26.2151ZM14.105 23.8306C8.71085 23.8306 4.39412 19.5022 4.39412 14.108C4.39412 8.71389 8.70124 4.38756 14.0954 4.38756C19.4895 4.38756 23.8276 8.71389 23.8276 14.108C23.8276 19.5022 19.4991 23.8306 14.105 23.8306Z" fill="black"/>
<path d="M14.0429 19.644C16.6182 19.644 18.2169 18.3409 18.2169 16.482C18.2169 15.1161 17.2046 14.0272 15.8087 13.9046V13.794C16.9573 13.6266 17.8651 12.5696 17.8651 11.3792C17.8651 9.73132 16.3367 8.56788 14.1315 8.56788C12.1834 8.56788 10.7272 9.42898 10.3855 10.7759C10.3419 10.9505 10.3142 11.0984 10.3142 11.2848C10.3142 11.8156 10.7047 12.1721 11.2726 12.1721C11.724 12.1721 12.0038 11.9708 12.1791 11.548C12.4571 10.7534 13.1246 10.2617 14.1005 10.2617C15.148 10.2617 15.7911 10.7822 15.7911 11.6239C15.7911 12.4857 15.0711 13.1225 14.0537 13.1225H13.4335C12.9041 13.1225 12.5487 13.4534 12.5487 13.9651C12.5487 14.4533 12.9083 14.8001 13.4335 14.8001H14.1113C15.3132 14.8001 16.1122 15.436 16.1122 16.3822C16.1122 17.3103 15.3015 17.9216 14.0886 17.9216C12.9453 17.9216 12.2853 17.3743 11.9956 16.6353C11.7936 16.2146 11.5116 16.0208 11.0773 16.0208C10.5116 16.0208 10.1211 16.3869 10.1211 16.9273C10.1211 17.1137 10.1391 17.2423 10.1923 17.4169C10.5629 18.7351 12.1159 19.644 14.0429 19.644Z" fill="black"/>
</svg>
