<svg width="28" height="28" viewBox="0 0 28 28" fill="none" xmlns="http://www.w3.org/2000/svg">
<path d="M14.105 26.21C20.7369 26.21 26.2121 20.7273 26.2121 14.105C26.2121 7.47312 20.7273 2 14.0954 2C7.47523 2 2 7.47312 2 14.105C2 20.7273 7.48484 26.21 14.105 26.21ZM14.105 23.8255C8.71085 23.8255 4.39412 19.4991 4.39412 14.105C4.39412 8.71085 8.70124 4.38452 14.0954 4.38452C19.4895 4.38452 23.8276 8.71085 23.8276 14.105C23.8276 19.4991 19.4991 23.8255 14.105 23.8255Z" fill="black"/>
<path d="M11.5562 19.468C12.2849 19.468 12.6827 18.9882 12.6827 18.2213V16.0473H14.7951C17.1224 16.0473 18.6724 14.5965 18.6724 12.3896C18.6724 10.1827 17.1192 8.71484 14.8153 8.71484H11.5909C10.8414 8.71484 10.4512 9.19577 10.4512 9.97623V18.2213C10.4512 18.9711 10.8468 19.468 11.5562 19.468ZM12.6827 14.3813V10.3808H14.493C15.7502 10.3808 16.5128 11.1326 16.5128 12.3917C16.5128 13.6252 15.7577 14.3813 14.493 14.3813H12.6827Z" fill="black"/>
</svg>
