<svg width="28" height="28" viewBox="0 0 28 28" fill="none" xmlns="http://www.w3.org/2000/svg">
<path d="M6.84421 24.8972H21.0295C23.5685 24.8972 24.8737 23.5919 24.8737 21.0914V6.82921C24.8737 4.32656 23.5685 3.02344 21.0295 3.02344H6.84421C4.31484 3.02344 3 4.31695 3 6.82921V21.0914C3 23.6016 4.31484 24.8972 6.84421 24.8972Z" fill="black"/>
<path d="M9.8532 19.0774C7.81274 19.0774 6.45312 17.1949 6.45312 13.9427C6.45312 10.6905 7.81274 8.80594 9.8532 8.80594C11.9087 8.80594 13.2681 10.6905 13.2681 13.9427C13.2681 17.1949 11.9087 19.0774 9.8532 19.0774ZM9.85953 17.4279C10.8964 17.4279 11.5119 16.1723 11.5119 13.9427C11.5119 11.7131 10.8868 10.4576 9.85953 10.4576C8.84398 10.4576 8.2189 11.7131 8.2189 13.9427C8.2189 16.1723 8.84398 17.4279 9.85953 17.4279ZM18.0552 19.0774C16.0051 19.0774 14.6551 17.1949 14.6551 13.9427C14.6551 10.6905 16.0051 8.80594 18.0552 8.80594C20.101 8.80594 21.47 10.6905 21.47 13.9427C21.47 17.1949 20.101 19.0774 18.0552 19.0774ZM18.0615 17.4279C19.0984 17.4279 19.7139 16.1723 19.7139 13.9427C19.7139 11.7131 19.0888 10.4576 18.0615 10.4576C17.046 10.4576 16.4209 11.7131 16.4209 13.9427C16.4209 16.1723 17.046 17.4279 18.0615 17.4279Z" fill="white"/>
</svg>
