<svg width="28" height="28" viewBox="0 0 28 28" fill="none" xmlns="http://www.w3.org/2000/svg">
<path d="M6.84421 24.8972H21.0295C23.5685 24.8972 24.8737 23.5919 24.8737 21.0914V6.82921C24.8737 4.32656 23.5685 3.02344 21.0295 3.02344H6.84421C4.31484 3.02344 3 4.31695 3 6.82921V21.0914C3 23.6016 4.31484 24.8972 6.84421 24.8972Z" fill="black"/>
<path d="M10.4416 18.9504C9.92453 18.9504 9.60297 18.6141 9.60297 18.0504V10.9975H9.54648L8.4114 11.8624C8.12804 12.1082 7.98765 12.1495 7.74414 12.1495C7.35672 12.1495 7 11.8036 7 11.3723C7 11.0243 7.16078 10.7805 7.45117 10.5541L9.1518 9.3445C9.62125 8.99458 9.89148 8.87528 10.3131 8.87528C10.9162 8.87528 11.2876 9.28286 11.2876 9.88801V18.0504C11.2876 18.6141 10.9757 18.9504 10.4416 18.9504ZM16.934 19.0774C15.3184 19.0774 14.3476 18.1936 14.1411 17.5341C14.0774 17.3723 14.038 17.1935 14.038 17.0456C14.038 16.5984 14.3211 16.2823 14.7404 16.2823C15.0526 16.2823 15.3039 16.4133 15.52 16.7468C15.7907 17.231 16.292 17.5404 16.9105 17.5404C18.2333 17.5404 19.0431 16.1414 19.026 13.9711H18.9482C18.6561 14.7809 17.8909 15.443 16.6511 15.443C15.0871 15.443 13.7472 14.2828 13.7472 12.2718C13.7472 10.1517 15.0672 8.80591 17.0746 8.80591C19.3511 8.80591 20.6129 10.5274 20.6129 13.6134C20.6129 17.1736 19.3269 19.0774 16.934 19.0774ZM17.1503 14.0625C18.1773 14.0625 18.8748 13.2809 18.8748 12.1985C18.8748 11.0639 18.1581 10.2651 17.1599 10.2651C16.1104 10.2651 15.43 11.0254 15.43 12.1793C15.43 13.2809 16.1317 14.0625 17.1503 14.0625Z" fill="white"/>
</svg>
