<svg width="28" height="28" viewBox="0 0 28 28" fill="none" xmlns="http://www.w3.org/2000/svg">
<path d="M14.105 26.21C20.7369 26.21 26.2121 20.7273 26.2121 14.105C26.2121 7.47312 20.7273 2 14.0954 2C7.47523 2 2 7.47312 2 14.105C2 20.7273 7.48484 26.21 14.105 26.21ZM14.105 23.8255C8.71085 23.8255 4.39412 19.4991 4.39412 14.105C4.39412 8.71085 8.70124 4.38452 14.0954 4.38452C19.4895 4.38452 23.8276 8.71085 23.8276 14.105C23.8276 19.4991 19.4991 23.8255 14.105 23.8255Z" fill="black"/>
<path d="M13.9556 19.5757C16.6502 19.5757 18.4066 18.2751 18.4066 16.2236C18.4066 14.6409 17.2943 13.7538 15.2423 13.2536L13.7395 12.8782C12.6124 12.6105 12.1689 12.2275 12.1689 11.5718C12.1689 10.6992 12.8932 10.152 14.0172 10.152C15.0785 10.152 15.7526 10.5595 16.1667 11.4267C16.4184 11.8177 16.6772 12.0138 17.1457 12.0138C17.6852 12.0138 18.0684 11.7127 18.0684 11.142C18.0684 10.958 18.0248 10.7398 17.9238 10.5162C17.4565 9.32673 16.0228 8.46118 14.0749 8.46118C11.6147 8.46118 9.91571 9.80767 9.91571 11.7195C9.91571 13.2361 10.9104 14.122 12.7732 14.5879L14.3501 15.0093C15.7214 15.3581 16.166 15.6696 16.166 16.4118C16.166 17.3367 15.2711 17.8455 14.0918 17.8455C12.971 17.8455 12.1957 17.4262 11.7265 16.5752C11.4713 16.169 11.202 15.9825 10.7716 15.9825C10.197 15.9825 9.82031 16.3486 9.82031 16.9106C9.82031 17.1096 9.86391 17.3161 9.97031 17.5333C10.4196 18.6225 11.8502 19.5757 13.9556 19.5757Z" fill="black"/>
</svg>
