<svg width="28" height="28" viewBox="0 0 28 28" fill="none" xmlns="http://www.w3.org/2000/svg">
<path d="M14.105 26.21C20.7369 26.21 26.2121 20.7273 26.2121 14.105C26.2121 7.47312 20.7273 2 14.0954 2C7.47523 2 2 7.47312 2 14.105C2 20.7273 7.48484 26.21 14.105 26.21Z" fill="black"/>
<path d="M9.99203 19.2376C7.94945 19.2376 6.58984 17.3551 6.58984 14.1029C6.58984 10.8507 7.94945 8.96606 9.99203 8.96606C12.0379 8.96606 13.4069 10.8507 13.4069 14.1029C13.4069 17.3551 12.0379 19.2376 9.99203 19.2376ZM9.99836 17.5881C11.0352 17.5881 11.6507 16.3325 11.6507 14.1029C11.6507 11.8733 11.0256 10.6177 9.99836 10.6177C8.98281 10.6177 8.34812 11.8733 8.34812 14.1029C8.34812 16.3325 8.98281 17.5881 9.99836 17.5881ZM18.1919 19.2376C16.1419 19.2376 14.7919 17.3551 14.7919 14.1029C14.7919 10.8507 16.1419 8.96606 18.1919 8.96606C20.2282 8.96606 21.6089 10.8507 21.6089 14.1029C21.6089 17.3551 20.2282 19.2376 18.1919 19.2376ZM18.2004 17.5881C19.2373 17.5881 19.8506 16.3325 19.8506 14.1029C19.8506 11.8733 19.2255 10.6177 18.2004 10.6177C17.1848 10.6177 16.548 11.8733 16.548 14.1029C16.548 16.3325 17.1848 17.5881 18.2004 17.5881Z" fill="white"/>
</svg>
