<svg width="28" height="28" viewBox="0 0 28 28" fill="none" xmlns="http://www.w3.org/2000/svg">
<path d="M14.105 26.21C20.7369 26.21 26.2121 20.7273 26.2121 14.105C26.2121 7.47312 20.7273 2 14.0954 2C7.47523 2 2 7.47312 2 14.105C2 20.7273 7.48484 26.21 14.105 26.21ZM14.105 23.8255C8.71085 23.8255 4.39412 19.4991 4.39412 14.105C4.39412 8.71085 8.70124 4.38452 14.0954 4.38452C19.4895 4.38452 23.8276 8.71085 23.8276 14.105C23.8276 19.4991 19.4991 23.8255 14.105 23.8255Z" fill="black"/>
<path d="M12.9633 19.5153C16.2792 19.5153 18.2164 17.1094 18.2164 15.0254C18.2164 14.4943 17.8866 14.1474 17.3963 14.1474C16.958 14.1474 16.6568 14.4059 16.5558 14.9661C16.3597 16.4619 15.1575 17.8201 13.4372 17.8201V14.297L15.8105 13.3344C16.0674 13.2256 16.1846 13.0541 16.1846 12.8026C16.1846 12.4871 15.9703 12.2591 15.6507 12.2591C15.5569 12.2591 15.4472 12.2825 15.3492 12.3198L13.4372 13.1087V12.046L15.8105 11.0813C16.0674 10.963 16.1846 10.801 16.1846 10.5516C16.1846 10.2341 15.9703 9.9964 15.6507 9.9964C15.5569 9.9964 15.4472 10.0316 15.3492 10.0667L13.4372 10.8481V9.49483C13.4372 8.94054 13.0948 8.58734 12.5916 8.58734C12.0788 8.58734 11.7385 8.94054 11.7385 9.49483V11.5175L10.3524 12.0941C10.088 12.2007 9.96875 12.3626 9.96875 12.6237C9.96875 12.9392 10.1926 13.1694 10.5123 13.1694C10.6081 13.1694 10.7061 13.1438 10.8137 13.0969L11.7385 12.7154V13.7802L10.3524 14.345C10.088 14.4537 9.96875 14.6253 9.96875 14.8768C9.96875 15.1923 10.1926 15.4203 10.5123 15.4203C10.6081 15.4203 10.7061 15.3969 10.8137 15.3596L11.7385 14.9684V18.3891C11.7385 19.0611 12.1615 19.5153 12.9633 19.5153Z" fill="black"/>
</svg>
