<svg width="28" height="28" viewBox="0 0 28 28" fill="none" xmlns="http://www.w3.org/2000/svg">
<path d="M14.105 26.21C20.7369 26.21 26.2121 20.7273 26.2121 14.105C26.2121 7.47312 20.7273 2 14.0954 2C7.47523 2 2 7.47312 2 14.105C2 20.7273 7.48484 26.21 14.105 26.21Z" fill="black"/>
<path d="M11.3897 19.5209C10.5881 19.5209 10.1777 19.0219 10.1777 18.197V9.8304C10.1777 9.00963 10.5902 8.50854 11.3897 8.50854H16.9355C17.5085 8.50854 17.9011 8.84041 17.9011 9.42658C17.9011 9.99775 17.5085 10.3563 16.9355 10.3563H12.4753V13.0883H16.6782C17.2111 13.0883 17.5847 13.3958 17.5847 13.9524C17.5847 14.4823 17.2111 14.7856 16.6782 14.7856H12.4753V17.6731H16.9355C17.5085 17.6731 17.9011 18.0146 17.9011 18.6008C17.9011 19.1719 17.5085 19.5209 16.9355 19.5209H11.3897Z" fill="white"/>
</svg>
