<svg width="28" height="28" viewBox="0 0 28 28" fill="none" xmlns="http://www.w3.org/2000/svg">
<path d="M14.105 26.21C20.7369 26.21 26.2121 20.7273 26.2121 14.105C26.2121 7.47312 20.7273 2 14.0954 2C7.47523 2 2 7.47312 2 14.105C2 20.7273 7.48484 26.21 14.105 26.21Z" fill="black"/>
<path d="M14.279 21.2068C13.9476 21.2068 13.7003 20.9691 13.7003 20.6185V19.8362C11.0598 19.5462 9.40234 17.4575 9.40234 14.142C9.40234 10.8737 11.0727 8.74366 13.7003 8.45679V7.64608C13.7003 7.29546 13.9379 7.06741 14.279 7.06741C14.6083 7.06741 14.8555 7.29546 14.8555 7.64608V8.43757C16.5433 8.60491 17.9343 9.58437 18.4532 10.9688C18.5202 11.1723 18.5692 11.3682 18.5692 11.5855C18.5692 12.0908 18.2298 12.4292 17.7381 12.4292C17.2581 12.4292 17.0462 12.2419 16.8442 11.7762C16.5505 10.9093 15.7912 10.2788 14.8555 10.1305V13.7199H17.8541C18.4349 13.7199 18.8104 14.0731 18.8104 14.6499V15.1812C18.8104 17.8707 17.4119 19.6592 14.8555 19.8458V20.6185C14.8555 20.9691 14.6083 21.2068 14.279 21.2068ZM13.7003 18.1569V10.1497C12.2151 10.4663 11.3223 11.9504 11.3223 14.1336C11.3223 16.3393 12.2193 17.8318 13.7003 18.1569ZM14.8555 18.1995C16.1673 18.0001 16.9321 16.9827 16.9321 15.5288V15.2888H14.8555V18.1995Z" fill="white"/>
</svg>
