<svg width="28" height="28" viewBox="0 0 28 28" fill="none" xmlns="http://www.w3.org/2000/svg">
<path d="M6.84421 24.8972H21.0295C23.5685 24.8972 24.8737 23.5919 24.8737 21.0914V6.82921C24.8737 4.32656 23.5685 3.02344 21.0295 3.02344H6.84421C4.31484 3.02344 3 4.31695 3 6.82921V21.0914C3 23.6016 4.31484 24.8972 6.84421 24.8972ZM6.97733 22.6013C5.88772 22.6013 5.29592 22.0371 5.29592 20.8985V7.01999C5.29592 5.88139 5.88772 5.31936 6.97733 5.31936H20.8964C21.9764 5.31936 22.5778 5.88139 22.5778 7.01999V20.8985C22.5778 22.0371 21.9764 22.6013 20.8964 22.6013H6.97733Z" fill="black"/>
<path d="M9.9825 18.8817C11.955 18.8817 13.2687 17.0641 13.2687 13.9427C13.2687 10.8192 11.955 9.00375 9.9825 9.00375C8.01328 9.00375 6.70898 10.8192 6.70898 13.9427C6.70898 17.0641 8.01328 18.8817 9.9825 18.8817ZM9.98883 17.3119C9.00633 17.3119 8.39296 16.0915 8.39296 13.9427C8.39296 11.794 9.00633 10.5736 9.98883 10.5736C10.981 10.5736 11.5943 11.794 11.5943 13.9427C11.5943 16.0915 10.9906 17.3119 9.98883 17.3119ZM17.8782 18.8817C19.8528 18.8817 21.1664 17.0641 21.1664 13.9427C21.1664 10.8192 19.8528 9.00375 17.8782 9.00375C15.911 9.00375 14.6046 10.8192 14.6046 13.9427C14.6046 17.0641 15.911 18.8817 17.8782 18.8817ZM17.8866 17.3119C16.9041 17.3119 16.2907 16.0915 16.2907 13.9427C16.2907 11.794 16.9041 10.5736 17.8866 10.5736C18.8766 10.5736 19.49 11.794 19.49 13.9427C19.49 16.0915 18.8862 17.3119 17.8866 17.3119Z" fill="black"/>
</svg>
