<svg width="28" height="28" viewBox="0 0 28 28" fill="none" xmlns="http://www.w3.org/2000/svg">
<path d="M6.84421 24.8972H21.0295C23.5685 24.8972 24.8737 23.5919 24.8737 21.0914V6.82921C24.8737 4.32656 23.5685 3.02344 21.0295 3.02344H6.84421C4.31484 3.02344 3 4.31695 3 6.82921V21.0914C3 23.6016 4.31484 24.8972 6.84421 24.8972Z" fill="black"/>
<path d="M13.9899 19.6987C11.3491 19.6987 9.5918 18.086 9.5918 15.6813C9.5918 14.3435 10.1625 13.0003 11.3541 11.4239C11.914 10.672 12.6544 9.73781 13.3627 8.81507C13.6018 8.51319 13.8858 8.19632 14.397 8.19632C15.0631 8.19632 15.3692 8.6346 15.3713 9.07382C15.3713 9.32928 15.2637 9.5421 15.0753 9.80295C14.5367 10.4951 13.8232 11.3866 13.276 12.0886C12.9368 12.5344 12.7823 12.7453 12.6344 12.9752L12.7718 13.0041C13.1618 12.6192 13.9718 12.3049 14.7931 12.3049C16.8919 12.3049 18.3741 13.7953 18.3741 15.7896C18.3741 18.0691 16.6062 19.6987 13.9899 19.6987ZM13.9899 17.9222C15.3216 17.9222 16.2994 17.0445 16.2994 15.9044C16.2994 14.7452 15.3216 13.9101 13.9899 13.9101C12.674 13.9101 11.6887 14.7452 11.6887 15.8852C11.6887 17.0445 12.6837 17.9222 13.9899 17.9222Z" fill="white"/>
</svg>
