<svg width="28" height="28" viewBox="0 0 28 28" fill="none" xmlns="http://www.w3.org/2000/svg">
<path d="M6.84421 24.8972H21.0295C23.5685 24.8972 24.8737 23.5919 24.8737 21.0914V6.82921C24.8737 4.32656 23.5685 3.02344 21.0295 3.02344H6.84421C4.31484 3.02344 3 4.31695 3 6.82921V21.0914C3 23.6016 4.31484 24.8972 6.84421 24.8972Z" fill="black"/>
<path d="M14.6435 19.4831C13.9256 19.4831 13.4854 19.0308 13.4854 18.1992V10.8227H13.395L11.9343 11.7726C11.6214 11.993 11.4895 12.0185 11.2724 12.0185C10.814 12.0185 10.4629 11.6205 10.4629 11.1696C10.4629 10.7995 10.6117 10.5698 10.9307 10.3465L13.0429 8.92265C13.6207 8.53101 14.0184 8.39273 14.546 8.39273C15.3414 8.39273 15.8303 8.87226 15.8303 9.67663V18.1992C15.8303 19.0308 15.386 19.4831 14.6435 19.4831Z" fill="white"/>
</svg>
