<svg width="28" height="28" viewBox="0 0 28 28" fill="none" xmlns="http://www.w3.org/2000/svg">
<path d="M6.84421 24.8972H21.0295C23.5685 24.8972 24.8737 23.5919 24.8737 21.0914V6.82921C24.8737 4.32656 23.5685 3.02344 21.0295 3.02344H6.84421C4.31484 3.02344 3 4.31695 3 6.82921V21.0914C3 23.6016 4.31484 24.8972 6.84421 24.8972ZM6.97733 22.6013C5.88772 22.6013 5.29592 22.0371 5.29592 20.8985V7.01999C5.29592 5.88139 5.88772 5.31936 6.97733 5.31936H20.8964C21.9764 5.31936 22.5778 5.88139 22.5778 7.01999V20.8985C22.5778 22.0371 21.9764 22.6013 20.8964 22.6013H6.97733Z" fill="black"/>
<path d="M7.97578 18.6312H12.5447C12.967 18.6312 13.2736 18.3267 13.2736 17.8542C13.2736 17.3784 12.967 17.1049 12.5447 17.1049H9.49101V17.0208L11.5516 14.621C12.4188 13.6153 13.0275 12.7884 13.0254 11.6503C13.0191 10.0509 11.8617 9.00372 10.0577 9.00372C8.6843 9.00372 7.46742 9.86481 7.16273 11.0454C7.13297 11.2083 7.10742 11.3435 7.10742 11.4968C7.10742 11.9461 7.37883 12.2505 7.82062 12.2505C8.20054 12.2505 8.39742 12.0323 8.54343 11.6723C8.80476 10.8862 9.34336 10.4906 10.0889 10.4906C10.9369 10.4906 11.4914 11.0196 11.4914 11.7918C11.4914 12.5029 10.9284 13.1044 10.3744 13.7501L7.52109 17.1002C7.30101 17.3543 7.20422 17.5852 7.20422 17.8596C7.20422 18.3321 7.51593 18.6312 7.97578 18.6312ZM17.8742 18.8913C19.741 18.8913 21.0603 17.6395 21.0603 15.5372C21.0603 13.5933 19.7407 12.5095 18.2827 12.5095C17.1122 12.5095 16.3702 13.1641 16.0931 13.8933H16.0132C16.0111 13.8391 16.009 13.7925 16.009 13.7098C16.009 11.7269 16.83 10.4653 18.0277 10.4653C18.6408 10.4653 19.0707 10.7681 19.3468 11.1808C19.5418 11.4527 19.7281 11.5954 20.0689 11.5954C20.4106 11.5954 20.7064 11.325 20.7064 10.9108C20.7064 10.7332 20.6766 10.5841 20.5957 10.4128C20.3007 9.66349 19.3885 9.00372 18.0863 9.00372C15.8921 9.00372 14.4828 10.7257 14.4828 14.1659C14.4828 15.5196 14.7066 16.5478 15.0903 17.2861C15.671 18.4195 16.6767 18.8913 17.8742 18.8913ZM17.7954 17.4884C16.8153 17.4884 16.1295 16.7152 16.1295 15.6178C16.1295 14.5706 16.8056 13.8241 17.7954 13.8241C18.7789 13.8241 19.4571 14.561 19.4571 15.6274C19.4571 16.7632 18.8002 17.4884 17.7954 17.4884Z" fill="black"/>
</svg>
