<svg width="28" height="28" viewBox="0 0 28 28" fill="none" xmlns="http://www.w3.org/2000/svg">
<path d="M6.84421 24.8972H21.0295C23.5685 24.8972 24.8737 23.5919 24.8737 21.0914V6.82921C24.8737 4.32656 23.5685 3.02344 21.0295 3.02344H6.84421C4.31484 3.02344 3 4.31695 3 6.82921V21.0914C3 23.6016 4.31484 24.8972 6.84421 24.8972ZM6.97733 22.6013C5.88772 22.6013 5.29592 22.0371 5.29592 20.8985V7.01999C5.29592 5.88139 5.88772 5.31936 6.97733 5.31936H20.8964C21.9764 5.31936 22.5778 5.88139 22.5778 7.01999V20.8985C22.5778 22.0371 21.9764 22.6013 20.8964 22.6013H6.97733Z" fill="black"/>
<path d="M11.5566 18.7643C12.0588 18.7643 12.3666 18.4439 12.3666 17.9046V10.0338C12.3666 9.45304 12.011 9.0614 11.4302 9.0614C11.0266 9.0614 10.7723 9.18069 10.3188 9.51257L8.6789 10.6786C8.39695 10.9008 8.25 11.1307 8.25 11.4607C8.25 11.8781 8.59078 12.2081 8.96226 12.2081C9.18773 12.2081 9.3164 12.1669 9.59554 11.9369L10.6859 11.0955H10.752V17.9046C10.752 18.4439 11.0597 18.7643 11.5566 18.7643ZM17.6719 18.7643C18.1742 18.7643 18.4819 18.4439 18.4819 17.9046V10.0338C18.4819 9.45304 18.1264 9.0614 17.5456 9.0614C17.1441 9.0614 16.8877 9.18069 16.4363 9.51257L14.8039 10.6786C14.5123 10.9008 14.3653 11.1307 14.3653 11.4607C14.3653 11.8781 14.7061 12.2081 15.0776 12.2081C15.3031 12.2081 15.4414 12.1669 15.7109 11.9369L16.8108 11.0955H16.8673V17.9046C16.8673 18.4439 17.175 18.7643 17.6719 18.7643Z" fill="black"/>
</svg>
