<svg width="28" height="28" viewBox="0 0 28 28" fill="none" xmlns="http://www.w3.org/2000/svg">
<path d="M6 15.7898C6 16.2054 6.33352 16.5389 6.74906 16.5389H9.12422V23.2833C9.12422 24.1364 9.72187 24.7458 10.5581 24.7458C11.3944 24.7458 12.0037 24.1364 12.0037 23.2833V16.5389H16.1369C20.2781 16.5389 22.968 13.8183 22.968 10.0144C22.968 6.20321 20.3374 3.46008 16.2258 3.46008H10.5792C9.67804 3.46008 9.12422 4.04156 9.12422 4.98093V15.0408H6.74906C6.33352 15.0408 6 15.3743 6 15.7898ZM12.0037 14.1907V5.88678H15.4472C18.4673 5.88678 20.0299 7.48194 20.0299 10.027C20.0299 12.5881 18.4481 14.1907 15.4409 14.1907H12.0037ZM6 20.2912C6 20.6984 6.3293 21.0373 6.73641 21.0373H17.5029C17.91 21.0373 18.2393 20.6984 18.2393 20.2912C18.2393 19.8937 17.91 19.5548 17.5029 19.5548H6.73641C6.3293 19.5548 6 19.8937 6 20.2912Z" fill="black"/>
</svg>
