<svg width="28" height="28" viewBox="0 0 28 28" fill="none" xmlns="http://www.w3.org/2000/svg">
<path d="M14.105 26.21C20.7369 26.21 26.2121 20.7273 26.2121 14.105C26.2121 7.47312 20.7273 2 14.0954 2C7.47523 2 2 7.47312 2 14.105C2 20.7273 7.48484 26.21 14.105 26.21ZM14.105 23.8255C8.71085 23.8255 4.39412 19.4991 4.39412 14.105C4.39412 8.71085 8.70124 4.38452 14.0954 4.38452C19.4895 4.38452 23.8276 8.71085 23.8276 14.105C23.8276 19.4991 19.4991 23.8255 14.105 23.8255Z" fill="black"/>
<path d="M14.0753 19.6409C16.6651 19.6409 18.3981 18.3687 18.3981 16.4694C18.3981 15.1623 17.451 14.1116 16.0321 13.8514V13.7642C17.2356 13.4223 17.9528 12.5291 17.9528 11.3987C17.9528 9.71233 16.3839 8.56483 14.0945 8.56483C11.7934 8.56483 10.2341 9.71233 10.2341 11.3987C10.2341 12.5291 10.9224 13.4009 12.1473 13.7642V13.8514C10.7284 14.1116 9.78125 15.174 9.78125 16.479C9.78125 18.388 11.4854 19.6409 14.0753 19.6409ZM14.1041 18.1388C12.8572 18.1388 11.9569 17.3923 11.9569 16.3494C11.9569 15.3331 12.8668 14.5728 14.1041 14.5728C15.351 14.5728 16.232 15.3235 16.232 16.3494C16.232 17.3923 15.3318 18.1388 14.1041 18.1388ZM14.0945 13.1673C13.0534 13.1673 12.3078 12.5103 12.3078 11.6016C12.3078 10.7143 13.0555 10.0648 14.0945 10.0648C15.1335 10.0648 15.8715 10.7143 15.8715 11.6016C15.8715 12.5103 15.1281 13.1673 14.0945 13.1673Z" fill="black"/>
</svg>
