<svg width="28" height="28" viewBox="0 0 28 28" fill="none" xmlns="http://www.w3.org/2000/svg">
<path d="M6.84421 24.8972H21.0295C23.5685 24.8972 24.8737 23.5919 24.8737 21.0914V6.82921C24.8737 4.32656 23.5685 3.02344 21.0295 3.02344H6.84421C4.31484 3.02344 3 4.31695 3 6.82921V21.0914C3 23.6016 4.31484 24.8972 6.84421 24.8972ZM6.97733 22.6013C5.88772 22.6013 5.29592 22.0371 5.29592 20.8985V7.01999C5.29592 5.88139 5.88772 5.31936 6.97733 5.31936H20.8964C21.9764 5.31936 22.5778 5.88139 22.5778 7.01999V20.8985C22.5778 22.0371 21.9764 22.6013 20.8964 22.6013H6.97733Z" fill="black"/>
<path d="M13.9419 19.4156C14.571 19.4156 15.167 19.3132 15.684 19.118L16.3905 20.0761C16.6405 20.4537 16.8948 20.5844 17.249 20.5844C17.7329 20.5844 18.0786 20.2547 18.0786 19.7812C18.0786 19.5471 18.002 19.377 17.773 19.0692L17.1838 18.2794C18.3486 17.3173 19.0478 15.7657 19.0478 13.8584C19.0478 10.5368 16.9398 8.2915 13.9419 8.2915C10.942 8.2915 8.83398 10.5368 8.83398 13.8584C8.83398 17.1724 10.942 19.4156 13.9419 19.4156ZM13.9419 17.6522C12.2087 17.6522 11.0549 16.1878 11.0549 13.8584C11.0549 11.5193 12.2087 10.057 13.9419 10.057C15.6826 10.057 16.8365 11.5193 16.8365 13.8584C16.8365 15.049 16.5088 16.0294 15.9346 16.6587L15.3679 15.9019C15.2015 15.6916 15.0404 15.618 14.7878 15.618C14.3863 15.618 14.0594 15.9173 14.0594 16.3092C14.0594 16.5084 14.1276 16.6683 14.2694 16.872L14.7508 17.5327C14.5075 17.6138 14.2429 17.6522 13.9419 17.6522Z" fill="black"/>
</svg>
