<svg width="28" height="28" viewBox="0 0 28 28" fill="none" xmlns="http://www.w3.org/2000/svg">
<path d="M14.105 26.21C20.7369 26.21 26.2121 20.7273 26.2121 14.105C26.2121 7.47312 20.7273 2 14.0954 2C7.47523 2 2 7.47312 2 14.105C2 20.7273 7.48484 26.21 14.105 26.21ZM14.105 23.8255C8.71085 23.8255 4.39412 19.4991 4.39412 14.105C4.39412 8.71085 8.70124 4.38452 14.0954 4.38452C19.4895 4.38452 23.8276 8.71085 23.8276 14.105C23.8276 19.4991 19.4991 23.8255 14.105 23.8255Z" fill="black"/>
<path d="M14.0914 19.5758C16.172 19.5758 17.837 18.6019 18.4121 17.041C18.5026 16.8216 18.5324 16.6419 18.5324 16.4408C18.5324 15.8727 18.159 15.5258 17.5614 15.5258C17.1402 15.5258 16.8594 15.7205 16.6382 16.1654C16.1957 17.1915 15.3104 17.7526 14.1212 17.7526C12.4203 17.7526 11.2909 16.2671 11.2909 14.0185C11.2909 11.7699 12.4203 10.2749 14.1233 10.2749C15.3104 10.2749 16.1957 10.8402 16.6403 11.8801C16.8657 12.3333 17.1318 12.5101 17.5614 12.5101C18.159 12.5101 18.5324 12.1632 18.5324 11.5951C18.5324 11.3844 18.5026 11.2142 18.4121 10.9928C17.8274 9.44143 16.1678 8.45166 14.0914 8.45166C11.0352 8.45166 9.0625 10.6325 9.0625 14.0185C9.0625 17.4066 11.0256 19.5758 14.0914 19.5758Z" fill="black"/>
</svg>
