<svg width="28" height="28" viewBox="0 0 28 28" fill="none" xmlns="http://www.w3.org/2000/svg">
<path d="M6.84421 24.8972H21.0295C23.5685 24.8972 24.8737 23.5919 24.8737 21.0914V6.82921C24.8737 4.32656 23.5685 3.02344 21.0295 3.02344H6.84421C4.31484 3.02344 3 4.31695 3 6.82921V21.0914C3 23.6016 4.31484 24.8972 6.84421 24.8972Z" fill="black"/>
<path d="M10.2254 19.5279C9.48851 19.5279 9.05469 19.0312 9.05469 18.1997V9.50736C9.05469 8.67791 9.48851 8.18127 10.2254 8.18127C10.9911 8.18127 11.427 8.67041 11.427 9.50736V12.8027H16.4869V9.50736C16.4869 8.67791 16.9325 8.18127 17.6694 8.18127C18.4351 8.18127 18.8689 8.67041 18.8689 9.50736V18.1997C18.8689 19.0387 18.4351 19.5279 17.6694 19.5279C16.9325 19.5279 16.4869 19.0312 16.4869 18.1997V14.6383H11.427V18.1997C11.427 19.0387 10.9911 19.5279 10.2254 19.5279Z" fill="white"/>
</svg>
