<svg width="28" height="28" viewBox="0 0 28 28" fill="none" xmlns="http://www.w3.org/2000/svg">
<path d="M14.105 26.21C20.7369 26.21 26.2121 20.7273 26.2121 14.105C26.2121 7.47312 20.7273 2 14.0954 2C7.47523 2 2 7.47312 2 14.105C2 20.7273 7.48484 26.21 14.105 26.21ZM14.105 23.8255C8.71085 23.8255 4.39412 19.4991 4.39412 14.105C4.39412 8.71085 8.70124 4.38452 14.0954 4.38452C19.4895 4.38452 23.8276 8.71085 23.8276 14.105C23.8276 19.4991 19.4991 23.8255 14.105 23.8255Z" fill="black"/>
<path d="M13.559 19.5662C15.9466 19.5662 17.2752 18.2766 17.2752 15.9678V9.82295C17.2752 9.04554 16.8616 8.55945 16.1362 8.55945C15.4183 8.55945 15.0185 9.06265 15.0185 9.82295V15.9233C15.0185 17.0256 14.4925 17.6549 13.6085 17.6549C12.8245 17.6549 12.2943 17.2677 12.0447 16.5798C11.8391 16.0648 11.5244 15.8331 11.0141 15.8331C10.3994 15.8352 9.98242 16.2617 9.98242 16.8627C9.98242 17.0766 10.0176 17.2714 10.0804 17.4598C10.4969 18.7355 11.8363 19.5662 13.559 19.5662Z" fill="black"/>
</svg>
