<svg width="28" height="28" viewBox="0 0 28 28" fill="none" xmlns="http://www.w3.org/2000/svg">
<path d="M6.84421 24.8972H21.0295C23.5685 24.8972 24.8737 23.5919 24.8737 21.0914V6.82921C24.8737 4.32656 23.5685 3.02344 21.0295 3.02344H6.84421C4.31484 3.02344 3 4.31695 3 6.82921V21.0914C3 23.6016 4.31484 24.8972 6.84421 24.8972Z" fill="black"/>
<path d="M10.6044 19.3608C9.98336 19.3608 9.54837 18.9534 9.54837 18.3696C9.54837 18.022 9.65571 17.7926 9.96086 17.3712L15.1486 10.3397V10.23H10.4791C9.87415 10.23 9.4668 9.87797 9.4668 9.28337C9.4668 8.70376 9.86993 8.34845 10.4791 8.34845H17.0367C17.6695 8.34845 18.1045 8.7654 18.1045 9.36633C18.1045 9.74039 18.0269 9.94242 17.7187 10.338L12.5343 17.3674V17.4792H17.478C18.0871 17.4792 18.4903 17.827 18.4903 18.4216C18.4903 18.9991 18.0829 19.3608 17.478 19.3608H10.6044Z" fill="white"/>
</svg>
