<svg width="28" height="28" viewBox="0 0 28 28" fill="none" xmlns="http://www.w3.org/2000/svg">
<path d="M14.105 26.21C20.7369 26.21 26.2121 20.7273 26.2121 14.105C26.2121 7.47312 20.7273 2 14.0954 2C7.47523 2 2 7.47312 2 14.105C2 20.7273 7.48484 26.21 14.105 26.21Z" fill="black"/>
<path d="M10.9495 19.688C10.2368 19.688 9.83789 19.19 9.83789 18.4252V9.83046C9.83789 9.0118 10.2483 8.5011 11.0285 8.5011H14.4541C17.0067 8.5011 18.5843 9.86493 18.5843 12.0868C18.5843 13.591 17.6871 14.844 16.2818 15.3001L17.9873 17.9272C18.1629 18.1986 18.2416 18.4135 18.2416 18.7147C18.2416 19.2891 17.815 19.688 17.2045 19.688C16.7034 19.688 16.4172 19.4848 16.0589 18.9106L14.0868 15.6657H12.09V18.4252C12.09 19.2071 11.6773 19.688 10.9495 19.688ZM12.09 14.0136H14.1391C15.453 14.0136 16.2923 13.3302 16.2923 12.1421C16.2923 10.9231 15.4422 10.213 14.1775 10.213H12.09V14.0136Z" fill="white"/>
</svg>
