<svg width="28" height="28" viewBox="0 0 28 28" fill="none" xmlns="http://www.w3.org/2000/svg">
<path d="M6.84421 24.8972H21.0295C23.5685 24.8972 24.8737 23.5919 24.8737 21.0914V6.82921C24.8737 4.32656 23.5685 3.02344 21.0295 3.02344H6.84421C4.31484 3.02344 3 4.31695 3 6.82921V21.0914C3 23.6016 4.31484 24.8972 6.84421 24.8972ZM6.97733 22.6013C5.88772 22.6013 5.29592 22.0371 5.29592 20.8985V7.01999C5.29592 5.88139 5.88772 5.31936 6.97733 5.31936H20.8964C21.9764 5.31936 22.5778 5.88139 22.5778 7.01999V20.8985C22.5778 22.0371 21.9764 22.6013 20.8964 22.6013H6.97733Z" fill="black"/>
<path d="M10.2655 18.1584C10.7402 18.1584 11.0744 17.8359 11.0744 17.3505V12.8871C11.0744 12.0916 11.4838 11.5659 12.1621 11.5659C12.756 11.5659 13.1772 12.0436 13.1772 12.7333V13.4362L10.8112 19.803C10.7664 19.9001 10.7451 20.0013 10.7451 20.108C10.7451 20.4042 10.9689 20.628 11.2748 20.628C11.5274 20.628 11.7086 20.4862 11.8098 20.2336L13.1878 16.5164V17.3885C13.1878 17.8528 13.5114 18.1584 13.9692 18.1584C14.4248 18.1584 14.7494 17.8359 14.7494 17.3505V12.839C14.7494 12.0628 15.1568 11.5755 15.8179 11.5755C16.4695 11.5755 16.8576 12.0436 16.8576 12.8006V17.3505C16.8576 17.8359 17.1822 18.1584 17.6547 18.1584C18.1272 18.1584 18.4614 17.8359 18.4614 17.3505V12.5632C18.4614 11.0435 17.5973 10.1133 16.2653 10.1133C16.0652 10.1133 15.881 10.1484 15.7392 10.207L16.6319 8.06014C16.6671 7.97061 16.7001 7.86936 16.7001 7.76271C16.7001 7.46857 16.4667 7.25224 16.1587 7.25224C15.906 7.25224 15.7345 7.39404 15.6332 7.63709L14.2035 11.066C13.8712 10.3917 13.281 10.0816 12.5638 10.0816C11.9022 10.0816 11.343 10.3894 11.0041 11.0529V10.9312C11.0041 10.3999 10.6837 10.1105 10.2367 10.1105C9.77172 10.1105 9.44922 10.4372 9.44922 10.9235V17.3698C9.44922 17.8359 9.78133 18.1584 10.2655 18.1584Z" fill="black"/>
</svg>
