<svg width="28" height="28" viewBox="0 0 28 28" fill="none" xmlns="http://www.w3.org/2000/svg">
<path d="M14.105 26.21C20.7369 26.21 26.2121 20.7273 26.2121 14.105C26.2121 7.47312 20.7273 2 14.0954 2C7.47523 2 2 7.47312 2 14.105C2 20.7273 7.48484 26.21 14.105 26.21Z" fill="black"/>
<path d="M14.1028 20.9483C13.781 20.9483 13.5454 20.7202 13.5454 20.3867V19.5533C11.8165 19.4094 10.5152 18.4977 10.1691 17.1938C10.1191 17.0555 10.0957 16.9119 10.0957 16.7724C10.0957 16.2873 10.4266 15.9521 10.9275 15.9521C11.3456 15.9521 11.6234 16.1649 11.7956 16.61C11.9885 17.3204 12.5622 17.8623 13.5454 18.002V14.7812L13.3516 14.7345C11.3213 14.2604 10.2593 13.3379 10.2593 11.7584C10.2593 10.0491 11.6309 8.87749 13.5454 8.69093V7.87577C13.5454 7.54226 13.781 7.31421 14.1028 7.31421C14.4225 7.31421 14.6601 7.54226 14.6601 7.87577V8.69093C16.2893 8.86249 17.5251 9.76906 17.8479 11.0276C17.8797 11.1671 17.917 11.3108 17.917 11.4448C17.917 11.9131 17.5722 12.2377 17.0861 12.2377C16.6594 12.2377 16.387 11.997 16.2213 11.5958C15.9837 10.8779 15.4451 10.415 14.6601 10.2753V13.3243L14.9233 13.3805C17.0421 13.7682 18.1106 14.7516 18.1106 16.4112C18.1106 18.2668 16.6268 19.3925 14.6601 19.5704V20.3867C14.6601 20.7202 14.4225 20.9483 14.1028 20.9483ZM13.5454 13.0344V10.2669C12.6082 10.4173 12.0356 10.9751 12.0356 11.6426C12.0356 12.2942 12.4823 12.7325 13.4613 13.0109L13.5454 13.0344ZM14.6601 15.0476V18.002C15.7809 17.8719 16.3364 17.3033 16.3364 16.5355C16.3364 15.8412 15.9633 15.3943 14.8905 15.1095L14.6601 15.0476Z" fill="white"/>
</svg>
