<svg width="28" height="28" viewBox="0 0 28 28" fill="none" xmlns="http://www.w3.org/2000/svg">
<path d="M6.84421 24.8972H21.0295C23.5685 24.8972 24.8737 23.5919 24.8737 21.0914V6.82921C24.8737 4.32656 23.5685 3.02344 21.0295 3.02344H6.84421C4.31484 3.02344 3 4.31695 3 6.82921V21.0914C3 23.6016 4.31484 24.8972 6.84421 24.8972ZM6.97733 22.6013C5.88772 22.6013 5.29592 22.0371 5.29592 20.8985V7.01999C5.29592 5.88139 5.88772 5.31936 6.97733 5.31936H20.8964C21.9764 5.31936 22.5778 5.88139 22.5778 7.01999V20.8985C22.5778 22.0371 21.9764 22.6013 20.8964 22.6013H6.97733Z" fill="black"/>
<path d="M11.0546 18.7643C11.559 18.7643 11.8667 18.4439 11.8667 17.9046V10.0338C11.8667 9.45304 11.5091 9.0614 10.9304 9.0614C10.5268 9.0614 10.2704 9.18069 9.81899 9.51257L8.17906 10.6786C7.89711 10.9008 7.74805 11.1307 7.74805 11.4607C7.74805 11.8781 8.09094 12.2081 8.46031 12.2081C8.68789 12.2081 8.82406 12.1669 9.0957 11.9369L10.186 11.0955H10.2521V17.9046C10.2521 18.4439 10.5598 18.7643 11.0546 18.7643ZM15.5335 18.7739C15.9174 18.7739 16.1506 18.5686 16.3742 18.1216L19.7816 11.1719C19.9468 10.8096 20 10.5776 20 10.3209C20 9.71085 19.5793 9.22546 18.8579 9.22546H14.4242C13.9656 9.22546 13.6454 9.51397 13.6454 9.96936C13.6454 10.4151 13.9719 10.6941 14.4242 10.6941H18.1768V10.7815L14.8098 17.3339C14.6959 17.5308 14.664 17.6862 14.664 17.9257C14.664 18.428 15.0397 18.7739 15.5335 18.7739Z" fill="black"/>
</svg>
