<svg width="28" height="28" viewBox="0 0 28 28" fill="none" xmlns="http://www.w3.org/2000/svg">
<path d="M14.105 26.21C20.7369 26.21 26.2121 20.7273 26.2121 14.105C26.2121 7.47312 20.7273 2 14.0954 2C7.47523 2 2 7.47312 2 14.105C2 20.7273 7.48484 26.21 14.105 26.21Z" fill="black"/>
<path d="M14.0576 19.8589C12.0434 19.8589 10.4266 18.9202 10.0402 17.5447C9.98696 17.3584 9.9668 17.2297 9.9668 17.037C9.9668 16.4647 10.3774 16.0827 10.9772 16.0827C11.4295 16.0827 11.7295 16.2903 11.9358 16.7248C12.2372 17.4873 12.9132 18.0484 14.1012 18.0484C15.3514 18.0484 16.1951 17.4254 16.1951 16.4642C16.1951 15.4925 15.3631 14.8353 14.1239 14.8353H13.4227C12.8773 14.8353 12.4976 14.4725 12.4976 13.9599C12.4976 13.4185 12.8731 13.0695 13.4227 13.0695H14.0663C15.1189 13.0695 15.8644 12.421 15.8644 11.5241C15.8644 10.6569 15.1957 10.1246 14.1132 10.1246C13.1021 10.1246 12.4111 10.628 12.1289 11.4481C11.9398 11.8869 11.6419 12.102 11.1724 12.102C10.5802 12.102 10.1716 11.7275 10.1716 11.1648C10.1716 10.9763 10.1993 10.8242 10.2429 10.6379C10.6027 9.23562 12.1163 8.34687 14.1441 8.34687C16.445 8.34687 18.0371 9.55179 18.0371 11.2752C18.0371 12.507 17.0974 13.6055 15.8956 13.7771V13.8898C17.3489 14.022 18.4027 15.1545 18.4027 16.5683C18.4027 18.5122 16.7403 19.8589 14.0576 19.8589Z" fill="white"/>
</svg>
