<svg width="28" height="28" viewBox="0 0 28 28" fill="none" xmlns="http://www.w3.org/2000/svg">
<path d="M6.84421 24.8972H21.0295C23.5685 24.8972 24.8737 23.5919 24.8737 21.0914V6.82921C24.8737 4.32656 23.5685 3.02344 21.0295 3.02344H6.84421C4.31484 3.02344 3 4.31695 3 6.82921V21.0914C3 23.6016 4.31484 24.8972 6.84421 24.8972Z" fill="black"/>
<path d="M13.9475 19.6987C11.2482 19.6987 9.4707 18.4022 9.4707 16.4177C9.4707 15.0553 10.4572 13.9514 11.9356 13.6774V13.5902C10.6726 13.211 9.94906 12.3115 9.94906 11.1429C9.94906 9.37781 11.5796 8.18671 13.9667 8.18671C16.3559 8.18671 17.9865 9.37781 17.9865 11.1429C17.9865 12.3115 17.2416 13.2323 15.9999 13.5902V13.6774C17.4666 13.9514 18.4552 15.0457 18.4552 16.4081C18.4552 18.383 16.6585 19.6987 13.9475 19.6987ZM13.9784 18.1245C15.2413 18.1245 16.1767 17.3524 16.1767 16.2722C16.1767 15.2112 15.2722 14.4349 13.9784 14.4349C12.7135 14.4349 11.7589 15.2208 11.7589 16.2722C11.7589 17.3524 12.7039 18.1245 13.9784 18.1245ZM13.9667 12.9614C15.0355 12.9614 15.8045 12.2885 15.8045 11.3468C15.8045 10.4339 15.0409 9.7685 13.9667 9.7685C12.8947 9.7685 12.1311 10.4339 12.1311 11.3468C12.1311 12.2885 12.8926 12.9614 13.9667 12.9614Z" fill="white"/>
</svg>
