<svg width="28" height="28" viewBox="0 0 28 28" fill="none" xmlns="http://www.w3.org/2000/svg">
<path d="M6.84421 24.8972H21.0295C23.5685 24.8972 24.8737 23.5919 24.8737 21.0914V6.82921C24.8737 4.32656 23.5685 3.02344 21.0295 3.02344H6.84421C4.31484 3.02344 3 4.31695 3 6.82921V21.0914C3 23.6016 4.31484 24.8972 6.84421 24.8972ZM6.97733 22.6013C5.88772 22.6013 5.29592 22.0371 5.29592 20.8985V7.01999C5.29592 5.88139 5.88772 5.31936 6.97733 5.31936H20.8964C21.9764 5.31936 22.5778 5.88139 22.5778 7.01999V20.8985C22.5778 22.0371 21.9764 22.6013 20.8964 22.6013H6.97733Z" fill="black"/>
<path d="M10.6933 18.7643C11.2073 18.7643 11.5054 18.4439 11.5054 17.9046V10.0338C11.5054 9.45302 11.1477 9.06138 10.5691 9.06138C10.1655 9.06138 9.90907 9.18067 9.46727 9.51255L7.82734 10.6786C7.53578 10.9008 7.38672 11.1307 7.38672 11.4607C7.38672 11.8781 7.72961 12.2081 8.09898 12.2081C8.32656 12.2081 8.46273 12.1668 8.73437 11.9369L9.8343 11.0955H9.89078V17.9046C9.89078 18.4439 10.1985 18.7643 10.6933 18.7643ZM16.9427 18.8817C18.9522 18.8817 20.3214 17.7394 20.3214 16.0739C20.3214 14.8912 19.5916 13.965 18.3989 13.7072V13.6305C19.4053 13.3587 19.9762 12.5423 19.9762 11.5333C19.9762 10.0352 18.7359 9.00372 16.9619 9.00372C15.1879 9.00372 13.9476 10.0352 13.9476 11.5333C13.9476 12.5423 14.5089 13.3394 15.525 13.6305V13.7072C14.3226 13.965 13.6024 14.9009 13.6024 16.0835C13.6024 17.7586 14.9428 18.8817 16.9427 18.8817ZM16.9715 17.547C15.97 17.547 15.2458 16.8954 15.2458 15.9612C15.2458 15.0462 15.97 14.3733 16.9715 14.3733C17.9922 14.3733 18.6972 15.0366 18.6972 15.9612C18.6972 16.8954 17.973 17.547 16.9715 17.547ZM16.9619 13.088C16.1343 13.088 15.5573 12.4971 15.5573 11.6929C15.5573 10.8867 16.1364 10.3322 16.9619 10.3322C17.797 10.3322 18.3761 10.8867 18.3761 11.6929C18.3761 12.4971 17.7895 13.088 16.9619 13.088Z" fill="black"/>
</svg>
