<svg width="28" height="28" viewBox="0 0 28 28" fill="none" xmlns="http://www.w3.org/2000/svg">
<path d="M14.105 26.21C20.7369 26.21 26.2121 20.7273 26.2121 14.105C26.2121 7.47312 20.7273 2 14.0954 2C7.47523 2 2 7.47312 2 14.105C2 20.7273 7.48484 26.21 14.105 26.21ZM14.105 23.8255C8.71085 23.8255 4.39412 19.4991 4.39412 14.105C4.39412 8.71085 8.70124 4.38452 14.0954 4.38452C19.4895 4.38452 23.8276 8.71085 23.8276 14.105C23.8276 19.4991 19.4991 23.8255 14.105 23.8255Z" fill="black"/>
<path d="M9.0207 18.7913H13.58C14.012 18.7913 14.3185 18.4869 14.3185 18.0144C14.3185 17.5386 14.012 17.2651 13.58 17.2651H10.5359V17.1809L12.5987 14.7812C13.4638 13.7755 14.0724 12.9486 14.0703 11.8104C14.064 10.2111 12.9067 9.16388 11.1027 9.16388C9.72922 9.16388 8.51445 10.025 8.20766 11.2055C8.17789 11.3684 8.15234 11.5036 8.15234 11.6569C8.15234 12.1062 8.42375 12.4107 8.85594 12.4107C9.23586 12.4107 9.43273 12.1925 9.58086 11.8325C9.84969 11.0464 10.3808 10.6507 11.1338 10.6507C11.9818 10.6507 12.5364 11.1797 12.5364 11.952C12.5364 12.6631 11.9734 13.2645 11.4193 13.9102L8.56812 17.2604C8.34594 17.5145 8.24914 17.7453 8.24914 18.0198C8.24914 18.4923 8.56297 18.7913 9.0207 18.7913ZM18.906 18.9245C19.4199 18.9245 19.7277 18.6041 19.7277 18.0648V10.1939C19.7277 9.61317 19.3625 9.22153 18.7817 9.22153C18.3878 9.22153 18.1239 9.34083 17.68 9.6727L16.04 10.8387C15.7581 11.0609 15.5994 11.2908 15.5994 11.6208C15.5994 12.0383 15.9423 12.3683 16.3138 12.3683C16.5392 12.3683 16.6775 12.327 16.9471 12.0971L18.047 11.2557H18.1131V18.0648C18.1131 18.6041 18.4112 18.9245 18.906 18.9245Z" fill="black"/>
</svg>
