<svg width="28" height="28" viewBox="0 0 28 28" fill="none" xmlns="http://www.w3.org/2000/svg">
<path d="M6.84421 24.8972H21.0295C23.5685 24.8972 24.8737 23.5919 24.8737 21.0914V6.82921C24.8737 4.32656 23.5685 3.02344 21.0295 3.02344H6.84421C4.31484 3.02344 3 4.31695 3 6.82921V21.0914C3 23.6016 4.31484 24.8972 6.84421 24.8972Z" fill="black"/>
<path d="M9.85384 19.0774C8.2554 19.0774 6.95884 18.0949 6.65087 17.0154C6.60188 16.8525 6.58594 16.7109 6.58594 16.5384C6.58594 16.0563 6.9211 15.7507 7.34602 15.7507C7.70696 15.7507 7.9411 15.9403 8.0986 16.3207C8.41828 17.0885 9.02391 17.5088 9.87188 17.5088C10.897 17.5088 11.599 16.8752 11.599 16.0474C11.599 15.1643 10.9568 14.5873 9.9286 14.5873H9.34149C8.85751 14.5873 8.58493 14.2509 8.58493 13.8094C8.58493 13.3219 8.87227 13.0069 9.34149 13.0069H9.88056C10.7508 13.0069 11.3323 12.4247 11.3323 11.647C11.3323 10.8771 10.7318 10.3598 9.88806 10.3598C9.04969 10.3598 8.52282 10.7758 8.24907 11.5457C8.12461 11.924 7.90641 12.1179 7.51993 12.1179C7.07063 12.1179 6.77579 11.7984 6.77579 11.3205C6.77579 11.1576 6.78423 11.014 6.82454 10.8384C7.13673 9.7413 8.3079 8.80591 9.92321 8.80591C11.7448 8.80591 12.9977 9.86927 12.9977 11.4161C12.9977 12.5107 12.2421 13.4932 11.2852 13.653V13.7318C12.4617 13.8502 13.3026 14.8687 13.3026 16.1325C13.3026 17.8627 11.9004 19.0774 9.85384 19.0774ZM18.1713 19.0891C16.9282 19.0891 15.881 18.5993 15.2726 17.4105C14.8751 16.65 14.6587 15.5824 14.6587 14.1755C14.6587 10.5991 16.1084 8.80591 18.3973 8.80591C19.743 8.80591 20.685 9.49333 21.0035 10.2703C21.0865 10.4533 21.1162 10.6045 21.1162 10.796C21.1162 11.2282 20.8141 11.5146 20.4469 11.5146C20.0923 11.5146 19.89 11.3601 19.6971 11.0744C19.4051 10.65 18.9752 10.345 18.3269 10.345C17.0941 10.345 16.2455 11.644 16.2455 13.6875C16.2455 13.782 16.2476 13.8328 16.2497 13.8891H16.3275C16.6322 13.1323 17.3859 12.4521 18.5979 12.4521C20.1209 12.4521 21.484 13.5773 21.484 15.5925C21.484 17.7799 20.1094 19.0891 18.1713 19.0891ZM18.0905 17.6182C19.1304 17.6182 19.8012 16.8675 19.8012 15.6966C19.8012 14.5929 19.1016 13.8326 18.0905 13.8326C17.0655 13.8326 16.3638 14.6025 16.3638 15.6869C16.3638 16.8216 17.0751 17.6182 18.0905 17.6182Z" fill="white"/>
</svg>
