<svg width="28" height="28" viewBox="0 0 28 28" fill="none" xmlns="http://www.w3.org/2000/svg">
<path d="M14.1366 24.7905C18.0406 24.7905 20.9213 22.8677 21.98 19.9734C22.1215 19.5944 22.1907 19.2091 22.2003 18.8205C22.2099 18.0424 21.6816 17.5129 20.8716 17.5129C20.1526 17.5129 19.7846 17.8844 19.5116 18.6077C18.8152 20.8394 16.7881 22.2799 14.1694 22.2799C10.3915 22.2799 7.99669 19.1214 7.99669 14.0488C7.99669 9.06037 10.3632 5.95935 14.1092 5.95935C16.6346 5.95935 18.6713 7.47037 19.374 9.68194C19.663 10.4586 20.034 10.7746 20.7594 10.7746C21.5483 10.7746 22.0597 10.2557 22.0501 9.4785C22.0405 9.06366 21.9565 8.66593 21.793 8.27453C20.6422 5.34132 17.6987 3.45085 14.1071 3.45085C8.55922 3.45085 5 7.53038 5 14.0636C5 20.6746 8.54 24.7905 14.1366 24.7905ZM13.9756 27.2008C14.3848 27.2008 14.712 26.8715 14.712 26.4623V1.79311C14.712 1.38389 14.3848 1.0546 13.9756 1.0546C13.5643 1.0546 13.2392 1.38389 13.2392 1.79311V26.4623C13.2392 26.8715 13.5643 27.2008 13.9756 27.2008Z" fill="black"/>
</svg>
