<svg width="28" height="28" viewBox="0 0 28 28" fill="none" xmlns="http://www.w3.org/2000/svg">
<path d="M14.105 26.21C20.7369 26.21 26.2121 20.7273 26.2121 14.105C26.2121 7.47312 20.7273 2 14.0954 2C7.47523 2 2 7.47312 2 14.105C2 20.7273 7.48484 26.21 14.105 26.21Z" fill="black"/>
<path d="M14.1066 20.1673C13.5537 20.1673 13.2005 19.7823 13.2005 19.1867V17.7118H11.0068C10.6733 17.7118 10.4356 17.4666 10.4356 17.1352C10.4356 16.8059 10.6637 16.5587 11.0068 16.5587H13.2005V15.6582H11.0068C10.6733 15.6582 10.4356 15.4109 10.4356 15.0795C10.4356 14.7406 10.6637 14.4912 11.0068 14.4912H12.6233L9.78945 9.91293C9.665 9.70551 9.60547 9.5227 9.60547 9.30145C9.60547 8.8102 10.0011 8.42841 10.5317 8.42841C10.9102 8.42841 11.1751 8.5688 11.3888 8.94497L14.1204 13.6681L16.8521 8.95247C17.0499 8.59646 17.3349 8.43591 17.6932 8.43591C18.2175 8.43591 18.6132 8.81559 18.6132 9.30473C18.6132 9.52809 18.5632 9.70879 18.4271 9.91832L15.6028 14.4912H17.2449C17.5922 14.4912 17.8299 14.7406 17.8299 15.0795C17.8299 15.4109 17.5922 15.6582 17.2449 15.6582H15.0298V16.5587H17.2449C17.5922 16.5587 17.8299 16.8059 17.8299 17.1352C17.8299 17.4666 17.5922 17.7118 17.2449 17.7118H15.0298V19.1942C15.0298 19.7898 14.6733 20.1673 14.1066 20.1673Z" fill="white"/>
</svg>
