<svg width="28" height="28" viewBox="0 0 28 28" fill="none" xmlns="http://www.w3.org/2000/svg">
<path d="M14.105 26.21C20.7369 26.21 26.2121 20.7273 26.2121 14.105C26.2121 7.47312 20.7273 2 14.0954 2C7.47523 2 2 7.47312 2 14.105C2 20.7273 7.48484 26.21 14.105 26.21ZM14.105 23.8255C8.71085 23.8255 4.39412 19.4991 4.39412 14.105C4.39412 8.71085 8.70124 4.38452 14.0954 4.38452C19.4895 4.38452 23.8276 8.71085 23.8276 14.105C23.8276 19.4991 19.4991 23.8255 14.105 23.8255Z" fill="black"/>
<path d="M11.0507 18.9245C11.5647 18.9245 11.8724 18.6041 11.8724 18.0648V10.194C11.8724 9.6132 11.5052 9.22156 10.9265 9.22156C10.5325 9.22156 10.2665 9.34086 9.82469 9.67273L8.18476 10.8388C7.9007 11.0609 7.74414 11.2909 7.74414 11.6209C7.74414 12.0383 8.08703 12.3683 8.4564 12.3683C8.68398 12.3683 8.82015 12.327 9.09179 12.0971L10.1917 11.2557H10.2578V18.0648C10.2578 18.6041 10.5538 18.9245 11.0507 18.9245ZM17.1329 19.0419C19.0979 19.0419 20.4213 17.2243 20.4213 14.1029C20.4213 10.9794 19.0979 9.16391 17.1329 9.16391C15.1658 9.16391 13.8595 10.9794 13.8595 14.1029C13.8595 17.2243 15.1658 19.0419 17.1329 19.0419ZM17.1415 17.472C16.159 17.472 15.536 16.2516 15.536 14.1029C15.536 11.9541 16.159 10.7337 17.1415 10.7337C18.1219 10.7337 18.7448 11.9541 18.7448 14.1029C18.7448 16.2516 18.1315 17.472 17.1415 17.472Z" fill="black"/>
</svg>
