<svg width="28" height="28" viewBox="0 0 28 28" fill="none" xmlns="http://www.w3.org/2000/svg">
<path d="M6.84421 24.8972H21.0295C23.5685 24.8972 24.8737 23.5919 24.8737 21.0914V6.82921C24.8737 4.32656 23.5685 3.02344 21.0295 3.02344H6.84421C4.31484 3.02344 3 4.31695 3 6.82921V21.0914C3 23.6016 4.31484 24.8972 6.84421 24.8972Z" fill="black"/>
<path d="M12.4472 19.6891C11.8017 19.6891 11.3069 19.2689 11.3069 18.6562C11.3069 18.3743 11.3665 18.1681 11.5048 17.9318L15.7458 10.3769V10.2769H10.8724C10.3294 10.2769 9.95508 9.90772 9.95508 9.37077C9.95508 8.82421 10.3198 8.46468 10.8724 8.46468H16.7398C17.6621 8.46468 18.259 9.02554 18.259 9.81163C18.259 10.1538 18.1868 10.4632 17.9049 10.9591L13.5799 18.8988C13.2696 19.4688 12.9471 19.6891 12.4472 19.6891Z" fill="white"/>
</svg>
