<svg width="28" height="28" viewBox="0 0 28 28" fill="none" xmlns="http://www.w3.org/2000/svg">
<path d="M14.105 26.21C20.7369 26.21 26.2121 20.7273 26.2121 14.105C26.2121 7.47312 20.7273 2 14.0954 2C7.47523 2 2 7.47312 2 14.105C2 20.7273 7.48484 26.21 14.105 26.21ZM14.105 23.8255C8.71085 23.8255 4.39412 19.4991 4.39412 14.105C4.39412 8.71085 8.70124 4.38452 14.0954 4.38452C19.4895 4.38452 23.8276 8.71085 23.8276 14.105C23.8276 19.4991 19.4991 23.8255 14.105 23.8255Z" fill="black"/>
<path d="M9.41992 14.1179C9.41992 17.2834 10.9977 19.3187 13.5233 19.6203V20.4945C13.5233 20.8313 13.7706 21.0573 14.084 21.0573C14.4015 21.0573 14.6371 20.8313 14.6371 20.4945V19.632C16.4174 19.4977 17.7339 18.526 18.242 17.1324C18.3187 16.9344 18.3676 16.7225 18.3676 16.5052C18.3676 16.0159 18.0379 15.6786 17.5305 15.6786C17.0919 15.6786 16.8344 15.9076 16.6759 16.3503C16.4139 17.2501 15.6524 17.8845 14.6371 18.0284V10.2425C15.5905 10.4077 16.3307 11.0689 16.6023 11.9335C16.7746 12.4126 17.0055 12.5914 17.4674 12.5914C17.9643 12.5914 18.2856 12.2701 18.2856 11.7753C18.2856 11.5508 18.2282 11.322 18.1389 11.1092C17.6033 9.73039 16.2927 8.78281 14.6371 8.62719V7.77008C14.6371 7.43328 14.4015 7.21695 14.084 7.21695C13.7589 7.21695 13.5233 7.43328 13.5233 7.77008V8.6368C11.0179 8.93211 9.41992 10.9845 9.41992 14.1179ZM11.2497 14.12C11.2497 12.0399 12.104 10.5952 13.5233 10.2755V17.9912C12.104 17.6661 11.2497 16.231 11.2497 14.12Z" fill="black"/>
</svg>
