<svg width="28" height="28" viewBox="0 0 28 28" fill="none" xmlns="http://www.w3.org/2000/svg">
<path d="M14.105 26.21C20.7369 26.21 26.2121 20.7273 26.2121 14.105C26.2121 7.47312 20.7273 2 14.0954 2C7.47523 2 2 7.47312 2 14.105C2 20.7273 7.48484 26.21 14.105 26.21ZM14.105 23.8255C8.71085 23.8255 4.39412 19.4991 4.39412 14.105C4.39412 8.71085 8.70124 4.38452 14.0954 4.38452C19.4895 4.38452 23.8276 8.71085 23.8276 14.105C23.8276 19.4991 19.4991 23.8255 14.105 23.8255Z" fill="black"/>
<path d="M11.0466 18.9245C11.551 18.9245 11.8587 18.6041 11.8587 18.0648V10.1939C11.8587 9.61317 11.4915 9.22153 10.9224 9.22153C10.5188 9.22153 10.2528 9.34083 9.81102 9.6727L8.17109 10.8387C7.88703 11.0609 7.73047 11.2908 7.73047 11.6208C7.73047 12.0383 8.08297 12.3683 8.45234 12.3683C8.67992 12.3683 8.80648 12.327 9.07812 12.0971L10.178 11.2557H10.2441V18.0648C10.2441 18.6041 10.5498 18.9245 11.0466 18.9245ZM14.87 18.7913H19.4389C19.8709 18.7913 20.1774 18.4869 20.1774 18.0144C20.1774 17.5386 19.8709 17.2651 19.4389 17.2651H16.3853V17.1809L18.4555 14.7812C19.3131 13.7755 19.9196 12.9486 19.9175 11.8104C19.9133 10.2111 18.7635 9.16388 16.9595 9.16388C15.586 9.16388 14.3713 10.025 14.0645 11.2055C14.0347 11.3684 14.0017 11.5036 14.0017 11.6569C14.0017 12.1062 14.2806 12.4107 14.7128 12.4107C15.0927 12.4107 15.2895 12.1925 15.4377 11.8325C15.7086 11.0464 16.2376 10.6507 16.9928 10.6507C17.8311 10.6507 18.3953 11.1797 18.3953 11.952C18.3953 12.6631 17.8206 13.2645 17.2782 13.9102L14.4249 17.2604C14.1931 17.5145 14.1081 17.7453 14.1081 18.0198C14.1081 18.4923 14.4198 18.7913 14.87 18.7913Z" fill="black"/>
</svg>
