<svg width="28" height="28" viewBox="0 0 28 28" fill="none" xmlns="http://www.w3.org/2000/svg">
<path d="M14.105 26.21C20.7369 26.21 26.2121 20.7273 26.2121 14.105C26.2121 7.47312 20.7273 2 14.0954 2C7.47523 2 2 7.47312 2 14.105C2 20.7273 7.48484 26.21 14.105 26.21ZM14.105 23.8255C8.71085 23.8255 4.39412 19.4991 4.39412 14.105C4.39412 8.71085 8.70124 4.38452 14.0954 4.38452C19.4895 4.38452 23.8276 8.71085 23.8276 14.105C23.8276 19.4991 19.4991 23.8255 14.105 23.8255Z" fill="black"/>
<path d="M11.0145 19.5662C11.719 19.5662 12.1852 19.2012 12.3384 18.512L14.0365 11.7397H14.1248L15.8304 18.512C15.9858 19.2012 16.4499 19.5662 17.1448 19.5662C17.8523 19.5662 18.2888 19.2001 18.4516 18.5054L20.5969 9.92097C20.6417 9.79206 20.6513 9.67276 20.6513 9.56518C20.6513 8.98089 20.2479 8.56909 19.6477 8.56909C19.0378 8.56909 18.7315 8.87753 18.5855 9.60034L17.0461 16.6379H16.9577L15.1809 9.48409C15.0403 8.90401 14.6848 8.62628 14.0855 8.62628C13.4862 8.62628 13.1135 8.8998 12.9825 9.47987L11.2111 16.6379H11.1227L9.58335 9.60034C9.43945 8.87753 9.14062 8.56909 8.53078 8.56909C7.92305 8.56909 7.5293 8.98089 7.5293 9.56518C7.5293 9.67276 7.53891 9.79206 7.57406 9.92097L9.7172 18.5054C9.88009 19.2001 10.3165 19.5662 11.0145 19.5662Z" fill="black"/>
</svg>
