<svg width="28" height="28" viewBox="0 0 28 28" fill="none" xmlns="http://www.w3.org/2000/svg">
<path d="M6.84421 24.8972H21.0295C23.5685 24.8972 24.8737 23.5919 24.8737 21.0914V6.82921C24.8737 4.32656 23.5685 3.02344 21.0295 3.02344H6.84421C4.31484 3.02344 3 4.31695 3 6.82921V21.0914C3 23.6016 4.31484 24.8972 6.84421 24.8972ZM6.97733 22.6013C5.88772 22.6013 5.29592 22.0371 5.29592 20.8985V7.01999C5.29592 5.88139 5.88772 5.31936 6.97733 5.31936H20.8964C21.9764 5.31936 22.5778 5.88139 22.5778 7.01999V20.8985C22.5778 22.0371 21.9764 22.6013 20.8964 22.6013H6.97733Z" fill="black"/>
<path d="M8.07929 18.6312H12.6482C13.0706 18.6312 13.3792 18.3267 13.3792 17.8542C13.3792 17.3784 13.0706 17.1049 12.6482 17.1049H9.59663V17.0208L11.6573 14.621C12.5223 13.6153 13.131 12.7884 13.1289 11.6503C13.1226 10.0509 11.9652 9.00372 10.1612 9.00372C8.78781 9.00372 7.57305 9.86481 7.26625 11.0454C7.23648 11.2083 7.21094 11.3435 7.21094 11.4968C7.21094 11.9461 7.48234 12.2505 7.92414 12.2505C8.29445 12.2505 8.49132 12.0323 8.64906 11.6723C8.90828 10.8862 9.43937 10.4906 10.1924 10.4906C11.0404 10.4906 11.5949 11.0196 11.5949 11.7918C11.5949 12.5029 11.032 13.1044 10.48 13.7501L7.62672 17.1002C7.40453 17.3543 7.30984 17.5852 7.30984 17.8596C7.30984 18.3321 7.62156 18.6312 8.07929 18.6312ZM17.6978 18.8817C19.7456 18.8817 21.0883 17.6224 21.0883 15.5831C21.0883 13.8037 19.881 12.5629 18.1839 12.5629C17.4262 12.5629 16.6309 12.9307 16.2836 13.4517H16.2409L16.4446 10.6657H20.0662C20.4492 10.6657 20.7206 10.3814 20.7206 9.94825C20.7206 9.52474 20.463 9.23505 20.0662 9.23505H16.1826C15.5425 9.23505 15.1441 9.62692 15.0972 10.2881L14.8392 13.7925C14.7965 14.423 15.1457 14.8319 15.708 14.8319C16.1029 14.8319 16.334 14.7276 16.6699 14.4504C17.1241 14.0707 17.4557 13.9076 17.9451 13.9076C18.8634 13.9076 19.5128 14.6583 19.5128 15.6352C19.5128 16.7496 18.8057 17.4352 17.7883 17.4352C17.0451 17.4352 16.4498 17.0386 16.1226 16.422C15.9405 16.1137 15.7284 15.9244 15.4188 15.9244C14.9971 15.9244 14.6959 16.2427 14.6959 16.6631C14.6959 16.8527 14.7365 17.0327 14.8056 17.2094C15.1466 18.1125 16.2583 18.8817 17.6978 18.8817Z" fill="black"/>
</svg>
