<svg width="28" height="28" viewBox="0 0 28 28" fill="none" xmlns="http://www.w3.org/2000/svg">
<path d="M6.84421 24.8972H21.0295C23.5685 24.8972 24.8737 23.5919 24.8737 21.0914V6.82921C24.8737 4.32656 23.5685 3.02344 21.0295 3.02344H6.84421C4.31484 3.02344 3 4.31695 3 6.82921V21.0914C3 23.6016 4.31484 24.8972 6.84421 24.8972Z" fill="black"/>
<path d="M13.9581 19.627C11.339 19.627 9.61328 17.3627 9.61328 13.9427C9.61328 10.5206 11.339 8.25632 13.9581 8.25632C16.5655 8.25632 18.3123 10.5206 18.3123 13.9427C18.3123 17.3627 16.5655 19.627 13.9581 19.627ZM13.9665 17.8259C15.2486 17.8259 16.1317 16.3441 16.1317 13.9427C16.1317 11.5413 15.2486 10.0596 13.9665 10.0596C12.677 10.0596 11.8035 11.5413 11.8035 13.9427C11.8035 16.3441 12.677 17.8259 13.9665 17.8259Z" fill="white"/>
</svg>
