<svg width="28" height="28" viewBox="0 0 28 28" fill="none" xmlns="http://www.w3.org/2000/svg">
<path d="M6.84421 24.8972H21.0295C23.5685 24.8972 24.8737 23.5919 24.8737 21.0914V6.82921C24.8737 4.32656 23.5685 3.02344 21.0295 3.02344H6.84421C4.31484 3.02344 3 4.31695 3 6.82921V21.0914C3 23.6016 4.31484 24.8972 6.84421 24.8972ZM6.97733 22.6013C5.88772 22.6013 5.29592 22.0371 5.29592 20.8985V7.01999C5.29592 5.88139 5.88772 5.31936 6.97733 5.31936H20.8964C21.9764 5.31936 22.5778 5.88139 22.5778 7.01999V20.8985C22.5778 22.0371 21.9764 22.6013 20.8964 22.6013H6.97733Z" fill="black"/>
<path d="M9.42969 18.8173C9.42969 19.3172 9.76508 19.6439 10.2491 19.6439C10.7309 19.6439 11.0363 19.3055 11.0363 18.8056V10.4376H12.5633C13.7224 10.4376 14.2196 10.7969 14.2196 12.0033V15.7038C14.2196 16.1407 14.4935 16.4072 14.891 16.4072C15.2885 16.4072 15.555 16.1407 15.555 15.7038V11.6564C15.555 9.57655 14.6649 8.69507 12.7175 8.69507H10.5432C9.84898 8.69507 9.42969 9.08788 9.42969 9.78209V18.8173ZM11.9736 18.4545C11.9736 19.1487 12.3683 19.5277 13.0699 19.5277H15.1878C17.201 19.5277 18.0818 18.6145 18.0818 16.2708V9.41717C18.0818 8.91725 17.7785 8.58632 17.2871 8.58632C16.7935 8.58632 16.4827 8.90764 16.4827 9.41717V16.1484C16.4827 17.5029 16.103 17.7776 14.8939 17.7776H13.3111V12.5039C13.3111 12.067 13.0446 11.8122 12.6568 11.8122C12.2497 11.8122 11.9736 12.067 11.9736 12.5039V18.4545Z" fill="black"/>
</svg>
