<svg width="28" height="28" viewBox="0 0 28 28" fill="none" xmlns="http://www.w3.org/2000/svg">
<path d="M6.84421 24.8972H21.0295C23.5685 24.8972 24.8737 23.5919 24.8737 21.0914V6.82921C24.8737 4.32656 23.5685 3.02344 21.0295 3.02344H6.84421C4.31484 3.02344 3 4.31695 3 6.82921V21.0914C3 23.6016 4.31484 24.8972 6.84421 24.8972ZM6.97733 22.6013C5.88772 22.6013 5.29592 22.0371 5.29592 20.8985V7.01999C5.29592 5.88139 5.88772 5.31936 6.97733 5.31936H20.8964C21.9764 5.31936 22.5778 5.88139 22.5778 7.01999V20.8985C22.5778 22.0371 21.9764 22.6013 20.8964 22.6013H6.97733Z" fill="black"/>
<path d="M11.5581 18.8625C12.0638 18.8625 12.3395 18.5196 12.3395 18.0394V16.7916H12.8816C13.3234 16.7916 13.5939 16.534 13.5939 16.0901C13.5939 15.6366 13.3138 15.3609 12.8816 15.3609H12.3395V10.2394C12.3395 9.47956 11.8442 9.00378 11.0781 9.00378C10.3372 9.00378 9.89118 9.29112 9.49391 9.98417C8.61196 11.4982 7.54437 13.3894 6.84242 14.6934C6.66124 15.0736 6.57617 15.3736 6.57617 15.7301C6.57617 16.3955 6.99898 16.7958 7.6557 16.7958H10.8076V18.0394C10.8076 18.51 11.0736 18.8625 11.5581 18.8625ZM10.8076 15.3673H8.22733V15.3204C8.84281 14.1016 9.92117 12.1446 10.7436 10.685H10.8076V15.3673ZM17.6821 18.8817C19.7298 18.8817 21.0726 17.6224 21.0726 15.5831C21.0726 13.8037 19.8653 12.563 18.1682 12.563C17.4104 12.563 16.6152 12.9307 16.2679 13.4517H16.2252L16.4289 10.6657H20.0505C20.4334 10.6657 20.7048 10.3814 20.7048 9.94831C20.7048 9.5248 20.4472 9.23511 20.0505 9.23511H16.1669C15.5268 9.23511 15.1283 9.62698 15.0815 10.2882L14.8234 13.7925C14.7808 14.423 15.13 14.8319 15.6922 14.8319C16.0872 14.8319 16.3086 14.7276 16.6541 14.4504C17.1083 14.0707 17.44 13.9076 17.9294 13.9076C18.8476 13.9076 19.4971 14.6583 19.4971 15.6352C19.4971 16.7496 18.79 17.4352 17.7629 17.4352C17.0294 17.4352 16.434 17.0386 16.1068 16.422C15.9247 16.1137 15.7126 15.9244 15.403 15.9244C14.9814 15.9244 14.6802 16.2427 14.6802 16.6631C14.6802 16.8527 14.7229 17.0327 14.7899 17.2094C15.1309 18.1125 16.2447 18.8817 17.6821 18.8817Z" fill="black"/>
</svg>
