<svg width="28" height="28" viewBox="0 0 28 28" fill="none" xmlns="http://www.w3.org/2000/svg">
<path d="M14.105 26.21C20.7369 26.21 26.2121 20.7273 26.2121 14.105C26.2121 7.47312 20.7273 2 14.0954 2C7.47523 2 2 7.47312 2 14.105C2 20.7273 7.48484 26.21 14.105 26.21ZM14.105 23.8255C8.71085 23.8255 4.39412 19.4991 4.39412 14.105C4.39412 8.71085 8.70124 4.38452 14.0954 4.38452C19.4895 4.38452 23.8276 8.71085 23.8276 14.105C23.8276 19.4991 19.4991 23.8255 14.105 23.8255Z" fill="black"/>
<path d="M14.1932 19.6409C16.6161 19.6409 18.3034 18.2509 18.3034 15.8633C18.3034 13.7042 16.6876 12.4705 14.8297 12.4705C13.3489 12.4705 12.4403 13.2062 12.0526 14.0162C12.0195 14.0162 11.9801 14.0162 11.9546 14.0162C11.9504 13.9482 11.9483 13.8898 11.9483 13.8315C11.9483 11.6759 12.9369 10.2683 14.4221 10.2683C15.1771 10.2683 15.5982 10.5978 15.9318 10.9658C16.2983 11.307 16.54 11.5083 16.9881 11.5083C17.4571 11.5083 17.8135 11.1891 17.8135 10.722C17.8135 10.505 17.7636 10.3156 17.6701 10.1305C17.2677 9.27592 16.0021 8.56483 14.4723 8.56483C11.6256 8.56483 9.86914 10.49 9.86914 14.2932C9.86914 15.8682 10.16 17.0401 10.6552 17.8442C11.4254 19.0948 12.7196 19.6409 14.1932 19.6409ZM14.0921 17.9984C12.9083 17.9984 12.0657 17.1388 12.0657 15.9336C12.0657 14.7732 12.9083 13.9498 14.1017 13.9498C15.3027 13.9498 16.1261 14.7636 16.1261 15.9453C16.1261 17.1847 15.3315 17.9984 14.0921 17.9984Z" fill="black"/>
</svg>
