<svg width="28" height="28" viewBox="0 0 28 28" fill="none" xmlns="http://www.w3.org/2000/svg">
<path d="M6.84421 24.8972H21.0295C23.5685 24.8972 24.8737 23.5919 24.8737 21.0914V6.82921C24.8737 4.32656 23.5685 3.02344 21.0295 3.02344H6.84421C4.31484 3.02344 3 4.31695 3 6.82921V21.0914C3 23.6016 4.31484 24.8972 6.84421 24.8972ZM6.97733 22.6013C5.88772 22.6013 5.29592 22.0371 5.29592 20.8985V7.01999C5.29592 5.88139 5.88772 5.31936 6.97733 5.31936H20.8964C21.9764 5.31936 22.5778 5.88139 22.5778 7.01999V20.8985C22.5778 22.0371 21.9764 22.6013 20.8964 22.6013H6.97733Z" fill="black"/>
<path d="M13.9427 19.406C14.8174 19.406 15.3257 18.9806 15.6588 18.0649L18.6616 10.0533C18.7328 9.82573 18.7605 9.67151 18.7605 9.46831C18.7605 8.83761 18.2882 8.40894 17.6289 8.40894C17.0036 8.40894 16.6685 8.70144 16.4683 9.38721L13.9788 16.9441H13.8925L11.4126 9.38721C11.2125 8.70355 10.8752 8.40894 10.252 8.40894C9.59273 8.40894 9.11719 8.84933 9.11719 9.47674C9.11719 9.67995 9.15445 9.82994 9.22148 10.0533L12.2381 18.0914C12.5745 19.0275 13.0359 19.406 13.9427 19.406Z" fill="black"/>
</svg>
