<svg width="28" height="28" viewBox="0 0 28 28" fill="none" xmlns="http://www.w3.org/2000/svg">
<path d="M14.105 26.21C20.7369 26.21 26.2121 20.7273 26.2121 14.105C26.2121 7.47312 20.7273 2 14.0954 2C7.47523 2 2 7.47312 2 14.105C2 20.7273 7.48484 26.21 14.105 26.21ZM14.105 23.8255C8.71085 23.8255 4.39412 19.4991 4.39412 14.105C4.39412 8.71085 8.70124 4.38452 14.0954 4.38452C19.4895 4.38452 23.8276 8.71085 23.8276 14.105C23.8276 19.4991 19.4991 23.8255 14.105 23.8255Z" fill="black"/>
<path d="M9.55664 15.1616C9.55664 15.4887 9.78257 15.7243 10.1002 15.7243H10.8579C10.6425 16.0461 10.5455 16.4361 10.5455 16.7675C10.5455 18.5469 12.1488 19.613 14.1318 19.613C15.4345 19.613 16.6495 19.1335 17.2547 18.0814C17.4157 17.8384 17.4989 17.5698 17.5085 17.2958C17.5181 16.8434 17.2054 16.5113 16.7147 16.5113C16.3912 16.5113 16.1484 16.637 15.9464 17.0152C15.6354 17.7064 14.9123 18.0615 14.1051 18.0615C13.1123 18.0615 12.2761 17.5956 12.2761 16.673C12.2761 16.3309 12.4497 15.9514 12.795 15.7243H18.0698C18.3874 15.7243 18.6133 15.4887 18.6133 15.1616C18.6133 14.8557 18.3853 14.6105 18.0698 14.6105H10.1002C9.78257 14.6105 9.55664 14.8557 9.55664 15.1616ZM9.57586 12.9317C9.57586 13.2376 9.8039 13.4827 10.1194 13.4827H18.089C18.4066 13.4827 18.6326 13.2376 18.6326 12.9317C18.6326 12.6045 18.4066 12.3786 18.089 12.3786H17.3313C17.5467 12.0472 17.6437 11.6572 17.6437 11.3258C17.6437 9.54641 16.0404 8.48022 14.0573 8.48022C12.7547 8.48022 11.5451 8.95765 10.9345 10.0215C10.7735 10.2645 10.6903 10.5235 10.6807 10.8071C10.6711 11.2498 10.9837 11.5819 11.4745 11.5819C11.798 11.5819 12.0408 11.4563 12.2428 11.078C12.5655 10.3869 13.2768 10.0318 14.084 10.0318C15.0769 10.0318 15.9131 10.5073 15.9131 11.4202C15.9131 11.7624 15.7394 12.1419 15.3942 12.3786H10.1194C9.80179 12.3786 9.57586 12.6045 9.57586 12.9317Z" fill="black"/>
</svg>
