<svg width="28" height="28" viewBox="0 0 28 28" fill="none" xmlns="http://www.w3.org/2000/svg">
<path d="M6.84421 24.8972H21.0295C23.5685 24.8972 24.8737 23.5919 24.8737 21.0914V6.82921C24.8737 4.32656 23.5685 3.02344 21.0295 3.02344H6.84421C4.31484 3.02344 3 4.31695 3 6.82921V21.0914C3 23.6016 4.31484 24.8972 6.84421 24.8972Z" fill="black"/>
<path d="M10.0132 19.0774C7.97484 19.0774 6.61523 17.1949 6.61523 13.9427C6.61523 10.6905 7.97484 8.80594 10.0132 8.80594C12.0612 8.80594 13.4281 10.6905 13.4281 13.9427C13.4281 17.1949 12.0612 19.0774 10.0132 19.0774ZM10.0238 17.4279C11.0564 17.4279 11.674 16.1723 11.674 13.9427C11.674 11.7131 11.0468 10.4576 10.0238 10.4576C9.0157 10.4576 8.3714 11.7131 8.3714 13.9427C8.3714 16.1723 9.0157 17.4279 10.0238 17.4279ZM17.861 19.0774C16.2338 19.0774 15.2843 18.1936 15.0544 17.5341C14.9907 17.3723 14.9513 17.1935 14.9513 17.0456C14.9513 16.5984 15.244 16.2823 15.6633 16.2823C15.9776 16.2823 16.2267 16.4133 16.4353 16.7468C16.7135 17.231 17.2053 17.5404 17.8355 17.5404C19.1583 17.5404 19.9585 16.1414 19.9414 13.9711H19.8753C19.5694 14.7809 18.8234 15.443 17.576 15.443C16.0003 15.443 14.6721 14.2828 14.6721 12.2719C14.6721 10.1517 15.99 8.80594 17.9878 8.80594C20.2739 8.80594 21.5358 10.5274 21.5358 13.6134C21.5358 17.1736 20.2402 19.0774 17.861 19.0774ZM18.087 14.0625C19.0906 14.0625 19.8019 13.2809 19.8019 12.1985C19.8019 11.0639 19.081 10.2651 18.087 10.2651C17.0374 10.2651 16.3549 11.0255 16.3549 12.1793C16.3549 13.2809 17.0567 14.0625 18.087 14.0625Z" fill="white"/>
</svg>
