<svg width="28" height="28" viewBox="0 0 28 28" fill="none" xmlns="http://www.w3.org/2000/svg">
<path d="M14.105 26.21C20.7369 26.21 26.2121 20.7273 26.2121 14.105C26.2121 7.47312 20.7273 2 14.0954 2C7.47523 2 2 7.47312 2 14.105C2 20.7273 7.48484 26.21 14.105 26.21ZM14.105 23.8255C8.71085 23.8255 4.39412 19.4991 4.39412 14.105C4.39412 8.71085 8.70124 4.38452 14.0954 4.38452C19.4895 4.38452 23.8276 8.71085 23.8276 14.105C23.8276 19.4991 19.4991 23.8255 14.105 23.8255Z" fill="black"/>
<path d="M9.54883 16.2076C9.54883 16.9053 9.99883 17.33 10.7235 17.33H14.9272V18.3387C14.9272 19.04 15.2964 19.4328 15.8975 19.4328C16.5254 19.4328 16.8946 19.0496 16.8946 18.3387V17.33H17.5637C18.17 17.33 18.5467 16.9735 18.5467 16.4138C18.5467 15.8926 18.1721 15.5553 17.5679 15.5553H16.8946V13.3637C16.8946 12.6866 16.5233 12.2928 15.8933 12.2928C15.2942 12.2928 14.9272 12.7004 14.9272 13.3637V15.5553H12.0195C12.9751 13.7511 13.9482 12.0101 14.9136 10.2066C15.0306 9.94413 15.0934 9.75358 15.0934 9.53983C15.0934 9.01835 14.7383 8.59366 14.136 8.59366C13.7052 8.59366 13.42 8.79687 13.1783 9.22788C12.0322 11.2906 10.964 13.1987 9.81344 15.271C9.63484 15.5961 9.54883 15.9024 9.54883 16.2076Z" fill="black"/>
</svg>
