<svg width="28" height="28" viewBox="0 0 28 28" fill="none" xmlns="http://www.w3.org/2000/svg">
<path d="M14.105 26.21C20.7369 26.21 26.2121 20.7273 26.2121 14.105C26.2121 7.47312 20.7273 2 14.0954 2C7.47523 2 2 7.47312 2 14.105C2 20.7273 7.48484 26.21 14.105 26.21ZM14.105 23.8255C8.71085 23.8255 4.39412 19.4991 4.39412 14.105C4.39412 8.71085 8.70124 4.38452 14.0954 4.38452C19.4895 4.38452 23.8276 8.71085 23.8276 14.105C23.8276 19.4991 19.4991 23.8255 14.105 23.8255Z" fill="black"/>
<path d="M9.90413 11.6816C9.90413 12.1128 10.1779 12.4098 10.6344 12.4098H13.2058V19.0227C13.2058 19.5905 13.5888 19.9311 14.1058 19.9311C14.6228 19.9311 14.9866 19.5905 14.9866 19.0227V12.4098H17.5462C18.0124 12.4098 18.2861 12.1128 18.2861 11.6816C18.2861 11.2578 18.0102 10.9609 17.5462 10.9609H10.6344C10.18 10.9609 9.90413 11.2578 9.90413 11.6816ZM9.88281 9.44211C9.88281 9.7618 10.1162 10.0048 10.4305 10.0048H17.7384C18.074 10.0048 18.2957 9.7618 18.2957 9.44211C18.2957 9.11281 18.074 8.88898 17.7384 8.88898H10.4305C10.1141 8.88898 9.88281 9.11281 9.88281 9.44211Z" fill="black"/>
</svg>
