<svg width="28" height="28" viewBox="0 0 28 28" fill="none" xmlns="http://www.w3.org/2000/svg">
<path d="M6.84421 24.8972H21.0295C23.5685 24.8972 24.8737 23.5919 24.8737 21.0914V6.82921C24.8737 4.32656 23.5685 3.02344 21.0295 3.02344H6.84421C4.31484 3.02344 3 4.31695 3 6.82921V21.0914C3 23.6016 4.31484 24.8972 6.84421 24.8972ZM6.97733 22.6013C5.88772 22.6013 5.29592 22.0371 5.29592 20.8985V7.01999C5.29592 5.88139 5.88772 5.31936 6.97733 5.31936H20.8964C21.9764 5.31936 22.5778 5.88139 22.5778 7.01999V20.8985C22.5778 22.0371 21.9764 22.6013 20.8964 22.6013H6.97733Z" fill="black"/>
<path d="M10.3409 19.3078C11.0683 19.3078 11.4841 18.8409 11.4841 18.0518V14.5959H16.3821V18.0518C16.3821 18.8334 16.8054 19.3078 17.5041 19.3078C18.2316 19.3078 18.6473 18.8409 18.6473 18.0518V9.6553C18.6473 8.86616 18.2316 8.39929 17.5041 8.39929C16.8054 8.39929 16.3821 8.87366 16.3821 9.6553V12.8527H11.4841V9.6553C11.4841 8.86616 11.0683 8.39929 10.3409 8.39929C9.64008 8.39929 9.22852 8.87366 9.22852 9.6553V18.0518C9.22852 18.8334 9.64008 19.3078 10.3409 19.3078Z" fill="black"/>
</svg>
