<svg width="28" height="28" viewBox="0 0 28 28" fill="none" xmlns="http://www.w3.org/2000/svg">
<path d="M6.84421 24.8972H21.0295C23.5685 24.8972 24.8737 23.5919 24.8737 21.0914V6.82921C24.8737 4.32656 23.5685 3.02344 21.0295 3.02344H6.84421C4.31484 3.02344 3 4.31695 3 6.82921V21.0914C3 23.6016 4.31484 24.8972 6.84421 24.8972Z" fill="black"/>
<path d="M13.959 19.5279C13.1861 19.5279 12.7598 18.9844 12.7598 18.169V9.53806C12.7598 8.72478 13.1861 8.18127 13.959 8.18127C14.7374 8.18127 15.1775 8.69596 15.1775 9.53806V18.169C15.1775 19.0111 14.7374 19.5279 13.959 19.5279Z" fill="white"/>
</svg>
