<svg width="28" height="28" viewBox="0 0 28 28" fill="none" xmlns="http://www.w3.org/2000/svg">
<path d="M6.84421 24.8972H21.0295C23.5685 24.8972 24.8737 23.5919 24.8737 21.0914V6.82921C24.8737 4.32656 23.5685 3.02344 21.0295 3.02344H6.84421C4.31484 3.02344 3 4.31695 3 6.82921V21.0914C3 23.6016 4.31484 24.8972 6.84421 24.8972ZM6.97733 22.6013C5.88772 22.6013 5.29592 22.0371 5.29592 20.8985V7.01999C5.29592 5.88139 5.88772 5.31936 6.97733 5.31936H20.8964C21.9764 5.31936 22.5778 5.88139 22.5778 7.01999V20.8985C22.5778 22.0371 21.9764 22.6013 20.8964 22.6013H6.97733Z" fill="black"/>
<path d="M14.0998 20.7007C14.4153 20.7007 14.6508 20.4748 14.6508 20.1476V19.3772H14.877C17.0419 19.3772 18.4226 18.1882 18.4226 16.3193C18.4226 15.0457 17.6375 14.0634 16.444 13.7107C17.307 13.2994 17.9121 12.3947 17.9121 11.4197C17.9121 9.81515 16.6922 8.68124 14.8496 8.68124H14.6508V7.81593C14.6508 7.50046 14.4153 7.27452 14.0998 7.27452C13.7918 7.27452 13.5563 7.50046 13.5563 7.81593V8.68124H11.7731C11.1623 8.68124 10.7461 9.08999 10.7461 9.72092V18.3513C10.7461 18.9705 11.1548 19.3772 11.7752 19.3772H13.5563V20.1476C13.5563 20.4748 13.7918 20.7007 14.0998 20.7007ZM12.5088 17.8669V14.5955H13.5563V17.8573L12.5088 17.8669ZM14.6508 17.8477V14.6051C15.9861 14.6829 16.6526 15.2299 16.6526 16.227C16.6526 17.2399 15.9861 17.7912 14.6508 17.8477ZM12.5088 13.1433V10.1819H13.5563V13.1433H12.5088ZM14.6508 13.0931V10.2033C15.6373 10.2907 16.1726 10.7737 16.1726 11.598C16.1726 12.4298 15.6544 12.9555 14.6508 13.0931Z" fill="black"/>
</svg>
