<svg width="28" height="28" viewBox="0 0 28 28" fill="none" xmlns="http://www.w3.org/2000/svg">
<path d="M6.84421 24.8972H21.0295C23.5685 24.8972 24.8737 23.5919 24.8737 21.0914V6.82921C24.8737 4.32656 23.5685 3.02344 21.0295 3.02344H6.84421C4.31484 3.02344 3 4.31695 3 6.82921V21.0914C3 23.6016 4.31484 24.8972 6.84421 24.8972ZM6.97733 22.6013C5.88772 22.6013 5.29592 22.0371 5.29592 20.8985V7.01999C5.29592 5.88139 5.88772 5.31936 6.97733 5.31936H20.8964C21.9764 5.31936 22.5778 5.88139 22.5778 7.01999V20.8985C22.5778 22.0371 21.9764 22.6013 20.8964 22.6013H6.97733Z" fill="black"/>
<path d="M11.6341 18.8625C12.1302 18.8625 12.4059 18.5196 12.4059 18.0394V16.7916H12.9597C13.3918 16.7916 13.6623 16.534 13.6623 16.0901C13.6623 15.6366 13.3918 15.3609 12.9597 15.3609H12.4059V10.2394C12.4059 9.47956 11.9224 9.00378 11.1562 9.00378C10.4132 9.00378 9.95971 9.29112 9.57205 9.98417C8.68048 11.4982 7.6129 13.3894 6.92055 14.6934C6.73727 15.0736 6.6543 15.3736 6.6543 15.7301C6.6543 16.3955 7.07712 16.7958 7.72211 16.7958H10.8761V18.0394C10.8761 18.51 11.1517 18.8625 11.6341 18.8625ZM10.8761 15.3673H8.30547V15.3204C8.90923 14.1016 9.9897 12.1446 10.8217 10.685H10.8761V15.3673ZM17.9666 18.8913C19.843 18.8913 21.1527 17.6395 21.1527 15.5372C21.1527 13.5933 19.8428 12.5096 18.3847 12.5096C17.2047 12.5096 16.4722 13.1641 16.1952 13.8933H16.1057C16.1036 13.8391 16.1015 13.7925 16.1015 13.7098C16.1015 11.727 16.9321 10.4653 18.1201 10.4653C18.7429 10.4653 19.1631 10.7682 19.4392 11.1809C19.6342 11.4528 19.8301 11.5955 20.1613 11.5955C20.5126 11.5955 20.8084 11.325 20.8084 10.9109C20.8084 10.7332 20.769 10.5842 20.6978 10.4128C20.3931 9.66355 19.483 9.00378 18.1787 9.00378C15.9941 9.00378 14.5848 10.7257 14.5848 14.1659C14.5848 15.5196 14.8086 16.5478 15.1923 17.2861C15.7752 18.4195 16.7788 18.8913 17.9666 18.8913ZM17.8879 17.4884C16.9173 17.4884 16.2315 16.7152 16.2315 15.6178C16.2315 14.5706 16.9077 13.8241 17.8975 13.8241C18.883 13.8241 19.5496 14.561 19.5496 15.6274C19.5496 16.7632 18.9022 17.4884 17.8879 17.4884Z" fill="black"/>
</svg>
