<svg width="28" height="28" viewBox="0 0 28 28" fill="none" xmlns="http://www.w3.org/2000/svg">
<path d="M14.105 26.21C20.7369 26.21 26.2121 20.7273 26.2121 14.105C26.2121 7.47312 20.7273 2 14.0954 2C7.47523 2 2 7.47312 2 14.105C2 20.7273 7.48484 26.21 14.105 26.21Z" fill="black"/>
<path d="M10.0114 19.2376C7.96344 19.2376 6.61133 17.3551 6.61133 14.1029C6.61133 10.8507 7.96344 8.96606 10.0114 8.96606C12.0477 8.96606 13.4284 10.8507 13.4284 14.1029C13.4284 17.3551 12.0477 19.2376 10.0114 19.2376ZM10.0198 17.5881C11.045 17.5881 11.6701 16.3325 11.6701 14.1029C11.6701 11.8733 11.0354 10.6177 10.0198 10.6177C9.00219 10.6177 8.3675 11.8733 8.3675 14.1029C8.3675 16.3325 9.00219 17.5881 10.0198 17.5881ZM19.7943 19.2184C19.2821 19.2184 19.0023 18.852 19.0023 18.3516V17.0729H15.7461C15.0596 17.0729 14.6188 16.6545 14.6188 15.9594C14.6188 15.5848 14.706 15.2689 14.8989 14.8707C15.6243 13.5177 16.7195 11.569 17.6345 9.99637C18.0498 9.27145 18.5118 8.96606 19.2887 8.96606C20.0889 8.96606 20.6096 9.47372 20.6096 10.2654V15.5701H21.1656C21.6137 15.5701 21.9097 15.8637 21.9097 16.3353C21.9097 16.7952 21.6233 17.0666 21.1656 17.0666H20.6096V18.3516C20.6096 18.8637 20.3202 19.2184 19.7943 19.2184ZM19.0023 15.5764V10.7269H18.9383C18.0903 12.2452 16.9747 14.2618 16.3496 15.5295V15.5764H19.0023Z" fill="white"/>
</svg>
