<svg width="28" height="28" viewBox="0 0 28 28" fill="none" xmlns="http://www.w3.org/2000/svg">
<path d="M14.105 26.21C20.7369 26.21 26.2121 20.7273 26.2121 14.105C26.2121 7.47312 20.7273 2 14.0954 2C7.47523 2 2 7.47312 2 14.105C2 20.7273 7.48484 26.21 14.105 26.21Z" fill="black"/>
<path d="M8.02975 18.9753C7.55187 18.9753 7.23171 18.6624 7.23171 18.1698C7.23171 17.8773 7.32101 17.6326 7.56874 17.3722L10.5125 13.8985C11.0804 13.2327 11.6689 12.6057 11.6689 11.8711C11.6689 11.0754 11.0909 10.5326 10.2291 10.5326C9.45054 10.5326 8.89811 10.9325 8.62507 11.7516C8.46733 12.1276 8.26624 12.35 7.86827 12.35C7.40843 12.35 7.12109 12.0317 7.12109 11.5622C7.12109 11.4047 7.14874 11.2578 7.18812 11.0928C7.50874 9.86864 8.7671 8.96606 10.198 8.96606C12.0711 8.96606 13.2645 10.0569 13.2709 11.7254C13.273 12.905 12.6366 13.7637 11.7418 14.813L9.61834 17.2831V17.3811H12.7679C13.22 17.3811 13.5425 17.6588 13.5425 18.1644C13.5425 18.657 13.22 18.9753 12.7679 18.9753H8.02975ZM17.9586 19.2376C16.3409 19.2376 15.3723 18.3537 15.1616 17.6942C15.0999 17.5325 15.0584 17.3537 15.0584 17.2058C15.0584 16.7586 15.3512 16.4424 15.7747 16.4424C16.0848 16.4424 16.3264 16.5734 16.5425 16.907C16.8228 17.3912 17.3124 17.7005 17.933 17.7005C19.2655 17.7005 20.0656 16.3016 20.0485 14.1312H19.9824C19.6691 14.941 18.9113 15.6031 17.6832 15.6031C16.1096 15.6031 14.7697 14.443 14.7697 12.432C14.7697 10.3119 16.0876 8.96606 18.0971 8.96606C20.3757 8.96606 21.6355 10.6876 21.6355 13.7736C21.6355 17.3337 20.3473 19.2376 17.9586 19.2376ZM18.1749 14.2227C19.1977 14.2227 19.9091 13.441 19.9091 12.3587C19.9091 11.224 19.1881 10.4253 18.1845 10.4253C17.135 10.4253 16.4621 11.1856 16.4621 12.3394C16.4621 13.441 17.1446 14.2227 18.1749 14.2227Z" fill="white"/>
</svg>
