<svg width="28" height="28" viewBox="0 0 28 28" fill="none" xmlns="http://www.w3.org/2000/svg">
<path d="M14.105 26.21C20.7369 26.21 26.2121 20.7251 26.2121 14.105C26.2121 7.47312 20.7273 2 14.0954 2C7.47523 2 2 7.47312 2 14.105C2 20.7251 7.48484 26.21 14.105 26.21Z" fill="black"/>
<path d="M8.25226 18.9753C7.77437 18.9753 7.44461 18.6603 7.44461 18.1698C7.44461 17.8773 7.55312 17.6422 7.78163 17.3722L10.735 13.9081C11.3029 13.2327 11.8914 12.6057 11.8914 11.8712C11.8914 11.0734 11.3252 10.5305 10.442 10.5305C9.67304 10.5305 9.12062 10.9421 8.83796 11.7516C8.69194 12.1255 8.47913 12.35 8.08117 12.35C7.63093 12.35 7.3457 12.0413 7.3457 11.5623C7.3457 11.4048 7.36914 11.2578 7.40101 11.0928C7.72375 9.86868 8.98961 8.97571 10.4109 8.97571C12.2861 8.97571 13.4966 10.0569 13.5029 11.7254C13.5051 12.905 12.8708 13.7637 11.9739 14.813L9.84296 17.2831V17.3811H12.9808C13.4329 17.3811 13.7554 17.6588 13.7554 18.1644C13.7554 18.657 13.4329 18.9753 12.9808 18.9753H8.25226ZM16.843 19.1202C16.329 19.1202 15.9374 18.7562 15.9374 18.2359C15.9374 17.9804 15.9693 17.8229 16.0832 17.6122L19.5759 10.8373V10.7382H15.6826C15.2197 10.7382 14.8752 10.4551 14.8752 9.97954C14.8752 9.50399 15.2134 9.19954 15.6826 9.19954H20.2909C21.0484 9.19954 21.4851 9.71681 21.4851 10.3449C21.4851 10.6175 21.4319 10.8613 21.2549 11.2395L17.7294 18.4456C17.492 18.9106 17.2471 19.1202 16.843 19.1202Z" fill="white"/>
</svg>
