<svg width="28" height="28" viewBox="0 0 28 28" fill="none" xmlns="http://www.w3.org/2000/svg">
<path d="M6.84421 24.8972H21.0295C23.5685 24.8972 24.8737 23.5919 24.8737 21.0914V6.82921C24.8737 4.32656 23.5685 3.02344 21.0295 3.02344H6.84421C4.31484 3.02344 3 4.31695 3 6.82921V21.0914C3 23.6016 4.31484 24.8972 6.84421 24.8972Z" fill="black"/>
<path d="M10.8584 19.3608C10.0665 19.3608 9.6582 18.8618 9.6582 18.0368V9.67026C9.6582 8.84948 10.0686 8.34839 10.8584 8.34839H13.9341C17.3944 8.34839 19.3067 10.3021 19.3067 13.8316C19.3067 17.3974 17.3656 19.3608 13.9341 19.3608H10.8584ZM11.9066 17.5845H13.6325C15.8098 17.5845 16.9522 16.3624 16.9522 13.8605C16.9522 11.4107 15.8002 10.1268 13.6325 10.1268H11.9066V17.5845Z" fill="white"/>
</svg>
