<svg width="28" height="28" viewBox="0 0 28 28" fill="none" xmlns="http://www.w3.org/2000/svg">
<path d="M14.105 26.21C20.7369 26.21 26.2121 20.7273 26.2121 14.105C26.2121 7.47312 20.7273 2 14.0954 2C7.47523 2 2 7.47312 2 14.105C2 20.7273 7.48484 26.21 14.105 26.21Z" fill="black"/>
<path d="M14.1124 19.7959C10.9136 19.7959 8.875 17.5353 8.875 14.0185C8.875 10.5017 10.9232 8.23364 14.1124 8.23364C16.2642 8.23364 17.9992 9.25318 18.6117 10.8661C18.7042 11.1015 18.734 11.2737 18.734 11.4983C18.734 12.0983 18.3426 12.4632 17.7088 12.4632C17.2591 12.4632 16.9889 12.2726 16.7453 11.8013C16.2794 10.7262 15.3686 10.1471 14.1442 10.1471C12.3806 10.1471 11.2138 11.6933 11.2138 14.0185C11.2138 16.3438 12.3806 17.8803 14.1421 17.8803C15.3686 17.8803 16.2794 17.3054 16.7432 16.2441C16.9783 15.7791 17.2675 15.5727 17.7088 15.5727C18.3426 15.5727 18.734 15.9376 18.734 16.5355C18.734 16.7429 18.7042 16.9365 18.6117 17.1697C18.0088 18.7901 16.2705 19.7959 14.1124 19.7959Z" fill="white"/>
</svg>
