<svg width="28" height="28" viewBox="0 0 28 28" fill="none" xmlns="http://www.w3.org/2000/svg">
<path d="M14.105 26.21C20.7369 26.21 26.2121 20.7273 26.2121 14.105C26.2121 7.47312 20.7273 2 14.0954 2C7.47523 2 2 7.47312 2 14.105C2 20.7273 7.48484 26.21 14.105 26.21Z" fill="black"/>
<path d="M14.1055 19.7959C10.9982 19.7959 8.79883 17.4772 8.79883 14.0185C8.79883 10.5502 10.9982 8.23364 14.1055 8.23364C17.2224 8.23364 19.4218 10.5502 19.4218 14.0185C19.4218 17.4772 17.2224 19.7959 14.1055 19.7959ZM14.1055 17.9497C15.8952 17.9497 17.0863 16.4267 17.0863 14.0185C17.0863 11.6007 15.8952 10.0777 14.1055 10.0777C12.3158 10.0777 11.1247 11.6007 11.1247 14.0185C11.1247 16.4267 12.3158 17.9497 14.1055 17.9497Z" fill="white"/>
</svg>
