<svg width="28" height="28" viewBox="0 0 28 28" fill="none" xmlns="http://www.w3.org/2000/svg">
<path d="M6.84421 24.8972H21.0295C23.5685 24.8972 24.8737 23.5919 24.8737 21.0914V6.82921C24.8737 4.32656 23.5685 3.02344 21.0295 3.02344H6.84421C4.31484 3.02344 3 4.31695 3 6.82921V21.0914C3 23.6016 4.31484 24.8972 6.84421 24.8972ZM6.97733 22.6013C5.88772 22.6013 5.29592 22.0371 5.29592 20.8985V7.01999C5.29592 5.88139 5.88772 5.31936 6.97733 5.31936H20.8964C21.9764 5.31936 22.5778 5.88139 22.5778 7.01999V20.8985C22.5778 22.0371 21.9764 22.6013 20.8964 22.6013H6.97733Z" fill="black"/>
<path d="M9.33203 13.9882C9.33203 14.2962 9.56758 14.5509 9.88305 14.5509H10.6192V18.7214C10.6192 19.2724 10.982 19.6223 11.5054 19.6223C12.0309 19.6223 12.3904 19.2724 12.3904 18.7214V14.5952H12.8526L16.3382 19.1801C16.5522 19.4843 16.8126 19.6223 17.0922 19.6223C17.5771 19.6223 17.9495 19.2755 17.9495 18.817C17.9495 18.6267 17.8665 18.3928 17.7186 18.1875L14.8321 14.5509H17.6657C17.9908 14.5509 18.2167 14.2962 18.2167 13.9882C18.2167 13.661 17.9908 13.4351 17.6657 13.4351H14.8372L17.709 9.87164C17.856 9.69282 17.9251 9.4779 17.9251 9.30235C17.9251 8.85235 17.5761 8.51392 17.1018 8.51392C16.8315 8.51392 16.5817 8.64352 16.3635 8.94891L12.843 13.4287H12.3904V9.42985C12.3904 8.86923 12.0405 8.52892 11.5054 8.52892C10.9724 8.52892 10.6192 8.86923 10.6192 9.42985V13.4351H9.88305C9.56758 13.4351 9.33203 13.661 9.33203 13.9882Z" fill="black"/>
</svg>
