<svg width="28" height="28" viewBox="0 0 28 28" fill="none" xmlns="http://www.w3.org/2000/svg">
<path d="M6.84421 24.8972H21.0295C23.5685 24.8972 24.8737 23.5919 24.8737 21.0914V6.82921C24.8737 4.32656 23.5685 3.02344 21.0295 3.02344H6.84421C4.31484 3.02344 3 4.31695 3 6.82921V21.0914C3 23.6016 4.31484 24.8972 6.84421 24.8972ZM6.97733 22.6013C5.88772 22.6013 5.29592 22.0371 5.29592 20.8985V7.01999C5.29592 5.88139 5.88772 5.31936 6.97733 5.31936H20.8964C21.9764 5.31936 22.5778 5.88139 22.5778 7.01999V20.8985C22.5778 22.0371 21.9764 22.6013 20.8964 22.6013H6.97733Z" fill="black"/>
<path d="M13.9376 19.62C14.4567 19.62 14.8301 19.2816 14.8301 18.702V16.2246L16.7295 15.3994C16.9906 15.2789 17.1174 15.1031 17.1174 14.8559C17.1174 14.5404 16.8989 14.3123 16.5856 14.3123C16.4864 14.3123 16.3798 14.3433 16.2903 14.3763L14.8301 15.0288V13.9619L16.7295 13.1271C16.9906 13.0184 17.1174 12.8405 17.1174 12.5932C17.1174 12.2777 16.8989 12.0401 16.576 12.0401C16.4864 12.0401 16.399 12.0731 16.2999 12.1041L14.8301 12.7683V10.2708H17.4568C17.9431 10.2708 18.2836 9.94195 18.2836 9.46523C18.2836 8.98851 17.9431 8.6693 17.4568 8.6693H10.411C9.92468 8.6693 9.58203 8.98851 9.58203 9.46523C9.58203 9.94195 9.92468 10.2708 10.411 10.2708H13.0355V13.4728L11.1596 14.2863C10.891 14.4164 10.7738 14.5826 10.7738 14.8202C10.7738 15.1357 10.9923 15.3734 11.3152 15.3734C11.4027 15.3734 11.5018 15.3403 11.5988 15.3094L13.0355 14.659V15.7355L11.1596 16.5565C10.891 16.6769 10.7738 16.8452 10.7738 17.0925C10.7738 17.4059 10.9923 17.636 11.3152 17.636C11.4027 17.636 11.5018 17.6126 11.5988 17.572L13.0355 16.9291V18.702C13.0355 19.2816 13.4089 19.62 13.9376 19.62Z" fill="black"/>
</svg>
