<svg width="28" height="28" viewBox="0 0 28 28" fill="none" xmlns="http://www.w3.org/2000/svg">
<path d="M14.105 26.21C20.7369 26.21 26.2121 20.7273 26.2121 14.105C26.2121 7.47312 20.7273 2 14.0954 2C7.47523 2 2 7.47312 2 14.105C2 20.7273 7.48484 26.21 14.105 26.21ZM14.105 23.8255C8.71085 23.8255 4.39412 19.4991 4.39412 14.105C4.39412 8.71085 8.70124 4.38452 14.0954 4.38452C19.4895 4.38452 23.8276 8.71085 23.8276 14.105C23.8276 19.4991 19.4991 23.8255 14.105 23.8255Z" fill="black"/>
<path d="M10.8456 18.9245C11.35 18.9245 11.6577 18.6041 11.6577 18.0648V10.1939C11.6577 9.61317 11.3001 9.22153 10.7214 9.22153C10.3178 9.22153 10.0635 9.34083 9.61 9.6727L7.97007 10.8387C7.68812 11.0609 7.53906 11.2908 7.53906 11.6208C7.53906 12.0383 7.88195 12.3683 8.25343 12.3683C8.4789 12.3683 8.61718 12.327 8.88671 12.0971L9.97703 11.2557H10.0431V18.0648C10.0431 18.6041 10.3509 18.9245 10.8456 18.9245ZM17.095 19.0419C19.1046 19.0419 20.4738 17.8995 20.4738 16.2341C20.4738 15.0514 19.744 14.1251 18.5512 13.8673V13.7907C19.5576 13.5188 20.1286 12.7025 20.1286 11.6935C20.1286 10.1954 18.8883 9.16388 17.1143 9.16388C15.3403 9.16388 14.1 10.1954 14.1 11.6935C14.1 12.7025 14.6613 13.4996 15.6794 13.7907V13.8673C14.475 14.1251 13.7547 15.061 13.7547 16.2437C13.7547 17.9187 15.0951 19.0419 17.095 19.0419ZM17.1239 17.7071C16.1224 17.7071 15.4003 17.0555 15.4003 16.1213C15.4003 15.2063 16.1224 14.5334 17.1239 14.5334C18.1371 14.5334 18.84 15.1967 18.84 16.1213C18.84 17.0555 18.1158 17.7071 17.1239 17.7071ZM17.1143 13.2481C16.2867 13.2481 15.7 12.6573 15.7 11.8531C15.7 11.0468 16.2888 10.4923 17.1143 10.4923C17.9493 10.4923 18.5285 11.0468 18.5285 11.8531C18.5285 12.6573 17.9418 13.2481 17.1143 13.2481Z" fill="black"/>
</svg>
