<svg width="28" height="28" viewBox="0 0 28 28" fill="none" xmlns="http://www.w3.org/2000/svg">
<path d="M6.84421 24.8972H21.0295C23.5685 24.8972 24.8737 23.5919 24.8737 21.0914V6.82921C24.8737 4.32656 23.5685 3.02344 21.0295 3.02344H6.84421C4.31484 3.02344 3 4.31695 3 6.82921V21.0914C3 23.6016 4.31484 24.8972 6.84421 24.8972Z" fill="black"/>
<path d="M13.9465 19.5663C13.166 19.5663 12.7473 19.0228 12.7473 18.2095V10.2536H10.0883C9.49085 10.2536 9.07812 9.88028 9.07812 9.29645C9.07812 8.6913 9.49085 8.33716 10.0883 8.33716H17.8453C18.4428 8.33716 18.8555 8.6913 18.8555 9.29645C18.8555 9.88028 18.4428 10.2536 17.8453 10.2536H15.1575V18.2095C15.1575 19.0399 14.727 19.5663 13.9465 19.5663Z" fill="white"/>
</svg>
