<svg width="28" height="28" viewBox="0 0 28 28" fill="none" xmlns="http://www.w3.org/2000/svg">
<path d="M14.105 26.21C20.7369 26.21 26.2121 20.7273 26.2121 14.105C26.2121 7.47312 20.7273 2 14.0954 2C7.47523 2 2 7.47312 2 14.105C2 20.7273 7.48484 26.21 14.105 26.21ZM14.105 23.8255C8.71085 23.8255 4.39412 19.4991 4.39412 14.105C4.39412 8.71085 8.70124 4.38452 14.0954 4.38452C19.4895 4.38452 23.8276 8.71085 23.8276 14.105C23.8276 19.4991 19.4991 23.8255 14.105 23.8255Z" fill="black"/>
<path d="M11.8001 19.0227C12.2984 19.0227 12.5719 18.6798 12.5719 18.1995V16.9517H13.1257C13.5579 16.9517 13.8284 16.6941 13.8284 16.2502C13.8284 15.7967 13.5579 15.5211 13.1257 15.5211H12.5719V10.3996C12.5719 9.63972 12.0884 9.16394 11.3222 9.16394C10.5792 9.16394 10.1257 9.45128 9.73805 10.1443C8.84649 11.6584 7.7789 13.5495 7.08656 14.8536C6.90327 15.2338 6.82031 15.5337 6.82031 15.8902C6.82031 16.5556 7.24312 16.9559 7.88812 16.9559H11.0421V18.1995C11.0421 18.6702 11.3177 19.0227 11.8001 19.0227ZM11.0421 15.5274H8.46186V15.4805C9.07734 14.2618 10.1557 12.3048 10.9877 10.8451H11.0421V15.5274ZM16.6523 18.9341C17.0362 18.9341 17.2695 18.7287 17.493 18.2818L20.8983 11.3321C21.0656 10.9698 21.1167 10.7378 21.1167 10.4811C21.1167 9.87104 20.6981 9.38565 19.9746 9.38565H15.543C15.0844 9.38565 14.7642 9.67417 14.7642 10.1296C14.7642 10.5753 15.0907 10.8542 15.543 10.8542H19.2935V10.9417L15.9286 17.4941C15.8243 17.6909 15.7828 17.8463 15.7828 18.0859C15.7828 18.5881 16.1585 18.9341 16.6523 18.9341Z" fill="black"/>
</svg>
