<svg width="28" height="28" viewBox="0 0 28 28" fill="none" xmlns="http://www.w3.org/2000/svg">
<path d="M14.1282 24.3802C17.971 24.3802 20.8306 22.5016 21.8808 19.6748C22.0203 19.3064 22.0894 18.9359 22.0991 18.5578C22.1087 17.8177 21.5867 17.3135 20.7915 17.3135C20.102 17.3135 19.7024 17.6956 19.4251 18.3893C18.7752 20.4966 16.7881 21.994 14.1505 21.994C10.4 21.994 7.99669 18.844 7.99669 13.6364C7.99669 8.65008 10.3632 5.54905 14.1092 5.54905C16.5924 5.54905 18.6144 7.03265 19.3107 9.15141C19.6271 9.90703 19.9834 10.2103 20.6771 10.2103C21.4534 10.2103 21.9605 9.7104 21.9509 8.96064C21.9413 8.55845 21.8574 8.17126 21.6959 7.79252C20.5515 4.88884 17.6396 3.04056 14.1071 3.04056C8.55922 3.04056 5 7.11376 5 13.6554C5 20.2643 8.54 24.3802 14.1282 24.3802ZM12.928 23.0454H14.461V18.5726C14.461 16.1341 16.0196 14.5099 18.1873 14.5099C18.5623 14.5099 18.8703 14.5856 19.134 14.6175C20.0982 14.6599 20.2576 13.4084 19.3332 13.0463C18.9762 12.8864 18.5811 12.8257 18.1541 12.8257C16.3034 12.8257 14.9352 13.976 14.4715 15.4978H14.4216V13.6875C14.4216 13.1932 14.1233 12.8831 13.6897 12.8831C13.2284 12.8831 12.928 13.1932 12.928 13.6875V23.0454Z" fill="black"/>
</svg>
