<svg width="28" height="28" viewBox="0 0 28 28" fill="none" xmlns="http://www.w3.org/2000/svg">
<path d="M6.84421 24.8972H21.0295C23.5685 24.8972 24.8737 23.5919 24.8737 21.0914V6.82921C24.8737 4.32656 23.5685 3.02344 21.0295 3.02344H6.84421C4.31484 3.02344 3 4.31695 3 6.82921V21.0914C3 23.6016 4.31484 24.8972 6.84421 24.8972Z" fill="black"/>
<path d="M11.453 19.056C10.9484 19.056 10.6589 18.6897 10.6589 18.1914V16.9126H7.40273C6.72375 16.9126 6.28711 16.4943 6.28711 15.7991C6.28711 15.4246 6.3743 15.1087 6.55547 14.7104C7.27125 13.3616 8.37399 11.411 9.29322 9.83618C9.70642 9.11126 10.178 8.80798 10.9528 8.80798C11.7551 8.80798 12.2662 9.31352 12.2662 10.1052V15.4098H12.8297C13.2799 15.4098 13.5642 15.7014 13.5642 16.1751C13.5642 16.6349 13.2799 16.9063 12.8297 16.9063H12.2662V18.1914C12.2662 18.6993 11.9747 19.056 11.453 19.056ZM10.6589 15.4161V10.5667H10.6045C9.73735 12.0892 8.63344 14.1015 7.99664 15.3693V15.4161H10.6589ZM18.1805 19.0752C16.1072 19.0752 14.7115 17.9127 14.7115 16.1664C14.7115 14.9401 15.4594 13.9649 16.7011 13.6954V13.6166C15.6478 13.3159 15.0705 12.487 15.0705 11.4386C15.0705 9.88306 16.3545 8.80798 18.1997 8.80798C20.0449 8.80798 21.3267 9.88306 21.3267 11.4386C21.3267 12.487 20.7302 13.3351 19.6962 13.6166V13.6954C20.9379 13.9649 21.6858 14.9305 21.6858 16.1568C21.6858 17.8935 20.273 19.0752 18.1805 19.0752ZM18.2093 17.6788C19.2363 17.6788 19.984 17.0017 19.984 16.0419C19.984 15.0822 19.2556 14.3954 18.2093 14.3954C17.1802 14.3954 16.4346 15.0918 16.4346 16.0419C16.4346 17.0017 17.1802 17.6788 18.2093 17.6788ZM18.1997 13.0539C19.0528 13.0539 19.6512 12.4375 19.6512 11.6078C19.6512 10.7781 19.0507 10.2023 18.1997 10.2023C17.3391 10.2023 16.7461 10.7781 16.7461 11.6078C16.7461 12.4375 17.3444 13.0539 18.1997 13.0539Z" fill="white"/>
</svg>
