<svg width="28" height="28" viewBox="0 0 28 28" fill="none" xmlns="http://www.w3.org/2000/svg">
<path d="M14.105 26.21C20.7369 26.21 26.2121 20.7273 26.2121 14.105C26.2121 7.47312 20.7273 2 14.0954 2C7.47523 2 2 7.47312 2 14.105C2 20.7273 7.48484 26.21 14.105 26.21Z" fill="black"/>
<path d="M10.9713 19.2376C9.37289 19.2376 8.08594 18.2551 7.77797 17.1755C7.7386 17.0127 7.71094 16.8711 7.71094 16.6986C7.71094 16.2282 8.04821 15.9109 8.47313 15.9109C8.83406 15.9109 9.05859 16.1005 9.2257 16.4809C9.53578 17.2487 10.1414 17.6689 10.9873 17.6689C12.0145 17.6689 12.7261 17.0354 12.7261 16.2076C12.7261 15.3244 12.0743 14.7474 11.0461 14.7474H10.459C9.99422 14.7474 9.71204 14.4111 9.71204 13.9695C9.71204 13.482 10.009 13.167 10.459 13.167H10.998C11.8779 13.167 12.4594 12.5848 12.4594 11.8072C12.4594 11.0372 11.8685 10.52 11.0055 10.52C10.1672 10.52 9.64781 10.936 9.37617 11.7059C9.24211 12.0842 9.0218 12.278 8.63742 12.278C8.19774 12.278 7.89329 11.9586 7.89329 11.4807C7.89329 11.3178 7.89961 11.1741 7.95164 10.9986C8.26383 9.90146 9.4329 8.96606 11.0503 8.96606C12.8698 8.96606 14.1345 10.0294 14.1345 11.5763C14.1345 12.6709 13.3788 13.6534 12.4006 13.8132V13.8919C13.5792 14.0103 14.4298 15.0289 14.4298 16.2927C14.4298 18.0228 13.0275 19.2376 10.9713 19.2376ZM19.2842 19.1105C18.7692 19.1105 18.4477 18.7742 18.4477 18.2105V11.1577H18.3774L17.2561 12.0226C16.961 12.2684 16.8302 12.3097 16.5867 12.3097C16.2014 12.3097 15.8426 11.9637 15.8426 11.5325C15.8426 11.1844 16.0034 10.9407 16.2917 10.7143L17.9944 9.50466C18.4638 9.15474 18.7362 9.03544 19.1536 9.03544C19.7588 9.03544 20.1302 9.44302 20.1302 10.0482V18.2105C20.1302 18.7742 19.8183 19.1105 19.2842 19.1105Z" fill="white"/>
</svg>
