<svg width="28" height="28" viewBox="0 0 28 28" fill="none" xmlns="http://www.w3.org/2000/svg">
<path d="M6.84421 24.8972H21.0295C23.5685 24.8972 24.8737 23.5919 24.8737 21.0914V6.82921C24.8737 4.32656 23.5685 3.02344 21.0295 3.02344H6.84421C4.31484 3.02344 3 4.31695 3 6.82921V21.0914C3 23.6016 4.31484 24.8972 6.84421 24.8972ZM6.97733 22.6013C5.88772 22.6013 5.29592 22.0371 5.29592 20.8985V7.01999C5.29592 5.88139 5.88772 5.31936 6.97733 5.31936H20.8964C21.9764 5.31936 22.5778 5.88139 22.5778 7.01999V20.8985C22.5778 22.0371 21.9764 22.6013 20.8964 22.6013H6.97733Z" fill="black"/>
<path d="M9.98328 18.8817C11.9544 18.8817 13.3035 17.7202 13.3035 16.0495C13.3035 14.839 12.4902 13.8523 11.353 13.7435V13.6669C12.2823 13.5091 13.0124 12.5682 13.0124 11.513C13.0124 10.0257 11.8009 9.00378 10.0506 9.00378C8.49477 9.00378 7.36508 9.89558 7.06672 10.9554C7.02852 11.1289 7.02008 11.2587 7.02008 11.4195C7.02008 11.8793 7.30109 12.1828 7.73234 12.1828C8.10078 12.1828 8.30726 11.9911 8.42961 11.6288C8.68742 10.8844 9.20258 10.478 10.0175 10.478C10.8378 10.478 11.4149 10.9835 11.4149 11.7279C11.4149 12.4843 10.8547 13.0505 10.01 13.0505H9.48055C9.03898 13.0505 8.75797 13.3516 8.75797 13.8094C8.75797 14.2329 9.02844 14.5533 9.48055 14.5533H10.0581C11.0511 14.5533 11.672 15.1165 11.672 15.9645C11.672 16.7709 10.9913 17.3906 9.99922 17.3906C9.1789 17.3906 8.59461 16.9821 8.28875 16.2377C8.13336 15.8733 7.91515 15.6858 7.56804 15.6858C7.16117 15.6858 6.83984 15.9893 6.83984 16.4395C6.83984 16.6099 6.85578 16.7398 6.90476 16.8984C7.20102 17.9386 8.44227 18.8817 9.98328 18.8817ZM17.9903 18.8913C19.8571 18.8913 21.1764 17.6395 21.1764 15.5372C21.1764 13.5933 19.8665 12.5096 18.3967 12.5096C17.2262 12.5096 16.4959 13.1641 16.2072 13.8933H16.1293C16.1272 13.8391 16.1251 13.7925 16.1251 13.7098C16.1251 11.727 16.9461 10.4653 18.1438 10.4653C18.7665 10.4653 19.1868 10.7682 19.4629 11.1809C19.6579 11.4528 19.8538 11.5955 20.185 11.5955C20.5363 11.5955 20.8204 11.325 20.8204 10.9109C20.8204 10.7332 20.7927 10.5842 20.7215 10.4128C20.4168 9.66355 19.5046 9.00378 18.2024 9.00378C16.0082 9.00378 14.6085 10.7257 14.6085 14.1659C14.6085 15.5196 14.8227 16.5478 15.2064 17.2861C15.7872 18.4195 16.7929 18.8913 17.9903 18.8913ZM17.9115 17.4884C16.9314 17.4884 16.2435 16.7152 16.2435 15.6178C16.2435 14.5706 16.9218 13.8241 17.9115 13.8241C18.895 13.8241 19.5733 14.561 19.5733 15.6274C19.5733 16.7632 18.9259 17.4884 17.9115 17.4884Z" fill="black"/>
</svg>
