<svg width="28" height="28" viewBox="0 0 28 28" fill="none" xmlns="http://www.w3.org/2000/svg">
<path d="M14.105 26.21C20.7369 26.21 26.2121 20.7273 26.2121 14.105C26.2121 7.47312 20.7273 2 14.0954 2C7.47523 2 2 7.47312 2 14.105C2 20.7273 7.48484 26.21 14.105 26.21ZM14.105 23.8255C8.71085 23.8255 4.39412 19.4991 4.39412 14.105C4.39412 8.71085 8.70124 4.38452 14.0954 4.38452C19.4895 4.38452 23.8276 8.71085 23.8276 14.105C23.8276 19.4991 19.4991 23.8255 14.105 23.8255Z" fill="black"/>
<path d="M9.07227 13.8992C9.07227 14.2051 9.31742 14.4598 9.62539 14.4598H10.2896L11.0049 18.9601C11.0837 19.4783 11.4678 19.7825 11.9551 19.7825C12.4424 19.7825 12.8286 19.4954 12.9128 18.9655L13.6325 14.4502H14.5543L15.2933 18.9655C15.3796 19.4954 15.7658 19.7825 16.251 19.7825C16.7265 19.7825 17.1182 19.4783 17.1969 18.9601L17.893 14.4502H18.556C18.8715 14.4502 19.1071 14.1955 19.1071 13.8896C19.1071 13.5624 18.8715 13.3365 18.556 13.3365H18.0721L18.6167 9.80631C18.6402 9.67225 18.6636 9.5553 18.6636 9.43272C18.6636 8.96561 18.3156 8.67944 17.8527 8.67944C17.4303 8.67944 17.0802 8.93046 17.0237 9.38702L16.5428 13.3365H15.6519L15.0207 9.49389C14.9462 8.98601 14.5426 8.68905 14.0807 8.68905C13.5995 8.68905 13.2268 8.98601 13.1427 9.5035L12.519 13.3461H11.6494L11.1877 9.39663C11.1312 8.94007 10.7832 8.68905 10.3491 8.68905C9.87664 8.68905 9.51899 8.98694 9.51899 9.45194C9.51899 9.59467 9.55203 9.71608 9.56586 9.84475L10.1105 13.3461H9.62539C9.31742 13.3461 9.07227 13.572 9.07227 13.8992ZM11.7828 14.4406H12.3697L12.0261 16.8507L11.7828 14.4406ZM13.8182 13.3461L14.0945 11.3319L14.3858 13.3461H13.8182ZM15.8033 14.4406H16.4382L16.1661 16.9084L15.8033 14.4406Z" fill="black"/>
</svg>
