<svg width="28" height="28" viewBox="0 0 28 28" fill="none" xmlns="http://www.w3.org/2000/svg">
<path d="M14.105 26.21C20.7369 26.21 26.2121 20.7273 26.2121 14.105C26.2121 7.47312 20.7273 2 14.0954 2C7.47523 2 2 7.47312 2 14.105C2 20.7273 7.48484 26.21 14.105 26.21Z" fill="black"/>
<path d="M9.46859 19.7457C8.85992 19.7457 8.48633 19.3348 8.48633 18.6462V9.63306C8.48633 8.86174 9.02047 8.34143 9.80773 8.34143C10.4991 8.34143 10.9449 8.6658 11.1812 9.30587L14.0789 16.7257H14.1418L17.0204 9.30587C17.262 8.66791 17.7099 8.34143 18.4034 8.34143C19.1811 8.34143 19.7152 8.86174 19.7152 9.63306V18.6462C19.7152 19.3466 19.3449 19.7457 18.7116 19.7457C18.1125 19.7457 17.7465 19.3348 17.7465 18.6462V12.0788H17.6347L15.0882 18.5711C14.9018 19.0554 14.5803 19.2716 14.0886 19.2716C13.5893 19.2716 13.2849 19.0469 13.0932 18.569L10.5744 12.0788H10.4551V18.6462C10.4551 19.3466 10.0869 19.7457 9.46859 19.7457Z" fill="white"/>
</svg>
