<svg width="28" height="28" viewBox="0 0 28 28" fill="none" xmlns="http://www.w3.org/2000/svg">
<path d="M6.84421 24.8972H21.0295C23.5685 24.8972 24.8737 23.5919 24.8737 21.0914V6.82921C24.8737 4.32656 23.5685 3.02344 21.0295 3.02344H6.84421C4.31484 3.02344 3 4.31695 3 6.82921V21.0914C3 23.6016 4.31484 24.8972 6.84421 24.8972ZM6.97733 22.6013C5.88772 22.6013 5.29592 22.0371 5.29592 20.8985V7.01999C5.29592 5.88139 5.88772 5.31936 6.97733 5.31936H20.8964C21.9764 5.31936 22.5778 5.88139 22.5778 7.01999V20.8985C22.5778 22.0371 21.9764 22.6013 20.8964 22.6013H6.97733Z" fill="black"/>
<path d="M13.9239 19.3484C14.6641 19.3484 15.0744 18.8538 15.0744 18.0616V10.3793H17.6781C18.2416 10.3793 18.6341 10.0261 18.6341 9.46451C18.6341 8.89334 18.2416 8.55725 17.6781 8.55725H10.206C9.64257 8.55725 9.25 8.89334 9.25 9.46451C9.25 10.0261 9.64257 10.3793 10.206 10.3793H12.783V18.0616C12.783 18.8367 13.1816 19.3484 13.9239 19.3484Z" fill="black"/>
</svg>
