<svg width="28" height="28" viewBox="0 0 28 28" fill="none" xmlns="http://www.w3.org/2000/svg">
<path d="M6.84421 24.8972H21.0295C23.5685 24.8972 24.8737 23.5919 24.8737 21.0914V6.82921C24.8737 4.32656 23.5685 3.02344 21.0295 3.02344H6.84421C4.31484 3.02344 3 4.31695 3 6.82921V21.0914C3 23.6016 4.31484 24.8972 6.84421 24.8972ZM6.97733 22.6013C5.88772 22.6013 5.29592 22.0371 5.29592 20.8985V7.01999C5.29592 5.88139 5.88772 5.31936 6.97733 5.31936H20.8964C21.9764 5.31936 22.5778 5.88139 22.5778 7.01999V20.8985C22.5778 22.0371 21.9764 22.6013 20.8964 22.6013H6.97733Z" fill="black"/>
<path d="M13.965 19.4808C16.4739 19.4808 18.1739 17.9107 18.1739 15.7205C18.1739 13.7995 16.7491 12.3687 14.7236 12.3687C13.9342 12.3687 13.1519 12.667 12.7778 13.0423L12.6522 13.0134C12.7862 12.7973 12.9386 12.5885 13.266 12.1662C13.792 11.4855 14.4895 10.6174 15.0068 9.95084C15.191 9.70381 15.2868 9.49311 15.2868 9.25147C15.2847 8.83452 15.0009 8.41429 14.3667 8.41429C13.8799 8.41429 13.6097 8.71312 13.379 9.00866C12.692 9.89835 11.9814 10.8007 11.4428 11.527C10.2927 13.0385 9.74219 14.336 9.74219 15.6164C9.74219 17.9297 11.4358 19.4808 13.965 19.4808ZM13.965 17.7806C12.6981 17.7806 11.7383 16.9359 11.7383 15.814C11.7383 14.7112 12.6885 13.8996 13.965 13.8996C15.2573 13.8996 16.1979 14.7112 16.1979 15.8332C16.1979 16.9359 15.2573 17.7806 13.965 17.7806Z" fill="black"/>
</svg>
