<svg width="28" height="28" viewBox="0 0 28 28" fill="none" xmlns="http://www.w3.org/2000/svg">
<path d="M6.84421 24.8972H21.0295C23.5685 24.8972 24.8737 23.5919 24.8737 21.0914V6.82921C24.8737 4.32656 23.5685 3.02344 21.0295 3.02344H6.84421C4.31484 3.02344 3 4.31695 3 6.82921V21.0914C3 23.6016 4.31484 24.8972 6.84421 24.8972ZM6.97733 22.6013C5.88772 22.6013 5.29592 22.0371 5.29592 20.8985V7.01999C5.29592 5.88139 5.88772 5.31936 6.97733 5.31936H20.8964C21.9764 5.31936 22.5778 5.88139 22.5778 7.01999V20.8985C22.5778 22.0371 21.9764 22.6013 20.8964 22.6013H6.97733Z" fill="black"/>
<path d="M10.2148 18.8817C12.1798 18.8817 13.503 17.0641 13.503 13.9427C13.503 10.8192 12.1798 9.00375 10.2148 9.00375C8.24766 9.00375 6.94336 10.8192 6.94336 13.9427C6.94336 17.0641 8.24766 18.8817 10.2148 18.8817ZM10.2232 17.3119C9.24071 17.3119 8.61773 16.0915 8.61773 13.9427C8.61773 11.794 9.24071 10.5736 10.2232 10.5736C11.2057 10.5736 11.8287 11.794 11.8287 13.9427C11.8287 16.0915 11.2153 17.3119 10.2232 17.3119ZM15.6365 18.6312H20.2055C20.6375 18.6312 20.944 18.3267 20.944 17.8542C20.944 17.3784 20.6375 17.1049 20.2055 17.1049H17.1518V17.0208L19.2125 14.621C20.0796 13.6153 20.6882 12.7884 20.6861 11.6503C20.6798 10.0509 19.53 9.00375 17.7281 9.00375C16.3525 9.00375 15.1378 9.86484 14.831 11.0454C14.8033 11.2083 14.7682 11.3435 14.7682 11.4968C14.7682 11.9461 15.0375 12.2505 15.4814 12.2505C15.8613 12.2505 16.0583 12.0323 16.2043 11.6723C16.4656 10.8863 17.0041 10.4906 17.7593 10.4906C18.5976 10.4906 19.1618 11.0196 19.1618 11.7919C19.1618 12.503 18.5872 13.1044 18.0448 13.7501L15.1915 17.1002C14.9619 17.3543 14.8746 17.5852 14.8746 17.8596C14.8746 18.3321 15.1863 18.6312 15.6365 18.6312Z" fill="black"/>
</svg>
