<svg width="28" height="28" viewBox="0 0 28 28" fill="none" xmlns="http://www.w3.org/2000/svg">
<path d="M14.105 26.21C20.7369 26.21 26.2121 20.7273 26.2121 14.105C26.2121 7.47312 20.7273 2 14.0954 2C7.47523 2 2 7.47312 2 14.105C2 20.7273 7.48484 26.21 14.105 26.21ZM14.105 23.8255C8.71085 23.8255 4.39412 19.4991 4.39412 14.105C4.39412 8.71085 8.70124 4.38452 14.0954 4.38452C19.4895 4.38452 23.8276 8.71085 23.8276 14.105C23.8276 19.4991 19.4991 23.8255 14.105 23.8255Z" fill="black"/>
<path d="M10.1902 19.0419C12.1538 19.0419 13.5103 17.8803 13.5103 16.2097C13.5103 14.9991 12.6896 14.0124 11.5523 13.9037V13.827C12.4913 13.6693 13.2193 12.7283 13.2193 11.6732C13.2193 10.1858 12.0099 9.16394 10.2499 9.16394C8.70375 9.16394 7.57406 10.0557 7.2757 11.1156C7.22578 11.289 7.21945 11.4189 7.21945 11.5796C7.21945 12.0394 7.50797 12.343 7.93172 12.343C8.30016 12.343 8.50664 12.1512 8.63859 11.7889C8.8964 11.0446 9.40195 10.6382 10.2169 10.6382C11.0468 10.6382 11.6238 11.1437 11.6238 11.8881C11.6238 12.6444 11.0541 13.2106 10.2094 13.2106H9.67781C9.24797 13.2106 8.96696 13.5118 8.96696 13.9695C8.96696 14.393 9.23532 14.7134 9.67781 14.7134H10.2574C11.2505 14.7134 11.8809 15.2766 11.8809 16.1246C11.8809 16.9311 11.1907 17.5508 10.2082 17.5508C9.37617 17.5508 8.79398 17.1423 8.48601 16.3979C8.33273 16.0334 8.12414 15.8459 7.76742 15.8459C7.37016 15.8459 7.03711 16.1495 7.03711 16.5997C7.03711 16.7701 7.06477 16.8999 7.11375 17.0586C7.41 18.0987 8.63953 19.0419 10.1902 19.0419ZM18.0971 19.0419C20.0607 19.0419 21.4172 17.8803 21.4172 16.2097C21.4172 14.9991 20.5943 14.0124 19.4593 13.9037V13.827C20.3961 13.6693 21.1261 12.7283 21.1261 11.6732C21.1261 10.1858 19.9168 9.16394 18.1568 9.16394C16.6107 9.16394 15.481 10.0557 15.1826 11.1156C15.1327 11.289 15.1264 11.4189 15.1264 11.5796C15.1264 12.0394 15.4149 12.343 15.8386 12.343C16.2071 12.343 16.4114 12.1512 16.5455 11.7889C16.8033 11.0446 17.3089 10.6382 18.1217 10.6382C18.9537 10.6382 19.5308 11.1437 19.5308 11.8881C19.5308 12.6444 18.961 13.2106 18.1142 13.2106H17.5847C17.1549 13.2106 16.8718 13.5118 16.8718 13.9695C16.8718 14.393 17.1422 14.7134 17.5847 14.7134H18.1643C19.1574 14.7134 19.7858 15.2766 19.7858 16.1246C19.7858 16.9311 19.1072 17.5508 18.1151 17.5508C17.2831 17.5508 16.6988 17.1423 16.3929 16.3979C16.2396 16.0334 16.0289 15.8459 15.6743 15.8459C15.275 15.8459 14.944 16.1495 14.944 16.5997C14.944 16.7701 14.9717 16.8999 15.0207 17.0586C15.3169 18.0987 16.5464 19.0419 18.0971 19.0419Z" fill="black"/>
</svg>
