<svg width="28" height="28" viewBox="0 0 28 28" fill="none" xmlns="http://www.w3.org/2000/svg">
<path d="M8.19976 24.3492C9.11124 24.3492 9.80029 23.7877 10.0131 22.8713L14.0875 7.27733H14.2068L18.2812 22.8713C18.4844 23.7877 19.1831 24.3492 20.087 24.3492C21.0177 24.3492 21.7431 23.7759 21.9271 22.8307L25.5733 4.90218C25.6105 4.68702 25.6415 4.47936 25.6415 4.26843C25.6415 3.49429 25.0616 3 24.2643 3C23.5593 3 23.0266 3.44648 22.9106 4.14726L19.9609 20.7019H19.8651L15.6008 4.2621C15.4232 3.48726 14.9587 3.03633 14.1536 3.03633C13.3431 3.03633 12.8732 3.52031 12.6838 4.30265L8.42921 20.7019H8.33335L5.38373 4.14726C5.26771 3.45609 4.73498 3 4.02249 3C3.22304 3 2.65281 3.49429 2.65281 4.26843C2.65281 4.46976 2.67414 4.67741 2.7114 4.89257L6.36719 22.8307C6.55117 23.7759 7.26695 24.3492 8.19976 24.3492ZM1.72891 14.2823H26.5675C26.9884 14.2823 27.306 13.9573 27.306 13.5363C27.306 13.1079 26.9884 12.7999 26.5675 12.7999H1.72891C1.31969 12.7999 1 13.1079 1 13.5363C1 13.9573 1.31969 14.2823 1.72891 14.2823Z" fill="black"/>
</svg>
