<svg width="28" height="28" viewBox="0 0 28 28" fill="none" xmlns="http://www.w3.org/2000/svg">
<path d="M7.22 23.2481C7.22 24.1076 7.82727 24.7073 8.66562 24.7073C9.49975 24.7073 10.0995 24.1076 10.0995 23.2481V17.1595H14.1052C18.2562 17.1595 21.0174 14.306 21.0174 10.2546C21.0174 6.27303 18.4395 3.44086 14.2751 3.44086H8.70358C7.77383 3.44086 7.22 4.016 7.22 4.95748V23.2481ZM10.0995 14.8111V5.82326H13.5387C16.4788 5.82326 18.0835 7.38303 18.0856 10.2588C18.0856 13.1864 16.358 14.8111 13.4534 14.8111H10.0995ZM5.71719 10.8991H22.19C22.6088 10.8991 22.9264 10.5602 22.9264 10.1531C22.9264 9.73639 22.6088 9.4167 22.19 9.4167H5.71719C5.31008 9.4167 5 9.73639 5 10.1531C5 10.5602 5.31008 10.8991 5.71719 10.8991Z" fill="black"/>
</svg>
