<svg width="28" height="28" viewBox="0 0 28 28" fill="none" xmlns="http://www.w3.org/2000/svg">
<path d="M14.105 26.21C20.7369 26.21 26.2121 20.7273 26.2121 14.105C26.2121 7.47312 20.7273 2 14.0954 2C7.47523 2 2 7.47312 2 14.105C2 20.7273 7.48484 26.21 14.105 26.21ZM14.105 23.8255C8.71085 23.8255 4.39412 19.4991 4.39412 14.105C4.39412 8.71085 8.70124 4.38452 14.0954 4.38452C19.4895 4.38452 23.8276 8.71085 23.8276 14.105C23.8276 19.4991 19.4991 23.8255 14.105 23.8255Z" fill="black"/>
<path d="M10.4618 19.0419C12.435 19.0419 13.7916 17.8803 13.7916 16.2097C13.7916 14.9991 12.9687 14.0124 11.8336 13.9037V13.827C12.7704 13.6693 13.5005 12.7283 13.5005 11.6732C13.5005 10.1858 12.2794 9.16394 10.5312 9.16394C8.98289 9.16394 7.85531 10.0557 7.55484 11.1156C7.50703 11.289 7.49859 11.4189 7.49859 11.5796C7.49859 12.0394 7.7796 12.343 8.21085 12.343C8.57929 12.343 8.78577 12.1512 8.91984 11.7889C9.17554 11.0446 9.6832 10.6382 10.496 10.6382C11.3163 10.6382 11.903 11.1437 11.903 11.8881C11.903 12.6444 11.3353 13.2106 10.4885 13.2106H9.95906C9.52922 13.2106 9.23648 13.5118 9.23648 13.9695C9.23648 14.393 9.50695 14.7134 9.95906 14.7134H10.5366C11.5296 14.7134 12.1601 15.2766 12.1601 16.1246C12.1601 16.9311 11.472 17.5508 10.4798 17.5508C9.65742 17.5508 9.07312 17.1423 8.76726 16.3979C8.61187 16.0334 8.39366 15.8459 8.04867 15.8459C7.63968 15.8459 7.31836 16.1495 7.31836 16.5997C7.31836 16.7701 7.34601 16.8999 7.38539 17.0586C7.69125 18.0987 8.92078 19.0419 10.4618 19.0419ZM16.7557 18.9341C17.13 18.9341 17.3728 18.7287 17.5868 18.2818L21.0038 11.3321C21.1711 10.9698 21.2222 10.7378 21.2222 10.4811C21.2222 9.87104 20.8015 9.38565 20.0801 9.38565H15.6368C15.1877 9.38565 14.858 9.67417 14.858 10.1296C14.858 10.5753 15.1941 10.8542 15.6368 10.8542H19.399V10.9417L16.032 17.4941C15.9181 17.6909 15.8862 17.8463 15.8862 18.0859C15.8862 18.5881 16.264 18.9341 16.7557 18.9341Z" fill="black"/>
</svg>
