<svg width="28" height="28" viewBox="0 0 28 28" fill="none" xmlns="http://www.w3.org/2000/svg">
<path d="M6.84421 24.8972H21.0295C23.5685 24.8972 24.8737 23.5919 24.8737 21.0914V6.82921C24.8737 4.32656 23.5685 3.02344 21.0295 3.02344H6.84421C4.31484 3.02344 3 4.31695 3 6.82921V21.0914C3 23.6016 4.31484 24.8972 6.84421 24.8972ZM6.97733 22.6013C5.88772 22.6013 5.29592 22.0371 5.29592 20.8985V7.01999C5.29592 5.88139 5.88772 5.31936 6.97733 5.31936H20.8964C21.9764 5.31936 22.5778 5.88139 22.5778 7.01999V20.8985C22.5778 22.0371 21.9764 22.6013 20.8964 22.6013H6.97733Z" fill="black"/>
<path d="M11.6888 18.8625C12.1945 18.8625 12.4702 18.5196 12.4702 18.0394V16.7916H13.0123C13.4466 16.7916 13.7149 16.534 13.7149 16.0901C13.7149 15.6366 13.4466 15.3609 13.0123 15.3609H12.4702V10.2394C12.4702 9.47956 11.977 9.00378 11.2109 9.00378C10.4679 9.00378 10.024 9.29112 9.62673 9.98417C8.74477 11.4982 7.67719 13.3894 6.97523 14.6934C6.79195 15.0736 6.70898 15.3736 6.70898 15.7301C6.70898 16.3955 7.1318 16.7958 7.7864 16.7958H10.9404V18.0394C10.9404 18.51 11.2043 18.8625 11.6888 18.8625ZM10.9404 15.3673H8.36015V15.3204C8.97351 14.1016 10.0519 12.1446 10.8764 10.685H10.9404V15.3673ZM15.6157 18.6312H20.1846C20.6166 18.6312 20.9253 18.3267 20.9253 17.8542C20.9253 17.3784 20.6166 17.1049 20.1846 17.1049H17.1331V17.0208L19.2033 14.621C20.0588 13.6153 20.6675 12.7885 20.6653 11.6503C20.659 10.051 19.5113 9.00378 17.7073 9.00378C16.3339 9.00378 15.1191 9.86487 14.8123 11.0454C14.7825 11.2083 14.7474 11.3436 14.7474 11.4968C14.7474 11.9461 15.0284 12.2506 15.4606 12.2506C15.8405 12.2506 16.0374 12.0324 16.1855 11.6724C16.4543 10.8863 16.9854 10.4907 17.7385 10.4907C18.5768 10.4907 19.141 11.0196 19.141 11.7919C19.141 12.503 18.5684 13.1044 18.0239 13.7501L15.1728 17.1002C14.941 17.3543 14.8538 17.5852 14.8538 17.8596C14.8538 18.3321 15.1676 18.6312 15.6157 18.6312Z" fill="black"/>
</svg>
