<svg width="28" height="28" viewBox="0 0 28 28" fill="none" xmlns="http://www.w3.org/2000/svg">
<path d="M14.105 26.21C20.7369 26.21 26.2121 20.7273 26.2121 14.105C26.2121 7.47312 20.7273 2 14.0954 2C7.47523 2 2 7.47312 2 14.105C2 20.7273 7.48484 26.21 14.105 26.21Z" fill="black"/>
<path d="M9.01102 19.568C8.50008 19.568 8.14453 19.22 8.14453 18.7091V9.89163C8.14453 9.1278 8.51485 8.65718 9.23062 8.65718H11.0906C13.0897 8.65718 14.0843 9.78944 14.0843 11.7179C14.0843 12.9772 13.56 14.2229 12.5975 14.6075L14.0855 18.3854C14.3677 19.137 13.8183 19.5554 13.2614 19.5554C12.9209 19.5554 12.5942 19.3958 12.4568 19.0062L10.9399 14.9586C10.8567 14.9682 10.7906 14.9682 10.717 14.9682H9.87539V18.7091C9.87539 19.22 9.52195 19.568 9.01102 19.568ZM9.87539 13.6512H10.8853C11.8971 13.6512 12.3258 12.8743 12.3258 11.7955C12.3258 10.6967 11.8779 10.0454 10.8757 10.0454H9.87539V13.6512ZM18.0094 20.3272C17.7303 20.3272 17.5055 20.0949 17.5055 19.8137V18.9533C16.0929 18.7871 15.2152 17.8986 15.0542 16.6953C14.9668 16.0594 15.3619 15.6868 15.826 15.6868C16.1646 15.6868 16.4543 15.9104 16.5202 16.313C16.5968 16.9573 16.9029 17.4073 17.5055 17.5384V14.6977L17.0393 14.4699C15.8032 13.8411 15.0436 13.0419 15.0436 11.7294C15.0436 10.3051 16.0578 9.32491 17.5055 9.16835V8.32718C17.5055 8.05554 17.7303 7.82327 18.0094 7.82327C18.2853 7.82327 18.5175 8.05554 18.5175 8.32718V9.18007C19.8554 9.37929 20.6438 10.3006 20.7718 11.4071C20.8709 12.1037 20.4607 12.4252 20.0009 12.4252C19.6517 12.4252 19.3449 12.1941 19.2886 11.7894C19.2312 11.24 18.972 10.8005 18.5175 10.6311V13.3855L18.9624 13.6229C20.3433 14.3551 20.9857 15.1648 20.9857 16.3229C20.9857 17.8271 19.9761 18.785 18.5175 18.9608V19.8137C18.5175 20.0949 18.2853 20.3272 18.0094 20.3272ZM17.5055 10.5673C16.9786 10.7016 16.6554 11.0855 16.6554 11.6455C16.6554 12.2309 17.0234 12.5722 17.4575 12.826L17.5055 12.8548V10.5673ZM18.5175 17.5447C19.0732 17.4179 19.3911 17.0094 19.3911 16.4516C19.3911 15.9397 19.0252 15.5483 18.5464 15.2497L18.5175 15.2401V17.5447Z" fill="white"/>
</svg>
