<svg width="28" height="28" viewBox="0 0 28 28" fill="none" xmlns="http://www.w3.org/2000/svg">
<path d="M14.105 26.2301C20.7369 26.2301 26.2121 20.7549 26.2121 14.123C26.2121 7.50291 20.7273 2.01807 14.0954 2.01807C7.47523 2.01807 2 7.50291 2 14.123C2 20.7549 7.48484 26.2301 14.105 26.2301Z" fill="black"/>
<path d="M11.4916 19.7061C10.7343 19.7061 10.3281 19.1891 10.3281 18.3915V9.84853C10.3281 9.03947 10.7427 8.51917 11.5305 8.51917H17.1552C17.7379 8.51917 18.1304 8.87026 18.1304 9.45853C18.1304 10.018 17.7379 10.3766 17.1552 10.3766H12.6561V13.2755H16.7708C17.3134 13.2755 17.687 13.5873 17.687 14.1427C17.687 14.6961 17.3134 15.0003 16.7708 15.0003H12.6646V18.3915C12.6646 19.2062 12.2467 19.7061 11.4916 19.7061Z" fill="white"/>
</svg>
