<svg width="28" height="28" viewBox="0 0 28 28" fill="none" xmlns="http://www.w3.org/2000/svg">
<path d="M14.105 26.21C20.7369 26.21 26.2121 20.7273 26.2121 14.105C26.2121 7.47312 20.7273 2 14.0954 2C7.47523 2 2 7.47312 2 14.105C2 20.7273 7.48484 26.21 14.105 26.21ZM14.105 23.8255C8.71085 23.8255 4.39412 19.4991 4.39412 14.105C4.39412 8.71085 8.70124 4.38452 14.0954 4.38452C19.4895 4.38452 23.8276 8.71085 23.8276 14.105C23.8276 19.4991 19.4991 23.8255 14.105 23.8255Z" fill="black"/>
<path d="M10.2157 19.0419C12.1868 19.0419 13.5358 17.8803 13.5358 16.2097C13.5358 14.9991 12.7129 14.0124 11.5758 13.9037V13.827C12.5147 13.6693 13.2426 12.7283 13.2426 11.6732C13.2426 10.1858 12.0333 9.16394 10.283 9.16394C8.7272 9.16394 7.59751 10.0557 7.29915 11.1156C7.25884 11.289 7.2429 11.4189 7.2429 11.5796C7.2429 12.0394 7.53352 12.343 7.95516 12.343C8.3236 12.343 8.53008 12.1512 8.66204 11.7889C8.91985 11.0446 9.43501 10.6382 10.2499 10.6382C11.0702 10.6382 11.6473 11.1437 11.6473 11.8881C11.6473 12.6444 11.0775 13.2106 10.2424 13.2106H9.71087C9.27142 13.2106 8.9904 13.5118 8.9904 13.9695C8.9904 14.393 9.26087 14.7134 9.71087 14.7134H10.2809C11.2739 14.7134 11.9044 15.2766 11.9044 16.1246C11.9044 16.9311 11.2238 17.5508 10.2316 17.5508C9.40923 17.5508 8.81743 17.1423 8.52118 16.3979C8.35618 16.0334 8.14758 15.8459 7.80047 15.8459C7.3936 15.8459 7.07227 16.1495 7.07227 16.5997C7.07227 16.7701 7.08821 16.8999 7.1372 17.0586C7.43345 18.0987 8.66509 19.0419 10.2157 19.0419ZM17.823 19.0419C20.115 19.0419 21.3478 17.2114 21.3478 13.7853C21.3478 10.8142 20.1391 9.16394 17.9498 9.16394C16.0233 9.16394 14.7511 10.4544 14.7511 12.4894C14.7511 14.4291 16.0399 15.5457 17.5444 15.5457C18.7448 15.5457 19.4728 14.9091 19.7723 14.1291H19.8405C19.8576 16.2291 19.0692 17.5803 17.7975 17.5803C17.1832 17.5803 16.7128 17.273 16.4367 16.8102C16.2419 16.4884 15.997 16.3616 15.6986 16.3616C15.2953 16.3616 15.0185 16.6639 15.0185 17.093C15.0185 17.2292 15.0654 17.4017 15.127 17.5613C15.3314 18.1932 16.2628 19.0419 17.823 19.0419ZM18.0255 14.229C17.0325 14.229 16.3638 13.475 16.3638 12.4086C16.3638 11.2921 17.0208 10.5573 18.0351 10.5573C19.0057 10.5573 19.7032 11.3284 19.7032 12.4278C19.7032 13.475 19.0153 14.229 18.0255 14.229Z" fill="black"/>
</svg>
