<svg width="28" height="28" viewBox="0 0 28 28" fill="none" xmlns="http://www.w3.org/2000/svg">
<path d="M14.105 26.21C20.7369 26.21 26.2121 20.7273 26.2121 14.105C26.2121 7.47312 20.7273 2 14.0954 2C7.47523 2 2 7.47312 2 14.105C2 20.7273 7.48484 26.21 14.105 26.21ZM14.105 23.8255C8.71085 23.8255 4.39412 19.4991 4.39412 14.105C4.39412 8.71085 8.70124 4.38452 14.0954 4.38452C19.4895 4.38452 23.8276 8.71085 23.8276 14.105C23.8276 19.4991 19.4991 23.8255 14.105 23.8255Z" fill="black"/>
<path d="M11.077 19.0419C13.0503 19.0419 14.4068 17.8803 14.4068 16.2097C14.4068 14.9991 13.5839 14.0124 12.4489 13.9037V13.827C13.3857 13.6693 14.1157 12.7283 14.1157 11.6731C14.1157 10.1857 12.9064 9.16388 11.1464 9.16388C9.60023 9.16388 8.47054 10.0557 8.17218 11.1155C8.12226 11.289 8.11593 11.4188 8.11593 11.5796C8.11593 12.0394 8.40445 12.343 8.82609 12.343C9.19452 12.343 9.40101 12.1512 9.53507 11.7889C9.79288 11.0445 10.2984 10.6381 11.1113 10.6381C11.9433 10.6381 12.5182 11.1436 12.5182 11.888C12.5182 12.6444 11.9506 13.2106 11.1038 13.2106H10.5743C10.1445 13.2106 9.86132 13.5118 9.86132 13.9695C9.86132 14.393 10.1318 14.7134 10.5743 14.7134H11.1518C12.1449 14.7134 12.7754 15.2766 12.7754 16.1246C12.7754 16.9311 12.0872 17.5508 11.0951 17.5508C10.2727 17.5508 9.68835 17.1423 9.38249 16.3979C9.2271 16.0334 9.0089 15.8459 8.6639 15.8459C8.26452 15.8459 7.93359 16.1495 7.93359 16.5997C7.93359 16.7701 7.96124 16.8999 8.00062 17.0586C8.30648 18.0987 9.53601 19.0419 11.077 19.0419ZM19.0772 18.9245C19.5816 18.9245 19.8893 18.6041 19.8893 18.0648V10.1939C19.8893 9.61317 19.5317 9.22153 18.953 9.22153C18.5494 9.22153 18.2951 9.34083 17.8416 9.6727L16.2017 10.8387C15.9197 11.0609 15.7707 11.2908 15.7707 11.6208C15.7707 12.0383 16.1136 12.3683 16.485 12.3683C16.7105 12.3683 16.8392 12.327 17.1183 12.0971L18.2086 11.2557H18.2747V18.0648C18.2747 18.6041 18.5825 18.9245 19.0772 18.9245Z" fill="black"/>
</svg>
