<svg width="28" height="28" viewBox="0 0 28 28" fill="none" xmlns="http://www.w3.org/2000/svg">
<path d="M14.105 26.21C20.7369 26.21 26.2121 20.7273 26.2121 14.105C26.2121 7.47312 20.7273 2 14.0954 2C7.47523 2 2 7.47312 2 14.105C2 20.7273 7.48484 26.21 14.105 26.21ZM14.105 23.8255C8.71085 23.8255 4.39412 19.4991 4.39412 14.105C4.39412 8.71085 8.70124 4.38452 14.0954 4.38452C19.4895 4.38452 23.8276 8.71085 23.8276 14.105C23.8276 19.4991 19.4991 23.8255 14.105 23.8255Z" fill="black"/>
<path d="M10.42 18.3186C10.8925 18.3186 11.2171 17.9961 11.2171 17.5107V13.0473C11.2171 12.2518 11.6362 11.7261 12.3145 11.7261C12.9105 11.7261 13.3296 12.2037 13.3296 12.8935V13.5964L10.9635 19.9632C10.9188 20.0602 10.8974 20.1615 10.8974 20.2681C10.8974 20.5644 11.1213 20.7882 11.4271 20.7882C11.6798 20.7882 11.8609 20.6464 11.9622 20.3937L13.3401 16.6766V17.5487C13.3401 18.013 13.6542 18.3186 14.1119 18.3186C14.5772 18.3186 14.9018 17.9961 14.9018 17.5107V12.9992C14.9018 12.223 15.3112 11.7357 15.9703 11.7357C16.6218 11.7357 17.01 12.2037 17.01 12.9608V17.5107C17.01 17.9961 17.3346 18.3186 17.8092 18.3186C18.2796 18.3186 18.6138 17.9961 18.6138 17.5107V12.7234C18.6138 11.2037 17.7497 10.2734 16.4177 10.2734C16.2079 10.2734 16.0333 10.3086 15.8915 10.3672L16.7864 8.2203C16.8194 8.13077 16.8525 8.02952 16.8525 7.92288C16.8525 7.62874 16.6094 7.41241 16.3014 7.41241C16.0584 7.41241 15.8868 7.55421 15.7877 7.79726L14.3559 11.2262C14.0139 10.5519 13.4334 10.2418 12.7066 10.2418C12.0546 10.2418 11.4974 10.5495 11.1564 11.213V11.0914C11.1564 10.5601 10.836 10.2706 10.3891 10.2706C9.92406 10.2706 9.60156 10.5973 9.60156 11.0837V17.5299C9.60156 17.9961 9.93578 18.3186 10.42 18.3186Z" fill="black"/>
</svg>
