<svg width="28" height="28" viewBox="0 0 28 28" fill="none" xmlns="http://www.w3.org/2000/svg">
<path d="M6.84421 24.8972H21.0295C23.5685 24.8972 24.8737 23.5919 24.8737 21.0914V6.82921C24.8737 4.32656 23.5685 3.02344 21.0295 3.02344H6.84421C4.31484 3.02344 3 4.31695 3 6.82921V21.0914C3 23.6016 4.31484 24.8972 6.84421 24.8972Z" fill="black"/>
<path d="M13.9678 19.5279C13.2054 19.5279 12.777 18.9982 12.777 18.1774V15.461L9.47649 9.88828C9.34242 9.65321 9.28711 9.43618 9.28711 9.22032C9.28711 8.63978 9.75398 8.18134 10.3802 8.18134C10.9172 8.18134 11.198 8.37587 11.5001 8.96368L13.9381 13.2858H14.0264L16.474 8.96368C16.7665 8.38548 17.0452 8.18134 17.565 8.18134C18.1988 8.18134 18.6464 8.63017 18.6464 9.23954C18.6464 9.44579 18.5932 9.67243 18.4571 9.88828L15.1758 15.4418V18.1774C15.1758 19.0249 14.7399 19.5279 13.9678 19.5279Z" fill="white"/>
</svg>
