<svg width="28" height="28" viewBox="0 0 28 28" fill="none" xmlns="http://www.w3.org/2000/svg">
<path d="M14.105 26.21C20.7369 26.21 26.2121 20.7273 26.2121 14.105C26.2121 7.47312 20.7273 2 14.0954 2C7.47523 2 2 7.47312 2 14.105C2 20.7273 7.48484 26.21 14.105 26.21ZM14.105 23.8255C8.71085 23.8255 4.39412 19.4991 4.39412 14.105C4.39412 8.71085 8.70124 4.38452 14.0954 4.38452C19.4895 4.38452 23.8276 8.71085 23.8276 14.105C23.8276 19.4991 19.4991 23.8255 14.105 23.8255Z" fill="black"/>
<path d="M11.8411 19.0227C12.3469 19.0227 12.6225 18.6798 12.6225 18.1995V16.9517H13.1668C13.5989 16.9517 13.8694 16.6941 13.8694 16.2502C13.8694 15.7967 13.5989 15.5211 13.1668 15.5211H12.6225V10.3996C12.6225 9.63972 12.1294 9.16394 11.3632 9.16394C10.6202 9.16394 10.1763 9.45128 9.77908 10.1443C8.89712 11.6584 7.82954 13.5495 7.12758 14.8536C6.9443 15.2338 6.86133 15.5337 6.86133 15.8902C6.86133 16.5556 7.28414 16.9559 7.93875 16.9559H11.0927V18.1995C11.0927 18.6702 11.3588 19.0227 11.8411 19.0227ZM11.0927 15.5274H8.5125V15.4805C9.12586 14.2618 10.2063 12.3048 11.0288 10.8451H11.0927V15.5274ZM15.7681 18.7913H20.337C20.769 18.7913 21.0776 18.4869 21.0776 18.0144C21.0776 17.5386 20.769 17.2651 20.337 17.2651H17.2854V17.1809L19.3461 14.7812C20.2111 13.7755 20.8198 12.9486 20.8177 11.8105C20.8135 10.2111 19.6636 9.16394 17.8597 9.16394C16.4862 9.16394 15.2714 10.025 14.9647 11.2056C14.9253 11.3685 14.8997 11.5037 14.8997 11.657C14.8997 12.1062 15.1711 12.4107 15.6129 12.4107C15.9929 12.4107 16.1897 12.1925 16.3379 11.8325C16.5971 11.0464 17.1378 10.6508 17.8908 10.6508C18.7292 10.6508 19.2858 11.1798 19.2858 11.9521C19.2858 12.6631 18.7208 13.2645 18.1688 13.9102L15.3251 17.2604C15.0933 17.5145 15.0082 17.7453 15.0082 18.0198C15.0082 18.4923 15.32 18.7913 15.7681 18.7913Z" fill="black"/>
</svg>
