<svg width="28" height="28" viewBox="0 0 28 28" fill="none" xmlns="http://www.w3.org/2000/svg">
<path d="M6.84421 24.8972H21.0295C23.5685 24.8972 24.8737 23.5919 24.8737 21.0914V6.82921C24.8737 4.32656 23.5685 3.02344 21.0295 3.02344H6.84421C4.31484 3.02344 3 4.31695 3 6.82921V21.0914C3 23.6016 4.31484 24.8972 6.84421 24.8972ZM6.97733 22.6013C5.88772 22.6013 5.29592 22.0371 5.29592 20.8985V7.01999C5.29592 5.88139 5.88772 5.31936 6.97733 5.31936H20.8964C21.9764 5.31936 22.5778 5.88139 22.5778 7.01999V20.8985C22.5778 22.0371 21.9764 22.6013 20.8964 22.6013H6.97733Z" fill="black"/>
<path d="M10.0059 13.9406C10.0059 16.3643 11.3214 17.9412 13.3813 18.1938V19.0284C13.3813 19.3598 13.6168 19.5858 13.9323 19.5858C14.2595 19.5858 14.4951 19.3598 14.4951 19.0284V18.2034C16.0677 18.0319 17.0971 17.1396 17.4116 16.1346C17.4426 16.0162 17.4756 15.8756 17.4756 15.7413C17.4756 15.2721 17.1278 14.9592 16.6586 14.9592C16.319 14.9592 16.0487 15.1509 15.8819 15.4957C15.643 16.0898 15.179 16.5016 14.4951 16.6413V11.242C15.1672 11.3859 15.6313 11.8074 15.868 12.3781C16.034 12.7348 16.2873 12.9317 16.664 12.9317C17.1332 12.9317 17.4597 12.6209 17.4597 12.1399C17.4597 11.9993 17.4224 11.8556 17.383 11.73C17.0411 10.7039 16.0138 9.85479 14.4951 9.68744V8.86666C14.4951 8.53947 14.2595 8.30182 13.9323 8.30182C13.6168 8.30182 13.3813 8.53947 13.3813 8.86666V9.69705C11.3214 9.9476 10.0059 11.5383 10.0059 13.9406ZM11.7578 13.9406C11.7578 12.4725 12.3723 11.5277 13.3813 11.2634V16.62C12.3723 16.3652 11.7578 15.4301 11.7578 13.9406Z" fill="black"/>
</svg>
