<svg width="28" height="28" viewBox="0 0 28 28" fill="none" xmlns="http://www.w3.org/2000/svg">
<path d="M6.84421 24.8972H21.0295C23.5685 24.8972 24.8737 23.5919 24.8737 21.0914V6.82921C24.8737 4.32656 23.5685 3.02344 21.0295 3.02344H6.84421C4.31484 3.02344 3 4.31695 3 6.82921V21.0914C3 23.6016 4.31484 24.8972 6.84421 24.8972ZM6.97733 22.6013C5.88772 22.6013 5.29592 22.0371 5.29592 20.8985V7.01999C5.29592 5.88139 5.88772 5.31936 6.97733 5.31936H20.8964C21.9764 5.31936 22.5778 5.88139 22.5778 7.01999V20.8985C22.5778 22.0371 21.9764 22.6013 20.8964 22.6013H6.97733Z" fill="black"/>
<path d="M10.536 19.3078C10.9785 19.3078 11.2232 19.1536 11.5689 18.6527L13.8765 15.3197H13.9361L16.2332 18.6527C16.5683 19.1494 16.8194 19.3078 17.2661 19.3078C17.8778 19.3078 18.3151 18.9056 18.3151 18.3237C18.3151 18.0492 18.23 17.8355 18.0376 17.5856L15.2882 13.8509L18.0568 10.1023C18.2589 9.8428 18.344 9.61944 18.344 9.35671C18.344 8.81319 17.897 8.39929 17.3141 8.39929C16.877 8.39929 16.6068 8.56944 16.3026 9.04686L14.0844 12.3778H14.0057L11.7248 9.03725C11.4004 8.56312 11.1461 8.39929 10.6823 8.39929C10.0919 8.39929 9.6332 8.84202 9.6332 9.39514C9.6332 9.6867 9.72039 9.89084 9.93202 10.1908L12.5716 13.8028L9.79327 17.6241C9.60085 17.8856 9.52539 18.0898 9.52539 18.3621C9.52539 18.9056 9.95312 19.3078 10.536 19.3078Z" fill="black"/>
</svg>
