<svg width="28" height="28" viewBox="0 0 28 28" fill="none" xmlns="http://www.w3.org/2000/svg">
<path d="M14.105 26.21C20.7369 26.21 26.2121 20.7273 26.2121 14.105C26.2121 7.47312 20.7273 2 14.0954 2C7.47523 2 2 7.47312 2 14.105C2 20.7273 7.48484 26.21 14.105 26.21ZM14.105 23.8255C8.71085 23.8255 4.39412 19.4991 4.39412 14.105C4.39412 8.71085 8.70124 4.38452 14.0954 4.38452C19.4895 4.38452 23.8276 8.71085 23.8276 14.105C23.8276 19.4991 19.4991 23.8255 14.105 23.8255Z" fill="black"/>
<path d="M14.1203 19.5758C17.0071 19.5758 18.7506 17.8641 18.7506 15.4501V14.7169C18.7506 14.004 18.346 13.5952 17.6523 13.5952H14.766C14.2745 13.5952 13.9871 13.9018 13.9871 14.3487C13.9871 14.7594 14.2766 15.0948 14.766 15.0948H16.5962V15.7405C16.5962 16.9904 15.756 17.8264 14.1669 17.8264C12.4405 17.8264 11.3005 16.3095 11.3005 14.0185C11.3005 11.7552 12.4288 10.2263 14.1381 10.2263C15.3315 10.2263 16.1893 10.798 16.6318 11.8105C16.8425 12.2047 17.1001 12.4067 17.5635 12.4067C18.1421 12.4067 18.505 12.0662 18.505 11.5171C18.505 11.3031 18.4752 11.1275 18.3868 10.9295C17.8382 9.49088 16.2564 8.45166 14.0914 8.45166C11.0352 8.45166 9.0625 10.6325 9.0625 14.0185C9.0625 17.4162 11.0352 19.5758 14.1203 19.5758Z" fill="black"/>
</svg>
