<svg width="28" height="28" viewBox="0 0 28 28" fill="none" xmlns="http://www.w3.org/2000/svg">
<path d="M14.105 26.21C20.7369 26.21 26.2121 20.7273 26.2121 14.105C26.2121 7.47312 20.7273 2 14.0954 2C7.47523 2 2 7.47312 2 14.105C2 20.7273 7.48484 26.21 14.105 26.21ZM14.105 23.8255C8.71085 23.8255 4.39412 19.4991 4.39412 14.105C4.39412 8.71085 8.70124 4.38452 14.0954 4.38452C19.4895 4.38452 23.8276 8.71085 23.8276 14.105C23.8276 19.4991 19.4991 23.8255 14.105 23.8255Z" fill="black"/>
<path d="M11.0312 19.0419C12.9962 19.0419 14.3195 17.2243 14.3195 14.1029C14.3195 10.9794 12.9962 9.16391 11.0312 9.16391C9.05446 9.16391 7.74805 10.9794 7.74805 14.1029C7.74805 17.2243 9.05446 19.0419 11.0312 19.0419ZM11.0375 17.472C10.0475 17.472 9.43414 16.2516 9.43414 14.1029C9.43414 11.9541 10.0475 10.7337 11.0375 10.7337C12.02 10.7337 12.6334 11.9541 12.6334 14.1029C12.6334 16.2516 12.0296 17.472 11.0375 17.472ZM18.9995 18.9245C19.5135 18.9245 19.8116 18.6041 19.8116 18.0648V10.194C19.8116 9.6132 19.4539 9.22156 18.8753 9.22156C18.4717 9.22156 18.2174 9.34086 17.7735 9.67273L16.1336 10.8388C15.842 11.0609 15.6929 11.2909 15.6929 11.6209C15.6929 12.0383 16.0358 12.3683 16.4052 12.3683C16.6328 12.3683 16.7689 12.327 17.0406 12.0971L18.1405 11.2557H18.197V18.0648C18.197 18.6041 18.5047 18.9245 18.9995 18.9245Z" fill="black"/>
</svg>
