<svg width="28" height="28" viewBox="0 0 28 28" fill="none" xmlns="http://www.w3.org/2000/svg">
<path d="M14.105 26.21C20.7369 26.21 26.2121 20.7273 26.2121 14.105C26.2121 7.47312 20.7273 2 14.0954 2C7.47523 2 2 7.47312 2 14.105C2 20.7273 7.48484 26.21 14.105 26.21Z" fill="black"/>
<path d="M14.032 19.8589C12.0258 19.8589 10.59 19.0981 10.1095 17.8887C10.0254 17.6928 9.97852 17.4969 9.97852 17.2754C9.97852 16.7349 10.3573 16.355 10.9549 16.355C11.3866 16.355 11.6965 16.5584 11.9243 16.9156C12.3164 17.6176 13.0631 18.0634 13.9917 18.0634C15.1936 18.0634 16.1065 17.1739 16.1065 15.9847C16.1065 14.7774 15.3311 13.9733 14.174 13.9733C13.5909 13.9733 13.1676 14.1523 12.6377 14.5812C12.1783 14.9108 11.8856 15.0151 11.396 15.0151C10.575 15.0151 10.1196 14.5159 10.1749 13.703L10.4756 9.90195C10.5342 9.12922 11.092 8.62485 11.948 8.62485H16.9823C17.5319 8.62485 17.8797 8.96328 17.8797 9.49297C17.8797 10.0109 17.516 10.3653 16.9823 10.3653H12.2997L12.0555 13.3564H12.1586C12.5775 12.744 13.5832 12.3104 14.5929 12.3104C16.8077 12.3104 18.326 13.7797 18.326 15.923C18.326 18.3111 16.6026 19.8589 14.032 19.8589Z" fill="white"/>
</svg>
