<svg width="28" height="28" viewBox="0 0 28 28" fill="none" xmlns="http://www.w3.org/2000/svg">
<path d="M14.105 26.21C20.7369 26.21 26.2121 20.7273 26.2121 14.105C26.2121 7.47312 20.7273 2 14.0954 2C7.47523 2 2 7.47312 2 14.105C2 20.7273 7.48484 26.21 14.105 26.21Z" fill="black"/>
<path d="M13.8493 19.8589C11.7892 19.8589 10.6251 18.9165 10.3037 18.0601C10.2421 17.9068 10.2027 17.7472 10.2027 17.5951C10.2027 17.0652 10.608 16.6939 11.1442 16.6939C11.5846 16.6939 11.8518 16.8931 12.0838 17.1575C12.5485 17.7549 13.0688 18.0652 13.828 18.0652C15.3688 18.0652 16.3989 16.576 16.3417 14.1575H16.2395C15.8507 15.0418 14.9204 15.7838 13.393 15.7838C11.4494 15.7838 9.77734 14.4884 9.77734 12.2466C9.77734 9.89233 11.4672 8.34686 14.0403 8.34686C16.8507 8.34686 18.5003 10.2758 18.5003 13.7816C18.5003 17.7603 16.8486 19.8589 13.8493 19.8589ZM14.1254 14.2271C15.3507 14.2271 16.2189 13.3623 16.2189 12.1817C16.2189 10.951 15.3273 10.0498 14.1254 10.0498C12.8734 10.0498 12.0202 10.8933 12.0202 12.1625C12.0202 13.3665 12.8926 14.2271 14.1254 14.2271Z" fill="white"/>
</svg>
