<svg width="28" height="28" viewBox="0 0 28 28" fill="none" xmlns="http://www.w3.org/2000/svg">
<path d="M6.84421 24.8972H21.0295C23.5685 24.8972 24.8737 23.5919 24.8737 21.0914V6.82921C24.8737 4.32656 23.5685 3.02344 21.0295 3.02344H6.84421C4.31484 3.02344 3 4.31695 3 6.82921V21.0914C3 23.6016 4.31484 24.8972 6.84421 24.8972ZM6.97733 22.6013C5.88772 22.6013 5.29592 22.0371 5.29592 20.8985V7.01999C5.29592 5.88139 5.88772 5.31936 6.97733 5.31936H20.8964C21.9764 5.31936 22.5778 5.88139 22.5778 7.01999V20.8985C22.5778 22.0371 21.9764 22.6013 20.8964 22.6013H6.97733Z" fill="black"/>
<path d="M8.86835 18.6312H13.4373C13.8596 18.6312 14.1662 18.3267 14.1662 17.8542C14.1662 17.3784 13.8596 17.1049 13.4373 17.1049H10.3836V17.0208L12.4442 14.621C13.3114 13.6153 13.9201 12.7884 13.918 11.6503C13.9117 10.0509 12.7543 9.00372 10.9503 9.00372C9.57687 9.00372 8.36 9.86481 8.05531 11.0454C8.02555 11.2083 8 11.3435 8 11.4968C8 11.9461 8.2714 12.2505 8.7132 12.2505C9.08351 12.2505 9.28038 12.0323 9.43601 11.6723C9.69734 10.8862 10.2263 10.4906 10.9815 10.4906C11.8295 10.4906 12.384 11.0196 12.384 11.7918C12.384 12.5029 11.821 13.1044 11.267 13.7501L8.41367 17.1002C8.19359 17.3543 8.09679 17.5852 8.09679 17.8596C8.09679 18.3321 8.40851 18.6312 8.86835 18.6312ZM18.7536 18.7643C19.2676 18.7643 19.5753 18.4439 19.5753 17.9046V10.0338C19.5753 9.45302 19.2081 9.06138 18.639 9.06138C18.2354 9.06138 17.9715 9.18067 17.5276 9.51255L15.8877 10.6786C15.6057 10.9008 15.447 11.1307 15.447 11.4607C15.447 11.8781 15.7899 12.2081 16.1593 12.2081C16.3965 12.2081 16.5231 12.1668 16.7947 11.9369L17.8946 11.0955H17.9607V17.9046C17.9607 18.4439 18.2588 18.7643 18.7536 18.7643Z" fill="black"/>
</svg>
