<svg width="28" height="28" viewBox="0 0 28 28" fill="none" xmlns="http://www.w3.org/2000/svg">
<path d="M14.105 26.21C20.7369 26.21 26.2121 20.7273 26.2121 14.105C26.2121 7.47312 20.7273 2 14.0954 2C7.47523 2 2 7.47312 2 14.105C2 20.7273 7.48484 26.21 14.105 26.21Z" fill="black"/>
<path d="M10.5114 19.688C9.85188 19.688 9.4668 19.2519 9.4668 18.5445V9.4833C9.4668 8.78838 9.85727 8.34143 10.5203 8.34143C10.982 8.34143 11.2684 8.50432 11.6406 9.01807L16.5257 15.9374H16.6258V9.48283C16.6258 8.7851 17.0087 8.34143 17.6704 8.34143C18.3512 8.34143 18.7438 8.76799 18.7438 9.48283V18.5748C18.7438 19.2805 18.3426 19.688 17.6837 19.688C17.2241 19.688 16.9485 19.5304 16.5836 19.0261L11.6678 12.1599H11.5773V18.5445C11.5773 19.269 11.1826 19.688 10.5114 19.688Z" fill="white"/>
</svg>
