<svg width="28" height="28" viewBox="0 0 28 28" fill="none" xmlns="http://www.w3.org/2000/svg">
<path d="M6.84421 24.8972H21.0295C23.5685 24.8972 24.8737 23.5919 24.8737 21.0914V6.82921C24.8737 4.32656 23.5685 3.02344 21.0295 3.02344H6.84421C4.31484 3.02344 3 4.31695 3 6.82921V21.0914C3 23.6016 4.31484 24.8972 6.84421 24.8972ZM6.97733 22.6013C5.88772 22.6013 5.29592 22.0371 5.29592 20.8985V7.01999C5.29592 5.88139 5.88772 5.31936 6.97733 5.31936H20.8964C21.9764 5.31936 22.5778 5.88139 22.5778 7.01999V20.8985C22.5778 22.0371 21.9764 22.6013 20.8964 22.6013H6.97733Z" fill="black"/>
<path d="M8.1553 18.6312H12.7146C13.1466 18.6312 13.4531 18.3267 13.4531 17.8542C13.4531 17.3784 13.1466 17.1049 12.7146 17.1049H9.66093V17.0208L11.7312 14.621C12.5984 13.6153 13.207 12.7884 13.2028 11.6503C13.1986 10.0509 12.0391 9.00372 10.2373 9.00372C8.86172 9.00372 7.64695 9.86481 7.34015 11.0454C7.31039 11.2083 7.27734 11.3435 7.27734 11.4968C7.27734 11.9461 7.55624 12.2505 7.98843 12.2505C8.37046 12.2505 8.56523 12.0323 8.71335 11.6723C8.98429 10.8862 9.51328 10.4906 10.2684 10.4906C11.1068 10.4906 11.6709 11.0196 11.6709 11.7918C11.6709 12.5029 11.0963 13.1044 10.5539 13.7501L7.70062 17.1002C7.48054 17.3543 7.38374 17.5852 7.38374 17.8596C7.38374 18.3321 7.69546 18.6312 8.1553 18.6312ZM19.2677 18.8625C19.7735 18.8625 20.0491 18.5196 20.0491 18.0394V16.7916H20.5912C21.0234 16.7916 21.2939 16.534 21.2939 16.0901C21.2939 15.6366 21.0234 15.3609 20.5912 15.3609H20.0491V10.2393C20.0491 9.4795 19.556 9.00372 18.7877 9.00372C18.0469 9.00372 17.603 9.29106 17.2036 9.98411C16.3238 11.4982 15.2541 13.3894 14.5521 14.6934C14.3709 15.0736 14.288 15.3736 14.288 15.7301C14.288 16.3955 14.7087 16.7958 15.3654 16.7958H18.5194V18.0394C18.5194 18.51 18.7833 18.8625 19.2677 18.8625ZM18.5194 15.3673H15.937V15.3204C16.5525 14.1016 17.6309 12.1446 18.4554 10.6849H18.5194V15.3673Z" fill="black"/>
</svg>
