<svg width="28" height="28" viewBox="0 0 28 28" fill="none" xmlns="http://www.w3.org/2000/svg">
<path d="M6.84421 24.8972H21.0295C23.5685 24.8972 24.8737 23.5919 24.8737 21.0914V6.82921C24.8737 4.32656 23.5685 3.02344 21.0295 3.02344H6.84421C4.31484 3.02344 3 4.31695 3 6.82921V21.0914C3 23.6016 4.31484 24.8972 6.84421 24.8972ZM6.97733 22.6013C5.88772 22.6013 5.29592 22.0371 5.29592 20.8985V7.01999C5.29592 5.88139 5.88772 5.31936 6.97733 5.31936H20.8964C21.9764 5.31936 22.5778 5.88139 22.5778 7.01999V20.8985C22.5778 22.0371 21.9764 22.6013 20.8964 22.6013H6.97733Z" fill="black"/>
<path d="M10.9485 19.1545H13.9073C17.2059 19.1545 19.0661 17.2645 19.0661 13.8316C19.0661 10.4351 17.2251 8.55469 13.9073 8.55469H10.9485C10.1969 8.55469 9.80664 9.03562 9.80664 9.81609V17.8931C9.80664 18.6736 10.1948 19.1545 10.9485 19.1545ZM11.9446 17.4546V10.2546H13.6141C15.7073 10.2546 16.8241 11.4895 16.8241 13.8605C16.8241 16.272 15.7169 17.4546 13.6141 17.4546H11.9446Z" fill="black"/>
</svg>
