<svg width="28" height="28" viewBox="0 0 28 28" fill="none" xmlns="http://www.w3.org/2000/svg">
<path d="M6.84421 24.8972H21.0295C23.5685 24.8972 24.8737 23.5919 24.8737 21.0914V6.82921C24.8737 4.32656 23.5685 3.02344 21.0295 3.02344H6.84421C4.31484 3.02344 3 4.31695 3 6.82921V21.0914C3 23.6016 4.31484 24.8972 6.84421 24.8972ZM6.97733 22.6013C5.88772 22.6013 5.29592 22.0371 5.29592 20.8985V7.01999C5.29592 5.88139 5.88772 5.31936 6.97733 5.31936H20.8964C21.9764 5.31936 22.5778 5.88139 22.5778 7.01999V20.8985C22.5778 22.0371 21.9764 22.6013 20.8964 22.6013H6.97733Z" fill="black"/>
<path d="M8.8657 19.1995C9.34687 19.1995 9.68648 18.862 9.68648 18.367V14.7623H10.5026C10.5762 14.7623 10.6423 14.7623 10.7255 14.7623L12.187 18.6525C12.3223 19.0336 12.6352 19.1911 12.9673 19.1911C13.4869 19.1911 14.0182 18.777 13.7403 18.0689L12.3054 14.4272C13.2403 14.0468 13.7391 12.8468 13.7391 11.6311C13.7391 9.7835 12.7859 8.69694 10.8602 8.69694H9.06515C8.38547 8.69694 8.0332 9.15163 8.0332 9.87725V18.367C8.0332 18.862 8.3707 19.1995 8.8657 19.1995ZM9.68648 13.4974V10.0235H10.6666C11.6241 10.0235 12.0581 10.6493 12.0581 11.7065C12.0581 12.746 11.6433 13.4974 10.6763 13.4974H9.68648ZM17.5271 18.6347C19.1893 18.6347 20.3768 17.6831 20.3768 16.0819C20.3768 14.9578 19.7738 14.164 18.4268 13.4712L17.3227 12.9056C16.7703 12.6208 16.2028 12.2604 16.2028 11.5608C16.2028 10.8933 16.6997 10.4667 17.4535 10.4667C18.2618 10.4667 18.6776 10.9849 18.7573 11.7122C18.8114 12.0935 19.1044 12.3183 19.4398 12.3183C19.8795 12.3183 20.2641 12.003 20.1788 11.3458C20.0295 10.1444 19.0758 9.15702 17.4577 9.15702C15.8522 9.15702 14.6686 10.133 14.6686 11.6405C14.6686 12.9094 15.3889 13.698 16.5931 14.2821L17.6304 14.7923C18.2562 15.0973 18.8501 15.558 18.8501 16.2084C18.8501 16.8771 18.3661 17.325 17.5334 17.325C16.5856 17.325 16.1719 16.8368 16.0814 16.0699C16.0177 15.6715 15.7397 15.4638 15.4149 15.4638C14.9806 15.4638 14.5939 15.8184 14.6792 16.4362C14.8519 17.7206 15.8853 18.6347 17.5271 18.6347ZM17.5196 19.916C17.7795 19.916 18 19.6976 18 19.4377V8.38499C18 8.11335 17.7795 7.89491 17.5196 7.89491C17.2618 7.89491 17.0316 8.11335 17.0316 8.38499V19.4377C17.0316 19.6976 17.2618 19.916 17.5196 19.916Z" fill="black"/>
</svg>
