<svg width="28" height="28" viewBox="0 0 28 28" fill="none" xmlns="http://www.w3.org/2000/svg">
<path d="M14.105 26.21C20.7369 26.21 26.2121 20.7273 26.2121 14.105C26.2121 7.47312 20.7273 2 14.0954 2C7.47523 2 2 7.47312 2 14.105C2 20.7273 7.48484 26.21 14.105 26.21Z" fill="black"/>
<path d="M12.3099 19.2161C11.7978 19.2161 11.518 18.8498 11.518 18.3516V17.0728H8.25218C7.56569 17.0728 7.12695 16.6544 7.12695 15.9593C7.12695 15.5847 7.21202 15.2688 7.40491 14.8706C8.13031 13.5218 9.22555 11.5711 10.1406 9.99634C10.5559 9.27142 11.0274 8.96814 11.8044 8.96814C12.6045 8.96814 13.1157 9.47369 13.1157 10.2654V15.57H13.6716C14.1293 15.57 14.4232 15.8615 14.4232 16.3352C14.4232 16.7951 14.1389 17.0665 13.6716 17.0665H13.1157V18.3516C13.1157 18.8595 12.8358 19.2161 12.3099 19.2161ZM11.518 15.5763V10.7269H11.4561C10.5964 12.2493 9.4946 14.2617 8.85569 15.5294V15.5763H11.518ZM18.9207 19.1083C18.4057 19.1083 18.0842 18.7741 18.0842 18.2105V11.1577H18.016L16.8926 12.0225C16.5975 12.2683 16.4668 12.3096 16.2253 12.3096C15.8379 12.3096 15.4812 11.9658 15.4812 11.5324C15.4812 11.1844 15.642 10.9427 15.9378 10.7142L17.6309 9.50463C18.1025 9.15471 18.3727 9.03752 18.7901 9.03752C19.3953 9.03752 19.7764 9.4451 19.7764 10.0481V18.2105C19.7764 18.7741 19.4548 19.1083 18.9207 19.1083Z" fill="white"/>
</svg>
