<svg width="28" height="28" viewBox="0 0 28 28" fill="none" xmlns="http://www.w3.org/2000/svg">
<path d="M6.84421 24.8972H21.0295C23.5685 24.8972 24.8737 23.5919 24.8737 21.0914V6.82921C24.8737 4.32656 23.5685 3.02344 21.0295 3.02344H6.84421C4.31484 3.02344 3 4.31695 3 6.82921V21.0914C3 23.6016 4.31484 24.8972 6.84421 24.8972ZM6.97733 22.6013C5.88772 22.6013 5.29592 22.0371 5.29592 20.8985V7.01999C5.29592 5.88139 5.88772 5.31936 6.97733 5.31936H20.8964C21.9764 5.31936 22.5778 5.88139 22.5778 7.01999V20.8985C22.5778 22.0371 21.9764 22.6013 20.8964 22.6013H6.97733Z" fill="black"/>
<path d="M11.636 18.8625C12.1418 18.8625 12.4078 18.5196 12.4078 18.0394V16.7916H12.9595C13.3917 16.7916 13.6621 16.534 13.6621 16.0901C13.6621 15.6366 13.3917 15.3609 12.9595 15.3609H12.4078V10.2394C12.4078 9.47956 11.9222 9.00378 11.156 9.00378C10.4152 9.00378 9.95954 9.29112 9.57189 9.98417C8.68032 11.4982 7.61274 13.3894 6.92039 14.6934C6.73922 15.0736 6.65625 15.3736 6.65625 15.7301C6.65625 16.3955 7.07695 16.7958 7.73367 16.7958H10.8759V18.0394C10.8759 18.51 11.1516 18.8625 11.636 18.8625ZM10.8759 15.3673H8.30531V15.3204C8.91117 14.1016 9.98954 12.1446 10.8216 10.685H10.8759V15.3673ZM18.004 18.8817C19.9691 18.8817 21.2922 17.0641 21.2922 13.9427C21.2922 10.8193 19.9691 9.00378 18.004 9.00378C16.0368 9.00378 14.7304 10.8193 14.7304 13.9427C14.7304 17.0641 16.0368 18.8817 18.004 18.8817ZM18.0104 17.3119C17.03 17.3119 16.4069 16.0915 16.4069 13.9427C16.4069 11.794 17.03 10.5736 18.0104 10.5736C18.9929 10.5736 19.6159 11.794 19.6159 13.9427C19.6159 16.0915 19.0024 17.3119 18.0104 17.3119Z" fill="black"/>
</svg>
