<svg width="28" height="28" viewBox="0 0 28 28" fill="none" xmlns="http://www.w3.org/2000/svg">
<path d="M6.84421 24.8972H21.0295C23.5685 24.8972 24.8737 23.5919 24.8737 21.0914V6.82921C24.8737 4.32656 23.5685 3.02344 21.0295 3.02344H6.84421C4.31484 3.02344 3 4.31695 3 6.82921V21.0914C3 23.6016 4.31484 24.8972 6.84421 24.8972ZM6.97733 22.6013C5.88772 22.6013 5.29592 22.0371 5.29592 20.8985V7.01999C5.29592 5.88139 5.88772 5.31936 6.97733 5.31936H20.8964C21.9764 5.31936 22.5778 5.88139 22.5778 7.01999V20.8985C22.5778 22.0371 21.9764 22.6013 20.8964 22.6013H6.97733Z" fill="black"/>
<path d="M15.1635 19.7379C15.6051 19.7379 16.0091 19.4168 16.0091 18.9316C16.0091 18.6687 15.8664 18.4441 15.6611 18.2463L12.5647 15.3452L12.8398 15.3389C15.0388 15.2777 16.1249 14.0119 16.3604 12.5965H17.4629C17.788 12.5965 18.014 12.3513 18.014 12.0433C18.014 11.7183 17.788 11.4827 17.4629 11.4827H16.3743C16.2943 10.8923 16.0907 10.3722 15.7335 9.9567H17.4128C17.74 9.9567 17.9659 9.70193 17.9659 9.39607C17.9659 9.06888 17.74 8.84294 17.4128 8.84294H14.9772C14.5663 8.77756 14.1301 8.7417 13.6708 8.7417H10.6323C10.2109 8.7417 9.86914 9.05998 9.86914 9.49427C9.86914 9.90724 10.2109 10.2522 10.6323 10.2522H12.6151C13.6222 10.2522 14.3045 10.7065 14.5187 11.4827H10.5467C10.2313 11.4827 9.9957 11.7183 9.9957 12.0433C9.9957 12.3513 10.2313 12.5965 10.5467 12.5965H14.5379C14.3376 13.4304 13.619 13.8537 12.4902 13.8537H10.8741C10.3473 13.8537 9.95774 14.1668 9.95774 14.7117C9.95774 15.1376 10.1368 15.3356 10.4345 15.6216L14.3877 19.3687C14.673 19.6444 14.8858 19.7379 15.1635 19.7379Z" fill="black"/>
</svg>
