<svg width="28" height="28" viewBox="0 0 28 28" fill="none" xmlns="http://www.w3.org/2000/svg">
<path d="M14.105 26.21C20.7369 26.21 26.2121 20.7273 26.2121 14.105C26.2121 7.47312 20.7273 2 14.0954 2C7.47523 2 2 7.47312 2 14.105C2 20.7273 7.48484 26.21 14.105 26.21Z" fill="black"/>
<path d="M14.1089 16.1286C13.4194 16.1286 13.0289 15.7466 13.0067 15.0516L12.8417 9.13951C12.8194 8.4235 13.3397 7.92334 14.0951 7.92334C14.843 7.92334 15.3804 8.4331 15.3581 9.14912L15.1835 15.0474C15.1613 15.7583 14.7729 16.1286 14.1089 16.1286ZM14.1089 20.1662C13.3214 20.1662 12.6699 19.5931 12.6699 18.8279C12.6699 18.0669 13.3118 17.4842 14.1089 17.4842C14.9039 17.4842 15.5416 18.0594 15.5416 18.8279C15.5416 19.6027 14.8943 20.1662 14.1089 20.1662Z" fill="white"/>
</svg>
