<svg width="28" height="28" viewBox="0 0 28 28" fill="none" xmlns="http://www.w3.org/2000/svg">
<path d="M14.105 26.21C20.7369 26.21 26.2121 20.7273 26.2121 14.105C26.2121 7.47312 20.7273 2 14.0954 2C7.47523 2 2 7.47312 2 14.105C2 20.7273 7.48484 26.21 14.105 26.21ZM14.105 23.8255C8.71085 23.8255 4.39412 19.4991 4.39412 14.105C4.39412 8.71085 8.70124 4.38452 14.0954 4.38452C19.4895 4.38452 23.8276 8.71085 23.8276 14.105C23.8276 19.4991 19.4991 23.8255 14.105 23.8255Z" fill="black"/>
<path d="M14.0667 19.5085C14.8164 19.5085 15.2268 19.014 15.2268 18.2218V10.5394H17.8305C18.3939 10.5394 18.7865 10.1862 18.7865 9.62466C18.7865 9.0535 18.3939 8.71741 17.8305 8.71741H10.3487C9.78531 8.71741 9.40234 9.0535 9.40234 9.62466C9.40234 10.1862 9.78531 10.5394 10.3487 10.5394H12.9353V18.2218C12.9353 18.9969 13.334 19.5085 14.0667 19.5085Z" fill="black"/>
</svg>
