<svg width="28" height="28" viewBox="0 0 28 28" fill="none" xmlns="http://www.w3.org/2000/svg">
<path d="M6.84421 24.8972H21.0295C23.5685 24.8972 24.8737 23.5919 24.8737 21.0914V6.82921C24.8737 4.32656 23.5685 3.02344 21.0295 3.02344H6.84421C4.31484 3.02344 3 4.31695 3 6.82921V21.0914C3 23.6016 4.31484 24.8972 6.84421 24.8972Z" fill="black"/>
<path d="M10.7871 18.9504C10.268 18.9504 9.94641 18.6141 9.94641 18.0504V10.9975H9.88031L8.74523 11.8624C8.46398 12.1082 8.33109 12.1495 8.08968 12.1495C7.70226 12.1495 7.33594 11.8036 7.33594 11.3723C7.33594 11.0243 7.50422 10.7805 7.79461 10.5541L9.49735 9.3445C9.95719 8.99458 10.237 8.87528 10.6566 8.87528C11.25 8.87528 11.6332 9.28286 11.6332 9.88801V18.0504C11.6332 18.6141 11.3116 18.9504 10.7871 18.9504ZM16.7975 19.0774C15.1798 19.0774 13.9046 18.0949 13.5966 17.0154C13.5455 16.8525 13.5178 16.7109 13.5178 16.5384C13.5178 16.068 13.8668 15.7507 14.28 15.7507C14.6527 15.7507 14.873 15.9403 15.0326 16.3207C15.3523 17.0885 15.9504 17.5088 16.8155 17.5088C17.831 17.5088 18.533 16.8752 18.533 16.0474C18.533 15.1643 17.8908 14.5873 16.8626 14.5873H16.2638C15.8032 14.5873 15.5168 14.2509 15.5168 13.8094C15.5168 13.3219 15.8159 13.0069 16.2638 13.0069H16.8146C17.6848 13.0069 18.2759 12.4247 18.2759 11.647C18.2759 10.8771 17.6775 10.3598 16.8221 10.3598C15.9837 10.3598 15.4547 10.7758 15.1948 11.5457C15.0511 11.924 14.8383 12.1179 14.456 12.1179C14.0067 12.1179 13.7119 11.7984 13.7119 11.3205C13.7119 11.1576 13.7182 11.014 13.7682 10.8384C14.0728 9.7413 15.2536 8.80591 16.8551 8.80591C18.6884 8.80591 19.9435 9.86927 19.9435 11.4161C19.9435 12.5107 19.1878 13.4932 18.2192 13.653V13.7318C19.3978 13.8502 20.2484 14.8687 20.2484 16.1325C20.2484 17.8627 18.8344 19.0774 16.7975 19.0774Z" fill="white"/>
</svg>
