<svg width="28" height="28" viewBox="0 0 28 28" fill="none" xmlns="http://www.w3.org/2000/svg">
<path d="M14.105 26.21C20.7369 26.21 26.2121 20.7273 26.2121 14.105C26.2121 7.47312 20.7273 2 14.0954 2C7.47523 2 2 7.47312 2 14.105C2 20.7273 7.48484 26.21 14.105 26.21Z" fill="black"/>
<path d="M13.5577 19.7145C11.7849 19.7145 10.4166 18.8647 9.99055 17.558C9.91812 17.36 9.88086 17.1652 9.88086 16.9416C9.88086 16.3194 10.3095 15.8853 10.9435 15.8832C11.4655 15.8832 11.7898 16.1225 12.0028 16.6491C12.2642 17.3541 12.8018 17.7531 13.6072 17.7531C14.5104 17.7531 15.0556 17.1045 15.0556 15.9713V9.70555C15.0556 8.92602 15.4672 8.41321 16.2043 8.41321C16.9489 8.41321 17.3721 8.90891 17.3721 9.70555V16.0159C17.3721 18.3962 16.0029 19.7145 13.5577 19.7145Z" fill="white"/>
</svg>
