<svg width="28" height="28" viewBox="0 0 28 28" fill="none" xmlns="http://www.w3.org/2000/svg">
<path d="M14.105 26.21C20.7369 26.21 26.2121 20.7273 26.2121 14.105C26.2121 7.47312 20.7273 2 14.0954 2C7.47523 2 2 7.47312 2 14.105C2 20.7273 7.48484 26.21 14.105 26.21ZM14.105 23.8255C8.71085 23.8255 4.39412 19.4991 4.39412 14.105C4.39412 8.71085 8.70124 4.38452 14.0954 4.38452C19.4895 4.38452 23.8276 8.71085 23.8276 14.105C23.8276 19.4991 19.4991 23.8255 14.105 23.8255Z" fill="black"/>
<path d="M13.8401 16.4421C14.4788 16.4421 14.8969 16.0629 14.9264 15.589C14.9285 15.5442 14.9307 15.4856 14.9349 15.4504C14.9665 14.8427 15.3732 14.4335 16.1386 13.9345C17.2985 13.1803 18.0439 12.509 18.0439 11.1429C18.0439 9.19548 16.2884 8.07751 14.2076 8.07751C12.1983 8.07751 10.8382 9.00048 10.4796 10.0976C10.4105 10.2956 10.3711 10.4937 10.3711 10.7056C10.3711 11.2709 10.8087 11.6196 11.2819 11.6196C11.7077 11.6196 12.0014 11.4363 12.2314 11.1319L12.4149 10.8865C12.8124 10.2511 13.3669 9.90539 14.074 9.90539C15.0244 9.90539 15.6568 10.4684 15.6568 11.262C15.6568 12.0082 15.1667 12.3696 14.1767 13.0591C13.3414 13.6408 12.7297 14.2429 12.7297 15.307C12.7297 15.3476 12.7297 15.3956 12.7297 15.4362C12.7297 16.0983 13.1307 16.4421 13.8401 16.4421ZM13.823 20.0292C14.5744 20.0292 15.192 19.4817 15.192 18.7429C15.192 18.0063 14.584 17.4567 13.823 17.4567C13.062 17.4567 12.4477 18.0138 12.4477 18.7429C12.4477 19.4721 13.0716 20.0292 13.823 20.0292Z" fill="black"/>
</svg>
