<svg width="28" height="28" viewBox="0 0 28 28" fill="none" xmlns="http://www.w3.org/2000/svg">
<path d="M6.84421 24.8972H21.0295C23.5685 24.8972 24.8737 23.5919 24.8737 21.0914V6.82921C24.8737 4.32656 23.5685 3.02344 21.0295 3.02344H6.84421C4.31484 3.02344 3 4.31695 3 6.82921V21.0914C3 23.6016 4.31484 24.8972 6.84421 24.8972Z" fill="black"/>
<path d="M13.4189 19.5544C11.6482 19.5544 10.2799 18.7045 9.85172 17.3979C9.78141 17.1998 9.74414 17.0051 9.74414 16.7815C9.74414 16.1592 10.1707 15.7252 10.8047 15.7231C11.3266 15.7231 11.651 15.9623 11.8662 16.489C12.135 17.194 12.6652 17.5929 13.4684 17.5929C14.3738 17.5929 14.9189 16.9444 14.9189 15.8112V9.54538C14.9189 8.76586 15.3284 8.25305 16.0655 8.25305C16.8218 8.25305 17.2334 8.74875 17.2334 9.54538V15.8557C17.2334 18.236 15.8663 19.5544 13.4189 19.5544Z" fill="white"/>
</svg>
