<svg width="28" height="28" viewBox="0 0 28 28" fill="none" xmlns="http://www.w3.org/2000/svg">
<path d="M14.105 26.21C20.7369 26.21 26.2121 20.7273 26.2121 14.105C26.2121 7.47312 20.7273 2 14.0954 2C7.47523 2 2 7.47312 2 14.105C2 20.7273 7.48484 26.21 14.105 26.21Z" fill="black"/>
<path d="M9.375 16.2905C9.375 15.9652 9.46312 15.6568 9.64382 15.3073C10.8434 13.1584 11.9393 11.1833 13.1365 9.04179C13.3919 8.59273 13.6814 8.3757 14.144 8.3757C14.7686 8.3757 15.1418 8.82804 15.1418 9.36968C15.1418 9.59936 15.0811 9.79952 14.9578 10.0705C13.9615 11.9368 12.9543 13.7394 11.9637 15.6043H14.9672V13.3465C14.9672 12.6535 15.3522 12.2279 15.9757 12.2279C16.6354 12.2279 17.0268 12.6397 17.0268 13.3465V15.6043H17.7194C18.348 15.6043 18.7406 15.9596 18.7406 16.5106C18.7406 17.0947 18.3459 17.4671 17.7173 17.4671H17.0268V18.5047C17.0268 19.2516 16.6375 19.6529 15.9778 19.6529C15.3544 19.6529 14.9672 19.242 14.9672 18.5047V17.4671H10.6038C9.84304 17.4671 9.375 17.0244 9.375 16.2905Z" fill="white"/>
</svg>
