<svg width="28" height="28" viewBox="0 0 28 28" fill="none" xmlns="http://www.w3.org/2000/svg">
<path d="M14.105 26.21C20.7369 26.21 26.2121 20.7273 26.2121 14.105C26.2121 7.47312 20.7273 2 14.0954 2C7.47523 2 2 7.47312 2 14.105C2 20.7273 7.48484 26.21 14.105 26.21Z" fill="black"/>
<path d="M15.6927 19.6529C15.0596 19.6529 14.6725 19.2324 14.6725 18.5047V17.4767H10.5495C9.65375 17.4767 9.08984 16.9468 9.08984 16.1286C9.08984 15.7295 9.18781 15.3795 9.44867 14.9082C10.3435 13.4016 11.6968 11.3588 12.8558 9.58272C13.4186 8.69796 14.0155 8.34687 15.0238 8.34687C16.0377 8.34687 16.7417 8.96374 16.7417 9.84569V15.6235H17.5229C18.1227 15.6235 18.496 15.998 18.496 16.5608C18.496 17.1139 18.1088 17.4767 17.5187 17.4767H16.7417V18.5047C16.7417 19.242 16.3524 19.6529 15.6927 19.6529ZM14.6725 15.6235V10.1197H14.5745C13.426 11.9159 12.0238 14.0766 11.1823 15.5511V15.6235H14.6725Z" fill="white"/>
</svg>
