<svg width="28" height="28" viewBox="0 0 28 28" fill="none" xmlns="http://www.w3.org/2000/svg">
<path d="M14.105 26.21C20.7369 26.21 26.2121 20.7273 26.2121 14.105C26.2121 7.47312 20.7273 2 14.0954 2C7.47523 2 2 7.47312 2 14.105C2 20.7273 7.48484 26.21 14.105 26.21ZM14.105 23.8255C8.71085 23.8255 4.39412 19.4991 4.39412 14.105C4.39412 8.71085 8.70124 4.38452 14.0954 4.38452C19.4895 4.38452 23.8276 8.71085 23.8276 14.105C23.8276 19.4991 19.4991 23.8255 14.105 23.8255Z" fill="black"/>
<path d="M9.48633 14.1484C9.48633 14.4563 9.72187 14.7111 10.0277 14.7111H10.7735V18.8816C10.7735 19.4326 11.1363 19.7825 11.6597 19.7825C12.1852 19.7825 12.5447 19.4326 12.5447 18.8816V14.7554H13.0069L16.4925 19.3402C16.7065 19.6445 16.9669 19.7825 17.2465 19.7825C17.7314 19.7825 18.0943 19.4356 18.0943 18.9772C18.0943 18.7869 18.0209 18.553 17.873 18.3477L14.9864 14.7111H17.82C18.1451 14.7111 18.371 14.4563 18.371 14.1484C18.371 13.8212 18.1451 13.5952 17.82 13.5952H14.9916L17.8634 10.0318C18.0007 9.85297 18.0795 9.63805 18.0795 9.46251C18.0795 9.01251 17.7305 8.67407 17.2465 8.67407C16.9859 8.67407 16.7361 8.80368 16.52 9.10907L12.9973 13.5889H12.5447V9.59C12.5447 9.02938 12.1948 8.68907 11.6597 8.68907C11.1267 8.68907 10.7735 9.02938 10.7735 9.59V13.5952H10.0277C9.72187 13.5952 9.48633 13.8212 9.48633 14.1484Z" fill="black"/>
</svg>
