<svg width="28" height="28" viewBox="0 0 28 28" fill="none" xmlns="http://www.w3.org/2000/svg">
<path d="M6.84421 24.8972H21.0295C23.5685 24.8972 24.8737 23.5919 24.8737 21.0914V6.82921C24.8737 4.32656 23.5685 3.02344 21.0295 3.02344H6.84421C4.31484 3.02344 3 4.31695 3 6.82921V21.0914C3 23.6016 4.31484 24.8972 6.84421 24.8972Z" fill="black"/>
<path d="M11.7462 19.3608C10.9753 19.3608 10.5469 18.829 10.5469 18.0136V9.53062C10.5469 8.71313 10.9753 8.17383 11.7462 8.17383C12.5362 8.17383 12.9668 8.70023 12.9668 9.53062V17.4211H17.1691C17.7687 17.4211 18.1802 17.787 18.1802 18.3888C18.1802 18.997 17.7687 19.3608 17.1691 19.3608H11.7462Z" fill="white"/>
</svg>
