<svg width="28" height="28" viewBox="0 0 28 28" fill="none" xmlns="http://www.w3.org/2000/svg">
<path d="M6.84421 24.8972H21.0295C23.5685 24.8972 24.8737 23.5919 24.8737 21.0914V6.82921C24.8737 4.32656 23.5685 3.02344 21.0295 3.02344H6.84421C4.31484 3.02344 3 4.31695 3 6.82921V21.0914C3 23.6016 4.31484 24.8972 6.84421 24.8972Z" fill="black"/>
<path d="M9.86523 13.9406C9.86523 11.4373 11.2307 9.78704 13.3778 9.52477V8.66883C13.3778 8.3236 13.6272 8.07422 13.9586 8.07422C14.2975 8.07422 14.5352 8.3236 14.5352 8.66883V9.51516C16.1156 9.69211 17.1843 10.5752 17.5422 11.6428C17.5816 11.7705 17.621 11.9142 17.621 12.0687C17.621 12.5677 17.2743 12.8965 16.785 12.8965C16.3924 12.8965 16.1252 12.6954 15.9529 12.3227C15.7045 11.7286 15.2287 11.2976 14.5352 11.1419V16.7435C15.2404 16.59 15.7183 16.1686 15.9668 15.5489C16.14 15.1978 16.4261 14.9944 16.7796 14.9944C17.2711 14.9944 17.6348 15.3232 17.6348 15.8126C17.6348 15.9607 17.6039 16.0992 17.5729 16.2197C17.2467 17.2662 16.1758 18.1924 14.5352 18.3757V19.2284C14.5352 19.5757 14.2975 19.8134 13.9586 19.8134C13.6272 19.8134 13.3778 19.5757 13.3778 19.2284V18.3661C11.2307 18.1017 9.86523 16.4653 9.86523 13.9406ZM11.6999 13.9406C11.6999 15.4812 12.3379 16.4536 13.3778 16.7105V11.1708C12.3379 11.4394 11.6999 12.4193 11.6999 13.9406Z" fill="white"/>
</svg>
