<svg width="28" height="28" viewBox="0 0 28 28" fill="none" xmlns="http://www.w3.org/2000/svg">
<path d="M14.105 26.21C20.7369 26.21 26.2121 20.7369 26.2121 14.105C26.2121 7.48273 20.7273 2 14.0954 2C7.47523 2 2 7.48273 2 14.105C2 20.7369 7.48484 26.21 14.105 26.21Z" fill="black"/>
<path d="M10.3688 19.5038C9.86984 19.5038 9.53797 19.1963 9.53797 18.6962C9.53797 18.2471 9.77937 17.9905 10.2298 17.7962C11.0394 17.5215 11.7528 16.7263 11.7528 15.5279C11.7528 15.2045 11.6952 14.863 11.6066 14.5107H10.2528C9.83656 14.5107 9.53516 14.2339 9.53516 13.8324C9.53516 13.4171 9.83656 13.1466 10.2528 13.1466H11.2923C11.1772 12.6884 11.0973 12.2227 11.0973 11.7528C11.0973 9.52884 12.6355 8.08954 15.1853 8.08954C16.0344 8.08954 16.7436 8.19595 17.2977 8.4322C17.7442 8.62274 17.9028 8.89954 17.9028 9.26259C17.9028 9.69665 17.653 9.97133 17.1622 9.97133C16.7717 9.97133 16.3398 9.72172 15.3571 9.72172C13.8446 9.72172 12.9725 10.5427 12.9725 11.7528C12.9725 12.2818 13.0674 12.7276 13.1624 13.1466H16.3513C16.7675 13.1466 17.0593 13.4171 17.0593 13.8324C17.0593 14.2339 16.7675 14.5107 16.3513 14.5107H13.4767C13.5481 14.818 13.5887 15.1487 13.5887 15.5262C13.5887 16.471 13.2006 17.3497 12.6048 17.8644H17.5161C18.0172 17.8644 18.3683 18.1878 18.3683 18.6889C18.3683 19.19 18.0172 19.5038 17.5161 19.5038H10.3688Z" fill="white"/>
</svg>
