<svg width="28" height="28" viewBox="0 0 28 28" fill="none" xmlns="http://www.w3.org/2000/svg">
<path d="M14.105 26.21C20.7369 26.21 26.2121 20.7273 26.2121 14.105C26.2121 7.47312 20.7273 2 14.0954 2C7.47523 2 2 7.47312 2 14.105C2 20.7273 7.48484 26.21 14.105 26.21Z" fill="black"/>
<path d="M10.8947 19.1105C10.368 19.1105 10.0444 18.7742 10.0444 18.2105V11.1577H9.97828L8.86241 12.0226C8.58116 12.2684 8.43118 12.3097 8.19727 12.3097C7.80774 12.3097 7.45312 11.9638 7.45312 11.5325C7.45312 11.1845 7.60218 10.9407 7.90218 10.7143L9.59531 9.50471C10.0744 9.15479 10.335 9.02588 10.7545 9.02588C11.3693 9.02588 11.7387 9.44307 11.7387 10.0482V18.2105C11.7387 18.7742 11.4171 19.1105 10.8947 19.1105ZM17.1361 19.2376C15.6338 19.2376 14.4882 18.4407 14.1333 17.5004C14.0546 17.3194 14.0236 17.1277 14.0236 16.9243C14.0236 16.4858 14.329 16.1537 14.7666 16.1537C15.0942 16.1537 15.3202 16.3548 15.514 16.6768C15.8529 17.3052 16.46 17.7155 17.2212 17.7155C18.2813 17.7155 19.0043 17.0141 19.0043 15.8623C19.0043 14.8503 18.3411 14.0741 17.3876 14.0741C16.894 14.0741 16.5411 14.2372 16.0826 14.6307C15.7254 14.9197 15.488 15.0261 15.075 15.0261C14.4872 15.0261 14.12 14.6012 14.1551 13.9388L14.4345 10.31C14.4696 9.62119 14.8936 9.20916 15.5635 9.20916H19.5875C20.0044 9.20916 20.2758 9.51479 20.2758 9.95635C20.2758 10.4096 19.9885 10.7077 19.5875 10.7077H15.8478L15.6303 13.5842H15.675C16.0362 13.0452 16.8591 12.6657 17.6349 12.6657C19.4065 12.6657 20.6478 13.9597 20.6478 15.8103C20.6478 17.923 19.2711 19.2376 17.1361 19.2376Z" fill="white"/>
</svg>
