<svg width="28" height="28" viewBox="0 0 28 28" fill="none" xmlns="http://www.w3.org/2000/svg">
<path d="M6.84421 24.8972H21.0295C23.5685 24.8972 24.8737 23.5919 24.8737 21.0914V6.82921C24.8737 4.32656 23.5685 3.02344 21.0295 3.02344H6.84421C4.31484 3.02344 3 4.31695 3 6.82921V21.0914C3 23.6016 4.31484 24.8972 6.84421 24.8972Z" fill="black"/>
<path d="M10.5916 18.9504C10.0767 18.9504 9.75516 18.6141 9.75516 18.0504V10.9975H9.69868L8.56359 11.8624C8.27812 12.1082 8.13773 12.1495 7.89844 12.1495C7.50891 12.1495 7.1543 11.8036 7.1543 11.3723C7.1543 11.0243 7.31297 10.7805 7.62047 10.5541L9.31149 9.3445C9.77344 8.99458 10.0458 8.87528 10.4653 8.87528C11.0759 8.87528 11.4494 9.28286 11.4494 9.88801V18.0504C11.4494 18.6141 11.1375 18.9504 10.5916 18.9504ZM17.0846 19.0774C15.0113 19.0774 13.6156 17.9128 13.6156 16.1665C13.6156 14.9402 14.3635 13.965 15.619 13.6955V13.6167C14.5657 13.316 13.9746 12.487 13.9746 11.4386C13.9746 9.87888 15.2681 8.80591 17.1038 8.80591C18.949 8.80591 20.2467 9.87888 20.2467 11.4386C20.2467 12.487 19.646 13.3352 18.6024 13.6167V13.6955C19.8441 13.965 20.6037 14.9306 20.6037 16.1569C20.6037 17.8936 19.1771 19.0774 17.0846 19.0774ZM17.1134 17.6789C18.1521 17.6789 18.8977 17.0039 18.8977 16.042C18.8977 15.0823 18.1714 14.3955 17.1134 14.3955C16.0885 14.3955 15.3408 15.0919 15.3408 16.042C15.3408 17.0039 16.0885 17.6789 17.1134 17.6789ZM17.1038 13.0519C17.9686 13.0519 18.567 12.4375 18.567 11.6079C18.567 10.7782 17.974 10.2002 17.1038 10.2002C16.2549 10.2002 15.6619 10.7782 15.6619 11.6079C15.6619 12.4375 16.2506 13.0519 17.1038 13.0519Z" fill="white"/>
</svg>
