<svg width="28" height="28" viewBox="0 0 28 28" fill="none" xmlns="http://www.w3.org/2000/svg">
<path d="M7.36342 24.7922C8.10732 24.7922 8.52216 24.4256 8.72747 23.7152L13.9981 6.38575H14.097L19.3794 23.7249C19.5826 24.4395 20.0068 24.7922 20.7678 24.7922C21.5874 24.7922 22.1616 24.2859 22.1616 23.5282C22.1616 23.3412 22.1201 23.0923 22.0222 22.7878L16.0779 4.58505C15.7604 3.58287 15.1189 3.05975 14.0651 3.05975C12.9784 3.05975 12.3369 3.57326 12.0193 4.58505L6.07297 22.7974C5.975 23.1019 5.94312 23.3412 5.94312 23.5282C5.94312 24.2859 6.51945 24.7922 7.36342 24.7922ZM5 14.5392C5 14.9463 5.3293 15.2756 5.73641 15.2756H22.3587C22.7658 15.2756 23.0951 14.9463 23.0951 14.5392C23.0951 14.1321 22.7658 13.8028 22.3587 13.8028H5.73641C5.3293 13.8028 5 14.1321 5 14.5392ZM5 18.6555C5 19.0648 5.3293 19.3941 5.73641 19.3941H22.3587C22.7658 19.3941 23.0951 19.0648 23.0951 18.6555C23.0951 18.2484 22.7658 17.9191 22.3587 17.9191H5.73641C5.3293 17.9191 5 18.2484 5 18.6555Z" fill="black"/>
</svg>
