<svg width="28" height="28" viewBox="0 0 28 28" fill="none" xmlns="http://www.w3.org/2000/svg">
<path d="M6.84421 24.8972H21.0295C23.5685 24.8972 24.8737 23.5919 24.8737 21.0914V6.82921C24.8737 4.32656 23.5685 3.02344 21.0295 3.02344H6.84421C4.31484 3.02344 3 4.31695 3 6.82921V21.0914C3 23.6016 4.31484 24.8972 6.84421 24.8972Z" fill="black"/>
<path d="M9.24023 15.0387C9.24023 14.719 9.47789 14.4717 9.81679 14.4717H18.1085C18.4336 14.4717 18.6659 14.719 18.6659 15.0387C18.6659 15.3797 18.4378 15.6291 18.1085 15.6291H12.622C12.2651 15.8658 12.0989 16.2591 12.0989 16.6151C12.0989 17.561 12.9511 18.0429 13.9866 18.0429C14.8139 18.0429 15.5583 17.6836 15.8832 16.9669C16.1011 16.5769 16.3482 16.4395 16.6992 16.4395C17.1964 16.4395 17.5271 16.7855 17.5174 17.258C17.5078 17.5458 17.4246 17.824 17.254 18.0809C16.6212 19.1787 15.3563 19.6741 14.0037 19.6741C11.943 19.6741 10.2705 18.5623 10.2705 16.7137C10.2705 16.3685 10.3889 15.9605 10.5968 15.6291H9.81679C9.47789 15.6291 9.24023 15.3797 9.24023 15.0387ZM9.26906 12.7301C9.26906 12.387 9.49922 12.1493 9.83601 12.1493H15.3129C15.6699 11.903 15.8457 11.5076 15.8457 11.1537C15.8457 10.2173 14.9839 9.72584 13.958 9.72584C13.1231 9.72584 12.3862 10.083 12.0518 10.7998C11.8434 11.1898 11.5889 11.3271 11.2474 11.3271C10.7386 11.3271 10.4175 10.9812 10.4175 10.5204C10.4271 10.223 10.522 9.95226 10.6809 9.69749C11.3191 8.58796 12.5787 8.0946 13.9313 8.0946C15.9919 8.0946 17.6644 9.20648 17.6644 11.055C17.6644 11.4002 17.5578 11.8062 17.3403 12.1493H18.1278C18.4571 12.1493 18.6947 12.387 18.6947 12.7301C18.6947 13.0476 18.4571 13.297 18.1278 13.297H9.83601C9.50133 13.297 9.26906 13.0476 9.26906 12.7301Z" fill="white"/>
</svg>
