<svg width="28" height="28" viewBox="0 0 28 28" fill="none" xmlns="http://www.w3.org/2000/svg">
<path d="M6.84421 24.8972H21.0295C23.5685 24.8972 24.8737 23.5919 24.8737 21.0914V6.82921C24.8737 4.32656 23.5685 3.02344 21.0295 3.02344H6.84421C4.31484 3.02344 3 4.31695 3 6.82921V21.0914C3 23.6016 4.31484 24.8972 6.84421 24.8972ZM6.97733 22.6013C5.88772 22.6013 5.29592 22.0371 5.29592 20.8985V7.01999C5.29592 5.88139 5.88772 5.31936 6.97733 5.31936H20.8964C21.9764 5.31936 22.5778 5.88139 22.5778 7.01999V20.8985C22.5778 22.0371 21.9764 22.6013 20.8964 22.6013H6.97733Z" fill="black"/>
<path d="M10.1602 18.8934C12.208 18.8934 13.5507 17.6341 13.5507 15.6045C13.5507 13.8176 12.353 12.5747 10.6463 12.5747C9.8907 12.5747 9.09547 12.9425 8.74812 13.4634H8.70336L8.90914 10.6796H12.5286C12.9116 10.6796 13.1851 10.3932 13.1851 9.96214C13.1851 9.53651 12.9254 9.25644 12.5286 9.25644H8.645C8.01453 9.25644 7.60649 9.65042 7.56922 10.2999L7.30367 13.8042C7.26852 14.4443 7.60813 14.8533 8.17039 14.8533C8.56531 14.8533 8.7964 14.749 9.14187 14.4621C9.58859 14.092 9.92985 13.9289 10.4075 13.9289C11.3354 13.9289 11.9773 14.67 11.9773 15.6469C11.9773 16.7634 11.2777 17.4469 10.2507 17.4469C9.51711 17.4469 8.91218 17.0503 8.585 16.4358C8.41461 16.1255 8.19078 15.9361 7.88117 15.9361C7.46164 15.9361 7.16797 16.2544 7.16797 16.6769C7.16797 16.8762 7.20102 17.0541 7.27016 17.2212C7.60906 18.1242 8.72281 18.8934 10.1602 18.8934ZM18.0118 18.8934C19.9769 18.8934 21.3001 17.078 21.3001 13.9544C21.3001 10.8331 19.9769 9.0155 18.0118 9.0155C16.0351 9.0155 14.7404 10.8331 14.7404 13.9544C14.7404 17.078 16.0351 18.8934 18.0118 18.8934ZM18.0203 17.3236C17.0282 17.3236 16.4148 16.1032 16.4148 13.9544C16.4148 11.8057 17.0282 10.5853 18.0203 10.5853C19.0028 10.5853 19.614 11.8057 19.614 13.9544C19.614 16.1032 19.0124 17.3236 18.0203 17.3236Z" fill="black"/>
</svg>
