<svg width="28" height="28" viewBox="0 0 28 28" fill="none" xmlns="http://www.w3.org/2000/svg">
<path d="M6.84421 24.8972H21.0295C23.5685 24.8972 24.8737 23.5919 24.8737 21.0914V6.82921C24.8737 4.32656 23.5685 3.02344 21.0295 3.02344H6.84421C4.31484 3.02344 3 4.31695 3 6.82921V21.0914C3 23.6016 4.31484 24.8972 6.84421 24.8972ZM6.97733 22.6013C5.88772 22.6013 5.29592 22.0371 5.29592 20.8985V7.01999C5.29592 5.88139 5.88772 5.31936 6.97733 5.31936H20.8964C21.9764 5.31936 22.5778 5.88139 22.5778 7.01999V20.8985C22.5778 22.0371 21.9764 22.6013 20.8964 22.6013H6.97733Z" fill="black"/>
<path d="M9.73438 12.1671C9.73438 14.1148 11.1973 15.5339 13.1952 15.5339C13.9571 15.5339 14.7533 15.2737 15.14 14.872H15.2945C15.1923 15.0541 15.0081 15.3002 14.7587 15.6019C14.1943 16.3146 13.52 17.1255 12.9118 17.8629C12.7053 18.1024 12.5799 18.3567 12.5799 18.6427C12.5799 19.068 12.9479 19.4712 13.5263 19.4712C14.0783 19.4712 14.3056 19.1637 14.6771 18.6996C15.2391 18.0075 16.0358 16.9741 16.5767 16.2476C17.6645 14.7956 18.197 13.6193 18.197 12.2841C18.197 9.96211 16.4938 8.40469 13.9604 8.40469C11.4418 8.40469 9.73438 9.95672 9.73438 12.1671ZM11.72 12.0736C11.72 10.9495 12.6744 10.1187 13.9508 10.1187C15.2293 10.1187 16.1933 10.9591 16.1933 12.0736C16.1933 13.2052 15.2389 14.0168 13.9604 14.0168C12.6744 14.0168 11.72 13.1955 11.72 12.0736Z" fill="black"/>
</svg>
