<svg width="29" height="28" viewBox="0 0 29 28" fill="none" xmlns="http://www.w3.org/2000/svg">
<path d="M1.33546 24.3954C2.15834 24.3954 2.67092 23.8732 2.67092 23.0088V15.772H6.03351C6.09328 15.772 6.17015 15.772 6.22992 15.772L10.3814 23.4033C10.7482 24.1109 11.1012 24.405 11.7464 24.405C12.51 24.405 13.1083 23.9102 13.1083 23.1863C13.1083 22.8621 12.9949 22.5361 12.7929 22.1344L8.95544 15.2951C11.5858 14.4837 13.121 12.2911 13.121 9.38343C13.121 5.63789 10.4899 3.1725 6.27398 3.1725H1.43389C0.535777 3.1725 0 3.73804 0 4.67225V23.0088C0 23.869 0.514684 24.3954 1.33546 24.3954ZM2.67092 13.538V5.52584H6.06866C8.76211 5.52584 10.3765 7.02959 10.3765 9.52335C10.3765 12.048 8.83242 13.538 6.14343 13.538H2.67092ZM21.4969 23.7518C25.2454 23.7518 28.2834 21.6881 28.2834 18.0485C28.2834 15.2081 26.5964 13.5696 22.8733 12.6352L20.91 12.1301C18.6968 11.5866 17.6526 10.662 17.6526 9.18023C17.6526 7.5928 19.0631 6.2735 21.502 6.2735C23.4499 6.2735 24.7659 7.25108 25.3432 8.99508C25.6439 9.6682 26.029 10.02 26.7051 10.02C27.4549 10.02 27.9356 9.54117 27.9356 8.75578C27.9356 8.55586 27.9037 8.33883 27.8442 8.09297C27.1966 5.58328 24.7315 3.85125 21.483 3.85125C17.7035 3.85125 15.0019 6.08273 15.0019 9.37874C15.0019 12.1453 16.71 13.8166 20.2338 14.6967L22.1972 15.1901C24.6865 15.8306 25.6465 16.6392 25.6465 18.2852C25.6465 20.2226 24.1106 21.3274 21.5329 21.3274C19.229 21.3274 17.8052 20.2828 17.2952 18.4781C17.0306 17.8402 16.6272 17.4626 15.9701 17.4626C15.2004 17.4626 14.7281 17.9955 14.7281 18.7934C14.7281 19.0041 14.7621 19.2136 14.8397 19.4529C15.5001 22.0713 18.1582 23.7518 21.4969 23.7518ZM21.4868 27.037C21.9621 27.037 22.331 26.6756 22.331 26.1919V1.46367C22.331 0.979921 21.9621 0.608904 21.4868 0.608904C21.0093 0.608904 20.6522 0.979921 20.6522 1.46367V26.1919C20.6522 26.6756 21.0093 27.037 21.4868 27.037Z" fill="black"/>
</svg>
