<svg width="28" height="28" viewBox="0 0 28 28" fill="none" xmlns="http://www.w3.org/2000/svg">
<path d="M6.84421 24.8972H21.0295C23.5685 24.8972 24.8737 23.5919 24.8737 21.0914V6.82921C24.8737 4.32656 23.5685 3.02344 21.0295 3.02344H6.84421C4.31484 3.02344 3 4.31695 3 6.82921V21.0914C3 23.6016 4.31484 24.8972 6.84421 24.8972Z" fill="black"/>
<path d="M10.9709 18.9504C10.4517 18.9504 10.1302 18.6141 10.1302 18.0504V10.9976H10.0641L8.9407 11.872C8.65523 12.1083 8.51484 12.1495 8.27344 12.1495C7.88601 12.1495 7.5293 11.8036 7.5293 11.3723C7.5293 11.0243 7.69008 10.7805 7.97625 10.5541L9.67899 9.34453C10.1505 8.99461 10.4208 8.87531 10.8403 8.87531C11.453 8.87531 11.8266 9.28289 11.8266 9.88804V18.0504C11.8266 18.6141 11.505 18.9504 10.9709 18.9504ZM15.6241 18.96C15.1122 18.96 14.7185 18.596 14.7185 18.0757C14.7185 17.8202 14.7525 17.6627 14.8685 17.452L18.359 10.6793V10.578H14.4733C14.0008 10.578 13.6584 10.2853 13.6584 9.81937C13.6584 9.34383 13.9945 9.03938 14.4733 9.03938H19.0741C19.8316 9.03938 20.2661 9.55664 20.2661 10.1848C20.2661 10.4573 20.215 10.7011 20.036 11.0794L16.5126 18.2855C16.2752 18.7526 16.0282 18.96 15.6241 18.96Z" fill="white"/>
</svg>
