<svg width="28" height="28" viewBox="0 0 28 28" fill="none" xmlns="http://www.w3.org/2000/svg">
<path d="M6.84421 24.8972H21.0295C23.5685 24.8972 24.8737 23.5919 24.8737 21.0914V6.82921C24.8737 4.32656 23.5685 3.02344 21.0295 3.02344H6.84421C4.31484 3.02344 3 4.31695 3 6.82921V21.0914C3 23.6016 4.31484 24.8972 6.84421 24.8972Z" fill="black"/>
<path d="M13.8276 19.6357C11.635 19.6357 10.1448 18.6452 9.6796 17.5242C9.57109 17.2931 9.51367 17.0728 9.51367 16.86C9.51367 16.2778 9.92007 15.8937 10.5149 15.8937C10.9612 15.8937 11.2464 16.0919 11.5197 16.5119C12.0091 17.3864 12.8078 17.8195 13.9658 17.8195C15.1825 17.8195 16.1029 17.2969 16.1029 16.3486C16.1029 15.5808 15.6444 15.2597 14.2274 14.8971L12.5877 14.4544C10.6495 13.9767 9.61656 13.0568 9.61656 11.4764C9.61656 9.47742 11.3793 8.08313 13.9565 8.08313C15.9681 8.08313 17.4613 8.97422 17.9563 10.2169C18.0615 10.4447 18.1051 10.6767 18.1051 10.8649C18.1051 11.4633 17.7039 11.7825 17.1442 11.7825C16.6501 11.7825 16.3754 11.5746 16.127 11.1698C15.6756 10.2675 14.9856 9.85031 13.8871 9.85031C12.73 9.85031 11.9823 10.4189 11.9823 11.3128C11.9823 11.992 12.4396 12.3888 13.6103 12.6682L15.1684 13.0575C17.2958 13.5694 18.4635 14.5001 18.4635 16.1444C18.4635 18.2852 16.6295 19.6357 13.8276 19.6357Z" fill="white"/>
</svg>
