<svg width="28" height="28" viewBox="0 0 28 28" fill="none" xmlns="http://www.w3.org/2000/svg">
<path d="M6.84421 24.8972H21.0295C23.5685 24.8972 24.8737 23.5919 24.8737 21.0914V6.82921C24.8737 4.32656 23.5685 3.02344 21.0295 3.02344H6.84421C4.31484 3.02344 3 4.31695 3 6.82921V21.0914C3 23.6016 4.31484 24.8972 6.84421 24.8972Z" fill="black"/>
<path d="M10.4824 18.9504C9.95789 18.9504 9.64594 18.6141 9.64594 18.0504V10.9975H9.57985L8.45437 11.8624C8.1689 12.1082 8.01891 12.1495 7.78922 12.1495C7.39969 12.1495 7.04297 11.8036 7.04297 11.3723C7.04297 11.0243 7.20375 10.7805 7.50164 10.5541L9.19266 9.3445C9.65461 8.99458 9.93446 8.87528 10.3423 8.87528C10.957 8.87528 11.3402 9.28286 11.3402 9.88801V18.0504C11.3402 18.6141 11.0187 18.9504 10.4824 18.9504ZM17.0074 19.0891C15.7643 19.0891 14.7171 18.5993 14.1087 17.4105C13.7112 16.65 13.4852 15.5824 13.4852 14.1755C13.4852 10.5991 14.9444 8.80591 17.2237 8.80591C18.5791 8.80591 19.519 9.49333 19.8396 10.2703C19.913 10.4533 19.9427 10.6045 19.9427 10.796C19.9427 11.2282 19.6502 11.5146 19.283 11.5146C18.938 11.5146 18.7261 11.3601 18.5194 11.0744C18.2412 10.65 17.8092 10.345 17.163 10.345C15.926 10.345 15.0794 11.644 15.0794 13.6875C15.0794 13.782 15.0837 13.8328 15.0858 13.8891H15.1636C15.4662 13.1323 16.2124 12.4521 17.4436 12.4521C18.9569 12.4521 20.3105 13.5773 20.3105 15.5925C20.3105 17.7799 18.9455 19.0891 17.0074 19.0891ZM16.9169 17.6182C17.9665 17.6182 18.6373 16.8675 18.6373 15.6966C18.6373 14.5929 17.9473 13.8326 16.9266 13.8326C15.9112 13.8326 15.1999 14.6025 15.1999 15.6869C15.1999 16.8216 15.9112 17.6182 16.9169 17.6182Z" fill="white"/>
</svg>
