<svg width="28" height="28" viewBox="0 0 28 28" fill="none" xmlns="http://www.w3.org/2000/svg">
<path d="M6.84421 24.8972H21.0295C23.5685 24.8972 24.8737 23.5919 24.8737 21.0914V6.82921C24.8737 4.32656 23.5685 3.02344 21.0295 3.02344H6.84421C4.31484 3.02344 3 4.31695 3 6.82921V21.0914C3 23.6016 4.31484 24.8972 6.84421 24.8972ZM6.97733 22.6013C5.88772 22.6013 5.29592 22.0371 5.29592 20.8985V7.01999C5.29592 5.88139 5.88772 5.31936 6.97733 5.31936H20.8964C21.9764 5.31936 22.5778 5.88139 22.5778 7.01999V20.8985C22.5778 22.0371 21.9764 22.6013 20.8964 22.6013H6.97733Z" fill="black"/>
<path d="M11.293 19.2049H17.2384C17.7976 19.2049 18.1923 18.8613 18.1923 18.3082C18.1923 17.7359 17.8018 17.4061 17.2384 17.4061H13.3935V17.3177L15.8797 14.7094C16.9902 13.5898 17.6957 12.6682 17.6957 11.4117C17.6957 9.60726 16.2154 8.40468 13.9841 8.40468C12.2526 8.40468 10.7507 9.38929 10.3525 10.7102C10.2993 10.8965 10.2812 11.0562 10.2812 11.2254C10.2812 11.7668 10.6513 12.0893 11.1937 12.0893C11.6767 12.0893 11.9151 11.8125 12.1312 11.478C12.4412 10.8328 12.9852 10.1566 14.0092 10.1566C14.998 10.1566 15.6456 10.7252 15.6456 11.5861C15.6456 12.3656 15.013 13.0256 14.2963 13.7459L10.7256 17.4532C10.4378 17.7391 10.3281 18.0199 10.3281 18.3209C10.3281 18.8571 10.6961 19.2049 11.293 19.2049Z" fill="black"/>
</svg>
