<svg width="28" height="28" viewBox="0 0 28 28" fill="none" xmlns="http://www.w3.org/2000/svg">
<path d="M6.84421 24.8972H21.0295C23.5685 24.8972 24.8737 23.5919 24.8737 21.0914V6.82921C24.8737 4.32656 23.5685 3.02344 21.0295 3.02344H6.84421C4.31484 3.02344 3 4.31695 3 6.82921V21.0914C3 23.6016 4.31484 24.8972 6.84421 24.8972Z" fill="black"/>
<path d="M11.2144 19.4187C10.5834 19.4187 10.1974 19.0528 10.1974 18.4847C10.1974 18.1774 10.3167 17.8786 10.6151 17.5767L14.3199 13.7416C15.0685 12.9916 15.7245 12.3061 15.7245 11.5031C15.7245 10.6167 15.0535 10.0268 14.0316 10.0268C12.9799 10.0268 12.4146 10.7264 12.0928 11.3876C11.8704 11.7359 11.6182 12.0286 11.115 12.0286C10.5366 12.0286 10.1484 11.688 10.1484 11.1244C10.1484 10.9434 10.1686 10.7775 10.2314 10.5795C10.6477 9.2107 12.2112 8.18671 14.0065 8.18671C16.3313 8.18671 17.8753 9.44671 17.8753 11.3128C17.8753 12.6225 17.1422 13.5876 15.9818 14.7412L13.4231 17.4413V17.5296H17.3916C17.989 17.5296 18.3996 17.8753 18.3996 18.472C18.3996 19.057 17.9827 19.4187 17.3916 19.4187H11.2144Z" fill="white"/>
</svg>
