<svg width="28" height="28" viewBox="0 0 28 28" fill="none" xmlns="http://www.w3.org/2000/svg">
<path d="M14.105 26.21C20.7369 26.21 26.2121 20.7273 26.2121 14.105C26.2121 7.47312 20.7273 2 14.0954 2C7.47523 2 2 7.47312 2 14.105C2 20.7273 7.48484 26.21 14.105 26.21ZM14.105 23.8255C8.71085 23.8255 4.39412 19.4991 4.39412 14.105C4.39412 8.71085 8.70124 4.38452 14.0954 4.38452C19.4895 4.38452 23.8276 8.71085 23.8276 14.105C23.8276 19.4991 19.4991 23.8255 14.105 23.8255Z" fill="black"/>
<path d="M10.1727 19.0419C12.146 19.0419 13.4929 17.8803 13.4929 16.2097C13.4929 14.9991 12.6797 14.0124 11.5424 13.9037V13.827C12.4718 13.6693 13.2018 12.7283 13.2018 11.6732C13.2018 10.1858 11.9903 9.16394 10.2421 9.16394C8.68422 9.16394 7.55664 10.0557 7.25617 11.1156C7.21797 11.289 7.19993 11.4189 7.19993 11.5796C7.19993 12.0394 7.49055 12.343 7.91219 12.343C8.29024 12.343 8.48711 12.1512 8.61906 11.7889C8.87688 11.0446 9.39203 10.6382 10.207 10.6382C11.0273 10.6382 11.6043 11.1437 11.6043 11.8881C11.6043 12.6444 11.0345 13.2106 10.1995 13.2106H9.67C9.23055 13.2106 8.94743 13.5118 8.94743 13.9695C8.94743 14.393 9.2179 14.7134 9.67 14.7134H10.2379C11.2406 14.7134 11.8614 15.2766 11.8614 16.1246C11.8614 16.9311 11.1808 17.5508 10.1887 17.5508C9.36836 17.5508 8.77445 17.1423 8.4782 16.3979C8.32281 16.0334 8.10461 15.8459 7.7575 15.8459C7.35063 15.8459 7.0293 16.1495 7.0293 16.5997C7.0293 16.7701 7.04524 16.8999 7.09422 17.0586C7.39047 18.0987 8.63172 19.0419 10.1727 19.0419ZM19.5717 19.0227C20.0679 19.0227 20.3435 18.6798 20.3435 18.1995V16.9517H20.8952C21.3274 16.9517 21.5979 16.6941 21.5979 16.2502C21.5979 15.7967 21.3274 15.5211 20.8952 15.5211H20.3435V10.3996C20.3435 9.63972 19.8579 9.16394 19.0917 9.16394C18.3508 9.16394 17.8952 9.45128 17.5076 10.1443C16.616 11.6584 15.5484 13.5495 14.8561 14.8536C14.6749 15.2338 14.5898 15.5337 14.5898 15.8902C14.5898 16.5556 15.0126 16.9559 15.6597 16.9559H18.8116V18.1995C18.8116 18.6702 19.0872 19.0227 19.5717 19.0227ZM18.8116 15.5274H16.2314V15.4805C16.8468 14.2618 17.9252 12.3048 18.7572 10.8451H18.8116V15.5274Z" fill="black"/>
</svg>
