<svg width="28" height="28" viewBox="0 0 28 28" fill="none" xmlns="http://www.w3.org/2000/svg">
<path d="M6.84421 24.8972H21.0295C23.5685 24.8972 24.8737 23.5919 24.8737 21.0914V6.82921C24.8737 4.32656 23.5685 3.02344 21.0295 3.02344H6.84421C4.31484 3.02344 3 4.31695 3 6.82921V21.0914C3 23.6016 4.31484 24.8972 6.84421 24.8972ZM6.97733 22.6013C5.88772 22.6013 5.29592 22.0371 5.29592 20.8985V7.01999C5.29592 5.88139 5.88772 5.31936 6.97733 5.31936H20.8964C21.9764 5.31936 22.5778 5.88139 22.5778 7.01999V20.8985C22.5778 22.0371 21.9764 22.6013 20.8964 22.6013H6.97733Z" fill="black"/>
<path d="M10.3668 19.7018C10.8264 19.7018 11.1182 19.3847 11.1182 18.878V15.2892H11.5708L12.853 19.1496C12.982 19.5551 13.2215 19.7039 13.5747 19.7039C14.0036 19.7039 14.291 19.4004 14.291 18.9673C14.291 18.8023 14.257 18.6345 14.1984 18.4566L12.9391 14.7949C13.8239 14.3123 14.3238 13.1348 14.3238 11.7867C14.3238 9.59624 13.4439 8.52022 11.714 8.52022H10.4146C9.92946 8.52022 9.63672 8.84061 9.63672 9.39491V18.8513C9.63672 19.3655 9.90508 19.7018 10.3668 19.7018ZM11.1182 13.6959V9.99866H11.6519C12.4593 9.99866 12.8188 10.6329 12.8188 11.8387C12.8188 13.0638 12.4593 13.6959 11.623 13.6959H11.1182ZM16.8602 19.7114C18.1863 19.7114 19.0439 18.7718 19.0439 17.2955C19.0439 16.1573 18.6316 15.4723 17.5024 14.847L17.0601 14.6072C16.4812 14.2884 16.2382 13.9676 16.2382 13.443C16.2382 12.8819 16.4463 12.5407 16.8485 12.5407C17.3318 12.5407 17.463 12.9033 17.5228 13.5595C17.5622 14.0292 17.7825 14.3189 18.2168 14.3189C18.6628 14.3189 18.9225 14.0091 18.9225 13.5192C18.9225 13.3915 18.9086 13.2797 18.8948 13.1541C18.765 12.0054 18.06 11.1537 16.8602 11.1537C15.6119 11.1537 14.7928 12.0816 14.7928 13.5131C14.7928 14.6297 15.236 15.3755 16.3343 15.9644L16.7904 16.2063C17.3395 16.4899 17.5687 16.8504 17.5687 17.4209C17.5687 18.0246 17.3275 18.352 16.8698 18.352C16.3769 18.352 16.1709 17.9573 16.1165 17.3215C16.0729 16.8569 15.8439 16.5663 15.4087 16.5663C14.9564 16.5663 14.6946 16.8825 14.6946 17.3702C14.6946 17.5109 14.6967 17.6377 14.718 17.7644C14.8523 18.9049 15.6351 19.7114 16.8602 19.7114Z" fill="black"/>
</svg>
