<svg width="28" height="28" viewBox="0 0 28 28" fill="none" xmlns="http://www.w3.org/2000/svg">
<path d="M9.82428 24.6727C10.6704 24.6727 11.2666 24.1249 11.2666 23.1846V4.65772C11.2666 3.71531 10.6704 3.19641 9.82428 3.19641C8.95898 3.19641 8.38711 3.71531 8.38711 4.65561V23.1846C8.38711 24.1249 8.95898 24.6727 9.82428 24.6727ZM20.9925 24.6727C21.7954 24.6727 22.3528 24.0914 22.3528 23.4014C22.3528 23.0827 22.2633 22.736 21.9679 22.3474L15.1839 13.7613L21.9679 5.35264C22.1988 5.05803 22.3115 4.72194 22.3115 4.42757C22.3115 3.71016 21.7333 3.19641 20.9988 3.19641C20.524 3.19641 20.1698 3.41203 19.7902 3.92015L12.0928 13.7656L19.7407 23.9121C20.1267 24.4613 20.4881 24.6727 20.9925 24.6727ZM6.72891 14.4872H22.1805C22.5993 14.4872 22.919 14.1621 22.919 13.7508C22.919 13.3223 22.5993 13.0144 22.1805 13.0144H6.72891C6.31008 13.0144 6 13.3223 6 13.7508C6 14.1621 6.31969 14.4872 6.72891 14.4872Z" fill="black"/>
</svg>
