<svg width="28" height="28" viewBox="0 0 28 28" fill="none" xmlns="http://www.w3.org/2000/svg">
<path d="M14.105 26.21C20.7369 26.21 26.2121 20.7273 26.2121 14.105C26.2121 7.47312 20.7273 2 14.0954 2C7.47523 2 2 7.47312 2 14.105C2 20.7273 7.48484 26.21 14.105 26.21Z" fill="black"/>
<path d="M14.0862 19.8589C11.3848 19.8589 9.60938 18.5623 9.60938 16.5779C9.60938 15.2155 10.5959 14.1116 12.0743 13.8376V13.7504C10.8016 13.3712 10.0856 12.4716 10.0856 11.303C10.0856 9.53795 11.7066 8.34686 14.1054 8.34686C16.4946 8.34686 18.1252 9.53795 18.1252 11.303C18.1252 12.4716 17.3803 13.3925 16.1269 13.7504V13.8376C17.6053 14.1116 18.5939 15.2059 18.5939 16.5683C18.5939 18.5431 16.7855 19.8589 14.0862 19.8589ZM14.115 18.2846C15.3799 18.2846 16.3132 17.5126 16.3132 16.4323C16.3132 15.3713 15.4088 14.5951 14.115 14.5951C12.8405 14.5951 11.8976 15.3809 11.8976 16.4323C11.8976 17.5126 12.8309 18.2846 14.115 18.2846ZM14.1054 13.1216C15.1741 13.1216 15.941 12.4487 15.941 11.5069C15.941 10.594 15.1795 9.92865 14.1054 9.92865C13.0312 9.92865 12.2602 10.594 12.2602 11.5069C12.2602 12.4487 13.0291 13.1216 14.1054 13.1216Z" fill="white"/>
</svg>
