<svg width="28" height="28" viewBox="0 0 28 28" fill="none" xmlns="http://www.w3.org/2000/svg">
<path d="M14.105 26.21C20.7369 26.21 26.2121 20.7273 26.2121 14.105C26.2121 7.47312 20.7273 2 14.0954 2C7.47523 2 2 7.47312 2 14.105C2 20.7273 7.48484 26.21 14.105 26.21Z" fill="black"/>
<path d="M11.7126 19.2184C11.2005 19.2184 10.9206 18.852 10.9206 18.3516V17.0729H7.65484C6.97586 17.0729 6.53711 16.6545 6.53711 15.9594C6.53711 15.5848 6.62219 15.2689 6.81719 14.8707C7.53086 13.5177 8.6261 11.569 9.55282 9.99637C9.95431 9.27145 10.428 8.96606 11.2028 8.96606C12.0072 8.96606 12.5183 9.47372 12.5183 10.2654V15.5701H13.0797C13.532 15.5701 13.8163 15.8637 13.8163 16.3353C13.8163 16.7952 13.532 17.0666 13.0797 17.0666H12.5183V18.3516C12.5183 18.8637 12.2268 19.2184 11.7126 19.2184ZM10.9206 15.5764V10.7269H10.8545C9.99906 12.2452 8.89304 14.2618 8.25624 15.5295V15.5764H10.9206ZM18.324 19.2376C16.2857 19.2376 14.9219 17.3551 14.9219 14.1029C14.9219 10.8507 16.2857 8.96606 18.324 8.96606C20.3699 8.96606 21.7389 10.8507 21.7389 14.1029C21.7389 17.3551 20.3699 19.2376 18.324 19.2376ZM18.3304 17.5881C19.3576 17.5881 19.9827 16.3325 19.9827 14.1029C19.9827 11.8733 19.348 10.6177 18.3304 10.6177C17.3148 10.6177 16.6801 11.8733 16.6801 14.1029C16.6801 16.3325 17.3148 17.5881 18.3304 17.5881Z" fill="white"/>
</svg>
