<svg width="28" height="28" viewBox="0 0 28 28" fill="none" xmlns="http://www.w3.org/2000/svg">
<path d="M6.84421 24.8972H21.0295C23.5685 24.8972 24.8737 23.5919 24.8737 21.0914V6.82921C24.8737 4.32656 23.5685 3.02344 21.0295 3.02344H6.84421C4.31484 3.02344 3 4.31695 3 6.82921V21.0914C3 23.6016 4.31484 24.8972 6.84421 24.8972Z" fill="black"/>
<path d="M14.1423 21.0466C13.8109 21.0466 13.5615 20.809 13.5615 20.4584V19.676C10.9231 19.3861 9.26562 17.2973 9.26562 13.9819C9.26562 10.7135 10.9339 8.58351 13.5615 8.29663V7.48593C13.5615 7.1353 13.8109 6.90726 14.1423 6.90726C14.4695 6.90726 14.7189 7.1353 14.7189 7.48593V8.27741C16.4066 8.44476 17.7955 9.42421 18.3165 10.8087C18.3815 11.0121 18.4304 11.208 18.4304 11.4253C18.4304 11.9306 18.0932 12.269 17.6015 12.269C17.1193 12.269 16.9075 12.0818 16.7076 11.6161C16.4118 10.7491 15.6545 10.1186 14.7189 9.97029V13.5598H17.7175C18.2961 13.5598 18.6716 13.913 18.6716 14.4898V15.0211C18.6716 17.7105 17.2731 19.4991 14.7189 19.6856V20.4584C14.7189 20.809 14.4695 21.0466 14.1423 21.0466ZM13.5615 17.9967V9.98951C12.088 10.3061 11.1835 11.7902 11.1835 13.9734C11.1835 16.1791 12.0826 17.6716 13.5615 17.9967ZM14.7189 18.0394C16.0307 17.8399 16.7954 16.8225 16.7954 15.3687V15.1287H14.7189V18.0394Z" fill="white"/>
</svg>
