<svg width="28" height="28" viewBox="0 0 28 28" fill="none" xmlns="http://www.w3.org/2000/svg">
<path d="M6.84421 24.8972H21.0295C23.5685 24.8972 24.8737 23.5919 24.8737 21.0914V6.82921C24.8737 4.32656 23.5685 3.02344 21.0295 3.02344H6.84421C4.31484 3.02344 3 4.31695 3 6.82921V21.0914C3 23.6016 4.31484 24.8972 6.84421 24.8972Z" fill="black"/>
<path d="M11.4977 19.056C10.9835 19.056 10.7133 18.6897 10.7133 18.1914V16.9126H7.4475C6.75891 16.9126 6.32227 16.4943 6.32227 15.7991C6.32227 15.4246 6.40946 15.1087 6.60024 14.7104C7.32774 13.3616 8.41876 11.411 9.33798 9.83618C9.75119 9.11126 10.2131 8.80798 10.988 8.80798C11.7998 8.80798 12.311 9.31352 12.311 10.1052V15.4098H12.8648C13.3247 15.4098 13.609 15.7014 13.609 16.1751C13.609 16.6349 13.3343 16.9063 12.8648 16.9063H12.311V18.1914C12.311 18.6993 12.0216 19.056 11.4977 19.056ZM10.7133 15.4161V10.5667H10.6397C9.79172 12.0892 8.68781 14.1015 8.05101 15.3693V15.4161H10.7133ZM17.8568 19.0752C16.3662 19.0752 15.2109 18.2783 14.8561 17.338C14.7773 17.1592 14.7368 16.9675 14.7368 16.764C14.7368 16.3255 15.0518 15.9934 15.4894 15.9934C15.817 15.9934 16.043 16.1945 16.2272 16.5165C16.5661 17.1545 17.1827 17.5628 17.9419 17.5628C19.0041 17.5628 19.7271 16.8538 19.7271 15.7021C19.7271 14.69 19.0638 13.9138 18.1104 13.9138C17.6072 13.9138 17.2638 14.0769 16.7958 14.4704C16.4344 14.7594 16.2012 14.8754 15.7882 14.8754C15.2079 14.8754 14.8427 14.4409 14.8875 13.7786L15.1476 10.1519C15.2041 9.46095 15.6164 9.04892 16.2862 9.04892H20.3102C20.7272 9.04892 21.0007 9.35454 21.0007 9.79821C21.0007 10.2494 20.7134 10.5475 20.3102 10.5475H16.5609L16.353 13.4336H16.3978C16.7611 12.8849 17.5819 12.5055 18.3651 12.5055C20.1272 12.5055 21.3801 13.7994 21.3801 15.6501C21.3801 17.7627 19.9821 19.0752 17.8568 19.0752Z" fill="white"/>
</svg>
