<svg width="28" height="28" viewBox="0 0 28 28" fill="none" xmlns="http://www.w3.org/2000/svg">
<path d="M14.105 26.21C20.7369 26.21 26.2121 20.7273 26.2121 14.105C26.2121 7.47312 20.7273 2 14.0954 2C7.47523 2 2 7.47312 2 14.105C2 20.7273 7.48484 26.21 14.105 26.21ZM14.105 23.8255C8.71085 23.8255 4.39412 19.4991 4.39412 14.105C4.39412 8.71085 8.70124 4.38452 14.0954 4.38452C19.4895 4.38452 23.8276 8.71085 23.8276 14.105C23.8276 19.4991 19.4991 23.8255 14.105 23.8255Z" fill="black"/>
<path d="M10.2235 19.0227C12.1967 19.0227 13.5436 17.8611 13.5436 16.1905C13.5436 14.9799 12.7325 13.9932 11.5953 13.8941V13.8174C12.5225 13.6597 13.2525 12.7187 13.2525 11.6635C13.2525 10.1762 12.0432 9.1543 10.2929 9.1543C8.74673 9.1543 7.60743 10.0461 7.30907 11.1059C7.26876 11.2773 7.26243 11.3975 7.26243 11.57C7.26243 12.0298 7.54133 12.3333 7.97469 12.3333C8.34313 12.3333 8.54961 12.1416 8.67196 11.7793C8.93938 11.0253 9.44493 10.6285 10.2577 10.6285C11.0802 10.6285 11.6668 11.1341 11.6668 11.8784C11.6668 12.6348 11.097 13.201 10.2502 13.201H9.72079C9.29094 13.201 8.99821 13.5022 8.99821 13.9599C8.99821 14.3834 9.26868 14.7017 9.72079 14.7017H10.3004C11.2934 14.7017 11.9239 15.2574 11.9239 16.1054C11.9239 16.9119 11.2337 17.5316 10.2416 17.5316C9.41914 17.5316 8.83485 17.1327 8.52899 16.3787C8.37571 16.0238 8.15539 15.8363 7.81039 15.8363C7.40352 15.8363 7.08008 16.1281 7.08008 16.5901C7.08008 16.7605 7.10774 16.8903 7.14711 17.0394C7.45297 18.0795 8.68251 19.0227 10.2235 19.0227ZM17.9098 19.0227C19.8748 19.0227 21.1981 17.2147 21.1981 14.0933C21.1981 10.9602 19.8748 9.1543 17.9098 9.1543C15.9427 9.1543 14.6384 10.9602 14.6384 14.0933C14.6384 17.2147 15.9427 19.0227 17.9098 19.0227ZM17.9182 17.4528C16.9357 17.4528 16.3128 16.2324 16.3128 14.0933C16.3128 11.9445 16.9357 10.7241 17.9182 10.7241C18.9008 10.7241 19.5216 11.9445 19.5216 14.0933C19.5216 16.2324 18.9104 17.4528 17.9182 17.4528Z" fill="black"/>
</svg>
