<svg width="28" height="28" viewBox="0 0 28 28" fill="none" xmlns="http://www.w3.org/2000/svg">
<path d="M14.105 26.21C20.7369 26.21 26.2121 20.7273 26.2121 14.105C26.2121 7.47312 20.7273 2 14.0954 2C7.47523 2 2 7.47312 2 14.105C2 20.7273 7.48484 26.21 14.105 26.21Z" fill="black"/>
<path d="M11.1095 19.1105C10.5904 19.1105 10.2688 18.7742 10.2688 18.2105V11.1577H10.2027L9.07726 12.0322C8.78218 12.2684 8.6514 12.3097 8.41211 12.3097C8.02258 12.3097 7.66797 11.9637 7.66797 11.5325C7.66797 11.1844 7.82664 10.9407 8.11492 10.7143L9.81555 9.50468C10.2775 9.15476 10.5595 9.03546 10.979 9.03546C11.5799 9.03546 11.9631 9.44304 11.9631 10.0482V18.2105C11.9631 18.7742 11.6416 19.1105 11.1095 19.1105ZM15.7628 19.1202C15.2488 19.1202 14.855 18.7562 14.855 18.2359C14.855 17.9804 14.8911 17.8229 15.005 17.6122L18.4977 10.8394V10.7382H14.6003C14.1395 10.7382 13.795 10.4455 13.795 9.97952C13.795 9.50397 14.131 9.19952 14.6003 9.19952H19.2107C19.9703 9.19952 20.4049 9.71679 20.4049 10.3449C20.4049 10.6175 20.3538 10.8612 20.1747 11.2395L16.6492 18.4456C16.4139 18.9127 16.1647 19.1202 15.7628 19.1202Z" fill="white"/>
</svg>
