<svg width="28" height="28" viewBox="0 0 28 28" fill="none" xmlns="http://www.w3.org/2000/svg">
<path d="M6.84421 24.8972H21.0295C23.5685 24.8972 24.8737 23.5919 24.8737 21.0914V6.82921C24.8737 4.32656 23.5685 3.02344 21.0295 3.02344H6.84421C4.31484 3.02344 3 4.31695 3 6.82921V21.0914C3 23.6016 4.31484 24.8972 6.84421 24.8972ZM6.97733 22.6013C5.88772 22.6013 5.29592 22.0371 5.29592 20.8985V7.01999C5.29592 5.88139 5.88772 5.31936 6.97733 5.31936H20.8964C21.9764 5.31936 22.5778 5.88139 22.5778 7.01999V20.8985C22.5778 22.0371 21.9764 22.6013 20.8964 22.6013H6.97733Z" fill="black"/>
<path d="M9.47968 19.3676C10.0757 19.3676 10.4355 18.9844 10.4355 18.3159V11.9655H10.5334L12.9777 18.2452C13.1577 18.705 13.4579 18.9253 13.9274 18.9253C14.4011 18.9253 14.7067 18.7113 14.8792 18.2473L17.3533 11.9655H17.4512V18.3159C17.4512 18.9748 17.7993 19.3676 18.3782 19.3676C18.9817 19.3676 19.334 18.9844 19.334 18.3159V9.63467C19.334 8.90155 18.82 8.39929 18.0784 8.39929C17.4189 8.39929 16.9933 8.70983 16.7612 9.32342L13.9806 16.492H13.9178L11.1159 9.32342C10.8913 8.70772 10.4657 8.39929 9.80827 8.39929C9.05711 8.39929 8.55273 8.90155 8.55273 9.63467V18.3159C8.55273 18.9748 8.90289 19.3676 9.47968 19.3676Z" fill="black"/>
</svg>
