<svg width="28" height="28" viewBox="0 0 28 28" fill="none" xmlns="http://www.w3.org/2000/svg">
<path d="M14.105 26.21C20.7369 26.21 26.2121 20.7273 26.2121 14.105C26.2121 7.47312 20.7273 2 14.0954 2C7.47523 2 2 7.47312 2 14.105C2 20.7273 7.48484 26.21 14.105 26.21ZM14.105 23.8255C8.71085 23.8255 4.39412 19.4991 4.39412 14.105C4.39412 8.71085 8.70124 4.38452 14.0954 4.38452C19.4895 4.38452 23.8276 8.71085 23.8276 14.105C23.8276 19.4991 19.4991 23.8255 14.105 23.8255Z" fill="black"/>
<path d="M14.0216 19.6409C16.4924 19.6409 18.1445 18.1505 18.1445 15.8635C18.1445 13.7977 16.6836 12.3837 14.5538 12.3837C13.5899 12.3837 12.616 12.8035 12.211 13.3958H12.11L12.3521 10.493H16.8571C17.3685 10.493 17.7142 10.1567 17.7142 9.661C17.7142 9.16108 17.3844 8.8407 16.8571 8.8407H12.0172C11.2049 8.8407 10.6672 9.31319 10.6086 10.054L10.3196 13.7328C10.2664 14.4999 10.7016 14.979 11.4845 14.979C11.956 14.979 12.2328 14.8747 12.6688 14.559C13.1849 14.1397 13.5943 13.9744 14.1636 13.9744C15.2835 13.9744 16.0332 14.753 16.0332 15.9134C16.0332 17.0696 15.148 17.9314 13.9834 17.9314C13.0921 17.9314 12.3667 17.4995 11.9905 16.8209C11.7648 16.4755 11.4709 16.2837 11.0572 16.2837C10.4935 16.2837 10.1328 16.6477 10.1328 17.1584C10.1328 17.364 10.1797 17.5578 10.2542 17.7399C10.7166 18.9057 12.095 19.6409 14.0216 19.6409Z" fill="black"/>
</svg>
