<svg width="28" height="28" viewBox="0 0 28 28" fill="none" xmlns="http://www.w3.org/2000/svg">
<path d="M14.105 26.21C20.7369 26.21 26.2121 20.7273 26.2121 14.105C26.2121 7.47312 20.7273 2 14.0954 2C7.47523 2 2 7.47312 2 14.105C2 20.7273 7.48484 26.21 14.105 26.21Z" fill="black"/>
<path d="M11.623 19.1105C11.106 19.1105 10.7823 18.7742 10.7823 18.2105V11.1577H10.7162L9.58327 12.0322C9.29991 12.2684 9.16702 12.3097 8.92562 12.3097C8.5382 12.3097 8.17188 11.9637 8.17188 11.5325C8.17188 11.1844 8.34226 10.9503 8.63054 10.7143L10.3333 9.50468C10.7931 9.15476 11.073 9.03546 11.4925 9.03546C12.0881 9.03546 12.4691 9.44304 12.4691 10.0482V18.2105C12.4691 18.7742 12.1476 19.1105 11.623 19.1105ZM17.9861 19.1105C17.4595 19.1105 17.1379 18.7742 17.1379 18.2105V11.1577H17.0718L15.9559 12.0322C15.6705 12.2684 15.5205 12.3097 15.2908 12.3097C14.9013 12.3097 14.5467 11.9637 14.5467 11.5325C14.5467 11.1844 14.6957 10.9503 14.9936 10.7143L16.6846 9.50468C17.1562 9.15476 17.4285 9.03546 17.8481 9.03546C18.4586 9.03546 18.8322 9.44304 18.8322 10.0482V18.2105C18.8322 18.7742 18.5106 19.1105 17.9861 19.1105Z" fill="white"/>
</svg>
