<svg width="28" height="28" viewBox="0 0 28 28" fill="none" xmlns="http://www.w3.org/2000/svg">
<path d="M14.105 26.21C20.7369 26.21 26.2121 20.7273 26.2121 14.105C26.2121 7.47312 20.7273 2 14.0954 2C7.47523 2 2 7.47312 2 14.105C2 20.7273 7.48484 26.21 14.105 26.21Z" fill="black"/>
<path d="M11.7867 19.2161C11.2767 19.2161 11.0043 18.8498 11.0043 18.3516V17.0728H7.74062C7.05203 17.0728 6.61328 16.6544 6.61328 15.9593C6.61328 15.5847 6.69836 15.2688 6.89336 14.8706C7.61664 13.5218 8.71188 11.5711 9.629 9.99634C10.0401 9.27142 10.5042 8.96814 11.2886 8.96814C12.093 8.96814 12.5999 9.47369 12.5999 10.2654V15.57H13.1559C13.6157 15.57 13.8904 15.8615 13.8904 16.3352C13.8904 16.7951 13.6157 17.0665 13.1559 17.0665H12.5999V18.3516C12.5999 18.8595 12.3105 19.2161 11.7867 19.2161ZM11.0043 15.5763V10.7269H10.9403C10.0849 12.2493 8.97883 14.2617 8.34203 15.5294V15.5763H11.0043ZM18.1692 19.2354C16.5515 19.2354 15.2784 18.2529 14.9662 17.1754C14.9172 17.0126 14.9013 16.871 14.9013 16.6985C14.9013 16.2281 15.2406 15.9108 15.6517 15.9108C16.0223 15.9108 16.2468 16.1004 16.4043 16.4808C16.7219 17.2486 17.3296 17.6688 18.1872 17.6688C19.2028 17.6688 19.9047 17.0353 19.9047 16.2075C19.9047 15.3243 19.2625 14.7473 18.2364 14.7473H17.6376C17.1728 14.7473 16.8906 14.411 16.8906 13.9694C16.8906 13.4819 17.1876 13.1669 17.6376 13.1669H18.1959C19.0565 13.1669 19.6455 12.5847 19.6455 11.8071C19.6455 11.0372 19.0471 10.5199 18.1938 10.5199C17.365 10.5199 16.8285 10.9402 16.5665 11.708C16.4207 12.0841 16.2121 12.2779 15.8256 12.2779C15.3763 12.2779 15.0815 11.9585 15.0815 11.4806C15.0815 11.3178 15.0899 11.1741 15.142 10.9985C15.4445 9.90143 16.6232 8.96814 18.2289 8.96814C20.0601 8.96814 21.3152 10.0336 21.3152 11.5763C21.3152 12.675 20.5574 13.6533 19.5909 13.8131V13.8918C20.7674 14.0102 21.618 15.0288 21.618 16.2926C21.618 18.0227 20.2061 19.2354 18.1692 19.2354Z" fill="white"/>
</svg>
