<svg width="28" height="28" viewBox="0 0 28 28" fill="none" xmlns="http://www.w3.org/2000/svg">
<path d="M14.105 26.21C20.7369 26.21 26.2121 20.7273 26.2121 14.105C26.2121 7.47312 20.7273 2 14.0954 2C7.47523 2 2 7.47312 2 14.105C2 20.7273 7.48484 26.21 14.105 26.21ZM14.105 23.8255C8.71085 23.8255 4.39412 19.4991 4.39412 14.105C4.39412 8.71085 8.70124 4.38452 14.0954 4.38452C19.4895 4.38452 23.8276 8.71085 23.8276 14.105C23.8276 19.4991 19.4991 23.8255 14.105 23.8255Z" fill="black"/>
<path d="M11.3431 19.6468C13.2087 19.6468 14.2205 18.7252 14.5453 16.7483L14.9025 14.5166H17.239C17.6553 14.5166 17.9152 14.2536 17.9152 13.8776C17.9152 13.4783 17.6553 13.2099 17.239 13.2099H15.1123L15.364 11.6185C15.541 10.5556 16.0046 10.0962 16.9746 10.0962C17.285 10.0962 17.4373 10.1272 17.6206 10.156C17.7228 10.1752 17.8325 10.1827 17.9614 10.1785C18.3853 10.1595 18.6399 9.88368 18.6399 9.49625C18.6399 9.16391 18.4566 8.89766 18.0729 8.74227C17.779 8.61149 17.367 8.54352 16.8474 8.54352C14.9839 8.54352 13.97 9.4768 13.6472 11.4516L13.3657 13.2099H11.1516C10.7354 13.2099 10.4851 13.4783 10.4851 13.8776C10.4851 14.2536 10.7258 14.5166 11.1516 14.5166H13.1635L12.8361 16.5312C12.6516 17.6368 12.188 18.1037 11.2159 18.1037C10.898 18.1037 10.7532 18.0652 10.572 18.0343C10.4602 18.0151 10.358 18.0076 10.2216 18.0139C9.79766 18.0329 9.54102 18.3088 9.54102 18.6941C9.54102 19.0381 9.7243 19.2927 10.108 19.448C10.3998 19.5927 10.8139 19.6468 11.3431 19.6468Z" fill="black"/>
</svg>
