<svg width="28" height="28" viewBox="0 0 28 28" fill="none" xmlns="http://www.w3.org/2000/svg">
<path d="M6.84421 24.8972H21.0295C23.5685 24.8972 24.8737 23.5919 24.8737 21.0914V6.82921C24.8737 4.32656 23.5685 3.02344 21.0295 3.02344H6.84421C4.31484 3.02344 3 4.31695 3 6.82921V21.0914C3 23.6016 4.31484 24.8972 6.84421 24.8972Z" fill="black"/>
<path d="M9.26367 18.9907V9.62459C9.26367 8.89429 9.70101 8.48343 10.4334 8.48343H12.6823C14.7147 8.48343 15.6325 9.39046 15.6325 11.5596V15.7624C15.6325 16.2152 15.3639 16.4913 14.943 16.4913C14.5296 16.4913 14.2418 16.2152 14.2418 15.7624V11.9309C14.2418 10.6776 13.735 10.3141 12.529 10.3141H10.9446V18.979C10.9446 19.5129 10.6212 19.8694 10.1212 19.8694C9.61499 19.8694 9.26367 19.5246 9.26367 18.9907ZM11.9191 18.612V12.4474C11.9191 11.9967 12.2069 11.7281 12.6279 11.7281C13.0317 11.7281 13.3057 11.9967 13.3057 12.4474V17.9107H14.9458C16.204 17.9107 16.5975 17.6222 16.5975 16.2188V9.24374C16.5975 8.70022 16.9221 8.36296 17.4379 8.36296C17.9517 8.36296 18.2709 8.70983 18.2709 9.24374V16.3516C18.2709 18.7964 17.3561 19.7393 15.2557 19.7393H13.0621C12.3319 19.7393 11.9191 19.3465 11.9191 18.612Z" fill="white"/>
</svg>
