<svg width="28" height="28" viewBox="0 0 28 28" fill="none" xmlns="http://www.w3.org/2000/svg">
<path d="M6.84421 24.8972H21.0295C23.5685 24.8972 24.8737 23.5919 24.8737 21.0914V6.82921C24.8737 4.32656 23.5685 3.02344 21.0295 3.02344H6.84421C4.31484 3.02344 3 4.31695 3 6.82921V21.0914C3 23.6016 4.31484 24.8972 6.84421 24.8972Z" fill="black"/>
<path d="M7.88491 18.8152C7.40914 18.8152 7.07937 18.5023 7.07937 18.0096C7.07937 17.7171 7.17828 17.4724 7.41429 17.212L10.3677 13.7384C10.9377 13.0725 11.5262 12.4455 11.5262 11.711C11.5262 10.9153 10.9461 10.3725 10.0747 10.3725C9.30781 10.3725 8.75327 10.7723 8.48234 11.5914C8.32249 11.9674 8.1214 12.1898 7.72343 12.1898C7.2657 12.1898 6.98047 11.8715 6.98047 11.4021C6.98047 11.2446 7.0039 11.0976 7.03367 10.9326C7.35429 9.70849 8.61476 8.80591 10.0456 8.80591C11.9209 8.80591 13.1196 9.89669 13.126 11.5652C13.1281 12.7448 12.496 13.6036 11.5969 14.6529L9.47561 17.123V17.2209H12.623C13.0655 17.2209 13.3901 17.4987 13.3901 18.0042C13.3901 18.4969 13.0655 18.8152 12.623 18.8152H7.88491ZM17.8704 19.0774C16.3777 19.0774 15.2225 18.2805 14.8697 17.3402C14.7889 17.1593 14.7462 16.9676 14.7462 16.7641C14.7462 16.3256 15.0654 15.9935 15.5009 15.9935C15.8285 15.9935 16.0545 16.1946 16.2387 16.5166C16.5797 17.1546 17.1964 17.565 17.9651 17.565C19.0177 17.565 19.7386 16.8539 19.7386 15.7022C19.7386 14.6901 19.0775 13.9139 18.1219 13.9139C17.6208 13.9139 17.2775 14.077 16.8073 14.4705C16.4576 14.7595 16.2148 14.8755 15.8018 14.8755C15.2215 14.8755 14.8564 14.441 14.9011 13.7787L15.1688 10.1498C15.2178 9.46099 15.63 9.04896 16.2999 9.04896H20.3239C20.7408 9.04896 21.0143 9.35458 21.0143 9.79614C21.0143 10.2494 20.7228 10.5475 20.3239 10.5475H16.5725L16.3667 13.4337H16.4114C16.7726 12.885 17.5955 12.5055 18.3788 12.5055C20.1408 12.5055 21.3917 13.7995 21.3917 15.6502C21.3917 17.7628 19.9957 19.0774 17.8704 19.0774Z" fill="white"/>
</svg>
