<svg width="28" height="28" viewBox="0 0 28 28" fill="none" xmlns="http://www.w3.org/2000/svg">
<path d="M14.105 26.21C20.7369 26.21 26.2121 20.7273 26.2121 14.105C26.2121 7.47312 20.7273 2 14.0954 2C7.47523 2 2 7.47312 2 14.105C2 20.7273 7.48484 26.21 14.105 26.21Z" fill="black"/>
<path d="M10.5802 19.1105C10.0611 19.1105 9.73953 18.7742 9.73953 18.2105V11.1577H9.67344L8.54796 12.0226C8.2571 12.2684 8.12632 12.3097 7.88281 12.3097C7.49539 12.3097 7.13867 11.9637 7.13867 11.5325C7.13867 11.1844 7.29734 10.9407 7.58773 10.7143L9.29047 9.50466C9.75992 9.15474 10.0302 9.03544 10.4497 9.03544C11.0452 9.03544 11.4263 9.44302 11.4263 10.0482V18.2105C11.4263 18.7742 11.1144 19.1105 10.5802 19.1105ZM17.0726 19.2376C15.455 19.2376 14.4863 18.3537 14.2777 17.6942C14.2139 17.5325 14.1767 17.3537 14.1767 17.2058C14.1767 16.7586 14.4481 16.4424 14.8791 16.4424C15.1892 16.4424 15.4404 16.5734 15.6565 16.907C15.9293 17.3912 16.4189 17.7005 17.0471 17.7005C18.3603 17.7005 19.1797 16.3016 19.1625 14.1312H19.0868C18.7831 14.941 18.0275 15.6031 16.7897 15.6031C15.2236 15.6031 13.8837 14.443 13.8837 12.432C13.8837 10.3119 15.2037 8.96606 17.2111 8.96606C19.4897 8.96606 20.7495 10.6876 20.7495 13.7736C20.7495 17.3337 19.4635 19.2376 17.0726 19.2376ZM17.2889 14.2227C18.3139 14.2227 19.0135 13.441 19.0135 12.3587C19.0135 11.224 18.2947 10.4253 17.2986 10.4253C16.249 10.4253 15.5665 11.1856 15.5665 12.3394C15.5665 13.441 16.2586 14.2227 17.2889 14.2227Z" fill="white"/>
</svg>
