<svg width="28" height="28" viewBox="0 0 28 28" fill="none" xmlns="http://www.w3.org/2000/svg">
<path d="M14.105 26.21C20.7369 26.21 26.2121 20.7273 26.2121 14.105C26.2121 7.47312 20.7273 2 14.0954 2C7.47523 2 2 7.47312 2 14.105C2 20.7273 7.48484 26.21 14.105 26.21Z" fill="black"/>
<path d="M10.9453 19.1105C10.4304 19.1105 10.1088 18.7838 10.1088 18.2105V11.1673H10.0385L8.90554 12.0322C8.62218 12.2684 8.4914 12.3097 8.24788 12.3097C7.86257 12.3097 7.49414 11.9638 7.49414 11.5325C7.49414 11.1845 7.65492 10.9503 7.95281 10.7143L9.65555 9.5047C10.1154 9.15478 10.3973 9.03548 10.8148 9.03548C11.4103 9.03548 11.7914 9.44306 11.7914 10.0482V18.2105C11.7914 18.7838 11.4698 19.1105 10.9453 19.1105ZM14.9175 18.9753C14.4514 18.9753 14.1216 18.6624 14.1216 18.1698C14.1216 17.8773 14.2109 17.6422 14.4565 17.3722L17.4099 13.9081C17.9703 13.2327 18.5684 12.6057 18.5684 11.8712C18.5684 11.0755 17.9904 10.5327 17.1169 10.5327C16.3404 10.5327 15.7955 10.9421 15.5171 11.7516C15.3668 12.1276 15.154 12.35 14.7582 12.35C14.3079 12.35 14.0131 12.0413 14.0131 11.5623C14.0131 11.4048 14.0482 11.2578 14.0759 11.0928C14.3986 9.86868 15.657 8.97571 17.0878 8.97571C18.9631 8.97571 20.1544 10.0569 20.1586 11.7254C20.1607 12.905 19.5382 13.7637 18.6392 14.813L16.5082 17.2927V17.3811H19.6578C20.1078 17.3811 20.4324 17.6684 20.4324 18.1644C20.4324 18.657 20.1078 18.9753 19.6578 18.9753H14.9175Z" fill="white"/>
</svg>
