<svg width="28" height="28" viewBox="0 0 28 28" fill="none" xmlns="http://www.w3.org/2000/svg">
<path d="M6.84421 24.8972H21.0295C23.5685 24.8972 24.8737 23.5919 24.8737 21.0914V6.82921C24.8737 4.32656 23.5685 3.02344 21.0295 3.02344H6.84421C4.31484 3.02344 3 4.31695 3 6.82921V21.0914C3 23.6016 4.31484 24.8972 6.84421 24.8972Z" fill="black"/>
<path d="M11.6501 19.056C11.138 19.056 10.8656 18.6897 10.8656 18.1914V16.9126H7.60195C6.91547 16.9126 6.47461 16.4943 6.47461 15.7991C6.47461 15.4246 6.56179 15.1087 6.75469 14.7104C7.48008 13.3616 8.57532 11.411 9.49032 9.83618C9.90353 9.11126 10.3676 8.80798 11.152 8.80798C11.9543 8.80798 12.4634 9.31352 12.4634 10.1052V15.4098H13.0193C13.4771 15.4098 13.7539 15.7014 13.7539 16.1751C13.7539 16.6349 13.4771 16.9063 13.0193 16.9063H12.4634V18.1914C12.4634 18.6993 12.1739 19.056 11.6501 19.056ZM10.8656 15.4161V10.5667H10.8016C9.94617 12.0892 8.84226 14.1015 8.20546 15.3693V15.4161H10.8656ZM18.0326 19.0752C16.4149 19.0752 15.1397 18.0927 14.8296 17.0153C14.7807 16.8524 14.7626 16.7108 14.7626 16.5383C14.7626 16.0679 15.102 15.7506 15.5248 15.7506C15.8857 15.7506 16.1081 15.9402 16.2753 16.3206C16.5853 17.0884 17.1931 17.5087 18.0485 17.5087C19.0662 17.5087 19.7682 16.8751 19.7682 16.0473C19.7682 15.1642 19.126 14.5872 18.0978 14.5872H17.5085C17.0363 14.5872 16.752 14.2508 16.752 13.8093C16.752 13.3218 17.051 13.0068 17.5085 13.0068H18.0593C18.92 13.0068 19.5089 12.4246 19.5089 11.647C19.5089 10.877 18.9085 10.3598 18.0668 10.3598C17.2285 10.3598 16.6899 10.78 16.4278 11.5478C16.2821 11.924 16.0735 12.1178 15.6891 12.1178C15.2398 12.1178 14.9449 11.7984 14.9449 11.3205C14.9449 11.1576 14.9609 11.0139 15.0033 10.8384C15.308 9.74126 16.4846 8.80798 18.0999 8.80798C19.9214 8.80798 21.1765 9.87345 21.1765 11.4161C21.1765 12.5149 20.4188 13.4931 19.4522 13.6529V13.7317C20.6309 13.8501 21.4793 14.8686 21.4793 16.1324C21.4793 17.8626 20.0792 19.0752 18.0326 19.0752Z" fill="white"/>
</svg>
