<svg width="28" height="28" viewBox="0 0 28 28" fill="none" xmlns="http://www.w3.org/2000/svg">
<path d="M6.84421 24.8972H21.0295C23.5685 24.8972 24.8737 23.5919 24.8737 21.0914V6.82921C24.8737 4.32656 23.5685 3.02344 21.0295 3.02344H6.84421C4.31484 3.02344 3 4.31695 3 6.82921V21.0914C3 23.6016 4.31484 24.8972 6.84421 24.8972Z" fill="black"/>
<path d="M10.756 18.9504C10.2315 18.9504 9.9057 18.6141 9.9057 18.0504V10.9975H9.84922L8.72585 11.8624C8.44249 12.1082 8.29249 12.1495 8.05859 12.1495C7.67117 12.1495 7.31445 11.8036 7.31445 11.3723C7.31445 11.0243 7.46562 10.7805 7.77312 10.5541L9.46625 9.34449C9.9357 8.99457 10.1963 8.86566 10.6159 8.86566C11.2306 8.86566 11.6021 9.28285 11.6021 9.888V18.0504C11.6021 18.6141 11.2902 18.9504 10.756 18.9504ZM16.9996 19.0774C15.5047 19.0774 14.3495 18.2805 13.9947 17.3402C13.9255 17.1593 13.885 16.9676 13.885 16.7641C13.885 16.3256 14.1925 15.9935 14.63 15.9935C14.9652 15.9935 15.1815 16.1946 15.3754 16.5166C15.7143 17.145 16.3234 17.5554 17.0825 17.5554C18.1447 17.5554 18.8678 16.8539 18.8678 15.7022C18.8678 14.6901 18.2024 13.9139 17.249 13.9139C16.7554 13.9139 16.412 14.077 15.9461 14.4705C15.5868 14.7595 15.3514 14.8659 14.9385 14.8659C14.3486 14.8659 13.9834 14.441 14.0261 13.7787L14.2958 10.1498C14.3331 9.46098 14.755 9.04895 15.4248 9.04895H19.4584C19.8754 9.04895 20.1393 9.35457 20.1393 9.79613C20.1393 10.2494 19.8615 10.5475 19.4584 10.5475H15.7112L15.4937 13.4241H15.5364C15.8996 12.885 16.7225 12.5055 17.5079 12.5055C19.27 12.5055 20.5112 13.7995 20.5112 15.6502C20.5112 17.7628 19.1345 19.0774 16.9996 19.0774Z" fill="white"/>
</svg>
