<svg width="28" height="28" viewBox="0 0 28 28" fill="none" xmlns="http://www.w3.org/2000/svg">
<path d="M14.105 26.21C20.7369 26.21 26.2121 20.7273 26.2121 14.105C26.2121 7.47312 20.7273 2 14.0954 2C7.47523 2 2 7.47312 2 14.105C2 20.7273 7.48484 26.21 14.105 26.21Z" fill="black"/>
<path d="M10.364 19.688C9.62508 19.688 9.19336 19.1914 9.19336 18.3598V9.66751C9.19336 8.83807 9.62508 8.34143 10.364 8.34143C11.1276 8.34143 11.5657 8.83057 11.5657 9.66751V12.9629H16.6256V9.66751C16.6256 8.83807 17.069 8.34143 17.808 8.34143C18.5716 8.34143 19.0075 8.83057 19.0075 9.66751V18.3598C19.0075 19.1989 18.5716 19.688 17.808 19.688C17.069 19.688 16.6256 19.1914 16.6256 18.3598V14.7985H11.5657V18.3598C11.5657 19.1989 11.1276 19.688 10.364 19.688Z" fill="white"/>
</svg>
