<svg width="28" height="28" viewBox="0 0 28 28" fill="none" xmlns="http://www.w3.org/2000/svg">
<path d="M6.84421 24.8972H21.0295C23.5685 24.8972 24.8737 23.5919 24.8737 21.0914V6.82921C24.8737 4.32656 23.5685 3.02344 21.0295 3.02344H6.84421C4.31484 3.02344 3 4.31695 3 6.82921V21.0914C3 23.6016 4.31484 24.8972 6.84421 24.8972ZM6.97733 22.6013C5.88772 22.6013 5.29592 22.0371 5.29592 20.8985V7.01999C5.29592 5.88139 5.88772 5.31936 6.97733 5.31936H20.8964C21.9764 5.31936 22.5778 5.88139 22.5778 7.01999V20.8985C22.5778 22.0371 21.9764 22.6013 20.8964 22.6013H6.97733Z" fill="black"/>
<path d="M10.038 18.8817C12.0016 18.8817 13.3581 17.7202 13.3581 16.0495C13.3581 14.839 12.5374 13.8523 11.4002 13.7435V13.6669C12.337 13.5091 13.067 12.5682 13.067 11.513C13.067 10.0257 11.8577 9.00378 10.0977 9.00378C8.55157 9.00378 7.42188 9.89558 7.12352 10.9554C7.0736 11.1289 7.06727 11.2587 7.06727 11.4195C7.06727 11.8793 7.35578 12.1828 7.77953 12.1828C8.14797 12.1828 8.35445 11.9911 8.48641 11.6288C8.74422 10.8844 9.25938 10.478 10.0626 10.478C10.8946 10.478 11.4717 10.9835 11.4717 11.7279C11.4717 12.4843 10.9019 13.0505 10.0647 13.0505H9.52563C9.09578 13.0505 8.81266 13.3516 8.81266 13.8094C8.81266 14.2329 9.08313 14.5533 9.52563 14.5533H10.1052C11.0983 14.5533 11.7267 15.1165 11.7267 15.9645C11.7267 16.7709 11.0481 17.3906 10.056 17.3906C9.22399 17.3906 8.63969 16.9821 8.33383 16.2377C8.18055 15.8733 7.96984 15.6858 7.61523 15.6858C7.21797 15.6858 6.89453 15.9893 6.89453 16.4395C6.89453 16.6099 6.91258 16.7398 6.96156 16.8984C7.25781 17.9386 8.48735 18.8817 10.038 18.8817ZM17.9448 18.8817C19.9084 18.8817 21.265 17.7202 21.265 16.0495C21.265 14.839 20.4421 13.8523 19.307 13.7435V13.6669C20.2438 13.5091 20.9739 12.5682 20.9739 11.513C20.9739 10.0257 19.7645 9.00378 18.0046 9.00378C16.4584 9.00378 15.3287 9.89558 15.0304 10.9554C14.9804 11.1289 14.972 11.2587 14.972 11.4195C14.972 11.8793 15.2626 12.1828 15.6843 12.1828C16.0527 12.1828 16.2592 11.9911 16.3932 11.6288C16.6511 10.8844 17.1662 10.478 17.9694 10.478C18.7994 10.478 19.3764 10.9835 19.3764 11.7279C19.3764 12.4843 18.8087 13.0505 17.9715 13.0505H17.4325C17.0026 13.0505 16.7195 13.3516 16.7195 13.8094C16.7195 14.2329 16.99 14.5533 17.4325 14.5533H18.01C19.003 14.5533 19.6335 15.1165 19.6335 15.9645C19.6335 16.7709 18.955 17.3906 17.9629 17.3906C17.1404 17.3906 16.5465 16.9821 16.2407 16.2377C16.0853 15.8733 15.8767 15.6858 15.5221 15.6858C15.1227 15.6858 14.8014 15.9893 14.8014 16.4395C14.8014 16.6099 14.8194 16.7398 14.8684 16.8984C15.1647 17.9386 16.3942 18.8817 17.9448 18.8817Z" fill="black"/>
</svg>
