<svg width="28" height="28" viewBox="0 0 28 28" fill="none" xmlns="http://www.w3.org/2000/svg">
<path d="M6.84421 24.8972H21.0295C23.5685 24.8972 24.8737 23.5919 24.8737 21.0914V6.82921C24.8737 4.32656 23.5685 3.02344 21.0295 3.02344H6.84421C4.31484 3.02344 3 4.31695 3 6.82921V21.0914C3 23.6016 4.31484 24.8972 6.84421 24.8972ZM6.97733 22.6013C5.88772 22.6013 5.29592 22.0371 5.29592 20.8985V7.01999C5.29592 5.88139 5.88772 5.31936 6.97733 5.31936H20.8964C21.9764 5.31936 22.5778 5.88139 22.5778 7.01999V20.8985C22.5778 22.0371 21.9764 22.6013 20.8964 22.6013H6.97733Z" fill="black"/>
<path d="M9.21289 13.9502C9.21289 17.3726 11.0827 19.4761 13.9581 19.4761C15.9859 19.4761 17.4613 18.4786 18.0099 16.9748C18.0749 16.7906 18.1142 16.5947 18.1238 16.3912C18.1238 15.9209 17.7887 15.6059 17.2876 15.6059C16.8533 15.6059 16.5948 15.8421 16.4321 16.2764C16.1678 17.1682 15.3601 17.8156 14.2998 17.9231V16.3673C14.2998 15.2824 14.9806 14.5394 15.9282 14.5394C16.1647 14.5394 16.3246 14.5821 16.4631 14.5821C16.8029 14.5821 17.0331 14.3754 17.0331 14.0707C17.0331 13.6552 16.6142 13.3781 15.973 13.3781C15.291 13.3781 14.645 13.7309 14.2902 14.4012V13.9259C14.2902 13.5572 14.0621 13.3409 13.7307 13.3409C13.3951 13.3409 13.1649 13.5764 13.1649 13.9259L13.1628 17.8261C11.833 17.4307 11.0448 16.0085 11.0448 13.9406C11.0448 11.5706 12.1857 10.0258 13.9527 10.0258C15.1086 10.0258 16.0227 10.7309 16.3775 11.711C16.5381 12.0869 16.7647 12.3541 17.2267 12.3541C17.7268 12.3541 18.0364 12.0412 18.0364 11.5591C18.0364 11.3388 17.9907 11.1068 17.8993 10.9003C17.3307 9.41789 15.7876 8.42859 13.9412 8.42859C11.0891 8.42859 9.21289 10.5546 9.21289 13.9502Z" fill="black"/>
</svg>
