<svg width="28" height="28" viewBox="0 0 28 28" fill="none" xmlns="http://www.w3.org/2000/svg">
<path d="M6.84421 24.8972H21.0295C23.5685 24.8972 24.8737 23.5919 24.8737 21.0914V6.82921C24.8737 4.32656 23.5685 3.02344 21.0295 3.02344H6.84421C4.31484 3.02344 3 4.31695 3 6.82921V21.0914C3 23.6016 4.31484 24.8972 6.84421 24.8972ZM6.97733 22.6013C5.88772 22.6013 5.29592 22.0371 5.29592 20.8985V7.01999C5.29592 5.88139 5.88772 5.31936 6.97733 5.31936H20.8964C21.9764 5.31936 22.5778 5.88139 22.5778 7.01999V20.8985C22.5778 22.0371 21.9764 22.6013 20.8964 22.6013H6.97733Z" fill="black"/>
<path d="M14.587 19.2727C15.2955 19.2727 15.7176 18.8384 15.7176 18.0471V9.82874C15.7176 9.05835 15.251 8.60109 14.4937 8.60109C14.0001 8.60109 13.6204 8.73726 13.065 9.11296L11.0336 10.4815C10.7209 10.7006 10.5859 10.9165 10.5859 11.2643C10.5859 11.6972 10.919 12.0771 11.3594 12.0771C11.5605 12.0771 11.6924 12.0515 11.9894 11.8472L13.3989 10.9228H13.4873V18.0471C13.4873 18.8384 13.9073 19.2727 14.587 19.2727Z" fill="black"/>
</svg>
