<svg width="28" height="28" viewBox="0 0 28 28" fill="none" xmlns="http://www.w3.org/2000/svg">
<path d="M6.84421 24.8972H21.0295C23.5685 24.8972 24.8737 23.5919 24.8737 21.0914V6.82921C24.8737 4.32656 23.5685 3.02344 21.0295 3.02344H6.84421C4.31484 3.02344 3 4.31695 3 6.82921V21.0914C3 23.6016 4.31484 24.8972 6.84421 24.8972ZM6.97733 22.6013C5.88772 22.6013 5.29592 22.0371 5.29592 20.8985V7.01999C5.29592 5.88139 5.88772 5.31936 6.97733 5.31936H20.8964C21.9764 5.31936 22.5778 5.88139 22.5778 7.01999V20.8985C22.5778 22.0371 21.9764 22.6013 20.8964 22.6013H6.97733Z" fill="black"/>
<path d="M9.63547 18.5409C9.63547 19.0102 9.95351 19.3209 10.4302 19.3209H17.2742C17.7551 19.3209 18.0903 19.0038 18.0903 18.5325C18.0903 18.0612 17.7551 17.7558 17.2742 17.7558H12.5534C13.0088 17.3752 13.3266 16.732 13.4299 16.0463C13.4555 15.8735 13.4693 15.7104 13.4735 15.5452H16.1562C16.5218 15.5452 16.7766 15.3 16.7766 14.944C16.7766 14.588 16.5218 14.3524 16.1562 14.3524H13.3721C13.2985 14.0135 13.2131 13.6884 13.1332 13.3751H16.1562C16.5218 13.3751 16.7766 13.1278 16.7766 12.7739C16.7766 12.4179 16.5218 12.1802 16.1562 12.1802H12.9265C12.9169 12.0799 12.9052 11.9627 12.9052 11.8498C12.9052 10.6896 13.7421 9.89624 15.211 9.89624C16.0486 9.89624 16.5073 10.0861 16.9085 10.1245C17.3792 10.1437 17.644 9.87328 17.644 9.44015C17.644 9.11016 17.4874 8.8493 17.0836 8.67047C16.5455 8.43094 15.8585 8.33414 15.0551 8.33414C12.5989 8.33414 11.1106 9.72774 11.1106 11.857C11.1106 11.9719 11.1266 12.0675 11.1404 12.1802H10.2455C9.88953 12.1802 9.63477 12.4179 9.63477 12.7739C9.63477 13.1278 9.89164 13.3751 10.2455 13.3751H11.3417C11.4195 13.7002 11.5069 14.0273 11.5805 14.3524H10.2455C9.88953 14.3524 9.63477 14.588 9.63477 14.944C9.63477 15.3 9.89164 15.5452 10.2455 15.5452H11.7364C11.7418 15.6677 11.7301 15.7786 11.7162 15.915C11.6054 16.826 11.0122 17.4511 10.2955 17.678C9.85133 17.8566 9.63547 18.1184 9.63547 18.5409Z" fill="black"/>
</svg>
