<svg width="28" height="28" viewBox="0 0 28 28" fill="none" xmlns="http://www.w3.org/2000/svg">
<path d="M14.105 26.21C20.7369 26.21 26.2121 20.7273 26.2121 14.105C26.2121 7.47312 20.7273 2 14.0954 2C7.47523 2 2 7.47312 2 14.105C2 20.7273 7.48484 26.21 14.105 26.21Z" fill="black"/>
<path d="M9.60742 13.497C9.60742 13.1422 9.83664 12.9066 10.1786 12.9066H10.8747V12.1829H10.1786C9.83664 12.1829 9.60742 11.9302 9.60742 11.5967C9.60742 11.2557 9.83664 11.0297 10.1786 11.0297H10.8747V9.64105C10.8747 9.03918 11.2321 8.67004 11.8265 8.67004H14.7592C16.4643 8.67004 17.7245 9.61012 18.25 11.0297H19.0239C19.3659 11.0297 19.5972 11.2557 19.5972 11.5967C19.5972 11.9302 19.3659 12.1829 19.0239 12.1829H18.4984C18.5102 12.3226 18.5102 12.4259 18.5102 12.5527C18.5102 12.6678 18.5081 12.8021 18.4867 12.9066H19.0239C19.3659 12.9066 19.5972 13.1422 19.5972 13.497C19.5972 13.8188 19.3659 14.064 19.0239 14.064H18.2575C17.7257 15.5133 16.4432 16.4588 14.7255 16.4588H12.7553V19.1464C12.7553 19.7216 12.3639 20.0834 11.8246 20.0834C11.2853 20.0834 10.8747 19.7216 10.8747 19.1464V14.064H10.1786C9.83664 14.064 9.60742 13.8188 9.60742 13.497ZM12.767 14.8433L14.4203 14.8454C15.2074 14.8454 15.8151 14.5735 16.1957 14.064H12.767V14.8433ZM12.767 12.9066H16.6328C16.6563 12.8021 16.6563 12.6657 16.6563 12.5506C16.6563 12.4142 16.6563 12.298 16.6328 12.1829H12.767V12.9066ZM12.767 11.0297H16.1798C15.8067 10.5479 15.2031 10.2844 14.4224 10.2844H12.767V11.0297Z" fill="white"/>
</svg>
