<svg width="28" height="28" viewBox="0 0 28 28" fill="none" xmlns="http://www.w3.org/2000/svg">
<path d="M6.84421 24.8972H21.0295C23.5685 24.8972 24.8737 23.5919 24.8737 21.0914V6.82921C24.8737 4.32656 23.5685 3.02344 21.0295 3.02344H6.84421C4.31484 3.02344 3 4.31695 3 6.82921V21.0914C3 23.6016 4.31484 24.8972 6.84421 24.8972ZM6.97733 22.6013C5.88772 22.6013 5.29592 22.0371 5.29592 20.8985V7.01999C5.29592 5.88139 5.88772 5.31936 6.97733 5.31936H20.8964C21.9764 5.31936 22.5778 5.88139 22.5778 7.01999V20.8985C22.5778 22.0371 21.9764 22.6013 20.8964 22.6013H6.97733Z" fill="black"/>
<path d="M10.0712 18.8625C12.0444 18.8625 13.401 17.7009 13.401 16.0303C13.401 14.8198 12.578 13.833 11.443 13.7339V13.6573C12.3798 13.4995 13.1099 12.5585 13.1099 11.5034C13.1099 10.016 11.8909 8.99414 10.1405 8.99414C8.59437 8.99414 7.46468 9.88594 7.16632 10.9458C7.1164 11.1171 7.11007 11.2374 7.11007 11.4099C7.11007 11.8697 7.38898 12.1732 7.82234 12.1732C8.19077 12.1732 8.39515 11.9815 8.52921 11.6191C8.78702 10.8652 9.29257 10.4684 10.1054 10.4684C10.9278 10.4684 11.5145 10.9739 11.5145 11.7183C11.5145 12.4746 10.9447 13.0409 10.0979 13.0409H9.56843C9.13859 13.0409 8.84585 13.342 8.84585 13.7998C8.84585 14.2233 9.11632 14.5416 9.56843 14.5416H10.148C11.1411 14.5416 11.7695 15.0973 11.7695 15.9452C11.7695 16.7517 11.0813 17.3714 10.0892 17.3714C9.26679 17.3714 8.68249 16.9725 8.37663 16.2185C8.22335 15.8637 8.00304 15.6762 7.65804 15.6762C7.24905 15.6762 6.92773 15.968 6.92773 16.4299C6.92773 16.6003 6.95538 16.7302 6.99476 16.8792C7.30062 17.9194 8.53015 18.8625 10.0712 18.8625ZM17.7576 18.8625C19.7226 18.8625 21.0458 17.0545 21.0458 13.9331C21.0458 10.8 19.7226 8.99414 17.7576 8.99414C15.7904 8.99414 14.4861 10.8 14.4861 13.9331C14.4861 17.0545 15.7904 18.8625 17.7576 18.8625ZM17.766 17.2927C16.7835 17.2927 16.1605 16.0723 16.1605 13.9331C16.1605 11.7844 16.7835 10.564 17.766 10.564C18.7581 10.564 19.3694 11.7844 19.3694 13.9331C19.3694 16.0723 18.7677 17.2927 17.766 17.2927Z" fill="black"/>
</svg>
