<svg width="28" height="28" viewBox="0 0 28 28" fill="none" xmlns="http://www.w3.org/2000/svg">
<path d="M6.84421 24.8972H21.0295C23.5685 24.8972 24.8737 23.5919 24.8737 21.0914V6.82921C24.8737 4.32656 23.5685 3.02344 21.0295 3.02344H6.84421C4.31484 3.02344 3 4.31695 3 6.82921V21.0914C3 23.6016 4.31484 24.8972 6.84421 24.8972ZM6.97733 22.6013C5.88772 22.6013 5.29592 22.0371 5.29592 20.8985V7.01999C5.29592 5.88139 5.88772 5.31936 6.97733 5.31936H20.8964C21.9764 5.31936 22.5778 5.88139 22.5778 7.01999V20.8985C22.5778 22.0371 21.9764 22.6013 20.8964 22.6013H6.97733Z" fill="black"/>
<path d="M13.6878 16.2821C14.336 16.2821 14.7446 15.9029 14.7741 15.429C14.7762 15.3842 14.7783 15.3256 14.7804 15.2905C14.8142 14.6828 15.2304 14.2735 15.9863 13.7745C17.1441 13.0203 17.8915 12.349 17.8915 10.9829C17.8915 9.03544 16.1339 7.91748 14.0553 7.91748C12.0555 7.91748 10.6955 8.84045 10.3273 9.93756C10.2581 10.1356 10.2188 10.3337 10.2188 10.5455C10.2188 11.1108 10.6563 11.4596 11.1295 11.4596C11.565 11.4596 11.8491 11.2763 12.079 10.9719L12.2625 10.7265C12.66 10.0911 13.2221 9.74536 13.9196 9.74536C14.8721 9.74536 15.5044 10.3083 15.5044 11.1019C15.5044 11.8482 15.0143 12.2096 14.0243 12.8991C13.1869 13.4809 12.5773 14.083 12.5773 15.1471C12.5773 15.1876 12.5773 15.2356 12.5773 15.2762C12.5773 15.9383 12.9762 16.2821 13.6878 16.2821ZM13.6707 19.8692C14.4221 19.8692 15.0396 19.3217 15.0396 18.583C15.0396 17.8463 14.4317 17.2967 13.6707 17.2967C12.9096 17.2967 12.2953 17.8538 12.2953 18.583C12.2953 19.3121 12.9192 19.8692 13.6707 19.8692Z" fill="black"/>
</svg>
