<svg width="28" height="28" viewBox="0 0 28 28" fill="none" xmlns="http://www.w3.org/2000/svg">
<path d="M6.84421 24.8972H21.0295C23.5685 24.8972 24.8737 23.5919 24.8737 21.0914V6.82921C24.8737 4.32656 23.5685 3.02344 21.0295 3.02344H6.84421C4.31484 3.02344 3 4.31695 3 6.82921V21.0914C3 23.6016 4.31484 24.8972 6.84421 24.8972ZM6.97733 22.6013C5.88772 22.6013 5.29592 22.0371 5.29592 20.8985V7.01999C5.29592 5.88139 5.88772 5.31936 6.97733 5.31936H20.8964C21.9764 5.31936 22.5778 5.88139 22.5778 7.01999V20.8985C22.5778 22.0371 21.9764 22.6013 20.8964 22.6013H6.97733Z" fill="black"/>
<path d="M11.4254 19.3078C12.1444 19.3078 12.5518 18.828 12.5518 18.0612V14.7701H16.5048C17.0272 14.7701 17.3848 14.4839 17.3848 13.9603C17.3848 13.4271 17.0272 13.1196 16.5048 13.1196H12.5455V10.324H16.8816C17.4399 10.324 17.8123 9.98132 17.8123 9.43453C17.8123 8.87812 17.4399 8.55469 16.8816 8.55469H11.4601C10.7105 8.55469 10.3203 9.03562 10.3203 9.81609V18.0612C10.3203 18.8109 10.7063 19.3078 11.4254 19.3078Z" fill="black"/>
</svg>
