<svg width="28" height="28" viewBox="0 0 28 28" fill="none" xmlns="http://www.w3.org/2000/svg">
<path d="M6.84421 24.8972H21.0295C23.5685 24.8972 24.8737 23.5919 24.8737 21.0914V6.82921C24.8737 4.32656 23.5685 3.02344 21.0295 3.02344H6.84421C4.31484 3.02344 3 4.31695 3 6.82921V21.0914C3 23.6016 4.31484 24.8972 6.84421 24.8972ZM6.97733 22.6013C5.88772 22.6013 5.29592 22.0371 5.29592 20.8985V7.01999C5.29592 5.88139 5.88772 5.31936 6.97733 5.31936H20.8964C21.9764 5.31936 22.5778 5.88139 22.5778 7.01999V20.8985C22.5778 22.0371 21.9764 22.6013 20.8964 22.6013H6.97733Z" fill="black"/>
<path d="M12.4815 19.4712C12.9516 19.4712 13.2582 19.2626 13.558 18.717L17.7233 11.0508C17.9914 10.5846 18.0594 10.2816 18.0594 9.95952C18.0594 9.20952 17.4922 8.68054 16.6103 8.68054H10.9726C10.4443 8.68054 10.0977 9.02202 10.0977 9.5346C10.0977 10.0493 10.4539 10.4004 10.9726 10.4004H15.6725V10.5005L11.5794 17.7998C11.4453 18.0202 11.3858 18.2222 11.3858 18.4903C11.3858 19.0669 11.8625 19.4712 12.4815 19.4712Z" fill="black"/>
</svg>
