<svg width="28" height="28" viewBox="0 0 28 28" fill="none" xmlns="http://www.w3.org/2000/svg">
<path d="M14.105 26.21C20.7369 26.21 26.2121 20.7273 26.2121 14.105C26.2121 7.47312 20.7273 2 14.0954 2C7.47523 2 2 7.47312 2 14.105C2 20.7273 7.48484 26.21 14.105 26.21Z" fill="black"/>
<path d="M10.1816 19.1009C8.61196 19.1009 7.36555 18.1473 7.06719 17.0966C7.01821 16.9337 6.99805 16.8017 6.99805 16.6292C6.99805 16.1684 7.32782 15.8607 7.74313 15.8607C8.09234 15.8607 8.30727 16.0503 8.47437 16.4211C8.77273 17.1697 9.37086 17.5803 10.1975 17.5803C11.1959 17.5803 11.8766 16.9564 11.8766 16.1478C11.8766 15.2935 11.244 14.7282 10.2467 14.7282H9.67461C9.21407 14.7282 8.93938 14.4015 8.93938 13.9695C8.93938 13.5012 9.22883 13.1959 9.67461 13.1959H10.2083C11.0497 13.1959 11.6174 12.6254 11.6174 11.867C11.6174 11.1163 11.0382 10.6086 10.2137 10.6086C9.39664 10.6086 8.87938 11.015 8.61523 11.7636C8.48117 12.1323 8.27047 12.3261 7.89571 12.3261C7.46563 12.3261 7.1729 12.0162 7.1729 11.5501C7.1729 11.3851 7.18883 11.2531 7.23125 11.0776C7.53172 10.0093 8.67407 9.10486 10.2488 9.10486C12.0224 9.10486 13.2465 10.1394 13.2465 11.6457C13.2465 12.7114 12.5101 13.6651 11.5627 13.8228V13.9016C12.7105 14.0103 13.5397 15.0097 13.5397 16.2329C13.5397 17.9246 12.178 19.1009 10.1816 19.1009ZM17.8775 19.1009C16.3004 19.1009 15.3606 18.2459 15.1499 17.6056C15.0882 17.4439 15.0371 17.2651 15.0371 17.1289C15.0371 16.6913 15.3203 16.3827 15.7321 16.3827C16.0346 16.3827 16.2859 16.5137 16.4828 16.8376C16.761 17.3026 17.2314 17.612 17.852 17.612C19.1364 17.612 19.9269 16.2439 19.9098 14.1312H19.8437C19.54 14.9218 18.8014 15.5626 17.5925 15.5626C16.0691 15.5626 14.7676 14.4312 14.7676 12.4705C14.7676 10.4101 16.0567 9.10486 18.0064 9.10486C20.2253 9.10486 21.4466 10.7762 21.4466 13.7832C21.4466 17.2452 20.1969 19.1009 17.8775 19.1009ZM18.0842 14.2227C19.0782 14.2227 19.7703 13.4623 19.7703 12.4067C19.7703 11.3009 19.0686 10.5235 18.0939 10.5235C17.0732 10.5235 16.412 11.2646 16.412 12.3875C16.412 13.4623 17.0849 14.2227 18.0842 14.2227Z" fill="white"/>
</svg>
