<svg width="28" height="28" viewBox="0 0 28 28" fill="none" xmlns="http://www.w3.org/2000/svg">
<path d="M6.84421 24.8972H21.0295C23.5685 24.8972 24.8737 23.5919 24.8737 21.0914V6.82921C24.8737 4.32656 23.5685 3.02344 21.0295 3.02344H6.84421C4.31484 3.02344 3 4.31695 3 6.82921V21.0914C3 23.6016 4.31484 24.8972 6.84421 24.8972Z" fill="black"/>
<path d="M13.9667 19.6356C10.8498 19.6356 8.65039 17.2977 8.65039 13.8486C8.65039 10.39 10.8498 8.06384 13.9667 8.06384C17.0858 8.06384 19.2831 10.39 19.2831 13.8486C19.2831 15.8368 18.5563 17.4479 17.3478 18.4419L17.9605 19.2606C18.1916 19.5843 18.2703 19.7586 18.2703 20.0066C18.2703 20.5002 17.9141 20.848 17.4003 20.848C17.026 20.848 16.7675 20.7055 16.5036 20.3078L15.7738 19.3262C15.2333 19.5236 14.6213 19.6356 13.9667 19.6356ZM13.9667 17.7798C14.2698 17.7798 14.5461 17.7414 14.799 17.6603L14.308 16.9783C14.1545 16.7746 14.0863 16.603 14.0863 16.3921C14.0863 15.9801 14.427 15.669 14.8445 15.669C15.1109 15.669 15.2816 15.7522 15.4501 15.9646L16.036 16.7385C16.622 16.0879 16.9592 15.084 16.9592 13.8486C16.9592 11.4309 15.7681 9.9175 13.9667 9.9175C12.177 9.9175 10.9859 11.4309 10.9859 13.8486C10.9859 16.2665 12.177 17.7798 13.9667 17.7798Z" fill="white"/>
</svg>
