<svg width="28" height="28" viewBox="0 0 28 28" fill="none" xmlns="http://www.w3.org/2000/svg">
<path d="M6.84421 24.8972H21.0295C23.5685 24.8972 24.8737 23.5919 24.8737 21.0914V6.82921C24.8737 4.32656 23.5685 3.02344 21.0295 3.02344H6.84421C4.31484 3.02344 3 4.31695 3 6.82921V21.0914C3 23.6016 4.31484 24.8972 6.84421 24.8972ZM6.97733 22.6013C5.88772 22.6013 5.29592 22.0371 5.29592 20.8985V7.01999C5.29592 5.88139 5.88772 5.31936 6.97733 5.31936H20.8964C21.9764 5.31936 22.5778 5.88139 22.5778 7.01999V20.8985C22.5778 22.0371 21.9764 22.6013 20.8964 22.6013H6.97733Z" fill="black"/>
<path d="M13.9429 19.3078C14.6789 19.3078 15.0925 18.8292 15.0925 18.0295V15.3717L18.2611 10.0202C18.3834 9.81819 18.4387 9.60748 18.4387 9.40545C18.4387 8.83007 18.0091 8.39929 17.4093 8.39929C16.916 8.39929 16.6511 8.5896 16.365 9.14131L14.0015 13.3123H13.9132L11.5497 9.14131C11.2656 8.57999 10.9987 8.39929 10.4861 8.39929C9.89594 8.39929 9.44922 8.83968 9.44922 9.38624C9.44922 9.59577 9.50242 9.79897 9.62477 10.0202L12.8125 15.3909V18.0295C12.8125 18.8121 13.2187 19.3078 13.9429 19.3078Z" fill="black"/>
</svg>
