<svg width="28" height="28" viewBox="0 0 28 28" fill="none" xmlns="http://www.w3.org/2000/svg">
<path d="M6.84421 24.8972H21.0295C23.5685 24.8972 24.8737 23.5919 24.8737 21.0914V6.82921C24.8737 4.32656 23.5685 3.02344 21.0295 3.02344H6.84421C4.31484 3.02344 3 4.31695 3 6.82921V21.0914C3 23.6016 4.31484 24.8972 6.84421 24.8972ZM6.97733 22.6013C5.88772 22.6013 5.29592 22.0371 5.29592 20.8985V7.01999C5.29592 5.88139 5.88772 5.31936 6.97733 5.31936H20.8964C21.9764 5.31936 22.5778 5.88139 22.5778 7.01999V20.8985C22.5778 22.0371 21.9764 22.6013 20.8964 22.6013H6.97733Z" fill="black"/>
<path d="M10.0204 18.8817C11.9915 18.8817 13.3406 17.7202 13.3406 16.0495C13.3406 14.839 12.5273 13.8523 11.3901 13.7435V13.6669C12.3194 13.5091 13.0495 12.5682 13.0495 11.513C13.0495 10.0257 11.838 9.00378 10.0877 9.00378C8.53188 9.00378 7.40219 9.89558 7.10383 10.9554C7.06563 11.1289 7.05719 11.2587 7.05719 11.4195C7.05719 11.8793 7.3382 12.1828 7.76945 12.1828C8.13789 12.1828 8.34437 11.9911 8.46672 11.6288C8.72453 10.8844 9.23969 10.478 10.0546 10.478C10.8749 10.478 11.452 10.9835 11.452 11.7279C11.452 12.4843 10.8918 13.0505 10.0471 13.0505H9.51766C9.0761 13.0505 8.79508 13.3516 8.79508 13.8094C8.79508 14.2329 9.06555 14.5533 9.51766 14.5533H10.0952C11.0882 14.5533 11.7187 15.1165 11.7187 15.9645C11.7187 16.7709 11.0285 17.3906 10.0363 17.3906C9.21601 17.3906 8.63172 16.9821 8.32586 16.2377C8.17047 15.8733 7.95226 15.6858 7.60516 15.6858C7.19828 15.6858 6.87695 15.9893 6.87695 16.4395C6.87695 16.6099 6.9025 16.7398 6.94188 16.8984C7.23813 17.9386 8.47938 18.8817 10.0204 18.8817ZM19.4193 18.8625C19.9251 18.8625 20.189 18.5196 20.189 18.0394V16.7916H20.7429C21.175 16.7916 21.4455 16.534 21.4455 16.0901C21.4455 15.6366 21.175 15.3609 20.7429 15.3609H20.189V10.2394C20.189 9.47956 19.7055 9.00378 18.9393 9.00378C18.1964 9.00378 17.7429 9.29112 17.3552 9.98417C16.4636 11.4982 15.3961 13.3894 14.7037 14.6934C14.5225 15.0736 14.4375 15.3736 14.4375 15.7301C14.4375 16.3955 14.8603 16.7958 15.517 16.7958H18.6593V18.0394C18.6593 18.51 18.9349 18.8625 19.4193 18.8625ZM18.6593 15.3673H16.0886V15.3204C16.6945 14.1016 17.7729 12.1446 18.6049 10.685H18.6593V15.3673Z" fill="black"/>
</svg>
