<svg width="28" height="28" viewBox="0 0 28 28" fill="none" xmlns="http://www.w3.org/2000/svg">
<path d="M6.84421 24.8972H21.0295C23.5685 24.8972 24.8737 23.5919 24.8737 21.0914V6.82921C24.8737 4.32656 23.5685 3.02344 21.0295 3.02344H6.84421C4.31484 3.02344 3 4.31695 3 6.82921V21.0914C3 23.6016 4.31484 24.8972 6.84421 24.8972Z" fill="black"/>
<path d="M9.10547 13.9577C9.10547 10.6936 10.763 8.5699 13.3737 8.26287V7.35889C13.3737 7.00826 13.6209 6.78021 13.9598 6.78021C14.2891 6.78021 14.5268 7.00826 14.5268 7.35889V8.25326C16.2537 8.40678 17.6121 9.39373 18.1732 10.8204C18.2667 11.0491 18.3262 11.2917 18.3262 11.5226C18.3262 12.0354 17.9869 12.3747 17.4698 12.3747C16.9994 12.3747 16.743 12.1938 16.5666 11.685C16.2907 10.7927 15.5175 10.1177 14.5268 9.94075V18.012C15.5794 17.8638 16.3643 17.2059 16.6402 16.2785C16.8028 15.806 17.0742 15.5749 17.535 15.5749C18.0701 15.5749 18.4062 15.9281 18.4062 16.4377C18.4062 16.6709 18.3572 16.8848 18.2826 17.0946C17.7565 18.5381 16.3826 19.5534 14.5268 19.6856V20.5854C14.5268 20.936 14.2891 21.1758 13.9598 21.1758C13.6326 21.1758 13.3737 20.936 13.3737 20.5854V19.676C10.7428 19.3702 9.10547 17.2519 9.10547 13.9577ZM11.0276 13.9598C11.0276 16.1475 11.9053 17.6337 13.3737 17.9726V9.97591C11.9149 10.3073 11.0276 11.8031 11.0276 13.9598Z" fill="white"/>
</svg>
