<svg width="28" height="28" viewBox="0 0 28 28" fill="none" xmlns="http://www.w3.org/2000/svg">
<path d="M6.84421 24.8972H21.0295C23.5685 24.8972 24.8737 23.5919 24.8737 21.0914V6.82921C24.8737 4.32656 23.5685 3.02344 21.0295 3.02344H6.84421C4.31484 3.02344 3 4.31695 3 6.82921V21.0914C3 23.6016 4.31484 24.8972 6.84421 24.8972ZM6.97733 22.6013C5.88772 22.6013 5.29592 22.0371 5.29592 20.8985V7.01999C5.29592 5.88139 5.88772 5.31936 6.97733 5.31936H20.8964C21.9764 5.31936 22.5778 5.88139 22.5778 7.01999V20.8985C22.5778 22.0371 21.9764 22.6013 20.8964 22.6013H6.97733Z" fill="black"/>
<path d="M13.8692 19.4808C16.34 19.4808 17.9921 17.9904 17.9921 15.7034C17.9921 13.6376 16.5313 12.2236 14.4015 12.2236C13.4375 12.2236 12.4637 12.6434 12.0587 13.2356H11.9576L12.1998 10.3329H16.7047C17.2161 10.3329 17.5597 9.99655 17.5597 9.50085C17.5597 9.00093 17.232 8.68054 16.7047 8.68054H11.8648C11.0525 8.68054 10.5148 9.15304 10.4541 9.89389L10.1673 13.5727C10.1141 14.3398 10.5493 14.8188 11.3321 14.8188C11.8037 14.8188 12.0805 14.7145 12.5164 14.3988C13.0304 13.9795 13.442 13.8143 14.0113 13.8143C15.1311 13.8143 15.8809 14.5929 15.8809 15.7533C15.8809 16.9095 15.0053 17.7713 13.831 17.7713C12.9397 17.7713 12.2143 17.3393 11.8381 16.6608C11.6124 16.3153 11.3164 16.1236 10.9048 16.1236C10.3412 16.1236 9.98047 16.4876 9.98047 16.9983C9.98047 17.2038 10.0273 17.3977 10.0998 17.5798C10.5643 18.7455 11.9426 19.4808 13.8692 19.4808Z" fill="black"/>
</svg>
