<svg width="28" height="28" viewBox="0 0 28 28" fill="none" xmlns="http://www.w3.org/2000/svg">
<path d="M6.84421 24.8972H21.0295C23.5685 24.8972 24.8737 23.5919 24.8737 21.0914V6.82921C24.8737 4.32656 23.5685 3.02344 21.0295 3.02344H6.84421C4.31484 3.02344 3 4.31695 3 6.82921V21.0914C3 23.6016 4.31484 24.8972 6.84421 24.8972ZM6.97733 22.6013C5.88772 22.6013 5.29592 22.0371 5.29592 20.8985V7.01999C5.29592 5.88139 5.88772 5.31936 6.97733 5.31936H20.8964C21.9764 5.31936 22.5778 5.88139 22.5778 7.01999V20.8985C22.5778 22.0371 21.9764 22.6013 20.8964 22.6013H6.97733Z" fill="black"/>
<path d="M11.3255 19.1545H16.6659C17.2242 19.1545 17.587 18.8215 17.587 18.2747C17.587 17.7183 17.2242 17.3852 16.6659 17.3852H12.3612V14.5915H16.4161C16.9385 14.5915 17.2866 14.302 17.2866 13.7923C17.2866 13.2654 16.9385 12.9642 16.4161 12.9642H12.3612V10.324H16.6659C17.2242 10.324 17.587 9.98132 17.587 9.43453C17.587 8.87812 17.2242 8.55469 16.6659 8.55469H11.3255C10.5642 8.55469 10.1836 9.03562 10.1836 9.81609V17.8931C10.1836 18.6736 10.5621 19.1545 11.3255 19.1545Z" fill="black"/>
</svg>
