<svg width="28" height="28" viewBox="0 0 28 28" fill="none" xmlns="http://www.w3.org/2000/svg">
<path d="M14.105 26.21C20.7369 26.21 26.2121 20.7273 26.2121 14.105C26.2121 7.47312 20.7273 2 14.0954 2C7.47523 2 2 7.47312 2 14.105C2 20.7273 7.48484 26.21 14.105 26.21ZM14.105 23.8255C8.71085 23.8255 4.39412 19.4991 4.39412 14.105C4.39412 8.71085 8.70124 4.38452 14.0954 4.38452C19.4895 4.38452 23.8276 8.71085 23.8276 14.105C23.8276 19.4991 19.4991 23.8255 14.105 23.8255Z" fill="black"/>
<path d="M10.7362 18.9245C11.2502 18.9245 11.558 18.6041 11.558 18.0648V10.1939C11.558 9.61317 11.1907 9.22153 10.612 9.22153C10.218 9.22153 9.95414 9.34083 9.51024 9.6727L7.87031 10.8387C7.58836 11.0609 7.42969 11.2908 7.42969 11.6208C7.42969 12.0383 7.77258 12.3683 8.14195 12.3683C8.36953 12.3683 8.5057 12.327 8.77734 12.0971L9.87727 11.2557H9.94336V18.0648C9.94336 18.6041 10.2415 18.9245 10.7362 18.9245ZM17.0177 19.0515C18.8845 19.0515 20.2038 17.7997 20.2038 15.6973C20.2038 13.7534 18.8939 12.6697 17.4241 12.6697C16.2536 12.6697 15.5233 13.3243 15.2346 14.0534H15.1568C15.1547 13.9993 15.1525 13.9527 15.1525 13.8699C15.1525 11.8871 15.9736 10.6254 17.1712 10.6254C17.794 10.6254 18.2142 10.9282 18.4903 11.341C18.6853 11.6129 18.8812 11.7556 19.2124 11.7556C19.5637 11.7556 19.8499 11.4851 19.8499 11.071C19.8499 10.8933 19.8201 10.7443 19.7489 10.5729C19.4442 9.82364 18.532 9.16388 17.2298 9.16388C15.0356 9.16388 13.6359 10.8858 13.6359 14.326C13.6359 15.6798 13.8501 16.708 14.2338 17.4462C14.8146 18.5797 15.8203 19.0515 17.0177 19.0515ZM16.939 17.6485C15.9588 17.6485 15.2709 16.8753 15.2709 15.778C15.2709 14.7308 15.9588 13.9843 16.939 13.9843C17.9224 13.9843 18.6007 14.7212 18.6007 15.7876C18.6007 16.9234 17.9533 17.6485 16.939 17.6485Z" fill="black"/>
</svg>
