<svg width="28" height="28" viewBox="0 0 28 28" fill="none" xmlns="http://www.w3.org/2000/svg">
<path d="M14.105 26.21C20.7369 26.21 26.2121 20.7273 26.2121 14.105C26.2121 7.47312 20.7273 2 14.0954 2C7.47523 2 2 7.47312 2 14.105C2 20.7273 7.48484 26.21 14.105 26.21ZM14.105 23.8255C8.71085 23.8255 4.39412 19.4991 4.39412 14.105C4.39412 8.71085 8.70124 4.38452 14.0954 4.38452C19.4895 4.38452 23.8276 8.71085 23.8276 14.105C23.8276 19.4991 19.4991 23.8255 14.105 23.8255Z" fill="black"/>
<path d="M11.5798 19.468C12.2968 19.468 12.6945 18.9882 12.6945 18.2213V14.9302H16.6571C17.1795 14.9302 17.5372 14.6441 17.5372 14.1205C17.5372 13.5873 17.1795 13.2798 16.6571 13.2798H12.6882V10.4841H17.034C17.5923 10.4841 17.9647 10.1415 17.9647 9.59467C17.9647 9.03827 17.5923 8.71484 17.034 8.71484H11.6145C10.8629 8.71484 10.4727 9.19577 10.4727 9.97623V18.2213C10.4727 18.9711 10.8587 19.468 11.5798 19.468Z" fill="black"/>
</svg>
