<svg width="28" height="28" viewBox="0 0 28 28" fill="none" xmlns="http://www.w3.org/2000/svg">
<path d="M6.84421 24.8972H21.0295C23.5685 24.8972 24.8737 23.5919 24.8737 21.0914V6.82921C24.8737 4.32656 23.5685 3.02344 21.0295 3.02344H6.84421C4.31484 3.02344 3 4.31695 3 6.82921V21.0914C3 23.6016 4.31484 24.8972 6.84421 24.8972Z" fill="black"/>
<path d="M11.4681 19.056C10.9581 19.056 10.6783 18.6897 10.6783 18.1914V16.9126H7.4221C6.73351 16.9126 6.29688 16.4943 6.29688 15.7991C6.29688 15.4246 6.37985 15.1087 6.57485 14.7104C7.29814 13.3616 8.39336 11.411 9.30837 9.83618C9.72368 9.11126 10.1856 8.80798 10.9626 8.80798C11.7627 8.80798 12.2835 9.31352 12.2835 10.1052V15.4098H12.8374C13.2897 15.4098 13.5719 15.7014 13.5719 16.1751C13.5719 16.6349 13.2897 16.9063 12.8374 16.9063H12.2835V18.1914C12.2835 18.6993 11.9941 19.056 11.4681 19.056ZM10.6783 15.4161V10.5667H10.6143C9.76634 12.0892 8.65282 14.1015 8.01391 15.3693V15.4161H10.6783ZM17.9435 19.0752C16.3204 19.0752 15.3571 18.1935 15.1507 17.534C15.0869 17.3701 15.0379 17.1934 15.0379 17.0455C15.0379 16.5983 15.3307 16.2822 15.75 16.2822C16.0621 16.2822 16.3017 16.4132 16.522 16.7467C16.8002 17.2309 17.2898 17.5403 17.92 17.5403C19.2429 17.5403 20.0409 16.1413 20.0238 13.971H19.9577C19.6561 14.7808 18.8983 15.4429 17.6606 15.4429C16.0966 15.4429 14.745 14.2827 14.745 12.2718C14.745 10.1538 16.0767 8.80798 18.0724 8.80798C20.3606 8.80798 21.6086 10.5274 21.6086 13.6133C21.6086 17.1735 20.3226 19.0752 17.9435 19.0752ZM18.1598 14.0624C19.173 14.0624 19.8843 13.2808 19.8843 12.1985C19.8843 11.0638 19.1634 10.2651 18.1598 10.2651C17.1199 10.2651 16.4395 11.0254 16.4395 12.1792C16.4395 13.2808 17.1391 14.0624 18.1598 14.0624Z" fill="white"/>
</svg>
