<svg width="28" height="28" viewBox="0 0 28 28" fill="none" xmlns="http://www.w3.org/2000/svg">
<path d="M6.84421 24.8972H21.0295C23.5685 24.8972 24.8737 23.5919 24.8737 21.0914V6.82921C24.8737 4.32656 23.5685 3.02344 21.0295 3.02344H6.84421C4.31484 3.02344 3 4.31695 3 6.82921V21.0914C3 23.6016 4.31484 24.8972 6.84421 24.8972ZM6.97733 22.6013C5.88772 22.6013 5.29592 22.0371 5.29592 20.8985V7.01999C5.29592 5.88139 5.88772 5.31936 6.97733 5.31936H20.8964C21.9764 5.31936 22.5778 5.88139 22.5778 7.01999V20.8985C22.5778 22.0371 21.9764 22.6013 20.8964 22.6013H6.97733Z" fill="black"/>
<path d="M10.2055 19.4348C10.7265 19.4348 11.0819 19.1723 11.2661 18.5182L11.9908 16.3849H15.8972L16.6197 18.5182C16.804 19.1627 17.1593 19.4348 17.6803 19.4348C18.3077 19.4348 18.7141 19.0423 18.7141 18.4617C18.7141 18.2573 18.6609 18.0511 18.5641 17.7427L15.5634 9.52573C15.2784 8.72863 14.7339 8.32996 13.927 8.32996C13.1339 8.32996 12.6116 8.72652 12.3224 9.52573L9.32383 17.7427C9.22492 18.0511 9.17383 18.2573 9.17383 18.4521C9.17383 19.0519 9.57812 19.4348 10.2055 19.4348ZM12.4785 14.7656L13.8843 10.5258H14.0015L15.4073 14.7656H12.4785Z" fill="black"/>
</svg>
