<svg width="28" height="28" viewBox="0 0 28 28" fill="none" xmlns="http://www.w3.org/2000/svg">
<path d="M14.105 26.21C20.7369 26.21 26.2121 20.7273 26.2121 14.105C26.2121 7.47312 20.7273 2 14.0954 2C7.47523 2 2 7.47312 2 14.105C2 20.7273 7.48484 26.21 14.105 26.21ZM14.105 23.8255C8.71085 23.8255 4.39412 19.4991 4.39412 14.105C4.39412 8.71085 8.70124 4.38452 14.0954 4.38452C19.4895 4.38452 23.8276 8.71085 23.8276 14.105C23.8276 19.4991 19.4991 23.8255 14.105 23.8255Z" fill="black"/>
<path d="M10.2266 19.0419C12.1917 19.0419 13.5149 17.2243 13.5149 14.1029C13.5149 10.9794 12.1917 9.16391 10.2266 9.16391C8.25952 9.16391 6.95312 10.9794 6.95312 14.1029C6.95312 17.2243 8.25952 19.0419 10.2266 19.0419ZM10.233 17.472C9.25257 17.472 8.6296 16.2516 8.6296 14.1029C8.6296 11.9541 9.25257 10.7337 10.233 10.7337C11.2155 10.7337 11.8384 11.9541 11.8384 14.1029C11.8384 16.2516 11.2251 17.472 10.233 17.472ZM17.961 19.0419C20.0109 19.0419 21.344 17.7826 21.344 15.7433C21.344 13.9639 20.1464 12.7231 18.4375 12.7231C17.6819 12.7231 16.8963 13.0909 16.5489 13.6119H16.5042L16.7003 10.8259H20.3198C20.7028 10.8259 20.9859 10.5416 20.9859 10.1084C20.9859 9.68492 20.7187 9.39523 20.3198 9.39523H16.4479C15.8057 9.39523 15.3977 9.78711 15.3625 10.4483L15.0949 13.9527C15.0597 14.5831 15.4089 14.9921 15.9712 14.9921C16.3586 14.9921 16.5876 14.8878 16.9352 14.6105C17.3798 14.2308 17.721 14.0677 18.2008 14.0677C19.1287 14.0677 19.7685 14.8184 19.7685 15.7953C19.7685 16.9098 19.0689 17.5953 18.0419 17.5953C17.3104 17.5953 16.7034 17.1988 16.3879 16.5821C16.2058 16.2739 15.982 16.0845 15.6724 16.0845C15.2624 16.0845 14.9613 16.4028 14.9613 16.8233C14.9613 17.0129 14.9922 17.1929 15.071 17.3696C15.4024 18.2727 16.514 19.0419 17.961 19.0419Z" fill="black"/>
</svg>
