<svg width="28" height="28" viewBox="0 0 28 28" fill="none" xmlns="http://www.w3.org/2000/svg">
<path d="M14.105 26.21C20.7369 26.21 26.2121 20.7273 26.2121 14.105C26.2121 7.47312 20.7273 2 14.0954 2C7.47523 2 2 7.47312 2 14.105C2 20.7273 7.48484 26.21 14.105 26.21Z" fill="black"/>
<path d="M11.607 19.2161C11.0948 19.2161 10.8054 18.8498 10.8054 18.3516V17.0728H7.55882C6.87234 17.0728 6.43359 16.6544 6.43359 15.9593C6.43359 15.5847 6.51866 15.2688 6.71155 14.8706C7.42734 13.5218 8.52258 11.5711 9.44719 9.99634C9.85289 9.27142 10.3245 8.96814 11.1014 8.96814C11.9016 8.96814 12.4127 9.47369 12.4127 10.2654V15.57H12.974C13.4264 15.57 13.7086 15.8615 13.7086 16.3352C13.7086 16.7951 13.4264 17.0665 12.974 17.0665H12.4127V18.3516C12.4127 18.8595 12.1329 19.2161 11.607 19.2161ZM10.8054 15.5763V10.7269H10.751C9.89343 12.2493 8.78202 14.2617 8.15061 15.5294V15.5763H10.8054ZM18.0822 19.2354C16.4571 19.2354 15.4959 18.3536 15.2777 17.6941C15.214 17.5303 15.1746 17.3536 15.1746 17.2057C15.1746 16.7585 15.4673 16.4423 15.8866 16.4423C16.1988 16.4423 16.4404 16.5733 16.6586 16.9069C16.9368 17.3911 17.4286 17.7004 18.0567 17.7004C19.3795 17.7004 20.1797 16.3015 20.1626 14.1311H20.0965C19.7927 14.9409 19.0371 15.603 17.7993 15.603C16.2236 15.603 14.8837 14.4429 14.8837 12.4319C14.8837 10.3139 16.2133 8.96814 18.2111 8.96814C20.4972 8.96814 21.7474 10.6875 21.7474 13.7735C21.7474 17.3336 20.4614 19.2354 18.0822 19.2354ZM18.2965 14.2226C19.3118 14.2226 20.0231 13.4409 20.0231 12.3586C20.0231 11.224 19.3022 10.4252 18.2965 10.4252C17.249 10.4252 16.5761 11.1856 16.5761 12.3393C16.5761 13.4409 17.2779 14.2226 18.2965 14.2226Z" fill="white"/>
</svg>
