<svg width="28" height="28" viewBox="0 0 28 28" fill="none" xmlns="http://www.w3.org/2000/svg">
<path d="M14.105 26.21C20.7369 26.21 26.2121 20.7273 26.2121 14.105C26.2121 7.47312 20.7273 2 14.0954 2C7.47523 2 2 7.47312 2 14.105C2 20.7273 7.48484 26.21 14.105 26.21Z" fill="black"/>
<path d="M11.4686 19.2161C10.9661 19.2161 10.6863 18.8498 10.6863 18.3516V17.0728H7.43007C6.74359 17.0728 6.30273 16.6544 6.30273 15.9593C6.30273 15.5847 6.38992 15.2688 6.5732 14.8706C7.2986 13.5218 8.40344 11.5711 9.30884 9.99634C9.73376 9.27142 10.1957 8.96814 10.9727 8.96814C11.7728 8.96814 12.2936 9.47369 12.2936 10.2654V15.57H12.8453C13.2976 15.57 13.5894 15.8615 13.5894 16.3352C13.5894 16.7951 13.3072 17.0665 12.8453 17.0665H12.2936V18.3516C12.2936 18.8595 12.0041 19.2161 11.4686 19.2161ZM10.6863 15.5763V10.7269H10.6223C9.76469 12.2493 8.66289 14.2617 8.02187 15.5294V15.5763H10.6863ZM19.6731 19.2161C19.1706 19.2161 18.8812 18.8498 18.8812 18.3516V17.0728H15.6154C14.9289 17.0728 14.4997 16.6544 14.4997 15.9593C14.4997 15.5847 14.5752 15.2688 14.7777 14.8706C15.4935 13.5218 16.5866 11.5711 17.5134 9.99634C17.9191 9.27142 18.381 8.96814 19.1676 8.96814C19.9773 8.96814 20.4789 9.47369 20.4789 10.2654V15.57H21.0444C21.5022 15.57 21.779 15.8615 21.779 16.3352C21.779 16.7951 21.5022 17.0665 21.0444 17.0665H20.4789V18.3516C20.4789 18.8595 20.1894 19.2161 19.6731 19.2161ZM18.8812 15.5763V10.7269H18.8268C17.9596 12.2493 16.8578 14.2617 16.2168 15.5294V15.5763H18.8812Z" fill="white"/>
</svg>
