<svg width="28" height="28" viewBox="0 0 28 28" fill="none" xmlns="http://www.w3.org/2000/svg">
<path d="M14.105 26.21C20.7369 26.21 26.2121 20.7273 26.2121 14.105C26.2121 7.47312 20.7273 2 14.0954 2C7.47523 2 2 7.47312 2 14.105C2 20.7273 7.48484 26.21 14.105 26.21ZM14.105 23.8255C8.71085 23.8255 4.39412 19.4991 4.39412 14.105C4.39412 8.71085 8.70124 4.38452 14.0954 4.38452C19.4895 4.38452 23.8276 8.71085 23.8276 14.105C23.8276 19.4991 19.4991 23.8255 14.105 23.8255Z" fill="black"/>
<path d="M10.295 19.0419C12.26 19.0419 13.5812 17.2243 13.5812 14.1029C13.5812 10.9794 12.26 9.16391 10.295 9.16391C8.32789 9.16391 7.02148 10.9794 7.02148 14.1029C7.02148 17.2243 8.32789 19.0419 10.295 19.0419ZM10.3013 17.472C9.31882 17.472 8.69796 16.2516 8.69796 14.1029C8.69796 11.9541 9.31882 10.7337 10.3013 10.7337C11.2838 10.7337 11.9068 11.9541 11.9068 14.1029C11.9068 16.2516 11.2934 17.472 10.3013 17.472ZM17.8461 19.0419C20.1402 19.0419 21.3805 17.2114 21.3805 13.7853C21.3805 10.8141 20.1622 9.16391 17.9729 9.16391C16.0484 9.16391 14.7741 10.4544 14.7741 12.4894C14.7741 14.4291 16.063 15.5457 17.577 15.5457C18.7679 15.5457 19.4959 14.9091 19.7975 14.1291H19.8636C19.8807 16.2291 19.1019 17.5803 17.8227 17.5803C17.2159 17.5803 16.738 17.273 16.4694 16.8102C16.2671 16.4884 16.0297 16.3616 15.7313 16.3616C15.328 16.3616 15.0512 16.6639 15.0512 17.093C15.0512 17.2292 15.0905 17.4017 15.1501 17.5613C15.3566 18.1932 16.2859 19.0419 17.8461 19.0419ZM18.0507 14.229C17.0555 14.229 16.389 13.475 16.389 12.4086C16.389 11.292 17.0459 10.5573 18.0603 10.5573C19.0309 10.5573 19.7263 11.3284 19.7263 12.4278C19.7263 13.475 19.0405 14.229 18.0507 14.229Z" fill="black"/>
</svg>
