<svg width="28" height="28" viewBox="0 0 28 28" fill="none" xmlns="http://www.w3.org/2000/svg">
<path d="M14.105 26.21C20.7369 26.21 26.2121 20.7273 26.2121 14.105C26.2121 7.47312 20.7273 2 14.0954 2C7.47523 2 2 7.47312 2 14.105C2 20.7273 7.48484 26.21 14.105 26.21ZM14.105 23.8255C8.71085 23.8255 4.39412 19.4991 4.39412 14.105C4.39412 8.71085 8.70124 4.38452 14.0954 4.38452C19.4895 4.38452 23.8276 8.71085 23.8276 14.105C23.8276 19.4991 19.4991 23.8255 14.105 23.8255Z" fill="black"/>
<path d="M14.0963 19.5758C14.7253 19.5758 15.3118 19.4734 15.8384 19.2781L16.5448 20.2362C16.7949 20.6138 17.0492 20.7446 17.4033 20.7446C17.8873 20.7446 18.2234 20.4148 18.2234 19.9414C18.2234 19.7073 18.1564 19.5371 17.9295 19.2294L17.3382 18.4395C18.503 17.4774 19.2043 15.9259 19.2043 14.0185C19.2043 10.697 17.0942 8.45166 14.0963 8.45166C11.0962 8.45166 8.98828 10.697 8.98828 14.0185C8.98828 17.3326 11.0962 19.5758 14.0963 19.5758ZM14.0963 17.8124C12.3652 17.8124 11.2092 16.348 11.2092 14.0185C11.2092 11.6795 12.3652 10.2172 14.0963 10.2172C15.8274 10.2172 16.9908 11.6795 16.9908 14.0185C16.9908 15.2091 16.6653 16.1895 16.0889 16.8188L15.5243 16.062C15.3558 15.8518 15.1948 15.7782 14.9421 15.7782C14.5407 15.7782 14.2137 16.0775 14.2137 16.4694C14.2137 16.6686 14.2744 16.8284 14.4237 17.0321L14.9051 17.6928C14.6618 17.7739 14.3876 17.8124 14.0963 17.8124Z" fill="black"/>
</svg>
