<svg width="28" height="28" viewBox="0 0 28 28" fill="none" xmlns="http://www.w3.org/2000/svg">
<path d="M6.84421 24.8972H21.0295C23.5685 24.8972 24.8737 23.5919 24.8737 21.0914V6.82921C24.8737 4.32656 23.5685 3.02344 21.0295 3.02344H6.84421C4.31484 3.02344 3 4.31695 3 6.82921V21.0914C3 23.6016 4.31484 24.8972 6.84421 24.8972ZM6.97733 22.6013C5.88772 22.6013 5.29592 22.0371 5.29592 20.8985V7.01999C5.29592 5.88139 5.88772 5.31936 6.97733 5.31936H20.8964C21.9764 5.31936 22.5778 5.88139 22.5778 7.01999V20.8985C22.5778 22.0371 21.9764 22.6013 20.8964 22.6013H6.97733Z" fill="black"/>
<path d="M11.9925 19.721C12.5243 19.721 12.8838 19.354 12.8838 18.8306V17.7984H15.2388C15.5744 17.7984 15.8025 17.5533 15.8025 17.2357C15.8025 16.9202 15.5744 16.6847 15.2388 16.6847H12.8838V14.8631H16.5321C17.013 14.8631 17.3557 14.5481 17.3557 14.0714C17.3557 13.5947 17.013 13.2872 16.5321 13.2872H12.8838V10.2977H16.9298C17.4117 10.2977 17.7661 9.97637 17.7661 9.49333C17.7661 9.00278 17.4117 8.68146 16.9298 8.68146H11.9829C11.4234 8.68146 11.0841 9.03466 11.0841 9.61215V16.6847H10.1634C9.82781 16.6847 9.60938 16.9202 9.60938 17.2357C9.60938 17.5533 9.82781 17.7984 10.1634 17.7984H11.0841V18.8423C11.0841 19.3753 11.4628 19.721 11.9925 19.721Z" fill="black"/>
</svg>
