<svg width="28" height="28" viewBox="0 0 28 28" fill="none" xmlns="http://www.w3.org/2000/svg">
<path d="M6.84421 24.8972H21.0295C23.5685 24.8972 24.8737 23.5919 24.8737 21.0914V6.82921C24.8737 4.32656 23.5685 3.02344 21.0295 3.02344H6.84421C4.31484 3.02344 3 4.31695 3 6.82921V21.0914C3 23.6016 4.31484 24.8972 6.84421 24.8972Z" fill="black"/>
<path d="M9.23633 16.1304C9.23633 15.8051 9.32446 15.4966 9.50727 15.1472C10.7047 12.9982 11.8027 11.0231 13.0074 8.88163C13.2533 8.43257 13.5448 8.21554 14.0054 8.21554C14.63 8.21554 15.0127 8.66788 15.0127 9.20952C15.0127 9.43921 14.9424 9.63936 14.8191 9.9103C13.8228 11.7766 12.8157 13.5792 11.8271 15.4441H14.8285V13.1864C14.8285 12.4933 15.2157 12.0677 15.837 12.0677C16.4989 12.0677 16.8882 12.4795 16.8882 13.1864V15.4441H17.5808C18.2211 15.4441 18.604 15.7995 18.604 16.3505C18.604 16.9345 18.2169 17.3069 17.5787 17.3069H16.8882V18.3445C16.8882 19.0915 16.501 19.4927 15.8391 19.4927C15.2178 19.4927 14.8285 19.0819 14.8285 18.3445V17.3069H10.4652C9.70649 17.3069 9.23633 16.8642 9.23633 16.1304Z" fill="white"/>
</svg>
