<svg width="28" height="28" viewBox="0 0 28 28" fill="none" xmlns="http://www.w3.org/2000/svg">
<path d="M7.2546 24.2822H20.9967C21.7345 24.2822 22.2715 23.7984 22.2715 23.0606C22.2715 22.3132 21.7345 21.8529 20.9967 21.8529H10.3582V21.7753C11.9812 21.1559 13.0671 19.1789 13.0671 16.8089C13.0671 14.0576 11.8966 12.4324 11.8966 9.72913C11.8966 7.17491 13.6758 5.43725 16.8419 5.43725C18.7561 5.43725 19.5698 5.92147 20.3262 5.92147C21.0124 5.92147 21.3991 5.52983 21.3991 4.88765C21.3991 4.3364 21.0998 3.94171 20.433 3.63843C19.4018 3.18187 18.1209 3 16.5059 3C11.816 3 8.97118 5.63977 8.97118 9.68016C8.97118 12.2262 10.2481 14.7745 10.2481 16.9322C10.2481 19.4203 8.78813 21.0809 7.08187 21.6335C6.3825 21.9256 6 22.3371 6 23.0381C6 23.7717 6.52101 24.2822 7.2546 24.2822ZM6.07008 13.6533C6.07008 14.178 6.49266 14.591 7.01953 14.591H18.7568C19.2837 14.591 19.6966 14.178 19.6966 13.6533C19.6966 13.1264 19.2837 12.7134 18.7568 12.7134H7.01953C6.49266 12.7134 6.07008 13.1264 6.07008 13.6533Z" fill="black"/>
</svg>
