<svg width="28" height="28" viewBox="0 0 28 28" fill="none" xmlns="http://www.w3.org/2000/svg">
<path d="M14.105 26.21C20.7369 26.21 26.2121 20.7273 26.2121 14.105C26.2121 7.47312 20.7273 2 14.0954 2C7.47523 2 2 7.47312 2 14.105C2 20.7273 7.48484 26.21 14.105 26.21Z" fill="black"/>
<path d="M10.8994 19.7862C10.1771 19.7862 9.71305 19.4021 9.54594 18.6734L7.32617 9.76669C7.29102 9.63356 7.2793 9.50677 7.2793 9.39497C7.2793 8.7788 7.6932 8.35107 8.32531 8.35107C8.9628 8.35107 9.28179 8.67544 9.42569 9.43013L11.0216 16.7241H11.112L12.942 9.30216C13.0772 8.69771 13.4637 8.41036 14.0949 8.41036C14.7261 8.41036 15.0975 8.70403 15.2403 9.30427L17.0757 16.7241H17.1661L18.7641 9.43013C18.908 8.67544 19.2345 8.35107 19.8741 8.35107C20.4966 8.35107 20.918 8.7788 20.918 9.39497C20.918 9.50677 20.9084 9.63356 20.8615 9.76669L18.6439 18.6734C18.4768 19.4021 18.0127 19.7862 17.2711 19.7862C16.5497 19.7862 16.0559 19.4033 15.8984 18.6779L14.1343 11.6778H14.0459L12.2893 18.6779C12.1318 19.4033 11.638 19.7862 10.8994 19.7862Z" fill="white"/>
</svg>
