<svg width="28" height="28" viewBox="0 0 28 28" fill="none" xmlns="http://www.w3.org/2000/svg">
<path d="M6.84421 24.8972H21.0295C23.5685 24.8972 24.8737 23.5919 24.8737 21.0914V6.82921C24.8737 4.32656 23.5685 3.02344 21.0295 3.02344H6.84421C4.31484 3.02344 3 4.31695 3 6.82921V21.0914C3 23.6016 4.31484 24.8972 6.84421 24.8972Z" fill="black"/>
<path d="M8.87234 19.4079C8.36141 19.4079 8.00586 19.0598 8.00586 18.5489V9.73147C8.00586 8.96765 8.37617 8.49702 9.09195 8.49702H10.9541C12.9509 8.49702 13.9456 9.62929 13.9456 11.5577C13.9456 12.817 13.4213 14.0627 12.4609 14.4473L13.9489 18.2252C14.2407 18.9769 13.6796 19.3952 13.1323 19.3952C12.7843 19.3952 12.4555 19.2356 12.3181 18.8461L10.8012 14.7984C10.7202 14.808 10.6541 14.808 10.5805 14.808H9.73882V18.5489C9.73882 19.0598 9.38328 19.4079 8.87234 19.4079ZM9.73882 13.4911H10.7562C11.7605 13.4911 12.1871 12.7141 12.1871 11.6353C12.1871 10.5366 11.7392 9.88522 10.7466 9.88522H9.73882V13.4911ZM17.8728 20.167C17.6011 20.167 17.3689 19.9348 17.3689 19.6535V18.7931C15.9563 18.627 15.0785 17.7384 14.9154 16.5352C14.8301 15.8993 15.2328 15.5266 15.6872 15.5266C16.0259 15.5266 16.3156 15.7502 16.3814 16.1529C16.4581 16.7972 16.7663 17.2472 17.3689 17.3782V14.5376L16.9102 14.3098C15.6645 13.6809 14.9049 12.8817 14.9049 11.5692C14.9049 10.1449 15.9211 9.16476 17.3689 9.00819V8.16702C17.3689 7.89538 17.6011 7.66312 17.8728 7.66312C18.1465 7.66312 18.3809 7.89538 18.3809 8.16702V9.01991C19.7166 9.21913 20.5071 10.1405 20.6351 11.247C20.7321 11.9435 20.3221 12.2651 19.8622 12.2651C19.515 12.2651 19.2083 12.034 19.15 11.6292C19.0947 11.0798 18.8428 10.6404 18.3809 10.4709V13.2253L18.8236 13.4627C20.2067 14.1949 20.847 15.0047 20.847 16.1627C20.847 17.667 19.8469 18.6248 18.3809 18.8006V19.6535C18.3809 19.9348 18.1465 20.167 17.8728 20.167ZM17.3689 10.4072C16.842 10.5415 16.5167 10.9254 16.5167 11.4853C16.5167 12.0708 16.8942 12.412 17.3208 12.6659L17.3689 12.6947V10.4072ZM18.3809 17.3845C18.9366 17.2577 19.2544 16.8492 19.2544 16.2914C19.2544 15.7795 18.8864 15.3881 18.4193 15.0895L18.3809 15.0799V17.3845Z" fill="white"/>
</svg>
