<svg width="28" height="28" viewBox="0 0 28 28" fill="none" xmlns="http://www.w3.org/2000/svg">
<path d="M14.105 26.21C20.7369 26.21 26.2121 20.7273 26.2121 14.105C26.2121 7.47312 20.7273 2 14.0954 2C7.47523 2 2 7.47312 2 14.105C2 20.7273 7.48484 26.21 14.105 26.21ZM14.105 23.8255C8.71085 23.8255 4.39412 19.4991 4.39412 14.105C4.39412 8.71085 8.70124 4.38452 14.0954 4.38452C19.4895 4.38452 23.8276 8.71085 23.8276 14.105C23.8276 19.4991 19.4991 23.8255 14.105 23.8255Z" fill="black"/>
<path d="M9.36523 14.1104C9.36523 17.5327 11.2372 19.6362 14.1008 19.6362C16.1286 19.6362 17.6136 18.6387 18.1527 17.135C18.2272 16.9508 18.2666 16.7548 18.2762 16.5514C18.2762 16.081 17.941 15.766 17.44 15.766C17.0057 15.766 16.7471 16.0023 16.5845 16.4366C16.3105 17.3284 15.5028 17.9757 14.4521 18.0833V16.5275C14.4521 15.4426 15.133 14.6996 16.0806 14.6996C16.3171 14.6996 16.4769 14.7423 16.6154 14.7423C16.9553 14.7423 17.1854 14.5355 17.1854 14.2309C17.1854 13.8153 16.7666 13.5383 16.1253 13.5383C15.4433 13.5383 14.7974 13.891 14.4425 14.5613V14.086C14.4425 13.7173 14.2049 13.501 13.8831 13.501C13.5475 13.501 13.3194 13.7366 13.3194 14.086L13.3152 17.9863C11.9853 17.5909 11.1971 16.1687 11.1971 14.1008C11.1971 11.7308 12.3381 10.186 14.0975 10.186C15.261 10.186 16.175 10.891 16.532 11.8712C16.6904 12.2471 16.9171 12.5143 17.379 12.5143C17.8792 12.5143 18.1888 12.2014 18.1888 11.7193C18.1888 11.499 18.1431 11.267 18.0517 11.0605C17.4831 9.57805 15.94 8.58875 14.0839 8.58875C11.2414 8.58875 9.36523 10.7148 9.36523 14.1104Z" fill="black"/>
</svg>
