<svg width="28" height="28" viewBox="0 0 28 28" fill="none" xmlns="http://www.w3.org/2000/svg">
<path d="M14.105 26.21C20.7369 26.21 26.2121 20.7273 26.2121 14.105C26.2121 7.47312 20.7273 2 14.0954 2C7.47523 2 2 7.47312 2 14.105C2 20.7273 7.48484 26.21 14.105 26.21Z" fill="black"/>
<path d="M9.67578 12.3383C9.67578 11.9951 9.905 11.7692 10.247 11.7692H10.9283V9.63144C10.9283 9.03918 11.2878 8.67004 11.8801 8.67004H14.8149C16.8472 8.67004 18.245 9.92324 18.5211 11.7692H19.0923C19.4342 11.7692 19.6656 11.9951 19.6656 12.3383C19.6656 12.6697 19.4342 12.9266 19.0923 12.9266H18.5403C18.3219 14.8533 16.8634 16.1834 14.7791 16.1834H12.811V19.1368C12.811 19.7216 12.4175 20.0834 11.8824 20.0834C11.3389 20.0834 10.9283 19.7216 10.9283 19.1368V12.9266H10.247C9.905 12.9266 9.67578 12.6697 9.67578 12.3383ZM12.8206 14.5775L14.4622 14.5796C15.6662 14.5796 16.4572 13.9911 16.6321 12.9266H12.8206V14.5775ZM12.8206 11.7692H16.6032C16.3857 10.7951 15.6118 10.2748 14.4643 10.2748H12.8206V11.7692Z" fill="white"/>
</svg>
