<svg width="28" height="28" viewBox="0 0 28 28" fill="none" xmlns="http://www.w3.org/2000/svg">
<path d="M6.84421 24.8972H21.0295C23.5685 24.8972 24.8737 23.5919 24.8737 21.0914V6.82921C24.8737 4.32656 23.5685 3.02344 21.0295 3.02344H6.84421C4.31484 3.02344 3 4.31695 3 6.82921V21.0914C3 23.6016 4.31484 24.8972 6.84421 24.8972Z" fill="black"/>
<path d="M13.6962 16.3787C12.9486 16.3787 12.5391 16.0169 12.5391 15.3229C12.5391 15.2823 12.5391 15.2343 12.5391 15.1937C12.5391 14.0828 13.1668 13.4626 14.034 12.8554C15.0612 12.1382 15.5694 11.7609 15.5694 10.9891C15.5694 10.1742 14.9115 9.59524 13.9376 9.59524C13.2146 9.59524 12.6387 9.94305 12.2178 10.604L12.0343 10.859C11.7905 11.1698 11.4905 11.3669 11.0391 11.3669C10.5416 11.3669 10.0742 10.998 10.0742 10.4125C10.0742 10.1847 10.1274 9.97705 10.1944 9.77478C10.5828 8.63197 11.9928 7.68884 14.0797 7.68884C16.2497 7.68884 18.0828 8.8354 18.0828 10.8679C18.0828 12.2894 17.3002 12.9883 16.0946 13.7722C15.3132 14.2851 14.8789 14.7081 14.843 15.3435C14.8388 15.3765 14.8367 15.4351 14.8346 15.4841C14.8029 15.9857 14.3743 16.3787 13.6962 16.3787ZM13.6791 20.1072C12.8937 20.1072 12.238 19.5341 12.238 18.7689C12.238 18.0079 12.8841 17.421 13.6791 17.421C14.4741 17.421 15.114 18.0004 15.114 18.7689C15.114 19.5437 14.4645 20.1072 13.6791 20.1072Z" fill="white"/>
</svg>
