<svg width="28" height="28" viewBox="0 0 28 28" fill="none" xmlns="http://www.w3.org/2000/svg">
<path d="M14.105 26.21C20.7369 26.21 26.2121 20.7273 26.2121 14.105C26.2121 7.47312 20.7273 2 14.0954 2C7.47523 2 2 7.47312 2 14.105C2 20.7273 7.48484 26.21 14.105 26.21Z" fill="black"/>
<path d="M10.7412 19.5209C10.1105 19.5209 9.68508 19.1136 9.68508 18.5298C9.68508 18.1822 9.78492 17.9527 10.0976 17.5313L15.2873 10.4998V10.3902H10.6083C10.013 10.3902 9.60352 10.0381 9.60352 9.44352C9.60352 8.86392 10.0066 8.50861 10.6083 8.50861H17.1658C17.8061 8.50861 18.2411 8.92556 18.2411 9.52649C18.2411 9.90055 18.1657 10.1026 17.8554 10.4982L12.6731 17.5276V17.6394H17.6168C18.2163 17.6394 18.629 17.9872 18.629 18.5818C18.629 19.1593 18.2121 19.5209 17.6168 19.5209H10.7412Z" fill="white"/>
</svg>
