<svg width="28" height="28" viewBox="0 0 28 28" fill="none" xmlns="http://www.w3.org/2000/svg">
<path d="M14.105 26.21C20.7369 26.21 26.2121 20.7273 26.2121 14.105C26.2121 7.47312 20.7273 2 14.0954 2C7.47523 2 2 7.47312 2 14.105C2 20.7273 7.48484 26.21 14.105 26.21ZM14.105 23.8255C8.71085 23.8255 4.39412 19.4991 4.39412 14.105C4.39412 8.71085 8.70124 4.38452 14.0954 4.38452C19.4895 4.38452 23.8276 8.71085 23.8276 14.105C23.8276 19.4991 19.4991 23.8255 14.105 23.8255Z" fill="black"/>
<path d="M11.4356 19.3651H17.3928C17.9499 19.3651 18.335 19.0215 18.335 18.4684C18.335 17.896 17.9541 17.5663 17.3928 17.5663H13.5457V17.4779L16.032 14.8695C17.1446 13.7499 17.8479 12.8284 17.8479 11.5719C17.8479 9.76741 16.3676 8.56484 14.1364 8.56484C12.4048 8.56484 10.9029 9.54945 10.5047 10.8704C10.4515 11.0567 10.4238 11.2163 10.4238 11.3855C10.4238 11.9269 10.8035 12.2494 11.3459 12.2494C11.8289 12.2494 12.0673 11.9726 12.2855 11.6382C12.5935 10.993 13.1375 10.3168 14.1636 10.3168C15.1503 10.3168 15.7979 10.8854 15.7979 11.7462C15.7979 12.5258 15.1557 13.1858 14.4486 13.906L10.8778 17.6134C10.5804 17.8993 10.4803 18.1801 10.4803 18.481C10.4803 19.0173 10.8483 19.3651 11.4356 19.3651Z" fill="black"/>
</svg>
