<svg width="28" height="28" viewBox="0 0 28 28" fill="none" xmlns="http://www.w3.org/2000/svg">
<path d="M6.84421 24.8972H21.0295C23.5685 24.8972 24.8737 23.5919 24.8737 21.0914V6.82921C24.8737 4.32656 23.5685 3.02344 21.0295 3.02344H6.84421C4.31484 3.02344 3 4.31695 3 6.82921V21.0914C3 23.6016 4.31484 24.8972 6.84421 24.8972ZM6.97733 22.6013C5.88772 22.6013 5.29592 22.0371 5.29592 20.8985V7.01999C5.29592 5.88139 5.88772 5.31936 6.97733 5.31936H20.8964C21.9764 5.31936 22.5778 5.88139 22.5778 7.01999V20.8985C22.5778 22.0371 21.9764 22.6013 20.8964 22.6013H6.97733Z" fill="black"/>
<path d="M13.9421 19.4156C16.94 19.4156 19.048 17.182 19.048 13.8584C19.048 10.5272 16.94 8.2915 13.9421 8.2915C10.9517 8.2915 8.84375 10.5272 8.84375 13.8584C8.84375 17.182 10.9517 19.4156 13.9421 19.4156ZM13.9421 17.6522C12.2089 17.6522 11.0551 16.1878 11.0551 13.8584C11.0551 11.5193 12.2089 10.057 13.9421 10.057C15.6732 10.057 16.8271 11.5193 16.8271 13.8584C16.8271 16.1878 15.6732 17.6522 13.9421 17.6522Z" fill="black"/>
</svg>
