<svg width="28" height="28" viewBox="0 0 28 28" fill="none" xmlns="http://www.w3.org/2000/svg">
<path d="M14.105 26.21C20.7369 26.21 26.2121 20.7273 26.2121 14.105C26.2121 7.47312 20.7273 2 14.0954 2C7.47523 2 2 7.47312 2 14.105C2 20.7273 7.48484 26.21 14.105 26.21Z" fill="black"/>
<path d="M9.70117 14.5681C9.70117 12.2952 11.1775 10.7958 13.1339 10.7958C14.0993 10.7958 14.924 11.1657 15.4345 11.7807V9.96851H13.3411C13.0087 9.96851 12.7774 9.73296 12.7774 9.41116C12.7774 9.08726 12.9991 8.8421 13.3411 8.8421H15.4408V8.3703C15.4408 7.83921 15.7961 7.51038 16.3195 7.51038C16.8504 7.51038 17.2057 7.83921 17.2057 8.3703V8.8421H17.958C18.2957 8.8421 18.5196 9.08726 18.5196 9.41116C18.5196 9.73296 18.2861 9.96851 17.958 9.96851H17.2162V17.593C17.2162 18.1353 16.8747 18.4747 16.3579 18.4747C15.8758 18.4747 15.5268 18.1627 15.5058 17.6858L15.5036 17.277C14.9782 17.9621 14.1279 18.3488 13.1456 18.3488C11.1892 18.3488 9.70117 16.8336 9.70117 14.5681ZM11.5277 14.5798C11.5277 15.9041 12.3253 16.7888 13.5014 16.7888C14.6486 16.7888 15.4654 15.856 15.4654 14.5798C15.4654 13.3037 14.6486 12.3687 13.5014 12.3687C12.3253 12.3687 11.5277 13.2535 11.5277 14.5798ZM10.3159 19.6831C10.3159 19.3613 10.5536 19.1141 10.8871 19.1141H17.0074C17.3409 19.1141 17.5786 19.3517 17.5786 19.6831C17.5786 20.0028 17.3313 20.2501 17.0074 20.2501H10.8871C10.5632 20.2501 10.3159 20.0028 10.3159 19.6831Z" fill="white"/>
</svg>
