<svg width="28" height="28" viewBox="0 0 28 28" fill="none" xmlns="http://www.w3.org/2000/svg">
<path d="M14.105 26.21C20.7369 26.21 26.2121 20.7273 26.2121 14.105C26.2121 7.47312 20.7273 2 14.0954 2C7.47523 2 2 7.47312 2 14.105C2 20.7273 7.48484 26.21 14.105 26.21ZM14.105 23.8255C8.71085 23.8255 4.39412 19.4991 4.39412 14.105C4.39412 8.71085 8.70124 4.38452 14.0954 4.38452C19.4895 4.38452 23.8276 8.71085 23.8276 14.105C23.8276 19.4991 19.4991 23.8255 14.105 23.8255Z" fill="black"/>
<path d="M9.18164 14.2545C9.18164 14.5604 9.40758 14.8055 9.72516 14.8055H10.3549V18.9249C10.3549 19.4558 10.6966 19.7921 11.2137 19.7921C11.7307 19.7921 12.0649 19.4558 12.0649 18.9249V14.8055H13.5014L15.5454 19.0123C15.7636 19.5059 16.1339 19.8038 16.7062 19.8038C17.3627 19.8038 17.8031 19.3803 17.8031 18.7238V14.8152H18.4668C18.7748 14.8152 19.0104 14.5604 19.0104 14.2545C19.0104 13.9273 18.7748 13.7014 18.4668 13.7014H17.8031V9.56586C17.8031 9.035 17.4689 8.69867 16.9422 8.69867C16.4273 8.69867 16.0931 9.035 16.0931 9.56586V13.7014H14.662L12.6126 9.48054C12.3944 8.98695 12.0241 8.68906 11.4518 8.68906C10.7953 8.68906 10.3549 9.11258 10.3549 9.75734V13.6918H9.72516C9.41719 13.6918 9.18164 13.9273 9.18164 14.2545ZM12.0564 13.6918V11.5934L13.023 13.6918H12.0564ZM15.1425 14.8152H16.0973V16.9039L15.1425 14.8152Z" fill="black"/>
</svg>
