<svg width="28" height="28" viewBox="0 0 28 28" fill="none" xmlns="http://www.w3.org/2000/svg">
<path d="M6.84421 24.8972H21.0295C23.5685 24.8972 24.8737 23.5919 24.8737 21.0914V6.82921C24.8737 4.32656 23.5685 3.02344 21.0295 3.02344H6.84421C4.31484 3.02344 3 4.31695 3 6.82921V21.0914C3 23.6016 4.31484 24.8972 6.84421 24.8972Z" fill="black"/>
<path d="M8.70164 18.8152C8.22164 18.8152 7.89188 18.5023 7.89188 18.0096C7.89188 17.7171 7.99079 17.482 8.22891 17.212L11.1844 13.748C11.7523 13.0725 12.3387 12.4456 12.3387 11.711C12.3387 10.9153 11.7724 10.3725 10.8893 10.3725C10.1107 10.3725 9.56789 10.782 9.29695 11.5915C9.13922 11.9674 8.92852 12.1898 8.54016 12.1898C8.08032 12.1898 7.79297 11.8812 7.79297 11.4021C7.79297 11.2446 7.82063 11.0977 7.8504 10.9327C8.17102 9.70852 9.42938 8.81555 10.8581 8.81555C12.7334 8.81555 13.9364 9.89672 13.9406 11.5652C13.9427 12.7449 13.3202 13.6036 12.4116 14.6529L10.2902 17.1326V17.2209H13.4397C13.8822 17.2209 14.2026 17.5083 14.2026 18.0042C14.2026 18.4969 13.8822 18.8152 13.4397 18.8152H8.70164ZM18.9719 18.9504C18.4474 18.9504 18.1354 18.6237 18.1354 18.0504V11.0072H18.0651L16.9343 11.872C16.6584 12.1083 16.518 12.1495 16.2787 12.1495C15.8892 12.1495 15.5304 11.8036 15.5304 11.3723C15.5304 11.0243 15.6911 10.7902 15.9911 10.5541L17.6822 9.34453C18.142 8.99461 18.4239 8.87531 18.8414 8.87531C19.4465 8.87531 19.8297 9.28289 19.8297 9.88804V18.0504C19.8297 18.6237 19.5061 18.9504 18.9719 18.9504Z" fill="white"/>
</svg>
