<svg width="28" height="28" viewBox="0 0 28 28" fill="none" xmlns="http://www.w3.org/2000/svg">
<path d="M14.105 26.21C20.7369 26.21 26.2121 20.7273 26.2121 14.105C26.2121 7.47312 20.7273 2 14.0954 2C7.47523 2 2 7.47312 2 14.105C2 20.7273 7.48484 26.21 14.105 26.21ZM14.105 23.8255C8.71085 23.8255 4.39412 19.4991 4.39412 14.105C4.39412 8.71085 8.70124 4.38452 14.0954 4.38452C19.4895 4.38452 23.8276 8.71085 23.8276 14.105C23.8276 19.4991 19.4991 23.8255 14.105 23.8255Z" fill="black"/>
<path d="M9.86719 14.5522C9.86719 16.7262 11.2978 18.1862 13.1733 18.1862C14.1237 18.1862 14.9442 17.8154 15.4442 17.1559L15.4463 17.555C15.4674 18.0022 15.8004 18.3099 16.2602 18.3099C16.7548 18.3099 17.0803 17.9769 17.0803 17.4664V10.1227H17.7945C18.1109 10.1227 18.3326 9.90102 18.3326 9.59095C18.3326 9.28087 18.1205 9.04954 17.7945 9.04954H17.0719V8.58735C17.0719 8.08602 16.7325 7.76141 16.2218 7.76141C15.7207 7.76141 15.3834 8.08602 15.3834 8.58735V9.04954H13.3603C13.0343 9.04954 12.8243 9.28087 12.8243 9.59095C12.8243 9.90102 13.0439 10.1227 13.3603 10.1227H15.3771V11.8796C14.8922 11.2806 14.0951 10.9245 13.1595 10.9245C11.284 10.9245 9.86719 12.3706 9.86719 14.5522ZM11.6055 14.5639C11.6055 13.2866 12.3776 12.4273 13.5164 12.4273C14.6168 12.4273 15.4081 13.3346 15.4081 14.5639C15.4081 15.7986 14.6168 16.6962 13.5164 16.6962C12.3776 16.6962 11.6055 15.8487 11.6055 14.5639ZM10.4543 19.4652C10.4543 19.7731 10.6898 20.0183 11.002 20.0183H16.8832C17.1933 20.0183 17.4309 19.7731 17.4309 19.4652C17.4309 19.1497 17.205 18.9237 16.8832 18.9237H11.002C10.6802 18.9237 10.4543 19.1593 10.4543 19.4652Z" fill="black"/>
</svg>
