<svg width="28" height="28" viewBox="0 0 28 28" fill="none" xmlns="http://www.w3.org/2000/svg">
<path d="M6.84421 24.8972H21.0295C23.5685 24.8972 24.8737 23.5919 24.8737 21.0914V6.82921C24.8737 4.32656 23.5685 3.02344 21.0295 3.02344H6.84421C4.31484 3.02344 3 4.31695 3 6.82921V21.0914C3 23.6016 4.31484 24.8972 6.84421 24.8972ZM6.97733 22.6013C5.88772 22.6013 5.29592 22.0371 5.29592 20.8985V7.01999C5.29592 5.88139 5.88772 5.31936 6.97733 5.31936H20.8964C21.9764 5.31936 22.5778 5.88139 22.5778 7.01999V20.8985C22.5778 22.0371 21.9764 22.6013 20.8964 22.6013H6.97733Z" fill="black"/>
<path d="M10.4789 19.3078C11.1258 19.3078 11.5003 18.9089 11.5003 18.2184V12.0415H11.579L16.3298 18.6799C16.6863 19.1641 16.9481 19.3078 17.3876 19.3078C18.0124 19.3078 18.3998 18.9183 18.3998 18.2445V9.48866C18.3998 8.8078 18.0232 8.39929 17.3763 8.39929C16.7487 8.39929 16.3741 8.82491 16.3741 9.48866V15.7397H16.2954L11.5657 9.04405C11.2019 8.55257 10.9315 8.39929 10.4899 8.39929C9.85875 8.39929 9.48633 8.8303 9.48633 9.48913V18.2184C9.48633 18.8918 9.85125 19.3078 10.4789 19.3078Z" fill="black"/>
</svg>
