<svg width="28" height="28" viewBox="0 0 28 28" fill="none" xmlns="http://www.w3.org/2000/svg">
<path d="M6.84421 24.8972H21.0295C23.5685 24.8972 24.8737 23.5919 24.8737 21.0914V6.82921C24.8737 4.32656 23.5685 3.02344 21.0295 3.02344H6.84421C4.31484 3.02344 3 4.31695 3 6.82921V21.0914C3 23.6016 4.31484 24.8972 6.84421 24.8972Z" fill="black"/>
<path d="M10.0445 19.0891C8.5496 19.0891 7.39437 18.2902 7.04163 17.3498C6.97038 17.1806 6.93945 16.9889 6.93945 16.778C6.93945 16.3373 7.23944 16.0052 7.68241 16.0052C8.00046 16.0052 8.236 16.2063 8.42022 16.5284C8.76124 17.1663 9.37999 17.5746 10.137 17.5746C11.1971 17.5746 11.9223 16.8656 11.9223 15.7139C11.9223 14.7019 11.2569 13.9352 10.3034 13.9352C9.80984 13.9352 9.45898 14.1005 8.99843 14.4823C8.63163 14.7809 8.39843 14.8969 7.98546 14.8969C7.39343 14.8969 7.03999 14.4623 7.07304 13.7925L7.35242 10.1658C7.38968 9.48236 7.81156 9.07244 8.47179 9.07244H12.5054C12.9202 9.07244 13.1842 9.36635 13.1842 9.81213C13.1842 10.2612 12.9064 10.5614 12.5054 10.5614H8.75608L8.54069 13.4454H8.59296C8.94452 12.8988 9.7653 12.5194 10.5528 12.5194C12.3223 12.5194 13.5658 13.8112 13.5658 15.6715C13.5658 17.7745 12.1794 19.0891 10.0445 19.0891ZM18.1907 19.0891C16.1427 19.0891 14.7927 17.2066 14.7927 13.9544C14.7927 10.7023 16.1427 8.8219 18.1907 8.8219C20.2365 8.8219 21.6076 10.7023 21.6076 13.9544C21.6076 17.2066 20.2365 19.0891 18.1907 19.0891ZM18.2012 17.4396C19.2243 17.4396 19.8536 16.1841 19.8536 13.9544C19.8536 11.7249 19.2147 10.4693 18.2012 10.4693C17.1857 10.4693 16.551 11.7249 16.551 13.9544C16.551 16.1841 17.1857 17.4396 18.2012 17.4396Z" fill="white"/>
</svg>
