<svg width="28" height="28" viewBox="0 0 28 28" fill="none" xmlns="http://www.w3.org/2000/svg">
<path d="M6.84421 24.8972H21.0295C23.5685 24.8972 24.8737 23.5919 24.8737 21.0914V6.82921C24.8737 4.32656 23.5685 3.02344 21.0295 3.02344H6.84421C4.31484 3.02344 3 4.31695 3 6.82921V21.0914C3 23.6016 4.31484 24.8972 6.84421 24.8972Z" fill="black"/>
<path d="M10.2465 19.9294C9.76461 19.9294 9.48242 19.5771 9.48242 19.0331V9.22147C9.48242 8.63319 9.78898 8.29688 10.2985 8.29688H11.649C13.4523 8.29688 14.364 9.41649 14.364 11.692C14.364 13.0997 13.8503 14.3262 12.9282 14.8268L14.2344 18.6204C14.2951 18.8121 14.3291 18.9841 14.3291 19.1609C14.3291 19.6141 14.0279 19.9336 13.5789 19.9336C13.2076 19.9336 12.9542 19.7688 12.8232 19.3453L11.4962 15.3518H11.0319V19.0598C11.0319 19.5963 10.7262 19.9294 10.2465 19.9294ZM11.0319 13.68H11.5484C12.4177 13.68 12.789 13.0223 12.789 11.7558C12.789 10.503 12.4177 9.84538 11.5869 9.84538H11.0319V13.68ZM17.0036 19.9411C15.7232 19.9411 14.9106 19.091 14.7742 17.9133C14.7529 17.7823 14.7486 17.6459 14.7486 17.5031C14.7486 16.9973 15.0264 16.6631 15.4989 16.6631C15.95 16.6631 16.1929 16.9718 16.2386 17.4523C16.2929 18.1095 16.5086 18.518 17.0132 18.518C17.4847 18.518 17.7334 18.1788 17.7334 17.5516C17.7334 16.9652 17.4946 16.593 16.9316 16.2977L16.4596 16.042C15.3156 15.4329 14.8468 14.6594 14.8468 13.4897C14.8468 12.0082 15.7075 11.0367 17.0036 11.0367C18.2469 11.0367 18.9838 11.9161 19.1275 13.1105C19.1413 13.2478 19.153 13.3596 19.153 13.5012C19.153 14.0069 18.8816 14.3327 18.4175 14.3327C17.9631 14.3327 17.729 14.0292 17.6896 13.5415C17.6277 12.8639 17.4868 12.4896 16.994 12.4896C16.5779 12.4896 16.3602 12.8426 16.3602 13.4154C16.3602 13.9655 16.615 14.298 17.2173 14.6231L17.6755 14.8746C18.8525 15.5276 19.2786 16.2403 19.2786 17.422C19.2786 18.96 18.3892 19.9411 17.0036 19.9411Z" fill="white"/>
</svg>
