<svg width="28" height="28" viewBox="0 0 28 28" fill="none" xmlns="http://www.w3.org/2000/svg">
<path d="M14.105 26.21C20.7369 26.21 26.2121 20.7273 26.2121 14.105C26.2121 7.47312 20.7273 2 14.0954 2C7.47523 2 2 7.47312 2 14.105C2 20.7273 7.48484 26.21 14.105 26.21Z" fill="black"/>
<path d="M14.0758 19.7265C13.3028 19.7265 12.8861 19.183 12.8861 18.3697V10.4138H10.2154C9.61797 10.4138 9.21484 10.0404 9.21484 9.4566C9.21484 8.85145 9.61797 8.49731 10.2154 8.49731H17.9842C18.5816 8.49731 18.9944 8.85145 18.9944 9.4566C18.9944 10.0404 18.5816 10.4138 17.9842 10.4138H15.2943V18.3697C15.2943 19.2001 14.8637 19.7265 14.0758 19.7265Z" fill="white"/>
</svg>
