<svg width="28" height="28" viewBox="0 0 28 28" fill="none" xmlns="http://www.w3.org/2000/svg">
<path d="M14.105 26.21C20.7369 26.21 26.2121 20.7273 26.2121 14.105C26.2121 7.47312 20.7273 2 14.0954 2C7.47523 2 2 7.47312 2 14.105C2 20.7273 7.48484 26.21 14.105 26.21Z" fill="black"/>
<path d="M11.8848 19.5209C11.1119 19.5209 10.6855 18.9891 10.6855 18.1738V9.69076C10.6855 8.87327 11.1119 8.33398 11.8848 8.33398C12.6728 8.33398 13.1033 8.86038 13.1033 9.69076V17.5813H17.3078C17.9073 17.5813 18.3168 17.9471 18.3168 18.549C18.3168 19.1572 17.9073 19.5209 17.3078 19.5209H11.8848Z" fill="white"/>
</svg>
