<svg width="28" height="28" viewBox="0 0 28 28" fill="none" xmlns="http://www.w3.org/2000/svg">
<path d="M6.84421 24.8972H21.0295C23.5685 24.8972 24.8737 23.5919 24.8737 21.0914V6.82921C24.8737 4.32656 23.5685 3.02344 21.0295 3.02344H6.84421C4.31484 3.02344 3 4.31695 3 6.82921V21.0914C3 23.6016 4.31484 24.8972 6.84421 24.8972ZM6.97733 22.6013C5.88772 22.6013 5.29592 22.0371 5.29592 20.8985V7.01999C5.29592 5.88139 5.88772 5.31936 6.97733 5.31936H20.8964C21.9764 5.31936 22.5778 5.88139 22.5778 7.01999V20.8985C22.5778 22.0371 21.9764 22.6013 20.8964 22.6013H6.97733Z" fill="black"/>
<path d="M11.9862 19.7304C12.5117 19.7304 12.8787 19.3676 12.8787 18.8346V17.8387H15.4637C15.7993 17.8387 16.0114 17.6053 16.0114 17.2781C16.0114 16.9584 15.7993 16.725 15.4637 16.725H12.8787V15.5913H14.7645C16.9442 15.5913 18.3481 14.1551 18.3481 12.1467C18.3481 10.1438 16.9686 8.68829 14.8037 8.68829H11.9851C11.4352 8.68829 11.0959 9.05321 11.0959 9.6211V14.4787H10.077C9.74141 14.4787 9.51758 14.7122 9.51758 15.034C9.51758 15.3558 9.74141 15.5988 10.077 15.5988H11.0959V16.725H10.0866C9.75102 16.725 9.53891 16.9584 9.53891 17.2781C9.53891 17.6053 9.75313 17.8387 10.0866 17.8387H11.0959V18.8346C11.0959 19.3676 11.4629 19.7304 11.9862 19.7304ZM12.8884 14.0684V10.2633H14.4624C15.8349 10.2633 16.5535 10.9981 16.5535 12.1648C16.5535 13.3411 15.8253 14.0876 14.4603 14.0876L12.8884 14.0684Z" fill="black"/>
</svg>
