<svg width="28" height="28" viewBox="0 0 28 28" fill="none" xmlns="http://www.w3.org/2000/svg">
<path d="M6.84421 24.8972H21.0295C23.5685 24.8972 24.8737 23.5919 24.8737 21.0914V6.82921C24.8737 4.32656 23.5685 3.02344 21.0295 3.02344H6.84421C4.31484 3.02344 3 4.31695 3 6.82921V21.0914C3 23.6016 4.31484 24.8972 6.84421 24.8972Z" fill="black"/>
<path d="M10.2244 19.0184C8.64492 19.0184 7.38445 18.0464 7.06898 16.9774C7.02961 16.8187 7.00195 16.6793 7.00195 16.5089C7.00195 16.047 7.34461 15.7359 7.75148 15.7359C8.1082 15.7359 8.3264 15.9213 8.4914 16.2975C8.80687 17.0611 9.40078 17.4792 10.252 17.4792C11.2634 17.4792 11.9728 16.8499 11.9728 16.0242C11.9728 15.1453 11.3231 14.5725 10.3109 14.5725H9.71203C9.25992 14.5725 8.97985 14.2425 8.97985 13.8094C8.97985 13.3324 9.27258 13.0216 9.71203 13.0216H10.2607C11.1267 13.0216 11.7061 12.4458 11.7061 11.6702C11.7061 10.9045 11.1099 10.3894 10.2703 10.3894C9.42656 10.3894 8.90929 10.8054 8.64187 11.569C8.50992 11.943 8.29383 12.1348 7.91578 12.1348C7.48453 12.1348 7.1843 11.8195 7.1843 11.3501C7.1843 11.1893 7.19063 11.0498 7.24055 10.8764C7.54852 9.78772 8.70703 8.86499 10.3034 8.86499C12.1113 8.86499 13.3517 9.9178 13.3517 11.4436C13.3517 12.5297 12.6024 13.4995 11.6346 13.6573V13.7339C12.8006 13.8523 13.6524 14.8582 13.6524 16.1072C13.6524 17.8184 12.2574 19.0184 10.2244 19.0184ZM16.6976 18.9009C16.1942 18.9009 15.7972 18.5454 15.7972 18.0335C15.7972 17.7844 15.8408 17.629 15.9526 17.4225L19.4082 10.6929V10.6055H15.5478C15.0954 10.6055 14.7594 10.3169 14.7594 9.86155C14.7594 9.39655 15.0891 9.09632 15.5478 9.09632H20.1085C20.8512 9.09632 21.2794 9.60303 21.2794 10.2227C21.2794 10.489 21.2283 10.7306 21.061 11.1026L17.5576 18.2316C17.334 18.6977 17.0911 18.9009 16.6976 18.9009Z" fill="white"/>
</svg>
