<svg width="28" height="28" viewBox="0 0 28 28" fill="none" xmlns="http://www.w3.org/2000/svg">
<path d="M14.105 26.21C20.7369 26.21 26.2121 20.7273 26.2121 14.105C26.2121 7.47312 20.7273 2 14.0954 2C7.47523 2 2 7.47312 2 14.105C2 20.7273 7.48484 26.21 14.105 26.21ZM14.105 23.8255C8.71085 23.8255 4.39412 19.4991 4.39412 14.105C4.39412 8.71085 8.70124 4.38452 14.0954 4.38452C19.4895 4.38452 23.8276 8.71085 23.8276 14.105C23.8276 19.4991 19.4991 23.8255 14.105 23.8255Z" fill="black"/>
<path d="M11.679 19.0227C12.1752 19.0227 12.4508 18.6798 12.4508 18.1995V16.9517H13.0025C13.4347 16.9517 13.7052 16.6941 13.7052 16.2502C13.7052 15.7967 13.4347 15.5211 13.0025 15.5211H12.4508V10.3996C12.4508 9.63972 11.9673 9.16394 11.1894 9.16394C10.4485 9.16394 10.0025 9.45128 9.61486 10.1443C8.72329 11.6584 7.65571 13.5495 6.96336 14.8536C6.77258 15.2338 6.69922 15.5337 6.69922 15.8902C6.69922 16.5556 7.11993 16.9559 7.76703 16.9559H10.9189V18.1995C10.9189 18.6702 11.1945 19.0227 11.679 19.0227ZM10.9189 15.5274H8.33867V15.4805C8.95414 14.2618 10.0325 12.3048 10.8666 10.8451H10.9189V15.5274ZM18.1534 19.0419C20.1629 19.0419 21.5321 17.8995 21.5321 16.2341C21.5321 15.0514 20.8023 14.1251 19.6096 13.8673V13.7907C20.6064 13.5188 21.1869 12.7025 21.1869 11.6936C21.1869 10.1954 19.9466 9.16394 18.1726 9.16394C16.3986 9.16394 15.1583 10.1954 15.1583 11.6936C15.1583 12.7025 15.7196 13.4996 16.7357 13.7907V13.8673C15.5333 14.1251 14.8131 15.061 14.8131 16.2437C14.8131 17.9187 16.1535 19.0419 18.1534 19.0419ZM18.1822 17.7071C17.1711 17.7071 16.449 17.0555 16.449 16.1213C16.449 15.2063 17.1711 14.5334 18.1822 14.5334C19.1954 14.5334 19.8983 15.1967 19.8983 16.1213C19.8983 17.0555 19.1741 17.7071 18.1822 17.7071ZM18.1726 13.2481C17.345 13.2481 16.7584 12.6573 16.7584 11.8532C16.7584 11.0469 17.3375 10.4924 18.1726 10.4924C18.9981 10.4924 19.5772 11.0469 19.5772 11.8532C19.5772 12.6573 19.0002 13.2481 18.1726 13.2481Z" fill="black"/>
</svg>
