<svg width="28" height="28" viewBox="0 0 28 28" fill="none" xmlns="http://www.w3.org/2000/svg">
<path d="M6.84421 24.8972H21.0295C23.5685 24.8972 24.8737 23.5919 24.8737 21.0914V6.82921C24.8737 4.32656 23.5685 3.02344 21.0295 3.02344H6.84421C4.31484 3.02344 3 4.31695 3 6.82921V21.0914C3 23.6016 4.31484 24.8972 6.84421 24.8972Z" fill="black"/>
<path d="M9.91078 19.0774C8.30273 19.0774 7.01578 18.0949 6.70781 17.0154C6.65882 16.8525 6.63867 16.7109 6.63867 16.5384C6.63867 16.068 6.97804 15.7507 7.39335 15.7507C7.7639 15.7507 7.98843 15.9403 8.14382 16.3207C8.4635 17.0885 9.08085 17.5088 9.92671 17.5088C10.954 17.5088 11.6559 16.8752 11.6559 16.0474C11.6559 15.1643 11.0041 14.5873 9.97382 14.5873H9.3846C8.91445 14.5873 8.63765 14.2509 8.63765 13.8094C8.63765 13.3219 8.92921 13.0069 9.3846 13.0069H9.93539C10.7981 13.0069 11.3871 12.4247 11.3871 11.647C11.3871 10.8771 10.7888 10.3598 9.93328 10.3598C9.10663 10.3598 8.57554 10.7758 8.30601 11.5457C8.16023 11.924 7.94952 12.1179 7.56726 12.1179C7.12757 12.1179 6.82312 11.7984 6.82312 11.3205C6.82312 11.1576 6.82945 11.014 6.88148 10.8384C7.19367 9.7413 8.36273 8.80591 9.97054 8.80591C11.7996 8.80591 13.0546 9.86927 13.0546 11.4161C13.0546 12.5107 12.2991 13.4932 11.3304 13.653V13.7318C12.5091 13.8502 13.3575 14.8687 13.3575 16.1325C13.3575 17.8627 11.9477 19.0774 9.91078 19.0774ZM18.1239 19.0774C16.5063 19.0774 15.2332 18.0949 14.921 17.0154C14.872 16.8525 14.8561 16.7109 14.8561 16.5384C14.8561 16.068 15.1954 15.7507 15.6065 15.7507C15.9792 15.7507 16.2016 15.9403 16.3591 16.3207C16.6788 17.0885 17.2886 17.5088 18.142 17.5088C19.1575 17.5088 19.8595 16.8752 19.8595 16.0474C19.8595 15.1643 19.2173 14.5873 18.1912 14.5873H17.5924C17.1297 14.5873 16.8454 14.2509 16.8454 13.8094C16.8454 13.3219 17.1424 13.0069 17.5924 13.0069H18.1507C19.0113 13.0069 19.5928 12.4247 19.5928 11.647C19.5928 10.8771 19.004 10.3598 18.1486 10.3598C17.3102 10.3598 16.7833 10.7758 16.5117 11.5457C16.3755 11.924 16.1573 12.1179 15.7708 12.1179C15.3311 12.1179 15.0267 11.7984 15.0267 11.3205C15.0267 11.1576 15.0372 11.014 15.085 10.8384C15.3993 9.7413 16.5705 8.80591 18.1837 8.80591C20.017 8.80591 21.2721 9.86927 21.2721 11.4161C21.2721 12.5107 20.5143 13.4932 19.5382 13.653V13.7318C20.7222 13.8502 21.5749 14.8687 21.5749 16.1325C21.5749 17.8627 20.1609 19.0774 18.1239 19.0774Z" fill="white"/>
</svg>
