<svg width="28" height="28" viewBox="0 0 28 28" fill="none" xmlns="http://www.w3.org/2000/svg">
<path d="M6.84421 24.8972H21.0295C23.5685 24.8972 24.8737 23.5919 24.8737 21.0914V6.82921C24.8737 4.32656 23.5685 3.02344 21.0295 3.02344H6.84421C4.31484 3.02344 3 4.31695 3 6.82921V21.0914C3 23.6016 4.31484 24.8972 6.84421 24.8972ZM6.97733 22.6013C5.88772 22.6013 5.29592 22.0371 5.29592 20.8985V7.01999C5.29592 5.88139 5.88772 5.31936 6.97733 5.31936H20.8964C21.9764 5.31936 22.5778 5.88139 22.5778 7.01999V20.8985C22.5778 22.0371 21.9764 22.6013 20.8964 22.6013H6.97733Z" fill="black"/>
<path d="M10.0614 18.8817C12.0346 18.8817 13.3816 17.7202 13.3816 16.0495C13.3816 14.839 12.5704 13.8523 11.4332 13.7435V13.6669C12.3625 13.5091 13.0905 12.5682 13.0905 11.513C13.0905 10.0257 11.8811 9.00378 10.1308 9.00378C8.575 9.00378 7.44531 9.89558 7.14695 10.9554C7.10664 11.1289 7.0907 11.2587 7.0907 11.4195C7.0907 11.8793 7.37922 12.1828 7.81258 12.1828C8.18101 12.1828 8.37789 11.9911 8.50984 11.6288C8.76765 10.8844 9.28281 10.478 10.0977 10.478C10.918 10.478 11.4951 10.9835 11.4951 11.7279C11.4951 12.4843 10.9253 13.0505 10.0881 13.0505H9.55867C9.11922 13.0505 8.8382 13.3516 8.8382 13.8094C8.8382 14.2329 9.10656 14.5533 9.55867 14.5533H10.1287C11.1313 14.5533 11.7522 15.1165 11.7522 15.9645C11.7522 16.7709 11.0716 17.3906 10.0795 17.3906C9.25703 17.3906 8.67484 16.9821 8.36687 16.2377C8.21359 15.8733 7.99539 15.6858 7.64828 15.6858C7.2414 15.6858 6.91797 15.9893 6.91797 16.4395C6.91797 16.6099 6.93601 16.7398 6.985 16.8984C7.28125 17.9386 8.52039 18.8817 10.0614 18.8817ZM17.6709 18.8817C19.9628 18.8817 21.1956 17.0512 21.1956 13.6251C21.1956 10.654 19.987 9.00378 17.7977 9.00378C15.8711 9.00378 14.5989 10.2943 14.5989 12.3293C14.5989 14.269 15.8856 15.3855 17.4018 15.3855C18.5927 15.3855 19.3206 14.749 19.6202 13.969H19.6863C19.7034 16.069 18.917 17.4202 17.6453 17.4202C17.0289 17.4202 16.5606 17.1129 16.2941 16.65C16.0898 16.3282 15.8448 16.2014 15.5465 16.2014C15.1431 16.2014 14.8642 16.5037 14.8642 16.9329C14.8642 17.0691 14.9132 17.2416 14.9749 17.4012C15.1792 18.033 16.1106 18.8817 17.6709 18.8817ZM17.8734 14.0688C16.8782 14.0688 16.2116 13.3148 16.2116 12.2485C16.2116 11.1319 16.8686 10.3971 17.883 10.3971C18.8535 10.3971 19.551 11.1682 19.551 12.2677C19.551 13.3148 18.8631 14.0688 17.8734 14.0688Z" fill="black"/>
</svg>
