<svg width="28" height="28" viewBox="0 0 28 28" fill="none" xmlns="http://www.w3.org/2000/svg">
<path d="M6.84421 24.8972H21.0295C23.5685 24.8972 24.8737 23.5919 24.8737 21.0914V6.82921C24.8737 4.32656 23.5685 3.02344 21.0295 3.02344H6.84421C4.31484 3.02344 3 4.31695 3 6.82921V21.0914C3 23.6016 4.31484 24.8972 6.84421 24.8972ZM6.97733 22.6013C5.88772 22.6013 5.29592 22.0371 5.29592 20.8985V7.01999C5.29592 5.88139 5.88772 5.31936 6.97733 5.31936H20.8964C21.9764 5.31936 22.5778 5.88139 22.5778 7.01999V20.8985C22.5778 22.0371 21.9764 22.6013 20.8964 22.6013H6.97733Z" fill="black"/>
<path d="M11.5306 18.8625C12.0363 18.8625 12.312 18.5196 12.312 18.0394V16.7916H12.8562C13.2884 16.7916 13.5567 16.534 13.5567 16.0901C13.5567 15.6366 13.2884 15.3609 12.8562 15.3609H12.312V10.2394C12.312 9.47956 11.8188 9.00378 11.0527 9.00378C10.3097 9.00378 9.86579 9.29112 9.46853 9.98417C8.58657 11.4982 7.51899 13.3894 6.81703 14.6934C6.63375 15.0736 6.55078 15.3736 6.55078 15.7301C6.55078 16.3955 6.97359 16.7958 7.6282 16.7958H10.7822V18.0394C10.7822 18.51 11.0461 18.8625 11.5306 18.8625ZM10.7822 15.3673H8.20195V15.3204C8.81531 14.1016 9.88406 12.1446 10.7182 10.685H10.7822V15.3673ZM17.7666 18.8817C20.0606 18.8817 21.3031 17.0512 21.3031 13.6251C21.3031 10.654 20.0923 9.00378 17.8955 9.00378C15.9689 9.00378 14.6946 10.2943 14.6946 12.3293C14.6946 14.269 15.993 15.3855 17.4996 15.3855C18.698 15.3855 19.4281 14.749 19.718 13.969H19.7841C19.8012 16.069 19.0245 17.4202 17.7431 17.4202C17.1363 17.4202 16.6584 17.1129 16.3919 16.65C16.1876 16.3282 15.9523 16.2014 15.6518 16.2014C15.2484 16.2014 14.9716 16.5037 14.9716 16.9329C14.9716 17.0691 15.0206 17.2416 15.0823 17.4012C15.2866 18.033 16.2084 18.8817 17.7666 18.8817ZM17.9808 14.0688C16.9856 14.0688 16.3094 13.3148 16.3094 12.2485C16.3094 11.1319 16.976 10.3971 17.9808 10.3971C18.9513 10.3971 19.6467 11.1682 19.6467 12.2677C19.6467 13.3148 18.9609 14.0688 17.9808 14.0688Z" fill="black"/>
</svg>
