<svg width="28" height="28" viewBox="0 0 28 28" fill="none" xmlns="http://www.w3.org/2000/svg">
<path d="M6.84421 24.8972H21.0295C23.5685 24.8972 24.8737 23.5919 24.8737 21.0914V6.82921C24.8737 4.32656 23.5685 3.02344 21.0295 3.02344H6.84421C4.31484 3.02344 3 4.31695 3 6.82921V21.0914C3 23.6016 4.31484 24.8972 6.84421 24.8972Z" fill="black"/>
<path d="M10.7769 19.0774C8.72892 19.0774 7.37891 17.1949 7.37891 13.9427C7.37891 10.6905 8.72892 8.80594 10.7769 8.80594C12.8227 8.80594 14.1917 10.6905 14.1917 13.9427C14.1917 17.1949 12.8227 19.0774 10.7769 19.0774ZM10.7832 17.4279C11.8105 17.4279 12.4356 16.1723 12.4356 13.9427C12.4356 11.7131 11.8009 10.4576 10.7832 10.4576C9.76977 10.4576 9.13297 11.7131 9.13297 13.9427C9.13297 16.1723 9.76977 17.4279 10.7832 17.4279ZM19.0578 18.9504C18.5429 18.9504 18.231 18.6141 18.231 18.0504V10.9976H18.1606L17.0298 11.8624C16.7443 12.1083 16.6039 12.1495 16.3604 12.1495C15.9751 12.1495 15.6163 11.8036 15.6163 11.3723C15.6163 11.0243 15.7867 10.7805 16.0749 10.5541L17.7777 9.34453C18.2375 8.99461 18.5195 8.87531 18.9273 8.87531C19.542 8.87531 19.9231 9.28289 19.9231 9.88804V18.0504C19.9231 18.6141 19.6016 18.9504 19.0578 18.9504Z" fill="white"/>
</svg>
