<svg width="28" height="28" viewBox="0 0 28 28" fill="none" xmlns="http://www.w3.org/2000/svg">
<path d="M14.105 26.21C20.7369 26.21 26.2121 20.7273 26.2121 14.105C26.2121 7.47312 20.7273 2 14.0954 2C7.47523 2 2 7.47312 2 14.105C2 20.7273 7.48484 26.21 14.105 26.21ZM14.105 23.8255C8.71085 23.8255 4.39412 19.4991 4.39412 14.105C4.39412 8.71085 8.70124 4.38452 14.0954 4.38452C19.4895 4.38452 23.8276 8.71085 23.8276 14.105C23.8276 19.4991 19.4991 23.8255 14.105 23.8255Z" fill="black"/>
<path d="M14.0978 16.054C14.7224 16.054 15.0948 15.6996 15.1129 15.0227L15.295 9.32251C15.3172 8.64259 14.7979 8.15088 14.0861 8.15088C13.3647 8.15088 12.8645 8.63298 12.8868 9.3129L13.0497 15.0269C13.0698 15.69 13.4422 16.054 14.0978 16.054ZM14.0978 19.9364C14.8396 19.9364 15.4593 19.391 15.4593 18.6522C15.4593 17.9156 14.8492 17.366 14.0978 17.366C13.3368 17.366 12.7246 17.9231 12.7246 18.6522C12.7246 19.3814 13.3485 19.9364 14.0978 19.9364Z" fill="black"/>
</svg>
