<svg width="28" height="28" viewBox="0 0 28 28" fill="none" xmlns="http://www.w3.org/2000/svg">
<path d="M6.84421 24.8972H21.0295C23.5685 24.8972 24.8737 23.5919 24.8737 21.0914V6.82921C24.8737 4.32656 23.5685 3.02344 21.0295 3.02344H6.84421C4.31484 3.02344 3 4.31695 3 6.82921V21.0914C3 23.6016 4.31484 24.8972 6.84421 24.8972ZM6.97733 22.6013C5.88772 22.6013 5.29592 22.0371 5.29592 20.8985V7.01999C5.29592 5.88139 5.88772 5.31936 6.97733 5.31936H20.8964C21.9764 5.31936 22.5778 5.88139 22.5778 7.01999V20.8985C22.5778 22.0371 21.9764 22.6013 20.8964 22.6013H6.97733Z" fill="black"/>
<path d="M8.08711 18.6312H12.656C13.088 18.6312 13.3946 18.3267 13.3946 17.8542C13.3946 17.3784 13.088 17.1049 12.656 17.1049H9.60234V17.0208L11.663 14.621C12.5302 13.6153 13.1367 12.7884 13.1346 11.6503C13.1304 10.0509 11.9806 9.00372 10.1766 9.00372C8.80313 9.00372 7.58836 9.86481 7.28156 11.0454C7.2518 11.2083 7.21875 11.3435 7.21875 11.4968C7.21875 11.9461 7.48805 12.2505 7.92984 12.2505C8.30976 12.2505 8.50664 12.0323 8.65476 11.6723C8.91609 10.8862 9.45469 10.4906 10.2099 10.4906C11.0482 10.4906 11.6124 11.0196 11.6124 11.7918C11.6124 12.5029 11.0377 13.1044 10.4953 13.7501L7.64203 17.1002C7.41024 17.3543 7.32516 17.5852 7.32516 17.8596C7.32516 18.3321 7.63688 18.6312 8.08711 18.6312ZM17.6564 18.8817C19.9484 18.8817 21.1908 17.0512 21.1908 13.6251C21.1908 10.654 19.98 9.00372 17.7832 9.00372C15.8567 9.00372 14.5824 10.2942 14.5824 12.3293C14.5824 14.269 15.8712 15.3855 17.3874 15.3855C18.5857 15.3855 19.3158 14.749 19.6057 13.969H19.6718C19.6889 16.069 18.9122 17.4202 17.6309 17.4202C17.0241 17.4202 16.5462 17.1129 16.2797 16.65C16.0753 16.3282 15.84 16.2014 15.5396 16.2014C15.1383 16.2014 14.8594 16.5037 14.8594 16.9329C14.8594 17.0691 14.8988 17.2416 14.9604 17.4012C15.1744 18.033 16.0962 18.8817 17.6564 18.8817ZM17.8685 14.0688C16.8734 14.0688 16.1972 13.3148 16.1972 12.2484C16.1972 11.1318 16.8542 10.3971 17.8685 10.3971C18.8391 10.3971 19.5345 11.1682 19.5345 12.2676C19.5345 13.3148 18.8487 14.0688 17.8685 14.0688Z" fill="black"/>
</svg>
