<svg width="28" height="28" viewBox="0 0 28 28" fill="none" xmlns="http://www.w3.org/2000/svg">
<path d="M6.84421 24.8972H21.0295C23.5685 24.8972 24.8737 23.5919 24.8737 21.0914V6.82921C24.8737 4.32656 23.5685 3.02344 21.0295 3.02344H6.84421C4.31484 3.02344 3 4.31695 3 6.82921V21.0914C3 23.6016 4.31484 24.8972 6.84421 24.8972Z" fill="black"/>
<path d="M11.1147 19.38C10.2822 19.38 9.80664 18.9002 9.80664 18.0656V9.65109C9.80664 8.79938 10.2843 8.32922 11.1147 8.32922H14.7203C16.8198 8.32922 18.1675 9.38719 18.1675 11.0555C18.1675 12.2709 17.3975 13.2105 16.1748 13.4866V13.5675C17.7972 13.7688 18.789 14.798 18.789 16.2914C18.789 18.1666 17.1845 19.38 14.7432 19.38H11.1147ZM12.0255 12.9546H13.6984C15.1637 12.9546 15.9625 12.3916 15.9625 11.415C15.9625 10.497 15.2844 9.93187 14.1606 9.93187H12.0255V12.9546ZM12.0233 17.7415H13.8243C15.6311 17.7415 16.4746 17.2202 16.4746 16.1081C16.4746 15.0429 15.6866 14.4234 14.3324 14.4234H12.0233V17.7415Z" fill="white"/>
</svg>
