<svg width="28" height="28" viewBox="0 0 28 28" fill="none" xmlns="http://www.w3.org/2000/svg">
<path d="M6.84421 24.8972H21.0295C23.5685 24.8972 24.8737 23.5919 24.8737 21.0914V6.82921C24.8737 4.32656 23.5685 3.02344 21.0295 3.02344H6.84421C4.31484 3.02344 3 4.31695 3 6.82921V21.0914C3 23.6016 4.31484 24.8972 6.84421 24.8972ZM6.97733 22.6013C5.88772 22.6013 5.29592 22.0371 5.29592 20.8985V7.01999C5.29592 5.88139 5.88772 5.31936 6.97733 5.31936H20.8964C21.9764 5.31936 22.5778 5.88139 22.5778 7.01999V20.8985C22.5778 22.0371 21.9764 22.6013 20.8964 22.6013H6.97733Z" fill="black"/>
<path d="M13.943 19.4156C16.7063 19.4156 18.5736 17.8378 18.5736 15.4106V9.63116C18.5736 8.85679 18.1726 8.39929 17.4556 8.39929C16.7696 8.39929 16.359 8.8589 16.359 9.63116V15.2032C16.359 16.6645 15.4044 17.5966 13.943 17.5966C12.4817 17.5966 11.5175 16.6645 11.5175 15.2032V9.63116C11.5175 8.8589 11.1165 8.39929 10.4113 8.39929C9.71352 8.39929 9.3125 8.85679 9.3125 9.63116V15.4106C9.3125 17.8378 11.1798 19.4156 13.943 19.4156Z" fill="black"/>
</svg>
