<svg width="28" height="28" viewBox="0 0 28 28" fill="none" xmlns="http://www.w3.org/2000/svg">
<path d="M6.84421 24.8972H21.0295C23.5685 24.8972 24.8737 23.5919 24.8737 21.0914V6.82921C24.8737 4.32656 23.5685 3.02344 21.0295 3.02344H6.84421C4.31484 3.02344 3 4.31695 3 6.82921V21.0914C3 23.6016 4.31484 24.8972 6.84421 24.8972Z" fill="black"/>
<path d="M14.0039 19.6838C10.7689 19.6838 8.69727 17.4137 8.69727 13.8585C8.69727 10.3128 10.7689 8.02551 13.9655 8.02551C16.2443 8.02551 17.8878 9.11161 18.4737 10.6172C18.5642 10.8291 18.6035 11.0068 18.6035 11.2367C18.6035 11.8156 18.2227 12.1817 17.6142 12.1817C17.1148 12.1817 16.8509 11.9562 16.6285 11.5482C16.1625 10.4909 15.2717 9.89792 14.0239 9.89792C12.2326 9.89792 11.0499 11.4875 11.0499 13.8585C11.0499 16.2474 12.2464 17.8485 14.0527 17.8485C15.7196 17.8485 16.5928 16.9677 16.5928 15.6688V14.9921H14.6836C14.1624 14.9921 13.857 14.645 13.857 14.2046C13.857 13.7375 14.1603 13.415 14.6836 13.415H17.6977C18.435 13.415 18.8576 13.8418 18.8576 14.5984V15.3645C18.8576 17.8871 17.0365 19.6838 14.0039 19.6838Z" fill="white"/>
</svg>
