<svg width="28" height="28" viewBox="0 0 28 28" fill="none" xmlns="http://www.w3.org/2000/svg">
<path d="M6.84421 24.8972H21.0295C23.5685 24.8972 24.8737 23.5919 24.8737 21.0914V6.82921C24.8737 4.32656 23.5685 3.02344 21.0295 3.02344H6.84421C4.31484 3.02344 3 4.31695 3 6.82921V21.0914C3 23.6016 4.31484 24.8972 6.84421 24.8972Z" fill="black"/>
<path d="M9.17383 13.984C9.17383 13.6451 9.4211 13.4074 9.74079 13.4074H10.5046V9.25849C10.5046 8.66389 10.878 8.30553 11.4428 8.30553C12.0001 8.30553 12.366 8.66389 12.366 9.25849V13.399H12.8282L16.4786 8.75529C16.7085 8.43396 16.9764 8.29053 17.2529 8.29053C17.7571 8.29053 18.1241 8.64701 18.1241 9.12466C18.1241 9.30232 18.0454 9.53318 17.8942 9.71833L14.9244 13.4074H17.855C18.1939 13.4074 18.422 13.6451 18.422 13.984C18.422 14.3058 18.1939 14.5723 17.855 14.5723H14.9171L17.9038 18.3387C18.0538 18.5461 18.1506 18.8002 18.1506 18.9947C18.1506 19.4829 17.7601 19.8478 17.2433 19.8478C16.9553 19.8478 16.6747 19.6938 16.449 19.3716L12.8495 14.6187H12.366V18.8927C12.366 19.4777 11.9905 19.8478 11.4428 19.8478C10.8876 19.8478 10.5046 19.4777 10.5046 18.8927V14.5723H9.74079C9.4211 14.5723 9.17383 14.3058 9.17383 13.984Z" fill="white"/>
</svg>
