<svg width="28" height="28" viewBox="0 0 28 28" fill="none" xmlns="http://www.w3.org/2000/svg">
<path d="M6.84421 24.8972H21.0295C23.5685 24.8972 24.8737 23.5919 24.8737 21.0914V6.82921C24.8737 4.32656 23.5685 3.02344 21.0295 3.02344H6.84421C4.31484 3.02344 3 4.31695 3 6.82921V21.0914C3 23.6016 4.31484 24.8972 6.84421 24.8972ZM6.97733 22.6013C5.88772 22.6013 5.29592 22.0371 5.29592 20.8985V7.01999C5.29592 5.88139 5.88772 5.31936 6.97733 5.31936H20.8964C21.9764 5.31936 22.5778 5.88139 22.5778 7.01999V20.8985C22.5778 22.0371 21.9764 22.6013 20.8964 22.6013H6.97733Z" fill="black"/>
<path d="M10.8728 18.7643C11.3772 18.7643 11.6849 18.4439 11.6849 17.9046V10.0338C11.6849 9.45302 11.3177 9.06138 10.7486 9.06138C10.345 9.06138 10.0811 9.18067 9.63719 9.51255L7.99726 10.6786C7.71531 10.9008 7.55664 11.1307 7.55664 11.4607C7.55664 11.8781 7.90914 12.2081 8.28062 12.2081C8.50609 12.2081 8.63476 12.1668 8.90429 11.9369L10.0042 11.0955H10.0703V17.9046C10.0703 18.4439 10.3781 18.7643 10.8728 18.7643ZM16.6577 18.8817C18.6192 18.8817 19.9779 17.7202 19.9779 16.0495C19.9779 14.839 19.155 13.8523 18.0178 13.7435V13.6669C18.9567 13.5091 19.6868 12.5681 19.6868 11.5129C19.6868 10.0256 18.4753 9.00372 16.7154 9.00372C15.1692 9.00372 14.0395 9.89552 13.7411 10.9554C13.6933 11.1288 13.6849 11.2586 13.6849 11.4194C13.6849 11.8793 13.9755 12.1828 14.3971 12.1828C14.7656 12.1828 14.9721 11.9911 15.104 11.6287C15.3618 10.8843 15.8674 10.4779 16.6823 10.4779C17.5122 10.4779 18.0893 10.9835 18.0893 11.7279C18.0893 12.4842 17.5195 13.0505 16.6748 13.0505H16.1453C15.7134 13.0505 15.4324 13.3516 15.4324 13.8094C15.4324 14.2329 15.7029 14.5533 16.1453 14.5533H16.7229C17.7159 14.5533 18.3464 15.1165 18.3464 15.9645C18.3464 16.7709 17.6657 17.3906 16.6736 17.3906C15.8437 17.3906 15.2594 16.9821 14.9535 16.2377C14.7982 15.8733 14.5896 15.6858 14.2328 15.6858C13.8356 15.6858 13.5046 15.9893 13.5046 16.4395C13.5046 16.6099 13.5302 16.7398 13.5792 16.8984C13.8754 17.9386 15.1071 18.8817 16.6577 18.8817Z" fill="black"/>
</svg>
