<svg width="28" height="28" viewBox="0 0 28 28" fill="none" xmlns="http://www.w3.org/2000/svg">
<path d="M14.105 26.21C20.7369 26.21 26.2121 20.7273 26.2121 14.105C26.2121 7.47312 20.7273 2 14.0954 2C7.47523 2 2 7.47312 2 14.105C2 20.7273 7.48484 26.21 14.105 26.21Z" fill="black"/>
<path d="M10.6523 18.6177V9.89866C10.6523 9.25507 11.0749 8.83788 11.7005 8.83788H12.2496V7.91445C12.2496 7.58304 12.4777 7.35499 12.7973 7.35499C13.117 7.35499 13.3472 7.58304 13.3472 7.91445V8.83788H14.1152V7.91445C14.1152 7.58304 14.355 7.35499 14.663 7.35499C14.9806 7.35499 15.2203 7.58304 15.2203 7.91445V8.87632C16.8802 9.07695 17.9163 10.1253 17.9163 11.6101C17.9163 12.5977 17.3166 13.5109 16.4409 13.9264C17.6353 14.2855 18.4268 15.2762 18.4268 16.5645C18.4268 18.3146 17.231 19.4544 15.2203 19.6316V20.5946C15.2203 20.9239 14.9827 21.1541 14.663 21.1541C14.355 21.1541 14.1152 20.9239 14.1152 20.5946V19.6604H13.3472V20.5946C13.3472 20.9239 13.1191 21.1541 12.7973 21.1541C12.4777 21.1541 12.2496 20.9239 12.2496 20.5946V19.6604H11.6984C11.0611 19.6604 10.6523 19.2474 10.6523 18.6177ZM12.454 18.1206L14.4073 18.1109C15.8564 18.1013 16.6146 17.548 16.6146 16.468C16.6146 15.3793 15.8276 14.828 14.3016 14.828H12.454V18.1206ZM12.454 13.3367L14.0095 13.3463C15.3682 13.3559 16.1189 12.793 16.1189 11.7905C16.1189 10.8725 15.4493 10.3639 14.2891 10.3639H12.454V13.3367Z" fill="white"/>
</svg>
