<svg width="28" height="28" viewBox="0 0 28 28" fill="none" xmlns="http://www.w3.org/2000/svg">
<path d="M6.84421 24.8972H21.0295C23.5685 24.8972 24.8737 23.5919 24.8737 21.0914V6.82921C24.8737 4.32656 23.5685 3.02344 21.0295 3.02344H6.84421C4.31484 3.02344 3 4.31695 3 6.82921V21.0914C3 23.6016 4.31484 24.8972 6.84421 24.8972Z" fill="black"/>
<path d="M14.0676 19.6987C12.54 19.6987 11.1862 19.1325 10.3863 17.8266C9.86344 16.9905 9.56836 15.7751 9.56836 14.1405C9.56836 10.1852 11.3927 8.18671 14.3702 8.18671C15.9478 8.18671 17.2729 8.92125 17.6934 9.80765C17.789 10.0066 17.8411 10.2002 17.8411 10.4311C17.8411 10.9183 17.4665 11.2535 16.9753 11.2535C16.5091 11.2535 16.2536 11.0405 15.8711 10.6875C15.5238 10.3078 15.0909 9.97405 14.3083 9.97405C12.7741 9.97405 11.7483 11.4232 11.7483 13.6491C11.7483 13.7095 11.7504 13.77 11.7546 13.8518C11.7801 13.8518 11.8216 13.8518 11.8568 13.8518C12.2583 13.0024 13.2201 12.2412 14.7424 12.2412C16.6736 12.2412 18.3489 13.5323 18.3489 15.7723C18.3489 18.2512 16.5937 19.6987 14.0676 19.6987ZM13.9645 17.982C15.2411 17.982 16.0687 17.133 16.0687 15.8564C16.0687 14.6374 15.2102 13.7885 13.9741 13.7885C12.7434 13.7885 11.8657 14.647 11.8657 15.8447C11.8657 17.085 12.753 17.982 13.9645 17.982Z" fill="white"/>
</svg>
