<svg width="28" height="28" viewBox="0 0 28 28" fill="none" xmlns="http://www.w3.org/2000/svg">
<path d="M6.84421 24.8972H21.0295C23.5685 24.8972 24.8737 23.5919 24.8737 21.0914V6.82921C24.8737 4.32656 23.5685 3.02344 21.0295 3.02344H6.84421C4.31484 3.02344 3 4.31695 3 6.82921V21.0914C3 23.6016 4.31484 24.8972 6.84421 24.8972ZM6.97733 22.6013C5.88772 22.6013 5.29592 22.0371 5.29592 20.8985V7.01999C5.29592 5.88139 5.88772 5.31936 6.97733 5.31936H20.8964C21.9764 5.31936 22.5778 5.88139 22.5778 7.01999V20.8985C22.5778 22.0371 21.9764 22.6013 20.8964 22.6013H6.97733Z" fill="black"/>
<path d="M10.5429 18.7643C11.0473 18.7643 11.355 18.4439 11.355 17.9046V10.0338C11.355 9.45302 10.9973 9.06138 10.4187 9.06138C10.0151 9.06138 9.75867 9.18067 9.30727 9.51255L7.66734 10.6786C7.38539 10.9008 7.23633 11.1307 7.23633 11.4607C7.23633 11.8781 7.57922 12.2081 7.94859 12.2081C8.17617 12.2081 8.31234 12.1668 8.58398 11.9369L9.68391 11.0955H9.74039V17.9046C9.74039 18.4439 10.046 18.7643 10.5429 18.7643ZM16.796 18.8817C19.0901 18.8817 20.3325 17.0512 20.3325 13.6251C20.3325 10.654 19.1217 9.00372 16.9249 9.00372C14.9984 9.00372 13.7241 10.2942 13.7241 12.3293C13.7241 14.269 15.0129 15.3855 16.5291 15.3855C17.7178 15.3855 18.4575 14.749 18.7474 13.969H18.8135C18.8306 16.069 18.0539 17.4202 16.7726 17.4202C16.1658 17.4202 15.6879 17.1129 15.4214 16.65C15.217 16.3282 14.9817 16.2014 14.6812 16.2014C14.2779 16.2014 14.0011 16.5037 14.0011 16.9329C14.0011 17.0691 14.0405 17.2416 14.1021 17.4012C14.3065 18.033 15.2379 18.8817 16.796 18.8817ZM17.0006 14.0688C16.0151 14.0688 15.3389 13.3148 15.3389 12.2484C15.3389 11.1318 15.9958 10.3971 17.0102 10.3971C17.9808 10.3971 18.6762 11.1682 18.6762 12.2676C18.6762 13.3148 17.9904 14.0688 17.0006 14.0688Z" fill="black"/>
</svg>
