<svg width="28" height="28" viewBox="0 0 28 28" fill="none" xmlns="http://www.w3.org/2000/svg">
<path d="M14.105 26.21C20.7369 26.21 26.2121 20.7273 26.2121 14.105C26.2121 7.47312 20.7273 2 14.0954 2C7.47523 2 2 7.47312 2 14.105C2 20.7273 7.48484 26.21 14.105 26.21Z" fill="black"/>
<path d="M11.3433 19.5788C10.722 19.5788 10.3359 19.213 10.3359 18.6448C10.3359 18.3376 10.4477 18.0388 10.7536 17.7369L14.4583 13.9018C15.1973 13.1518 15.8629 12.4662 15.8629 11.6633C15.8629 10.7769 15.194 10.1869 14.1722 10.1869C13.1205 10.1869 12.5531 10.8866 12.2313 11.5477C12.011 11.896 11.7567 12.1887 11.2535 12.1887C10.6751 12.1887 10.2773 11.8482 10.2773 11.2845C10.2773 11.1036 10.3071 10.9377 10.372 10.7396C10.7862 9.37085 12.3497 8.34687 14.1471 8.34687C16.4718 8.34687 18.0138 9.60687 18.0138 11.473C18.0138 12.7826 17.2828 13.7478 16.1224 14.9014L13.5637 17.6014V17.6898H17.53C18.1275 17.6898 18.5285 18.0355 18.5285 18.6322C18.5285 19.2172 18.1232 19.5788 17.53 19.5788H11.3433Z" fill="white"/>
</svg>
