<svg width="28" height="28" viewBox="0 0 28 28" fill="none" xmlns="http://www.w3.org/2000/svg">
<path d="M14.105 26.21C20.7369 26.21 26.2121 20.7273 26.2121 14.105C26.2121 7.47312 20.7273 2 14.0954 2C7.47523 2 2 7.47312 2 14.105C2 20.7273 7.48484 26.21 14.105 26.21ZM14.105 23.8255C8.71085 23.8255 4.39412 19.4991 4.39412 14.105C4.39412 8.71085 8.70124 4.38452 14.0954 4.38452C19.4895 4.38452 23.8276 8.71085 23.8276 14.105C23.8276 19.4991 19.4991 23.8255 14.105 23.8255Z" fill="black"/>
<path d="M8.32538 18.7913H12.8944C13.3167 18.7913 13.6254 18.4869 13.6254 18.0144C13.6254 17.5386 13.3167 17.2651 12.8944 17.2651H9.84272V17.1809L11.9034 14.7812C12.7685 13.7755 13.3772 12.9486 13.3751 11.8104C13.3708 10.2111 12.2114 9.16388 10.4073 9.16388C9.0339 9.16388 7.81914 10.025 7.51234 11.2055C7.48258 11.3684 7.45703 11.5036 7.45703 11.6569C7.45703 12.1062 7.72843 12.4107 8.17023 12.4107C8.54054 12.4107 8.73741 12.1925 8.89515 11.8325C9.15437 11.0464 9.69507 10.6507 10.4385 10.6507C11.2865 10.6507 11.8431 11.1797 11.8431 11.952C11.8431 12.6631 11.2781 13.2645 10.7261 13.9102L7.87281 17.2604C7.65062 17.5145 7.55593 17.7453 7.55593 18.0198C7.55593 18.4923 7.86765 18.7913 8.32538 18.7913ZM15.8915 18.7913H20.4508C20.8828 18.7913 21.1915 18.4869 21.1915 18.0144C21.1915 17.5386 20.8828 17.2651 20.4508 17.2651H17.4089V17.1809L19.4695 14.7812C20.3346 13.7755 20.9433 12.9486 20.9412 11.8104C20.9369 10.2111 19.7775 9.16388 17.9735 9.16388C16.6001 9.16388 15.3853 10.025 15.0785 11.2055C15.0487 11.3684 15.0232 11.5036 15.0232 11.6569C15.0232 12.1062 15.2946 12.4107 15.7268 12.4107C16.1067 12.4107 16.3036 12.1925 16.4517 11.8325C16.7205 11.0464 17.2516 10.6507 18.0047 10.6507C18.8526 10.6507 19.4093 11.1797 19.4093 11.952C19.4093 12.6631 18.8442 13.2645 18.2923 13.9102L15.439 17.2604C15.2168 17.5145 15.1221 17.7453 15.1221 18.0198C15.1221 18.4923 15.4338 18.7913 15.8915 18.7913Z" fill="black"/>
</svg>
