<svg width="28" height="28" viewBox="0 0 28 28" fill="none" xmlns="http://www.w3.org/2000/svg">
<path d="M14.105 26.21C20.7369 26.21 26.2121 20.7273 26.2121 14.105C26.2121 7.47312 20.7273 2 14.0954 2C7.47523 2 2 7.47312 2 14.105C2 20.7273 7.48484 26.21 14.105 26.21ZM14.105 23.8255C8.71085 23.8255 4.39412 19.4991 4.39412 14.105C4.39412 8.71085 8.70124 4.38452 14.0954 4.38452C19.4895 4.38452 23.8276 8.71085 23.8276 14.105C23.8276 19.4991 19.4991 23.8255 14.105 23.8255Z" fill="black"/>
<path d="M10.9433 18.9245C11.4573 18.9245 11.7629 18.6041 11.7629 18.0648V10.1939C11.7629 9.61317 11.3977 9.22153 10.817 9.22153C10.4251 9.22153 10.1591 9.34083 9.71727 9.6727L8.07734 10.8387C7.79328 11.0609 7.63672 11.2908 7.63672 11.6208C7.63672 12.0383 7.9775 12.3683 8.34898 12.3683C8.57445 12.3683 8.71273 12.327 8.98226 12.0971L10.0822 11.2557H10.1504V18.0648C10.1504 18.6041 10.4464 18.9245 10.9433 18.9245ZM18.4536 19.0227C18.9498 19.0227 19.2254 18.6798 19.2254 18.1995V16.9517H19.7675C20.2093 16.9517 20.4798 16.6941 20.4798 16.2502C20.4798 15.7967 20.1997 15.5211 19.7675 15.5211H19.2254V10.3995C19.2254 9.63966 18.7419 9.16388 17.964 9.16388C17.2231 9.16388 16.7771 9.45122 16.3798 10.1443C15.4979 11.6583 14.4303 13.5495 13.7284 14.8536C13.5472 15.2338 13.4738 15.5337 13.4738 15.8902C13.4738 16.5556 13.8849 16.9559 14.5416 16.9559H17.6935V18.1995C17.6935 18.6702 17.9691 19.0227 18.4536 19.0227ZM17.6935 15.5274H15.1133V15.4805C15.7287 14.2618 16.8071 12.3048 17.6412 10.845H17.6935V15.5274Z" fill="black"/>
</svg>
