<svg width="28" height="28" viewBox="0 0 28 28" fill="none" xmlns="http://www.w3.org/2000/svg">
<path d="M14.105 26.21C20.7369 26.21 26.2121 20.7273 26.2121 14.105C26.2121 7.47312 20.7273 2 14.0954 2C7.47523 2 2 7.47312 2 14.105C2 20.7273 7.48484 26.21 14.105 26.21ZM14.105 23.8255C8.71085 23.8255 4.39412 19.4991 4.39412 14.105C4.39412 8.71085 8.70124 4.38452 14.0954 4.38452C19.4895 4.38452 23.8276 8.71085 23.8276 14.105C23.8276 19.4991 19.4991 23.8255 14.105 23.8255Z" fill="black"/>
<path d="M12.1386 19.8905C12.6641 19.8905 13.0215 19.5277 13.0215 18.9948V17.9989H15.616C15.9538 17.9989 16.1638 17.7655 16.1638 17.4383C16.1638 17.1186 15.9538 16.8851 15.616 16.8851H13.0215V15.7515H14.9073C17.0966 15.7515 18.5005 14.3152 18.5005 12.3069C18.5005 10.3039 17.121 8.84845 14.9464 8.84845H12.1396C11.5876 8.84845 11.2386 9.21337 11.2386 9.78125V14.6389H10.2294C9.88414 14.6389 9.66992 14.8723 9.66992 15.1941C9.66992 15.5159 9.88414 15.759 10.2294 15.759H11.2386V16.8851H10.2411C9.90336 16.8851 9.68375 17.1186 9.68375 17.4383C9.68375 17.7655 9.90547 17.9989 10.2411 17.9989H11.2386V18.9948C11.2386 19.5277 11.6152 19.8905 12.1386 19.8905ZM13.0311 14.2285V10.4234H14.6052C15.9873 10.4234 16.708 11.1582 16.708 12.3249C16.708 13.5012 15.9777 14.2477 14.6031 14.2477L13.0311 14.2285Z" fill="black"/>
</svg>
