<svg width="28" height="28" viewBox="0 0 28 28" fill="none" xmlns="http://www.w3.org/2000/svg">
<path d="M6.84421 24.8972H21.0295C23.5685 24.8972 24.8737 23.5919 24.8737 21.0914V6.82921C24.8737 4.32656 23.5685 3.02344 21.0295 3.02344H6.84421C4.31484 3.02344 3 4.31695 3 6.82921V21.0914C3 23.6016 4.31484 24.8972 6.84421 24.8972Z" fill="black"/>
<path d="M10.4921 19.4377C9.93898 19.4377 9.55273 19.0866 9.55273 18.5004V14.8085C9.55273 11.6812 11.0068 9.85123 13.287 9.56787V8.36459C13.287 7.92795 13.5662 7.68092 13.9676 7.68092C14.3307 7.68092 14.6365 7.92162 14.6365 8.36459V9.55826C16.9189 9.84162 18.3922 11.6695 18.3922 14.8085V18.5004C18.3922 19.0887 18.0272 19.4377 17.4645 19.4377C16.921 19.4377 16.5561 19.0866 16.5561 18.5004V14.876C16.5561 12.7786 15.8319 11.5802 14.6365 11.2894V18.738C14.6365 19.1597 14.3307 19.4292 13.9676 19.4292C13.5662 19.4292 13.287 19.1555 13.287 18.738V11.299C12.113 11.6208 11.408 12.8074 11.408 14.876V18.5004C11.408 19.0887 11.0431 19.4377 10.4921 19.4377Z" fill="white"/>
</svg>
