<svg width="28" height="28" viewBox="0 0 28 28" fill="none" xmlns="http://www.w3.org/2000/svg">
<path d="M14.105 26.21C20.7369 26.21 26.2121 20.7273 26.2121 14.105C26.2121 7.47312 20.7273 2 14.0954 2C7.47523 2 2 7.47312 2 14.105C2 20.7273 7.48484 26.21 14.105 26.21Z" fill="black"/>
<path d="M12.5838 19.8493C11.9308 19.8493 11.4435 19.4291 11.4435 18.8164C11.4435 18.5345 11.5051 18.3282 11.6434 18.092L15.8845 10.5371V10.437H11.009C10.4659 10.437 10.0938 10.0679 10.0938 9.53093C10.0938 8.98438 10.4563 8.62485 11.009 8.62485H16.8785C17.7986 8.62485 18.3956 9.1857 18.3956 9.97179C18.3956 10.314 18.3255 10.6233 18.0414 11.1193L13.7165 19.059C13.3987 19.629 13.0858 19.8493 12.5838 19.8493Z" fill="white"/>
</svg>
