<svg width="28" height="28" viewBox="0 0 28 28" fill="none" xmlns="http://www.w3.org/2000/svg">
<path d="M6.84421 24.8972H21.0295C23.5685 24.8972 24.8737 23.5919 24.8737 21.0914V6.82921C24.8737 4.32656 23.5685 3.02344 21.0295 3.02344H6.84421C4.31484 3.02344 3 4.31695 3 6.82921V21.0914C3 23.6016 4.31484 24.8972 6.84421 24.8972Z" fill="black"/>
<path d="M13.8932 19.6987C11.8891 19.6987 10.4512 18.938 9.97071 17.7286C9.88657 17.5326 9.8418 17.3367 9.8418 17.1152C9.8418 16.5748 10.2184 16.1948 10.8161 16.1948C11.2499 16.1948 11.5576 16.3983 11.7876 16.7555C12.1776 17.4574 12.9243 17.9032 13.855 17.9032C15.0644 17.9032 15.9677 17.0138 15.9677 15.8245C15.9677 14.6173 15.1924 13.8131 14.0353 13.8131C13.4521 13.8131 13.0289 13.9922 12.4989 14.4211C12.0395 14.7506 11.7468 14.8549 11.2593 14.8549C10.4383 14.8549 9.9829 14.3557 10.0361 13.5429L10.3368 9.74179C10.3975 8.96905 10.9553 8.46468 11.8091 8.46468H16.8436C17.3953 8.46468 17.741 8.80312 17.741 9.3328C17.741 9.85077 17.3772 10.2051 16.8436 10.2051H12.1609L11.9167 13.1962H12.0198C12.4408 12.5838 13.4444 12.1502 14.4541 12.1502C16.671 12.1502 18.1872 13.6195 18.1872 15.7629C18.1872 18.1509 16.4639 19.6987 13.8932 19.6987Z" fill="white"/>
</svg>
