<svg width="28" height="28" viewBox="0 0 28 28" fill="none" xmlns="http://www.w3.org/2000/svg">
<path d="M14.105 26.21C20.7369 26.21 26.2121 20.7273 26.2121 14.105C26.2121 7.47312 20.7273 2 14.0954 2C7.47523 2 2 7.47312 2 14.105C2 20.7273 7.48484 26.21 14.105 26.21ZM14.105 23.8255C8.71085 23.8255 4.39412 19.4991 4.39412 14.105C4.39412 8.71085 8.70124 4.38452 14.0954 4.38452C19.4895 4.38452 23.8276 8.71085 23.8276 14.105C23.8276 19.4991 19.4991 23.8255 14.105 23.8255Z" fill="black"/>
<path d="M14.2541 20.8609C14.5695 20.8609 14.8051 20.6349 14.8051 20.3077V19.5373H15.0312C17.1962 19.5373 18.5769 18.3484 18.5769 16.4795C18.5769 15.2059 17.7938 14.2236 16.6004 13.8709C17.4516 13.4595 18.0568 12.5548 18.0568 11.5798C18.0568 9.9753 16.8465 8.8414 15.0038 8.8414H14.8051V7.97608C14.8051 7.66061 14.5695 7.43468 14.2541 7.43468C13.9461 7.43468 13.7105 7.66061 13.7105 7.97608V8.8414H11.9274C11.3166 8.8414 10.9004 9.25015 10.9004 9.88108V18.5115C10.9004 19.1307 11.3091 19.5373 11.9316 19.5373H13.7105V20.3077C13.7105 20.6349 13.9461 20.8609 14.2541 20.8609ZM12.6631 18.027V14.7556H13.7105V18.0174L12.6631 18.027ZM14.8051 18.0078V14.7652C16.1403 14.843 16.8069 15.3901 16.8069 16.3871C16.8069 17.4001 16.1403 17.9513 14.8051 18.0078ZM12.6535 13.3034L12.6631 10.3421H13.7105V13.3034H12.6535ZM14.8051 13.2533V10.3634C15.7937 10.4508 16.3269 10.9339 16.3269 11.7582C16.3269 12.59 15.8087 13.1157 14.8051 13.2533Z" fill="black"/>
</svg>
