<svg width="28" height="28" viewBox="0 0 28 28" fill="none" xmlns="http://www.w3.org/2000/svg">
<path d="M14.105 26.21C20.7369 26.21 26.2121 20.7273 26.2121 14.105C26.2121 7.47312 20.7273 2 14.0954 2C7.47523 2 2 7.47312 2 14.105C2 20.7273 7.48484 26.21 14.105 26.21Z" fill="black"/>
<path d="M14.2044 19.8589C12.6767 19.8589 11.3251 19.2927 10.5252 17.9867C10.0023 17.1507 9.70508 15.9352 9.70508 14.3007C9.70508 10.3454 11.5294 8.34686 14.4994 8.34686C16.0866 8.34686 17.4097 9.08139 17.8302 9.9678C17.9258 10.1668 17.9778 10.3604 17.9778 10.5912C17.9778 11.0785 17.6054 11.4137 17.112 11.4137C16.6459 11.4137 16.3904 11.2006 16.01 10.8476C15.6627 10.4679 15.2277 10.1342 14.4451 10.1342C12.9109 10.1342 11.885 11.5833 11.885 13.8092C11.885 13.8697 11.8892 13.9302 11.8934 14.0119C11.919 14.0119 11.9605 14.0119 11.9935 14.0119C12.395 13.1626 13.3473 12.4013 14.8812 12.4013C16.8125 12.4013 18.4857 13.6925 18.4857 15.9324C18.4857 18.4114 16.7326 19.8589 14.2044 19.8589ZM14.1012 18.1421C15.3779 18.1421 16.2076 17.2932 16.2076 16.0166C16.2076 14.7976 15.3491 13.9487 14.1109 13.9487C12.8801 13.9487 12.0024 14.8072 12.0024 16.0048C12.0024 17.2452 12.8823 18.1421 14.1012 18.1421Z" fill="white"/>
</svg>
