<svg width="28" height="28" viewBox="0 0 28 28" fill="none" xmlns="http://www.w3.org/2000/svg">
<path d="M6.84421 24.8972H21.0295C23.5685 24.8972 24.8737 23.5919 24.8737 21.0914V6.82921C24.8737 4.32656 23.5685 3.02344 21.0295 3.02344H6.84421C4.31484 3.02344 3 4.31695 3 6.82921V21.0914C3 23.6016 4.31484 24.8972 6.84421 24.8972ZM6.97733 22.6013C5.88772 22.6013 5.29592 22.0371 5.29592 20.8985V7.01999C5.29592 5.88139 5.88772 5.31936 6.97733 5.31936H20.8964C21.9764 5.31936 22.5778 5.88139 22.5778 7.01999V20.8985C22.5778 22.0371 21.9764 22.6013 20.8964 22.6013H6.97733Z" fill="black"/>
<path d="M10.7185 18.7643C11.2325 18.7643 11.5306 18.4439 11.5306 17.9046V10.0338C11.5306 9.45304 11.1751 9.0614 10.5943 9.0614C10.1907 9.0614 9.9364 9.18069 9.4925 9.51257L7.85257 10.6786C7.56101 10.9008 7.41406 11.1307 7.41406 11.4607C7.41406 11.8781 7.75484 12.2081 8.12632 12.2081C8.35179 12.2081 8.49007 12.1669 8.7596 11.9369L9.85953 11.0955H9.91601V17.9046C9.91601 18.4439 10.2238 18.7643 10.7185 18.7643ZM16.7303 18.8817C18.7801 18.8817 20.1133 17.6224 20.1133 15.5831C20.1133 13.8037 18.9156 12.563 17.2164 12.563C16.4607 12.563 15.6655 12.9307 15.3182 13.4517H15.2734L15.4792 10.6657H19.0986C19.4816 10.6657 19.7551 10.3814 19.7551 9.94827C19.7551 9.52476 19.4975 9.23507 19.0986 9.23507H15.2172C14.575 9.23507 14.1765 9.62694 14.1318 10.2881L13.8737 13.7925C13.829 14.423 14.1782 14.8319 14.7404 14.8319C15.1375 14.8319 15.3568 14.7276 15.7044 14.4504C16.1586 14.0707 16.4903 13.9076 16.97 13.9076C17.8979 13.9076 18.5378 14.6583 18.5378 15.6352C18.5378 16.7496 17.8382 17.4352 16.8111 17.4352C16.0797 17.4352 15.4822 17.0386 15.1571 16.422C14.975 16.1137 14.7608 15.9244 14.4512 15.9244C14.0317 15.9244 13.7305 16.2427 13.7305 16.6631C13.7305 16.8527 13.7711 17.0327 13.8402 17.2094C14.1812 18.1125 15.2929 18.8817 16.7303 18.8817Z" fill="black"/>
</svg>
