<svg width="28" height="28" viewBox="0 0 28 28" fill="none" xmlns="http://www.w3.org/2000/svg">
<path d="M14.105 26.21C20.7369 26.21 26.2121 20.7273 26.2121 14.105C26.2121 7.47312 20.7273 2 14.0954 2C7.47523 2 2 7.47312 2 14.105C2 20.7273 7.48484 26.21 14.105 26.21ZM14.105 23.8255C8.71085 23.8255 4.39412 19.4991 4.39412 14.105C4.39412 8.71085 8.70124 4.38452 14.0954 4.38452C19.4895 4.38452 23.8276 8.71085 23.8276 14.105C23.8276 19.4991 19.4991 23.8255 14.105 23.8255Z" fill="black"/>
<path d="M11.207 18.9245C11.7113 18.9245 12.0191 18.6041 12.0191 18.0648V10.194C12.0191 9.6132 11.6518 9.22156 11.0827 9.22156C10.6791 9.22156 10.4152 9.34086 9.97133 9.67273L8.3314 10.8387C8.04945 11.0609 7.90039 11.2909 7.90039 11.6209C7.90039 12.0383 8.24328 12.3683 8.61476 12.3683C8.84023 12.3683 8.9689 12.327 9.23843 12.0971L10.3384 11.2557H10.4045V18.0648C10.4045 18.6041 10.7122 18.9245 11.207 18.9245ZM15.6859 18.9341C16.0698 18.9341 16.303 18.7287 16.5266 18.2818L19.9339 11.3321C20.1013 10.9698 20.1524 10.7377 20.1524 10.4811C20.1524 9.87101 19.7317 9.38562 19.0103 9.38562H14.567C14.1179 9.38562 13.7978 9.67414 13.7978 10.1295C13.7978 10.5753 14.1242 10.8542 14.567 10.8542H18.3292V10.9416L14.9621 17.4941C14.8482 17.6909 14.8164 17.8463 14.8164 18.0859C14.8164 18.5881 15.1942 18.9341 15.6859 18.9341Z" fill="black"/>
</svg>
