<svg width="28" height="28" viewBox="0 0 28 28" fill="none" xmlns="http://www.w3.org/2000/svg">
<path d="M14.105 26.21C20.7369 26.21 26.2121 20.7273 26.2121 14.105C26.2121 7.47312 20.7273 2 14.0954 2C7.47523 2 2 7.47312 2 14.105C2 20.7273 7.48484 26.21 14.105 26.21ZM14.105 23.8255C8.71085 23.8255 4.39412 19.4991 4.39412 14.105C4.39412 8.71085 8.70124 4.38452 14.0954 4.38452C19.4895 4.38452 23.8276 8.71085 23.8276 14.105C23.8276 19.4991 19.4991 23.8255 14.105 23.8255Z" fill="black"/>
<path d="M8.29805 18.7913H12.8649C13.2893 18.7913 13.5959 18.4869 13.5959 18.0144C13.5959 17.5386 13.2893 17.2651 12.8649 17.2651H9.81328V17.1809L11.8739 14.7812C12.739 13.7755 13.3477 12.9486 13.3456 11.8104C13.3414 10.2111 12.1819 9.16388 10.3779 9.16388C9.00446 9.16388 7.78969 10.025 7.4829 11.2055C7.45313 11.3684 7.42969 11.5036 7.42969 11.6569C7.42969 12.1062 7.69899 12.4107 8.14078 12.4107C8.51109 12.4107 8.70797 12.1925 8.8657 11.8325C9.12492 11.0464 9.66563 10.6507 10.4112 10.6507C11.257 10.6507 11.8137 11.1797 11.8137 11.952C11.8137 12.6631 11.2486 13.2645 10.6966 13.9102L7.84336 17.2604C7.62118 17.5145 7.52649 17.7453 7.52649 18.0198C7.52649 18.4923 7.83821 18.7913 8.29805 18.7913ZM18.0317 19.0419C20.0049 19.0419 21.3518 17.8803 21.3518 16.2097C21.3518 14.9991 20.5407 14.0124 19.4035 13.9037V13.827C20.3328 13.6693 21.0608 12.7283 21.0608 11.6731C21.0608 10.1857 19.8514 9.16388 18.1011 9.16388C16.5453 9.16388 15.4156 10.0557 15.1172 11.1155C15.0769 11.289 15.061 11.4188 15.061 11.5796C15.061 12.0394 15.3495 12.343 15.7829 12.343C16.1513 12.343 16.3482 12.1512 16.4801 11.7889C16.7379 11.0445 17.2531 10.6381 18.068 10.6381C18.8883 10.6381 19.4654 11.1436 19.4654 11.888C19.4654 12.6444 18.8956 13.2106 18.0584 13.2106H17.5289C17.0895 13.2106 16.8085 13.5118 16.8085 13.9695C16.8085 14.393 17.0768 14.7134 17.5289 14.7134H18.099C19.1016 14.7134 19.7225 15.2766 19.7225 16.1246C19.7225 16.9311 19.0418 17.5508 18.0497 17.5508C17.2273 17.5508 16.6451 17.1423 16.3371 16.3979C16.1839 16.0334 15.9657 15.8459 15.6186 15.8459C15.2117 15.8459 14.8882 16.1495 14.8882 16.5997C14.8882 16.7701 14.9063 16.8999 14.9553 17.0586C15.2515 18.0987 16.4907 19.0419 18.0317 19.0419Z" fill="black"/>
</svg>
