<svg width="28" height="28" viewBox="0 0 28 28" fill="none" xmlns="http://www.w3.org/2000/svg">
<path d="M6.84421 24.8972H21.0295C23.5685 24.8972 24.8737 23.5919 24.8737 21.0914V6.82921C24.8737 4.32656 23.5685 3.02344 21.0295 3.02344H6.84421C4.31484 3.02344 3 4.31695 3 6.82921V21.0914C3 23.6016 4.31484 24.8972 6.84421 24.8972Z" fill="black"/>
<path d="M7.94936 18.8152C7.47359 18.8152 7.15343 18.5023 7.15343 18.0096C7.15343 17.7171 7.24273 17.4724 7.47874 17.212L10.4321 13.7384C11.0021 13.0725 11.5906 12.4455 11.5906 11.711C11.5906 10.9153 11.0106 10.3725 10.1391 10.3725C9.37015 10.3725 8.81772 10.7723 8.54679 11.5914C8.38694 11.9674 8.18585 12.1898 7.78788 12.1898C7.33015 12.1898 7.04492 11.8715 7.04492 11.4021C7.04492 11.2446 7.06835 11.0976 7.10773 10.9326C7.42085 9.70849 8.67921 8.80591 10.1101 8.80591C11.9853 8.80591 13.1842 9.89669 13.1905 11.5652C13.1926 12.7448 12.5605 13.6036 11.6614 14.6529L9.54006 17.123V17.2209H12.6875C13.13 17.2209 13.4525 17.4987 13.4525 18.0042C13.4525 18.4969 13.13 18.8152 12.6875 18.8152H7.94936ZM18.0564 19.0774C16.46 19.0774 15.1635 18.0949 14.8534 17.0154C14.814 16.8525 14.7842 16.7109 14.7842 16.5384C14.7842 16.068 15.1236 15.7507 15.5485 15.7507C15.9095 15.7507 16.1436 15.9403 16.3011 16.3207C16.6187 17.0885 17.2285 17.5088 18.0744 17.5088C19.0996 17.5088 19.8111 16.8752 19.8111 16.0474C19.8111 15.1643 19.1593 14.5873 18.1332 14.5873H17.544C17.06 14.5873 16.7874 14.2509 16.7874 13.8094C16.7874 13.3219 17.0748 13.0069 17.544 13.0069H18.0831C18.9533 13.0069 19.5348 12.4247 19.5348 11.647C19.5348 10.8771 18.9343 10.3598 18.0906 10.3598C17.2522 10.3598 16.7253 10.7758 16.4516 11.5457C16.3175 11.924 16.1068 12.1179 15.7224 12.1179C15.2731 12.1179 14.9783 11.7984 14.9783 11.3205C14.9783 11.1576 14.9867 11.014 15.0271 10.8384C15.3392 9.7413 16.5104 8.80591 18.1257 8.80591C19.9473 8.80591 21.2003 9.86927 21.2003 11.4161C21.2003 12.5107 20.4446 13.4932 19.4877 13.653V13.7318C20.6642 13.8502 21.5052 14.8687 21.5052 16.1325C21.5052 17.8627 20.1029 19.0774 18.0564 19.0774Z" fill="white"/>
</svg>
