<svg width="28" height="28" viewBox="0 0 28 28" fill="none" xmlns="http://www.w3.org/2000/svg">
<path d="M14.105 26.21C20.7369 26.21 26.2121 20.7273 26.2121 14.105C26.2121 7.47312 20.7273 2 14.0954 2C7.47523 2 2 7.47312 2 14.105C2 20.7273 7.48484 26.21 14.105 26.21ZM14.105 23.8255C8.71085 23.8255 4.39412 19.4991 4.39412 14.105C4.39412 8.71085 8.70124 4.38452 14.0954 4.38452C19.4895 4.38452 23.8276 8.71085 23.8276 14.105C23.8276 19.4991 19.4991 23.8255 14.105 23.8255Z" fill="black"/>
<path d="M8.23164 18.7913H12.8006C13.2229 18.7913 13.5316 18.4869 13.5316 18.0144C13.5316 17.5386 13.2229 17.2651 12.8006 17.2651H9.74898V17.1809L11.8096 14.7812C12.6747 13.7755 13.2834 12.9486 13.2813 11.8104C13.277 10.2111 12.1176 9.16388 10.3136 9.16388C8.94016 9.16388 7.72539 10.025 7.4186 11.2055C7.38883 11.3684 7.36328 11.5036 7.36328 11.6569C7.36328 12.1062 7.63469 12.4107 8.06687 12.4107C8.44679 12.4107 8.64367 12.1925 8.8014 11.8325C9.06062 11.0464 9.59172 10.6507 10.3448 10.6507C11.1927 10.6507 11.7494 11.1797 11.7494 11.952C11.7494 12.6631 11.1843 13.2645 10.6324 13.9102L7.77906 17.2604C7.55688 17.5145 7.46219 17.7453 7.46219 18.0198C7.46219 18.4923 7.77391 18.7913 8.23164 18.7913ZM17.8502 19.0419C19.8979 19.0419 21.231 17.7826 21.231 15.7433C21.231 13.9639 20.0334 12.7231 18.3363 12.7231C17.5806 12.7231 16.7833 13.0909 16.4381 13.6119H16.3933L16.5991 10.8258H20.2185C20.6015 10.8258 20.8729 10.5415 20.8729 10.1084C20.8729 9.68489 20.6153 9.3952 20.2185 9.3952H16.3349C15.6949 9.3952 15.2964 9.78708 15.2496 10.4482L14.9936 13.9527C14.9488 14.5831 15.2981 14.9921 15.8603 14.9921C16.2553 14.9921 16.4767 14.8878 16.8222 14.6105C17.2764 14.2308 17.6081 14.0677 18.0974 14.0677C19.0157 14.0677 19.6556 14.8184 19.6556 15.7953C19.6556 16.9098 18.9581 17.5953 17.931 17.5953C17.1974 17.5953 16.6021 17.1988 16.2749 16.5821C16.0928 16.2739 15.8807 16.0845 15.5711 16.0845C15.1516 16.0845 14.8483 16.4028 14.8483 16.8233C14.8483 17.0129 14.891 17.1929 14.9601 17.3696C15.299 18.2727 16.4128 19.0419 17.8502 19.0419Z" fill="black"/>
</svg>
