<svg width="28" height="28" viewBox="0 0 28 28" fill="none" xmlns="http://www.w3.org/2000/svg">
<path d="M14.105 26.21C20.7369 26.21 26.2121 20.7273 26.2121 14.105C26.2121 7.47312 20.7273 2 14.0954 2C7.47523 2 2 7.47312 2 14.105C2 20.7273 7.48484 26.21 14.105 26.21ZM14.105 23.8255C8.71085 23.8255 4.39412 19.4991 4.39412 14.105C4.39412 8.71085 8.70124 4.38452 14.0954 4.38452C19.4895 4.38452 23.8276 8.71085 23.8276 14.105C23.8276 19.4991 19.4991 23.8255 14.105 23.8255Z" fill="black"/>
<path d="M14.352 19.6534C16.2788 19.6534 17.9052 18.8476 18.5272 17.1324C18.6038 16.9344 18.6528 16.7225 18.6528 16.5052C18.6528 16.0159 18.3134 15.6786 17.8177 15.6786C17.3771 15.6786 17.1195 15.9076 16.9632 16.3503C16.6288 17.4781 15.5942 18.0678 14.4031 18.0678C12.5319 18.0678 11.5273 16.2807 11.5273 14.12C11.5273 11.9825 12.5637 10.1935 14.4031 10.1935C15.5152 10.1935 16.5305 10.8172 16.8896 11.9335C17.0619 12.4126 17.2927 12.5914 17.7451 12.5914C18.2494 12.5914 18.5729 12.2701 18.5729 11.7753C18.5729 11.5508 18.5155 11.322 18.4241 11.1092C17.8266 9.57146 16.2643 8.60583 14.352 8.60583C11.5088 8.60583 9.69757 10.8139 9.69757 14.1179C9.69757 17.3269 11.3776 19.6534 14.352 19.6534ZM8.80343 13.5198H14.611C14.9286 13.5198 15.1684 13.2704 15.1684 12.9666C15.1684 12.6341 14.9286 12.406 14.611 12.406H8.80343C8.48585 12.406 8.24609 12.6341 8.24609 12.9666C8.24609 13.2704 8.48585 13.5198 8.80343 13.5198ZM8.80343 15.8016H14.611C14.9286 15.8016 15.1684 15.5544 15.1684 15.241C15.1684 14.9159 14.9286 14.6879 14.611 14.6879H8.80343C8.48585 14.6879 8.24609 14.9159 8.24609 15.241C8.24609 15.5544 8.48585 15.8016 8.80343 15.8016Z" fill="black"/>
</svg>
