<svg width="28" height="28" viewBox="0 0 28 28" fill="none" xmlns="http://www.w3.org/2000/svg">
<path d="M14.105 26.21C20.7369 26.21 26.2121 20.7273 26.2121 14.105C26.2121 7.47312 20.7273 2 14.0954 2C7.47523 2 2 7.47312 2 14.105C2 20.7273 7.48484 26.21 14.105 26.21Z" fill="black"/>
<path d="M8.08609 18.9753C7.61992 18.9753 7.29016 18.6624 7.29016 18.1698C7.29016 17.8773 7.37945 17.6326 7.62508 17.3722L10.5785 13.8985C11.1388 13.2327 11.737 12.6057 11.737 11.8711C11.737 11.0754 11.1473 10.5326 10.2855 10.5326C9.50898 10.5326 8.96406 10.9325 8.68351 11.7516C8.52367 12.1276 8.32469 12.35 7.92461 12.35C7.47649 12.35 7.18164 12.0317 7.18164 11.5622C7.18164 11.4047 7.21469 11.2578 7.24446 11.0928C7.56508 9.86864 8.82555 8.96606 10.2564 8.96606C12.1317 8.96606 13.3209 10.0569 13.3272 11.7254C13.3293 12.905 12.6972 13.7637 11.8077 14.813L9.66929 17.2831V17.3811H12.8242C13.2763 17.3811 13.601 17.6588 13.601 18.1644C13.601 18.657 13.2763 18.9753 12.8242 18.9753H8.08609ZM19.6368 19.2184C19.1226 19.2184 18.8428 18.852 18.8428 18.3516V17.0729H15.5866C14.898 17.0729 14.4592 16.6545 14.4592 15.9594C14.4592 15.5848 14.5464 15.2689 14.7393 14.8707C15.453 13.5177 16.5482 11.569 17.475 9.99637C17.8807 9.27145 18.3522 8.96606 19.1271 8.96606C19.9389 8.96606 20.4405 9.47372 20.4405 10.2654V15.5701H21.0039C21.4542 15.5701 21.7406 15.8637 21.7406 16.3353C21.7406 16.7952 21.4542 17.0666 21.0039 17.0666H20.4405V18.3516C20.4405 18.8637 20.1606 19.2184 19.6368 19.2184ZM18.8428 15.5764V10.7269H18.7788C17.9212 12.2452 16.829 14.2618 16.1922 15.5295V15.5764H18.8428Z" fill="white"/>
</svg>
