<svg width="28" height="28" viewBox="0 0 28 28" fill="none" xmlns="http://www.w3.org/2000/svg">
<path d="M14.105 26.21C20.7369 26.21 26.2121 20.7273 26.2121 14.105C26.2121 7.47312 20.7273 2 14.0954 2C7.47523 2 2 7.47312 2 14.105C2 20.7273 7.48484 26.21 14.105 26.21Z" fill="black"/>
<path d="M10.7305 19.1105C10.2156 19.1105 9.89188 18.7742 9.89188 18.2105V11.1577H9.82579L8.70243 12.0226C8.41696 12.2684 8.27657 12.3097 8.03516 12.3097C7.64774 12.3097 7.29102 11.9637 7.29102 11.5325C7.29102 11.1844 7.4518 10.9407 7.74758 10.7143L9.44071 9.50466C9.91228 9.15474 10.1825 9.03544 10.602 9.03544C11.2147 9.03544 11.5883 9.44302 11.5883 10.0482V18.2105C11.5883 18.7742 11.2667 19.1105 10.7305 19.1105ZM17.2233 19.2376C15.15 19.2376 13.7522 18.073 13.7522 16.3266C13.7522 15.1004 14.5022 14.1251 15.7578 13.8556V13.7769C14.7024 13.4762 14.1134 12.6472 14.1134 11.5988C14.1134 10.039 15.4069 8.96606 17.2425 8.96606C19.0878 8.96606 20.3834 10.039 20.3834 11.5988C20.3834 12.6472 19.7827 13.4954 18.739 13.7769V13.8556C19.9829 14.1251 20.7404 15.0908 20.7404 16.317C20.7404 18.0537 19.3158 19.2376 17.2233 19.2376ZM17.2521 17.8391C18.2813 17.8391 19.0268 17.1641 19.0268 16.2022C19.0268 15.2424 18.3005 14.5557 17.2521 14.5557C16.2251 14.5557 15.4775 15.252 15.4775 16.2022C15.4775 17.1641 16.2251 17.8391 17.2521 17.8391ZM17.2425 13.212C18.1074 13.212 18.7057 12.5977 18.7057 11.768C18.7057 10.9383 18.1128 10.3604 17.2425 10.3604C16.3915 10.3604 15.791 10.9383 15.791 11.768C15.791 12.5977 16.3894 13.212 17.2425 13.212Z" fill="white"/>
</svg>
