<svg width="28" height="28" viewBox="0 0 28 28" fill="none" xmlns="http://www.w3.org/2000/svg">
<path d="M6.84421 24.8972H21.0295C23.5685 24.8972 24.8737 23.5919 24.8737 21.0914V6.82921C24.8737 4.32656 23.5685 3.02344 21.0295 3.02344H6.84421C4.31484 3.02344 3 4.31695 3 6.82921V21.0914C3 23.6016 4.31484 24.8972 6.84421 24.8972ZM6.97733 22.6013C5.88772 22.6013 5.29592 22.0371 5.29592 20.8985V7.01999C5.29592 5.88139 5.88772 5.31936 6.97733 5.31936H20.8964C21.9764 5.31936 22.5778 5.88139 22.5778 7.01999V20.8985C22.5778 22.0371 21.9764 22.6013 20.8964 22.6013H6.97733Z" fill="black"/>
<path d="M13.8905 19.4808C16.4754 19.4808 18.0645 18.1755 18.0645 16.3188C18.0645 14.9508 17.0522 13.864 15.6563 13.7414V13.6308C16.805 13.4613 17.7127 12.4064 17.7127 11.216C17.7127 9.56601 16.1844 8.40468 13.9791 8.40468C12.0289 8.40468 10.5748 9.26367 10.2331 10.6127C10.1874 10.7873 10.1715 10.9331 10.1715 11.1216C10.1715 11.6524 10.5524 12.0068 11.1202 12.0068C11.5716 12.0068 11.8515 11.8055 12.0268 11.3847C12.3048 10.5902 12.9723 10.0985 13.9482 10.0985C14.9956 10.0985 15.6387 10.619 15.6387 11.4586C15.6387 12.3225 14.9187 12.9572 13.9013 12.9572H13.2886C12.7517 12.9572 12.3943 13.2902 12.3943 13.7998C12.3943 14.2901 12.7559 14.6369 13.2886 14.6369H13.959C15.1608 14.6369 15.9598 15.2707 15.9598 16.2169C15.9598 17.1471 15.147 17.7584 13.9341 17.7584C12.7908 17.7584 12.133 17.209 11.8433 16.4721C11.6412 16.0514 11.3593 15.8576 10.925 15.8576C10.3592 15.8576 9.96875 16.2237 9.96875 16.7641C9.96875 16.9505 9.98469 17.0791 10.04 17.2516C10.4084 18.5719 11.9635 19.4808 13.8905 19.4808Z" fill="black"/>
</svg>
