<svg width="28" height="28" viewBox="0 0 28 28" fill="none" xmlns="http://www.w3.org/2000/svg">
<path d="M14.105 26.21C20.7369 26.21 26.2121 20.7273 26.2121 14.105C26.2121 7.47312 20.7273 2 14.0954 2C7.47523 2 2 7.47312 2 14.105C2 20.7273 7.48484 26.21 14.105 26.21ZM14.105 23.8255C8.71085 23.8255 4.39412 19.4991 4.39412 14.105C4.39412 8.71085 8.70124 4.38452 14.0954 4.38452C19.4895 4.38452 23.8276 8.71085 23.8276 14.105C23.8276 19.4991 19.4991 23.8255 14.105 23.8255Z" fill="black"/>
<path d="M11.8645 19.0227C12.3703 19.0227 12.6459 18.6798 12.6459 18.1995V16.9517H13.188C13.6202 16.9517 13.8907 16.6941 13.8907 16.2502C13.8907 15.7967 13.6202 15.5211 13.188 15.5211H12.6459V10.3996C12.6459 9.63972 12.1507 9.16394 11.3845 9.16394C10.6437 9.16394 10.1977 9.45128 9.80041 10.1443C8.91845 11.6584 7.85087 13.5495 7.14891 14.8536C6.96774 15.2338 6.88477 15.5337 6.88477 15.8902C6.88477 16.5556 7.30547 16.9559 7.96219 16.9559H11.1141V18.1995C11.1141 18.6702 11.3801 19.0227 11.8645 19.0227ZM11.1141 15.5274H8.53383V15.4805C9.1493 14.2618 10.2277 12.3048 11.0522 10.8451H11.1141V15.5274ZM18.0077 19.0419C19.9713 19.0419 21.3279 17.8803 21.3279 16.2097C21.3279 14.9991 20.505 14.0124 19.3699 13.9037V13.827C20.3067 13.6693 21.0368 12.7283 21.0368 11.6732C21.0368 10.1858 19.8253 9.16394 18.0675 9.16394C16.5192 9.16394 15.3916 10.0557 15.0912 11.1156C15.0434 11.289 15.0349 11.4189 15.0349 11.5796C15.0349 12.0394 15.3256 12.343 15.7472 12.343C16.1156 12.343 16.3221 12.1512 16.4541 11.7889C16.7119 11.0446 17.227 10.6382 18.0324 10.6382C18.8623 10.6382 19.4393 11.1437 19.4393 11.8881C19.4393 12.6444 18.8717 13.2106 18.0345 13.2106H17.4954C17.0656 13.2106 16.7824 13.5118 16.7824 13.9695C16.7824 14.393 17.0529 14.7134 17.4954 14.7134H18.0729C19.066 14.7134 19.6964 15.2766 19.6964 16.1246C19.6964 16.9311 19.0179 17.5508 18.0258 17.5508C17.2034 17.5508 16.6095 17.1423 16.3036 16.3979C16.1482 16.0334 15.9396 15.8459 15.5829 15.8459C15.1856 15.8459 14.8643 16.1495 14.8643 16.5997C14.8643 16.7701 14.8823 16.8999 14.9313 17.0586C15.2276 18.0987 16.4571 19.0419 18.0077 19.0419Z" fill="black"/>
</svg>
