<svg width="28" height="28" viewBox="0 0 28 28" fill="none" xmlns="http://www.w3.org/2000/svg">
<path d="M14.105 26.21C20.7369 26.21 26.2121 20.7273 26.2121 14.105C26.2121 7.47312 20.7273 2 14.0954 2C7.47523 2 2 7.47312 2 14.105C2 20.7273 7.48484 26.21 14.105 26.21Z" fill="black"/>
<path d="M9.31055 14.1441C9.31055 13.8052 9.55781 13.5676 9.86789 13.5676H10.6413V9.41865C10.6413 8.82404 11.0147 8.46569 11.5816 8.46569C12.139 8.46569 12.5048 8.82404 12.5048 9.41865V13.5591H12.967L16.6174 8.91545C16.8452 8.59412 17.1131 8.45068 17.3822 8.45068C17.8959 8.45068 18.2609 8.80717 18.2609 9.28482C18.2609 9.46248 18.1725 9.69333 18.033 9.87849L15.0633 13.5676H17.9939C18.3328 13.5676 18.5609 13.8052 18.5609 14.1441C18.5609 14.4659 18.3328 14.7324 17.9939 14.7324H15.056L18.0427 18.4988C18.1927 18.7063 18.2777 18.9603 18.2777 19.1548C18.2777 19.643 17.8969 20.008 17.3822 20.008C17.0942 20.008 16.8136 19.854 16.5879 19.5317L12.9863 14.7788H12.5048V19.0529C12.5048 19.6379 12.1294 20.008 11.5816 20.008C11.0243 20.008 10.6413 19.6379 10.6413 19.0529V14.7324H9.86789C9.55781 14.7324 9.31055 14.4659 9.31055 14.1441Z" fill="white"/>
</svg>
