<svg width="28" height="28" viewBox="0 0 28 28" fill="none" xmlns="http://www.w3.org/2000/svg">
<path d="M6.84421 24.8972H21.0295C23.5685 24.8972 24.8737 23.5919 24.8737 21.0914V6.82921C24.8737 4.32656 23.5685 3.02344 21.0295 3.02344H6.84421C4.31484 3.02344 3 4.31695 3 6.82921V21.0914C3 23.6016 4.31484 24.8972 6.84421 24.8972Z" fill="black"/>
<path d="M15.2322 19.9676C14.9385 19.9676 14.7097 19.8719 14.4086 19.5804L10.3159 15.7012C10.0077 15.3973 9.81906 15.1971 9.81906 14.7532C9.81906 14.1785 10.2245 13.8494 10.7833 13.8494H12.4525C13.6206 13.8494 14.3647 13.4123 14.579 12.555H10.4357C10.1064 12.555 9.85914 12.296 9.85914 11.9763C9.85914 11.6374 10.1064 11.3881 10.4357 11.3881H14.548C14.3317 10.5863 13.626 10.1203 12.5753 10.1203H10.5255C10.086 10.1203 9.73047 9.75938 9.73047 9.32626C9.73047 8.87392 10.086 8.54181 10.5255 8.54181H13.6766C14.1582 8.54181 14.6146 8.57978 15.0414 8.65149H17.578C17.9169 8.65149 18.1546 8.87954 18.1546 9.21844C18.1546 9.54024 17.9169 9.80673 17.578 9.80673H15.8392C16.2081 10.2361 16.4139 10.7817 16.5055 11.3881H17.6378C17.9767 11.3881 18.2047 11.6374 18.2047 11.9763C18.2047 12.296 17.9767 12.555 17.6378 12.555H16.4821C16.2444 14.0236 15.1147 15.3352 12.835 15.4005L12.5481 15.4069L15.7499 18.4038C15.9615 18.6155 16.116 18.8559 16.116 19.1252C16.116 19.638 15.6918 19.9676 15.2322 19.9676Z" fill="white"/>
</svg>
