<svg width="28" height="28" viewBox="0 0 28 28" fill="none" xmlns="http://www.w3.org/2000/svg">
<path d="M14.105 26.21C20.7369 26.21 26.2121 20.7273 26.2121 14.105C26.2121 7.47312 20.7273 2 14.0954 2C7.47523 2 2 7.47312 2 14.105C2 20.7273 7.48484 26.21 14.105 26.21ZM14.105 23.8255C8.71085 23.8255 4.39412 19.4991 4.39412 14.105C4.39412 8.71085 8.70124 4.38452 14.0954 4.38452C19.4895 4.38452 23.8276 8.71085 23.8276 14.105C23.8276 19.4991 19.4991 23.8255 14.105 23.8255Z" fill="black"/>
<path d="M14.092 19.7802C14.6111 19.7802 14.9845 19.4417 14.9845 18.8621V16.3848L16.8838 15.5595C17.1449 15.4391 17.2717 15.2633 17.2717 15.016C17.2717 14.7005 17.0437 14.4725 16.7303 14.4725C16.6333 14.4725 16.5342 14.5034 16.4467 14.5365L14.9845 15.189V14.1221L16.8838 13.2873C17.1449 13.1785 17.2717 13.0006 17.2717 12.7534C17.2717 12.4379 17.0533 12.2002 16.7303 12.2002C16.6429 12.2002 16.5438 12.2333 16.4563 12.2642L14.9845 12.9284V10.4309H17.6111C18.0974 10.4309 18.438 10.1021 18.438 9.62538C18.438 9.14866 18.0974 8.82944 17.6111 8.82944H10.5653C10.079 8.82944 9.73633 9.14866 9.73633 9.62538C9.73633 10.1021 10.079 10.4309 10.5653 10.4309H13.1899V13.633L11.316 14.4465C11.0453 14.5766 10.9281 14.7427 10.9281 14.9804C10.9281 15.2959 11.1466 15.5335 11.4695 15.5335C11.5591 15.5335 11.6561 15.5005 11.7435 15.4695L13.1899 14.8191V15.8956L11.316 16.7166C11.0453 16.8371 10.9281 17.0054 10.9281 17.2527C10.9281 17.566 11.1466 17.7962 11.4695 17.7962C11.5591 17.7962 11.6561 17.7727 11.7435 17.7322L13.1899 17.0893V18.8621C13.1899 19.4417 13.5632 19.7802 14.092 19.7802Z" fill="black"/>
</svg>
