<svg width="28" height="28" viewBox="0 0 28 28" fill="none" xmlns="http://www.w3.org/2000/svg">
<path d="M6.84421 24.8972H21.0295C23.5685 24.8972 24.8737 23.5919 24.8737 21.0914V6.82921C24.8737 4.32656 23.5685 3.02344 21.0295 3.02344H6.84421C4.31484 3.02344 3 4.31695 3 6.82921V21.0914C3 23.6016 4.31484 24.8972 6.84421 24.8972Z" fill="black"/>
<path d="M13.9703 15.9684C13.2829 15.9684 12.902 15.5864 12.8798 14.8915L12.7052 8.97935C12.6829 8.26334 13.2011 7.76318 13.9586 7.76318C14.7044 7.76318 15.2439 8.27295 15.2217 8.98896L15.0471 14.8873C15.0248 15.5981 14.6364 15.9684 13.9703 15.9684ZM13.9703 20.006C13.185 20.006 12.5312 19.433 12.5312 18.6677C12.5312 17.9067 13.1754 17.3241 13.9703 17.3241C14.7653 17.3241 15.4031 17.8992 15.4031 18.6677C15.4031 19.4426 14.7557 20.006 13.9703 20.006Z" fill="white"/>
</svg>
