<svg width="28" height="28" viewBox="0 0 28 28" fill="none" xmlns="http://www.w3.org/2000/svg">
<path d="M6.84421 24.8972H21.0295C23.5685 24.8972 24.8737 23.5919 24.8737 21.0914V6.82921C24.8737 4.32656 23.5685 3.02344 21.0295 3.02344H6.84421C4.31484 3.02344 3 4.31695 3 6.82921V21.0914C3 23.6016 4.31484 24.8972 6.84421 24.8972ZM6.97733 22.6013C5.88772 22.6013 5.29592 22.0371 5.29592 20.8985V7.01999C5.29592 5.88139 5.88772 5.31936 6.97733 5.31936H20.8964C21.9764 5.31936 22.5778 5.88139 22.5778 7.01999V20.8985C22.5778 22.0371 21.9764 22.6013 20.8964 22.6013H6.97733Z" fill="black"/>
<path d="M7.97577 18.6312H12.5447C12.967 18.6312 13.2736 18.3267 13.2736 17.8542C13.2736 17.3784 12.967 17.1049 12.5447 17.1049H9.491V17.0208L11.5516 14.621C12.4188 13.6153 13.0275 12.7884 13.0253 11.6503C13.019 10.0509 11.8617 9.00372 10.0577 9.00372C8.68429 9.00372 7.46952 9.86481 7.16273 11.0454C7.13296 11.2083 7.10742 11.3435 7.10742 11.4968C7.10742 11.9461 7.37882 12.2505 7.82062 12.2505C8.19093 12.2505 8.3878 12.0323 8.54554 11.6723C8.80476 10.8862 9.33585 10.4906 10.0889 10.4906C10.9369 10.4906 11.4914 11.0196 11.4914 11.7918C11.4914 12.5029 10.9284 13.1044 10.3744 13.7501L7.52319 17.1002C7.30101 17.3543 7.20421 17.5852 7.20421 17.8596C7.20421 18.3321 7.51593 18.6312 7.97577 18.6312ZM17.7768 18.8817C19.7864 18.8817 21.1556 17.7394 21.1556 16.0739C21.1556 14.8912 20.4257 13.965 19.233 13.7072V13.6305C20.2394 13.3587 20.82 12.5423 20.82 11.5333C20.82 10.0352 19.5797 9.00372 17.7961 9.00372C16.0221 9.00372 14.7818 10.0352 14.7818 11.5333C14.7818 12.5423 15.3527 13.3394 16.3687 13.6305V13.7072C15.1568 13.965 14.4461 14.9009 14.4461 16.0835C14.4461 17.7586 15.7769 18.8817 17.7768 18.8817ZM17.8057 17.547C16.8042 17.547 16.08 16.8954 16.08 15.9612C16.08 15.0462 16.8042 14.3733 17.8057 14.3733C18.8264 14.3733 19.5314 15.0366 19.5314 15.9612C19.5314 16.8954 18.8072 17.547 17.8057 17.547ZM17.7961 13.088C16.9685 13.088 16.3914 12.4971 16.3914 11.6929C16.3914 10.8867 16.9706 10.3322 17.7961 10.3322C18.6311 10.3322 19.2103 10.8867 19.2103 11.6929C19.2103 12.4971 18.6332 13.088 17.7961 13.088Z" fill="black"/>
</svg>
