<svg width="28" height="28" viewBox="0 0 28 28" fill="none" xmlns="http://www.w3.org/2000/svg">
<path d="M6.84421 24.8972H21.0295C23.5685 24.8972 24.8737 23.5919 24.8737 21.0914V6.82921C24.8737 4.32656 23.5685 3.02344 21.0295 3.02344H6.84421C4.31484 3.02344 3 4.31695 3 6.82921V21.0914C3 23.6016 4.31484 24.8972 6.84421 24.8972ZM6.97733 22.6013C5.88772 22.6013 5.29592 22.0371 5.29592 20.8985V7.01999C5.29592 5.88139 5.88772 5.31936 6.97733 5.31936H20.8964C21.9764 5.31936 22.5778 5.88139 22.5778 7.01999V20.8985C22.5778 22.0371 21.9764 22.6013 20.8964 22.6013H6.97733Z" fill="black"/>
<path d="M12.8092 19.3552C16.1252 19.3552 18.0602 16.9493 18.0602 14.8652C18.0602 14.3341 17.7421 13.9873 17.2422 13.9873C16.804 13.9873 16.5028 14.2458 16.4018 14.8059C16.2056 16.3017 15.0035 17.6599 13.2832 17.6599V14.1368L15.6564 13.1742C15.9112 13.0655 16.0305 12.8939 16.0305 12.6424C16.0305 12.327 15.8163 12.0989 15.4966 12.0989C15.4007 12.0989 15.2932 12.1223 15.1952 12.1596L13.2832 12.9485V11.8859L15.6564 10.9212C15.9112 10.8028 16.0305 10.6409 16.0305 10.3915C16.0305 10.0739 15.8163 9.83625 15.4966 9.83625C15.4007 9.83625 15.2932 9.87141 15.1952 9.90656L13.2832 10.688V9.33469C13.2832 8.78039 12.9407 8.42719 12.4375 8.42719C11.9226 8.42719 11.5844 8.78039 11.5844 9.33469V11.3573L10.1983 11.9339C9.93391 12.0405 9.82422 12.2025 9.82422 12.4636C9.82422 12.7791 10.0384 13.0092 10.3581 13.0092C10.454 13.0092 10.552 12.9837 10.6595 12.9368L11.5844 12.5552V13.62L10.1983 14.1848C9.93391 14.2936 9.82422 14.4652 9.82422 14.7166C9.82422 15.0321 10.0384 15.2602 10.3581 15.2602C10.454 15.2602 10.552 15.2367 10.6595 15.1994L11.5844 14.8083V18.229C11.5844 18.9009 12.0074 19.3552 12.8092 19.3552Z" fill="black"/>
</svg>
