<svg width="28" height="28" viewBox="0 0 28 28" fill="none" xmlns="http://www.w3.org/2000/svg">
<path d="M14.105 26.21C20.7369 26.21 26.2121 20.7273 26.2121 14.105C26.2121 7.47312 20.7273 2 14.0954 2C7.47523 2 2 7.47312 2 14.105C2 20.7273 7.48484 26.21 14.105 26.21ZM14.105 23.8255C8.71085 23.8255 4.39412 19.4991 4.39412 14.105C4.39412 8.71085 8.70124 4.38452 14.0954 4.38452C19.4895 4.38452 23.8276 8.71085 23.8276 14.105C23.8276 19.4991 19.4991 23.8255 14.105 23.8255Z" fill="black"/>
<path d="M10.3692 19.0419C12.3342 19.0419 13.6554 17.2243 13.6554 14.1029C13.6554 10.9794 12.3342 9.16391 10.3692 9.16391C8.40211 9.16391 7.0957 10.9794 7.0957 14.1029C7.0957 17.2243 8.40211 19.0419 10.3692 19.0419ZM10.3756 17.472C9.39304 17.472 8.77218 16.2516 8.77218 14.1029C8.77218 11.9541 9.39304 10.7337 10.3756 10.7337C11.3581 10.7337 11.981 11.9541 11.981 14.1029C11.981 16.2516 11.3677 17.472 10.3756 17.472ZM15.7889 18.7913H20.3578C20.7897 18.7913 21.0963 18.4869 21.0963 18.0144C21.0963 17.5386 20.7897 17.2651 20.3578 17.2651H17.3041V17.1809L19.3647 14.7812C20.2319 13.7755 20.8406 12.9486 20.8385 11.8105C20.8322 10.2111 19.6844 9.16391 17.8804 9.16391C16.4974 9.16391 15.2922 10.025 14.9854 11.2055C14.9461 11.3684 14.9205 11.5037 14.9205 11.657C14.9205 12.1062 15.1919 12.4107 15.6337 12.4107C16.0136 12.4107 16.2105 12.1925 16.3565 11.8325C16.6179 11.0464 17.1565 10.6508 17.9116 10.6508C18.75 10.6508 19.3045 11.1798 19.3045 11.952C19.3045 12.6631 18.7415 13.2645 18.1875 13.9102L15.3438 17.2604C15.1141 17.5145 15.0269 17.7453 15.0269 18.0198C15.0269 18.4923 15.329 18.7913 15.7889 18.7913Z" fill="black"/>
</svg>
