<svg width="28" height="28" viewBox="0 0 28 28" fill="none" xmlns="http://www.w3.org/2000/svg">
<path d="M14.105 26.21C20.7369 26.21 26.2121 20.7273 26.2121 14.105C26.2121 7.47312 20.7273 2 14.0954 2C7.47523 2 2 7.47312 2 14.105C2 20.7273 7.48484 26.21 14.105 26.21Z" fill="black"/>
<path d="M10.1588 19.2376C8.56251 19.2376 7.28516 18.2551 6.96547 17.1755C6.9261 17.0127 6.89844 16.8711 6.89844 16.6986C6.89844 16.2282 7.23782 15.9109 7.66274 15.9109C8.02367 15.9109 8.24609 16.1005 8.4132 16.4809C8.73078 17.2487 9.33102 17.6689 10.1769 17.6689C11.2041 17.6689 11.9157 17.0354 11.9157 16.2076C11.9157 15.3244 11.2618 14.7474 10.2432 14.7474H9.64438C9.17212 14.7474 8.88782 14.4111 8.88782 13.9695C8.88782 13.482 9.19649 13.167 9.64438 13.167H10.193C11.0675 13.167 11.6448 12.5848 11.6448 11.8072C11.6448 11.0372 11.0464 10.52 10.2005 10.52C9.35469 10.52 8.83531 10.936 8.56578 11.7059C8.42961 12.0842 8.2093 12.278 7.82493 12.278C7.37563 12.278 7.08079 11.9586 7.08079 11.4807C7.08079 11.3178 7.08922 11.1741 7.14126 10.9986C7.45133 9.90146 8.62251 8.96606 10.2378 8.96606C12.0498 8.96606 13.3144 10.0294 13.3144 11.5763C13.3144 12.6709 12.5663 13.6534 11.5902 13.8132V13.8919C12.7667 14.0103 13.6269 15.0289 13.6269 16.2927C13.6269 18.0228 12.215 19.2376 10.1588 19.2376ZM15.9544 18.9753C15.4766 18.9753 15.1585 18.6624 15.1585 18.1698C15.1585 17.8773 15.2553 17.6326 15.4913 17.3722L18.4372 13.8985C19.0072 13.2327 19.5957 12.6057 19.5957 11.8711C19.5957 11.0754 19.0252 10.5326 18.1634 10.5326C17.3869 10.5326 16.8228 10.9325 16.5519 11.7516C16.4016 12.1276 16.193 12.35 15.793 12.35C15.3331 12.35 15.0479 12.0317 15.0479 11.5622C15.0479 11.4047 15.0734 11.2578 15.1128 11.0928C15.4238 9.86864 16.6939 8.96606 18.1226 8.96606C19.9883 8.96606 21.1988 10.0569 21.2052 11.7254C21.2073 12.905 20.573 13.7637 19.6761 14.813L17.5451 17.2831V17.3811H20.6926C21.1447 17.3811 21.4597 17.6588 21.4597 18.1644C21.4597 18.657 21.1447 18.9753 20.6926 18.9753H15.9544Z" fill="white"/>
</svg>
