<svg width="28" height="28" viewBox="0 0 28 28" fill="none" xmlns="http://www.w3.org/2000/svg">
<path d="M14.105 26.21C20.7369 26.21 26.2121 20.7273 26.2121 14.105C26.2121 7.47312 20.7273 2 14.0954 2C7.47523 2 2 7.47312 2 14.105C2 20.7273 7.48484 26.21 14.105 26.21ZM14.105 23.8255C8.71085 23.8255 4.39412 19.4991 4.39412 14.105C4.39412 8.71085 8.70124 4.38452 14.0954 4.38452C19.4895 4.38452 23.8276 8.71085 23.8276 14.105C23.8276 19.4991 19.4991 23.8255 14.105 23.8255Z" fill="black"/>
<path d="M14.0925 20.6909C14.3983 20.6909 14.6243 20.4746 14.6243 20.1528V19.3662C16.5208 19.1905 17.9451 18.1084 17.9451 16.3283C17.9451 14.7303 16.9202 13.7884 14.879 13.4145L14.6243 13.3604V10.4093C15.3837 10.549 15.9105 10.9981 16.1365 11.6947C16.2979 12.0779 16.5522 12.3026 16.9631 12.3026C17.429 12.3026 17.7558 11.9961 17.7558 11.5437C17.7558 11.4139 17.7206 11.2819 17.6908 11.1446C17.3777 9.93169 16.1876 9.0645 14.6243 8.89505V8.10966C14.6243 7.78786 14.3983 7.57153 14.0925 7.57153C13.7845 7.57153 13.5607 7.78786 13.5607 8.10966V8.89505C11.7141 9.0795 10.4041 10.2076 10.4041 11.8414C10.4041 13.3592 11.4204 14.2519 13.3753 14.7005L13.5607 14.7451V17.8658C12.6051 17.7303 12.0431 17.2098 11.8619 16.5111C11.6939 16.0937 11.4321 15.8851 11.0341 15.8851C10.5513 15.8851 10.2363 16.2043 10.2363 16.6693C10.2363 16.8066 10.2619 16.9386 10.3076 17.0726C10.6399 18.3254 11.8997 19.2052 13.5607 19.3491V20.1528C13.5607 20.4746 13.7845 20.6909 14.0925 20.6909ZM13.5607 13.0843L13.4786 13.0609C12.5231 12.792 12.0923 12.3697 12.0923 11.7394C12.0923 11.0858 12.6511 10.5514 13.5607 10.4009V13.0843ZM14.6243 15.0094L14.8526 15.0617C15.888 15.3423 16.2494 15.7679 16.2494 16.4483C16.2494 17.1927 15.7078 17.7399 14.6243 17.8658V15.0094Z" fill="black"/>
</svg>
