<svg width="28" height="28" viewBox="0 0 28 28" fill="none" xmlns="http://www.w3.org/2000/svg">
<path d="M14.105 26.21C20.7369 26.21 26.2121 20.7273 26.2121 14.105C26.2121 7.47312 20.7273 2 14.0954 2C7.47523 2 2 7.47312 2 14.105C2 20.7273 7.48484 26.21 14.105 26.21Z" fill="black"/>
<path d="M14.1044 19.7959C11.2241 19.7959 9.2793 18.1585 9.2793 15.6303V9.62955C9.2793 8.81697 9.70047 8.34143 10.4247 8.34143C11.1777 8.34143 11.5989 8.81908 11.5989 9.62955V15.4069C11.5989 16.9269 12.5983 17.8866 14.1044 17.8866C15.6126 17.8866 16.6024 16.9269 16.6024 15.4069V9.62955C16.6024 8.81908 17.0332 8.34143 17.7553 8.34143C18.5104 8.34143 18.9316 8.81697 18.9316 9.62955V15.6303C18.9316 18.1585 16.9867 19.7959 14.1044 19.7959Z" fill="white"/>
</svg>
