<svg width="28" height="28" viewBox="0 0 28 28" fill="none" xmlns="http://www.w3.org/2000/svg">
<path d="M14.105 26.21C20.7369 26.21 26.2121 20.7273 26.2121 14.105C26.2121 7.47312 20.7273 2 14.0954 2C7.47523 2 2 7.47312 2 14.105C2 20.7273 7.48484 26.21 14.105 26.21ZM14.105 23.8255C8.71085 23.8255 4.39412 19.4991 4.39412 14.105C4.39412 8.71085 8.70124 4.38452 14.0954 4.38452C19.4895 4.38452 23.8276 8.71085 23.8276 14.105C23.8276 19.4991 19.4991 23.8255 14.105 23.8255Z" fill="black"/>
<path d="M14.2662 20.9398C14.5817 20.9398 14.8194 20.7139 14.8194 20.3771V19.632C17.2705 19.4434 18.6094 17.7303 18.6094 15.1398V14.6298C18.6094 14.0731 18.252 13.738 17.7052 13.738H14.8194V10.2678C15.7198 10.4065 16.4558 11.0232 16.7431 11.8667C16.9292 12.309 17.139 12.4941 17.5892 12.4941C18.065 12.4941 18.3863 12.1695 18.3863 11.6844C18.3863 11.4713 18.3373 11.2871 18.2724 11.0954C17.777 9.75662 16.438 8.81443 14.8194 8.6492V7.88748C14.8194 7.55279 14.5817 7.33646 14.2662 7.33646C13.9391 7.33646 13.7035 7.55279 13.7035 7.88748V8.66842C11.1791 8.94357 9.58203 11.0023 9.58203 14.1399C9.58203 17.3267 11.1683 19.3346 13.7035 19.6203V20.3771C13.7035 20.7139 13.9487 20.9398 14.2662 20.9398ZM13.7035 18.0153C12.2736 17.6998 11.4097 16.2605 11.4097 14.1315C11.4097 12.027 12.2694 10.5919 13.7035 10.2891V18.0153ZM14.8194 18.0559V15.2389H16.8235V15.4672C16.8235 16.8741 16.0822 17.8681 14.8194 18.0559Z" fill="black"/>
</svg>
