<svg width="28" height="28" viewBox="0 0 28 28" fill="none" xmlns="http://www.w3.org/2000/svg">
<path d="M6.84421 24.8972H21.0295C23.5685 24.8972 24.8737 23.5919 24.8737 21.0914V6.82921C24.8737 4.32656 23.5685 3.02344 21.0295 3.02344H6.84421C4.31484 3.02344 3 4.31695 3 6.82921V21.0914C3 23.6016 4.31484 24.8972 6.84421 24.8972Z" fill="black"/>
<path d="M13.9169 19.6987C11.9027 19.6987 10.2881 18.7601 9.89953 17.3845C9.84633 17.1982 9.82617 17.0695 9.82617 16.8769C9.82617 16.3045 10.2368 15.9225 10.8366 15.9225C11.2889 15.9225 11.5889 16.1302 11.7951 16.5647C12.0966 17.3271 12.7746 17.8882 13.9605 17.8882C15.2107 17.8882 16.0545 17.2652 16.0545 16.3041C16.0545 15.3323 15.2224 14.6751 13.9854 14.6751H13.2937C12.7387 14.6751 12.357 14.3123 12.357 13.7998C12.357 13.2584 12.7324 12.9094 13.2937 12.9094H13.9256C14.9782 12.9094 15.7238 12.2608 15.7238 11.3639C15.7238 10.4967 15.0572 9.96444 13.9725 9.96444C12.9635 9.96444 12.2705 10.4679 11.9883 11.288C11.7991 11.7267 11.5012 11.9419 11.0339 11.9419C10.4395 11.9419 10.0427 11.5673 10.0427 11.0046C10.0427 10.8162 10.0587 10.6641 10.1044 10.4777C10.462 9.07546 11.9777 8.18671 14.0055 8.18671C16.3064 8.18671 17.8964 9.39163 17.8964 11.115C17.8964 12.3469 16.9589 13.4454 15.7549 13.6169V13.7297C17.2083 13.8619 18.262 14.9944 18.262 16.4081C18.262 18.352 16.6092 19.6987 13.9169 19.6987Z" fill="white"/>
</svg>
