<svg width="28" height="28" viewBox="0 0 28 28" fill="none" xmlns="http://www.w3.org/2000/svg">
<path d="M14.105 26.21C20.7369 26.21 26.2121 20.7273 26.2121 14.105C26.2121 7.47312 20.7273 2 14.0954 2C7.47523 2 2 7.47312 2 14.105C2 20.7273 7.48484 26.21 14.105 26.21Z" fill="black"/>
<path d="M9.99266 19.2376C8.39422 19.2376 7.09766 18.2551 6.78969 17.1755C6.74071 17.0127 6.72266 16.8711 6.72266 16.6986C6.72266 16.2165 7.05992 15.9109 7.48484 15.9109C7.84578 15.9109 8.07781 16.1005 8.23531 16.4809C8.5475 17.2487 9.16273 17.6689 10.0086 17.6689C11.0359 17.6689 11.7378 17.0354 11.7378 16.2076C11.7378 15.3244 11.0956 14.7474 10.0578 14.7474H9.4782C8.99422 14.7474 8.72164 14.4111 8.72164 13.9695C8.72164 13.482 9.00899 13.167 9.4782 13.167H10.0194C10.88 13.167 11.4711 12.5848 11.4711 11.8072C11.4711 11.0372 10.8685 10.52 10.0269 10.52C9.18852 10.52 8.65953 10.936 8.38789 11.7059C8.25172 12.0842 8.03352 12.278 7.64914 12.278C7.20946 12.278 6.905 11.9586 6.905 11.4807C6.905 11.3178 6.92094 11.1741 6.96336 10.9986C7.27344 9.90146 8.44461 8.96606 10.0599 8.96606C11.8815 8.96606 13.1366 10.0294 13.1366 11.5763C13.1366 12.6709 12.3789 13.6534 11.4219 13.8132V13.8919C12.6006 14.0103 13.4394 15.0289 13.4394 16.2927C13.4394 18.0228 12.0392 19.2376 9.99266 19.2376ZM18.3081 19.2493C17.065 19.2493 16.0178 18.7595 15.4114 17.5707C15.0139 16.8102 14.788 15.7426 14.788 14.3356C14.788 10.7593 16.2472 8.96606 18.534 8.96606C19.8819 8.96606 20.8218 9.65349 21.1403 10.4304C21.2253 10.6135 21.253 10.7647 21.253 10.9561C21.253 11.3883 20.9413 11.6747 20.5857 11.6747C20.229 11.6747 20.0289 11.5203 19.8339 11.2346C19.5439 10.8101 19.1045 10.5052 18.4658 10.5052C17.2309 10.5052 16.3822 11.8041 16.3822 13.8477C16.3822 13.9421 16.3843 13.993 16.3864 14.0492H16.4664C16.7593 13.2924 17.5248 12.6123 18.7367 12.6123C20.2501 12.6123 21.6207 13.7375 21.6207 15.7527C21.6207 17.9401 20.2461 19.2493 18.3081 19.2493ZM18.2272 17.7784C19.2693 17.7784 19.9379 17.0277 19.9379 15.8567C19.9379 14.753 19.2404 13.9927 18.2272 13.9927C17.2044 13.9927 16.5027 14.7626 16.5027 15.8471C16.5027 16.9817 17.214 17.7784 18.2272 17.7784Z" fill="white"/>
</svg>
