<svg width="28" height="28" viewBox="0 0 28 28" fill="none" xmlns="http://www.w3.org/2000/svg">
<path d="M14.105 26.21C20.7369 26.21 26.2121 20.7273 26.2121 14.105C26.2121 7.47312 20.7273 2 14.0954 2C7.47523 2 2 7.47312 2 14.105C2 20.7273 7.48484 26.21 14.105 26.21Z" fill="black"/>
<path d="M8.0882 18.9753C7.61031 18.9753 7.28265 18.6624 7.28265 18.1698C7.28265 17.8773 7.37945 17.6326 7.61546 17.3722L10.5709 13.8985C11.1409 13.2327 11.7295 12.6057 11.7295 11.8711C11.7295 11.0754 11.1494 10.5326 10.278 10.5326C9.50687 10.5326 8.95656 10.9325 8.68562 11.7516C8.51617 12.1276 8.32468 12.35 7.92672 12.35C7.46687 12.35 7.18164 12.0317 7.18164 11.5622C7.18164 11.4047 7.20719 11.2578 7.23695 11.0928C7.55758 9.86864 8.81594 8.96606 10.2468 8.96606C12.1221 8.96606 13.323 10.0569 13.3272 11.7254C13.3315 12.905 12.6972 13.7637 11.8002 14.813L9.67679 17.2831V17.3811H12.8264C13.2689 17.3811 13.5893 17.6588 13.5893 18.1644C13.5893 18.657 13.2689 18.9753 12.8264 18.9753H8.0882ZM18.1952 19.2376C16.5968 19.2376 15.3002 18.2551 14.9922 17.1755C14.9433 17.0127 14.9231 16.8711 14.9231 16.6986C14.9231 16.2282 15.2625 15.9109 15.6874 15.9109C16.0483 15.9109 16.2804 16.1005 16.4379 16.4809C16.7576 17.2487 17.3653 17.6689 18.2112 17.6689C19.2384 17.6689 19.9404 17.0354 19.9404 16.2076C19.9404 15.3244 19.2982 14.7474 18.2604 14.7474H17.6828C17.1988 14.7474 16.9263 14.4111 16.9263 13.9695C16.9263 13.482 17.2136 13.167 17.6828 13.167H18.2219C19.0826 13.167 19.6737 12.5848 19.6737 11.8072C19.6737 11.0372 19.0732 10.52 18.2294 10.52C17.3911 10.52 16.8621 10.936 16.5904 11.7059C16.4447 12.0842 16.2436 12.278 15.8612 12.278C15.412 12.278 15.1076 11.9586 15.1076 11.4807C15.1076 11.3178 15.1235 11.1741 15.1659 10.9986C15.4781 9.90146 16.6472 8.96606 18.2646 8.96606C20.084 8.96606 21.3391 10.0294 21.3391 11.5763C21.3391 12.6709 20.5835 13.6534 19.6244 13.8132V13.8919C20.8031 14.0103 21.6419 15.0289 21.6419 16.2927C21.6419 18.0228 20.2418 19.2376 18.1952 19.2376Z" fill="white"/>
</svg>
