<svg width="28" height="28" viewBox="0 0 28 28" fill="none" xmlns="http://www.w3.org/2000/svg">
<path d="M6.84421 24.8972H21.0295C23.5685 24.8972 24.8737 23.5919 24.8737 21.0914V6.82921C24.8737 4.32656 23.5685 3.02344 21.0295 3.02344H6.84421C4.31484 3.02344 3 4.31695 3 6.82921V21.0914C3 23.6016 4.31484 24.8972 6.84421 24.8972Z" fill="black"/>
<path d="M9.94203 19.0582C8.34359 19.0582 7.06836 18.0757 6.75078 16.9962C6.7093 16.8429 6.68164 16.7013 6.68164 16.5288C6.68164 16.0467 7.0114 15.7411 7.44382 15.7411C7.80687 15.7411 8.02718 15.9286 8.1964 16.2994C8.51609 17.0789 9.11421 17.4895 9.96008 17.4895C10.9852 17.4895 11.6989 16.856 11.6989 16.0261C11.6989 15.143 11.0429 14.5776 10.0264 14.5776H9.42757C8.95742 14.5776 8.67102 14.2413 8.67102 13.7998C8.67102 13.3123 8.97758 12.9973 9.42757 12.9973H9.96875C10.8486 12.9973 11.4301 12.4151 11.4301 11.6374C11.4301 10.8675 10.8317 10.3502 9.97625 10.3502C9.13578 10.3502 8.61851 10.7566 8.34898 11.5362C8.21281 11.9144 7.9925 12.1083 7.61023 12.1083C7.16094 12.1083 6.86609 11.7888 6.86609 11.3109C6.86609 11.1384 6.87242 11.0044 6.92234 10.8288C7.23453 9.73172 8.4057 8.79633 10.0189 8.79633C11.833 8.79633 13.1072 9.85969 13.1072 11.4066C13.1072 12.5011 12.3516 13.4836 11.3734 13.6434V13.7222C12.552 13.8288 13.4101 14.8495 13.4101 16.1133C13.4101 17.8434 12.0003 19.0582 9.94203 19.0582ZM17.9251 19.0582C15.8846 19.0582 14.525 17.1853 14.525 13.9331C14.525 10.6713 15.8846 8.79633 17.9251 8.79633C19.9709 8.79633 21.3399 10.6713 21.3399 13.9331C21.3399 17.1853 19.9709 19.0582 17.9251 19.0582ZM17.9335 17.4087C18.9683 17.4087 19.5934 16.1531 19.5934 13.9331C19.5934 11.7014 18.9587 10.448 17.9335 10.448C16.9254 10.448 16.2811 11.7014 16.2811 13.9331C16.2811 16.1531 16.9254 17.4087 17.9335 17.4087Z" fill="white"/>
</svg>
