<svg width="28" height="28" viewBox="0 0 28 28" fill="none" xmlns="http://www.w3.org/2000/svg">
<path d="M14.105 26.21C20.7369 26.21 26.2121 20.7273 26.2121 14.105C26.2121 7.47312 20.7273 2 14.0954 2C7.47523 2 2 7.47312 2 14.105C2 20.7273 7.48484 26.21 14.105 26.21Z" fill="black"/>
<path d="M10.1527 19.2376C8.55423 19.2376 7.27149 18.2551 6.9593 17.1755C6.91993 17.0127 6.88477 16.8711 6.88477 16.6986C6.88477 16.2282 7.22204 15.9109 7.65446 15.9109C8.01539 15.9109 8.23992 16.1005 8.40703 16.4809C8.71711 17.2487 9.32696 17.6689 10.1707 17.6689C11.1959 17.6689 11.9074 17.0354 11.9074 16.2076C11.9074 15.3244 11.2556 14.7474 10.2274 14.7474H9.64032C9.16805 14.7474 8.88376 14.4111 8.88376 13.9695C8.88376 13.482 9.19032 13.167 9.64032 13.167H10.1794C11.0592 13.167 11.6407 12.5848 11.6407 11.8072C11.6407 11.0372 11.0402 10.52 10.1869 10.52C9.34852 10.52 8.83125 10.936 8.54789 11.7059C8.42344 12.0842 8.20524 12.278 7.81876 12.278C7.36946 12.278 7.07462 11.9586 7.07462 11.4807C7.07462 11.3178 7.08305 11.1741 7.12337 10.9986C7.43766 9.90146 8.61845 8.96606 10.222 8.96606C12.0457 8.96606 13.3104 10.0294 13.3104 11.5763C13.3104 12.6709 12.5527 13.6534 11.584 13.8132V13.8919C12.7606 14.0103 13.6036 15.0289 13.6036 16.2927C13.6036 18.0228 12.2089 19.2376 10.1527 19.2376ZM18.1027 19.2376C16.6079 19.2376 15.4547 18.4407 15.102 17.5004C15.0307 17.3194 14.9977 17.1277 14.9977 16.9243C14.9977 16.4858 15.3073 16.1537 15.7449 16.1537C16.0683 16.1537 16.2943 16.3548 16.4785 16.6768C16.8195 17.3148 17.4479 17.7252 18.1953 17.7252C19.2596 17.7252 19.9805 17.0141 19.9805 15.8623C19.9805 14.8503 19.3172 14.0741 18.3617 14.0741C17.8723 14.0741 17.5172 14.2372 17.0588 14.6307C16.6995 14.9197 16.4567 15.0357 16.0437 15.0357C15.4517 15.0357 15.0982 14.6012 15.1334 13.9388L15.4107 10.31C15.4479 9.62114 15.8698 9.20911 16.5322 9.20911H20.5636C20.9827 9.20911 21.2541 9.51474 21.2541 9.9563C21.2541 10.4096 20.9668 10.7077 20.5636 10.7077H16.8143L16.5989 13.5938H16.6533C17.0049 13.0452 17.8278 12.6657 18.6111 12.6657C20.3827 12.6657 21.6336 13.9597 21.6336 15.8103C21.6336 17.923 20.2376 19.2376 18.1027 19.2376Z" fill="white"/>
</svg>
