<svg width="28" height="28" viewBox="0 0 28 28" fill="none" xmlns="http://www.w3.org/2000/svg">
<path d="M6.84421 24.8972H21.0295C23.5685 24.8972 24.8737 23.5919 24.8737 21.0914V6.82921C24.8737 4.32656 23.5685 3.02344 21.0295 3.02344H6.84421C4.31484 3.02344 3 4.31695 3 6.82921V21.0914C3 23.6016 4.31484 24.8972 6.84421 24.8972Z" fill="black"/>
<path d="M10.781 19.4877C10.0652 19.4877 9.63867 19.0079 9.63867 18.19V9.51907C9.63867 8.699 10.0652 8.21924 10.781 8.21924C11.5256 8.21924 11.9468 8.70111 11.9468 9.51907V13.3014H12.0234L16.3889 8.71142C16.7166 8.36596 16.9676 8.21924 17.3302 8.21924C17.9248 8.21924 18.3938 8.6533 18.3938 9.18837C18.3938 9.50853 18.3012 9.72884 18.0502 10.0138L14.9995 13.2013L18.3221 17.5717C18.522 17.8567 18.6296 18.1229 18.6296 18.4176C18.6296 19.0335 18.1648 19.4877 17.517 19.4877C17.1054 19.4877 16.8139 19.3122 16.5172 18.9144L13.3095 14.6493L11.9468 16.0883V18.2153C11.9468 19.0164 11.5172 19.4877 10.781 19.4877Z" fill="white"/>
</svg>
