<svg width="28" height="28" viewBox="0 0 28 28" fill="none" xmlns="http://www.w3.org/2000/svg">
<path d="M6.84421 24.8972H21.0295C23.5685 24.8972 24.8737 23.5919 24.8737 21.0914V6.82921C24.8737 4.32656 23.5685 3.02344 21.0295 3.02344H6.84421C4.31484 3.02344 3 4.31695 3 6.82921V21.0914C3 23.6016 4.31484 24.8972 6.84421 24.8972ZM6.97733 22.6013C5.88772 22.6013 5.29592 22.0371 5.29592 20.8985V7.01999C5.29592 5.88139 5.88772 5.31936 6.97733 5.31936H20.8964C21.9764 5.31936 22.5778 5.88139 22.5778 7.01999V20.8985C22.5778 22.0371 21.9764 22.6013 20.8964 22.6013H6.97733Z" fill="black"/>
<path d="M11.4134 18.8625C11.9095 18.8625 12.1852 18.5196 12.1852 18.0394V16.7916H12.7294C13.1711 16.7916 13.4395 16.534 13.4395 16.0901C13.4395 15.6366 13.1615 15.3609 12.7294 15.3609H12.1852V10.2394C12.1852 9.47956 11.692 9.00378 10.9259 9.00378C10.1829 9.00378 9.73899 9.29112 9.34172 9.98417C8.45977 11.4982 7.39218 13.3894 6.69023 14.6934C6.50694 15.0736 6.43359 15.3736 6.43359 15.7301C6.43359 16.3955 6.84679 16.7958 7.5014 16.7958H10.6554V18.0394C10.6554 18.51 10.9289 18.8625 11.4134 18.8625ZM10.6554 15.3673H8.07514V15.3204C8.68851 14.1016 9.76687 12.1446 10.5914 10.685H10.6554V15.3673ZM19.3019 18.8625C19.7981 18.8625 20.0737 18.5196 20.0737 18.0394V16.7916H20.6254C21.0576 16.7916 21.3281 16.534 21.3281 16.0901C21.3281 15.6366 21.0576 15.3609 20.6254 15.3609H20.0737V10.2394C20.0737 9.47956 19.5881 9.00378 18.8123 9.00378C18.0811 9.00378 17.6254 9.29112 17.2378 9.98417C16.3462 11.4982 15.2786 13.3894 14.5863 14.6934C14.4051 15.0736 14.32 15.3736 14.32 15.7301C14.32 16.3955 14.7428 16.7958 15.39 16.7958H18.5418V18.0394C18.5418 18.51 18.8175 18.8625 19.3019 18.8625ZM18.5418 15.3673H15.9616V15.3204C16.5771 14.1016 17.6554 12.1446 18.4875 10.685H18.5418V15.3673Z" fill="black"/>
</svg>
