<svg width="28" height="28" viewBox="0 0 28 28" fill="none" xmlns="http://www.w3.org/2000/svg">
<path d="M14.105 26.21C20.7369 26.21 26.2121 20.7273 26.2121 14.105C26.2121 7.47312 20.7273 2 14.0954 2C7.47523 2 2 7.47312 2 14.105C2 20.7273 7.48484 26.21 14.105 26.21Z" fill="black"/>
<path d="M8.11944 18.9753C7.64155 18.9753 7.3139 18.6624 7.3139 18.1698C7.3139 17.8773 7.4107 17.6422 7.64671 17.3722L10.6022 13.9081C11.1701 13.2348 11.7607 12.6195 11.7607 11.8712C11.7607 11.0776 11.1902 10.5326 10.3071 10.5326C9.54023 10.5326 8.98569 10.9442 8.71686 11.7516C8.55702 12.1297 8.35804 12.3596 7.95796 12.3596C7.49812 12.3596 7.21289 12.0413 7.21289 11.5644C7.21289 11.4069 7.23843 11.2695 7.2682 11.0949C7.58882 9.86867 8.84718 8.97992 10.278 8.97992C12.1532 8.97992 13.3542 10.0665 13.3584 11.7254C13.3605 12.9092 12.738 13.7755 11.8294 14.813L9.70803 17.2948V17.3811H12.8575C13.3 17.3811 13.6225 17.6684 13.6225 18.1644C13.6225 18.657 13.3 18.9753 12.8575 18.9753H8.11944ZM15.9801 18.9753C15.5001 18.9753 15.1725 18.6624 15.1725 18.1698C15.1725 17.8773 15.2693 17.6422 15.5095 17.3722L18.4629 13.9081C19.0308 13.2348 19.6193 12.6195 19.6193 11.8712C19.6193 11.0776 19.0413 10.5326 18.1699 10.5326C17.3913 10.5326 16.8485 10.9442 16.5658 11.7516C16.406 12.1297 16.207 12.3596 15.809 12.3596C15.3567 12.3596 15.0715 12.0413 15.0715 11.5644C15.0715 11.4069 15.097 11.2695 15.1289 11.0949C15.4474 9.86867 16.7079 8.97992 18.1366 8.97992C20.0118 8.97992 21.2128 10.0665 21.2212 11.7254C21.2233 12.9092 20.587 13.7755 19.6922 14.813L17.5687 17.2948V17.3811H20.7086C21.1608 17.3811 21.4833 17.6684 21.4833 18.1644C21.4833 18.657 21.1608 18.9753 20.7086 18.9753H15.9801Z" fill="white"/>
</svg>
