<svg width="28" height="28" viewBox="0 0 28 28" fill="none" xmlns="http://www.w3.org/2000/svg">
<path d="M14.105 26.21C20.7369 26.21 26.2121 20.7273 26.2121 14.105C26.2121 7.47312 20.7273 2 14.0954 2C7.47523 2 2 7.47312 2 14.105C2 20.7273 7.48484 26.21 14.105 26.21Z" fill="black"/>
<path d="M11.6343 19.2161C11.1222 19.2161 10.852 18.8498 10.852 18.3516V17.0728H7.58617C6.89758 17.0728 6.46094 16.6544 6.46094 15.9593C6.46094 15.5847 6.54602 15.2688 6.73891 14.8706C7.46431 13.5218 8.55743 11.5711 9.47666 9.99634C9.88775 9.27142 10.3497 8.96814 11.1266 8.96814C11.9364 8.96814 12.4476 9.47369 12.4476 10.2654V15.57H13.0035C13.4633 15.57 13.738 15.8615 13.738 16.3352C13.738 16.7951 13.4633 17.0665 13.0035 17.0665H12.4476V18.3516C12.4476 18.8595 12.1581 19.2161 11.6343 19.2161ZM10.852 15.5763V10.7269H10.7784C9.9304 12.2493 8.82649 14.2617 8.18969 15.5294V15.5763H10.852ZM17.9955 19.2354C16.5027 19.2354 15.3496 18.4385 14.9947 17.4982C14.916 17.3193 14.8733 17.1276 14.8733 16.9242C14.8733 16.4857 15.1904 16.1536 15.6184 16.1536C15.9536 16.1536 16.1795 16.3547 16.3637 16.6767C16.7026 17.3147 17.3214 17.7229 18.0784 17.7229C19.1427 17.7229 19.8562 17.014 19.8562 15.8622C19.8562 14.8502 19.2004 14.074 18.2394 14.074C17.7458 14.074 17.4004 14.2371 16.9344 14.6306C16.573 14.9196 16.3398 15.0356 15.9269 15.0356C15.3444 15.0356 14.9814 14.6011 15.0262 13.9387L15.2842 10.312C15.3311 9.62111 15.753 9.20908 16.4249 9.20908H20.4468C20.8658 9.20908 21.1372 9.51471 21.1372 9.95838C21.1372 10.4095 20.8499 10.7077 20.4468 10.7077H16.6996L16.4917 13.5937H16.5365C16.8976 13.0451 17.7205 12.6656 18.5038 12.6656C20.2658 12.6656 21.5071 13.9596 21.5071 15.8102C21.5071 17.9229 20.1208 19.2354 17.9955 19.2354Z" fill="white"/>
</svg>
