<svg width="28" height="28" viewBox="0 0 28 28" fill="none" xmlns="http://www.w3.org/2000/svg">
<path d="M14.105 26.21C20.7369 26.21 26.2121 20.7273 26.2121 14.105C26.2121 7.47312 20.7273 2 14.0954 2C7.47523 2 2 7.47312 2 14.105C2 20.7273 7.48484 26.21 14.105 26.21ZM14.105 23.8255C8.71085 23.8255 4.39412 19.4991 4.39412 14.105C4.39412 8.71085 8.70124 4.38452 14.0954 4.38452C19.4895 4.38452 23.8276 8.71085 23.8276 14.105C23.8276 19.4991 19.4991 23.8255 14.105 23.8255Z" fill="black"/>
<path d="M12.6339 19.6313C13.104 19.6313 13.401 19.4227 13.7103 18.8771L17.8757 11.2109C18.1438 10.7447 18.2139 10.4417 18.2139 10.1197C18.2139 9.36968 17.6446 8.8407 16.7626 8.8407H11.1249C10.5966 8.8407 10.25 9.18218 10.25 9.69475C10.25 10.2094 10.6062 10.5605 11.1249 10.5605H15.827V10.6606L11.7338 17.96C11.5976 18.1803 11.5381 18.3823 11.5381 18.6505C11.5381 19.227 12.0053 19.6313 12.6339 19.6313Z" fill="black"/>
</svg>
