<svg width="28" height="28" viewBox="0 0 28 28" fill="none" xmlns="http://www.w3.org/2000/svg">
<path d="M6.84421 24.8972H21.0295C23.5685 24.8972 24.8737 23.5919 24.8737 21.0914V6.82921C24.8737 4.32656 23.5685 3.02344 21.0295 3.02344H6.84421C4.31484 3.02344 3 4.31695 3 6.82921V21.0914C3 23.6016 4.31484 24.8972 6.84421 24.8972Z" fill="black"/>
<path d="M10.0203 19.0774C8.42187 19.0774 7.14453 18.0949 6.82695 17.0154C6.78757 16.8525 6.75781 16.7109 6.75781 16.5384C6.75781 16.068 7.09718 15.7507 7.5221 15.7507C7.88304 15.7507 8.10546 15.9403 8.27257 16.3207C8.59226 17.0885 9.19039 17.5088 10.0363 17.5088C11.0635 17.5088 11.7751 16.8752 11.7751 16.0474C11.7751 15.1643 11.1233 14.5873 10.1026 14.5873H9.50375C9.03359 14.5873 8.7568 14.2509 8.7568 13.8094C8.7568 13.3219 9.05797 13.0069 9.50375 13.0069H10.0545C10.9269 13.0069 11.5063 12.4247 11.5063 11.647C11.5063 10.8771 10.9079 10.3598 10.062 10.3598C9.21617 10.3598 8.69468 10.7758 8.42515 11.5457C8.28898 11.924 8.06867 12.1179 7.6864 12.1179C7.23711 12.1179 6.94226 11.7984 6.94226 11.3205C6.94226 11.1576 6.94859 11.014 7.00062 10.8384C7.31281 9.7413 8.48187 8.80591 10.0993 8.80591C11.9091 8.80591 13.1835 9.86927 13.1835 11.4161C13.1835 12.5107 12.4278 13.4932 11.4495 13.653V13.7318C12.6282 13.8502 13.4884 14.8687 13.4884 16.1325C13.4884 17.8627 12.0765 19.0774 10.0203 19.0774ZM15.8139 18.8152C15.3477 18.8152 15.0179 18.5023 15.0179 18.0096C15.0179 17.7171 15.1168 17.4724 15.3529 17.212L18.2966 13.7384C18.8666 13.0725 19.4551 12.4455 19.4551 11.711C19.4551 10.9153 18.8868 10.3725 18.0229 10.3725C17.2464 10.3725 16.6822 10.7723 16.4113 11.5914C16.2611 11.9674 16.0525 12.1898 15.6524 12.1898C15.1947 12.1898 14.9094 11.8715 14.9094 11.4021C14.9094 11.2446 14.9329 11.0976 14.9722 10.9326C15.295 9.70849 16.5629 8.80591 17.9842 8.80591C19.8594 8.80591 21.0604 9.89669 21.0646 11.5652C21.0667 12.7448 20.4346 13.6036 19.5355 14.6529L17.4067 17.123V17.2209H20.552C21.0041 17.2209 21.3287 17.4987 21.3287 18.0042C21.3287 18.4969 21.0041 18.8152 20.552 18.8152H15.8139Z" fill="white"/>
</svg>
