<svg width="28" height="28" viewBox="0 0 28 28" fill="none" xmlns="http://www.w3.org/2000/svg">
<path d="M14.105 26.21C20.7369 26.21 26.2121 20.7273 26.2121 14.105C26.2121 7.47312 20.7273 2 14.0954 2C7.47523 2 2 7.47312 2 14.105C2 20.7273 7.48484 26.21 14.105 26.21Z" fill="black"/>
<path d="M14.1043 19.7862C13.1508 19.7862 12.6692 19.3876 12.3148 18.4091L9.19055 10.074C9.1193 9.84426 9.08203 9.68043 9.08203 9.47301C9.08203 8.8095 9.57023 8.35107 10.2731 8.35107C10.9324 8.35107 11.2802 8.66372 11.49 9.38348L14.0541 17.2086H14.1425L16.7044 9.38348C16.9259 8.6595 17.2599 8.35107 17.9192 8.35107C18.6242 8.35107 19.1187 8.79778 19.1187 9.46458C19.1187 9.66989 19.091 9.84004 19.0081 10.074L15.9052 18.373C15.5562 19.3407 15.0235 19.7862 14.1043 19.7862Z" fill="white"/>
</svg>
