<svg width="28" height="28" viewBox="0 0 28 28" fill="none" xmlns="http://www.w3.org/2000/svg">
<path d="M6.84421 24.8972H21.0295C23.5685 24.8972 24.8737 23.5919 24.8737 21.0914V6.82921C24.8737 4.32656 23.5685 3.02344 21.0295 3.02344H6.84421C4.31484 3.02344 3 4.31695 3 6.82921V21.0914C3 23.6016 4.31484 24.8972 6.84421 24.8972ZM6.97733 22.6013C5.88772 22.6013 5.29592 22.0371 5.29592 20.8985V7.01999C5.29592 5.88139 5.88772 5.31936 6.97733 5.31936H20.8964C21.9764 5.31936 22.5778 5.88139 22.5778 7.01999V20.8985C22.5778 22.0371 21.9764 22.6013 20.8964 22.6013H6.97733Z" fill="black"/>
<path d="M12.22 18.8625C12.7162 18.8625 12.9918 18.5196 12.9918 18.0394V16.7916H13.5339C13.9757 16.7916 14.2461 16.534 14.2461 16.0901C14.2461 15.6366 13.9757 15.3609 13.5339 15.3609H12.9918V10.2394C12.9918 9.47956 12.5062 9.00378 11.7304 9.00378C10.9895 9.00378 10.5435 9.29112 10.1463 9.98417C9.2643 11.4982 8.19672 13.3894 7.50437 14.6934C7.31359 15.0736 7.24023 15.3736 7.24023 15.7301C7.24023 16.3955 7.65132 16.7958 8.30804 16.7958H11.4599V18.0394C11.4599 18.51 11.7356 18.8625 12.22 18.8625ZM11.4599 15.3673H8.87968V15.3204C9.49515 14.1016 10.5735 12.1446 11.4077 10.685H11.4599V15.3673ZM18.5851 18.7643C19.0895 18.7643 19.3951 18.4439 19.3951 17.9046V10.0339C19.3951 9.45308 19.0396 9.06144 18.4588 9.06144C18.0573 9.06144 17.8009 9.18073 17.3495 9.51261L15.7075 10.6786C15.4255 10.9008 15.2786 11.1307 15.2786 11.4607C15.2786 11.8782 15.6194 12.2082 15.9908 12.2082C16.2163 12.2082 16.3546 12.1669 16.6241 11.937L17.724 11.0956H17.7826V17.9046C17.7826 18.4439 18.0883 18.7643 18.5851 18.7643Z" fill="black"/>
</svg>
