<svg width="28" height="28" viewBox="0 0 28 28" fill="none" xmlns="http://www.w3.org/2000/svg">
<path d="M6.84421 24.8972H21.0295C23.5685 24.8972 24.8737 23.5919 24.8737 21.0914V6.82921C24.8737 4.32656 23.5685 3.02344 21.0295 3.02344H6.84421C4.31484 3.02344 3 4.31695 3 6.82921V21.0914C3 23.6016 4.31484 24.8972 6.84421 24.8972Z" fill="black"/>
<path d="M7.77195 18.8152C7.29195 18.8152 6.9643 18.5023 6.9643 18.0096C6.9643 17.7171 7.06109 17.4724 7.29922 17.212L10.2547 13.7384C10.8205 13.0725 11.4111 12.4455 11.4111 11.711C11.4111 10.9153 10.8331 10.3725 9.96172 10.3725C9.19062 10.3725 8.64031 10.7723 8.36726 11.5914C8.20953 11.9674 8.00843 12.1898 7.61047 12.1898C7.15062 12.1898 6.86328 11.8715 6.86328 11.4021C6.86328 11.2446 6.89094 11.0976 6.93031 10.9326C7.24133 9.70849 8.49758 8.80591 9.92844 8.80591C11.8037 8.80591 13.0067 9.89669 13.011 11.5652C13.0152 12.7448 12.3788 13.6036 11.484 14.6529L9.36054 17.123V17.2209H12.5101C12.9526 17.2209 13.2751 17.4987 13.2751 18.0042C13.2751 18.4969 12.9526 18.8152 12.5101 18.8152H7.77195ZM18.0437 19.0891C16.8027 19.0891 15.763 18.5993 15.1567 17.4105C14.757 16.65 14.5215 15.5824 14.5215 14.1755C14.5215 10.5991 15.9903 8.80591 18.2696 8.80591C19.6154 8.80591 20.5691 9.49333 20.8759 10.2703C20.9588 10.4533 20.9886 10.6045 20.9886 10.796C20.9886 11.2282 20.679 11.5146 20.3192 11.5146C19.9646 11.5146 19.7741 11.3601 19.5674 11.0744C19.2796 10.65 18.838 10.345 18.2089 10.345C16.9761 10.345 16.1157 11.644 16.1157 13.6875C16.1157 13.782 16.1199 13.8328 16.122 13.8891H16.2116C16.4928 13.1323 17.2604 12.4521 18.4799 12.4521C19.9836 12.4521 21.3585 13.5773 21.3585 15.5925C21.3585 17.7799 19.9817 19.0891 18.0437 19.0891ZM17.9649 17.6182C19.0028 17.6182 19.6832 16.8675 19.6832 15.6966C19.6832 14.5929 18.9835 13.8326 17.9649 13.8326C16.9475 13.8326 16.2458 14.6025 16.2458 15.6869C16.2458 16.8216 16.9571 17.6182 17.9649 17.6182Z" fill="white"/>
</svg>
