<svg width="28" height="28" viewBox="0 0 28 28" fill="none" xmlns="http://www.w3.org/2000/svg">
<path d="M6.84421 24.8972H21.0295C23.5685 24.8972 24.8737 23.5919 24.8737 21.0914V6.82921C24.8737 4.32656 23.5685 3.02344 21.0295 3.02344H6.84421C4.31484 3.02344 3 4.31695 3 6.82921V21.0914C3 23.6016 4.31484 24.8972 6.84421 24.8972Z" fill="black"/>
<path d="M13.9738 19.6357C10.773 19.6357 8.73438 17.3751 8.73438 13.8584C8.73438 10.3415 10.7826 8.07349 13.9738 8.07349C16.1256 8.07349 17.8703 9.09302 18.471 10.706C18.5636 10.9413 18.5933 11.1136 18.5933 11.3381C18.5933 11.9381 18.204 12.303 17.5778 12.303C17.1184 12.303 16.8482 12.1125 16.6047 11.6411C16.1387 10.5661 15.2301 9.98691 14.0057 9.98691C12.242 9.98691 11.0753 11.5331 11.0753 13.8584C11.0753 16.1836 12.242 17.7202 14.0015 17.7202C15.2301 17.7202 16.1387 17.1452 16.6026 16.084C16.8397 15.619 17.1269 15.4125 17.5778 15.4125C18.204 15.4125 18.5933 15.7774 18.5933 16.3753C18.5933 16.5827 18.5636 16.7763 18.471 17.0095C17.8703 18.63 16.1394 19.6357 13.9738 19.6357Z" fill="white"/>
</svg>
