<svg width="28" height="28" viewBox="0 0 28 28" fill="none" xmlns="http://www.w3.org/2000/svg">
<path d="M14.105 26.21C20.7369 26.21 26.2121 20.7273 26.2121 14.105C26.2121 7.47312 20.7273 2 14.0954 2C7.47523 2 2 7.47312 2 14.105C2 20.7273 7.48484 26.21 14.105 26.21ZM14.105 23.8255C8.71085 23.8255 4.39412 19.4991 4.39412 14.105C4.39412 8.71085 8.70124 4.38452 14.0954 4.38452C19.4895 4.38452 23.8276 8.71085 23.8276 14.105C23.8276 19.4991 19.4991 23.8255 14.105 23.8255Z" fill="black"/>
<path d="M8.12812 18.7913H12.6971C13.1194 18.7913 13.4281 18.4869 13.4281 18.0144C13.4281 17.5386 13.1194 17.2651 12.6971 17.2651H9.64546V17.1809L11.7061 14.7812C12.5712 13.7755 13.1799 12.9486 13.1778 11.8104C13.1714 10.2111 12.0141 9.16388 10.2101 9.16388C8.83664 9.16388 7.62188 10.025 7.31508 11.2055C7.28531 11.3684 7.25977 11.5036 7.25977 11.6569C7.25977 12.1062 7.53117 12.4107 7.97297 12.4107C8.34328 12.4107 8.54015 12.1925 8.69789 11.8325C8.95711 11.0464 9.4882 10.6507 10.2412 10.6507C11.0892 10.6507 11.6438 11.1797 11.6438 11.952C11.6438 12.6631 11.0808 13.2645 10.5267 13.9102L7.67554 17.2604C7.45336 17.5145 7.35656 17.7453 7.35656 18.0198C7.35656 18.4923 7.67039 18.7913 8.12812 18.7913ZM18.0169 19.0515C19.8933 19.0515 21.2126 17.7997 21.2126 15.6973C21.2126 13.7534 19.8931 12.6697 18.435 12.6697C17.2646 12.6697 16.5246 13.3243 16.2455 14.0534H16.1656C16.1635 13.9993 16.1614 13.9527 16.1614 13.8699C16.1614 11.8871 16.9824 10.6254 18.18 10.6254C18.7953 10.6254 19.2134 10.9282 19.4991 11.341C19.6941 11.6129 19.8804 11.7556 20.2212 11.7556C20.5629 11.7556 20.8587 11.4851 20.8587 11.071C20.8587 10.8933 20.8289 10.7443 20.7481 10.5729C20.4434 9.82364 19.5333 9.16388 18.2407 9.16388C16.0444 9.16388 14.6351 10.8858 14.6351 14.326C14.6351 15.6798 14.8589 16.708 15.2426 17.4462C15.8255 18.5797 16.8291 19.0515 18.0169 19.0515ZM17.9478 17.6485C16.9676 17.6485 16.2818 16.8753 16.2818 15.778C16.2818 14.7308 16.958 13.9843 17.9478 13.9843C18.9333 13.9843 19.6095 14.7212 19.6095 15.7876C19.6095 16.9234 18.9525 17.6485 17.9478 17.6485Z" fill="black"/>
</svg>
