<svg width="28" height="28" viewBox="0 0 28 28" fill="none" xmlns="http://www.w3.org/2000/svg">
<path d="M14.105 26.21C20.7369 26.21 26.2121 20.7273 26.2121 14.105C26.2121 7.47312 20.7273 2 14.0954 2C7.47523 2 2 7.47312 2 14.105C2 20.7273 7.48484 26.21 14.105 26.21ZM14.105 23.8255C8.71085 23.8255 4.39412 19.4991 4.39412 14.105C4.39412 8.71085 8.70124 4.38452 14.0954 4.38452C19.4895 4.38452 23.8276 8.71085 23.8276 14.105C23.8276 19.4991 19.4991 23.8255 14.105 23.8255Z" fill="black"/>
<path d="M10.6952 18.9245C11.1996 18.9245 11.5073 18.6041 11.5073 18.0648V10.1939C11.5073 9.61317 11.1401 9.22153 10.571 9.22153C10.1674 9.22153 9.90352 9.34083 9.45961 9.6727L7.81969 10.8387C7.53774 11.0609 7.38867 11.2908 7.38867 11.6208C7.38867 12.0383 7.73156 12.3683 8.10094 12.3683C8.32851 12.3683 8.45508 12.327 8.73633 12.0971L9.82664 11.2557H9.89274V18.0648C9.89274 18.6041 10.2005 18.9245 10.6952 18.9245ZM16.9484 19.0419C19.2424 19.0419 20.4849 17.2114 20.4849 13.7853C20.4849 10.8141 19.2645 9.16388 17.0773 9.16388C15.1507 9.16388 13.8764 10.4543 13.8764 12.4894C13.8764 14.4291 15.1652 15.5457 16.6814 15.5457C17.8702 15.5457 18.6002 14.9091 18.8998 14.1291H18.9659C18.983 16.2291 18.1967 17.5803 16.9249 17.5803C16.3085 17.5803 15.8402 17.273 15.5738 16.8102C15.3694 16.4884 15.1341 16.3616 14.8336 16.3616C14.4227 16.3616 14.1534 16.6639 14.1534 17.093C14.1534 17.2292 14.1928 17.4017 14.2545 17.5613C14.4588 18.1932 15.3902 19.0419 16.9484 19.0419ZM17.153 14.229C16.1578 14.229 15.4912 13.475 15.4912 12.4086C15.4912 11.292 16.1482 10.5572 17.1626 10.5572C18.1331 10.5572 18.8285 11.3283 18.8285 12.4278C18.8285 13.475 18.1427 14.229 17.153 14.229Z" fill="black"/>
</svg>
