<svg width="28" height="28" viewBox="0 0 28 28" fill="none" xmlns="http://www.w3.org/2000/svg">
<path d="M14.105 26.21C20.7369 26.21 26.2121 20.7273 26.2121 14.105C26.2121 7.47312 20.7273 2 14.0954 2C7.47523 2 2 7.47312 2 14.105C2 20.7273 7.48484 26.21 14.105 26.21ZM14.105 23.8255C8.71085 23.8255 4.39412 19.4991 4.39412 14.105C4.39412 8.71085 8.70124 4.38452 14.0954 4.38452C19.4895 4.38452 23.8276 8.71085 23.8276 14.105C23.8276 19.4991 19.4991 23.8255 14.105 23.8255Z" fill="black"/>
<path d="M11.7087 18.9245C12.211 18.9245 12.5187 18.6041 12.5187 18.0648V10.194C12.5187 9.6132 12.1536 9.22156 11.5824 9.22156C11.1809 9.22156 10.9149 9.34086 10.4731 9.67273L8.8311 10.8387C8.54915 11.0609 8.39258 11.2909 8.39258 11.6209C8.39258 12.0383 8.74297 12.3683 9.11446 12.3683C9.33992 12.3683 9.46859 12.327 9.73813 12.0971L10.838 11.2557H10.9041V18.0648C10.9041 18.6041 11.2119 18.9245 11.7087 18.9245ZM17.8241 18.9245C18.3284 18.9245 18.6341 18.6041 18.6341 18.0648V10.194C18.6341 9.6132 18.2785 9.22156 17.6977 9.22156C17.2962 9.22156 17.0398 9.34086 16.5884 9.67273L14.9485 10.8387C14.6644 11.0609 14.5175 11.2909 14.5175 11.6209C14.5175 12.0383 14.8583 12.3683 15.2298 12.3683C15.4552 12.3683 15.5935 12.327 15.863 12.0971L16.9555 11.2557H17.0216V18.0648C17.0216 18.6041 17.3272 18.9245 17.8241 18.9245Z" fill="black"/>
</svg>
