<svg width="28" height="28" viewBox="0 0 28 28" fill="none" xmlns="http://www.w3.org/2000/svg">
<path d="M6.84421 24.8972H21.0295C23.5685 24.8972 24.8737 23.5919 24.8737 21.0914V6.82921C24.8737 4.32656 23.5685 3.02344 21.0295 3.02344H6.84421C4.31484 3.02344 3 4.31695 3 6.82921V21.0914C3 23.6016 4.31484 24.8972 6.84421 24.8972Z" fill="black"/>
<path d="M10.3747 19.5279C9.71304 19.5279 9.33008 19.0917 9.33008 18.3844V9.32314C9.33008 8.62822 9.72055 8.18127 10.3836 8.18127C10.8453 8.18127 11.1296 8.34416 11.5039 8.85791L16.3964 15.7772H16.489V9.32267C16.489 8.62494 16.8816 8.18127 17.5336 8.18127C18.2145 8.18127 18.6071 8.60783 18.6071 9.32267V18.4146C18.6071 19.1203 18.2037 19.5279 17.5449 19.5279C17.0874 19.5279 16.8117 19.3704 16.4447 18.866L11.529 11.9997H11.4385V18.3844C11.4385 19.1088 11.0459 19.5279 10.3747 19.5279Z" fill="white"/>
</svg>
