<svg width="28" height="28" viewBox="0 0 28 28" fill="none" xmlns="http://www.w3.org/2000/svg">
<path d="M7.2546 24.2822H20.9967C21.7345 24.2822 22.2736 23.7984 22.2736 23.0606C22.2736 22.3132 21.7345 21.8529 20.9967 21.8529H10.3603V21.7753C11.9812 21.1559 13.0671 19.1789 13.0671 16.8089C13.0671 14.0576 11.8966 12.4324 11.8966 9.72913C11.8966 7.17491 13.6758 5.43725 16.8419 5.43725C18.7561 5.43725 19.5719 5.92147 20.3283 5.92147C21.0124 5.92147 21.3991 5.52983 21.3991 4.88765C21.3991 4.3364 21.0998 3.94171 20.4351 3.63843C19.4018 3.18187 18.123 3 16.5059 3C11.816 3 8.97118 5.63977 8.97118 9.68016C8.97118 12.2262 10.2481 14.7745 10.2481 16.9322C10.2481 19.4203 8.79023 21.0809 7.08187 21.6335C6.3846 21.9256 6 22.3371 6 23.0381C6 23.7717 6.52101 24.2822 7.2546 24.2822ZM6.07032 11.5465C6.07032 12.0037 6.44016 12.3619 6.88571 12.3619H18.7481C19.1958 12.3619 19.5635 12.0037 19.5635 11.5465C19.5635 11.0913 19.1958 10.7311 18.7481 10.7311H6.88571C6.44016 10.7311 6.07032 11.0913 6.07032 11.5465ZM6.07032 15.8805C6.07032 16.3378 6.44016 16.6959 6.88571 16.6959H18.7481C19.1958 16.6959 19.5635 16.3378 19.5635 15.8805C19.5635 15.4233 19.1958 15.0652 18.7481 15.0652H6.88571C6.44016 15.0652 6.07032 15.4233 6.07032 15.8805Z" fill="black"/>
</svg>
