<svg width="28" height="28" viewBox="0 0 28 28" fill="none" xmlns="http://www.w3.org/2000/svg">
<path d="M6.84421 24.8972H21.0295C23.5685 24.8972 24.8737 23.5919 24.8737 21.0914V6.82921C24.8737 4.32656 23.5685 3.02344 21.0295 3.02344H6.84421C4.31484 3.02344 3 4.31695 3 6.82921V21.0914C3 23.6016 4.31484 24.8972 6.84421 24.8972Z" fill="black"/>
<path d="M11.3527 19.5279C10.5955 19.5279 10.1914 19.0012 10.1914 18.2112V9.67031C10.1914 8.85164 10.6039 8.34094 11.3937 8.34094H17.0185C17.599 8.34094 17.9937 8.68242 17.9937 9.26859C17.9937 9.83976 17.599 10.1984 17.0185 10.1984H12.529V13.0877H16.6341C17.1767 13.0877 17.5503 13.4091 17.5503 13.9645C17.5503 14.5179 17.1767 14.8125 16.6341 14.8125H12.5354V18.2112C12.5354 19.0184 12.1079 19.5279 11.3527 19.5279Z" fill="white"/>
</svg>
