<svg width="28" height="28" viewBox="0 0 28 28" fill="none" xmlns="http://www.w3.org/2000/svg">
<path d="M14.105 26.21C20.7369 26.21 26.2121 20.7273 26.2121 14.105C26.2121 7.47312 20.7273 2 14.0954 2C7.47523 2 2 7.47312 2 14.105C2 20.7273 7.48484 26.21 14.105 26.21Z" fill="black"/>
<path d="M10.623 19.1105C10.0964 19.1105 9.78445 18.7742 9.78445 18.2105V11.1577H9.71835L8.59499 12.0226C8.30952 12.2684 8.15952 12.3097 7.92772 12.3097C7.5403 12.3097 7.18359 11.9637 7.18359 11.5325C7.18359 11.1844 7.34437 10.9407 7.64015 10.7143L9.33328 9.50466C9.79523 9.15474 10.0751 9.03544 10.4829 9.03544C11.0976 9.03544 11.4809 9.44302 11.4809 10.0482V18.2105C11.4809 18.7742 11.1593 19.1105 10.623 19.1105ZM17.146 19.2493C15.9028 19.2493 14.8557 18.7595 14.2472 17.5707C13.8518 16.8102 13.6259 15.7426 13.6259 14.3356C13.6259 10.7593 15.0851 8.96606 17.3623 8.96606C18.7198 8.96606 19.6596 9.65349 19.9782 10.4304C20.0515 10.6135 20.0813 10.7647 20.0813 10.9561C20.0813 11.3883 19.7888 11.6747 19.4236 11.6747C19.0765 11.6747 18.8668 11.5203 18.66 11.2346C18.3797 10.8101 17.9478 10.5052 17.3037 10.5052C16.0667 10.5052 15.2201 11.8041 15.2201 13.8477C15.2201 13.9421 15.2222 13.993 15.2243 14.0492H15.3042C15.6068 13.2924 16.3531 12.6123 17.5746 12.6123C19.0976 12.6123 20.449 13.7375 20.449 15.7527C20.449 17.9401 19.084 19.2493 17.146 19.2493ZM17.0555 17.7784C18.1071 17.7784 18.7758 17.0277 18.7758 15.8567C18.7758 14.753 18.0783 13.9927 17.0555 13.9927C16.0519 13.9927 15.3406 14.7626 15.3406 15.8471C15.3406 16.9817 16.0519 17.7784 17.0555 17.7784Z" fill="white"/>
</svg>
