<svg width="28" height="28" viewBox="0 0 28 28" fill="none" xmlns="http://www.w3.org/2000/svg">
<path d="M6.84421 24.8972H21.0295C23.5685 24.8972 24.8737 23.5919 24.8737 21.0914V6.82921C24.8737 4.32656 23.5685 3.02344 21.0295 3.02344H6.84421C4.31484 3.02344 3 4.31695 3 6.82921V21.0914C3 23.6016 4.31484 24.8972 6.84421 24.8972ZM6.97733 22.6013C5.88772 22.6013 5.29592 22.0371 5.29592 20.8985V7.01999C5.29592 5.88139 5.88772 5.31936 6.97733 5.31936H20.8964C21.9764 5.31936 22.5778 5.88139 22.5778 7.01999V20.8985C22.5778 22.0371 21.9764 22.6013 20.8964 22.6013H6.97733Z" fill="black"/>
<path d="M13.9322 19.4808C16.4723 19.4808 18.1786 17.2741 18.1786 13.9427C18.1786 10.6092 16.4723 8.40468 13.9322 8.40468C11.3824 8.40468 9.69727 10.6092 9.69727 13.9427C9.69727 17.2741 11.3824 19.4808 13.9322 19.4808ZM13.9427 17.7277C12.6799 17.7277 11.8373 16.2844 11.8373 13.9427C11.8373 11.6011 12.6799 10.1578 13.9427 10.1578C15.1938 10.1578 16.0481 11.6011 16.0481 13.9427C16.0481 16.2844 15.1938 17.7277 13.9427 17.7277Z" fill="black"/>
</svg>
