<svg width="28" height="28" viewBox="0 0 28 28" fill="none" xmlns="http://www.w3.org/2000/svg">
<path d="M6.84421 24.8972H21.0295C23.5685 24.8972 24.8737 23.5919 24.8737 21.0914V6.82921C24.8737 4.32656 23.5685 3.02344 21.0295 3.02344H6.84421C4.31484 3.02344 3 4.31695 3 6.82921V21.0914C3 23.6016 4.31484 24.8972 6.84421 24.8972Z" fill="black"/>
<path d="M10.6896 18.9504C10.1705 18.9504 9.85852 18.6141 9.85852 18.0504V10.9975H9.79242L8.65734 11.8624C8.37609 12.1082 8.2432 12.1495 8.00179 12.1495C7.60476 12.1495 7.24805 11.8036 7.24805 11.3723C7.24805 11.0243 7.41633 10.7805 7.71422 10.5541L9.40945 9.3445C9.8693 8.99458 10.1491 8.87528 10.5687 8.87528C11.1717 8.87528 11.5549 9.28286 11.5549 9.88801V18.0504C11.5549 18.6141 11.2333 18.9504 10.6896 18.9504ZM18.4945 19.0582C17.992 19.0582 17.7025 18.6919 17.7025 18.1915V16.9127H14.4346C13.7674 16.9127 13.3169 16.4944 13.3169 15.7992C13.3169 15.4247 13.4041 15.1088 13.597 14.7105C14.3128 13.3575 15.4176 11.4089 16.3326 9.83622C16.7383 9.1113 17.2099 8.80591 17.9868 8.80591C18.7966 8.80591 19.2982 9.31356 19.2982 10.1053V15.4099H19.8733C20.3236 15.4099 20.6079 15.7036 20.6079 16.1752C20.6079 16.635 20.3236 16.9064 19.8733 16.9064H19.2982V18.1915C19.2982 18.7036 19.0183 19.0582 18.4945 19.0582ZM17.7025 15.4162V10.5668H17.6482C16.781 12.085 15.6771 14.1016 15.0403 15.3694V15.4162H17.7025Z" fill="white"/>
</svg>
