<svg width="28" height="28" viewBox="0 0 28 28" fill="none" xmlns="http://www.w3.org/2000/svg">
<path d="M14.105 26.21C20.7369 26.21 26.2121 20.7273 26.2121 14.105C26.2121 7.47312 20.7273 2 14.0954 2C7.47523 2 2 7.47312 2 14.105C2 20.7273 7.48484 26.21 14.105 26.21Z" fill="black"/>
<path d="M9.24414 14.1179C9.24414 10.8537 10.9016 8.73006 13.5102 8.42303V7.51904C13.5102 7.16842 13.7596 6.94037 14.0985 6.94037C14.4257 6.94037 14.6654 7.16842 14.6654 7.51904V8.41342C16.3923 8.56694 17.7487 9.55389 18.3119 10.9805C18.4054 11.2093 18.4628 11.4519 18.4628 11.6827C18.4628 12.1955 18.1234 12.5349 17.6085 12.5349C17.1264 12.5349 16.8817 12.354 16.7031 11.8451C16.4198 10.9529 15.654 10.2779 14.6654 10.1009V18.1721C15.718 18.024 16.503 17.3661 16.7788 16.4387C16.9394 15.9662 17.2129 15.7351 17.6715 15.7351C18.2087 15.7351 18.5448 16.0883 18.5448 16.5978C18.5448 16.831 18.4958 17.045 18.4192 17.2548C17.8951 18.6983 16.5191 19.7136 14.6654 19.8458V20.7455C14.6654 21.0962 14.4257 21.3359 14.0985 21.3359C13.7713 21.3359 13.5102 21.0962 13.5102 20.7455V19.8362C10.8815 19.5303 9.24414 17.412 9.24414 14.1179ZM11.1662 14.12C11.1662 16.3077 12.044 17.7938 13.5102 18.1327V10.1361C12.044 10.4675 11.1662 11.9633 11.1662 14.12Z" fill="white"/>
</svg>
