<svg width="28" height="28" viewBox="0 0 28 28" fill="none" xmlns="http://www.w3.org/2000/svg">
<path d="M6.84421 24.8972H21.0295C23.5685 24.8972 24.8737 23.5919 24.8737 21.0914V6.82921C24.8737 4.32656 23.5685 3.02344 21.0295 3.02344H6.84421C4.31484 3.02344 3 4.31695 3 6.82921V21.0914C3 23.6016 4.31484 24.8972 6.84421 24.8972Z" fill="black"/>
<path d="M10.4319 19.5279C9.81507 19.5279 9.36719 19.1034 9.36719 18.5302C9.36719 18.2419 9.44687 18.0293 9.65312 17.7539L12.524 13.8028L9.78976 10.061C9.5643 9.74719 9.475 9.53462 9.475 9.22712C9.475 8.64212 9.96133 8.18134 10.5782 8.18134C11.0601 8.18134 11.3303 8.359 11.6727 8.85329L14.0303 12.3077H14.1111L16.4113 8.86501C16.724 8.36532 17.0101 8.18134 17.4674 8.18134C18.0843 8.18134 18.5514 8.61329 18.5514 9.18868C18.5514 9.45563 18.4621 9.69704 18.2462 9.97242L15.3829 13.8509L18.227 17.7155C18.4333 17.9813 18.5204 18.2013 18.5204 18.4896C18.5204 19.1034 18.0651 19.5279 17.4172 19.5279C16.9504 19.5279 16.6855 19.3535 16.3344 18.8346L13.9628 15.3898H13.9011L11.5051 18.8346C11.1435 19.3577 10.8946 19.5279 10.4319 19.5279Z" fill="white"/>
</svg>
