<svg width="28" height="28" viewBox="0 0 28 28" fill="none" xmlns="http://www.w3.org/2000/svg">
<path d="M14.105 26.21C20.7369 26.21 26.2121 20.7273 26.2121 14.105C26.2121 7.47312 20.7273 2 14.0954 2C7.47523 2 2 7.47312 2 14.105C2 20.7273 7.48484 26.21 14.105 26.21ZM14.105 23.8255C8.71085 23.8255 4.39412 19.4991 4.39412 14.105C4.39412 8.71085 8.70124 4.38452 14.0954 4.38452C19.4895 4.38452 23.8276 8.71085 23.8276 14.105C23.8276 19.4991 19.4991 23.8255 14.105 23.8255Z" fill="black"/>
<path d="M11.0195 18.9245C11.5313 18.9245 11.8391 18.6041 11.8391 18.0648V10.1939C11.8391 9.61317 11.4739 9.22153 10.9027 9.22153C10.4991 9.22153 10.2352 9.34083 9.79133 9.6727L8.15141 10.8387C7.86946 11.0609 7.71289 11.2908 7.71289 11.6208C7.71289 12.0383 8.05367 12.3683 8.42516 12.3683C8.66023 12.3683 8.7889 12.327 9.05844 12.0971L10.1584 11.2557H10.2245V18.0648C10.2245 18.6041 10.5226 18.9245 11.0195 18.9245ZM16.8022 19.0419C18.7754 19.0419 20.132 17.8803 20.132 16.2097C20.132 14.9991 19.3091 14.0124 18.1719 13.9037V13.827C19.1108 13.6693 19.8408 12.7283 19.8408 11.6731C19.8408 10.1857 18.6294 9.16388 16.8716 9.16388C15.3233 9.16388 14.1958 10.0557 13.8953 11.1155C13.8475 11.289 13.839 11.4188 13.839 11.5796C13.839 12.0394 14.1297 12.343 14.5513 12.343C14.9197 12.343 15.1262 12.1512 15.2582 11.7889C15.516 11.0445 16.0215 10.6381 16.8365 10.6381C17.6568 10.6381 18.2434 11.1436 18.2434 11.888C18.2434 12.6444 17.6737 13.2106 16.829 13.2106H16.2995C15.8697 13.2106 15.5865 13.5118 15.5865 13.9695C15.5865 14.393 15.857 14.7134 16.2995 14.7134H16.877C17.8701 14.7134 18.5005 15.2766 18.5005 16.1246C18.5005 16.9311 17.8103 17.5508 16.8182 17.5508C15.9979 17.5508 15.4136 17.1423 15.1077 16.3979C14.9523 16.0334 14.7341 15.8459 14.387 15.8459C13.9897 15.8459 13.6588 16.1495 13.6588 16.5997C13.6588 16.7701 13.6843 16.8999 13.7237 17.0586C14.0296 18.0987 15.2612 19.0419 16.8022 19.0419Z" fill="black"/>
</svg>
