<svg width="28" height="28" viewBox="0 0 28 28" fill="none" xmlns="http://www.w3.org/2000/svg">
<path d="M6.84421 24.8972H21.0295C23.5685 24.8972 24.8737 23.5919 24.8737 21.0914V6.82921C24.8737 4.32656 23.5685 3.02344 21.0295 3.02344H6.84421C4.31484 3.02344 3 4.31695 3 6.82921V21.0914C3 23.6016 4.31484 24.8972 6.84421 24.8972ZM6.97733 22.6013C5.88772 22.6013 5.29592 22.0371 5.29592 20.8985V7.01999C5.29592 5.88139 5.88772 5.31936 6.97733 5.31936H20.8964C21.9764 5.31936 22.5778 5.88139 22.5778 7.01999V20.8985C22.5778 22.0371 21.9764 22.6013 20.8964 22.6013H6.97733Z" fill="black"/>
<path d="M10.9146 19.3078C11.618 19.3078 12.0051 18.8566 12.0051 18.1109V15.4397H13.9317L15.8388 18.5686C16.177 19.1184 16.459 19.3078 16.9303 19.3078C17.5144 19.3078 17.925 18.9269 17.925 18.3844C17.925 18.0991 17.8462 17.8884 17.6845 17.633L16.0343 15.0921C17.3822 14.6519 18.2496 13.4426 18.2496 11.9979C18.2496 9.86531 16.7433 8.55469 14.2863 8.55469H10.9894C10.2398 8.55469 9.84961 9.03562 9.84961 9.81609V18.1109C9.84961 18.8395 10.2305 19.3078 10.9146 19.3078ZM12.0051 13.8598V10.1826H14.0161C15.2435 10.1826 16.0606 10.8673 16.0606 12.049C16.0606 13.2019 15.2543 13.8598 13.9777 13.8598H12.0051Z" fill="black"/>
</svg>
