<svg width="28" height="28" viewBox="0 0 28 28" fill="none" xmlns="http://www.w3.org/2000/svg">
<path d="M6.84421 24.8972H21.0295C23.5685 24.8972 24.8737 23.5919 24.8737 21.0914V6.82921C24.8737 4.32656 23.5685 3.02344 21.0295 3.02344H6.84421C4.31484 3.02344 3 4.31695 3 6.82921V21.0914C3 23.6016 4.31484 24.8972 6.84421 24.8972ZM6.97733 22.6013C5.88772 22.6013 5.29592 22.0371 5.29592 20.8985V7.01999C5.29592 5.88139 5.88772 5.31936 6.97733 5.31936H20.8964C21.9764 5.31936 22.5778 5.88139 22.5778 7.01999V20.8985C22.5778 22.0371 21.9764 22.6013 20.8964 22.6013H6.97733Z" fill="black"/>
<path d="M11.4039 19.3078C12.1305 19.3078 12.5303 18.828 12.5303 18.0612V15.8871H14.6427C16.9797 15.8871 18.5179 14.4363 18.5179 12.2294C18.5179 10.0226 16.9668 8.55469 14.6629 8.55469H11.4482C10.6891 8.55469 10.2988 9.03562 10.2988 9.81609V18.0612C10.2988 18.8109 10.6923 19.3078 11.4039 19.3078ZM12.5303 14.2212V10.2206H14.3406C15.5978 10.2206 16.3605 10.9725 16.3605 12.2316C16.3605 13.4651 15.6053 14.2212 14.3406 14.2212H12.5303Z" fill="black"/>
</svg>
