<svg width="28" height="28" viewBox="0 0 28 28" fill="none" xmlns="http://www.w3.org/2000/svg">
<path d="M14.105 26.21C20.7369 26.21 26.2121 20.7273 26.2121 14.105C26.2121 7.47312 20.7273 2 14.0954 2C7.47523 2 2 7.47312 2 14.105C2 20.7273 7.48484 26.21 14.105 26.21Z" fill="black"/>
<path d="M10.1227 19.2376C8.08227 19.2376 6.72266 17.3551 6.72266 14.1029C6.72266 10.8507 8.08227 8.96606 10.1227 8.96606C12.1686 8.96606 13.5375 10.8507 13.5375 14.1029C13.5375 17.3551 12.1686 19.2376 10.1227 19.2376ZM10.1312 17.5881C11.1563 17.5881 11.7814 16.3325 11.7814 14.1029C11.7814 11.8733 11.1467 10.6177 10.1312 10.6177C9.12313 10.6177 8.47883 11.8733 8.47883 14.1029C8.47883 16.3325 9.12313 17.5881 10.1312 17.5881ZM18.2227 19.2376C16.1398 19.2376 14.7537 18.073 14.7537 16.3266C14.7537 15.1004 15.492 14.1251 16.7572 13.8556V13.7769C15.7018 13.4762 15.1032 12.6472 15.1032 11.5988C15.1032 10.039 16.3967 8.96606 18.2419 8.96606C20.0872 8.96606 21.3807 10.039 21.3807 11.5988C21.3807 12.6472 20.7746 13.4954 19.7309 13.7769V13.8556C20.9726 14.1251 21.7322 15.0908 21.7322 16.317C21.7322 18.0537 20.3056 19.2376 18.2227 19.2376ZM18.2515 17.8391C19.2807 17.8391 20.0262 17.1641 20.0262 16.2022C20.0262 15.2424 19.2999 14.5557 18.2515 14.5557C17.217 14.5557 16.4672 15.252 16.4672 16.2022C16.4672 17.1641 17.217 17.8391 18.2515 17.8391ZM18.2419 13.212C19.1047 13.212 19.6955 12.5977 19.6955 11.768C19.6955 10.9383 19.1025 10.3604 18.2419 10.3604C17.3834 10.3604 16.7904 10.9383 16.7904 11.768C16.7904 12.5977 17.3792 13.212 18.2419 13.212Z" fill="white"/>
</svg>
