<svg width="28" height="28" viewBox="0 0 28 28" fill="none" xmlns="http://www.w3.org/2000/svg">
<path d="M6.84421 24.8972H21.0295C23.5685 24.8972 24.8737 23.5919 24.8737 21.0914V6.82921C24.8737 4.32656 23.5685 3.02344 21.0295 3.02344H6.84421C4.31484 3.02344 3 4.31695 3 6.82921V21.0914C3 23.6016 4.31484 24.8972 6.84421 24.8972Z" fill="black"/>
<path d="M12.8003 19.5647C11.9486 19.5647 11.5033 19.0807 11.5033 18.3823V14.8455L10.5466 15.2505C10.4369 15.2878 10.3389 15.3134 10.2313 15.3134C9.89992 15.3134 9.68359 15.0715 9.68359 14.7422C9.68359 14.479 9.79328 14.3053 10.0715 14.1869L11.5033 13.6062V12.502L10.5466 12.8953C10.4369 12.9443 10.3389 12.9699 10.2313 12.9699C9.89992 12.9699 9.68359 12.7376 9.68359 12.4062C9.68359 12.1355 9.79328 11.9597 10.0715 11.8509L11.5033 11.2488V9.15493C11.5033 8.57837 11.8595 8.20923 12.4063 8.20923C12.9318 8.20923 13.2902 8.57837 13.2902 9.15493V10.5572L15.2734 9.75025C15.3735 9.70337 15.4832 9.66822 15.5887 9.66822C15.9222 9.66822 16.1385 9.9197 16.1385 10.249C16.1385 10.5101 16.0192 10.6763 15.7506 10.8021L13.2902 11.7966V12.9007L15.2734 12.0863C15.3735 12.0469 15.4832 12.0213 15.5887 12.0213C15.9222 12.0213 16.1385 12.2632 16.1385 12.5946C16.1385 12.8461 16.0192 13.0315 15.7506 13.1381L13.2902 14.1422V17.7952C15.0712 17.7952 16.3106 16.3943 16.5184 14.842C16.6216 14.2521 16.9366 13.9894 17.3971 13.9894C17.9268 13.9894 18.2533 14.3543 18.2533 14.9034C18.2533 17.0747 16.2449 19.5647 12.8003 19.5647Z" fill="white"/>
</svg>
