<svg width="28" height="28" viewBox="0 0 28 28" fill="none" xmlns="http://www.w3.org/2000/svg">
<path d="M14.105 26.21C20.7369 26.21 26.2121 20.7273 26.2121 14.105C26.2121 7.47312 20.7273 2 14.0954 2C7.47523 2 2 7.47312 2 14.105C2 20.7273 7.48484 26.21 14.105 26.21Z" fill="black"/>
<path d="M14.4004 19.8767C11.8748 19.8767 10.2503 18.2773 9.7368 15.8708H8.62211C8.2907 15.8708 8.04883 15.6097 8.04883 15.2825C8.04883 14.9457 8.2907 14.7155 8.62211 14.7155H9.57695C9.55562 14.5163 9.55562 14.3288 9.55562 14.1179C9.55562 13.8983 9.56523 13.7021 9.58445 13.4942H8.62211C8.2907 13.4942 8.04883 13.2352 8.04883 12.9176C8.04883 12.5691 8.2907 12.339 8.62211 12.339H9.74969C10.2911 9.9092 11.9837 8.38037 14.4004 8.38037C16.3903 8.38037 18.0079 9.38748 18.6351 10.9805C18.7286 11.2093 18.786 11.4423 18.786 11.6827C18.786 12.1955 18.4467 12.5349 17.92 12.5349C17.4496 12.5349 17.2028 12.354 17.0264 11.8451C16.6556 10.6915 15.603 10.0498 14.4536 10.0498C13.0919 10.0498 12.1621 10.9913 11.7463 12.339H14.6636C14.995 12.339 15.2465 12.5691 15.2465 12.9176C15.2465 13.2352 14.995 13.4942 14.6636 13.4942H11.5087C11.4969 13.7021 11.4777 13.9025 11.4777 14.12C11.4777 14.3213 11.4873 14.5184 11.5129 14.7155H14.6636C14.995 14.7155 15.2465 14.9457 15.2465 15.2825C15.2465 15.6097 14.995 15.8708 14.6636 15.8708H11.7271C12.1258 17.258 13.0567 18.2115 14.4536 18.2115C15.682 18.2115 16.7538 17.6059 17.1021 16.4387C17.2626 15.9662 17.534 15.7351 17.9948 15.7351C18.5224 15.7351 18.8702 16.0883 18.8702 16.5978C18.8702 16.831 18.817 17.045 18.7424 17.2548C18.0885 19.0358 16.3985 19.8767 14.4004 19.8767Z" fill="white"/>
</svg>
