<svg width="28" height="28" viewBox="0 0 28 28" fill="none" xmlns="http://www.w3.org/2000/svg">
<path d="M6.84421 24.8972H21.0295C23.5685 24.8972 24.8737 23.5919 24.8737 21.0914V6.82921C24.8737 4.32656 23.5685 3.02344 21.0295 3.02344H6.84421C4.31484 3.02344 3 4.31695 3 6.82921V21.0914C3 23.6016 4.31484 24.8972 6.84421 24.8972Z" fill="black"/>
<path d="M9.88914 19.0774C8.28109 19.0774 6.99625 18.0949 6.68617 17.0154C6.64679 16.8525 6.61914 16.7109 6.61914 16.5384C6.61914 16.068 6.9564 15.7507 7.38132 15.7507C7.74226 15.7507 7.9764 15.9403 8.1339 16.3207C8.45359 17.0885 9.0496 17.5088 9.90719 17.5088C10.9227 17.5088 11.6343 16.8752 11.6343 16.0474C11.6343 15.1643 10.9921 14.5873 9.96391 14.5873H9.36718C8.89281 14.5873 8.61062 14.2509 8.61062 13.8094C8.61062 13.3219 8.90757 13.0069 9.36718 13.0069H9.91586C10.7861 13.0069 11.3676 12.4247 11.3676 11.647C11.3676 10.8771 10.7671 10.3598 9.92336 10.3598C9.08499 10.3598 8.5464 10.7758 8.28437 11.5457C8.15031 11.924 7.94171 12.1179 7.55523 12.1179C7.09632 12.1179 6.80148 11.7984 6.80148 11.3205C6.80148 11.1576 6.80781 11.014 6.85984 10.8384C7.16242 9.7413 8.3432 8.80591 9.95851 8.80591C11.7822 8.80591 13.0351 9.86927 13.0351 11.4161C13.0351 12.5107 12.2774 13.4932 11.3184 13.653V13.7318C12.497 13.8502 13.3379 14.8687 13.3379 16.1325C13.3379 17.8627 11.9357 19.0774 9.88914 19.0774ZM19.6518 19.0582C19.1418 19.0582 18.8481 18.6919 18.8481 18.1915V16.9127H15.6036C14.915 16.9127 14.4763 16.4944 14.4763 15.7992C14.4763 15.4247 14.5635 15.1088 14.7543 14.7105C15.4722 13.3575 16.5653 11.4089 17.492 9.83622C17.8956 9.1113 18.3672 8.80591 19.1441 8.80591C19.9464 8.80591 20.4576 9.31356 20.4576 10.1053V15.4099H21.021C21.4733 15.4099 21.7555 15.7036 21.7555 16.1752C21.7555 16.635 21.4733 16.9064 21.021 16.9064H20.4576V18.1915C20.4576 18.7036 20.1756 19.0582 19.6518 19.0582ZM18.8481 15.4162V10.5668H18.7937C17.9404 12.085 16.8247 14.1016 16.1975 15.3694V15.4162H18.8481Z" fill="white"/>
</svg>
