<svg width="28" height="28" viewBox="0 0 28 28" fill="none" xmlns="http://www.w3.org/2000/svg">
<path d="M6.84421 24.8972H21.0295C23.5685 24.8972 24.8737 23.5919 24.8737 21.0914V6.82921C24.8737 4.32656 23.5685 3.02344 21.0295 3.02344H6.84421C4.31484 3.02344 3 4.31695 3 6.82921V21.0914C3 23.6016 4.31484 24.8972 6.84421 24.8972Z" fill="black"/>
<path d="M11.3395 19.056C10.8391 19.056 10.5497 18.6897 10.5497 18.1914V16.9126H7.29351C6.60492 16.9126 6.17578 16.4943 6.17578 15.7991C6.17578 15.4246 6.25125 15.1087 6.43664 14.7104C7.15992 13.3616 8.26477 11.411 9.17017 9.83618C9.59509 9.11126 10.057 8.80798 10.834 8.80798C11.6341 8.80798 12.1549 9.31352 12.1549 10.1052V15.4098H12.7088C13.1611 15.4098 13.4529 15.7014 13.4529 16.1751C13.4529 16.6349 13.1707 16.9063 12.7088 16.9063H12.1549V18.1914C12.1549 18.6993 11.8655 19.056 11.3395 19.056ZM10.5497 15.4161V10.5667H10.4857C9.62812 12.0892 8.52421 14.1015 7.8853 15.3693V15.4161H10.5497ZM19.5345 19.056C19.0341 19.056 18.7446 18.6897 18.7446 18.1914V16.9126H15.4767C14.7998 16.9126 14.3632 16.4943 14.3632 15.7991C14.3632 15.4246 14.4462 15.1087 14.6412 14.7104C15.3548 13.3616 16.4501 11.411 17.3747 9.83618C17.7804 9.11126 18.252 8.80798 19.0289 8.80798C19.8387 8.80798 20.3402 9.31352 20.3402 10.1052V15.4098H20.9058C21.3656 15.4098 21.6403 15.7014 21.6403 16.1751C21.6403 16.6349 21.3656 16.9063 20.9058 16.9063H20.3402V18.1914C20.3402 18.6993 20.0508 19.056 19.5345 19.056ZM18.7446 15.4161V10.5667H18.6902C17.823 12.0892 16.7191 14.1015 16.0802 15.3693V15.4161H18.7446Z" fill="white"/>
</svg>
