<svg width="28" height="28" viewBox="0 0 28 28" fill="none" xmlns="http://www.w3.org/2000/svg">
<path d="M6.84421 24.8972H21.0295C23.5685 24.8972 24.8737 23.5919 24.8737 21.0914V6.82921C24.8737 4.32656 23.5685 3.02344 21.0295 3.02344H6.84421C4.31484 3.02344 3 4.31695 3 6.82921V21.0914C3 23.6016 4.31484 24.8972 6.84421 24.8972Z" fill="black"/>
<path d="M11.6305 19.056C11.1259 19.056 10.8461 18.6897 10.8461 18.1914V16.9126H7.58031C6.90133 16.9126 6.45508 16.4943 6.45508 15.7991C6.45508 15.4246 6.54976 15.1087 6.73304 14.7104C7.45844 13.3616 8.56118 11.411 9.47079 9.83618C9.88188 9.11126 10.3534 8.80798 11.1304 8.80798C11.9327 8.80798 12.4417 9.31352 12.4417 10.1052V15.4098H13.0072C13.4575 15.4098 13.7418 15.7014 13.7418 16.1751C13.7418 16.6349 13.4575 16.9063 13.0072 16.9063H12.4417V18.1914C12.4417 18.6993 12.1619 19.056 11.6305 19.056ZM10.8461 15.4161V10.5667H10.7821C9.92453 12.0892 8.82062 14.1015 8.18382 15.3693V15.4161H10.8461ZM15.7138 18.8151C15.238 18.8151 14.9179 18.4979 14.9179 18.0074C14.9179 17.717 15.0072 17.4723 15.2432 17.2119L18.1965 13.7383C18.7665 13.0724 19.3647 12.4476 19.3647 11.711C19.3647 10.9174 18.7771 10.3724 17.9132 10.3724C17.1367 10.3724 16.5918 10.7723 16.3112 11.5914C16.1514 11.9674 15.9503 12.1898 15.5523 12.1898C15.0946 12.1898 14.8094 11.8715 14.8094 11.4042C14.8094 11.2445 14.8424 11.0997 14.8743 10.9326C15.1949 9.70845 16.4533 8.80798 17.8841 8.80798C19.7572 8.80798 20.9507 9.89665 20.9549 11.5652C20.957 12.7448 20.3249 13.6035 19.4354 14.6528L17.2949 17.1229V17.2208H20.4519C20.904 17.2208 21.2265 17.4986 21.2265 18.002C21.2265 18.4947 20.904 18.8151 20.4519 18.8151H15.7138Z" fill="white"/>
</svg>
