<svg width="28" height="28" viewBox="0 0 28 28" fill="none" xmlns="http://www.w3.org/2000/svg">
<path d="M14.105 26.21C20.7369 26.21 26.2121 20.7273 26.2121 14.105C26.2121 7.47312 20.7273 2 14.0954 2C7.47523 2 2 7.47312 2 14.105C2 20.7273 7.48484 26.21 14.105 26.21ZM14.105 23.8255C8.71085 23.8255 4.39412 19.4991 4.39412 14.105C4.39412 8.71085 8.70124 4.38452 14.0954 4.38452C19.4895 4.38452 23.8276 8.71085 23.8276 14.105C23.8276 19.4991 19.4991 23.8255 14.105 23.8255Z" fill="black"/>
<path d="M10.5191 19.862C10.9787 19.862 11.2705 19.5448 11.2705 19.0381V15.4494H11.7231L13.0054 19.3098C13.1343 19.7152 13.3738 19.8641 13.727 19.8641C14.1463 19.8641 14.4432 19.5605 14.4432 19.1274C14.4432 18.9624 14.4093 18.7946 14.341 18.6167L13.0914 14.9551C13.9761 14.4725 14.476 13.295 14.476 11.9469C14.476 9.75639 13.5962 8.68037 11.8663 8.68037H10.5573C10.0818 8.68037 9.78906 9.00076 9.78906 9.55505V19.0114C9.78906 19.5256 10.0574 19.862 10.5191 19.862ZM11.2705 13.8561V10.1588H11.8042C12.6116 10.1588 12.9711 10.793 12.9711 11.9989C12.9711 13.224 12.6116 13.8561 11.7754 13.8561H11.2705ZM17.0125 19.8716C18.3385 19.8716 19.1961 18.932 19.1961 17.4556C19.1961 16.3175 18.7839 15.6324 17.645 15.0071L17.2124 14.7673C16.6335 14.4486 16.3904 14.1277 16.3904 13.6032C16.3904 13.0421 16.5985 12.7008 17.0028 12.7008C17.484 12.7008 17.6153 13.0634 17.6771 13.7197C17.7165 14.1894 17.9347 14.4791 18.369 14.4791C18.8171 14.4791 19.0747 14.1692 19.0747 13.6794C19.0747 13.5516 19.0609 13.4398 19.0471 13.3142C18.9172 12.1655 18.2026 11.3138 17.0125 11.3138C15.7642 11.3138 14.9354 12.2417 14.9354 13.6733C14.9354 14.7898 15.3882 15.5356 16.4865 16.1246L16.9426 16.3665C17.4918 16.6501 17.721 17.0105 17.721 17.581C17.721 18.1848 17.4819 18.5122 17.0125 18.5122C16.5292 18.5122 16.3135 18.1175 16.2688 17.4816C16.2252 17.0171 15.9866 16.7265 15.5514 16.7265C15.1086 16.7265 14.8468 17.0427 14.8468 17.5304C14.8468 17.671 14.8489 17.7978 14.8703 17.9246C15.0067 19.0651 15.7874 19.8716 17.0125 19.8716Z" fill="black"/>
</svg>
