<svg width="28" height="28" viewBox="0 0 28 28" fill="none" xmlns="http://www.w3.org/2000/svg">
<path d="M6.84421 24.8972H21.0295C23.5685 24.8972 24.8737 23.5919 24.8737 21.0914V6.82921C24.8737 4.32656 23.5685 3.02344 21.0295 3.02344H6.84421C4.31484 3.02344 3 4.31695 3 6.82921V21.0914C3 23.6016 4.31484 24.8972 6.84421 24.8972Z" fill="black"/>
<path d="M9.4668 13.3369C9.4668 12.982 9.69813 12.7464 10.038 12.7464H10.7341V12.0227H10.038C9.69813 12.0227 9.4668 11.77 9.4668 11.4365C9.4668 11.0955 9.69813 10.8696 10.038 10.8696H10.7341V9.4809C10.7341 8.87903 11.0936 8.50989 11.6859 8.50989H14.6207C16.3236 8.50989 17.5935 9.44997 18.1115 10.8696H18.8854C19.2348 10.8696 19.4565 11.0955 19.4565 11.4365C19.4565 11.77 19.2348 12.0227 18.8854 12.0227H18.3578C18.3716 12.1624 18.3716 12.2657 18.3716 12.3925C18.3716 12.5076 18.3695 12.6419 18.3557 12.7464H18.8854C19.2348 12.7464 19.4565 12.982 19.4565 13.3369C19.4565 13.6587 19.2348 13.9038 18.8854 13.9038H18.119C17.5872 15.3532 16.3047 16.2987 14.5869 16.2987H12.6147V18.9863C12.6147 19.5614 12.2233 19.9233 11.6861 19.9233C11.1447 19.9233 10.7341 19.5614 10.7341 18.9863V13.9038H10.038C9.69813 13.9038 9.4668 13.6587 9.4668 13.3369ZM12.6264 14.6831L14.2797 14.6852C15.0688 14.6852 15.6744 14.4134 16.0572 13.9038H12.6264V14.6831ZM12.6264 12.7464H16.5039C16.5156 12.6419 16.5156 12.5055 16.5156 12.3904C16.5156 12.254 16.5156 12.1378 16.5039 12.0227H12.6264V12.7464ZM12.6264 10.8696H16.0391C15.666 10.3877 15.0625 10.1243 14.2839 10.1243H12.6264V10.8696Z" fill="white"/>
</svg>
