<svg width="28" height="28" viewBox="0 0 28 28" fill="none" xmlns="http://www.w3.org/2000/svg">
<path d="M14.105 26.21C20.7369 26.21 26.2121 20.7273 26.2121 14.105C26.2121 7.47312 20.7273 2 14.0954 2C7.47523 2 2 7.47312 2 14.105C2 20.7273 7.48484 26.21 14.105 26.21Z" fill="black"/>
<path d="M8.8382 18.9753C8.36031 18.9753 8.03054 18.6624 8.03054 18.1698C8.03054 17.8773 8.12945 17.6422 8.36757 17.3722L11.3209 13.9081C11.8909 13.2327 12.4774 12.6057 12.4774 11.8712C12.4774 11.0755 11.9111 10.5327 11.028 10.5327C10.2494 10.5327 9.70656 10.9421 9.4239 11.7516C9.27577 12.1276 9.06507 12.35 8.6671 12.35C8.21898 12.35 7.93164 12.0413 7.93164 11.5623C7.93164 11.4048 7.95718 11.2578 7.98695 11.0928C8.30968 9.86868 9.56804 8.97571 10.9968 8.97571C12.87 8.97571 14.073 10.0569 14.0793 11.7254C14.0815 12.905 13.459 13.7637 12.5503 14.813L10.4289 17.2927V17.3811H13.5668C14.0189 17.3811 14.3414 17.6684 14.3414 18.1644C14.3414 18.657 14.0189 18.9753 13.5668 18.9753H8.8382ZM19.1107 19.1105C18.584 19.1105 18.2721 18.7838 18.2721 18.2105V11.1673H18.2039L17.0709 12.0322C16.7972 12.2684 16.6472 12.3097 16.4153 12.3097C16.0279 12.3097 15.6691 11.9638 15.6691 11.5325C15.6691 11.1845 15.8278 10.9503 16.1278 10.7143L17.8209 9.5047C18.2808 9.15478 18.5627 9.03548 18.9705 9.03548C19.5853 9.03548 19.9685 9.44306 19.9685 10.0482V18.2105C19.9685 18.7838 19.6427 19.1105 19.1107 19.1105Z" fill="white"/>
</svg>
