<svg width="28" height="28" viewBox="0 0 28 28" fill="none" xmlns="http://www.w3.org/2000/svg">
<path d="M14.105 26.21C20.7369 26.21 26.2121 20.7273 26.2121 14.105C26.2121 7.47312 20.7273 2 14.0954 2C7.47523 2 2 7.47312 2 14.105C2 20.7273 7.48484 26.21 14.105 26.21Z" fill="black"/>
<path d="M11.7691 19.2161C11.2666 19.2161 10.9846 18.8498 10.9846 18.3516V17.0728H7.71882C7.04195 17.0728 6.5957 16.6544 6.5957 15.9593C6.5957 15.5847 6.69039 15.2688 6.87156 14.8706C7.59906 13.5218 8.7018 11.5711 9.60931 9.99634C10.0225 9.27142 10.4941 8.96814 11.271 8.96814C12.0712 8.96814 12.5824 9.47369 12.5824 10.2654V15.57H13.1479C13.5981 15.57 13.8824 15.8615 13.8824 16.3352C13.8824 16.7951 13.5981 17.0665 13.1479 17.0665H12.5824V18.3516C12.5824 18.8595 12.3025 19.2161 11.7691 19.2161ZM10.9846 15.5763V10.7269H10.9227C10.0631 12.2493 8.96124 14.2617 8.32444 15.5294V15.5763H10.9846ZM15.8545 18.9752C15.3766 18.9752 15.0585 18.6581 15.0585 18.1676C15.0585 17.8772 15.1457 17.6325 15.3817 17.3721L18.3276 13.8984C18.9072 13.2326 19.4957 12.6077 19.4957 11.8711C19.4957 11.0775 18.9156 10.5326 18.0538 10.5326C17.2774 10.5326 16.7228 10.9324 16.4519 11.7516C16.292 12.1275 16.0909 12.3499 15.693 12.3499C15.2235 12.3499 14.9479 12.0316 14.9479 11.5643C14.9479 11.4047 14.9735 11.2599 15.0149 11.0927C15.3335 9.86861 16.5939 8.96814 18.0227 8.96814C19.8958 8.96814 21.0892 10.0568 21.0935 11.7253C21.0977 12.9049 20.4635 13.7636 19.5665 14.8129L17.4334 17.283V17.381H20.5926C21.0447 17.381 21.3651 17.6587 21.3651 18.1622C21.3651 18.6549 21.0447 18.9752 20.5926 18.9752H15.8545Z" fill="white"/>
</svg>
