<svg width="28" height="28" viewBox="0 0 28 28" fill="none" xmlns="http://www.w3.org/2000/svg">
<path d="M6.84421 24.8972H21.0295C23.5685 24.8972 24.8737 23.5919 24.8737 21.0914V6.82921C24.8737 4.32656 23.5685 3.02344 21.0295 3.02344H6.84421C4.31484 3.02344 3 4.31695 3 6.82921V21.0914C3 23.6016 4.31484 24.8972 6.84421 24.8972ZM6.97733 22.6013C5.88772 22.6013 5.29592 22.0371 5.29592 20.8985V7.01999C5.29592 5.88139 5.88772 5.31936 6.97733 5.31936H20.8964C21.9764 5.31936 22.5778 5.88139 22.5778 7.01999V20.8985C22.5778 22.0371 21.9764 22.6013 20.8964 22.6013H6.97733Z" fill="black"/>
<path d="M10.1093 18.8817C12.0743 18.8817 13.3976 17.0641 13.3976 13.9427C13.3976 10.8192 12.0743 9.00375 10.1093 9.00375C8.14219 9.00375 6.83789 10.8192 6.83789 13.9427C6.83789 17.0641 8.14219 18.8817 10.1093 18.8817ZM10.1177 17.3119C9.13524 17.3119 8.51226 16.0915 8.51226 13.9427C8.51226 11.794 9.13524 10.5736 10.1177 10.5736C11.0981 10.5736 11.7211 11.794 11.7211 13.9427C11.7211 16.0915 11.1099 17.3119 10.1177 17.3119ZM17.7787 18.8817C19.7519 18.8817 21.1085 17.7202 21.1085 16.0495C21.1085 14.839 20.2856 13.8523 19.1505 13.7435V13.6669C20.0873 13.5091 20.8174 12.5681 20.8174 11.513C20.8174 10.0256 19.6059 9.00375 17.8481 9.00375C16.2998 9.00375 15.1723 9.89555 14.8718 10.9554C14.824 11.1288 14.8155 11.2587 14.8155 11.4195C14.8155 11.8793 15.1062 12.1828 15.5278 12.1828C15.8962 12.1828 16.1027 11.9911 16.2347 11.6288C16.4925 10.8844 16.998 10.478 17.813 10.478C18.6429 10.478 19.2199 10.9835 19.2199 11.7279C19.2199 12.4842 18.6502 13.0505 17.8055 13.0505H17.276C16.8462 13.0505 16.563 13.3516 16.563 13.8094C16.563 14.2329 16.8335 14.5533 17.276 14.5533H17.8535C18.8466 14.5533 19.477 15.1165 19.477 15.9645C19.477 16.7709 18.7889 17.3906 17.7947 17.3906C16.9744 17.3906 16.3901 16.9821 16.0842 16.2377C15.9288 15.8733 15.7106 15.6858 15.3635 15.6858C14.9662 15.6858 14.6353 15.9893 14.6353 16.4395C14.6353 16.6099 14.6609 16.7398 14.7098 16.8984C15.0061 17.9386 16.2377 18.8817 17.7787 18.8817Z" fill="black"/>
</svg>
