<svg width="28" height="28" viewBox="0 0 28 28" fill="none" xmlns="http://www.w3.org/2000/svg">
<path d="M14.105 26.21C20.7369 26.21 26.2121 20.7273 26.2121 14.105C26.2121 7.47312 20.7273 2 14.0954 2C7.47523 2 2 7.47312 2 14.105C2 20.7273 7.48484 26.21 14.105 26.21Z" fill="black"/>
<path d="M11.2389 19.8723C10.6895 19.8723 10.2595 19.816 9.95383 19.6576C9.55633 19.5001 9.36133 19.2317 9.36133 18.8738C9.36133 18.4705 9.62969 18.1808 10.0696 18.1576C10.2198 18.1534 10.3199 18.1609 10.4359 18.1801C10.6288 18.2089 10.7758 18.2495 11.1074 18.2495C12.1147 18.2495 12.5921 17.7666 12.7904 16.6238L13.1317 14.5388H11.0411C10.5993 14.5388 10.3469 14.2716 10.3469 13.8776C10.3469 13.4527 10.6089 13.1801 11.0411 13.1801H13.3339L13.6293 11.3516C13.9658 9.29704 15.0275 8.32227 16.9686 8.32227C17.5084 8.32227 17.9364 8.39235 18.2441 8.53907C18.6416 8.69657 18.8387 8.97454 18.8387 9.32282C18.8387 9.72618 18.5682 10.018 18.1283 10.037C17.9898 10.0412 17.878 10.0358 17.7737 10.0145C17.5808 9.98563 17.4242 9.9568 17.1022 9.9568C16.0928 9.9568 15.6153 10.43 15.4267 11.5323L15.1728 13.1801H17.3687C17.8105 13.1801 18.0767 13.4527 18.0767 13.8776C18.0767 14.2716 17.8105 14.5388 17.3687 14.5388H14.9492L14.5803 16.8547C14.2417 18.9092 13.1821 19.8723 11.2389 19.8723Z" fill="white"/>
</svg>
