<svg width="28" height="28" viewBox="0 0 28 28" fill="none" xmlns="http://www.w3.org/2000/svg">
<path d="M6.84421 24.8972H21.0295C23.5685 24.8972 24.8737 23.5919 24.8737 21.0914V6.82921C24.8737 4.32656 23.5685 3.02344 21.0295 3.02344H6.84421C4.31484 3.02344 3 4.31695 3 6.82921V21.0914C3 23.6016 4.31484 24.8972 6.84421 24.8972ZM6.97733 22.6013C5.88772 22.6013 5.29592 22.0371 5.29592 20.8985V7.01999C5.29592 5.88139 5.88772 5.31936 6.97733 5.31936H20.8964C21.9764 5.31936 22.5778 5.88139 22.5778 7.01999V20.8985C22.5778 22.0371 21.9764 22.6013 20.8964 22.6013H6.97733Z" fill="black"/>
<path d="M10.3095 18.8817C12.2827 18.8817 13.6392 17.7202 13.6392 16.0495C13.6392 14.839 12.8163 13.8523 11.6812 13.7435V13.6669C12.618 13.5091 13.3481 12.5682 13.3481 11.513C13.3481 10.0257 12.1366 9.00378 10.3788 9.00378C8.83055 9.00378 7.70297 9.89558 7.4025 10.9554C7.35469 11.1289 7.34625 11.2587 7.34625 11.4195C7.34625 11.8793 7.63688 12.1828 8.05852 12.1828C8.42695 12.1828 8.63344 11.9911 8.76539 11.6288C9.0232 10.8844 9.52875 10.478 10.3437 10.478C11.164 10.478 11.7506 10.9835 11.7506 11.7279C11.7506 12.4843 11.1809 13.0505 10.3362 13.0505H9.80672C9.37688 13.0505 9.09376 13.3516 9.09376 13.8094C9.09376 14.2329 9.36422 14.5533 9.80672 14.5533H10.3842C11.3773 14.5533 12.0077 15.1165 12.0077 15.9645C12.0077 16.7709 11.3175 17.3906 10.3254 17.3906C9.50508 17.3906 8.92078 16.9821 8.61492 16.2377C8.45953 15.8733 8.24133 15.6858 7.89422 15.6858C7.49695 15.6858 7.16602 15.9893 7.16602 16.4395C7.16602 16.6099 7.19157 16.7398 7.23094 16.8984C7.5368 17.9386 8.76844 18.8817 10.3095 18.8817ZM16.6033 18.7739C16.9873 18.7739 17.2205 18.5686 17.444 18.1216L20.8514 11.172C21.0166 10.8096 21.0698 10.5776 21.0698 10.321C21.0698 9.71089 20.6491 9.2255 19.9277 9.2255H15.4844C15.0354 9.2255 14.7152 9.51401 14.7152 9.9694C14.7152 10.4152 15.0417 10.6941 15.4844 10.6941H19.2466V10.7815L15.8796 17.3339C15.7657 17.5308 15.7338 17.6862 15.7338 17.9257C15.7338 18.428 16.1095 18.7739 16.6033 18.7739Z" fill="black"/>
</svg>
