<svg width="28" height="28" viewBox="0 0 28 28" fill="none" xmlns="http://www.w3.org/2000/svg">
<path d="M14.105 26.21C20.7369 26.21 26.2121 20.7273 26.2121 14.105C26.2121 7.47312 20.7273 2 14.0954 2C7.47523 2 2 7.47312 2 14.105C2 20.7273 7.48484 26.21 14.105 26.21Z" fill="black"/>
<path d="M10.181 19.2493C8.68618 19.2493 7.53305 18.4503 7.18032 17.51C7.10907 17.3408 7.06641 17.1491 7.06641 16.9381C7.06641 16.4975 7.37602 16.1654 7.8211 16.1654C8.13703 16.1654 8.36297 16.3665 8.55891 16.6885C8.89992 17.3265 9.50696 17.7348 10.2736 17.7348C11.3262 17.7348 12.0589 17.0258 12.0589 15.8741C12.0589 14.862 11.3956 14.0954 10.4421 14.0954C9.93891 14.0954 9.59766 14.2606 9.1275 14.6424C8.76821 14.941 8.535 15.057 8.12204 15.057C7.53001 15.057 7.17657 14.6225 7.21173 13.9527L7.48149 10.326C7.52626 9.64253 7.94063 9.23261 8.61048 9.23261H12.6441C13.0589 9.23261 13.3207 9.52652 13.3207 9.97229C13.3207 10.4213 13.043 10.7216 12.6441 10.7216H8.89266L8.67727 13.6055H8.72203C9.08109 13.059 9.90399 12.6795 10.6894 12.6795C12.4514 12.6795 13.7023 13.9714 13.7023 15.8316C13.7023 17.9347 12.316 19.2493 10.181 19.2493ZM18.3293 19.2493C16.2814 19.2493 14.9218 17.3668 14.9218 14.1146C14.9218 10.8625 16.2814 8.98206 18.3293 8.98206C20.3752 8.98206 21.7442 10.8625 21.7442 14.1146C21.7442 17.3668 20.3752 19.2493 18.3293 19.2493ZM18.3399 17.5998C19.3629 17.5998 19.9901 16.3442 19.9901 14.1146C19.9901 11.885 19.3533 10.6295 18.3399 10.6295C17.3222 10.6295 16.6875 11.885 16.6875 14.1146C16.6875 16.3442 17.3222 17.5998 18.3399 17.5998Z" fill="white"/>
</svg>
