<svg width="28" height="28" viewBox="0 0 28 28" fill="none" xmlns="http://www.w3.org/2000/svg">
<path d="M14.105 26.21C20.7369 26.21 26.2121 20.7273 26.2121 14.105C26.2121 7.47312 20.7273 2 14.0954 2C7.47523 2 2 7.47312 2 14.105C2 20.7273 7.48484 26.21 14.105 26.21Z" fill="black"/>
<path d="M10.9492 19.1105C10.4226 19.1105 10.1106 18.7742 10.1106 18.2105V11.1577H10.0445L8.92117 12.0226C8.6357 12.2684 8.4857 12.3097 8.2539 12.3097C7.86648 12.3097 7.50977 11.9637 7.50977 11.5325C7.50977 11.1844 7.67055 10.9407 7.96633 10.7143L9.65946 9.50466C10.131 9.15474 10.4012 9.03544 10.8112 9.03544C11.4238 9.03544 11.807 9.44302 11.807 10.0482V18.2105C11.807 18.7742 11.4855 19.1105 10.9492 19.1105ZM17.2633 19.2376C15.2249 19.2376 13.8611 17.3551 13.8611 14.1029C13.8611 10.8507 15.2249 8.96606 17.2633 8.96606C19.3092 8.96606 20.6781 10.8507 20.6781 14.1029C20.6781 17.3551 19.3092 19.2376 17.2633 19.2376ZM17.2696 17.5881C18.2969 17.5881 18.9316 16.3325 18.9316 14.1029C18.9316 11.8733 18.2873 10.6177 17.2696 10.6177C16.2658 10.6177 15.6194 11.8733 15.6194 14.1029C15.6194 16.3325 16.2658 17.5881 17.2696 17.5881Z" fill="white"/>
</svg>
