<svg width="28" height="28" viewBox="0 0 28 28" fill="none" xmlns="http://www.w3.org/2000/svg">
<path d="M6.84421 24.8972H21.0295C23.5685 24.8972 24.8737 23.5919 24.8737 21.0914V6.82921C24.8737 4.32656 23.5685 3.02344 21.0295 3.02344H6.84421C4.31484 3.02344 3 4.31695 3 6.82921V21.0914C3 23.6016 4.31484 24.8972 6.84421 24.8972Z" fill="black"/>
<path d="M13.7106 19.6987C11.66 19.6987 10.4862 18.7563 10.1649 17.8999C10.1033 17.7466 10.0639 17.587 10.0639 17.4349C10.0639 16.905 10.4691 16.5337 11.0054 16.5337C11.4458 16.5337 11.713 16.733 11.9471 16.9973C12.4098 17.5948 12.9301 17.9051 13.6913 17.9051C15.2321 17.9051 16.2601 16.4159 16.2029 13.9973H16.1028C15.714 14.8816 14.7838 15.6237 13.2542 15.6237C11.3127 15.6237 9.64062 14.3283 9.64062 12.0865C9.64062 9.73218 11.3284 8.18671 13.9016 8.18671C16.7216 8.18671 18.3615 10.1156 18.3615 13.6214C18.3615 17.6002 16.712 19.6987 13.7106 19.6987ZM13.9888 14.067C15.2141 14.067 16.0918 13.2021 16.0918 12.0215C16.0918 10.7908 15.1885 9.88967 13.9888 9.88967C12.7346 9.88967 11.8815 10.7332 11.8815 12.0023C11.8815 13.2063 12.7559 14.067 13.9888 14.067Z" fill="white"/>
</svg>
