<svg width="28" height="28" viewBox="0 0 28 28" fill="none" xmlns="http://www.w3.org/2000/svg">
<path d="M6.84421 24.8972H21.0295C23.5685 24.8972 24.8737 23.5919 24.8737 21.0914V6.82921C24.8737 4.32656 23.5685 3.02344 21.0295 3.02344H6.84421C4.31484 3.02344 3 4.31695 3 6.82921V21.0914C3 23.6016 4.31484 24.8972 6.84421 24.8972ZM6.97733 22.6013C5.88772 22.6013 5.29592 22.0371 5.29592 20.8985V7.01999C5.29592 5.88139 5.88772 5.31936 6.97733 5.31936H20.8964C21.9764 5.31936 22.5778 5.88139 22.5778 7.01999V20.8985C22.5778 22.0371 21.9764 22.6013 20.8964 22.6013H6.97733Z" fill="black"/>
<path d="M8.92969 13.7391C8.92969 14.0449 9.16524 14.2997 9.47321 14.2997H10.1353L10.8506 18.7999C10.9294 19.3181 11.3156 19.6223 11.8029 19.6223C12.2902 19.6223 12.6743 19.3352 12.7605 18.8053L13.4803 14.2901H14.4021L15.1411 18.8053C15.2273 19.3352 15.6115 19.6223 16.0987 19.6223C16.5743 19.6223 16.9659 19.3181 17.0446 18.7999L17.7407 14.2901H18.4017C18.7289 14.2901 18.9548 14.0353 18.9548 13.7294C18.9548 13.4023 18.7289 13.1763 18.4017 13.1763H17.9198L18.4645 9.64616C18.4879 9.5121 18.5093 9.39514 18.5093 9.27256C18.5093 8.80546 18.1633 8.51929 17.7004 8.51929C17.276 8.51929 16.9279 8.7703 16.8715 9.22686L16.3905 13.1763H15.4996L14.8664 9.33374C14.7939 8.82585 14.4 8.5289 13.9284 8.5289C13.4472 8.5289 13.0725 8.82585 12.9905 9.34335L12.3668 13.1859H11.4973L11.0355 9.23647C10.9791 8.77991 10.6289 8.5289 10.1969 8.5289C9.72235 8.5289 9.37641 8.82679 9.37641 9.29178C9.37641 9.43452 9.39985 9.55592 9.41368 9.68459L9.95625 13.1859H9.47321C9.16524 13.1859 8.92969 13.4119 8.92969 13.7391ZM11.6306 14.2805H12.2175L11.8739 16.6906L11.6306 14.2805ZM13.6659 13.1859L13.9401 11.1717L14.2336 13.1859H13.6659ZM15.6489 14.2805H16.286L16.0139 16.7482L15.6489 14.2805Z" fill="black"/>
</svg>
