<svg width="28" height="28" viewBox="0 0 28 28" fill="none" xmlns="http://www.w3.org/2000/svg">
<path d="M6.84421 24.8972H21.0295C23.5685 24.8972 24.8737 23.5919 24.8737 21.0914V6.82921C24.8737 4.32656 23.5685 3.02344 21.0295 3.02344H6.84421C4.31484 3.02344 3 4.31695 3 6.82921V21.0914C3 23.6016 4.31484 24.8972 6.84421 24.8972Z" fill="black"/>
<path d="M9.05469 13.9502C9.05469 10.4259 11.0021 8.20523 13.9711 8.20523C15.8909 8.20523 17.4914 9.22968 18.0898 10.7695C18.1833 10.992 18.229 11.224 18.229 11.4602C18.229 11.9625 17.9056 12.2934 17.381 12.2934C16.9032 12.2934 16.6627 12.0103 16.4979 11.6184C16.1175 10.6127 15.1779 9.88217 13.9868 9.88217C12.155 9.88217 10.9747 11.4823 10.9747 13.9406C10.9747 16.0873 11.7905 17.5509 13.1597 17.9698L13.1618 13.9237C13.1618 13.5626 13.4016 13.3132 13.7532 13.3132C14.0963 13.3132 14.3382 13.5434 14.3382 13.9237V14.415C14.7068 13.7191 15.3708 13.3505 16.0784 13.3505C16.7494 13.3505 17.1799 13.6413 17.1799 14.0707C17.1799 14.3892 16.9381 14.6098 16.5844 14.6098C16.4459 14.6098 16.2839 14.5671 16.0336 14.5671C15.0584 14.5671 14.3478 15.3377 14.3478 16.462V18.0689C15.4432 17.9613 16.2743 17.2884 16.5504 16.3711C16.7152 15.9091 16.9918 15.6687 17.4441 15.6687C17.9771 15.6687 18.3185 15.9996 18.3185 16.4902C18.3089 16.7074 18.2653 16.9076 18.2025 17.1035C17.6262 18.6647 16.0913 19.6994 13.9901 19.6994C10.9979 19.6994 9.05469 17.513 9.05469 13.9502Z" fill="white"/>
</svg>
