<svg width="28" height="28" viewBox="0 0 28 28" fill="none" xmlns="http://www.w3.org/2000/svg">
<path d="M6.84421 24.8972H21.0295C23.5685 24.8972 24.8737 23.5919 24.8737 21.0914V6.82921C24.8737 4.32656 23.5685 3.02344 21.0295 3.02344H6.84421C4.31484 3.02344 3 4.31695 3 6.82921V21.0914C3 23.6016 4.31484 24.8972 6.84421 24.8972ZM6.97733 22.6013C5.88772 22.6013 5.29592 22.0371 5.29592 20.8985V7.01999C5.29592 5.88139 5.88772 5.31936 6.97733 5.31936H20.8964C21.9764 5.31936 22.5778 5.88139 22.5778 7.01999V20.8985C22.5778 22.0371 21.9764 22.6013 20.8964 22.6013H6.97733Z" fill="black"/>
<path d="M10.1454 18.8817C12.1186 18.8817 13.4751 17.7202 13.4751 16.0495C13.4751 14.839 12.6523 13.8523 11.5172 13.7435V13.6669C12.454 13.5091 13.184 12.5681 13.184 11.5129C13.184 10.0256 11.9651 9.00372 10.2148 9.00372C8.66859 9.00372 7.5389 9.89552 7.24054 10.9554C7.19062 11.1288 7.18218 11.2586 7.18218 11.4194C7.18218 11.8793 7.4632 12.1828 7.89445 12.1828C8.26288 12.1828 8.46937 11.9911 8.60343 11.6287C8.86124 10.8843 9.36679 10.4779 10.1796 10.4779C10.9999 10.4779 11.5866 10.9835 11.5866 11.7279C11.5866 12.4842 11.0189 13.0505 10.1721 13.0505H9.64265C9.21281 13.0505 8.92969 13.3516 8.92969 13.8094C8.92969 14.2329 9.19054 14.5533 9.64265 14.5533H10.2202C11.2132 14.5533 11.8437 15.1165 11.8437 15.9645C11.8437 16.7709 11.1556 17.3906 10.1634 17.3906C9.34101 17.3906 8.75671 16.9821 8.45085 16.2377C8.29546 15.8733 8.07726 15.6858 7.73226 15.6858C7.32328 15.6858 7.00195 15.9893 7.00195 16.4395C7.00195 16.6099 7.0296 16.7398 7.06898 16.8984C7.37484 17.9386 8.60437 18.8817 10.1454 18.8817ZM15.723 18.6312H20.2919C20.7239 18.6312 21.0304 18.3267 21.0304 17.8542C21.0304 17.3784 20.7239 17.1049 20.2919 17.1049H17.2382V17.0208L19.2989 14.621C20.1661 13.6153 20.7747 12.7884 20.7726 11.6503C20.7663 10.0509 19.6186 9.00372 17.8146 9.00372C16.4411 9.00372 15.2243 9.86481 14.9196 11.0454C14.8802 11.2083 14.8547 11.3435 14.8547 11.4968C14.8547 11.9461 15.1261 12.2505 15.5679 12.2505C15.9478 12.2505 16.1446 12.0323 16.2907 11.6723C16.552 10.8862 17.0906 10.4906 17.8457 10.4906C18.6841 10.4906 19.2386 11.0196 19.2386 11.7918C19.2386 12.5029 18.6757 13.1044 18.1216 13.7501L15.2779 17.1002C15.0482 17.3543 14.9611 17.5852 14.9611 17.8596C14.9611 18.3321 15.2728 18.6312 15.723 18.6312Z" fill="black"/>
</svg>
