<svg width="28" height="28" viewBox="0 0 28 28" fill="none" xmlns="http://www.w3.org/2000/svg">
<path d="M14.105 26.21C20.7369 26.21 26.2121 20.7273 26.2121 14.105C26.2121 7.47312 20.7273 2 14.0954 2C7.47523 2 2 7.47312 2 14.105C2 20.7273 7.48484 26.21 14.105 26.21ZM14.105 23.8255C8.71085 23.8255 4.39412 19.4991 4.39412 14.105C4.39412 8.71085 8.70124 4.38452 14.0954 4.38452C19.4895 4.38452 23.8276 8.71085 23.8276 14.105C23.8276 19.4991 19.4991 23.8255 14.105 23.8255Z" fill="black"/>
<path d="M8.23944 18.7913H12.8084C13.2404 18.7913 13.5469 18.4869 13.5469 18.0144C13.5469 17.5386 13.2404 17.2651 12.8084 17.2651H9.75468V17.1809L11.8153 14.7812C12.6825 13.7755 13.2891 12.9486 13.287 11.8104C13.2828 10.2111 12.1329 9.16388 10.331 9.16388C8.94585 9.16388 7.7407 10.025 7.4339 11.2055C7.39453 11.3684 7.37109 11.5036 7.37109 11.6569C7.37109 12.1062 7.64038 12.4107 8.08218 12.4107C8.46421 12.4107 8.65897 12.1925 8.8071 11.8325C9.06843 11.0464 9.60703 10.6507 10.3622 10.6507C11.2006 10.6507 11.7551 11.1797 11.7551 11.952C11.7551 12.6631 11.19 13.2645 10.6381 13.9102L7.79437 17.2604C7.56468 17.5145 7.47749 17.7453 7.47749 18.0198C7.47749 18.4923 7.7796 18.7913 8.23944 18.7913ZM17.8088 19.0419C20.1008 19.0419 21.3432 17.2114 21.3432 13.7853C21.3432 10.8141 20.1249 9.16388 17.9356 9.16388C16.009 9.16388 14.7368 10.4543 14.7368 12.4894C14.7368 14.4291 16.0236 15.5457 17.5397 15.5457C18.7306 15.5457 19.4586 14.9091 19.7581 14.1291H19.8242C19.8413 16.2291 19.0646 17.5803 17.7832 17.5803C17.1764 17.5803 16.6986 17.273 16.4321 16.8102C16.2277 16.4884 15.9924 16.3616 15.694 16.3616C15.2907 16.3616 15.0118 16.6639 15.0118 17.093C15.0118 17.2292 15.0511 17.4017 15.1128 17.5613C15.3172 18.1932 16.2486 19.0419 17.8088 19.0419ZM18.0113 14.229C17.0161 14.229 16.3496 13.475 16.3496 12.4086C16.3496 11.292 17.0065 10.5572 18.0209 10.5572C18.9915 10.5572 19.689 11.3283 19.689 12.4278C19.689 13.475 19.0011 14.229 18.0113 14.229Z" fill="black"/>
</svg>
