<svg width="28" height="28" viewBox="0 0 28 28" fill="none" xmlns="http://www.w3.org/2000/svg">
<path d="M14.105 26.21C20.7369 26.21 26.2121 20.7273 26.2121 14.105C26.2121 7.47312 20.7273 2 14.0954 2C7.47523 2 2 7.47312 2 14.105C2 20.7273 7.48484 26.21 14.105 26.21Z" fill="black"/>
<path d="M14.1006 20.0077C13.5517 20.0077 13.1603 19.6512 13.1603 19.0452V17.2159L11.6566 17.8843C11.5691 17.9248 11.4604 17.9483 11.3709 17.9483C11.0341 17.9483 10.8039 17.7064 10.8039 17.3771C10.8039 17.1277 10.9328 16.9477 11.2056 16.8273L13.1603 15.969V14.8627L11.6566 15.5291C11.5691 15.5696 11.4604 15.6026 11.3709 15.6026C11.0341 15.6026 10.8039 15.3512 10.8039 15.0261C10.8039 14.7746 10.9328 14.6042 11.2056 14.4624L13.1603 13.6255V10.3032H10.4315C9.925 10.3032 9.56641 9.95631 9.56641 9.45944C9.56641 8.96468 9.925 8.62741 10.4315 8.62741H17.7622C18.2687 8.62741 18.6273 8.96468 18.6273 9.45944C18.6273 9.95631 18.2687 10.3032 17.7622 10.3032H15.0334V12.8848L16.5606 12.1972C16.6576 12.1662 16.7567 12.1311 16.8484 12.1311C17.1831 12.1311 17.4153 12.3847 17.4153 12.7119C17.4153 12.9612 17.2747 13.1509 17.0115 13.2617L15.0334 14.1338V15.2326L16.551 14.5599C16.648 14.5194 16.7471 14.4863 16.8484 14.4863C17.1735 14.4863 17.4153 14.7282 17.4153 15.0575C17.4153 15.3165 17.2747 15.4965 17.0115 15.6266L15.0334 16.4795V19.0452C15.0334 19.6512 14.642 20.0077 14.1006 20.0077Z" fill="white"/>
</svg>
