<svg width="28" height="28" viewBox="0 0 28 28" fill="none" xmlns="http://www.w3.org/2000/svg">
<path d="M14.105 26.21C20.7369 26.21 26.2121 20.7273 26.2121 14.105C26.2121 7.47312 20.7273 2 14.0954 2C7.47523 2 2 7.47312 2 14.105C2 20.7273 7.48484 26.21 14.105 26.21Z" fill="black"/>
<path d="M10.152 19.2376C8.11156 19.2376 6.75195 17.3551 6.75195 14.1029C6.75195 10.8507 8.11156 8.96606 10.152 8.96606C12.2 8.96606 13.5668 10.8507 13.5668 14.1029C13.5668 17.3551 12.2 19.2376 10.152 19.2376ZM10.1605 17.5881C11.1856 17.5881 11.8128 16.3325 11.8128 14.1029C11.8128 11.8733 11.176 10.6177 10.1605 10.6177C9.15452 10.6177 8.51022 11.8733 8.51022 14.1029C8.51022 16.3325 9.15452 17.5881 10.1605 17.5881ZM17.9977 19.2376C16.3725 19.2376 15.4114 18.3537 15.1932 17.6942C15.1294 17.5325 15.09 17.3537 15.09 17.2058C15.09 16.7586 15.3828 16.4424 15.8021 16.4424C16.1164 16.4424 16.3655 16.5734 16.5741 16.907C16.8523 17.3912 17.344 17.7005 17.9743 17.7005C19.2971 17.7005 20.0972 16.3016 20.0801 14.1312H20.0119C19.6986 14.941 18.9525 15.6031 17.7127 15.6031C16.1391 15.6031 14.8109 14.443 14.8109 12.432C14.8109 10.3119 16.1288 8.96606 18.1266 8.96606C20.4031 8.96606 21.6746 10.6876 21.6746 13.7736C21.6746 17.3337 20.3768 19.2376 17.9977 19.2376ZM18.214 14.2227C19.2293 14.2227 19.9407 13.441 19.9407 12.3587C19.9407 11.224 19.2197 10.4253 18.2236 10.4253C17.1762 10.4253 16.4937 11.1856 16.4937 12.3394C16.4937 13.441 17.1858 14.2227 18.214 14.2227Z" fill="white"/>
</svg>
