<svg width="28" height="28" viewBox="0 0 28 28" fill="none" xmlns="http://www.w3.org/2000/svg">
<path d="M6.84421 24.8972H21.0295C23.5685 24.8972 24.8737 23.5919 24.8737 21.0914V6.82921C24.8737 4.32656 23.5685 3.02344 21.0295 3.02344H6.84421C4.31484 3.02344 3 4.31695 3 6.82921V21.0914C3 23.6016 4.31484 24.8972 6.84421 24.8972ZM6.97733 22.6013C5.88772 22.6013 5.29592 22.0371 5.29592 20.8985V7.01999C5.29592 5.88139 5.88772 5.31936 6.97733 5.31936H20.8964C21.9764 5.31936 22.5778 5.88139 22.5778 7.01999V20.8985C22.5778 22.0371 21.9764 22.6013 20.8964 22.6013H6.97733Z" fill="black"/>
<path d="M9.16992 14.025C9.16992 16.1137 9.86085 17.7075 11.0639 18.638L10.6725 20.1811C10.6491 20.2685 10.6373 20.3505 10.6373 20.4347C10.6373 20.7694 10.8558 20.9953 11.1809 20.9953C11.4569 20.9953 11.6712 20.8547 11.7373 20.5594L12.071 19.2213C12.378 19.3472 12.6968 19.4421 13.0326 19.4965L12.862 20.1907C12.8386 20.2908 12.829 20.3632 12.829 20.4389C12.829 20.7757 13.0335 20.9953 13.3725 20.9953C13.6528 20.9953 13.8607 20.8547 13.9268 20.5594L14.1869 19.5626C16.0673 19.4815 17.47 18.5034 17.992 17.0512C18.0686 16.8511 18.1176 16.6317 18.1176 16.422C18.1176 15.9347 17.7878 15.5782 17.2729 15.5782C16.8323 15.5782 16.5747 15.8552 16.428 16.2574C16.1765 17.1031 15.5013 17.7312 14.5924 17.8856L16.2058 11.5146C16.2986 11.6074 16.3818 11.7621 16.4341 11.9456C16.5808 12.248 16.7861 12.5102 17.2174 12.5102C17.7143 12.5102 18.0356 12.1889 18.0356 11.6845C18.0356 11.4675 17.9803 11.2409 17.8889 11.0259C17.6409 10.3964 17.2331 9.86157 16.7093 9.45235L17.0568 8.05359C17.0899 7.96617 17.1016 7.88414 17.1016 7.80633C17.1016 7.47914 16.8853 7.2532 16.5602 7.2532C16.282 7.2532 16.0678 7.39383 15.9921 7.69125L15.6968 8.85844C15.4014 8.73469 15.0827 8.64938 14.7426 8.58328L14.8769 8.05148C14.8982 7.97367 14.9121 7.88203 14.9121 7.80633C14.9121 7.47914 14.6957 7.2532 14.3685 7.2532C14.0925 7.2532 13.8782 7.39383 13.8025 7.69125L13.5925 8.5343C10.8893 8.69016 9.16992 10.7862 9.16992 14.025ZM11.0018 14.0292C11.0018 12.0077 11.8113 10.5961 13.1657 10.2316L11.5812 16.5321C11.2045 15.8859 11.0018 15.0445 11.0018 14.0292ZM12.4723 17.5826L14.3552 10.1571C14.6953 10.204 15.0098 10.3266 15.2913 10.4981L13.4221 17.9419C13.0628 17.8896 12.7559 17.7691 12.4723 17.5826Z" fill="black"/>
</svg>
