<svg width="28" height="28" viewBox="0 0 28 28" fill="none" xmlns="http://www.w3.org/2000/svg">
<path d="M7.43178 25.1386C8.30342 25.1386 8.86685 24.5878 8.86685 23.6726V16.6134C8.86685 11.584 10.9469 9.12607 14.2561 9.12607C17.5652 9.12607 19.6453 11.584 19.6453 16.6134V23.6726C19.6453 24.5836 20.2109 25.1386 21.0771 25.1386C21.9391 25.1386 22.5122 24.5878 22.5122 23.6726V16.5115C22.5122 10.0695 19.2532 6.55945 14.2561 6.55945C9.24937 6.55945 6 10.0695 6 16.5115V23.6726C6 24.5836 6.56554 25.1386 7.43178 25.1386ZM13.3127 24.1605C13.3127 24.6802 13.7365 25.0943 14.2561 25.0943C14.7778 25.0943 15.1898 24.6802 15.1898 24.1605V3.93375C15.1898 3.41414 14.7778 3 14.2561 3C13.7365 3 13.3127 3.41414 13.3127 3.93375V24.1605Z" fill="black"/>
</svg>
