<svg width="28" height="28" viewBox="0 0 28 28" fill="none" xmlns="http://www.w3.org/2000/svg">
<path d="M6.84421 24.8972H21.0295C23.5685 24.8972 24.8737 23.5919 24.8737 21.0914V6.82921C24.8737 4.32656 23.5685 3.02344 21.0295 3.02344H6.84421C4.31484 3.02344 3 4.31695 3 6.82921V21.0914C3 23.6016 4.31484 24.8972 6.84421 24.8972Z" fill="black"/>
<path d="M12.1693 19.056C11.6689 19.056 11.3795 18.6897 11.3795 18.1914V16.9126H8.11367C7.42508 16.9126 6.99805 16.4943 6.99805 15.7991C6.99805 15.4246 7.07141 15.1087 7.27602 14.7104C7.98969 13.3616 9.08493 11.411 9.99994 9.83618C10.4152 9.11126 10.8868 8.80798 11.6638 8.80798C12.4756 8.80798 12.9751 9.31352 12.9751 10.1052V15.4098H13.531C14.0005 15.4098 14.2827 15.7014 14.2827 16.1751C14.2827 16.6349 14.0005 16.9063 13.531 16.9063H12.9751V18.1914C12.9751 18.6993 12.6952 19.056 12.1693 19.056ZM11.3795 15.4161V10.5667H11.3251C10.4579 12.0892 9.35399 14.1015 8.71508 15.3693V15.4161H11.3795ZM18.7822 18.9482C18.2652 18.9482 17.9436 18.614 17.9436 18.0503V10.9975H17.8871L16.752 11.8624C16.4666 12.1082 16.3262 12.1495 16.0869 12.1495C15.6974 12.1495 15.3428 11.8056 15.3428 11.3723C15.3428 11.0242 15.5014 10.7826 15.7993 10.5541L17.4903 9.34446C17.964 8.99454 18.2342 8.87735 18.6517 8.87735C19.2643 8.87735 19.6358 9.28493 19.6358 9.88797V18.0503C19.6358 18.614 19.3142 18.9482 18.7822 18.9482Z" fill="white"/>
</svg>
