<svg width="28" height="28" viewBox="0 0 28 28" fill="none" xmlns="http://www.w3.org/2000/svg">
<path d="M14.105 26.21C20.7369 26.21 26.2121 20.7273 26.2121 14.105C26.2121 7.47312 20.7273 2 14.0954 2C7.47523 2 2 7.47312 2 14.105C2 20.7273 7.48484 26.21 14.105 26.21ZM14.105 23.8255C8.71085 23.8255 4.39412 19.4991 4.39412 14.105C4.39412 8.71085 8.70124 4.38452 14.0954 4.38452C19.4895 4.38452 23.8276 8.71085 23.8276 14.105C23.8276 19.4991 19.4991 23.8255 14.105 23.8255Z" fill="black"/>
<path d="M8.31938 18.7913H12.8787C13.3107 18.7913 13.6172 18.4869 13.6172 18.0144C13.6172 17.5386 13.3107 17.2651 12.8787 17.2651H9.83461V17.1809L11.8952 14.7812C12.7625 13.7755 13.3711 12.9486 13.3669 11.8104C13.3627 10.2111 12.2032 9.16388 10.4013 9.16388C9.02579 9.16388 7.81102 10.025 7.50422 11.2055C7.47657 11.3684 7.44141 11.5036 7.44141 11.6569C7.44141 12.1062 7.72032 12.4107 8.15461 12.4107C8.53453 12.4107 8.73141 12.1925 8.87742 11.8325C9.14836 11.0464 9.67735 10.6507 10.4325 10.6507C11.2805 10.6507 11.835 11.1797 11.835 11.952C11.835 12.6631 11.2603 13.2645 10.718 13.9102L7.86469 17.2604C7.64461 17.5145 7.54782 17.7453 7.54782 18.0198C7.54782 18.4923 7.85953 18.7913 8.31938 18.7913ZM17.8897 19.0419C19.8525 19.0419 21.1758 17.2243 21.1758 14.1029C21.1758 10.9793 19.8525 9.16388 17.8897 9.16388C15.9204 9.16388 14.6161 10.9793 14.6161 14.1029C14.6161 17.2243 15.9204 19.0419 17.8897 19.0419ZM17.896 17.472C16.9135 17.472 16.2905 16.2516 16.2905 14.1029C16.2905 11.9541 16.9135 10.7337 17.896 10.7337C18.8881 10.7337 19.5015 11.9541 19.5015 14.1029C19.5015 16.2516 18.8977 17.472 17.896 17.472Z" fill="black"/>
</svg>
