<svg width="28" height="28" viewBox="0 0 28 28" fill="none" xmlns="http://www.w3.org/2000/svg">
<path d="M14.105 26.21C20.7369 26.21 26.2121 20.7273 26.2121 14.105C26.2121 7.47312 20.7273 2 14.0954 2C7.47523 2 2 7.47312 2 14.105C2 20.7273 7.48484 26.21 14.105 26.21Z" fill="black"/>
<path d="M14.1044 19.688C13.342 19.688 12.9157 19.1584 12.9157 18.3376V15.6212L9.61515 10.0484C9.47898 9.81335 9.42578 9.59632 9.42578 9.38047C9.42578 8.79992 9.89265 8.34149 10.5168 8.34149C11.0558 8.34149 11.3366 8.53602 11.6387 9.12382L14.0767 13.4459H14.1534L16.6106 9.12382C16.9031 8.54563 17.1742 8.34149 17.7037 8.34149C18.3374 8.34149 18.7851 8.79031 18.7851 9.39968C18.7851 9.60593 18.7298 9.83257 18.5957 10.0484L15.3145 15.6019V18.3376C15.3145 19.1851 14.8764 19.688 14.1044 19.688Z" fill="white"/>
</svg>
