<svg width="28" height="28" viewBox="0 0 28 28" fill="none" xmlns="http://www.w3.org/2000/svg">
<path d="M14.105 26.21C20.7369 26.21 26.2121 20.7273 26.2121 14.105C26.2121 7.47312 20.7273 2 14.0954 2C7.47523 2 2 7.47312 2 14.105C2 20.7273 7.48484 26.21 14.105 26.21ZM14.105 23.8255C8.71085 23.8255 4.39412 19.4991 4.39412 14.105C4.39412 8.71085 8.70124 4.38452 14.0954 4.38452C19.4895 4.38452 23.8276 8.71085 23.8276 14.105C23.8276 19.4991 19.4991 23.8255 14.105 23.8255Z" fill="black"/>
<path d="M15.3178 19.898C15.7572 19.898 16.1517 19.577 16.1517 19.0918C16.1517 18.8288 16.0185 18.6043 15.8132 18.4065L12.7073 15.5054L12.992 15.4991C15.191 15.4379 16.2792 14.172 16.5147 12.7566H17.6151C17.9402 12.7566 18.1661 12.5115 18.1661 12.2035C18.1661 11.8784 17.9402 11.6429 17.6151 11.6429H16.5264C16.4486 11.0525 16.2332 10.5324 15.8856 10.1169H17.5649C17.8921 10.1169 18.1181 9.8621 18.1181 9.55624C18.1181 9.22905 17.8921 9.00311 17.5649 9.00311H15.1293C14.7185 8.93772 14.2823 8.90186 13.825 8.90186H10.7844C10.3534 8.90186 10.0234 9.22014 10.0234 9.65444C10.0234 10.0674 10.3534 10.4124 10.7844 10.4124H12.7673C13.7744 10.4124 14.4567 10.8666 14.6709 11.6429H10.701C10.3834 11.6429 10.1479 11.8784 10.1479 12.2035C10.1479 12.5115 10.3834 12.7566 10.701 12.7566H14.6901C14.4897 13.5905 13.7711 14.0138 12.6424 14.0138H11.0284C10.4994 14.0138 10.1099 14.3269 10.1099 14.8719C10.1099 15.2977 10.2911 15.4958 10.5866 15.7817L14.5399 19.5289C14.8251 19.8045 15.04 19.898 15.3178 19.898Z" fill="black"/>
</svg>
