<svg width="28" height="28" viewBox="0 0 28 28" fill="none" xmlns="http://www.w3.org/2000/svg">
<path d="M14.105 26.21C20.7369 26.21 26.2121 20.7273 26.2121 14.105C26.2121 7.47312 20.7273 2 14.0954 2C7.47523 2 2 7.47312 2 14.105C2 20.7273 7.48484 26.21 14.105 26.21ZM14.105 23.8255C8.71085 23.8255 4.39412 19.4991 4.39412 14.105C4.39412 8.71085 8.70124 4.38452 14.0954 4.38452C19.4895 4.38452 23.8276 8.71085 23.8276 14.105C23.8276 19.4991 19.4991 23.8255 14.105 23.8255Z" fill="black"/>
<path d="M10.1356 19.0419C12.1088 19.0419 13.4557 17.8803 13.4557 16.2097C13.4557 14.9991 12.6425 14.0124 11.5053 13.9037V13.827C12.4346 13.6693 13.1646 12.7283 13.1646 11.6732C13.1646 10.1858 11.9532 9.16394 10.205 9.16394C8.64711 9.16394 7.51953 10.0557 7.21906 11.1156C7.18086 11.289 7.16281 11.4189 7.16281 11.5796C7.16281 12.0394 7.45344 12.343 7.87508 12.343C8.24352 12.343 8.45 12.1512 8.58195 11.7889C8.83976 11.0446 9.35492 10.6382 10.1698 10.6382C10.9902 10.6382 11.5672 11.1437 11.5672 11.8881C11.5672 12.6444 10.9974 13.2106 10.1623 13.2106H9.63289C9.19344 13.2106 8.91032 13.5118 8.91032 13.9695C8.91032 14.393 9.18078 14.7134 9.63289 14.7134H10.2008C11.2034 14.7134 11.8243 15.2766 11.8243 16.1246C11.8243 16.9311 11.1437 17.5508 10.1516 17.5508C9.33125 17.5508 8.73734 17.1423 8.44109 16.3979C8.2857 16.0334 8.0675 15.8459 7.72039 15.8459C7.31352 15.8459 6.99219 16.1495 6.99219 16.5997C6.99219 16.7701 7.00813 16.8999 7.05711 17.0586C7.35336 18.0987 8.59461 19.0419 10.1356 19.0419ZM18.1425 19.0515C20.0093 19.0515 21.3286 17.7997 21.3286 15.6973C21.3286 13.7534 20.0091 12.6697 18.5511 12.6697C17.3806 12.6697 16.6385 13.3243 16.3615 14.0534H16.2816C16.2795 13.9993 16.2774 13.9527 16.2774 13.8699C16.2774 11.8871 17.0984 10.6255 18.2961 10.6255C18.9092 10.6255 19.339 10.9283 19.6151 11.341C19.8101 11.6129 19.9965 11.7557 20.3372 11.7557C20.679 11.7557 20.9747 11.4852 20.9747 11.0711C20.9747 10.8934 20.945 10.7443 20.8737 10.573C20.569 9.8237 19.6568 9.16394 18.3547 9.16394C16.1604 9.16394 14.7511 10.8859 14.7511 14.326C14.7511 15.6798 14.975 16.708 15.3586 17.4462C15.9394 18.5797 16.9451 19.0515 18.1425 19.0515ZM18.0638 17.6485C17.0836 17.6485 16.3978 16.8753 16.3978 15.778C16.3978 14.7308 17.074 13.9843 18.0638 13.9843C19.0472 13.9843 19.7255 14.7212 19.7255 15.7876C19.7255 16.9234 19.0782 17.6485 18.0638 17.6485Z" fill="black"/>
</svg>
