<svg width="28" height="28" viewBox="0 0 28 28" fill="none" xmlns="http://www.w3.org/2000/svg">
<path d="M14.105 26.21C20.7369 26.21 26.2121 20.7273 26.2121 14.105C26.2121 7.47312 20.7273 2 14.0954 2C7.47523 2 2 7.47312 2 14.105C2 20.7273 7.48484 26.21 14.105 26.21Z" fill="black"/>
<path d="M9.74789 11.5869C9.74789 11.143 10.028 10.8322 10.5101 10.8322H17.6876C18.1793 10.8322 18.4594 11.143 18.4594 11.5869C18.4594 12.0437 18.1835 12.3544 17.6876 12.3544H15.0354V19.2141C15.0354 19.816 14.6536 20.1587 14.1143 20.1587C13.575 20.1587 13.174 19.816 13.174 19.2141V12.3544H10.5101C10.0259 12.3544 9.74789 12.0437 9.74789 11.5869ZM9.72656 9.25812C9.72656 8.9171 9.96 8.69116 10.2881 8.69116H17.8978C18.2452 8.69116 18.469 8.9171 18.469 9.25812C18.469 9.59163 18.2452 9.84429 17.8978 9.84429H10.2881C9.96211 9.84429 9.72656 9.59163 9.72656 9.25812Z" fill="white"/>
</svg>
