<svg width="28" height="28" viewBox="0 0 28 28" fill="none" xmlns="http://www.w3.org/2000/svg">
<path d="M14.105 26.21C20.7369 26.21 26.2121 20.7273 26.2121 14.105C26.2121 7.47312 20.7273 2 14.0954 2C7.47523 2 2 7.47312 2 14.105C2 20.7273 7.48484 26.21 14.105 26.21ZM14.105 23.8255C8.71085 23.8255 4.39412 19.4991 4.39412 14.105C4.39412 8.71085 8.70124 4.38452 14.0954 4.38452C19.4895 4.38452 23.8276 8.71085 23.8276 14.105C23.8276 19.4991 19.4991 23.8255 14.105 23.8255Z" fill="black"/>
<path d="M11.4777 19.3147H16.8181C17.3668 19.3147 17.7392 18.9816 17.7392 18.4348C17.7392 17.8784 17.3668 17.5454 16.8181 17.5454H12.5133V14.7516H16.5682C17.0811 14.7516 17.4387 14.4622 17.4387 13.9524C17.4387 13.4255 17.0811 13.1244 16.5682 13.1244H12.5133V10.4841H16.8181C17.3668 10.4841 17.7392 10.1415 17.7392 9.59467C17.7392 9.03827 17.3668 8.71484 16.8181 8.71484H11.4777C10.7185 8.71484 10.3262 9.19577 10.3262 9.97623V18.0533C10.3262 18.8337 10.7143 19.3147 11.4777 19.3147Z" fill="black"/>
</svg>
