<svg width="28" height="28" viewBox="0 0 28 28" fill="none" xmlns="http://www.w3.org/2000/svg">
<path d="M6.84421 24.8972H21.0295C23.5685 24.8972 24.8737 23.5919 24.8737 21.0914V6.82921C24.8737 4.32656 23.5685 3.02344 21.0295 3.02344H6.84421C4.31484 3.02344 3 4.31695 3 6.82921V21.0914C3 23.6016 4.31484 24.8972 6.84421 24.8972ZM6.97733 22.6013C5.88772 22.6013 5.29592 22.0371 5.29592 20.8985V7.01999C5.29592 5.88139 5.88772 5.31936 6.97733 5.31936H20.8964C21.9764 5.31936 22.5778 5.88139 22.5778 7.01999V20.8985C22.5778 22.0371 21.9764 22.6013 20.8964 22.6013H6.97733Z" fill="black"/>
<path d="M9.74985 11.5214C9.74985 11.9527 10.0236 12.2496 10.4802 12.2496H13.0514V18.8625C13.0514 19.4304 13.4344 19.7709 13.9493 19.7709C14.4685 19.7709 14.8322 19.4304 14.8322 18.8625V12.2496H17.4014C17.858 12.2496 18.1317 11.9527 18.1317 11.5214C18.1317 11.0977 17.8559 10.8007 17.4014 10.8007H10.4802C10.0257 10.8007 9.74985 11.0977 9.74985 11.5214ZM9.72852 9.28194C9.72852 9.60163 9.96196 9.84468 10.2762 9.84468H17.5936C17.9196 9.84468 18.1414 9.60163 18.1414 9.28194C18.1414 8.95265 17.9196 8.72882 17.5936 8.72882H10.2762C9.95774 8.72882 9.72852 8.95265 9.72852 9.28194Z" fill="black"/>
</svg>
