<svg width="28" height="28" viewBox="0 0 28 28" fill="none" xmlns="http://www.w3.org/2000/svg">
<path d="M6.84421 24.8972H21.0295C23.5685 24.8972 24.8737 23.5919 24.8737 21.0914V6.82921C24.8737 4.32656 23.5685 3.02344 21.0295 3.02344H6.84421C4.31484 3.02344 3 4.31695 3 6.82921V21.0914C3 23.6016 4.31484 24.8972 6.84421 24.8972Z" fill="black"/>
<path d="M10.7702 19.6261C10.0383 19.6261 9.57423 19.2419 9.40712 18.5133L7.18946 9.60654C7.15219 9.47342 7.14258 9.34662 7.14258 9.23482C7.14258 8.61865 7.55438 8.19092 8.18648 8.19092C8.82609 8.19092 9.15257 8.51529 9.28898 9.26998L10.8848 16.564H10.9753L12.8149 9.14201C12.9502 8.53756 13.325 8.25022 13.9561 8.25022C14.5873 8.25022 14.9588 8.54389 15.1015 9.14412L16.939 16.564H17.0295L18.635 9.26998C18.7714 8.51529 19.0978 8.19092 19.7353 8.19092C20.3675 8.19092 20.7814 8.61865 20.7814 9.23482C20.7814 9.34662 20.7717 9.47342 20.7345 9.60654L18.5051 18.5133C18.338 19.2419 17.8739 19.6261 17.1324 19.6261C16.4131 19.6261 15.9193 19.2431 15.7618 18.5177L14.0051 11.5176H13.9071L12.1526 18.5177C11.9951 19.2431 11.5012 19.6261 10.7702 19.6261Z" fill="white"/>
</svg>
