<svg width="28" height="28" viewBox="0 0 28 28" fill="none" xmlns="http://www.w3.org/2000/svg">
<path d="M14.105 26.21C20.7369 26.21 26.2121 20.7273 26.2121 14.105C26.2121 7.47312 20.7273 2 14.0954 2C7.47523 2 2 7.47312 2 14.105C2 20.7273 7.48484 26.21 14.105 26.21Z" fill="black"/>
<path d="M10.9134 19.2376C8.86547 19.2376 7.50586 17.3551 7.50586 14.1029C7.50586 10.8507 8.86547 8.96606 10.9134 8.96606C12.9593 8.96606 14.3304 10.8507 14.3304 14.1029C14.3304 17.3551 12.9593 19.2376 10.9134 19.2376ZM10.9219 17.5881C11.947 17.5881 12.5721 16.3325 12.5721 14.1029C12.5721 11.8733 11.9374 10.6177 10.9219 10.6177C9.90843 10.6177 9.26952 11.8733 9.26952 14.1029C9.26952 16.3325 9.90843 17.5881 10.9219 17.5881ZM19.1965 19.1105C18.6795 19.1105 18.3579 18.7742 18.3579 18.2105V11.1577H18.2993L17.1663 12.0226C16.883 12.2684 16.7426 12.3097 16.4991 12.3097C16.1138 12.3097 15.7549 11.9637 15.7549 11.5325C15.7549 11.1844 15.9136 10.9407 16.2136 10.7143L17.9163 9.50466C18.3762 9.15474 18.6485 9.03544 19.0659 9.03544C19.6807 9.03544 20.0522 9.44302 20.0522 10.0482V18.2105C20.0522 18.7742 19.7381 19.1105 19.1965 19.1105Z" fill="white"/>
</svg>
