<svg width="28" height="28" viewBox="0 0 28 28" fill="none" xmlns="http://www.w3.org/2000/svg">
<path d="M14.105 26.21C20.7369 26.21 26.2121 20.7273 26.2121 14.105C26.2121 7.47312 20.7273 2 14.0954 2C7.47523 2 2 7.47312 2 14.105C2 20.7273 7.48484 26.21 14.105 26.21Z" fill="black"/>
<path d="M10.0257 19.2376C8.41976 19.2376 7.13492 18.2551 6.82484 17.1755C6.77586 17.0127 6.75781 16.8711 6.75781 16.6986C6.75781 16.2282 7.09507 15.9109 7.52 15.9109C7.88093 15.9109 8.11296 16.1005 8.27046 16.4809C8.58265 17.2487 9.18828 17.6689 10.0438 17.6689C11.0614 17.6689 11.7634 17.0354 11.7634 16.2076C11.7634 15.3244 11.1287 14.7474 10.093 14.7474H9.50375C9.02937 14.7474 8.74719 14.4111 8.74719 13.9695C8.74719 13.482 9.04414 13.167 9.50375 13.167H10.0545C10.9152 13.167 11.5063 12.5848 11.5063 11.8072C11.5063 11.0372 10.9037 10.52 10.062 10.52C9.22156 10.52 8.68507 10.936 8.42304 11.7059C8.27726 12.0842 8.07828 12.278 7.68218 12.278C7.23289 12.278 6.92844 11.9586 6.92844 11.4807C6.92844 11.3178 6.94648 11.1741 6.99851 10.9986C7.29898 9.90146 8.47976 8.96606 10.0951 8.96606C11.9188 8.96606 13.1738 10.0294 13.1738 11.5763C13.1738 12.6709 12.4139 13.6534 11.457 13.8132V13.8919C12.6357 14.0103 13.4745 15.0289 13.4745 16.2927C13.4745 18.0228 12.0722 19.2376 10.0257 19.2376ZM19.7904 19.2184C19.2783 19.2184 18.9868 18.852 18.9868 18.3516V17.0729H15.7327C15.0516 17.0729 14.615 16.6545 14.615 15.9594C14.615 15.5848 14.7 15.2689 14.8929 14.8707C15.6087 13.5177 16.7018 11.569 17.6307 9.99637C18.0322 9.27145 18.5037 8.96606 19.2807 8.96606C20.085 8.96606 20.5962 9.47372 20.5962 10.2654V15.5701H21.1575C21.6099 15.5701 21.8921 15.8637 21.8921 16.3353C21.8921 16.7952 21.6099 17.0666 21.1575 17.0666H20.5962V18.3516C20.5962 18.8637 20.3025 19.2184 19.7904 19.2184ZM18.9868 15.5764V10.7269H18.9324C18.0769 12.2452 16.9613 14.2618 16.3245 15.5295V15.5764H18.9868Z" fill="white"/>
</svg>
