<svg width="28" height="28" viewBox="0 0 28 28" fill="none" xmlns="http://www.w3.org/2000/svg">
<path d="M14.105 26.21C20.7369 26.21 26.2121 20.7273 26.2121 14.105C26.2121 7.47312 20.7273 2 14.0954 2C7.47523 2 2 7.47312 2 14.105C2 20.7273 7.48484 26.21 14.105 26.21ZM14.105 23.8255C8.71085 23.8255 4.39412 19.4991 4.39412 14.105C4.39412 8.71085 8.70124 4.38452 14.0954 4.38452C19.4895 4.38452 23.8276 8.71085 23.8276 14.105C23.8276 19.4991 19.4991 23.8255 14.105 23.8255Z" fill="black"/>
<path d="M11.3452 19.334H14.8346C17.1887 19.334 18.7262 18.1642 18.7262 16.3602C18.7262 14.9242 17.7758 13.9291 16.2151 13.7395V13.6607C17.39 13.3985 18.128 12.4907 18.128 11.3188C18.128 9.72177 16.8378 8.69568 14.8159 8.69568H11.3452C10.5476 8.69568 10.0977 9.14778 10.0977 9.95707V18.0822C10.0977 18.8744 10.5434 19.334 11.3452 19.334ZM12.2178 13.151V10.2282H14.2805C15.3692 10.2282 16.0313 10.7816 16.0313 11.6603C16.0313 12.6093 15.2581 13.151 13.8397 13.151H12.2178ZM12.2157 17.7677V14.5539H14.4545C15.7576 14.5539 16.5221 15.1595 16.5221 16.1854C16.5221 17.2624 15.702 17.7677 13.9655 17.7677H12.2157Z" fill="black"/>
</svg>
