<svg width="28" height="28" viewBox="0 0 28 28" fill="none" xmlns="http://www.w3.org/2000/svg">
<path d="M6.84421 24.8972H21.0295C23.5685 24.8972 24.8737 23.5919 24.8737 21.0914V6.82921C24.8737 4.32656 23.5685 3.02344 21.0295 3.02344H6.84421C4.31484 3.02344 3 4.31695 3 6.82921V21.0914C3 23.6016 4.31484 24.8972 6.84421 24.8972ZM6.97733 22.6013C5.88772 22.6013 5.29592 22.0371 5.29592 20.8985V7.01999C5.29592 5.88139 5.88772 5.31936 6.97733 5.31936H20.8964C21.9764 5.31936 22.5778 5.88139 22.5778 7.01999V20.8985C22.5778 22.0371 21.9764 22.6013 20.8964 22.6013H6.97733Z" fill="black"/>
<path d="M10.8773 19.2719C11.5773 19.2719 11.9847 18.8187 11.9847 18.0633V15.9886L13.3005 14.6027L16.4081 18.7305C16.6889 19.1123 16.9666 19.2719 17.3559 19.2719C17.9718 19.2719 18.4164 18.8358 18.4164 18.2538C18.4164 17.9752 18.3206 17.7131 18.1228 17.442L14.9142 13.2248L17.8647 10.1416C18.0998 9.87467 18.1882 9.65858 18.1882 9.35647C18.1882 8.84905 17.7436 8.43726 17.1808 8.43726C16.8267 8.43726 16.5916 8.56593 16.282 8.90717L12.0634 13.3355H11.9847V9.66491C11.9847 8.89897 11.5858 8.43726 10.8773 8.43726C10.1955 8.43726 9.78906 8.89686 9.78906 9.66491V18.0422C9.78906 18.8123 10.1955 19.2719 10.8773 19.2719Z" fill="black"/>
</svg>
