<svg width="28" height="28" viewBox="0 0 28 28" fill="none" xmlns="http://www.w3.org/2000/svg">
<path d="M14.105 26.21C20.7369 26.21 26.2121 20.7273 26.2121 14.105C26.2121 7.47312 20.7273 2 14.0954 2C7.47523 2 2 7.47312 2 14.105C2 20.7273 7.48484 26.21 14.105 26.21ZM14.105 23.8255C8.71085 23.8255 4.39412 19.4991 4.39412 14.105C4.39412 8.71085 8.70124 4.38452 14.0954 4.38452C19.4895 4.38452 23.8276 8.71085 23.8276 14.105C23.8276 19.4991 19.4991 23.8255 14.105 23.8255Z" fill="black"/>
<path d="M11.7884 19.0227C12.2845 19.0227 12.5601 18.6798 12.5601 18.1995V16.9517H13.1118C13.544 16.9517 13.8145 16.6941 13.8145 16.2502C13.8145 15.7967 13.544 15.5211 13.1118 15.5211H12.5601V10.3996C12.5601 9.63972 12.0766 9.16394 11.3084 9.16394C10.5675 9.16394 10.1119 9.45128 9.72422 10.1443C8.83266 11.6584 7.76508 13.5495 7.07273 14.8536C6.89156 15.2338 6.80859 15.5337 6.80859 15.8902C6.80859 16.5556 7.22929 16.9559 7.8764 16.9559H11.0283V18.1995C11.0283 18.6702 11.3039 19.0227 11.7884 19.0227ZM11.0283 15.5274H8.44804V15.4805C9.06351 14.2618 10.1419 12.3048 10.976 10.8451H11.0283V15.5274ZM18.1563 19.0419C20.1213 19.0419 21.4446 17.2243 21.4446 14.1029C21.4446 10.9794 20.1213 9.16394 18.1563 9.16394C16.1892 9.16394 14.8828 10.9794 14.8828 14.1029C14.8828 17.2243 16.1892 19.0419 18.1563 19.0419ZM18.1647 17.472C17.1822 17.472 16.5593 16.2516 16.5593 14.1029C16.5593 11.9542 17.1822 10.7338 18.1647 10.7338C19.1451 10.7338 19.7681 11.9542 19.7681 14.1029C19.7681 16.2516 19.1569 17.472 18.1647 17.472Z" fill="black"/>
</svg>
