<svg width="28" height="28" viewBox="0 0 28 28" fill="none" xmlns="http://www.w3.org/2000/svg">
<path d="M14.105 26.21C20.7369 26.21 26.2121 20.7273 26.2121 14.105C26.2121 7.47312 20.7273 2 14.0954 2C7.47523 2 2 7.47312 2 14.105C2 20.7273 7.48484 26.21 14.105 26.21ZM14.105 23.8255C8.71085 23.8255 4.39412 19.4991 4.39412 14.105C4.39412 8.71085 8.70124 4.38452 14.0954 4.38452C19.4895 4.38452 23.8276 8.71085 23.8276 14.105C23.8276 19.4991 19.4991 23.8255 14.105 23.8255Z" fill="black"/>
<path d="M11.5559 19.0227C12.0617 19.0227 12.3374 18.6798 12.3374 18.1995V16.9517H12.8816C13.3234 16.9517 13.5939 16.6941 13.5939 16.2502C13.5939 15.7967 13.3138 15.5211 12.8816 15.5211H12.3374V10.3996C12.3374 9.63972 11.8442 9.16394 11.0781 9.16394C10.3351 9.16394 9.89118 9.45128 9.49392 10.1443C8.61196 11.6584 7.54438 13.5495 6.84242 14.8536C6.65914 15.2338 6.57617 15.5337 6.57617 15.8902C6.57617 16.5556 6.99898 16.9559 7.65359 16.9559H10.8076V18.1995C10.8076 18.6702 11.0736 19.0227 11.5559 19.0227ZM10.8076 15.5274H8.22734V15.4805C8.8407 14.2618 9.92118 12.3048 10.7436 10.8451H10.8076V15.5274ZM19.4542 19.0227C19.9503 19.0227 20.226 18.6798 20.226 18.1995V16.9517H20.7777C21.2099 16.9517 21.4803 16.6941 21.4803 16.2502C21.4803 15.7967 21.2099 15.5211 20.7777 15.5211H20.226V10.3996C20.226 9.63972 19.7403 9.16394 18.9646 9.16394C18.2237 9.16394 17.7777 9.45128 17.39 10.1443C16.4985 11.6584 15.4309 13.5495 14.7385 14.8536C14.5478 15.2338 14.4744 15.5337 14.4744 15.8902C14.4744 16.5556 14.8855 16.9559 15.5422 16.9559H18.6941V18.1995C18.6941 18.6702 18.9697 19.0227 19.4542 19.0227ZM18.6941 15.5274H16.1139V15.4805C16.7293 14.2618 17.8077 12.3048 18.6418 10.8451H18.6941V15.5274Z" fill="black"/>
</svg>
