<svg width="28" height="28" viewBox="0 0 28 28" fill="none" xmlns="http://www.w3.org/2000/svg">
<path d="M6.84421 24.8972H21.0295C23.5685 24.8972 24.8737 23.5919 24.8737 21.0914V6.82921C24.8737 4.32656 23.5685 3.02344 21.0295 3.02344H6.84421C4.31484 3.02344 3 4.31695 3 6.82921V21.0914C3 23.6016 4.31484 24.8972 6.84421 24.8972Z" fill="black"/>
<path d="M11.4845 18.9504C10.9654 18.9504 10.6438 18.6141 10.6438 18.0504V10.9976H10.5777L9.45227 11.872C9.1593 12.1083 9.02641 12.1495 8.78711 12.1495C8.39758 12.1495 8.04297 11.8036 8.04297 11.3723C8.04297 11.0243 8.20164 10.7901 8.49203 10.5541L10.1948 9.34453C10.6621 8.99461 10.9345 8.87531 11.354 8.87531C11.9591 8.87531 12.3285 9.28289 12.3285 9.88804V18.0504C12.3285 18.6141 12.0069 18.9504 11.4845 18.9504ZM17.8454 18.9504C17.3188 18.9504 16.9972 18.6141 16.9972 18.0504V10.9976H16.9408L15.8174 11.872C15.5319 12.1083 15.3819 12.1495 15.1501 12.1495C14.7627 12.1495 14.406 11.8036 14.406 11.3723C14.406 11.0243 14.5572 10.7901 14.8625 10.5541L16.5461 9.34453C17.0176 8.99461 17.2879 8.87531 17.7074 8.87531C18.32 8.87531 18.6936 9.28289 18.6936 9.88804V18.0504C18.6936 18.6141 18.3721 18.9504 17.8454 18.9504Z" fill="white"/>
</svg>
