<svg width="28" height="28" viewBox="0 0 28 28" fill="none" xmlns="http://www.w3.org/2000/svg">
<path d="M5.21194 24.463H21.0812C21.8432 24.463 22.3143 24.0048 22.3143 23.2809C22.3143 22.5845 21.8432 22.0966 21.0812 22.0966H15.6116C10.6914 22.0966 6.77357 18.3942 6.76396 13.4856C6.76396 8.62491 10.0965 6.06811 13.9816 6.06811C17.7773 6.06811 20.9062 8.69265 21.074 12.4544C21.1375 13.1952 21.5704 13.8055 22.3968 13.8055C23.2272 13.8055 23.698 13.2299 23.698 12.4429C23.6692 7.62741 19.5074 3.60414 13.9647 3.60414C8.52953 3.60414 4.01312 7.37992 4.01312 13.0319C4.01312 17.2938 6.26875 20.6746 9.28798 22.0771V22.1472H5.21194C4.46476 22.1472 4 22.6204 4 23.3041C4 24.0154 4.46476 24.463 5.21194 24.463ZM16.3082 13.5548C16.7366 13.5548 17.0542 13.2564 17.0542 12.8066V1.75024C17.0542 1.31008 16.7366 1 16.3082 1C15.8873 1 15.5718 1.31008 15.5718 1.75024V12.8066C15.5718 13.2468 15.8873 13.5548 16.3082 13.5548ZM11.703 13.5548C12.1335 13.5548 12.449 13.2564 12.449 12.8066V1.75024C12.449 1.31008 12.1335 1 11.703 1C11.2841 1 10.9665 1.31008 10.9665 1.75024V12.8066C10.9665 13.2564 11.2841 13.5548 11.703 13.5548Z" fill="black"/>
</svg>
