<svg width="28" height="28" viewBox="0 0 28 28" fill="none" xmlns="http://www.w3.org/2000/svg">
<path d="M6.84421 24.8972H21.0295C23.5685 24.8972 24.8737 23.5919 24.8737 21.0914V6.82921C24.8737 4.32656 23.5685 3.02344 21.0295 3.02344H6.84421C4.31484 3.02344 3 4.31695 3 6.82921V21.0914C3 23.6016 4.31484 24.8972 6.84421 24.8972ZM6.97733 22.6013C5.88772 22.6013 5.29592 22.0371 5.29592 20.8985V7.01999C5.29592 5.88139 5.88772 5.31936 6.97733 5.31936H20.8964C21.9764 5.31936 22.5778 5.88139 22.5778 7.01999V20.8985C22.5778 22.0371 21.9764 22.6013 20.8964 22.6013H6.97733Z" fill="black"/>
<path d="M13.968 19.4156C16.8548 19.4156 18.5983 17.704 18.5983 15.2899V14.5568C18.5983 13.8438 18.1938 13.4351 17.5 13.4351H14.6233C14.1222 13.4351 13.8349 13.7416 13.8349 14.1886C13.8349 14.5992 14.1243 14.9346 14.6233 14.9346H16.444V15.5803C16.444 16.8302 15.6133 17.6663 14.0147 17.6663C12.2882 17.6663 11.1482 16.1494 11.1482 13.8584C11.1482 11.595 12.2765 10.0662 13.9858 10.0662C15.1793 10.0662 16.035 10.6378 16.4796 11.6503C16.6999 12.0445 16.9479 12.2466 17.4208 12.2466C17.9899 12.2466 18.3527 11.906 18.3527 11.3569C18.3527 11.1429 18.3229 10.9674 18.2346 10.7693C17.6838 9.33072 16.1041 8.2915 13.9392 8.2915C10.8829 8.2915 8.91016 10.4724 8.91016 13.8584C8.91016 17.2561 10.8829 19.4156 13.968 19.4156Z" fill="black"/>
</svg>
