<svg width="28" height="28" viewBox="0 0 28 28" fill="none" xmlns="http://www.w3.org/2000/svg">
<path d="M14.105 26.21C20.7369 26.21 26.2121 20.7273 26.2121 14.105C26.2121 7.47312 20.7273 2 14.0954 2C7.47523 2 2 7.47312 2 14.105C2 20.7273 7.48484 26.21 14.105 26.21Z" fill="black"/>
<path d="M12.0741 20.1202C11.5188 20.1202 11.1241 19.7394 11.1241 19.1841V18.1594H10.0948C9.74531 18.1594 9.51188 17.9239 9.51188 17.5808C9.51188 17.2494 9.7432 17.0042 10.0948 17.0042H11.1241V15.8323H10.0852C9.72398 15.8323 9.49805 15.5776 9.49805 15.2441C9.49805 14.9084 9.72398 14.6612 10.0852 14.6612H11.1241V9.62374C11.1241 9.03148 11.4912 8.65063 12.0729 8.65063H14.9913C17.2531 8.65063 18.6921 10.1593 18.6921 12.2419C18.6921 14.3333 17.2266 15.8248 14.9501 15.8248H12.9952V17.0042H15.6844C16.0359 17.0042 16.2598 17.2494 16.2598 17.5808C16.2598 17.9239 16.0359 18.1594 15.6844 18.1594H12.9952V19.1841C12.9952 19.7394 12.6218 20.1202 12.0741 20.1202ZM13.0048 14.2339L14.6299 14.2531C16.0514 14.2531 16.8073 13.4832 16.8073 12.2579C16.8073 11.0539 16.061 10.2957 14.632 10.2957H13.0048V14.2339Z" fill="white"/>
</svg>
