<svg width="28" height="28" viewBox="0 0 28 28" fill="none" xmlns="http://www.w3.org/2000/svg">
<path d="M6.84421 24.8972H21.0295C23.5685 24.8972 24.8737 23.5919 24.8737 21.0914V6.82921C24.8737 4.32656 23.5685 3.02344 21.0295 3.02344H6.84421C4.31484 3.02344 3 4.31695 3 6.82921V21.0914C3 23.6016 4.31484 24.8972 6.84421 24.8972ZM6.97733 22.6013C5.88772 22.6013 5.29592 22.0371 5.29592 20.8985V7.01999C5.29592 5.88139 5.88772 5.31936 6.97733 5.31936H20.8964C21.9764 5.31936 22.5778 5.88139 22.5778 7.01999V20.8985C22.5778 22.0371 21.9764 22.6013 20.8964 22.6013H6.97733Z" fill="black"/>
<path d="M10.3848 18.8817C12.3498 18.8817 13.6732 17.0641 13.6732 13.9427C13.6732 10.8192 12.3498 9.00375 10.3848 9.00375C8.41774 9.00375 7.11133 10.8192 7.11133 13.9427C7.11133 17.0641 8.41774 18.8817 10.3848 18.8817ZM10.3933 17.3119C9.41078 17.3119 8.78781 16.0915 8.78781 13.9427C8.78781 11.794 9.41078 10.5736 10.3933 10.5736C11.3737 10.5736 11.9966 11.794 11.9966 13.9427C11.9966 16.0915 11.3854 17.3119 10.3933 17.3119ZM16.5562 18.7739C16.9401 18.7739 17.1829 18.5686 17.3969 18.1216L20.8043 11.172C20.9812 10.8096 21.0227 10.5776 21.0227 10.3209C21.0227 9.71086 20.602 9.22547 19.8806 9.22547H15.4469C14.9882 9.22547 14.6681 9.51398 14.6681 9.96937C14.6681 10.4152 14.9946 10.6941 15.4469 10.6941H19.1995V10.7815L15.8325 17.3339C15.7282 17.5308 15.6867 17.6862 15.6867 17.9257C15.6867 18.428 16.0645 18.7739 16.5562 18.7739Z" fill="black"/>
</svg>
