<svg width="28" height="28" viewBox="0 0 28 28" fill="none" xmlns="http://www.w3.org/2000/svg">
<path d="M14.105 26.21C20.7369 26.21 26.2121 20.7273 26.2121 14.105C26.2121 7.47312 20.7273 2 14.0954 2C7.47523 2 2 7.47312 2 14.105C2 20.7273 7.48484 26.21 14.105 26.21ZM14.105 23.8255C8.71085 23.8255 4.39412 19.4991 4.39412 14.105C4.39412 8.71085 8.70124 4.38452 14.0954 4.38452C19.4895 4.38452 23.8276 8.71085 23.8276 14.105C23.8276 19.4991 19.4991 23.8255 14.105 23.8255Z" fill="black"/>
<path d="M8.12813 18.7913H12.6874C13.1193 18.7913 13.428 18.4869 13.428 18.0144C13.428 17.5386 13.1193 17.2651 12.6874 17.2651H9.64547V17.1809L11.7061 14.7812C12.5711 13.7755 13.1798 12.9486 13.1777 11.8104C13.1735 10.2111 12.014 9.16388 10.2101 9.16388C8.83665 9.16388 7.62188 10.025 7.31508 11.2055C7.28532 11.3684 7.25977 11.5036 7.25977 11.6569C7.25977 12.1062 7.53118 12.4107 7.96336 12.4107C8.34328 12.4107 8.54016 12.1925 8.68828 11.8325C8.95711 11.0464 9.48821 10.6507 10.2413 10.6507C11.0892 10.6507 11.6438 11.1797 11.6438 11.952C11.6438 12.6631 11.0808 13.2645 10.5288 13.9102L7.67555 17.2604C7.45336 17.5145 7.35868 17.7453 7.35868 18.0198C7.35868 18.4923 7.67039 18.7913 8.12813 18.7913ZM17.9292 19.0419C19.9387 19.0419 21.3079 17.8995 21.3079 16.2341C21.3079 15.0514 20.5781 14.1251 19.3854 13.8673V13.7907C20.3918 13.5188 20.9627 12.7025 20.9627 11.6935C20.9627 10.1954 19.732 9.16388 17.9484 9.16388C16.1744 9.16388 14.9341 10.1954 14.9341 11.6935C14.9341 12.7025 15.5051 13.4996 16.5211 13.7907V13.8673C15.3091 14.1251 14.5985 15.061 14.5985 16.2437C14.5985 17.9187 15.9293 19.0419 17.9292 19.0419ZM17.958 17.7071C16.9565 17.7071 16.2323 17.0555 16.2323 16.1213C16.2323 15.2063 16.9565 14.5334 17.958 14.5334C18.9787 14.5334 19.6837 15.1967 19.6837 16.1213C19.6837 17.0555 18.9595 17.7071 17.958 17.7071ZM17.9484 13.2481C17.1208 13.2481 16.5438 12.6573 16.5438 11.8531C16.5438 11.0468 17.1229 10.4923 17.9484 10.4923C18.7835 10.4923 19.3626 11.0468 19.3626 11.8531C19.3626 12.6573 18.776 13.2481 17.9484 13.2481Z" fill="black"/>
</svg>
