<svg width="28" height="28" viewBox="0 0 28 28" fill="none" xmlns="http://www.w3.org/2000/svg">
<path d="M4 23.5999C4 24.2752 4.54656 24.8217 5.22179 24.8217C5.90452 24.8217 6.45108 24.2752 6.45108 23.5999V6.14225H11.6641C14.2937 6.14225 15.5167 7.02256 15.5167 9.86155V17.2793C15.5167 17.9419 16.0623 18.4779 16.7228 18.4779C17.3833 18.4779 17.9193 17.9419 17.9193 17.2793V9.33562C17.9193 5.37656 16.0042 3.53601 12.3796 3.53601H5.88201C4.74812 3.53601 4 4.27898 4 5.39506V23.5999ZM9.77945 22.8017C9.77945 23.8681 10.4537 24.513 11.5223 24.513H18.2425C21.9833 24.513 23.7029 22.583 23.7029 18.3413V4.44702C23.7029 3.77179 23.1468 3.22734 22.4737 3.22734C21.7963 3.22734 21.2519 3.77179 21.2519 4.44702V18.1399C21.2519 21.1676 20.3073 21.9026 17.6411 21.9026H12.1841V10.7165C12.1841 10.0561 11.6385 9.52007 10.978 9.52007C10.3155 9.52007 9.77945 10.0561 9.77945 10.7165V22.8017Z" fill="black"/>
</svg>
