<svg width="28" height="28" viewBox="0 0 28 28" fill="none" xmlns="http://www.w3.org/2000/svg">
<path d="M6.84421 24.8972H21.0295C23.5685 24.8972 24.8737 23.5919 24.8737 21.0914V6.82921C24.8737 4.32656 23.5685 3.02344 21.0295 3.02344H6.84421C4.31484 3.02344 3 4.31695 3 6.82921V21.0914C3 23.6016 4.31484 24.8972 6.84421 24.8972Z" fill="black"/>
<path d="M10.1123 19.5881C9.45718 19.5881 9.03906 19.1913 9.03906 18.5831C9.03906 18.3788 9.08054 18.1608 9.18906 17.8364L12.2889 9.36049C12.5899 8.5294 13.1301 8.11902 13.9509 8.11902C14.7897 8.11902 15.3501 8.53151 15.6468 9.36049L18.7488 17.8364C18.8573 18.1608 18.8988 18.3788 18.8988 18.5831C18.8988 19.1913 18.4807 19.5881 17.8235 19.5881C17.2886 19.5881 16.9174 19.3139 16.7215 18.6417L15.9775 16.4465H11.9582L11.2164 18.6417C11.0205 19.3235 10.6492 19.5881 10.1123 19.5881ZM12.4492 14.7813H15.4865L14.0275 10.3746H13.9103L12.4492 14.7813Z" fill="white"/>
</svg>
