<svg width="28" height="28" viewBox="0 0 28 28" fill="none" xmlns="http://www.w3.org/2000/svg">
<path d="M6.00844 4.1986C6.00844 4.60571 6.33563 4.93501 6.75445 4.93501H21.4169C21.8337 4.93501 22.163 4.60571 22.163 4.1986C22.163 3.78938 21.8337 3.46008 21.4169 3.46008H6.75445C6.33563 3.46008 6.00844 3.78938 6.00844 4.1986ZM6 8.64774C6 9.2414 6.48726 9.72867 7.08093 9.72867H12.6459V23.2875C12.6459 24.1596 13.2773 24.7458 14.0798 24.7458C14.9025 24.7458 15.5297 24.1596 15.5297 23.2875V9.72867H21.0809C21.6841 9.72867 22.1714 9.2414 22.1714 8.64774C22.1714 8.05196 21.6841 7.5668 21.0809 7.5668H7.08093C6.48726 7.5668 6 8.05196 6 8.64774Z" fill="black"/>
</svg>
