<svg width="28" height="28" viewBox="0 0 28 28" fill="none" xmlns="http://www.w3.org/2000/svg">
<path d="M14.105 26.21C20.7369 26.21 26.2121 20.7273 26.2121 14.105C26.2121 7.47312 20.7273 2 14.0954 2C7.47523 2 2 7.47312 2 14.105C2 20.7273 7.48484 26.21 14.105 26.21ZM14.105 23.8255C8.71085 23.8255 4.39412 19.4991 4.39412 14.105C4.39412 8.71085 8.70124 4.38452 14.0954 4.38452C19.4895 4.38452 23.8276 8.71085 23.8276 14.105C23.8276 19.4991 19.4991 23.8255 14.105 23.8255Z" fill="black"/>
<path d="M10.2977 19.0419C12.2709 19.0419 13.6275 17.8803 13.6275 16.2097C13.6275 14.9991 12.8046 14.0124 11.6695 13.9037V13.827C12.6063 13.6693 13.3268 12.7283 13.3268 11.6731C13.3268 10.1857 12.1174 9.16388 10.3671 9.16388C8.82095 9.16388 7.69126 10.0557 7.3929 11.1155C7.34298 11.289 7.33665 11.4188 7.33665 11.5796C7.33665 12.0394 7.61555 12.343 8.04891 12.343C8.41735 12.343 8.62172 12.1512 8.75579 11.7889C9.0136 11.0445 9.51915 10.6381 10.332 10.6381C11.1544 10.6381 11.741 11.1436 11.741 11.888C11.741 12.6444 11.1713 13.2106 10.3245 13.2106H9.79501C9.36517 13.2106 9.07243 13.5118 9.07243 13.9695C9.07243 14.393 9.3429 14.7134 9.79501 14.7134H10.3746C11.3677 14.7134 11.996 15.2766 11.996 16.1246C11.996 16.9311 11.3079 17.5508 10.3158 17.5508C9.49337 17.5508 8.90907 17.1423 8.60321 16.3979C8.44993 16.0334 8.22961 15.8459 7.88462 15.8459C7.47563 15.8459 7.1543 16.1495 7.1543 16.5997C7.1543 16.7701 7.18196 16.8999 7.22134 17.0586C7.5272 18.0987 8.75673 19.0419 10.2977 19.0419ZM15.8754 18.7913H20.4443C20.8762 18.7913 21.1753 18.4869 21.1753 18.0144C21.1753 17.5386 20.8762 17.2651 20.4443 17.2651H17.3927V17.1809L19.4533 14.7812C20.3184 13.7755 20.9271 12.9486 20.925 11.8104C20.9187 10.2111 19.7613 9.16388 17.9669 9.16388C16.5839 9.16388 15.3691 10.025 15.0719 11.2055C15.0326 11.3684 15.007 11.5036 15.007 11.6569C15.007 12.1062 15.2784 12.4107 15.7202 12.4107C16.1001 12.4107 16.297 12.1925 16.4451 11.8325C16.7043 11.0464 17.2451 10.6507 17.9981 10.6507C18.8365 10.6507 19.391 11.1797 19.391 11.952C19.391 12.6631 18.828 13.2645 18.274 13.9102L15.4324 17.2604C15.2006 17.5145 15.1155 17.7453 15.1155 18.0198C15.1155 18.4923 15.4176 18.7913 15.8754 18.7913Z" fill="black"/>
</svg>
