<svg width="28" height="28" viewBox="0 0 28 28" fill="none" xmlns="http://www.w3.org/2000/svg">
<path d="M6.84421 24.8972H21.0295C23.5685 24.8972 24.8737 23.5919 24.8737 21.0914V6.82921C24.8737 4.32656 23.5685 3.02344 21.0295 3.02344H6.84421C4.31484 3.02344 3 4.31695 3 6.82921V21.0914C3 23.6016 4.31484 24.8972 6.84421 24.8972Z" fill="black"/>
<path d="M10.2691 19.0774C8.22109 19.0774 6.87109 17.1949 6.87109 13.9427C6.87109 10.6905 8.22109 8.80594 10.2691 8.80594C12.3074 8.80594 13.6839 10.6905 13.6839 13.9427C13.6839 17.1949 12.3074 19.0774 10.2691 19.0774ZM10.2775 17.4279C11.3027 17.4279 11.9299 16.1723 11.9299 13.9427C11.9299 11.7131 11.2834 10.4576 10.2775 10.4576C9.26194 10.4576 8.62725 11.7131 8.62725 13.9427C8.62725 16.1723 9.26194 17.4279 10.2775 17.4279ZM16.6861 18.96C16.1646 18.96 15.7708 18.596 15.7708 18.0757C15.7708 17.8202 15.8123 17.6627 15.9283 17.452L19.4093 10.6697V10.578H15.5332C15.0532 10.578 14.7161 10.2853 14.7161 9.81937C14.7161 9.34383 15.0447 9.03938 15.5332 9.03938H20.1222C20.8818 9.03938 21.3164 9.55664 21.3164 10.1848C21.3164 10.4573 21.2749 10.7011 21.0862 11.0794L17.565 18.2759C17.335 18.7526 17.088 18.96 16.6861 18.96Z" fill="white"/>
</svg>
