<svg width="28" height="28" viewBox="0 0 28 28" fill="none" xmlns="http://www.w3.org/2000/svg">
<path d="M6.84421 24.8972H21.0295C23.5685 24.8972 24.8737 23.5919 24.8737 21.0914V6.82921C24.8737 4.32656 23.5685 3.02344 21.0295 3.02344H6.84421C4.31484 3.02344 3 4.31695 3 6.82921V21.0914C3 23.6016 4.31484 24.8972 6.84421 24.8972ZM6.97733 22.6013C5.88772 22.6013 5.29592 22.0371 5.29592 20.8985V7.01999C5.29592 5.88139 5.88772 5.31936 6.97733 5.31936H20.8964C21.9764 5.31936 22.5778 5.88139 22.5778 7.01999V20.8985C22.5778 22.0371 21.9764 22.6013 20.8964 22.6013H6.97733Z" fill="black"/>
<path d="M8.17305 18.6312H12.742C13.1643 18.6312 13.473 18.3267 13.473 17.8542C13.473 17.3784 13.1643 17.1049 12.742 17.1049H9.69039V17.0208L11.751 14.621C12.6161 13.6153 13.2248 12.7884 13.2227 11.6503C13.2164 10.0509 12.059 9.00372 10.255 9.00372C8.88157 9.00372 7.6668 9.86481 7.36961 11.0454C7.33024 11.2083 7.30469 11.3435 7.30469 11.4968C7.30469 11.9461 7.5761 12.2505 8.01789 12.2505C8.39781 12.2505 8.59469 12.0323 8.74281 11.6723C9.00203 10.8862 9.54274 10.4906 10.2862 10.4906C11.1341 10.4906 11.6887 11.0196 11.6887 11.7918C11.6887 12.5029 11.1257 13.1044 10.5716 13.7501L7.72047 17.1002C7.49828 17.3543 7.4111 17.5852 7.4111 17.8596C7.4111 18.3321 7.71531 18.6312 8.17305 18.6312ZM15.7392 18.6312H20.3081C20.7304 18.6312 21.0391 18.3267 21.0391 17.8542C21.0391 17.3784 20.7304 17.1049 20.3081 17.1049H17.2565V17.0208L19.3172 14.621C20.1822 13.6153 20.7909 12.7884 20.7888 11.6503C20.7825 10.0509 19.6251 9.00372 17.8211 9.00372C16.4477 9.00372 15.2329 9.86481 14.9261 11.0454C14.8964 11.2083 14.8708 11.3435 14.8708 11.4968C14.8708 11.9461 15.1422 12.2505 15.5744 12.2505C15.9543 12.2505 16.1512 12.0323 16.3089 11.6723C16.5682 10.8862 17.0993 10.4906 17.8523 10.4906C18.7003 10.4906 19.2548 11.0196 19.2548 11.7918C19.2548 12.5029 18.6918 13.1044 18.1378 13.7501L15.2866 17.1002C15.0644 17.3543 14.9697 17.5852 14.9697 17.8596C14.9697 18.3321 15.2814 18.6312 15.7392 18.6312Z" fill="black"/>
</svg>
