<svg width="28" height="28" viewBox="0 0 28 28" fill="none" xmlns="http://www.w3.org/2000/svg">
<path d="M6.84421 24.8972H21.0295C23.5685 24.8972 24.8737 23.5919 24.8737 21.0914V6.82921C24.8737 4.32656 23.5685 3.02344 21.0295 3.02344H6.84421C4.31484 3.02344 3 4.31695 3 6.82921V21.0914C3 23.6016 4.31484 24.8972 6.84421 24.8972ZM6.97733 22.6013C5.88772 22.6013 5.29592 22.0371 5.29592 20.8985V7.01999C5.29592 5.88139 5.88772 5.31936 6.97733 5.31936H20.8964C21.9764 5.31936 22.5778 5.88139 22.5778 7.01999V20.8985C22.5778 22.0371 21.9764 22.6013 20.8964 22.6013H6.97733Z" fill="black"/>
<path d="M13.9454 15.8939C14.5797 15.8939 14.9404 15.5395 14.9605 14.8627L15.1426 9.16236C15.1649 8.48244 14.6455 7.99072 13.9337 7.99072C13.2123 7.99072 12.7122 8.47283 12.7345 9.15275L12.8973 14.8669C12.9175 15.5299 13.2899 15.8939 13.9454 15.8939ZM13.9454 19.7763C14.6872 19.7763 15.3069 19.2309 15.3069 18.4922C15.3069 17.7555 14.6968 17.2059 13.9454 17.2059C13.1844 17.2059 12.5723 17.763 12.5723 18.4922C12.5723 19.2213 13.194 19.7763 13.9454 19.7763Z" fill="black"/>
</svg>
