<svg width="28" height="28" viewBox="0 0 28 28" fill="none" xmlns="http://www.w3.org/2000/svg">
<path d="M14.105 26.21C20.7369 26.21 26.2121 20.7273 26.2121 14.105C26.2121 7.47312 20.7273 2 14.0954 2C7.47523 2 2 7.47312 2 14.105C2 20.7273 7.48484 26.21 14.105 26.21Z" fill="black"/>
<path d="M14.1054 19.796C10.9884 19.796 8.78906 17.4581 8.78906 14.009C8.78906 10.5503 10.9884 8.22412 14.1054 8.22412C17.2223 8.22412 19.4217 10.5503 19.4217 14.009C19.4217 15.9972 18.6949 17.6083 17.4844 18.6023L18.097 19.421C18.3281 19.7446 18.3973 19.919 18.3973 20.167C18.3973 20.6606 18.0506 21.0084 17.5369 21.0084C17.1647 21.0084 16.9062 20.8659 16.6402 20.4681L15.9124 19.4866C15.3602 19.6839 14.7579 19.796 14.1054 19.796ZM14.1054 17.9402C14.4063 17.9402 14.6827 17.9017 14.9377 17.8207L14.4445 17.1386C14.2835 16.9349 14.2228 16.7634 14.2228 16.5524C14.2228 16.1404 14.5657 15.8294 14.9831 15.8294C15.2475 15.8294 15.4202 15.9126 15.5866 16.1249L16.1747 16.8989C16.7606 16.2482 17.0958 15.2444 17.0958 14.009C17.0958 11.5911 15.8951 10.0778 14.1054 10.0778C12.3157 10.0778 11.1246 11.5911 11.1246 14.009C11.1246 16.4268 12.3157 17.9402 14.1054 17.9402Z" fill="white"/>
</svg>
