<svg width="28" height="28" viewBox="0 0 28 28" fill="none" xmlns="http://www.w3.org/2000/svg">
<path d="M14.105 26.21C20.7369 26.21 26.2121 20.7273 26.2121 14.105C26.2121 7.47312 20.7273 2 14.0954 2C7.47523 2 2 7.47312 2 14.105C2 20.7273 7.48484 26.21 14.105 26.21ZM14.105 23.8255C8.71085 23.8255 4.39412 19.4991 4.39412 14.105C4.39412 8.71085 8.70124 4.38452 14.0954 4.38452C19.4895 4.38452 23.8276 8.71085 23.8276 14.105C23.8276 19.4991 19.4991 23.8255 14.105 23.8255Z" fill="black"/>
<path d="M11.7122 19.0227C12.2179 19.0227 12.4936 18.6798 12.4936 18.1995V16.9517H13.0357C13.4679 16.9517 13.7383 16.6941 13.7383 16.2502C13.7383 15.7967 13.4679 15.5211 13.0357 15.5211H12.4936V10.3996C12.4936 9.63972 11.9984 9.16394 11.2322 9.16394C10.4913 9.16394 10.0453 9.45128 9.64806 10.1443C8.7661 11.6584 7.69852 13.5495 6.99656 14.8536C6.81539 15.2338 6.73242 15.5337 6.73242 15.8902C6.73242 16.5556 7.15312 16.9559 7.80984 16.9559H10.9617V18.1995C10.9617 18.6702 11.2277 19.0227 11.7122 19.0227ZM10.9617 15.5274H8.38148V15.4805C8.99695 14.2618 10.0753 12.3048 10.8977 10.8451H10.9617V15.5274ZM17.8361 19.0419C19.8839 19.0419 21.217 17.7826 21.217 15.7433C21.217 13.9639 20.0193 12.7231 18.3222 12.7231C17.5666 12.7231 16.7693 13.0909 16.424 13.6119H16.3793L16.585 10.8259H20.2045C20.5875 10.8259 20.8589 10.5416 20.8589 10.1085C20.8589 9.68495 20.6013 9.39526 20.2045 9.39526H16.3209C15.6808 9.39526 15.2728 9.78714 15.2355 10.4483L14.9796 13.9527C14.9348 14.5831 15.284 14.9921 15.8463 14.9921C16.2412 14.9921 16.4627 14.8878 16.8082 14.6105C17.2624 14.2308 17.5961 14.0677 18.0738 14.0677C19.0017 14.0677 19.6415 14.8184 19.6415 15.7953C19.6415 16.9098 18.944 17.5953 17.917 17.5953C17.1834 17.5953 16.5881 17.1988 16.2609 16.5821C16.0809 16.2739 15.8667 16.0845 15.5475 16.0845C15.1375 16.0845 14.8343 16.4028 14.8343 16.8233C14.8343 17.0129 14.8769 17.1929 14.9461 17.3696C15.285 18.2727 16.3987 19.0419 17.8361 19.0419Z" fill="black"/>
</svg>
