<svg width="28" height="28" viewBox="0 0 28 28" fill="none" xmlns="http://www.w3.org/2000/svg">
<path d="M14.105 26.21C20.7369 26.21 26.2121 20.7273 26.2121 14.105C26.2121 7.47312 20.7273 2 14.0954 2C7.47523 2 2 7.47312 2 14.105C2 20.7273 7.48484 26.21 14.105 26.21Z" fill="black"/>
<path d="M10.8263 19.1105C10.3093 19.1105 9.99735 18.7742 9.99735 18.2105V11.1577H9.93125L8.79617 12.0226C8.51281 12.2684 8.37031 12.3097 8.14063 12.3097C7.74149 12.3097 7.38477 11.9637 7.38477 11.5325C7.38477 11.1844 7.55516 10.9407 7.85305 10.7143L9.54618 9.50466C10.006 9.15474 10.2859 9.03544 10.6979 9.03544C11.3084 9.03544 11.6916 9.44302 11.6916 10.0482V18.2105C11.6916 18.7742 11.3701 19.1105 10.8263 19.1105ZM18.6334 19.2184C18.1287 19.2184 17.8393 18.852 17.8393 18.3516V17.0729H14.5735C13.8966 17.0729 13.4558 16.6545 13.4558 15.9594C13.4558 15.5848 13.5312 15.2689 13.7262 14.8707C14.4495 13.5177 15.5544 11.569 16.4619 9.99637C16.8772 9.27145 17.3488 8.96606 18.1236 8.96606C18.9355 8.96606 19.437 9.47372 19.437 10.2654V15.5701H20.0026C20.4507 15.5701 20.7467 15.8637 20.7467 16.3353C20.7467 16.7952 20.4603 17.0666 20.0026 17.0666H19.437V18.3516C19.437 18.8637 19.1572 19.2184 18.6334 19.2184ZM17.8393 15.5764V10.7269H17.7849C16.9177 12.2452 15.8138 14.2618 15.177 15.5295V15.5764H17.8393Z" fill="white"/>
</svg>
