<svg width="28" height="28" viewBox="0 0 28 28" fill="none" xmlns="http://www.w3.org/2000/svg">
<path d="M14.105 26.21C20.7369 26.21 26.2121 20.7273 26.2121 14.105C26.2121 7.47312 20.7273 2 14.0954 2C7.47523 2 2 7.47312 2 14.105C2 20.7273 7.48484 26.21 14.105 26.21ZM14.105 23.8255C8.71085 23.8255 4.39412 19.4991 4.39412 14.105C4.39412 8.71085 8.70124 4.38452 14.0954 4.38452C19.4895 4.38452 23.8276 8.71085 23.8276 14.105C23.8276 19.4991 19.4991 23.8255 14.105 23.8255Z" fill="black"/>
<path d="M11.1009 19.3147H14.0596C17.3582 19.3147 19.2184 17.4247 19.2184 13.9918C19.2184 10.5952 17.3774 8.71484 14.0596 8.71484H11.1009C10.3513 8.71484 9.95898 9.19577 9.95898 9.97623V18.0533C9.95898 18.8337 10.3471 19.3147 11.1009 19.3147ZM12.099 17.6148V10.4148H13.7664C15.8596 10.4148 16.9764 11.6497 16.9764 14.0206C16.9764 16.4321 15.8692 17.6148 13.7664 17.6148H12.099Z" fill="black"/>
</svg>
