<svg width="28" height="28" viewBox="0 0 28 28" fill="none" xmlns="http://www.w3.org/2000/svg">
<path d="M14.105 26.21C20.7369 26.21 26.2121 20.7273 26.2121 14.105C26.2121 7.47312 20.7273 2 14.0954 2C7.47523 2 2 7.47312 2 14.105C2 20.7273 7.48484 26.21 14.105 26.21ZM14.105 23.8255C8.71085 23.8255 4.39412 19.4991 4.39412 14.105C4.39412 8.71085 8.70124 4.38452 14.0954 4.38452C19.4895 4.38452 23.8276 8.71085 23.8276 14.105C23.8276 19.4991 19.4991 23.8255 14.105 23.8255Z" fill="black"/>
<path d="M10.2616 19.0419C12.2266 19.0419 13.5499 17.2243 13.5499 14.1029C13.5499 10.9794 12.2266 9.16391 10.2616 9.16391C8.29453 9.16391 6.99023 10.9794 6.99023 14.1029C6.99023 17.2243 8.29453 19.0419 10.2616 19.0419ZM10.2701 17.472C9.28757 17.472 8.6646 16.2516 8.6646 14.1029C8.6646 11.9541 9.28757 10.7337 10.2701 10.7337C11.2526 10.7337 11.8734 11.9541 11.8734 14.1029C11.8734 16.2516 11.2622 17.472 10.2701 17.472ZM17.9311 19.0419C19.9043 19.0419 21.2609 17.8803 21.2609 16.2097C21.2609 14.9991 20.438 14.0124 19.3029 13.9037V13.827C20.2397 13.6693 20.9698 12.7283 20.9698 11.6731C20.9698 10.1858 19.7487 9.16391 18.0005 9.16391C16.4522 9.16391 15.3246 10.0557 15.0241 11.1155C14.9763 11.289 14.9679 11.4188 14.9679 11.5796C14.9679 12.0394 15.2585 12.343 15.6802 12.343C16.0486 12.343 16.2551 12.1512 16.3891 11.7889C16.6448 11.0445 17.1525 10.6381 17.9653 10.6381C18.7856 10.6381 19.3723 11.1437 19.3723 11.888C19.3723 12.6444 18.8046 13.2106 17.9578 13.2106H17.4284C16.9985 13.2106 16.7154 13.5118 16.7154 13.9695C16.7154 14.393 16.9763 14.7134 17.4284 14.7134H18.0059C18.9989 14.7134 19.6294 15.2766 19.6294 16.1246C19.6294 16.9311 18.9413 17.5508 17.9491 17.5508C17.1267 17.5508 16.5424 17.1423 16.2366 16.3979C16.0812 16.0334 15.863 15.8459 15.518 15.8459C15.109 15.8459 14.7877 16.1495 14.7877 16.5997C14.7877 16.7701 14.8153 16.8999 14.8547 17.0586C15.1606 18.0987 16.3901 19.0419 17.9311 19.0419Z" fill="black"/>
</svg>
