<svg width="28" height="28" viewBox="0 0 28 28" fill="none" xmlns="http://www.w3.org/2000/svg">
<path d="M6.84421 24.8972H21.0295C23.5685 24.8972 24.8737 23.5919 24.8737 21.0914V6.82921C24.8737 4.32656 23.5685 3.02344 21.0295 3.02344H6.84421C4.31484 3.02344 3 4.31695 3 6.82921V21.0914C3 23.6016 4.31484 24.8972 6.84421 24.8972ZM6.97733 22.6013C5.88772 22.6013 5.29592 22.0371 5.29592 20.8985V7.01999C5.29592 5.88139 5.88772 5.31936 6.97733 5.31936H20.8964C21.9764 5.31936 22.5778 5.88139 22.5778 7.01999V20.8985C22.5778 22.0371 21.9764 22.6013 20.8964 22.6013H6.97733Z" fill="black"/>
<path d="M10.0763 18.8817C12.0413 18.8817 13.3645 17.0641 13.3645 13.9427C13.3645 10.8192 12.0413 9.00375 10.0763 9.00375C8.09953 9.00375 6.80273 10.8192 6.80273 13.9427C6.80273 17.0641 8.09953 18.8817 10.0763 18.8817ZM10.0847 17.3119C9.09257 17.3119 8.47921 16.0915 8.47921 13.9427C8.47921 11.794 9.09257 10.5736 10.0847 10.5736C11.0651 10.5736 11.6784 11.794 11.6784 13.9427C11.6784 16.0915 11.0768 17.3119 10.0847 17.3119ZM18.0384 18.8913C19.9148 18.8913 21.2341 17.6395 21.2341 15.5372C21.2341 13.5933 19.9146 12.5095 18.4544 12.5095C17.2839 12.5095 16.544 13.1641 16.2649 13.8933H16.1871C16.185 13.8391 16.1828 13.7925 16.1828 13.7098C16.1828 11.727 17.0039 10.4653 18.1919 10.4653C18.8147 10.4653 19.2349 10.7681 19.5206 11.1809C19.7156 11.4527 19.9019 11.5955 20.2427 11.5955C20.5844 11.5955 20.8781 11.325 20.8781 10.9109C20.8781 10.7332 20.8408 10.5841 20.7675 10.4128C20.4649 9.66352 19.5527 9.00375 18.2505 9.00375C16.0659 9.00375 14.6566 10.7257 14.6566 14.1659C14.6566 15.5196 14.8804 16.5478 15.2641 17.2861C15.8449 18.4195 16.8506 18.8913 18.0384 18.8913ZM17.9693 17.4884C16.9891 17.4884 16.3012 16.7152 16.3012 15.6178C16.3012 14.5706 16.9795 13.8241 17.9693 13.8241C18.9527 13.8241 19.631 14.561 19.631 15.6274C19.631 16.7632 18.974 17.4884 17.9693 17.4884Z" fill="black"/>
</svg>
