<svg width="28" height="28" viewBox="0 0 28 28" fill="none" xmlns="http://www.w3.org/2000/svg">
<path d="M6.84421 24.8972H21.0295C23.5685 24.8972 24.8737 23.5919 24.8737 21.0914V6.82921C24.8737 4.32656 23.5685 3.02344 21.0295 3.02344H6.84421C4.31484 3.02344 3 4.31695 3 6.82921V21.0914C3 23.6016 4.31484 24.8972 6.84421 24.8972Z" fill="black"/>
<path d="M9.33203 19.5855C8.72125 19.5855 8.35938 19.1747 8.35938 18.4861V9.47291C8.35938 8.70158 8.88179 8.18127 9.67116 8.18127C10.3605 8.18127 10.8083 8.50564 11.0446 9.14572L13.9403 16.5656H14.0052L16.8817 9.14572C17.1255 8.50775 17.5712 8.18127 18.2647 8.18127C19.0445 8.18127 19.5765 8.70158 19.5765 9.47291V18.4861C19.5765 19.1864 19.2083 19.5855 18.5751 19.5855C17.9739 19.5855 17.6078 19.1747 17.6078 18.4861V11.9186H17.4981L14.9495 18.4111C14.7632 18.8953 14.4416 19.1114 13.9499 19.1114C13.4624 19.1114 13.1483 18.8869 12.9566 18.409L10.4378 11.9186H10.326V18.4861C10.326 19.1864 9.94819 19.5855 9.33203 19.5855Z" fill="white"/>
</svg>
