<svg width="28" height="28" viewBox="0 0 28 28" fill="none" xmlns="http://www.w3.org/2000/svg">
<path d="M14.105 26.21C20.7369 26.21 26.2121 20.7273 26.2121 14.105C26.2121 7.47312 20.7273 2 14.0954 2C7.47523 2 2 7.47312 2 14.105C2 20.7273 7.48484 26.21 14.105 26.21ZM14.105 23.8255C8.71085 23.8255 4.39412 19.4991 4.39412 14.105C4.39412 8.71085 8.70124 4.38452 14.0954 4.38452C19.4895 4.38452 23.8276 8.71085 23.8276 14.105C23.8276 19.4991 19.4991 23.8255 14.105 23.8255Z" fill="black"/>
<path d="M9.02 19.3597C9.50117 19.3597 9.84078 19.0222 9.84078 18.5272V14.9225H10.6569C10.7305 14.9225 10.7966 14.9225 10.8798 14.9225L12.3434 18.8127C12.4766 19.1937 12.7894 19.3512 13.1119 19.3512C13.6412 19.3512 14.1629 18.9371 13.8945 18.2291L12.4597 14.5873C13.3946 14.2069 13.8933 13.0069 13.8933 11.7912C13.8933 9.94366 12.9401 8.8571 11.0145 8.8571H9.21945C8.53976 8.8571 8.1875 9.31179 8.1875 10.0374V18.5272C8.1875 19.0222 8.525 19.3597 9.02 19.3597ZM9.84078 13.6576V10.1837H10.8134C11.7784 10.1837 12.2124 10.8094 12.2124 11.8667C12.2124 12.9062 11.7976 13.6576 10.8231 13.6576H9.84078ZM17.6813 18.7948C19.3435 18.7948 20.5311 17.8433 20.5311 16.242C20.5311 15.118 19.928 14.3241 18.5811 13.6313L17.4769 13.0658C16.917 12.781 16.3592 12.4205 16.3592 11.7209C16.3592 11.0534 16.854 10.6269 17.6077 10.6269C18.4182 10.6269 18.8319 11.1451 18.9116 11.8723C18.9657 12.2537 19.2608 12.4784 19.5941 12.4784C20.0241 12.4784 20.4184 12.1632 20.333 11.506C20.1837 10.3046 19.2301 9.31718 17.6119 9.31718C16.0065 9.31718 14.8229 10.2931 14.8229 11.8006C14.8229 13.0695 15.5431 13.8582 16.7377 14.4423L17.7847 14.9525C18.4105 15.2574 19.0044 15.7182 19.0044 16.3686C19.0044 17.0373 18.5204 17.4852 17.6876 17.4852C16.7398 17.4852 16.3262 16.997 16.2357 16.2301C16.1719 15.8316 15.894 15.624 15.5712 15.624C15.1252 15.624 14.7481 15.9786 14.8334 16.5964C15.0062 17.8808 16.0395 18.7948 17.6813 18.7948ZM17.6738 20.0762C17.9337 20.0762 18.1543 19.8577 18.1543 19.5978V8.54515C18.1543 8.27351 17.9337 8.05507 17.6738 8.05507C17.4064 8.05507 17.1859 8.27351 17.1859 8.54515V19.5978C17.1859 19.8577 17.4064 20.0762 17.6738 20.0762Z" fill="black"/>
</svg>
