<svg width="28" height="28" viewBox="0 0 28 28" fill="none" xmlns="http://www.w3.org/2000/svg">
<path d="M14.105 26.21C20.7369 26.21 26.2121 20.7273 26.2121 14.105C26.2121 7.47312 20.7273 2 14.0954 2C7.47523 2 2 7.47312 2 14.105C2 20.7273 7.48484 26.21 14.105 26.21ZM14.105 23.8255C8.71085 23.8255 4.39412 19.4991 4.39412 14.105C4.39412 8.71085 8.70124 4.38452 14.0954 4.38452C19.4895 4.38452 23.8276 8.71085 23.8276 14.105C23.8276 19.4991 19.4991 23.8255 14.105 23.8255Z" fill="black"/>
<path d="M10.6884 19.468C11.1309 19.468 11.3659 19.3137 11.7212 18.8129L14.031 15.4798H14.0884L16.3855 18.8129C16.7207 19.3095 16.9717 19.468 17.4088 19.468C18.0205 19.468 18.4675 19.0658 18.4675 18.4838C18.4675 18.2094 18.3824 17.9956 18.19 17.7458L15.4405 14.011L18.2092 10.2624C18.4112 10.0029 18.4867 9.77959 18.4867 9.51686C18.4867 8.97335 18.0494 8.55945 17.4665 8.55945C17.0294 8.55945 16.7591 8.7296 16.4549 9.20702L14.2272 12.538H14.158L11.8771 9.19741C11.5527 8.72327 11.2984 8.55945 10.8367 8.55945C10.2442 8.55945 9.78554 9.00218 9.78554 9.5553C9.78554 9.84686 9.86312 10.051 10.0844 10.351L12.7239 13.963L9.93601 17.7842C9.75531 18.0458 9.67773 18.2499 9.67773 18.5223C9.67773 19.0658 10.1055 19.468 10.6884 19.468Z" fill="black"/>
</svg>
