<svg width="28" height="28" viewBox="0 0 28 28" fill="none" xmlns="http://www.w3.org/2000/svg">
<path d="M14.1366 24.2379C18.0406 24.2379 20.9213 22.315 21.98 19.4207C22.1215 19.0418 22.1907 18.6565 22.2003 18.2679C22.2099 17.4897 21.6816 16.9603 20.8716 16.9603C20.1526 16.9603 19.7783 17.3297 19.5116 18.0551C18.8195 20.291 16.7881 21.7273 14.1694 21.7273C10.3915 21.7273 7.99669 18.5688 7.99669 13.4962C7.99669 8.50777 10.3632 5.40675 14.1092 5.40675C16.6346 5.40675 18.6798 6.91566 19.374 9.12933C19.6566 9.91238 20.034 10.222 20.7594 10.222C21.5483 10.222 22.0597 9.70308 22.0501 8.9259C22.0405 8.51106 21.9565 8.11333 21.793 7.72192C20.6422 4.78872 17.6987 2.89825 14.1071 2.89825C8.55922 2.89825 5 6.97778 5 13.511C5 20.122 8.54 24.2379 14.1366 24.2379ZM12.3549 26.1309C12.0767 27.2254 13.5741 27.4547 13.8193 26.4752L20.105 1.4109C20.3598 0.393009 18.8879 0.0594929 18.6331 1.06028L12.3549 26.1309ZM8.0192 26.0646C7.74311 27.1591 9.23842 27.3883 9.48358 26.4089L15.7693 1.34458C16.0241 0.32668 14.5426 -0.0068363 14.2974 0.993947L8.0192 26.0646Z" fill="black"/>
</svg>
