<svg width="28" height="28" viewBox="0 0 28 28" fill="none" xmlns="http://www.w3.org/2000/svg">
<path d="M6.84421 24.8972H21.0295C23.5685 24.8972 24.8737 23.5919 24.8737 21.0914V6.82921C24.8737 4.32656 23.5685 3.02344 21.0295 3.02344H6.84421C4.31484 3.02344 3 4.31695 3 6.82921V21.0914C3 23.6016 4.31484 24.8972 6.84421 24.8972ZM6.97733 22.6013C5.88772 22.6013 5.29592 22.0371 5.29592 20.8985V7.01999C5.29592 5.88139 5.88772 5.31936 6.97733 5.31936H20.8964C21.9764 5.31936 22.5778 5.88139 22.5778 7.01999V20.8985C22.5778 22.0371 21.9764 22.6013 20.8964 22.6013H6.97733Z" fill="black"/>
<path d="M10.1032 19.4217H17.2242C17.6976 19.4217 18.0135 19.1046 18.0135 18.6588C18.0135 18.2206 17.688 17.9131 17.2242 17.9131H15.4017C12.987 17.9131 11.0948 16.1175 11.0948 13.7379C11.0948 12.2569 11.5875 11.2078 12.4566 10.6556V13.4107C12.4566 13.7262 12.6846 13.9521 12.998 13.9521C13.3251 13.9521 13.551 13.7262 13.551 13.4107V10.2614C13.7313 10.2401 13.9232 10.2208 14.096 10.2208C14.2612 10.2208 14.4147 10.2422 14.549 10.2635V13.4107C14.549 13.7262 14.7846 13.9521 15.1 13.9521C15.4176 13.9521 15.6436 13.7262 15.6436 13.4107V10.6887C16.4029 11.2165 16.885 12.1113 16.9148 13.2539C16.9413 13.7447 17.2575 14.078 17.7543 14.078C18.2425 14.078 18.565 13.7299 18.565 13.2361C18.5554 11.3444 17.4705 9.55312 15.6436 8.91796V7.89046C15.6436 7.56327 15.4176 7.33733 15.1 7.33733C14.7846 7.33733 14.549 7.56327 14.549 7.89046V8.66413C14.4051 8.6428 14.2495 8.6428 14.1056 8.6428C13.9253 8.6428 13.7313 8.65241 13.551 8.67163V7.89046C13.551 7.56327 13.3155 7.33733 12.998 7.33733C12.6825 7.33733 12.4566 7.56327 12.4566 7.89046V8.88702C10.5607 9.52335 9.39023 11.246 9.39023 13.519C9.39023 15.4195 10.2666 17.0548 11.5941 17.932H10.1149C9.66492 17.932 9.3457 18.2374 9.3457 18.6673C9.3457 19.1163 9.64359 19.4217 10.1032 19.4217Z" fill="black"/>
</svg>
