<svg width="28" height="28" viewBox="0 0 28 28" fill="none" xmlns="http://www.w3.org/2000/svg">
<path d="M14.105 26.21C20.7369 26.21 26.2121 20.7273 26.2121 14.105C26.2121 7.47312 20.7273 2 14.0954 2C7.47523 2 2 7.47312 2 14.105C2 20.7273 7.48484 26.21 14.105 26.21ZM14.105 23.8255C8.71085 23.8255 4.39412 19.4991 4.39412 14.105C4.39412 8.71085 8.70124 4.38452 14.0954 4.38452C19.4895 4.38452 23.8276 8.71085 23.8276 14.105C23.8276 19.4991 19.4991 23.8255 14.105 23.8255Z" fill="black"/>
<path d="M12.1466 19.8812C12.6784 19.8812 13.038 19.5141 13.038 18.9908V17.9586H15.3951C15.7286 17.9586 15.9566 17.7134 15.9566 17.3959C15.9566 17.0804 15.7286 16.8448 15.3951 16.8448H13.038V15.0233H16.6863C17.1597 15.0233 17.5099 14.7083 17.5099 14.2316C17.5099 13.7548 17.1597 13.4473 16.6863 13.4473H13.038V10.4579H17.084C17.5659 10.4579 17.9127 10.1365 17.9127 9.65348C17.9127 9.16294 17.5659 8.84161 17.084 8.84161H12.137C11.5776 8.84161 11.2382 9.19481 11.2382 9.77231V16.8448H10.3176C9.98406 16.8448 9.76562 17.0804 9.76562 17.3959C9.76562 17.7134 9.98406 17.9586 10.3176 17.9586H11.2382V19.0025C11.2382 19.5355 11.6169 19.8812 12.1466 19.8812Z" fill="black"/>
</svg>
