<svg width="28" height="28" viewBox="0 0 28 28" fill="none" xmlns="http://www.w3.org/2000/svg">
<path d="M14.105 26.21C20.7369 26.21 26.2121 20.7273 26.2121 14.105C26.2121 7.47312 20.7273 2 14.0954 2C7.47523 2 2 7.47312 2 14.105C2 20.7273 7.48484 26.21 14.105 26.21Z" fill="black"/>
<path d="M10.2511 19.7483C9.5843 19.7483 9.17578 19.3515 9.17578 18.7433C9.17578 18.5389 9.20766 18.3209 9.32578 17.9966L12.4277 9.52065C12.7265 8.68956 13.2689 8.27917 14.0897 8.27917C14.9285 8.27917 15.4889 8.69167 15.776 9.52065L18.8854 17.9966C18.994 18.3209 19.0354 18.5389 19.0354 18.7433C19.0354 19.3515 18.6194 19.7483 17.9622 19.7483C17.4178 19.7483 17.0562 19.4741 16.8581 18.8019L16.1163 16.6067H12.097L11.3531 18.8019C11.1572 19.4837 10.7859 19.7483 10.2511 19.7483ZM12.588 14.9415H15.6157L14.1663 10.5348H14.0374L12.588 14.9415Z" fill="white"/>
</svg>
