<svg width="28" height="28" viewBox="0 0 28 28" fill="none" xmlns="http://www.w3.org/2000/svg">
<path d="M14.105 26.21C20.7369 26.21 26.2121 20.7273 26.2121 14.105C26.2121 7.47312 20.7273 2 14.0954 2C7.47523 2 2 7.47312 2 14.105C2 20.7273 7.48484 26.21 14.105 26.21Z" fill="black"/>
<path d="M11.7281 19.2161C11.2256 19.2161 10.9361 18.8498 10.9361 18.3516V17.0728H7.67032C6.99133 17.0728 6.55469 16.6544 6.55469 15.9593C6.55469 15.5847 6.63977 15.2688 6.83266 14.8706C7.54845 13.5218 8.64158 11.5711 9.57041 9.99634C9.97189 9.27142 10.4531 8.96814 11.23 8.96814C12.0301 8.96814 12.5317 9.47369 12.5317 10.2654V15.57H13.0972C13.5571 15.57 13.8414 15.8615 13.8414 16.3352C13.8414 16.7951 13.5571 17.0665 13.0972 17.0665H12.5317V18.3516C12.5317 18.8595 12.2519 19.2161 11.7281 19.2161ZM10.9361 15.5763V10.7269H10.8817C10.0145 12.2493 8.91063 14.2617 8.27383 15.5294V15.5763H10.9361ZM16.7664 19.1179C16.2545 19.1179 15.8608 18.7562 15.8608 18.2359C15.8608 17.9804 15.9023 17.8228 16.0087 17.6121L19.5013 10.8298V10.7381H15.6135C15.1431 10.7381 14.8007 10.4454 14.8007 9.97947C14.8007 9.50603 15.1368 9.19947 15.6135 9.19947H20.2143C20.9718 9.19947 21.4063 9.71674 21.4063 10.3449C21.4063 10.6174 21.3552 10.8633 21.1762 11.2395L17.6549 18.436C17.4154 18.9127 17.1704 19.1179 16.7664 19.1179Z" fill="white"/>
</svg>
