<svg width="28" height="28" viewBox="0 0 28 28" fill="none" xmlns="http://www.w3.org/2000/svg">
<path d="M14.105 26.21C20.7369 26.21 26.2121 20.7273 26.2121 14.105C26.2121 7.47312 20.7273 2 14.0954 2C7.47523 2 2 7.47312 2 14.105C2 20.7273 7.48484 26.21 14.105 26.21ZM14.105 23.8255C8.71085 23.8255 4.39412 19.4991 4.39412 14.105C4.39412 8.71085 8.70124 4.38452 14.0954 4.38452C19.4895 4.38452 23.8276 8.71085 23.8276 14.105C23.8276 19.4991 19.4991 23.8255 14.105 23.8255Z" fill="black"/>
<path d="M14.1194 19.6409C16.6263 19.6409 18.3187 18.0709 18.3187 15.8806C18.3187 13.9597 16.9014 12.5288 14.876 12.5288C14.0887 12.5288 13.3043 12.8272 12.9302 13.2024L12.8046 13.1736C12.9386 12.9575 13.091 12.7487 13.4205 12.3263C13.9443 11.6457 14.6418 10.7776 15.1612 10.111C15.3454 9.86397 15.4413 9.65327 15.4413 9.41163C15.4371 8.99468 15.1533 8.57445 14.5094 8.57445C14.0322 8.57445 13.762 8.87327 13.5218 9.16882C12.8444 10.0585 12.1338 10.9608 11.5952 11.6872C10.4376 13.1987 9.89453 14.4962 9.89453 15.7766C9.89453 18.0898 11.5785 19.6409 14.1194 19.6409ZM14.1194 17.9408C12.8526 17.9408 11.8907 17.0961 11.8907 15.9741C11.8907 14.8714 12.843 14.0598 14.1098 14.0598C15.4097 14.0598 16.3427 14.8714 16.3427 15.9934C16.3427 17.0961 15.4097 17.9408 14.1194 17.9408Z" fill="black"/>
</svg>
