<svg width="28" height="28" viewBox="0 0 28 28" fill="none" xmlns="http://www.w3.org/2000/svg">
<path d="M14.105 26.21C20.7369 26.21 26.2121 20.7273 26.2121 14.105C26.2121 7.47312 20.7273 2 14.0954 2C7.47523 2 2 7.47312 2 14.105C2 20.7273 7.48484 26.21 14.105 26.21ZM14.105 23.8255C8.71085 23.8255 4.39412 19.4991 4.39412 14.105C4.39412 8.71085 8.70124 4.38452 14.0954 4.38452C19.4895 4.38452 23.8276 8.71085 23.8276 14.105C23.8276 19.4991 19.4991 23.8255 14.105 23.8255Z" fill="black"/>
<path d="M14.0954 19.5758C16.8587 19.5758 18.7259 17.998 18.7259 15.5708V9.79131C18.7259 9.01694 18.327 8.55945 17.608 8.55945C16.922 8.55945 16.5113 9.01905 16.5113 9.79131V15.3634C16.5113 16.8247 15.5567 17.7568 14.0954 17.7568C12.6362 17.7568 11.6698 16.8247 11.6698 15.3634V9.79131C11.6698 9.01905 11.2688 8.55945 10.554 8.55945C9.86585 8.55945 9.46484 9.01694 9.46484 9.79131V15.5708C9.46484 17.998 11.3321 19.5758 14.0954 19.5758Z" fill="black"/>
</svg>
