<svg width="28" height="28" viewBox="0 0 28 28" fill="none" xmlns="http://www.w3.org/2000/svg">
<path d="M6.84421 24.8972H21.0295C23.5685 24.8972 24.8737 23.5919 24.8737 21.0914V6.82921C24.8737 4.32656 23.5685 3.02344 21.0295 3.02344H6.84421C4.31484 3.02344 3 4.31695 3 6.82921V21.0914C3 23.6016 4.31484 24.8972 6.84421 24.8972ZM6.97733 22.6013C5.88772 22.6013 5.29592 22.0371 5.29592 20.8985V7.01999C5.29592 5.88139 5.88772 5.31936 6.97733 5.31936H20.8964C21.9764 5.31936 22.5778 5.88139 22.5778 7.01999V20.8985C22.5778 22.0371 21.9764 22.6013 20.8964 22.6013H6.97733Z" fill="black"/>
<path d="M11.7123 18.8625C12.2181 18.8625 12.4937 18.5196 12.4937 18.0394V16.7916H13.0359C13.4681 16.7916 13.7385 16.534 13.7385 16.0901C13.7385 15.6366 13.4681 15.3609 13.0359 15.3609H12.4937V10.2394C12.4937 9.47956 11.9985 9.00378 11.2323 9.00378C10.4915 9.00378 10.0455 9.29112 9.64821 9.98417C8.76626 11.4982 7.69867 13.3894 6.99672 14.6934C6.81554 15.0736 6.73047 15.3736 6.73047 15.7301C6.73047 16.3955 7.15328 16.7958 7.80999 16.7958H10.9619V18.0394C10.9619 18.51 11.2279 18.8625 11.7123 18.8625ZM10.9619 15.3673H8.38163V15.3204C8.9971 14.1016 10.0755 12.1446 10.8979 10.685H10.9619V15.3673ZM17.8556 18.8817C19.8288 18.8817 21.1757 17.7202 21.1757 16.0495C21.1757 14.839 20.3529 13.8523 19.2274 13.7435V13.6669C20.1546 13.5091 20.8846 12.5682 20.8846 11.513C20.8846 10.0257 19.6732 9.00378 17.925 9.00378C16.3671 9.00378 15.2395 9.89558 14.939 10.9554C14.9008 11.1289 14.8828 11.2587 14.8828 11.4195C14.8828 11.8793 15.1734 12.1828 15.595 12.1828C15.9635 12.1828 16.17 11.9911 16.3019 11.6288C16.5597 10.8844 17.0749 10.478 17.8898 10.478C18.7101 10.478 19.2872 10.9835 19.2872 11.7279C19.2872 12.4843 18.7174 13.0505 17.8823 13.0505H17.3528C16.9134 13.0505 16.6303 13.3516 16.6303 13.8094C16.6303 14.2329 16.9007 14.5533 17.3528 14.5533H17.9207C18.9138 14.5533 19.5443 15.1165 19.5443 15.9645C19.5443 16.7709 18.8636 17.3906 17.8715 17.3906C17.0512 17.3906 16.4573 16.9821 16.161 16.2377C15.996 15.8733 15.7875 15.6858 15.4403 15.6858C15.0335 15.6858 14.7121 15.9893 14.7121 16.4395C14.7121 16.6099 14.7281 16.7398 14.7771 16.8984C15.0733 17.9386 16.305 18.8817 17.8556 18.8817Z" fill="black"/>
</svg>
