<svg width="28" height="28" viewBox="0 0 28 28" fill="none" xmlns="http://www.w3.org/2000/svg">
<path d="M14.105 26.21C20.7369 26.21 26.2121 20.7273 26.2121 14.105C26.2121 7.47312 20.7273 2 14.0954 2C7.47523 2 2 7.47312 2 14.105C2 20.7273 7.48484 26.21 14.105 26.21Z" fill="black"/>
<path d="M14.7822 19.6433C14.0644 19.6433 13.6242 19.1909 13.6242 18.3594V10.9829H13.5241L12.071 11.9328C11.7602 12.1531 11.6262 12.1787 11.4016 12.1787C10.9411 12.1787 10.5996 11.7807 10.5996 11.3298C10.5996 10.9597 10.7505 10.73 11.0695 10.5066L13.1817 9.08281C13.7594 8.69117 14.1476 8.55289 14.6826 8.55289C15.4802 8.55289 15.9691 9.03241 15.9691 9.83678V18.3594C15.9691 19.1909 15.5247 19.6433 14.7822 19.6433Z" fill="white"/>
</svg>
