<svg width="28" height="28" viewBox="0 0 28 28" fill="none" xmlns="http://www.w3.org/2000/svg">
<path d="M6.84421 24.8972H21.0295C23.5685 24.8972 24.8737 23.5919 24.8737 21.0914V6.82921C24.8737 4.32656 23.5685 3.02344 21.0295 3.02344H6.84421C4.31484 3.02344 3 4.31695 3 6.82921V21.0914C3 23.6016 4.31484 24.8972 6.84421 24.8972ZM6.97733 22.6013C5.88772 22.6013 5.29592 22.0371 5.29592 20.8985V7.01999C5.29592 5.88139 5.88772 5.31936 6.97733 5.31936H20.8964C21.9764 5.31936 22.5778 5.88139 22.5778 7.01999V20.8985C22.5778 22.0371 21.9764 22.6013 20.8964 22.6013H6.97733Z" fill="black"/>
<path d="M9.0293 14.0944C9.0293 14.4002 9.25524 14.6454 9.57282 14.6454H10.2026V18.7648C10.2026 19.2956 10.5443 19.632 11.0613 19.632C11.5784 19.632 11.9126 19.2956 11.9126 18.7648V14.6454H13.349L15.3909 18.8522C15.6208 19.3458 15.9815 19.6437 16.5539 19.6437C17.2103 19.6437 17.6507 19.2202 17.6507 18.5637V14.655H18.3145C18.6225 14.655 18.8676 14.4002 18.8676 14.0944C18.8676 13.7672 18.6225 13.5412 18.3145 13.5412H17.6507V9.40569C17.6507 8.87483 17.3165 8.53851 16.7995 8.53851C16.2846 8.53851 15.9407 8.87483 15.9407 9.40569V13.5412H14.5193L12.4603 9.32038C12.2421 8.82679 11.8718 8.5289 11.2973 8.5289C10.6409 8.5289 10.2026 8.95241 10.2026 9.59717V13.5316H9.57282C9.26485 13.5316 9.0293 13.7672 9.0293 14.0944ZM11.9041 13.5316V11.4333L12.8707 13.5316H11.9041ZM14.988 14.655H15.945V16.7438L14.988 14.655Z" fill="black"/>
</svg>
