<svg width="28" height="28" viewBox="0 0 28 28" fill="none" xmlns="http://www.w3.org/2000/svg">
<path d="M6.84421 24.8972H21.0295C23.5685 24.8972 24.8737 23.5919 24.8737 21.0914V6.82921C24.8737 4.32656 23.5685 3.02344 21.0295 3.02344H6.84421C4.31484 3.02344 3 4.31695 3 6.82921V21.0914C3 23.6016 4.31484 24.8972 6.84421 24.8972Z" fill="black"/>
<path d="M9.98617 19.0774C7.94359 19.0774 6.58398 17.1949 6.58398 13.9427C6.58398 10.6905 7.94359 8.80594 9.98617 8.80594C12.032 8.80594 13.401 10.6905 13.401 13.9427C13.401 17.1949 12.032 19.0774 9.98617 19.0774ZM9.9925 17.4279C11.0198 17.4279 11.6449 16.1723 11.6449 13.9427C11.6449 11.7131 11.0102 10.4576 9.9925 10.4576C8.98656 10.4576 8.34226 11.7131 8.34226 13.9427C8.34226 16.1723 8.98656 17.4279 9.9925 17.4279ZM18.0958 19.0774C16.0011 19.0774 14.6151 17.9128 14.6151 16.1665C14.6151 14.9402 15.3651 13.965 16.6185 13.6955V13.6167C15.5631 13.316 14.9666 12.487 14.9666 11.4387C14.9666 9.87891 16.2601 8.80594 18.115 8.80594C19.9506 8.80594 21.2441 9.87891 21.2441 11.4387C21.2441 12.487 20.6359 13.3352 19.5922 13.6167V13.6955C20.8457 13.965 21.5936 14.9306 21.5936 16.1569C21.5936 17.8936 20.169 19.0774 18.0958 19.0774ZM18.1246 17.6789C19.1441 17.6789 19.8897 17.0039 19.8897 16.042C19.8897 15.0823 19.1633 14.3955 18.1246 14.3955C17.0783 14.3955 16.3307 15.0919 16.3307 16.042C16.3307 17.0039 17.0783 17.6789 18.1246 17.6789ZM18.115 13.0519C18.9681 13.0519 19.559 12.4376 19.559 11.6079C19.559 10.7782 18.9639 10.2002 18.115 10.2002C17.2447 10.2002 16.6539 10.7782 16.6539 11.6079C16.6539 12.4376 17.2426 13.0519 18.115 13.0519Z" fill="white"/>
</svg>
