<svg width="28" height="28" viewBox="0 0 28 28" fill="none" xmlns="http://www.w3.org/2000/svg">
<path d="M6.84421 24.8972H21.0295C23.5685 24.8972 24.8737 23.5919 24.8737 21.0914V6.82921C24.8737 4.32656 23.5685 3.02344 21.0295 3.02344H6.84421C4.31484 3.02344 3 4.31695 3 6.82921V21.0914C3 23.6016 4.31484 24.8972 6.84421 24.8972ZM6.97733 22.6013C5.88772 22.6013 5.29592 22.0371 5.29592 20.8985V7.01999C5.29592 5.88139 5.88772 5.31936 6.97733 5.31936H20.8964C21.9764 5.31936 22.5778 5.88139 22.5778 7.01999V20.8985C22.5778 22.0371 21.9764 22.6013 20.8964 22.6013H6.97733Z" fill="black"/>
<path d="M13.8032 19.4155C16.4978 19.4155 18.2543 18.115 18.2543 16.0635C18.2543 14.4808 17.1419 13.5937 15.09 13.0935L13.5871 12.7181C12.4601 12.4504 12.0166 12.0674 12.0166 11.4117C12.0166 10.5391 12.7408 9.99181 13.8628 9.99181C14.924 9.99181 15.5981 10.3994 16.0239 11.2666C16.2639 11.6575 16.5248 11.8537 17.0008 11.8537C17.5328 11.8537 17.916 11.5525 17.916 10.9818C17.916 10.7978 17.8725 10.5796 17.7811 10.356C17.3041 9.16658 15.8704 8.30103 13.9321 8.30103C11.4623 8.30103 9.76125 9.64751 9.76125 11.5593C9.76125 13.0759 10.758 13.9618 12.6209 14.4278L14.1977 14.8492C15.569 15.1979 16.0136 15.5094 16.0136 16.2517C16.0136 17.1765 15.1188 17.6854 13.9394 17.6854C12.8187 17.6854 12.0433 17.2661 11.5741 16.4151C11.3189 16.0089 11.0496 15.8223 10.6193 15.8223C10.0542 15.8223 9.66797 16.1884 9.66797 16.7504C9.66797 16.9494 9.72117 17.1559 9.81797 17.3732C10.2673 18.4623 11.6979 19.4155 13.8032 19.4155Z" fill="black"/>
</svg>
