<svg width="28" height="28" viewBox="0 0 28 28" fill="none" xmlns="http://www.w3.org/2000/svg">
<path d="M14.105 26.21C20.7369 26.21 26.2121 20.7273 26.2121 14.105C26.2121 7.47312 20.7273 2 14.0954 2C7.47523 2 2 7.47312 2 14.105C2 20.7273 7.48484 26.21 14.105 26.21Z" fill="black"/>
<path d="M10.2401 19.2376C8.18789 19.2376 6.83789 17.3551 6.83789 14.1029C6.83789 10.8507 8.18789 8.96606 10.2401 8.96606C12.2764 8.96606 13.655 10.8507 13.655 14.1029C13.655 17.3551 12.2764 19.2376 10.2401 19.2376ZM10.2464 17.5881C11.2737 17.5881 11.8988 16.3325 11.8988 14.1029C11.8988 11.8733 11.2641 10.6177 10.2464 10.6177C9.23086 10.6177 8.59616 11.8733 8.59616 14.1029C8.59616 16.3325 9.23086 17.5881 10.2464 17.5881ZM15.8703 18.9753C15.3903 18.9753 15.0722 18.6624 15.0722 18.1698C15.0722 17.8773 15.1594 17.6326 15.4071 17.3722L18.3509 13.8985C18.9188 13.2327 19.5094 12.6057 19.5094 11.8711C19.5094 11.0754 18.9411 10.5326 18.0696 10.5326C17.2889 10.5326 16.7386 10.9325 16.4656 11.7516C16.3153 12.1276 16.1067 12.35 15.7088 12.35C15.2468 12.35 14.9616 12.0317 14.9616 11.5622C14.9616 11.4047 14.9871 11.2578 15.0286 11.0928C15.3471 9.86864 16.6055 8.96606 18.0364 8.96606C19.9116 8.96606 21.1029 10.0569 21.1071 11.7254C21.1135 12.905 20.4868 13.7637 19.5823 14.813L17.4589 17.2831V17.3811H20.6084C21.0605 17.3811 21.3809 17.6588 21.3809 18.1644C21.3809 18.657 21.0605 18.9753 20.6084 18.9753H15.8703Z" fill="white"/>
</svg>
