<svg width="28" height="28" viewBox="0 0 28 28" fill="none" xmlns="http://www.w3.org/2000/svg">
<path d="M6.84421 24.8972H21.0295C23.5685 24.8972 24.8737 23.5919 24.8737 21.0914V6.82921C24.8737 4.32656 23.5685 3.02344 21.0295 3.02344H6.84421C4.31484 3.02344 3 4.31695 3 6.82921V21.0914C3 23.6016 4.31484 24.8972 6.84421 24.8972ZM6.97733 22.6013C5.88772 22.6013 5.29592 22.0371 5.29592 20.8985V7.01999C5.29592 5.88139 5.88772 5.31936 6.97733 5.31936H20.8964C21.9764 5.31936 22.5778 5.88139 22.5778 7.01999V20.8985C22.5778 22.0371 21.9764 22.6013 20.8964 22.6013H6.97733Z" fill="black"/>
<path d="M8.30585 18.6312H12.8748C13.2971 18.6312 13.6036 18.3267 13.6036 17.8542C13.6036 17.3784 13.2971 17.1049 12.8748 17.1049H9.82108V17.0208L11.8817 14.621C12.7489 13.6153 13.3555 12.7884 13.3534 11.6503C13.3492 10.0509 12.1897 9.00372 10.3857 9.00372C9.01226 9.00372 7.7975 9.86481 7.4907 11.0454C7.46093 11.2083 7.4375 11.3435 7.4375 11.4968C7.4375 11.9461 7.70679 12.2505 8.14859 12.2505C8.52101 12.2505 8.71577 12.0323 8.87351 11.6723C9.13484 10.8862 9.66382 10.4906 10.419 10.4906C11.267 10.4906 11.8215 11.0196 11.8215 11.7918C11.8215 12.5029 11.2564 13.1044 10.7045 13.7501L7.85117 17.1002C7.63109 17.3543 7.53429 17.5852 7.53429 17.8596C7.53429 18.3321 7.84601 18.6312 8.30585 18.6312ZM16.5765 18.7739C16.9583 18.7739 17.1936 18.5686 17.4151 18.1216L20.8224 11.1719C20.9897 10.8096 21.0408 10.5775 21.0408 10.3209C21.0408 9.71083 20.6201 9.22544 19.8987 9.22544H15.4555C15.0065 9.22544 14.6863 9.51395 14.6863 9.96934C14.6863 10.4151 15.0149 10.694 15.4555 10.694H19.2176V10.7815L15.8506 17.3339C15.7388 17.5308 15.7069 17.6862 15.7069 17.9257C15.7069 18.428 16.0827 18.7739 16.5765 18.7739Z" fill="black"/>
</svg>
