<svg width="28" height="28" viewBox="0 0 28 28" fill="none" xmlns="http://www.w3.org/2000/svg">
<path d="M6.84421 24.8972H21.0295C23.5685 24.8972 24.8737 23.5919 24.8737 21.0914V6.82921C24.8737 4.32656 23.5685 3.02344 21.0295 3.02344H6.84421C4.31484 3.02344 3 4.31695 3 6.82921V21.0914C3 23.6016 4.31484 24.8972 6.84421 24.8972Z" fill="black"/>
<path d="M9.94305 19.0774C7.90469 19.0774 6.54297 17.1949 6.54297 13.9427C6.54297 10.6905 7.90469 8.80594 9.94305 8.80594C11.9889 8.80594 13.3579 10.6905 13.3579 13.9427C13.3579 17.1949 11.9889 19.0774 9.94305 19.0774ZM9.95149 17.4279C10.9863 17.4279 11.6017 16.1723 11.6017 13.9427C11.6017 11.7131 10.9766 10.4576 9.95149 10.4576C8.94555 10.4576 8.29914 11.7131 8.29914 13.9427C8.29914 16.1723 8.94555 17.4279 9.95149 17.4279ZM17.9763 19.0774C16.4793 19.0774 15.3283 18.2805 14.9735 17.3402C14.8947 17.1593 14.8596 16.9676 14.8596 16.7641C14.8596 16.3256 15.1788 15.9935 15.6068 15.9935C15.9323 15.9935 16.1657 16.1946 16.3521 16.5166C16.691 17.1546 17.3097 17.565 18.0668 17.565C19.1215 17.565 19.8445 16.8539 19.8445 15.7022C19.8445 14.6901 19.1887 13.9139 18.2257 13.9139C17.7342 13.9139 17.3791 14.077 16.9228 14.4705C16.5614 14.7595 16.3282 14.8755 15.9152 14.8755C15.3232 14.8755 14.9601 14.441 15.0049 13.7787L15.2725 10.1498C15.3098 9.46102 15.7413 9.04899 16.4132 9.04899H20.4255C20.8542 9.04899 21.1256 9.35461 21.1256 9.79617C21.1256 10.2494 20.8382 10.5476 20.4255 10.5476H16.6879L16.4704 13.4337H16.5248C16.8764 12.885 17.7089 12.5055 18.4825 12.5055C20.2563 12.5055 21.4975 13.7995 21.4975 15.6502C21.4975 17.7628 20.1091 19.0774 17.9763 19.0774Z" fill="white"/>
</svg>
