<svg width="28" height="28" viewBox="0 0 28 28" fill="none" xmlns="http://www.w3.org/2000/svg">
<path d="M14.105 26.21C20.7369 26.21 26.2121 20.7273 26.2121 14.105C26.2121 7.47312 20.7273 2 14.0954 2C7.47523 2 2 7.47312 2 14.105C2 20.7273 7.48484 26.21 14.105 26.21ZM14.105 23.8255C8.71085 23.8255 4.39412 19.4991 4.39412 14.105C4.39412 8.71085 8.70124 4.38452 14.0954 4.38452C19.4895 4.38452 23.8276 8.71085 23.8276 14.105C23.8276 19.4991 19.4991 23.8255 14.105 23.8255Z" fill="black"/>
<path d="M10.4953 19.468C11.2228 19.468 11.6365 19.0011 11.6365 18.212V14.7561H16.5345V18.212C16.5345 18.9936 16.9577 19.468 17.6585 19.468C18.386 19.468 18.7997 19.0011 18.7997 18.212V9.81545C18.7997 9.02632 18.386 8.55945 17.6585 8.55945C16.9577 8.55945 16.5345 9.03382 16.5345 9.81545V13.0128H11.6365V9.81545C11.6365 9.02632 11.2228 8.55945 10.4953 8.55945C9.79453 8.55945 9.38086 9.03382 9.38086 9.81545V18.212C9.38086 18.9936 9.79453 19.468 10.4953 19.468Z" fill="black"/>
</svg>
