<svg width="28" height="28" viewBox="0 0 28 28" fill="none" xmlns="http://www.w3.org/2000/svg">
<path d="M6.84421 24.8972H21.0295C23.5685 24.8972 24.8737 23.5919 24.8737 21.0914V6.82921C24.8737 4.32656 23.5685 3.02344 21.0295 3.02344H6.84421C4.31484 3.02344 3 4.31695 3 6.82921V21.0914C3 23.6016 4.31484 24.8972 6.84421 24.8972Z" fill="black"/>
<path d="M9.56445 14.408C9.56445 12.135 11.0483 10.6357 12.995 10.6357C13.9604 10.6357 14.7873 11.0055 15.2956 11.6205V9.80835H13.2022C12.8698 9.80835 12.6502 9.5728 12.6502 9.25101C12.6502 8.9271 12.8602 8.68194 13.2022 8.68194H15.3041V8.21014C15.3041 7.67905 15.6573 7.35022 16.1902 7.35022C16.7115 7.35022 17.0689 7.67905 17.0689 8.21014V8.68194H17.8191C18.159 8.68194 18.3807 8.9271 18.3807 9.25101C18.3807 9.5728 18.1473 9.80835 17.8191 9.80835H17.0774V17.4328C17.0774 17.9752 16.7359 18.3145 16.2191 18.3145C15.7391 18.3145 15.3901 18.0026 15.3669 17.5256L15.3648 17.1169C14.8414 17.8019 13.9911 18.1887 13.0088 18.1887C11.0621 18.1887 9.56445 16.6734 9.56445 14.408ZM11.3888 14.4197C11.3888 15.7439 12.1864 16.6287 13.3625 16.6287C14.5119 16.6287 15.3287 15.6959 15.3287 14.4197C15.3287 13.1435 14.5119 12.2086 13.3625 12.2086C12.1864 12.2086 11.3888 13.0933 11.3888 14.4197ZM10.1771 19.523C10.1771 19.2012 10.4148 18.9539 10.7483 18.9539H16.8685C17.202 18.9539 17.4397 19.1916 17.4397 19.523C17.4397 19.8427 17.1924 20.0899 16.8685 20.0899H10.7483C10.4244 20.0899 10.1771 19.8427 10.1771 19.523Z" fill="white"/>
</svg>
