<svg width="28" height="28" viewBox="0 0 28 28" fill="none" xmlns="http://www.w3.org/2000/svg">
<path d="M14.105 26.21C20.7369 26.21 26.2121 20.7273 26.2121 14.105C26.2121 7.47312 20.7273 2 14.0954 2C7.47523 2 2 7.47312 2 14.105C2 20.7273 7.48484 26.21 14.105 26.21Z" fill="black"/>
<path d="M8.0257 18.9753C7.54781 18.9753 7.22015 18.6624 7.22015 18.1698C7.22015 17.8773 7.31695 17.6326 7.55296 17.3722L10.5084 13.8985C11.0763 13.2327 11.667 12.6057 11.667 11.8711C11.667 11.0754 11.0869 10.5326 10.2134 10.5326C9.43687 10.5326 8.89406 10.9325 8.62312 11.7516C8.46327 12.1276 8.25257 12.35 7.86422 12.35C7.40437 12.35 7.11914 12.0317 7.11914 11.5622C7.11914 11.4047 7.14469 11.2578 7.17445 11.0928C7.49508 9.86864 8.75344 8.96606 10.1843 8.96606C12.0596 8.96606 13.2605 10.0569 13.2647 11.7254C13.2689 12.905 12.6347 13.7637 11.7377 14.813L9.61429 17.2831V17.3811H12.7639C13.2064 17.3811 13.531 17.6588 13.531 18.1644C13.531 18.657 13.2064 18.9753 12.7639 18.9753H8.0257ZM18.0113 19.2376C16.5164 19.2376 15.3633 18.4407 15.0106 17.5004C14.9276 17.3194 14.8871 17.1277 14.8871 16.9243C14.8871 16.4858 15.2063 16.1537 15.6418 16.1537C15.9673 16.1537 16.1932 16.3548 16.3775 16.6768C16.7185 17.3148 17.3372 17.7252 18.0943 17.7252C19.1586 17.7252 19.8699 17.0141 19.8699 15.8623C19.8699 14.8503 19.2162 14.0741 18.2607 14.0741C17.7617 14.0741 17.4162 14.2372 16.9482 14.6307C16.5889 14.9197 16.3557 15.0357 15.9427 15.0357C15.3603 15.0357 14.9972 14.6012 15.042 13.9388L15.3075 10.31C15.3565 9.62114 15.7688 9.20911 16.4407 9.20911H20.4626C20.8817 9.20911 21.1531 9.51474 21.1531 9.9563C21.1531 10.4096 20.8636 10.7077 20.4626 10.7077H16.7133L16.5075 13.5938H16.5523C16.9135 13.0452 17.7364 12.6657 18.5196 12.6657C20.2817 12.6657 21.5229 13.9597 21.5229 15.8103C21.5229 17.923 20.1366 19.2376 18.0113 19.2376Z" fill="white"/>
</svg>
