<svg width="28" height="28" viewBox="0 0 28 28" fill="none" xmlns="http://www.w3.org/2000/svg">
<path d="M14.105 26.21C20.7369 26.21 26.2121 20.7273 26.2121 14.105C26.2121 7.47312 20.7273 2 14.0954 2C7.47523 2 2 7.47312 2 14.105C2 20.7273 7.48484 26.21 14.105 26.21Z" fill="black"/>
<path d="M9.11328 16.6137C9.11328 16.2844 9.33172 16.0276 9.68235 16.0276H10.6536L10.9766 15.0355H9.68235C9.33172 15.0355 9.11328 14.7882 9.11328 14.4589C9.11328 14.1296 9.33172 13.8823 9.68235 13.8823H11.356L12.8654 9.22176C13.0536 8.64356 13.4467 8.30981 14.0931 8.30981C14.716 8.30981 15.1208 8.65528 15.3069 9.22176L16.828 13.8823H18.5155C18.8661 13.8823 19.0867 14.1296 19.0867 14.4589C19.0867 14.7882 18.8661 15.0355 18.5155 15.0355H17.2053L17.5283 16.0276H18.5155C18.8661 16.0276 19.0867 16.2844 19.0867 16.6137C19.0867 16.943 18.8661 17.1807 18.5155 17.1807H17.8906L18.3997 18.6992C18.4583 18.8931 18.4935 19.0271 18.4935 19.1516C18.4935 19.6482 18.1189 19.9866 17.5742 19.9866C17.0914 19.9866 16.8095 19.7666 16.6796 19.2995L16.0248 17.1807H12.1667L11.514 19.2898C11.3841 19.7548 11.0914 19.9866 10.6161 19.9866C10.063 19.9866 9.69805 19.6482 9.69805 19.1516C9.69805 19.0271 9.71398 18.8931 9.77469 18.6992L10.2838 17.1807H9.68235C9.33172 17.1807 9.11328 16.943 9.11328 16.6137ZM12.5035 16.0276H15.6805L15.3735 15.0355H12.8106L12.5035 16.0276ZM13.1549 13.8823H15.0292L14.0931 10.7977L13.1549 13.8823Z" fill="white"/>
</svg>
