<svg width="28" height="28" viewBox="0 0 28 28" fill="none" xmlns="http://www.w3.org/2000/svg">
<path d="M6.84421 24.8972H21.0295C23.5685 24.8972 24.8737 23.5919 24.8737 21.0914V6.82921C24.8737 4.32656 23.5685 3.02344 21.0295 3.02344H6.84421C4.31484 3.02344 3 4.31695 3 6.82921V21.0914C3 23.6016 4.31484 24.8972 6.84421 24.8972Z" fill="black"/>
<path d="M10.074 18.9408C8.51609 18.9408 7.26008 17.9871 6.96172 16.9364C6.91062 16.7735 6.89258 16.6416 6.89258 16.4691C6.89258 16.0083 7.22234 15.7005 7.63554 15.7005C7.98898 15.7005 8.2114 15.8902 8.3689 16.2609C8.66726 17.0095 9.2675 17.4202 10.0941 17.4202C11.0884 17.4202 11.7732 16.7963 11.7732 15.9877C11.7732 15.1334 11.146 14.568 10.1391 14.568H9.57125C9.10859 14.568 8.83391 14.2413 8.83391 13.8094C8.83391 13.3411 9.12125 13.0357 9.57125 13.0357H10.1007C10.9421 13.0357 11.514 12.4653 11.514 11.7068C11.514 10.9561 10.9348 10.4484 10.1082 10.4484C9.28906 10.4484 8.77179 10.8549 8.51187 11.6035C8.3757 11.9721 8.165 12.166 7.79234 12.166C7.36226 12.166 7.06742 11.8561 7.06742 11.3899C7.06742 11.2249 7.08336 11.093 7.12578 10.9174C7.42836 9.84915 8.56859 8.9447 10.1434 8.9447C11.9169 8.9447 13.141 9.97923 13.141 11.4856C13.141 12.5513 12.4046 13.5049 11.4669 13.6627V13.7414C12.6146 13.8502 13.4363 14.8495 13.4363 16.0727C13.4363 17.7644 12.0725 18.9408 10.074 18.9408ZM18.0469 18.9408C16.0238 18.9408 14.6761 17.8029 14.6761 16.1088C14.6761 14.9093 15.3952 13.965 16.6198 13.7051V13.6263C15.5932 13.3352 15.016 12.5276 15.016 11.5081C15.016 9.98884 16.271 8.9447 18.0661 8.9447C19.8729 8.9447 21.128 9.98884 21.128 11.5081C21.128 12.5276 20.539 13.3544 19.5221 13.6263V13.7051C20.7275 13.965 21.4678 14.8997 21.4678 16.0992C21.4678 17.7837 20.0818 18.9408 18.0469 18.9408ZM18.0757 17.5807C19.0836 17.5807 19.812 16.9249 19.812 15.9823C19.812 15.0534 19.1028 14.3859 18.0757 14.3859C17.07 14.3859 16.3416 15.063 16.3416 15.9823C16.3416 16.9249 17.07 17.5807 18.0757 17.5807ZM18.0661 13.0711C18.9096 13.0711 19.4909 12.476 19.4909 11.6677C19.4909 10.8572 18.9075 10.2984 18.0661 10.2984C17.2364 10.2984 16.6531 10.8572 16.6531 11.6677C16.6531 12.476 17.2343 13.0711 18.0661 13.0711Z" fill="white"/>
</svg>
