<svg width="28" height="28" viewBox="0 0 28 28" fill="none" xmlns="http://www.w3.org/2000/svg">
<path d="M14.105 26.21C20.7369 26.21 26.2121 20.7273 26.2121 14.105C26.2121 7.47312 20.7273 2 14.0954 2C7.47523 2 2 7.47312 2 14.105C2 20.7273 7.48484 26.21 14.105 26.21Z" fill="black"/>
<path d="M13.8349 16.5391C13.0872 16.5391 12.6661 16.1772 12.6661 15.4832C12.6661 15.4427 12.6661 15.3946 12.6661 15.3541C12.6661 14.2431 13.3055 13.623 14.1705 13.0157C15.1999 12.2985 15.708 11.9212 15.708 11.1494C15.708 10.3344 15.0501 9.75552 14.0742 9.75552C13.3436 9.75552 12.7753 10.1033 12.3565 10.7643L12.1708 11.0193C11.9271 11.3301 11.6175 11.5272 11.1757 11.5272C10.6802 11.5272 10.2129 11.1583 10.2129 10.5728C10.2129 10.345 10.264 10.1373 10.3331 9.93506C10.7119 8.79225 12.1219 7.84912 14.2183 7.84912C16.3863 7.84912 18.2193 8.99568 18.2193 11.0282C18.2193 12.4497 17.4368 13.1486 16.2311 13.9326C15.4422 14.4454 15.0175 14.8685 14.9796 15.5038C14.9775 15.5369 14.9754 15.5955 14.9733 15.6445C14.9395 16.146 14.5033 16.5391 13.8349 16.5391ZM13.8178 20.2675C13.0324 20.2675 12.3766 19.6945 12.3766 18.9292C12.3766 18.1682 13.0228 17.5813 13.8178 17.5813C14.6128 17.5813 15.2505 18.1607 15.2505 18.9292C15.2505 19.7041 14.6032 20.2675 13.8178 20.2675Z" fill="white"/>
</svg>
