<svg width="28" height="28" viewBox="0 0 28 28" fill="none" xmlns="http://www.w3.org/2000/svg">
<path d="M6.84421 24.8972H21.0295C23.5685 24.8972 24.8737 23.5919 24.8737 21.0914V6.82921C24.8737 4.32656 23.5685 3.02344 21.0295 3.02344H6.84421C4.31484 3.02344 3 4.31695 3 6.82921V21.0914C3 23.6016 4.31484 24.8972 6.84421 24.8972ZM6.97733 22.6013C5.88772 22.6013 5.29592 22.0371 5.29592 20.8985V7.01999C5.29592 5.88139 5.88772 5.31936 6.97733 5.31936H20.8964C21.9764 5.31936 22.5778 5.88139 22.5778 7.01999V20.8985C22.5778 22.0371 21.9764 22.6013 20.8964 22.6013H6.97733Z" fill="black"/>
<path d="M10.0743 18.8817C12.0393 18.8817 13.3605 17.0641 13.3605 13.9427C13.3605 10.8192 12.0393 9.00375 10.0743 9.00375C8.10719 9.00375 6.80078 10.8192 6.80078 13.9427C6.80078 17.0641 8.10719 18.8817 10.0743 18.8817ZM10.0806 17.3119C9.10023 17.3119 8.47726 16.0915 8.47726 13.9427C8.47726 11.794 9.10023 10.5736 10.0806 10.5736C11.0727 10.5736 11.6861 11.794 11.6861 13.9427C11.6861 16.0915 11.0824 17.3119 10.0806 17.3119ZM17.8087 18.8817C19.8585 18.8817 21.1895 17.6224 21.1895 15.5831C21.1895 13.8037 19.9919 12.563 18.2852 12.563C17.5391 12.563 16.7439 12.9307 16.3966 13.4517H16.3518L16.5576 10.6657H20.1674C20.56 10.6657 20.8335 10.3814 20.8335 9.94828C20.8335 9.52477 20.576 9.23508 20.1674 9.23508H16.2956C15.6534 9.23508 15.2453 9.62695 15.2081 10.2881L14.9425 13.7925C14.9074 14.423 15.2566 14.8319 15.8188 14.8319C16.2138 14.8319 16.4352 14.7276 16.7828 14.4504C17.2274 14.0707 17.5687 13.9076 18.0463 13.9076C18.9763 13.9076 19.6162 14.6583 19.6162 15.6352C19.6162 16.7496 18.9166 17.4352 17.8895 17.4352C17.1581 17.4352 16.5606 17.0386 16.2356 16.422C16.0534 16.1137 15.8296 15.9244 15.52 15.9244C15.1101 15.9244 14.8089 16.2427 14.8089 16.6631C14.8089 16.8527 14.8399 17.0327 14.9186 17.2094C15.2596 18.1125 16.3617 18.8817 17.8087 18.8817Z" fill="black"/>
</svg>
