<svg width="28" height="28" viewBox="0 0 28 28" fill="none" xmlns="http://www.w3.org/2000/svg">
<path d="M6.84421 24.8972H21.0295C23.5685 24.8972 24.8737 23.5919 24.8737 21.0914V6.82921C24.8737 4.32656 23.5685 3.02344 21.0295 3.02344H6.84421C4.31484 3.02344 3 4.31695 3 6.82921V21.0914C3 23.6016 4.31484 24.8972 6.84421 24.8972Z" fill="black"/>
<path d="M15.5522 19.4927C14.9213 19.4927 14.532 19.0723 14.532 18.3445V17.3166H10.4091C9.51538 17.3166 8.95898 16.7866 8.95898 15.9684C8.95898 15.5693 9.04734 15.2194 9.3082 14.748C10.2052 13.2415 11.5563 11.1987 12.7153 9.42256C13.2781 8.5378 13.875 8.18671 14.8833 8.18671C15.8993 8.18671 16.6013 8.80358 16.6013 9.68553V15.4634H17.3825C17.9822 15.4634 18.3556 15.8379 18.3556 16.4006C18.3556 16.9537 17.9705 17.3166 17.3803 17.3166H16.6013V18.3445C16.6013 19.0819 16.2141 19.4927 15.5522 19.4927ZM14.532 15.4634V9.95952H14.4436C13.2856 11.7558 11.8833 13.9165 11.044 15.3909V15.4634H14.532Z" fill="white"/>
</svg>
