<svg width="28" height="28" viewBox="0 0 28 28" fill="none" xmlns="http://www.w3.org/2000/svg">
<path d="M6.84421 24.8972H21.0295C23.5685 24.8972 24.8737 23.5919 24.8737 21.0914V6.82921C24.8737 4.32656 23.5685 3.02344 21.0295 3.02344H6.84421C4.31484 3.02344 3 4.31695 3 6.82921V21.0914C3 23.6016 4.31484 24.8972 6.84421 24.8972ZM6.97733 22.6013C5.88772 22.6013 5.29592 22.0371 5.29592 20.8985V7.01999C5.29592 5.88139 5.88772 5.31936 6.97733 5.31936H20.8964C21.9764 5.31936 22.5778 5.88139 22.5778 7.01999V20.8985C22.5778 22.0371 21.9764 22.6013 20.8964 22.6013H6.97733Z" fill="black"/>
<path d="M8.16719 18.6312H12.7265C13.1584 18.6312 13.465 18.3267 13.465 17.8542C13.465 17.3784 13.1584 17.1049 12.7265 17.1049H9.68242V17.0208L11.7431 14.621C12.6102 13.6153 13.2189 12.7884 13.2147 11.6503C13.2104 10.0509 12.051 9.00372 10.2491 9.00372C8.8736 9.00372 7.65883 9.86481 7.35204 11.0454C7.32227 11.2083 7.29883 11.3435 7.29883 11.4968C7.29883 11.9461 7.56813 12.2505 8.00032 12.2505C8.38235 12.2505 8.57711 12.0323 8.72524 11.6723C8.99617 10.8862 9.52516 10.4906 10.2803 10.4906C11.1283 10.4906 11.6828 11.0196 11.6828 11.7918C11.6828 12.5029 11.1177 13.1044 10.5658 13.7501L7.7125 17.1002C7.49243 17.3543 7.39563 17.5852 7.39563 17.8596C7.39563 18.3321 7.70735 18.6312 8.16719 18.6312ZM17.7353 18.8817C19.7099 18.8817 21.0236 17.0641 21.0236 13.9427C21.0236 10.8192 19.7099 9.00372 17.7353 9.00372C15.7682 9.00372 14.4639 10.8192 14.4639 13.9427C14.4639 17.0641 15.7682 18.8817 17.7353 18.8817ZM17.7437 17.3119C16.7612 17.3119 16.1479 16.0915 16.1479 13.9427C16.1479 11.794 16.7612 10.5736 17.7437 10.5736C18.7358 10.5736 19.3471 11.794 19.3471 13.9427C19.3471 16.0915 18.7455 17.3119 17.7437 17.3119Z" fill="black"/>
</svg>
