<svg width="28" height="28" viewBox="0 0 28 28" fill="none" xmlns="http://www.w3.org/2000/svg">
<path d="M6.84421 24.8972H21.0295C23.5685 24.8972 24.8737 23.5919 24.8737 21.0914V6.82921C24.8737 4.32656 23.5685 3.02344 21.0295 3.02344H6.84421C4.31484 3.02344 3 4.31695 3 6.82921V21.0914C3 23.6016 4.31484 24.8972 6.84421 24.8972Z" fill="black"/>
<path d="M8.75195 13.7252C8.75195 13.3884 8.99922 13.1487 9.32102 13.1487H9.81789L9.25938 9.52288C9.23594 9.38038 9.2125 9.25897 9.2125 9.11624C9.2125 8.61726 9.57437 8.30554 10.0788 8.30554C10.5309 8.30554 10.897 8.57038 10.9534 9.0471L11.429 13.1487H12.3316L12.9691 9.16569C13.0553 8.61632 13.4535 8.30554 13.9548 8.30554C14.4423 8.30554 14.8639 8.61632 14.9406 9.15397L15.5877 13.1391H16.5095L17.0022 9.03749C17.0629 8.56077 17.4247 8.29382 17.8672 8.29382C18.362 8.29382 18.726 8.59804 18.726 9.0853C18.726 9.2196 18.7025 9.33655 18.6791 9.47483L18.111 13.1391H18.6046C18.9456 13.1391 19.1854 13.3767 19.1854 13.7156C19.1854 14.0374 18.9456 14.306 18.6046 14.306H17.9202L17.1964 18.9776C17.1177 19.5255 16.7059 19.8478 16.2102 19.8478C15.6953 19.8478 15.2889 19.5427 15.2026 18.9809L14.4402 14.306H13.4929L12.7497 18.9809C12.6634 19.5427 12.2591 19.8478 11.7421 19.8478C11.2347 19.8478 10.8304 19.5255 10.7495 18.9776L10.0087 14.3156H9.32102C8.99922 14.3156 8.75195 14.047 8.75195 13.7252ZM11.572 14.2964L11.8152 16.7801L12.1727 14.2964H11.572ZM13.6827 13.1487H14.2696L13.9665 11.0683L13.6827 13.1487ZM15.7466 14.2964L16.1233 16.8399L16.3954 14.2964H15.7466Z" fill="white"/>
</svg>
