<svg width="28" height="28" viewBox="0 0 28 28" fill="none" xmlns="http://www.w3.org/2000/svg">
<path d="M14.105 26.21C20.7369 26.21 26.2121 20.7273 26.2121 14.105C26.2121 7.47312 20.7273 2 14.0954 2C7.47523 2 2 7.47312 2 14.105C2 20.7273 7.48484 26.21 14.105 26.21Z" fill="black"/>
<path d="M10.9197 19.6479C10.206 19.6479 9.77734 19.1681 9.77734 18.3501V9.67922C9.77734 8.85915 10.206 8.37939 10.9197 8.37939C11.6643 8.37939 12.0855 8.86126 12.0855 9.67922V13.4615H12.1642L16.5297 8.87157C16.8553 8.5261 17.1063 8.37939 17.471 8.37939C18.0656 8.37939 18.5324 8.81345 18.5324 9.34852C18.5324 9.66867 18.442 9.88899 18.1813 10.174L15.1403 13.3615L18.4532 17.7319C18.6606 18.0169 18.7703 18.2831 18.7703 18.5777C18.7703 19.1936 18.3056 19.6479 17.6556 19.6479C17.2462 19.6479 16.9525 19.4723 16.6558 19.0746L13.4481 14.8094L12.0855 16.2485V18.3754C12.0855 19.1765 11.658 19.6479 10.9197 19.6479Z" fill="white"/>
</svg>
