<svg width="28" height="28" viewBox="0 0 28 28" fill="none" xmlns="http://www.w3.org/2000/svg">
<path d="M14.105 26.21C20.7369 26.21 26.2121 20.7273 26.2121 14.105C26.2121 7.47312 20.7273 2 14.0954 2C7.47523 2 2 7.47312 2 14.105C2 20.7273 7.48484 26.21 14.105 26.21ZM14.105 23.8255C8.71085 23.8255 4.39412 19.4991 4.39412 14.105C4.39412 8.71085 8.70124 4.38452 14.0954 4.38452C19.4895 4.38452 23.8276 8.71085 23.8276 14.105C23.8276 19.4991 19.4991 23.8255 14.105 23.8255Z" fill="black"/>
<path d="M11.7884 19.0227C12.2867 19.0227 12.5602 18.6798 12.5602 18.1995V16.9517H13.114C13.5462 16.9517 13.8167 16.6941 13.8167 16.2502C13.8167 15.7967 13.5462 15.5211 13.114 15.5211H12.5602V10.3996C12.5602 9.63972 12.0767 9.16394 11.3009 9.16394C10.5579 9.16394 10.114 9.45128 9.72634 10.1443C8.83477 11.6584 7.76719 13.5495 7.07484 14.8536C6.89156 15.2338 6.80859 15.5337 6.80859 15.8902C6.80859 16.5556 7.2314 16.9559 7.8764 16.9559H11.0304V18.1995C11.0304 18.6702 11.306 19.0227 11.7884 19.0227ZM11.0304 15.5274H8.45015V15.4805C9.06562 14.2618 10.144 12.3048 10.976 10.8451H11.0304V15.5274ZM18.121 19.0515C19.9878 19.0515 21.3092 17.7997 21.3092 15.6973C21.3092 13.7534 19.9971 12.6697 18.5391 12.6697C17.359 12.6697 16.6287 13.3243 16.34 14.0534H16.26C16.2579 13.9993 16.2558 13.9527 16.2558 13.8699C16.2558 11.8871 17.0789 10.6255 18.2745 10.6255C18.8993 10.6255 19.3175 10.9283 19.5936 11.341C19.7886 11.6129 19.9845 11.7557 20.3157 11.7557C20.667 11.7557 20.9532 11.4852 20.9532 11.0711C20.9532 10.8934 20.9234 10.7443 20.8522 10.573C20.5475 9.8237 19.6374 9.16394 18.3352 9.16394C16.1389 9.16394 14.7392 10.8859 14.7392 14.326C14.7392 15.6798 14.9534 16.708 15.3392 17.4462C15.9296 18.5797 16.9332 19.0515 18.121 19.0515ZM18.0422 17.6485C17.0621 17.6485 16.3859 16.8753 16.3859 15.778C16.3859 14.7308 17.0621 13.9843 18.0518 13.9843C19.0374 13.9843 19.704 14.7212 19.704 15.7876C19.704 16.9234 19.0566 17.6485 18.0422 17.6485Z" fill="black"/>
</svg>
