<svg width="28" height="28" viewBox="0 0 28 28" fill="none" xmlns="http://www.w3.org/2000/svg">
<path d="M6.84421 24.8972H21.0295C23.5685 24.8972 24.8737 23.5919 24.8737 21.0914V6.82921C24.8737 4.32656 23.5685 3.02344 21.0295 3.02344H6.84421C4.31484 3.02344 3 4.31695 3 6.82921V21.0914C3 23.6016 4.31484 24.8972 6.84421 24.8972Z" fill="black"/>
<path d="M11.3353 19.5279C10.5877 19.5279 10.1719 19.0012 10.1719 18.2112V9.67031C10.1719 8.85164 10.5823 8.34094 11.3817 8.34094H14.7134C17.1225 8.34094 18.7331 9.86836 18.7331 12.1645C18.7331 14.4649 17.1333 15.9752 14.6932 15.9752H12.518V18.2112C12.518 19.0184 12.0958 19.5279 11.3353 19.5279ZM12.518 14.2329H14.3827C15.6888 14.2329 16.4674 13.4534 16.4674 12.1666C16.4674 10.8703 15.6813 10.0929 14.3827 10.0929H12.518V14.2329Z" fill="white"/>
</svg>
