<svg width="28" height="28" viewBox="0 0 28 28" fill="none" xmlns="http://www.w3.org/2000/svg">
<path d="M6.84421 24.8972H21.0295C23.5685 24.8972 24.8737 23.5919 24.8737 21.0914V6.82921C24.8737 4.32656 23.5685 3.02344 21.0295 3.02344H6.84421C4.31484 3.02344 3 4.31695 3 6.82921V21.0914C3 23.6016 4.31484 24.8972 6.84421 24.8972ZM6.97733 22.6013C5.88772 22.6013 5.29592 22.0371 5.29592 20.8985V7.01999C5.29592 5.88139 5.88772 5.31936 6.97733 5.31936H20.8964C21.9764 5.31936 22.5778 5.88139 22.5778 7.01999V20.8985C22.5778 22.0371 21.9764 22.6013 20.8964 22.6013H6.97733Z" fill="black"/>
<path d="M11.5266 18.8625C12.0228 18.8625 12.2984 18.5196 12.2984 18.0394V16.7916H12.8502C13.2824 16.7916 13.5528 16.534 13.5528 16.0901C13.5528 15.6366 13.2824 15.3609 12.8502 15.3609H12.2984V10.2394C12.2984 9.47956 11.8128 9.00378 11.0466 9.00378C10.3058 9.00378 9.85017 9.29112 9.46251 9.98417C8.57095 11.4982 7.50336 13.3894 6.81102 14.6934C6.62985 15.0736 6.54688 15.3736 6.54688 15.7301C6.54688 16.3955 6.96758 16.7958 7.61469 16.7958H10.7666V18.0394C10.7666 18.51 11.0422 18.8625 11.5266 18.8625ZM10.7666 15.3673H8.18633V15.3204C8.8018 14.1016 9.88016 12.1446 10.7122 10.685H10.7666V15.3673ZM18.001 18.8817C20.0106 18.8817 21.3798 17.7394 21.3798 16.0739C21.3798 14.8912 20.6499 13.965 19.4572 13.7072V13.6305C20.454 13.3587 21.0346 12.5424 21.0346 11.5334C21.0346 10.0353 19.7942 9.00378 18.0203 9.00378C16.2463 9.00378 15.006 10.0353 15.006 11.5334C15.006 12.5424 15.5673 13.3394 16.5833 13.6305V13.7072C15.381 13.965 14.6607 14.9009 14.6607 16.0835C14.6607 17.7586 16.0011 18.8817 18.001 18.8817ZM18.0299 17.547C17.0284 17.547 16.3042 16.8954 16.3042 15.9612C16.3042 15.0462 17.0284 14.3733 18.0299 14.3733C19.041 14.3733 19.746 15.0366 19.746 15.9612C19.746 16.8954 19.0217 17.547 18.0299 17.547ZM18.0203 13.088C17.1927 13.088 16.606 12.4971 16.606 11.693C16.606 10.8868 17.1852 10.3322 18.0203 10.3322C18.8457 10.3322 19.4249 10.8868 19.4249 11.693C19.4249 12.4971 18.8478 13.088 18.0203 13.088Z" fill="black"/>
</svg>
