<svg width="28" height="28" viewBox="0 0 28 28" fill="none" xmlns="http://www.w3.org/2000/svg">
<path d="M6.84421 24.8972H21.0295C23.5685 24.8972 24.8737 23.5919 24.8737 21.0914V6.82921C24.8737 4.32656 23.5685 3.02344 21.0295 3.02344H6.84421C4.31484 3.02344 3 4.31695 3 6.82921V21.0914C3 23.6016 4.31484 24.8972 6.84421 24.8972Z" fill="black"/>
<path d="M8.11569 18.8152C7.6357 18.8152 7.30804 18.5023 7.30804 18.0096C7.30804 17.7171 7.41445 17.482 7.64296 17.212L10.5984 13.748C11.1642 13.0725 11.7549 12.4456 11.7549 11.711C11.7549 10.9153 11.1865 10.3725 10.3055 10.3725C9.53437 10.3725 8.98405 10.782 8.71101 11.5915C8.55327 11.9674 8.34257 12.1898 7.95421 12.1898C7.49226 12.1898 7.20703 11.8812 7.20703 11.4021C7.20703 11.2446 7.23257 11.0977 7.26445 10.9327C7.58507 9.70852 8.85093 8.81555 10.2722 8.81555C12.1474 8.81555 13.358 9.89672 13.3664 11.5652C13.3685 12.7449 12.7322 13.6036 11.8373 14.6529L9.70428 17.123V17.2209H12.8538C13.2963 17.2209 13.6167 17.4987 13.6167 18.0042C13.6167 18.4969 13.2963 18.8152 12.8538 18.8152H8.11569ZM16.7044 18.96C16.1925 18.96 15.7987 18.596 15.7987 18.0757C15.7987 17.8202 15.8306 17.6627 15.9466 17.452L19.4393 10.6793V10.578H15.544C15.0832 10.578 14.7387 10.2949 14.7387 9.81937C14.7387 9.34383 15.0748 9.03938 15.544 9.03938H20.1544C20.9098 9.03938 21.3485 9.55664 21.3485 10.1848C21.3485 10.4573 21.2932 10.7011 21.1162 11.0794L17.5929 18.2855C17.3533 18.7526 17.1084 18.96 16.7044 18.96Z" fill="white"/>
</svg>
