<svg width="28" height="28" viewBox="0 0 28 28" fill="none" xmlns="http://www.w3.org/2000/svg">
<path d="M14.105 26.21C20.7369 26.21 26.2121 20.7273 26.2121 14.105C26.2121 7.47312 20.7273 2 14.0954 2C7.47523 2 2 7.47312 2 14.105C2 20.7273 7.48484 26.21 14.105 26.21ZM14.105 23.8255C8.71085 23.8255 4.39412 19.4991 4.39412 14.105C4.39412 8.71085 8.70124 4.38452 14.0954 4.38452C19.4895 4.38452 23.8276 8.71085 23.8276 14.105C23.8276 19.4991 19.4991 23.8255 14.105 23.8255Z" fill="black"/>
<path d="M8.29804 18.7913H12.867C13.2989 18.7913 13.6055 18.4869 13.6055 18.0144C13.6055 17.5386 13.2989 17.2651 12.867 17.2651H9.81327V17.1809L11.8835 14.7812C12.7411 13.7755 13.3498 12.9486 13.3477 11.8104C13.3413 10.2111 12.1936 9.16388 10.3896 9.16388C9.01406 9.16388 7.79929 10.025 7.4925 11.2055C7.46484 11.3684 7.42969 11.5036 7.42969 11.6569C7.42969 12.1062 7.69898 12.4107 8.14289 12.4107C8.52281 12.4107 8.71968 12.1925 8.8657 11.8325C9.13664 11.0464 9.66562 10.6507 10.4208 10.6507C11.2591 10.6507 11.8233 11.1797 11.8233 11.952C11.8233 12.6631 11.2507 13.2645 10.7062 13.9102L7.85296 17.2604C7.62328 17.5145 7.53609 17.7453 7.53609 18.0198C7.53609 18.4923 7.84781 18.7913 8.29804 18.7913ZM19.4201 19.0227C19.9259 19.0227 20.2015 18.6798 20.2015 18.1995V16.9517H20.7436C21.1758 16.9517 21.4463 16.6941 21.4463 16.2502C21.4463 15.7967 21.1758 15.5211 20.7436 15.5211H20.2015V10.3995C20.2015 9.63966 19.7084 9.16388 18.9422 9.16388C18.1992 9.16388 17.7457 9.45122 17.356 10.1443C16.4665 11.6583 15.3968 13.5495 14.7045 14.8536C14.5233 15.2338 14.4403 15.5337 14.4403 15.8902C14.4403 16.5556 14.8631 16.9559 15.5177 16.9559H18.6621V18.1995C18.6621 18.6702 18.9356 19.0227 19.4201 19.0227ZM18.6621 15.5274H16.0915V15.4805C16.7048 14.2618 17.7736 12.3048 18.6077 10.845H18.6621V15.5274Z" fill="black"/>
</svg>
