<svg width="28" height="28" viewBox="0 0 28 28" fill="none" xmlns="http://www.w3.org/2000/svg">
<path d="M6.84421 24.8972H21.0295C23.5685 24.8972 24.8737 23.5919 24.8737 21.0914V6.82921C24.8737 4.32656 23.5685 3.02344 21.0295 3.02344H6.84421C4.31484 3.02344 3 4.31695 3 6.82921V21.0914C3 23.6016 4.31484 24.8972 6.84421 24.8972Z" fill="black"/>
<path d="M10.8107 19.5279C10.098 19.5279 9.70117 19.0298 9.70117 18.2651V9.67031C9.70117 8.85164 10.1116 8.34094 10.8897 8.34094H14.325C16.8796 8.34094 18.4455 9.70477 18.4455 11.9266C18.4455 13.4309 17.5504 14.6838 16.143 15.1399L17.8582 17.767C18.0262 18.0384 18.105 18.2534 18.105 18.5545C18.105 19.129 17.6763 19.5279 17.0657 19.5279C16.5646 19.5279 16.2806 19.3247 15.9222 18.7505L13.9481 15.5055H11.9512V18.2651C11.9512 19.0469 11.548 19.5279 10.8107 19.5279ZM11.9512 13.8534H14.0003C15.3164 13.8534 16.1557 13.17 16.1557 11.982C16.1557 10.763 15.3035 10.0528 14.0409 10.0528H11.9512V13.8534Z" fill="white"/>
</svg>
