<svg width="28" height="28" viewBox="0 0 28 28" fill="none" xmlns="http://www.w3.org/2000/svg">
<path d="M6.84421 24.8972H21.0295C23.5685 24.8972 24.8737 23.5919 24.8737 21.0914V6.82921C24.8737 4.32656 23.5685 3.02344 21.0295 3.02344H6.84421C4.31484 3.02344 3 4.31695 3 6.82921V21.0914C3 23.6016 4.31484 24.8972 6.84421 24.8972ZM6.97733 22.6013C5.88772 22.6013 5.29592 22.0371 5.29592 20.8985V7.01999C5.29592 5.88139 5.88772 5.31936 6.97733 5.31936H20.8964C21.9764 5.31936 22.5778 5.88139 22.5778 7.01999V20.8985C22.5778 22.0371 21.9764 22.6013 20.8964 22.6013H6.97733Z" fill="black"/>
<path d="M9.39648 16.0474C9.39648 16.7451 9.84648 17.1698 10.5712 17.1698H14.775V18.1786C14.775 18.8798 15.1441 19.2727 15.7432 19.2727C16.3732 19.2727 16.7423 18.8894 16.7423 18.1786V17.1698H17.4114C18.0274 17.1698 18.3944 16.8134 18.3944 16.2537C18.3944 15.7324 18.0295 15.3952 17.4136 15.3952H16.7423V13.2035C16.7423 12.5264 16.371 12.1327 15.7411 12.1327C15.142 12.1327 14.775 12.5402 14.775 13.2035V15.3952H11.8673C12.8228 13.5909 13.796 11.85 14.7614 10.0465C14.8783 9.78397 14.9507 9.59342 14.9507 9.37968C14.9507 8.85819 14.5861 8.43351 13.9837 8.43351C13.5529 8.43351 13.2677 8.63671 13.0357 9.06772C11.8799 11.1305 10.8116 13.0385 9.65898 15.1109C9.4825 15.4359 9.39648 15.7423 9.39648 16.0474Z" fill="black"/>
</svg>
