<svg width="28" height="28" viewBox="0 0 28 28" fill="none" xmlns="http://www.w3.org/2000/svg">
<path d="M6.84421 24.8972H21.0295C23.5685 24.8972 24.8737 23.5919 24.8737 21.0914V6.82921C24.8737 4.32656 23.5685 3.02344 21.0295 3.02344H6.84421C4.31484 3.02344 3 4.31695 3 6.82921V21.0914C3 23.6016 4.31484 24.8972 6.84421 24.8972ZM6.97733 22.6013C5.88772 22.6013 5.29592 22.0371 5.29592 20.8985V7.01999C5.29592 5.88139 5.88772 5.31936 6.97733 5.31936H20.8964C21.9764 5.31936 22.5778 5.88139 22.5778 7.01999V20.8985C22.5778 22.0371 21.9764 22.6013 20.8964 22.6013H6.97733Z" fill="black"/>
<path d="M15.4699 19.2727C16.0978 19.2727 16.4669 18.8798 16.4669 18.1786V17.1794H17.2247C17.7904 17.1794 18.1596 16.8326 18.1596 16.3017C18.1596 15.7709 17.8021 15.4144 17.2268 15.4144H16.4669V9.83342C16.4669 8.98757 15.8011 8.40468 14.835 8.40468C13.8712 8.40468 13.304 8.73983 12.7635 9.58428C11.6535 11.288 10.3375 13.2755 9.46609 14.7309C9.22116 15.1725 9.13281 15.5065 9.13281 15.8876C9.13281 16.6676 9.66694 17.1794 10.5224 17.1794H14.4996V18.1786C14.4996 18.8702 14.8687 19.2727 15.4699 19.2727ZM14.4996 15.4144H11.1233V15.342C11.9296 13.9186 13.2925 11.827 14.4112 10.0957H14.4996V15.4144Z" fill="black"/>
</svg>
