<svg width="28" height="28" viewBox="0 0 28 28" fill="none" xmlns="http://www.w3.org/2000/svg">
<path d="M14.105 26.21C20.7369 26.21 26.2121 20.7273 26.2121 14.105C26.2121 7.47312 20.7273 2 14.0954 2C7.47523 2 2 7.47312 2 14.105C2 20.7273 7.48484 26.21 14.105 26.21Z" fill="black"/>
<path d="M8.11133 18.9753C7.63555 18.9753 7.30578 18.6624 7.30578 18.1698C7.30578 17.8773 7.4143 17.6326 7.6407 17.3722L10.5941 13.8985C11.1545 13.2327 11.7526 12.6057 11.7526 11.8711C11.7526 11.0754 11.1842 10.5326 10.3011 10.5326C9.53422 10.5326 8.97969 10.9325 8.69914 11.7516C8.5489 12.1276 8.3382 12.35 7.94023 12.35C7.49211 12.35 7.19727 12.0317 7.19727 11.5622C7.19727 11.4047 7.23031 11.2578 7.26008 11.0928C7.58281 9.86864 8.85078 8.96606 10.272 8.96606C12.1472 8.96606 13.3578 10.0569 13.362 11.7254C13.3641 12.905 12.732 13.7637 11.8234 14.813L9.70203 17.2831V17.3811H12.8398C13.2919 17.3811 13.6165 17.6588 13.6165 18.1644C13.6165 18.657 13.2919 18.9753 12.8398 18.9753H8.11133ZM18.0528 19.2376C16.0048 19.2376 14.6527 17.3551 14.6527 14.1029C14.6527 10.8507 16.0048 8.96606 18.0528 8.96606C20.089 8.96606 21.4676 10.8507 21.4676 14.1029C21.4676 17.3551 20.089 19.2376 18.0528 19.2376ZM18.0591 17.5881C19.0864 17.5881 19.7115 16.3325 19.7115 14.1029C19.7115 11.8733 19.0768 10.6177 18.0591 10.6177C17.0435 10.6177 16.4089 11.8733 16.4089 14.1029C16.4089 16.3325 17.0435 17.5881 18.0591 17.5881Z" fill="white"/>
</svg>
