<svg width="28" height="28" viewBox="0 0 28 28" fill="none" xmlns="http://www.w3.org/2000/svg">
<path d="M6.84421 24.8972H21.0295C23.5685 24.8972 24.8737 23.5919 24.8737 21.0914V6.82921C24.8737 4.32656 23.5685 3.02344 21.0295 3.02344H6.84421C4.31484 3.02344 3 4.31695 3 6.82921V21.0914C3 23.6016 4.31484 24.8972 6.84421 24.8972ZM6.97733 22.6013C5.88772 22.6013 5.29592 22.0371 5.29592 20.8985V7.01999C5.29592 5.88139 5.88772 5.31936 6.97733 5.31936H20.8964C21.9764 5.31936 22.5778 5.88139 22.5778 7.01999V20.8985C22.5778 22.0371 21.9764 22.6013 20.8964 22.6013H6.97733Z" fill="black"/>
<path d="M10.1132 18.8817C12.0782 18.8817 13.4015 17.0641 13.4015 13.9427C13.4015 10.8192 12.0782 9.00375 10.1132 9.00375C8.1461 9.00375 6.8418 10.8192 6.8418 13.9427C6.8418 17.0641 8.1461 18.8817 10.1132 18.8817ZM10.1216 17.3119C9.13914 17.3119 8.51617 16.0915 8.51617 13.9427C8.51617 11.794 9.13914 10.5736 10.1216 10.5736C11.102 10.5736 11.725 11.794 11.725 13.9427C11.725 16.0915 11.1138 17.3119 10.1216 17.3119ZM17.9144 18.8817C19.9143 18.8817 21.2836 17.7394 21.2836 16.0739C21.2836 14.8912 20.5654 13.965 19.361 13.7072V13.6305C20.3695 13.3587 20.9479 12.5424 20.9479 11.5334C20.9479 10.0352 19.7097 9.00375 17.9357 9.00375C16.1522 9.00375 14.9118 10.0352 14.9118 11.5334C14.9118 12.5424 15.4828 13.3394 16.4988 13.6305V13.7072C15.2964 13.965 14.5762 14.9009 14.5762 16.0835C14.5762 17.7586 15.9166 18.8817 17.9144 18.8817ZM17.9454 17.547C16.9343 17.547 16.21 16.8954 16.21 15.9612C16.21 15.0462 16.9343 14.3733 17.9454 14.3733C18.9565 14.3733 19.6593 15.0366 19.6593 15.9612C19.6593 16.8954 18.9372 17.547 17.9454 17.547ZM17.9357 13.088C17.0964 13.088 16.5215 12.4971 16.5215 11.693C16.5215 10.8867 17.1007 10.3322 17.9357 10.3322C18.7612 10.3322 19.3404 10.8867 19.3404 11.693C19.3404 12.4971 18.7633 13.088 17.9357 13.088Z" fill="black"/>
</svg>
