<svg width="28" height="28" viewBox="0 0 28 28" fill="none" xmlns="http://www.w3.org/2000/svg">
<path d="M6.84421 24.8972H21.0295C23.5685 24.8972 24.8737 23.5919 24.8737 21.0914V6.82921C24.8737 4.32656 23.5685 3.02344 21.0295 3.02344H6.84421C4.31484 3.02344 3 4.31695 3 6.82921V21.0914C3 23.6016 4.31484 24.8972 6.84421 24.8972ZM6.97733 22.6013C5.88772 22.6013 5.29592 22.0371 5.29592 20.8985V7.01999C5.29592 5.88139 5.88772 5.31936 6.97733 5.31936H20.8964C21.9764 5.31936 22.5778 5.88139 22.5778 7.01999V20.8985C22.5778 22.0371 21.9764 22.6013 20.8964 22.6013H6.97733Z" fill="black"/>
<path d="M10.8717 19.406C11.5666 19.406 12.0307 19.0411 12.1861 18.3518L13.8841 11.5795H13.9821L15.678 18.3518C15.8334 19.0411 16.2975 19.406 16.9924 19.406C17.7 19.406 18.1364 19.0399 18.2993 18.3452L20.4541 9.76081C20.4872 9.6319 20.4989 9.51261 20.4989 9.40503C20.4989 8.82073 20.1052 8.40894 19.4953 8.40894C18.8855 8.40894 18.5791 8.71737 18.4427 9.44018L16.8937 16.4777H16.8054L15.0286 9.32393C14.888 8.74386 14.5324 8.46612 13.9331 8.46612C13.3317 8.46612 12.9708 8.73964 12.8398 9.31971L11.0588 16.4777H10.9704L9.43101 9.44018C9.2946 8.71737 8.98827 8.40894 8.37843 8.40894C7.76859 8.40894 7.37695 8.82073 7.37695 9.40503C7.37695 9.51261 7.38656 9.6319 7.41961 9.76081L9.56485 18.3452C9.72774 19.0399 10.1642 19.406 10.8717 19.406Z" fill="black"/>
</svg>
