<svg width="28" height="28" viewBox="0 0 28 28" fill="none" xmlns="http://www.w3.org/2000/svg">
<path d="M6.84421 24.8972H21.0295C23.5685 24.8972 24.8737 23.5919 24.8737 21.0914V6.82921C24.8737 4.32656 23.5685 3.02344 21.0295 3.02344H6.84421C4.31484 3.02344 3 4.31695 3 6.82921V21.0914C3 23.6016 4.31484 24.8972 6.84421 24.8972ZM6.97733 22.6013C5.88772 22.6013 5.29592 22.0371 5.29592 20.8985V7.01999C5.29592 5.88139 5.88772 5.31936 6.97733 5.31936H20.8964C21.9764 5.31936 22.5778 5.88139 22.5778 7.01999V20.8985C22.5778 22.0371 21.9764 22.6013 20.8964 22.6013H6.97733Z" fill="black"/>
<path d="M14.0408 19.4808C16.4617 19.4808 18.151 18.0907 18.151 15.7031C18.151 13.5441 16.5331 12.3103 14.6774 12.3103C13.2062 12.3103 12.2879 13.046 11.9002 13.856C11.8672 13.856 11.8278 13.856 11.8022 13.856C11.798 13.788 11.7959 13.7297 11.7959 13.6713C11.7959 11.5158 12.7845 10.1081 14.2677 10.1081C15.0247 10.1081 15.4459 10.4376 15.7794 10.8056C16.1438 11.1469 16.3876 11.3482 16.8357 11.3482C17.3047 11.3482 17.6612 11.029 17.6612 10.5619C17.6612 10.3448 17.6113 10.1555 17.5177 9.97031C17.1153 9.11578 15.8476 8.40468 14.3295 8.40468C11.4732 8.40468 9.7168 10.3298 9.7168 14.133C9.7168 15.708 10.0077 16.8799 10.5029 17.6841C11.273 18.9347 12.5673 19.4808 14.0408 19.4808ZM13.9398 17.8383C12.7655 17.8383 11.9133 16.9786 11.9133 15.7734C11.9133 14.613 12.7559 13.7897 13.9494 13.7897C15.1503 13.7897 15.9737 14.6034 15.9737 15.7852C15.9737 17.0245 15.1792 17.8383 13.9398 17.8383Z" fill="black"/>
</svg>
