<svg width="28" height="28" viewBox="0 0 28 28" fill="none" xmlns="http://www.w3.org/2000/svg">
<path d="M14.105 26.21C20.7369 26.21 26.2121 20.7273 26.2121 14.105C26.2121 7.47312 20.7273 2 14.0954 2C7.47523 2 2 7.47312 2 14.105C2 20.7273 7.48484 26.21 14.105 26.21ZM14.105 23.8255C8.71085 23.8255 4.39412 19.4991 4.39412 14.105C4.39412 8.71085 8.70124 4.38452 14.0954 4.38452C19.4895 4.38452 23.8276 8.71085 23.8276 14.105C23.8276 19.4991 19.4991 23.8255 14.105 23.8255Z" fill="black"/>
<path d="M9.88672 12.3273C9.88672 14.2749 11.3497 15.6941 13.3475 15.6941C14.1095 15.6941 14.8961 15.4339 15.2924 15.0322H15.4468C15.335 15.2143 15.1604 15.4604 14.9111 15.762C14.3467 16.4748 13.6724 17.2857 13.0642 18.0231C12.8577 18.2626 12.7323 18.5169 12.7323 18.8028C12.7323 19.2282 13.1024 19.6313 13.6787 19.6313C14.2231 19.6313 14.458 19.3238 14.8295 18.8598C15.3915 18.1677 16.1881 17.1343 16.7312 16.4077C17.8168 14.9558 18.3493 13.7794 18.3493 12.4442C18.3493 10.1223 16.6461 8.56485 14.1128 8.56485C11.5962 8.56485 9.88672 10.1169 9.88672 12.3273ZM11.8723 12.2337C11.8723 11.1097 12.8267 10.2788 14.1032 10.2788C15.3817 10.2788 16.3457 11.1193 16.3457 12.2337C16.3457 13.3653 15.3913 14.177 14.1128 14.177C12.8267 14.177 11.8723 13.3557 11.8723 12.2337Z" fill="black"/>
</svg>
