<svg width="28" height="28" viewBox="0 0 28 28" fill="none" xmlns="http://www.w3.org/2000/svg">
<path d="M6.84421 24.8972H21.0295C23.5685 24.8972 24.8737 23.5919 24.8737 21.0914V6.82921C24.8737 4.32656 23.5685 3.02344 21.0295 3.02344H6.84421C4.31484 3.02344 3 4.31695 3 6.82921V21.0914C3 23.6016 4.31484 24.8972 6.84421 24.8972Z" fill="black"/>
<path d="M9.87485 19.0774C7.82477 19.0774 6.47266 17.1949 6.47266 13.9427C6.47266 10.6905 7.82477 8.80594 9.87485 8.80594C11.9111 8.80594 13.2897 10.6905 13.2897 13.9427C13.2897 17.1949 11.9111 19.0774 9.87485 19.0774ZM9.88118 17.4279C10.9084 17.4279 11.5335 16.1723 11.5335 13.9427C11.5335 11.7131 10.8988 10.4576 9.88118 10.4576C8.86563 10.4576 8.23094 11.7131 8.23094 13.9427C8.23094 16.1723 8.86563 17.4279 9.88118 17.4279ZM19.6652 19.0582C19.1552 19.0582 18.8658 18.6919 18.8658 18.1915V16.9127H15.6096C14.921 16.9127 14.4918 16.4944 14.4918 15.7992C14.4918 15.4247 14.5673 15.1088 14.7719 14.7105C15.4856 13.3575 16.5808 11.4089 17.4958 9.83625C17.9111 9.11133 18.3731 8.80594 19.15 8.80594C19.9598 8.80594 20.471 9.31359 20.471 10.1053V15.4099H21.0269C21.4772 15.4099 21.7711 15.7036 21.7711 16.1752C21.7711 16.635 21.4868 16.9064 21.0269 16.9064H20.471V18.1915C20.471 18.7036 20.1815 19.0582 19.6652 19.0582ZM18.8658 15.4162V10.5668H18.8114C17.9538 12.0851 16.8382 14.1016 16.211 15.3694V15.4162H18.8658Z" fill="white"/>
</svg>
