<svg width="28" height="28" viewBox="0 0 28 28" fill="none" xmlns="http://www.w3.org/2000/svg">
<path d="M6.84421 24.8972H21.0295C23.5685 24.8972 24.8737 23.5919 24.8737 21.0914V6.82921C24.8737 4.32656 23.5685 3.02344 21.0295 3.02344H6.84421C4.31484 3.02344 3 4.31695 3 6.82921V21.0914C3 23.6016 4.31484 24.8972 6.84421 24.8972ZM6.97733 22.6013C5.88772 22.6013 5.29592 22.0371 5.29592 20.8985V7.01999C5.29592 5.88139 5.88772 5.31936 6.97733 5.31936H20.8964C21.9764 5.31936 22.5778 5.88139 22.5778 7.01999V20.8985C22.5778 22.0371 21.9764 22.6013 20.8964 22.6013H6.97733Z" fill="black"/>
<path d="M13.6936 19.4808C16.5759 19.4808 18.1617 17.4577 18.1617 13.631C18.1617 10.2581 16.5855 8.40469 13.875 8.40469C11.407 8.40469 9.78516 9.89063 9.78516 12.1556C9.78516 14.3144 11.3998 15.562 13.2658 15.562C14.74 15.562 15.6309 14.8455 16.0059 13.991H16.1039C16.1568 16.3329 15.1661 17.7731 13.6743 17.7731C12.9387 17.7731 12.4343 17.4649 11.9833 16.8909C11.763 16.6383 11.5118 16.4412 11.0916 16.4412C10.5755 16.4412 10.1883 16.7944 10.1883 17.302C10.1883 17.452 10.2277 17.5978 10.2872 17.7511C10.5926 18.5639 11.7206 19.4808 13.6936 19.4808ZM13.96 14.0754C12.7645 14.0754 11.9252 13.2403 11.9252 12.0736C11.9252 10.8513 12.7432 10.0312 13.96 10.0312C15.1225 10.0312 15.9907 10.8994 15.9907 12.0928C15.9907 13.2382 15.1481 14.0754 13.96 14.0754Z" fill="black"/>
</svg>
