<svg width="28" height="28" viewBox="0 0 28 28" fill="none" xmlns="http://www.w3.org/2000/svg">
<path d="M14.105 26.21C20.7369 26.21 26.2121 20.7273 26.2121 14.105C26.2121 7.47312 20.7273 2 14.0954 2C7.47523 2 2 7.47312 2 14.105C2 20.7273 7.48484 26.21 14.105 26.21Z" fill="black"/>
<path d="M10.6287 19.5978C10.0777 19.5978 9.69141 19.2467 9.69141 18.6605V14.9687C9.69141 11.8414 11.1434 10.0114 13.4257 9.72804V8.52476C13.4257 8.08812 13.7048 7.84108 14.1042 7.84108C14.4693 7.84108 14.7752 8.08179 14.7752 8.52476V9.71843C17.0554 10.0018 18.5287 11.8297 18.5287 14.9687V18.6605C18.5287 19.2488 18.1563 19.5978 17.6032 19.5978C17.0597 19.5978 16.6926 19.2467 16.6926 18.6605V15.0362C16.6926 12.9387 15.9684 11.7404 14.7752 11.4495V18.8982C14.7752 19.3198 14.4693 19.5894 14.1042 19.5894C13.7048 19.5894 13.4257 19.3156 13.4257 18.8982V11.4591C12.24 11.7809 11.5467 12.9676 11.5467 15.0362V18.6605C11.5467 19.2488 11.1797 19.5978 10.6287 19.5978Z" fill="white"/>
</svg>
