<svg width="28" height="28" viewBox="0 0 28 28" fill="none" xmlns="http://www.w3.org/2000/svg">
<path d="M14.105 26.21C20.7369 26.21 26.2121 20.7273 26.2121 14.105C26.2121 7.47312 20.7273 2 14.0954 2C7.47523 2 2 7.47312 2 14.105C2 20.7273 7.48484 26.21 14.105 26.21Z" fill="black"/>
<path d="M9.61984 18.8724C9.61984 18.4339 9.85164 18.1583 10.3096 17.9734C11.054 17.7327 11.6643 17.0938 11.7794 16.1518C11.7932 16.0112 11.8049 15.8928 11.7974 15.7681H10.2534C9.88562 15.7681 9.60742 15.5091 9.60742 15.1414C9.60742 14.7716 9.88351 14.5222 10.2534 14.5222H11.6437C11.5701 14.1854 11.4634 13.8519 11.391 13.5151H10.2534C9.88562 13.5151 9.60742 13.2561 9.60742 12.8884C9.60742 12.5185 9.88351 12.2691 10.2534 12.2691H11.1876C11.1738 12.1522 11.1599 12.0566 11.1599 11.9396C11.1599 9.71561 12.6981 8.27631 15.2553 8.27631C16.097 8.27631 16.8137 8.37311 17.3795 8.62858C17.7971 8.80951 17.9558 9.08631 17.9558 9.43014C17.9558 9.88341 17.6771 10.1581 17.1864 10.1389C16.7671 10.1004 16.2967 9.90849 15.4292 9.90849C13.9072 9.90849 13.0351 10.7295 13.0351 11.9269C13.0351 12.0516 13.0468 12.1688 13.0564 12.2691H16.4064C16.7837 12.2691 17.0523 12.5185 17.0523 12.8884C17.0523 13.2561 16.7837 13.5151 16.4064 13.5151H13.2749C13.3548 13.8402 13.4401 14.1694 13.5254 14.5222H16.4064C16.7837 14.5222 17.0523 14.7716 17.0523 15.1414C17.0523 15.5091 16.7837 15.7681 16.4064 15.7681H13.6248C13.6206 15.943 13.6067 16.1082 13.5812 16.2734C13.4661 16.9902 13.1483 17.6588 12.6674 18.0512H17.5691C18.0702 18.0512 18.4213 18.3746 18.4213 18.8661C18.4213 19.3672 18.0702 19.6906 17.5691 19.6906H10.4507C9.95382 19.6906 9.61984 19.3735 9.61984 18.8724Z" fill="white"/>
</svg>
