<svg width="28" height="28" viewBox="0 0 28 28" fill="none" xmlns="http://www.w3.org/2000/svg">
<path d="M14.105 26.21C20.7369 26.21 26.2121 20.7273 26.2121 14.105C26.2121 7.47312 20.7273 2 14.0954 2C7.47523 2 2 7.47312 2 14.105C2 20.7273 7.48484 26.21 14.105 26.21Z" fill="black"/>
<path d="M10.0819 19.2376C8.04352 19.2376 6.67969 17.3551 6.67969 14.1029C6.67969 10.8507 8.04352 8.96606 10.0819 8.96606C12.1277 8.96606 13.4967 10.8507 13.4967 14.1029C13.4967 17.3551 12.1277 19.2376 10.0819 19.2376ZM10.0882 17.5881C11.1155 17.5881 11.7406 16.3325 11.7406 14.1029C11.7406 11.8733 11.1059 10.6177 10.0882 10.6177C9.08437 10.6177 8.43796 11.8733 8.43796 14.1029C8.43796 16.3325 9.08437 17.5881 10.0882 17.5881ZM18.1151 19.2376C16.6181 19.2376 15.4554 18.4407 15.1101 17.5004C15.0314 17.3194 14.9983 17.1277 14.9983 16.9243C14.9983 16.4858 15.3176 16.1537 15.7434 16.1537C16.0711 16.1537 16.3045 16.3548 16.4908 16.6768C16.8201 17.3148 17.4464 17.7252 18.2055 17.7252C19.2581 17.7252 19.9833 17.0141 19.9833 15.8623C19.9833 14.8503 19.3275 14.0741 18.3644 14.0741C17.8708 14.0741 17.5179 14.2372 17.0594 14.6307C16.7001 14.9197 16.4552 15.0357 16.054 15.0357C15.4619 15.0357 15.0968 14.6012 15.1415 13.9388L15.4113 10.31C15.4486 9.62114 15.8801 9.20911 16.5499 9.20911H20.5643C20.9812 9.20911 21.2644 9.51474 21.2644 9.9563C21.2644 10.4096 20.9674 10.7077 20.5643 10.7077H16.815L16.6071 13.5938H16.6615C17.0151 13.0452 17.8359 12.6657 18.6213 12.6657C20.3929 12.6657 21.6363 13.9597 21.6363 15.8103C21.6363 17.923 20.2458 19.2376 18.1151 19.2376Z" fill="white"/>
</svg>
