<svg width="28" height="28" viewBox="0 0 28 28" fill="none" xmlns="http://www.w3.org/2000/svg">
<path d="M6.84421 24.8972H21.0295C23.5685 24.8972 24.8737 23.5919 24.8737 21.0914V6.82921C24.8737 4.32656 23.5685 3.02344 21.0295 3.02344H6.84421C4.31484 3.02344 3 4.31695 3 6.82921V21.0914C3 23.6016 4.31484 24.8972 6.84421 24.8972Z" fill="black"/>
<path d="M10.014 19.0774C8.41765 19.0774 7.13281 18.0949 6.82273 17.0154C6.78335 16.8525 6.74609 16.7109 6.74609 16.5384C6.74609 16.068 7.08546 15.7507 7.51788 15.7507C7.87882 15.7507 8.10124 15.9403 8.26835 16.3207C8.58054 17.0885 9.18827 17.5088 10.032 17.5088C11.0593 17.5088 11.7709 16.8752 11.7709 16.0474C11.7709 15.1643 11.117 14.5873 10.0909 14.5873H9.50163C9.03148 14.5873 8.74508 14.2509 8.74508 13.8094C8.74508 13.3219 9.05164 13.0069 9.50163 13.0069H10.0428C10.9227 13.0069 11.5042 12.4247 11.5042 11.647C11.5042 10.8771 10.9016 10.3598 10.0503 10.3598C9.20984 10.3598 8.69257 10.7758 8.42093 11.5457C8.28476 11.924 8.06656 12.1179 7.68007 12.1179C7.23289 12.1179 6.93593 11.7984 6.93593 11.3205C6.93593 11.1576 6.94437 11.014 6.9964 10.8384C7.30859 9.7413 8.47976 8.80591 10.0834 8.80591C11.907 8.80591 13.1814 9.86927 13.1814 11.4161C13.1814 12.5107 12.4257 13.4932 11.4453 13.653V13.7318C12.624 13.8502 13.4746 14.8687 13.4746 16.1325C13.4746 17.8627 12.0723 19.0774 10.014 19.0774ZM17.964 19.0774C16.4713 19.0774 15.3161 18.2805 14.9729 17.3402C14.8921 17.1593 14.8611 16.9676 14.8611 16.7641C14.8611 16.3256 15.1708 15.9935 15.6062 15.9935C15.9318 15.9935 16.1577 16.1946 16.3515 16.5166C16.6829 17.1546 17.3092 17.565 18.0587 17.565C19.1209 17.565 19.8419 16.8539 19.8419 15.7022C19.8419 14.6901 19.1807 13.9139 18.2251 13.9139C17.7336 13.9139 17.3807 14.077 16.9201 14.4705C16.5629 14.7595 16.318 14.8755 15.9051 14.8755C15.3226 14.8755 14.9596 14.441 14.9947 13.7787L15.2741 10.1498C15.3114 9.46099 15.7333 9.04896 16.3935 9.04896H20.4271C20.844 9.04896 21.1272 9.35458 21.1272 9.79614C21.1272 10.2494 20.8302 10.5475 20.4271 10.5475H16.6757L16.4603 13.4337H16.5147C16.8758 12.885 17.6891 12.5055 18.4724 12.5055C20.244 12.5055 21.497 13.7995 21.497 15.6502C21.497 17.7628 20.1086 19.0774 17.964 19.0774Z" fill="white"/>
</svg>
