<svg width="28" height="28" viewBox="0 0 28 28" fill="none" xmlns="http://www.w3.org/2000/svg">
<path d="M14.105 26.21C20.7369 26.21 26.2121 20.7273 26.2121 14.105C26.2121 7.47312 20.7273 2 14.0954 2C7.47523 2 2 7.47312 2 14.105C2 20.7273 7.48484 26.21 14.105 26.21ZM14.105 23.8255C8.71085 23.8255 4.39412 19.4991 4.39412 14.105C4.39412 8.71085 8.70124 4.38452 14.0954 4.38452C19.4895 4.38452 23.8276 8.71085 23.8276 14.105C23.8276 19.4991 19.4991 23.8255 14.105 23.8255Z" fill="black"/>
<path d="M14.095 19.5662C14.9697 19.5662 15.4802 19.1408 15.8111 18.2251L18.8043 10.2135C18.8852 9.98588 18.9129 9.83166 18.9129 9.62846C18.9129 8.99776 18.4406 8.56909 17.7717 8.56909C17.1464 8.56909 16.8208 8.86159 16.6111 9.54737L14.1332 17.1043H14.0449L11.565 9.54737C11.3669 8.8637 11.0276 8.56909 10.4044 8.56909C9.73758 8.56909 9.26953 9.00948 9.26953 9.6369C9.26953 9.8401 9.3068 9.9901 9.37594 10.2135L12.3905 18.2516C12.7268 19.1877 13.1883 19.5662 14.095 19.5662Z" fill="black"/>
</svg>
