<svg width="28" height="28" viewBox="0 0 28 28" fill="none" xmlns="http://www.w3.org/2000/svg">
<path d="M14.105 26.21C20.7369 26.21 26.2121 20.7273 26.2121 14.105C26.2121 7.47312 20.7273 2 14.0954 2C7.47523 2 2 7.47312 2 14.105C2 20.7273 7.48484 26.21 14.105 26.21Z" fill="black"/>
<path d="M11.4738 19.688C10.7262 19.688 10.3125 19.1614 10.3125 18.3713V9.83046C10.3125 9.0118 10.7229 8.5011 11.5106 8.5011H14.854C17.261 8.5011 18.8717 10.0285 18.8717 12.3247C18.8717 14.6251 17.2643 16.1354 14.8339 16.1354H12.6565V18.3713C12.6565 19.1785 12.2365 19.688 11.4738 19.688ZM12.6565 14.393H14.5233C15.8274 14.393 16.606 13.6135 16.606 12.3268C16.606 11.0305 15.822 10.253 14.5233 10.253H12.6565V14.393Z" fill="white"/>
</svg>
