<svg width="28" height="28" viewBox="0 0 28 28" fill="none" xmlns="http://www.w3.org/2000/svg">
<path d="M14.105 26.21C20.7369 26.21 26.2121 20.7273 26.2121 14.105C26.2121 7.47312 20.7273 2 14.0954 2C7.47523 2 2 7.47312 2 14.105C2 20.7273 7.48484 26.21 14.105 26.21Z" fill="black"/>
<path d="M9.40039 19.1509V9.78475C9.40039 9.05444 9.83773 8.64359 10.5723 8.64359H12.819C14.8536 8.64359 15.7714 9.55062 15.7714 11.7198V15.9226C15.7714 16.3754 15.5028 16.6515 15.0798 16.6515C14.6684 16.6515 14.3806 16.3754 14.3806 15.9226V12.091C14.3806 10.8378 13.8739 10.4743 12.6678 10.4743H11.0813V19.1391C11.0813 19.673 10.76 20.0295 10.258 20.0295C9.75172 20.0295 9.40039 19.6848 9.40039 19.1509ZM12.058 18.7721V12.6076C12.058 12.1569 12.3437 11.8883 12.7667 11.8883C13.1705 11.8883 13.4445 12.1569 13.4445 12.6076V18.0709H15.0847C16.3428 18.0709 16.7363 17.7824 16.7363 16.3789V9.40389C16.7363 8.86038 17.0609 8.52312 17.5768 8.52312C18.0905 8.52312 18.4098 8.86999 18.4098 9.40389V16.5118C18.4098 18.9566 17.4854 19.8995 15.3945 19.8995H13.201C12.4707 19.8995 12.058 19.5066 12.058 18.7721Z" fill="white"/>
</svg>
