<svg width="28" height="28" viewBox="0 0 28 28" fill="none" xmlns="http://www.w3.org/2000/svg">
<path d="M5.34483 17.6139C5.74866 17.6139 6.07818 17.4717 6.32803 17.2017L15.0503 8.15245H13.63L22.3502 17.2017C22.6021 17.4642 22.9316 17.6139 23.3334 17.6139C24.1042 17.6139 24.6782 17.0156 24.6782 16.2543C24.6782 15.8969 24.561 15.5981 24.2901 15.3049L15.3674 6.04146C15.0848 5.74404 14.7456 5.58771 14.3439 5.58771C13.9443 5.58771 13.6052 5.73443 13.3129 6.04146L4.38812 15.3049C4.10758 15.5981 4 15.8969 4 16.2543C4 17.0156 4.5857 17.6139 5.34483 17.6139ZM5.65163 5.62076H23.0116C23.7812 5.62076 24.3149 5.05733 24.3149 4.30663C24.3149 3.55382 23.7812 3 23.0116 3H5.65163C4.89156 3 4.36539 3.55804 4.36539 4.30663C4.36539 5.05733 4.89156 5.62076 5.65163 5.62076Z" fill="black"/>
</svg>
