<svg width="28" height="28" viewBox="0 0 28 28" fill="none" xmlns="http://www.w3.org/2000/svg">
<path d="M5.52162 21.7323V6.2464C5.52162 5.52312 4.98678 5 4.25601 5C3.53695 5 3 5.52312 3 6.2464V21.7323C3 22.4459 3.53695 22.9594 4.25601 22.9594C4.98678 22.9594 5.52162 22.4459 5.52162 21.7323ZM24.0028 13.9845C24.0028 13.22 23.4776 12.6957 22.7079 12.6957H11.8L9.33019 12.8169L12.7626 9.68608L15.1373 7.26873C15.3787 7.03694 15.5285 6.71139 15.5285 6.34788C15.5285 5.64382 14.9892 5.11531 14.2652 5.11531C13.9258 5.11531 13.6165 5.25359 13.3303 5.53437L5.90881 13.021C5.6449 13.2891 5.48858 13.6177 5.48858 13.9845C5.48858 14.3417 5.6449 14.6799 5.90881 14.9384L13.3303 22.423C13.6165 22.7016 13.9258 22.8324 14.2652 22.8324C14.9892 22.8324 15.5285 22.3135 15.5285 21.6074C15.5285 21.2438 15.3808 20.9225 15.1373 20.679L12.7626 18.2734L9.32058 15.1522L11.8 15.2637H22.7079C23.4776 15.2637 24.0028 14.7394 24.0028 13.9845Z" fill="black"/>
</svg>
