<svg width="31" height="28" viewBox="0 0 31 28" fill="none" xmlns="http://www.w3.org/2000/svg">
<path d="M1.2021 22.3746H5.02171C5.68452 22.3746 6.24092 21.8182 6.24092 21.1671C6.24092 20.5256 5.6728 19.9671 5.02171 19.9671H1.2021C0.558512 19.9671 0 20.5235 0 21.1671C0 21.8086 0.558512 22.3746 1.2021 22.3746ZM8.72108 14.7529C9.18279 14.2912 9.17318 13.5232 8.71147 13.0615L6.03585 10.3432C5.56991 9.88898 4.78687 9.88898 4.33054 10.3432C3.86883 10.8028 3.87094 11.5708 4.33476 12.0422L7.0221 14.7605C7.47632 15.2243 8.25936 15.2243 8.72108 14.7529ZM15.3021 12.2217C15.9478 12.2217 16.5 11.677 16.5 11.0334V7.21382C16.5 6.5564 15.9457 6 15.3021 6C14.651 6 14.0946 6.56062 14.0946 7.21382V11.0334C14.0946 11.677 14.6489 12.2217 15.3021 12.2217ZM21.8789 14.7529C22.3331 15.2243 23.114 15.2243 23.5682 14.7508L26.2673 12.0422C26.729 11.5708 26.7311 10.8028 26.2694 10.3432C25.8056 9.87937 25.0204 9.88898 24.5662 10.3528L21.8789 13.0615C21.4076 13.5232 21.4076 14.2912 21.8789 14.7529ZM25.5686 22.3746H29.4C30.0436 22.3746 30.5903 21.8086 30.5903 21.1671C30.5903 20.5235 30.0436 19.9671 29.4 19.9671H25.5686C24.9175 19.9671 24.359 20.5256 24.359 21.1671C24.359 21.8182 24.9058 22.3746 25.5686 22.3746Z" fill="black"/>
<path d="M10.7889 22.4749H19.8114C20.5227 22.4749 21.1171 21.8805 21.1171 21.1863C21.1171 20.4825 20.5324 19.8881 19.8114 19.8881H10.7889C10.068 19.8881 9.47363 20.4825 9.47363 21.1863C9.47363 21.8805 10.0776 22.4749 10.7889 22.4749Z" fill="black"/>
</svg>
