<svg width="28" height="28" viewBox="0 0 28 28" fill="none" xmlns="http://www.w3.org/2000/svg">
<path d="M23.1432 15.2216C23.1432 14.5081 22.6243 13.9806 21.9181 13.9806C21.5546 13.9806 21.2387 14.1186 21.009 14.3504L18.3519 16.9754L14.4413 21.3362L15.2115 21.7203L15.3519 17.9012V3.33336C15.3519 2.57329 14.8276 2.03845 14.0726 2.03845C13.3177 2.03845 12.7934 2.57329 12.7934 3.33336V17.9012L12.9338 21.7203L13.7136 21.3362L9.79342 16.9754L7.1342 14.3504C6.91202 14.1186 6.58858 13.9806 6.22507 13.9806C5.5189 13.9806 5 14.5081 5 15.2216C5 15.564 5.13289 15.8712 5.39984 16.1478L13.1187 23.8859C13.373 24.152 13.7185 24.2944 14.0726 24.2944C14.4268 24.2944 14.7701 24.152 15.0265 23.8859L22.7508 16.1478C23.0199 15.8712 23.1432 15.564 23.1432 15.2216ZM23.1432 25.5505C23.1432 24.8293 22.6276 24.2944 21.916 24.2944H6.2464C5.52312 24.2944 5 24.8293 5 25.5505C5 26.2716 5.52312 26.8161 6.2464 26.8161H21.916C22.6276 26.8161 23.1432 26.2716 23.1432 25.5505Z" fill="black"/>
</svg>
