<svg width="28" height="29" viewBox="0 0 28 29" fill="none" xmlns="http://www.w3.org/2000/svg">
<path d="M3.09093 8.58891C3.09093 9.35601 3.6314 10.0753 4.66897 10.0753H23.6878C24.735 10.0753 25.2637 9.35601 25.2637 8.58891C25.2637 8.06133 25.0287 7.50399 24.4894 7.11563L15.8794 0.627888C15.307 0.208593 14.7518 0 14.1773 0C13.6029 0 13.0498 0.208593 12.4774 0.627888L3.86741 7.11563C3.33562 7.50399 3.09093 8.06133 3.09093 8.58891ZM3 14.0137C3 14.7159 3.51679 15.24 4.24452 15.24H24.1165C24.8463 15.24 25.361 14.7201 25.361 14.0137C25.361 13.2968 24.8484 12.7758 24.1165 12.7758H4.24452C3.51468 12.7758 3 13.3031 3 14.0137ZM3.06211 19.4386C3.06211 19.9661 3.29718 20.5235 3.83859 20.9097L12.4486 27.3975C13.0209 27.8168 13.5741 28.0254 14.1485 28.0254C14.723 28.0254 15.2782 27.8168 15.8505 27.3975L24.4605 20.9097C24.9998 20.5235 25.2349 19.9661 25.2349 19.4386C25.2349 18.6597 24.7062 17.9405 23.659 17.9405H4.64015C3.60257 17.9405 3.06211 18.6597 3.06211 19.4386Z" fill="black"/>
</svg>
