<svg width="28" height="28" viewBox="0 0 28 28" fill="none" xmlns="http://www.w3.org/2000/svg">
<path d="M10.592 18.7096H18.372C20.038 18.7096 20.9347 17.7529 20.9347 16.1659V14.2612H25.1314C26.1568 14.2612 26.964 13.6469 26.964 12.7044C26.964 12.1431 26.6785 11.6589 26.1322 11.1892L16.1112 2.43414C15.5199 1.93422 15.0547 1.6593 14.483 1.6593C13.9093 1.6593 13.4441 1.93422 12.8527 2.43414L2.8318 11.1988C2.26625 11.6877 2 12.1431 2 12.7044C2 13.6469 2.80719 14.2612 3.83257 14.2612H8.0293V16.1659C8.0293 17.7529 8.92602 18.7096 10.592 18.7096ZM10.9967 16.6637C10.6158 16.6637 10.3449 16.4024 10.3449 16.0119V12.618C10.3449 12.3346 10.2458 12.2259 9.9528 12.2259H5.22638C5.15279 12.2259 5.10802 12.1928 5.10802 12.1363C5.10802 12.0873 5.13568 12.0426 5.18888 11.9915L14.258 4.23109C14.3434 4.14788 14.4094 4.11695 14.4851 4.11695C14.5609 4.11695 14.6248 4.14788 14.7102 4.23109L23.7772 11.9915C23.8325 12.0426 23.8581 12.0873 23.8581 12.1363C23.8581 12.1928 23.8154 12.2259 23.7397 12.2259H19.0175C18.732 12.2259 18.6254 12.3346 18.6254 12.618V16.0119C18.6254 16.3928 18.3427 16.6637 17.9715 16.6637H10.9967ZM10.1809 26.5136H18.6945C20.113 26.5136 20.9581 25.7066 20.9581 24.2797V22.547C20.9581 21.1337 20.113 20.2844 18.6945 20.2844H10.1809C8.77203 20.2844 7.92688 21.1433 7.92688 22.547V24.2797C7.92688 25.697 8.77203 26.5136 10.1809 26.5136ZM10.655 24.5617C10.2934 24.5617 10.1014 24.3676 10.1014 24.006V22.8208C10.1014 22.4591 10.2934 22.2362 10.655 22.2362H18.2204C18.582 22.2362 18.7836 22.4591 18.7836 22.8208V24.006C18.7836 24.3676 18.582 24.5617 18.2204 24.5617H10.655Z" fill="black"/>
</svg>
