<svg width="28" height="28" viewBox="0 0 28 28" fill="none" xmlns="http://www.w3.org/2000/svg">
<path d="M22.7254 24.8972C25.2548 24.8972 26.5696 23.6923 26.5696 21.1821V6.82921C26.5696 4.31695 25.2548 3.02344 22.7254 3.02344H12.5882C11.0188 3.02344 9.86899 3.40664 8.81524 4.55906L2.18289 11.6065C1.33047 12.5203 1 13.2002 1 13.9448C1 14.6819 1.32719 15.3757 2.18289 16.2874L8.82696 23.3018C9.89032 24.4488 11.0263 24.8876 12.5957 24.8876L22.7254 24.8972Z" fill="black"/>
<path d="M12.1046 18.9185C11.4875 18.9185 10.999 18.4301 10.999 17.7991C10.999 17.5118 11.1193 17.2416 11.3225 17.0309L14.3905 13.9725L11.3225 10.9024C11.1193 10.6917 10.999 10.4215 10.999 10.1341C10.999 9.51492 11.4875 9.0361 12.1046 9.0361C12.4205 9.0361 12.6673 9.15 12.8844 9.35743L15.9535 12.417L19.044 9.34782C19.2706 9.12118 19.5153 9.01477 19.8238 9.01477C20.4388 9.01477 20.9197 9.50532 20.9197 10.1149C20.9197 10.4119 20.8283 10.6629 20.5941 10.8928L17.5304 13.9725L20.5845 17.0213C20.8091 17.232 20.9101 17.5022 20.9101 17.7991C20.9101 18.4301 20.4291 18.9185 19.8024 18.9185C19.4865 18.9185 19.2109 18.8025 19.0035 18.5972L15.9535 15.5301L12.9132 18.5972C12.6962 18.8025 12.4205 18.9185 12.1046 18.9185Z" fill="white"/>
</svg>
