<svg width="28" height="28" viewBox="0 0 28 28" fill="none" xmlns="http://www.w3.org/2000/svg">
<path d="M10.0958 25.098H17.4803C19.2011 25.098 20.1433 24.0886 20.1433 22.4468V17.3276H24.7555C25.7966 17.3276 26.5762 16.7037 26.5762 15.7498C26.5762 15.1568 26.2928 14.7361 25.8013 14.2404L15.3166 3.74226C14.8384 3.26625 14.338 3 13.7833 3C13.2381 3 12.7281 3.26625 12.2596 3.74226L1.77273 14.2404C1.25242 14.7574 1 15.1547 1 15.7498C1 16.7037 1.77953 17.3276 2.8089 17.3276H7.43289V22.4468C7.43289 24.0886 8.37508 25.098 10.0958 25.098Z" fill="black"/>
</svg>
