<svg width="28" height="28" viewBox="0 0 28 28" fill="none" xmlns="http://www.w3.org/2000/svg">
<path d="M15.1831 23.1432C15.5234 23.1432 15.8307 23.0199 16.1094 22.7508L23.8475 15.0265C24.1114 14.7701 24.256 14.4268 24.256 14.0726C24.256 13.7281 24.1114 13.3848 23.8475 13.1187L16.1094 5.39984C15.8307 5.13289 15.5234 5 15.1831 5C14.4697 5 13.94 5.52851 13.94 6.22507C13.94 6.58858 14.0781 6.91202 14.312 7.14381L16.937 9.79342L21.2978 13.7136L21.6819 12.9434L17.8607 12.7934H3.2928C2.52312 12.7934 2 13.3177 2 14.0726C2 14.8276 2.52312 15.3615 3.2928 15.3615H17.8607L21.6819 15.2115L21.2978 14.4509L16.937 18.3519L14.312 21.009C14.0781 21.2387 13.94 21.5642 13.94 21.9181C13.94 22.6243 14.4697 23.1432 15.1831 23.1432ZM25.512 23.1432C26.2311 23.1432 26.7776 22.6276 26.7776 21.916V6.25601C26.7776 5.53273 26.2311 5 25.512 5C24.7909 5 24.256 5.53273 24.256 6.25601V21.916C24.256 22.6276 24.7909 23.1432 25.512 23.1432Z" fill="black"/>
</svg>
