<svg width="28" height="28" viewBox="0 0 28 28" fill="none" xmlns="http://www.w3.org/2000/svg">
<path d="M14.0814 26.2025C20.7133 26.2025 26.1886 20.7198 26.1886 14.0975C26.1886 7.4213 20.7541 2.23246 14.5495 2.01684C13.72 1.97231 13.1306 2.44012 13.1306 3.16645C13.1306 3.82363 13.5921 4.33972 14.3582 4.37581C19.5633 4.57901 23.7944 8.67379 23.804 14.0975C23.8136 19.4916 19.4777 23.818 14.0814 23.818C8.46136 23.818 4.43597 19.2826 4.38113 14.2163C4.36425 13.4501 3.82683 12.9887 3.17176 12.9887C2.44333 12.9887 1.97763 13.5664 2.00083 14.4076C2.09903 20.6816 7.417 26.2025 14.0814 26.2025Z" fill="black"/>
<path d="M13.1375 14.5829C13.828 14.5871 14.3312 14.0701 14.3312 13.3871C14.3312 13.0754 14.1971 12.752 13.9524 12.5094L7.97659 6.54526L5.85737 4.6869C7.01683 4.82987 8.47394 4.82869 9.03551 4.82869C9.62613 4.82869 10.1092 4.33182 10.1092 3.7412C10.1092 3.14214 9.63035 2.6612 9.03551 2.6612L3.79699 2.65698C2.90543 2.65698 2.42871 3.13042 2.42871 4.01776V9.25206C2.42871 9.85323 2.91715 10.3299 3.51082 10.3299C4.09183 10.3299 4.5791 9.85323 4.5791 9.25206C4.5791 8.71393 4.57488 7.16494 4.46824 6.08236L6.29473 8.20275L12.279 14.1945C12.5354 14.4509 12.8258 14.5808 13.1375 14.5829Z" fill="black"/>
</svg>
