<svg width="28" height="28" viewBox="0 0 28 28" fill="none" xmlns="http://www.w3.org/2000/svg">
<path d="M14.105 25.915C20.7369 25.915 26.2121 20.4323 26.2121 13.81C26.2121 10.263 24.6348 7.16054 22.4396 5.10132C21.2333 3.93812 19.5589 5.52038 20.783 6.76303C22.6592 8.52459 23.8159 11.0207 23.8276 13.81C23.8372 19.2041 19.4991 23.5305 14.105 23.5305C8.71085 23.5305 4.39412 19.2041 4.39412 13.81C4.40373 10.9994 5.56249 8.51498 7.42905 6.75342C8.6628 5.50116 6.97883 3.92852 5.7704 5.09171C3.56563 7.15093 2 10.263 2 13.81C2 20.4323 7.48484 25.915 14.105 25.915ZM14.105 13.8405C14.8215 13.8405 15.3052 13.3269 15.3052 12.5765V2.26186C15.3052 1.5039 14.8215 1 14.105 1C13.3906 1 12.9165 1.5039 12.9165 2.26186V12.5765C12.9165 13.3269 13.3906 13.8405 14.105 13.8405Z" fill="black"/>
</svg>
