<svg width="28" height="28" viewBox="0 0 28 28" fill="none" xmlns="http://www.w3.org/2000/svg">
<path d="M4.84632 24.8972L14.976 24.8876C16.5454 24.8876 17.691 24.4488 18.7448 23.3018L25.3888 16.2874C26.2445 15.3757 26.5696 14.6819 26.5696 13.9448C26.5696 13.2002 26.2487 12.5203 25.3888 11.6065L18.7544 4.55906C17.7027 3.40664 16.5529 3.02344 14.9835 3.02344H4.84632C2.32445 3.02344 1 4.31695 1 6.82921V21.1821C1 23.6923 2.32445 24.8972 4.84632 24.8972Z" fill="black"/>
<path d="M7.79124 18.9185C7.17413 18.9185 6.69531 18.4301 6.69531 17.7991C6.69531 17.5118 6.80593 17.2416 7.02085 17.0309L10.0771 13.9725L7.02085 10.9024C6.80593 10.6917 6.69531 10.4215 6.69531 10.1341C6.69531 9.51492 7.17413 9.0361 7.79124 9.0361C8.10928 9.0361 8.35397 9.15 8.571 9.35743L11.6401 12.417L14.7306 9.34782C14.9572 9.12118 15.2115 9.01477 15.5104 9.01477C16.1275 9.01477 16.6159 9.50532 16.6159 10.1149C16.6159 10.4119 16.5149 10.6629 16.2904 10.8928L13.217 13.9725L16.2807 17.0213C16.4957 17.232 16.6063 17.5022 16.6063 17.7991C16.6063 18.4301 16.1179 18.9185 15.4911 18.9185C15.1827 18.9185 14.8975 18.8025 14.6922 18.5972L11.6401 15.5301L8.59983 18.5972C8.38491 18.8025 8.10928 18.9185 7.79124 18.9185Z" fill="white"/>
</svg>
