<svg width="28" height="28" viewBox="0 0 28 28" fill="none" xmlns="http://www.w3.org/2000/svg">
<path d="M14.105 26.2301C20.7369 26.2301 26.2121 20.7549 26.2121 14.123C26.2121 7.50291 20.7273 2.01807 14.0954 2.01807C7.47523 2.01807 2 7.50291 2 14.123C2 20.7549 7.48484 26.2301 14.105 26.2301Z" fill="black"/>
<path d="M11.2691 13.1354H10.4406C8.98984 13.1354 7.82031 11.9755 7.82031 10.546C7.82031 9.09104 8.98984 7.92151 10.4406 7.92151C11.8701 7.92151 13.0534 9.10697 13.0534 10.546V11.3757H15.0201V10.546C15.0201 9.10697 16.1938 7.92151 17.6329 7.92151C19.0741 7.92151 20.2436 9.09104 20.2436 10.546C20.2436 11.9755 19.0741 13.1354 17.6329 13.1354H16.7948V15.1266H17.6329C19.0741 15.1266 20.2436 16.2866 20.2436 17.7256C20.2436 19.171 19.0741 20.3405 17.6329 20.3405C16.1938 20.3405 15.0201 19.1551 15.0201 17.7256V16.8959H13.0534V17.7256C13.0534 19.1551 11.8701 20.3405 10.4406 20.3405C8.98984 20.3405 7.82031 19.171 7.82031 17.7256C7.82031 16.2866 8.98984 15.1266 10.4406 15.1266H11.2691V13.1354ZM13.0281 15.1637H15.0454V13.0983H13.0281V15.1637ZM10.4617 11.4149H11.2923V10.5629C11.2923 10.0738 10.9075 9.67299 10.4406 9.67299C9.96835 9.67299 9.57179 10.0695 9.57179 10.546C9.57179 11.0183 9.96296 11.4149 10.4617 11.4149ZM17.6118 11.4149C18.101 11.4149 18.5017 11.0183 18.5017 10.546C18.5017 10.0695 18.0956 9.67299 17.6329 9.67299C17.1564 9.67299 16.7737 10.0738 16.7737 10.5629V11.4149H17.6118ZM10.4617 16.8472C9.97257 16.8472 9.57179 17.2437 9.57179 17.716C9.57179 18.1925 9.95874 18.5891 10.4406 18.5891C10.9075 18.5891 11.2923 18.1883 11.2923 17.6991V16.8472H10.4617ZM17.6118 16.8472H16.7737V17.6991C16.7737 18.1883 17.1564 18.5891 17.6329 18.5891C18.1052 18.5891 18.5017 18.1925 18.5017 17.716C18.5017 17.2437 18.0913 16.8472 17.6118 16.8472Z" fill="white"/>
</svg>
