<svg width="28" height="28" viewBox="0 0 28 28" fill="none" xmlns="http://www.w3.org/2000/svg">
<path d="M22.7254 24.8972C25.2548 24.8972 26.5696 23.6923 26.5696 21.1821V6.82921C26.5696 4.31695 25.2548 3.02344 22.7254 3.02344H12.5882C11.0188 3.02344 9.86899 3.40664 8.81524 4.55906L2.18289 11.6065C1.33047 12.5203 1 13.2002 1 13.9448C1 14.6819 1.32719 15.3757 2.18289 16.2874L8.82696 23.3018C9.89032 24.4488 11.0263 24.8876 12.5957 24.8876L22.7254 24.8972ZM22.5923 22.6013H12.4994C11.6784 22.6013 11.1571 22.3945 10.5761 21.7913L3.97467 14.8259C3.62686 14.4684 3.52233 14.2083 3.52233 13.9448C3.52233 13.6697 3.63436 13.418 3.97467 13.0563L10.5665 6.06538C11.1358 5.4717 11.6784 5.31936 12.4898 5.31936H22.5923C23.6819 5.31936 24.2737 5.88139 24.2737 7.01999V20.8985C24.2737 22.0371 23.6819 22.6013 22.5923 22.6013Z" fill="black"/>
<path d="M12.0984 18.8819C12.3984 18.8819 12.6581 18.7702 12.8592 18.5573L15.9532 15.458L19.0472 18.5573C19.2483 18.7605 19.508 18.8819 19.8176 18.8819C20.4028 18.8819 20.8732 18.4041 20.8732 17.8167C20.8732 17.524 20.7551 17.2697 20.5561 17.0707L17.4579 13.9725L20.5657 10.8529C20.7743 10.6347 20.8828 10.3997 20.8828 10.1186C20.8828 9.52169 20.4124 9.06091 19.8293 9.06091C19.5389 9.06091 19.2985 9.15349 19.076 9.37591L15.9532 12.487L12.84 9.38552C12.6389 9.17482 12.3984 9.08013 12.0984 9.08013C11.5132 9.08013 11.0449 9.5313 11.0449 10.1283C11.0449 10.4093 11.1513 10.6636 11.3599 10.8625L14.4603 13.9725L11.3599 17.0803C11.1513 17.2697 11.0449 17.5336 11.0449 17.8167C11.0449 18.4041 11.5132 18.8819 12.0984 18.8819Z" fill="black"/>
</svg>
