<svg width="30" height="28" viewBox="0 0 30 28" fill="none" xmlns="http://www.w3.org/2000/svg">
<path d="M3.84421 23.948H25.9999C28.5218 23.948 29.8462 22.6449 29.8462 20.1423V8.79616C29.8462 6.30523 28.5218 5 25.9999 5H3.84421C1.30523 5 0 6.29562 0 8.79616V20.1423C0 22.6449 1.30523 23.948 3.84421 23.948ZM3.97733 21.6521C2.88772 21.6521 2.29592 21.0805 2.29592 19.9419V8.99866C2.29592 7.85795 2.88772 7.29592 3.97733 7.29592H25.8572C26.9393 7.29592 27.5503 7.85795 27.5503 8.99866V19.9419C27.5503 21.0805 26.9393 21.6521 25.8572 21.6521H3.97733Z" fill="black"/>
<path d="M4.9425 11.7992H5.7907C6.00258 11.7992 6.13992 11.6523 6.13992 11.4137V10.059C6.13992 9.82252 6.00258 9.67346 5.7907 9.67346H4.9425C4.72312 9.67346 4.57617 9.82252 4.57617 10.059V11.4137C4.57617 11.6523 4.72312 11.7992 4.9425 11.7992ZM7.47844 11.7992H8.31703C8.53852 11.7992 8.67586 11.6523 8.67586 11.4137V10.059C8.67586 9.82252 8.53852 9.67346 8.31703 9.67346H7.47844C7.24734 9.67346 7.11 9.82252 7.11 10.059V11.4137C7.11 11.6523 7.24734 11.7992 7.47844 11.7992ZM10.0048 11.7992H10.853C11.0628 11.7992 11.2001 11.6523 11.2001 11.4137V10.059C11.2001 9.82252 11.0628 9.67346 10.853 9.67346H10.0048C9.78328 9.67346 9.63633 9.82252 9.63633 10.059V11.4137C9.63633 11.6523 9.78328 11.7992 10.0048 11.7992ZM12.529 11.7992H13.3676C13.5891 11.7992 13.736 11.6523 13.736 11.4137V10.059C13.736 9.82252 13.5891 9.67346 13.3676 9.67346H12.529C12.3096 9.67346 12.1723 9.82252 12.1723 10.059V11.4137C12.1723 11.6523 12.3096 11.7992 12.529 11.7992ZM15.0722 11.7992H15.9132C16.125 11.7992 16.2624 11.6523 16.2624 11.4137V10.059C16.2624 9.82252 16.125 9.67346 15.9132 9.67346H15.0722C14.8423 9.67346 14.6965 9.82252 14.6965 10.059V11.4137C14.6965 11.6523 14.8423 11.7992 15.0722 11.7992ZM17.6009 11.7992H18.4299C18.6492 11.7992 18.7962 11.6523 18.7962 11.4137V10.059C18.7962 9.82252 18.6492 9.67346 18.4299 9.67346H17.6009C17.3698 9.67346 17.2324 9.82252 17.2324 10.059V11.4137C17.2324 11.6523 17.3698 11.7992 17.6009 11.7992ZM4.9425 15.523H5.7907C6.00258 15.523 6.13992 15.3856 6.13992 15.1374V13.7924C6.13992 13.5442 6.00258 13.4068 5.7907 13.4068H4.9425C4.72312 13.4068 4.57617 13.5442 4.57617 13.7924V15.1374C4.57617 15.3856 4.72312 15.523 4.9425 15.523ZM7.47844 15.523H8.31703C8.53852 15.523 8.67586 15.3856 8.67586 15.1374V13.7924C8.67586 13.5442 8.53852 13.4068 8.31703 13.4068H7.47844C7.24734 13.4068 7.11 13.5442 7.11 13.7924V15.1374C7.11 15.3856 7.24734 15.523 7.47844 15.523ZM10.0048 15.523H10.853C11.0628 15.523 11.2001 15.3856 11.2001 15.1374V13.7924C11.2001 13.5442 11.0628 13.4068 10.853 13.4068H10.0048C9.78328 13.4068 9.63633 13.5442 9.63633 13.7924V15.1374C9.63633 15.3856 9.78328 15.523 10.0048 15.523ZM12.529 15.523H13.3676C13.5891 15.523 13.736 15.3856 13.736 15.1374V13.7924C13.736 13.5442 13.5891 13.4068 13.3676 13.4068H12.529C12.3096 13.4068 12.1723 13.5442 12.1723 13.7924V15.1374C12.1723 15.3856 12.3096 15.523 12.529 15.523ZM15.0722 15.523H15.9132C16.125 15.523 16.2624 15.3856 16.2624 15.1374V13.7924C16.2624 13.5442 16.125 13.4068 15.9132 13.4068H15.0722C14.8423 13.4068 14.6965 13.5442 14.6965 13.7924V15.1374C14.6965 15.3856 14.8423 15.523 15.0722 15.523ZM17.6009 15.523H18.4299C18.6492 15.523 18.7962 15.3856 18.7962 15.1374V13.7924C18.7962 13.5442 18.6492 13.4068 18.4299 13.4068H17.6009C17.3698 13.4068 17.2324 13.5442 17.2324 13.7924V15.1374C17.2324 15.3856 17.3698 15.523 17.6009 15.523ZM4.9425 19.2563H5.7907C6.00258 19.2563 6.13992 19.1094 6.13992 18.8708V17.5161C6.13992 17.2775 6.00258 17.1305 5.7907 17.1305H4.9425C4.72312 17.1305 4.57617 17.2775 4.57617 17.5161V18.8708C4.57617 19.1094 4.72312 19.2563 4.9425 19.2563ZM7.47844 19.2563H15.9132C16.125 19.2563 16.2624 19.1094 16.2624 18.8708V17.5161C16.2624 17.2775 16.125 17.1305 15.9132 17.1305H7.47844C7.24734 17.1305 7.11 17.2775 7.11 17.5161V18.8708C7.11 19.1094 7.24734 19.2563 7.47844 19.2563ZM17.6009 19.2563H18.4299C18.6492 19.2563 18.7962 19.1094 18.7962 18.8708V17.5161C18.7962 17.2775 18.6492 17.1305 18.4299 17.1305H17.6009C17.3698 17.1305 17.2324 17.2775 17.2324 17.5161V18.8708C17.2324 19.1094 17.3698 19.2563 17.6009 19.2563ZM20.7746 13.7872C20.3199 14.2079 20.3199 14.7327 20.7746 15.1512L24.0858 18.2595C24.5264 18.6619 25.223 18.4885 25.223 17.8388V11.0996C25.223 10.4617 24.5264 10.2861 24.0858 10.6885L20.7746 13.7872Z" fill="black"/>
</svg>
