<svg width="28" height="28" viewBox="0 0 28 28" fill="none" xmlns="http://www.w3.org/2000/svg">
<path d="M13.9845 3C13.22 3 12.6978 3.53273 12.6978 4.30241V15.2124L12.8169 17.6897L9.68819 14.2381L7.28045 11.8634C7.03694 11.6295 6.72522 11.4818 6.36171 11.4818C5.64593 11.4818 5.12703 12.0115 5.12703 12.7472C5.12703 13.0748 5.26742 13.3959 5.53648 13.68L13.0306 21.0919C13.2891 21.3558 13.6198 21.5142 13.9845 21.5142C14.3417 21.5142 14.6799 21.3558 14.9384 21.0919L22.4251 13.68C22.7059 13.3959 22.8462 13.0748 22.8462 12.7472C22.8462 12.0115 22.3177 11.4818 21.6116 11.4818C21.2481 11.4818 20.9225 11.6337 20.6928 11.8634L18.283 14.2381L15.1522 17.6801L15.2637 15.2124V4.30241C15.2637 3.53273 14.7394 3 13.9845 3ZM6.22718 21.4887C5.51351 21.4887 5 22.0256 5 22.7447C5 23.4658 5.51351 24.0103 6.22718 24.0103H21.7131C22.4363 24.0103 22.9616 23.4658 22.9616 22.7447C22.9616 22.0256 22.4363 21.4887 21.7131 21.4887H6.22718Z" fill="black"/>
</svg>
