<svg width="28" height="28" viewBox="0 0 28 28" fill="none" xmlns="http://www.w3.org/2000/svg">
<path d="M7 23.3334C7 24.0925 7.61007 24.6878 8.36921 24.6878C8.71913 24.6878 9.02545 24.5802 9.31865 24.2901L18.5725 15.3653C18.8795 15.073 19.0283 14.7435 19.0283 14.3439C19.0283 13.9422 18.8795 13.6031 18.5821 13.3204L9.31865 4.38812C9.01584 4.11719 8.71913 4 8.3596 4C7.61007 4 7 4.58359 7 5.35444C7 5.74655 7.14976 6.08779 7.42187 6.33764L16.4615 15.0482V13.63L7.42187 22.3502C7.15187 22.6096 7 22.9391 7 23.3334ZM19.0028 23.392C19.0028 24.152 19.5566 24.6878 20.3094 24.6878C21.0559 24.6878 21.6235 24.152 21.6235 23.392V5.31296C21.6235 4.54328 21.0622 4 20.3094 4C19.5566 4 19.0028 4.54328 19.0028 5.31296V23.392Z" fill="black"/>
</svg>
