<svg width="28" height="28" viewBox="0 0 28 28" fill="none" xmlns="http://www.w3.org/2000/svg">
<path d="M9.53273 11.6601V16.6772L7.33968 16.6793C4.94461 16.6835 3 18.5716 3 20.9763C3 23.3768 4.9425 25.3256 7.34179 25.3256C9.73265 25.3256 11.6772 23.3747 11.6772 20.9763V18.8034H16.6472V20.9763C16.6472 23.3747 18.5939 25.3256 20.9827 25.3256C23.3841 25.3256 25.3244 23.3768 25.3244 20.9763C25.3244 18.5716 23.3819 16.6835 20.9869 16.6793L18.7917 16.6772V11.6601L20.9869 11.6559C23.3819 11.6517 25.3244 9.76358 25.3244 7.3589C25.3244 4.96054 23.3841 3 20.9827 3C18.5939 3 16.6472 4.96265 16.6472 7.3589V9.53391H11.6772V7.3589C11.6772 4.96265 9.73265 3 7.34179 3C4.9425 3 3 4.96054 3 7.3589C3 9.76358 4.94461 11.6517 7.33968 11.6559L9.53273 11.6601ZM7.36921 9.55734C6.14765 9.55734 5.15717 8.56898 5.15717 7.36101C5.15717 6.15515 6.14343 5.15928 7.34179 5.15928C8.53383 5.15928 9.52641 6.15936 9.52641 7.38843V9.55734H7.36921ZM20.9552 9.55734H18.798V7.38843C18.798 6.15936 19.7906 5.15928 20.9827 5.15928C22.181 5.15928 23.1673 6.15515 23.1673 7.36101C23.1673 8.56898 22.1768 9.55734 20.9552 9.55734ZM11.6815 16.6964V11.6388H16.6451V16.6964H11.6815ZM7.36921 18.7683H9.52641V20.9372C9.52641 22.1684 8.53383 23.1567 7.34179 23.1567C6.14343 23.1567 5.15717 22.1726 5.15717 20.9646C5.15717 19.7566 6.14765 18.7683 7.36921 18.7683ZM20.9552 18.7683C22.1768 18.7683 23.1673 19.7566 23.1673 20.9646C23.1673 22.1726 22.181 23.1567 20.9827 23.1567C19.7906 23.1567 18.798 22.1684 18.798 20.9372V18.7683H20.9552Z" fill="black"/>
</svg>
