<svg width="28" height="28" viewBox="0 0 28 28" fill="none" xmlns="http://www.w3.org/2000/svg">
<path d="M14.105 26.21C20.7369 26.21 26.2121 20.7273 26.2121 14.105C26.2121 7.47312 20.7273 2 14.0954 2C7.47523 2 2 7.47312 2 14.105C2 20.7273 7.48484 26.21 14.105 26.21ZM14.105 23.8255C8.71085 23.8255 4.39412 19.4991 4.39412 14.105C4.39412 8.71085 8.70124 4.38452 14.0954 4.38452C19.4895 4.38452 23.8276 8.71085 23.8276 14.105C23.8276 19.4991 19.4991 23.8255 14.105 23.8255Z" fill="black"/>
<path d="M14.1047 20.1589C17.4288 20.1589 20.1841 17.4036 20.1841 14.0912C20.1841 12.4597 19.4721 10.8303 18.2773 9.71138C17.4054 8.86646 16.1932 10.0824 17.0705 10.9529C17.9309 11.7683 18.4181 12.8823 18.4277 14.0912C18.4277 16.4968 16.5103 18.4121 14.1047 18.4121C11.6991 18.4121 9.79335 16.4968 9.79335 14.0912C9.79335 12.8823 10.2689 11.7683 11.141 10.9433C12.0183 10.0707 10.8061 8.85474 9.94383 9.71138C8.73937 10.8207 8.02734 12.4405 8.02734 14.0912C8.02734 17.4036 10.7827 20.1589 14.1047 20.1589ZM14.1047 14.4198C14.6187 14.4198 14.9848 14.0419 14.9848 13.512V8.58708C14.9848 8.05927 14.6187 7.68896 14.1047 7.68896C13.5928 7.68896 13.2363 8.05927 13.2363 8.58708V13.512C13.2363 14.0419 13.5928 14.4198 14.1047 14.4198Z" fill="black"/>
</svg>
