<svg width="30" height="28" viewBox="0 0 30 28" fill="none" xmlns="http://www.w3.org/2000/svg">
<path d="M3.84421 23.948H25.9999C28.5218 23.948 29.8462 22.6449 29.8462 20.1423V8.79616C29.8462 6.30523 28.5218 5 25.9999 5H3.84421C1.30523 5 0 6.29562 0 8.79616V20.1423C0 22.6449 1.30523 23.948 3.84421 23.948Z" fill="black"/>
<path d="M4.5543 11.6982C4.31898 11.6982 4.16992 11.5374 4.16992 11.2989V9.88252C4.16992 9.63221 4.31898 9.48315 4.5543 9.48315H5.43227C5.65586 9.48315 5.79531 9.63221 5.79531 9.88252V11.2989C5.79531 11.5374 5.65586 11.6982 5.43227 11.6982H4.5543ZM7.18703 11.6982C6.94633 11.6982 6.80477 11.5374 6.80477 11.2989V9.88252C6.80477 9.63221 6.94633 9.48315 7.18703 9.48315H8.05539C8.2907 9.48315 8.43227 9.63221 8.43227 9.88252V11.2989C8.43227 11.5374 8.2907 11.6982 8.05539 11.6982H7.18703ZM9.81438 11.6982C9.58117 11.6982 9.43211 11.5374 9.43211 11.2989V9.88252C9.43211 9.63221 9.58117 9.48315 9.81438 9.48315H10.6923C10.918 9.48315 11.0575 9.63221 11.0575 9.88252V11.2989C11.0575 11.5374 10.918 11.6982 10.6923 11.6982H9.81438ZM12.4417 11.6982C12.2064 11.6982 12.0648 11.5374 12.0648 11.2989V9.88252C12.0648 9.63221 12.2064 9.48315 12.4417 9.48315H13.3101C13.5433 9.48315 13.6923 9.63221 13.6923 9.88252V11.2989C13.6923 11.5374 13.5433 11.6982 13.3101 11.6982H12.4417ZM15.0742 11.6982C14.8401 11.6982 14.6826 11.5374 14.6826 11.2989V9.88252C14.6826 9.63221 14.8401 9.48315 15.0742 9.48315H15.9524C16.1685 9.48315 16.3176 9.63221 16.3176 9.88252V11.2989C16.3176 11.5374 16.1685 11.6982 15.9524 11.6982H15.0742ZM17.7018 11.6982C17.4686 11.6982 17.3174 11.5374 17.3174 11.2989V9.88252C17.3174 9.63221 17.4686 9.48315 17.7018 9.48315H18.5702C18.7959 9.48315 18.9545 9.63221 18.9545 9.88252V11.2989C18.9545 11.5374 18.7959 11.6982 18.5702 11.6982H17.7018ZM4.5543 15.5687C4.31898 15.5687 4.16992 15.4292 4.16992 15.1672V13.7626C4.16992 13.5006 4.31898 13.3611 4.5543 13.3611H5.43227C5.65586 13.3611 5.79531 13.5006 5.79531 13.7626V15.1672C5.79531 15.4292 5.65586 15.5687 5.43227 15.5687H4.5543ZM7.18703 15.5687C6.94633 15.5687 6.80477 15.4292 6.80477 15.1672V13.7626C6.80477 13.5006 6.94633 13.3611 7.18703 13.3611H8.05539C8.2907 13.3611 8.43227 13.5006 8.43227 13.7626V15.1672C8.43227 15.4292 8.2907 15.5687 8.05539 15.5687H7.18703ZM9.81438 15.5687C9.58117 15.5687 9.43211 15.4292 9.43211 15.1672V13.7626C9.43211 13.5006 9.58117 13.3611 9.81438 13.3611H10.6923C10.918 13.3611 11.0575 13.5006 11.0575 13.7626V15.1672C11.0575 15.4292 10.918 15.5687 10.6923 15.5687H9.81438ZM12.4417 15.5687C12.2064 15.5687 12.0648 15.4292 12.0648 15.1672V13.7626C12.0648 13.5006 12.2064 13.3611 12.4417 13.3611H13.3101C13.5433 13.3611 13.6923 13.5006 13.6923 13.7626V15.1672C13.6923 15.4292 13.5433 15.5687 13.3101 15.5687H12.4417ZM15.0742 15.5687C14.8401 15.5687 14.6826 15.4292 14.6826 15.1672V13.7626C14.6826 13.5006 14.8401 13.3611 15.0742 13.3611H15.9524C16.1685 13.3611 16.3176 13.5006 16.3176 13.7626V15.1672C16.3176 15.4292 16.1685 15.5687 15.9524 15.5687H15.0742ZM17.7018 15.5687C17.4686 15.5687 17.3174 15.4292 17.3174 15.1672V13.7626C17.3174 13.5006 17.4686 13.3611 17.7018 13.3611H18.5702C18.7959 13.3611 18.9545 13.5006 18.9545 13.7626V15.1672C18.9545 15.4292 18.7959 15.5687 18.5702 15.5687H17.7018ZM4.5543 19.4466C4.31898 19.4466 4.16992 19.2976 4.16992 19.0473V17.6309C4.16992 17.3923 4.31898 17.2316 4.5543 17.2316H5.43227C5.65586 17.2316 5.79531 17.3923 5.79531 17.6309V19.0473C5.79531 19.2976 5.65586 19.4466 5.43227 19.4466H4.5543ZM7.18703 19.4466C6.94633 19.4466 6.80477 19.2976 6.80477 19.0473V17.6309C6.80477 17.3923 6.94633 17.2316 7.18703 17.2316H15.9524C16.1685 17.2316 16.3176 17.3923 16.3176 17.6309V19.0473C16.3176 19.2976 16.1685 19.4466 15.9524 19.4466H7.18703ZM17.7018 19.4466C17.4686 19.4466 17.3174 19.2976 17.3174 19.0473V17.6309C17.3174 17.3923 17.4686 17.2316 17.7018 17.2316H18.5702C18.7959 17.2316 18.9545 17.3923 18.9545 17.6309V19.0473C18.9545 19.2976 18.7959 19.4466 18.5702 19.4466H17.7018ZM21.0063 13.7553L24.442 10.5481C24.8985 10.1298 25.6291 10.3074 25.6291 10.9773V17.9633C25.6291 18.6406 24.8985 18.8204 24.442 18.3999L21.0063 15.181C20.5356 14.7465 20.5356 14.192 21.0063 13.7553Z" fill="white"/>
</svg>
