<svg width="28" height="28" viewBox="0 0 28 28" fill="none" xmlns="http://www.w3.org/2000/svg">
<path d="M4.95609 10.0574H23.9557C25.7606 10.0574 25.9931 7.9701 24.8053 7.11698L16.3052 0.737049C14.9566 -0.245683 13.9552 -0.245683 12.6066 0.737049L4.10437 7.11698C2.92289 7.96799 3.14484 10.0574 4.95609 10.0574ZM7.61785 7.90425C7.37035 7.90425 7.29043 7.61198 7.4941 7.45096L13.8138 2.65914C14.171 2.39148 14.7408 2.40109 15.0884 2.65914L21.4156 7.45096C21.6214 7.61198 21.5414 7.90425 21.2939 7.90425H7.61785ZM4.19437 15.2221H24.7153C25.3683 15.2221 25.9118 14.6542 25.9118 13.9959C25.9118 13.3291 25.3704 12.7579 24.7153 12.7579H4.19437C3.54351 12.7579 3 13.3333 3 13.9959C3 14.65 3.54562 15.2221 4.19437 15.2221ZM4.95609 17.9322C3.14906 17.9322 2.91657 20.0099 4.10437 20.8726L12.6066 27.2526C13.9552 28.2374 14.9566 28.2374 16.3052 27.2526L24.8053 20.8726C25.9889 20.012 25.7669 17.9322 23.9557 17.9322H4.95609ZM7.61785 20.0854H21.2939C21.5414 20.0854 21.6214 20.3701 21.4156 20.5408L15.0884 25.3326C14.7408 25.5885 14.171 25.5981 13.8138 25.3326L7.4941 20.5408C7.29043 20.3701 7.37035 20.0854 7.61785 20.0854Z" fill="black"/>
</svg>
