<svg width="28" height="28" viewBox="0 0 28 28" fill="none" xmlns="http://www.w3.org/2000/svg">
<path d="M14.105 26.21C20.7369 26.21 26.2121 20.7273 26.2121 14.105C26.2121 7.47312 20.7273 2 14.0954 2C7.47523 2 2 7.47312 2 14.105C2 20.7273 7.48484 26.21 14.105 26.21Z" fill="black"/>
<path d="M9.42214 19.1279C8.67003 19.1279 8.22168 18.7189 8.22168 17.968V17.0586C8.22168 16.3245 8.67003 15.9029 9.42214 15.9029H18.7894C19.5415 15.9029 19.9899 16.3245 19.9899 17.0586V17.968C19.9899 18.7189 19.5415 19.1279 18.7894 19.1279H9.42214ZM9.1566 14.4195C8.6105 14.4195 8.3234 14.1153 8.29457 13.6257C8.28496 13.3979 8.39558 13.1532 8.60418 12.9509L13.227 8.02697C13.4946 7.75697 13.7768 7.57275 14.1068 7.57275C14.4347 7.57275 14.7073 7.72814 14.9845 8.02697L19.5977 12.9509C19.7967 13.1628 19.917 13.3979 19.917 13.6257C19.917 14.1153 19.5818 14.4195 19.0453 14.4195H9.1566Z" fill="white"/>
</svg>
