<svg width="28" height="28" viewBox="0 0 28 28" fill="none" xmlns="http://www.w3.org/2000/svg">
<path d="M13.9887 4.05272C14.836 4.05272 15.5066 3.37046 15.5066 2.52531C15.5066 1.67805 14.8339 1 13.9887 1C13.1319 1 12.4634 1.68226 12.4634 2.52531C12.4634 3.37257 13.1361 4.05272 13.9887 4.05272ZM13.9909 9.50288C14.836 9.50288 15.5066 8.83655 15.5066 7.98929C15.5066 7.13242 14.8381 6.46187 13.9887 6.46187C13.1361 6.46187 12.4655 7.13031 12.4655 7.98718C12.4655 8.83233 13.1382 9.50288 13.9909 9.50288ZM13.9887 14.9765C14.836 14.9765 15.5066 14.2942 15.5066 13.4491C15.5066 12.6018 14.8339 11.9237 13.9887 11.9237C13.1319 11.9237 12.4634 12.606 12.4634 13.4491C12.4634 14.2984 13.1361 14.9765 13.9887 14.9765ZM5.82476 8.95772C6.66991 8.95772 7.35006 8.28296 7.35217 7.4303C7.35428 6.58304 6.6678 5.91461 5.82476 5.91461C4.9775 5.91461 4.29523 6.58726 4.29945 7.4303C4.30156 8.28718 4.98171 8.95772 5.82476 8.95772ZM3.52742 14.289C4.37257 14.289 5.04311 13.6164 5.04311 12.7712C5.04311 11.924 4.37046 11.2438 3.52742 11.2438C2.68015 11.2438 2 11.9261 2 12.7712C2 13.6206 2.67265 14.289 3.52742 14.289ZM4.42437 19.8618C5.27163 19.8618 5.95179 19.1849 5.95179 18.344C5.95179 17.4946 5.26952 16.8166 4.42437 16.8166C3.57711 16.8166 2.89695 17.4988 2.89695 18.344C2.89695 19.1891 3.57922 19.8618 4.42437 19.8618ZM8.23765 24.3862C9.0828 24.3862 9.76296 23.7135 9.76506 22.8705C9.76717 22.0211 9.08069 21.343 8.23765 21.343C7.38828 21.343 6.71023 22.0253 6.71234 22.8705C6.71445 23.7177 7.3946 24.3862 8.23765 24.3862ZM13.9887 26.132C14.8339 26.132 15.5066 25.4519 15.5066 24.6046C15.5066 23.7594 14.836 23.0772 13.9887 23.0772C13.1361 23.0772 12.4634 23.7573 12.4634 24.6046C12.4634 25.4497 13.1319 26.132 13.9887 26.132ZM19.7302 24.3862C20.5754 24.3862 21.2534 23.7177 21.2576 22.8705C21.2598 22.0253 20.5796 21.343 19.7302 21.343C18.8893 21.343 18.2103 22.0211 18.2124 22.8705C18.2166 23.7135 18.8851 24.3862 19.7302 24.3862ZM23.5435 19.8618C24.3887 19.8618 25.0709 19.1891 25.0709 18.344C25.0709 17.4988 24.3908 16.8166 23.5435 16.8166C22.7005 16.8166 22.0182 17.4946 22.0182 18.344C22.0182 19.1849 22.6984 19.8618 23.5435 19.8618ZM24.4522 14.289C25.2952 14.289 25.9679 13.6206 25.9679 12.7712C25.9679 11.9261 25.2898 11.2438 24.4426 11.2438C23.5974 11.2438 22.9248 11.924 22.9248 12.7712C22.9248 13.6164 23.5953 14.289 24.4522 14.289ZM22.1431 8.95772C22.9883 8.95772 23.6684 8.28718 23.6705 7.4303C23.6726 6.58726 22.9904 5.91461 22.1431 5.91461C21.3022 5.91461 20.6136 6.58304 20.6178 7.4303C20.6199 8.28296 21.3001 8.95772 22.1431 8.95772Z" fill="black"/>
</svg>
