<svg width="28" height="28" viewBox="0 0 28 28" fill="none" xmlns="http://www.w3.org/2000/svg">
<path d="M10.0958 25.098H17.4803C19.2011 25.098 20.1433 24.0886 20.1433 22.4468V17.3276H24.7555C25.7966 17.3276 26.5762 16.7037 26.5762 15.7498C26.5762 15.1568 26.2928 14.7361 25.8013 14.2404L15.3166 3.74226C14.8384 3.26625 14.338 3 13.7833 3C13.2381 3 12.7281 3.26625 12.2596 3.74226L1.77273 14.2404C1.25242 14.7574 1 15.1547 1 15.7498C1 16.7037 1.77953 17.3276 2.8089 17.3276H7.43289V22.4468C7.43289 24.0886 8.37508 25.098 10.0958 25.098ZM10.5365 22.826C10.1186 22.826 9.83287 22.5403 9.83287 22.1299V15.6253C9.83287 15.3387 9.72951 15.2332 9.45037 15.2332H4.31896C4.24325 15.2332 4.20271 15.2023 4.20271 15.1479C4.20271 15.1073 4.22192 15.0743 4.26458 15.022L13.5646 5.7574C13.6436 5.67631 13.7193 5.65498 13.7833 5.65498C13.8548 5.65498 13.9305 5.67631 14.0019 5.7574L23.2999 15.022C23.3542 15.0743 23.3638 15.1073 23.3638 15.1479C23.3638 15.2023 23.3329 15.2332 23.2476 15.2332H18.1258C17.8466 15.2332 17.7433 15.3387 17.7433 15.6253V22.1299C17.7433 22.5286 17.4438 22.826 17.0397 22.826H10.5365Z" fill="black"/>
</svg>
