<svg width="28" height="28" viewBox="0 0 28 28" fill="none" xmlns="http://www.w3.org/2000/svg">
<path d="M4.84632 24.8972L14.976 24.8876C16.5454 24.8876 17.691 24.4488 18.7448 23.3018L25.3888 16.2874C26.2445 15.3757 26.5696 14.6819 26.5696 13.9448C26.5696 13.2002 26.2487 12.5203 25.3888 11.6065L18.7544 4.55906C17.7027 3.40664 16.5529 3.02344 14.9835 3.02344H4.84632C2.32445 3.02344 1 4.31695 1 6.82921V21.1821C1 23.6923 2.32445 24.8972 4.84632 24.8972ZM4.98905 22.6013C3.89733 22.6013 3.29592 22.0371 3.29592 20.8985V7.01999C3.29592 5.88139 3.89733 5.31936 4.98905 5.31936H15.0819C15.8934 5.31936 16.4434 5.4717 17.0031 6.06538L23.5949 13.0563C23.9352 13.418 24.0569 13.6697 24.0569 13.9448C24.0569 14.2083 23.9427 14.4684 23.5949 14.8259L16.9935 21.7913C16.4242 22.3945 15.8934 22.6013 15.0702 22.6013H4.98905Z" fill="black"/>
<path d="M7.77519 18.8819C8.0848 18.8819 8.34448 18.7702 8.54768 18.5573L11.6299 15.458L14.7335 18.5573C14.9346 18.7605 15.1869 18.8819 15.4965 18.8819C16.0913 18.8819 16.5499 18.4041 16.5499 17.8167C16.5499 17.524 16.4414 17.2697 16.2328 17.0707L13.1367 13.9725L16.2424 10.8529C16.4606 10.6347 16.5595 10.3997 16.5595 10.1186C16.5595 9.52169 16.101 9.06091 15.5061 9.06091C15.2157 9.06091 14.9848 9.15349 14.7645 9.37591L11.6299 12.487L8.52636 9.38552C8.32526 9.17482 8.0848 9.08013 7.77519 9.08013C7.18996 9.08013 6.72168 9.5313 6.72168 10.1283C6.72168 10.4093 6.8398 10.6636 7.03879 10.8625L10.137 13.9725L7.03879 17.0803C6.8398 17.2697 6.72168 17.5336 6.72168 17.8167C6.72168 18.4041 7.18996 18.8819 7.77519 18.8819Z" fill="black"/>
</svg>
