<svg width="28" height="28" viewBox="0 0 28 28" fill="none" xmlns="http://www.w3.org/2000/svg">
<path d="M4.79179 16.0697H23.6592C24.6937 16.0697 25.3169 15.4699 25.3169 14.5589C25.3169 14.1195 25.1011 13.6418 24.7181 13.2565L15.919 3.89222C15.356 3.33629 14.8673 3.01379 14.2244 3.01379C13.6008 3.01379 13.0929 3.35551 12.5395 3.89222L3.73078 13.2565C3.34782 13.6418 3.12235 14.1195 3.13196 14.5589C3.14157 15.4699 3.75516 16.0697 4.79179 16.0697ZM5.00086 25.058H23.4673C24.7195 25.058 25.4681 24.2944 25.4681 23.0463V20.6004C25.4681 19.3523 24.7195 18.5888 23.4673 18.5888H5.00086C3.74859 18.5888 3 19.3523 3 20.6004V23.0463C3 24.2944 3.74859 25.058 5.00086 25.058Z" fill="black"/>
</svg>
