<svg width="28" height="28" viewBox="0 0 28 28" fill="none" xmlns="http://www.w3.org/2000/svg">
<path d="M6.84421 24.8972H21.0295C23.5685 24.8972 24.8737 23.5919 24.8737 21.0914V6.82921C24.8737 4.32656 23.5685 3.02344 21.0295 3.02344H6.84421C4.31484 3.02344 3 4.31695 3 6.82921V21.0914C3 23.6016 4.31484 24.8972 6.84421 24.8972ZM6.97733 22.6013C5.88772 22.6013 5.29592 22.0371 5.29592 20.8985V7.01999C5.29592 5.88139 5.88772 5.31936 6.97733 5.31936H20.8964C21.9764 5.31936 22.5778 5.88139 22.5778 7.01999V20.8985C22.5778 22.0371 21.9764 22.6013 20.8964 22.6013H6.97733Z" fill="black"/>
<path d="M10.0877 18.8681C10.3973 18.8681 10.6591 18.7542 10.8602 18.5435L13.9424 15.4537L17.0481 18.5435C17.2492 18.7446 17.4993 18.8681 17.8089 18.8681C18.4038 18.8681 18.8624 18.3977 18.8624 17.8008C18.8624 17.508 18.756 17.2655 18.5453 17.0569L15.4492 13.9566L18.557 10.837C18.7752 10.6188 18.8741 10.3859 18.8741 10.1027C18.8741 9.5154 18.4134 9.04712 17.8185 9.04712C17.5281 9.04712 17.2973 9.14931 17.077 9.36962L13.9424 12.4732L10.841 9.38134C10.6399 9.16853 10.3973 9.06634 10.0877 9.06634C9.50456 9.06634 9.03418 9.52501 9.03418 10.1123C9.03418 10.3955 9.1523 10.6498 9.35128 10.8466L12.4516 13.9566L9.35128 17.0665C9.1523 17.2655 9.03418 17.5198 9.03418 17.8008C9.03418 18.3977 9.50456 18.8681 10.0877 18.8681Z" fill="black"/>
</svg>
