<svg width="29" height="28" viewBox="0 0 29 28" fill="none" xmlns="http://www.w3.org/2000/svg">
<path d="M1.62445 22.5683C2.52515 22.5683 3.28194 21.8211 3.28194 20.9344C3.28194 20.0317 2.55257 19.3099 1.62445 19.3099C0.736638 19.3099 0 20.0401 0 20.9344C0 21.8158 0.742966 22.5683 1.62445 22.5683ZM4.91741 13.9148C5.80639 13.9148 6.55358 13.1676 6.55358 12.2924C6.55358 11.376 5.83382 10.6584 4.91741 10.6584C4.02749 10.6584 3.28335 11.3887 3.28335 12.2924C3.28335 13.1739 4.03593 13.9148 4.91741 13.9148ZM14.2619 9.85189C15.1434 9.85189 15.896 9.10142 15.896 8.20611C15.896 7.3183 15.1561 6.58167 14.2619 6.58167C13.369 6.58167 12.6375 7.30354 12.6375 8.20611C12.6375 9.0972 13.3964 9.85189 14.2619 9.85189ZM23.6491 13.9148C24.5264 13.9148 25.2757 13.1676 25.2757 12.2924C25.2757 11.376 24.5538 10.6584 23.6491 10.6584C22.7475 10.6584 22.013 11.3887 22.013 12.2924C22.013 13.1739 22.758 13.9148 23.6491 13.9148ZM26.909 22.5683C27.8137 22.5683 28.5356 21.8369 28.5356 20.9344C28.5356 20.0496 27.7863 19.3003 26.909 19.3003C25.9945 19.3003 25.2537 20.0433 25.2537 20.9344C25.2537 21.8285 25.9882 22.5683 26.909 22.5683Z" fill="black"/>
<path d="M9.52738 22.3242H18.9331C19.6348 22.3242 20.2292 21.7298 20.2292 21.0356C20.2292 20.3222 19.6348 19.7374 18.9331 19.7374H9.52738C8.81605 19.7374 8.22168 20.3318 8.22168 21.0356C8.22168 21.7298 8.82566 22.3242 9.52738 22.3242Z" fill="black"/>
</svg>
