<svg width="28" height="28" viewBox="0 0 28 28" fill="none" xmlns="http://www.w3.org/2000/svg">
<path d="M3.32093 24.4973H8.89554C9.98351 24.4973 10.8842 23.9086 11.3375 22.9059L18.9512 6.06116C19.1197 5.7124 19.3894 5.55139 19.8139 5.55139H24.8366C25.5725 5.55139 26.1554 4.98233 26.1554 4.27194C26.1554 3.56367 25.5704 3 24.8366 3H19.2022C18.0334 3 17.2721 3.48867 16.7795 4.57007L9.13484 21.4266C8.97594 21.7753 8.69445 21.946 8.31054 21.946H3.32093C2.57328 21.946 2 22.5054 2 23.2254C2 23.9433 2.57539 24.4973 3.32093 24.4973ZM17.4423 24.4973H24.8366C25.5821 24.4973 26.1458 23.9571 26.1458 23.235C26.1458 22.515 25.5821 21.9652 24.8366 21.9652H17.4423C16.6946 21.9652 16.1234 22.515 16.1234 23.235C16.1234 23.9529 16.6967 24.4973 17.4423 24.4973Z" fill="black"/>
</svg>
