<svg width="28" height="28" viewBox="0 0 28 28" fill="none" xmlns="http://www.w3.org/2000/svg">
<path d="M8.89554 3H3.32093C2.57539 3 2 3.55406 2 4.27194C2 4.99194 2.57328 5.55139 3.32093 5.55139H8.31054C8.69445 5.55139 8.97594 5.72201 9.13484 6.07077L16.7795 22.9273C17.2721 24.0087 18.0334 24.4973 19.2022 24.4973H24.8366C25.5704 24.4973 26.1554 23.9337 26.1554 23.2254C26.1554 22.515 25.5725 21.946 24.8366 21.946H19.8139C19.3894 21.946 19.1197 21.7849 18.9512 21.4362L11.3375 4.5914C10.8842 3.58875 9.98351 3 8.89554 3ZM24.8366 3H17.4423C16.6967 3 16.1234 3.54445 16.1234 4.26233C16.1234 4.98233 16.6946 5.53217 17.4423 5.53217H24.8366C25.5821 5.53217 26.1458 4.98233 26.1458 4.26233C26.1458 3.54023 25.5821 3 24.8366 3Z" fill="black"/>
</svg>
