<svg width="28" height="28" viewBox="0 0 28 28" fill="none" xmlns="http://www.w3.org/2000/svg">
<path d="M14.105 26.21C20.7369 26.21 26.2121 20.7273 26.2121 14.105C26.2121 7.47312 20.7273 2 14.0954 2C7.47523 2 2 7.47312 2 14.105C2 20.7273 7.48484 26.21 14.105 26.21Z" fill="black"/>
<path d="M14.1148 20.4184C10.662 20.4184 7.79395 17.5482 7.79395 14.105C7.79395 12.3948 8.53364 10.7004 9.78919 9.55715C10.6854 8.66653 11.9614 9.93027 11.0405 10.8411C10.1428 11.6958 9.64176 12.8471 9.64176 14.105C9.64176 16.5957 11.6262 18.5898 14.1148 18.5898C16.6055 18.5898 18.5996 16.5957 18.5996 14.105C18.59 12.8471 18.0793 11.6958 17.1912 10.8507C16.2704 9.94199 17.5463 8.67614 18.4521 9.55715C19.6981 10.7197 20.4378 12.4044 20.4378 14.105C20.4378 17.5482 17.5697 20.4184 14.1148 20.4184ZM14.1148 14.442C13.5828 14.442 13.2082 14.0558 13.2082 13.5057V8.39347C13.2082 7.83379 13.5828 7.44543 14.1148 7.44543C14.6489 7.44543 15.0331 7.83379 15.0331 8.39347V13.5057C15.0331 14.0558 14.6489 14.442 14.1148 14.442Z" fill="white"/>
</svg>
