<svg width="28" height="28" viewBox="0 0 28 28" fill="none" xmlns="http://www.w3.org/2000/svg">
<path d="M6.84421 24.8972H21.0295C23.5685 24.8972 24.8737 23.5919 24.8737 21.0914V6.82921C24.8737 4.32656 23.5685 3.02344 21.0295 3.02344H6.84421C4.31484 3.02344 3 4.31695 3 6.82921V21.0914C3 23.6016 4.31484 24.8972 6.84421 24.8972Z" fill="black"/>
<path d="M11.1305 12.9551H10.3041C8.85328 12.9551 7.69336 11.7973 7.69336 10.3561C7.69336 8.91282 8.85328 7.74329 10.3041 7.74329C11.7335 7.74329 12.9148 8.92665 12.9148 10.3561V11.1879H14.8835V10.3561C14.8835 8.92665 16.0552 7.74329 17.4942 7.74329C18.9354 7.74329 20.1049 8.91282 20.1049 10.3561C20.1049 11.7973 18.9354 12.9551 17.4942 12.9551H16.6582V14.9484H17.4942C18.9354 14.9484 20.1049 16.1084 20.1049 17.5378C20.1049 18.9928 18.9354 20.1602 17.4942 20.1602C16.0552 20.1602 14.8835 18.9769 14.8835 17.5378V16.7081H12.9148V17.5378C12.9148 18.9769 11.7335 20.1602 10.3041 20.1602C8.85328 20.1602 7.69336 18.9928 7.69336 17.5378C7.69336 16.1084 8.85328 14.9484 10.3041 14.9484H11.1305V12.9551ZM12.8894 14.9855H14.9089V12.9181H12.8894V14.9855ZM10.323 11.227H11.1537V10.3751C11.1537 9.89556 10.7709 9.48517 10.3041 9.48517C9.82969 9.48517 9.43523 9.89134 9.43523 10.3561C9.43523 10.8401 9.8243 11.227 10.323 11.227ZM17.4753 11.227C17.9644 11.227 18.3631 10.8401 18.3631 10.3561C18.3631 9.89134 17.959 9.48517 17.4942 9.48517C17.0178 9.48517 16.635 9.89556 16.635 10.3751V11.227H17.4753ZM10.323 16.6594C9.83602 16.6594 9.43523 17.0634 9.43523 17.5282C9.43523 18.0143 9.82008 18.3991 10.3041 18.3991C10.7709 18.3991 11.1537 18.008 11.1537 17.5113V16.6594H10.323ZM17.4753 16.6594H16.635V17.5113C16.635 18.008 17.0178 18.3991 17.4942 18.3991C17.9686 18.3991 18.3631 18.0143 18.3631 17.5282C18.3631 17.0634 17.9527 16.6594 17.4753 16.6594Z" fill="white"/>
</svg>
