<svg width="28" height="28" viewBox="0 0 28 28" fill="none" xmlns="http://www.w3.org/2000/svg">
<path d="M14.105 26.21C20.7369 26.21 26.2121 20.7273 26.2121 14.105C26.2121 7.47312 20.7273 2 14.0954 2C7.47523 2 2 7.47312 2 14.105C2 20.7273 7.48484 26.21 14.105 26.21ZM14.105 23.8255C8.71085 23.8255 4.39412 19.4991 4.39412 14.105C4.39412 8.71085 8.70124 4.38452 14.0954 4.38452C19.4895 4.38452 23.8276 8.71085 23.8276 14.105C23.8276 19.4991 19.4991 23.8255 14.105 23.8255Z" fill="black"/>
<path d="M9.58543 18.9205H18.6082C19.3306 18.9205 19.763 18.5253 19.763 17.8041V16.9372C19.763 16.2308 19.3306 15.8272 18.6082 15.8272H9.58543C8.86309 15.8272 8.43066 16.2308 8.43066 16.9372V17.8041C8.43066 18.5253 8.86309 18.9205 9.58543 18.9205ZM9.3316 14.3949H18.8524C19.3688 14.3949 19.6901 14.1045 19.6901 13.6372C19.6901 13.4211 19.5698 13.1923 19.3847 12.9943L14.9395 8.23533C14.6686 7.95455 14.412 7.80127 14.0958 7.80127C13.7817 7.80127 13.5155 7.97377 13.2541 8.23533L8.79934 12.9943C8.60457 13.1827 8.49395 13.4211 8.50356 13.6372C8.53449 14.1045 8.80566 14.3949 9.3316 14.3949Z" fill="black"/>
</svg>
