<svg width="28" height="28" viewBox="0 0 28 28" fill="none" xmlns="http://www.w3.org/2000/svg">
<path d="M14.105 26.21C20.7369 26.21 26.2121 20.7273 26.2121 14.105C26.2121 7.47312 20.7273 2 14.0954 2C7.47523 2 2 7.47312 2 14.105C2 20.7273 7.48484 26.21 14.105 26.21ZM14.105 23.8255C8.71085 23.8255 4.39412 19.4991 4.39412 14.105C4.39412 8.71085 8.70124 4.38452 14.0954 4.38452C19.4895 4.38452 23.8276 8.71085 23.8276 14.105C23.8276 19.4991 19.4991 23.8255 14.105 23.8255Z" fill="black"/>
<path d="M11.363 13.1408V15.0852H10.5621C9.16664 15.0852 8.04492 16.1973 8.04492 17.5693C8.04492 18.9648 9.16664 20.0886 10.5621 20.0886C11.932 20.0886 13.0676 18.9509 13.0676 17.5693V16.7652H14.9874V17.5693C14.9874 18.9509 16.1112 20.0886 17.4928 20.0886C18.8766 20.0886 20.0004 18.9648 20.0004 17.5693C20.0004 16.1973 18.8766 15.0852 17.4928 15.0852H16.6823V13.1408H17.4928C18.8766 13.1408 20.0004 12.0287 20.0004 10.6449C20.0004 9.25905 18.8766 8.13733 17.4928 8.13733C16.1112 8.13733 14.9874 9.27499 14.9874 10.6449V11.4512H13.0676V10.6449C13.0676 9.27499 11.932 8.13733 10.5621 8.13733C9.16664 8.13733 8.04492 9.25905 8.04492 10.6449C8.04492 12.0287 9.16664 13.1408 10.5621 13.1408H11.363ZM13.0465 15.118V13.1058H15.0084V15.118H13.0465ZM10.579 11.4882C10.0962 11.4882 9.72093 11.1172 9.72093 10.6449C9.72093 10.194 10.1016 9.80374 10.5621 9.80374C11.0152 9.80374 11.3862 10.1982 11.3862 10.6618V11.4882H10.579ZM17.4759 11.4882H16.6591V10.6618C16.6591 10.1982 17.0302 9.80374 17.4928 9.80374C17.9438 9.80374 18.334 10.194 18.334 10.6449C18.334 11.1172 17.9491 11.4882 17.4759 11.4882ZM10.579 16.7185H11.3862V17.5428C11.3862 18.0256 11.0152 18.403 10.5621 18.403C10.092 18.403 9.72093 18.032 9.72093 17.5597C9.72093 17.1087 10.1058 16.7185 10.579 16.7185ZM17.4759 16.7185C17.9395 16.7185 18.334 17.1087 18.334 17.5597C18.334 18.032 17.9534 18.403 17.4928 18.403C17.0302 18.403 16.6591 18.0256 16.6591 17.5428V16.7185H17.4759Z" fill="black"/>
</svg>
