<svg width="28" height="28" viewBox="0 0 28 28" fill="none" xmlns="http://www.w3.org/2000/svg">
<path d="M6.84421 24.8972H21.0295C23.5685 24.8972 24.8737 23.5919 24.8737 21.0914V6.82921C24.8737 4.32656 23.5685 3.02344 21.0295 3.02344H6.84421C4.31484 3.02344 3 4.31695 3 6.82921V21.0914C3 23.6016 4.31484 24.8972 6.84421 24.8972ZM6.97733 22.6013C5.88772 22.6013 5.29592 22.0371 5.29592 20.8985V7.01999C5.29592 5.88139 5.88772 5.31936 6.97733 5.31936H20.8964C21.9764 5.31936 22.5778 5.88139 22.5778 7.01999V20.8985C22.5778 22.0371 21.9764 22.6013 20.8964 22.6013H6.97733Z" fill="black"/>
<path d="M11.2098 12.9806V14.925H10.4089C9.01347 14.925 7.90137 16.0371 7.90137 17.4091C7.90137 18.8046 9.01347 19.9284 10.4089 19.9284C11.7789 19.9284 12.9144 18.7908 12.9144 17.4091V16.605H14.8342V17.4091C14.8342 18.7908 15.958 19.9284 17.3397 19.9284C18.7234 19.9284 19.8472 18.8046 19.8472 17.4091C19.8472 16.0371 18.7234 14.925 17.3397 14.925H16.5292V12.9806H17.3397C18.7234 12.9806 19.8472 11.8685 19.8472 10.4848C19.8472 9.09889 18.7234 7.97717 17.3397 7.97717C15.958 7.97717 14.8342 9.11482 14.8342 10.4848V11.291H12.9144V10.4848C12.9144 9.11482 11.7789 7.97717 10.4089 7.97717C9.01347 7.97717 7.90137 9.09889 7.90137 10.4848C7.90137 11.8685 9.01347 12.9806 10.4089 12.9806H11.2098ZM12.8912 14.9578V12.9457H14.8553V14.9578H12.8912ZM10.4258 11.328C9.943 11.328 9.56777 10.957 9.56777 10.4848C9.56777 10.0338 9.94839 9.64357 10.4089 9.64357C10.8599 9.64357 11.2309 10.038 11.2309 10.5016V11.328H10.4258ZM17.3207 11.328H16.506V10.5016C16.506 10.038 16.8866 9.64357 17.3397 9.64357C17.7906 9.64357 18.1808 10.0338 18.1808 10.4848C18.1808 10.957 17.796 11.328 17.3207 11.328ZM10.4258 16.5584H11.2309V17.3827C11.2309 17.8655 10.8599 18.2428 10.4089 18.2428C9.93878 18.2428 9.56777 17.8718 9.56777 17.3995C9.56777 16.9486 9.95261 16.5584 10.4258 16.5584ZM17.3207 16.5584C17.7864 16.5584 18.1808 16.9486 18.1808 17.3995C18.1808 17.8718 17.8002 18.2428 17.3397 18.2428C16.8866 18.2428 16.506 17.8655 16.506 17.3827V16.5584H17.3207Z" fill="black"/>
</svg>
