<svg width="28" height="28" viewBox="0 0 28 28" fill="none" xmlns="http://www.w3.org/2000/svg">
<path d="M23.1432 13.6329C23.1432 13.2926 23.0199 12.9854 22.7508 12.7067L15.0265 4.97069C14.7701 4.70468 14.4268 4.56218 14.0726 4.56218C13.7185 4.56218 13.373 4.70468 13.1187 4.97069L5.39984 12.7067C5.13289 12.9854 5 13.2926 5 13.6329C5 14.3464 5.5189 14.8761 6.22507 14.8761C6.58858 14.8761 6.91202 14.738 7.1342 14.5041L9.79342 11.8791L13.7136 7.51833L12.9338 7.1342L12.7934 10.9554V25.5233C12.7934 26.293 13.3177 26.8161 14.0726 26.8161C14.8276 26.8161 15.3519 26.293 15.3519 25.5233V10.9554L15.2115 7.1342L14.4413 7.51833L18.3519 11.8791L21.009 14.5041C21.2387 14.738 21.5546 14.8761 21.9181 14.8761C22.6243 14.8761 23.1432 14.3464 23.1432 13.6329ZM23.1432 3.30406C23.1432 2.58501 22.6276 2.03845 21.916 2.03845H6.2464C5.52312 2.03845 5 2.58501 5 3.30406C5 4.02523 5.52312 4.56218 6.2464 4.56218H21.916C22.6276 4.56218 23.1432 4.02523 23.1432 3.30406Z" fill="black"/>
</svg>
