<svg width="30" height="30" viewBox="0 0 30 30" fill="none" xmlns="http://www.w3.org/2000/svg">
<path d="M14.9173 29.8501C15.3933 29.8501 15.9708 29.6083 16.4691 29.4379L22.3772 27.3093C22.9102 27.1241 23.145 26.6528 23.145 26.3031C23.145 25.6415 22.6854 25.1167 21.9862 25.1167C21.6342 25.1167 21.225 25.2829 20.9048 25.4052L13.8923 28.0014H15.9635L8.94139 25.4052C8.62123 25.2829 8.23123 25.1167 7.8696 25.1167C7.19929 25.1167 6.71085 25.6222 6.71085 26.3031C6.71085 26.6528 6.93397 27.1241 7.47866 27.3093L13.3772 29.4379C13.8947 29.6179 14.453 29.8501 14.9173 29.8501ZM3.84421 23.3901H25.9999C28.5218 23.3901 29.8462 22.0869 29.8462 19.5843V8.23819C29.8462 5.74725 28.5218 4.44202 25.9999 4.44202H3.84421C1.30523 4.44202 0 5.73764 0 8.23819V19.5843C0 22.0869 1.30523 23.3901 3.84421 23.3901ZM3.97733 21.0941C2.88772 21.0941 2.29592 20.5225 2.29592 19.3839V8.44069C2.29592 7.29997 2.88772 6.73794 3.97733 6.73794H25.8572C26.9393 6.73794 27.5503 7.29997 27.5503 8.44069V19.3839C27.5503 20.5225 26.9393 21.0941 25.8572 21.0941H3.97733ZM5.0953 11.2605H6.17553C6.52053 11.2605 6.72608 11.0549 6.72608 10.7195V9.63719C6.72608 9.29429 6.52053 9.08659 6.17553 9.08659H5.0953C4.76202 9.08659 4.55647 9.29429 4.55647 9.63719V10.7195C4.55647 11.0549 4.76202 11.2605 5.0953 11.2605ZM8.80335 11.2605H9.88569C10.219 11.2605 10.4245 11.0549 10.4245 10.7195V9.63719C10.4245 9.29429 10.219 9.08659 9.88569 9.08659H8.80335C8.46046 9.08659 8.25491 9.29429 8.25491 9.63719V10.7195C8.25491 11.0549 8.46046 11.2605 8.80335 11.2605ZM12.5114 11.2605H13.5841C13.927 11.2605 14.1326 11.0549 14.1326 10.7195V9.63719C14.1326 9.29429 13.927 9.08659 13.5841 9.08659H12.5114C12.1685 9.08659 11.963 9.29429 11.963 9.63719V10.7195C11.963 11.0549 12.1685 11.2605 12.5114 11.2605ZM16.2119 11.2605H17.2922C17.6351 11.2605 17.8427 11.0549 17.8427 10.7195V9.63719C17.8427 9.29429 17.6351 9.08659 17.2922 9.08659H16.2119C15.8787 9.08659 15.671 9.29429 15.671 9.63719V10.7195C15.671 11.0549 15.8787 11.2605 16.2119 11.2605ZM19.9453 11.2605H21.0002C21.3356 11.2605 21.5412 11.0549 21.5412 10.7195V9.63719C21.5412 9.29429 21.3356 9.08659 21.0002 9.08659H19.9453C19.5877 9.08659 19.3716 9.29429 19.3716 9.63719V10.7195C19.3716 11.0549 19.5877 11.2605 19.9453 11.2605ZM23.628 11.2605H24.7008C25.0437 11.2605 25.2492 11.0549 25.2492 10.7195V9.63719C25.2492 9.29429 25.0437 9.08659 24.7008 9.08659H23.628C23.2852 9.08659 23.0796 9.29429 23.0796 9.63719V10.7195C23.0796 11.0549 23.2852 11.2605 23.628 11.2605ZM5.0953 14.9938H6.17553C6.52053 14.9938 6.72608 14.7862 6.72608 14.4433V13.3705C6.72608 13.0276 6.52053 12.82 6.17553 12.82H5.0953C4.76202 12.82 4.55647 13.0276 4.55647 13.3705V14.4433C4.55647 14.7862 4.76202 14.9938 5.0953 14.9938ZM8.80335 14.9938H9.88569C10.219 14.9938 10.4245 14.7862 10.4245 14.4433V13.3705C10.4245 13.0276 10.219 12.82 9.88569 12.82H8.80335C8.46046 12.82 8.25491 13.0276 8.25491 13.3705V14.4433C8.25491 14.7862 8.46046 14.9938 8.80335 14.9938ZM12.5114 14.9938H13.5841C13.927 14.9938 14.1326 14.7862 14.1326 14.4433V13.3705C14.1326 13.0276 13.927 12.82 13.5841 12.82H12.5114C12.1685 12.82 11.963 13.0276 11.963 13.3705V14.4433C11.963 14.7862 12.1685 14.9938 12.5114 14.9938ZM16.2119 14.9938H17.2922C17.6351 14.9938 17.8427 14.7862 17.8427 14.4433V13.3705C17.8427 13.0276 17.6351 12.82 17.2922 12.82H16.2119C15.8787 12.82 15.671 13.0276 15.671 13.3705V14.4433C15.671 14.7862 15.8787 14.9938 16.2119 14.9938ZM19.9453 14.9938H21.0002C21.3356 14.9938 21.5412 14.7862 21.5412 14.4433V13.3705C21.5412 13.0276 21.3356 12.82 21.0002 12.82H19.9453C19.5877 12.82 19.3716 13.0276 19.3716 13.3705V14.4433C19.3716 14.7862 19.5877 14.9938 19.9453 14.9938ZM23.628 14.9938H24.7008C25.0437 14.9938 25.2492 14.7862 25.2492 14.4433V13.3705C25.2492 13.0276 25.0437 12.82 24.7008 12.82H23.628C23.2852 12.82 23.0796 13.0276 23.0796 13.3705V14.4433C23.0796 14.7862 23.2852 14.9938 23.628 14.9938ZM5.0953 18.7272H6.17553C6.52053 18.7272 6.72608 18.5195 6.72608 18.1766V17.0943C6.72608 16.761 6.52053 16.5533 6.17553 16.5533H5.0953C4.76202 16.5533 4.55647 16.761 4.55647 17.0943V18.1766C4.55647 18.5195 4.76202 18.7272 5.0953 18.7272ZM8.90155 18.7272H20.902C21.3047 18.7272 21.5412 18.4907 21.5412 18.0784V17.1925C21.5412 16.7898 21.3047 16.5533 20.902 16.5533H8.90155C8.48929 16.5533 8.25491 16.7898 8.25491 17.1925V18.0784C8.25491 18.4907 8.48929 18.7272 8.90155 18.7272ZM23.628 18.7272H24.7008C25.0437 18.7272 25.2492 18.5195 25.2492 18.1766V17.0943C25.2492 16.761 25.0437 16.5533 24.7008 16.5533H23.628C23.2852 16.5533 23.0796 16.761 23.0796 17.0943V18.1766C23.0796 18.5195 23.2852 18.7272 23.628 18.7272Z" fill="black"/>
</svg>
