<svg width="28" height="28" viewBox="0 0 28 28" fill="none" xmlns="http://www.w3.org/2000/svg">
<path d="M21.6235 23.3334C21.6235 22.9391 21.4717 22.6096 21.2017 22.3502L12.1621 13.63V15.0482L21.2017 6.33764C21.4738 6.08779 21.6235 5.74655 21.6235 5.35444C21.6235 4.58359 21.0156 4 20.264 4C19.8969 4 19.6077 4.11719 19.3049 4.38812L10.0415 13.3204C9.74404 13.6031 9.58771 13.9422 9.58771 14.3439C9.58771 14.7435 9.74404 15.073 10.0511 15.3653L19.3049 24.2901C19.5981 24.5802 19.8969 24.6878 20.2543 24.6878C21.0156 24.6878 21.6235 24.0925 21.6235 23.3334ZM9.62076 23.392V5.31296C9.62076 4.54328 9.06694 4 8.30663 4C7.55382 4 7 4.54328 7 5.31296V23.392C7 24.152 7.55804 24.6878 8.30663 24.6878C9.06694 24.6878 9.62076 24.152 9.62076 23.392Z" fill="black"/>
</svg>
