<svg width="30" height="28" viewBox="0 0 30 28" fill="none" xmlns="http://www.w3.org/2000/svg">
<path d="M3.84421 23.948H25.9999C28.5218 23.948 29.8462 22.6449 29.8462 20.1423V8.79616C29.8462 6.30523 28.5218 5 25.9999 5H3.84421C1.30523 5 0 6.29562 0 8.79616V20.1423C0 22.6449 1.30523 23.948 3.84421 23.948Z" fill="black"/>
<path d="M11.2673 11.6982C11.0416 11.6982 10.8925 11.5374 10.8925 11.2989V9.88252C10.8925 9.63221 11.0416 9.48315 11.2673 9.48315H12.1548C12.3784 9.48315 12.5275 9.63221 12.5275 9.88252V11.2989C12.5275 11.5374 12.3784 11.6982 12.1548 11.6982H11.2673ZM13.9042 11.6982C13.6785 11.6982 13.5177 11.5374 13.5177 11.2989V9.88252C13.5177 9.63221 13.6785 9.48315 13.9042 9.48315H14.7822C15.0058 9.48315 15.1548 9.63221 15.1548 9.88252V11.2989C15.1548 11.5374 15.0058 11.6982 14.7822 11.6982H13.9042ZM16.537 11.6982C16.2941 11.6982 16.1547 11.5374 16.1547 11.2989V9.88252C16.1547 9.63221 16.2941 9.48315 16.537 9.48315H17.4149C17.631 9.48315 17.7918 9.63221 17.7918 9.88252V11.2989C17.7918 11.5374 17.631 11.6982 17.4149 11.6982H16.537ZM19.1643 11.6982C18.9194 11.6982 18.7778 11.5374 18.7778 11.2989V9.88252C18.7778 9.63221 18.9194 9.48315 19.1643 9.48315H20.0231C20.2659 9.48315 20.4053 9.63221 20.4053 9.88252V11.2989C20.4053 11.5374 20.2659 11.6982 20.0231 11.6982H19.1643ZM21.7989 11.6982C21.5627 11.6982 21.4148 11.5374 21.4148 11.2989V9.88252C21.4148 9.63221 21.5627 9.48315 21.7989 9.48315H22.6675C22.8911 9.48315 23.0423 9.63221 23.0423 9.88252V11.2989C23.0423 11.5374 22.8911 11.6982 22.6675 11.6982H21.7989ZM24.4244 11.6982C24.1816 11.6982 24.0421 11.5374 24.0421 11.2989V9.88252C24.0421 9.63221 24.1816 9.48315 24.4244 9.48315H25.2831C25.5281 9.48315 25.6675 9.63221 25.6675 9.88252V11.2989C25.6675 11.5374 25.5281 11.6982 25.2831 11.6982H24.4244ZM11.2673 15.5687C11.0416 15.5687 10.8925 15.4292 10.8925 15.1672V13.7626C10.8925 13.5006 11.0416 13.3611 11.2673 13.3611H12.1548C12.3784 13.3611 12.5275 13.5006 12.5275 13.7626V15.1672C12.5275 15.4292 12.3784 15.5687 12.1548 15.5687H11.2673ZM13.9042 15.5687C13.6785 15.5687 13.5177 15.4292 13.5177 15.1672V13.7626C13.5177 13.5006 13.6785 13.3611 13.9042 13.3611H14.7822C15.0058 13.3611 15.1548 13.5006 15.1548 13.7626V15.1672C15.1548 15.4292 15.0058 15.5687 14.7822 15.5687H13.9042ZM16.537 15.5687C16.2941 15.5687 16.1547 15.4292 16.1547 15.1672V13.7626C16.1547 13.5006 16.2941 13.3611 16.537 13.3611H17.4149C17.631 13.3611 17.7918 13.5006 17.7918 13.7626V15.1672C17.7918 15.4292 17.631 15.5687 17.4149 15.5687H16.537ZM19.1643 15.5687C18.9194 15.5687 18.7778 15.4292 18.7778 15.1672V13.7626C18.7778 13.5006 18.9194 13.3611 19.1643 13.3611H20.0231C20.2659 13.3611 20.4053 13.5006 20.4053 13.7626V15.1672C20.4053 15.4292 20.2659 15.5687 20.0231 15.5687H19.1643ZM21.7989 15.5687C21.5627 15.5687 21.4148 15.4292 21.4148 15.1672V13.7626C21.4148 13.5006 21.5627 13.3611 21.7989 13.3611H22.6675C22.8911 13.3611 23.0423 13.5006 23.0423 13.7626V15.1672C23.0423 15.4292 22.8911 15.5687 22.6675 15.5687H21.7989ZM24.4244 15.5687C24.1816 15.5687 24.0421 15.4292 24.0421 15.1672V13.7626C24.0421 13.5006 24.1816 13.3611 24.4244 13.3611H25.2831C25.5281 13.3611 25.6675 13.5006 25.6675 13.7626V15.1672C25.6675 15.4292 25.5281 15.5687 25.2831 15.5687H24.4244ZM11.2673 19.4466C11.0416 19.4466 10.8925 19.2976 10.8925 19.0473V17.6309C10.8925 17.3923 11.0416 17.2316 11.2673 17.2316H12.1548C12.3784 17.2316 12.5275 17.3923 12.5275 17.6309V19.0473C12.5275 19.2976 12.3784 19.4466 12.1548 19.4466H11.2673ZM13.9042 19.4466C13.6785 19.4466 13.5177 19.2976 13.5177 19.0473V17.6309C13.5177 17.3923 13.6785 17.2316 13.9042 17.2316H22.6675C22.8911 17.2316 23.0423 17.3923 23.0423 17.6309V19.0473C23.0423 19.2976 22.8911 19.4466 22.6675 19.4466H13.9042ZM24.4244 19.4466C24.1816 19.4466 24.0421 19.2976 24.0421 19.0473V17.6309C24.0421 17.3923 24.1816 17.2316 24.4244 17.2316H25.2831C25.5281 17.2316 25.6675 17.3923 25.6675 17.6309V19.0473C25.6675 19.2976 25.5281 19.4466 25.2831 19.4466H24.4244ZM8.79274 13.7553C9.26336 14.192 9.26336 14.7465 8.79274 15.181L5.35492 18.3999C4.89836 18.8204 4.16992 18.6406 4.16992 17.9633V10.9773C4.16992 10.3074 4.89836 10.1298 5.35492 10.5481L8.79274 13.7553Z" fill="white"/>
</svg>
