<svg width="28" height="28" viewBox="0 0 28 28" fill="none" xmlns="http://www.w3.org/2000/svg">
<path d="M5.08148 16.3997H23.7443C24.9216 16.3997 25.6064 15.7329 25.6256 14.6984C25.6352 14.1961 25.3704 13.6631 24.948 13.2288L16.316 4.06288C15.7031 3.45491 15.1303 3.07593 14.4108 3.07593C13.6816 3.07593 13.1398 3.43569 12.4959 4.06288L3.87352 13.2288C3.45117 13.6631 3.19594 14.1961 3.19594 14.6984C3.19594 15.7329 3.9 16.3997 5.08148 16.3997ZM6.67592 14.2758C6.47857 14.2758 6.38365 14.1809 6.38365 14.0337C6.38365 13.958 6.41459 13.8865 6.47107 13.8321L14.0641 5.86404C14.1762 5.75201 14.2615 5.6688 14.4108 5.6688C14.558 5.6688 14.6529 5.75201 14.7553 5.86404L22.3451 13.8321C22.4112 13.8961 22.4421 13.958 22.4421 14.0337C22.4421 14.1809 22.3376 14.2758 22.1499 14.2758H6.67592ZM5.58703 25.3603H23.2153C24.8515 25.3603 25.8023 24.4786 25.8023 22.8628V21.0975C25.8023 19.507 24.8515 18.6 23.2153 18.6H5.58703C3.95297 18.6 3 19.4974 3 21.0975V22.8628C3 24.4882 3.95297 25.3603 5.58703 25.3603ZM6.03678 23.277C5.58444 23.277 5.34443 23.0081 5.34443 22.5558V21.4045C5.34443 20.9522 5.58444 20.6855 6.03678 20.6855H22.7656C23.2275 20.6855 23.4579 20.9522 23.4579 21.4045V22.5558C23.4579 23.0081 23.2275 23.277 22.7656 23.277H6.03678Z" fill="black"/>
</svg>
