<svg width="28" height="28" viewBox="0 0 28 28" fill="none" xmlns="http://www.w3.org/2000/svg">
<path d="M10.0878 18.744H18.8762C20.2576 18.744 20.9389 18.0691 20.9389 16.6919V14.2612H25.1314C26.1568 14.2612 26.964 13.6469 26.964 12.7044C26.964 12.1431 26.6785 11.6589 26.1322 11.1892L16.1112 2.43414C15.5199 1.93422 15.0547 1.6593 14.483 1.6593C13.9093 1.6593 13.4441 1.93422 12.8527 2.43414L2.8318 11.1988C2.26625 11.6877 2 12.1431 2 12.7044C2 13.6469 2.80719 14.2612 3.83257 14.2612H8.02719V16.6919C8.02719 18.0691 8.70641 18.744 10.0878 18.744ZM9.98961 26.5136H18.9744C20.2095 26.5136 20.9389 25.7884 20.9389 24.5692V22.6063C20.9389 21.3871 20.2095 20.664 18.9744 20.664H9.98961C8.75446 20.664 8.02719 21.3871 8.02719 22.6063V24.5692C8.02719 25.7884 8.75446 26.5136 9.98961 26.5136Z" fill="black"/>
</svg>
