<svg width="30" height="28" viewBox="0 0 30 28" fill="none" xmlns="http://www.w3.org/2000/svg">
<path d="M3.84421 23.948H25.9999C28.5218 23.948 29.8462 22.6449 29.8462 20.1423V8.79616C29.8462 6.30523 28.5218 5 25.9999 5H3.84421C1.30523 5 0 6.29562 0 8.79616V20.1423C0 22.6449 1.30523 23.948 3.84421 23.948ZM3.97733 21.6521C2.88772 21.6521 2.29592 21.0805 2.29592 19.9419V8.99866C2.29592 7.85795 2.88772 7.29592 3.97733 7.29592H25.8572C26.9393 7.29592 27.5503 7.85795 27.5503 8.99866V19.9419C27.5503 21.0805 26.9393 21.6521 25.8572 21.6521H3.97733Z" fill="black"/>
<path d="M11.4078 11.7992H12.256C12.4774 11.7992 12.6148 11.6523 12.6148 11.4137V10.059C12.6148 9.82252 12.4774 9.67346 12.256 9.67346H11.4078C11.1863 9.67346 11.0489 9.82252 11.0489 10.059V11.4137C11.0489 11.6523 11.1863 11.7992 11.4078 11.7992ZM13.9437 11.7992H14.7823C15.0017 11.7992 15.1411 11.6523 15.1411 11.4137V10.059C15.1411 9.82252 15.0017 9.67346 14.7823 9.67346H13.9437C13.7222 9.67346 13.5753 9.82252 13.5753 10.059V11.4137C13.5753 11.6523 13.7222 11.7992 13.9437 11.7992ZM16.4775 11.7992H17.3182C17.528 11.7992 17.6749 11.6523 17.6749 11.4137V10.059C17.6749 9.82252 17.528 9.67346 17.3182 9.67346H16.4775C16.2485 9.67346 16.1112 9.82252 16.1112 10.059V11.4137C16.1112 11.6523 16.2485 11.7992 16.4775 11.7992ZM19.0039 11.7992H19.8328C20.0639 11.7992 20.2013 11.6523 20.2013 11.4137V10.059C20.2013 9.82252 20.0639 9.67346 19.8328 9.67346H19.0039C18.7728 9.67346 18.6354 9.82252 18.6354 10.059V11.4137C18.6354 11.6523 18.7728 11.7992 19.0039 11.7992ZM21.5374 11.7992H22.3784C22.5882 11.7992 22.7372 11.6523 22.7372 11.4137V10.059C22.7372 9.82252 22.5882 9.67346 22.3784 9.67346H21.5374C21.3171 9.67346 21.1714 9.82252 21.1714 10.059V11.4137C21.1714 11.6523 21.3171 11.7992 21.5374 11.7992ZM24.064 11.7992H24.893C25.1241 11.7992 25.2614 11.6523 25.2614 11.4137V10.059C25.2614 9.82252 25.1241 9.67346 24.893 9.67346H24.064C23.835 9.67346 23.6977 9.82252 23.6977 10.059V11.4137C23.6977 11.6523 23.835 11.7992 24.064 11.7992ZM11.4078 15.523H12.256C12.4774 15.523 12.6148 15.3856 12.6148 15.1374V13.7924C12.6148 13.5442 12.4774 13.4068 12.256 13.4068H11.4078C11.1863 13.4068 11.0489 13.5442 11.0489 13.7924V15.1374C11.0489 15.3856 11.1863 15.523 11.4078 15.523ZM13.9437 15.523H14.7823C15.0017 15.523 15.1411 15.3856 15.1411 15.1374V13.7924C15.1411 13.5442 15.0017 13.4068 14.7823 13.4068H13.9437C13.7222 13.4068 13.5753 13.5442 13.5753 13.7924V15.1374C13.5753 15.3856 13.7222 15.523 13.9437 15.523ZM16.4775 15.523H17.3182C17.528 15.523 17.6749 15.3856 17.6749 15.1374V13.7924C17.6749 13.5442 17.528 13.4068 17.3182 13.4068H16.4775C16.2485 13.4068 16.1112 13.5442 16.1112 13.7924V15.1374C16.1112 15.3856 16.2485 15.523 16.4775 15.523ZM19.0039 15.523H19.8328C20.0639 15.523 20.2013 15.3856 20.2013 15.1374V13.7924C20.2013 13.5442 20.0639 13.4068 19.8328 13.4068H19.0039C18.7728 13.4068 18.6354 13.5442 18.6354 13.7924V15.1374C18.6354 15.3856 18.7728 15.523 19.0039 15.523ZM21.5374 15.523H22.3784C22.5882 15.523 22.7372 15.3856 22.7372 15.1374V13.7924C22.7372 13.5442 22.5882 13.4068 22.3784 13.4068H21.5374C21.3171 13.4068 21.1714 13.5442 21.1714 13.7924V15.1374C21.1714 15.3856 21.3171 15.523 21.5374 15.523ZM24.064 15.523H24.893C25.1241 15.523 25.2614 15.3856 25.2614 15.1374V13.7924C25.2614 13.5442 25.1241 13.4068 24.893 13.4068H24.064C23.835 13.4068 23.6977 13.5442 23.6977 13.7924V15.1374C23.6977 15.3856 23.835 15.523 24.064 15.523ZM11.4078 19.2563H12.256C12.4774 19.2563 12.6148 19.1094 12.6148 18.8708V17.5161C12.6148 17.2775 12.4774 17.1305 12.256 17.1305H11.4078C11.1863 17.1305 11.0489 17.2775 11.0489 17.5161V18.8708C11.0489 19.1094 11.1863 19.2563 11.4078 19.2563ZM13.9437 19.2563H22.3784C22.5882 19.2563 22.7372 19.1094 22.7372 18.8708V17.5161C22.7372 17.2775 22.5882 17.1305 22.3784 17.1305H13.9437C13.7222 17.1305 13.5753 17.2775 13.5753 17.5161V18.8708C13.5753 19.1094 13.7222 19.2563 13.9437 19.2563ZM24.064 19.2563H24.893C25.1241 19.2563 25.2614 19.1094 25.2614 18.8708V17.5161C25.2614 17.2775 25.1241 17.1305 24.893 17.1305H24.064C23.835 17.1305 23.6977 17.2775 23.6977 17.5161V18.8708C23.6977 19.1094 23.835 19.2563 24.064 19.2563ZM9.0225 13.7872L5.71125 10.6885C5.27273 10.2861 4.57617 10.4617 4.57617 11.0996V17.8388C4.57617 18.4885 5.27273 18.6619 5.71125 18.2595L9.0225 15.1512C9.47719 14.7327 9.47719 14.2079 9.0225 13.7872Z" fill="black"/>
</svg>
