<svg width="28" height="28" viewBox="0 0 28 28" fill="none" xmlns="http://www.w3.org/2000/svg">
<path d="M4.39234 12.6C4.14039 12.8679 4 13.1848 4 13.5537C4 14.317 4.59203 14.9229 5.35327 14.9229C5.736 14.9229 6.07936 14.7602 6.33646 14.5031L14.9566 5.67864H13.8102L22.4219 14.5031C22.6865 14.7623 23.032 14.9229 23.403 14.9229C24.1621 14.9229 24.7562 14.317 24.7562 13.5537C24.7562 13.1827 24.618 12.8637 24.3618 12.6L15.4391 3.46851C15.1429 3.15516 14.7824 3.00422 14.384 3C13.978 3 13.6347 3.15304 13.3192 3.46851L4.39234 12.6Z" fill="black"/>
</svg>
