<svg width="28" height="28" viewBox="0 0 28 28" fill="none" xmlns="http://www.w3.org/2000/svg">
<path d="M14.105 26.21C20.7369 26.21 26.2121 20.7273 26.2121 14.105C26.2121 7.47312 20.7273 2 14.0954 2C7.47523 2 2 7.47312 2 14.105C2 20.7273 7.48484 26.21 14.105 26.21ZM14.105 23.8255C8.71085 23.8255 4.39412 19.4991 4.39412 14.105C4.39412 8.71085 8.70124 4.38452 14.0954 4.38452C19.4895 4.38452 23.8276 8.71085 23.8276 14.105C23.8276 19.4991 19.4991 23.8255 14.105 23.8255Z" fill="black"/>
<path d="M9.85328 17.2892H18.3253C19.0052 17.2892 19.4638 16.9456 19.4638 16.3006C19.4638 15.646 19.0265 15.2928 18.3274 15.2928H9.85328C9.14242 15.2928 8.70508 15.6439 8.70508 16.3006C8.70508 16.9456 9.16586 17.2892 9.85328 17.2892ZM9.85328 12.9523H18.3253C19.0052 12.9523 19.4638 12.6066 19.4638 11.9541C19.4638 11.2995 19.0265 10.9463 18.3274 10.9463H9.85328C9.14242 10.9463 8.70508 11.2974 8.70508 11.9541C8.70508 12.6066 9.16586 12.9523 9.85328 12.9523Z" fill="black"/>
</svg>
