<svg width="28" height="28" viewBox="0 0 28 28" fill="none" xmlns="http://www.w3.org/2000/svg">
<path d="M6.84421 24.8972H21.0295C23.5685 24.8972 24.8737 23.5919 24.8737 21.0914V6.82921C24.8737 4.32656 23.5685 3.02344 21.0295 3.02344H6.84421C4.31484 3.02344 3 4.31695 3 6.82921V21.0914C3 23.6016 4.31484 24.8972 6.84421 24.8972ZM6.97733 22.6013C5.88772 22.6013 5.29592 22.0371 5.29592 20.8985V7.01999C5.29592 5.88139 5.88772 5.31936 6.97733 5.31936H20.8964C21.9764 5.31936 22.5778 5.88139 22.5778 7.01999V20.8985C22.5778 22.0371 21.9764 22.6013 20.8964 22.6013H6.97733Z" fill="black"/>
<path d="M10.965 19.613C11.4895 19.613 11.8066 19.3512 11.9151 18.8438L12.3898 16.5562H14.3458L13.9181 18.6253C13.8063 19.1691 14.1714 19.613 14.7194 19.613C15.2557 19.613 15.5962 19.3448 15.7026 18.8374L16.1793 16.5466H17.2525C17.7792 16.5466 18.1516 16.1646 18.1516 15.6518C18.1516 15.1985 17.8387 14.876 17.4014 14.876H16.5337L16.9786 12.7481H18.0529C18.5817 12.7481 18.9562 12.366 18.9562 11.8532C18.9562 11.4 18.6433 11.0754 18.206 11.0754H17.3128L17.715 9.1244C17.8214 8.58909 17.4297 8.13464 16.8902 8.13464C16.3699 8.13464 16.0368 8.39643 15.9347 8.91135L15.4856 11.0754H13.521L13.9178 9.1244C14.0318 8.5987 13.6539 8.13464 13.1102 8.13464C12.5803 8.13464 12.2515 8.39643 12.1472 8.91135L11.7077 11.0754H10.6195C10.1025 11.0754 9.72047 11.4553 9.72047 11.9702C9.72047 12.4214 10.0312 12.7481 10.4761 12.7481H11.3564L10.9148 14.876H9.82125C9.2925 14.876 8.91797 15.258 8.91797 15.7709C8.91797 16.222 9.23086 16.5466 9.6682 16.5466H10.5764L10.1466 18.6232C10.038 19.167 10.417 19.613 10.965 19.613ZM12.5965 15.0652L13.0954 12.6056H15.3023L14.7979 15.0652H12.5965Z" fill="black"/>
</svg>
