<svg width="28" height="28" viewBox="0 0 28 28" fill="none" xmlns="http://www.w3.org/2000/svg">
<path d="M14.105 26.21C20.7369 26.21 26.2121 20.7273 26.2121 14.105C26.2121 7.47312 20.7273 2 14.0954 2C7.47523 2 2 7.47312 2 14.105C2 20.7273 7.48484 26.21 14.105 26.21Z" fill="black"/>
<path d="M10.258 19.0648C9.64094 19.0648 9.16211 18.5743 9.16211 17.9551C9.16211 17.6677 9.27274 17.3879 9.48555 17.1868L12.5418 14.1167L9.48555 11.0583C9.27274 10.8476 9.16211 10.5774 9.16211 10.2879C9.16211 9.65908 9.64094 9.18987 10.258 9.18987C10.574 9.18987 10.8208 9.29627 11.0357 9.50158L14.1048 12.5612L17.1974 9.49197C17.4219 9.26744 17.6687 9.17065 17.975 9.17065C18.5921 9.17065 19.0806 9.64947 19.0806 10.2687C19.0806 10.5656 18.9817 10.8167 18.7475 11.0487L15.6838 14.1167L18.7379 17.1772C18.9603 17.3783 19.071 17.6581 19.071 17.9551C19.071 18.5743 18.5826 19.0648 17.9558 19.0648C17.6399 19.0648 17.3643 18.9584 17.1568 18.7414L14.1048 15.6861L11.0666 18.7414C10.8496 18.9584 10.574 19.0648 10.258 19.0648Z" fill="white"/>
</svg>
