<svg width="28" height="28" viewBox="0 0 28 28" fill="none" xmlns="http://www.w3.org/2000/svg">
<path d="M21.3898 22.0762C22.1264 22.0762 22.6294 21.5121 22.6294 20.7157C22.6294 20.0311 22.3197 19.6315 21.6377 19.3359L9.54395 14.0728V13.9376L21.6356 8.70021C22.2944 8.41099 22.6294 8.01772 22.6294 7.34788C22.6294 6.56859 22.0936 6.01172 21.3239 6.01172C20.9421 6.01172 20.6648 6.10851 20.363 6.25734L7.46741 12.1704C6.58945 12.5637 6 13.1808 6 14.0878C6 15.0065 6.58945 15.6108 7.46741 16.0136L20.363 21.803C20.685 21.9518 20.9803 22.0762 21.3898 22.0762Z" fill="black"/>
</svg>
