<svg width="28" height="28" viewBox="0 0 28 28" fill="none" xmlns="http://www.w3.org/2000/svg">
<path d="M14.105 26.21C20.7369 26.21 26.2121 20.7273 26.2121 14.105C26.2121 7.47312 20.7273 2 14.0954 2C7.47523 2 2 7.47312 2 14.105C2 20.7273 7.48484 26.21 14.105 26.21Z" fill="black"/>
<path d="M17.2371 19.1063C16.9678 19.1063 16.7817 19.0456 16.5647 18.9467L9.41671 15.2811C8.86429 15.0043 8.61328 14.6659 8.61328 14.1155C8.61328 13.5973 8.87929 13.2195 9.41671 12.931L16.5647 9.1597C16.7934 9.05119 16.9678 8.99048 17.2563 8.99048C17.9212 8.99048 18.3925 9.47142 18.3925 10.1138C18.3925 10.6489 18.1415 10.9862 17.5312 11.2543L11.8411 14.0368V14.1198L17.5312 16.8425C18.1511 17.1106 18.3925 17.4287 18.3925 17.9734C18.3925 18.6254 17.9116 19.1063 17.2371 19.1063Z" fill="white"/>
</svg>
