<svg width="28" height="28" viewBox="0 0 28 28" fill="none" xmlns="http://www.w3.org/2000/svg">
<path d="M6.84421 24.8972H21.0295C23.5685 24.8972 24.8737 23.5919 24.8737 21.0914V6.82921C24.8737 4.32656 23.5685 3.02344 21.0295 3.02344H6.84421C4.31484 3.02344 3 4.31695 3 6.82921V21.0914C3 23.6016 4.31484 24.8972 6.84421 24.8972Z" fill="black"/>
<path d="M17.1004 18.9462C16.8386 18.9462 16.645 18.8855 16.4259 18.7866L9.28 15.1209C8.72758 14.8441 8.47656 14.5057 8.47656 13.9554C8.47656 13.4372 8.74258 13.0594 9.28 12.7709L16.4259 8.99954C16.6546 8.89102 16.8386 8.83032 17.1196 8.83032C17.7825 8.83032 18.2538 9.31125 18.2538 9.95367C18.2538 10.4887 18.0049 10.826 17.3946 11.0941L11.7044 13.8766V13.9596L17.3946 16.6823C18.0145 16.9505 18.2538 17.2685 18.2538 17.8132C18.2538 18.4652 17.7728 18.9462 17.1004 18.9462Z" fill="white"/>
</svg>
