<svg width="28" height="28" viewBox="0 0 28 28" fill="none" xmlns="http://www.w3.org/2000/svg">
<path d="M14.105 26.21C20.7369 26.21 26.2121 20.7273 26.2121 14.105C26.2121 7.47312 20.7273 2 14.0954 2C7.47523 2 2 7.47312 2 14.105C2 20.7273 7.48484 26.21 14.105 26.21Z" fill="black"/>
<path d="M9.71 17.4263C8.98859 17.4263 8.49805 17.0647 8.49805 16.3899C8.49805 15.7013 8.96516 15.3226 9.71 15.3226H18.4904C19.2214 15.3226 19.6885 15.7034 19.6885 16.3899C19.6885 17.0647 19.2001 17.4263 18.4883 17.4263H9.71ZM9.71 12.913C8.98859 12.913 8.49805 12.5513 8.49805 11.8649C8.49805 11.1763 8.96516 10.8071 9.71 10.8071H18.4904C19.2214 10.8071 19.6885 11.1784 19.6885 11.8649C19.6885 12.5513 19.2001 12.913 18.4883 12.913H9.71Z" fill="white"/>
</svg>
