<svg width="28" height="28" viewBox="0 0 28 28" fill="none" xmlns="http://www.w3.org/2000/svg">
<path d="M6.84421 24.8972H21.0295C23.5685 24.8972 24.8737 23.5919 24.8737 21.0914V6.82921C24.8737 4.32656 23.5685 3.02344 21.0295 3.02344H6.84421C4.31484 3.02344 3 4.31695 3 6.82921V21.0914C3 23.6016 4.31484 24.8972 6.84421 24.8972ZM6.97733 22.6013C5.88772 22.6013 5.29592 22.0371 5.29592 20.8985V7.01999C5.29592 5.88139 5.88772 5.31936 6.97733 5.31936H20.8964C21.9764 5.31936 22.5778 5.88139 22.5778 7.01999V20.8985C22.5778 22.0371 21.9764 22.6013 20.8964 22.6013H6.97733Z" fill="black"/>
<path d="M10.0887 18.8681C10.3983 18.8681 10.6601 18.7542 10.8612 18.5435L13.9434 15.4537L17.0491 18.5435C17.2502 18.7446 17.5003 18.8681 17.8099 18.8681C18.4048 18.8681 18.8634 18.3977 18.8634 17.8008C18.8634 17.508 18.757 17.2655 18.5463 17.0569L15.4502 13.9566L18.558 10.837C18.7762 10.6188 18.8751 10.3859 18.8751 10.1027C18.8751 9.5154 18.4144 9.04712 17.8195 9.04712C17.5291 9.04712 17.2983 9.14931 17.078 9.36962L13.9434 12.4732L10.8419 9.38134C10.6408 9.16853 10.3983 9.06634 10.0887 9.06634C9.50554 9.06634 9.03516 9.52501 9.03516 10.1123C9.03516 10.3955 9.15328 10.6498 9.35226 10.8466L12.4526 13.9566L9.35226 17.0665C9.15328 17.2655 9.03516 17.5198 9.03516 17.8008C9.03516 18.3977 9.50554 18.8681 10.0887 18.8681Z" fill="black"/>
</svg>
