<svg width="28" height="28" viewBox="0 0 28 28" fill="none" xmlns="http://www.w3.org/2000/svg">
<path d="M14.105 26.21C20.7369 26.21 26.2121 20.7273 26.2121 14.105C26.2121 7.47312 20.7273 2 14.0954 2C7.47523 2 2 7.47312 2 14.105C2 20.7273 7.48484 26.21 14.105 26.21ZM14.105 23.8255C8.71085 23.8255 4.39412 19.4991 4.39412 14.105C4.39412 8.71085 8.70124 4.38452 14.0954 4.38452C19.4895 4.38452 23.8276 8.71085 23.8276 14.105C23.8276 19.4991 19.4991 23.8255 14.105 23.8255Z" fill="black"/>
<path d="M17.0855 18.9043C17.7239 18.9043 18.1868 18.4531 18.1868 17.8255C18.1868 17.3105 17.9592 17.0106 17.3658 16.7466L11.8758 14.1198V14.0368L17.3658 11.3502C17.9496 11.0862 18.1868 10.767 18.1868 10.2617C18.1868 9.64367 17.7335 9.1925 17.1047 9.1925C16.83 9.1925 16.6577 9.2436 16.4449 9.35L9.57023 12.983C9.05296 13.2577 8.80078 13.6154 8.80078 14.1155C8.80078 14.6361 9.03796 14.9586 9.57023 15.2312L16.4449 18.7585C16.6481 18.8532 16.83 18.9043 17.0855 18.9043Z" fill="black"/>
</svg>
