<svg width="28" height="28" viewBox="0 0 28 28" fill="none" xmlns="http://www.w3.org/2000/svg">
<path d="M13.7945 8.95998C14.8673 8.95998 15.7293 8.11999 15.7293 7.05593C15.7293 5.97898 14.8673 5.13171 13.7945 5.13171C12.7272 5.13171 11.8757 5.97898 11.8757 7.05593C11.8757 8.11999 12.7272 8.95998 13.7945 8.95998ZM13.7945 22.8087C14.8673 22.8087 15.7293 21.9762 15.7293 20.893C15.7293 19.8277 14.8673 18.9805 13.7945 18.9805C12.7272 18.9805 11.8757 19.8277 11.8757 20.893C11.8757 21.9762 12.7272 22.8087 13.7945 22.8087ZM5.29608 15.2265H22.2993C22.9947 15.2265 23.5954 14.6258 23.5954 13.9102C23.5954 13.1947 22.9947 12.6057 22.2993 12.6057H5.29608C4.61335 12.6057 4 13.1947 4 13.9102C4 14.6258 4.61335 15.2265 5.29608 15.2265Z" fill="black"/>
</svg>
