<svg width="28" height="28" viewBox="0 0 28 28" fill="none" xmlns="http://www.w3.org/2000/svg">
<path d="M14.105 26.21C20.7369 26.21 26.2121 20.7273 26.2121 14.105C26.2121 7.47312 20.7273 2 14.0954 2C7.47523 2 2 7.47312 2 14.105C2 20.7273 7.48484 26.21 14.105 26.21ZM14.105 23.8255C8.71085 23.8255 4.39412 19.4991 4.39412 14.105C4.39412 8.71085 8.70124 4.38452 14.0954 4.38452C19.4895 4.38452 23.8276 8.71085 23.8276 14.105C23.8276 19.4991 19.4991 23.8255 14.105 23.8255Z" fill="black"/>
<path d="M9.96289 11.874C9.96289 12.3826 10.3557 12.7754 10.8739 12.7754H13.2125V15.0887C13.2125 15.5855 13.6053 15.9901 14.1139 15.9901C14.6246 15.9901 15.027 15.5855 15.027 15.0908V12.7754H17.3422C17.8508 12.7754 18.2553 12.3826 18.2553 11.874C18.2553 11.3654 17.8508 10.963 17.3422 10.963H15.027V8.64973C15.027 8.14114 14.6246 7.74622 14.1139 7.74622C13.6053 7.74622 13.2125 8.14114 13.2125 8.64973V10.963H10.8739C10.3557 10.963 9.96289 11.3654 9.96289 11.874ZM9.96289 18.7941C9.96289 19.2676 10.3705 19.7051 10.9067 19.7051H17.3115C17.836 19.7051 18.2553 19.2676 18.2553 18.7941C18.2553 18.2973 17.836 17.8864 17.3115 17.8864H10.9067C10.3705 17.8864 9.96289 18.2973 9.96289 18.7941Z" fill="black"/>
</svg>
