<svg width="28" height="28" viewBox="0 0 28 28" fill="none" xmlns="http://www.w3.org/2000/svg">
<path d="M13.2477 3.94429H14.8037V0.771089C14.8037 0.336092 14.4537 0 14.0187 0C13.5858 0 13.2477 0.34781 13.2477 0.782807V3.94429ZM14.0187 10.2457C16.1365 10.2457 17.8315 8.55068 17.8315 6.44459C17.8315 4.32679 16.1365 2.63179 14.0187 2.63179C11.9105 2.63179 10.2155 4.32679 10.2155 6.44459C10.2155 8.55068 11.9105 10.2457 14.0187 10.2457ZM14.0187 8.16186C13.0252 8.16186 12.3015 7.4285 12.3015 6.44459C12.3015 5.45108 13.0252 4.71771 14.0187 4.71771C15.0123 4.71771 15.7456 5.45108 15.7456 6.44459C15.7456 7.4285 15.0123 8.16186 14.0187 8.16186ZM13.5847 9.05506L11.4622 8.53804L6.87547 23.9608C6.69992 24.5332 7.0543 25.1386 7.64679 25.2928C8.23718 25.4524 8.80648 25.1215 8.98624 24.5215L13.5847 9.05506ZM7.46375 23.257L6.55016 26.674C6.45547 27.0527 6.65656 27.4284 7.04492 27.5273C7.43328 27.6316 7.79937 27.4209 7.90578 27.0326L8.81726 23.6273L7.46375 23.257ZM14.4624 9.05506L19.0608 24.5215C19.2406 25.1215 19.812 25.4524 20.4045 25.2928C20.9928 25.1386 21.3376 24.5332 21.1737 23.9608L16.587 8.53804L14.4624 9.05506ZM20.5833 23.257L19.2223 23.6273L20.1413 27.0326C20.2477 27.4209 20.6138 27.6316 21.0022 27.5273C21.3809 27.4284 21.5916 27.0527 21.4873 26.674L20.5833 23.257ZM5.8557 15.6286C5.37148 15.6286 5 15.9958 5 16.4726C5 16.9472 5.37148 17.3283 5.8557 17.3283H22.1935C22.666 17.3283 23.0471 16.9472 23.0471 16.4726C23.0471 15.9958 22.666 15.6286 22.1935 15.6286H5.8557ZM14.8217 14.4401C14.8217 13.9971 14.4617 13.6371 14.0187 13.6371C13.5779 13.6371 13.2254 13.9971 13.2254 14.4401V18.5051C13.2254 18.9459 13.5779 19.308 14.0187 19.308C14.4617 19.308 14.8217 18.9459 14.8217 18.5051V14.4401Z" fill="black"/>
</svg>
