<svg width="28" height="28" viewBox="0 0 28 28" fill="none" xmlns="http://www.w3.org/2000/svg">
<path d="M6.84421 24.8972H21.0295C23.5685 24.8972 24.8737 23.5919 24.8737 21.0914V6.82921C24.8737 4.32656 23.5685 3.02344 21.0295 3.02344H6.84421C4.31484 3.02344 3 4.31695 3 6.82921V21.0914C3 23.6016 4.31484 24.8972 6.84421 24.8972Z" fill="black"/>
<path d="M10.1194 18.9047C9.50226 18.9047 9.02344 18.4141 9.02344 17.7949C9.02344 17.5076 9.13406 17.2277 9.34898 17.0266L12.4052 13.9566L9.34898 10.8981C9.13406 10.6874 9.02344 10.4172 9.02344 10.1278C9.02344 9.49894 9.50226 9.02972 10.1194 9.02972C10.4374 9.02972 10.6821 9.13613 10.8991 9.34144L13.9682 12.401L17.0587 9.33183C17.2854 9.1073 17.5397 9.0105 17.8385 9.0105C18.4556 9.0105 18.944 9.48933 18.944 10.1085C18.944 10.4055 18.843 10.6565 18.6185 10.8885L15.5451 13.9566L18.6089 17.017C18.8238 17.2181 18.9344 17.498 18.9344 17.7949C18.9344 18.4141 18.446 18.9047 17.8193 18.9047C17.5108 18.9047 17.2256 18.7983 17.0203 18.5812L13.9682 15.5259L10.928 18.5812C10.713 18.7983 10.4374 18.9047 10.1194 18.9047Z" fill="white"/>
</svg>
