<svg width="28" height="28" viewBox="0 0 28 28" fill="none" xmlns="http://www.w3.org/2000/svg">
<path d="M6.84421 24.8972H21.0295C23.5685 24.8972 24.8737 23.5919 24.8737 21.0914V6.82921C24.8737 4.32656 23.5685 3.02344 21.0295 3.02344H6.84421C4.31484 3.02344 3 4.31695 3 6.82921V21.0914C3 23.6016 4.31484 24.8972 6.84421 24.8972ZM6.97733 22.6013C5.88772 22.6013 5.29592 22.0371 5.29592 20.8985V7.01999C5.29592 5.88139 5.88772 5.31936 6.97733 5.31936H20.8964C21.9764 5.31936 22.5778 5.88139 22.5778 7.01999V20.8985C22.5778 22.0371 21.9764 22.6013 20.8964 22.6013H6.97733Z" fill="black"/>
<path d="M16.9331 18.7441C17.5716 18.7441 18.0344 18.293 18.0344 17.6653C18.0344 17.1504 17.8069 16.8504 17.2134 16.5865L11.7234 13.9596V13.8766L17.2134 11.19C17.7973 10.9261 18.0344 10.6069 18.0344 10.1016C18.0344 9.48352 17.5812 9.03235 16.9523 9.03235C16.6873 9.03235 16.5054 9.08344 16.2905 9.18985L9.41789 12.8229C8.90063 13.0976 8.64844 13.4552 8.64844 13.9554C8.64844 14.4759 8.88563 14.7984 9.41789 15.071L16.2905 18.5984C16.4958 18.693 16.6873 18.7441 16.9331 18.7441Z" fill="black"/>
</svg>
