<svg width="28" height="28" viewBox="0 0 28 28" fill="none" xmlns="http://www.w3.org/2000/svg">
<path d="M14.105 26.21C20.7369 26.21 26.2121 20.7273 26.2121 14.105C26.2121 7.47312 20.7273 2 14.0954 2C7.47523 2 2 7.47312 2 14.105C2 20.7273 7.48484 26.21 14.105 26.21Z" fill="black"/>
<path d="M11.0266 19.043C10.3786 19.043 9.89648 18.5705 9.89648 17.9333C9.89648 17.3991 10.1412 17.0895 10.7463 16.8256L16.3826 14.1198V14.0368L10.7463 11.2711C10.1529 11.0072 9.89648 10.6784 9.89648 10.1539C9.89648 9.52621 10.369 9.05371 11.0074 9.05371C11.2917 9.05371 11.4736 9.11652 11.6885 9.22082L18.7479 12.9521C19.2768 13.2385 19.5461 13.6058 19.5461 14.1155C19.5461 14.6553 19.2918 14.9874 18.7479 15.26L11.6885 18.8855C11.4832 18.9823 11.2917 19.043 11.0266 19.043Z" fill="white"/>
</svg>
