<svg width="28" height="28" viewBox="0 0 28 28" fill="none" xmlns="http://www.w3.org/2000/svg">
<path d="M5.82319 24.8938C7.16943 24.8938 7.86177 24.0297 8.24778 22.8342L13.3647 6.55842H25.3832C26.1862 6.55842 26.7233 6.04913 26.7233 5.26749C26.7233 4.50718 26.1862 4 25.3832 4H13.3011C11.8612 4 11.2187 4.5571 10.8285 5.82038L5.97319 21.7192H5.736L3.6299 14.2935C3.41287 13.5393 3.00647 13.1713 2.31226 13.1713C1.54351 13.1713 1 13.72 1 14.425C1 14.7058 1.06281 14.9441 1.135 15.1895L3.51602 22.9399C3.87859 24.0958 4.54304 24.8938 5.82319 24.8938ZM15.6144 22.6614C16.105 22.6614 16.3614 22.4859 16.7359 21.9466L19.2517 18.3498H19.3091L21.793 21.9466C22.1666 22.4816 22.4273 22.6614 22.9145 22.6614C23.5764 22.6614 24.0522 22.2187 24.0522 21.5962C24.0522 21.3046 23.9767 21.062 23.7651 20.7909L20.7808 16.7519L23.7843 12.6894C23.9959 12.399 24.0831 12.1544 24.0831 11.882C24.0831 11.2905 23.6148 10.8477 22.9743 10.8477C22.4966 10.8477 22.2168 11.0179 21.872 11.5337L19.4671 15.1497H19.3979L16.911 11.5241C16.5674 11.0115 16.2822 10.8477 15.7916 10.8477C15.149 10.8477 14.6422 11.3193 14.6422 11.9226C14.6422 12.243 14.7294 12.4663 14.9699 12.778L17.8368 16.7017L14.8119 20.8485C14.6024 21.1293 14.5344 21.3334 14.5344 21.6367C14.5344 22.2187 14.9931 22.6614 15.6144 22.6614Z" fill="black"/>
</svg>
