<svg width="28" height="28" viewBox="0 0 28 28" fill="none" xmlns="http://www.w3.org/2000/svg">
<path d="M14.105 26.21C20.7369 26.21 26.2121 20.7273 26.2121 14.105C26.2121 7.47312 20.7273 2 14.0954 2C7.47523 2 2 7.47312 2 14.105C2 20.7273 7.48484 26.21 14.105 26.21Z" fill="black"/>
<path d="M10.9996 20.0028C10.4294 20.0028 10.0345 19.5387 10.1451 18.9631L10.5887 16.8162H9.6571C9.20382 16.8162 8.875 16.4853 8.875 16.0044C8.875 15.4693 9.26546 15.0713 9.82397 15.0713H10.9548L11.406 12.871H10.4948C10.0319 12.871 9.70515 12.5305 9.70515 12.0591C9.70515 11.5124 10.0956 11.1144 10.652 11.1144H11.7637L12.2244 8.88011C12.3308 8.34292 12.6777 8.06519 13.2395 8.06519C13.8034 8.06519 14.1992 8.5473 14.0832 9.10487L13.6747 11.1144H15.7L16.1704 8.88011C16.2746 8.34292 16.6236 8.06519 17.1683 8.06519C17.7376 8.06519 18.1356 8.53769 18.0367 9.10487L17.6132 11.1144H18.5394C18.9948 11.1144 19.3236 11.4528 19.3236 11.9284C19.3236 12.4709 18.9332 12.871 18.3725 12.871H17.263L16.8043 15.0713H17.7071C18.1646 15.0713 18.4914 15.4077 18.4914 15.8811C18.4914 16.4141 18.0988 16.8162 17.5424 16.8162H16.434L15.9456 19.1891C15.8371 19.7209 15.4785 20.0028 14.9125 20.0028C14.3422 20.0028 13.959 19.5409 14.075 18.9652L14.5145 16.8258H12.4977L11.9901 19.1975C11.889 19.7251 11.556 20.0028 10.9996 20.0028ZM12.7065 15.2647H14.9771L15.5167 12.7168H13.2289L12.7065 15.2647Z" fill="white"/>
</svg>
