<svg width="28" height="28" viewBox="0 0 28 28" fill="none" xmlns="http://www.w3.org/2000/svg">
<path d="M7.38515 25.9542C8.09319 25.9542 8.57928 25.582 8.726 24.8496L12.8051 4.54689C12.8327 4.45126 12.8583 4.26517 12.8583 4.10228C12.8583 3.42893 12.3815 3.02698 11.6883 3.02698C10.9012 3.02698 10.5016 3.44932 10.3645 4.16251L6.28547 24.446C6.25782 24.5822 6.23438 24.7587 6.23438 24.8906C6.23438 25.564 6.69399 25.9542 7.38515 25.9542ZM15.0171 25.9542C15.7369 25.9542 16.2133 25.582 16.3622 24.8496L20.4487 4.54689C20.4647 4.45126 20.4902 4.26517 20.4902 4.10228C20.4902 3.42893 20.0135 3.02698 19.3319 3.02698C18.5332 3.02698 18.1474 3.45354 18.0082 4.16251L13.9195 24.446C13.894 24.5822 13.8781 24.7587 13.8781 24.8906C13.8781 25.564 14.3355 25.9542 15.0171 25.9542ZM5.6571 11.4246H22.7531C23.5727 11.4246 24.113 10.8673 24.113 10.0826C24.113 9.45096 23.6812 8.97424 23.0084 8.97424H5.91444C5.10234 8.97424 4.5525 9.54658 4.5525 10.3409C4.5525 10.9821 4.99594 11.4246 5.6571 11.4246ZM4.1046 19.4887H21.1943C22.0085 19.4887 22.5562 18.9419 22.5562 18.1573C22.5562 17.5256 22.1149 17.0447 21.4538 17.0447H4.35983C3.53812 17.0447 3 17.6149 3 18.4092C3 19.0526 3.42961 19.4887 4.1046 19.4887Z" fill="black"/>
</svg>
