<svg width="28" height="28" viewBox="0 0 28 28" fill="none" xmlns="http://www.w3.org/2000/svg">
<path d="M0 23.38C0 24.0074 0.526402 24.5242 1.14421 24.5242H25.9551C26.5825 24.5242 27.1089 24.0074 27.1089 23.38C27.1089 22.7547 26.5825 22.2283 25.9551 22.2283H3.92083L20.0946 6.05448C20.538 5.61104 20.5359 4.87511 20.0946 4.42956C19.649 3.98824 18.9206 3.98613 18.4697 4.42956L0.334919 22.5707C0.142499 22.7727 0 23.0736 0 23.38ZM14.1492 23.406H16.4451C16.4894 19.1683 14.7719 15.2718 11.917 12.4642L10.2825 14.0795C12.7354 16.4692 14.1956 19.783 14.1492 23.406Z" fill="black"/>
</svg>
