<svg width="28" height="28" viewBox="0 0 28 28" fill="none" xmlns="http://www.w3.org/2000/svg">
<path d="M6.84421 24.8972H21.0295C23.5685 24.8972 24.8737 23.5919 24.8737 21.0914V6.82921C24.8737 4.32656 23.5685 3.02344 21.0295 3.02344H6.84421C4.31484 3.02344 3 4.31695 3 6.82921V21.0914C3 23.6016 4.31484 24.8972 6.84421 24.8972ZM6.97733 22.6013C5.88772 22.6013 5.29592 22.0371 5.29592 20.8985V7.01999C5.29592 5.88139 5.88772 5.31936 6.97733 5.31936H20.8964C21.9764 5.31936 22.5778 5.88139 22.5778 7.01999V20.8985C22.5778 22.0371 21.9764 22.6013 20.8964 22.6013H6.97733Z" fill="black"/>
<path d="M10.9865 18.6851C11.2356 18.6851 11.425 18.634 11.624 18.5414L18.4186 15.0499C18.9328 14.7837 19.1732 14.4654 19.1732 13.9554C19.1732 13.4658 18.9178 13.1123 18.4186 12.8419L11.624 9.24471C11.4154 9.14252 11.2356 9.09143 10.9652 9.09143C10.3586 9.09143 9.90625 9.53627 9.90625 10.1374C9.90625 10.6343 10.1467 10.9472 10.7179 11.2048L16.1679 13.8766V13.9596L10.7179 16.5717C10.1371 16.8293 9.90625 17.123 9.90625 17.6295C9.90625 18.2402 10.3682 18.6851 10.9865 18.6851Z" fill="black"/>
</svg>
