<svg width="28" height="28" viewBox="0 0 28 28" fill="none" xmlns="http://www.w3.org/2000/svg">
<path d="M7.30358 14.1802C9.96655 14.1802 11.5976 12.0617 11.5976 8.65997C11.5976 5.24982 9.95272 3.18544 7.30358 3.18544C4.64695 3.18544 3 5.25943 3 8.66208C3 12.0755 4.63312 14.1802 7.30358 14.1802ZM7.30358 12.2717C6.02225 12.2717 5.28116 10.9723 5.28116 8.66208C5.28116 6.38489 6.03186 5.08223 7.30358 5.08223C8.57531 5.08223 9.3164 6.37528 9.3164 8.66208C9.3164 10.9723 8.58491 12.2717 7.30358 12.2717ZM21.3375 25.2385C24.0004 25.2385 25.6314 23.1221 25.6314 19.73C25.6314 16.3102 23.9866 14.2437 21.3375 14.2437C18.6829 14.2437 17.0339 16.3198 17.0339 19.7321C17.0339 23.1359 18.667 25.2385 21.3375 25.2385ZM21.3375 23.3417C20.0561 23.3417 19.315 22.0327 19.315 19.7321C19.315 17.4453 20.0657 16.1522 21.3375 16.1522C22.6092 16.1522 23.3503 17.4357 23.3503 19.7321C23.3503 22.0327 22.6188 23.3417 21.3375 23.3417ZM6.87958 25.2369C7.39333 25.5315 8.12317 25.4626 8.53403 24.8623L22.0378 4.81481C22.488 4.16137 22.2461 3.45614 21.7176 3.1456C21.221 2.87232 20.5582 2.96138 20.1122 3.60427L6.60841 23.5911C6.14646 24.2562 6.35107 24.9242 6.87958 25.2369Z" fill="black"/>
</svg>
