<svg width="28" height="28" viewBox="0 0 28 28" fill="none" xmlns="http://www.w3.org/2000/svg">
<path d="M3.84421 24.8781H23.9109C26.4499 24.8781 27.7552 23.5824 27.7552 21.0819V6.81004C27.7552 4.30739 26.4499 3.00427 23.9109 3.00427H3.84421C1.31484 3.00427 0 4.30739 0 6.81004V21.0819C0 23.5824 1.31484 24.8781 3.84421 24.8781ZM3.97733 22.5821C2.88772 22.5821 2.29592 22.018 2.29592 20.8794V7.01043C2.29592 5.87183 2.88772 5.30019 3.97733 5.30019H23.7778C24.8578 5.30019 25.4592 5.87183 25.4592 7.01043V20.8794C25.4592 22.018 24.8578 22.5821 23.7778 22.5821H3.97733Z" fill="black"/>
<path d="M8.46875 13.9352C8.46875 14.5727 8.92531 15.0143 9.5757 15.0143H12.789V18.2372C12.789 18.8801 13.2423 19.3366 13.8702 19.3366C14.5248 19.3366 14.9877 18.8897 14.9877 18.2372V15.0143H18.2106C18.8514 15.0143 19.2983 14.5727 19.2983 13.9352C19.2983 13.2881 18.8514 12.8274 18.2106 12.8274H14.9877V9.61406C14.9877 8.96156 14.5248 8.505 13.8702 8.505C13.2423 8.505 12.789 8.96156 12.789 9.61406V12.8274H9.5757C8.92531 12.8274 8.46875 13.2881 8.46875 13.9352Z" fill="black"/>
</svg>
