<svg width="28" height="28" viewBox="0 0 28 28" fill="none" xmlns="http://www.w3.org/2000/svg">
<path d="M3.84421 24.8781H23.9109C26.4499 24.8781 27.7552 23.5824 27.7552 21.0819V6.81004C27.7552 4.30739 26.4499 3.00427 23.9109 3.00427H3.84421C1.31484 3.00427 0 4.30739 0 6.81004V21.0819C0 23.5824 1.31484 24.8781 3.84421 24.8781Z" fill="black"/>
<path d="M9.27476 15.1111C8.54234 15.1111 8.01758 14.6782 8.01758 13.9704C8.01758 13.253 8.52312 12.8104 9.27476 12.8104H18.503C19.2643 12.8104 19.7485 13.253 19.7485 13.9704C19.7485 14.6782 19.2355 15.1111 18.503 15.1111H9.27476Z" fill="white"/>
</svg>
