<svg width="28" height="28" viewBox="0 0 28 28" fill="none" xmlns="http://www.w3.org/2000/svg">
<path d="M6.84421 24.8972H21.0295C23.5685 24.8972 24.8737 23.5919 24.8737 21.0914V6.82921C24.8737 4.32656 23.5685 3.02344 21.0295 3.02344H6.84421C4.31484 3.02344 3 4.31695 3 6.82921V21.0914C3 23.6016 4.31484 24.8972 6.84421 24.8972ZM6.97733 22.6013C5.88772 22.6013 5.29592 22.0371 5.29592 20.8985V7.01999C5.29592 5.88139 5.88772 5.31936 6.97733 5.31936H20.8964C21.9764 5.31936 22.5778 5.88139 22.5778 7.01999V20.8985C22.5778 22.0371 21.9764 22.6013 20.8964 22.6013H6.97733Z" fill="black"/>
<path d="M13.9213 11.164C14.8115 11.164 15.445 10.5762 15.445 9.81373C15.445 8.96061 14.8211 8.36108 13.9213 8.36108C13.0855 8.36108 12.4382 8.97022 12.4382 9.81373C12.4382 10.5762 13.0855 11.164 13.9213 11.164ZM9.46422 15.0169H18.4286C19.108 15.0169 19.5765 14.621 19.5765 13.9662C19.5765 13.3038 19.1272 12.908 18.4286 12.908H9.46422C8.76766 12.908 8.30664 13.3038 8.30664 13.9662C8.30664 14.621 8.78687 15.0169 9.46422 15.0169ZM13.9213 19.5415C14.8115 19.5415 15.445 18.9441 15.445 18.1795C15.445 17.3381 14.8211 16.7407 13.9213 16.7407C13.0855 16.7407 12.4382 17.3381 12.4382 18.1795C12.4382 18.9441 13.0855 19.5415 13.9213 19.5415Z" fill="black"/>
</svg>
