<svg width="28" height="28" viewBox="0 0 28 28" fill="none" xmlns="http://www.w3.org/2000/svg">
<path d="M6.84421 24.8972H21.0295C23.5685 24.8972 24.8737 23.5919 24.8737 21.0914V6.82921C24.8737 4.32656 23.5685 3.02344 21.0295 3.02344H6.84421C4.31484 3.02344 3 4.31695 3 6.82921V21.0914C3 23.6016 4.31484 24.8972 6.84421 24.8972Z" fill="black"/>
<path d="M9.36445 15.1069C8.63203 15.1069 8.10938 14.674 8.10938 13.9662C8.10938 13.2487 8.60321 12.8063 9.36445 12.8063H18.5927C19.3443 12.8063 19.8382 13.2487 19.8382 13.9662C19.8382 14.674 19.3251 15.1069 18.5927 15.1069H9.36445Z" fill="white"/>
</svg>
