<svg width="28" height="28" viewBox="0 0 28 28" fill="none" xmlns="http://www.w3.org/2000/svg">
<path d="M14.105 26.21C20.7369 26.21 26.2121 20.7273 26.2121 14.105C26.2121 7.47312 20.7273 2 14.0954 2C7.47523 2 2 7.47312 2 14.105C2 20.7273 7.48484 26.21 14.105 26.21ZM14.105 23.8255C8.71085 23.8255 4.39412 19.4991 4.39412 14.105C4.39412 8.71085 8.70124 4.38452 14.0954 4.38452C19.4895 4.38452 23.8276 8.71085 23.8276 14.105C23.8276 19.4991 19.4991 23.8255 14.105 23.8255Z" fill="black"/>
<path d="M10.2431 19.0283C10.5527 19.0283 10.8124 18.9144 11.0135 18.7037L14.0958 15.6139L17.2015 18.7037C17.4026 18.9048 17.6527 19.0283 17.9623 19.0283C18.5475 19.0283 19.0179 18.5579 19.0179 17.9609C19.0179 17.6682 18.9094 17.4256 18.7008 17.217L15.6026 14.1167L18.7104 10.9972C18.9286 10.779 19.0275 10.546 19.0275 10.2629C19.0275 9.67556 18.5571 9.20728 17.9719 9.20728C17.6836 9.20728 17.4506 9.30947 17.2303 9.52978L14.0958 12.6334L10.9943 9.5415C10.7932 9.32868 10.5527 9.2265 10.2431 9.2265C9.65789 9.2265 9.1875 9.68516 9.1875 10.2725C9.1875 10.5556 9.30563 10.8099 9.50461 11.0068L12.6049 14.1167L9.50461 17.2266C9.30563 17.4256 9.1875 17.6799 9.1875 17.9609C9.1875 18.5579 9.65789 19.0283 10.2431 19.0283Z" fill="black"/>
</svg>
