<svg width="28" height="28" viewBox="0 0 28 28" fill="none" xmlns="http://www.w3.org/2000/svg">
<path d="M14.105 26.21C20.7369 26.21 26.2121 20.7273 26.2121 14.105C26.2121 7.47312 20.7273 2 14.0954 2C7.47523 2 2 7.47312 2 14.105C2 20.7273 7.48484 26.21 14.105 26.21ZM14.105 23.8255C8.71085 23.8255 4.39412 19.4991 4.39412 14.105C4.39412 8.71085 8.70124 4.38452 14.0954 4.38452C19.4895 4.38452 23.8276 8.71085 23.8276 14.105C23.8276 19.4991 19.4991 23.8255 14.105 23.8255Z" fill="black"/>
<path d="M11.1076 19.7731C11.6417 19.7731 11.9588 19.5113 12.0578 19.0039L12.542 16.7164H14.4981L14.0703 18.7855C13.9585 19.3292 14.3237 19.7731 14.8717 19.7731C15.4079 19.7731 15.7485 19.505 15.8549 18.9976L16.3316 16.7068H17.4048C17.9314 16.7068 18.3039 16.3248 18.3039 15.8119C18.3039 15.3587 17.9931 15.0362 17.5557 15.0362H16.686L17.1308 12.9083H18.2052C18.7339 12.9083 19.1085 12.5262 19.1085 12.0134C19.1085 11.5601 18.7956 11.2355 18.3582 11.2355H17.465L17.8672 9.28457C17.964 8.74926 17.582 8.2948 17.0425 8.2948C16.5221 8.2948 16.1891 8.5566 16.0869 9.07152L15.64 11.2355H13.6733L14.0722 9.28457C14.184 8.75886 13.8062 8.2948 13.2625 8.2948C12.7325 8.2948 12.4037 8.5566 12.2994 9.07152L11.8503 11.2355H10.7717C10.2451 11.2355 9.87267 11.6154 9.87267 12.1304C9.87267 12.5816 10.1856 12.9083 10.6283 12.9083H11.5086L11.067 15.0362H9.97344C9.44469 15.0362 9.07227 15.4182 9.07227 15.931C9.07227 16.3822 9.38305 16.7068 9.8204 16.7068H10.719L10.2988 18.7834C10.1902 19.3271 10.5692 19.7731 11.1076 19.7731ZM12.7487 15.2253L13.2477 12.7658H15.4546L14.9406 15.2253H12.7487Z" fill="black"/>
</svg>
