<svg width="28" height="28" viewBox="0 0 28 28" fill="none" xmlns="http://www.w3.org/2000/svg">
<path d="M14.105 26.21C20.7369 26.21 26.2121 20.7273 26.2121 14.105C26.2121 7.47312 20.7273 2 14.0954 2C7.47523 2 2 7.47312 2 14.105C2 20.7273 7.48484 26.21 14.105 26.21Z" fill="black"/>
<path d="M8.37695 14.1125C8.37695 13.4335 8.85366 12.9526 9.52843 12.9526H12.9538V9.5251C12.9538 8.85244 13.4272 8.36401 14.0945 8.36401C14.7735 8.36401 15.2544 8.85244 15.2544 9.5251V12.9526H18.6915C19.3567 12.9526 19.843 13.4335 19.843 14.1125C19.843 14.7819 19.3567 15.2436 18.6915 15.2436H15.2544V18.6807C15.2544 19.3534 14.7735 19.8301 14.0945 19.8301C13.4272 19.8301 12.9538 19.3437 12.9538 18.6807V15.2436H9.52843C8.85366 15.2436 8.37695 14.7819 8.37695 14.1125Z" fill="white"/>
</svg>
