<svg width="28" height="28" viewBox="0 0 28 28" fill="none" xmlns="http://www.w3.org/2000/svg">
<path d="M3.84421 24.8781H23.9109C26.4499 24.8781 27.7552 23.5824 27.7552 21.0819V6.81004C27.7552 4.30739 26.4499 3.00427 23.9109 3.00427H3.84421C1.31484 3.00427 0 4.30739 0 6.81004V21.0819C0 23.5824 1.31484 24.8781 3.84421 24.8781Z" fill="black"/>
<path d="M8.15039 13.9544C8.15039 13.2755 8.63671 12.7945 9.31148 12.7945H12.739V9.36699C12.739 8.69434 13.2103 8.20801 13.8701 8.20801C14.5566 8.20801 15.0396 8.69434 15.0396 9.36699V12.7945H18.4671C19.1398 12.7945 19.6165 13.2755 19.6165 13.9544C19.6165 14.6238 19.1398 15.0855 18.4671 15.0855H15.0396V18.5227C15.0396 19.1953 14.5566 19.6741 13.8701 19.6741C13.2103 19.6741 12.739 19.1857 12.739 18.5227V15.0855H9.31148C8.63671 15.0855 8.15039 14.6238 8.15039 13.9544Z" fill="white"/>
</svg>
