<svg width="34" height="28" viewBox="0 0 34 28" fill="none" xmlns="http://www.w3.org/2000/svg">
<path d="M1.8014 22.5237C4.2417 22.5237 5.36811 21.5204 5.94748 18.7993L7.23701 12.6253H9.3328C10.0568 12.6253 10.5452 12.222 10.5452 11.5474C10.5452 10.9465 10.1454 10.5795 9.54092 10.5795H7.66897L7.97389 9.09752C8.27553 7.68517 8.71897 7.12431 9.93631 7.12431C10.1355 7.12431 10.3209 7.11259 10.4562 7.09877C11.0894 7.0233 11.4075 6.70736 11.4075 6.1465C11.4075 5.37425 10.7871 5.02011 9.5271 5.02011C7.13484 5.02011 5.92945 6.13339 5.38102 8.74455L5.00062 10.5795H3.57492C2.83711 10.5795 2.35289 10.985 2.35289 11.6574C2.35289 12.2604 2.74852 12.6253 3.3689 12.6253H4.56867L3.34289 18.4484C3.03375 19.8992 2.5807 20.4195 1.39007 20.4195C1.22812 20.4195 1.06406 20.4334 0.950151 20.4451C0.324608 20.528 0 20.8801 0 21.4187C0 22.1696 0.608669 22.5237 1.8014 22.5237ZM16.3516 22.543C16.8239 22.543 17.1579 22.2781 17.1579 21.8122C17.1579 21.6069 17.1164 21.4815 16.9685 21.1637C15.6274 18.9003 14.8851 16.4502 14.8851 13.789C14.8851 11.209 15.5889 8.66486 16.9685 6.38978C17.1164 6.07408 17.1579 5.9487 17.1579 5.74338C17.1579 5.29667 16.8239 5.0105 16.3516 5.0105C15.8552 5.0105 15.4661 5.24745 15.0237 5.87276C13.3364 8.05409 12.5039 10.7925 12.5039 13.7794C12.5039 16.7727 13.3235 19.4396 15.0237 21.6828C15.464 22.3102 15.8552 22.543 16.3516 22.543ZM19.1753 19.6463C19.6242 19.6463 19.919 19.4963 20.2816 18.969L22.8058 15.3317H22.8569L25.4482 19.0339C25.7812 19.5115 26.0814 19.6463 26.4703 19.6463C27.1467 19.6463 27.6027 19.1888 27.6027 18.5776C27.6027 18.3064 27.5252 18.0617 27.3412 17.8161L24.3623 13.7674L27.3264 9.81119C27.5198 9.54237 27.6187 9.29768 27.6187 8.99464C27.6187 8.37894 27.1272 7.95988 26.5181 7.95988C26.0203 7.95988 25.7479 8.20035 25.4557 8.64987L23.0357 12.2246H22.9771L20.5455 8.63815C20.2415 8.18652 19.9361 7.95988 19.4064 7.95988C18.7418 7.95988 18.2451 8.46308 18.2451 9.04573C18.2451 9.41932 18.3611 9.67034 18.5409 9.90963L21.4045 13.7384L18.3946 17.8524C18.18 18.1405 18.1216 18.3776 18.1216 18.669C18.1216 19.2294 18.5864 19.6463 19.1753 19.6463ZM29.4313 22.543C29.9298 22.543 30.3168 22.3081 30.7593 21.6828C32.4658 19.4417 33.2812 16.7727 33.2812 13.7794C33.2812 10.7925 32.4402 8.0583 30.7593 5.87276C30.3189 5.24534 29.9298 5.0105 29.4313 5.0105C28.9591 5.0105 28.6251 5.29667 28.6251 5.74338C28.6251 5.9487 28.6687 6.07408 28.8145 6.38978C30.194 8.66486 30.8978 11.209 30.8978 13.789C30.8978 16.4502 30.1556 18.9003 28.8145 21.1637C28.6687 21.4815 28.6251 21.6069 28.6251 21.8122C28.6251 22.2589 28.9591 22.543 29.4313 22.543Z" fill="black"/>
</svg>
