<svg width="28" height="28" viewBox="0 0 28 28" fill="none" xmlns="http://www.w3.org/2000/svg">
<path d="M6.84421 24.8972H21.0295C23.5685 24.8972 24.8737 23.5919 24.8737 21.0914V6.82921C24.8737 4.32656 23.5685 3.02344 21.0295 3.02344H6.84421C4.31484 3.02344 3 4.31695 3 6.82921V21.0914C3 23.6016 4.31484 24.8972 6.84421 24.8972Z" fill="black"/>
<path d="M10.8901 18.8829C10.2399 18.8829 9.75781 18.4104 9.75781 17.7731C9.75781 17.239 10.0046 16.9294 10.6098 16.6655L16.2556 13.9596V13.8766L10.6098 11.111C10.0142 10.8471 9.75781 10.5182 9.75781 9.9937C9.75781 9.36604 10.2303 8.89355 10.8687 8.89355C11.1551 8.89355 11.337 8.95636 11.5594 9.06065L18.6209 12.7919C19.1382 13.0784 19.4096 13.4456 19.4096 13.9554C19.4096 14.4951 19.1532 14.8273 18.6209 15.0998L11.5594 18.7254C11.3466 18.8222 11.1551 18.8829 10.8901 18.8829Z" fill="white"/>
</svg>
