<svg width="28" height="28" viewBox="0 0 28 28" fill="none" xmlns="http://www.w3.org/2000/svg">
<path d="M14.105 26.21C20.7369 26.21 26.2121 20.7273 26.2121 14.105C26.2121 7.47312 20.7273 2 14.0954 2C7.47523 2 2 7.47312 2 14.105C2 20.7273 7.48484 26.21 14.105 26.21ZM14.105 23.8255C8.71085 23.8255 4.39412 19.4991 4.39412 14.105C4.39412 8.71085 8.70124 4.38452 14.0954 4.38452C19.4895 4.38452 23.8276 8.71085 23.8276 14.105C23.8276 19.4991 19.4991 23.8255 14.105 23.8255Z" fill="black"/>
<path d="M14.0757 11.3241C14.9637 11.3241 15.5972 10.7363 15.5972 9.9739C15.5972 9.12077 14.9733 8.52124 14.0757 8.52124C13.2378 8.52124 12.5925 9.13038 12.5925 9.9739C12.5925 10.7363 13.2378 11.3241 14.0757 11.3241ZM9.61851 15.177H18.5808C19.2603 15.177 19.7288 14.7812 19.7288 14.1263C19.7288 13.464 19.2795 13.0681 18.5808 13.0681H9.61851C8.91023 13.0681 8.46094 13.464 8.46094 14.1263C8.46094 14.7812 8.92945 15.177 9.61851 15.177ZM14.0757 19.7016C14.9637 19.7016 15.5972 19.1042 15.5972 18.3397C15.5972 17.4983 14.9733 16.9009 14.0757 16.9009C13.2378 16.9009 12.5925 17.4983 12.5925 18.3397C12.5925 19.1042 13.2378 19.7016 14.0757 19.7016Z" fill="black"/>
</svg>
