<svg width="28" height="28" viewBox="0 0 28 28" fill="none" xmlns="http://www.w3.org/2000/svg">
<path d="M6.84421 24.8972H21.0295C23.5685 24.8972 24.8737 23.5919 24.8737 21.0914V6.82921C24.8737 4.32656 23.5685 3.02344 21.0295 3.02344H6.84421C4.31484 3.02344 3 4.31695 3 6.82921V21.0914C3 23.6016 4.31484 24.8972 6.84421 24.8972Z" fill="black"/>
<path d="M9.57327 17.2662C8.85937 17.2662 8.36133 16.9045 8.36133 16.2298C8.36133 15.5412 8.83804 15.1624 9.57327 15.1624H18.3515C19.0846 15.1624 19.5518 15.5433 19.5518 16.2298C19.5518 16.9045 19.0633 17.2662 18.3494 17.2662H9.57327ZM9.57327 12.7528C8.85937 12.7528 8.36133 12.3912 8.36133 11.7047C8.36133 11.0161 8.83804 10.647 9.57327 10.647H18.3515C19.0846 10.647 19.5518 11.0182 19.5518 11.7047C19.5518 12.3912 19.0633 12.7528 18.3494 12.7528H9.57327Z" fill="white"/>
</svg>
