<svg width="28" height="28" viewBox="0 0 28 28" fill="none" xmlns="http://www.w3.org/2000/svg">
<path d="M3 8.90391C3 9.42843 3.42023 9.84867 3.95648 9.84867H6.21516V12.1148C6.21516 12.6511 6.645 13.0638 7.16203 13.0617C7.69616 13.0617 8.1164 12.6415 8.1164 12.1148V9.84867H10.3826C10.9092 9.84867 11.3391 9.42843 11.3391 8.90391C11.3391 8.37727 10.9092 7.94743 10.3826 7.94743H8.1164V5.67914C8.1164 5.1525 7.68655 4.72266 7.16203 4.72266C6.63539 4.72266 6.21516 5.1525 6.21516 5.67914V7.94743H3.95648C3.42023 7.94743 3 8.37727 3 8.90391ZM15.1561 14.5493L21.8116 4.6971C21.9905 4.44491 22.068 4.21828 22.068 3.95437C22.068 3.4118 21.6052 3 21.0509 3C20.5648 3 20.3084 3.16055 19.9486 3.68953L13.3106 13.5642L6.6075 23.4478C6.44039 23.6937 6.34359 23.9044 6.34359 24.2065C6.34359 24.7842 6.83718 25.162 7.41609 25.162C7.85765 25.162 8.11616 24.9811 8.4546 24.4927L15.1561 14.5493ZM17.0691 20.0541C17.0691 20.5807 17.4893 21.0105 18.0159 21.0105H24.4537C24.9783 21.0105 25.4081 20.5807 25.4081 20.0541C25.4081 19.5295 24.9783 19.1072 24.4537 19.1072H18.0159C17.4893 19.1072 17.0691 19.5295 17.0691 20.0541Z" fill="black"/>
</svg>
