<svg width="28" height="28" viewBox="0 0 28 28" fill="none" xmlns="http://www.w3.org/2000/svg">
<path d="M14.105 26.2301C20.7369 26.2301 26.2121 20.7549 26.2121 14.123C26.2121 7.50291 20.7273 2.01807 14.0954 2.01807C7.47523 2.01807 2 7.50291 2 14.123C2 20.7549 7.48484 26.2301 14.105 26.2301Z" fill="black"/>
<path d="M10.7559 12.7699C10.2175 12.7699 9.80664 12.3494 9.80664 11.8207C9.80664 11.2899 10.2175 10.8715 10.7559 10.8715H13.1774V8.46565C13.1774 7.9444 13.5979 7.52393 14.1266 7.52393C14.6575 7.52393 15.0833 7.93479 15.0833 8.46565V10.8715H17.4836C18.0123 10.8715 18.4328 11.2899 18.4328 11.8207C18.4328 12.3494 18.0123 12.7699 17.4836 12.7699H15.0833V15.1683C15.0833 15.6928 14.6575 16.1132 14.1266 16.1132C13.5979 16.1132 13.1774 15.6832 13.1774 15.1619V12.7699H10.7559ZM10.7887 19.9654C10.2323 19.9654 9.80664 19.5194 9.80664 19.0237C9.80664 18.4971 10.2323 18.0607 10.7887 18.0607H17.4508C17.9976 18.0607 18.4328 18.4971 18.4328 19.0237C18.4328 19.5194 17.9976 19.9654 17.4508 19.9654H10.7887Z" fill="white"/>
</svg>
