<svg width="28" height="28" viewBox="0 0 28 28" fill="none" xmlns="http://www.w3.org/2000/svg">
<path d="M7 11.0875C7 11.8262 7.56578 12.392 8.30663 12.392H12.9773V16.9164C12.9773 17.6476 13.543 18.2017 14.2818 18.2017C15.0226 18.2017 15.598 17.6476 15.598 16.9164V12.392H20.2687C21.0095 12.392 21.5732 11.8262 21.5732 11.0875C21.5732 10.3466 21.0095 9.77125 20.2687 9.77125H15.598V5.29702C15.598 4.55617 15.0226 4 14.2818 4C13.543 4 12.9773 4.55617 12.9773 5.29702V9.77125H8.30663C7.56578 9.77125 7 10.3466 7 11.0875ZM7 23.004C7 23.7545 7.57539 24.3203 8.30663 24.3203H20.2687C20.9978 24.3203 21.5732 23.7545 21.5732 23.004C21.5732 22.2653 20.9978 21.6995 20.2687 21.6995H8.30663C7.57539 21.6995 7 22.2653 7 23.004Z" fill="black"/>
</svg>
