<svg width="28" height="28" viewBox="0 0 28 28" fill="none" xmlns="http://www.w3.org/2000/svg">
<path d="M14.105 26.21C20.7369 26.21 26.2121 20.7273 26.2121 14.105C26.2121 7.47312 20.7273 2 14.0954 2C7.47523 2 2 7.47312 2 14.105C2 20.7273 7.48484 26.21 14.105 26.21Z" fill="black"/>
<path d="M14.0849 11.2274C13.213 11.2274 12.5359 10.6119 12.5359 9.81549C12.5359 8.93049 13.213 8.2937 14.0849 8.2937C15.0282 8.2937 15.6702 8.92088 15.6702 9.81549C15.6702 10.6119 15.0186 11.2274 14.0849 11.2274ZM9.45555 15.2248C8.73461 15.2248 8.24805 14.813 8.24805 14.1263C8.24805 13.4342 8.71539 13.0182 9.45555 13.0182H18.7623C19.4928 13.0182 19.9602 13.4342 19.9602 14.1263C19.9602 14.813 19.4736 15.2248 18.7623 15.2248H9.45555ZM14.0849 19.9292C13.213 19.9292 12.5359 19.3062 12.5359 18.5077C12.5359 17.6227 13.213 16.9977 14.0849 16.9977C15.0282 16.9977 15.6702 17.6227 15.6702 18.5077C15.6702 19.3062 15.0186 19.9292 14.0849 19.9292Z" fill="white"/>
</svg>
