<svg width="28" height="28" viewBox="0 0 28 28" fill="none" xmlns="http://www.w3.org/2000/svg">
<path d="M6.84421 24.8972H21.0295C23.5685 24.8972 24.8737 23.5919 24.8737 21.0914V6.82921C24.8737 4.32656 23.5685 3.02344 21.0295 3.02344H6.84421C4.31484 3.02344 3 4.31695 3 6.82921V21.0914C3 23.6016 4.31484 24.8972 6.84421 24.8972Z" fill="black"/>
<path d="M10.8727 19.8427C10.2928 19.8427 9.8979 19.3786 10.0085 18.803L10.4597 16.6561H9.52055C9.06516 16.6561 8.73633 16.3251 8.73633 15.8442C8.73633 15.3091 9.1268 14.9112 9.68742 14.9112H10.8162L11.2695 12.7109H10.3582C9.89321 12.7109 9.56649 12.3703 9.56649 11.899C9.56649 11.3522 9.96657 10.9543 10.5155 10.9543H11.6346L12.0879 8.71995C12.1922 8.18277 12.5391 7.90503 13.1029 7.90503C13.6647 7.90503 14.0606 8.38714 13.9446 8.94471L13.5361 10.9543H15.5613L16.0317 8.71995C16.1381 8.18277 16.4871 7.90503 17.0297 7.90503C17.5989 7.90503 18.0065 8.37753 17.9001 8.94471L17.4766 10.9543H18.4029C18.8561 10.9543 19.185 11.2927 19.185 11.7682C19.185 12.3108 18.7945 12.7109 18.2339 12.7109H17.1243L16.6678 14.9112H17.5685C18.026 14.9112 18.3527 15.2475 18.3527 15.7209C18.3527 16.2539 17.9622 16.6561 17.4037 16.6561H16.2975L15.8069 19.0289C15.6984 19.5607 15.3398 19.8427 14.7759 19.8427C14.2057 19.8427 13.8225 19.3807 13.9364 18.8051L14.3779 16.6657H12.3591L11.8631 19.0373C11.7525 19.5649 11.4173 19.8427 10.8727 19.8427ZM12.5679 15.1045H14.8502L15.378 12.5567H13.0924L12.5679 15.1045Z" fill="white"/>
</svg>
