<svg width="28" height="28" viewBox="0 0 28 28" fill="none" xmlns="http://www.w3.org/2000/svg">
<path d="M7.24921 22.0762C7.64905 22.0762 7.95397 21.9518 8.26639 21.803L21.1598 16.0136C22.0378 15.6108 22.6294 15.0065 22.6294 14.0878C22.6294 13.1808 22.0378 12.5637 21.1598 12.1704L8.26639 6.25734C7.97412 6.10851 7.68725 6.01172 7.31507 6.01172C6.53578 6.01172 6 6.56859 6 7.34788C6 8.01772 6.34453 8.41099 7.00335 8.70021L19.0854 13.9376V14.0728L7.00124 19.3359C6.31922 19.6315 6 20.0311 6 20.7157C6 21.5121 6.50086 22.0762 7.24921 22.0762Z" fill="black"/>
</svg>
