<svg width="28" height="28" viewBox="0 0 28 28" fill="none" xmlns="http://www.w3.org/2000/svg">
<path d="M3.95648 9.79851H10.3826C10.9092 9.79851 11.3391 9.37828 11.3391 8.85164C11.3391 8.32711 10.9092 7.89727 10.3826 7.89727H3.95648C3.42023 7.89727 3 8.32711 3 8.85164C3 9.37828 3.42023 9.79851 3.95648 9.79851ZM7.4128 25.162C7.85647 25.162 8.11288 24.9811 8.45342 24.4927L15.251 14.3913L21.8105 4.6971C21.9893 4.44491 22.0648 4.21828 22.0648 3.95437C22.0648 3.4118 21.604 3 21.0476 3C20.5615 3 20.3051 3.16055 19.9474 3.68953L13.3266 13.5354L6.60422 23.4478C6.43711 23.6937 6.34242 23.9044 6.34242 24.2065C6.34242 24.7842 6.83601 25.162 7.4128 25.162ZM17.0691 20.0135C17.0691 20.5402 17.4893 20.9604 18.0159 20.9604H20.2917V23.2383C20.2917 23.7649 20.712 24.1852 21.2386 24.1852C21.7631 24.1852 22.193 23.7649 22.193 23.2383V20.9604H24.4537C24.9783 20.9604 25.4081 20.5402 25.4081 20.0135C25.4081 19.4869 24.9783 19.057 24.4537 19.057H22.193V16.8005C22.193 16.2663 21.7535 15.8419 21.2386 15.8461C20.7023 15.8461 20.2917 16.2759 20.2917 16.8005V19.057H18.0159C17.4893 19.057 17.0691 19.4869 17.0691 20.0135Z" fill="black"/>
</svg>
