<svg width="28" height="28" viewBox="0 0 28 28" fill="none" xmlns="http://www.w3.org/2000/svg">
<path d="M6.84421 24.8972H21.0295C23.5685 24.8972 24.8737 23.5919 24.8737 21.0914V6.82921C24.8737 4.32656 23.5685 3.02344 21.0295 3.02344H6.84421C4.31484 3.02344 3 4.31695 3 6.82921V21.0914C3 23.6016 4.31484 24.8972 6.84421 24.8972Z" fill="black"/>
<path d="M13.9462 11.0672C13.0743 11.0672 12.3994 10.4517 12.3994 9.65533C12.3994 8.77034 13.0743 8.13354 13.9462 8.13354C14.8896 8.13354 15.5336 8.76073 15.5336 9.65533C15.5336 10.4517 14.88 11.0672 13.9462 11.0672ZM9.31686 15.0647C8.60765 15.0647 8.10938 14.6529 8.10938 13.9662C8.10938 13.2741 8.58632 12.8581 9.31686 12.8581H18.6257C19.3563 12.8581 19.8215 13.2741 19.8215 13.9662C19.8215 14.6529 19.335 15.0647 18.6257 15.0647H9.31686ZM13.9462 19.7691C13.0743 19.7691 12.3994 19.1461 12.3994 18.3476C12.3994 17.4626 13.0743 16.8375 13.9462 16.8375C14.8896 16.8375 15.5336 17.4626 15.5336 18.3476C15.5336 19.1461 14.88 19.7691 13.9462 19.7691Z" fill="white"/>
</svg>
