<svg width="28" height="28" viewBox="0 0 28 28" fill="none" xmlns="http://www.w3.org/2000/svg">
<path d="M8.8846 24.5742H19.5712C20.3523 24.5742 20.8916 24.098 20.8916 23.3473C20.8916 22.6062 20.3523 22.1107 19.5712 22.1107H10.2088V21.9947L16.188 15.0834C16.5981 14.6557 16.817 14.1816 16.817 13.7053C16.817 13.2152 16.5981 12.7315 16.1783 12.3113L10.2184 5.57951V5.4635H19.5712C20.3619 5.4635 20.9012 4.96592 20.9012 4.22694C20.9012 3.47414 20.3619 3 19.5712 3H8.89421C7.6839 3 7.00961 3.84328 7.00961 4.77913C7.00961 5.30201 7.22523 5.85888 7.67124 6.29693L14.2094 13.6202V13.7618L7.65202 21.2773C7.21562 21.7153 7 22.2722 7 22.7951C7 23.7309 7.67429 24.5742 8.8846 24.5742Z" fill="black"/>
</svg>
