<svg width="28" height="28" viewBox="0 0 28 28" fill="none" xmlns="http://www.w3.org/2000/svg">
<path d="M6.84421 24.8972H21.0295C23.5685 24.8972 24.8737 23.5919 24.8737 21.0914V6.82921C24.8737 4.32656 23.5685 3.02344 21.0295 3.02344H6.84421C4.31484 3.02344 3 4.31695 3 6.82921V21.0914C3 23.6016 4.31484 24.8972 6.84421 24.8972Z" fill="black"/>
<path d="M8.23828 13.9523C8.23828 13.2734 8.71711 12.7925 9.38976 12.7925H12.8173V9.36495C12.8173 8.6923 13.2886 8.20386 13.9579 8.20386C14.6348 8.20386 15.1178 8.6923 15.1178 9.36495V12.7925H18.555C19.218 12.7925 19.7043 13.2734 19.7043 13.9523C19.7043 14.6217 19.218 15.0834 18.555 15.0834H15.1178V18.5205C15.1178 19.1932 14.6348 19.6699 13.9579 19.6699C13.2886 19.6699 12.8173 19.1836 12.8173 18.5205V15.0834H9.38976C8.71711 15.0834 8.23828 14.6217 8.23828 13.9523Z" fill="white"/>
</svg>
