<svg width="28" height="28" viewBox="0 0 28 28" fill="none" xmlns="http://www.w3.org/2000/svg">
<path d="M14.105 26.21C20.7369 26.21 26.2121 20.7273 26.2121 14.105C26.2121 7.47312 20.7273 2 14.0954 2C7.47523 2 2 7.47312 2 14.105C2 20.7273 7.48484 26.21 14.105 26.21ZM14.105 23.8255C8.71085 23.8255 4.39412 19.4991 4.39412 14.105C4.39412 8.71085 8.70124 4.38452 14.0954 4.38452C19.4895 4.38452 23.8276 8.71085 23.8276 14.105C23.8276 19.4991 19.4991 23.8255 14.105 23.8255Z" fill="black"/>
<path d="M11.1388 18.8452C11.388 18.8452 11.5773 18.7941 11.7667 18.7016L18.5613 15.2101C19.0851 14.9438 19.3256 14.6255 19.3256 14.1155C19.3256 13.6259 19.0701 13.2725 18.5613 13.002L11.7667 9.40487C11.5677 9.30269 11.388 9.25159 11.1196 9.25159C10.5109 9.25159 10.0586 9.69643 10.0586 10.2976C10.0586 10.7945 10.3012 11.1074 10.8702 11.3649L16.3106 14.0368V14.1198L10.8702 16.7319C10.2895 16.9895 10.0586 17.2831 10.0586 17.7896C10.0586 18.4004 10.5205 18.8452 11.1388 18.8452Z" fill="black"/>
</svg>
