<svg width="28" height="28" viewBox="0 0 28 28" fill="none" xmlns="http://www.w3.org/2000/svg">
<path d="M3.84421 24.8781H23.9109C26.4499 24.8781 27.7552 23.5824 27.7552 21.0819V6.81004C27.7552 4.30739 26.4499 3.00427 23.9109 3.00427H3.84421C1.31484 3.00427 0 4.30739 0 6.81004V21.0819C0 23.5824 1.31484 24.8781 3.84421 24.8781ZM3.97733 22.5821C2.88772 22.5821 2.29592 22.018 2.29592 20.8794V7.01043C2.29592 5.87183 2.88772 5.30019 3.97733 5.30019H23.7778C24.8578 5.30019 25.4592 5.87183 25.4592 7.01043V20.8794C25.4592 22.018 24.8578 22.5821 23.7778 22.5821H3.97733Z" fill="black"/>
<path d="M10.5509 18.5435H11.7647C12.3579 18.5435 12.6485 18.2102 12.6485 17.7216V10.1339C12.6485 9.65274 12.3579 9.31946 11.7647 9.31946H10.5509C9.94801 9.31946 9.65527 9.65274 9.65527 10.1339V17.7216C9.65527 18.2102 9.94801 18.5435 10.5509 18.5435ZM16.0235 18.5435H17.2448C17.8305 18.5435 18.1212 18.2102 18.1212 17.7216V10.1339C18.1212 9.65274 17.8305 9.31946 17.2448 9.31946H16.0235C15.4303 9.31946 15.128 9.65274 15.128 10.1339V17.7216C15.128 18.2102 15.4303 18.5435 16.0235 18.5435Z" fill="black"/>
</svg>
