<svg width="28" height="28" viewBox="0 0 28 28" fill="none" xmlns="http://www.w3.org/2000/svg">
<path d="M14.105 26.21C20.7369 26.21 26.2121 20.7273 26.2121 14.105C26.2121 7.47312 20.7273 2 14.0954 2C7.47523 2 2 7.47312 2 14.105C2 20.7273 7.48484 26.21 14.105 26.21Z" fill="black"/>
<path d="M6.51953 12.9971C6.51953 10.9379 7.99703 9.59139 10.2597 9.59139H14.7798V8.16522C14.7798 7.73514 15.0566 7.46045 15.4846 7.46045C15.6592 7.46045 15.8648 7.53287 16.0117 7.6585L18.7232 9.92889C19.0841 10.2291 19.0862 10.6944 18.7232 10.9946L16.0117 13.2533C15.8648 13.3768 15.6592 13.4375 15.4846 13.4375C15.0566 13.4375 14.7798 13.1703 14.7798 12.7231V11.2981H10.1266C8.99898 11.2981 8.23796 12.0048 8.23796 13.0834V13.7492C8.23796 14.2123 7.8653 14.5967 7.37124 14.5967C6.90601 14.5967 6.51953 14.2123 6.51953 13.7492V12.9971ZM21.655 15.2417C21.655 17.3105 20.1754 18.6549 17.9127 18.6549H13.3947V20.0853C13.3947 20.525 13.1254 20.7997 12.6899 20.7997C12.5153 20.7997 12.3173 20.7252 12.1703 20.5995L9.45132 18.3312C9.09039 18.031 9.09039 17.5583 9.45132 17.2559L12.1703 15.0048C12.3076 14.893 12.5153 14.8205 12.6899 14.8205C13.1254 14.8205 13.3947 15.0877 13.3947 15.5253V16.9482H18.0458C19.1734 16.9482 19.9344 16.2416 19.9344 15.1555V14.4971C19.9344 14.0169 20.2996 13.6496 20.8012 13.6496C21.2877 13.6496 21.655 14.0127 21.655 14.4971V15.2417Z" fill="white"/>
</svg>
