<svg width="28" height="28" viewBox="0 0 28 28" fill="none" xmlns="http://www.w3.org/2000/svg">
<path d="M14.105 26.21C20.7369 26.21 26.2121 20.7273 26.2121 14.105C26.2121 7.47312 20.7273 2 14.0954 2C7.47523 2 2 7.47312 2 14.105C2 20.7273 7.48484 26.21 14.105 26.21ZM14.105 23.8255C8.71085 23.8255 4.39412 19.4991 4.39412 14.105C4.39412 8.71085 8.70124 4.38452 14.0954 4.38452C19.4895 4.38452 23.8276 8.71085 23.8276 14.105C23.8276 19.4991 19.4991 23.8255 14.105 23.8255Z" fill="black"/>
<path d="M6.85742 17.2182C6.85742 17.6377 7.18859 17.9476 7.64749 17.9476H9.02726C10.0862 17.9476 10.7391 17.6387 11.5147 16.7501L15.1871 12.4651C15.6645 11.9078 16.0269 11.717 16.6482 11.717H17.6499V12.8382C17.6499 13.2087 17.9012 13.46 18.26 13.46C18.4442 13.46 18.6167 13.3972 18.7285 13.2737L21.0001 11.3996C21.2865 11.1622 21.2982 10.7331 21.016 10.4839L18.7126 8.5705C18.5912 8.47253 18.4304 8.41394 18.26 8.41394C17.8873 8.41394 17.6499 8.64925 17.6499 9.0198V10.2582H16.5992C15.5403 10.2582 14.8777 10.5671 14.1022 11.4557L10.4436 15.7407C9.95656 16.3077 9.61015 16.4888 9.0528 16.4888H7.64749C7.20241 16.4888 6.85742 16.8104 6.85742 17.2182ZM6.85742 10.9876C6.85742 11.3954 7.20241 11.717 7.64749 11.717H9.0528C9.60804 11.717 9.96617 11.9078 10.4436 12.4651L14.1022 16.7501C14.8777 17.6387 15.5403 17.9476 16.5992 17.9476H17.6499V19.2212C17.6499 19.5938 17.8873 19.8291 18.26 19.8291C18.4304 19.8291 18.5912 19.7705 18.7126 19.6705L21.0001 17.7709C21.2982 17.5217 21.3003 17.1064 21.0139 16.8669L18.7285 14.9694C18.6167 14.8459 18.4442 14.7809 18.26 14.7809C17.9012 14.7809 17.6499 15.0322 17.6499 15.4027V16.4888H16.6482C16.0248 16.4888 15.6624 16.298 15.1871 15.7407L11.5147 11.4557C10.7391 10.5671 10.0862 10.2582 9.02726 10.2582H7.64749C7.18859 10.2582 6.85742 10.566 6.85742 10.9876Z" fill="black"/>
</svg>
