<svg width="28" height="28" viewBox="0 0 28 28" fill="none" xmlns="http://www.w3.org/2000/svg">
<path d="M2 14.384C2 21.0138 7.48484 26.489 14.105 26.489C20.7369 26.489 26.2121 21.0138 26.2121 14.384C26.2121 8.57619 22.0135 3.65783 16.5101 2.52908V0.886115C16.5101 -0.00497597 15.8558 -0.244507 15.1365 0.261038L11.202 2.97346C10.5997 3.38642 10.5943 4.04806 11.202 4.46853L15.1269 7.19266C15.8537 7.70782 16.5101 7.47462 16.5101 6.56759V4.98368C20.731 6.03368 23.8159 9.82563 23.8159 14.384C23.8159 19.7781 19.4991 24.1045 14.105 24.1045C8.71085 24.1045 4.37491 19.7781 4.38452 14.384C4.39412 11.2415 5.87421 8.4836 8.1889 6.72133C8.73476 6.24837 8.91452 5.57103 8.50765 4.99658C8.12188 4.45494 7.37188 4.35345 6.74868 4.86368C3.89516 7.00236 2 10.5899 2 14.384Z" fill="black"/>
<path d="M10.5151 19.3767C12.3929 19.3767 13.7075 18.2676 13.7075 16.6518C13.7075 15.4928 12.9254 14.5417 11.7847 14.4234V14.4946C12.7271 14.3348 13.4335 13.4177 13.4335 12.3799C13.4335 10.942 12.2661 9.95544 10.5727 9.95544C9.13789 9.95544 7.9775 10.7735 7.72507 11.8363C7.67726 12.0002 7.65711 12.1342 7.65711 12.28C7.65711 12.7483 7.94773 13.0645 8.38414 13.0645C8.74085 13.0645 8.97288 12.8866 9.12921 12.5095C9.38374 11.8239 9.83585 11.4646 10.5355 11.4646C11.2841 11.4646 11.7959 11.9273 11.7959 12.5936C11.7959 13.2782 11.2967 13.8058 10.528 13.8058H10.1063C9.66054 13.8058 9.36687 14.1006 9.36687 14.553C9.36687 14.9924 9.66382 15.3023 10.1063 15.3023H10.5781C11.4718 15.3023 12.0339 15.813 12.0339 16.5763C12.0339 17.2973 11.4024 17.856 10.531 17.856C9.78663 17.856 9.23655 17.4733 8.97452 16.8058C8.81491 16.4254 8.58288 16.2508 8.23695 16.2508C7.82164 16.2508 7.49609 16.5703 7.49609 17.0353C7.49609 17.1747 7.50992 17.3163 7.5514 17.462C7.81765 18.5362 9.08539 19.3767 10.5151 19.3767ZM17.9978 19.3767C19.9178 19.3767 21.2394 17.56 21.2394 14.6863C21.2394 11.7913 19.9178 9.95544 17.9978 9.95544C16.0703 9.95544 14.7751 11.7248 14.7751 14.6863C14.7751 17.617 16.0799 19.3767 17.9978 19.3767ZM18.0083 17.7942C17.072 17.7942 16.4821 16.646 16.4821 14.6863C16.4821 12.6958 17.0624 11.538 18.0083 11.538C18.9543 11.538 19.525 12.6862 19.525 14.6863C19.525 16.646 18.9446 17.7942 18.0083 17.7942Z" fill="black"/>
</svg>
