<svg width="28" height="28" viewBox="0 0 28 28" fill="none" xmlns="http://www.w3.org/2000/svg">
<path d="M14.105 26.21C20.7369 26.21 26.2121 20.7273 26.2121 14.105C26.2121 7.47312 20.7273 2 14.0954 2C7.47523 2 2 7.47312 2 14.105C2 20.7273 7.48484 26.21 14.105 26.21Z" fill="black"/>
<path d="M6.58789 17.3373C6.58789 16.9114 6.94672 16.576 7.40773 16.576H8.86296C9.44586 16.576 9.8082 16.3906 10.2995 15.8002L11.7528 14.1029L10.2995 12.4055C9.81781 11.8205 9.44375 11.6297 8.86296 11.6297H7.40773C6.94672 11.6297 6.58789 11.2922 6.58789 10.8685C6.58789 10.4213 6.92328 10.1072 7.40773 10.1072H8.83953C9.9282 10.1072 10.6205 10.4183 11.428 11.3504L12.7653 12.9137L14.1027 11.3504C14.9197 10.4183 15.6003 10.1072 16.7028 10.1072H17.8046V8.8156C17.8046 8.43122 18.0484 8.18958 18.4349 8.18958C18.6116 8.18958 18.782 8.24818 18.9055 8.34826L21.3078 10.3372C21.6039 10.6001 21.59 11.0452 21.2919 11.2965L18.9235 13.2439C18.8192 13.3695 18.6233 13.4366 18.4349 13.4366C18.0601 13.4366 17.8046 13.1811 17.8046 12.7925V11.6297H16.7539C16.1071 11.6297 15.7384 11.8205 15.2471 12.4055L13.7896 14.1029L15.2471 15.8002C15.7363 16.381 16.1028 16.576 16.7539 16.576H17.8046V15.4505C17.8046 15.0619 18.0601 14.8065 18.4349 14.8065C18.6233 14.8065 18.8192 14.8735 18.9235 14.997L21.3036 16.97C21.6081 17.2212 21.6039 17.6546 21.2919 17.9176L18.9055 19.8926C18.782 19.9927 18.6116 20.0534 18.4349 20.0534C18.0484 20.0534 17.8046 19.8118 17.8046 19.4274V18.0985H16.7028C15.6003 18.0985 14.9197 17.7833 14.1027 16.8554L12.7653 15.2921L11.428 16.8554C10.6205 17.7833 9.9282 18.0985 8.83953 18.0985H7.40773C6.92328 18.0985 6.58789 17.7727 6.58789 17.3373Z" fill="white"/>
</svg>
