<svg width="28" height="28" viewBox="0 0 28 28" fill="none" xmlns="http://www.w3.org/2000/svg">
<path d="M2 14.384C2 21.0138 7.48484 26.489 14.105 26.489C20.7369 26.489 26.2121 21.0138 26.2121 14.384C26.2121 8.57619 22.0135 3.65783 16.5101 2.52908V0.886115C16.5101 -0.00497597 15.8558 -0.244507 15.1365 0.261038L11.202 2.97346C10.5997 3.38642 10.5943 4.04806 11.202 4.46853L15.1269 7.19266C15.8537 7.70782 16.5101 7.47462 16.5101 6.56759V4.98368C20.731 6.03368 23.8159 9.82563 23.8159 14.384C23.8159 19.7781 19.4991 24.1045 14.105 24.1045C8.71085 24.1045 4.37491 19.7781 4.38452 14.384C4.39412 11.2415 5.87421 8.4836 8.1889 6.72133C8.73476 6.24837 8.91452 5.57103 8.50765 4.99658C8.12188 4.45494 7.37188 4.35345 6.74868 4.86368C3.89516 7.00236 2 10.5899 2 14.384Z" fill="black"/>
<path d="M9.70921 15.4961H18.6132C19.3137 15.4961 19.7991 15.0834 19.7991 14.4074C19.7991 13.7219 19.3329 13.2996 18.6132 13.2996H9.70921C8.98945 13.2996 8.51367 13.7219 8.51367 14.4074C8.51367 15.0834 9.00867 15.4961 9.70921 15.4961Z" fill="black"/>
</svg>
