<svg width="28" height="28" viewBox="0 0 28 28" fill="none" xmlns="http://www.w3.org/2000/svg">
<path d="M14.105 26.21C20.7369 26.21 26.2121 20.7273 26.2121 14.105C26.2121 7.47312 20.7273 2 14.0954 2C7.47523 2 2 7.47312 2 14.105C2 20.7273 7.48484 26.21 14.105 26.21ZM14.105 23.8255C8.71085 23.8255 4.39412 19.4991 4.39412 14.105C4.39412 8.71085 8.70124 4.38452 14.0954 4.38452C19.4895 4.38452 23.8276 8.71085 23.8276 14.105C23.8276 19.4991 19.4991 23.8255 14.105 23.8255Z" fill="black"/>
<path d="M6.59277 14.0984C6.59277 14.5062 6.91645 14.8437 7.32426 14.8437C7.73418 14.8437 8.06746 14.5084 8.06746 14.0984V13.5125C8.06746 12.4754 8.78371 11.775 9.87942 11.775H12.7707V13.1703C12.7707 13.5312 13.0102 13.7612 13.3733 13.7612C13.5458 13.7612 13.7087 13.6984 13.8322 13.5983L16.3468 11.5046C16.6641 11.2458 16.6641 10.8593 16.3468 10.6102L13.8322 8.50692C13.7129 8.40685 13.5479 8.35364 13.3733 8.35364C13.0102 8.35364 12.7707 8.58356 12.7707 8.9445V10.31H10.0158C7.93082 10.31 6.59277 11.5074 6.59277 13.407V14.0984ZM20.4605 14.7931C20.4605 14.3853 20.1273 14.0616 19.7173 14.0616C19.3053 14.0616 18.972 14.3853 18.972 14.7931V15.3791C18.972 16.4258 18.2579 17.1165 17.1622 17.1165H12.841V15.7426C12.841 15.3816 12.6036 15.1538 12.2384 15.1538C12.068 15.1538 11.903 15.2049 11.7795 15.3146L9.25738 17.4083C8.94754 17.6499 8.95926 18.0556 9.2691 18.3069L11.7795 20.3963C11.9009 20.4985 12.0659 20.5496 12.2384 20.5496C12.6132 20.5496 12.841 20.3314 12.841 19.9705V18.5816H17.0237C19.1225 18.5816 20.4605 17.3745 20.4605 15.4845V14.7931ZM19.7195 12.9397C20.1859 12.9397 20.4861 12.6298 20.4861 12.1517V9.33966C20.4861 8.78911 20.1177 8.41856 19.5788 8.41856C19.2167 8.41856 18.9643 8.51653 18.6139 8.79239L17.7305 9.47114C17.5463 9.60638 17.4793 9.76388 17.4793 9.95981C17.4793 10.2525 17.723 10.4921 18.0371 10.4921C18.1627 10.4921 18.3001 10.4527 18.4236 10.3547L19.018 9.87989H18.9294V12.1517C18.9294 12.6298 19.2371 12.9397 19.7195 12.9397Z" fill="black"/>
</svg>
