<svg width="32" height="28" viewBox="0 0 32 28" fill="none" xmlns="http://www.w3.org/2000/svg">
<path d="M22.0884 23.7423C22.8079 23.7423 23.3671 23.2066 23.3671 22.4976V5.264C23.3671 4.55503 22.8079 4.00964 22.0884 4.00964C21.3689 4.00964 20.8001 4.55503 20.8001 5.264V22.4976C20.8001 23.2066 21.3689 23.7423 22.0884 23.7423ZM30.2257 23.7423C30.9548 23.7423 31.514 23.2066 31.514 22.4976V5.264C31.514 4.55503 30.9548 4.00964 30.2257 4.00964C29.504 4.00964 28.9469 4.55503 28.9469 5.264V22.4976C28.9469 23.2066 29.504 23.7423 30.2257 23.7423ZM1.87734 23.2968C2.39366 23.2968 2.82468 23.1444 3.33257 22.8484L15.333 15.794C16.2136 15.2765 16.6537 14.6483 16.6537 13.8728C16.6537 13.0973 16.2199 12.4839 15.333 11.9601L3.33257 4.90777C2.82257 4.60964 2.38944 4.4573 1.87312 4.4573C0.84609 4.4573 0 5.23214 0 6.65432V21.0998C0 22.5198 0.852418 23.2968 1.87734 23.2968ZM2.55749 20.6352C2.4028 20.6352 2.27366 20.5328 2.27366 20.3322V7.42189C2.27366 7.22126 2.4028 7.11884 2.55959 7.11884C2.62358 7.11884 2.70467 7.14767 2.80921 7.21165L13.612 13.589C13.755 13.6701 13.8223 13.7299 13.8223 13.8749C13.8223 14.0083 13.7412 14.0819 13.612 14.163L2.80921 20.5424C2.70889 20.6043 2.62358 20.6352 2.55749 20.6352Z" fill="black"/>
</svg>
