<svg width="28" height="28" viewBox="0 0 28 28" fill="none" xmlns="http://www.w3.org/2000/svg">
<path d="M2 14.384C2 21.0138 7.48484 26.489 14.105 26.489C20.7369 26.489 26.2121 21.0138 26.2121 14.384C26.2121 8.57619 22.0135 3.65783 16.5101 2.52908V0.886115C16.5101 -0.00497597 15.8558 -0.244507 15.1365 0.261038L11.202 2.97346C10.5997 3.38642 10.5943 4.04806 11.202 4.46853L15.1269 7.19266C15.8537 7.70782 16.5101 7.47462 16.5101 6.56759V4.98368C20.731 6.03368 23.8159 9.82563 23.8159 14.384C23.8159 19.7781 19.4991 24.1045 14.105 24.1045C8.71085 24.1045 4.37491 19.7781 4.38452 14.384C4.39412 11.2415 5.87421 8.4836 8.1889 6.72133C8.73476 6.24837 8.91452 5.57103 8.50765 4.99658C8.12188 4.45494 7.37188 4.35345 6.74868 4.86368C3.89516 7.00236 2 10.5899 2 14.384Z" fill="black"/>
<path d="M10.2113 19.3863C12.4004 19.3863 13.6029 17.6212 13.6029 14.4297C13.6029 12.8756 13.2706 11.673 12.6061 10.9455C12.0746 10.3178 11.3075 9.97466 10.3498 9.97466C8.4718 9.97466 7.26172 11.2157 7.26172 13.1704C7.26172 14.8856 8.37102 16.0926 9.94672 16.0926C10.958 16.0926 11.7772 15.5758 12.095 14.7121L12.0322 14.6428C12.0343 14.696 12.0364 14.7714 12.0364 14.9048C12.0364 16.6464 11.3389 17.891 10.1954 17.891C9.65609 17.891 9.22742 17.6245 8.96422 17.1883C8.76922 16.893 8.57117 16.7578 8.23578 16.7578C7.84508 16.7578 7.50242 17.0868 7.50242 17.4965C7.50242 17.6645 7.52258 17.7944 7.61938 17.9774C7.86852 18.4663 8.68555 19.3863 10.2113 19.3863ZM10.4084 14.7196C9.51594 14.7196 8.91031 14.0683 8.91031 13.0874C8.91031 12.0597 9.50633 11.4168 10.4084 11.4168C11.2955 11.4168 11.9108 12.1099 11.9108 13.1067C11.9108 14.0629 11.2934 14.7196 10.4084 14.7196ZM18.0872 19.3767C20.0051 19.3767 21.3289 17.56 21.3289 14.6863C21.3289 11.7913 20.0051 9.95544 18.0872 9.95544C16.1597 9.95544 14.8721 11.7344 14.8721 14.696C14.8721 17.6266 16.1693 19.3767 18.0872 19.3767ZM18.0978 17.7942C17.1614 17.7942 16.5811 16.646 16.5811 14.6863C16.5811 12.6958 17.1518 11.538 18.0978 11.538C19.0533 11.538 19.6144 12.6862 19.6144 14.6863C19.6144 16.646 19.0416 17.7942 18.0978 17.7942Z" fill="black"/>
</svg>
