<svg width="28" height="28" viewBox="0 0 28 28" fill="none" xmlns="http://www.w3.org/2000/svg">
<path d="M6.61718 24.5045C7.11335 24.5045 7.54554 24.3191 8.07756 24.0137L21.8872 16.0246C22.8957 15.4293 23.3094 14.9826 23.3094 14.2581C23.3094 13.5337 22.8957 13.087 21.8872 12.5034L8.07756 4.50461C7.54554 4.19711 7.11335 4.02344 6.61718 4.02344C5.66562 4.02344 5 4.74507 5 5.90171V22.6166C5 23.7733 5.66562 24.5045 6.61718 24.5045ZM7.46584 21.6524C7.39764 21.6524 7.35287 21.6055 7.35287 21.516V6.9981C7.35287 6.90857 7.39764 6.86169 7.46584 6.86169C7.5085 6.86169 7.55326 6.88513 7.60225 6.91818L20.0898 14.1355C20.1463 14.1686 20.1868 14.2016 20.1868 14.2581C20.1868 14.3146 20.1463 14.3573 20.0898 14.3828L7.60225 21.6055C7.55326 21.629 7.5085 21.6524 7.46584 21.6524Z" fill="black"/>
</svg>
