<svg width="28" height="28" viewBox="0 0 28 28" fill="none" xmlns="http://www.w3.org/2000/svg">
<path d="M14.105 26.21C20.7369 26.21 26.2121 20.7273 26.2121 14.105C26.2121 7.47312 20.7273 2 14.0954 2C7.47523 2 2 7.47312 2 14.105C2 20.7273 7.48484 26.21 14.105 26.21Z" fill="black"/>
<path d="M5.96387 14.103C5.96387 11.7786 7.43809 10.2161 9.62176 10.2161C10.784 10.2161 11.7672 10.7083 12.8165 11.7107L14.1189 12.9705L15.431 11.7107C16.4974 10.6794 17.471 10.2161 18.614 10.2161C20.8073 10.2161 22.2836 11.7786 22.2836 14.103C22.2836 16.4177 20.8073 17.9781 18.614 17.9781C17.4806 17.9781 16.5091 17.5148 15.431 16.4835L14.1189 15.2355L12.8165 16.4835C11.7576 17.4956 10.7744 17.9781 9.62176 17.9781C7.43809 17.9781 5.96387 16.4177 5.96387 14.103ZM7.61152 14.103C7.61152 15.4682 8.39715 16.338 9.62176 16.338C10.2932 16.338 10.8857 16.0267 11.6531 15.2999L12.9428 14.103L11.6531 12.906C10.8665 12.16 10.2836 11.8583 9.62176 11.8583C8.39715 11.8583 7.61152 12.7356 7.61152 14.103ZM15.3025 14.103L16.5827 15.2999C17.3521 16.0267 17.9425 16.338 18.614 16.338C19.8386 16.338 20.6338 15.4682 20.6338 14.103C20.6338 12.7356 19.8386 11.8583 18.614 11.8583C17.9617 11.8583 17.3713 12.16 16.5827 12.906L15.3025 14.103Z" fill="white"/>
</svg>
