<svg width="34" height="28" viewBox="0 0 34 28" fill="none" xmlns="http://www.w3.org/2000/svg">
<path d="M1.87734 23.8299C2.39366 23.8299 2.83429 23.6776 3.33257 23.3794L15.3351 16.3271C16.2136 15.8096 16.6633 15.1911 16.6633 14.4059C16.6633 13.6283 16.222 13.0245 15.3351 12.5028L3.33257 5.45047C2.82257 5.15234 2.39155 5 1.87312 5C0.857809 5 0 5.77484 0 7.18741V21.6425C0 23.053 0.862028 23.8299 1.87734 23.8299ZM18.4725 23.8299C18.9867 23.8299 19.4294 23.6776 19.9277 23.3794L31.9378 16.3271C32.8066 15.8096 33.2564 15.1911 33.2564 14.4059C33.2564 13.6283 32.815 13.0245 31.9378 12.5028L19.9277 5.45047C19.4273 5.15234 18.9846 5 18.4661 5C17.4508 5 16.5951 5.77484 16.5951 7.18741V21.6425C16.5951 23.053 17.4551 23.8299 18.4725 23.8299Z" fill="black"/>
</svg>
