<svg width="28" height="28" viewBox="0 0 28 28" fill="none" xmlns="http://www.w3.org/2000/svg">
<path d="M14.105 26.21C20.7369 26.21 26.2121 20.7273 26.2121 14.105C26.2121 7.47312 20.7273 2 14.0954 2C7.47523 2 2 7.47312 2 14.105C2 20.7273 7.48484 26.21 14.105 26.21Z" fill="black"/>
<path d="M19.3284 17.8677C19.3284 18.3842 19.0547 18.6367 18.5552 18.6367H17.2671C16.7676 18.6367 16.496 18.3842 16.496 17.8677V14.502C16.4034 14.6916 16.2405 14.8557 15.9944 14.9963L10.3912 18.286C10.1718 18.417 9.95457 18.4874 9.73308 18.4874C9.25496 18.4874 8.86426 18.1456 8.86426 17.4917V10.745C8.86426 10.1007 9.25074 9.75153 9.73308 9.75153C9.95457 9.75153 10.1718 9.81973 10.3912 9.95074L15.9944 13.2404C16.2426 13.381 16.4055 13.543 16.496 13.7326V10.3403C16.496 9.83004 16.7676 9.57129 17.2671 9.57129H18.5552C19.0526 9.57129 19.3284 9.83332 19.3284 10.3403V17.8677Z" fill="white"/>
</svg>
