<svg width="37" height="28" viewBox="0 0 37 28" fill="none" xmlns="http://www.w3.org/2000/svg">
<path d="M22.1791 23.4653H24.929C26.0287 23.4653 26.6015 22.8925 26.6015 21.7832V5.6725C26.6015 4.54492 26.0287 4 24.929 4H22.1791C21.0794 4 20.5045 4.57281 20.5045 5.6725V21.7832C20.5045 22.8925 21.071 23.4653 22.1791 23.4653ZM31.8935 23.4653H34.6338C35.7431 23.4653 36.3063 22.8925 36.3063 21.7832V5.6725C36.3063 4.54492 35.7431 4 34.6338 4H31.8935C30.7842 4 30.2189 4.57281 30.2189 5.6725V21.7832C30.2189 22.8925 30.7757 23.4653 31.8935 23.4653ZM1.87734 23.139C2.39366 23.139 2.82468 22.9867 3.33257 22.6886L15.333 15.6458C16.2136 15.1283 16.6537 14.5002 16.6537 13.7247C16.6537 12.9395 16.2199 12.3337 15.333 11.812L3.33257 4.75961C2.82257 4.46148 2.38944 4.30914 1.87312 4.30914C0.84609 4.30914 0 5.08398 0 6.50617V20.9516C0 22.3717 0.852418 23.139 1.87734 23.139Z" fill="black"/>
</svg>
