<svg width="28" height="28" viewBox="0 0 28 28" fill="none" xmlns="http://www.w3.org/2000/svg">
<path d="M2 14.4594C2 21.0892 7.48484 26.5644 14.105 26.5644C20.7369 26.5644 26.2121 21.0892 26.2121 14.4594C26.2121 10.6654 24.3169 7.07779 21.4634 4.93911C20.8381 4.42888 20.0881 4.53037 19.7023 5.07201C19.2976 5.64646 19.4773 6.32379 20.0211 6.79676C22.3379 8.55902 23.8159 11.3169 23.8276 14.4594C23.8372 19.8536 19.4991 24.1799 14.105 24.1799C8.71085 24.1799 4.39412 19.8536 4.39412 14.4594C4.39412 9.90106 7.48108 6.1091 11.6998 5.05911V6.72645C11.6998 7.61965 12.3627 7.86973 13.0852 7.35153L17.0197 4.55567C17.604 4.14599 17.6094 3.49701 17.0197 3.07021L13.0948 0.27436C12.3669 -0.25134 11.6998 -0.00970048 11.6998 0.897328V2.60451C6.19648 3.73326 2 8.65162 2 14.4594Z" fill="black"/>
<path d="M8.75684 14.4594C8.75684 15.0843 9.19746 15.5195 9.8373 15.5195H13.0232V18.715C13.0232 19.3452 13.468 19.7933 14.0929 19.7933C14.7273 19.7933 15.1797 19.3548 15.1797 18.715V15.5195H18.3773C19.0075 15.5195 19.4556 15.0843 19.4556 14.4594C19.4556 13.825 19.0075 13.3705 18.3773 13.3705H15.1797V10.1847C15.1797 9.54484 14.7273 9.0946 14.0929 9.0946C13.468 9.0946 13.0232 9.54484 13.0232 10.1847V13.3705H9.8373C9.19746 13.3705 8.75684 13.825 8.75684 14.4594Z" fill="black"/>
</svg>
