<svg width="28" height="28" viewBox="0 0 28 28" fill="none" xmlns="http://www.w3.org/2000/svg">
<path d="M2 14.4594C2 21.0892 7.48484 26.5644 14.105 26.5644C20.7369 26.5644 26.2121 21.0892 26.2121 14.4594C26.2121 10.6654 24.3169 7.07779 21.4634 4.93911C20.8381 4.42888 20.0881 4.53037 19.7023 5.07201C19.2976 5.64646 19.4773 6.32379 20.0211 6.79676C22.3379 8.55902 23.8159 11.3169 23.8276 14.4594C23.8372 19.8536 19.4991 24.1799 14.105 24.1799C8.71085 24.1799 4.39412 19.8536 4.39412 14.4594C4.39412 9.90106 7.48108 6.1091 11.6998 5.05911V6.72645C11.6998 7.61965 12.3627 7.86973 13.0852 7.35153L17.0197 4.55567C17.604 4.14599 17.6094 3.49701 17.0197 3.07021L13.0948 0.27436C12.3669 -0.25134 11.6998 -0.00970048 11.6998 0.897328V2.60451C6.19648 3.73326 2 8.65162 2 14.4594Z" fill="black"/>
<path d="M11.6582 19.4329C12.1827 19.4329 12.4956 19.071 12.4956 18.4506V17.5897H12.9716C13.3954 17.5897 13.6776 17.3066 13.6776 16.8543C13.6776 16.4094 13.3933 16.12 12.9674 16.12H12.4787V11.3399C12.4787 10.5163 11.9579 10.1279 11.1613 10.1279C10.4779 10.1279 10.0513 10.3876 9.68801 11.0404C8.8991 12.4086 7.94144 14.1058 7.18675 15.505C6.98237 15.903 6.91113 16.1669 6.91113 16.5784C6.91113 17.1894 7.3112 17.5982 7.99229 17.5982H10.8559V18.4506C10.8559 19.071 11.1475 19.4329 11.6582 19.4329ZM8.60659 16.1242V16.0827C9.35518 14.6003 10.0942 13.1275 10.8428 11.6547H10.8939V16.1242H8.60659ZM17.5764 19.4765C19.5491 19.4765 20.8424 18.2099 20.8424 16.2768C20.8424 14.5288 19.6696 13.3363 18.055 13.3363C17.3167 13.3363 16.5419 13.6911 16.2287 14.2825H16.2641L16.4624 11.7479H19.8313C20.2387 11.7479 20.5665 11.4329 20.5665 10.9881C20.5665 10.5433 20.2429 10.2538 19.8313 10.2538H16.1066C15.4635 10.2538 15.1005 10.637 15.0557 11.3151L14.8148 14.6605C14.7679 15.2844 15.1042 15.6036 15.6545 15.6036C16.0834 15.6036 16.255 15.5186 16.5662 15.2734C16.9895 14.9012 17.3242 14.735 17.7782 14.735C18.6501 14.735 19.213 15.3735 19.213 16.3171C19.213 17.2766 18.5413 17.9844 17.6404 17.9844C16.9722 17.9844 16.4315 17.5987 16.1247 17.0357C15.9489 16.7479 15.7433 16.5838 15.4155 16.5838C14.9844 16.5838 14.6929 16.8967 14.6929 17.3352C14.6929 17.5098 14.7238 17.6706 14.7972 17.844C15.1115 18.6561 16.1512 19.4765 17.5764 19.4765Z" fill="black"/>
</svg>
