<svg width="34" height="28" viewBox="0 0 34 28" fill="none" xmlns="http://www.w3.org/2000/svg">
<path d="M14.7743 23.8299C15.7896 23.8299 16.6516 23.053 16.6516 21.6425V7.18741C16.6516 5.77484 15.7959 5 14.7785 5C14.2622 5 13.8291 5.15234 13.3191 5.45047L1.31859 12.5028C0.431715 13.0245 0 13.6283 0 14.4059C0 15.1911 0.438043 15.8096 1.31859 16.3271L13.3191 23.3794C13.8173 23.6776 14.258 23.8299 14.7743 23.8299ZM14.0941 21.1684C14.0184 21.1684 13.9331 21.147 13.8424 21.0852L3.03959 14.7057C2.90084 14.6246 2.81974 14.551 2.81974 14.408C2.81974 14.2726 2.89662 14.2032 3.03959 14.1221L13.8424 7.74475C13.9469 7.69037 14.0184 7.66154 14.092 7.66154C14.2488 7.66154 14.3684 7.75436 14.3684 7.96459V20.8653C14.3684 21.0755 14.2488 21.1684 14.0941 21.1684ZM31.3673 23.8299C32.3847 23.8299 33.2446 23.053 33.2446 21.6425V7.18741C33.2446 5.77484 32.3889 5 31.3736 5C30.8552 5 30.4242 5.15234 29.9121 5.45047L17.9116 12.5028C17.0247 13.0245 16.593 13.6283 16.593 14.4059C16.593 15.1911 17.0332 15.8096 17.9116 16.3271L29.9121 23.3794C30.4104 23.6776 30.8531 23.8299 31.3673 23.8299ZM30.6893 21.1684C30.6232 21.1684 30.5379 21.147 30.4354 21.0852L19.6326 14.7057C19.4939 14.6246 19.4224 14.551 19.4224 14.408C19.4224 14.2726 19.4918 14.2032 19.6326 14.1221L30.4354 7.74475C30.54 7.69037 30.6232 7.66154 30.6872 7.66154C30.8419 7.66154 30.9614 7.75436 30.9614 7.96459V20.8653C30.9614 21.0755 30.8419 21.1684 30.6893 21.1684Z" fill="black"/>
</svg>
