<svg width="28" height="28" viewBox="0 0 28 28" fill="none" xmlns="http://www.w3.org/2000/svg">
<path d="M21.2676 23.4653H24.0176C25.1268 23.4653 25.6922 22.8925 25.6922 21.7832V5.6725C25.6922 4.54492 25.1268 4 24.0176 4H21.2676C20.1679 4 19.593 4.57281 19.593 5.6725V21.7832C19.593 22.8925 20.1616 23.4653 21.2676 23.4653ZM4.87734 23.139C5.39366 23.139 5.82468 22.9867 6.33257 22.6886L18.333 15.6458C19.2136 15.1283 19.6537 14.5002 19.6537 13.7247C19.6537 12.9395 19.2199 12.3337 18.333 11.812L6.33257 4.75961C5.82257 4.46148 5.38944 4.30914 4.87312 4.30914C3.84609 4.30914 3 5.08398 3 6.50617V20.9516C3 22.3717 3.85242 23.139 4.87734 23.139Z" fill="black"/>
</svg>
