<svg width="28" height="28" viewBox="0 0 28 28" fill="none" xmlns="http://www.w3.org/2000/svg">
<path d="M16.6912 20.0827L14.9899 18.3814L9.10029 21.7911C9.05131 21.8145 9.00654 21.8379 8.96389 21.8379C8.89568 21.8379 8.85092 21.7911 8.85092 21.7015V12.2424L6.49805 9.87568V22.8021C6.49805 23.9588 7.16367 24.69 8.11523 24.69C8.6114 24.69 9.04358 24.5046 9.57561 24.1992L16.6912 20.0827ZM20.9967 17.5908L23.3852 16.2101C24.3937 15.6148 24.8074 15.1681 24.8074 14.4436C24.8074 13.7192 24.3937 13.2725 23.3852 12.6889L9.57561 4.69014C9.03351 4.38405 8.50148 4.20827 7.97813 4.27014L13.0854 9.40082L21.5878 14.321C21.6443 14.3541 21.6848 14.3871 21.6848 14.4436C21.6848 14.5001 21.6443 14.5428 21.5878 14.5683L19.2996 15.9054L20.9967 17.5908Z" fill="black"/>
<path d="M22.1339 23.4361C22.5035 23.7982 23.1009 23.8003 23.4534 23.4361C23.8134 23.074 23.8251 22.4808 23.4534 22.1166L5.59615 4.27316C5.23193 3.90895 4.63662 3.90895 4.26279 4.27316C3.9124 4.62355 3.9124 5.24019 4.26279 5.59058L22.1339 23.4361Z" fill="black"/>
</svg>
