<svg width="34" height="28" viewBox="0 0 34 28" fill="none" xmlns="http://www.w3.org/2000/svg">
<path d="M14.7743 23.8299C15.7896 23.8299 16.6516 23.053 16.6516 21.6425V7.18741C16.6516 5.77484 15.7959 5 14.7785 5C14.2622 5 13.8291 5.15234 13.3191 5.45047L1.31859 12.5028C0.431715 13.0245 0 13.6283 0 14.4059C0 15.1911 0.438043 15.8096 1.31859 16.3271L13.3191 23.3794C13.8173 23.6776 14.258 23.8299 14.7743 23.8299ZM31.3673 23.8299C32.3847 23.8299 33.2446 23.053 33.2446 21.6425V7.18741C33.2446 5.77484 32.3889 5 31.3736 5C30.8552 5 30.4242 5.15234 29.9121 5.45047L17.9116 12.5028C17.0247 13.0245 16.593 13.6283 16.593 14.4059C16.593 15.1911 17.0332 15.8096 17.9116 16.3271L29.9121 23.3794C30.4104 23.6776 30.8531 23.8299 31.3673 23.8299Z" fill="black"/>
</svg>
