<svg width="28" height="28" viewBox="0 0 28 28" fill="none" xmlns="http://www.w3.org/2000/svg">
<path d="M2 14.4594C2 21.0892 7.48484 26.5644 14.105 26.5644C20.7369 26.5644 26.2121 21.0892 26.2121 14.4594C26.2121 10.6654 24.3169 7.07779 21.4634 4.93911C20.8381 4.42888 20.0881 4.53037 19.7023 5.07201C19.2976 5.64646 19.4773 6.32379 20.0211 6.79676C22.3379 8.55902 23.8159 11.3169 23.8276 14.4594C23.8372 19.8536 19.4991 24.1799 14.105 24.1799C8.71085 24.1799 4.39412 19.8536 4.39412 14.4594C4.39412 9.90106 7.48108 6.1091 11.6998 5.05911V6.72645C11.6998 7.61965 12.3627 7.86973 13.0852 7.35153L17.0197 4.55567C17.604 4.14599 17.6094 3.49701 17.0197 3.07021L13.0948 0.27436C12.3669 -0.25134 11.6998 -0.00970048 11.6998 0.897328V2.60451C6.19648 3.73326 2 8.65162 2 14.4594Z" fill="black"/>
<path d="M10.9241 19.3494C11.4423 19.3494 11.7753 18.9993 11.7753 18.4438V11.1908C11.7753 10.5196 11.4031 10.1141 10.7935 10.1141C10.4328 10.1141 10.1595 10.2322 9.6943 10.5662L8.17203 11.6476C7.87204 11.8879 7.73047 12.122 7.73047 12.4391C7.73047 12.8596 8.06047 13.2109 8.47133 13.2109C8.72774 13.2109 8.86484 13.1493 9.10555 12.943L10.1082 12.1522H10.092V18.4438C10.092 18.9897 10.4155 19.3494 10.9241 19.3494ZM16.9388 19.4521C18.8567 19.4521 20.1805 17.6354 20.1805 14.7618C20.1805 11.8668 18.8567 10.0309 16.9388 10.0309C15.0188 10.0309 13.7141 11.8098 13.7141 14.7618C13.7141 17.6924 15.0188 19.4521 16.9388 19.4521ZM16.9473 17.8696C16.013 17.8696 15.421 16.7214 15.421 14.7618C15.421 12.7712 16.0034 11.6134 16.9473 11.6134C17.8932 11.6134 18.4639 12.7616 18.4639 14.7618C18.4639 16.7214 17.8836 17.8696 16.9473 17.8696Z" fill="black"/>
</svg>
