<svg width="28" height="28" viewBox="0 0 28 28" fill="none" xmlns="http://www.w3.org/2000/svg">
<path d="M14.105 26.21C20.7369 26.21 26.2121 20.7273 26.2121 14.105C26.2121 7.47312 20.7273 2 14.0954 2C7.47523 2 2 7.47312 2 14.105C2 20.7273 7.48484 26.21 14.105 26.21ZM14.105 23.8255C8.71085 23.8255 4.39412 19.4991 4.39412 14.105C4.39412 8.71085 8.70124 4.38452 14.0954 4.38452C19.4895 4.38452 23.8276 8.71085 23.8276 14.105C23.8276 19.4991 19.4991 23.8255 14.105 23.8255Z" fill="black"/>
<path d="M15.7256 18.293C15.9546 18.293 16.1505 18.2248 16.3732 18.0938L21.7711 14.919C22.1524 14.6942 22.3535 14.4109 22.3535 14.0787C22.3535 13.7445 22.1524 13.4675 21.7711 13.2406L16.3732 10.0658C16.1505 9.9369 15.9546 9.86658 15.7235 9.86658C15.2827 9.86658 14.9025 10.2074 14.9025 10.824V17.3356C14.9025 17.9523 15.2848 18.293 15.7256 18.293ZM8.31187 18.293C8.53875 18.293 8.74219 18.2248 8.95945 18.0938L14.3573 14.919C14.7483 14.6942 14.9356 14.4109 14.9356 14.0787C14.9356 13.7445 14.7483 13.4675 14.3573 13.2406L8.95945 10.0658C8.74219 9.9369 8.53664 9.86658 8.30976 9.86658C7.86469 9.86658 7.49414 10.2074 7.49414 10.824V17.3356C7.49414 17.9523 7.8668 18.293 8.31187 18.293Z" fill="black"/>
</svg>
