<svg width="28" height="28" viewBox="0 0 28 28" fill="none" xmlns="http://www.w3.org/2000/svg">
<path d="M2 14.4594C2 21.0892 7.48484 26.5644 14.105 26.5644C20.7369 26.5644 26.2121 21.0892 26.2121 14.4594C26.2121 10.6654 24.3169 7.07779 21.4634 4.93911C20.8381 4.42888 20.0881 4.53037 19.7023 5.07201C19.2976 5.64646 19.4773 6.32379 20.0211 6.79676C22.3379 8.55902 23.8159 11.3169 23.8276 14.4594C23.8372 19.8536 19.4991 24.1799 14.105 24.1799C8.71085 24.1799 4.39412 19.8536 4.39412 14.4594C4.39412 9.90106 7.48108 6.1091 11.6998 5.05911V6.72645C11.6998 7.61965 12.3627 7.86973 13.0852 7.35153L17.0197 4.55567C17.604 4.14599 17.6094 3.49701 17.0197 3.07021L13.0948 0.27436C12.3669 -0.25134 11.6998 -0.00970048 11.6998 0.897328V2.60451C6.19648 3.73326 2 8.65162 2 14.4594Z" fill="black"/>
<path d="M9.23 19.4202C9.59914 19.4202 9.85554 19.2257 10.0674 18.7872L13.1853 12.3072C13.3545 11.9465 13.4384 11.6765 13.4384 11.3397C13.4384 10.7043 12.9922 10.2634 12.3526 10.2634H8.10406C7.67985 10.2634 7.37891 10.5805 7.37891 11.0188C7.37891 11.4793 7.69672 11.7721 8.10406 11.7721H11.5974V11.7868L8.51703 17.9868C8.41485 18.1858 8.35953 18.3454 8.35953 18.572C8.35953 19.0583 8.73406 19.4202 9.23 19.4202ZM17.3166 19.4765C19.2894 19.4765 20.573 18.2099 20.573 16.2768C20.573 14.5288 19.4002 13.3363 17.7856 13.3363C17.0473 13.3363 16.2725 13.6911 15.9594 14.2825H15.9948L16.193 11.7479H19.5619C19.9789 11.7479 20.2972 11.4329 20.2972 10.9881C20.2972 10.5433 19.9831 10.2538 19.5619 10.2538H15.8373C15.192 10.2538 14.8311 10.637 14.7863 11.3151L14.5454 14.6605C14.4985 15.2844 14.8348 15.6036 15.3851 15.6036C15.8141 15.6036 15.9856 15.5186 16.2969 15.2734C16.7201 14.9012 17.0548 14.735 17.5088 14.735C18.3807 14.735 18.9437 15.3735 18.9437 16.3171C18.9437 17.2766 18.2719 17.9844 17.3806 17.9844C16.7007 17.9844 16.1717 17.5987 15.8649 17.0357C15.6891 16.7479 15.474 16.5838 15.1557 16.5838C14.7247 16.5838 14.4235 16.8967 14.4235 17.3352C14.4235 17.5098 14.4544 17.6706 14.5257 17.844C14.8421 18.6561 15.8818 19.4765 17.3166 19.4765Z" fill="black"/>
</svg>
