<svg width="32" height="28" viewBox="0 0 32 28" fill="none" xmlns="http://www.w3.org/2000/svg">
<path d="M8.67234 5.50609H30.7279C31.315 5.50609 31.7831 5.03711 31.7831 4.45C31.7831 3.85962 31.3129 3.3822 30.7279 3.3822H8.67234C8.08946 3.3822 7.62891 3.86383 7.62891 4.45C7.62891 5.03289 8.08735 5.50609 8.67234 5.50609ZM8.67234 11.5506H30.7279C31.315 11.5506 31.7831 11.0795 31.7831 10.4924C31.7831 9.90204 31.3129 9.42673 30.7279 9.42673H8.67234C8.08946 9.42673 7.62891 9.90836 7.62891 10.4924C7.62891 11.0753 8.08735 11.5506 8.67234 11.5506ZM8.67234 17.5951H30.7279C31.315 17.5951 31.7831 17.1262 31.7831 16.5391C31.7831 15.9487 31.3129 15.4712 30.7279 15.4712H8.67234C8.08946 15.4712 7.62891 15.9529 7.62891 16.5391C7.62891 17.1219 8.08735 17.5951 8.67234 17.5951Z" fill="black"/>
<path d="M9.14319 24.8779H30.2704C31.2696 24.8779 31.7829 24.3646 31.7829 23.3847V22.3867C31.7829 21.3876 31.2696 20.8743 30.2704 20.8743H9.14319C8.14405 20.8743 7.63077 21.3876 7.63077 22.3867V23.3847C7.63077 24.3646 8.14405 24.8779 9.14319 24.8779ZM1.34437 26.1018L5.35968 23.6617C6.00702 23.2752 6.01452 22.4941 5.35968 22.1076L1.34437 19.6738C0.688591 19.2597 0 19.5864 0 20.3774V25.3865C0 26.1562 0.671481 26.5021 1.34437 26.1018Z" fill="black"/>
</svg>
