<svg width="28" height="28" viewBox="0 0 28 28" fill="none" xmlns="http://www.w3.org/2000/svg">
<path d="M2 14.384C2 21.0138 7.48484 26.489 14.105 26.489C20.7369 26.489 26.2121 21.0138 26.2121 14.384C26.2121 8.57619 22.0135 3.65783 16.5101 2.52908V0.886115C16.5101 -0.00497597 15.8558 -0.244507 15.1365 0.261038L11.202 2.97346C10.5997 3.38642 10.5943 4.04806 11.202 4.46853L15.1269 7.19266C15.8537 7.70782 16.5101 7.47462 16.5101 6.56759V4.98368C20.731 6.03368 23.8159 9.82563 23.8159 14.384C23.8159 19.7781 19.4991 24.1045 14.105 24.1045C8.71085 24.1045 4.37491 19.7781 4.38452 14.384C4.39412 11.2415 5.87421 8.4836 8.1889 6.72133C8.73476 6.24837 8.91452 5.57103 8.50765 4.99658C8.12188 4.45494 7.37188 4.35345 6.74868 4.86368C3.89516 7.00236 2 10.5899 2 14.384Z" fill="black"/>
<path d="M13.9878 19.4009C15.9605 19.4009 17.2442 18.1344 17.2442 16.2012C17.2442 14.4533 16.0714 13.2608 14.4568 13.2608C13.7185 13.2608 12.9437 13.6156 12.6305 14.2069H12.6659L12.8642 11.6724H16.2331C16.6501 11.6724 16.9684 11.3574 16.9684 10.9126C16.9684 10.4677 16.6522 10.1783 16.2331 10.1783H12.5063C11.8632 10.1783 11.5023 10.5615 11.4554 11.2395L11.2166 14.585C11.1697 15.2089 11.5061 15.5281 12.0563 15.5281C12.4831 15.5281 12.6547 15.443 12.968 15.1979C13.3892 14.8257 13.7239 14.6595 14.1779 14.6595C15.0519 14.6595 15.6148 15.298 15.6148 16.2416C15.6148 17.2011 14.9431 17.9089 14.0518 17.9089C13.3719 17.9089 12.8429 17.5231 12.5361 16.9602C12.3582 16.6723 12.1451 16.5083 11.8269 16.5083C11.3959 16.5083 11.0947 16.8212 11.0947 17.2597C11.0947 17.4343 11.1257 17.5951 11.1969 17.7685C11.5133 18.5806 12.5509 19.4009 13.9878 19.4009Z" fill="black"/>
</svg>
