<svg width="28" height="28" viewBox="0 0 28 28" fill="none" xmlns="http://www.w3.org/2000/svg">
<path d="M2 14.384C2 21.0138 7.48484 26.489 14.105 26.489C20.7369 26.489 26.2121 21.0138 26.2121 14.384C26.2121 8.57619 22.0135 3.65783 16.5101 2.52908V0.886115C16.5101 -0.00497597 15.8558 -0.244507 15.1365 0.261038L11.202 2.97346C10.5997 3.38642 10.5943 4.04806 11.202 4.46853L15.1269 7.19266C15.8537 7.70782 16.5101 7.47462 16.5101 6.56759V4.98368C20.731 6.03368 23.8159 9.82563 23.8159 14.384C23.8159 19.7781 19.4991 24.1045 14.105 24.1045C8.71085 24.1045 4.37491 19.7781 4.38452 14.384C4.39412 11.2415 5.87421 8.4836 8.1889 6.72133C8.73476 6.24837 8.91452 5.57103 8.50765 4.99658C8.12188 4.45494 7.37188 4.35345 6.74868 4.86368C3.89516 7.00236 2 10.5899 2 14.384Z" fill="black"/>
<path d="M10.9768 19.274C11.495 19.274 11.8301 18.9238 11.8301 18.3684V11.1154C11.8301 10.4442 11.4559 10.0387 10.8462 10.0387C10.4855 10.0387 10.2123 10.1568 9.74914 10.4908L8.22476 11.5722C7.92476 11.8124 7.7832 12.0466 7.7832 12.3637C7.7832 12.7842 8.11531 13.1355 8.52406 13.1355C8.78046 13.1355 8.91757 13.0738 9.15827 12.8676L10.1609 12.0768H10.1469V18.3684C10.1469 18.9142 10.4682 19.274 10.9768 19.274ZM16.9916 19.3767C18.9095 19.3767 20.2332 17.56 20.2332 14.6863C20.2332 11.7913 18.9095 9.95544 16.9916 9.95544C15.0737 9.95544 13.7668 11.7344 13.7668 14.6863C13.7668 17.617 15.0737 19.3767 16.9916 19.3767ZM17.0021 17.7942C16.0658 17.7942 15.4759 16.646 15.4759 14.6863C15.4759 12.6958 16.0562 11.538 17.0021 11.538C17.946 11.538 18.5188 12.6862 18.5188 14.6863C18.5188 16.646 17.9364 17.7942 17.0021 17.7942Z" fill="black"/>
</svg>
