<svg width="28" height="28" viewBox="0 0 28 28" fill="none" xmlns="http://www.w3.org/2000/svg">
<path d="M21.8814 23.7423C22.603 23.7423 23.1601 23.2066 23.1601 22.4976V5.264C23.1601 4.55503 22.603 4.00964 21.8814 4.00964C21.1619 4.00964 20.593 4.55503 20.593 5.264V22.4976C20.593 23.2066 21.1619 23.7423 21.8814 23.7423ZM5.87734 23.2968C6.39366 23.2968 6.82468 23.1444 7.33257 22.8484L19.333 15.794C20.2136 15.2765 20.6537 14.6483 20.6537 13.8728C20.6537 13.0973 20.2199 12.4839 19.333 11.9601L7.33257 4.90777C6.82257 4.60964 6.38944 4.4573 5.87312 4.4573C4.84609 4.4573 4 5.23214 4 6.65432V21.0998C4 22.5198 4.85242 23.2968 5.87734 23.2968ZM6.55749 20.6352C6.4028 20.6352 6.27366 20.5328 6.27366 20.3322V7.42189C6.27366 7.22126 6.4028 7.11884 6.55959 7.11884C6.62358 7.11884 6.70467 7.14767 6.80921 7.21165L17.612 13.589C17.755 13.6701 17.8223 13.7299 17.8223 13.8749C17.8223 14.0083 17.7412 14.0819 17.612 14.163L6.80921 20.5424C6.70889 20.6043 6.62358 20.6352 6.55749 20.6352Z" fill="black"/>
</svg>
