<svg width="32" height="28" viewBox="0 0 32 28" fill="none" xmlns="http://www.w3.org/2000/svg">
<path d="M0 14.3029C0 18.7244 2.80992 21.6058 6.94006 21.6058C9.14131 21.6058 10.9919 20.676 12.974 18.7579L15.7579 16.0806L18.5301 18.7579C20.5219 20.676 22.3725 21.6058 24.5641 21.6058C28.6943 21.6058 31.5042 18.7244 31.5042 14.3029C31.5042 9.8814 28.6943 7 24.5641 7C22.3725 7 20.5219 7.92765 18.5301 9.84789L15.7579 12.5252L12.974 9.84789C10.9919 7.92765 9.14131 7 6.94006 7C2.80992 7 0 9.8814 0 14.3029ZM2.61045 14.3029C2.61045 11.4456 4.3699 9.61045 6.94006 9.61045C8.38522 9.61045 9.67452 10.3138 11.1462 11.698L13.9174 14.3029L11.1366 16.9056C9.66491 18.2823 8.38522 18.9953 6.94006 18.9953C4.3699 18.9953 2.61045 17.1601 2.61045 14.3029ZM17.5868 14.3029L20.358 11.698C21.8297 10.3138 23.119 9.61045 24.5641 9.61045C27.1439 9.61045 28.8937 11.4456 28.8937 14.3029C28.8937 17.1601 27.1439 18.9953 24.5641 18.9953C23.119 18.9953 21.8393 18.2823 20.3676 16.9056L17.5868 14.3029Z" fill="black"/>
</svg>
