<svg width="28" height="28" viewBox="0 0 28 28" fill="none" xmlns="http://www.w3.org/2000/svg">
<path d="M2 14.384C2 21.0138 7.48484 26.489 14.105 26.489C20.7369 26.489 26.2121 21.0138 26.2121 14.384C26.2121 8.57619 22.0135 3.65783 16.5101 2.52908V0.886115C16.5101 -0.00497597 15.8558 -0.244507 15.1365 0.261038L11.202 2.97346C10.5997 3.38642 10.5943 4.04806 11.202 4.46853L15.1269 7.19266C15.8537 7.70782 16.5101 7.47462 16.5101 6.56759V4.98368C20.731 6.03368 23.8159 9.82563 23.8159 14.384C23.8159 19.7781 19.4991 24.1045 14.105 24.1045C8.71085 24.1045 4.37491 19.7781 4.38452 14.384C4.39412 11.2415 5.87421 8.4836 8.1889 6.72133C8.73476 6.24837 8.91452 5.57103 8.50765 4.99658C8.12188 4.45494 7.37188 4.35345 6.74868 4.86368C3.89516 7.00236 2 10.5899 2 14.384Z" fill="black"/>
<path d="M9.28257 19.3447C9.6517 19.3447 9.91022 19.1502 10.12 18.7116L13.2379 12.2316C13.4092 11.8709 13.491 11.6009 13.491 11.2641C13.491 10.6287 13.0447 10.1879 12.4072 10.1879H8.15874C7.73241 10.1879 7.43359 10.505 7.43359 10.9433C7.43359 11.4038 7.74929 11.6966 8.15874 11.6966H11.6521V11.7113L8.5696 17.9112C8.46741 18.1102 8.41421 18.2698 8.41421 18.4965C8.41421 18.9828 8.78663 19.3447 9.28257 19.3447ZM17.3713 19.4009C19.3419 19.4009 20.6277 18.1344 20.6277 16.2012C20.6277 14.4533 19.4528 13.2608 17.8403 13.2608C17.0999 13.2608 16.3272 13.6156 16.014 14.2069H16.0473L16.2456 11.6724H19.6145C20.0336 11.6724 20.3497 11.3574 20.3497 10.9126C20.3497 10.4677 20.0357 10.1783 19.6145 10.1783H15.8898C15.2467 10.1783 14.8858 10.5615 14.8389 11.2395L14.598 14.585C14.5511 15.2089 14.8895 15.5281 15.4398 15.5281C15.8666 15.5281 16.0382 15.443 16.3494 15.1979C16.7727 14.8257 17.1074 14.6595 17.5614 14.6595C18.4333 14.6595 18.9983 15.298 18.9983 16.2416C18.9983 17.2011 18.3266 17.9089 17.4332 17.9089C16.7554 17.9089 16.2243 17.5231 15.9175 16.9602C15.7417 16.6723 15.5286 16.5083 15.2083 16.5083C14.7794 16.5083 14.4761 16.8212 14.4761 17.2597C14.4761 17.4343 14.5091 17.5951 14.5804 17.7685C14.8968 18.5806 15.9344 19.4009 17.3713 19.4009Z" fill="black"/>
</svg>
