<svg width="28" height="28" viewBox="0 0 28 28" fill="none" xmlns="http://www.w3.org/2000/svg">
<path d="M4 20.7269C4 22.4423 5.05187 23.4749 6.8064 23.4749H20.661C22.4251 23.4749 23.4674 22.4423 23.4674 20.7269V6.74804C23.4674 5.03265 22.4251 4 20.661 4H6.8064C5.05187 4 4 5.03265 4 6.74804V20.7269ZM6.29592 20.0727V7.40428C6.29592 6.70209 6.70936 6.27694 7.40194 6.27694H20.1013C20.8035 6.27694 21.2073 6.70209 21.2073 7.40428V20.0727C21.2073 20.7749 20.8035 21.2001 20.1013 21.2001H7.40194C6.70936 21.2001 6.29592 20.7749 6.29592 20.0727Z" fill="black"/>
</svg>
