<svg width="28" height="28" viewBox="0 0 28 28" fill="none" xmlns="http://www.w3.org/2000/svg">
<path d="M14.105 26.21C20.7369 26.21 26.2121 20.7273 26.2121 14.105C26.2121 7.47312 20.7273 2 14.0954 2C7.47523 2 2 7.47312 2 14.105C2 20.7273 7.48484 26.21 14.105 26.21Z" fill="black"/>
<path d="M5.54102 14.0809C5.54102 13.7286 5.74422 13.4494 6.1511 13.2109L11.7468 9.92117C11.9833 9.78055 12.1717 9.71985 12.4166 9.71985C12.8851 9.71985 13.2695 10.0573 13.2695 10.7112V13.6923C13.3717 13.508 13.5388 13.3536 13.7816 13.2109L19.3752 9.92117C19.6138 9.78055 19.8119 9.71985 20.0547 9.71985C20.5157 9.71985 20.9118 10.0573 20.9118 10.7112V17.4643C20.9118 18.1161 20.5136 18.4557 20.0526 18.4557C19.8098 18.4557 19.6138 18.395 19.3752 18.2544L13.7816 14.9647C13.5388 14.8219 13.3738 14.6654 13.2695 14.4791V17.4643C13.2695 18.1161 12.883 18.4557 12.4145 18.4557C12.1717 18.4557 11.9833 18.395 11.7468 18.2544L6.1511 14.9647C5.74422 14.7261 5.54102 14.4406 5.54102 14.0809Z" fill="white"/>
</svg>
