<svg width="36" height="28" viewBox="0 0 36 28" fill="none" xmlns="http://www.w3.org/2000/svg">
<path d="M34.4765 23.7423C35.196 23.7423 35.7552 23.2066 35.7552 22.4976V5.264C35.7552 4.55503 35.196 4.00964 34.4765 4.00964C33.7549 4.00964 33.1882 4.55503 33.1882 5.264V22.4976C33.1882 23.2066 33.7549 23.7423 34.4765 23.7423ZM1.87734 23.2968C2.39366 23.2968 2.82468 23.1444 3.33257 22.8484L15.333 15.794C16.2136 15.2765 16.6537 14.6483 16.6537 13.8728C16.6537 13.0973 16.2199 12.4839 15.333 11.9601L3.33257 4.90777C2.82257 4.60964 2.38944 4.4573 1.87312 4.4573C0.84609 4.4573 0 5.23214 0 6.65432V21.0998C0 22.5198 0.852418 23.2968 1.87734 23.2968ZM2.55749 20.6352C2.4028 20.6352 2.27366 20.5328 2.27366 20.3322V7.42189C2.27366 7.22126 2.4028 7.11884 2.55959 7.11884C2.62358 7.11884 2.70467 7.14767 2.80921 7.21165L13.612 13.589C13.755 13.6701 13.8223 13.7299 13.8223 13.8749C13.8223 14.0083 13.7412 14.0819 13.612 14.163L2.80921 20.5424C2.70889 20.6043 2.62358 20.6352 2.55749 20.6352ZM18.4725 23.2968C18.9867 23.2968 19.4273 23.1444 19.9277 22.8484L31.9282 15.794C32.8066 15.2765 33.2468 14.6483 33.2468 13.8728C33.2468 13.0973 32.815 12.4839 31.9282 11.9601L19.9277 4.90777C19.4156 4.60964 18.9846 4.4573 18.4661 4.4573C17.4508 4.4573 16.593 5.23214 16.593 6.65432V21.0998C16.593 22.5198 17.4551 23.2968 18.4725 23.2968ZM19.1505 20.6352C18.9958 20.6352 18.8784 20.5328 18.8784 20.3322V7.42189C18.8784 7.22126 18.9958 7.11884 19.1526 7.11884C19.2166 7.11884 19.2998 7.14767 19.4043 7.21165L30.2072 13.589C30.348 13.6701 30.4153 13.7299 30.4153 13.8749C30.4153 14.0083 30.3459 14.0819 30.2072 14.163L19.4043 20.5424C19.3019 20.6043 19.2166 20.6352 19.1505 20.6352Z" fill="black"/>
</svg>
