<svg width="28" height="28" viewBox="0 0 28 28" fill="none" xmlns="http://www.w3.org/2000/svg">
<path d="M14.105 26.21C20.7369 26.21 26.2121 20.7273 26.2121 14.105C26.2121 7.47312 20.7273 2 14.0954 2C7.47523 2 2 7.47312 2 14.105C2 20.7273 7.48484 26.21 14.105 26.21ZM14.105 23.8255C8.71085 23.8255 4.39412 19.4991 4.39412 14.105C4.39412 8.71085 8.70124 4.38452 14.0954 4.38452C19.4895 4.38452 23.8276 8.71085 23.8276 14.105C23.8276 19.4991 19.4991 23.8255 14.105 23.8255Z" fill="black"/>
<path d="M18.3109 18.3269C18.7538 18.3269 19.1265 17.9936 19.1265 17.3695V10.8674C19.1265 10.2432 18.7559 9.91208 18.3109 9.91208C18.084 9.91208 17.8763 9.97818 17.6633 10.1071L12.2654 13.2724C11.8723 13.4992 11.6872 13.7784 11.6872 14.1126C11.6872 14.4564 11.8766 14.7377 12.2654 14.9645L17.6633 18.1298C17.8763 18.2587 18.084 18.3269 18.3109 18.3269ZM9.80774 18.4666H11.0405C11.5219 18.4666 11.7819 18.2259 11.7819 17.737V10.4807C11.7819 9.98638 11.5219 9.74146 11.0405 9.74146H9.80774C9.32633 9.74146 9.06641 9.99177 9.06641 10.4807V17.737C9.06641 18.2259 9.32422 18.4666 9.80774 18.4666Z" fill="black"/>
</svg>
