<svg width="28" height="28" viewBox="0 0 28 28" fill="none" xmlns="http://www.w3.org/2000/svg">
<path d="M14.105 26.21C20.7369 26.21 26.2121 20.7273 26.2121 14.105C26.2121 7.47312 20.7273 2 14.0954 2C7.47523 2 2 7.47312 2 14.105C2 20.7273 7.48484 26.21 14.105 26.21ZM14.105 23.8255C8.71085 23.8255 4.39412 19.4991 4.39412 14.105C4.39412 8.71085 8.70124 4.38452 14.0954 4.38452C19.4895 4.38452 23.8276 8.71085 23.8276 14.105C23.8276 19.4991 19.4991 23.8255 14.105 23.8255Z" fill="black"/>
<path d="M11.0458 18.3601H17.1425C17.8977 18.3601 18.3545 17.9138 18.3545 17.1905V11.0132C18.3545 10.2803 17.8977 9.84363 17.1425 9.84363H11.0458C10.3002 9.84363 9.83594 10.2803 9.83594 11.0132V17.1905C9.83594 17.9138 10.3002 18.3601 11.0458 18.3601Z" fill="black"/>
</svg>
