<svg width="28" height="28" viewBox="0 0 28 28" fill="none" xmlns="http://www.w3.org/2000/svg">
<path d="M2 14.384C2 21.0138 7.48484 26.489 14.105 26.489C20.7369 26.489 26.2121 21.0138 26.2121 14.384C26.2121 8.57619 22.0135 3.65783 16.5101 2.52908V0.886115C16.5101 -0.00497597 15.8558 -0.244507 15.1365 0.261038L11.202 2.97346C10.5997 3.38642 10.5943 4.04806 11.202 4.46853L15.1269 7.19266C15.8537 7.70782 16.5101 7.47462 16.5101 6.56759V4.98368C20.731 6.03368 23.8159 9.82563 23.8159 14.384C23.8159 19.7781 19.4991 24.1045 14.105 24.1045C8.71085 24.1045 4.37491 19.7781 4.38452 14.384C4.39412 11.2415 5.87421 8.4836 8.1889 6.72133C8.73476 6.24837 8.91452 5.57103 8.50765 4.99658C8.12188 4.45494 7.37188 4.35345 6.74868 4.86368C3.89516 7.00236 2 10.5899 2 14.384Z" fill="black"/>
<path d="M10.4792 19.3767C12.3776 19.3767 13.6027 18.1017 13.6027 16.1481C13.6027 14.4405 12.416 13.2693 10.8868 13.2693C9.83793 13.2693 9.03543 13.799 8.70214 14.5792L8.76074 14.6592C8.7523 14.5678 8.7523 14.5286 8.7523 14.4384C8.7523 12.6335 9.5016 11.47 10.62 11.47C11.1978 11.47 11.5676 11.6981 11.8266 12.1054C12.03 12.4017 12.2365 12.5242 12.5902 12.5242C12.9713 12.5242 13.2595 12.2399 13.2595 11.8249C13.2595 11.6334 13.2223 11.4684 13.1564 11.3163C12.8337 10.5543 11.9419 9.96505 10.6934 9.96505C8.48254 9.96505 7.17285 11.7166 7.17285 14.8593C7.17285 16.0783 7.35614 17.0967 7.76207 17.8359C8.29457 18.857 9.26395 19.3767 10.4792 19.3767ZM10.4058 17.9346C9.51871 17.9346 8.88425 17.2415 8.88425 16.2564C8.88425 15.2906 9.51121 14.6221 10.4058 14.6221C11.3004 14.6221 11.9253 15.2831 11.9253 16.2564C11.9253 17.2874 11.3293 17.9346 10.4058 17.9346ZM18.0668 19.3767C19.9847 19.3767 21.3084 17.56 21.3084 14.6863C21.3084 11.7913 19.9847 9.95544 18.0668 9.95544C16.1393 9.95544 14.8441 11.7344 14.8441 14.696C14.8441 17.6266 16.1489 19.3767 18.0668 19.3767ZM18.0773 17.7942C17.1314 17.7942 16.5511 16.646 16.5511 14.6863C16.5511 12.6958 17.1218 11.538 18.0773 11.538C19.0233 11.538 19.594 12.6862 19.594 14.6863C19.594 16.646 19.0137 17.7942 18.0773 17.7942Z" fill="black"/>
</svg>
