<svg width="28" height="28" viewBox="0 0 28 28" fill="none" xmlns="http://www.w3.org/2000/svg">
<path d="M17.7743 23.2968C18.7917 23.2968 19.6516 22.5198 19.6516 21.0998V6.65432C19.6516 5.23214 18.7959 4.4573 17.7785 4.4573C17.2622 4.4573 16.8291 4.60964 16.3191 4.90777L4.31859 11.9601C3.43172 12.4839 3 13.0973 3 13.8728C3 14.6483 3.43804 15.2765 4.31859 15.794L16.3191 22.8484C16.8269 23.1444 17.258 23.2968 17.7743 23.2968ZM17.0962 20.6352C17.0302 20.6352 16.9448 20.6043 16.8424 20.5424L6.03959 14.163C5.90084 14.0819 5.82935 14.0083 5.82935 13.8749C5.82935 13.7299 5.89873 13.6701 6.03959 13.589L16.8424 7.21165C16.9469 7.14767 17.0302 7.11884 17.092 7.11884C17.2488 7.11884 17.378 7.22126 17.378 7.42189V20.3322C17.378 20.5328 17.2488 20.6352 17.0962 20.6352ZM24.4804 23.7423C25.2 23.7423 25.7688 23.2066 25.7688 22.4976V5.264C25.7688 4.55503 25.2 4.00964 24.4804 4.00964C23.7609 4.00964 23.2017 4.55503 23.2017 5.264V22.4976C23.2017 23.2066 23.7609 23.7423 24.4804 23.7423Z" fill="black"/>
</svg>
