<svg width="28" height="28" viewBox="0 0 28 28" fill="none" xmlns="http://www.w3.org/2000/svg">
<path d="M2 14.4594C2 21.0892 7.48484 26.5644 14.105 26.5644C20.7369 26.5644 26.2121 21.0892 26.2121 14.4594C26.2121 10.6654 24.3169 7.07779 21.4634 4.93911C20.8381 4.42888 20.0881 4.53037 19.7023 5.07201C19.2976 5.64646 19.4773 6.32379 20.0211 6.79676C22.3379 8.55902 23.8159 11.3169 23.8276 14.4594C23.8372 19.8536 19.4991 24.1799 14.105 24.1799C8.71085 24.1799 4.39412 19.8536 4.39412 14.4594C4.39412 9.90106 7.48108 6.1091 11.6998 5.05911V6.72645C11.6998 7.61965 12.3627 7.86973 13.0852 7.35153L17.0197 4.55567C17.604 4.14599 17.6094 3.49701 17.0197 3.07021L13.0948 0.27436C12.3669 -0.25134 11.6998 -0.00970048 11.6998 0.897328V2.60451C6.19648 3.73326 2 8.65162 2 14.4594Z" fill="black"/>
<path d="M10.7364 19.3611C11.2546 19.3611 11.5898 19.0089 11.5898 18.4534V11.1812C11.5898 10.4908 11.2155 10.1237 10.6059 10.1237C10.2355 10.1237 9.95265 10.2419 9.50875 10.5758L7.98437 11.6572C7.67476 11.9071 7.5332 12.1412 7.5332 12.4487C7.5332 12.8692 7.87492 13.2205 8.28367 13.2205C8.54007 13.2205 8.68679 13.1589 8.91788 12.943L9.91093 12.1522H9.91609V18.4534C9.91609 18.9993 10.2374 19.3611 10.7364 19.3611ZM16.622 19.4765C18.5948 19.4765 19.8881 18.2099 19.8881 16.2768C19.8881 14.5288 18.7152 13.3363 17.1006 13.3363C16.3602 13.3363 15.5875 13.6911 15.2744 14.2825H15.3098L15.4963 11.7479H18.877C19.2843 11.7479 19.6005 11.4329 19.6005 10.9881C19.6005 10.5433 19.2864 10.2538 18.877 10.2538H15.1502C14.507 10.2538 14.1461 10.637 14.0896 11.3151L13.8604 14.6605C13.8039 15.2844 14.1403 15.6036 14.7002 15.6036C15.127 15.6036 15.2889 15.5186 15.6119 15.2734C16.0235 14.9012 16.3677 14.735 16.8217 14.735C17.684 14.735 18.2491 15.3735 18.2491 16.3171C18.2491 17.2766 17.587 17.9844 16.686 17.9844C16.0157 17.9844 15.4771 17.5987 15.1703 17.0357C14.9924 16.7479 14.7794 16.5838 14.4611 16.5838C14.0301 16.5838 13.7289 16.8967 13.7289 17.3352C13.7289 17.5098 13.7599 17.6706 13.8407 17.844C14.1475 18.6561 15.1851 19.4765 16.622 19.4765Z" fill="black"/>
</svg>
