<svg width="28" height="28" viewBox="0 0 28 28" fill="none" xmlns="http://www.w3.org/2000/svg">
<path d="M14.105 26.21C20.7369 26.21 26.2121 20.7273 26.2121 14.105C26.2121 7.47312 20.7273 2 14.0954 2C7.47523 2 2 7.47312 2 14.105C2 20.7273 7.48484 26.21 14.105 26.21Z" fill="black"/>
<path d="M22.6901 14.0809C22.6901 14.4406 22.4869 14.7261 22.08 14.9647L16.4939 18.2544C16.2478 18.395 16.0594 18.4557 15.8166 18.4557C15.3481 18.4557 14.9616 18.1161 14.9616 17.4643V14.4791C14.8573 14.6654 14.6923 14.8198 14.4495 14.9647L8.8559 18.2544C8.61731 18.3971 8.42137 18.4557 8.17856 18.4557C7.71754 18.4557 7.31934 18.1161 7.31934 17.4643V10.7112C7.31934 10.0573 7.71543 9.71985 8.17645 9.71985C8.41926 9.71985 8.61731 9.77844 8.8559 9.92117L14.4495 13.2109C14.6923 13.3557 14.8594 13.508 14.9616 13.6923V10.7112C14.9616 10.0573 15.346 9.71985 15.8145 9.71985C16.0594 9.71985 16.2478 9.78055 16.4939 9.92117L22.08 13.2109C22.4869 13.4494 22.6901 13.7286 22.6901 14.0809Z" fill="white"/>
</svg>
