<svg width="28" height="28" viewBox="0 0 28 28" fill="none" xmlns="http://www.w3.org/2000/svg">
<path d="M14.105 26.21C20.7369 26.21 26.2121 20.7273 26.2121 14.105C26.2121 7.47312 20.7273 2 14.0954 2C7.47523 2 2 7.47312 2 14.105C2 20.7273 7.48484 26.21 14.105 26.21Z" fill="black"/>
<path d="M6.32715 14.0846V13.3634C6.32715 11.3905 7.72261 10.1377 9.88308 10.1377H12.7485V8.72654C12.7485 8.35178 12.9902 8.10803 13.3809 8.10803C13.5576 8.10803 13.7268 8.16334 13.8578 8.27303L16.4713 10.4518C16.8046 10.7169 16.8046 11.1172 16.4713 11.3919L13.8578 13.5706C13.7226 13.6749 13.5555 13.7356 13.3809 13.7356C12.9902 13.7356 12.7485 13.5015 12.7485 13.1267V11.6762H9.74668C8.60738 11.6762 7.86769 12.4041 7.86769 13.471V14.0846C7.86769 14.5126 7.51847 14.8597 7.0905 14.8597C6.66464 14.8597 6.32715 14.5084 6.32715 14.0846ZM20.7456 14.8069V15.526C20.7456 17.4915 19.3502 18.7538 17.178 18.7538H12.8273V20.1863C12.8273 20.5611 12.5931 20.7952 12.1949 20.7952C12.0161 20.7952 11.849 20.742 11.7159 20.6302L9.1066 18.4632C8.78293 18.1981 8.77121 17.7765 9.09488 17.521L11.7159 15.3423C11.8511 15.2284 12.0182 15.1773 12.1949 15.1773C12.5835 15.1773 12.8273 15.4114 12.8273 15.7862V17.2154H17.3144C18.4516 17.2154 19.1934 16.497 19.1934 15.4205V14.8069C19.1934 14.3832 19.5426 14.0436 19.9706 14.0436C20.3985 14.0436 20.7456 14.3832 20.7456 14.8069ZM19.9727 12.8844C19.4744 12.8844 19.1486 12.5607 19.1486 12.0624V9.70224H19.2372L18.6215 10.2005C18.498 10.2985 18.3564 10.34 18.2191 10.34C17.8912 10.34 17.6432 10.0941 17.6432 9.78756C17.6432 9.57568 17.7103 9.41608 17.8987 9.26912L18.8214 8.57233C19.1856 8.28264 19.4519 8.18467 19.8299 8.18467C20.3889 8.18467 20.7712 8.56154 20.7712 9.13975V12.0624C20.7712 12.5607 20.4571 12.8844 19.9727 12.8844Z" fill="white"/>
</svg>
