<svg width="28" height="28" viewBox="0 0 28 28" fill="none" xmlns="http://www.w3.org/2000/svg">
<path d="M2 14.4594C2 21.0892 7.48484 26.5644 14.105 26.5644C20.7369 26.5644 26.2121 21.0892 26.2121 14.4594C26.2121 10.6654 24.3169 7.07779 21.4634 4.93911C20.8381 4.42888 20.0881 4.53037 19.7023 5.07201C19.2976 5.64646 19.4773 6.32379 20.0211 6.79676C22.3379 8.55902 23.8159 11.3169 23.8276 14.4594C23.8372 19.8536 19.4991 24.1799 14.105 24.1799C8.71085 24.1799 4.39412 19.8536 4.39412 14.4594C4.39412 9.90106 7.48108 6.1091 11.6998 5.05911V6.72645C11.6998 7.61965 12.3627 7.86973 13.0852 7.35153L17.0197 4.55567C17.604 4.14599 17.6094 3.49701 17.0197 3.07021L13.0948 0.27436C12.3669 -0.25134 11.6998 -0.00970048 11.6998 0.897328V2.60451C6.19648 3.73326 2 8.65162 2 14.4594Z" fill="black"/>
<path d="M13.9352 19.4765C15.908 19.4765 17.1916 18.2099 17.1916 16.2768C17.1916 14.5288 16.0167 13.3363 14.4042 13.3363C13.6638 13.3363 12.8911 13.6911 12.578 14.2825H12.6134L12.8095 11.7479H16.1806C16.5975 11.7479 16.9137 11.4329 16.9137 10.9881C16.9137 10.5433 16.5996 10.2538 16.1806 10.2538H12.4538C11.8107 10.2538 11.4497 10.637 11.4028 11.3151L11.164 14.6605C11.1171 15.2844 11.4535 15.6036 12.0038 15.6036C12.4306 15.6036 12.6021 15.5186 12.9134 15.2734C13.3366 14.9012 13.6713 14.735 14.1253 14.735C14.9972 14.735 15.5623 15.3735 15.5623 16.3171C15.5623 17.2766 14.8906 17.9844 13.9992 17.9844C13.3193 17.9844 12.7882 17.5987 12.4835 17.0357C12.3056 16.7479 12.0926 16.5838 11.7722 16.5838C11.3433 16.5838 11.04 16.8967 11.04 17.3352C11.04 17.5098 11.0731 17.6706 11.1443 17.844C11.4607 18.6561 12.4983 19.4765 13.9352 19.4765Z" fill="black"/>
</svg>
