<svg width="28" height="28" viewBox="0 0 28 28" fill="none" xmlns="http://www.w3.org/2000/svg">
<path d="M14.105 26.21C20.7369 26.21 26.2121 20.7273 26.2121 14.105C26.2121 7.47312 20.7273 2 14.0954 2C7.47523 2 2 7.47312 2 14.105C2 20.7273 7.48484 26.21 14.105 26.21ZM14.105 23.8255C8.71085 23.8255 4.39412 19.4991 4.39412 14.105C4.39412 8.71085 8.70124 4.38452 14.0954 4.38452C19.4895 4.38452 23.8276 8.71085 23.8276 14.105C23.8276 19.4991 19.4991 23.8255 14.105 23.8255Z" fill="black"/>
<path d="M12.4844 18.293C12.9273 18.293 13.3096 17.9523 13.3096 17.3356V10.824C13.3096 10.2074 12.9294 9.86658 12.4886 9.86658C12.2575 9.86658 12.0712 9.9369 11.8389 10.0658L6.44097 13.2406C6.05754 13.4654 5.86816 13.7445 5.86816 14.0787C5.86816 14.4109 6.05965 14.6963 6.44097 14.919L11.8389 18.0938C12.0712 18.2248 12.2575 18.293 12.4844 18.293ZM19.9002 18.293C20.3432 18.293 20.718 17.9523 20.718 17.3356V10.824C20.718 10.2074 20.3474 9.86658 19.9023 9.86658C19.6733 9.86658 19.4678 9.9369 19.2526 10.0658L13.8547 13.2406C13.4617 13.4654 13.2744 13.7445 13.2744 14.0787C13.2744 14.4109 13.4638 14.6963 13.8547 14.919L19.2526 18.0938C19.4678 18.2248 19.6712 18.293 19.9002 18.293Z" fill="black"/>
</svg>
