<svg width="28" height="28" viewBox="0 0 28 28" fill="none" xmlns="http://www.w3.org/2000/svg">
<path d="M14.105 26.21C20.7369 26.21 26.2121 20.7273 26.2121 14.105C26.2121 7.47312 20.7273 2 14.0954 2C7.47523 2 2 7.47312 2 14.105C2 20.7273 7.48484 26.21 14.105 26.21ZM14.105 23.8255C8.71085 23.8255 4.39412 19.4991 4.39412 14.105C4.39412 8.71085 8.70124 4.38452 14.0954 4.38452C19.4895 4.38452 23.8276 8.71085 23.8276 14.105C23.8276 19.4991 19.4991 23.8255 14.105 23.8255Z" fill="black"/>
<path d="M9.88953 18.3269C10.1089 18.3269 10.3144 18.2587 10.5275 18.1298L15.9254 14.9645C16.3163 14.7377 16.5057 14.4564 16.5057 14.1126C16.5057 13.7784 16.3184 13.4992 15.9254 13.2724L10.5275 10.1071C10.3144 9.97818 10.1089 9.91208 9.88953 9.91208C9.43695 9.91208 9.06641 10.2432 9.06641 10.8674V17.3695C9.06641 17.9936 9.43906 18.3269 9.88953 18.3269ZM18.3852 18.4666C18.8687 18.4666 19.1265 18.2259 19.1265 17.737V10.4807C19.1265 9.99177 18.8666 9.74146 18.3852 9.74146H17.1502C16.6688 9.74146 16.4089 9.98638 16.4089 10.4807V17.737C16.4089 18.2259 16.6688 18.4666 17.1502 18.4666H18.3852Z" fill="black"/>
</svg>
