<svg width="28" height="28" viewBox="0 0 28 28" fill="none" xmlns="http://www.w3.org/2000/svg">
<path d="M14.105 26.21C20.7369 26.21 26.2121 20.7273 26.2121 14.105C26.2121 7.47312 20.7273 2 14.0954 2C7.47523 2 2 7.47312 2 14.105C2 20.7273 7.48484 26.21 14.105 26.21ZM14.105 23.8255C8.71085 23.8255 4.39412 19.4991 4.39412 14.105C4.39412 8.71085 8.70124 4.38452 14.0954 4.38452C19.4895 4.38452 23.8276 8.71085 23.8276 14.105C23.8276 19.4991 19.4991 23.8255 14.105 23.8255Z" fill="black"/>
<path d="M14.1147 18.6955C16.6523 18.6955 18.7169 16.6287 18.7169 14.0816C18.7169 11.5461 16.6523 9.49109 14.1147 9.49109C11.5675 9.49109 9.50293 11.5461 9.50293 14.0816C9.50293 16.6287 11.5675 18.6955 14.1147 18.6955Z" fill="black"/>
</svg>
