<svg width="28" height="28" viewBox="0 0 28 28" fill="none" xmlns="http://www.w3.org/2000/svg">
<path d="M14.105 26.21C20.7369 26.21 26.2121 20.7273 26.2121 14.105C26.2121 7.47312 20.7273 2 14.0954 2C7.47523 2 2 7.47312 2 14.105C2 20.7273 7.48484 26.21 14.105 26.21ZM14.105 23.8255C8.71085 23.8255 4.39412 19.4991 4.39412 14.105C4.39412 8.71085 8.70124 4.38452 14.0954 4.38452C19.4895 4.38452 23.8276 8.71085 23.8276 14.105C23.8276 19.4991 19.4991 23.8255 14.105 23.8255Z" fill="black"/>
<path d="M6.26172 14.1008C6.26172 16.3358 7.6764 17.825 9.78461 17.825C10.8937 17.825 11.8333 17.3605 12.8486 16.3899L14.1095 15.1833L15.378 16.3899C16.4125 17.3797 17.3446 17.825 18.4323 17.825C20.5501 17.825 21.9648 16.3358 21.9648 14.1008C21.9648 11.8637 20.5501 10.3649 18.4323 10.3649C17.3329 10.3649 16.4029 10.8102 15.378 11.7999L14.1095 13.0161L12.8486 11.7999C11.8429 10.839 10.9033 10.3649 9.78461 10.3649C7.6764 10.3649 6.26172 11.8637 6.26172 14.1008ZM7.8414 14.1008C7.8414 12.7887 8.60148 11.937 9.78461 11.937C10.4188 11.937 10.9837 12.2291 11.7447 12.9453L12.9855 14.1008L11.7447 15.2562C11.0029 15.9533 10.4284 16.2528 9.78461 16.2528C8.60148 16.2528 7.8414 15.4128 7.8414 14.1008ZM15.2411 14.1008L16.4722 12.9453C17.2333 12.2291 17.8077 11.937 18.4323 11.937C19.6155 11.937 20.3873 12.7887 20.3873 14.1008C20.3873 15.4128 19.6155 16.2528 18.4323 16.2528C17.7885 16.2528 17.214 15.9533 16.4722 15.2562L15.2411 14.1008Z" fill="black"/>
</svg>
