<svg width="28" height="28" viewBox="0 0 28 28" fill="none" xmlns="http://www.w3.org/2000/svg">
<path d="M16.6912 20.0826L6.49805 9.88943V22.802C6.49805 23.9587 7.16367 24.6899 8.11523 24.6899C8.6114 24.6899 9.04358 24.5045 9.57561 24.1991L16.6912 20.0826ZM20.9925 17.5949L23.3852 16.21C24.3937 15.6147 24.8074 15.168 24.8074 14.4435C24.8074 13.7191 24.3937 13.2724 23.3852 12.6888L9.57561 4.69007C9.09163 4.40179 8.69788 4.21851 8.25187 4.21851C8.08312 4.21851 7.9357 4.31647 7.85649 4.46647L20.9925 17.5949Z" fill="black"/>
<path d="M22.1339 23.4361C22.5035 23.7982 23.1009 23.8003 23.4534 23.4361C23.8134 23.074 23.8251 22.4808 23.4534 22.1166L5.59615 4.27316C5.23193 3.90895 4.63662 3.90895 4.26279 4.27316C3.9124 4.62355 3.9124 5.24019 4.26279 5.59058L22.1339 23.4361Z" fill="black"/>
</svg>
