<svg width="36" height="28" viewBox="0 0 36 28" fill="none" xmlns="http://www.w3.org/2000/svg">
<path d="M1.27874 23.7423C2.00787 23.7423 2.56709 23.2066 2.56709 22.4976V5.264C2.56709 4.55503 2.00787 4.00964 1.27874 4.00964C0.559214 4.00964 0 4.55503 0 5.264V22.4976C0 23.2066 0.559214 23.7423 1.27874 23.7423ZM17.2891 23.2968C18.314 23.2968 19.1664 22.5198 19.1664 21.0998V6.65432C19.1664 5.23214 18.3182 4.4573 17.2933 4.4573C16.7749 4.4573 16.3439 4.60964 15.8339 4.90777L3.8313 11.9601C2.94443 12.4839 2.51271 13.0973 2.51271 13.8728C2.51271 14.6483 2.95286 15.2765 3.8313 15.794L15.8339 22.8484C16.3418 23.1444 16.7728 23.2968 17.2891 23.2968ZM16.6186 20.6352C16.5429 20.6352 16.4575 20.6043 16.3551 20.5424L5.56191 14.163C5.42316 14.0819 5.34417 14.0083 5.34417 13.8749C5.34417 13.7299 5.41144 13.6701 5.56191 13.589L16.3551 7.21165C16.4597 7.14767 16.5429 7.11884 16.6165 7.11884C16.7636 7.11884 16.8907 7.22126 16.8907 7.42189V20.3322C16.8907 20.5328 16.7636 20.6352 16.6186 20.6352ZM33.8821 23.2968C34.9092 23.2968 35.7595 22.5198 35.7595 21.0998V6.65432C35.7595 5.23214 34.9134 4.4573 33.8864 4.4573C33.37 4.4573 32.9369 4.60964 32.4269 4.90777L20.4264 11.9601C19.5396 12.4839 19.1078 13.0973 19.1078 13.8728C19.1078 14.6483 19.5459 15.2765 20.4264 15.794L32.4269 22.8484C32.9348 23.1444 33.3658 23.2968 33.8821 23.2968ZM33.2116 20.6352C33.138 20.6352 33.0506 20.6043 32.9503 20.5424L22.157 14.163C22.0183 14.0819 21.9372 14.0083 21.9372 13.8749C21.9372 13.7299 22.0066 13.6701 22.157 13.589L32.9503 7.21165C33.0548 7.14767 33.138 7.11884 33.2095 7.11884C33.3567 7.11884 33.4858 7.22126 33.4858 7.42189V20.3322C33.4858 20.5328 33.3567 20.6352 33.2116 20.6352Z" fill="black"/>
</svg>
