<svg width="28" height="28" viewBox="0 0 28 28" fill="none" xmlns="http://www.w3.org/2000/svg">
<path d="M5.42452 23.4653C6.54014 23.4653 7.09913 22.8925 7.09913 21.7832V5.6725C7.09913 4.57281 6.53382 4 5.42452 4H2.68421C1.57492 4 1 4.54492 1 5.6725V21.7832C1 22.8925 1.57492 23.4653 2.68421 23.4653H5.42452ZM12.4977 23.139C13.0119 23.139 13.4526 22.9867 13.9529 22.6886L25.9534 15.6458C26.8319 15.1283 27.272 14.5002 27.272 13.7247C27.272 12.9395 26.8403 12.3337 25.9534 11.812L13.9529 4.75961C13.4408 4.46148 13.0098 4.30914 12.4914 4.30914C11.4761 4.30914 10.6183 5.08398 10.6183 6.50617V20.9516C10.6183 22.3717 11.4803 23.139 12.4977 23.139Z" fill="black"/>
</svg>
