<svg width="28" height="28" viewBox="0 0 28 28" fill="none" xmlns="http://www.w3.org/2000/svg">
<path d="M4.27874 23.7423C5.00037 23.7423 5.56709 23.2066 5.56709 22.4976V5.264C5.56709 4.55503 5.00037 4.00964 4.27874 4.00964C3.55921 4.00964 3 4.55503 3 5.264V22.4976C3 23.2066 3.55921 23.7423 4.27874 23.7423ZM10.9849 23.2968C11.5012 23.2968 11.9419 23.1444 12.4497 22.8484L24.4502 15.794C25.3211 15.2765 25.7709 14.6483 25.7709 13.8728C25.7709 13.0973 25.3371 12.4839 24.4502 11.9601L12.4497 4.90777C11.9397 4.60964 11.4991 4.4573 10.9807 4.4573C9.96326 4.4573 9.10756 5.23214 9.10756 6.65432V21.0998C9.10756 22.5198 9.96959 23.2968 10.9849 23.2968ZM11.665 20.6352C11.52 20.6352 11.3908 20.5328 11.3908 20.3322V7.42189C11.3908 7.22126 11.52 7.11884 11.6672 7.11884C11.7408 7.11884 11.8218 7.14767 11.9285 7.21165L22.7196 13.589C22.8626 13.6701 22.9394 13.7299 22.9394 13.8749C22.9394 14.0083 22.8583 14.0819 22.7196 14.163L11.9285 20.5424C11.8261 20.6043 11.7407 20.6352 11.665 20.6352Z" fill="black"/>
</svg>
