<svg width="28" height="28" viewBox="0 0 28 28" fill="none" xmlns="http://www.w3.org/2000/svg">
<path d="M14.105 26.21C20.7369 26.21 26.2121 20.7273 26.2121 14.105C26.2121 7.47312 20.7273 2 14.0954 2C7.47523 2 2 7.47312 2 14.105C2 20.7273 7.48484 26.21 14.105 26.21Z" fill="black"/>
<path d="M8.86426 17.8677V10.3403C8.86426 9.83332 9.13801 9.57129 9.63746 9.57129H10.9256C11.4229 9.57129 11.6967 9.83004 11.6967 10.3403V13.7326C11.7871 13.543 11.9479 13.381 12.1961 13.2404L17.8015 9.95074C18.0208 9.81973 18.2381 9.75153 18.4692 9.75153C18.9398 9.75153 19.3284 10.1007 19.3284 10.745V17.4917C19.3284 18.1456 18.9377 18.4874 18.4692 18.4874C18.2381 18.4874 18.0208 18.417 17.8015 18.286L12.1961 14.9963C11.9521 14.8557 11.7893 14.6916 11.6967 14.502V17.8677C11.6967 18.3842 11.4229 18.6367 10.9256 18.6367H9.63746C9.1359 18.6367 8.86426 18.3842 8.86426 17.8677Z" fill="white"/>
</svg>
