<svg width="28" height="28" viewBox="0 0 28 28" fill="none" xmlns="http://www.w3.org/2000/svg">
<path d="M2 14.4594C2 21.0892 7.48484 26.5644 14.105 26.5644C20.7369 26.5644 26.2121 21.0892 26.2121 14.4594C26.2121 10.6654 24.3169 7.07779 21.4634 4.93911C20.8381 4.42888 20.0881 4.53037 19.7023 5.07201C19.2976 5.64646 19.4773 6.32379 20.0211 6.79676C22.3379 8.55902 23.8159 11.3169 23.8276 14.4594C23.8372 19.8536 19.4991 24.1799 14.105 24.1799C8.71085 24.1799 4.39412 19.8536 4.39412 14.4594C4.39412 9.90106 7.48108 6.1091 11.6998 5.05911V6.72645C11.6998 7.61965 12.3627 7.86973 13.0852 7.35153L17.0197 4.55567C17.604 4.14599 17.6094 3.49701 17.0197 3.07021L13.0948 0.27436C12.3669 -0.25134 11.6998 -0.00970048 11.6998 0.897328V2.60451C6.19648 3.73326 2 8.65162 2 14.4594Z" fill="black"/>
<path d="M10.1576 19.4617C12.3488 19.4617 13.5514 17.6966 13.5514 14.5051C13.5514 12.951 13.2169 11.7484 12.5546 11.0209C12.023 10.3933 11.2559 10.0501 10.3078 10.0501C8.41808 10.0501 7.20801 11.2911 7.20801 13.2458C7.20801 14.961 8.3173 16.168 9.89512 16.168C10.9064 16.168 11.7256 15.6512 12.0434 14.7876L11.9785 14.7182C11.9827 14.7714 11.9848 14.8469 11.9848 14.9802C11.9848 16.7219 11.2873 17.9664 10.1438 17.9664C9.60449 17.9664 9.17371 17.6999 8.91261 17.2637C8.7155 16.9684 8.51956 16.8332 8.19378 16.8332C7.79347 16.8332 7.45082 17.1622 7.45082 17.5719C7.45082 17.74 7.47097 17.8698 7.56566 18.0529C7.81691 18.5418 8.63394 19.4617 10.1576 19.4617ZM10.3568 14.7951C9.46222 14.7951 8.85659 14.1437 8.85659 13.1629C8.85659 12.1351 9.45261 11.4922 10.3568 11.4922C11.2439 11.4922 11.8592 12.1853 11.8592 13.1821C11.8592 14.1383 11.2418 14.7951 10.3568 14.7951ZM18.0357 19.4521C19.9536 19.4521 21.2773 17.6354 21.2773 14.7618C21.2773 11.8668 19.9536 10.0309 18.0357 10.0309C16.1061 10.0309 14.8205 11.8098 14.8205 14.7714C14.8205 17.702 16.1178 19.4521 18.0357 19.4521ZM18.0441 17.8696C17.1099 17.8696 16.5275 16.7214 16.5275 14.7618C16.5275 12.7712 17.1003 11.6134 18.0441 11.6134C18.9997 11.6134 19.5607 12.7616 19.5607 14.7618C19.5607 16.7214 18.99 17.8696 18.0441 17.8696Z" fill="black"/>
</svg>
