<svg width="28" height="28" viewBox="0 0 28 28" fill="none" xmlns="http://www.w3.org/2000/svg">
<path d="M5.27874 23.7423C6.00787 23.7423 6.56709 23.2066 6.56709 22.4976V5.264C6.56709 4.55503 6.00787 4.00964 5.27874 4.00964C4.55921 4.00964 4 4.55503 4 5.264V22.4976C4 23.2066 4.55921 23.7423 5.27874 23.7423ZM21.2828 23.2968C22.3098 23.2968 23.1601 22.5198 23.1601 21.0998V6.65432C23.1601 5.23214 22.314 4.4573 21.2891 4.4573C20.7707 4.4573 20.3397 4.60964 19.8275 4.90777L7.82708 11.9601C6.94021 12.4839 6.50849 13.0973 6.50849 13.8728C6.50849 14.6483 6.94865 15.2765 7.82708 15.794L19.8275 22.8484C20.3354 23.1444 20.7686 23.2968 21.2828 23.2968ZM20.6143 20.6352C20.5386 20.6352 20.4533 20.6043 20.3509 20.5424L9.55769 14.163C9.41894 14.0819 9.33785 14.0083 9.33785 13.8749C9.33785 13.7299 9.40722 13.6701 9.55769 13.589L20.3509 7.21165C20.4554 7.14767 20.5386 7.11884 20.6122 7.11884C20.7573 7.11884 20.8865 7.22126 20.8865 7.42189V20.3322C20.8865 20.5328 20.7573 20.6352 20.6143 20.6352Z" fill="black"/>
</svg>
