<svg width="28" height="28" viewBox="0 0 28 28" fill="none" xmlns="http://www.w3.org/2000/svg">
<path d="M14.105 26.21C20.7369 26.21 26.2121 20.7273 26.2121 14.105C26.2121 7.47312 20.7273 2 14.0954 2C7.47523 2 2 7.47312 2 14.105C2 20.7273 7.48484 26.21 14.105 26.21ZM14.105 23.8255C8.71085 23.8255 4.39412 19.4991 4.39412 14.105C4.39412 8.71085 8.70124 4.38452 14.0954 4.38452C19.4895 4.38452 23.8276 8.71085 23.8276 14.105C23.8276 19.4991 19.4991 23.8255 14.105 23.8255Z" fill="black"/>
<path d="M7.90879 18.3488L13.4928 14.7134C13.935 14.4055 13.9308 13.8205 13.4928 13.5359L7.90879 9.87707C7.44098 9.57449 6.81543 9.84074 6.81543 10.365V17.8726C6.81543 18.4044 7.40793 18.6706 7.90879 18.3488ZM15.4979 18.354H16.6015C17.1556 18.354 17.4122 18.0493 17.4122 17.6073V10.6006C17.4122 10.1489 17.1556 9.85386 16.6015 9.85386H15.4979C14.9534 9.85386 14.6797 10.1489 14.6797 10.6006V17.6073C14.6797 18.0493 14.9534 18.354 15.4979 18.354ZM19.5115 18.354H20.6194C21.1522 18.354 21.4163 18.0493 21.4163 17.6094V10.5985C21.4163 10.1489 21.1522 9.85386 20.6194 9.85386H19.5115C18.9671 9.85386 18.6933 10.1489 18.6933 10.5985V17.6094C18.6933 18.0493 18.9671 18.354 19.5115 18.354Z" fill="black"/>
</svg>
