<svg width="28" height="28" viewBox="0 0 28 28" fill="none" xmlns="http://www.w3.org/2000/svg">
<path d="M2 14.4594C2 21.0892 7.48484 26.5644 14.105 26.5644C20.7369 26.5644 26.2121 21.0892 26.2121 14.4594C26.2121 10.6654 24.3169 7.07779 21.4634 4.93911C20.8381 4.42888 20.0881 4.53037 19.7023 5.07201C19.2976 5.64646 19.4773 6.32379 20.0211 6.79676C22.3379 8.55902 23.8159 11.3169 23.8276 14.4594C23.8372 19.8536 19.4991 24.1799 14.105 24.1799C8.71085 24.1799 4.39412 19.8536 4.39412 14.4594C4.39412 9.90106 7.48108 6.1091 11.6998 5.05911V6.72645C11.6998 7.61965 12.3627 7.86973 13.0852 7.35153L17.0197 4.55567C17.604 4.14599 17.6094 3.49701 17.0197 3.07021L13.0948 0.27436C12.3669 -0.25134 11.6998 -0.00970048 11.6998 0.897328V2.60451C6.19648 3.73326 2 8.65162 2 14.4594Z" fill="black"/>
<path d="M10.4266 19.4521C12.325 19.4521 13.5501 18.1771 13.5501 16.2236C13.5501 14.5159 12.3613 13.3447 10.8342 13.3447C9.78534 13.3447 8.98284 13.8744 8.64956 14.6547L8.70815 14.7346C8.69761 14.6432 8.69761 14.604 8.69761 14.5138C8.69761 12.7089 9.44901 11.5454 10.5654 11.5454C11.1452 11.5454 11.5129 11.7735 11.7719 12.1808C11.9775 12.4771 12.1839 12.5997 12.5355 12.5997C12.9166 12.5997 13.207 12.3154 13.207 11.9003C13.207 11.7088 13.1676 11.5438 13.1038 11.3917C12.779 10.6297 11.8872 10.0405 10.6387 10.0405C8.42995 10.0405 7.11816 11.792 7.11816 14.9347C7.11816 16.1537 7.30355 17.1721 7.70949 17.9113C8.24199 18.9325 9.21136 19.4521 10.4266 19.4521ZM10.3532 18.01C9.46612 18.01 8.83167 17.3169 8.83167 16.3319C8.83167 15.366 9.45862 14.6975 10.3532 14.6975C11.2479 14.6975 11.8727 15.3585 11.8727 16.3319C11.8727 17.3629 11.2767 18.01 10.3532 18.01ZM18.0142 19.4521C19.9321 19.4521 21.2559 17.6354 21.2559 14.7618C21.2559 11.8668 19.9321 10.0309 18.0142 10.0309C16.0867 10.0309 14.7895 11.8098 14.7895 14.7714C14.7895 17.702 16.0963 19.4521 18.0142 19.4521ZM18.0248 17.8696C17.0788 17.8696 16.4985 16.7214 16.4985 14.7618C16.4985 12.7712 17.0692 11.6134 18.0248 11.6134C18.9686 11.6134 19.5393 12.7616 19.5393 14.7618C19.5393 16.7214 18.959 17.8696 18.0248 17.8696Z" fill="black"/>
</svg>
