<svg width="28" height="28" viewBox="0 0 28 28" fill="none" xmlns="http://www.w3.org/2000/svg">
<path d="M0 20.7362C0 23.2463 1.31484 24.542 3.84421 24.542H23.9109C26.4499 24.542 27.7552 23.2367 27.7552 20.7362V6.474C27.7552 3.97135 26.4499 2.66823 23.9109 2.66823H16.2288C15.5993 2.66823 15.075 3.1808 15.075 3.81033C15.075 4.43986 15.5993 4.96415 16.2288 4.96415H23.7778C24.8578 4.96415 25.4592 5.52618 25.4592 6.66478V20.5433C25.4592 21.6819 24.8578 22.246 23.7778 22.246H3.97733C2.88772 22.246 2.29592 21.6819 2.29592 20.5433V6.66478C2.29592 5.52618 2.88772 4.96415 3.97733 4.96415H6.73875V6.72805C6.73875 7.61915 7.40156 7.86922 8.12413 7.35102L12.0586 4.55728C12.6429 4.13798 12.6483 3.489 12.0586 3.07182L8.13374 0.273856C7.40578 -0.251845 6.73875 -0.00809628 6.73875 0.896823V2.66823H3.84421C1.31484 2.66823 0 3.96174 0 6.474V20.7362Z" fill="black"/>
</svg>
