<svg width="28" height="28" viewBox="0 0 28 28" fill="none" xmlns="http://www.w3.org/2000/svg">
<path d="M2 14.384C2 21.0138 7.48484 26.489 14.105 26.489C20.7369 26.489 26.2121 21.0138 26.2121 14.384C26.2121 8.57619 22.0135 3.65783 16.5101 2.52908V0.886115C16.5101 -0.00497597 15.8558 -0.244507 15.1365 0.261038L11.202 2.97346C10.5997 3.38642 10.5943 4.04806 11.202 4.46853L15.1269 7.19266C15.8537 7.70782 16.5101 7.47462 16.5101 6.56759V4.98368C20.731 6.03368 23.8159 9.82563 23.8159 14.384C23.8159 19.7781 19.4991 24.1045 14.105 24.1045C8.71085 24.1045 4.37491 19.7781 4.38452 14.384C4.39412 11.2415 5.87421 8.4836 8.1889 6.72133C8.73476 6.24837 8.91452 5.57103 8.50765 4.99658C8.12188 4.45494 7.37188 4.35345 6.74868 4.86368C3.89516 7.00236 2 10.5899 2 14.384Z" fill="black"/>
<path d="M11.713 19.3574C12.2354 19.3574 12.5504 18.9956 12.5504 18.3752V17.5143H13.0243C13.4501 17.5143 13.7323 17.2312 13.7323 16.7788C13.7323 16.334 13.4459 16.0446 13.0222 16.0446H12.5335V11.2645C12.5335 10.4409 12.0127 10.0525 11.2161 10.0525C10.5306 10.0525 10.1061 10.3122 9.74286 10.9649C8.95184 12.3332 7.99418 14.0303 7.23949 15.4296C7.03512 15.8275 6.96387 16.0914 6.96387 16.503C6.96387 17.114 7.36395 17.5227 8.04504 17.5227H10.9086V18.3752C10.9086 18.9956 11.2002 19.3574 11.713 19.3574ZM8.65933 16.0488V16.0073C9.41004 14.5249 10.1469 13.052 10.8976 11.5792H10.9487V16.0488H8.65933ZM17.6312 19.401C19.6018 19.401 20.8972 18.1345 20.8972 16.2013C20.8972 14.4534 19.7223 13.2609 18.1098 13.2609C17.3694 13.2609 16.5966 13.6157 16.2835 14.207H16.3168L16.5151 11.6725H19.884C20.2934 11.6725 20.6192 11.3575 20.6192 10.9127C20.6192 10.4678 20.2955 10.1784 19.884 10.1784H16.1593C15.5162 10.1784 15.1552 10.5616 15.1084 11.2396L14.8674 14.5851C14.8227 15.209 15.159 15.5282 15.7093 15.5282C16.1361 15.5282 16.3076 15.4431 16.6189 15.198C17.0422 14.8258 17.3769 14.6596 17.8309 14.6596C18.7027 14.6596 19.2678 15.2981 19.2678 16.2417C19.2678 17.2012 18.5961 17.909 17.693 17.909C17.0248 17.909 16.4841 17.5232 16.1794 16.9603C16.0016 16.6724 15.7981 16.5084 15.4681 16.5084C15.0392 16.5084 14.7455 16.8213 14.7455 17.2598C14.7455 17.4344 14.7786 17.5952 14.8498 17.7686C15.1662 18.5807 16.2038 19.401 17.6312 19.401Z" fill="black"/>
</svg>
