<svg width="28" height="28" viewBox="0 0 28 28" fill="none" xmlns="http://www.w3.org/2000/svg">
<path d="M14.105 26.21C20.7369 26.21 26.2121 20.7273 26.2121 14.105C26.2121 7.47312 20.7273 2 14.0954 2C7.47523 2 2 7.47312 2 14.105C2 20.7273 7.48484 26.21 14.105 26.21Z" fill="black"/>
<path d="M7.67669 18.5127C7.15239 18.8483 6.53223 18.5703 6.53223 18.0109V10.2267C6.53223 9.67901 7.18544 9.39682 7.67669 9.71112L13.4639 13.5083C13.9179 13.8087 13.9221 14.4214 13.4639 14.739L7.67669 18.5127ZM15.5465 18.5199C14.9744 18.5199 14.6986 18.1993 14.6986 17.7413V10.4644C14.6986 9.99682 14.9744 9.68792 15.5465 9.68792H16.6959C17.2659 9.68792 17.5364 9.99682 17.5364 10.4644V17.7413C17.5364 18.1993 17.2659 18.5199 16.6959 18.5199H15.5465ZM19.7187 18.5199C19.1508 18.5199 18.8611 18.1993 18.8611 17.7455V10.4623C18.8611 9.99682 19.1508 9.68792 19.7187 9.68792H20.8722C21.4188 9.68792 21.6989 9.99682 21.6989 10.4623V17.7455C21.6989 18.1993 21.4188 18.5199 20.8722 18.5199H19.7187Z" fill="white"/>
</svg>
