<svg width="28" height="28" viewBox="0 0 28 28" fill="none" xmlns="http://www.w3.org/2000/svg">
<path d="M14.105 26.21C20.7369 26.21 26.2121 20.7273 26.2121 14.105C26.2121 7.47312 20.7273 2 14.0954 2C7.47523 2 2 7.47312 2 14.105C2 20.7273 7.48484 26.21 14.105 26.21ZM14.105 23.8255C8.71085 23.8255 4.39412 19.4991 4.39412 14.105C4.39412 8.71085 8.70124 4.38452 14.0954 4.38452C19.4895 4.38452 23.8276 8.71085 23.8276 14.105C23.8276 19.4991 19.4991 23.8255 14.105 23.8255Z" fill="black"/>
<path d="M10.759 18.7112H11.9707C12.5735 18.7112 12.8662 18.3779 12.8662 17.8871V10.2994C12.8662 9.82038 12.5735 9.48499 11.9707 9.48499H10.759C10.1637 9.48499 9.87305 9.82038 9.87305 10.2994V17.8871C9.87305 18.3779 10.1637 18.7112 10.759 18.7112ZM16.2412 18.7112H17.4529C18.0365 18.7112 18.3293 18.3779 18.3293 17.8871V10.2994C18.3293 9.82038 18.0365 9.48499 17.4529 9.48499H16.2412C15.6363 9.48499 15.3457 9.82038 15.3457 10.2994V17.8871C15.3457 18.3779 15.6363 18.7112 16.2412 18.7112Z" fill="black"/>
</svg>
