<svg width="28" height="28" viewBox="0 0 28 28" fill="none" xmlns="http://www.w3.org/2000/svg">
<path d="M2 14.384C2 21.0138 7.48484 26.489 14.105 26.489C20.7369 26.489 26.2121 21.0138 26.2121 14.384C26.2121 8.57619 22.0135 3.65783 16.5101 2.52908V0.886115C16.5101 -0.00497597 15.8558 -0.244507 15.1365 0.261038L11.202 2.97346C10.5997 3.38642 10.5943 4.04806 11.202 4.46853L15.1269 7.19266C15.8537 7.70782 16.5101 7.47462 16.5101 6.56759V4.98368C20.731 6.03368 23.8159 9.82563 23.8159 14.384C23.8159 19.7781 19.4991 24.1045 14.105 24.1045C8.71085 24.1045 4.37491 19.7781 4.38452 14.384C4.39412 11.2415 5.87421 8.4836 8.1889 6.72133C8.73476 6.24837 8.91452 5.57103 8.50765 4.99658C8.12188 4.45494 7.37188 4.35345 6.74868 4.86368C3.89516 7.00236 2 10.5899 2 14.384Z" fill="black"/>
<path d="M10.7882 19.2857C11.3064 19.2857 11.6415 18.9335 11.6415 18.378V11.1058C11.6415 10.4153 11.2672 10.0483 10.6576 10.0483C10.2873 10.0483 10.0044 10.1664 9.5605 10.5004L8.03823 11.5818C7.72863 11.8317 7.58496 12.0658 7.58496 12.3733C7.58496 12.7938 7.91706 13.1451 8.33753 13.1451C8.59183 13.1451 8.74065 13.0834 8.97175 12.8676L9.96269 12.0768H9.96785V18.378C9.96785 18.9238 10.2892 19.2857 10.7882 19.2857ZM16.6738 19.401C18.6465 19.401 19.9398 18.1345 19.9398 16.2013C19.9398 14.4534 18.767 13.2609 17.1524 13.2609C16.4141 13.2609 15.6393 13.6157 15.3262 14.207H15.3615L15.5502 11.6725H18.9287C19.3361 11.6725 19.6544 11.3575 19.6544 10.9127C19.6544 10.4678 19.3382 10.1784 18.9287 10.1784H15.204C14.5588 10.1784 14.1979 10.5616 14.1414 11.2396L13.9122 14.5851C13.8557 15.209 14.192 15.5282 14.7519 15.5282C15.1808 15.5282 15.3428 15.4431 15.6637 15.198C16.0773 14.8258 16.4216 14.6596 16.866 14.6596C17.7379 14.6596 18.3008 15.2981 18.3008 16.2417C18.3008 17.2012 17.6387 17.909 16.7378 17.909C16.0675 17.909 15.5289 17.5232 15.2221 16.9603C15.0463 16.6724 14.8312 16.5084 14.5129 16.5084C14.0819 16.5084 13.7807 16.8213 13.7807 17.2598C13.7807 17.4344 13.8116 17.5952 13.8829 17.7686C14.1993 18.5807 15.239 19.401 16.6738 19.401Z" fill="black"/>
</svg>
