<svg width="28" height="28" viewBox="0 0 28 28" fill="none" xmlns="http://www.w3.org/2000/svg">
<path d="M15.7764 23.139C16.7917 23.139 17.6537 22.3717 17.6537 20.9516V6.50617C17.6537 5.08398 16.7959 4.30914 15.7806 4.30914C15.2622 4.30914 14.8312 4.46148 14.3212 4.75961L2.31859 11.812C1.43383 12.3337 1 12.9395 1 13.7247C1 14.5002 1.44015 15.1283 2.31859 15.6458L14.3212 22.6886C14.8194 22.9867 15.2601 23.139 15.7764 23.139ZM22.8475 23.4653H25.5878C26.6971 23.4653 27.272 22.8925 27.272 21.7832V5.6725C27.272 4.54492 26.6971 4 25.5878 4H22.8475C21.7382 4 21.175 4.57281 21.175 5.6725V21.7832C21.175 22.8925 21.7319 23.4653 22.8475 23.4653Z" fill="black"/>
</svg>
