<svg width="28" height="28" viewBox="0 0 28 28" fill="none" xmlns="http://www.w3.org/2000/svg">
<path d="M14.105 26.21C20.7369 26.21 26.2121 20.7273 26.2121 14.105C26.2121 7.47312 20.7273 2 14.0954 2C7.47523 2 2 7.47312 2 14.105C2 20.7273 7.48484 26.21 14.105 26.21Z" fill="black"/>
<path d="M10.6338 18.894C10.0129 18.894 9.71387 18.5426 9.71387 18.0359V10.1528C9.71387 9.65565 10.0129 9.30432 10.6338 9.30432H11.8975C12.528 9.30432 12.8249 9.65565 12.8249 10.1528V18.0359C12.8249 18.5426 12.528 18.894 11.8975 18.894H10.6338ZM16.334 18.894C15.7035 18.894 15.4066 18.5426 15.4066 18.0359V10.1528C15.4066 9.65565 15.7035 9.30432 16.334 9.30432H17.5977C18.209 9.30432 18.5081 9.65565 18.5081 10.1528V18.0359C18.5081 18.5426 18.209 18.894 17.5977 18.894H16.334Z" fill="white"/>
</svg>
