<svg width="40" height="28" viewBox="0 0 40 28" fill="none" xmlns="http://www.w3.org/2000/svg">
<path d="M34.8703 23.4653H37.6106C38.7199 23.4653 39.2852 22.8925 39.2852 21.7832V5.6725C39.2852 4.54492 38.7199 4 37.6106 4H34.8703C33.7631 4 33.1882 4.57281 33.1882 5.6725V21.7832C33.1882 22.8925 33.7546 23.4653 34.8703 23.4653ZM18.4725 23.1074C18.9867 23.1074 19.4273 22.9551 19.9277 22.6569L31.9282 15.6142C32.8066 15.0967 33.2468 14.4686 33.2468 13.6909C33.2468 12.9058 32.815 12.302 31.9282 11.7803L19.9277 4.72586C19.4156 4.42985 18.9846 4.2775 18.4661 4.2775C17.4508 4.2775 16.593 5.05023 16.593 6.47453V20.92C16.593 22.3401 17.4551 23.1074 18.4725 23.1074ZM1.87734 23.1074C2.39366 23.1074 2.82468 22.9551 3.33257 22.6569L15.333 15.6142C16.2136 15.0967 16.6537 14.4686 16.6537 13.6909C16.6537 12.9058 16.2199 12.302 15.333 11.7803L3.33257 4.72586C2.82257 4.42985 2.38944 4.2775 1.87312 4.2775C0.84609 4.2775 0 5.05023 0 6.47453V20.92C0 22.3401 0.852418 23.1074 1.87734 23.1074Z" fill="black"/>
</svg>
