<svg width="28" height="28" viewBox="0 0 28 28" fill="none" xmlns="http://www.w3.org/2000/svg">
<path d="M4.67466 23.4653H7.42458C8.52426 23.4653 9.09707 22.8925 9.09707 21.7832V5.6725C9.09707 4.54492 8.52426 4.00844 7.42458 4H4.67466C3.57497 4 3.00005 4.57281 3.00005 5.6725V21.7832C2.99372 22.8925 3.56653 23.4653 4.67466 23.4653ZM23.8149 23.139C24.8398 23.139 25.6922 22.3717 25.6922 20.9516V6.50617C25.6922 5.08398 24.844 4.30914 23.8191 4.30914C23.3007 4.30914 22.8696 4.46148 22.3596 4.75961L10.3571 11.812C9.47019 12.3337 9.03848 12.9395 9.03848 13.7247C9.03848 14.5002 9.47863 15.1283 10.3571 15.6458L22.3596 22.6886C22.8675 22.9867 23.2985 23.139 23.8149 23.139Z" fill="black"/>
</svg>
