<svg width="40" height="28" viewBox="0 0 40 28" fill="none" xmlns="http://www.w3.org/2000/svg">
<path d="M1.67466 23.4653H4.42458C5.52426 23.4653 6.09707 22.8925 6.09707 21.7832V5.6725C6.09707 4.54492 5.52426 4.00844 4.42458 4H1.67466C0.574972 4 5.18625e-05 4.57281 5.18625e-05 5.6725V21.7832C-0.00627601 22.8925 0.566535 23.4653 1.67466 23.4653ZM20.8149 23.139C21.8398 23.139 22.6922 22.3717 22.6922 20.9516V6.50617C22.6922 5.08398 21.844 4.30914 20.8191 4.30914C20.3007 4.30914 19.8696 4.46148 19.3596 4.75961L7.35707 11.812C6.47019 12.3337 6.03848 12.9395 6.03848 13.7247C6.03848 14.5002 6.47863 15.1283 7.35707 15.6458L19.3596 22.6886C19.8675 22.9867 20.2985 23.139 20.8149 23.139ZM37.4079 23.139C38.4349 23.139 39.2852 22.3717 39.2852 20.9516V6.50617C39.2852 5.08398 38.4391 4.30914 37.4121 4.30914C36.8958 4.30914 36.4627 4.46148 35.9527 4.75961L23.9522 11.812C23.0653 12.3337 22.6336 12.9395 22.6336 13.7247C22.6336 14.5002 23.0717 15.1283 23.9522 15.6458L35.9527 22.6886C36.4606 22.9867 36.8916 23.139 37.4079 23.139Z" fill="black"/>
</svg>
