<svg width="28" height="28" viewBox="0 0 28 28" fill="none" xmlns="http://www.w3.org/2000/svg">
<path d="M0 20.3515C0 21.0344 0.520075 21.5161 1.2532 21.5161H4.00733C6.02014 21.5161 7.20092 20.9252 8.58725 19.293L15.7922 10.7421C16.8105 9.5344 17.6332 9.10292 18.994 9.10292H21.3466V11.6881C21.3466 12.2475 21.6752 12.5803 22.2401 12.5803C22.5049 12.5803 22.739 12.4835 22.9338 12.326L27.5301 8.49355C27.9642 8.13613 27.9621 7.56285 27.5301 7.18621L22.9338 3.34621C22.739 3.19082 22.5049 3.10364 22.2401 3.10364C21.6752 3.10364 21.3466 3.42684 21.3466 3.98629V6.762H19.0071C16.9235 6.762 15.6487 7.33387 14.1539 9.11371L7.07882 17.5317C6.06561 18.7301 5.22538 19.1869 3.92671 19.1869H1.2532C0.529684 19.1869 0 19.6685 0 20.3515ZM0 7.93621C0 8.60956 0.529684 9.10292 1.2532 9.10292H3.85078C5.16117 9.10292 6.07522 9.55971 7.07882 10.7581L14.2235 19.2499C15.6445 20.9273 16.9783 21.5161 19.0008 21.5161H21.3466V24.3464C21.3466 24.9058 21.6752 25.229 22.2401 25.229C22.5049 25.229 22.739 25.1418 22.9338 24.9843L27.5301 21.154C27.9642 20.7848 27.9621 20.2211 27.5301 19.8445L22.9338 16.0066C22.739 15.8491 22.5049 15.7523 22.2401 15.7523C21.6752 15.7523 21.3466 16.0851 21.3466 16.6446V19.1869H19.0572C17.6817 19.1869 16.7852 18.7258 15.7816 17.5296L8.58725 8.98715C7.20092 7.36246 5.94632 6.7716 3.93351 6.7716H1.2532C0.520075 6.7716 0 7.25324 0 7.93621Z" fill="black"/>
</svg>
