<svg width="32" height="28" viewBox="0 0 32 28" fill="none" xmlns="http://www.w3.org/2000/svg">
<path d="M8.67234 24.8708H30.7279C31.3129 24.8708 31.7831 24.3934 31.7831 23.8126C31.7831 23.2255 31.315 22.7469 30.7279 22.7469H8.67234C8.08735 22.7469 7.62891 23.2297 7.62891 23.8126C7.62891 24.387 8.08946 24.8708 8.67234 24.8708ZM8.67234 18.8359H30.7279C31.3129 18.8359 31.7831 18.3488 31.7831 17.7702C31.7831 17.1831 31.315 16.712 30.7279 16.712H8.67234C8.08735 16.712 7.62891 17.1873 7.62891 17.7702C7.62891 18.3446 8.08946 18.8359 8.67234 18.8359ZM8.67234 12.7913H30.7279C31.3129 12.7913 31.7831 12.3139 31.7831 11.7236C31.7831 11.1365 31.315 10.6675 30.7279 10.6675H8.67234C8.08735 10.6675 7.62891 11.1407 7.62891 11.7236C7.62891 12.3076 8.08946 12.7913 8.67234 12.7913Z" fill="black"/>
<path d="M9.14319 7.38839H30.2704C31.2696 7.38839 31.7829 6.88472 31.7829 5.88558V4.88762C31.7829 3.89809 31.2696 3.38481 30.2704 3.38481H9.14319C8.14405 3.38481 7.63077 3.89809 7.63077 4.88762V5.88558C7.63077 6.88472 8.14405 7.38839 9.14319 7.38839ZM1.34437 8.59847L5.35968 6.1605C6.00702 5.77402 6.01452 4.99285 5.35968 4.60637L1.34437 2.17051C0.667263 1.76809 0 2.10652 0 2.88582V7.88527C0 8.67628 0.681091 9.00089 1.34437 8.59847Z" fill="black"/>
</svg>
