<svg width="28" height="28" viewBox="0 0 28 28" fill="none" xmlns="http://www.w3.org/2000/svg">
<path d="M3.84421 24.8781H23.9109C26.4499 24.8781 27.7552 23.5824 27.7552 21.0819V6.81004C27.7552 4.30739 26.4499 3.00427 23.9109 3.00427H3.84421C1.31484 3.00427 0 4.30739 0 6.81004V21.0819C0 23.5824 1.31484 24.8781 3.84421 24.8781Z" fill="black"/>
<path d="M10.4159 18.7359C9.78539 18.7359 9.48633 18.3867 9.48633 17.8779V9.99467C9.48633 9.49756 9.78539 9.14624 10.4159 9.14624H11.6796C12.3005 9.14624 12.5974 9.49756 12.5974 9.99467V17.8779C12.5974 18.3867 12.3005 18.7359 11.6796 18.7359H10.4159ZM16.1065 18.7359C15.4856 18.7359 15.1791 18.3867 15.1791 17.8779V9.99467C15.1791 9.49756 15.4856 9.14624 16.1065 9.14624H17.3819C17.9911 9.14624 18.2923 9.49756 18.2923 9.99467V17.8779C18.2923 18.3867 17.9911 18.7359 17.3819 18.7359H16.1065Z" fill="white"/>
</svg>
