<svg width="28" height="28" viewBox="0 0 28 28" fill="none" xmlns="http://www.w3.org/2000/svg">
<path d="M2 14.4594C2 21.0892 7.48484 26.5644 14.105 26.5644C20.7369 26.5644 26.2121 21.0892 26.2121 14.4594C26.2121 10.6654 24.3169 7.07779 21.4634 4.93911C20.8381 4.42888 20.0881 4.53037 19.7023 5.07201C19.2976 5.64646 19.4773 6.32379 20.0211 6.79676C22.3379 8.55902 23.8159 11.3169 23.8276 14.4594C23.8372 19.8536 19.4991 24.1799 14.105 24.1799C8.71085 24.1799 4.39412 19.8536 4.39412 14.4594C4.39412 9.90106 7.48108 6.1091 11.6998 5.05911V6.72645C11.6998 7.61965 12.3627 7.86973 13.0852 7.35153L17.0197 4.55567C17.604 4.14599 17.6094 3.49701 17.0197 3.07021L13.0948 0.27436C12.3669 -0.25134 11.6998 -0.00970048 11.6998 0.897328V2.60451C6.19648 3.73326 2 8.65162 2 14.4594Z" fill="black"/>
<path d="M10.4614 19.4521C12.3412 19.4521 13.6537 18.343 13.6537 16.7272C13.6537 15.5683 12.8737 14.6172 11.7331 14.4988V14.5701C12.6755 14.4102 13.3798 13.4931 13.3798 12.4553C13.3798 11.0174 12.2145 10.0309 10.5211 10.0309C9.08417 10.0309 7.92589 10.8489 7.67347 11.9118C7.62355 12.0756 7.6055 12.2097 7.6055 12.3554C7.6055 12.8237 7.89402 13.1399 8.33253 13.1399C8.68714 13.1399 8.92128 12.962 9.0755 12.5849C9.33214 11.8993 9.78214 11.54 10.4839 11.54C11.2304 11.54 11.7443 12.0027 11.7443 12.669C11.7443 13.3536 11.243 13.8812 10.4764 13.8812H10.0547C9.60683 13.8812 9.31527 14.1761 9.31527 14.6284C9.31527 15.0679 9.61222 15.3777 10.0547 15.3777H10.5244C11.4202 15.3777 11.9822 15.8884 11.9822 16.6518C11.9822 17.3727 11.3508 17.9315 10.4794 17.9315C9.73292 17.9315 9.18495 17.5487 8.92292 16.8812C8.7612 16.5008 8.53128 16.3262 8.18534 16.3262C7.77003 16.3262 7.44238 16.6457 7.44238 17.1107C7.44238 17.2501 7.45831 17.3917 7.4998 17.5375C7.76605 18.6116 9.03378 19.4521 10.4614 19.4521ZM17.9461 19.4521C19.864 19.4521 21.1877 17.6354 21.1877 14.7618C21.1877 11.8668 19.864 10.0309 17.9461 10.0309C16.0186 10.0309 14.7213 11.8002 14.7213 14.7618C14.7213 17.6924 16.0282 19.4521 17.9461 19.4521ZM17.9566 17.8696C17.0203 17.8696 16.4304 16.7214 16.4304 14.7618C16.4304 12.7712 17.0107 11.6134 17.9566 11.6134C18.9026 11.6134 19.4733 12.7616 19.4733 14.7618C19.4733 16.7214 18.893 17.8696 17.9566 17.8696Z" fill="black"/>
</svg>
