<svg width="28" height="28" viewBox="0 0 28 28" fill="none" xmlns="http://www.w3.org/2000/svg">
<path d="M14.105 26.21C20.7369 26.21 26.2121 20.7273 26.2121 14.105C26.2121 7.47312 20.7273 2 14.0954 2C7.47523 2 2 7.47312 2 14.105C2 20.7273 7.48484 26.21 14.105 26.21ZM14.105 23.8255C8.71085 23.8255 4.39412 19.4991 4.39412 14.105C4.39412 8.71085 8.70124 4.38452 14.0954 4.38452C19.4895 4.38452 23.8276 8.71085 23.8276 14.105C23.8276 19.4991 19.4991 23.8255 14.105 23.8255Z" fill="black"/>
<path d="M6.7998 13.0407V13.7652C6.7998 14.2081 7.17035 14.5766 7.61754 14.5766C8.08394 14.5766 8.44277 14.2081 8.44277 13.7652V13.1248C8.44277 12.0877 9.17613 11.397 10.2739 11.397H14.7454V12.7805C14.7454 13.2001 15.018 13.463 15.4183 13.463C15.5908 13.463 15.775 13.3906 15.9294 13.2809L18.5378 11.1073C18.887 10.823 18.8849 10.3737 18.5378 10.0894L15.9294 7.9041C15.775 7.79231 15.5908 7.71777 15.4183 7.71777C15.018 7.71777 14.7454 7.98074 14.7454 8.39277V9.76574H10.3932C8.21988 9.76574 6.7998 11.0644 6.7998 13.0407ZM21.3548 15.196V14.4833C21.3548 14.0169 21.0055 13.6698 20.537 13.6698C20.061 13.6698 19.7118 14.019 19.7118 14.4833V15.114C19.7118 16.1607 18.9784 16.8493 17.8827 16.8493H13.4092V15.47C13.4092 15.0601 13.1462 14.7971 12.7363 14.7971C12.5638 14.7971 12.3796 14.8674 12.2347 14.9771L9.61676 17.1432C9.26965 17.4296 9.26004 17.896 9.61676 18.1707L12.2347 20.3539C12.3796 20.4678 12.5638 20.5402 12.7363 20.5402C13.1462 20.5402 13.4092 20.2773 13.4092 19.8556V18.4805H17.7613C19.9347 18.4805 21.3548 17.1819 21.3548 15.196Z" fill="black"/>
</svg>
