<svg width="28" height="28" viewBox="0 0 28 28" fill="none" xmlns="http://www.w3.org/2000/svg">
<path d="M8.67466 23.4653H11.4246C12.5243 23.4653 13.0971 22.8925 13.0971 21.7832V5.6725C13.0971 4.54492 12.5243 4.00844 11.4246 4H8.67466C7.57497 4 7.00005 4.57281 7.00005 5.6725V21.7832C6.99372 22.8925 7.56653 23.4653 8.67466 23.4653ZM17.5443 23.4653H20.2846C21.3939 23.4653 21.9592 22.8925 21.9592 21.7832V5.6725C21.9592 4.54492 21.3939 4 20.2846 4H17.5443C16.435 4 15.8601 4.57281 15.8601 5.6725V21.7832C15.8601 22.8925 16.4287 23.4653 17.5443 23.4653Z" fill="black"/>
</svg>
