<svg width="28" height="28" viewBox="0 0 28 28" fill="none" xmlns="http://www.w3.org/2000/svg">
<path d="M14.105 26.2301C20.7369 26.2301 26.2121 20.7549 26.2121 14.123C26.2121 7.50291 20.7273 2.01807 14.0954 2.01807C7.47523 2.01807 2 7.50291 2 14.123C2 20.7549 7.48484 26.2301 14.105 26.2301Z" fill="black"/>
<path d="M10.3755 15.3448C8.66968 15.3448 7.65039 14.2475 7.65039 12.8511C7.65039 11.6534 8.41984 10.7457 9.47125 10.4316C9.68945 8.29106 11.4667 6.64551 13.6094 6.64551C15.2683 6.64551 16.5725 7.52277 17.3025 8.93137C19.2404 8.93137 20.7269 10.2875 20.7269 12.1369C20.7269 13.9182 19.294 15.3448 17.4316 15.3448H10.3755ZM12.029 20.4071C11.8745 20.6787 11.5338 20.7863 11.26 20.6202C10.9799 20.4732 10.8862 20.1111 11.0502 19.8491L12.8428 16.7448C13.0068 16.4635 13.338 16.3751 13.6064 16.5317C13.894 16.6883 13.9931 17.0408 13.8194 17.3145L12.029 20.4071ZM17.4218 20.4071C17.279 20.6787 16.9383 20.7863 16.6603 20.6202C16.3706 20.4732 16.2907 20.1111 16.4451 19.8491L18.2355 16.7448C18.3996 16.4635 18.7308 16.3751 19.0108 16.5317C19.2942 16.6883 19.3879 17.0408 19.2239 17.3145L17.4218 20.4071ZM14.7302 20.4008C14.5661 20.6745 14.2254 20.7821 13.9612 20.6159C13.6715 20.4669 13.5895 20.1069 13.744 19.8427L15.5344 16.7405C15.6984 16.4572 16.0296 16.3688 16.3097 16.5275C16.593 16.6841 16.6868 17.0344 16.5131 17.3103L14.7302 20.4008ZM9.32992 20.4008C9.17546 20.6745 8.83257 20.7821 8.55672 20.6159C8.27875 20.4669 8.185 20.1069 8.33945 19.8427L10.1416 16.7405C10.2939 16.4572 10.6347 16.3688 10.9052 16.5275C11.1927 16.6841 11.2823 17.0344 11.1182 17.3103L9.32992 20.4008Z" fill="white"/>
</svg>
