<svg width="28" height="29" viewBox="0 0 28 29" fill="none" xmlns="http://www.w3.org/2000/svg">
<path d="M13.9981 28.4707C17.3799 28.4707 20.3166 24.8449 20.3166 20.9454C20.3166 18.4242 18.8724 17.3398 16.7536 16.8433V16.7219C18.1735 16.0338 18.3982 13.5914 17.1232 12.735V12.6136C19.1609 12.2557 20.1739 11.0201 20.1739 9.20929C20.1739 5.82421 17.3832 3.0239 13.9981 3.0239C10.6205 3.0239 7.8202 5.82421 7.8202 9.20929C7.8202 11.0201 8.84488 12.2557 10.8804 12.6136V12.735C9.60543 13.5914 9.8323 16.0338 11.25 16.7219V16.8433C9.15684 17.3398 7.68707 18.4242 7.68707 20.9454C7.68707 24.8449 10.628 28.4707 13.9981 28.4707ZM13.9981 26.2352C11.6325 26.2352 9.82503 23.4605 9.82503 21.1894C9.82503 19.6697 10.7032 18.7521 12.4167 18.7521H15.589C17.3025 18.7521 18.169 19.6697 18.169 21.1894C18.169 23.4605 16.3711 26.2352 13.9981 26.2352ZM11.9529 14.471C11.9529 13.4119 12.5944 12.8076 13.7227 12.8076C13.9074 12.8076 14.1059 12.8076 14.2906 12.8076C15.4093 12.8076 16.0411 13.4119 16.0411 14.471C16.0411 15.7741 15.1641 16.8844 14.1176 16.8844C14.0386 16.8844 13.9554 16.8844 13.8861 16.8844C12.8396 16.8844 11.9529 15.7741 11.9529 14.471ZM11.9267 10.7707C10.6587 10.7707 9.94784 10.1812 9.94784 9.12843C9.94784 7.00359 11.8393 5.16538 13.9981 5.16538C16.1548 5.16538 18.0558 7.00359 18.0558 9.12843C18.0558 10.1812 17.3354 10.7707 16.077 10.7707H11.9267ZM6.03918 27.8128C6.65324 27.8128 7.11824 27.3679 7.00011 26.6177L6.16152 21.1078C6.04222 20.3772 6.29886 20.0482 7.16019 19.8171L11.1319 18.7638L11.25 16.8433L6.03027 18.0654C4.40254 18.4476 3.81169 19.2492 4.05122 20.7258L4.9995 26.7635C5.09419 27.4169 5.39536 27.8128 6.03918 27.8128ZM21.9645 27.8128C22.6083 27.8128 22.8999 27.4169 23.0042 26.7635L23.9546 20.7258C24.192 19.2492 23.5915 18.4476 21.9734 18.0654L16.7536 16.8433L16.8717 18.7638L20.8435 19.8171C21.7069 20.0482 21.9539 20.3772 21.8443 21.1078L21.0036 26.6177C20.8854 27.3679 21.3504 27.8128 21.9645 27.8128ZM11.049 15.6844V13.7367L7.72503 13.2909C6.91152 13.1822 6.43785 12.9054 6.43785 12.0164V8.41147C6.43785 7.78148 6.07387 7.40367 5.44176 7.40367C4.81387 7.40367 4.44145 7.77187 4.44145 8.41147V12.4303C4.44145 13.9898 5.15676 14.9072 6.72918 15.1001L11.049 15.6844ZM16.9547 15.6844L21.2745 15.1001C22.849 14.9072 23.5622 13.9898 23.5622 12.4303V8.41147C23.5622 7.77187 23.1898 7.40367 22.5619 7.40367C21.9298 7.40367 21.5658 7.78148 21.5658 8.41147V12.0164C21.5658 12.9054 21.0825 13.1822 20.2786 13.2909L16.9547 13.7367V15.6844ZM10.3519 6.16405L11.4418 4.76156L10.4539 4.05468C9.87215 3.63703 9.81262 3.06187 10.2101 2.40445L10.7942 1.49343C10.9315 1.24429 10.9646 1.11656 10.9646 0.886637C10.9646 0.38742 10.5675 0 10.0428 0C9.64364 0 9.36052 0.190546 9.11677 0.63117L8.44013 1.77422C7.66388 3.16781 7.88747 4.42124 9.0938 5.28374L10.3519 6.16405ZM17.6731 6.17366L18.9504 5.28374C20.1567 4.42124 20.3803 3.16781 19.6041 1.77422L18.9253 0.63117C18.6837 0.190546 18.4006 0 17.9993 0C17.4671 0 17.0796 0.38742 17.0796 0.886637C17.0796 1.11656 17.1127 1.24429 17.25 1.49343L17.8341 2.40445C18.2295 3.06187 18.1721 3.63703 17.5882 4.05468L16.5832 4.77117L17.6731 6.17366Z" fill="black"/>
</svg>
