<svg width="28" height="28" viewBox="0 0 28 28" fill="none" xmlns="http://www.w3.org/2000/svg">
<path d="M20.3616 17.7179C14.1387 17.7179 10.2701 13.9749 10.2701 7.95241C10.2701 6.24499 10.5505 4.71475 10.9819 3.88155C11.183 3.50374 11.2393 3.2764 11.2393 2.99773C11.2393 2.50344 10.8233 2 10.2256 2C10.0812 2 9.81851 2.04781 9.45664 2.18937C5.05531 3.97461 2 8.55547 2 13.5048C2 20.6391 7.18906 25.8399 14.3234 25.8399C19.4042 25.8399 23.5979 23.1259 25.5153 18.7135C25.6791 18.3603 25.7173 18.0561 25.7173 17.8745C25.7173 17.297 25.2671 16.9161 24.7984 16.9161C24.5581 16.9161 24.3437 16.9489 24.0034 17.0945C23.1048 17.4727 21.7194 17.7179 20.3616 17.7179ZM4.25326 13.4375C4.25326 10.103 5.93234 6.87896 8.65532 5.04474C8.33938 6.0038 8.1718 7.05686 8.1718 8.21772C8.1718 15.4365 12.6071 19.7769 19.9803 19.7769C20.9996 19.7769 21.8631 19.6594 22.6881 19.3766C20.9785 22.01 17.817 23.5942 14.3811 23.5942C8.52686 23.5942 4.25326 19.3206 4.25326 13.4375Z" fill="black"/>
</svg>
