<svg width="28" height="29" viewBox="0 0 28 29" fill="none" xmlns="http://www.w3.org/2000/svg">
<path d="M13.792 28.5558C17.3163 28.5558 19.5998 22.9048 19.5998 14.272C19.5998 5.67024 17.3163 0.0192261 13.792 0.0192261C10.2719 0.0192261 7.98422 5.67446 7.98422 14.272C7.98422 22.8984 10.2719 28.5558 13.792 28.5558ZM13.792 26.5737C11.6355 26.5737 10.185 21.6921 10.185 14.272C10.185 6.86156 11.6355 2.00133 13.792 2.00133C15.9602 2.00133 17.4129 6.85734 17.4129 14.272C17.4129 21.6942 15.9602 26.5737 13.792 26.5737ZM1.42781 21.518C3.19265 24.5608 9.22476 23.7244 16.706 19.4091C24.1734 15.1097 27.9253 10.3102 26.1605 7.25555C24.3956 4.21267 18.3677 5.04915 10.9036 9.35485C3.42656 13.6969 -0.308201 18.4772 1.42781 21.518ZM3.161 20.5242C2.07795 18.663 5.56147 14.9859 12.0077 11.2631C18.3996 7.56375 23.3538 6.38273 24.4273 8.26102C25.5199 10.1126 22.0226 13.8035 15.619 17.4912C9.17812 21.2119 4.24405 22.3908 3.161 20.5242ZM26.1605 21.518C27.9061 18.4772 24.1617 13.6969 16.6826 9.35485C9.22054 5.04915 3.20015 4.21267 1.42781 7.25555C-0.327421 10.3102 3.41484 15.1097 10.8823 19.4091C18.3752 23.7244 24.4031 24.5608 26.1605 21.518ZM24.4273 20.5242C23.3538 22.3908 18.4198 21.2119 11.9789 17.4912C5.56569 13.8035 2.06835 10.1126 3.161 8.26102C4.23444 6.38273 9.19827 7.56375 15.5902 11.2631C22.0247 14.9859 25.5082 18.663 24.4273 20.5242Z" fill="black"/>
<path d="M13.802 16.6765C15.1204 16.6765 16.1873 15.6096 16.1873 14.2816C16.1873 12.9633 15.1204 11.8964 13.802 11.8964C12.4762 11.8964 11.4072 12.9633 11.4072 14.2816C11.4072 15.6096 12.4762 16.6765 13.802 16.6765Z" fill="black"/>
</svg>
