<svg width="28" height="28" viewBox="0 0 28 28" fill="none" xmlns="http://www.w3.org/2000/svg">
<path d="M2 14.4594C2 21.0892 7.48484 26.5644 14.105 26.5644C20.7369 26.5644 26.2121 21.0892 26.2121 14.4594C26.2121 10.6654 24.3169 7.07779 21.4634 4.93911C20.8381 4.42888 20.0881 4.53037 19.7023 5.07201C19.2976 5.64646 19.4773 6.32379 20.0211 6.79676C22.3379 8.55902 23.8159 11.3169 23.8276 14.4594C23.8372 19.8536 19.4991 24.1799 14.105 24.1799C8.71085 24.1799 4.39412 19.8536 4.39412 14.4594C4.39412 9.90106 7.48108 6.1091 11.6998 5.05911V6.72645C11.6998 7.61965 12.3627 7.86973 13.0852 7.35153L17.0197 4.55567C17.604 4.14599 17.6094 3.49701 17.0197 3.07021L13.0948 0.27436C12.3669 -0.25134 11.6998 -0.00970048 11.6998 0.897328V2.60451C6.19648 3.73326 2 8.65162 2 14.4594Z" fill="black"/>
<path d="M8.44419 10.6499C8.34083 11.1784 8.27051 11.8752 8.27051 12.3397C8.27051 16.2522 10.6049 18.8434 14.1646 18.8434C16.4996 18.8434 17.5642 17.4651 17.8325 17.0186L17.0718 16.9975C17.7864 17.728 18.0657 18.4804 18.4215 19.5852C18.4939 19.8217 18.6835 19.9356 18.872 19.9356C19.2692 19.9356 19.6016 19.5873 19.6016 19.1144C19.6016 18.3845 18.5607 17.1315 18.0088 16.6244C15.6978 14.5117 12.2181 15.7665 11.342 13.4511C11.278 13.2805 11.4465 13.1472 11.6225 13.2922C13.524 14.9247 15.7393 13.615 17.9687 15.6524C18.171 15.8312 18.3976 15.7429 18.4487 15.5343C18.4721 15.3861 18.4817 15.1485 18.4817 14.9162C18.4817 12.3749 16.7235 11.1095 14.188 11.1095C13.3431 11.1095 12.3746 11.3226 11.6064 11.3226C10.7762 11.3226 9.85864 11.2393 9.09575 10.4732C8.85622 10.2261 8.51661 10.2622 8.44419 10.6499Z" fill="black"/>
</svg>
