<svg width="28" height="28" viewBox="0 0 28 28" fill="none" xmlns="http://www.w3.org/2000/svg">
<path d="M14.105 26.21C20.7369 26.21 26.2121 20.7273 26.2121 14.105C26.2121 7.47312 20.7273 2 14.0954 2C7.47523 2 2 7.47312 2 14.105C2 20.7273 7.48484 26.21 14.105 26.21ZM14.105 23.8255C8.71085 23.8255 4.39412 19.4991 4.39412 14.105C4.39412 8.71085 8.70124 4.38452 14.0954 4.38452C19.4895 4.38452 23.8276 8.71085 23.8276 14.105C23.8276 19.4991 19.4991 23.8255 14.105 23.8255Z" fill="black"/>
<path d="M10.7128 15.2131H17.504C19.3026 15.2131 20.6707 13.8301 20.6707 12.1201C20.6707 10.3344 19.2396 9.0357 17.3728 9.0357C16.6823 7.68241 15.4216 6.83069 13.8297 6.83069C11.7529 6.83069 10.0544 8.42093 9.83832 10.4689C8.83261 10.7883 8.09082 11.645 8.09082 12.8108C8.09082 14.1477 9.06652 15.2131 10.7128 15.2131ZM11.4581 18.1827L12.0911 17.0914C12.2243 16.8411 12.1518 16.4949 11.8802 16.3405C11.6257 16.1956 11.2891 16.3011 11.1464 16.5514L10.5133 17.6427C10.3802 17.8834 10.4505 18.2391 10.7168 18.384C10.9788 18.5384 11.3154 18.433 11.4581 18.1827ZM14.5593 18.1869L15.1924 17.0977C15.333 16.8474 15.2627 16.5012 14.9911 16.3468C14.7344 16.2019 14.3883 16.3074 14.2572 16.5577L13.6221 17.6469C13.4815 17.8876 13.5518 18.2434 13.8276 18.3882C14.08 18.5427 14.4262 18.4372 14.5593 18.1869ZM17.6585 18.1827L18.2915 17.0914C18.4247 16.8411 18.3544 16.4949 18.0902 16.3405C17.8261 16.1956 17.4895 16.3011 17.3468 16.5514L16.7137 17.6427C16.5806 17.8834 16.653 18.2391 16.9172 18.384C17.1813 18.5384 17.5158 18.433 17.6585 18.1827ZM10.0371 20.9445C10.1957 20.9445 10.3246 20.8072 10.3087 20.6293L10.2672 20.1849L10.6317 20.4406C10.7648 20.5311 10.9523 20.4809 11.0343 20.3649C11.1206 20.2276 11.0962 20.0166 10.9087 19.9292L10.5091 19.7619L10.9108 19.5636C11.077 19.4858 11.1206 19.3037 11.0557 19.1705C10.9715 19.0182 10.7627 18.9948 10.6317 19.081L10.2672 19.325L10.3087 18.8966C10.3246 18.7048 10.1957 18.5675 10.0371 18.5675C9.84746 18.5675 9.72605 18.7145 9.74199 18.8966L9.77175 19.325L9.41152 19.081C9.29011 18.9927 9.08878 19.0086 9.00464 19.1588C8.93972 19.2748 8.95449 19.4933 9.14199 19.5753L9.52449 19.7598L9.13988 19.9313C8.95449 20.0209 8.90878 20.2084 8.99503 20.3457C9.07917 20.5098 9.2805 20.5311 9.41152 20.4406L9.77175 20.187L9.7516 20.6293C9.74738 20.7976 9.84746 20.9445 10.0371 20.9445ZM13.1362 20.9509C13.297 20.9509 13.4259 20.8135 13.41 20.6335L13.376 20.1891L13.7308 20.4448C13.8661 20.5332 14.0632 20.4852 14.1356 20.3691C14.2315 20.2318 14.1975 20.0209 14.0079 19.9334L13.62 19.7682L14.01 19.5699C14.1879 19.49 14.2218 19.31 14.1548 19.1748C14.0824 19.0224 13.864 19.0011 13.7308 19.0873L13.376 19.3313L13.41 18.9008C13.4259 18.7091 13.297 18.5717 13.1362 18.5717C12.9583 18.5717 12.8252 18.7187 12.8433 18.9008L12.8826 19.3313L12.5128 19.0873C12.3893 18.999 12.1997 19.0128 12.1155 19.1652C12.0389 19.2791 12.0633 19.4975 12.2433 19.5795L12.6333 19.764L12.2411 19.9355C12.0633 20.023 12.0197 20.2126 12.0963 20.3499C12.1783 20.514 12.3797 20.5374 12.5128 20.4448L12.8826 20.1912L12.8529 20.6335C12.8444 20.8039 12.9583 20.9509 13.1362 20.9509ZM16.2375 20.9445C16.3961 20.9445 16.5272 20.8072 16.5091 20.6293L16.4772 20.1849L16.8321 20.4406C16.9673 20.5311 17.1527 20.4809 17.2369 20.3649C17.3327 20.2276 17.2966 20.0166 17.1091 19.9292L16.7095 19.7619L17.1112 19.5636C17.2774 19.4858 17.3231 19.3037 17.2561 19.1705C17.1719 19.0182 16.9652 18.9948 16.8321 19.081L16.4772 19.325L16.5091 18.8966C16.5272 18.7048 16.3961 18.5675 16.2375 18.5675C16.0479 18.5675 15.9286 18.7145 15.9424 18.8966L15.9722 19.325L15.614 19.081C15.4905 18.9927 15.2892 19.0086 15.2051 19.1588C15.1401 19.2748 15.1549 19.4933 15.3424 19.5753L15.7249 19.7598L15.3403 19.9313C15.1549 20.0209 15.1113 20.2084 15.1954 20.3457C15.2796 20.5098 15.4809 20.5311 15.614 20.4406L15.9722 20.187L15.952 20.6293C15.9478 20.7976 16.0479 20.9445 16.2375 20.9445Z" fill="black"/>
</svg>
