<svg width="32" height="31" viewBox="0 0 32 31" fill="none" xmlns="http://www.w3.org/2000/svg">
<path d="M4.99288 26.4833L6.50366 23.8719C6.72725 23.4875 6.61967 23.0372 6.23858 22.8212C5.84788 22.5954 5.41991 22.7253 5.1921 23.1181L3.67171 25.7487C3.45772 26.1139 3.56319 26.562 3.94429 26.7877C4.32538 26.9942 4.781 26.8601 4.99288 26.4833ZM8.67139 29.7837L10.1801 27.1627C10.4037 26.7879 10.2865 26.3377 9.91499 26.112C9.52428 25.8959 9.09632 26.0258 8.8685 26.409L7.34811 29.0492C7.13624 29.4047 7.24171 29.8529 7.6228 30.0786C8.00178 30.2947 8.45741 30.1585 8.67139 29.7837ZM14.3232 26.4736L15.8318 23.8622C16.0554 23.4779 15.9382 23.0276 15.5571 22.8115C15.176 22.5858 14.7481 22.7157 14.5203 23.1085L12.9999 25.7391C12.788 26.1043 12.8839 26.5524 13.2746 26.7781C13.6535 26.9846 14.1092 26.8484 14.3232 26.4736ZM17.9899 29.7741L19.5103 27.1531C19.7339 26.7762 19.6146 26.3281 19.2335 26.1024C18.8524 25.8863 18.4266 26.0162 18.1871 26.3994L16.6688 29.0396C16.4548 29.3951 16.5603 29.8433 16.951 30.069C17.3224 30.2851 17.7856 30.1489 17.9899 29.7741Z" fill="black"/>
<path d="M23.088 14.7786C27.4075 15.0554 30.2357 12.7646 31.2356 10.1108C31.6413 9.08465 31.1184 8.17013 30.1242 8.17013C29.3683 8.17013 28.7582 8.49591 27.5076 8.49591C24.6058 8.49591 23.0934 6.8909 23.0934 4.1902C23.0934 2.82895 23.5099 2.06559 23.5099 1.40723C23.5099 0.371301 22.6103 -0.126979 21.5348 0.239348C18.926 1.10395 16.7744 3.83887 16.7744 7.10489C16.7744 8.16895 16.964 9.19364 17.3664 10.1216L19.4931 10.0927C18.9553 9.21496 18.6932 8.17106 18.6932 7.07606C18.6932 4.89027 19.9607 3.1334 21.4769 2.26434L21.61 2.35809C21.415 2.9227 21.2371 3.71207 21.2371 4.63246C21.2371 7.98942 23.6601 10.3351 27.067 10.3351C27.9201 10.3351 28.6619 10.1743 29.1883 10.0027L29.2746 10.0869C28.4662 11.5857 26.3632 13.1124 23.0542 12.8504L23.088 14.7786Z" fill="black"/>
<path d="M5.14382 20.9471H17.8762C21.3473 20.9471 24.0515 18.3207 24.0515 14.9253C24.0515 11.5374 21.3534 8.9942 17.7935 8.92717C16.4055 6.34178 13.9458 4.79889 10.9816 4.79889C7.04999 4.79889 3.77226 7.78412 3.32226 11.6785C1.33477 12.3069 0 14.0387 0 16.2158C0 18.9739 2.08711 20.9471 5.14382 20.9471ZM5.12648 18.7852C3.18491 18.7852 2.16608 17.6874 2.16608 16.2605C2.16608 15.0469 2.89475 13.9981 4.5921 13.5495C5.1778 13.393 5.38241 13.1246 5.44194 12.5176C5.7621 9.20138 8.11944 6.96075 10.9816 6.96075C13.1897 6.96075 14.9339 8.19146 16.0301 10.3618C16.2984 10.8762 16.586 11.0487 17.2048 11.0487C20.2441 11.0487 21.878 12.8262 21.878 14.9722C21.878 17.1003 20.1726 18.7852 17.8819 18.7852H5.12648Z" fill="black"/>
</svg>
