<svg width="28" height="31" viewBox="0 0 28 31" fill="none" xmlns="http://www.w3.org/2000/svg">
<path d="M8.41694 30.6515C11.9417 30.6515 14.7966 27.8081 14.7966 24.2812C14.7966 22.4599 14.0658 20.8718 12.6638 19.5851C12.4219 19.3528 12.3676 19.2281 12.3676 18.885L12.3772 8.54645C12.3772 5.99247 10.7633 4.25177 8.41694 4.25177C6.04086 4.25177 4.42156 5.99247 4.42156 8.54645L4.43117 18.885C4.43117 19.2281 4.38641 19.3549 4.13492 19.5851C2.73406 20.8612 2 22.4599 2 24.2812C2 27.8081 4.86664 30.6515 8.41694 30.6515ZM8.41694 28.6486C5.98249 28.6486 4.02639 26.6712 4.02639 24.2559C4.02639 22.7721 4.72202 21.4732 5.95788 20.6475C6.31905 20.4056 6.45757 20.1914 6.45757 19.713V8.61887C6.45757 7.21895 7.25561 6.27606 8.41694 6.27606C9.55061 6.27606 10.3487 7.21895 10.3487 8.61887V19.713C10.3487 20.1914 10.4893 20.4056 10.8483 20.6475C12.0842 21.4732 12.7819 22.7721 12.7819 24.2559C12.7819 26.6712 10.8162 28.6486 8.41694 28.6486Z" fill="black"/>
<path d="M8.40308 27.0666C9.95863 27.0666 11.2116 25.8019 11.2116 24.2463C11.2116 23.1574 10.5968 22.2635 9.70293 21.7776C9.33215 21.5784 9.20324 21.4378 9.20324 20.8699V9.60024C9.20324 9.03774 8.84418 8.67657 8.40308 8.67657C7.95449 8.67657 7.60293 9.03774 7.60293 9.60024V20.8699C7.60293 21.4378 7.47613 21.5784 7.10324 21.7776C6.21144 22.2635 5.59668 23.1574 5.59668 24.2463C5.59668 25.8136 6.84965 27.0666 8.40308 27.0666Z" fill="black"/>
<path d="M14.2162 4.55039C14.8017 4.55039 15.2733 4.06289 15.2733 3.48914V1.06336C15.2733 0.47578 14.8017 0 14.2162 0C13.6308 0 13.1592 0.47578 13.1592 1.06336V3.48914C13.1592 4.06289 13.6308 4.55039 14.2162 4.55039ZM19.6704 6.82687C20.0674 7.23351 20.7551 7.2389 21.1734 6.82054L22.883 5.0939C23.3034 4.68726 23.2938 4.00922 22.8851 3.60047C22.488 3.19172 21.8217 3.19383 21.4012 3.60469L19.6725 5.33883C19.2616 5.74758 19.2712 6.41812 19.6704 6.82687ZM22.9708 13.3296H25.3966C25.9746 13.3296 26.4483 12.8484 26.4483 12.2726C26.4483 11.6871 25.9746 11.2155 25.3966 11.2155H22.9708C22.395 11.2155 21.9096 11.6892 21.9096 12.2747C21.9096 12.8505 22.395 13.3296 22.9708 13.3296ZM21.3991 20.9564C21.8175 21.3673 22.4838 21.3598 22.883 20.951C23.2917 20.5444 23.295 19.8705 22.8787 19.4672L21.1542 17.7363C20.7476 17.3351 20.0749 17.3276 19.6662 17.7363C19.2595 18.143 19.2637 18.8189 19.6725 19.2276L21.3991 20.9564ZM14.2648 18.1936C17.5254 18.1936 20.1192 15.548 20.1192 12.2747C20.1192 8.97914 17.5001 6.34828 14.2184 6.34828C13.9509 6.34828 13.7027 6.38133 13.447 6.43359C13.6891 7.08351 13.8197 7.81194 13.8197 8.60413L13.8101 18.1455C13.9584 18.184 14.1068 18.1936 14.2648 18.1936Z" fill="black"/>
</svg>
