<svg width="28" height="28" viewBox="0 0 28 28" fill="none" xmlns="http://www.w3.org/2000/svg">
<path d="M14.5613 23.3492C16.2594 23.3492 20.4952 17.7709 20.4952 15.5977C20.4952 14.2822 17.8526 11.9923 16.3784 11.9923C15.6999 11.9923 14.7549 12.8105 14.1922 12.8105C13.6784 12.8105 12.1126 11.5527 12.1126 11.1369C12.1126 10.9885 12.3748 10.787 12.5701 10.787C12.8846 10.787 14.098 11.8684 14.7819 11.8684C15.7852 11.8684 16.4445 11.2091 16.4445 10.1727C16.4445 9.82531 16.3102 9.48758 16.0203 9.07297C17.3253 8.40828 19.629 7.12765 20.345 5.53484L19.2186 4.95664C18.6123 6.40789 16.0201 7.62781 14.6787 8.32883C14.3935 8.4725 14.2571 8.79289 14.502 9.13789C14.9888 9.81851 15.1787 10.0862 15.1787 10.3229C15.1787 10.4851 15.0591 10.6067 14.8873 10.6067C14.5196 10.6067 13.2486 9.52109 12.5701 9.52109C11.7617 9.52109 10.8488 10.37 10.8488 11.1369C10.8488 12.2255 13.0632 14.0743 14.1922 14.0743C14.8484 14.0743 16.0456 13.2465 16.3784 13.2465C17.1202 13.2465 19.2336 15.0062 19.2336 15.5977C19.2336 16.9405 15.5141 22.0876 14.5325 22.0876C14.2925 22.0876 13.9632 21.8466 13.9632 21.6556C13.9632 21.5288 13.9941 21.4435 14.1273 21.0376C14.2423 20.6647 14.4181 20.1491 14.4064 19.5802C14.3926 18.7974 13.7525 18.2478 12.3962 17.2857C12.1522 17.112 11.8965 16.9341 11.6387 16.7391C11.2805 16.4705 11.1345 16.2371 11.1345 15.9706C11.1345 15.8204 11.1697 15.6605 11.2848 15.3078C11.3923 14.9223 11.4605 14.6335 11.4605 14.4226C11.4605 13.891 11.1952 13.5331 10.6159 13.0358C10.5338 12.9793 10.4773 12.9207 10.4091 12.8642L8.54468 11.2011C6.26421 9.16461 6.37717 7.94281 7.33694 6.38633L6.10413 6.13508C5.06187 7.81413 5.00468 9.76319 7.7089 12.1487L9.55953 13.783C9.97203 14.1486 10.1841 14.2988 10.1968 14.4556C10.1947 14.7071 9.87078 15.2537 9.87078 15.9706C9.87078 16.6512 10.2073 17.2531 10.8774 17.7537C12.2169 18.7555 13.1427 19.3348 13.1427 19.6037C13.1544 20.2995 12.6994 20.8855 12.6994 21.7004C12.6994 22.5216 13.6805 23.3492 14.5613 23.3492ZM14.105 26.21C20.7369 26.21 26.2121 20.7273 26.2121 14.105C26.2121 7.47312 20.7273 2 14.0954 2C7.47523 2 2 7.47312 2 14.105C2 20.7273 7.48484 26.21 14.105 26.21ZM14.105 24.3336C8.51233 24.3336 3.8785 19.6998 3.8785 14.105C3.8785 8.51023 8.50273 3.87639 14.0954 3.87639C19.6902 3.87639 24.3336 8.51023 24.3336 14.105C24.3336 19.6998 19.6998 24.3336 14.105 24.3336Z" fill="black"/>
</svg>
