<svg width="28" height="28" viewBox="0 0 28 28" fill="none" xmlns="http://www.w3.org/2000/svg">
<path d="M14.105 26.2301C20.7369 26.2301 26.2121 20.7549 26.2121 14.123C26.2121 7.50291 20.7273 2.01807 14.0954 2.01807C7.47523 2.01807 2 7.50291 2 14.123C2 20.7549 7.48484 26.2301 14.105 26.2301Z" fill="black"/>
<path d="M14.4081 21.0447C10.5105 21.0447 7.5332 18.2425 7.5332 14.3256C7.5332 11.5445 9.18367 8.90825 11.6641 7.92481C11.8291 7.862 11.9973 7.83435 12.0941 7.83435C12.3571 7.83435 12.5083 8.04739 12.5083 8.25599C12.5083 8.33778 12.4956 8.45262 12.4147 8.61762C12.19 9.17075 11.9992 10.1908 11.9992 10.9663C11.9992 14.4834 14.2469 16.6853 17.7862 16.6853C18.5929 16.6853 19.4188 16.5084 19.8974 16.3401C20.0537 16.2881 20.1611 16.2658 20.2642 16.2658C20.4803 16.2658 20.6774 16.4245 20.6774 16.6907C20.6774 16.7704 20.6594 16.945 20.5785 17.1185C19.6914 19.3141 17.2501 21.0447 14.4081 21.0447Z" fill="white"/>
</svg>
