<svg width="28" height="28" viewBox="0 0 28 28" fill="none" xmlns="http://www.w3.org/2000/svg">
<path d="M14.105 26.2301C20.7369 26.2301 26.2121 20.7549 26.2121 14.123C26.2121 7.50291 20.7273 2.01807 14.0954 2.01807C7.47523 2.01807 2 7.50291 2 14.123C2 20.7549 7.48484 26.2301 14.105 26.2301Z" fill="black"/>
<path d="M14.0951 21.6711C13.6884 21.6711 13.3882 21.3666 13.3882 20.9248V19.6754L12.4845 20.2098C12.1031 20.4406 11.7295 20.3734 11.5092 20.0262C11.3144 19.7122 11.4349 19.3086 11.7778 19.1084L13.3882 18.1857V17.3694L13.5138 15.1398L11.639 16.3578L10.9399 16.7724L10.9326 18.6214C10.9263 19.0271 10.6474 19.336 10.2684 19.3234C9.85638 19.3149 9.60607 19.002 9.63349 18.5687L9.63443 17.5177L8.56404 18.151C8.19255 18.3692 7.78802 18.267 7.56443 17.8998C7.35045 17.5229 7.47607 17.1162 7.85505 16.8927L8.92545 16.2903L8.02075 15.7674C7.62794 15.5691 7.50255 15.2082 7.68255 14.8409C7.86255 14.5046 8.27576 14.4099 8.63669 14.6037L10.2288 15.5375L10.9205 15.1187L12.9497 14.1188L10.9205 13.1286L10.2288 12.7194L8.63669 13.6339C8.27576 13.8277 7.86677 13.7426 7.67294 13.4084C7.49294 13.0294 7.63544 12.6781 8.02075 12.4798L8.92545 11.957L7.85294 11.345C7.47607 11.1214 7.34295 10.7169 7.56443 10.34C7.7763 9.98659 8.19255 9.8844 8.56404 10.0963L9.63443 10.7199L9.63349 9.66268C9.61029 9.23565 9.8606 8.93237 10.2684 8.92393C10.6474 8.91127 10.9263 9.21057 10.9326 9.61627L10.9399 11.4728L11.639 11.8799L13.5138 13.1075L13.3882 10.8683V10.052L11.7778 9.13885C11.4328 8.92487 11.3123 8.52338 11.5092 8.21143C11.7295 7.86432 12.1031 7.80666 12.4845 8.02791L13.3882 8.56229V7.31283C13.3882 6.88065 13.6884 6.56659 14.0951 6.56659C14.5134 6.56659 14.8137 6.87104 14.8137 7.31283V8.55268L15.6982 8.02791C16.0795 7.79705 16.4627 7.86432 16.6831 8.21143C16.8682 8.52549 16.7573 8.92908 16.4049 9.13885L14.8041 10.052V10.8683L14.6784 13.1075L16.5724 11.8703L17.2524 11.4728L17.2596 9.61627C17.2659 9.21057 17.5449 8.91127 17.9334 8.92393C18.3263 8.93237 18.5862 9.24526 18.5588 9.669L18.5557 10.7296L19.6282 10.0963C19.9997 9.8844 20.4138 9.97698 20.6278 10.34C20.8301 10.7265 20.7162 11.1193 20.3372 11.345L19.2668 11.957L20.1619 12.4798C20.5451 12.6781 20.6972 13.0433 20.5193 13.3967C20.3255 13.733 19.9165 13.8277 19.5556 13.6339L17.9634 12.7098L17.2718 13.1286L15.2426 14.1188L17.2718 15.1187L17.9634 15.5375L19.5556 14.6037C19.9165 14.4216 20.3138 14.5046 20.5193 14.8484C20.6972 15.2082 20.5451 15.5595 20.1619 15.7674L19.2668 16.2903L20.3372 16.8927C20.7162 17.1162 20.8301 17.5208 20.6257 17.8998C20.3946 18.267 19.9997 18.3596 19.6282 18.151L18.5557 17.5081L18.5588 18.575C18.582 19.002 18.322 19.3128 17.9238 19.3234C17.5449 19.336 17.2659 19.0271 17.2596 18.6214L17.2524 16.7766L16.5724 16.3599L14.6784 15.1419L14.8041 17.3694V18.1857L16.4049 19.0988C16.7573 19.3086 16.8682 19.7122 16.6831 20.0262C16.4606 20.3734 16.0795 20.4544 15.6982 20.2098L14.8137 19.685V20.9248C14.8137 21.3762 14.5134 21.6711 14.0951 21.6711Z" fill="white"/>
</svg>
