<svg width="28" height="28" viewBox="0 0 28 28" fill="none" xmlns="http://www.w3.org/2000/svg">
<path d="M10.1055 14.1051C10.1055 9.89872 11.9127 6.41379 15.0032 4.44434C19.9919 4.90981 23.8155 9.01654 23.8272 14.1051C23.8368 19.2086 19.9769 23.3292 14.9455 23.7658C11.8935 21.8252 10.1055 18.3595 10.1055 14.1051Z" fill="white"/>
<path d="M2 14.105C2 20.7273 7.48484 26.21 14.105 26.21C20.7369 26.21 26.2121 20.7273 26.2121 14.105C26.2121 7.47312 20.7273 2 14.0954 2C7.47523 2 2 7.47312 2 14.105ZM10.1059 14.105C10.1059 9.89866 11.9131 6.41373 15.0036 4.44428C19.9923 4.90975 23.8159 9.01648 23.8276 14.105C23.8372 19.2085 19.9773 23.3291 14.9459 23.7657C11.8939 21.8251 10.1059 18.3594 10.1059 14.105Z" fill="black"/>
</svg>
