<svg width="28" height="28" viewBox="0 0 28 28" fill="none" xmlns="http://www.w3.org/2000/svg">
<path d="M1 13.1185C1 15.5021 2.2757 17.3487 3.92101 17.3487C5.57054 17.3487 6.85585 15.5 6.85585 13.1185C6.85585 10.7508 5.57054 8.89249 3.92101 8.89249C2.2757 8.89249 1 10.7508 1 13.1185ZM6.78062 6.23023C6.78062 8.59788 8.07554 10.4466 9.71335 10.4466C11.3704 10.4466 12.6578 8.58827 12.6578 6.23023C12.6578 3.84875 11.3704 2 9.71335 2C8.07343 2 6.78062 3.84875 6.78062 6.23023ZM14.5544 6.23023C14.5544 8.58827 15.8301 10.4466 17.4892 10.4466C19.1249 10.4466 20.4219 8.59788 20.4219 6.23023C20.4219 3.84875 19.1291 2 17.4892 2C15.8301 2 14.5544 3.84875 14.5544 6.23023ZM20.3467 13.1185C20.3467 15.5 21.632 17.3487 23.2815 17.3487C24.9269 17.3487 26.2026 15.5021 26.2026 13.1185C26.2026 10.7508 24.9269 8.89249 23.2815 8.89249C21.632 8.89249 20.3467 10.7508 20.3467 13.1185ZM4.63585 22.3006C4.63585 24.7543 6.28445 26.4987 8.6978 26.4987C9.88327 26.4987 10.7481 26.1664 11.5588 25.8851C12.2151 25.6529 12.8373 25.4483 13.6002 25.4483C14.3556 25.4483 14.9779 25.6529 15.6437 25.8851C16.4544 26.1664 17.3097 26.4987 18.4951 26.4987C20.9181 26.4987 22.5667 24.7543 22.5667 22.3006C22.5667 20.2386 21.328 19.1853 20.1637 18.234C19.5128 17.7141 18.8959 17.2241 18.474 16.5741C18.1288 16.0552 17.8358 15.4894 17.5771 14.9251C16.7249 13.1077 16.0443 11.3621 13.6002 11.3621C11.1487 11.3621 10.4776 13.1077 9.62546 14.9155C9.35499 15.4894 9.07374 16.0456 8.73812 16.5549C8.30663 17.2048 7.68015 17.7141 7.0389 18.234C5.87453 19.1853 4.63585 20.2482 4.63585 22.3006Z" fill="black"/>
</svg>
