<svg width="28" height="28" viewBox="0 0 28 28" fill="none" xmlns="http://www.w3.org/2000/svg">
<path d="M14.105 26.21C20.7369 26.21 26.2121 20.7273 26.2121 14.105C26.2121 7.47312 20.7273 2 14.0954 2C7.47523 2 2 7.47312 2 14.105C2 20.7273 7.48484 26.21 14.105 26.21ZM14.105 23.8255C8.71085 23.8255 4.39412 19.4991 4.39412 14.105C4.39412 8.71085 8.70124 4.38452 14.0954 4.38452C19.4895 4.38452 23.8276 8.71085 23.8276 14.105C23.8276 19.4991 19.4991 23.8255 14.105 23.8255Z" fill="black"/>
<path d="M11.9728 21.7491C13.7859 21.7491 15.2432 20.2981 15.2432 18.4967C15.2432 17.558 14.8617 16.7333 14.1349 16.0737C14.0219 15.9704 14.0006 15.9043 14.0006 15.7348L14.0102 10.4159C14.0102 9.1048 13.1784 8.20691 11.9728 8.20691C10.7554 8.20691 9.93536 9.1048 9.93536 10.4159V15.7348C9.93536 15.9043 9.91614 15.9725 9.77762 16.0737C9.06044 16.727 8.68848 17.558 8.68848 18.4967C8.68848 20.2981 10.15 21.7491 11.9728 21.7491ZM11.9728 20.705C10.7301 20.705 9.75395 19.7213 9.75395 18.4841C9.75395 17.7254 10.0992 17.0656 10.7247 16.6468C10.9251 16.5242 10.9912 16.4059 10.9912 16.1469V10.4532C10.9912 9.73808 11.377 9.28199 11.9728 9.28199C12.5493 9.28199 12.9351 9.73808 12.9351 10.4532V16.1469C12.9351 16.4059 13.0033 16.5242 13.2037 16.6468C13.8271 17.0656 14.1841 17.7254 14.1841 18.4841C14.1841 19.7213 13.1866 20.705 11.9728 20.705ZM11.9632 19.9463C12.7827 19.9463 13.4329 19.2845 13.4329 18.4745C13.4329 17.9117 13.1099 17.4427 12.6346 17.1859C12.4535 17.0921 12.397 17.0143 12.397 16.7394V10.9573C12.397 10.6536 12.2062 10.4628 11.9632 10.4628C11.718 10.4628 11.5368 10.6536 11.5368 10.9573V16.7394C11.5368 17.0143 11.4803 17.0921 11.2778 17.1859C10.8281 17.4427 10.503 17.9117 10.503 18.4745C10.503 19.2941 11.1532 19.9463 11.9632 19.9463ZM14.9226 8.48324C15.272 8.48324 15.5362 8.19027 15.5362 7.86754V6.60847C15.5362 6.27402 15.272 6.00238 14.9226 6.00238C14.5806 6.00238 14.309 6.27402 14.309 6.60847V7.86754C14.309 8.19988 14.5806 8.48324 14.9226 8.48324ZM17.6601 9.6202C17.8891 9.85668 18.2992 9.85457 18.5336 9.61809L19.4142 8.73004C19.6431 8.49144 19.6528 8.09301 19.4045 7.85652C19.1702 7.61793 18.791 7.62004 18.5599 7.85863L17.6622 8.75207C17.4161 8.98855 17.4257 9.37949 17.6601 9.6202ZM19.3914 12.9617H20.6409C20.9807 12.9617 21.2566 12.6687 21.2566 12.3577C21.2566 12.0137 20.9807 11.7303 20.6409 11.7303H19.3914C19.057 11.7303 18.7853 12.0158 18.7853 12.3598C18.7853 12.6687 19.057 12.9617 19.3914 12.9617ZM18.5599 16.8493C18.7867 17.0783 19.1702 17.0879 19.4045 16.8493C19.6506 16.6128 19.6506 16.2027 19.412 15.9854L18.524 15.0877C18.2875 14.8491 17.8966 14.8491 17.6601 15.0877C17.4257 15.3242 17.4182 15.7248 17.6622 15.9495L18.5599 16.8493ZM14.872 15.3859C16.5845 15.4234 17.9636 14.0766 17.9636 12.3598C17.9636 10.6507 16.6157 9.30074 14.9226 9.30074C14.8427 9.30074 14.7627 9.30074 14.6849 9.32418C14.8157 9.6584 14.8837 10.0254 14.8837 10.4159L14.872 15.3859Z" fill="black"/>
</svg>
