<svg width="31" height="28" viewBox="0 0 31 28" fill="none" xmlns="http://www.w3.org/2000/svg">
<path d="M21.3738 16.4958C21.3738 13.008 18.5048 10.1198 15.0234 10.1198C11.5303 10.1198 8.66133 13.008 8.66133 16.4958C8.66133 17.2584 8.80969 17.9806 9.0893 18.6429H20.9459C21.2255 17.9806 21.3738 17.2584 21.3738 16.4958ZM2.62101 17.1089L5.33719 17.111C5.98242 17.111 6.47742 16.6448 6.46781 16.0711C6.4582 15.4952 5.97281 15.0333 5.33719 15.0333H2.62101C1.97578 15.0333 1.5 15.4952 1.5 16.0711C1.5 16.6448 1.97789 17.1089 2.62101 17.1089ZM7.43415 10.4041C7.88344 10.8609 8.5711 10.8769 8.96813 10.4681C9.36726 10.0615 9.36516 9.38344 8.90836 8.93415L6.98531 7.01531C6.52429 6.54469 5.86969 6.5618 5.46094 6.96094C5.05219 7.35797 5.04258 8.0264 5.5132 8.48742L7.43415 10.4041ZM21.067 10.4681C21.4737 10.8673 22.1517 10.8609 22.601 10.4041L24.522 8.48742C24.9926 8.0264 24.9734 7.36758 24.5742 6.96094C24.1772 6.55219 23.5109 6.54469 23.0498 7.01531L21.1268 8.93415C20.67 9.38344 20.6583 10.0711 21.067 10.4681ZM24.698 17.1089H27.4141C28.0615 17.1089 28.5352 16.6448 28.5352 16.0711C28.5352 15.4952 28.0615 15.0333 27.4141 15.0333H24.698C24.0645 15.0333 23.5577 15.4952 23.5673 16.0711C23.577 16.6448 24.0666 17.1089 24.698 17.1089ZM15.0234 7.96781C15.5876 7.9582 16.0591 7.47071 16.0591 6.83719V4.12101C16.0591 3.47367 15.5876 3 15.0234 3C14.4476 3 13.976 3.47367 13.976 4.12101V6.83719C13.976 7.47071 14.4476 7.97742 15.0234 7.96781Z" fill="black"/>
<path d="M1.16296 22.3489H28.8722C29.5073 22.3489 30.0352 21.8427 30.0352 21.2427C30.0352 20.6342 29.5095 20.1364 28.8722 20.1364H1.16296C0.52781 20.1364 0 20.6406 0 21.2427C0 21.8363 0.529919 22.3489 1.16296 22.3489Z" fill="black"/>
</svg>
