<svg width="28" height="28" viewBox="0 0 28 28" fill="none" xmlns="http://www.w3.org/2000/svg">
<path d="M5.32789 25.4892H23.4434C25.4884 25.4892 26.7692 24.0199 26.7692 22.1784C26.7692 21.6108 26.6073 21.0197 26.3037 20.4851L17.2332 4.67086C16.5964 3.55805 15.5091 3 14.3867 3C13.2622 3 12.159 3.56227 11.536 4.67086L2.46547 20.4872C2.14484 21.0293 2 21.6108 2 22.1784C2 24.0199 3.28086 25.4892 5.32789 25.4892Z" fill="black"/>
<path d="M14.3871 20.922C12.3682 20.922 11.0098 19.6062 11.0098 17.6416C11.0098 16.7006 11.4052 15.8217 11.7373 15.1308C12.2616 13.999 13.1079 12.6377 13.8305 11.5101C13.988 11.2664 14.1731 11.1398 14.3871 11.1398C14.6107 11.1398 14.7863 11.2664 14.9438 11.5101C15.6759 12.6377 16.5223 13.999 17.037 15.1266C17.3691 15.8175 17.7645 16.7006 17.7645 17.6416C17.7645 19.6062 16.4156 20.922 14.3871 20.922Z" fill="white"/>
</svg>
