<svg width="28" height="28" viewBox="0 0 28 28" fill="none" xmlns="http://www.w3.org/2000/svg">
<path d="M14.105 26.21C20.7369 26.21 26.2121 20.7273 26.2121 14.105C26.2121 7.47312 20.7273 2 14.0954 2C7.47523 2 2 7.47312 2 14.105C2 20.7273 7.48484 26.21 14.105 26.21ZM14.105 23.8255C8.71085 23.8255 4.39412 19.4991 4.39412 14.105C4.39412 8.71085 8.70124 4.38452 14.0954 4.38452C19.4895 4.38452 23.8276 8.71085 23.8276 14.105C23.8276 19.4991 19.4991 23.8255 14.105 23.8255Z" fill="black"/>
<path d="M14.0854 21.3174C14.4932 21.3174 14.7658 21.0289 14.7658 20.6094V19.4152L15.6365 19.9262C15.9901 20.1411 16.3607 20.0813 16.5597 19.7544C16.7502 19.4466 16.6394 19.0707 16.3028 18.8652L14.7658 17.9902V17.2058L14.6347 15.0601L16.4608 16.2378L17.113 16.629L17.1278 18.4058C17.132 18.7934 17.3854 19.0768 17.7442 19.0662C18.134 19.0557 18.3705 18.7726 18.3494 18.3636L18.3484 17.3244L19.3869 17.9396C19.7383 18.1515 20.1248 18.0631 20.3303 17.7139C20.5305 17.3551 20.4283 16.9686 20.0673 16.7609L19.0309 16.1649L19.9005 15.6655C20.2656 15.4693 20.4018 15.1243 20.2356 14.7964C20.046 14.4706 19.6647 14.3802 19.3239 14.5677L17.7955 15.4503L17.124 15.0474L15.1745 14.1008L17.124 13.1424L17.7955 12.7395L19.3239 13.6339C19.6647 13.8118 20.0556 13.7288 20.2356 13.4127C20.4018 13.0677 20.2656 12.7323 19.9005 12.5265L19.0309 12.0249L20.0673 11.4406C20.4283 11.2288 20.5305 10.8561 20.3324 10.4898C20.144 10.1427 19.7383 10.0522 19.3869 10.2503L18.3484 10.8559L18.3494 9.8401C18.3726 9.4365 18.1361 9.13205 17.7538 9.12572C17.3854 9.11518 17.132 9.40604 17.1278 9.7958L17.113 11.563L16.4512 11.9542L14.6347 13.134L14.7658 10.9937V10.2113L16.3028 9.33432C16.6394 9.12877 16.7502 8.75283 16.5597 8.44721C16.3649 8.12025 15.9901 8.05088 15.6365 8.27541L14.7658 8.78424V7.5901C14.7658 7.16096 14.4932 6.88416 14.0854 6.88416C13.6989 6.88416 13.4167 7.17057 13.4167 7.5901V8.79385L12.5343 8.27541C12.171 8.06049 11.8175 8.12025 11.6111 8.44721C11.4301 8.75072 11.541 9.12666 11.8797 9.32471L13.4167 10.2113V10.9937L13.5477 13.134L11.7409 11.9638L11.0694 11.563L11.0643 9.7958C11.0601 9.40604 10.7971 9.11518 10.4286 9.12572C10.0485 9.13205 9.812 9.42689 9.8331 9.83588L9.83403 10.8559L8.79552 10.2503C8.43458 10.0426 8.03849 10.1523 7.85005 10.4898C7.64239 10.8444 7.75419 11.2309 8.11091 11.4406L9.15154 12.0249L8.282 12.5265C7.91473 12.7227 7.77856 13.0559 7.94684 13.4148C8.12684 13.7288 8.51567 13.8214 8.86817 13.6339L10.3869 12.7491L11.0584 13.1424L13.008 14.1008L11.0584 15.0474L10.3869 15.4503L8.86817 14.5677C8.51567 14.378 8.12052 14.461 7.95645 14.7793C7.78817 15.1243 7.90723 15.4693 8.282 15.6655L9.15154 16.1649L8.11513 16.7609C7.75419 16.9686 7.64989 17.3572 7.85005 17.7139C8.0481 18.0631 8.43458 18.1515 8.79552 17.9396L9.83403 17.3436L9.8331 18.3615C9.8099 18.7726 10.0464 19.0578 10.4286 19.0662C10.7971 19.0768 11.0601 18.7934 11.0643 18.4058L11.0694 16.6269L11.7409 16.2357L13.5477 15.058L13.4167 17.2058V17.9902L11.8797 18.8652C11.5431 19.0707 11.4322 19.4466 11.6111 19.7544C11.8175 20.0813 12.171 20.1294 12.5343 19.9262L13.4167 19.4056V20.6094C13.4167 21.0193 13.6989 21.3174 14.0854 21.3174Z" fill="black"/>
</svg>
