<svg width="28" height="28" viewBox="0 0 28 28" fill="none" xmlns="http://www.w3.org/2000/svg">
<path d="M14.105 26.21C20.7369 26.21 26.2121 20.7273 26.2121 14.105C26.2121 7.47312 20.7273 2 14.0954 2C7.47523 2 2 7.47312 2 14.105C2 20.7273 7.48484 26.21 14.105 26.21ZM14.105 23.8255C8.71085 23.8255 4.39412 19.4991 4.39412 14.105C4.39412 8.71085 8.70124 4.38452 14.0954 4.38452C19.4895 4.38452 23.8276 8.71085 23.8276 14.105C23.8276 19.4991 19.4991 23.8255 14.105 23.8255Z" fill="black"/>
<path d="M8.55878 18.9064H14.6045C16.2339 18.9064 17.4573 17.6841 17.4573 16.0815C17.4573 14.5025 16.2137 13.3048 14.5269 13.276C13.8948 12.1034 12.7736 11.3216 11.3228 11.3216C9.4698 11.3216 7.92363 12.7421 7.72863 14.5653C6.808 14.8637 6.16113 15.6788 6.16113 16.7007C6.16113 17.9846 7.13191 18.9064 8.55878 18.9064ZM13.4062 10.7966C13.6213 11.0256 14.0069 11.0042 14.2337 10.7891C14.4318 10.5739 14.4351 10.2001 14.2337 9.98492L13.3968 9.16086C13.1636 8.9457 12.8036 8.94781 12.5905 9.16086C12.3765 9.37062 12.385 9.74023 12.5926 9.96922L13.4062 10.7966ZM16.6912 9.76391C17.016 9.76391 17.2663 9.50188 17.2663 9.18664V8.03304C17.2663 7.70609 17.016 7.45367 16.6912 7.45367C16.3801 7.45367 16.1064 7.70609 16.1064 8.03304V9.18664C16.1064 9.50188 16.3801 9.76391 16.6912 9.76391ZM19.1666 10.7891C19.3797 11.0042 19.7748 11.0256 19.99 10.7987L20.8056 9.97133C21.0133 9.74234 21.0154 9.37062 20.8077 9.16297C20.5851 8.9457 20.2091 8.93609 19.9823 9.16297L19.1666 9.98281C18.9473 10.2001 18.9548 10.5739 19.1666 10.7891ZM20.7744 13.8312H21.9109C22.2337 13.8312 22.484 13.5692 22.484 13.2582C22.484 12.9355 22.2337 12.6905 21.9109 12.6905H20.7744C20.4538 12.6905 20.1876 12.9355 20.1876 13.2582C20.1876 13.5692 20.4538 13.8312 20.7744 13.8312ZM19.9823 17.3748C20.2091 17.6091 20.5808 17.5803 20.8077 17.3609C21.0133 17.1341 21.0229 16.7645 20.8056 16.5568L19.9921 15.7529C19.7631 15.5239 19.3872 15.5218 19.1624 15.7508C18.9526 15.9638 18.9451 16.328 19.1645 16.5549L19.9823 17.3748ZM19.5119 13.2582C19.5119 11.6853 18.2587 10.4513 16.6933 10.4513C15.7225 10.4513 14.8626 10.933 14.3776 11.6715C14.6291 11.9038 14.8497 12.1552 15.0329 12.4473C16.7615 12.6774 18.0883 13.9243 18.2872 15.5825C19.0462 15.0453 19.5119 14.2013 19.5119 13.2582Z" fill="black"/>
</svg>
