<svg width="32" height="28" viewBox="0 0 32 28" fill="none" xmlns="http://www.w3.org/2000/svg">
<path d="M23.088 17.6629C27.4075 17.9397 30.2357 15.6489 31.2356 12.9951C31.6413 11.9594 31.1184 11.0545 30.1242 11.0545C29.3683 11.0545 28.7582 11.3803 27.5076 11.3803C24.6058 11.3803 23.0934 9.77525 23.0934 7.06494C23.0934 5.7133 23.5099 4.94034 23.5099 4.28198C23.5099 3.25565 22.6103 2.74776 21.5348 3.1237C18.926 3.9787 16.7744 6.71361 16.7744 9.98924C16.7744 11.0533 16.964 12.078 17.3664 13.0059L19.4931 12.977C18.9553 12.0993 18.6932 11.0554 18.6932 9.96041C18.6932 7.76502 19.9607 6.01775 21.4769 5.14869L21.61 5.24244C21.415 5.80705 21.2371 6.59642 21.2371 7.50509C21.2371 10.8738 23.6601 13.2098 27.067 13.2098C27.9201 13.2098 28.6619 13.0586 29.1883 12.8849L29.2746 12.9712C28.4662 14.47 26.3632 15.9967 23.0542 15.723L23.088 17.6629Z" fill="black"/>
<path d="M5.14382 23.8314H17.8762C21.3473 23.8314 24.0515 21.1954 24.0515 17.8C24.0515 14.4217 21.3534 11.8668 17.7935 11.8115C16.4055 9.22612 13.9458 7.68323 10.9816 7.68323C7.04999 7.68323 3.77226 10.6589 3.32226 14.5628C1.33477 15.1912 0 16.923 0 19.1001C0 21.8486 2.08711 23.8314 5.14382 23.8314ZM5.12648 21.6695C3.18491 21.6695 2.16608 20.5717 2.16608 19.1449C2.16608 17.9217 2.89475 16.8824 4.5921 16.4242C5.1778 16.2773 5.38241 16.0089 5.44194 15.3923C5.7621 12.0857 8.11944 9.84509 10.9816 9.84509C13.1897 9.84509 14.9339 11.0737 16.0301 13.2344C16.2984 13.7509 16.586 13.9331 17.2048 13.9331C20.2441 13.9331 21.878 15.7106 21.878 17.8565C21.878 19.975 20.1726 21.6695 17.8819 21.6695H5.12648Z" fill="black"/>
</svg>
