<svg width="28" height="28" viewBox="0 0 28 28" fill="none" xmlns="http://www.w3.org/2000/svg">
<path d="M4.90085 19.2434C6.65562 17.9328 6.61179 15.6976 7.26288 15.6976C7.61984 15.6976 7.97468 16.0098 8.60116 16.812C9.67296 18.1918 10.3857 18.8853 11.1123 18.8853C11.7941 18.8853 12.624 17.8934 12.624 17.0923C12.624 16.73 11.9335 16.2453 11.9335 15.9662C11.9335 15.8084 12.0955 15.7264 12.3172 15.7264C13.9316 15.7264 15.4016 14.3731 15.4016 13.2673C15.4016 12.4885 14.1242 11.7683 14.1242 11.2665C14.1242 11.0534 14.3042 10.9128 14.5173 10.9128C14.6579 10.9128 14.8198 10.9693 15.016 11.1132C16.2934 12.1316 16.8868 11.5852 17.0103 10.9597C17.0593 10.6986 17.2032 10.4152 17.8606 10.0913C19.2594 9.34671 20.229 8.35366 20.229 7.57062C20.229 6.70437 18.6542 5.94804 18.6542 5.61663C18.6542 5.43335 18.9282 5.28194 19.6784 5.0539C18.4946 3.97343 16.617 3.15007 14.0659 3.15007C7.51648 3.41843 3.2389 8.05999 3.20163 14.1219C3.18991 16.0203 3.78757 17.8838 4.90085 19.2434ZM19.2641 23.8787C21.5483 22.418 23.2231 20.6558 24.2865 18.6165C24.0936 17.1291 23.3766 16.2598 22.3709 16.2598C22.1035 16.2598 21.7658 16.3067 21.4632 16.4122C21.0678 16.5369 20.99 16.5155 20.6682 16.149C20.2016 15.6141 19.7935 15.4287 19.1532 15.4287C17.9429 15.4287 17.2419 16.0616 16.7166 17.6246C16.5706 18.0945 16.3639 18.2565 15.5562 18.5687L15.0725 18.7423C14.1605 19.0918 13.9262 19.7459 14.2384 21.1203C14.5175 22.3285 15.1013 22.9496 15.9312 22.9496C16.677 22.9496 17.1277 22.6801 17.6349 22.6801C18.3744 22.6587 18.7409 23.1446 19.2641 23.8787ZM16.8828 13.4366C17.6382 13.4366 17.9759 12.7632 18.823 12.5075C19.3834 12.3434 19.6838 11.7755 19.6838 11.2855C19.6838 10.8912 19.4867 10.5535 19.0573 10.5535C18.6024 10.5535 18.1848 10.903 17.9056 11.4964C17.7554 11.832 17.4976 11.9961 16.8828 12.1698C16.3948 12.32 16.2212 12.4958 16.2212 12.8666C16.2212 13.2629 16.5334 13.4366 16.8828 13.4366ZM13.5118 18.7578C14.1755 18.7578 14.8255 17.9907 14.8255 17.3056C14.8255 16.4565 14.4739 16.0623 14.0701 16.0623C13.629 16.0623 13.3498 16.5854 13.3498 17.3738C13.3498 17.8287 12.9535 17.8426 12.9535 18.2954C12.9535 18.5745 13.1741 18.7578 13.5118 18.7578ZM11.4294 20.9108C11.9387 20.9108 12.2551 20.6455 12.2551 20.2236C12.2551 19.8997 12.009 19.6887 11.6595 19.6887C10.2563 19.6887 10.1977 18.9003 9.52226 18.9003C9.15148 18.9003 8.89367 19.1209 8.89367 19.4448C8.89367 19.7005 9.15148 19.8997 9.49882 19.8997C10.2425 19.8997 9.89304 20.9108 11.4294 20.9108ZM14.105 26.21C20.7369 26.21 26.2121 20.7273 26.2121 14.105C26.2121 7.47312 20.7273 2 14.0954 2C7.47523 2 2 7.47312 2 14.105C2 20.7273 7.48484 26.21 14.105 26.21ZM14.105 24.3336C8.51233 24.3336 3.8785 19.6998 3.8785 14.105C3.8785 8.51023 8.50273 3.87639 14.0954 3.87639C19.6902 3.87639 24.3336 8.51023 24.3336 14.105C24.3336 19.6998 19.6998 24.3336 14.105 24.3336Z" fill="black"/>
</svg>
