<svg width="29" height="28" viewBox="0 0 29 28" fill="none" xmlns="http://www.w3.org/2000/svg">
<path d="M5.9257 22.9368H21.2953C25.3394 22.9368 28.4719 19.8747 28.4719 15.9468C28.4719 11.9816 25.2987 8.97203 20.9794 8.97203C19.3976 5.85086 16.5255 4 12.967 4C8.35265 4 4.47093 7.50203 3.99117 12.2369C1.58414 12.9576 0 14.9748 0 17.5047C0 20.5373 2.22843 22.9368 5.9257 22.9368ZM5.9339 20.74C3.59272 20.74 2.19678 19.4877 2.19678 17.5654C2.19678 15.9095 3.25803 14.7266 5.17124 14.2206C5.83803 14.0544 6.08202 13.7561 6.14577 13.0384C6.49451 9.05734 9.35718 6.19678 12.967 6.19678C15.7174 6.19678 17.8718 7.73546 19.2012 10.4097C19.4951 11.0029 19.8391 11.2042 20.5709 11.2042C24.2093 11.2042 26.2655 13.3241 26.2655 16.0021C26.2655 18.6735 24.1448 20.74 21.3778 20.74H5.9339Z" fill="black"/>
</svg>
