<svg width="28" height="28" viewBox="0 0 28 28" fill="none" xmlns="http://www.w3.org/2000/svg">
<path d="M14.105 26.21C20.7369 26.21 26.2121 20.7273 26.2121 14.105C26.2121 7.47312 20.7273 2 14.0954 2C7.47523 2 2 7.47312 2 14.105C2 20.7273 7.48484 26.21 14.105 26.21ZM14.105 23.8255C8.71085 23.8255 4.39412 19.4991 4.39412 14.105C4.39412 8.71085 8.70124 4.38452 14.0954 4.38452C19.4895 4.38452 23.8276 8.71085 23.8276 14.105C23.8276 19.4991 19.4991 23.8255 14.105 23.8255Z" fill="black"/>
<path d="M14.006 13.0576C17.8558 13.0576 20.1763 12.0889 20.1763 10.6442C20.1763 9.33265 18.37 8.55804 15.7886 8.55804C13.9216 8.55804 12.4256 8.89601 11.291 9.41187C10.9012 9.58765 10.815 9.99335 10.9556 10.2755C11.1079 10.5908 11.4989 10.6897 11.8469 10.5448C12.8315 10.1483 14.0453 9.76343 15.7375 9.76343C17.7161 9.76343 18.8678 10.19 18.8678 10.6346C18.8678 11.1772 16.9708 11.8149 13.957 11.8149C10.8644 11.8149 9.34238 11.2351 9.34238 10.1682C9.34238 9.50655 9.94004 8.84562 11.6498 8.32108C12.0363 8.19429 12.2217 7.85679 12.112 7.51601C11.9948 7.18273 11.6829 7.04749 11.2441 7.16468C9.10145 7.78929 8.02637 8.95366 8.02637 10.1937C8.02637 12.0711 10.1435 13.0576 14.006 13.0576ZM14.1871 15.1299C16.1606 15.1299 17.9859 14.8144 19.2592 14.2869C19.5946 14.1634 19.7353 13.8141 19.5925 13.5127C19.4381 13.2263 19.1144 13.1518 18.7619 13.2828C17.6271 13.7187 15.9637 14.0012 14.1871 14.0012C12.8498 14.0012 11.3547 13.8413 10.1634 13.4961C9.8109 13.3981 9.49145 13.5174 9.39559 13.8411C9.30723 14.1627 9.48395 14.4779 9.85239 14.5759C11.1417 14.9487 12.7891 15.1299 14.1871 15.1299ZM14.6207 17.1734C16.2778 17.1617 17.8155 16.9316 19.2295 16.4701C19.6363 16.3198 19.7374 15.9577 19.6256 15.6863C19.5159 15.3849 19.207 15.2806 18.8214 15.4074C17.4447 15.8476 16.0785 16.0618 14.6081 16.0618C13.9846 16.0618 13.3389 16.0191 12.8423 15.9509C12.4525 15.8998 12.2055 16.0787 12.1352 16.3705C12.0745 16.6782 12.247 16.9827 12.6623 17.0584C13.1556 17.1362 13.8419 17.183 14.6207 17.1734ZM14.0263 19.1211C15.1729 19.2479 16.593 19.2139 17.7653 18.8952C18.1295 18.7897 18.2807 18.4606 18.187 18.1742C18.0815 17.8527 17.7834 17.7174 17.4021 17.8208C16.4163 18.0713 15.2613 18.147 14.1967 18.0137C13.8103 17.986 13.5365 18.1787 13.4917 18.4918C13.4662 18.789 13.6228 19.0742 14.0263 19.1211ZM13.5979 21.1114C14.0156 21.1583 14.4695 21.1583 14.9095 21.1114C15.2749 21.057 15.4579 20.8163 15.442 20.5023C15.3993 20.2116 15.1694 19.9902 14.7742 20.0391C14.4269 20.0839 14.0603 20.0935 13.7214 20.0412C13.3359 19.9923 13.0985 20.2234 13.0633 20.4927C13.026 20.7971 13.2016 21.057 13.5979 21.1114Z" fill="black"/>
</svg>
