<svg width="28" height="28" viewBox="0 0 28 28" fill="none" xmlns="http://www.w3.org/2000/svg">
<path d="M4.91796 20.1198C6.67389 19.8322 7.71967 19.1949 7.71967 17.3565C7.71967 16.1288 8.84163 16.0456 8.84163 14.7226C8.84163 14.1282 8.26436 13.6489 7.29897 12.8593L6.53186 12.2403C6.45288 12.1805 6.3985 12.0781 6.3985 11.9832C6.3985 11.7816 6.57452 11.6056 6.76225 11.6056C6.91155 11.6056 7.05757 11.7537 7.56475 12.1885C8.38624 12.8853 8.82405 13.2741 9.37155 13.2741C9.90452 13.2741 10.1119 12.9523 10.388 12.9523C10.5469 12.9523 10.6494 13.0409 10.7368 13.284L11.2013 14.5709C11.6977 16.0048 12.5886 15.8612 12.7484 16.8406C13.2406 20.206 13.8308 21.5359 15.2157 21.5359C16.5805 21.5359 17.0469 20.3136 17.0469 18.2131C17.0469 16.6541 18.9233 15.0205 19.5884 15.0205C20.3944 15.0205 20.7786 18.4723 24.4116 18.5056V17.2609C21.0266 17.2393 21.8457 13.7757 19.5884 13.7757C18.2396 13.7757 15.8021 16.0897 15.8021 18.2131C15.8021 19.7677 15.6678 20.2911 15.2157 20.2911C14.6506 20.2911 14.3405 19.1591 13.9676 16.6468C13.6981 14.9103 12.8183 15.3083 12.4088 14.2313L11.7505 12.5513C11.4948 11.8705 11.0302 11.5979 10.5115 11.5979C9.99991 11.5979 9.53257 11.9837 9.3439 11.9837C9.19038 11.9837 8.63936 11.4912 8.3335 11.2205C7.8146 10.7602 7.31608 10.3609 6.76647 10.3609C5.90889 10.3609 5.15374 11.195 5.15374 11.9619C5.15374 13.1136 7.59686 14.1671 7.59686 14.8536C7.59686 15.7126 6.47491 15.5637 6.47491 17.3277C6.47491 18.6884 5.74061 18.695 4.67303 18.8984L4.91796 20.1198ZM5.34499 7.33906C5.47296 8.47015 6.21639 9.35843 7.1485 9.35843C7.88772 9.35843 8.51514 8.87163 8.69514 8.13874C8.77295 7.84249 8.84866 7.72624 9.06827 7.59405C9.58061 7.31069 9.8171 6.98585 9.8171 6.42874C9.8171 5.8503 9.40155 5.25804 8.68061 4.50827L7.79257 5.36116C8.33046 5.94382 8.57022 6.10366 8.57022 6.37976C8.57022 6.73601 7.84882 6.69757 7.68264 7.54765C7.60694 7.92828 7.3585 8.11156 7.13889 8.11156C6.91085 8.11156 6.52905 7.81132 6.47022 7.1307L5.34499 7.33906ZM14.105 26.21C20.7369 26.21 26.2121 20.7273 26.2121 14.105C26.2121 7.47312 20.7273 2 14.0954 2C7.47523 2 2 7.47312 2 14.105C2 20.7273 7.48484 26.21 14.105 26.21ZM14.105 24.3336C8.51233 24.3336 3.8785 19.6998 3.8785 14.105C3.8785 8.51023 8.50273 3.87639 14.0954 3.87639C19.6902 3.87639 24.3336 8.51023 24.3336 14.105C24.3336 19.6998 19.6998 24.3336 14.105 24.3336Z" fill="black"/>
</svg>
