<svg width="28" height="29" viewBox="0 0 28 29" fill="none" xmlns="http://www.w3.org/2000/svg">
<path d="M3.09888 24.3755C3.47997 24.5916 3.93349 24.4554 4.14747 24.0806L5.65825 21.4692C5.88185 21.0827 5.76255 20.6346 5.38146 20.4068C5.00247 20.1907 4.57451 20.3227 4.34669 20.7038L2.8263 23.3461C2.61232 23.7113 2.70818 24.1573 3.09888 24.3755ZM5.36388 27.6546C5.74497 27.8611 6.2006 27.727 6.41247 27.3598L7.92325 24.7388C8.14685 24.364 8.02966 23.9138 7.64857 23.6881C7.26747 23.4624 6.83951 23.5922 6.61169 23.985L5.08169 26.6156C4.87732 26.9808 4.97318 27.4289 5.36388 27.6546ZM19.4428 24.3755C19.8218 24.5916 20.2774 24.4554 20.4914 24.0806L22 21.4692C22.2236 21.0827 22.1064 20.6346 21.735 20.4068C21.3443 20.1907 20.9184 20.3227 20.6885 20.7038L19.1702 23.3461C18.9562 23.7113 19.0521 24.1573 19.4428 24.3755ZM21.7078 27.6546C22.0889 27.8611 22.5424 27.727 22.7564 27.3598L24.2671 24.7388C24.4907 24.364 24.3714 23.9138 24 23.6881C23.6114 23.4624 23.1834 23.5922 22.9556 23.985L21.4352 26.6156C21.2212 26.9808 21.3171 27.4289 21.7078 27.6546Z" fill="black"/>
<path d="M5.67866 18.4802H20.2786C24.2004 18.4802 27.1336 15.499 27.1336 11.7884C27.1336 7.96783 24.0593 5.13402 20.0318 5.13402C18.5923 2.30276 15.9178 0.388855 12.3666 0.388855C7.87593 0.388855 4.23257 3.84377 3.79101 8.20408C1.63828 8.86315 0 10.7367 0 13.2621C0 16.166 2.12531 18.4802 5.67866 18.4802ZM16.5539 22.8089H13.803L13.7648 23.3995L15.1903 20.6679C15.3288 20.4101 15.2233 20.2088 14.9634 20.2088H12.2137C11.8739 20.2088 11.7567 20.3259 11.6512 20.5741L10.0259 24.2766C9.89906 24.5674 10.0237 24.7453 10.3305 24.7453H12.5913L12.7162 24.0012L10.8211 28.6043C10.7583 28.7588 10.7955 28.8877 10.901 28.9345C11.0065 28.9814 11.1354 28.9463 11.2664 28.8195L16.7393 23.3991C16.9917 23.1455 16.898 22.8089 16.5539 22.8089Z" fill="black"/>
</svg>
