<svg width="28" height="28" viewBox="0 0 28 28" fill="none" xmlns="http://www.w3.org/2000/svg">
<path d="M14.105 26.2301C20.7369 26.2301 26.2121 20.7549 26.2121 14.123C26.2121 7.50291 20.7273 2.01807 14.0954 2.01807C7.47523 2.01807 2 7.50291 2 14.123C2 20.7549 7.48484 26.2301 14.105 26.2301Z" fill="black"/>
<path d="M10.2964 15.736C8.59059 15.736 7.57129 14.6291 7.57129 13.2444C7.57129 12.0467 8.34075 11.1369 9.39215 10.8132C9.61036 8.68226 11.3876 7.0271 13.5302 7.0271C15.1891 7.0271 16.4934 7.9257 17.2233 9.32257C19.1613 9.32257 20.6477 10.6787 20.6477 12.5281C20.6477 14.3094 19.2148 15.736 17.3524 15.736H10.2964ZM10.1789 19.1232C10.0128 19.4012 9.67411 19.4928 9.39614 19.3287C9.11817 19.1818 9.02231 18.8239 9.19059 18.5555L10.0144 17.1317C10.1689 16.858 10.5075 16.7717 10.7876 16.9187C11.0656 17.0848 11.1476 17.4331 11.0007 17.7015L10.1789 19.1232ZM11.8634 20.9253C11.7089 21.1895 11.3682 21.297 11.1019 21.1405C10.8122 20.9818 10.7281 20.6314 10.8729 20.3598L12.7444 17.138C12.9084 16.8547 13.2492 16.7759 13.508 16.9229C13.7956 17.0912 13.8755 17.4319 13.7306 17.7057L11.8634 20.9253ZM15.6197 19.1232C15.4631 19.4012 15.1245 19.4928 14.8582 19.3287C14.5685 19.1818 14.4844 18.8239 14.6431 18.5555L15.4744 17.1317C15.6213 16.858 15.9696 16.7717 16.2401 16.9187C16.5256 17.0848 16.6097 17.4331 16.4435 17.7015L15.6197 19.1232ZM17.3138 20.9253C17.1614 21.1895 16.8089 21.297 16.5523 21.1405C16.2626 20.9818 16.1806 20.6314 16.335 20.3598L18.1948 17.138C18.3492 16.8547 18.69 16.7759 18.9701 16.9229C19.2438 17.0912 19.3376 17.4319 19.1831 17.7057L17.3138 20.9253Z" fill="white"/>
</svg>
