<svg width="28" height="28" viewBox="0 0 28 28" fill="none" xmlns="http://www.w3.org/2000/svg">
<path d="M19.402 7.91106C21.3696 6.83715 23.4916 1.14443 21.1947 0.56553C18.8435 0.00373596 18.1291 6.05387 19.402 7.91106ZM19.6432 8.36388C22.402 8.5127 28.3216 3.8456 26.2415 1.75381C24.1614 -0.326263 19.4964 5.59122 19.6432 8.36388ZM20.096 8.59333C21.9414 9.88754 28.0054 9.15184 27.4436 6.83365C26.8722 4.50374 21.1699 6.6438 20.096 8.59333ZM0.713626 27.2348C1.37034 27.9032 2.40885 28.2562 3.54979 27.5372L9.52752 23.7963L8.20353 22.484C7.84916 22.1318 7.85338 21.6166 8.19392 21.274C8.53869 20.9313 9.05173 20.9196 9.40611 21.274L11.0132 22.8597L12.2519 22.0762L10.3675 20.26C10.0131 19.912 10.0249 19.3926 10.36 19.05C10.7165 18.7073 11.2253 18.6977 11.5701 19.0425L13.7355 21.161L19.2665 17.6718C23.3428 15.1092 24.0935 11.0264 21.025 7.93006L20.0109 6.90842C17.384 4.25693 13.9797 4.44701 11.448 7.17069L14.4766 10.163C14.831 10.5173 14.8289 11.0208 14.4958 11.3655C14.1532 11.7178 13.6359 11.7274 13.2857 11.3751L10.3764 8.51295L9.59831 9.7324L11.7607 11.8542C12.115 12.2065 12.1129 12.7333 11.7703 13.0664C11.4138 13.4133 10.9125 13.4186 10.5602 13.0664L8.67347 11.2277L0.389955 24.3635C-0.28317 25.4393 -0.0262938 26.4991 0.713626 27.2348Z" fill="black"/>
</svg>
