<svg width="28" height="28" viewBox="0 0 28 28" fill="none" xmlns="http://www.w3.org/2000/svg">
<path d="M6.80833 2.00031C6.20247 3.34351 5.94771 4.70148 5.94771 6.02007C5.94771 10.443 9.09137 13.9954 13.8761 13.9954C18.6609 13.9954 21.8025 10.443 21.8025 6.02007C21.8025 4.69515 21.5498 3.3414 20.9536 2.00031C20.6472 1.35555 19.8717 1.2461 19.3589 1.77062L16.8182 4.36023L14.6517 1.56062C14.2336 1.02016 13.5166 1.02016 13.1081 1.56062L10.9415 4.36023L8.39129 1.77062C7.87848 1.2461 7.10927 1.35344 6.80833 2.00031ZM12.7952 25.8955C12.7952 26.4967 13.2686 26.9115 13.8761 26.9115C20.0571 26.9115 25.7416 23.1079 27.6098 17.7587C27.9014 16.949 27.5685 16.4097 26.7077 16.4097C20.6878 16.4097 16.2445 19.9 14.4384 24.508L14.9646 24.8432V12.5713H12.7952V25.8955ZM11.0822 20.9781C8.81787 18.2284 5.32427 16.4097 1.0052 16.4097C0.146458 16.4097 -0.188461 16.949 0.1031 17.7587C1.68396 22.3267 6.04755 25.7887 11.1949 26.6626C11.1236 26.4318 11.0822 26.1637 11.0822 25.8955V20.9781Z" fill="black"/>
</svg>
