<svg width="34" height="28" viewBox="0 0 34 28" fill="none" xmlns="http://www.w3.org/2000/svg">
<path d="M0.0340285 21.6337C0.0818405 22.2178 0.477463 22.5325 1.05941 22.5208C3.92675 22.4739 6.35089 21.1371 8.4673 18.7242C10.6533 20.8711 13.1707 22.1814 15.8107 22.8002L15.4048 26.1318C15.2846 27.1225 15.8452 27.7214 16.9955 27.5245C19.9924 27.0686 23.377 24.8482 25.1449 22.2911C29.516 20.9025 33.5262 18.1622 33.5262 14.8139C33.5262 11.5671 29.7457 8.89404 25.5145 7.45732C24.0045 2.37232 17.2833 0.0363057 12.5307 2.67467C11.9592 2.96834 11.8753 3.46075 12.3403 4.08325C13.3889 5.46536 13.7405 6.28591 13.9514 7.39216C11.9785 8.12716 10.1419 9.27349 8.4673 10.9207C6.35089 8.50029 3.92675 7.16552 1.05941 7.11654C0.477463 7.10482 0.0818405 7.41958 0.0340285 8.00575C-0.214174 10.5068 0.918326 13.1899 2.68247 14.8139C0.918326 16.4475 -0.214174 19.1381 0.0340285 21.6337ZM26.9963 15.573C26.2945 15.573 25.7025 14.981 25.7025 14.2793C25.7025 13.5776 26.2945 12.9855 26.9963 12.9855C27.7076 12.9855 28.2996 13.5776 28.2996 14.2793C28.2996 14.981 27.7076 15.573 26.9963 15.573Z" fill="black"/>
</svg>
