<svg width="28" height="28" viewBox="0 0 28 28" fill="none" xmlns="http://www.w3.org/2000/svg">
<path d="M5.43945 16.2683C5.43945 16.757 5.81633 17.1158 6.33594 17.1158H13.0266L9.55765 26.2951C9.07203 27.5781 10.4244 28.266 11.2367 27.215L16.5936 20.376L15.1672 18.9496L11.5135 23.7751L11.9239 23.9635L14.5039 18.2767L11.4322 15.2263H8.66655L9.86492 13.6494L8.36726 12.1518L5.75891 15.4803C5.54914 15.7466 5.43945 15.9957 5.43945 16.2683ZM11.3401 8.3598L12.7665 9.78832L16.4202 4.96066L16.0098 4.77433L13.4319 10.4633L16.4823 13.5095H19.2671L18.0687 15.0906L19.5643 16.584L22.1823 13.2479C22.392 12.9892 22.5017 12.7421 22.5017 12.46C22.5017 11.9788 22.1248 11.62 21.6052 11.62H14.9145L18.3835 2.43105C18.8691 1.14809 17.5189 0.460199 16.7045 1.52074L11.3401 8.3598Z" fill="black"/>
<path d="M22.3351 24.0503C22.6994 24.4103 23.3022 24.4145 23.6547 24.0503C24.0189 23.6978 24.0189 23.1046 23.6547 22.7307L5.59562 4.6738C5.2314 4.31169 4.61687 4.31169 4.26437 4.6738C3.91188 5.0263 3.91188 5.64294 4.26437 5.99333L22.3351 24.0503Z" fill="black"/>
</svg>
