<svg width="40" height="28" viewBox="0 0 40 28" fill="none" xmlns="http://www.w3.org/2000/svg">
<path d="M14.1642 13.355C17.3712 13.3454 20.0695 12.1791 22.1885 9.83985C20.0217 7.1293 17.7059 5.88453 14.2505 5.87281C10.792 5.86531 8.45437 7.03883 6.22617 9.90149C8.36133 12.2356 11.1441 13.3646 14.1642 13.355ZM6.49969 20.7488C8.32078 19.0887 9.74414 16.3801 9.98156 14.1826C8.36695 13.5882 6.50414 12.4843 5.29266 11.2034C4.75031 12.042 4.17703 12.9573 3.66351 13.9759C2.60953 16.0648 1.41586 17.0642 0.633745 17.8121C0.230858 18.2021 0 18.5504 0 19.0707C0 19.8242 0.760311 20.2477 2.10304 20.2477H3.47765C4.71539 20.2477 5.61774 20.4476 6.49969 20.7488ZM14.164 23.4019C16.8539 23.4019 18.7723 22.1012 20.3564 21.3181C18.4369 19.5936 17.2357 17.0499 17.0641 14.5958C16.1231 14.8421 15.1746 14.9626 14.1952 14.9626C13.2241 14.9722 12.2841 14.8442 11.377 14.6192C11.1832 16.9421 9.98179 19.568 8.0939 21.3704C9.64265 21.9955 11.5078 23.4019 14.164 23.4019ZM21.7992 20.686C22.8298 20.4113 23.839 20.2231 25.1468 20.1809C26.1558 20.1641 27.1444 20.0009 27.6455 19.7194C26.4809 17.9635 24.2651 12.9676 23.058 11.0736C21.8004 12.3929 19.9151 13.5884 18.4788 14.1411C18.7003 16.3897 19.9111 18.9043 21.7992 20.686Z" fill="black"/>
<path d="M3.30476 25.3372C5.35648 25.3372 7.44031 24.477 8.4964 23.1861C7.23406 22.4117 5.67758 21.6694 4.22516 21.5075C3.60407 21.68 2.95274 21.7299 2.24211 21.8832C1.31023 22.0686 0.453125 22.4872 0.453125 23.4219C0.453125 24.6481 1.66883 25.3372 3.30476 25.3372ZM24.8996 25.3564C26.5503 25.3564 27.7765 24.6673 27.7765 23.4411C27.7765 22.4485 26.8561 21.7775 25.8715 21.6554C25.1935 21.6076 24.6563 21.5811 23.9623 21.5237C22.5472 21.6615 20.8662 22.4354 19.6573 23.18C20.6902 24.5059 22.8479 25.3564 24.8996 25.3564ZM28.8882 19.2144C30.589 18.4505 31.6123 17.4971 33.8476 17.4971C36.9947 17.4971 39.0165 16.3681 39.0165 14.5916C39.0165 10.5216 36.8553 7.77124 33.6108 7.77124C30.8072 7.77124 29.0614 9.49741 28.366 12.1555C27.897 13.873 27.2335 14.5716 26.5789 15.0788C27.1498 16.051 28.0327 17.7491 28.8882 19.2144ZM33.8984 13.4555C33.2979 13.4555 32.8189 12.9669 32.8189 12.376C32.8189 11.7969 33.2979 11.3082 33.8984 11.3082C34.4776 11.3082 34.9641 11.7969 34.9641 12.376C34.9641 12.9669 34.4776 13.4555 33.8984 13.4555Z" fill="black"/>
</svg>
