<svg width="32" height="32" viewBox="0 0 32 32" fill="none" xmlns="http://www.w3.org/2000/svg">
<path d="M23.088 15.5226C27.4075 15.7994 30.2357 13.5086 31.2356 10.8548C31.6413 9.82867 31.1184 8.91414 30.1242 8.91414C29.3683 8.91414 28.7582 9.23992 27.5076 9.23992C24.6058 9.23992 23.0934 7.63492 23.0934 4.93422C23.0934 3.57297 23.5099 2.80961 23.5099 2.15125C23.5099 1.11532 22.6103 0.617039 21.5348 0.983367C18.926 1.84797 16.7744 4.58289 16.7744 7.8489C16.7744 8.91297 16.964 9.93765 17.3664 10.8656L19.4931 10.8367C18.9553 9.95898 18.6932 8.91507 18.6932 7.82008C18.6932 5.63429 19.9607 3.87742 21.4769 3.00835L21.61 3.1021C21.415 3.66671 21.2371 4.45609 21.2371 5.37648C21.2371 8.73343 23.6601 11.0791 27.067 11.0791C27.9201 11.0791 28.6619 10.9183 29.1883 10.7467L29.2746 10.8309C28.4662 12.3297 26.3632 13.8564 23.0542 13.5944L23.088 15.5226Z" fill="black"/>
<path d="M5.14382 21.6911H17.8762C21.3473 21.6911 24.0515 19.0647 24.0515 15.6693C24.0515 12.2814 21.3534 9.73822 17.7935 9.67119C16.4055 7.0858 13.9458 5.54291 10.9816 5.54291C7.04999 5.54291 3.77226 8.52814 3.32226 12.4225C1.33477 13.0509 0 14.7827 0 16.9598C0 19.7179 2.08711 21.6911 5.14382 21.6911ZM5.12648 19.5292C3.18491 19.5292 2.16608 18.4314 2.16608 17.0045C2.16608 15.7909 2.89475 14.7421 4.5921 14.2935C5.1778 14.137 5.38241 13.8686 5.44194 13.2616C5.7621 9.9454 8.11944 7.70477 10.9816 7.70477C13.1897 7.70477 14.9339 8.93547 16.0301 11.1058C16.2984 11.6202 16.586 11.7927 17.2048 11.7927C20.2441 11.7927 21.878 13.5702 21.878 15.7162C21.878 17.8443 20.1726 19.5292 17.8819 19.5292H5.12648ZM14.9735 25.7973H12.3016L12.2634 26.357L13.6099 23.8005C13.7409 23.5427 13.6355 23.353 13.3755 23.353H10.728C10.4074 23.353 10.2998 23.4798 10.1944 23.7067L8.66695 27.1802C8.54977 27.4614 8.66485 27.6414 8.97164 27.6414H11.1516L11.269 26.9491L9.46031 31.3291C9.39 31.4835 9.42516 31.6124 9.53063 31.6497C9.63609 31.6966 9.76711 31.6614 9.88641 31.5346L15.1493 26.3683C15.3921 26.1243 15.3058 25.7973 14.9735 25.7973Z" fill="black"/>
</svg>
