<svg width="28" height="28" viewBox="0 0 28 28" fill="none" xmlns="http://www.w3.org/2000/svg">
<path d="M16.3736 24.7654C15.6644 24.7047 14.7848 24.9111 14.1831 25.2901C13.9412 25.4371 13.9061 25.6661 14.1149 25.8578C14.657 26.3678 15.4994 26.7521 16.2245 26.8054C16.9752 26.9012 17.8666 26.6617 18.4619 26.1986C18.6494 26.0612 18.659 25.8557 18.4853 25.6895C17.9507 25.1774 17.1084 24.8143 16.3736 24.7654ZM18.8409 20.7538C18.4427 21.3512 18.2106 22.2287 18.2383 22.9422C18.2873 23.6907 18.6344 24.5448 19.1209 25.0635C19.2754 25.2393 19.4713 25.2393 19.6258 25.0539C20.1166 24.4958 20.3859 23.6024 20.3092 22.8379C20.2602 22.1223 19.8993 21.28 19.3989 20.7261C19.2168 20.5152 18.9974 20.529 18.8409 20.7538ZM13.0541 21.5664C12.3801 21.3236 11.4653 21.3064 10.7753 21.5268C10.5154 21.613 10.443 21.8164 10.5815 22.055C10.9766 22.6864 11.6955 23.271 12.3738 23.518C13.0616 23.8023 13.9902 23.7918 14.6898 23.4831C14.9104 23.3947 14.9711 23.2147 14.8443 23.0038C14.4651 22.3703 13.7463 21.7996 13.0541 21.5664ZM16.4523 18.3304C15.9189 18.7979 15.4579 19.5796 15.3184 20.2813C15.1577 21.0139 15.2758 21.9287 15.6175 22.5559C15.7155 22.7786 15.9114 22.8179 16.1127 22.6773C16.7132 22.2545 17.2019 21.4654 17.3233 20.705C17.4681 19.9991 17.3362 19.0822 16.9966 18.4283C16.8848 18.1705 16.6558 18.1332 16.4523 18.3304ZM8.00665 16.9975C8.09829 17.7151 8.51688 18.55 9.04399 19.0632C9.56149 19.6063 10.4102 19.9663 11.1726 19.975C11.4112 19.9825 11.5443 19.8259 11.5091 19.5873C11.4025 18.8387 10.9797 18.039 10.4505 17.5609C9.92547 17.0593 9.10985 16.6738 8.3943 16.6002C8.11305 16.5693 7.9661 16.7258 8.00665 16.9975ZM14.8755 15.9665C14.193 16.1849 13.4636 16.7153 13.0441 17.2956C12.6053 17.878 12.355 18.7522 12.3932 19.5041C12.4145 19.7331 12.5753 19.8524 12.8118 19.8193C13.555 19.6595 14.3291 19.1408 14.7231 18.4998C15.133 17.8832 15.393 17.0068 15.3313 16.2796C15.3271 15.9983 15.145 15.8769 14.8755 15.9665ZM12.8341 13.2243C12.2538 13.6928 11.782 14.4786 11.6477 15.2017C11.6125 15.4189 11.7339 15.5851 11.9587 15.6011C12.719 15.6393 13.5932 15.3207 14.1501 14.8225C14.7048 14.3422 15.1841 13.5447 15.3323 12.8291C15.3653 12.565 15.2205 12.3892 14.9605 12.3988C14.2237 12.4426 13.3729 12.76 12.8341 13.2243ZM8.03313 11.6554C7.94805 12.3784 8.13766 13.274 8.52743 13.915C8.89586 14.5773 9.62735 15.1492 10.3471 15.3325C10.5644 15.3986 10.7519 15.2793 10.7795 15.0428C10.8625 14.3411 10.6612 13.4455 10.2693 12.8087C9.88375 12.1996 9.17992 11.6202 8.51664 11.3657C8.26422 11.2623 8.06078 11.372 8.03313 11.6554ZM13.4955 9.2488C12.798 9.49161 12.0791 10.0506 11.6957 10.6895C11.5689 10.8833 11.6413 11.0868 11.8502 11.1826C12.5455 11.4817 13.4666 11.4922 14.1705 11.2079C14.8776 10.9375 15.606 10.3454 15.9585 9.71192C16.0991 9.49466 16.0246 9.29122 15.7647 9.20497C15.0693 8.99638 14.162 9.00388 13.4955 9.2488ZM9.52211 6.12997C9.19 6.7956 9.06227 7.70286 9.1975 8.4163C9.33274 9.167 9.81719 9.94864 10.4411 10.379C10.6253 10.5196 10.8149 10.461 10.9342 10.2479C11.2642 9.60903 11.3823 8.70176 11.2237 7.98294C11.0725 7.26739 10.6019 6.48786 10.0759 6.00857C9.88211 5.8445 9.65313 5.89349 9.52211 6.12997ZM15.644 5.84005C14.9209 5.97528 14.1297 6.44802 13.6792 7.02083C13.5386 7.19122 13.5759 7.39465 13.7655 7.52567C14.4098 7.91848 15.3266 8.05254 16.0539 7.85239C16.7769 7.69372 17.5682 7.21137 18.0283 6.662C18.2041 6.44684 18.1572 6.22958 17.909 6.11989C17.2626 5.81333 16.367 5.69521 15.644 5.84005ZM12.1574 2.18005C11.7316 2.79669 11.4761 3.69013 11.523 4.40778C11.5347 5.15637 11.9095 5.99872 12.4609 6.527C12.6409 6.69317 12.8465 6.66762 12.9796 6.47801C13.3959 5.86348 13.6492 4.97426 13.5864 4.25872C13.5374 3.55278 13.1978 2.72005 12.723 2.15661C12.5312 1.94568 12.314 1.967 12.1574 2.18005ZM18.3098 1.00489C17.5963 1.10403 16.7828 1.52263 16.2653 2.02841C15.7499 2.5363 15.3548 3.37864 15.2812 4.09208C15.2599 4.33067 15.3909 4.47551 15.6294 4.4659C16.3823 4.44129 17.2171 4.05364 17.7325 3.47966C18.2266 2.96216 18.6238 2.13692 18.7209 1.40005C18.7401 1.1263 18.5931 0.969738 18.3098 1.00489Z" fill="black"/>
</svg>
