<svg width="28" height="28" viewBox="0 0 28 28" fill="none" xmlns="http://www.w3.org/2000/svg">
<path d="M14.105 26.21C20.7369 26.21 26.2121 20.7273 26.2121 14.105C26.2121 7.47312 20.7273 2 14.0954 2C7.47523 2 2 7.47312 2 14.105C2 20.7273 7.48484 26.21 14.105 26.21ZM14.105 23.8255C8.71085 23.8255 4.39412 19.4991 4.39412 14.105C4.39412 8.71085 8.70124 4.38452 14.0954 4.38452C19.4895 4.38452 23.8276 8.71085 23.8276 14.105C23.8276 19.4991 19.4991 23.8255 14.105 23.8255Z" fill="black"/>
<path d="M9.87457 13.6766C9.87457 13.2985 9.54973 13.0025 9.14074 13.0025H7.74082C7.33605 13.0025 7.0166 13.3081 7.0166 13.6766C7.0166 14.0429 7.33605 14.3602 7.74082 14.3602H9.14074C9.55934 14.3602 9.87457 14.0621 9.87457 13.6766ZM11.1107 10.9075C11.3886 10.637 11.3694 10.2025 11.0797 9.92238L10.0722 8.9148C9.77285 8.60589 9.34582 8.62511 9.08707 8.88175C8.82082 9.15011 8.82832 9.57175 9.12762 9.88066L10.1256 10.8765C10.4153 11.1545 10.8402 11.1854 11.1107 10.9075ZM14.0955 9.3491C14.4714 9.3491 14.7792 9.01042 14.7792 8.61527V7.21534C14.7792 6.79464 14.4618 6.48901 14.0955 6.48901C13.727 6.48901 13.4214 6.79464 13.4214 7.21534V8.61527C13.4214 9.02003 13.7174 9.3491 14.0955 9.3491ZM17.092 10.9075C17.3603 11.1758 17.7853 11.1641 18.077 10.8765L19.0654 9.88066C19.3647 9.57175 19.3722 9.15972 19.1135 8.88175C18.8472 8.6155 18.4085 8.6155 18.1188 8.9148L17.1133 9.92238C16.814 10.2142 16.814 10.637 17.092 10.9075ZM18.3185 13.6766C18.3185 14.0525 18.6475 14.3602 19.0523 14.3602H20.4618C20.8687 14.3602 21.1764 14.0525 21.1764 13.6766C21.1764 13.3081 20.8687 13.0025 20.4618 13.0025H19.0523C18.6475 13.0025 18.3185 13.2985 18.3185 13.6766ZM10.8531 14.8775H17.3378C17.4424 14.5672 17.5117 14.2196 17.5117 13.888C17.5117 12.0158 15.9656 10.4643 14.0955 10.4643C12.2371 10.4643 10.6813 12.0158 10.6813 13.888C10.6813 14.2196 10.7486 14.5672 10.8531 14.8775ZM7.76074 17.1495H20.4419C20.8314 17.1495 21.1764 16.8345 21.1764 16.4396C21.1764 16.0372 20.841 15.7414 20.4419 15.7414H7.76074C7.35949 15.7414 7.0166 16.051 7.0166 16.4396C7.0166 16.8303 7.37121 17.1495 7.76074 17.1495ZM8.45449 19.2587C8.78566 19.2587 9.04652 18.9882 9.04652 18.6666C9.04652 18.3451 8.78566 18.0746 8.45449 18.0746C8.13293 18.0746 7.87418 18.3451 7.87418 18.6666C7.87418 18.9882 8.13293 19.2587 8.45449 19.2587ZM11.2888 19.2587C11.6104 19.2587 11.8808 18.9882 11.8808 18.6666C11.8808 18.3451 11.6104 18.0746 11.2888 18.0746C10.9672 18.0746 10.6968 18.3451 10.6968 18.6666C10.6968 18.9882 10.9672 19.2587 11.2888 19.2587ZM14.1093 19.2587C14.4384 19.2587 14.6992 18.9882 14.6992 18.6666C14.6992 18.3451 14.4384 18.0746 14.1093 18.0746C13.7878 18.0746 13.5269 18.3451 13.5269 18.6666C13.5269 18.9882 13.7878 19.2587 14.1093 19.2587ZM16.9415 19.2587C17.2631 19.2587 17.5239 18.9882 17.5239 18.6666C17.5239 18.3451 17.2631 18.0746 16.9415 18.0746C16.6199 18.0746 16.3516 18.3451 16.3516 18.6666C16.3516 18.9882 16.6199 19.2587 16.9415 19.2587ZM19.762 19.2587C20.0835 19.2587 20.354 18.9882 20.354 18.6666C20.354 18.3451 20.0835 18.0746 19.762 18.0746C19.4404 18.0746 19.1699 18.3451 19.1699 18.6666C19.1699 18.9882 19.4404 19.2587 19.762 19.2587ZM9.86309 20.8501C10.1943 20.8501 10.4551 20.5892 10.4551 20.2677C10.4551 19.9461 10.1943 19.6777 9.86309 19.6777C9.54153 19.6777 9.28067 19.9461 9.28067 20.2677C9.28067 20.5892 9.54153 20.8501 9.86309 20.8501ZM12.6974 20.8501C13.019 20.8501 13.2895 20.5892 13.2895 20.2677C13.2895 19.9461 13.019 19.6777 12.6974 19.6777C12.3759 19.6777 12.1054 19.9461 12.1054 20.2677C12.1054 20.5892 12.3759 20.8501 12.6974 20.8501ZM15.5158 20.8501C15.847 20.8501 16.1078 20.5892 16.1078 20.2677C16.1078 19.9461 15.847 19.6777 15.5158 19.6777C15.1963 19.6777 14.9355 19.9461 14.9355 20.2677C14.9355 20.5892 15.1963 20.8501 15.5158 20.8501ZM18.3459 20.8501C18.6674 20.8501 18.9283 20.5892 18.9283 20.2677C18.9283 19.9461 18.6674 19.6777 18.3459 19.6777C18.0147 19.6777 17.7538 19.9461 17.7538 20.2677C17.7538 20.5892 18.0147 20.8501 18.3459 20.8501Z" fill="black"/>
</svg>
