<svg width="28" height="28" viewBox="0 0 28 28" fill="none" xmlns="http://www.w3.org/2000/svg">
<path d="M13.3923 25.6767C19.698 25.6767 23.9031 21.4235 23.9031 15.0239C23.9031 4.42804 14.8448 0 8.59913 0C7.39843 0 6.61516 0.449997 6.61516 1.30124C6.61516 1.63218 6.76094 1.97905 7.02601 2.28561C8.47328 4.0235 9.80875 5.9196 9.82797 8.17335C9.82797 8.62265 9.77992 9.01969 9.4682 9.5768L10.0098 9.45539C9.38969 7.63782 8.06453 6.5625 6.8814 6.5625C6.33133 6.5625 5.9568 6.94992 5.9568 7.55742C5.9568 7.91906 6.04094 8.56851 6.04094 9.14109C6.04094 11.823 4 13.2105 4 17.5317C4 22.4217 7.7439 25.6767 13.3923 25.6767ZM13.5159 23.707C9.00436 23.707 5.98139 21.222 5.98139 17.5317C5.98139 13.8335 7.99022 12.6466 7.98601 9.32343C7.98601 8.90648 7.90069 8.52796 7.81421 8.19749L7.44765 8.57765C8.35164 9.26155 8.9657 10.3931 9.30906 11.9269C9.36437 12.2383 9.54718 12.4062 9.79679 12.4062C10.8662 12.4062 11.5881 9.97475 11.5881 8.29242C11.5881 5.64984 10.4617 3.09726 8.62772 1.36382L8.19108 1.87171C16.4713 2.10655 21.8493 7.57616 21.8493 14.9611C21.8493 20.1907 18.5099 23.707 13.5159 23.707ZM13.6787 22.0695C16.3855 22.0695 17.7723 20.103 17.7723 17.7848C17.7723 15.4617 16.4301 12.9703 13.9164 11.8139C13.7751 11.764 13.6605 11.8437 13.6848 11.9955C13.8946 13.8119 13.6649 15.492 13.0649 16.3905C12.7888 15.6919 12.4478 15.1144 11.9341 14.6444C11.8162 14.5404 11.7016 14.603 11.6802 14.738C11.4991 16.1297 10.0743 16.811 10.0743 18.8292C10.0743 20.7684 11.5105 22.0695 13.6787 22.0695Z" fill="black"/>
</svg>
