<svg width="28" height="28" viewBox="0 0 28 28" fill="none" xmlns="http://www.w3.org/2000/svg">
<path d="M6.03351 23.991L7.54429 21.3699C7.77749 20.9931 7.65819 20.545 7.27921 20.3192C6.89812 20.1032 6.47015 20.2234 6.23273 20.6162L4.71234 23.2564C4.49835 23.612 4.60382 24.0601 4.99452 24.2858C5.36601 24.5019 5.81952 24.3561 6.03351 23.991ZM9.71202 27.2818L11.2207 24.6704C11.4443 24.2839 11.3367 23.8337 10.9556 23.6176C10.5649 23.3919 10.1369 23.5217 9.90913 23.9146L8.38874 26.5473C8.17476 26.9125 8.28023 27.3585 8.66132 27.5746C9.04241 27.7907 9.49804 27.6566 9.71202 27.2818ZM15.3637 23.9814L16.8724 21.3603C17.096 20.9835 16.9788 20.5353 16.5977 20.3075C16.2166 20.0914 15.7886 20.2138 15.5608 20.6066L14.0404 23.2468C13.8286 23.6024 13.9244 24.0484 14.313 24.2762C14.6941 24.4923 15.1497 24.3465 15.3637 23.9814ZM19.0401 27.2701L20.5488 24.6608C20.7724 24.2743 20.6552 23.8241 20.2741 23.608C19.893 23.3823 19.4672 23.5121 19.2372 23.9049L17.7093 26.5356C17.505 26.9028 17.6008 27.3489 17.9915 27.5649C18.3726 27.781 18.8261 27.647 19.0401 27.2701Z" fill="black"/>
<path d="M5.67866 18.3422H20.2786C24.2004 18.3422 27.1336 15.3609 27.1336 11.6503C27.1336 7.82971 24.0593 4.99589 20.0318 4.99589C18.5923 2.16464 15.9178 0.250732 12.3666 0.250732C7.87593 0.250732 4.23257 3.70565 3.79101 8.06597C1.63828 8.72503 0 10.5987 0 13.124C0 16.0279 2.12531 18.3422 5.67866 18.3422Z" fill="black"/>
</svg>
