<svg width="28" height="28" viewBox="0 0 28 28" fill="none" xmlns="http://www.w3.org/2000/svg">
<path d="M14.105 26.2301C20.7369 26.2301 26.2121 20.7549 26.2121 14.123C26.2121 7.50291 20.7273 2.01807 14.0954 2.01807C7.47523 2.01807 2 7.50291 2 14.123C2 20.7549 7.48484 26.2301 14.105 26.2301Z" fill="black"/>
<path d="M10.2964 15.8248C8.59059 15.8248 7.57129 14.7137 7.57129 13.3332C7.57129 12.1313 8.34075 11.2257 9.39215 10.9116C9.61036 8.76896 11.3876 7.12341 13.5302 7.12341C15.1891 7.12341 16.4934 8.01029 17.2233 9.42099C19.1613 9.42099 20.6477 10.7675 20.6477 12.6148C20.6477 14.4057 19.2148 15.8248 17.3524 15.8248H10.2964ZM9.93285 20.4284C9.69754 20.4284 9.5677 20.24 9.58575 20.0239L9.62184 19.3365L9.04199 19.7499C8.86739 19.8584 8.61285 19.8233 8.52028 19.6294C8.4352 19.4581 8.47762 19.2228 8.70871 19.1195L9.32465 18.822L8.71082 18.5171C8.48723 18.4095 8.4352 18.1667 8.5395 18.0092C8.62996 17.8229 8.87699 17.7973 9.04199 17.9037L9.62184 18.3193L9.57403 17.6202C9.55809 17.4083 9.69754 17.2135 9.93285 17.2135C10.1372 17.2135 10.2863 17.4083 10.2661 17.6298L10.2183 18.3193L10.7853 17.908C10.9482 17.7973 11.2123 17.8325 11.3028 18.0092C11.4092 18.1955 11.3475 18.4116 11.1261 18.5075L10.5005 18.8241L11.1239 19.1173C11.3571 19.2111 11.4284 19.4773 11.2932 19.6369C11.1931 19.8137 10.9524 19.8584 10.7853 19.7499L10.2183 19.3344L10.2661 20.0239C10.2863 20.24 10.1372 20.4284 9.93285 20.4284ZM13.8602 20.4284C13.6366 20.4284 13.4876 20.24 13.5056 20.0239L13.5492 19.3365L12.9694 19.7499C12.8044 19.8584 12.5498 19.8233 12.4594 19.6294C12.3626 19.4581 12.4071 19.2228 12.6361 19.1195L13.2638 18.822L12.6382 18.5171C12.4167 18.4095 12.3626 18.1667 12.4786 18.0092C12.567 17.8229 12.814 17.7973 12.9694 17.9037L13.5492 18.3193L13.496 17.6202C13.478 17.4083 13.6366 17.2135 13.8602 17.2135C14.0742 17.2135 14.2137 17.4083 14.1935 17.6298L14.1478 18.3193L14.7127 17.908C14.8852 17.7973 15.1514 17.8325 15.2398 18.0092C15.3366 18.1955 15.2749 18.4116 15.0534 18.5075L14.4375 18.8241L15.0513 19.1173C15.2845 19.2111 15.3558 19.4773 15.2302 19.6369C15.1322 19.8137 14.8798 19.8584 14.7127 19.7499L14.1478 19.3344L14.1935 20.0239C14.2137 20.24 14.0742 20.4284 13.8602 20.4284ZM17.7877 20.4284C17.5641 20.4284 17.4225 20.24 17.4427 20.0239L17.4884 19.3365L16.8968 19.7499C16.7318 19.8584 16.4794 19.8233 16.3868 19.6294C16.3017 19.4581 16.3441 19.2228 16.5635 19.1195L17.1933 18.822L16.5656 18.5171C16.3441 18.4095 16.3017 18.1667 16.3964 18.0092C16.4965 17.8229 16.7414 17.7973 16.8968 17.9037L17.4884 18.3193L17.4331 17.6202C17.4129 17.4083 17.5641 17.2135 17.7877 17.2135C18.0038 17.2135 18.1549 17.4083 18.1327 17.6298L18.0752 18.3193L18.6497 17.908C18.8126 17.7973 19.0692 17.8325 19.1714 18.0092C19.264 18.1955 19.2045 18.4116 18.9905 18.5075L18.367 18.8241L18.9884 19.1173C19.2141 19.2111 19.2736 19.4773 19.1597 19.6369C19.0596 19.8137 18.8093 19.8563 18.6497 19.7499L18.0752 19.3344L18.1327 20.0239C18.1549 20.24 18.0038 20.4284 17.7877 20.4284Z" fill="white"/>
</svg>
