<svg width="28" height="28" viewBox="0 0 28 28" fill="none" xmlns="http://www.w3.org/2000/svg">
<path d="M14.105 26.21C20.7369 26.21 26.2121 20.7273 26.2121 14.105C26.2121 7.47312 20.7273 2 14.0954 2C7.47523 2 2 7.47312 2 14.105C2 20.7273 7.48484 26.21 14.105 26.21ZM14.105 23.8255C8.71085 23.8255 4.39412 19.4991 4.39412 14.105C4.39412 8.71085 8.70124 4.38452 14.0954 4.38452C19.4895 4.38452 23.8276 8.71085 23.8276 14.105C23.8276 19.4991 19.4991 23.8255 14.105 23.8255Z" fill="black"/>
<path d="M10.4374 15.5349H17.2383C19.0294 15.5349 20.4049 14.154 20.4049 12.444C20.4049 10.6679 18.9759 9.35958 17.1091 9.35958C16.4091 8.00419 15.1463 7.15247 13.5544 7.15247C11.4871 7.15247 9.78113 8.74482 9.56504 10.8024C8.55723 11.1101 7.81543 11.9785 7.81543 13.1347C7.81543 14.4694 8.79113 15.5349 10.4374 15.5349ZM11.1539 18.5642L11.8157 17.4153C11.9585 17.1746 11.8785 16.8188 11.6144 16.674C11.3503 16.5195 11.0137 16.625 10.871 16.8753L10.2091 18.0125C10.0664 18.2628 10.1484 18.6186 10.4125 18.7655C10.6767 18.92 11.0132 18.8145 11.1539 18.5642ZM14.2552 18.5684L14.917 17.4195C15.0598 17.1788 14.9895 16.823 14.7157 16.6782C14.4612 16.5237 14.115 16.6292 13.9819 16.8795L13.32 18.0188C13.1773 18.2691 13.2497 18.6249 13.5234 18.7698C13.7759 18.9242 14.122 18.8187 14.2552 18.5684ZM17.3564 18.5642L18.0183 17.4153C18.161 17.1746 18.0886 16.8188 17.817 16.674C17.5507 16.5195 17.2141 16.625 17.0735 16.8753L16.4116 18.0125C16.2689 18.2628 16.3488 18.6186 16.6151 18.7655C16.8771 18.92 17.2137 18.8145 17.3564 18.5642ZM9.75207 20.8571C10.1739 20.8571 10.5234 20.498 10.5234 20.072C10.5234 19.6522 10.1739 19.3006 9.75207 19.3006C9.31847 19.3006 8.96691 19.6522 8.96691 20.072C8.96691 20.498 9.31847 20.8571 9.75207 20.8571ZM12.8534 20.8634C13.2848 20.8634 13.6343 20.5023 13.6343 20.0783C13.6343 19.6564 13.2848 19.3048 12.8534 19.3048C12.4273 19.3048 12.0778 19.6564 12.0778 20.0783C12.0778 20.5023 12.4273 20.8634 12.8534 20.8634ZM15.9525 20.8571C16.3744 20.8571 16.7356 20.498 16.7356 20.072C16.7356 19.6522 16.3744 19.3006 15.9525 19.3006C15.5285 19.3006 15.1695 19.6522 15.1695 20.072C15.1695 20.498 15.5285 20.8571 15.9525 20.8571Z" fill="black"/>
</svg>
