<svg width="28" height="28" viewBox="0 0 28 28" fill="none" xmlns="http://www.w3.org/2000/svg">
<path d="M14.105 26.21C20.7369 26.21 26.2121 20.7273 26.2121 14.105C26.2121 7.47312 20.7273 2 14.0954 2C7.47523 2 2 7.47312 2 14.105C2 20.7273 7.48484 26.21 14.105 26.21ZM14.105 23.8255C8.71085 23.8255 4.39412 19.4991 4.39412 14.105C4.39412 8.71085 8.70124 4.38452 14.0954 4.38452C19.4895 4.38452 23.8276 8.71085 23.8276 14.105C23.8276 19.4991 19.4991 23.8255 14.105 23.8255Z" fill="black"/>
<path d="M8.93423 18.8591H15.0338C16.6641 18.8591 17.9077 17.6284 17.9077 16.013C17.9077 14.4139 16.6536 13.2174 14.9445 13.1769C14.3178 11.998 13.1785 11.2194 11.7268 11.2194C9.86118 11.2194 8.30235 12.6505 8.09563 14.4746C7.16868 14.7868 6.5293 15.6083 6.5293 16.6365C6.5293 17.9288 7.50641 18.8591 8.93423 18.8591ZM21.8112 12.8705C21.8112 12.6404 21.7175 12.4838 21.5321 12.4838C21.2487 12.4838 20.8215 12.8344 20.0393 12.8344C18.6549 12.8387 17.7809 12.0127 17.7809 10.7413C17.7809 9.97627 18.1775 9.42643 18.1775 9.11963C18.1775 8.94174 18.0411 8.82666 17.8205 8.82666C16.7131 8.87682 15.2504 10.191 15.0586 11.8787C15.2002 12.0298 15.3237 12.2002 15.4472 12.3706C17.2278 12.5933 18.5597 13.9114 18.7289 15.6259C20.6485 15.4004 21.8112 13.8636 21.8112 12.8705Z" fill="black"/>
</svg>
