<svg width="28" height="28" viewBox="0 0 28 28" fill="none" xmlns="http://www.w3.org/2000/svg">
<path d="M14.105 26.21C20.7369 26.21 26.2121 20.7273 26.2121 14.105C26.2121 7.47312 20.7273 2 14.0954 2C7.47523 2 2 7.47312 2 14.105C2 20.7273 7.48484 26.21 14.105 26.21ZM14.105 23.8255C8.71085 23.8255 4.39412 19.4991 4.39412 14.105C4.39412 8.71085 8.70124 4.38452 14.0954 4.38452C19.4895 4.38452 23.8276 8.71085 23.8276 14.105C23.8276 19.4991 19.4991 23.8255 14.105 23.8255Z" fill="black"/>
<path d="M10.5163 15.5428H17.3076C19.1083 15.5428 20.4742 14.1714 20.4742 12.4518C20.4742 10.6757 19.0431 9.37701 17.1784 9.37701C16.4858 8.02372 15.2251 7.16028 13.6333 7.16028C11.5565 7.16028 9.85798 8.75263 9.64399 10.8102C8.63618 11.1179 7.88477 11.9863 7.88477 13.1425C7.88477 14.4773 8.87008 15.5428 10.5163 15.5428ZM10.1209 17.9931H18.0918C18.3911 17.9931 18.6414 17.7524 18.6414 17.4435C18.6414 17.1442 18.3911 16.9035 18.0918 16.9035H10.1209C9.82165 16.9035 9.58095 17.1442 9.58095 17.4435C9.58095 17.7524 9.82165 17.9931 10.1209 17.9931ZM10.1209 20.3256H18.0918C18.3911 20.3256 18.6414 20.0849 18.6414 19.7835C18.6414 19.4842 18.3911 19.2435 18.0918 19.2435H10.1209C9.82165 19.2435 9.58095 19.4842 9.58095 19.7835C9.58095 20.0849 9.82165 20.3256 10.1209 20.3256Z" fill="black"/>
</svg>
