<svg width="28" height="28" viewBox="0 0 28 28" fill="none" xmlns="http://www.w3.org/2000/svg">
<path d="M6.03351 24.0264L7.54429 21.4054C7.77749 21.0285 7.65819 20.5804 7.27921 20.3547C6.89812 20.1386 6.47015 20.2588 6.23273 20.6516L4.71234 23.2919C4.49835 23.6474 4.60382 24.0955 4.99452 24.3212C5.36601 24.5373 5.81952 24.3915 6.03351 24.0264ZM8.7703 27.3599L12.2125 21.3936C12.4265 21.0168 12.3286 20.5783 11.9571 20.3622C11.5856 20.1344 11.1267 20.2588 10.9106 20.6474L7.48757 26.5965C7.27359 26.9713 7.36945 27.4194 7.75054 27.6451C8.12202 27.8612 8.55632 27.7272 8.7703 27.3599ZM15.3637 24.0168L16.8724 21.3958C17.096 21.0189 16.9788 20.5708 16.5977 20.3429C16.2166 20.1269 15.7886 20.2492 15.5608 20.642L14.0404 23.2822C13.8286 23.6378 13.9244 24.0838 14.313 24.3116C14.6941 24.5277 15.1497 24.3819 15.3637 24.0168ZM18.0888 27.3503L21.5428 21.3819C21.7546 21.0072 21.6471 20.5686 21.2777 20.3504C20.9158 20.1247 20.4665 20.2492 20.2408 20.6378L16.8061 26.5869C16.5942 26.9617 16.6997 27.4098 17.0711 27.6355C17.4405 27.8516 17.8748 27.7251 18.0888 27.3503Z" fill="black"/>
<path d="M5.67866 18.3775H20.2786C24.2004 18.3775 27.1336 15.3962 27.1336 11.6856C27.1336 7.86512 24.0593 5.03128 20.0318 5.03128C18.5923 2.20003 15.9178 0.286133 12.3666 0.286133C7.87593 0.286133 4.23257 3.74106 3.79101 8.10137C1.63828 8.76043 0 10.634 0 13.1594C0 16.0633 2.12531 18.3775 5.67866 18.3775Z" fill="black"/>
</svg>
