<svg width="28" height="28" viewBox="0 0 28 28" fill="none" xmlns="http://www.w3.org/2000/svg">
<path d="M14.105 26.21C20.7369 26.21 26.2121 20.7273 26.2121 14.105C26.2121 7.47312 20.7273 2 14.0954 2C7.47523 2 2 7.47312 2 14.105C2 20.7273 7.48484 26.21 14.105 26.21ZM14.105 23.8255C8.71085 23.8255 4.39412 19.4991 4.39412 14.105C4.39412 8.71085 8.70124 4.38452 14.0954 4.38452C19.4895 4.38452 23.8276 8.71085 23.8276 14.105C23.8276 19.4991 19.4991 23.8255 14.105 23.8255Z" fill="black"/>
<path d="M9.87457 13.7054C9.87457 13.3273 9.54973 13.0217 9.14074 13.0217H7.74082C7.33605 13.0217 7.0166 13.337 7.0166 13.7054C7.0166 14.0717 7.33605 14.3795 7.74082 14.3795H9.14074C9.55934 14.3795 9.87457 14.0813 9.87457 13.7054ZM11.1107 10.9363C11.3886 10.6658 11.3694 10.2313 11.0797 9.94158L10.0722 8.934C9.77285 8.6347 9.34582 8.65392 9.08707 8.91056C8.82082 9.17892 8.82832 9.60056 9.12762 9.89986L10.1256 10.8957C10.4153 11.1833 10.8402 11.2046 11.1107 10.9363ZM14.0955 9.3779C14.4714 9.3779 14.7792 9.03923 14.7792 8.64408V7.23454C14.7792 6.82345 14.4618 6.51782 14.0955 6.51782C13.727 6.51782 13.4214 6.82345 13.4214 7.23454V8.64408C13.4214 9.04884 13.7174 9.3779 14.0955 9.3779ZM17.092 10.9363C17.3603 11.195 17.7853 11.1929 18.077 10.8957L19.0654 9.89986C19.3647 9.60056 19.3722 9.18853 19.1135 8.91056C18.8472 8.64431 18.4085 8.64431 18.1188 8.934L17.1133 9.94158C16.814 10.243 16.814 10.6658 17.092 10.9363ZM18.3185 13.7054C18.3185 14.0813 18.6475 14.3795 19.0523 14.3795H20.4618C20.8687 14.3795 21.1764 14.0717 21.1764 13.7054C21.1764 13.337 20.8687 13.0217 20.4618 13.0217H19.0523C18.6475 13.0217 18.3185 13.3273 18.3185 13.7054ZM10.8531 14.9063H17.3378C17.4424 14.596 17.5117 14.2484 17.5117 13.9168C17.5117 12.0446 15.9656 10.4931 14.0955 10.4931C12.2371 10.4931 10.6813 12.0446 10.6813 13.9168C10.6813 14.2484 10.7486 14.596 10.8531 14.9063ZM8.42496 16.6538H20.5279C20.7771 16.6538 20.9697 16.4612 20.9697 16.212C20.9697 15.9512 20.7771 15.7606 20.5279 15.7606H8.42496C8.17582 15.7606 7.98317 15.9608 7.98317 16.212C7.98317 16.4612 8.17582 16.6538 8.42496 16.6538ZM7.67471 18.3141H19.766C20.0172 18.3141 20.2078 18.1236 20.2078 17.8723C20.2078 17.6136 20.0172 17.4209 19.766 17.4209H7.67471C7.42347 17.4209 7.22331 17.6232 7.22331 17.8723C7.22331 18.1236 7.42347 18.3141 7.67471 18.3141ZM8.42496 19.9766H20.5279C20.7771 19.9766 20.9697 19.786 20.9697 19.5348C20.9697 19.276 20.7771 19.0834 20.5279 19.0834H8.42496C8.17582 19.0834 7.98317 19.2856 7.98317 19.5348C7.98317 19.786 8.17582 19.9766 8.42496 19.9766Z" fill="black"/>
</svg>
