<svg width="28" height="29" viewBox="0 0 28 29" fill="none" xmlns="http://www.w3.org/2000/svg">
<path d="M13.9981 28.4707C17.3799 28.4707 20.3166 24.8449 20.3166 20.9454C20.3166 20.4194 20.2301 19.9746 20.0529 19.6066C20.3527 19.6877 20.6525 19.7634 20.9405 19.8466C21.7238 20.0777 21.9476 20.4068 21.8443 21.1078L21.0036 26.6177C20.8854 27.3679 21.3504 27.8128 21.9645 27.8128C22.6083 27.8128 22.8999 27.4169 23.0042 26.7635L23.9546 20.7258C24.192 19.2492 23.5915 18.438 21.9734 18.0654L16.665 16.8433L16.6554 16.7219C17.1256 16.4948 17.4486 16.0608 17.6072 15.5798L21.2745 15.1001C22.849 14.9072 23.5622 13.9898 23.5622 12.4303V8.41147C23.5622 7.77187 23.1898 7.40367 22.5619 7.40367C21.9298 7.40367 21.5658 7.78148 21.5658 8.41147V12.0164C21.5658 12.9054 21.0825 13.1918 20.2786 13.2909L17.7047 13.6205C17.5716 13.2635 17.3393 12.9417 17.025 12.735V12.6136C19.0627 12.2557 20.1739 11.0201 20.1739 9.20929C20.1739 7.76202 19.6535 6.43311 18.8007 5.39319L18.9504 5.28374C20.1567 4.42124 20.3803 3.16781 19.6041 1.77422L18.9253 0.63117C18.6837 0.190546 18.4006 0 17.9993 0C17.4671 0 17.0796 0.38742 17.0796 0.886637C17.0796 1.11656 17.1127 1.24429 17.25 1.49343L17.8341 2.40445C18.2007 3.01171 18.1817 3.55804 17.6864 3.9757C17.6225 4.03007 17.566 4.07695 17.4999 4.1196C16.5019 3.43172 15.2921 3.0239 13.9981 3.0239C12.7233 3.0239 11.521 3.43172 10.5347 4.11C10.4686 4.07695 10.4025 4.02046 10.3461 3.96609C9.86254 3.55804 9.83184 3.01171 10.2101 2.40445L10.7942 1.49343C10.9315 1.24429 10.9646 1.11656 10.9646 0.886637C10.9646 0.38742 10.5675 0 10.0428 0C9.64364 0 9.36052 0.190546 9.11677 0.63117L8.44013 1.77422C7.66388 3.16781 7.88747 4.42124 9.0938 5.28374L9.22223 5.37397C8.35973 6.4139 7.8202 7.75241 7.8202 9.20929C7.8202 11.0201 8.94309 12.2557 10.9786 12.6136V12.735C10.6547 12.9417 10.4321 13.2635 10.3011 13.6205L7.72503 13.2909C6.91152 13.1918 6.43785 12.9054 6.43785 12.0164V8.41147C6.43785 7.78148 6.07387 7.40367 5.44176 7.40367C4.81387 7.40367 4.44145 7.77187 4.44145 8.41147V12.4303C4.44145 13.9898 5.15676 14.9072 6.72918 15.1001L10.3964 15.5798C10.5572 16.0608 10.8706 16.4948 11.3482 16.7219V16.8433L6.03027 18.0654C4.40254 18.438 3.81169 19.2492 4.05122 20.7258L4.9995 26.7635C5.09419 27.4169 5.39536 27.8128 6.03918 27.8128C6.65324 27.8128 7.11824 27.3679 7.00011 26.6177L6.16152 21.1078C6.04644 20.4026 6.2841 20.0756 7.07371 19.8445C7.35965 19.7613 7.65309 19.6877 7.94114 19.6066C7.77567 19.9746 7.68707 20.4194 7.68707 20.9454C7.68707 24.8449 10.628 28.4707 13.9981 28.4707Z" fill="black"/>
</svg>
