<svg width="28" height="28" viewBox="0 0 28 28" fill="none" xmlns="http://www.w3.org/2000/svg">
<path d="M9.41694 27.0989C12.9417 27.0989 15.7966 24.2555 15.7966 20.7286C15.7966 18.9073 15.0658 17.3191 13.6638 16.0324C13.4219 15.8098 13.3676 15.6755 13.3676 15.3324L13.3772 4.99384C13.3772 2.43986 11.7633 0.699158 9.41694 0.699158C7.04086 0.699158 5.42156 2.43986 5.42156 4.99384L5.43117 15.3324C5.43117 15.6755 5.38641 15.8119 5.13492 16.0324C3.73406 17.3086 3 18.9073 3 20.7286C3 24.2555 5.86664 27.0989 9.41694 27.0989ZM9.41694 25.0959C6.98249 25.0959 5.02639 23.1185 5.02639 20.7033C5.02639 19.2195 5.72202 17.9206 6.95788 17.0948C7.31905 16.853 7.45757 16.6388 7.45757 16.1604V5.06626C7.45757 3.66634 8.25561 2.72344 9.41694 2.72344C10.5506 2.72344 11.3487 3.66634 11.3487 5.06626V16.1604C11.3487 16.6388 11.4893 16.853 11.8483 17.0948C13.0842 17.9206 13.7819 19.2195 13.7819 20.7033C13.7819 23.1185 11.8162 25.0959 9.41694 25.0959Z" fill="black"/>
<path d="M9.40308 23.5139C10.9586 23.5139 12.2116 22.2609 12.2116 20.6937C12.2116 19.6048 11.5968 18.7109 10.7029 18.225C10.3321 18.0258 10.2032 17.8852 10.2032 17.3173V14.9145C10.2032 14.352 9.84418 13.9908 9.40308 13.9908C8.95449 13.9908 8.60293 14.352 8.60293 14.9145V17.3173C8.60293 17.8852 8.47613 18.0258 8.10324 18.225C7.21144 18.7109 6.59668 19.6048 6.59668 20.6937C6.59668 22.2609 7.84965 23.5139 9.40308 23.5139Z" fill="black"/>
<path d="M24.8606 12.3321L23.3491 11.4687L24.689 10.6969C25.0148 10.5106 25.132 10.1337 24.9574 9.82383C24.769 9.48844 24.3867 9.42891 24.0375 9.63118L22.079 10.7468L18.7493 8.86547L22.1142 6.97031L24.0705 8.09766C24.408 8.29359 24.7849 8.22867 24.9947 7.905C25.1618 7.58977 25.0383 7.20867 24.7221 7.02985L23.3864 6.26016L24.8723 5.42016C25.2588 5.19656 25.394 4.80375 25.1801 4.4386C24.9895 4.08727 24.5615 4.00641 24.2219 4.20656L22.7168 5.08805V3.55945C22.7168 3.17719 22.4517 2.89078 22.1025 2.88867C21.7064 2.88656 21.4647 3.17719 21.4647 3.59672L21.4509 5.83219L18.1275 7.79227L18.1669 3.90187L20.1094 2.77453C20.4586 2.56265 20.5896 2.20922 20.4054 1.87594C20.2233 1.56398 19.8443 1.48313 19.5185 1.67156L18.1828 2.44547L18.1966 0.763357C18.1987 0.337499 17.9252 0 17.5111 0C17.0894 0 16.8255 0.337499 16.8297 0.763357L16.8436 2.44547L15.5058 1.67156C15.1821 1.48523 14.7956 1.56398 14.6189 1.87594C14.4326 2.20711 14.5636 2.56265 14.9149 2.77453L16.8574 3.90187L16.8968 7.79227L14.82 6.55782V8.03555L16.2654 8.86547L14.82 9.68368L14.8179 11.1689L16.8968 9.93867L16.8574 13.8035L15.1446 14.7884C15.3042 15.1364 15.5962 15.5421 15.8808 15.8133L16.8436 15.262L16.8297 16.9655C16.8255 17.4052 17.0894 17.7288 17.5111 17.7288C17.9252 17.7288 18.1987 17.3934 18.1966 16.9655L18.1828 15.2716L19.511 16.0338C19.8368 16.2202 20.2073 16.1393 20.3958 15.8295C20.5959 15.4983 20.4511 15.1427 20.0997 14.9309L18.1669 13.8035L18.1275 9.93867L21.4275 11.887L21.4296 14.1321C21.4296 14.5165 21.6808 14.8167 22.0673 14.8284C22.4144 14.8327 22.6816 14.5249 22.6816 14.1673L22.6912 12.6312L24.1793 13.5106C24.5604 13.7309 24.9724 13.6608 25.1801 13.3041C25.394 12.9389 25.229 12.5281 24.8606 12.3321Z" fill="black"/>
</svg>
