<svg width="28" height="28" viewBox="0 0 28 28" fill="none" xmlns="http://www.w3.org/2000/svg">
<path d="M9.34585 26.2886C10.543 26.2886 11.4191 26.0052 12.0892 25.724C12.7912 25.4268 13.2974 25.1284 13.922 25.1284C14.5349 25.1284 15.0412 25.4268 15.7527 25.724C16.4228 26.0052 17.2893 26.2886 18.4865 26.2886C21.0979 26.2886 23.064 24.3951 23.064 21.9083C23.064 19.4598 21.651 18.3107 20.4611 17.3615C19.8294 16.8662 19.3124 16.4559 19.0023 15.9484C18.6934 15.4551 18.46 14.9052 18.1675 14.2415C17.3868 12.4361 16.5243 10.6354 13.922 10.6354C11.308 10.6354 10.4573 12.4361 9.67445 14.2319C9.38078 14.8883 9.15484 15.4286 8.86187 15.9102C8.54218 16.424 8.01343 16.8578 7.38085 17.3615C6.19093 18.3107 4.77789 19.4694 4.77789 21.9083C4.77789 24.3951 6.74406 26.2886 9.34585 26.2886ZM9.39647 24.3173C7.87022 24.3173 6.77662 23.3153 6.77662 21.9083C6.77662 19.3222 9.00249 19.487 10.4608 17.0029C11.5567 15.156 11.8862 12.6067 13.922 12.6067C15.9557 12.6067 16.2756 15.156 17.3812 17.0221C18.8394 19.487 21.0653 19.3222 21.0653 21.9083C21.0653 23.3153 19.9717 24.3173 18.4358 24.3173C16.7901 24.3173 15.7469 23.1688 13.922 23.1688C12.0972 23.1688 11.054 24.3173 9.39647 24.3173ZM1 12.4183C1 15.1396 2.28648 16.9609 4.24609 16.9609C6.19609 16.9609 7.5039 15.1396 7.5039 12.4183C7.5039 9.69906 6.19609 7.87773 4.24609 7.87773C2.28648 7.87773 1 9.69906 1 12.4183ZM2.85249 12.4183C2.85249 10.8004 3.40585 9.72178 4.24609 9.72389C5.08844 9.72178 5.65141 10.8004 5.65141 12.4183C5.65141 14.0383 5.08844 15.1169 4.24609 15.1148C3.40585 15.1169 2.85249 14.0383 2.85249 12.4183ZM6.79234 5.53093C6.79234 8.26187 8.08843 10.064 10.0384 10.064C11.998 10.064 13.2962 8.24265 13.2962 5.53093C13.2962 2.81172 11.998 1 10.0384 1C8.08843 1 6.79234 2.81172 6.79234 5.53093ZM8.64483 5.53093C8.64483 3.92265 9.19819 2.84405 10.0384 2.84616C10.8808 2.84405 11.4437 3.92265 11.4437 5.53093C11.4437 7.15094 10.8808 8.21992 10.0384 8.21781C9.19819 8.21992 8.64483 7.15094 8.64483 5.53093ZM14.5712 5.53093C14.5712 8.23421 15.8694 10.064 17.829 10.064C19.7812 10.064 21.0751 8.25976 21.0751 5.53093C21.0751 2.81383 19.7812 1 17.829 1C15.8673 1 14.5712 2.81594 14.5712 5.53093ZM16.428 5.53093C16.428 3.93741 16.9994 2.86093 17.829 2.86093C18.6566 2.86093 19.2163 3.9332 19.2163 5.53093C19.2163 7.14039 18.6566 8.20305 17.829 8.20305C16.9994 8.20305 16.428 7.13617 16.428 5.53093ZM20.3636 12.4183C20.3636 15.1354 21.6714 16.9609 23.6214 16.9609C25.5789 16.9609 26.8675 15.1375 26.8675 12.4183C26.8675 9.70117 25.5789 7.87773 23.6214 7.87773C21.6714 7.87773 20.3636 9.70327 20.3636 12.4183ZM22.2203 12.4183C22.2203 10.813 22.7896 9.73655 23.6214 9.73655C24.449 9.73655 25.0087 10.8067 25.0087 12.4183C25.0087 14.0319 24.449 15.1021 23.6214 15.1021C22.7896 15.1021 22.2203 14.0256 22.2203 12.4183Z" fill="black"/>
</svg>
