<svg width="28" height="28" viewBox="0 0 28 28" fill="none" xmlns="http://www.w3.org/2000/svg">
<path d="M14.105 26.2301C20.7369 26.2301 26.2121 20.7549 26.2121 14.123C26.2121 7.50291 20.7273 2.01807 14.0954 2.01807C7.47523 2.01807 2 7.50291 2 14.123C2 20.7549 7.48484 26.2301 14.105 26.2301Z" fill="black"/>
<path d="M11.0329 19.2992C9.54575 19.2992 8.52645 18.2361 8.52645 16.8535C8.52645 15.5867 9.53028 14.5266 10.8142 14.4556C11.0387 13.2526 12.0721 12.3723 13.3145 12.3723C13.5864 12.3723 13.8219 12.4032 14.0938 12.4843C14.6446 11.6691 15.5652 11.165 16.6063 11.165C18.2216 11.165 19.5299 12.4395 19.6553 14.0101C20.8647 14.2815 21.7567 15.3554 21.7567 16.6255C21.7567 18.1348 20.6148 19.2992 18.954 19.2992H11.0329ZM6.0791 13.4042C6.0791 12.132 6.96153 11.0581 8.19012 10.7846C8.3059 9.20655 9.64301 7.94373 11.2508 7.94373C12.2748 7.94373 13.1753 8.43522 13.7483 9.27592C14.0211 9.1885 14.2726 9.12452 14.5668 9.12452C15.6189 9.12452 16.3251 9.67788 16.5304 10.3065C15.4799 10.3217 14.4695 10.729 13.7509 11.5149C13.6101 11.4957 13.4554 11.4861 13.3145 11.4861C11.859 11.4861 10.6201 12.3866 10.1165 13.6834C9.02239 13.9707 8.1381 14.7983 7.80341 15.8698C6.69153 15.422 6.0791 14.4894 6.0791 13.4042Z" fill="white"/>
</svg>
