<svg width="28" height="28" viewBox="0 0 28 28" fill="none" xmlns="http://www.w3.org/2000/svg">
<path d="M12.6219 25.1455C17.0248 25.1455 20.6677 22.8585 22.3161 19.0353C22.5861 18.4166 22.4989 17.9232 22.215 17.6479C21.9526 17.3842 21.488 17.3364 20.9808 17.5436C20.0944 17.9057 19.0112 18.1187 17.6994 18.1187C12.4852 18.1187 9.15357 14.886 9.15357 9.79118C9.15357 8.38797 9.43154 6.98477 9.80537 6.19797C10.0723 5.62493 10.05 5.14728 9.78638 4.85384C9.50467 4.53275 9.0092 4.45494 8.37311 4.70384C4.58351 6.2404 2 10.1497 2 14.6411C2 20.5991 6.38843 25.1455 12.6219 25.1455ZM12.6411 22.9286C7.6974 22.9286 4.21483 19.3114 4.21483 14.5236C4.21483 11.7763 5.45304 9.26639 7.45976 7.63819C7.2132 8.33358 7.07445 9.3482 7.07445 10.3339C7.07445 16.2568 11.1115 20.1873 17.1718 20.1873C18.0523 20.1873 18.8698 20.072 19.2999 19.9353C17.8562 21.8045 15.38 22.9286 12.6411 22.9286Z" fill="black"/>
<path d="M21.4729 13.8335C21.7187 13.8335 21.8899 13.6643 21.9177 13.4067C22.3001 10.301 22.4398 10.2105 25.605 9.70757C25.8806 9.6682 26.0478 9.5182 26.0478 9.27234C26.0478 9.02859 25.8807 8.86898 25.6562 8.8275C22.457 8.20547 22.3001 8.22984 21.9177 5.12835C21.8899 4.87078 21.7187 4.70156 21.4729 4.70156C21.2366 4.70156 21.0653 4.87078 21.028 5.11664C20.6317 8.27765 20.5229 8.37679 17.2915 8.8275C17.0691 8.85515 16.9 9.02859 16.9 9.27234C16.9 9.50648 17.067 9.66609 17.2894 9.70757C20.5292 10.3392 20.6221 10.3266 21.028 13.4301C21.0653 13.6643 21.2408 13.8335 21.4729 13.8335ZM15.8481 5.75226C16.0035 5.75226 16.0885 5.65758 16.114 5.5118C16.4604 3.56742 16.4508 3.52898 18.473 3.1507C18.6251 3.12304 18.7274 3.03047 18.7274 2.87508C18.7274 2.7218 18.6251 2.62711 18.4793 2.60156C16.4466 2.19141 16.5021 2.15508 16.114 0.242577C16.0885 0.094687 16.0035 0 15.8481 0C15.6927 0 15.5979 0.094687 15.5724 0.240468C15.1896 2.17195 15.2474 2.21461 13.2189 2.60156C13.0656 2.625 12.9688 2.7218 12.9688 2.87508C12.9688 3.03047 13.0635 3.12304 13.2168 3.1507C15.2474 3.56086 15.2239 3.57797 15.5724 5.51391C15.5979 5.65758 15.6927 5.75226 15.8481 5.75226Z" fill="black"/>
</svg>
