<svg width="31" height="28" viewBox="0 0 31 28" fill="none" xmlns="http://www.w3.org/2000/svg">
<path d="M10.0481 20.4963H13.3327C11.8317 19.8621 10.7203 18.3127 10.7203 16.5255C10.7203 14.153 12.6656 12.2161 15.0234 12.2161C17.3695 12.2161 19.3149 14.153 19.3149 16.5255C19.3149 18.3127 18.2034 19.8621 16.7025 20.4963H19.987C20.9046 19.4084 21.4324 18.0188 21.4324 16.5234C21.4324 12.9846 18.5283 10.0847 15.0234 10.0847C11.5069 10.0847 8.60273 12.9846 8.60273 16.5234C8.60273 18.0188 9.13055 19.4084 10.0481 20.4963ZM2.62101 17.1089H5.33719C5.98242 17.1089 6.47742 16.647 6.46781 16.0732C6.4582 15.4974 5.97281 15.0354 5.33719 15.0354H2.62101C1.97578 15.0354 1.5 15.4974 1.5 16.0732C1.5 16.647 1.97789 17.1089 2.62101 17.1089ZM8.96813 10.4702C9.36726 10.0615 9.36516 9.38344 8.90836 8.93625L6.98531 7.01742C6.52429 6.5468 5.86969 6.56391 5.46094 6.96305C5.05219 7.36008 5.04258 8.02851 5.5132 8.48953L7.43415 10.4062C7.88344 10.863 8.5711 10.879 8.96813 10.4702ZM21.067 10.4702C21.4737 10.8694 22.1517 10.863 22.601 10.4062L24.522 8.48953C24.9926 8.02851 24.9734 7.36969 24.5742 6.96305C24.1772 6.5543 23.5109 6.5468 23.0498 7.01742L21.1268 8.93625C20.67 9.38344 20.6583 10.0732 21.067 10.4702ZM24.698 17.1089H27.4141C28.0615 17.1089 28.5352 16.647 28.5352 16.0732C28.5352 15.4974 28.0615 15.0354 27.4141 15.0354H24.698C24.0645 15.0354 23.5577 15.4974 23.5673 16.0732C23.577 16.647 24.0666 17.1089 24.698 17.1089ZM15.0234 7.96992C15.5876 7.96031 16.0591 7.47281 16.0591 6.8393V4.12101C16.0591 3.47578 15.5876 3 15.0234 3C14.4476 3 13.976 3.47578 13.976 4.12101V6.8393C13.976 7.47281 14.4476 7.97953 15.0234 7.96992Z" fill="black"/>
<path d="M1.16296 22.3137H28.8722C29.5073 22.3137 30.0352 21.8074 30.0352 21.2074C30.0352 20.599 29.5095 20.1012 28.8722 20.1012H1.16296C0.52781 20.1012 0 20.6053 0 21.2074C0 21.8011 0.529919 22.3137 1.16296 22.3137Z" fill="black"/>
</svg>
