<svg width="32" height="28" viewBox="0 0 32 28" fill="none" xmlns="http://www.w3.org/2000/svg">
<path d="M13.1222 17.0511C16.739 17.0511 19.4937 14.2126 19.4937 10.2195C19.4937 8.34897 18.9504 6.6903 17.9958 5.37264L15.7451 7.63085C16.3373 8.39116 16.6931 9.34436 16.6931 10.3817C16.6931 12.6329 15.0907 14.2768 13.0261 14.2768C11.347 14.2768 10.0289 13.1801 10.0289 11.874C10.0289 11.3963 10.4119 11.1195 10.8014 11.1195C11.1269 11.1195 11.4016 11.3143 11.5198 11.7305C11.6805 12.3216 12.1854 12.7552 12.9516 12.7552C14.1949 12.7552 15.0033 11.8477 15.0033 10.4818C15.0033 8.77975 13.5738 7.47381 11.711 7.47381C9.42538 7.47381 7.53796 9.40811 7.53796 11.9035C7.53796 14.8088 9.88124 17.0511 13.1222 17.0511ZM11.7752 5.74671C12.7401 5.76898 13.7426 6.03523 14.5437 6.54335L16.9242 4.17874C15.6033 2.97898 13.8251 2.21819 11.7752 2.06491V5.74671ZM7.94859 7.12179C8.59406 6.58273 9.34078 6.18007 10.162 5.94898V2.02765C8.10796 2.14577 6.25945 2.7957 4.70507 3.85483L7.94859 7.12179ZM0.198983 11.0387H5.88539C5.9843 10.0597 6.36141 9.10507 6.88453 8.3253L3.44625 4.86147C1.77984 6.41045 0.628123 8.53811 0.198983 11.0387ZM0 13.2711C0 16.1483 0.783047 18.6973 2.20523 20.7894L7.12734 15.8438C6.43711 14.9002 5.99086 13.8022 5.85563 12.6401H0.00960946C0 12.8619 0 13.0644 0 13.2711ZM3.18421 22.0758C5.27203 24.4058 8.26663 25.9665 11.91 26.4542V18.6739C10.4815 18.4716 9.20859 17.8772 8.22867 17.0101L3.18421 22.0758ZM13.5232 26.6138C13.8269 26.6351 14.1403 26.6351 14.4633 26.6351C18.0316 26.6351 21.224 25.6093 23.8699 23.8409L17.5301 17.532C16.4458 18.234 15.1038 18.7015 13.5232 18.7686V26.6138ZM25.1585 22.895C28.1688 20.4399 30.2876 16.895 31.1665 13.063C31.4081 12.0101 30.6 11.2998 29.6894 11.2998H21.1195C21.0096 13.029 20.2394 15.0221 18.7729 16.5073L25.1585 22.895Z" fill="black"/>
</svg>
