<svg width="28" height="28" viewBox="0 0 28 28" fill="none" xmlns="http://www.w3.org/2000/svg">
<path d="M14.105 26.21C20.7369 26.21 26.2121 20.7273 26.2121 14.105C26.2121 7.47312 20.7273 2 14.0954 2C7.47523 2 2 7.47312 2 14.105C2 20.7273 7.48484 26.21 14.105 26.21ZM14.105 23.8255C8.71085 23.8255 4.39412 19.4991 4.39412 14.105C4.39412 8.71085 8.70124 4.38452 14.0954 4.38452C19.4895 4.38452 23.8276 8.71085 23.8276 14.105C23.8276 19.4991 19.4991 23.8255 14.105 23.8255Z" fill="black"/>
<path d="M10.4374 15.1934H17.2383C19.0294 15.1934 20.4049 13.8104 20.4049 12.0908C20.4049 10.3147 18.9759 9.016 17.1091 9.016C16.4091 7.66272 15.1463 6.80139 13.5544 6.80139C11.4871 6.80139 9.78113 8.40123 9.56504 10.4492C8.55723 10.7591 7.81543 11.6253 7.81543 12.7911C7.81543 14.1259 8.79113 15.1934 10.4374 15.1934ZM12.0438 18.5415C11.9543 18.7152 12.0321 18.8516 12.2271 18.8516H13.4691L12.5283 21.1508C12.4814 21.252 12.507 21.3437 12.5752 21.3767C12.6455 21.4023 12.7275 21.3809 12.8074 21.2989L16.118 18.0256C16.2724 17.8658 16.2138 17.6527 15.9954 17.6527H14.5214L15.1896 16.3728C15.2599 16.2205 15.213 16.0841 15.0394 16.0841H13.3669C13.1698 16.0841 13.0781 16.1544 13.0099 16.3067L12.0438 18.5415Z" fill="black"/>
</svg>
