<svg width="28" height="28" viewBox="0 0 28 28" fill="none" xmlns="http://www.w3.org/2000/svg">
<path d="M14.105 26.21C20.7369 26.21 26.2121 20.7273 26.2121 14.105C26.2121 7.47312 20.7273 2 14.0954 2C7.47523 2 2 7.47312 2 14.105C2 20.7273 7.48484 26.21 14.105 26.21ZM14.105 23.8255C8.71085 23.8255 4.39412 19.4991 4.39412 14.105C4.39412 8.71085 8.70124 4.38452 14.0954 4.38452C19.4895 4.38452 23.8276 8.71085 23.8276 14.105C23.8276 19.4991 19.4991 23.8255 14.105 23.8255Z" fill="black"/>
<path d="M8.67378 17.4244H14.4441C15.9945 17.4244 17.1699 16.2427 17.1699 14.7169C17.1699 13.2073 15.9743 12.0577 14.3665 12.0289C13.7632 10.9161 12.69 10.1705 11.3107 10.1705C9.54426 10.1705 8.06745 11.5259 7.87245 13.268C6.99988 13.5589 6.39355 14.3335 6.39355 15.3169C6.39355 16.5315 7.30456 17.4244 8.67378 17.4244ZM13.2938 9.66685C13.511 9.88623 13.8752 9.86279 14.0829 9.66896C14.2809 9.46342 14.2938 9.10131 14.0829 8.89365L13.2961 8.11014C13.0725 7.90248 12.7317 7.9067 12.5166 8.11014C12.3047 8.30818 12.3131 8.66068 12.5208 8.87795L13.2938 9.66685ZM16.4229 8.68224C16.7381 8.68224 16.9788 8.43943 16.9788 8.13592V7.03037C16.9788 6.73435 16.7381 6.48193 16.4229 6.48193C16.1311 6.48193 15.8787 6.73435 15.8787 7.03037V8.13592C15.8787 8.43943 16.1311 8.68224 16.4229 8.68224ZM18.7906 9.65935C18.994 9.86279 19.3699 9.88623 19.583 9.66896L20.3506 8.88006C20.5603 8.6724 20.5528 8.30818 20.3527 8.11224C20.1396 7.90248 19.7946 7.89287 19.5774 8.11224L18.7906 8.89154C18.5733 9.10131 18.5904 9.45381 18.7906 9.65935ZM20.3194 12.5649H21.4078C21.7209 12.5649 21.9617 12.3221 21.9617 12.0207C21.9617 11.7097 21.7209 11.4723 21.4078 11.4723H20.3194C20.0276 11.4723 19.7731 11.7097 19.7731 12.0207C19.7731 12.3221 20.0276 12.5649 20.3194 12.5649ZM19.5774 15.9505C19.7946 16.1677 20.1375 16.1464 20.3527 15.9387C20.5507 15.7194 20.5603 15.3615 20.3506 15.1634L19.5872 14.398C19.3678 14.1903 19.0015 14.1861 18.7863 14.3959C18.5862 14.5993 18.5691 14.9635 18.7884 15.1712L19.5774 15.9505ZM19.1262 12.0207C19.1262 10.5172 17.9327 9.34084 16.425 9.34084C15.5119 9.34084 14.6925 9.80326 14.2268 10.5033C14.4687 10.726 14.67 10.9679 14.8533 11.2503C16.5028 11.4708 17.7624 12.658 17.9592 14.2393C18.6797 13.7288 19.1262 12.9254 19.1262 12.0207ZM9.22784 19.8624L9.86628 18.7625C9.9973 18.5431 9.92698 18.2907 9.70011 18.1618C9.49456 18.0404 9.23042 18.1224 9.11112 18.3259L8.47058 19.4279C8.363 19.6217 8.42371 19.9072 8.63886 20.0073C8.8444 20.1383 9.10854 20.068 9.22784 19.8624ZM10.7363 21.0856L11.3342 20.0337C11.4481 19.8378 11.397 19.5662 11.1701 19.4427C10.955 19.3234 10.7025 19.3937 10.5694 19.6067L9.95979 20.6511C9.8405 20.8587 9.92043 21.1304 10.1377 21.2401C10.3432 21.3732 10.617 21.2933 10.7363 21.0856ZM13.0066 19.8624L13.6472 18.7625C13.7665 18.5527 13.6866 18.2907 13.481 18.1714C13.2638 18.0404 13.0017 18.1128 12.8824 18.3162L12.2515 19.4183C12.1418 19.6217 12.1908 19.8976 12.4102 20.0169C12.6328 20.1266 12.8895 20.0584 13.0066 19.8624ZM14.4865 21.0856L15.0982 20.0434C15.2058 19.8378 15.1355 19.5566 14.9224 19.4427C14.7148 19.333 14.4602 19.3937 14.3292 19.6067L13.7175 20.6511C13.5907 20.8684 13.6685 21.1304 13.8975 21.2497C14.103 21.3732 14.3651 21.2933 14.4865 21.0856Z" fill="black"/>
</svg>
