<svg width="28" height="28" viewBox="0 0 28 28" fill="none" xmlns="http://www.w3.org/2000/svg">
<path d="M23.8163 14.105C23.8163 19.1872 20.0065 23.2906 15.004 23.7561C11.8943 21.7365 10.166 18.369 10.166 14.105C10.166 9.84097 11.9039 6.46386 15.052 4.45386C20.0215 4.92894 23.8163 9.01645 23.8163 14.105Z" fill="white"/>
<path d="M26.2121 14.105C26.2121 7.47312 20.7465 2 14.1146 2C7.49445 2 2 7.48484 2 14.105C2 20.7273 7.48484 26.21 14.105 26.21C20.7369 26.21 26.2121 20.7273 26.2121 14.105ZM23.8159 14.105C23.8159 19.1872 20.0061 23.2906 15.0036 23.7561C11.8939 21.7365 10.1656 18.369 10.1656 14.105C10.1656 9.841 11.9035 6.46389 15.0516 4.45389C20.0211 4.92897 23.8159 9.01648 23.8159 14.105Z" fill="black"/>
</svg>
