<svg width="28" height="28" viewBox="0 0 28 28" fill="none" xmlns="http://www.w3.org/2000/svg">
<path d="M1 8.44969C1 17.2868 6.31211 23.0986 14.4653 23.0986C20.181 23.0986 24.2392 19.3941 24.2392 14.1684C24.2392 9.14204 20.1458 5.50782 14.5122 5.50782C12.5809 5.50782 10.6473 6.04689 8.5239 6.04689C6.7403 6.04689 5.23866 5.50032 3.99389 4.08821C3.20874 3.16689 1.71133 3.18306 1.35789 4.63829C1.07031 5.78977 1 7.81266 1 8.44969ZM3.09858 8.44969C3.09858 7.79648 3.10819 7.06007 3.19678 6.52429C3.216 6.3403 3.3128 6.32647 3.43725 6.42022C4.74131 7.51851 6.71101 8.14547 8.5239 8.14547C9.80007 8.14547 10.9612 7.9814 11.9945 7.83867C12.9278 7.70976 13.7376 7.6064 14.5122 7.6064C18.9918 7.6064 22.1406 10.3334 22.1406 14.1684C22.1406 18.2123 19.0152 21 14.4653 21C7.49593 21 3.09858 16.1306 3.09858 8.44969ZM7.88289 11.2962C8.59375 13.4906 10.8212 14.4933 13.6649 15.1772C17.7747 16.1433 19.4709 16.9209 21.0119 18.833C22.3127 20.4321 22.6206 22.3762 23.3514 24.7008C23.5398 25.3055 23.9709 25.5595 24.4548 25.5595C25.4043 25.5595 26.1611 24.6813 26.1611 23.6348C26.1611 22.0514 24.4499 19.3603 23.0655 17.4377C21.4813 15.3 18.7342 14.1077 14.3364 13.4184C11.9685 13.0371 10.0588 12.4554 8.7871 10.8284C8.35304 10.2781 7.67125 10.6613 7.88289 11.2962Z" fill="black"/>
</svg>
