<svg width="28" height="28" viewBox="0 0 28 28" fill="none" xmlns="http://www.w3.org/2000/svg">
<path d="M14.105 26.2301C20.7369 26.2301 26.2121 20.7549 26.2121 14.123C26.2121 7.50291 20.7273 2.01807 14.0954 2.01807C7.47523 2.01807 2 7.50291 2 14.123C2 20.7549 7.48484 26.2301 14.105 26.2301Z" fill="black"/>
<path d="M10.5727 15.2865C8.86696 15.2865 7.84766 14.1774 7.84766 12.7831C7.84766 11.5854 8.61712 10.6852 9.66641 10.3615C9.88462 8.22099 11.6544 6.57544 13.8045 6.57544C15.4655 6.57544 16.7698 7.45482 17.49 8.86341C19.4281 8.86341 20.9145 10.2174 20.9145 12.069C20.9145 13.8502 19.4911 15.2865 17.6192 15.2865H10.5727ZM11.3499 18.373C11.2051 18.6254 10.8547 18.7447 10.5788 18.586C10.2988 18.4294 10.2284 18.0694 10.3616 17.8032L11.0202 16.6705C11.165 16.418 11.5175 16.3009 11.788 16.467C12.0713 16.6161 12.1458 16.9857 12.0106 17.2402L11.3499 18.373ZM14.5735 18.3793C14.4286 18.6317 14.0686 18.7489 13.8024 18.5923C13.5223 18.4358 13.4424 18.0737 13.5947 17.8095L14.2437 16.6768C14.3886 16.4244 14.7507 16.3051 15.0211 16.4734C15.2949 16.6203 15.379 16.9899 15.2246 17.2466L14.5735 18.3793ZM17.7875 18.373C17.6426 18.6254 17.2922 18.7447 17.0143 18.586C16.7363 18.4294 16.6639 18.0694 16.797 17.8032L17.4577 16.6705C17.6025 16.418 17.955 16.3009 18.233 16.467C18.5089 16.6161 18.5834 16.9857 18.4482 17.2402L17.7875 18.373ZM9.86938 21.2359C9.67766 21.2359 9.56586 21.0868 9.57008 20.9068L9.59235 20.4486L9.22789 20.7181C9.08305 20.8086 8.87961 20.7873 8.78586 20.619C8.6975 20.4699 8.74532 20.2803 8.94243 20.1908L9.34297 20.0075L8.94664 19.8092C8.74532 19.7293 8.72844 19.5087 8.79547 19.381C8.88922 19.2362 9.09266 19.2106 9.22789 19.3011L9.59235 19.5685L9.56047 19.1145C9.54454 18.9303 9.67766 18.7791 9.86938 18.7791C10.0419 18.7791 10.1729 18.9207 10.1527 19.1145L10.1113 19.5685L10.4916 19.3107C10.6248 19.2127 10.8474 19.2458 10.9295 19.3906C10.9986 19.5472 10.9529 19.7218 10.7729 19.8092L10.367 20.0096L10.7708 20.1887C10.9721 20.2761 10.9986 20.4891 10.9102 20.6499C10.8261 20.7659 10.629 20.8086 10.4916 20.7181L10.1113 20.4465L10.1527 20.9068C10.1729 21.0964 10.0419 21.2359 9.86938 21.2359ZM13.0929 21.2422C12.9012 21.2422 12.7852 21.0931 12.7936 20.911L12.8234 20.4528L12.4418 20.7223C12.3066 20.8128 12.0936 20.7915 12.0073 20.6253C11.9307 20.4762 11.9764 20.2845 12.1543 20.195L12.5623 20.0117L12.1564 19.8177C11.9764 19.7335 11.952 19.513 12.0265 19.3852C12.1128 19.2404 12.3162 19.2169 12.4418 19.3074L12.8234 19.5727L12.784 19.1187C12.766 18.9345 12.9012 18.7855 13.0929 18.7855C13.2537 18.7855 13.3964 18.9249 13.3667 19.1187L13.3348 19.5727L13.7056 19.317C13.8462 19.2191 14.071 19.25 14.1434 19.3948C14.2221 19.5514 14.1861 19.726 13.9964 19.8177L13.5905 20.0138L13.9943 20.1929C14.1957 20.2803 14.2318 20.4955 14.1242 20.6541C14.0496 20.7723 13.8525 20.8107 13.7056 20.7223L13.3348 20.4507L13.3667 20.911C13.3964 21.1027 13.2537 21.2422 13.0929 21.2422ZM16.3069 21.2359C16.1152 21.2359 16.0013 21.0868 16.0076 20.9068L16.0278 20.4486L15.6654 20.7181C15.5206 20.8086 15.3171 20.7873 15.2213 20.619C15.135 20.4699 15.1786 20.2803 15.3779 20.1908L15.7763 20.0075L15.38 19.8092C15.1786 19.7293 15.1639 19.5087 15.2309 19.381C15.3268 19.2362 15.5302 19.2106 15.6654 19.3011L16.0278 19.5685L15.998 19.1145C15.9821 18.9303 16.1152 18.7791 16.3069 18.7791C16.4773 18.7791 16.6083 18.9207 16.5903 19.1145L16.5584 19.5685L16.9271 19.3107C17.0602 19.2127 17.2807 19.2458 17.367 19.3906C17.434 19.5472 17.3883 19.7218 17.22 19.8092L16.8045 20.0096L17.2179 20.1887C17.4097 20.2761 17.4436 20.4891 17.3478 20.6499C17.2615 20.7659 17.0623 20.8086 16.9271 20.7181L16.5584 20.4465L16.5903 20.9068C16.6083 21.0964 16.4773 21.2359 16.3069 21.2359Z" fill="white"/>
</svg>
