<svg width="28" height="28" viewBox="0 0 28 28" fill="none" xmlns="http://www.w3.org/2000/svg">
<path d="M4.39453 14.105C4.39453 9.01645 8.1893 4.92894 13.1684 4.45386C16.309 6.46386 18.0469 9.84097 18.0469 14.105C18.0469 18.369 16.3186 21.7365 13.2068 23.7561C8.2043 23.2906 4.39453 19.1872 4.39453 14.105Z" fill="white"/>
<path d="M2 14.105C2 20.7273 7.48484 26.21 14.105 26.21C20.7369 26.21 26.2121 20.7273 26.2121 14.105C26.2121 7.48484 20.7273 2 14.0954 2C7.47523 2 2 7.47312 2 14.105ZM4.39412 14.105C4.39412 9.01648 8.18889 4.92897 13.168 4.45389C16.3086 6.46389 18.0465 9.841 18.0465 14.105C18.0465 18.369 16.3182 21.7365 13.2064 23.7561C8.20389 23.2906 4.39412 19.1872 4.39412 14.105Z" fill="black"/>
</svg>
