<svg width="28" height="28" viewBox="0 0 28 28" fill="none" xmlns="http://www.w3.org/2000/svg">
<path d="M11.9479 24.7654C11.2152 24.8143 10.3729 25.1774 9.83829 25.6895C9.66462 25.8557 9.67423 26.0612 9.85962 26.1986C10.457 26.6617 11.3484 26.9012 12.0991 26.8054C12.8146 26.7521 13.657 26.3678 14.2087 25.8578C14.4175 25.6661 14.3823 25.4371 14.1405 25.2901C13.5388 24.9111 12.6592 24.7047 11.9479 24.7654ZM9.48274 20.7538C9.32407 20.529 9.10681 20.5152 8.9247 20.7261C8.42431 21.28 8.06126 22.1223 8.01228 22.8379C7.93775 23.6024 8.20704 24.4958 8.69782 25.0539C8.85227 25.2393 9.04821 25.2393 9.20267 25.0635C9.68712 24.5448 10.0363 23.6907 10.0757 22.9422C10.113 22.2287 9.87134 21.3512 9.48274 20.7538ZM15.2674 21.5664C14.5774 21.7996 13.8585 22.3703 13.4793 23.0038C13.3525 23.2147 13.4132 23.3947 13.6338 23.4831C14.3313 23.7918 15.262 23.8023 15.9499 23.518C16.6281 23.271 17.347 22.6864 17.7421 22.055C17.8806 21.8164 17.8082 21.613 17.5483 21.5268C16.8583 21.3064 15.9414 21.3236 15.2674 21.5664ZM11.8713 18.3304C11.6582 18.1332 11.4388 18.1705 11.3249 18.4283C10.9874 19.0822 10.8555 19.9991 10.9907 20.705C11.1217 21.4654 11.6104 22.2545 12.2109 22.6773C12.4026 22.8179 12.6081 22.7786 12.7061 22.5559C13.0478 21.9287 13.1542 21.0139 13.0052 20.2813C12.8561 19.5796 12.4047 18.7979 11.8713 18.3304ZM20.317 16.9975C20.3575 16.7258 20.2106 16.5693 19.9293 16.6002C19.2138 16.6738 18.396 17.0593 17.8731 17.5609C17.3439 18.039 16.9211 18.8387 16.8145 19.5873C16.7793 19.8259 16.9124 19.9825 17.1489 19.975C17.9113 19.9663 18.7621 19.6063 19.2796 19.0632C19.8067 18.55 20.2253 17.7151 20.317 16.9975ZM13.4385 15.9665C13.1786 15.8769 12.9965 15.9983 12.9923 16.2796C12.9306 17.0068 13.181 17.8832 13.6005 18.4998C13.9945 19.1408 14.7686 19.6595 15.5118 19.8193C15.7387 19.8524 15.9091 19.7331 15.9208 19.5041C15.9665 18.7522 15.7087 17.878 15.2795 17.2956C14.86 16.7153 14.1285 16.1849 13.4385 15.9665ZM15.4799 13.2243C14.9507 12.76 14.0999 12.4426 13.3609 12.3988C13.0914 12.3892 12.9562 12.565 12.9913 12.8291C13.1395 13.5447 13.6091 14.3422 14.1735 14.8225C14.7187 15.3207 15.6046 15.6393 16.3649 15.6011C16.5801 15.5851 16.709 15.4189 16.6759 15.2017C16.5416 14.4786 16.0698 13.6928 15.4799 13.2243ZM20.2884 11.6554C20.2532 11.372 20.0594 11.2623 19.807 11.3657C19.1341 11.6202 18.4302 12.1996 18.0543 12.8087C17.6603 13.4455 17.4515 14.3411 17.5441 15.0428C17.5717 15.2793 17.7496 15.3986 17.9765 15.3325C18.6963 15.1492 19.4277 14.5773 19.7962 13.915C20.1859 13.274 20.3756 12.3784 20.2884 11.6554ZM14.8281 9.2488C14.1616 9.00388 13.2543 8.99638 12.5589 9.20497C12.299 9.29122 12.2245 9.49466 12.3555 9.71192C12.7176 10.3454 13.4364 10.9375 14.1531 11.2079C14.8474 11.4922 15.778 11.4817 16.4713 11.1826C16.6823 11.0868 16.7451 10.8833 16.6258 10.6895C16.2445 10.0506 15.5256 9.49161 14.8281 9.2488ZM18.7919 6.12997C18.6705 5.89349 18.4415 5.8445 18.2381 6.00857C17.7196 6.48786 17.249 7.26739 17.0999 7.98294C16.9413 8.70176 17.0498 9.60903 17.3894 10.2479C17.497 10.461 17.6983 10.5196 17.8825 10.379C18.4947 9.94864 18.9813 9.167 19.1165 8.4163C19.2613 7.70286 19.1336 6.7956 18.7919 6.12997ZM12.67 5.84005C11.9566 5.69521 11.061 5.81333 10.4146 6.11989C10.1664 6.22958 10.1099 6.44684 10.2836 6.662C10.7554 7.21137 11.5466 7.69372 12.2601 7.85239C12.997 8.05254 13.9138 7.91848 14.5485 7.52567C14.7477 7.39465 14.785 7.19122 14.6444 7.02083C14.1843 6.44802 13.4027 5.97528 12.67 5.84005ZM16.1662 2.18005C16.0096 1.967 15.7827 1.94568 15.6006 2.15661C15.1258 2.72005 14.7745 3.55278 14.7351 4.25872C14.6648 4.97426 14.9181 5.86348 15.344 6.47801C15.4771 6.66762 15.6827 6.69317 15.8627 6.527C16.4142 5.99872 16.7889 5.15637 16.8006 4.40778C16.8475 3.69013 16.592 2.79669 16.1662 2.18005ZM10.0138 1.00489C9.73048 0.969738 9.58353 1.1263 9.60275 1.40005C9.69767 2.13692 10.0949 2.96216 10.5911 3.47966C11.1065 4.05364 11.9413 4.44129 12.6941 4.4659C12.9327 4.47551 13.0638 4.33067 13.0424 4.09208C12.9688 3.37864 12.5737 2.5363 12.0466 2.02841C11.5408 1.52263 10.7252 1.10403 10.0138 1.00489Z" fill="black"/>
</svg>
