<svg width="28" height="28" viewBox="0 0 28 28" fill="none" xmlns="http://www.w3.org/2000/svg">
<path d="M14.5571 23.0323C16.7858 23.0323 18.6502 19.6487 19.1265 18.8644C19.7359 17.8599 19.4567 16.8638 19.4567 16.2905C19.4567 15.9694 20.6841 15.0439 20.6841 13.9902C20.6841 12.9099 18.3113 11.9919 18.3113 11.6152C18.3113 11.3635 18.5246 11.0511 18.7231 11.0511C19.1422 11.0511 20.4099 12.661 21.1876 12.661C21.6732 12.661 21.8265 12.2572 21.9739 12.2572C22.2523 12.2572 22.4837 15.7376 24.1536 16.4124L24.6922 15.2373C23.1849 14.994 23.7716 10.8891 22.1028 10.8891C21.5809 10.8891 21.2497 11.3441 21.0842 11.3441C20.9806 11.3441 20.5852 11.0166 20.0077 10.547C19.6721 10.2795 19.3121 9.90992 18.6645 9.90992C17.8742 9.90992 17.1095 10.7951 17.1095 11.6291C17.1095 12.9022 19.412 13.6039 19.412 13.9902C19.412 14.2386 19.3128 14.4348 18.894 14.9122C18.403 15.4639 18.1845 15.8314 18.1845 16.2905C18.1845 16.4919 18.208 16.6773 18.2197 16.8509C18.2783 17.6129 18.2431 17.8911 18.0331 18.2492C17.5046 19.0602 15.999 21.7602 14.5571 21.7602C13.3025 21.7602 13.4155 19.9377 13.4155 18.2009C13.4155 16.4795 12.0519 15.1862 10.2366 15.1862C8.89062 15.1862 8.25218 14.5402 8.25218 13.2699C8.25218 11.5177 10.0939 10.3667 11.9052 10.3667C13.1166 10.3667 14.0787 10.9498 15.0291 10.9498C15.8122 10.9498 16.3967 9.78851 16.3967 8.88546C16.3967 7.78085 14.0734 6.56538 13.3702 6.56538C12.7812 6.56538 12.5204 6.91156 12.4777 7.6414L12.7416 7.60952L12.3877 7.33343C11.923 6.98702 11.5426 6.78241 11.1099 6.78241C10.0503 6.78241 9.86 8.26249 9.3214 8.26249C9.18593 8.26249 9.09312 8.16968 9.09312 8.02249C9.09312 7.55116 10.3555 6.49437 10.3693 5.06866L10.381 4.07726H9.18335V5.17624C9.18335 6.52132 7.94632 7.02218 7.94632 8.15866C7.94632 8.83202 8.42468 9.27312 9.15664 9.27312C10.4984 9.27312 10.6442 7.84296 11.1835 7.84296C11.5845 7.85257 12.0769 8.59858 12.9634 8.59858C13.4771 8.59858 13.7497 8.23835 13.7558 7.60741L13.4319 7.71499C14.1826 7.99179 15.1991 8.51632 15.1991 8.9846C15.1991 9.26609 15.0828 9.67765 14.8473 9.67765C14.3919 9.67765 13.0824 9.09663 11.9052 9.09663C9.40296 9.09663 6.97999 10.8151 6.97999 13.2699C6.97999 15.2567 8.16663 16.4584 10.2366 16.4584C11.3333 16.4584 12.1412 17.1905 12.1412 18.2009C12.1412 19.9121 11.9441 23.0323 14.5571 23.0323ZM17.698 7.06741C17.9431 7.06741 18.1691 7.3114 18.6174 7.3114C18.9038 7.3114 19.1199 7.05054 19.1199 6.71304C19.1199 6.12405 18.4627 5.6778 17.6042 5.6778C16.5955 5.6778 16.0065 6.01437 16.0065 6.60757C16.0065 7.00155 16.3046 7.28585 16.6965 7.28585C17.1022 7.28585 17.2695 7.06741 17.698 7.06741ZM14.105 26.21C20.7369 26.21 26.2121 20.7273 26.2121 14.105C26.2121 7.47312 20.7273 2 14.0954 2C7.47523 2 2 7.47312 2 14.105C2 20.7273 7.48484 26.21 14.105 26.21ZM14.105 24.3336C8.51233 24.3336 3.8785 19.6998 3.8785 14.105C3.8785 8.51023 8.50273 3.87639 14.0954 3.87639C19.6902 3.87639 24.3336 8.51023 24.3336 14.105C24.3336 19.6998 19.6998 24.3336 14.105 24.3336Z" fill="black"/>
</svg>
