<svg width="28" height="29" viewBox="0 0 28 29" fill="none" xmlns="http://www.w3.org/2000/svg">
<path d="M16.5537 22.8089H13.8028L13.7646 23.3995L15.1901 20.6679C15.3286 20.4101 15.2231 20.2088 14.9632 20.2088H12.2135C11.8737 20.2088 11.7565 20.3259 11.651 20.5741L10.0257 24.2766C9.89888 24.5674 10.0235 24.7453 10.3303 24.7453H12.5911L12.716 24.0012L10.8209 28.6043C10.7581 28.7588 10.7953 28.8877 10.9008 28.9345C11.0063 28.9814 11.1352 28.9463 11.2662 28.8195L16.7391 23.3991C16.9915 23.1455 16.8978 22.8089 16.5537 22.8089Z" fill="black"/>
<path d="M5.67866 18.4801H20.2786C24.2004 18.4801 27.1336 15.4989 27.1336 11.7883C27.1336 7.96777 24.0593 5.13395 20.0318 5.13395C18.5923 2.30269 15.9178 0.388794 12.3666 0.388794C7.87593 0.388794 4.23257 3.84371 3.79101 8.20402C1.63828 8.86309 0 10.7366 0 13.262C0 16.1659 2.12531 18.4801 5.67866 18.4801Z" fill="black"/>
</svg>
