<svg width="28" height="28" viewBox="0 0 28 28" fill="none" xmlns="http://www.w3.org/2000/svg">
<path d="M14.105 26.21C20.7369 26.21 26.2121 20.7273 26.2121 14.105C26.2121 7.47312 20.7273 2 14.0954 2C7.47523 2 2 7.47312 2 14.105C2 20.7273 7.48484 26.21 14.105 26.21ZM14.105 23.8255C8.71085 23.8255 4.39412 19.4991 4.39412 14.105C4.39412 8.71085 8.70124 4.38452 14.0954 4.38452C19.4895 4.38452 23.8276 8.71085 23.8276 14.105C23.8276 19.4991 19.4991 23.8255 14.105 23.8255Z" fill="black"/>
<path d="M11.1332 19.0674H18.7736C20.3652 19.0674 21.4635 17.9466 21.4635 16.4968C21.4635 15.2799 20.6087 14.24 19.443 13.9824C19.3197 12.4576 18.0688 11.2362 16.5088 11.2362C15.4996 11.2362 14.6183 11.7266 14.0856 12.5119C13.8255 12.4309 13.6037 12.3903 13.3319 12.3903C12.133 12.3903 11.1412 13.2547 10.9305 14.412C9.69228 14.4809 8.72993 15.4995 8.72993 16.7227C8.72993 18.0458 9.70563 19.0674 11.1332 19.0674ZM6.37305 13.3979C6.37305 14.4341 6.96415 15.339 8.03665 15.7688C8.35962 14.7409 9.20032 13.9313 10.2646 13.662C10.7406 12.4184 11.9317 11.5456 13.3319 11.5456C13.4727 11.5456 13.6178 11.5648 13.7587 11.5862C14.4529 10.813 15.4176 10.4248 16.4362 10.4192C16.2351 9.80866 15.5587 9.27873 14.5459 9.27873C14.2539 9.27873 14.0141 9.331 13.7551 9.41092C13.2001 8.60748 12.3369 8.12982 11.3448 8.12982C9.79446 8.12982 8.51477 9.34905 8.4011 10.8622C7.2161 11.139 6.37305 12.1714 6.37305 13.3979Z" fill="black"/>
</svg>
