<svg width="28" height="28" viewBox="0 0 28 28" fill="none" xmlns="http://www.w3.org/2000/svg">
<path d="M21.2455 20.827H6.12383C5.6757 20.827 5.32227 21.1645 5.32227 21.6138C5.32227 22.0631 5.6757 22.4006 6.12383 22.4006H21.2455C21.6915 22.4006 22.0449 22.0631 22.0449 21.6138C22.0449 21.1645 21.6915 20.827 21.2455 20.827ZM21.2455 24.8018H6.12383C5.6757 24.8018 5.32227 25.1372 5.32227 25.5886C5.32227 26.0379 5.6757 26.3829 6.12383 26.3829H21.2455C21.6915 26.3829 22.0449 26.0379 22.0449 25.5886C22.0449 25.1372 21.6915 24.8018 21.2455 24.8018Z" fill="black"/>
<path d="M5.67866 18.0914H20.2786C24.2004 18.0914 27.1336 15.1101 27.1336 11.3995C27.1336 7.57898 24.0593 4.74516 20.0318 4.74516C18.5923 1.9139 15.9178 0 12.3666 0C7.87593 0 4.23257 3.45492 3.79101 7.81523C1.63828 8.47429 0 10.3479 0 12.8733C0 15.7772 2.12531 18.0914 5.67866 18.0914Z" fill="black"/>
</svg>
