<svg width="28" height="28" viewBox="0 0 28 28" fill="none" xmlns="http://www.w3.org/2000/svg">
<path d="M14.105 26.21C20.7369 26.21 26.2121 20.7273 26.2121 14.105C26.2121 7.47312 20.7273 2 14.0954 2C7.47523 2 2 7.47312 2 14.105C2 20.7273 7.48484 26.21 14.105 26.21ZM14.105 23.8255C8.71085 23.8255 4.39412 19.4991 4.39412 14.105C4.39412 8.71085 8.70124 4.38452 14.0954 4.38452C19.4895 4.38452 23.8276 8.71085 23.8276 14.105C23.8276 19.4991 19.4991 23.8255 14.105 23.8255Z" fill="black"/>
<path d="M10.4374 15.6584H17.2383C19.0294 15.6584 20.4049 14.2775 20.4049 12.5675C20.4049 10.7914 18.9759 9.48312 17.1091 9.48312C16.4091 8.12773 15.1463 7.276 13.5544 7.276C11.4871 7.276 9.78113 8.86835 9.56504 10.9259C8.55723 11.2337 7.81543 12.102 7.81543 13.2582C7.81543 14.593 8.79113 15.6584 10.4374 15.6584ZM10.32 18.917L11.114 17.5388C11.261 17.2843 11.1768 16.9423 10.9127 16.7975C10.6485 16.643 10.3237 16.7347 10.1693 16.9988L9.37519 18.3673C9.22074 18.6294 9.30488 18.9734 9.57863 19.1183C9.84066 19.2727 10.1655 19.179 10.32 18.917ZM11.9449 20.652L13.7473 17.543C13.8879 17.2831 13.808 16.9466 13.5363 16.8017C13.2797 16.6473 12.9527 16.7335 12.8025 17.003L11.0001 20.112C10.8574 20.3623 10.9394 20.7085 11.2132 20.8534C11.4656 21.0078 11.7925 20.912 11.9449 20.652ZM15.563 18.917L16.3591 17.5388C16.5136 17.2843 16.4295 16.9423 16.1578 16.7975C15.9012 16.643 15.5688 16.7347 15.424 16.9988L14.6182 18.3673C14.4734 18.6294 14.5575 18.9734 14.8313 19.1183C15.0858 19.2727 15.4085 19.179 15.563 18.917ZM17.1879 20.652L18.9902 17.543C19.1426 17.2831 19.0509 16.9466 18.7889 16.8017C18.5227 16.6473 18.1978 16.7335 18.0455 17.003L16.2527 20.112C16.1004 20.3623 16.1824 20.7085 16.4562 20.8534C16.7086 21.0078 17.0452 20.912 17.1879 20.652Z" fill="black"/>
</svg>
