<svg width="28" height="28" viewBox="0 0 28 28" fill="none" xmlns="http://www.w3.org/2000/svg">
<path d="M14.5571 22.8983C16.7049 22.8983 18.53 19.5795 19.0062 18.7974C19.6018 17.8344 19.3227 16.8755 19.3227 16.2905C19.3227 15.8898 20.5501 15.0034 20.5501 13.9902C20.5501 13.0011 18.1625 12.1808 18.1625 11.5864C18.1625 11.2367 18.4395 10.9044 18.7231 10.9044C19.2324 10.9044 20.5149 12.5776 21.215 12.5776C21.6774 12.5776 21.6852 12.1316 21.943 12.1316C22.5174 12.1316 22.647 15.4737 24.5923 16.3993C25.1448 15.8598 25.5359 15.1053 25.5359 14.105C25.5359 7.91304 20.4048 2.66445 14.0954 2.67406C10.6866 2.68367 9.31742 3.98797 9.31742 5.28218C9.31742 6.86796 8.08038 7.23007 8.08038 8.18749C8.08038 8.76288 8.48421 9.13695 9.10859 9.13695C10.4026 9.13695 10.5153 7.70679 11.1835 7.70679C11.6696 7.7164 12.11 8.46241 12.9634 8.46241C13.3227 8.46241 13.5207 8.24374 13.5547 7.89218C13.5823 7.73562 13.6611 7.66108 13.8038 7.66108C14.5496 7.66108 15.3352 8.50483 15.3352 8.9846C15.3352 9.4557 15.1456 9.81171 14.8473 9.81171C14.3642 9.81171 13.0686 9.2328 11.9052 9.2328C9.28437 9.2328 7.11616 11.0623 7.11616 13.2699C7.11616 15.1972 8.25499 16.3222 10.2366 16.3222C11.412 16.3222 12.2773 17.1193 12.2773 18.2009C12.2773 19.9121 12.0898 22.8983 14.5571 22.8983ZM17.563 7.19046C17.1568 7.19046 16.9958 7.40257 16.606 7.40257C16.2301 7.40257 15.9479 7.1321 15.9479 6.75616C15.9479 6.18522 16.5125 5.86249 17.4734 5.86249C18.2937 5.86249 18.9148 6.29069 18.9148 6.84991C18.9148 7.17147 18.703 7.42811 18.4304 7.42811C18.0022 7.42811 17.7901 7.19046 17.563 7.19046ZM14.105 26.21C20.7369 26.21 26.2121 20.7273 26.2121 14.105C26.2121 7.47312 20.7273 2 14.0954 2C7.47523 2 2 7.47312 2 14.105C2 20.7273 7.48484 26.21 14.105 26.21ZM14.105 24.3336C8.51233 24.3336 3.8785 19.6998 3.8785 14.105C3.8785 8.51023 8.50273 3.87639 14.0954 3.87639C19.6902 3.87639 24.3336 8.51023 24.3336 14.105C24.3336 19.6998 19.6998 24.3336 14.105 24.3336Z" fill="black"/>
</svg>
