<svg width="28" height="28" viewBox="0 0 28 28" fill="none" xmlns="http://www.w3.org/2000/svg">
<path d="M13.3923 25.6767C19.698 25.6767 23.9031 21.4235 23.9031 15.0239C23.9031 4.42804 14.8448 0 8.59913 0C7.39843 0 6.61516 0.449997 6.61516 1.30124C6.61516 1.63218 6.76094 1.97905 7.02601 2.28561C8.47328 4.0235 9.80875 5.9196 9.82797 8.17335C9.82797 8.62265 9.77992 9.01969 9.4682 9.5768L10.0098 9.45539C9.38969 7.63782 8.06453 6.5625 6.8814 6.5625C6.33133 6.5625 5.9568 6.94992 5.9568 7.55742C5.9568 7.91906 6.04094 8.56851 6.04094 9.14109C6.04094 11.823 4 13.2105 4 17.5317C4 22.4217 7.7439 25.6767 13.3923 25.6767ZM13.6745 22.0695C11.4915 22.0695 10.0448 20.76 10.0448 18.806C10.0448 16.7709 11.4801 16.0875 11.6634 14.681C11.6847 14.5439 11.8014 14.4792 11.9214 14.5854C12.4373 15.0595 12.7804 15.6434 13.0607 16.3462C13.6628 15.4371 13.8925 13.7487 13.6806 11.9217C13.6562 11.7656 13.773 11.6859 13.9164 11.738C16.4469 12.9007 17.8019 15.4111 17.8019 17.7511C17.8019 20.0904 16.4024 22.0695 13.6745 22.0695Z" fill="black"/>
</svg>
