<svg width="28" height="28" viewBox="0 0 28 28" fill="none" xmlns="http://www.w3.org/2000/svg">
<path d="M14.105 26.21C20.7369 26.21 26.2121 20.7273 26.2121 14.105C26.2121 7.47312 20.7273 2 14.0954 2C7.47523 2 2 7.47312 2 14.105C2 20.7273 7.48484 26.21 14.105 26.21Z" fill="black"/>
<path d="M14.1054 20.4772C11.3791 20.4772 9.5498 18.7098 9.5498 16.0613C9.5498 14.7983 10.0807 13.6508 10.4927 12.718C11.2024 11.1952 12.3438 9.33006 13.3402 7.79349C13.5743 7.45928 13.8148 7.30084 14.1054 7.30084C14.3981 7.30084 14.629 7.45928 14.8706 7.79349C15.8552 9.33006 16.9945 11.191 17.7084 12.7159C18.1301 13.6487 18.6513 14.7983 18.6513 16.0613C18.6513 18.7098 16.8316 20.4772 14.1054 20.4772Z" fill="white"/>
</svg>
