<svg width="28" height="28" viewBox="0 0 28 28" fill="none" xmlns="http://www.w3.org/2000/svg">
<path d="M14.105 26.2301C20.7369 26.2301 26.2121 20.7549 26.2121 14.123C26.2121 7.50291 20.7273 2.01807 14.0954 2.01807C7.47523 2.01807 2 7.50291 2 14.123C2 20.7549 7.48484 26.2301 14.105 26.2301Z" fill="black"/>
<path d="M8.94847 17.0492C7.53566 17.0492 6.58105 16.1361 6.58105 14.8641C6.58105 13.8392 7.20543 13.0444 8.11738 12.7323C8.31449 10.9381 9.85082 9.51779 11.6886 9.51779C13.1199 9.51779 14.2421 10.3027 14.8709 11.457C16.5307 11.4858 17.7699 12.6791 17.7699 14.2482C17.7699 15.8314 16.5509 17.0492 14.9431 17.0492H8.94847ZM21.6497 11.1197C21.6497 12.1128 20.4924 13.6196 18.6125 13.8472C18.4336 12.1531 17.1359 10.85 15.3682 10.6273C15.2426 10.4644 15.117 10.2877 14.9733 10.129C15.1789 8.47131 16.617 7.186 17.7115 7.13373C17.9342 7.13373 18.0748 7.2392 18.0748 7.4267C18.0748 7.72811 17.6719 8.27045 17.6719 9.01623C17.6719 10.2748 18.5288 11.0837 19.9046 11.0815C20.6654 11.0815 21.1043 10.7405 21.3823 10.7405C21.5581 10.7405 21.6497 10.8833 21.6497 11.1197ZM10.4478 19.6843L11.2299 17.8791C11.2864 17.7544 11.3621 17.7034 11.5315 17.7034H12.9221C13.0681 17.7034 13.1192 17.813 13.0489 17.9548L12.5189 18.9477H13.7546C13.94 18.9477 13.9964 19.1255 13.8675 19.2577L11.1218 21.9364C10.9791 22.0515 10.8139 21.9535 10.8704 21.8096L11.6452 19.9454H10.5959C10.4457 19.9454 10.3796 19.8324 10.4478 19.6843Z" fill="white"/>
</svg>
