<svg width="28" height="28" viewBox="0 0 28 28" fill="none" xmlns="http://www.w3.org/2000/svg">
<path d="M4.38478 14.105C4.39438 8.7235 8.70173 4.38452 14.079 4.38452C14.395 4.38452 14.7109 4.40373 15.0173 4.44217C11.915 6.46272 10.1584 9.87264 10.1584 14.105C10.1584 18.3277 11.9054 21.7281 14.9905 23.7678C14.6863 23.8063 14.3821 23.8255 14.0758 23.8255C8.69423 23.8255 4.37517 19.4886 4.38478 14.105Z" fill="white"/>
<path d="M26.2121 14.105C26.2121 7.47312 20.7465 2 14.1146 2C7.49445 2 2 7.47312 2 14.105C2 20.7273 7.48484 26.21 14.105 26.21C20.7369 26.21 26.2121 20.7273 26.2121 14.105ZM4.38452 14.105C4.39412 8.7235 8.70147 4.38452 14.0787 4.38452C14.3947 4.38452 14.7106 4.40373 15.017 4.44217C11.9148 6.46272 10.1581 9.87264 10.1581 14.105C10.1581 18.3277 11.9051 21.7281 14.9902 23.7678C14.686 23.8063 14.3818 23.8255 14.0755 23.8255C8.69397 23.8255 4.37491 19.4886 4.38452 14.105Z" fill="black"/>
</svg>
