<svg width="28" height="29" viewBox="0 0 28 29" fill="none" xmlns="http://www.w3.org/2000/svg">
<path d="M8.55446 17.5006H11.8959C10.3244 16.8874 9.18984 15.3295 9.18984 13.5192C9.18984 11.134 11.1424 9.1814 13.5234 9.1814C15.9045 9.1814 17.857 11.134 17.857 13.5192C17.857 15.3295 16.7224 16.8874 15.1509 17.5006H18.4828C19.41 16.418 19.9441 15.0251 19.9441 13.5192C19.9441 9.99094 17.0304 7.08469 13.5234 7.08469C10.0069 7.08469 7.10273 9.98883 7.10273 13.5192C7.10273 15.0251 7.63899 16.418 8.55446 17.5006ZM1.12101 14.208L3.83719 14.2102C4.48453 14.2102 4.97742 13.7461 4.96781 13.1702C4.9582 12.6061 4.48453 12.1345 3.83719 12.1345H1.12101C0.477889 12.1345 0 12.5965 0 13.1702C0 13.7461 0.479998 14.208 1.12101 14.208ZM7.47023 7.47023C7.86726 7.06149 7.86516 6.39305 7.40836 5.93625L5.48531 4.01742C5.0264 3.55641 4.36969 3.56391 3.96094 3.96305C3.5543 4.36008 3.5543 5.02851 4.0132 5.48953L5.93625 7.40625C6.39305 7.86305 7.0711 7.87898 7.47023 7.47023ZM13.5234 4.96992C14.0972 4.96031 14.5612 4.47281 14.5612 3.8393V1.12101C14.5612 0.47578 14.0972 0 13.5234 0C12.9476 0 12.4856 0.47578 12.4856 1.12101V3.8393C12.4856 4.47281 12.9476 4.97953 13.5234 4.96992ZM19.5766 7.47023C19.9758 7.86937 20.6538 7.86305 21.1106 7.40625L23.0337 5.48953C23.4926 5.02851 23.483 4.36969 23.0742 3.96305C22.6868 3.5543 22.0205 3.55641 21.552 4.01742L19.6289 5.93625C19.1817 6.39305 19.1679 7.0732 19.5766 7.47023ZM23.2097 14.208L25.9259 14.2102C26.5711 14.2102 27.0469 13.7461 27.0469 13.1702C27.0469 12.6061 26.5711 12.1345 25.9259 12.1345H23.2097C22.5645 12.1345 22.0673 12.5965 22.0791 13.1702C22.0887 13.7461 22.5666 14.208 23.2097 14.208Z" fill="black"/>
<path d="M1.66164 18.7402H25.338C25.7936 18.7402 26.1374 18.4027 26.1374 17.9534C26.1374 17.5041 25.7936 17.1666 25.338 17.1666H1.66164C1.21351 17.1666 0.860076 17.5041 0.860076 17.9534C0.860076 18.4027 1.21351 18.7402 1.66164 18.7402ZM2.64883 22.5337C2.98422 22.5337 3.2664 22.2516 3.2664 21.9023C3.2664 21.5573 2.98422 21.2752 2.64883 21.2752C2.29 21.2752 2.01742 21.5573 2.01742 21.9023C2.01742 22.2516 2.29 22.5337 2.64883 22.5337ZM7.59414 22.5337C7.94125 22.5337 8.22344 22.2516 8.22344 21.9023C8.22344 21.5573 7.94125 21.2752 7.59414 21.2752C7.24703 21.2752 6.96484 21.5573 6.96484 21.9023C6.96484 22.2516 7.24703 22.5337 7.59414 22.5337ZM12.5512 22.5337C12.8866 22.5337 13.1688 22.2516 13.1688 21.9023C13.1688 21.5573 12.8866 21.2752 12.5512 21.2752C12.1924 21.2752 11.9198 21.5573 11.9198 21.9023C11.9198 22.2516 12.1924 22.5337 12.5512 22.5337ZM17.4965 22.5337C17.8436 22.5337 18.1258 22.2516 18.1258 21.9023C18.1258 21.5573 17.8436 21.2752 17.4965 21.2752C17.1494 21.2752 16.8672 21.5573 16.8672 21.9023C16.8672 22.2516 17.1494 22.5337 17.4965 22.5337ZM22.4535 22.5337C22.7889 22.5337 23.0711 22.2516 23.0711 21.9023C23.0711 21.5573 22.7889 21.2752 22.4535 21.2752C22.0947 21.2752 21.8221 21.5573 21.8221 21.9023C21.8221 22.2516 22.0947 22.5337 22.4535 22.5337ZM1.14883 25.3793C1.49594 25.3793 1.77812 25.0971 1.77812 24.7404C1.77812 24.4029 1.49594 24.1207 1.14883 24.1207C0.801718 24.1207 0.519531 24.4029 0.519531 24.7404C0.519531 25.0971 0.801718 25.3793 1.14883 25.3793ZM6.10586 25.3793C6.44125 25.3793 6.72344 25.0971 6.72344 24.7404C6.72344 24.4029 6.44125 24.1207 6.10586 24.1207C5.74703 24.1207 5.46484 24.4029 5.46484 24.7404C5.46484 25.0971 5.74703 25.3793 6.10586 25.3793ZM11.0512 25.3793C11.3983 25.3793 11.6805 25.0971 11.6805 24.7404C11.6805 24.4029 11.3983 24.1207 11.0512 24.1207C10.7041 24.1207 10.4219 24.4029 10.4219 24.7404C10.4219 25.0971 10.7041 25.3793 11.0512 25.3793ZM16.0082 25.3793C16.3436 25.3793 16.6258 25.0971 16.6258 24.7404C16.6258 24.4029 16.3436 24.1207 16.0082 24.1207C15.6494 24.1207 15.3672 24.4029 15.3672 24.7404C15.3672 25.0971 15.6494 25.3793 16.0082 25.3793ZM20.9535 25.3793C21.3006 25.3793 21.5828 25.0971 21.5828 24.7404C21.5828 24.4029 21.3006 24.1207 20.9535 24.1207C20.6064 24.1207 20.3242 24.4029 20.3242 24.7404C20.3242 25.0971 20.6064 25.3793 20.9535 25.3793ZM25.9106 25.3793C26.2459 25.3793 26.5281 25.0971 26.5281 24.7404C26.5281 24.4029 26.2459 24.1207 25.9106 24.1207C25.5517 24.1207 25.2695 24.4029 25.2695 24.7404C25.2695 25.0971 25.5517 25.3793 25.9106 25.3793ZM4.60586 28.2035C4.95297 28.2035 5.22344 27.9213 5.22344 27.5646C5.22344 27.2271 4.95297 26.947 4.60586 26.947C4.24703 26.947 3.97656 27.2271 3.97656 27.5646C3.97656 27.9213 4.24703 28.2035 4.60586 28.2035ZM9.56289 28.2035C9.89828 28.2035 10.1805 27.9213 10.1805 27.5646C10.1805 27.2271 9.89828 26.947 9.56289 26.947C9.20406 26.947 8.92188 27.2271 8.92188 27.5646C8.92188 27.9213 9.20406 28.2035 9.56289 28.2035ZM14.5082 28.2035C14.8532 28.2035 15.1258 27.9213 15.1258 27.5646C15.1258 27.2271 14.8532 26.947 14.5082 26.947C14.1494 26.947 13.8789 27.2271 13.8789 27.5646C13.8789 27.9213 14.1494 28.2035 14.5082 28.2035ZM19.4652 28.2035C19.8006 28.2035 20.0828 27.9213 20.0828 27.5646C20.0828 27.2271 19.8006 26.947 19.4652 26.947C19.1064 26.947 18.8242 27.2271 18.8242 27.5646C18.8242 27.9213 19.1064 28.2035 19.4652 28.2035ZM24.4106 28.2035C24.7556 28.2035 25.0281 27.9213 25.0281 27.5646C25.0281 27.2271 24.7556 26.947 24.4106 26.947C24.0517 26.947 23.7813 27.2271 23.7813 27.5646C23.7813 27.9213 24.0517 28.2035 24.4106 28.2035Z" fill="black"/>
</svg>
