<svg width="29" height="32" viewBox="0 0 29 32" fill="none" xmlns="http://www.w3.org/2000/svg">
<path d="M20.0022 7.62927C18.2308 7.62927 16.8599 8.59232 15.8811 10.8179C12.3878 7.3656 6.97631 4.33466 1.58076 3.92029C0.256782 3.83193 0.0470167 4.87794 0.0214699 5.60098C-0.35353 11.548 4.23038 16.7671 10.1256 17.511C8.53655 20.9373 6.35569 24.1004 3.4464 26.7561C2.90382 27.2298 3.07913 27.9257 3.38686 28.3888C4.84561 30.6503 9.4356 32.0741 12.4379 31.0346C13.2191 30.7632 13.3447 30.3111 13.3447 29.7468V25.4856C16.5925 25.2592 21.6803 23.0148 20.8736 16.3991L20.7711 15.6632C23.1946 15.0221 24.8509 13.4214 24.8509 11.7772C24.8509 9.77099 22.6454 7.62927 20.0022 7.62927ZM20.1118 9.53403C21.756 9.53403 22.9651 10.7254 22.9651 11.7772C22.9651 12.6425 21.8322 13.6506 19.506 13.9754C19.0743 14.0254 18.7933 14.3254 18.8326 14.721L18.9786 16.4523C19.4699 22.4989 14.8058 23.3671 12.0934 23.515C11.6882 23.5351 11.4008 23.8222 11.4008 24.2181V29.2771C11.4008 29.4196 11.354 29.5175 11.1871 29.5314C9.09294 29.8846 6.43678 28.9862 5.32396 27.7961C5.22928 27.6887 5.20467 27.5598 5.30053 27.4778C8.46037 24.565 10.7622 20.938 12.4131 16.997C12.6737 16.3778 12.4037 15.8704 11.7833 15.8511C6.23685 15.7337 2.07224 11.6596 1.95787 6.13559C1.95576 5.94926 2.00357 5.90239 2.19318 5.93004C7.1174 6.57528 11.7489 9.36973 14.4641 12.1302C14.991 12.6507 15.354 12.9011 15.8608 12.9011C16.6836 12.9011 17.0828 12.5029 17.5011 11.6502C18.1534 10.3009 18.7363 9.53403 20.1118 9.53403ZM17.815 9.26098L19.6269 8.62793C17.9664 4.73427 15.6606 2.04833 12.5399 0.253726C11.549 -0.312522 10.5463 0.0995088 10.2707 1.18607C9.6742 3.38638 9.43139 5.47512 9.73373 7.65856L11.8647 8.66918C11.3879 6.48996 11.4489 4.61824 11.9284 2.57965C11.9657 2.3645 12.164 2.29629 12.344 2.40809C14.6816 3.96973 16.4322 6.1152 17.815 9.26098ZM20.8768 12.1114C21.272 12.1114 21.6086 11.7887 21.6086 11.3818C21.6086 10.9867 21.272 10.6384 20.8768 10.6384C20.4604 10.6384 20.1334 10.9867 20.1334 11.3818C20.1334 11.7887 20.4604 12.1114 20.8768 12.1114ZM22.7959 13.6876L27.2441 14.3265C28.119 14.4543 28.5236 13.1779 27.639 12.8043L23.6179 11.0961L22.7959 13.6876Z" fill="black"/>
</svg>
