<svg width="28" height="29" viewBox="0 0 28 29" fill="none" xmlns="http://www.w3.org/2000/svg">
<path d="M13.5115 28.2619C19.8129 28.2619 24.0084 23.963 24.0084 17.49C24.0084 13.9343 22.4435 10.2966 19.9296 8.06414C19.8787 4.74212 17.3576 2.75134 13.5115 2.75134C9.66538 2.75134 7.15382 4.75383 7.10297 8.07375C4.59117 10.3062 3.02414 13.8958 3.02414 17.49C3.02414 23.963 7.21968 28.2619 13.5115 28.2619ZM13.5115 11.0367C15.5667 11.0367 17.6196 10.6573 19.0167 10.0786C20.5015 11.6641 21.945 14.2926 21.945 17.49C21.945 22.721 18.5709 26.2059 13.5115 26.2059C8.45202 26.2059 5.07796 22.721 5.07796 17.49C5.07796 14.3022 6.51398 11.6833 8.01585 10.0786C9.41296 10.6573 11.4658 11.0367 13.5115 11.0367ZM12.6375 26.7595H14.3182V13.2883C14.3182 12.8222 13.9371 12.4528 13.473 12.4528C13.0069 12.4528 12.6375 12.8222 12.6375 13.2883V26.7595ZM9.74999 15.1003C10.5998 15.1003 11.2835 14.3974 11.2835 13.5572C11.2835 12.7169 10.5998 12.0237 9.74999 12.0237C8.91187 12.0237 8.2282 12.7169 8.2282 13.5572C8.2282 14.3974 8.91187 15.1003 9.74999 15.1003ZM8.3428 19.7683C9.30983 19.7683 10.1086 18.9696 10.1086 17.9887C10.1086 17.0142 9.30983 16.2155 8.3428 16.2155C7.35234 16.2155 6.55359 17.01 6.55359 17.9887C6.55359 18.9696 7.35234 19.7683 8.3428 19.7683ZM9.74999 23.7951C10.5307 23.7951 11.1612 23.1689 11.1612 22.3957C11.1612 21.615 10.5307 20.9845 9.74999 20.9845C8.97679 20.9845 8.34632 21.615 8.34632 22.3957C8.34632 23.1689 8.97679 23.7951 9.74999 23.7951ZM17.2847 15.1003C18.1228 15.1003 18.8065 14.3974 18.8065 13.5572C18.8065 12.7169 18.1228 12.0237 17.2847 12.0237C16.4327 12.0237 15.7491 12.7169 15.7491 13.5572C15.7491 14.3974 16.4327 15.1003 17.2847 15.1003ZM18.6898 19.7683C19.6706 19.7683 20.479 18.9696 20.479 17.9887C20.479 17.01 19.6706 16.2155 18.6898 16.2155C17.7227 16.2155 16.9144 17.0142 16.9144 17.9887C16.9144 18.9696 17.7227 19.7683 18.6898 19.7683ZM17.2847 23.7951C18.0558 23.7951 18.6862 23.1689 18.6862 22.3957C18.6862 21.615 18.0558 20.9845 17.2847 20.9845C16.5019 20.9845 15.8714 21.615 15.8714 22.3957C15.8714 23.1689 16.5019 23.7951 17.2847 23.7951ZM8.31093 2.16891L9.07827 2.43867C9.55898 2.59969 9.72656 2.83969 9.64335 3.21305L9.48164 3.88336L11.4384 3.87164L11.5247 3.21282C11.6578 2.0086 11.0883 1.11212 9.86694 0.682976L8.96015 0.32485C7.66078 -0.122101 7.03828 1.80703 8.31093 2.16891ZM18.7216 2.16891C19.9943 1.80703 19.3718 -0.122101 18.0724 0.32485L17.1656 0.682976C15.9443 1.11212 15.3748 2.0086 15.51 3.21282L15.5941 3.87164L17.5509 3.88336L17.3892 3.21305C17.306 2.83969 17.4757 2.59969 17.9543 2.43867L18.7216 2.16891ZM6.3246 10.3261L3.88757 8.3079C3.39281 7.90243 2.77125 7.86399 2.37422 8.33977C1.98469 8.80172 2.11149 9.44766 2.60203 9.84141L5.06999 11.8692L6.3246 10.3261ZM4.06312 15.7941L1.07695 15.8079C0.425623 15.8079 0 16.2176 0 16.8103C0 17.4126 0.425623 17.8202 1.08656 17.8202L4.06312 17.8064V15.7941ZM4.93429 22.7782L2.66906 24.6813C2.19234 25.0835 2.06344 25.7135 2.45086 26.1914C2.85 26.6672 3.47038 26.6329 3.96632 26.2233L6.20272 24.3276L4.93429 22.7782ZM20.6984 10.3261L21.9626 11.8692L24.4305 9.84141C24.9115 9.44766 25.0479 8.80172 24.6583 8.33977C24.2613 7.86399 23.6397 7.90243 23.145 8.3079L20.6984 10.3261ZM22.9694 15.7941V17.8064L25.946 17.8202C26.5973 17.8202 27.0326 17.4126 27.0326 16.8103C27.0326 16.2176 26.5973 15.8079 25.9556 15.8079L22.9694 15.7941ZM22.0887 22.7782L20.8202 24.318L23.0662 26.2233C23.5526 26.6329 24.1847 26.6672 24.5817 26.1914C24.9691 25.7135 24.8402 25.0835 24.3539 24.6813L22.0887 22.7782Z" fill="black"/>
</svg>
