<svg width="28" height="28" viewBox="0 0 28 28" fill="none" xmlns="http://www.w3.org/2000/svg">
<path d="M14.105 26.21C20.7369 26.21 26.2121 20.7273 26.2121 14.105C26.2121 7.47312 20.7273 2 14.0954 2C7.47523 2 2 7.47312 2 14.105C2 20.7273 7.48484 26.21 14.105 26.21ZM14.105 23.8255C8.71085 23.8255 4.39412 19.4991 4.39412 14.105C4.39412 8.71085 8.70124 4.38452 14.0954 4.38452C19.4895 4.38452 23.8276 8.71085 23.8276 14.105C23.8276 19.4991 19.4991 23.8255 14.105 23.8255Z" fill="black"/>
<path d="M8.43735 9.71093C8.33399 10.2416 8.26367 10.9362 8.26367 11.4029C8.26367 15.3132 10.5981 17.9141 14.1578 17.9141C16.4928 17.9141 17.5574 16.5378 17.8257 16.0796L17.0671 16.0606C17.7796 16.7987 18.0589 17.5435 18.4147 18.6462C18.4871 18.8944 18.6767 18.9966 18.8652 18.9966C19.2624 18.9966 19.5948 18.6484 19.5948 18.1754C19.5948 17.4552 18.5539 16.1926 18.002 15.695C15.691 13.5748 12.2113 14.8372 11.3352 12.5122C11.2712 12.3512 11.4397 12.2199 11.6157 12.3629C13.5172 13.9878 15.7325 12.6856 17.9619 14.7134C18.1642 14.904 18.3908 14.806 18.4419 14.607C18.4653 14.4472 18.4749 14.2095 18.4749 13.9773C18.4749 11.4477 16.7167 10.1802 14.1812 10.1802C13.3363 10.1802 12.3678 10.3932 11.5995 10.3932C10.7694 10.3932 9.8518 10.3004 9.08891 9.53421C8.84938 9.29679 8.50977 9.33288 8.43735 9.71093Z" fill="black"/>
</svg>
