<svg width="28" height="28" viewBox="0 0 28 28" fill="none" xmlns="http://www.w3.org/2000/svg">
<path d="M14.105 26.21C20.7369 26.21 26.2121 20.7273 26.2121 14.105C26.2121 7.47312 20.7273 2 14.0954 2C7.47523 2 2 7.47312 2 14.105C2 20.7273 7.48484 26.21 14.105 26.21ZM14.105 23.8255C8.71085 23.8255 4.39412 19.4991 4.39412 14.105C4.39412 8.71085 8.70124 4.38452 14.0954 4.38452C19.4895 4.38452 23.8276 8.71085 23.8276 14.105C23.8276 19.4991 19.4991 23.8255 14.105 23.8255Z" fill="black"/>
<path d="M11.9728 21.7491C13.7859 21.7491 15.2432 20.2981 15.2432 18.4967C15.2432 17.558 14.8617 16.7333 14.1349 16.0737C14.0219 15.9704 14.0006 15.9043 14.0006 15.7348L14.0102 10.4159C14.0102 9.10485 13.1784 8.20696 11.9728 8.20696C10.7554 8.20696 9.93536 9.10485 9.93536 10.4159V15.7348C9.93536 15.9043 9.91614 15.9725 9.77762 16.0737C9.06044 16.727 8.68848 17.558 8.68848 18.4967C8.68848 20.2981 10.15 21.7491 11.9728 21.7491ZM11.9728 20.705C10.7301 20.705 9.75395 19.7213 9.75395 18.4841C9.75395 17.7254 10.0992 17.0656 10.7247 16.6468C10.9251 16.5242 10.9912 16.4059 10.9912 16.1469V10.4532C10.9912 9.73813 11.377 9.28204 11.9728 9.28204C12.5493 9.28204 12.9351 9.73813 12.9351 10.4532V16.1469C12.9351 16.4059 13.0033 16.5242 13.2037 16.6468C13.8271 17.0656 14.1841 17.7254 14.1841 18.4841C14.1841 19.7213 13.1866 20.705 11.9728 20.705ZM11.9632 19.9463C12.7827 19.9463 13.4329 19.2845 13.4329 18.4745C13.4329 17.9117 13.1099 17.4427 12.6346 17.1859C12.4535 17.0921 12.397 17.0143 12.397 16.7394V15.5757C12.397 15.2719 12.2062 15.0812 11.9632 15.0812C11.718 15.0812 11.5368 15.2719 11.5368 15.5757V16.7394C11.5368 17.0143 11.4803 17.0921 11.2778 17.1859C10.8281 17.4427 10.503 17.9117 10.503 18.4745C10.503 19.2941 11.1532 19.9463 11.9632 19.9463ZM16.4526 16.6377C16.7327 16.6377 16.9136 16.3969 16.9115 16.1148L16.8998 15.328L17.5192 15.6755C17.7524 15.8066 18.0027 15.7459 18.1263 15.5403C18.2594 15.3017 18.156 15.0664 17.9345 14.9216L16.8956 14.3152L16.8721 12.357L18.5479 13.3548V14.544C18.5479 14.8177 18.7204 15.0062 18.9867 15.0158C19.2253 15.02 19.4041 14.8144 19.4041 14.5653L19.4137 13.8584L20.1131 14.2571C20.3739 14.4104 20.6519 14.368 20.7946 14.139C20.932 13.8823 20.8223 13.6119 20.5795 13.4766L19.8684 13.0609L20.4782 12.7016C20.688 12.5684 20.7796 12.3235 20.6582 12.1159C20.5251 11.8869 20.261 11.8475 20.0395 11.9806L18.9984 12.5635L17.297 11.6169L19.0122 10.6585L20.0491 11.251C20.2802 11.382 20.5464 11.3523 20.6699 11.1275C20.8148 10.9102 20.6997 10.6632 20.4878 10.5397L19.8897 10.1687L20.5891 9.77634C20.8457 9.61977 20.932 9.35142 20.7946 9.1161C20.6498 8.8829 20.3676 8.80837 20.1344 8.95532L19.4254 9.3615V8.66423C19.4254 8.39798 19.2508 8.20626 19.008 8.20415C18.7438 8.20415 18.5692 8.39798 18.5692 8.68767L18.5596 9.87689L16.8721 10.8767L16.8956 8.9047L17.9324 8.29837C18.1827 8.15352 18.2477 7.92032 18.1359 7.69345C18.0145 7.46235 17.7482 7.42298 17.5171 7.54649L16.8998 7.90368L16.9115 7.11899C16.9136 6.8368 16.7327 6.60571 16.4526 6.60571C16.1725 6.60571 15.9841 6.83891 15.9862 7.11899L15.9883 7.90368L15.3806 7.54649C15.1495 7.41337 14.8949 7.47196 14.7714 7.69134C14.6383 7.91821 14.732 8.15352 14.9652 8.29837L16.0042 8.9047L16.0277 10.8767L14.807 10.1434C14.8506 10.4905 14.8741 10.7945 14.8837 11.2072L15.6006 11.6169L14.8837 12.0148V13.0468L16.0277 12.357L16.0042 14.3152L15.0353 14.8834C15.097 15.1208 15.3337 15.4255 15.5383 15.5956L15.9883 15.3184L15.9862 16.1148C15.9841 16.4108 16.1725 16.6377 16.4526 16.6377Z" fill="black"/>
</svg>
