<svg width="28" height="28" viewBox="0 0 28 28" fill="none" xmlns="http://www.w3.org/2000/svg">
<path d="M14.105 26.21C20.7369 26.21 26.2121 20.7273 26.2121 14.105C26.2121 7.47312 20.7273 2 14.0954 2C7.47523 2 2 7.47312 2 14.105C2 20.7273 7.48484 26.21 14.105 26.21ZM14.105 23.8255C8.71085 23.8255 4.39412 19.4991 4.39412 14.105C4.39412 8.71085 8.70124 4.38452 14.0954 4.38452C19.4895 4.38452 23.8276 8.71085 23.8276 14.105C23.8276 19.4991 19.4991 23.8255 14.105 23.8255Z" fill="black"/>
<path d="M9.13668 16.9376H14.9091C16.4595 16.9376 17.6349 15.7538 17.6349 14.228C17.6349 12.7184 16.4393 11.5806 14.839 11.5496C14.2378 10.4272 13.155 9.68376 11.7736 9.68376C10.0093 9.68376 8.53247 11.037 8.34497 12.7812C7.46489 13.0796 6.85645 13.8467 6.85645 14.828C6.85645 16.0522 7.77918 16.9376 9.13668 16.9376ZM9.69285 19.3735L10.3313 18.2736C10.4623 18.0659 10.392 17.8018 10.1651 17.6825C9.95746 17.5536 9.69543 17.6335 9.58575 17.8369L8.9452 18.939C8.8259 19.1424 8.88871 19.4183 9.10387 19.528C9.30731 19.6494 9.58317 19.5812 9.69285 19.3735ZM11.1992 20.5988L11.7992 19.5544C11.9185 19.3489 11.8599 19.0773 11.6351 18.9537C11.42 18.8441 11.1633 18.9027 11.0344 19.1178L10.4248 20.1643C10.3034 20.3794 10.3854 20.6415 10.6102 20.7629C10.8061 20.8843 11.0799 20.8044 11.1992 20.5988ZM13.4696 19.3735L14.1122 18.2832C14.2432 18.0659 14.1612 17.8114 13.9439 17.6825C13.7288 17.5632 13.4668 17.6239 13.3453 17.8273L12.7144 18.9294C12.6068 19.1328 12.6558 19.4087 12.8848 19.528C13.0978 19.6398 13.3503 19.5673 13.4696 19.3735ZM14.9494 20.6084L15.5632 19.5544C15.6729 19.351 15.608 19.0677 15.395 18.9537C15.1798 18.8441 14.9253 18.9144 14.7943 19.1178L14.1825 20.1643C14.0632 20.3773 14.1432 20.6415 14.3625 20.7629C14.5681 20.8843 14.8301 20.8044 14.9494 20.6084ZM21.3743 11.2187C21.3743 11.0077 21.2827 10.865 21.109 10.865C20.847 10.865 20.4218 11.1847 19.6887 11.1847C18.3661 11.1868 17.539 10.4131 17.539 9.20024C17.539 8.48001 17.926 7.96532 17.926 7.65852C17.926 7.49446 17.7896 7.37938 17.5786 7.38899C16.516 7.42954 15.1353 8.68509 14.9414 10.2833C15.083 10.4302 15.1948 10.591 15.3183 10.7518C17.0189 10.9627 18.271 12.2201 18.4477 13.8547C20.2585 13.6238 21.3743 12.1819 21.3743 11.2187Z" fill="black"/>
</svg>
