<svg width="28" height="28" viewBox="0 0 28 28" fill="none" xmlns="http://www.w3.org/2000/svg">
<path d="M14.105 26.2301C20.7369 26.2301 26.2121 20.7549 26.2121 14.123C26.2121 7.50291 20.7273 2.01807 14.0954 2.01807C7.47523 2.01807 2 7.50291 2 14.123C2 20.7549 7.48484 26.2301 14.105 26.2301Z" fill="black"/>
<path d="M9.94088 14.9574C9.36713 14.1165 9.03009 13.0974 9.03009 11.9684C9.03009 9.74256 10.2936 7.80241 12.1686 7.0353C12.4869 6.90756 12.7574 6.94061 12.8989 7.10561C13.0192 7.27811 13.0426 7.51553 12.9053 7.79115C12.7039 8.19686 12.591 8.89928 12.591 9.57076C12.591 12.0732 14.2365 13.6677 16.8114 13.6677C17.4402 13.6677 17.9879 13.576 18.426 13.3906C18.6932 13.2842 18.9081 13.3173 19.0539 13.4396C19.2071 13.6004 19.2306 13.8622 19.1146 14.1474C18.9854 14.4462 18.8371 14.7259 18.6364 14.9574H9.94088ZM8.20463 16.7804C7.93955 16.7804 7.74689 16.5856 7.74689 16.3205C7.74689 16.0555 7.93955 15.8607 8.20463 15.8607H20.7618C21.0268 15.8607 21.2216 16.0555 21.2216 16.3205C21.2216 16.5856 21.0268 16.7804 20.7618 16.7804H8.20463ZM7.43821 18.5183C7.17313 18.5183 6.96875 18.3139 6.96875 18.0488C6.96875 17.7934 7.17313 17.5911 7.43821 17.5911H19.9836C20.2487 17.5911 20.4435 17.7934 20.4435 18.0488C20.4435 18.3139 20.2487 18.5183 19.9836 18.5183H7.43821ZM8.20463 20.2466C7.93955 20.2466 7.74689 20.0497 7.74689 19.7846C7.74689 19.5216 7.93955 19.3269 8.20463 19.3269H20.7618C21.0268 19.3269 21.2216 19.5216 21.2216 19.7846C21.2216 20.0497 21.0268 20.2466 20.7618 20.2466H8.20463Z" fill="white"/>
</svg>
