<svg width="28" height="28" viewBox="0 0 28 28" fill="none" xmlns="http://www.w3.org/2000/svg">
<path d="M14.105 26.2301C20.7369 26.2301 26.2121 20.7549 26.2121 14.123C26.2121 7.50291 20.7273 2.01807 14.0954 2.01807C7.47523 2.01807 2 7.50291 2 14.123C2 20.7549 7.48484 26.2301 14.105 26.2301Z" fill="black"/>
<path d="M9.77886 18.5867C7.92847 18.5867 6.68652 17.4247 6.68652 15.7587C6.68652 14.4601 7.52511 13.3958 8.77363 13.0285C9.0141 10.5919 11.0267 8.74622 13.4536 8.74622C15.3094 8.74622 16.8117 9.70435 17.6182 11.3494C19.8598 11.3206 21.525 12.8769 21.525 14.9562C21.525 17.008 19.8898 18.5867 17.7975 18.5867H9.77886Z" fill="white"/>
</svg>
