<svg width="28" height="28" viewBox="0 0 28 28" fill="none" xmlns="http://www.w3.org/2000/svg">
<path d="M1.34828 4.43061C1.09586 5.63015 1 7.20772 1 8.26968C1 17.1408 6.29711 22.9973 14.384 22.9973C19.6792 22.9973 22.0933 19.8558 22.6691 18.8768L20.9322 18.7868C22.5526 20.4902 23.2028 22.1885 23.9889 24.6628C24.171 25.2443 24.5788 25.4751 25.0312 25.4751C25.9448 25.4751 26.6741 24.683 26.6741 23.6116C26.6741 21.9712 24.3032 19.1166 23.0793 17.9672C17.8579 13.1421 9.93601 16.0357 7.96046 10.7838C7.81867 10.4086 8.21312 10.1055 8.55554 10.4597C12.6175 14.6334 17.9387 11.1473 22.9823 15.7819C23.4355 16.1841 23.9781 15.9818 24.0611 15.4987C24.1197 15.161 24.1569 14.6262 24.1569 14.0937C24.1569 8.3496 20.1768 5.46702 14.4212 5.46702C12.5188 5.46702 10.2894 5.94304 8.55835 5.94304C6.68851 5.94304 4.5864 5.80546 2.88835 4.00921C2.34671 3.46007 1.55055 3.57257 1.34828 4.43061Z" fill="black"/>
</svg>
