<svg width="28" height="28" viewBox="0 0 28 28" fill="none" xmlns="http://www.w3.org/2000/svg">
<path d="M6 25.0799C6 25.6354 6.4268 26.0865 7.02046 26.0865C14.1361 26.0865 19.8042 21.0986 19.8042 13.5433C19.8042 10.1629 17.017 7.3757 13.6462 7.3757C12.529 7.3757 11.4811 7.72562 10.6359 8.31766C12.4165 4.98812 16.0179 3.00577 20.2741 3.00577C20.8657 3.00577 21.2946 2.55882 21.2946 1.99492C21.2946 1.43945 20.8657 1 20.2741 1C13.1585 1 7.5 5.97835 7.5 13.5433C7.5 16.914 10.2872 19.7012 13.6462 19.7012C14.7752 19.7012 15.8114 19.3513 16.6587 18.7689C14.8781 22.0963 11.265 24.0808 7.02046 24.0808C6.4268 24.0808 6 24.5181 6 25.0799ZM11.9217 13.5433C11.9217 12.5973 12.7015 11.8272 13.6378 11.8272C14.5837 11.8272 15.3539 12.5973 15.3539 13.5433C15.3539 14.4679 14.5837 15.2594 13.6378 15.2594C12.7015 15.2594 11.9217 14.4796 11.9217 13.5433Z" fill="black"/>
</svg>
