<svg width="28" height="29" viewBox="0 0 28 29" fill="none" xmlns="http://www.w3.org/2000/svg">
<path d="M7.28088 22.8701L8.0091 21.5885C8.2348 21.2116 8.12299 20.7539 7.7419 20.5282C7.36293 20.3121 6.92535 20.4494 6.69754 20.8251L5.95762 22.1355C5.75535 22.4911 5.8416 22.9392 6.2323 23.1649C6.61129 23.381 7.06691 23.2448 7.28088 22.8701ZM12.3903 24.663L14.1593 21.6023C14.3733 21.2158 14.2657 20.7677 13.8942 20.5495C13.5035 20.3238 13.066 20.4558 12.8478 20.8486L11.0691 23.9285C10.8551 24.2937 10.9606 24.7418 11.3513 24.9579C11.7228 25.174 12.1859 25.0399 12.3903 24.663ZM19.5621 22.9169L20.2903 21.6354C20.516 21.2585 20.4042 20.8008 20.0232 20.5751C19.6421 20.359 19.2066 20.4963 18.9767 20.872L18.2389 22.1824C18.0366 22.538 18.1228 22.9861 18.5114 23.2118C18.8925 23.4279 19.3481 23.2821 19.5621 22.9169ZM5.08644 26.4825C5.80526 26.4825 6.40058 25.8754 6.40058 25.1449C6.40058 24.4399 5.80526 23.8425 5.08644 23.8425C4.35801 23.8425 3.7627 24.4399 3.7627 25.1449C3.7627 25.8754 4.35801 26.4825 5.08644 26.4825ZM10.1958 28.2754C10.9146 28.2754 11.5217 27.6705 11.5217 26.9379C11.5217 26.2329 10.9242 25.6354 10.1958 25.6354C9.4791 25.6354 8.88168 26.2329 8.88168 26.9379C8.88168 27.6705 9.4791 28.2754 10.1958 28.2754ZM17.3677 26.5294C18.0865 26.5294 18.6818 25.9223 18.6818 25.1918C18.6818 24.4847 18.0865 23.8797 17.3677 23.8797C16.6392 23.8797 16.0439 24.4847 16.0439 25.1918C16.0439 25.9223 16.6392 26.5294 17.3677 26.5294Z" fill="black"/>
<path d="M5.67866 18.6407H20.2786C24.2004 18.6407 27.1336 15.6594 27.1336 11.9488C27.1336 8.1283 24.0593 5.29448 20.0318 5.29448C18.5923 2.46322 15.9178 0.549316 12.3666 0.549316C7.87593 0.549316 4.23257 4.00424 3.79101 8.36455C1.63828 9.02361 0 10.8972 0 13.4225C0 16.3264 2.12531 18.6407 5.67866 18.6407ZM5.68265 16.4472C3.35624 16.4472 2.19139 15.1607 2.19139 13.4832C2.19139 12.0918 3.01803 10.8873 4.97647 10.3705C5.65053 10.1884 5.87858 9.87533 5.94983 9.19166C6.28264 5.34486 9.05038 2.74282 12.3666 2.74282C14.9231 2.74282 16.9594 4.1622 18.2313 6.71618C18.5156 7.30517 18.8714 7.51071 19.586 7.51071C23.0632 7.51071 24.9422 9.54181 24.9422 11.9999C24.9422 14.4744 22.9896 16.4472 20.3536 16.4472H5.68265Z" fill="black"/>
</svg>
