<svg width="28" height="28" viewBox="0 0 28 28" fill="none" xmlns="http://www.w3.org/2000/svg">
<path d="M14.105 26.21C20.7369 26.21 26.2121 20.7369 26.2121 14.105C26.2121 7.48273 20.7273 2 14.0954 2C7.47523 2 2 7.48273 2 14.105C2 20.7369 7.48484 26.21 14.105 26.21ZM14.105 23.8255C8.71085 23.8255 4.39412 19.4991 4.39412 14.105C4.39412 8.72046 8.70124 4.38452 14.0954 4.38452C19.4895 4.38452 23.8276 8.72046 23.8276 14.105C23.8276 19.4991 19.4991 23.8255 14.105 23.8255Z" fill="black"/>
<path d="M16.5957 7.13047C16.8917 6.34672 16.0367 5.90492 15.5267 6.54383L12.4828 10.3489L14.5985 12.4646L16.5957 7.13047ZM14.7818 12.6479L17.4401 15.3062L18.7543 13.6775C18.8757 13.5134 18.9481 13.3505 18.9481 13.1898C18.9481 12.8778 18.6968 12.6479 18.3732 12.6479H14.7818ZM13.1813 15.3127L10.576 12.7032L9.30634 14.2852C9.18283 14.4493 9.10291 14.6101 9.10291 14.7634C9.10291 15.0849 9.36166 15.3127 9.67572 15.3127H13.1813ZM15.5311 17.6722L13.395 15.5265L11.3881 20.9166C11.0899 21.7121 11.9353 22.1443 12.4453 21.5129L15.5311 17.6722ZM19.399 20.2323C19.6193 20.4505 20.0025 20.4547 20.2229 20.2323C20.4549 19.9927 20.4549 19.6384 20.2229 19.4084L8.80384 7.97984C8.57392 7.74992 8.19821 7.74992 7.96829 7.97984C7.73626 8.20015 7.74587 8.58335 7.96829 8.80578L19.399 20.2323Z" fill="black"/>
</svg>
