<svg width="28" height="28" viewBox="0 0 28 28" fill="none" xmlns="http://www.w3.org/2000/svg">
<path d="M14.105 26.2301C20.7369 26.2301 26.2121 20.7549 26.2121 14.123C26.2121 7.50291 20.7273 2.01807 14.0954 2.01807C7.47523 2.01807 2 7.50291 2 14.123C2 20.7549 7.48484 26.2301 14.105 26.2301Z" fill="black"/>
<path d="M9 16.9995C9 14.6462 10.1145 13.8697 10.1145 12.4027C10.1145 12.0769 10.0697 11.7186 10.0697 11.5313C10.0697 11.2025 10.2623 10.9906 10.5635 10.9906C11.1157 10.9906 11.7469 11.4237 12.1271 12.1789C12.1613 12.0266 12.1763 11.888 12.17 11.7303C12.1266 10.5467 11.3909 9.52739 10.6502 8.62903C10.5129 8.46825 10.4341 8.2756 10.4341 8.09466C10.4341 7.6306 10.8546 7.38263 11.502 7.38263C14.9264 7.38263 19.8945 9.81287 19.8945 15.6303C19.8945 19.127 17.5943 21.4698 14.1319 21.4698C11.0391 21.4698 9 19.6885 9 16.9995ZM12.2862 17.7109C12.2862 18.7808 13.0993 19.5097 14.3002 19.5097C15.7997 19.5097 16.5561 18.4182 16.5561 17.1247C16.5561 15.8527 15.8316 14.4662 14.4249 13.8298C14.3473 13.8001 14.2911 13.8362 14.3091 13.9468C14.4188 14.9265 14.3002 15.8668 13.9634 16.3609C13.7886 15.9699 13.6191 15.6406 13.3313 15.3987C13.2675 15.3254 13.1996 15.3636 13.1996 15.4562C13.0866 16.2102 12.2862 16.5887 12.2862 17.7109Z" fill="white"/>
</svg>
