<svg width="28" height="28" viewBox="0 0 28 28" fill="none" xmlns="http://www.w3.org/2000/svg">
<path d="M3.70736 27.3542L7.14001 21.4168C7.36361 21.0207 7.24642 20.5821 6.86533 20.3661C6.48423 20.1403 6.05416 20.2627 5.82845 20.663L2.38619 26.6196C2.18181 26.9773 2.27767 27.4233 2.65877 27.649C3.03986 27.8651 3.49337 27.731 3.70736 27.3542ZM8.38736 27.3521L11.8104 21.4146C12.034 21.0185 11.9243 20.58 11.5453 20.3639C11.1546 20.1361 10.7246 20.2606 10.4989 20.6609L7.06408 26.6175C6.86181 26.9731 6.94806 27.4212 7.33877 27.6469C7.71775 27.863 8.17337 27.7268 8.38736 27.3521ZM13.0472 27.3542L16.4703 21.4168C16.6939 21.0207 16.5842 20.5821 16.2052 20.3661C15.8145 20.1403 15.3844 20.2627 15.1587 20.663L11.7239 26.6196C11.5217 26.9773 11.6079 27.4233 11.9986 27.649C12.3776 27.8651 12.8332 27.731 13.0472 27.3542ZM17.6867 27.3617L21.1385 21.3954C21.3525 21.0185 21.2449 20.5587 20.8639 20.3639C20.4924 20.1575 20.0527 20.2606 19.8366 20.6492L16.4039 26.5983C16.1803 26.9731 16.2858 27.4212 16.6573 27.6469C17.0192 27.863 17.4823 27.7268 17.6867 27.3617Z" fill="black"/>
<path d="M5.67866 18.3793H20.2786C24.2004 18.3793 27.1336 15.398 27.1336 11.6874C27.1336 7.86683 24.0593 5.033 20.0318 5.033C18.5923 2.20175 15.9178 0.287842 12.3666 0.287842C7.87593 0.287842 4.23257 3.74277 3.79101 8.10308C1.63828 8.76214 0 10.6358 0 13.1611C0 16.065 2.12531 18.3793 5.67866 18.3793ZM5.68265 16.1858C3.35624 16.1858 2.19139 14.8993 2.19139 13.2218C2.19139 11.8304 3.01803 10.6259 4.97647 10.1091C5.65053 9.92698 5.87858 9.61385 5.94983 8.93018C6.28264 5.08339 9.05038 2.48135 12.3666 2.48135C14.9231 2.48135 16.9594 3.90072 18.2313 6.45471C18.5156 7.04369 18.8714 7.24924 19.586 7.24924C23.0632 7.24924 24.9422 9.28034 24.9422 11.7385C24.9422 14.213 22.9896 16.1858 20.3536 16.1858H5.68265Z" fill="black"/>
</svg>
