<svg width="30" height="33" viewBox="0 0 30 33" fill="none" xmlns="http://www.w3.org/2000/svg">
<path d="M13.4674 0.0576477C10.0992 0.0576477 8.52633 5.09062 8.52633 7.29796C8.52633 10.1416 10.4147 10.4287 10.4147 10.8558C10.4147 10.9922 10.2942 11.0817 10.092 11.2191L6.4725 13.6069L5.5657 12.4582C5.24812 12.0373 5.38031 11.3412 6.13594 11.3412C6.89109 11.3412 7.38843 10.83 7.38843 10.159C7.38843 9.48795 6.84422 8.95335 6.18281 8.95335C5.5118 8.95335 4.96758 9.48795 4.96758 10.159C4.96758 10.2485 4.97719 10.323 4.98891 10.3934C5.10398 11.2259 3.84914 10.9348 4.32351 10.2973C4.47797 10.0917 4.56422 9.83928 4.56422 9.57303C4.56422 8.90202 4.02 8.36741 3.34898 8.36741C2.68547 8.36741 2.14125 8.90202 2.14125 9.57303C2.14125 10.1013 2.4682 10.5028 2.92406 10.7159C3.59461 11.025 2.83336 11.813 2.47195 11.2884C2.24718 10.9636 1.86914 10.7463 1.45055 10.7463C0.78703 10.7463 0.242812 11.2809 0.242812 11.9519C0.242812 12.623 0.78703 13.1693 1.45055 13.1693C1.68914 13.1693 1.90851 13.0948 2.10023 12.9776C2.61703 12.6537 3.02953 12.6792 3.45047 13.2152L5.25305 15.5217C5.70891 16.1182 6.47578 16.3823 7.1489 16.0127L8.67164 15.1758L8.09742 15.079C7.77469 16.1623 7.56164 17.4926 7.64039 19.1201L8.33835 18.7669L6.90609 17.981C6.23297 17.6114 5.4757 17.8755 5.01023 18.4699L3.21727 20.7785C2.78672 21.3049 2.38172 21.3401 1.85531 21.0162C1.6657 20.899 1.44633 20.8244 1.21523 20.8244C0.544218 20.8244 0 21.3687 0 22.0418C0 22.7032 0.544218 23.2474 1.21523 23.2474C1.62633 23.2474 2.01187 23.028 2.22914 22.6957C2.59055 22.1808 3.3593 22.9591 2.68125 23.2779C2.22539 23.4813 1.89844 23.8924 1.89844 24.409C1.89844 25.0821 2.44266 25.6263 3.11367 25.6263C3.77719 25.6263 4.3214 25.0821 4.3214 24.409C4.3214 24.1448 4.23515 23.902 4.09031 23.6869C3.60632 23.059 4.86117 22.7679 4.74609 23.5983C4.73227 23.6707 4.72266 23.7527 4.72266 23.8348C4.72266 24.4962 5.26687 25.0404 5.94 25.0404C6.61101 25.0404 7.14562 24.4962 7.14562 23.8348C7.14562 23.1616 6.64828 22.6526 5.89312 22.6526C5.14711 22.6526 5.0032 21.9523 5.32289 21.5334L6.2393 20.389L10.1939 23.573C9.92766 28.6723 14.4797 32.8687 20.4661 32.8687C25.6488 32.8687 28.256 29.6681 29.0154 28.3047C30.1099 26.3149 28.065 24.7427 26.3836 26.0276C24.9375 27.1931 23.1855 27.4383 21.7821 27.4383C19.7374 27.4383 17.1497 25.8204 16.9816 23.3599L20.6784 20.389L21.5831 21.5334C21.9145 21.9523 21.7706 22.6526 21.0246 22.6526C20.2598 22.6526 19.77 23.1616 19.77 23.8348C19.77 24.4962 20.3046 25.0404 20.9777 25.0404C21.6487 25.0404 22.193 24.4962 22.193 23.8348C22.193 23.7431 22.1834 23.6611 22.1716 23.5887C22.0662 22.7679 23.3093 23.059 22.8253 23.6869C22.6805 23.902 22.5963 24.1448 22.5963 24.409C22.5963 25.0821 23.1405 25.6263 23.8019 25.6263C24.473 25.6263 25.0172 25.0821 25.0172 24.409C25.0172 23.8924 24.6923 23.4813 24.2365 23.2779C23.5563 22.9591 24.3155 22.1808 24.6886 22.6957C24.9037 23.028 25.2914 23.2474 25.7004 23.2474C26.3714 23.2474 26.9156 22.7032 26.9156 22.0418C26.9156 21.3687 26.3714 20.8244 25.7004 20.8244C25.4693 20.8244 25.252 20.899 25.0507 21.0162C24.5339 21.3401 24.1214 21.3049 23.7005 20.7785L21.9054 18.4699C21.4399 17.8755 20.6827 17.6114 20.0116 17.981L18.589 18.7573L19.2848 19.1105C19.3636 17.4926 19.1602 16.1623 18.8278 15.079L18.2557 15.1758L19.7784 16.0127C20.4494 16.3823 21.2163 16.1182 21.6722 15.5217L23.4748 13.2152C23.8957 12.6792 24.3103 12.6537 24.8271 12.9776C25.0188 13.0948 25.2361 13.1693 25.4768 13.1693C26.1382 13.1693 26.6824 12.623 26.6824 11.9519C26.6824 11.2809 26.1382 10.7463 25.4768 10.7463C25.0582 10.7463 24.6802 10.9636 24.4533 11.2884C24.0919 11.813 23.3327 11.025 24.0012 10.7159C24.457 10.5028 24.784 10.1013 24.784 9.57303C24.784 8.90202 24.2398 8.36741 23.5784 8.36741C22.9052 8.36741 22.361 8.90202 22.361 9.57303C22.361 9.83928 22.4473 10.0917 22.6017 10.2973C23.0761 10.9348 21.8309 11.2259 21.9384 10.403C21.9502 10.3327 21.9598 10.2485 21.9598 10.159C21.9598 9.48795 21.4155 8.95335 20.7424 8.95335C20.081 8.95335 19.5368 9.48795 19.5368 10.159C19.5368 10.83 20.0341 11.3412 20.7893 11.3412C21.5449 11.3412 21.6771 12.0373 21.3595 12.4582L20.4548 13.6069L16.8162 11.2191C16.6169 11.0805 16.4838 10.9922 16.4838 10.8558C16.4838 10.4836 18.401 10.1034 18.401 7.29796C18.401 5.09062 16.826 0.0576477 13.4674 0.0576477ZM13.4674 2.12693C15.2541 2.12693 16.3453 5.63952 16.3453 7.27264C16.3453 9.32507 14.5678 9.26788 14.5678 10.8504C14.5678 12.2058 17.5427 13.9828 17.5427 18.4559C17.5427 20.3909 16.9875 21.2119 14.7117 22.638C14.5913 26.929 18.5475 29.3067 22.1527 29.3067C23.2573 29.3067 25.2354 29.0955 26.8418 27.8472C26.9815 27.7256 27.1542 27.8578 27.0253 28.0594C26.2064 29.1607 24.1887 30.9593 20.4661 30.9593C15.1673 30.9593 11.449 27.2808 12.281 22.7116C9.93984 21.2599 9.3846 20.4164 9.3846 18.4559C9.3846 13.9828 12.3574 12.2058 12.3574 10.8504C12.3574 9.25827 10.5799 9.32507 10.5799 7.27264C10.5799 5.63952 11.6733 2.12693 13.4674 2.12693Z" fill="black"/>
</svg>
