<svg width="28" height="29" viewBox="0 0 28 29" fill="none" xmlns="http://www.w3.org/2000/svg">
<path d="M8.68281 7.86468L10.4033 9.58522C11.1487 8.35896 11.9345 7.17537 12.7108 6.01731C12.7748 5.91067 12.8739 5.89802 12.9463 6.01731C14.4888 8.34232 16.1315 10.7512 17.3552 13.6064C17.871 14.7705 18.5535 16.5026 18.6 17.37C18.6042 17.5289 18.6009 17.6377 18.5859 17.7581L21.0494 20.2195C21.1143 19.8267 21.1495 19.418 21.1495 18.9879C21.1495 16.642 20.2237 14.2425 19.4238 12.4709C18.1783 9.71203 16.2813 6.69937 14.5851 4.07835C14.1349 3.39398 13.5815 2.9864 12.8237 2.9864C12.0447 2.9864 11.5127 3.39398 11.0603 4.07835C10.2707 5.2814 9.4661 6.57304 8.68281 7.86468ZM12.8237 27.1261C15.3635 27.1261 17.4663 26.2737 18.9255 24.8044L17.2335 23.1241C16.1955 24.1915 14.6648 24.795 12.8237 24.795C9.21741 24.795 6.81741 22.4749 6.81741 18.9879C6.81741 17.25 7.46476 15.5327 8.10109 14.0055L6.32407 12.2306C5.37837 14.3564 4.49805 16.6905 4.49805 18.9879C4.49805 23.868 7.8243 27.1261 12.8237 27.1261ZM21.4469 7.33523C23.5089 7.33523 25.1172 5.72695 25.1172 3.67242C25.1172 1.61039 23.5089 0 21.4469 0C19.3945 0 17.7841 1.61039 17.7841 3.67242C17.7841 5.72695 19.3945 7.33523 21.4469 7.33523ZM21.4469 5.5057C20.4173 5.5057 19.6115 4.70203 19.6115 3.67242C19.6115 2.6332 20.4173 1.82741 21.4469 1.82741C22.484 1.82741 23.2898 2.6332 23.2898 3.67242C23.2898 4.70203 22.484 5.5057 21.4469 5.5057Z" fill="black"/>
<path d="M22.5035 26.3569C22.8773 26.719 23.4726 26.7211 23.823 26.3569C24.183 25.9851 24.1969 25.4015 23.823 25.0373L4.59845 5.81692C4.23424 5.45271 3.64103 5.45271 3.26721 5.81692C2.91682 6.17692 2.9051 6.77434 3.26721 7.13645L22.5035 26.3569Z" fill="black"/>
</svg>
