<svg width="28" height="29" viewBox="0 0 28 29" fill="none" xmlns="http://www.w3.org/2000/svg">
<path d="M12.3257 27.1261C17.3251 27.124 20.6514 23.868 20.6514 18.9879C20.6514 16.642 19.7256 14.2425 18.9257 12.4709C17.6802 9.71203 15.7832 6.69937 14.087 4.07835C13.6368 3.39398 13.0834 2.9864 12.3257 2.9864C11.5466 2.9864 11.0146 3.39398 10.5623 4.07835C8.85555 6.72046 6.94586 9.7521 5.69828 12.5278C4.90352 14.2762 4 16.6568 4 18.9879C4 23.868 7.32625 27.124 12.3257 27.1261ZM20.9488 7.33523C23.0108 7.33523 24.6191 5.72695 24.6191 3.67242C24.6191 1.61039 23.0108 0 20.9488 0C18.8964 0 17.286 1.61039 17.286 3.67242C17.286 5.72695 18.8964 7.33523 20.9488 7.33523ZM20.9488 5.5057C19.9192 5.5057 19.1134 4.70203 19.1134 3.67242C19.1134 2.6332 19.9192 1.82741 20.9488 1.82741C21.9859 1.82741 22.7917 2.6332 22.7917 3.67242C22.7917 4.70203 21.9859 5.5057 20.9488 5.5057Z" fill="black"/>
</svg>
