<svg width="28" height="28" viewBox="0 0 28 28" fill="none" xmlns="http://www.w3.org/2000/svg">
<path d="M14.105 26.21C20.7369 26.21 26.2121 20.7273 26.2121 14.105C26.2121 7.47312 20.7273 2 14.0954 2C7.47523 2 2 7.47312 2 14.105C2 20.7273 7.48484 26.21 14.105 26.21ZM14.105 23.8255C8.71085 23.8255 4.39412 19.4991 4.39412 14.105C4.39412 8.71085 8.70124 4.38452 14.0954 4.38452C19.4895 4.38452 23.8276 8.71085 23.8276 14.105C23.8276 19.4991 19.4991 23.8255 14.105 23.8255Z" fill="black"/>
<path d="M9.13668 16.9376H14.9091C16.4595 16.9376 17.6349 15.7538 17.6349 14.228C17.6349 12.7184 16.4393 11.5806 14.839 11.5496C14.2378 10.4272 13.155 9.68376 11.7736 9.68376C10.0093 9.68376 8.53247 11.037 8.34497 12.7812C7.46489 13.0796 6.85645 13.8467 6.85645 14.828C6.85645 16.0522 7.77918 16.9376 9.13668 16.9376ZM21.3743 11.2187C21.3743 11.0077 21.2827 10.865 21.109 10.865C20.847 10.865 20.4218 11.1847 19.6887 11.1847C18.3661 11.1868 17.539 10.4131 17.539 9.20024C17.539 8.48001 17.926 7.96532 17.926 7.65852C17.926 7.49446 17.7896 7.37938 17.5786 7.38899C16.516 7.42954 15.1353 8.68509 14.9414 10.2833C15.083 10.4302 15.1948 10.591 15.3183 10.7518C17.0189 10.9627 18.271 12.2201 18.4477 13.8547C20.2585 13.6238 21.3743 12.1819 21.3743 11.2187ZM10.5903 19.4738C10.5221 19.6102 10.5882 19.7232 10.7363 19.7232H11.742L10.9969 21.5204C10.9404 21.6622 11.1057 21.7602 11.2346 21.6355L13.8729 19.0578C13.9901 18.9352 13.9357 18.7595 13.7621 18.7595H12.5721L13.0882 17.7943C13.1564 17.6717 13.1075 17.5545 12.9614 17.5545H11.6325C11.4748 17.5545 11.3991 17.6131 11.3426 17.7378L10.5903 19.4738Z" fill="black"/>
</svg>
