<svg width="28" height="28" viewBox="0 0 28 28" fill="none" xmlns="http://www.w3.org/2000/svg">
<path d="M14.105 26.2301C20.7369 26.2301 26.2121 20.7549 26.2121 14.123C26.2121 7.50291 20.7273 2.01807 14.0954 2.01807C7.47523 2.01807 2 7.50291 2 14.123C2 20.7549 7.48484 26.2301 14.105 26.2301Z" fill="black"/>
<path d="M11.8596 22.0798C9.96136 22.0798 8.44238 20.5693 8.44238 18.6849C8.44238 17.7144 8.82605 16.8535 9.573 16.1727C9.71152 16.0714 9.73074 15.9915 9.73074 15.8295V10.302C9.73074 8.941 10.5827 7.99952 11.8596 7.99952C13.1109 7.99952 13.9767 8.941 13.9767 10.302L13.9671 15.8295C13.9671 15.9915 13.9884 16.0672 14.111 16.1727C14.8655 16.8598 15.263 17.7144 15.263 18.6849C15.263 20.5693 13.7461 22.0798 11.8596 22.0798ZM11.8596 20.9741C13.1149 20.9741 14.1539 19.9606 14.1539 18.6702C14.1539 17.8838 13.7831 17.2177 13.132 16.7734C12.922 16.6412 12.8496 16.5207 12.8496 16.2479V10.3489C12.8496 9.61577 12.4521 9.12663 11.8596 9.12663C11.2361 9.12663 10.8386 9.61577 10.8386 10.3489V16.2479C10.8386 16.5207 10.7683 16.6412 10.5562 16.7734C9.91683 17.2177 9.55776 17.8838 9.55776 18.6702C9.55776 19.9606 10.5637 20.9741 11.8596 20.9741ZM11.8479 20.1898C11.0102 20.1898 10.3345 19.5195 10.3345 18.6605C10.3345 18.0819 10.6713 17.5991 11.137 17.338C11.3533 17.2346 11.4098 17.1643 11.4098 16.868V10.8669C11.4098 10.5514 11.5931 10.3585 11.8479 10.3585C12.0952 10.3585 12.2998 10.5514 12.2998 10.8669V16.868C12.2998 17.1643 12.3563 17.2346 12.5395 17.338C13.0383 17.6087 13.373 18.0819 13.373 18.6605C13.373 19.5099 12.6952 20.1898 11.8479 20.1898ZM14.9264 8.29718C14.5706 8.29718 14.2852 7.99788 14.2852 7.65171V6.35327C14.2852 6.0146 14.5706 5.71741 14.9264 5.71741C15.2918 5.71741 15.5698 6.0146 15.5698 6.35327V7.65171C15.5698 7.99788 15.2918 8.29718 14.9264 8.29718ZM17.767 9.47562C17.5188 9.2232 17.5092 8.81843 17.7713 8.56601L18.6945 7.64702C18.9394 7.39671 19.3303 7.39249 19.5827 7.6428C19.8427 7.89101 19.8331 8.3096 19.5924 8.5503L18.682 9.47351C18.4338 9.71421 18.0098 9.71632 17.767 9.47562ZM19.5675 12.9575C19.2192 12.9575 18.9338 12.6507 18.9338 12.3184C18.9338 11.9701 19.2192 11.6612 19.5675 11.6612H20.8584C21.2142 11.6612 21.5018 11.968 21.5018 12.3141C21.5018 12.6507 21.2142 12.9575 20.8584 12.9575H19.5675ZM18.6945 16.9876L17.7713 16.0623C17.5113 15.8216 17.5188 15.4072 17.767 15.1686C18.0173 14.9141 18.4221 14.9141 18.6724 15.1686L19.5881 16.0822C19.8384 16.3133 19.8384 16.7415 19.5827 16.9876C19.3303 17.2283 18.9331 17.2187 18.6945 16.9876ZM14.88 15.4709L14.8896 10.302C14.8896 9.901 14.8238 9.51804 14.677 9.16577C14.7645 9.15195 14.8465 9.14234 14.9264 9.14234C16.6812 9.14234 18.0844 10.5594 18.0844 12.3184C18.0844 14.1064 16.65 15.4946 14.88 15.4709Z" fill="white"/>
</svg>
