<svg width="35" height="28" viewBox="0 0 35 28" fill="none" xmlns="http://www.w3.org/2000/svg">
<path d="M14.0697 7.30778L16.0302 6.92786C15.8343 5.65099 15.5465 4.60732 14.6962 3.29482C14.597 3.1413 14.6184 2.98989 14.759 2.94513C18.4497 1.76059 23.1606 3.59809 24.0991 7.45145L26.1269 7.17724C24.9395 1.58318 17.6751 -1.07791 12.6545 1.69756C11.9969 2.05193 11.8523 2.76794 12.3897 3.47458C13.6007 5.07325 13.8248 5.83216 14.0697 7.30778ZM19.806 22.7418C25.3656 22.7418 34.0185 19.0835 34.0185 14.0583C34.0185 9.04263 25.3656 5.38639 19.806 5.38639C15.933 5.38639 11.9622 6.72537 8.72643 9.81256C6.62174 7.4742 4.16034 6.16287 1.30471 6.11388C0.636515 6.10217 0.0939395 6.54044 0.0344088 7.22458C-0.211685 9.70427 0.885659 12.3895 2.57738 14.0583C0.885659 15.7366 -0.211685 18.4293 0.0344088 20.9015C0.0939395 21.5857 0.636515 22.0239 1.30471 22.0101C4.16034 21.9632 6.62174 20.654 8.72643 18.3232C11.9622 21.4029 15.933 22.7418 19.806 22.7418ZM19.806 20.5303C16.0063 20.5303 12.3972 19.1976 9.42205 15.8763C8.96783 15.3647 8.3212 15.3785 7.86909 15.9295C6.14971 18.0569 4.54049 19.2623 2.57947 19.6497C2.39291 19.687 2.24572 19.5398 2.27877 19.3436C2.49064 17.6294 3.54346 15.9757 4.88057 14.9093C5.5933 14.3029 5.57338 13.7937 4.87096 13.2051C3.57721 12.1662 2.5265 10.5684 2.27877 8.78247C2.2415 8.5959 2.39291 8.437 2.57947 8.47426C4.57002 8.87223 6.18979 10.1177 7.86909 12.1966C8.31909 12.7572 8.96783 12.769 9.41244 12.2615C12.3972 8.93059 16.0063 7.59583 19.806 7.59583C24.8573 7.59583 31.8463 10.8757 31.8463 14.0583C31.8463 17.2526 24.8573 20.5303 19.806 20.5303ZM27.2437 14.7984C27.9445 14.7984 28.5259 14.2169 28.5259 13.5236C28.5259 12.8325 27.9445 12.251 27.2437 12.251C26.5504 12.251 25.9689 12.8325 25.9689 13.5236C25.9689 14.2169 26.5504 14.7984 27.2437 14.7984ZM15.9227 21.1148L15.4052 25.3507C15.2711 26.4532 15.9946 27.2266 17.2802 27.0159C20.4414 26.5239 24.0634 24.097 25.7755 21.3693L22.9902 21.7045C21.5095 22.9671 19.9558 24.123 18.0941 24.6672C17.867 24.7237 17.7156 24.6747 17.7466 24.3804L18.0395 21.4223L15.9227 21.1148Z" fill="black"/>
</svg>
