<svg width="28" height="28" viewBox="0 0 28 28" fill="none" xmlns="http://www.w3.org/2000/svg">
<path d="M14.105 26.2301C20.7369 26.2301 26.2121 20.7549 26.2121 14.123C26.2121 7.50291 20.7273 2.01807 14.0954 2.01807C7.47523 2.01807 2 7.50291 2 14.123C2 20.7549 7.48484 26.2301 14.105 26.2301Z" fill="black"/>
<path d="M7.50121 15.8558C7.0784 15.8558 6.74512 15.5342 6.74512 15.1445C6.74512 14.758 7.0784 14.4364 7.50121 14.4364H8.94051C9.37715 14.4364 9.72543 14.7484 9.72543 15.1445C9.72543 15.5438 9.38676 15.8558 8.94051 15.8558H7.50121ZM9.96473 12.2337L8.93911 11.2124C8.62598 10.8992 8.62809 10.4692 8.89106 10.1795C9.17325 9.91651 9.60871 9.87807 9.91973 10.2029L10.9646 11.2478C11.2681 11.5417 11.2873 11.9943 10.9976 12.286C10.7133 12.5586 10.2607 12.5373 9.96473 12.2337ZM17.2043 12.286C16.9146 11.9943 16.9146 11.563 17.2256 11.2478L18.2705 10.2029C18.5644 9.88768 19.0287 9.89729 19.3109 10.1795C19.5738 10.4692 19.5663 10.8992 19.2511 11.2124L18.2351 12.2337C17.9316 12.5469 17.4886 12.549 17.2043 12.286ZM19.2518 15.8558C18.8194 15.8558 18.4744 15.5438 18.4744 15.1445C18.4744 14.7484 18.8194 14.4364 19.2518 14.4364H20.6986C21.1235 14.4364 21.4472 14.758 21.4472 15.1445C21.4472 15.5342 21.1235 15.8558 20.6986 15.8558H19.2518ZM17.6379 15.3697C17.6379 15.7152 17.5706 16.067 17.4661 16.3965H10.7262C10.6217 16.067 10.5523 15.7152 10.5523 15.3697C10.5523 13.4166 12.1655 11.8173 14.0951 11.8173C16.0364 11.8173 17.6379 13.4166 17.6379 15.3697ZM7.52324 18.7609C7.11777 18.7609 6.74512 18.4332 6.74512 18.017C6.74512 17.6082 7.10395 17.2805 7.52324 17.2805H20.6766C21.098 17.2805 21.4472 17.6061 21.4472 18.017C21.4472 18.4353 21.0884 18.7609 20.6766 18.7609H7.52324ZM14.8085 9.88956C14.8085 10.3103 14.487 10.6628 14.0951 10.6628C13.7032 10.6628 13.3913 10.3103 13.3913 9.88956V8.44814C13.3913 8.0019 13.7128 7.68994 14.0951 7.68994C14.4773 7.68994 14.8085 8.0019 14.8085 8.44814V9.88956Z" fill="white"/>
</svg>
