<svg width="28" height="30" viewBox="0 0 28 30" fill="none" xmlns="http://www.w3.org/2000/svg">
<path d="M4.94004 27.4304C5.17418 27.4304 5.33707 27.2165 5.31481 26.9823L5.21168 25.8637L6.13864 26.5091C6.32168 26.6474 6.60176 26.6026 6.71567 26.4058C6.84129 26.211 6.76043 25.9267 6.51879 25.817L5.51098 25.348L6.53051 24.8652C6.76254 24.7555 6.8359 24.4989 6.72949 24.2924C6.62309 24.088 6.31957 24.0487 6.13442 24.1869L5.21379 24.8357L5.32442 23.7233C5.35418 23.4796 5.17418 23.2752 4.94004 23.2752C4.67707 23.2752 4.51418 23.4796 4.53223 23.7233L4.63114 24.8357L3.70301 24.1848C3.51996 24.0465 3.25489 24.0784 3.12926 24.2924C3.01536 24.4989 3.077 24.7576 3.32075 24.8652L4.33278 25.3459L3.31864 25.8212C3.077 25.9288 3.00364 26.2014 3.12176 26.4058C3.23989 26.6219 3.51996 26.657 3.70301 26.5187L4.63114 25.8775L4.54395 26.9823C4.52379 27.2165 4.67707 27.4304 4.94004 27.4304ZM10.5805 29.2234C10.8222 29.2234 10.9775 29.0115 10.9553 28.7753L10.8618 27.6662L11.777 28.3021C11.9718 28.4404 12.2401 28.3956 12.3658 28.2008C12.4914 28.004 12.4105 27.7197 12.1668 27.6121L11.1611 27.1506L12.1806 26.6699C12.4126 26.5581 12.486 26.2919 12.3775 26.0854C12.2636 25.881 11.9697 25.8416 11.7749 25.9799L10.8639 26.6383L10.9649 25.5184C10.9947 25.2726 10.8222 25.0682 10.5805 25.0682C10.3176 25.0682 10.1622 25.2726 10.1823 25.5184L10.2716 26.6383L9.35309 25.9778C9.16043 25.8395 8.89535 25.8714 8.76973 26.0854C8.65371 26.2919 8.71746 26.5506 8.96121 26.6699L9.98285 27.1485L8.9591 27.6238C8.71746 27.7314 8.6441 27.9944 8.76223 28.2008C8.88035 28.4148 9.16043 28.45 9.35309 28.3117L10.2716 27.6705L10.1919 28.7753C10.1739 29.0115 10.3176 29.2234 10.5805 29.2234ZM17.2698 27.4773C17.504 27.4773 17.669 27.2633 17.6467 27.0196L17.5436 25.9084L18.4684 26.556C18.6515 26.6943 18.9219 26.6495 19.0475 26.4526C19.1711 26.2579 19.0923 25.9715 18.8486 25.8639L17.8408 25.3949L18.8603 24.9121C19.0944 24.8024 19.1678 24.534 19.0593 24.3393C18.9433 24.1349 18.6493 24.0955 18.4663 24.2338L17.5457 24.8826L17.6563 23.7702C17.6861 23.5147 17.504 23.3125 17.2698 23.3125C17.009 23.3125 16.844 23.5147 16.8641 23.7702L16.9609 24.8826L16.0349 24.2296C15.8497 24.0934 15.5847 24.1253 15.459 24.3393C15.3451 24.534 15.4089 24.8045 15.6505 24.9121L16.6626 25.3928L15.6484 25.866C15.4089 25.9757 15.3355 26.2462 15.4536 26.4526C15.5697 26.6591 15.8497 26.6943 16.0349 26.556L16.9609 25.9244L16.8737 27.0196C16.8536 27.2633 17.009 27.4773 17.2698 27.4773Z" fill="black"/>
<path d="M7.28149 22.344L8.0097 21.0625C8.23539 20.6856 8.1236 20.2279 7.74251 20.0022C7.36353 19.7861 6.92595 19.9234 6.69814 20.2991L5.95822 21.6095C5.75595 21.9651 5.8422 22.4132 6.2329 22.6389C6.61189 22.855 7.06751 22.7188 7.28149 22.344ZM12.3909 24.137L14.1599 21.0763C14.3739 20.6898 14.2663 20.2417 13.8948 20.0235C13.5041 19.7978 13.0666 19.9297 12.8484 20.3226L11.0697 23.4025C10.8557 23.7676 10.9612 24.2158 11.3519 24.4319C11.7234 24.6479 12.1865 24.5139 12.3909 24.137ZM19.5627 22.3909L20.2909 21.1094C20.5166 20.7325 20.4048 20.2747 20.0238 20.049C19.6427 19.833 19.2072 19.9703 18.9773 20.346L18.2395 21.6564C18.0372 22.0119 18.1234 22.4601 18.512 22.6858C18.8931 22.9019 19.3487 22.7561 19.5627 22.3909Z" fill="black"/>
<path d="M5.67866 18.1147H20.2786C24.2004 18.1147 27.1336 15.1335 27.1336 11.4229C27.1336 7.6023 24.0593 4.76847 20.0318 4.76847C18.5923 1.93722 15.9178 0.0233154 12.3666 0.0233154C7.87593 0.0233154 4.23257 3.47823 3.79101 7.83854C1.63828 8.49765 0 10.3712 0 12.8966C0 15.8005 2.12531 18.1147 5.67866 18.1147Z" fill="black"/>
</svg>
