<svg width="28" height="28" viewBox="0 0 28 28" fill="none" xmlns="http://www.w3.org/2000/svg">
<path d="M14.105 26.21C20.7369 26.21 26.2121 20.7273 26.2121 14.105C26.2121 7.47312 20.7273 2 14.0954 2C7.47523 2 2 7.47312 2 14.105C2 20.7273 7.48484 26.21 14.105 26.21ZM14.105 23.8255C8.71085 23.8255 4.39412 19.4991 4.39412 14.105C4.39412 8.71085 8.70124 4.38452 14.0954 4.38452C19.4895 4.38452 23.8276 8.71085 23.8276 14.105C23.8276 19.4991 19.4991 23.8255 14.105 23.8255Z" fill="black"/>
<path d="M14.1151 9.17185C14.6082 9.17185 14.9905 8.7842 14.9905 8.30068C14.9905 7.81506 14.6082 7.41568 14.1151 7.41568C13.6295 7.41568 13.2418 7.81506 13.2418 8.30068C13.2418 8.7842 13.6295 9.17185 14.1151 9.17185ZM16.5779 9.83045C17.0103 10.0829 17.5524 9.93802 17.7739 9.5131C18.0285 9.0999 17.8815 8.55779 17.4587 8.32459C17.0455 8.07217 16.513 8.20951 16.2723 8.63021C16.0178 9.05514 16.1626 9.58763 16.5779 9.83045ZM18.3992 11.6539C18.64 12.0671 19.1746 12.2141 19.5899 11.9595C20.0127 11.7284 20.1575 11.1842 19.903 10.7689C19.6719 10.3365 19.1394 10.1916 18.7166 10.4462C18.2917 10.6751 18.1447 11.2098 18.3992 11.6539ZM19.0578 14.105C19.0578 14.5906 19.4434 14.9783 19.929 14.9783C20.4146 14.9783 20.8044 14.6002 20.8044 14.105C20.8044 13.6194 20.4146 13.2317 19.929 13.2317C19.4455 13.2317 19.0578 13.6194 19.0578 14.105ZM18.3992 16.5657C18.1468 17.0002 18.2896 17.5423 18.7145 17.7659C19.1319 18.0184 19.6719 17.8831 19.9072 17.4465C20.1575 17.0333 20.0127 16.5008 19.5995 16.2601C19.1746 16.0055 18.6421 16.1525 18.3992 16.5657ZM16.5758 18.3891C16.1647 18.632 16.0178 19.1645 16.2702 19.5755C16.5034 20.0026 17.0455 20.1453 17.4587 19.8929C17.8836 19.6597 18.0167 19.1293 17.776 18.7065C17.5546 18.2816 17.0103 18.1367 16.5758 18.3891ZM14.1151 19.0477C13.6295 19.0477 13.2418 19.4354 13.2418 19.9189C13.2418 20.4045 13.6295 20.7943 14.1151 20.7943C14.6082 20.7943 14.9905 20.4045 14.9905 19.9189C14.9905 19.4354 14.6082 19.0477 14.1151 19.0477ZM11.664 18.3891C11.2199 18.1367 10.6874 18.2816 10.4563 18.7065C10.2038 19.1197 10.3487 19.6618 10.779 19.8929C11.1943 20.1474 11.7289 20.0005 11.9696 19.5894C12.2242 19.1645 12.0772 18.632 11.664 18.3891ZM9.84266 16.5657C9.59773 16.1525 9.06734 16.0055 8.65414 16.2601C8.2175 16.4912 8.07266 17.0354 8.33469 17.4486C8.56789 17.8831 9.09078 18.0184 9.52531 17.7659C9.95023 17.5444 10.0951 17.0002 9.84266 16.5657ZM9.18406 14.1146C9.18406 13.6194 8.79641 13.2317 8.31289 13.2317C7.82305 13.2317 7.42578 13.6194 7.42578 14.105C7.42578 14.6002 7.82727 14.9783 8.31078 14.9783C8.79641 14.9783 9.18406 14.6002 9.18406 14.1146ZM9.84266 11.6539C10.0951 11.2098 9.95023 10.6772 9.52531 10.4483C9.10039 10.1916 8.56789 10.3365 8.3368 10.7689C8.07266 11.1842 8.21961 11.7188 8.64031 11.9595C9.06734 12.2141 9.59773 12.0671 9.84266 11.6539ZM11.6661 9.83045C12.0772 9.58763 12.2221 9.05514 11.9696 8.64404C11.7385 8.20951 11.1943 8.07217 10.7832 8.32459C10.3487 8.55779 10.2134 9.09029 10.4563 9.5131C10.6895 9.93802 11.222 10.0829 11.6661 9.83045ZM14.1055 17.9813C16.2392 17.9813 17.9818 16.2366 17.9818 14.105C17.9818 11.9691 16.2392 10.2265 14.1055 10.2265C11.9717 10.2265 10.227 11.9691 10.227 14.105C10.227 16.2366 11.9717 17.9813 14.1055 17.9813Z" fill="black"/>
</svg>
