<svg width="28" height="28" viewBox="0 0 28 28" fill="none" xmlns="http://www.w3.org/2000/svg">
<path d="M6.84421 24.8972H21.0295C23.5685 24.8972 24.8737 23.5919 24.8737 21.0914V6.82921C24.8737 4.32656 23.5685 3.02344 21.0295 3.02344H6.84421C4.31484 3.02344 3 4.31695 3 6.82921V21.0914C3 23.6016 4.31484 24.8972 6.84421 24.8972ZM6.97733 22.6013C5.88772 22.6013 5.29592 22.0371 5.29592 20.8985V7.01999C5.29592 5.88139 5.88772 5.31936 6.97733 5.31936H20.8964C21.9764 5.31936 22.5778 5.88139 22.5778 7.01999V20.8985C22.5778 22.0371 21.9764 22.6013 20.8964 22.6013H6.97733Z" fill="black"/>
<path d="M8.94727 14.7176C8.94727 15.0232 9.2018 15.2468 9.50953 15.2468H13.3134L11.283 20.6658C10.9934 21.4369 11.8177 21.8681 12.3309 21.2419L18.5683 13.4831C18.6876 13.3404 18.7579 13.1721 18.7579 13.0134C18.7579 12.7078 18.513 12.4842 18.1957 12.4842H14.4014L16.4221 7.0652C16.7193 6.2941 15.8875 5.86285 15.3743 6.47949L9.14649 14.2383C9.01547 14.3906 8.94727 14.5589 8.94727 14.7176Z" fill="black"/>
</svg>
