<svg width="28" height="28" viewBox="0 0 28 28" fill="none" xmlns="http://www.w3.org/2000/svg">
<path d="M14.105 26.2301C20.7369 26.2301 26.2121 20.7549 26.2121 14.123C26.2121 7.50291 20.7273 2.01807 14.0954 2.01807C7.47523 2.01807 2 7.50291 2 14.123C2 20.7549 7.48484 26.2301 14.105 26.2301Z" fill="black"/>
<path d="M11.8674 22.066C9.96917 22.066 8.4502 20.5576 8.4502 18.6732C8.4502 17.7027 8.83387 16.8322 9.58293 16.1609C9.71934 16.048 9.73855 15.9798 9.73855 15.8178V10.2903C9.73855 8.9293 10.5926 7.98781 11.8674 7.98781C13.1187 7.98781 13.9845 8.9293 13.9845 10.2903L13.9749 15.8178C13.9749 15.9798 13.9983 16.0459 14.1092 16.1609C14.8658 16.8364 15.2612 17.7027 15.2612 18.6732C15.2612 20.5576 13.7443 22.066 11.8674 22.066ZM11.8674 20.9623C13.1248 20.9623 14.1617 19.9489 14.1617 18.6584C14.1617 17.8721 13.7909 17.1943 13.1398 16.7616C12.9298 16.6273 12.8574 16.5069 12.8574 16.2362V10.3276C12.8574 9.59445 12.462 9.11492 11.8674 9.11492C11.2439 9.11492 10.8464 9.59445 10.8464 10.3276V16.2362C10.8464 16.5069 10.7782 16.6273 10.5661 16.7616C9.92465 17.1943 9.56558 17.8721 9.56558 18.6584C9.56558 19.9489 10.5736 20.9623 11.8674 20.9623ZM11.8578 20.1781C11.0084 20.1781 10.3423 19.4961 10.3423 18.6488C10.3423 18.0702 10.6791 17.5852 11.1448 17.3262C11.3515 17.2208 11.408 17.143 11.408 16.8563V15.6491C11.408 15.3336 11.6009 15.129 11.8578 15.129C12.103 15.129 12.3076 15.3336 12.3076 15.6491V16.8563C12.3076 17.143 12.3641 17.2208 12.5473 17.3262C13.0365 17.5948 13.3712 18.0702 13.3712 18.6488C13.3712 19.4865 12.703 20.1781 11.8578 20.1781ZM16.5141 16.7546C16.2298 16.7546 16.0276 16.5139 16.0297 16.2254L16.0339 15.3821L15.5701 15.6711C15.3633 15.4871 15.1149 15.1878 15.0491 14.9366L16.0477 14.3525L16.0754 12.3176L14.8995 13.0234V11.9457L15.6303 11.5435L14.8995 11.1359C14.8899 10.7009 14.8665 10.3852 14.8229 10.0147L16.0754 10.764L16.0477 8.72281L14.9673 8.09094C14.7319 7.94398 14.6361 7.69695 14.7713 7.46375C14.8969 7.23266 15.1674 7.17406 15.4102 7.3168L16.0339 7.6782L16.0297 6.86586C16.0276 6.57195 16.2298 6.33453 16.5141 6.33453C16.808 6.33453 17.0028 6.56984 17.0007 6.86586L16.9869 7.6782L17.6201 7.3168C17.8672 7.18367 18.1494 7.22305 18.2687 7.46586C18.3847 7.69906 18.3176 7.94398 18.0535 8.09094L16.9848 8.72281L16.9613 10.764L18.702 9.73649L18.7137 8.50156C18.7137 8.20766 18.9022 8.00211 19.1684 8.00211C19.4272 8.00422 19.6039 8.20766 19.6039 8.46852V9.19133L20.3405 8.77344C20.5855 8.62438 20.8815 8.6968 21.0284 8.94594C21.1796 9.19508 21.0816 9.46555 20.8208 9.62422L20.0937 10.0325L20.7078 10.4152C20.9335 10.5526 21.0486 10.8092 20.9016 11.0328C20.7664 11.2714 20.4959 11.3012 20.251 11.1584L19.1705 10.5575L17.4022 11.5435L19.1588 12.5199L20.2414 11.9115C20.4767 11.7763 20.7451 11.8274 20.8899 12.068C21.0134 12.2682 20.9218 12.5291 20.6982 12.6643L20.0724 13.0353L20.8112 13.4766C21.0561 13.6215 21.1796 13.8866 21.0284 14.1591C20.8836 14.3977 20.5897 14.4423 20.315 14.2986L19.5901 13.8648L19.5805 14.5993C19.5805 14.8644 19.3995 15.0891 19.1471 15.087C18.8745 15.0774 18.6903 14.8634 18.6903 14.5759V13.3451L16.9613 12.3176L16.9848 14.3525L18.0556 14.9769C18.2909 15.1238 18.3964 15.373 18.2591 15.6254C18.1334 15.8427 17.8714 15.8959 17.6244 15.751L16.9869 15.3917L17.0007 16.2254C17.0028 16.5022 16.808 16.7546 16.5141 16.7546Z" fill="white"/>
</svg>
