<svg width="28" height="28" viewBox="0 0 28 28" fill="none" xmlns="http://www.w3.org/2000/svg">
<path d="M14.105 26.21C20.7369 26.21 26.2121 20.7273 26.2121 14.105C26.2121 7.47312 20.7273 2 14.0954 2C7.47523 2 2 7.47312 2 14.105C2 20.7273 7.48484 26.21 14.105 26.21ZM14.105 23.8255C8.71085 23.8255 4.39412 19.4991 4.39412 14.105C4.39412 8.71085 8.70124 4.38452 14.0954 4.38452C19.4895 4.38452 23.8276 8.71085 23.8276 14.105C23.8276 19.4991 19.4991 23.8255 14.105 23.8255Z" fill="black"/>
<path d="M10.4374 15.7313H17.2383C19.0294 15.7313 20.4049 14.3504 20.4049 12.6404C20.4049 10.8643 18.9759 9.55599 17.1091 9.55599C16.4091 8.20271 15.1463 7.34888 13.5544 7.34888C11.4871 7.34888 9.78113 8.94122 9.56504 10.9988C8.55723 11.3065 7.81543 12.1749 7.81543 13.3311C7.81543 14.6659 8.79113 15.7313 10.4374 15.7313ZM10.0856 20.1648C10.2878 20.1648 10.4252 19.9784 10.405 19.7762L10.3593 19.1005L10.9082 19.4926C11.0732 19.6107 11.3022 19.5563 11.4002 19.403C11.5216 19.2455 11.4546 18.9931 11.2331 18.8994L10.6352 18.6179L11.2352 18.3151C11.4428 18.2117 11.5024 18.0073 11.4098 17.8348C11.3214 17.6623 11.069 17.6251 10.9082 17.7336L10.3593 18.129L10.405 17.4596C10.4252 17.2381 10.2878 17.0689 10.0856 17.0689C9.86621 17.0689 9.71926 17.2381 9.73519 17.45L9.7905 18.129L9.22449 17.7315C9.07332 17.6251 8.84011 17.6527 8.75175 17.8348C8.64746 17.9881 8.69949 18.2096 8.90714 18.3247L9.50715 18.6158L8.90504 18.9015C8.68988 18.9952 8.64746 19.2263 8.73254 19.3955C8.823 19.5755 9.06371 19.6107 9.22449 19.4926L9.7905 19.1026L9.7448 19.7762C9.72886 19.9784 9.86621 20.1648 10.0856 20.1648ZM13.8705 20.1648C14.0728 20.1648 14.2102 19.9784 14.19 19.7762L14.1443 19.1005L14.6932 19.4926C14.8486 19.6107 15.0872 19.5563 15.1852 19.403C15.3066 19.2455 15.2395 18.9931 15.018 18.8994L14.4202 18.6179L15.0202 18.3151C15.2278 18.2117 15.2873 18.0073 15.1948 17.8348C15.1064 17.6623 14.854 17.6251 14.6932 17.7336L14.1443 18.129L14.19 17.4596C14.2102 17.2381 14.0728 17.0689 13.8705 17.0689C13.6512 17.0689 13.5042 17.2381 13.5202 17.45L13.5755 18.129L13.0095 17.7315C12.8583 17.6251 12.6251 17.6527 12.5367 17.8348C12.4324 17.9881 12.4845 18.2096 12.6921 18.3247L13.2921 18.6158L12.69 18.9015C12.4748 18.9952 12.4324 19.2263 12.5175 19.3955C12.608 19.5755 12.8487 19.6107 13.0095 19.4926L13.5755 19.1026L13.5298 19.7762C13.5138 19.9784 13.6512 20.1648 13.8705 20.1648ZM17.6459 20.1648C17.8577 20.1648 17.9951 19.9784 17.9749 19.7762L17.9292 19.1005L18.4781 19.4926C18.6335 19.6086 18.8721 19.5563 18.9701 19.403C19.0819 19.2455 19.0223 18.9931 18.803 18.8994L18.2051 18.6179L18.8051 18.3151C19.0127 18.2117 19.0723 18.0073 18.9797 17.8348C18.8817 17.6623 18.6389 17.6251 18.4781 17.7336L17.9292 18.129L17.9749 17.4596C17.9951 17.2381 17.8577 17.0689 17.6459 17.0689C17.4361 17.0689 17.2849 17.2381 17.3051 17.45L17.3583 18.129L16.7944 17.7315C16.6432 17.6251 16.41 17.6527 16.312 17.8348C16.2173 17.9881 16.2598 18.2096 16.477 18.3247L17.077 18.6158L16.4749 18.9015C16.2598 18.9952 16.2173 19.2263 16.3003 19.3955C16.3929 19.5755 16.6336 19.6107 16.7944 19.4926L17.3583 19.1026L17.3147 19.7762C17.2945 19.9784 17.4361 20.1648 17.6459 20.1648Z" fill="black"/>
</svg>
