<svg width="28" height="28" viewBox="0 0 28 28" fill="none" xmlns="http://www.w3.org/2000/svg">
<path d="M14.105 26.2301C20.7369 26.2301 26.2121 20.7549 26.2121 14.123C26.2121 7.50291 20.7273 2.01807 14.0954 2.01807C7.47523 2.01807 2 7.50291 2 14.123C2 20.7549 7.48484 26.2301 14.105 26.2301Z" fill="black"/>
<path d="M7.10657 12.7815C6.70509 12.9029 6.34626 12.7069 6.25157 12.3514C6.13228 12.016 6.31743 11.6455 6.71892 11.5379C7.81298 11.2044 9.01485 10.973 10.187 10.973C11.5637 10.973 12.545 11.1969 13.7342 11.1969C14.3408 11.1969 14.7001 10.861 14.7001 10.3013C14.7001 9.73413 14.3312 9.40577 13.8216 9.40577C13.4398 9.40577 13.1307 9.64038 12.9847 9.9528C12.7984 10.3426 12.4098 10.4469 12.0798 10.2777C11.7336 10.1105 11.6729 9.71116 11.8262 9.40671C12.1552 8.66093 12.9362 8.11109 13.8216 8.11109C15.0296 8.11109 16.0119 9.02398 16.0119 10.3013C16.0119 11.5519 15.0948 12.4916 13.7342 12.4916C12.478 12.4916 11.4988 12.2966 10.187 12.2966C9.17259 12.2966 8.13477 12.4426 7.10657 12.7815ZM18.32 16.2097C15.8513 16.2097 13.7129 14.9555 10.8795 14.9555C9.48782 14.9555 8.28173 15.1505 7.12673 15.5832C6.70931 15.7301 6.34837 15.5246 6.25157 15.1669C6.13228 14.8316 6.32704 14.4748 6.70509 14.3396C7.99954 13.9048 9.40696 13.6459 10.8795 13.6459C13.7841 13.6459 16.1633 14.9 18.32 14.9C19.3902 14.9 20.052 14.3532 20.052 13.4813C20.052 12.6254 19.4455 12.069 18.6397 12.069C17.9872 12.069 17.4521 12.504 17.3265 13.1576C17.2351 13.5826 16.8828 13.7977 16.5282 13.7255C16.1928 13.6576 15.9594 13.3137 16.0487 12.9144C16.2507 11.6909 17.3129 10.7668 18.6397 10.7668C20.1418 10.7668 21.3521 11.9173 21.3521 13.4813C21.3521 15.0612 20.0811 16.2097 18.32 16.2097ZM13.7438 21.3151C12.5895 21.3151 11.7915 20.5144 11.6225 19.4869C11.5344 19.1143 11.6963 18.7203 12.1374 18.6673C12.5401 18.6026 12.8241 18.8628 12.9101 19.212C13.0102 19.7377 13.2629 20.0108 13.7438 20.0108C14.2161 20.0108 14.5712 19.7155 14.5712 19.1483C14.5712 18.2166 13.2948 17.6326 10.7605 17.6326C9.49134 17.6326 8.24563 17.8468 7.12673 18.256C6.70931 18.3934 6.34837 18.1878 6.25157 17.8205C6.13228 17.5065 6.32704 17.1477 6.70509 17.0124C7.95595 16.5819 9.44025 16.3283 10.7605 16.3283C14.0335 16.3283 15.8872 17.3265 15.8872 19.1483C15.8872 20.4139 14.938 21.3151 13.7438 21.3151ZM18.6397 9.90663C18.414 9.90663 18.2745 9.72569 18.2947 9.51171L18.3383 8.80296L17.7584 9.22601C17.5934 9.33663 17.3293 9.30358 17.2484 9.10976C17.1516 8.93421 17.1941 8.70101 17.4155 8.59554L18.0432 8.30773L17.4177 7.9953C17.2037 7.88772 17.1516 7.6428 17.258 7.48741C17.3464 7.29358 17.5934 7.26382 17.7584 7.39366L18.3383 7.80499L18.2851 7.10046C18.2649 6.87476 18.414 6.69171 18.6397 6.69171C18.8537 6.69171 18.9931 6.87476 18.973 7.11007L18.9252 7.80499L19.5113 7.39577C19.6646 7.26593 19.9287 7.3128 20.0192 7.48741C20.116 7.66202 20.0544 7.89194 19.8425 7.98358L19.2169 8.30983L19.8404 8.59343C20.064 8.68929 20.1352 8.95343 20.0096 9.12265C19.9191 9.29186 19.6688 9.33663 19.5113 9.22601L18.9252 8.80085L18.973 9.51171C18.9931 9.72569 18.8537 9.90663 18.6397 9.90663ZM18.4433 19.8179C18.2656 19.8179 18.155 19.6775 18.173 19.5287L18.2091 19.1349L17.8887 19.3775C17.7718 19.4668 17.5653 19.4337 17.5037 19.3072C17.4453 19.1647 17.4589 18.9753 17.6302 18.9029L17.9909 18.7571L17.6345 18.5984C17.4589 18.5101 17.4453 18.3249 17.5133 18.2134C17.5824 18.0676 17.7718 18.0399 17.8887 18.1292L18.2091 18.3889L18.1634 17.9802C18.1454 17.8313 18.2656 17.6888 18.4433 17.6888C18.59 17.6888 18.7102 17.8313 18.6901 17.9898L18.6402 18.3889L18.969 18.1313C19.0721 18.0399 19.2807 18.0772 19.3519 18.2134C19.4082 18.3441 19.3871 18.5122 19.2233 18.5888L18.8551 18.7592L19.2212 18.8966C19.3871 18.9732 19.4274 19.1839 19.3423 19.3147C19.2711 19.4241 19.0784 19.4668 18.969 19.3775L18.6402 19.1328L18.6901 19.5287C18.7102 19.6775 18.59 19.8179 18.4433 19.8179Z" fill="white"/>
</svg>
