<svg width="28" height="28" viewBox="0 0 28 28" fill="none" xmlns="http://www.w3.org/2000/svg">
<path d="M23.828 14.105C23.8376 19.4886 19.5185 23.8255 14.1349 23.8255C13.8307 23.8255 13.5265 23.8063 13.2202 23.7678C16.3073 21.7281 18.0544 18.3277 18.0544 14.105C18.0544 9.87264 16.2977 6.46272 13.1934 4.44217C13.5115 4.40373 13.8157 4.38452 14.1338 4.38452C19.511 4.38452 23.8163 8.7235 23.828 14.105Z" fill="white"/>
<path d="M2 14.105C2 20.7273 7.48484 26.21 14.105 26.21C20.7369 26.21 26.2121 20.7273 26.2121 14.105C26.2121 7.47312 20.7273 2 14.0954 2C7.47523 2 2 7.47312 2 14.105ZM23.8276 14.105C23.8372 19.4886 19.5181 23.8255 14.1345 23.8255C13.8303 23.8255 13.5261 23.8063 13.2198 23.7678C16.3069 21.7281 18.054 18.3277 18.054 14.105C18.054 9.87264 16.2973 6.46272 13.193 4.44217C13.5111 4.40373 13.8153 4.38452 14.1334 4.38452C19.5106 4.38452 23.8159 8.7235 23.8276 14.105Z" fill="black"/>
</svg>
