<svg width="28" height="28" viewBox="0 0 28 28" fill="none" xmlns="http://www.w3.org/2000/svg">
<path d="M14.105 26.21C20.7369 26.21 26.2121 20.7273 26.2121 14.105C26.2121 7.47312 20.7273 2 14.0954 2C7.47523 2 2 7.47312 2 14.105C2 20.7273 7.48484 26.21 14.105 26.21ZM14.105 23.8255C8.71085 23.8255 4.39412 19.4991 4.39412 14.105C4.39412 8.71085 8.70124 4.38452 14.0954 4.38452C19.4895 4.38452 23.8276 8.71085 23.8276 14.105C23.8276 19.4991 19.4991 23.8255 14.105 23.8255Z" fill="black"/>
<path d="M7.97754 13.2259C7.97754 14.3809 8.59863 15.2748 9.39879 15.2748C10.1914 15.2748 10.8221 14.3809 10.8221 13.2259C10.8221 12.0772 10.1914 11.1737 9.39879 11.1737C8.59863 11.1737 7.97754 12.0772 7.97754 13.2259ZM10.7907 9.87453C10.7907 11.0253 11.4193 11.9309 12.212 11.9309C13.0143 11.9309 13.6354 11.0253 13.6354 9.87453C13.6354 8.73336 13.0143 7.83945 12.212 7.83945C11.4172 7.83945 10.7907 8.72375 10.7907 9.87453ZM14.5663 9.87453C14.5663 11.0253 15.1853 11.9309 15.9801 11.9309C16.7802 11.9309 17.4109 11.0253 17.4109 9.87453C17.4109 8.72375 16.7823 7.83945 15.9801 7.83945C15.1853 7.83945 14.5663 8.73336 14.5663 9.87453ZM17.3774 13.2259C17.3774 14.3809 18.0081 15.2748 18.8029 15.2748C19.5934 15.2748 20.2124 14.3809 20.2124 13.2259C20.2124 12.0772 19.5934 11.1737 18.8029 11.1737C18.0081 11.1737 17.3774 12.0772 17.3774 13.2259ZM9.74941 17.6813C9.74941 18.8757 10.5378 19.711 11.7142 19.711C12.2875 19.711 12.7051 19.5608 13.0984 19.4169C13.4235 19.3039 13.7251 19.2144 14.095 19.2144C14.4648 19.2144 14.7761 19.3039 15.0915 19.4169C15.4965 19.5608 15.9121 19.711 16.4758 19.711C17.6521 19.711 18.4501 18.8757 18.4501 17.6813C18.4501 16.6925 17.8534 16.1736 17.2844 15.71C16.9785 15.4606 16.6748 15.223 16.453 14.9C16.2857 14.6548 16.1514 14.3649 16.0204 14.0954C15.6112 13.2109 15.2894 12.3798 14.095 12.3798C12.9123 12.3798 12.5788 13.2205 12.1792 14.0954C12.0407 14.3649 11.9064 14.6452 11.7486 14.8904C11.5248 15.223 11.2211 15.4606 10.9152 15.71C10.3461 16.1736 9.74941 16.6925 9.74941 17.6813Z" fill="black"/>
</svg>
