<svg width="35" height="28" viewBox="0 0 35 28" fill="none" xmlns="http://www.w3.org/2000/svg">
<path d="M4.95 25.0656H17.9482C21.3091 25.0656 23.899 22.5048 23.899 19.188C23.899 15.8566 21.2348 13.3546 17.6698 13.3396C16.3537 10.8449 13.9596 9.17334 10.8794 9.17334C6.97265 9.17334 3.68976 12.1719 3.33281 16.0886C1.34109 16.6682 0 18.3702 0 20.5218C0 23.1866 1.98656 25.0656 4.95 25.0656Z" fill="black"/>
<path d="M25.3818 18.283C27.0644 17.1344 28.1106 15.3426 28.1106 13.2726C28.1106 10.0204 25.5105 7.40312 22.2583 7.40312C20.1182 7.40312 18.2573 8.55789 17.2867 10.2306C17.7895 10.7505 18.2198 11.316 18.5777 12.0105C22.3921 12.292 24.9895 14.7398 25.3818 18.283ZM15.299 7.81843C15.7195 8.2389 16.405 8.2314 16.8021 7.82265C17.2012 7.41601 17.2066 6.7518 16.7978 6.33883L15.0733 4.60797C14.6688 4.19711 13.994 4.19922 13.5874 4.60797C13.1786 5.01461 13.1732 5.69054 13.5916 6.09929L15.299 7.81843ZM22.2541 5.56C22.8396 5.56 23.3111 5.06289 23.3111 4.49664V2.06125C23.3111 1.48539 22.8396 1 22.2541 1C21.6686 1 21.1971 1.48539 21.1971 2.06125V4.49664C21.1971 5.06289 21.6686 5.56 22.2541 5.56ZM31.0183 14.3296H33.4537C34.0317 14.3296 34.5053 13.8601 34.5053 13.2747C34.5053 12.6988 34.0317 12.2155 33.4537 12.2155H31.0183C30.4542 12.2155 29.9571 12.6988 29.9571 13.2747C29.9571 13.8601 30.4542 14.3296 31.0183 14.3296ZM27.7082 7.82476C28.1053 8.23351 28.795 8.2389 29.2113 7.82054L30.9304 6.10351C31.3413 5.69687 31.3413 5.01672 30.9325 4.61008C30.5259 4.20133 29.8596 4.20344 29.4487 4.6143L27.7103 6.33883C27.2995 6.74758 27.3091 7.41812 27.7082 7.82476ZM29.4466 21.9564C29.8574 22.3673 30.5238 22.3598 30.9304 21.951C31.3392 21.5423 31.3328 20.8705 30.9262 20.4672L29.1921 18.7459C28.7875 18.3447 28.1128 18.3372 27.7061 18.7459C27.2974 19.1526 27.3016 19.8285 27.7103 20.2373L29.4466 21.9564Z" fill="black"/>
</svg>
