<svg width="28" height="28" viewBox="0 0 28 28" fill="none" xmlns="http://www.w3.org/2000/svg">
<path d="M14.105 26.21C20.7369 26.21 26.2121 20.7273 26.2121 14.105C26.2121 7.47312 20.7273 2 14.0954 2C7.47523 2 2 7.47312 2 14.105C2 20.7273 7.48484 26.21 14.105 26.21Z" fill="black"/>
<path d="M6.9321 16.8003C6.77882 16.3777 6.94686 16.0766 7.4142 16.0766C9.72069 16.0766 11.576 17.0895 12.7446 18.5734V21.042C12.7446 21.1815 12.7743 21.3348 12.8308 21.4529C10.1053 21.0441 7.7653 19.2329 6.9321 16.8003ZM9.96092 10.6613C9.96092 9.96779 10.1123 9.27218 10.4351 8.56366C10.568 8.22312 10.9809 8.1678 11.2523 8.45092L12.576 9.80562L13.7144 8.33256C13.9368 8.03772 14.3167 8.03772 14.5253 8.33256L15.6583 9.80562L16.9682 8.45092C17.2396 8.1678 17.6547 8.22523 17.8164 8.56366C18.1317 9.27007 18.2617 9.96569 18.2617 10.6613C18.2617 12.7887 16.8693 14.5276 14.6903 14.7926V19.6909C15.7553 17.6159 17.9406 16.0766 20.8042 16.0766C21.262 16.0766 21.4396 16.3777 21.2863 16.8003C20.302 19.6086 17.3233 21.5869 14.1102 21.5869C13.7974 21.5869 13.5398 21.3582 13.5398 21.042V14.7926C11.3608 14.5372 9.96092 12.7887 9.96092 10.6613Z" fill="white"/>
</svg>
