<svg width="28" height="28" viewBox="0 0 28 28" fill="none" xmlns="http://www.w3.org/2000/svg">
<path d="M14.105 26.2301C20.7369 26.2301 26.2121 20.7549 26.2121 14.123C26.2121 7.50291 20.7273 2.01807 14.0954 2.01807C7.47523 2.01807 2 7.50291 2 14.123C2 20.7549 7.48484 26.2301 14.105 26.2301Z" fill="black"/>
<path d="M10.2964 15.2509C8.59059 15.2509 7.57129 14.1418 7.57129 12.7571C7.57129 11.5381 8.34075 10.6517 9.39215 10.3184C9.61036 8.1971 11.3876 6.53772 13.5302 6.53772C15.1891 6.53772 16.4934 7.4267 17.2233 8.8278C19.1613 8.8278 20.6477 10.1935 20.6477 12.0409C20.6477 13.8125 19.2148 15.2509 17.3524 15.2509H10.2964ZM11.9497 18.7435L12.9593 16.4194C13.0275 16.2554 13.1213 16.1947 13.3322 16.1947H15.0823C15.2581 16.1947 15.307 16.3236 15.2367 16.4855L14.5409 17.8091H16.0744C16.3066 17.8091 16.3652 18.0242 16.2087 18.1958L12.7451 21.5966C12.6652 21.6978 12.581 21.7116 12.5107 21.6957C12.4425 21.6434 12.4149 21.5593 12.4638 21.4559L13.4365 19.0599H12.1467C11.9379 19.0599 11.8601 18.9118 11.9497 18.7435Z" fill="white"/>
</svg>
