<svg width="28" height="28" viewBox="0 0 28 28" fill="none" xmlns="http://www.w3.org/2000/svg">
<path d="M22.6099 5.41515C22.8918 5.41515 23.1079 5.16507 23.0739 4.86179L22.9846 3.89968L23.7902 4.45679C24.0072 4.61945 24.3393 4.57046 24.4926 4.32789C24.6555 4.07781 24.5395 3.72976 24.2479 3.61586L23.3892 3.20757L24.2713 2.78335C24.5341 2.65984 24.648 2.34906 24.5043 2.08937C24.3703 1.8468 24.0126 1.77859 23.7785 1.95625L22.991 2.50703L23.0835 1.56297C23.1175 1.25969 22.9014 1 22.6099 1C22.297 1 22.0788 1.24047 22.1149 1.55336L22.1978 2.51453L21.3911 1.95414C21.1528 1.7882 20.826 1.8393 20.6941 2.08937C20.5387 2.34906 20.6493 2.66195 20.9196 2.78757L21.7921 3.20547L20.9271 3.61797C20.6472 3.73609 20.5291 4.0607 20.6866 4.32789C20.8206 4.57046 21.1528 4.62906 21.3911 4.45679L22.1978 3.9039L22.1245 4.86179C22.1001 5.17468 22.3087 5.41515 22.6099 5.41515ZM22.6099 22.5869C22.8918 22.5869 23.1079 22.3368 23.0739 22.041L22.9846 21.0789L23.7902 21.6381C24.0072 21.8008 24.3393 21.7518 24.4926 21.4975C24.6555 21.2474 24.5395 20.9015 24.2479 20.7972L23.3892 20.3772L24.2713 19.9551C24.5341 19.839 24.648 19.5304 24.5043 19.2611C24.3703 19.0185 24.0126 18.9482 23.7785 19.128L22.991 19.6787L23.0835 18.7347C23.1175 18.4389 22.9014 18.1792 22.6099 18.1792C22.297 18.1792 22.0788 18.4197 22.1149 18.7251L22.1978 19.6862L21.3911 19.1258C21.1528 18.9578 20.826 19.011 20.6941 19.2611C20.5387 19.5304 20.6493 19.8315 20.9196 19.9572L21.7921 20.3751L20.9271 20.7897C20.6472 20.9057 20.5291 21.2303 20.6866 21.4975C20.8206 21.7422 21.1528 21.8008 21.3911 21.6285L22.1978 21.0756L22.1245 22.041C22.1001 22.3464 22.3087 22.5869 22.6099 22.5869Z" fill="black"/>
<path d="M3.1925 10.2461C4.88 9.71755 6.62821 9.44474 8.29227 9.44474C10.4338 9.44474 12.0221 9.78786 14.0591 9.78786C16.2022 9.78786 17.5801 8.32232 17.5801 6.39787C17.5801 4.4392 16.0794 3.01959 14.2114 3.01959C12.8649 3.01959 11.6593 3.85912 11.1376 4.9956C10.9206 5.43294 11.0077 5.92888 11.4538 6.16935C11.8794 6.39692 12.4018 6.25653 12.6774 5.74138C12.9289 5.18169 13.528 4.7488 14.2114 4.7488C15.1377 4.7488 15.8509 5.39052 15.8509 6.39787C15.8509 7.40732 15.1527 8.06826 14.0591 8.06826C12.1348 8.06826 10.5125 7.72303 8.29227 7.72303C6.38633 7.72303 4.43797 8.05654 2.67102 8.60099C2.13032 8.75428 1.90485 9.22888 2.03681 9.68638C2.17087 10.1556 2.61454 10.4132 3.1925 10.2461ZM21.5691 15.8591C24.346 15.8591 26.3239 14.0805 26.3239 11.6019C26.3239 9.16278 24.4482 7.37779 22.0998 7.37779C20.0124 7.37779 18.402 8.81005 18.0533 10.7162C17.9471 11.2485 18.2145 11.6985 18.6786 11.7951C19.1628 11.8958 19.6137 11.6137 19.7455 11.0186C19.9616 9.87458 20.9431 9.09739 22.0998 9.09739C23.4852 9.09739 24.5947 10.1258 24.5947 11.6019C24.5947 13.1036 23.4043 14.1395 21.5691 14.1395C18.0055 14.1395 14.1141 12.1005 9.41821 12.1005C6.99571 12.1005 4.76938 12.4851 2.66891 13.2095C2.13782 13.398 1.90485 13.8587 2.03681 14.3141C2.17298 14.7855 2.63258 15.0526 3.19672 14.8579C5.12586 14.1419 7.12438 13.8318 9.41821 13.8318C14.0708 13.8318 17.582 15.8591 21.5691 15.8591ZM14.0708 24.2326C15.9345 24.2326 17.3691 22.844 17.3691 20.8874C17.3691 18.0585 14.4795 16.4779 9.21313 16.4779C7.03766 16.4779 4.67797 16.8955 2.66891 17.5752C2.13782 17.7637 1.90485 18.2244 2.03681 18.6777C2.17298 19.149 2.63258 19.4183 3.19672 19.2236C5.05368 18.5619 7.11852 18.2071 9.21313 18.2071C13.3911 18.2071 15.6495 19.244 15.6495 20.8874C15.6495 21.8948 14.9523 22.513 14.0708 22.513C13.2209 22.513 12.688 21.9468 12.507 21.0362C12.3903 20.5583 11.998 20.2098 11.4624 20.2935C10.9056 20.3772 10.6883 20.8858 10.8092 21.4126C11.094 22.9972 12.3242 24.2326 14.0708 24.2326Z" fill="black"/>
</svg>
