<svg width="28" height="28" viewBox="0 0 28 28" fill="none" xmlns="http://www.w3.org/2000/svg">
<path d="M14.105 26.2301C20.7369 26.2301 26.2121 20.7549 26.2121 14.123C26.2121 7.50291 20.7273 2.01807 14.0954 2.01807C7.47523 2.01807 2 7.50291 2 14.123C2 20.7549 7.48484 26.2301 14.105 26.2301Z" fill="black"/>
<path d="M8.45614 17.4282C7.04121 17.4282 6.09082 16.513 6.09082 15.2356C6.09082 14.2203 6.72481 13.4255 7.62504 13.1112C7.83387 11.3054 9.3702 9.89889 11.1962 9.89889C12.6372 9.89889 13.7519 10.6817 14.3711 11.836C16.0481 11.8669 17.2893 13.0601 17.2893 14.6272C17.2893 16.2125 16.0682 17.4282 14.4625 17.4282H8.45614ZM13.2548 9.38467L12.4542 8.5681C12.2444 8.33701 12.2337 7.96107 12.452 7.74709C12.6768 7.55115 13.0335 7.53943 13.2709 7.7567L14.0854 8.56787C14.2985 8.78936 14.2856 9.15779 14.0854 9.37717C13.8639 9.58482 13.4838 9.60826 13.2548 9.38467ZM16.5126 8.36068C16.2049 8.36068 15.9407 8.09232 15.9407 7.78248V6.64927C15.9407 6.32771 16.2049 6.07318 16.5126 6.07318C16.8417 6.07318 17.0941 6.32771 17.0941 6.64927V7.78248C17.0941 8.09232 16.8417 8.36068 16.5126 8.36068ZM18.9695 9.37717C18.7631 9.15779 18.746 8.77975 18.9695 8.56576L19.7797 7.76303C20.0108 7.52982 20.3718 7.54904 20.587 7.76303C20.801 7.97068 20.8085 8.34873 20.5849 8.57232L19.7916 9.38678C19.5744 9.60826 19.1847 9.58482 18.9695 9.37717ZM20.5579 12.388C20.2598 12.388 19.9893 12.1334 19.9893 11.8257C19.9893 11.4987 20.2598 11.2379 20.5579 11.2379H21.6836C22.0127 11.2379 22.265 11.4987 22.265 11.8257C22.265 12.1334 22.0127 12.388 21.6836 12.388H20.5579ZM19.7797 15.9001L18.9653 15.0952C18.7417 14.8834 18.7588 14.4957 18.9632 14.2763C19.1922 14.0666 19.5724 14.0687 19.796 14.2805L20.5849 15.0716C20.8085 15.2952 20.7988 15.6669 20.587 15.8884C20.3697 16.1002 20.0108 16.1291 19.7797 15.9001ZM19.3168 11.8257C19.3168 12.7505 18.8545 13.5934 18.1085 14.1273C17.9053 12.4714 16.5904 11.2386 14.8835 11.0159C14.6906 10.7314 14.485 10.4778 14.2293 10.2392C14.711 9.51357 15.5697 9.03521 16.5147 9.03521C18.0799 9.03521 19.3168 10.2626 19.3168 11.8257ZM9.95754 20.0654L10.745 18.2602C10.8036 18.1334 10.8697 18.0844 11.0509 18.0844H12.4373C12.5779 18.0844 12.6365 18.192 12.5662 18.3263L12.0288 19.3266H13.2719C13.4498 19.3266 13.5042 19.4949 13.3774 19.6388L10.622 22.3154C10.4985 22.4326 10.3332 22.3325 10.3897 22.1907L11.1625 20.3169H10.1153C9.95332 20.3169 9.89895 20.2114 9.95754 20.0654Z" fill="white"/>
</svg>
