<svg width="28" height="28" viewBox="0 0 28 28" fill="none" xmlns="http://www.w3.org/2000/svg">
<path d="M18.1065 14.1051C18.1065 18.3595 16.3185 21.8252 13.2665 23.7658C8.23509 23.3292 4.37517 19.2086 4.38478 14.1051C4.39438 9.01654 8.22009 4.90981 13.2184 4.44434C16.2972 6.41379 18.1065 9.89872 18.1065 14.1051Z" fill="white"/>
<path d="M26.2121 14.105C26.2121 7.47312 20.7465 2 14.1146 2C7.49445 2 2 7.47312 2 14.105C2 20.7273 7.48484 26.21 14.105 26.21C20.7369 26.21 26.2121 20.7273 26.2121 14.105ZM18.1062 14.105C18.1062 18.3594 16.3182 21.8251 13.2662 23.7657C8.23483 23.3291 4.37491 19.2085 4.38452 14.105C4.39412 9.01648 8.21983 4.90975 13.2181 4.44428C16.2969 6.41373 18.1062 9.89866 18.1062 14.105Z" fill="black"/>
</svg>
