<svg width="28" height="28" viewBox="0 0 28 28" fill="none" xmlns="http://www.w3.org/2000/svg">
<path d="M14.105 26.2301C20.7369 26.2301 26.2121 20.7549 26.2121 14.123C26.2121 7.50291 20.7273 2.01807 14.0954 2.01807C7.47523 2.01807 2 7.50291 2 14.123C2 20.7549 7.48484 26.2301 14.105 26.2301Z" fill="black"/>
<path d="M10.2559 14.123C10.2559 9.47959 13.7376 6.41162 18.1127 6.41162C18.5428 6.41162 18.8568 6.74162 18.8568 7.15154C18.8568 7.55607 18.5524 7.89357 18.1127 7.89357C15.7504 7.89357 13.7786 8.90959 12.6641 10.6421C13.0886 10.3934 13.5824 10.2643 14.1051 10.2643C16.2028 10.2643 17.9563 12.0062 17.9563 14.123C17.9563 18.7686 14.4747 21.8366 10.1092 21.8366C9.65993 21.8366 9.35547 21.4969 9.35547 21.1062C9.35547 20.6921 9.65993 20.3546 10.1092 20.3546C12.4619 20.3546 14.4337 19.3461 15.5481 17.6136C15.1237 17.8548 14.6299 17.9839 14.1051 17.9839C12.0074 17.9839 10.2559 16.2399 10.2559 14.123ZM12.9288 14.123C12.9288 14.7709 13.4615 15.2994 14.1051 15.2994C14.7529 15.2994 15.2835 14.7591 15.2835 14.123C15.2835 13.4773 14.7529 12.9467 14.1051 12.9467C13.4615 12.9467 12.9288 13.4773 12.9288 14.123Z" fill="white"/>
</svg>
