<svg width="28" height="28" viewBox="0 0 28 28" fill="none" xmlns="http://www.w3.org/2000/svg">
<path d="M15.2136 21.3453C16.2542 21.3453 16.8669 20.3825 16.8669 18.1962C16.8669 16.3986 18.871 14.813 19.6011 14.813C20.6284 14.813 20.829 18.1744 24.3059 18.2877C24.7735 16.8723 25.089 15.4733 25.0655 14.1092C24.9559 7.651 19.5875 2.99585 14.1301 3.06827C12.0205 3.09382 9.99171 3.78312 8.1528 5.13194C8.80905 6.03991 8.92741 6.15569 8.92741 6.50937C8.92741 6.99147 8.07944 7.12999 7.93882 7.89382C7.84507 8.35202 7.53171 8.66233 7.15014 8.66233C6.71116 8.66233 6.11022 8.16312 5.93374 7.03038C4.12249 8.77249 3.21593 11.2637 3.21593 14.0858C3.21593 16.063 3.74632 18.0073 4.97046 19.8889C6.87639 19.5587 7.51225 18.8403 7.51225 17.3354C7.51225 15.9298 8.63632 15.9041 8.63632 14.7437C8.63632 14.2166 8.09655 13.8205 7.14499 13.0128L6.37788 12.3683C6.24569 12.2595 6.18921 12.1135 6.18921 11.9621C6.18921 11.6701 6.40975 11.3876 6.73061 11.3876C6.94483 11.3876 7.07491 11.5198 7.66085 12.0216C8.48444 12.7184 8.87327 13.0604 9.35046 13.0604C9.8553 13.0604 10.0578 12.7386 10.3733 12.7386C10.628 12.7386 10.7794 12.8858 10.8924 13.1895L11.2866 14.2634C11.7542 15.6109 12.7953 15.3781 13.0414 16.7961C13.6198 20.2585 14.127 21.3453 15.2136 21.3453ZM14.105 26.21C20.7369 26.21 26.2121 20.7273 26.2121 14.105C26.2121 7.47312 20.7273 2 14.0954 2C7.47523 2 2 7.47312 2 14.105C2 20.7273 7.48484 26.21 14.105 26.21ZM14.105 24.3336C8.51233 24.3336 3.8785 19.6998 3.8785 14.105C3.8785 8.51023 8.50273 3.87639 14.0954 3.87639C19.6902 3.87639 24.3336 8.51023 24.3336 14.105C24.3336 19.6998 19.6998 24.3336 14.105 24.3336Z" fill="black"/>
</svg>
