<svg width="28" height="28" viewBox="0 0 28 28" fill="none" xmlns="http://www.w3.org/2000/svg">
<path d="M14.105 26.21C20.7369 26.21 26.2121 20.7273 26.2121 14.105C26.2121 7.47312 20.7273 2 14.0954 2C7.47523 2 2 7.47312 2 14.105C2 20.7273 7.48484 26.21 14.105 26.21ZM14.105 23.8255C8.71085 23.8255 4.39412 19.4991 4.39412 14.105C4.39412 8.71085 8.70124 4.38452 14.0954 4.38452C19.4895 4.38452 23.8276 8.71085 23.8276 14.105C23.8276 19.4991 19.4991 23.8255 14.105 23.8255Z" fill="black"/>
<path d="M7.35006 12.7974C8.32718 12.4819 9.331 12.3263 10.3156 12.3263C11.5763 12.3263 12.5141 12.5288 13.7342 12.5288C15.0491 12.5288 15.9247 11.6136 15.9247 10.4161C15.9247 9.19412 14.9764 8.31522 13.8216 8.31522C12.9659 8.31522 12.2126 8.8374 11.8995 9.55553C11.758 9.85365 11.8208 10.2371 12.151 10.4021C12.4534 10.5596 12.826 10.4478 13.0102 10.0815C13.1562 9.78076 13.4516 9.55998 13.8216 9.55998C14.3056 9.55998 14.6724 9.8649 14.6724 10.4161C14.6724 10.962 14.3248 11.2862 13.7342 11.2862C12.5886 11.2862 11.6466 11.074 10.3156 11.074C9.1871 11.074 8.0246 11.284 6.97624 11.6112C6.57897 11.7209 6.41936 12.0638 6.52694 12.395C6.61741 12.7346 6.96241 12.9284 7.35006 12.7974ZM18.1402 16.1066C19.8493 16.1066 21.0671 14.9996 21.0671 13.4696C21.0671 11.9726 19.91 10.8678 18.4653 10.8678C17.1725 10.8678 16.1635 11.7526 15.9636 12.9462C15.8785 13.3255 16.0981 13.6555 16.4293 13.7117C16.768 13.7818 17.0947 13.5805 17.1936 13.1619C17.3075 12.5391 17.817 12.1201 18.4653 12.1201C19.2317 12.1201 19.8148 12.653 19.8148 13.4696C19.8148 14.3138 19.1806 14.8447 18.1402 14.8447C16.074 14.8447 13.7841 13.6437 10.9805 13.6437C9.55366 13.6437 8.21327 13.891 6.96241 14.3119C6.58858 14.4451 6.41936 14.7859 6.52694 15.1074C6.62163 15.447 6.96663 15.6409 7.36811 15.5056C8.48163 15.0868 9.63241 14.896 10.9805 14.896C13.7033 14.896 15.7662 16.1066 18.1402 16.1066ZM13.7342 21.0216C14.8923 21.0216 15.8 20.1502 15.8 18.9303C15.8 17.1798 14.0218 16.2134 10.8732 16.2134C9.58694 16.2134 8.16007 16.4649 6.9528 16.872C6.59819 17.0148 6.40975 17.348 6.52694 17.6579C6.62163 17.9954 6.96663 18.2105 7.36811 18.0753C8.44764 17.6799 9.63804 17.4582 10.8732 17.4582C13.3149 17.4582 14.5456 18.0359 14.5456 18.9303C14.5456 19.4741 14.2023 19.7673 13.7342 19.7673C13.2767 19.7673 13.0262 19.5059 12.9282 18.9919C12.8539 18.6683 12.5762 18.4006 12.1991 18.4611C11.7814 18.5141 11.6216 18.9017 11.6959 19.2563C11.8627 20.2348 12.631 21.0216 13.7342 21.0216ZM18.4653 10.0449C18.6655 10.0449 18.8028 9.85857 18.7827 9.65631L18.737 8.9806L19.288 9.37271C19.4509 9.49084 19.6798 9.44607 19.7778 9.28318C19.9013 9.12568 19.8322 8.87326 19.6107 8.77951L19.0149 8.49803L19.6128 8.19521C19.8226 8.09185 19.88 7.88748 19.7874 7.71498C19.6991 7.54248 19.4466 7.50521 19.288 7.61373L18.737 8.00912L18.7827 7.34935C18.8028 7.12787 18.6655 6.94904 18.4653 6.94904C18.2438 6.94904 18.0969 7.12787 18.1149 7.33974L18.1681 8.00912L17.6021 7.61162C17.4413 7.5031 17.2177 7.53287 17.1294 7.71498C17.0272 7.86826 17.0771 8.08974 17.2869 8.20482L17.8869 8.49592L17.2848 8.78162C17.0675 8.87537 17.0272 9.10646 17.1102 9.27568C17.2006 9.45568 17.4413 9.49084 17.6021 9.37271L18.1681 8.98271L18.1245 9.65631C18.1065 9.85857 18.2438 10.0449 18.4653 10.0449ZM18.2689 19.5521C18.4114 19.5521 18.5199 19.4138 18.4998 19.2713L18.4637 18.9127L18.7552 19.1415C18.8605 19.2308 19.051 19.186 19.1105 19.0787C19.2031 18.9617 19.1649 18.7552 19.0011 18.6924L18.6627 18.5551L19.0032 18.3964C19.1553 18.3219 19.1839 18.1655 19.1201 18.0486C19.0606 17.9166 18.8659 17.8794 18.7552 17.9591L18.4637 18.2007L18.4998 17.8388C18.5199 17.675 18.4114 17.5538 18.2689 17.5538C18.1051 17.5538 17.987 17.675 18.0029 17.8292L18.0486 18.2007L17.742 17.9548C17.6389 17.8794 17.4634 17.907 17.3942 18.0486C17.3305 18.1463 17.342 18.3198 17.5133 18.406L17.8421 18.553L17.5091 18.6945C17.342 18.7691 17.3305 18.9404 17.3846 19.0616C17.4366 19.1956 17.6389 19.2308 17.742 19.1415L18.0486 18.9148L18.0146 19.2713C17.9966 19.4138 18.1051 19.5521 18.2689 19.5521Z" fill="black"/>
</svg>
