<svg width="35" height="35" viewBox="0 0 35 35" fill="none" xmlns="http://www.w3.org/2000/svg">
<path d="M22.3376 7.04185C19.0749 7.04185 16.4693 9.6549 16.4693 12.9155C16.4693 13.1152 16.4895 13.3128 16.516 13.4987L18.5407 13.5922C18.4749 13.3655 18.443 13.1295 18.443 12.905C18.443 10.7199 20.1579 9.00497 22.3355 9.00497C24.511 9.00497 26.2259 10.7199 26.2259 12.905C26.2259 14.7207 25.0212 16.2392 23.3442 16.6897L23.356 18.6933C26.1213 18.1948 28.1878 15.8026 28.1878 12.9155C28.1878 9.6549 25.5919 7.04185 22.3376 7.04185ZM15.3762 7.45716C15.7967 7.87764 16.4822 7.87013 16.8792 7.46138C17.2784 7.05263 17.2838 6.39052 16.875 5.97756L15.1505 4.23499C14.746 3.82624 14.0712 3.82835 13.6645 4.23499C13.2558 4.64373 13.2504 5.31966 13.6688 5.73802L15.3762 7.45716ZM22.3313 5.18701C22.9167 5.18701 23.3883 4.70162 23.3883 4.12577V1.69998C23.3883 1.11241 22.9167 0.638733 22.3313 0.638733C21.7458 0.638733 21.2742 1.11241 21.2742 1.69998V4.12577C21.2742 4.70162 21.7458 5.18701 22.3313 5.18701ZM27.7854 7.46349C28.1824 7.87224 28.8701 7.87764 29.2884 7.45927L31.0076 5.74224C31.4184 5.32388 31.4184 4.64583 31.0097 4.23921C30.6031 3.83046 29.9367 3.83257 29.5259 4.24342L27.7875 5.97756C27.3767 6.3842 27.3863 7.05685 27.7854 7.46349ZM31.0955 13.9662H33.533C34.1109 13.9662 34.5846 13.4968 34.5846 12.9134C34.5846 12.328 34.1109 11.8522 33.533 11.8522H31.0955C30.5292 11.8522 30.0342 12.328 30.0342 12.9134C30.0342 13.4968 30.5292 13.9662 31.0955 13.9662ZM29.5238 21.5951C29.9325 22.0039 30.5988 21.9964 31.0076 21.5898C31.4163 21.181 31.41 20.5072 31.0034 20.1038L29.2692 18.373C28.8626 17.9738 28.1899 17.9663 27.7812 18.373C27.3745 18.7817 27.3788 19.4576 27.7875 19.8664L29.5238 21.5951Z" fill="black"/>
<path d="M5.14382 24.8328H17.8762C21.3473 24.8328 24.0515 22.1947 24.0515 18.7993C24.0515 15.421 21.3534 12.8682 17.7935 12.8108C16.4055 10.2275 13.9458 8.67499 10.9816 8.67499C7.04999 8.67499 3.77226 11.6581 3.32226 15.5546C1.33477 16.1905 0 17.9223 0 20.0994C0 22.85 2.08711 24.8328 5.14382 24.8328ZM5.12648 22.6688C3.18491 22.6688 2.16608 21.571 2.16608 20.1441C2.16608 18.9209 2.89475 17.8721 4.5921 17.4235C5.1778 17.2669 5.38241 16.9986 5.44194 16.3937C5.7621 13.085 8.11944 10.8444 10.9816 10.8444C13.1897 10.8444 14.9339 12.0654 16.0301 14.2358C16.2984 14.7502 16.586 14.9323 17.2048 14.9323C20.2441 14.9323 21.878 16.7002 21.878 18.8558C21.878 20.9764 20.1726 22.6688 17.8819 22.6688H5.12648ZM14.9735 28.9273H12.3016L12.2634 29.4987L13.6099 26.9304C13.7409 26.6844 13.6355 26.4926 13.3755 26.4926H10.728C10.4074 26.4926 10.2998 26.6098 10.1944 26.8484L8.66695 30.3197C8.54977 30.5914 8.66485 30.7714 8.97164 30.7714H11.1516L11.269 30.0811L9.46031 34.459C9.39 34.6135 9.42516 34.7445 9.53063 34.7893C9.63609 34.8361 9.76711 34.8031 9.88641 34.6742L15.1493 29.4983C15.3921 29.2543 15.3058 28.9273 14.9735 28.9273Z" fill="black"/>
</svg>
