<svg width="28" height="28" viewBox="0 0 28 28" fill="none" xmlns="http://www.w3.org/2000/svg">
<path d="M14.105 26.21C20.7369 26.21 26.2121 20.7273 26.2121 14.105C26.2121 7.47312 20.7273 2 14.0954 2C7.47523 2 2 7.47312 2 14.105C2 20.7273 7.48484 26.21 14.105 26.21ZM14.105 23.8255C8.71085 23.8255 4.39412 19.4991 4.39412 14.105C4.39412 8.71085 8.70124 4.38452 14.0954 4.38452C19.4895 4.38452 23.8276 8.71085 23.8276 14.105C23.8276 19.4991 19.4991 23.8255 14.105 23.8255Z" fill="black"/>
<path d="M10.5608 8.79546C10.2519 9.47843 10.1101 10.156 10.1101 10.8198C10.1101 13.0409 11.7027 14.832 14.101 14.832C16.5186 14.832 18.092 13.0409 18.092 10.8198C18.092 10.1539 17.9715 9.47421 17.6626 8.79546C17.5126 8.47507 17.1156 8.41765 16.858 8.68905L15.5896 9.99804L14.4981 8.57819C14.2916 8.29929 13.9297 8.29929 13.7232 8.57819L12.6242 9.99804L11.3441 8.68905C11.0865 8.41765 10.7012 8.47296 10.5608 8.79546ZM13.5507 20.8102C13.5507 21.1126 13.8041 21.3371 14.101 21.3371C17.195 21.3371 20.0589 19.43 20.9996 16.7269C21.1529 16.3224 20.9753 16.0372 20.5452 16.0372C17.5147 16.0372 15.2647 17.8062 14.3657 20.1371L14.6514 20.3143V14.1031H13.5507V20.8102ZM12.7991 18.4531C11.6762 17.0129 9.87829 16.0372 7.65266 16.0372C7.21297 16.0372 7.04703 16.3224 7.19821 16.7269C8.00164 19.0723 10.247 20.8123 12.8736 21.203C12.8267 21.087 12.7991 20.9476 12.7991 20.8102V18.4531Z" fill="black"/>
</svg>
