<svg width="28" height="28" viewBox="0 0 28 28" fill="none" xmlns="http://www.w3.org/2000/svg">
<path d="M14.105 26.2301C20.7369 26.2301 26.2121 20.7549 26.2121 14.123C26.2121 7.50291 20.7273 2.01807 14.0954 2.01807C7.47523 2.01807 2 7.50291 2 14.123C2 20.7549 7.48484 26.2301 14.105 26.2301Z" fill="black"/>
<path d="M14.0056 13.0341C9.98456 13.0341 7.79199 12.0116 7.79199 10.0534C7.79199 8.76757 8.90105 7.55749 11.1288 6.90734C11.5952 6.78804 11.9231 6.92538 12.0424 7.28421C12.1542 7.64304 11.9646 7.99226 11.5643 8.12327C9.78534 8.66913 9.16214 9.35773 9.16214 10.0278C9.16214 11.1362 10.7395 11.7395 13.9545 11.7395C17.0726 11.7395 19.0472 11.0804 19.0472 10.5219C19.0472 10.0538 17.8519 9.61554 15.7945 9.61554C14.0449 9.61554 12.7854 10.0121 11.7614 10.4246C11.3974 10.5812 10.9926 10.4802 10.8361 10.149C10.6837 9.86046 10.7721 9.43882 11.1778 9.24921C12.356 8.71202 13.9116 8.36023 15.8574 8.36023C18.5323 8.36023 20.4077 9.1646 20.4077 10.5315C20.4077 12.024 17.9979 13.0341 14.0056 13.0341ZM14.1867 15.1894C12.7451 15.1894 11.0285 14.9966 9.69136 14.6119C9.3091 14.5119 9.12066 14.1807 9.20902 13.8528C9.3166 13.5057 9.64988 13.3843 10.0183 13.4919C11.2532 13.853 12.8058 14.0246 14.1867 14.0246C16.0324 14.0246 17.7553 13.7209 18.9338 13.2807C19.3001 13.1359 19.6418 13.205 19.8059 13.5106C19.9507 13.828 19.808 14.1835 19.4566 14.3209C18.1301 14.8623 16.2431 15.1894 14.1867 15.1894ZM14.6363 17.3201C13.8277 17.3298 13.1138 17.2829 12.6045 17.1912C12.1732 17.1155 11.9986 16.7973 12.0614 16.4853C12.1296 16.1776 12.3926 15.9945 12.7983 16.0381C13.3109 16.1063 13.9842 16.1586 14.6215 16.1586C16.1515 16.1586 17.5709 15.9327 19.005 15.4669C19.4065 15.3498 19.7292 15.4583 19.8431 15.7639C19.9528 16.0491 19.8497 16.4368 19.4269 16.5795C17.9576 17.0644 16.3624 17.3063 14.6363 17.3201ZM14.0238 19.3508C13.6043 19.2847 13.436 18.9931 13.4616 18.6821C13.5063 18.353 13.796 18.1466 14.1963 18.1838C15.3066 18.3214 16.5031 18.2436 17.5282 17.9813C17.9276 17.8855 18.2374 18.0132 18.3471 18.3486C18.4388 18.6509 18.2876 18.9959 17.9074 19.1131C16.6936 19.434 15.2161 19.4797 14.0238 19.3508ZM13.5816 21.4166C13.1693 21.3622 12.982 21.0767 13.0193 20.768C13.0545 20.4732 13.3057 20.24 13.7072 20.2986C14.0599 20.3412 14.4403 20.3316 14.8015 20.2869C15.2126 20.2379 15.4584 20.4615 15.5011 20.768C15.517 21.0959 15.3181 21.3622 14.9388 21.4069C14.4851 21.4517 14.0152 21.4613 13.5816 21.4166Z" fill="white"/>
</svg>
