<svg width="28" height="28" viewBox="0 0 28 28" fill="none" xmlns="http://www.w3.org/2000/svg">
<path d="M14.105 26.2301C20.7369 26.2301 26.2121 20.7549 26.2121 14.123C26.2121 7.50291 20.7273 2.01807 14.0954 2.01807C7.47523 2.01807 2 7.50291 2 14.123C2 20.7549 7.48484 26.2301 14.105 26.2301Z" fill="black"/>
<path d="M8.7325 19.0695C7.24726 19.0695 6.23828 18.1074 6.23828 16.7576C6.23828 15.6976 6.8957 14.8463 7.86414 14.5299C8.07507 12.6249 9.69132 11.1364 11.6282 11.1364C13.1416 11.1364 14.3224 11.9565 14.9768 13.179C16.7475 13.2078 18.0548 14.4692 18.0548 16.1204C18.0548 17.7952 16.758 19.0695 15.0682 19.0695H8.7325ZM22.1029 12.845C22.1029 13.8891 20.8987 15.4737 18.91 15.7227C18.7345 13.9273 17.3493 12.5752 15.4975 12.3291C15.3719 12.1491 15.2442 11.9841 15.0909 11.8191C15.2965 10.0622 16.8166 8.70451 17.9655 8.65436C18.1903 8.65436 18.3384 8.77154 18.3384 8.95154C18.3384 9.27006 17.928 9.85717 17.928 10.6423C17.928 11.9574 18.8297 12.8089 20.2694 12.8068C21.0813 12.8068 21.5224 12.4444 21.8175 12.4444C22.0071 12.4444 22.1029 12.6202 22.1029 12.845Z" fill="white"/>
</svg>
