<svg width="35" height="34" viewBox="0 0 35 34" fill="none" xmlns="http://www.w3.org/2000/svg">
<path d="M4.99288 29.7281L6.50366 27.1071C6.72725 26.7323 6.61967 26.2821 6.23858 26.0564C5.84788 25.8403 5.41991 25.9605 5.1921 26.3533L3.67171 28.9936C3.45772 29.3512 3.56319 29.7972 3.94429 30.0229C4.32538 30.239 4.781 30.0954 4.99288 29.7281ZM8.67139 33.019L10.1801 30.4076C10.4037 30.0232 10.2865 29.5729 9.91499 29.3569C9.52428 29.1312 9.09632 29.261 8.8685 29.6538L7.34811 32.2844C7.13624 32.6496 7.24171 33.0977 7.6228 33.3138C8.00178 33.5299 8.45741 33.3958 8.67139 33.019ZM14.3232 29.7185L15.8318 27.0975C16.0554 26.7227 15.9382 26.2725 15.5571 26.0468C15.176 25.8307 14.7481 25.9509 14.5203 26.3437L12.9999 28.984C12.788 29.3416 12.8839 29.7876 13.2746 30.0133C13.6535 30.2294 14.1092 30.0858 14.3232 29.7185ZM17.9899 33.0094L19.5103 30.3979C19.7339 30.0136 19.6146 29.5633 19.2335 29.3472C18.8524 29.1215 18.4266 29.2514 18.1871 29.6442L16.6688 32.2748C16.4548 32.64 16.5603 33.0881 16.951 33.3042C17.3224 33.5203 17.7856 33.3841 17.9899 33.0094Z" fill="black"/>
<path d="M22.3376 6.40312C19.0749 6.40312 16.4693 9.01617 16.4693 12.2768C16.4693 12.4765 16.4895 12.6837 16.516 12.8695L18.5407 12.963C18.4749 12.7364 18.443 12.4908 18.443 12.2662C18.443 10.0812 20.1579 8.36624 22.3355 8.36624C24.511 8.36624 26.2259 10.0812 26.2259 12.2662C26.2259 14.0819 25.0212 15.6005 23.3442 16.0509L23.356 18.0546C26.1213 17.5561 28.1878 15.1638 28.1878 12.2768C28.1878 9.01617 25.5919 6.40312 22.3376 6.40312ZM15.3762 6.81843C15.7967 7.2389 16.4822 7.2314 16.8792 6.82265C17.2784 6.4139 17.2838 5.7518 16.875 5.33883L15.1505 3.59625C14.746 3.1875 14.0712 3.18961 13.6645 3.59625C13.2558 4.005 13.2504 4.68093 13.6688 5.09929L15.3762 6.81843ZM22.3313 4.54828C22.9167 4.54828 23.3883 4.06289 23.3883 3.48703V1.06125C23.3883 0.47367 22.9167 0 22.3313 0C21.7458 0 21.2742 0.47367 21.2742 1.06125V3.48703C21.2742 4.06289 21.7458 4.54828 22.3313 4.54828ZM27.7854 6.82476C28.1824 7.23351 28.8701 7.2389 29.2884 6.82054L31.0076 5.10351C31.4184 4.68515 31.4184 4.00711 31.0097 3.60047C30.6031 3.19172 29.9367 3.19383 29.5259 3.60469L27.7875 5.33883C27.3767 5.74547 27.3863 6.41812 27.7854 6.82476ZM31.0955 13.3275H33.533C34.1109 13.3275 34.5846 12.858 34.5846 12.2747C34.5846 11.6892 34.1109 11.2134 33.533 11.2134H31.0955C30.5292 11.2134 30.0342 11.6892 30.0342 12.2747C30.0342 12.858 30.5292 13.3275 31.0955 13.3275ZM29.5238 20.9564C29.9325 21.3651 30.5988 21.3576 31.0076 20.951C31.4163 20.5423 31.41 19.8684 31.0034 19.4651L29.2692 17.7342C28.8626 17.3351 28.1899 17.3276 27.7812 17.7342C27.3745 18.143 27.3788 18.8189 27.7875 19.2276L29.5238 20.9564Z" fill="black"/>
<path d="M5.14382 24.194H17.8762C21.3473 24.194 24.0515 21.5559 24.0515 18.1605C24.0515 14.7823 21.3534 12.2294 17.7935 12.172C16.4055 9.58876 13.9458 8.03625 10.9816 8.03625C7.04999 8.03625 3.77226 11.0194 3.32226 14.9159C1.33477 15.5517 0 17.2835 0 19.4606C0 22.2112 2.08711 24.194 5.14382 24.194ZM5.12648 22.0301C3.18491 22.0301 2.16608 20.9323 2.16608 19.5054C2.16608 18.2822 2.89475 17.2333 4.5921 16.7847C5.1778 16.6282 5.38241 16.3598 5.44194 15.7549C5.7621 12.4462 8.11944 10.2056 10.9816 10.2056C13.1897 10.2056 14.9339 11.4267 16.0301 13.597C16.2984 14.1115 16.586 14.2936 17.2048 14.2936C20.2441 14.2936 21.878 16.0615 21.878 18.217C21.878 20.3376 20.1726 22.0301 17.8819 22.0301H5.12648Z" fill="black"/>
</svg>
