<svg width="28" height="28" viewBox="0 0 28 28" fill="none" xmlns="http://www.w3.org/2000/svg">
<path d="M14.105 26.2301C20.7369 26.2301 26.2121 20.7549 26.2121 14.123C26.2121 7.50291 20.7273 2.01807 14.0954 2.01807C7.47523 2.01807 2 7.50291 2 14.123C2 20.7549 7.48484 26.2301 14.105 26.2301Z" fill="black"/>
<path d="M7.92128 16.5816C7.5198 16.5816 7.20996 16.2814 7.20996 15.9247C7.20996 15.5595 7.5198 15.2518 7.92128 15.2518H9.28699C9.68847 15.2518 9.99832 15.5499 9.99832 15.9247C9.99832 16.2931 9.68847 16.5816 9.28699 16.5816H7.92128ZM10.2376 13.2059L9.26425 12.2368C8.97246 11.9375 8.97457 11.5287 9.22371 11.2604C9.48457 11.0112 9.9041 10.992 10.198 11.2838L11.1693 12.2551C11.4418 12.5373 11.4707 12.9643 11.2098 13.2273C10.9511 13.4956 10.5198 13.4743 10.2376 13.2059ZM14.1057 11.7106C13.7373 11.7106 13.4371 11.389 13.4371 11.0068V8.93443L13.4722 8.55591L13.4368 8.58076L12.6967 9.32818C12.571 9.45053 12.3985 9.54193 12.2146 9.54193C11.8792 9.54193 11.6312 9.29396 11.6312 8.96068C11.6312 8.78092 11.7013 8.62553 11.8504 8.47647L13.6459 6.78967C13.7992 6.65022 13.9482 6.5874 14.1057 6.5874C14.2632 6.5874 14.4123 6.65022 14.5656 6.78967L16.359 8.47647C16.5198 8.62553 16.5803 8.78092 16.5803 8.96068C16.5803 9.29396 16.3323 9.54193 15.9969 9.54193C15.8129 9.54193 15.6308 9.46014 15.5244 9.32818L14.8536 8.6192L14.7392 8.52498L14.7744 8.93443V11.0068C14.7744 11.389 14.4742 11.7106 14.1057 11.7106ZM17.0209 13.2273C16.7504 12.9643 16.76 12.5469 17.0518 12.2551L18.0135 11.2838C18.3074 11.0016 18.7269 10.992 18.9878 11.2604C19.2369 11.5287 19.2294 11.9375 18.9472 12.2368L17.9835 13.2059C17.6896 13.4839 17.2796 13.486 17.0209 13.2273ZM18.9341 16.5816C18.5347 16.5816 18.2132 16.2931 18.2132 15.9247C18.2132 15.5499 18.5347 15.2518 18.9341 15.2518H20.2902C20.7034 15.2518 21.0015 15.5499 21.0015 15.9247C21.0015 16.2814 20.7034 16.5816 20.2902 16.5816H18.9341ZM17.4332 16.119C17.4332 16.4506 17.3734 16.7928 17.2592 17.0989H10.9522C10.8381 16.7928 10.7783 16.4506 10.7783 16.119C10.7783 14.3056 12.2924 12.8012 14.1057 12.8012C15.9287 12.8012 17.4332 14.3056 17.4332 16.119ZM7.9412 19.2692C7.55917 19.2692 7.20996 18.9575 7.20996 18.5743C7.20996 18.189 7.54746 17.8773 7.9412 17.8773H20.2703C20.6736 17.8773 21.0015 18.1869 21.0015 18.5743C21.0015 18.9596 20.664 19.2692 20.2703 19.2692H7.9412Z" fill="white"/>
</svg>
