<svg width="28" height="28" viewBox="0 0 28 28" fill="none" xmlns="http://www.w3.org/2000/svg">
<path d="M14.105 26.2301C20.7369 26.2301 26.2121 20.7549 26.2121 14.123C26.2121 7.50291 20.7273 2.01807 14.0954 2.01807C7.47523 2.01807 2 7.50291 2 14.123C2 20.7549 7.48484 26.2301 14.105 26.2301Z" fill="black"/>
<path d="M10.3753 15.6437C8.66952 15.6437 7.64062 14.5229 7.64062 13.1307C7.64062 11.9309 8.41968 11.0349 9.47109 10.7112C9.68929 8.57606 11.457 6.9209 13.6092 6.9209C15.2681 6.9209 16.5724 7.8195 17.2927 9.22059C19.2307 9.22059 20.7171 10.5767 20.7171 12.4241C20.7171 14.2053 19.2938 15.6437 17.4218 15.6437H10.3753ZM9.96398 18.1737C9.66047 18.1737 9.40804 17.9288 9.40804 17.6157C9.40804 17.3026 9.66047 17.0363 9.96398 17.0363H18.2358C18.551 17.0363 18.8034 17.293 18.8034 17.6157C18.8034 17.9288 18.551 18.1737 18.2358 18.1737H9.96398ZM9.96398 20.6105C9.66047 20.6105 9.40804 20.3581 9.40804 20.0354C9.40804 19.7202 9.66047 19.4773 9.96398 19.4773H18.2358C18.551 19.4773 18.8034 19.7202 18.8034 20.0354C18.8034 20.3581 18.551 20.6105 18.2358 20.6105H9.96398Z" fill="white"/>
</svg>
