<svg width="28" height="28" viewBox="0 0 28 28" fill="none" xmlns="http://www.w3.org/2000/svg">
<path d="M7.92085 11.688C6.57156 11.688 5.58437 12.3952 4.81843 12.9502C3.90156 13.6104 3.20359 14.0838 2.03195 14.0838H1.96281C1.42234 14.0838 1 14.5158 1 15.0445C1 15.5754 1.42234 15.9977 1.96281 15.9977H2.03195C5.76718 15.9977 6.07515 13.6019 7.92085 13.6019C8.25999 13.6019 8.51804 13.714 8.76226 13.8377L9.9803 12.2834C9.39671 11.9564 8.73437 11.688 7.92085 11.688ZM25.0855 14.0838H25.0164C23.8351 14.0838 23.1468 13.6104 22.232 12.9502C21.464 12.3952 20.4789 11.688 19.1275 11.688C18.3023 11.688 17.6315 11.9606 17.0404 12.3014L18.2542 13.8494C18.5144 13.7044 18.7787 13.6019 19.1275 13.6019C20.9753 13.6019 21.2716 15.9977 25.0164 15.9977H25.0855C25.6164 15.9977 26.0483 15.5754 26.0483 15.0445C26.0483 14.5158 25.6164 14.0838 25.0855 14.0838Z" fill="black"/>
<path d="M1 7.81735C1 8.34821 1.42234 8.78016 1.96281 8.78016H2.03195C5.76718 8.78016 6.07515 6.38438 7.92085 6.38438C9.73984 6.38438 10.2226 8.78016 13.5252 8.78016C16.8182 8.78016 17.3106 6.38438 19.1275 6.38438C20.9753 6.38438 21.2716 8.78016 25.0164 8.78016H25.0855C25.6164 8.78016 26.0483 8.34821 26.0483 7.81735C26.0483 7.28861 25.6164 6.86416 25.0855 6.86416H25.0164C23.8351 6.86416 23.1468 6.38111 22.232 5.73048C21.464 5.17548 20.4789 4.46838 19.1275 4.46838C17.7376 4.46838 16.743 5.20431 15.9749 5.78064C15.16 6.39213 14.5323 6.86416 13.5252 6.86416C12.5064 6.86416 11.8905 6.39213 11.0734 5.78064C10.3075 5.20431 9.31069 4.46838 7.92085 4.46838C6.57156 4.46838 5.58437 5.17548 4.81843 5.73048C3.90156 6.38111 3.20359 6.86416 2.03195 6.86416H1.96281C1.42234 6.86416 1 7.28861 1 7.81735Z" fill="black"/>
<path d="M10.296 16.9003H16.7153C17.5105 16.9003 17.8553 16.121 17.3722 15.5006L14.2614 11.4692C13.8057 10.8921 13.2151 10.8867 12.7541 11.4692L9.64117 15.491C9.15062 16.1189 9.48906 16.9003 10.296 16.9003ZM12.4354 15.7275V23.67C12.4354 24.2423 12.9205 24.7359 13.5151 24.7359C14.1097 24.7359 14.6024 24.2423 14.6024 23.67V15.7275H12.4354Z" fill="black"/>
</svg>
