<svg width="35" height="28" viewBox="0 0 35 28" fill="none" xmlns="http://www.w3.org/2000/svg">
<path d="M22.3355 9.36624C24.511 9.36624 26.2259 11.0812 26.2259 13.2662C26.2259 15.0819 25.0212 16.6122 23.3442 17.0605L23.356 19.0642C26.1213 18.5657 28.1878 16.1734 28.1878 13.2768C28.1878 10.0162 25.5919 7.40312 22.3376 7.40312C19.0749 7.40312 16.4693 10.0162 16.4693 13.2768C16.4693 13.4861 16.4895 13.6858 16.516 13.8695L18.5407 13.963C18.4749 13.7364 18.443 13.5004 18.443 13.2662C18.443 11.0812 20.1579 9.36624 22.3355 9.36624ZM15.3762 7.81843C15.7967 8.2389 16.4822 8.2314 16.8792 7.82265C17.2784 7.4139 17.2838 6.7518 16.875 6.33883L15.1505 4.60586C14.746 4.19711 14.0712 4.19922 13.6645 4.60586C13.2558 5.01461 13.2504 5.69054 13.6688 6.09929L15.3762 7.81843ZM22.3313 5.56C22.9167 5.56 23.3883 5.06289 23.3883 4.49664V2.06125C23.3883 1.48328 22.9167 1 22.3313 1C21.7458 1 21.2742 1.48328 21.2742 2.06125V4.49664C21.2742 5.06289 21.7458 5.56 22.3313 5.56ZM27.7854 7.82476C28.1824 8.23351 28.8701 8.2389 29.2884 7.82054L31.0076 6.10351C31.4184 5.69476 31.4184 5.01672 31.0097 4.61008C30.6031 4.20133 29.9367 4.20344 29.5259 4.6143L27.7875 6.33883C27.3767 6.74547 27.3863 7.41812 27.7854 7.82476ZM31.0955 14.3275H33.533C34.1109 14.3275 34.5846 13.858 34.5846 13.2747C34.5846 12.6988 34.1109 12.2155 33.533 12.2155H31.0955C30.5292 12.2155 30.0342 12.6988 30.0342 13.2747C30.0342 13.858 30.5292 14.3275 31.0955 14.3275ZM29.5238 21.9564C29.9325 22.3651 30.5988 22.3598 31.0076 21.951C31.4163 21.5423 31.41 20.8684 31.0034 20.4672L29.2692 18.7438C28.8626 18.3447 28.1899 18.3372 27.7812 18.7438C27.3745 19.1526 27.3788 19.8285 27.7875 20.2373L29.5238 21.9564Z" fill="black"/>
<path d="M5.14382 25.194H17.8762C21.3473 25.194 24.0515 22.5559 24.0515 19.1605C24.0515 15.7823 21.3534 13.2294 17.7935 13.172C16.4055 10.5887 13.9458 9.04584 10.9816 9.04584C7.04999 9.04584 3.77226 12.0194 3.32226 15.9255C1.33477 16.5517 0 18.2835 0 20.4606C0 23.2112 2.08711 25.194 5.14382 25.194ZM5.12648 23.0301C3.18491 23.0301 2.16608 21.9323 2.16608 20.5054C2.16608 19.2843 2.89475 18.243 4.5921 17.7847C5.1778 17.6378 5.38241 17.3694 5.44194 16.7549C5.7621 13.4483 8.11944 11.2056 10.9816 11.2056C13.1897 11.2056 14.9339 12.4363 16.0301 14.597C16.2984 15.1115 16.586 15.2936 17.2048 15.2936C20.2441 15.2936 21.878 17.0711 21.878 19.217C21.878 21.3376 20.1726 23.0301 17.8819 23.0301H5.12648Z" fill="black"/>
</svg>
