<svg width="28" height="28" viewBox="0 0 28 28" fill="none" xmlns="http://www.w3.org/2000/svg">
<path d="M14.105 26.2301C20.7369 26.2301 26.2121 20.7549 26.2121 14.123C26.2121 7.50291 20.7273 2.01807 14.0954 2.01807C7.47523 2.01807 2 7.50291 2 14.123C2 20.7549 7.48484 26.2301 14.105 26.2301Z" fill="black"/>
<path d="M9.73519 13.6755C9.73519 14.077 9.39652 14.389 8.95027 14.389H7.51097C7.08816 14.389 6.75488 14.0674 6.75488 13.6755C6.75488 13.2933 7.08816 12.9717 7.51097 12.9717H8.95027C9.38691 12.9717 9.73519 13.2837 9.73519 13.6755ZM11.0074 10.8213C10.7231 11.1014 10.2801 11.0684 9.9766 10.7787L8.94886 9.74345C8.63574 9.43454 8.62824 8.99486 8.90082 8.71056C9.1734 8.43798 9.61847 8.41876 9.92949 8.734L10.9743 9.77885C11.2779 10.0845 11.2971 10.5253 11.0074 10.8213ZM14.1049 9.19595C13.713 9.19595 13.4011 8.84134 13.4011 8.42064V6.97923C13.4011 6.5447 13.7226 6.22314 14.1049 6.22314C14.4872 6.22314 14.8183 6.5447 14.8183 6.97923V8.42064C14.8183 8.84134 14.4968 9.19595 14.1049 9.19595ZM17.2141 10.8213C16.9244 10.5253 16.9244 10.0941 17.2354 9.77885L18.2824 8.734C18.5742 8.42837 19.0385 8.42837 19.3207 8.71056C19.5836 9.00447 19.5761 9.43454 19.2609 9.74345L18.2449 10.7787C17.9414 11.078 17.4984 11.0801 17.2141 10.8213ZM18.4842 13.6755C18.4842 13.2837 18.8292 12.9717 19.2616 12.9717H20.7084C21.1354 12.9717 21.457 13.2933 21.457 13.6755C21.457 14.0674 21.1354 14.389 20.7084 14.389H19.2616C18.8292 14.389 18.4842 14.077 18.4842 13.6755ZM10.736 14.9297C10.6314 14.598 10.5621 14.2579 10.5621 13.905C10.5621 11.9616 12.1753 10.3484 14.1049 10.3484C16.0462 10.3484 17.6477 11.9616 17.6477 13.905C17.6477 14.2579 17.5804 14.598 17.4759 14.9297H10.736ZM7.533 17.3015C7.12753 17.3015 6.75488 16.9643 6.75488 16.5576C6.75488 16.1393 7.11371 15.8254 7.533 15.8254H20.6864C21.1078 15.8254 21.457 16.1372 21.457 16.5576C21.457 16.9685 21.0982 17.3015 20.6864 17.3015H7.533ZM8.24808 19.4883C7.91269 19.4883 7.6359 19.204 7.6359 18.8761C7.6359 18.5407 7.91269 18.2564 8.24808 18.2564C8.59308 18.2564 8.85816 18.5407 8.85816 18.8761C8.85816 19.204 8.59308 19.4883 8.24808 19.4883ZM11.1855 19.4883C10.8501 19.4883 10.5754 19.204 10.5754 18.8761C10.5754 18.5407 10.8501 18.2564 11.1855 18.2564C11.5209 18.2564 11.8052 18.5407 11.8052 18.8761C11.8052 19.204 11.5209 19.4883 11.1855 19.4883ZM14.1187 19.4883C13.7812 19.4883 13.5065 19.204 13.5065 18.8761C13.5065 18.5407 13.7812 18.2564 14.1187 18.2564C14.4637 18.2564 14.7384 18.5407 14.7384 18.8761C14.7384 19.204 14.4637 19.4883 14.1187 19.4883ZM17.0658 19.4883C16.7283 19.4883 16.444 19.204 16.444 18.8761C16.444 18.5407 16.7283 18.2564 17.0658 18.2564C17.4011 18.2564 17.6662 18.5407 17.6662 18.8761C17.6662 19.204 17.4011 19.4883 17.0658 19.4883ZM19.9872 19.4883C19.6615 19.4883 19.3772 19.204 19.3772 18.8761C19.3772 18.5407 19.6615 18.2564 19.9872 18.2564C20.3247 18.2564 20.609 18.5407 20.609 18.8761C20.609 19.204 20.3247 19.4883 19.9872 19.4883ZM9.70238 21.1509C9.3766 21.1509 9.10191 20.8783 9.10191 20.5408C9.10191 20.2033 9.3766 19.919 9.70238 19.919C10.0495 19.919 10.3242 20.2033 10.3242 20.5408C10.3242 20.8783 10.0495 21.1509 9.70238 21.1509ZM12.6494 21.1509C12.314 21.1509 12.0393 20.8783 12.0393 20.5408C12.0393 20.2033 12.314 19.919 12.6494 19.919C12.9869 19.919 13.2712 20.2033 13.2712 20.5408C13.2712 20.8783 12.9869 21.1509 12.6494 21.1509ZM15.5826 21.1509C15.2472 21.1509 14.9726 20.8783 14.9726 20.5408C14.9726 20.2033 15.2472 19.919 15.5826 19.919C15.9297 19.919 16.1948 20.2033 16.1948 20.5408C16.1948 20.8783 15.9297 21.1509 15.5826 21.1509ZM18.5254 21.1509C18.1804 21.1509 17.9036 20.8783 17.9036 20.5408C17.9036 20.2033 18.1804 19.919 18.5254 19.919C18.8512 19.919 19.1259 20.2033 19.1259 20.5408C19.1259 20.8783 18.8512 21.1509 18.5254 21.1509Z" fill="white"/>
</svg>
