<svg width="28" height="28" viewBox="0 0 28 28" fill="none" xmlns="http://www.w3.org/2000/svg">
<path d="M14.105 26.21C20.7369 26.21 26.2121 20.7273 26.2121 14.105C26.2121 7.47312 20.7273 2 14.0954 2C7.47523 2 2 7.47312 2 14.105C2 20.7273 7.48484 26.21 14.105 26.21Z" fill="black"/>
<path d="M8.23062 9.53866C8.30304 9.14468 8.65859 9.10648 8.91194 9.35773C9.7046 10.1537 10.6616 10.2465 11.5194 10.2465C12.3195 10.2465 13.3198 10.0196 14.2041 10.0196C16.8331 10.0196 18.6627 11.3328 18.6627 13.9655C18.6627 14.2095 18.653 14.4589 18.6275 14.6209C18.5743 14.8241 18.3338 14.9337 18.1294 14.7315C15.8129 12.6303 13.5146 13.974 11.5377 12.2916C11.3478 12.1487 11.1793 12.2799 11.2433 12.443C12.1512 14.8648 15.7735 13.5451 18.1716 15.7524C18.7395 16.2659 19.824 17.5838 19.824 18.3338C19.824 18.8227 19.4757 19.1869 19.0646 19.1869C18.8719 19.1869 18.6685 19.0805 18.5961 18.8206C18.2265 17.6722 17.9333 16.8997 17.2006 16.1319L17.9954 16.1509C17.7111 16.6229 16.6051 18.0587 14.1786 18.0587C10.4764 18.0587 8.05273 15.3568 8.05273 11.2977C8.05273 10.8076 8.12515 10.0831 8.23062 9.53866Z" fill="white"/>
</svg>
