<svg width="28" height="28" viewBox="0 0 28 28" fill="none" xmlns="http://www.w3.org/2000/svg">
<path d="M14.3257 26.1397C19.3273 26.1376 22.6514 22.8816 22.6514 18.0015C22.6514 15.6556 21.7352 13.2561 20.9257 11.4845C19.6802 8.72563 17.7832 5.71297 16.0891 3.09195C15.6368 2.40758 15.0951 2 14.3257 2C13.5584 2 13.0146 2.40758 12.5644 3.09195C10.8556 5.73406 8.94586 8.7657 7.70039 11.5414C6.91523 13.2898 6 15.6704 6 18.0015C6 22.8816 9.32625 26.1376 14.3257 26.1397ZM14.3257 23.8086C10.7194 23.8065 8.33108 21.4885 8.33108 18.0015C8.33108 16.1366 9.06092 14.2585 9.77201 12.657C11.017 9.78381 12.6544 7.36646 14.2127 5.03091C14.2884 4.92427 14.3759 4.91162 14.4504 5.03091C15.9928 7.35592 17.6334 9.76483 18.8592 12.62C19.5862 14.2395 20.332 16.1302 20.332 18.0015C20.332 21.4885 17.932 23.8065 14.3257 23.8086Z" fill="black"/>
</svg>
