<svg width="28" height="28" viewBox="0 0 28 28" fill="none" xmlns="http://www.w3.org/2000/svg">
<path d="M14.105 26.21C20.7369 26.21 26.2121 20.7273 26.2121 14.105C26.2121 7.47312 20.7273 2 14.0954 2C7.47523 2 2 7.47312 2 14.105C2 20.7273 7.48484 26.21 14.105 26.21ZM14.105 23.8255C8.71085 23.8255 4.39412 19.4991 4.39412 14.105C4.39412 8.71085 8.70124 4.38452 14.0954 4.38452C19.4895 4.38452 23.8276 8.71085 23.8276 14.105C23.8276 19.4991 19.4991 23.8255 14.105 23.8255Z" fill="black"/>
<path d="M13.9556 20.7256C16.5122 20.7256 18.7244 19.1633 19.5211 17.1636C19.7414 16.6887 19.4435 16.2737 18.9229 16.4757C18.4891 16.6419 17.7356 16.7954 17.0013 16.7954C13.8136 16.7954 11.7672 14.7969 11.7672 11.608C11.7672 10.9091 11.9463 9.99244 12.138 9.4883C12.3656 8.99236 12.0018 8.66119 11.4756 8.87635C9.23594 9.7426 7.74414 12.1339 7.74414 14.6487C7.74414 18.1822 10.4242 20.7256 13.9556 20.7256ZM17.3845 13.3819C17.5315 13.3819 17.6315 13.2627 17.6571 13.1157C17.9043 11.1184 18.0047 11.0319 20.0447 10.7239C20.2172 10.6984 20.3247 10.61 20.3247 10.4417C20.3247 10.2948 20.2172 10.1872 20.0702 10.1692C18.0122 9.77377 17.9407 9.74705 17.6571 7.77197C17.6315 7.62291 17.5315 7.51111 17.3845 7.51111C17.2376 7.51111 17.1354 7.62291 17.1119 7.76986C16.8262 9.78104 16.7761 9.88135 14.7009 10.1692C14.5422 10.1851 14.4443 10.2948 14.4443 10.4417C14.4443 10.6004 14.5422 10.6984 14.6988 10.7239C16.7761 11.1214 16.8529 11.1481 17.1119 13.1157C17.1354 13.2627 17.2376 13.3819 17.3845 13.3819Z" fill="black"/>
</svg>
