<svg width="28" height="28" viewBox="0 0 28 28" fill="none" xmlns="http://www.w3.org/2000/svg">
<path d="M14.105 26.21C20.7369 26.21 26.2121 20.7273 26.2121 14.105C26.2121 7.47312 20.7273 2 14.0954 2C7.47523 2 2 7.47312 2 14.105C2 20.7273 7.48484 26.21 14.105 26.21ZM14.105 23.8255C8.71085 23.8255 4.39412 19.4991 4.39412 14.105C4.39412 8.71085 8.70124 4.38452 14.0954 4.38452C19.4895 4.38452 23.8276 8.71085 23.8276 14.105C23.8276 19.4991 19.4991 23.8255 14.105 23.8255Z" fill="black"/>
<path d="M10.4374 15.6584H17.2383C19.0294 15.6584 20.4049 14.2775 20.4049 12.5675C20.4049 10.7914 18.9759 9.48312 17.1091 9.48312C16.4091 8.12773 15.1463 7.276 13.5544 7.276C11.4871 7.276 9.78113 8.86835 9.56504 10.9259C8.55723 11.2337 7.81543 12.102 7.81543 13.2582C7.81543 14.593 8.79113 15.6584 10.4374 15.6584ZM10.7615 18.9266L11.5577 17.5484C11.7121 17.2939 11.628 16.9519 11.3564 16.8071C11.0997 16.6527 10.7674 16.7443 10.6225 17.0084L9.82637 18.377C9.67191 18.6411 9.75605 18.983 10.0298 19.1279C10.2843 19.2823 10.6167 19.1907 10.7615 18.9266ZM12.7102 20.6019L13.5042 19.2334C13.6587 18.9692 13.5745 18.6369 13.3029 18.4824C13.0484 18.3376 12.7139 18.4292 12.5691 18.6837L11.7653 20.0619C11.6184 20.3239 11.7025 20.6584 11.9784 20.8128C12.2309 20.9577 12.5557 20.866 12.7102 20.6019ZM15.6616 18.917L16.4557 17.5388C16.6102 17.2843 16.526 16.9423 16.2544 16.7975C15.9998 16.643 15.6654 16.7347 15.5206 16.9988L14.7244 18.3673C14.5699 18.6294 14.6541 18.9734 14.9299 19.1183C15.1823 19.2727 15.5168 19.179 15.6616 18.917ZM17.5828 20.6019L18.3886 19.2334C18.5334 18.9692 18.4493 18.6369 18.1777 18.4824C17.921 18.3376 17.5887 18.4292 17.4438 18.6837L16.6477 20.0619C16.4932 20.3239 16.5773 20.6584 16.8511 20.8128C17.1056 20.9577 17.438 20.866 17.5828 20.6019Z" fill="black"/>
</svg>
