<svg width="28" height="28" viewBox="0 0 28 28" fill="none" xmlns="http://www.w3.org/2000/svg">
<path d="M14.105 26.2301C20.7369 26.2301 26.2121 20.7549 26.2121 14.123C26.2121 7.50291 20.7273 2.01807 14.0954 2.01807C7.47523 2.01807 2 7.50291 2 14.123C2 20.7549 7.48484 26.2301 14.105 26.2301Z" fill="black"/>
<path d="M8.34309 19.152C6.85879 19.152 5.84863 18.1887 5.84863 16.8591C5.84863 15.8054 6.52316 14.9509 7.47355 14.6408C7.68027 12.7463 9.28598 11.2684 11.2102 11.2684C12.7184 11.2684 13.8832 12.0821 14.5313 13.2941C16.2872 13.325 17.5765 14.5662 17.5765 16.2123C17.5765 17.8766 16.3073 19.152 14.6227 19.152H8.34309ZM13.3669 10.7274L12.5257 9.87242C12.318 9.63172 12.3054 9.24406 12.5236 9.02258C12.7484 8.80531 13.1243 8.8032 13.3734 9.02258L14.2359 9.8818C14.4394 10.1012 14.4361 10.4909 14.2359 10.7199C13.9952 10.9351 13.5938 10.9585 13.3669 10.7274ZM16.7806 9.65117C16.4536 9.65117 16.1777 9.37742 16.1777 9.05797V7.85539C16.1777 7.51461 16.4536 7.25586 16.7806 7.25586C17.1192 7.25586 17.3813 7.51461 17.3813 7.85539V9.05797C17.3813 9.37742 17.1192 9.65117 16.7806 9.65117ZM19.3528 10.7199C19.1271 10.4909 19.1196 10.1012 19.3528 9.87969L20.194 9.02469C20.4347 8.79359 20.8245 8.8032 21.0513 9.02469C21.2749 9.25367 21.2728 9.63383 21.0492 9.87453L20.2059 10.7295C19.9887 10.9585 19.5797 10.9351 19.3528 10.7199ZM21.0202 13.8769C20.6836 13.8769 20.4152 13.6107 20.4152 13.2837C20.4152 12.9472 20.6836 12.6884 21.0202 12.6884H22.196C22.5347 12.6884 22.7967 12.9472 22.7967 13.2837C22.7967 13.6107 22.5347 13.8769 22.196 13.8769H21.0202ZM20.194 17.5566L19.3507 16.7112C19.1175 16.4684 19.125 16.0904 19.3486 15.8656C19.5872 15.6345 19.977 15.6366 20.2102 15.8677L21.0492 16.6972C21.2824 16.9187 21.2728 17.3117 21.0513 17.5449C20.8224 17.776 20.4347 17.7952 20.194 17.5566ZM19.7119 13.2837C19.7119 14.2609 19.2302 15.1421 18.4437 15.6856C18.2309 13.9679 16.8584 12.6699 15.0628 12.4355C14.8699 12.1297 14.6452 11.8665 14.3798 11.6321C14.8903 10.8638 15.78 10.3662 16.7827 10.3662C18.4055 10.3662 19.7119 11.6459 19.7119 13.2837Z" fill="white"/>
</svg>
