<svg width="30" height="33" viewBox="0 0 30 33" fill="none" xmlns="http://www.w3.org/2000/svg">
<path d="M13.4674 0C10.2476 0 8.72274 4.87711 8.72274 7.05351C8.72274 9.86836 10.6111 9.94734 10.6111 10.5804C10.6111 10.7381 10.5216 10.8373 10.2382 11.0152L6.4725 13.3624L5.5657 12.2137C5.24812 11.7928 5.38031 11.0967 6.13594 11.0967C6.89109 11.0967 7.38843 10.5855 7.38843 9.91452C7.38843 9.24351 6.84422 8.7089 6.18281 8.7089C5.5118 8.7089 4.96758 9.24351 4.96758 9.91452C4.96758 9.98484 4.96758 10.0594 4.9793 10.1201C5.13281 10.991 3.83953 10.6999 4.32351 10.0528C4.47797 9.84726 4.56422 9.59484 4.56422 9.32859C4.56422 8.65757 4.02 8.12296 3.34898 8.12296C2.68547 8.12296 2.14125 8.65757 2.14125 9.32859C2.14125 9.85687 2.4682 10.2584 2.92406 10.4714C3.59461 10.7805 2.83336 11.5685 2.47195 11.044C2.24718 10.7191 1.86914 10.5019 1.45055 10.5019C0.78703 10.5019 0.242812 11.0365 0.242812 11.7075C0.242812 12.3785 0.78703 12.9248 1.45055 12.9248C1.68914 12.9248 1.90851 12.8503 2.10023 12.7331C2.61703 12.4092 3.02953 12.4348 3.45047 12.9708L5.25305 15.2773C5.70891 15.8737 6.47578 16.1283 7.1489 15.7683L8.91609 14.8139L8.50242 14.7459C8.13914 15.8388 7.88766 17.2385 8.28985 18.9738L8.53476 18.6302L6.90609 17.7366C6.23297 17.3669 5.4757 17.6311 5.01023 18.2255L3.21727 20.5341C2.78672 21.0605 2.38172 21.0956 1.85531 20.7717C1.6657 20.6545 1.44633 20.58 1.21523 20.58C0.544218 20.58 0 21.1242 0 21.7973C0 22.4587 0.544218 23.003 1.21523 23.003C1.62633 23.003 2.01187 22.7836 2.22914 22.4512C2.59055 21.9363 3.3593 22.7147 2.68125 23.0334C2.22539 23.2369 1.89844 23.648 1.89844 24.1645C1.89844 24.8376 2.44266 25.3819 3.11367 25.3819C3.77719 25.3819 4.3214 24.8376 4.3214 24.1645C4.3214 23.9004 4.23515 23.6576 4.09031 23.4424C3.59671 22.8049 4.89 22.5138 4.74609 23.3826C4.72266 23.4359 4.72266 23.5083 4.72266 23.5903C4.72266 24.2517 5.26687 24.7959 5.94 24.7959C6.61101 24.7959 7.14562 24.2517 7.14562 23.5903C7.14562 22.9172 6.64828 22.4081 5.89312 22.4081C5.14711 22.4081 5.0032 21.7078 5.32289 21.289L6.2393 20.1445L10.5427 23.5847C11.0454 28.3406 15.0199 32.0826 20.861 32.0826C25.2734 32.0826 27.9856 29.3632 28.8286 27.8543C29.7576 26.1879 28.0554 24.7737 26.7668 25.8621C25.1829 27.3661 23.2111 27.612 21.7821 27.612C19.4984 27.612 17.1509 25.8816 16.7463 23.2425L20.6784 20.1445L21.5831 21.289C21.9145 21.7078 21.7706 22.4081 21.0246 22.4081C20.2598 22.4081 19.77 22.9172 19.77 23.5903C19.77 24.2517 20.3046 24.7959 20.9777 24.7959C21.6487 24.7959 22.193 24.2517 22.193 23.5903C22.193 23.5083 22.193 23.4359 22.1716 23.3826C22.0277 22.5138 23.3189 22.8049 22.8253 23.4424C22.6805 23.6576 22.5963 23.9004 22.5963 24.1645C22.5963 24.8376 23.1405 25.3819 23.8019 25.3819C24.473 25.3819 25.0172 24.8376 25.0172 24.1645C25.0172 23.648 24.6923 23.2369 24.2365 23.0334C23.5563 22.7147 24.3155 21.9363 24.6886 22.4512C24.9037 22.7836 25.2914 23.003 25.7004 23.003C26.3714 23.003 26.9156 22.4587 26.9156 21.7973C26.9156 21.1242 26.3714 20.58 25.7004 20.58C25.4693 20.58 25.252 20.6545 25.0507 20.7717C24.5339 21.0956 24.1214 21.0605 23.7005 20.5341L21.9054 18.2255C21.4399 17.6311 20.6827 17.3669 20.0116 17.7366L18.3905 18.6206L18.6354 18.9834C19.0493 17.2481 18.7861 15.8292 18.4249 14.7246L18.0091 14.8139L19.7784 15.7683C20.4494 16.1283 21.2163 15.8737 21.6722 15.2773L23.4748 12.9708C23.8957 12.4348 24.3103 12.4092 24.8271 12.7331C25.0188 12.8503 25.2361 12.9248 25.4768 12.9248C26.1382 12.9248 26.6824 12.3785 26.6824 11.7075C26.6824 11.0365 26.1382 10.5019 25.4768 10.5019C25.0582 10.5019 24.6802 10.7191 24.4533 11.044C24.0919 11.5685 23.3327 10.7805 24.0012 10.4714C24.457 10.2584 24.784 9.85687 24.784 9.32859C24.784 8.65757 24.2398 8.12296 23.5784 8.12296C22.9052 8.12296 22.361 8.65757 22.361 9.32859C22.361 9.59484 22.4473 9.84726 22.6017 10.0528C23.0857 10.6999 21.7924 10.991 21.948 10.1201C21.9598 10.0594 21.9598 9.98484 21.9598 9.91452C21.9598 9.24351 21.4155 8.7089 20.7424 8.7089C20.081 8.7089 19.5368 9.24351 19.5368 9.91452C19.5368 10.5855 20.0341 11.0967 20.7893 11.0967C21.5449 11.0967 21.6771 11.7928 21.3595 12.2137L20.4548 13.3624L16.6987 11.0152C16.4205 10.8361 16.3162 10.7381 16.3162 10.5804C16.3162 10.0022 18.2025 9.82804 18.2025 7.05351C18.2025 4.87711 16.6798 0 13.4674 0Z" fill="black"/>
</svg>
