<svg width="28" height="28" viewBox="0 0 28 28" fill="none" xmlns="http://www.w3.org/2000/svg">
<path d="M14.105 26.21C20.7369 26.21 26.2121 20.7273 26.2121 14.105C26.2121 7.47312 20.7273 2 14.0954 2C7.47523 2 2 7.47312 2 14.105C2 20.7273 7.48484 26.21 14.105 26.21ZM14.105 23.8255C8.71085 23.8255 4.39412 19.4991 4.39412 14.105C4.39412 8.71085 8.70124 4.38452 14.0954 4.38452C19.4895 4.38452 23.8276 8.71085 23.8276 14.105C23.8276 19.4991 19.4991 23.8255 14.105 23.8255Z" fill="black"/>
<path d="M8.67378 17.289H14.4441C15.9945 17.289 17.1699 16.1051 17.1699 14.5794C17.1699 13.0794 15.9743 11.9318 14.3665 11.903C13.7632 10.7881 12.69 10.035 11.3107 10.035C9.54426 10.035 8.06745 11.3883 7.87245 13.1326C6.99988 13.4309 6.39355 14.198 6.39355 15.1794C6.39355 16.4035 7.30456 17.289 8.67378 17.289ZM13.2938 9.53137C13.511 9.75824 13.8752 9.73691 14.0829 9.53347C14.2809 9.32582 14.2938 8.96371 14.0829 8.75605L13.2961 7.97254C13.0725 7.76699 12.7317 7.7691 12.5166 7.97254C12.3047 8.17058 12.3131 8.53269 12.5208 8.74996L13.2938 9.53137ZM16.4229 8.54676C16.7381 8.54676 16.9788 8.30394 16.9788 7.99832V6.90449C16.9788 6.59675 16.7381 6.35394 16.4229 6.35394C16.1311 6.35394 15.8787 6.59675 15.8787 6.90449V7.99832C15.8787 8.30394 16.1311 8.54676 16.4229 8.54676ZM18.7906 9.52387C18.994 9.73691 19.3699 9.75824 19.583 9.53347L20.3506 8.75418C20.5603 8.5348 20.5528 8.17058 20.3527 7.97465C20.1396 7.76699 19.7946 7.75738 19.5774 7.97465L18.7906 8.75394C18.5733 8.96371 18.5904 9.32582 18.7906 9.52387ZM20.3194 12.4294H21.4078C21.7209 12.4294 21.9617 12.1845 21.9617 11.8831C21.9617 11.5721 21.7209 11.3368 21.4078 11.3368H20.3194C20.0276 11.3368 19.7731 11.5721 19.7731 11.8831C19.7731 12.1845 20.0276 12.4294 20.3194 12.4294ZM19.5774 15.8129C19.7946 16.0302 20.1375 16.0109 20.3527 15.8012C20.5507 15.5839 20.5603 15.2239 20.3506 15.0259L19.5872 14.2604C19.3678 14.0527 19.0015 14.0506 18.7863 14.2583C18.5862 14.4617 18.5691 14.8259 18.7884 15.0432L19.5774 15.8129ZM19.1262 11.8831C19.1262 10.3892 17.9327 9.20324 16.425 9.20324C15.5119 9.20324 14.6925 9.66566 14.2268 10.3657C14.4687 10.598 14.67 10.8399 14.8533 11.1223C16.5028 11.3332 17.7624 12.5204 17.9592 14.1113C18.6797 13.5912 19.1262 12.7878 19.1262 11.8831ZM10.1157 19.8252C10.0571 19.9616 10.1136 20.0745 10.2734 20.0745H11.2791L10.5319 21.8717C10.4754 22.0135 10.6407 22.1115 10.7621 21.9868L13.4004 19.4091C13.5272 19.2866 13.4707 19.1108 13.297 19.1108H12.1071L12.6232 18.1456C12.6914 18.023 12.6328 17.9059 12.4964 17.9059H11.1697C11.0002 17.9059 10.9341 17.9644 10.8776 18.0891L10.1157 19.8252Z" fill="black"/>
</svg>
