<svg width="28" height="29" viewBox="0 0 28 29" fill="none" xmlns="http://www.w3.org/2000/svg">
<path d="M19.8834 13.4979C19.8834 10.0198 17.0048 7.13156 13.5234 7.13156C10.042 7.13156 7.16133 10.0198 7.16133 13.4979C7.16133 14.2784 7.32774 15.03 7.59657 15.7006H19.4407C19.7191 15.03 19.8834 14.2784 19.8834 13.4979ZM1.12101 14.208H3.83719C4.48453 14.208 4.97742 13.7461 4.96781 13.1702C4.9582 12.6061 4.48453 12.1345 3.83719 12.1345H1.12101C0.477889 12.1345 0 12.5965 0 13.1702C0 13.7461 0.479998 14.208 1.12101 14.208ZM7.47023 7.47023C7.86726 7.06149 7.86516 6.39305 7.40836 5.93625L5.48531 4.01742C5.0264 3.55641 4.36969 3.56391 3.96094 3.96305C3.5543 4.36008 3.5543 5.02851 4.0132 5.48953L5.93625 7.40625C6.39305 7.86305 7.0711 7.87898 7.47023 7.47023ZM13.5234 4.96992C14.0972 4.96031 14.5612 4.47281 14.5612 3.8393V1.12101C14.5612 0.47578 14.0972 0 13.5234 0C12.9476 0 12.4856 0.47578 12.4856 1.12101V3.8393C12.4856 4.47281 12.9476 4.97953 13.5234 4.96992ZM19.5766 7.47023C19.9758 7.86937 20.6538 7.86305 21.1106 7.40625L23.0337 5.48953C23.4926 5.02851 23.483 4.36969 23.0742 3.96305C22.6868 3.5543 22.0205 3.55641 21.552 4.01742L19.6289 5.93625C19.1817 6.39305 19.1679 7.0732 19.5766 7.47023ZM23.2097 14.208H25.9259C26.5711 14.2177 27.0469 13.7461 27.0469 13.1702C27.0469 12.6061 26.5711 12.1345 25.9259 12.1345H23.2097C22.5645 12.1345 22.0673 12.5965 22.0791 13.1702C22.0887 13.7461 22.5666 14.208 23.2097 14.208Z" fill="black"/>
<path d="M1.66555 18.7402H25.3419C25.7975 18.7402 26.1435 18.4027 26.1435 17.9534C26.1435 17.5041 25.7975 17.1666 25.3419 17.1666H1.66555C1.21953 17.1666 0.863984 17.5041 0.863984 17.9534C0.863984 18.4027 1.21953 18.7402 1.66555 18.7402ZM2.65274 22.5337C2.99024 22.5337 3.27242 22.2516 3.27242 21.9023C3.27242 21.5573 2.99024 21.2752 2.65274 21.2752C2.29602 21.2752 2.02344 21.5573 2.02344 21.9023C2.02344 22.2516 2.29602 22.5337 2.65274 22.5337ZM7.60016 22.5337C7.94516 22.5337 8.22734 22.2516 8.22734 21.9023C8.22734 21.5573 7.94516 21.2752 7.60016 21.2752C7.25094 21.2752 6.96875 21.5573 6.96875 21.9023C6.96875 22.2516 7.25094 22.5337 7.60016 22.5337ZM12.5551 22.5337C12.8926 22.5337 13.1748 22.2516 13.1748 21.9023C13.1748 21.5573 12.8926 21.2752 12.5551 21.2752C12.1984 21.2752 11.9258 21.5573 11.9258 21.9023C11.9258 22.2516 12.1984 22.5337 12.5551 22.5337ZM17.5025 22.5337C17.8475 22.5337 18.1297 22.2516 18.1297 21.9023C18.1297 21.5573 17.8475 21.2752 17.5025 21.2752C17.1533 21.2752 16.8711 21.5573 16.8711 21.9023C16.8711 22.2516 17.1533 22.5337 17.5025 22.5337ZM22.4574 22.5337C22.7949 22.5337 23.0771 22.2516 23.0771 21.9023C23.0771 21.5573 22.7949 21.2752 22.4574 21.2752C22.1007 21.2752 21.8281 21.5573 21.8281 21.9023C21.8281 22.2516 22.1007 22.5337 22.4574 22.5337ZM1.15485 25.3793C1.49984 25.3793 1.78203 25.0971 1.78203 24.7404C1.78203 24.4029 1.49984 24.1207 1.15485 24.1207C0.805625 24.1207 0.523438 24.4029 0.523438 24.7404C0.523438 25.0971 0.805625 25.3793 1.15485 25.3793ZM6.10977 25.3793C6.44516 25.3793 6.72734 25.0971 6.72734 24.7404C6.72734 24.4029 6.44516 24.1207 6.10977 24.1207C5.75094 24.1207 5.47086 24.4029 5.47086 24.7404C5.47086 25.0971 5.75094 25.3793 6.10977 25.3793ZM11.0572 25.3793C11.4022 25.3793 11.6844 25.0971 11.6844 24.7404C11.6844 24.4029 11.4022 24.1207 11.0572 24.1207C10.708 24.1207 10.4258 24.4029 10.4258 24.7404C10.4258 25.0971 10.708 25.3793 11.0572 25.3793ZM16.0121 25.3793C16.3475 25.3793 16.6297 25.0971 16.6297 24.7404C16.6297 24.4029 16.3475 24.1207 16.0121 24.1207C15.6533 24.1207 15.3732 24.4029 15.3732 24.7404C15.3732 25.0971 15.6533 25.3793 16.0121 25.3793ZM20.9596 25.3793C21.3046 25.3793 21.5867 25.0971 21.5867 24.7404C21.5867 24.4029 21.3046 24.1207 20.9596 24.1207C20.6103 24.1207 20.3281 24.4029 20.3281 24.7404C20.3281 25.0971 20.6103 25.3793 20.9596 25.3793ZM25.9145 25.3793C26.2499 25.3793 26.5321 25.0971 26.5321 24.7404C26.5321 24.4029 26.2499 24.1207 25.9145 24.1207C25.5556 24.1207 25.2735 24.4029 25.2735 24.7404C25.2735 25.0971 25.5556 25.3793 25.9145 25.3793ZM4.60977 28.2035C4.95688 28.2035 5.22945 27.9213 5.22945 27.5646C5.22945 27.2271 4.95688 26.947 4.60977 26.947C4.25305 26.947 3.98047 27.2271 3.98047 27.5646C3.98047 27.9213 4.25305 28.2035 4.60977 28.2035ZM9.5668 28.2035C9.90219 28.2035 10.1844 27.9213 10.1844 27.5646C10.1844 27.2271 9.90219 26.947 9.5668 26.947C9.20797 26.947 8.92578 27.2271 8.92578 27.5646C8.92578 27.9213 9.20797 28.2035 9.5668 28.2035ZM14.5121 28.2035C14.8592 28.2035 15.1318 27.9213 15.1318 27.5646C15.1318 27.2271 14.8592 26.947 14.5121 26.947C14.1554 26.947 13.8828 27.2271 13.8828 27.5646C13.8828 27.9213 14.1554 28.2035 14.5121 28.2035ZM19.4692 28.2035C19.8046 28.2035 20.0867 27.9213 20.0867 27.5646C20.0867 27.2271 19.8046 26.947 19.4692 26.947C19.1103 26.947 18.8281 27.2271 18.8281 27.5646C18.8281 27.9213 19.1103 28.2035 19.4692 28.2035ZM24.4145 28.2035C24.7616 28.2035 25.0342 27.9213 25.0342 27.5646C25.0342 27.2271 24.7616 26.947 24.4145 26.947C24.0578 26.947 23.7852 27.2271 23.7852 27.5646C23.7852 27.9213 24.0578 28.2035 24.4145 28.2035Z" fill="black"/>
</svg>
