<svg width="28" height="28" viewBox="0 0 28 28" fill="none" xmlns="http://www.w3.org/2000/svg">
<path d="M14.105 26.21C20.7369 26.21 26.2121 20.7273 26.2121 14.105C26.2121 7.47312 20.7273 2 14.0954 2C7.47523 2 2 7.47312 2 14.105C2 20.7273 7.48484 26.21 14.105 26.21ZM14.105 23.8255C8.71085 23.8255 4.39412 19.4991 4.39412 14.105C4.39412 8.71085 8.70124 4.38452 14.0954 4.38452C19.4895 4.38452 23.8276 8.71085 23.8276 14.105C23.8276 19.4991 19.4991 23.8255 14.105 23.8255Z" fill="black"/>
<path d="M10.5165 15.2674H17.3174C19.1085 15.2674 20.484 13.8843 20.484 12.1743C20.484 10.3886 19.0529 9.0899 17.1882 9.0899C16.486 7.73661 15.2253 6.88489 13.6335 6.88489C11.5663 6.88489 9.85813 8.47513 9.64414 10.5231C8.63633 10.8425 7.89453 11.6992 7.89453 12.865C7.89453 14.2019 8.87023 15.2674 10.5165 15.2674ZM12.1126 20.1414L13.8339 17.152C13.9958 16.8803 13.9063 16.5555 13.6325 16.401C13.3684 16.2562 13.051 16.3403 12.8987 16.612L11.1678 19.5918C11.0155 19.8517 11.0954 20.1883 11.3713 20.3428C11.6333 20.4876 11.9602 20.4013 12.1126 20.1414ZM17.2979 20.1414L19.0309 17.152C19.1928 16.8803 19.1012 16.5555 18.8296 16.401C18.5633 16.2562 18.246 16.3403 18.0861 16.612L16.3628 19.5918C16.2104 19.8517 16.2903 20.1883 16.5662 20.3428C16.8282 20.4876 17.1552 20.4013 17.2979 20.1414ZM14.7053 20.1372L16.4265 17.1456C16.5885 16.8761 16.4989 16.5492 16.2252 16.3947C15.961 16.2499 15.6437 16.3361 15.4817 16.6056L13.7605 19.5876C13.6082 19.8475 13.6881 20.1841 13.9639 20.3385C14.226 20.4834 14.5529 20.3971 14.7053 20.1372ZM9.51031 20.1372L11.2316 17.1456C11.3935 16.8761 11.304 16.5492 11.0302 16.3947C10.7757 16.2499 10.4488 16.3361 10.2964 16.6056L8.56344 19.5876C8.4132 19.8475 8.49313 20.1841 8.76898 20.3385C9.03102 20.4834 9.35797 20.3971 9.51031 20.1372Z" fill="black"/>
</svg>
