<svg width="28" height="28" viewBox="0 0 28 28" fill="none" xmlns="http://www.w3.org/2000/svg">
<path d="M14.105 26.2301C20.7369 26.2301 26.2121 20.7549 26.2121 14.123C26.2121 7.50291 20.7273 2.01807 14.0954 2.01807C7.47523 2.01807 2 7.50291 2 14.123C2 20.7549 7.48484 26.2301 14.105 26.2301Z" fill="black"/>
<path d="M7.93105 16.5816C7.53168 16.5816 7.21973 16.2814 7.21973 15.9247C7.21973 15.5595 7.53168 15.2518 7.93105 15.2518H9.29676C9.69824 15.2518 10.0081 15.5499 10.0081 15.9247C10.0081 16.2931 9.69824 16.5816 9.29676 16.5816H7.93105ZM10.2474 13.2059L9.27402 12.2368C8.98223 11.9375 8.98434 11.5287 9.23348 11.2604C9.49434 11.0112 9.91387 10.992 10.2078 11.2838L11.179 12.2551C11.4516 12.5373 11.4804 12.9643 11.2217 13.2273C10.9608 13.4956 10.5317 13.4743 10.2474 13.2059ZM14.1155 6.5874C14.484 6.5874 14.7842 6.91107 14.7842 7.29123V9.37319L14.7491 9.78264L14.8634 9.67881L15.5342 8.96983C15.6406 8.84748 15.8227 8.75608 16.0067 8.75608C16.3421 8.75608 16.5901 9.01366 16.5901 9.33944C16.5901 9.5267 16.5296 9.67248 16.3688 9.83115L14.5754 11.5083C14.4221 11.6478 14.273 11.7106 14.1155 11.7106C13.958 11.7106 13.809 11.6478 13.6557 11.5083L11.8622 9.83115C11.7111 9.67248 11.641 9.5267 11.641 9.33944C11.641 9.01366 11.8889 8.75608 12.2244 8.75608C12.4084 8.75608 12.5809 8.84748 12.7065 8.97944L13.4466 9.71936L13.482 9.75381L13.4469 9.37319V7.29123C13.4469 6.91107 13.7471 6.5874 14.1155 6.5874ZM17.0307 13.2273C16.7602 12.9643 16.7698 12.5469 17.0616 12.2551L18.0233 11.2838C18.3172 11.0016 18.7367 10.992 18.9976 11.2604C19.2467 11.5287 19.2392 11.9375 18.957 12.2368L17.9933 13.2059C17.7015 13.4839 17.2894 13.486 17.0307 13.2273ZM18.9439 16.5816C18.5445 16.5816 18.223 16.2931 18.223 15.9247C18.223 15.5499 18.5445 15.2518 18.9439 15.2518H20.3C20.7132 15.2518 21.0113 15.5499 21.0113 15.9247C21.0113 16.2814 20.7132 16.5816 20.3 16.5816H18.9439ZM17.443 16.119C17.443 16.4506 17.3832 16.7928 17.2691 17.0989H10.962C10.8478 16.7928 10.7881 16.4506 10.7881 16.119C10.7881 14.3056 12.3022 12.8012 14.1155 12.8012C15.9385 12.8012 17.443 14.3056 17.443 16.119ZM7.95097 19.2692C7.57105 19.2692 7.21973 18.9575 7.21973 18.5743C7.21973 18.189 7.55722 17.8773 7.95097 17.8773H20.2801C20.6834 17.8773 21.0113 18.1869 21.0113 18.5743C21.0113 18.9596 20.6738 19.2692 20.2801 19.2692H7.95097Z" fill="white"/>
</svg>
