<svg width="28" height="28" viewBox="0 0 28 28" fill="none" xmlns="http://www.w3.org/2000/svg">
<path d="M14.105 26.21C20.7369 26.21 26.2121 20.7273 26.2121 14.105C26.2121 7.47312 20.7273 2 14.0954 2C7.47523 2 2 7.47312 2 14.105C2 20.7273 7.48484 26.21 14.105 26.21ZM14.105 23.8255C8.71085 23.8255 4.39412 19.4991 4.39412 14.105C4.39412 8.71085 8.70124 4.38452 14.0954 4.38452C19.4895 4.38452 23.8276 8.71085 23.8276 14.105C23.8276 19.4991 19.4991 23.8255 14.105 23.8255Z" fill="black"/>
<path d="M8.85464 17.273L9.34378 20.4563C9.40449 20.8152 9.57488 21.0249 9.91238 21.0249C10.2457 21.0249 10.4969 20.78 10.4362 20.3701L9.99605 17.4657C9.94167 17.113 10.0504 16.9543 10.4449 16.8371C10.5825 16.7923 10.7179 16.7614 10.8651 16.7187C10.7957 16.9203 10.7669 17.139 10.7669 17.4036C10.7669 19.4483 12.3119 21.3779 14.1051 21.3779C15.8983 21.3779 17.4454 19.4483 17.4454 17.4036C17.4454 17.139 17.4166 16.9203 17.3451 16.7187C17.4827 16.7614 17.6203 16.7923 17.7653 16.8371C18.1598 16.9543 18.261 17.113 18.2142 17.4657L17.7665 20.3701C17.7037 20.78 17.9549 21.0249 18.2978 21.0249C18.6353 21.0249 18.8078 20.8152 18.8589 20.4563L19.3556 17.273C19.4866 16.4998 19.1638 16.0728 18.314 15.8598L15.599 15.2246C15.7877 15.1468 16.0169 14.9026 16.116 14.5751L17.942 14.3363C18.7642 14.2276 19.1519 13.7506 19.1519 12.9242V10.8013C19.1519 10.4638 18.9517 10.2561 18.595 10.2561C18.2596 10.2561 18.0616 10.4638 18.0616 10.8013V12.7081C18.0616 13.1586 17.8167 13.2938 17.4077 13.3482L16.1221 13.5263C16.0656 13.3259 15.9388 13.1363 15.8078 13.0351C16.8424 12.8305 17.3634 12.1923 17.3634 11.2269C17.3634 10.4722 17.1074 9.77187 16.6553 9.22086L16.7116 9.17304C17.3474 8.7214 17.4763 8.04172 17.0502 7.31L16.7017 6.71328C16.5707 6.47797 16.4217 6.37039 16.1927 6.37039C15.9126 6.37039 15.6932 6.57805 15.6932 6.85601C15.6932 6.97742 15.7145 7.06156 15.7891 7.18297L16.0961 7.65406C16.2677 7.95453 16.319 8.21867 16.091 8.39773L15.9407 8.51609C15.3963 8.16242 14.7154 7.94937 14.1051 7.94937C13.4852 7.94937 12.8043 8.16242 12.2599 8.51609L12.1096 8.39773C11.8933 8.21867 11.9446 7.95453 12.1162 7.65406L12.4115 7.18297C12.4956 7.06156 12.5074 6.97742 12.5074 6.85601C12.5074 6.57805 12.2997 6.37039 12.01 6.37039C11.7885 6.37039 11.6224 6.46836 11.4989 6.71328L11.1504 7.31C10.7435 8.05344 10.8553 8.7214 11.4986 9.17304L11.5453 9.22086C11.0932 9.77187 10.8372 10.4722 10.8372 11.2269C10.8372 12.1826 11.3678 12.8305 12.4024 13.0255C12.2735 13.1267 12.1349 13.3259 12.0902 13.5263L10.7929 13.3482C10.3935 13.3034 10.139 13.1586 10.139 12.7081V10.8013C10.139 10.4638 9.95269 10.2561 9.60558 10.2561C9.26058 10.2561 9.05832 10.4638 9.05832 10.8013V12.9242C9.05832 13.7506 9.43636 14.2276 10.2682 14.3363L12.0942 14.5751C12.1858 14.9026 12.4129 15.1372 12.6112 15.2246L9.8962 15.8598C9.04636 16.0632 8.72574 16.4998 8.85464 17.273Z" fill="black"/>
</svg>
