<svg width="28" height="28" viewBox="0 0 28 28" fill="none" xmlns="http://www.w3.org/2000/svg">
<path d="M14.105 26.2301C20.7369 26.2301 26.2121 20.7549 26.2121 14.123C26.2121 7.50291 20.7273 2.01807 14.0954 2.01807C7.47523 2.01807 2 7.50291 2 14.123C2 20.7549 7.48484 26.2301 14.105 26.2301Z" fill="black"/>
<path d="M8.94847 17.0705C7.53566 17.0705 6.58105 16.1457 6.58105 14.8759C6.58105 13.853 7.20543 13.0562 8.11738 12.744C8.31449 10.9498 9.85082 9.52953 11.6886 9.52953C13.1199 9.52953 14.2421 10.3145 14.8709 11.4688C16.5307 11.4976 17.7699 12.6908 17.7699 14.2578C17.7699 15.8431 16.5509 17.0705 14.9431 17.0705H8.94847ZM9.52691 19.6074C9.41511 19.8055 9.12753 19.8875 8.91988 19.7544C8.69089 19.6405 8.63019 19.3508 8.74738 19.1452L9.41558 18.0017C9.52738 17.7844 9.81285 17.7141 10.013 17.8334C10.2537 17.9762 10.3261 18.2349 10.193 18.4639L9.52691 19.6074ZM11.0928 20.8742C10.9735 21.084 10.6859 21.166 10.4878 21.0425C10.2471 20.919 10.1672 20.6431 10.2886 20.4141L10.9259 19.3262C11.0548 19.1185 11.3253 19.0503 11.5446 19.1621C11.7811 19.2856 11.8439 19.5711 11.7204 19.7905L11.0928 20.8742ZM13.4525 19.5978C13.3332 19.8034 13.0648 19.8854 12.8496 19.7544C12.6068 19.6405 12.5578 19.3412 12.6675 19.1356L13.3261 17.99C13.4454 17.7844 13.7234 17.7141 13.9428 17.8334C14.1696 17.9762 14.2559 18.2349 14.1207 18.4639L13.4525 19.5978ZM14.9918 20.8742C14.8704 21.0936 14.5946 21.166 14.3869 21.0425C14.1537 20.919 14.0717 20.641 14.1952 20.4141L14.8303 19.3358C14.9635 19.1206 15.2339 19.0503 15.4512 19.1621C15.6781 19.2856 15.7451 19.5753 15.6312 19.7905L14.9918 20.8742ZM21.6497 11.1294C21.6497 12.1245 20.4924 13.6292 18.6125 13.8589C18.4336 12.1648 17.1359 10.8713 15.3682 10.637C15.2426 10.4741 15.117 10.2995 14.9733 10.1504C15.1789 8.48516 16.617 7.19774 17.7115 7.14758C17.9342 7.14758 18.0748 7.25305 18.0748 7.43844C18.0748 7.75156 17.6719 8.28008 17.6719 9.03008C17.6719 10.2845 18.5288 11.0975 19.9046 11.0954C20.6654 11.0954 21.1043 10.7523 21.3823 10.7523C21.5581 10.7523 21.6497 10.9067 21.6497 11.1294Z" fill="white"/>
</svg>
