<svg width="29" height="32" viewBox="0 0 29 32" fill="none" xmlns="http://www.w3.org/2000/svg">
<path d="M19.8528 7.83652C18.0696 7.83652 16.7466 8.80707 15.7871 11.1358C12.3054 7.62606 6.85668 4.53981 1.41965 4.12543C0.228564 4.0509 0.0464553 4.9523 0.0209085 5.66152C-0.354091 11.6939 4.35989 16.9291 10.5645 17.4546C8.84419 21.4099 6.12989 24.4671 3.39591 26.924C2.92131 27.3361 3.06263 27.9225 3.35865 28.3717C4.78763 30.58 9.28621 31.9837 12.2429 30.9581C12.9411 30.7047 13.0582 30.3536 13.0582 29.8052V25.4111C16.2591 25.2346 21.3673 23.0796 20.5775 16.4714L20.4633 15.6089C22.9123 15.003 24.5548 13.45 24.5548 11.8261C24.5548 9.89105 22.4386 7.83652 19.8528 7.83652ZM21.1233 12.0485C20.7164 12.0485 20.3799 11.7236 20.3799 11.3168C20.3799 10.9216 20.7164 10.5733 21.1233 10.5733C21.5164 10.5733 21.8529 10.9216 21.8529 11.3168C21.8529 11.7236 21.5164 12.0485 21.1233 12.0485ZM22.7468 13.6478L27.195 14.2867C28.0678 14.4145 28.4745 13.1381 27.59 12.7645L23.5688 11.0564L22.7468 13.6478ZM18.3643 6.37028C16.8272 3.66653 14.8779 1.68301 12.3905 0.252389C11.4017 -0.31175 10.3969 0.10028 10.1213 1.18473C9.79622 2.36012 9.58739 3.53668 9.50864 4.70153C11.6729 5.74544 13.6634 7.0577 15.3631 8.49981C16.1991 7.37598 17.2109 6.68036 18.3643 6.37028Z" fill="black"/>
</svg>
