<svg width="28" height="28" viewBox="0 0 28 28" fill="none" xmlns="http://www.w3.org/2000/svg">
<path d="M14.105 26.2301C20.7369 26.2301 26.2121 20.7549 26.2121 14.123C26.2121 7.50288 20.7273 2.01804 14.0954 2.01804C7.47523 2.01804 2 7.50288 2 14.123C2 20.7549 7.48484 26.2301 14.105 26.2301Z" fill="black"/>
<path d="M8.65271 17.4165C8.51959 16.6093 8.84443 16.1567 9.73787 15.9416L12.5656 15.298C12.3556 15.1913 12.1243 14.9525 12.023 14.6133L10.1237 14.3628C9.25998 14.2519 8.866 13.7591 8.866 12.8987V10.6927C8.866 10.3318 9.08209 10.1199 9.44303 10.1199C9.78685 10.1199 9.99451 10.3318 9.99451 10.6927V12.6709C9.99451 13.1394 10.2533 13.2863 10.6782 13.3386L12.0169 13.5188C12.0734 13.3046 12.2119 13.1129 12.345 13.002C11.2669 12.7953 10.7204 12.1294 10.7204 11.1322C10.7204 10.3616 10.9859 9.62398 11.454 9.04742L11.3935 8.9975C10.73 8.52781 10.6161 7.83219 11.041 7.05688L11.3916 6.44422C11.5269 6.18547 11.6951 6.08539 11.9283 6.08539C12.2339 6.08539 12.4479 6.30688 12.4479 6.58906C12.4479 6.71469 12.4341 6.80633 12.35 6.92984L12.0504 7.42648C11.8672 7.73117 11.8158 8.00703 12.0343 8.1882L12.1962 8.31078C12.7587 7.94117 13.4672 7.72391 14.1169 7.72391C14.7549 7.72391 15.4634 7.94117 16.0259 8.31078L16.1878 8.1882C16.418 8.00703 16.3667 7.73117 16.1813 7.42648L15.8743 6.92984C15.7976 6.80633 15.7763 6.71469 15.7763 6.58906C15.7763 6.29727 15.9978 6.08539 16.2938 6.08539C16.5366 6.08539 16.6857 6.19508 16.8305 6.44422L17.1811 7.05688C17.6253 7.82258 17.4921 8.52781 16.8286 8.9975L16.7703 9.04742C17.2362 9.62398 17.5018 10.3616 17.5018 11.1322C17.5018 12.1294 16.9669 12.8049 15.8867 13.002C16.0198 13.1129 16.1508 13.3142 16.2073 13.5188L17.5439 13.3386C17.971 13.2767 18.2276 13.1394 18.2276 12.6709V10.6927C18.2276 10.3318 18.4374 10.1199 18.7812 10.1199C19.1518 10.1199 19.3678 10.3318 19.3678 10.6927V12.8987C19.3678 13.7591 18.9621 14.2519 18.1081 14.3628L16.2087 14.6133C16.0979 14.9525 15.8665 15.2009 15.6661 15.298L18.4939 15.9416C19.3777 16.1663 19.7121 16.6093 19.5811 17.4165L19.0589 20.7296C19.0078 21.0927 18.8332 21.3301 18.4798 21.3301C18.121 21.3301 17.8559 21.0596 17.9166 20.6412L18.3802 17.6305C18.4388 17.266 18.3258 17.0839 17.9196 16.9646C17.7704 16.9198 17.6232 16.8889 17.4856 16.8462C17.5571 17.0478 17.5859 17.2878 17.5859 17.5524C17.5859 19.6822 15.9814 21.6734 14.1169 21.6734C12.2407 21.6734 10.6458 19.6822 10.6458 17.5524C10.6458 17.2878 10.6747 17.0478 10.7462 16.8462C10.599 16.8889 10.4518 16.9198 10.3121 16.9646C9.90591 17.0839 9.78334 17.266 9.85154 17.6305L10.3055 20.6412C10.3662 21.0596 10.1012 21.3301 9.75193 21.3301C9.39849 21.3301 9.226 21.0927 9.16318 20.7296L8.65271 17.4165Z" fill="white"/>
</svg>
