<svg width="28" height="28" viewBox="0 0 28 28" fill="none" xmlns="http://www.w3.org/2000/svg">
<path d="M14.105 26.21C20.7369 26.21 26.2121 20.7273 26.2121 14.105C26.2121 7.47312 20.7273 2 14.0954 2C7.47523 2 2 7.47312 2 14.105C2 20.7273 7.48484 26.21 14.105 26.21ZM14.105 23.8255C8.71085 23.8255 4.39412 19.4991 4.39412 14.105C4.39412 8.71085 8.70124 4.38452 14.0954 4.38452C19.4895 4.38452 23.8276 8.71085 23.8276 14.105C23.8276 19.4991 19.4991 23.8255 14.105 23.8255Z" fill="black"/>
<path d="M10.1041 14.9063H18.4606C18.6612 14.6652 18.7978 14.4069 18.927 14.1177C19.043 13.8387 19.0195 13.5908 18.8684 13.4342C18.7364 13.314 18.5257 13.2905 18.2724 13.3852C17.8502 13.5685 17.3163 13.6484 16.7131 13.6484C14.2233 13.6484 12.6448 12.1189 12.6448 9.6898C12.6448 9.05558 12.746 8.37659 12.9452 7.98893C13.0805 7.71964 13.057 7.49605 12.941 7.33526C12.7995 7.17448 12.5428 7.13933 12.2405 7.26495C10.4388 8.0023 9.21677 9.8637 9.21677 12.0024C9.21677 13.1037 9.54419 14.093 10.1041 14.9063ZM8.42528 16.6538H20.5261C20.7774 16.6538 20.9679 16.4612 20.9679 16.212C20.9679 15.9512 20.7774 15.7606 20.5261 15.7606H8.42528C8.17614 15.7606 7.98349 15.9608 7.98349 16.212C7.98349 16.4612 8.17614 16.6538 8.42528 16.6538ZM7.67503 18.3141H19.7663C20.0175 18.3141 20.2081 18.1236 20.2081 17.8723C20.2081 17.6136 20.0175 17.4209 19.7663 17.4209H7.67503C7.42379 17.4209 7.22363 17.6232 7.22363 17.8723C7.22363 18.1236 7.42379 18.3141 7.67503 18.3141ZM8.42528 19.9766H20.5261C20.7774 19.9766 20.9679 19.786 20.9679 19.5348C20.9679 19.276 20.7774 19.0834 20.5261 19.0834H8.42528C8.17614 19.0834 7.98349 19.2856 7.98349 19.5348C7.98349 19.786 8.17614 19.9766 8.42528 19.9766Z" fill="black"/>
</svg>
