<svg width="28" height="28" viewBox="0 0 28 28" fill="none" xmlns="http://www.w3.org/2000/svg">
<path d="M14.105 26.21C20.7369 26.21 26.2121 20.7273 26.2121 14.105C26.2121 7.47312 20.7273 2 14.0954 2C7.47523 2 2 7.47312 2 14.105C2 20.7273 7.48484 26.21 14.105 26.21ZM14.105 23.8255C8.71085 23.8255 4.39412 19.4991 4.39412 14.105C4.39412 8.71085 8.70124 4.38452 14.0954 4.38452C19.4895 4.38452 23.8276 8.71085 23.8276 14.105C23.8276 19.4991 19.4991 23.8255 14.105 23.8255Z" fill="black"/>
<path d="M8.14722 16.4274H9.47355C9.84949 16.4274 10.153 16.1527 10.153 15.7906C10.153 15.4339 9.84949 15.1592 9.47355 15.1592H8.14722C7.76589 15.1592 7.46777 15.4435 7.46777 15.7906C7.46777 16.1335 7.76589 16.4274 8.14722 16.4274ZM10.3869 13.1666C10.6532 13.4328 11.0664 13.4541 11.3155 13.1996C11.57 12.9409 11.5412 12.5394 11.2825 12.271L10.3368 11.3274C10.0609 11.0495 9.65519 11.0687 9.41027 11.304C9.16324 11.5585 9.16113 11.9492 9.4391 12.2251L10.3869 13.1666ZM14.1062 6.80542C13.7516 6.80542 13.4673 7.11315 13.4673 7.47737V9.48269L13.5025 9.8516L13.4671 9.82253L12.7483 9.10277C12.6247 8.98253 12.4565 8.89324 12.2863 8.89324C11.9647 8.89324 11.7231 9.14659 11.7231 9.45644C11.7231 9.62027 11.7911 9.77144 11.938 9.90878L13.6644 11.536C13.8135 11.6755 13.9508 11.7362 14.1062 11.7362C14.2616 11.7362 14.399 11.6755 14.548 11.536L16.2744 9.90878C16.431 9.77144 16.4894 9.62027 16.4894 9.45644C16.4894 9.14659 16.2477 8.89324 15.9262 8.89324C15.756 8.89324 15.576 8.98253 15.4738 9.10277L14.8244 9.7841L14.71 9.88043L14.7451 9.48269V7.47737C14.7451 7.11315 14.4587 6.80542 14.1062 6.80542ZM16.9162 13.1996C17.1653 13.4445 17.5572 13.4424 17.8351 13.1666L18.7733 12.2251C19.0417 11.9492 19.0492 11.5585 18.8022 11.304C18.5573 11.0495 18.1515 11.0591 17.8736 11.3274L16.9396 12.271C16.6616 12.549 16.652 12.9409 16.9162 13.1996ZM18.7485 16.4274H20.0652C20.4604 16.4274 20.7447 16.1431 20.7447 15.7906C20.7447 15.4435 20.4604 15.1592 20.0652 15.1592H18.7485C18.3747 15.1592 18.0573 15.4339 18.0573 15.7906C18.0573 16.1527 18.3747 16.4274 18.7485 16.4274ZM17.305 15.9882C17.305 14.2344 15.858 12.7777 14.1062 12.7777C12.3641 12.7777 10.9075 14.2344 10.9075 15.9882C10.9075 16.3081 10.9651 16.6248 11.0697 16.933H17.1428C17.2473 16.6248 17.305 16.3081 17.305 15.9882ZM8.16503 19.0055H20.0474C20.4231 19.0055 20.7447 18.714 20.7447 18.3425C20.7447 17.971 20.4327 17.6795 20.0474 17.6795H8.16503C7.78933 17.6795 7.46777 17.9731 7.46777 18.3425C7.46777 18.7098 7.80105 19.0055 8.16503 19.0055Z" fill="black"/>
</svg>
