<svg width="28" height="29" viewBox="0 0 28 29" fill="none" xmlns="http://www.w3.org/2000/svg">
<path d="M6.3246 10.3284L3.88757 8.31979C3.39281 7.90471 2.77125 7.86628 2.37422 8.34206C1.98469 8.81362 2.1211 9.44994 2.60203 9.8533L5.06038 11.8715L6.3246 10.3284ZM4.06312 15.806L1.07695 15.8102C0.425623 15.8102 0 16.2199 0 16.8222C0 17.4245 0.425623 17.8225 1.08656 17.8225L4.06312 17.8087V15.806ZM4.93429 22.691L2.66906 24.5866C2.19234 24.9963 2.06344 25.6284 2.45086 26.0945C2.85 26.5703 3.47038 26.5361 3.96632 26.1264L6.20272 24.2329L4.93429 22.691ZM20.708 10.3284L21.9722 11.8715L24.4305 9.8533C24.9115 9.44994 25.0479 8.81362 24.6583 8.34206C24.2613 7.86628 23.6397 7.90471 23.145 8.31979L20.708 10.3284ZM22.9694 15.806V17.8087L25.946 17.8225C26.5973 17.8225 27.0326 17.4245 27.0326 16.8222C27.0326 16.2199 26.5973 15.8102 25.9556 15.8102L22.9694 15.806ZM22.0983 22.691L20.8202 24.2329L23.0662 26.1264C23.5526 26.5361 24.1847 26.5703 24.5817 26.0945C24.9691 25.6284 24.8402 24.9963 24.3539 24.5866L22.0983 22.691Z" fill="black"/>
<path d="M3.02441 17.4538C3.02441 23.1815 6.3448 27.3327 11.4408 28.0448C12.2377 28.1512 12.6762 27.8531 12.6762 27.2184V13.9647C12.6762 13.5006 13.0477 13.1292 13.5118 13.1292C13.9758 13.1292 14.3569 13.5006 14.3569 13.9647V27.2184C14.3569 27.8531 14.7976 28.1512 15.5923 28.0448C20.6904 27.3327 24.0087 23.1815 24.0087 17.4538C24.0087 14.9057 23.0508 11.5235 21.4508 10.0771C20.7502 9.45111 20.2838 9.44572 19.8743 9.62478C18.1104 10.4615 15.8832 10.9558 13.5118 10.9558C11.15 10.9558 8.92269 10.4615 7.15878 9.62478C6.74933 9.44572 6.28292 9.45111 5.58237 10.0771C3.9823 11.5235 3.02441 14.9057 3.02441 17.4538Z" fill="black"/>
<path d="M8.82207 15.3074C7.97106 15.3074 7.2841 14.5895 7.2841 13.7599C7.2841 12.9088 7.97106 12.2102 8.82207 12.2102C9.67308 12.2102 10.3697 12.9088 10.3697 13.7599C10.3697 14.5992 9.67308 15.3074 8.82207 15.3074ZM7.59558 20.395C6.60183 20.395 5.7998 19.593 5.7998 18.5917C5.7998 17.6139 6.60183 16.814 7.59558 16.814C8.5755 16.814 9.38503 17.616 9.38503 18.5917C9.38503 19.593 8.5755 20.395 7.59558 20.395ZM9.09231 24.6988C8.35637 24.6988 7.76105 24.1077 7.76105 23.3718C7.76105 22.638 8.35637 22.0427 9.09231 22.0427C9.83785 22.0427 10.429 22.638 10.429 23.3718C10.429 24.1077 9.83785 24.6988 9.09231 24.6988ZM18.2126 15.3074C17.3594 15.3074 16.6629 14.5992 16.6629 13.7599C16.6629 12.9088 17.3594 12.2102 18.2126 12.2102C19.0615 12.2102 19.7484 12.9088 19.7484 13.7599C19.7484 14.5895 19.0615 15.3074 18.2126 15.3074ZM19.439 20.395C18.457 20.395 17.6475 19.593 17.6475 18.5917C17.6475 17.616 18.457 16.814 19.439 16.814C20.4307 16.814 21.2327 17.6139 21.2327 18.5917C21.2327 19.593 20.4307 20.395 19.439 20.395ZM17.9402 24.6988C17.1968 24.6988 16.6036 24.1077 16.6036 23.3718C16.6036 22.638 17.1968 22.0427 17.9402 22.0427C18.6762 22.0427 19.2715 22.638 19.2715 23.3718C19.2715 24.1077 18.6762 24.6988 17.9402 24.6988Z" fill="white"/>
<path d="M7.1416 7.05674C7.1416 7.69799 7.38136 8.17752 8.21152 8.58064C9.50691 9.20783 11.4775 9.57322 13.5119 9.57322C15.5559 9.57322 17.5265 9.20783 18.8219 8.58064C19.652 8.17752 19.8918 7.69799 19.8918 7.05674C19.8918 4.41322 17.4023 2.29705 13.5119 2.29705C9.63113 2.29705 7.1416 4.41322 7.1416 7.05674ZM8.30925 1.89931L9.0766 2.16908C9.55519 2.3301 9.73332 2.57221 9.64589 2.94229L9.48207 3.61377L11.4346 3.59994L11.5166 2.94533C11.6498 1.74112 11.0823 0.844636 9.86526 0.419714L8.95847 0.0658075C7.66121 -0.374816 7.04082 1.52783 8.30925 1.89931ZM18.7199 1.89931C19.9884 1.52783 19.368 -0.374816 18.0707 0.0658075L17.1639 0.419714C15.9468 0.844636 15.3794 1.74112 15.5125 2.94533L15.5945 3.59994L17.5471 3.61377L17.3812 2.94229C17.2959 2.57221 17.4719 2.3301 17.9526 2.16908L18.7199 1.89931Z" fill="black"/>
</svg>
