<svg width="28" height="28" viewBox="0 0 28 28" fill="none" xmlns="http://www.w3.org/2000/svg">
<path d="M14.105 26.2301C20.7369 26.2301 26.2121 20.7549 26.2121 14.123C26.2121 7.50291 20.7273 2.01807 14.0954 2.01807C7.47523 2.01807 2 7.50291 2 14.123C2 20.7549 7.48484 26.2301 14.105 26.2301Z" fill="black"/>
<path d="M10.3293 15.7255C8.63406 15.7255 7.62109 14.6227 7.62109 13.2507C7.62109 12.0573 8.38422 11.1558 9.42929 10.8364C9.6475 8.71597 11.4142 7.07886 13.5422 7.07886C15.1926 7.07886 16.4906 7.96151 17.2141 9.36378C19.1416 9.36378 20.6196 10.6997 20.6196 12.5366C20.6196 14.3169 19.1951 15.7255 17.3433 15.7255H10.3293ZM10.663 19.1033C10.5182 19.3791 10.172 19.4708 9.90789 19.3163C9.62031 19.1598 9.53617 18.804 9.69062 18.5377L10.5102 17.1223C10.6647 16.8507 11.0109 16.7644 11.2792 16.9114C11.553 17.0755 11.6467 17.4216 11.4827 17.6858L10.663 19.1033ZM12.6724 20.8468C12.5179 21.0992 12.1814 21.2047 11.9151 21.0481C11.6275 20.8937 11.5455 20.5475 11.6999 20.2737L12.5292 18.8562C12.674 18.5921 13.0202 18.4887 13.2886 18.6453C13.5719 18.7998 13.6561 19.1459 13.492 19.4218L12.6724 20.8468ZM15.7197 19.0937C15.5749 19.3674 15.2287 19.4612 14.9625 19.3067C14.6749 19.1502 14.5929 18.7944 14.759 18.5281L15.5765 17.1127C15.7235 16.8411 16.0697 16.7548 16.3359 16.9018C16.6193 17.0659 16.7034 17.412 16.5393 17.6762L15.7197 19.0937ZM17.7037 20.8468C17.5589 21.0992 17.2127 21.2047 16.9465 21.0481C16.6706 20.8937 16.5768 20.5475 16.7409 20.2737L17.5605 18.8562C17.7054 18.5921 18.0515 18.4887 18.3199 18.6453C18.6033 18.7998 18.6874 19.1459 18.5426 19.4218L17.7037 20.8468Z" fill="white"/>
</svg>
