<svg width="28" height="28" viewBox="0 0 28 28" fill="none" xmlns="http://www.w3.org/2000/svg">
<path d="M14.105 26.21C20.7369 26.21 26.2121 20.7273 26.2121 14.105C26.2121 7.47312 20.7273 2 14.0954 2C7.47523 2 2 7.47312 2 14.105C2 20.7273 7.48484 26.21 14.105 26.21ZM14.105 23.8255C8.71085 23.8255 4.39412 19.4991 4.39412 14.105C4.39412 8.71085 8.70124 4.38452 14.0954 4.38452C19.4895 4.38452 23.8276 8.71085 23.8276 14.105C23.8276 19.4991 19.4991 23.8255 14.105 23.8255Z" fill="black"/>
<path d="M10.4 14.105C10.4 16.1368 12.0844 17.8191 14.1045 17.8191C14.6175 17.8191 15.0975 17.69 15.5103 17.4605C14.4373 19.1302 12.525 20.109 10.2512 20.109C9.82953 20.109 9.5293 20.4305 9.5293 20.8191C9.5293 21.2056 9.82953 21.5272 10.2512 21.5272C14.4582 21.5272 17.809 18.5762 17.809 14.105C17.809 12.0732 16.1267 10.3909 14.1045 10.3909C13.5936 10.3909 13.1114 10.52 12.6987 10.7495C13.7717 9.07976 15.6861 8.101 17.9696 8.101C18.3816 8.101 18.6818 7.77944 18.6818 7.38124C18.6818 6.99475 18.372 6.6828 17.9696 6.6828C13.7508 6.6828 10.4 9.63382 10.4 14.105ZM12.9696 14.105C12.9696 13.4848 13.4886 12.9701 14.1045 12.9701C14.7247 12.9701 15.2393 13.4848 15.2393 14.105C15.2393 14.7134 14.7247 15.2398 14.1045 15.2398C13.4886 15.2398 12.9696 14.7252 12.9696 14.105Z" fill="black"/>
</svg>
