<svg width="28" height="28" viewBox="0 0 28 28" fill="none" xmlns="http://www.w3.org/2000/svg">
<path d="M14.105 26.21C20.7369 26.21 26.2121 20.7273 26.2121 14.105C26.2121 7.47312 20.7273 2 14.0954 2C7.47523 2 2 7.47312 2 14.105C2 20.7273 7.48484 26.21 14.105 26.21ZM14.105 23.8255C8.71085 23.8255 4.39412 19.4991 4.39412 14.105C4.39412 8.71085 8.70124 4.38452 14.0954 4.38452C19.4895 4.38452 23.8276 8.71085 23.8276 14.105C23.8276 19.4991 19.4991 23.8255 14.105 23.8255Z" fill="black"/>
<path d="M14.1478 21.1902C17.4773 21.1902 19.6903 18.9345 19.6903 15.5612C19.6903 9.95749 14.9104 7.61444 11.6146 7.61444C10.9854 7.61444 10.5829 7.8678 10.5829 8.30421C10.5829 8.48093 10.6617 8.65225 10.7969 8.82053C11.5436 9.72382 12.2643 10.7344 12.2739 11.9272C12.2739 12.1855 12.2451 12.3957 12.0796 12.6945L12.3665 12.6338C12.0419 11.6773 11.3393 11.0959 10.706 11.0959C10.4229 11.0959 10.2323 11.3014 10.2323 11.6164C10.2323 11.7898 10.2771 12.144 10.2771 12.4559C10.2771 13.8655 9.2041 14.6164 9.2041 16.8826C9.2041 19.4609 11.1698 21.1902 14.1478 21.1902ZM14.3022 19.3002C13.1524 19.3002 12.3691 18.601 12.3691 17.5609C12.3691 16.4877 13.1397 16.123 13.2431 15.3912C13.2431 15.3104 13.3089 15.2818 13.3706 15.3434C13.6445 15.5811 13.814 15.9008 13.9792 16.2662C14.3022 15.7902 14.4208 14.8946 14.3132 13.933C14.2973 13.8362 14.3514 13.8097 14.4248 13.8298C15.7762 14.4502 16.4751 15.7857 16.4751 17.0098C16.4751 18.2405 15.7464 19.3002 14.3022 19.3002Z" fill="black"/>
</svg>
