<svg width="37" height="28" viewBox="0 0 37 28" fill="none" xmlns="http://www.w3.org/2000/svg">
<path d="M25.1353 25.5117C27.5831 25.5117 28.5598 24.2294 28.5598 22.7803C28.5598 20.0077 26.3189 18.742 22.0882 18.742C20.9055 18.742 20.3662 18.8154 19.9411 18.8866L19.0983 16.7946C17.3857 12.566 14.5404 11.0222 11.5479 11.0222C11.077 11.0222 10.5295 11.0318 10.0237 11.1415C9.39047 11.283 9.13406 11.5898 9.13406 12.0082C9.13406 12.5358 9.52757 12.8899 10.0882 12.8803C10.5647 12.8611 10.938 12.8004 11.4869 12.8004C14.1028 12.8004 15.9537 14.2228 17.5938 17.9991L18.7694 20.7811C19.698 20.5873 20.6009 20.4361 22.0865 20.4361C24.398 20.4361 26.5216 21.1026 26.5216 22.5827C26.5216 23.1532 26.0257 23.573 25.1353 23.573C23.97 23.573 23.118 23.2842 22.05 23.2842C20.6578 23.2842 19.594 23.4869 18.9989 23.4869C18.462 23.4869 17.9351 23.4134 17.3986 22.9709L12.1434 18.3209C8.35546 18.4997 5.69343 17.547 4.11234 15.2944C2.95288 15.4097 2.11101 14.9737 2.11101 14.0569C2.11101 13.1979 2.91936 12.6274 4.15358 12.6745C5.36062 8.79163 7.85812 6.99397 11.3782 6.99397C15.1627 6.99397 18.8323 9.97898 21.8953 11.632C22.7658 12.1198 23.7056 12.2995 24.3295 12.2995C25.7651 12.2995 26.8542 11.415 27.6143 9.67101L19.8876 4.75875C19.1062 4.27383 18.1115 3.49382 18.1115 3.18585C18.1115 2.51976 19.5769 2.04843 20.6824 2.04843C22.4981 2.04843 23.9754 3.0996 25.3629 4.74726L29.0702 9.13874C32.3876 9.02858 34.8068 11.5261 34.8068 14.7035C34.8068 16.6849 33.8953 17.2798 31.4449 17.2798C29.9562 17.2798 28.2518 16.684 26.7426 15.7603C24.4739 16.3545 22.1166 17.5085 20.3789 18.9443L21.9415 19.7093C23.5964 18.7148 25.3404 17.9815 26.4422 17.5587C27.9391 18.5194 29.9053 19.0376 31.3863 19.028C34.7212 19.0087 36.6684 17.9147 36.6684 14.6918C36.6684 10.6737 33.6649 7.64836 29.9737 7.56047L27.4645 4.08234C25.5476 1.46273 23.4279 0 20.6569 0C18.5447 0 15.7416 1.16109 15.7416 2.94398C15.7416 4.28015 17.1176 5.20851 18.6609 6.19359C20.3238 7.24875 22.9209 8.79702 24.9405 9.99421C24.6834 10.2216 24.4777 10.324 24.2142 10.324C23.8109 10.324 23.2186 10.106 22.5912 9.71953C17.9686 7.16156 15.1095 4.89656 11.4016 4.89656C7.10555 4.89656 3.99656 7.12008 2.5125 11.4134C0.998203 11.7117 0 12.7137 0 14.2123C0 16.0519 1.46602 17.0505 3.08109 17.1157C4.2239 18.9954 7.31671 20.565 11.2327 20.2516L16.2251 24.5623C16.9385 25.1901 17.7612 25.4864 18.9499 25.4864C19.9406 25.4864 20.7668 25.1857 22.1107 25.1857C23.3911 25.1857 24.0989 25.5117 25.1353 25.5117ZM10.4796 26.809C13.0071 26.809 15.3654 26.0897 17.0473 24.1875L15.514 23.0555C14.5331 24.3384 12.6886 25.0169 10.4674 25.0169C8.86899 25.0169 7.81219 24.4626 7.81219 23.5505C7.81219 23.1007 8.11477 22.748 8.75649 22.748C9.44133 22.748 10.1733 22.9502 11.022 22.9502C12.3984 22.9502 13.354 22.7768 14.2542 21.9058L12.8852 20.647C12.2885 21.1687 11.7813 21.2838 11.2095 21.2838C10.3074 21.2742 9.58478 21.0281 8.68993 21.0281C6.99775 21.0281 5.83783 22.0301 5.83783 23.5303C5.83783 25.6101 7.68751 26.809 10.4796 26.809ZM30.6513 13.9716C31.2499 13.9716 31.7409 13.4827 31.7409 12.8937C31.7409 12.3047 31.2499 11.8137 30.6513 11.8137C30.0644 11.8137 29.5734 12.3047 29.5734 12.8937C29.5734 13.4827 30.0644 13.9716 30.6513 13.9716Z" fill="black"/>
</svg>
