<svg width="28" height="28" viewBox="0 0 28 28" fill="none" xmlns="http://www.w3.org/2000/svg">
<path d="M14.105 26.21C20.7369 26.21 26.2121 20.7273 26.2121 14.105C26.2121 7.47312 20.7273 2 14.0954 2C7.47523 2 2 7.47312 2 14.105C2 20.7273 7.48484 26.21 14.105 26.21ZM14.105 23.8255C8.71085 23.8255 4.39412 19.4991 4.39412 14.105C4.39412 8.71085 8.70124 4.38452 14.0954 4.38452C19.4895 4.38452 23.8276 8.71085 23.8276 14.105C23.8276 19.4991 19.4991 23.8255 14.105 23.8255Z" fill="black"/>
<path d="M7.77859 12.2319C8.7557 11.9164 9.75953 11.7608 10.7441 11.7608C12.0027 11.7608 12.9405 11.9633 14.1531 11.9633C15.4776 11.9633 16.3436 11.0459 16.3436 9.85061C16.3436 8.62858 15.4049 7.74756 14.2406 7.74756C13.3827 7.74756 12.6316 8.28147 12.3281 8.98787C12.1769 9.28811 12.2376 9.67154 12.5795 9.83654C12.8819 9.99404 13.2545 9.88975 13.4388 9.51381C13.5731 9.21521 13.8684 8.99232 14.2406 8.99232C14.7342 8.99232 15.0913 9.30686 15.0913 9.85061C15.0913 10.3965 14.7438 10.7206 14.1531 10.7206C13.0171 10.7206 12.0635 10.5085 10.7441 10.5085C9.61352 10.5085 8.44352 10.7281 7.39516 11.0457C7.0075 11.1533 6.83828 11.5079 6.94586 11.8294C7.04594 12.1669 7.38883 12.3629 7.77859 12.2319ZM18.5667 15.5389C20.2778 15.5389 21.4956 14.4341 21.4956 12.9041C21.4956 11.405 20.3289 10.3001 18.8821 10.3001C17.5989 10.3001 16.5803 11.1966 16.3825 12.3786C16.3049 12.7599 16.5267 13.0899 16.8482 13.1462C17.1869 13.2141 17.5232 13.0128 17.6125 12.5963C17.7339 11.9736 18.2456 11.5524 18.8821 11.5524C19.6603 11.5524 20.2434 12.0854 20.2434 12.9041C20.2434 13.7462 19.6092 14.2866 18.5667 14.2866C16.4908 14.2866 14.2127 13.0782 11.4091 13.0782C9.98219 13.0782 8.63219 13.3255 7.38133 13.7464C7.01711 13.8774 6.83828 14.2203 6.94586 14.5419C7.03844 14.8794 7.38555 15.0732 7.78492 14.938C8.90055 14.5212 10.0609 14.3305 11.4091 14.3305C14.1318 14.3305 16.1948 15.5389 18.5667 15.5389ZM14.1628 20.454C15.3112 20.454 16.2285 19.5847 16.2285 18.3744C16.2285 16.6121 14.4503 15.6575 11.2921 15.6575C10.0155 15.6575 8.58859 15.8994 7.38133 16.3161C7.02672 16.4471 6.83828 16.7921 6.94586 17.0902C7.03844 17.4298 7.38555 17.6429 7.78492 17.5076C8.86445 17.1144 10.0666 16.8926 11.2921 16.8926C13.7317 16.8926 14.9742 17.4704 14.9742 18.3744C14.9742 18.916 14.6212 19.2092 14.1628 19.2092C13.6956 19.2092 13.4526 18.9383 13.3546 18.436C13.2824 18.1006 13.0047 17.833 12.6255 17.8955C12.1982 17.9464 12.0501 18.3341 12.1223 18.6908C12.2892 19.6768 13.0595 20.454 14.1628 20.454Z" fill="black"/>
</svg>
