<svg width="28" height="28" viewBox="0 0 28 28" fill="none" xmlns="http://www.w3.org/2000/svg">
<path d="M4.89359 19.2983L6.22718 16.7567C6.55319 16.1419 6.8921 15.7625 7.2439 15.7625C7.58609 15.7625 7.95593 16.1164 8.51421 16.8409C9.61554 18.2628 10.3433 18.9502 11.0912 18.9502C11.8325 18.9502 12.691 17.9105 12.691 17.1694C12.691 16.6855 12.0322 16.2134 12.0069 15.9641C12.0005 15.8574 12.0955 15.7913 12.2694 15.7913C13.9508 15.7913 15.4686 14.4041 15.4686 13.2462C15.4686 12.1693 14.3148 11.3586 14.3148 11.0333C14.3148 10.9672 14.367 10.9149 14.431 10.9149C14.5323 10.9149 14.656 11.0237 14.915 11.2283C16.2465 12.2987 16.9006 11.6748 17.0262 11.0312C17.0773 10.767 17.2222 10.524 17.8287 10.2127C19.0939 9.54827 20.2918 8.45515 20.2918 7.55163C20.2918 6.35749 18.717 5.86202 18.717 5.59343C18.717 5.42608 19.0932 5.27257 19.8104 5.08694L19.5005 3.87101C18.2427 4.19163 17.319 4.80194 17.319 5.52101C17.319 6.46062 19.0428 7.02077 19.0428 7.55163C19.0428 8.07382 18.0678 8.65156 17.3422 9.04999C16.0777 9.77538 16.1736 10.1309 16.0222 10.4499C15.7419 10.9351 15.1951 9.88109 14.2182 9.88109C13.6133 9.88109 13.1574 10.2751 13.1574 10.8673C13.1574 11.776 14.2154 12.6261 14.2154 13.2462C14.2154 13.9815 13.3524 14.6616 11.9063 14.6616C11.0818 14.6616 10.628 15.0334 10.628 15.6788C10.628 16.3084 11.3888 16.8964 11.3888 17.1948C11.3888 17.3963 11.2383 17.5895 11.1167 17.5895C10.8812 17.5895 10.3358 17.1252 9.50866 16.07C8.73218 15.0591 8.03116 14.5093 7.31632 14.5093C6.33593 14.5093 5.69046 15.2928 5.29554 16.0177L4.15132 18.1102L4.89359 19.2983ZM19.227 24.0652L20.2311 23.2965C19.708 22.6018 19.0421 21.5443 17.6138 21.5443C16.7373 21.5443 16.5868 21.8213 16.0156 21.8213C15.6957 21.8213 15.523 21.5441 15.3727 20.9164C15.23 20.3539 15.1862 19.9796 15.5178 19.8462C15.9291 19.6927 17.3471 19.5202 17.8297 18.0181C18.159 17.026 18.4606 16.6466 18.9936 16.6466C19.9487 16.6466 19.869 17.7024 21.0191 17.7024C21.5548 17.7024 21.8319 17.4776 22.1921 17.4776C22.6824 17.4776 23.015 17.9879 23.1003 19.1951L24.3556 18.7116C24.1627 17.1479 23.4118 16.2287 22.3498 16.2287C22.0677 16.2287 21.7203 16.2755 21.4123 16.381C21.0657 16.4952 20.9945 16.4738 20.7151 16.1476C20.2304 15.5968 19.8022 15.3934 19.13 15.3934C17.938 15.3934 17.172 15.9866 16.6137 17.6572C16.4795 18.0952 16.295 18.2349 15.5033 18.5354L15.0153 18.7112C14.0769 19.0691 13.8073 19.7593 14.1334 21.189C14.4263 22.445 15.0441 23.0862 15.9123 23.0862C16.674 23.0862 17.1247 22.8188 17.6138 22.8188C18.3331 22.7975 18.6699 23.277 19.227 24.0652ZM16.9081 13.4112C17.6635 13.4112 18.0012 12.7379 18.8483 12.4843C19.4066 12.3202 19.7091 11.7502 19.7091 11.2601C19.7091 10.8659 19.512 10.5282 19.0805 10.5282C18.6277 10.5282 18.208 10.8798 17.9288 11.4711C17.7807 11.8067 17.5229 11.9708 16.9081 12.1444C16.4202 12.2947 16.2465 12.4705 16.2465 12.8412C16.2465 13.2376 16.5566 13.4112 16.9081 13.4112ZM13.5118 18.7578C14.1755 18.7578 14.8255 17.9907 14.8255 17.3056C14.8255 16.4565 14.4739 16.0623 14.0701 16.0623C13.629 16.0623 13.3498 16.5854 13.3498 17.3738C13.3498 17.8287 12.9535 17.8426 12.9535 18.2954C12.9535 18.5745 13.1741 18.7578 13.5118 18.7578ZM11.5032 20.9108C12.0125 20.9108 12.3289 20.6455 12.3289 20.2236C12.3289 19.8997 12.0828 19.6887 11.7333 19.6887C10.3301 19.6887 10.2716 18.9003 9.59609 18.9003C9.2253 18.9003 8.96749 19.1209 8.96749 19.4448C8.96749 19.7005 9.2253 19.8997 9.57265 19.8997C10.3184 19.8997 9.96687 20.9108 11.5032 20.9108ZM14.105 26.21C20.7369 26.21 26.2121 20.7273 26.2121 14.105C26.2121 7.47312 20.7273 2 14.0954 2C7.47523 2 2 7.47312 2 14.105C2 20.7273 7.48484 26.21 14.105 26.21ZM14.105 24.3336C8.51233 24.3336 3.8785 19.6998 3.8785 14.105C3.8785 8.51023 8.50273 3.87639 14.0954 3.87639C19.6902 3.87639 24.3336 8.51023 24.3336 14.105C24.3336 19.6998 19.6998 24.3336 14.105 24.3336Z" fill="black"/>
</svg>
