<svg width="28" height="28" viewBox="0 0 28 28" fill="none" xmlns="http://www.w3.org/2000/svg">
<path d="M14.105 26.21C20.7369 26.21 26.2121 20.7273 26.2121 14.105C26.2121 7.47312 20.7273 2 14.0954 2C7.47523 2 2 7.47312 2 14.105C2 20.7273 7.48484 26.21 14.105 26.21Z" fill="black"/>
<path d="M7.73633 13.212C7.73633 12.008 8.38719 11.0727 9.21711 11.0727C10.0395 11.0727 10.6979 12.008 10.6979 13.212C10.6979 14.4064 10.0395 15.3343 9.21711 15.3343C8.38719 15.3343 7.73633 14.4064 7.73633 13.212ZM10.6623 9.72242C10.6623 8.52805 11.3164 7.60977 12.141 7.60977C12.973 7.60977 13.6239 8.53766 13.6239 9.72242C13.6239 10.9147 12.973 11.8618 12.141 11.8618C11.3206 11.8618 10.6623 10.9147 10.6623 9.72242ZM14.5782 9.72242C14.5782 8.53766 15.227 7.60977 16.0515 7.60977C16.8835 7.60977 17.5377 8.52805 17.5377 9.72242C17.5377 10.9147 16.8814 11.8618 16.0515 11.8618C15.227 11.8618 14.5782 10.9147 14.5782 9.72242ZM17.5042 13.212C17.5042 12.008 18.1604 11.0727 18.985 11.0727C19.8053 11.0727 20.454 12.008 20.454 13.212C20.454 14.4064 19.8053 15.3343 18.985 15.3343C18.1604 15.3343 17.5042 14.4064 17.5042 13.212ZM9.57946 17.8334C9.57946 16.8031 10.2038 16.2683 10.7909 15.7812C11.1085 15.5298 11.4282 15.2783 11.6595 14.9319C11.8194 14.675 11.9579 14.3926 12.106 14.1092C12.5216 13.197 12.8689 12.3223 14.0952 12.3223C15.3332 12.3223 15.6709 13.1874 16.0939 14.1092C16.2346 14.3926 16.371 14.6846 16.5404 14.9415C16.7739 15.2783 17.0935 15.5298 17.4111 15.7812C17.9961 16.2683 18.6205 16.8031 18.6205 17.8334C18.6205 19.0714 17.7927 19.9386 16.5728 19.9386C15.9814 19.9386 15.55 19.7884 15.1311 19.6402C14.8039 19.5177 14.481 19.4281 14.0952 19.4281C13.7115 19.4281 13.3982 19.5177 13.0592 19.6402C12.65 19.7884 12.2185 19.9386 11.6197 19.9386C10.3977 19.9386 9.57946 19.0714 9.57946 17.8334Z" fill="white"/>
</svg>
