<svg width="28" height="28" viewBox="0 0 28 28" fill="none" xmlns="http://www.w3.org/2000/svg">
<path d="M14.105 26.21C20.7369 26.21 26.2121 20.7273 26.2121 14.105C26.2121 7.47312 20.7273 2 14.0954 2C7.47523 2 2 7.47312 2 14.105C2 20.7273 7.48484 26.21 14.105 26.21ZM14.105 23.8255C8.71085 23.8255 4.39412 19.4991 4.39412 14.105C4.39412 8.71085 8.70124 4.38452 14.0954 4.38452C19.4895 4.38452 23.8276 8.71085 23.8276 14.105C23.8276 19.4991 19.4991 23.8255 14.105 23.8255Z" fill="black"/>
<path d="M9.02539 14.8883C9.02539 15.2002 9.27664 15.428 9.60031 15.428H13.4527L11.397 20.9166C11.1031 21.7025 11.9422 22.1422 12.4639 21.5033L18.7824 13.6391C18.9155 13.4942 18.9858 13.3217 18.9858 13.1609C18.9858 12.849 18.7346 12.6191 18.4109 12.6191H14.5585L16.6142 7.13044C16.9081 6.34669 16.069 5.907 15.5473 6.53419L9.22883 14.4005C9.0957 14.555 9.02539 14.7254 9.02539 14.8883Z" fill="black"/>
</svg>
