<svg width="28" height="28" viewBox="0 0 28 28" fill="none" xmlns="http://www.w3.org/2000/svg">
<path d="M14.105 26.21C20.7369 26.21 26.2121 20.7273 26.2121 14.105C26.2121 7.47312 20.7273 2 14.0954 2C7.47523 2 2 7.47312 2 14.105C2 20.7273 7.48484 26.21 14.105 26.21Z" fill="black"/>
<path d="M14.1143 8.96115C13.6224 8.96115 13.2359 8.57467 13.2359 8.07521C13.2359 7.58115 13.6224 7.18295 14.1143 7.18295C14.6063 7.18295 15.0045 7.58115 15.0045 8.07521C15.0045 8.57467 14.6063 8.96115 14.1143 8.96115ZM16.6931 9.65701C16.2481 9.39826 16.1149 8.85943 16.3716 8.42607C16.6165 8.00654 17.1574 7.86709 17.5791 8.11412C18.0061 8.35365 18.1573 8.90209 17.8985 9.33545C17.6632 9.76459 17.1319 9.90193 16.6931 9.65701ZM18.574 11.5496C18.3249 11.097 18.4664 10.5636 18.8956 10.3283C19.3439 10.0641 19.8752 10.2207 20.1127 10.6477C20.3618 11.0694 20.2224 11.622 19.7836 11.8573C19.3716 12.1161 18.8189 11.967 18.574 11.5496ZM19.2699 14.105C19.2699 13.6109 19.6542 13.2266 20.1558 13.2266C20.6477 13.2266 21.0459 13.6109 21.0459 14.105C21.0459 14.5991 20.6477 14.993 20.1558 14.993C19.6521 14.993 19.2699 14.5991 19.2699 14.105ZM18.574 16.6796C18.8306 16.243 19.3716 16.1035 19.7932 16.3623C20.2224 16.6072 20.3618 17.146 20.1148 17.5677C19.8752 17.9989 19.3268 18.1459 18.8934 17.8913C18.4622 17.6518 18.3291 17.1226 18.574 16.6796ZM16.6814 18.5626C17.1319 18.3177 17.6653 18.455 17.9006 18.8841C18.1434 19.3367 18.0082 19.8638 17.5791 20.1034C17.1574 20.3504 16.6069 20.2152 16.3695 19.7722C16.1149 19.3602 16.2544 18.8117 16.6814 18.5626ZM14.1143 19.2584C14.6063 19.2584 15.0045 19.6449 15.0045 20.1444C15.0045 20.6384 14.6063 21.0366 14.1143 21.0366C13.6224 21.0366 13.2359 20.6384 13.2359 20.1444C13.2359 19.6449 13.6224 19.2584 14.1143 19.2584ZM11.5471 18.5626C11.9763 18.8213 12.1254 19.3602 11.8591 19.7839C11.6238 20.213 11.0807 20.3525 10.6591 20.1034C10.23 19.8659 10.0734 19.3175 10.3396 18.8841C10.575 18.455 11.1042 18.3177 11.5471 18.5626ZM9.66629 16.67C9.91121 17.1226 9.77387 17.656 9.34473 17.8913C8.89426 18.1459 8.36293 17.9989 8.12551 17.5698C7.87637 17.1502 8.01371 16.5976 8.44918 16.3623C8.86871 16.1035 9.40965 16.243 9.66629 16.67ZM8.97043 14.1146C8.97043 14.5991 8.58606 14.993 8.08238 14.993C7.59254 14.993 7.19434 14.5991 7.19434 14.105C7.19434 13.6109 7.58832 13.2266 8.08449 13.2266C8.58606 13.2266 8.97043 13.6205 8.97043 14.1146ZM9.66629 11.5496C9.40965 11.967 8.86871 12.1161 8.43325 11.8573C8.01582 11.6124 7.87637 11.0694 8.12762 10.6477C8.36293 10.2207 8.91348 10.0641 9.34473 10.3304C9.77387 10.5678 9.91121 11.097 9.66629 11.5496ZM11.5493 9.65701C11.1084 9.90193 10.5771 9.76459 10.3396 9.33545C10.083 8.88287 10.23 8.35365 10.6612 8.11412C11.0807 7.86709 11.6334 8.00654 11.8591 8.43779C12.1233 8.85943 11.9763 9.39826 11.5493 9.65701ZM14.1047 18.1313C11.89 18.1313 10.0762 16.3196 10.0762 14.105C10.0762 11.8883 11.89 10.0765 14.1047 10.0765C16.3193 10.0765 18.131 11.8883 18.131 14.105C18.131 16.3196 16.3193 18.1313 14.1047 18.1313Z" fill="white"/>
</svg>
