<svg width="28" height="28" viewBox="0 0 28 28" fill="none" xmlns="http://www.w3.org/2000/svg">
<path d="M14.105 26.2301C20.7369 26.2301 26.2121 20.7549 26.2121 14.123C26.2121 7.50291 20.7273 2.01807 14.0954 2.01807C7.47523 2.01807 2 7.50291 2 14.123C2 20.7549 7.48484 26.2301 14.105 26.2301Z" fill="black"/>
<path d="M7.53457 12.1883C7.13098 12.3097 6.77215 12.1116 6.67957 11.7582C6.56027 11.4207 6.73371 11.0523 7.14691 10.9405C8.23887 10.6112 9.44285 10.3895 10.615 10.3895C11.9896 10.3895 12.973 10.6037 14.1623 10.6037C14.7688 10.6037 15.1281 10.2678 15.1281 9.70601C15.1281 9.13882 14.7475 8.81257 14.2497 8.81257C13.8658 8.81257 13.5587 9.04718 13.4127 9.35749C13.2147 9.74937 12.8261 9.85366 12.5078 9.68445C12.1616 9.51523 12.1009 9.11796 12.2542 8.81351C12.5833 8.06562 13.3642 7.51788 14.2497 7.51788C15.448 7.51788 16.4378 8.44038 16.4378 9.70601C16.4378 10.9587 15.5228 11.8962 14.1623 11.8962C12.8964 11.8962 11.9172 11.7012 10.615 11.7012C9.58887 11.7012 8.55316 11.8494 7.53457 12.1883ZM18.7363 15.6165C16.2676 15.6165 14.1313 14.3623 11.3075 14.3623C9.91371 14.3623 8.70973 14.5573 7.55473 14.99C7.1373 15.1369 6.77637 14.941 6.67957 14.5737C6.56027 14.248 6.74332 13.8912 7.13098 13.7464C8.42754 13.3116 9.82324 13.0527 11.3075 13.0527C14.2122 13.0527 16.5892 14.3068 18.7363 14.3068C19.8086 14.3068 20.4684 13.76 20.4684 12.886C20.4684 12.0322 19.8618 11.4758 19.0677 11.4758C18.4056 11.4758 17.8705 11.9066 17.7545 12.5644C17.6535 12.9894 17.3087 13.2141 16.9562 13.1419C16.6091 13.074 16.3778 12.7398 16.4746 12.3212C16.6787 11.0977 17.7292 10.1736 19.0677 10.1736C20.5698 10.1736 21.7705 11.3241 21.7705 12.886C21.7705 14.468 20.5091 15.6165 18.7363 15.6165ZM14.1623 20.7219C13.0176 20.7219 12.2099 19.917 12.0388 18.8937C11.9603 18.5307 12.1223 18.1271 12.5655 18.0741C12.9585 18.0094 13.2522 18.2867 13.3286 18.6188C13.4287 19.1541 13.6909 19.4272 14.1623 19.4272C14.6441 19.4272 14.9971 19.1223 14.9971 18.5551C14.9971 17.6309 13.7228 17.0394 11.1885 17.0394C9.90762 17.0394 8.67363 17.2632 7.55473 17.6628C7.1373 17.8098 6.77637 17.5904 6.67957 17.2369C6.55066 16.9133 6.75293 16.5544 7.12137 16.4192C8.37434 15.9983 9.85652 15.7351 11.1885 15.7351C14.4615 15.7351 16.3035 16.7312 16.3035 18.5551C16.3035 19.8303 15.366 20.7219 14.1623 20.7219Z" fill="white"/>
</svg>
