<svg width="28" height="28" viewBox="0 0 28 28" fill="none" xmlns="http://www.w3.org/2000/svg">
<path d="M14.105 26.2301C20.7369 26.2301 26.2121 20.7549 26.2121 14.123C26.2121 7.50291 20.7273 2.01807 14.0954 2.01807C7.47523 2.01807 2 7.50291 2 14.123C2 20.7549 7.48484 26.2301 14.105 26.2301Z" fill="black"/>
<path d="M9.72543 13.7342C9.72543 14.1378 9.38676 14.4498 8.94051 14.4498H7.50121C7.0784 14.4498 6.74512 14.1186 6.74512 13.7342C6.74512 13.352 7.0784 13.0304 7.50121 13.0304H8.94051C9.37715 13.0304 9.72543 13.3327 9.72543 13.7342ZM10.9976 10.8587C10.7133 11.1526 10.2704 11.1196 9.96473 10.8278L8.93911 9.79464C8.62598 9.47191 8.61848 9.03222 8.89106 8.75965C9.16364 8.48918 9.60871 8.46996 9.91973 8.79269L10.9646 9.83004C11.2681 10.126 11.2873 10.5744 10.9976 10.8587ZM14.0951 9.24714C13.7032 9.24714 13.3913 8.90214 13.3913 8.46972V7.03042C13.3913 6.59378 13.7128 6.27222 14.0951 6.27222C14.4773 6.27222 14.8085 6.59378 14.8085 7.03042V8.46972C14.8085 8.89253 14.487 9.24714 14.0951 9.24714ZM17.2043 10.8587C16.9146 10.5744 16.9146 10.1357 17.2256 9.83004L18.2705 8.79269C18.5644 8.47957 19.0287 8.47957 19.3109 8.75965C19.5738 9.04183 19.5663 9.47191 19.2511 9.79464L18.2351 10.8278C17.9316 11.1292 17.4886 11.1409 17.2043 10.8587ZM18.4744 13.7342C18.4744 13.3327 18.8194 13.0304 19.2518 13.0304H20.6986C21.1235 13.0304 21.4472 13.352 21.4472 13.7342C21.4472 14.1282 21.1235 14.4498 20.6986 14.4498H19.2518C18.8194 14.4498 18.4744 14.1282 18.4744 13.7342ZM10.7262 14.9691C10.6217 14.6567 10.5523 14.307 10.5523 13.952C10.5523 12.0106 12.1655 10.3996 14.0951 10.3996C16.0364 10.3996 17.6379 12.0106 17.6379 13.952C17.6379 14.307 17.5706 14.6567 17.4661 14.9691H10.7262ZM8.20669 16.7942C7.94161 16.7942 7.74684 16.5973 7.74684 16.3323C7.74684 16.0714 7.94161 15.8745 8.20669 15.8745H20.7638C21.0288 15.8745 21.2215 16.0714 21.2215 16.3323C21.2215 16.5973 21.0288 16.7942 20.7638 16.7942H8.20669ZM7.43816 18.53C7.17308 18.53 6.9687 18.3256 6.9687 18.0605C6.9687 17.8072 7.17308 17.6028 7.43816 17.6028H19.9856C20.2507 17.6028 20.4434 17.8072 20.4434 18.0605C20.4434 18.3256 20.2507 18.53 19.9856 18.53H7.43816ZM8.20669 20.2583C7.94161 20.2583 7.74684 20.0614 7.74684 19.8005C7.74684 19.5355 7.94161 19.3386 8.20669 19.3386H20.7638C21.0288 19.3386 21.2215 19.5355 21.2215 19.8005C21.2215 20.0614 21.0288 20.2583 20.7638 20.2583H8.20669Z" fill="white"/>
</svg>
