<svg width="28" height="28" viewBox="0 0 28 28" fill="none" xmlns="http://www.w3.org/2000/svg">
<path d="M14.105 26.2301C20.7369 26.2301 26.2121 20.7549 26.2121 14.123C26.2121 7.50291 20.7273 2.01807 14.0954 2.01807C7.47523 2.01807 2 7.50291 2 14.123C2 20.7549 7.48484 26.2301 14.105 26.2301Z" fill="black"/>
<path d="M10.3293 15.6136C8.63406 15.6136 7.62109 14.5012 7.62109 13.125C7.62109 11.9358 8.38422 11.0302 9.42929 10.7107C9.6475 8.59032 11.4142 6.9436 13.5422 6.9436C15.1926 6.9436 16.4906 7.83798 17.2141 9.23064C19.1416 9.23064 20.6196 10.5762 20.6196 12.4129C20.6196 14.1815 19.1951 15.6136 17.3433 15.6136H10.3293ZM11.0713 18.727C10.9286 18.989 10.5803 19.0945 10.3045 18.9401C10.0265 18.7835 9.94656 18.416 10.0893 18.1615L10.7746 16.9891C10.9173 16.7271 11.2656 16.6312 11.5436 16.7761C11.8195 16.9422 11.8994 17.3001 11.7566 17.5547L11.0713 18.727ZM14.276 18.7312C14.1354 18.9954 13.7754 19.1008 13.5112 18.9464C13.2333 18.7877 13.1533 18.4202 13.3057 18.1699L13.9814 16.9933C14.1241 16.7313 14.482 16.6354 14.7504 16.7803C15.0241 16.9486 15.1061 17.3065 14.9517 17.5589L14.276 18.7312ZM17.4731 18.727C17.3283 18.989 16.98 19.0945 16.7083 18.9401C16.4304 18.7835 16.3483 18.416 16.4911 18.1615L17.1764 16.9891C17.3212 16.7271 17.6695 16.6312 17.9454 16.7761C18.2287 16.9422 18.3033 17.3001 18.1584 17.5547L17.4731 18.727ZM9.61843 21.0944C9.17312 21.0944 8.80984 20.7311 8.80984 20.2858C8.80984 19.8522 9.17312 19.489 9.61843 19.489C10.052 19.489 10.4153 19.8522 10.4153 20.2858C10.4153 20.7311 10.052 21.0944 9.61843 21.0944ZM12.8252 21.1008C12.3778 21.1008 12.0166 20.7375 12.0166 20.2901C12.0166 19.8565 12.3778 19.4932 12.8252 19.4932C13.2684 19.4932 13.6317 19.8565 13.6317 20.2901C13.6317 20.7375 13.2684 21.1008 12.8252 21.1008ZM16.0223 21.0944C15.5845 21.0944 15.2116 20.7311 15.2116 20.2858C15.2116 19.8522 15.5845 19.489 16.0223 19.489C16.4559 19.489 16.8288 19.8522 16.8288 20.2858C16.8288 20.7311 16.4559 21.0944 16.0223 21.0944Z" fill="white"/>
</svg>
