<svg width="28" height="28" viewBox="0 0 28 28" fill="none" xmlns="http://www.w3.org/2000/svg">
<path d="M14.105 26.21C20.7369 26.21 26.2121 20.7273 26.2121 14.105C26.2121 7.47312 20.7273 2 14.0954 2C7.47523 2 2 7.47312 2 14.105C2 20.7273 7.48484 26.21 14.105 26.21ZM14.105 23.8255C8.71085 23.8255 4.39412 19.4991 4.39412 14.105C4.39412 8.71085 8.70124 4.38452 14.0954 4.38452C19.4895 4.38452 23.8276 8.71085 23.8276 14.105C23.8276 19.4991 19.4991 23.8255 14.105 23.8255Z" fill="black"/>
<path d="M14.0959 20.2295C16.7211 20.2295 18.4771 18.5258 18.4771 15.9805C18.4771 14.7664 17.9717 13.6604 17.566 12.7637C16.8798 11.2941 15.782 9.5002 14.8271 8.02106C14.6089 7.70067 14.3727 7.54645 14.0959 7.54645C13.8191 7.54645 13.5849 7.70067 13.3667 8.02106C12.4077 9.5002 11.3098 11.2962 10.6257 12.7658C10.22 13.6625 9.7168 14.7664 9.7168 15.9805C9.7168 18.5258 11.4727 20.2295 14.0959 20.2295Z" fill="black"/>
</svg>
