<svg width="28" height="28" viewBox="0 0 28 28" fill="none" xmlns="http://www.w3.org/2000/svg">
<path d="M14.105 26.2301C20.7369 26.2301 26.2121 20.7549 26.2121 14.123C26.2121 7.50291 20.7273 2.01807 14.0954 2.01807C7.47523 2.01807 2 7.50291 2 14.123C2 20.7549 7.48484 26.2301 14.105 26.2301Z" fill="black"/>
<path d="M14.105 23.8456C11.2278 23.8456 8.66607 22.6191 6.89185 20.6541V10.2282C6.89185 9.3774 7.37748 8.8374 8.1856 8.8374H15.7894C16.6009 8.8374 17.079 9.3774 17.079 10.2282V23.3825C16.1448 23.6806 15.1435 23.8456 14.105 23.8456ZM9.6331 21.5131H10.9041C11.0565 21.5131 11.1833 21.4055 11.1833 21.2319V19.9939C11.1833 19.8416 11.0565 19.719 10.9041 19.719H9.6331C9.47115 19.719 9.36568 19.8416 9.36568 19.9939V21.2319C9.36568 21.4055 9.47115 21.5131 9.6331 21.5131ZM13.0855 21.5131H14.3607C14.5184 21.5131 14.6356 21.4055 14.6356 21.2319V19.9939C14.6356 19.8416 14.5184 19.719 14.3607 19.719H13.0855C12.9277 19.719 12.818 19.8416 12.818 19.9939V21.2319C12.818 21.4055 12.9277 21.5131 13.0855 21.5131ZM9.6331 18.5703H10.9041C11.0565 18.5703 11.1833 18.4489 11.1833 18.2891V17.0544C11.1833 16.8966 11.0565 16.7773 10.9041 16.7773H9.6331C9.47115 16.7773 9.36568 16.8966 9.36568 17.0544V18.2891C9.36568 18.4489 9.47115 18.5703 9.6331 18.5703ZM13.0855 18.5703H14.3607C14.5184 18.5703 14.6356 18.4489 14.6356 18.2891V17.0544C14.6356 16.8966 14.5184 16.7773 14.3607 16.7773H13.0855C12.9277 16.7773 12.818 16.8966 12.818 17.0544V18.2891C12.818 18.4489 12.9277 18.5703 13.0855 18.5703ZM9.6331 15.6266H10.9041C11.0565 15.6266 11.1833 15.4977 11.1833 15.3495V14.1052C11.1833 13.9454 11.0565 13.8261 10.9041 13.8261H9.6331C9.47115 13.8261 9.36568 13.9454 9.36568 14.1052V15.3495C9.36568 15.4977 9.47115 15.6266 9.6331 15.6266ZM13.0855 15.6266H14.3607C14.5184 15.6266 14.6356 15.4977 14.6356 15.3495V14.1052C14.6356 13.9454 14.5184 13.8261 14.3607 13.8261H13.0855C12.9277 13.8261 12.818 13.9454 12.818 14.1052V15.3495C12.818 15.4977 12.9277 15.6266 13.0855 15.6266ZM9.6331 12.6945H10.9041C11.0565 12.6945 11.1833 12.5816 11.1833 12.4196V11.1795C11.1833 11.0197 11.0565 10.9025 10.9041 10.9025H9.6331C9.47115 10.9025 9.36568 11.0197 9.36568 11.1795V12.4196C9.36568 12.5816 9.47115 12.6945 9.6331 12.6945ZM13.0855 12.6945H14.3607C14.5184 12.6945 14.6356 12.5816 14.6356 12.4196V11.1795C14.6356 11.0197 14.5184 10.9025 14.3607 10.9025H13.0855C12.9277 10.9025 12.818 11.0197 12.818 11.1795V12.4196C12.818 12.5816 12.9277 12.6945 13.0855 12.6945ZM17.993 23.0375V11.7847H21.0877C21.8959 11.7847 22.3794 12.3034 22.3794 13.1541V19.2263C21.3603 20.9166 19.7537 22.2955 17.993 23.0375ZM19.6749 20.3124H20.709C20.8304 20.3124 20.9262 20.207 20.9262 20.0898V19.0824C20.9262 18.9631 20.8304 18.8577 20.709 18.8577H19.6749C19.5385 18.8577 19.4427 18.9652 19.4427 19.0824V20.0898C19.4427 20.207 19.5406 20.3124 19.6749 20.3124ZM19.6749 17.7322H20.709C20.8325 17.7322 20.9262 17.6384 20.9262 17.5095V16.5139C20.9262 16.3829 20.8325 16.2912 20.709 16.2912H19.6749C19.5385 16.2912 19.4427 16.385 19.4427 16.5139V17.5095C19.4427 17.6363 19.5385 17.7322 19.6749 17.7322ZM19.6749 15.1637H20.709C20.8304 15.1637 20.9262 15.0741 20.9262 14.9452V13.9379C20.9262 13.8186 20.8325 13.7152 20.709 13.7152H19.6749C19.5385 13.7152 19.4427 13.8207 19.4427 13.9379V14.9452C19.4427 15.072 19.5385 15.1637 19.6749 15.1637Z" fill="white"/>
</svg>
