<svg width="28" height="28" viewBox="0 0 28 28" fill="none" xmlns="http://www.w3.org/2000/svg">
<path d="M14.105 26.2301C20.7369 26.2301 26.2121 20.7549 26.2121 14.123C26.2121 7.50291 20.7273 2.01807 14.0954 2.01807C7.47523 2.01807 2 7.50291 2 14.123C2 20.7549 7.48484 26.2301 14.105 26.2301Z" fill="black"/>
<path d="M6.94775 18.418V15.0551C6.94775 13.9632 7.56674 13.3484 8.67041 13.3484H19.5419C20.6456 13.3484 21.2646 13.9632 21.2646 15.0551V18.418C21.2646 18.7184 21.0653 18.9038 20.767 18.9038H20.4346C20.1438 18.9038 19.9424 18.7184 19.9424 18.418V17.6164C19.8785 17.6281 19.6867 17.6302 19.5419 17.6302H8.67041C8.52557 17.6302 8.33385 17.6281 8.26986 17.6164V18.418C8.26986 18.7184 8.06854 18.9038 7.77768 18.9038H7.44533C7.15658 18.9038 6.94775 18.7184 6.94775 18.418ZM8.32752 12.5112V10.9192C8.32752 9.87502 8.88369 9.33057 9.91072 9.33057H18.3016C19.3286 9.33057 19.8944 9.87502 19.8944 10.9192V12.5112H18.4464V11.747C18.4464 11.2121 18.1513 10.9138 17.5685 10.9138H15.6194C15.0557 10.9138 14.7649 11.2121 14.7649 11.747V12.5112H13.5051V11.747C13.5051 11.2121 13.2142 10.9138 12.6794 10.9138H10.6129C10.0589 10.9138 9.77549 11.2121 9.77549 11.747V12.5112H8.32752Z" fill="white"/>
</svg>
