<svg width="28" height="28" viewBox="0 0 28 28" fill="none" xmlns="http://www.w3.org/2000/svg">
<path d="M2 11.5372C2 16.801 6.27757 21.0765 11.5393 21.0765C13.4961 21.0765 15.2919 20.4751 16.7891 19.46L22.1729 24.8534C22.5099 25.1905 22.9564 25.351 23.4263 25.351C24.4236 25.351 25.1368 24.5973 25.1368 23.6117C25.1368 23.1481 24.9666 22.7155 24.6446 22.3935L19.3022 17.0202C20.4207 15.4815 21.0786 13.5898 21.0786 11.5372C21.0786 6.27547 16.801 2 11.5393 2C6.27757 2 2 6.27547 2 11.5372ZM4.48482 11.5372C4.48482 7.64491 7.64702 4.48482 11.5393 4.48482C15.4316 4.48482 18.5916 7.64491 18.5916 11.5372C18.5916 15.4316 15.4316 18.5916 11.5393 18.5916C7.64702 18.5916 4.48482 15.4316 4.48482 11.5372ZM7.60039 11.5372C7.60039 12.0493 8.00281 12.4517 8.51491 12.4517H10.6227V14.5637C10.6227 15.0737 11.0251 15.4782 11.5393 15.4782C12.0514 15.4782 12.4613 15.0737 12.4613 14.5637V12.4517H14.5616C15.0737 12.4517 15.4761 12.0493 15.4761 11.5372C15.4761 11.0272 15.0737 10.6152 14.5616 10.6152H12.4613V8.51491C12.4613 8.00492 12.0472 7.6025 11.5372 7.6025C11.0251 7.6025 10.6227 8.00492 10.6227 8.51491V10.6152H8.51491C8.00281 10.6152 7.60039 11.0272 7.60039 11.5372Z" fill="black"/>
</svg>
