<svg width="28" height="28" viewBox="0 0 28 28" fill="none" xmlns="http://www.w3.org/2000/svg">
<path d="M14.105 26.21C20.7369 26.21 26.2121 20.7273 26.2121 14.105C26.2121 7.47312 20.7273 2 14.0954 2C7.47523 2 2 7.47312 2 14.105C2 20.7273 7.48484 26.21 14.105 26.21ZM14.105 23.8255C8.71085 23.8255 4.39412 19.4991 4.39412 14.105C4.39412 8.71085 8.70124 4.38452 14.0954 4.38452C19.4895 4.38452 23.8276 8.71085 23.8276 14.105C23.8276 19.4991 19.4991 23.8255 14.105 23.8255Z" fill="black"/>
<path d="M9.30029 18.946H18.8905C20.0855 18.946 20.7127 18.3284 20.7127 17.1355V12.8963H7.47803V17.1355C7.47803 18.3284 8.10732 18.946 9.30029 18.946ZM9.80889 17.1692C9.48287 17.1692 9.26232 16.9529 9.26232 16.6386V15.6008C9.26232 15.2865 9.48287 15.068 9.80889 15.068H11.1823C11.5062 15.068 11.7268 15.2865 11.7268 15.6008V16.6386C11.7268 16.9529 11.5062 17.1692 11.1823 17.1692H9.80889ZM7.47803 11.5904H20.7127V11.0841C20.7127 9.90077 20.0855 9.2832 18.8905 9.2832H9.30029C8.10732 9.2832 7.47803 9.89116 7.47803 11.0841V11.5904Z" fill="black"/>
</svg>
