<svg width="28" height="28" viewBox="0 0 28 28" fill="none" xmlns="http://www.w3.org/2000/svg">
<path d="M6.49632 25.4727L19.8416 27.8324C22.3694 28.2775 23.9364 26.8403 23.9364 24.0932V9.65194C23.9364 7.1221 22.6827 6.14734 20.1287 5.69594L7.19241 3.42039C5.2846 3.08078 4 4.16101 4 6.04843V22.5911C4 24.2007 4.85359 25.1842 6.49632 25.4727ZM7.17483 23.196C6.60459 23.0969 6.34443 22.7591 6.34443 22.1908V6.59896C6.34443 6.00318 6.74311 5.69732 7.39866 5.79646L19.9612 8.01271C21.0224 8.20045 21.5898 8.65256 21.5898 9.6285V23.859C21.5898 25.0389 20.9008 25.633 19.7786 25.4261L7.17483 23.196ZM20.6692 7.57092H22.8913V4.63889C22.8913 2.01226 21.1103 0.737027 18.1579 1.25874L5.92656 3.41289L6.68241 5.37413L18.8849 3.3278C19.9851 3.14123 20.6692 3.59545 20.6692 4.54327V7.57092ZM7.84186 11.2321C7.84186 12.286 9.48881 12.286 9.48881 11.2928V9.7731C9.48881 9.48623 9.65943 9.35826 9.98686 9.41263L11.4346 9.6749C12.5087 9.86333 12.729 8.25154 11.7751 8.07693L9.29475 7.63795C8.39147 7.4835 7.84186 7.88709 7.84186 8.75521V11.2321ZM18.4455 13.0283C18.4455 14.0865 20.0945 14.1824 20.0945 13.0283V11.1156C20.0945 10.0089 19.5651 9.44756 18.2516 9.21319L17.0223 9.00014C15.8779 8.79787 15.6053 10.3979 16.7392 10.5981L17.7013 10.7739C18.34 10.8805 18.4455 11.2496 18.4455 11.6033V13.0283ZM9.48881 18.3426C9.48881 17.2844 7.84186 17.1885 7.84186 18.3426V20.2532C7.84186 21.362 8.3692 21.9212 9.68475 22.1577L10.9119 22.3708C12.0585 22.5709 12.329 20.9633 11.1951 20.7707L10.233 20.597C9.59639 20.4904 9.48881 20.1212 9.48881 19.7676V18.3426ZM20.0945 20.1388C20.0945 19.0848 18.4455 19.0848 18.4455 20.0781V21.5978C18.4455 21.8847 18.2748 22.0105 17.9495 21.9583L16.4997 21.696C15.4277 21.5076 15.2052 23.1194 16.1612 23.2919L18.6395 23.7308C19.5428 23.8853 20.0945 23.4838 20.0945 22.6157V20.1388Z" fill="black"/>
</svg>
