<svg width="28" height="28" viewBox="0 0 28 28" fill="none" xmlns="http://www.w3.org/2000/svg">
<path d="M14.1188 19.5739C17.1249 19.5643 19.5622 17.1228 19.5622 14.1008C19.5622 11.1256 17.1132 8.67664 14.1284 8.67664C11.132 8.67664 8.66164 11.1256 8.66164 14.1008C8.66164 17.1228 11.1085 19.5835 14.1188 19.5739ZM14.1188 18.3132C11.7985 18.3132 9.92023 16.4403 9.92023 14.1008C9.92023 11.8252 11.8123 9.93523 14.1188 9.93523C16.4211 9.93523 18.3036 11.8156 18.3036 14.1008C18.3036 16.4211 16.4349 18.3132 14.1188 18.3132ZM14.1188 17.0035C15.6943 17.0035 16.9939 15.7039 16.9939 14.1125C16.9939 12.5466 15.6943 11.2449 14.1188 11.2449C12.5295 11.2449 11.2278 12.5466 11.2278 14.1221C11.2278 15.7039 12.5295 17.0035 14.1188 17.0035ZM14.1188 15.5698C13.3065 15.5602 12.6711 14.9248 12.6711 14.1146C12.6711 13.3449 13.3065 12.6807 14.1284 12.6807C14.9077 12.6807 15.5527 13.3353 15.5527 14.1146C15.5527 14.9248 14.9077 15.5795 14.1188 15.5698ZM9.66172 16.1077L9.44492 14.9199L2.87891 16.888L3.20586 18.0535L9.66172 16.1077ZM10.412 17.5857L9.77281 16.6665L4.41289 20.6044L5.07922 21.5112L10.412 17.5857ZM13.3369 18.9404L12.196 18.5492L10.2186 25.1823L11.3841 25.5188L13.3369 18.9404ZM14.8944 9.39125L16.0737 9.6821L18.0031 3.18571L16.8355 2.84914L14.8944 9.39125ZM17.7556 10.828L18.4749 11.6785L23.8088 7.74429L23.1404 6.85672L17.7556 10.828ZM18.5485 12.2548L18.8494 13.4117L25.4398 11.4631L25.1129 10.2858L18.5485 12.2548ZM14.105 26.21C20.7369 26.21 26.2121 20.7273 26.2121 14.105C26.2121 7.47312 20.7273 2 14.0954 2C7.47523 2 2 7.47312 2 14.105C2 20.7273 7.48484 26.21 14.105 26.21ZM14.105 23.8255C8.71085 23.8255 4.39412 19.4991 4.39412 14.105C4.39412 8.71085 8.70124 4.38452 14.0954 4.38452C19.4895 4.38452 23.8276 8.71085 23.8276 14.105C23.8276 19.4991 19.4991 23.8255 14.105 23.8255Z" fill="black"/>
</svg>
