<svg width="37" height="28" viewBox="0 0 37 28" fill="none" xmlns="http://www.w3.org/2000/svg">
<path d="M12.063 11.7879C12.063 12.3457 12.5187 12.8109 13.0765 12.8109H23.5369C24.0947 12.8109 24.5482 12.3457 24.5482 11.7879C24.5482 11.2418 24.0905 10.7787 23.5369 10.7787H13.0765C12.5208 10.7787 12.063 11.2418 12.063 11.7879ZM12.063 16.2002C12.063 16.7538 12.5208 17.2094 13.0765 17.2094H23.5369C24.0905 17.2094 24.5482 16.7538 24.5482 16.2002C24.5482 15.6424 24.0947 15.1772 23.5369 15.1772H13.0765C12.5187 15.1772 12.063 15.6424 12.063 16.2002ZM0 12.9501C0 16.8016 2.82234 19.4974 7.05374 19.5417L7.95256 19.5564V17.3913L6.86624 17.3765C4.06288 17.3554 2.16514 15.5076 2.16514 12.9501C2.16514 11.7211 2.82491 10.9601 4.00077 10.9601H7.44678V8.79492H4.00077C1.49273 8.79492 0 10.3793 0 12.9501ZM36.5857 12.9501C36.5857 10.3793 35.1004 8.79492 32.5849 8.79492H29.1389V10.9601H32.5849C33.7587 10.9601 34.4205 11.7211 34.4205 12.9501C34.4205 15.5076 32.5228 17.3554 29.7173 17.3765L28.631 17.3913V19.5564L29.5415 19.5417C33.7633 19.4974 36.5857 16.8016 36.5857 12.9501Z" fill="black"/>
<path d="M18.2998 23.4891C25.462 23.4891 30.5191 20.6872 30.5191 16.5816V10.7222C30.5191 7.07585 26.1138 5 18.2998 5C10.4761 5 6.0708 7.07585 6.0708 10.7222V16.5816C6.0708 20.6872 11.1279 23.4891 18.2998 23.4891ZM18.2998 21.2438C12.5306 21.2438 8.32782 19.2247 8.32782 16.5816V10.7222C8.32782 8.5067 11.9165 7.24741 18.2998 7.24741C24.6733 7.24741 28.2717 8.5067 28.2717 10.7222V16.5816C28.2717 19.2247 24.0593 21.2438 18.2998 21.2438Z" fill="black"/>
</svg>
