<svg width="28" height="28" viewBox="0 0 28 28" fill="none" xmlns="http://www.w3.org/2000/svg">
<path d="M7.80577 26.3655H20.2891C22.8013 26.3655 24.0948 25.0506 24.0948 22.5287V12.0379H15.3341C13.8679 12.0379 13.1552 11.3251 13.1552 9.85679V1H7.80577C5.30523 1 4 2.32445 4 4.84632V22.5287C4 25.0602 5.29562 26.3655 7.80577 26.3655ZM15.5423 10.3248H23.9669C23.905 9.80008 23.5166 9.29336 22.9077 8.67273L16.5098 2.17656C15.921 1.58031 15.4026 1.19406 14.8682 1.12047V9.66039C14.8682 10.1034 15.0897 10.3248 15.5423 10.3248Z" fill="black"/>
<path d="M10.5427 22.6837V18.8589C10.5427 18.1832 10.8113 17.8433 11.3656 17.7913V16.6752C11.3656 14.8799 12.4566 13.6738 14.0569 13.6738C15.6593 13.6738 16.7504 14.8799 16.7504 16.6752V17.7934C17.3026 17.8433 17.5808 18.1832 17.5808 18.8589V22.6837C17.5808 23.4358 17.2484 23.7852 16.5495 23.7852H11.5686C10.873 23.7852 10.5427 23.4358 10.5427 22.6837ZM12.5077 17.7712H15.6061V16.5803C15.6061 15.4919 14.9888 14.7754 14.0548 14.7754C13.123 14.7754 12.5077 15.494 12.5077 16.5803V17.7712Z" fill="white"/>
</svg>
