<svg width="35" height="28" viewBox="0 0 35 28" fill="none" xmlns="http://www.w3.org/2000/svg">
<path d="M0 14.4455C0 16.8846 1.72336 18.2245 3.65976 18.2245C4.46718 18.2245 5.07539 17.9976 5.78812 17.5566C6.47507 17.1401 6.96398 17.3862 6.96398 17.9773V22.2141C6.96398 24.6344 8.25023 25.8855 10.6941 25.8855H13.7133C14.2948 25.8855 14.5387 25.4041 14.1319 24.7172C13.6833 24.0066 13.4543 23.3962 13.4543 22.5909C13.4543 20.6524 14.8038 18.9312 17.2451 18.9312C19.6863 18.9312 21.0262 20.6524 21.0262 22.5909C21.0262 23.3962 20.7973 24.0066 20.3583 24.7172C19.9514 25.4041 20.1858 25.8855 20.7769 25.8855H23.7961C26.2399 25.8855 27.5262 24.6344 27.5262 22.2141V17.9773C27.5262 17.3862 28.0151 17.1401 28.6924 17.5566C29.4147 17.9976 30.0229 18.2245 30.8208 18.2245C32.7668 18.2245 34.4901 16.8846 34.4901 14.4455C34.4901 11.9946 32.7668 10.6547 30.8208 10.6547C30.0229 10.6547 29.4147 10.8816 28.6924 11.3226C28.0151 11.7391 27.5262 11.493 27.5262 10.9019V6.66937C27.5262 4.2607 26.2399 3 23.7961 3H20.7769C20.1858 3 19.9514 3.48891 20.3583 4.17586C20.7973 4.88648 21.0262 5.4968 21.0262 6.30211C21.0262 8.24062 19.6863 9.96398 17.2451 9.96398C14.8038 9.96398 13.4543 8.24062 13.4543 6.30211C13.4543 5.4968 13.6833 4.88648 14.1319 4.17586C14.5387 3.48891 14.2948 3 13.7133 3H10.6941C8.25023 3 6.96398 4.2607 6.96398 6.66937V10.9019C6.96398 11.493 6.47507 11.7391 5.78812 11.3226C5.07539 10.8816 4.46718 10.6547 3.65976 10.6547C1.72336 10.6547 0 11.9946 0 14.4455Z" fill="black"/>
</svg>
