<svg width="28" height="28" viewBox="0 0 28 28" fill="none" xmlns="http://www.w3.org/2000/svg">
<path d="M4.49265 27.4076H9.06999C11.2797 27.4076 12.474 26.2345 12.474 24.0621V3.33585C12.474 1.16343 11.2797 0 9.06999 0H4.49265C2.2232 0 1 1.16343 1 3.33585V24.0621C1 26.2345 2.2232 27.4076 4.49265 27.4076ZM4.5414 25.1602C3.80429 25.1602 3.24741 24.6417 3.24741 23.9388V3.45913C3.24741 2.75624 3.80429 2.24741 4.5414 2.24741H9.02124C9.71991 2.24741 10.2287 2.75624 10.2287 3.45913V23.9388C10.2287 24.6417 9.71991 25.1602 9.02124 25.1602H4.5414ZM2.00219 10.638H11.4719V8.39062H2.00219V10.638ZM2.00219 19.0169H11.4719V16.7695H2.00219V19.0169ZM11.0734 4.71165L11.9373 7.69195L14.0193 4.09194C14.3659 3.48397 15.1105 3.31757 15.7548 3.69093L19.634 5.93085C20.2281 6.27538 20.4062 6.96984 20.0596 7.58742L10.0412 24.9384L12.0046 26.0383L22.0623 8.60108C23.1496 6.71835 22.7036 5.12273 20.7974 4.02375L16.8271 1.72547C14.8633 0.583833 13.2229 0.98719 12.1377 2.86781L11.0734 4.71165ZM12.0554 11.2378L17.5614 14.4197L18.6803 12.4807L12.0554 8.65429V11.2378ZM11.7308 20.7248L13.3661 21.6853L14.4946 19.7346L11.7899 18.173L11.7308 20.7248ZM21.0653 7.74141L20.2225 10.7255L21.4485 10.0209C22.0565 9.66468 22.784 9.89085 23.1552 10.5352L25.393 14.4047C25.7376 15.0105 25.5423 15.7146 24.944 16.0613L13.7087 22.542L11.6228 26.3402L26.1702 17.9524C28.0412 16.8651 28.4596 15.2386 27.3606 13.3324L25.0719 9.37172C24.1295 7.7243 22.7978 7.0929 21.3264 7.62094L21.0653 7.74141ZM16.9452 16.5501L19.3548 20.7227L21.2959 19.6038L18.246 14.3133L16.9452 16.5501Z" fill="black"/>
</svg>
