<svg width="28" height="28" viewBox="0 0 28 28" fill="none" xmlns="http://www.w3.org/2000/svg">
<path d="M13.961 4.46918C16.0533 4.46918 17.8411 5.9645 17.839 8.7163L17.8348 11.6746H13.8425L15.9549 13.7752H19.122C19.6186 13.7752 19.883 14.0588 19.883 14.6141V17.7034L22.1653 19.9761V14.5342C22.1653 12.8453 21.4252 11.9005 20.0217 11.7173L20.0239 8.92443C20.0281 4.60044 17.1621 2.37061 13.961 2.37061C11.5132 2.37061 9.28854 3.69178 8.3951 6.21764L10.1566 7.98669C10.4297 5.71817 12.0469 4.46918 13.961 4.46918ZM8.47901 25.7096H19.4527C20.0119 25.7096 20.487 25.587 20.8395 25.3728L18.9411 23.4744C18.8579 23.5513 18.732 23.6089 18.589 23.6089H8.81181C8.32478 23.6089 8.04658 23.3115 8.04658 22.7584V14.6141C8.04658 14.0588 8.32478 13.7752 8.81181 13.7752H9.23017L7.3498 11.8949H7.26331C6.30448 12.2366 5.76636 13.1378 5.76636 14.5342V22.8341C5.76636 24.7552 6.69729 25.7096 8.47901 25.7096Z" fill="black"/>
<path d="M23.9345 26.4172C24.3062 26.7793 24.9016 26.7814 25.2541 26.4172C25.6141 26.0551 25.6258 25.4619 25.2541 25.0998L4.60283 4.45066C4.23861 4.08644 3.63369 4.08644 3.27158 4.45066C2.90947 4.81277 2.90947 5.4198 3.27158 5.77019L23.9345 26.4172Z" fill="black"/>
</svg>
