<svg width="28" height="28" viewBox="0 0 28 28" fill="none" xmlns="http://www.w3.org/2000/svg">
<path d="M14.105 26.21C20.7369 26.21 26.2121 20.7273 26.2121 14.105C26.2121 7.47312 20.7273 2 14.0954 2C7.47523 2 2 7.47312 2 14.105C2 20.7273 7.48484 26.21 14.105 26.21ZM14.105 23.8255C8.71085 23.8255 4.39412 19.4991 4.39412 14.105C4.39412 8.71085 8.70124 4.38452 14.0954 4.38452C19.4895 4.38452 23.8276 8.71085 23.8276 14.105C23.8276 19.4991 19.4991 23.8255 14.105 23.8255Z" fill="black"/>
<path d="M10.9203 9.1958C9.73109 9.1958 8.48328 9.74986 7.96203 10.6623C7.88117 10.7964 7.87695 10.8772 7.87695 11.0975V18.5771C7.87695 18.86 8.06 19.0409 8.35578 19.0409C8.52593 19.0409 8.65695 18.9877 8.8046 18.8771C9.43671 18.3556 10.28 18.0591 11.1554 18.0591C11.9239 18.0591 12.6615 18.3118 13.2828 18.8159C13.3552 18.8766 13.4084 18.9118 13.4809 18.9118C13.6023 18.9118 13.7077 18.8063 13.7077 18.6753V10.73C13.7077 10.6011 13.6939 10.565 13.5905 10.4052C13.0747 9.66244 12.0519 9.1958 10.9203 9.1958ZM17.278 9.1958C16.1464 9.1958 15.1332 9.66244 14.6077 10.4052C14.5065 10.565 14.5001 10.6011 14.5001 10.73V18.6753C14.5001 18.8063 14.596 18.9118 14.7195 18.9118C14.7898 18.9118 14.8526 18.8766 14.9176 18.8159C15.5368 18.3118 16.2861 18.0591 17.045 18.0591C17.93 18.0591 18.7712 18.3556 19.4033 18.8771C19.5509 18.9877 19.6745 19.0409 19.8425 19.0409C20.1383 19.0409 20.333 18.86 20.333 18.5771V11.0975C20.333 10.8772 20.3171 10.7867 20.2362 10.6623C19.715 9.74986 18.4693 9.1958 17.278 9.1958Z" fill="black"/>
</svg>
