<svg width="28" height="28" viewBox="0 0 28 28" fill="none" xmlns="http://www.w3.org/2000/svg">
<path d="M9.59734 19.4704H12.9194C13.0143 19.4704 13.0996 19.4992 13.1774 19.5695L18.3234 24.1773C18.9344 24.7213 19.4017 24.9747 20.0191 24.9747C20.882 24.9747 21.5289 24.3395 21.5289 23.4744V5.57171C21.5289 4.70664 20.882 4.01172 19.9998 4.01172C19.393 4.01172 18.9866 4.28008 18.3234 4.86883L13.1774 9.4361C13.0975 9.5043 13.0143 9.53524 12.9194 9.53524H9.59734C7.87914 9.53524 7 10.4366 7 12.2561V16.7612C7 18.5786 7.87914 19.4704 9.59734 19.4704ZM9.79538 17.4072C9.39647 17.4072 9.20991 17.2185 9.20991 16.8313V12.1839C9.20991 11.7892 9.39647 11.6005 9.79538 11.6005H13.4589C13.7783 11.6005 14.0094 11.5356 14.279 11.2895L18.9695 7.01803C19.026 6.96154 19.0942 6.9306 19.1624 6.9306C19.2487 6.9306 19.319 6.99131 19.319 7.09888V21.88C19.319 21.9876 19.2487 22.0621 19.1624 22.0621C19.1038 22.0621 19.0356 22.027 18.9791 21.9705L14.279 17.7182C14.0094 17.4796 13.7783 17.4072 13.4589 17.4072H9.79538Z" fill="black"/>
</svg>
