<svg width="28" height="28" viewBox="0 0 28 28" fill="none" xmlns="http://www.w3.org/2000/svg">
<path d="M14.105 26.21C20.7369 26.21 26.2121 20.7273 26.2121 14.105C26.2121 7.47312 20.7273 2 14.0954 2C7.47523 2 2 7.47312 2 14.105C2 20.7273 7.48484 26.21 14.105 26.21ZM14.105 23.8255C8.71085 23.8255 4.39412 19.4991 4.39412 14.105C4.39412 8.71085 8.70124 4.38452 14.0954 4.38452C19.4895 4.38452 23.8276 8.71085 23.8276 14.105C23.8276 19.4991 19.4991 23.8255 14.105 23.8255Z" fill="black"/>
<path d="M9.47687 19.3598H18.8838C19.9371 19.3598 20.5537 18.7411 20.5537 17.5725V12.8796H7.65649V17.5725C7.65649 18.7411 8.28484 19.3598 9.47687 19.3598ZM7.65649 11.9135H20.5537V11.4293C20.5537 10.2565 19.9274 9.64197 18.7354 9.64197H13.4463C13.034 9.64197 12.8146 9.5344 12.5165 9.2958L12.1785 9.03986C11.7813 8.73939 11.5063 8.62549 10.9483 8.62549H9.28258C8.26234 8.62549 7.65649 9.22924 7.65649 10.3711V11.9135Z" fill="black"/>
</svg>
