<svg width="29" height="29" viewBox="0 0 29 29" fill="none" xmlns="http://www.w3.org/2000/svg">
<path d="M8.7119 16.8414L10.0478 15.5648L2.54406 8.02371C1.71391 7.19355 1.72563 6.37253 2.53141 5.55503L4.28711 3.78761C5.08539 2.97972 5.92985 2.98934 6.75789 3.80778L14.7792 11.8216L16.0776 10.5128L8.18453 2.56957C6.44992 0.84458 4.59297 0.836143 2.90735 2.52176L1.25595 4.17739C-0.429675 5.86301 -0.423347 7.71362 1.30376 9.44073L8.7119 16.8414ZM8.22228 11.7131C8.43181 11.9226 8.7679 11.9184 8.96571 11.7152C9.16774 11.5174 9.17735 11.1909 8.96782 10.9813L4.69047 6.69972C4.50438 6.52113 4.16289 6.50613 3.95336 6.69761C3.75134 6.91464 3.73962 7.25495 3.94915 7.45698L8.22228 11.7131ZM9.70165 10.2433C9.90157 10.4528 10.259 10.4294 10.4451 10.2454C10.6567 10.0188 10.6588 9.69013 10.4589 9.4881L6.17945 5.22035C5.97414 5.01504 5.64438 5.02465 5.45407 5.21824C5.24032 5.42355 5.24993 5.75636 5.44774 5.95628L9.70165 10.2433ZM24.6761 28.1587L26.9045 25.9303C27.1907 25.6345 27.1598 25.2004 26.898 24.7971L24.4298 21.1049C24.1647 20.7121 23.7559 20.4374 23.3024 20.3704L22.2731 20.2085L16.8911 14.8286L15.6198 16.2513L21.4752 22.0832L22.7877 22.3038L24.948 25.1833L23.9153 26.216L21.0496 24.0515L20.8174 22.7411L15.0121 16.9284L13.7334 18.3393L18.9426 23.5389L19.1046 24.5662C19.1695 25.0218 19.458 25.4327 19.837 25.6839L23.545 28.1852C23.958 28.4545 24.3782 28.4587 24.6761 28.1587Z" fill="black"/>
<path d="M2.01526 26.7421C4.09651 28.7999 6.90291 28.7875 8.91736 26.7613C11.4575 24.1999 11.3958 20.8818 19.2622 13.1456L18.038 11.9139C9.33947 20.6414 10.3477 22.6284 7.56174 25.4165C6.33057 26.6552 4.66135 26.6964 3.34838 25.4069C2.04712 24.0822 2.10009 22.4247 3.31955 21.1956C6.1269 18.4 8.11181 19.4137 16.8296 10.7151L15.6097 9.49098C7.82493 17.4058 4.55331 17.2956 1.99182 19.8262C-0.0439579 21.8406 -0.0563785 24.6567 2.01526 26.7421ZM5.4226 24.7523C6.19205 24.7523 6.82088 24.1213 6.82088 23.354C6.82088 22.5867 6.19205 21.9632 5.4226 21.9632C4.65525 21.9632 4.03181 22.5867 4.03181 23.354C4.03181 24.1213 4.65525 24.7523 5.4226 24.7523ZM16.4984 12.2493C19.2179 14.9709 23.5606 15.0688 26.1938 12.4431C28.3728 10.2663 28.715 6.80528 27.0139 4.05935L25.6937 5.38918C26.7012 7.35418 26.3984 9.6684 24.9087 11.1677C22.9937 13.0828 19.8158 12.989 17.7835 10.9738C15.7566 8.94911 15.6767 5.7541 17.6014 3.84863C19.0911 2.35683 21.432 2.05402 23.3469 3.0712L24.6767 1.74137C21.95 0.0519996 18.5007 0.384579 16.3238 2.57106C13.6981 5.18715 13.7844 9.52777 16.4984 12.2493ZM20.0956 6.96863L21.8047 8.66176C22.6803 9.53527 23.8062 9.55871 24.635 8.72035L27.155 6.19285L26.0225 5.06997L23.7948 7.27638C23.4952 7.5738 23.1411 7.59091 22.8244 7.27848L21.5002 5.94887C21.1794 5.6184 21.1526 5.25254 21.4501 4.9509L23.6949 2.72316L22.5357 1.59278L20.0349 4.10317C19.1656 4.96496 19.189 6.0834 20.0956 6.96863Z" fill="black"/>
</svg>
