<svg width="28" height="28" viewBox="0 0 28 28" fill="none" xmlns="http://www.w3.org/2000/svg">
<path d="M3.56468 25.09C3.93991 25.09 4.29311 24.955 4.74826 24.6998L10.4748 21.6112L16.7211 25.1048C17.202 25.3729 17.7139 25.5049 18.2087 25.5049C18.6863 25.5049 19.1661 25.3804 19.5915 25.139L25.4419 21.8273C26.2484 21.3836 26.6028 20.7473 26.6028 19.8609V4.12002C26.6028 3.13893 26.0148 2.55722 25.0381 2.55722C24.6629 2.55722 24.3118 2.69526 23.8449 2.9505L17.904 6.25355L11.7369 2.52417C11.3019 2.27526 10.8221 2.14331 10.3402 2.14331C9.86563 2.14331 9.39102 2.27104 8.97922 2.5094L3.15124 5.81152C2.35437 6.26691 2 6.88636 2 7.77065V23.5261C2 24.5093 2.58804 25.09 3.56468 25.09ZM9.44305 19.5349L4.58608 22.207C4.51061 22.241 4.43936 22.2761 4.37444 22.2761C4.24694 22.2761 4.17358 22.1763 4.17358 22.0212V8.36268C4.17358 8.03291 4.28538 7.8358 4.60038 7.65276L9.05703 5.06173C9.19672 4.98603 9.31297 4.92205 9.44305 4.84634V19.5349ZM11.6462 19.6043V5.12618C11.7634 5.19439 11.9019 5.26681 12.0191 5.33501L16.9566 8.31158V22.5762C16.801 22.4887 16.6358 22.4088 16.4705 22.3214L11.6462 19.6043ZM19.1598 22.7512V8.10792L24.0125 5.45713C24.0795 5.41775 24.1466 5.39431 24.2019 5.39431C24.3411 5.39431 24.4292 5.49416 24.4292 5.64087V19.2424C24.4292 19.5797 24.3057 19.781 24.0024 19.9598L19.6913 22.454C19.5155 22.5595 19.3355 22.665 19.1598 22.7512Z" fill="black"/>
</svg>
