<svg width="30" height="28" viewBox="0 0 30 28" fill="none" xmlns="http://www.w3.org/2000/svg">
<path d="M2.58773 19.4704H5.91726C6.01218 19.4704 6.09749 19.4992 6.17531 19.5695L11.3234 24.1773C11.9323 24.7213 12.4017 24.9747 13.0169 24.9747C13.8724 24.9747 14.5289 24.3395 14.5289 23.4744V5.57171C14.5289 4.70664 13.8724 4.01172 12.9977 4.01172C12.3909 4.01172 11.977 4.28008 11.3234 4.86883L6.17531 9.4361C6.09538 9.5043 6.01218 9.53524 5.91726 9.53524H2.58773C0.869528 9.53524 0 10.4366 0 12.2561V16.7612C0 18.5786 0.879137 19.4704 2.58773 19.4704ZM2.78366 17.4072C2.39647 17.4072 2.20991 17.2185 2.20991 16.8313V12.1839C2.20991 11.7892 2.39647 11.6005 2.78366 11.6005H6.44929C6.76663 11.6005 7.00733 11.5356 7.27686 11.2895L11.9695 7.01803C12.0239 6.96154 12.0825 6.9306 12.1624 6.9306C12.2466 6.9306 12.319 6.99131 12.319 7.09888V21.88C12.319 21.9876 12.2466 22.0621 12.1624 22.0621C12.1017 22.0621 12.0335 22.027 11.9695 21.9705L7.27686 17.7182C7.00733 17.4796 6.76663 17.4072 6.44929 17.4072H2.78366Z" fill="black"/>
<path d="M19.0965 15.584H27.9887C28.6892 15.584 29.1863 15.1712 29.1863 14.4953C29.1863 13.8098 28.7202 13.3874 27.9887 13.3874H19.0965C18.3767 13.3874 17.8892 13.8098 17.8892 14.4953C17.8892 15.1712 18.3959 15.584 19.0965 15.584Z" fill="black"/>
</svg>
