<svg width="33" height="32" viewBox="0 0 33 32" fill="none" xmlns="http://www.w3.org/2000/svg">
<path d="M16.1789 18.2953C17.2078 18.3091 18.2398 18.0429 19.5115 17.4677L31.0966 12.1732C31.9258 11.7942 32.3695 11.0576 32.3695 10.2722C32.3695 9.49643 31.9258 8.75983 31.0966 8.37873L19.5115 3.08417C18.2398 2.50902 17.2078 2.24488 16.1789 2.2566C15.1617 2.24488 14.1298 2.50902 12.8484 3.08417L1.27078 8.37873C0.44367 8.75983 0 9.49643 0 10.2722C0 11.0576 0.44367 11.7942 1.27078 12.1732L12.8484 17.4677C14.1298 18.0429 15.1617 18.3091 16.1789 18.2953ZM16.1789 16.0366C15.435 16.0366 14.7091 15.8438 13.7278 15.3952L3.26177 10.6348C3.06771 10.5495 2.98239 10.4236 2.98239 10.2722C2.98239 10.1304 3.06771 10.0024 3.26177 9.91713L13.7278 5.15674C14.7091 4.71025 15.435 4.51525 16.1789 4.51525C16.9345 4.51525 17.6508 4.71025 18.6396 5.15674L29.1077 9.91713C29.2922 10.0024 29.3871 10.1304 29.3871 10.2722C29.3871 10.4236 29.2922 10.5495 29.1077 10.6348L18.6396 15.3952C17.6508 15.8438 16.9345 16.0366 16.1789 16.0366ZM4.60617 18.9834C4.60617 22.6898 9.29765 25.6652 16.1789 25.6652C23.0719 25.6652 27.7633 22.6898 27.7633 18.9834V12.8508H25.537V18.9834C25.537 21.3715 21.8234 23.5603 16.1789 23.5603C10.5462 23.5603 6.83248 21.3715 6.83248 18.9834V12.8508H4.60617V18.9834ZM16.2194 11.7558C17.5568 11.7558 18.8346 11.133 18.8346 10.2722C18.8346 9.42843 17.5547 8.82163 16.2194 8.82163C14.8917 8.82163 13.5905 9.43273 13.5905 10.2722C13.5905 11.133 14.8896 11.7558 16.2194 11.7558ZM9.38342 14.6048L15.9762 11.1509L15.2114 9.78983L7.66592 13.6929L9.38342 14.6048ZM7.66592 26.0651L9.38342 26.0672V14.6048L7.66592 13.7431V26.0651ZM6.64101 26.3416V29.4827C6.64101 30.4781 7.28928 31.1264 8.28467 31.1264H8.75295C9.74834 31.1264 10.3966 30.4781 10.3966 29.4827V26.3416C10.3966 25.3463 9.74834 24.698 8.75295 24.698H8.28467C7.28928 24.698 6.64101 25.3463 6.64101 26.3416Z" fill="black"/>
</svg>
