<svg width="28" height="28" viewBox="0 0 28 28" fill="none" xmlns="http://www.w3.org/2000/svg">
<path d="M14.105 26.2301C20.7369 26.2301 26.2121 20.7549 26.2121 14.123C26.2121 7.50291 20.7273 2.01807 14.0954 2.01807C7.47523 2.01807 2 7.50291 2 14.123C2 20.7549 7.48484 26.2301 14.105 26.2301Z" fill="black"/>
<path d="M11.1039 21.1679C10.2266 21.1679 9.71873 20.6919 9.69108 19.8167L9.27342 10.5211H8.36287C8.03944 10.5211 7.77342 10.2753 7.77764 9.95394C7.78186 9.61878 8.03944 9.36753 8.36287 9.36753H11.1405V8.48347C11.1405 7.45573 11.822 6.80066 12.9421 6.80066H15.2488C16.3827 6.80066 17.0718 7.45573 17.0718 8.48347V9.36753H19.8398C20.177 9.36753 20.4346 9.61878 20.425 9.95394C20.4154 10.2753 20.177 10.5211 19.8398 10.5211H18.9602L18.55 19.8167C18.5106 20.6919 17.9878 21.1679 17.1159 21.1679H11.1039ZM12.052 19.3013C12.3203 19.3013 12.4949 19.1192 12.4928 18.8743L12.2669 11.963C12.2648 11.6925 12.0731 11.5221 11.8206 11.5221C11.5213 11.5221 11.3626 11.6946 11.3647 11.9672L11.5982 18.8764C11.6003 19.1213 11.7995 19.3013 12.052 19.3013ZM14.0997 19.3013C14.3756 19.3013 14.5556 19.1213 14.5556 18.8764V11.9567C14.5556 11.6904 14.3756 11.5221 14.0997 11.5221C13.81 11.5221 13.6417 11.6904 13.6417 11.9567V18.8764C13.6417 19.1213 13.8196 19.3013 14.0997 19.3013ZM16.1336 19.3013C16.386 19.3013 16.5853 19.1213 16.5874 18.8764L16.8208 11.9672C16.8229 11.6946 16.6642 11.5221 16.3767 11.5221C16.1125 11.5221 15.9304 11.6925 15.9187 11.963L15.6928 18.8743C15.6906 19.1192 15.8653 19.3013 16.1336 19.3013ZM12.4511 9.36753H15.7441V8.5348C15.7441 8.22894 15.5214 8.02222 15.1954 8.02222H12.9998C12.6759 8.02222 12.4511 8.22894 12.4511 8.5348V9.36753Z" fill="white"/>
</svg>
