<svg width="28" height="28" viewBox="0 0 28 28" fill="none" xmlns="http://www.w3.org/2000/svg">
<path d="M6.84421 24.8972H21.0295C23.5685 24.8972 24.8737 23.5919 24.8737 21.0914V6.82921C24.8737 4.32656 23.5685 3.02344 21.0295 3.02344H6.84421C4.31484 3.02344 3 4.31695 3 6.82921V21.0914C3 23.6016 4.31484 24.8972 6.84421 24.8972ZM6.97733 22.6013C5.88772 22.6013 5.29592 22.0371 5.29592 20.8985V7.01999C5.29592 5.88139 5.88772 5.31936 6.97733 5.31936H20.8964C21.9764 5.31936 22.5778 5.88139 22.5778 7.01999V20.8985C22.5778 22.0371 21.9764 22.6013 20.8964 22.6013H6.97733Z" fill="black"/>
<path d="M7.24146 13.9427C7.24146 17.6337 10.2518 20.6536 13.9427 20.6536C17.6337 20.6536 20.6536 17.6337 20.6536 13.9427C20.6536 10.2614 17.6337 7.24146 13.9523 7.24146C13.4126 7.24146 13.0624 7.59279 13.0624 8.13373V10.2783C13.0624 10.7606 13.4255 11.1236 13.9003 11.1236C14.3613 11.1236 14.7126 10.7489 14.7126 10.2783V9.13427C17.0517 9.48466 18.8088 11.5078 18.8088 13.9427C18.8088 16.646 16.6364 18.8067 13.9427 18.8067C11.249 18.8067 9.07871 16.646 9.08833 13.9427C9.08833 12.8072 9.47434 11.7197 10.2091 10.8529C10.5358 10.3945 10.5358 9.91849 10.1932 9.55334C9.78771 9.1467 9.17787 9.21467 8.79889 9.69138C7.79365 10.8839 7.24146 12.4122 7.24146 13.9427ZM15.0401 15.0291C15.6077 14.438 15.5044 13.5691 14.8153 13.144L11.8317 11.2001C11.3259 10.8815 10.8703 11.3043 11.1993 11.827L13.1571 14.7926C13.6099 15.4912 14.4628 15.5967 15.0401 15.0291Z" fill="black"/>
</svg>
