<svg width="28" height="28" viewBox="0 0 28 28" fill="none" xmlns="http://www.w3.org/2000/svg">
<path d="M14.105 26.21C20.7369 26.21 26.2121 20.7273 26.2121 14.105C26.2121 7.47312 20.7273 2 14.0954 2C7.47523 2 2 7.47312 2 14.105C2 20.7273 7.48484 26.21 14.105 26.21ZM14.105 23.8255C8.71085 23.8255 4.39412 19.4991 4.39412 14.105C4.39412 8.71085 8.70124 4.38452 14.0954 4.38452C19.4895 4.38452 23.8276 8.71085 23.8276 14.105C23.8276 19.4991 19.4991 23.8255 14.105 23.8255Z" fill="black"/>
<path d="M14.5416 20.6452C14.6012 20.6335 14.6532 20.6037 14.701 20.574L19.358 17.9595C19.9215 17.6314 20.237 17.2885 20.237 16.4412V11.6642C20.237 11.5191 20.2273 11.3762 20.1868 11.262L14.5416 14.4547V20.6452ZM13.6641 20.6452V14.4547L8.01894 11.262C7.99011 11.3762 7.99011 11.5191 7.99011 11.6642V16.4412C7.99011 17.2885 8.28425 17.6314 8.84768 17.9595L13.5048 20.574C13.5547 20.6037 13.6046 20.6335 13.6641 20.6452ZM14.1029 13.6902L16.6487 12.2546L10.9461 9.03219L8.77831 10.2601C8.63347 10.3229 8.50995 10.407 8.4237 10.5029L14.1029 13.6902ZM17.559 11.7509L19.7841 10.5029C19.6958 10.407 19.5765 10.3229 19.4295 10.2601L15.2288 7.88234C14.8559 7.66601 14.4767 7.56055 14.1029 7.56055C13.7429 7.56055 13.3594 7.66601 12.9866 7.88234L11.8191 8.53063L17.559 11.7509Z" fill="black"/>
</svg>
