<svg width="30" height="29" viewBox="0 0 30 29" fill="none" xmlns="http://www.w3.org/2000/svg">
<path d="M1.16226 22.2396H22.3254C24.6213 22.2396 25.7304 21.1401 25.7304 18.873V7.03477C25.7304 6.10734 26.2015 5.62453 27.1193 5.62453H28.1533C28.7733 5.62453 29.2954 5.10235 29.2954 4.47282C29.2954 3.8529 28.7733 3.32861 28.1533 3.32861H26.8373C24.5414 3.32861 23.4323 4.41845 23.4323 6.69516V18.5334C23.4323 19.4609 22.9612 19.9437 22.0434 19.9437H1.16226C0.522184 19.9437 0 20.4298 0 21.0858C0 21.7418 0.522184 22.2396 1.16226 22.2396ZM5.29804 28.4878C6.52054 28.4878 7.5546 27.4516 7.5546 26.2312C7.5546 24.9874 6.52054 23.9512 5.29804 23.9512C4.06593 23.9512 3.03187 24.9874 3.03187 26.2312C3.03187 27.4516 4.06593 28.4878 5.29804 28.4878ZM17.8605 28.4878C19.0926 28.4878 20.1171 27.4516 20.1171 26.2312C20.1171 24.9874 19.0926 23.9512 17.8605 23.9512C16.6305 23.9512 15.604 24.9874 15.604 26.2312C15.604 27.4516 16.6305 28.4878 17.8605 28.4878Z" fill="black"/>
<path d="M0.00964355 15.4237C0.00964355 17.1616 0.943627 18.0572 2.77221 18.0572H18.6776C20.5041 18.0572 21.4477 17.1616 21.4477 15.4237V6.04312C21.4477 4.31484 20.5041 3.40969 18.6776 3.40969H2.77221C0.943627 3.40969 0.00964355 4.31484 0.00964355 6.04312V15.4237ZM3.488 18.0572V3.40969H5.11104V18.0572H3.488ZM16.3366 18.0572V3.40969H17.9618V18.0572H16.3366ZM5.91214 4.31578H7.74799V2.56641C7.74799 1.99992 8.05948 1.69476 8.66745 1.69476H12.7823C13.3903 1.69476 13.7093 1.99992 13.7093 2.56641V4.29445H15.5452V2.64867C15.5452 0.886406 14.6163 0 12.7852 0H8.66464C6.8719 0 5.91214 0.926954 5.91214 2.64867V4.31578Z" fill="black"/>
</svg>
