<svg width="28" height="28" viewBox="0 0 28 28" fill="none" xmlns="http://www.w3.org/2000/svg">
<path d="M4 10.6354C4 13.5158 5.2757 16.1069 7.28828 17.8684L7.29999 26.4144C7.29999 27.2294 7.7603 27.5877 8.34413 27.5877C8.79858 27.5877 9.1328 27.3512 9.48506 27.0011L13.1945 23.3076C13.3801 23.139 13.5144 23.0708 13.6487 23.0708C13.7872 23.0708 13.9269 23.139 14.1051 23.3076L17.8187 27.0011C18.1785 27.3566 18.5223 27.5877 18.9597 27.5877C19.5585 27.5877 20.0092 27.2294 20.0092 26.4144V17.7573C21.9498 16.0075 23.1758 13.4598 23.1854 10.6354C23.1951 5.30828 18.8793 1 13.5927 1C8.29656 1 4 5.30828 4 10.6354ZM6.3278 10.6354C6.32569 6.56592 9.51483 3.28725 13.6023 3.28725C17.6802 3.28725 20.8694 6.56592 20.879 10.6354C20.8907 14.6931 17.6802 17.9718 13.6023 17.9622C9.51483 17.9505 6.32569 14.6931 6.3278 10.6354Z" fill="black"/>
</svg>
