<svg width="33" height="28" viewBox="0 0 33 28" fill="none" xmlns="http://www.w3.org/2000/svg">
<path d="M8.55046 19.6841H10.1421C10.6596 19.6841 11.0076 19.3818 11.1312 18.9048L11.5957 16.9987C11.9069 16.8857 12.2086 16.7727 12.4793 16.6213L14.1532 17.657C14.5673 17.9104 15.0602 17.8689 15.4073 17.5197L16.5323 16.3851C16.8719 16.0359 16.9263 15.5291 16.6655 15.1075L15.6394 13.4645C15.7737 13.1863 15.9059 12.8964 15.9954 12.599L17.9037 12.1366C18.4019 12.0227 18.6926 11.665 18.6926 11.155V9.57928C18.6926 9.07889 18.4019 8.71374 17.9037 8.59772L16.0188 8.12569C15.9101 7.79733 15.7758 7.50741 15.6628 7.25592L16.6676 5.57569C16.9209 5.13389 16.9146 4.66866 16.5537 4.32155L15.4073 3.19866C15.056 2.86866 14.5866 2.79085 14.1787 3.03999L12.4793 4.09163C12.2182 3.94772 11.9187 3.82515 11.5957 3.7239L11.1312 1.78045C11.0098 1.30139 10.6596 1.00116 10.1421 1.00116H8.55046C8.03297 1.00116 7.67531 1.30139 7.5614 1.78045L7.09687 3.69835C6.78562 3.81132 6.47437 3.92429 6.20156 4.07991L4.51593 3.03788C4.10601 2.78874 3.63656 2.85905 3.28523 3.19866L2.13891 4.32155C1.78008 4.66866 1.77164 5.13389 2.025 5.57569L3.02977 7.25592C2.9168 7.50741 2.78461 7.79733 2.67375 8.12569L0.779295 8.59772C0.290624 8.71374 0 9.07889 0 9.57928V11.155C0 11.665 0.290624 12.0227 0.779295 12.1366L2.69719 12.599C2.78672 12.8964 2.91891 13.1863 3.0532 13.4645L2.02711 15.1075C1.76836 15.5291 1.82062 16.0359 2.16234 16.3851L3.28523 17.5197C3.63445 17.8689 4.12523 17.9104 4.53937 17.657L6.21328 16.6213C6.48398 16.7727 6.78562 16.8857 7.09687 16.9987L7.5614 18.9048C7.67531 19.3818 8.03297 19.6841 8.55046 19.6841ZM9.34734 13.1971C7.78288 13.1971 6.48702 11.9012 6.48702 10.3251C6.48702 8.77022 7.78288 7.48819 9.34734 7.48819C10.9118 7.48819 12.2055 8.77022 12.2055 10.3251C12.2055 11.9012 10.9118 13.1971 9.34734 13.1971ZM23.9805 26.9945H25.3228C25.7817 26.9945 26.1063 26.7273 26.1968 26.3165L26.5793 24.6702C26.8629 24.5594 27.1155 24.4719 27.3511 24.3398L28.7906 25.2391C29.1462 25.4669 29.5708 25.435 29.8807 25.123L30.8224 24.1696C31.1344 23.8576 31.1833 23.4137 30.9459 23.0561L30.0626 21.6262C30.183 21.3969 30.2801 21.1443 30.3675 20.8916L32.0276 20.4974C32.4459 20.4069 32.6918 20.0866 32.6918 19.6351V18.3088C32.6918 17.8574 32.4459 17.5391 32.0276 17.4369L30.3813 17.0406C30.2822 16.757 30.1851 16.5044 30.0743 16.2923L30.948 14.8389C31.1876 14.4578 31.1695 14.0587 30.8458 13.7467L29.8786 12.805C29.5645 12.5165 29.1558 12.4462 28.8023 12.6623L27.349 13.5712C27.1294 13.4603 26.8629 13.3398 26.5793 13.262L26.1968 11.5785C26.1063 11.1677 25.7817 10.8908 25.3228 10.8908H23.9805C23.5334 10.8908 23.213 11.1677 23.1087 11.5785L22.7144 13.2365C22.4501 13.3377 22.1782 13.4252 21.9426 13.5552L20.4914 12.658C20.1476 12.4558 19.7346 12.5048 19.4226 12.805L18.4692 13.7467C18.1455 14.0587 18.1296 14.4578 18.3574 14.8389L19.2194 16.2965C19.1224 16.5044 19.0233 16.757 18.922 17.0406L17.2875 17.4369C16.8595 17.5391 16.6019 17.8595 16.6019 18.3088V19.6351C16.6019 20.0844 16.8595 20.4069 17.2875 20.4974L18.9476 20.8916C19.0254 21.1443 19.1245 21.3969 19.245 21.6262L18.3595 23.0561C18.12 23.4053 18.1765 23.8576 18.4788 24.1696L19.4226 25.123C19.7346 25.435 20.1572 25.4669 20.5148 25.2391L21.9544 24.3419C22.1878 24.4719 22.4522 24.5594 22.7144 24.6702L23.1087 26.3165C23.213 26.7273 23.5334 26.9945 23.9805 26.9945ZM24.6527 21.2116C23.4037 21.2116 22.3849 20.1885 22.3849 18.9299C22.3849 17.6926 23.4058 16.6738 24.6527 16.6738C25.8996 16.6738 26.9205 17.6926 26.9205 18.9299C26.9205 20.1885 25.9017 21.2116 24.6527 21.2116Z" fill="black"/>
</svg>
