<svg width="28" height="28" viewBox="0 0 28 28" fill="none" xmlns="http://www.w3.org/2000/svg">
<path d="M14.2572 12.4403C18.8547 12.4403 23.2335 11.7454 27.5047 9.96413V9.10772C27.5047 6.62733 26.2314 5.37319 23.7318 5.37319H20.3926V4.27234C20.3926 2.05656 19.1945 1 16.9891 1H11.5094C9.41172 1 8.12172 2.05656 8.12172 4.27234V5.37319H4.77296C2.28297 5.37319 1 6.62733 1 9.10772V9.96413C5.27125 11.7454 9.65007 12.4403 14.2572 12.4403ZM10.2461 5.37319V4.2721C10.2461 3.42999 10.7237 2.95983 11.5851 2.95983H16.9176C17.7789 2.95983 18.2683 3.4321 18.2683 4.2721V5.37319H10.2461ZM4.77296 24.2699H23.7318C26.2314 24.2699 27.5047 23.0062 27.5047 20.5354V12.1623C23.9542 13.4518 20.7419 14.0741 17.4946 14.3073V15.2376C17.4946 16.119 16.99 16.6056 16.0799 16.6056H12.4248C11.5244 16.6056 11.0177 16.119 11.0177 15.2376V14.3073C7.76078 14.0741 4.54843 13.4518 1 12.1623V20.5354C1 23.0062 2.28297 24.2699 4.77296 24.2699Z" fill="black"/>
</svg>
