<svg width="31" height="30" viewBox="0 0 31 30" fill="none" xmlns="http://www.w3.org/2000/svg">
<path d="M19.0709 22.4293C22.3491 21.0601 19.3449 15.8472 16.6118 13.0928C13.8448 10.3471 8.7795 7.30378 7.2849 10.6091L0.228571 26.2579C-0.637676 28.1893 1.10279 29.945 3.02278 29.1404L19.0709 22.4293ZM12.319 17.3802C9.48543 14.5562 8.37824 11.9401 9.11278 11.2152C9.83559 10.4786 12.44 11.6017 15.264 14.4428C18.121 17.2668 19.2122 19.8829 18.4915 20.5961C17.757 21.3402 15.1505 20.2213 12.319 17.3802Z" fill="black"/>
<path d="M10.8332 2.77944C11.5975 2.77944 12.2278 2.16093 12.2278 1.38703C12.2278 0.622732 11.5975 0 10.8332 0C10.0476 0 9.43872 0.622732 9.43872 1.38703C9.43872 2.16093 10.0476 2.77944 10.8332 2.77944ZM12.5341 4.88226C12.4373 4.40015 12.1202 3.9968 11.6062 3.9968C11.1051 4.0064 10.6049 4.43086 10.7156 4.96077C11.2387 7.70624 11.2387 10.5148 10.7156 13.2944C10.5953 13.819 11.1051 14.2317 11.5966 14.2413C12.0883 14.2413 12.4277 13.8602 12.5245 13.3634C13.0689 10.5061 13.0689 7.70859 12.5341 4.88226ZM18.1513 4.75406C19.4367 4.75406 20.4578 3.72328 20.4578 2.44547C20.4578 1.14422 19.4367 0.138986 18.1513 0.138986C16.8639 0.138986 15.8428 1.14422 15.8428 2.44547C15.8428 3.72328 16.8639 4.75406 18.1513 4.75406ZM15.929 8.50663C16.5665 8.50663 17.0699 7.98937 17.0699 7.35609C17.0699 6.73664 16.5665 6.21516 15.929 6.21516C15.3074 6.21516 14.7806 6.73453 14.7806 7.35609C14.7806 7.99148 15.3074 8.50663 15.929 8.50663ZM27.832 3.32718C28.4493 3.32718 28.9549 2.82164 28.9549 2.18625C28.9549 1.55719 28.4493 1.03782 27.832 1.03782C27.1945 1.03782 26.6889 1.55719 26.6889 2.18625C26.6889 2.82164 27.1945 3.32718 27.832 3.32718ZM24.3145 3.97922L22.1294 6.1643C21.7708 6.52711 21.7825 7.10812 22.1294 7.46671C22.4955 7.82531 23.0828 7.83913 23.4414 7.47093L25.6265 5.29335C25.9872 4.93476 25.9734 4.33992 25.6265 3.97922C25.2637 3.63024 24.6688 3.62485 24.3145 3.97922ZM19.8972 8.43773L13.8679 14.4469C13.5093 14.7959 13.5232 15.4045 13.8721 15.761C14.2286 16.11 14.8331 16.1217 15.182 15.761L21.1975 9.73593C21.5263 9.39749 21.5369 8.80804 21.1975 8.43984C20.8251 8.09203 20.2378 8.10469 19.8972 8.43773ZM28.9406 13.9992C29.7124 13.9992 30.3351 13.3807 30.3351 12.5951C30.3351 11.8308 29.7145 11.208 28.9406 11.208C28.1528 11.208 27.5439 11.8308 27.5439 12.5951C27.5439 13.3807 28.1549 13.9992 28.9406 13.9992ZM23.8192 14.4755C24.9192 14.4755 25.7997 13.6226 25.7997 12.5227C25.7997 11.4344 24.9213 10.5539 23.8192 10.5539C22.731 10.5539 21.876 11.4344 21.876 12.5227C21.876 13.6226 22.731 14.4755 23.8192 14.4755ZM28.4235 20.0477C29.1974 20.0477 29.8181 19.4367 29.8181 18.6532C29.8181 17.8772 29.1974 17.2587 28.4235 17.2587C27.6496 17.2587 27.029 17.8772 27.029 18.6532C27.029 19.4367 27.6496 20.0477 28.4235 20.0477ZM24.7776 17.097C21.9417 16.5642 19.1517 16.5621 16.2869 17.097C15.8038 17.2055 15.4131 17.5448 15.4228 18.0269C15.4228 18.528 15.8355 19.0378 16.3654 18.9314C19.1493 18.4062 21.944 18.3944 24.6991 18.9197C25.2077 19.0303 25.6481 18.5398 25.6577 18.0269C25.6673 17.513 25.248 17.1937 24.7776 17.097Z" fill="black"/>
</svg>
