<svg width="30" height="31" viewBox="0 0 30 31" fill="none" xmlns="http://www.w3.org/2000/svg">
<path d="M10.1683 12.5969C9.50622 13.2665 9.51583 14.1105 10.1683 14.7609L15.3668 19.9614C16.0193 20.6139 16.8632 20.6235 17.5211 19.9518L19.5651 17.9153C19.1228 17.3573 19.1505 16.6094 19.6481 16.1118C20.1499 15.61 20.8882 15.5824 21.4441 16.031L28.2895 9.19096C30.1199 7.3605 30.1497 5.38097 28.349 3.57066L26.5495 1.78074C24.7296 -0.0295688 22.7693 0.000196576 20.9292 1.84027L14.0988 8.68567C14.5474 9.2416 14.5176 9.98949 14.0158 10.4817C13.5107 10.9676 12.7725 10.9973 12.2144 10.5529L10.1683 12.5969ZM12.0543 13.2557L12.7336 12.5765C13.6209 12.7387 14.444 12.43 15.1619 11.7122C15.8768 11.0069 16.1599 10.1805 15.9817 9.32621L22.3054 3.01636C23.2647 2.05917 24.2906 2.05706 25.2201 2.9962L27.1336 4.90003C28.0727 5.83917 28.0706 6.86503 27.1113 7.82433L20.8036 14.148C19.9493 13.9699 19.1228 14.2509 18.408 14.9679C17.6901 15.6761 17.3911 16.5089 17.5436 17.3962L16.874 18.0658C16.6026 18.3372 16.2789 18.3565 15.9904 18.0775L12.0426 14.1297C11.7637 13.8508 11.7829 13.5272 12.0543 13.2557ZM18.3065 9.41293C18.0757 9.63418 18.0778 9.9841 18.3225 10.2288C18.5203 10.4266 18.8936 10.4479 19.1053 10.2288L23.7532 5.53401C23.9744 5.32237 23.984 4.98628 23.7511 4.75331C23.549 4.55128 23.1937 4.52996 22.9704 4.7512L18.3065 9.41293ZM19.9148 11.0266C19.6936 11.2383 19.7053 11.6095 19.9148 11.8211C20.1457 12.0445 20.4956 12.0445 20.7168 11.8232L25.3807 7.16901C25.5998 6.94987 25.5998 6.60417 25.3828 6.3712C25.1754 6.14574 24.7957 6.16495 24.5861 6.36488L19.9148 11.0266ZM2.89332 22.4894L0.1959 26.5099C-0.048786 26.8673 -0.0797236 27.2554 0.191446 27.5191L2.60105 29.9383C2.87433 30.1999 3.25495 30.1668 3.62198 29.9296L7.64034 27.2343C8.02776 26.9789 8.28956 26.583 8.35448 26.1424L8.53565 24.9625L15.1996 18.3082L13.9725 17.081L6.81488 24.2503L6.55918 25.6811L3.29128 28.1604L1.95768 26.8268L4.43902 23.561L5.87949 23.3149L13.0392 16.1477L11.812 14.9205L5.15762 21.5941L3.97566 21.7732C3.54676 21.8306 3.14129 22.0999 2.89332 22.4894Z" fill="black"/>
</svg>
