<svg width="28" height="28" viewBox="0 0 28 28" fill="none" xmlns="http://www.w3.org/2000/svg">
<path d="M1 12.6135V22.9729C1 23.9338 1.71179 24.4677 2.51734 24.4677C3.32078 24.4581 4.03046 23.9338 4.03046 22.9729V10.0518H3.55538C2.07718 10.0518 1 10.9637 1 12.6135ZM5.14866 26.3655H23.6983C26.2394 26.3655 27.5425 25.0698 27.5425 22.5693V4.80577C27.5425 2.30523 26.2394 1 23.6983 1H10.1598C7.62835 1 6.31351 2.30523 6.31351 4.80577V24.0205C6.31351 25.2196 6.02054 25.8995 5.14866 26.3655ZM11.2806 8.29866C10.8292 8.29866 10.4854 7.94522 10.4854 7.50343C10.4854 7.07124 10.8271 6.73913 11.2806 6.73913H22.5946C23.0406 6.73913 23.3823 7.07124 23.3823 7.50343C23.3823 7.94522 23.0385 8.29866 22.5946 8.29866H11.2806ZM11.2806 12.3477C10.8271 12.3477 10.4854 12.006 10.4854 11.5738C10.4854 11.132 10.8292 10.7882 11.2806 10.7882H22.5946C23.0385 10.7882 23.3823 11.132 23.3823 11.5738C23.3823 12.006 23.0406 12.3477 22.5946 12.3477H11.2806ZM18.407 16.4064C17.9535 16.4064 17.6193 16.0743 17.6193 15.6442C17.6193 15.1907 17.9514 14.849 18.407 14.849H22.5946C23.0385 14.849 23.3685 15.1907 23.3685 15.6442C23.3685 16.0743 23.0385 16.4064 22.5946 16.4064H18.407ZM18.407 20.5007C17.9514 20.5007 17.6193 20.1686 17.6193 19.7364C17.6193 19.2946 17.9535 18.9412 18.407 18.9412H22.5946C23.0385 18.9412 23.3685 19.2946 23.3685 19.7364C23.3685 20.1686 23.0385 20.5007 22.5946 20.5007H18.407ZM11.8818 20.5487C11.0019 20.5487 10.4737 20.0184 10.4737 19.1481V16.255C10.4737 15.3773 11.0019 14.849 11.8818 14.849H14.6955C15.5657 14.849 16.0961 15.3773 16.0961 16.255V19.1481C16.0961 20.0184 15.5657 20.5487 14.6955 20.5487H11.8818Z" fill="black"/>
</svg>
