<svg width="29" height="28" viewBox="0 0 29 28" fill="none" xmlns="http://www.w3.org/2000/svg">
<path d="M10.7119 20.1348C10.7119 20.5255 11.0163 20.8396 11.4166 20.8396C11.7935 20.8396 12.1076 20.5255 12.1076 20.1348V17.8082C12.1076 17.4313 11.7935 17.1173 11.4166 17.1173C11.0163 17.1173 10.7119 17.4313 10.7119 17.8082V20.1348ZM13.3976 20.1348C13.3976 20.5255 13.7116 20.8396 14.1119 20.8396C14.4888 20.8396 14.8029 20.5255 14.8029 20.1348V17.8082C14.8029 17.4313 14.4888 17.1173 14.1119 17.1173C13.7116 17.1173 13.3976 17.4313 13.3976 17.8082V20.1348ZM16.0929 20.1348C16.0929 20.5255 16.4069 20.8396 16.7955 20.8396C17.1841 20.8396 17.4982 20.5255 17.4982 20.1348V17.8082C17.4982 17.4313 17.1841 17.1173 16.7955 17.1173C16.4069 17.1173 16.0929 17.4313 16.0929 17.8082V20.1348ZM18.7861 20.1348C18.7861 20.5255 19.0905 20.8396 19.4908 20.8396C19.8794 20.8396 20.1839 20.5255 20.1839 20.1348V17.8082C20.1839 17.4313 19.8794 17.1173 19.4908 17.1173C19.0905 17.1173 18.7861 17.4313 18.7861 17.8082V20.1348ZM21.4814 20.1348C21.4814 20.5255 21.7858 20.8396 22.1862 20.8396C22.563 20.8396 22.8771 20.5255 22.8771 20.1348V17.8082C22.8771 17.4313 22.563 17.1173 22.1862 17.1173C21.7858 17.1173 21.4814 17.4313 21.4814 17.8082V20.1348ZM0 18.9742C0 22.109 2.36344 24.4661 5.73937 24.4661H22.4728C25.8487 24.4661 28.2122 22.109 28.2122 18.9742C28.2122 18.0278 27.9396 17.1857 27.6117 16.4095L23.6013 6.96276C22.7878 5.03503 21.1561 4.02136 18.9762 4.02136H9.24233C7.06241 4.02136 5.4307 5.03503 4.61507 6.96276L0.618279 16.3652C0.291561 17.1466 0 18.0067 0 18.9742ZM2.2221 18.9742C2.2221 17.0976 3.62155 15.7023 5.73937 15.7023H22.4728C24.5906 15.7023 25.9901 17.0976 25.9901 18.9742C25.9901 21.0473 24.5906 22.244 22.4728 22.244H5.73937C3.62155 22.244 2.2221 20.8487 2.2221 18.9742ZM4.19225 13.7364L6.74061 7.4812C7.15006 6.46494 8.05405 5.9383 9.27491 5.9383H18.9436C20.1623 5.9383 21.0759 6.46494 21.4779 7.4812L24.0241 13.7364C23.543 13.571 23.033 13.4803 22.4728 13.4803H5.73937C5.18132 13.4803 4.66171 13.571 4.19225 13.7364Z" fill="black"/>
</svg>
