<svg width="28" height="28" viewBox="0 0 28 28" fill="none" xmlns="http://www.w3.org/2000/svg">
<path d="M12.6688 3.72538H14.9389V1.1489C14.9389 0.5107 14.4336 0 13.8038 0C13.1741 0 12.6688 0.508591 12.6688 1.1489V3.72538ZM3.10343 15.1601C3.52765 15.1601 3.89796 14.9121 4.27811 14.4473C4.99577 13.4072 5.75069 12.9677 6.75851 12.9677C7.74711 12.9677 8.43688 13.4219 9.11117 14.5158C9.40906 14.962 9.69312 15.1601 10.0655 15.1601C10.4476 15.1601 10.7434 14.9599 11.0199 14.5179C11.6506 13.5199 12.759 12.908 13.8038 12.908C14.8508 12.908 15.9591 13.5199 16.5898 14.5179C16.8643 14.9599 17.1526 15.1601 17.5421 15.1601C17.9166 15.1601 18.2007 14.962 18.489 14.5158C19.1708 13.4219 19.8605 12.9677 20.8491 12.9677C21.8591 12.9677 22.614 13.4072 23.322 14.4473C23.7022 14.9121 24.0704 15.1601 24.5063 15.1601C25.1555 15.1601 25.6098 14.6248 25.6098 13.9287C25.6098 9.28265 21.8996 2.66461 13.8038 2.66461C5.71015 2.66461 2 9.28265 2 13.9287C2 14.6248 2.45422 15.1601 3.10343 15.1601ZM13.8038 10.8056C12.4133 10.8056 11.0539 11.4405 10.2111 12.4519C10.1377 12.5508 10.074 12.5487 9.99851 12.4477C9.23773 11.4213 8.14999 10.8633 6.75218 10.8633C5.36608 10.8633 4.19233 11.3988 3.21592 12.5442L4.24858 12.6232C4.90576 8.27109 8.74202 4.76905 13.8038 4.76905C18.8476 4.76905 22.6775 8.23921 23.341 12.5808L24.3484 12.5018C23.3804 11.3946 22.231 10.8633 20.8576 10.8633C19.4598 10.8633 18.3699 11.4213 17.6016 12.4477C17.5358 12.5487 17.472 12.5412 17.3987 12.4519C16.5537 11.4405 15.1869 10.8056 13.8038 10.8056ZM11.052 27.3785C13.2617 27.3785 14.9389 25.8047 14.9389 23.558V12.337H12.6688V23.5305C12.6688 24.4573 11.9937 25.1323 11.0457 25.1323C10.1169 25.1323 9.45358 24.453 9.45358 23.52C9.45358 22.7707 8.97804 22.2483 8.30023 22.2483C7.61726 22.2483 7.15461 22.7728 7.15461 23.5305C7.15461 25.7182 8.85195 27.3785 11.052 27.3785Z" fill="black"/>
</svg>
