<svg width="28" height="28" viewBox="0 0 28 28" fill="none" xmlns="http://www.w3.org/2000/svg">
<path d="M9.4082 26.967C14.0533 26.967 17.8164 23.1943 17.8164 18.5471C17.8164 13.9234 14.0416 10.1506 9.4082 10.1506C4.77273 10.1506 1 13.9234 1 18.5471C1 23.1943 4.77273 26.967 9.4082 26.967ZM9.4082 24.8748C5.91249 24.8748 3.09226 22.0524 3.09226 18.5471C3.09226 15.0748 5.91249 12.2429 9.4082 12.2429C12.8922 12.2429 15.7241 15.0652 15.7241 18.5471C15.7241 22.0428 12.8922 24.8748 9.4082 24.8748Z" fill="white"/>
<path d="M18.7894 26.967C23.4131 26.967 27.188 23.1943 27.188 18.5471C27.188 13.9234 23.4131 10.1506 18.7894 10.1506C14.1443 10.1506 10.3716 13.9234 10.3716 18.5471C10.3716 23.1943 14.1443 26.967 18.7894 26.967ZM18.7894 24.8748C15.2937 24.8748 12.4638 22.0524 12.4638 18.5471C12.4638 15.0748 15.2937 12.2429 18.7894 12.2429C22.2638 12.2429 25.0957 15.0652 25.0957 18.5471C25.0957 22.0428 22.283 24.8748 18.7894 24.8748Z" fill="white"/>
<path d="M14.0965 18.8868C18.7299 18.8868 22.493 15.1237 22.493 10.4786C22.493 5.84524 18.7299 2.07251 14.0965 2.07251C9.45144 2.07251 5.67871 5.84524 5.67871 10.4786C5.67871 15.1237 9.45144 18.8868 14.0965 18.8868ZM14.0965 16.7945C10.6008 16.7945 7.76886 13.9743 7.76886 10.4786C7.76886 6.99461 10.6008 4.16266 14.0965 4.16266C17.5709 4.16266 20.4029 6.99461 20.4029 10.4786C20.4029 13.9743 17.5805 16.7945 14.0965 16.7945Z" fill="black"/>
</svg>
