<svg width="28" height="28" viewBox="0 0 28 28" fill="none" xmlns="http://www.w3.org/2000/svg">
<path d="M14.105 26.21C20.7369 26.21 26.2121 20.7273 26.2121 14.105C26.2121 7.47312 20.7273 2 14.0954 2C7.47523 2 2 7.47312 2 14.105C2 20.7273 7.48484 26.21 14.105 26.21Z" fill="black"/>
<path d="M9.91553 10.6189C9.91553 8.4359 11.7661 6.79504 14.0954 6.79504C16.4384 6.79504 18.2987 8.48606 18.2987 10.6669C18.2987 13.0126 16.7351 13.6032 16.5261 17.6267C16.5144 17.9138 16.3198 18.0894 16.0252 18.0894H12.1655C11.8901 18.0894 11.7094 17.9138 11.6881 17.6267C11.4598 13.6032 9.91553 12.9624 9.91553 10.6189ZM12.2598 19.7171C11.9881 19.7171 11.7633 19.4923 11.7633 19.2249C11.7633 18.9596 11.9881 18.7348 12.2598 18.7348H15.9523C16.224 18.7348 16.4605 18.9596 16.4605 19.2249C16.4605 19.4923 16.224 19.7171 15.9523 19.7171H12.2598ZM14.1092 21.3905C13.2219 21.3905 12.5593 20.9783 12.5007 20.3509H15.7114C15.6411 20.9783 14.9987 21.3905 14.1092 21.3905Z" fill="white"/>
</svg>
