<svg width="28" height="28" viewBox="0 0 28 28" fill="none" xmlns="http://www.w3.org/2000/svg">
<path d="M14.105 26.21C20.7369 26.21 26.2121 20.7273 26.2121 14.105C26.2121 7.47312 20.7273 2 14.0954 2C7.47523 2 2 7.47312 2 14.105C2 20.7273 7.48484 26.21 14.105 26.21ZM14.105 23.8255C8.71085 23.8255 4.39412 19.4991 4.39412 14.105C4.39412 8.71085 8.70124 4.38452 14.0954 4.38452C19.4895 4.38452 23.8276 8.71085 23.8276 14.105C23.8276 19.4991 19.4991 23.8255 14.105 23.8255Z" fill="black"/>
<path d="M10.6846 19.8261H17.6834C18.8209 19.8261 19.479 19.1701 19.479 17.9152V11.7432C19.479 10.4808 18.8112 9.83443 17.5276 9.83443H16.6646C16.6433 8.5074 15.5152 7.40912 14.105 7.40912C12.6969 7.40912 11.5689 8.5074 11.5475 9.83443H10.6846C9.40088 9.83443 8.73315 10.4808 8.73315 11.7432V17.9152C8.73315 19.1797 9.40088 19.8261 10.6846 19.8261ZM12.7864 9.83443C12.8173 9.05748 13.3151 8.56412 14.105 8.56412C14.8948 8.56412 15.3948 9.05748 15.4236 9.83443H12.7864Z" fill="black"/>
</svg>
