<svg width="33" height="28" viewBox="0 0 33 28" fill="none" xmlns="http://www.w3.org/2000/svg">
<path d="M8.42718 19.5599H10.1423C10.9102 19.5599 11.5266 19.0914 11.6885 18.3566L11.9639 17.1004C11.9927 16.9705 12.0312 16.9091 12.0642 16.8848L13.3568 17.6605C13.9819 18.029 14.756 17.9523 15.2789 17.4273L16.4742 16.2203C17.0248 15.6698 17.1035 14.9073 16.7074 14.2823L15.863 12.9501C15.8726 13.0804 15.8918 12.8997 15.9014 12.9815L17.3705 12.6257C18.0893 12.4532 18.5695 11.8377 18.5695 11.0699V9.47828C18.5695 8.72008 18.101 8.10461 17.3705 7.9225L15.9014 7.56883C15.8918 7.5789 15.8726 7.55008 15.863 7.60023L16.7074 6.26804C17.1035 5.64297 17.0248 4.88805 16.4742 4.33L15.2789 3.13047C14.756 2.60547 13.9819 2.52133 13.3568 2.89727L11.9672 3.72039C12.1059 3.71078 11.9189 3.70117 12.0007 3.69156L11.6885 2.19156C11.5319 1.47062 10.9123 1 10.1423 1H8.42718C7.65937 1 7.0493 1.47062 6.88102 2.19156L6.55711 3.69156C6.56508 3.70117 6.53625 3.71078 6.59062 3.72039L5.21484 2.89727C4.58976 2.51922 3.81351 2.60547 3.29062 3.13047L2.09531 4.33C1.54898 4.88594 1.47773 5.65257 1.86211 6.26804L2.70656 7.60023C2.69695 7.46781 2.67773 7.65062 2.66812 7.56883L1.18945 7.9225C0.468515 8.10461 0 8.72008 0 9.47828V11.0699C0 11.8377 0.468515 12.4532 1.18945 12.6257L2.66812 12.9815C2.67773 12.9714 2.69695 13.0002 2.70656 12.9501L1.86211 14.2823C1.46813 14.9073 1.54477 15.6698 2.09531 16.2203L3.29062 17.4273C3.81562 17.9523 4.57383 18.029 5.20101 17.6605L6.50742 16.8848C6.53625 16.8859 6.57679 16.9052 6.60562 17.1004L6.88102 18.3566C7.04297 19.0914 7.65937 19.5599 8.42718 19.5599ZM8.65828 17.7674C8.54953 17.7674 8.54578 17.7552 8.51273 17.6444L7.99828 15.5066C7.40625 15.3798 6.87164 15.1073 6.44883 14.8741L4.58484 16.0042C4.4782 16.0682 4.46156 16.067 4.38585 15.9934L3.50578 15.123C3.43007 15.0494 3.43101 15.0444 3.49288 14.9378L4.61132 13.094C4.47702 12.7319 4.1407 12.1792 4.00851 11.5361L1.90171 11.0334C1.79296 11.012 1.77867 10.9987 1.77867 10.8878V9.66039C1.77867 9.55164 1.79296 9.54578 1.90171 9.52445L4.00851 9.02171C4.1407 8.36898 4.47702 7.82804 4.61132 7.45422L3.49288 5.6125C3.43101 5.51336 3.43007 5.51054 3.50578 5.42523L4.38585 4.56648C4.46156 4.49078 4.4782 4.49171 4.58484 4.54398L6.44883 5.67413C6.87164 5.44093 7.40625 5.16835 7.99828 5.04156L8.51273 2.91343C8.54578 2.80468 8.54953 2.79038 8.65828 2.79038H9.91125C10.02 2.79038 10.0259 2.80468 10.0568 2.91343L10.5712 5.04156C11.1633 5.16835 11.6979 5.44093 12.1228 5.67413L13.9847 4.54398C14.0817 4.49171 14.108 4.49078 14.1837 4.56648L15.0637 5.42523C15.1395 5.51054 15.1406 5.51336 15.0766 5.6125L13.9582 7.45422C14.0925 7.82804 14.4309 8.36898 14.5631 9.02171L16.6678 9.52445C16.7766 9.54578 16.7909 9.55164 16.7909 9.66039V10.8878C16.7909 10.9987 16.7766 11.012 16.6678 11.0334L14.5631 11.5361C14.4309 12.1792 14.0925 12.7319 13.9582 13.094L15.0766 14.9378C15.1406 15.0444 15.1395 15.0494 15.0637 15.123L14.1837 15.9934C14.108 16.067 14.0817 16.0682 13.9847 16.0042L12.1228 14.8741C11.6979 15.1073 11.1633 15.3798 10.5712 15.5066L10.0568 17.6444C10.0259 17.7552 10.02 17.7674 9.91125 17.7674H8.65828ZM9.28476 13.8166C11.2078 13.8166 12.7931 12.2195 12.7931 10.2752C12.7931 8.35211 11.2078 6.76679 9.28476 6.76679C7.33078 6.76679 5.75507 8.34789 5.75507 10.2752C5.75507 12.2099 7.33078 13.8166 9.28476 13.8166ZM9.28476 11.9767C8.35617 11.9767 7.58319 11.223 7.58319 10.2752C7.58319 9.35828 8.36038 8.59491 9.28476 8.59491C10.2016 8.59491 10.9533 9.35828 10.9533 10.2752C10.9533 11.2112 10.2016 11.9767 9.28476 11.9767ZM23.9477 26.7339H25.2996C26.0013 26.7339 26.5955 26.3198 26.7051 25.6809L26.9257 24.5036C26.9273 24.494 26.9562 24.4844 26.8943 24.4748L27.9473 25.1296C28.5138 25.4842 29.2176 25.4097 29.7054 24.8985L30.6588 23.943C31.1529 23.4372 31.2445 22.7334 30.8686 22.169L30.202 21.1595C30.2116 21.2877 30.2212 21.1166 30.2405 21.1963L31.3964 20.9544C32.0236 20.8234 32.4473 20.2485 32.4473 19.551V18.2322C32.4473 17.5464 32.0236 16.9619 31.3964 16.8287L30.2405 16.5965C30.2212 16.6044 30.2116 16.5756 30.202 16.6237L30.8686 15.6163C31.2445 15.0519 31.1529 14.3577 30.6588 13.8519L29.7054 12.8868C29.2176 12.3852 28.5138 12.299 27.9473 12.6557L26.8943 13.3084C27.0384 13.2988 26.8556 13.2892 26.9257 13.2796L26.7051 12.1119C26.5955 11.4655 26.0013 11.0514 25.2996 11.0514H23.9477C23.246 11.0514 22.6519 11.4655 22.5305 12.1119L22.312 13.2796C22.32 13.2892 22.2912 13.2988 22.3434 13.3084L21.2904 12.6557C20.7239 12.299 20.0297 12.3852 19.5419 12.8868L18.5885 13.8519C18.0944 14.3577 18.0007 15.0519 18.3691 15.6163L19.0357 16.6237C19.0261 16.4976 19.0165 16.6762 19.0069 16.5965L17.8509 16.8287C17.2141 16.9619 16.7883 17.5464 16.7883 18.2322V19.551C16.7883 20.2485 17.2141 20.8234 17.8509 20.9544L19.0069 21.1963C19.0165 21.1884 19.0261 21.2076 19.0357 21.1595L18.3691 22.169C18.0007 22.7334 18.0944 23.4372 18.5885 23.943L19.5419 24.8985C20.0297 25.4097 20.7239 25.4842 21.2904 25.1296L22.3434 24.4748C22.2089 24.4844 22.3917 24.494 22.312 24.5036L22.5305 25.6809C22.6519 26.3198 23.246 26.7339 23.9477 26.7339ZM24.2651 25.0298C24.1329 25.0298 24.109 24.9911 24.0759 24.8823L23.6552 23.1674C23.1612 23.0619 22.7287 22.8916 22.2666 22.5817L20.7605 23.5223C20.6857 23.5661 20.6107 23.5712 20.5296 23.4977L20.0107 22.9574C19.9179 22.8646 19.9209 22.8088 19.9744 22.7266L20.8734 21.2704C20.7965 20.9849 20.4401 20.4473 20.3334 19.8435L18.6239 19.4441C18.5173 19.4228 18.4828 19.3776 18.4828 19.2709V18.5123C18.4828 18.4056 18.5173 18.3625 18.6239 18.3412L20.3334 17.9418C20.4401 17.338 20.7965 16.81 20.8734 16.5128L19.9744 15.0587C19.9209 14.984 19.9179 14.9186 20.0107 14.8279L20.5296 14.2951C20.6107 14.2141 20.6857 14.2192 20.7605 14.2726L22.2666 15.2036C22.7287 14.9033 23.1612 14.7212 23.6552 14.6158L24.0759 12.9009C24.109 12.7942 24.1329 12.7555 24.2651 12.7555H24.9726C25.1048 12.7555 25.1287 12.7942 25.1597 12.9009L25.5825 14.6158C26.0744 14.7212 26.509 14.9033 26.9712 15.2036L28.4773 14.2726C28.5595 14.2192 28.6249 14.2141 28.7081 14.2951L29.2366 14.8279C29.3198 14.9186 29.3168 14.984 29.273 15.0587L28.3643 16.5128C28.4487 16.81 28.7955 17.338 28.9043 17.9418L30.6138 18.3412C30.7184 18.3625 30.7549 18.4056 30.7549 18.5123V19.2709C30.7549 19.3776 30.7184 19.4228 30.6138 19.4441L28.9043 19.8435C28.7955 20.4473 28.4487 20.9849 28.3643 21.2704L29.273 22.7266C29.3168 22.8088 29.3198 22.8646 29.2366 22.9574L28.7081 23.4977C28.6249 23.5712 28.5595 23.5661 28.4773 23.5223L26.9712 22.5817C26.509 22.8916 26.0744 23.0619 25.5825 23.1674L25.1597 24.8823C25.1287 24.9911 25.1048 25.0298 24.9726 25.0298H24.2651ZM24.6178 21.6423C26.1157 21.6423 27.3558 20.4023 27.3558 18.8926C27.3558 17.3948 26.1157 16.1643 24.6178 16.1643C23.0965 16.1643 21.866 17.3926 21.866 18.8926C21.866 20.3926 23.0986 21.6423 24.6178 21.6423ZM24.622 20.0709C23.9695 20.0709 23.4513 19.5388 23.4513 18.8905C23.4513 18.2519 23.9695 17.7433 24.622 17.7433C25.2373 17.7433 25.7651 18.2519 25.7651 18.8905C25.7651 19.5271 25.2351 20.0709 24.622 20.0709Z" fill="black"/>
</svg>
