<svg width="28" height="28" viewBox="0 0 28 28" fill="none" xmlns="http://www.w3.org/2000/svg">
<path d="M15.238 6.20894L17.4304 7.00674L19.371 1.65456C19.6157 0.993865 19.3286 0.353556 18.6913 0.113089C18.054 -0.117769 17.4308 0.182229 17.1904 0.854647L15.238 6.20894ZM15.3761 2.17957C8.58601 0.93152 3.56874 5.52855 2.09827 9.6034C1.81632 10.3546 2.17608 10.9939 2.73249 11.2089C3.19514 11.3727 3.59615 11.2128 4.06536 10.9288C5.05185 10.2235 5.98279 9.93432 7.05694 10.3311C7.76218 10.5861 8.17609 11.0589 8.43624 11.5274C8.61413 11.8208 8.92656 11.8199 9.02453 11.4491C10.0776 7.53832 12.464 4.22449 15.3761 2.17957ZM17.9657 2.0087C14.6322 4.02785 11.7247 8.19339 10.6684 12.4813C10.5683 12.8903 10.8815 13.1577 11.3502 12.984C12.3004 12.6057 13.1985 12.5042 14.0308 12.8122C14.8525 13.1064 15.4661 13.746 15.955 14.6251C16.2062 15.0575 16.633 15.0735 16.8365 14.6753C18.7677 10.723 19.2107 5.67972 17.9657 2.0087ZM19.8843 3.81597C20.799 7.24628 20.4861 11.3092 18.7993 15.013C18.6374 15.3571 18.8582 15.5671 19.194 15.441C19.7083 15.2455 20.3186 15.1536 21.0163 15.4107C22.1001 15.8033 22.6267 16.6342 22.9305 17.7915C23.1041 18.3132 23.3263 18.7007 23.7655 18.8591C24.3337 19.0623 25.019 18.8049 25.2913 18.04C26.7747 13.9726 25.8986 7.23175 19.8843 3.81597ZM7.89249 26.3938C7.66913 27.0043 7.97757 27.6681 8.58389 27.8872C9.1806 28.0989 9.86779 27.7754 10.0773 27.1862L15.3458 12.7309L13.161 11.931L7.89249 26.3938Z" fill="black"/>
</svg>
