<svg width="28" height="28" viewBox="0 0 28 28" fill="none" xmlns="http://www.w3.org/2000/svg">
<path d="M5.71648 27.0545H22.5554C24.991 27.0545 26.274 25.7833 26.274 23.3669V11.5609C26.274 9.14874 24.991 7.88499 22.5554 7.88499H5.71648C3.26375 7.88499 2 9.14874 2 11.5609V23.3669C2 25.7833 3.26375 27.0545 5.71648 27.0545ZM4.33109 5.97718H23.9525C23.7852 4.86648 23.2285 4.23414 21.9849 4.23414H6.29655C5.05296 4.23414 4.49843 4.86648 4.33109 5.97718ZM6.71773 2.59609H21.5637C21.485 1.5557 20.8719 1 19.742 1H8.53202C7.41171 1 6.79648 1.5557 6.71773 2.59609Z" fill="black"/>
<path d="M9.78442 22.2094V17.4701C9.78442 16.6315 10.1233 16.2012 10.8011 16.1332V14.7701C10.8011 12.5266 12.1519 11.0161 14.1417 11.0161C16.1358 11.0161 17.4865 12.5266 17.4865 14.7701V16.1353C18.1601 16.2012 18.5011 16.6315 18.5011 17.4701V22.2094C18.5011 23.1391 18.09 23.5673 17.2369 23.5673H11.0507C10.1955 23.5673 9.78442 23.1391 9.78442 22.2094ZM12.2334 16.1088H16.0521V14.6421C16.0521 13.2959 15.2845 12.4057 14.1396 12.4057C12.9968 12.4057 12.2334 13.298 12.2334 14.6421V16.1088Z" fill="white"/>
</svg>
