<svg width="28" height="28" viewBox="0 0 28 28" fill="none" xmlns="http://www.w3.org/2000/svg">
<path d="M14.105 26.21C20.7369 26.21 26.2121 20.7273 26.2121 14.105C26.2121 7.47312 20.7273 2 14.0954 2C7.47523 2 2 7.47312 2 14.105C2 20.7273 7.48484 26.21 14.105 26.21Z" fill="black"/>
<path d="M19.76 8.41696C21.3059 9.95328 21.0971 12.6104 19.3252 14.3961C18.2928 15.4147 17.0089 15.8206 15.7421 15.8675C14.0937 15.909 13.123 16.0391 11.7463 17.2517C11.8475 17.5116 11.7943 17.795 11.5696 18.024L9.22111 20.3841C8.92721 20.6877 8.46502 20.6877 8.18072 20.3841L7.779 19.9728C7.4776 19.6693 7.49143 19.2519 7.779 18.9559L10.1434 16.5819C10.3703 16.3475 10.6888 16.2943 10.955 16.4265C12.1496 15.0465 12.2839 14.0619 12.3116 12.4231C12.3254 11.1798 12.7665 9.87454 13.7734 8.84422C15.5548 7.07985 18.2119 6.88274 19.76 8.41696ZM15.9709 8.72961L16.6606 9.40555L17.5487 8.5175C17.0434 8.43641 16.4996 8.51422 15.9709 8.72961ZM17.2625 10.0287L18.2462 11.0007L19.3984 9.82719C19.2854 9.61086 19.1373 9.40625 18.9561 9.21336C18.7984 9.06734 18.631 8.93305 18.4616 8.8318L17.2625 10.0287ZM18.8598 11.626L19.4494 12.2178C19.6393 11.7519 19.7192 11.2667 19.6637 10.8221L18.8598 11.626ZM14.1359 10.1811L15.0057 11.0509L16.0374 10.0287L15.1794 9.17281C14.9769 9.30922 14.7744 9.46906 14.5932 9.64813C14.4162 9.82719 14.2702 10.002 14.1359 10.1811ZM15.6193 11.6741L16.603 12.6577L17.6326 11.626L16.6606 10.6541L15.6193 11.6741ZM17.2144 13.2713L17.9884 14.0431C18.1632 13.9184 18.3519 13.7649 18.5171 13.588C18.6983 13.4047 18.8794 13.2022 19.0159 13.0093L18.2558 12.2396L17.2144 13.2713ZM13.4445 12.6195L14.39 11.6741L13.6864 10.978C13.4455 11.5227 13.3655 12.0866 13.4445 12.6195ZM13.7705 13.5324C13.8622 13.7115 13.9965 13.8671 14.1521 14.0248C14.3354 14.2198 14.5538 14.368 14.7894 14.4809L15.9894 13.2734L15.0153 12.2877L13.7705 13.5324ZM15.7512 14.7345C16.2235 14.7805 16.7171 14.6984 17.2011 14.4905L16.603 13.8828L15.7512 14.7345Z" fill="white"/>
</svg>
