<svg width="28" height="28" viewBox="0 0 28 28" fill="none" xmlns="http://www.w3.org/2000/svg">
<path d="M14.105 26.21C20.7369 26.21 26.2121 20.7273 26.2121 14.105C26.2121 7.47312 20.7273 2 14.0954 2C7.47523 2 2 7.47312 2 14.105C2 20.7273 7.48484 26.21 14.105 26.21ZM14.105 23.8255C8.71085 23.8255 4.39412 19.4991 4.39412 14.105C4.39412 8.71085 8.70124 4.38452 14.0954 4.38452C19.4895 4.38452 23.8276 8.71085 23.8276 14.105C23.8276 19.4991 19.4991 23.8255 14.105 23.8255Z" fill="black"/>
<path d="M11.6496 20.1228C12.3918 20.8576 13.1561 20.9073 13.9143 20.1491L19.5197 14.5726C19.9661 14.1453 20.269 13.8394 20.269 13.1373V10.9637C20.269 10.4237 20.1325 10.1169 19.7704 9.74515L18.7235 8.70781C18.3539 8.34781 18.045 8.14413 17.505 8.14413H15.2716C14.5833 8.14413 14.2636 8.44695 13.8288 8.89132L8.26617 14.502C7.50797 15.2602 7.55344 16.017 8.28609 16.7518L11.6496 20.1228ZM16.0694 12.3394C15.7265 12.0062 15.7223 11.4334 16.0715 11.0884C16.409 10.7412 16.9755 10.7412 17.313 11.0884C17.6559 11.4216 17.6601 11.9827 17.313 12.3298C16.9638 12.6844 16.4144 12.6844 16.0694 12.3394Z" fill="black"/>
</svg>
