<svg width="28" height="28" viewBox="0 0 28 28" fill="none" xmlns="http://www.w3.org/2000/svg">
<path d="M11.5405 11.4841C11.5405 12.37 12.0379 13.1345 12.7898 13.4985V23.9092C12.7898 24.5828 13.2016 25.0478 13.806 25.0478C14.4285 25.0478 14.8147 24.5987 14.8147 23.9092V13.4985C15.5549 13.1345 16.0619 12.3604 16.0619 11.4841C16.0619 10.2278 15.0622 9.20898 13.806 9.20898C12.5401 9.20898 11.5405 10.2278 11.5405 11.4841Z" fill="black"/>
<path d="M6.02002 11.4842C6.02002 13.2449 6.59542 14.8925 7.61495 16.1223C8.09893 16.7162 8.88221 16.6982 9.30056 16.1959C9.69666 15.7318 9.54642 15.156 9.15244 14.6225C8.49994 13.806 8.15377 12.6545 8.15377 11.4842C8.15377 10.3161 8.52877 9.19346 9.15244 8.34596C9.53681 7.80292 9.69666 7.23878 9.30056 6.77472C8.88221 6.27245 8.09893 6.2523 7.61495 6.84831C6.59542 8.07808 6.02002 9.72573 6.02002 11.4842ZM18.3017 16.1959C18.72 16.6982 19.5054 16.7162 19.9894 16.1223C21.0068 14.8925 21.5843 13.2449 21.5843 11.4842C21.5843 9.72573 21.0068 8.07808 19.9894 6.84831C19.5054 6.2523 18.72 6.27245 18.3017 6.77472C17.9077 7.23878 18.0675 7.80292 18.4498 8.34596C19.0735 9.19346 19.4507 10.3161 19.4507 11.4842C19.4507 12.6545 19.1023 13.806 18.4498 14.6225C18.0579 15.156 17.9077 15.7318 18.3017 16.1959Z" fill="black"/>
<path d="M1 11.4842C1 14.572 2.08047 17.4436 4.03422 19.5424C4.56601 20.1169 5.29609 20.0937 5.71327 19.601C6.12202 19.1327 5.99007 18.5335 5.53656 18.0213C3.99155 16.3069 3.13374 14.0058 3.13374 11.4842C3.13374 8.96674 3.99155 6.66564 5.53656 4.95119C5.99007 4.43908 6.12202 3.83978 5.71327 3.3694C5.29609 2.87885 4.56601 2.85565 4.03422 3.42799C2.10367 5.50151 1 8.4026 1 11.4842ZM21.8891 19.601C22.3063 20.0937 23.0364 20.1169 23.5682 19.5424C25.524 17.4436 26.6024 14.572 26.6024 11.4842C26.6024 8.4026 25.5008 5.50151 23.5682 3.42799C23.0364 2.85565 22.3063 2.87885 21.8891 3.3694C21.4804 3.83978 21.6144 4.43908 22.0658 4.95119C23.6108 6.66564 24.4708 8.96674 24.4708 11.4842C24.4708 14.0058 23.6108 16.3069 22.0658 18.0213C21.6144 18.5335 21.4804 19.1327 21.8891 19.601Z" fill="black"/>
</svg>
