<svg width="29" height="28" viewBox="0 0 29 28" fill="none" xmlns="http://www.w3.org/2000/svg">
<path d="M1.30683 20.6031L4.25292 23.4097C5.88417 24.9643 7.91666 25.0292 9.48181 23.4545L20.0085 12.9278C21.0508 11.8759 21.0508 10.4026 19.9734 9.36037L15.2594 4.78795C14.1841 3.75951 12.746 3.72014 11.6824 4.77412L1.15566 15.2657C-0.411604 16.8404 -0.407385 18.9676 1.30683 20.6031ZM2.80541 19.094C2.01861 18.3423 2.00479 17.42 2.73299 16.6939L13.0317 6.43465C13.296 6.17989 13.6265 6.16067 13.8696 6.40582L18.3428 10.7439C18.5943 10.9954 18.5751 11.3481 18.3257 11.6071L8.05565 21.8772C7.33167 22.6108 6.47127 22.5894 5.72596 21.875L2.80541 19.094ZM2.90902 14.7571L10.0063 21.6852L11.2827 20.3929L4.22479 13.469L2.90902 14.7571Z" fill="black"/>
<path d="M11.0896 24.1461H17.8731C18.5027 24.1461 19.0248 23.6314 19.0248 23.0019C19.0248 22.3724 18.5027 21.8502 17.8731 21.8502H13.393L11.0896 24.1461ZM21.8158 24.1461H27.2549C27.8844 24.1461 28.4087 23.6314 28.4087 23.0019C28.4087 22.3724 27.8844 21.8502 27.2549 21.8502H21.8158C21.1862 21.8502 20.662 22.3724 20.662 23.0019C20.662 23.6314 21.1862 24.1461 21.8158 24.1461Z" fill="black"/>
</svg>
