<svg width="31" height="30" viewBox="0 0 31 30" fill="none" xmlns="http://www.w3.org/2000/svg">
<path d="M18.9919 22.47C22.3683 21.0602 19.2659 15.7683 16.6118 13.0929C13.8448 10.3472 8.8681 7.15763 7.23474 10.7287L0.228571 26.258C-0.637676 28.1894 1.10279 29.9451 3.02278 29.1405L18.9919 22.47ZM2.02785 26.8296L7.73419 14.167C8.34966 15.6215 9.50583 17.2479 10.9786 18.7303C12.4238 20.1637 14.0011 21.2965 15.4301 21.9194L2.47129 27.304C2.09817 27.4596 1.84879 27.2241 2.02785 26.8296ZM9.11278 11.2153C9.83348 10.4765 12.44 11.6018 15.264 14.4429C18.121 17.2669 19.2143 19.8872 18.4915 20.5962C17.7612 21.3445 15.1505 20.2214 12.319 17.3803C9.48543 14.5563 8.37614 11.9381 9.11278 11.2153Z" fill="black"/>
<path d="M10.8333 2.77944C11.5976 2.77944 12.2279 2.16093 12.2279 1.38703C12.2279 0.622732 11.5976 0 10.8333 0C10.0477 0 9.43884 0.622732 9.43884 1.38703C9.43884 2.16093 10.0477 2.77944 10.8333 2.77944ZM12.5342 4.88226C12.4374 4.40015 12.1203 3.9968 11.6063 3.9968C11.1052 4.0064 10.605 4.43086 10.7157 4.96077C11.2388 7.70624 11.2388 10.5148 10.7157 13.2944C10.5954 13.819 11.1052 14.2317 11.5967 14.2413C12.0884 14.2413 12.4278 13.8602 12.5246 13.3634C13.069 10.5061 13.069 7.70859 12.5342 4.88226ZM18.1514 4.75406C19.4368 4.75406 20.4579 3.72328 20.4579 2.44547C20.4579 1.14422 19.4368 0.138986 18.1514 0.138986C16.864 0.138986 15.8429 1.14422 15.8429 2.44547C15.8429 3.72328 16.864 4.75406 18.1514 4.75406ZM15.9291 8.50663C16.5666 8.50663 17.07 7.98937 17.07 7.35609C17.07 6.73664 16.5666 6.21516 15.9291 6.21516C15.3075 6.21516 14.7807 6.73453 14.7807 7.35609C14.7807 7.99148 15.3075 8.50663 15.9291 8.50663ZM27.8321 3.32718C28.4494 3.32718 28.955 2.82164 28.955 2.18625C28.955 1.55719 28.4494 1.03782 27.8321 1.03782C27.1946 1.03782 26.689 1.55719 26.689 2.18625C26.689 2.82164 27.1946 3.32718 27.8321 3.32718ZM24.3146 3.97922L22.1295 6.1643C21.7805 6.52711 21.7826 7.10812 22.1295 7.46671C22.4956 7.82531 23.0829 7.82952 23.4415 7.47093L25.6266 5.29335C25.9756 4.93476 25.9735 4.33992 25.6266 3.97922C25.2638 3.63024 24.6689 3.63446 24.3146 3.97922ZM19.8973 8.43773L13.868 14.4469C13.519 14.8076 13.5233 15.4045 13.8722 15.761C14.2287 16.11 14.8214 16.1121 15.1821 15.761L21.1976 9.73593C21.5264 9.39749 21.537 8.80804 21.1976 8.43984C20.8252 8.09203 20.2379 8.10469 19.8973 8.43773ZM28.9407 13.9992C29.7125 13.9992 30.3352 13.3807 30.3352 12.5951C30.3352 11.8308 29.7146 11.208 28.9407 11.208C28.1529 11.208 27.544 11.8308 27.544 12.5951C27.544 13.3807 28.155 13.9992 28.9407 13.9992ZM23.8193 14.4755C24.9193 14.4755 25.7998 13.6226 25.7998 12.5227C25.7998 11.4344 24.9214 10.5539 23.8193 10.5539C22.7311 10.5539 21.8761 11.4344 21.8761 12.5227C21.8761 13.6226 22.7311 14.4755 23.8193 14.4755ZM28.4236 20.0477C29.1975 20.0477 29.8182 19.4367 29.8182 18.6532C29.8182 17.8772 29.1975 17.2587 28.4236 17.2587C27.6497 17.2587 27.0291 17.8772 27.0291 18.6532C27.0291 19.4367 27.6497 20.0477 28.4236 20.0477ZM24.7777 17.097C21.9418 16.5642 19.1518 16.5621 16.287 17.097C15.8039 17.2055 15.4132 17.5448 15.4229 18.0269C15.4229 18.528 15.8356 19.0378 16.3655 18.9314C19.1494 18.4062 21.9441 18.3944 24.6992 18.9197C25.2078 19.0303 25.6482 18.5398 25.6578 18.0269C25.6674 17.513 25.2481 17.1937 24.7777 17.097Z" fill="black"/>
</svg>
