<svg width="30" height="30" viewBox="0 0 30 30" fill="none" xmlns="http://www.w3.org/2000/svg">
<path d="M10.3824 11.9155C9.76086 12.5446 9.74915 13.3693 10.3824 14.0101L15.3821 19.0215C16.0175 19.6548 16.8498 19.6239 17.4788 18.9927L18.8954 17.5644C18.4723 16.9178 18.5213 16.108 19.0765 15.5624C19.6381 15.0147 20.434 14.9518 21.0786 15.3929L27.8419 8.61996C29.6098 6.84786 29.596 4.95059 27.8731 3.2181L26.1666 1.52122C24.432 -0.211275 22.5177 -0.205885 20.7552 1.5449L13.9918 8.30615C14.4383 8.93685 14.3797 9.75623 13.8223 10.3136C13.2767 10.8538 12.467 10.9028 11.8128 10.4872L10.3824 11.9155ZM17.0748 9.3988L22.5666 3.88981C22.7804 3.67067 23.1528 3.70372 23.3858 3.89614C23.623 4.10989 23.5878 4.47481 23.3783 4.68434L17.8756 10.1933C17.6448 10.4167 17.3023 10.4029 17.1024 10.2029C16.8673 9.95825 16.8556 9.62005 17.0748 9.3988ZM19.2127 11.4995L24.6908 6.03528C24.9312 5.81614 25.2875 5.80442 25.4949 6.0395C25.6927 6.26285 25.6927 6.61816 25.4928 6.81809L20.0051 12.3271C19.7839 12.5622 19.4265 12.527 19.2148 12.325C18.9627 12.0728 18.9584 11.7517 19.2127 11.4995ZM2.43406 22.6733L0.189217 26.6458C-0.0383595 27.0437 -0.0885161 27.4126 0.194372 27.6859L1.68898 29.1901C1.97937 29.473 2.34077 29.4069 2.72913 29.2028L6.71866 26.9483C7.14241 26.7121 7.4117 26.2682 7.4424 25.866L7.51576 24.6498L13.1155 19.0459L10.3461 16.269L4.73468 21.8666L3.53351 21.9496C3.11632 21.9665 2.6682 22.2475 2.43406 22.6733Z" fill="black"/>
</svg>
