<svg width="28" height="28" viewBox="0 0 28 28" fill="none" xmlns="http://www.w3.org/2000/svg">
<path d="M9.27187 4.64576H5.45296V14.5924C5.45296 15.431 5.98358 15.7528 6.53554 15.7528H8.1989C8.75085 15.7528 9.27187 15.431 9.27187 14.5924V4.64576ZM15.7849 4.64576H11.9702V14.5924C11.9702 15.4331 12.5219 15.7528 13.0411 15.7528H14.7162C15.2681 15.7528 15.7849 15.431 15.7849 14.5924V4.64576ZM22.3022 4.64576H18.4833V14.5924C18.4833 15.431 19.0043 15.7528 19.5563 15.7528H21.2292C21.7812 15.7528 22.3022 15.431 22.3022 14.5924V4.64576ZM6.80437 13.7226V23.328H7.93007V13.7226H6.80437ZM13.3195 13.7226V23.328H14.4452V13.7226H13.3195ZM19.8347 13.7226V23.328H20.9604V13.7226H19.8347ZM3.84421 24.878H23.9109C26.4499 24.878 27.7552 23.5823 27.7552 21.0818V6.80998C27.7552 4.30733 26.4499 3.00421 23.9109 3.00421H3.84421C1.31484 3.00421 0 4.30733 0 6.80998V21.0818C0 23.5823 1.31484 24.878 3.84421 24.878ZM3.97733 22.582C2.88772 22.582 2.29592 22.0179 2.29592 20.8793V7.01037C2.29592 5.87177 2.88772 5.30013 3.97733 5.30013H23.7778C24.8578 5.30013 25.4592 5.87177 25.4592 7.01037V20.8793C25.4592 22.0179 24.8578 22.582 23.7778 22.582H3.97733Z" fill="black"/>
</svg>
