<svg width="28" height="28" viewBox="0 0 28 28" fill="none" xmlns="http://www.w3.org/2000/svg">
<path d="M9.5874 23.1789V20.9462H5.60257C4.68264 20.9462 4.23264 20.4878 4.23264 19.5859V4.59507C4.23264 3.70069 4.68264 3.23053 5.61218 3.23053H12.0924C12.6894 3.23053 13.138 3.41756 13.5519 3.83358L15.0631 5.35444H18.0226L14.6703 1.98835C13.9871 1.30305 13.2322 1 12.1299 1H5.44367C3.18922 1 2 2.21054 2 4.49171V19.7064C2 21.9801 3.18922 23.1789 5.44367 23.1789H9.5874ZM8.66046 19.4659V14.6216H6.04788V17.9945C6.04788 18.8959 6.61788 19.4659 7.49796 19.4659H8.66046ZM8.66046 13.3178V10.4451H7.49796C6.61788 10.4451 6.04788 11.0055 6.04788 11.9069V13.3178H8.66046Z" fill="black"/>
<path d="M12.1379 26.7971H23.0778C25.3512 26.7971 26.5552 25.5718 26.5552 23.2791V12.0474C26.5552 10.9158 26.2906 10.224 25.6276 9.55671L21.3781 5.30936C20.6844 4.6135 19.9168 4.30835 18.8241 4.30835H12.1379C9.86658 4.30835 8.65088 5.53577 8.65088 7.83592V23.2791C8.65088 25.5718 9.86447 26.7971 12.1379 26.7971ZM12.2829 24.499C11.3863 24.499 10.9468 24.0596 10.9468 23.1629V7.93506C10.9468 7.05545 11.3959 6.60638 12.2926 6.60638H18.7866C19.3709 6.60638 19.809 6.78708 20.2208 7.19677L23.8184 10.8052C24.1391 11.1354 24.2593 11.4727 24.2593 12.1151V23.1629C24.2593 24.0596 23.8102 24.499 22.9135 24.499H12.2829ZM12.7133 21.5768C12.7133 22.4686 13.2833 23.0386 14.1633 23.0386H15.459V18.2595C15.459 18.1414 15.3919 18.0764 15.2663 18.0764H12.7133V21.5768ZM12.7133 16.7726H16.0358C16.501 16.7726 16.7628 17.044 16.7628 17.4804V23.0386H18.6851V13.8999H14.1633C13.2833 13.8999 12.7133 14.4603 12.7133 15.3596V16.7726ZM19.9986 23.0386H21.0352C21.9249 23.0386 22.4853 22.4686 22.4853 21.5768V15.3596C22.4853 14.4603 21.9249 13.8999 21.0352 13.8999H19.9986V23.0386Z" fill="black"/>
</svg>
