<svg width="35" height="28" viewBox="0 0 35 28" fill="none" xmlns="http://www.w3.org/2000/svg">
<path d="M7.58999 11.5222C7.58999 10.8878 7.99335 10.4908 8.65124 10.4908H10.6319V8.57498C10.6319 7.92248 11.0182 7.51279 11.6611 7.51279C12.2923 7.51279 12.6881 7.92248 12.6881 8.57498V10.4908H14.5462C15.2552 10.4908 15.682 10.8878 15.682 11.5222C15.682 12.1759 15.2552 12.5847 14.5462 12.5847H12.6881V14.4983C12.6881 15.1529 12.2923 15.5701 11.6611 15.5701C11.0182 15.5701 10.6319 15.1529 10.6319 14.4983V12.5847H8.65124C7.99335 12.5847 7.58999 12.1759 7.58999 11.5222ZM19.1559 13.2029C19.1559 12.2167 19.927 11.4594 20.8898 11.4594C21.8665 11.4594 22.6237 12.2167 22.6237 13.2029C22.6237 14.1754 21.8665 14.9326 20.8898 14.9326C19.927 14.9326 19.1559 14.1754 19.1559 13.2029ZM22.6446 9.68779C22.6446 8.70154 23.404 7.94428 24.3689 7.94428C25.353 7.94428 26.1007 8.70154 26.1007 9.68779C26.1007 10.6623 25.353 11.4079 24.3689 11.4079C23.404 11.4079 22.6446 10.6623 22.6446 9.68779ZM4.57664 24.6172C6.30866 24.6172 7.4946 23.9701 8.53803 22.7472L10.6212 20.3157C10.9216 19.9714 11.231 19.8062 11.5931 19.8062H22.7072C23.0693 19.8062 23.3787 19.9714 23.6791 20.3157L25.7644 22.7472C26.8078 23.968 27.9916 24.6172 29.7237 24.6172C32.4389 24.6172 34.3003 22.8275 34.3003 19.982C34.3003 18.7553 34.035 17.3633 33.5695 15.8221C32.8483 13.405 31.5923 10.127 30.3991 7.6042C29.3829 5.48006 28.8293 4.44108 26.2605 3.8596C24.0089 3.34515 20.9166 3.00952 17.156 3.00952C13.3934 3.00952 10.2914 3.34515 8.03976 3.8596C5.47101 4.44108 4.91742 5.48006 3.90328 7.6042C2.71008 10.127 1.45195 13.405 0.73289 15.8221C0.267422 17.3633 0 18.7553 0 19.982C0 22.8275 1.8614 24.6172 4.57664 24.6172Z" fill="black"/>
</svg>
