<svg width="29" height="28" viewBox="0 0 29 28" fill="none" xmlns="http://www.w3.org/2000/svg">
<path d="M5.27999 18.9742C5.27999 19.4608 5.66858 19.859 6.15303 19.859H22.0612C22.5457 19.859 22.9343 19.4608 22.9343 18.9742C22.9343 18.4876 22.5457 18.0991 22.0612 18.0991H6.15303C5.66858 18.0991 5.27999 18.4876 5.27999 18.9742ZM0 18.9742C0 22.109 2.36344 24.4661 5.73937 24.4661H22.4728C25.8487 24.4661 28.2122 22.109 28.2122 18.9742C28.2122 18.0278 27.9396 17.1857 27.6117 16.4095L23.6013 6.96276C22.7878 5.03503 21.1561 4.02136 18.9762 4.02136H9.24233C7.06241 4.02136 5.4307 5.03503 4.61507 6.96276L0.618279 16.3652C0.291561 17.1466 0 18.0067 0 18.9742ZM2.2221 18.9742C2.2221 17.0976 3.62155 15.7023 5.73937 15.7023H22.4728C24.5906 15.7023 25.9901 17.0976 25.9901 18.9742C25.9901 21.0473 24.5906 22.244 22.4728 22.244H5.73937C3.62155 22.244 2.2221 20.8487 2.2221 18.9742ZM4.19225 13.7364L6.74061 7.4812C7.15006 6.46494 8.05405 5.9383 9.27491 5.9383H18.9436C20.1623 5.9383 21.0759 6.46494 21.4779 7.4812L24.0241 13.7364C23.543 13.571 23.033 13.4803 22.4728 13.4803H5.73937C5.18132 13.4803 4.66171 13.571 4.19225 13.7364Z" fill="black"/>
</svg>
