<svg width="28" height="28" viewBox="0 0 28 28" fill="none" xmlns="http://www.w3.org/2000/svg">
<path d="M14.105 26.2301C20.7369 26.2301 26.2121 20.7549 26.2121 14.123C26.2121 7.50291 20.7273 2.01807 14.0954 2.01807C7.47523 2.01807 2 7.50291 2 14.123C2 20.7549 7.48484 26.2301 14.105 26.2301Z" fill="black"/>
<path d="M9.12698 18.5542V14.8799H13.5536V20.1147H10.7376C9.72675 20.1147 9.12698 19.5684 9.12698 18.5542ZM14.6583 20.1147V14.8799H19.0849V18.5542C19.0849 19.5684 18.4851 20.1147 17.4743 20.1147H14.6583ZM8.30737 13.2107V11.8799C8.30737 11.1649 8.73628 10.8341 9.44292 10.8341H10.6392C10.2939 10.4997 10.0947 10.0373 10.0947 9.52375C10.0947 8.335 11.0278 7.49243 12.1985 7.49243C13.0739 7.49243 13.8033 7.99071 14.1049 8.86586C14.4086 7.99071 15.1476 7.49243 16.0209 7.49243C17.1841 7.49243 18.115 8.335 18.115 9.52375C18.115 10.0373 17.9275 10.4997 17.5727 10.8341H18.7786C19.5044 10.8341 19.9045 11.1649 19.9045 11.8799V13.2107C19.9045 13.8775 19.5403 14.1637 18.8756 14.1637H14.6583V10.8341H15.5557C16.4711 10.8341 17.0062 10.282 17.0062 9.61914C17.0062 8.99453 16.5595 8.5982 15.9201 8.5982C15.2177 8.5982 14.6583 9.15859 14.6583 10.0028V10.8341H13.5536V10.0028C13.5536 9.15859 12.9921 8.5982 12.2993 8.5982C11.6599 8.5982 11.2057 8.99453 11.2057 9.61914C11.2057 10.282 11.7407 10.8341 12.6562 10.8341H13.5536V14.1637H9.34589C8.6812 14.1637 8.30737 13.8775 8.30737 13.2107Z" fill="white"/>
</svg>
