<svg width="28" height="28" viewBox="0 0 28 28" fill="none" xmlns="http://www.w3.org/2000/svg">
<path d="M22.9526 24.8761C23.5526 24.8761 24.0654 24.3825 24.0654 23.7826C24.0654 23.1729 23.5526 22.6676 22.9526 22.6676H21.5123V14.8812C21.5123 10.5069 18.1233 7.1178 13.7564 7.1178C9.38203 7.1178 6.01219 10.5069 6.01219 14.8812V22.6676H4.55273C3.95274 22.6676 3.46875 23.1729 3.46875 23.7826C3.46875 24.3825 3.95274 24.8761 4.55273 24.8761H22.9526Z" fill="black"/>
<path d="M14.8903 15.0851V22.6676H12.6338V15.0851C12.6338 14.4659 13.137 13.9531 13.7562 13.9531C14.3754 13.9531 14.8903 14.4659 14.8903 15.0851Z" fill="white"/>
<path d="M2.3896 16.171C3.15366 16.171 3.78131 15.5412 3.78131 14.791C3.78131 14.0058 3.18108 13.4014 2.3896 13.4014C1.61922 13.4014 1 14.0164 1 14.791C1 15.5454 1.62554 16.171 2.3896 16.171ZM5.28178 7.72623C6.04584 7.72623 6.6735 7.08475 6.6735 6.33663C6.6735 5.55147 6.07326 4.94702 5.28178 4.94702C4.52101 4.94702 3.89218 5.55991 3.89218 6.33663C3.89218 7.09108 4.52734 7.72623 5.28178 7.72623ZM13.7563 4.7792C14.5108 4.7792 15.1363 4.15366 15.1363 3.3896C15.1363 2.62461 14.5192 2 13.7563 2C12.9669 2 12.3646 2.61406 12.3646 3.3896C12.3646 4.14944 12.9944 4.7792 13.7563 4.7792ZM22.2233 7.72623C22.9874 7.72623 23.6129 7.09108 23.6129 6.33663C23.6129 5.55991 22.9937 4.94702 22.2233 4.94702C21.4318 4.94702 20.8316 5.55147 20.8316 6.33663C20.8316 7.08475 21.4593 7.72623 22.2233 7.72623ZM25.1251 16.171C25.8775 16.171 26.5051 15.5454 26.5051 14.791C26.5051 14.0164 25.8859 13.4014 25.1251 13.4014C24.3336 13.4014 23.7334 14.0058 23.7334 14.791C23.7334 15.5412 24.3611 16.171 25.1251 16.171Z" fill="black"/>
</svg>
