<svg width="28" height="28" viewBox="0 0 28 28" fill="none" xmlns="http://www.w3.org/2000/svg">
<path d="M16.8532 1.80887L12.3059 14.3261C12.1207 14.8145 12.375 15.3562 12.873 15.5392C13.3657 15.7244 13.9052 15.4605 14.0862 14.9837L18.6431 2.46652C18.8144 1.96847 18.5665 1.42684 18.0759 1.24168C17.5779 1.06074 17.0245 1.32254 16.8532 1.80887ZM2.45132 22.0837C3.71624 22.5383 4.95562 21.94 5.40069 20.7165L9.25522 10.2042L8.41898 10.6753C9.14202 12.4009 10.6158 13.7371 12.6286 14.3601L13.2063 12.7501C10.7782 11.898 9.39233 10.2021 9.36749 7.98136L8.8535 7.79832C8.60788 7.69941 8.32288 7.83019 8.23359 8.08543L3.88875 20.0078C3.73195 20.4398 3.32882 20.5687 2.98124 20.4407C2.66671 20.3169 2.46726 19.9961 2.61444 19.6068L7.75405 5.51199C8.04069 4.70737 8.89335 4.31409 9.68835 4.59862L10.444 4.87003C11.8959 3.14034 14.0916 2.69386 16.5433 3.60534L17.1169 2.00504C14.4436 1.00731 11.8566 1.37082 10.0024 2.97184L9.78937 2.8877C8.28257 2.33621 6.83742 3.18465 6.19101 4.9523L1.0418 19.112C0.59461 20.3472 1.15711 21.61 2.45132 22.0837ZM3.49382 21.4033L2.09367 20.8905L0 26.6549L1.40015 27.1581L3.49382 21.4033Z" fill="black"/>
<path d="M17.8446 14.1539C18.2576 13.7942 18.2915 13.2078 17.9435 12.7948C17.5783 12.3861 16.9919 12.3713 16.579 12.7193C16.1894 13.1058 16.1576 13.6826 16.5206 14.0722C16.8783 14.4542 17.4647 14.5053 17.8446 14.1539ZM19.5731 9.76041C19.7519 9.2783 19.4847 8.73338 18.993 8.55244C18.5013 8.37362 17.9489 8.61197 17.768 9.1133C17.5849 9.62213 17.8329 10.1863 18.3342 10.3693C18.8376 10.5481 19.3826 10.2809 19.5731 9.76041ZM21.0686 5.35744C20.9686 4.83268 20.5132 4.50385 19.9767 4.5751C19.4423 4.66346 19.0826 5.09963 19.1613 5.62439C19.2326 6.15338 19.7093 6.50142 20.2437 6.43978C20.7822 6.35892 21.1303 5.88642 21.0686 5.35744Z" fill="black"/>
<path d="M20.039 16.574C20.4403 16.2109 20.4647 15.6011 20.0974 15.1998C19.759 14.8295 19.1651 14.8073 18.7638 15.1532C18.3818 15.5087 18.3499 16.1069 18.6841 16.4751C19.0631 16.8784 19.6495 16.922 20.039 16.574ZM22.6237 10.9099C22.8047 10.4181 22.5471 9.86362 22.0458 9.69441C21.554 9.50386 21.0283 9.74222 20.8495 10.251C20.6686 10.7449 20.9069 11.2801 21.4062 11.459C21.9096 11.6399 22.4449 11.394 22.6237 10.9099ZM24.2833 4.90613C24.2217 4.37504 23.7183 4.01949 23.201 4.09074C22.6954 4.1791 22.3186 4.65371 22.3898 5.1923C22.4707 5.67862 22.9507 6.04378 23.4776 5.98425C23.9969 5.90339 24.3642 5.42128 24.2833 4.90613Z" fill="black"/>
<path d="M22.2164 18.9768C22.5846 18.6212 22.6399 18.054 22.294 17.6411C21.9363 17.2419 21.3286 17.2293 20.9508 17.5944C20.5783 17.9404 20.5134 18.531 20.8594 18.928C21.2149 19.3293 21.8344 19.3344 22.2164 18.9768ZM25.6957 11.9994C25.8787 11.5098 25.619 10.9745 25.1273 10.7819C24.626 10.6031 24.0715 10.851 23.8905 11.3427C23.7117 11.8462 23.9597 12.4199 24.4589 12.5987C24.9602 12.7797 25.5147 12.5029 25.6957 11.9994ZM27.5097 4.4622C27.4193 3.93533 26.9543 3.56596 26.4349 3.63721C25.9101 3.69674 25.5525 4.21189 25.6333 4.70993C25.7046 5.2347 26.1771 5.59235 26.6922 5.52321C27.2212 5.46157 27.5885 4.95814 27.5097 4.4622Z" fill="black"/>
</svg>
