<svg width="28" height="28" viewBox="0 0 28 28" fill="none" xmlns="http://www.w3.org/2000/svg">
<path d="M7.4096 24.8972H20.2609C22.6728 24.8972 23.9876 23.6112 23.9876 21.2088V10.2724H3.68282V21.2088C3.68282 23.6208 4.99766 24.8972 7.4096 24.8972ZM10.0604 14.7265C9.50703 14.7265 9.11445 14.3339 9.11445 13.7592V13.3917C9.11445 12.817 9.50492 12.4383 10.0604 12.4383H17.6239C18.1794 12.4383 18.5794 12.817 18.5794 13.3917V13.7592C18.5794 14.3339 18.1752 14.7265 17.6239 14.7265H10.0604ZM4.12718 8.55725H23.5475C24.9582 8.55725 25.6705 7.74257 25.6705 6.34359V5.2371C25.6705 3.84023 24.9582 3.02344 23.5475 3.02344H4.12718C2.77836 3.02344 2 3.84023 2 5.2371V6.34359C2 7.74257 2.71859 8.55725 4.12718 8.55725Z" fill="black"/>
</svg>
