<svg width="28" height="28" viewBox="0 0 28 28" fill="none" xmlns="http://www.w3.org/2000/svg">
<path d="M7.80577 26.3655H20.2891C22.8013 26.3655 24.0948 25.0506 24.0948 22.5287V12.0379H15.3341C13.8679 12.0379 13.1552 11.3251 13.1552 9.85679V1H7.80577C5.30523 1 4 2.32445 4 4.84632V22.5287C4 25.0602 5.29562 26.3655 7.80577 26.3655ZM15.5423 10.3248H23.9669C23.905 9.80008 23.5166 9.29336 22.9077 8.67273L16.5098 2.17656C15.921 1.58031 15.4026 1.19406 14.8682 1.12047V9.66039C14.8682 10.1034 15.0897 10.3248 15.5423 10.3248Z" fill="black"/>
<path d="M14.0473 14.249C14.5815 14.249 15.0305 14.6535 15.0305 15.178V19.0649L14.9337 20.8183L15.8253 19.9087L16.7815 18.9248C16.9561 18.748 17.202 18.6269 17.4479 18.6269C17.9534 18.6269 18.3333 18.9909 18.3333 19.4784C18.3333 19.7615 18.2257 19.9755 18.0204 20.1552L14.7919 23.1217C14.5343 23.3537 14.3131 23.459 14.0473 23.459C13.7816 23.459 13.5603 23.3537 13.3027 23.1217L10.0742 20.1552C9.87101 19.9755 9.76343 19.7615 9.76343 19.4784C9.76343 18.9909 10.1316 18.6269 10.6468 18.6269C10.883 18.6269 11.1364 18.748 11.3131 18.9248L12.2736 19.9087L13.1609 20.8183L13.0737 19.0649V15.178C13.0737 14.6535 13.5153 14.249 14.0473 14.249Z" fill="white"/>
</svg>
