<svg width="28" height="28" viewBox="0 0 28 28" fill="none" xmlns="http://www.w3.org/2000/svg">
<path d="M14.105 26.2301C20.7369 26.2301 26.2121 20.7549 26.2121 14.123C26.2121 7.50288 20.7273 2.01804 14.0954 2.01804C7.47523 2.01804 2 7.50288 2 14.123C2 20.7549 7.48484 26.2301 14.105 26.2301Z" fill="black"/>
<path d="M8.83411 20.1451C7.23591 18.5565 7.22536 16.1028 8.88099 14.443L15.4681 7.84953C16.7476 6.57219 18.4894 6.5668 19.6977 7.74617C20.8866 8.94266 20.8599 10.6707 19.5687 11.948L13.1183 18.4069C12.3566 19.1708 11.2433 19.2113 10.5338 18.4709C9.8424 17.7603 9.85529 16.598 10.5978 15.8652L15.0718 11.3677C15.3615 11.0877 15.7672 11.0684 16.0548 11.356C16.3562 11.6382 16.3273 12.0376 16.0334 12.3315L11.5561 16.8055C11.344 17.0112 11.3429 17.2768 11.5381 17.4507C11.7376 17.633 11.9583 17.6373 12.1759 17.4177L18.5954 11.0077C19.284 10.3116 19.37 9.37062 18.7285 8.73875C18.1126 8.1207 17.1406 8.1875 16.4595 8.87398L9.91927 15.4121C8.81325 16.5256 8.79286 18.0634 9.87356 19.1248C10.9276 20.1746 12.4749 20.1777 13.5746 19.0737L18.3526 14.2937C18.623 14.0253 19.0906 14.0157 19.3707 14.2819C19.6433 14.5311 19.6262 15.0242 19.3632 15.2851L14.5191 20.1216C12.8731 21.758 10.5251 21.7934 8.83411 20.1451Z" fill="white"/>
</svg>
