<svg width="28" height="28" viewBox="0 0 28 28" fill="none" xmlns="http://www.w3.org/2000/svg">
<path d="M14.105 26.2301C20.7369 26.2301 26.2121 20.7549 26.2121 14.123C26.2121 7.50288 20.7273 2.01804 14.0954 2.01804C7.47523 2.01804 2 7.50288 2 14.123C2 20.7549 7.48484 26.2301 14.105 26.2301Z" fill="black"/>
<path d="M10.6708 8.4446C10.8541 8.42327 11.0512 8.41366 11.306 8.41366C13.4782 8.41366 14.8504 9.48124 16.8452 9.48124C17.816 9.48124 18.337 9.22553 18.7033 9.22553C19.2272 9.22553 19.4526 9.50655 19.4526 9.91623V15.8091C19.4526 16.2439 19.267 16.5453 18.993 16.7668L10.6708 8.4446ZM14.7417 16.9871C13.6629 16.693 12.6588 16.2781 11.3625 16.2781C10.698 16.2781 10.2428 16.404 10.0139 16.4935V19.9632C10.0139 20.3218 9.75956 20.5995 9.39136 20.5995C9.0562 20.5995 8.75503 20.3101 8.75503 19.9632V10.9887L14.7417 16.9871ZM19.5998 20.4875L7.7287 8.6281C7.50417 8.39607 7.50417 8.00443 7.7287 7.76068C7.98417 7.52443 8.36619 7.52443 8.61205 7.76068L20.4715 19.618C20.7035 19.8617 20.7035 20.232 20.4715 20.4875C20.2256 20.7141 19.834 20.712 19.5998 20.4875Z" fill="white"/>
</svg>
