<svg width="28" height="28" viewBox="0 0 28 28" fill="none" xmlns="http://www.w3.org/2000/svg">
<path d="M13.8436 27.249C21.2644 27.249 25.6777 24.7504 25.6777 21.8938C25.6777 18.7452 20.835 16.7298 17.0492 16.5808V18.6355C19.6252 18.7466 23.03 19.9581 23.03 21.6569C23.03 23.6725 19.1527 25.0769 13.8436 25.0769C8.51537 25.0769 4.65733 23.6917 4.65733 21.6569C4.65733 19.9581 8.05249 18.7466 10.6285 18.6355V16.5808C6.84266 16.7298 2 18.7452 2 21.8938C2 24.7504 6.42288 27.249 13.8436 27.249Z" fill="black"/>
<path d="M9.21387 5.6521C9.21387 7.79475 10.6443 9.58912 12.6135 10.1223V17.5044C12.6135 20.6957 13.3337 22.6626 13.8405 22.6626C14.3568 22.6626 15.0653 20.7074 15.0653 17.5044V10.1223C17.0366 9.60084 18.4787 7.79475 18.4787 5.6521C18.4787 3.09554 16.4183 1 13.8405 1C11.2742 1 9.21387 3.09554 9.21387 5.6521Z" fill="black"/>
<path d="M12.5274 5.91724C11.6884 5.91724 10.9473 5.17825 10.9473 4.31576C10.9473 3.46287 11.6884 2.7356 12.5274 2.7356C13.4016 2.7356 14.1172 3.46287 14.1172 4.31576C14.1172 5.17825 13.4016 5.91724 12.5274 5.91724Z" fill="white"/>
</svg>
