<svg width="33" height="28" viewBox="0 0 33 28" fill="none" xmlns="http://www.w3.org/2000/svg">
<path d="M12.8205 24.1641C13.6952 24.1641 14.3304 23.5289 14.3304 22.6639V4.76112C14.3304 3.89605 13.6952 3.20113 12.8013 3.20113C12.2041 3.20113 11.7785 3.44605 11.1462 4.05824L6.23296 8.64871C6.16476 8.7148 6.06984 8.74996 5.9632 8.74996H2.64538C0.927185 8.74996 0 9.70691 0 11.5167V15.8677C0 17.6871 0.927185 18.6366 2.64538 18.6366H5.96109C6.06773 18.6366 6.16265 18.6654 6.23085 18.7315L11.1462 23.3667C11.7241 23.9246 12.2149 24.1641 12.8205 24.1641Z" fill="black"/>
<path d="M18.5034 18.8698C18.9872 19.1899 19.6392 19.0826 19.9978 18.5686C20.9402 17.3112 21.5025 15.5229 21.5025 13.6709C21.5025 11.8189 20.9402 10.0402 19.9978 8.76894C19.6392 8.25918 18.9872 8.14012 18.5034 8.47199C17.9323 8.84652 17.8303 9.53581 18.2758 10.1914C18.9239 11.112 19.2916 12.3642 19.2916 13.6709C19.2916 14.9775 18.9143 16.2181 18.2758 17.1504C17.8399 17.8135 17.9323 18.4856 18.5034 18.8698Z" fill="black"/>
<path d="M23.1865 22.0022C23.7129 22.3374 24.3616 22.2087 24.7265 21.6769C26.2518 19.5216 27.1371 16.6371 27.1371 13.6709C27.1371 10.7046 26.2614 7.80097 24.7265 5.66277C24.3616 5.13309 23.7129 5.00442 23.1865 5.33957C22.6347 5.68738 22.556 6.37316 22.9612 6.98018C24.209 8.79964 24.9283 11.1959 24.9283 13.6709C24.9283 16.1459 24.1898 18.5208 22.9612 20.3595C22.5656 20.9665 22.6347 21.6544 23.1865 22.0022Z" fill="black"/>
<path d="M27.8953 25.1731C28.4013 25.5124 29.0852 25.3636 29.448 24.8063C31.5157 21.7233 32.7503 17.8835 32.7503 13.6772C32.7503 9.46339 31.4868 5.64074 29.448 2.55028C29.0852 1.98122 28.4013 1.84411 27.8953 2.18348C27.3424 2.53879 27.2648 3.21824 27.6466 3.82105C29.4419 6.54893 30.5587 9.93448 30.5587 13.6772C30.5587 17.4103 29.4419 20.8172 27.6466 23.5355C27.2648 24.1383 27.3424 24.8156 27.8953 25.1731Z" fill="black"/>
</svg>
