<svg width="28" height="28" viewBox="0 0 28 28" fill="none" xmlns="http://www.w3.org/2000/svg">
<path d="M6.49632 25.0622L19.8416 27.4219C22.3694 27.867 23.9364 26.4373 23.9364 23.6806V9.23933C23.9364 6.7116 22.6827 5.73473 20.1287 5.29293L7.19241 3.00778C5.2846 2.67028 4 3.75051 4 5.64542V22.1785C4 23.7978 4.85359 24.7716 6.49632 25.0622ZM7.17483 22.7855C6.60459 22.6939 6.34443 22.3486 6.34443 21.7782V6.19596C6.34443 5.59057 6.74311 5.2826 7.39866 5.39557L19.9612 7.6001C21.0224 7.79745 21.5898 8.23995 21.5898 9.21589V23.4581C21.5898 24.6284 20.9008 25.2225 19.7786 25.0135L7.17483 22.7855ZM20.6692 7.15831H22.8913V4.22839C22.8913 1.61137 21.1103 0.324415 18.1579 0.848242L5.92656 3.00989L6.68241 4.96151L18.8849 2.9173C19.9851 2.72862 20.6692 3.18284 20.6692 4.13277V7.15831ZM9.20873 10.5834L17.9528 12.1287C18.5479 12.233 18.9362 11.8573 18.9362 11.3103C18.9362 10.827 18.6904 10.5567 18.238 10.4684L9.54295 8.94659C8.95327 8.84229 8.53397 9.19667 8.53397 9.72987C8.53397 10.1822 8.78194 10.5089 9.20873 10.5834ZM9.20873 15.1116L17.9528 16.6589C18.5479 16.7632 18.9362 16.3854 18.9362 15.8384C18.9362 15.3551 18.6904 15.087 18.238 14.9986L9.54295 13.4768C8.95327 13.3725 8.53397 13.7269 8.53397 14.2601C8.53397 14.7103 8.78616 15.037 9.20873 15.1116Z" fill="black"/>
</svg>
