<svg width="28" height="28" viewBox="0 0 28 28" fill="none" xmlns="http://www.w3.org/2000/svg">
<path d="M5.48656 10.9876H7.68101V7.07101C7.68101 6.5357 8.03608 6.19233 8.55218 6.19233H18.943C19.4687 6.19233 19.8163 6.5357 19.8163 7.07101V10.9876H22.0107V7.03187C22.0107 5.21078 20.8234 4 19.0759 4H8.4289C6.67179 4 5.48656 5.21078 5.48656 7.03187V10.9876ZM2 19.5838C2 21.3473 3.16601 22.5175 4.9039 22.5175H22.6009C24.3291 22.5175 25.5069 21.3473 25.5069 19.5838V12.4166C25.5069 10.6628 24.3291 9.48086 22.6009 9.48086H21.1939C19.456 9.48086 18.29 10.6628 18.29 12.4166V15.3128H9.21686V12.4166C9.21686 10.6628 8.03913 9.48086 6.31085 9.48086H4.9039C3.16601 9.48086 2 10.6628 2 12.4166V19.5838ZM4.21366 19.5604V12.4401C4.21366 11.9751 4.52515 11.6732 5.00187 11.6732H6.21077C6.6896 11.6732 7.00109 11.9751 7.00109 12.4401V17.5051H20.5058V12.4401C20.5058 11.9751 20.8152 11.6732 21.294 11.6732H22.5029C22.9796 11.6732 23.2932 11.9751 23.2932 12.4401V19.5604C23.2932 20.0254 22.9796 20.3252 22.5029 20.3252H5.00187C4.52515 20.3252 4.21366 20.0254 4.21366 19.5604ZM6.31414 24.925H7.05968C7.70515 24.925 8.13007 24.5139 8.13007 23.8684V21.3187H5.24375V23.8684C5.24375 24.5139 5.66867 24.925 6.31414 24.925ZM20.3649 24.925H21.0945C21.778 24.925 22.2324 24.4801 22.2324 23.7988V21.1942H19.2291V23.7988C19.2291 24.4801 19.6815 24.925 20.3649 24.925Z" fill="black"/>
</svg>
