<svg width="28" height="28" viewBox="0 0 28 28" fill="none" xmlns="http://www.w3.org/2000/svg">
<path d="M14.105 26.21C20.7369 26.21 26.2121 20.7273 26.2121 14.105C26.2121 7.47312 20.7273 2 14.0954 2C7.47523 2 2 7.47312 2 14.105C2 20.7273 7.48484 26.21 14.105 26.21ZM14.105 23.8255C8.71085 23.8255 4.39412 19.4991 4.39412 14.105C4.39412 8.71085 8.70124 4.38452 14.0954 4.38452C19.4895 4.38452 23.8276 8.71085 23.8276 14.105C23.8276 19.4991 19.4991 23.8255 14.105 23.8255Z" fill="black"/>
<path d="M14.0954 21.2279C15.1784 21.2279 16.0367 20.36 16.0367 19.2748C16.0367 18.4974 15.5745 17.8276 14.911 17.522V12.2337C14.911 11.761 14.551 11.3926 14.0954 11.3926C13.6536 11.3926 13.2894 11.761 13.2894 12.2337V17.522C12.6141 17.8276 12.152 18.4974 12.152 19.2748C12.152 20.36 13.0219 21.2279 14.0954 21.2279ZM8.2076 12.5818C8.87744 12.5818 9.40666 12.0429 9.40666 11.3731C9.40666 10.7129 8.87744 10.174 8.2076 10.174C7.55158 10.174 7.00854 10.7129 7.00854 11.3731C7.00854 12.0429 7.54736 12.5818 8.2076 12.5818ZM10.71 9.9678C11.3799 9.9678 11.9091 9.41725 11.9091 8.76124C11.9091 8.09889 11.382 7.56007 10.71 7.56007C10.0519 7.56007 9.51096 8.09889 9.51096 8.76124C9.51096 9.41936 10.0498 9.9678 10.71 9.9678ZM14.0954 8.8742C14.746 8.8742 15.2944 8.32366 15.2944 7.67514C15.2944 7.0053 14.7439 6.46436 14.0954 6.46436C13.433 6.46436 12.8963 7.0053 12.8963 7.67514C12.8963 8.32366 13.4352 8.8742 14.0954 8.8742ZM17.4828 9.9678C18.1505 9.9678 18.6819 9.41935 18.6819 8.75163C18.6819 8.09889 18.1484 7.55046 17.4828 7.55046C16.8205 7.55046 16.2837 8.09889 16.2837 8.75163C16.2837 9.41725 16.8226 9.9678 17.4828 9.9678ZM19.9831 12.5818C20.653 12.5818 21.1822 12.0429 21.1822 11.3731C21.1822 10.7129 20.6509 10.174 19.9831 10.174C19.3229 10.174 18.7841 10.7129 18.7841 11.3731C18.7841 12.0429 19.3229 12.5818 19.9831 12.5818Z" fill="black"/>
</svg>
