<svg width="28" height="28" viewBox="0 0 28 28" fill="none" xmlns="http://www.w3.org/2000/svg">
<path d="M13.7336 25.8079C13.9401 25.8079 14.2457 25.727 14.5429 25.5747C21.2573 22.1163 23.4672 20.3006 23.4672 16.0956V7.37569C23.4672 6.01257 22.9431 5.52249 21.7942 5.04062C20.5075 4.51187 16.1964 2.97929 14.9404 2.55483C14.5565 2.43249 14.125 2.35913 13.7336 2.35913C13.3443 2.35913 12.9128 2.4421 12.5364 2.55483C11.2708 2.96007 6.96179 4.52148 5.67507 5.04062C4.53578 5.51077 4 6.01257 4 7.37569V16.0956C4 20.3006 6.31023 21.9487 12.9243 25.5747C13.2311 25.7367 13.5292 25.8079 13.7336 25.8079Z" fill="black"/>
<path d="M9.37622 18.3193V13.58C9.37622 12.7393 9.71724 12.3111 10.3951 12.2431V10.88C10.3951 8.63653 11.7458 7.12598 13.7356 7.12598C15.7275 7.12598 17.0783 8.63653 17.0783 10.88V12.2452C17.754 12.3111 18.0929 12.7393 18.0929 13.58V18.3193C18.0929 19.247 17.6818 19.6773 16.8308 19.6773H10.6426C9.78732 19.6773 9.37622 19.247 9.37622 18.3193ZM11.8273 12.2166H15.6439V10.752C15.6439 9.40575 14.8784 8.52309 13.7335 8.52309C12.5907 8.52309 11.8273 9.40785 11.8273 10.752V12.2166Z" fill="white"/>
</svg>
