<svg width="28" height="28" viewBox="0 0 28 28" fill="none" xmlns="http://www.w3.org/2000/svg">
<path d="M3.68492 21.4128L12.9624 26.595C13.6039 26.9574 14.2609 26.9574 14.9141 26.595L24.1798 21.4128C25.3086 20.7748 25.8669 20.1232 25.8669 18.4686V8.99745C25.8669 7.74706 25.4047 6.96542 24.3612 6.3701L16.1213 1.74986C14.6717 0.934941 13.1952 0.934941 11.7456 1.74986L3.51523 6.3701C2.46219 6.96542 2 7.74706 2 8.99745V18.4686C2 20.1232 2.56789 20.7748 3.68492 21.4128ZM4.95265 19.6128C4.31093 19.2493 4.08499 18.8794 4.08499 18.2644V9.71837L12.8511 14.6696V24.0734L4.95265 19.6128ZM22.9217 19.6128L15.0137 24.0734V14.6696L23.7819 9.71837V18.2644C23.7819 18.8794 23.5559 19.2493 22.9217 19.6128ZM13.9372 12.7547L5.26998 7.89518L8.54093 6.03611L17.2166 10.9085L13.9372 12.7547ZM19.4323 9.68183L10.7384 4.81478L12.6784 3.71673C13.5301 3.23696 14.3326 3.22735 15.196 3.71673L22.6065 7.89518L19.4323 9.68183Z" fill="black"/>
</svg>
