<svg width="30" height="28" viewBox="0 0 30 28" fill="none" xmlns="http://www.w3.org/2000/svg">
<path d="M29.2779 10.2927C29.2779 8.16156 28.1079 7.00961 25.9533 7.00961H3.30328C1.14656 7.00961 0 8.16156 0 10.2927V16.862C0 18.9911 1.16039 20.1494 3.31499 20.1494H25.9671C28.1196 20.1494 29.2779 18.9911 29.2779 16.862V10.2927ZM27.0736 10.6621V16.4948C27.0736 17.4461 26.5617 17.9526 25.6434 17.9526H3.61523C2.71827 17.9526 2.19467 17.4461 2.19467 16.4948V10.6621C2.19467 9.71077 2.72038 9.20428 3.62695 9.20428H25.6551C26.5617 9.20428 27.0736 9.71077 27.0736 10.6621ZM4.71069 8.52905H3.6771V14.5361C3.6771 14.8267 3.90913 15.0449 4.20187 15.0449C4.50632 15.0449 4.71069 14.8171 4.71069 14.5223V8.52905ZM6.8039 8.52905H5.77031V12.5706C5.77031 12.873 6.00445 13.0816 6.28757 13.0816C6.60163 13.0816 6.8039 12.8634 6.8039 12.5589V8.52905ZM8.8896 8.52905H7.8464V12.5706C7.8464 12.873 8.09015 13.0816 8.37116 13.0816C8.67561 13.0816 8.8896 12.8634 8.8896 12.5589V8.52905ZM10.9636 8.52905H9.92999V12.5706C9.92999 12.873 10.1641 13.0816 10.4569 13.0816C10.7613 13.0816 10.9636 12.8634 10.9636 12.5589V8.52905ZM13.0589 8.52905H12.0253V12.5706C12.0253 12.873 12.2594 13.0816 12.5405 13.0816C12.8545 13.0816 13.0589 12.8634 13.0589 12.5589V8.52905ZM15.1542 8.52905H14.1206V14.5361C14.1206 14.8267 14.3526 15.0449 14.6358 15.0449C14.9498 15.0449 15.1542 14.8171 15.1542 14.5223V8.52905ZM17.2378 8.52905H16.2042V12.5706C16.2042 12.873 16.4383 13.0816 16.7215 13.0816C17.0259 13.0816 17.2378 12.8634 17.2378 12.5589V8.52905ZM19.3235 8.52905H18.2899V12.5706C18.2899 12.873 18.524 13.0816 18.8147 13.0816C19.1191 13.0816 19.3235 12.8634 19.3235 12.5589V8.52905ZM21.4071 8.52905H20.3756V12.5706C20.3756 12.873 20.6076 13.0816 20.8908 13.0816C21.2048 13.0816 21.4071 12.8634 21.4071 12.5589V8.52905ZM23.5024 8.52905H22.4688V12.5706C22.4688 12.873 22.703 13.0816 22.984 13.0816C23.2884 13.0816 23.5024 12.8634 23.5024 12.5589V8.52905ZM25.5881 8.52905H24.5545V14.5361C24.5545 14.8267 24.7865 15.0449 25.0793 15.0449C25.3837 15.0449 25.5881 14.8171 25.5881 14.5223V8.52905Z" fill="black"/>
</svg>
