<svg width="28" height="28" viewBox="0 0 28 28" fill="none" xmlns="http://www.w3.org/2000/svg">
<path d="M14.105 26.2301C20.7369 26.2301 26.2121 20.7549 26.2121 14.123C26.2121 7.50291 20.7273 2.01807 14.0954 2.01807C7.47523 2.01807 2 7.50291 2 14.123C2 20.7549 7.48484 26.2301 14.105 26.2301Z" fill="black"/>
<path d="M12.0799 18.1433C11.0069 18.1433 10.3846 17.6267 10.2419 16.6573L9.33064 10.2835H7.5379C7.1397 10.2835 6.84814 9.99406 6.84814 9.59375C6.84814 9.18172 7.1397 8.89227 7.5379 8.89227H9.54861C10.1437 8.89227 10.5625 9.24805 10.6434 9.78898L10.7425 10.5132H20.2059C20.6186 10.5132 20.8464 10.7558 20.8464 11.0909C20.8464 11.1484 20.8347 11.2538 20.8113 11.3305L20.3667 14.3923C20.2335 15.2944 19.7575 15.8398 18.8404 15.8398H11.5331L11.582 16.2948C11.6226 16.6234 11.8413 16.8144 12.1581 16.8144H18.5781C18.9658 16.8144 19.2372 17.0731 19.2372 17.4692C19.2372 17.8887 18.9658 18.1433 18.5781 18.1433H12.0799ZM12.3201 21.1187C11.7119 21.1187 11.2167 20.6394 11.2167 20.0173C11.2167 19.3878 11.7119 18.9043 12.3201 18.9043C12.94 18.9043 13.431 19.3878 13.431 20.0173C13.431 20.6394 12.94 21.1187 12.3201 21.1187ZM17.5959 21.1187C16.9835 21.1187 16.4732 20.6394 16.4732 20.0173C16.4732 19.3878 16.9835 18.9043 17.5959 18.9043C18.2137 18.9043 18.7068 19.3878 18.7068 20.0173C18.7068 20.6394 18.2137 21.1187 17.5959 21.1187Z" fill="white"/>
</svg>
