<svg width="28" height="28" viewBox="0 0 28 28" fill="none" xmlns="http://www.w3.org/2000/svg">
<path d="M14.1354 26.1425C14.7942 26.1425 15.3136 25.6252 15.3157 24.9739L15.3305 16.3967L18.7901 13.194C20.1513 13.3444 21.566 12.7789 22.7754 11.559L16.1107 4.88679C14.8833 6.09617 14.3466 7.49375 14.5067 8.8646L3.6251 20.5592C3.15448 21.065 3.10526 21.7309 3.67292 22.347L2.1244 24.3249C1.94581 24.5588 1.95097 24.8895 2.19565 25.1363L2.5376 25.4858C2.77479 25.7251 3.1076 25.7473 3.36494 25.5432L5.33439 23.9872C5.93345 24.5569 6.6047 24.5035 7.10088 24.035L12.953 18.6146V24.9739C12.953 25.6252 13.4745 26.1425 14.1354 26.1425ZM5.05572 21.5666L15.2377 10.8256C15.4285 11.1444 15.6544 11.4418 15.9305 11.7371C16.1991 12.0153 16.5082 12.2701 16.796 12.4555L6.11697 22.6257L5.05572 21.5666ZM17.3712 3.61883L24.0434 10.2931C26.127 8.24562 26.2533 5.51843 24.1948 3.46742C22.1438 1.43774 19.4379 1.53734 17.3712 3.61883Z" fill="black"/>
</svg>
