<svg width="29" height="28" viewBox="0 0 29 28" fill="none" xmlns="http://www.w3.org/2000/svg">
<path d="M8.00905 24.8972H20.453C22.8649 24.8972 23.8455 23.5877 24.2086 21.2088L25.8642 10.2656H2.59781L4.26305 21.2088C4.62609 23.5973 5.60671 24.8972 8.00905 24.8972ZM2.06601 8.56218H26.4077C27.753 8.56218 28.4716 7.76437 28.4716 6.40757V5.17594C28.4716 3.81914 27.753 3.02344 26.4077 3.02344H2.06601C0.782576 3.02344 0 3.81914 0 5.17594V6.40757C0 7.76437 0.72281 8.56218 2.06601 8.56218Z" fill="black"/>
<path d="M10.8633 21.6722C10.2907 21.6722 9.80859 21.1805 9.80859 20.6154C9.80859 20.31 9.9375 20.0801 10.1332 19.8844L12.7645 17.238L10.1332 14.5821C9.93539 14.3864 9.80859 14.1565 9.80859 13.8511C9.80859 13.286 10.2907 12.8252 10.8633 12.8252C11.1431 12.8252 11.3559 12.9445 11.5804 13.1381L14.231 15.7875L16.9029 13.1285C17.1274 12.9253 17.3498 12.8039 17.6201 12.8039C18.2023 12.8039 18.6748 13.2764 18.6748 13.8511C18.6748 14.1469 18.5576 14.3479 18.3501 14.5725L15.7092 17.238L18.3405 19.8748C18.5341 20.0801 18.6651 20.3004 18.6651 20.6154C18.6651 21.1805 18.183 21.6722 17.6201 21.6722C17.321 21.6722 17.0869 21.5315 16.8837 21.3476L14.231 18.6886L11.5901 21.3476C11.3869 21.5412 11.1431 21.6722 10.8633 21.6722Z" fill="white"/>
</svg>
