<svg width="28" height="28" viewBox="0 0 28 28" fill="none" xmlns="http://www.w3.org/2000/svg">
<path d="M5.84421 24.8972H21.968C24.4974 24.8972 25.8026 23.5919 25.8026 21.0914V6.82921C25.8026 4.32656 24.4974 3.02344 21.968 3.02344H5.84421C3.31484 3.02344 2 4.31695 2 6.82921V21.0914C2 23.6016 3.31484 24.8972 5.84421 24.8972ZM5.81186 22.6013C4.82795 22.6013 4.29592 22.0969 4.29592 21.0661V10.2389C4.29592 9.21772 4.82795 8.70585 5.81186 8.70585H21.9812C22.9651 8.70585 23.5067 9.21772 23.5067 10.2389V21.0661C23.5067 22.0969 22.9651 22.6013 21.9812 22.6013H5.81186Z" fill="black"/>
</svg>
