<svg width="28" height="30" viewBox="0 0 28 30" fill="none" xmlns="http://www.w3.org/2000/svg">
<path d="M21.6499 13.5141C20.6027 13.5258 19.7388 12.6682 19.7388 11.6264C19.7388 10.5867 20.6027 9.70359 21.6499 9.71531C22.7013 9.72914 23.5493 10.5888 23.5493 11.6264C23.5493 12.6661 22.7034 13.4927 21.6499 13.5141ZM21.6499 18.9438C20.6027 18.9438 19.7388 18.0799 19.7388 17.0306C19.7388 15.9855 20.6027 15.1313 21.6499 15.1313C22.7013 15.1313 23.5493 15.9813 23.5493 17.0306C23.5493 18.0841 22.6992 18.9438 21.6499 18.9438ZM11.048 11.186C10.5431 11.186 10.1341 10.7674 10.1341 10.2509C10.1341 9.74812 10.5431 9.33914 11.048 9.33914C11.5411 9.33914 11.9405 9.74812 11.9405 10.2509C11.9405 10.7674 11.5432 11.186 11.048 11.186ZM13.9591 12.0171C13.4702 12.0171 13.0805 11.5964 13.0805 11.1033C13.0805 10.5867 13.4681 10.1777 13.9591 10.1777C14.4874 10.1777 14.8772 10.5867 14.8772 11.1033C14.8772 11.5964 14.4853 12.0171 13.9591 12.0171ZM16.1702 14.1333C15.6771 14.1333 15.2798 13.736 15.2798 13.2408C15.2798 12.7125 15.6771 12.2939 16.1702 12.2939C16.6676 12.2939 17.0862 12.7125 17.0862 13.2408C17.0862 13.736 16.6676 14.1333 16.1702 14.1333ZM16.9193 16.9645C16.4145 16.9645 16.0151 16.5577 16.0151 16.0624C16.0151 15.5576 16.4145 15.1603 16.9193 15.1603C17.4124 15.1603 17.8118 15.5576 17.8118 16.0624C17.8118 16.5577 17.4124 16.9645 16.9193 16.9645ZM16.1702 19.8213C15.6771 19.8213 15.2798 19.4006 15.2798 18.8841C15.2798 18.3792 15.6771 17.982 16.1702 17.982C16.6676 17.982 17.0862 18.3792 17.0862 18.8841C17.0862 19.3985 16.6655 19.8213 16.1702 19.8213ZM13.9591 21.9952C13.4681 21.9952 13.0805 21.5766 13.0805 21.0696C13.0805 20.5765 13.4702 20.1537 13.9591 20.1537C14.4853 20.1537 14.8772 20.5765 14.8772 21.0696C14.8772 21.5766 14.4874 21.9952 13.9591 21.9952ZM11.048 22.8818C10.5431 22.8818 10.1341 22.4728 10.1341 21.9701C10.1341 21.4535 10.5431 21.0328 11.048 21.0328C11.5432 21.0328 11.9405 21.4535 11.9405 21.9701C11.9405 22.4728 11.5411 22.8818 11.048 22.8818ZM8.11335 21.9952C7.59679 21.9952 7.20914 21.5766 7.20914 21.0696C7.20914 20.5765 7.5989 20.1537 8.11335 20.1537C8.60648 20.1537 8.99202 20.5765 8.99202 21.0696C8.99202 21.5766 8.60859 21.9952 8.11335 21.9952ZM5.91398 19.8213C5.41124 19.8213 4.98843 19.3985 4.98843 18.8841C4.98843 18.3792 5.41124 17.982 5.91398 17.982C6.40499 17.982 6.79265 18.3792 6.79265 18.8841C6.79265 19.4006 6.40499 19.8213 5.91398 19.8213ZM5.16491 16.9645C4.67179 16.9645 4.26491 16.5577 4.26491 16.0624C4.26491 15.5576 4.67179 15.1603 5.16491 15.1603C5.66015 15.1603 6.06913 15.5576 6.06913 16.0624C6.06913 16.5577 5.66015 16.9645 5.16491 16.9645ZM5.91398 14.1333C5.41124 14.1333 4.98843 13.736 4.98843 13.2408C4.98843 12.7125 5.41124 12.2939 5.91398 12.2939C6.40499 12.2939 6.79265 12.7125 6.79265 13.2408C6.79265 13.736 6.40499 14.1333 5.91398 14.1333ZM8.11335 12.0171C7.5989 12.0171 7.20914 11.5964 7.20914 11.1033C7.20914 10.5867 7.59679 10.1777 8.11335 10.1777C8.60859 10.1777 8.99202 10.5867 8.99202 11.1033C8.99202 11.5964 8.60648 12.0171 8.11335 12.0171ZM11.048 14.1909C10.5431 14.1909 10.1341 13.7841 10.1341 13.2888C10.1341 12.7702 10.5431 12.3516 11.048 12.3516C11.5432 12.3516 11.9405 12.7702 11.9405 13.2888C11.9405 13.7841 11.5432 14.1909 11.048 14.1909ZM13.7686 15.3769C13.2755 15.3769 12.8548 14.952 12.8548 14.4705C12.8548 13.9699 13.2755 13.5546 13.7686 13.5546C14.2713 13.5546 14.6611 13.9657 14.6611 14.4705C14.6611 14.9562 14.2713 15.3769 13.7686 15.3769ZM13.7686 18.6684C13.2734 18.6684 12.8548 18.267 12.8548 17.7621C12.8548 17.2498 13.2734 16.8366 13.7686 16.8366C14.2734 16.8366 14.6611 17.2498 14.6611 17.7621C14.6611 18.267 14.2734 18.6684 13.7686 18.6684ZM11.048 19.8694C10.5431 19.8694 10.1341 19.437 10.1341 18.9321C10.1341 18.4369 10.5431 18.03 11.048 18.03C11.5432 18.03 11.9405 18.4369 11.9405 18.9321C11.9405 19.437 11.5411 19.8694 11.048 19.8694ZM8.30601 18.6684C7.81078 18.6684 7.4114 18.267 7.4114 17.7621C7.4114 17.2498 7.81078 16.8366 8.30601 16.8366C8.80874 16.8366 9.23156 17.2498 9.23156 17.7621C9.23156 18.267 8.80874 18.6684 8.30601 18.6684ZM8.30601 15.3769C7.81289 15.3769 7.4114 14.9562 7.4114 14.4705C7.4114 13.9657 7.81289 13.5546 8.30601 13.5546C8.80663 13.5546 9.23156 13.9699 9.23156 14.4705C9.23156 14.952 8.80663 15.3769 8.30601 15.3769ZM11.048 17.0126C10.5431 17.0126 10.1341 16.6057 10.1341 16.1105C10.1341 15.6152 10.5431 15.2084 11.048 15.2084C11.5432 15.2084 11.9405 15.6152 11.9405 16.1105C11.9405 16.6057 11.5432 17.0126 11.048 17.0126ZM22.444 7.38796L23.0962 5.33649L6.82734 0.0527401C6.26344 -0.132415 5.64844 0.186802 5.47711 0.746487C5.28985 1.30406 5.60696 1.91906 6.16664 2.10632L22.444 7.38796ZM3.84421 27.0553H23.9109C26.4499 27.0553 27.7552 25.7597 27.7552 23.2591V8.98734C27.7552 6.48469 26.4499 5.18157 23.9109 5.18157H3.84421C1.31484 5.18157 0 6.48469 0 8.98734V23.2591C0 25.7597 1.31484 27.0553 3.84421 27.0553Z" fill="black"/>
</svg>
