<svg width="28" height="28" viewBox="0 0 28 28" fill="none" xmlns="http://www.w3.org/2000/svg">
<path d="M14.105 26.21C20.7369 26.21 26.2121 20.7273 26.2121 14.105C26.2121 7.47312 20.7273 2 14.0954 2C7.47523 2 2 7.47312 2 14.105C2 20.7273 7.48484 26.21 14.105 26.21ZM14.105 23.8255C8.71085 23.8255 4.39412 19.4991 4.39412 14.105C4.39412 8.71085 8.70124 4.38452 14.0954 4.38452C19.4895 4.38452 23.8276 8.71085 23.8276 14.105C23.8276 19.4991 19.4991 23.8255 14.105 23.8255Z" fill="black"/>
<path d="M16.6379 18.901C16.8999 18.77 16.9744 18.443 16.8296 18.2023L11.8906 9.66265C11.6541 9.24405 11.2984 9.14819 10.9351 9.14819C10.6112 9.14819 10.2287 9.33569 9.87382 9.52858C8.67405 10.2329 8.26061 11.2388 7.16936 11.8569C6.68772 12.1393 6.27639 12.2544 6.05796 12.3737C5.75866 12.5398 5.5946 12.8806 5.79053 13.2331L7.62663 16.4023C7.83757 16.7539 8.09749 16.9318 8.50975 16.9318C8.93163 16.9318 9.32163 16.7347 9.65726 16.5301C10.8666 15.8375 11.2918 14.806 12.3734 14.2018C12.6612 14.0227 12.9256 13.9332 13.1398 13.8437L15.9509 18.7114C16.1054 18.9734 16.3972 19.0501 16.6379 18.901ZM19.6714 16.9318C20.0837 16.9318 20.3436 16.7539 20.5449 16.4023L22.3885 13.2331C22.5866 12.8806 22.4204 12.5494 22.1211 12.3737C21.9048 12.2544 21.4934 12.1393 21.0097 11.8569C19.9184 11.2388 19.4954 10.2329 18.3052 9.52858C17.9504 9.33569 17.5583 9.14819 17.2365 9.14819C16.8732 9.14819 16.527 9.24405 16.2884 9.67226L14.5822 12.6191L15.3786 13.9862C16.6545 14.5039 17.3509 15.8663 18.5218 16.5301C18.8478 16.7347 19.2495 16.9318 19.6714 16.9318ZM11.5337 18.901C11.7723 19.0597 12.0758 18.9734 12.2302 18.7114L13.6086 16.3203L13.0196 15.316L11.3516 18.2023C11.2067 18.443 11.2791 18.77 11.5337 18.901Z" fill="black"/>
</svg>
