<svg width="28" height="28" viewBox="0 0 28 28" fill="none" xmlns="http://www.w3.org/2000/svg">
<path d="M1.50465 24.0519C3.8341 27.0418 8.58159 27.7712 11.4935 25.4657C13.9593 23.5293 14.3842 20.5806 12.4373 18.1502C10.6307 15.8601 8.03458 15.3768 6.03231 16.9766C4.21684 18.4068 4.83395 20.3502 3.86927 21.0972C3.01028 21.7673 2.11708 21.3501 1.43036 21.9098C0.862475 22.3965 0.826142 23.2049 1.50465 24.0519ZM4.1948 23.6451C4.053 23.4958 4.05839 23.3422 4.16386 23.241C4.33425 23.0887 4.91667 23.0186 5.37207 22.5653C6.54464 21.4002 6.09676 19.8196 7.39871 18.76C8.42949 17.9139 9.88426 18.186 10.8933 19.4247C12.0269 20.8307 11.6854 22.6049 10.1709 23.8152C8.44777 25.2203 5.79113 25.2508 4.1948 23.6451ZM13.109 21.1152C14.4527 20.9872 15.6056 20.327 16.881 19.0537C20.7356 15.213 26.5474 6.68619 27.0344 6.00627C28.6375 3.77409 25.8953 1.04691 23.6472 2.62542C22.9853 3.09863 14.4743 8.87972 10.6293 12.7555C9.36676 14.0277 8.68426 15.171 8.54458 16.4912L10.7367 17.1027C10.701 16.203 11.118 15.3751 12.1476 14.353C15.7127 10.8243 23.4255 5.47445 24.4336 4.7472C24.7877 4.48798 25.1697 4.86345 24.9072 5.24009C24.3009 6.22749 18.8428 13.9762 15.3194 17.4995C14.3289 18.4879 13.5843 18.8683 12.7293 18.9388L13.109 21.1152ZM15.1854 17.946L16.8478 17.5445C16.7491 15.2577 14.467 12.932 12.2196 12.8099L11.6756 14.4787C13.2199 14.4983 15.1157 16.3752 15.1854 17.946Z" fill="black"/>
</svg>
