<svg width="28" height="28" viewBox="0 0 28 28" fill="none" xmlns="http://www.w3.org/2000/svg">
<path d="M14.105 26.2301C20.7369 26.2301 26.2121 20.7549 26.2121 14.123C26.2121 7.50291 20.7273 2.01807 14.0954 2.01807C7.47523 2.01807 2 7.50291 2 14.123C2 20.7549 7.48484 26.2301 14.105 26.2301Z" fill="black"/>
<path d="M11.217 9.74505C11.217 8.15623 12.5216 6.86881 14.105 6.8667C15.698 6.86459 16.9951 8.1499 16.9951 9.74505C16.9951 11.0285 16.1726 12.0956 15.0404 12.4617V18.3832C15.0404 20.0613 14.6907 21.6325 14.105 21.6325C13.5247 21.6325 13.16 20.0283 13.16 18.3832V12.4575C12.0395 12.0818 11.217 11.0189 11.217 9.74505ZM12.4829 8.99342C12.4829 9.48537 12.912 9.91451 13.3902 9.91451C13.8959 9.91451 14.3112 9.48537 14.3112 8.99342C14.3112 8.48974 13.8959 8.06271 13.3902 8.06271C12.912 8.06271 12.4733 8.48974 12.4829 8.99342Z" fill="white"/>
</svg>
