<svg width="31" height="28" viewBox="0 0 31 28" fill="none" xmlns="http://www.w3.org/2000/svg">
<path d="M4.84593 25.7408C7.54898 25.7408 9.71319 23.5787 9.71319 20.8606C9.71319 19.8795 9.78327 19.4759 10.5403 19.0702L30.4739 8.48865C29.9934 6.63592 27.9841 6.25952 24.9839 7.33412L14.858 10.9782C13.4053 11.5011 12.7622 12.2199 12.3766 13.5692L12.1359 14.4437C11.9559 15.0784 11.6716 15.3746 10.6952 15.8792L9.13616 16.7052C8.82632 16.8659 8.66015 16.9149 8.42694 16.9149C7.41937 16.9149 7.08257 16.003 4.84593 16.003C2.15672 16.003 0 18.1714 0 20.8606C0 23.5691 2.15461 25.7408 4.84593 25.7408ZM4.84382 23.5405C3.38343 23.5405 2.20663 22.3477 2.20663 20.8585C2.20663 19.3897 3.38343 18.1937 4.84382 18.1937C6.32765 18.1937 7.51617 19.3897 7.51617 20.8585C7.51617 22.3477 6.32765 23.5405 4.84382 23.5405ZM15.1031 14.4905C14.5896 14.4905 14.1347 14.0591 14.1347 13.5221C14.1347 12.9638 14.5896 12.542 15.1031 12.542C15.6497 12.542 16.1046 12.9638 16.1046 13.5221C16.1046 14.0591 15.6497 14.4905 15.1031 14.4905ZM4.84593 12.4091C7.09218 12.4091 7.40367 11.513 8.42905 11.513C8.66648 11.513 8.84319 11.562 9.13616 11.7068L10.9036 12.654C11.1623 12.7913 11.3742 12.9148 11.535 13.0224H11.6222C11.9128 11.9558 12.3328 11.3187 13.1006 10.8057V10.7206L10.6598 9.42076C9.80249 8.9649 9.71319 8.60372 9.71319 7.5481C9.71319 4.82795 7.54687 2.66162 4.84593 2.66162C2.15672 2.66162 0 4.83756 0 7.5481C0 10.2448 2.15461 12.4091 4.84593 12.4091ZM4.84382 10.2183C3.38343 10.2183 2.20663 9.00638 2.20663 7.54599C2.20663 6.04833 3.38343 4.86192 4.84382 4.86192C6.32765 4.86192 7.51617 6.04833 7.51617 7.54599C7.51617 9.00638 6.32765 10.2183 4.84382 10.2183ZM24.9839 21.0676C28.0055 22.1827 29.9913 21.7784 30.4739 19.8746L20.7281 14.728L15.6373 17.4123V17.5698L24.9839 21.0676Z" fill="black"/>
</svg>
