<svg width="28" height="31" viewBox="0 0 28 31" fill="none" xmlns="http://www.w3.org/2000/svg">
<path d="M3 24.7526C3 26.4588 3.98226 27.4453 5.67046 27.4453H9.86717C11.5554 27.4453 12.5472 26.4588 12.5472 24.7429V5.30741C12.5472 3.59156 11.5554 2.60297 9.86717 2.60297H5.62195C3.93164 2.60297 3 3.59156 3 5.2978V24.7526ZM5.02686 24.5801V5.46819C5.02686 4.93335 5.34538 4.63405 5.88233 4.63405H9.67451C10.2115 4.63405 10.5204 4.93335 10.5204 5.46819V24.5801C10.5204 25.1074 10.2115 25.4142 9.67451 25.4142H5.88233C5.34538 25.4142 5.02686 25.1074 5.02686 24.5801ZM4.98234 3.61148H6.77178V0.893667C6.77178 0.394685 6.36538 0 5.86851 0C5.36952 0 4.98234 0.394685 4.98234 0.893667V3.61148ZM8.77546 3.61148H10.5649V0.893667C10.5649 0.394685 10.1681 0 9.66912 0C9.17014 0 8.77546 0.394685 8.77546 0.893667V3.61148ZM7.77256 8.5746C8.38592 8.5746 8.88748 8.07303 8.88748 7.46178C8.88748 6.84843 8.38592 6.34686 7.77256 6.34686C7.16132 6.34686 6.66936 6.84843 6.66936 7.46178C6.66936 8.07303 7.16132 8.5746 7.77256 8.5746ZM7.77256 12.3518C8.38592 12.3518 8.88748 11.8619 8.88748 11.2486C8.88748 10.6256 8.38592 10.1358 7.77256 10.1358C7.16132 10.1358 6.66936 10.6256 6.66936 11.2486C6.66936 11.8619 7.16132 12.3518 7.77256 12.3518ZM7.77256 16.1311C8.38592 16.1311 8.88748 15.6391 8.88748 15.0279C8.88748 14.4145 8.38592 13.9226 7.77256 13.9226C7.16132 13.9226 6.66936 14.4145 6.66936 15.0279C6.66936 15.6391 7.16132 16.1311 7.77256 16.1311ZM7.77256 19.9275C8.38592 19.9275 8.88748 19.428 8.88748 18.8147C8.88748 18.2013 8.38592 17.7019 7.77256 17.7019C7.16132 17.7019 6.66936 18.2013 6.66936 18.8147C6.66936 19.428 7.16132 19.9275 7.77256 19.9275ZM7.77256 23.7068C8.38592 23.7068 8.88748 23.2148 8.88748 22.6036C8.88748 21.9806 8.38592 21.4887 7.77256 21.4887C7.16132 21.4887 6.66936 21.9806 6.66936 22.6036C6.66936 23.2148 7.16132 23.7068 7.77256 23.7068ZM15.2334 24.7814C15.2334 26.4876 16.165 27.4741 17.865 27.4741H22.1006C23.7984 27.4741 24.7903 26.4876 24.7903 24.7718V5.33624C24.7903 3.62038 23.7984 2.6339 22.1006 2.6339H17.9135C16.2157 2.6339 15.2334 3.62038 15.2334 5.32663V24.7814ZM17.2603 24.6089V5.49913C17.2603 4.96217 17.5788 4.66288 18.1157 4.66288H21.9175C22.4545 4.66288 22.7634 4.96217 22.7634 5.49913V24.6089C22.7634 25.1362 22.4545 25.4451 21.9175 25.4451H18.1157C17.5788 25.4451 17.2603 25.1362 17.2603 24.6089ZM17.2157 26.4677V29.1855C17.2157 29.6845 17.6125 30.0696 18.1115 30.0696C18.6105 30.0696 19.0052 29.6845 19.0052 29.1855V26.4677H17.2157ZM21.0185 26.4677V29.1855C21.0185 29.6845 21.4036 30.0696 21.9025 30.0696C22.4015 30.0696 22.8079 29.6845 22.8079 29.1855V26.4677H21.0185ZM20.0081 8.58842C20.6289 8.58842 21.1209 8.08897 21.1209 7.47561C21.1209 6.86225 20.6289 6.3628 20.0081 6.3628C19.3947 6.3628 18.9028 6.86225 18.9028 7.47561C18.9028 8.08897 19.3947 8.58842 20.0081 8.58842ZM20.0081 12.3773C20.6289 12.3773 21.1209 11.8758 21.1209 11.2645C21.1209 10.6512 20.6289 10.1496 20.0081 10.1496C19.3947 10.1496 18.9028 10.6512 18.9028 11.2645C18.9028 11.8758 19.3947 12.3773 20.0081 12.3773ZM20.0081 16.1545C20.6289 16.1545 21.1209 15.6647 21.1209 15.0513C21.1209 14.438 20.6289 13.9385 20.0081 13.9385C19.3947 13.9385 18.9028 14.438 18.9028 15.0513C18.9028 15.6647 19.3947 16.1545 20.0081 16.1545ZM20.0081 19.9434C20.6289 19.9434 21.1209 19.4419 21.1209 18.8306C21.1209 18.2172 20.6289 17.7253 20.0081 17.7253C19.3947 17.7253 18.9028 18.2172 18.9028 18.8306C18.9028 19.4419 19.3947 19.9434 20.0081 19.9434ZM20.0081 23.7302C20.6289 23.7302 21.1209 23.2308 21.1209 22.6174C21.1209 22.004 20.6289 21.5046 20.0081 21.5046C19.3947 21.5046 18.9028 22.004 18.9028 22.6174C18.9028 23.2308 19.3947 23.7302 20.0081 23.7302Z" fill="black"/>
</svg>
