<svg width="28" height="28" viewBox="0 0 28 28" fill="none" xmlns="http://www.w3.org/2000/svg">
<path d="M14.105 26.21C20.7369 26.21 26.2121 20.7273 26.2121 14.105C26.2121 7.47312 20.7273 2 14.0954 2C7.47523 2 2 7.47312 2 14.105C2 20.7273 7.48484 26.21 14.105 26.21ZM14.105 23.8255C8.71085 23.8255 4.39412 19.4991 4.39412 14.105C4.39412 8.71085 8.70124 4.38452 14.0954 4.38452C19.4895 4.38452 23.8276 8.71085 23.8276 14.105C23.8276 19.4991 19.4991 23.8255 14.105 23.8255Z" fill="black"/>
<path d="M13.9187 14.1553L15.7393 12.3539C16.8709 11.2416 16.8826 9.7596 15.7937 8.70585C14.709 7.61905 13.2504 7.63827 12.1338 8.76444L10.3367 10.5637L13.9187 14.1553ZM13.2358 14.8476L9.64432 11.254L7.83119 13.0788C6.71674 14.2146 6.68791 15.6752 7.75549 16.7503C8.83807 17.8158 10.2987 17.7848 11.4153 16.6683L13.2358 14.8476ZM20.8176 16.3418C20.5983 14.8298 19.2814 13.6556 17.6799 13.6556C16.0977 13.6556 14.7785 14.8298 14.5516 16.3418H20.8176ZM20.8176 17.3079H14.5516C14.7785 18.8102 16.0977 19.9844 17.6799 19.9844C19.291 19.9844 20.5983 18.8102 20.8176 17.3079Z" fill="black"/>
</svg>
