<svg width="28" height="28" viewBox="0 0 28 28" fill="none" xmlns="http://www.w3.org/2000/svg">
<path d="M3.14421 9.83303C3.89608 9.83303 4.29592 9.41186 4.29592 8.66749V6.01999C4.29592 4.88139 4.88772 4.31936 5.97733 4.31936H8.6846C9.44069 4.31936 9.85014 3.9078 9.85014 3.16554C9.85014 2.42328 9.44069 2.02344 8.6846 2.02344H5.84421C3.31484 2.02344 2 3.31695 2 5.8196V8.66749C2 9.41397 2.41156 9.83303 3.14421 9.83303ZM24.0657 9.83303C24.8176 9.83303 25.2174 9.41397 25.2174 8.66749V5.8196C25.2174 3.31695 23.9047 2.02344 21.3732 2.02344H18.5232C17.7788 2.02344 17.3673 2.42328 17.3673 3.16554C17.3673 3.9078 17.7809 4.31936 18.5232 4.31936H21.2305C22.3105 4.31936 22.9215 4.88139 22.9215 6.01999V8.66749C22.9215 9.41397 23.333 9.83303 24.0657 9.83303ZM5.84421 25.2312H8.6846C9.44069 25.2312 9.85014 24.8197 9.85014 24.087C9.85014 23.3448 9.43647 22.9353 8.6846 22.9353H5.97733C4.88772 22.9353 4.29592 22.3733 4.29592 21.2326V18.5851C4.29592 17.8311 3.88647 17.4195 3.14421 17.4195C2.39984 17.4195 2 17.8311 2 18.5851V21.4255C2 23.9356 3.31484 25.2312 5.84421 25.2312ZM18.5232 25.2312H21.3732C23.9047 25.2312 25.2174 23.926 25.2174 21.4255V18.5851C25.2174 17.8311 24.808 17.4195 24.0657 17.4195C23.3234 17.4195 22.9215 17.8332 22.9215 18.5851V21.2326C22.9215 22.3733 22.3105 22.9353 21.2305 22.9353H18.5232C17.7788 22.9353 17.3673 23.3448 17.3673 24.087C17.3673 24.8197 17.7788 25.2312 18.5232 25.2312Z" fill="black"/>
<path d="M8.82431 18.4763H18.4048C19.6095 18.4763 20.2367 17.8587 20.2367 16.6637V12.4245H6.99243V16.6637C6.99243 17.8587 7.61962 18.4763 8.82431 18.4763ZM9.3329 16.6995C9.00689 16.6995 8.78634 16.4811 8.78634 16.1572V15.129C8.78634 14.8051 9.00689 14.5866 9.3329 14.5866H10.6967C11.0206 14.5866 11.2508 14.8051 11.2508 15.129V16.1572C11.2508 16.4811 11.0206 16.6995 10.6967 16.6995H9.3329ZM6.99243 11.1089H20.2367V10.6144C20.2367 9.41934 19.6095 8.80176 18.4048 8.80176H8.82431C7.61962 8.80176 6.99243 9.41934 6.99243 10.6144V11.1089Z" fill="black"/>
</svg>
