<svg width="28" height="28" viewBox="0 0 28 28" fill="none" xmlns="http://www.w3.org/2000/svg">
<path d="M14.105 26.21C20.7369 26.21 26.2121 20.7273 26.2121 14.105C26.2121 7.47312 20.7273 2 14.0954 2C7.47523 2 2 7.47312 2 14.105C2 20.7273 7.48484 26.21 14.105 26.21Z" fill="black"/>
<path d="M14.1146 20.3577C10.7129 20.3577 7.87366 17.5088 7.87366 14.105C7.87366 10.699 10.7012 7.85233 14.105 7.85233C17.5269 7.85233 20.3673 10.6948 20.3673 14.105C20.3673 17.5109 17.5205 20.3577 14.1146 20.3577ZM14.1146 8.89435C13.4848 8.89435 12.8476 9.00943 12.2764 9.23115L13.7007 10.3547V12.0334L12.1728 13.1923L10.5901 12.5565L10.0634 10.8294C9.33451 11.7223 8.88264 12.853 8.88264 14.1062L10.2751 13.3353L11.9461 14.0105L12.5166 15.7604L11.6103 16.9041L9.73506 16.9276C10.4075 17.972 11.439 18.7562 12.6495 19.111L12.2572 17.4319L13.0974 16.3606H15.1201L15.9624 17.4404L15.5797 19.111C16.7806 18.7562 17.81 17.9804 18.4845 16.9297L16.6168 16.9105L15.703 15.755L16.2755 14.0105L17.9466 13.3353L19.3391 14.1062C19.3391 12.853 18.8872 11.7223 18.1658 10.8294L17.6316 12.5565L16.0468 13.1923L14.5306 12.0334V10.3463L15.9411 9.23115C15.3699 9.00521 14.7561 8.89435 14.1146 8.89435Z" fill="white"/>
</svg>
