<svg width="36" height="28" viewBox="0 0 36 28" fill="none" xmlns="http://www.w3.org/2000/svg">
<path d="M1.14421 26.1541C1.78124 26.1541 2.29592 25.6394 2.29592 25.0098V3.93389C2.29592 3.54623 2.54623 3.29592 2.91256 3.29592H32.2176C32.5861 3.29592 32.8364 3.54623 32.8364 3.93389V25.0098C32.8364 25.6394 33.3511 26.1541 33.9881 26.1541C34.6176 26.1541 35.1323 25.6394 35.1323 25.0098V3.72178C35.1323 2.07273 34.0521 1 32.3604 1H2.77194C1.08984 1 0 2.07273 0 3.72178V25.0098C0 25.6394 0.514684 26.1541 1.14421 26.1541Z" fill="black"/>
<path d="M4.07175 25.6554H31.0701C31.2726 25.6554 31.4421 25.4763 31.4421 25.2717V5.06433C31.4421 4.85011 31.2726 4.68066 31.0701 4.68066H4.07175C3.85964 4.68066 3.69019 4.85011 3.69019 5.06433V25.2717C3.69019 25.4763 3.85964 25.6554 4.07175 25.6554ZM5.79534 11.2242C5.52089 11.2242 5.32612 11.0316 5.32612 10.7571V6.69932C5.32612 6.42276 5.52089 6.2205 5.79534 6.2205H9.8655C10.14 6.2205 10.3444 6.42276 10.3444 6.69932V10.7571C10.3444 11.0316 10.14 11.2242 9.8655 11.2242H5.79534ZM12.3143 11.2242C12.0398 11.2242 11.8354 11.0316 11.8354 10.7571V6.69932C11.8354 6.42276 12.0398 6.2205 12.3143 6.2205H16.3748C16.6493 6.2205 16.8537 6.42276 16.8537 6.69932V10.7571C16.8537 11.0316 16.6493 11.2242 16.3748 11.2242H12.3143ZM18.8097 11.2242C18.5353 11.2242 18.3405 11.0316 18.3405 10.7571V6.69932C18.3405 6.42276 18.5353 6.2205 18.8097 6.2205H22.8607C23.1255 6.2205 23.3299 6.42276 23.3299 6.69932V10.7571C23.3299 11.0316 23.1255 11.2242 22.9376 11.2242H18.8097ZM25.286 11.2242C25.0115 11.2242 24.8168 11.0316 24.8168 10.7571V6.69932C24.8168 6.42276 25.0115 6.2205 25.286 6.2205H29.3369C29.6114 6.2205 29.804 6.42276 29.804 6.69932V10.7571C29.804 11.0316 29.6114 11.2242 29.4138 11.2242H25.286ZM15.053 23.6391C14.6878 23.6391 14.4239 23.3773 14.4239 23.0217C14.4239 22.6545 14.6878 22.3927 15.053 22.3927H20.089C20.4445 22.3927 20.7084 22.6545 20.7084 23.0217C20.7084 23.3773 20.4445 23.6391 20.089 23.6391H15.053Z" fill="black"/>
</svg>
