<svg width="28" height="29" viewBox="0 0 28 29" fill="none" xmlns="http://www.w3.org/2000/svg">
<path d="M3.84421 27.5838H23.9109C26.4499 27.5838 27.7552 26.2807 27.7552 23.778V16.8912C27.7552 15.6644 27.6431 15 27.0513 14.2976L23.6236 10.0669C22.0671 8.17082 21.4891 7.72058 19.3399 7.72058H17.1316V9.64713H19.4109C20.2327 9.64713 20.7443 9.8037 21.4113 10.6242L25.046 15.1334C25.4738 15.6656 25.3043 15.8958 24.7062 15.8958H17.3489C16.7311 15.8958 16.4583 16.335 16.4583 16.7965V16.8391C16.4583 18.1141 15.4657 19.47 13.8776 19.47C12.2991 19.47 11.3065 18.1141 11.3065 16.8391V16.7965C11.3065 16.335 11.0241 15.8958 10.4062 15.8958H3.06819C2.44124 15.8958 2.31022 15.6347 2.71663 15.1334L6.3246 10.653C7.01085 9.81331 7.5225 9.64713 8.34422 9.64713H10.6331V7.72058H8.41523C6.26602 7.72058 5.70727 8.16121 4.12196 10.0957L0.703827 14.2976C0.129142 14.9904 0 15.6644 0 16.8912V23.778C0 26.2807 1.31484 27.5838 3.84421 27.5838ZM3.9478 25.2879C2.85819 25.2879 2.26639 24.7162 2.26639 23.5777V17.9306H9.32062C9.68414 20.0313 11.5092 21.5831 13.8776 21.5831C16.2459 21.5831 18.071 20.0217 18.4345 17.9306H25.4888V23.5777C25.4888 24.7162 24.8874 25.2879 23.8073 25.2879H3.9478Z" fill="black"/>
<path d="M13.8777 17.0034C14.4723 17.0034 14.967 16.5099 14.967 15.9375V4.59843L14.8702 2.86288L15.6017 3.71272L17.2426 5.47195C17.4299 5.68054 17.7013 5.79116 17.9736 5.79116C18.5026 5.79116 18.9355 5.39741 18.9355 4.85906C18.9355 4.56961 18.8291 4.36101 18.6343 4.16414L14.6987 0.373357C14.42 0.0989056 14.1681 0 13.8777 0C13.5969 0 13.3353 0.0989056 13.0567 0.373357L9.12099 4.16414C8.92412 4.36101 8.81982 4.56961 8.81982 4.85906C8.81982 5.39741 9.2431 5.79116 9.76997 5.79116C10.0445 5.79116 10.3159 5.68054 10.5128 5.47195L12.1536 3.71272L12.8851 2.85327L12.7979 4.59843V15.9375C12.7979 16.5099 13.2831 17.0034 13.8777 17.0034Z" fill="black"/>
</svg>
