<svg width="28" height="28" viewBox="0 0 28 28" fill="none" xmlns="http://www.w3.org/2000/svg">
<path d="M4.08417 6.45398C3.67261 6.45398 3.44971 6.67476 3.44971 7.0725V20.8172C3.44971 21.2053 3.67261 21.4357 4.08417 21.4357H23.6806C24.0825 21.4357 24.315 21.2053 24.315 20.8172V7.0725C24.315 6.67476 24.0825 6.45398 23.6806 6.45398H4.08417ZM4.93331 7.69453H22.8218C22.9828 7.69453 23.0724 7.78195 23.0724 7.94507V19.9467C23.0724 20.1077 22.9828 20.1952 22.8218 20.1952H4.93331C4.77229 20.1952 4.69237 20.1077 4.69237 19.9467V7.94507C4.69237 7.78195 4.77229 7.69453 4.93331 7.69453ZM23.4349 18.6923L18.1643 13.7691C17.7668 13.3971 17.3065 13.2234 16.8333 13.2234C16.3324 13.2234 15.8902 13.3758 15.4884 13.7498L11.4614 17.3538L9.82237 15.863C9.4537 15.5198 9.03065 15.3642 8.60972 15.3642C8.21128 15.3642 7.84565 15.5262 7.46948 15.8534L4.1008 18.8791V19.9643C4.1008 20.6679 4.49526 20.9611 5.07628 20.9611H22.4498C23.0426 20.9611 23.4349 20.6679 23.4349 19.9643V18.6923ZM10.1419 13.9228C11.3107 13.9228 12.2749 12.9565 12.2749 11.7877C12.2749 10.6188 11.3107 9.65461 10.1419 9.65461C8.97088 9.65461 8.01299 10.6188 8.01299 11.7877C8.01299 12.9565 8.97088 13.9228 10.1419 13.9228Z" fill="black"/>
<path d="M1.00711 3.00421C0.402421 3.00421 0 3.40663 0 4.00921V23.8805C0 24.4851 0.402421 24.878 1.00711 24.878H26.7577C27.3623 24.878 27.7552 24.4851 27.7552 23.8805V4.00921C27.7552 3.40663 27.3623 3.00421 26.7577 3.00421H1.00711ZM2.58092 5.24951H25.1742C25.4194 5.24951 25.5077 5.34748 25.5077 5.58302V22.297C25.5077 22.5422 25.4194 22.6305 25.1742 22.6305H2.58092C2.34538 22.6305 2.24741 22.5422 2.24741 22.297V5.58302C2.24741 5.34748 2.34538 5.24951 2.58092 5.24951Z" fill="black"/>
</svg>
