<svg width="28" height="28" viewBox="0 0 28 28" fill="none" xmlns="http://www.w3.org/2000/svg">
<path d="M14.105 26.21C20.7369 26.21 26.2121 20.7273 26.2121 14.105C26.2121 7.47312 20.7273 2 14.0954 2C7.47523 2 2 7.47312 2 14.105C2 20.7273 7.48484 26.21 14.105 26.21ZM14.105 23.8255C8.71085 23.8255 4.39412 19.4991 4.39412 14.105C4.39412 8.71085 8.70124 4.38452 14.0954 4.38452C19.4895 4.38452 23.8276 8.71085 23.8276 14.105C23.8276 19.4991 19.4991 23.8255 14.105 23.8255Z" fill="black"/>
<path d="M10.7901 8.65086L18.7933 16.652C19.0535 16.4422 19.2412 16.1471 19.2412 15.7358V10.0513C19.2412 9.66711 19.0295 9.40204 18.5217 9.40204C18.1713 9.40204 17.6662 9.64391 16.7348 9.64391C14.8113 9.64391 13.4922 8.61782 11.3976 8.61782C11.1545 8.61782 10.9616 8.62743 10.7901 8.65086ZM14.7248 16.8488L8.94974 11.0717V19.7335C8.94974 20.0527 9.23708 20.338 9.55419 20.338C9.90435 20.338 10.1565 20.0645 10.1565 19.7335V16.3883C10.3717 16.2987 10.8109 16.1771 11.454 16.1771C12.711 16.1771 13.6757 16.5685 14.7248 16.8488ZM19.3989 20.2323C19.6192 20.4505 19.9928 20.4547 20.2228 20.2323C20.4548 19.9927 20.4548 19.6384 20.2228 19.4084L8.79411 7.97984C8.56419 7.74992 8.19809 7.74992 7.95856 7.97984C7.73614 8.20015 7.73614 8.58335 7.95856 8.80578L19.3989 20.2323Z" fill="black"/>
</svg>
