<svg width="28" height="28" viewBox="0 0 28 28" fill="none" xmlns="http://www.w3.org/2000/svg">
<path d="M14.105 26.2301C20.7369 26.2301 26.2121 20.7549 26.2121 14.123C26.2121 7.50288 20.7273 2.01804 14.0954 2.01804C7.47523 2.01804 2 7.50288 2 14.123C2 20.7549 7.48484 26.2301 14.105 26.2301Z" fill="black"/>
<path d="M11.554 20.3705L8.06604 16.8633C7.30361 16.0967 7.26565 15.3059 8.05361 14.518L13.815 8.6893C14.2753 8.2386 14.5971 7.91446 15.3152 7.91446H17.6454C18.2109 7.91446 18.5336 8.12985 18.9096 8.5154L20.0001 9.58672C20.3878 9.96688 20.5263 10.2854 20.5263 10.8605V13.1021C20.5263 13.8437 20.2022 14.1516 19.7493 14.6119L13.9165 20.3989C13.1264 21.1794 12.3302 21.1351 11.554 20.3705ZM16.1536 12.2883C16.507 12.6418 17.0765 12.6418 17.4492 12.2787C17.8122 11.9178 17.808 11.3366 17.4492 10.9777C17.0883 10.6189 16.5112 10.6189 16.1557 10.9777C15.7926 11.3483 15.7947 11.9295 16.1536 12.2883Z" fill="white"/>
</svg>
