<svg width="28" height="28" viewBox="0 0 28 28" fill="none" xmlns="http://www.w3.org/2000/svg">
<path d="M8.17062 26.4436H18.942C20.7359 26.4436 21.901 25.3453 21.9851 23.5493L22.779 6.66631H24.0755C24.653 6.66631 25.103 6.20764 25.103 5.63015C25.103 5.05687 24.653 4.60781 24.0755 4.60781H3.0371C2.46922 4.60781 2 5.05687 2 5.63015C2 6.21725 2.46922 6.66631 3.0371 6.66631H4.33367L5.1275 23.5589C5.21375 25.3549 6.3575 26.4436 8.17062 26.4436ZM8.40218 24.3703C7.75319 24.3703 7.28936 23.8917 7.25631 23.2003L6.4592 6.66631H20.6033L19.8467 23.2003C19.8233 23.9034 19.3594 24.3703 18.6912 24.3703H8.40218ZM10.1007 22.4761C10.5945 22.4761 10.9128 22.1632 10.9011 21.7024L10.542 9.41647C10.5282 8.95991 10.2057 8.65663 9.73319 8.65663C9.24359 8.65663 8.92742 8.96952 8.93913 9.42819L9.28859 21.7087C9.30242 22.1749 9.62702 22.4761 10.1007 22.4761ZM13.5526 22.4761C14.038 22.4761 14.3797 22.1674 14.3797 21.7109V9.42397C14.3797 8.96741 14.038 8.65663 13.5526 8.65663C13.0651 8.65663 12.733 8.96741 12.733 9.42397V21.7109C12.733 22.1674 13.0651 22.4761 13.5526 22.4761ZM17.0119 22.4761C17.4781 22.4761 17.8006 22.1749 17.8144 21.7087L18.1639 9.42819C18.1756 8.96952 17.8594 8.65663 17.3698 8.65663C16.8973 8.65663 16.5748 8.95991 16.561 9.42608L16.2116 21.7024C16.1998 22.1632 16.5181 22.4761 17.0119 22.4761ZM8.22875 5.39133H10.3916V2.95734C10.3916 2.35054 10.816 1.96124 11.4685 1.96124H15.6153C16.2678 1.96124 16.6923 2.35054 16.6923 2.95734V5.39133H18.8551V2.84859C18.8551 1.05656 17.7113 0 15.7695 0H11.3143C9.3725 0 8.22875 1.05656 8.22875 2.84859V5.39133Z" fill="black"/>
</svg>
