<svg width="30" height="28" viewBox="0 0 30 28" fill="none" xmlns="http://www.w3.org/2000/svg">
<path d="M4.91919 18.6372H6.15176L6.15387 8.54712H4.91919V18.6372ZM22.9804 18.6393H24.215V8.54712H22.9804V18.6393ZM14.5682 14.1787C18.1419 14.1787 20.7826 11.9313 21.0236 8.54712H19.6684C19.4903 11.2319 17.3999 13.0195 14.5682 13.0195C11.7268 13.0195 9.63645 11.234 9.45833 8.54712H8.10106C8.35372 11.9313 10.9923 14.1787 14.5682 14.1787Z" fill="black"/>
<path d="M3.31289 20.1494H25.8215C27.9762 20.1515 29.1344 18.9974 29.1344 16.8641V10.2948C29.1344 8.16575 27.9644 7.00958 25.8077 7.00958H3.30538C1.14867 7.00958 0 8.16575 0 10.2948V16.8641C0 18.9974 1.15617 20.1494 3.31289 20.1494ZM3.61523 17.9526C2.72038 17.9526 2.19467 17.4482 2.19467 16.4947V10.6642C2.19467 9.71285 2.71827 9.20848 3.62484 9.20848H25.5096C26.4162 9.20848 26.9301 9.71285 26.928 10.6642V16.4947C26.928 17.4482 26.4119 17.9526 25.4979 17.9526H3.61523ZM14.5683 11.3504C16.1831 11.3504 17.3655 10.3311 17.4776 8.792H11.6569C11.7614 10.3311 12.9438 11.3504 14.5683 11.3504Z" fill="black"/>
</svg>
