<svg width="28" height="28" viewBox="0 0 28 28" fill="none" xmlns="http://www.w3.org/2000/svg">
<path d="M14.105 26.21C20.7369 26.21 26.2121 20.7273 26.2121 14.105C26.2121 7.47312 20.7273 2 14.0954 2C7.47523 2 2 7.47312 2 14.105C2 20.7273 7.48484 26.21 14.105 26.21ZM14.105 23.8255C8.71085 23.8255 4.39412 19.4991 4.39412 14.105C4.39412 8.71085 8.70124 4.38452 14.0954 4.38452C19.4895 4.38452 23.8276 8.71085 23.8276 14.105C23.8276 19.4991 19.4991 23.8255 14.105 23.8255Z" fill="black"/>
<path d="M11.6817 21.5763C12.2346 21.5763 12.584 21.2674 12.5723 20.7346L12.4476 13.5433C12.4476 13.3005 12.5308 13.1437 12.7397 13.0457C13.5984 12.6707 13.9926 12.2681 13.9244 11.0962L13.7411 7.21026C13.7294 6.91097 13.5611 6.73307 13.2895 6.73307C13.0254 6.73307 12.8634 6.92479 12.8634 7.22409L12.9199 11.0121C12.9199 11.2326 12.7664 11.3828 12.5618 11.3828C12.3358 11.3828 12.1802 11.2326 12.1802 11.0238L12.1333 7.1144C12.1333 6.82143 11.948 6.64893 11.6817 6.64893C11.4122 6.64893 11.2343 6.82143 11.2343 7.1144L11.1682 11.0238C11.1682 11.2326 11.0201 11.3828 10.8059 11.3828C10.5991 11.3828 10.4477 11.2326 10.4477 11.0121L10.5063 7.22409C10.5063 6.92479 10.3423 6.73307 10.0781 6.73307C9.80437 6.73307 9.62648 6.91518 9.61476 7.21026L9.4432 11.0962C9.39422 12.2681 9.76922 12.6707 10.6334 13.0457C10.8368 13.1437 10.9221 13.3005 10.9221 13.5433L10.7953 20.7346C10.7836 21.2695 11.1352 21.5763 11.6817 21.5763ZM16.1721 16.12L16.0345 20.7058C16.0111 21.2695 16.3743 21.5763 16.9134 21.5763C17.4834 21.5763 17.819 21.2866 17.819 20.7656V7.1369C17.819 6.80971 17.5877 6.64893 17.3566 6.64893C17.103 6.64893 16.9411 6.78745 16.7365 7.0837C15.6996 8.52347 14.9943 11.3053 14.9943 13.8302V14.2649C14.9943 14.7274 15.1575 15.0353 15.5046 15.2739L15.8449 15.5076C16.0772 15.6674 16.1763 15.839 16.1721 16.12Z" fill="black"/>
</svg>
