<svg width="28" height="30" viewBox="0 0 28 30" fill="none" xmlns="http://www.w3.org/2000/svg">
<path d="M7.79749 6.70523H10.0934V3.98694C10.0934 2.90694 10.6554 2.29592 11.794 2.29592H16.7059V7.90477C16.7059 9.35484 17.4697 10.1091 18.9101 10.1091H24.0802V19.8122C24.0802 20.9018 23.5086 21.5032 22.37 21.5032H20.1753V23.7991H22.5704C25.073 23.7991 26.3762 22.4747 26.3762 19.9549V10.6671C26.3762 9.12656 26.0558 8.14289 25.1305 7.19414L19.2863 1.24781C18.41 0.350155 17.356 0 16.0072 0H11.6033C9.1006 0 7.79749 1.32234 7.79749 3.84421V6.70523ZM18.6223 7.61508V3.25545L23.4826 8.19258H19.1902C18.7885 8.19258 18.6223 8.0168 18.6223 7.61508Z" fill="black"/>
<path d="M2 25.965C2 28.4965 3.29562 29.8092 5.80577 29.8092H16.775C19.2851 29.8092 20.5808 28.4848 20.5808 25.965V16.9455C20.5808 15.3759 20.3818 14.6416 19.4 13.6406L13.0484 7.19085C12.1051 6.22827 11.3014 6.01007 9.88976 6.01007H5.80577C3.30523 6.01007 2 7.3228 2 9.85428V25.965ZM4.29592 25.8223V9.9874C4.29592 8.91701 4.85795 8.30599 5.99866 8.30599H9.59984V14.7211C9.59984 16.4001 10.43 17.2186 12.0877 17.2186H18.2827V25.8223C18.2827 26.9119 17.7111 27.5133 16.5821 27.5133H5.98905C4.85795 27.5133 4.29592 26.9119 4.29592 25.8223ZM12.3146 15.1938C11.8311 15.1938 11.6246 14.9894 11.6246 14.5038V8.75646L17.9638 15.1938H12.3146Z" fill="black"/>
</svg>
