<svg width="28" height="28" viewBox="0 0 28 28" fill="none" xmlns="http://www.w3.org/2000/svg">
<path d="M14.105 26.21C20.7369 26.21 26.2121 20.7273 26.2121 14.105C26.2121 7.47312 20.7273 2 14.0954 2C7.47523 2 2 7.47312 2 14.105C2 20.7273 7.48484 26.21 14.105 26.21ZM14.105 23.8255C8.71085 23.8255 4.39412 19.4991 4.39412 14.105C4.39412 8.71085 8.70124 4.38452 14.0954 4.38452C19.4895 4.38452 23.8276 8.71085 23.8276 14.105C23.8276 19.4991 19.4991 23.8255 14.105 23.8255Z" fill="black"/>
<path d="M11.3349 20.3253H17.3762C18.6812 20.3253 19.3468 19.6384 19.3468 18.3259V13.4091H14.7167C13.944 13.4091 13.5699 13.0447 13.5699 12.2719V7.57251H11.3349C10.0416 7.57251 9.36426 8.25946 9.36426 9.57196V18.3259C9.36426 19.648 10.0416 20.3253 11.3349 20.3253ZM14.8801 12.443H19.2828C19.2519 12.1726 19.0475 11.9042 18.7302 11.5869L15.3859 8.18282C15.0844 7.87181 14.8065 7.66743 14.536 7.6386V12.0969C14.536 12.3259 14.6553 12.443 14.8801 12.443Z" fill="black"/>
</svg>
