<svg width="29" height="28" viewBox="0 0 29 28" fill="none" xmlns="http://www.w3.org/2000/svg">
<path d="M2.93109 23.7787H25.5335C27.2871 23.7787 28.4688 22.5906 28.4688 20.8349V7.95555C28.4688 6.19985 27.2871 5.01392 25.5335 5.01392H2.93109C1.17961 5.01392 0 6.19985 0 7.95555V20.8349C0 22.5906 1.17961 23.7787 2.93109 23.7787ZM3.04522 21.5566C2.55046 21.5566 2.22421 21.2111 2.22421 20.6875V8.10508C2.22421 7.57937 2.55046 7.23601 3.04522 7.23601H25.4468C25.9289 7.23601 26.2446 7.56883 26.2446 8.07977V20.7107C26.2446 21.2216 25.9289 21.5566 25.4468 21.5566H3.04522ZM4.70225 20.1063H16.0859C16.7391 20.1063 17.1642 19.6811 17.1642 19.03V9.76047C17.1642 9.10937 16.7391 8.68421 16.0859 8.68421H4.70225C4.04694 8.68421 3.62389 9.10937 3.62389 9.76047V19.03C3.62389 19.6811 4.04694 20.1063 4.70225 20.1063ZM5.37818 18.6452C5.21506 18.6452 5.08287 18.5226 5.08287 18.3499V10.4406C5.08287 10.2679 5.21506 10.1453 5.37818 10.1453H15.4078C15.573 10.1453 15.7052 10.2679 15.7052 10.4406V18.3499C15.7052 18.5226 15.573 18.6452 15.4078 18.6452H5.37818ZM18.6717 22.3342H20.156V6.44453H18.6717V22.3342ZM19.4667 18.7178H27.1465V17.2335H19.4667V18.7178ZM21.5027 10.9609H24.8241C24.9666 10.9609 25.0931 10.844 25.0931 10.7036V8.95327C25.0931 8.81078 24.9666 8.68421 24.8241 8.68421H21.5027C21.3581 8.68421 21.2337 8.81078 21.2337 8.95327V10.7036C21.2337 10.844 21.3581 10.9609 21.5027 10.9609ZM21.884 12.9812H24.4427C24.8238 12.9812 25.0931 12.7216 25.0931 12.3405C25.0931 11.9498 24.8238 11.6901 24.4427 11.6901H21.884C21.5008 11.6901 21.2337 11.9498 21.2337 12.3405C21.2337 12.7216 21.5008 12.9812 21.884 12.9812ZM21.884 15.025H24.4427C24.8238 15.025 25.0931 14.7578 25.0931 14.3746C25.0931 13.9935 24.8238 13.7359 24.4427 13.7359H21.884C21.5008 13.7359 21.2337 13.9935 21.2337 14.3746C21.2337 14.7578 21.5008 15.025 21.884 15.025Z" fill="black"/>
</svg>
