<svg width="28" height="28" viewBox="0 0 28 28" fill="none" xmlns="http://www.w3.org/2000/svg">
<path d="M4 24.2714C4 25.2593 4.23719 25.8501 5.14023 26.2973C7.16312 27.1983 9.97093 27.7809 13.281 27.7809C16.6741 27.7809 20.4604 27.2613 23.1025 25.9807C24.572 25.2853 24.9498 24.6199 24.9498 23.0845V5.17218C24.9498 3.16406 24.0344 2.22305 22.0987 2.22305H20.9992V1.81757C20.9992 0.596249 20.3394 0 19.2428 0C18.8617 0 18.4124 0.0820312 17.8916 0.252422C14.3652 1.39781 11.1203 2.15719 7.00984 2.15719H6.11453C4.7582 2.15719 4 2.92711 4 4.16835V24.2714ZM8.32046 11.3142V7.30054C8.32046 7.13437 8.44187 6.99374 8.60804 6.98202C11.3132 6.86812 13.7465 6.43616 16.2637 5.50311C16.4043 5.44452 16.6525 5.50311 16.6525 5.78647V9.96327C16.6525 10.0687 16.5939 10.1763 16.4863 10.2136C14.2898 11.1105 11.4123 11.5955 8.60804 11.5976C8.45359 11.5976 8.32046 11.5017 8.32046 11.3142ZM10.1141 25.467C14.2935 25.3001 18.033 24.1502 20.098 22.5769C20.7362 22.0908 21.0013 21.5993 21.0013 20.5153V4.41983H22.0534C22.5205 4.41983 22.753 4.66944 22.753 5.19749V22.8523C22.753 23.5448 22.637 23.8322 21.9648 24.123C19.8332 25.0519 16.9021 25.6491 14.1163 25.6765C12.7789 25.6913 11.4983 25.6282 10.1141 25.467Z" fill="black"/>
</svg>
