<svg width="28" height="28" viewBox="0 0 28 28" fill="none" xmlns="http://www.w3.org/2000/svg">
<path d="M10.8721 9.19238H16.3694C17.2893 9.19238 17.927 8.54504 17.927 7.62512V6.58684C17.927 5.04817 16.8407 4.00122 15.2179 4.00122H12.0215C10.4008 4.00122 9.31234 5.04817 9.31234 6.58684V7.62512C9.31234 8.54504 9.95007 9.19238 10.8721 9.19238ZM11.357 7.35114C11.2302 7.35114 11.1461 7.2745 11.1461 7.1477V6.58684C11.1461 6.0909 11.4585 5.83286 12.0151 5.83286H15.2263C15.7808 5.83286 16.0933 6.0909 16.0933 6.58684V7.1477C16.0933 7.2745 16.0091 7.35114 15.8919 7.35114H11.357ZM10.9302 16.1371H16.3187C17.2682 16.1371 17.927 15.4888 17.927 14.5445V12.3834C17.927 11.4487 17.2682 10.8004 16.3187 10.8004H10.9302C9.98077 10.8004 9.31234 11.4487 9.31234 12.3834V14.5445C9.31234 15.4888 9.98077 16.1371 10.9302 16.1371ZM11.357 14.3055C11.2302 14.3055 11.1461 14.2192 11.1461 14.0924V12.8355C11.1461 12.7183 11.2302 12.6321 11.357 12.6321H15.8919C16.0091 12.6321 16.0933 12.7183 16.0933 12.8355V14.0924C16.0933 14.2192 16.0091 14.3055 15.8919 14.3055H11.357ZM11.1705 11.9142H13.0042V8.35333H11.1705V11.9142ZM14.2469 11.9142H16.0785V8.35333H14.2469V11.9142ZM11.1705 22.2269H13.0042V15.5017H11.1705V22.2269ZM14.2469 22.2269H16.0785V15.5017H14.2469V22.2269ZM2.09359 23.508H25.1458C25.7479 23.508 26.249 23.0144 26.249 22.4048C26.249 21.8027 25.7458 21.3112 25.1458 21.3112H2.09359C1.49148 21.3112 1 21.8048 1 22.4048C1 23.0165 1.49359 23.508 2.09359 23.508Z" fill="black"/>
</svg>
