<svg width="28" height="28" viewBox="0 0 28 28" fill="none" xmlns="http://www.w3.org/2000/svg">
<path d="M14.105 26.2301C20.7369 26.2301 26.2121 20.7549 26.2121 14.123C26.2121 7.50291 20.7273 2.01807 14.0954 2.01807C7.47523 2.01807 2 7.50291 2 14.123C2 20.7549 7.48484 26.2301 14.105 26.2301Z" fill="black"/>
<path d="M12.5967 18.5637C10.0378 19.2434 8.09995 18.0716 7.38721 15.4051L6.4401 11.7828C6.16214 10.7741 6.52003 10.1349 7.52878 9.87501L12.6543 8.50814C13.6438 8.25782 14.2926 8.6136 14.5621 9.59681L15.5369 13.2094C16.2635 15.8876 15.1502 17.8702 12.5967 18.5637ZM12.1024 16.6878C13.1922 16.4087 13.9007 15.5691 13.938 14.54C13.9635 14.3312 13.7931 14.2353 13.6099 14.3567C13.0504 14.7404 12.3025 15.0493 11.7039 15.2059C11.1096 15.3678 10.301 15.4829 9.61893 15.4264C9.4176 15.4168 9.31003 15.5616 9.42721 15.7428C9.97799 16.6016 11.0285 16.9787 12.1024 16.6878ZM9.4912 13.3053C9.84487 13.1902 10.0324 13.4012 10.2337 13.3384C10.3157 13.3053 10.3509 13.1806 10.3115 13.0262C10.1613 12.6043 9.72768 12.3369 9.27276 12.4519C8.82323 12.5553 8.53237 13.0262 8.6826 13.4832C8.73159 13.6121 8.81151 13.7134 8.88182 13.692C9.06932 13.6686 9.10237 13.4129 9.4912 13.3053ZM12.6531 12.4519C13.0026 12.3369 13.1943 12.5457 13.3893 12.4967C13.4521 12.4519 13.5203 12.3369 13.4617 12.1962C13.3542 11.7254 12.8854 11.4952 12.4305 11.5848C11.9873 11.6902 11.7039 12.1962 11.8232 12.616C11.8818 12.747 11.9735 12.8525 12.0417 12.8248C12.2174 12.8056 12.276 12.5457 12.6531 12.4519ZM20.9861 11.2281C21.981 11.4784 22.3527 12.1292 22.0769 13.1145L21.1202 16.7251C20.4011 19.3916 18.4633 20.5634 15.9086 19.8955C15.182 19.6962 14.5535 19.3841 14.0826 18.9823C14.9838 18.5169 15.6656 17.8522 16.0853 17.0426C16.259 17.064 16.4402 17.1034 16.6075 17.1598C17.1562 17.3122 17.6048 17.5423 18.1108 17.9994C18.2535 18.1676 18.4549 18.0718 18.4549 17.847C18.4176 17.033 17.7986 16.3384 16.8909 16.1178C16.7758 16.0826 16.6256 16.073 16.5084 16.0454C16.7566 15.1292 16.7427 14.082 16.4285 12.9687L15.5709 9.77915C15.6529 9.79298 15.7626 9.8047 15.8606 9.84946L20.9861 11.2281ZM18.7989 15.1728C19.1505 15.2741 19.5117 15.0514 19.6213 14.6977C19.7151 14.3483 19.5117 13.9829 19.1505 13.887C18.7872 13.7912 18.4218 13.9946 18.3377 14.3483C18.2343 14.7116 18.4452 15.0983 18.7989 15.1728Z" fill="white"/>
</svg>
