<svg width="30" height="28" viewBox="0 0 30 28" fill="none" xmlns="http://www.w3.org/2000/svg">
<path d="M3.7071 25.5989H16.3127C16.2863 25.4374 16.2661 25.2888 16.2502 25.1189L16.0927 23.4021H3.84022C2.75952 23.4021 2.19678 22.8298 2.19678 21.7394V9.70054C2.19678 9.29952 2.22233 9.13101 2.38757 8.90929L4.65585 5.90272C4.85694 5.63249 4.91342 5.42484 4.91342 5.08124V3.12702C4.91342 2.4635 5.22749 2.13983 5.84295 2.13983H15.2932C15.8991 2.13983 16.211 2.4635 16.211 3.12702V5.08124C16.211 5.42484 16.2771 5.63249 16.4686 5.90272L18.6188 8.75109C18.8187 8.89969 18.9075 9.00867 18.9813 9.26063H21.0886C21.0663 8.62055 20.9608 8.30812 20.6355 7.86867L18.3508 4.84055V2.80804C18.3508 1.00054 17.3023 0 15.4062 0H5.71827C3.8339 0 2.77359 1.00054 2.77359 2.80804V4.84055L0.498515 7.86867C0.109687 8.3864 0 8.77382 0 9.64898V21.9302C0 24.3478 1.2607 25.5989 3.7071 25.5989ZM7.45288 5.45108H13.6533C14.0824 5.45108 14.437 5.09437 14.437 4.65562C14.437 4.22437 14.0803 3.84843 13.6533 3.84843H7.45288C7.02585 3.84843 6.66913 4.22437 6.66913 4.65562C6.66913 5.09437 7.02374 5.45108 7.45288 5.45108Z" fill="black"/>
<path d="M20.6446 27.6247H25.9944C27.67 27.6247 28.5109 26.7784 28.6876 24.9559L29.9033 12.3503C29.9809 11.5211 29.511 10.9736 28.7104 10.9736H17.919C17.128 10.9736 16.6602 11.5307 16.7357 12.3503L17.9514 24.9559C18.1281 26.7784 18.9594 27.6247 20.6446 27.6247ZM20.7423 25.4886C20.3179 25.4886 20.1088 25.2967 20.0544 24.8371L18.9484 13.1118H27.6906L26.575 24.8371C26.5302 25.2967 26.3211 25.4886 25.8967 25.4886H20.7423ZM22.476 11.6661H24.3421L24.4208 10.4697C24.4635 9.91537 24.6224 9.60294 25.0243 9.30974L28.9384 6.50146C29.9619 5.77373 28.881 4.22991 27.801 5.01412L24.0297 7.74248C23.0978 8.41982 22.69 9.17053 22.5824 10.3569L22.476 11.6661Z" fill="black"/>
</svg>
