<svg width="28" height="28" viewBox="0 0 28 28" fill="none" xmlns="http://www.w3.org/2000/svg">
<path d="M4.84421 24.825H24.3062C26.541 24.825 27.8558 23.5198 27.8558 21.0192V8.96718C27.8558 6.46664 26.5314 5.16141 24.0116 5.16141H13.1076C12.2706 5.16141 11.7627 4.96758 11.1219 4.43625L10.4493 3.8925C9.62944 3.21727 9.02335 3 7.79569 3H4.47905C2.29539 3 1 4.27523 1 6.73405V21.0192C1 23.5294 2.31484 24.825 4.84421 24.825ZM4.97733 22.5291C3.88772 22.5291 3.29592 21.967 3.29592 20.8263V6.93233C3.29592 5.85655 3.88209 5.28631 4.93538 5.28631H7.195C8.01273 5.28631 8.50468 5.48764 9.15929 6.02108L9.82984 6.57444C10.6443 7.23256 11.2696 7.45944 12.4973 7.45944H23.8689C24.9489 7.45944 25.5599 8.03108 25.5599 9.16968V20.8359C25.5599 21.967 24.9489 22.5291 23.8689 22.5291H4.97733Z" fill="black"/>
<path d="M14.2028 17.1007C14.7979 17.1007 15.1766 16.7491 15.2041 16.3125C15.2062 16.2656 15.2083 16.2187 15.2104 16.1761C15.2399 15.611 15.6189 15.2466 16.3279 14.7806C17.3973 14.0796 18.0883 13.4552 18.0883 12.1966C18.0883 10.3962 16.468 9.36865 14.5448 9.36865C12.692 9.36865 11.4341 10.2117 11.0936 11.2226C11.0266 11.4164 10.9893 11.591 10.9893 11.789C10.9893 12.3129 11.3971 12.6319 11.8384 12.6319C12.2345 12.6319 12.5026 12.4699 12.7166 12.1814L12.8809 11.9573C13.2529 11.3688 13.7723 11.054 14.4175 11.054C15.3039 11.054 15.8915 11.5722 15.8915 12.2997C15.8915 12.9916 15.4387 13.3296 14.5115 13.9723C13.7444 14.505 13.1816 15.0602 13.1816 16.0465C13.1816 16.087 13.1816 16.1255 13.1816 16.166C13.1816 16.7845 13.5508 17.1007 14.2028 17.1007ZM14.1857 20.4206C14.8797 20.4206 15.4483 19.9104 15.4483 19.2269C15.4483 18.5456 14.8914 18.045 14.1857 18.045C13.4896 18.045 12.9189 18.5531 12.9189 19.2269C12.9189 19.9008 13.4992 20.4206 14.1857 20.4206Z" fill="black"/>
</svg>
