<svg width="28" height="28" viewBox="0 0 28 28" fill="none" xmlns="http://www.w3.org/2000/svg">
<path d="M20.8958 20.8958C25.4753 16.2972 27.0859 9.78975 25.5988 4.77459C25.176 3.41358 24.7279 2.95374 23.3551 2.54265C18.3496 1.04593 11.8347 2.65655 7.236 7.236C2.65655 11.8347 1.04593 18.3496 2.54265 23.3551C2.95374 24.7183 3.41358 25.176 4.77459 25.5892C9.78975 27.0859 16.2972 25.4753 20.8958 20.8958ZM19.3443 19.3443C15.4237 23.2862 10.3063 24.7682 5.50256 23.5014C4.90139 23.35 4.78396 23.2326 4.61451 22.5878C3.3892 17.8075 4.84771 12.704 8.78545 8.78545C12.7136 4.84771 17.8075 3.37959 22.5878 4.6049C23.2326 4.78396 23.35 4.90139 23.5014 5.50256C24.7778 10.2967 23.2862 15.4237 19.3443 19.3443ZM16.1094 2.93921L14.4693 4.57936L23.5801 13.6998L25.2299 12.0501L16.1094 2.93921ZM2.94882 16.1094L12.0501 25.2299L13.6998 23.5801L4.58897 14.4693L2.94882 16.1094ZM9.29335 16.4115L11.7278 18.8364C11.9523 19.0705 12.3088 19.0705 12.5408 18.8364C12.7654 18.614 12.7654 18.2479 12.5408 18.0137L10.116 15.591C9.89358 15.3665 9.51788 15.3665 9.29335 15.591C9.07093 15.823 9.07093 16.1795 9.29335 16.4115ZM10.8784 14.819L13.3129 17.2534C13.5332 17.4758 13.9014 17.4758 14.1259 17.2534C14.3483 17.031 14.3483 16.6532 14.1259 16.4308L11.7011 14.0059C11.4787 13.7814 11.0987 13.7814 10.8784 14.0059C10.656 14.2283 10.656 14.5965 10.8784 14.819ZM12.4614 13.236L14.8958 15.6704C15.1183 15.8908 15.4865 15.8908 15.711 15.6704C15.9313 15.4384 15.9313 15.0681 15.711 14.8553L13.2765 12.4208C13.0616 12.2005 12.6838 12.2005 12.4614 12.4208C12.239 12.6454 12.239 13.0136 12.4614 13.236ZM14.0507 11.6563L16.4755 14.0812C16.7076 14.3057 17.0737 14.3057 17.2961 14.0812C17.5302 13.8491 17.5302 13.4926 17.2961 13.2681L14.8733 10.8337C14.6392 10.6112 14.2827 10.6112 14.0507 10.8337C13.8262 11.0582 13.8262 11.4339 14.0507 11.6563ZM15.6433 10.0733L18.0585 12.4865C18.2905 12.7206 18.6587 12.7206 18.8812 12.4865C19.1153 12.2662 19.1153 11.9076 18.8812 11.6755L16.4563 9.24108C16.2243 9.01655 15.8657 9.01655 15.6433 9.24108C15.4112 9.47311 15.4112 9.84131 15.6433 10.0733ZM11.1259 17.8169L17.8265 11.1259L17.0134 10.3129L10.315 17.0134L11.1259 17.8169Z" fill="black"/>
</svg>
