<svg width="28" height="28" viewBox="0 0 28 28" fill="none" xmlns="http://www.w3.org/2000/svg">
<path d="M14.105 26.21C20.7369 26.21 26.2121 20.7273 26.2121 14.105C26.2121 7.47312 20.7273 2 14.0954 2C7.47523 2 2 7.47312 2 14.105C2 20.7273 7.48484 26.21 14.105 26.21ZM14.105 23.8255C8.71085 23.8255 4.39412 19.4991 4.39412 14.105C4.39412 8.71085 8.70124 4.38452 14.0954 4.38452C19.4895 4.38452 23.8276 8.71085 23.8276 14.105C23.8276 19.4991 19.4991 23.8255 14.105 23.8255Z" fill="black"/>
<path d="M9.05096 19.9583C9.58463 20.4898 10.2055 20.4493 10.7274 19.8507L15.9598 13.8694L14.2161 12.1236L8.22314 17.3293C7.61166 17.8609 7.5765 18.4742 8.10807 19.0058L9.05096 19.9583ZM19.1316 15.0261C19.3988 15.2837 19.7063 15.305 19.9693 15.0516L21.6395 13.3869C21.8949 13.1452 21.8832 12.8185 21.6277 12.5513L21.2173 12.1527C20.9766 11.9077 20.8351 11.8746 20.5709 11.8981L19.9599 11.9621L19.5462 11.5676L19.7286 10.8148C19.8319 10.4058 19.6817 9.99566 19.2577 9.56417L18.1344 8.46425C16.5467 6.88409 13.5997 6.71675 11.9928 8.33745C11.6956 8.62503 11.7299 8.9412 11.9078 9.16268C12.0622 9.31901 12.2963 9.40409 12.5419 9.31573C13.5952 9.01081 14.5332 8.9501 15.3137 9.41182L14.9148 10.4677C14.723 10.9716 14.8126 11.3358 15.1374 11.6607L16.3484 12.8717C16.6262 13.1494 16.9093 13.2228 17.2991 13.1483L18.1384 12.968L18.5541 13.3892L18.488 13.9927C18.4583 14.2548 18.4902 14.4252 18.7234 14.6487L19.1316 15.0261Z" fill="black"/>
</svg>
