<svg width="36" height="28" viewBox="0 0 36 28" fill="none" xmlns="http://www.w3.org/2000/svg">
<path d="M16.2715 19.5509L13.4803 17.3288H3.85312C2.89217 17.3288 2.29592 16.7518 2.29592 15.8101V9.2103C2.29592 8.2803 2.89217 7.68944 3.85312 7.68944H13.4215L15.9063 5.46734H3.78773C1.31601 5.46734 0 6.75664 0 9.21663V15.8016C0 18.2541 1.31601 19.5509 3.78773 19.5509H16.2715ZM21.7671 17.3288L19.2508 19.5509H31.8326C34.3235 19.5509 35.6299 18.2541 35.6299 15.8016V9.21663C35.6299 6.75664 34.3235 5.46734 31.8326 5.46734H19.6901L21.8876 7.68944H31.7672C32.7281 7.68944 33.334 8.2803 33.334 9.2103V15.8101C33.334 16.7518 32.7281 17.3288 31.7672 17.3288H21.7671ZM17.7984 20.0258C22.0413 20.0258 25.3193 16.7403 25.3193 12.5187C25.3193 8.28546 22.0413 5 17.7984 5C13.579 5 10.301 8.28546 10.301 12.5187C10.301 16.7403 13.579 20.0258 17.7984 20.0258ZM17.7984 18.001C14.7185 18.001 12.3258 15.6062 12.3258 12.5187C12.3258 9.4196 14.7185 7.02476 17.7984 7.02476C20.8976 7.02476 23.2945 9.4196 23.2945 12.5187C23.2945 15.6062 20.8976 18.001 17.7984 18.001ZM17.7984 16.7598C20.1837 16.7598 22.0533 14.8923 22.0533 12.5187C22.0533 10.1452 20.1837 8.26601 17.7984 8.26601C15.4249 8.26601 13.5574 10.1452 13.5574 12.5187C13.5574 14.8923 15.4249 16.7598 17.7984 16.7598ZM17.7984 14.9947C16.409 14.9947 15.3225 13.9081 15.3225 12.5187C15.3225 11.1273 16.409 10.0311 17.7984 10.0311C19.1899 10.0311 20.2882 11.1273 20.2882 12.5187C20.2882 13.9081 19.1899 14.9947 17.7984 14.9947ZM9.04006 18.6294H2.61844V20.5018C2.61844 21.1625 3.07054 21.6167 3.73335 21.6167H7.92515C8.59968 21.6167 9.04006 21.1625 9.04006 20.5018V18.6294ZM26.5898 18.6294V20.5018C26.5898 21.1625 27.0323 21.6167 27.7047 21.6167H31.8869C32.5594 21.6167 33.0115 21.1625 33.0115 20.5018V18.6294H26.5898ZM26.8268 10.201C26.8268 10.7237 27.2004 11.0972 27.7251 11.0972H30.5252C31.0479 11.0972 31.4311 10.7237 31.4311 10.201C31.4311 9.67624 31.0479 9.29304 30.5252 9.29304H27.7251C27.2004 9.29304 26.8268 9.67624 26.8268 10.201ZM26.8268 13.1267C26.8268 13.6494 27.2004 14.0326 27.7251 14.0326H30.5252C31.0479 14.0326 31.4311 13.6494 31.4311 13.1267C31.4311 12.6019 31.0479 12.2284 30.5252 12.2284H27.7251C27.2004 12.2284 26.8268 12.6019 26.8268 13.1267Z" fill="black"/>
</svg>
