<svg width="28" height="28" viewBox="0 0 28 28" fill="none" xmlns="http://www.w3.org/2000/svg">
<path d="M14.105 26.2301C20.7369 26.2301 26.2121 20.7549 26.2121 14.123C26.2121 7.50289 20.7273 2.01805 14.0954 2.01805C7.47523 2.01805 2 7.50289 2 14.123C2 20.7549 7.48484 26.2301 14.105 26.2301Z" fill="black"/>
<path d="M16.3011 19.8458C15.9636 19.8458 15.6973 19.7223 15.3896 19.4166L12.7177 16.8704C12.6847 16.8394 12.6036 16.8298 12.5513 16.8298H10.7492C9.80348 16.8298 9.31152 16.3123 9.31152 15.3294V12.9573C9.31152 11.9647 9.80348 11.4568 10.7492 11.4568H12.5513C12.6036 11.4568 12.6868 11.4472 12.7198 11.4024L15.3896 8.88921C15.7379 8.55265 15.9624 8.42913 16.2894 8.42913C16.7588 8.42913 17.1048 8.80061 17.1048 9.26046V19.0358C17.1048 19.5052 16.7588 19.8458 16.3011 19.8458Z" fill="white"/>
</svg>
