<svg width="28" height="28" viewBox="0 0 28 28" fill="none" xmlns="http://www.w3.org/2000/svg">
<path d="M1 6.82796C1 7.61757 1.53836 8.14421 2.3514 8.14421H5.15571V22.3375C5.15571 24.8912 6.42813 26.1733 8.97765 26.1733H22.6063C24.9194 26.1733 26.4538 24.5781 26.4538 22.1852V18.8753C26.4538 18.0836 25.9155 17.5591 25.1024 17.5591H24.1445V4.84632C24.1445 2.31484 22.8393 1 20.3387 1H4.23062C2.30968 1 1 2.32023 1 4.36163V6.82796ZM7.45163 22.2522V4.50085C7.45163 4.06467 7.41319 3.65733 7.33631 3.29592H20.1362C21.277 3.29592 21.8486 3.88772 21.8486 4.97944V17.5591H12.0416C11.2286 17.5591 10.6806 18.0836 10.6806 18.8753V22.2522C10.6806 23.2237 10.0098 23.8773 9.07679 23.8773C8.12452 23.8773 7.45163 23.1948 7.45163 22.2522ZM3.19678 5.94742V4.36163C3.19678 3.6278 3.6353 3.19889 4.23062 3.19889C4.84515 3.19889 5.25484 3.6278 5.25484 4.36163V5.94742H3.19678ZM12.5828 23.8773C12.8357 23.3913 12.9765 22.807 12.9765 22.1148V19.855H24.1579V22.086C24.1579 23.1639 23.4988 23.8773 22.5093 23.8773H12.5828ZM10.7085 12.1741H14.8544C15.2868 12.1741 15.602 11.8588 15.602 11.4498C15.602 11.027 15.2868 10.6905 14.8544 10.6905H10.7085C10.2719 10.6905 9.94913 11.027 9.94913 11.4498C9.94913 11.8588 10.2719 12.1741 10.7085 12.1741ZM10.7085 8.16647H18.5959C19.0262 8.16647 19.3415 7.83952 19.3415 7.41671C19.3415 7.00772 19.0262 6.68288 18.5959 6.68288H10.7085C10.2719 6.68288 9.94913 7.00772 9.94913 7.41671C9.94913 7.83952 10.2719 8.16647 10.7085 8.16647Z" fill="black"/>
</svg>
