<svg width="28" height="28" viewBox="0 0 28 28" fill="none" xmlns="http://www.w3.org/2000/svg">
<path d="M13.8965 26.4196C14.103 26.4196 14.4203 26.3388 14.7175 26.1768C21.4572 22.4976 23.793 20.8143 23.793 16.5391V7.67971C23.793 6.29105 23.2551 5.80097 22.0923 5.30527C20.7897 4.76269 16.3987 3.21839 15.1213 2.78222C14.7332 2.65776 14.29 2.5769 13.8965 2.5769C13.503 2.5769 13.0598 2.67909 12.6812 2.78222C11.4039 3.14691 7.00328 4.7723 5.70062 5.30527C4.5475 5.79136 4 6.29105 4 7.67971V16.5391C4 20.8143 6.34539 22.488 13.0755 26.1768C13.3823 26.3388 13.69 26.4196 13.8965 26.4196ZM13.8965 23.9589C13.728 23.9589 13.5616 23.8971 13.2205 23.6903C7.86343 20.4239 6.20077 19.5452 6.20077 16.1013V8.05354C6.20077 7.64034 6.27952 7.47534 6.61186 7.34432C8.34671 6.65596 11.7151 5.53166 13.2843 4.91502C13.5477 4.81611 13.7296 4.78213 13.8965 4.78213C14.0634 4.78213 14.2431 4.82572 14.5087 4.91502C16.0778 5.53166 19.427 6.72323 21.1907 7.34432C21.5113 7.46573 21.5922 7.64034 21.5922 8.05354V16.1013C21.5922 19.5642 19.8705 20.4944 14.5724 23.6903C14.241 23.895 14.065 23.9589 13.8965 23.9589Z" fill="black"/>
<path d="M10.0438 18.8052C10.3534 18.8052 10.613 18.6934 10.8162 18.4806L13.8985 15.3908L17.0021 18.4806C17.2032 18.6816 17.4554 18.8052 17.765 18.8052C18.3598 18.8052 18.8185 18.3252 18.8185 17.7378C18.8185 17.4472 18.71 17.2025 18.5014 16.9939L15.4053 13.8936L18.511 10.7762C18.7292 10.5558 18.8281 10.3229 18.8281 10.0398C18.8281 9.45241 18.3694 8.98413 17.7746 8.98413C17.4842 8.98413 17.2533 9.08632 17.033 9.30874L13.8985 12.4102L10.7949 9.31835C10.5938 9.10765 10.3534 9.00335 10.0438 9.00335C9.45851 9.00335 8.99023 9.46202 8.99023 10.0515C8.99023 10.3325 9.10836 10.5868 9.30734 10.7858L12.4056 13.8936L9.30734 17.0035C9.10836 17.2025 8.99023 17.4568 8.99023 17.7378C8.99023 18.3252 9.45851 18.8052 10.0438 18.8052Z" fill="black"/>
</svg>
