<svg width="28" height="29" viewBox="0 0 28 29" fill="none" xmlns="http://www.w3.org/2000/svg">
<path d="M13.5809 6.98673C16.5542 6.98673 19.0587 5.20783 19.4419 2.72955C19.5903 1.73158 19.0845 1.00502 18.0687 0.718613C15.3094 -0.0142773 11.8524 -0.0142773 9.10271 0.718613C8.08483 1.00502 7.58115 1.73158 7.72741 2.72955C8.11061 5.20783 10.6076 6.98673 13.5809 6.98673ZM13.5809 5.25752C11.4699 5.25752 9.77255 4.14353 9.46482 2.55985C9.45099 2.4736 9.50537 2.40118 9.61083 2.36814C12.1198 1.72548 15.0369 1.72337 17.551 2.36814C17.664 2.40118 17.7204 2.4736 17.7045 2.55985C17.3989 4.14353 15.6973 5.25752 13.5809 5.25752ZM12.5358 11.5357H14.6356V5.86572H12.5358V11.5357ZM13.565 28.1855C20.536 28.1855 25.167 26.0672 25.1318 22.8916C25.134 19.7517 22.2973 15.8714 18.7142 14.0918C18.0296 11.8263 15.9272 10.2574 13.565 10.2574C11.2048 10.2574 9.10037 11.8263 8.41577 14.0918C4.83264 15.8714 1.99811 19.7517 2.00022 22.8916C1.96296 26.0672 6.59608 28.1855 13.565 28.1855ZM13.565 26.2601C7.80123 26.2601 3.93732 24.9112 3.92771 22.8916C3.93732 20.193 6.85693 16.7119 10.1337 15.4469C10.3046 13.5741 11.7772 12.2105 13.565 12.2105C15.3549 12.2105 16.8254 13.5741 16.9962 15.4469C20.2463 16.6926 23.1947 20.1717 23.2044 22.8916C23.1947 24.9112 19.3404 26.2601 13.565 26.2601ZM13.565 19.5157C19.3404 19.5157 23.1947 20.8624 23.2044 22.8916H25.1318C25.167 19.7161 20.536 17.5882 13.565 17.5882C6.59608 17.5882 1.96296 19.7161 2.00022 22.8916H3.92771C3.93732 20.8624 7.80123 19.5157 13.565 19.5157ZM13.565 23.8275C15.7135 23.8275 17.739 22.5487 17.7959 20.9761C16.5636 20.7823 15.1203 20.663 13.565 20.663C12.0097 20.663 10.5664 20.7823 9.33404 20.9761C9.39099 22.5487 11.4186 23.8275 13.565 23.8275Z" fill="black"/>
</svg>
