<svg width="28" height="28" viewBox="0 0 28 28" fill="none" xmlns="http://www.w3.org/2000/svg">
<path d="M4.84421 23.4498H23.2101C25.7394 23.4498 27.0447 22.1446 27.0447 19.6441V7.82713C27.0447 5.32659 25.7394 4.02136 23.2101 4.02136H4.84421C2.31484 4.02136 1 5.32659 1 7.82713V19.6441C1 22.1446 2.31484 23.4498 4.84421 23.4498ZM4.97733 21.1539C3.88772 21.1539 3.29592 20.5823 3.29592 19.4416V8.02963C3.29592 6.89103 3.88772 6.31728 4.97733 6.31728H23.0673C24.1473 6.31728 24.7488 6.89103 24.7488 8.02963V19.4416C24.7488 20.5823 24.1473 21.1539 23.0673 21.1539H4.97733Z" fill="black"/>
<path d="M9.72385 18.8186C11.8355 18.8186 13.2366 17.4484 13.2366 15.4124C13.2366 14.4264 12.84 13.5463 12.511 12.82C11.9611 11.6446 11.0872 10.2088 10.3135 9.0142C10.1368 8.74913 9.94955 8.63428 9.72385 8.63428C9.49814 8.63428 9.3151 8.74913 9.13627 9.0142C8.37221 10.2088 7.49611 11.6467 6.93877 12.8242C6.6076 13.5484 6.20142 14.4264 6.20142 15.4124C6.20142 17.4484 7.62174 18.8186 9.72385 18.8186ZM16.8844 11.5408C17.6386 11.5408 18.2661 10.9091 18.2661 10.1549C18.2661 9.39858 17.6386 8.77116 16.8844 8.77116C16.1185 8.77116 15.5007 9.39858 15.5007 10.1549C15.5007 10.9091 16.1185 11.5408 16.8844 11.5408ZM20.8524 11.5408C21.6066 11.5408 22.2361 10.9091 22.2361 10.1549C22.2361 9.39858 21.6066 8.77116 20.8524 8.77116C20.0982 8.77116 19.4687 9.39858 19.4687 10.1549C19.4687 10.9091 20.0982 11.5408 20.8524 11.5408ZM16.8844 15.1007C17.6386 15.1007 18.2661 14.4733 18.2661 13.719C18.2661 12.9627 17.6386 12.3353 16.8844 12.3353C16.1185 12.3353 15.5007 12.9627 15.5007 13.719C15.5007 14.4733 16.1185 15.1007 16.8844 15.1007ZM20.8524 15.1007C21.6066 15.1007 22.2361 14.4733 22.2361 13.719C22.2361 12.9627 21.6066 12.3353 20.8524 12.3353C20.0982 12.3353 19.4687 12.9627 19.4687 13.719C19.4687 14.4733 20.0982 15.1007 20.8524 15.1007ZM16.8844 18.6648C17.6386 18.6648 18.2661 18.0374 18.2661 17.2832C18.2661 16.5269 17.6386 15.8973 16.8844 15.8973C16.1185 15.8973 15.5007 16.5269 15.5007 17.2832C15.5007 18.0374 16.1185 18.6648 16.8844 18.6648ZM20.8524 18.6648C21.6066 18.6648 22.2361 18.0374 22.2361 17.2832C22.2361 16.5269 21.6066 15.8973 20.8524 15.8973C20.0982 15.8973 19.4687 16.5269 19.4687 17.2832C19.4687 18.0374 20.0982 18.6648 20.8524 18.6648Z" fill="black"/>
</svg>
