<svg width="36" height="28" viewBox="0 0 36 28" fill="none" xmlns="http://www.w3.org/2000/svg">
<path d="M3.78773 20.0932H31.8326C34.3235 20.0932 35.6299 18.7964 35.6299 16.3439V9.74929C35.6299 7.2989 34.3235 6 31.8326 6H3.78773C1.31601 6 0 7.2989 0 9.74929V16.3439C0 18.7964 1.31601 20.0932 3.78773 20.0932ZM3.85312 17.8711C2.89217 17.8711 2.29592 17.2844 2.29592 16.3523V9.74296C2.29592 8.81296 2.89217 8.2221 3.85312 8.2221H31.7672C32.7281 8.2221 33.334 8.81296 33.334 9.74296V16.3523C33.334 17.2844 32.7281 17.8711 31.7672 17.8711H3.85312ZM7.30803 15.6005C8.72694 15.6005 9.8742 14.4532 9.8742 13.0322C9.8742 11.6016 8.72694 10.4543 7.30803 10.4543C5.87741 10.4543 4.73014 11.6016 4.73014 13.0322C4.73014 14.4532 5.87741 15.6005 7.30803 15.6005ZM13.1004 15.5658H22.5199C23.1206 15.5658 23.5062 15.1802 23.5062 14.5891V11.5137C23.5062 10.9226 23.1206 10.5274 22.5199 10.5274H13.1004C12.5093 10.5274 12.1141 10.9226 12.1141 11.5137V14.5891C12.1141 15.1802 12.5093 15.5658 13.1004 15.5658ZM28.3219 15.6005C29.7429 15.6005 30.8901 14.4532 30.8901 13.0322C30.8901 11.6016 29.7429 10.4543 28.3219 10.4543C26.903 10.4543 25.7557 11.6016 25.7557 13.0322C25.7557 14.4532 26.903 15.6005 28.3219 15.6005ZM9.04006 19.162H2.61844V21.0344C2.61844 21.6951 3.07054 22.1494 3.73335 22.1494H7.92515C8.59968 22.1494 9.04006 21.6951 9.04006 21.0344V19.162ZM26.5898 19.162V21.0344C26.5898 21.6951 27.0323 22.1494 27.7047 22.1494H31.8869C32.5594 22.1494 33.0115 21.6951 33.0115 21.0344V19.162H26.5898Z" fill="black"/>
</svg>
