<svg width="32" height="28" viewBox="0 0 32 28" fill="none" xmlns="http://www.w3.org/2000/svg">
<path d="M9.62271 27.004H21.566C23.8141 27.004 24.9553 25.8788 24.9904 23.6424L25.1386 12.4109L27.7333 12.9954C28.9856 13.2647 29.809 12.7561 30.0932 11.5193L31.1109 7.31483C31.4048 6.08132 30.9154 5.18133 29.7309 4.68539L21.5779 1.2225C21.0459 0.986255 20.568 0.995865 20.0838 1.23211C18.5032 1.97883 17.302 2.33274 15.6002 2.33274C13.8867 2.33274 12.6876 1.97883 11.107 1.23211C10.6207 0.995865 10.1449 0.986255 9.61287 1.2225L1.4599 4.68539C0.273261 5.18133 -0.204392 6.08132 0.079904 7.31483L1.09545 11.5193C1.37975 12.7561 2.20521 13.2647 3.45747 12.9954L6.05975 12.4109L6.20037 23.6424C6.23342 25.8788 7.37459 27.004 9.62271 27.004ZM15.6002 6.1957C13.706 6.1957 12.3018 5.20663 11.7274 3.64241C12.922 4.07319 14.2479 4.3078 15.6002 4.3078C16.9429 4.3078 18.2784 4.07319 19.4634 3.64241C18.8986 5.1853 17.5137 6.1957 15.6002 6.1957Z" fill="black"/>
</svg>
