<svg width="28" height="28" viewBox="0 0 28 28" fill="none" xmlns="http://www.w3.org/2000/svg">
<path d="M14.105 26.2301C20.7369 26.2301 26.2121 20.7549 26.2121 14.123C26.2121 7.50291 20.7273 2.01807 14.0954 2.01807C7.47523 2.01807 2 7.50291 2 14.123C2 20.7549 7.48484 26.2301 14.105 26.2301Z" fill="black"/>
<path d="M12.1626 11.7004C11.7642 11.2221 11.1452 10.9429 10.4964 10.9429C10.0863 10.9429 9.68784 11.0559 9.35761 11.2338C9.23058 11.0001 9.18042 10.7803 9.18042 10.5274C9.18042 9.61332 9.91659 8.89636 10.8168 8.91136C10.8295 8.51808 11.1876 8.11519 11.6256 8.1473C11.7449 7.61363 12.3009 7.12988 13.1278 7.12988C13.7564 7.12988 14.3168 7.47722 14.5713 8.043C14.7302 8.01207 14.9126 8.02379 15.0426 8.06433C15.3335 7.81074 15.6968 7.66683 16.1048 7.66683C16.7388 7.66683 17.2022 8.03879 17.4546 8.6184C18.39 8.64066 19.0399 9.36722 19.0399 10.3868C19.0399 10.6844 18.9492 10.9884 18.7891 11.2401C18.4589 11.0484 18.0679 10.9429 17.6632 10.9429C17.0123 10.9429 16.3858 11.2221 15.9853 11.7004C15.5592 11.1143 14.824 10.785 14.0761 10.785C13.3399 10.785 12.6047 11.1143 12.1626 11.7004ZM11.816 20.9229C10.9521 20.9229 10.5431 20.418 10.379 19.5754L9.2219 13.5011C9.02362 12.4235 9.74198 11.8544 10.4964 11.8544C11.1208 11.8544 11.7028 12.2465 11.7592 12.9904L12.4816 20.9229H11.816ZM13.3537 20.9229L12.6515 13.1594C12.5695 12.1129 13.4189 11.6889 14.0761 11.6889C14.7354 11.6889 15.5922 12.1129 15.5123 13.1594L14.8059 20.9229H13.3537ZM16.3436 20.9229H15.6801L16.4004 12.9904C16.4568 12.2465 17.0388 11.8544 17.6632 11.8544C18.4176 11.8544 19.1381 12.4235 18.9377 13.5011L17.7806 19.5754C17.6165 20.418 17.2054 20.9229 16.3436 20.9229Z" fill="white"/>
</svg>
