<svg width="28" height="28" viewBox="0 0 28 28" fill="none" xmlns="http://www.w3.org/2000/svg">
<path d="M17.4873 1H14.1871C12.0852 1 10.7692 2.29468 10.7692 4.34757V6.53452H12.8108V4.34757C12.8108 3.52585 13.3068 3.05124 14.1871 3.05124H17.4873C20.0101 3.05124 21.5969 4.76687 21.5969 7.4814V25.8714C21.5969 26.4726 22.0192 26.9108 22.615 26.9108C23.2086 26.9108 23.6385 26.4704 23.6385 25.8714V7.4814C23.6385 3.53781 21.2455 1 17.4873 1ZM11.7831 6.951C12.4858 6.951 12.973 7.43827 12.973 8.1271V10.2576C15.3107 10.833 16.9122 12.5802 16.9122 15.1649H18.7302C18.7302 12.4462 17.1119 10.0862 14.7655 8.96828V8.1271C14.7655 6.41921 13.5283 5.1564 11.7831 5.1564C10.0401 5.1564 8.8007 6.41921 8.8007 8.1271V8.96828C6.46398 10.0862 4.83601 12.4462 4.83601 15.1649H6.66577C6.66577 12.5802 8.26515 10.833 10.5953 10.2576V8.1271C10.5953 7.43827 11.0805 6.951 11.7831 6.951ZM4.9021 14.7494C4.40851 14.7494 4 15.1579 4 15.6515C4 16.1451 4.40851 16.544 4.9021 16.544H18.678C19.1694 16.544 19.5704 16.1451 19.5704 15.6515C19.5704 15.1579 19.1694 14.7494 18.678 14.7494H4.9021Z" fill="black"/>
<path d="M7.80255 19.8116C8.33364 19.8116 8.75083 19.3944 8.75083 18.8537C8.75083 18.3269 8.33364 17.9097 7.80255 17.9097C7.27568 17.9097 6.84888 18.3269 6.84888 18.8537C6.84888 19.3944 7.27568 19.8116 7.80255 19.8116ZM11.7736 19.8116C12.3047 19.8116 12.7218 19.3944 12.7218 18.8537C12.7218 18.3269 12.3047 17.9097 11.7736 17.9097C11.2467 17.9097 10.8199 18.3269 10.8199 18.8537C10.8199 19.3944 11.2467 19.8116 11.7736 19.8116ZM15.735 19.8116C16.2619 19.8116 16.6791 19.3944 16.6791 18.8537C16.6791 18.3269 16.2619 17.9097 15.735 17.9097C15.206 17.9097 14.7771 18.3269 14.7771 18.8537C14.7771 19.3944 15.206 19.8116 15.735 19.8116Z" fill="black"/>
<path d="M7.80248 23.0753C8.32936 23.0753 8.74654 22.6485 8.74654 22.1174C8.74654 21.5905 8.32936 21.1733 7.80248 21.1733C7.2735 21.1733 6.8446 21.5905 6.8446 22.1174C6.8446 22.6485 7.2735 23.0753 7.80248 23.0753ZM11.7756 23.0753C12.3046 23.0753 12.7218 22.6485 12.7218 22.1174C12.7218 21.5905 12.3046 21.1733 11.7756 21.1733C11.2466 21.1733 10.8198 21.5905 10.8198 22.1174C10.8198 22.6485 11.2466 23.0753 11.7756 23.0753ZM15.7349 23.0753C16.266 23.0753 16.6832 22.6485 16.6832 22.1174C16.6832 21.5905 16.266 21.1733 15.7349 21.1733C15.208 21.1733 14.7812 21.5905 14.7812 22.1174C14.7812 22.6485 15.208 23.0753 15.7349 23.0753Z" fill="black"/>
<path d="M7.80248 26.339C8.32936 26.339 8.74654 25.9122 8.74654 25.3811C8.74654 24.8542 8.32936 24.437 7.80248 24.437C7.2735 24.437 6.8446 24.8542 6.8446 25.3811C6.8446 25.9122 7.2735 26.339 7.80248 26.339ZM11.7756 26.339C12.3046 26.339 12.7218 25.9122 12.7218 25.3811C12.7218 24.8542 12.3046 24.437 11.7756 24.437C11.2466 24.437 10.8198 24.8542 10.8198 25.3811C10.8198 25.9122 11.2466 26.339 11.7756 26.339ZM15.7349 26.339C16.266 26.339 16.6832 25.9122 16.6832 25.3811C16.6832 24.8542 16.266 24.437 15.7349 24.437C15.208 24.437 14.7812 24.8542 14.7812 25.3811C14.7812 25.9122 15.208 26.339 15.7349 26.339Z" fill="black"/>
</svg>
