<svg width="28" height="33" viewBox="0 0 28 33" fill="none" xmlns="http://www.w3.org/2000/svg">
<path d="M15.3663 15.8037L13.5213 14.8992C12.8159 17.2627 11.3018 18.8372 9.45117 18.8372C6.93327 18.8372 5.02593 15.9314 5.02593 12.2878C5.02593 9.66889 6.81515 7.59303 9.45117 7.59303C10.1018 7.59303 10.6631 7.7367 11.2242 7.94529L11.4253 5.87155C10.8438 5.69483 10.1667 5.58093 9.45117 5.58093C5.64773 5.58093 3 8.51413 3 12.2878C3 16.999 5.80547 20.8631 9.45117 20.8631C12.1284 20.8727 14.3639 18.776 15.3663 15.8037ZM7.61883 19.8201L7.09922 21.8475C6.95344 22.3453 7.25648 22.8518 7.86304 22.8518H10.5548C11.1752 22.8518 11.4548 22.3453 11.3187 21.8475L10.7894 19.8201H7.61883ZM9.13241 32.538C9.60069 32.538 9.98272 32.156 9.98272 31.7069C9.98272 29.5024 11.9536 29.1682 11.9536 26.9163C11.9536 24.4955 10.0097 24.4078 10.0521 22.3474H8.38992C8.35804 25.3118 10.3073 25.3997 10.3073 26.9163C10.3073 28.4137 8.32265 28.4308 8.32265 31.7069C8.32265 32.156 8.67164 32.538 9.13241 32.538Z" fill="black"/>
<path d="M18.1801 18.3054C22.531 18.3054 25.9266 13.6849 25.9266 7.94788C25.9266 3.42 22.7474 0 18.1801 0C13.6128 0 10.4548 3.42 10.4548 7.94788C10.4548 13.6849 13.8388 18.3054 18.1801 18.3054ZM18.1801 16.3008C14.9549 16.3008 12.4669 12.5332 12.4669 7.94788C12.4669 4.62163 14.8133 2.0121 18.1801 2.0121C21.5448 2.0121 23.9124 4.62163 23.9124 7.94788C23.9124 12.5332 21.3957 16.3008 18.1801 16.3008ZM16.434 17.2837L15.8537 19.507C15.6962 20.0538 16.0185 20.6252 16.6899 20.6252H19.6777C20.3513 20.6252 20.664 20.0538 20.5161 19.507L19.9241 17.2837H16.434ZM18.0627 32.3465C18.5619 32.3465 18.9824 31.9261 18.9824 31.4269C18.9824 28.8605 21.3123 28.2691 21.3123 25.6655C21.3123 22.9514 19.0421 22.5255 19.0613 20.1851L17.2433 20.1947C17.2337 23.4822 19.5081 23.8901 19.5081 25.6655C19.5081 27.4718 17.1664 27.7298 17.1664 31.4269C17.1664 31.9261 17.5656 32.3465 18.0627 32.3465Z" fill="black"/>
</svg>
