<svg width="28" height="28" viewBox="0 0 28 28" fill="none" xmlns="http://www.w3.org/2000/svg">
<path d="M4.84421 24.825H24.3062C26.541 24.825 27.8558 23.5198 27.8558 21.0192V8.96718C27.8558 6.46664 26.5314 5.16141 24.0116 5.16141H13.1076C12.2706 5.16141 11.7627 4.96758 11.1219 4.43625L10.4493 3.8925C9.62944 3.21727 9.02335 3 7.79569 3H4.47905C2.29539 3 1 4.27523 1 6.73405V21.0192C1 23.5294 2.31484 24.825 4.84421 24.825ZM4.97733 22.5291C3.88772 22.5291 3.29592 21.967 3.29592 20.8263V6.93233C3.29592 5.85655 3.88209 5.28631 4.93538 5.28631H7.195C8.01273 5.28631 8.50468 5.48764 9.15929 6.02108L9.82984 6.57444C10.6443 7.23256 11.2696 7.45944 12.4973 7.45944H23.8689C24.9489 7.45944 25.5599 8.03108 25.5599 9.16968V20.8359C25.5599 21.967 24.9489 22.5291 23.8689 22.5291H4.97733ZM2.43319 11.8772H26.432V9.85241H2.43319V11.8772Z" fill="black"/>
</svg>
