<svg width="29" height="30" viewBox="0 0 29 30" fill="none" xmlns="http://www.w3.org/2000/svg">
<path d="M8.28482 27.3161C10.8554 29.8483 15.7058 29.9369 18.2075 27.3081C20.3598 25.0757 20.3874 22.1202 18.1857 20.0338C16.096 18.0381 13.4633 17.9179 11.7456 19.7498C10.0951 21.4771 11.0964 23.3348 10.2714 24.2057C9.49794 24.9984 8.62958 24.7769 8.06099 25.3977C7.62458 25.8906 7.58615 26.6242 8.28482 27.3161ZM10.9163 26.6394C10.7394 26.5136 10.7192 26.358 10.8013 26.2312C10.9377 26.0596 11.5126 25.9199 11.8764 25.4015C12.8874 24.0109 12.1953 22.502 13.2749 21.2987C14.1732 20.3055 15.6219 20.3544 16.8207 21.4394C18.1679 22.6459 18.0721 24.4258 16.7392 25.8707C15.272 27.5001 12.7201 27.898 10.9163 26.6394ZM19.1961 22.6462C20.4685 22.2871 21.4747 21.4426 22.4949 20.0092C25.3086 15.9726 27.6088 9.27504 28.1589 7.63468C29.079 5.00992 26.5895 3.06461 24.3524 4.94828C23.71 5.50656 18.4082 10.6052 15.3519 15.0175C14.371 16.4233 13.9206 17.6488 13.9885 18.9416L16.1898 19.1533C16.0028 18.28 16.277 17.4156 17.1139 16.2454C19.9834 12.2108 24.8186 7.51888 25.4652 6.86475C25.7628 6.54576 26.195 6.8392 26.0157 7.25639C25.7003 8.06193 23.5522 14.748 20.7233 18.7813C19.9309 19.922 19.2777 20.4039 18.463 20.6202L19.1961 22.6462ZM20.6563 19.3736L22.3063 18.6194C21.7913 16.3279 19.126 14.4208 16.8301 14.6833L16.543 16.5215C18.0901 16.183 20.4123 17.8019 20.6563 19.3736Z" fill="black"/>
<path d="M2.13725 14.4208C3.54326 19.7137 7.32232 22.1997 12.3286 21.1464C12.6736 21.0719 13.0068 20.9931 13.3518 20.9165L13.1824 18.629C12.7216 18.8158 12.5979 18.8467 12.4275 18.8957C8.37537 19.9548 5.38943 18.1187 4.25575 13.8632L2.30294 6.55913C2.09927 5.7817 2.39036 5.24428 3.16146 5.04271L13.5199 2.25787C14.2973 2.0542 14.8209 2.37084 15.0342 3.16748L16.9891 10.4481C17.284 11.5349 17.3843 12.5167 17.2985 13.4279L19.44 11.628C19.3697 11.0633 19.26 10.4669 19.0959 9.87671L17.1293 2.50983C16.5574 0.423661 15.105 -0.387743 12.974 0.172412L2.56662 2.94554C0.443184 3.5078 -0.391658 4.93256 0.170607 7.05389L2.13725 14.4208ZM6.77224 10.247C7.52646 10.067 7.89935 10.4069 8.20615 10.3269C8.45646 10.2683 8.54599 9.98288 8.44052 9.58655C8.20615 8.63733 7.20584 8.08233 6.28966 8.36358C5.32662 8.60967 4.75029 9.56522 5.01021 10.491C5.1274 10.9012 5.35756 11.1046 5.58443 11.0418C5.90295 10.9501 6.02974 10.4558 6.77224 10.247ZM12.9982 8.57123C13.7545 8.35819 14.1253 8.72147 14.4321 8.64155C14.6824 8.58084 14.774 8.28577 14.6686 7.91077C14.4225 6.96155 13.4477 6.43209 12.506 6.67819C11.5568 6.936 10.9687 7.88944 11.2383 8.81522C11.3554 9.21577 11.576 9.41498 11.8008 9.35639C12.1289 9.26475 12.2461 8.75873 12.9982 8.57123ZM11.8359 16.5456C13.8719 15.9873 15.1898 14.451 15.2505 12.5364C15.2644 12.04 14.8596 11.8621 14.4101 12.1848C13.2553 13.0072 11.8842 13.4186 11.1072 13.6307C10.2876 13.8641 8.89193 14.2103 7.41537 14.0622C6.90513 13.9898 6.60584 14.3711 6.87958 14.7833C7.89279 16.3954 9.81373 17.0901 11.8359 16.5456Z" fill="black"/>
</svg>
