<svg width="28" height="29" viewBox="0 0 28 29" fill="none" xmlns="http://www.w3.org/2000/svg">
<path d="M14.1805 14.0625C16.7807 14.0625 19.3555 13.8984 21.4712 13.5799C23.1697 13.335 23.7864 12.0548 23.0537 10.368L19.5754 2.53031C18.8193 0.812577 17.5658 0 15.6564 0H12.6929C10.7931 0 9.54178 0.812577 8.78358 2.53031L5.30522 10.368C4.57256 12.0548 5.1817 13.335 6.88771 13.5799C8.99381 13.8984 11.5708 14.0625 14.1805 14.0625ZM13.059 15.8866H15.2924V13.4013H13.059V15.8866ZM12.3927 28.7158H15.9566C19.0897 28.7158 20.8858 27.1467 20.8858 24.4193C20.8858 22.7564 20.3638 20.2765 19.453 17.7794C18.9109 16.2895 17.7426 15.4289 16.0979 15.4289H12.2535C10.6068 15.4289 9.43842 16.2895 8.89631 17.7794C7.99936 20.2723 7.46779 22.7543 7.46779 24.4193C7.46779 27.1467 9.26381 28.7158 12.3927 28.7158Z" fill="black"/>
</svg>
