<svg width="36" height="28" viewBox="0 0 36 28" fill="none" xmlns="http://www.w3.org/2000/svg">
<path d="M6.42749 22.3849H11.568C11.2315 21.6839 11.3123 21.1423 11.7023 20.089H6.10898C4.89351 20.089 3.75655 19.9207 3.09866 19.2745C2.45037 18.6187 2.29592 17.4935 2.29592 16.2759V12.1261C2.29592 10.8893 2.45248 9.76827 3.09866 9.11038C3.75444 8.45248 4.90312 8.29592 6.13781 8.29592H13.6842L15.5524 6H6.40827C4.30453 6 2.62968 6.23179 1.42383 7.43554C0.220076 8.63929 0 10.2982 0 12.3987V15.9574C0 18.0963 0.220076 19.7477 1.42383 20.9494C2.63179 22.1531 4.30453 22.3849 6.42749 22.3849ZM16.0123 22.3849H24.8093C26.9419 22.3849 28.6167 22.1531 29.8205 20.9494C31.0263 19.7435 31.2464 18.0963 31.2464 15.9574V12.4275C31.2464 10.2886 31.0263 8.63719 29.8205 7.43554C28.6146 6.23179 26.9419 6 24.8093 6H19.9966C20.3119 6.67007 20.2448 7.21593 19.8623 8.29592H25.1374C26.3529 8.29592 27.4877 8.4642 28.1381 9.11038C28.796 9.76616 28.9505 10.8797 28.9505 12.0973V16.2759C28.9505 17.4935 28.7939 18.6166 28.1381 19.2745C27.492 19.9228 26.3529 20.089 25.1374 20.089H17.8804L16.0123 22.3849ZM32.9498 17.3705C33.9199 17.3097 35.2254 16.065 35.2254 14.1876C35.2254 12.3178 33.9199 11.0752 32.9498 11.0145V17.3705Z" fill="black"/>
<path d="M5.65021 18.6198H11.7348L12.2547 17.2129H10.8787C9.7921 17.12 8.92608 16.2175 8.92608 15.0824C8.92608 14.5129 9.14218 13.9647 9.49772 13.5229L12.5026 9.76489H5.67904C4.92927 9.76489 4.49099 9.87153 4.19778 10.1743C3.89497 10.4772 3.77661 10.9154 3.77661 11.6577V16.7462C3.77661 17.4768 3.89497 17.9054 4.19778 18.2083C4.50059 18.5111 4.92927 18.6198 5.65021 18.6198ZM19.0639 18.6198H25.6077C26.3287 18.6198 26.7573 18.5111 27.0601 18.2083C27.363 17.9054 27.4813 17.4768 27.4813 16.7462V11.6385C27.4813 10.9058 27.363 10.4772 27.0601 10.1743C26.7573 9.87153 26.3287 9.76489 25.6077 9.76489H19.8317L19.314 11.1697H20.6975C21.7745 11.2647 22.6405 12.1576 22.6405 13.3002C22.6405 13.8697 22.4244 14.4201 22.0689 14.8619L19.0639 18.6198Z" fill="black"/>
<path d="M10.6316 15.0824C10.6316 15.407 10.903 15.6475 11.2415 15.6475H15.1961L13.0909 21.29C12.7822 22.1097 13.671 22.5704 14.2063 21.9137L20.7252 13.7995C20.8508 13.6387 20.9371 13.4695 20.9371 13.3002C20.9371 12.9777 20.6636 12.7352 20.3347 12.7352H16.3705L18.4757 7.0947C18.7843 6.27508 17.9073 5.81431 17.372 6.47102L10.8414 14.5757C10.7158 14.744 10.6316 14.9132 10.6316 15.0824Z" fill="black"/>
</svg>
