<svg width="28" height="28" viewBox="0 0 28 28" fill="none" xmlns="http://www.w3.org/2000/svg">
<path d="M6.84421 24.8972H21.0295C23.5685 24.8972 24.8737 23.5919 24.8737 21.0914V6.82921C24.8737 4.32656 23.5685 3.02344 21.0295 3.02344H6.84421C4.31484 3.02344 3 4.31695 3 6.82921V21.0914C3 23.6016 4.31484 24.8972 6.84421 24.8972ZM6.97733 22.6013C5.88772 22.6013 5.29592 22.0371 5.29592 20.8985V7.01999C5.29592 5.88139 5.88772 5.31936 6.97733 5.31936H20.8964C21.9764 5.31936 22.5778 5.88139 22.5778 7.01999V20.8985C22.5778 22.0371 21.9764 22.6013 20.8964 22.6013H6.97733Z" fill="black"/>
<path d="M11.1992 9.75604C11.1992 10.9523 11.978 11.9728 13.0541 12.3358V18.0216C13.0541 19.5975 13.3965 21.1104 13.9428 21.1104C14.4945 21.1104 14.8199 19.6188 14.8199 18.0216V12.34C15.9172 11.9845 16.6864 10.9619 16.6864 9.75604C16.6864 8.23729 15.4574 7.01034 13.9428 7.01245C12.4358 7.01456 11.1992 8.24151 11.1992 9.75604ZM12.395 9.03299C12.3854 8.5612 12.8019 8.15221 13.262 8.15221C13.7434 8.15221 14.1502 8.5612 14.1406 9.03299C14.1406 9.50268 13.7434 9.91167 13.262 9.91167C12.8019 9.91167 12.395 9.50268 12.395 9.03299Z" fill="black"/>
</svg>
