<svg width="28" height="28" viewBox="0 0 28 28" fill="none" xmlns="http://www.w3.org/2000/svg">
<path d="M14.1148 8.67619L12.3348 10.4713C13.7403 10.6023 14.7355 11.0509 15.4487 11.7641C17.4425 13.7558 17.435 16.565 15.4646 18.5354L11.5693 22.419C9.5872 24.399 6.79931 24.4065 4.8097 22.4244C2.81587 20.4231 2.82337 17.6352 4.80337 15.6531L6.81549 13.643C6.44096 12.7972 6.31885 11.7495 6.5258 10.8465L3.15853 14.1957C0.283927 17.0694 0.273145 21.155 3.17025 24.0521C6.07908 26.9631 10.1584 26.9438 13.0266 24.0756L17.102 19.9927C19.9798 17.1149 19.997 13.0335 17.0881 10.1363C16.4026 9.44869 15.4756 8.92557 14.1148 8.67619ZM13.0836 18.5518L14.8637 16.7567C13.4581 16.6353 12.463 16.1792 11.7498 15.466C9.75805 13.4722 9.76345 10.6651 11.7359 8.69469L15.6216 4.8111C17.6113 2.82899 20.3992 2.82149 22.3909 4.81321C24.3826 6.80493 24.3655 9.60455 22.3951 11.5749L20.3851 13.585C20.7575 14.4425 20.87 15.4785 20.6748 16.3836L24.042 13.0323C26.9145 10.1586 26.9274 6.08259 24.0303 3.17588C21.1194 0.267052 17.0401 0.286271 14.1622 3.16416L10.0986 7.23525C7.22073 10.1131 7.20362 14.1945 10.1103 17.0916C10.798 17.7793 11.7228 18.3024 13.0836 18.5518Z" fill="black"/>
</svg>
