<svg width="28" height="28" viewBox="0 0 28 28" fill="none" xmlns="http://www.w3.org/2000/svg">
<path d="M14.105 26.21C20.7369 26.21 26.2121 20.7273 26.2121 14.105C26.2121 7.47312 20.7273 2 14.0954 2C7.47523 2 2 7.47312 2 14.105C2 20.7273 7.48484 26.21 14.105 26.21ZM14.105 23.8255C8.71085 23.8255 4.39412 19.4991 4.39412 14.105C4.39412 8.71085 8.70124 4.38452 14.0954 4.38452C19.4895 4.38452 23.8276 8.71085 23.8276 14.105C23.8276 19.4991 19.4991 23.8255 14.105 23.8255Z" fill="black"/>
<path d="M9.65842 19.3487C10.8826 19.3487 11.8702 18.3706 11.8702 17.1294C11.8702 16.6712 11.9 16.4954 12.2291 16.3133L21.2933 11.5105C21.0887 10.6754 20.195 10.4806 18.8035 10.9824L14.2088 12.6362C13.5526 12.8727 13.2446 13.2029 13.0838 13.8198L12.9666 14.214C12.8921 14.4973 12.7674 14.622 12.335 14.8531L11.5944 15.2384C11.4633 15.313 11.3813 15.3268 11.2855 15.3268C10.8326 15.3268 10.6695 14.9272 9.65842 14.9272C8.42678 14.9272 7.44873 15.8977 7.44873 17.1294C7.44873 18.361 8.42678 19.3487 9.65842 19.3487ZM9.65842 18.3545C8.9867 18.3545 8.44295 17.8086 8.44295 17.1273C8.44295 16.4534 8.9867 15.9118 9.65842 15.9118C10.3301 15.9118 10.8739 16.4534 10.8739 17.1273C10.8739 17.8086 10.3301 18.3545 9.65842 18.3545ZM14.3197 14.2278C14.0916 14.2278 13.8945 14.0349 13.8945 13.793C13.8945 13.5554 14.0916 13.3625 14.3197 13.3625C14.5573 13.3625 14.7619 13.5554 14.7619 13.793C14.7619 14.0349 14.5573 14.2278 14.3197 14.2278ZM13.22 12.4088L12.2867 11.9075C11.9096 11.7083 11.8702 11.558 11.8702 11.0764C11.8702 9.83514 10.8805 8.85498 9.65842 8.85498C8.42678 8.85498 7.44873 9.84475 7.44873 11.0764C7.44873 12.2984 8.42678 13.2765 9.65842 13.2765C10.6695 13.2765 10.8221 12.8673 11.2876 12.8673C11.3876 12.8673 11.4676 12.9024 11.5944 12.9631L12.4998 13.4323C12.6575 12.9978 12.8834 12.6655 13.22 12.4088ZM9.65842 12.2919C8.9867 12.2919 8.44295 11.746 8.44295 11.0764C8.44295 10.3908 8.9867 9.8492 9.65842 9.8492C10.3301 9.8492 10.8739 10.3908 10.8739 11.0764C10.8739 11.746 10.3301 12.2919 9.65842 12.2919ZM14.7978 15.7191L18.8035 17.2203C20.1854 17.7275 21.0866 17.5294 21.2933 16.673L17.1327 14.4793L14.7978 15.7191Z" fill="black"/>
</svg>
