<svg width="28" height="28" viewBox="0 0 28 28" fill="none" xmlns="http://www.w3.org/2000/svg">
<path d="M14.105 26.2301C20.7369 26.2301 26.2121 20.7549 26.2121 14.123C26.2121 7.50288 20.7273 2.01804 14.0954 2.01804C7.47523 2.01804 2 7.50288 2 14.123C2 20.7549 7.48484 26.2301 14.105 26.2301Z" fill="black"/>
<path d="M8.80722 19.5852C7.51089 19.5852 6.83472 18.9186 6.83472 17.6415V11.3286C6.83472 10.0302 7.51089 9.37321 8.80722 9.37321H10.2357C10.696 9.37321 10.843 9.2729 11.1231 8.98743L11.6143 8.47039C11.9275 8.13477 12.2459 7.97586 12.8523 7.97586H15.3235C15.9394 7.97586 16.258 8.13688 16.5615 8.47039L17.041 8.98743C17.3232 9.29211 17.4894 9.37321 17.9518 9.37321H19.407C20.6959 9.37321 21.3795 10.0302 21.3795 11.3286V17.6415C21.3795 18.9186 20.6959 19.5852 19.407 19.5852H8.80722ZM14.1146 17.971C16.0805 17.971 17.6502 16.4377 17.6502 14.4237C17.6502 12.4641 16.0805 10.8828 14.1146 10.8828C12.1529 10.8828 10.5716 12.4641 10.5716 14.4237C10.5716 16.4089 12.1529 17.971 14.1146 17.971ZM14.105 16.7825C12.8115 16.7825 11.7526 15.7332 11.7526 14.4237C11.7526 13.1185 12.8115 12.0692 14.105 12.0692C15.4027 12.0692 16.4616 13.1281 16.4616 14.4237C16.4616 15.7332 15.4027 16.7825 14.105 16.7825ZM18.9069 12.8159C19.3648 12.8159 19.7419 12.4484 19.7323 11.9809C19.7323 11.5154 19.3648 11.1458 18.9069 11.1458C18.4393 11.1458 18.0622 11.5154 18.0622 11.9809C18.0622 12.4484 18.4393 12.8159 18.9069 12.8159Z" fill="white"/>
</svg>
