<svg width="28" height="30" viewBox="0 0 28 30" fill="none" xmlns="http://www.w3.org/2000/svg">
<path d="M7.79827 27.0588H18.7208C21.1851 27.0588 22.5095 25.7461 22.5095 23.3011V14.3086C21.8003 14.568 20.9987 14.6747 20.2136 14.6454V23.1103C20.2136 24.1816 19.6101 24.7629 18.5781 24.7629H7.93139C6.90694 24.7629 6.29592 24.1816 6.29592 23.1103V4.88628C6.29592 3.80323 6.90694 3.23159 7.93139 3.23159H15.7323C16.0933 2.51441 16.5906 1.67371 17.0596 0.935669H7.79827C5.33406 0.935669 4 2.25051 4 4.68379V23.3011C4 25.7461 5.33406 27.0588 7.79827 27.0588ZM7.47648 29.2732C8.11281 29.2732 8.54476 28.8295 8.54476 28.1932V25.7613H6.39649V28.1932C6.39649 28.8295 6.84016 29.2732 7.47648 29.2732ZM19.033 29.2732C19.679 29.2732 20.113 28.8295 20.113 28.1932V25.7613H17.9647V28.1932C17.9647 28.8295 18.3967 29.2732 19.033 29.2732ZM9.41826 8.18182C10.3417 8.18182 11.1086 7.41495 11.1086 6.47768C11.1086 5.55636 10.3417 4.79909 9.41826 4.79909C8.481 4.79909 7.72584 5.55636 7.72584 6.47768C7.72584 7.41495 8.481 8.18182 9.41826 8.18182ZM8.45709 17.3154H11.747C12.1963 17.3154 12.5434 16.9758 12.5434 16.5286C12.5434 16.0889 12.1963 15.7376 11.747 15.7376H8.45709C8.0174 15.7376 7.66819 16.0889 7.66819 16.5286C7.66819 16.9758 8.0174 17.3154 8.45709 17.3154ZM8.45709 20.2324H11.747C12.1963 20.2324 12.5434 19.8907 12.5434 19.4435C12.5434 18.9963 12.1963 18.6546 11.747 18.6546H8.45709C8.0174 18.6546 7.66819 18.9963 7.66819 19.4435C7.66819 19.8907 8.0174 20.2324 8.45709 20.2324ZM8.45709 23.1494H11.747C12.1963 23.1494 12.5434 22.7981 12.5434 22.3605C12.5434 21.9112 12.1963 21.5599 11.747 21.5599H8.45709C8.0174 21.5599 7.66819 21.9112 7.66819 22.3605C7.66819 22.7981 8.0174 23.1494 8.45709 23.1494ZM14.7625 17.3154H18.0524C18.4921 17.3154 18.8413 16.9758 18.8413 16.5286C18.8413 16.0889 18.4921 15.7376 18.0524 15.7376H14.7625C14.3132 15.7376 13.964 16.0889 13.964 16.5286C13.964 16.9758 14.3132 17.3154 14.7625 17.3154ZM14.7625 20.2324H18.0524C18.4921 20.2324 18.8413 19.8907 18.8413 19.4435C18.8413 18.9963 18.4921 18.6546 18.0524 18.6546H14.7625C14.3132 18.6546 13.964 18.9963 13.964 19.4435C13.964 19.8907 14.3132 20.2324 14.7625 20.2324ZM14.7625 23.1494H18.0524C18.4921 23.1494 18.8413 22.7981 18.8413 22.3605C18.8413 21.9112 18.4921 21.5599 18.0524 21.5599H14.7625C14.3132 21.5599 13.964 21.9112 13.964 22.3605C13.964 22.7981 14.3132 23.1494 14.7625 23.1494Z" fill="black"/>
<path d="M20.1194 13.0099C22.8143 13.0099 24.6124 11.2577 24.6124 8.64492C24.6124 7.40554 24.1008 6.27211 23.6803 5.34586C22.9772 3.84047 21.8562 2.0107 20.8802 0.493591C20.6515 0.162655 20.4068 0 20.1194 0C19.8321 0 19.5874 0.162655 19.3587 0.493591C18.3764 2.0107 17.2575 3.84258 16.5586 5.34797C16.1381 6.27422 15.6265 7.40554 15.6265 8.64492C15.6265 11.2577 17.4246 13.0099 20.1194 13.0099Z" fill="black"/>
</svg>
