<svg width="28" height="28" viewBox="0 0 28 28" fill="none" xmlns="http://www.w3.org/2000/svg">
<path d="M7.6168 27.8456H20.4174C20.9408 27.8456 21.2537 27.4512 21.2537 26.9182C21.2537 25.9676 20.4608 25.3064 19.3053 25.3064H15.1271V23.9801C21.2464 23.4258 26.0342 18.2923 26.0342 12.023C26.0342 5.38781 20.656 0 14.0209 0C7.3782 0 2 5.3782 2 12.023C2 18.2923 6.78781 23.4354 12.905 23.9801V25.3064H8.73852C7.58305 25.3064 6.79016 25.9676 6.79016 26.9182C6.79016 27.4512 7.10305 27.8456 7.6168 27.8456Z" fill="black"/>
<path d="M10.1802 19.6767C8.03286 19.6767 5.85059 17.2261 5.85059 14.7598C5.85059 13.3835 6.61957 12.6668 8.02137 12.6668H10.6492C10.6044 12.4336 10.5852 12.1809 10.5873 11.9498C7.90676 11.0126 6.41731 10.0519 6.41731 8.23989C6.41731 6.09254 8.87544 3.91028 11.3418 3.91028C12.7159 3.91028 13.4347 4.67926 13.4347 6.08106V8.62778C13.6829 8.5734 13.9451 8.5734 14.173 8.57551C15.1006 5.93762 16.0634 4.47699 17.8637 4.47699C20.0014 4.47699 22.1933 6.93723 22.1933 9.39395C22.1933 10.7702 21.4147 11.4869 20.0129 11.4869H17.4373C17.4608 11.7426 17.4704 11.9611 17.4587 12.2135C20.1392 13.1508 21.6169 14.1019 21.6169 15.9234C21.6169 18.0612 19.1588 20.253 16.7021 20.253C15.328 20.253 14.6091 19.4819 14.6091 18.0727V15.416C14.3802 15.4491 14.183 15.4587 13.9285 15.4469C12.972 18.1734 12.0038 19.6767 10.1802 19.6767ZM14.0209 13.7852C14.9701 13.7852 15.7255 13.0298 15.7255 12.0806C15.7255 11.1323 14.9701 10.3685 14.0209 10.3685C13.0641 10.3685 12.3087 11.1239 12.3087 12.0806C12.3087 13.0214 13.0641 13.7852 14.0209 13.7852Z" fill="white"/>
</svg>
