<svg width="28" height="33" viewBox="0 0 28 33" fill="none" xmlns="http://www.w3.org/2000/svg">
<path d="M7.61883 19.8202L7.09922 21.8476C6.96516 22.3454 7.25648 22.8519 7.86304 22.8519H10.5548C11.1752 22.8519 11.4452 22.3454 11.3187 21.8476L10.7894 19.8202H7.61883ZM9.13241 32.5381C9.60069 32.5381 9.98272 32.1561 9.98272 31.707C9.98272 29.5025 11.9536 29.1683 11.9536 26.9164C11.9536 24.4956 10.0097 24.4079 10.0521 22.3475H8.38992C8.35804 25.3119 10.3073 25.3998 10.3073 26.9164C10.3073 28.4138 8.32265 28.4309 8.32265 31.707C8.32265 32.1561 8.67164 32.5381 9.13241 32.5381ZM3 12.2879C3 16.9991 5.80547 20.8632 9.45117 20.8632C11.1609 20.8728 12.6907 20.0108 13.823 18.5968C10.7857 16.591 8.82516 12.5129 8.82516 7.94793C8.82516 7.1302 8.91562 6.35934 9.07312 5.60864C5.50664 5.79239 3 8.60957 3 12.2879Z" fill="black"/>
<path d="M18.1801 18.3054C22.531 18.3054 25.9266 13.6849 25.9266 7.94788C25.9266 3.42 22.7474 0 18.1801 0C13.6128 0 10.4548 3.42 10.4548 7.94788C10.4548 13.6849 13.8388 18.3054 18.1801 18.3054ZM16.434 17.2837L15.8537 19.507C15.7154 20.0538 16.0185 20.6252 16.6899 20.6252H19.6777C20.3513 20.6252 20.664 20.0538 20.5161 19.507L19.9241 17.2837H16.434ZM18.0627 32.3465C18.5619 32.3465 18.9824 31.9261 18.9824 31.4269C18.9824 28.8605 21.3123 28.2691 21.3123 25.6655C21.3123 22.9514 19.0421 22.5255 19.0613 20.1851L17.2433 20.1947C17.2337 23.4822 19.5081 23.8901 19.5081 25.6655C19.5081 27.4718 17.1664 27.7298 17.1664 31.4269C17.1664 31.9261 17.5656 32.3465 18.0627 32.3465Z" fill="black"/>
</svg>
