<svg width="35" height="28" viewBox="0 0 35 28" fill="none" xmlns="http://www.w3.org/2000/svg">
<path d="M3.48562 25.2345H30.8932C33.0489 25.2345 34.3767 23.9281 34.3767 21.7894V17.798C34.3767 15.6615 33.0489 14.353 30.8932 14.353H3.48562C1.32773 14.353 0 15.6615 0 17.798V21.7894C0 23.9281 1.32773 25.2345 3.48562 25.2345ZM3.551 23.0124C2.77475 23.0124 2.29592 22.5528 2.29592 21.7979V17.7938C2.29592 17.0368 2.77475 16.5751 3.551 16.5751H30.8257C31.6019 16.5751 32.0808 17.0368 32.0808 17.7938V21.7979C32.0808 22.5528 31.6019 23.0124 30.8257 23.0124H3.551ZM5.32264 20.2479H9.13499C9.68506 20.2479 10.0915 19.8533 10.0915 19.3032C10.0915 18.751 9.68506 18.3467 9.13499 18.3467H5.32264C4.77256 18.3467 4.37788 18.751 4.37788 19.3032C4.37788 19.8533 4.77256 20.2479 5.32264 20.2479ZM15.0869 21.3767C15.9431 21.3767 16.664 20.6558 16.664 19.7761C16.664 18.9221 15.9431 18.2012 15.0869 18.2012C14.2094 18.2012 13.4885 18.9221 13.4885 19.7761C13.4885 20.6558 14.2094 21.3767 15.0869 21.3767ZM19.5525 21.3767C20.4087 21.3767 21.1296 20.6558 21.1296 19.7761C21.1296 18.9221 20.4087 18.2012 19.5525 18.2012C18.675 18.2012 17.954 18.9221 17.954 19.7761C17.954 20.6558 18.675 21.3767 19.5525 21.3767ZM24.0159 21.3767C24.8721 21.3767 25.593 20.6558 25.593 19.7761C25.593 18.9221 24.8721 18.2012 24.0159 18.2012C23.1384 18.2012 22.4175 18.9221 22.4175 19.7761C22.4175 20.6558 23.1384 21.3767 24.0159 21.3767ZM28.4815 21.3767C29.3472 21.3767 30.0682 20.6558 30.0682 19.7858C30.0682 18.9221 29.3472 18.2012 28.4815 18.2012C27.604 18.2012 26.883 18.9221 26.883 19.7858C26.883 20.6558 27.604 21.3767 28.4815 21.3767Z" fill="black"/>
<path d="M17.175 9.3739C15.9647 9.3739 14.7522 9.7393 13.913 10.3646C13.5075 10.6498 13.3957 11.2032 13.665 11.6234C13.9875 12.0851 14.5493 12.1639 15.0597 11.833C15.6065 11.431 16.3828 11.206 17.175 11.206C17.996 11.206 18.7723 11.431 19.2998 11.833C19.8082 12.1735 20.3796 12.0948 20.7021 11.6234C20.9618 11.2032 20.85 10.6595 20.4541 10.3646C19.5764 9.7393 18.364 9.3739 17.175 9.3739Z" fill="black"/>
<path d="M17.1846 5.68481C15.2667 5.68481 13.3957 6.24849 11.9287 7.27036C11.501 7.57692 11.384 8.10895 11.6768 8.54512C11.9566 8.97051 12.5226 9.0673 13.0172 8.74809C14.134 7.96785 15.6358 7.51691 17.1846 7.51691C18.743 7.51691 20.2427 7.96785 21.3616 8.74809C21.8562 9.0673 22.4201 8.97051 22.6999 8.54512C22.9926 8.10895 22.8778 7.57692 22.4405 7.27036C21.0119 6.24849 19.1409 5.68481 17.1846 5.68481Z" fill="black"/>
<path d="M17.175 2C14.542 2 11.9751 2.77156 9.92224 4.16328C9.47646 4.47945 9.36162 5.02953 9.63935 5.45609C9.9417 5.89437 10.5002 5.97616 10.965 5.66117C12.7008 4.48765 14.9102 3.81499 17.175 3.81499C19.4665 3.81499 21.6588 4.47804 23.3946 5.66117C23.8594 5.97616 24.4158 5.89437 24.7085 5.45609C25.0055 5.01992 24.8906 4.46985 24.4352 4.16328C22.3631 2.77156 19.808 2 17.175 2Z" fill="black"/>
</svg>
