<svg width="28" height="28" viewBox="0 0 28 28" fill="none" xmlns="http://www.w3.org/2000/svg">
<path d="M23.212 25.4047C23.7759 25.9825 24.7463 25.9825 25.2973 25.4047C25.8633 24.8153 25.8537 23.8898 25.2973 23.3195L14.1687 12.1272C13.6027 11.5612 12.6227 11.5612 12.0717 12.1272C11.5153 12.7166 11.5249 13.6539 12.0717 14.222L23.212 25.4047ZM16.5827 17.2928L13.0594 13.7715C12.8231 13.5332 12.7456 13.2524 12.9764 13.0237C13.1838 12.8108 13.4817 12.8725 13.7243 13.1226L17.2371 16.6396L16.5827 17.2928Z" fill="black"/>
<path d="M15.0496 21.966C15.0496 21.3212 14.5112 20.7829 13.8665 20.7829C13.2334 20.7829 12.6951 21.3212 12.6951 21.966V25.5585C12.6951 26.1936 13.2334 26.7341 13.8665 26.7341C14.5112 26.7341 15.0496 26.1936 15.0496 25.5585V21.966Z" fill="black"/>
<path d="M4.7936 21.2563C4.34571 21.7021 4.3436 22.4713 4.77555 22.9129C5.22344 23.3608 5.99266 23.3725 6.44593 22.9309L8.96265 20.4163C9.41054 19.9705 9.41265 19.2109 8.97109 18.7694C8.53281 18.3119 7.75399 18.3097 7.31032 18.7609L4.7936 21.2563Z" fill="black"/>
<path d="M2.1714 12.6909C1.53836 12.6909 1 13.2271 1 13.8623C1 14.4974 1.53836 15.0358 2.1714 15.0358H5.78523C6.42038 15.0358 6.96085 14.4974 6.96085 13.8623C6.96085 13.2271 6.42038 12.6909 5.78523 12.6909H2.1714Z" fill="black"/>
<path d="M7.30609 8.9786C7.75187 9.42649 8.51147 9.4286 8.96264 8.98493C9.41053 8.52743 9.41264 7.76994 8.97108 7.32627L6.46397 4.80744C6.0203 4.36377 5.2607 4.34783 4.80742 4.7915C4.36164 5.23939 4.35742 5.99899 4.80109 6.45016L7.30609 8.9786Z" fill="black"/>
<path d="M15.0496 2.17562C15.0496 1.54047 14.5112 1 13.8665 1C13.2334 1 12.6951 1.54047 12.6951 2.17562V5.76812C12.6951 6.41288 13.2334 6.95124 13.8665 6.95124C14.5112 6.95124 15.0496 6.41288 15.0496 5.76812V2.17562Z" fill="black"/>
<path d="M18.7639 7.32623C18.3106 7.7699 18.3127 8.52739 18.7702 8.98489C19.2139 9.42856 19.9831 9.42645 20.4364 8.97856L22.9435 6.45973C23.3946 6.00856 23.3925 5.24896 22.935 4.79146C22.4935 4.34779 21.7339 4.35412 21.2881 4.79779L18.7639 7.32623Z" fill="black"/>
<path d="M25.5614 15.0358C26.2062 15.0358 26.7467 14.4974 26.7467 13.8623C26.7467 13.2271 26.2062 12.6909 25.5614 12.6909H21.9668C21.3338 12.6909 20.7954 13.2271 20.7954 13.8623C20.7954 14.4974 21.3338 15.0358 21.9668 15.0358H25.5614Z" fill="black"/>
</svg>
