<svg width="28" height="28" viewBox="0 0 28 28" fill="none" xmlns="http://www.w3.org/2000/svg">
<path d="M4.71265 25.3315H15.6863C17.4659 25.3315 18.399 24.3772 18.399 22.456V14.1561C18.399 12.2509 17.4659 11.2986 15.6863 11.2986H4.71265C2.93094 11.2986 2 12.2509 2 14.1561V22.456C2 24.3772 2.93094 25.3315 4.71265 25.3315ZM5.04545 23.2309C4.55842 23.2309 4.28022 22.9334 4.28022 22.3803V14.236C4.28022 13.6808 4.55842 13.3972 5.04545 13.3972H15.3556C15.8523 13.3972 16.1166 13.6808 16.1166 14.236V22.3803C16.1166 22.9334 15.8523 23.2309 15.3556 23.2309H5.04545ZM14.172 12.2949H16.3653V8.37312C16.3653 5.60233 18.1309 4.10702 20.2273 4.10702C22.3259 4.10702 24.0915 5.60233 24.0915 8.37312V10.8566C24.0915 11.6682 24.5691 12.0957 25.1977 12.0957C25.805 12.0957 26.2923 11.6991 26.2923 10.8566V8.59601C26.2923 4.1518 23.3281 2 20.2273 2C17.117 2 14.172 4.1518 14.172 8.59601V12.2949Z" fill="black"/>
</svg>
