<svg width="31" height="28" viewBox="0 0 31 28" fill="none" xmlns="http://www.w3.org/2000/svg">
<path d="M0 19.4517C0 22.7803 2.96765 25.2865 6.63585 25.2865C10.2923 25.2865 13.2483 22.7803 13.2483 19.4517V16.6415C13.8225 16.4379 14.4991 16.3174 15.1884 16.3174C15.9354 16.3174 16.5832 16.3973 17.1169 16.5764V19.458C17.1169 22.7866 20.0728 25.2907 23.7293 25.2907C27.3879 25.2907 30.3651 22.7866 30.3651 19.458C30.3651 18.6089 30.2215 17.7698 29.7684 16.7093L24.9832 5.42249C24.2688 3.75984 22.8258 2.81647 20.9773 2.81647C18.6366 2.81647 17.1169 4.31788 17.1169 6.58897V7.57804C16.5309 7.4257 15.8885 7.34788 15.1884 7.34788C14.5172 7.34788 13.8651 7.44913 13.2483 7.63359V6.58264C13.2483 4.31155 11.7286 2.81226 9.38789 2.81226C7.54148 2.81226 6.08672 3.75562 5.38196 5.41827L0.589219 16.7029C0.134062 17.7656 0 18.6047 0 19.4517ZM2.2153 19.4517C2.2153 17.246 4.11397 15.7502 6.63585 15.7502C9.14813 15.7502 11.1066 17.246 11.1066 19.4517C11.1066 21.6553 9.14813 23.1532 6.63585 23.1532C4.11397 23.1532 2.2153 21.6553 2.2153 19.4517ZM19.2586 19.458C19.2586 17.2523 21.2074 15.7544 23.7293 15.7544C26.2416 15.7544 28.1402 17.2523 28.1402 19.458C28.1402 21.6595 26.2416 23.1574 23.7293 23.1574C21.2074 23.1574 19.2586 21.6595 19.2586 19.458ZM13.2462 13.0504V11.2331C13.863 11.0444 14.5172 10.9549 15.1884 10.9549C15.8885 10.9549 16.5309 11.0231 17.1169 11.1733V12.9757C16.5832 12.8062 15.945 12.7263 15.1884 12.7263C14.497 12.7263 13.8225 12.8468 13.2462 13.0504Z" fill="black"/>
</svg>
