<svg width="28" height="29" viewBox="0 0 28 29" fill="none" xmlns="http://www.w3.org/2000/svg">
<path d="M4.79907 17.816C4.79907 18.8775 5.51766 19.5801 6.62719 19.5801H12.8974V25.1161C12.8974 26.7698 13.7339 28.4269 14.0585 28.4269C14.3735 28.4269 15.21 26.7698 15.21 25.1161V19.7548H15.7673L8.38407 12.3502C6.14344 13.687 4.79907 15.7687 4.79907 17.816ZM7.75758 0.621094C6.87493 0.621094 6.28735 1.18852 6.28735 1.96242C6.28735 2.32969 6.43102 2.74594 6.74837 3.15703C7.34391 3.94125 8.73868 5.04609 10.4487 6.03984L10.3559 7.40415L22.3493 19.3901C22.9535 19.1166 23.3062 18.5627 23.3062 17.816C23.3062 15.2991 21.3026 12.7005 18.0434 11.4862L17.6587 6.03984C19.3591 5.04609 20.7347 3.96047 21.3377 3.18586C21.6668 2.76515 21.8297 2.3393 21.8297 1.96242C21.8297 1.18852 21.2325 0.621094 20.3595 0.621094H7.75758Z" fill="black"/>
<path d="M2.2628 4.08969L23.6908 25.4942C24.0667 25.8584 24.6599 25.8521 25.0103 25.4942C25.3766 25.1279 25.3799 24.541 25.0103 24.1789L3.59404 2.77649C3.22772 2.41016 2.6228 2.40056 2.2628 2.77016C1.9103 3.12266 1.91451 3.7318 2.2628 4.08969Z" fill="black"/>
</svg>
