<svg width="28" height="28" viewBox="0 0 28 28" fill="none" xmlns="http://www.w3.org/2000/svg">
<path d="M0 11.7218C0 12.9068 0.738748 13.6456 1.92796 13.6456H25.8516C27.0387 13.6456 27.7912 12.9068 27.7912 11.7218V11.0337C27.7912 9.85831 27.0387 9.09401 25.8516 9.09401H1.92796C0.736638 9.09401 0 9.85831 0 11.0337V11.7218ZM7.64296 26.5824H20.1483C22.9882 26.5824 23.8573 24.9012 24.2076 23.164L25.8197 15.3101H1.98117L3.58359 23.164C3.93398 24.9012 4.80094 26.5824 7.64296 26.5824ZM8.46374 24.4718C7.98679 24.5463 7.63335 24.2951 7.55671 23.8671L6.56366 18.1603C6.48702 17.7324 6.76804 17.3906 7.24499 17.3023C7.71561 17.2395 8.08499 17.4811 8.15952 17.907L9.14296 23.6159C9.20788 24.0417 8.9503 24.3835 8.46374 24.4718ZM12.1237 24.4559C11.6489 24.4793 11.2976 24.1887 11.2699 23.749L10.8959 18.1231C10.8703 17.6813 11.1865 17.3651 11.6517 17.3299C12.1383 17.2906 12.4662 17.595 12.5034 18.0347L12.8775 23.6649C12.9051 24.1045 12.5869 24.4303 12.1237 24.4559ZM15.6909 24.4559C15.2161 24.4303 14.8999 24.1045 14.9255 23.6649L15.2995 18.0347C15.3368 17.595 15.6668 17.2906 16.1534 17.3299C16.6165 17.3651 16.9326 17.6813 16.9071 18.1231L16.533 23.749C16.5054 24.1887 16.1541 24.4793 15.6909 24.4559ZM19.3275 24.4718C18.8409 24.3835 18.5834 24.0417 18.6483 23.6159L19.6296 17.907C19.7062 17.4811 20.0756 17.2395 20.5462 17.3023C21.0232 17.3906 21.3042 17.7516 21.2276 18.1795L20.2345 23.8671C20.1579 24.2951 19.7885 24.5463 19.3275 24.4718ZM3.78398 9.69706H6.44202L10.5185 2.61494C10.8708 1.99338 10.5982 1.41682 10.0908 1.14659C9.60562 0.888077 8.96718 0.944327 8.61492 1.53495L3.78398 9.69706ZM21.3492 9.69706H24.0073L19.1763 1.53495C18.8379 0.958155 18.2016 0.899796 17.7026 1.14237C17.2027 1.41682 16.9205 1.99338 17.2727 2.61494L21.3492 9.69706Z" fill="black"/>
</svg>
