<svg width="29" height="28" viewBox="0 0 29 28" fill="none" xmlns="http://www.w3.org/2000/svg">
<path d="M0 21.3106C0 23.671 1.31273 24.9624 3.71039 24.9624H18.1655C20.5514 24.9624 21.8641 23.671 21.8641 21.3106V17.3869C21.8641 17.1973 21.9951 17.1078 22.2199 17.2538C22.9097 17.7263 23.7187 18.0486 24.6483 18.0486C26.918 18.0486 28.9849 16.2462 28.9849 13.5148C28.9849 10.793 26.918 8.98859 24.6483 8.98859C23.7187 8.98859 22.9097 9.31297 22.2199 9.78547C21.9951 9.92938 21.8641 9.84196 21.8641 9.65024V5.64968C21.8641 3.28929 20.5514 2 18.1655 2H3.71039C1.31273 2 0 3.28929 0 5.64968V10.8125C0 11.8728 0.705701 12.5389 1.60288 12.5389C2.11148 12.5389 2.57483 12.3345 3.03187 11.9337C3.5871 11.4561 4.19156 11.1418 4.87242 11.1418C6.14086 11.1418 7.18359 12.0767 7.18359 13.4956C7.18359 14.9145 6.14086 15.8473 4.87242 15.8473C4.19156 15.8473 3.5871 15.5255 3.03187 15.0458C2.57483 14.6546 2.11148 14.4523 1.60288 14.4523C0.705701 14.4523 0 15.1163 0 16.167V21.3106ZM2.19889 21.2126V17.5065C2.19889 17.0105 2.45694 17.1793 2.68171 17.3136C3.35226 17.7263 4.10155 18.0219 4.98304 18.0219C7.24101 18.0219 9.31967 16.227 9.31967 13.4956C9.31967 10.7642 7.24101 8.96937 4.98304 8.96937C4.10155 8.96937 3.35226 9.26281 2.68171 9.67766C2.45694 9.81196 2.19889 9.9786 2.19889 9.48266V5.74765C2.19889 4.75671 2.77593 4.19678 3.74343 4.19678H18.1303C19.0999 4.19678 19.6673 4.75671 19.6673 5.74765V10.8125C19.6673 11.8728 20.3709 12.5677 21.2702 12.5677C21.7788 12.5677 22.2422 12.3633 22.6992 11.9626C23.2544 11.4828 23.8589 11.161 24.5377 11.161C25.8061 11.161 26.8488 12.0959 26.8488 13.5148C26.8488 14.9434 25.8061 15.8762 24.5377 15.8762C23.8589 15.8762 23.2544 15.5544 22.6992 15.0746C22.2422 14.6738 21.7788 14.4716 21.2702 14.4716C20.3709 14.4716 19.6673 15.1644 19.6673 16.2247V21.2126C19.6673 22.2132 19.0999 22.7635 18.1303 22.7635H3.74343C2.77593 22.7635 2.19889 22.2132 2.19889 21.2126Z" fill="black"/>
</svg>
