<svg width="28" height="28" viewBox="0 0 28 28" fill="none" xmlns="http://www.w3.org/2000/svg">
<path d="M12.747 27.6622H15.5363C17.0712 27.6622 17.881 26.86 17.881 25.2569V13.0837C17.881 11.8933 18.1571 11.0385 18.594 10.3672L19.3409 9.2549C19.9243 8.34904 20.2833 7.53436 20.2833 6.51928V5.58154H8V6.51928C8 7.53436 8.35906 8.34904 8.94242 9.2549L9.67766 10.3672C10.1263 11.0385 10.3906 11.8933 10.3906 13.0837V25.2569C10.3906 26.86 11.21 27.6622 12.747 27.6622ZM14.1427 18.7581C13.1312 18.7581 12.4826 18.0276 12.4826 16.9926V13.7626C12.4826 12.718 13.1312 12.0163 14.1427 12.0376C15.1405 12.0515 15.8007 12.7532 15.8007 13.7626V16.9926C15.8007 18.0276 15.1405 18.7581 14.1427 18.7581ZM14.1427 17.8902C14.6858 17.8902 15.1543 17.4334 15.1543 16.8787C15.1543 16.3281 14.6858 15.8596 14.1427 15.8596C13.588 15.8596 13.1195 16.3281 13.1195 16.8787C13.1195 17.4334 13.588 17.8902 14.1427 17.8902ZM8 4.0628H20.2833V3.40538C20.2833 1.80226 19.4619 1 17.9269 1H10.3564C8.81937 1 8 1.80226 8 3.40538V4.0628Z" fill="black"/>
</svg>
