<svg width="28" height="28" viewBox="0 0 28 28" fill="none" xmlns="http://www.w3.org/2000/svg">
<path d="M14.105 26.21C20.7369 26.21 26.2121 20.7273 26.2121 14.105C26.2121 7.47312 20.7273 2 14.0954 2C7.47523 2 2 7.47312 2 14.105C2 20.7273 7.48484 26.21 14.105 26.21ZM14.105 23.8255C8.71085 23.8255 4.39412 19.4991 4.39412 14.105C4.39412 8.71085 8.70124 4.38452 14.0954 4.38452C19.4895 4.38452 23.8276 8.71085 23.8276 14.105C23.8276 19.4991 19.4991 23.8255 14.105 23.8255Z" fill="black"/>
<path d="M11.2028 20.8787H16.9977C17.8355 20.8787 18.3308 20.4207 18.3702 19.587L18.7644 10.6255H19.6184C19.9377 10.6255 20.1739 10.3838 20.1835 10.0784C20.1931 9.76133 19.9377 9.5218 19.6184 9.5218H16.9451V8.66328C16.9451 7.67164 16.2859 7.05383 15.1998 7.05383H12.9718C11.8975 7.05383 11.2457 7.67164 11.2457 8.66328V9.5218H8.56277C8.25738 9.5218 8.00192 9.76133 7.99981 10.0784C7.99559 10.3838 8.25738 10.6255 8.56277 10.6255H9.44988L9.84949 19.587C9.87715 20.4207 10.3595 20.8787 11.2028 20.8787ZM12.1156 19.0834C11.8771 19.0834 11.6896 18.9151 11.6875 18.6723L11.4561 12.0184C11.454 11.7596 11.6106 11.5913 11.8939 11.5913C12.1346 11.5913 12.3242 11.7479 12.3263 12.012L12.5384 18.6702C12.5405 18.913 12.3798 19.0834 12.1156 19.0834ZM14.0879 19.0834C13.8237 19.0834 13.648 18.9151 13.648 18.6723V12.0078C13.648 11.7554 13.8141 11.5913 14.0879 11.5913C14.352 11.5913 14.5278 11.7554 14.5278 12.0078V18.6723C14.5278 18.9151 14.352 19.0834 14.0879 19.0834ZM16.0484 19.0834C15.7864 19.0834 15.6235 18.913 15.6277 18.6702L15.8398 12.012C15.8516 11.7479 16.0294 11.5913 16.2798 11.5913C16.5556 11.5913 16.7122 11.7596 16.7101 12.0184L16.4787 18.6723C16.4766 18.9151 16.2891 19.0834 16.0484 19.0834ZM12.4988 9.5218L12.5009 8.70711C12.503 8.41297 12.7215 8.21797 13.0294 8.21797H15.1463C15.4564 8.21797 15.6706 8.41297 15.6748 8.70711L15.6769 9.5218H12.4988Z" fill="black"/>
</svg>
