<svg width="43" height="28" viewBox="0 0 43 28" fill="none" xmlns="http://www.w3.org/2000/svg">
<path d="M10.099 20.6183C10.099 21.6109 10.8396 22.2662 12.0583 22.2662H16.8813C16.9751 24.5194 18.8058 26.5653 21.464 26.5653C24.1298 26.5653 25.9626 24.5291 26.0543 22.2662H30.8772C32.0885 22.2662 32.8366 21.6109 32.8366 20.6183C32.8366 19.3726 31.6877 18.3052 30.6356 17.2812C29.8094 16.4748 29.609 14.8592 29.4583 13.2458C29.3046 8.80578 28.0186 5.84399 24.9541 4.74008C24.5072 3.1775 23.2132 2 21.464 2C19.7224 2 18.4188 3.1775 17.9815 4.74008C14.917 5.84399 13.631 8.80578 13.4773 13.2458C13.3266 14.8592 13.1262 16.4748 12.3 17.2812C11.2383 18.3052 10.099 19.3726 10.099 20.6183ZM12.8955 20.1233V19.9869C13.195 19.6534 13.8771 19.0252 14.4527 18.3666C15.2606 17.4418 15.64 15.755 15.7624 13.531C15.8941 8.77061 17.3564 7.18811 19.2443 6.67108C19.5309 6.60288 19.6929 6.46858 19.7151 6.1428C19.7693 4.95358 20.4365 4.15084 21.464 4.15084C22.499 4.15084 23.1567 4.95358 23.2204 6.1428C23.2427 6.46858 23.3972 6.60288 23.6913 6.67108C25.5792 7.18811 27.0415 8.77061 27.1732 13.531C27.2955 15.755 27.6813 17.4418 28.4733 18.3666C29.0564 19.0252 29.7077 19.6534 30.0073 19.9869V20.1233H12.8955ZM19.0912 22.2662H23.8444C23.7644 23.7439 22.7976 24.6852 21.464 24.6852C20.1379 24.6852 19.1711 23.7439 19.0912 22.2662Z" fill="black"/>
<path d="M8.05988 18.9331C8.44754 18.4775 8.29941 17.9122 7.91176 17.3851C7.26347 16.5652 6.92152 15.4402 6.92152 14.2826C6.92152 13.1251 7.26347 11.9883 7.91176 11.176C8.2973 10.651 8.44754 10.0878 8.05988 9.63006C7.64785 9.13834 6.87723 9.12991 6.40168 9.70365C5.39692 10.9229 4.82996 12.5452 4.82996 14.2826C4.82996 16.0201 5.39692 17.6424 6.40168 18.8574C6.87723 19.4333 7.64785 19.4152 8.05988 18.9331ZM34.8682 18.9331C35.2877 19.4152 36.0487 19.4333 36.5339 18.8574C37.5407 17.6424 38.1056 16.0201 38.1056 14.2826C38.1056 12.5452 37.5407 10.9229 36.5339 9.70365C36.0487 9.12991 35.2877 9.13834 34.8682 9.63006C34.488 10.0878 34.6382 10.651 35.0238 11.176C35.6625 11.9883 36.014 13.1251 36.014 14.2826C36.014 15.4402 35.6625 16.5652 35.0238 17.3851C34.6361 17.9122 34.488 18.4775 34.8682 18.9331Z" fill="black"/>
<path d="M4.64156 22.2919C5.03976 21.8321 4.91624 21.2412 4.47117 20.7376C2.94515 19.0442 2.09156 16.7705 2.09156 14.2826C2.09156 11.7969 2.94304 9.52109 4.47117 7.82984C4.91835 7.32617 5.04398 6.73531 4.64156 6.27547C4.23281 5.78797 3.51539 5.77016 2.99836 6.33196C1.09313 8.3886 0 11.2412 0 14.2826C0 17.3284 1.0636 20.1523 2.99836 22.2355C3.51961 22.7951 4.23492 22.7719 4.64156 22.2919ZM38.294 22.2919C38.7007 22.7719 39.416 22.7951 39.9372 22.2355C41.8741 20.1523 42.9356 17.3284 42.9356 14.2826C42.9356 11.2412 41.8446 8.3886 39.9372 6.33196C39.4223 5.77016 38.7049 5.78797 38.294 6.27547C37.8937 6.73531 38.0172 7.32617 38.4665 7.82984C39.9925 9.52109 40.844 11.7969 40.844 14.2826C40.844 16.7705 39.9904 19.0442 38.4665 20.7376C38.0214 21.2412 37.8958 21.8321 38.294 22.2919Z" fill="black"/>
</svg>
