<svg width="28" height="28" viewBox="0 0 28 28" fill="none" xmlns="http://www.w3.org/2000/svg">
<path d="M4.81359 24.1351H22.5773C25.4313 24.1351 27.3909 22.1872 27.3909 19.3567C27.3909 16.5283 25.4313 14.5729 22.5773 14.5729H4.81359C1.95961 14.5729 0 16.5283 0 19.3567C0 22.1872 1.95961 24.1351 4.81359 24.1351ZM4.81359 12.8598H22.5773C23.7485 12.8598 24.8175 13.1207 25.7353 13.5997L22.8586 6.82747C22.0877 5.00942 20.523 4.01379 18.4219 4.01379H8.97327C6.8721 4.01379 5.30742 5.00942 4.53656 6.82747L1.65445 13.5934C2.57765 13.1207 3.64453 12.8598 4.81359 12.8598ZM20.932 19.3567C20.932 18.5207 21.6466 17.8082 22.504 17.8082C23.3304 17.8082 24.0546 18.5207 24.0546 19.3567C24.0546 20.2183 23.3325 20.9031 22.504 20.9073C21.6445 20.919 20.932 20.2279 20.932 19.3567Z" fill="black"/>
</svg>
