<svg width="28" height="28" viewBox="0 0 28 28" fill="none" xmlns="http://www.w3.org/2000/svg">
<path d="M14.105 26.21C20.7369 26.21 26.2121 20.7273 26.2121 14.105C26.2121 7.47312 20.7273 2 14.0954 2C7.47523 2 2 7.47312 2 14.105C2 20.7273 7.48484 26.21 14.105 26.21ZM14.105 23.8255C8.71085 23.8255 4.39412 19.4991 4.39412 14.105C4.39412 8.71085 8.70124 4.38452 14.0954 4.38452C19.4895 4.38452 23.8276 8.71085 23.8276 14.105C23.8276 19.4991 19.4991 23.8255 14.105 23.8255Z" fill="black"/>
<path d="M14.3571 21.4375C14.8469 21.4375 15.191 21.0454 15.4233 20.4349L19.6511 9.37817C19.762 9.09036 19.8164 8.84099 19.8164 8.62466C19.8164 8.17747 19.5471 7.91028 19.102 7.91028C18.8836 7.91028 18.6342 7.96466 18.3485 8.07552L7.24172 12.3227C6.70054 12.524 6.28711 12.8702 6.28711 13.3579C6.28711 13.9619 6.73242 14.1822 7.36312 14.3814L10.7135 15.393C11.1586 15.5399 11.4141 15.5324 11.7248 15.2493L18.8301 8.63778C18.9164 8.55364 19.0186 8.57497 19.0889 8.63778C19.173 8.7006 19.173 8.81028 19.0889 8.89442L12.5062 16.0244C12.2315 16.315 12.2018 16.5724 12.3274 17.0261L13.3315 20.3017C13.5403 20.9613 13.7435 21.4375 14.3571 21.4375Z" fill="black"/>
</svg>
