<svg width="28" height="28" viewBox="0 0 28 28" fill="none" xmlns="http://www.w3.org/2000/svg">
<path d="M14.105 26.2301C20.7369 26.2301 26.2121 20.7549 26.2121 14.123C26.2121 7.50289 20.7273 2.01805 14.0954 2.01805C7.47523 2.01805 2 7.50289 2 14.123C2 20.7549 7.48484 26.2301 14.105 26.2301Z" fill="black"/>
<path d="M9.57464 20.5899C9.22988 20.5899 8.92871 20.3005 8.92871 19.9536V9.90756C8.92871 9.35819 9.19707 8.95577 9.71878 8.72256C10.1671 8.50952 10.5569 8.40405 11.4893 8.40405C13.6593 8.40405 15.022 9.47163 17.0285 9.47163C17.9992 9.47163 18.5203 9.21592 18.8845 9.21592C19.4104 9.21592 19.6359 9.49694 19.6359 9.90663V15.7974C19.6359 16.3819 19.391 16.7588 18.8596 17.0176C18.392 17.2273 18.0002 17.3148 17.0849 17.3148C15.0032 17.3148 13.6544 16.2685 11.5457 16.2685C10.8717 16.2685 10.4261 16.3944 10.1875 16.4839V19.9536C10.1875 20.3122 9.94284 20.5899 9.57464 20.5899Z" fill="white"/>
</svg>
