<svg width="28" height="28" viewBox="0 0 28 28" fill="none" xmlns="http://www.w3.org/2000/svg">
<path d="M1 13.4842C1 16.6483 2.77515 18.3894 6.08312 18.3894H10.1158C14.2021 18.8708 18.4455 20.2321 22.2369 22.5444V20.1062C18.573 17.8884 14.4362 16.656 10.0581 16.1927H6.08312C4.00608 16.1927 3.19678 15.426 3.19678 13.4842V11.7911C3.19678 9.83968 4.00608 9.08264 6.08312 9.08264H9.94632C14.398 8.63311 18.6348 7.35811 22.2369 5.15944V2.72453C18.678 4.99774 13.9206 6.47898 10.1903 6.88375H6.08312C2.77515 6.88375 1 8.61203 1 11.7911V13.4842ZM12.2169 17.9882H10.1214L11.1227 23.0458C11.2016 23.4972 10.9701 23.7906 10.652 23.9005C10.3105 24.0222 9.86663 23.9123 9.63718 23.432L6.97608 17.7634H4.72516L7.50602 23.9301C8.50914 26.1695 10.285 26.3237 11.5124 25.9173C12.7178 25.5161 13.4589 24.3801 13.1479 22.7835L12.2169 17.9882ZM8.37133 7.8018V17.4735H10.5798V7.8018H8.37133ZM21.4424 21.0857C21.4424 22.9129 22.7324 24.1933 24.5479 24.1933C26.3868 24.1933 27.6629 22.9129 27.6629 21.0857V4.10335C27.6629 2.27828 26.3826 1 24.5479 1C22.7324 1 21.4424 2.27617 21.4424 4.10335V21.0857ZM23.6509 21.0857V4.10335C23.6509 3.55936 24.0018 3.19678 24.5479 3.19678C25.094 3.19678 25.4641 3.55936 25.4641 4.10335V21.0857C25.4641 21.6318 25.094 21.9923 24.5479 21.9923C24.0018 21.9923 23.6509 21.6318 23.6509 21.0857Z" fill="black"/>
</svg>
