<svg width="28" height="28" viewBox="0 0 28 28" fill="none" xmlns="http://www.w3.org/2000/svg">
<path d="M14.105 26.21C20.7369 26.21 26.2121 20.7273 26.2121 14.105C26.2121 7.47312 20.7273 2 14.0954 2C7.47523 2 2 7.47312 2 14.105C2 20.7273 7.48484 26.21 14.105 26.21Z" fill="black"/>
<path d="M16.7369 19.0892C16.4845 19.2383 16.1671 19.1595 16.0202 18.8858L13.1006 13.8437C12.8821 13.9332 12.606 14.0227 12.2948 14.2135C11.1908 14.8358 10.7305 15.9087 9.47754 16.6311C9.13981 16.8399 8.72215 17.0445 8.28645 17.0445C7.86785 17.0445 7.58449 16.8591 7.38106 16.4895L5.47371 13.2076C5.25645 12.837 5.43223 12.4803 5.75285 12.3024C5.96379 12.1831 6.39106 12.0659 6.90035 11.7697C8.02348 11.1261 8.46246 10.0883 9.71543 9.35421C10.0766 9.14749 10.4825 8.95999 10.8086 8.95999C11.1857 8.95999 11.5457 9.05796 11.8098 9.49249L16.9307 18.3608C17.0777 18.6132 16.9956 18.9444 16.7369 19.0892ZM19.8756 17.0445C19.4399 17.0445 19.034 16.8399 18.6867 16.6311C17.4721 15.9376 16.7481 14.5241 15.4286 13.9904L14.5907 12.5616L16.364 9.5021C16.6164 9.05796 16.9881 8.95999 17.3653 8.95999C17.6913 8.95999 18.0876 9.14749 18.4563 9.35421C19.7113 10.0883 20.1386 11.1261 21.2735 11.7697C21.7731 12.0659 22.2079 12.1831 22.4188 12.3024C22.7395 12.4899 22.9174 12.837 22.698 13.2076L20.7906 16.4895C20.5776 16.8591 20.306 17.0445 19.8756 17.0445ZM11.4348 19.0892C11.1686 18.9444 11.094 18.6132 11.241 18.3608L12.9761 15.3755L13.5831 16.4234L12.1516 18.8858C12.0046 19.1595 11.6872 19.2479 11.4348 19.0892Z" fill="white"/>
</svg>
