<svg width="29" height="29" viewBox="0 0 29 29" fill="none" xmlns="http://www.w3.org/2000/svg">
<path d="M8.7119 16.7392L16.1957 10.5287L8.18453 2.46741C6.44992 0.742407 4.59297 0.73397 2.90735 2.41959L1.25595 4.07521C-0.429675 5.76084 -0.423347 7.61146 1.30376 9.33856L8.7119 16.7392ZM8.26939 11.7889L3.76891 7.30771C3.55188 7.08646 3.56149 6.73443 3.77524 6.5099C3.99227 6.30881 4.34336 6.3217 4.54117 6.51201L9.05548 11.0284C9.27251 11.2496 9.2629 11.5857 9.05126 11.791C8.84384 12.0059 8.48853 12.0102 8.26939 11.7889ZM9.85095 10.2266L5.36219 5.70482C5.15477 5.49318 5.14305 5.15287 5.36852 4.93584C5.56844 4.73264 5.91742 4.72303 6.13445 4.93795L10.637 9.43303C10.8487 9.64467 10.8466 9.99248 10.6253 10.2287C10.4392 10.4223 10.0605 10.4478 9.85095 10.2266ZM25.031 27.7564L26.6045 26.1828C26.8652 25.9222 26.8225 25.5819 26.598 25.1774L24.4452 21.3362C24.2153 20.9326 23.7958 20.6621 23.3774 20.6378L22.207 20.5665L16.2916 14.6553L13.5353 17.5147L19.4029 23.3802L19.4742 24.5527C19.4985 24.9498 19.7594 25.3789 20.1726 25.5971L24.0351 27.7733C24.4204 27.9786 24.7586 28.0288 25.031 27.7564Z" fill="black"/>
<path d="M2.01526 26.6399C4.09651 28.6977 6.90291 28.6852 8.91736 26.6591C11.4575 24.0976 11.3958 20.7796 19.2622 13.0433L18.038 11.8117C9.33947 20.5391 10.3477 22.5261 7.56174 25.3142C6.33057 26.5529 4.66135 26.5942 3.34838 25.3046C2.04712 23.9799 2.10009 22.3224 3.31955 21.0934C6.1269 18.2977 8.11181 19.3114 16.8296 10.6128L15.6097 9.38869C7.82493 17.3035 4.55331 17.1934 1.99182 19.7239C-0.0439579 21.7384 -0.0563785 24.5544 2.01526 26.6399ZM16.4984 12.147C19.2179 14.8686 23.5606 14.9666 26.1938 12.3409C28.3728 10.164 28.715 6.70298 27.0139 3.95705L25.6937 5.28689C26.7012 7.25189 26.3984 9.56611 24.9087 11.0654C22.9937 12.9805 19.8158 12.8867 17.7835 10.8716C15.7566 8.84681 15.6767 5.65181 17.6014 3.74633C19.0911 2.25454 21.432 1.95172 23.3469 2.96891L24.6767 1.63907C21.95 -0.0502944 18.5007 0.282285 16.3238 2.46876C13.6981 5.08486 13.7844 9.42548 16.4984 12.147ZM20.0956 6.86634L21.8047 8.55946C22.6803 9.43298 23.8062 9.45642 24.635 8.61806L27.155 6.09056L26.0225 4.96767L23.7948 7.17408C23.4952 7.4715 23.1411 7.48861 22.8244 7.17619L21.5002 5.84657C21.1794 5.5161 21.1526 5.15024 21.4501 4.8486L23.6949 2.62087L22.5357 1.49048L20.0349 4.00087C19.1656 4.86267 19.189 5.9811 20.0956 6.86634ZM5.4226 24.65C6.19205 24.65 6.82088 24.0191 6.82088 23.2517C6.82088 22.4844 6.19205 21.861 5.4226 21.861C4.65525 21.861 4.03181 22.4844 4.03181 23.2517C4.03181 24.0191 4.65525 24.65 5.4226 24.65Z" fill="black"/>
</svg>
