<svg width="28" height="28" viewBox="0 0 28 28" fill="none" xmlns="http://www.w3.org/2000/svg">
<path d="M5 23.8316C5 25.3328 5.84914 26.2619 7.24694 26.2619H21.1714C22.5713 26.2619 23.4204 25.3328 23.4204 23.8316V3.44194C23.4204 1.94078 22.5713 1.01172 21.1714 1.01172H7.24694C5.84914 1.01172 5 1.94078 5 3.44194V23.8316ZM10.0627 24.1832V20.4927C10.0627 19.9452 10.4206 19.5894 10.9681 19.5894H17.4903C18.0884 19.5894 18.4421 19.9452 18.4421 20.4927V24.1832H10.0627ZM9.7414 7.47132V5.2232C9.7414 4.93023 9.9289 4.72562 10.2155 4.72562H12.5804C12.867 4.72562 13.0737 4.93023 13.0737 5.2232V7.47132C13.0737 7.7739 12.867 7.96679 12.5804 7.96679H10.2155C9.9289 7.96679 9.7414 7.7739 9.7414 7.47132ZM15.4332 7.47132V5.2232C15.4332 4.93023 15.6207 4.72562 15.9169 4.72562H18.2722C18.5588 4.72562 18.7655 4.93023 18.7655 5.2232V7.47132C18.7655 7.7739 18.5588 7.96679 18.2722 7.96679H15.9169C15.6207 7.96679 15.4332 7.7739 15.4332 7.47132ZM9.7414 12.2568V10.0087C9.7414 9.7157 9.9289 9.50898 10.2155 9.50898H12.5804C12.867 9.50898 13.0737 9.7157 13.0737 10.0087V12.2568C13.0737 12.5594 12.867 12.7544 12.5804 12.7544H10.2155C9.9289 12.7544 9.7414 12.5594 9.7414 12.2568ZM15.4332 12.2568V10.0087C15.4332 9.7157 15.6207 9.50898 15.9169 9.50898H18.2722C18.5588 9.50898 18.7655 9.7157 18.7655 10.0087V12.2568C18.7655 12.5594 18.5588 12.7544 18.2722 12.7544H15.9169C15.6207 12.7544 15.4332 12.5594 15.4332 12.2568ZM9.7414 17.0423V14.792C9.7414 14.4916 9.9289 14.2966 10.2155 14.2966H12.5804C12.867 14.2966 13.0737 14.4916 13.0737 14.792V17.0423C13.0737 17.3352 12.867 17.5398 12.5804 17.5398H10.2155C9.9289 17.5398 9.7414 17.3352 9.7414 17.0423ZM15.4332 17.0423V14.792C15.4332 14.4916 15.6207 14.2966 15.9169 14.2966H18.2722C18.5588 14.2966 18.7655 14.4916 18.7655 14.792V17.0423C18.7655 17.3352 18.5588 17.5398 18.2722 17.5398H15.9169C15.6207 17.5398 15.4332 17.3352 15.4332 17.0423Z" fill="black"/>
</svg>
