<svg width="28" height="28" viewBox="0 0 28 28" fill="none" xmlns="http://www.w3.org/2000/svg">
<path d="M6.31975 26.9493C6.95069 26.9493 7.23029 26.6257 7.3824 26.0374L8.34779 22.3804H18.8145L19.7799 26.0374C19.9416 26.6257 20.2522 26.9493 20.8405 26.9493C21.5321 26.9493 21.9022 26.5261 21.9022 25.9218C21.9022 25.7878 21.8883 25.6516 21.849 25.5058L19.9993 18.5517H20.7465C21.5588 18.5517 22.1752 17.9953 22.1752 17.2683C22.1752 16.4826 21.609 15.9443 20.7966 15.9443H7.36951C6.37038 15.9443 5.82429 15.4408 5.82429 14.4811V11.4326H7.42437V12.2744C7.42437 13.6294 8.11859 14.2926 9.51078 14.2926H17.7589C19.1415 14.2926 19.8357 13.6294 19.8357 12.2744V11.4326H23.9384C24.6429 11.4326 25.1131 10.9861 25.1131 10.3551C25.1131 9.71038 24.6547 9.27022 23.979 9.27022H3.08398C2.43711 9.27022 2 9.71999 2 10.3551C2 10.9861 2.46054 11.4326 3.13413 11.4326H3.85812V15.9768C3.85812 17.5933 4.84953 18.5517 6.47023 18.5517H7.16304L5.32296 25.5058C5.28359 25.642 5.25804 25.7643 5.25804 25.9272C5.25804 26.5047 5.59718 26.9493 6.31975 26.9493ZM8.90326 20.3182L9.36381 18.5517H17.7985L18.2591 20.3182H8.90326ZM9.52507 7.50726H17.772C19.1979 7.50726 19.8849 6.85124 19.8849 5.45085V2.05218C19.8849 0.656015 19.1979 0 17.772 0H9.52507C8.09164 0 7.41007 0.656015 7.41007 2.05218V5.45085C7.41007 6.85124 8.09164 7.50726 9.52507 7.50726Z" fill="black"/>
</svg>
