<svg width="47" height="28" viewBox="0 0 47 28" fill="none" xmlns="http://www.w3.org/2000/svg">
<path d="M3.37851 19.9444H33.2491C35.2406 19.9444 36.6276 18.5498 36.6276 16.568V9.38601C36.6276 7.40414 35.2406 6 33.2491 6H3.37851C1.38492 6 0 7.39453 0 9.38601V16.568C0 18.5594 1.38492 19.9444 3.37851 19.9444ZM35.6791 17.1797H37.6495C38.5235 17.1797 39.1802 16.5326 39.1802 15.6586V10.5035C39.1802 9.62953 38.5235 8.98242 37.6495 8.98242H35.6791V17.1797ZM38.8256 14.0915H46.6082V12.2864H38.8256V14.0915Z" fill="black"/>
<path d="M4.23825 15.8493C3.837 15.8493 3.5752 15.5854 3.5752 15.1959V10.7367C3.5752 10.3258 3.837 10.0737 4.23825 10.0737H5.05223C5.43004 10.0737 5.70356 10.3258 5.70356 10.7367V15.1959C5.70356 15.5854 5.43004 15.8493 5.05223 15.8493H4.23825ZM11.6177 16.7894C9.51847 16.7894 7.80262 15.0853 7.80262 12.9743C7.80262 10.8825 9.51847 9.15491 11.6177 9.15491C13.7212 9.15491 15.435 10.8825 15.435 12.9743C15.435 15.0853 13.7212 16.7894 11.6177 16.7894ZM20.6733 16.7894C18.574 16.7894 16.8773 15.0853 16.8773 12.9743C16.8773 10.8825 18.574 9.15491 20.6733 9.15491C22.7843 9.15491 24.5001 10.8825 24.5001 12.9743C24.5001 15.0853 22.7843 16.7894 20.6733 16.7894ZM29.7363 16.7894C27.6253 16.7894 25.9329 15.0853 25.9329 12.9743C25.9329 10.8825 27.6253 9.15491 29.7363 9.15491C31.8398 9.15491 33.5515 10.8825 33.5515 12.9743C33.5515 15.0853 31.8398 16.7894 29.7363 16.7894ZM10.2319 14.944C10.5248 14.944 10.7517 14.7075 10.7517 14.4241V11.5383C10.7517 11.2486 10.5248 11.0004 10.2319 11.0004C9.94434 11.0004 9.69402 11.2603 9.69402 11.5383V14.4241C9.69402 14.6958 9.94434 14.944 10.2319 14.944ZM13.0078 14.944C13.2954 14.944 13.5201 14.7075 13.5201 14.4241V11.5383C13.5201 11.2486 13.2954 11.0004 13.0078 11.0004C12.7031 11.0004 12.4645 11.2486 12.4645 11.5383V14.4241C12.4645 14.7075 12.7148 14.944 13.0078 14.944ZM19.2811 14.944C19.59 14.944 19.8148 14.7075 19.8148 14.4241V11.5383C19.8148 11.2486 19.59 11.0004 19.2811 11.0004C18.9977 11.0004 18.7474 11.2603 18.7474 11.5383V14.4241C18.7474 14.7075 18.9977 14.944 19.2811 14.944ZM22.0612 14.944C22.3488 14.944 22.5853 14.7075 22.5853 14.4241V11.5383C22.5853 11.2486 22.3605 11.0004 22.0612 11.0004C21.7662 11.0004 21.5276 11.2486 21.5276 11.5383V14.4241C21.5276 14.7075 21.7662 14.944 22.0612 14.944ZM28.3462 14.944C28.6338 14.944 28.8799 14.7075 28.8799 14.4241V11.5383C28.8799 11.2486 28.6455 11.0004 28.3462 11.0004C28.0512 11.0004 27.8126 11.2603 27.8126 11.5383V14.4241C27.8126 14.7075 28.0512 14.944 28.3462 14.944ZM31.1264 14.944C31.4119 14.944 31.6387 14.7075 31.6387 14.4241V11.5383C31.6387 11.2486 31.4119 11.0004 31.1264 11.0004C30.8196 11.0004 30.5789 11.2486 30.5789 11.5383V14.4241C30.5789 14.7075 30.8313 14.944 31.1264 14.944Z" fill="white"/>
</svg>
