<svg width="28" height="28" viewBox="0 0 28 28" fill="none" xmlns="http://www.w3.org/2000/svg">
<path d="M5.58898 20.3819H11.5196C12.0544 20.3819 12.3519 20.0533 12.3912 19.5644C12.6767 16.4556 13.4098 14.6971 13.9937 13.1388L12.706 11.0786C12.2248 12.5289 11.2386 14.0706 10.6655 18.5008H6.43343C5.59038 11.8689 3.89491 11.3291 3.89491 8.76037C3.89491 6.31912 6.01015 4.5681 8.54843 4.5681C10.1272 4.5681 11.5737 5.26466 12.3057 6.40066L13.3311 4.71739C12.207 3.45974 10.4787 2.67529 8.54843 2.67529C4.91937 2.67529 2 5.32772 2 8.76037C2 12.4361 4.14172 13.4662 4.71735 19.5644C4.74711 20.0533 5.05414 20.3819 5.58898 20.3819ZM5.51375 22.7624H11.5948C11.9994 22.7624 12.3251 22.4516 12.3251 22.0534C12.3251 21.6456 11.9994 21.3348 11.5948 21.3348H5.51375C5.10922 21.3348 4.80266 21.6552 4.80266 22.0534C4.80266 22.4399 5.10922 22.7624 5.51375 22.7624ZM8.56015 25.7638C10.1429 25.7638 11.4619 24.9276 11.4917 23.7133H5.62765C5.66164 24.9276 6.9657 25.7638 8.56015 25.7638Z" fill="black"/>
<path d="M18.9936 1C14.8252 1 11.5042 4.02648 11.5042 7.93867C11.5042 12.126 13.9838 13.3051 14.6448 20.4205C14.6862 20.9573 15.0059 21.2889 15.5576 21.2889H22.4391C22.9887 21.2889 23.3084 20.9573 23.3541 20.4205C24.0151 13.3051 26.5065 12.126 26.5065 7.94289C26.5065 4.02859 23.1737 1 18.9936 1ZM18.9936 3.00952C21.9744 3.01163 24.4991 5.06663 24.4991 7.93867C24.4991 10.9244 22.4912 11.6519 21.5159 19.2836H16.4808C15.5098 11.6519 13.5115 10.9244 13.5115 7.93867C13.5115 5.06663 16.0245 3.00952 18.9936 3.00952ZM15.4878 23.8398H22.5186C22.9336 23.8398 23.2679 23.5185 23.2679 23.1044C23.2679 22.686 22.9336 22.3668 22.5186 22.3668H15.4878C15.0631 22.3668 14.7502 22.686 14.7502 23.1044C14.7502 23.5185 15.0631 23.8398 15.4878 23.8398ZM19.0032 27.1119C20.7659 27.1119 22.2022 26.2321 22.2938 24.9177H15.7041C15.7787 26.2321 17.2308 27.1119 19.0032 27.1119Z" fill="black"/>
</svg>
