<svg width="28" height="28" viewBox="0 0 28 28" fill="none" xmlns="http://www.w3.org/2000/svg">
<path d="M3.00211 4.2046H6.21561V2.41281C6.21561 1.52265 5.74405 1 4.92749 1H4.27101C3.46406 1 3.00211 1.54398 3.00211 2.41492V4.2046ZM3 24.7199L4.14656 27.463C4.29539 27.8001 4.81546 27.8087 4.96546 27.4769L6.2135 24.7199V5.72124H3V24.7199ZM15.1256 27.7452H21.0794C22.8567 27.7452 24.0644 26.529 24.0644 24.7422V4.20413C24.0644 2.41515 22.8567 1.19359 21.0794 1.19359H15.1256C13.3483 1.19359 12.146 2.41726 12.146 4.21585V24.7443C12.146 26.5312 13.3483 27.7452 15.1256 27.7452ZM21.9912 4.72702H17.2727C17.0055 4.72702 16.7915 4.52686 16.7915 4.25006C16.7915 3.99249 16.9938 3.786 17.2589 3.786H21.9912V4.72702ZM21.9912 6.76514H19.0357C18.7685 6.76514 18.5737 6.5767 18.5737 6.2978C18.5737 6.03272 18.7589 5.82413 19.024 5.82413H21.9912V6.76514ZM21.9912 8.81499H19.0357C18.7685 8.81499 18.5737 8.62444 18.5737 8.34764C18.5737 8.08257 18.7589 7.87397 19.024 7.87397H21.9912V8.81499ZM21.9912 10.8552H19.0357C18.7685 10.8552 18.5737 10.6743 18.5737 10.3879C18.5737 10.1207 18.7589 9.9046 19.024 9.9046H21.9912V10.8552ZM21.9912 12.8933H19.0357C18.7685 12.8933 18.5737 12.7145 18.5737 12.4377C18.5737 12.1823 18.7589 11.9544 19.024 11.9544H21.9912V12.8933ZM21.9912 14.9411H17.2727C17.0055 14.9411 16.7915 14.7526 16.7915 14.4758C16.7915 14.2204 16.9938 13.9926 17.2589 13.9926H21.9912V14.9411ZM21.9912 16.993H19.0357C18.7685 16.993 18.5737 16.8046 18.5737 16.5236C18.5737 16.2585 18.7589 16.0403 19.024 16.0403H21.9912V16.993ZM21.9912 19.0408H19.0357C18.7685 19.0408 18.5737 18.8427 18.5737 18.5659C18.5737 18.3083 18.7589 18.1019 19.024 18.1019H21.9912V19.0408ZM21.9912 21.0693H19.0357C18.7685 21.0693 18.5737 20.8808 18.5737 20.6041C18.5737 20.339 18.7589 20.1304 19.024 20.1304H21.9912V21.0693ZM21.9912 23.1212H19.0357C18.7685 23.1212 18.5737 22.9328 18.5737 22.6422C18.5737 22.3867 18.7589 22.1781 19.024 22.1781H21.9912V23.1212ZM21.9912 25.1498H17.2727C17.0055 25.1498 16.7915 24.9709 16.7915 24.6941C16.7915 24.4269 16.9938 24.2109 17.2589 24.2109H21.9912V25.1498Z" fill="black"/>
</svg>
