<svg width="28" height="30" viewBox="0 0 28 30" fill="none" xmlns="http://www.w3.org/2000/svg">
<path d="M7.79749 7.45006H11.5409L19.7705 15.7343V23.7991H22.5704C25.073 23.7991 26.3762 22.4747 26.3762 19.9549V3.84421C26.3762 1.32234 25.073 0 22.5704 0H11.6033C9.1006 0 7.79749 1.31273 7.79749 3.84421V7.45006ZM14.3129 4.1946C13.7909 4.1946 13.5207 3.83156 13.5207 3.45046V3.19171C13.5207 2.83054 13.7698 2.44758 14.3129 2.44758H19.8629C20.3963 2.44758 20.6551 2.83054 20.6551 3.19171V3.45046C20.6551 3.83156 20.3731 4.1946 19.8629 4.1946H14.3129Z" fill="black"/>
<path d="M2 25.965C2 28.4965 3.29562 29.8092 5.80577 29.8092H16.775C19.2851 29.8092 20.5808 28.4848 20.5808 25.965V16.9455C20.5808 15.3759 20.3818 14.6416 19.4 13.6406L13.0484 7.19085C12.1051 6.22827 11.3014 6.01007 9.88976 6.01007H5.80577C3.30523 6.01007 2 7.3228 2 9.85428V25.965ZM4.29592 25.8223V9.9874C4.29592 8.91701 4.85795 8.30599 5.99866 8.30599H9.59984V14.7211C9.59984 16.4001 10.43 17.2186 12.0877 17.2186H18.2827V25.8223C18.2827 26.9119 17.7111 27.5133 16.5821 27.5133H5.98905C4.85795 27.5133 4.29592 26.9119 4.29592 25.8223ZM12.3146 15.1938C11.8311 15.1938 11.6246 14.9894 11.6246 14.5038V8.75646L17.9638 15.1938H12.3146Z" fill="black"/>
</svg>
