<svg width="28" height="28" viewBox="0 0 28 28" fill="none" xmlns="http://www.w3.org/2000/svg">
<path d="M6.41944 24.7662L19.3389 27.0469C21.7876 27.4824 23.3066 26.0911 23.3066 23.4155V9.2689C23.3066 6.81805 22.101 5.87211 19.6281 5.43993L7.09421 3.22415C5.24617 2.90376 4 3.94555 4 5.78281V21.9711C4 23.5402 4.82476 24.4852 6.41944 24.7662ZM8.74397 10.2174C8.29702 10.1407 8.03311 9.796 8.03311 9.32561C8.03311 8.76265 8.47467 8.39023 9.09623 8.49663L18.1136 10.0758C18.584 10.1759 18.8458 10.4525 18.8458 10.9655C18.8458 11.5306 18.4373 11.9243 17.8124 11.8179L8.74397 10.2174ZM8.74397 15.0211C8.30334 14.9424 8.03311 14.5997 8.03311 14.1314C8.03311 13.5781 8.47467 13.2078 9.09623 13.3121L18.1136 14.8913C18.584 14.9818 18.8458 15.2658 18.8458 15.7671C18.8458 16.3439 18.4373 16.7377 17.8124 16.6334L8.74397 15.0211ZM9.97935 2.07875L19.9136 3.82626C20.973 4.02219 21.8535 4.31071 22.5712 4.71524L22.569 3.93195C22.5226 1.3993 20.7416 0.175628 17.8419 0.688908L9.97935 2.07875Z" fill="black"/>
</svg>
