<svg width="32" height="29" viewBox="0 0 32 29" fill="none" xmlns="http://www.w3.org/2000/svg">
<path d="M15.9117 21.6319C13.5795 21.6319 12.0356 20.8284 12.0356 19.6552C12.0356 18.4819 13.5795 17.688 15.9117 17.688C18.2557 17.688 19.7996 18.4819 19.7996 19.6552C19.7996 20.8284 18.2461 21.6319 15.9117 21.6319ZM15.9117 6.27304C18.8684 6.27304 21.5335 4.26328 21.5335 1.96054C21.5335 1.21406 21.1299 0.790312 20.2268 0.512343C19.0777 0.18 17.5885 0 15.9117 0C14.2467 0 12.7575 0.18 11.6084 0.512343C10.7053 0.790312 10.3017 1.20445 10.3017 1.96054C10.3017 4.26328 12.9572 6.27304 15.9117 6.27304ZM14.892 13.4529H16.9432V5.44758H14.892V13.4529ZM12.7381 13.2609L15.9117 14.8856L19.0971 13.2609C18.2374 12.8902 17.1614 12.6813 15.9117 12.6813C14.6738 12.6813 13.5978 12.8902 12.7381 13.2609ZM15.9117 23.1384C19.1543 23.1384 21.3061 21.7387 21.3061 19.6552C21.3061 17.5791 19.1543 16.1794 15.9117 16.1794C12.6713 16.1794 10.5291 17.5791 10.5291 19.6552C10.5291 21.7387 12.6713 23.1384 15.9117 23.1384ZM4.52066 10.2509C0.598399 8.24016 -1.78707 13.4093 1.66761 15.0834L9.51636 18.8976C9.88761 16.9523 11.7045 15.6267 14.2486 15.2241L4.52066 10.2509ZM27.3146 10.2509L17.5866 15.2241C20.1307 15.6267 21.9476 16.9523 22.3092 18.8976L30.1676 15.0834C33.6223 13.4093 31.2368 8.24016 27.3146 10.2509ZM3.94761 21.9937C0.153087 23.7839 2.85917 28.8103 6.32769 27.0394L12.796 23.7419C10.7428 23.0334 9.43737 21.5892 9.43737 19.6552C9.43737 19.5787 9.44159 19.4948 9.44581 19.4205L3.94761 21.9937ZM27.878 21.9937L22.3894 19.4205C22.3936 19.4948 22.3978 19.5787 22.3978 19.6552C22.3978 21.5892 21.0828 23.0334 19.0392 23.7419L25.5075 27.0394C28.976 28.8103 31.6725 23.7839 27.878 21.9937Z" fill="black"/>
</svg>
