<svg width="28" height="28" viewBox="0 0 28 28" fill="none" xmlns="http://www.w3.org/2000/svg">
<path d="M13.8965 26.4196C14.103 26.4196 14.4203 26.3388 14.7175 26.1768C21.4572 22.4976 23.793 20.8143 23.793 16.5391V7.67971C23.793 6.29105 23.2551 5.80097 22.0923 5.30527C20.7897 4.76269 16.3987 3.21839 15.1213 2.78222C14.7332 2.65776 14.29 2.5769 13.8965 2.5769C13.503 2.5769 13.0598 2.67909 12.6812 2.78222C11.4039 3.14691 7.00328 4.7723 5.70062 5.30527C4.5475 5.79136 4 6.29105 4 7.67971V16.5391C4 20.8143 6.34539 22.488 13.0755 26.1768C13.3823 26.3388 13.69 26.4196 13.8965 26.4196ZM13.8965 23.9589C13.728 23.9589 13.5616 23.8971 13.2205 23.6903C7.86343 20.4239 6.20077 19.5452 6.20077 16.1013V8.05354C6.20077 7.64034 6.27952 7.47534 6.61186 7.34432C8.34671 6.65596 11.7151 5.53166 13.2843 4.91502C13.5477 4.81611 13.7296 4.78213 13.8965 4.78213C14.0634 4.78213 14.2431 4.82572 14.5087 4.91502C16.0778 5.53166 19.427 6.72323 21.1907 7.34432C21.5113 7.46573 21.5922 7.64034 21.5922 8.05354V16.1013C21.5922 19.5642 19.8705 20.4944 14.5724 23.6903C14.241 23.895 14.065 23.9589 13.8965 23.9589Z" fill="black"/>
<path d="M9.69971 18.4295C9.69971 19.3189 10.097 19.7354 10.9182 19.7354H16.8788C17.7001 19.7354 18.0973 19.3189 18.0973 18.4295V13.8582C18.0973 13.059 17.768 12.6446 17.1104 12.5809V11.2571C17.1104 9.10294 15.815 7.65942 13.8985 7.65942C11.982 7.65942 10.6888 9.10294 10.6888 11.2571V12.5787C10.0269 12.6446 9.69971 13.059 9.69971 13.8582V18.4295ZM12.0552 12.5565V11.1387C12.0552 9.83606 12.793 8.99066 13.8985 8.99066C15.0061 8.99066 15.7419 9.83395 15.7419 11.1387V12.5565H12.0552Z" fill="black"/>
</svg>
