<svg width="28" height="28" viewBox="0 0 28 28" fill="none" xmlns="http://www.w3.org/2000/svg">
<path d="M6.84421 24.8972H21.0295C23.5685 24.8972 24.8737 23.5919 24.8737 21.0914V6.82921C24.8737 4.32656 23.5685 3.02344 21.0295 3.02344H6.84421C4.31484 3.02344 3 4.31695 3 6.82921V21.0914C3 23.6016 4.31484 24.8972 6.84421 24.8972ZM6.97733 22.6013C5.88772 22.6013 5.29592 22.0371 5.29592 20.8985V7.01999C5.29592 5.88139 5.88772 5.31936 6.97733 5.31936H20.8964C21.9764 5.31936 22.5778 5.88139 22.5778 7.01999V20.8985C22.5778 22.0371 21.9764 22.6013 20.8964 22.6013H6.97733Z" fill="black"/>
<path d="M19.0538 10.7409C20.0808 10.7548 20.9341 9.89179 20.9341 8.83383C20.9341 7.79297 20.085 6.95343 19.0538 6.95343C18.0054 6.95343 17.1466 7.79297 17.1466 8.83383C17.1466 9.88969 18.0054 10.7196 19.0538 10.7409ZM8.83918 20.9693C9.86621 20.9693 10.7271 20.1159 10.7271 19.0676C10.7271 18.0234 9.8641 17.1797 8.83918 17.1797C7.79082 17.1797 6.95129 18.0213 6.95129 19.0676C6.95129 20.118 7.79082 20.9693 8.83918 20.9693Z" fill="black"/>
</svg>
