<svg width="28" height="28" viewBox="0 0 28 28" fill="none" xmlns="http://www.w3.org/2000/svg">
<path d="M13.6792 21.3701C19.0162 21.3701 23.3467 17.0354 23.3467 11.6813C23.3467 6.33476 19.0162 2 13.6792 2C8.33054 2 4 6.33476 4 11.6813C4 17.0354 8.33054 21.3701 13.6792 21.3701ZM13.6792 19.1987C9.45835 19.1987 6.17358 15.9076 6.17358 11.6813C6.17358 7.45296 9.45835 4.17358 13.6792 4.17358C17.8958 4.17358 21.1731 7.45296 21.1731 11.6813C21.1731 15.9076 17.8958 19.1987 13.6792 19.1987ZM12.5962 25.0808H14.7697V20.2667H12.5962V25.0808ZM9.45953 26.1617H17.8947C18.4905 26.1617 18.9798 25.6765 18.9798 25.0808C18.9798 24.4871 18.4905 23.9902 17.8947 23.9902H9.46914C8.87336 23.9902 8.37648 24.4871 8.37648 25.0808C8.37648 25.6765 8.86375 26.1617 9.45953 26.1617Z" fill="black"/>
<path d="M13.6792 17.156C16.7399 17.156 19.1348 14.7398 19.1348 11.6791C19.1348 8.62805 16.7399 6.21399 13.6792 6.21399C10.6281 6.21399 8.21191 8.62805 8.21191 11.6791C8.21191 14.7398 10.6281 17.156 13.6792 17.156ZM13.6792 14.1124C12.3245 14.1124 11.2459 13.0338 11.2459 11.6791C11.2459 10.3245 12.3245 9.25008 13.6792 9.25008C15.0339 9.25008 16.1008 10.3245 16.1008 11.6791C16.1008 13.0338 15.0339 14.1124 13.6792 14.1124Z" fill="black"/>
</svg>
