<svg width="47" height="28" viewBox="0 0 47 28" fill="none" xmlns="http://www.w3.org/2000/svg">
<path d="M3.37851 19.9444H33.2491C35.2406 19.9444 36.6276 18.5498 36.6276 16.568V9.38601C36.6276 7.40414 35.2406 6 33.2491 6H3.37851C1.38492 6 0 7.39453 0 9.38601V16.568C0 18.5594 1.38492 19.9444 3.37851 19.9444ZM3.46921 17.9862C2.55866 17.9862 1.95608 17.3845 1.95608 16.4773V9.47882C1.95608 8.55983 2.55866 7.95819 3.46921 7.95819H33.1584C34.0594 7.95819 34.6694 8.55983 34.6694 9.47882V16.4773C34.6694 17.3845 34.0594 17.9862 33.1584 17.9862H3.46921ZM35.6791 17.1797H37.6495C38.5235 17.1797 39.1802 16.5326 39.1802 15.6586V10.5035C39.1802 9.62953 38.5235 8.98242 37.6495 8.98242H35.6791V10.5637H37.1287C37.4006 10.5637 37.5968 10.7524 37.5968 11.0222V15.1282C37.5968 15.4097 37.4006 15.5983 37.1287 15.5983H35.6791V17.1797ZM38.8256 14.0915H46.6082V12.2864H38.8256V14.0915Z" fill="black"/>
<path d="M4.78986 15.7357H5.57408C5.93595 15.7357 6.19142 15.4781 6.19142 15.1045V10.8281C6.19142 10.4353 5.93595 10.1874 5.57408 10.1874H4.78986C4.40666 10.1874 4.15869 10.4353 4.15869 10.8281V15.1045C4.15869 15.4781 4.40666 15.7357 4.78986 15.7357ZM11.8835 16.6364C13.9094 16.6364 15.5498 15.0077 15.5498 12.9743C15.5498 10.9622 13.9094 9.30798 11.8835 9.30798C9.86173 9.30798 8.22134 10.9622 8.22134 12.9743C8.22134 15.0077 9.86173 16.6364 11.8835 16.6364ZM10.553 14.8706C10.2717 14.8706 10.0331 14.6342 10.0331 14.3646V11.5957C10.0331 11.322 10.2717 11.0759 10.553 11.0759C10.8342 11.0759 11.0494 11.3102 11.0494 11.5957V14.3646C11.0494 14.6459 10.8342 14.8706 10.553 14.8706ZM13.2183 14.8706C12.937 14.8706 12.6984 14.6459 12.6984 14.3646V11.5957C12.6984 11.3102 12.9232 11.0759 13.2183 11.0759C13.4995 11.0759 13.7126 11.3102 13.7126 11.5957V14.3646C13.7126 14.6459 13.4995 14.8706 13.2183 14.8706ZM20.5956 16.6364C22.6152 16.6364 24.2695 15.0077 24.2695 12.9743C24.2695 10.9622 22.6152 9.30798 20.5956 9.30798C18.5739 9.30798 16.9411 10.9622 16.9411 12.9743C16.9411 15.0077 18.5739 16.6364 20.5956 16.6364ZM19.2513 14.8706C18.9797 14.8706 18.7453 14.6459 18.7453 14.3646V11.5957C18.7453 11.322 18.9797 11.0759 19.2513 11.0759C19.5464 11.0759 19.769 11.3102 19.769 11.5957V14.3646C19.769 14.6459 19.5464 14.8706 19.2513 14.8706ZM21.9262 14.8706C21.645 14.8706 21.4085 14.6459 21.4085 14.3646V11.5957C21.4085 11.3102 21.645 11.0759 21.9262 11.0759C22.2096 11.0759 22.4323 11.3102 22.4323 11.5957V14.3646C22.4323 14.6459 22.1979 14.8706 21.9262 14.8706ZM29.3036 16.6364C31.3274 16.6364 32.9678 15.0077 32.9678 12.9743C32.9678 10.9622 31.3274 9.30798 29.3036 9.30798C27.2818 9.30798 25.6511 10.9622 25.6511 12.9743C25.6511 15.0077 27.2818 16.6364 29.3036 16.6364ZM27.971 14.8706C27.6898 14.8706 27.4554 14.6459 27.4554 14.3646V11.5957C27.4554 11.322 27.6898 11.0759 27.971 11.0759C28.2565 11.0759 28.479 11.3102 28.479 11.5957V14.3646C28.479 14.6459 28.2448 14.8706 27.971 14.8706ZM30.6362 14.8706C30.355 14.8706 30.1165 14.6459 30.1165 14.3646V11.5957C30.1165 11.3102 30.3412 11.0759 30.6362 11.0759C30.9175 11.0759 31.1306 11.3102 31.1306 11.5957V14.3646C31.1306 14.6459 30.9175 14.8706 30.6362 14.8706Z" fill="black"/>
</svg>
