<svg width="28" height="28" viewBox="0 0 28 28" fill="none" xmlns="http://www.w3.org/2000/svg">
<path d="M13.7643 18.3419C16.2831 18.3419 18.3419 16.2927 18.3419 13.776C18.3419 11.2572 16.2831 9.19844 13.7643 9.19844C11.2476 9.19844 9.19844 11.2572 9.19844 13.776C9.19844 16.2927 11.2476 18.3419 13.7643 18.3419ZM13.7643 16.2777C12.385 16.2777 11.2626 15.1553 11.2626 13.776C11.2626 12.3967 12.385 11.2626 13.7643 11.2626C15.1436 11.2626 16.2777 12.3967 16.2777 13.776C16.2777 15.1553 15.1436 16.2777 13.7643 16.2777ZM13.7643 15.3958C14.6744 15.3958 15.3937 14.6744 15.3937 13.776C15.3937 12.8776 14.6648 12.137 13.7643 12.137C12.8563 12.137 12.1349 12.8563 12.1349 13.776C12.1349 14.684 12.8563 15.3958 13.7643 15.3958ZM12.9754 10.1826V4.50132C12.9754 2.25859 11.7562 1 9.58164 1C5.76625 1.01172 1.86273 4.45539 1.86273 7.88359C1.86273 10.9977 4.69211 12.7654 9.7021 14.2232L10.585 12.2266C6.25257 10.9762 3.95733 9.90203 3.95733 7.88359C3.95733 5.60101 6.91304 3.0946 9.56265 3.0946C10.5449 3.0946 10.8808 3.4614 10.8808 4.50132L10.8787 10.8015L12.9754 10.1826ZM17.3577 12.9775H23.0486C25.2913 12.9775 26.5403 11.7658 26.5403 9.59336C26.5403 5.77797 23.087 1.86273 19.6567 1.86273C16.5426 1.86273 14.7749 4.70383 13.3171 9.72132L15.3137 10.6042C16.5641 6.2739 17.6383 3.95733 19.6567 3.95733C21.9414 3.95733 24.4457 6.92265 24.4457 9.57437C24.4457 10.5566 24.0906 10.8829 23.0486 10.8829L16.7387 10.8808L17.3577 12.9775ZM14.5628 17.3694V23.0582C14.5628 25.303 15.7745 26.5499 17.9469 26.5499C21.7719 26.5499 25.6776 23.0966 25.6776 19.6663C25.6776 16.5543 22.8365 14.7866 17.8286 13.3288L16.9457 15.3255C21.276 16.5758 23.583 17.65 23.583 19.6663C23.583 21.951 20.6273 24.4574 17.968 24.4457C16.9837 24.4457 16.6574 24.1002 16.6574 23.0582L16.6595 16.7484L14.5628 17.3694ZM10.1708 14.5649H4.4821C2.24687 14.5649 1 15.7862 1 17.9587C1 21.7837 4.44367 25.6872 7.87398 25.6872C10.986 25.6872 12.7537 22.8482 14.2115 17.8382L12.217 16.9553C10.9644 21.2877 9.89031 23.583 7.87398 23.583C5.58929 23.583 3.0946 20.6369 3.0946 17.9776C3.0946 16.9954 3.44007 16.6595 4.4821 16.6595L10.7919 16.6616L10.1708 14.5649Z" fill="black"/>
</svg>
