<svg width="28" height="28" viewBox="0 0 28 28" fill="none" xmlns="http://www.w3.org/2000/svg">
<path d="M8.17037 20.2817L12.0483 18.6636C12.3455 18.5422 12.5009 18.4325 12.6915 18.242L23.9886 7.01213C25.1176 5.89276 25.1101 4.55002 23.9778 3.40815L21.4472 0.858387C20.3033 -0.273878 18.9626 -0.288878 17.8337 0.830495L6.52905 12.0561C6.3364 12.2371 6.22671 12.3849 6.1053 12.6821L4.45835 16.5622C4.18905 17.1967 4.26452 17.8332 4.73936 18.3081L6.42452 20.0007C6.88764 20.466 7.5242 20.5606 8.17037 20.2817ZM7.94397 18.2312C7.72225 18.309 7.56123 18.3069 7.36717 18.1128L6.62725 17.3729C6.43318 17.1788 6.43107 17.0082 6.5185 16.8078L7.94631 13.4736L19.1312 2.35814C19.4457 2.06283 19.7998 2.04572 20.093 2.33892L22.4876 4.75276C22.7808 5.05557 22.7637 5.40971 22.4588 5.71463L11.2761 16.8322L7.94397 18.2312ZM3.39124 20.9014H4.91467C5.27444 20.9014 5.41295 20.8344 5.66866 20.6298L6.84405 19.7228L5.04264 17.8946L3.01765 20.0082C2.65132 20.3842 2.82921 20.9014 3.39124 20.9014ZM6.64577 13.4188L11.5779 18.3702L12.8356 17.1221L7.90342 12.1632L6.64577 13.4188ZM16.4187 3.71729L21.3467 8.66447L22.6086 7.43026L17.6764 2.47347L16.4187 3.71729ZM3.01765 25.066H25.4902C26.0523 25.066 26.5175 24.586 26.5175 24.0282C26.5175 23.4662 26.0523 23.0042 25.4902 23.0042H3.01765C2.45562 23.0042 2 23.4683 2 24.0282C2 24.5839 2.45773 25.066 3.01765 25.066Z" fill="black"/>
</svg>
