<svg width="28" height="28" viewBox="0 0 28 28" fill="none" xmlns="http://www.w3.org/2000/svg">
<path d="M3.84421 24.8737H23.9109C26.4499 24.8737 27.7552 23.5802 27.7552 21.0776V9.86999C27.7552 7.36734 26.4499 6.07383 23.9109 6.07383H3.84421C1.31484 6.07383 0 7.36734 0 9.86999V21.0776C0 23.5802 1.31484 24.8737 3.84421 24.8737ZM3.97733 22.5778C2.88772 22.5778 2.29592 22.0158 2.29592 20.8772V10.0704C2.29592 8.93178 2.88772 8.36975 3.97733 8.36975H23.7778C24.8578 8.36975 25.4592 8.93178 25.4592 10.0704V20.8772C25.4592 22.0158 24.8578 22.5778 23.7778 22.5778H3.97733ZM5.22586 6.90844H11.6644V4.59632C11.6644 3.60023 11.0876 3 10.0861 3H6.80624C5.80265 3 5.22586 3.60023 5.22586 4.59632V6.90844ZM16.0791 6.90844H22.5101V4.59632C22.5101 3.60023 21.9333 3 20.9297 3H17.6498C16.6559 3 16.0791 3.60023 16.0791 4.59632V6.90844Z" fill="black"/>
<path d="M4.57373 15.4786C4.57373 15.9907 4.98576 16.3931 5.49787 16.3931H11.3964C11.9064 16.3931 12.3109 15.9907 12.3109 15.4786C12.3109 14.959 11.9064 14.5544 11.3964 14.5544H5.49787C4.98576 14.5544 4.57373 14.959 4.57373 15.4786ZM15.4248 15.4786C15.4248 15.9907 15.8272 16.3931 16.3394 16.3931H18.3714V18.4209C18.3714 18.933 18.7834 19.3451 19.2976 19.3355C19.8076 19.3451 20.2079 18.933 20.2079 18.4209V16.3931H22.2379C22.7479 16.3931 23.162 15.9907 23.162 15.4786C23.162 14.959 22.7479 14.5544 22.2379 14.5544H20.2079V12.5245C20.2079 12.0124 19.8055 11.6003 19.2934 11.6003C18.7834 11.6003 18.3714 12.0124 18.3714 12.5245V14.5544H16.3394C15.8272 14.5544 15.4248 14.959 15.4248 15.4786Z" fill="black"/>
</svg>
