<svg width="28" height="28" viewBox="0 0 28 28" fill="none" xmlns="http://www.w3.org/2000/svg">
<path d="M18.6786 2.74589L25.5748 9.64962L25.644 9.57837C27.5431 7.68885 27.365 4.79549 25.4478 2.88792C23.5327 0.974957 20.6373 0.796831 18.7498 2.67464L18.6786 2.74589ZM3.40834 22.4381L5.87841 24.906L7.23146 23.5509C10.1276 20.6516 13.6564 21.5755 16.827 18.4049L24.5276 10.7064L17.6143 3.79096L9.91366 11.5012C6.57921 14.8356 7.66601 18.1804 4.76561 21.0808L3.40834 22.4381ZM13.678 14.6908C12.9015 13.9164 12.9186 12.7274 13.678 11.9701L17.255 8.37181C18.0144 7.61244 19.1991 7.59533 19.9405 8.37181C20.7233 9.10986 20.7212 10.2808 19.9447 11.0594L16.3634 14.6716C15.6083 15.4225 14.4214 15.4363 13.678 14.6908ZM11.0675 15.9173C10.7352 15.602 10.8034 15.1516 11.0696 14.8736C11.3476 14.5839 11.7788 14.5583 12.1016 14.8736L13.4504 16.2086C13.7816 16.528 13.7326 16.9785 13.4504 17.2661C13.1841 17.5302 12.7454 17.5717 12.4067 17.2426L11.0675 15.9173ZM14.5934 13.754C14.8526 14.0132 15.2356 14.0847 15.5141 13.8137L19.0986 10.2037C19.377 9.92525 19.2959 9.55071 19.0409 9.29689C18.7583 9.03767 18.3699 9.00462 18.0894 9.28517L14.5934 12.797C14.3225 13.0658 14.3225 13.483 14.5934 13.754ZM1.57155 26.7428C2.31334 27.508 3.31576 27.508 4.06506 26.7407L4.66599 26.1473L2.17882 23.658L1.57155 24.2652C0.810538 25.0263 0.808429 26.0106 1.57155 26.7428Z" fill="black"/>
</svg>
