<svg width="28" height="29" viewBox="0 0 28 29" fill="none" xmlns="http://www.w3.org/2000/svg">
<path d="M9.02569 13.4292C8.42101 13.4292 7.92062 12.9192 7.92062 12.3262C7.92062 11.7216 8.42101 11.2212 9.02569 11.2212C9.63249 11.2212 10.1308 11.7098 10.1308 12.3262C10.1308 12.9309 9.63249 13.4292 9.02569 13.4292ZM9.02569 17.715C8.40929 17.715 7.92062 17.2188 7.92062 16.6099C7.92062 16.0073 8.4114 15.5208 9.02569 15.5208C9.62827 15.5208 10.1308 15.9956 10.1308 16.6099C10.1308 17.2188 9.63249 17.715 9.02569 17.715ZM9.02569 22.2469C8.42101 22.2469 7.92062 21.7465 7.92062 21.1418C7.92062 20.5467 8.42101 20.0367 9.02569 20.0367C9.63249 20.0367 10.1308 20.535 10.1308 21.1418C10.1308 21.7582 9.63249 22.2469 9.02569 22.2469ZM12.3508 13.1754C11.8741 13.1754 11.4824 12.7912 11.4824 12.3262C11.4824 11.8591 11.8741 11.4537 12.3508 11.4537H19.2829C19.75 11.4537 20.1362 11.8591 20.1362 12.3262C20.1362 12.7912 19.75 13.1754 19.2829 13.1754H12.3508ZM12.3508 17.4729C11.8623 17.4729 11.4824 17.0887 11.4824 16.6099C11.4824 16.1332 11.8644 15.7629 12.3508 15.7629H19.2829C19.7596 15.7629 20.1362 16.1332 20.1362 16.6099C20.1362 17.0887 19.7617 17.4729 19.2829 17.4729H12.3508ZM12.3508 22.0048C11.8741 22.0048 11.4824 21.6089 11.4824 21.1418C11.4824 20.6747 11.8644 20.2948 12.3508 20.2948H19.2829C19.7596 20.2948 20.1362 20.6747 20.1362 21.1418C20.1362 21.6089 19.75 22.0048 19.2829 22.0048H12.3508ZM7.80999 28.6413H20.2448C22.7359 28.6413 24.0569 27.3087 24.0569 24.7802V7.04086C24.0569 4.51242 22.7359 3.17977 20.343 3.17977H20.1009C20.1346 3.2857 20.1515 3.4139 20.1515 3.53882V4.89843C20.1515 6.41085 19.1322 7.48335 17.639 7.48335H10.4158C8.92468 7.48335 7.90328 6.41085 7.90328 4.89843V3.53882C7.90328 3.4139 7.92226 3.2857 7.95601 3.17977H7.71179C5.31882 3.17977 4 4.51242 4 7.04086V24.7802C4 27.3087 5.31882 28.6413 7.80999 28.6413ZM10.4158 6.10078H17.639C18.344 6.10078 18.7689 5.65031 18.7689 4.89843V3.66796C18.7689 2.91398 18.344 2.46562 17.639 2.46562H16.6452C16.5569 1.10344 15.4258 0 14.0284 0C12.6311 0 11.5 1.10344 11.4116 2.46562H10.4158C9.71288 2.46562 9.28796 2.91398 9.28796 3.66796V4.89843C9.28796 5.65031 9.71288 6.10078 10.4158 6.10078ZM14.0284 3.59578C13.4575 3.59578 12.9941 3.1207 12.9941 2.56359C12.9941 1.98515 13.4575 1.52179 14.0284 1.52179C14.5994 1.52179 15.0606 1.98515 15.0606 2.56359C15.0606 3.1207 14.5994 3.59578 14.0284 3.59578Z" fill="black"/>
</svg>
