<svg width="41" height="28" viewBox="0 0 41 28" fill="none" xmlns="http://www.w3.org/2000/svg">
<path d="M25.7689 26.4293C31.6695 27.9961 36.1683 25.2525 37.8235 19.0962L40.0392 10.8542C40.661 8.52756 39.7636 6.9828 37.3838 6.34179L25.7253 3.22155C23.3593 2.59015 21.8379 3.4578 21.1948 5.81209L20.0968 9.85293L21.3303 14.1296L23.3827 6.48545C23.6407 5.53107 24.221 5.18654 25.1658 5.44458L36.7732 8.53927C37.7276 8.79732 38.0508 9.39146 37.7907 10.3693L35.5983 18.5229C34.3219 23.323 30.8993 25.4178 26.3421 24.2117C22.7457 23.2273 20.7638 20.7591 20.8451 17.311L18.8422 20.2076C19.6843 23.2716 22.0932 25.4295 25.7689 26.4293ZM25.493 13.8645C26.3539 14.1085 27.2424 13.595 27.4864 12.7203C27.7186 11.8477 27.2051 10.9517 26.3208 10.7056C25.4675 10.4733 24.5714 10.9986 24.3296 11.8711C24.1069 12.7437 24.6183 13.628 25.493 13.8645ZM32.2875 15.679C33.1505 15.9017 34.0348 15.3903 34.283 14.5156C34.5089 13.643 33.9975 12.7566 33.125 12.5244C32.2524 12.2804 31.3681 12.8014 31.1412 13.6665C30.8972 14.539 31.4107 15.4372 32.2875 15.679ZM27.4151 20.1146C28.6906 20.4544 29.7441 21.0594 30.9059 22.0934C31.365 22.5144 31.9533 22.2458 31.9203 21.6394C31.8457 19.6044 30.3464 17.9229 28.145 17.3497C25.9477 16.7508 23.8102 17.4711 22.7213 19.1822C22.4037 19.6756 22.7757 20.2149 23.3904 20.0827C24.8667 19.7724 26.1471 19.764 27.4151 20.1146Z" fill="black"/>
<path d="M14.4671 23.389C20.3827 21.7829 22.8919 17.1894 21.2527 11.0159L19.0411 2.76217C18.4118 0.433426 16.865 -0.434228 14.4968 0.202568L2.83082 3.30147C0.448873 3.93499 -0.432608 5.4542 0.196687 7.8181L2.38903 16.0655C4.03036 22.2282 8.5334 24.9579 14.4671 23.389ZM13.8725 21.1777C9.32816 22.3679 5.90347 20.2613 4.61956 15.4751L2.43355 7.31186C2.17339 6.35537 2.50621 5.77083 3.44676 5.5074L15.0563 2.39466C16.0011 2.13661 16.6027 2.49287 16.8511 3.46107L19.0318 11.6222C20.3136 16.4222 18.4083 19.9662 13.8725 21.1777ZM13.2396 18.8133C15.6743 18.1463 17.2374 16.3008 17.3215 14.0185C17.3332 13.4229 16.8251 13.2003 16.3191 13.587C14.7654 14.6804 13.1032 15.1236 12.3169 15.342C11.5189 15.5508 9.86418 16.0112 7.94183 15.8279C7.31863 15.7479 6.97878 16.2071 7.30691 16.6876C8.53011 18.6418 10.7953 19.4473 13.2396 18.8133ZM7.58933 11.454C8.42675 11.2313 8.82636 11.618 9.17793 11.536C9.42402 11.4753 9.53699 11.1514 9.42402 10.7337C9.17043 9.70131 8.07191 9.07904 7.04488 9.37529C5.99863 9.63732 5.36253 10.722 5.65128 11.7268C5.78019 12.1604 6.02746 12.3788 6.27777 12.3244C6.62933 12.2211 6.76574 11.6766 7.58933 11.454ZM14.4319 9.59466C15.2693 9.37201 15.6593 9.76834 16.0184 9.68631C16.2762 9.61599 16.3775 9.29209 16.2645 8.87443C16.0088 7.84412 14.922 7.23146 13.8971 7.5256C12.8412 7.78341 12.203 8.8606 12.4939 9.86748C12.6207 10.299 12.8625 10.5333 13.1204 10.4609C13.4698 10.3618 13.6062 9.81521 14.4319 9.59466Z" fill="black"/>
</svg>
