<svg width="28" height="28" viewBox="0 0 28 28" fill="none" xmlns="http://www.w3.org/2000/svg">
<path d="M2 9.06139H26.1345V5.68757C26.1345 4.08773 25.0798 3 23.5344 3H4.59804C3.05257 3 2 4.08773 2 5.68757V9.06139ZM6.6746 7.4121C6.03686 7.4121 5.53015 6.9096 5.53015 6.28148C5.53015 5.64913 6.03686 5.14664 6.6746 5.14664C7.291 5.14664 7.80944 5.64913 7.80944 6.28148C7.80944 6.9096 7.291 7.4121 6.6746 7.4121ZM9.87498 7.4121C9.24686 7.4121 8.74014 6.9096 8.74014 6.28148C8.74014 5.64913 9.24686 5.14664 9.87498 5.14664C10.5031 5.14664 11.0173 5.64913 11.0173 6.28148C11.0173 6.9096 10.5031 7.4121 9.87498 7.4121ZM13.0808 7.4121C12.4451 7.4121 11.9384 6.9096 11.9384 6.28148C11.9384 5.64913 12.4451 5.14664 13.0808 5.14664C13.6972 5.14664 14.2177 5.64913 14.2177 6.28148C14.2177 6.9096 13.6972 7.4121 13.0808 7.4121ZM19.021 6.98788C18.605 6.98788 18.3008 6.68155 18.3008 6.26976C18.3008 5.85585 18.605 5.56875 19.021 5.56875H22.2694C22.6833 5.56875 22.9705 5.85585 22.9705 6.26976C22.9705 6.68155 22.6833 6.98788 22.2694 6.98788H19.021ZM4.59804 24.0091H23.5344C25.0798 24.0091 26.1345 22.9214 26.1345 21.3215V10.5773H2V21.3215C2 22.9214 3.05257 24.0091 4.59804 24.0091ZM6.51522 21.3954C5.83343 21.3954 5.39561 20.95 5.39561 20.2758V13.6467C5.39561 12.9532 5.83343 12.5079 6.51522 12.5079H21.6331C22.3128 12.5079 22.7527 12.9532 22.7527 13.6467V20.2758C22.7527 20.95 22.3128 21.3954 21.6331 21.3954H6.51522ZM6.85881 15.3129H21.2874V14.257C21.2874 14.0704 21.1627 13.9457 20.9858 13.9457H7.16256C6.9835 13.9457 6.85881 14.0704 6.85881 14.257V15.3129ZM7.16256 19.9343H20.9858C21.1627 19.9343 21.2874 19.8075 21.2874 19.6284V16.6432H6.85881V19.6284C6.85881 19.8075 6.9835 19.9343 7.16256 19.9343Z" fill="black"/>
</svg>
