<svg width="28" height="28" viewBox="0 0 28 28" fill="none" xmlns="http://www.w3.org/2000/svg">
<path d="M14.105 26.21C20.7369 26.21 26.2121 20.7273 26.2121 14.105C26.2121 7.47312 20.7273 2 14.0954 2C7.47523 2 2 7.47312 2 14.105C2 20.7273 7.48484 26.21 14.105 26.21ZM14.105 23.8255C8.71085 23.8255 4.39412 19.4991 4.39412 14.105C4.39412 8.71085 8.70124 4.38452 14.0954 4.38452C19.4895 4.38452 23.8276 8.71085 23.8276 14.105C23.8276 19.4991 19.4991 23.8255 14.105 23.8255Z" fill="black"/>
<path d="M8.01245 13.6177V18.3666C8.01245 18.818 8.33284 19.0515 8.70269 19.0515C9.07253 19.0419 9.40464 18.8084 9.40464 18.3666V12.4609H9.17518C8.50511 12.4609 8.01245 12.8813 8.01245 13.6177ZM9.90104 19.9133H18.4133C19.5755 19.9133 20.1666 19.3318 20.1666 18.1887V10.0309C20.1666 8.87821 19.5755 8.30634 18.4133 8.30634H12.1969C11.0347 8.30634 10.4415 8.87821 10.4415 10.0309V18.8408C10.4415 19.3909 10.3051 19.7021 9.90104 19.9133ZM12.7337 11.6448C12.5068 11.6448 12.3406 11.4861 12.3406 11.2613C12.3406 11.0558 12.4972 10.8992 12.7337 10.8992H17.8883C18.1034 10.8992 18.26 11.0558 18.26 11.2613C18.26 11.4861 18.1013 11.6448 17.8883 11.6448H12.7337ZM12.7337 13.5078C12.5068 13.5078 12.3406 13.3512 12.3406 13.1361C12.3406 12.9188 12.4972 12.7623 12.7337 12.7623H17.8883C18.1013 12.7623 18.26 12.9188 18.26 13.1361C18.26 13.3512 18.1034 13.5078 17.8883 13.5078H12.7337ZM16.01 15.3997C15.7831 15.3997 15.6244 15.2431 15.6244 15.0397C15.6244 14.8203 15.7831 14.6445 16.01 14.6445H17.8883C18.1013 14.6445 18.2579 14.8203 18.2579 15.0397C18.2579 15.2431 18.1013 15.3997 17.8883 15.3997H16.01ZM16.01 17.2618C15.7831 17.2618 15.6244 17.1052 15.6244 16.888C15.6244 16.6728 15.7831 16.5141 16.01 16.5141H17.8883C18.1013 16.5141 18.2579 16.6728 18.2579 16.888C18.2579 17.1052 18.1013 17.2618 17.8883 17.2618H16.01ZM12.9788 17.2618C12.5729 17.2618 12.3385 17.0253 12.3385 16.6236V15.2923C12.3385 14.9002 12.5729 14.6445 12.9788 14.6445H14.2773C14.6832 14.6445 14.9272 14.9002 14.9272 15.2923V16.6236C14.9272 17.0253 14.6832 17.2618 14.2773 17.2618H12.9788Z" fill="black"/>
</svg>
