<svg width="28" height="28" viewBox="0 0 28 28" fill="none" xmlns="http://www.w3.org/2000/svg">
<path d="M0 12.9122C0 14.0876 0.738748 14.8359 1.92796 14.8359H25.8516C27.0387 14.8359 27.7912 14.0876 27.7912 12.9122V11.0337C27.7912 9.85831 27.0387 9.09401 25.8516 9.09401H1.92796C0.736638 9.09401 0 9.85831 0 11.0337V12.9122ZM2.46937 11.2188H25.3123C25.5427 11.2188 25.6802 11.3543 25.6802 11.5847V12.3474C25.6802 12.5778 25.5427 12.7249 25.3123 12.7249H2.46937C2.23897 12.7249 2.11101 12.5778 2.11101 12.3474V11.5847C2.11101 11.3543 2.23897 11.2188 2.46937 11.2188ZM7.64296 26.5824H20.1483C22.9882 26.5824 23.8476 24.9012 24.2076 23.164L26.0836 14.1858L23.9948 13.8061L22.234 22.3796C21.9176 23.8817 21.4889 24.4479 19.8033 24.4479H7.98796C6.30233 24.4479 5.87366 23.8817 5.55725 22.3796L3.7964 13.8061L1.70766 14.1858L3.58359 23.164C3.94359 24.9012 4.80094 26.5824 7.64296 26.5824ZM8.8971 23.276C9.36444 23.1973 9.62202 22.8556 9.55499 22.4489L8.59288 16.474C8.51624 16.0556 8.15859 15.8257 7.70718 15.8885C7.23984 15.9769 6.96843 16.309 7.04507 16.7177L8.00929 22.6906C8.08593 23.1089 8.42976 23.3506 8.8971 23.276ZM12.2604 23.1994C12.716 23.176 13.0205 22.8673 12.9949 22.4489L12.6305 16.541C12.5974 16.111 12.2749 15.8161 11.8076 15.8555C11.3541 15.8885 11.0496 16.1972 11.073 16.6294L11.4375 22.5235C11.463 22.9535 11.8069 23.2345 12.2604 23.1994ZM15.5426 23.1994C15.9961 23.2345 16.3399 22.9535 16.3655 22.5235L16.7299 16.6294C16.7534 16.1972 16.4489 15.8885 15.9954 15.8555C15.528 15.8161 15.2055 16.111 15.1725 16.541L14.808 22.4489C14.7825 22.8673 15.0891 23.176 15.5426 23.1994ZM18.8941 23.276C19.3455 23.3506 19.7053 23.1089 19.7819 22.6906L20.7558 16.7177C20.8207 16.309 20.5514 15.9769 20.0841 15.8885C19.6326 15.8257 19.2729 16.0556 19.1984 16.474L18.2362 22.4489C18.1692 22.8556 18.4268 23.1973 18.8941 23.276ZM3.79359 9.67784H6.46124L10.5185 2.61494C10.8708 1.99338 10.5982 1.41682 10.0908 1.14659C9.60562 0.888077 8.96507 0.944327 8.61492 1.53495L3.79359 9.67784ZM21.33 9.67784H23.9976L19.1763 1.53495C18.8379 0.958155 18.2016 0.899796 17.7026 1.14237C17.2027 1.41682 16.9205 1.99338 17.2727 2.61494L21.33 9.67784Z" fill="black"/>
</svg>
