<svg width="28" height="28" viewBox="0 0 28 28" fill="none" xmlns="http://www.w3.org/2000/svg">
<path d="M16.7984 27.1633C17.6991 27.1633 18.3284 26.4283 18.762 25.3012L26.4926 5.09432C26.6973 4.57214 26.8081 4.10221 26.8081 3.7101C26.8081 2.87667 26.2866 2.3573 25.4532 2.3573C25.059 2.3573 24.5891 2.46816 24.069 2.67066L3.77562 10.4418C2.76383 10.8274 2 11.4545 2 12.3648C2 13.483 2.83297 13.9033 3.98539 14.2473L12.4379 16.7275L14.8946 25.0872C15.2483 26.2898 15.6706 27.1633 16.7984 27.1633ZM13.1044 14.6024L5.7441 12.3512C5.57559 12.3011 5.52121 12.2521 5.52121 12.1722C5.52121 12.0944 5.56598 12.0358 5.72067 11.9739L19.8095 6.60039C20.8124 6.21719 21.7822 5.73578 22.8266 5.2593C21.9878 5.94274 20.9614 6.76023 20.2515 7.46593L13.1044 14.6024ZM17.0028 23.6613C16.9133 23.6613 16.8664 23.5856 16.8141 23.4192L14.5608 16.0609L21.6995 8.9139C22.3829 8.22413 23.2482 7.1596 23.9157 6.30789C23.4371 7.37147 22.9461 8.34132 22.5629 9.35381L17.1894 23.4405C17.1296 23.5952 17.0806 23.6613 17.0028 23.6613Z" fill="black"/>
</svg>
