<svg width="28" height="28" viewBox="0 0 28 28" fill="none" xmlns="http://www.w3.org/2000/svg">
<path d="M11.4233 8.69737H19.6745C20.1302 8.69737 20.4974 8.31838 20.4974 7.86487C20.4974 7.40924 20.1302 7.04198 19.6745 7.04198H11.4233C10.9698 7.04198 10.6005 7.40924 10.6005 7.86487C10.6005 8.31838 10.9698 8.69737 11.4233 8.69737ZM11.4233 11.9559H17.6863C18.1398 11.9559 18.5092 11.579 18.5092 11.1234C18.5092 10.6699 18.1398 10.3005 17.6863 10.3005H11.4233C10.9698 10.3005 10.6005 10.6699 10.6005 11.1234C10.6005 11.579 10.9698 11.9559 11.4233 11.9559ZM7.77695 26.358H23.0202C23.6308 26.358 24.1033 25.8951 24.1033 25.2749C24.1033 24.7551 23.7482 24.3728 23.3057 24.1743C21.8671 23.5398 21.5793 21.5559 23.0472 20.148C23.6254 19.6288 24.0948 19.0504 24.0948 17.8659V4.84846C24.0948 2.32659 22.8013 1.00214 20.2891 1.00214H7.80577C5.29562 1.00214 4 2.31698 4 4.84846V22.5597C4 25.0623 5.30523 26.358 7.77695 26.358ZM6.29592 18.8252V4.99119C6.29592 3.90158 6.85795 3.30017 7.98905 3.30017H20.0983C21.2369 3.30017 21.7989 3.90158 21.7989 4.99119V17.5195C21.7989 18.0848 21.4757 18.408 20.8869 18.408H8.07741C7.37897 18.408 6.78623 18.551 6.29592 18.8252ZM8.07225 24.1844C6.8296 24.1844 6.17991 23.4862 6.17991 22.3771C6.17991 21.3182 6.9278 20.5816 8.16085 20.5816H19.8827C20.0181 20.5816 20.1461 20.572 20.2527 20.5527C19.683 21.7884 19.7556 23.1281 20.3725 24.1844H8.07225ZM7.67241 19.4896H9.32779V2.72291H7.67241V19.4896Z" fill="black"/>
</svg>
