<svg width="28" height="28" viewBox="0 0 28 28" fill="none" xmlns="http://www.w3.org/2000/svg">
<path d="M14.105 26.21C20.7369 26.21 26.2121 20.7273 26.2121 14.105C26.2121 7.47312 20.7273 2 14.0954 2C7.47523 2 2 7.47312 2 14.105C2 20.7273 7.48484 26.21 14.105 26.21ZM14.105 23.8255C8.71085 23.8255 4.39412 19.4991 4.39412 14.105C4.39412 8.71085 8.70124 4.38452 14.0954 4.38452C19.4895 4.38452 23.8276 8.71085 23.8276 14.105C23.8276 19.4991 19.4991 23.8255 14.105 23.8255Z" fill="black"/>
<path d="M14.105 20.2817C17.4687 20.2817 20.2817 17.4687 20.2817 14.105C20.2817 10.737 17.4751 7.93039 14.0954 7.93039C10.7316 7.93039 7.93994 10.7412 7.93994 14.105C7.93994 17.4666 10.7454 20.2817 14.105 20.2817ZM14.105 8.95343C14.7402 8.95343 15.3477 9.06218 15.9125 9.28601L14.5126 10.3948V12.0544L16.0182 13.205L17.5798 12.5776L18.1098 10.8652C18.8227 11.7498 19.2704 12.8677 19.2704 14.1062L17.8906 13.3437L16.2406 14.0084L15.6744 15.7402L16.5755 16.8767L18.4243 16.898C17.7582 17.9361 16.7415 18.7034 15.5532 19.0541L15.9317 17.3982L15.102 16.3332H13.0941L12.2666 17.3898L12.6568 19.0541C11.4589 18.7034 10.44 17.9298 9.77392 16.8959L11.6344 16.8725L12.526 15.7456L11.9597 14.0084L10.3118 13.3437L8.93205 14.1062C8.93205 12.8677 9.3797 11.7498 10.1023 10.8652L10.6226 12.5776L12.1843 13.205L13.6974 12.0544V10.3991L12.2879 9.28601C12.8527 9.0664 13.4816 8.95343 14.105 8.95343Z" fill="black"/>
</svg>
