<svg width="29" height="28" viewBox="0 0 29 28" fill="none" xmlns="http://www.w3.org/2000/svg">
<path d="M1.15382 26.1541C1.78124 26.1541 2.29592 25.6394 2.29592 25.0098V2.14421C2.29592 1.51468 1.78124 1 1.15382 1C0.514684 1 0 1.51468 0 2.14421V25.0098C0 25.6394 0.514684 26.1541 1.15382 26.1541ZM27.7097 26.1541C28.3392 26.1541 28.8539 25.6394 28.8539 25.0098V2.14421C28.8539 1.51468 28.3392 1 27.7097 1C27.0726 1 26.558 1.51468 26.558 2.14421V25.0098C26.558 25.6394 27.0726 26.1541 27.7097 26.1541ZM24.2707 6.07773H27.581V4.44765H24.2707V6.07773ZM24.2707 11.6366H27.581V10.0044H24.2707V11.6366ZM24.2707 17.1838H27.581V15.5537H24.2707V17.1838ZM24.2707 22.7331H27.581V21.1009H24.2707V22.7331Z" fill="black"/>
<path d="M12.9009 8.84919L24.2726 7.51537C24.8334 7.45044 25.1763 7.15349 25.1763 6.61701V3.81318C25.1763 3.23123 24.825 2.80607 24.2515 2.94013L12.738 5.48638C12.2144 5.60451 11.9719 5.9324 11.9719 6.3463V8.04974C11.9719 8.63193 12.2848 8.92794 12.9009 8.84919ZM12.7212 13.1071H24.2726C24.8229 13.1071 25.1763 12.7537 25.1763 12.2151V9.41333C25.1763 8.85248 24.8325 8.46271 24.2726 8.52552L12.7212 9.8774C12.2571 9.92849 11.9719 10.2744 11.9719 10.7502V12.2737C11.9719 12.7867 12.2763 13.1071 12.7212 13.1071ZM12.7212 17.3226L24.2726 18.6723C24.8325 18.7351 25.1763 18.3454 25.1763 17.7866V14.9828C25.1763 14.4442 24.8229 14.0908 24.2726 14.0908H12.7212C12.2763 14.0908 11.9719 14.4112 11.9719 14.9242V16.4477C11.9719 16.9234 12.2571 17.2598 12.7212 17.3226ZM12.738 21.7115L24.2515 24.2598C24.825 24.3822 25.1763 23.9666 25.1763 23.3847V20.5734C25.1763 20.0444 24.8334 19.7474 24.2726 19.6846L12.9009 18.3487C12.2848 18.2699 11.9719 18.5659 11.9719 19.1481V20.8516C11.9719 21.2655 12.2144 21.5934 12.738 21.7115Z" fill="black"/>
</svg>
