<svg width="28" height="28" viewBox="0 0 28 28" fill="none" xmlns="http://www.w3.org/2000/svg">
<path d="M14.105 26.21C20.7369 26.21 26.2121 20.7273 26.2121 14.105C26.2121 7.47312 20.7273 2 14.0954 2C7.47523 2 2 7.47312 2 14.105C2 20.7273 7.48484 26.21 14.105 26.21Z" fill="black"/>
<path d="M9.12591 19.1384C7.88513 19.1384 7.22607 18.5007 7.22607 17.2503V12.8548H20.986V17.2503C20.986 18.5007 20.3269 19.1384 19.0862 19.1384H9.12591ZM9.64622 17.2883H11.0771C11.4148 17.2883 11.6492 17.0677 11.6492 16.7396V15.6582C11.6492 15.3301 11.4148 15.1095 11.0771 15.1095H9.64622C9.3181 15.1095 9.08372 15.3301 9.08372 15.6582V16.7396C9.08372 17.0677 9.3181 17.2883 9.64622 17.2883ZM7.22607 11.4893V10.9693C7.22607 9.71888 7.88513 9.09076 9.12591 9.09076H19.0862C20.3269 9.09076 20.986 9.72849 20.986 10.9693V11.4893H7.22607Z" fill="white"/>
</svg>
