<svg width="28" height="28" viewBox="0 0 28 28" fill="none" xmlns="http://www.w3.org/2000/svg">
<path d="M7.15296 22.2844L22.5549 6.87078L21.3573 5.67102L5.94148 21.0772L7.15296 22.2844ZM5.65086 17.3982L4.07961 18.9716C3.79859 19.2505 3.79859 19.6805 4.07961 19.9616C4.35641 20.248 4.78648 20.248 5.075 19.9616L6.63875 18.3957C6.92726 18.1168 6.91343 17.6771 6.63875 17.3982C6.36195 17.1214 5.92976 17.1214 5.65086 17.3982ZM8.96586 14.0736L7.40422 15.6469C7.1232 15.9259 7.1232 16.3559 7.40422 16.6444C7.68101 16.9137 8.1132 16.9137 8.39961 16.6444L9.96335 15.0711C10.2444 14.7901 10.2326 14.3504 9.96335 14.0736C9.68656 13.7926 9.25648 13.7926 8.96586 14.0736ZM12.2947 10.7469L10.7192 12.3223C10.4403 12.5991 10.4403 13.0388 10.7192 13.3198C11.0077 13.5966 11.4378 13.5966 11.7146 13.3198L13.2901 11.7465C13.569 11.4655 13.569 11.0258 13.2901 10.7469C13.0112 10.468 12.5715 10.468 12.2947 10.7469ZM15.6193 7.42226L14.0459 8.99562C13.7649 9.27453 13.7649 9.71421 14.0459 9.99523C14.3227 10.2603 14.7624 10.272 15.0434 9.99523L16.6147 8.41976C16.8957 8.14086 16.8957 7.69906 16.6147 7.42226C16.3379 7.14336 15.8961 7.14336 15.6193 7.42226ZM18.9439 4.10727L17.3705 5.67102C17.0916 5.94781 17.0916 6.38961 17.3705 6.6664C17.6473 6.9357 18.0891 6.94742 18.368 6.6664L19.9435 5.09515C20.2203 4.81414 20.2203 4.38406 19.9435 4.10727C19.6625 3.81664 19.2228 3.81664 18.9439 4.10727ZM9.84406 21.5499L8.2782 23.1137C7.99179 23.4043 7.99179 23.8344 8.2782 24.1112C8.5496 24.3922 8.98929 24.3922 9.2682 24.1112L10.8416 22.5378C11.1184 22.261 11.1184 21.8288 10.8416 21.5499C10.5627 21.2731 10.1208 21.2614 9.84406 21.5499ZM13.1687 18.2136L11.5953 19.7891C11.3164 20.068 11.3164 20.5098 11.5953 20.7866C11.8838 21.0633 12.316 21.0633 12.5928 20.7866L14.1662 19.2132C14.4451 18.9343 14.4451 18.5042 14.1662 18.2136C13.8873 17.9581 13.4497 17.9464 13.1687 18.2136ZM16.4954 14.8986L14.9199 16.4623C14.6431 16.753 14.6431 17.1809 14.9199 17.4619C15.2009 17.7483 15.6406 17.7483 15.9174 17.4619L17.4929 15.8961C17.7697 15.6097 17.7697 15.1796 17.4929 14.8986C17.2119 14.6218 16.7743 14.6218 16.4954 14.8986ZM19.82 11.574L18.2466 13.1473C17.9677 13.4284 17.9794 13.8563 18.2466 14.1448C18.5255 14.4237 18.9652 14.4237 19.2441 14.1448L20.8079 12.5715C21.0985 12.2926 21.0985 11.8529 20.8079 11.574C20.5311 11.2951 20.0989 11.2951 19.82 11.574ZM23.1446 8.24726L21.5712 9.82273C21.2944 10.0995 21.3062 10.5392 21.5712 10.8202C21.8501 11.097 22.2919 11.097 22.5591 10.8202L24.1325 9.24687C24.4135 8.96796 24.4135 8.52828 24.1325 8.24726C23.8557 7.97047 23.4256 7.97047 23.1446 8.24726ZM14.105 2C7.48484 2 2 7.47523 2 14.1071C2 20.7273 7.49445 26.2121 14.1146 26.2121C20.7465 26.2121 26.2121 20.7273 26.2121 14.1071C26.2121 7.47523 20.7369 2 14.105 2ZM14.105 3.8785C19.6998 3.8785 24.3336 8.51233 24.3336 14.1071C24.3336 19.6998 19.7094 24.3336 14.1146 24.3336C8.52194 24.3336 3.8785 19.6998 3.8785 14.1071C3.8785 8.51233 8.51233 3.8785 14.105 3.8785Z" fill="black"/>
</svg>
