<svg width="28" height="28" viewBox="0 0 28 28" fill="none" xmlns="http://www.w3.org/2000/svg">
<path d="M3.84421 24.8737H23.9109C26.4499 24.8737 27.7552 23.5802 27.7552 21.0776V9.86999C27.7552 7.36734 26.4499 6.07383 23.9109 6.07383H3.84421C1.31484 6.07383 0 7.36734 0 9.86999V21.0776C0 23.5802 1.31484 24.8737 3.84421 24.8737ZM5.22586 6.90844H11.6644V4.59632C11.6644 3.60023 11.0876 3 10.0861 3H6.80624C5.80265 3 5.22586 3.60023 5.22586 4.59632V6.90844ZM16.0791 6.90844H22.5101V4.59632C22.5101 3.60023 21.9333 3 20.9297 3H17.6498C16.6559 3 16.0791 3.60023 16.0791 4.59632V6.90844Z" fill="black"/>
<path d="M4.18799 15.4785C4.18799 14.9291 4.61596 14.5108 5.15573 14.5108H11.2679C11.8077 14.5108 12.2282 14.9291 12.2282 15.4785C12.2282 16.0183 11.8077 16.4387 11.2679 16.4387H5.15573C4.61596 16.4387 4.18799 16.0183 4.18799 15.4785ZM15.5054 15.4785C15.5054 14.9291 15.9259 14.5108 16.4678 14.5108H18.5647V12.4096C18.5647 11.8816 18.9948 11.4419 19.5229 11.4419C20.0647 11.4419 20.4852 11.8816 20.4852 12.4096V14.5108H22.5801C23.1198 14.5108 23.5478 14.9291 23.5478 15.4785C23.5478 16.0183 23.1198 16.4387 22.5801 16.4387H20.4852V18.5357C20.4852 19.0637 20.0668 19.5034 19.525 19.4938C18.9948 19.5034 18.5647 19.0637 18.5647 18.5357V16.4387H16.4678C15.9259 16.4387 15.5054 16.0183 15.5054 15.4785Z" fill="white"/>
</svg>
