<svg width="31" height="28" viewBox="0 0 31 28" fill="none" xmlns="http://www.w3.org/2000/svg">
<path d="M5.09156 20.1972L5.47687 21.7426C5.94539 23.6657 6.99609 24.6433 9.00139 24.6433H21.7026C23.7155 24.6433 24.7565 23.6849 25.2368 21.7426L25.6221 20.1972H5.09156ZM4.64789 18.3576H26.0754L28.2047 9.64631L26.824 8.9078L21.6452 12.6428C21.2911 12.8903 21.049 12.8017 20.8495 12.5169L15.8269 5.06569L14.8868 5.04647L9.84257 12.5226C9.66233 12.7956 9.44905 12.8767 9.09491 12.6271L4.00474 8.95186L2.48953 9.58443L4.64789 18.3576ZM2.95687 11.8825C4.58812 11.8825 5.90202 10.559 5.90202 8.916C5.90202 7.30398 4.58812 5.97085 2.95687 5.97085C1.32351 5.97085 0 7.29437 0 8.916C0 10.559 1.33312 11.8825 2.95687 11.8825ZM15.3558 6.90202C16.9774 6.90202 18.3009 5.57851 18.3009 3.94515C18.3009 2.33312 16.9774 1 15.3558 1C13.7128 1 12.3989 2.32351 12.3989 3.94515C12.3989 5.57851 13.7245 6.90202 15.3558 6.90202ZM27.7324 11.8825C29.3519 11.8825 30.6872 10.559 30.6872 8.916C30.6872 7.29437 29.3615 5.97085 27.7324 5.97085C26.1087 5.97085 24.7851 7.30398 24.7851 8.916C24.7851 10.559 26.1087 11.8825 27.7324 11.8825Z" fill="black"/>
</svg>
