<svg width="32" height="28" viewBox="0 0 32 28" fill="none" xmlns="http://www.w3.org/2000/svg">
<path d="M14.5713 26.652C23.0254 26.652 29.4386 20.8587 31.1791 13.0819C31.4015 12.0795 30.7387 11.3082 29.6894 11.3082H18.3773V13.5366H29.9639L29.0123 12.6547C27.3621 19.6102 21.7537 24.4257 14.5713 24.4257C7.20116 24.4257 2.2167 19.8476 2.2167 13.306C2.2167 8.05413 5.96483 4.24014 10.9033 4.24014C14.7019 4.24014 17.4558 6.75639 17.4558 10.2394C17.4558 13.1965 15.5337 15.1962 13.0673 15.1962C10.9615 15.1962 9.42444 13.8045 9.42444 11.9457C9.42444 10.4989 10.3769 9.39194 11.7321 9.39194C12.8252 9.39194 13.4592 10.0398 13.4592 10.8711C13.4592 11.5168 13.065 11.9687 12.5076 11.9687C12.0811 11.9687 11.9191 11.768 11.7733 11.5569C11.6402 11.3712 11.4666 11.2433 11.149 11.2433C10.736 11.2433 10.3439 11.5733 10.3439 12.1454C10.3439 12.9305 11.0789 13.9545 12.5023 13.9545C14.1213 13.9545 15.4261 12.7466 15.4261 10.8943C15.4261 8.95249 13.8028 7.42296 11.7321 7.42296C9.40148 7.42296 7.42804 9.40952 7.42804 11.9731C7.42804 14.9551 9.85101 17.3044 13.118 17.3044C17.9247 17.3044 19.6842 13.0046 19.6842 10.2394C19.6842 5.49054 15.9677 2.01172 10.9033 2.01172C4.7107 2.01172 0 6.78828 0 13.306C0 21.1304 5.90132 26.652 14.5713 26.652ZM16.9697 4.44757L12.5299 8.77671L13.6305 9.91108L18.064 5.59038L16.9697 4.44757ZM10.2644 2.50836V8.82711H11.8427V2.50836H10.2644ZM3.95789 5.39866L8.62265 10.0773L9.70101 8.92062L5.07538 4.28117L3.95789 5.39866ZM1.56351 12.6697H8.37281V11.0956H1.56351V12.6697ZM4.19788 21.139L9.90069 15.4341L8.79069 14.3166L3.09749 20.0216L4.19788 21.139ZM11.9775 25.4365H13.5537V16.4607H11.9775V25.4365ZM22.9809 22.9714L24.0909 21.8539L16.6753 14.4223L15.5632 15.5398L22.9809 22.9714Z" fill="black"/>
</svg>
