<svg width="28" height="28" viewBox="0 0 28 28" fill="none" xmlns="http://www.w3.org/2000/svg">
<path d="M8.71265 25.339H19.6863C21.4659 25.339 22.399 24.3847 22.399 22.4635V14.1636C22.399 12.2584 21.4659 11.304 19.6863 11.304H8.71265C6.93094 11.304 6 12.2584 6 14.1636V22.4635C6 24.3847 6.93094 25.339 8.71265 25.339ZM9.04545 23.2384C8.55842 23.2384 8.28022 22.9409 8.28022 22.3878V14.2435C8.28022 13.6883 8.55842 13.4047 9.04545 13.4047H19.3556C19.8523 13.4047 20.1166 13.6883 20.1166 14.2435V22.3878C20.1166 22.9409 19.8523 23.2384 19.3556 23.2384H9.04545ZM8.14148 12.2886H10.3359L10.338 8.3457C10.338 5.5939 12.0982 4.09858 14.1947 4.09858C16.2869 4.09858 18.0727 5.5939 18.0727 8.3457L18.0684 12.2886H20.2554L20.2575 8.55383C20.2575 4.22984 17.3958 2 14.1947 2C11.0032 2 8.14359 4.22984 8.14359 8.55383L8.14148 12.2886Z" fill="black"/>
</svg>
