<svg width="28" height="28" viewBox="0 0 28 28" fill="none" xmlns="http://www.w3.org/2000/svg">
<path d="M14.105 26.21C20.7369 26.21 26.2121 20.7273 26.2121 14.105C26.2121 7.47312 20.7273 2 14.0954 2C7.47523 2 2 7.47312 2 14.105C2 20.7273 7.48484 26.21 14.105 26.21ZM14.105 23.8255C8.71085 23.8255 4.39412 19.4991 4.39412 14.105C4.39412 8.71085 8.70124 4.38452 14.0954 4.38452C19.4895 4.38452 23.8276 8.71085 23.8276 14.105C23.8276 19.4991 19.4991 23.8255 14.105 23.8255Z" fill="black"/>
<path d="M15.0896 12.485C16.1415 12.0945 16.8739 11.0855 16.8739 9.908C16.8739 8.36699 15.6226 7.11777 14.0858 7.11988C12.9019 7.1241 11.8972 7.87035 11.5248 8.90957L15.0896 12.485ZM12.6055 9.11723C12.6055 8.66441 12.9976 8.2723 13.4504 8.2723C13.9128 8.2723 14.2953 8.66441 14.2857 9.11723C14.2857 9.57004 13.9128 9.96426 13.4504 9.96426C12.9976 9.96426 12.6055 9.57004 12.6055 9.11723ZM13.1865 15.3235V18.2176C13.1865 19.8019 13.5352 21.3275 14.0858 21.3275C14.6438 21.3275 14.983 19.8233 14.983 18.2176V17.1125L13.1865 15.3235ZM19.3508 20.1746C19.5711 20.3928 19.9447 20.397 20.1746 20.1746C20.4066 19.9447 20.4066 19.5807 20.1746 19.3508L8.85172 8.02785C8.6218 7.79793 8.25571 7.79793 8.01618 8.02785C7.79376 8.25777 7.79376 8.63136 8.01618 8.85378L19.3508 20.1746Z" fill="black"/>
</svg>
