<svg width="28" height="28" viewBox="0 0 28 28" fill="none" xmlns="http://www.w3.org/2000/svg">
<path d="M13.3726 26.5653C15.8675 26.5653 17.6408 24.7573 17.9087 22.6358H18.5333L16.025 20.1233H4.80615V19.9869C5.10568 19.6534 5.7781 19.0252 6.36334 18.3666C7.12576 17.4903 7.51482 16.0018 7.62545 13.8558C7.64889 13.1283 7.70115 12.4798 7.78436 11.889L5.7725 9.87289C5.52945 10.857 5.41226 11.9895 5.37828 13.2458C5.22758 14.8592 5.03679 16.4748 4.21063 17.2812C3.14891 18.3052 2 19.3726 2 20.6183C2 21.6205 2.74062 22.2662 3.96898 22.2662H8.78234C8.87609 24.5194 10.7068 26.5653 13.3726 26.5653ZM13.3726 24.6852C12.039 24.6852 11.0818 23.7439 10.9923 22.2662H15.7454C15.6655 23.7439 14.6987 24.6852 13.3726 24.6852ZM8.26929 5.6075L9.91435 7.25468C10.2919 6.97835 10.7101 6.79483 11.1549 6.67108C11.4394 6.60288 11.5939 6.46858 11.6162 6.1428C11.6799 4.95358 12.3376 4.15084 13.3726 4.15084C14.4001 4.15084 15.0673 4.95358 15.1215 6.1428C15.1437 6.46858 15.3078 6.60288 15.5923 6.67108C17.5091 7.19772 19.0002 8.82827 19.1127 13.7809C19.1776 15.122 19.2969 16.0367 19.6627 16.8493L24.3017 21.594C24.56 21.3249 24.6992 20.9527 24.6992 20.5318C24.6992 19.4783 23.7329 18.5551 22.8153 17.6848C21.8354 16.6573 21.5197 15.4646 21.3978 13.5821C21.2633 8.84422 19.9388 5.85359 16.8647 4.74008C16.4178 3.1775 15.1142 2 13.3726 2C11.6234 2 10.3294 3.1775 9.88249 4.74008C9.26655 4.9468 8.73593 5.24305 8.26929 5.6075Z" fill="black"/>
<path d="M2.43479 4.49702L23.7233 25.7504C24.0875 26.1221 24.6807 26.1221 25.0428 25.7504C25.3932 25.3862 25.407 24.8026 25.0428 24.4308L3.76815 3.17749C3.40393 2.81327 2.80862 2.81327 2.43479 3.17749C2.0844 3.52788 2.0844 4.14452 2.43479 4.49702Z" fill="black"/>
</svg>
