<svg width="30" height="28" viewBox="0 0 30 28" fill="none" xmlns="http://www.w3.org/2000/svg">
<path d="M3.84421 20.7446H6.92342V18.4487H3.97733C2.88772 18.4487 2.29592 17.8845 2.29592 16.7459V6.00827C2.29592 4.86967 2.88772 4.29592 3.97733 4.29592H19.5909C20.6709 4.29592 21.282 4.86967 21.282 6.00827V8.45538H23.5779V5.80577C23.5779 3.30523 22.2555 2 19.7337 2H3.84421C1.30523 2 0 3.30523 0 5.80577V16.9388C0 19.449 1.30523 20.7446 3.84421 20.7446Z" fill="black"/>
<path d="M9.76832 26.3138H25.7613C28.2832 26.3138 29.6076 25.0107 29.6076 22.508V11.3771C29.6076 8.87652 28.2832 7.57129 25.7613 7.57129H9.76832C7.22723 7.57129 5.922 8.87652 5.922 11.3771V22.508C5.922 25.0203 7.22723 26.3138 9.76832 26.3138ZM9.90144 24.0179C8.80972 24.0179 8.21792 23.4559 8.21792 22.3173V11.5796C8.21792 10.4389 8.80972 9.86721 9.90144 9.86721H25.6186C26.7007 9.86721 27.3117 10.4389 27.3117 11.5796V22.3173C27.3117 23.4559 26.7007 24.0179 25.6186 24.0179H9.90144ZM13.567 21.496C13.567 22.3876 13.9643 22.804 14.7876 22.804H20.7483C21.577 22.804 21.9743 22.3876 21.9743 21.496V16.9269C21.9743 16.1255 21.6471 15.7133 20.9798 15.6474V14.3258C20.9798 12.1695 19.6823 10.726 17.7658 10.726C15.859 10.726 14.5561 12.1695 14.5561 14.3258V15.6453C13.8963 15.7133 13.567 16.1255 13.567 16.9269V21.496ZM15.9246 15.623V14.2074C15.9246 12.9047 16.6603 12.0572 17.7658 12.0572C18.8831 12.0572 19.6113 12.9026 19.6113 14.2074V15.623H15.9246Z" fill="black"/>
</svg>
