<svg width="28" height="28" viewBox="0 0 28 28" fill="none" xmlns="http://www.w3.org/2000/svg">
<path d="M14.105 26.21C20.7369 26.21 26.2121 20.7273 26.2121 14.105C26.2121 7.47312 20.7273 2 14.0954 2C7.47523 2 2 7.47312 2 14.105C2 20.7273 7.48484 26.21 14.105 26.21Z" fill="black"/>
<path d="M16.1977 10.876C14.6738 9.68375 11.7626 8.81118 9.49856 9.63079C10.6653 8.42867 12.3052 7.66344 14.105 7.66344C14.9787 7.66344 15.8056 7.85422 16.5718 8.16219C16.917 8.9293 16.7572 9.86375 16.1977 10.876ZM13.6609 13.9477C11.6907 13.1464 9.20278 12.5839 7.68567 13.5622C7.74638 12.7808 7.96599 12.0165 8.30185 11.3396C10.3029 9.43086 13.9606 10.3046 15.6994 11.6895C15.1869 12.4376 14.4814 13.1975 13.6609 13.9477ZM9.72193 13.9482C9.7763 16.4492 10.9369 18.8061 12.0973 20.2006C9.71349 19.4187 7.9381 17.2662 7.69528 14.7024C8.12794 14.1399 8.85357 13.929 9.72193 13.9482ZM13.3393 14.8379C13.4469 16.7813 14.5944 19.2542 16.1352 20.1917C15.4988 20.4092 14.8454 20.5318 14.0255 20.5339C12.9561 20.1791 10.7942 17.3588 10.6653 14.0429C11.5243 14.1664 12.4686 14.4626 13.3393 14.8379ZM17.3448 19.6508C16.715 19.6175 16.0768 19.104 15.5452 18.3498C18.3849 16.1886 19.7209 13.7569 20.183 12.0587C20.4027 12.6896 20.5306 13.3803 20.5306 14.1008C20.5306 16.4405 19.2317 18.5225 17.3448 19.6508ZM15.0671 17.5437C14.6098 16.6721 14.3082 15.6202 14.2688 14.6558C16.288 12.8412 17.8222 10.6069 17.6185 8.74578C18.339 9.21781 18.9666 9.82953 19.4462 10.5521C19.6505 11.4413 18.7841 14.6415 15.0671 17.5437Z" fill="white"/>
</svg>
