<svg width="35" height="28" viewBox="0 0 35 28" fill="none" xmlns="http://www.w3.org/2000/svg">
<path d="M10.4517 8.35511C10.3941 8.58761 10.3748 8.83511 10.3748 9.14238V12.9735H13.8649C15.3396 12.9735 16.203 13.8529 16.203 15.3236C16.203 16.7964 15.3396 17.6737 13.8649 17.6737H10.3748V18.4886C10.3748 20.1625 10.962 20.8354 12.0886 21.4734L21.1727 26.5734C21.2789 26.6371 21.3851 26.6849 21.4966 26.7105V14.5942L10.4517 8.35511ZM23.216 26.7105C23.3276 26.6849 23.4337 26.6371 23.5495 26.5734L32.6241 21.4734C33.7603 20.8354 34.3378 20.1625 34.3378 18.4886V9.14238C34.3378 8.83511 34.3186 8.58761 34.2609 8.35511L23.216 14.5942V26.7105ZM22.3622 13.072L27.3408 10.2824L16.1651 3.97418L11.9381 6.35168C11.6613 6.50074 11.4335 6.65191 11.2334 6.84035L22.3622 13.072ZM29.1279 9.2891L33.4814 6.84035C33.293 6.65191 33.063 6.50074 32.7862 6.35168L24.5655 1.73145C23.8359 1.31918 23.0916 1.09863 22.3643 1.09863C21.6253 1.09863 20.8788 1.31918 20.1492 1.73145L17.899 2.99473L29.1279 9.2891Z" fill="black"/>
<path d="M15.0035 15.3237C15.0035 14.6531 14.5235 14.1732 13.8647 14.1732H6.10991L2.38453 14.2988V15.2039L5.72507 12.1774L7.32749 10.7751C7.60429 10.5377 7.7053 10.2173 7.7053 9.89599C7.7053 9.25099 7.21359 8.78271 6.5707 8.78271C6.27164 8.78271 5.9939 8.88701 5.74054 9.13076L0.39703 14.4626C0.143671 14.7021 0 15.0054 0 15.3237C0 15.6441 0.143671 15.9453 0.39703 16.1869L5.71172 21.4878C5.98429 21.7603 6.27164 21.8667 6.5707 21.8667C7.21359 21.8667 7.7053 21.3963 7.7053 20.7535C7.7053 20.4321 7.6139 20.1117 7.32749 19.8722L5.72507 18.4721L2.38453 15.4435V16.3486L6.10991 16.4742H13.8647C14.5235 16.4742 15.0035 15.9963 15.0035 15.3237Z" fill="black"/>
</svg>
