<svg width="28" height="28" viewBox="0 0 28 28" fill="none" xmlns="http://www.w3.org/2000/svg">
<path d="M6.84421 25.155H21.0295C23.5685 25.155 24.8737 23.8594 24.8737 21.3588V7.08702C24.8737 4.58648 23.5685 3.28125 21.0295 3.28125H6.84421C4.31484 3.28125 3 4.58648 3 7.08702V21.3588C3 23.8594 4.31484 25.155 6.84421 25.155ZM6.97733 22.8591C5.88772 22.8591 5.29592 22.297 5.29592 21.1563V7.28952C5.29592 6.14881 5.88772 5.57717 6.97733 5.57717H20.8964C21.9764 5.57717 22.5778 6.14881 22.5778 7.28952V21.1563C22.5778 22.297 21.9764 22.8591 20.8964 22.8591H6.97733Z" fill="black"/>
<path d="M11.0501 20.9764H16.8471C17.3534 20.9764 17.768 20.7716 17.9435 20.4228L17.985 20.3279L16.2841 18.627L16.249 18.927C16.218 19.0925 16.0655 19.1907 15.8979 19.1907C15.6241 19.1907 15.4751 19.0128 15.4751 18.77L15.5039 17.8468L14.3751 16.7202V18.7721C14.3751 19.0149 14.1898 19.1811 13.9277 19.1811C13.6615 19.1811 13.4953 19.0149 13.4953 18.7721V15.8382L12.2386 14.5815L12.3858 18.77C12.39 19.0128 12.2271 19.1907 11.9651 19.1907C11.7244 19.1907 11.5369 19.0246 11.5348 18.7817L11.3525 13.6857L9.33659 11.6719L9.68933 19.6848C9.72448 20.5281 10.2068 20.9764 11.0501 20.9764ZM19.0113 20.0389C19.253 20.2785 19.6052 20.271 19.8277 20.0293C20.0672 19.809 20.0672 19.445 19.8277 19.2055L9.04175 8.41949C8.81183 8.18957 8.44573 8.18957 8.2137 8.41949C7.98378 8.64192 7.98378 9.0134 8.2137 9.24543L19.0113 20.0389ZM18.3548 16.4131L18.6042 10.7328H19.4562C19.7754 10.7328 20.0212 10.4836 20.0309 10.1761C20.0405 9.86864 19.7754 9.62161 19.4562 9.62161H16.7946V8.76309C16.7946 7.77895 16.1353 7.16113 15.0471 7.16113H12.8213C11.8144 7.16113 11.1795 7.71989 11.1289 8.61544C11.1204 8.7338 11.1162 8.84255 11.112 8.96302H10.9102L13.7709 11.8238V11.6412C13.8136 11.6028 13.8659 11.5836 13.9277 11.5836C14.1994 11.5836 14.3751 11.7476 14.3751 12.0001V12.4376L15.6274 13.6761L15.6872 12.1118C15.6893 11.8552 15.8789 11.689 16.1292 11.689C16.3934 11.689 16.5574 11.8594 16.5574 12.1257L16.4646 14.5058L18.3548 16.4131ZM12.3366 9.62161L12.3387 8.81442C12.3429 8.52027 12.5689 8.32527 12.8672 8.32527H14.9937C15.3037 8.32527 15.5201 8.52027 15.5222 8.81442L15.5243 9.62161H12.3366Z" fill="black"/>
</svg>
