<svg width="28" height="28" viewBox="0 0 28 28" fill="none" xmlns="http://www.w3.org/2000/svg">
<path d="M4.73342 25.4836C6.81889 26.0995 9.15163 26.1804 11.5003 25.7421L2.27928 16.5211C1.841 18.8698 1.91225 21.2025 2.5378 23.288C2.94139 24.6298 3.39162 25.08 4.73342 25.4836ZM20.7949 20.7902C22.7454 18.859 24.1526 16.5741 25.009 14.205L13.8164 3.01243C11.4473 3.86884 9.17201 5.27813 7.22365 7.22649C5.27319 9.15774 3.8735 11.4427 3.00959 13.8117L14.2022 25.0022C16.5787 24.1479 18.854 22.7386 20.7949 20.7902ZM12.423 18.9722C12.1847 19.1967 11.8101 19.1967 11.5739 18.9626L9.0492 16.4379C8.82467 16.2113 8.82256 15.8367 9.0492 15.5984C9.28756 15.3504 9.67381 15.3504 9.90045 15.5888L10.7409 16.4313L11.5385 15.6241L10.6959 14.7933C10.4672 14.5645 10.4672 14.1825 10.6959 13.9441C10.9343 13.7058 11.3205 13.7058 11.5547 13.9324L12.3876 14.7846L13.1831 13.9795L12.3426 13.1466C12.1139 12.9178 12.1043 12.5358 12.3426 12.2974C12.581 12.0591 12.9726 12.0591 13.1918 12.2878L14.0322 13.1283L14.8415 12.3286L13.9915 11.4956C13.7648 11.269 13.7552 10.8848 13.9915 10.6486C14.2298 10.4102 14.614 10.4102 14.8406 10.639L15.6811 11.4774L16.4883 10.684L15.6457 9.84352C15.4115 9.61477 15.3998 9.23813 15.6457 9.00188C15.8744 8.77524 16.2607 8.77524 16.4852 8.99227L19.0195 11.5224C19.2483 11.7607 19.2483 12.1373 19.0195 12.3736C18.7811 12.612 18.397 12.6023 18.1586 12.364L17.3278 11.531L16.5323 12.3286L17.3728 13.1691C17.6111 13.4074 17.6111 13.7841 17.3728 14.0278C17.1248 14.2566 16.7524 14.247 16.5236 14.0182L15.6811 13.1873L14.8835 13.9795L15.724 14.82C15.9623 15.0488 15.9602 15.4308 15.724 15.6787C15.476 15.915 15.1036 15.9075 14.8748 15.6691L14.0322 14.8383L13.2368 15.6241L14.0697 16.4667C14.306 16.6912 14.306 17.0871 14.0697 17.3255C13.8314 17.5521 13.4569 17.5542 13.2281 17.3159L12.3876 16.485L11.59 17.2805L12.423 18.1113C12.6614 18.3476 12.6614 18.7338 12.423 18.9722ZM25.4904 4.72875C25.0751 3.38485 24.6365 2.94634 23.2947 2.53103C21.2072 1.9172 18.8744 1.83634 16.5257 2.28423L25.7372 11.4956C26.185 9.14696 26.1042 6.81423 25.4904 4.72875Z" fill="black"/>
</svg>
