<svg width="28" height="28" viewBox="0 0 28 28" fill="none" xmlns="http://www.w3.org/2000/svg">
<path d="M4.67308 25.4322C5.26862 25.4322 5.75565 24.959 5.75565 24.3592V17.9449C6.06971 17.8244 7.07003 17.4658 8.58598 17.4658C12.6322 17.4658 15.3191 19.3678 19.19 19.5752L16.4943 16.8698C13.9544 16.3774 11.7156 15.2934 8.61972 15.2934C7.46355 15.2934 6.41612 15.4246 5.80206 15.6646V6.29501L3.72387 4.21683C3.64277 4.37995 3.59473 4.5773 3.59473 4.86534V24.3592C3.59473 24.9473 4.08926 25.4322 4.67308 25.4322ZM24.426 17.9261C24.6069 17.642 24.6835 17.2792 24.6835 16.814V5.12198C24.6835 4.36261 24.0939 3.89175 23.3066 3.89175C22.6501 3.89175 21.5973 4.34386 19.7019 4.34386C15.6969 4.34386 12.8075 2.27199 8.60426 2.21222L11.1174 4.72329C13.9989 5.23236 16.389 6.50994 19.6618 6.50994C20.8063 6.50994 21.7661 6.38291 22.4858 6.18345V15.9764L24.426 17.9261Z" fill="black"/>
<path d="M23.7064 22.0225C24.0824 22.3888 24.6798 22.3825 25.026 22.0225C25.3923 21.6466 25.3977 21.063 25.026 20.703L4.59457 0.271584C4.22824 -0.0926342 3.62332 -0.0884156 3.26121 0.271584C2.91082 0.624083 2.91504 1.24072 3.26121 1.59111L23.7064 22.0225Z" fill="black"/>
</svg>
