<svg width="28" height="28" viewBox="0 0 28 28" fill="none" xmlns="http://www.w3.org/2000/svg">
<path d="M14.105 26.2301C20.7369 26.2301 26.2121 20.7549 26.2121 14.123C26.2121 7.50288 20.7273 2.01804 14.0954 2.01804C7.47523 2.01804 2 7.50288 2 14.123C2 20.7549 7.48484 26.2301 14.105 26.2301Z" fill="black"/>
<path d="M8.86924 18.3959C8.19635 18.3959 7.79932 18.0277 7.79932 17.502C7.79932 16.8013 8.44104 16.2195 9.0237 15.6451C9.48377 15.1815 9.57752 14.2407 9.65932 13.4021C9.74205 10.9536 10.4588 9.25062 12.1629 8.62179C12.4568 7.75882 13.1449 7.09906 14.1145 7.09906C15.0862 7.09906 15.784 7.75882 16.0683 8.62179C17.7724 9.25062 18.4828 10.9536 18.5815 13.4021C18.6558 14.2407 18.7378 15.1815 19.2075 15.6451C19.8093 16.2099 20.4318 16.8013 20.4318 17.502C20.4318 18.0277 20.0348 18.3959 19.3715 18.3959H8.86924ZM14.1145 21.2347C12.9567 21.2347 12.1153 20.4102 12.0375 19.4366H16.1936C16.1254 20.4102 15.2744 21.2347 14.1145 21.2347Z" fill="white"/>
</svg>
