<svg width="37" height="28" viewBox="0 0 37 28" fill="none" xmlns="http://www.w3.org/2000/svg">
<path d="M7.82295 14.6959H17.381V6.71593C17.381 5.08375 16.3153 4 14.745 4H5.99999C4.42007 4 3.36187 5.08375 3.36187 6.71593V8.75617H3.79968C6.13874 8.75617 7.82295 10.4542 7.82295 12.8188V14.6959ZM18.8644 14.6959H28.4224V12.8188C28.4224 10.4521 30.1141 8.75617 32.4436 8.75617H32.8814V6.71593C32.8814 5.08375 31.8253 4 30.2454 4H21.5025C19.9343 4 18.8644 5.08375 18.8644 6.71593V14.6959ZM0 19.7919C0 21.3665 1.03687 22.4193 2.58796 22.4193H33.6553C35.2064 22.4193 36.2454 21.3665 36.2454 19.7919V12.8188C36.2454 11.2539 35.2064 10.1894 33.6553 10.1894H32.4436C30.9042 10.1894 29.8652 11.2539 29.8652 12.8188V16.1291H6.38975V12.8188C6.38975 11.2539 5.33905 10.1894 3.79968 10.1894H2.58796C1.03687 10.1894 0 11.2539 0 12.8188V19.7919ZM4.20633 24.925H4.96148C5.60695 24.925 6.02226 24.5139 6.02226 23.8684V21.3187H3.14555V23.8684C3.14555 24.5139 3.56086 24.925 4.20633 24.925ZM31.2016 24.925H31.9505C32.636 24.925 33.0787 24.4801 33.0787 23.7988V21.1942H30.0755V23.7988C30.0755 24.4801 30.5278 24.925 31.2016 24.925Z" fill="black"/>
</svg>
