<svg width="28" height="28" viewBox="0 0 28 28" fill="none" xmlns="http://www.w3.org/2000/svg">
<path d="M1 14.105C1 20.7251 6.48484 26.21 13.105 26.21C16.9087 26.21 20.4674 24.3073 22.6274 21.4613C23.1355 20.8381 23.0341 20.0881 22.502 19.7023C21.9297 19.2955 21.2406 19.4752 20.7773 20.0211C18.9958 22.3283 16.2571 23.8159 13.105 23.8255C7.71085 23.8351 3.38452 19.4991 3.38452 14.105C3.38452 8.71085 7.71085 4.39412 13.105 4.39412C17.673 4.39412 21.4649 7.47898 22.5149 11.6998H20.838C19.9469 11.6998 19.7043 12.3627 20.2129 13.0852L23.0087 17.0197C23.428 17.604 24.077 17.6072 24.5038 17.0197L27.2922 13.0948C27.8179 12.3648 27.5741 11.6998 26.6767 11.6998H24.962C23.8408 6.19648 18.9128 2 13.105 2C6.48484 2 1 7.47312 1 14.105Z" fill="black"/>
<path d="M8.89648 18.6622C8.89648 19.5537 9.29375 19.9702 10.1171 19.9702H16.0777C16.8968 19.9702 17.2941 19.5537 17.2941 18.6622V14.093C17.2941 13.2938 16.9669 12.8794 16.3093 12.8157V11.4919C16.3093 9.3378 15.0118 7.88257 13.0953 7.88257C11.1788 7.88257 9.88555 9.3378 9.88555 11.4919V12.8115C9.22578 12.8794 8.89648 13.2938 8.89648 14.093V18.6622ZM11.254 12.7892V11.3736C11.254 10.0709 11.9897 9.21381 13.0953 9.21381C14.2051 9.21381 14.9408 10.0688 14.9408 11.3736V12.7892H11.254Z" fill="black"/>
</svg>
