<svg width="29" height="28" viewBox="0 0 29 28" fill="none" xmlns="http://www.w3.org/2000/svg">
<path d="M1.72588 19.7768C4.04853 22.0782 7.09939 22.0899 9.39321 19.7982L18.1333 11.056C20.4208 8.7685 20.4208 5.67405 18.112 3.38656C15.7989 1.08735 12.7363 1.08524 10.4446 3.37695L1.71416 12.1095C-0.573336 14.397 -0.573336 17.4914 1.72588 19.7768ZM3.38149 18.1212C2.07133 16.809 2.1161 15.0029 3.48485 13.6341L11.9692 5.14975C13.3422 3.76717 15.1483 3.7224 16.4563 5.04429C17.7761 6.36617 17.7314 8.16054 16.3509 9.54101L7.87822 18.0158C6.49564 19.3983 4.69915 19.4431 3.38149 18.1212ZM6.12909 9.43788L12.0745 15.3736L13.7301 13.7159L7.7847 7.78016L6.12909 9.43788ZM21.9025 26.5688C25.5735 26.5688 28.5278 23.6103 28.5278 19.9489C28.5278 16.3247 25.5597 13.3545 21.9025 13.3545C18.2666 13.3545 15.2964 16.3247 15.2964 19.9489C15.2964 23.5964 18.2645 26.5688 21.9025 26.5688ZM21.9025 24.2707C19.5236 24.2707 17.5923 22.332 17.5923 19.9489C17.5923 17.5817 19.5332 15.6525 21.9025 15.6525C24.291 15.6525 26.2319 17.5817 26.2319 19.9489C26.2319 22.3512 24.3048 24.2707 21.9025 24.2707ZM16.4978 21.0933H27.3147V18.8161H16.4978V21.0933Z" fill="black"/>
</svg>
