<svg width="28" height="28" viewBox="0 0 28 28" fill="none" xmlns="http://www.w3.org/2000/svg">
<path d="M7.7957 26.9117H17.2935C19.7954 26.9117 21.0796 25.6276 21.0796 23.1758V22.989H15.2615C14.6031 23.7512 13.6152 24.2373 12.5261 24.2373C10.5137 24.2373 8.89022 22.6159 8.89022 20.6035C8.89022 18.6029 10.5137 16.9836 12.5261 16.9836C13.6152 16.9836 14.5956 17.458 15.2498 18.2223H21.0796V5.75726C21.0796 3.28625 19.7954 2 17.2935 2H7.7957C5.30547 2 4 3.27664 4 5.75726V23.1566C4 25.6372 5.30547 26.9117 7.7957 26.9117ZM8.74772 8.06843C7.91686 8.06843 7.25757 7.39952 7.25757 6.58999C7.25757 5.75703 7.91686 5.08812 8.74772 5.08812C9.57108 5.08812 10.24 5.75703 10.24 6.58999C10.24 7.39952 9.57108 8.06843 8.74772 8.06843ZM12.5261 8.06843C11.7027 8.06843 11.0455 7.39952 11.0455 6.58999C11.0455 5.75703 11.7027 5.08812 12.5261 5.08812C13.3708 5.08812 14.028 5.75703 14.028 6.58999C14.028 7.39952 13.3708 8.06843 12.5261 8.06843ZM16.3258 8.06843C15.4928 8.06843 14.8335 7.39952 14.8335 6.58999C14.8335 5.75703 15.4928 5.08812 16.3258 5.08812C17.1566 5.08812 17.8063 5.75703 17.8063 6.58999C17.8063 7.39952 17.1566 8.06843 16.3258 8.06843ZM8.74772 11.6926C7.91686 11.6926 7.25757 11.0237 7.25757 10.2003C7.25757 9.36312 7.91686 8.69632 8.74772 8.69632C9.57108 8.69632 10.24 9.36312 10.24 10.2003C10.24 11.0237 9.57108 11.6926 8.74772 11.6926ZM12.5261 11.6926C11.7027 11.6926 11.0455 11.0237 11.0455 10.2003C11.0455 9.36312 11.7027 8.69632 12.5261 8.69632C13.3708 8.69632 14.028 9.36312 14.028 10.2003C14.028 11.0237 13.3708 11.6926 12.5261 11.6926ZM16.3258 11.6926C15.4928 11.6926 14.8335 11.0237 14.8335 10.2003C14.8335 9.36312 15.4928 8.69632 16.3258 8.69632C17.1566 8.69632 17.8063 9.36312 17.8063 10.2003C17.8063 11.0237 17.1566 11.6926 16.3258 11.6926ZM8.74772 15.3263C7.91686 15.3263 7.25757 14.6574 7.25757 13.8244C7.25757 13.0032 7.91686 12.3343 8.74772 12.3343C9.57108 12.3343 10.24 13.0032 10.24 13.8244C10.24 14.6574 9.57108 15.3263 8.74772 15.3263ZM12.5261 15.3263C11.7027 15.3263 11.0455 14.6574 11.0455 13.8244C11.0455 13.0032 11.7027 12.3343 12.5261 12.3343C13.3708 12.3343 14.028 13.0032 14.028 13.8244C14.028 14.6574 13.3708 15.3263 12.5261 15.3263ZM16.3258 15.3263C15.4928 15.3263 14.8335 14.6574 14.8335 13.8244C14.8335 13.0032 15.4928 12.3343 16.3258 12.3343C17.1566 12.3343 17.8063 13.0032 17.8063 13.8244C17.8063 14.6574 17.1566 15.3263 16.3258 15.3263Z" fill="black"/>
<path d="M12.5262 22.0552H22.2773C23.0677 22.0552 23.7269 21.4001 23.7269 20.6056C23.7269 19.8015 23.0677 19.1539 22.2773 19.1539H12.5262C11.7317 19.1539 11.0745 19.8015 11.0745 20.6056C11.0745 21.4001 11.7317 22.0552 12.5262 22.0552Z" fill="black"/>
</svg>
