<svg width="28" height="28" viewBox="0 0 28 28" fill="none" xmlns="http://www.w3.org/2000/svg">
<path d="M14.105 26.21C20.7369 26.21 26.2121 20.7273 26.2121 14.105C26.2121 7.47312 20.7273 2 14.0954 2C7.47523 2 2 7.47312 2 14.105C2 20.7273 7.48484 26.21 14.105 26.21ZM14.105 23.8255C8.71085 23.8255 4.39412 19.4991 4.39412 14.105C4.39412 8.71085 8.70124 4.38452 14.0954 4.38452C19.4895 4.38452 23.8276 8.71085 23.8276 14.105C23.8276 19.4991 19.4991 23.8255 14.105 23.8255Z" fill="black"/>
<path d="M16.1265 11.0047C16.6583 10.0222 16.816 9.12921 16.4867 8.39187C15.7461 8.08601 14.949 7.90694 14.105 7.90694C12.3744 7.90694 10.7918 8.64663 9.66873 9.80726C11.8456 9.01319 14.6558 9.85601 16.1265 11.0047ZM13.6789 13.9519C14.4697 13.2294 15.1475 12.4972 15.6462 11.7746C13.9648 10.4471 10.4518 9.60312 8.51982 11.4385C8.19779 12.0994 7.9899 12.8361 7.9292 13.5919C9.38678 12.6413 11.7779 13.1783 13.6789 13.9519ZM9.88459 13.9482C9.0535 13.9386 8.35553 14.1357 7.93881 14.6823C8.16779 17.1514 9.88576 19.2209 12.1845 19.9709C11.0677 18.6338 9.93475 16.3641 9.88459 13.9482ZM13.3712 14.8081C12.5281 14.4446 11.6232 14.1622 10.794 14.0408C10.9186 17.2398 12.9976 19.9494 14.0234 20.2904C14.8156 20.2883 15.4531 20.1678 16.066 19.9599C14.5827 19.0543 13.4766 16.6803 13.3712 14.8081ZM17.2257 19.4391C19.0414 18.3523 20.2871 16.3534 20.2871 14.1008C20.2871 13.408 20.1591 12.7428 19.9512 12.1278C19.5071 13.7666 18.2265 16.1035 15.4878 18.1934C16.0034 18.9179 16.614 19.4016 17.2257 19.4391ZM15.0277 17.4172C18.6097 14.6277 19.4368 11.5487 19.2484 10.685C18.7827 9.99007 18.1827 9.40179 17.4856 8.94569C17.6797 10.7356 16.2029 12.8848 14.2667 14.6398C14.304 15.5628 14.5939 16.5774 15.0277 17.4172Z" fill="black"/>
</svg>
