<svg width="34" height="28" viewBox="0 0 34 28" fill="none" xmlns="http://www.w3.org/2000/svg">
<path d="M0 16.5251C0 18.3902 0.977106 19.3535 2.86569 19.3535H6.98624C8.69226 19.3535 9.61218 19.7819 10.7065 21.2578C12.6705 23.8739 15.6719 25.2679 18.8137 25.2679H23.283C24.224 25.2679 24.8327 24.6614 24.8327 23.7375V4.50163C24.8327 3.59695 24.2144 3 23.283 3H18.8137C15.6719 3 12.6609 4.38445 10.7065 7.01015C9.61218 8.49562 8.69226 8.92406 6.98624 8.92406H2.86569C0.977106 8.92406 0 9.87984 0 11.745V16.5251ZM24.1427 11.6086H31.1172C32.234 11.6086 33.1507 10.694 33.1507 9.57726C33.1507 8.46046 32.234 7.54382 31.1172 7.54382H24.1427V11.6086ZM24.1427 20.7769H31.1172C32.234 20.7769 33.1507 19.8623 33.1507 18.7455C33.1507 17.6287 32.234 16.7142 31.1172 16.7142H24.1427V20.7769Z" fill="black"/>
</svg>
