<svg width="28" height="28" viewBox="0 0 28 28" fill="none" xmlns="http://www.w3.org/2000/svg">
<path d="M9 5.6521C9 7.79475 10.4325 9.58912 12.4017 10.1223V21.1429C12.4017 24.3362 13.1452 26.301 13.6266 26.301C14.1197 26.301 14.8514 24.348 14.8514 21.1429V10.1223C16.8227 9.60084 18.2648 7.79475 18.2648 5.6521C18.2648 3.09554 16.2066 1 13.6266 1C11.0604 1 9 3.09554 9 5.6521Z" fill="black"/>
<path d="M12.3136 5.91724C11.465 5.91724 10.7239 5.17825 10.7239 4.31576C10.7239 3.46287 11.465 2.7356 12.3136 2.7356C13.1804 2.7356 13.8938 3.46287 13.8938 4.31576C13.8938 5.17825 13.1804 5.91724 12.3136 5.91724Z" fill="white"/>
</svg>
