<svg width="30" height="28" viewBox="0 0 30 28" fill="none" xmlns="http://www.w3.org/2000/svg">
<path d="M1.14421 26.1541C1.78124 26.1541 2.29592 25.6394 2.29592 25.0098V3.93389C2.29592 3.54623 2.54623 3.29592 2.91256 3.29592H26.3641C26.7305 3.29592 26.9808 3.54623 26.9808 3.93389V25.0098C26.9808 25.6394 27.4955 26.1541 28.1229 26.1541C28.762 26.1541 29.2767 25.6394 29.2767 25.0098V3.72178C29.2767 2.07273 28.1869 1 26.4973 1H2.77194C1.08984 1 0 2.07273 0 3.72178V25.0098C0 25.6394 0.514684 26.1541 1.14421 26.1541Z" fill="black"/>
<path d="M15.1026 25.6554H25.2049C25.417 25.6554 25.5865 25.4763 25.5865 25.2717V5.06433C25.5865 4.85011 25.417 4.68066 25.2049 4.68066H15.1026C14.8905 4.68066 14.7211 4.85011 14.7211 5.06433V25.2717C14.7211 25.4763 14.8905 25.6554 15.1026 25.6554ZM17.3822 16.8856C17.0351 16.8856 16.7796 16.6301 16.7796 16.2734V14.2268C16.7796 13.8701 17.0351 13.6242 17.3822 13.6242C17.7368 13.6242 17.9826 13.8701 17.9826 14.2268V16.2734C17.9826 16.6301 17.7368 16.8856 17.3822 16.8856Z" fill="black"/>
</svg>
