<svg width="28" height="29" viewBox="0 0 28 29" fill="none" xmlns="http://www.w3.org/2000/svg">
<path d="M3.84421 27.5838H23.9109C26.4499 27.5838 27.7552 26.2807 27.7552 23.778V17.4337C27.7552 16.2555 27.6314 15.6905 27.0724 14.9498L23.3344 10.0078C21.9101 8.10496 21.2674 7.72058 19.1435 7.72058H17.1316V9.64713H19.2377C20.0362 9.64713 20.5671 9.80041 21.1516 10.5778L25.0228 15.7751C25.425 16.3073 25.2811 16.5354 24.6809 16.5354H17.6655C16.9798 16.5354 16.6772 17.0161 16.6772 17.5212V17.568C16.6772 18.9483 15.607 20.4178 13.8776 20.4178C12.1577 20.4178 11.0876 18.9483 11.0876 17.568V17.5212C11.0876 17.0161 10.7754 16.5354 10.0896 16.5354H3.0935C2.46444 16.5354 2.35897 16.2668 2.74194 15.7751L6.58218 10.6066C7.18804 9.81002 7.7189 9.64713 8.51742 9.64713H10.6331V7.72058H8.61164C6.48774 7.72058 5.8643 8.10496 4.40907 10.0366L0.682734 14.9498C0.13336 15.6905 0 16.2555 0 17.4337V23.778C0 26.2807 1.31484 27.5838 3.84421 27.5838Z" fill="black"/>
<path d="M13.8777 17.0034C14.4723 17.0034 14.967 16.5099 14.967 15.9375V4.59843L14.8702 2.86288L15.6017 3.71272L17.2426 5.47195C17.4299 5.68054 17.7013 5.79116 17.9736 5.79116C18.5026 5.79116 18.9355 5.39741 18.9355 4.85906C18.9355 4.56961 18.8291 4.36101 18.6343 4.16414L14.6987 0.373357C14.42 0.0989056 14.1681 0 13.8777 0C13.5969 0 13.3353 0.0989056 13.0567 0.373357L9.12099 4.16414C8.92412 4.36101 8.81982 4.56961 8.81982 4.85906C8.81982 5.39741 9.2431 5.79116 9.76997 5.79116C10.0445 5.79116 10.3159 5.68054 10.5128 5.47195L12.1536 3.71272L12.8851 2.85327L12.7979 4.59843V15.9375C12.7979 16.5099 13.2831 17.0034 13.8777 17.0034Z" fill="black"/>
</svg>
