<svg width="28" height="30" viewBox="0 0 28 30" fill="none" xmlns="http://www.w3.org/2000/svg">
<path d="M7.79761 7.45006H16.941C18.236 7.45006 19.476 8.26732 19.476 10.0723V23.7991H22.5705C25.0731 23.7991 26.3763 22.4747 26.3763 19.9549V3.84421C26.3763 1.32234 25.0731 0 22.5705 0H11.6034C9.10073 0 7.79761 1.31273 7.79761 3.84421V7.45006ZM13.5208 3.45046V3.19171C13.5208 2.83054 13.7699 2.44758 14.313 2.44758H19.863C20.3964 2.44758 20.6552 2.83054 20.6552 3.19171V3.45046C20.6552 3.83156 20.3732 4.1946 19.863 4.1946H14.313C13.791 4.1946 13.5208 3.83156 13.5208 3.45046Z" fill="black"/>
<path d="M2 25.965C2 28.4965 3.29562 29.8092 5.80577 29.8092H16.775C19.2851 29.8092 20.5808 28.4848 20.5808 25.965V9.85428C20.5808 7.3228 19.2851 6.01007 16.775 6.01007H5.80577C3.29562 6.01007 2 7.31319 2 9.85428V25.965ZM4.29592 25.8223V9.9874C4.29592 8.9074 4.85795 8.30599 5.98905 8.30599H16.5821C17.7111 8.30599 18.2827 8.9074 18.2827 9.9874V25.8223C18.2827 26.9119 17.7111 27.5133 16.5821 27.5133H5.98905C4.85795 27.5133 4.29592 26.9119 4.29592 25.8223ZM11.2904 22.958C11.7851 22.958 12.1447 22.6132 12.1447 22.1344V17.3238L12.0659 15.2925L12.9854 16.4301L14.0546 17.5427C14.1962 17.7023 14.3973 17.7949 14.6314 17.7949C15.0901 17.7949 15.4318 17.4649 15.4318 17.0189C15.4318 16.788 15.3455 16.6038 15.1934 16.4454L11.9701 13.181C11.7732 12.9682 11.5594 12.8543 11.2904 12.8543C11.033 12.8543 10.8385 12.9586 10.6224 13.181L7.38945 16.4454C7.23734 16.6038 7.1607 16.788 7.1607 17.0189C7.1607 17.4649 7.49281 17.7949 7.95148 17.7949C8.18351 17.7949 8.38671 17.6885 8.52616 17.5427L9.60288 16.4386L10.5266 15.3021L10.4382 17.3238V22.1344C10.4382 22.6132 10.7977 22.958 11.2904 22.958Z" fill="black"/>
</svg>
