<svg width="29" height="30" viewBox="0 0 29 30" fill="none" xmlns="http://www.w3.org/2000/svg">
<path d="M8.38519 27.4294C10.8878 29.7729 15.2964 29.8393 17.625 27.357C19.5914 25.2631 19.5372 22.6212 17.5329 20.7338C15.7214 19.0414 13.0952 18.9959 11.6547 20.5801C10.0823 22.2624 11.1386 23.8955 10.2044 24.8794C9.39418 25.7415 8.5659 25.4419 8.08449 25.9559C7.70035 26.3694 7.80558 26.9131 8.38519 27.4294ZM17.8211 18.98C18.835 19.684 19.6692 20.6834 20.0214 21.6099C20.8722 21.2923 21.5236 20.7486 22.0896 19.9606C22.195 19.8167 22.3059 19.6611 22.3996 19.5076C21.4246 16.7722 18.6077 14.8402 15.7329 14.8948C15.6145 15.0408 15.4961 15.2061 15.3916 15.3692C14.8563 16.1783 14.5832 17.0108 14.5907 17.8721C15.5629 17.8646 16.8093 18.2801 17.8211 18.98ZM24.4249 4.96227C23.6939 5.63445 19.8968 9.3193 16.807 13.4394C19.5893 13.8111 22.0211 15.4794 23.3545 17.9776C26.0953 13.475 27.6522 8.59999 28.0202 7.61703C29.0121 4.93227 26.3226 3.2804 24.4249 4.96227Z" fill="black"/>
<path d="M2.13476 14.4073C3.26397 18.6706 5.94968 21.1046 9.54405 21.3151C9.79882 20.6246 10.1687 19.8659 10.7914 19.2713C11.3769 18.4913 12.1358 17.9154 12.9926 17.5747C13.078 16.7501 13.2774 15.949 13.5587 15.2717C13.0398 15.6926 12.3694 16.0315 11.6033 16.2383C9.57077 16.7623 7.5378 16.1394 6.42967 14.394C6.16014 13.9667 6.44678 13.58 6.97084 13.6503C8.41319 13.8092 9.89186 13.4893 10.8415 13.2167C11.7516 12.9612 13.175 12.5023 14.2944 11.7017C14.7535 11.364 15.1787 11.5557 15.1669 12.0629C15.1552 12.4278 15.1147 12.7543 15.0261 13.0444C16.009 11.769 17.3513 10.1082 18.7362 8.53155L17.112 2.50272C16.5444 0.420765 15.0962 -0.38853 12.9673 0.173735L2.56413 2.94475C0.438583 3.50702 -0.389931 4.92756 0.170224 7.04467L2.13476 14.4073ZM6.37178 9.71701C5.61006 9.93006 5.48537 10.4255 5.16147 10.531C4.93975 10.5833 4.70959 10.3808 4.59662 9.96943C4.33131 9.04131 4.90881 8.06748 5.88803 7.80967C6.8192 7.53263 7.83358 8.09303 8.07334 9.05842C8.17881 9.45592 8.08506 9.73084 7.8399 9.79693C7.5235 9.87896 7.14733 9.52529 6.37178 9.71701ZM12.7294 7.99951C11.9539 8.19334 11.8388 8.71225 11.5095 8.79967C11.2836 8.86037 11.0534 8.66748 10.9426 8.26365C10.6719 7.3217 11.2644 6.34998 12.2298 6.09849C13.1865 5.84279 14.1753 6.38724 14.4151 7.34092C14.528 7.72553 14.431 8.01545 14.1912 8.07615C13.8812 8.15185 13.505 7.78107 12.7294 7.99951Z" fill="black"/>
</svg>
