<svg width="28" height="28" viewBox="0 0 28 28" fill="none" xmlns="http://www.w3.org/2000/svg">
<path d="M2.1789 22.2744C1.53577 24.8596 2.64928 26.3734 5.15451 26.3734H22.4258C24.929 26.3734 26.0425 24.8596 25.4015 22.2744L22.8243 11.8307C22.3633 9.98147 21.0409 8.93687 19.143 8.93687H8.4374C6.53944 8.93687 5.20749 9.98147 4.75608 11.8307L2.1789 22.2744ZM4.41622 22.4275L6.91888 12.5544C7.14505 11.6605 7.66443 11.2328 8.53584 11.2328H19.0445C19.9159 11.2328 20.4332 11.6605 20.6615 12.5544L23.1641 22.4275C23.4468 23.508 23.0244 24.0775 22.0848 24.0775H5.48381C4.55591 24.0775 4.13146 23.508 4.41622 22.4275ZM12.6374 10.6602H14.9333V6.91328H12.6374V10.6602ZM13.7891 8.05092C15.7089 8.05092 17.3242 6.45483 17.3242 4.53718C17.3242 2.60781 15.7068 1 13.7891 1C11.8619 1 10.2562 2.60781 10.2562 4.53718C10.2562 6.46444 11.8715 8.05092 13.7891 8.05092ZM13.7891 6.12882C12.9266 6.12882 12.1879 5.39968 12.1879 4.53718C12.1879 3.67257 12.917 2.92421 13.7891 2.92421C14.6558 2.92421 15.3925 3.67257 15.3925 4.53718C15.3925 5.4039 14.6655 6.12882 13.7891 6.12882Z" fill="black"/>
</svg>
