<svg width="28" height="28" viewBox="0 0 28 28" fill="none" xmlns="http://www.w3.org/2000/svg">
<path d="M2.08633 9.62526C1.82876 10.3502 2.1768 10.9853 2.74281 11.1906C3.19586 11.3566 3.61609 11.185 4.0853 10.901C5.05468 10.2149 5.98351 9.92032 7.07992 10.3171C8.17423 10.7106 8.64321 11.5328 8.89212 12.7319C8.9929 13.1863 9.17149 13.5292 9.56735 13.675C9.97188 13.8262 10.3347 13.6748 10.7059 13.4031C11.3078 12.8962 12.1157 12.6358 12.8852 12.67L7.8836 26.3756C7.66235 26.9744 7.97828 27.6478 8.58461 27.869C9.17171 28.0806 9.85679 27.7668 10.078 27.168L15.07 13.4582C15.673 13.9331 16.1106 14.6524 16.2461 15.4293C16.3661 15.8582 16.5372 16.217 16.9363 16.3565C17.3376 16.5023 17.6962 16.3392 18.0695 16.075C19.0359 15.3159 19.9101 14.9873 21.0044 15.3787C22.0987 15.7872 22.6295 16.6063 22.9237 17.7712C23.1166 18.2854 23.3132 18.6845 23.7684 18.843C24.3365 19.0483 25.0314 18.7867 25.2773 18.0618C26.8605 13.7224 25.7854 6.40799 18.7898 3.22119L19.3717 1.63424C19.6068 0.963931 19.3293 0.335341 18.6824 0.0948732C18.0548 -0.135984 17.4241 0.173623 17.1815 0.836432L16.6091 2.43089C9.20501 0.367447 3.66954 5.26237 2.08633 9.62526ZM5.26303 8.20893C7.18772 5.40556 10.6783 3.64493 14.5551 4.22267C12.7928 5.429 11.0988 7.47158 9.97422 10.0964C9.50969 9.2594 8.77328 8.66784 7.80976 8.32682C6.95124 8.01862 6.11405 7.97081 5.26303 8.20893ZM11.5673 10.7667C12.8863 7.72588 15.0541 5.57783 16.9792 4.77228C17.9559 6.63322 18.2369 9.66463 17.2891 12.8629C16.7287 11.9388 15.809 11.1874 14.7869 10.8058C13.7648 10.4339 12.5807 10.4275 11.5673 10.7667ZM18.9341 13.3589C19.768 10.6223 19.7861 7.98157 19.2154 5.91907C22.5426 7.97407 24.0829 11.5652 23.7473 14.9383C23.2537 14.2171 22.5745 13.7083 21.7373 13.3905C20.7737 13.0441 19.8252 13.0164 18.9341 13.3589Z" fill="black"/>
</svg>
