<svg width="28" height="28" viewBox="0 0 28 28" fill="none" xmlns="http://www.w3.org/2000/svg">
<path d="M14.105 26.21C20.7369 26.21 26.2121 20.7273 26.2121 14.105C26.2121 7.47312 20.7273 2 14.0954 2C7.47523 2 2 7.47312 2 14.105C2 20.7273 7.48484 26.21 14.105 26.21ZM14.105 23.8255C8.71085 23.8255 4.39412 19.4991 4.39412 14.105C4.39412 8.71085 8.70124 4.38452 14.0954 4.38452C19.4895 4.38452 23.8276 8.71085 23.8276 14.105C23.8276 19.4991 19.4991 23.8255 14.105 23.8255Z" fill="black"/>
<path d="M11.0433 20.8392H17.1687C17.9462 20.8392 18.4201 20.3845 18.4201 19.5782V19.4364C18.4201 17.6561 16.5512 15.7881 15.5905 14.8274C15.0896 14.3362 15.1184 13.8079 15.5905 13.3572C16.5512 12.4061 18.4201 10.5402 18.4201 8.74608V8.62772C18.4201 7.80976 17.9462 7.35718 17.1687 7.35718H11.0433C10.2659 7.35718 9.79199 7.80976 9.79199 8.62772V8.74608C9.79199 10.5402 11.6609 12.4061 12.6216 13.3572C13.0916 13.8079 13.1225 14.3362 12.6216 14.8274C11.6609 15.7881 9.79199 17.6561 9.79199 19.4364V19.5782C9.79199 20.3845 10.2659 20.8392 11.0433 20.8392ZM11.6471 19.7343C11.3126 19.7343 11.2393 19.3488 11.4607 19.1411L13.5587 16.9921C13.6618 16.8848 13.6991 16.8496 13.6991 16.6881V13.5956C13.6991 13.2506 13.6224 13.0717 13.3775 12.8364C12.8998 12.3651 12.3776 11.8504 11.948 11.3856C11.7329 11.1758 11.8458 10.9258 12.1076 10.9258H16.112C16.3759 10.9258 16.4792 11.1758 16.2716 11.3856C15.8344 11.8504 15.3102 12.3651 14.8346 12.8364C14.5897 13.0717 14.513 13.2506 14.513 13.5956V16.6881C14.513 16.8496 14.5503 16.8848 14.6534 16.9921L16.7513 19.1411C16.9728 19.3488 16.8995 19.7343 16.565 19.7343H11.6471Z" fill="black"/>
</svg>
