<svg width="28" height="28" viewBox="0 0 28 28" fill="none" xmlns="http://www.w3.org/2000/svg">
<path d="M6.84421 24.8972H21.0295C23.5685 24.8972 24.8737 23.5919 24.8737 21.0914V6.82921C24.8737 4.32656 23.5685 3.02344 21.0295 3.02344H6.84421C4.31484 3.02344 3 4.31695 3 6.82921V21.0914C3 23.6016 4.31484 24.8972 6.84421 24.8972Z" fill="black"/>
<path d="M16.1717 19.658C15.8363 19.658 15.568 19.542 15.2506 19.2288L12.5809 16.6922C12.5457 16.6612 12.4646 16.642 12.4145 16.642H10.6103C9.67628 16.642 9.17261 16.1341 9.17261 15.1491V12.7694C9.17261 11.7844 9.67628 11.2786 10.6103 11.2786H12.4145C12.4646 11.2786 12.5478 11.2573 12.583 11.2242L15.2506 8.7014C15.6106 8.37444 15.8331 8.24132 16.1621 8.24132C16.6316 8.24132 16.9679 8.62241 16.9679 9.08014V18.8576C16.9679 19.327 16.6316 19.658 16.1717 19.658Z" fill="white"/>
</svg>
