<svg width="28" height="28" viewBox="0 0 28 28" fill="none" xmlns="http://www.w3.org/2000/svg">
<path d="M14.105 26.2301C20.7369 26.2301 26.2121 20.7549 26.2121 14.123C26.2121 7.50291 20.7273 2.01807 14.0954 2.01807C7.47523 2.01807 2 7.50291 2 14.123C2 20.7549 7.48484 26.2301 14.105 26.2301Z" fill="black"/>
<path d="M9.75037 20.0469C8.38256 20.0469 7.67334 19.3515 7.67334 17.9912V10.2549C7.67334 8.90633 8.38256 8.19922 9.75037 8.19922H18.4619C19.8297 8.19922 20.5389 8.90633 20.5389 10.2549V17.9912C20.5389 19.3515 19.8297 20.0469 18.4619 20.0469H9.75037ZM9.72834 18.7712H18.4743C18.9989 18.7712 19.259 18.5227 19.259 17.9844V12.1034C19.259 11.5459 18.9604 11.2728 18.4359 11.2728H9.77639C9.24014 11.2728 8.95326 11.5459 8.95326 12.1034V17.9844C8.95326 18.5227 9.22092 18.7712 9.72834 18.7712ZM12.8465 13.5784C12.5652 13.5784 12.4853 13.4942 12.4853 13.2364V12.7782C12.4853 12.5087 12.5652 12.4191 12.8465 12.4191H13.2855C13.5604 12.4191 13.6542 12.5087 13.6542 12.7782V13.2364C13.6542 13.4942 13.5604 13.5784 13.2855 13.5784H12.8465ZM14.9268 13.5784C14.6519 13.5784 14.5678 13.4942 14.5678 13.2364V12.7782C14.5678 12.5087 14.6519 12.4191 14.9268 12.4191H15.3658C15.647 12.4191 15.7249 12.5087 15.7249 12.7782V13.2364C15.7249 13.4942 15.647 13.5784 15.3658 13.5784H14.9268ZM17.0113 13.5784C16.7205 13.5784 16.6385 13.4942 16.6385 13.2364V12.7782C16.6385 12.5087 16.7205 12.4191 17.0113 12.4191H17.4365C17.7135 12.4191 17.8073 12.5087 17.8073 12.7782V13.2364C17.8073 13.4942 17.7135 13.5784 17.4365 13.5784H17.0113ZM10.7736 15.6139C10.4966 15.6139 10.405 15.5394 10.405 15.2741V14.8276C10.405 14.5484 10.4966 14.4664 10.7736 14.4664H11.2105C11.4897 14.4664 11.5738 14.5484 11.5738 14.8276V15.2741C11.5738 15.5394 11.4897 15.6139 11.2105 15.6139H10.7736ZM12.8465 15.6139C12.5652 15.6139 12.4853 15.5394 12.4853 15.2741V14.8276C12.4853 14.5484 12.5652 14.4664 12.8465 14.4664H13.2855C13.5604 14.4664 13.6542 14.5484 13.6542 14.8276V15.2741C13.6542 15.5394 13.5604 15.6139 13.2855 15.6139H12.8465ZM14.9268 15.6139C14.6519 15.6139 14.5678 15.5394 14.5678 15.2741V14.8276C14.5678 14.5484 14.6519 14.4664 14.9268 14.4664H15.3658C15.647 14.4664 15.7249 14.5484 15.7249 14.8276V15.2741C15.7249 15.5394 15.647 15.6139 15.3658 15.6139H14.9268ZM17.0113 15.6139C16.7205 15.6139 16.6385 15.5394 16.6385 15.2741V14.8276C16.6385 14.5484 16.7205 14.4664 17.0113 14.4664H17.4365C17.7135 14.4664 17.8073 14.5484 17.8073 14.8276V15.2741C17.8073 15.5394 17.7135 15.6139 17.4365 15.6139H17.0113ZM10.7736 17.6633C10.4966 17.6633 10.405 17.5791 10.405 17.3021V16.8514C10.405 16.5882 10.4966 16.5095 10.7736 16.5095H11.2105C11.4897 16.5095 11.5738 16.5882 11.5738 16.8514V17.3021C11.5738 17.5791 11.4897 17.6633 11.2105 17.6633H10.7736ZM12.8465 17.6633C12.5652 17.6633 12.4853 17.5791 12.4853 17.3021V16.8514C12.4853 16.5882 12.5652 16.5095 12.8465 16.5095H13.2855C13.5604 16.5095 13.6542 16.5882 13.6542 16.8514V17.3021C13.6542 17.5791 13.5604 17.6633 13.2855 17.6633H12.8465ZM14.9268 17.6633C14.6519 17.6633 14.5678 17.5791 14.5678 17.3021V16.8514C14.5678 16.5882 14.6519 16.5095 14.9268 16.5095H15.3658C15.647 16.5095 15.7249 16.5882 15.7249 16.8514V17.3021C15.7249 17.5791 15.647 17.6633 15.3658 17.6633H14.9268Z" fill="white"/>
</svg>
