<svg width="28" height="28" viewBox="0 0 28 28" fill="none" xmlns="http://www.w3.org/2000/svg">
<path d="M22.2114 18.6682L22.7772 6.66631H24.0738C24.6513 6.66631 25.1013 6.20764 25.1013 5.63015C25.1013 5.05687 24.6513 4.60781 24.0738 4.60781H18.8533V2.87742C18.8533 1.095 17.6807 0 15.741 0H11.3413C9.39951 0 8.23654 1.095 8.23654 2.87742V4.30687H7.86177L10.2212 6.66631H20.6111L20.1496 16.6043L22.2114 18.6682ZM10.409 4.60781V2.98617C10.409 2.37937 10.843 1.96124 11.5051 1.96124H15.5847C16.2468 1.96124 16.6905 2.37937 16.6905 2.98617V4.60781H10.409ZM8.1688 26.4436H18.9402C20.2005 26.4436 21.1059 25.8827 21.5753 24.9703L21.5849 24.7589L19.8283 22.998L19.8187 23.3151C19.788 23.9147 19.323 24.3703 18.6895 24.3703H8.40036C7.75349 24.3703 7.28755 23.8917 7.2545 23.2003L6.60645 9.76873L4.37451 7.53679L5.12568 23.5589C5.21193 25.3549 6.35568 26.4436 8.1688 26.4436ZM14.3779 10.823V9.42397C14.3779 8.96741 14.0362 8.65663 13.5508 8.65663C13.3335 8.65663 13.1088 8.73444 12.9639 8.89007V9.40898L14.3779 10.823ZM18.0236 14.4687L18.1717 9.42819C18.1834 8.96952 17.8577 8.65663 17.3681 8.65663C16.9073 8.65663 16.5731 8.95991 16.5613 9.42608L16.4622 12.9073L18.0236 14.4687ZM10.0989 22.4761C10.5927 22.4761 10.911 22.1632 10.8993 21.7024L10.6658 13.8452L9.02146 12.1912L9.28888 21.7087C9.3006 22.1749 9.62521 22.4761 10.0989 22.4761ZM13.5508 22.4761C14.0362 22.4761 14.3779 22.1674 14.3779 21.7109V17.5476L12.7312 15.9126V21.7109C12.7312 22.177 13.0633 22.4761 13.5508 22.4761ZM17.0123 22.4761C17.4173 22.4761 17.706 22.234 17.7515 21.8501L17.7803 20.9597L16.2738 19.4531L16.2098 21.7024C16.1981 22.1632 16.5185 22.4761 17.0123 22.4761Z" fill="black"/>
<path d="M23.5133 24.6419C23.8754 25.0062 24.4707 25.0062 24.8307 24.6419C25.1832 24.2702 25.1949 23.6866 24.8307 23.3245L3.59562 2.07773C3.2314 1.71351 2.62859 1.71351 2.26437 2.07773C1.91188 2.42812 1.91188 3.04476 2.26437 3.39726L23.5133 24.6419Z" fill="black"/>
</svg>
