<svg width="28" height="28" viewBox="0 0 28 28" fill="none" xmlns="http://www.w3.org/2000/svg">
<path d="M0 21.3508C0 23.8514 1.31484 25.147 3.84421 25.147H23.9585C26.4783 25.147 27.8027 23.8418 27.8027 21.3508V17.3194C27.8027 16.489 27.5325 15.5754 26.8966 14.8905L22.4869 10.1995C21.3614 9.00914 20.501 8.37515 18.9211 8.37515H8.67374C7.28789 8.37515 6.43922 9.01336 5.31586 10.1995L0.906092 14.8905C0.270233 15.5754 0 16.489 0 17.3194V21.3508ZM2.26639 21.1483V18.9433H25.5363V21.1483C25.5363 22.2869 24.9253 22.849 23.8453 22.849H3.9478C2.85819 22.849 2.26639 22.2869 2.26639 21.1483ZM2.87483 16.0256L7.05468 11.3569C7.65023 10.7006 8.05218 10.3711 8.69414 10.3711H19.099C19.7409 10.3711 20.1525 10.691 20.748 11.3569L24.9279 16.0256C25.2021 16.3404 25.0538 16.7951 24.5395 16.7951H3.26319C2.75108 16.7951 2.60061 16.3404 2.87483 16.0256ZM1.76625 4.93733L5.46492 8.66483C6.55547 9.7746 7.12617 10.1241 8.4757 10.1241H19.2405C20.6691 10.1241 21.2473 9.7746 22.3378 8.66483L26.0365 4.93733C26.7248 4.24898 26.3496 3 25.2075 3H2.59523C1.45312 3 1.08 4.24898 1.76625 4.93733ZM4.45006 5.00507H23.3527L20.4094 7.94953C20.1129 8.2514 19.8227 8.37515 19.3184 8.37515H8.48437C7.97038 8.37515 7.68984 8.2514 7.39546 7.94953L4.45006 5.00507ZM6.93187 15.2257C7.03616 15.5238 7.36522 15.6612 7.67296 15.5473L12.8885 13.6418C13.208 13.5321 13.3612 13.2319 13.2473 12.9166C13.1355 12.6068 12.8278 12.4694 12.5062 12.5908L7.29069 14.4963C6.97124 14.6102 6.82007 14.9062 6.93187 15.2257ZM7.07601 13.1107C7.18991 13.428 7.50515 13.5516 7.81499 13.4419L11.4033 12.1427C11.7131 12.0309 11.8835 11.719 11.7621 11.4134C11.6524 11.0939 11.333 10.9779 11.0327 11.0897L7.43273 12.3909C7.11327 12.5027 6.96421 12.8105 7.07601 13.1107ZM18.7598 20.8962C18.762 21.2742 19.0655 21.5372 19.436 21.5372H22.6083C22.9884 21.5372 23.277 21.2742 23.2727 20.8962C23.2706 20.5181 22.9905 20.2455 22.6083 20.2455H19.436C19.0441 20.2455 18.7577 20.5181 18.7598 20.8962Z" fill="black"/>
</svg>
