<svg width="28" height="28" viewBox="0 0 28 28" fill="none" xmlns="http://www.w3.org/2000/svg">
<path d="M2.12781 3.2535H11.4946C12.1117 3.2535 12.632 2.73319 12.632 2.11609C12.632 1.49898 12.1138 1 11.4946 1H2.12781C1.46382 1 1 1.49265 1 2.11609C1 2.73741 1.46804 3.2535 2.12781 3.2535ZM6.8235 26.0929C9.66412 26.0929 11.5033 24.2643 11.5033 21.4384V2.02023H9.34772V21.4384C9.34772 22.9558 8.3439 23.9533 6.8235 23.9533C5.28178 23.9533 4.27796 22.9558 4.27796 21.4384V2.02023H2.10859V21.4384C2.10859 24.2643 3.95945 26.0929 6.8235 26.0929ZM9.92265 6.27765H3.70304V21.4384C3.70304 23.2698 4.96983 24.5261 6.8235 24.5261C8.65585 24.5261 9.92265 23.2698 9.92265 21.4384V6.27765ZM4.27796 10.1812V8.73624H6.70913C7.10944 8.73624 7.44811 9.05569 7.44811 9.44007C7.44811 9.8596 7.12866 10.1812 6.71874 10.1812H4.27796ZM4.27796 13.9823V12.5331H6.71874C7.11905 12.5331 7.44811 12.8622 7.44811 13.2487C7.44811 13.6703 7.12866 13.9823 6.71874 13.9823H4.27796ZM4.27796 17.7908V16.3438H6.70913C7.10944 16.3438 7.43851 16.675 7.43851 17.0657C7.44811 17.481 7.14038 17.7908 6.70913 17.7908H4.27796ZM15.6634 3.2535H25.0302C25.6473 3.2535 26.158 2.73319 26.158 2.11609C26.158 1.49898 25.6494 1 25.0302 1H15.6634C14.9994 1 14.526 1.49265 14.526 2.11609C14.526 2.73741 15.0036 3.2535 15.6634 3.2535ZM20.3495 26.0929C23.1901 26.0929 25.0389 24.2643 25.0389 21.4384V2.02023H22.8833V21.4384C22.8833 22.9558 21.8795 23.9533 20.3495 23.9533C18.8078 23.9533 17.8039 22.9558 17.8039 21.4384V2.02023H15.6346V21.4384C15.6346 24.2643 17.495 26.0929 20.3495 26.0929ZM23.4486 20.1023H17.2386V21.4384C17.2386 23.2698 18.4958 24.5261 20.3495 24.5261C22.1914 24.5261 23.4486 23.2698 23.4486 21.4384V20.1023ZM17.2928 10.1812H20.2543C20.6643 10.1812 20.9741 9.8596 20.9741 9.44007C20.9741 9.05569 20.645 8.73624 20.2447 8.73624H17.2928V10.1812ZM17.2928 13.9823H20.2543C20.6643 13.9823 20.9741 13.6703 20.9741 13.2487C20.9741 12.8622 20.6547 12.5331 20.2543 12.5331H17.2928V13.9823ZM17.2928 17.7908H20.2447C20.676 17.7908 20.9741 17.481 20.9645 17.0657C20.9645 16.675 20.645 16.3438 20.2447 16.3438H17.2928V17.7908Z" fill="black"/>
</svg>
