<svg width="28" height="28" viewBox="0 0 28 28" fill="none" xmlns="http://www.w3.org/2000/svg">
<path d="M5.7482 6.35874H7.88733V4.47601C7.88733 3.58866 8.34694 3.15038 9.22046 3.15038H19.5602C20.4433 3.15038 20.8933 3.58866 20.8933 4.47601V6.33952H23.0324V4.63866C23.0324 2.25859 21.8493 1.17578 19.5578 1.17578H9.2228C7.02953 1.17578 5.7482 2.25859 5.7482 4.63866V6.35874ZM4.6778 23.3109H7.10147V21.2355H4.67546C3.70421 21.2355 3.20639 20.7302 3.20639 19.7664V8.81475C3.20639 7.851 3.70421 7.34146 4.67546 7.34146H24.1148C25.0764 7.34146 25.5838 7.851 25.5838 8.81475V19.7664C25.5838 20.7302 25.0764 21.2355 24.1148 21.2355H21.8559V23.3109H24.1124C26.4934 23.3109 27.7806 22.0717 27.7806 19.6811V8.89795C27.7806 6.51694 26.4934 5.26819 24.1124 5.26819H4.6778C2.38539 5.26819 1 6.51694 1 8.89795V19.6811C1 22.0717 2.28718 23.3109 4.6778 23.3109ZM8.36592 26.9073H20.4147C22.0759 26.9073 22.8955 26.1454 22.8955 24.4244V19.6152C22.8955 17.9059 22.0759 17.1344 20.4147 17.1344H8.36592C6.76444 17.1344 5.88507 17.9059 5.88507 19.6152V24.4244C5.88507 26.1454 6.70468 26.9073 8.36592 26.9073ZM8.85905 24.8847C8.29913 24.8847 8.00803 24.6053 8.00803 24.0337V19.9984C8.00803 19.4364 8.29913 19.1591 8.85905 19.1591H19.9312C20.5007 19.1591 20.7726 19.4364 20.7726 19.9984V24.0337C20.7726 24.6053 20.5007 24.8847 19.9312 24.8847H8.85905ZM9.64655 22.0033C9.64655 22.5452 10.067 22.9752 10.611 22.9752H18.1834C18.7136 22.9752 19.1341 22.5452 19.1341 22.0033C19.1341 21.4827 18.7136 21.0527 18.1834 21.0527H10.611C10.067 21.0527 9.64655 21.4827 9.64655 22.0033ZM8.19366 11.3898H9.2739C9.61679 11.3898 9.82444 11.1822 9.82444 10.8393V9.76655C9.82444 9.42366 9.61679 9.216 9.2739 9.216H8.19366C7.86038 9.216 7.65483 9.42366 7.65483 9.76655V10.8393C7.65483 11.1822 7.86038 11.3898 8.19366 11.3898ZM11.9711 11.3898H13.0438C13.3867 11.3898 13.5923 11.1822 13.5923 10.8393V9.76655C13.5923 9.42366 13.3867 9.216 13.0438 9.216H11.9711C11.6282 9.216 11.4226 9.42366 11.4226 9.76655V10.8393C11.4226 11.1822 11.6282 11.3898 11.9711 11.3898ZM15.741 11.3898H16.8212C17.1545 11.3898 17.3601 11.1822 17.3601 10.8393V9.76655C17.3601 9.42366 17.1545 9.216 16.8212 9.216H15.741C15.396 9.216 15.1905 9.42366 15.1905 9.76655V10.8393C15.1905 11.1822 15.396 11.3898 15.741 11.3898ZM19.5088 11.3898H20.5891C20.932 11.3898 21.1396 11.1822 21.1396 10.8393V9.76655C21.1396 9.42366 20.932 9.216 20.5891 9.216H19.5088C19.1755 9.216 18.97 9.42366 18.97 9.76655V10.8393C18.97 11.1822 19.1755 11.3898 19.5088 11.3898ZM8.19366 15.2694H9.2739C9.61679 15.2694 9.82444 15.0618 9.82444 14.7189V13.6366C9.82444 13.2937 9.61679 13.086 9.2739 13.086H8.19366C7.86038 13.086 7.65483 13.2937 7.65483 13.6366V14.7189C7.65483 15.0618 7.86038 15.2694 8.19366 15.2694ZM11.9711 15.2694H13.0438C13.3867 15.2694 13.5923 15.0618 13.5923 14.7189V13.6366C13.5923 13.2937 13.3867 13.086 13.0438 13.086H11.9711C11.6282 13.086 11.4226 13.2937 11.4226 13.6366V14.7189C11.4226 15.0618 11.6282 15.2694 11.9711 15.2694ZM15.741 15.2694H16.8212C17.1545 15.2694 17.3601 15.0618 17.3601 14.7189V13.6366C17.3601 13.2937 17.1545 13.086 16.8212 13.086H15.741C15.396 13.086 15.1905 13.2937 15.1905 13.6366V14.7189C15.1905 15.0618 15.396 15.2694 15.741 15.2694ZM19.5088 15.2694H20.5891C20.932 15.2694 21.1396 15.0618 21.1396 14.7189V13.6366C21.1396 13.2937 20.932 13.086 20.5891 13.086H19.5088C19.1755 13.086 18.97 13.2937 18.97 13.6366V14.7189C18.97 15.0618 19.1755 15.2694 19.5088 15.2694Z" fill="black"/>
</svg>
