<svg width="28" height="28" viewBox="0 0 28 28" fill="none" xmlns="http://www.w3.org/2000/svg">
<path d="M7.80577 26.3772H20.2891C22.8013 26.3772 24.0948 25.0719 24.0948 22.5405V4.85804C24.0948 2.33617 22.7917 1.01172 20.2891 1.01172H12.6508C11.44 1.01172 10.6117 1.3307 9.85187 2.10648L5.00218 6.94656C4.28054 7.67781 4 8.42288 4 9.67374V22.5405C4 25.0623 5.29562 26.3772 7.80577 26.3772ZM11.5769 5.9657C11.5769 5.50468 11.9462 5.13742 12.4073 5.13742C12.8608 5.13742 13.2121 5.49296 13.2121 5.9657V9.69835C13.2121 10.1594 12.8587 10.5266 12.4073 10.5266C11.9462 10.5266 11.5769 10.1594 11.5769 9.69835V5.9657ZM14.0854 5.9657C14.0854 5.50468 14.4527 5.13742 14.9275 5.13742C15.3789 5.13742 15.7398 5.50468 15.7398 5.9657V9.69835C15.7398 10.1594 15.3672 10.5266 14.9275 10.5266C14.4623 10.5266 14.0854 10.1594 14.0854 9.69835V5.9657ZM16.6173 5.9657C16.6173 5.50468 16.9783 5.13742 17.4297 5.13742C17.8949 5.13742 18.2483 5.49296 18.2483 5.9657L18.258 9.69835C18.258 10.1498 17.8832 10.5266 17.4297 10.5266C16.9921 10.5266 16.6173 10.1594 16.6173 9.69835V5.9657ZM19.1451 5.9657C19.1451 5.50468 19.4985 5.13742 19.9595 5.13742C20.4151 5.13742 20.7686 5.49296 20.7686 5.9657V9.68664C20.7686 10.1594 20.413 10.5266 19.9595 10.5266C19.5081 10.5266 19.1451 10.1573 19.1451 9.68664V5.9657Z" fill="black"/>
</svg>
