<svg width="28" height="28" viewBox="0 0 28 28" fill="none" xmlns="http://www.w3.org/2000/svg">
<path d="M14.105 26.2301C20.7369 26.2301 26.2121 20.7549 26.2121 14.123C26.2121 7.50291 20.7273 2.01807 14.0954 2.01807C7.47523 2.01807 2 7.50291 2 14.123C2 20.7549 7.48484 26.2301 14.105 26.2301Z" fill="black"/>
<path d="M9.02656 19.032C7.74734 19.032 7.08289 18.3676 7.08289 17.1151V13.7923C7.08289 13.137 7.17875 12.8584 7.48508 12.4667L9.50704 9.79388C10.2343 8.82662 10.6393 8.57654 11.7066 8.57654H16.5247C17.592 8.57654 17.9874 8.82662 18.7222 9.79388L20.7462 12.4667C21.0526 12.8584 21.1484 13.137 21.1484 13.7923V17.1151C21.1484 18.3676 20.4936 19.032 19.2048 19.032H9.02656ZM8.8939 13.3496H12.2023C12.5272 13.3496 12.7009 13.5999 12.7009 13.8523V14.0026C12.7009 14.8241 13.2399 15.3366 14.1146 15.3366C14.9914 15.3366 15.5593 14.8241 15.5593 14.0026V13.8523C15.5593 13.5999 15.7041 13.3496 16.029 13.3496H19.3374C19.5418 13.3496 19.5866 13.1591 19.494 13.0409L17.409 10.2861C17.1873 9.98115 16.9463 9.84896 16.554 9.84896H11.6869C11.2946 9.84896 11.0537 9.97154 10.8223 10.2861L8.74695 13.0409C8.65437 13.1783 8.68953 13.3496 8.8939 13.3496Z" fill="white"/>
</svg>
