<svg width="28" height="28" viewBox="0 0 28 28" fill="none" xmlns="http://www.w3.org/2000/svg">
<path d="M2 8.46874H25.3915V4.68757C25.3915 3.08023 24.3368 2 22.7818 2H4.59804C3.05257 2 2 3.08023 2 4.68757V8.46874ZM7.12952 6.81991C6.42147 6.81991 5.83272 6.25671 5.83272 5.55405C5.83272 4.83968 6.42147 4.27437 7.12952 4.27437C7.82256 4.27437 8.41342 4.83968 8.41342 5.55405C8.41342 6.25671 7.82256 6.81991 7.12952 6.81991ZM11.502 6.81991C10.7919 6.81991 10.201 6.25671 10.201 5.55405C10.201 4.83968 10.7919 4.27437 11.502 4.27437C12.1951 4.27437 12.7817 4.83968 12.7817 5.55405C12.7817 6.25671 12.1951 6.81991 11.502 6.81991ZM15.8607 6.81991C15.158 6.81991 14.5693 6.25671 14.5693 5.55405C14.5693 4.83968 15.158 4.27437 15.8607 4.27437C16.5591 4.27437 17.15 4.83968 17.15 5.55405C17.15 6.25671 16.5591 6.81991 15.8607 6.81991ZM20.2311 6.81991C19.5401 6.81991 18.9493 6.25671 18.9493 5.55405C18.9493 4.83968 19.5401 4.27437 20.2311 4.27437C20.9412 4.27437 21.53 4.83968 21.53 5.55405C21.53 6.25671 20.9412 6.81991 20.2311 6.81991ZM4.59804 23.4219H22.7818C24.3368 23.4219 25.3915 22.3437 25.3915 20.7343V9.98467H2V20.7343C2 22.3437 3.05257 23.4219 4.59804 23.4219ZM6.42663 20.5008C5.74483 20.5008 5.29741 20.0555 5.29741 19.3716V13.2249C5.29741 12.5335 5.74483 12.0882 6.42663 12.0882H20.967C21.6488 12.0882 22.1058 12.5335 22.1058 13.2249V19.3716C22.1058 20.0555 21.6488 20.5008 20.967 20.5008H6.42663ZM7.05897 19.025H20.3443C20.502 19.025 20.6405 18.8886 20.6405 18.7233V13.8774C20.6405 13.7025 20.502 13.5661 20.3443 13.5661H7.05897C6.89162 13.5661 6.76482 13.7025 6.76482 13.8774V18.7233C6.76482 18.8886 6.89162 19.025 7.05897 19.025ZM5.67639 25.719C6.31272 25.719 6.74467 25.287 6.74467 24.6507V22.1804H4.5964V24.6507C4.5964 25.287 5.04007 25.719 5.67639 25.719ZM21.7151 25.719C22.3515 25.719 22.7834 25.287 22.7834 24.6507V22.1804H20.6351V24.6507C20.6351 25.287 21.0788 25.719 21.7151 25.719Z" fill="black"/>
</svg>
