<svg width="28" height="28" viewBox="0 0 28 28" fill="none" xmlns="http://www.w3.org/2000/svg">
<path d="M14.105 22.7286C18.8464 22.7286 22.7227 18.8928 22.7227 14.1205C22.7227 9.3674 18.8464 5.5124 14.105 5.5124C9.37107 5.5124 5.49685 9.3674 5.49685 14.1205C5.49685 18.8928 9.37107 22.7286 14.105 22.7286ZM14.105 20.5496C10.5786 20.5496 7.68004 17.6703 7.68004 14.1301C7.68004 10.5995 10.5786 7.7052 14.105 7.7052C17.6452 7.7052 20.5437 10.5995 20.5437 14.1301C20.5437 17.6703 17.6452 20.5496 14.105 20.5496ZM23.5034 24.0121C25.489 22.0328 22.0067 16.5906 16.5828 11.1688C11.161 5.74702 5.72091 2.26256 3.74162 4.24818C1.7656 6.22748 5.23834 11.6697 10.6601 17.0914C16.084 22.5132 21.5241 25.9881 23.5034 24.0121ZM22.0409 22.5496C21.1882 23.4022 16.4583 19.9679 12.1268 15.6268C7.78365 11.2954 4.34934 6.56544 5.20411 5.71068C6.04716 4.84841 10.7867 8.29232 15.1278 12.6238C19.4614 16.9649 22.9053 21.7044 22.0409 22.5496ZM20.7575 7.49685C21.7648 8.52013 23.4504 8.52013 24.4674 7.49685C25.4907 6.47779 25.4907 4.80388 24.4674 3.78693C23.4504 2.76365 21.7648 2.76365 20.7575 3.78693C19.7342 4.80388 19.7342 6.47779 20.7575 7.49685ZM20.7804 5.94061L5.5299 21.2125L7.04185 22.7244L22.3041 7.47388L20.7804 5.94061ZM3.77467 24.4796C4.78201 25.5104 6.46763 25.5104 7.47497 24.4796C8.50786 23.4702 8.50786 21.7867 7.47497 20.7772C6.46763 19.7464 4.78201 19.7464 3.77467 20.7772C2.74178 21.7867 2.74178 23.4702 3.77467 24.4796Z" fill="black"/>
</svg>
