<svg width="28" height="29" viewBox="0 0 28 29" fill="none" xmlns="http://www.w3.org/2000/svg">
<path d="M4.79907 17.816C4.79907 18.8775 5.51555 19.5801 6.62719 19.5801H12.8953V25.1161C12.8953 26.7698 13.7339 28.4269 14.0585 28.4269C14.3735 28.4269 15.21 26.7698 15.21 25.1161V19.7334H15.7577L13.6219 17.5997H7.16344C6.92765 17.5997 6.82523 17.4621 6.86578 17.1858C7.02117 15.9134 8.0932 14.5905 9.76008 13.7358L8.38407 12.3598C6.18188 13.6774 4.79907 15.7282 4.79907 17.816ZM6.28735 1.96242C6.28735 2.32969 6.43852 2.75554 6.75797 3.16664C7.35352 3.95086 8.74829 5.04609 10.2523 6.03984L10.1691 7.19813L12.1059 9.1371L12.3424 5.10305C12.3541 4.90735 12.318 4.81922 12.1713 4.74375C10.578 3.92156 9.34311 2.97117 9.16077 2.71781C9.06491 2.58023 9.14601 2.48015 9.27069 2.48015H18.8367C18.9614 2.48015 19.0404 2.58023 18.9445 2.71781C18.7622 2.97117 17.5294 3.92156 15.9361 4.74375C15.799 4.81922 15.7512 4.90735 15.7746 5.10305L16.1241 10.9809C15.4601 10.8509 14.7748 10.7869 14.0585 10.7869H13.7653L15.8644 12.9073C18.8637 13.248 21.1055 15.7446 21.1055 17.4909C21.1055 17.5432 21.1055 17.5955 21.1055 17.6498L22.582 19.2823C22.9919 19.0205 23.3062 18.5147 23.3062 17.816C23.3062 15.2991 21.3026 12.7987 18.2398 11.5844L17.8552 6.03984C19.3687 5.04609 20.7518 3.95086 21.3473 3.16664C21.6764 2.75554 21.8297 2.32969 21.8297 1.96242C21.8297 1.18852 21.2325 0.621094 20.3595 0.621094H7.75758C6.87493 0.621094 6.28735 1.18852 6.28735 1.96242Z" fill="black"/>
<path d="M2.2628 4.08969L23.6908 25.4942C24.0667 25.8584 24.6599 25.8521 25.0103 25.4942C25.3766 25.1279 25.3799 24.541 25.0103 24.1789L3.59404 2.77649C3.22772 2.41016 2.6228 2.40056 2.2628 2.77016C1.9103 3.12266 1.91451 3.7318 2.2628 4.08969Z" fill="black"/>
</svg>
