<svg width="28" height="28" viewBox="0 0 28 28" fill="none" xmlns="http://www.w3.org/2000/svg">
<path d="M6.84421 24.8972H21.0295C23.5685 24.8972 24.8737 23.5919 24.8737 21.0914V6.82921C24.8737 4.32656 23.5685 3.02344 21.0295 3.02344H6.84421C4.31484 3.02344 3 4.31695 3 6.82921V21.0914C3 23.6016 4.31484 24.8972 6.84421 24.8972Z" fill="black"/>
<path d="M19.2517 10.6186C18.1576 10.5973 17.2553 9.73546 17.2553 8.636C17.2553 7.55577 18.1576 6.68225 19.2517 6.68225C20.3223 6.68225 21.2054 7.55577 21.2054 8.636C21.2054 9.73968 20.3202 10.6441 19.2517 10.6186ZM8.64146 21.2405C7.55161 21.2405 6.6781 20.3573 6.6781 19.2612C6.6781 18.1734 7.55161 17.3041 8.64146 17.3041C9.71208 17.3041 10.6027 18.1755 10.6027 19.2612C10.6027 20.3552 9.71419 21.2405 8.64146 21.2405Z" fill="white"/>
</svg>
