<svg width="28" height="28" viewBox="0 0 28 28" fill="none" xmlns="http://www.w3.org/2000/svg">
<path d="M23.283 5.33L21.1856 3.23258C20.8696 2.91875 20.391 2.92836 20.0889 3.23258C19.7868 3.53258 19.7751 4.01328 20.0889 4.31749L22.1864 6.42452C22.5044 6.73296 22.9767 6.71913 23.283 6.42452C23.5872 6.10859 23.5989 5.63633 23.283 5.33ZM8.21457 17.1948L9.3091 18.2914L22.4034 5.20882L21.3089 4.11219L8.21457 17.1948ZM2.94301 23.5705C3.95785 24.5757 5.16511 24.8194 5.87831 24.0828L10.3682 19.5715C11.1255 18.8335 11.5003 18.1222 11.6196 17.3661L11.9796 15.1808L11.3273 14.5339L9.13988 14.8939C8.39551 15.0057 7.68418 15.3901 6.93652 16.1377L2.42317 20.6373C1.69825 21.3505 1.92606 22.5577 2.94301 23.5705ZM4.93753 5.33C4.6291 5.63633 4.64293 6.10859 4.93753 6.42452C5.25347 6.71913 5.72573 6.73296 6.03206 6.42452L8.12948 4.31749C8.44541 4.01328 8.43159 3.53258 8.12948 3.23258C7.82737 2.92836 7.35089 2.91664 7.03495 3.23258L4.93753 5.33ZM20.006 17.1948L6.91167 4.11219L5.81504 5.20882L18.9093 18.2914L20.006 17.1948ZM25.2754 23.5705C26.2945 22.5577 26.5244 21.3483 25.7953 20.6373L21.284 16.1377C20.5385 15.388 19.8346 15.0099 19.0785 14.8939L16.8932 14.5339L16.2485 15.1808L16.601 17.3661C16.7224 18.1222 17.0908 18.8356 17.8502 19.5715L22.3401 24.0828C23.0512 24.8215 24.2702 24.5757 25.2754 23.5705Z" fill="black"/>
</svg>
