<svg width="28" height="28" viewBox="0 0 28 28" fill="none" xmlns="http://www.w3.org/2000/svg">
<path d="M0 14.3476V12.344H5.04679V12.0899C5.08476 11.2675 5.58726 10.7945 6.43921 10.7945H9.30328C10.1606 10.7945 10.6652 11.2675 10.7032 12.0899V12.344H16.9898V12.0899C17.0278 11.2675 17.5303 10.7945 18.3919 10.7945H21.2559C22.1133 10.7945 22.62 11.2675 22.6558 12.0899V12.344H27.7026V14.3476H22.6558V14.6209C22.62 15.4433 22.1133 15.9067 21.2559 15.9067H18.3919C17.5303 15.9067 17.0278 15.4433 16.9898 14.6209V14.3476H10.7032V14.6209C10.6652 15.4433 10.1606 15.9067 9.30328 15.9067H6.43921C5.58726 15.9067 5.08476 15.4433 5.04679 14.6209V14.3476H0ZM3.78773 24.3058H23.917C26.4251 24.3058 27.7026 23.0378 27.7026 20.5565V9.08874C27.7026 6.59991 26.4251 5.34156 23.917 5.34156H3.78773C1.28718 5.34156 0 6.59991 0 9.08874V20.5565C0 23.0378 1.28718 24.3058 3.78773 24.3058ZM7.71211 6.29781H9.83436V4.27421C9.83436 3.4321 10.3237 2.96194 11.1851 2.96194H16.5176C17.3789 2.96194 17.8587 3.43421 17.8587 4.27421V6.27859H19.983V4.27445C19.983 2.05867 18.7849 1 16.5794 1H11.1094C9.0021 1 7.71211 2.05867 7.71211 4.27445V6.29781Z" fill="black"/>
</svg>
