<svg width="29" height="28" viewBox="0 0 29 28" fill="none" xmlns="http://www.w3.org/2000/svg">
<path d="M14.0801 4.91152C15.0304 4.91152 15.7776 4.06964 15.7776 2.99246C15.7776 1.92348 15.438 1.2145 14.8481 0.530829C14.4161 -0.0096361 13.8047 -0.0213549 13.3589 0.456298C12.7774 1.16129 12.3825 1.87778 12.3825 2.99246C12.3825 4.06964 13.1435 4.91152 14.0801 4.91152ZM13.2729 10.4658H14.8563V3.37918H13.2729V10.4658ZM6.08812 16.3523H8.3081V13.3729C8.3081 12.2786 8.87857 11.7316 9.926 11.7316H18.2266C19.2719 11.7316 19.852 12.2786 19.852 13.3729V16.3523H22.0699V13.2686C22.0699 10.7859 20.7818 9.50949 18.2618 9.50949H9.89623C7.38796 9.50949 6.08812 10.7838 6.08812 13.2686V16.3523ZM1.98023 26.7888H4.20232V19.465C4.20232 18.3708 4.7728 17.8141 5.81811 17.8141H22.3303C23.3756 17.8141 23.9461 18.3708 23.9461 19.465V26.7888H26.1682V19.3511C26.1682 16.8684 24.88 15.592 22.3697 15.592H5.79045C3.28007 15.592 1.98023 16.8663 1.98023 19.3511V26.7888ZM14.0789 21.8367C15.1322 21.8367 15.9682 23.1998 17.7604 23.1998C19.4878 23.1998 20.2514 21.8367 21.2376 21.8367C22.2239 21.8367 23.0013 23.1998 24.8936 23.1998H25.2332V21.2346H24.8936C23.755 21.2346 22.9181 19.8715 21.2376 19.8715C19.5433 19.8715 18.9108 21.2346 17.7604 21.2346C16.3664 21.2346 15.8008 19.8715 14.0789 19.8715C12.3494 19.8715 11.7893 21.2346 10.3952 21.2346C9.2449 21.2346 8.61655 19.8715 6.92014 19.8715C5.22796 19.8715 4.40062 21.2346 3.26202 21.2346H2.84788V23.1998H3.26202C5.15858 23.1998 5.93178 21.8367 6.92014 21.8367C7.89678 21.8367 8.66998 23.1998 10.3952 23.1998C12.1875 23.1998 13.0139 21.8367 14.0789 21.8367ZM1.10624 27.6618H27.0421C27.6527 27.6618 28.1484 27.1544 28.1484 26.546C28.1484 25.9354 27.6527 25.4397 27.0421 25.4397H1.10624C0.4957 25.4397 0 25.9354 0 26.546C0 27.1544 0.4957 27.6618 1.10624 27.6618Z" fill="black"/>
</svg>
