<svg width="28" height="28" viewBox="0 0 28 28" fill="none" xmlns="http://www.w3.org/2000/svg">
<path d="M14.105 26.2301C20.7369 26.2301 26.2121 20.7549 26.2121 14.123C26.2121 7.50291 20.7273 2.01807 14.0954 2.01807C7.47523 2.01807 2 7.50291 2 14.123C2 20.7549 7.48484 26.2301 14.105 26.2301Z" fill="black"/>
<path d="M6.3645 10.5969C6.3645 9.23328 7.09411 8.48445 8.42981 8.48445H8.48419C8.6738 8.25312 8.97005 8.09961 9.29724 8.09961C9.882 8.09961 10.373 8.59062 10.373 9.18711C10.373 9.7782 9.88622 10.2767 9.29724 10.2767C8.97005 10.2767 8.68341 10.1349 8.4938 9.91531H8.38927C7.97981 9.91531 7.79114 10.119 7.79114 10.5969C7.79114 12.4962 9.53114 15.1198 10.7963 15.1198C12.054 15.1198 13.8057 12.4941 13.8057 10.5969C13.8057 10.1286 13.6074 9.91531 13.198 9.91531H13.0838C12.8942 10.1349 12.6076 10.2767 12.2996 10.2767C11.6893 10.2767 11.2142 9.7782 11.2142 9.18711C11.2142 8.59062 11.6956 8.09961 12.2996 8.09961C12.6172 8.09961 12.9134 8.25312 13.103 8.48445H13.1574C14.5102 8.48445 15.2302 9.23328 15.2302 10.5969C15.2302 13.0168 13.3069 15.9259 11.5032 16.4518C11.5894 18.283 12.1768 19.2723 13.1403 19.2723C14.2393 19.2723 14.7125 18.3683 15.0931 16.1398C15.5335 13.6716 16.3716 12.6148 17.9098 12.6148C19.43 12.6148 20.2449 13.7295 20.4964 16.0494C21.2956 16.3102 21.886 17.071 21.886 17.9469C21.886 19.0665 20.9816 19.9709 19.8523 19.9709C18.7295 19.9709 17.8442 19.074 17.8442 17.9469C17.8442 17.1083 18.3643 16.3902 19.0953 16.0984C18.9748 14.6663 18.5762 14.0276 17.8993 14.0276C17.1894 14.0276 16.7886 14.698 16.4942 16.4579C16.0219 19.3787 14.9961 20.6989 13.1661 20.6989C11.2911 20.6989 10.2097 19.1687 10.0883 16.4518C8.28661 15.9205 6.3645 12.9976 6.3645 10.5969ZM19.123 17.9469C19.123 18.3563 19.4471 18.6997 19.8545 18.6997C20.2639 18.6997 20.6094 18.3563 20.6094 17.9469C20.6094 17.5395 20.2735 17.2058 19.8545 17.2058C19.4471 17.2058 19.123 17.5395 19.123 17.9469Z" fill="white"/>
</svg>
