<svg width="32" height="28" viewBox="0 0 32 28" fill="none" xmlns="http://www.w3.org/2000/svg">
<path d="M0 6.35962C0 11.3318 4.56163 18.4334 8.67444 18.4334H9.21444C13.3273 18.4334 17.8889 11.3318 17.8889 6.35962C17.8889 3.67064 16.5335 2.26416 13.9111 2.26416H12.6373V4.51156H13.9922C15.083 4.51156 15.6415 5.15985 15.6415 6.33618C15.6415 10.0405 12.1118 16.1881 8.94069 16.1881C5.76748 16.1881 2.24741 10.0405 2.24741 6.33618C2.24741 5.15985 2.80592 4.51156 3.8871 4.51156H5.24202V2.26416H3.96819C1.35539 2.26416 0 3.67064 0 6.35962ZM13.9476 27.1763C17.6958 27.1763 19.6169 24.3256 20.5528 18.5815C21.2395 14.4868 22.2349 13.1825 23.8741 13.1825C25.7585 13.1825 26.7119 15.0418 26.816 19.141H29.0697C28.7772 13.5657 27.1732 10.9372 23.8973 10.9372C20.8966 10.9372 19.2337 12.9647 18.3532 18.0247C17.5739 22.5183 16.5752 24.9289 13.8748 24.9289C11.373 24.9289 10.013 22.2099 10.0458 17.3469H7.79836C7.75711 23.6883 9.95343 27.1763 13.9476 27.1763Z" fill="black"/>
<path d="M5.78796 5.28442C6.82905 5.28442 7.69132 4.42216 7.69132 3.37146C7.69132 2.32076 6.82905 1.4585 5.78796 1.4585C4.73726 1.4585 3.875 2.32076 3.875 3.37146C3.875 4.42216 4.73726 5.28442 5.78796 5.28442ZM12.0819 5.28442C13.1326 5.28442 13.9948 4.42216 13.9948 3.37146C13.9948 2.32076 13.1326 1.4585 12.0819 1.4585C11.0408 1.4585 10.1785 2.32076 10.1785 3.37146C10.1785 4.42216 11.0408 5.28442 12.0819 5.28442ZM28.0191 25.6559C30.1447 25.6559 31.8763 23.9318 31.8763 21.787C31.8763 19.6615 30.1447 17.9395 28.0191 17.9299C25.884 17.9203 24.1524 19.6615 24.1524 21.787C24.1524 23.9318 25.884 25.6559 28.0191 25.6559ZM28.0213 23.6576C26.99 23.6576 26.1411 22.8162 26.1411 21.7849C26.1411 20.7441 26.99 19.9165 28.0213 19.9165C29.0525 19.9165 29.8918 20.7441 29.8918 21.7849C29.8918 22.8162 29.0525 23.6576 28.0213 23.6576Z" fill="black"/>
</svg>
