<svg width="28" height="28" viewBox="0 0 28 28" fill="none" xmlns="http://www.w3.org/2000/svg">
<path d="M14.105 26.21C20.7369 26.21 26.2121 20.7273 26.2121 14.105C26.2121 7.47312 20.7273 2 14.0954 2C7.47523 2 2 7.47312 2 14.105C2 20.7273 7.48484 26.21 14.105 26.21ZM14.105 23.8255C8.71085 23.8255 4.39412 19.4991 4.39412 14.105C4.39412 8.71085 8.70124 4.38452 14.0954 4.38452C19.4895 4.38452 23.8276 8.71085 23.8276 14.105C23.8276 19.4991 19.4991 23.8255 14.105 23.8255Z" fill="black"/>
<path d="M11.0661 14.963C10.7211 14.963 10.4624 14.7139 10.4624 14.3668C10.4624 14.0239 10.7211 13.7727 11.0661 13.7727H13.4991V10.4221C13.4991 10.0846 13.76 9.82582 14.0954 9.82582C14.4425 9.82582 14.713 10.0846 14.713 10.4221V14.3668C14.713 14.7043 14.4329 14.963 14.0954 14.963H11.0661ZM14.105 20.3263C17.5048 20.3263 20.3284 17.5048 20.3284 14.105C20.3284 10.7052 17.5048 7.88379 14.0954 7.88379C10.6956 7.88379 7.88379 10.7052 7.88379 14.105C7.88379 17.5048 10.7052 20.3263 14.105 20.3263Z" fill="black"/>
</svg>
