<svg width="28" height="28" viewBox="0 0 28 28" fill="none" xmlns="http://www.w3.org/2000/svg">
<path d="M2 11.5372C2 16.801 6.27757 21.0765 11.5393 21.0765C13.4961 21.0765 15.2919 20.4751 16.7891 19.46L22.1729 24.8534C22.5099 25.1905 22.9564 25.351 23.4263 25.351C24.4236 25.351 25.1368 24.5973 25.1368 23.6117C25.1368 23.1481 24.9666 22.7155 24.6446 22.3935L19.3022 17.0202C20.4207 15.4815 21.0786 13.5898 21.0786 11.5372C21.0786 6.27547 16.801 2 11.5393 2C6.27757 2 2 6.27547 2 11.5372ZM4.48482 11.5372C4.48482 7.64491 7.64702 4.48482 11.5393 4.48482C15.4316 4.48482 18.5916 7.64491 18.5916 11.5372C18.5916 15.4316 15.4316 18.5916 11.5393 18.5916C7.64702 18.5916 4.48482 15.4316 4.48482 11.5372ZM12.0537 15.7637C12.5574 15.7637 12.9183 15.5274 12.9183 14.9759V8.20459C12.9183 7.6285 12.5298 7.23873 11.926 7.23873C11.5011 7.23873 11.2456 7.33459 10.778 7.65733L9.26257 8.7146C8.93984 8.93186 8.83976 9.12569 8.83976 9.42499C8.83976 9.78709 9.14445 10.0747 9.47984 10.0747C9.70038 10.0747 9.80585 10.0128 10.0156 9.86373L11.1146 9.08983H11.1945V14.8756C11.1945 15.4388 11.5459 15.7637 12.0537 15.7637Z" fill="black"/>
</svg>
