<svg width="30" height="28" viewBox="0 0 30 28" fill="none" xmlns="http://www.w3.org/2000/svg">
<path d="M3.3246 20.1451H4.8825V7.00537H3.30328C1.16039 7.00537 0 8.16365 0 10.2927L0.013828 16.862C0.013828 19.0049 1.16461 20.1451 3.3246 20.1451ZM6.10241 20.1451H23.0362V7.00537H21.1451C20.8999 10.4582 18.2128 12.7478 14.58 12.7478C10.9409 12.7478 8.25586 10.4582 8.00109 7.00537H6.10241V20.1451ZM24.2562 20.1451H25.814C27.9708 20.1451 29.1056 19.0049 29.1152 16.862L29.1365 10.2927C29.1462 8.16365 27.9762 7.00537 25.8237 7.00537H24.2562V20.1451ZM14.58 11.5537C17.4581 11.5537 19.578 9.74404 19.7604 7.00537H17.9018C17.7684 8.76623 16.4187 9.93576 14.58 9.93576C12.7275 9.93576 11.3873 8.76623 11.254 7.00537H9.38577C9.56601 9.74615 11.6901 11.5537 14.58 11.5537Z" fill="black"/>
</svg>
