<svg width="28" height="28" viewBox="0 0 28 28" fill="none" xmlns="http://www.w3.org/2000/svg">
<path d="M14.105 26.2962C20.7369 26.2962 26.2121 20.8114 26.2121 14.1912C26.2121 7.55936 20.7273 2.08624 14.0954 2.08624C7.47523 2.08624 2 7.55936 2 14.1912C2 20.8114 7.48484 26.2962 14.105 26.2962ZM14.105 23.9117C8.71085 23.9117 4.39412 19.5758 4.39412 14.1912C4.39412 8.79709 8.70124 4.47076 14.0954 4.47076C19.4895 4.47076 23.8276 8.79709 23.8276 14.1912C23.8276 19.5758 19.4991 23.9117 14.105 23.9117Z" fill="black"/>
<path d="M10.9242 20.5911H17.2689C18.4898 20.5911 18.9841 19.9339 19.1662 18.7248L19.9825 13.2045H8.21806L9.02689 18.7248C9.209 19.9339 9.7129 20.5911 10.9242 20.5911ZM12.4134 18.9816C12.112 18.9816 11.8809 18.743 11.8809 18.4587C11.8809 18.3097 11.9374 18.1946 12.0492 18.0945L13.3553 16.7787L12.0492 15.4555C11.9353 15.3533 11.8809 15.234 11.8809 15.087C11.8809 14.8048 12.112 14.5641 12.4134 14.5641C12.5486 14.5641 12.67 14.6227 12.7701 14.7228L14.0859 16.0428L15.423 14.7228C15.5231 14.6227 15.6424 14.5545 15.7776 14.5545C16.079 14.5545 16.3101 14.7952 16.3101 15.087C16.3101 15.2244 16.2653 15.3437 16.1535 15.4555L14.8377 16.7787L16.1535 18.0945C16.244 18.1946 16.3005 18.3097 16.3005 18.4587C16.3005 18.743 16.0694 18.9816 15.7776 18.9816C15.6328 18.9816 15.5135 18.9177 15.4134 18.8251L14.0859 17.5147L12.7797 18.8251C12.6796 18.9273 12.5486 18.9816 12.4134 18.9816ZM7.88032 12.2553H20.3128C20.999 12.2553 21.3686 11.8397 21.3686 11.1568V10.538C21.3686 9.84334 20.999 9.44373 20.3128 9.44373H7.88032C7.22501 9.44373 6.82446 9.84334 6.82446 10.538V11.1568C6.82446 11.8397 7.19618 12.2553 7.88032 12.2553Z" fill="black"/>
</svg>
