<svg width="28" height="28" viewBox="0 0 28 28" fill="none" xmlns="http://www.w3.org/2000/svg">
<path d="M14.3178 23.9829C21.2593 23.9829 26.659 20.8517 26.659 16.9679V10.6848L24.4369 12.3697V16.9679C24.4369 19.6158 20.6084 21.7587 14.3178 21.7587C8.03468 21.7587 4.21038 19.6158 4.21038 16.9679V12.3697L2 10.6848V16.9679C2 20.8517 7.38382 23.9829 14.3178 23.9829ZM14.3178 16.3522C21.2145 16.3522 26.659 13.8493 26.659 10.5962C26.659 7.44429 21.2145 5 14.3178 5C7.42859 5 2 7.44429 2 10.5962C2 13.8493 7.42859 16.3522 14.3178 16.3522ZM14.3178 14.128C8.5885 14.128 4.21038 12.5584 4.21038 10.5962C4.21038 8.70968 8.58429 7.2221 14.3178 7.2221C20.0588 7.2221 24.4369 8.70968 24.4369 10.5962C24.4369 12.5584 20.0546 14.128 14.3178 14.128Z" fill="black"/>
</svg>
