<svg width="28" height="28" viewBox="0 0 28 28" fill="none" xmlns="http://www.w3.org/2000/svg">
<path d="M13.2966 26.4576C15.3594 26.4576 16.8715 24.975 17.0314 23.2711H9.56398C9.71211 24.975 11.2264 26.4576 13.2966 26.4576ZM3.93617 21.6319H22.6475C23.8515 21.6319 24.5858 20.9829 24.5858 20.0051C24.5858 18.772 23.4528 17.7089 22.4016 16.6934C21.7332 16.0364 21.4615 14.7436 21.3915 13.6474C21.3851 13.4384 21.383 13.2527 21.3713 13.0692C21.1287 13.1916 20.8447 13.249 20.5393 13.249C19.3662 13.249 18.4095 12.5105 18.0765 11.4778L18.035 11.2528C17.9466 11.2816 17.8465 11.303 17.7507 11.303C16.5411 11.303 15.4932 10.4672 15.2129 9.34498L15.1894 9.16264C15.1105 9.19146 15.0294 9.21068 14.9408 9.21068C13.4902 9.21068 12.3198 8.03811 12.3198 6.58756V4.72405C12.3198 3.2639 13.4902 2.08171 14.9408 2.08171C14.9813 2.08171 15.0432 2.08171 15.0858 2.09132L15.1039 1.99593C14.5885 1.6882 13.9719 1.5007 13.2966 1.5007C11.5623 1.5007 10.2941 2.68874 9.81289 4.23656C6.77163 5.33413 5.51093 8.37304 5.34875 12.6874C5.20016 14.2165 5.01148 15.8953 4.19375 16.6934C3.14258 17.7089 2 18.772 2 20.0051C2 20.9829 2.74179 21.6319 3.93617 21.6319Z" fill="black"/>
<path d="M14.9387 7.26373C15.3423 7.26373 15.6479 6.95811 15.6479 6.58756V4.72405C15.6479 4.33428 15.3423 4.02866 14.9387 4.02866C14.5702 4.02866 14.2646 4.33428 14.2646 4.72405V6.58756C14.2646 6.95811 14.5702 7.26373 14.9387 7.26373Z" fill="black"/>
<path d="M17.7485 9.3485C18.1307 9.3485 18.4385 9.05038 18.4385 8.65311V2.6393C18.4385 2.26125 18.1307 1.95352 17.7485 1.95352C17.3587 1.95352 17.0627 2.26125 17.0627 2.6393V8.65311C17.0627 9.05249 17.3608 9.3485 17.7485 9.3485Z" fill="black"/>
<path d="M20.5372 11.302C20.929 11.302 21.2347 11.006 21.2347 10.6162V0.704999C21.2347 0.303515 20.929 0 20.5372 0C20.157 0 19.8535 0.305624 19.8535 0.704999V10.6162C19.8535 11.0156 20.1474 11.302 20.5372 11.302Z" fill="black"/>
<path d="M23.328 9.97523C23.7177 9.97523 24.0234 9.66749 24.0234 9.27773V2.01468C24.0234 1.64202 23.7156 1.3364 23.328 1.3364C22.9478 1.3364 22.6497 1.64413 22.6497 2.01468V9.27773C22.6497 9.66749 22.9478 9.97523 23.328 9.97523Z" fill="black"/>
<path d="M26.124 7.88063C26.5254 7.88063 26.8194 7.58461 26.8194 7.19485V4.10719C26.8194 3.71532 26.5233 3.41931 26.124 3.41931C25.7417 3.41931 25.4382 3.72704 25.4382 4.10719V7.19485C25.4382 7.57711 25.7417 7.88063 26.124 7.88063Z" fill="black"/>
</svg>
