<svg width="37" height="28" viewBox="0 0 37 28" fill="none" xmlns="http://www.w3.org/2000/svg">
<path d="M0 15.5625C0 21.9679 6.01359 26.2389 15.0726 26.2389C24.1476 26.2389 30.1591 21.97 30.1591 15.5625C30.1591 12.7919 23.9379 10.617 15.0726 10.617C6.22124 10.617 0 12.7919 0 15.5625ZM2.19046 15.5625C2.19046 14.3369 8.58209 12.6839 15.0726 12.6839C21.5653 12.6839 27.9666 14.3369 27.9666 15.5625C27.9666 16.7432 21.9035 18.389 15.0726 18.389C8.24388 18.389 2.19046 16.7432 2.19046 15.5625ZM27.6759 14.4412L35.4989 9.47063C38.7775 7.3943 35.632 2.40143 31.568 5.36696L22.2776 12.1619L27.6759 14.4412ZM8.10585 18.8125L21.0159 18.851C21.0888 16.2996 19.028 14.5666 16.578 14.5666C15.0588 14.5666 13.7039 15.2315 12.8829 16.2799C12.4917 16.1561 12.1294 16.1018 11.6913 16.1018C9.86859 16.1018 8.34304 17.2863 8.10585 18.8125Z" fill="black"/>
</svg>
