<svg width="28" height="28" viewBox="0 0 28 28" fill="none" xmlns="http://www.w3.org/2000/svg">
<path d="M6.02195 18.3231H8.40438V6.93859H6.02195C2.76156 6.93859 1 8.65328 1 11.7965V13.4673C1 16.6009 2.76156 18.3231 6.02195 18.3231ZM10.0921 18.3348C13.4591 18.715 16.9352 19.7277 20.2865 21.3794C20.2801 21.2432 20.278 21.0953 20.278 20.9591V4.31453C20.278 4.16336 20.2801 4.03352 20.2844 3.88446C16.9591 5.52672 13.1746 6.60414 10.0921 6.93859V18.3348ZM24.4544 24.1733C25.9347 24.1733 26.9736 23.1248 26.9736 21.6594V3.52351C26.9736 2.04859 25.9347 1 24.4544 1C22.9912 1 21.9426 2.04859 21.9426 3.52351V21.6594C21.9426 23.1248 22.9912 24.1733 24.4544 24.1733ZM10.7915 26.3896C12.3037 26.3896 13.4312 25.2688 13.0162 23.4262L12.3515 20.4025C11.3005 20.1974 9.82867 20.0666 6.82375 19.9973C6.61914 19.9973 6.29172 19.978 5.95258 19.9759L8.00148 24.3041C8.62328 25.6173 9.3646 26.3896 10.7915 26.3896Z" fill="black"/>
</svg>
