<svg width="28" height="28" viewBox="0 0 28 28" fill="none" xmlns="http://www.w3.org/2000/svg">
<path d="M4.84421 23.4498H23.2101C25.7394 23.4498 27.0447 22.1446 27.0447 19.6441V7.82713C27.0447 5.32659 25.7394 4.02136 23.2101 4.02136H4.84421C2.31484 4.02136 1 5.32659 1 7.82713V19.6441C1 22.1446 2.31484 23.4498 4.84421 23.4498Z" fill="black"/>
<path d="M9.55155 19.0206C7.36436 19.0206 5.89624 17.5951 5.89624 15.4719C5.89624 14.4562 6.30452 13.5388 6.64952 12.7923C7.22491 11.5616 8.14038 10.0705 8.9321 8.8323C9.12476 8.5609 9.31202 8.43433 9.55155 8.43433C9.77936 8.43433 9.97085 8.5609 10.1593 8.8323C10.9627 10.0705 11.8782 11.5595 12.4418 12.7881C12.7868 13.5367 13.2068 14.4562 13.2068 15.4719C13.2068 17.5951 11.7408 19.0206 9.55155 19.0206ZM16.9854 11.4557C16.1876 11.4557 15.5422 10.7964 15.5422 10.0124C15.5422 9.22629 16.1876 8.5691 16.9854 8.5691C17.7694 8.5691 18.4245 9.22629 18.4245 10.0124C18.4245 10.7964 17.7694 11.4557 16.9854 11.4557ZM21.1119 11.4557C20.3236 11.4557 19.6686 10.7964 19.6686 10.0124C19.6686 9.22629 20.3236 8.5691 21.1119 8.5691C21.8958 8.5691 22.5509 9.22629 22.5509 10.0124C22.5509 10.7964 21.8958 11.4557 21.1119 11.4557ZM16.9854 15.1602C16.1876 15.1602 15.5422 14.503 15.5422 13.719C15.5422 12.935 16.1876 12.2778 16.9854 12.2778C17.7694 12.2778 18.4245 12.935 18.4245 13.719C18.4245 14.503 17.7694 15.1602 16.9854 15.1602ZM21.1119 15.1602C20.3236 15.1602 19.6686 14.503 19.6686 13.719C19.6686 12.935 20.3236 12.2778 21.1119 12.2778C21.8958 12.2778 22.5509 12.935 22.5509 13.719C22.5509 14.503 21.8958 15.1602 21.1119 15.1602ZM16.9854 18.8669C16.1876 18.8669 15.5422 18.2097 15.5422 17.4257C15.5422 16.6417 16.1876 15.9803 16.9854 15.9803C17.7694 15.9803 18.4245 16.6417 18.4245 17.4257C18.4245 18.2097 17.7694 18.8669 16.9854 18.8669ZM21.1119 18.8669C20.3236 18.8669 19.6686 18.2097 19.6686 17.4257C19.6686 16.6417 20.3236 15.9803 21.1119 15.9803C21.8958 15.9803 22.5509 16.6417 22.5509 17.4257C22.5509 18.2097 21.8958 18.8669 21.1119 18.8669Z" fill="white"/>
</svg>
