<svg width="28" height="28" viewBox="0 0 28 28" fill="none" xmlns="http://www.w3.org/2000/svg">
<path d="M14.105 26.21C20.7369 26.21 26.2121 20.7273 26.2121 14.105C26.2121 7.47312 20.7273 2 14.0954 2C7.47523 2 2 7.47312 2 14.105C2 20.7273 7.48484 26.21 14.105 26.21Z" fill="black"/>
<path d="M7.65527 19.165V10.9328C7.65527 10.4814 7.82988 10.1556 8.23019 9.92991L11.0329 8.33709C11.1976 8.25529 11.3497 8.17865 11.4763 8.12639V18.4666L9.00293 19.8013C8.80371 19.9089 8.62488 19.9771 8.44183 19.9771C7.96371 19.9771 7.65527 19.6949 7.65527 19.165ZM12.3571 18.3178V8.04834C12.5146 8.07811 12.6559 8.1524 12.8216 8.24802L15.7078 9.99459V20.1276C15.5793 20.0999 15.4528 20.0521 15.3114 19.9842L12.3571 18.3178ZM16.5981 20.1074V9.79725L19.116 8.40764C19.3216 8.28623 19.5173 8.23092 19.7024 8.23092C20.1963 8.23092 20.5228 8.496 20.5228 9.03974V17.2436C20.5228 17.6896 20.3385 18.0112 19.9235 18.2528L16.8067 20.017C16.728 20.0585 16.6588 20.0861 16.5981 20.1074Z" fill="white"/>
</svg>
