<svg width="28" height="28" viewBox="0 0 28 28" fill="none" xmlns="http://www.w3.org/2000/svg">
<path d="M14.105 26.21C20.7369 26.21 26.2121 20.7273 26.2121 14.105C26.2121 7.47312 20.7273 2 14.0954 2C7.47523 2 2 7.47312 2 14.105C2 20.7273 7.48484 26.21 14.105 26.21ZM14.105 23.8255C8.71085 23.8255 4.39412 19.4991 4.39412 14.105C4.39412 8.71085 8.70124 4.38452 14.0954 4.38452C19.4895 4.38452 23.8276 8.71085 23.8276 14.105C23.8276 19.4991 19.4991 23.8255 14.105 23.8255Z" fill="black"/>
<path d="M14.105 15.0221C17.5859 15.0221 20.3347 13.7532 20.3347 12.1297C20.3347 10.553 17.5859 9.31718 14.105 9.31718C10.622 9.31718 7.87744 10.553 7.87744 12.1297C7.87744 13.7532 10.622 15.0221 14.105 15.0221ZM14.105 18.879C17.6115 18.879 20.3347 17.2958 20.3347 15.342V13.981C19.1319 15.1742 16.7218 15.8647 14.105 15.8647C11.4978 15.8647 9.08776 15.1742 7.87744 13.981V15.342C7.87744 17.2958 10.5889 18.879 14.105 18.879Z" fill="black"/>
</svg>
