<svg width="28" height="29" viewBox="0 0 28 29" fill="none" xmlns="http://www.w3.org/2000/svg">
<path d="M1.3346 16.8828C-0.430011 18.6474 -0.44923 20.8735 1.30366 22.6285L6.64037 27.9727C7.07537 28.4077 7.80615 28.4077 8.23904 27.9727C8.67192 27.5281 8.67192 26.8166 8.23904 26.3837L3.10459 21.2514C2.16403 20.3108 2.13638 19.242 3.07365 18.3144L17.3804 4.00766C18.308 3.08 19.3981 3.08844 20.3173 4.01727L25.4614 9.15383C25.8943 9.58672 26.5962 9.59844 27.0291 9.16344C27.4716 8.72844 27.4737 8.01688 27.0291 7.57228L21.6945 2.23767C19.9416 0.484786 17.7134 0.494395 15.9509 2.2665L1.3346 16.8828ZM2.96304 22.9597L4.5542 24.5488L23.6372 5.46149L22.0482 3.87244L2.96304 22.9597ZM21.185 7.07117L19.9801 8.29109L23.2939 11.6049C23.6314 11.952 24.1838 11.9563 24.5021 11.6145C24.8438 11.2803 24.8555 10.7342 24.5117 10.3904L21.185 7.07117ZM18.8794 9.37461L17.6649 10.5966L20.9883 13.9105C21.3237 14.2459 21.8761 14.2459 22.1986 13.9201C22.535 13.5901 22.5425 13.0377 22.2104 12.7056L18.8794 9.37461ZM16.5739 11.6823L15.369 12.9064L18.6807 16.2256C19.0182 16.5535 19.5706 16.5556 19.8931 16.2352C20.2327 15.8956 20.2465 15.3411 19.9027 15.009L16.5739 11.6823ZM14.2779 13.9878L13.0634 15.2002L16.3847 18.5195C16.7286 18.8591 17.2747 18.8633 17.5951 18.5216C17.9251 18.1895 17.9368 17.6413 17.6047 17.307L14.2779 13.9878ZM11.9724 16.2934L10.7579 17.5079L14.075 20.8367C14.4071 21.1688 14.9595 21.1688 15.2895 20.8367C15.6195 20.495 15.6354 19.9468 15.3012 19.6126L11.9724 16.2934ZM9.66474 18.5989L8.45021 19.8134L11.7715 23.1444C12.1111 23.4744 12.6636 23.4744 12.984 23.1444C13.3161 22.8027 13.3278 22.2524 12.9957 21.9203L9.66474 18.5989ZM7.35919 20.9045L6.14677 22.119L9.46599 25.4457C9.7981 25.7778 10.3463 25.7799 10.6784 25.4499C11.0126 25.1178 11.0222 24.5579 10.6901 24.2258L7.35919 20.9045Z" fill="black"/>
</svg>
