<svg width="36" height="28" viewBox="0 0 36 28" fill="none" xmlns="http://www.w3.org/2000/svg">
<path d="M7.36991 26.6758H28.4065C29.962 26.6758 30.4734 25.2567 29.8497 24.0211L24.6262 13.543L33.562 26.0308C33.8782 26.4726 34.2837 26.647 34.6783 26.647C35.2772 26.647 35.7902 26.2781 35.7902 25.5213V21.9625C35.7902 21.4572 35.37 21.0349 34.8626 21.0349C34.3572 21.0349 33.9466 21.4572 33.9466 21.9625V23.4602L19.4285 3.16779C18.6056 2.0074 17.175 2.02662 16.3521 3.16779L1.84358 23.4602V21.9625C1.84358 21.4572 1.43296 21.0349 0.925542 21.0349C0.410623 21.0349 0 21.4572 0 21.9625V25.5213C0 26.2781 0.513045 26.647 1.10976 26.647C1.50655 26.647 1.91202 26.4726 2.22819 26.0308L11.164 13.543L5.93836 24.0211C5.3168 25.2567 5.81859 26.6758 7.36991 26.6758ZM11.9398 24.6065L17.0433 13.7519C17.2242 13.3741 17.5573 13.1868 17.8882 13.1868C18.2233 13.1868 18.5543 13.3741 18.7235 13.7519L23.8387 24.6065H19.7833L17.8882 16.3476L15.9855 24.6065H11.9398Z" fill="black"/>
</svg>
