<svg width="29" height="28" viewBox="0 0 29 28" fill="none" xmlns="http://www.w3.org/2000/svg">
<path d="M19.4602 26.2619H26.0722C27.4604 26.2619 28.3116 25.3328 28.3116 23.8316V9.28773C28.3116 7.78657 27.4604 6.85962 26.0722 6.85962H20.1336V23.8316C20.1336 24.7265 19.9123 25.5426 19.4602 26.2619ZM22.8444 12.8926V11.0345C22.8444 10.7884 22.9967 10.6265 23.2461 10.6265H25.1682C25.4101 10.6265 25.572 10.7884 25.572 11.0345V12.8926C25.572 13.1387 25.4101 13.3082 25.1682 13.3082H23.2461C22.9967 13.3082 22.8444 13.1387 22.8444 12.8926ZM22.8444 17.4887V15.6306C22.8444 15.3866 22.9967 15.2247 23.2461 15.2247H25.1682C25.4101 15.2247 25.572 15.3866 25.572 15.6306V17.4887C25.572 17.7348 25.4101 17.8968 25.1682 17.8968H23.2461C22.9967 17.8968 22.8444 17.7348 22.8444 17.4887ZM22.8444 22.0848V20.2267C22.8444 19.9827 22.9967 19.8133 23.2461 19.8133H25.1682C25.4101 19.8133 25.572 19.9827 25.572 20.2267V22.0848C25.572 22.3309 25.4101 22.4929 25.1682 22.4929H23.2461C22.9967 22.4929 22.8444 22.3309 22.8444 22.0848Z" fill="black"/>
<path d="M0 23.8316C0 25.3328 0.849137 26.2619 2.24694 26.2619H16.1714C17.5713 26.2619 18.4204 25.3328 18.4204 23.8316V3.44194C18.4204 1.94078 17.5713 1.01172 16.1714 1.01172H2.24694C0.849137 1.01172 0 1.94078 0 3.44194V23.8316ZM5.06273 24.1832V20.4927C5.06273 19.9452 5.42062 19.5894 5.96812 19.5894H12.4903C13.0884 19.5894 13.4421 19.9452 13.4421 20.4927V24.1832H5.06273ZM4.7414 7.47132V5.2232C4.7414 4.93023 4.9289 4.72562 5.21554 4.72562H7.58038C7.86702 4.72562 8.07374 4.93023 8.07374 5.2232V7.47132C8.07374 7.7739 7.86702 7.96679 7.58038 7.96679H5.21554C4.9289 7.96679 4.7414 7.7739 4.7414 7.47132ZM10.4332 7.47132V5.2232C10.4332 4.93023 10.6207 4.72562 10.9169 4.72562H13.2722C13.5588 4.72562 13.7655 4.93023 13.7655 5.2232V7.47132C13.7655 7.7739 13.5588 7.96679 13.2722 7.96679H10.9169C10.6207 7.96679 10.4332 7.7739 10.4332 7.47132ZM4.7414 12.2568V10.0087C4.7414 9.7157 4.9289 9.50898 5.21554 9.50898H7.58038C7.86702 9.50898 8.07374 9.7157 8.07374 10.0087V12.2568C8.07374 12.5594 7.86702 12.7544 7.58038 12.7544H5.21554C4.9289 12.7544 4.7414 12.5594 4.7414 12.2568ZM10.4332 12.2568V10.0087C10.4332 9.7157 10.6207 9.50898 10.9169 9.50898H13.2722C13.5588 9.50898 13.7655 9.7157 13.7655 10.0087V12.2568C13.7655 12.5594 13.5588 12.7544 13.2722 12.7544H10.9169C10.6207 12.7544 10.4332 12.5594 10.4332 12.2568ZM4.7414 17.0423V14.792C4.7414 14.4916 4.9289 14.2966 5.21554 14.2966H7.58038C7.86702 14.2966 8.07374 14.4916 8.07374 14.792V17.0423C8.07374 17.3352 7.86702 17.5398 7.58038 17.5398H5.21554C4.9289 17.5398 4.7414 17.3352 4.7414 17.0423ZM10.4332 17.0423V14.792C10.4332 14.4916 10.6207 14.2966 10.9169 14.2966H13.2722C13.5588 14.2966 13.7655 14.4916 13.7655 14.792V17.0423C13.7655 17.3352 13.5588 17.5398 13.2722 17.5398H10.9169C10.6207 17.5398 10.4332 17.3352 10.4332 17.0423Z" fill="black"/>
</svg>
