<svg width="28" height="28" viewBox="0 0 28 28" fill="none" xmlns="http://www.w3.org/2000/svg">
<path d="M7.89265 27.0511H19.6266C21.3589 27.0511 22.531 25.8534 22.531 24.0689V2.98218C22.531 1.19765 21.3589 0 19.6266 0H7.89265C6.17 0 5 1.19765 5 2.98218V24.0689C5 25.8534 6.17 27.0511 7.89265 27.0511ZM8.06444 24.829C7.56007 24.829 7.22421 24.4952 7.22421 23.9791V3.08155C7.22421 2.56546 7.56007 2.2221 8.06444 2.2221H19.4897C19.9719 2.2221 20.3068 2.55702 20.3068 3.05624V24.0044C20.3068 24.5037 19.9719 24.829 19.4897 24.829H8.06444ZM9.45873 7.52178C9.85037 7.52178 10.1206 7.24194 10.1206 6.8503V4.23092C10.1206 3.83928 9.85037 3.56155 9.45873 3.56155C9.0671 3.56155 8.78725 3.83928 8.78725 4.23092V6.8503C8.78725 7.24194 9.0671 7.52178 9.45873 7.52178ZM6.67296 10.83H20.9267V9.1978H6.67296V10.83ZM9.45873 15.8402C9.85037 15.8402 10.1206 15.5721 10.1206 15.1783V12.5515C10.1206 12.1577 9.85037 11.8875 9.45873 11.8875C9.0671 11.8875 8.78725 12.1577 8.78725 12.5515V15.1783C8.78725 15.5721 9.0671 15.8402 9.45873 15.8402ZM6.67296 23.1412H20.9267V21.5112H6.67296V23.1412Z" fill="black"/>
</svg>
