<svg width="28" height="28" viewBox="0 0 28 28" fill="none" xmlns="http://www.w3.org/2000/svg">
<path d="M11.3792 24.7524L12.631 25.0632C13.6388 21.9692 13.4129 18.4747 11.6656 15.4744C9.93429 12.4796 7.0428 10.5181 3.87218 9.85109L3.51663 11.0794C6.34343 11.6698 8.92624 13.4227 10.5064 16.1462C12.0866 18.8834 12.2987 21.9863 11.3792 24.7524ZM6.76835 12.9144L7.84436 10.9592C8.00186 10.6761 7.91139 10.3301 7.62827 10.1886C7.32921 10.0152 6.97155 10.1023 6.81827 10.3887L5.75608 12.3343C5.58687 12.6312 5.69327 12.991 5.9839 13.1326C6.26491 13.2955 6.60124 13.2134 6.76835 12.9144ZM8.85804 14.454L10.4157 12.8696C10.6637 12.6216 10.6414 12.2661 10.4157 12.0596C10.1794 11.8138 9.81968 11.7987 9.58226 12.0341L8.0246 13.6227C7.78296 13.8526 7.79257 14.2379 8.03632 14.4444C8.27046 14.6785 8.61851 14.6881 8.85804 14.454ZM10.4757 16.8289L12.4137 15.7337C12.7224 15.5666 12.7948 15.2026 12.6298 14.9375C12.4606 14.648 12.1084 14.5447 11.8337 14.7097L9.89773 15.7911C9.60288 15.954 9.51453 16.3297 9.69335 16.6011C9.85624 16.8737 10.1745 16.9843 10.4757 16.8289ZM11.3187 19.4949L13.4731 18.9366C13.7818 18.8504 13.9648 18.5279 13.8861 18.2192C13.7914 17.8904 13.4881 17.7104 13.1666 17.7966L11.0218 18.357C10.7014 18.4358 10.5205 18.7562 10.6013 19.0627C10.6897 19.3916 11.0068 19.5758 11.3187 19.4949ZM11.4765 22.2003L13.6916 22.2484C14.0216 22.258 14.2812 21.9887 14.2812 21.6683C14.2909 21.3575 14.0312 21.0882 13.7108 21.0786L11.4957 21.0305C11.1636 21.0209 10.906 21.2902 10.8964 21.6106C10.8964 21.9395 11.1624 22.1907 11.4765 22.2003ZM24.2984 18.327L24.6444 17.0795C21.7941 16.5008 19.2134 14.7554 17.6333 12.0298C16.0627 9.28507 15.841 6.16835 16.7584 3.41397L15.5087 3.12663C14.503 6.2089 14.7406 9.67999 16.4741 12.6941C18.2054 15.7102 21.1086 17.6387 24.2984 18.327ZM16.6909 7.17311C17.0209 7.18272 17.2688 6.93897 17.2688 6.60475C17.2805 6.28858 17.0251 6.01296 16.6984 6.00335L14.4854 5.94358C14.1533 5.9553 13.8957 6.21288 13.8957 6.5471C13.884 6.86116 14.1277 7.12506 14.4641 7.12506L16.6909 7.17311ZM16.9827 9.76249C17.3115 9.66991 17.4819 9.35491 17.3839 9.05679C17.319 8.74484 17.0124 8.54163 16.6857 8.63421L14.5313 9.18288C14.2013 9.27335 14.0438 9.59585 14.1439 9.90241C14.1971 10.2144 14.5016 10.4037 14.8283 10.3133L16.9827 9.76249ZM18.2419 12.354C18.5241 12.1932 18.6155 11.8749 18.4602 11.5599C18.3069 11.2864 17.9525 11.1629 17.6736 11.3417L15.7259 12.4487C15.447 12.5998 15.3683 12.9575 15.5333 13.2427C15.6673 13.5141 16.0271 13.6376 16.306 13.4588L18.2419 12.354ZM20.1523 14.4127C20.3982 14.1509 20.3738 13.7891 20.1385 13.5676C19.9245 13.3515 19.5573 13.3334 19.3147 13.5772L17.7495 15.1637C17.5217 15.3777 17.5229 15.747 17.7709 15.9758C17.9848 16.1898 18.3467 16.2099 18.5809 15.9758L20.1523 14.4127ZM22.4187 15.8832C22.5837 15.5884 22.472 15.252 22.1888 15.0753C21.9078 14.9274 21.548 15.0179 21.4065 15.301L20.3305 17.2445C20.1634 17.5276 20.2655 17.8873 20.5445 18.0427C20.8159 18.1981 21.1991 18.1077 21.3427 17.817L22.4187 15.8832ZM14.105 26.21C20.7369 26.21 26.2121 20.7273 26.2121 14.105C26.2121 7.47312 20.7273 2 14.0954 2C7.47523 2 2 7.47312 2 14.105C2 20.7273 7.48484 26.21 14.105 26.21ZM14.105 24.3336C8.51233 24.3336 3.8785 19.6998 3.8785 14.105C3.8785 8.51023 8.50273 3.87639 14.0954 3.87639C19.6902 3.87639 24.3336 8.51023 24.3336 14.105C24.3336 19.6998 19.6998 24.3336 14.105 24.3336Z" fill="black"/>
</svg>
