<svg width="28" height="28" viewBox="0 0 28 28" fill="none" xmlns="http://www.w3.org/2000/svg">
<path d="M17.1574 1.77042L12.6101 14.2876C12.4366 14.7761 12.6792 15.3081 13.1676 15.4815C13.6603 15.6667 14.1902 15.4028 14.3637 14.9357L18.9281 2.41636C19.1015 1.93003 18.8515 1.398 18.3609 1.21285C17.8821 1.03191 17.3287 1.29371 17.1574 1.77042ZM11.9084 13.9014L16.3594 1.64855C14.0787 1.08488 11.9119 1.53558 10.297 2.9334L10.0744 2.85559C8.54742 2.33035 7.14375 3.11738 6.48562 4.91386L1.30758 19.1601C0.898831 20.2895 1.36313 21.3346 2.53992 21.7773C3.69702 22.1669 4.7571 21.6859 5.15624 20.5799L9.16663 9.55519L8.38804 9.98784C8.92687 11.6774 10.1543 13.0373 11.9084 13.9014ZM3.49382 21.3648L2.09367 20.852L0 26.6069L1.40015 27.1197L3.49382 21.3648Z" fill="black"/>
<path d="M18.1414 14.1135C18.5523 13.7462 18.5863 13.1598 18.2382 12.7565C17.8731 12.3477 17.2674 12.2924 16.8737 12.6714C16.4841 13.0558 16.4523 13.6422 16.8153 14.0338C17.173 14.4062 17.7594 14.4669 18.1414 14.1135ZM19.8678 9.72201C20.0488 9.2399 19.7795 8.68537 19.2877 8.51404C18.796 8.33522 18.2436 8.57358 18.0627 9.07279C17.8817 9.57412 18.1297 10.1479 18.6289 10.3309C19.1323 10.5097 19.6773 10.2426 19.8678 9.72201ZM21.3634 5.30944C21.2633 4.79428 20.81 4.45584 20.2714 4.5367C19.737 4.61545 19.3794 5.06123 19.456 5.586C19.5273 6.10537 20.004 6.46302 20.5384 6.40138C21.077 6.32052 21.425 5.83631 21.3634 5.30944Z" fill="black"/>
<path d="M20.3337 16.5355C20.737 16.1725 20.7614 15.5626 20.392 15.1497C20.0536 14.789 19.4597 14.7571 19.0605 15.1148C18.6764 15.4607 18.6445 16.0684 18.9787 16.4366C19.3577 16.8304 19.9441 16.8836 20.3337 16.5355ZM22.9183 10.8618C23.1014 10.3701 22.8438 9.82518 22.3404 9.64635C21.8487 9.46541 21.3251 9.70377 21.1441 10.2126C20.9632 10.6968 21.2015 11.2417 21.7029 11.4205C22.2042 11.6015 22.7395 11.3535 22.9183 10.8618ZM24.5779 4.86557C24.5163 4.33659 24.015 3.98104 23.4956 4.05229C22.9901 4.14065 22.6132 4.61526 22.6844 5.15385C22.7653 5.64018 23.2453 6.00533 23.7743 5.9458C24.2915 5.86494 24.6588 5.38283 24.5779 4.86557Z" fill="black"/>
<path d="M22.513 18.9384C22.8812 18.5829 22.9344 18.0157 22.5885 17.5931C22.2329 17.2036 21.6231 17.1909 21.2453 17.5561C20.8729 17.902 20.81 18.4927 21.156 18.8801C21.5115 19.2813 22.1289 19.2961 22.513 18.9384ZM25.9923 11.9611C26.1732 11.4694 25.9135 10.9265 25.4218 10.7435C24.9226 10.5647 24.3681 10.8126 24.185 11.3044C24.0062 11.7961 24.2542 12.3816 24.7555 12.5604C25.2547 12.7413 25.8093 12.4645 25.9923 11.9611ZM27.8064 4.42379C27.7138 3.89481 27.2488 3.52755 26.7315 3.5988C26.2046 3.65833 25.847 4.17348 25.9279 4.67153C25.9991 5.19629 26.4737 5.55395 26.9889 5.47309C27.5157 5.41356 27.883 4.91973 27.8064 4.42379Z" fill="black"/>
</svg>
