<svg width="28" height="29" viewBox="0 0 28 29" fill="none" xmlns="http://www.w3.org/2000/svg">
<path d="M1.30366 22.3948L6.64037 27.7391C7.07537 28.1741 7.80615 28.1741 8.23904 27.7391C8.67192 27.2945 8.66231 26.5829 8.23904 26.1521L4.8781 22.7816L22.0983 5.55714L25.4614 8.92019C25.8943 9.35304 26.5962 9.36484 27.0291 8.9298C27.4716 8.4948 27.4737 7.78325 27.0291 7.33864L21.6945 2.00403C19.9416 0.251143 17.7134 0.260753 15.9509 2.03286L1.3346 16.6513C-0.430011 18.4138 -0.44923 20.642 1.30366 22.3948ZM20.6532 6.30575L19.4483 7.53738L23.2939 11.3712C23.6314 11.7205 24.1838 11.7226 24.5021 11.3809C24.8438 11.0466 24.8555 10.5005 24.5117 10.1567L20.6532 6.30575ZM18.3476 8.60919L17.1448 9.84294L20.9883 13.6768C21.3237 14.0122 21.8761 14.0122 22.1986 13.6864C22.535 13.3564 22.5425 12.804 22.2104 12.4719L18.3476 8.60919ZM16.0517 10.9168L14.8489 12.1505L18.6807 15.9919C19.0182 16.3219 19.5706 16.3241 19.8931 16.0016C20.2327 15.6619 20.2465 15.1095 19.9027 14.7753L16.0517 10.9168ZM13.7558 13.2223L12.5433 14.4369L16.3847 18.2858C16.7286 18.6296 17.2747 18.6296 17.5951 18.2879C17.9251 17.9558 17.9389 17.398 17.6047 17.0734L13.7558 13.2223ZM11.4502 15.5279L10.2378 16.7424L14.075 20.603C14.4071 20.9352 14.9595 20.9352 15.2895 20.603C15.6195 20.2613 15.6354 19.7131 15.3012 19.3789L11.4502 15.5279ZM9.14256 17.8334L7.92803 19.048L11.7715 22.9107C12.1111 23.2407 12.6636 23.2407 12.984 22.9107C13.3161 22.569 13.3278 22.0187 12.9957 21.6866L9.14256 17.8334ZM6.83701 20.139L5.62459 21.3535L9.46599 25.212C9.7981 25.5441 10.3463 25.5462 10.6784 25.2162C11.0126 24.8745 11.0222 24.3242 10.6901 23.9942L6.83701 20.139Z" fill="black"/>
</svg>
