<svg width="28" height="28" viewBox="0 0 28 28" fill="none" xmlns="http://www.w3.org/2000/svg">
<path d="M19.402 7.91101C21.3696 6.8371 23.4916 1.14438 21.1947 0.565484C18.8435 0.00369018 18.1291 6.05382 19.402 7.91101ZM19.6432 8.36383C22.402 8.51265 28.3216 3.84555 26.2415 1.75376C24.1614 -0.326309 19.4964 5.59118 19.6432 8.36383ZM20.096 8.59329C21.9414 9.8875 28.0054 9.15179 27.4436 6.8336C26.8722 4.50369 21.1699 6.64376 20.096 8.59329ZM0.713626 27.2348C1.37034 27.9032 2.40885 28.2562 3.54979 27.5372L9.52752 23.7963L8.20353 22.484C7.84916 22.1318 7.85338 21.6166 8.19392 21.274C8.53869 20.9313 9.05173 20.9196 9.40611 21.274L11.0132 22.8597L12.2519 22.0762L10.3675 20.26C10.0131 19.912 10.0249 19.3926 10.36 19.05C10.7165 18.7073 11.2253 18.6977 11.5701 19.0425L13.7355 21.161L19.2665 17.6718C23.3428 15.1092 24.0935 11.0264 21.025 7.93001L20.0109 6.90837C17.384 4.25688 13.9797 4.44696 11.448 7.17064L14.4766 10.163C14.831 10.5173 14.8289 11.0208 14.4958 11.3655C14.1532 11.7178 13.6359 11.7274 13.2857 11.3751L10.3764 8.5129L9.59831 9.73236L11.7607 11.8542C12.115 12.2065 12.1129 12.7333 11.7703 13.0664C11.4138 13.4133 10.9125 13.4186 10.5602 13.0664L8.67347 11.2277L0.389955 24.3635C-0.28317 25.4393 -0.0262938 26.4991 0.713626 27.2348Z" fill="black"/>
</svg>
