<svg width="28" height="30" viewBox="0 0 28 30" fill="none" xmlns="http://www.w3.org/2000/svg">
<path d="M5.27663 10.0596L6.01257 8.29195C5.39593 8.13093 4.97921 7.57781 4.97921 6.89484C4.97921 5.85866 6.12179 5.09085 7.4064 5.51671C7.23811 4.36569 8.46952 3.46241 9.65007 4.02093C9.28046 2.68359 10.1076 1.87007 11.1287 1.87007C12.1075 1.87007 12.9904 2.65569 12.7987 3.98062C13.5583 3.4514 14.9601 3.56109 15.5877 4.15241C15.865 3.38179 16.5189 2.96952 17.2572 2.96952C18.2887 2.96952 18.8922 3.79851 18.8043 4.97038C20.2469 4.74445 21.2666 5.41124 21.2666 6.72632C21.2666 7.44562 20.6999 8.09671 19.9893 8.28445L20.9765 9.9403C22.2339 9.36819 23.1112 8.08077 23.1112 6.60281C23.1112 4.53867 21.8073 3.08484 19.9061 3.02109C19.3801 1.85695 18.4525 1.10789 17.1688 1.10789C16.3572 1.10789 15.6041 1.38914 15.0248 1.90687C14.7487 1.83117 14.3798 1.80773 14.0652 1.86961C13.536 0.728672 12.4016 0 11.1287 0C9.45835 0 8.31366 1.01109 8.07531 2.07914C7.20999 2.02875 6.47476 2.82164 6.44945 3.60586C4.62062 3.56836 3.12835 5.07445 3.12835 6.91171C3.12835 8.34491 4.02249 9.58968 5.27663 10.0596ZM8.50046 27.9537H15.8732L15.5709 25.9988H12.16L10.8367 11.4356C10.7045 9.99445 11.6242 9.0321 13.1198 9.0321C14.6174 9.0321 15.5371 9.99445 15.4049 11.4356L14.2757 23.8985L16.3124 22.8823L17.3406 11.5249C17.4494 10.3001 18.2605 9.62976 19.2508 9.62976C20.4923 9.62976 21.5329 10.5335 21.243 12.0173L19.6726 20.1619L21.6339 20.2291L23.1606 12.1448C23.6751 9.45984 21.6644 7.67273 19.2508 7.67273C18.213 7.67273 17.2935 8.07774 16.6288 8.79938C15.9388 7.75078 14.6753 7.07508 13.1198 7.07508C11.5663 7.07508 10.3028 7.75078 9.6128 8.79938C8.94811 8.07774 8.02866 7.67273 6.99085 7.67273C4.57726 7.67273 2.56656 9.45984 3.08101 12.1448L5.54945 25.2073C5.8764 26.9496 6.7614 27.9537 8.50046 27.9537ZM8.58647 25.9988C7.98202 25.9988 7.63655 25.6938 7.52569 25.0978L4.99866 12.0173C4.70873 10.5335 5.74936 9.62976 6.99085 9.62976C7.98108 9.62976 8.79226 10.3001 8.8914 11.5249L10.2051 25.9988H8.58647ZM19.5456 29.8498C20.7034 29.8498 21.7813 29.2031 22.3073 28.2061C23.725 27.8484 24.707 26.5758 24.707 25.1123C24.707 23.8106 23.9186 22.6828 22.7856 22.113C22.7258 20.3834 21.3072 19.2373 19.5456 19.2373C17.8117 19.2373 16.4249 20.3365 16.2962 21.9727C14.8626 22.3207 13.8133 23.6084 13.8133 25.1027C13.8133 26.7952 15.0937 28.1541 16.7413 28.3179C17.3226 29.2329 18.3908 29.8498 19.5456 29.8498ZM19.5456 28.2241C18.6517 28.2241 17.8049 27.668 17.8433 26.6006C16.6565 26.9819 15.4251 26.3651 15.4251 25.1027C15.4251 23.8043 16.4413 23.0916 17.939 23.3545C17.5417 22.271 18.1033 20.8608 19.5456 20.8608C20.9369 20.8608 21.5868 22.204 21.2033 23.4239C22.3164 23.2962 23.0441 24.0415 23.0441 25.1562C23.0441 26.1408 22.3483 26.7827 21.1532 26.6752C21.1947 27.5817 20.3798 28.2241 19.5456 28.2241Z" fill="black"/>
</svg>
