<svg width="28" height="29" viewBox="0 0 28 29" fill="none" xmlns="http://www.w3.org/2000/svg">
<path d="M6.80577 26.6144H13.4238C12.7385 25.9816 12.1859 25.1895 11.8476 24.3164H7.00827C5.87928 24.3164 5.29592 23.7459 5.29592 22.6542V5.2284C5.29592 4.15589 5.86756 3.54488 7.00827 3.54488H19.0983C20.1984 3.54488 20.7989 4.14629 20.7989 5.2284V15.3513C21.6719 15.6874 22.4641 16.2305 23.0948 16.9254V5.09528C23.0948 2.55419 21.8013 1.24896 19.2912 1.24896H6.80577C4.30523 1.24896 3 2.5638 3 5.09528V22.7681C3 25.3092 4.30523 26.6144 6.80577 26.6144ZM8.7717 8.31769H17.3466C17.7694 8.31769 18.0942 7.98113 18.0942 7.55832C18.0942 7.14933 17.7694 6.8341 17.3466 6.8341H8.7717C8.32756 6.8341 8.01233 7.14933 8.01233 7.55832C8.01233 7.98113 8.32756 8.31769 8.7717 8.31769ZM8.7717 12.3157H17.3466C17.7694 12.3157 18.0942 11.9887 18.0942 11.5659C18.0942 11.1569 17.7694 10.8321 17.3466 10.8321H8.7717C8.32756 10.8321 8.01233 11.1569 8.01233 11.5659C8.01233 11.9887 8.32756 12.3157 8.7717 12.3157Z" fill="black"/>
<path d="M17.9322 26.6144C20.7837 26.6144 23.099 24.2991 23.099 21.4476C23.099 18.5833 20.7858 16.2658 17.9322 16.2658C15.0872 16.2658 12.7505 18.6026 12.7505 21.4476C12.7505 24.2991 15.0872 26.6144 17.9322 26.6144ZM17.9322 24.8332C16.054 24.8332 14.5296 23.3109 14.5296 21.4476C14.5296 19.5907 16.054 18.0567 17.9322 18.0567C19.7838 18.0567 21.3082 19.5907 21.3082 21.4476C21.3082 23.3109 19.7934 24.8332 17.9322 24.8332ZM24.0635 28.7423C24.6595 28.7423 25.114 28.2783 25.114 27.63C25.114 27.3469 24.9872 27.068 24.7669 26.8455L21.5932 23.6644L19.9741 25.1522L23.1595 28.3451C23.4471 28.6305 23.7302 28.7423 24.0635 28.7423Z" fill="black"/>
</svg>
