<svg width="28" height="28" viewBox="0 0 28 28" fill="none" xmlns="http://www.w3.org/2000/svg">
<path d="M14.105 26.21C20.7369 26.21 26.2121 20.7273 26.2121 14.105C26.2121 7.47312 20.7273 2 14.0954 2C7.47523 2 2 7.47312 2 14.105C2 20.7273 7.48484 26.21 14.105 26.21ZM14.105 23.8255C8.71085 23.8255 4.39412 19.4991 4.39412 14.105C4.39412 8.71085 8.70124 4.38452 14.0954 4.38452C19.4895 4.38452 23.8276 8.71085 23.8276 14.105C23.8276 19.4991 19.4991 23.8255 14.105 23.8255Z" fill="black"/>
<path d="M10.7321 20.2801C11.0495 20.2801 11.2463 20.1085 11.7495 19.6149L14.0431 17.348C14.0741 17.315 14.1188 17.315 14.1498 17.348L16.453 19.6149C16.9487 20.1085 17.1413 20.2801 17.4608 20.2801C17.9002 20.2801 18.1885 19.9609 18.1885 19.4457V9.74728C18.1885 8.60001 17.5794 7.98126 16.4342 7.98126H11.7566C10.6114 7.98126 10.0044 8.60001 10.0044 9.74728V19.4457C10.0044 19.9609 10.2927 20.2801 10.7321 20.2801Z" fill="black"/>
</svg>
