<svg width="28" height="30" viewBox="0 0 28 30" fill="none" xmlns="http://www.w3.org/2000/svg">
<path d="M10.232 29.9011H17.4132C21.5863 29.9011 23.68 27.7626 23.6448 23.5385C23.5979 18.8128 23.5745 15.3762 23.4552 12.7992C23.1111 5.14476 20.9162 2.86031 13.8264 2.86031C6.73864 2.86031 4.53411 5.14476 4.19004 12.7992C4.07075 15.3762 4.04731 18.8128 4.00044 23.5385C3.96528 27.7626 6.05684 29.9011 10.232 29.9011ZM10.232 27.8599C7.20246 27.8599 6.01394 26.648 6.03738 23.5619C6.08425 18.8383 6.11941 15.4294 6.23659 12.896C6.52535 6.32436 7.87464 4.90897 13.8264 4.90897C19.7706 4.90897 21.1199 6.32436 21.4182 12.896C21.5258 15.4294 21.561 18.8383 21.6079 23.5619C21.6313 26.648 20.4428 27.8599 17.4132 27.8599H10.232ZM13.8243 0C11.4857 0 9.87621 1.56984 9.87621 3.77906H11.7184C11.7184 2.61702 12.5732 1.81265 13.8243 1.81265C15.0679 1.81265 15.9322 2.61702 15.9322 3.77906H17.7723C17.7723 1.56984 16.1532 0 13.8243 0ZM10.0089 25.1447H17.646C18.7429 25.1447 19.4659 24.4216 19.4659 23.3386V17.4478C19.4659 16.3573 18.7429 15.6321 17.646 15.6321H10.0089C8.91621 15.6321 8.17934 16.3669 8.17934 17.4478V23.3386C8.17934 24.4099 8.91621 25.1447 10.0089 25.1447ZM10.3429 23.3585C10.1211 23.3585 9.97722 23.2146 9.97722 23.0067V17.7818C9.97722 17.5622 10.1211 17.4183 10.3429 17.4183H17.3024C17.5241 17.4183 17.668 17.5622 17.668 17.7818V23.0067C17.668 23.2146 17.5241 23.3585 17.3024 23.3585H10.3429ZM9.12738 20.4623H18.5178V18.8444H9.12738V20.4623Z" fill="black"/>
</svg>
