<svg width="43" height="28" viewBox="0 0 43 28" fill="none" xmlns="http://www.w3.org/2000/svg">
<path d="M21.3197 25.5862C27.5611 25.5862 32.6008 20.5368 32.6008 14.305C32.6008 8.0732 27.5611 3.02382 21.3197 3.02382C15.09 3.02382 10.0385 8.0732 10.0385 14.305C10.0385 20.5368 15.09 25.5862 21.3197 25.5862ZM21.3197 23.267C16.3687 23.267 12.3672 19.2559 12.3672 14.305C12.3672 9.36366 16.3687 5.36217 21.3197 5.36217C26.261 5.36217 30.2742 9.36366 30.2742 14.305C30.2742 19.2559 26.261 23.267 21.3197 23.267ZM11.5446 6.0482C11.7225 6.0482 11.8514 6.00249 12.0218 5.87359L16.1501 2.85086C16.3397 2.70062 16.4494 2.5164 16.4494 2.31086C16.4494 2.05633 16.328 1.84023 16.114 1.65062C15.618 1.2257 14.8148 1 14.0686 1C12.1739 1 10.65 2.49226 10.65 4.35297C10.65 4.83203 10.7362 5.27195 10.8598 5.56468C10.9908 5.85226 11.2432 6.0482 11.5446 6.0482ZM31.1086 6.0482C31.4004 6.0482 31.6528 5.84054 31.7913 5.56468C31.9265 5.28367 31.9915 4.83203 31.9915 4.35297C31.9915 2.49226 30.4772 1 28.5804 1C27.8266 1 27.0309 1.2257 26.535 1.65062C26.3135 1.84023 26.19 2.05633 26.19 2.31086C26.19 2.5164 26.3018 2.70062 26.501 2.85086L30.6293 5.87359C30.7997 6.00249 30.9265 6.0482 31.1086 6.0482ZM11.4237 25.393C11.8237 25.791 12.4633 25.7847 12.8709 25.3729L15.1891 23.0706L13.7716 21.6531L11.4333 23.9882C11.0299 24.3798 11.0395 25.0131 11.4237 25.393ZM31.2274 25.393C31.6094 25.0131 31.619 24.3798 31.2157 23.9882L28.8773 21.6531L27.4598 23.0706L29.7684 25.3729C30.1802 25.7804 30.8156 25.791 31.2274 25.393ZM16.2133 15.7513H21.3101C21.8294 15.7513 22.2211 15.348 22.2211 14.8382V8.00451C22.2211 7.49686 21.8294 7.10522 21.3101 7.10522C20.812 7.10522 20.4087 7.49686 20.4087 8.00451V13.9389H16.2133C15.7036 13.9389 15.3119 14.3326 15.3119 14.8382C15.3119 15.348 15.7036 15.7513 16.2133 15.7513Z" fill="black"/>
<path d="M8.05988 18.9852C8.44754 18.5296 8.29941 17.9643 7.91176 17.4372C7.26347 16.6173 6.92152 15.4923 6.92152 14.3348C6.92152 13.1772 7.26347 12.0405 7.91176 11.2281C8.2973 10.7032 8.44754 10.14 8.05988 9.68222C7.64785 9.1905 6.87723 9.18206 6.40168 9.75581C5.39692 10.975 4.82996 12.5973 4.82996 14.3348C4.82996 16.0722 5.39692 17.6945 6.40168 18.9095C6.87723 19.4854 7.64785 19.4673 8.05988 18.9852ZM34.5815 18.9852C34.9915 19.4673 35.7642 19.4854 36.2472 18.9095C37.2541 17.6945 37.819 16.0722 37.819 14.3348C37.819 12.5973 37.2541 10.975 36.2472 9.75581C35.7642 9.18206 34.9915 9.1905 34.5815 9.68222C34.1939 10.14 34.3516 10.7032 34.7276 11.2281C35.3758 12.0405 35.7274 13.1772 35.7274 14.3348C35.7274 15.4923 35.3758 16.6173 34.7276 17.4372C34.3495 17.9643 34.1939 18.5296 34.5815 18.9852Z" fill="black"/>
<path d="M4.64156 22.3441C5.03976 21.8842 4.91624 21.2934 4.47117 20.7897C2.94515 19.0963 2.09156 16.8226 2.09156 14.3348C2.09156 11.849 2.94304 9.57316 4.47117 7.88191C4.91835 7.37824 5.04398 6.78738 4.64156 6.32754C4.23281 5.84004 3.51539 5.82223 2.99836 6.38402C1.09313 8.44067 0 11.2933 0 14.3348C0 17.3805 1.0636 20.2044 2.99836 22.2876C3.51961 22.8473 4.23492 22.8241 4.64156 22.3441ZM37.9978 22.3441C38.4162 22.8241 39.1219 22.8473 39.6527 22.2876C41.5875 20.2044 42.6511 17.3805 42.6511 14.3348C42.6511 11.2933 41.5579 8.44067 39.6527 6.38402C39.1261 5.82223 38.4183 5.84004 37.9978 6.32754C37.6071 6.78738 37.7231 7.37824 38.1799 7.88191C39.7101 9.57527 40.5595 11.849 40.5595 14.3348C40.5595 16.8226 39.7038 19.0963 38.1799 20.7897C37.7252 21.2934 37.6092 21.8842 37.9978 22.3441Z" fill="black"/>
</svg>
