<svg width="28" height="28" viewBox="0 0 28 28" fill="none" xmlns="http://www.w3.org/2000/svg">
<path d="M3.38621 22.5429L5.86589 25.0226L7.09941 23.7752C10.0265 20.8088 13.7132 21.8864 16.9532 18.6464L25.5813 10.0163C27.6267 7.96339 27.6161 4.89074 25.5623 2.84652C23.5202 0.792697 20.4358 0.782151 18.3925 2.82754L9.76239 11.4598C6.34146 14.8828 7.59794 18.3685 4.64528 21.2956L3.38621 22.5429ZM8.54878 18.229C9.14996 16.4686 9.57722 14.6548 11.2673 12.9647L19.8975 4.33456C21.0794 3.143 22.8766 3.16104 24.067 4.34182C25.2499 5.53433 25.2679 7.32402 24.0785 8.51347L15.4462 17.1436C13.7444 18.8454 12.0009 19.3217 10.2916 19.9718L8.54878 18.229ZM1.58036 24.3509C0.798016 25.1311 0.815126 26.0866 1.58036 26.8402C2.32004 27.5937 3.30113 27.6012 4.07175 26.8284L4.67269 26.235L2.1759 23.7553L1.58036 24.3509ZM13.9954 14.4464C14.7112 15.1697 15.8524 15.1601 16.5778 14.4347L20.0294 10.9596C20.7761 10.2108 20.7707 9.08347 20.0294 8.3773C19.3061 7.63058 18.1767 7.6573 17.4471 8.3773L13.9954 11.8406C13.2679 12.5585 13.2562 13.7114 13.9954 14.4464ZM14.815 13.6151C14.5462 13.3463 14.5462 12.9387 14.815 12.6602L18.2667 9.19479C18.5067 8.95479 18.8662 8.93979 19.1254 9.15097C19.469 9.38886 19.5075 9.84238 19.2119 10.14L15.772 13.6055C15.4936 13.8743 15.0743 13.8743 14.815 13.6151ZM11.5312 15.5745L12.8322 16.8638C13.1475 17.179 13.5778 17.13 13.8323 16.8776C14.1103 16.6017 14.1454 16.1789 13.8323 15.8658L12.5313 14.5765C12.2278 14.2868 11.7954 14.2985 11.5312 14.5765C11.2788 14.8385 11.2298 15.2848 11.5312 15.5745ZM17.8064 4.25136L24.1554 10.6003L25.1906 9.55761L18.8374 3.1948L17.8064 4.25136Z" fill="black"/>
</svg>
