<svg width="41" height="28" viewBox="0 0 41 28" fill="none" xmlns="http://www.w3.org/2000/svg">
<path d="M37.5328 6.34317L25.8764 3.22293C23.7885 2.66372 22.2806 3.24989 21.6239 5.02528L21.5022 5.44693L22.8693 10.5574C24.1921 15.4854 23.0953 19.673 19.9961 22.3781C21.1846 24.2639 23.2385 25.6671 25.9317 26.384C31.8164 27.9508 36.2992 25.2094 37.9502 19.0636L40.1777 10.8354C40.7995 8.50879 39.8924 6.97246 37.5328 6.34317ZM25.6275 13.6894C24.8083 13.4838 24.3236 12.653 24.5463 11.8167C24.7689 10.9976 25.6019 10.515 26.421 10.7355C27.2402 10.9603 27.7249 11.8029 27.5118 12.6199C27.2849 13.4391 26.4541 13.9184 25.6275 13.6894ZM32.5064 15.5292C31.6968 15.3141 31.21 14.4715 31.4369 13.6448C31.65 12.8257 32.4808 12.3485 33.3 12.5754C34.1287 12.7809 34.6038 13.6193 34.3907 14.448C34.166 15.2693 33.3351 15.754 32.5064 15.5292ZM27.5917 20.0313C26.3814 19.702 25.18 19.6987 23.7475 19.9994C23.2661 20.1028 22.9954 19.714 23.2394 19.3357C24.2557 17.7748 26.2483 17.0932 28.2288 17.644C30.2669 18.1596 31.6361 19.7257 31.7085 21.588C31.7362 22.0526 31.3068 22.256 30.9405 21.9354C29.8289 20.9398 28.8117 20.3519 27.5917 20.0313Z" fill="black"/>
<path d="M14.442 23.3458C20.3396 21.7514 22.8755 17.1567 21.2192 10.9971L19.0151 2.74336C18.3922 0.43266 16.8399 -0.423275 14.4877 0.194302L2.8196 3.29321C0.455697 3.93211 -0.433285 5.43539 0.19601 7.79507L2.38835 16.0329C4.02757 22.185 8.53179 24.9244 14.442 23.3458ZM13.2645 18.8974C10.8153 19.5344 8.46592 18.6982 7.22256 16.7334C6.97014 16.3554 7.18952 15.9794 7.6899 16.0209C9.17256 16.1414 11.0051 15.8887 12.3664 15.517C13.7148 15.1624 15.4067 14.4806 16.6316 13.6331C17.0436 13.3329 17.4408 13.5405 17.4195 14.0294C17.3312 16.3416 15.7276 18.2198 13.2645 18.8974ZM7.39623 11.2509C6.51733 11.497 6.40014 12.0766 6.02936 12.1416C5.84725 12.1788 5.63631 11.9796 5.53084 11.6271C5.2517 10.6373 5.87819 9.57515 6.89233 9.32062C7.91397 9.0682 8.96116 9.67007 9.21475 10.6352C9.32233 10.9973 9.22858 11.2669 9.03686 11.333C8.61803 11.4769 8.20998 11.0337 7.39623 11.2509ZM14.5046 9.32788C13.6194 9.58359 13.5022 10.1557 13.1356 10.2068C12.9556 10.2462 12.7405 10.0491 12.6371 9.70406C12.3601 8.71968 12.9844 7.64999 13.9944 7.39968C15.0298 7.13015 16.0632 7.73742 16.3168 8.71218C16.4244 9.0839 16.3327 9.34382 16.1389 9.41202C15.7339 9.5496 15.3183 9.10101 14.5046 9.32788Z" fill="black"/>
</svg>
