<svg width="36" height="28" viewBox="0 0 36 28" fill="none" xmlns="http://www.w3.org/2000/svg">
<path d="M3.4493 24.9659H27.7617C29.9753 24.9659 31.211 23.7762 31.211 21.5613V11.5674L28.8897 13.8865V21.3851C28.8897 22.2987 28.3664 22.8263 27.4443 22.8263H3.76452C2.84248 22.8263 2.32123 22.2987 2.32123 21.3851V11.6077C2.32123 10.6836 2.84248 10.1665 3.76452 10.1665H22.9547L25.1039 8.02905H3.4493C1.23562 8.02905 0 9.21452 0 11.4336V21.5613C0 23.7762 1.23562 24.9659 3.4493 24.9659Z" fill="black"/>
<path d="M21.2703 17.0841L23.7411 16.0273L33.8502 5.92783L32.0249 4.11964L21.935 14.2212L20.8206 16.6226C20.694 16.8893 21.0013 17.2022 21.2703 17.0841ZM34.7469 5.02151L35.5942 4.16463C36.0549 3.68252 36.0751 3.03026 35.6185 2.58964L35.3014 2.27464C34.8927 1.87011 34.2245 1.92214 33.7775 2.36698L32.9366 3.19831L34.7469 5.02151Z" fill="black"/>
<path d="M6.65087 18.2328C7.6104 18.2328 8.38993 17.4532 8.38993 16.4916C8.38993 15.53 7.6104 14.7504 6.65087 14.7504C5.68501 14.7504 4.90759 15.53 4.90759 16.4916C4.90759 17.4532 5.68501 18.2328 6.65087 18.2328Z" fill="black"/>
<path d="M11.8219 18.2328C12.7835 18.2328 13.563 17.4532 13.563 16.4916C13.563 15.53 12.7835 14.7504 11.8219 14.7504C10.8602 14.7504 10.0807 15.53 10.0807 16.4916C10.0807 17.4532 10.8602 18.2328 11.8219 18.2328Z" fill="black"/>
<path d="M16.995 18.2328C17.9587 18.2328 18.7361 17.4532 18.7361 16.4916C18.7361 15.53 17.9587 14.7504 16.995 14.7504C16.0333 14.7504 15.2559 15.53 15.2559 16.4916C15.2559 17.4532 16.0333 18.2328 16.995 18.2328Z" fill="black"/>
</svg>
