<svg width="28" height="28" viewBox="0 0 28 28" fill="none" xmlns="http://www.w3.org/2000/svg">
<path d="M14.105 26.21C20.7369 26.21 26.2121 20.7273 26.2121 14.105C26.2121 7.47312 20.7273 2 14.0954 2C7.47523 2 2 7.47312 2 14.105C2 20.7273 7.48484 26.21 14.105 26.21ZM14.105 23.8255C8.71085 23.8255 4.39412 19.4991 4.39412 14.105C4.39412 8.71085 8.70124 4.38452 14.0954 4.38452C19.4895 4.38452 23.8276 8.71085 23.8276 14.105C23.8276 19.4991 19.4991 23.8255 14.105 23.8255Z" fill="black"/>
<path d="M12.8782 17.6914C15.5618 17.6914 17.7553 15.4979 17.7553 12.8143C17.7553 10.1349 15.5618 7.93929 12.8782 7.93929C10.1988 7.93929 8.00317 10.1445 8.00317 12.8143C8.00317 15.4883 10.1988 17.6914 12.8782 17.6914ZM12.8782 15.9605C11.159 15.9605 9.73192 14.5398 9.73192 12.8143C9.73192 11.093 11.159 9.67014 12.8782 9.67014C14.6015 9.67014 16.0148 11.0834 16.0148 12.8143C16.0148 14.5398 14.6015 15.9605 12.8782 15.9605ZM19.0933 20.1884C19.717 20.1884 20.1586 19.7255 20.1586 19.0805C20.1586 18.7857 20.0297 18.5122 19.8147 18.2898L16.2698 14.7235L14.6243 16.2495L18.2022 19.8158C18.4514 20.0724 18.7366 20.1884 19.0933 20.1884Z" fill="black"/>
</svg>
