<svg width="28" height="28" viewBox="0 0 28 28" fill="none" xmlns="http://www.w3.org/2000/svg">
<path d="M14.105 26.2301C20.7369 26.2301 26.2121 20.7549 26.2121 14.123C26.2121 7.50289 20.7273 2.01805 14.0954 2.01805C7.47523 2.01805 2 7.50289 2 14.123C2 20.7549 7.48484 26.2301 14.105 26.2301Z" fill="black"/>
<path d="M10.9721 16.633C10.118 16.633 9.63241 16.1431 9.63241 15.2326V13.0168C9.63241 12.6776 9.76156 12.3941 9.92164 12.2225H9.99851L16.7239 18.9404L16.614 19.2884C16.5106 19.3909 16.3752 19.4795 16.1928 19.4795C15.8872 19.4795 15.6305 19.3538 15.3366 19.0759L12.8023 16.6756C12.7618 16.6426 12.7191 16.633 12.653 16.633H10.9721ZM13.3245 11.0919L15.3366 9.19905C15.6636 8.89765 15.8797 8.76663 16.1832 8.76663C16.6229 8.76663 16.9496 9.11796 16.9496 9.55014V14.7212L13.3245 11.0919ZM19.6041 20.48L7.73843 8.62811C7.5139 8.38647 7.50429 7.99483 7.73843 7.76069C7.98429 7.51483 8.37803 7.51483 8.62178 7.76069L20.4716 19.6105C20.7078 19.8542 20.7078 20.2341 20.4716 20.48C20.2374 20.7162 19.8362 20.7045 19.6041 20.48Z" fill="white"/>
</svg>
