<svg width="29" height="29" viewBox="0 0 29 29" fill="none" xmlns="http://www.w3.org/2000/svg">
<path d="M2.91749 28.7655H10.3983C12.1947 28.7655 13.3158 27.6541 13.3158 25.8886V2.87694C13.3158 1.1114 12.1947 0 10.3983 0H2.91749C1.12101 0 0 1.1114 0 2.87694V25.8886C0 27.6541 1.12101 28.7655 2.91749 28.7655ZM3.09397 26.4928C2.57952 26.4928 2.27061 26.1785 2.27061 25.6523V3.11319C2.27061 2.58702 2.57952 2.27061 3.09397 2.27061H10.2218C10.7362 2.27061 11.0451 2.58702 11.0451 3.11319V25.6523C11.0451 26.1785 10.7362 26.4928 10.2218 26.4928H3.09397ZM9.2503 9.67897C9.59952 9.67897 9.87631 9.39045 9.87631 9.04335V4.47772C9.87631 4.13272 9.59952 3.84209 9.2503 3.84209C8.89147 3.84209 8.61257 4.13272 8.61257 4.47772V9.04335C8.61257 9.39045 8.89147 9.67897 9.2503 9.67897ZM6.77507 9.67897C7.11257 9.67897 7.39686 9.39045 7.39686 9.04335V4.47772C7.39686 4.13272 7.11257 3.84209 6.77507 3.84209C6.41624 3.84209 6.12773 4.13272 6.12773 4.47772V9.04335C6.12773 9.39045 6.41624 9.67897 6.77507 9.67897ZM9.2503 17.2596C9.59952 17.2596 9.87631 16.9828 9.87631 16.6219V12.0605C9.87631 11.7112 9.59952 11.4344 9.2503 11.4344C8.89147 11.4344 8.61257 11.7112 8.61257 12.0605V16.6219C8.61257 16.9828 8.89147 17.2596 9.2503 17.2596ZM6.77507 17.2596C7.11257 17.2596 7.39686 16.9828 7.39686 16.6219V12.0605C7.39686 11.7112 7.11257 11.4344 6.77507 11.4344C6.41624 11.4344 6.12773 11.7112 6.12773 12.0605V16.6219C6.12773 16.9828 6.41624 17.2596 6.77507 17.2596ZM9.2503 24.8637C9.59952 24.8637 9.87631 24.5751 9.87631 24.2376V19.6741C9.87631 19.3153 9.59952 19.0385 9.2503 19.0385C8.89147 19.0385 8.61257 19.3153 8.61257 19.6741V24.2376C8.61257 24.5751 8.89147 24.8637 9.2503 24.8637ZM6.77507 24.8637C7.11257 24.8637 7.39686 24.5751 7.39686 24.2376V19.6741C7.39686 19.3153 7.11257 19.0385 6.77507 19.0385C6.41624 19.0385 6.12773 19.3153 6.12773 19.6741V24.2376C6.12773 24.5751 6.41624 24.8637 6.77507 24.8637Z" fill="black"/>
<path d="M18.6228 9.1205C18.9144 9.1205 19.1209 8.86082 19.0869 8.56504L19.0072 7.60293L19.8031 8.16215C20.0319 8.32269 20.3619 8.27582 20.5131 8.02152C20.6781 7.77145 20.5599 7.43301 20.2705 7.32121L19.4021 6.91293L20.2939 6.48871C20.5567 6.36098 20.6706 6.05442 20.5269 5.79473C20.3907 5.55215 20.0373 5.48395 19.7893 5.6616L19.0114 6.21239L19.0965 5.25871C19.1305 4.96293 18.924 4.70325 18.6228 4.70325C18.3099 4.70325 18.1014 4.94371 18.1353 5.2491L18.2087 6.21989L17.4116 5.65949C17.1636 5.49145 16.8486 5.53504 16.7049 5.79473C16.5517 6.05442 16.6602 6.36941 16.9304 6.49082L17.8051 6.90871L16.9379 7.31371C16.6581 7.42762 16.5421 7.75434 16.6974 8.02152C16.8336 8.27582 17.1615 8.32269 17.4116 8.16215L18.2087 7.60926L18.1449 8.56504C18.1227 8.87043 18.3196 9.1205 18.6228 9.1205ZM25.4052 23.9897C25.7063 23.9897 25.9224 23.7492 25.8884 23.4438L25.8151 22.4805L26.6122 23.0409C26.8506 23.2068 27.1752 23.16 27.3092 22.9078C27.4646 22.6385 27.3582 22.3319 27.0859 22.2138L26.2154 21.7896L27.0741 21.3717C27.3636 21.2695 27.4721 20.9407 27.3263 20.6714C27.1944 20.4171 26.8548 20.3606 26.6143 20.5308L25.8088 21.0879L25.8788 20.1279C25.9032 19.8225 25.6967 19.582 25.4052 19.582C25.1136 19.582 24.9071 19.8321 24.939 20.1279L25.0124 21.0933L24.2152 20.5404C23.994 20.3798 23.6661 20.4267 23.5107 20.6714C23.3436 20.9172 23.4617 21.2653 23.7512 21.3792L24.6184 21.7938L23.7341 22.2117C23.4734 22.3331 23.3532 22.6385 23.499 22.9078C23.6309 23.1483 23.9865 23.2207 24.2248 23.043L25.0124 22.4922L24.9294 23.4342C24.8933 23.7279 25.104 23.9897 25.4052 23.9897ZM18.0901 12.9527C21.3477 12.9527 22.9923 10.3465 25.7438 10.3465C26.3809 10.3465 26.9094 10.4796 27.5774 10.8525C28.0372 11.1101 28.4776 10.946 28.7052 10.6216C28.9859 10.2122 28.9266 9.62699 28.3646 9.30871C27.5595 8.83481 26.6799 8.59949 25.7438 8.59949C22.4499 8.59949 20.8053 11.2153 18.0901 11.2153C17.4552 11.2153 16.9267 11.0726 16.2491 10.6901C15.8064 10.4379 15.35 10.5987 15.1171 10.9561C14.8618 11.3517 14.919 11.9369 15.4597 12.2435C16.2648 12.7366 17.154 12.9527 18.0901 12.9527ZM18.1018 16.5583C21.3477 16.5583 23.0019 13.9563 25.7438 13.9563C26.3905 13.9563 26.919 14.0852 27.5891 14.4623C28.0372 14.7157 28.4872 14.5537 28.7148 14.2294C28.9859 13.8241 28.9363 13.2347 28.3838 12.9143C27.5692 12.4425 26.6799 12.2093 25.7438 12.2093C22.4595 12.2093 20.8149 14.8209 18.1018 14.8209C17.4552 14.8209 16.9267 14.6824 16.2587 14.3074C15.816 14.0456 15.35 14.2064 15.1171 14.5659C14.8618 14.9615 14.919 15.5426 15.4714 15.8533C16.2744 16.3444 17.1657 16.5583 18.1018 16.5583ZM18.0901 20.1682C21.3477 20.1682 22.9923 17.564 25.7438 17.564C26.3809 17.564 26.9094 17.6951 27.5774 18.0818C28.0372 18.3351 28.4776 18.1636 28.7052 17.8392C28.9859 17.434 28.9266 16.8424 28.3646 16.5241C27.5595 16.0502 26.6799 15.817 25.7438 15.817C22.4499 15.817 20.8053 18.4308 18.0901 18.4308C17.4552 18.4308 16.9267 18.2901 16.2491 17.9151C15.8064 17.6555 15.35 17.8162 15.1171 18.1737C14.8618 18.5693 14.919 19.162 15.4597 19.4707C16.2648 19.9542 17.154 20.1682 18.0901 20.1682Z" fill="black"/>
</svg>
