<svg width="28" height="28" viewBox="0 0 28 28" fill="none" xmlns="http://www.w3.org/2000/svg">
<path d="M14.105 24.9566C15.1435 24.9566 16.1448 24.8033 17.079 24.4934V10.1984C17.079 9.35937 16.6009 8.81726 15.7894 8.81726H8.18561C7.37749 8.81726 6.89186 9.35937 6.89186 10.1984V21.7672C8.66608 23.7322 11.2278 24.9566 14.105 24.9566ZM9.61413 21.7897C9.45218 21.7897 9.34671 21.6704 9.34671 21.5084V20.2705C9.34671 20.1085 9.45218 19.9955 9.61413 19.9955H10.8851C11.0375 19.9955 11.1643 20.1085 11.1643 20.2705V21.5084C11.1643 21.6704 11.0375 21.7897 10.8851 21.7897H9.61413ZM13.0665 21.7897C12.9087 21.7897 12.7991 21.6704 12.7991 21.5084V20.2705C12.7991 20.1085 12.9087 19.9955 13.0665 19.9955H14.3417C14.4994 19.9955 14.6166 20.1085 14.6166 20.2705V21.5084C14.6166 21.6704 14.4994 21.7897 14.3417 21.7897H13.0665ZM9.61413 18.7466C9.45218 18.7466 9.34671 18.6273 9.34671 18.4674V17.2231C9.34671 17.075 9.45218 16.9461 9.61413 16.9461H10.8851C11.0375 16.9461 11.1643 17.075 11.1643 17.2231V18.4674C11.1643 18.6273 11.0375 18.7466 10.8851 18.7466H9.61413ZM13.0665 18.7466C12.9087 18.7466 12.7991 18.6273 12.7991 18.4674V17.2231C12.7991 17.075 12.9087 16.9461 13.0665 16.9461H14.3417C14.4994 16.9461 14.6166 17.075 14.6166 17.2231V18.4674C14.6166 18.6273 14.4994 18.7466 14.3417 18.7466H13.0665ZM9.61413 15.6971C9.45218 15.6971 9.34671 15.5778 9.34671 15.418V14.1854C9.34671 14.0255 9.45218 13.8945 9.61413 13.8945H10.8851C11.0375 13.8945 11.1643 14.0255 11.1643 14.1854V15.418C11.1643 15.5778 11.0375 15.6971 10.8851 15.6971H9.61413ZM13.0665 15.6971C12.9087 15.6971 12.7991 15.5778 12.7991 15.418V14.1854C12.7991 14.0255 12.9087 13.8945 13.0665 13.8945H14.3417C14.4994 13.8945 14.6166 14.0255 14.6166 14.1854V15.418C14.6166 15.5778 14.4994 15.6971 14.3417 15.6971H13.0665ZM9.61413 12.6765C9.45218 12.6765 9.34671 12.5539 9.34671 12.4016V11.1594C9.34671 10.9899 9.45218 10.8823 9.61413 10.8823H10.8851C11.0375 10.8823 11.1643 10.9899 11.1643 11.1594V12.4016C11.1643 12.5539 11.0375 12.6765 10.8851 12.6765H9.61413ZM13.0665 12.6765C12.9087 12.6765 12.7991 12.5539 12.7991 12.4016V11.1594C12.7991 10.9899 12.9087 10.8823 13.0665 10.8823H14.3417C14.4994 10.8823 14.6166 10.9899 14.6166 11.1594V12.4016C14.6166 12.5539 14.4994 12.6765 14.3417 12.6765H13.0665ZM17.993 24.1306C19.8001 23.3368 21.3624 22.0098 22.3794 20.3394V13.1361C22.3794 12.2832 21.8959 11.757 21.0877 11.757H17.993V24.1306ZM19.6749 20.2848C19.5406 20.2848 19.4427 20.1889 19.4427 20.0717V19.0623C19.4427 18.9472 19.5385 18.83 19.6749 18.83H20.709C20.8304 18.83 20.9262 18.9451 20.9262 19.0623V20.0717C20.9262 20.1889 20.8304 20.2848 20.709 20.2848H19.6749ZM19.6749 17.7141C19.5385 17.7141 19.4427 17.6183 19.4427 17.4819V16.4959C19.4427 16.3573 19.5385 16.2711 19.6749 16.2711H20.709C20.8325 16.2711 20.9262 16.3552 20.9262 16.4959V17.4819C20.9262 17.6204 20.8325 17.7141 20.709 17.7141H19.6749ZM19.6749 15.1456C19.5385 15.1456 19.4427 15.0519 19.4427 14.9176V13.9198C19.4427 13.793 19.5385 13.6972 19.6749 13.6972H20.709C20.8325 13.6972 20.9262 13.7888 20.9262 13.9198V14.9176C20.9262 15.0561 20.8304 15.1456 20.709 15.1456H19.6749ZM14.105 26.21C20.7369 26.21 26.2121 20.7273 26.2121 14.105C26.2121 7.47312 20.7273 2 14.0954 2C7.47523 2 2 7.47312 2 14.105C2 20.7273 7.48484 26.21 14.105 26.21ZM14.105 23.8255C8.71085 23.8255 4.39412 19.4991 4.39412 14.105C4.39412 8.71085 8.70124 4.38452 14.0954 4.38452C19.4895 4.38452 23.8276 8.71085 23.8276 14.105C23.8276 19.4991 19.4991 23.8255 14.105 23.8255Z" fill="black"/>
</svg>
