<svg width="29" height="28" viewBox="0 0 29 28" fill="none" xmlns="http://www.w3.org/2000/svg">
<path d="M14.0801 4.91152C15.0304 4.91152 15.7776 4.06964 15.7776 2.99246C15.7776 1.92348 15.438 1.2145 14.8481 0.530829C14.4161 -0.0096361 13.8047 -0.0213549 13.3589 0.456298C12.7774 1.16129 12.3825 1.87778 12.3825 2.99246C12.3825 4.06964 13.1435 4.91152 14.0801 4.91152ZM13.2729 10.4658H14.8563V3.37918H13.2729V10.4658ZM6.08812 14.0615H22.0699V13.2686C22.0699 10.7859 20.7818 9.50949 18.2618 9.50949H9.89623C7.38796 9.50949 6.08812 10.7838 6.08812 13.2686V14.0615ZM1.98023 26.7888H26.1682V19.4756C26.1682 16.9908 24.88 15.7165 22.3697 15.7165H5.79045C3.28007 15.7165 1.98023 16.9886 1.98023 19.4756V26.7888ZM14.0704 21.6325C12.8786 21.6325 12.0098 23.0573 10.2897 23.0573C8.61983 23.0573 7.79155 21.6325 6.66913 21.6325C5.50429 21.6325 4.6971 23.0573 2.45507 23.0573H1.98023V21.4387H2.45507C4.15921 21.4387 5.02054 20.014 6.66913 20.014C8.28889 20.014 8.97233 21.4387 10.2897 21.4387C11.7961 21.4387 12.4197 20.014 14.0704 20.014C15.719 20.014 16.3448 21.4387 17.8586 21.4387C19.1761 21.4387 19.852 20.014 21.4814 20.014C23.1086 20.014 23.9796 21.4387 25.6762 21.4387H26.1682V23.0573H25.6762C23.4417 23.0573 22.6249 21.6325 21.4814 21.6325C20.3397 21.6325 19.5211 23.0573 17.8586 23.0573C16.129 23.0573 15.2505 21.6325 14.0704 21.6325ZM1.10624 27.6618H27.0421C27.6527 27.6618 28.1484 27.1544 28.1484 26.546C28.1484 25.9354 27.6527 25.4397 27.0421 25.4397H1.10624C0.4957 25.4397 0 25.9354 0 26.546C0 27.1544 0.4957 27.6618 1.10624 27.6618Z" fill="black"/>
</svg>
