<svg width="28" height="28" viewBox="0 0 28 28" fill="none" xmlns="http://www.w3.org/2000/svg">
<path d="M6.84421 24.8972H21.0295C23.5685 24.8972 24.8737 23.5919 24.8737 21.0914V6.82921C24.8737 4.32656 23.5685 3.02344 21.0295 3.02344H6.84421C4.31484 3.02344 3 4.31695 3 6.82921V21.0914C3 23.6016 4.31484 24.8972 6.84421 24.8972Z" fill="black"/>
<path d="M10.9668 20.9875C10.0896 20.9875 9.58168 20.5136 9.55191 19.6384L9.13637 10.3429H8.22371C7.90238 10.3429 7.63426 10.097 7.63848 9.77572C7.6448 9.44057 7.90238 9.18721 8.22371 9.18721H11.0013V8.30525C11.0013 7.26791 11.6828 6.62244 12.8146 6.62244H15.1214C16.2436 6.62244 16.9423 7.26791 16.9423 8.30525V9.18721H19.7027C20.0379 9.18721 20.2955 9.44057 20.2859 9.77572C20.2762 10.097 20.0379 10.3429 19.7027 10.3429H18.821L18.413 19.6384C18.3736 20.5136 17.8486 20.9875 16.9788 20.9875H10.9668ZM11.9149 19.1209C12.1907 19.1209 12.3557 18.9409 12.3536 18.6939L12.1298 11.7827C12.1277 11.5047 11.936 11.3439 11.6836 11.3439C11.3939 11.3439 11.2235 11.5164 11.2256 11.789L11.4611 18.6981C11.4632 18.943 11.6625 19.1209 11.9149 19.1209ZM13.9605 19.1209C14.2385 19.1209 14.4164 18.943 14.4164 18.6981V11.7785C14.4164 11.5101 14.2385 11.3439 13.9605 11.3439C13.6709 11.3439 13.5047 11.5101 13.5047 11.7785V18.6981C13.5047 18.943 13.6805 19.1209 13.9605 19.1209ZM15.9944 19.1209C16.2469 19.1209 16.4461 18.943 16.4482 18.6981L16.6816 11.789C16.6837 11.5164 16.5251 11.3439 16.2375 11.3439C15.9734 11.3439 15.7912 11.5047 15.7795 11.7827L15.5557 18.6939C15.5536 18.9409 15.7261 19.1209 15.9944 19.1209ZM12.314 9.18721H15.6049V8.34697C15.6049 8.04111 15.3823 7.84189 15.0584 7.84189H12.8606C12.5388 7.84189 12.314 8.04111 12.314 8.34697V9.18721Z" fill="white"/>
</svg>
