<svg width="28" height="29" viewBox="0 0 28 29" fill="none" xmlns="http://www.w3.org/2000/svg">
<path d="M1.5029 26.9327C3.52087 28.9485 6.5143 29.0146 8.49711 26.6706C10.0414 24.8388 13.3831 19.3303 16.4741 16.2393C18.4559 14.2574 20.6698 15.3386 23.0579 14.3676L21.0509 7.02815C20.8112 6.1469 21.1766 5.41167 22.1752 5.13675L26.6879 3.90159C26.5325 3.42183 26.131 2.75176 25.5851 2.19418C22.8001 -0.654878 18.1801 -0.709018 15.4154 1.91293C11.3823 5.75433 14.3682 9.71597 11.8883 12.1917C8.66235 15.408 4.1818 17.7623 1.76071 19.9289C-0.550221 21.9832 -0.534284 24.8976 1.5029 26.9327ZM4.96485 24.8763C4.19117 24.8763 3.5518 24.2465 3.5518 23.4707C3.5518 22.6971 4.19117 22.0577 4.96485 22.0577C5.74274 22.0577 6.3704 22.6971 6.3704 23.4707C6.3704 24.2465 5.74274 24.8763 4.96485 24.8763ZM16.0501 9.20949C15.788 9.2798 15.5612 9.14878 15.4813 8.87175C15.413 8.65449 15.5558 8.39667 15.8019 8.32847L18.5145 7.60074C18.7372 7.54214 18.9887 7.68277 19.0536 7.92675C19.1398 8.19417 18.9833 8.43277 18.7372 8.50097L16.0501 9.20949ZM16.3953 10.5871C16.1354 10.6575 15.9106 10.5243 15.8211 10.2473C15.7487 10.0321 15.901 9.77433 16.1471 9.71574L18.8502 8.97839C19.0728 8.92941 19.3264 9.05831 19.3967 9.30441C19.4809 9.57394 19.3189 9.81042 19.0728 9.87863L16.3953 10.5871ZM16.7309 11.9627C16.4848 12.033 16.2228 11.902 16.1759 11.625C16.1195 11.3864 16.2526 11.1616 16.5041 11.0934L19.1975 10.3753C19.4553 10.2953 19.6993 10.4456 19.7504 10.6778C19.8132 10.9164 19.6663 11.1721 19.4436 11.2307L16.7309 11.9627ZM24.4587 13.7081C24.9073 13.428 25.3571 13.0722 25.8101 12.6278C27.2825 11.2328 28.021 9.15605 27.6636 7.5745L24.098 8.56824C23.7249 8.66949 23.4146 8.69082 23.083 8.64067L24.4587 13.7081Z" fill="black"/>
</svg>
