<svg width="28" height="28" viewBox="0 0 28 28" fill="none" xmlns="http://www.w3.org/2000/svg">
<path d="M14.105 26.2301C20.7369 26.2301 26.2121 20.7549 26.2121 14.123C26.2121 7.50291 20.7273 2.01807 14.0954 2.01807C7.47523 2.01807 2 7.50291 2 14.123C2 20.7549 7.48484 26.2301 14.105 26.2301Z" fill="black"/>
<path d="M9.47436 19.5687C8.19702 19.5687 7.17749 18.5396 7.17749 17.2602C7.17749 15.9945 8.19702 14.9708 9.47436 14.9708C10.5291 14.9708 10.6922 15.3959 11.1727 15.3959C11.2685 15.3959 11.3484 15.3704 11.4837 15.3076L12.2477 14.8988C12.6961 14.6539 12.8325 14.5271 12.907 14.2341L13.0242 13.824C13.1967 13.1987 13.5206 12.8525 14.1949 12.5947L18.9736 10.8793C20.4225 10.3541 21.3459 10.5606 21.5644 11.4371L12.1481 16.426C11.8052 16.6102 11.7734 16.7881 11.7734 17.2602C11.7734 18.5492 10.7559 19.5687 9.47436 19.5687ZM9.47436 18.5246C10.1716 18.5246 10.7388 17.9649 10.7388 17.258C10.7388 16.5608 10.1716 16.0032 9.47436 16.0032C8.78671 16.0032 8.21952 16.5608 8.21952 17.258C8.21952 17.9649 8.78671 18.5246 9.47436 18.5246ZM14.3175 14.2459C14.5572 14.2459 14.7736 14.0509 14.7736 13.7973C14.7736 13.5479 14.5572 13.3604 14.3175 13.3604C14.0777 13.3604 13.8689 13.5479 13.8689 13.7973C13.8689 14.0509 14.0777 14.2459 14.3175 14.2459ZM13.1742 12.3652C12.8217 12.6378 12.584 12.9744 12.4263 13.4366L11.4837 12.9535C11.3569 12.8811 11.2727 12.8576 11.1748 12.8576C10.6816 12.8576 10.5291 13.269 9.47436 13.269C8.19702 13.269 7.17749 12.2591 7.17749 10.9817C7.17749 9.70649 8.19702 8.67102 9.47436 8.67102C10.7517 8.67102 11.7734 9.69477 11.7734 10.9817C11.7734 11.4793 11.8148 11.6295 12.2058 11.8522L13.1742 12.3652ZM9.47436 12.2366C10.1716 12.2366 10.7388 11.6769 10.7388 10.9817C10.7388 10.2727 10.1716 9.71515 9.47436 9.71515C8.78671 9.71515 8.21952 10.2727 8.21952 10.9817C8.21952 11.6769 8.78671 12.2366 9.47436 12.2366ZM14.8052 15.8063L17.2432 14.5208L21.5644 16.8017C21.3438 17.69 20.4129 17.9019 18.9736 17.3574L14.8052 15.8063Z" fill="white"/>
</svg>
