<svg width="28" height="28" viewBox="0 0 28 28" fill="none" xmlns="http://www.w3.org/2000/svg">
<path d="M19.6051 26.5419V4.0989C19.6051 2.1032 18.5019 1 16.5158 1H6.98187C4.97656 1 3.90429 2.1032 3.90429 4.0989V26.5419H19.6051ZM7.42554 13.5318C6.59749 13.5318 6.08819 13.0715 6.08819 12.318V4.41906C6.08819 3.66343 6.59538 3.19562 7.42554 3.19562H16.0721C16.9023 3.19562 17.4191 3.66343 17.4191 4.41906V12.318C17.4191 13.0715 16.9001 13.5318 16.0721 13.5318H7.42554ZM2 26.3334C2 26.943 2.47976 27.4441 3.07976 27.4441H20.4083C21.0083 27.4441 21.5072 26.943 21.5072 26.3334C21.5072 25.7451 21.0062 25.2536 20.4083 25.2536H3.07976C2.49148 25.2536 2 25.7355 2 26.3334ZM18.6858 16.6572H19.7961C20.2824 16.6572 20.5885 16.9366 20.5885 17.4613V21.3234C20.5885 23.0275 21.6406 24.0796 23.349 24.0796C25.0456 24.0796 26.0881 23.0275 26.0881 21.3234V6.93625C26.0881 6.21203 25.8922 5.64133 25.5376 5.07484L23.9321 2.47328C23.2712 1.41649 21.7163 2.34578 22.3899 3.43117L23.7083 5.57547C23.8562 5.81383 23.8423 6.09789 23.6827 6.33203L22.1898 8.41539C21.6626 9.14054 21.7287 9.84742 22.2898 10.5086L24.2586 12.7895V21.3234C24.2586 21.8971 23.9152 22.2522 23.349 22.2522C22.7614 22.2522 22.418 21.8971 22.418 21.3234V17.4613C22.418 15.8041 21.4128 14.8298 19.7961 14.8298H18.6858V16.6572Z" fill="black"/>
</svg>
