<svg width="28" height="28" viewBox="0 0 28 28" fill="none" xmlns="http://www.w3.org/2000/svg">
<path d="M14.105 26.21C20.7369 26.21 26.2121 20.7273 26.2121 14.105C26.2121 7.47312 20.7273 2 14.0954 2C7.47523 2 2 7.47312 2 14.105C2 20.7273 7.48484 26.21 14.105 26.21Z" fill="black"/>
<path d="M7.68677 14.105C7.68677 13.5041 7.77419 12.9116 7.93614 12.3596C8.38474 12.4651 8.8195 12.6015 9.24677 12.8178L9.13802 13.0215C9.00489 13.2526 9.08903 13.5209 9.3063 13.6189C9.50435 13.7286 9.75677 13.6721 9.88239 13.4485L9.99864 13.2331C10.2044 13.3536 10.4006 13.5092 10.5829 13.6564L10.4709 13.7609C10.3122 13.9292 10.3218 14.2114 10.4826 14.3701C10.6647 14.533 10.9214 14.5426 11.0939 14.3797L11.2059 14.2676C11.4096 14.4755 11.5769 14.709 11.7539 14.9382L11.5971 15.031C11.3894 15.1449 11.317 15.4271 11.4426 15.6209C11.5619 15.8319 11.8143 15.8989 12.0145 15.7892L12.1713 15.6943C12.3014 15.9469 12.4005 16.1975 12.4976 16.4598L12.2747 16.5141C12.0511 16.5769 11.9158 16.8177 11.9786 17.0584C12.0276 17.2766 12.2672 17.4226 12.4919 17.3619L12.719 17.2979C12.7542 17.5719 12.7851 17.8245 12.799 18.0793L12.5836 18.0697C12.3311 18.0697 12.1565 18.2848 12.1469 18.5159C12.1469 18.7437 12.3258 18.9451 12.5643 18.9547L12.7872 18.9643C12.7329 19.4225 12.6487 19.8732 12.5027 20.3218C9.757 19.5814 7.68677 17.052 7.68677 14.105ZM14.1145 20.5444C13.8321 20.5444 13.5572 20.5231 13.2726 20.4784C13.4325 19.9925 13.5283 19.4832 13.5923 18.9739L13.8726 18.9835C14.1133 18.9835 14.2997 18.7876 14.2997 18.5544C14.2997 18.3233 14.1229 18.1081 13.8822 18.0985H13.6158C13.6019 17.7713 13.5689 17.4249 13.5103 17.1019L13.7651 17.0337C13.9886 16.9752 14.1197 16.7323 14.0686 16.4895C14.0079 16.2638 13.7726 16.1253 13.5436 16.1839L13.3005 16.2638C13.1918 15.9249 13.0671 15.6019 12.9093 15.2886L13.1704 15.1426C13.3898 15.0212 13.4463 14.7432 13.3291 14.5494C13.2035 14.3354 12.9543 14.2501 12.7434 14.379L12.4727 14.5229C12.2702 14.2137 12.0347 13.9409 11.7895 13.6723L12.0154 13.4368C12.19 13.2718 12.1837 13.0076 12.0058 12.8511C11.812 12.6744 11.5746 12.669 11.4084 12.833L11.1569 13.0611C10.9256 12.8745 10.6708 12.6741 10.3947 12.5185L10.5173 12.3064C10.6387 12.0966 10.5588 11.825 10.3469 11.7228C10.1372 11.6068 9.87841 11.6738 9.76122 11.8869L9.63653 12.1011C9.17622 11.8805 8.69997 11.7186 8.20239 11.6035C9.18255 9.31811 11.4797 7.66553 14.1049 7.66553C14.3681 7.66553 14.6388 7.68897 14.902 7.7199C14.7539 8.22709 14.6409 8.72467 14.594 9.23397L14.3564 9.22436C14.1061 9.22647 13.9122 9.4299 13.9122 9.65561C13.9059 9.8942 14.0805 10.0997 14.3254 10.1094H14.5823C14.594 10.4227 14.6175 10.7436 14.6815 11.0548L14.3564 11.1326C14.104 11.1976 13.9901 11.4383 14.0508 11.6597C14.1136 11.8887 14.3287 12.0378 14.564 11.9633L14.8816 11.8854C14.9808 12.2298 15.1289 12.5708 15.2824 12.9055L15.0255 13.0515C14.8317 13.1516 14.7785 13.4178 14.8786 13.6372C14.9904 13.8331 15.247 13.9194 15.4643 13.7959L15.7115 13.6498C15.9098 13.944 16.1219 14.218 16.3671 14.4887L16.1826 14.6635C16.024 14.8297 16.0411 15.0959 16.2157 15.2609C16.3797 15.4079 16.646 15.4355 16.811 15.2705L16.9976 15.084C17.2565 15.2982 17.5326 15.5103 17.8247 15.6777L17.6925 15.9015C17.5786 16.1112 17.6531 16.3775 17.8565 16.4989C18.0642 16.6224 18.3347 16.5287 18.4443 16.321L18.5808 16.0855C19.0453 16.3039 19.5311 16.468 20.0522 16.5692C19.0624 18.8898 16.7536 20.5444 14.1145 20.5444ZM20.554 14.105C20.554 14.7038 20.4761 15.275 20.3067 15.8194C19.8464 15.7332 19.3999 15.5968 18.963 15.3901L19.0718 15.1885C19.1932 14.9691 19.1208 14.7221 18.9014 14.6007C18.7129 14.4793 18.435 14.5688 18.3274 14.7807L18.2208 14.9727C17.9894 14.8405 17.7815 14.6752 17.5736 14.5025L17.7389 14.3394C17.921 14.153 17.8837 13.873 17.7347 13.7323C17.5493 13.5619 17.3118 13.5343 17.1159 13.7323L16.957 13.8912C16.7704 13.6834 16.6073 13.4637 16.44 13.2324L16.5968 13.1396C16.7981 13.032 16.8672 12.8009 16.7554 12.5656C16.6458 12.3559 16.3753 12.2717 16.1697 12.3952L16.0247 12.4784C15.8829 12.2119 15.7837 11.9476 15.6825 11.6874L15.8393 11.633C16.065 11.5723 16.2014 11.3445 16.1311 11.1197C16.0725 10.8812 15.8531 10.7417 15.6061 10.8066L15.4748 10.8354C15.4322 10.5966 15.4108 10.3578 15.3895 10.1286L15.6379 10.1382C15.8786 10.1382 16.0629 9.94647 16.0629 9.69404C16.0725 9.47045 15.8904 9.2649 15.6551 9.2553L15.3949 9.24569C15.4514 8.78326 15.543 8.32506 15.6911 7.86686C18.4549 8.5967 20.554 11.1378 20.554 14.105Z" fill="white"/>
</svg>
