<svg width="43" height="28" viewBox="0 0 43 28" fill="none" xmlns="http://www.w3.org/2000/svg">
<path d="M21.909 11.9656L23.1732 14.1495L23.5812 13.4346C24.0898 13.635 24.8525 13.9027 25.7016 14.3806C28.4405 15.9739 29.5939 18.5775 32.4666 20.2451C33.3652 20.7764 34.3109 21.1503 35.0403 21.2302C35.922 21.3164 36.6835 21.0418 37.2109 20.1277L41.9209 11.9745C42.3411 11.235 42.0261 10.5268 41.3272 10.1161C40.7968 9.81473 39.728 9.5452 38.528 8.85356C35.7795 7.26989 34.6358 4.65661 31.7609 2.98903C30.8644 2.46731 29.9091 2.09559 29.1873 2.01356C28.3077 1.93153 27.5483 2.21161 27.0188 3.12989L21.909 11.9656ZM24.7158 11.4823L28.8905 4.25018C29.6204 4.29377 30.3716 4.72807 30.653 4.89331C33.3355 6.43128 34.3691 8.98949 37.4382 10.7632C38.0333 11.1045 38.8344 11.5536 39.5138 11.7657L35.3391 18.9936C34.6168 18.9425 33.8581 18.5157 33.5766 18.3547C30.8942 16.8263 29.8606 14.2543 26.7915 12.4826C26.1964 12.1414 25.3953 11.6827 24.7158 11.4823ZM20.2011 19.2956L18.9294 17.1021L14.5679 24.6638C14.2648 25.1848 14.4584 25.8622 14.9698 26.1694C15.5026 26.4767 16.1628 26.296 16.4583 25.7611L20.2011 19.2956Z" fill="black"/>
<path d="M27.5442 24.6638L15.0933 3.12989C14.5638 2.21161 13.8044 1.93153 12.9248 2.01356C12.1933 2.09559 11.2476 2.46731 10.3512 2.98903C7.47631 4.65661 6.32295 7.26989 3.57443 8.85356C2.37443 9.5452 1.31529 9.81473 0.784898 10.1161C0.0763859 10.5268 -0.229003 11.235 0.191229 11.9745L4.89162 20.1277C5.41896 21.0418 6.19006 21.3164 7.06216 21.2302C7.79154 21.1503 8.74685 20.7764 9.63372 20.2451C12.5182 18.5775 13.6619 15.9739 16.4104 14.3806C17.25 13.9027 18.0223 13.635 18.5308 13.4346L25.6441 25.7611C25.9493 26.296 26.6074 26.4767 27.1422 26.1694C27.6537 25.8622 27.8376 25.1848 27.5442 24.6638ZM17.3962 11.4823C16.7168 11.6827 15.9157 12.1414 15.311 12.4826C12.2419 14.2543 11.2179 16.8263 8.53545 18.3547C8.25396 18.5157 7.49529 18.9425 6.77294 18.9936L2.59824 11.7657C3.2777 11.5536 4.07879 11.1045 4.67388 10.7632C7.74302 8.98949 8.767 6.43128 11.4494 4.89331C11.7309 4.72807 12.4917 4.29377 13.2215 4.25018L17.3962 11.4823Z" fill="black"/>
</svg>
