<svg width="28" height="28" viewBox="0 0 28 28" fill="none" xmlns="http://www.w3.org/2000/svg">
<path d="M2 11.5372C2 16.801 6.27757 21.0765 11.5393 21.0765C13.4961 21.0765 15.2919 20.4751 16.7891 19.46L22.1729 24.8534C22.5099 25.1905 22.9564 25.351 23.4263 25.351C24.4236 25.351 25.1368 24.5973 25.1368 23.6117C25.1368 23.1481 24.9666 22.7155 24.6446 22.3935L19.3022 17.0202C20.4207 15.4815 21.0786 13.5898 21.0786 11.5372C21.0786 6.27547 16.801 2 11.5393 2C6.27757 2 2 6.27547 2 11.5372ZM4.48482 11.5372C4.48482 7.64491 7.64702 4.48482 11.5393 4.48482C15.4316 4.48482 18.5916 7.64491 18.5916 11.5372C18.5916 15.4316 15.4316 18.5916 11.5393 18.5916C7.64702 18.5916 4.48482 15.4316 4.48482 11.5372ZM11.5468 16.3241C11.7533 16.3241 11.9141 16.1633 11.9609 15.9589C12.5047 12.9076 12.804 12.3638 15.9451 11.9438C16.1729 11.9162 16.3262 11.7512 16.3262 11.5351C16.3262 11.3232 16.1708 11.1624 15.9451 11.1155C12.8262 10.6955 12.4234 10.1347 11.9609 7.12717C11.9237 6.90358 11.7512 6.75241 11.5468 6.75241C11.3328 6.75241 11.1741 6.89608 11.1273 7.11967C10.576 10.1722 10.2863 10.6892 7.141 11.1155C6.91741 11.1624 6.76202 11.3232 6.76202 11.5351C6.76202 11.7512 6.9153 11.9066 7.13889 11.9438C10.28 12.2909 10.6723 12.9139 11.1273 15.9493C11.1645 16.1612 11.3253 16.3241 11.5468 16.3241Z" fill="black"/>
</svg>
