<svg width="28" height="28" viewBox="0 0 28 28" fill="none" xmlns="http://www.w3.org/2000/svg">
<path d="M5.84421 24.8972H21.968C24.4974 24.8972 25.8026 23.5919 25.8026 21.0914V6.82921C25.8026 4.32656 24.4974 3.02344 21.968 3.02344H5.84421C3.31484 3.02344 2 4.31695 2 6.82921V21.0914C2 23.6016 3.31484 24.8972 5.84421 24.8972ZM5.81186 22.6013C4.82795 22.6013 4.29592 22.0969 4.29592 21.0661V10.2389C4.29592 9.21772 4.82795 8.70585 5.81186 8.70585H21.9812C22.9651 8.70585 23.5067 9.21772 23.5067 10.2389V21.0661C23.5067 22.0969 22.9651 22.6013 21.9812 22.6013H5.81186Z" fill="black"/>
<path d="M7.83197 12.9323H20.0037C20.4266 12.9323 20.7514 12.5958 20.7514 12.173C20.7514 11.7619 20.4266 11.4487 20.0037 11.4487H7.83197C7.38783 11.4487 7.07471 11.7619 7.07471 12.173C7.07471 12.5958 7.38783 12.9323 7.83197 12.9323ZM7.83197 16.3943H20.0037C20.4266 16.3943 20.7514 16.0791 20.7514 15.6701C20.7514 15.2377 20.4266 14.9107 20.0037 14.9107H7.83197C7.38783 14.9107 7.07471 15.2377 7.07471 15.6701C7.07471 16.0791 7.38783 16.3943 7.83197 16.3943ZM7.83197 19.8584H15.5155C15.9383 19.8584 16.2631 19.5431 16.2631 19.132C16.2631 18.7092 15.9383 18.3748 15.5155 18.3748H7.83197C7.38783 18.3748 7.07471 18.7092 7.07471 19.132C7.07471 19.5431 7.38783 19.8584 7.83197 19.8584Z" fill="black"/>
</svg>
