<svg width="28" height="28" viewBox="0 0 28 28" fill="none" xmlns="http://www.w3.org/2000/svg">
<path d="M6.89265 25.2461H20.6987C22.4214 25.2461 23.5956 24.0485 23.5956 22.2619V2.98218C23.5956 1.19765 22.4214 0 20.6987 0H6.89265C5.17 0 4 1.19765 4 2.98218V22.2619C4 24.0485 5.17 25.2461 6.89265 25.2461ZM7.06444 23.0241C6.56007 23.0241 6.22421 22.6882 6.22421 22.1742V3.07194C6.22421 2.55796 6.56007 2.2221 7.06444 2.2221H20.5523C21.0461 2.2221 21.3693 2.54741 21.3693 3.04663V22.1995C21.3693 22.6987 21.0461 23.0241 20.5523 23.0241H7.06444ZM12.9332 24.1983H14.6603V1.01695H12.9332V24.1983ZM10.6028 14.332C11.3268 14.332 11.9273 13.7433 11.9273 13.0193C11.9273 12.2815 11.3268 11.6927 10.6028 11.6927C9.87039 11.6927 9.27625 12.2857 9.27625 13.0193C9.27625 13.7391 9.87039 14.332 10.6028 14.332ZM16.9853 14.332C17.7072 14.332 18.3097 13.7433 18.3097 13.0193C18.3097 12.2815 17.7072 11.6927 16.9853 11.6927C16.2508 11.6927 15.6566 12.2857 15.6566 13.0193C15.6566 13.7391 16.2508 14.332 16.9853 14.332ZM7.69093 27.5871C8.35913 27.5871 8.826 27.1106 8.826 26.4424V23.9097H6.55586V26.4424C6.55586 27.1106 7.02273 27.5871 7.69093 27.5871ZM19.8941 27.5871C20.5623 27.5871 21.0292 27.1106 21.0292 26.4424V23.9097H18.7591V26.4424C18.7591 27.1106 19.2259 27.5871 19.8941 27.5871Z" fill="black"/>
</svg>
