<svg width="28" height="28" viewBox="0 0 28 28" fill="none" xmlns="http://www.w3.org/2000/svg">
<path d="M11.8086 13.9173H16.4272C17.2534 13.9173 17.8421 13.3286 17.8421 12.5045V11.6272C17.8421 10.2815 16.8805 9.35498 15.4602 9.35498H12.7777C11.367 9.35498 10.4054 10.2815 10.4054 11.6272V12.5045C10.4054 13.3286 10.9941 13.9173 11.8086 13.9173ZM12.3736 12.2774C12.2084 12.2774 12.0954 12.1645 12.0954 11.9875V11.6272C12.0954 11.1911 12.3364 10.997 12.8194 10.997H15.4163C15.909 10.997 16.152 11.1911 16.152 11.6272V11.9875C16.152 12.1645 16.0391 12.2774 15.8621 12.2774H12.3736ZM11.8646 19.7563H16.3808C17.2344 19.7563 17.8421 19.1612 17.8421 18.3086V16.4908C17.8421 15.6499 17.2344 15.0644 16.3808 15.0644H11.8646C11.011 15.0644 10.4054 15.6499 10.4054 16.4908V18.3086C10.4054 19.1612 11.011 19.7563 11.8646 19.7563ZM12.3352 18.1068C12.1582 18.1068 12.0453 18.0034 12.0453 17.8265V16.9921C12.0453 16.8173 12.1582 16.7043 12.3352 16.7043H15.9123C16.0871 16.7043 16.2001 16.8173 16.2001 16.9921V17.8265C16.2001 18.0034 16.0871 18.1068 15.9123 18.1068H12.3352ZM11.9649 16.1934H13.6956V13.0087H11.9649V16.1934ZM14.5499 16.1934H16.2805V13.0087H14.5499V16.1934ZM11.7685 24.7987H13.4991V19.0129H11.7685V24.7987ZM14.7484 24.7987H16.4769V19.0129H14.7484V24.7987ZM4.44404 25.9253H23.8034C24.3812 25.9253 24.8717 25.4423 24.8717 24.8645C24.8717 24.2655 24.3769 23.7963 23.8034 23.7963H4.44404C3.86631 23.7963 3.37366 24.2676 3.37366 24.8645C3.37366 25.4423 3.86842 25.9253 4.44404 25.9253Z" fill="black"/>
<path d="M8.84436 12.2075C8.84436 11.4727 8.25444 10.8849 7.53139 10.8849C6.81584 10.8849 6.22803 11.4748 6.22803 12.2075C6.22803 12.9134 6.81584 13.4991 7.53139 13.4991C8.25233 13.4991 8.84436 12.9134 8.84436 12.2075ZM10.0765 8.47342C10.5771 7.94538 10.5822 7.12319 10.0765 6.61741C9.58029 6.11374 8.75178 6.10835 8.23428 6.62702C7.7285 7.12319 7.7285 7.95803 8.23428 8.45631C8.75178 8.97709 9.60349 8.9867 10.0765 8.47342ZM14.1237 7.84225C14.835 7.84225 15.4153 7.24694 15.4153 6.52928C15.4153 5.81584 14.8371 5.21631 14.1237 5.21631C13.3868 5.21631 12.8107 5.81795 12.8107 6.52928C12.8107 7.24694 13.3868 7.84225 14.1237 7.84225ZM18.1687 8.47342C18.6649 8.9867 19.4934 8.97709 20.0109 8.45631C20.5167 7.95803 20.5167 7.12319 20.0109 6.62702C19.4934 6.10835 18.6649 6.11374 18.1687 6.61741C17.6533 7.12319 17.6437 7.95803 18.1687 8.47342ZM19.4008 12.2075C19.4008 12.9134 19.9929 13.4991 20.7138 13.4991C21.4315 13.4991 22.0172 12.9134 22.0172 12.2075C22.0172 11.4748 21.4315 10.8849 20.7138 10.8849C19.9908 10.8849 19.4008 11.4727 19.4008 12.2075Z" fill="black"/>
<path d="M5.04328 12.2075C5.04328 11.6239 4.57687 11.1821 4.0275 11.1821C3.45891 11.1821 3 11.6314 3 12.2075C3 12.7665 3.45891 13.2158 4.0275 13.2158C4.57687 13.2158 5.04328 12.774 5.04328 12.2075ZM7.36195 5.75468C7.77937 5.35109 7.76976 4.70375 7.37156 4.31727C6.97757 3.91156 6.33234 3.91367 5.92453 4.31516C5.52843 4.71336 5.52843 5.35109 5.93414 5.74718C6.32273 6.14117 6.96796 6.1625 7.36195 5.75468ZM14.1237 4.04117C14.6922 4.04117 15.1277 3.57265 15.1277 3.01578C15.1277 2.44719 14.6826 2 14.1237 2C13.5572 2 13.094 2.44719 13.094 3.01578C13.094 3.57687 13.5433 4.04117 14.1237 4.04117ZM20.8833 5.75468C21.2794 6.1625 21.9225 6.14117 22.3111 5.74718C22.7189 5.35109 22.7189 4.71336 22.3207 4.31516C21.9129 3.91367 21.2676 3.91156 20.8736 4.31727C20.4754 4.70375 20.4658 5.35109 20.8833 5.75468ZM23.2019 12.2075C23.2019 12.774 23.6683 13.2158 24.2177 13.2158C24.7863 13.2158 25.2452 12.7665 25.2452 12.2075C25.2452 11.6314 24.7863 11.1821 24.2177 11.1821C23.6683 11.1821 23.2019 11.6239 23.2019 12.2075Z" fill="black"/>
</svg>
