<svg width="28" height="28" viewBox="0 0 28 28" fill="none" xmlns="http://www.w3.org/2000/svg">
<path d="M14.105 26.21C20.7369 26.21 26.2121 20.7273 26.2121 14.105C26.2121 7.47312 20.7273 2 14.0954 2C7.47523 2 2 7.47312 2 14.105C2 20.7273 7.48484 26.21 14.105 26.21Z" fill="black"/>
<path d="M11.5381 21.8591C10.9756 21.8591 10.6081 21.548 10.6219 20.9898L10.7583 13.5176C10.7583 13.2706 10.6634 13.1042 10.4461 13.0041C9.54264 12.6132 9.1517 12.1967 9.2124 10.9792L9.39568 6.94534C9.4074 6.63432 9.58951 6.45011 9.86326 6.45011C10.1529 6.45011 10.3191 6.64393 10.3191 6.95706L10.2605 10.8929C10.2605 11.1177 10.4119 11.2775 10.6208 11.2775C10.8584 11.2775 11.0086 11.1177 11.0086 10.9067L11.0747 6.84948C11.0747 6.54057 11.2644 6.36597 11.5381 6.36597C11.8161 6.36597 12.0153 6.54057 12.0153 6.84948L12.0622 10.9067C12.0622 11.1177 12.222 11.2775 12.4501 11.2775C12.6739 11.2775 12.8295 11.1177 12.8295 10.8929L12.773 6.95706C12.773 6.64393 12.9371 6.45011 13.2172 6.45011C13.5005 6.45011 13.6592 6.63011 13.6826 6.94534L13.8776 10.9792C13.9384 12.1967 13.5378 12.6132 12.6397 13.0041C12.4266 13.1042 12.3434 13.2706 12.3434 13.5176L12.4585 20.9898C12.4798 21.5459 12.1166 21.8591 11.5381 21.8591ZM16.3531 16.1933C16.3648 15.908 16.2561 15.7248 16.0121 15.5628L15.6676 15.3174C15.3087 15.0671 15.1318 14.7432 15.1318 14.2669V13.8184C15.1318 11.1967 15.8668 8.30964 16.9451 6.81456C17.154 6.50448 17.3373 6.36597 17.5834 6.36597C17.8358 6.36597 18.0713 6.52886 18.0713 6.86987V21.0186C18.0713 21.5652 17.7198 21.8591 17.1317 21.8591C16.5788 21.8591 16.2017 21.548 16.2134 20.9609L16.3531 16.1933Z" fill="white"/>
</svg>
