<svg width="28" height="29" viewBox="0 0 28 29" fill="none" xmlns="http://www.w3.org/2000/svg">
<path d="M19.0495 22.9059L6.22056 10.0577L2.31681 13.9518C0.573534 15.6951 0.544706 17.5476 2.32853 19.3197L9.79712 26.7787C11.5788 28.5529 13.4217 28.5337 15.165 26.7883L19.0495 22.9059ZM9.60376 6.6745L22.4306 19.5035L26.6435 15.2906C27.5583 14.3758 27.6506 13.8297 27.6506 12.5128V8.06598C27.6506 6.77739 27.345 6.33372 26.3974 5.38403L23.7127 2.70138C22.7726 1.7613 22.3289 1.44818 21.0424 1.44818H16.586C15.267 1.44818 14.741 1.54685 13.8263 2.46372L9.60376 6.6745ZM18.9851 11.1965C18.0213 11.1965 17.3037 10.4521 17.3037 9.51723C17.3037 8.5727 18.0213 7.83582 18.9851 7.83582C19.9392 7.83582 20.6665 8.5727 20.6665 9.51723C20.6665 10.4521 19.9392 11.1965 18.9851 11.1965Z" fill="black"/>
<path d="M24.1273 25.889C24.5011 26.2511 25.0963 26.2532 25.4468 25.889C25.7993 25.5248 25.811 24.9337 25.4468 24.5695L4.53348 3.65831C4.16927 3.29621 3.57606 3.2866 3.20224 3.65831C2.84974 4.01081 2.84974 4.61784 3.20224 4.97784L24.1273 25.889Z" fill="black"/>
</svg>
