<svg width="31" height="28" viewBox="0 0 31 28" fill="none" xmlns="http://www.w3.org/2000/svg">
<path d="M0.183 24.0829C-0.269577 25.1115 0.100032 26.3657 1.48495 26.3657C1.97151 26.3657 2.38354 26.1772 3.01495 25.6555L6.19003 23.0099C6.30628 22.9108 6.37448 22.8798 6.43307 22.8798C6.49378 22.8798 6.56198 22.9108 6.68034 23.0099L9.85542 25.6555C10.4868 26.1772 10.8989 26.3657 11.3854 26.3657C12.7703 26.3657 13.1399 25.1115 12.6874 24.0829L7.43291 12.2263V6.72981C7.43291 4.04739 7.88034 2.04466 7.88034 1.657C7.88034 1.28224 7.6462 1.03638 7.28104 1.03638C7.04151 1.03638 6.82964 1.17161 6.53034 1.50067L3.93323 4.4845C3.68198 4.77513 3.74479 5.14544 4.08112 5.31372C5.11659 5.76536 5.45456 5.91887 5.45456 6.72981V12.2017L0.183 24.0829ZM1.53135 24.5516L6.37542 13.5168H6.49073L11.3369 24.5516C11.4553 24.8172 11.2324 24.9569 11.0383 24.7841L7.43315 21.7703C7.05182 21.4572 6.72276 21.3027 6.43307 21.3027C6.1476 21.3027 5.82815 21.4572 5.43721 21.7703L1.82995 24.7841C1.63799 24.9569 1.42471 24.8172 1.53135 24.5516ZM8.84643 22.0848C9.1755 22.0848 9.45557 21.8026 9.45557 21.4907C9.45557 21.1691 9.183 20.8891 8.84643 20.8891C8.54409 20.8891 8.27151 21.1712 8.27151 21.4907C8.27151 21.8123 8.52487 22.0848 8.84643 22.0848ZM8.21292 20.5799C8.53237 20.5799 8.81456 20.3094 8.81456 19.9879C8.81456 19.6588 8.53237 19.3862 8.21292 19.3862C7.89136 19.3862 7.60917 19.6684 7.60917 19.9879C7.60917 20.3094 7.89136 20.5799 8.21292 20.5799ZM7.56862 19.0633C7.88808 19.0633 8.15854 18.8024 8.15854 18.483C8.15854 18.1518 7.89769 17.8738 7.56862 17.8738C7.24706 17.8738 6.97448 18.1614 6.97448 18.483C6.97448 18.7928 7.24917 19.0633 7.56862 19.0633ZM11.3057 19.0689L12.182 21.0238C12.3693 19.273 13.5649 18.5807 13.5649 17.395C13.5649 16.1711 12.7722 15.4469 12.7722 14.5558C12.7722 14.4512 12.8362 14.3873 12.914 14.3873C13.3865 14.3873 13.691 15.7187 14.8385 15.7187C15.3965 15.7187 15.8097 15.415 16.0066 14.8384H16.0898C16.2984 15.4225 16.7191 15.7166 17.2654 15.7166C18.4012 15.7166 18.7077 14.3851 19.1706 14.3851C19.256 14.3851 19.3295 14.4587 19.3295 14.5537C19.3295 15.4448 18.5315 16.169 18.5315 17.3929C18.5315 18.7009 19.975 19.4167 19.975 21.5708C19.975 23.6622 18.4921 24.9203 16.0471 24.9203C15.1085 24.9203 14.2966 24.737 13.5688 24.3885C13.6902 24.973 13.6659 25.4338 13.454 25.8969C14.2797 26.2251 15.1406 26.3945 16.0471 26.3945C19.285 26.3945 21.4375 24.471 21.4375 21.5708C21.4375 19.1755 19.9781 18.1839 19.9781 17.3833C19.9781 16.4451 20.7897 15.7258 20.7897 14.5148C20.7897 13.6138 20.1733 12.9632 19.3183 12.9632C18.5927 12.9632 18.1546 13.3577 17.8734 13.7788C17.6657 14.0816 17.4686 14.3001 17.3069 14.3001C17.0863 14.3001 17.0118 13.9502 17.0214 13.4563L17.031 6.20973C17.031 5.90786 17.0352 5.8802 17.2068 5.81528C17.4923 5.71637 17.5806 5.55559 17.6137 5.18809L17.8598 2.7595C17.8736 2.51997 17.7735 2.28583 17.5851 2.11966L16.571 1.23442C16.4294 1.11091 16.2473 1.03638 16.0471 1.03638C15.847 1.03638 15.6627 1.11091 15.5137 1.23442L14.5092 2.11966C14.3186 2.27622 14.2185 2.52958 14.2345 2.7595L14.4688 5.18809C14.504 5.54598 14.6137 5.71637 14.8874 5.81528C15.0377 5.86098 15.0632 5.91536 15.0632 6.20973L15.0845 13.4584C15.0942 13.9213 15.0037 14.3022 14.797 14.3022C14.6383 14.3022 14.4403 14.0612 14.2209 13.7788C13.9087 13.3886 13.4995 12.9653 12.7856 12.9653C11.9231 12.9653 11.3067 13.6063 11.3067 14.5169C11.3067 15.7279 12.1162 16.4472 12.1162 17.3854C12.1162 17.8 11.6863 18.3032 11.3057 19.0689ZM13.7585 21.3505C14.0277 21.4485 14.3247 21.3006 14.4206 21.0334L15.3257 18.4501C15.412 18.183 15.2683 17.8827 15.0107 17.7944C14.7393 17.6943 14.4391 17.8422 14.3432 18.1115L13.436 20.7044C13.3497 20.9598 13.4955 21.258 13.7585 21.3505ZM18.3253 21.3526C18.5967 21.2727 18.7424 20.9662 18.6487 20.7044L17.7393 18.1115C17.6434 17.8464 17.3592 17.7006 17.0899 17.7923C16.8323 17.8701 16.6844 18.1745 16.7706 18.4501L17.6758 21.0334C17.7695 21.2964 18.0581 21.4422 18.3253 21.3526ZM25.5088 26.3263C28.7957 26.3263 30.8896 24.7544 30.8896 22.2665C30.8896 19.8102 29.2991 19.2569 29.2991 18.2099C29.2991 17.4374 29.6549 16.7268 29.6549 15.7204C29.6549 14.0727 28.4814 13.0131 26.4873 12.7598V5.75083C26.4873 5.29684 26.5375 5.17848 26.7965 4.99731C27.0573 4.8302 27.1457 4.67903 27.134 4.43739L26.9561 1.52177C26.9423 1.23864 26.7358 1.03638 26.4665 1.03638H24.5298C24.2798 1.03638 24.0733 1.23864 24.0498 1.52177L23.872 4.43739C23.8602 4.67692 23.9582 4.8302 24.2095 4.99731C24.4684 5.18809 24.5207 5.30645 24.5207 5.75083V12.7598C22.5363 13.0152 21.3552 14.0727 21.3552 15.7204C21.3552 16.6762 21.7026 17.3741 21.7026 18.1213C21.7026 18.2601 21.6641 18.4373 21.5158 18.7244C21.7691 19.2262 21.9752 19.7751 22.1017 20.4032C22.6014 19.7472 23.1756 19.045 23.1756 18.1844C23.1756 17.3556 22.8123 16.4863 22.8123 15.7204C22.8123 14.5333 23.8567 14.1083 25.5088 14.1083C27.1321 14.1083 28.1978 14.5141 28.1978 15.7204C28.1978 16.4863 27.8324 17.3556 27.8324 18.1844C27.8324 19.6394 29.4271 20.3819 29.4271 22.2665C29.4271 23.8933 27.9719 24.8755 25.5088 24.8755C23.7829 24.8755 22.5236 24.3993 21.8929 23.5021C21.7054 24.0578 21.483 24.4696 21.1881 24.8826C22.1542 25.8266 23.6627 26.3263 25.5088 26.3263ZM25.5088 19.1526C26.2087 19.1526 26.7892 18.5699 26.7892 17.868C26.7892 17.1585 26.2087 16.5737 25.5088 16.5737C24.7973 16.5737 24.205 17.1543 24.205 17.868C24.205 18.572 24.7877 19.1526 25.5088 19.1526ZM24.0299 22.5069H26.9622C27.2624 22.5069 27.4977 22.2695 27.4977 21.9714C27.4977 21.6679 27.2624 21.4208 26.9622 21.4208H24.0299C23.7318 21.4208 23.4869 21.6775 23.4869 21.9714C23.4869 22.2695 23.7222 22.5069 24.0299 22.5069Z" fill="black"/>
</svg>
