<svg width="28" height="28" viewBox="0 0 28 28" fill="none" xmlns="http://www.w3.org/2000/svg">
<path d="M14.105 26.21C20.7369 26.21 26.2121 20.7273 26.2121 14.105C26.2121 7.47312 20.7273 2 14.0954 2C7.47523 2 2 7.47312 2 14.105C2 20.7273 7.48484 26.21 14.105 26.21ZM14.105 23.8255C8.71085 23.8255 4.39412 19.4991 4.39412 14.105C4.39412 8.71085 8.70124 4.38452 14.0954 4.38452C19.4895 4.38452 23.8276 8.71085 23.8276 14.105C23.8276 19.4991 19.4991 23.8255 14.105 23.8255Z" fill="black"/>
<path d="M10.0911 10.7668C10.0911 13.0081 11.5704 13.6266 11.787 17.4755C11.8104 17.7563 11.9773 17.9202 12.2347 17.9202H15.9369C16.2155 17.9202 16.3941 17.7563 16.4059 17.4755C16.6149 13.6266 18.1039 13.0604 18.1039 10.8148C18.1039 8.73074 16.3224 7.11426 14.0858 7.11426C11.8629 7.11426 10.0911 8.67848 10.0911 10.7668ZM12.331 19.4766H15.8619C16.1218 19.4766 16.3423 19.2561 16.3423 19.0004C16.3423 18.7489 16.1218 18.5337 15.8619 18.5337H12.331C12.0732 18.5337 11.8622 18.7489 11.8622 19.0004C11.8622 19.2561 12.0732 19.4766 12.331 19.4766ZM14.0975 21.0713C14.9455 21.0713 15.5623 20.6825 15.6326 20.0827H12.5602C12.6188 20.6825 13.2537 21.0713 14.0975 21.0713Z" fill="black"/>
</svg>
