<svg width="29" height="28" viewBox="0 0 29 28" fill="none" xmlns="http://www.w3.org/2000/svg">
<path d="M8.10726 24.8972H20.5512C22.9631 24.8972 24.0227 23.7051 24.3954 21.307L26.2905 8.70468L24.0199 8.80288L22.1344 21.1739C21.9649 22.2623 21.4155 22.6995 20.4433 22.6995H8.22468C7.23327 22.6995 6.6935 22.2623 6.53365 21.1739L4.64811 8.80288L2.3775 8.70468L4.27265 21.307C4.6357 23.7148 5.70492 24.8972 8.10726 24.8972ZM2.50921 9.93068H26.1609C27.7521 9.93068 28.668 8.91233 28.668 7.33288V5.61913C28.668 4.04179 27.7521 3.02344 26.1609 3.02344H2.50921C0.979917 3.02344 0 4.04179 0 5.61913V7.33288C0 8.91233 0.920151 9.93068 2.50921 9.93068ZM2.96015 7.84054C2.42272 7.84054 2.18835 7.59656 2.18835 7.05702V5.89499C2.18835 5.35546 2.42272 5.11147 2.96015 5.11147H25.7175C26.2549 5.11147 26.4797 5.35546 26.4797 5.89499V7.05702C26.4797 7.59656 26.2549 7.84054 25.7175 7.84054H2.96015Z" fill="black"/>
<path d="M11.0839 20.5055C11.3499 20.5055 11.5777 20.3883 11.7767 20.1989L14.3293 17.6283L16.8936 20.1989C17.083 20.3766 17.3108 20.5055 17.596 20.5055C18.1388 20.5055 18.5912 20.0435 18.5912 19.4986C18.5912 19.1995 18.474 18.9909 18.2846 18.792L15.7416 16.2436L18.2942 13.6664C18.4953 13.4578 18.6008 13.2588 18.6008 12.9811C18.6008 12.4244 18.1581 11.9817 17.596 11.9817C17.3396 11.9817 17.1214 12.0818 16.9128 12.2904L14.3293 14.861L11.7671 12.3C11.5585 12.101 11.3499 12.003 11.0839 12.003C10.5315 12.003 10.0791 12.434 10.0791 12.9811C10.0791 13.2684 10.1942 13.4866 10.3857 13.676L12.9287 16.2436L10.3857 18.8016C10.1963 18.9909 10.0791 19.2112 10.0791 19.4986C10.0791 20.0435 10.5315 20.5055 11.0839 20.5055Z" fill="black"/>
</svg>
