<svg width="28" height="28" viewBox="0 0 28 28" fill="none" xmlns="http://www.w3.org/2000/svg">
<path d="M2.0982 21.0069V24.4163C2.0982 25.9461 2.8475 26.674 4.39648 26.674H8.0389C5.46195 25.4096 3.5075 23.5264 2.0982 21.0069ZM26.1624 21.0069C24.7531 23.5264 22.7987 25.4096 20.2313 26.674H23.8641C25.4131 26.674 26.1624 25.9461 26.1624 24.4163V21.0069ZM14.105 26.4383C20.7369 26.4383 26.2121 20.9555 26.2121 14.3333C26.2121 7.70139 20.7273 2.22827 14.0954 2.22827C7.47523 2.22827 2 7.70139 2 14.3333C2 20.9555 7.48484 26.4383 14.105 26.4383Z" fill="black"/>
<path d="M9.94131 11.7248C9.55084 11.3322 9.56256 10.7406 9.94131 10.3577C10.3297 9.96509 10.9158 9.96298 11.318 10.3577L14.108 13.1552L18.8063 8.46321C19.1968 8.07485 19.7712 8.08446 20.1713 8.46321C20.5735 8.84407 20.5639 9.46117 20.1713 9.84203L14.8081 15.2148C14.4176 15.6074 13.8144 15.617 13.4218 15.2148L9.94131 11.7248Z" fill="white"/>
</svg>
