<svg width="28" height="28" viewBox="0 0 28 28" fill="none" xmlns="http://www.w3.org/2000/svg">
<path d="M14.105 26.21C20.7369 26.21 26.2121 20.7273 26.2121 14.105C26.2121 7.47312 20.7273 2 14.0954 2C7.47523 2 2 7.47312 2 14.105C2 20.7273 7.48484 26.21 14.105 26.21Z" fill="black"/>
<path d="M8.49637 19.4639C7.76137 19.4639 7.28418 19.0059 7.28418 18.2868V9.95178C7.28418 9.24232 7.76137 8.77686 8.49637 8.77686H19.7445C20.4699 8.77686 20.9567 9.24232 20.9567 9.95178V18.2868C20.9567 19.0059 20.4699 19.4639 19.7445 19.4639H8.49637ZM8.61473 18.4509H9.49598C9.7027 18.4509 9.83371 18.3124 9.83371 18.1036V17.3065C9.83371 17.0955 9.7027 16.9474 9.49598 16.9474H8.60512C8.37285 16.9474 8.24184 17.0955 8.24184 17.3065V18.0843C8.24184 18.3028 8.37285 18.4509 8.61473 18.4509ZM8.60512 16.0132H9.49598C9.7027 16.0132 9.83371 15.8512 9.83371 15.6712V14.8901C9.83371 14.6599 9.7027 14.5385 9.49598 14.5385H8.60512C8.37285 14.5385 8.24184 14.6599 8.24184 14.8901V15.6712C8.24184 15.8512 8.37285 16.0132 8.60512 16.0132ZM8.60512 13.6256H9.49598C9.7027 13.6256 9.83371 13.4796 9.83371 13.2996V12.495C9.83371 12.2798 9.7027 12.1455 9.49598 12.1455H8.60512C8.37285 12.1455 8.24184 12.2798 8.24184 12.495V13.2996C8.24184 13.4796 8.37285 13.6256 8.60512 13.6256ZM8.60512 11.2582H9.49598C9.7027 11.2582 9.83371 11.1079 9.83371 10.9226V10.1447C9.83371 9.93584 9.7027 9.776 9.49598 9.776H8.60512C8.37285 9.776 8.24184 9.93584 8.24184 10.1447V10.9226C8.24184 11.1079 8.37285 11.2582 8.60512 11.2582ZM18.7374 18.4509H19.6283C19.868 18.4509 19.9969 18.3028 19.9969 18.0843V17.3065C19.9969 17.0955 19.868 16.9474 19.6379 16.9474H18.7374C18.5382 16.9474 18.4072 17.0955 18.4072 17.3065V18.1036C18.4072 18.3124 18.5382 18.4509 18.7374 18.4509ZM18.7374 16.0132H19.6379C19.868 16.0132 19.9969 15.8512 19.9969 15.6712V14.8901C19.9969 14.6599 19.868 14.5385 19.6379 14.5385H18.7374C18.5382 14.5385 18.4072 14.6599 18.4072 14.8901V15.6712C18.4072 15.8512 18.5382 16.0132 18.7374 16.0132ZM18.7374 13.6256H19.6379C19.868 13.6256 19.9969 13.4796 19.9969 13.2996V12.495C19.9969 12.2798 19.868 12.1455 19.6379 12.1455H18.7374C18.5382 12.1455 18.4072 12.2798 18.4072 12.495V13.2996C18.4072 13.4796 18.5382 13.6256 18.7374 13.6256ZM18.7374 11.2582H19.6379C19.868 11.2582 19.9969 11.1079 19.9969 10.9226V10.1447C19.9969 9.93584 19.868 9.776 19.6379 9.776H18.7374C18.5382 9.776 18.4072 9.93584 18.4072 10.1447V10.9226C18.4072 11.1079 18.5382 11.2582 18.7374 11.2582ZM11.6119 14.8057H16.6194C17.007 14.8057 17.2988 14.5118 17.2988 14.1241C17.2988 13.7365 17.007 13.4351 16.6194 13.4351H11.6119C11.2243 13.4351 10.9325 13.7365 10.9325 14.1241C10.9325 14.5118 11.2243 14.8057 11.6119 14.8057Z" fill="white"/>
</svg>
