<svg width="28" height="28" viewBox="0 0 28 28" fill="none" xmlns="http://www.w3.org/2000/svg">
<path d="M1 6.82796C1 7.61757 1.53836 8.14421 2.3514 8.14421H3.58727V4.11015C3.58727 3.37187 2.99992 2.83797 2.29469 2.83797C1.58945 2.82836 1 3.36226 1 4.11015V6.82796ZM4.12586 1C4.99773 1.47766 5.2907 2.14586 5.2907 3.34493V23.0219C5.2907 24.6405 6.22515 25.5433 7.57375 25.5433C8.84008 25.5433 9.73493 24.6566 9.73493 23.1009V19.742C9.73493 18.0491 10.5543 17.1529 12.2568 17.1529H23.8499V4.84632C23.8499 2.31484 22.5447 1 20.0441 1H4.12586ZM9.94913 7.22054C9.94913 6.80945 10.2719 6.48672 10.7085 6.48672H18.6698C19.1022 6.48672 19.4153 6.80945 19.4153 7.22054C19.4153 7.64335 19.1022 7.97031 18.6698 7.97031H10.7085C10.2719 7.97031 9.94913 7.64335 9.94913 7.22054ZM9.94913 11.2516C9.94913 10.8288 10.2719 10.4922 10.7085 10.4922H14.9282C15.3606 10.4922 15.6758 10.8288 15.6758 11.2516C15.6758 11.6627 15.3606 11.9758 14.9282 11.9758H10.7085C10.2719 11.9758 9.94913 11.6627 9.94913 11.2516ZM10.2766 26.1733H22.5081C24.8212 26.1733 26.3556 24.8059 26.3556 22.413V20.1843C26.3556 19.3926 25.8172 18.8584 25.0042 18.8584H12.7994C11.9863 18.8584 11.4384 19.3926 11.4384 20.1843V22.6225C11.4384 24.0271 11.2204 25.2076 10.2766 26.1733Z" fill="black"/>
</svg>
