<svg width="29" height="28" viewBox="0 0 29 28" fill="none" xmlns="http://www.w3.org/2000/svg">
<path d="M1.30683 20.6031L4.25292 23.4097C5.88417 24.9643 7.91666 25.0292 9.48181 23.4545L10.6356 22.3028L2.28183 14.1491L1.15566 15.2657C-0.411604 16.8404 -0.407385 18.9676 1.30683 20.6031ZM3.58378 12.8493L11.9259 21.0104L20.0085 12.9278C21.0508 11.8759 21.0508 10.4026 19.9734 9.36037L15.2594 4.78795C14.1841 3.75951 12.746 3.72014 11.6824 4.77412L3.58378 12.8493Z" fill="black"/>
<path d="M11.0896 24.1461H17.8731C18.5027 24.1461 19.0248 23.6314 19.0248 23.0019C19.0248 22.3724 18.5027 21.8502 17.8731 21.8502H13.393L11.0896 24.1461ZM21.8158 24.1461H27.2549C27.8844 24.1461 28.4087 23.6314 28.4087 23.0019C28.4087 22.3724 27.8844 21.8502 27.2549 21.8502H21.8158C21.1862 21.8502 20.662 22.3724 20.662 23.0019C20.662 23.6314 21.1862 24.1461 21.8158 24.1461Z" fill="black"/>
</svg>
