<svg width="32" height="28" viewBox="0 0 32 28" fill="none" xmlns="http://www.w3.org/2000/svg">
<path d="M3.84421 24.9954H23.3062C25.541 24.9954 26.8558 23.4937 26.8558 20.9932V18.2493H18.0506C14.6044 18.2493 12.5292 16.203 12.5292 12.8055V11.8524H0V21.1896C0 23.6997 1.31484 24.9954 3.84421 24.9954ZM0 10.1716H12.5292V6.26838C12.5292 5.90065 12.5503 5.54041 12.563 5.25166C12.2759 5.24955 12.0677 5.24745 11.7827 5.24323C11.066 5.22213 10.6172 5.03463 10.0671 4.5687L9.44928 4.06291C8.62944 3.38768 8.02335 3.17041 6.79569 3.17041H3.47905C1.29539 3.17041 0 4.44564 0 6.90447V10.1716Z" fill="black"/>
<path d="M18.0507 16.546H28.1066C30.6149 16.546 31.9149 15.2534 31.9149 12.7761V5.76781C31.9149 3.28297 30.6149 2 28.1066 2H18.0507C15.5424 2 14.252 3.28297 14.252 5.76781V12.7761C14.252 15.2534 15.5424 16.546 18.0507 16.546ZM23.0856 13.0876C22.6035 13.0876 22.2906 12.7726 22.2906 12.2947V10.0728H20.0633C19.5929 10.0728 19.2704 9.7578 19.2683 9.2682C19.2641 8.78609 19.5887 8.47109 20.0633 8.47109H22.2906V6.25765C22.2906 5.77765 22.6035 5.45515 23.0856 5.45304C23.5656 5.44883 23.8806 5.77343 23.8806 6.25765V8.47109H26.1003C26.5803 8.47109 26.9028 8.78609 26.9028 9.2682C26.9028 9.7578 26.5803 10.0728 26.1003 10.0728H23.8806V12.2947C23.8806 12.7726 23.5656 13.0876 23.0856 13.0876Z" fill="black"/>
</svg>
