<svg width="28" height="28" viewBox="0 0 28 28" fill="none" xmlns="http://www.w3.org/2000/svg">
<path d="M14.105 26.21C20.7369 26.21 26.2121 20.7273 26.2121 14.105C26.2121 7.47312 20.7273 2 14.0954 2C7.47523 2 2 7.47312 2 14.105C2 20.7273 7.48484 26.21 14.105 26.21ZM14.105 23.8255C8.71085 23.8255 4.39412 19.4991 4.39412 14.105C4.39412 8.71085 8.70124 4.38452 14.0954 4.38452C19.4895 4.38452 23.8276 8.71085 23.8276 14.105C23.8276 19.4991 19.4991 23.8255 14.105 23.8255Z" fill="black"/>
<path d="M9.42868 19.1963H18.7833C20.0011 19.1963 20.6285 18.586 20.6285 17.3778V11.7285C20.6285 10.5106 20.0011 9.90032 18.7833 9.90032H9.42868C8.20876 9.90032 7.59094 10.5106 7.59094 11.7285V17.3778C7.59094 18.586 8.20876 19.1963 9.42868 19.1963ZM13.199 15.4327C12.772 15.4327 12.5175 15.1962 12.5175 14.7542V14.2991C10.9092 14.1819 9.32649 13.8898 7.59094 13.2549V12.1444C9.70548 13.0269 11.8341 13.3526 14.1049 13.3526C16.3758 13.3526 18.5065 13.0269 20.6285 12.1444V13.2549C18.8854 13.8898 17.3027 14.1819 15.6944 14.2991V14.7542C15.6944 15.1962 15.4378 15.4327 15.0129 15.4327H13.199ZM10.5919 10.3834H11.7865V9.35071C11.7865 9.07978 11.9688 8.9197 12.2611 8.9197H15.9701C16.2527 8.9197 16.4329 9.07978 16.4329 9.35071V10.3834H17.6201V9.29634C17.6201 8.37267 17.017 7.8186 16.0371 7.8186H12.1748C11.1949 7.8186 10.5919 8.37267 10.5919 9.29634V10.3834Z" fill="black"/>
</svg>
