<svg width="28" height="28" viewBox="0 0 28 28" fill="none" xmlns="http://www.w3.org/2000/svg">
<path d="M7.42773 13.502V17.8802L2.84078 22.4788L4.80764 24.4361L9.31256 19.945L13.8707 19.9354C14.6565 19.9354 15.4998 19.6469 16.0675 19.0888L25.7833 9.51791C26.3343 8.97111 26.3108 8.09034 25.7854 7.54893C25.2524 7.00214 24.3578 7.00214 23.8164 7.54893L14.4904 16.8824C14.1927 17.1705 13.8311 17.3444 13.4076 17.3444H10.3574L10.1774 17.1419V13.8182C10.1774 13.3947 10.3417 13.0234 10.6298 12.7354L19.8238 3.55634C20.361 3.00955 20.3514 2.12877 19.8259 1.58198C19.2908 1.04057 18.3962 1.02885 17.8548 1.59158L8.28601 11.3052C7.68859 11.9123 7.43734 12.7066 7.42773 13.502ZM3.45507 26.3003C4.81936 26.3003 5.92185 25.1882 5.92185 23.8314C5.92185 22.4671 4.81936 21.355 3.45507 21.3646C2.1025 21.3646 1 22.4671 1 23.8314C1 25.1882 2.1025 26.3003 3.45507 26.3003Z" fill="black"/>
</svg>
