<svg width="30" height="28" viewBox="0 0 30 28" fill="none" xmlns="http://www.w3.org/2000/svg">
<path d="M1.14421 26.1541C1.78124 26.1541 2.29592 25.6394 2.29592 25.0098V3.93389C2.29592 3.54623 2.54623 3.29592 2.91256 3.29592H26.3641C26.7305 3.29592 26.9808 3.54623 26.9808 3.93389V25.0098C26.9808 25.6394 27.4955 26.1541 28.1229 26.1541C28.762 26.1541 29.2767 25.6394 29.2767 25.0098V3.72178C29.2767 2.07273 28.1869 1 26.4973 1H2.77194C1.08984 1 0 2.07273 0 3.72178V25.0098C0 25.6394 0.514684 26.1541 1.14421 26.1541Z" fill="black"/>
<path d="M3.69019 25.2182C3.69019 25.4683 3.88823 25.6623 4.15097 25.607L11.2987 24.0182C11.5404 23.9671 11.7194 23.8 11.7194 23.5593V6.39742C11.7194 6.16633 11.55 5.99922 11.3083 5.94813L4.14136 4.3518C3.88823 4.30398 3.69019 4.48844 3.69019 4.74812V25.2182ZM9.71035 18.6501C9.90394 18.6341 10.0422 18.7511 10.0422 18.9585V22.3441C10.0422 22.5451 9.91355 22.6609 9.72957 22.7003L5.70886 23.4869C5.52487 23.5262 5.3887 23.4294 5.3887 23.2103V19.2866C5.3887 19.0834 5.52487 18.9526 5.70886 18.9388L9.71035 18.6501ZM5.3887 17.0861V12.8865C5.3887 12.6695 5.52487 12.5547 5.70886 12.5664L9.71996 12.7848C9.91355 12.7965 10.0422 12.9273 10.0422 13.1326V16.8379C10.0422 17.0453 9.90394 17.1644 9.71996 17.1782L5.70886 17.4062C5.51527 17.418 5.3887 17.2935 5.3887 17.0861ZM9.71785 11.3226L5.69925 11.0242C5.51527 11.0083 5.3887 10.9169 5.3887 10.6999V6.7464C5.3887 6.52937 5.52487 6.43047 5.70886 6.46984L9.72628 7.22758C9.9187 7.25945 10.0422 7.37312 10.0422 7.58383V10.979C10.0422 11.1906 9.91355 11.3364 9.71785 11.3226ZM25.5865 25.2182V4.74812C25.5865 4.48844 25.3884 4.30398 25.1353 4.3518L17.9683 5.94813C17.7267 5.99922 17.5573 6.16633 17.5573 6.39742V23.5593C17.5573 23.8 17.7267 23.9671 17.978 24.0182L25.1257 25.607C25.3884 25.6623 25.5865 25.4683 25.5865 25.2182ZM19.5663 18.6501L23.5582 18.9388C23.7518 18.9526 23.888 19.0834 23.888 19.2866V23.2103C23.888 23.4294 23.7518 23.5262 23.5678 23.4869L19.5471 22.7003C19.3631 22.6609 19.2344 22.5451 19.2344 22.3441V18.9585C19.2344 18.7511 19.3727 18.6341 19.5663 18.6501ZM23.888 17.0861C23.888 17.2935 23.7614 17.418 23.5678 17.4062L19.5567 17.1782C19.3631 17.1644 19.2344 17.0453 19.2344 16.8379V13.1326C19.2344 12.9273 19.3631 12.7965 19.5567 12.7848L23.5678 12.5664C23.7518 12.5547 23.888 12.6695 23.888 12.8865V17.0861ZM19.5588 11.3226C19.3631 11.3364 19.2344 11.1906 19.2344 10.979V7.58383C19.2344 7.37312 19.358 7.25945 19.5504 7.22758L23.5678 6.46984C23.7422 6.43047 23.888 6.52937 23.888 6.7464V10.6999C23.888 10.9169 23.7614 11.0083 23.5774 11.0242L19.5588 11.3226Z" fill="black"/>
</svg>
