<svg width="28" height="28" viewBox="0 0 28 28" fill="none" xmlns="http://www.w3.org/2000/svg">
<path d="M6.84421 24.8972H21.0295C23.5685 24.8972 24.8737 23.5919 24.8737 21.0914V6.82921C24.8737 4.32656 23.5685 3.02344 21.0295 3.02344H6.84421C4.31484 3.02344 3 4.31695 3 6.82921V21.0914C3 23.6016 4.31484 24.8972 6.84421 24.8972Z" fill="black"/>
<path d="M8.7323 18.2177C8.05731 18.2177 7.66028 17.8495 7.66028 17.3238C7.66028 16.623 8.302 16.0413 8.88465 15.4552C9.34473 15.0012 9.44809 14.0625 9.52238 13.2239C9.60512 10.7733 10.3197 9.06282 12.026 8.43399C12.3178 7.57852 13.0059 6.91125 13.9776 6.91125C14.9473 6.91125 15.6471 7.57852 15.9293 8.43399C17.6355 9.06282 18.3555 10.7733 18.4425 13.2239C18.5189 14.0625 18.6009 15.0012 19.0685 15.4552C19.6725 16.0317 20.295 16.623 20.295 17.3238C20.295 17.8495 19.8959 18.2177 19.2326 18.2177H8.7323ZM13.9776 21.0565C12.8177 21.0565 11.9763 20.2319 11.8985 19.2466H16.0664C15.9886 20.2319 15.1376 21.0565 13.9776 21.0565Z" fill="white"/>
</svg>
