<svg width="39" height="28" viewBox="0 0 39 28" fill="none" xmlns="http://www.w3.org/2000/svg">
<path d="M9.95178 21.1418C14.1286 21.1418 17.512 17.7583 17.512 13.5698C17.512 9.39304 14.1286 6 9.95178 6C5.76327 6 2.36812 9.39304 2.36812 13.5698C2.36812 17.7583 5.76327 21.1418 9.95178 21.1418ZM9.95178 18.7437C7.08514 18.7437 4.76834 16.4344 4.76834 13.5698C4.76834 10.717 7.08514 8.39811 9.95178 8.39811C12.795 8.39811 15.1139 10.7266 15.1139 13.5698C15.1139 16.4248 12.795 18.7437 9.95178 18.7437ZM28.3711 21.1418C32.55 21.1418 35.9355 17.7583 35.9355 13.5698C35.9355 9.39304 32.55 6 28.3711 6C24.1868 6 20.7916 9.39304 20.7916 13.5698C20.7916 17.7583 24.1868 21.1418 28.3711 21.1418ZM28.3711 18.7437C25.5182 18.7437 23.1918 16.4248 23.1918 13.5698C23.1918 10.7266 25.5182 8.39811 28.3711 8.39811C31.2281 8.39811 33.5353 10.717 33.5353 13.5698C33.5353 16.4344 31.2281 18.7437 28.3711 18.7437ZM3.18585 11.928H0.910546C0.313125 11.928 0 12.2316 0 12.8386V13.6249C0 14.234 0.319453 14.5535 0.910546 14.5535H3.18585V11.928ZM35.1178 14.5535H37.4027C37.9938 14.5535 38.3036 14.234 38.3036 13.6249V12.8386C38.3036 12.2316 38.0001 11.928 37.4027 11.928H35.1178V14.5535ZM16.8661 14.1858C17.4815 13.7824 18.3567 13.5928 19.1566 13.5928C19.9469 13.5928 20.8242 13.7824 21.4472 14.1858V11.7483C20.7581 11.4044 19.8508 11.2725 19.1566 11.2725C18.4528 11.2725 17.5476 11.4044 16.8661 11.7483V14.1858Z" fill="black"/>
</svg>
