<svg width="35" height="28" viewBox="0 0 35 28" fill="none" xmlns="http://www.w3.org/2000/svg">
<path d="M10.4229 17.6441V18.4687C10.4229 20.1233 10.9908 20.7845 12.1099 21.4129L21.3853 26.5951C22.0268 26.9575 22.6859 26.9575 23.3369 26.5951L32.6026 21.4129C33.7314 20.7845 34.2897 20.1233 34.2897 18.4687V8.99757C34.2897 7.74718 33.8275 6.95593 32.784 6.37022L24.5442 1.74999C23.0946 0.925459 21.618 0.925459 20.1684 1.74999L11.9381 6.37022C10.8851 6.95593 10.4229 7.74718 10.4229 8.99757V12.9632H12.5079V9.71849L21.274 14.6697V24.0735L13.3755 19.6129C12.7676 19.278 12.5437 18.9238 12.529 18.3594V17.6441H10.4229ZM31.3467 19.6129L23.4387 24.0735V14.6697L32.2048 9.71849V18.2645C32.2048 18.8795 31.9788 19.259 31.3467 19.6129ZM22.3622 12.7548L13.6929 7.8953L16.9659 6.03623L25.6395 10.9087L22.3622 12.7548ZM27.8552 9.68195L19.1613 4.8149L21.1012 3.71685C21.953 3.23708 22.7555 3.22747 23.621 3.71685L31.0294 7.8953L27.8552 9.68195Z" fill="black"/>
<path d="M15.0035 15.3037C15.0035 14.6331 14.5235 14.1531 13.8647 14.1531H6.10991L2.38453 14.2787V15.1839L5.72507 12.1574L7.32749 10.7551C7.60429 10.5177 7.7053 10.1973 7.7053 9.87598C7.7053 9.23098 7.21359 8.7627 6.5707 8.7627C6.27164 8.7627 5.9939 8.86699 5.74054 9.11073L0.39703 14.4405C0.143671 14.6821 0 14.9854 0 15.3037C0 15.624 0.143671 15.9252 0.39703 16.1669L5.71172 21.4677C5.98429 21.7403 6.27164 21.8467 6.5707 21.8467C7.21359 21.8467 7.7053 21.3763 7.7053 20.7334C7.7053 20.4121 7.6139 20.0917 7.32749 19.8522L5.72507 18.452L2.38453 15.4234V16.3286L6.10991 16.4542H13.8647C14.5235 16.4542 15.0035 15.9742 15.0035 15.3037Z" fill="black"/>
</svg>
