<svg width="36" height="28" viewBox="0 0 36 28" fill="none" xmlns="http://www.w3.org/2000/svg">
<path d="M17.7984 20.2593C21.8257 20.2593 24.9361 17.1415 24.9361 13.1355C24.9361 9.11788 21.8257 6 17.7984 6C13.7946 6 10.6842 9.11788 10.6842 13.1355C10.6842 17.1415 13.7946 20.2593 17.7984 20.2593ZM17.7984 18.0733C15.0398 18.0733 12.8606 15.8941 12.8606 13.1355C12.8606 10.3652 15.0398 8.18601 17.7984 8.18601C20.5783 8.18601 22.7501 10.3652 22.7501 13.1355C22.7501 15.8941 20.5783 18.0733 17.7984 18.0733ZM17.7984 17.0552C19.999 17.0552 21.7319 15.334 21.7319 13.1355C21.7319 10.9371 19.999 9.20413 17.7984 9.20413C15.6 9.20413 13.8787 10.9371 13.8787 13.1355C13.8787 15.334 15.6 17.0552 17.7984 17.0552ZM9.29203 13.1355C9.29203 10.1651 10.7386 7.59515 12.9734 6.08414H3.78773C1.31601 6.08414 0 7.37343 0 9.83343V16.4184C0 18.8709 1.31601 20.1677 3.78773 20.1677H12.9466C10.7269 18.6471 9.29203 16.0868 9.29203 13.1355ZM31.8326 6.08414H22.6469C24.8742 7.59515 26.3304 10.1651 26.3304 13.1355C26.3304 16.0868 24.8934 18.6471 22.664 20.1677H31.8326C34.3235 20.1677 35.6299 18.8709 35.6299 16.4184V9.83343C35.6299 7.37343 34.3235 6.08414 31.8326 6.08414ZM28.3481 10.7946C28.3481 10.2614 28.7259 9.87186 29.2591 9.87186H32.0908C32.624 9.87186 33.0115 10.2614 33.0115 10.7946C33.0115 11.3278 32.624 11.7098 32.0908 11.7098H29.2591C28.7259 11.7098 28.3481 11.3278 28.3481 10.7946ZM28.3481 13.8131C28.3481 13.2799 28.7259 12.9 29.2591 12.9H32.0908C32.624 12.9 33.0115 13.2799 33.0115 13.8131C33.0115 14.3463 32.624 14.7379 32.0908 14.7379H29.2591C28.7259 14.7379 28.3481 14.3463 28.3481 13.8131ZM9.04006 19.2462H2.61844V21.1186C2.61844 21.7793 3.07054 22.2335 3.73335 22.2335H7.92515C8.59968 22.2335 9.04006 21.7793 9.04006 21.1186V19.2462ZM26.5898 19.2462V21.1186C26.5898 21.7793 27.0323 22.2335 27.7047 22.2335H31.8869C32.5594 22.2335 33.0115 21.7793 33.0115 21.1186V19.2462H26.5898Z" fill="black"/>
</svg>
