<svg width="28" height="28" viewBox="0 0 28 28" fill="none" xmlns="http://www.w3.org/2000/svg">
<path d="M14.105 26.21C20.7369 26.21 26.2121 20.7273 26.2121 14.105C26.2121 7.47312 20.7273 2 14.0954 2C7.47523 2 2 7.47312 2 14.105C2 20.7273 7.48484 26.21 14.105 26.21Z" fill="black"/>
<path d="M12.8465 17.8402C10.064 17.8402 7.77905 15.5499 7.77905 12.7728C7.77905 9.98609 10.064 7.69156 12.8465 7.69156C15.6332 7.69156 17.916 9.97648 17.916 12.7728C17.916 13.7682 17.609 14.7071 17.1037 15.4775L20.0446 18.4377C20.2734 18.6739 20.4023 18.9634 20.4023 19.2645C20.4023 19.9435 19.9406 20.4341 19.285 20.4341C18.9145 20.4341 18.625 20.3063 18.3599 20.0337L15.4202 17.1078C14.6678 17.5608 13.7854 17.8402 12.8465 17.8402ZM12.8465 16.0297C14.6252 16.0297 16.0938 14.5536 16.0938 12.7728C16.0938 10.9728 14.6252 9.50631 12.8465 9.50631C11.0603 9.50631 9.58959 10.9824 9.58959 12.7728C9.58959 14.5536 11.0603 16.0297 12.8465 16.0297Z" fill="white"/>
</svg>
