<svg width="28" height="28" viewBox="0 0 28 28" fill="none" xmlns="http://www.w3.org/2000/svg">
<path d="M7.84421 27.7711H21.3257C23.5626 27.7711 24.8753 26.4658 24.8753 23.9653V10.6994C24.8753 8.19889 23.553 6.89366 21.0311 6.89366H7.84421C5.31484 6.89366 4 8.18928 4 10.6994V23.9653C4 26.4658 5.31484 27.7711 7.84421 27.7711ZM7.97733 25.473C6.88772 25.473 6.29592 24.9014 6.29592 23.7628V10.8923C6.29592 9.76123 6.88772 9.18958 7.97733 9.18958H20.8884C21.9684 9.18958 22.5794 9.76123 22.5794 10.8923V23.7628C22.5794 24.9014 21.9684 25.473 21.183 25.473H7.97733ZM6.58633 5.03858H22.2013C22.034 3.92155 21.4731 3.28499 20.219 3.28499H8.56867C7.31453 3.28499 6.75367 3.92155 6.58633 5.03858ZM8.60219 1.63429H20.1951C20.1163 0.583358 19.4873 0.0234375 18.3564 0.0234375H10.4312C9.30039 0.0234375 8.68094 0.583358 8.60219 1.63429Z" fill="black"/>
<path d="M10.241 21.9289C10.241 22.8205 10.6382 23.237 11.4595 23.237H17.4201C18.2509 23.237 18.6482 22.8205 18.6482 21.9289V17.3598C18.6482 16.5606 18.3189 16.1558 17.6516 16.0921V14.7587C17.6516 12.6046 16.3562 11.1589 14.4398 11.1589C12.5329 11.1589 11.23 12.6046 11.23 14.7587V16.0879C10.5682 16.1558 10.241 16.5606 10.241 17.3598V21.9289ZM12.5964 16.0677V14.6403C12.5964 13.3473 13.3342 12.4902 14.4398 12.4902C15.557 12.4902 16.2831 13.3452 16.2831 14.6403V16.0677H12.5964Z" fill="black"/>
</svg>
