<svg width="35" height="28" viewBox="0 0 35 28" fill="none" xmlns="http://www.w3.org/2000/svg">
<path d="M3.48562 25.2345H30.8932C33.0489 25.2345 34.3767 23.9281 34.3767 21.7894V17.798C34.3767 15.6615 33.0489 14.353 30.8932 14.353H3.48562C1.32773 14.353 0 15.6615 0 17.798V21.7894C0 23.9281 1.32773 25.2345 3.48562 25.2345ZM4.85272 20.2723C4.27077 20.2723 3.85593 19.8596 3.85593 19.2872C3.85593 18.7053 4.27077 18.2808 4.85272 18.2808H8.81929C9.39374 18.2808 9.81819 18.7053 9.81819 19.2872C9.81819 19.8596 9.39374 20.2723 8.81929 20.2723H4.85272ZM14.9934 21.4426C14.0819 21.4426 13.3291 20.6897 13.3291 19.7761C13.3291 18.8902 14.0819 18.1353 14.9934 18.1353C15.8911 18.1353 16.6439 18.8902 16.6439 19.7761C16.6439 20.6897 15.8911 21.4426 14.9934 21.4426ZM19.6376 21.4426C18.7261 21.4426 17.9754 20.6897 17.9754 19.7761C17.9754 18.8902 18.7261 18.1353 19.6376 18.1353C20.5373 18.1353 21.288 18.8902 21.288 19.7761C21.288 20.6897 20.5373 21.4426 19.6376 21.4426ZM24.2817 21.4426C23.3723 21.4426 22.6195 20.6897 22.6195 19.7761C22.6195 18.8902 23.3723 18.1353 24.2817 18.1353C25.1836 18.1353 25.9364 18.8902 25.9364 19.7761C25.9364 20.6897 25.1836 21.4426 24.2817 21.4426ZM28.9301 21.4426C28.0165 21.4426 27.2637 20.6897 27.2637 19.7858C27.2637 18.8902 28.0165 18.1353 28.9301 18.1353C29.8373 18.1353 30.5901 18.8902 30.5901 19.7858C30.5901 20.6897 29.8373 21.4426 28.9301 21.4426Z" fill="black"/>
<path d="M17.1846 9.3739C15.9743 9.3739 14.7619 9.7393 13.9247 10.3646C13.5171 10.6498 13.4053 11.2032 13.6746 11.6234C13.9971 12.0851 14.5589 12.1639 15.0693 11.833C15.6161 11.431 16.3924 11.206 17.1846 11.206C18.0056 11.206 18.7819 11.431 19.3094 11.833C19.8178 12.1735 20.3913 12.0948 20.7117 11.6234C20.9735 11.2032 20.8596 10.6595 20.4637 10.3646C19.586 9.7393 18.3736 9.3739 17.1846 9.3739Z" fill="black"/>
<path d="M17.1846 5.68481C15.2667 5.68481 13.3957 6.24849 11.9287 7.27036C11.501 7.57692 11.384 8.10895 11.6768 8.54512C11.9566 8.97051 12.5226 9.0673 13.0172 8.74809C14.134 7.96785 15.6358 7.51691 17.1846 7.51691C18.743 7.51691 20.2427 7.96785 21.3616 8.74809C21.8562 9.0673 22.4201 8.97051 22.6999 8.54512C22.9926 8.10895 22.8778 7.57692 22.4405 7.27036C21.0119 6.24849 19.1409 5.68481 17.1846 5.68481Z" fill="black"/>
<path d="M17.1846 2C14.5516 2 11.9847 2.77156 9.93184 4.16328C9.48817 4.47945 9.37122 5.02953 9.64895 5.45609C9.9513 5.89437 10.5098 5.97616 10.9746 5.66117C12.7104 4.48765 14.9198 3.81499 17.1846 3.81499C19.4761 3.81499 21.6684 4.47804 23.4042 5.66117C23.869 5.97616 24.4254 5.89437 24.7181 5.45609C25.0151 5.01992 24.9002 4.46985 24.4448 4.16328C22.3748 2.77156 19.8176 2 17.1846 2Z" fill="black"/>
</svg>
