<svg width="30" height="28" viewBox="0 0 30 28" fill="none" xmlns="http://www.w3.org/2000/svg">
<path d="M3.7071 25.5989H16.3127C16.2863 25.4374 16.2661 25.2888 16.2502 25.1189L15.0441 12.5112C14.8706 10.7067 16.1114 9.26063 17.9191 9.26063H21.0886C21.0663 8.62055 20.9608 8.30812 20.6355 7.86867L18.3508 4.84055V2.80804C18.3508 1.00054 17.3023 0 15.4062 0H5.71827C3.8339 0 2.77359 1.00054 2.77359 2.80804V4.84055L0.498515 7.86867C0.109687 8.3864 0 8.77382 0 9.64898V21.9302C0 24.3478 1.2607 25.5989 3.7071 25.5989ZM7.41491 4.65797C6.97945 4.65797 6.62062 4.29703 6.62062 3.84984C6.62062 3.41227 6.98156 3.03211 7.41491 3.03211H13.6912C14.1246 3.03211 14.4855 3.41227 14.4855 3.84984C14.4855 4.29703 14.1267 4.65797 13.6912 4.65797H7.41491Z" fill="black"/>
<path d="M20.6447 27.6247H25.9945C27.6701 27.6247 28.5111 26.7784 28.6877 24.9559L29.9035 12.3503C29.9811 11.5211 29.5112 10.9736 28.7106 10.9736H17.9191C17.1281 10.9736 16.6603 11.5307 16.7358 12.3503L17.9515 24.9559C18.1282 26.7784 18.9595 27.6247 20.6447 27.6247ZM22.4762 11.6661H24.3422L24.421 10.4697C24.4637 9.91537 24.6226 9.60294 25.0245 9.30974L28.9385 6.50146C29.962 5.77373 28.8811 4.22991 27.8011 5.01412L24.0299 7.74248C23.098 8.41982 22.6902 9.17053 22.5826 10.3569L22.4762 11.6661Z" fill="black"/>
</svg>
