<svg width="28" height="28" viewBox="0 0 28 28" fill="none" xmlns="http://www.w3.org/2000/svg">
<path d="M14.105 26.21C20.7369 26.21 26.2121 20.7273 26.2121 14.105C26.2121 7.47312 20.7273 2 14.0954 2C7.47523 2 2 7.47312 2 14.105C2 20.7273 7.48484 26.21 14.105 26.21ZM14.105 23.8255C8.71085 23.8255 4.39412 19.4991 4.39412 14.105C4.39412 8.71085 8.70124 4.38452 14.0954 4.38452C19.4895 4.38452 23.8276 8.71085 23.8276 14.105C23.8276 19.4991 19.4991 23.8255 14.105 23.8255Z" fill="black"/>
<path d="M9.89661 18.6504C9.89661 19.5419 10.2939 19.9584 11.1172 19.9584H17.0779C17.897 19.9584 18.2943 19.5419 18.2943 18.6504V14.0812C18.2943 13.282 17.9671 12.8772 17.3095 12.8135V11.4801C17.3095 9.32599 16.012 7.88037 14.0955 7.88037C12.179 7.88037 10.8857 9.32599 10.8857 11.4801V12.8093C10.2259 12.8772 9.89661 13.282 9.89661 14.0812V18.6504ZM12.2542 12.787V11.3618C12.2542 10.0687 12.9899 9.21161 14.0955 9.21161C15.2053 9.21161 15.941 10.0666 15.941 11.3618V12.787H12.2542Z" fill="black"/>
</svg>
