<svg width="28" height="28" viewBox="0 0 28 28" fill="none" xmlns="http://www.w3.org/2000/svg">
<path d="M5.30531 14.7012V3.02346H9.12422V14.7012C9.12422 15.5398 8.6032 15.8616 8.05125 15.8616H7.78242V24.8972H6.65672V15.8616H6.38578C5.83382 15.8616 5.30531 15.5398 5.30531 14.7012ZM11.9702 14.7012V3.02346H15.7849V14.7012C15.7849 15.5398 15.2681 15.8616 14.7162 15.8616H14.4452V24.8972H13.3195V15.8616H13.0411C12.5219 15.8616 11.9702 15.5419 11.9702 14.7012ZM18.6309 14.7012V3.02346H22.4498V14.7012C22.4498 15.5398 21.9309 15.8616 21.379 15.8616H21.108V24.8972H19.9823V15.8616H19.7039C19.152 15.8616 18.6309 15.5398 18.6309 14.7012ZM3.84421 24.8876H23.9109C26.4499 24.8876 27.7552 23.5919 27.7552 21.0914V6.81963C27.7552 4.31698 26.4499 3.01385 23.9109 3.01385H3.84421C1.31484 3.01385 0 4.31698 0 6.81963V21.0914C0 23.5919 1.31484 24.8876 3.84421 24.8876Z" fill="black"/>
</svg>
