<svg width="30" height="28" viewBox="0 0 30 28" fill="none" xmlns="http://www.w3.org/2000/svg">
<path d="M12.8205 24.9747C13.6952 24.9747 14.3304 24.3395 14.3304 23.4744V5.57171C14.3304 4.70664 13.6952 4.01172 12.8013 4.01172C12.2041 4.01172 11.7785 4.25664 11.1462 4.86883L6.23296 9.4593C6.16476 9.52539 6.06984 9.56055 5.9632 9.56055H2.64538C0.927185 9.56055 0 10.5175 0 12.3273V16.6783C0 18.4977 0.927185 19.4472 2.64538 19.4472H5.96109C6.06773 19.4472 6.16265 19.476 6.23085 19.5421L11.1462 24.1773C11.7241 24.7351 12.2149 24.9747 12.8205 24.9747Z" fill="black"/>
<path d="M19.0965 15.584H27.9887C28.6892 15.584 29.1863 15.1712 29.1863 14.4953C29.1863 13.8098 28.7202 13.3874 27.9887 13.3874H19.0965C18.3767 13.3874 17.8892 13.8098 17.8892 14.4953C17.8892 15.1712 18.3959 15.584 19.0965 15.584Z" fill="black"/>
</svg>
