<svg width="28" height="28" viewBox="0 0 28 28" fill="none" xmlns="http://www.w3.org/2000/svg">
<path d="M14.105 26.21C20.7369 26.21 26.2121 20.7273 26.2121 14.105C26.2121 7.47312 20.7273 2 14.0954 2C7.47523 2 2 7.47312 2 14.105C2 20.7273 7.48484 26.21 14.105 26.21ZM14.105 23.8255C8.71085 23.8255 4.39412 19.4991 4.39412 14.105C4.39412 8.71085 8.70124 4.38452 14.0954 4.38452C19.4895 4.38452 23.8276 8.71085 23.8276 14.105C23.8276 19.4991 19.4991 23.8255 14.105 23.8255Z" fill="black"/>
<path d="M10.76 19.9651H17.4308C18.676 19.9651 19.3555 19.3091 19.3555 18.0617V12.4468H8.83745V18.0617C8.83745 19.3187 9.51691 19.9651 10.76 19.9651ZM12.1257 14.7917C11.8489 14.7917 11.6403 14.5948 11.6403 14.3063V14.1113C11.6403 13.8111 11.8447 13.6259 12.1257 13.6259H16.0672C16.3557 13.6259 16.5526 13.8111 16.5526 14.1113V14.3063C16.5526 14.5948 16.3557 14.7917 16.0672 14.7917H12.1257ZM9.00433 11.4807H19.1907C19.9245 11.4807 20.2866 11.0663 20.2866 10.3538V9.77536C20.2866 9.05536 19.9245 8.62927 19.1907 8.62927H9.00433C8.32066 8.62927 7.91589 9.05536 7.91589 9.77536V10.3538C7.91589 11.0663 8.28011 11.4807 9.00433 11.4807Z" fill="black"/>
</svg>
