<svg width="28" height="28" viewBox="0 0 28 28" fill="none" xmlns="http://www.w3.org/2000/svg">
<path d="M3.84421 24.8737H23.9109C26.4499 24.8737 27.7552 23.5802 27.7552 21.0776V9.86999C27.7552 7.36734 26.4499 6.07383 23.9109 6.07383H3.84421C1.31484 6.07383 0 7.36734 0 9.86999V21.0776C0 23.5802 1.31484 24.8737 3.84421 24.8737ZM3.97733 22.5778C2.88772 22.5778 2.29592 22.0158 2.29592 20.8772V10.0704C2.29592 8.93178 2.88772 8.36975 3.97733 8.36975H23.7778C24.8578 8.36975 25.4592 8.93178 25.4592 10.0704V20.8772C25.4592 22.0158 24.8578 22.5778 23.7778 22.5778H3.97733ZM5.22586 6.90844H11.6644V4.59632C11.6644 3.60023 11.0876 3 10.0861 3H6.80624C5.80265 3 5.22586 3.60023 5.22586 4.59632V6.90844ZM16.0791 6.90844H22.5101V4.59632C22.5101 3.60023 21.9333 3 20.9297 3H17.6498C16.6559 3 16.0791 3.60023 16.0791 4.59632V6.90844Z" fill="black"/>
<path d="M10.2344 16.1948C10.2344 16.4323 10.4208 16.5951 10.6603 16.5951H13.478L11.9679 20.6055C11.7581 21.1816 12.3853 21.5074 12.7601 21.0314L17.3716 15.2899C17.4675 15.1823 17.5261 15.0513 17.5261 14.9374C17.5261 14.7117 17.328 14.5371 17.0927 14.5371H14.2826L15.783 10.5363C15.9949 9.95056 15.3752 9.62689 15.0026 10.1029L10.3793 15.8519C10.293 15.9691 10.2344 16.083 10.2344 16.1948Z" fill="black"/>
</svg>
