<svg width="39" height="29" viewBox="0 0 39 29" fill="none" xmlns="http://www.w3.org/2000/svg">
<path d="M9.09304 16.2913C14.2352 16.2913 18.1605 13.8585 18.1605 10.6297C18.1605 7.39131 14.2352 4.94678 9.09304 4.94678C3.94125 4.94678 0 7.37959 0 10.6297C0 13.8681 3.94125 16.2913 9.09304 16.2913ZM9.08343 14.0624C5.74851 14.0624 3.27796 12.6552 3.27796 10.7748C3.27796 8.87514 5.74851 7.47217 9.08343 7.47217C12.4322 7.47217 14.906 8.87514 14.906 10.7748C14.906 12.6456 12.4322 14.0624 9.08343 14.0624ZM4.43085 10.7748C4.43085 11.946 6.5046 12.9212 9.07383 12.9212C11.6644 12.9212 13.7595 11.946 13.7595 10.7748C13.7595 10.3227 13.4864 9.93779 13.013 9.61482C12.2407 10.5953 10.7459 11.2548 9.07383 11.2548C7.4039 11.2548 5.90906 10.6091 5.10585 9.63076C4.68679 9.94951 4.43085 10.3323 4.43085 10.7748ZM29.3754 16.303C34.4941 16.303 38.4429 13.8681 38.4429 10.6393C38.4429 7.40092 34.4941 4.95639 29.3754 4.95639C24.2098 4.95639 20.2823 7.39131 20.2823 10.6393C20.2823 13.8777 24.2098 16.303 29.3754 16.303ZM29.3562 14.072C26.0212 14.072 23.5486 12.6648 23.5486 10.7844C23.5486 8.88475 26.0212 7.48389 29.3562 7.48389C32.7028 7.48389 35.1691 8.88475 35.1691 10.7844C35.1691 12.6552 32.7028 14.072 29.3562 14.072ZM24.7015 10.7844C24.7015 11.9556 26.7752 12.9308 29.3466 12.9308C31.9371 12.9308 34.0322 11.9556 34.0322 10.7844C34.0322 10.3302 33.7549 9.9474 33.2857 9.61482C32.5134 10.6049 31.0282 11.2644 29.3466 11.2644C27.6766 11.2644 26.1818 10.6229 25.3669 9.64037C24.9553 9.95912 24.7015 10.344 24.7015 10.7844ZM19.2359 28.0393C24.378 28.0393 28.3034 25.5969 28.3034 22.3681C28.3034 19.1277 24.378 16.6949 19.2359 16.6949C14.0798 16.6949 10.1428 19.1181 10.1428 22.3681C10.1428 25.6065 14.0798 28.0393 19.2359 28.0393ZM19.2262 25.8104C15.8817 25.8104 13.4208 24.3936 13.4208 22.5036C13.4208 20.6136 15.8817 19.2085 19.2262 19.2085C22.5729 19.2085 25.0488 20.6136 25.0488 22.5036C25.0488 24.3819 22.5729 25.8104 19.2262 25.8104ZM14.5716 22.5036C14.5716 23.6898 16.6378 24.6575 19.2166 24.6575C21.8072 24.6575 23.9023 23.6898 23.9023 22.5036C23.9023 22.0665 23.6154 21.6838 23.1558 21.3533C22.3835 22.3433 20.8887 22.9815 19.2166 22.9815C17.5467 22.9815 16.0423 22.3571 15.2369 21.3767C14.8296 21.688 14.5716 22.0803 14.5716 22.5036Z" fill="black"/>
</svg>
