<svg width="28" height="28" viewBox="0 0 28 28" fill="none" xmlns="http://www.w3.org/2000/svg">
<path d="M14.105 26.2301C20.7369 26.2301 26.2121 20.7549 26.2121 14.123C26.2121 7.50291 20.7273 2.01807 14.0954 2.01807C7.47523 2.01807 2 7.50291 2 14.123C2 20.7549 7.48484 26.2301 14.105 26.2301Z" fill="black"/>
<path d="M10.4049 19.9414C9.07105 19.9414 8.31519 19.1973 8.31519 17.8773V10.868C8.31519 9.55011 9.07105 8.79214 10.4049 8.79214H16.7288L15.3493 10.1696H10.4262C9.95159 10.1696 9.69261 10.4189 9.69261 10.9329V17.8027C9.69261 18.3146 9.95159 18.5619 10.4262 18.5619H17.5334C17.8449 18.5619 18.087 18.3146 18.087 17.8027V12.9605L19.4527 11.5948V17.8773C19.4527 19.1973 18.7116 19.9414 17.5452 19.9414H10.4049ZM12.6605 15.973C12.4135 16.0773 12.1463 15.8197 12.2602 15.5705L12.8333 14.3977L18.297 8.91589L19.3876 9.97128L13.8983 15.4627L12.6605 15.973ZM19.9285 9.41651L18.8518 8.3494L19.3939 7.81691C19.658 7.54737 20.0616 7.53683 20.3162 7.79347L20.4727 7.95003C20.7155 8.19284 20.7209 8.56128 20.4535 8.83503L19.9285 9.41651Z" fill="white"/>
</svg>
