<svg width="28" height="28" viewBox="0 0 28 28" fill="none" xmlns="http://www.w3.org/2000/svg">
<path d="M4 22.5405C4 25.0719 5.29562 26.3772 7.80577 26.3772H20.2891C22.8013 26.3772 24.0948 25.0623 24.0948 22.5405V9.67374C24.0948 8.42288 23.8164 7.67781 23.0948 6.94656L18.243 2.10648C17.4852 1.3307 16.6548 1.01172 15.4441 1.01172H7.80577C5.30523 1.01172 4 2.33617 4 4.85804V22.5405ZM6.29592 22.3977V5.00077C6.29592 3.92077 6.85795 3.30975 7.99866 3.30975H15.4012C16.1282 3.30975 16.6726 3.52983 17.1473 4.02576L21.2388 8.15569C21.6489 8.57007 21.7989 8.99569 21.7989 9.75108V22.3977C21.7989 23.4895 21.2369 24.0813 20.0983 24.0813H7.98905C6.85795 24.0813 6.29592 23.4895 6.29592 22.3977Z" fill="black"/>
<path d="M8.52502 20.5921C8.52502 21.5852 9.144 22.2063 10.1253 22.2063H11.5799V16.649C11.5799 16.517 11.5011 16.45 11.3713 16.45H8.52502V20.5921ZM8.52502 15.0142H12.2387C12.7241 15.0142 13.0135 15.3133 13.0135 15.7891V22.2063H15.2003V11.8518H10.1253C9.144 11.8518 8.52502 12.4729 8.52502 13.4755V15.0142ZM16.634 22.2063H17.9812C18.9625 22.2063 19.5932 21.5852 19.5932 20.5921V13.4755C19.5932 12.4729 18.9625 11.8518 17.9812 11.8518H16.634V22.2063Z" fill="black"/>
</svg>
