<svg width="28" height="28" viewBox="0 0 28 28" fill="none" xmlns="http://www.w3.org/2000/svg">
<path d="M14.105 26.21C20.7369 26.21 26.2121 20.7273 26.2121 14.105C26.2121 7.47312 20.7273 2 14.0954 2C7.47523 2 2 7.47312 2 14.105C2 20.7273 7.48484 26.21 14.105 26.21Z" fill="black"/>
<path d="M11.2297 20.5709C9.87898 20.5709 9.17188 19.8755 9.17188 18.4939V9.40387C9.17188 8.04145 9.87898 7.32684 11.2297 7.32684H13.5519V12.2049C13.5519 13.0149 13.9419 13.3953 14.7402 13.3953H19.5584V18.4939C19.5584 19.8563 18.863 20.5709 17.5006 20.5709H11.2297ZM14.9119 12.3835C14.683 12.3835 14.5519 12.2642 14.5519 12.0235V7.39082C14.8362 7.42176 15.128 7.63035 15.4454 7.9573L18.9162 11.4837C19.2474 11.8149 19.4539 12.0992 19.4848 12.3835H14.9119Z" fill="white"/>
</svg>
