<svg width="28" height="28" viewBox="0 0 28 28" fill="none" xmlns="http://www.w3.org/2000/svg">
<path d="M14.105 26.21C20.7369 26.21 26.2121 20.7273 26.2121 14.105C26.2121 7.47312 20.7273 2 14.0954 2C7.47523 2 2 7.47312 2 14.105C2 20.7273 7.48484 26.21 14.105 26.21ZM14.105 23.8255C8.71085 23.8255 4.39412 19.4991 4.39412 14.105C4.39412 8.71085 8.70124 4.38452 14.0954 4.38452C19.4895 4.38452 23.8276 8.71085 23.8276 14.105C23.8276 19.4991 19.4991 23.8255 14.105 23.8255Z" fill="black"/>
<path d="M9.20097 18.8098H19.0112C20.2426 18.8098 20.8794 18.1752 20.8794 16.9587V13.7764C20.8794 13.153 20.7856 12.8827 20.4952 12.507L18.5361 9.92258C17.829 9.00102 17.4495 8.75305 16.4258 8.75305H11.7843C10.7626 8.75305 10.3714 9.00102 9.67605 9.92258L7.7169 12.507C7.42651 12.8827 7.33276 13.153 7.33276 13.7764V16.9587C7.33276 18.1752 7.97706 18.8098 9.20097 18.8098ZM9.0662 13.3496C8.87565 13.3496 8.8405 13.1825 8.93096 13.0569L10.9351 10.3988C11.1547 10.0981 11.3839 9.97555 11.7625 9.97555H16.4572C16.8378 9.97555 17.067 10.1077 17.2749 10.3988L19.2908 13.0569C19.3813 13.1729 19.3365 13.3496 19.1459 13.3496H15.946C15.635 13.3496 15.4944 13.5882 15.4944 13.8364V13.9749C15.4944 14.7687 14.952 15.2675 14.105 15.2675C13.258 15.2675 12.7369 14.7687 12.7369 13.9749V13.8364C12.7369 13.5882 12.575 13.3496 12.2661 13.3496H9.0662Z" fill="black"/>
</svg>
