<svg width="35" height="28" viewBox="0 0 35 28" fill="none" xmlns="http://www.w3.org/2000/svg">
<path d="M0 19.982C0 22.8275 1.8614 24.6172 4.57664 24.6172C6.10264 24.6172 7.4946 23.9701 8.53803 22.7472L10.6212 20.3157C10.9216 19.9714 11.231 19.8062 11.5931 19.8062H22.7072C23.0693 19.8062 23.3787 19.9714 23.6791 20.3157L25.7644 22.7472C26.8078 23.968 28.1976 24.6172 29.7237 24.6172C32.4389 24.6172 34.3003 22.8275 34.3003 19.982C34.3003 18.7553 34.035 17.3633 33.5695 15.8221C32.8483 13.405 31.5923 10.127 30.3991 7.6042C29.3829 5.48006 28.8293 4.44108 26.2605 3.8596C24.0089 3.34515 20.9166 3.00952 17.156 3.00952C13.3934 3.00952 10.2914 3.34515 8.03976 3.8596C5.47101 4.44108 4.91742 5.48006 3.90328 7.6042C2.71008 10.127 1.45195 13.405 0.73289 15.8221C0.267422 17.3633 0 18.7553 0 19.982ZM2.1642 19.9722C2.1642 19.255 2.32194 18.396 2.68639 17.1545C3.47788 14.4381 4.83303 10.9459 6.01452 8.37295C6.5803 7.13802 6.89249 6.43747 8.29358 6.11122C10.4421 5.59888 13.4634 5.27169 17.156 5.27169C20.839 5.27169 23.8582 5.59888 26.0067 6.11122C27.4078 6.43747 27.7104 7.13802 28.2858 8.37295C29.4844 10.9459 30.7936 14.4477 31.6139 17.1545C31.988 18.396 32.1382 19.255 32.1382 19.9722C32.1382 21.4839 31.0753 22.419 29.6712 22.419C28.8269 22.419 27.9914 21.9819 27.3223 21.1963L24.9862 18.5235C24.4153 17.8607 23.9487 17.544 22.92 17.544H11.3803C10.3537 17.544 9.88499 17.8607 9.31405 18.5235L6.97804 21.1963C6.31312 21.984 5.47335 22.419 4.62913 22.419C3.22499 22.419 2.1642 21.4839 2.1642 19.9722Z" fill="black"/>
<path d="M7.58997 11.5224C7.58997 12.1761 7.99333 12.5848 8.65122 12.5848H10.6319V14.4985C10.6319 15.1531 11.0182 15.5703 11.6611 15.5703C12.2923 15.5703 12.6881 15.1531 12.6881 14.4985V12.5848H14.5462C15.2552 12.5848 15.682 12.1761 15.682 11.5224C15.682 10.8879 15.2552 10.4909 14.5462 10.4909H12.6881V8.57513C12.6881 7.92263 12.2923 7.51294 11.6611 7.51294C11.0182 7.51294 10.6319 7.92263 10.6319 8.57513V10.4909H8.65122C7.99333 10.4909 7.58997 10.8879 7.58997 11.5224ZM24.4671 11.408C25.4512 11.408 26.1989 10.6625 26.1989 9.68794C26.1989 8.70169 25.4512 7.94443 24.4671 7.94443C23.5022 7.94443 22.7332 8.70169 22.7332 9.68794C22.7332 10.6625 23.5022 11.408 24.4671 11.408ZM20.988 14.9328C21.9647 14.9328 22.7219 14.1756 22.7219 13.2031C22.7219 12.2168 21.9647 11.4596 20.988 11.4596C20.0252 11.4596 19.2562 12.2168 19.2562 13.2031C19.2562 14.1756 20.0252 14.9328 20.988 14.9328Z" fill="black"/>
</svg>
