<svg width="28" height="28" viewBox="0 0 28 28" fill="none" xmlns="http://www.w3.org/2000/svg">
<path d="M7.94484 11.5179H20.0198V9.74016H7.94484V11.5179ZM6 7.35374C6 11.8094 8.64258 13.0704 9.3525 20.7159C9.40571 21.2644 9.735 21.6077 10.3026 21.6077H17.6428C18.2201 21.6077 18.5494 21.2644 18.6026 20.7159C19.3104 13.0704 21.9476 11.8116 21.9476 7.35585C21.9476 3.20953 18.4083 0 13.9727 0C9.53718 0 6 3.20742 6 7.35374ZM8.04796 7.35374C8.04796 4.25718 10.762 2.04796 13.9727 2.04796C17.1813 2.05007 19.8996 4.25718 19.8996 7.35374C19.8996 10.5546 17.7384 11.3937 16.728 19.5619H11.227C10.207 11.3937 8.04796 10.5546 8.04796 7.35374ZM10.2169 24.3246H17.7361C18.1608 24.3246 18.4854 23.984 18.4854 23.5699C18.4854 23.1612 18.1608 22.8227 17.7361 22.8227H10.2169C9.79219 22.8227 9.45797 23.1612 9.45797 23.5699C9.45797 23.984 9.79219 24.3246 10.2169 24.3246ZM13.9727 27.8053C15.8271 27.8053 17.3219 26.9041 17.4455 25.5417H10.497C10.5895 26.9041 12.1066 27.8053 13.9727 27.8053Z" fill="black"/>
</svg>
