<svg width="28" height="28" viewBox="0 0 28 28" fill="none" xmlns="http://www.w3.org/2000/svg">
<path d="M6.84421 25.0744H21.0295C23.5685 25.0744 24.8737 23.7691 24.8737 21.2686V7.0064C24.8737 4.50375 23.5685 3.20062 21.0295 3.20062H6.84421C4.31484 3.20062 3 4.49414 3 7.0064V21.2686C3 23.7787 4.31484 25.0744 6.84421 25.0744ZM6.97733 22.7784C5.88772 22.7784 5.29592 22.2143 5.29592 21.0757V7.19718C5.29592 6.05858 5.88772 5.49655 6.97733 5.49655H20.8964C21.9764 5.49655 22.5778 6.05858 22.5778 7.19718V21.0757C22.5778 22.2143 21.9764 22.7784 20.8964 22.7784H6.97733Z" fill="black"/>
<path d="M10.6005 20.2486C10.9178 20.2486 11.1126 20.0791 11.6116 19.5877L13.8905 17.3355C13.9214 17.3025 13.9662 17.3025 13.9971 17.3355L16.2855 19.5877C16.777 20.0791 16.9697 20.2486 17.2849 20.2486C17.7298 20.2486 18.0117 19.9336 18.0117 19.4248V9.79593C18.0117 8.6571 17.411 8.04468 16.2647 8.04468H11.6207C10.4861 8.04468 9.8833 8.6571 9.8833 9.79593V19.4248C9.8833 19.9336 10.1674 20.2486 10.6005 20.2486Z" fill="black"/>
</svg>
