<svg width="28" height="28" viewBox="0 0 28 28" fill="none" xmlns="http://www.w3.org/2000/svg">
<path d="M1.72922 14.3476H25.9734V12.344H1.72922V14.3476ZM6.63538 15.9067H9.49944C10.4011 15.9067 10.9162 15.399 10.9162 14.507V12.2038C10.9162 11.3118 10.4011 10.7945 9.49944 10.7945H6.63538C5.74335 10.7945 5.2303 11.3118 5.2303 12.2038V14.507C5.2303 15.399 5.74335 15.9067 6.63538 15.9067ZM18.1936 15.9067H21.0576C21.9593 15.9067 22.4744 15.399 22.4744 14.507V12.2038C22.4744 11.3118 21.9593 10.7945 21.0576 10.7945H18.1936C17.2919 10.7945 16.7789 11.3118 16.7789 12.2038V14.507C16.7789 15.399 17.2919 15.9067 18.1936 15.9067ZM3.78773 24.3058H23.917C26.4251 24.3058 27.7026 23.0378 27.7026 20.5565V9.08874C27.7026 6.59991 26.4251 5.34156 23.917 5.34156H3.78773C1.28718 5.34156 0 6.59991 0 9.08874V20.5565C0 23.0378 1.28718 24.3058 3.78773 24.3058ZM3.87444 22.0933C2.84413 22.0933 2.29592 21.5547 2.29592 20.4859V9.16139C2.29592 8.08303 2.84413 7.55404 3.87444 7.55404H23.8303C24.8585 7.55404 25.4067 8.08303 25.4067 9.16139V20.4859C25.4067 21.5547 24.8585 22.0933 23.8303 22.0933H3.87444ZM7.71211 6.29781H9.83436V4.27421C9.83436 3.4321 10.3237 2.96194 11.1851 2.96194H16.5176C17.3789 2.96194 17.8587 3.43421 17.8587 4.27421V6.27859H19.983V4.27445C19.983 2.05867 18.7849 1 16.5794 1H11.1094C9.0021 1 7.71211 2.05867 7.71211 4.27445V6.29781Z" fill="black"/>
</svg>
