<svg width="30" height="28" viewBox="0 0 30 28" fill="none" xmlns="http://www.w3.org/2000/svg">
<path d="M0.762749 24.9153L2.88196 27.0441C3.9786 28.1504 5.2761 28.0779 6.44633 26.7863L19.523 12.3507L18.1456 10.9637L5.14157 25.1607C4.76399 25.5842 4.40985 25.6845 3.91907 25.1916L2.60563 23.8857C2.11273 23.4003 2.22265 23.0429 2.64617 22.6557L16.6351 9.46062L15.2502 8.08531L1.00884 21.3584C-0.242249 22.5148 -0.335999 23.8069 0.762749 24.9153ZM8.72774 2.63609C8.19008 3.16414 8.15282 3.89562 8.45094 4.40445C8.7575 4.90343 9.37789 5.23319 10.2167 5.01499C11.9766 4.59218 13.7415 4.55561 15.3744 5.60046L14.7092 7.25797C14.2822 8.30257 14.4868 9.06687 15.182 9.77374L17.881 12.4962C18.5703 13.1855 19.1237 13.2596 19.9004 13.1108L21.0807 12.889L21.7805 13.6006L21.7316 14.2306C21.6763 14.8515 21.8581 15.3549 22.4694 15.9544L23.3919 16.8535C24.0294 17.4889 24.852 17.524 25.4715 16.9046L28.9932 13.3733C29.6126 12.7538 29.5871 11.9462 28.9517 11.3087L28.0238 10.3883C27.4264 9.78875 26.9305 9.58227 26.3309 9.63336L25.6817 9.68984L24.999 9.02093L25.2687 7.77874C25.4401 7.00203 25.2357 6.42406 24.4482 5.63656L21.8748 3.07484C17.8142 -0.966483 12.2914 -0.931793 8.72774 2.63609ZM10.8919 3.14468C13.7551 1.16796 17.5735 1.59663 20.1631 4.18413L23.0347 7.03437C23.318 7.31773 23.3649 7.54882 23.285 7.95898L22.9215 9.71702L24.8042 11.5805L25.9815 11.5123C26.2651 11.5027 26.3567 11.5283 26.5721 11.7437L27.1644 12.3359L24.4098 15.0905L23.8175 14.4983C23.6021 14.2829 23.5669 14.1912 23.5766 13.898L23.6544 12.7304L21.7812 10.8669L19.9848 11.1631C19.5917 11.2409 19.4012 11.2037 19.1082 10.9203L16.8366 8.64874C16.5319 8.36328 16.4799 8.14507 16.659 7.71242L17.7158 5.19195C15.8366 3.40367 13.3864 2.67898 10.9826 3.35164C10.8183 3.39219 10.7544 3.25672 10.8919 3.14468Z" fill="black"/>
</svg>
