<svg width="28" height="28" viewBox="0 0 28 28" fill="none" xmlns="http://www.w3.org/2000/svg">
<path d="M4.07835 25.2275C4.67389 25.2275 5.16092 24.7543 5.16092 24.1545V17.7402C5.47498 17.6197 6.4753 17.2611 7.99125 17.2611C12.2555 17.2611 15.1029 19.3927 19.2342 19.3927C21.0391 19.3927 21.8496 19.1682 22.755 18.755C23.591 18.3727 24.0888 17.7001 24.0888 16.6093V4.91726C24.0888 4.15789 23.4991 3.68704 22.7119 3.68704C22.0554 3.68704 21.0026 4.13915 19.1072 4.13915C15.0265 4.13915 12.1381 2.00751 7.86421 2.00751C6.0846 2.00751 5.28773 2.2236 4.34437 2.64946C3.51258 3.02751 3 3.63477 3 4.69907V24.1545C3 24.7426 3.49453 25.2275 4.07835 25.2275Z" fill="black"/>
</svg>
