<svg width="28" height="28" viewBox="0 0 28 28" fill="none" xmlns="http://www.w3.org/2000/svg">
<path d="M3.84421 24.4661H23.9109C26.4499 24.4661 27.7552 23.163 27.7552 20.6603V14.1072C27.7552 12.8332 27.5763 12.2671 26.9775 11.4841L23.1201 6.33206C21.7605 4.51847 21.0448 4.02136 18.9209 4.02136H8.83429C6.71039 4.02136 6.00422 4.51847 4.64461 6.33206L0.777652 11.4841C0.190546 12.2693 0 12.8332 0 14.1072V20.6603C0 23.1726 1.31484 24.4661 3.84421 24.4661ZM13.8776 17.3034C12.1071 17.3034 10.9905 15.8748 10.9905 14.4081V14.3244C10.9905 13.7887 10.6678 13.2796 9.99469 13.2796H2.89897C2.47639 13.2796 2.39647 12.9241 2.60506 12.6431L6.87561 6.88822C7.3746 6.20361 8.00273 5.9383 8.79913 5.9383H18.9539C19.7524 5.9383 20.3806 6.20361 20.8795 6.88822L25.1501 12.6431C25.3491 12.9241 25.2767 13.2796 24.8541 13.2796H17.7605C17.0873 13.2796 16.7742 13.7887 16.7742 14.3244V14.4081C16.7742 15.8748 15.6577 17.3034 13.8776 17.3034ZM18.7488 7.58502H9.00632C8.6857 7.58502 8.4375 7.83533 8.4375 8.15596C8.4375 8.47869 8.6857 8.72901 9.00632 8.72901H18.7488C19.0695 8.72901 19.3177 8.47869 19.3177 8.15596C19.3177 7.83533 19.0695 7.58502 18.7488 7.58502ZM20.2758 10.1533H7.47937C7.14703 10.1533 6.88289 10.4505 6.88289 10.7732C6.88289 11.096 7.14703 11.3676 7.47937 11.3676H20.2758C20.6081 11.3676 20.8723 11.096 20.8723 10.7732C20.8723 10.4505 20.6081 10.1533 20.2758 10.1533Z" fill="black"/>
</svg>
