<svg width="31" height="28" viewBox="0 0 31 28" fill="none" xmlns="http://www.w3.org/2000/svg">
<path d="M0 19.4517C0 22.7803 2.96765 25.2865 6.63585 25.2865C10.2923 25.2865 13.2483 22.7803 13.2483 19.4517V6.58264C13.2483 4.31155 11.7286 2.81226 9.38789 2.81226C7.54148 2.81226 6.08672 3.75562 5.38196 5.41827L0.589219 16.7029C0.134062 17.7656 0 18.6047 0 19.4517ZM3.97943 14.2104L7.37858 6.2203C7.73694 5.3735 8.44734 4.886 9.30281 4.886C10.3995 4.886 11.1162 5.6135 11.1162 6.70475V15.2714C9.98016 14.2378 8.35758 13.619 6.63585 13.619C5.72155 13.619 4.78803 13.8347 3.97943 14.2104ZM2.2153 19.4517C2.2153 17.246 4.11397 15.7502 6.63585 15.7502C9.14813 15.7502 11.1066 17.246 11.1066 19.4517C11.1066 21.6553 9.14813 23.1532 6.63585 23.1532C4.11397 23.1532 2.2153 21.6553 2.2153 19.4517ZM30.3651 19.458C30.3651 18.6089 30.2215 17.7698 29.7684 16.7093L24.9832 5.42249C24.2688 3.75984 22.8258 2.81647 20.9773 2.81647C18.6366 2.81647 17.1169 4.31788 17.1169 6.58897V19.458C17.1169 22.7866 20.0728 25.2907 23.7293 25.2907C27.3879 25.2907 30.3651 22.7866 30.3651 19.458ZM26.3857 14.2146C25.5771 13.8389 24.6436 13.6233 23.7293 13.6233C22.0076 13.6233 20.3754 14.2441 19.2394 15.2756V6.71108C19.2394 5.61772 19.9657 4.89021 21.0623 4.89021C21.9082 4.89021 22.6207 5.37772 22.9769 6.22452L26.3857 14.2146ZM28.1402 19.458C28.1402 21.6595 26.2416 23.1574 23.7293 23.1574C21.2074 23.1574 19.2586 21.6595 19.2586 19.458C19.2586 17.2523 21.2074 15.7544 23.7293 15.7544C26.2416 15.7544 28.1402 17.2523 28.1402 19.458ZM12.5517 16.9563C13.2251 16.567 14.1801 16.3174 15.1884 16.3174C16.3964 16.3174 17.2085 16.4976 17.868 16.935V14.9843C17.1178 14.6836 16.2321 14.5439 15.1884 14.5439C14.2558 14.5439 13.3446 14.7241 12.5517 15.0387V16.9563ZM12.5517 13.3652C13.2251 12.9663 14.1801 12.7263 15.1884 12.7263C16.3964 12.7263 17.2085 12.8969 17.868 13.3439V11.3953C17.1178 11.0946 16.2321 10.9549 15.1884 10.9549C14.2558 10.9549 13.3446 11.1351 12.5517 11.4497V13.3652ZM12.5517 9.75819C13.2251 9.36889 14.1801 9.11928 15.1884 9.11928C16.3964 9.11928 17.2085 9.30162 17.868 9.73686V7.79788C17.1178 7.49718 16.2321 7.34788 15.1884 7.34788C14.2558 7.34788 13.3446 7.53984 12.5517 7.85015V9.75819Z" fill="black"/>
</svg>
