<svg width="28" height="28" viewBox="0 0 28 28" fill="none" xmlns="http://www.w3.org/2000/svg">
<path d="M6.84421 24.8972H21.0295C23.5685 24.8972 24.8737 23.5919 24.8737 21.0914V6.82921C24.8737 4.32656 23.5685 3.02344 21.0295 3.02344H6.84421C4.31484 3.02344 3 4.31695 3 6.82921V21.0914C3 23.6016 4.31484 24.8972 6.84421 24.8972Z" fill="black"/>
<path d="M9.19653 16.1761C9.19653 14.8987 10.27 13.5602 11.9727 12.9487L12.1581 10.1486C11.2867 9.65222 10.5929 9.10026 10.2754 8.70487C10.0996 8.48433 10.0058 8.25534 10.0058 8.0519C10.0058 7.65792 10.3157 7.37573 10.7598 7.37573H17.1953C17.6394 7.37573 17.9493 7.65792 17.9493 8.0519C17.9493 8.25534 17.8534 8.47261 17.699 8.69526C17.3856 9.09487 16.678 9.64261 15.797 10.1486L15.992 12.9487C17.6851 13.5602 18.7586 14.8987 18.7586 16.1761C18.7586 16.732 18.4018 17.0749 17.8384 17.0749H14.7929V19.2101C14.7929 20.4066 14.2171 21.5934 13.9775 21.5934C13.7359 21.5934 13.1622 20.4066 13.1622 19.2101V17.0749H10.1167C9.56286 17.0749 9.19653 16.732 9.19653 16.1761Z" fill="white"/>
</svg>
