<svg width="29" height="28" viewBox="0 0 29 28" fill="none" xmlns="http://www.w3.org/2000/svg">
<path d="M12.8205 24.9747C13.6952 24.9747 14.3304 24.3395 14.3304 23.4744V5.57171C14.3304 4.70664 13.6952 4.01172 12.8013 4.01172C12.2041 4.01172 11.7881 4.26625 11.1462 4.86883L6.23296 9.4593C6.16476 9.52539 6.06984 9.56055 5.9632 9.56055H2.64538C0.927185 9.56055 0 10.5175 0 12.3273V16.6783C0 18.4977 0.927185 19.4472 2.64538 19.4472H5.96109C6.06773 19.4472 6.16265 19.476 6.23085 19.5421L11.1462 24.1773C11.7241 24.7351 12.2149 24.9747 12.8205 24.9747Z" fill="black"/>
<path d="M28.1263 11.5333H25.4017V11.5262L28.2505 7.77086C28.5146 7.43219 28.6189 7.21187 28.6189 6.97445C28.6189 6.5582 28.2889 6.2943 27.8525 6.2943H23.8771C23.4524 6.2943 23.1575 6.56992 23.1575 6.99039C23.1575 7.42258 23.4524 7.70031 23.8771 7.70031H26.4514V7.68391L23.5611 11.4372C23.2928 11.7801 23.2044 11.992 23.2044 12.2688C23.2044 12.6562 23.5131 12.9414 23.9591 12.9414H28.1263C28.5489 12.9414 28.8458 12.6637 28.8458 12.2315C28.8458 11.8206 28.5489 11.5333 28.1263 11.5333ZM21.1682 16.3431H19.2807V16.3595L21.2807 13.7427C21.5277 13.4233 21.6353 13.2072 21.6353 12.9719C21.6353 12.5791 21.3212 12.3386 20.8965 12.3386H17.9019C17.5049 12.3386 17.2314 12.6025 17.2314 12.9878C17.2314 13.42 17.5028 13.6722 17.9019 13.6722H19.5796V13.6558L17.5914 16.263C17.3582 16.5824 17.2602 16.7826 17.2602 17.0434C17.2602 17.417 17.5475 17.6884 17.9521 17.6884H21.1682C21.5715 17.6884 21.8429 17.4384 21.8429 17.0158C21.8429 16.6187 21.5694 16.3431 21.1682 16.3431ZM26.4925 20.7864H24.8896V20.8028L26.5815 18.5387C26.8243 18.2076 26.9127 18.0266 26.9127 17.8073C26.9127 17.4241 26.62 17.1857 26.2325 17.1857H23.5768C23.1894 17.1857 22.9297 17.4358 22.9297 17.8211C22.9297 18.2202 23.1873 18.4586 23.5768 18.4586H24.9646V18.4401L23.2843 20.7062C23.0607 21.014 22.9553 21.2045 22.9553 21.4398C22.9553 21.7975 23.248 22.0572 23.6333 22.0572H26.4925C26.8543 22.0572 27.1161 21.8071 27.1161 21.4122C27.1161 21.0386 26.8522 20.7864 26.4925 20.7864Z" fill="black"/>
</svg>
