<svg width="29" height="28" viewBox="0 0 29 28" fill="none" xmlns="http://www.w3.org/2000/svg">
<path d="M0 21.2525C0 23.6825 1.26703 24.9624 3.69163 24.9624H18.1244C20.5704 24.9624 21.8545 23.7017 21.8545 21.2909V16.5924C21.8545 16.3475 22.0462 16.261 22.268 16.4274C22.8851 16.8669 23.6025 17.2126 24.528 17.2126C26.6151 17.2126 28.1894 15.6212 28.1894 13.5148C28.1894 11.4181 26.6151 9.82461 24.528 9.82461C23.6025 9.82461 22.8851 10.1703 22.268 10.6119C22.0462 10.7783 21.8545 10.6897 21.8545 10.4448V5.66937C21.8545 3.2607 20.5704 2 18.1244 2H3.69163C1.26703 2 0 3.27992 0 5.70991V10.7689C0 11.5981 0.633514 12.1126 1.36617 12.1126C1.78875 12.1126 2.23898 11.9295 2.60859 11.5442C3.12773 11.0328 3.84117 10.3175 5.22374 10.3175C6.99116 10.3175 8.39202 11.7343 8.40468 13.5273C8.41734 15.3202 6.99749 16.737 5.22374 16.737C3.84117 16.737 3.12773 16.0121 2.60859 15.5007C2.23898 15.125 1.78875 14.9419 1.36617 14.9419C0.633514 14.9419 0 15.4564 0 16.2856V21.2525Z" fill="black"/>
</svg>
