<svg width="28" height="28" viewBox="0 0 28 28" fill="none" xmlns="http://www.w3.org/2000/svg">
<path d="M4.84421 24.825H24.3062C26.541 24.825 27.8558 23.5198 27.8558 21.0192V8.96718C27.8558 6.46664 26.5314 5.16141 24.0116 5.16141H13.1076C12.2706 5.16141 11.7627 4.96758 11.1219 4.43625L10.4493 3.8925C9.62944 3.21727 9.02335 3 7.79569 3H4.47905C2.29539 3 1 4.27523 1 6.73405V21.0192C1 23.5294 2.31484 24.825 4.84421 24.825Z" fill="black"/>
<path d="M14.1889 17.1837C13.5008 17.1837 13.1115 16.8612 13.1115 16.2129C13.1115 16.1702 13.1115 16.1318 13.1115 16.0912C13.1115 15.0602 13.7019 14.4891 14.4966 13.9287C15.4632 13.2605 15.9319 12.9162 15.9319 12.203C15.9319 11.4403 15.3209 10.9083 14.409 10.9083C13.7424 10.9083 13.2092 11.223 12.8234 11.8467L12.6495 12.0825C12.4217 12.3677 12.1397 12.551 11.7352 12.551C11.2737 12.551 10.8362 12.214 10.8362 11.67C10.8362 11.456 10.8873 11.2622 10.9543 11.0737C11.3033 10.0193 12.609 9.14648 14.5447 9.14648C16.5551 9.14648 18.2508 10.2122 18.2508 12.0935C18.2508 13.3999 17.5226 14.0573 16.4075 14.7785C15.675 15.2487 15.278 15.6366 15.2443 16.2251C15.2422 16.2698 15.24 16.3167 15.2379 16.3561C15.2084 16.8279 14.8116 17.1837 14.1889 17.1837ZM14.1697 20.6407C13.4513 20.6407 12.8391 20.107 12.8391 19.3992C12.8391 18.6935 13.4417 18.1556 14.1697 18.1556C14.9093 18.1556 15.496 18.686 15.496 19.3992C15.496 20.1166 14.8997 20.6407 14.1697 20.6407Z" fill="white"/>
</svg>
