<svg width="28" height="28" viewBox="0 0 28 28" fill="none" xmlns="http://www.w3.org/2000/svg">
<path d="M7.99202 6.63235L9.52413 5.10236L5.76546 1.35541C5.34734 0.929786 4.65148 0.927677 4.23758 1.35541C3.81945 1.77142 3.82156 2.45767 4.23758 2.88329L7.99202 6.63235ZM23.3098 20.265L21.7991 18.717C19.9358 20.6417 17.348 21.7953 14.424 21.7953C8.66983 21.7953 4.16304 17.2906 4.16304 11.5343C4.16304 8.62197 5.31663 6.03845 7.21788 4.18267L5.6464 2.70377C3.38656 4.93736 2 8.05478 2 11.5343C2 18.4652 7.49726 23.9583 14.424 23.9583C17.929 23.9583 21.0624 22.5504 23.3098 20.265ZM20.7366 16.3266L19.1396 17.7799L23.3827 22.0209C23.8008 22.4348 24.485 22.437 24.901 22.0209C25.3287 21.6049 25.3287 20.9091 24.901 20.491L20.7366 16.3266ZM13.3377 23.3248V26.6634H15.5007V23.3248H13.3377ZM10.1516 27.9148H18.7177C19.3093 27.9148 19.7944 27.4296 19.7944 26.8381C19.7944 26.2465 19.3093 25.7538 18.7177 25.7538H10.1516C9.56211 25.7538 9.06523 26.2465 9.06523 26.8381C9.06523 27.4296 9.56211 27.9148 10.1516 27.9148ZM14.424 20.2088C19.208 20.2088 23.0909 16.3259 23.0909 11.5343C23.0909 6.75236 19.208 2.86736 14.424 2.86736C9.63241 2.86736 5.74953 6.75236 5.74953 11.5343C5.74953 16.3259 9.63241 20.2088 14.424 20.2088ZM14.424 18.1355C10.5711 18.1355 7.8249 15.3872 7.8249 11.5343C7.8249 7.68141 10.5711 4.94274 14.424 4.94274C18.279 4.94274 21.0155 7.68141 21.0155 11.5343C21.0155 15.3872 18.279 18.1355 14.424 18.1355Z" fill="black"/>
</svg>
