<svg width="28" height="28" viewBox="0 0 28 28" fill="none" xmlns="http://www.w3.org/2000/svg">
<path d="M20.0869 1H4.90226C3.17 1 2 2.20726 2 3.98218V7.1057H22.9796V3.98218C22.9796 2.20726 21.8075 1 20.0869 1ZM6.42148 5.70859C5.79124 5.70859 5.27703 5.18054 5.27703 4.56414C5.27703 3.92641 5.79124 3.41008 6.42148 3.41008C7.0496 3.41008 7.55421 3.92641 7.55421 4.56414C7.55421 5.18054 7.0496 5.70859 6.42148 5.70859ZM9.66171 5.70859C9.03358 5.70859 8.52686 5.18054 8.52686 4.56414C8.52686 3.92641 9.03358 3.41008 9.66171 3.41008C10.2898 3.41008 10.7965 3.92641 10.7965 4.56414C10.7965 5.18054 10.2898 5.70859 9.66171 5.70859ZM16.3601 5.24734C15.9547 5.24734 15.6844 4.96961 15.6844 4.56414C15.6844 4.15117 15.9547 3.87344 16.3601 3.87344H19.1818C19.5947 3.87344 19.865 4.15117 19.865 4.56414C19.865 4.96961 19.5947 5.24734 19.1818 5.24734H16.3601ZM4.90226 26.2654H14.0389C13.9421 26.1079 13.8495 25.9344 13.7804 25.7451L12.9896 23.6221C12.8342 23.6338 12.6617 23.6359 12.4946 23.6359C8.90843 23.6359 6.00288 20.7304 6.00288 17.1538C6.00288 13.5772 8.90843 10.6642 12.4946 10.6642C15.9678 10.6642 18.808 13.4212 18.9366 16.8522C18.9366 16.9216 18.9387 17.0026 18.9291 17.0837C19.0372 17.1398 19.1091 17.1714 19.2047 17.1714C19.614 17.1714 20.6213 16.3002 21.9718 16.3002C22.3747 16.3002 22.722 16.3684 22.9796 16.4526V8.85131H2V23.2928C2 25.0698 3.17 26.2654 4.90226 26.2654ZM7.49256 17.1538C7.49256 20.0476 9.90733 22.1507 12.4437 22.1483L11.3044 19.0776C10.8212 17.7714 11.4662 16.4863 12.6256 16.0647C13.4452 15.7677 14.3776 15.9592 15.0099 16.5848C15.3427 16.4493 15.7545 16.3276 16.2741 16.3234C16.6496 16.3171 17.0155 16.409 17.3696 16.5414C17.3633 16.3846 17.3494 16.2299 17.3239 16.0731C16.8709 13.829 14.881 12.1518 12.4946 12.1518C9.71397 12.1518 7.49256 14.3753 7.49256 17.1538Z" fill="black"/>
<path d="M19.2047 19.9133C20.5997 19.9133 20.9297 19.0133 21.9622 19.0133C22.8151 19.0133 23.157 19.6511 24.2426 19.8128L24.4386 18.5439C23.6103 18.3587 23.0757 17.6945 21.9622 17.6945C20.6021 17.6945 20.12 18.5945 19.2047 18.5945C18.2874 18.5945 17.7957 17.6945 16.4377 17.6945C15.3317 17.6945 14.7875 18.3587 13.9592 18.5439L14.1551 19.8128C15.2408 19.6511 15.5827 19.0133 16.4377 19.0133C17.468 19.0133 17.798 19.9133 19.2047 19.9133ZM16.5319 26.2888H21.8679C22.512 26.2888 23.0677 25.9173 23.3168 25.2583L25.7928 18.5908C26.0119 17.9833 25.7098 17.5248 25.2971 17.3748C24.8768 17.2269 24.3397 17.3631 24.113 17.9589L21.7796 24.2031C21.7018 24.411 21.578 24.4942 21.3926 24.4942H17.0051C16.8197 24.4942 16.696 24.411 16.6182 24.2031L14.2847 17.9589C14.0677 17.3631 13.5209 17.2269 13.1103 17.3748C12.688 17.5248 12.3955 17.9833 12.6146 18.5908L15.0905 25.2583C15.3301 25.9173 15.8954 26.2888 16.5319 26.2888Z" fill="black"/>
</svg>
