<svg width="28" height="28" viewBox="0 0 28 28" fill="none" xmlns="http://www.w3.org/2000/svg">
<path d="M4.88367 20.5633C4.19437 20.5633 3.73523 20.0945 3.73523 19.4383V17.2703C3.73523 16.6044 4.19437 16.1453 4.88367 16.1453H7.75687C8.44617 16.1453 8.90531 16.6044 8.90531 17.2703V19.4383C8.90531 20.0945 8.44617 20.5633 7.75687 20.5633H4.88367ZM0 11.6139V8.87359H27.7268V11.6139H0ZM3.84421 24.2889H23.8826C26.4237 24.2889 27.7268 22.9933 27.7268 20.4927V7.81749C27.7268 5.31695 26.4237 4.01172 23.8826 4.01172H3.84421C1.31484 4.01172 0 5.31695 0 7.81749V20.4927C0 22.9933 1.31484 24.2889 3.84421 24.2889Z" fill="black"/>
</svg>
