<svg width="28" height="29" viewBox="0 0 28 29" fill="none" xmlns="http://www.w3.org/2000/svg">
<path d="M10.1799 27.6588C11.2128 27.6588 11.8496 27.0743 11.8379 26.0796L11.5993 12.8013C11.5972 12.33 11.7624 12.0464 12.1489 11.8697C13.7464 11.1541 14.4502 10.4013 14.3576 8.23453L14.0232 1.05609C13.9955 0.502499 13.674 0.184218 13.1618 0.184218C12.669 0.184218 12.3687 0.518436 12.3729 1.08164L12.4571 8.0482C12.4613 8.47312 12.2035 8.73515 11.8147 8.73515C11.412 8.73515 11.1392 8.48695 11.1371 8.08125L11.0157 0.860154C11.004 0.324608 10.6899 0 10.1799 0C9.6699 0 9.36545 0.324608 9.35373 0.860154L9.23443 8.08125C9.23232 8.48273 8.9574 8.73515 8.55474 8.73515C8.16592 8.73515 7.89849 8.47312 7.9006 8.0482L7.98896 1.08164C7.99107 0.518436 7.70256 0.184218 7.20006 0.184218C6.68795 0.184218 6.36428 0.504608 6.33662 1.05609L6.00967 8.23453C5.90748 10.4013 6.61342 11.1541 8.21303 11.8697C8.59951 12.0464 8.76263 12.33 8.76053 12.8013L8.53154 26.0796C8.5156 27.0764 9.15123 27.6588 10.1799 27.6588ZM19.4937 17.2903L19.2645 26.0315C19.2315 27.0764 19.8842 27.6588 20.9032 27.6588C21.9479 27.6588 22.5804 27.1148 22.5804 26.1394V0.912655C22.5804 0.308671 22.1724 0 21.7147 0C21.2588 0 20.9553 0.240703 20.5697 0.799921C18.6577 3.47578 17.3459 8.63952 17.3459 13.3165V13.9413C17.3459 14.7815 17.6325 15.3708 18.2839 15.8018L18.9057 16.2241C19.3381 16.5213 19.515 16.8347 19.4937 17.2903Z" fill="black"/>
</svg>
