<svg width="28" height="28" viewBox="0 0 28 28" fill="none" xmlns="http://www.w3.org/2000/svg">
<path d="M24.5082 25.5924C25.0742 26.1701 26.0445 26.1701 26.5934 25.5924C27.1519 25.003 27.1519 24.0774 26.5934 23.5072L15.4552 12.3148C14.8913 11.7488 13.921 11.7488 13.37 12.3148C12.8018 12.9043 12.8136 13.8415 13.37 14.4097L24.5082 25.5924ZM25.0386 24.6615L18.3628 17.974L19.0268 17.3208L25.7131 24.0146C25.9493 24.2433 26.0173 24.522 25.7961 24.7604C25.5598 24.9636 25.2907 24.9137 25.0386 24.6615Z" fill="black"/>
<path d="M10.0886 25.8854C10.3291 25.8854 10.5067 25.714 10.5419 25.4576C10.9148 22.3034 11.0629 22.2045 14.2883 21.6994C14.5703 21.6504 14.7437 21.5058 14.7437 21.2462C14.7437 20.9982 14.5703 20.8322 14.3437 20.7908C11.0779 20.1666 10.9126 20.1826 10.5419 17.0326C10.5067 16.7762 10.3291 16.6048 10.0886 16.6048C9.8364 16.6048 9.66085 16.7762 9.6332 17.0208C9.22937 20.2325 9.12179 20.3401 5.83562 20.7908C5.60687 20.8184 5.43133 20.9982 5.43133 21.2462C5.43133 21.4941 5.60476 21.6483 5.83351 21.6994C9.12812 22.3353 9.21976 22.3332 9.6332 25.4832C9.66085 25.714 9.84062 25.8854 10.0886 25.8854ZM4.44835 15.5497C4.63562 15.5497 4.75046 15.4156 4.78351 15.238C5.15874 12.9629 5.18523 12.8455 7.57866 12.4407C7.76476 12.4013 7.89671 12.2907 7.89671 12.1055C7.89671 11.9183 7.76476 11.798 7.58921 11.7683C5.18101 11.337 5.17351 11.2217 4.78351 8.9635C4.74835 8.78585 4.63562 8.65929 4.44835 8.65929C4.26109 8.65929 4.14625 8.78585 4.11109 8.9614C3.73586 11.247 3.71148 11.3623 1.30961 11.7683C1.13195 11.7959 1 11.9183 1 12.1055C1 12.2907 1.12984 12.4013 1.3075 12.4407C3.71148 12.8602 3.71265 12.9797 4.11109 15.2422C4.14836 15.4156 4.26109 15.5497 4.44835 15.5497ZM10.9061 7.8746C11.0678 7.8746 11.1592 7.77358 11.1848 7.61937C11.579 5.67898 11.5534 5.62343 13.5812 5.22077C13.7439 5.19101 13.8524 5.09421 13.8524 4.9421C13.8524 4.77828 13.7439 4.68148 13.5897 4.65171C11.545 4.23429 11.5558 4.18507 11.1848 2.26484C11.1613 2.11062 11.0678 2 10.9061 2C10.7423 2 10.653 2.11062 10.6253 2.26273C10.229 4.20195 10.263 4.27437 8.22461 4.65171C8.07039 4.67515 7.95766 4.77828 7.95766 4.9421C7.95766 5.09421 8.06617 5.19101 8.22039 5.22077C10.263 5.63819 10.248 5.68952 10.6253 7.62358C10.6488 7.77358 10.7423 7.8746 10.9061 7.8746ZM20.9064 12.043C21.0915 12.043 21.2064 11.9206 21.2458 11.743C21.659 9.4721 21.6433 9.35046 24.0367 8.93608C24.2324 8.90632 24.3569 8.78608 24.3569 8.60093C24.3569 8.41366 24.2324 8.30304 24.0472 8.26367C21.639 7.84203 21.6147 7.72882 21.2458 5.46851C21.2106 5.28875 21.0915 5.15679 20.9064 5.15679C20.7191 5.15679 20.6064 5.28875 20.5691 5.4664C20.1728 7.74991 20.1716 7.88632 17.7697 8.26367C17.5921 8.29671 17.4559 8.41366 17.458 8.60093C17.4601 8.78608 17.5879 8.90632 17.7676 8.93608C20.1716 9.36311 20.1939 9.48054 20.5691 11.7451C20.6022 11.9206 20.7191 12.043 20.9064 12.043Z" fill="black"/>
</svg>
