<svg width="28" height="28" viewBox="0 0 28 28" fill="none" xmlns="http://www.w3.org/2000/svg">
<path d="M14.105 26.21C20.7369 26.21 26.2121 20.7273 26.2121 14.105C26.2121 7.47312 20.7273 2 14.0954 2C7.47523 2 2 7.47312 2 14.105C2 20.7273 7.48484 26.21 14.105 26.21ZM14.105 23.8255C8.71085 23.8255 4.39412 19.4991 4.39412 14.105C4.39412 8.71085 8.70124 4.38452 14.0954 4.38452C19.4895 4.38452 23.8276 8.71085 23.8276 14.105C23.8276 19.4991 19.4991 23.8255 14.105 23.8255Z" fill="black"/>
<path d="M15.5579 18.7051L18.4004 14.8058C18.6973 14.4202 18.6151 13.9165 18.2605 13.6484C17.9059 13.3803 17.3926 13.4464 17.1052 13.8319L14.2702 17.7237L15.5579 18.7051ZM14.0954 21.2279C15.1805 21.2279 16.0367 20.3717 16.0367 19.2866C16.0367 18.2131 15.1805 17.3473 14.0954 17.3473C13.0219 17.3473 12.1562 18.2131 12.1562 19.2866C12.1562 20.3717 13.0219 21.2279 14.0954 21.2279ZM8.2076 12.6875C8.87744 12.6875 9.40666 12.1487 9.40666 11.4884C9.40666 10.8186 8.87744 10.2797 8.2076 10.2797C7.55158 10.2797 7.00854 10.8186 7.00854 11.4884C7.00854 12.1487 7.54736 12.6875 8.2076 12.6875ZM10.71 10.0735C11.3799 10.0735 11.9091 9.52292 11.9091 8.86691C11.9091 8.20457 11.382 7.66574 10.71 7.66574C10.0519 7.66574 9.51096 8.20457 9.51096 8.86691C9.51096 9.52503 10.0498 10.0735 10.71 10.0735ZM14.0954 8.97988C14.746 8.97988 15.2944 8.42933 15.2944 7.78082C15.2944 7.11098 14.7439 6.57965 14.0954 6.57965C13.433 6.57965 12.8963 7.11098 12.8963 7.78082C12.8963 8.42933 13.4352 8.97988 14.0954 8.97988ZM17.4828 10.0735C18.1505 10.0735 18.6819 9.52503 18.6819 8.86691C18.6819 8.20457 18.1484 7.65613 17.4828 7.65613C16.8205 7.65613 16.2837 8.20457 16.2837 8.86691C16.2837 9.52292 16.8226 10.0735 17.4828 10.0735ZM19.9831 12.6875C20.653 12.6875 21.1822 12.1487 21.1822 11.4884C21.1822 10.8186 20.6509 10.2797 19.9831 10.2797C19.3229 10.2797 18.7841 10.8186 18.7841 11.4884C18.7841 12.1487 19.3229 12.6875 19.9831 12.6875Z" fill="black"/>
</svg>
