<svg width="28" height="28" viewBox="0 0 28 28" fill="none" xmlns="http://www.w3.org/2000/svg">
<path d="M18.0341 8.09586C19.0686 6.1932 19.4096 4.43117 18.7768 2.975C17.3162 2.35273 15.7191 2 14.0518 2C10.6543 2 7.54976 3.45453 5.3607 5.76149C9.62257 4.16188 15.2075 5.84281 18.0341 8.09586ZM13.2404 13.8566C14.8088 12.4266 16.1258 10.9829 17.1155 9.56468C13.8507 6.95093 7.05899 5.26343 3.22696 8.77835C2.54141 10.0925 2.11391 11.5634 2 13.1314C4.84929 11.2637 9.52039 12.3202 13.2404 13.8566ZM5.85758 13.7677C4.21391 13.7251 2.82688 14.1319 2 15.1864C2.43758 20.0382 5.83859 24.1304 10.355 25.5851C8.17742 22.9885 5.94078 18.526 5.85758 13.7677ZM12.6636 15.4637C10.981 14.7465 9.19718 14.1849 7.55726 13.955C7.78624 20.2041 11.8374 25.5312 13.8469 26.21C15.335 26.225 16.7047 25.9915 17.9314 25.5544C15.0486 23.795 12.8424 19.1335 12.6636 15.4637ZM20.124 24.556C23.7172 22.4501 26.1664 18.53 26.1664 14.1071C26.1664 12.7334 25.918 11.4087 25.4808 10.1769C24.642 13.3873 22.1689 17.9876 16.7344 22.0993C17.742 23.5372 18.9467 24.5087 20.124 24.556ZM15.8659 20.6391C22.9105 15.1831 24.5473 9.14633 24.1674 7.48648C23.2405 6.09805 22.0428 4.9025 20.6448 3.98726C21.0425 7.48507 18.1473 11.6907 14.3419 15.1294C14.4123 16.9728 14.993 18.9568 15.8659 20.6391Z" fill="black"/>
</svg>
