<svg width="28" height="28" viewBox="0 0 28 28" fill="none" xmlns="http://www.w3.org/2000/svg">
<path d="M13.363 26.066C16.0308 26.066 17.8615 24.0298 17.9553 21.7669H22.7783C23.9874 21.7669 24.7376 21.1116 24.7376 20.119C24.7376 18.8733 23.5887 17.8059 22.5366 16.782C21.8492 16.1102 21.5754 14.8069 21.4969 13.6769C21.4885 13.4691 21.4843 13.2591 21.4704 13.0566C20.6738 13.2973 19.8589 13.2117 19.1757 12.6448C19.1853 13.0036 19.1949 13.3741 19.2045 13.7639C19.2334 15.7809 19.6695 17.052 20.3743 17.8673C20.9574 18.5259 21.6066 19.1541 21.9083 19.4876V19.624H4.79654V19.4876C5.09607 19.1541 5.7781 18.5259 6.35373 17.8673C7.16162 16.9425 7.54107 15.2557 7.66342 13.0317C7.79513 8.27131 9.2574 6.68881 11.1453 6.17178C11.4298 6.10357 11.5939 5.96927 11.6162 5.64349C11.6576 4.76271 12.0887 4.14536 12.6498 3.92388C12.9343 2.88397 13.8455 2.08171 15.0188 2.08171C15.0924 2.08171 15.1501 2.08171 15.2408 2.10093C15.2429 2.06062 15.2471 2.03952 15.2513 2.01093C14.7071 1.69781 14.0712 1.5007 13.363 1.5007C11.6234 1.5007 10.3198 2.6782 9.88249 4.24077C6.81804 5.34468 5.53202 8.30648 5.37828 12.7465C5.22758 14.3599 5.02719 15.9755 4.20102 16.782C3.1393 17.8059 2 18.8733 2 20.119C2 21.1116 2.74062 21.7669 3.95937 21.7669H8.78234C8.87609 24.0201 10.7068 26.066 13.363 26.066ZM13.363 24.1859C12.039 24.1859 11.0722 23.2446 10.9923 21.7669H15.7454C15.6559 23.2446 14.6987 24.1859 13.363 24.1859Z" fill="black"/>
<path d="M15.0187 7.26584C15.4202 7.26584 15.7279 6.95811 15.7279 6.58756V4.72616C15.7279 4.33428 15.4202 4.02866 15.0187 4.02866C14.6503 4.02866 14.3425 4.33428 14.3425 4.72616V6.58756C14.3425 6.95811 14.6503 7.26584 15.0187 7.26584Z" fill="black"/>
<path d="M17.8267 9.3485C18.2111 9.3485 18.5167 9.05249 18.5167 8.65311V2.6393C18.5167 2.26125 18.2111 1.95563 17.8267 1.95563C17.437 1.95563 17.1431 2.26125 17.1431 2.6393V8.65311C17.1431 9.0546 17.4391 9.3485 17.8267 9.3485Z" fill="black"/>
<path d="M20.6172 11.3041C21.007 11.3041 21.3147 11.006 21.3147 10.6162V0.707108C21.3147 0.303515 21.007 0 20.6172 0C20.2371 0 19.9314 0.307734 19.9314 0.707108V10.6162C19.9314 11.0156 20.2275 11.3041 20.6172 11.3041Z" fill="black"/>
<path d="M23.4059 9.97522C23.7978 9.97522 24.1013 9.66749 24.1013 9.27772V2.01467C24.1013 1.64201 23.7936 1.3385 23.4059 1.3385C23.0258 1.3385 22.7297 1.64412 22.7297 2.01467V9.27772C22.7297 9.66749 23.0258 9.97522 23.4059 9.97522Z" fill="black"/>
<path d="M26.204 7.88272C26.6034 7.88272 26.8973 7.58459 26.8973 7.19483V4.10928C26.8973 3.7153 26.6013 3.42139 26.204 3.42139C25.8196 3.42139 25.5161 3.72913 25.5161 4.10928V7.19483C25.5161 7.57709 25.8196 7.88272 26.204 7.88272Z" fill="black"/>
</svg>
