<svg width="28" height="28" viewBox="0 0 28 28" fill="none" xmlns="http://www.w3.org/2000/svg">
<path d="M14.105 26.21C20.7369 26.21 26.2121 20.7273 26.2121 14.105C26.2121 7.47312 20.7273 2 14.0954 2C7.47523 2 2 7.47312 2 14.105C2 20.7273 7.48484 26.21 14.105 26.21ZM14.105 23.8255C8.71085 23.8255 4.39412 19.4991 4.39412 14.105C4.39412 8.71085 8.70124 4.38452 14.0954 4.38452C19.4895 4.38452 23.8276 8.71085 23.8276 14.105C23.8276 19.4991 19.4991 23.8255 14.105 23.8255Z" fill="black"/>
<path d="M14.2628 11.2154L8.79648 17.0909C8.51944 17.3935 8.50351 17.7685 8.72734 18.0594L8.03991 18.9418C7.9164 19.1143 7.93023 19.3358 8.0889 19.4827L8.26468 19.6543C8.41374 19.7991 8.61718 19.8247 8.79929 19.6916L9.69554 19.0041C9.97679 19.2301 10.3497 19.212 10.6405 18.9425L13.4573 16.3304V19.37C13.4573 19.7513 13.7566 20.0623 14.1517 20.0623C14.531 20.0623 14.8399 19.7492 14.8399 19.37V15.0394L16.5044 13.49C17.246 13.5678 17.9674 13.2652 18.5854 12.6216L15.112 9.14608C14.478 9.78546 14.185 10.4898 14.2628 11.2154ZM9.72085 17.679L14.7187 12.3816C14.7986 12.5042 14.8881 12.6087 15.0044 12.7388C15.0993 12.8434 15.2198 12.9404 15.3381 13.0203L10.0684 18.0298L9.72085 17.679ZM19.2524 8.48116C18.1966 7.42741 16.7753 7.47429 15.6906 8.56741L19.1641 12.043C20.271 10.9604 20.3041 9.53491 19.2524 8.48116Z" fill="black"/>
</svg>
