<svg width="28" height="28" viewBox="0 0 28 28" fill="none" xmlns="http://www.w3.org/2000/svg">
<path d="M14.105 26.2301C20.7369 26.2301 26.2121 20.7549 26.2121 14.123C26.2121 7.50291 20.7273 2.01807 14.0954 2.01807C7.47523 2.01807 2 7.50291 2 14.123C2 20.7549 7.48484 26.2301 14.105 26.2301Z" fill="black"/>
<path d="M10.6151 20.5459C10.1555 20.5459 9.85132 20.2086 9.85132 19.6733V9.59303C9.85132 8.40217 10.4902 7.75366 11.6811 7.75366H16.531C17.7219 7.75366 18.3608 8.40217 18.3608 9.59303V19.6733C18.3608 20.2086 18.0544 20.5459 17.597 20.5459C17.2616 20.5459 17.0668 20.3626 16.5477 19.8551L14.1594 17.5053C14.1284 17.4701 14.0837 17.4701 14.0527 17.5053L11.6762 19.8551C11.1474 20.3626 10.9484 20.5459 10.6151 20.5459Z" fill="white"/>
</svg>
