<svg width="28" height="28" viewBox="0 0 28 28" fill="none" xmlns="http://www.w3.org/2000/svg">
<path d="M6.84421 24.8972H21.0295C23.5685 24.8972 24.8737 23.5919 24.8737 21.0914V6.82921C24.8737 4.32656 23.5685 3.02344 21.0295 3.02344H6.84421C4.31484 3.02344 3 4.31695 3 6.82921V21.0914C3 23.6016 4.31484 24.8972 6.84421 24.8972ZM6.97733 22.6013C5.88772 22.6013 5.29592 22.0371 5.29592 20.8985V7.01999C5.29592 5.88139 5.88772 5.31936 6.97733 5.31936H20.8964C21.9764 5.31936 22.5778 5.88139 22.5778 7.01999V20.8985C22.5778 22.0371 21.9764 22.6013 20.8964 22.6013H6.97733Z" fill="black"/>
<path d="M9.7439 18.4902C9.7439 19.3818 10.1412 19.7983 10.9645 19.7983H16.9252C17.7539 19.7983 18.1512 19.3818 18.1512 18.4902V13.9211C18.1512 13.1218 17.824 12.7171 17.1567 12.6533V11.32C17.1567 9.16584 15.8592 7.72021 13.9427 7.72021C12.0262 7.72021 10.733 9.16584 10.733 11.32V12.6491C10.0732 12.7171 9.7439 13.1218 9.7439 13.9211V18.4902ZM12.1015 12.6269V11.2016C12.1015 9.90857 12.8372 9.05146 13.9427 9.05146C15.0504 9.05146 15.7882 9.90646 15.7882 11.2016V12.6269H12.1015Z" fill="black"/>
</svg>
