<svg width="28" height="28" viewBox="0 0 28 28" fill="none" xmlns="http://www.w3.org/2000/svg">
<path d="M6.84421 24.8972H21.0295C23.5685 24.8972 24.8737 23.5919 24.8737 21.0914V6.82921C24.8737 4.32656 23.5685 3.02344 21.0295 3.02344H6.84421C4.31484 3.02344 3 4.31695 3 6.82921V21.0914C3 23.6016 4.31484 24.8972 6.84421 24.8972Z" fill="black"/>
<path d="M11.0458 20.7986C10.1856 20.7986 9.69694 20.3343 9.65968 19.4879L9.30272 11.3908L11.3439 13.4298L11.5283 18.5668C11.5305 18.8118 11.7201 18.9822 11.9629 18.9822C12.2312 18.9822 12.3962 18.8097 12.392 18.5647L12.2427 14.3404L13.5121 15.6001V18.5668C13.5121 18.8118 13.6804 18.9822 13.9508 18.9822C14.215 18.9822 14.4046 18.8118 14.4046 18.5668V16.5022L15.5439 17.6394L15.5151 18.5647C15.5151 18.8097 15.6683 18.9822 15.9421 18.9822C16.1139 18.9822 16.2665 18.884 16.2974 18.7164L16.3326 18.4281L18.0524 20.1383L18.0088 20.2429C17.8311 20.5841 17.4102 20.7986 16.8997 20.7986H11.0458ZM19.0893 19.8505L8.16718 8.92846C7.93093 8.68682 7.93093 8.31651 8.16718 8.08987C8.40132 7.84401 8.77585 7.84401 9.0121 8.08987L19.9183 19.0002C20.1641 19.2365 20.1641 19.6047 19.9183 19.8409C19.6958 20.0751 19.3351 20.0826 19.0893 19.8505ZM18.4307 16.1624L16.5215 14.2415L16.6122 11.8349C16.6122 11.572 16.446 11.4016 16.1755 11.4016C15.9231 11.4016 15.7335 11.5603 15.7293 11.8307L15.6695 13.4012L14.4046 12.1406V11.7084C14.4046 11.4538 14.2246 11.2877 13.9508 11.2877C13.889 11.2877 13.8367 11.3069 13.794 11.3453V11.5279L10.8953 8.63128H11.0971C11.1034 8.51081 11.1076 8.40206 11.1182 8.27948C11.1709 7.36799 11.8164 6.80713 12.8338 6.80713H15.0808C16.1858 6.80713 16.8536 7.43127 16.8536 8.43979V9.30252H19.5447C19.8681 9.30252 20.1395 9.54627 20.1278 9.86971C20.1182 10.1835 19.8681 10.4273 19.5447 10.4273H18.6843L18.4307 16.1624ZM12.3428 9.30252H15.5643L15.5622 8.48151C15.5579 8.18526 15.3437 7.98815 15.0273 7.98815H12.8819C12.5772 7.98815 12.347 8.18526 12.3449 8.48151L12.3428 9.30252Z" fill="white"/>
</svg>
