<svg width="28" height="28" viewBox="0 0 28 28" fill="none" xmlns="http://www.w3.org/2000/svg">
<path d="M2 23.4154C2 24.4227 2.62929 24.9803 3.55952 24.9803C3.90218 24.9803 4.23733 24.8802 4.63671 24.6609L9.32867 22.1209V2.26631C9.07133 2.36967 8.77578 2.50584 8.46993 2.67576L3.14937 5.71351C2.36398 6.14663 2 6.7703 2 7.65037V23.4154ZM11.0417 21.8181L16.6611 24.9637C16.9255 25.1059 17.1615 25.2217 17.4448 25.2834V5.8546L11.9616 2.54123C11.6358 2.34482 11.3192 2.20045 11.0417 2.13037V21.8181ZM19.1483 25.2271C19.2781 25.1877 19.4239 25.1345 19.5526 25.0537L25.5041 21.6883C26.3148 21.2404 26.6766 20.6209 26.6766 19.7345V4.04006C26.6766 2.99779 26.041 2.47092 25.0559 2.47092C24.6943 2.47092 24.3212 2.58155 23.9091 2.80725L19.1483 5.45054V25.2271Z" fill="black"/>
</svg>
