<svg width="28" height="28" viewBox="0 0 28 28" fill="none" xmlns="http://www.w3.org/2000/svg">
<path d="M18.9936 1C14.8252 1 11.5042 4.02648 11.5042 7.93867C11.5042 12.126 13.9838 13.3051 14.6448 20.4205C14.6862 20.9573 15.0059 21.2889 15.5576 21.2889H22.4391C22.9887 21.2889 23.3084 20.9573 23.3541 20.4205C24.0151 13.3051 26.5065 12.126 26.5065 7.94289C26.5065 4.02859 23.1737 1 18.9936 1ZM15.4878 23.8398H22.5186C22.9336 23.8398 23.2679 23.5185 23.2679 23.1044C23.2679 22.686 22.9336 22.3668 22.5186 22.3668H15.4878C15.0631 22.3668 14.7502 22.686 14.7502 23.1044C14.7502 23.5185 15.0631 23.8398 15.4878 23.8398ZM19.0032 27.1119C20.7659 27.1119 22.2022 26.2321 22.2938 24.9177H15.7041C15.7787 26.2321 17.2308 27.1119 19.0032 27.1119Z" fill="black"/>
<path d="M8.54843 2.67529C4.91937 2.67529 2 5.32772 2 8.76037C2 12.4361 4.14172 13.4662 4.71735 19.5644C4.74711 20.0533 5.06375 20.3819 5.57937 20.3819H11.5292C12.0427 20.3819 12.3413 20.0533 12.3933 19.5644C12.469 18.7879 12.5757 18.1096 12.6931 17.4719C11.7423 13.6661 10.0709 12.0752 10.0709 7.93865C10.0709 6.21412 10.6004 4.63232 11.5187 3.32428C10.6339 2.90404 9.62257 2.67529 8.54843 2.67529ZM5.51375 22.7624H11.5948C11.9994 22.7624 12.3251 22.4516 12.3251 22.0534C12.3251 21.6456 11.9994 21.3348 11.5948 21.3348H5.51375C5.10922 21.3348 4.80266 21.6552 4.80266 22.0534C4.80266 22.4399 5.10922 22.7624 5.51375 22.7624ZM8.56015 25.7638C10.1429 25.7638 11.4619 24.9276 11.4917 23.7133H5.62765C5.66164 24.9276 6.9657 25.7638 8.56015 25.7638Z" fill="black"/>
</svg>
