<svg width="28" height="28" viewBox="0 0 28 28" fill="none" xmlns="http://www.w3.org/2000/svg">
<path d="M14.105 26.2301C20.7369 26.2301 26.2121 20.7549 26.2121 14.123C26.2121 7.50291 20.7273 2.01807 14.0954 2.01807C7.47523 2.01807 2 7.50291 2 14.123C2 20.7549 7.48484 26.2301 14.105 26.2301Z" fill="black"/>
<path d="M13.9283 14.1735L10.2017 10.447L12.0542 8.57313C13.2261 7.40125 14.742 7.38203 15.8703 8.51453C17.0007 9.60977 16.9911 11.1513 15.8159 12.3072L13.9283 14.1735ZM13.2158 14.9053L11.3302 16.7833C10.1583 17.9456 8.6478 17.9744 7.52163 16.8674C6.41046 15.7467 6.4414 14.2307 7.60905 13.061L9.4796 11.1574L13.2158 14.9053ZM21.0985 16.4376H14.5869C14.8276 14.8757 16.1923 13.6504 17.8341 13.6504C19.4952 13.6504 20.8653 14.8757 21.0985 16.4376ZM21.0985 17.4473C20.8653 19.007 19.5048 20.2345 17.8341 20.2345C16.1827 20.2345 14.8276 19.007 14.5869 17.4473H21.0985Z" fill="white"/>
</svg>
