<svg width="28" height="30" viewBox="0 0 28 30" fill="none" xmlns="http://www.w3.org/2000/svg">
<path d="M14.1556 29.0395C21.0481 29.0395 26.3209 27.5641 26.3209 24.9846C26.3209 23.3372 24.1653 22.1421 20.7845 21.4955L19.6817 23.2251C22.647 23.6311 24.3952 24.3279 24.3952 24.9846C24.3952 25.9973 20.2815 27.1139 14.1556 27.1139C8.03937 27.1139 3.92562 25.9973 3.92562 24.9846C3.92562 24.3279 5.67382 23.6311 8.64124 23.2251L7.52679 21.4955C4.15554 22.1421 2 23.3372 2 24.9846C2 27.5641 7.27273 29.0395 14.1556 29.0395ZM6.56328 21.0614L7.7689 23.9376C7.95945 24.3846 8.52546 24.4772 8.86929 23.9557L10.3393 21.7755C10.6437 21.3211 10.5193 20.7921 9.9296 20.6655L7.30718 20.1654C6.67812 20.0388 6.37062 20.5931 6.56328 21.0614ZM21.7597 21.0614C21.9502 20.5931 21.6331 20.0388 21.0137 20.1654L18.3912 20.6655C17.8016 20.7921 17.6792 21.3211 17.9741 21.7755L19.4516 23.9557C19.7954 24.4772 20.3518 24.3846 20.5423 23.9376L21.7597 21.0614Z" fill="black"/>
<path d="M13.7158 7.1001V2.75948C13.7158 0.982913 12.7851 0.019165 11.0555 0.019165C8.18157 0.0404932 5.1586 2.62354 5.1586 5.1426C5.1586 7.60073 7.52719 8.88955 11.2521 10.2498L12.0515 8.44448C8.79961 7.20675 7.08422 6.50878 7.08422 5.1426C7.08422 3.68057 9.18657 1.9469 11.0555 1.9469C11.6899 1.9469 11.7764 2.02377 11.7764 2.75948V7.67596L13.7158 7.1001ZM16.6202 9.09416H20.9491C22.7161 9.09416 23.6915 8.16346 23.6915 6.45721C23.6915 3.56948 21.0776 0.546509 18.5564 0.546509C16.1121 0.546509 14.8094 2.9151 13.4704 6.64002L15.2779 7.4533C16.4922 4.18752 17.1902 2.47213 18.5564 2.47213C20.0322 2.47213 21.7542 4.56276 21.7542 6.45721C21.7542 7.08745 21.6965 7.15472 20.9491 7.15472H16.0326L16.6202 9.09416ZM14.6283 12.0081V16.3508C14.6283 18.1253 15.5494 19.0698 17.2652 19.0698C20.1529 19.0698 23.1759 16.4772 23.1759 13.956C23.1759 11.5 20.8052 10.209 17.0824 8.85839L16.2691 10.6541C19.5211 11.894 21.2482 12.5898 21.2482 13.956C21.2482 15.4201 19.1362 17.1538 17.2652 17.1325C16.6254 17.1325 16.5677 17.0727 16.5677 16.3508V11.4344L14.6283 12.0081ZM11.7005 9.99487H7.37157C5.59712 9.99487 4.64087 10.9372 4.64087 12.6435C4.64087 15.5408 7.23563 18.5542 9.7643 18.5542C12.2224 18.5542 13.5112 16.1931 14.8619 12.4607L13.0565 11.6474C11.8188 14.9228 11.1305 16.6147 9.7643 16.6147C8.27883 16.6147 6.58031 14.5358 6.58031 12.6435C6.58031 11.9994 6.64758 11.9322 7.37157 11.9322H12.288L11.7005 9.99487ZM14.1555 12.9285C16.0333 12.9285 17.5619 11.4308 17.5619 9.55518C17.5619 7.66987 16.0333 6.15839 14.1555 6.15839C12.2819 6.15839 10.7726 7.66987 10.7726 9.55518C10.7726 11.4308 12.2819 12.9285 14.1555 12.9285ZM14.1555 11.0875C13.2956 11.0875 12.6115 10.4129 12.6115 9.55518C12.6115 8.68565 13.2956 7.9994 14.1555 7.9994C15.0133 7.9994 15.7167 8.68565 15.7167 9.55518C15.7167 10.4129 15.0133 11.0875 14.1555 11.0875Z" fill="black"/>
</svg>
