<svg width="28" height="30" viewBox="0 0 28 30" fill="none" xmlns="http://www.w3.org/2000/svg">
<path d="M7.79761 4.30453H9.59596C11.4117 4.30453 12.7548 4.72804 14.0589 6.03L20.7109 12.6745C21.9876 13.9587 22.2843 15.4003 22.2843 17.1312V23.7991H22.6591C24.9255 23.7991 26.3763 22.5569 26.3763 19.9549V3.84421C26.3763 1.32234 25.0731 0 22.5705 0H11.5886C9.10916 0 7.79761 1.32117 7.79761 3.82101V4.30453ZM13.5208 3.45046V3.19171C13.5208 2.83054 13.7699 2.44758 14.313 2.44758H19.863C20.3964 2.44758 20.6552 2.83054 20.6552 3.19171V3.45046C20.6552 3.83156 20.3732 4.1946 19.863 4.1946H14.313C13.791 4.1946 13.5208 3.83156 13.5208 3.45046Z" fill="black"/>
<path d="M2 25.965C2 28.4965 3.29562 29.8092 5.80577 29.8092H16.775C19.2851 29.8092 20.5808 28.4848 20.5808 25.965V16.8675H12.2471C10.748 16.8675 10.0196 16.1294 10.0196 14.6379V6.01007H5.80577C3.30523 6.01007 2 7.3228 2 9.85428V25.965ZM12.3619 15.1544L20.3614 15.1502C20.2337 14.6552 19.9325 14.1827 19.3925 13.6331L13.2212 7.36358C12.6887 6.81937 12.2244 6.45515 11.723 6.30726V14.5167C11.723 14.9362 11.9466 15.1544 12.3619 15.1544Z" fill="black"/>
</svg>
