<svg width="28" height="28" viewBox="0 0 28 28" fill="none" xmlns="http://www.w3.org/2000/svg">
<path d="M4.90226 26.1518H11.3073C10.7445 25.5124 10.3147 24.7519 10.0463 23.9297H5.06444C4.56967 23.9297 4.22421 23.5938 4.22421 23.0798V3.96582C4.22421 3.44973 4.56967 3.10637 5.06444 3.10637H19.9362C20.4301 3.10637 20.7533 3.44129 20.7533 3.94051V14.4012C21.5553 14.5303 22.2945 14.8071 22.9796 15.2008V3.86645C22.9796 2.09154 21.8054 0.884277 20.0848 0.884277H4.90226C3.17 0.884277 2 2.09154 2 3.86645V23.1792C2 24.9541 3.17 26.1518 4.90226 26.1518ZM6.80819 6.35152C7.42037 6.35152 7.91326 5.84902 7.91326 5.23684C7.91326 4.63426 7.42037 4.13176 6.80819 4.13176C6.20561 4.13176 5.70311 4.63426 5.70311 5.23684C5.70311 5.84902 6.20561 6.35152 6.80819 6.35152ZM9.94412 6.35152C10.5584 6.35152 11.0513 5.84902 11.0513 5.23684C11.0513 4.63426 10.5584 4.13176 9.94412 4.13176C9.34154 4.13176 8.84865 4.63426 8.84865 5.23684C8.84865 5.84902 9.34154 6.35152 9.94412 6.35152ZM3.26749 9.08081H21.7196V7.40012H3.26749V9.08081ZM9.71842 11.7867H15.2708C15.6708 11.7867 15.9474 11.5005 15.9474 11.1004C15.9474 10.7004 15.6708 10.4259 15.2708 10.4259H9.71842C9.31835 10.4259 9.03218 10.7004 9.03218 11.1004C9.03218 11.5005 9.31835 11.7867 9.71842 11.7867ZM3.1435 22.5007H9.63148C9.54288 21.8812 9.55015 21.3832 9.61483 20.82H3.1435V22.5007Z" fill="black"/>
<path d="M16.7362 27.2206C19.9617 27.2206 22.5642 24.6278 22.5642 21.3906C22.5642 18.1459 19.9617 15.553 16.7362 15.553C13.5011 15.553 10.8987 18.1459 10.8987 21.3906C10.8987 24.6278 13.5011 27.2206 16.7362 27.2206ZM16.7362 25.8557C14.1618 25.8557 12.2594 23.9457 12.2594 21.3906C12.2594 18.8258 14.1618 16.9159 16.7362 16.9159C19.2914 16.9159 21.2034 18.8258 21.2034 21.3906C21.2034 23.9457 19.2914 25.8557 16.7362 25.8557ZM16.7362 24.943C18.6834 24.943 20.2886 23.3474 20.2886 21.3906C20.2886 19.4338 18.6834 17.8382 16.7362 17.8382C14.7698 17.8382 13.1742 19.4338 13.1742 21.3906C13.1742 23.3474 14.7698 24.943 16.7362 24.943ZM16.7362 23.7669C15.3382 23.7669 14.3503 22.7769 14.3503 21.3906C14.3503 19.9946 15.3382 19.0142 16.7362 19.0142C18.1343 19.0142 19.1125 19.9946 19.1125 21.3906C19.1125 22.7865 18.1246 23.7669 16.7362 23.7669ZM19.2567 27.2206C22.48 27.2206 25.0825 24.6278 25.0825 21.3906C25.0825 18.1459 22.48 15.553 19.2567 15.553C18.5128 15.553 17.8019 15.6913 17.1686 15.9582L18.7073 16.9489C18.8936 16.9276 19.0682 16.9159 19.2567 16.9159C21.8193 16.9159 23.7217 18.8258 23.7217 21.3906C23.7217 23.9457 21.8193 25.8557 19.2567 25.8557C19.0661 25.8557 18.8798 25.8439 18.6925 25.8301L17.5912 26.9771C18.1202 27.1431 18.6778 27.2206 19.2567 27.2206Z" fill="black"/>
</svg>
