<svg width="28" height="30" viewBox="0 0 28 30" fill="none" xmlns="http://www.w3.org/2000/svg">
<path d="M7.79761 7.45006H16.941C18.236 7.45006 19.476 8.26732 19.476 10.0723V23.7991H22.5705C25.0731 23.7991 26.3763 22.4747 26.3763 19.9549V3.84421C26.3763 1.32234 25.0731 0 22.5705 0H11.6034C9.10073 0 7.79761 1.31273 7.79761 3.84421V7.45006ZM13.5208 3.45046V3.19171C13.5208 2.83054 13.7699 2.44758 14.313 2.44758H19.863C20.3964 2.44758 20.6552 2.83054 20.6552 3.19171V3.45046C20.6552 3.83156 20.3732 4.1946 19.863 4.1946H14.313C13.791 4.1946 13.5208 3.83156 13.5208 3.45046Z" fill="black"/>
<path d="M2 25.965C2 28.4965 3.29562 29.8092 5.80577 29.8092H16.775C19.2851 29.8092 20.5808 28.4848 20.5808 25.965V9.85428C20.5808 7.3228 19.2851 6.01007 16.775 6.01007H5.80577C3.29562 6.01007 2 7.31319 2 9.85428V25.965ZM4.29592 25.8223V9.9874C4.29592 8.9074 4.85795 8.30599 5.98905 8.30599H16.5821C17.7111 8.30599 18.2827 8.9074 18.2827 9.9874V25.8223C18.2827 26.9119 17.7111 27.5133 16.5821 27.5133H5.98905C4.85795 27.5133 4.29592 26.9119 4.29592 25.8223ZM6.24944 17.8994C6.24944 18.3942 6.59632 18.7612 7.08264 18.7612H11.7519L13.7757 18.6729L12.6455 19.6041L11.533 20.6637C11.3734 20.8148 11.2829 21.0159 11.2829 21.248C11.2829 21.6991 11.6108 22.0505 12.0589 22.0505C12.2898 22.0505 12.474 21.9642 12.6324 21.8121L15.8947 18.5887C16.1075 18.3823 16.2256 18.1781 16.2256 17.8994C16.2256 17.6517 16.1171 17.4476 15.8947 17.2315L12.6324 13.9985C12.474 13.8464 12.2898 13.7698 12.0589 13.7698C11.6108 13.7698 11.2829 14.1115 11.2829 14.5605C11.2829 14.7905 11.3872 14.9958 11.533 15.1448L12.6371 16.2119L13.7757 17.1356L11.7519 17.0569H7.08264C6.60593 17.0569 6.24944 17.4068 6.24944 17.8994Z" fill="black"/>
</svg>
