<svg width="28" height="28" viewBox="0 0 28 28" fill="none" xmlns="http://www.w3.org/2000/svg">
<path d="M14.9795 25.4593L16.569 25.0707C16.3475 24.3922 16.2378 23.6668 16.2378 22.8861C16.2378 18.7662 19.3456 15.6584 23.4537 15.6584C24.0566 15.6584 24.6179 15.7309 25.1675 15.8544L25.5582 14.2808C24.8851 14.102 24.1801 14.0178 23.4537 14.0178C18.5567 14.0178 14.5972 17.9773 14.5972 22.8861C14.5972 23.7861 14.7186 24.6573 14.9795 25.4593ZM2.88148 12.263L2.56953 13.8622C3.28952 14.0485 4.02757 14.1465 4.80077 14.1465C9.6978 14.1465 13.6594 10.1869 13.6594 5.2782C13.6594 4.42507 13.5476 3.60499 13.3144 2.84984L11.6717 3.0521C11.907 3.74445 12.0167 4.48366 12.0167 5.2782C12.0167 9.39804 8.9089 12.5059 4.80077 12.5059C4.13937 12.5059 3.50562 12.4196 2.88148 12.263ZM14.105 2C7.48484 2 2 7.47523 2 14.1071C2 20.7273 7.49445 26.2121 14.1146 26.2121C20.7465 26.2121 26.2121 20.7273 26.2121 14.1071C26.2121 7.47523 20.7369 2 14.105 2ZM14.105 3.8785C19.6998 3.8785 24.3336 8.51233 24.3336 14.1071C24.3336 19.6998 19.7094 24.3336 14.1146 24.3336C8.52194 24.3336 3.8785 19.6998 3.8785 14.1071C3.8785 8.51233 8.51233 3.8785 14.105 3.8785Z" fill="black"/>
</svg>
