<svg width="28" height="28" viewBox="0 0 28 28" fill="none" xmlns="http://www.w3.org/2000/svg">
<path d="M6.84421 24.8972H21.0295C23.5685 24.8972 24.8737 23.5919 24.8737 21.0914V6.82921C24.8737 4.32656 23.5685 3.02344 21.0295 3.02344H6.84421C4.31484 3.02344 3 4.31695 3 6.82921V21.0914C3 23.6016 4.31484 24.8972 6.84421 24.8972ZM6.97733 22.6013C5.88772 22.6013 5.29592 22.0371 5.29592 20.8985V7.01999C5.29592 5.88139 5.88772 5.31936 6.97733 5.31936H20.8964C21.9764 5.31936 22.5778 5.88139 22.5778 7.01999V20.8985C22.5778 22.0371 21.9764 22.6013 20.8964 22.6013H6.97733Z" fill="black"/>
<path d="M9.58232 20.1778C9.93459 20.1778 10.1847 19.9043 10.1847 19.5734V16.2281C10.3998 16.1386 10.8412 16.0169 11.4843 16.0169C13.5196 16.0169 14.8131 17.0292 16.8215 17.0292C17.6952 17.0292 18.0786 16.9397 18.5228 16.7266C19.0382 16.4955 19.2693 16.1304 19.2693 15.5756V9.8911C19.2693 9.50696 19.0576 9.24188 18.5497 9.24188C18.1993 9.24188 17.6943 9.48376 16.765 9.48376C14.8393 9.48376 13.5224 8.45766 11.4278 8.45766C10.5423 8.45766 10.161 8.55891 9.72646 8.75274C9.22701 8.97422 8.97998 9.36821 8.97998 9.90164V19.5734C8.97998 19.8926 9.25771 20.1778 9.58232 20.1778Z" fill="black"/>
</svg>
