<svg width="34" height="28" viewBox="0 0 34 28" fill="none" xmlns="http://www.w3.org/2000/svg">
<path d="M6.96679 18.0529H7.81687C7.72336 17.3233 7.66898 16.5435 7.78476 15.8603H7.0957C4.29515 15.8603 2.31608 13.8962 2.31608 11.0744C2.31608 8.27382 4.30897 6.29803 7.0957 6.29803H17.4586C20.2474 6.29803 22.2382 8.27382 22.2382 11.0744C22.2382 13.8962 20.2495 15.8603 17.4586 15.8603H13.6912C13.369 16.3427 13.4191 17.478 13.909 18.0529H17.5875C21.6551 18.0529 24.5543 15.19 24.5543 11.0744C24.5543 6.96836 21.6551 4.10547 17.5875 4.10547H6.96679C2.89922 4.10547 0 6.96836 0 11.0744C0 15.19 2.89922 18.0529 6.96679 18.0529ZM16.4053 23.5886H27.026C31.0936 23.5886 33.9928 20.7257 33.9928 16.6101C33.9928 12.5041 31.0936 9.64117 27.026 9.64117H26.1663C26.2619 10.359 26.3142 11.1484 26.208 11.8337H26.8875C29.688 11.8337 31.6788 13.7978 31.6788 16.6101C31.6788 19.4202 29.6859 21.396 26.8875 21.396H16.5363C13.7475 21.396 11.7546 19.4202 11.7546 16.6101C11.7546 13.7978 13.7337 11.8337 16.5363 11.8337H20.3016C20.6006 11.3282 20.5505 10.2161 20.0763 9.64117H16.4053C12.3281 9.64117 9.43851 12.5041 9.43851 16.6101C9.43851 20.7257 12.3281 23.5886 16.4053 23.5886Z" fill="black"/>
</svg>
