<svg width="30" height="28" viewBox="0 0 30 28" fill="none" xmlns="http://www.w3.org/2000/svg">
<path d="M0 19.8503C0 20.4358 0.248905 20.8452 0.768278 21.089C2.09226 21.7293 2.83148 22.4823 3.60632 24.0487C3.86507 24.535 4.28531 24.7935 4.82905 24.7935H24.6555C25.1897 24.7935 25.6099 24.535 25.8687 24.0487C26.6435 22.4823 27.3827 21.7293 28.7142 21.089C29.2357 20.8452 29.4846 20.4358 29.4846 19.8503V8.9528C29.4846 8.35773 29.2357 7.94828 28.7142 7.71414C27.3827 7.07172 26.6435 6.30906 25.8687 4.75445C25.6099 4.25851 25.1897 4 24.6555 4H4.82905C4.28531 4 3.86507 4.25851 3.60632 4.75445C2.83148 6.30906 2.09226 7.07172 0.768278 7.71414C0.248905 7.94828 0 8.35773 0 8.9528V19.8503ZM2.29592 19.469V9.33413C3.68436 8.76296 4.61319 7.81163 5.30717 6.29592H24.1774C24.8597 7.81163 25.8002 8.76296 27.1887 9.33413V19.469C25.8002 20.038 24.8597 20.9915 24.1774 22.4976H5.30717C4.61319 20.9915 3.68436 20.038 2.29592 19.469ZM5.43421 19.5074C5.43421 20.1475 5.86874 20.5745 6.49499 20.5745H22.9779C23.6159 20.5745 24.0408 20.1475 24.0408 19.5074V9.29358C24.0408 8.66522 23.6159 8.22858 22.9779 8.22858H6.49499C5.86874 8.22858 5.43421 8.66522 5.43421 9.29358V19.5074ZM6.95764 18.8228V16.9762H8.38007V19.049H7.19342C7.04084 19.049 6.95764 18.9754 6.95764 18.8228ZM6.95553 15.4548V13.3579H8.38217V15.4548H6.95553ZM6.95553 11.8408V9.97819C6.95553 9.831 7.03662 9.7478 7.19131 9.7478H8.38217V11.8408H6.95553ZM21.1024 11.8408V9.7478H22.2933C22.4459 9.7478 22.5194 9.831 22.5194 9.97819V11.8408H21.1024ZM21.1024 15.4548V13.3579H22.5194V15.4548H21.1024ZM21.1024 19.0532V16.9698H22.5194V18.8249C22.5194 18.9817 22.4459 19.0532 22.2933 19.0532H21.1024ZM9.90139 19.049V9.75412H19.5811V19.049H9.90139Z" fill="black"/>
</svg>
