<svg width="28" height="29" viewBox="0 0 28 29" fill="none" xmlns="http://www.w3.org/2000/svg">
<path d="M14.2289 14.1595C16.8206 14.1595 19.4018 13.9955 21.5281 13.6769C23.2582 13.4278 23.8959 12.1118 23.1464 10.3976L19.668 2.55773C18.9035 0.825233 17.6332 0 15.7048 0H12.7434C10.8246 0 9.5522 0.825233 8.78978 2.55773L5.31142 10.3976C4.56189 12.1118 5.19001 13.4278 6.92978 13.6769C9.04642 13.9955 11.6255 14.1595 14.2289 14.1595ZM14.2289 12.1732C12.0835 12.1732 9.96024 12.0539 7.70626 11.7949C7.12383 11.7309 7.0268 11.3843 7.2743 10.8274L10.5813 3.36843C11.0065 2.41686 11.6918 1.97671 12.7434 1.97671H15.7048C16.7564 1.97671 17.4513 2.41686 17.8765 3.36843L21.1835 10.8274C21.431 11.3843 21.3223 11.7309 20.7516 11.7949C18.4976 12.0539 16.3627 12.1732 14.2289 12.1732ZM13.1074 15.9351H15.3429V13.4498H13.1074V15.9351ZM12.4411 28.815H16.005C19.1656 28.815 20.9827 27.2226 20.9827 24.4678C20.9827 22.7965 20.4586 20.3123 19.5499 17.809C18.9994 16.3043 17.8141 15.4289 16.1463 15.4289H12.3019C10.6341 15.4289 9.44884 16.3043 8.8983 17.809C7.99923 20.3123 7.46767 22.7965 7.46767 24.4678C7.46767 27.2226 9.28478 28.815 12.4411 28.815ZM12.4411 26.8383C10.5368 26.8383 9.43266 25.9652 9.43266 24.4678C9.43266 23.0039 9.92274 20.7762 10.7409 18.4835C10.984 17.7991 11.4863 17.4035 12.3019 17.4035H16.1463C16.9599 17.4035 17.4642 17.7991 17.7052 18.4835C18.5255 20.7762 19.0177 23.0039 19.0177 24.4678C19.0177 25.9652 17.9135 26.8383 16.005 26.8383H12.4411Z" fill="black"/>
</svg>
