<svg width="28" height="28" viewBox="0 0 28 28" fill="none" xmlns="http://www.w3.org/2000/svg">
<path d="M7.46023 24.8972H20.3094C22.7234 24.8972 24.0362 23.6112 24.0362 21.2088V8.80288H21.7402V21.1739C21.7402 22.1759 21.1986 22.6995 20.2168 22.6995H7.5528C6.56139 22.6995 6.02936 22.1759 6.02936 21.1739V8.80288H3.73344V21.2088C3.73344 23.6208 5.04617 24.8972 7.46023 24.8972ZM10.1089 14.7103H17.6724C18.2258 14.7103 18.628 14.3177 18.628 13.743V13.3659C18.628 12.7912 18.2279 12.4125 17.6724 12.4125H10.1089C9.55343 12.4125 9.16296 12.7912 9.16296 13.3659V13.743C9.16296 14.3177 9.55765 14.7103 10.1089 14.7103ZM4.50921 9.93068H23.2646C24.8537 9.93068 25.7696 8.91233 25.7696 7.33288V5.61913C25.7696 4.04179 24.8537 3.02344 23.2646 3.02344H4.50921C2.97992 3.02344 2 4.04179 2 5.61913V7.33288C2 8.91233 2.92015 9.93068 4.50921 9.93068ZM4.96015 7.81523C4.42272 7.81523 4.18835 7.57125 4.18835 7.03382V5.9203C4.18835 5.38077 4.42272 5.13678 4.96015 5.13678H22.8191C23.3565 5.13678 23.5812 5.38077 23.5812 5.9203V7.03382C23.5812 7.57125 23.3565 7.81523 22.8191 7.81523H4.96015Z" fill="black"/>
</svg>
