<svg width="28" height="28" viewBox="0 0 28 28" fill="none" xmlns="http://www.w3.org/2000/svg">
<path d="M4.65343 22.4064H4.87867V16.0333C4.87867 14.2436 5.94577 13.1786 7.73546 13.1786H20.8244C22.6141 13.1786 23.6791 14.2436 23.6791 16.0333V22.4064H23.9052C26.2853 22.4064 27.5683 21.1736 27.5683 18.7914V9.36414C27.5683 6.98196 26.2853 5.73954 23.9052 5.73954H4.65343C2.38117 5.73954 1 6.98196 1 9.36414V18.7914C1 21.1736 2.28297 22.4064 4.65343 22.4064ZM5.7482 4.06705H22.8201V3.89525C22.8201 2.12501 21.3923 1.30518 19.4369 1.30518H9.1314C7.24749 1.30518 5.7482 2.12501 5.7482 3.89525V4.06705ZM6.59382 25.3126C6.59382 26.2703 7.23085 26.9073 8.1789 26.9073H20.3809C21.3386 26.9073 21.966 26.2703 21.966 25.3126V16.0333C21.966 15.3421 21.5155 14.8916 20.8244 14.8916H7.73546C7.0539 14.8916 6.59382 15.3421 6.59382 16.0333V25.3126ZM10.6194 19.6394C10.15 19.6394 9.79234 19.2721 9.79234 18.8026C9.79234 18.3545 10.1479 18.0086 10.6194 18.0086H17.9744C18.4417 18.0086 18.7898 18.3545 18.7898 18.8026C18.7898 19.2721 18.4417 19.6394 17.9744 19.6394H10.6194ZM10.6194 23.7904C10.1479 23.7904 9.79234 23.4327 9.79234 22.9867C9.79234 22.5173 10.15 22.1575 10.6194 22.1575H17.9744C18.4417 22.1575 18.7898 22.5173 18.7898 22.9867C18.7898 23.4327 18.4417 23.7904 17.9744 23.7904H10.6194ZM19.8756 9.79774C19.8756 8.96172 20.5881 8.2375 21.4455 8.2375C22.2719 8.2375 22.9961 8.96172 22.9961 9.79774C22.9961 10.6572 22.274 11.3345 21.4455 11.3462C20.586 11.3483 19.8756 10.6668 19.8756 9.79774Z" fill="black"/>
</svg>
