<svg width="28" height="28" viewBox="0 0 28 28" fill="none" xmlns="http://www.w3.org/2000/svg">
<path d="M14.105 26.21C20.7369 26.21 26.2121 20.7273 26.2121 14.105C26.2121 7.47312 20.7273 2 14.0954 2C7.47523 2 2 7.47312 2 14.105C2 20.7273 7.48484 26.21 14.105 26.21Z" fill="black"/>
<path d="M7.76031 13.0018C8.22366 10.4944 10.146 8.46123 12.6086 7.87858C12.798 8.31732 12.8767 8.76897 12.8767 9.27264C12.8767 11.502 11.1876 13.1794 8.97202 13.1794C8.54288 13.1794 8.1414 13.1103 7.76031 13.0018ZM14.0859 20.5637C10.57 20.5637 7.65601 17.6497 7.65601 14.1338C7.65601 14.0647 7.65601 13.9955 7.66023 13.9243C8.07554 14.053 8.52062 14.1125 8.97202 14.1125C11.6509 14.1125 13.8098 11.9419 13.8098 9.27264C13.8098 8.71998 13.7268 8.19498 13.5492 7.7199C13.7313 7.70818 13.9038 7.69647 14.0859 7.69647C17.6017 7.69647 20.5253 10.6083 20.5253 14.1338C20.5253 14.1891 20.5253 14.2444 20.5253 14.2976C20.1067 14.1648 19.6767 14.0998 19.2274 14.0998C16.5388 14.0998 14.3875 16.2758 14.3875 18.9493C14.3875 19.5083 14.4726 20.0513 14.6725 20.5381C14.4841 20.5616 14.2743 20.5637 14.0859 20.5637ZM15.611 20.3752C15.4077 19.9365 15.3206 19.4668 15.3206 18.9493C15.3206 16.722 16.998 15.0329 19.2274 15.0329C19.6649 15.0329 20.043 15.102 20.4253 15.2298C19.9992 17.7338 18.0597 19.7691 15.611 20.3752Z" fill="white"/>
</svg>
