<svg width="28" height="28" viewBox="0 0 28 28" fill="none" xmlns="http://www.w3.org/2000/svg">
<path d="M4 16.539C4 20.8142 6.34539 22.4879 13.0755 26.1767C13.3823 26.3387 13.69 26.4195 13.8965 26.4195C14.103 26.4195 14.4203 26.3387 14.7175 26.1767C21.4572 22.4975 23.793 20.8142 23.793 16.539V7.6796C23.793 6.29094 23.2551 5.80086 22.0923 5.30516C20.7897 4.76258 16.3987 3.21828 15.1213 2.78211C14.7332 2.65766 14.29 2.5768 13.8965 2.5768C13.503 2.5768 13.0598 2.67898 12.6812 2.78211C11.4039 3.1468 7.00328 4.77219 5.70062 5.30516C4.5475 5.79125 4 6.29094 4 7.6796V16.539ZM6.20077 16.1012V14.2039H13.8944V4.78202C14.0634 4.78202 14.2431 4.82561 14.5087 4.91491C16.0778 5.53155 19.427 6.72312 21.1907 7.34421C21.5113 7.46562 21.5922 7.64023 21.5922 8.05343V14.2039H13.8965V23.9588C13.728 23.9588 13.5616 23.897 13.2205 23.6902C7.86343 20.4238 6.20077 19.5451 6.20077 16.1012Z" fill="black"/>
</svg>
