<svg width="28" height="28" viewBox="0 0 28 28" fill="none" xmlns="http://www.w3.org/2000/svg">
<path d="M14.105 26.21C20.7369 26.21 26.2121 20.7273 26.2121 14.105C26.2121 7.47312 20.7273 2 14.0954 2C7.47523 2 2 7.47312 2 14.105C2 20.7273 7.48484 26.21 14.105 26.21ZM14.105 23.8255C8.71085 23.8255 4.39412 19.4991 4.39412 14.105C4.39412 8.71085 8.70124 4.38452 14.0954 4.38452C19.4895 4.38452 23.8276 8.71085 23.8276 14.105C23.8276 19.4991 19.4991 23.8255 14.105 23.8255Z" fill="black"/>
<path d="M11.0753 16.5043H12.7031C12.7553 16.5043 12.798 16.5235 12.8385 16.5566L15.2899 18.8759C15.5699 19.1284 15.8085 19.2519 16.1046 19.2519C16.2827 19.2519 16.4106 19.1729 16.5098 19.063L16.6197 18.7362L10.1495 12.2598H10.0726C9.91255 12.4196 9.79513 12.7107 9.79513 13.0402V15.1752C9.79513 16.0421 10.2531 16.5043 11.0753 16.5043ZM13.3385 11.195L16.8253 14.686V9.69592C16.8253 9.27968 16.5166 8.94639 16.0949 8.94639C15.801 8.94639 15.6009 9.07741 15.2899 9.36077L13.3385 11.195ZM19.3989 20.2227C19.6192 20.4409 20.0024 20.4451 20.2228 20.2227C20.4548 19.9927 20.4548 19.6288 20.2228 19.3988L8.80372 7.97022C8.5738 7.7403 8.19809 7.7403 7.96817 7.97022C7.73614 8.20014 7.74575 8.57374 7.96817 8.79616L19.3989 20.2227Z" fill="black"/>
</svg>
