<svg width="28" height="28" viewBox="0 0 28 28" fill="none" xmlns="http://www.w3.org/2000/svg">
<path d="M4 23.8316C4 25.3328 4.84914 26.2619 6.24694 26.2619H21.0327C22.423 26.2619 23.2722 25.3328 23.2722 23.8316V3.44194C23.2722 1.94078 22.423 1.01172 21.0327 1.01172H6.24694C4.84914 1.01172 4 1.94078 4 3.44194V23.8316ZM6.27483 23.3748V3.90085C6.27483 3.48272 6.47311 3.28444 6.88913 3.28444H20.3905C20.7991 3.28444 20.9973 3.48272 20.9973 3.90085V23.3748C20.9973 23.7813 20.7991 23.9891 20.3905 23.9891H6.88913C6.47311 23.9891 6.27483 23.7813 6.27483 23.3748ZM9.4546 25.078H11.2323V21.1893C11.2323 20.9537 11.3591 20.8269 11.5947 20.8269H15.6796C15.9226 20.8269 16.0419 20.9537 16.0419 21.1893V25.078H17.8197V20.5891C17.8197 19.5939 17.3512 19.0977 16.4029 19.0977H10.8714C9.92312 19.0977 9.4546 19.5939 9.4546 20.5891V25.078ZM9.79819 8.34858H12.0369C12.3119 8.34858 12.5069 8.1653 12.5069 7.87866V5.70389C12.5069 5.42475 12.3119 5.23186 12.0369 5.23186H9.79819C9.52327 5.23186 9.34959 5.42475 9.34959 5.70389V7.87866C9.34959 8.1653 9.52327 8.34858 9.79819 8.34858ZM15.2373 8.34858H17.4665C17.7414 8.34858 17.9343 8.1653 17.9343 7.87866V5.70389C17.9343 5.42475 17.7414 5.23186 17.4665 5.23186H15.2373C14.9528 5.23186 14.777 5.42475 14.777 5.70389V7.87866C14.777 8.1653 14.9528 8.34858 15.2373 8.34858ZM9.79819 12.8437H12.0369C12.3119 12.8437 12.5069 12.6604 12.5069 12.3737V10.1969C12.5069 9.91983 12.3119 9.72694 12.0369 9.72694H9.79819C9.52327 9.72694 9.34959 9.91983 9.34959 10.1969V12.3737C9.34959 12.6604 9.52327 12.8437 9.79819 12.8437ZM15.2373 12.8437H17.4665C17.7414 12.8437 17.9343 12.6604 17.9343 12.3737V10.1969C17.9343 9.91983 17.7414 9.72694 17.4665 9.72694H15.2373C14.9528 9.72694 14.777 9.91983 14.777 10.1969V12.3737C14.777 12.6604 14.9528 12.8437 15.2373 12.8437ZM9.79819 17.3387H12.0369C12.3119 17.3387 12.5069 17.1437 12.5069 16.8667V14.6919C12.5069 14.4053 12.3119 14.2199 12.0369 14.2199H9.79819C9.52327 14.2199 9.34959 14.4053 9.34959 14.6919V16.8667C9.34959 17.1437 9.52327 17.3387 9.79819 17.3387ZM15.2373 17.3387H17.4665C17.7414 17.3387 17.9343 17.1437 17.9343 16.8667V14.6919C17.9343 14.4053 17.7414 14.2199 17.4665 14.2199H15.2373C14.9528 14.2199 14.777 14.4053 14.777 14.6919V16.8667C14.777 17.1437 14.9528 17.3387 15.2373 17.3387Z" fill="black"/>
</svg>
