<svg width="30" height="28" viewBox="0 0 30 28" fill="none" xmlns="http://www.w3.org/2000/svg">
<path d="M1.14421 26.1541C1.78124 26.1541 2.29592 25.6394 2.29592 25.0098V3.93389C2.29592 3.54623 2.54623 3.29592 2.91256 3.29592H26.3641C26.7305 3.29592 26.9808 3.54623 26.9808 3.93389V25.0098C26.9808 25.6394 27.4955 26.1541 28.1229 26.1541C28.762 26.1541 29.2767 25.6394 29.2767 25.0098V3.72178C29.2767 2.07273 28.1869 1 26.4973 1H2.77194C1.08984 1 0 2.07273 0 3.72178V25.0098C0 25.6394 0.514684 26.1541 1.14421 26.1541Z" fill="black"/>
<path d="M4.07175 25.665H13.5586C13.7728 25.665 13.9423 25.4956 13.9423 25.2813V5.08355C13.9423 4.86933 13.7728 4.69988 13.5586 4.69988H4.07175C3.85964 4.69988 3.69019 4.86933 3.69019 5.08355V25.2813C3.69019 25.4956 3.85964 25.665 4.07175 25.665ZM5.79745 11.0184C5.58276 11.0184 5.43815 10.8717 5.43815 10.6378V6.84534C5.43815 6.60933 5.58276 6.46472 5.79745 6.46472H11.8329C12.0497 6.46472 12.1943 6.60933 12.1943 6.84534V10.6378C12.1943 10.8717 12.0497 11.0184 11.8329 11.0184H5.79745ZM5.79745 17.4534C5.58276 17.4534 5.43815 17.3088 5.43815 17.0728V13.2846C5.43815 13.0486 5.58276 12.9136 5.79745 12.9136H11.8329C12.0497 12.9136 12.1943 13.0486 12.1943 13.2846V17.0728C12.1943 17.3088 12.0497 17.4534 11.8329 17.4534H5.79745ZM5.79745 23.9002C5.58276 23.9002 5.43815 23.7556 5.43815 23.5195V19.7292C5.43815 19.4953 5.58276 19.3603 5.79745 19.3603H11.8329C12.0497 19.3603 12.1943 19.4953 12.1943 19.7292V23.5195C12.1943 23.7556 12.0497 23.9002 11.8329 23.9002H5.79745ZM15.7085 25.6554H25.2049C25.417 25.6554 25.5865 25.4763 25.5865 25.2717V5.06433C25.5865 4.85011 25.417 4.68066 25.2049 4.68066H15.7085C15.5039 4.68066 15.3344 4.85011 15.3344 5.06433V25.2717C15.3344 25.4763 15.5039 25.6554 15.7085 25.6554ZM17.4438 10.9992C17.227 10.9992 17.0824 10.8525 17.0824 10.6186V6.82612C17.0824 6.59011 17.227 6.45511 17.4438 6.45511H23.4792C23.6939 6.45511 23.8289 6.59011 23.8289 6.82612V10.6186C23.8289 10.8525 23.6939 10.9992 23.4792 10.9992H17.4438ZM17.4438 17.4342C17.227 17.4342 17.0824 17.2896 17.0824 17.0632V13.2654C17.0824 13.039 17.227 12.8944 17.4438 12.8944H23.4792C23.6939 12.8944 23.8289 13.039 23.8289 13.2654V17.0632C23.8289 17.2896 23.6939 17.4342 23.4792 17.4342H17.4438ZM17.4438 23.881C17.227 23.881 17.0824 23.7363 17.0824 23.5099V19.71C17.0824 19.4857 17.227 19.3411 17.4438 19.3411H23.4792C23.6939 19.3411 23.8289 19.4857 23.8289 19.71V23.5099C23.8289 23.7363 23.6939 23.881 23.4792 23.881H17.4438Z" fill="black"/>
</svg>
