<svg width="36" height="28" viewBox="0 0 36 28" fill="none" xmlns="http://www.w3.org/2000/svg">
<path d="M6.42749 22.3849H24.8093C26.9419 22.3849 28.6167 22.1531 29.8205 20.9494C31.0263 19.7435 31.2464 18.0963 31.2464 15.9574V12.4275C31.2464 10.2886 31.0263 8.63719 29.8205 7.43554C28.6146 6.23179 26.9419 6 24.8093 6H6.40827C4.30453 6 2.62968 6.23179 1.42383 7.43554C0.220076 8.63929 0 10.2982 0 12.3987V15.9574C0 18.0963 0.220076 19.7477 1.42383 20.9494C2.63179 22.1531 4.30453 22.3849 6.42749 22.3849ZM6.10898 20.089C4.89351 20.089 3.75655 19.9207 3.09866 19.2745C2.45037 18.6187 2.29592 17.4935 2.29592 16.2759V12.1261C2.29592 10.8893 2.45248 9.76827 3.09866 9.11038C3.75444 8.45248 4.90312 8.29592 6.13781 8.29592H25.1374C26.3529 8.29592 27.4877 8.4642 28.1381 9.11038C28.796 9.76616 28.9505 10.8797 28.9505 12.0973V16.2759C28.9505 17.4935 28.7939 18.6166 28.1381 19.2745C27.492 19.9228 26.3529 20.089 25.1374 20.089H6.10898ZM32.9498 17.3705C33.9199 17.3097 35.2254 16.065 35.2254 14.1876C35.2254 12.3178 33.9199 11.0752 32.9498 11.0145V17.3705Z" fill="black"/>
<path d="M5.65021 18.6198H13.7457C14.4763 18.6198 14.905 18.5111 15.2078 18.2083C15.5106 17.9054 15.629 17.4768 15.629 16.7462V11.6385C15.629 10.9058 15.5106 10.4772 15.2078 10.1743C14.905 9.87153 14.4763 9.76489 13.7457 9.76489H5.67904C4.92716 9.76489 4.48888 9.87153 4.18606 10.1743C3.89286 10.4772 3.77661 10.9154 3.77661 11.6577V16.7462C3.77661 17.4768 3.89286 17.9054 4.18606 18.2083C4.48888 18.5111 4.92716 18.6198 5.65021 18.6198Z" fill="black"/>
</svg>
