<svg width="28" height="28" viewBox="0 0 28 28" fill="none" xmlns="http://www.w3.org/2000/svg">
<path d="M6.84421 24.8972H21.0295C23.5685 24.8972 24.8737 23.5919 24.8737 21.0914V6.82921C24.8737 4.32656 23.5685 3.02344 21.0295 3.02344H6.84421C4.31484 3.02344 3 4.31695 3 6.82921V21.0914C3 23.6016 4.31484 24.8972 6.84421 24.8972Z" fill="black"/>
<path d="M19.2515 10.6186C18.1574 10.5973 17.2551 9.73546 17.2551 8.636C17.2551 7.55577 18.1574 6.68225 19.2515 6.68225C20.3221 6.68225 21.2052 7.55577 21.2052 8.636C21.2052 9.73968 20.32 10.6441 19.2515 10.6186ZM13.9447 15.9274C12.8486 15.9274 11.9814 15.0485 11.9814 13.9427C11.9814 12.8625 12.8528 11.9932 13.9447 11.9932C15.0111 11.9932 15.906 12.8646 15.906 13.9427C15.906 15.0422 15.0154 15.9274 13.9447 15.9274ZM8.64134 21.2405C7.55149 21.2405 6.67798 20.3573 6.67798 19.2612C6.67798 18.1734 7.55149 17.3041 8.64134 17.3041C9.71196 17.3041 10.6026 18.1755 10.6026 19.2612C10.6026 20.3552 9.71407 21.2405 8.64134 21.2405Z" fill="white"/>
</svg>
