<svg width="29" height="28" viewBox="0 0 29 28" fill="none" xmlns="http://www.w3.org/2000/svg">
<path d="M8.10726 24.8972H20.5512C22.9631 24.8972 24.0227 23.7051 24.3954 21.307L26.2905 8.70468L24.0199 8.80288L22.1344 21.1739C21.9649 22.2623 21.4155 22.6995 20.4433 22.6995H8.22468C7.23327 22.6995 6.6935 22.2623 6.53365 21.1739L4.64811 8.80288L2.3775 8.70468L4.27265 21.307C4.6357 23.7148 5.70492 24.8972 8.10726 24.8972ZM2.50921 9.93068H26.1609C27.7521 9.93068 28.668 8.91233 28.668 7.33288V5.61913C28.668 4.04179 27.7521 3.02344 26.1609 3.02344H2.50921C0.979917 3.02344 0 4.04179 0 5.61913V7.33288C0 8.91233 0.920151 9.93068 2.50921 9.93068ZM2.96015 7.84054C2.42272 7.84054 2.18835 7.59656 2.18835 7.05702V5.89499C2.18835 5.35546 2.42272 5.11147 2.96015 5.11147H25.7175C26.2549 5.11147 26.4797 5.35546 26.4797 5.89499V7.05702C26.4797 7.59656 26.2549 7.84054 25.7175 7.84054H2.96015Z" fill="black"/>
<path d="M15.3849 19.863V16.0619L15.2902 14.2479L16.1914 15.1809L17.0687 16.0858C17.2391 16.271 17.4976 16.388 17.7552 16.388C18.2788 16.388 18.68 16.0198 18.68 15.5025C18.68 15.2055 18.5628 14.9894 18.3458 14.798L15.1346 11.8531C14.8674 11.6093 14.6495 11.4977 14.3581 11.4977C14.0785 11.4977 13.851 11.6093 13.5817 11.8531L10.3726 14.798C10.1534 14.9894 10.0459 15.2055 10.0459 15.5025C10.0459 16.0198 10.4396 16.388 10.9728 16.388C11.2133 16.388 11.4826 16.271 11.6572 16.0858L12.527 15.1809L13.4281 14.2479L13.341 16.0619V19.863C13.341 20.4194 13.806 20.8453 14.3581 20.8453C14.9124 20.8453 15.3849 20.4194 15.3849 19.863Z" fill="black"/>
</svg>
