<svg width="28" height="28" viewBox="0 0 28 28" fill="none" xmlns="http://www.w3.org/2000/svg">
<path d="M14.105 26.21C20.7369 26.21 26.2121 20.7273 26.2121 14.105C26.2121 7.47312 20.7273 2 14.0954 2C7.47523 2 2 7.47312 2 14.105C2 20.7273 7.48484 26.21 14.105 26.21ZM14.105 23.8255C8.71085 23.8255 4.39412 19.4991 4.39412 14.105C4.39412 8.71085 8.70124 4.38452 14.0954 4.38452C19.4895 4.38452 23.8276 8.71085 23.8276 14.105C23.8276 19.4991 19.4991 23.8255 14.105 23.8255Z" fill="black"/>
<path d="M6.6958 10.7424C6.6958 13.2881 8.94815 16.4306 10.8128 16.4306H11.0568C12.9236 16.4306 15.1739 13.2881 15.1739 10.7424C15.1739 9.4308 14.4879 8.71806 13.1988 8.71806H12.4507V10.0629H13.2393C13.635 10.0629 13.8215 10.2858 13.8215 10.7424C13.8215 12.562 12.1474 15.0761 10.9375 15.0761C9.72018 15.0761 8.05025 12.5641 8.05025 10.7424C8.05025 10.2762 8.23471 10.0629 8.63034 10.0629H9.42112V8.71806H8.67088C7.39354 8.71806 6.6958 9.4308 6.6958 10.7424ZM13.2117 20.4152C14.9557 20.4152 15.9295 19.1449 16.3879 16.3495C16.6706 14.6533 17.0576 14.0149 17.7356 14.0149C18.5029 14.0149 18.874 14.842 18.9072 16.7468H20.2638C20.1581 13.9828 19.3579 12.6722 17.7461 12.6722C16.278 12.6722 15.476 13.6811 15.059 16.042C14.6922 18.1886 14.2371 19.0608 13.1817 19.0608C12.1286 19.0608 11.5476 17.835 11.5966 15.5972H10.2539C10.1868 18.6623 11.2514 20.4152 13.2117 20.4152ZM9.49471 10.4201C10.0614 10.4201 10.5206 9.95134 10.5206 9.38251C10.5206 8.8083 10.0593 8.34705 9.49471 8.34705C8.9301 8.34705 8.44963 8.81791 8.44963 9.38251C8.44963 9.95134 8.91838 10.4201 9.49471 10.4201ZM12.375 10.4201C12.9321 10.4201 13.4008 9.95134 13.4008 9.38251C13.4008 8.81791 12.93 8.34705 12.375 8.34705C11.8007 8.34705 11.3395 8.8083 11.3395 9.38251C11.3395 9.95134 11.7986 10.4201 12.375 10.4201ZM19.609 19.7149C20.6862 19.7149 21.5524 18.8486 21.5524 17.7811C21.5524 16.7177 20.6744 15.859 19.609 15.859C18.5456 15.8493 17.6847 16.7177 17.6847 17.7811C17.6847 18.8561 18.536 19.7149 19.609 19.7149ZM19.6111 18.5062C19.2154 18.5062 18.9051 18.1767 18.9051 17.7811C18.9051 17.3758 19.2154 17.0655 19.6111 17.0655C20.0163 17.0655 20.3341 17.3758 20.3341 17.7811C20.3341 18.1767 20.0067 18.5062 19.6111 18.5062Z" fill="black"/>
</svg>
