<svg width="28" height="28" viewBox="0 0 28 28" fill="none" xmlns="http://www.w3.org/2000/svg">
<path d="M7.80577 26.3655H20.2891C22.8013 26.3655 24.0948 25.0506 24.0948 22.5287V12.0379H15.3341C13.8679 12.0379 13.1552 11.3251 13.1552 9.85679V1H7.80577C5.30523 1 4 2.32445 4 4.84632V22.5287C4 25.0602 5.29562 26.3655 7.80577 26.3655ZM15.5423 10.3248H23.9669C23.905 9.80008 23.5166 9.29336 22.9077 8.67273L16.5098 2.17656C15.921 1.58031 15.4026 1.19406 14.8682 1.12047V9.66039C14.8682 10.1034 15.0897 10.3248 15.5423 10.3248Z" fill="black"/>
<path d="M14.0473 23.3355C13.5153 23.3355 13.0737 22.933 13.0737 22.4064V18.5195L13.1609 16.7587L12.2736 17.6758L11.3131 18.6618C11.1364 18.8385 10.883 18.9597 10.6468 18.9597C10.1316 18.9597 9.76343 18.5957 9.76343 18.1061C9.76343 17.8251 9.87101 17.6111 10.0742 17.4313L13.3027 14.4627C13.5603 14.2328 13.7816 14.1255 14.0473 14.1255C14.3131 14.1255 14.5343 14.2328 14.7919 14.4627L18.0204 17.4313C18.2257 17.6111 18.3333 17.8251 18.3333 18.1061C18.3333 18.5957 17.9534 18.9597 17.4479 18.9597C17.202 18.9597 16.9561 18.8385 16.7815 18.6618L15.8253 17.6758L14.9337 16.7587L15.0305 18.5195V22.4064C15.0305 22.933 14.5815 23.3355 14.0473 23.3355Z" fill="white"/>
</svg>
