<svg width="28" height="28" viewBox="0 0 28 28" fill="none" xmlns="http://www.w3.org/2000/svg">
<path d="M4.78773 24.3058H23.8098C26.32 24.3058 27.5976 23.0378 27.5976 20.5565V9.08874C27.5976 6.59991 26.32 5.34156 23.8098 5.34156H4.78773C2.28718 5.34156 1 6.59991 1 9.08874V20.5565C1 23.0378 2.28718 24.3058 4.78773 24.3058ZM4.87444 22.0933C3.84413 22.0933 3.29592 21.5547 3.29592 20.4859V9.16139C3.29592 8.08303 3.84413 7.55404 4.87444 7.55404H23.7252C24.7534 7.55404 25.3016 8.08303 25.3016 9.16139V20.4859C25.3016 21.5547 24.7534 22.0933 23.7252 22.0933H4.87444ZM2.09078 12.5277C5.74046 13.7931 9.89898 14.4386 14.3036 14.4386C18.6986 14.4386 22.8571 13.7931 26.5068 12.5277V10.2306C22.9834 11.6397 18.8408 12.3543 14.3036 12.3543C9.75882 12.3543 5.61414 11.6397 2.09078 10.2306V12.5277ZM12.4712 16.6112H16.1263C17.0364 16.6112 17.5431 16.1268 17.5431 15.2432V13.2414H11.0662V15.2432C11.0662 16.1268 11.5708 16.6112 12.4712 16.6112ZM8.16812 6.29781H10.2925V4.27421C10.2925 3.4321 10.7723 2.96194 11.6336 2.96194H16.964C17.8253 2.96194 18.3147 3.43421 18.3147 4.27421V6.27859H20.439V4.27445C20.439 2.05867 19.243 1 17.0355 1H11.5558C9.45812 1 8.16812 2.05867 8.16812 4.27445V6.29781Z" fill="black"/>
</svg>
