<svg width="28" height="28" viewBox="0 0 28 28" fill="none" xmlns="http://www.w3.org/2000/svg">
<path d="M7.80577 26.3655H20.2891C22.7917 26.3655 24.0948 25.0506 24.0948 22.5287V4.84421C24.0948 2.31273 22.8013 1 20.2891 1H16.7854C16.3532 1 16.0912 1.27281 16.0912 1.70102C16.0912 2.8586 15.2833 3.73516 14.0474 3.73516C12.8116 3.73516 11.9941 2.8586 11.9941 1.70102C11.9941 1.27281 11.732 1 11.2998 1H7.80577C5.29562 1 4 2.31273 4 4.84421V22.5287C4 25.0506 5.30523 26.3655 7.80577 26.3655ZM7.99866 24.0695C6.85795 24.0695 6.29592 23.4681 6.29592 22.386V4.98694C6.29592 3.89522 6.85795 3.29381 7.99866 3.29381H11.4608L10.0862 2.47819C10.3098 4.57327 11.8691 5.91764 14.0474 5.91764C16.2278 5.91764 17.7871 4.57327 18.0203 2.47819L16.6361 3.29381H20.0983C21.2369 3.29381 21.7989 3.89522 21.7989 4.98694V22.386C21.7989 23.4681 21.2369 24.0695 20.0983 24.0695H7.99866ZM9.75788 9.9878H18.3445C18.7673 9.9878 19.0804 9.66085 19.0804 9.22843C19.0804 8.81944 18.7673 8.4946 18.3445 8.4946H9.75788C9.32335 8.4946 9.01022 8.81944 9.01022 9.22843C9.01022 9.66085 9.32335 9.9878 9.75788 9.9878ZM9.75788 14.053H13.9059C14.3383 14.053 14.6514 13.7282 14.6514 13.3192C14.6514 12.8964 14.3383 12.5694 13.9059 12.5694H9.75788C9.32335 12.5694 9.01022 12.8964 9.01022 13.3192C9.01022 13.7282 9.32335 14.053 9.75788 14.053Z" fill="black"/>
</svg>
