<svg width="29" height="28" viewBox="0 0 29 28" fill="none" xmlns="http://www.w3.org/2000/svg">
<path d="M28.208 19.3354C27.7219 16.3399 25.107 14.0376 21.9593 14.0376C18.8117 14.0376 16.2085 16.3399 15.7224 19.3354H28.208ZM28.208 21.4176H15.7224C16.2181 24.4227 18.8117 26.7271 21.9593 26.7271C25.1304 26.7271 27.724 24.4248 28.208 21.4176Z" fill="black"/>
<path d="M13.9715 14.9949L17.4761 11.4924C19.735 9.2431 19.7617 6.29022 17.6146 4.15272C15.4558 2.0035 12.5209 2.05366 10.2791 4.29545L6.77663 7.80007L13.9715 14.9949ZM12.4352 16.5408L5.23071 9.33639L1.72398 12.8506C-0.53492 15.0999 -0.565858 18.0549 1.58336 20.1903C3.7464 22.3374 6.67702 22.299 8.92093 20.0572L12.4352 16.5408Z" fill="black"/>
</svg>
