<svg width="28" height="28" viewBox="0 0 28 28" fill="none" xmlns="http://www.w3.org/2000/svg">
<path d="M14.105 26.21C20.7369 26.21 26.2121 20.7273 26.2121 14.105C26.2121 7.47312 20.7273 2 14.0954 2C7.47523 2 2 7.47312 2 14.105C2 20.7273 7.48484 26.21 14.105 26.21ZM14.105 23.8255C8.71085 23.8255 4.39412 19.4991 4.39412 14.105C4.39412 8.71085 8.70124 4.38452 14.0954 4.38452C19.4895 4.38452 23.8276 8.71085 23.8276 14.105C23.8276 19.4991 19.4991 23.8255 14.105 23.8255Z" fill="black"/>
<path d="M7.92065 14.105C7.92065 16.9393 9.90581 19.3794 12.5526 20.09C12.6986 19.6573 12.7786 19.2205 12.8329 18.7782L12.6122 18.7686C12.3874 18.759 12.2107 18.5694 12.2107 18.3458C12.2203 18.1285 12.3928 17.9251 12.6314 17.9251L12.8447 17.9347C12.8329 17.682 12.802 17.4411 12.7668 17.1809L12.5418 17.2353C12.3288 17.296 12.1052 17.1575 12.0562 16.9456C11.9934 16.7166 12.1265 16.478 12.3342 16.4269L12.5475 16.3726C12.4622 16.1145 12.363 15.8757 12.235 15.6348L12.0879 15.718C11.8898 15.8277 11.6512 15.7606 11.534 15.5614C11.4222 15.3697 11.4829 15.1034 11.6885 14.9916L11.8336 14.9084C11.6683 14.6813 11.5031 14.4617 11.309 14.2538L11.197 14.3659C11.0383 14.5245 10.7859 14.5149 10.6155 14.3562C10.4568 14.2093 10.4472 13.9313 10.6038 13.7748L10.7062 13.6723C10.5335 13.523 10.3394 13.3812 10.1475 13.2608L10.0291 13.4762C9.91518 13.6859 9.66698 13.7403 9.48276 13.6327C9.26971 13.5348 9.19518 13.2823 9.31448 13.0651L9.42323 12.8614C9.0119 12.6589 8.59096 12.5204 8.15831 12.4266C8.00807 12.953 7.92065 13.5317 7.92065 14.105ZM14.1049 20.3009C16.6429 20.3009 18.8646 18.7058 19.8129 16.482C19.3195 16.3787 18.8496 16.2167 18.3989 16.01L18.2742 16.2338C18.1666 16.4394 17.91 16.5214 17.7065 16.4096C17.5148 16.2903 17.4424 16.0379 17.5521 15.8323L17.6747 15.6202C17.3965 15.455 17.1321 15.2546 16.8752 15.0521L16.7004 15.2269C16.5375 15.3877 16.2829 15.3622 16.121 15.2173C15.9602 15.0544 15.9431 14.802 16.0997 14.6476L16.2745 14.4748C16.0411 14.218 15.8311 13.9536 15.6424 13.6637L15.3972 13.8097C15.1938 13.929 14.951 13.8448 14.8413 13.651C14.7433 13.4455 14.7944 13.193 14.9861 13.0951L15.2313 12.9512C15.0757 12.6282 14.9414 12.301 14.8422 11.9684L14.5406 12.0484C14.3074 12.1091 14.104 11.9717 14.0454 11.7491C13.9826 11.5393 14.0943 11.3124 14.3329 11.2475L14.6484 11.1697C14.594 10.8702 14.5685 10.5631 14.5568 10.254H14.3041C14.0709 10.2444 13.9122 10.0505 13.9143 9.82578C13.9143 9.6043 14.0965 9.41258 14.3329 9.41047L14.5685 9.42008C14.6154 8.92672 14.7187 8.44508 14.8647 7.96344C14.6154 7.9325 14.3447 7.90906 14.0953 7.90906C11.571 7.90906 9.36112 9.50211 8.42034 11.7024C8.89237 11.8079 9.35268 11.9656 9.79917 12.1744L9.91214 11.9741C10.0293 11.7631 10.2721 11.7078 10.4798 11.8121C10.6778 11.9101 10.7578 12.17 10.6385 12.3755L10.5255 12.578C10.7878 12.7316 11.0308 12.9202 11.26 13.1047L11.4977 12.8809C11.6639 12.7264 11.8896 12.7318 12.0792 12.8947C12.2433 13.0491 12.2517 13.3016 12.0888 13.4644L11.8671 13.6862C12.108 13.943 12.3318 14.2137 12.5226 14.5112L12.7891 14.3673C12.9883 14.2501 13.2236 14.3258 13.345 14.5334C13.4643 14.7155 13.4079 14.9893 13.1981 15.1011L12.9412 15.245C13.099 15.5466 13.2215 15.8558 13.3207 16.1787L13.5616 16.1127C13.7768 16.0541 13.9983 16.1809 14.059 16.4023C14.11 16.6313 13.979 16.8624 13.7693 16.921L13.5262 16.9871C13.5827 17.2984 13.6083 17.6309 13.62 17.9539H13.8843C14.1133 17.9635 14.2879 18.167 14.2879 18.3842C14.2879 18.6132 14.1037 18.7974 13.8747 18.7974L13.5986 18.7878C13.5422 19.2812 13.4484 19.7745 13.2928 20.2348C13.5614 20.2775 13.8342 20.3009 14.1049 20.3009ZM20.3008 14.105C20.3008 11.2505 18.2847 8.80086 15.622 8.09867C15.476 8.54094 15.3865 8.98531 15.3396 9.4318L15.5859 9.44141C15.8095 9.45102 15.9895 9.64484 15.9799 9.86422C15.9799 10.1049 15.8074 10.2828 15.5688 10.2828L15.3321 10.2732C15.3438 10.5003 15.3672 10.7253 15.4078 10.9641L15.539 10.9332C15.7722 10.8725 15.9895 11.0098 16.0481 11.2367C16.1067 11.4455 15.982 11.6691 15.7584 11.7319L15.6133 11.7725C15.7029 12.0348 15.802 12.2853 15.9417 12.5401L16.0751 12.4665C16.2806 12.3451 16.5351 12.4271 16.6448 12.6251C16.7524 12.8541 16.6875 13.0735 16.4883 13.179L16.3411 13.2622C16.4967 13.4914 16.6598 13.6993 16.8326 13.9051L16.9915 13.7462C17.1757 13.5641 17.4089 13.5896 17.5826 13.7462C17.7274 13.8889 17.7668 14.153 17.5847 14.3373L17.4333 14.4887C17.6294 14.6593 17.8352 14.8149 18.0527 14.9471L18.1594 14.753C18.269 14.5571 18.5311 14.4655 18.7078 14.5869C18.9208 14.6966 18.9933 14.9394 18.874 15.1449L18.7652 15.3465C19.1883 15.5394 19.6209 15.6779 20.0653 15.7599C20.223 15.2335 20.3008 14.6762 20.3008 14.105Z" fill="black"/>
</svg>
