<svg width="28" height="30" viewBox="0 0 28 30" fill="none" xmlns="http://www.w3.org/2000/svg">
<path d="M14.0745 16.1018C16.6747 16.1018 19.2207 15.9473 21.3076 15.6384C22.9627 15.3881 23.4811 14.1666 22.9189 12.4233L19.8104 2.62851C19.2469 0.834842 17.8048 0 15.8145 0H12.3228C10.3325 0 8.89038 0.834842 8.32694 2.62851L5.21842 12.4233C4.65616 14.1666 5.1746 15.3881 6.82975 15.6384C8.91662 15.9473 11.4647 16.1018 14.0745 16.1018ZM12.9903 15.2759V28.2965H15.1512V15.2759H12.9903ZM8.75889 29.1199H19.3784C19.8858 29.1199 20.2315 28.7562 20.2315 28.2274C20.2315 27.2482 19.4333 26.568 18.2314 26.568H9.90592C8.70405 26.568 7.91749 27.2482 7.91749 28.2274C7.91749 28.7562 8.25147 29.1199 8.75889 29.1199Z" fill="black"/>
</svg>
