<svg width="28" height="28" viewBox="0 0 28 28" fill="none" xmlns="http://www.w3.org/2000/svg">
<path d="M9.48952 17.2136C8.99874 17.2136 8.6357 16.8559 8.6357 16.3865C8.6357 15.9234 8.99874 15.5582 9.48952 15.5582H18.6362C19.1153 15.5582 19.4805 15.9234 19.4805 16.3865C19.4805 16.8559 19.1153 17.2136 18.6362 17.2136H9.48952ZM9.48952 21.6107C8.99874 21.6107 8.6357 21.2573 8.6357 20.792C8.6357 20.3226 8.99874 19.9574 9.48952 19.9574H18.6362C19.1153 19.9574 19.4805 20.3226 19.4805 20.792C19.4805 21.2573 19.1153 21.6107 18.6362 21.6107H9.48952ZM7.80577 26.3655H20.2891C22.8013 26.3655 24.0948 25.0506 24.0948 22.5287V12.0379H15.3341C13.8679 12.0379 13.1552 11.3251 13.1552 9.85679V1H7.80577C5.30523 1 4 2.32445 4 4.84632V22.5287C4 25.0602 5.29562 26.3655 7.80577 26.3655ZM15.5423 10.3248H23.9669C23.905 9.80008 23.5166 9.29336 22.9077 8.67273L16.5098 2.17656C15.921 1.58031 15.4026 1.19406 14.8682 1.12047V9.66039C14.8682 10.1034 15.0897 10.3248 15.5423 10.3248Z" fill="black"/>
</svg>
