<svg width="28" height="28" viewBox="0 0 28 28" fill="none" xmlns="http://www.w3.org/2000/svg">
<path d="M14.105 26.21C20.7369 26.21 26.2121 20.7273 26.2121 14.105C26.2121 7.47312 20.7273 2 14.0954 2C7.47523 2 2 7.47312 2 14.105C2 20.7273 7.48484 26.21 14.105 26.21ZM14.105 23.8255C8.71085 23.8255 4.39412 19.4991 4.39412 14.105C4.39412 8.71085 8.70124 4.38452 14.0954 4.38452C19.4895 4.38452 23.8276 8.71085 23.8276 14.105C23.8276 19.4991 19.4991 23.8255 14.105 23.8255Z" fill="black"/>
<path d="M10.5803 19.6515H17.405C18.5194 19.6515 19.2244 18.9455 19.2244 17.6776V11.6671L17.9309 12.9701V17.6169C17.9309 18.1032 17.693 18.3484 17.3933 18.3484H10.592C10.1387 18.3484 9.88604 18.1032 9.88604 17.6169V11.035C9.88604 10.5444 10.1387 10.2918 10.592 10.2918H15.3249L16.6302 8.98653H10.5803C9.30058 8.98653 8.58081 9.7159 8.58081 10.9818V17.6776C8.58081 18.9455 9.30058 19.6515 10.5803 19.6515ZM12.7381 15.853L13.9196 15.3629L19.1677 10.1148L18.1292 9.10183L12.897 14.3499L12.358 15.4611C12.2441 15.7039 12.5049 15.9455 12.7381 15.853ZM19.6864 9.59402L20.1912 9.0348C20.4427 8.76527 20.4373 8.40316 20.2105 8.16668L20.0581 8.03355C19.8174 7.78324 19.4319 7.8109 19.1741 8.05488L18.6617 8.55762L19.6864 9.59402Z" fill="black"/>
</svg>
