<svg width="28" height="28" viewBox="0 0 28 28" fill="none" xmlns="http://www.w3.org/2000/svg">
<path d="M14.105 26.21C20.7369 26.21 26.2121 20.7273 26.2121 14.105C26.2121 7.47312 20.7273 2 14.0954 2C7.47523 2 2 7.47312 2 14.105C2 20.7273 7.48484 26.21 14.105 26.21ZM14.105 23.8255C8.71085 23.8255 4.39412 19.4991 4.39412 14.105C4.39412 8.71085 8.70124 4.38452 14.0954 4.38452C19.4895 4.38452 23.8276 8.71085 23.8276 14.105C23.8276 19.4991 19.4991 23.8255 14.105 23.8255Z" fill="black"/>
<path d="M8.2149 19.6794H9.18264C9.64576 19.6794 9.90545 19.4197 9.90545 18.962V10.224C9.90545 9.76838 9.64576 9.50869 9.18264 9.50869H8.2149C7.73795 9.50869 7.46655 9.76838 7.46655 10.224V18.962C7.46655 19.4197 7.73795 19.6794 8.2149 19.6794ZM11.3818 19.6794H13.4192C13.8941 19.6794 14.1441 19.4197 14.1441 18.962V12.0713C14.1441 11.6157 13.8941 11.3368 13.4192 11.3368H11.3818C10.9219 11.3368 10.6548 11.6157 10.6548 12.0713V18.962C10.6548 19.4197 10.9219 19.6794 11.3818 19.6794ZM11.8552 13.3055C11.6422 13.3055 11.5027 13.1319 11.5027 12.9476C11.5027 12.7463 11.6476 12.5855 11.8552 12.5855H12.9692C13.1832 12.5855 13.3271 12.7463 13.3271 12.9476C13.3271 13.1319 13.1726 13.3055 12.9692 13.3055H11.8552ZM11.8552 18.4552C11.6476 18.4552 11.5027 18.2987 11.5027 18.0856C11.5027 17.8801 11.6422 17.7256 11.8552 17.7256H12.9692C13.1726 17.7256 13.3271 17.8801 13.3271 18.0856C13.3271 18.2987 13.1726 18.4552 12.9692 18.4552H11.8552ZM15.6301 19.6794H16.8509C17.3204 19.6794 17.578 19.4197 17.578 18.962V8.76103C17.578 8.28947 17.3204 8.034 16.8509 8.034H15.6301C15.151 8.034 14.9052 8.28947 14.9052 8.76103V18.962C14.9052 19.4197 15.151 19.6794 15.6301 19.6794ZM19.6759 19.6794L20.4659 19.4874C20.9194 19.3991 21.1142 19.0904 21.0355 18.6348L19.317 10.1891C19.2329 9.72385 18.9296 9.50236 18.474 9.60783L17.686 9.79768C17.2421 9.89143 17.0281 10.1926 17.1123 10.6482L18.8328 19.1152C18.9212 19.5591 19.2319 19.7731 19.6759 19.6794Z" fill="black"/>
</svg>
