<svg width="28" height="28" viewBox="0 0 28 28" fill="none" xmlns="http://www.w3.org/2000/svg">
<path d="M3.84632 16.0432H23.9109C26.4541 16.0432 27.7552 14.7572 27.7552 12.3741V8.04984C27.7552 6.82312 27.7334 5.94891 27.0513 5.34844L22.8628 1.56609C21.5412 0.389765 20.6081 0 18.7788 0H8.97843C7.15874 0 6.21398 0.389765 4.90195 1.56609L0.705936 5.34844C0.0217988 5.94891 0 6.82312 0 8.04984V12.3741C0 14.7572 1.31273 16.0432 3.84632 16.0432ZM13.8776 10.6402C12.2484 10.6402 11.2242 9.24001 11.2242 7.92914V7.88438C11.2242 7.39852 10.9334 6.95625 10.2881 6.95625H3.0935C2.47616 6.95625 2.26616 6.66633 2.76936 6.20883L6.59436 2.75202C7.25015 2.15366 7.69147 1.91694 8.70562 1.91694H19.0516C20.0754 1.91694 20.5071 2.15577 21.1629 2.75202L24.9879 6.20039C25.5167 6.67922 25.2715 6.95625 24.6713 6.95625H17.4691C16.8239 6.95625 16.5405 7.39852 16.5405 7.88438V7.92914C16.5405 9.24001 15.5184 10.6402 13.8776 10.6402ZM3.84632 27.0492H23.9109C26.4382 27.0492 27.7552 25.744 27.7552 23.2434V19.1313C27.7552 18.4085 27.3279 17.7947 26.5826 17.7947H17.4902C16.8408 17.7947 16.5553 18.2391 16.5553 18.7216V18.7643C16.5553 20.0836 15.5311 21.5018 13.8776 21.5018C12.2358 21.5018 11.2094 20.0836 11.2094 18.7643V18.7216C11.2094 18.2391 10.9165 17.7947 10.2649 17.7947H1.19789C0.454687 17.7947 0 18.4085 0 19.1313V23.2434C0 25.744 1.31484 27.0492 3.84632 27.0492Z" fill="black"/>
</svg>
