<svg width="28" height="28" viewBox="0 0 28 28" fill="none" xmlns="http://www.w3.org/2000/svg">
<path d="M13.9291 27.1622C18.5855 27.1622 21.854 24.0321 21.854 19.5942V7.56796C21.854 3.12046 18.5855 0 13.9291 0C9.28031 0 6 3.12046 6 7.56796V19.5942C6 24.0321 9.28031 27.1622 13.9291 27.1622ZM13.9174 24.9844C10.541 24.9844 8.16397 22.7576 8.16397 19.5942V7.56796C8.16397 4.40249 10.541 2.1778 13.9174 2.1778C17.313 2.1778 19.6922 4.40249 19.6922 7.56796V19.5942C19.6922 22.7576 17.313 24.9844 13.9174 24.9844Z" fill="black"/>
<path d="M13.9292 12.6194C16.3486 12.6194 18.2524 10.7156 18.2524 8.29402C18.2524 5.86496 16.3486 3.95691 13.9292 3.95691C11.5076 3.95691 9.59204 5.86496 9.59204 8.29402C9.59204 10.7156 11.5076 12.6194 13.9292 12.6194ZM13.9292 9.8573C13.05 9.8573 12.3659 9.17316 12.3659 8.29402C12.3659 7.40738 13.05 6.72324 13.9292 6.72324C14.8062 6.72324 15.4807 7.40738 15.4807 8.29402C15.4807 9.17316 14.8062 9.8573 13.9292 9.8573ZM13.9292 23.1743C16.3486 23.1743 18.2524 21.2684 18.2524 18.8393C18.2524 16.4177 16.3486 14.5139 13.9292 14.5139C11.5076 14.5139 9.59204 16.4177 9.59204 18.8393C9.59204 21.2684 11.5076 23.1743 13.9292 23.1743ZM13.9292 21.5126C12.4156 21.5126 11.2538 20.3508 11.2538 18.8393C11.2538 17.3278 12.4156 16.1735 13.9292 16.1735C15.4289 16.1735 16.5907 17.3278 16.5907 18.8393C16.5907 20.3508 15.4289 21.5126 13.9292 21.5126Z" fill="black"/>
</svg>
