<svg width="28" height="28" viewBox="0 0 28 28" fill="none" xmlns="http://www.w3.org/2000/svg">
<path d="M9.57164 20.1838H23.2137C23.7614 20.1838 24.2463 19.7582 24.2463 19.1488C24.2463 18.5416 23.7614 18.1202 23.2137 18.1202H9.83203C9.26109 18.1202 8.90999 17.7147 8.82139 17.1053L6.94381 4.22687C6.80975 3.21906 6.39937 2.70929 5.1007 2.70929H1.08233C0.499683 2.70929 0 3.21437 0 3.80335C0 4.39983 0.499683 4.90701 1.08233 4.90701H4.77539L6.59133 17.3439C6.85008 19.1008 7.78805 20.1838 9.57164 20.1838ZM7.52085 15.8917H23.3004C25.0894 15.8917 26.0316 14.8033 26.2882 13.0305L27.173 7.1371C27.1964 6.97843 27.2241 6.78249 27.2241 6.65171C27.2241 5.98375 26.7494 5.51477 25.9509 5.51477H6.47179L6.4814 7.59014H24.8206L24.0687 12.8195C23.9876 13.4406 23.6599 13.8259 23.0698 13.8259H7.50163L7.52085 15.8917ZM10.527 26.0415C11.6555 26.0415 12.5562 25.1483 12.5562 24.0102C12.5562 22.8859 11.6555 21.981 10.527 21.981C9.39305 21.981 8.48602 22.8859 8.48602 24.0102C8.48602 25.1483 9.39305 26.0415 10.527 26.0415ZM21.3638 26.0415C22.4998 26.0415 23.4026 25.1483 23.4026 24.0102C23.4026 22.8859 22.4998 21.981 21.3638 21.981C20.2395 21.981 19.3249 22.8859 19.3249 24.0102C19.3249 25.1483 20.2395 26.0415 21.3638 26.0415Z" fill="black"/>
</svg>
