<svg width="30" height="28" viewBox="0 0 30 28" fill="none" xmlns="http://www.w3.org/2000/svg">
<path d="M0 24.1413C0 26.0746 0.94734 27.0433 2.8828 27.0433H19.2386C21.1624 27.0433 22.1193 26.0746 22.1193 24.1413V3.91163C22.1193 1.97617 21.1624 1 19.2386 1H16.7941C14.8683 1 13.9113 1.97617 13.9113 3.91163V8.54288C13.6873 8.49273 13.429 8.45429 13.1473 8.45429H8.21506C7.92373 8.45429 7.66873 8.49273 7.43716 8.54288V7.21679C7.43716 5.28343 6.48982 4.30515 4.56397 4.30515H2.8828C0.94734 4.30515 0 5.28343 0 7.21679V24.1413ZM2.19772 23.8551V7.49334C2.19772 6.85045 2.53569 6.50287 3.20741 6.50287H4.23936C4.91108 6.50287 5.23944 6.85045 5.23944 7.49334V24.8456H3.20741C2.53569 24.8456 2.19772 24.4959 2.19772 23.8551ZM7.43716 24.8456V11.6425C7.43716 10.9996 7.77513 10.652 8.44685 10.652H12.9112C13.583 10.652 13.9113 10.9996 13.9113 11.6425V24.8456H7.43716ZM16.109 24.8456V4.18819C16.109 3.5453 16.447 3.19772 17.1187 3.19772H18.914C19.5933 3.19772 19.9216 3.5453 19.9216 4.18819V23.8551C19.9216 24.4959 19.5933 24.8456 18.914 24.8456H16.109ZM8.41287 12.8516C8.41287 13.2765 8.73443 13.6098 9.18068 13.6098H12.2177C12.6448 13.6098 12.9738 13.2765 12.9738 12.8516C12.9738 12.4321 12.6448 12.1009 12.2177 12.1009H9.18068C8.73232 12.1009 8.41287 12.4321 8.41287 12.8516ZM8.41287 22.6481C8.41287 23.0751 8.73232 23.4063 9.18068 23.4063H12.2177C12.6448 23.4063 12.9738 23.0751 12.9738 22.6481C12.9738 22.2285 12.6448 21.8952 12.2177 21.8952H9.18068C8.73443 21.8952 8.41287 22.2285 8.41287 22.6481ZM22.769 24.5137C22.9938 26.4257 24.0295 27.3252 25.9511 27.0812L27.3576 26.9109C29.2793 26.6669 30.0998 25.6312 29.8943 23.7191L27.9925 6.60249C27.7795 4.69046 26.7321 3.78132 24.8104 4.03492L23.4061 4.20531C21.4727 4.4589 20.6426 5.48288 20.8577 7.39702L22.769 24.5137ZM24.9211 23.9891L23.0777 7.44272C23.0041 6.80193 23.2973 6.44052 23.969 6.34771L24.7263 6.2549C25.398 6.16209 25.769 6.48412 25.8426 7.1174L27.686 23.6638C27.7596 24.3121 27.4643 24.666 26.8022 24.7588L26.0257 24.8613C25.3699 24.9541 24.9947 24.6417 24.9211 23.9891Z" fill="black"/>
</svg>
