<svg width="28" height="28" viewBox="0 0 28 28" fill="none" xmlns="http://www.w3.org/2000/svg">
<path d="M5.71327 19.4313C6.12202 18.9631 5.99007 18.3638 5.53656 17.8517C3.98944 16.1351 3.13374 13.8319 3.13374 11.3145C3.13374 9.25292 3.7103 7.3587 4.7589 5.79354L3.22328 4.25792C1.79359 6.20534 1 8.68784 1 11.3145C1 14.4024 2.08047 17.2739 4.03422 19.3727C4.56601 19.9472 5.29609 19.924 5.71327 19.4313ZM9.30061 16.0261C9.69671 15.562 9.54647 14.9862 9.15249 14.4528C8.49999 13.6362 8.15382 12.4847 8.15382 11.3145C8.15382 10.6896 8.27968 10.0873 8.49835 9.52338L6.84367 7.8687C6.29922 8.89245 6.02007 10.08 6.02007 11.3145C6.02007 13.0751 6.59547 14.7227 7.615 15.9525C8.09898 16.5464 8.88226 16.5284 9.30061 16.0261ZM13.806 24.8782C14.4285 24.8782 14.8147 24.4292 14.8147 23.7396V15.8494L12.7898 13.8244V23.7396C12.7898 24.4132 13.2016 24.8782 13.806 24.8782ZM20.7979 14.6576C21.3151 13.6894 21.5844 12.5323 21.5844 11.3145C21.5844 9.55596 21.0069 7.90831 19.9895 6.67854C19.5055 6.08253 18.7201 6.10269 18.3018 6.60495C17.9078 7.06901 18.0676 7.63315 18.4499 8.17619C19.0736 9.0237 19.4507 10.1463 19.4507 11.3145C19.4507 11.9004 19.3464 12.4861 19.1333 13.0048L20.7979 14.6576ZM24.4365 18.3059C25.8409 16.3533 26.6024 13.917 26.6024 11.3145C26.6024 8.23292 25.5008 5.33183 23.5682 3.25831C23.0364 2.68597 22.3063 2.70917 21.8891 3.19972C21.4804 3.67011 21.6144 4.2694 22.0658 4.78151C23.6108 6.49596 24.4708 8.79706 24.4708 11.3145C24.4708 13.3435 23.9179 15.2126 22.8859 16.7552L24.4365 18.3059Z" fill="black"/>
<path d="M23.9016 22.671C24.2679 23.0352 24.8632 23.031 25.2211 22.671C25.5778 22.2971 25.5832 21.7178 25.2211 21.3578L4.13646 0.275275C3.77013 -0.0910523 3.16732 -0.0910523 2.80521 0.271057C2.45482 0.621447 2.45693 1.2402 2.80521 1.59059L23.9016 22.671Z" fill="black"/>
</svg>
