<svg width="28" height="28" viewBox="0 0 28 28" fill="none" xmlns="http://www.w3.org/2000/svg">
<path d="M13.6792 21.3701C19.0162 21.3701 23.3467 17.0354 23.3467 11.6813C23.3467 6.33476 19.0162 2 13.6792 2C8.33054 2 4 6.33476 4 11.6813C4 17.0354 8.33054 21.3701 13.6792 21.3701ZM12.5962 25.0808H14.7697V20.2667H12.5962V25.0808ZM9.45953 26.1617H17.8947C18.4905 26.1617 18.9798 25.6765 18.9798 25.0808C18.9798 24.4871 18.4905 23.9902 17.8947 23.9902H9.46914C8.87336 23.9902 8.37648 24.4871 8.37648 25.0808C8.37648 25.6765 8.86375 26.1617 9.45953 26.1617Z" fill="black"/>
<path d="M13.6792 17.3783C10.5069 17.3783 7.98975 14.8611 7.98975 11.6792C7.98975 8.50698 10.5069 5.99402 13.6792 5.99402C16.8611 5.99402 19.3569 8.50698 19.3569 11.6792C19.3569 14.8611 16.8611 17.3783 13.6792 17.3783ZM13.6792 14.2072C15.0892 14.2072 16.1934 13.0892 16.1934 11.6792C16.1934 10.2714 15.0892 9.15549 13.6792 9.15549C12.2692 9.15549 11.1533 10.2714 11.1533 11.6792C11.1533 13.0892 12.2692 14.2072 13.6792 14.2072Z" fill="white"/>
</svg>
