<svg width="28" height="28" viewBox="0 0 28 28" fill="none" xmlns="http://www.w3.org/2000/svg">
<path d="M14.105 26.2301C20.7369 26.2301 26.2121 20.7549 26.2121 14.123C26.2121 7.50291 20.7273 2.01807 14.0954 2.01807C7.47523 2.01807 2 7.50291 2 14.123C2 20.7549 7.48484 26.2301 14.105 26.2301Z" fill="black"/>
<path d="M8.67492 20.397L7.66172 19.3859C7.09289 18.8171 7.14726 18.1623 7.78851 17.5934L14.167 12.0554L16.0418 13.913L10.4749 20.2895C9.9157 20.9253 9.24375 20.968 8.67492 20.397ZM19.4245 15.14L18.9907 14.7371C18.7458 14.5039 18.6926 14.3176 18.734 14.0438L18.8001 13.3859L18.3726 12.953L17.4768 13.1312C17.0615 13.2099 16.755 13.1441 16.4613 12.8429L15.1704 11.5595C14.82 11.2091 14.7283 10.8214 14.9339 10.2782L15.3541 9.1466C14.5289 8.66355 13.5206 8.72426 12.3991 9.05051C12.1397 9.15269 11.88 9.05379 11.7234 8.89746C11.5338 8.66004 11.4996 8.31832 11.801 8.00731C13.5272 6.27902 16.6776 6.45809 18.3633 8.13621L19.5473 9.31606C20.0161 9.76348 20.1684 10.2088 20.0629 10.6529L19.8731 11.4505L20.3081 11.8663L20.9618 11.8023C21.2494 11.781 21.3951 11.8119 21.6476 12.0685L22.0835 12.4927C22.3645 12.7855 22.3762 13.1377 22.1048 13.3953L20.3271 15.1655C20.0407 15.4348 19.7076 15.4114 19.4245 15.14Z" fill="white"/>
</svg>
