<svg width="28" height="28" viewBox="0 0 28 28" fill="none" xmlns="http://www.w3.org/2000/svg">
<path d="M14.105 26.21C20.7369 26.21 26.2121 20.7273 26.2121 14.105C26.2121 7.47312 20.7273 2 14.0954 2C7.47523 2 2 7.47312 2 14.105C2 20.7273 7.48484 26.21 14.105 26.21ZM14.105 23.8255C8.71085 23.8255 4.39412 19.4991 4.39412 14.105C4.39412 8.71085 8.70124 4.38452 14.0954 4.38452C19.4895 4.38452 23.8276 8.71085 23.8276 14.105C23.8276 19.4991 19.4991 23.8255 14.105 23.8255Z" fill="black"/>
<path d="M9.47698 19.9086C10.1393 19.9086 10.676 19.358 10.676 18.6999C10.676 18.0397 10.1372 17.5009 9.47698 17.5009C8.81675 17.5009 8.27792 18.0397 8.27792 18.6999C8.27792 19.358 8.81886 19.9086 9.47698 19.9086ZM7.50143 15.3019C8.17338 15.3019 8.7101 14.7631 8.7101 14.1029C8.7101 13.4427 8.17127 12.9038 7.50143 12.9038C6.85081 12.9038 6.30237 13.4427 6.30237 14.1029C6.30237 14.7631 6.85292 15.3019 7.50143 15.3019ZM9.45776 10.7049C10.1201 10.7049 10.6568 10.1565 10.6568 9.50588C10.6568 8.83604 10.1201 8.30682 9.45776 8.30682C8.79964 8.30682 8.2587 8.83604 8.2587 9.50588C8.2587 10.1565 8.79753 10.7049 9.45776 10.7049ZM14.0954 8.66353C14.746 8.66353 15.2944 8.11299 15.2944 7.46447C15.2944 6.79463 14.7439 6.2558 14.0954 6.2558C13.433 6.2558 12.8963 6.79463 12.8963 7.46447C12.8963 8.11299 13.4352 8.66353 14.0954 8.66353ZM20.6893 15.3019C21.3378 15.3019 21.8905 14.7631 21.8905 14.1029C21.8905 13.4427 21.3399 12.9038 20.6893 12.9038C20.0216 12.9038 19.4902 13.4427 19.4902 14.1029C19.4902 14.7631 20.0173 15.3019 20.6893 15.3019ZM18.7137 19.9086C19.3719 19.9086 19.9149 19.358 19.9149 18.6999C19.9149 18.0397 19.374 17.5009 18.7137 17.5009C18.0556 17.5009 17.5147 18.0397 17.5147 18.6999C17.5147 19.358 18.0514 19.9086 18.7137 19.9086ZM12.2469 15.9434C13.2362 16.9072 14.6087 16.6857 15.4044 15.5441L19.7227 9.4072C20.2016 8.7158 19.5109 8.03049 18.8152 8.50181L12.6324 12.7721C11.479 13.5561 11.2714 14.9403 12.2469 15.9434Z" fill="black"/>
</svg>
