<svg width="29" height="28" viewBox="0 0 29 28" fill="none" xmlns="http://www.w3.org/2000/svg">
<path d="M2.58773 19.4704H5.91726C6.01218 19.4704 6.09749 19.4992 6.17531 19.5695L11.3234 24.1773C11.9323 24.7213 12.4017 24.9747 13.0169 24.9747C13.8724 24.9747 14.5289 24.3395 14.5289 23.4744V5.57171C14.5289 4.70664 13.8724 4.01172 12.9977 4.01172C12.3909 4.01172 11.977 4.28008 11.3234 4.86883L6.17531 9.4361C6.09538 9.5043 6.01218 9.53524 5.91726 9.53524H2.58773C0.869528 9.53524 0 10.4366 0 12.2561V16.7612C0 18.5786 0.879137 19.4704 2.58773 19.4704ZM2.78366 17.4072C2.39647 17.4072 2.20991 17.2185 2.20991 16.8313V12.1839C2.20991 11.7892 2.39647 11.6005 2.78366 11.6005H6.44929C6.76663 11.6005 7.00733 11.5356 7.27686 11.2895L11.9695 7.01803C12.0239 6.96154 12.0825 6.9306 12.1624 6.9306C12.2466 6.9306 12.319 6.99131 12.319 7.09888V21.88C12.319 21.9876 12.2466 22.0621 12.1624 22.0621C12.1017 22.0621 12.0335 22.027 11.9695 21.9705L7.27686 17.7182C7.00733 17.4796 6.76663 17.4072 6.44929 17.4072H2.78366Z" fill="black"/>
<path d="M17.9968 14.4815C17.9968 15.1169 18.4555 15.5605 19.1059 15.5605H22.3192V18.7834C22.3192 19.4242 22.7704 19.8829 23.4079 19.8829C24.055 19.8829 24.5157 19.4338 24.5157 18.7834V15.5605H27.7386C28.3815 15.5605 28.8285 15.1169 28.8285 14.4815C28.8285 13.8344 28.3815 13.3736 27.7386 13.3736H24.5157V10.1603C24.5157 9.5078 24.055 9.05124 23.4079 9.05124C22.7704 9.05124 22.3192 9.5078 22.3192 10.1603V13.3736H19.1059C18.4555 13.3736 17.9968 13.8344 17.9968 14.4815Z" fill="black"/>
</svg>
