<svg width="28" height="28" viewBox="0 0 28 28" fill="none" xmlns="http://www.w3.org/2000/svg">
<path d="M6.84421 25.155H21.0295C23.5685 25.155 24.8737 23.8594 24.8737 21.3588V7.08702C24.8737 4.58648 23.5685 3.28125 21.0295 3.28125H6.84421C4.31484 3.28125 3 4.58648 3 7.08702V21.3588C3 23.8594 4.31484 25.155 6.84421 25.155ZM6.97733 22.8591C5.88772 22.8591 5.29592 22.297 5.29592 21.1563V7.28952C5.29592 6.14881 5.88772 5.57717 6.97733 5.57717H20.8964C21.9764 5.57717 22.5778 6.14881 22.5778 7.28952V21.1563C22.5778 22.297 21.9764 22.8591 20.8964 22.8591H6.97733Z" fill="black"/>
<path d="M11.0502 20.9764H16.8451C17.6809 20.9764 18.1782 20.5281 18.2176 19.6848L18.6118 10.7328H19.4659C19.7851 10.7328 20.0213 10.4836 20.031 10.1761C20.0406 9.86864 19.7851 9.62161 19.4659 9.62161H16.8022V8.76309C16.8022 7.77895 16.1333 7.16113 15.0568 7.16113H12.8289C11.7449 7.16113 11.0931 7.77895 11.0931 8.76309V9.62161H8.41019C8.1048 9.62161 7.84933 9.86864 7.84722 10.1761C7.843 10.4836 8.1048 10.7328 8.41019 10.7328H9.29519L9.69691 19.6848C9.72456 20.5281 10.2069 20.9764 11.0502 20.9764ZM11.9631 19.1907C11.7224 19.1907 11.537 19.0246 11.5349 18.7817L11.3035 12.1257C11.2993 11.8594 11.4676 11.689 11.7414 11.689C11.9821 11.689 12.1717 11.8552 12.1738 12.1118L12.3859 18.77C12.388 19.0128 12.2368 19.1907 11.9631 19.1907ZM13.9353 19.1811C13.6712 19.1811 13.4933 19.0149 13.4933 18.7721V12.1055C13.4933 11.8531 13.6616 11.689 13.9353 11.689C14.1974 11.689 14.3752 11.8531 14.3752 12.1055V18.7721C14.3752 19.0149 14.1974 19.1811 13.9353 19.1811ZM15.8959 19.1907C15.6338 19.1907 15.471 19.0128 15.4731 18.77L15.6852 12.1118C15.699 11.8552 15.8769 11.689 16.1272 11.689C16.4031 11.689 16.5596 11.8594 16.5575 12.1257L16.3262 18.7817C16.322 19.0246 16.1366 19.1907 15.8959 19.1907ZM12.3463 9.62161L12.3484 8.81442C12.3505 8.52027 12.5689 8.32527 12.8769 8.32527H14.9938C15.3038 8.32527 15.5181 8.52027 15.5202 8.81442L15.5244 9.62161H12.3463Z" fill="black"/>
</svg>
