<svg width="29" height="28" viewBox="0 0 29 28" fill="none" xmlns="http://www.w3.org/2000/svg">
<path d="M17.1572 26.2619H26.0529C27.4411 26.2619 28.2902 25.3328 28.2902 23.8316V9.28773C28.2902 7.78657 27.4411 6.85962 26.0529 6.85962H17.9925V9.13023H25.4107C25.8192 9.13023 26.0175 9.33812 26.0175 9.74663V23.3748C26.0175 23.7813 25.8192 23.9891 25.4107 23.9891H17.1572V26.2619ZM21.7183 13.5538H23.5713C23.7994 13.5538 23.9592 13.394 23.9592 13.1638V11.3652C23.9592 11.1351 23.7994 10.9752 23.5713 10.9752H21.7183C21.4807 10.9752 21.3401 11.1351 21.3401 11.3652V13.1638C21.3401 13.394 21.4807 13.5538 21.7183 13.5538ZM21.7183 17.8848H23.5713C23.7994 17.8848 23.9592 17.725 23.9592 17.4948V15.6941C23.9592 15.464 23.7994 15.3041 23.5713 15.3041H21.7183C21.4807 15.3041 21.3401 15.464 21.3401 15.6941V17.4948C21.3401 17.725 21.4807 17.8848 21.7183 17.8848ZM21.7183 22.2137H23.5713C23.7994 22.2137 23.9592 22.0539 23.9592 21.8237V20.0252C23.9592 19.795 23.7994 19.6352 23.5713 19.6352H21.7183C21.4807 19.6352 21.3401 19.795 21.3401 20.0252V21.8237C21.3401 22.0539 21.4807 22.2137 21.7183 22.2137Z" fill="black"/>
<path d="M0 23.8316C0 25.3328 0.849137 26.2619 2.24694 26.2619H17.0327C18.423 26.2619 19.2722 25.3328 19.2722 23.8316V3.44194C19.2722 1.94078 18.423 1.01172 17.0327 1.01172H2.24694C0.849137 1.01172 0 1.94078 0 3.44194V23.8316ZM2.27483 23.3748V3.90085C2.27483 3.48272 2.47311 3.28444 2.88913 3.28444H16.3905C16.7991 3.28444 16.9973 3.48272 16.9973 3.90085V23.3748C16.9973 23.7813 16.7991 23.9891 16.3905 23.9891H2.88913C2.47311 23.9891 2.27483 23.7813 2.27483 23.3748ZM5.4546 25.078H7.23233V21.1893C7.23233 20.9537 7.35912 20.8269 7.59467 20.8269H11.6796C11.9226 20.8269 12.0419 20.9537 12.0419 21.1893V25.078H13.8197V20.5891C13.8197 19.5939 13.3512 19.0977 12.4029 19.0977H6.8714C5.92312 19.0977 5.4546 19.5939 5.4546 20.5891V25.078ZM5.79819 8.34858H8.03694C8.31186 8.34858 8.50686 8.1653 8.50686 7.87866V5.70389C8.50686 5.42475 8.31186 5.23186 8.03694 5.23186H5.79819C5.52327 5.23186 5.34959 5.42475 5.34959 5.70389V7.87866C5.34959 8.1653 5.52327 8.34858 5.79819 8.34858ZM11.2373 8.34858H13.4665C13.7414 8.34858 13.9343 8.1653 13.9343 7.87866V5.70389C13.9343 5.42475 13.7414 5.23186 13.4665 5.23186H11.2373C10.9528 5.23186 10.777 5.42475 10.777 5.70389V7.87866C10.777 8.1653 10.9528 8.34858 11.2373 8.34858ZM5.79819 12.8437H8.03694C8.31186 12.8437 8.50686 12.6604 8.50686 12.3737V10.1969C8.50686 9.91983 8.31186 9.72694 8.03694 9.72694H5.79819C5.52327 9.72694 5.34959 9.91983 5.34959 10.1969V12.3737C5.34959 12.6604 5.52327 12.8437 5.79819 12.8437ZM11.2373 12.8437H13.4665C13.7414 12.8437 13.9343 12.6604 13.9343 12.3737V10.1969C13.9343 9.91983 13.7414 9.72694 13.4665 9.72694H11.2373C10.9528 9.72694 10.777 9.91983 10.777 10.1969V12.3737C10.777 12.6604 10.9528 12.8437 11.2373 12.8437ZM5.79819 17.3387H8.03694C8.31186 17.3387 8.50686 17.1437 8.50686 16.8667V14.6919C8.50686 14.4053 8.31186 14.2199 8.03694 14.2199H5.79819C5.52327 14.2199 5.34959 14.4053 5.34959 14.6919V16.8667C5.34959 17.1437 5.52327 17.3387 5.79819 17.3387ZM11.2373 17.3387H13.4665C13.7414 17.3387 13.9343 17.1437 13.9343 16.8667V14.6919C13.9343 14.4053 13.7414 14.2199 13.4665 14.2199H11.2373C10.9528 14.2199 10.777 14.4053 10.777 14.6919V16.8667C10.777 17.1437 10.9528 17.3387 11.2373 17.3387Z" fill="black"/>
</svg>
