<svg width="28" height="29" viewBox="0 0 28 29" fill="none" xmlns="http://www.w3.org/2000/svg">
<path d="M6.08093 2.20019H21.4412C22.0369 2.20019 22.5221 1.70332 22.5221 1.10754C22.5221 0.513874 22.0369 0.0266113 21.4412 0.0266113H6.08093C5.48726 0.0266113 5 0.513874 5 1.10754C5 1.70332 5.48726 2.20019 6.08093 2.20019ZM13.7659 16.255C18.5626 16.255 22.0559 14.953 22.0559 13.1535C22.0559 11.3657 18.5433 10.0733 13.7659 10.0733C8.98835 10.0733 5.46617 11.3657 5.46617 13.1535C5.46617 14.953 8.98835 16.255 13.7659 16.255ZM13.4033 21.7993H14.1209C18.1112 21.7993 21.1166 19.5257 21.8511 15.6927C20.2215 16.8653 17.3443 17.5288 13.7659 17.5288C10.2012 17.5288 7.30484 16.8653 5.68273 15.6873C6.40226 19.5257 9.41515 21.7993 13.4033 21.7993ZM13.7659 28.8243C15.7719 28.8243 18.3706 28.3044 19.5324 27.1363C19.8561 26.8063 19.8889 26.3636 19.7473 25.8974L18.6179 22.1539C17.2709 22.7966 15.7229 23.136 14.1327 23.136H13.3606C11.7896 23.136 10.2512 22.8062 8.90422 22.1732L7.77688 25.8974C7.63321 26.3636 7.67563 26.8063 7.98969 27.1363C9.1632 28.3044 11.7502 28.8243 13.7659 28.8243ZM20.7174 9.91699L21.1597 3.53261H6.36242L6.81641 9.91699C8.52383 9.15809 10.9489 8.73668 13.7659 8.73668C16.5828 8.73668 19.0079 9.15809 20.7174 9.91699Z" fill="black"/>
</svg>
