<svg width="28" height="28" viewBox="0 0 28 28" fill="none" xmlns="http://www.w3.org/2000/svg">
<path d="M9.04937 24.8313H18.9444C20.2124 24.8313 20.9938 24.1001 20.9938 22.7681V22.5443C20.9938 19.6547 17.9676 16.6378 16.4282 15.108C15.6836 14.3613 15.6334 13.4925 16.4282 12.6977C17.9676 11.1776 20.9938 8.17452 20.9938 5.26148V5.0707C20.9938 3.74086 20.2124 3 18.9444 3H9.04937C7.7793 3 7 3.74086 7 5.0707V5.26148C7 8.17452 10.0359 11.1776 11.5635 12.6977C12.3198 13.4444 12.37 14.3133 11.5635 15.108C10.0359 16.6378 7 19.6547 7 22.5443V22.7681C7 24.1001 7.7793 24.8313 9.04937 24.8313Z" fill="black"/>
<path d="M10.0382 23.0035C9.5048 23.0035 9.36019 22.3817 9.72324 22.0358L13.3722 18.5183C13.7756 18.1396 14.2354 18.1471 14.6196 18.5183L18.2706 22.0358C18.6337 22.3817 18.4891 23.0035 17.9556 23.0035H10.0382Z" fill="white"/>
</svg>
