<svg width="28" height="28" viewBox="0 0 28 28" fill="none" xmlns="http://www.w3.org/2000/svg">
<path d="M3.14421 9.83303C3.89608 9.83303 4.29592 9.41186 4.29592 8.66749V6.01999C4.29592 4.88139 4.88772 4.31936 5.97733 4.31936H8.6846C9.44069 4.31936 9.85014 3.9078 9.85014 3.16554C9.85014 2.42328 9.44069 2.02344 8.6846 2.02344H5.84421C3.31484 2.02344 2 3.31695 2 5.8196V8.66749C2 9.41397 2.41156 9.83303 3.14421 9.83303ZM24.0657 9.83303C24.8176 9.83303 25.2174 9.41397 25.2174 8.66749V5.8196C25.2174 3.31695 23.9047 2.02344 21.3732 2.02344H18.5232C17.7788 2.02344 17.3673 2.42328 17.3673 3.16554C17.3673 3.9078 17.7809 4.31936 18.5232 4.31936H21.2305C22.3105 4.31936 22.9215 4.88139 22.9215 6.01999V8.66749C22.9215 9.41397 23.333 9.83303 24.0657 9.83303ZM5.84421 25.2312H8.6846C9.44069 25.2312 9.85014 24.8197 9.85014 24.087C9.85014 23.3448 9.43647 22.9353 8.6846 22.9353H5.97733C4.88772 22.9353 4.29592 22.3733 4.29592 21.2326V18.5851C4.29592 17.8311 3.88647 17.4195 3.14421 17.4195C2.39984 17.4195 2 17.8311 2 18.5851V21.4255C2 23.9356 3.31484 25.2312 5.84421 25.2312ZM18.5232 25.2312H21.3732C23.9047 25.2312 25.2174 23.926 25.2174 21.4255V18.5851C25.2174 17.8311 24.808 17.4195 24.0657 17.4195C23.3234 17.4195 22.9215 17.8332 22.9215 18.5851V21.2326C22.9215 22.3733 22.3105 22.9353 21.2305 22.9353H18.5232C17.7788 22.9353 17.3673 23.3448 17.3673 24.087C17.3673 24.8197 17.7788 25.2312 18.5232 25.2312Z" fill="black"/>
<path d="M13.6174 6.61426C11.4599 6.61426 9.74146 8.34231 9.74146 10.4763C9.74146 12.0874 10.6867 13.4885 12.1488 14.0808V19.8689C12.1584 20.0381 12.2254 20.1827 12.3553 20.3083L13.3673 21.3089C13.5173 21.4472 13.7256 21.4589 13.8799 21.3026L15.7607 19.4313C15.933 19.2686 15.9245 19.0326 15.7586 18.8817L14.6667 17.7813L16.203 16.2642C16.3518 16.1229 16.3443 15.8826 16.1838 15.7104L14.692 14.209C16.4817 13.4568 17.4761 12.1036 17.4761 10.4763C17.4761 8.35192 15.746 6.61426 13.6174 6.61426ZM13.6078 8.50075C14.2513 8.50075 14.7745 9.02926 14.7745 9.67708C14.7745 10.3378 14.2513 10.8705 13.6078 10.8705C12.9663 10.8705 12.4239 10.3378 12.4239 9.67708C12.4239 9.02926 12.9567 8.50075 13.6078 8.50075Z" fill="black"/>
</svg>
