<svg width="28" height="29" viewBox="0 0 28 29" fill="none" xmlns="http://www.w3.org/2000/svg">
<path d="M16.0169 15.5686L25.208 6.37548C26.4089 5.18415 25.8445 3.46267 24.3087 2.98268C21.9455 2.21978 19.3868 2.00041 16.485 2.16025L16.1449 1.80096C14.7968 0.395172 12.814 0.346188 11.3902 1.74869C9.98554 3.18634 10.0324 5.22657 11.4445 6.52149L11.8017 6.85735C11.6419 9.75798 11.8612 12.2869 12.6007 14.6533C13.0966 16.2337 14.8392 16.7538 16.0169 15.5686ZM14.7745 14.1668C14.606 14.3353 14.4504 14.3182 14.3032 13.8424C13.6692 11.8191 13.4955 9.52431 13.6969 6.73407C13.7203 6.31361 13.5436 5.90064 13.2232 5.61541L12.7034 5.14244C12.0787 4.56681 12.0478 3.75353 12.7139 3.06071C13.4088 2.39673 14.2041 2.41595 14.7935 3.06189L15.2665 3.58173C15.5634 3.90634 16.0062 4.08517 16.448 4.04368C19.1733 3.84259 21.4755 4.04368 23.4968 4.68517C23.9459 4.83235 23.9672 4.97837 23.8158 5.12978L14.7745 14.1668ZM20.0501 14.4588C22.2738 14.4588 24.1235 12.6293 24.1235 10.4109C24.1235 9.33025 23.6871 8.28048 22.8675 7.48502L21.9171 9.3239C22.1334 9.64993 22.2443 10.024 22.2443 10.4151C22.2443 11.613 21.2405 12.5913 20.0543 12.5913C19.6589 12.5913 19.2731 12.4805 18.9492 12.278L17.2795 13.372C18.0525 14.1054 19.0427 14.4588 20.0501 14.4588ZM11.5387 3.31149L12.904 1.86212L11.4005 0.370327C11.0067 -0.0234219 10.398 -0.0213126 10.0022 0.370327C9.61804 0.754466 9.60843 1.36314 10.0022 1.759L11.5387 3.31149ZM5.36038 16.7266L12.9429 9.75657L12.367 7.42619L3.92484 15.1868L5.36038 16.7266ZM4.96734 17.6058C6.06491 17.6058 6.93468 16.7456 6.93468 15.6384C6.93468 14.543 6.0628 13.6711 4.96734 13.6711C3.86015 13.6711 3 14.5409 3 15.6384C3 16.7456 3.86015 17.6058 4.96734 17.6058ZM9.78632 21.8355L11.2826 20.3372L5.23476 14.3203L3.74602 15.8112L9.78632 21.8355ZM10.1442 23.0585C11.2514 23.0585 12.1116 22.2389 12.1116 21.0912C12.1116 19.9957 11.2301 19.1238 10.1442 19.1238C9.03703 19.1238 8.17687 19.9936 8.17687 21.0912C8.17687 22.2005 9.03703 23.0585 10.1442 23.0585ZM9.07898 26.8931H11.1977V21.0558H9.07898V26.8931ZM4.38351 28.5665H17.2193C17.733 28.5665 18.0555 28.1742 18.0555 27.6391C18.0555 26.6885 17.2242 26.0294 16.009 26.0294H5.59594C4.37859 26.0294 3.54938 26.6885 3.54938 27.6391C3.54938 28.1742 3.86977 28.5665 4.38351 28.5665Z" fill="black"/>
</svg>
