<svg width="28" height="28" viewBox="0 0 28 28" fill="none" xmlns="http://www.w3.org/2000/svg">
<path d="M13.2966 26.9548C15.3594 26.9548 16.8694 25.4722 17.0314 23.7683H9.56398C9.71211 25.4722 11.2264 26.9548 13.2966 26.9548ZM3.93617 22.1291H17.9858L5.73148 9.86726C5.50109 10.8645 5.38062 11.96 5.34875 13.1846C5.19383 14.7137 5.01148 16.3925 4.19375 17.1906C3.14258 18.2061 2 19.2692 2 20.5023C2 21.4801 2.74179 22.1291 3.93617 22.1291ZM13.2966 2.00211C11.5623 2.00211 10.2941 3.18594 9.81289 4.73375C9.20656 4.94258 8.67382 5.23133 8.2189 5.59789L24.1726 21.5708C24.4456 21.308 24.5858 20.9391 24.5858 20.5023C24.5858 19.2692 23.4528 18.2061 22.4016 17.1906C21.5818 16.3925 21.3856 14.7137 21.2466 13.1846C21.0727 8.87024 19.8237 5.83133 16.7825 4.73375C16.3013 3.18594 15.0235 2.00211 13.2966 2.00211Z" fill="black"/>
<path d="M2.37803 4.49282L23.6665 25.7462C24.0308 26.12 24.624 26.12 24.9861 25.7462C25.3365 25.3819 25.3503 24.8005 24.9861 24.4266L3.71139 3.17329C3.34716 2.81118 2.75186 2.81118 2.37803 3.17329C2.02764 3.52579 2.02764 4.14243 2.37803 4.49282Z" fill="black"/>
</svg>
