<svg width="31" height="28" viewBox="0 0 31 28" fill="none" xmlns="http://www.w3.org/2000/svg">
<path d="M23.1077 15.3144C26.6707 16.1262 28.9073 17.4685 28.9073 18.822C28.9073 21.046 22.9701 23.1343 15.499 23.1343C8.02569 23.1343 2.0885 21.046 2.0885 18.822C2.0885 17.4781 4.26655 16.1572 7.76131 15.3282L6.73569 13.411C2.51976 14.5006 0 16.4356 0 18.822C0 22.6262 6.42093 25.2228 15.499 25.2228C24.5866 25.2228 30.9958 22.6262 30.9958 18.822C30.9958 16.3749 28.3249 14.3888 23.9196 13.3184L23.1077 15.3144ZM24.2151 7.00859V9.49155C24.2151 14.5203 21.0441 17.9361 16.0549 17.9361H14.9313C9.93046 17.9361 6.78069 14.5416 6.78069 9.49155V7.00859H4.61765V9.49155C4.61765 15.7173 8.74312 20.0991 14.9313 20.0991H16.0549C22.2452 20.0991 26.3782 15.7076 26.3782 9.49155V7.00859H24.2151ZM15.499 12.0076C21.9897 12.0076 26.3782 9.99569 26.3782 7.00859C26.3782 4.01187 22.0015 2 15.499 2C8.99437 2 4.61765 4.01187 4.61765 7.00859C4.61765 9.99569 9.0082 12.0076 15.499 12.0076ZM15.499 9.84453C10.522 9.84453 6.78069 8.58828 6.78069 7.00859C6.78069 5.42679 10.5199 4.16304 15.499 4.16304C20.478 4.16304 24.2151 5.42679 24.2151 7.00859C24.2151 8.58828 20.4738 9.84453 15.499 9.84453ZM24.9602 14.63H26.0076C28.7683 14.63 30.4298 13.1719 30.4298 10.7532C30.4298 8.36 28.7566 6.89023 26.0076 6.89023H25.1044V9.00897H26.0076C27.4657 9.00897 28.3111 9.65936 28.3111 10.7532C28.3111 11.8491 27.4636 12.5112 26.0076 12.5112H24.9602V14.63Z" fill="black"/>
</svg>
