<svg width="37" height="28" viewBox="0 0 37 28" fill="none" xmlns="http://www.w3.org/2000/svg">
<path d="M0 12.9501C0 16.8016 2.82234 19.4974 7.05374 19.5417L7.95256 19.5564V17.3913L6.86624 17.3765C4.06288 17.3554 2.16514 15.5076 2.16514 12.9501C2.16514 11.7211 2.82491 10.9601 4.00077 10.9601H7.44678V8.79492H4.00077C1.49273 8.79492 0 10.3793 0 12.9501ZM36.5857 12.9501C36.5857 10.3793 35.1004 8.79492 32.5849 8.79492H29.1389V10.9601H32.5849C33.7587 10.9601 34.4205 11.7211 34.4205 12.9501C34.4205 15.5076 32.5228 17.3554 29.7173 17.3765L28.631 17.3913V19.5564L29.5415 19.5417C33.7633 19.4974 36.5857 16.8016 36.5857 12.9501Z" fill="black"/>
<path d="M18.2998 23.4891C25.462 23.4891 30.5191 20.6872 30.5191 16.5816V10.7222C30.5191 7.07585 26.1138 5 18.2998 5C10.4761 5 6.0708 7.07585 6.0708 10.7222V16.5816C6.0708 20.6872 11.1279 23.4891 18.2998 23.4891Z" fill="black"/>
<path d="M11.8069 11.6502C11.8069 11.0743 12.2826 10.5911 12.866 10.5911H23.7356C24.3307 10.5911 24.8044 11.0743 24.8044 11.6502C24.8044 12.2378 24.3328 12.719 23.7356 12.719H12.866C12.2784 12.719 11.8069 12.2378 11.8069 11.6502ZM11.8069 16.3382C11.8069 15.7506 12.2784 15.2695 12.866 15.2695H23.7356C24.3328 15.2695 24.8044 15.7506 24.8044 16.3382C24.8044 16.9216 24.3307 17.3973 23.7356 17.3973H12.866C12.2826 17.3973 11.8069 16.9216 11.8069 16.3382Z" fill="white"/>
</svg>
