<svg width="28" height="28" viewBox="0 0 28 28" fill="none" xmlns="http://www.w3.org/2000/svg">
<path d="M14.105 26.21C20.7369 26.21 26.2121 20.7273 26.2121 14.105C26.2121 7.47312 20.7273 2 14.0954 2C7.47523 2 2 7.47312 2 14.105C2 20.7273 7.48484 26.21 14.105 26.21ZM14.105 23.8255C8.71085 23.8255 4.39412 19.4991 4.39412 14.105C4.39412 8.71085 8.70124 4.38452 14.0954 4.38452C19.4895 4.38452 23.8276 8.71085 23.8276 14.105C23.8276 19.4991 19.4991 23.8255 14.105 23.8255Z" fill="black"/>
<path d="M6.37134 12.9392C6.37134 14.8517 7.72345 16.2038 9.62423 16.2038H9.98259C9.90384 15.8684 9.87079 15.2942 9.92189 14.9044H9.70626C8.54141 14.9044 7.74102 14.1179 7.74102 12.9392C7.74102 11.7723 8.54141 10.9601 9.70626 10.9601H14.3223C15.485 10.9601 16.2833 11.7723 16.2833 12.9392C16.2833 14.1179 15.4967 14.9044 14.3223 14.9044H12.6298C12.4904 15.256 12.5436 15.8682 12.9078 16.2038H14.3884C16.287 16.2038 17.6412 14.8517 17.6412 12.9392C17.6412 11.0288 16.2849 9.66077 14.3884 9.66077H9.62423C7.72556 9.66077 6.37134 11.0288 6.37134 12.9392ZM10.5495 15.3645C10.5495 17.2749 11.908 18.643 13.8141 18.643H18.5666C20.4673 18.643 21.8312 17.2749 21.8312 15.3645C21.8312 13.452 20.4791 12.0999 18.5666 12.0999H18.2082C18.271 12.4355 18.3434 12.8211 18.271 13.3993H18.4962C19.6611 13.3993 20.4615 14.1955 20.4615 15.3645C20.4615 16.5315 19.6611 17.3436 18.4962 17.3436H13.8706C12.7079 17.3436 11.9075 16.5315 11.9075 15.3645C11.9075 14.1955 12.7058 13.3993 13.8706 13.3993H15.5492C15.7121 13.0552 15.661 12.4142 15.2851 12.0999H13.8141C11.9059 12.0999 10.5495 13.452 10.5495 15.3645Z" fill="black"/>
</svg>
