<svg width="28" height="28" viewBox="0 0 28 28" fill="none" xmlns="http://www.w3.org/2000/svg">
<path d="M16.7568 12.2162L6.1532 22.8081C5.76413 23.2047 5.27569 23.3188 4.91733 22.9295C4.5217 22.4966 4.6028 22.0914 5.0303 21.6543L15.6008 11.0411L14.3863 9.8509L5.08632 19.1551C1.3239 22.9197 2.85274 22.7854 1 25.3602L2.19179 26.619C4.68977 24.7654 4.77787 26.4594 8.57357 22.6797L17.9172 13.3968L16.7568 12.2162ZM19.8264 14.5968L20.1862 14.2082C20.8215 13.5557 20.8483 12.7787 20.1702 12.1061L19.8397 11.7831C21.7002 10.1439 23.7156 9.97816 25.0157 8.65465C26.8272 6.82723 26.3532 4.19755 24.9709 2.8131C23.6045 1.41694 20.9856 0.967639 19.1273 2.7599C17.7899 4.05458 17.6359 6.07537 15.9946 7.93583L15.678 7.60536C15.0255 6.93903 14.2326 6.95614 13.5716 7.59364L13.1905 7.94919C12.4134 8.69333 12.5329 9.37442 13.2182 10.0672L17.7168 14.5595C18.4117 15.2502 19.0919 15.3601 19.8264 14.5968Z" fill="black"/>
</svg>
