<svg width="28" height="28" viewBox="0 0 28 28" fill="none" xmlns="http://www.w3.org/2000/svg">
<path d="M3 21.0914C3 23.6016 4.31484 24.8972 6.84421 24.8972H21.4624C23.9939 24.8972 25.3087 23.5919 25.3087 21.0914V6.82921C25.3087 4.32656 23.9939 3.02344 21.4624 3.02344H6.84421C4.31484 3.02344 3 4.31695 3 6.82921V21.0914ZM5.29592 20.8985V7.01999C5.29592 5.88139 5.88772 5.31936 6.97733 5.31936H8.00835V6.83717C8.00835 7.2778 8.3489 7.62584 8.78741 7.62584C9.23014 7.62584 9.57608 7.27991 9.57608 6.83717V5.31936H11.5856V6.83717C11.5856 7.2778 11.9262 7.62584 12.3743 7.62584C12.817 7.62584 13.1533 7.27991 13.1533 6.83717V5.31936H15.1746V6.83717C15.1746 7.2778 15.513 7.62584 15.9516 7.62584C16.4039 7.62584 16.7402 7.27991 16.7402 6.83717V5.31936H18.7519V6.83717C18.7519 7.27991 19.0882 7.62584 19.5384 7.62584C19.979 7.62584 20.3175 7.2778 20.3175 6.83717V5.31936H21.3197C22.4018 5.31936 23.0128 5.88139 23.0128 7.01999V20.8985C23.0128 22.0371 22.4018 22.6013 21.3197 22.6013H20.3175V21.0813C20.3175 20.6332 19.979 20.2927 19.5384 20.2927C19.0882 20.2927 18.7519 20.629 18.7519 21.0813V22.6013H16.7402V21.0813C16.7402 20.629 16.4039 20.2927 15.9516 20.2927C15.513 20.2927 15.1746 20.6332 15.1746 21.0813V22.6013H13.1533V21.0813C13.1533 20.629 12.817 20.2927 12.3743 20.2927C11.9262 20.2927 11.5856 20.6332 11.5856 21.0813V22.6013H9.57608V21.0813C9.57608 20.629 9.23014 20.2927 8.78741 20.2927C8.3489 20.2927 8.00835 20.6332 8.00835 21.0813V22.6013H6.97733C5.88772 22.6013 5.29592 22.0371 5.29592 20.8985ZM8.46772 17.2943C8.46772 17.9386 8.90319 18.3623 9.56131 18.3623H18.7453C19.4055 18.3623 19.8389 17.9386 19.8389 17.2943V10.6263C19.8389 9.98202 19.4055 9.55827 18.7453 9.55827H9.56131C8.90319 9.55827 8.46772 9.98202 8.46772 10.6263V17.2943Z" fill="black"/>
</svg>
