<svg width="28" height="28" viewBox="0 0 28 28" fill="none" xmlns="http://www.w3.org/2000/svg">
<path d="M2.57929 24.9163H25.1738C26.7429 24.9163 27.7552 23.904 27.7552 22.3658V5.57592C27.7552 4.04311 26.7429 3.03296 25.1738 3.03296H2.57929C1.02187 3.03296 0 4.04311 0 5.57592V22.3658C0 23.904 1.02187 24.9163 2.57929 24.9163ZM2.59944 22.7596C2.24343 22.7596 2.00366 22.5123 2.00366 22.1734V20.9568C2.00366 20.6392 2.23382 20.4111 2.56101 20.4111H3.96304C4.29023 20.4111 4.51078 20.6392 4.51078 20.9568V22.2022C4.51078 22.5219 4.29023 22.7596 3.96304 22.7596H2.59944ZM2.56101 18.925C2.23382 18.925 2.00366 18.6756 2.00366 18.3751V17.151C2.00366 16.8121 2.22421 16.5915 2.56101 16.5915H3.96304C4.29023 16.5915 4.51078 16.8121 4.51078 17.151V18.3751C4.51078 18.6756 4.29023 18.925 3.96304 18.925H2.56101ZM2.56101 15.1323C2.23382 15.1323 2.00366 14.8926 2.00366 14.5942V13.3679C2.00366 13.0311 2.22421 12.8106 2.56101 12.8106H3.96304C4.29023 12.8106 4.51078 13.0311 4.51078 13.3679V14.5942C4.51078 14.8926 4.29023 15.1323 3.96304 15.1323H2.56101ZM2.56101 11.3706C2.23382 11.3706 2.00366 11.1212 2.00366 10.8325V9.59662C2.00366 9.26732 2.22421 9.03717 2.56101 9.03717H3.96304C4.29023 9.03717 4.51078 9.26732 4.51078 9.59662V10.8325C4.51078 11.1212 4.29023 11.3706 3.96304 11.3706H2.56101ZM2.56101 7.53178C2.23382 7.53178 2.00366 7.29412 2.00366 6.99576V5.77912C2.00366 5.42099 2.24343 5.18334 2.59944 5.18334H3.96304C4.29023 5.18334 4.51078 5.41138 4.51078 5.74068V6.99576C4.51078 7.29412 4.29023 7.53178 3.96304 7.53178H2.56101ZM6.91124 22.7596C6.5428 22.7596 6.30866 22.5254 6.30866 22.157V15.6561C6.30866 15.2973 6.5428 15.0632 6.91124 15.0632H20.8303C21.187 15.0632 21.4233 15.2973 21.4233 15.6561V22.157C21.4233 22.5254 21.187 22.7596 20.8303 22.7596H6.91124ZM6.91124 12.899C6.5428 12.899 6.30866 12.6744 6.30866 12.306V5.76669C6.30866 5.39826 6.5428 5.18334 6.91124 5.18334H20.8303C21.187 5.18334 21.4233 5.39826 21.4233 5.76669V12.306C21.4233 12.6744 21.187 12.899 20.8303 12.899H6.91124ZM23.7668 22.7596C23.4396 22.7596 23.2191 22.5219 23.2191 22.2022V20.9568C23.2191 20.6392 23.4396 20.4111 23.7668 20.4111H25.1688C25.5077 20.4111 25.7283 20.6392 25.7283 20.9568V22.1734C25.7283 22.5123 25.4981 22.7596 25.1304 22.7596H23.7668ZM23.7668 18.925C23.4396 18.925 23.2191 18.6756 23.2191 18.3751V17.151C23.2191 16.8121 23.4396 16.5915 23.7668 16.5915H25.1688C25.5077 16.5915 25.7283 16.8121 25.7283 17.151V18.3751C25.7283 18.6756 25.5077 18.925 25.1688 18.925H23.7668ZM23.7668 15.1323C23.4396 15.1323 23.2191 14.8926 23.2191 14.5942V13.3679C23.2191 13.0311 23.4396 12.8106 23.7668 12.8106H25.1688C25.5077 12.8106 25.7283 13.0311 25.7283 13.3679V14.5942C25.7283 14.8926 25.5077 15.1323 25.1688 15.1323H23.7668ZM23.7668 11.3706C23.4396 11.3706 23.2191 11.1212 23.2191 10.8325V9.59662C23.2191 9.26732 23.4396 9.03717 23.7668 9.03717H25.1688C25.5077 9.03717 25.7283 9.26732 25.7283 9.59662V10.8325C25.7283 11.1212 25.5077 11.3706 25.1688 11.3706H23.7668ZM23.7668 7.53178C23.4396 7.53178 23.2191 7.29412 23.2191 6.99576V5.74068C23.2191 5.41138 23.4396 5.18334 23.7668 5.18334H25.1304C25.4981 5.18334 25.7283 5.42099 25.7283 5.77912V6.99576C25.7283 7.29412 25.5077 7.53178 25.1688 7.53178H23.7668Z" fill="black"/>
</svg>
