<svg width="28" height="28" viewBox="0 0 28 28" fill="none" xmlns="http://www.w3.org/2000/svg">
<path d="M14.105 26.2301C20.7369 26.2301 26.2121 20.7549 26.2121 14.123C26.2121 7.50291 20.7273 2.01807 14.0954 2.01807C7.47523 2.01807 2 7.50291 2 14.123C2 20.7549 7.48484 26.2301 14.105 26.2301Z" fill="black"/>
<path d="M11.1829 20.979C10.3248 20.979 9.83614 20.5126 9.79887 19.6662L9.44192 11.5711L11.4831 13.6081L11.6675 18.7452C11.6697 18.9901 11.8497 19.1605 12.1021 19.1605C12.3684 19.1605 12.5334 18.988 12.5217 18.743L12.3799 14.5187L13.6492 15.7784V18.7452C13.6492 18.9901 13.8196 19.1605 14.088 19.1605C14.3542 19.1605 14.5417 18.9901 14.5417 18.7452V16.6805L15.6831 17.8198L15.6543 18.743C15.6543 18.988 15.8055 19.1605 16.0813 19.1605C16.2531 19.1605 16.4036 19.0623 16.4367 18.8968L16.4697 18.6064L18.1917 20.3284L18.1481 20.4212C17.9704 20.7645 17.5495 20.979 17.039 20.979H11.1829ZM19.2285 20.0288L8.30426 9.10879C8.06801 8.87465 8.06801 8.49473 8.30426 8.26809C8.5309 8.03184 8.91293 8.03184 9.14918 8.26809L20.0575 19.1785C20.3034 19.4148 20.3034 19.7926 20.0575 20.0192C19.8351 20.2651 19.4723 20.263 19.2285 20.0288ZM18.5699 16.3407L16.6586 14.4198L16.7418 12.0132C16.7514 11.7502 16.5853 11.5798 16.3148 11.5798C16.0528 11.5798 15.8706 11.7481 15.8685 12.009L15.8088 13.5795L14.5417 12.3188V11.8887C14.5417 11.6321 14.3638 11.4659 14.088 11.4659C14.0282 11.4659 13.9738 11.4851 13.9333 11.5236V11.7061L11.0345 8.8095H11.2267C11.2309 8.68903 11.2351 8.58028 11.2457 8.4577C11.3005 7.55583 11.9556 6.98535 12.9731 6.98535H15.22C16.323 6.98535 16.9928 7.62121 16.9928 8.61801V9.48286H19.6818C20.0074 9.48286 20.2767 9.7245 20.267 10.05C20.2574 10.3618 20.0074 10.6076 19.6818 10.6076H18.8214L18.5699 16.3407ZM12.482 9.48286H15.7035L15.7014 8.66934C15.6972 8.3752 15.4809 8.16637 15.1666 8.16637H13.019C12.7068 8.16637 12.4863 8.3752 12.4842 8.66934L12.482 9.48286Z" fill="white"/>
</svg>
