<svg width="28" height="28" viewBox="0 0 28 28" fill="none" xmlns="http://www.w3.org/2000/svg">
<path d="M13.9291 27.1622C18.5855 27.1622 21.854 24.0321 21.854 19.5942V7.56796C21.854 3.12046 18.5855 0 13.9291 0C9.28031 0 6 3.12046 6 7.56796V19.5942C6 24.0321 9.28031 27.1622 13.9291 27.1622Z" fill="black"/>
<path d="M13.9291 12.5337C11.4065 12.5337 9.4176 10.5523 9.4176 8.02963C9.4176 5.50916 11.4065 3.52026 13.9291 3.52026C16.4496 3.52026 18.4268 5.50916 18.4268 8.02963C18.4268 10.5523 16.4496 12.5337 13.9291 12.5337ZM13.9291 23.613C11.4065 23.613 9.4176 21.622 9.4176 19.1037C9.4176 16.5811 11.4065 14.5997 13.9291 14.5997C16.4496 14.5997 18.4268 16.5811 18.4268 19.1037C18.4268 21.622 16.4496 23.613 13.9291 23.613ZM13.9291 9.66205C14.8359 9.66205 15.536 8.95236 15.536 8.02963C15.536 7.11322 14.8359 6.40353 13.9291 6.40353C13.0202 6.40353 12.3084 7.11322 12.3084 8.02963C12.3084 8.95236 13.0202 9.66205 13.9291 9.66205ZM13.9291 21.8695C15.4821 21.8695 16.6875 20.6684 16.6875 19.1037C16.6875 17.5369 15.4821 16.3315 13.9291 16.3315C12.3623 16.3315 11.1569 17.5369 11.1569 19.1037C11.1569 20.6684 12.3623 21.8695 13.9291 21.8695Z" fill="white"/>
</svg>
