<svg width="28" height="28" viewBox="0 0 28 28" fill="none" xmlns="http://www.w3.org/2000/svg">
<path d="M14.306 0C11.7611 0 9.53178 1.05141 8.06717 2.71312L20.1394 14.7853C21.124 11.8573 22.2808 10.3036 22.2808 7.35585C22.2808 3.20953 18.7415 0 14.306 0ZM10.6359 21.6077H17.9665C18.4341 21.6077 18.6937 21.3635 18.787 20.9712C18.8083 20.7 18.851 20.4555 18.8819 20.242L6.38225 7.74327C6.37897 8.10772 6.39491 8.46046 6.44389 8.79937C6.9028 12.2123 9.05038 13.9326 9.67616 20.7159C9.72936 21.2644 10.0587 21.6077 10.6359 21.6077ZM10.5405 24.3246H18.0619C18.4865 24.3246 18.8187 23.984 18.8187 23.5699C18.8187 23.1612 18.4865 22.8227 18.0619 22.8227H10.5405C10.1179 22.8227 9.79334 23.1612 9.79334 23.5699C9.79334 23.984 10.1179 24.3246 10.5405 24.3246ZM14.306 27.8053C16.1508 27.8053 17.6573 26.9041 17.7691 25.5417H10.8206C10.9132 26.9041 12.442 27.8053 14.306 27.8053Z" fill="black"/>
<path d="M22.9612 22.2757C23.3351 22.6591 23.9208 22.6474 24.2808 22.2757C24.6387 21.9115 24.6429 21.3279 24.2808 20.9562L4.59046 1.26372C4.22414 0.887775 3.61922 0.911212 3.25922 1.26372C2.90672 1.61411 2.92054 2.24247 3.25922 2.58325L22.9612 22.2757Z" fill="black"/>
</svg>
