<svg width="28" height="28" viewBox="0 0 28 28" fill="none" xmlns="http://www.w3.org/2000/svg">
<path d="M14.105 26.2301C20.7369 26.2301 26.2121 20.7549 26.2121 14.123C26.2121 7.50288 20.7273 2.01804 14.0954 2.01804C7.47523 2.01804 2 7.50288 2 14.123C2 20.7549 7.48484 26.2301 14.105 26.2301Z" fill="black"/>
<path d="M11.3132 9.0889C11.5424 8.88523 11.8197 8.74015 12.1535 8.62179C12.4356 7.75882 13.1334 7.09906 14.0955 7.09906C15.0651 7.09906 15.7628 7.75882 16.0471 8.62179C17.7513 9.25062 18.4734 10.9536 18.5603 13.4021C18.6346 14.2407 18.7167 15.1815 19.1863 15.6451C19.7882 16.2099 20.4128 16.8013 20.4128 17.502C20.4128 17.6989 20.3383 17.8798 20.2286 18.0022L11.3132 9.0889ZM16.1144 18.3959H8.84804C8.18476 18.3959 7.77812 18.0277 7.77812 17.502C7.77812 16.8013 8.41985 16.2195 9.01212 15.6451C9.44149 15.1984 9.5554 14.3124 9.61493 13.5561C9.62876 13.0067 9.65968 12.4958 9.74711 12.0212L16.1144 18.3959ZM14.0955 21.2347C12.9356 21.2347 12.0942 20.4102 12.0163 19.4366H16.1821C16.1043 20.4102 15.2533 21.2347 14.0955 21.2347ZM19.5883 20.48L7.7289 8.62061C7.50437 8.39608 7.49476 8.00444 7.7289 7.7628C7.97265 7.51694 8.3664 7.51694 8.61226 7.7628L20.4599 19.618C20.6941 19.8638 20.6941 20.2341 20.4599 20.48C20.2258 20.7162 19.8246 20.7141 19.5883 20.48Z" fill="white"/>
</svg>
