<svg width="28" height="28" viewBox="0 0 28 28" fill="none" xmlns="http://www.w3.org/2000/svg">
<path d="M8.28601 27.8456H19.0047C19.5184 27.8456 19.8313 27.4512 19.8313 26.9182C19.8313 25.9676 19.0405 25.3064 17.883 25.3064H14.766V19.2152C19.5571 18.6705 23.2928 14.5837 23.2928 9.65225C23.2928 4.33359 18.9571 0 13.6405 0C8.32609 0 4 4.33359 4 9.65225C4 14.603 7.74531 18.6801 12.5439 19.2248V25.3064H9.40023C8.24265 25.3064 7.45187 25.9676 7.45187 26.9182C7.45187 27.4512 7.76265 27.8456 8.28601 27.8456Z" fill="black"/>
<path d="M10.6546 15.6274C8.97509 15.6274 7.26392 13.7236 7.26392 11.7752C7.26392 10.7166 7.87095 10.1468 8.96477 10.1468H11.0127C10.9818 9.97968 10.9722 9.76968 10.9743 9.58546C8.86821 8.85936 7.70595 8.10538 7.70595 6.68554C7.70595 5.01562 9.62689 3.29272 11.571 3.29272C12.6318 3.29272 13.2016 3.91147 13.2016 4.99358V6.9914C13.3858 6.95085 13.5958 6.95085 13.7842 6.95296C14.489 4.88741 15.2643 3.75608 16.6553 3.75608C18.3348 3.75608 20.0385 5.66952 20.0385 7.59444C20.0385 8.66061 19.4294 9.2346 18.3473 9.2346H16.3281C16.3419 9.43594 16.3515 9.6096 16.3398 9.80553C18.4363 10.5199 19.5965 11.276 19.5965 12.7033C19.5965 14.3754 17.6851 16.0865 15.741 16.0865C14.6802 16.0865 14.1083 15.4795 14.1083 14.3974V12.2855C13.9359 12.3302 13.7739 12.3302 13.5759 12.3185C12.8423 14.4513 12.0766 15.6274 10.6546 15.6274ZM13.6502 11.033C14.4044 11.033 14.9945 10.4428 14.9945 9.7003C14.9945 8.9428 14.4044 8.34632 13.6502 8.34632C12.8981 8.34632 12.3079 8.93647 12.3079 9.7003C12.3079 10.4407 12.8981 11.033 13.6502 11.033Z" fill="white"/>
</svg>
