<svg width="28" height="28" viewBox="0 0 28 28" fill="none" xmlns="http://www.w3.org/2000/svg">
<path d="M14.105 26.2301C20.7369 26.2301 26.2121 20.7549 26.2121 14.123C26.2121 7.50288 20.7273 2.01804 14.0954 2.01804C7.47523 2.01804 2 7.50288 2 14.123C2 20.7549 7.48484 26.2301 14.105 26.2301Z" fill="black"/>
<path d="M6.00806 12.9073C6.00806 10.9184 7.43986 9.47491 9.42454 9.47491H14.3926C16.3848 9.47491 17.8091 10.9184 17.8091 12.9073C17.8091 14.9037 16.3869 16.3238 14.3926 16.3238H12.86C12.4702 15.9701 12.4224 15.3219 12.5682 14.9523H14.3361C15.5509 14.9523 16.3789 14.1338 16.3789 12.9073C16.3789 11.6905 15.5487 10.8465 14.3361 10.8465H9.49697C8.29181 10.8465 7.44993 11.6905 7.44993 12.9073C7.44993 14.1338 8.2822 14.9523 9.49697 14.9523H9.72431C9.67111 15.3718 9.70626 15.9779 9.78712 16.3238H9.42454C7.42814 16.3238 6.00806 14.9037 6.00806 12.9073ZM10.3817 15.4346C10.3817 13.4457 11.8039 12.0181 13.7886 12.0181H15.3308C15.7152 12.3484 15.7684 13.0372 15.6012 13.3876H13.8547C12.642 13.3876 11.8119 14.2177 11.8119 15.4346C11.8119 16.6515 12.6441 17.4955 13.8547 17.4955H18.6863C19.899 17.4955 20.7312 16.6515 20.7312 15.4346C20.7312 14.2177 19.9086 13.3876 18.6863 13.3876H18.4665C18.5335 12.7775 18.4665 12.3718 18.4058 12.0181H18.7662C20.7552 12.0181 22.1731 13.4457 22.1731 15.4346C22.1731 17.431 20.7509 18.8649 18.7662 18.8649H13.7886C11.806 18.8649 10.3817 17.431 10.3817 15.4346Z" fill="white"/>
</svg>
