<svg width="28" height="28" viewBox="0 0 28 28" fill="none" xmlns="http://www.w3.org/2000/svg">
<path d="M13.8965 26.4195C14.103 26.4195 14.4203 26.3387 14.7175 26.1767C21.4572 22.4975 23.793 20.8142 23.793 16.539V7.67961C23.793 6.29095 23.2551 5.80087 22.0923 5.30517C20.7897 4.76259 16.3987 3.21829 15.1213 2.78212C14.7332 2.65767 14.29 2.57681 13.8965 2.57681C13.503 2.57681 13.0598 2.679 12.6812 2.78212C11.4039 3.14681 7.00328 4.7722 5.70062 5.30517C4.5475 5.79126 4 6.29095 4 7.67961V16.539C4 20.8142 6.34539 22.4879 13.0755 26.1767C13.3823 26.3387 13.69 26.4195 13.8965 26.4195ZM13.8965 23.9588C13.728 23.9588 13.5616 23.897 13.2205 23.6902C7.86343 20.4238 6.20077 19.5451 6.20077 16.1012V8.05344C6.20077 7.64024 6.27952 7.47524 6.61186 7.34422C8.34671 6.65586 11.7151 5.53156 13.2843 4.91492C13.5477 4.81601 13.7296 4.78203 13.8965 4.78203C14.0634 4.78203 14.2431 4.82562 14.5087 4.91492C16.0778 5.53156 19.427 6.72313 21.1907 7.34422C21.5113 7.46563 21.5922 7.64024 21.5922 8.05344V16.1012C21.5922 19.5641 19.8705 20.4943 14.5724 23.6902C14.241 23.8949 14.065 23.9588 13.8965 23.9588Z" fill="black"/>
<path d="M9.10681 14.6162C9.10681 14.9122 9.34212 15.1262 9.64985 15.1262H13.2883L11.3465 20.3103C11.0664 21.0526 11.8598 21.4721 12.3538 20.8768L18.3276 13.4394C18.4565 13.287 18.5172 13.1284 18.5172 12.9793C18.5172 12.6854 18.2819 12.4714 17.9741 12.4714H14.3378L16.2796 7.27554C16.5576 6.53538 15.7642 6.12335 15.2702 6.72077L9.29642 14.1561C9.17712 14.2988 9.10681 14.4671 9.10681 14.6162Z" fill="black"/>
</svg>
