<svg width="28" height="28" viewBox="0 0 28 28" fill="none" xmlns="http://www.w3.org/2000/svg">
<path d="M1 23.0189C1 24.0853 1.70453 24.5763 2.54358 24.5763C2.98421 24.5763 3.34093 24.3419 3.85795 24.0344C5.14069 23.1787 6.66905 22.6713 8.21991 22.683C9.86101 22.6947 11.4651 23.2947 12.7396 24.5076C13.2911 25.0165 13.7273 25.1983 14.2241 25.1983C14.7093 25.1983 15.1551 25.0165 15.699 24.5076C16.9715 23.3044 18.5755 22.6947 20.2262 22.683C21.7771 22.6713 23.2959 23.1787 24.5786 24.0344C25.0977 24.3419 25.4523 24.5763 25.9026 24.5763C26.732 24.5763 27.4365 24.0853 27.4365 23.0189V7.11444C27.4365 6.88148 27.4101 6.67945 27.2748 6.46546C26.1791 4.54781 23.4379 3 20.1773 3C17.6753 3 15.4605 3.96891 14.2241 5.37235C12.9857 3.96891 10.7612 3 8.27101 3C4.99867 3 2.25742 4.54781 1.16172 6.46546C1.03609 6.67945 1 6.88148 1 7.11444V23.0189ZM3.29592 21.7254V7.4578C4.22405 6.16475 6.19796 5.29592 8.27101 5.29592C10.3963 5.29592 12.2657 6.17436 13.0703 7.51546V21.9014C11.8792 21.026 10.1045 20.3871 8.27101 20.3871C6.34374 20.3871 4.53178 20.9044 3.29592 21.7254ZM15.3662 21.9014V7.51546C16.1708 6.17436 18.0498 5.29592 20.1773 5.29592C22.2407 5.29592 24.2125 6.16475 25.1406 7.4578V21.7254C23.9048 20.9044 22.0949 20.3871 20.1773 20.3871C18.332 20.3871 16.5573 21.026 15.3662 21.9014Z" fill="black"/>
</svg>
