<svg width="28" height="28" viewBox="0 0 28 28" fill="none" xmlns="http://www.w3.org/2000/svg">
<path d="M6.84421 24.8972H21.0295C23.5685 24.8972 24.8737 23.5919 24.8737 21.0914V6.82921C24.8737 4.32656 23.5685 3.02344 21.0295 3.02344H6.84421C4.31484 3.02344 3 4.31695 3 6.82921V21.0914C3 23.6016 4.31484 24.8972 6.84421 24.8972Z" fill="black"/>
<path d="M9.4354 20.4117C9.10235 20.4117 8.79907 20.1127 8.79907 19.7754V9.72937C8.79907 9.17789 9.05993 8.76586 9.57954 8.53265C10.0279 8.32922 10.4273 8.22375 11.3521 8.22375C13.5222 8.22375 14.8944 9.29344 16.8892 9.29344C17.86 9.29344 18.381 9.03773 18.7473 9.03773C19.2733 9.03773 19.4987 9.31875 19.4987 9.71882V15.6192C19.4987 16.2037 19.2538 16.5785 18.7204 16.8298C18.2624 17.047 17.8609 17.1366 16.9457 17.1366C14.864 17.1366 13.5172 16.0903 11.4086 16.0903C10.742 16.0903 10.2869 16.2141 10.06 16.3057V19.7754C10.06 20.1244 9.8036 20.4117 9.4354 20.4117Z" fill="white"/>
</svg>
