<svg width="28" height="28" viewBox="0 0 28 28" fill="none" xmlns="http://www.w3.org/2000/svg">
<path d="M19.402 7.91101C21.3696 6.8371 23.4916 1.14438 21.1947 0.565484C18.8435 0.00369018 18.1291 6.05382 19.402 7.91101ZM19.6432 8.36383C22.402 8.51265 28.3216 3.84555 26.2415 1.75376C24.1614 -0.326309 19.4964 5.59118 19.6432 8.36383ZM20.096 8.59329C21.9414 9.8875 28.0054 9.15179 27.4436 6.8336C26.8722 4.50369 21.1699 6.64376 20.096 8.59329ZM20.0109 6.90837C16.9446 3.81204 12.8414 4.57587 10.2553 8.68188L0.389955 24.3635C-0.28317 25.4393 -0.0262938 26.4991 0.713626 27.2348C1.37034 27.9032 2.40885 28.2562 3.54979 27.5372L19.2665 17.6718C23.3449 15.1113 24.0935 11.0264 21.025 7.93001L20.0109 6.90837ZM18.5915 8.38586L19.5454 9.35688C21.7054 11.5394 21.2732 13.9746 18.1985 15.9101L2.81947 25.5696C2.46861 25.7946 2.12291 25.4543 2.3458 25.113L12.0171 9.7361C13.9664 6.6475 16.4198 6.21085 18.5915 8.38586ZM15.1092 11.9768C15.4422 11.632 15.4443 11.1286 15.0899 10.7742L12.2667 7.9797L11.0779 9.21111L13.8991 11.9864C14.2492 12.3386 14.7644 12.329 15.1092 11.9768ZM12.3836 13.6776C12.7263 13.335 12.7284 12.8156 12.374 12.4654L10.109 10.2431L8.92026 11.4649L11.1735 13.6776C11.5258 14.0299 12.0271 14.0224 12.3836 13.6776ZM9.68901 18.3769C9.35385 18.7216 9.34424 19.2368 9.6944 19.589L11.6721 21.5123L13.1556 20.5875L10.897 18.3694C10.5522 18.0288 10.0455 18.0363 9.68901 18.3769ZM7.52292 20.6008C7.18026 20.9456 7.18026 21.4683 7.53253 21.813L8.92424 23.2068L10.4313 22.2841L8.73299 20.6008C8.38284 20.2486 7.86557 20.2603 7.52292 20.6008Z" fill="black"/>
</svg>
