<svg width="28" height="28" viewBox="0 0 28 28" fill="none" xmlns="http://www.w3.org/2000/svg">
<path d="M14.105 26.21C20.7369 26.21 26.2121 20.7273 26.2121 14.105C26.2121 7.47312 20.7273 2 14.0954 2C7.47523 2 2 7.47312 2 14.105C2 20.7273 7.48484 26.21 14.105 26.21ZM14.105 23.8255C8.71085 23.8255 4.39412 19.4991 4.39412 14.105C4.39412 8.71085 8.70124 4.38452 14.0954 4.38452C19.4895 4.38452 23.8276 8.71085 23.8276 14.105C23.8276 19.4991 19.4991 23.8255 14.105 23.8255Z" fill="black"/>
<path d="M17.5043 8.99092L16.3279 10.1363C16.1735 10.3004 15.9403 10.3004 15.7762 10.1363C15.6197 9.97975 15.6293 9.74866 15.7762 9.58248L16.7876 8.57326C15.9679 8.1692 15.0471 7.93037 14.0953 7.93037C10.7219 7.93037 7.92065 10.7412 7.92065 14.1146C7.92065 15.0664 8.14987 15.9755 8.55393 16.7877L9.58448 15.7838C9.74104 15.6273 9.97214 15.6273 10.1383 15.7838C10.2928 15.9404 10.3045 16.179 10.1383 16.3452L8.97581 17.5119C9.10682 17.7291 9.25167 17.9251 9.43167 18.1093L18.1113 9.44678C17.9175 9.2785 17.714 9.12404 17.5043 8.99092ZM15.4073 11.0666L14.5666 11.8998C14.4122 12.0563 14.1768 12.0542 14.0224 11.8998C13.8562 11.7528 13.8562 11.5121 14.0224 11.3459L14.8535 10.5148C15.0101 10.3583 15.2508 10.3583 15.4073 10.5148C15.5639 10.6693 15.5618 10.91 15.4073 11.0666ZM13.6535 12.8204L12.8128 13.6707C12.6658 13.8177 12.4101 13.8177 12.2611 13.6707C12.1045 13.5045 12.1045 13.2638 12.2611 13.1052L13.0922 12.2762C13.2466 12.1121 13.4969 12.1121 13.6535 12.2762C13.8004 12.4231 13.8004 12.6734 13.6535 12.8204ZM11.89 14.5742L11.0632 15.4149C10.9183 15.5811 10.6617 15.5694 10.5072 15.4149C10.3507 15.268 10.3507 15.0177 10.5072 14.8611L11.3383 14.03C11.5045 13.8638 11.7356 13.8638 11.89 14.03C12.0466 14.1866 12.037 14.4177 11.89 14.5742ZM19.6387 11.4298L18.6391 12.4198C18.4729 12.5764 18.2418 12.5764 18.0853 12.4198C17.9212 12.2516 17.9212 12.013 18.0853 11.8585L19.2265 10.7131C19.0837 10.5076 18.9389 10.302 18.7631 10.1082L10.1027 18.7824C10.2773 18.9486 10.4807 19.0934 10.6863 19.2362L11.886 18.0577C12.0426 17.9012 12.2833 17.9033 12.4378 18.0577C12.5943 18.2239 12.5943 18.455 12.4378 18.6116L11.4126 19.658C12.2365 20.0642 13.1435 20.3009 14.0953 20.3009C17.4686 20.3009 20.2816 17.488 20.2816 14.1146C20.2816 13.1628 20.0449 12.2419 19.6387 11.4298ZM17.7068 13.3426L16.8757 14.1737C16.7095 14.3398 16.4784 14.3398 16.324 14.1737C16.1674 14.015 16.177 13.786 16.324 13.6273L17.1508 12.7791C17.2978 12.6226 17.5502 12.6322 17.7068 12.7791C17.8633 12.9357 17.8633 13.186 17.7068 13.3426ZM15.9412 15.0943L15.1122 15.935C14.9557 16.0916 14.7171 16.0916 14.5509 15.935C14.404 15.7859 14.404 15.5302 14.5509 15.3833L15.3991 14.5426C15.5482 14.3956 15.7943 14.3956 15.9412 14.5426C16.1095 14.6991 16.1095 14.9473 15.9412 15.0943ZM14.1916 16.8577L13.3605 17.6888C13.204 17.8454 12.9536 17.8454 12.8163 17.6888C12.6501 17.5344 12.6501 17.2916 12.8163 17.1329L13.6453 16.3039C13.804 16.1473 14.0329 16.1494 14.1916 16.3039C14.3482 16.4509 14.3482 16.6916 14.1916 16.8577Z" fill="black"/>
</svg>
