<svg width="33" height="28" viewBox="0 0 33 28" fill="none" xmlns="http://www.w3.org/2000/svg">
<path d="M10.6561 24.3068C16.4601 24.3068 21.3047 19.4622 21.3047 13.6582C21.3047 7.84242 16.4484 3 10.6348 3C4.82859 3 0 7.84031 0 13.6582C0 19.4622 4.84242 24.3068 10.6561 24.3068ZM10.6348 22.0479C5.9653 22.0479 2.27061 18.3298 2.27061 13.6582C2.27061 8.98873 5.97491 5.32123 10.6209 5.27061C15.2904 5.2221 19.0202 8.98873 19.0202 13.6582C19.0298 18.3276 15.3117 22.0479 10.6348 22.0479ZM10.6678 10.7154C11.7305 10.7154 12.5972 9.84654 12.5972 8.78178C12.5972 7.6978 11.7305 6.84069 10.6678 6.84069C9.59342 6.84069 8.71288 7.70741 8.71288 8.78178C8.71288 9.85615 9.59342 10.7154 10.6678 10.7154Z" fill="black"/>
<path d="M24.1231 18.3088C24.533 18.7909 25.3037 18.8089 25.7888 18.2331C26.7957 17.0181 27.3605 15.3957 27.3605 13.6583C27.3605 11.9209 26.7957 10.2985 25.7888 9.07929C25.3037 8.50555 24.533 8.51398 24.1231 9.0057C23.7334 9.46343 23.8932 10.0266 24.2691 10.5516C24.9174 11.364 25.269 12.5007 25.269 13.6583C25.269 14.8159 24.9174 15.9409 24.2691 16.7607C23.8911 17.2878 23.7334 17.8531 24.1231 18.3088Z" fill="black"/>
<path d="M27.5394 21.6675C27.9577 22.1475 28.6613 22.1707 29.1922 21.611C31.129 19.5279 32.1905 16.7039 32.1905 13.6582C32.1905 10.6167 31.0995 7.76415 29.1922 5.7075C28.6676 5.14571 27.9598 5.16352 27.5394 5.65102C27.1391 6.11086 27.2647 6.70172 27.7215 7.20539C29.2517 8.89875 30.099 11.1724 30.099 13.6582C30.099 16.1461 29.2454 18.4198 27.7215 20.1131C27.2668 20.6168 27.1412 21.2076 27.5394 21.6675Z" fill="black"/>
</svg>
