<svg width="28" height="28" viewBox="0 0 28 28" fill="none" xmlns="http://www.w3.org/2000/svg">
<path d="M22.3117 17.8178V4.58848C22.3117 2.26489 21.1014 1.03748 18.7992 1.03748H9.48327C8.19045 1.03748 7.271 1.45443 6.75678 2.25529L8.57786 4.06676C8.72083 3.57035 9.11786 3.30879 9.76474 3.30879H18.6264C19.57 3.30879 20.0404 3.77707 20.0404 4.71317V15.5486L22.3117 17.8178ZM7.47443 26.7058C8.10771 26.7058 8.50873 26.3755 9.51279 25.3961L14.04 20.9202C14.0964 20.8637 14.1956 20.8637 14.2425 20.9202L18.7718 25.3982C19.7779 26.3776 20.1726 26.7058 20.808 26.7058C21.7134 26.7058 22.2738 26.1121 22.2841 25.3089V24.8092L19.7742 22.2993V22.8855C19.7625 22.9218 19.7273 22.9347 19.6675 22.8749L14.9057 18.2591C14.4189 17.7904 13.8635 17.7904 13.3767 18.2591L8.58513 22.9047C8.42529 23.0645 8.24201 23.0134 8.24201 22.7875V10.54L5.9707 8.26654V25.0272C5.9707 26.0783 6.54374 26.7058 7.47443 26.7058Z" fill="black"/>
<path d="M24.3793 24.4897C24.7435 24.8497 25.3367 24.8519 25.6988 24.4897C26.0492 24.1255 26.063 23.5323 25.6988 23.1702L4.59404 2.05796C4.23193 1.69585 3.62701 1.69585 3.26279 2.05796C2.9124 2.41046 2.9124 3.0271 3.26279 3.37749L24.3793 24.4897Z" fill="black"/>
</svg>
