<svg width="28" height="28" viewBox="0 0 28 28" fill="none" xmlns="http://www.w3.org/2000/svg">
<path d="M14.105 26.21C20.7369 26.21 26.2121 20.7273 26.2121 14.105C26.2121 7.47312 20.7273 2 14.0954 2C7.47523 2 2 7.47312 2 14.105C2 20.7273 7.48484 26.21 14.105 26.21Z" fill="black"/>
<path d="M14.105 20.5444C10.6147 20.5444 7.68689 17.607 7.68689 14.1146C7.68689 10.6105 10.603 7.68475 14.105 7.68475C17.6037 7.68475 20.5348 10.6158 20.5348 14.1146C20.5348 17.6187 17.6091 20.5444 14.105 20.5444ZM9.61556 17.0312L11.3755 17.0002L12.3394 15.737L11.8191 14.1162L10.0477 13.393L8.75352 14.135C8.76313 15.2101 9.07743 16.1872 9.61556 17.0312ZM9.88837 10.7771L10.3648 12.327L12.1248 13.0419L13.5737 11.9426V10.0869L12.2785 9.06357C11.3312 9.39709 10.5181 10.013 9.88837 10.7771ZM18.3334 10.7771C17.7228 10.013 16.8905 9.39709 15.9432 9.06357L14.6769 10.0634V11.9426L16.1066 13.0419L17.8665 12.327L18.3334 10.7771ZM18.602 17.0546C19.1443 16.2181 19.4682 15.2101 19.4778 14.135L18.1836 13.393L16.4122 14.1162L15.8898 15.7529L16.8537 17.0258L18.602 17.0546ZM14.1146 19.464C14.6293 19.464 15.1386 19.3937 15.6106 19.2477L15.9816 17.6944L15.0891 16.5378H13.1166L12.2476 17.6572L12.6207 19.2455C13.0927 19.3841 13.602 19.464 14.1146 19.464Z" fill="white"/>
</svg>
