<svg width="28" height="28" viewBox="0 0 28 28" fill="none" xmlns="http://www.w3.org/2000/svg">
<path d="M14.105 26.2301C20.7369 26.2301 26.2121 20.7549 26.2121 14.123C26.2121 7.50291 20.7273 2.01807 14.0954 2.01807C7.47523 2.01807 2 7.50291 2 14.123C2 20.7549 7.48484 26.2301 14.105 26.2301Z" fill="black"/>
<path d="M12.6587 13.7395C12.6587 12.9407 13.3062 12.2964 14.105 12.2964C14.9155 12.2964 15.5534 12.9407 15.5534 13.7395C15.5534 14.2731 15.2509 14.7365 14.8311 14.9835V20.9957C14.8311 21.4748 14.533 21.7867 14.105 21.7867C13.6887 21.7867 13.3906 21.4631 13.3906 20.9957V14.9931C12.9591 14.7482 12.6587 14.2849 12.6587 13.7395Z" fill="white"/>
<path d="M9.45801 13.7395C9.45801 12.7061 9.80864 11.7206 10.4225 10.9659C10.7353 10.574 11.2943 10.5548 11.6053 10.9178C11.8439 11.2139 11.8226 11.5919 11.5296 12.0009C11.1809 12.4818 10.9625 13.1137 10.9625 13.7395C10.9625 14.407 11.1607 15.0145 11.5095 15.4804C11.8121 15.9096 11.8599 16.2822 11.6053 16.5857C11.2955 16.937 10.7353 16.9338 10.4225 16.5377C9.81286 15.7893 9.45801 14.7942 9.45801 13.7395ZM17.2496 13.7395C17.2496 13.1137 17.0312 12.4818 16.692 12.0009C16.3991 11.5919 16.3681 11.2139 16.6067 10.9178C16.9177 10.5548 17.4746 10.574 17.7896 10.9659C18.4013 11.7206 18.7541 12.7061 18.7541 13.7395C18.7541 14.7942 18.3992 15.7893 17.7896 16.5377C17.4746 16.9338 16.9081 16.9434 16.6067 16.5857C16.3585 16.2843 16.3894 15.9138 16.692 15.4973C17.0387 15.0356 17.2496 14.4154 17.2496 13.7395Z" fill="white"/>
<path d="M6.54712 13.7394C6.54712 11.9419 7.20033 10.2298 8.36095 8.97214C8.70361 8.58565 9.2115 8.57393 9.52345 8.94331C9.7897 9.23721 9.75454 9.67596 9.43509 10.0456C8.54188 11.007 8.05157 12.3242 8.05157 13.7394C8.05157 15.1855 8.54188 16.4813 9.43509 17.4577C9.75454 17.8454 9.7897 18.2607 9.51384 18.5684C9.2115 18.924 8.70361 18.9027 8.36095 18.5354C7.1865 17.2639 6.54712 15.5804 6.54712 13.7394ZM20.168 13.7394C20.168 12.3242 19.6798 11.007 18.7866 10.0456C18.4576 9.67596 18.4203 9.23721 18.6887 8.94331C19.0006 8.57393 19.5085 8.58565 19.8512 8.97214C21.0118 10.2298 21.6746 11.9419 21.6746 13.7394C21.6746 15.5804 21.0256 17.2639 19.8512 18.5354C19.5085 18.9027 19.0006 18.924 18.6983 18.5684C18.4203 18.2607 18.4576 17.8454 18.7866 17.4577C19.6798 16.4813 20.168 15.1855 20.168 13.7394Z" fill="white"/>
</svg>
