<svg width="28" height="29" viewBox="0 0 28 29" fill="none" xmlns="http://www.w3.org/2000/svg">
<path d="M3.84421 27.2055H23.9109C26.4499 27.2055 27.7552 25.9024 27.7552 23.3998V16.6627C27.7552 15.4823 27.6145 14.9086 27.0724 14.1788L23.1708 8.95221C21.806 7.11073 20.8737 6.20862 18.7341 6.20862H17.1316V8.11197H18.844C19.6657 8.11197 20.4973 8.79447 21.0188 9.4915L25.0228 15.0019C25.4304 15.5384 25.2811 15.7643 24.6809 15.7643H17.6655C16.9798 15.7643 16.6772 16.245 16.6772 16.7501V16.797C16.6772 18.1751 15.607 19.6467 13.8776 19.6467C12.1577 19.6467 11.0876 18.1751 11.0876 16.797V16.7501C11.0876 16.245 10.7754 15.7643 10.0896 15.7643H3.0935C2.46444 15.7643 2.34397 15.5074 2.74194 15.0019L6.7364 9.4915C7.25789 8.79447 8.08734 8.11197 8.91117 8.11197H10.6331V6.20862H9.0307C6.88149 6.20862 5.95876 7.11073 4.59399 8.95221L0.682734 14.1788C0.150234 14.9086 0 15.4823 0 16.6627V23.3998C0 25.9024 1.31484 27.2055 3.84421 27.2055Z" fill="black"/>
<path d="M13.8777 15.6638C14.1681 15.6638 14.42 15.5766 14.6987 15.3L18.6343 11.5113C18.8291 11.3145 18.9355 11.0963 18.9355 10.8143C18.9355 10.2663 18.5026 9.88431 17.9736 9.88431C17.7013 9.88431 17.4299 9.99493 17.2426 10.2035L15.6017 11.951L14.8702 12.8105L14.967 11.0674V1.05843C14.967 0.483981 14.4723 0 13.8777 0C13.2831 0 12.7979 0.483981 12.7979 1.05843V11.0674L12.8851 12.8105L12.1536 11.951L10.5128 10.2035C10.3159 9.99493 10.0445 9.88431 9.76997 9.88431C9.2431 9.88431 8.81982 10.2663 8.81982 10.8143C8.81982 11.0963 8.92412 11.3145 9.12099 11.5113L13.0567 15.3C13.3353 15.5766 13.5969 15.6638 13.8777 15.6638Z" fill="black"/>
</svg>
