<svg width="28" height="28" viewBox="0 0 28 28" fill="none" xmlns="http://www.w3.org/2000/svg">
<path d="M6.84421 24.8972H21.0295C23.5685 24.8972 24.8737 23.5919 24.8737 21.0914V6.82921C24.8737 4.32656 23.5685 3.02344 21.0295 3.02344H6.84421C4.31484 3.02344 3 4.31695 3 6.82921V21.0914C3 23.6016 4.31484 24.8972 6.84421 24.8972Z" fill="black"/>
<path d="M9.60864 18.688V13.9487C9.60864 13.108 9.94966 12.6799 10.6275 12.6098V11.2488C10.6275 9.00533 11.9782 7.50439 13.968 7.50439C15.96 7.50439 17.3107 9.00533 17.3107 11.2488V12.614C17.996 12.6799 18.3349 13.108 18.3349 13.9487V18.688C18.3349 19.6157 17.9238 20.0439 17.0632 20.0439H10.875C10.0197 20.0439 9.60864 19.6157 9.60864 18.688ZM12.0597 12.5854H15.8763V11.1208C15.8763 9.78415 15.1109 8.89188 13.9659 8.89188C12.8231 8.89188 12.0597 9.78626 12.0597 11.1208V12.5854Z" fill="white"/>
</svg>
