<svg width="28" height="28" viewBox="0 0 28 28" fill="none" xmlns="http://www.w3.org/2000/svg">
<path d="M5 25.0098C5 25.6394 5.51468 26.1541 6.14421 26.1541C6.78124 26.1541 7.29592 25.6394 7.29592 25.0098V3.93389C7.29592 3.54623 7.54623 3.29592 7.91256 3.29592H20.6429C21.0092 3.29592 21.2595 3.54623 21.2595 3.93389V25.0098C21.2595 25.6394 21.7742 26.1541 22.4133 26.1541C23.0429 26.1541 23.5554 25.6394 23.5554 25.0098V3.72178C23.5554 2.07273 22.4752 1 20.7856 1H7.77194C6.08984 1 5 2.07273 5 3.72178V25.0098Z" fill="black"/>
<path d="M8.69019 25.3637C8.69019 25.6138 8.89245 25.7416 9.15097 25.633L12.7885 24.0463C13.0857 23.9174 13.2092 23.8068 13.2092 23.5084V6.81151C13.2092 6.52065 13.0857 6.40041 12.7981 6.28323L9.15097 4.68479C8.89245 4.57838 8.69019 4.70611 8.69019 4.9658V25.3637Z" fill="black"/>
</svg>
