<svg width="28" height="28" viewBox="0 0 28 28" fill="none" xmlns="http://www.w3.org/2000/svg">
<path d="M10.1684 20.5609V18.1492C10.1684 17.7543 10.4866 17.4264 10.905 17.4264C11.2999 17.4264 11.6278 17.7543 11.6278 18.1492V20.5609C11.6278 20.9676 11.2999 21.2955 10.905 21.2955C10.4866 21.2955 10.1684 20.9676 10.1684 20.5609ZM12.9593 20.5609V18.1492C12.9593 17.7543 13.2872 17.4264 13.7055 17.4264C14.1005 17.4264 14.4283 17.7543 14.4283 18.1492V20.5609C14.4283 20.9676 14.1005 21.2955 13.7055 21.2955C13.2872 21.2955 12.9593 20.9676 12.9593 20.5609ZM15.7598 20.5609V18.1492C15.7598 17.7543 16.0877 17.4264 16.4965 17.4264C16.901 17.4264 17.2289 17.7543 17.2289 18.1492V20.5609C17.2289 20.9676 16.901 21.2955 16.4965 21.2955C16.0877 21.2955 15.7598 20.9676 15.7598 20.5609ZM18.5583 20.5609V18.1492C18.5583 17.7543 18.8787 17.4264 19.2949 17.4264C19.6994 17.4264 20.0177 17.7543 20.0177 18.1492V20.5609C20.0177 20.9676 19.6994 21.2955 19.2949 21.2955C18.8787 21.2955 18.5583 20.9676 18.5583 20.5609ZM21.3684 20.5609V18.1492C21.3684 17.7543 21.6867 17.4264 22.1051 17.4264C22.5 17.4264 22.8183 17.7543 22.8183 18.1492V20.5609C22.8183 20.9676 22.5 21.2955 22.1051 21.2955C21.6867 21.2955 21.3684 20.9676 21.3684 20.5609ZM4.81359 24.1351H22.5773C25.4313 24.1351 27.3909 22.1872 27.3909 19.3567C27.3909 16.5283 25.4313 14.5729 22.5773 14.5729H4.81359C1.95961 14.5729 0 16.5283 0 19.3567C0 22.1872 1.95961 24.1351 4.81359 24.1351ZM4.81359 12.8598H22.5773C23.7485 12.8598 24.8175 13.1207 25.7353 13.5997L22.8586 6.82747C22.0877 5.00942 20.523 4.01379 18.4219 4.01379H8.97327C6.8721 4.01379 5.30742 5.00942 4.53656 6.82747L1.65445 13.5934C2.57765 13.1207 3.64453 12.8598 4.81359 12.8598Z" fill="black"/>
</svg>
