<svg width="28" height="28" viewBox="0 0 28 28" fill="none" xmlns="http://www.w3.org/2000/svg">
<path d="M4.43859 5.34156H6.42866V24.3058H4.43859V5.34156ZM21.2665 5.34156H23.2565V24.3058H21.2665V5.34156ZM3.78773 24.3058H23.917C26.4251 24.3058 27.7026 23.0378 27.7026 20.5565V9.08874C27.7026 6.59991 26.4251 5.34156 23.917 5.34156H3.78773C1.28718 5.34156 0 6.59991 0 9.08874V20.5565C0 23.0378 1.28718 24.3058 3.78773 24.3058ZM7.71211 6.29781H9.83436V4.27421C9.83436 3.4321 10.3237 2.96194 11.1851 2.96194H16.5176C17.3789 2.96194 17.8587 3.43421 17.8587 4.27421V6.27859H19.983V4.27445C19.983 2.05867 18.7849 1 16.5794 1H11.1094C9.0021 1 7.71211 2.05867 7.71211 4.27445V6.29781Z" fill="black"/>
</svg>
