<svg width="28" height="28" viewBox="0 0 28 28" fill="none" xmlns="http://www.w3.org/2000/svg">
<path d="M1 14.5227C1 17.4528 3.21203 19.5816 6.27554 19.5816H21.2411C24.3025 19.5816 26.5145 17.4528 26.5145 14.5227C26.5145 13.689 26.2876 12.9076 25.978 12.17L22.3811 3.72824C21.6348 1.9702 20.1515 1.01184 18.1206 1.01184H9.40022C7.37687 1.01184 5.88601 1.96598 5.13015 3.72824L1.56179 12.1342C1.25312 12.8699 1 13.6564 1 14.5227ZM5.14115 9.57989L7.27772 4.29543C7.62108 3.44113 8.3685 2.99113 9.43491 2.99113H18.0955C19.1619 2.99113 19.9094 3.44113 20.2506 4.29543L22.3851 9.57989C22.023 9.49293 21.6037 9.47535 21.1356 9.47535H6.38311C5.91295 9.47535 5.49576 9.49293 5.14115 9.57989ZM3.24506 14.5227C3.24506 12.8759 4.48163 11.7226 6.27554 11.7226H21.2411C23.035 11.7226 24.2716 12.8759 24.2716 14.5227C24.2716 16.2697 23.1332 17.327 21.2411 17.327H6.27554C4.48163 17.327 3.24506 16.1715 3.24506 14.5227ZM19.7483 14.5227C19.7483 15.3235 20.3905 15.9594 21.1851 15.9573C21.9625 15.9477 22.6143 15.3139 22.6143 14.5227C22.6143 13.7612 21.9487 13.0956 21.1851 13.0956C20.4119 13.0956 19.7483 13.7612 19.7483 14.5227ZM12.4527 24.984H14.7107V18.2176H12.4527V24.984ZM3.65406 25.9658H23.5094C24.1262 25.9658 24.6421 25.4595 24.6421 24.8405C24.6421 24.212 24.1262 23.7057 23.5094 23.7057H3.65406C3.03507 23.7057 2.52883 24.212 2.52883 24.8405C2.52883 25.4595 3.03507 25.9658 3.65406 25.9658ZM13.5855 27.699C15.1365 27.699 16.4301 26.4172 16.4301 24.8544C16.4301 23.2937 15.1365 22.0098 13.5855 22.0098C12.0248 22.0098 10.7409 23.2937 10.7409 24.8544C10.7409 26.4172 12.0248 27.699 13.5855 27.699Z" fill="black"/>
</svg>
