<svg width="28" height="28" viewBox="0 0 28 28" fill="none" xmlns="http://www.w3.org/2000/svg">
<path d="M3.78773 24.3058H23.917C26.4251 24.3058 27.7026 23.0378 27.7026 20.5565V9.08874C27.7026 6.59991 26.4251 5.34156 23.917 5.34156H3.78773C1.28718 5.34156 0 6.59991 0 9.08874V20.5565C0 23.0378 1.28718 24.3058 3.78773 24.3058ZM3.87444 22.0933C2.84413 22.0933 2.29592 21.5547 2.29592 20.4859V9.16139C2.29592 8.08303 2.84413 7.55404 3.87444 7.55404H23.8303C24.8585 7.55404 25.4067 8.08303 25.4067 9.16139V20.4859C25.4067 21.5547 24.8585 22.0933 23.8303 22.0933H3.87444ZM7.71211 6.29781H9.83436V4.27421C9.83436 3.4321 10.3237 2.96194 11.1851 2.96194H16.5176C17.3789 2.96194 17.8587 3.43421 17.8587 4.27421V6.27859H19.983V4.27445C19.983 2.05867 18.7849 1 16.5794 1H11.1094C9.0021 1 7.71211 2.05867 7.71211 4.27445V6.29781Z" fill="black"/>
<path d="M8.45312 15.7701C8.45312 16.4162 8.89282 16.8559 9.53899 16.8559H11.8072V19.1167C11.8072 19.7821 12.2373 20.2101 12.8931 20.2101H14.8115C15.4672 20.2101 15.8973 19.7821 15.8973 19.1167V16.8559H18.1656C18.8193 16.8559 19.2611 16.4162 19.2611 15.7701V13.8421C19.2611 13.198 18.8193 12.7583 18.1656 12.7583H15.8973V10.5093C15.8973 9.8439 15.4672 9.41382 14.8115 9.41382H12.8931C12.2373 9.41382 11.8072 9.8439 11.8072 10.5093V12.7583H9.53687C8.8832 12.7583 8.45312 13.198 8.45312 13.8421V15.7701Z" fill="black"/>
</svg>
