<svg width="28" height="28" viewBox="0 0 28 28" fill="none" xmlns="http://www.w3.org/2000/svg">
<path d="M14.105 26.21C20.7369 26.21 26.2121 20.7273 26.2121 14.105C26.2121 7.47312 20.7273 2 14.0954 2C7.47523 2 2 7.47312 2 14.105C2 20.7273 7.48484 26.21 14.105 26.21ZM14.105 23.8255C8.71085 23.8255 4.39412 19.4991 4.39412 14.105C4.39412 8.71085 8.70124 4.38452 14.0954 4.38452C19.4895 4.38452 23.8276 8.71085 23.8276 14.105C23.8276 19.4991 19.4991 23.8255 14.105 23.8255Z" fill="black"/>
<path d="M14.0953 20.3009C17.4686 20.3009 20.2816 17.488 20.2816 14.1146C20.2816 10.7466 17.4654 7.93039 14.0953 7.93039C10.7219 7.93039 7.92065 10.7412 7.92065 14.1146C7.92065 17.4762 10.7357 20.3009 14.0953 20.3009ZM9.77385 16.9205C9.24955 16.1159 8.9512 15.1686 8.94159 14.135L10.1943 13.4206L11.8924 14.1141L12.3989 15.6837L11.4668 16.8896L9.77385 16.9205ZM10.0328 10.9016C10.635 10.1651 11.4203 9.56726 12.3379 9.24547L13.5799 10.239V12.0235L12.1842 13.0855L10.4955 12.3983L10.0328 10.9016ZM18.1694 10.9016L17.7164 12.3983L16.0277 13.0855L14.6416 12.0235V10.2177L15.8643 9.24547C16.7819 9.56726 17.5748 10.1651 18.1694 10.9016ZM18.4263 16.944L16.743 16.9152L15.8109 15.6976L16.3195 14.1141L18.0176 13.4206L19.2703 14.135C19.2607 15.1686 18.9527 16.1373 18.4263 16.944ZM14.1049 19.2662C13.6061 19.2662 13.1245 19.1884 12.6684 19.0616L12.307 17.5264L13.1442 16.4506H15.0422L15.9028 17.5637L15.5435 19.0637C15.0874 19.198 14.6058 19.2662 14.1049 19.2662Z" fill="black"/>
</svg>
