<svg width="28" height="28" viewBox="0 0 28 28" fill="none" xmlns="http://www.w3.org/2000/svg">
<path d="M14.105 26.21C20.7369 26.21 26.2121 20.7273 26.2121 14.105C26.2121 7.47312 20.7273 2 14.0954 2C7.47523 2 2 7.47312 2 14.105C2 20.7273 7.48484 26.21 14.105 26.21ZM14.105 23.8255C8.71085 23.8255 4.39412 19.4991 4.39412 14.105C4.39412 8.71085 8.70124 4.38452 14.0954 4.38452C19.4895 4.38452 23.8276 8.71085 23.8276 14.105C23.8276 19.4991 19.4991 23.8255 14.105 23.8255Z" fill="black"/>
<path d="M7.86011 14.1049C7.86011 16.289 8.38112 17.9439 9.2687 19.4751C9.5073 19.8703 9.96526 19.9917 10.3839 19.7606C10.7694 19.5592 10.8887 19.0778 10.6714 18.6496C9.91909 17.2633 9.48433 15.9897 9.48433 14.1049C9.48433 11.0507 11.3237 9.03553 14.1071 9.03553C16.9002 9.03553 18.7651 11.0624 18.7651 14.1049C18.7651 15.9801 18.3303 17.2771 17.5524 18.6496C17.3255 19.064 17.4566 19.5496 17.8421 19.7606C18.249 19.9917 18.7208 19.8703 18.9573 19.4751C19.8566 17.8949 20.3893 16.2517 20.3893 14.1049C20.3893 10.1059 17.8587 7.41553 14.1071 7.41553C10.3651 7.41553 7.86011 10.0921 7.86011 14.1049ZM9.94487 19.2131C10.1633 19.9802 10.8526 20.3648 11.608 20.1229C12.3868 19.912 12.7597 19.2407 12.5274 18.4715L11.7048 15.636C11.4746 14.8572 10.8109 14.4801 10.0417 14.7145C9.27456 14.9233 8.88995 15.5988 9.12222 16.3542L9.94487 19.2131ZM18.2694 19.2131L19.092 16.3542C19.3243 15.587 18.9514 14.9233 18.1726 14.7145C17.4172 14.4801 16.7513 14.8572 16.5212 15.636L15.6868 18.4853C15.4662 19.262 15.8295 19.912 16.6084 20.1229C17.3755 20.3531 18.0509 19.9802 18.2694 19.2131Z" fill="black"/>
</svg>
