<svg width="28" height="28" viewBox="0 0 28 28" fill="none" xmlns="http://www.w3.org/2000/svg">
<path d="M14.105 26.21C20.7369 26.21 26.2121 20.7273 26.2121 14.105C26.2121 7.47312 20.7273 2 14.0954 2C7.47523 2 2 7.47312 2 14.105C2 20.7273 7.48484 26.21 14.105 26.21ZM14.105 23.8255C8.71085 23.8255 4.39412 19.4991 4.39412 14.105C4.39412 8.71085 8.70124 4.38452 14.0954 4.38452C19.4895 4.38452 23.8276 8.71085 23.8276 14.105C23.8276 19.4991 19.4991 23.8255 14.105 23.8255Z" fill="black"/>
<path d="M12.2361 11.7719C12.6601 11.2016 13.3698 10.8862 14.0762 10.8862C14.7943 10.8862 15.5019 11.2016 15.9141 11.7719C16.3084 11.3095 16.8997 11.042 17.5304 11.042C17.9192 11.042 18.2963 11.1379 18.6127 11.3254C18.7611 11.0854 18.8518 10.7952 18.8518 10.4955C18.8518 9.51743 18.2316 8.82274 17.326 8.80048C17.0853 8.24642 16.64 7.88618 16.0337 7.88618C15.6416 7.88618 15.2921 8.01087 15.0226 8.26446C14.885 8.23142 14.7027 8.2197 14.5555 8.25063C14.3051 7.70079 13.7703 7.35767 13.1694 7.35767C12.3701 7.35767 11.8344 7.83509 11.7247 8.34321C11.3101 8.3111 10.9445 8.69806 10.9339 9.07001C10.0752 9.05501 9.36877 9.76353 9.36877 10.6361C9.36877 10.8773 9.41682 11.0875 9.53424 11.3212C9.85065 11.1454 10.2332 11.042 10.6295 11.042C11.2623 11.042 11.8515 11.3095 12.2361 11.7719ZM11.8991 20.6477H12.5434L11.8487 13.0066C11.7922 12.2903 11.2379 11.9099 10.6295 11.9099C9.90268 11.9099 9.20986 12.4631 9.40815 13.5013L10.5217 19.3481C10.674 20.1609 11.0692 20.6477 11.8991 20.6477ZM13.3836 20.6477H14.7784L15.455 13.1713C15.537 12.1642 14.7057 11.7541 14.0762 11.7541C13.4584 11.7541 12.627 12.1642 12.7069 13.1713L13.3836 20.6477ZM16.2608 20.6477C17.0928 20.6477 17.4859 20.1609 17.6382 19.3481L18.7517 13.5013C18.95 12.4631 18.2572 11.9099 17.5304 11.9099C16.9241 11.9099 16.3676 12.2903 16.3112 13.0066L15.6186 20.6477H16.2608Z" fill="black"/>
</svg>
