<svg width="28" height="28" viewBox="0 0 28 28" fill="none" xmlns="http://www.w3.org/2000/svg">
<path d="M14.105 26.21C20.7369 26.21 26.2121 20.7273 26.2121 14.105C26.2121 7.47312 20.7273 2 14.0954 2C7.47523 2 2 7.47312 2 14.105C2 20.7273 7.48484 26.21 14.105 26.21ZM14.105 23.8255C8.71085 23.8255 4.39412 19.4991 4.39412 14.105C4.39412 8.71085 8.70124 4.38452 14.0954 4.38452C19.4895 4.38452 23.8276 8.71085 23.8276 14.105C23.8276 19.4991 19.4991 23.8255 14.105 23.8255Z" fill="black"/>
<path d="M9.01275 19.8898C10.6346 21.4808 12.8954 21.4454 14.484 19.8664L19.1462 15.2138C19.3953 14.9647 19.4124 14.4992 19.1441 14.2522C18.8895 13.9998 18.4379 13.9998 18.1812 14.2639L13.5734 18.8642C12.5131 19.9341 11.0211 19.9257 10.0086 18.9228C8.96939 17.9028 8.98767 16.4204 10.0522 15.3409L16.3552 9.03992C17.0087 8.38859 17.9412 8.3239 18.5412 8.9164C19.1551 9.53234 19.0712 10.4319 18.4081 11.0949L12.23 17.273C12.0317 17.4905 11.8056 17.4767 11.6178 17.3061C11.4226 17.1418 11.4259 16.8805 11.6317 16.6822L15.9409 12.3708C16.2209 12.0908 16.2423 11.7052 15.9643 11.4369C15.6884 11.1631 15.3008 11.1727 15.0228 11.4507L10.7094 15.778C9.99455 16.4907 9.97416 17.5998 10.6454 18.2827C11.3368 18.9837 12.3948 18.9624 13.1288 18.2284L19.34 12.0109C20.5737 10.7792 20.6101 9.1107 19.4668 7.96742C18.3022 6.82203 16.6294 6.83703 15.3978 8.07078L9.05002 14.4132C7.46143 16.0039 7.47408 18.3683 9.01275 19.8898Z" fill="black"/>
</svg>
