<svg width="28" height="29" viewBox="0 0 28 29" fill="none" xmlns="http://www.w3.org/2000/svg">
<path d="M13.7677 17.6569C19.0388 17.6569 22.5589 14.5118 22.5589 9.75304C22.5589 7.29046 21.5225 4.0514 20.0185 1.7475C19.2912 0.620858 17.0087 0 13.7773 0C10.5247 0 8.24961 0.620858 7.51695 1.7475C6.01508 4.04929 5 7.28835 5 9.75304C5 14.5118 8.50086 17.6569 13.7677 17.6569ZM13.7677 15.6131C9.61155 15.6131 7.04163 13.3638 7.04163 9.75304C7.04163 8.03226 7.62991 5.82538 8.60398 3.95436C9.65936 4.48827 11.4962 4.78991 13.7773 4.78991C16.0414 4.78991 17.8782 4.48827 18.9315 3.95436C19.9194 5.83382 20.5152 8.03858 20.5152 9.75304C20.5152 13.3617 17.9239 15.6131 13.7677 15.6131ZM13.7773 3.02999C11.4493 3.02999 9.39475 2.69343 9.39475 2.38804C9.39475 2.10398 11.4781 1.76742 13.7773 1.76742C16.0691 1.76742 18.1599 2.10398 18.1599 2.38804C18.1599 2.69343 16.0883 3.02999 13.7773 3.02999ZM13.7677 25.4473C14.3241 25.4473 14.7934 24.9759 14.7934 24.4333V16.4927H12.7655V24.4333C12.7655 24.9876 13.2252 25.4473 13.7677 25.4473ZM13.7677 28.4667C18.1555 28.4529 20.7851 27.3551 20.7851 25.4386C20.7851 23.5317 18.1491 22.4222 13.7677 22.4222C9.39593 22.4222 6.77375 23.5317 6.77375 25.4386C6.77375 27.3551 9.38422 28.4529 13.7677 28.4667ZM13.7677 26.5226C10.809 26.5226 8.941 26.0716 8.941 25.4386C8.941 24.813 10.8186 24.3546 13.7677 24.3546C16.7307 24.3546 18.6179 24.813 18.6179 25.4386C18.6179 26.0716 16.7307 26.5226 13.7677 26.5226Z" fill="black"/>
</svg>
