<svg width="28" height="28" viewBox="0 0 28 28" fill="none" xmlns="http://www.w3.org/2000/svg">
<path d="M4 4.94908C4 9.14111 10.2834 12.401 10.2834 19.1494V20.288C10.2834 20.7762 10.5588 21.0515 11.0566 21.0515H16.453C16.9487 21.0515 17.2241 20.7762 17.2241 20.288V19.1494C17.2241 12.3701 23.5075 9.23486 23.5075 4.94908C23.5075 1.82768 19.9276 0.088623 13.7596 0.088623C7.58195 0.088623 4 1.82768 4 4.94908ZM6.04796 4.94908C6.04796 3.38345 8.75335 2.13658 13.7596 2.13658C18.7541 2.13658 21.4616 3.38345 21.4616 4.94908C21.4616 7.65049 15.1879 12.0907 15.1879 18.5712V20.0796L16.5065 19.1217H11.001L12.3217 20.0796V18.5733C12.3217 12.1003 6.04796 7.63127 6.04796 4.94908ZM5.36476 7.41822H22.1544V5.63838H5.36476V7.41822ZM10.8979 23.7684H16.6213C17.0343 23.7684 17.3685 23.4375 17.3685 23.0233C17.3685 22.605 17.0343 22.2762 16.6213 22.2762H10.8979C10.4732 22.2762 10.139 22.605 10.139 23.0233C10.139 23.4375 10.4732 23.7684 10.8979 23.7684ZM13.7596 27.2053C15.3733 27.2053 16.5341 26.3383 16.7591 24.9855H10.7484C10.9541 26.3383 12.115 27.2053 13.7596 27.2053Z" fill="black"/>
</svg>
