<svg width="28" height="28" viewBox="0 0 28 28" fill="none" xmlns="http://www.w3.org/2000/svg">
<path d="M4.84421 22.3691H22.3155C24.8545 22.3691 26.1597 21.066 26.1597 18.5634V10.1261C26.1597 7.62552 24.8545 6.32029 22.3155 6.32029H4.84421C2.31484 6.32029 1 7.61591 1 10.1261V18.5634C1 21.0756 2.31484 22.3691 4.84421 22.3691ZM4.95438 7.04311H6.99508V5.03263C6.99508 4.43428 6.56828 4.01709 5.96992 4.01709C5.37367 4.01709 4.95438 4.43428 4.95438 5.03263V7.04311ZM8.75852 7.04311H10.7971V5.03263C10.7971 4.43428 10.3703 4.01709 9.77195 4.01709C9.1757 4.01709 8.75852 4.43428 8.75852 5.03263V7.04311ZM12.5605 7.04311H14.5991V5.03263C14.5991 4.43428 14.1723 4.01709 13.574 4.01709C12.9777 4.01709 12.5605 4.43428 12.5605 5.03263V7.04311ZM16.3626 7.04311H18.4012V5.03263C18.4012 4.43428 17.984 4.01709 17.3877 4.01709C16.7894 4.01709 16.3626 4.43428 16.3626 5.03263V7.04311ZM20.1646 7.04311H22.2053V5.03263C22.2053 4.43428 21.786 4.01709 21.1898 4.01709C20.5914 4.01709 20.1646 4.43428 20.1646 5.03263V7.04311ZM4.95438 21.6613V23.643C4.95438 24.2413 5.37367 24.6681 5.96992 24.6681C6.56828 24.6681 6.99508 24.2413 6.99508 23.643V21.6613H4.95438ZM8.75852 21.6613V23.643C8.75852 24.2413 9.1757 24.6681 9.77195 24.6681C10.3703 24.6681 10.7971 24.2413 10.7971 23.643V21.6613H8.75852ZM12.5605 21.6613V23.643C12.5605 24.2413 12.9777 24.6681 13.574 24.6681C14.1723 24.6681 14.5991 24.2413 14.5991 23.643V21.6613H12.5605ZM16.3626 21.6613V23.643C16.3626 24.2413 16.7894 24.6681 17.3877 24.6681C17.984 24.6681 18.4012 24.2413 18.4012 23.643V21.6613H16.3626ZM20.1646 21.6613V23.643C20.1646 24.2413 20.5914 24.6681 21.1898 24.6681C21.786 24.6681 22.2053 24.2413 22.2053 23.643V21.6613H20.1646Z" fill="black"/>
</svg>
