<svg width="28" height="28" viewBox="0 0 28 28" fill="none" xmlns="http://www.w3.org/2000/svg">
<path d="M4.07835 25.2275C4.67389 25.2275 5.16092 24.7543 5.16092 24.1545V17.7402C5.47498 17.6197 6.4753 17.2611 7.99125 17.2611C12.2555 17.2611 15.1029 19.3927 19.2342 19.3927C21.0391 19.3927 21.8496 19.1682 22.755 18.755C23.591 18.3727 24.0888 17.7001 24.0888 16.6093V4.91726C24.0888 4.15789 23.4991 3.68704 22.7119 3.68704C22.0554 3.68704 21.0026 4.13915 19.1072 4.13915C15.0265 4.13915 12.1381 2.00751 7.86421 2.00751C6.0846 2.00751 5.28773 2.2236 4.34437 2.64946C3.51258 3.02751 3 3.63477 3 4.69907V24.1545C3 24.7426 3.49453 25.2275 4.07835 25.2275ZM5.20733 12.1611V8.39305C5.41357 8.04852 6.29342 7.58539 7.89796 7.58539C8.26031 7.58539 8.84976 7.61516 9.30632 7.6768V4.27132C10.8187 4.44382 12.1795 4.88398 13.5755 5.29531V8.69867C14.9695 9.13344 16.3669 9.50211 17.835 9.64484V6.23937C18.2372 6.28507 18.6436 6.30523 19.0671 6.30523C20.2116 6.30523 21.1713 6.1782 21.8911 5.97874V9.38C21.3326 9.53562 20.3152 9.7107 19.0671 9.7107C18.7102 9.7107 18.2845 9.69148 17.835 9.64484V13.4108C18.2972 13.467 18.7244 13.4766 19.143 13.4766C20.2854 13.4766 21.1903 13.3454 21.8911 13.148V16.4127C21.6933 16.7572 20.8029 17.2119 19.1941 17.2119C18.7343 17.2119 18.282 17.18 17.835 17.1184V13.4108C16.3036 13.2266 15.0164 12.9336 13.5755 12.4646V16.0731C12.2477 15.6756 10.8795 15.2898 9.30632 15.1428V11.4448C8.86522 11.3916 8.49726 11.3534 7.89796 11.3534C6.29342 11.3534 5.41357 11.8166 5.20733 12.1611ZM9.30632 11.4448C10.8708 11.6312 12.0675 12.0245 13.5755 12.4646V8.69867C12.157 8.27984 10.8804 7.85773 9.30632 7.6768V11.4448Z" fill="black"/>
</svg>
