<svg width="28" height="28" viewBox="0 0 28 28" fill="none" xmlns="http://www.w3.org/2000/svg">
<path d="M14.105 26.21C20.7369 26.21 26.2121 20.7273 26.2121 14.105C26.2121 7.47312 20.7273 2 14.0954 2C7.47523 2 2 7.47312 2 14.105C2 20.7273 7.48484 26.21 14.105 26.21ZM14.105 23.8255C8.71085 23.8255 4.39412 19.4991 4.39412 14.105C4.39412 8.71085 8.70124 4.38452 14.0954 4.38452C19.4895 4.38452 23.8276 8.71085 23.8276 14.105C23.8276 19.4991 19.4991 23.8255 14.105 23.8255Z" fill="black"/>
<path d="M9.53536 19.7537C10.5736 20.0628 11.7249 20.0926 12.8858 19.8697L8.33279 15.3263C8.1099 16.4776 8.14926 17.6363 8.45841 18.6767C8.65973 19.333 8.8695 19.5427 9.53536 19.7537ZM17.4402 17.4317C18.4088 16.4769 19.093 15.3655 19.5181 14.188L14.0145 8.69396C12.8466 9.1074 11.7256 9.80326 10.7708 10.7698C9.79998 11.7289 9.11373 12.8499 8.69068 14.0157L14.1868 19.5118C15.3622 19.0962 16.4736 18.4025 17.4402 17.4317ZM13.3332 16.5491C13.2001 16.6587 13.0234 16.6491 12.8923 16.5394L11.6534 15.3102C11.5437 15.1962 11.5395 15.0099 11.6534 14.8789C11.7886 14.7629 11.975 14.7629 12.0868 14.8789L12.4885 15.2785L12.8724 14.8967L12.4686 14.5046C12.3451 14.3949 12.3451 14.1852 12.4686 14.0712C12.5804 13.9402 12.7805 13.9402 12.9019 14.0595L13.3058 14.4772L13.6759 14.0837L13.2837 13.6819C13.1602 13.5659 13.1506 13.3721 13.2837 13.2678C13.3998 13.1347 13.584 13.1347 13.6979 13.2582L14.1092 13.6674L14.5027 13.2781L14.0893 12.8722C13.9658 12.7604 13.9658 12.5623 14.0893 12.443C14.2224 12.327 14.4109 12.327 14.513 12.443L14.9148 12.8427L15.3083 12.4726L14.8948 12.0687C14.7905 11.9473 14.7809 11.7493 14.8948 11.6279C15.028 11.5236 15.2068 11.514 15.3282 11.6279L16.5746 12.8605C16.6885 12.9861 16.6789 13.1841 16.5746 13.3055C16.4532 13.4194 16.2627 13.4194 16.1337 13.2959L15.7299 12.8942L15.3481 13.2781L15.7594 13.6894C15.8755 13.7916 15.8755 13.9897 15.7594 14.1132C15.638 14.2346 15.4517 14.225 15.3282 14.1036L14.9148 13.6998L14.533 14.0837L14.9443 14.4929C15.0582 14.6089 15.0636 14.8123 14.9443 14.9187C14.8283 15.0476 14.6344 15.0401 14.5205 14.9187L14.1092 14.5266L13.7157 14.8967L14.1312 15.2984C14.2623 15.4219 14.2623 15.62 14.1312 15.7339C14.0152 15.8553 13.8268 15.8649 13.6979 15.7339L13.3058 15.3301L12.9219 15.7044L13.3332 16.1253C13.4396 16.2371 13.4396 16.4234 13.3332 16.5491ZM19.7504 9.52904C19.5395 8.87279 19.3297 8.66303 18.6734 8.45209C17.633 8.14295 16.486 8.11318 15.323 8.33396L19.8685 12.8794C20.0989 11.7165 20.0595 10.5673 19.7504 9.52904Z" fill="black"/>
</svg>
