<svg width="28" height="28" viewBox="0 0 28 28" fill="none" xmlns="http://www.w3.org/2000/svg">
<path d="M2.25586 16.8637L9.88172 12.4537L15.4488 17.1799L25.2895 11.2985L24.4078 9.85852L15.5679 15.1465L10.0242 10.4416L2.25586 14.9292V16.8637ZM9.78632 13.9957C11.017 13.9957 12.0241 12.9907 12.0241 11.7579C12.0241 10.5272 11.017 9.52969 9.78632 9.52969C8.55351 9.52969 7.54852 10.5272 7.54852 11.7579C7.54852 12.9907 8.55351 13.9957 9.78632 13.9957ZM15.4526 18.3935C16.6854 18.3935 17.6808 17.3885 17.6808 16.1557C17.6808 14.925 16.6854 13.9275 15.4526 13.9275C14.2219 13.9275 13.2148 14.925 13.2148 16.1557C13.2148 17.3885 14.2219 18.3935 15.4526 18.3935ZM24.2759 13.0362C25.5066 13.0362 26.5116 12.0291 26.5116 10.7984C26.5116 9.56555 25.5066 8.56055 24.2759 8.56055C23.0431 8.56055 22.0381 9.56555 22.0381 10.7984C22.0381 12.0291 23.0431 13.0362 24.2759 13.0362Z" fill="black"/>
<path d="M1 24.2688C1 24.8714 1.40242 25.2642 2.00711 25.2642H25.476C26.1161 25.2642 26.6383 24.7781 26.6383 24.1221C26.6383 23.4757 26.1161 22.9779 25.476 22.9779H3.61983C3.38428 22.9779 3.29592 22.8895 3.29592 22.654V4.21946C3.29592 3.58688 2.80022 3.0647 2.15382 3.0647C1.4957 3.0647 1 3.58688 1 4.21946V24.2688Z" fill="black"/>
</svg>
