<svg width="43" height="28" viewBox="0 0 43 28" fill="none" xmlns="http://www.w3.org/2000/svg">
<path d="M27.1422 26.1694C27.6537 25.8622 27.8376 25.1848 27.5442 24.6638L15.0933 3.12989C14.5638 2.21161 13.8044 1.93153 12.9248 2.01356C12.1933 2.09559 11.2476 2.46731 10.3512 2.98903C7.47631 4.65661 6.32295 7.26989 3.57443 8.85356C2.37443 9.5452 1.31529 9.81473 0.784898 10.1161C0.0763859 10.5268 -0.229003 11.235 0.191229 11.9745L4.89162 20.1277C5.41896 21.0418 6.19006 21.3164 7.06216 21.2302C7.79154 21.1503 8.74685 20.7764 9.63372 20.2451C12.5182 18.5775 13.6619 15.9739 16.4104 14.3806C17.25 13.9027 18.0223 13.635 18.5308 13.4346L25.6441 25.7611C25.9493 26.296 26.6074 26.4767 27.1422 26.1694ZM6.69067 12.5818L5.38262 10.3142C6.42184 9.61503 7.20841 8.81886 7.94599 8.0269L9.22638 10.238C8.45247 11.0961 7.63333 11.9079 6.69067 12.5818ZM11.7387 7.86659L10.4327 5.57557C10.7468 5.3351 11.0918 5.10307 11.4494 4.89331C11.7309 4.72807 12.4917 4.29377 13.2215 4.25018L14.6095 6.66261C14.213 6.60378 13.526 6.74769 12.6715 7.2448C12.4359 7.3866 12.0443 7.64628 11.7387 7.86659ZM5.36575 16.564L3.87324 13.9735C4.31575 13.8509 5.05286 13.5832 5.87857 13.0979C6.12583 12.9636 6.38974 12.7772 6.69067 12.5818L8.18318 15.1702C7.89302 15.387 7.61342 15.5518 7.32256 15.7158C6.57044 16.149 5.9238 16.4211 5.36575 16.564ZM10.7264 12.8361L9.22638 10.238C10.0397 9.39917 10.743 8.60933 11.7387 7.86659L13.2483 10.4454C12.2601 11.1936 11.5865 11.9429 10.7264 12.8361ZM9.59693 17.6255L8.18318 15.1702C9.15959 14.4359 9.92482 13.7208 10.7264 12.8361L12.074 15.1838C11.279 16.0386 10.534 16.9029 9.59693 17.6255ZM14.6587 12.8869L13.2483 10.4454C13.537 10.2366 13.7679 10.0665 14.1619 9.84074C15.0377 9.34785 15.7151 9.20394 16.102 9.24894L17.3962 11.4823C16.7168 11.6827 15.9157 12.1414 15.311 12.4826C15.0823 12.6146 14.8673 12.7433 14.6587 12.8869ZM21.9089 11.9656L23.1731 14.1495L23.5811 13.4346C24.0897 13.635 24.8524 13.9027 25.7015 14.3806C28.4404 15.9739 29.5938 18.5775 32.4665 20.2451C33.3651 20.7764 34.3108 21.1503 35.0402 21.2302C35.9219 21.3164 36.6834 21.0418 37.2108 20.1277L41.9208 11.9745C42.341 11.235 42.026 10.5268 41.3271 10.1161C40.7967 9.81473 39.7279 9.5452 38.5279 8.85356C35.7794 7.26989 34.6357 4.65661 31.7608 2.98903C30.8643 2.46731 29.909 2.09559 29.1872 2.01356C28.3076 1.93153 27.5482 2.21161 27.0187 3.12989L21.9089 11.9656ZM27.5025 6.66261L28.8904 4.25018C29.6203 4.29377 30.3715 4.72807 30.6529 4.89331C31.0202 5.10307 31.3556 5.3351 31.6697 5.57557L30.3637 7.86659C30.0677 7.64628 29.6761 7.3866 29.4309 7.2448C28.5764 6.74769 27.899 6.60378 27.5025 6.66261ZM32.876 10.238L34.1639 8.0269C34.9036 8.81886 35.6901 9.61503 36.7294 10.3142L35.4213 12.5818C34.4786 11.9079 33.6595 11.0961 32.876 10.238ZM28.8637 10.4454L30.3637 7.86659C31.369 8.60933 32.0723 9.39917 32.876 10.238L31.3856 12.8361C30.5254 11.9429 29.8518 11.1936 28.8637 10.4454ZM33.9288 15.1702L35.4213 12.5818C35.7222 12.7772 35.9861 12.9636 36.2334 13.0979C37.0591 13.5832 37.7962 13.8509 38.2387 13.9735L36.7462 16.564C36.1882 16.4211 35.5319 16.149 34.7894 15.7158C34.4986 15.5518 34.219 15.387 33.9288 15.1702ZM24.7157 11.4823L26.01 9.24894C26.3969 9.20394 27.0743 9.34785 27.9405 9.84074C28.3441 10.0665 28.575 10.2366 28.8637 10.4454L27.4436 12.8869C27.235 12.7433 27.018 12.6146 26.7914 12.4826C26.1963 12.1414 25.3952 11.6827 24.7157 11.4823ZM30.0283 15.1838L31.3856 12.8361C32.1872 13.7208 32.9428 14.4359 33.9288 15.1702L32.5129 17.6255C31.578 16.9029 30.8329 16.0386 30.0283 15.1838ZM14.9697 26.1694C15.5025 26.4767 16.1627 26.296 16.4582 25.7611L20.201 19.2956L18.9293 17.1021L14.5678 24.6638C14.2647 25.1848 14.4583 25.8622 14.9697 26.1694Z" fill="black"/>
</svg>
