<svg width="28" height="28" viewBox="0 0 28 28" fill="none" xmlns="http://www.w3.org/2000/svg">
<path d="M14.105 26.21C20.7369 26.21 26.2121 20.7273 26.2121 14.105C26.2121 7.47312 20.7273 2 14.0954 2C7.47523 2 2 7.47312 2 14.105C2 20.7273 7.48484 26.21 14.105 26.21ZM14.105 23.8255C8.71085 23.8255 4.39412 19.4991 4.39412 14.105C4.39412 8.71085 8.70124 4.38452 14.0954 4.38452C19.4895 4.38452 23.8276 8.71085 23.8276 14.105C23.8276 19.4991 19.4991 23.8255 14.105 23.8255Z" fill="black"/>
<path d="M9.89707 19.8012H18.2937C19.6062 19.8012 20.2857 19.126 20.2857 17.8327V10.3773C20.2857 9.08398 19.6062 8.40875 18.2937 8.40875H9.89707C8.58668 8.40875 7.90723 9.07437 7.90723 10.3773V17.8327C7.90723 19.126 8.58668 19.8012 9.89707 19.8012ZM9.88043 18.5797C9.38894 18.5797 9.133 18.3451 9.133 17.8205V12.1524C9.133 11.6204 9.40816 11.357 9.92848 11.357H18.2623C18.773 11.357 19.0599 11.6204 19.0599 12.1524V17.8205C19.0599 18.3451 18.8115 18.5797 18.3008 18.5797H9.88043ZM12.8783 13.5741H13.3034C13.5645 13.5741 13.6583 13.4996 13.6583 13.2385V12.8134C13.6583 12.5459 13.5645 12.4585 13.3034 12.4585H12.8783C12.6109 12.4585 12.533 12.5459 12.533 12.8134V13.2385C12.533 13.4996 12.6109 13.5741 12.8783 13.5741ZM14.8894 13.5741H15.3125C15.5799 13.5741 15.6598 13.4996 15.6598 13.2385V12.8134C15.6598 12.5459 15.5799 12.4585 15.3125 12.4585H14.8894C14.6262 12.4585 14.5421 12.5459 14.5421 12.8134V13.2385C14.5421 13.4996 14.6262 13.5741 14.8894 13.5741ZM16.8931 13.5741H17.3045C17.5698 13.5741 17.6614 13.4996 17.6614 13.2385V12.8134C17.6614 12.5459 17.5698 12.4585 17.3045 12.4585H16.8931C16.6182 12.4585 16.5341 12.5459 16.5341 12.8134V13.2385C16.5341 13.4996 16.6182 13.5741 16.8931 13.5741ZM10.8885 15.5405H11.3094C11.5747 15.5405 11.6568 15.466 11.6568 15.2049V14.7819C11.6568 14.5166 11.5747 14.427 11.3094 14.427H10.8885C10.6232 14.427 10.5294 14.5166 10.5294 14.7819V15.2049C10.5294 15.466 10.6232 15.5405 10.8885 15.5405ZM12.8783 15.5405H13.3034C13.5645 15.5405 13.6583 15.466 13.6583 15.2049V14.7819C13.6583 14.5166 13.5645 14.427 13.3034 14.427H12.8783C12.6109 14.427 12.533 14.5166 12.533 14.7819V15.2049C12.533 15.466 12.6109 15.5405 12.8783 15.5405ZM14.8894 15.5405H15.3125C15.5799 15.5405 15.6598 15.466 15.6598 15.2049V14.7819C15.6598 14.5166 15.5799 14.427 15.3125 14.427H14.8894C14.6262 14.427 14.5421 14.5166 14.5421 14.7819V15.2049C14.5421 15.466 14.6262 15.5405 14.8894 15.5405ZM16.8931 15.5405H17.3045C17.5698 15.5405 17.6614 15.466 17.6614 15.2049V14.7819C17.6614 14.5166 17.5698 14.427 17.3045 14.427H16.8931C16.6182 14.427 16.5341 14.5166 16.5341 14.7819V15.2049C16.5341 15.466 16.6182 15.5405 16.8931 15.5405ZM10.8885 17.5187H11.3094C11.5747 17.5187 11.6568 17.4387 11.6568 17.1734V16.7366C11.6568 16.4872 11.5747 16.4009 11.3094 16.4009H10.8885C10.6232 16.4009 10.5294 16.4872 10.5294 16.7366V17.1734C10.5294 17.4387 10.6232 17.5187 10.8885 17.5187ZM12.8783 17.5187H13.3034C13.5645 17.5187 13.6583 17.4387 13.6583 17.1734V16.7366C13.6583 16.4872 13.5645 16.4009 13.3034 16.4009H12.8783C12.6109 16.4009 12.533 16.4872 12.533 16.7366V17.1734C12.533 17.4387 12.6109 17.5187 12.8783 17.5187ZM14.8894 17.5187H15.3125C15.5799 17.5187 15.6598 17.4387 15.6598 17.1734V16.7366C15.6598 16.4872 15.5799 16.4009 15.3125 16.4009H14.8894C14.6262 16.4009 14.5421 16.4872 14.5421 16.7366V17.1734C14.5421 17.4387 14.6262 17.5187 14.8894 17.5187Z" fill="black"/>
</svg>
