<svg width="28" height="28" viewBox="0 0 28 28" fill="none" xmlns="http://www.w3.org/2000/svg">
<path d="M23.793 16.539V7.6796C23.793 6.29094 23.2551 5.79125 22.0923 5.30516C20.7897 4.77219 16.3987 3.1468 15.1213 2.78211C14.7332 2.67898 14.29 2.5768 13.8965 2.5768C13.503 2.5768 13.0598 2.65766 12.6812 2.78211C11.3943 3.21828 7.00328 4.76258 5.70062 5.30516C4.5475 5.80086 4 6.29094 4 7.6796V16.539C4 20.8142 6.33578 22.4975 13.0755 26.1767C13.3823 26.3387 13.69 26.4195 13.8965 26.4195C14.103 26.4195 14.4203 26.3387 14.7175 26.1767C21.4476 22.4879 23.793 20.8142 23.793 16.539ZM13.6926 23.9183C13.5604 23.8895 13.4228 23.8159 13.2205 23.6902C7.9321 20.4943 6.20077 19.5641 6.20077 16.1012V8.05343C6.20077 7.64023 6.27952 7.46562 6.61186 7.34421C8.37553 6.72312 11.7151 5.53155 13.2843 4.91491C13.4708 4.85444 13.5812 4.82046 13.6926 4.81085V23.9183Z" fill="black"/>
</svg>
