<svg width="28" height="28" viewBox="0 0 28 28" fill="none" xmlns="http://www.w3.org/2000/svg">
<path d="M14.105 26.21C20.7369 26.21 26.2121 20.7273 26.2121 14.105C26.2121 7.47312 20.7273 2 14.0954 2C7.47523 2 2 7.47312 2 14.105C2 20.7273 7.48484 26.21 14.105 26.21Z" fill="black"/>
<path d="M17.633 8.78678C17.8545 8.92201 18.0622 9.08819 18.2677 9.26069L9.24358 18.2677C9.06358 18.0718 8.90491 17.8695 8.77178 17.6384L9.97787 16.4281C10.1579 16.2598 10.1462 16.0095 9.97787 15.8412C9.80959 15.6805 9.56678 15.6805 9.40811 15.8412L8.33397 16.8845C7.91819 16.0447 7.67725 15.1058 7.67725 14.1146C7.67725 10.6105 10.5912 7.68475 14.0954 7.68475C15.0866 7.68475 16.0372 7.9374 16.8845 8.35319L15.8337 9.40389C15.6847 9.57428 15.6751 9.81709 15.8337 9.97577C16.0095 10.1516 16.2544 10.1516 16.4131 9.97577L17.633 8.78678ZM15.451 10.9475C15.6172 10.7792 15.6214 10.5343 15.451 10.3681C15.2923 10.2073 15.0378 10.2073 14.877 10.3681L14.0183 11.2269C13.8383 11.4069 13.8383 11.6614 14.0183 11.8105C14.1748 11.967 14.424 11.9712 14.5805 11.8105L15.451 10.9475ZM13.6377 12.7609C13.7867 12.6139 13.7867 12.3498 13.6377 12.1986C13.4673 12.0228 13.2127 12.0228 13.0562 12.1986L12.1857 13.0594C12.027 13.2277 12.027 13.4748 12.1857 13.6527C12.3348 13.8017 12.6085 13.8017 12.7576 13.6527L13.6377 12.7609ZM11.8008 14.5859C11.952 14.4273 11.9616 14.1844 11.8008 14.0258C11.6443 13.8458 11.4015 13.8458 11.2236 14.0258L10.3606 14.8845C10.2019 15.0432 10.2019 15.3073 10.3606 15.4564C10.5268 15.6226 10.7876 15.6343 10.9442 15.4564L11.8008 14.5859ZM19.8568 11.3309C20.2768 12.1728 20.5252 13.1234 20.5252 14.1146C20.5252 17.6187 17.5995 20.5444 14.0954 20.5444C13.1042 20.5444 12.1674 20.2939 11.318 19.876L12.3805 18.788C12.5391 18.6294 12.5391 18.3866 12.3805 18.2183C12.2143 18.05 11.9715 18.0479 11.8011 18.2183L10.5598 19.4403C10.3404 19.2955 10.1328 19.1389 9.94647 18.9685L18.9514 9.94975C19.1293 10.1553 19.2859 10.3672 19.4307 10.5844L18.2438 11.7734C18.068 11.93 18.068 12.1845 18.2438 12.3528C18.4046 12.5211 18.6474 12.5211 18.8157 12.3528L19.8568 11.3309ZM17.8536 13.317C18.0123 13.1584 18.0123 12.8942 17.8536 12.7238C17.6874 12.5748 17.4287 12.5651 17.27 12.7238L16.4134 13.6135C16.2622 13.7722 16.2526 14.0192 16.4134 14.1779C16.5795 14.3558 16.8148 14.3558 16.9927 14.1779L17.8536 13.317ZM16.0189 15.1379C16.1968 14.9792 16.1968 14.7289 16.0189 14.5585C15.8698 14.4094 15.6057 14.4094 15.4587 14.5585L14.5669 15.429C14.4179 15.5876 14.4179 15.8614 14.5669 16.0105C14.7469 16.1691 14.9898 16.1691 15.158 16.0105L16.0189 15.1379ZM14.1959 16.9726C14.3642 16.7947 14.3642 16.5423 14.1959 16.3911C14.0373 16.2345 13.7944 16.2324 13.6337 16.3911L12.7749 17.2519C12.5949 17.4202 12.5949 17.6694 12.7749 17.8334C12.9144 17.9921 13.1764 17.9921 13.3351 17.8334L14.1959 16.9726Z" fill="white"/>
</svg>
