<svg width="28" height="28" viewBox="0 0 28 28" fill="none" xmlns="http://www.w3.org/2000/svg">
<path d="M7.80577 26.3655H20.2891C22.8013 26.3655 24.0948 25.0506 24.0948 22.5287V11.8966C24.0948 10.2688 23.8853 9.52188 22.8655 8.4829L16.7101 2.2314C15.7309 1.23086 14.9167 1 13.4544 1H7.80577C5.30523 1 4 2.32445 4 4.84632V22.5287C4 25.0602 5.29562 26.3655 7.80577 26.3655ZM7.98905 24.0695C6.85795 24.0695 6.29592 23.4777 6.29592 22.386V4.98905C6.29592 3.90694 6.85795 3.29592 7.99866 3.29592H12.9941V9.72273C12.9941 11.3997 13.8126 12.2106 15.482 12.2106H21.7989V22.386C21.7989 23.4777 21.2369 24.0695 20.0983 24.0695H7.98905ZM15.6993 10.1859C15.2137 10.1859 15.0189 9.97937 15.0189 9.49586V3.61491L21.4799 10.1859H15.6993Z" fill="black"/>
<path d="M10.6693 21.8334C10.6693 22.544 10.9857 22.8796 11.6516 22.8796H16.4645C17.1283 22.8796 17.4447 22.544 17.4447 21.8334V18.1352C17.4447 17.4925 17.1782 17.1569 16.6494 17.1112V16.0302C16.6494 14.2966 15.5999 13.1341 14.057 13.1341C12.512 13.1341 11.4742 14.2966 11.4742 16.0302V17.1091C10.9358 17.1569 10.6693 17.4925 10.6693 18.1352V21.8334ZM12.561 17.0889V15.9332C12.561 14.8883 13.1603 14.1932 14.057 14.1932C14.9559 14.1932 15.5552 14.8862 15.5552 15.9332V17.0889H12.561Z" fill="black"/>
</svg>
