<svg width="28" height="28" viewBox="0 0 28 28" fill="none" xmlns="http://www.w3.org/2000/svg">
<path d="M18.9055 24.6315L19.2015 22.9902C16.5985 23.0436 14.9 18.7147 14.3825 15.1168C18.9582 10.9684 22.2179 5.70804 19.6845 3.65843L18.5935 4.91444C19.9972 5.92554 17.5752 9.97437 13.302 13.8671C9.06617 12.1262 4.80781 11.4645 2.65906 14.0005L3.86608 14.918C5.3464 13.2976 8.70429 13.7687 12.7421 15.4447C13.3182 19.2502 15.3371 24.4796 18.9055 24.6315ZM16.051 21.0378C23.8102 16.0346 24.95 9.99242 24.2984 8.01711L22.7007 8.49499C23.1861 9.8757 22.2589 15.162 14.978 19.771L16.051 21.0378ZM12.9451 25.7087L14.2158 24.376C12.2466 23.8592 8.08717 19.9714 7.93858 13.2765L6.27265 13.4159C6.43507 20.1092 10.4459 24.5227 12.9451 25.7087ZM17.1015 10.448L17.8137 8.94827C14.5449 6.78148 8.74953 4.98101 4.25046 7.93273L4.37702 9.68374C8.34171 6.64905 13.838 8.29835 17.1015 10.448ZM14.105 2C7.48484 2 2 7.47523 2 14.1071C2 20.7273 7.49445 26.2121 14.1146 26.2121C20.7465 26.2121 26.2121 20.7273 26.2121 14.1071C26.2121 7.47523 20.7369 2 14.105 2ZM14.105 3.8785C19.6998 3.8785 24.3336 8.51233 24.3336 14.1071C24.3336 19.6998 19.7094 24.3336 14.1146 24.3336C8.52194 24.3336 3.8785 19.6998 3.8785 14.1071C3.8785 8.51233 8.51233 3.8785 14.105 3.8785Z" fill="black"/>
</svg>
