<svg width="30" height="28" viewBox="0 0 30 28" fill="none" xmlns="http://www.w3.org/2000/svg">
<path d="M2.79541 26.8332C3.90166 27.9395 5.23853 27.8638 6.35017 26.5829L17.5369 13.7607L13.8785 10.1024L1.02752 21.2603C-0.262944 22.3815 -0.329037 23.7088 0.779319 24.8267L2.79541 26.8332ZM23.914 16.4776C24.4959 17.034 25.182 17.0713 25.732 16.5191L29.2298 13.0384C29.7586 12.5075 29.7213 11.7927 29.1595 11.2321L28.3327 10.3935C27.8355 9.90388 27.5025 9.82935 26.9702 9.87083L25.6877 10.0222L24.8468 9.18341L25.2178 7.62809C25.4255 6.76044 25.106 5.87544 24.2084 4.97778L21.8761 2.66263C18.5423 -0.659404 12.3462 -1.01424 8.93439 2.4006C8.32759 3.0095 8.40353 3.71614 8.78158 4.17153C9.09025 4.51488 9.604 4.70191 10.1491 4.54137C12.3403 3.89543 14.2892 3.75808 15.9178 4.71434L15.0872 6.88958C14.6794 7.93841 14.884 8.70059 15.5717 9.39996L18.0985 11.9289C18.6823 12.5127 19.2727 12.6955 20.1082 12.5263L21.8578 12.1649L22.6913 13.0037L22.5602 14.2904C22.5124 14.8377 22.5762 15.1825 23.0892 15.6646L23.914 16.4776Z" fill="black"/>
</svg>
