<svg width="28" height="28" viewBox="0 0 28 28" fill="none" xmlns="http://www.w3.org/2000/svg">
<path d="M14.0209 24.0342C20.656 24.0342 26.0342 18.6581 26.0342 12.023C26.0342 5.38781 20.656 0 14.0209 0C7.3782 0 2 5.3782 2 12.023C2 18.6581 7.3782 24.0342 14.0209 24.0342ZM14.0209 21.8859C8.5646 21.8859 4.14827 17.4696 4.14827 12.023C4.14827 6.5646 8.5646 2.14827 14.0209 2.14827C19.4696 2.14827 23.8859 6.5646 23.8859 12.023C23.8859 17.4696 19.4696 21.8859 14.0209 21.8859ZM12.905 23.0798V26.4982H15.1271V23.0798H12.905ZM7.6168 27.8456H20.4174C20.9408 27.8456 21.2537 27.4512 21.2537 26.9182C21.2537 25.9676 20.4608 25.3064 19.3053 25.3064H8.73852C7.58305 25.3064 6.79016 25.9676 6.79016 26.9182C6.79016 27.4512 7.10305 27.8456 7.6168 27.8456Z" fill="black"/>
<path d="M10.3248 19.3875C12.0752 19.3875 13.0115 17.9437 13.9328 15.3162C14.1735 15.3279 14.3685 15.3183 14.5858 15.2852V17.8547C14.5858 19.2066 15.2824 19.9479 16.5991 19.9479C18.9686 19.9479 21.3278 17.839 21.3278 15.7767C21.3278 14.0306 19.9075 13.1114 17.328 12.2114C17.3397 11.9707 17.3301 11.7565 17.3067 11.5104H19.795C21.1373 11.5104 21.8882 10.8138 21.8882 9.49709C21.8882 7.12756 19.7793 4.76412 17.717 4.76412C15.9923 4.76412 15.0613 6.16943 14.171 8.70631C13.9452 8.7042 13.6968 8.7042 13.4582 8.75858V6.29904C13.4582 4.95467 12.7617 4.21545 11.4449 4.21545C9.06577 4.21545 6.70444 6.31475 6.70444 8.38451C6.70444 10.1252 8.13858 11.0519 10.7181 11.9519C10.716 12.1809 10.7352 12.4219 10.78 12.6434H8.23936C6.89498 12.6434 6.15576 13.3378 6.15576 14.6566C6.15576 17.0337 8.25506 19.3875 10.3248 19.3875ZM14.021 13.7257C13.0961 13.7257 12.3684 12.9916 12.3684 12.0806C12.3684 11.1558 13.0961 10.428 14.021 10.428C14.9383 10.428 15.666 11.1621 15.666 12.0806C15.666 12.998 14.9383 13.7257 14.021 13.7257Z" fill="black"/>
</svg>
