<svg width="29" height="28" viewBox="0 0 29 28" fill="none" xmlns="http://www.w3.org/2000/svg">
<path d="M2.59804 23.3859H18.6862V5.01392H2.59804C1.05257 5.01392 0 6.09204 0 7.70149V20.6983C0 22.3056 1.05257 23.3859 2.59804 23.3859ZM3.6757 20.1395C2.99484 20.1395 2.55586 19.6984 2.55586 19.0197V9.37797C2.55586 8.69921 2.99484 8.25812 3.6757 8.25812H15.3105C15.9935 8.25812 16.4325 8.69921 16.4325 9.37797V19.0197C16.4325 19.6984 15.9935 20.1395 15.3105 20.1395H3.6757ZM4.3439 18.6489H14.6348C14.8118 18.6489 14.944 18.5242 14.944 18.3515V10.0483C14.944 9.87553 14.8118 9.75085 14.6348 9.75085H4.3439C4.18077 9.75085 4.04647 9.87553 4.04647 10.0483V18.3515C4.04647 18.5242 4.18077 18.6489 4.3439 18.6489ZM20.1874 17.5356H28.0399V7.70149C28.0399 6.09204 26.9852 5.01392 25.4419 5.01392H20.1874V17.5356ZM22.3235 10.525C22.1629 10.525 22.0364 10.408 22.0364 10.2517V8.4482C22.0364 8.29937 22.1629 8.16109 22.3235 8.16109H25.7618C25.9202 8.16109 26.0489 8.29937 26.0489 8.4482V10.2517C26.0489 10.408 25.9202 10.525 25.7618 10.525H22.3235ZM22.7186 12.7349C22.3195 12.7349 22.0364 12.4593 22.0364 12.0623C22.0364 11.6556 22.3195 11.38 22.7186 11.38H25.3666C25.7636 11.38 26.0489 11.6556 26.0489 12.0623C26.0489 12.4593 25.7636 12.7349 25.3666 12.7349H22.7186ZM22.7186 14.9587C22.3195 14.9587 22.0364 14.6851 22.0364 14.2764C22.0364 13.8773 22.3195 13.6155 22.7186 13.6155H25.3666C25.7636 13.6155 26.0489 13.8773 26.0489 14.2764C26.0489 14.6851 25.7636 14.9587 25.3666 14.9587H22.7186ZM20.1874 23.3859H25.4419C26.9852 23.3859 28.0399 22.3056 28.0399 20.6983V19.0537H20.1874V23.3859Z" fill="black"/>
</svg>
