<svg width="28" height="28" viewBox="0 0 28 28" fill="none" xmlns="http://www.w3.org/2000/svg">
<path d="M14.105 26.2301C20.7369 26.2301 26.2121 20.7549 26.2121 14.123C26.2121 7.50291 20.7273 2.01807 14.0954 2.01807C7.47523 2.01807 2 7.50291 2 14.123C2 20.7549 7.48484 26.2301 14.105 26.2301Z" fill="black"/>
<path d="M7.85742 13.6219C7.85742 12.8708 8.35312 12.4344 9.04125 12.4344H9.28031V18.493C9.28031 18.9432 8.94188 19.198 8.56992 19.198C8.18625 19.198 7.85742 18.9528 7.85742 18.493V13.6219ZM9.79265 20.082C10.2106 19.857 10.3491 19.5533 10.3491 18.9894V9.95234C10.3491 8.77531 10.9528 8.17578 12.1415 8.17578H18.5236C19.7123 8.17578 20.3215 8.77531 20.3215 9.95234V18.3034C20.3215 19.49 19.7123 20.082 18.5236 20.082H9.79265ZM12.6942 11.6087H17.9688C18.2053 11.6087 18.3661 11.4383 18.3661 11.2114C18.3661 11.0038 18.2074 10.8451 17.9688 10.8451H12.6942C12.4652 10.8451 12.3065 11.0038 12.3065 11.2114C12.3065 11.4383 12.4652 11.6087 12.6942 11.6087ZM12.6942 13.5216H17.9688C18.2074 13.5216 18.3661 13.3534 18.3661 13.134C18.3661 12.9071 18.2053 12.7463 17.9688 12.7463H12.6942C12.4652 12.7463 12.3065 12.9071 12.3065 13.134C12.3065 13.3534 12.4652 13.5216 12.6942 13.5216ZM16.0544 15.4538H17.9688C18.2053 15.4538 18.364 15.2834 18.364 15.0779C18.364 14.8564 18.2053 14.6881 17.9688 14.6881H16.0544C15.8254 14.6881 15.6647 14.8564 15.6647 15.0779C15.6647 15.2834 15.8254 15.4538 16.0544 15.4538ZM16.0544 17.3637H17.9688C18.2053 17.3637 18.364 17.203 18.364 16.9761C18.364 16.7546 18.2053 16.5842 17.9688 16.5842H16.0544C15.8254 16.5842 15.6647 16.7546 15.6647 16.9761C15.6647 17.203 15.8254 17.3637 16.0544 17.3637ZM12.9415 17.3637H14.2739C14.6915 17.3637 14.9493 17.1134 14.9493 16.7V15.3519C14.9493 14.9363 14.6915 14.6881 14.2739 14.6881H12.9415C12.5409 14.6881 12.2948 14.9363 12.2948 15.3519V16.7C12.2948 17.1134 12.5409 17.3637 12.9415 17.3637Z" fill="white"/>
</svg>
