<svg width="28" height="28" viewBox="0 0 28 28" fill="none" xmlns="http://www.w3.org/2000/svg">
<path d="M14.105 26.21C20.7369 26.21 26.2121 20.7273 26.2121 14.105C26.2121 7.47312 20.7273 2 14.0954 2C7.47523 2 2 7.47312 2 14.105C2 20.7273 7.48484 26.21 14.105 26.21ZM14.105 23.8255C8.71085 23.8255 4.39412 19.4991 4.39412 14.105C4.39412 8.71085 8.70124 4.38452 14.0954 4.38452C19.4895 4.38452 23.8276 8.71085 23.8276 14.105C23.8276 19.4991 19.4991 23.8255 14.105 23.8255Z" fill="black"/>
<path d="M7.89233 18.9735C7.89233 19.4812 8.18694 19.7517 8.64912 19.7517C8.82584 19.7517 8.99295 19.6931 9.18795 19.5876L11.573 18.2901V8.34767C11.4506 8.39243 11.3123 8.45735 11.1497 8.54665L8.45342 10.0766C8.04772 10.3077 7.89233 10.5909 7.89233 11.0434V18.9735ZM12.424 18.1455L15.2782 19.7512C15.4036 19.8267 15.528 19.8724 15.6501 19.9V10.1488L12.8662 8.46508C12.7047 8.37157 12.6161 8.33313 12.424 8.27173V18.1455ZM16.499 19.8703C16.5618 19.8585 16.6268 19.8309 16.7034 19.7936L19.7041 18.0944C20.1225 17.8549 20.2833 17.5781 20.2833 17.1309V9.20782C20.2833 8.70134 19.9748 8.44259 19.499 8.44259C19.316 8.44259 19.1383 8.50751 18.9349 8.61509L16.499 9.95994V19.8703Z" fill="black"/>
</svg>
