<svg width="28" height="28" viewBox="0 0 28 28" fill="none" xmlns="http://www.w3.org/2000/svg">
<path d="M14.105 26.21C20.7369 26.21 26.2121 20.7273 26.2121 14.105C26.2121 7.47312 20.7273 2 14.0954 2C7.47523 2 2 7.47312 2 14.105C2 20.7273 7.48484 26.21 14.105 26.21ZM14.105 23.8255C8.71085 23.8255 4.39412 19.4991 4.39412 14.105C4.39412 8.71085 8.70124 4.38452 14.0954 4.38452C19.4895 4.38452 23.8276 8.71085 23.8276 14.105C23.8276 19.4991 19.4991 23.8255 14.105 23.8255Z" fill="black"/>
<path d="M17.3543 19.5658V8.8724C17.3543 7.91568 16.8344 7.38623 15.866 7.38623H10.7949C9.83603 7.38623 9.30869 7.90607 9.30869 8.8724V19.5658H17.3543ZM11.4818 13.7435C11.1024 13.7435 10.8605 13.5196 10.8605 13.1711V9.52631C10.8605 9.17779 11.1024 8.97318 11.4818 8.97318H15.1865C15.5702 8.97318 15.8079 9.17779 15.8079 9.52631V13.1711C15.8079 13.5196 15.5702 13.7435 15.1865 13.7435H11.4818ZM8.54932 19.8269C8.54932 20.1196 8.80596 20.3805 9.09869 20.3805H17.5526C17.872 20.3805 18.1115 20.1196 18.1115 19.8269C18.1115 19.5501 17.872 19.3064 17.5526 19.3064H9.09869C8.80596 19.3064 8.54932 19.548 8.54932 19.8269ZM15.9853 17.8628H19.0408C20.0095 17.8628 20.5092 17.3589 20.5092 16.3956V10.5156C20.5092 10.1181 20.4058 9.80592 20.2108 9.50334L19.4201 8.20631C19.0793 7.66959 18.2859 8.14677 18.6192 8.70154L19.4292 9.99857C19.5422 10.1915 19.5731 10.2864 19.5731 10.5156V16.3956C19.5731 16.736 19.3875 16.912 19.0472 16.912H15.9853V17.8628ZM18.6417 12.3175L19.6994 13.5414V9.60412L18.581 11.1679C18.2847 11.5792 18.3061 11.9275 18.6417 12.3175Z" fill="black"/>
</svg>
