<svg width="28" height="28" viewBox="0 0 28 28" fill="none" xmlns="http://www.w3.org/2000/svg">
<path d="M7.84421 27.7711H21.3257C23.5626 27.7711 24.8753 26.4658 24.8753 23.9653V10.6994C24.8753 8.19889 23.553 6.89366 21.0311 6.89366H7.84421C5.31484 6.89366 4 8.18928 4 10.6994V23.9653C4 26.4658 5.31484 27.7711 7.84421 27.7711ZM6.58633 5.03858H22.2013C22.034 3.92155 21.4731 3.28499 20.219 3.28499H8.56867C7.31453 3.28499 6.75367 3.92155 6.58633 5.03858ZM8.60219 1.63429H20.1951C20.1163 0.583358 19.4873 0.0234375 18.3564 0.0234375H10.4312C9.30039 0.0234375 8.68094 0.583358 8.60219 1.63429Z" fill="black"/>
<path d="M10.0803 22.1268V17.3875C10.0803 16.5468 10.4213 16.1186 11.0992 16.0485V14.6875C11.0992 12.444 12.4595 10.9431 14.4397 10.9431C16.4316 10.9431 17.7823 12.444 17.7823 14.6875V16.0527C18.4676 16.1186 18.8065 16.5468 18.8065 17.3875V22.1268C18.8065 23.0544 18.3954 23.4826 17.5348 23.4826H11.3467C10.4914 23.4826 10.0803 23.0544 10.0803 22.1268ZM12.5314 16.0241H16.3479V14.5595C16.3479 13.2228 15.5921 12.3306 14.4375 12.3306C13.2948 12.3306 12.5314 13.225 12.5314 14.5595V16.0241Z" fill="white"/>
</svg>
