<svg width="28" height="28" viewBox="0 0 28 28" fill="none" xmlns="http://www.w3.org/2000/svg">
<path d="M3.84632 17.7933H23.9109C26.4499 17.7933 27.7552 16.563 27.7552 14.2971V8.04984C27.7552 6.82312 27.7334 5.94891 27.0513 5.34844L22.8628 1.56609C21.5412 0.389765 20.6081 0 18.7788 0H8.97843C7.15874 0 6.21398 0.389765 4.90195 1.56609L0.705936 5.34844C0.0217988 5.94891 0 6.82312 0 8.04984V14.2971C0 16.563 1.31484 17.7933 3.84632 17.7933ZM13.8776 10.5305C12.2991 10.5305 11.3065 9.17251 11.3065 7.89961V7.85696C11.3065 7.38586 11.0241 6.95625 10.4062 6.95625H3.0935C2.47616 6.95625 2.26616 6.66633 2.76936 6.20883L6.59436 2.75202C7.25015 2.15366 7.69147 1.91694 8.70562 1.91694H19.0516C20.0754 1.91694 20.5071 2.15577 21.1629 2.75202L24.9879 6.20039C25.5167 6.67922 25.2715 6.95625 24.6713 6.95625H17.351C16.7311 6.95625 16.4583 7.38586 16.4583 7.85696V7.89961C16.4583 9.17251 15.4657 10.5305 13.8776 10.5305ZM3.94991 15.8555C2.85819 15.8555 2.26639 15.2838 2.26639 14.1452V8.99108H9.32062C9.68625 11.0822 11.5113 12.6436 13.8776 12.6436C16.2459 12.6436 18.071 11.0822 18.4345 8.99108H25.4888V14.1452C25.4888 15.2838 24.8874 15.8555 23.8073 15.8555H3.94991ZM3.84632 27.0492H23.9109C26.4382 27.0492 27.7552 25.744 27.7552 23.2434V17.5908C27.7552 16.8891 27.233 16.1023 26.4602 16.1023H17.351C16.7311 16.1023 16.4583 16.5319 16.4583 17.003V17.0477C16.4583 18.3206 15.4657 19.6786 13.8776 19.6786C12.2991 19.6786 11.3065 18.3206 11.3065 17.0477V17.003C11.3065 16.5319 11.0241 16.1023 10.4062 16.1023H1.29492C0.524293 16.1023 0 16.8891 0 17.5908V23.2434C0 25.744 1.31484 27.0492 3.84632 27.0492ZM3.94991 24.8018C2.85819 24.8018 2.26639 24.2302 2.26639 23.0916V17.9662H9.32062C9.68625 20.0573 11.5113 21.6187 13.8776 21.6187C16.2459 21.6187 18.071 20.0573 18.4345 17.9662H25.4888V23.0916C25.4888 24.2302 24.8874 24.8018 23.8073 24.8018H3.94991Z" fill="black"/>
</svg>
