<svg width="28" height="28" viewBox="0 0 28 28" fill="none" xmlns="http://www.w3.org/2000/svg">
<path d="M4.62305 22.8116C4.62305 24.8108 5.79891 25.881 7.80656 25.881H13.3291V15.5854H4.62305V22.8116ZM15.5379 25.881H21.0722C23.0681 25.881 24.2557 24.8108 24.2557 22.8116V15.5854H15.5379V25.881ZM3 12.2837C3 13.5862 3.74742 14.1669 5.04468 14.1669H13.3291V7.58031H11.5643C9.77085 7.58031 8.7307 6.48343 8.7307 5.21124C8.7307 3.96436 9.60703 3.20593 10.875 3.20593C12.2295 3.20593 13.3291 4.27749 13.3291 5.93804V7.58031H15.5379V5.93804C15.5379 4.27749 16.6418 3.20593 17.9941 3.20593C19.2621 3.20593 20.1384 3.96436 20.1384 5.21124C20.1384 6.48343 19.1058 7.58031 17.3048 7.58031H15.5379V14.1669H23.8319C25.1292 14.1669 25.8787 13.5862 25.8787 12.2837V9.65967C25.8787 8.22225 25.068 7.58031 23.6358 7.58031H21.2946C21.9701 6.92312 22.3781 6.03367 22.3781 4.9982C22.3781 2.66359 20.5261 1 18.1957 1C16.4728 1 15.0143 1.97406 14.4335 3.68148C13.8548 1.97406 12.4038 1 10.6713 1C8.35266 1 6.49102 2.66359 6.49102 4.9982C6.49102 6.03367 6.89907 6.92312 7.58414 7.58031H5.24296C3.85875 7.58031 3 8.22225 3 9.65967V12.2837Z" fill="black"/>
</svg>
