<svg width="30" height="28" viewBox="0 0 30 28" fill="none" xmlns="http://www.w3.org/2000/svg">
<path d="M28.1229 26.1541C28.762 26.1541 29.2767 25.6394 29.2767 25.0098V3.72178C29.2767 2.07273 28.1869 1 26.4973 1H2.77194C1.08984 1 0 2.07273 0 3.72178V25.0098C0 25.6394 0.514684 26.1541 1.14421 26.1541C1.78124 26.1541 2.29592 25.6394 2.29592 25.0098V3.93389C2.29592 3.54623 2.54623 3.29592 2.91256 3.29592H26.3641C26.7305 3.29592 26.9808 3.54623 26.9808 3.93389V25.0098C26.9808 25.6394 27.4955 26.1541 28.1229 26.1541Z" fill="black"/>
<path d="M25.2049 25.6554C25.417 25.6554 25.5865 25.4763 25.5865 25.2717V5.06433C25.5865 4.85011 25.417 4.68066 25.2049 4.68066H15.7085C15.5039 4.68066 15.3344 4.85011 15.3344 5.06433V25.2717C15.3344 25.4763 15.5039 25.6554 15.7085 25.6554H25.2049ZM22.9254 16.8856C22.5708 16.8856 22.3153 16.6301 22.3153 16.2734V14.2268C22.3153 13.8701 22.5708 13.6242 22.9254 13.6242C23.2725 13.6242 23.5259 13.8701 23.5259 14.2268V16.2734C23.5259 16.6301 23.2725 16.8856 22.9254 16.8856ZM13.5586 25.6554C13.7728 25.6554 13.9423 25.4763 13.9423 25.2717V5.06433C13.9423 4.85011 13.7728 4.68066 13.5586 4.68066H4.07175C3.85964 4.68066 3.69019 4.85011 3.69019 5.06433V25.2717C3.69019 25.4763 3.85964 25.6554 4.07175 25.6554H13.5586Z" fill="black"/>
</svg>
