<svg width="28" height="28" viewBox="0 0 28 28" fill="none" xmlns="http://www.w3.org/2000/svg">
<path d="M14.105 26.2301C20.7369 26.2301 26.2121 20.7549 26.2121 14.123C26.2121 7.50291 20.7273 2.01807 14.0954 2.01807C7.47523 2.01807 2 7.50291 2 14.123C2 20.7549 7.48484 26.2301 14.105 26.2301Z" fill="black"/>
<path d="M10.9607 20.4971C9.71246 20.4971 9.05762 19.8423 9.05762 18.5748V9.70978C9.05762 8.41345 9.71246 7.75861 10.9703 7.75861H17.2265C18.494 7.75861 19.1489 8.42306 19.1489 9.70978V16.2366C19.1489 16.8151 18.9131 17.1273 18.6218 17.3933C17.9006 18.069 18.0349 19.0435 18.75 19.3714C18.9691 19.4616 19.151 19.6726 19.151 19.9341C19.151 20.2555 18.8997 20.4971 18.588 20.4971H10.9607ZM11.1079 19.3712H17.2127C16.9432 18.8387 16.9165 18.204 17.1656 17.6021C17.1208 17.6117 17.0761 17.6117 17.0217 17.6117H11.1485C10.5543 17.6117 10.1835 17.9769 10.1835 18.4808C10.1835 19.0273 10.5063 19.3712 11.1079 19.3712ZM10.874 16.5924C11.0892 16.5924 11.2692 16.4338 11.2692 16.2186V9.19837C11.2692 8.99071 11.0892 8.81282 10.874 8.81282C10.6685 8.81282 10.5077 8.9811 10.5077 9.19837V16.2186C10.5077 16.4338 10.6685 16.5924 10.874 16.5924Z" fill="white"/>
</svg>
