<svg width="28" height="30" viewBox="0 0 28 30" fill="none" xmlns="http://www.w3.org/2000/svg">
<path d="M3.45867 8.57789C4.15945 8.17547 4.97203 7.9657 5.79844 7.9657C7.05633 7.9657 8.31211 8.46094 9.13757 9.48656C9.98648 8.28375 11.4544 7.62844 12.9255 7.62844C14.403 7.62844 15.8646 8.28375 16.7156 9.48656C17.539 8.46094 18.8065 7.9657 20.0857 7.9657C20.8821 7.9657 21.6977 8.1743 22.3931 8.57765C22.7674 8.00859 22.9924 7.3425 22.9924 6.60281C22.9924 4.53656 21.6769 3.08484 19.7873 3.02109C19.2614 1.85695 18.3241 1.10578 17.048 1.10578C16.2288 1.10578 15.4758 1.38914 14.8964 1.90477C14.6203 1.82906 14.2514 1.80773 13.9465 1.8675C13.4076 0.726562 12.2808 0 11.01 0C9.3396 0 8.18531 1.00898 7.95656 2.07914C7.08164 2.02875 6.3464 2.81953 6.32109 3.60375C4.50187 3.56625 3 5.07445 3 6.91171C3 7.49484 3.13758 8.03742 3.45867 8.57789ZM8.35288 27.9537H9.87094L8.42437 12.0729C8.27953 10.4037 7.00336 9.60047 5.7293 9.60047C4.21219 9.60047 2.68969 10.7522 3.10945 12.9811L5.4307 25.2073C5.75765 26.9304 6.61382 27.9537 8.35288 27.9537ZM11.4778 27.9537H13.4686V27.9056C12.9401 27.1823 12.6459 26.2875 12.6459 25.3341C12.6459 23.6541 13.5239 22.1423 14.9752 21.3457L15.7901 12.2374C15.9776 10.1386 14.2418 9.27914 12.9255 9.27914C11.6114 9.27914 9.87562 10.1386 10.0631 12.2374L11.4778 27.9537ZM19.5054 18.2763C20.2919 18.2763 21.0124 18.4683 21.6401 18.8116L22.7437 12.9811C23.1731 10.7522 21.641 9.60047 20.1239 9.60047C18.8594 9.60047 17.5833 10.4037 17.4288 12.0729L16.7684 19.2712C17.486 18.6513 18.4509 18.2763 19.5054 18.2763ZM19.5054 29.8329C20.6548 29.8329 21.7094 29.1926 22.1848 28.2166C23.7255 27.863 24.5339 26.6367 24.5339 25.3437C24.5339 24.0724 23.723 22.8525 22.2733 22.5368C22.1948 21.0211 21.0424 19.9387 19.5054 19.9387C17.996 19.9387 16.849 20.9902 16.7301 22.4653C15.1936 22.7325 14.3008 23.9951 14.3008 25.3341C14.3008 26.6951 15.1997 27.9351 16.7998 28.2485C17.2884 29.1968 18.3558 29.8329 19.5054 29.8329Z" fill="black"/>
</svg>
