<svg width="28" height="29" viewBox="0 0 28 29" fill="none" xmlns="http://www.w3.org/2000/svg">
<path d="M15.165 26.7883L26.6435 15.2906C27.5583 14.3758 27.6506 13.8297 27.6506 12.5128V8.06598C27.6506 6.77739 27.345 6.33372 26.3974 5.38403L23.7127 2.70138C22.7726 1.7613 22.3289 1.44818 21.0424 1.44818H16.586C15.267 1.44818 14.741 1.54685 13.8263 2.46372L2.31681 13.9518C0.573534 15.6951 0.544706 17.5476 2.32853 19.3197L9.79712 26.7787C11.5788 28.5529 13.4217 28.5337 15.165 26.7883ZM13.68 25.016C12.8953 25.8007 12.0827 25.8145 11.2842 25.0064L4.09125 17.8251C3.28851 17.0266 3.30867 16.2023 4.07953 15.4293L15.4479 4.08019C15.6844 3.84582 15.9094 3.70613 16.2909 3.70613H21.0263C21.3769 3.70613 21.6209 3.84043 21.8501 4.06965L25.0367 7.2466C25.2659 7.47793 25.3906 7.72191 25.3906 8.07043V12.8153C25.3906 13.2021 25.2689 13.4292 25.0388 13.6572L13.68 25.016ZM19.5891 11.1965C20.5453 11.1965 21.2705 10.4521 21.2705 9.51723C21.2705 8.5727 20.5453 7.83582 19.5891 7.83582C18.6253 7.83582 17.9098 8.5727 17.9098 9.51723C17.9098 10.4521 18.6253 11.1965 19.5891 11.1965Z" fill="black"/>
</svg>
