<svg width="32" height="28" viewBox="0 0 32 28" fill="none" xmlns="http://www.w3.org/2000/svg">
<path d="M3.84421 25.0629H23.3062C25.541 25.0629 26.8558 23.7576 26.8558 21.2571V15.6028H24.5599V21.0738C24.5599 22.2049 23.9489 22.7669 22.8689 22.7669H3.97733C2.88772 22.7669 2.29592 22.2049 2.29592 21.0642V7.17025C2.29592 6.09447 2.88209 5.52423 3.93538 5.52423H6.195C7.01273 5.52423 7.50468 5.72555 8.15929 6.25899L8.82984 6.81236C9.64429 7.47048 10.4172 7.69735 11.6449 7.69735H15.4322V5.39931H12.1076C11.4183 5.39931 10.7627 5.2055 10.1219 4.67417L9.44928 4.13042C8.62944 3.45518 8.02335 3.23792 6.79569 3.23792H3.47905C1.29539 3.23792 0 4.51315 0 6.97197V21.2571C0 23.7672 1.31484 25.0629 3.84421 25.0629ZM1.43319 12.115H15.4153V10.0903H1.43319V12.115Z" fill="black"/>
<path d="M18.0084 16.6789H28.1487C30.6801 16.6789 31.995 15.3737 31.995 12.8731V5.80577C31.995 3.29562 30.6801 2 28.1487 2H18.0084C15.4791 2 14.1738 3.29562 14.1738 5.80577V12.8731C14.1738 15.3737 15.4791 16.6789 18.0084 16.6789ZM18.0743 14.4812C16.973 14.4812 16.3715 13.9095 16.3715 12.7496V5.91968C16.3715 4.76936 16.973 4.19772 18.0743 4.19772H28.0945C29.1841 4.19772 29.7973 4.76936 29.7973 5.91968V12.7496C29.7973 13.9095 29.1841 14.4812 28.1137 14.4812H18.0743ZM23.0855 13.1743C23.5655 13.1743 23.8805 12.8614 23.8805 12.3814V10.1595H26.1002C26.5802 10.1595 26.9027 9.84452 26.9027 9.35491C26.9027 8.87281 26.5802 8.55992 26.1002 8.55992H23.8805V6.34437C23.8805 5.86015 23.5655 5.53765 23.0855 5.53976C22.6034 5.54187 22.2905 5.86648 22.2905 6.34437V8.55992H20.0632C19.5886 8.55992 19.264 8.87281 19.2682 9.35491C19.2703 9.84452 19.5928 10.1595 20.0632 10.1595H22.2905V12.3814C22.2905 12.8614 22.6034 13.1743 23.0855 13.1743Z" fill="black"/>
</svg>
