<svg width="28" height="28" viewBox="0 0 28 28" fill="none" xmlns="http://www.w3.org/2000/svg">
<path d="M5.67969 13.493L2.46547 19.7673C2.15656 20.3691 2 21.0083 2 21.6165C2 23.379 3.29047 24.908 5.39726 24.908H21.6919C23.7966 24.908 25.085 23.379 25.085 21.6165C25.085 21.0083 24.9284 20.3691 24.6195 19.7555L16.4391 3.78828C15.8726 2.67547 14.6862 2 13.5446 2C12.4105 2 11.2102 2.67547 10.6459 3.78828L7.95663 9.05798L9.60311 10.6948L12.4791 4.95358C12.7053 4.50662 13.1051 4.22279 13.5446 4.22279C13.9841 4.22279 14.3776 4.51084 14.6059 4.9578L20.7786 17.2311H6.2642L7.3264 15.1398L5.67969 13.493ZM5.5871 22.6991C4.81811 22.6991 4.36272 22.1082 4.36272 21.4513C4.36272 21.2347 4.41287 20.9959 4.51951 20.7676L5.28475 19.2563L21.7906 19.2371L22.5697 20.7718C22.6838 20.9926 22.7361 21.2272 22.7361 21.4416C22.7361 22.1082 22.2786 22.6991 21.5021 22.6991H5.5871ZM14.5669 15.6596V8.09443C14.5669 7.48319 14.1964 7.08709 13.583 7.08709C12.9814 7.08709 12.6109 7.48319 12.6109 8.09443V13.6951L14.5669 15.6596ZM12.8352 18.7831L14.2838 17.3248L4.23593 7.26758C3.80585 6.845 3.23749 6.83118 2.78937 7.26336C2.33164 7.7157 2.35718 8.30328 2.78937 8.73758L12.8352 18.7831Z" fill="black"/>
</svg>
