<svg width="28" height="28" viewBox="0 0 28 28" fill="none" xmlns="http://www.w3.org/2000/svg">
<path d="M3.84421 24.8972H23.9109C26.4499 24.8972 27.7552 23.5919 27.7552 21.0914V9.89132C27.7552 7.39077 26.4499 6.08554 23.9109 6.08554H3.84421C1.31484 6.08554 0 7.38117 0 9.89132V21.0914C0 23.6016 1.31484 24.8972 3.84421 24.8972ZM5.22586 6.92016H11.6644V4.61765C11.6644 3.61195 11.0876 3.02344 10.0861 3.02344H6.80624C5.80265 3.02344 5.22586 3.61195 5.22586 4.61765V6.92016ZM16.0791 6.92016H22.5101V4.61765C22.5101 3.61195 21.9333 3.02344 20.9297 3.02344H17.6498C16.6559 3.02344 16.0791 3.61195 16.0791 4.61765V6.92016Z" fill="black"/>
<path d="M10.0898 16.2651C10.0898 16.1394 10.1484 16.0138 10.2464 15.8966L15.0441 9.92006C15.4327 9.43771 16.0821 9.77732 15.8564 10.3715L14.3006 14.534H17.2214C17.4609 14.534 17.6707 14.7107 17.6707 14.9427C17.6707 15.0779 17.6121 15.2036 17.5045 15.3111L12.7186 21.2856C12.3279 21.7701 11.6688 21.4379 11.8924 20.8342L13.4599 16.6813H10.5316C10.2879 16.6813 10.0898 16.495 10.0898 16.2651Z" fill="white"/>
</svg>
