<svg width="28" height="28" viewBox="0 0 28 28" fill="none" xmlns="http://www.w3.org/2000/svg">
<path d="M6.84421 24.8972H21.0295C23.5685 24.8972 24.8737 23.5919 24.8737 21.0914V6.82921C24.8737 4.32656 23.5685 3.02344 21.0295 3.02344H6.84421C4.31484 3.02344 3 4.31695 3 6.82921V21.0914C3 23.6016 4.31484 24.8972 6.84421 24.8972ZM6.97733 22.6013C5.88772 22.6013 5.29592 22.0371 5.29592 20.8985V7.01999C5.29592 5.88139 5.88772 5.31936 6.97733 5.31936H20.8964C21.9764 5.31936 22.5778 5.88139 22.5778 7.01999V20.8985C22.5778 22.0371 21.9764 22.6013 20.8964 22.6013H6.97733Z" fill="black"/>
<path d="M11.4971 19.9627C12.2393 20.6974 13.0036 20.7471 13.7618 19.9889L19.3671 14.4124C19.8136 13.9851 20.1143 13.6793 20.1143 12.9771V10.8035C20.1143 10.2635 19.98 9.95671 19.6179 9.58499L18.5709 8.54765C18.2013 8.18765 17.8924 7.98398 17.3524 7.98398H15.1191C14.4307 7.98398 14.111 8.28679 13.6762 8.73117L8.11362 14.3419C7.36503 15.1001 7.39878 15.8569 8.13355 16.5916L11.4971 19.9627ZM15.9169 12.1793C15.5719 11.846 15.5698 11.2732 15.919 10.9282C16.2565 10.5811 16.823 10.5811 17.1605 10.9282C17.5034 11.2615 17.5076 11.8226 17.1605 12.1697C16.8112 12.5243 16.2619 12.5243 15.9169 12.1793Z" fill="black"/>
</svg>
