<svg width="28" height="28" viewBox="0 0 28 28" fill="none" xmlns="http://www.w3.org/2000/svg">
<path d="M4.61656 5.97507H24.2359C24.0706 4.86437 23.514 4.23414 22.2704 4.23414H6.58202C5.33843 4.23414 4.7839 4.86437 4.61656 5.97507ZM7.0032 2.59609H21.8492C21.7705 1.55359 21.1573 1 20.0274 1H8.81749C7.69718 1 7.08195 1.55359 7.0032 2.59609ZM4.31304 27.486H24.5415C25.9616 27.486 26.8641 26.5834 26.8641 25.2039V10.1788C26.8641 8.79507 25.9616 7.88288 24.5415 7.88288H4.31304C2.90047 7.88288 2 8.79507 2 10.1788V25.2039C2 26.5834 2.90047 27.486 4.31304 27.486ZM4.32898 25.5475C4.00601 25.5475 3.79929 25.3354 3.79929 25.0274V23.9462C3.79929 23.6521 3.9964 23.4571 4.30015 23.4571H5.55289C5.84914 23.4571 6.03664 23.6521 6.03664 23.9462V25.0658C6.03664 25.345 5.84914 25.5475 5.55289 25.5475H4.32898ZM4.30015 22.1083C3.9964 22.1083 3.79929 21.8898 3.79929 21.6362V20.538C3.79929 20.2417 3.98679 20.0446 4.30015 20.0446H5.55289C5.84914 20.0446 6.03664 20.2417 6.03664 20.538V21.6362C6.03664 21.8898 5.84914 22.1083 5.55289 22.1083H4.30015ZM4.30015 18.7344C3.9964 18.7344 3.79929 18.5064 3.79929 18.2315V17.162C3.79929 16.8487 3.98679 16.6398 4.30015 16.6398H5.55289C5.84914 16.6398 6.03664 16.8487 6.03664 17.162V18.2315C6.03664 18.5064 5.84914 18.7344 5.55289 18.7344H4.30015ZM4.30015 15.3414C3.9964 15.3414 3.79929 15.123 3.79929 14.8769V13.7572C3.79929 13.4823 3.98679 13.266 4.30015 13.266H5.55289C5.84914 13.266 6.03664 13.4823 6.03664 13.7572V14.8769C6.03664 15.123 5.84914 15.3414 5.55289 15.3414H4.30015ZM4.30015 11.9076C3.9964 11.9076 3.79929 11.7008 3.79929 11.4376V10.3469C3.79929 10.0314 4.00601 9.81717 4.32898 9.81717H5.55289C5.84914 9.81717 6.03664 10.0218 6.03664 10.318V11.4376C6.03664 11.7008 5.84914 11.9076 5.55289 11.9076H4.30015ZM8.18257 25.5475C7.88022 25.5475 7.66952 25.3389 7.66952 25.0248V19.202C7.66952 18.8804 7.88022 18.6794 8.18257 18.6794H20.6488C20.9607 18.6794 21.1714 18.8804 21.1714 19.202V25.0248C21.1714 25.3389 20.9607 25.5475 20.6488 25.5475H8.18257ZM8.18257 16.7141C7.88022 16.7141 7.66952 16.5226 7.66952 16.1915V10.3398C7.66952 10.0183 7.88022 9.81717 8.18257 9.81717H20.6488C20.9607 9.81717 21.1714 10.0183 21.1714 10.3398V16.1915C21.1714 16.5226 20.9607 16.7141 20.6488 16.7141H8.18257ZM23.2784 25.5475C23.0014 25.5475 22.8022 25.345 22.8022 25.0658V23.9462C22.8022 23.6521 23.0014 23.4571 23.2784 23.4571H24.5387C24.8349 23.4571 25.0416 23.6521 25.0416 23.9462V25.0274C25.0416 25.3354 24.8349 25.5475 24.5098 25.5475H23.2784ZM23.2784 22.1083C23.0014 22.1083 22.8022 21.8898 22.8022 21.6362V20.538C22.8022 20.2417 23.0014 20.0446 23.2784 20.0446H24.5387C24.8445 20.0446 25.0416 20.2417 25.0416 20.538V21.6362C25.0416 21.8898 24.8349 22.1083 24.5387 22.1083H23.2784ZM23.2784 18.7344C23.0014 18.7344 22.8022 18.5064 22.8022 18.2315V17.162C22.8022 16.8487 23.0014 16.6398 23.2784 16.6398H24.5387C24.8445 16.6398 25.0416 16.8487 25.0416 17.162V18.2315C25.0416 18.5064 24.8349 18.7344 24.5387 18.7344H23.2784ZM23.2784 15.3414C23.0014 15.3414 22.8022 15.123 22.8022 14.8769V13.7572C22.8022 13.4823 23.0014 13.266 23.2784 13.266H24.5387C24.8445 13.266 25.0416 13.4823 25.0416 13.7572V14.8769C25.0416 15.123 24.8349 15.3414 24.5387 15.3414H23.2784ZM23.2784 11.9076C23.0014 11.9076 22.8022 11.7008 22.8022 11.4376V10.318C22.8022 10.0218 23.0014 9.81717 23.2784 9.81717H24.5098C24.8349 9.81717 25.0416 10.0314 25.0416 10.3469V11.4376C25.0416 11.7008 24.8349 11.9076 24.5387 11.9076H23.2784Z" fill="black"/>
</svg>
