<svg width="36" height="28" viewBox="0 0 36 28" fill="none" xmlns="http://www.w3.org/2000/svg">
<path d="M1.14421 26.1541C1.78124 26.1541 2.29592 25.6394 2.29592 25.0098V3.93389C2.29592 3.54623 2.54623 3.29592 2.91256 3.29592H32.2176C32.5861 3.29592 32.8364 3.54623 32.8364 3.93389V25.0098C32.8364 25.6394 33.3511 26.1541 33.9881 26.1541C34.6176 26.1541 35.1323 25.6394 35.1323 25.0098V3.72178C35.1323 2.07273 34.0521 1 32.3604 1H2.77194C1.08984 1 0 2.07273 0 3.72178V25.0098C0 25.6394 0.514684 26.1541 1.14421 26.1541Z" fill="black"/>
<path d="M4.07175 9.8594H31.0701C31.2726 9.8594 31.4421 9.68995 31.4421 9.48745V5.06433C31.4421 4.85011 31.2726 4.68066 31.0701 4.68066H4.07175C3.85964 4.68066 3.69019 4.85011 3.69019 5.06433V9.48745C3.69019 9.68995 3.85964 9.8594 4.07175 9.8594ZM15.053 7.89323C14.6878 7.89323 14.4239 7.62932 14.4239 7.27378C14.4239 6.90862 14.6878 6.64683 15.053 6.64683H20.089C20.4445 6.64683 20.7084 6.90862 20.7084 7.27378C20.7084 7.62932 20.4445 7.89323 20.089 7.89323H15.053Z" fill="black"/>
</svg>
