<svg width="28" height="28" viewBox="0 0 28 28" fill="none" xmlns="http://www.w3.org/2000/svg">
<path d="M2 12.9524C2 15.0062 2.51352 17.1346 3.47867 19.1308C3.15805 19.5107 3.10039 20.1911 3.43906 20.8705L5.69141 25.4498C5.91805 25.9126 6.41844 26.1543 6.90921 26.1543C7.48788 26.1543 8.04944 25.8046 8.1071 25.1024L5.53647 19.8515C4.67726 18.1075 4.03741 15.6128 4.03741 12.9641C4.03741 7.17554 7.9871 3.27483 13.8406 3.27483C19.6845 3.27483 23.6438 7.17554 23.6438 12.9641C23.6438 15.6149 23.0061 18.1096 22.1469 19.8515L19.5645 25.1024C19.6339 25.8046 20.1934 26.1543 20.7741 26.1543C21.2553 26.1543 21.7557 25.9126 21.9898 25.4498L24.2326 20.8705C24.5712 20.1911 24.5253 19.5107 24.2047 19.1308C25.1677 17.1346 25.6833 15.0062 25.6833 12.9524C25.6833 6.24437 21.0312 1 13.8406 1C6.64999 1 2 6.24437 2 12.9524Z" fill="black"/>
<path d="M8.41157 17.296C7.97493 16.3972 7.14641 16.2054 6.51594 16.4642C5.81188 16.7485 5.32509 17.5899 5.85337 18.6678L8.77415 24.6127C9.24806 25.5743 10.1021 25.913 10.9264 25.4914C11.6305 25.1443 11.882 24.3422 11.4751 23.4954L8.41157 17.296ZM19.2601 17.296L16.2062 23.4954C15.7993 24.3422 16.0508 25.1443 16.7452 25.4914C17.5716 25.913 18.4332 25.5743 18.9071 24.6127L21.83 18.6678C22.3562 17.5899 21.8619 16.7485 21.1674 16.4642C20.5252 16.2054 19.7084 16.3972 19.2601 17.296Z" fill="white"/>
</svg>
