<svg width="28" height="28" viewBox="0 0 28 28" fill="none" xmlns="http://www.w3.org/2000/svg">
<path d="M14.7209 3.25211V5.54803H16.6638L18.9598 3.25211H14.7209ZM7.8989 5.54803H13.0259V3.25211H7.8989V5.54803ZM0 9.47429H2.29592V7.24866C2.29592 6.11006 2.88772 5.54803 3.97944 5.54803H6.18375V3.25211H3.84632C1.31484 3.25211 0 4.54562 0 7.05788V9.47429ZM0 17.1885H2.29592V11.1873H0V17.1885ZM3.84632 25.1258H6.18375V22.8299H3.97944C2.88772 22.8299 2.29592 22.2658 2.29592 21.1272V18.9015H0V21.3201C0 23.8302 1.31484 25.1258 3.84632 25.1258ZM7.8989 25.1258H13.0259V22.8299H7.8989V25.1258ZM14.7293 25.1258H19.8584V22.8299H14.7293V25.1258ZM23.9109 25.1258C26.4403 25.1258 27.7552 23.8302 27.7552 21.3201V18.9015H25.4592V21.1272C25.4592 22.2658 24.8674 22.8299 23.7778 22.8299H21.5714V25.1258H23.9109ZM27.7552 17.1885V13.176L25.4592 15.4719V17.1885H27.7552Z" fill="black"/>
<path d="M14.9666 16.6813C16.7661 18.4787 19.5074 18.5319 21.3931 16.6462L27.0078 11.0294C27.3071 10.728 27.2879 10.2393 26.994 9.9667C26.6905 9.6824 26.2604 9.68451 25.9569 9.98803L20.3987 15.5537C19.0773 16.8613 17.2506 16.8529 16.0506 15.6144C14.8142 14.3589 14.7845 12.561 16.0984 11.2471L23.2093 4.15326C24.0472 3.31536 25.2036 3.2699 25.9367 3.97537C26.6582 4.67873 26.5946 5.83185 25.7567 6.68897L18.8324 13.6518C18.5689 13.9173 18.2298 13.9077 18.0015 13.6539C17.7402 13.4022 17.7477 13.0769 18.0132 12.8134L22.8943 7.93232C23.1978 7.6267 23.1924 7.20295 22.9295 6.91443C22.6452 6.63764 22.2226 6.63435 21.9191 6.94959L16.9974 11.8637C16.1825 12.6787 16.1792 13.9527 16.9388 14.7069C17.7421 15.5144 18.9479 15.5059 19.7917 14.6622L26.7671 7.69514C28.2374 6.2249 28.2139 4.30092 26.896 2.97131C25.5974 1.67052 23.6031 1.64498 22.168 3.08428L15.0135 10.2451C13.1256 12.133 13.1884 14.901 14.9666 16.6813Z" fill="black"/>
</svg>
