<svg width="39" height="29" viewBox="0 0 39 29" fill="none" xmlns="http://www.w3.org/2000/svg">
<path d="M9.09304 16.2913C14.2352 16.2913 18.1605 13.8585 18.1605 10.6297C18.1605 7.39131 14.2352 4.94678 9.09304 4.94678C3.93703 4.94678 0 7.37959 0 10.6297C0 13.8681 3.93703 16.2913 9.09304 16.2913ZM9.08883 14.6713C4.82695 14.6713 1.68351 12.8865 1.68351 10.6297C1.68351 8.37287 4.83867 6.55716 9.08883 6.55716C13.3507 6.55716 16.5176 8.37287 16.5176 10.6297C16.5176 12.8865 13.3507 14.6713 9.08883 14.6713ZM9.09093 14.0647C12.36 14.0647 14.8254 12.6681 14.8254 10.7802C14.8254 8.86553 12.36 7.471 9.09093 7.471C5.8432 7.471 3.3832 8.86553 3.3832 10.7802C3.3832 12.6681 5.8432 14.0647 9.09093 14.0647ZM9.08883 12.7084C6.60773 12.7084 4.73952 11.8194 4.73952 10.7802C4.73952 9.70459 6.60773 8.83693 9.08883 8.83693C11.5859 8.83693 13.4616 9.70459 13.4616 10.7802C13.4616 11.8194 11.5859 12.7084 9.08883 12.7084ZM9.09304 11.3485C11.028 11.3485 12.7847 10.4293 13.358 9.14443C12.203 8.45748 10.6533 8.03678 9.09304 8.03678C7.52109 8.03678 5.95547 8.45748 4.80468 9.14654C5.37586 10.441 7.13671 11.3485 9.09304 11.3485ZM29.3562 16.2913C34.4941 16.2913 38.4429 13.8681 38.4429 10.6297C38.4429 7.37959 34.4941 4.94678 29.3562 4.94678C24.2098 4.94678 20.2823 7.39131 20.2823 10.6297C20.2823 13.8585 24.2098 16.2913 29.3562 16.2913ZM29.3498 14.6713C25.0901 14.6713 21.9253 12.8865 21.9253 10.6297C21.9253 8.37287 25.0997 6.55716 29.3498 6.55716C33.5925 6.55716 36.7594 8.37287 36.7594 10.6297C36.7594 12.8865 33.6021 14.6713 29.3498 14.6713ZM29.3498 14.0647C32.5976 14.0647 35.0651 12.6681 35.0651 10.7802C35.0651 8.86553 32.5976 7.471 29.3498 7.471C26.0808 7.471 23.6229 8.86553 23.6229 10.7802C23.6229 12.6681 26.0808 14.0647 29.3498 14.0647ZM29.3498 12.7084C26.8591 12.7084 24.9888 11.8194 24.9888 10.7802C24.9888 9.70459 26.8591 8.83693 29.3498 8.83693C31.8448 8.83693 33.7109 9.70459 33.7109 10.7802C33.7109 11.8194 31.8352 12.7084 29.3498 12.7084ZM29.3562 11.3485C31.3104 11.3485 33.0628 10.4389 33.6403 9.14443C32.4832 8.45959 30.9239 8.03678 29.3562 8.03678C27.7896 8.03678 26.2357 8.45959 25.0849 9.14654C25.6582 10.4314 27.4169 11.3485 29.3562 11.3485ZM19.2166 28.0393C24.378 28.0393 28.3034 25.6065 28.3034 22.3681C28.3034 19.1181 24.378 16.6949 19.2166 16.6949C14.0798 16.6949 10.1428 19.1277 10.1428 22.3681C10.1428 25.5969 14.0798 28.0393 19.2166 28.0393ZM19.2103 26.4172C14.9602 26.4172 11.7858 24.6228 11.7858 22.3681C11.7858 20.1017 14.9698 18.3031 19.2103 18.3031C23.4626 18.3031 26.6295 20.1017 26.6295 22.3681C26.6295 24.6228 23.4722 26.4172 19.2103 26.4172ZM19.2103 25.7935C22.4698 25.7935 24.9277 24.4044 24.9277 22.4973C24.9277 20.604 22.4698 19.2095 19.2103 19.2095C15.9626 19.2095 13.5068 20.604 13.5068 22.4973C13.5068 24.3948 15.9626 25.7935 19.2103 25.7935ZM19.2103 24.4372C16.7292 24.4372 14.8514 23.5578 14.8514 22.4973C14.8514 21.4431 16.7292 20.5637 19.2103 20.5637C21.7148 20.5637 23.5734 21.4431 23.5734 22.4973C23.5734 23.5578 21.7052 24.4372 19.2103 24.4372ZM19.2166 23.0849C21.1709 23.0849 22.935 22.156 23.52 20.8808C22.3458 20.1981 20.8057 19.7753 19.2166 19.7753C17.6735 19.7753 16.11 20.1981 14.955 20.8829C15.5283 22.1485 17.2795 23.0849 19.2166 23.0849Z" fill="black"/>
</svg>
