<svg width="28" height="28" viewBox="0 0 28 28" fill="none" xmlns="http://www.w3.org/2000/svg">
<path d="M14.3809 25.7564C14.6666 25.7564 14.9427 25.733 15.2423 25.7117L15.8934 26.9574C16.0466 27.2628 16.3412 27.4149 16.7094 27.3713C17.0404 27.3085 17.2733 27.0499 17.3244 26.7073L17.5194 25.3188C18.0716 25.1653 18.6121 24.9553 19.1312 24.7378L20.1627 25.6638C20.4149 25.898 20.7447 25.9437 21.0735 25.7681C21.3651 25.5947 21.4895 25.283 21.4204 24.9328L21.1316 23.5657C21.5943 23.2428 22.0473 22.8792 22.4598 22.471L23.7353 23.0037C24.062 23.1453 24.3876 23.0623 24.6355 22.7749C24.8537 22.5249 24.876 22.1855 24.6887 21.8822L23.9439 20.6867C24.2723 20.2336 24.5387 19.7262 24.7935 19.1974L26.2033 19.2656C26.5459 19.2912 26.8363 19.0901 26.9502 18.7688C27.0587 18.4421 26.9598 18.1102 26.6884 17.9016L25.5845 17.0321C25.7263 16.4895 25.8393 15.9235 25.8958 15.3328L27.2139 14.9056C27.5587 14.7971 27.7598 14.5364 27.7598 14.1842C27.7598 13.8298 27.5587 13.5713 27.2139 13.4532L25.8958 13.0355C25.8393 12.4449 25.7263 11.8906 25.5845 11.3363L26.6863 10.4667C26.9502 10.2539 27.0587 9.93799 26.9502 9.61339C26.8363 9.28995 26.5459 9.09097 26.2033 9.1144L24.7935 9.15917C24.5387 8.63253 24.2723 8.14432 23.9439 7.66784L24.6887 6.47651C24.8739 6.19667 24.8441 5.85518 24.6355 5.60511C24.3876 5.31776 24.0641 5.24441 23.7332 5.37636L22.4556 5.89526C22.0473 5.50081 21.5943 5.12557 21.1316 4.8005L21.4204 3.4451C21.4991 3.08323 21.363 2.77151 21.0672 2.60769C20.7426 2.42675 20.4107 2.46612 20.1627 2.71409L19.1312 3.63261C18.6121 3.40339 18.0695 3.21472 17.5194 3.04948L17.3244 1.67276C17.2733 1.33011 17.0308 1.07159 16.6935 1.00667C16.3412 0.965188 16.0412 1.11941 15.8976 1.40675L15.2423 2.65667C14.9427 2.63534 14.6666 2.62362 14.3809 2.62362C14.0835 2.62362 13.817 2.63534 13.5175 2.65667L12.8568 1.40886C12.7089 1.1173 12.4089 0.965188 12.0503 1.00878C11.7194 1.07159 11.4768 1.33011 11.4353 1.67276L11.2307 3.04948C10.6806 3.21472 10.1477 3.39378 9.6189 3.63261L8.58952 2.7162C8.33945 2.46612 8.00757 2.43636 7.67875 2.60769C7.38719 2.77151 7.25101 3.08323 7.32765 3.44721L7.61851 4.8005C7.16547 5.12557 6.70281 5.50081 6.29242 5.89526L5.01484 5.37636C4.68601 5.24441 4.37218 5.31776 4.12422 5.60511C3.90601 5.85518 3.87625 6.19667 4.0593 6.47651L4.80625 7.66784C4.4875 8.14432 4.2114 8.63253 3.95664 9.15917L2.55648 9.1144C2.21383 9.09097 1.91383 9.28995 1.79781 9.61128C1.69141 9.93799 1.79781 10.2582 2.06172 10.4667L3.16351 11.3384C3.02172 11.8906 2.91086 12.4449 2.87359 13.0259L1.53414 13.4532C1.19148 13.5713 1 13.8298 1 14.1842C1 14.5364 1.19148 14.7971 1.53414 14.9056L2.87359 15.3328C2.91086 15.9235 3.02172 16.4895 3.16351 17.0321L2.06383 17.9016C1.79781 18.1027 1.70102 18.4324 1.79781 18.7667C1.91383 19.0901 2.21383 19.2912 2.55859 19.2656L3.95664 19.1974C4.2114 19.7262 4.4875 20.2336 4.80625 20.6867L4.05719 21.8843C3.87414 22.1834 3.90601 22.5249 4.12422 22.7749C4.37218 23.0623 4.68601 23.1453 5.01695 22.9995L6.29031 22.471C6.70281 22.8792 7.16547 23.2428 7.61851 23.5657L7.32765 24.9349C7.26273 25.283 7.38508 25.5947 7.68296 25.7724C8.00546 25.9437 8.33734 25.9022 8.58741 25.666L9.6189 24.7378C10.1477 24.9553 10.6785 25.1653 11.2307 25.3188L11.4353 26.7073C11.4768 27.0499 11.7194 27.3085 12.0566 27.3734C12.4089 27.4149 12.6993 27.2606 12.8568 26.9595L13.5175 25.7117C13.8074 25.733 14.0835 25.7564 14.3809 25.7564ZM14.3809 23.6389C9.12553 23.6389 5.03405 19.43 5.03405 14.1938C5.03405 8.94799 9.12553 4.73908 14.3809 4.73908C19.6384 4.73908 23.7278 8.94799 23.7278 14.1938C23.7278 19.43 19.6384 23.6389 14.3809 23.6389ZM12.134 12.199L13.6837 11.231L9.83124 4.62612L8.21148 5.49119L12.134 12.199ZM17.2452 15.0839H24.936L24.9243 13.2621H17.2473L17.2452 15.0839ZM13.6827 17.1619L12.1511 16.1578L8.08797 22.8251L9.68967 23.7199L13.6827 17.1619ZM14.3617 17.4699C16.1589 17.4699 17.6186 16.0102 17.6186 14.2034C17.6186 12.3966 16.1589 10.9369 14.3617 10.9369C12.5528 10.9369 11.0952 12.3966 11.0952 14.2034C11.0952 16.0102 12.5528 17.4699 14.3617 17.4699ZM14.3617 15.6171C13.5573 15.6171 12.948 14.9981 12.948 14.2034C12.948 13.4086 13.5573 12.7896 14.3617 12.7896C15.1565 12.7896 15.7659 13.4086 15.7659 14.2034C15.7659 14.9981 15.1565 15.6171 14.3617 15.6171Z" fill="black"/>
</svg>
