<svg width="28" height="28" viewBox="0 0 28 28" fill="none" xmlns="http://www.w3.org/2000/svg">
<path d="M3 7.18421H23.9796V4.07031C23.9796 2.28578 22.8075 1.08813 21.0869 1.08813H5.90226C4.17 1.08813 3 2.28578 3 4.07031V7.18421ZM7.42148 5.88531C6.79124 5.88531 6.27703 5.35938 6.27703 4.74086C6.27703 4.10313 6.79124 3.59641 7.42148 3.59641C8.0496 3.59641 8.55421 4.10313 8.55421 4.74086C8.55421 5.35938 8.0496 5.88531 7.42148 5.88531ZM10.6617 5.88531C10.0336 5.88531 9.52686 5.35938 9.52686 4.74086C9.52686 4.10313 10.0336 3.59641 10.6617 3.59641C11.2898 3.59641 11.7965 4.10313 11.7965 4.74086C11.7965 5.35938 11.2898 5.88531 10.6617 5.88531ZM17.1637 5.42406C16.7583 5.42406 16.488 5.14633 16.488 4.74086C16.488 4.3375 16.7583 4.05016 17.1637 4.05016H19.9854C20.3983 4.05016 20.6686 4.3375 20.6686 4.74086C20.6686 5.14633 20.3983 5.42406 19.9854 5.42406H17.1637ZM9.25569 21.1804H13.3917C13.1944 20.5717 13.0247 19.8585 13.0247 18.9948C13.0247 17.0437 13.9683 14.7166 16.0505 14.7166C16.8494 14.7166 17.4928 15.1023 17.8151 15.4813C17.9016 15.3468 18.019 15.2294 18.1652 15.1621V13.4669C18.1652 13.195 17.9862 13.0138 17.7239 13.0138H9.25569C8.99342 13.0138 8.81436 13.195 8.81436 13.4669V20.7295C8.81436 21.0013 8.99342 21.1804 9.25569 21.1804ZM5.90226 26.3556H14.5626C14.6491 25.9061 15.0291 25.4636 15.0291 24.8673C15.0291 24.3212 14.4532 23.7016 13.9336 22.671H8.89921C7.96921 22.671 7.32374 22.0277 7.32374 21.088V13.1083C7.32374 12.1666 7.96921 11.5253 8.89921 11.5253H18.0804C19.0104 11.5253 19.6655 12.1666 19.6655 13.1083V14.7262C20.4225 14.7463 20.9313 15.0634 21.382 15.497C22.0516 14.8117 23.0522 14.5164 23.9796 14.8483V8.93194H3V23.3734C3 25.158 4.17 26.3556 5.90226 26.3556Z" fill="black"/>
<path d="M16.5841 27.2956C16.961 27.551 17.5455 27.5372 17.8767 26.9836C18.2334 26.3456 18.4411 25.5938 18.4411 24.8674C18.4411 22.222 16.425 20.9428 16.425 18.9949C16.425 18.5145 16.5166 18.1641 16.8138 17.6613C17.0693 17.2174 16.867 16.7649 16.5295 16.553C16.1526 16.3156 15.5819 16.3507 15.2838 16.8767C14.9058 17.5071 14.7119 18.2548 14.7119 18.9949C14.7119 21.5977 16.7163 22.8769 16.7163 24.8674C16.7163 25.3479 16.6322 25.6749 16.3371 26.1893C16.0741 26.6428 16.2893 27.0912 16.5841 27.2956ZM20.1471 27.2859C20.5411 27.551 21.1277 27.518 21.4301 26.974C21.7964 26.3339 22.0019 25.5938 22.0019 24.8674C22.0019 22.2124 19.9858 20.9332 19.9858 18.9853C19.9858 18.5145 20.0796 18.1641 20.3651 17.6517C20.6322 17.2078 20.4204 16.7649 20.0808 16.553C19.7156 16.3252 19.1353 16.3507 18.8351 16.8649C18.4687 17.5071 18.2749 18.2452 18.2749 18.9853C18.2749 21.5977 20.2772 22.8673 20.2772 24.8674C20.2772 25.3383 20.1951 25.6652 19.9076 26.1776C19.6446 26.6428 19.8426 27.0816 20.1471 27.2859ZM23.7143 27.2763C24.1083 27.5414 24.6949 27.5084 24.9972 26.9644C25.3636 26.3243 25.5691 25.5842 25.5691 24.8578C25.5691 22.2028 23.553 20.9236 23.553 18.9757C23.553 18.5028 23.6468 18.1545 23.9322 17.6421C24.1994 17.1982 23.9876 16.7553 23.6479 16.5434C23.2732 16.3156 22.7025 16.339 22.4022 16.8553C22.0263 17.4975 21.8421 18.2356 21.8421 18.9757C21.8421 21.5881 23.8444 22.8556 23.8444 24.8578C23.8444 25.3287 23.7623 25.6535 23.4651 26.168C23.2022 26.6332 23.4098 27.072 23.7143 27.2763Z" fill="black"/>
</svg>
