<svg width="34" height="28" viewBox="0 0 34 28" fill="none" xmlns="http://www.w3.org/2000/svg">
<path d="M0 16.9162C0 18.8686 1.02914 19.8839 3.01452 19.8839H7.2621C9.01312 19.8839 9.91406 20.3423 11.0618 21.8386C13.0941 24.4556 16.2201 25.8965 19.4728 25.8965H23.7051C24.6949 25.8965 25.3439 25.2476 25.3439 24.2674V4.6003C25.3439 3.63937 24.6853 3 23.7051 3H19.4728C16.2201 3 13.0941 4.44094 11.0618 7.05796C9.91406 8.55422 9.01312 9.02227 7.2621 9.02227H3.01452C1.02914 9.02227 0 10.028 0 11.9803V16.9162ZM2.13444 16.7203V12.1762C2.13444 11.4991 2.50358 11.1567 3.14976 11.1567H7.2621C9.68319 11.1567 11.1944 10.3856 12.7432 8.37139C14.366 6.26272 16.8551 5.13233 19.4728 5.13233H22.8047C23.0773 5.13233 23.2116 5.26874 23.2116 5.53381V23.3627C23.2116 23.6278 23.0773 23.7642 22.8047 23.7642H19.4728C16.8551 23.7642 14.366 22.6455 12.7432 20.5251C11.1944 18.5109 9.68319 17.7516 7.2621 17.7516H3.14976C2.50358 17.7516 2.13444 17.4091 2.13444 16.7203ZM24.093 11.9229H31.1679C32.2847 11.9229 33.1992 11.0084 33.1992 9.89155C33.1992 8.77476 32.2847 7.85812 31.1679 7.85812H24.093V11.9229ZM24.093 21.0912H31.1679C32.2847 21.0912 33.1992 20.1766 33.1992 19.0598C33.1992 17.943 32.2847 17.0285 31.1679 17.0285H24.093V21.0912Z" fill="black"/>
</svg>
