<svg width="28" height="29" viewBox="0 0 28 29" fill="none" xmlns="http://www.w3.org/2000/svg">
<path d="M7.80999 28.6413H20.2448C22.7359 28.6413 24.0569 27.3087 24.0569 24.7802V7.04086C24.0569 4.51242 22.7359 3.17977 20.343 3.17977H20.1009C20.1346 3.2857 20.1515 3.4139 20.1515 3.53882V4.89843C20.1515 6.41085 19.1322 7.48335 17.639 7.48335H10.4158C8.92468 7.48335 7.90328 6.41085 7.90328 4.89843V3.53882C7.90328 3.4139 7.92226 3.2857 7.95601 3.17977H7.71179C5.31882 3.17977 4 4.51242 4 7.04086V24.7802C4 27.3087 5.31882 28.6413 7.80999 28.6413ZM10.4158 6.10078H17.639C18.344 6.10078 18.7689 5.65031 18.7689 4.89843V3.66796C18.7689 2.91398 18.344 2.46562 17.639 2.46562H16.6452C16.5569 1.10344 15.4258 0 14.0284 0C12.6311 0 11.5 1.10344 11.4116 2.46562H10.4158C9.71288 2.46562 9.28796 2.91398 9.28796 3.66796V4.89843C9.28796 5.65031 9.71288 6.10078 10.4158 6.10078ZM14.0284 3.59578C13.4575 3.59578 12.9941 3.1207 12.9941 2.56359C12.9941 1.98515 13.4575 1.52179 14.0284 1.52179C14.5994 1.52179 15.0606 1.98515 15.0606 2.56359C15.0606 3.1207 14.5994 3.59578 14.0284 3.59578Z" fill="black"/>
</svg>
