<svg width="28" height="28" viewBox="0 0 28 28" fill="none" xmlns="http://www.w3.org/2000/svg">
<path d="M14.1071 20.2775C17.5072 20.2775 20.2859 17.503 20.2859 14.1029C20.2859 10.7007 17.5072 7.92405 14.105 7.92405C10.7049 7.92405 7.93038 10.7007 7.93038 14.1029C7.93038 17.503 10.7091 20.2775 14.1071 20.2775ZM14.1071 18.1641C11.8622 18.1641 10.0437 16.3456 10.0437 14.1029C10.0437 11.8559 11.8622 10.0353 14.1071 10.0353C16.3541 10.0353 18.1726 11.8559 18.1726 14.1029C18.1726 16.3456 16.3562 18.1641 14.1071 18.1641ZM4.89804 20.8154L7.46819 23.3855L12.0594 18.7965L9.48921 16.2242L4.89804 20.8154ZM4.78296 7.37233L9.48921 12.0786L12.0594 9.50843L7.35522 4.80218L4.78296 7.37233ZM23.4526 7.39155L20.8824 4.82139L16.1954 9.50843L18.7655 12.0786L23.4526 7.39155ZM23.3471 20.7962L18.7752 16.2242L16.1954 18.8061L20.7673 23.3759L23.3471 20.7962ZM14.105 26.21C20.7369 26.21 26.2121 20.7273 26.2121 14.105C26.2121 7.47312 20.7273 2 14.0954 2C7.47523 2 2 7.47312 2 14.105C2 20.7273 7.48484 26.21 14.105 26.21ZM14.105 23.8255C8.71085 23.8255 4.39412 19.4991 4.39412 14.105C4.39412 8.71085 8.70124 4.38452 14.0954 4.38452C19.4895 4.38452 23.8276 8.71085 23.8276 14.105C23.8276 19.4991 19.4991 23.8255 14.105 23.8255Z" fill="black"/>
</svg>
