<svg width="28" height="30" viewBox="0 0 28 30" fill="none" xmlns="http://www.w3.org/2000/svg">
<path d="M10.232 29.8969H17.4132C21.5863 29.8969 23.68 27.7563 23.6448 23.5364C23.5979 18.8107 23.5766 15.3719 23.4552 12.795C23.1132 5.14265 20.9183 2.8582 13.8264 2.8582C6.73653 2.8582 4.532 5.14265 4.19004 12.795C4.07075 15.3719 4.04731 18.8107 4.00044 23.5364C3.96528 27.7563 6.05684 29.8969 10.232 29.8969ZM9.9259 25.1475C8.86324 25.1475 8.1702 24.4406 8.1702 23.4035V17.3862C8.1702 16.3394 8.86324 15.6326 9.9259 15.6326H17.7289C18.7841 15.6326 19.475 16.3373 19.475 17.3862V23.4035C19.475 24.4448 18.7841 25.1475 17.7289 25.1475H9.9259ZM8.1702 20.4164H19.475V18.851H8.1702V20.4164ZM13.8243 0C11.4857 0 9.87621 1.56984 9.87621 3.77906H11.7184C11.7184 2.61702 12.5732 1.81265 13.8243 1.81265C15.0679 1.81265 15.9322 2.61702 15.9322 3.77906H17.7723C17.7723 1.56984 16.1532 0 13.8243 0Z" fill="black"/>
</svg>
