<svg width="28" height="28" viewBox="0 0 28 28" fill="none" xmlns="http://www.w3.org/2000/svg">
<path d="M22.3117 17.8178V4.58848C22.3117 2.26489 21.1014 1.03748 18.7992 1.03748H9.48327C8.19045 1.03748 7.271 1.45443 6.74295 2.2649L22.3117 17.8178ZM5.9707 8.18428V25.0272C5.9707 26.0783 6.54374 26.7058 7.47443 26.7058C8.10771 26.7058 8.50873 26.3755 9.51279 25.3961L14.04 20.9202C14.0964 20.8637 14.1956 20.8637 14.2425 20.9202L18.7718 25.3982C19.7779 26.3776 20.1726 26.7058 20.808 26.7058C21.7113 26.7058 22.2738 26.1142 22.3054 25.1052V24.5361L5.9707 8.18428Z" fill="black"/>
<path d="M24.3793 24.4897C24.7435 24.8497 25.3367 24.8519 25.6988 24.4897C26.0492 24.1255 26.063 23.5323 25.6988 23.1702L4.59404 2.05796C4.23193 1.69585 3.62701 1.69585 3.26279 2.05796C2.9124 2.41046 2.9124 3.0271 3.26279 3.37749L24.3793 24.4897Z" fill="black"/>
</svg>
