<svg width="30" height="28" viewBox="0 0 30 28" fill="none" xmlns="http://www.w3.org/2000/svg">
<path d="M29.2779 10.2885C29.2779 8.15735 28.1175 7.0054 25.9629 7.0054H3.31289C1.15617 7.0054 0 8.14774 0 10.2885V16.8557C0 18.9869 1.17 20.1451 3.3246 20.1451H25.9671C28.1292 20.1451 29.2779 18.9869 29.2779 16.8557V10.2885ZM3.81163 9.21742V14.5181C3.81163 14.8129 3.60303 15.0407 3.30069 15.0407C3.00796 15.0407 2.77593 14.8225 2.77593 14.5298V9.21742H3.81163ZM6.08928 9.21742V12.5547C6.08928 12.8591 5.88069 13.0773 5.56874 13.0773C5.2835 13.0773 5.05358 12.8688 5.05358 12.5664V9.21742H6.08928ZM8.36483 9.21742V12.5547C8.36483 12.8591 8.14663 13.0773 7.84428 13.0773C7.56116 13.0773 7.32913 12.8688 7.32913 12.5664V9.21742H8.36483ZM10.6233 9.21742V12.5547C10.6233 12.8591 10.4147 13.0773 10.1123 13.0773C9.81749 13.0773 9.58757 12.8688 9.58757 12.5664V9.21742H10.6233ZM12.8988 9.21742V12.5547C12.8988 12.8591 12.6902 13.0773 12.3783 13.0773C12.093 13.0773 11.8631 12.8688 11.8631 12.5664V9.21742H12.8988ZM15.1669 9.21742V14.5181C15.1669 14.8129 14.9562 15.0407 14.6463 15.0407C14.3611 15.0407 14.1291 14.8225 14.1291 14.5298V9.21742H15.1669ZM17.4424 9.21742V12.5547C17.4424 12.8591 17.2242 13.0773 16.9219 13.0773C16.6366 13.0773 16.4067 12.8688 16.4067 12.5664V9.21742H17.4424ZM19.7105 9.21742V12.5547C19.7105 12.8591 19.4998 13.0773 19.1995 13.0773C18.9047 13.0773 18.6726 12.8688 18.6726 12.5664V9.21742H19.7105ZM21.9764 9.21742V12.5547C21.9764 12.8591 21.7678 13.0773 21.4558 13.0773C21.1706 13.0773 20.9407 12.8688 20.9407 12.5664V9.21742H21.9764ZM24.2519 9.21742V12.5547C24.2519 12.8591 24.0337 13.0773 23.7335 13.0773C23.4483 13.0773 23.2162 12.8688 23.2162 12.5664V9.21742H24.2519ZM26.5104 9.21742V14.5181C26.5104 14.8129 26.3018 15.0407 25.9994 15.0407C25.7046 15.0407 25.4747 14.8225 25.4747 14.5298V9.21742H26.5104Z" fill="black"/>
</svg>
