<svg width="28" height="28" viewBox="0 0 28 28" fill="none" xmlns="http://www.w3.org/2000/svg">
<path d="M14.105 26.2301C20.7369 26.2301 26.2121 20.7549 26.2121 14.123C26.2121 7.50291 20.7273 2.01807 14.0954 2.01807C7.47523 2.01807 2 7.50291 2 14.123C2 20.7549 7.48484 26.2301 14.105 26.2301Z" fill="black"/>
<path d="M10.8072 20.7345C9.55235 20.7345 9.03039 20.0689 8.83657 18.797L8.00008 13.0735H20.2218L19.3736 18.797C19.1798 20.0593 18.6695 20.7345 17.403 20.7345H10.8072ZM12.3602 19.0773C12.5071 19.0773 12.6381 19.0133 12.7403 18.9228L14.0955 17.5496L15.472 18.9228C15.5742 19.0037 15.6956 19.0773 15.8521 19.0773C16.1481 19.0773 16.3952 18.8173 16.3952 18.5288C16.3952 18.368 16.3345 18.253 16.244 18.1508L14.8792 16.7839L16.244 15.4212C16.3579 15.2998 16.4048 15.188 16.4048 15.0294C16.4048 14.7216 16.1674 14.4863 15.8521 14.4863C15.7052 14.4863 15.5838 14.5491 15.4816 14.6588L14.0955 16.0257L12.7307 14.6588C12.6264 14.5491 12.5071 14.4959 12.3602 14.4959C12.0428 14.4959 11.8075 14.7312 11.8075 15.0294C11.8075 15.1976 11.864 15.3094 11.9779 15.4212L13.3331 16.7839L11.9779 18.1508C11.8661 18.253 11.8075 18.368 11.8075 18.5288C11.8075 18.8173 12.0428 19.0773 12.3602 19.0773ZM7.64641 12.0807C6.93461 12.0807 6.54907 11.6534 6.54907 10.9482V10.3114C6.54907 9.58907 6.96555 9.16602 7.64641 9.16602H20.5659C21.2798 9.16602 21.6632 9.58907 21.6632 10.3114V10.9482C21.6632 11.6534 21.2798 12.0807 20.5659 12.0807H7.64641Z" fill="white"/>
</svg>
