<svg width="28" height="28" viewBox="0 0 28 28" fill="none" xmlns="http://www.w3.org/2000/svg">
<path d="M19.8847 26.5419V4.0989C19.8847 2.1032 18.7815 1 16.788 1H5.97976C3.97656 1 2.90429 2.1032 2.90429 4.0989V26.5419H5.08092L5.09053 4.16874C5.09053 3.52866 5.39991 3.19046 6.06132 3.19046H16.7064C17.3465 3.19046 17.6847 3.51905 17.6847 4.16874V26.5419H19.8847ZM1 26.3334C1 26.943 1.47976 27.4441 2.07976 27.4441H20.6901C21.2901 27.4441 21.7794 26.943 21.7794 26.3334C21.7794 25.7451 21.288 25.2536 20.6901 25.2536H2.07976C1.49148 25.2536 1 25.7355 1 26.3334ZM7.69983 14.1344H15.0679C15.8341 14.1344 16.3647 13.6741 16.3647 12.9782V5.85343C16.3647 5.15546 15.8287 4.67804 15.0679 4.67804H7.69983C6.93905 4.67804 6.42225 5.15546 6.42225 5.85343V12.9782C6.42225 13.6741 6.94116 14.1344 7.69983 14.1344ZM18.9655 16.6572H20.0758C20.5621 16.6572 20.8607 16.9366 20.8607 17.4613V21.3234C20.8607 23.0275 21.9128 24.0796 23.6211 24.0796C25.3253 24.0796 26.3678 23.0275 26.3678 21.3234V6.93625C26.3678 6.21203 26.174 5.64133 25.8172 5.07484L24.2139 2.47328C23.5529 1.41649 21.996 2.34578 22.66 3.43117L23.9901 5.57547C24.138 5.81383 24.122 6.09789 23.9624 6.33203L22.4694 8.41539C21.9423 9.14054 22.0084 9.84742 22.5716 10.5086L24.5404 12.7895V21.3234C24.5404 21.8971 24.1853 22.2522 23.6211 22.2522C23.0432 22.2522 22.6977 21.8971 22.6977 21.3234V17.4613C22.6977 15.8041 21.6925 14.8298 20.0758 14.8298H18.9655V16.6572Z" fill="black"/>
</svg>
