<svg width="28" height="28" viewBox="0 0 28 28" fill="none" xmlns="http://www.w3.org/2000/svg">
<path d="M16.7984 26.9669C17.6991 26.9669 18.3284 26.2319 18.762 25.1048L26.4926 4.89792C26.6973 4.37573 26.8081 3.90581 26.8081 3.5137C26.8081 2.68026 26.2866 2.16089 25.4532 2.16089C25.059 2.16089 24.5891 2.27175 24.069 2.47425L3.77562 10.2454C2.76383 10.6288 2 11.2581 2 12.1684C2 13.2866 2.83508 13.7005 3.98539 14.0509L10.0625 15.9053C10.88 16.1608 11.3588 16.1437 11.9302 15.6201L24.9713 3.52823C25.1342 3.37917 25.329 3.4005 25.4525 3.51651C25.5739 3.64003 25.5898 3.83479 25.4387 3.99768L13.3873 17.0645C12.8839 17.6019 12.8424 18.0995 13.0841 18.9269L14.8946 24.8908C15.2546 26.0891 15.6706 26.9669 16.7984 26.9669Z" fill="black"/>
</svg>
