<svg width="28" height="28" viewBox="0 0 28 28" fill="none" xmlns="http://www.w3.org/2000/svg">
<path d="M3.00211 4.2046H6.21561V2.41281C6.21561 1.52265 5.74405 1 4.92749 1H4.27101C3.46406 1 3.00211 1.54398 3.00211 2.41492V4.2046ZM3 24.7199L4.14656 27.463C4.29539 27.8001 4.81546 27.8087 4.96546 27.4769L6.2135 24.7199V5.72124H3V24.7199ZM15.322 27.7356H21.2758C23.0531 27.7356 24.2608 26.5194 24.2608 24.7422V4.20413C24.2608 2.41515 23.0531 1.19359 21.2758 1.19359H15.322C13.5447 1.19359 12.3424 2.40765 12.3424 4.19663V24.7347C12.3424 26.5215 13.5447 27.7356 15.322 27.7356ZM15.6595 25.7462C14.8533 25.7462 14.3318 25.229 14.3318 24.4537V4.48304C14.3318 3.70772 14.8533 3.18835 15.6595 3.18835H20.9479C21.7446 3.18835 22.264 3.70983 22.264 4.48515V24.444C22.264 25.2194 21.7446 25.7462 20.9479 25.7462H15.6595ZM22.8881 5.47421V4.51398H17.4574C17.2019 4.51398 16.9879 4.72046 16.9879 4.99726C16.9879 5.25483 17.1923 5.47421 17.4499 5.47421H22.8881ZM22.8881 7.35436V6.41546H19.23C18.9649 6.41546 18.7701 6.61444 18.7701 6.89874C18.7701 7.15632 18.9553 7.35436 19.2225 7.35436H22.8881ZM22.8881 9.25796V8.31695H19.23C18.9649 8.31695 18.7701 8.51593 18.7701 8.80023C18.7701 9.0578 18.9553 9.25796 19.2225 9.25796H22.8881ZM22.8881 11.1498V10.1992H19.23C18.9649 10.1992 18.7701 10.3961 18.7701 10.6729C18.7701 10.9497 18.9553 11.1498 19.2225 11.1498H22.8881ZM22.8881 13.0417V12.0911H19.23C18.9649 12.0911 18.7701 12.2997 18.7701 12.584C18.7701 12.8319 18.9553 13.0417 19.2225 13.0417H22.8881ZM22.8881 14.9219V13.9926H17.4574C17.2019 13.9926 16.9879 14.1916 16.9879 14.4662C16.9879 14.7334 17.1923 14.9219 17.4499 14.9219H22.8881ZM22.8881 16.8351V15.8823H19.23C18.9649 15.8823 18.7701 16.0813 18.7701 16.356C18.7701 16.6274 18.9553 16.8351 19.2225 16.8351H22.8881ZM22.8881 18.7269V17.7859H19.23C18.9649 17.7859 18.7701 17.9732 18.7701 18.2596C18.7701 18.5172 18.9553 18.7269 19.2225 18.7269H22.8881ZM22.8881 20.6071V19.6682H19.23C18.9649 19.6682 18.7701 19.8768 18.7701 20.1419C18.7701 20.3994 18.9553 20.6071 19.2225 20.6071H22.8881ZM22.8881 22.5011V21.5601H19.23C18.9649 21.5601 18.7701 21.7473 18.7701 22.022C18.7701 22.303 18.9553 22.5011 19.2225 22.5011H22.8881ZM22.8881 24.393V23.4423H17.4574C17.2019 23.4423 16.9879 23.6488 16.9879 23.9256C16.9879 24.1832 17.1923 24.393 17.4499 24.393H22.8881Z" fill="black"/>
</svg>
