<svg width="28" height="28" viewBox="0 0 28 28" fill="none" xmlns="http://www.w3.org/2000/svg">
<path d="M6.84421 24.8972H21.0295C23.5685 24.8972 24.8737 23.5919 24.8737 21.0914V6.82921C24.8737 4.32656 23.5685 3.02344 21.0295 3.02344H6.84421C4.31484 3.02344 3 4.31695 3 6.82921V21.0914C3 23.6016 4.31484 24.8972 6.84421 24.8972Z" fill="black"/>
<path d="M11.4172 20.1827L7.9388 16.6851C7.16466 15.9185 7.1288 15.1277 7.91677 14.3398L13.6857 8.51109C14.1385 8.05078 14.4582 7.73624 15.1785 7.73624H17.5161C18.0742 7.73624 18.3948 7.95164 18.7824 8.32757L19.8634 9.39679C20.251 9.78656 20.3874 10.1072 20.3874 10.6727V12.9239C20.3874 13.6634 20.0633 13.9734 19.6126 14.4241L13.7776 20.209C12.9875 20.9991 12.1913 20.9451 11.4172 20.1827ZM16.0168 12.1005C16.3703 12.4636 16.9473 12.4636 17.3103 12.0909C17.6734 11.73 17.6692 11.1487 17.3103 10.7995C16.9515 10.4386 16.3745 10.4386 16.0189 10.7995C15.6559 11.1605 15.658 11.7513 16.0168 12.1005Z" fill="white"/>
</svg>
