<svg width="28" height="28" viewBox="0 0 28 28" fill="none" xmlns="http://www.w3.org/2000/svg">
<path d="M7.80577 26.3655H20.2891C22.8013 26.3655 24.0948 25.0506 24.0948 22.5287V11.8966C24.0948 10.2688 23.8853 9.52188 22.8655 8.4829L16.7101 2.2314C15.7309 1.23086 14.9167 1 13.4544 1H7.80577C5.30523 1 4 2.32445 4 4.84632V22.5287C4 25.0602 5.29562 26.3655 7.80577 26.3655ZM7.98905 24.0695C6.85795 24.0695 6.29592 23.4777 6.29592 22.386V4.98905C6.29592 3.90694 6.85795 3.29592 7.99866 3.29592H12.9941V9.72273C12.9941 11.3997 13.8126 12.2106 15.482 12.2106H21.7989V22.386C21.7989 23.4777 21.2369 24.0695 20.0983 24.0695H7.98905ZM15.6993 10.1859C15.2137 10.1859 15.0189 9.97937 15.0189 9.49586V3.61491L21.4799 10.1859H15.6993Z" fill="black"/>
<path d="M15.0646 21.6782V18.0697L14.9795 16.2461L15.8807 17.1887L16.7772 18.1129C16.9476 18.3076 17.2136 18.4246 17.4733 18.4246C17.9969 18.4246 18.3885 18.0468 18.3885 17.5295C18.3885 17.2347 18.2809 17.0165 18.0618 16.825L14.8239 13.8608C14.5567 13.6171 14.327 13.5055 14.0474 13.5055C13.7678 13.5055 13.5381 13.6171 13.2709 13.8608L10.033 16.825C9.81388 17.0165 9.7063 17.2347 9.7063 17.5295C9.7063 18.0468 10.0904 18.4246 10.6236 18.4246C10.8737 18.4246 11.143 18.3076 11.3176 18.1129L12.2162 17.1887L13.1153 16.2461L13.0302 18.0697V21.6782C13.0302 22.2346 13.4952 22.6509 14.0474 22.6509C14.5996 22.6509 15.0646 22.2346 15.0646 21.6782Z" fill="black"/>
</svg>
