<svg width="28" height="28" viewBox="0 0 28 28" fill="none" xmlns="http://www.w3.org/2000/svg">
<path d="M13.7336 25.8079C13.9401 25.8079 14.2457 25.727 14.5429 25.5747C21.2573 22.1163 23.4672 20.3006 23.4672 16.0956V7.37569C23.4672 6.01257 22.9431 5.52249 21.7942 5.04062C20.5075 4.51187 16.1964 2.97929 14.9404 2.55483C14.5565 2.43249 14.125 2.35913 13.7336 2.35913C13.3443 2.35913 12.9128 2.4421 12.5364 2.55483C11.2708 2.96007 6.96179 4.52148 5.67507 5.04062C4.53578 5.51077 4 6.01257 4 7.37569V16.0956C4 20.3006 6.31023 21.9487 12.9243 25.5747C13.2311 25.7367 13.5292 25.8079 13.7336 25.8079Z" fill="black"/>
<path d="M9.8867 18.5358C9.26959 18.5358 8.79077 18.0452 8.79077 17.4164C8.79077 17.129 8.90139 16.8588 9.11631 16.6481L12.1726 13.5876L9.11631 10.5196C8.90139 10.3186 8.79077 10.0387 8.79077 9.75136C8.79077 9.13214 9.26959 8.66082 9.8867 8.66082C10.2047 8.66082 10.4494 8.76722 10.6665 8.97465L13.7356 12.0321L16.8261 8.96293C17.0527 8.7384 17.2974 8.6416 17.6058 8.6416C18.2229 8.6416 18.7114 9.12043 18.7114 9.73003C18.7114 10.0291 18.6104 10.2876 18.3858 10.51L15.3125 13.5876L18.3762 16.6385C18.5911 16.8492 18.7018 17.1194 18.7018 17.4164C18.7018 18.0452 18.2133 18.5358 17.5866 18.5358C17.2686 18.5358 16.9929 18.4294 16.7876 18.2144L13.7356 15.157L10.6953 18.2144C10.4804 18.4294 10.2047 18.5358 9.8867 18.5358Z" fill="white"/>
</svg>
