<svg width="28" height="28" viewBox="0 0 28 28" fill="none" xmlns="http://www.w3.org/2000/svg">
<path d="M14.105 26.21C20.7369 26.21 26.2121 20.7273 26.2121 14.105C26.2121 7.47312 20.7273 2 14.0954 2C7.47523 2 2 7.47312 2 14.105C2 20.7273 7.48484 26.21 14.105 26.21ZM14.105 23.8255C8.71085 23.8255 4.39412 19.4991 4.39412 14.105C4.39412 8.71085 8.70124 4.38452 14.0954 4.38452C19.4895 4.38452 23.8276 8.71085 23.8276 14.105C23.8276 19.4991 19.4991 23.8255 14.105 23.8255Z" fill="black"/>
<path d="M14.0763 16.7298C15.5228 16.7298 16.7074 15.5452 16.7074 14.0987C16.7074 12.6404 15.5228 11.4655 14.0763 11.4655C12.6276 11.4655 11.4451 12.6404 11.4451 14.0987C11.4451 15.5452 12.6276 16.7298 14.0763 16.7298ZM14.0763 15.1435C13.4974 15.1435 13.0293 14.6755 13.0293 14.0987C13.0293 13.5101 13.4974 13.0517 14.0763 13.0517C14.6531 13.0517 15.1232 13.5101 15.1232 14.0987C15.1232 14.6755 14.6531 15.1435 14.0763 15.1435ZM13.6375 16.0435L12.156 14.581L10.5536 16.1792C10.1544 16.5805 10.1523 17.251 10.5536 17.6544C10.9569 18.0577 11.6179 18.0577 12.0288 17.6544L13.6375 16.0435ZM14.5905 12.152L16.072 13.5994L19.9884 9.68514C20.4013 9.28178 20.4013 8.62295 19.9884 8.20999C19.585 7.80663 18.9262 7.80663 18.5228 8.20999L14.5905 12.152Z" fill="black"/>
</svg>
