<svg width="29" height="28" viewBox="0 0 29 28" fill="none" xmlns="http://www.w3.org/2000/svg">
<path d="M19.8802 23.3169H22.0791V14.4209C22.0791 10.0466 18.6976 6.65747 14.3232 6.65747C9.95844 6.65747 6.57689 10.0466 6.57689 14.4209V23.3169H8.77367V14.4209C8.77367 11.2667 11.1765 8.85426 14.3232 8.85426C17.4774 8.85426 19.8802 11.2667 19.8802 14.4209V23.3169ZM23.5173 24.4159C24.1269 24.4159 24.6322 23.9223 24.6322 23.3223C24.6322 22.7127 24.1269 22.2073 23.5173 22.2073H5.11743C4.51744 22.2073 4.03345 22.7127 4.03345 23.3223C4.03345 23.9223 4.51744 24.4159 5.11743 24.4159H23.5173ZM15.4264 14.8116C15.4264 14.2116 14.9232 13.7084 14.3232 13.7084C13.7232 13.7084 13.2392 14.2116 13.2392 14.8116V23.3169H15.4264V14.8116Z" fill="black"/>
<path d="M3.42538 15.4987C4.06054 15.4987 4.61483 14.97 4.61483 14.3423C4.61483 13.6933 4.06054 13.1646 3.42538 13.1646H1.15851C0.530856 13.1646 0 13.7051 0 14.3423C0 14.9583 0.530856 15.4987 1.15851 15.4987H3.42538ZM5.77078 7.43366C6.22077 7.88366 6.96655 7.89748 7.41655 7.43366C7.87826 6.97405 7.86655 6.23999 7.41655 5.79L5.81975 4.18359C5.37936 3.72398 4.62398 3.72398 4.16437 4.18359C3.71437 4.6432 3.71437 5.36975 4.16437 5.82936L5.77078 7.43366ZM13.155 3.4446C13.155 4.07976 13.6837 4.62444 14.3231 4.62444C14.9721 4.62444 15.5008 4.07976 15.5008 3.4446V1.17773C15.5008 0.540466 14.9583 0 14.3231 0C13.6858 0 13.155 0.540466 13.155 1.17773V3.4446ZM21.2201 5.79C20.7701 6.23999 20.7583 6.97405 21.2201 7.43366C21.6893 7.89748 22.4137 7.88366 22.8637 7.43366L24.4797 5.82936C24.9297 5.36975 24.9297 4.6432 24.4797 4.18359C24.0105 3.72398 23.2861 3.72398 22.8361 4.18359L21.2201 5.79ZM27.4781 15.4987C28.1154 15.4987 28.6558 14.9583 28.6558 14.3423C28.6558 13.7051 28.1154 13.1646 27.4781 13.1646H25.2112C24.5836 13.1646 24.041 13.6933 24.041 14.3423C24.041 14.97 24.5836 15.4987 25.2112 15.4987H27.4781Z" fill="black"/>
</svg>
