<svg width="28" height="28" viewBox="0 0 28 28" fill="none" xmlns="http://www.w3.org/2000/svg">
<path d="M14.105 26.21C20.7369 26.21 26.2121 20.7273 26.2121 14.105C26.2121 7.47312 20.7273 2 14.0954 2C7.47523 2 2 7.47312 2 14.105C2 20.7273 7.48484 26.21 14.105 26.21ZM14.105 23.8255C8.71085 23.8255 4.39412 19.4991 4.39412 14.105C4.39412 8.71085 8.70124 4.38452 14.0954 4.38452C19.4895 4.38452 23.8276 8.71085 23.8276 14.105C23.8276 19.4991 19.4991 23.8255 14.105 23.8255Z" fill="black"/>
<path d="M9.04799 18.2216H19.1739C19.8053 18.2216 20.1864 17.8714 20.1864 17.3659C20.1864 16.6948 19.582 16.127 19.0056 15.5684C18.5519 15.1304 18.472 14.2194 18.3998 13.4094C18.3053 11.0567 17.6226 9.41116 15.9834 8.80787C15.715 7.98639 15.0374 7.34045 14.1051 7.34045C13.1749 7.34045 12.5048 7.98639 12.2289 8.80787C10.5897 9.41116 9.90276 11.0567 9.82213 13.4094C9.74245 14.2194 9.65081 15.1304 9.20667 15.5684C8.64956 16.1387 8.02588 16.6948 8.02588 17.3659C8.02588 17.8714 8.40487 18.2216 9.04799 18.2216ZM14.1051 20.9455C15.2214 20.9455 16.0406 20.1603 16.1088 19.209H12.1035C12.1813 20.1603 12.9909 20.9455 14.1051 20.9455Z" fill="black"/>
</svg>
