<svg width="28" height="28" viewBox="0 0 28 28" fill="none" xmlns="http://www.w3.org/2000/svg">
<path d="M4.93109 24.0091H23.9869C25.7405 24.0091 26.9222 22.8136 26.9222 21.0675V5.94374C26.9222 4.19765 25.7405 3 23.9869 3H4.93109C3.17961 3 2 4.19765 2 5.94374V21.0675C2 22.8136 3.17961 24.0091 4.93109 24.0091ZM5.04522 21.787C4.55046 21.787 4.22421 21.434 4.22421 20.9083V6.10077C4.22421 5.57507 4.55046 5.2221 5.04522 5.2221H23.9077C24.3823 5.2221 24.698 5.56663 24.698 6.07546V20.9336C24.698 21.4446 24.3823 21.787 23.9077 21.787H5.04522ZM7.44733 8.24998C8.04358 8.24998 8.53436 7.76553 8.53436 7.15756C8.53436 6.55709 8.04358 6.07264 7.44733 6.07264C6.83936 6.07264 6.3528 6.55709 6.3528 7.15756C6.3528 7.76553 6.83936 8.24998 7.44733 8.24998ZM10.5223 8.24998C11.1303 8.24998 11.6169 7.76553 11.6169 7.15756C11.6169 6.55709 11.1303 6.07264 10.5223 6.07264C9.92608 6.07264 9.4353 6.55709 9.4353 7.15756C9.4353 7.76553 9.92608 8.24998 10.5223 8.24998ZM13.6048 8.24998C14.2011 8.24998 14.6919 7.76553 14.6919 7.15756C14.6919 6.55709 14.2011 6.07264 13.6048 6.07264C12.999 6.07264 12.5103 6.55709 12.5103 7.15756C12.5103 7.76553 12.999 8.24998 13.6048 8.24998ZM18.9427 7.84802H22.0625C22.4583 7.84802 22.7391 7.55764 22.7391 7.16178C22.7391 6.76803 22.4583 6.48725 22.0625 6.48725H18.9427C18.5469 6.48725 18.2565 6.76803 18.2565 7.16178C18.2565 7.55764 18.5469 7.84802 18.9427 7.84802ZM3.44467 10.7144H25.4989V9.03373H3.44467V10.7144ZM7.20358 20.3655H21.7304C22.3941 20.3655 22.816 19.9458 22.816 19.282V13.0748C22.816 12.4111 22.3941 11.9796 21.7304 11.9796H7.20358C6.53983 11.9796 6.10835 12.4111 6.10835 13.0748V19.282C6.10835 19.9458 6.53983 20.3655 7.20358 20.3655ZM7.84366 18.9319C7.67842 18.9319 7.55373 18.8072 7.55373 18.6419V13.6896C7.55373 13.5147 7.67842 13.39 7.84366 13.39H21.0903C21.2555 13.39 21.3802 13.5147 21.3802 13.6896V18.6419C21.3802 18.8072 21.2555 18.9319 21.0903 18.9319H7.84366ZM7.22022 15.8958H21.718V14.5823H7.22022V15.8958Z" fill="black"/>
</svg>
