<svg width="28" height="28" viewBox="0 0 28 28" fill="none" xmlns="http://www.w3.org/2000/svg">
<path d="M6.41944 25.3341L19.3389 27.6148C21.7876 28.0481 23.3066 26.6515 23.3066 23.9834V9.83676C23.3066 7.38591 22.101 6.43998 19.6281 6.00029L7.09421 3.79201C5.24617 3.47373 4 4.51341 4 6.34106V22.541C4 24.1006 4.82476 25.0552 6.41944 25.3341ZM7.26812 11.0316V8.55684C7.26812 7.68661 7.81772 7.28513 8.721 7.43958L11.211 7.87856C12.1649 8.05317 11.935 9.66497 10.8608 9.47442L9.41311 9.21426C9.08569 9.15989 8.91506 9.28575 8.91506 9.57473V11.0944C8.91506 12.0856 7.26812 12.0856 7.26812 11.0316ZM18.3105 12.9101V11.4851C18.3105 11.1314 18.205 10.7623 17.5684 10.6557L16.6042 10.482C15.4703 10.2797 15.7429 8.67966 16.8873 8.88192L18.1166 9.09497C19.4301 9.33145 19.9595 9.89067 19.9595 10.9974V12.9101C19.9595 14.0642 18.3105 13.9683 18.3105 12.9101ZM8.91506 18.5913V20.0163C8.91506 20.37 9.02264 20.7392 9.65921 20.8479L10.6213 21.0216C11.7573 21.2121 11.4847 22.8218 10.3403 22.6195L9.11101 22.4065C7.79546 22.1721 7.26812 21.6108 7.26812 20.5041V18.5913C7.26812 17.4373 8.91506 17.5331 8.91506 18.5913ZM19.9595 20.4699V22.9467C19.9595 23.8149 19.4099 24.2163 18.5066 24.0619L16.0262 23.6229C15.0702 23.4504 15.2926 21.8386 16.3647 22.027L17.8145 22.2893C18.1398 22.3416 18.3105 22.2157 18.3105 21.9288V20.4092C18.3105 19.4159 19.9595 19.4159 19.9595 20.4699ZM9.97935 2.64873L19.9136 4.39412C20.973 4.58045 21.8535 4.88068 22.5712 5.2756L22.569 4.49982C22.5226 1.95966 20.7416 0.745599 17.8419 1.25677L9.97935 2.64873Z" fill="black"/>
</svg>
