<svg width="28" height="28" viewBox="0 0 28 28" fill="none" xmlns="http://www.w3.org/2000/svg">
<path d="M9.72124 18.954H18.1784C18.7592 18.954 19.0564 18.6664 19.0564 18.0664V9.63263C19.0564 9.04223 18.7592 8.75466 18.1784 8.75466H9.72124C9.13835 8.75466 8.84327 9.04223 8.84327 9.63263V18.0664C8.84327 18.6664 9.13835 18.954 9.72124 18.954ZM10.8242 17.2395C10.6686 17.2395 10.5577 17.1287 10.5577 16.9709V10.7356C10.5577 10.5703 10.6686 10.4691 10.8242 10.4691H17.0659C17.2311 10.4691 17.342 10.5703 17.342 10.7356V16.9709C17.342 17.1287 17.2311 17.2395 17.0659 17.2395H10.8242ZM5.21961 23.589H22.6801C23.2848 23.589 23.6872 23.1962 23.6872 22.5915V5.12138C23.6872 4.5167 23.2848 4.11428 22.6801 4.11428H5.21961C4.60531 4.11428 4.2125 4.5167 4.2125 5.12138V22.5915C4.2125 23.1962 4.60531 23.589 5.21961 23.589ZM6.84194 21.2931C6.60639 21.2931 6.50842 21.2047 6.50842 20.9595V6.75332C6.50842 6.50816 6.60639 6.4102 6.84194 6.4102H21.0577C21.2933 6.4102 21.3913 6.50816 21.3913 6.75332V20.9595C21.3913 21.2047 21.2933 21.2931 21.0577 21.2931H6.84194ZM11.0612 21.9732H9.02047V24.676C9.02047 25.2723 9.43976 25.6916 10.036 25.6916C10.6323 25.6916 11.0612 25.2723 11.0612 24.676V21.9732ZM14.9654 21.9732H12.9247V24.676C12.9247 25.2723 13.3515 25.6916 13.9498 25.6916C14.5461 25.6916 14.9654 25.2723 14.9654 24.676V21.9732ZM18.908 21.9732H16.8673V24.676C16.8673 25.2723 17.2845 25.6916 17.8829 25.6916C18.4791 25.6916 18.908 25.2723 18.908 24.676V21.9732ZM22.0681 16.7286V18.7693H24.7688C25.3672 18.7693 25.794 18.3404 25.794 17.7441C25.794 17.1458 25.3672 16.7286 24.7688 16.7286H22.0681ZM22.0681 12.8148V14.8555H24.7688C25.3672 14.8555 25.794 14.4362 25.794 13.8399C25.794 13.2416 25.3672 12.8148 24.7688 12.8148H22.0681ZM22.0681 8.91053V10.9512H24.7688C25.3672 10.9512 25.794 10.5223 25.794 9.92607C25.794 9.32982 25.3672 8.91053 24.7688 8.91053H22.0681ZM16.8385 5.73334H18.8792V3.03263C18.8792 2.43639 18.4503 2.01709 17.8541 2.01709C17.2557 2.01709 16.8385 2.43639 16.8385 3.03263V5.73334ZM12.9247 5.73334H14.9654V3.03263C14.9654 2.43639 14.5461 2.01709 13.9498 2.01709C13.3515 2.01709 12.9247 2.43639 12.9247 3.03263V5.73334ZM9.02047 5.73334H11.0612V3.03263C11.0612 2.43639 10.6323 2.01709 10.036 2.01709C9.43976 2.01709 9.02047 2.43639 9.02047 3.03263V5.73334ZM5.82195 10.9608V8.92014H3.01554C2.41719 8.92014 2 9.33943 2 9.93568C2 10.534 2.41719 10.9608 3.01554 10.9608H5.82195ZM5.82195 14.8651V12.8244H3.01554C2.41719 12.8244 2 13.2533 2 13.8495C2 14.4458 2.41719 14.8651 3.01554 14.8651H5.82195ZM5.82195 18.7789V16.7382H3.01554C2.41719 16.7382 2 17.1554 2 17.7537C2 18.35 2.41719 18.7789 3.01554 18.7789H5.82195Z" fill="black"/>
</svg>
