<svg width="29" height="28" viewBox="0 0 29 28" fill="none" xmlns="http://www.w3.org/2000/svg">
<path d="M2.30929 19.4268C4.20257 19.4268 5.26733 18.2088 5.26733 16.0769V12.5128C5.26733 10.3809 4.20257 9.16074 2.30929 9.16074H1.21429C0.45117 9.16074 0 9.61191 0 10.3771V18.2126C0 18.9757 0.45117 19.4268 1.21429 19.4268H2.30929ZM13.3509 21.7C14.4677 21.7 15.1905 20.9793 15.1905 19.8604V8.72714C15.1905 7.60824 14.4677 6.88965 13.3509 6.88965H11.707C8.57273 6.88965 6.60257 8.8673 6.60257 12.0016V16.5956C6.60257 19.7299 8.57273 21.7 11.707 21.7H13.3509ZM7.8553 16.7416V11.7204H4.41609V16.7416H7.8553ZM16.2844 19.5356C17.5751 19.4362 18.3862 18.4488 18.3862 16.9294V11.67C18.3862 10.1388 17.5751 9.15136 16.2844 9.04026V19.5356Z" fill="black"/>
<path d="M21.5926 19.0197C21.8427 18.5557 21.6681 17.981 21.204 17.7213C20.7325 17.4733 20.1674 17.6479 19.9077 18.1216C19.6597 18.5911 19.8343 19.1465 20.3059 19.4041C20.77 19.6542 21.3446 19.4796 21.5926 19.0197ZM21.7053 14.2821C21.7053 13.751 21.2786 13.3338 20.7475 13.3338C20.2206 13.3338 19.8034 13.751 19.8034 14.2821C19.8034 14.809 20.2206 15.2358 20.7475 15.2358C21.2786 15.2358 21.7053 14.809 21.7053 14.2821ZM21.5926 9.55405C21.3446 9.10381 20.77 8.9292 20.3059 9.17928C19.8343 9.42725 19.6597 9.99232 19.9077 10.4522C20.1674 10.9354 20.7325 11.1004 21.204 10.8525C21.6681 10.6024 21.8427 10.0277 21.5926 9.55405Z" fill="black"/>
<path d="M24.474 20.5523C24.7241 20.0808 24.5399 19.5061 24.0758 19.256C23.6021 19.0176 23.0392 19.1922 22.7933 19.6542C22.5529 20.1183 22.7157 20.6929 23.1777 20.9409C23.6418 21.191 24.2239 21.0164 24.474 20.5523ZM24.9594 14.2821C24.9594 13.7552 24.5326 13.338 24.0015 13.338C23.4746 13.338 23.0575 13.7552 23.0575 14.2821C23.0575 14.8111 23.4746 15.24 24.0015 15.24C24.5326 15.24 24.9594 14.8111 24.9594 14.2821ZM24.474 8.03108C24.2239 7.56702 23.6418 7.39241 23.1777 7.64249C22.7157 7.89045 22.5529 8.46514 22.7933 8.9292C23.0392 9.38154 23.6021 9.56576 24.0758 9.3274C24.5399 9.07732 24.7241 8.49303 24.474 8.03108Z" fill="black"/>
<path d="M27.3384 22.087C27.5864 21.6251 27.4214 21.0408 26.9477 20.7907C26.4762 20.5427 25.9132 20.7269 25.6652 21.1889C25.4151 21.6508 25.5876 22.2255 26.0592 22.4735C26.5233 22.714 27.0883 22.549 27.3384 22.087ZM28.2232 14.2821C28.2232 13.7552 27.7964 13.338 27.2653 13.338C26.7384 13.338 26.3212 13.7552 26.3212 14.2821C26.3212 14.8111 26.7384 15.24 27.2653 15.24C27.7964 15.24 28.2232 14.8111 28.2232 14.2821ZM27.3384 6.4985C27.0883 6.03444 26.5233 5.86944 26.0592 6.10991C25.5876 6.35788 25.4151 6.92295 25.6652 7.39662C25.9132 7.85647 26.4762 8.04068 26.9477 7.79272C27.4214 7.54264 27.5864 6.95834 27.3384 6.4985Z" fill="black"/>
</svg>
