<svg width="28" height="28" viewBox="0 0 28 28" fill="none" xmlns="http://www.w3.org/2000/svg">
<path d="M14.3059 0C11.7611 0 9.53172 1.05141 8.06711 2.71312L9.51718 4.16319C10.6127 2.84718 12.3698 2.04796 14.3059 2.04796C17.5166 2.05007 20.2328 4.25718 20.2328 7.35374C20.2328 9.38953 19.3515 10.4817 18.4553 13.0938L20.1393 14.7853C21.1239 11.8573 22.2807 10.3036 22.2807 7.35585C22.2807 3.20953 18.7414 0 14.3059 0ZM10.6359 21.6077H17.9664C18.4276 21.6077 18.7246 21.371 18.789 20.9712L18.8659 20.3562L17.3104 18.8796L17.2239 19.5619H11.5506C11.0109 15.0258 9.97585 13.099 9.48647 11.2174C9.4417 11.0575 9.40655 10.8998 9.38311 10.7442L6.38219 7.74327C6.3693 8.03835 6.38524 8.32171 6.415 8.60296C6.82375 12.143 9.04071 13.8035 9.6761 20.7159C9.7293 21.2644 10.0586 21.6077 10.6359 21.6077ZM10.5405 24.3246H18.0618C18.4864 24.3246 18.8186 23.984 18.8186 23.5699C18.8186 23.1612 18.4864 22.8227 18.0618 22.8227H10.5405C10.1179 22.8227 9.79328 23.1612 9.79328 23.5699C9.79328 23.984 10.1179 24.3246 10.5405 24.3246ZM14.3059 27.8053C16.1507 27.8053 17.6572 26.9041 17.769 25.5417H10.8206C10.9131 26.9041 12.442 27.8053 14.3059 27.8053Z" fill="black"/>
<path d="M22.9612 22.2757C23.3351 22.6591 23.9208 22.6474 24.2808 22.2757C24.6387 21.9115 24.6429 21.3279 24.2808 20.9562L4.59046 1.26372C4.22414 0.887775 3.61922 0.911212 3.25922 1.26372C2.90672 1.61411 2.92054 2.24247 3.25922 2.58325L22.9612 22.2757Z" fill="black"/>
</svg>
