<svg width="28" height="28" viewBox="0 0 28 28" fill="none" xmlns="http://www.w3.org/2000/svg">
<path d="M3.5968 24.3592C3.5968 24.9473 4.09133 25.4322 4.67515 25.4322C5.27069 25.4322 5.75772 24.959 5.75772 24.3592V17.9449C6.07178 17.8244 7.0721 17.4658 8.58804 17.4658C12.6343 17.4658 15.3212 19.3678 19.1921 19.5752L3.79321 4.19761C3.67368 4.39917 3.5968 4.62534 3.5968 4.90378V24.3592ZM8.60633 2.21222L24.38 17.9742C24.5898 17.6613 24.6857 17.2696 24.6857 16.814V5.12198C24.6857 4.36261 24.096 3.89175 23.3087 3.89175C22.6522 3.89175 21.5994 4.34386 19.704 4.34386C15.699 4.34386 12.8096 2.27199 8.60633 2.21222Z" fill="black"/>
<path d="M23.7064 22.0225C24.0824 22.3888 24.6798 22.3825 25.026 22.0225C25.3923 21.6466 25.3977 21.063 25.026 20.703L4.59246 0.271584C4.22824 -0.0926342 3.62332 -0.0884156 3.26121 0.271584C2.91082 0.624083 2.91504 1.24072 3.26121 1.59111L23.7064 22.0225Z" fill="black"/>
</svg>
