<svg width="28" height="28" viewBox="0 0 28 28" fill="none" xmlns="http://www.w3.org/2000/svg">
<path d="M4.84421 20.5808H7.97147V18.2849H4.97733C3.88772 18.2849 3.29592 17.7133 3.29592 16.5726V5.0296C3.29592 3.891 3.88772 3.31936 4.97733 3.31936H16.5705C17.6505 3.31936 18.2519 3.891 18.2519 5.0296V7.57702H20.5478V4.82921C20.5478 2.32656 19.233 1.02344 16.7132 1.02344H4.84421C2.30523 1.02344 1 2.32656 1 4.82921V16.7751C1 19.2756 2.30523 20.5808 4.84421 20.5808Z" fill="black"/>
<path d="M10.6776 26.1522H22.5445C25.0664 26.1522 26.3791 24.8469 26.3791 22.3464V10.3984C26.3791 7.89788 25.0664 6.59265 22.5445 6.59265H10.6776C8.13653 6.59265 6.8313 7.88827 6.8313 10.3984V22.3464C6.8313 24.8469 8.13653 26.1522 10.6776 26.1522ZM10.8107 23.8562C9.72863 23.8562 9.12722 23.2825 9.12722 22.1439V10.6009C9.12722 9.46232 9.72863 8.89068 10.8107 8.89068H22.4018C23.4818 8.89068 24.0832 9.46232 24.0832 10.6009V22.1439C24.0832 23.2825 23.4818 23.8562 22.4018 23.8562H10.8107ZM12.1704 13.5852C13.0664 13.5969 13.8143 12.8512 13.8143 11.9317C13.8143 11.0144 13.0685 10.2857 12.1704 10.2857C11.2584 10.2857 10.5147 11.0122 10.5147 11.9317C10.5147 12.849 11.2584 13.5735 12.1704 13.5852ZM21.0656 13.5852C21.9638 13.5969 22.7095 12.8512 22.7095 11.9317C22.7095 11.0122 21.9659 10.2857 21.0656 10.2857C20.1558 10.2857 19.4025 11.0122 19.4025 11.9317C19.4025 12.849 20.1558 13.5735 21.0656 13.5852ZM16.6153 18.0398C17.5113 18.0398 18.2571 17.2919 18.2571 16.3724C18.2571 15.4764 17.5092 14.7423 16.6153 14.7423C15.7055 14.7423 14.9693 15.4743 14.9693 16.3724C14.9693 17.294 15.7034 18.0398 16.6153 18.0398ZM12.1683 22.4943C13.0664 22.4943 13.8122 21.7485 13.8122 20.8387C13.8122 19.933 13.0643 19.1948 12.1683 19.1948C11.2584 19.1948 10.5243 19.9309 10.5243 20.8387C10.5243 21.7506 11.2584 22.4943 12.1683 22.4943ZM21.0656 22.4943C21.9659 22.4943 22.7095 21.7485 22.7095 20.8387C22.7095 19.9309 21.9638 19.1948 21.0656 19.1948C20.1579 19.1948 19.4142 19.9309 19.4142 20.8387C19.4142 21.7485 20.1579 22.4943 21.0656 22.4943Z" fill="black"/>
</svg>
