<svg width="28" height="28" viewBox="0 0 28 28" fill="none" xmlns="http://www.w3.org/2000/svg">
<path d="M14.3667 27.8645C18.595 27.8645 22.0096 24.4478 22.0096 20.2291C22.0096 16.0007 18.595 12.5861 14.3667 12.5861C10.1479 12.5861 6.7333 16.0007 6.7333 20.2291C6.7333 24.4478 10.1479 27.8645 14.3667 27.8645ZM12.216 24.1581C11.7412 24.5073 11.2324 24.1548 11.425 23.5907L12.2772 21.0458L10.0978 19.4875C9.6665 19.1701 9.78697 18.5432 10.3959 18.5453L13.0802 18.5709L13.8951 16.008C14.0718 15.4502 14.6786 15.4502 14.8553 16.008L15.6745 18.5709L18.3566 18.5453C18.9719 18.5432 19.0743 19.1819 18.6569 19.4779L16.4753 21.0437L17.3254 23.5907C17.5202 24.1633 17.0113 24.5073 16.5386 24.1581L14.3763 22.5784L12.216 24.1581ZM6.95573 14.653C8.13369 13.0966 9.78744 11.917 11.6988 11.3441L6.37541 1.76922L3.22799 6.54015C2.93057 6.97351 2.92307 7.42303 3.21181 7.91334L6.95573 14.653ZM11.71 7.45773H17.0329L20.6514 1.03258H8.09361L11.71 7.45773ZM17.0441 11.3441C18.9651 11.917 20.6113 13.0966 21.7872 14.653L25.5428 7.91334C25.8198 7.42303 25.8123 6.97351 25.5149 6.54015L22.3696 1.76922L17.0441 11.3441Z" fill="black"/>
</svg>
