<svg width="29" height="28" viewBox="0 0 29 28" fill="none" xmlns="http://www.w3.org/2000/svg">
<path d="M12.8205 24.9747C13.6952 24.9747 14.3304 24.3395 14.3304 23.4744V5.57171C14.3304 4.70664 13.6952 4.01172 12.8013 4.01172C12.2041 4.01172 11.7785 4.25664 11.1462 4.86883L6.23296 9.4593C6.16476 9.52539 6.06984 9.56055 5.9632 9.56055H2.64538C0.927185 9.56055 0 10.5175 0 12.3273V16.6783C0 18.4977 0.927185 19.4472 2.64538 19.4472H5.96109C6.06773 19.4472 6.16265 19.476 6.23085 19.5421L11.1462 24.1773C11.7241 24.7351 12.2149 24.9747 12.8205 24.9747Z" fill="black"/>
<path d="M17.9968 14.4815C17.9968 15.1169 18.4555 15.5605 19.1059 15.5605H22.3192V18.7834C22.3192 19.4242 22.7704 19.8829 23.4079 19.8829C24.055 19.8829 24.5157 19.4338 24.5157 18.7834V15.5605H27.7386C28.3815 15.5605 28.8285 15.1169 28.8285 14.4815C28.8285 13.8344 28.3815 13.3736 27.7386 13.3736H24.5157V10.1603C24.5157 9.5078 24.055 9.05124 23.4079 9.05124C22.7704 9.05124 22.3192 9.5078 22.3192 10.1603V13.3736H19.1059C18.4555 13.3736 17.9968 13.8344 17.9968 14.4815Z" fill="black"/>
</svg>
