<svg width="28" height="28" viewBox="0 0 28 28" fill="none" xmlns="http://www.w3.org/2000/svg">
<path d="M14.105 26.2301C20.7369 26.2301 26.2121 20.7549 26.2121 14.123C26.2121 7.50291 20.7273 2.01807 14.0954 2.01807C7.47523 2.01807 2 7.50291 2 14.123C2 20.7549 7.48484 26.2301 14.105 26.2301Z" fill="black"/>
<path d="M15.0896 12.5052L11.5248 8.93733C11.8972 7.8885 12.9019 7.14225 14.0858 7.14014C15.6226 7.13803 16.8739 8.38514 16.8739 9.92826C16.8739 11.1036 16.1415 12.1127 15.0896 12.5052ZM12.6055 9.14498C12.6055 9.58819 12.9976 9.98451 13.4504 9.98451C13.9128 9.98451 14.2857 9.58819 14.2857 9.14498C14.2953 8.68256 13.9128 8.29045 13.4504 8.29045C12.9976 8.29045 12.6055 8.68256 12.6055 9.14498ZM13.1865 15.3438L14.983 17.1424V18.2357C14.983 19.851 14.6438 21.3553 14.0858 21.3553C13.5352 21.3553 13.1865 19.8201 13.1865 18.2357V15.3438ZM19.3508 20.1949L8.01618 8.88154C7.79376 8.65912 7.79376 8.27803 8.01618 8.0556C8.25571 7.82568 8.6218 7.82568 8.85172 8.0556L20.1746 19.3689C20.4066 19.5989 20.4066 19.9628 20.1746 20.1949C19.9447 20.4248 19.5711 20.4131 19.3508 20.1949Z" fill="white"/>
</svg>
