<svg width="30" height="28" viewBox="0 0 30 28" fill="none" xmlns="http://www.w3.org/2000/svg">
<path d="M1.14421 26.1541C1.78124 26.1541 2.29592 25.6394 2.29592 25.0098V3.93389C2.29592 3.54623 2.54623 3.29592 2.91256 3.29592H26.3641C26.7305 3.29592 26.9808 3.54623 26.9808 3.93389V25.0098C26.9808 25.6394 27.4955 26.1541 28.1229 26.1541C28.762 26.1541 29.2767 25.6394 29.2767 25.0098V3.72178C29.2767 2.07273 28.1869 1 26.4973 1H2.77194C1.08984 1 0 2.07273 0 3.72178V25.0098C0 25.6394 0.514684 26.1541 1.14421 26.1541Z" fill="black"/>
<path d="M4.07175 25.6554H25.2049C25.417 25.6554 25.5865 25.4763 25.5865 25.2717V5.06433C25.5865 4.85011 25.417 4.68066 25.2049 4.68066H4.07175C3.85964 4.68066 3.69019 4.85011 3.69019 5.06433V25.2717C3.69019 25.4763 3.85964 25.6554 4.07175 25.6554ZM12.3157 23.6391C11.9505 23.6391 11.6984 23.3773 11.6984 23.0217C11.6984 22.6545 11.9505 22.3927 12.3157 22.3927H16.961C17.3262 22.3927 17.5783 22.6545 17.5783 23.0217C17.5783 23.3773 17.3262 23.6391 16.961 23.6391H12.3157ZM5.79534 11.2242C5.52089 11.2242 5.32612 11.0316 5.32612 10.7571V6.69932C5.32612 6.42276 5.52089 6.2205 5.79534 6.2205H10.0964C10.3708 6.2205 10.5656 6.42276 10.5656 6.69932V10.7571C10.5656 11.0316 10.3708 11.2242 10.0964 11.2242H5.79534ZM12.5102 11.2242C12.2337 11.2242 12.041 11.0316 12.041 10.7571V6.69932C12.041 6.42276 12.2337 6.2205 12.5102 6.2205H16.7995C17.074 6.2205 17.2783 6.42276 17.2783 6.69932V10.7571C17.2783 11.0316 17.074 11.2242 16.7995 11.2242H12.5102ZM19.2112 11.2242C18.9347 11.2242 18.7324 11.0316 18.7324 10.7571V6.69932C18.7324 6.42276 18.9347 6.2205 19.2112 6.2205H23.4813C23.7558 6.2205 23.9505 6.42276 23.9505 6.69932V10.7571C23.9505 11.0316 23.7558 11.2242 23.5582 11.2242H19.2112Z" fill="black"/>
</svg>
