<svg width="28" height="29" viewBox="0 0 28 29" fill="none" xmlns="http://www.w3.org/2000/svg">
<path d="M6.21386 2.17147H21.7609C22.3546 2.17147 22.8418 1.67671 22.8418 1.08093C22.8418 0.487263 22.3546 0 21.7609 0H6.21386C5.61808 0 5.12332 0.487263 5.12332 1.08093C5.12332 1.67671 5.61808 2.17147 6.21386 2.17147ZM7.01847 11.175L9.18245 10.9694L8.54448 1.47726L6.3634 1.55789L7.01847 11.175ZM18.7827 10.9694L20.9563 11.175L21.6017 1.55789L19.4303 1.47726L18.7827 10.9694ZM13.9874 17.2884C19.2932 17.2884 22.9644 15.6642 22.9644 13.0969C22.9644 10.5274 19.2803 8.9032 13.9874 8.9032C8.69449 8.9032 5.00074 10.5274 5.00074 13.0969C5.00074 15.6642 8.70831 17.2884 13.9874 17.2884ZM13.9874 15.1148C9.9655 15.1148 7.19565 14.1994 7.19565 13.0969C7.19565 11.9923 9.9655 11.0768 13.9874 11.0768C18.0092 11.0768 20.7791 11.9923 20.7791 13.0969C20.7791 14.1994 18.0381 15.1148 13.9874 15.1148ZM13.6014 21.9194H14.3734C19.4579 21.9194 23.0221 18.2705 22.9644 13.0969H20.7791C20.8389 17.1138 18.2757 19.7458 14.3734 19.7458H13.6014C9.6894 19.7458 7.13588 17.1234 7.19565 13.0969H5.00074C4.94097 18.2801 8.50722 21.9194 13.6014 21.9194ZM14.0066 28.7976C16.2111 28.7976 18.8078 28.2778 19.9717 27.1097C20.2932 26.7776 20.326 26.3369 20.1941 25.8708L18.1834 19.2942L16.2524 20.4028L18.2884 27.0958L18.5214 25.4723C17.6035 26.2638 15.8549 26.6241 14.0066 26.6241C12.1583 26.6241 10.4021 26.2638 9.49183 25.4723L9.71519 27.0958L11.7608 20.4028L9.83191 19.2942L7.8191 25.8708C7.68715 26.3369 7.71996 26.7776 8.03402 27.1097C9.20543 28.2778 11.7946 28.7976 14.0066 28.7976Z" fill="black"/>
</svg>
