<svg width="30" height="28" viewBox="0 0 30 28" fill="none" xmlns="http://www.w3.org/2000/svg">
<path d="M28.1229 26.1541C28.762 26.1541 29.2767 25.6394 29.2767 25.0098V3.72178C29.2767 2.07273 28.1869 1 26.4973 1H2.77194C1.08984 1 0 2.07273 0 3.72178V25.0098C0 25.6394 0.514684 26.1541 1.14421 26.1541C1.78124 26.1541 2.29592 25.6394 2.29592 25.0098V3.93389C2.29592 3.54623 2.54623 3.29592 2.91256 3.29592H26.3641C26.7305 3.29592 26.9808 3.54623 26.9808 3.93389V25.0098C26.9808 25.6394 27.4955 26.1541 28.1229 26.1541Z" fill="black"/>
<path d="M14.174 25.6554C14.3862 25.6554 14.5577 25.4763 14.5577 25.2717V5.06433C14.5577 4.85011 14.3862 4.68066 14.174 4.68066H4.07175C3.85964 4.68066 3.69019 4.85011 3.69019 5.06433V25.2717C3.69019 25.4763 3.85964 25.6554 4.07175 25.6554H14.174ZM11.8945 16.8856C11.5399 16.8856 11.2844 16.6301 11.2844 16.2734V14.2268C11.2844 13.8701 11.5399 13.6242 11.8945 13.6242C12.2416 13.6242 12.4971 13.8701 12.4971 14.2268V16.2734C12.4971 16.6301 12.2416 16.8856 11.8945 16.8856Z" fill="black"/>
</svg>
