<svg width="28" height="28" viewBox="0 0 28 28" fill="none" xmlns="http://www.w3.org/2000/svg">
<path d="M6.84421 24.8972H21.0295C23.5685 24.8972 24.8737 23.5919 24.8737 21.0914V6.82921C24.8737 4.32656 23.5685 3.02344 21.0295 3.02344H6.84421C4.31484 3.02344 3 4.31695 3 6.82921V21.0914C3 23.6016 4.31484 24.8972 6.84421 24.8972Z" fill="black"/>
<path d="M10.4782 20.3676C10.0186 20.3676 9.71436 20.0304 9.71436 19.4855V9.41482C9.71436 8.22396 10.3511 7.57544 11.542 7.57544H16.3919C17.5945 7.57544 18.2313 8.22396 18.2313 9.41482V19.4855C18.2313 20.0304 17.9271 20.3676 17.4579 20.3676C17.1246 20.3676 16.9277 20.1823 16.4086 19.6673L14.0224 17.3271C13.9894 17.2919 13.9446 17.2919 13.9137 17.3271L11.5392 19.6673C11.0104 20.1823 10.8115 20.3676 10.4782 20.3676Z" fill="white"/>
</svg>
