<svg width="28" height="28" viewBox="0 0 28 28" fill="none" xmlns="http://www.w3.org/2000/svg">
<path d="M3.68492 21.4749L12.7641 26.5538C13.5596 26.9963 14.3051 26.9963 15.1102 26.5538L24.1798 21.4749C25.3086 20.8465 25.8669 20.1833 25.8669 18.5286V9.05958C25.8669 7.80919 25.4047 7.01583 24.3612 6.43224L16.1213 1.812C14.6717 0.987471 13.1952 0.987471 11.7456 1.812L3.51523 6.43224C2.46219 7.01583 2 7.80919 2 9.05958V18.5286C2 20.1833 2.56789 20.8465 3.68492 21.4749ZM4.95265 19.6749C4.31093 19.3189 4.08499 18.9394 4.08499 18.3244V9.7805L12.8511 14.7296V24.1355L4.95265 19.6749ZM22.9217 19.6749L15.0137 24.1355V14.7296L23.7819 9.7805V18.3244C23.7819 18.9394 23.5559 19.3189 22.9217 19.6749ZM13.9372 12.8148L5.26998 7.95731L12.6784 3.77886C13.5322 3.29699 14.3326 3.28738 15.196 3.77886L22.6065 7.95731L13.9372 12.8148Z" fill="black"/>
</svg>
