<svg width="28" height="28" viewBox="0 0 28 28" fill="none" xmlns="http://www.w3.org/2000/svg">
<path d="M7.80577 26.3772H20.2891C22.8013 26.3772 24.0948 25.0719 24.0948 22.5405V4.85804C24.0948 2.33617 22.7917 1.01172 20.2891 1.01172H12.6508C11.44 1.01172 10.6117 1.3307 9.85187 2.10648L5.00218 6.94656C4.28054 7.67781 4 8.42288 4 9.67374V22.5405C4 25.0623 5.29562 26.3772 7.80577 26.3772ZM7.99866 24.0813C6.85795 24.0813 6.29592 23.4895 6.29592 22.3977V9.75108C6.29592 8.99569 6.44592 8.57007 6.85819 8.15569L10.9476 4.02576C11.4222 3.52983 11.9666 3.30975 12.6958 3.30975H20.0983C21.2369 3.30975 21.7989 3.92077 21.7989 5.00077V22.3977C21.7989 23.4895 21.2369 24.0813 20.1079 24.0813H7.99866ZM11.2555 6.23311V9.82538C11.2555 10.2705 11.6165 10.6197 12.052 10.6197C12.4853 10.6197 12.8249 10.2705 12.8249 9.82538V6.23311C12.8249 5.77631 12.4895 5.43881 12.052 5.43881C11.6165 5.43881 11.2555 5.78803 11.2555 6.23311ZM13.66 6.23311V9.82538C13.66 10.2705 14.0209 10.6197 14.4681 10.6197C14.8898 10.6197 15.239 10.2705 15.239 9.82538V6.23311C15.239 5.78803 14.9036 5.43881 14.4681 5.43881C14.0113 5.43881 13.66 5.78803 13.66 6.23311ZM16.09 6.23311V9.82538C16.09 10.2705 16.4392 10.6197 16.8609 10.6197C17.2963 10.6197 17.6434 10.2608 17.6434 9.82538V6.23311C17.6434 5.77631 17.308 5.43881 16.8609 5.43881C16.4254 5.43881 16.09 5.78803 16.09 6.23311ZM18.5041 6.23311V9.81366C18.5041 10.2683 18.8533 10.6197 19.277 10.6197C19.7125 10.6197 20.0617 10.2705 20.0617 9.81366V6.23311C20.0617 5.77631 19.7146 5.43881 19.277 5.43881C18.8437 5.43881 18.5041 5.78803 18.5041 6.23311Z" fill="black"/>
</svg>
