<svg width="28" height="28" viewBox="0 0 28 28" fill="none" xmlns="http://www.w3.org/2000/svg">
<path d="M6.84421 24.8972H21.0295C23.5685 24.8972 24.8737 23.5919 24.8737 21.0914V6.82921C24.8737 4.32656 23.5685 3.02344 21.0295 3.02344H6.84421C4.31484 3.02344 3 4.31695 3 6.82921V21.0914C3 23.6016 4.31484 24.8972 6.84421 24.8972ZM6.97733 22.6013C5.88772 22.6013 5.29592 22.0371 5.29592 20.8985V7.01999C5.29592 5.88139 5.88772 5.31936 6.97733 5.31936H20.8964C21.9764 5.31936 22.5778 5.88139 22.5778 7.01999V20.8985C22.5778 22.0371 21.9764 22.6013 20.8964 22.6013H6.97733Z" fill="black"/>
<path d="M8.8932 18.0614H19.0213C19.6527 18.0614 20.0338 17.7112 20.0338 17.2057C20.0338 16.5347 19.4293 15.9668 18.853 15.4083C18.3992 14.9702 18.3193 14.0592 18.2471 13.2492C18.1602 10.8966 17.4699 9.25101 15.8307 8.64773C15.5624 7.82624 14.8848 7.1803 13.9524 7.1803C13.0222 7.1803 12.3521 7.82624 12.0741 8.64773C10.4349 9.25101 9.75007 10.8966 9.66945 13.2492C9.59937 14.0592 9.49812 14.9702 9.05398 15.4083C8.49687 15.9785 7.87109 16.5347 7.87109 17.2057C7.87109 17.7112 8.25218 18.0614 8.8932 18.0614ZM13.9524 20.7853C15.0688 20.7853 15.8879 20.0002 15.9657 19.0488H11.9509C12.0287 20.0002 12.8382 20.7853 13.9524 20.7853Z" fill="black"/>
</svg>
