<svg width="28" height="28" viewBox="0 0 28 28" fill="none" xmlns="http://www.w3.org/2000/svg">
<path d="M12.747 27.6622H15.5363C17.0712 27.6622 17.881 26.86 17.881 25.2569V13.0837C17.881 11.8933 18.1571 11.0385 18.594 10.3672L19.3409 9.2549C19.9243 8.34904 20.2833 7.53436 20.2833 6.51928V5.58154H8V6.51928C8 7.53436 8.35906 8.34904 8.94242 9.2549L9.67766 10.3672C10.1263 11.0385 10.3906 11.8933 10.3906 13.0837V25.2569C10.3906 26.86 11.21 27.6622 12.747 27.6622ZM14.1427 12.0376C15.1405 12.0376 15.8007 12.7682 15.8007 13.8032V17.0331C15.8007 18.0447 15.1405 18.7464 14.1427 18.7581C13.1312 18.7698 12.4826 18.0681 12.4826 17.0331V13.8032C12.4826 12.7682 13.1312 12.0376 14.1427 12.0376ZM14.1427 12.9055C13.588 12.9055 13.1195 13.3623 13.1195 13.9171C13.1195 14.4601 13.588 14.9287 14.1427 14.9287C14.6858 14.9287 15.1543 14.4601 15.1543 13.9171C15.1543 13.3623 14.6858 12.9055 14.1427 12.9055ZM8 4.0628H20.2833V3.40538C20.2833 1.80226 19.4619 1 17.9269 1H10.3564C8.81937 1 8 1.80226 8 3.40538V4.0628Z" fill="black"/>
</svg>
