<svg width="28" height="28" viewBox="0 0 28 28" fill="none" xmlns="http://www.w3.org/2000/svg">
<path d="M20.6521 4.42827H22.0534C22.5205 4.42827 22.753 4.67788 22.753 5.20593V22.8607C22.753 23.5533 22.637 23.8406 21.9648 24.1315C19.6961 25.1194 16.3368 25.763 13.281 25.763C11.4573 25.763 9.75671 25.6711 7.89414 25.3706V25.6559C12.7668 25.7599 17.6045 24.4856 19.8515 22.7721C20.7362 22.0992 21.0013 21.6077 21.0013 20.5237V1.90195C21.0013 0.661637 20.3584 0 19.2344 0C18.8617 0 18.4166 0.0904684 17.8916 0.260859C14.3652 1.40625 11.1203 2.16562 7.00984 2.16562H6.11453C4.7582 2.16562 4 2.93554 4 4.17679V24.2798C4 25.2677 4.23719 25.8586 5.14023 26.3058C7.16312 27.2067 10.1673 27.7894 13.281 27.7894C16.6741 27.7894 20.4604 27.2698 23.1025 25.9891C24.572 25.2937 24.9498 24.6284 24.9498 23.093V5.18062C24.9498 3.1725 24.0344 2.23148 22.0987 2.23148H20.6521V4.42827ZM6.19678 23.2259V4.85155C6.19678 4.52975 6.36835 4.33897 6.67093 4.33897H7.23108C11.1998 4.33897 14.9748 3.52499 18.1874 2.51905C18.5711 2.39647 18.8045 2.51038 18.8045 2.86311V20.103C18.8045 20.6789 18.7183 20.9241 18.1713 21.2876C15.816 22.9334 11.7698 23.9053 6.61327 23.652C6.3203 23.6381 6.19678 23.5071 6.19678 23.2259ZM8.4714 7.35468V11.2195C8.4714 11.4049 8.6003 11.4891 8.75265 11.4891C11.458 11.4848 14.2281 11.0158 16.3375 10.17C16.443 10.1231 16.5016 10.0176 16.5016 9.91218V5.89804C16.5016 5.63061 16.2576 5.56991 16.1266 5.63061C13.7029 6.52007 11.3568 6.9403 8.75265 7.0521C8.58859 7.06382 8.4714 7.19061 8.4714 7.35468Z" fill="black"/>
</svg>
