<svg width="28" height="28" viewBox="0 0 28 28" fill="none" xmlns="http://www.w3.org/2000/svg">
<path d="M14.105 26.21C20.7369 26.21 26.2121 20.7273 26.2121 14.105C26.2121 7.47312 20.7273 2 14.0954 2C7.47523 2 2 7.47312 2 14.105C2 20.7273 7.48484 26.21 14.105 26.21Z" fill="black"/>
<path d="M10.9095 21.1449C10.096 21.1449 9.59021 20.668 9.59021 19.8214V19.67C9.59021 17.8133 11.543 15.8614 12.5452 14.8613C13.062 14.3499 13.0332 13.794 12.5452 13.321C11.543 12.3284 9.59021 10.3829 9.59021 8.50276V8.3844C9.59021 7.52823 10.096 7.05127 10.9095 7.05127H17.3026C18.1161 7.05127 18.6219 7.52823 18.6219 8.3844V8.50276C18.6219 10.3829 16.6691 12.3284 15.6669 13.321C15.1789 13.794 15.148 14.3499 15.6669 14.8613C16.6691 15.8614 18.6219 17.8133 18.6219 19.67V19.8214C18.6219 20.668 18.1161 21.1449 17.3026 21.1449H10.9095ZM11.5376 19.9754H16.6745C17.0248 19.9754 17.1003 19.5718 16.865 19.3599L14.6736 17.1216C14.5684 17.008 14.529 16.9728 14.529 16.7912V13.5678C14.529 13.2069 14.6077 13.0217 14.8707 12.7684C15.3622 12.2832 15.9162 11.7505 16.3672 11.2677C16.5791 11.042 16.4736 10.776 16.1937 10.776H12.028C11.7481 10.776 11.633 11.042 11.8524 11.2677C12.2959 11.7505 12.8499 12.2832 13.3393 12.7684C13.6023 13.0217 13.681 13.2069 13.681 13.5678V16.7912C13.681 16.9728 13.6416 17.008 13.5364 17.1216L11.3471 19.3599C11.1118 19.5718 11.1872 19.9754 11.5376 19.9754Z" fill="white"/>
</svg>
