<svg width="28" height="28" viewBox="0 0 28 28" fill="none" xmlns="http://www.w3.org/2000/svg">
<path d="M2 19.7544C2 22.0281 3.18922 23.2269 5.44367 23.2269H6.94531V19.7355H6.10062C5.20367 19.7355 4.62101 19.1528 4.62101 18.2324V14.7166H6.94531V13.3452H4.62101V11.9111C4.62101 10.9907 5.20367 10.4177 6.10062 10.4177H6.94531V7.32999C6.94531 4.47554 8.79663 2.63664 11.6222 2.63664H15.309L14.6703 1.98835C13.985 1.30305 13.2322 1 12.1299 1H5.44367C3.18922 1 2 2.21054 2 4.49171V19.7544Z" fill="black"/>
<path d="M8.65088 23.2793C8.65088 25.572 9.86447 26.7973 12.1379 26.7973H23.0778C25.3512 26.7973 26.5552 25.572 26.5552 23.2793V12.0792C26.5552 10.9477 26.2927 10.2558 25.6276 9.59064L21.3781 5.34119C20.6844 4.64533 19.9168 4.34229 18.8241 4.34229H12.1379C9.86658 4.34229 8.65088 5.5676 8.65088 7.86775V23.2793ZM12.5476 21.6804V18.2173H15.1512C15.2832 18.2173 15.3544 18.2843 15.3544 18.4109V23.1907H14.06C13.1483 23.1907 12.5476 22.6038 12.5476 21.6804ZM12.5476 16.846V15.397C12.5476 14.4544 13.1483 13.8771 14.06 13.8771H18.6936V23.1907H16.7258V17.5875C16.7258 17.13 16.4471 16.846 15.9704 16.846H12.5476ZM20.0649 23.1907V13.8771H21.1121C22.0334 13.8771 22.6128 14.4544 22.6128 15.397V21.6804C22.6128 22.6038 22.0334 23.1907 21.1121 23.1907H20.0649Z" fill="black"/>
</svg>
