<svg width="28" height="28" viewBox="0 0 28 28" fill="none" xmlns="http://www.w3.org/2000/svg">
<path d="M14.105 26.21C20.7369 26.21 26.2121 20.7273 26.2121 14.105C26.2121 7.47312 20.7273 2 14.0954 2C7.47523 2 2 7.47312 2 14.105C2 20.7273 7.48484 26.21 14.105 26.21Z" fill="black"/>
<path d="M9.71117 17.8477C8.81399 17.8477 7.97563 17.772 7.35992 17.1819C6.78149 16.5821 6.69617 15.7459 6.69617 14.87V13.3358C6.69617 12.4599 6.78149 11.6237 7.35992 11.0218C7.97563 10.4338 8.8236 10.3442 9.71117 10.3442H17.7669C18.6427 10.3442 19.4886 10.4338 20.0787 11.0218C20.6689 11.6237 20.7702 12.4599 20.7702 13.3358V14.87C20.7702 15.7459 20.6689 16.5821 20.0787 17.1819C19.4886 17.772 18.6523 17.8477 17.7669 17.8477H9.71117ZM9.54711 16.479H17.9192C18.4808 16.479 18.8846 16.3777 19.0934 16.1752C19.2746 15.9919 19.3972 15.586 19.3972 15.0085V13.1834C19.3972 12.6176 19.2746 12.2138 19.0934 12.0305C18.8846 11.8185 18.4712 11.713 17.9192 11.713H9.54711C8.97922 11.713 8.57961 11.8185 8.375 12.0209C8.17789 12.2042 8.09586 12.5963 8.09586 13.1834V15.0085C8.09586 15.5998 8.17789 15.9919 8.375 16.1752C8.57961 16.3777 8.96961 16.479 9.54711 16.479ZM9.60992 15.7578C9.30195 15.7578 9.10578 15.7269 8.97688 15.6022C8.86391 15.4754 8.80742 15.2846 8.80742 14.9755V13.209C8.80742 12.8977 8.86391 12.7187 8.97688 12.5801C9.10578 12.4651 9.30195 12.4245 9.60992 12.4245H17.866C18.1836 12.4245 18.3605 12.4651 18.4873 12.5801C18.6216 12.7187 18.6802 12.9073 18.6802 13.209V14.9755C18.6802 15.275 18.6216 15.4658 18.4873 15.6022C18.3605 15.7269 18.1836 15.7578 17.866 15.7578H9.60992ZM21.2891 15.5136V12.6922C21.7046 12.7294 22.2938 13.2793 22.2938 14.1029C22.2938 14.9265 21.7046 15.4763 21.2891 15.5136Z" fill="white"/>
</svg>
