<svg width="28" height="28" viewBox="0 0 28 28" fill="none" xmlns="http://www.w3.org/2000/svg">
<path d="M3.84421 24.4661H23.9109C26.4499 24.4661 27.7552 23.163 27.7552 20.6603V13.7123C27.7552 12.4403 27.5955 11.8434 26.9775 11.0892L23.1201 6.33206C21.6837 4.56863 21.0448 4.02136 18.9209 4.02136H8.83429C6.71039 4.02136 6.08109 4.56863 4.64461 6.33206L0.777652 11.0892C0.171327 11.8455 0 12.4403 0 13.7123V20.6603C0 23.1726 1.31484 24.4661 3.84421 24.4661ZM3.9478 22.1702C2.85819 22.1702 2.26639 21.6081 2.26639 20.4695V14.8129H9.32062C9.68414 16.9136 11.5092 18.4675 13.8776 18.4675C16.2459 18.4675 18.071 16.904 18.4345 14.8129H25.4888V20.4695C25.4888 21.6081 24.8874 22.1702 23.8073 22.1702H3.9478ZM13.8776 16.3619C12.2991 16.3619 11.3065 14.9964 11.3065 13.7214V13.6884C11.3065 13.2173 11.0241 12.7877 10.4062 12.7877H2.86498C2.48248 12.7877 2.40045 12.4521 2.59967 12.206L6.83975 6.88822C7.36546 6.22494 7.96476 5.9383 8.76328 5.9383H18.9919C19.7904 5.9383 20.3897 6.22494 20.9154 6.88822L25.1651 12.206C25.3547 12.4521 25.2823 12.7877 24.8998 12.7877H17.3489C16.7311 12.7877 16.4583 13.2173 16.4583 13.6884V13.7214C16.4583 14.9964 15.4657 16.3619 13.8776 16.3619ZM18.7488 7.58502H9.00632C8.6857 7.58502 8.4375 7.83533 8.4375 8.15596C8.4375 8.47869 8.6857 8.72901 9.00632 8.72901H18.7488C19.0695 8.72901 19.3177 8.47869 19.3177 8.15596C19.3177 7.83533 19.0695 7.58502 18.7488 7.58502ZM20.2758 10.1533H7.47937C7.14703 10.1533 6.88289 10.4505 6.88289 10.7732C6.88289 11.096 7.14703 11.3676 7.47937 11.3676H20.2758C20.6081 11.3676 20.8723 11.096 20.8723 10.7732C20.8723 10.4505 20.6081 10.1533 20.2758 10.1533Z" fill="black"/>
</svg>
