<svg width="28" height="28" viewBox="0 0 28 28" fill="none" xmlns="http://www.w3.org/2000/svg">
<path d="M14.105 26.21C20.7369 26.21 26.2121 20.7273 26.2121 14.105C26.2121 7.47312 20.7273 2 14.0954 2C7.47523 2 2 7.47312 2 14.105C2 20.7273 7.48484 26.21 14.105 26.21ZM14.105 23.8255C8.71085 23.8255 4.39412 19.4991 4.39412 14.105C4.39412 8.71085 8.70124 4.38452 14.0954 4.38452C19.4895 4.38452 23.8276 8.71085 23.8276 14.105C23.8276 19.4991 19.4991 23.8255 14.105 23.8255Z" fill="black"/>
<path d="M19.5462 8.62319C18.0577 7.14429 15.492 7.33929 13.7872 9.03241C12.8143 10.033 12.3891 11.2829 12.3828 12.4827C12.3551 14.2695 12.1803 15.267 10.5202 16.8995L11.2721 17.6492C12.9141 15.9891 13.8807 15.8473 15.6751 15.7962C16.8962 15.759 18.1248 15.3669 19.1253 14.3802C20.8302 12.6657 21.0348 10.0979 19.5462 8.62319ZM18.7742 9.38561C19.857 10.4663 19.6834 12.293 18.3608 13.606C17.0265 14.9286 15.2136 15.1119 14.1404 14.027C13.048 12.958 13.2312 11.1333 14.5751 9.80655C15.8881 8.48608 17.7031 8.3028 18.7742 9.38561ZM8.00538 19.7527L8.39116 20.1523C8.68085 20.442 9.10577 20.442 9.39546 20.1523L11.6588 17.8752C11.9485 17.5737 11.9485 17.1765 11.6588 16.8751L11.273 16.4851C10.993 16.1975 10.5701 16.1975 10.2805 16.4851L8.00538 18.774C7.72741 19.0637 7.71569 19.463 8.00538 19.7527ZM19.164 13.3808L19.7403 12.7756L15.4609 8.48655L14.8653 9.0821L19.164 13.3808ZM17.5569 14.9591L18.1716 14.3806L13.873 10.084L13.2774 10.67L17.5569 14.9591ZM13.239 12.8909L13.6023 13.7187L18.4084 8.91476L17.6914 8.44811L13.239 12.8909ZM14.6244 14.6087L15.384 15.0071L19.798 10.6027L19.3196 9.87616L14.6244 14.6087Z" fill="black"/>
</svg>
