<svg width="28" height="28" viewBox="0 0 28 28" fill="none" xmlns="http://www.w3.org/2000/svg">
<path d="M14.105 26.21C20.7369 26.21 26.2121 20.7273 26.2121 14.105C26.2121 7.47312 20.7273 2 14.0954 2C7.47523 2 2 7.47312 2 14.105C2 20.7273 7.48484 26.21 14.105 26.21ZM14.105 23.8255C8.71085 23.8255 4.39412 19.4991 4.39412 14.105C4.39412 8.71085 8.70124 4.38452 14.0954 4.38452C19.4895 4.38452 23.8276 8.71085 23.8276 14.105C23.8276 19.4991 19.4991 23.8255 14.105 23.8255Z" fill="black"/>
<path d="M11.0758 20.243H18.4256C18.7213 20.243 18.9588 19.9939 18.9588 19.7002C18.9588 19.445 18.7886 19.2458 18.5758 19.1577C17.8884 18.8478 17.7562 17.9148 18.4455 17.255C18.7305 17.007 18.9567 16.7087 18.9567 16.1366V9.84266C18.9567 8.62086 18.3316 7.97656 17.1098 7.97656H11.0854C9.87532 7.97656 9.25024 8.61125 9.25024 9.84266V18.3962C9.25024 19.6084 9.87532 20.243 11.0758 20.243ZM11.2166 19.167C10.6352 19.167 10.3263 18.8295 10.3263 18.3106C10.3263 17.8205 10.6832 17.4734 11.2572 17.4734H16.9134C16.9678 17.4734 17.0104 17.4638 17.0552 17.4638C16.8199 18.038 16.8466 18.6526 17.1044 19.167H11.2166ZM10.9891 16.4881C10.7952 16.4881 10.6387 16.3412 10.6387 16.1281V9.35469C10.6387 9.15125 10.7952 8.99258 10.9891 8.99258C11.2 8.99258 11.3662 9.15125 11.3662 9.35469V16.1281C11.3662 16.3412 11.2 16.4881 10.9891 16.4881Z" fill="black"/>
</svg>
