<svg width="28" height="28" viewBox="0 0 28 28" fill="none" xmlns="http://www.w3.org/2000/svg">
<path d="M3 21.0914C3 23.6016 4.31484 24.8972 6.84421 24.8972H7.54874V22.5996C7.54874 22.1292 7.91484 21.7631 8.39273 21.7631C8.87272 21.7631 9.2346 22.1271 9.2346 22.5996V24.8972H11.3962V22.5996C11.3962 22.1292 11.7623 21.7631 12.2402 21.7631C12.7223 21.7631 13.0821 22.1271 13.0821 22.5996V24.8972H15.2458V22.5996C15.2458 22.1292 15.6077 21.7631 16.0877 21.7631C16.5698 21.7631 16.9296 22.1271 16.9296 22.5996V24.8972H19.0933V22.5996C19.0933 22.1271 19.4531 21.7631 19.9352 21.7631C20.4131 21.7631 20.7792 22.1292 20.7792 22.5996V24.8972H21.4624C23.9939 24.8972 25.3087 23.5919 25.3087 21.0914V6.82921C25.3087 4.32656 23.9939 3.02344 21.4624 3.02344H20.7792V5.32101C20.7792 5.78929 20.4131 6.15539 19.9352 6.15539C19.4531 6.15539 19.0933 5.7914 19.0933 5.32101V3.02344H16.9296V5.32101C16.9296 5.7914 16.5698 6.15539 16.0877 6.15539C15.6077 6.15539 15.2458 5.78929 15.2458 5.32101V3.02344H13.0821V5.32101C13.0821 5.7914 12.7223 6.15539 12.2402 6.15539C11.7623 6.15539 11.3962 5.78929 11.3962 5.32101V3.02344H9.2346V5.32101C9.2346 5.7914 8.87272 6.15539 8.39273 6.15539C7.91484 6.15539 7.54874 5.78929 7.54874 5.32101V3.02344H6.84421C4.31484 3.02344 3 4.31695 3 6.82921V21.0914ZM8.09178 17.5073V10.4112C8.09178 9.72538 8.57202 9.26437 9.26412 9.26437H19.0446C19.7442 9.26437 20.2052 9.72538 20.2052 10.4112V17.5073C20.2052 18.1931 19.7442 18.6541 19.0446 18.6541H9.26412C8.57202 18.6541 8.09178 18.1931 8.09178 17.5073Z" fill="black"/>
</svg>
