<svg width="28" height="28" viewBox="0 0 28 28" fill="none" xmlns="http://www.w3.org/2000/svg">
<path d="M14.105 26.21C20.7369 26.21 26.2121 20.7273 26.2121 14.105C26.2121 7.47312 20.7273 2 14.0954 2C7.47523 2 2 7.47312 2 14.105C2 20.7273 7.48484 26.21 14.105 26.21ZM14.105 23.8255C8.71085 23.8255 4.39412 19.4991 4.39412 14.105C4.39412 8.71085 8.70124 4.38452 14.0954 4.38452C19.4895 4.38452 23.8276 8.71085 23.8276 14.105C23.8276 19.4991 19.4991 23.8255 14.105 23.8255Z" fill="black"/>
<path d="M16.1766 19.6023C16.6184 19.6023 16.9505 19.2777 16.9505 18.8263V9.40835C16.9505 8.97616 16.6184 8.61311 16.167 8.61311C15.8539 8.61311 15.6357 8.74413 15.3012 9.05515L12.7283 11.4758C12.6931 11.5184 12.6216 11.5301 12.5694 11.5301H10.8247C9.92255 11.5301 9.44653 12.0296 9.44653 12.969V15.256C9.44653 16.1954 9.92255 16.6948 10.8247 16.6948H12.5694C12.6216 16.6948 12.691 16.7141 12.7262 16.7471L15.3012 19.1891C15.6027 19.4787 15.8572 19.6023 16.1766 19.6023Z" fill="black"/>
</svg>
