<svg width="36" height="28" viewBox="0 0 36 28" fill="none" xmlns="http://www.w3.org/2000/svg">
<path d="M7.36991 26.6758H28.4065C29.962 26.6758 30.4734 25.2567 29.8497 24.0211L24.6262 13.543L33.562 26.0308C33.8782 26.4726 34.2837 26.647 34.6783 26.647C35.2772 26.647 35.7902 26.2781 35.7902 25.5213V21.9625C35.7902 21.4572 35.37 21.0349 34.8626 21.0349C34.3572 21.0349 33.9466 21.4572 33.9466 21.9625V23.4602L19.4285 3.16779C18.6056 2.0074 17.175 2.02662 16.3521 3.16779L1.84358 23.4602V21.9625C1.84358 21.4572 1.43296 21.0349 0.925542 21.0349C0.410623 21.0349 0 21.4572 0 21.9625V25.5213C0 26.2781 0.513045 26.647 1.10976 26.647C1.50655 26.647 1.91202 26.4726 2.22819 26.0308L11.164 13.543L5.93836 24.0211C5.3168 25.2567 5.81859 26.6758 7.36991 26.6758ZM8.39365 24.6065C8.23592 24.6065 8.18483 24.468 8.25303 24.3295L17.7358 5.06551C17.8062 4.91316 17.9765 4.91316 18.0565 5.06551L27.5372 24.3295C27.6054 24.468 27.5447 24.6065 27.3944 24.6065H8.39365ZM12.0366 24.9382H15.9813L17.8882 16.6591L19.7951 24.9382H23.7419L18.6874 14.1665C18.5203 13.8047 18.2053 13.6237 17.8882 13.6237C17.5753 13.6237 17.2582 13.8047 17.0815 14.1665L12.0366 24.9382Z" fill="black"/>
</svg>
