<svg width="28" height="28" viewBox="0 0 28 28" fill="none" xmlns="http://www.w3.org/2000/svg">
<path d="M2 11.5372C2 16.801 6.27757 21.0765 11.5393 21.0765C13.4961 21.0765 15.2919 20.4751 16.7891 19.46L22.1729 24.8534C22.5099 25.1905 22.9564 25.351 23.4263 25.351C24.4236 25.351 25.1368 24.5973 25.1368 23.6117C25.1368 23.1481 24.9666 22.7155 24.6446 22.3935L19.3022 17.0202C20.4207 15.4815 21.0786 13.5898 21.0786 11.5372C21.0786 6.27547 16.801 2 11.5393 2C6.27757 2 2 6.27547 2 11.5372ZM4.48482 11.5372C4.48482 7.64491 7.64702 4.48482 11.5393 4.48482C15.4316 4.48482 18.5916 7.64491 18.5916 11.5372C18.5916 15.4316 15.4316 18.5916 11.5393 18.5916C7.64702 18.5916 4.48482 15.4316 4.48482 11.5372ZM7.5303 11.063C7.5303 11.719 8.22991 11.8433 8.6035 11.4793L9.47819 10.6121L12.4196 13.5535L11.5098 14.442C11.1148 14.8231 11.2658 15.5152 11.9218 15.5152H14.8156C15.2544 15.5152 15.5035 15.2288 15.5035 14.7357V11.9942C15.5035 11.3361 14.8081 11.2161 14.4324 11.578L13.5505 12.4461L10.6112 9.50679L11.5262 8.61311C11.9169 8.23202 11.768 7.54202 11.1141 7.54202H8.2203C7.78155 7.54202 7.5303 7.82842 7.5303 8.32155V11.063Z" fill="black"/>
</svg>
