<svg width="28" height="28" viewBox="0 0 28 28" fill="none" xmlns="http://www.w3.org/2000/svg">
<path d="M3.84421 24.8779H23.9109C26.4499 24.8779 27.7552 23.5822 27.7552 21.0817V6.80992C27.7552 4.30727 26.4499 3.00415 23.9109 3.00415H3.84421C1.31484 3.00415 0 4.30727 0 6.80992V21.0817C0 23.5822 1.31484 24.8779 3.84421 24.8779Z" fill="black"/>
<path d="M9.52026 18.6902V13.9509C9.52026 13.1102 9.86128 12.6821 10.5487 12.6141V11.251C10.5487 9.00753 11.8973 7.50659 13.8893 7.50659C15.8812 7.50659 17.2319 9.00753 17.2319 11.251V12.6162C17.9077 12.6821 18.2466 13.1102 18.2466 13.9509V18.6902C18.2466 19.6179 17.8355 20.0482 16.9823 20.0482H10.7962C9.93135 20.0482 9.52026 19.6179 9.52026 18.6902ZM11.9789 12.5897H15.7976V11.123C15.7976 9.78636 15.0321 8.89409 13.8851 8.89409C12.7327 8.89409 11.9789 9.78846 11.9789 11.123V12.5897Z" fill="white"/>
</svg>
