<svg width="28" height="28" viewBox="0 0 28 28" fill="none" xmlns="http://www.w3.org/2000/svg">
<path d="M14.105 26.8354C20.7369 26.8354 26.2121 21.3506 26.2121 14.7304C26.2121 8.09848 20.7273 2.62537 14.0954 2.62537C7.47523 2.62537 2 8.09848 2 14.7304C2 21.3506 7.48484 26.8354 14.105 26.8354Z" fill="black"/>
<path d="M14.4125 22.3147C13.7809 22.3147 13.5617 21.8225 13.3508 21.1449L12.3073 17.7587C12.1796 17.2794 12.2094 17.004 12.4979 16.7091L19.3304 9.30174C19.4145 9.20799 19.4145 9.09619 19.3304 9.02166C19.2559 8.96846 19.1558 8.94713 19.0578 9.03127L11.6771 15.9001C11.3462 16.1874 11.0865 16.1874 10.6255 16.048L7.15696 14.997C6.49649 14.7957 6.03735 14.5594 6.03735 13.9395C6.03735 13.4241 6.46251 13.062 7.03345 12.8586L18.5602 8.44135C18.8577 8.32838 19.1091 8.2644 19.3393 8.2644C19.8045 8.2644 20.0855 8.55713 20.0855 9.02025C20.0855 9.2483 20.0312 9.5019 19.9182 9.80143L15.5319 21.278C15.2879 21.9162 14.9279 22.3147 14.4125 22.3147Z" fill="white"/>
</svg>
