<svg width="28" height="28" viewBox="0 0 28 28" fill="none" xmlns="http://www.w3.org/2000/svg">
<path d="M15.8205 24.9747C16.6952 24.9747 17.3304 24.3395 17.3304 23.4744V5.57171C17.3304 4.70664 16.6952 4.01172 15.8013 4.01172C15.2041 4.01172 14.7785 4.25664 14.1462 4.86883L9.23296 9.4593C9.16476 9.52539 9.06984 9.56055 8.9632 9.56055H5.64538C3.92719 9.56055 3 10.5175 3 12.3273V16.6783C3 18.4977 3.92719 19.4472 5.64538 19.4472H8.96109C9.06773 19.4472 9.16265 19.476 9.23085 19.5421L14.1462 24.1773C14.7241 24.7351 15.2149 24.9747 15.8205 24.9747Z" fill="black"/>
<path d="M21.5033 19.6804C21.9871 20.0005 22.6391 19.8932 22.9977 19.3792C23.9401 18.1218 24.5024 16.3335 24.5024 14.4815C24.5024 12.6295 23.9401 10.8508 22.9977 9.57953C22.6391 9.06977 21.9871 8.95071 21.5033 9.28258C20.9322 9.65711 20.8302 10.3464 21.2757 11.0019C21.9238 11.9226 22.2915 13.1748 22.2915 14.4815C22.2915 15.7881 21.9142 17.0287 21.2757 17.961C20.8398 18.6241 20.9322 19.2962 21.5033 19.6804Z" fill="black"/>
</svg>
