<svg width="28" height="28" viewBox="0 0 28 28" fill="none" xmlns="http://www.w3.org/2000/svg">
<path d="M6.84421 24.8972H21.0295C23.5685 24.8972 24.8737 23.5919 24.8737 21.0914V6.82921C24.8737 4.32656 23.5685 3.02344 21.0295 3.02344H6.84421C4.31484 3.02344 3 4.31695 3 6.82921V21.0914C3 23.6016 4.31484 24.8972 6.84421 24.8972ZM6.97733 22.6013C5.88772 22.6013 5.29592 22.0371 5.29592 20.8985V7.01999C5.29592 5.88139 5.88772 5.31936 6.97733 5.31936H20.8964C21.9764 5.31936 22.5778 5.88139 22.5778 7.01999V20.8985C22.5778 22.0371 21.9764 22.6013 20.8964 22.6013H6.97733Z" fill="black"/>
<path d="M16.0336 19.4421C16.4754 19.4421 16.7979 19.1175 16.7979 18.6661V9.24819C16.7979 8.816 16.4754 8.45296 16.024 8.45296C15.7087 8.45296 15.4905 8.58397 15.1486 8.89499L12.5757 11.3156C12.5405 11.3583 12.4669 11.37 12.4168 11.37H10.6721C9.77746 11.37 9.29395 11.8695 9.29395 12.8088V15.0959C9.29395 16.0352 9.77746 16.5347 10.6721 16.5347H12.4168C12.4669 16.5347 12.5384 16.5539 12.5736 16.5869L15.1486 19.0289C15.4596 19.3186 15.7141 19.4421 16.0336 19.4421Z" fill="black"/>
</svg>
