<svg width="28" height="30" viewBox="0 0 28 30" fill="none" xmlns="http://www.w3.org/2000/svg">
<path d="M7.79761 7.45006H16.941C18.236 7.45006 19.476 8.26732 19.476 10.0723V23.7991H22.5705C25.0731 23.7991 26.3763 22.4747 26.3763 19.9549V3.84421C26.3763 1.32234 25.0731 0 22.5705 0H11.6034C9.10073 0 7.79761 1.31273 7.79761 3.84421V7.45006ZM13.5208 3.45046V3.19171C13.5208 2.83054 13.7699 2.44758 14.313 2.44758H19.863C20.3964 2.44758 20.6552 2.83054 20.6552 3.19171V3.45046C20.6552 3.83156 20.3732 4.1946 19.863 4.1946H14.313C13.791 4.1946 13.5208 3.83156 13.5208 3.45046Z" fill="black"/>
<path d="M2 25.965C2 28.4965 3.29562 29.8092 5.80577 29.8092H16.775C19.2851 29.8092 20.5808 28.4848 20.5808 25.965V9.85428C20.5808 7.3228 19.2851 6.01007 16.775 6.01007H5.80577C3.29562 6.01007 2 7.31319 2 9.85428V25.965ZM4.29592 25.8223V9.9874C4.29592 8.9074 4.85795 8.30599 5.98905 8.30599H16.5821C17.7111 8.30599 18.2827 8.9074 18.2827 9.9874V25.8223C18.2827 26.9119 17.7111 27.5133 16.5821 27.5133H5.98905C4.85795 27.5133 4.29592 26.9119 4.29592 25.8223ZM11.3384 22.8837C12.4405 22.8837 13.5184 22.5169 14.273 21.9016C14.7256 21.5597 14.8248 21.0687 14.5252 20.7204C14.2215 20.3562 13.787 20.3578 13.3857 20.6421C12.762 21.1134 12.1543 21.3609 11.3384 21.3609C9.65163 21.3609 8.25803 20.2444 7.84459 18.7483H8.72022C9.16858 18.7483 9.28342 18.3171 9.03006 17.9721L7.56592 15.9696C7.31139 15.6255 6.87686 15.5946 6.61272 15.9696L5.16991 17.9721C4.91866 18.3171 5.0335 18.7483 5.47014 18.7483H6.36264C6.80913 21.1912 8.80835 22.8837 11.3384 22.8837ZM11.3288 12.8918C10.2247 12.8918 9.1489 13.2682 8.39421 13.8717C7.94163 14.2233 7.84249 14.7047 8.14202 15.0647C8.44577 15.4193 8.87819 15.4155 9.28155 15.1312C9.90311 14.662 10.5226 14.4124 11.3288 14.4124C13.0156 14.4124 14.4167 15.529 14.8206 17.025H13.8969C13.4581 17.025 13.3454 17.4583 13.5966 17.8033L15.0533 19.8155C15.3057 20.1595 15.7402 20.1787 16.014 19.8155L17.4472 17.8033C17.708 17.4583 17.5932 17.025 17.147 17.025H16.3025C15.8656 14.5821 13.8589 12.8918 11.3288 12.8918Z" fill="black"/>
</svg>
