<svg width="31" height="28" viewBox="0 0 31 28" fill="none" xmlns="http://www.w3.org/2000/svg">
<path d="M0.181159 24.0616C-0.261809 25.071 0.0885816 26.2867 1.44256 26.2867C1.93873 26.2867 2.34326 26.0769 2.94373 25.5862L6.11881 22.9384C6.23717 22.8414 6.31287 22.803 6.39279 22.803C6.47272 22.803 6.55053 22.8414 6.66889 22.9384L9.84397 25.5862C10.4348 26.0769 10.8469 26.2867 11.343 26.2867C12.6991 26.2867 13.0495 25.071 12.6065 24.0616L7.34248 12.1837V6.68927C7.34248 4.00684 7.7899 2.00411 7.7899 1.61645C7.7899 1.26091 7.55576 1.03638 7.22154 1.03638C6.99912 1.03638 6.79897 1.1695 6.50717 1.48895L3.91217 4.47278C3.68014 4.7463 3.73334 5.08145 4.04084 5.23684C5.08592 5.68215 5.4335 5.8495 5.4335 6.68927V12.1783L0.181159 24.0616ZM9.12396 21.9393C8.78857 21.9393 8.51178 21.6529 8.51178 21.3175C8.51178 20.98 8.79818 20.684 9.12396 20.684C9.46685 20.684 9.75537 20.9779 9.75537 21.3175C9.75537 21.6433 9.45935 21.9393 9.12396 21.9393ZM8.45318 20.3706C8.1253 20.3706 7.82928 20.0863 7.82928 19.7509C7.82928 19.4176 8.1253 19.1195 8.45318 19.1195C8.79607 19.1195 9.08248 19.408 9.08248 19.7509C9.08248 20.0863 8.79607 20.3706 8.45318 20.3706ZM7.78873 18.7944C7.45123 18.7944 7.16272 18.508 7.16272 18.1844C7.16272 17.849 7.44912 17.5434 7.78873 17.5434C8.12201 17.5434 8.40842 17.8373 8.40842 18.1844C8.40842 18.5176 8.12201 18.7944 7.78873 18.7944Z" fill="black"/>
<path d="M15.9972 26.3134C19.2063 26.3134 21.3471 24.407 21.3471 21.5282C21.3471 19.1425 19.8876 18.1605 19.8876 17.3406C19.8876 16.3928 20.6993 15.6735 20.6993 14.4721C20.6993 13.5904 20.1021 12.9569 19.2684 12.9569C18.562 12.9569 18.1528 13.363 17.8502 13.7554C17.6158 14.0582 17.4358 14.2959 17.2549 14.2959C16.9767 14.2959 16.9214 13.8189 16.9214 13.4425L16.931 6.16919C16.931 5.8577 16.9544 5.81294 17.1431 5.73629C17.419 5.62895 17.4998 5.48622 17.5232 5.14966L17.7597 2.72106C17.7832 2.48903 17.681 2.27083 17.5043 2.10794L16.4901 1.22481C16.339 1.08958 16.1568 1.03638 15.9972 1.03638C15.8259 1.03638 15.6513 1.08958 15.4905 1.22481L14.4764 2.10794C14.3093 2.26122 14.2071 2.48903 14.2209 2.72106L14.4574 5.14966C14.4904 5.49583 14.5905 5.64489 14.8472 5.73629C15.0166 5.7895 15.0518 5.85559 15.0518 6.16919L15.0731 13.435C15.0731 13.9075 14.9826 14.298 14.745 14.298C14.5671 14.298 14.3904 14.0495 14.1304 13.7554C13.8396 13.3652 13.4283 12.9611 12.7357 12.9611C11.8903 12.9611 11.2952 13.5925 11.2952 14.4742C11.2952 15.6756 12.0951 16.3949 12.0951 17.3427C12.0951 17.7669 11.6749 18.2701 11.2943 19.0166L13.1641 23.2398C13.4988 23.9891 13.6256 24.4513 13.6256 24.969C13.6256 25.2829 13.5724 25.5765 13.4639 25.8351C14.2298 26.144 15.079 26.3134 15.9972 26.3134ZM13.4128 21.3311C13.1414 21.2427 12.986 20.9266 13.0722 20.6551L14.0168 17.9633C14.1147 17.6781 14.4213 17.5302 14.7065 17.6345C14.98 17.7187 15.1429 18.039 15.0471 18.318L14.1089 21.0023C14.013 21.2854 13.6959 21.4312 13.4128 21.3311ZM18.5733 21.3332C18.288 21.4269 17.9815 21.2769 17.8877 21.0023L16.9453 18.318C16.8473 18.0264 17.009 17.7102 17.2847 17.6303C17.5699 17.5387 17.8743 17.6887 17.966 17.9633L18.9105 20.6551C18.9989 20.9329 18.8447 21.2554 18.5733 21.3332Z" fill="black"/>
<path d="M25.4568 26.2473C28.7149 26.2473 30.7896 24.6946 30.7896 22.2259C30.7896 19.7889 29.2087 19.2355 29.2087 18.1694C29.2087 17.3873 29.5645 16.6862 29.5645 15.6798C29.5645 14.0514 28.3793 13.0014 26.3969 12.748V5.71028C26.3969 5.23497 26.4567 5.10911 26.7232 4.92794C26.9669 4.76294 27.0553 4.61927 27.0436 4.39684L26.8657 1.48122C26.8422 1.21731 26.655 1.03638 26.4145 1.03638H24.48C24.2395 1.03638 24.0522 1.21731 24.0384 1.48122L23.8605 4.39684C23.8488 4.62677 23.9371 4.76083 24.1767 4.92794C24.4474 5.11872 24.5071 5.24669 24.5071 5.71028V12.748C22.5152 13.0014 21.3438 14.0514 21.3438 15.6798C21.3438 16.6356 21.6911 17.324 21.6911 18.0808C21.6911 18.2868 21.6122 18.4736 21.4947 18.6625C21.8418 19.353 22.2011 20.3195 22.2011 21.5282C22.2011 22.8018 21.8369 23.9188 21.1863 24.8186C22.1043 25.7359 23.5818 26.2473 25.4568 26.2473ZM25.4589 19.1598C24.7038 19.1598 24.1031 18.5612 24.1031 17.8274C24.1031 17.0882 24.7134 16.4875 25.4589 16.4875C26.1907 16.4875 26.7914 17.0882 26.7914 17.8274C26.7914 18.5612 26.1907 19.1598 25.4589 19.1598ZM23.9226 22.4962C23.5989 22.4962 23.3477 22.2428 23.3477 21.9308C23.3477 21.6189 23.6086 21.3505 23.9226 21.3505H26.9697C27.2838 21.3505 27.5329 21.6093 27.5329 21.9308C27.5329 22.2428 27.2838 22.4962 26.9697 22.4962H23.9226Z" fill="black"/>
</svg>
