<svg width="28" height="28" viewBox="0 0 28 28" fill="none" xmlns="http://www.w3.org/2000/svg">
<path d="M14.105 26.21C20.7369 26.21 26.2121 20.7273 26.2121 14.105C26.2121 7.47312 20.7273 2 14.0954 2C7.47523 2 2 7.47312 2 14.105C2 20.7273 7.48484 26.21 14.105 26.21ZM14.105 23.8255C8.71085 23.8255 4.39412 19.4991 4.39412 14.105C4.39412 8.71085 8.70124 4.38452 14.0954 4.38452C19.4895 4.38452 23.8276 8.71085 23.8276 14.105C23.8276 19.4991 19.4991 23.8255 14.105 23.8255Z" fill="black"/>
<path d="M11.3264 9.88879C11.3264 11.0956 12.1115 12.1245 13.196 12.4939V18.2176C13.196 19.8019 13.5447 21.3275 14.0953 21.3275C14.6533 21.3275 14.9829 19.8233 14.9829 18.2176V12.496C16.0811 12.1383 16.8642 11.1052 16.8642 9.88879C16.8642 8.35738 15.6246 7.11777 14.0953 7.11988C12.5756 7.1241 11.3264 8.3616 11.3264 9.88879ZM12.5348 9.15941C12.5252 8.6834 12.9459 8.2723 13.4102 8.2723C13.8958 8.2723 14.2973 8.6834 14.2973 9.15941C14.2973 9.63543 13.8958 10.0465 13.4102 10.0465C12.9459 10.0465 12.5348 9.63543 12.5348 9.15941Z" fill="black"/>
</svg>
