<svg width="30" height="28" viewBox="0 0 30 28" fill="none" xmlns="http://www.w3.org/2000/svg">
<path d="M15.5332 26.1729C20.7072 26.1729 24.1605 24.3277 24.1605 21.5956C24.1605 19.2069 22.2086 18.7081 22.2086 17.3255C22.2086 15.4252 29.0193 15.103 29.0193 10.1537C29.0193 5.24398 23.9489 2 16.4046 2C6.60046 2 0 6.96476 0 14.281C0 21.3931 6.26601 26.1729 15.5332 26.1729ZM15.5332 23.7155C7.65655 23.7155 2.45529 19.9353 2.45529 14.281C2.45529 8.37405 7.98889 4.45529 16.4046 4.45529C22.5295 4.45529 26.564 6.76155 26.564 10.1537C26.564 14.1275 19.717 13.6948 19.717 17.236C19.717 19.2673 21.6862 19.8305 21.6862 21.2703C21.6862 22.7417 19.256 23.7155 15.5332 23.7155ZM14.5301 21.028C16.3767 21.028 17.8394 19.5673 17.8394 17.7132C17.8394 15.9078 16.3493 14.4155 14.5301 14.4155C12.7151 14.4155 11.227 15.9078 11.227 17.7132C11.227 19.5399 12.7151 21.028 14.5301 21.028ZM14.5301 19.4977C13.5483 19.4977 12.7551 18.7046 12.7551 17.709C12.7551 16.61 13.5951 15.9692 14.5045 15.9554C15.4394 15.9437 16.3092 16.5748 16.3092 17.709C16.3092 18.7046 15.5257 19.4977 14.5301 19.4977Z" fill="black"/>
<path d="M6.38194 15.8568C7.45374 15.8568 8.31671 14.9704 8.31671 13.8986C8.31671 12.8268 7.45374 11.9639 6.38194 11.9639C5.32186 11.9639 4.44507 12.8268 4.44507 13.8986C4.44507 14.9704 5.32186 15.8568 6.38194 15.8568Z" fill="black"/>
<path d="M10.5961 12.1491C11.9365 12.1491 13.0275 11.074 13.0275 9.71021C13.0275 8.37732 11.9269 7.31396 10.5961 7.31396C9.24394 7.31396 8.15503 8.37732 8.15503 9.71021C8.15503 11.074 9.24394 12.1491 10.5961 12.1491Z" fill="black"/>
<path d="M16.453 10.2865C17.544 10.2865 18.407 9.4139 18.407 8.32288C18.407 7.23937 17.544 6.3689 16.453 6.3689C15.3812 6.3689 14.4873 7.23937 14.4873 8.32288C14.4873 9.4139 15.3812 10.2865 16.453 10.2865Z" fill="black"/>
<path d="M21.7263 11.0261C22.6031 11.0261 23.3041 10.3176 23.3041 9.43117C23.3041 8.55437 22.6031 7.84375 21.7263 7.84375C20.842 7.84375 20.1218 8.55437 20.1218 9.43117C20.1218 10.3176 20.842 11.0261 21.7263 11.0261Z" fill="black"/>
</svg>
