<svg width="28" height="32" viewBox="0 0 28 32" fill="none" xmlns="http://www.w3.org/2000/svg">
<path d="M8.47483 26.4159H19.4598C21.6582 26.4159 22.9325 25.1107 22.9325 22.893V6.12069C22.9325 3.89343 21.6582 2.59781 19.4598 2.59781H16.4968V2.51671C16.4968 1.02633 15.4801 0.00960946 13.9662 0C12.4524 0.00960946 11.4378 1.02633 11.4378 2.51671V2.59781H8.47483C6.2764 2.59781 5 3.89343 5 6.12069V22.893C5 25.1107 6.2764 26.4159 8.47483 26.4159ZM8.66561 24.0698C7.83311 24.0698 7.35569 23.5828 7.35569 22.7599V6.25381C7.35569 5.43092 7.83311 4.94388 8.66561 4.94388H19.2669C20.1015 4.94388 20.5789 5.43092 20.5789 6.25381V22.7599C20.5789 23.5828 20.1015 24.0698 19.2669 24.0698H8.66561ZM13.9684 3.40101C13.49 3.40101 13.115 3.0164 13.115 2.53804C13.115 2.0714 13.49 1.68679 13.9684 1.68679C14.4446 1.68679 14.8217 2.0714 14.8217 2.53804C14.8217 3.0164 14.4446 3.40101 13.9684 3.40101ZM16.6693 31.5785H21.901C22.4731 31.5785 22.9325 31.1191 22.9325 30.547C22.9325 29.9611 22.4731 29.4921 21.901 29.4921H16.6946C15.4672 29.4921 14.8285 28.9697 14.8285 27.7549V24.9876H12.74V27.7802C12.74 30.1868 14.2501 31.5785 16.6693 31.5785Z" fill="black"/>
<path d="M10.139 22.4449H17.8129C18.5172 22.4449 18.9733 22.0005 18.9733 21.3101V8.99691C18.9733 8.30644 18.5172 7.86206 17.8129 7.86206H10.139C9.4368 7.86206 8.98071 8.30644 8.98071 8.99691V21.3101C8.98071 22.0005 9.4368 22.4449 10.139 22.4449Z" fill="black"/>
<path d="M12.5418 20.2408C12.1818 20.2408 11.9444 19.9863 11.9444 19.6615C11.9444 19.3186 12.1818 19.0523 12.5418 19.0523H15.4143C15.7668 19.0523 16.0096 19.3186 16.0096 19.6615C16.0096 19.9863 15.7668 20.2408 15.4143 20.2408H12.5418ZM11.666 17.7684C11.306 17.7684 11.061 17.5118 11.061 17.171C11.061 16.8419 11.306 16.5757 11.666 16.5757H16.3148C16.6556 16.5757 16.9122 16.8419 16.9122 17.171C16.9122 17.5118 16.6556 17.7684 16.3148 17.7684H11.666ZM13.9685 15.0101C12.9944 15.0101 12.1781 14.2481 12.1781 13.2548C12.1781 12.7071 12.4605 12.1657 12.7312 11.6787L13.6235 10.0347C13.8353 9.64079 14.1037 9.62907 14.3156 10.0347L15.2036 11.6787C15.4764 12.1657 15.7567 12.7071 15.7567 13.2548C15.7567 14.2481 14.9542 15.0101 13.9685 15.0101Z" fill="white"/>
</svg>
