<svg width="29" height="28" viewBox="0 0 29 28" fill="none" xmlns="http://www.w3.org/2000/svg">
<path d="M3.84421 24.6282H25.1184C27.6403 24.6282 28.9648 23.323 28.9648 20.8224V8.52547C28.9648 6.02492 27.6403 4.7293 25.1184 4.7293H21.9061C20.9866 4.7293 20.6885 4.56289 20.1253 3.97063L19.1984 2.96656C18.5871 2.32625 17.9747 2 16.7803 2H12.1151C10.9228 2 10.3083 2.32625 9.69914 2.96656L8.77007 3.97063C8.20687 4.55328 7.90125 4.7293 6.9893 4.7293H3.84421C1.31484 4.7293 0 6.02492 0 8.52547V20.8224C0 23.323 1.31484 24.6282 3.84421 24.6282ZM3.97733 22.3323C2.90694 22.3323 2.29592 21.7681 2.29592 20.6295V8.72796C2.29592 7.58936 2.90694 7.02522 3.97733 7.02522H7.65421C8.7089 7.02522 9.2578 6.83655 9.84796 6.18874L10.7388 5.20178C11.3941 4.4792 11.7584 4.29592 12.7791 4.29592H16.1163C17.1391 4.29592 17.5012 4.48131 18.1481 5.19545L19.0495 6.18874C19.6397 6.83444 20.1886 7.02522 21.2412 7.02522H24.9757C26.0578 7.02522 26.6688 7.58936 26.6688 8.72796V20.6295C26.6688 21.7681 26.0578 22.3323 24.9757 22.3323H3.97733Z" fill="black"/>
<path d="M6.7507 14.0877C6.43781 14.5294 6.57492 15.0638 7.13601 15.0638H8.24485C8.80524 18.1255 11.3219 20.2587 14.5027 20.2587C15.8848 20.2587 17.2226 19.8003 18.1765 19.0369C18.7514 18.6024 18.8857 17.9795 18.4924 17.5344C18.1088 17.0851 17.5711 17.0795 17.0529 17.4371C16.279 18.0268 15.5072 18.3425 14.5027 18.3425C12.3886 18.3425 10.6305 16.9477 10.1191 15.0638H11.2144C11.7755 15.0638 11.9297 14.5273 11.6072 14.0877L9.76617 11.5773C9.45422 11.1385 8.89734 11.1118 8.55867 11.5773L6.7507 14.0877ZM10.4894 10.4337C10.8656 10.883 11.4129 10.8983 11.9194 10.5331C12.6954 9.93383 13.4768 9.63734 14.4813 9.63734C16.5954 9.63734 18.3438 11.03 18.8552 12.9064H17.7002C17.1509 12.9064 16.9945 13.4525 17.317 13.8805L19.1484 16.4005C19.47 16.8392 20.0269 16.8659 20.3655 16.4005L22.1756 13.8805C22.4864 13.4387 22.3493 12.9064 21.7903 12.9064H20.7295C20.1691 9.84477 17.6524 7.71149 14.4813 7.71149C13.0992 7.71149 11.7518 8.17743 10.8075 8.9429C10.2326 9.37743 10.0983 9.98868 10.4894 10.4337Z" fill="black"/>
</svg>
