<svg width="28" height="28" viewBox="0 0 28 28" fill="none" xmlns="http://www.w3.org/2000/svg">
<path d="M14.105 26.21C20.7369 26.21 26.2121 20.7273 26.2121 14.105C26.2121 7.47312 20.7273 2 14.0954 2C7.47523 2 2 7.47312 2 14.105C2 20.7273 7.48484 26.21 14.105 26.21Z" fill="black"/>
<path d="M10.9576 14.9991H14.0955C14.4468 14.9991 14.7428 14.7362 14.7428 14.3827V10.2879C14.7428 9.93661 14.4564 9.66192 14.0955 9.66192C13.7442 9.66192 13.4695 9.93661 13.4695 10.2879V13.7588H10.9576C10.5967 13.7588 10.3241 14.0239 10.3241 14.3827C10.3241 14.7458 10.5967 14.9991 10.9576 14.9991ZM14.1051 20.5644C10.5723 20.5644 7.63818 17.6377 7.63818 14.105C7.63818 10.5722 10.5627 7.63599 14.0955 7.63599C17.6378 7.63599 20.5741 10.5722 20.5741 14.105C20.5741 17.6377 17.6378 20.5644 14.1051 20.5644Z" fill="white"/>
</svg>
