<svg width="28" height="28" viewBox="0 0 28 28" fill="none" xmlns="http://www.w3.org/2000/svg">
<path d="M14.105 26.2301C20.7369 26.2301 26.2121 20.7549 26.2121 14.123C26.2121 7.50291 20.7273 2.01807 14.0954 2.01807C7.47523 2.01807 2 7.50291 2 14.123C2 20.7549 7.48484 26.2301 14.105 26.2301Z" fill="black"/>
<path d="M7.19116 19.1715V10.1101C7.19116 9.63429 7.47639 9.37039 7.9735 9.37039H8.98061C9.46178 9.37039 9.73529 9.63429 9.73529 10.1101V19.1715C9.73529 19.6473 9.46178 19.9208 8.98061 19.9208H7.9735C7.47639 19.9208 7.19116 19.6473 7.19116 19.1715ZM10.5123 19.1715V12.0308C10.5123 11.5646 10.7954 11.2719 11.2733 11.2719H13.3873C13.8802 11.2719 14.1345 11.5646 14.1345 12.0308V19.1715C14.1345 19.6473 13.8802 19.9208 13.3873 19.9208H11.2733C10.7954 19.9208 10.5123 19.6473 10.5123 19.1715ZM11.3921 18.2696C11.3921 18.4848 11.5508 18.6552 11.7584 18.6552H12.916C13.1312 18.6552 13.2877 18.4848 13.2877 18.2696C13.2877 18.0577 13.1312 17.8916 12.916 17.8916H11.7584C11.5433 17.8916 11.3921 18.0481 11.3921 18.2696ZM11.3921 12.9423C11.3921 13.1403 11.5433 13.3161 11.7584 13.3161H12.916C13.1312 13.3161 13.2877 13.1307 13.2877 12.9423C13.2877 12.7271 13.1417 12.5642 12.916 12.5642H11.7584C11.5508 12.5642 11.3921 12.7271 11.3921 12.9423ZM14.9307 19.1715V8.58757C14.9307 8.10007 15.1829 7.82867 15.68 7.82867H16.9498C17.4373 7.82867 17.7109 8.10007 17.7109 8.58757V9.68586L18.6409 9.45781C19.1145 9.34812 19.4316 9.58765 19.52 10.0634L21.3109 18.8305C21.3896 19.3062 21.1831 19.633 20.7116 19.7309L19.8938 19.9208C19.434 20.0305 19.1052 19.7984 19.0168 19.3386L17.7109 12.9219V19.1715C17.7109 19.6473 17.4373 19.9208 16.9498 19.9208H15.68C15.1829 19.9208 14.9307 19.6473 14.9307 19.1715Z" fill="white"/>
</svg>
