<svg width="28" height="28" viewBox="0 0 28 28" fill="none" xmlns="http://www.w3.org/2000/svg">
<path d="M14.105 26.21C20.7369 26.21 26.2121 20.7273 26.2121 14.105C26.2121 7.47312 20.7273 2 14.0954 2C7.47523 2 2 7.47312 2 14.105C2 20.7273 7.48484 26.21 14.105 26.21ZM14.105 23.8255C8.71085 23.8255 4.39412 19.4991 4.39412 14.105C4.39412 8.71085 8.70124 4.38452 14.0954 4.38452C19.4895 4.38452 23.8276 8.71085 23.8276 14.105C23.8276 19.4991 19.4991 23.8255 14.105 23.8255Z" fill="black"/>
<path d="M11.2049 20.8787H16.9999C17.5061 20.8787 17.9228 20.6642 18.0963 20.3251L18.1377 20.2205L16.4369 18.5293L16.4038 18.8176C16.3708 18.9852 16.2182 19.0834 16.0506 19.0834C15.7769 19.0834 15.6278 18.913 15.6278 18.6702L15.6567 17.7491L14.53 16.6203V18.6723C14.53 18.9151 14.3425 19.0834 14.0805 19.0834C13.8142 19.0834 13.6481 18.9151 13.6481 18.6723V15.7308L12.3913 14.4837L12.531 18.6702C12.5427 18.913 12.3798 19.0834 12.1177 19.0834C11.8675 19.0834 11.6917 18.9151 11.6875 18.6723L11.5051 13.588L9.48926 11.5742L9.84199 19.587C9.87926 20.4207 10.3616 20.8787 11.2049 20.8787ZM19.1641 19.9412C19.4057 20.169 19.758 20.1615 19.9804 19.9316C20.2199 19.6995 20.2199 19.3377 19.9804 19.1056L9.19441 8.3218C8.96449 8.08016 8.58879 8.08016 8.36848 8.3218C8.13645 8.54211 8.13645 8.90609 8.36848 9.14562L19.1641 19.9412ZM18.5076 16.3058L18.757 10.6255H19.611C19.9303 10.6255 20.174 10.3838 20.1836 10.0784C20.1932 9.76133 19.9303 9.5218 19.611 9.5218H16.9474V8.66328C16.9474 7.67164 16.288 7.05383 15.202 7.05383H12.974C11.9692 7.05383 11.3247 7.61258 11.2719 8.51563C11.2635 8.6361 11.2593 8.74485 11.255 8.86321H11.0629L13.9237 11.724V11.5414C13.9663 11.503 14.0186 11.4838 14.0805 11.4838C14.3521 11.4838 14.53 11.6478 14.53 11.9024V12.3303L15.7802 13.5784L15.8399 12.012C15.842 11.7479 16.022 11.5913 16.282 11.5913C16.5461 11.5913 16.7101 11.7596 16.7006 12.0184L16.6195 14.408L18.5076 16.3058ZM12.4893 9.5218L12.4914 8.70711C12.4956 8.41297 12.712 8.21797 13.0199 8.21797H15.1464C15.4586 8.21797 15.6728 8.41297 15.6749 8.70711L15.677 9.5218H12.4893Z" fill="black"/>
</svg>
