<svg width="28" height="28" viewBox="0 0 28 28" fill="none" xmlns="http://www.w3.org/2000/svg">
<path d="M3 20.7084C3 23.2186 4.31484 24.5142 6.84421 24.5142H20.6287C22.8635 24.5142 24.1783 23.209 24.1783 20.7084V8.59217C24.1783 6.09163 22.8539 4.7864 20.3341 4.7864H18.6553C18.603 2.16937 16.3615 0 13.5844 0C10.8073 0 8.57531 2.16937 8.51344 4.7864H6.84421C4.31484 4.7864 3 6.08202 3 8.59217V20.7084ZM5.29592 20.5155V8.78506C5.29592 7.64435 5.88772 7.08232 6.97733 7.08232H20.1914C21.2714 7.08232 21.8824 7.64435 21.8824 8.78506V20.5155C21.8824 21.6541 21.2714 22.2183 20.486 22.2183H6.97733C5.88772 22.2183 5.29592 21.6541 5.29592 20.5155ZM10.7355 4.7864C10.7878 3.26718 11.9784 2.04491 13.5844 2.04491C15.1903 2.04491 16.3905 3.26718 16.4332 4.7864H10.7355Z" fill="black"/>
</svg>
