<svg width="28" height="28" viewBox="0 0 28 28" fill="none" xmlns="http://www.w3.org/2000/svg">
<path d="M14.105 26.2301C20.7369 26.2301 26.2121 20.7549 26.2121 14.123C26.2121 7.50291 20.7273 2.01807 14.0954 2.01807C7.47523 2.01807 2 7.50291 2 14.123C2 20.7549 7.48484 26.2301 14.105 26.2301Z" fill="black"/>
<path d="M9.74768 18.8759V14.127C9.74768 13.2863 10.0866 12.8677 10.7644 12.7998V11.427C10.7644 9.18356 12.1152 7.68262 14.105 7.68262C16.0991 7.68262 17.4498 9.18356 17.4498 11.427V12.8019C18.1234 12.8677 18.4643 13.2863 18.4643 14.127V18.8759C18.4643 19.8036 18.0533 20.2243 17.2002 20.2243H11.014C10.1588 20.2243 9.74768 19.8036 9.74768 18.8759ZM12.1967 12.7754H16.0154V11.299C16.0154 9.96238 15.2478 9.07011 14.1029 9.07011C12.9601 9.07011 12.1967 9.96449 12.1967 11.299V12.7754Z" fill="white"/>
</svg>
