<svg width="28" height="28" viewBox="0 0 28 28" fill="none" xmlns="http://www.w3.org/2000/svg">
<path d="M14.105 26.2301C20.7369 26.2301 26.2121 20.7549 26.2121 14.123C26.2121 7.50289 20.7273 2.01805 14.0954 2.01805C7.47523 2.01805 2 7.50289 2 14.123C2 20.7549 7.48484 26.2301 14.105 26.2301Z" fill="black"/>
<path d="M13.6024 19.4795C13.2925 19.4795 13.0401 19.3538 12.7462 19.0759L10.2098 16.6756C10.1768 16.6426 10.117 16.633 10.0626 16.633H8.38167C7.52761 16.633 7.04199 16.1431 7.04199 15.2326V13.0189C7.04199 12.1084 7.52761 11.6206 8.38167 11.6206H10.0626C10.117 11.6206 10.1768 11.611 10.2098 11.5737L12.7462 9.19905C13.0731 8.89765 13.285 8.76663 13.5831 8.76663C14.0324 8.76663 14.357 9.11796 14.357 9.55014V18.7227C14.357 19.1452 14.0324 19.4795 13.6024 19.4795Z" fill="white"/>
<path d="M16.3656 16.8439C16.0239 16.6011 15.9611 16.2125 16.2091 15.8232C16.5161 15.3809 16.7027 14.753 16.7027 14.1209C16.7027 13.4504 16.5182 12.8204 16.2187 12.4187C15.9569 12.0336 16.0335 11.6248 16.3656 11.3884C16.653 11.1753 17.0683 11.2733 17.2813 11.5534C17.766 12.2276 18.0611 13.1642 18.0611 14.1209C18.0611 15.099 17.7735 16.0259 17.2813 16.6789C17.0545 16.9707 16.6509 17.0612 16.3656 16.8439Z" fill="white"/>
<path d="M18.5995 18.4292C18.2536 18.2248 18.2163 17.7948 18.4537 17.4383C19.0847 16.5699 19.4311 15.3507 19.4311 14.123C19.4311 12.8708 19.0847 11.6879 18.4537 10.779C18.2259 10.4342 18.2728 10.0234 18.5995 9.80187C18.9178 9.58249 19.3064 9.66124 19.5215 9.98702C20.3484 11.1589 20.7799 12.6101 20.7799 14.123C20.7799 15.6455 20.3196 17.0968 19.5215 18.2516C19.316 18.556 18.937 18.6348 18.5995 18.4292Z" fill="white"/>
</svg>
