<svg width="28" height="29" viewBox="0 0 28 29" fill="none" xmlns="http://www.w3.org/2000/svg">
<path d="M1.5019 26.9042C3.51986 28.9201 6.46525 28.9456 8.50571 26.6326C10.6509 24.1805 13.0971 19.5868 16.4731 16.2108C18.9619 13.7124 21.8002 16.0519 25.3451 12.9441C27.067 11.5772 28.0748 9.3385 27.6722 7.54601L23.0288 8.81445C22.3409 8.99679 21.8684 8.56906 21.6572 7.84483L21.3152 6.64858C21.1041 5.92436 21.3579 5.3185 22.0362 5.13826L26.6869 3.87311C26.5411 3.39124 26.1396 2.72327 25.5938 2.1657C22.8087 -0.683362 18.1406 -0.670236 15.424 1.90367C11.3813 5.74507 14.3672 9.70671 11.8873 12.1824C8.79799 15.2621 4.20002 17.7551 1.75971 19.9004C-0.560835 21.9355 -0.523569 24.8787 1.5019 26.9042ZM2.81345 25.5873C1.57314 24.3235 1.58697 22.464 3.03611 21.1864C5.47244 19.0526 10.3889 16.3114 13.2084 13.494C16.3099 10.3925 13.0495 6.62749 16.7548 3.21733C18.78 1.35405 22.3786 1.38358 24.4936 3.52366L25.0322 2.5632L21.6122 3.45757C19.8317 3.93148 19.05 5.31147 19.5846 7.15811L19.9149 8.30116C20.4942 10.3323 21.6924 10.94 23.3428 10.497L26.8936 9.53772L25.9099 9.02983C25.6638 9.90522 25.2122 10.7628 24.4781 11.4926C21.5939 14.3087 18.2161 11.851 15.154 14.8918C12.0713 17.9724 9.35556 22.9123 7.22182 25.3625C5.9208 26.8564 4.04955 26.8585 2.81345 25.5873ZM16.8312 11.735L19.3362 11.0637C19.5471 11.0051 19.6781 10.7729 19.6195 10.5481C19.5706 10.3393 19.3479 10.2008 19.1156 10.269L16.6202 10.9381C16.3997 10.9967 16.2804 11.2173 16.3252 11.4324C16.3603 11.686 16.6106 11.7936 16.8312 11.735ZM16.5286 10.467L19.0006 9.80749C19.2232 9.74889 19.3638 9.52835 19.2935 9.28225C19.2307 9.0596 19.0006 8.94452 18.7917 8.99139L16.2963 9.67014C16.0737 9.71913 15.9448 9.95139 16.0034 10.1623C16.0758 10.4084 16.2846 10.5352 16.5286 10.467ZM16.2185 9.19905L18.7001 8.53952C18.9227 8.48092 19.0538 8.26038 18.9813 8.01428C18.9302 7.79163 18.7001 7.66694 18.4913 7.72131L15.9842 8.39045C15.7615 8.44905 15.6443 8.68342 15.7008 8.89436C15.7573 9.13835 15.9724 9.26725 16.2185 9.19905ZM21.4345 13.8685L22.6622 13.5708L21.1425 8.02483L19.9149 8.30116L21.4345 13.8685ZM4.96384 24.8426C5.7333 24.8426 6.35463 24.2192 6.35463 23.4519C6.35463 22.6866 5.7333 22.0536 4.96384 22.0536C4.1965 22.0536 3.56556 22.6866 3.56556 23.4519C3.56556 24.2192 4.1965 24.8426 4.96384 24.8426Z" fill="black"/>
</svg>
