<svg width="28" height="28" viewBox="0 0 28 28" fill="none" xmlns="http://www.w3.org/2000/svg">
<path d="M21.9269 18.5266L22.4404 6.791H24.0738C24.6513 6.791 25.1109 6.33233 25.1109 5.75483C25.1109 5.18156 24.6513 4.7325 24.0738 4.7325H18.9801V2.97328C18.9801 1.11305 17.7777 0 15.7699 0H11.3125C9.31212 0 8.10978 1.11305 8.10978 2.97328V4.35398H7.74462L12.872 9.4814V8.96249C12.9881 8.72038 13.2374 8.58491 13.5508 8.58491C14.0362 8.58491 14.3779 8.89569 14.3779 9.35225V10.9873L16.7439 13.3533L16.8548 9.35436C16.8707 8.88819 17.2028 8.58491 17.6636 8.58491C18.1532 8.58491 18.4694 8.8978 18.4577 9.35647L18.3053 14.9147L21.9269 18.5266ZM10.5241 4.74726V3.08203C10.5241 2.55304 10.8845 2.20101 11.4763 2.20101H15.6231C16.2074 2.20101 16.5754 2.55304 16.5754 3.08203V4.74726H10.5241ZM8.00125 26.1717H19.1078C20.2155 26.1717 21.0196 25.709 21.3749 24.93L21.3845 24.7186L18.0114 21.3455L17.9922 22.0106C17.9669 22.3713 17.6875 22.6008 17.3057 22.6008C16.8119 22.6008 16.4936 22.2879 16.5053 21.8271L16.5576 19.882L14.3779 17.7023V21.8355C14.3779 22.2921 14.0362 22.6008 13.5508 22.6008C13.0633 22.6008 12.7312 22.2921 12.7312 21.8355V16.0673L10.3778 13.7022L10.6037 21.8271C10.6176 22.2879 10.2972 22.6008 9.80336 22.6008C9.32969 22.6008 9.00509 22.2996 8.99337 21.8334L8.72384 12.0483L4.73267 8.07843L5.42407 23.7412C5.48689 25.3188 6.40891 26.1717 8.00125 26.1717Z" fill="black"/>
<path d="M23.5133 24.7665C23.8754 25.1307 24.4707 25.1307 24.8307 24.7665C25.1832 24.3948 25.1949 23.8112 24.8307 23.4491L3.59562 2.20236C3.2314 1.83814 2.62859 1.83814 2.26437 2.20236C1.91188 2.55275 1.91188 3.16939 2.26437 3.52189L23.5133 24.7665Z" fill="black"/>
</svg>
