<svg width="28" height="28" viewBox="0 0 28 28" fill="none" xmlns="http://www.w3.org/2000/svg">
<path d="M11.2796 25.8205C12.184 26.0712 13.1408 26.21 14.105 26.21C20.7369 26.21 26.2121 20.7273 26.2121 14.105C26.2121 13.1408 26.0808 12.2129 25.8397 11.3276L19.464 13.2251C19.5312 13.5282 19.5622 13.8312 19.5622 14.1535C19.5622 17.1376 17.1291 19.5643 14.1568 19.5739C13.8174 19.5739 13.4951 19.543 13.175 19.4661L11.2796 25.8205ZM25.501 10.1642C25.1804 9.19859 24.7299 8.29999 24.1751 7.46632L18.8366 11.4118C18.9612 11.6185 19.0625 11.8391 19.137 12.0692L25.501 10.1642ZM23.5163 6.56914C22.1426 4.83102 20.2855 3.48149 18.1461 2.74953L16.2432 9.13273C16.9857 9.42781 17.6537 9.90406 18.1681 10.5167L23.5163 6.56914ZM16.9902 2.40875C16.0665 2.14836 15.1002 2 14.0954 2C7.47523 2 2 7.47312 2 14.105C2 15.1119 2.15047 16.1049 2.42047 17.0307L8.79078 15.1257C8.70218 14.7884 8.66164 14.4416 8.66164 14.0755C8.66164 11.1256 11.1193 8.67664 14.0905 8.67664C14.4298 8.67664 14.7575 8.72468 15.0777 8.79406L16.9902 2.40875ZM2.76875 18.1866C3.09899 19.1288 3.55156 20.0199 4.09461 20.8419L9.43742 16.9039C9.32234 16.7068 9.22859 16.5001 9.13906 16.2795L2.76875 18.1866ZM4.77265 21.7391C6.14632 23.4483 8.00562 24.7787 10.1162 25.4818L12.0094 19.137C11.2883 18.8516 10.6278 18.3828 10.1251 17.8011L4.77265 21.7391ZM14.1188 18.3132C16.4349 18.3132 18.3036 16.4211 18.3036 14.1008C18.3036 11.8156 16.4211 9.93523 14.1188 9.93523C11.8123 9.93523 9.92023 11.8252 9.92023 14.1008C9.92023 16.4403 11.7985 18.3132 14.1188 18.3132ZM14.1188 17.0035C12.5295 17.0035 11.2278 15.7039 11.2278 14.1221C11.2278 12.5466 12.5295 11.2449 14.1188 11.2449C15.6943 11.2449 16.9939 12.5466 16.9939 14.1125C16.9939 15.7039 15.6943 17.0035 14.1188 17.0035ZM14.1188 15.5698C14.9077 15.5795 15.5527 14.9248 15.5527 14.1146C15.5527 13.3353 14.9077 12.6807 14.1284 12.6807C13.3065 12.6807 12.6711 13.3449 12.6711 14.1146C12.6711 14.9248 13.3065 15.5602 14.1188 15.5698Z" fill="black"/>
</svg>
