<svg width="28" height="32" viewBox="0 0 28 32" fill="none" xmlns="http://www.w3.org/2000/svg">
<path d="M8.47483 26.4063H19.4598C21.6582 26.4063 22.9325 25.1011 22.9325 22.8834V6.11108C22.9325 3.88382 21.6582 2.5882 19.4598 2.5882H16.4968V2.51671C16.4968 1.01672 15.4705 0 13.9662 0C12.4641 0 11.4378 1.01672 11.4378 2.51671V2.5882H8.47483C6.2764 2.5882 5 3.88382 5 6.11108V22.8834C5 25.1011 6.2764 26.4063 8.47483 26.4063ZM13.9684 3.3914C13.49 3.3914 13.115 3.00679 13.115 2.52843C13.115 2.06179 13.49 1.67718 13.9684 1.67718C14.4446 1.67718 14.8217 2.06179 14.8217 2.52843C14.8217 3.00679 14.4446 3.3914 13.9684 3.3914ZM16.6693 31.5689H21.901C22.4731 31.5689 22.9325 31.1095 22.9325 30.5374C22.9325 29.9515 22.4731 29.4825 21.901 29.4825H16.6946C15.4672 29.4825 14.8285 28.9601 14.8285 27.7453V24.978H12.74V27.7706C12.74 30.1772 14.2501 31.5689 16.6693 31.5689Z" fill="black"/>
<path d="M9.93182 22.7993C9.19143 22.7993 8.71518 22.3465 8.71729 21.6178V8.66033C8.71518 7.94127 9.19143 7.46924 9.93182 7.46924H18.0197C18.76 7.46924 19.2384 7.94127 19.2363 8.66033V21.6178C19.2384 22.3465 18.76 22.7993 18.0197 22.7993H9.93182Z" fill="white"/>
<path d="M12.475 20.4986H15.4811C15.8559 20.4986 16.1263 20.2356 16.1263 19.8906C16.1263 19.5296 15.8559 19.2315 15.4811 19.2315H12.475C12.0927 19.2315 11.8297 19.5296 11.8297 19.8906C11.8297 20.2356 12.0927 20.4986 12.475 20.4986ZM11.5492 17.8946H16.4336C16.7966 17.8946 17.0692 17.6104 17.0692 17.2473C17.0692 16.8981 16.7966 16.6234 16.4336 16.6234H11.5492C11.1648 16.6234 10.9019 16.8981 10.9019 17.2473C10.9019 17.6104 11.1648 17.8946 11.5492 17.8946ZM13.9684 14.9739C14.9966 14.9739 15.8491 14.1758 15.8491 13.138C15.8491 12.5605 15.5486 11.9947 15.2737 11.4779L14.3378 9.76398C14.11 9.33391 13.8215 9.34562 13.6011 9.76398L12.6632 11.4779C12.3883 11.9947 12.0878 12.5605 12.0878 13.138C12.0878 14.1758 12.9519 14.9739 13.9684 14.9739Z" fill="black"/>
</svg>
