<svg width="28" height="28" viewBox="0 0 28 28" fill="none" xmlns="http://www.w3.org/2000/svg">
<path d="M7.80577 26.3655H20.2891C22.7917 26.3655 24.0948 25.0506 24.0948 22.5287V4.84632C24.0948 2.31484 22.8013 1 20.2891 1H17.4243C16.9668 1 16.6804 1.33187 16.6804 1.78328C16.6804 1.8482 16.6804 1.91734 16.6804 1.97476C16.6804 3.51085 15.6428 4.42914 14.0474 4.42914C12.452 4.42914 11.4145 3.51085 11.4145 1.97476C11.4145 1.91734 11.4145 1.8482 11.4145 1.78328C11.4145 1.33187 11.128 1 10.6726 1H7.80577C5.29562 1 4 2.31484 4 4.84632V22.5287C4 25.0506 5.30523 26.3655 7.80577 26.3655ZM9.72835 9.98147C9.29171 9.98147 8.97225 9.65241 8.97225 9.21366C8.97225 8.79835 9.29171 8.47351 9.72835 8.47351H18.374C18.7989 8.47351 19.1184 8.79835 19.1184 9.21366C19.1184 9.65241 18.7989 9.98147 18.374 9.98147H9.72835ZM9.72835 14.1248C9.29171 14.1248 8.97225 13.7978 8.97225 13.3825C8.97225 12.9555 9.29171 12.6264 9.72835 12.6264H13.908C14.3446 12.6264 14.6619 12.9555 14.6619 13.3825C14.6619 13.7978 14.3446 14.1248 13.908 14.1248H9.72835Z" fill="black"/>
</svg>
