<svg width="28" height="28" viewBox="0 0 28 28" fill="none" xmlns="http://www.w3.org/2000/svg">
<path d="M7.77695 26.358H23.0202C23.6308 26.358 24.1033 25.8951 24.1033 25.2749C24.1033 24.7551 23.7482 24.3728 23.3057 24.1743C21.8671 23.5398 21.5793 21.5559 23.0472 20.148C23.6254 19.6288 24.0948 19.0504 24.0948 17.8659V4.84846C24.0948 2.32659 22.8013 1.00214 20.2891 1.00214H7.80577C5.29562 1.00214 4 2.31698 4 4.84846V22.5597C4 25.0623 5.30523 26.358 7.77695 26.358ZM8.07225 24.1844C6.8296 24.1844 6.17991 23.4862 6.17991 22.3771C6.17991 21.3182 6.9278 20.5816 8.16085 20.5816H19.8827C20.0181 20.5816 20.1461 20.572 20.2527 20.5527C19.683 21.7884 19.7556 23.1281 20.3725 24.1844H8.07225ZM7.61733 18.697C7.23085 18.697 6.90929 18.3754 6.90929 17.9793V3.67424C6.90929 3.27815 7.23085 2.9662 7.61733 2.9662C8.00171 2.9662 8.33288 3.27815 8.33288 3.67424V17.9793C8.33288 18.3754 8.00171 18.697 7.61733 18.697ZM12.3226 15.3712C11.7569 15.3712 11.4058 15.0297 11.4058 14.5012C11.4058 14.3341 11.4355 14.1459 11.5302 13.8651L14.2068 6.55213C14.462 5.84432 14.9289 5.49347 15.6306 5.49347C16.3462 5.49347 16.8311 5.84643 17.0863 6.55213L19.7629 13.8651C19.8651 14.1459 19.8969 14.3341 19.8969 14.5108C19.8969 15.0297 19.5341 15.3712 18.9684 15.3712C18.509 15.3712 18.193 15.1406 18.0227 14.5598L17.3791 12.6655H13.9141L13.2704 14.5598C13.1001 15.1406 12.7841 15.3712 12.3226 15.3712ZM14.3422 11.2333H16.9509L15.703 7.43409H15.588L14.3422 11.2333Z" fill="black"/>
</svg>
