<svg width="28" height="30" viewBox="0 0 28 30" fill="none" xmlns="http://www.w3.org/2000/svg">
<path d="M14.1556 29.0395C21.0481 29.0395 26.3209 27.5641 26.3209 24.9846C26.3209 23.3372 24.1653 22.1421 20.7845 21.4955L19.6817 23.2251C22.647 23.6311 24.3952 24.3279 24.3952 24.9846C24.3952 25.9973 20.2815 27.1139 14.1556 27.1139C8.03937 27.1139 3.92562 25.9973 3.92562 24.9846C3.92562 24.3279 5.67382 23.6311 8.64124 23.2251L7.52679 21.4955C4.15554 22.1421 2 23.3372 2 24.9846C2 27.5641 7.27273 29.0395 14.1556 29.0395ZM6.56328 21.0614L7.7689 23.9376C7.95945 24.3846 8.51585 24.4772 8.86929 23.9557L10.3393 21.7755C10.6533 21.3211 10.5193 20.7921 9.9296 20.6655L7.30718 20.1654C6.67812 20.0388 6.37062 20.5931 6.56328 21.0614ZM21.7597 21.0614C21.9502 20.5931 21.6331 20.0388 21.0137 20.1654L18.3912 20.6655C17.8016 20.7921 17.6696 21.3211 17.9741 21.7755L19.4516 23.9557C19.805 24.4772 20.3518 24.3846 20.5423 23.9376L21.7597 21.0614Z" fill="black"/>
<path d="M4.64087 12.6435C4.64087 15.5408 7.23563 18.5542 9.7643 18.5542C11.9079 18.5542 13.1669 16.7394 14.3177 13.6518C14.4469 13.6518 14.5279 13.6422 14.6283 13.6229V16.3508C14.6283 18.1253 15.5494 19.0698 17.2652 19.0698C20.1529 19.0698 23.1759 16.4772 23.1759 13.956C23.1759 11.9073 21.499 10.5543 18.2735 9.4026C18.2735 9.28518 18.2639 9.19237 18.235 9.09416H20.9491C22.7161 9.09416 23.6915 8.16346 23.6915 6.45721C23.6915 3.56948 21.0776 0.546509 18.5564 0.546509C16.4554 0.546509 15.191 2.45527 14.0147 5.43511C13.8876 5.43511 13.8044 5.44472 13.7158 5.46394V2.75948C13.7158 0.982913 12.7851 0.019165 11.0555 0.019165C8.18157 0.0404932 5.1586 2.62354 5.1586 5.1426C5.1586 7.2862 6.96821 8.53893 10.0259 9.69393C10.0259 9.81346 10.0355 9.90417 10.0547 9.99487H7.37157C5.59712 9.99487 4.64087 10.9372 4.64087 12.6435ZM14.1555 11.3558C13.1583 11.3558 12.3452 10.5599 12.3452 9.55518C12.3452 8.54081 13.1583 7.73104 14.1555 7.73104C15.1603 7.73104 15.9851 8.54081 15.9851 9.55518C15.9851 10.5599 15.1603 11.3558 14.1555 11.3558Z" fill="black"/>
</svg>
