<svg width="31" height="28" viewBox="0 0 31 28" fill="none" xmlns="http://www.w3.org/2000/svg">
<path d="M3.84421 20.5808H6.64592V18.2849H3.97733C2.88772 18.2849 2.29592 17.7133 2.29592 16.5726V5.0296C2.29592 3.891 2.88772 3.31936 3.97733 3.31936H20.8709C21.9509 3.31936 22.5523 3.891 22.5523 5.0296V7.9464H24.8503V4.82921C24.8503 2.32656 23.5355 1.02344 21.0136 1.02344H3.84421C1.30523 1.02344 0 2.32656 0 4.82921V16.7751C0 19.2756 1.30523 20.5808 3.84421 20.5808Z" fill="black"/>
<path d="M9.87391 26.1522H27.0411C29.5726 26.1522 30.8778 24.8469 30.8778 22.3464V11.5253C30.8778 9.02475 29.5726 7.72912 27.0411 7.72912H25.5969C24.7159 7.72912 24.4337 7.62787 23.915 7.1024L23.0312 6.21787C22.4061 5.58693 21.7855 5.29279 20.8419 5.29279H16.0731C15.1199 5.29279 14.5089 5.58693 13.8763 6.21787L13 7.1024C12.4717 7.62787 12.1895 7.72912 11.3085 7.72912H9.87391C7.33282 7.72912 6.02759 9.02475 6.02759 11.5253V22.3464C6.02759 24.8469 7.33282 26.1522 9.87391 26.1522ZM10.007 23.8562C8.91531 23.8562 8.32351 23.2825 8.32351 22.1439V11.7278C8.32351 10.5892 8.91531 10.025 10.007 10.025H11.9216C12.9062 10.025 13.5252 9.82465 14.1039 9.23496L15.1982 8.13856C15.628 7.73707 15.9711 7.58871 16.6293 7.58871H20.2761C20.9439 7.58871 21.2774 7.73707 21.7072 8.13856L22.8111 9.23496C23.3898 9.82465 24.0013 10.025 24.9859 10.025H26.8984C27.9901 10.025 28.5819 10.5892 28.5819 11.7278V22.1439C28.5819 23.2825 27.9901 23.8562 26.8984 23.8562H10.007ZM18.4623 22.3438C21.5258 22.3438 24.0182 19.8632 24.0182 16.7805C24.0182 13.7169 21.5258 11.2246 18.4623 11.2246C15.3892 11.2246 12.9086 13.7169 12.9086 16.7805C12.9086 19.8632 15.3892 22.3438 18.4623 22.3438ZM18.4623 20.342C16.5067 20.342 14.9082 18.7436 14.9082 16.7783C14.9082 14.8227 16.5067 13.2339 18.4623 13.2339C20.4179 13.2339 22.0068 14.8227 22.0068 16.7783C22.0068 18.7436 20.4179 20.342 18.4623 20.342ZM25.5058 14.2033C26.2408 14.2033 26.8447 13.6089 26.8447 12.876C26.8447 12.141 26.2408 11.537 25.5058 11.537C24.7708 11.537 24.1764 12.141 24.1764 12.876C24.1764 13.6089 24.7708 14.2033 25.5058 14.2033Z" fill="black"/>
</svg>
