<svg width="28" height="29" viewBox="0 0 28 29" fill="none" xmlns="http://www.w3.org/2000/svg">
<path d="M9.23288 12.9558C9.82374 12.9558 10.2965 12.4809 10.2965 11.8901C10.2965 11.2971 9.82374 10.8244 9.23288 10.8244C8.65163 10.8244 8.16718 11.3109 8.16718 11.8901C8.16718 12.4692 8.65163 12.9558 9.23288 12.9558ZM12.444 12.7137H19.0703C19.5236 12.7137 19.8939 12.3412 19.8939 11.8901C19.8939 11.4368 19.5236 11.0569 19.0703 11.0569H12.444C11.9929 11.0569 11.6108 11.4368 11.6108 11.8901C11.6108 12.3412 11.9929 12.7137 12.444 12.7137ZM7.80999 28.6413H20.2448C22.7359 28.6413 24.0569 27.3087 24.0569 24.7802V7.05046C24.0569 4.57219 22.7765 3.18938 20.3526 3.18938H20.0882C20.1316 3.33586 20.1484 3.5025 20.1484 3.66796V4.75429C20.1484 4.99663 20.1219 5.23265 20.0573 5.43679H20.3048C21.2987 5.43679 21.8095 6.08202 21.8095 7.0739V24.7568C21.8095 25.8063 21.239 26.3939 20.1468 26.3939H7.91007C6.81577 26.3939 6.24741 25.8063 6.24741 24.7568V7.0739C6.24741 6.08202 6.75811 5.43679 7.7521 5.43679H7.99749C7.93281 5.23265 7.90632 4.99663 7.90632 4.75429V3.66796C7.90632 3.5025 7.9232 3.33586 7.96866 3.18938H7.70218C5.28039 3.18938 4 4.57219 4 7.05046V24.7802C4 27.3087 5.31882 28.6413 7.80999 28.6413ZM10.4158 6.10078H17.639C18.344 6.10078 18.7689 5.65031 18.7689 4.89843V3.66796C18.7689 2.91398 18.344 2.46562 17.639 2.46562H16.6452C16.5569 1.10344 15.4258 0 14.0284 0C12.6311 0 11.5 1.10344 11.4116 2.46562H10.4158C9.71288 2.46562 9.28796 2.91398 9.28796 3.66796V4.89843C9.28796 5.65031 9.71288 6.10078 10.4158 6.10078ZM14.0284 3.59578C13.4575 3.59578 12.9941 3.1207 12.9941 2.56359C12.9941 1.98515 13.4575 1.52179 14.0284 1.52179C14.5994 1.52179 15.0606 1.98515 15.0606 2.56359C15.0606 3.1207 14.5994 3.59578 14.0284 3.59578Z" fill="black"/>
<path d="M9.23294 21.4755C9.8238 21.4755 10.2965 21.0028 10.2965 20.4098C10.2965 19.819 9.8238 19.3462 9.23294 19.3462C8.65169 19.3462 8.16724 19.8307 8.16724 20.4098C8.16724 20.989 8.65169 21.4755 9.23294 21.4755ZM12.4441 21.2334H19.0704C19.5237 21.2334 19.894 20.8631 19.894 20.4098C19.894 19.9587 19.5333 19.5905 19.0704 19.5905H12.4441C11.9833 19.5905 11.6109 19.9587 11.6109 20.4098C11.6109 20.8631 11.9929 21.2334 12.4441 21.2334Z" fill="black"/>
<path d="M9.23294 17.0937C9.8238 17.0937 10.2965 16.6209 10.2965 16.0301C10.2965 15.4392 9.82169 14.9761 9.23294 14.9761C8.64208 14.9761 8.16724 15.453 8.16724 16.0301C8.16724 16.6209 8.63997 17.0937 9.23294 17.0937ZM12.4441 16.8612H19.0704C19.5354 16.8612 19.894 16.493 19.894 16.0301C19.894 15.5768 19.5333 15.2182 19.0704 15.2182H12.4441C11.9833 15.2182 11.6109 15.5768 11.6109 16.0301C11.6109 16.493 11.9812 16.8612 12.4441 16.8612Z" fill="black"/>
</svg>
