<svg width="28" height="28" viewBox="0 0 28 28" fill="none" xmlns="http://www.w3.org/2000/svg">
<path d="M14.105 26.21C20.7369 26.21 26.2121 20.7273 26.2121 14.105C26.2121 7.47312 20.7273 2 14.0954 2C7.47523 2 2 7.47312 2 14.105C2 20.7273 7.48484 26.21 14.105 26.21ZM14.105 23.8255C8.71085 23.8255 4.39412 19.4991 4.39412 14.105C4.39412 8.71085 8.70124 4.38452 14.0954 4.38452C19.4895 4.38452 23.8276 8.71085 23.8276 14.105C23.8276 19.4991 19.4991 23.8255 14.105 23.8255Z" fill="black"/>
<path d="M9.30783 18.3618C9.30783 19.3324 9.88205 19.8628 10.8589 19.8628H13.5643V14.8077H9.30783V18.3618ZM14.6286 19.8628H17.334C18.3087 19.8628 18.883 19.3324 18.883 18.3618V14.8077H14.6286V19.8628ZM8.51587 13.2161C8.51587 13.8435 8.87587 14.1255 9.51079 14.1255H13.5643V10.9192H12.7062C11.8163 10.9192 11.3068 10.3926 11.3068 9.75528C11.3068 9.15622 11.7397 8.77372 12.361 8.77372C13.0304 8.77372 13.5643 9.29685 13.5643 10.123V10.9192H14.6286V10.123C14.6286 9.29685 15.1625 8.77372 15.8394 8.77372C16.4607 8.77372 16.8861 9.15622 16.8861 9.75528C16.8861 10.3926 16.3744 10.9192 15.4866 10.9192H14.6286V14.1255H18.6896C19.3245 14.1255 19.6749 13.8435 19.6749 13.2161V11.9226C19.6749 11.2319 19.2929 10.9192 18.601 10.9192H17.4282C17.7671 10.6103 17.9525 10.1617 17.9525 9.662C17.9525 8.52107 17.0534 7.70825 15.9359 7.70825C15.0924 7.70825 14.3874 8.17888 14.0954 9.02966C13.8076 8.17888 13.108 7.70825 12.2666 7.70825C11.1395 7.70825 10.2383 8.52107 10.2383 9.662C10.2383 10.1617 10.4333 10.6103 10.7647 10.9192H9.59938C8.92884 10.9192 8.51587 11.2319 8.51587 11.9226V13.2161Z" fill="black"/>
</svg>
