<svg width="28" height="28" viewBox="0 0 28 28" fill="none" xmlns="http://www.w3.org/2000/svg">
<path d="M3.84421 24.8779H23.9109C26.4499 24.8779 27.7552 23.5822 27.7552 21.0817V6.80992C27.7552 4.30727 26.4499 3.00415 23.9109 3.00415H3.84421C1.31484 3.00415 0 4.30727 0 6.80992V21.0817C0 23.5822 1.31484 24.8779 3.84421 24.8779ZM3.97733 22.5819C2.88772 22.5819 2.29592 22.0178 2.29592 20.8792V7.01031C2.29592 5.87171 2.88772 5.30007 3.97733 5.30007H23.7778C24.8578 5.30007 25.4592 5.87171 25.4592 7.01031V20.8792C25.4592 22.0178 24.8578 22.5819 23.7778 22.5819H3.97733Z" fill="black"/>
<path d="M9.68091 18.4827C9.68091 19.3743 10.076 19.7908 10.909 19.7908H16.8696C17.6909 19.7908 18.0881 19.3743 18.0881 18.4827V13.9136C18.0881 13.1143 17.7588 12.7096 17.1012 12.6459V11.3125C17.1012 9.15836 15.8058 7.71484 13.8893 7.71484C11.9728 7.71484 10.6774 9.15836 10.6774 11.3125V12.6438C10.008 12.7096 9.68091 13.1143 9.68091 13.9136V18.4827ZM12.0459 12.6215V11.1941C12.0459 9.90109 12.772 9.04609 13.8893 9.04609C14.997 9.04609 15.7327 9.89898 15.7327 11.1941V12.6215H12.0459Z" fill="black"/>
</svg>
