<svg width="29" height="29" viewBox="0 0 29 29" fill="none" xmlns="http://www.w3.org/2000/svg">
<path d="M15.8128 18.0881C15.8128 21.3436 18.419 22.9978 18.419 25.7493C18.419 26.3864 18.2859 26.9053 17.913 27.5753C17.6555 28.0352 17.8195 28.4735 18.1439 28.7128C18.5533 28.9818 19.1365 28.9342 19.4569 28.3605C19.9308 27.5575 20.1661 26.6758 20.1661 25.7493C20.1661 22.4458 17.5502 20.8012 17.5502 18.0881C17.5502 17.4511 17.6929 16.9322 18.0733 16.2471C18.3276 15.8043 18.1669 15.3459 17.8094 15.1129C17.4138 14.8673 16.8286 14.917 16.522 15.4577C16.0289 16.2607 15.8128 17.1616 15.8128 18.0881ZM12.2072 18.0977C12.2072 21.3436 14.8092 23.0074 14.8092 25.7493C14.8092 26.396 14.6803 26.9149 14.2936 27.585C14.0498 28.0352 14.2118 28.4831 14.5362 28.7224C14.9414 28.9818 15.5308 28.9439 15.8512 28.3818C16.323 27.5671 16.5562 26.6758 16.5562 25.7493C16.5562 22.4554 13.9446 20.8108 13.9446 18.0977C13.9446 17.4511 14.0831 16.9322 14.4581 16.2567C14.7178 15.814 14.5591 15.3459 14.1996 15.1129C13.804 14.8673 13.2134 14.917 12.9122 15.4673C12.4191 16.2724 12.2072 17.1712 12.2072 18.0977ZM8.59736 18.0881C8.59736 21.3436 11.2015 22.9978 11.2015 25.7493C11.2015 26.3864 11.0705 26.9053 10.6837 27.5753C10.4304 28.0352 10.602 28.4735 10.9263 28.7128C11.3316 28.9818 11.921 28.9342 12.2414 28.3605C12.7153 27.5575 12.9485 26.6758 12.9485 25.7493C12.9485 22.4458 10.3348 20.8012 10.3348 18.0881C10.3348 17.4511 10.4733 16.9322 10.8483 16.2471C11.1101 15.8043 10.9397 15.3459 10.5919 15.1129C10.1962 14.8673 9.60353 14.917 9.29486 15.4577C8.81135 16.2607 8.59736 17.1616 8.59736 18.0881ZM19.6451 18.6208C19.6451 18.9124 19.8951 19.1189 20.2005 19.0849L21.1605 19.0073L20.6034 19.8011C20.4429 20.032 20.4897 20.362 20.7419 20.5132C20.9941 20.6782 21.3326 20.56 21.4443 20.2706L21.8526 19.4022L22.2769 20.2919C22.4046 20.5546 22.7111 20.6707 22.9708 20.5249C23.2134 20.3908 23.2795 20.0374 23.104 19.7894L22.5532 19.0115L23.5068 19.0945C23.8005 19.1285 24.0623 18.922 24.0623 18.6208C24.0623 18.31 23.8218 18.1015 23.5165 18.1354L22.5457 18.2088L23.1061 17.4117C23.272 17.1637 23.2305 16.8466 22.9708 16.705C22.7111 16.5593 22.3961 16.6603 22.2747 16.9305L21.8569 17.8052L21.4518 16.938C21.3379 16.6582 21.0112 16.54 20.7419 16.6975C20.4897 16.8316 20.4333 17.1616 20.6034 17.4117L21.1563 18.2088L20.2005 18.145C19.8855 18.1228 19.6451 18.3197 19.6451 18.6208ZM4.77588 25.4032C4.77588 25.7064 5.01635 25.9225 5.32174 25.8885L6.28502 25.8131L5.72463 26.6123C5.5587 26.8507 5.60346 27.1731 5.85776 27.3093C6.12705 27.4626 6.43361 27.3583 6.55174 27.086L6.97385 26.2134L7.39174 27.0721C7.49604 27.3616 7.82486 27.4701 8.09416 27.3264C8.34635 27.1924 8.40494 26.8549 8.23478 26.6144L7.67557 25.8089L8.63768 25.8789C8.94306 25.9033 9.18353 25.6968 9.18353 25.4032C9.18353 25.1116 8.93346 24.9051 8.63768 24.937L7.67228 25.0125L8.22517 24.2228C8.38361 23.9941 8.33674 23.6641 8.09416 23.5108C7.84619 23.3437 7.50026 23.4597 7.38635 23.7513L6.97174 24.6164L6.55385 23.7342C6.43244 23.4735 6.12705 23.3533 5.85776 23.497C5.61729 23.6289 5.54487 23.9866 5.72252 24.2346L6.2733 25.0125L5.33135 24.9274C5.03557 24.8934 4.77588 25.102 4.77588 25.4032Z" fill="black"/>
<path d="M0 2.91538V10.3983C0 12.1947 1.1114 13.3158 2.87694 13.3158H25.8886C27.6541 13.3158 28.7655 12.1947 28.7655 10.3983V2.91538C28.7655 1.12101 27.6541 0 25.8886 0H2.87694C1.1114 0 0 1.12101 0 2.91538ZM19.2726 9.83904C19.2726 9.46428 19.5729 9.17905 19.9401 9.17905H24.678C25.039 9.17905 25.3434 9.46428 25.3434 9.83904C25.3434 10.2042 25.039 10.4948 24.678 10.4948H19.9401C19.5729 10.4948 19.2726 10.2042 19.2726 9.83904ZM19.2726 7.26608C19.2726 6.89342 19.5729 6.58897 19.9401 6.58897H24.678C25.039 6.58897 25.3434 6.89342 25.3434 7.26608C25.3434 7.62162 25.039 7.91014 24.678 7.91014H19.9401C19.5729 7.91014 19.2726 7.62162 19.2726 7.26608ZM11.3869 9.83904C11.3869 9.46428 11.6796 9.17905 12.0565 9.17905H16.7944C17.1478 9.17905 17.448 9.46428 17.448 9.83904C17.448 10.2042 17.1478 10.4948 16.7944 10.4948H12.0565C11.6796 10.4948 11.3869 10.2042 11.3869 9.83904ZM11.3869 7.26608C11.3869 6.89342 11.6796 6.58897 12.0565 6.58897H16.7944C17.1478 6.58897 17.448 6.89342 17.448 7.26608C17.448 7.62162 17.1478 7.91014 16.7944 7.91014H12.0565C11.6796 7.91014 11.3869 7.62162 11.3869 7.26608ZM3.47975 9.83904C3.47975 9.46428 3.78421 9.17905 4.13553 9.17905H8.87343C9.2503 9.17905 9.54092 9.46428 9.54092 9.83904C9.54092 10.2042 9.2503 10.4948 8.87343 10.4948H4.13553C3.78421 10.4948 3.47975 10.2042 3.47975 9.83904ZM3.47975 7.26608C3.47975 6.89342 3.78421 6.58897 4.13553 6.58897H8.87343C9.2503 6.58897 9.54092 6.89342 9.54092 7.26608C9.54092 7.62162 9.2503 7.91014 8.87343 7.91014H4.13553C3.78421 7.91014 3.47975 7.62162 3.47975 7.26608Z" fill="black"/>
</svg>
