<svg width="28" height="28" viewBox="0 0 28 28" fill="none" xmlns="http://www.w3.org/2000/svg">
<path d="M1 21.2956C1 23.7844 2.28718 25.0428 4.78773 25.0428H23.8098C26.32 25.0428 27.5976 23.7844 27.5976 21.2956V9.82577C27.5976 7.34655 26.32 6.07859 23.8098 6.07859H4.78773C2.28718 6.07859 1 7.34655 1 9.82577V21.2956ZM5.71585 13.1537C4.65812 13.1537 3.80382 12.3015 3.80382 11.2362C3.80382 10.1785 4.65812 9.32632 5.71585 9.32632C6.78858 9.32632 7.63116 10.1785 7.63116 11.2362C7.63116 12.3015 6.78858 13.1537 5.71585 13.1537ZM11.4421 13.1537C10.379 13.1537 9.52468 12.3015 9.52468 11.2362C9.52468 10.1785 10.379 9.32632 11.4421 9.32632C12.4977 9.32632 13.352 10.1785 13.352 11.2362C13.352 12.3015 12.4977 13.1537 11.4421 13.1537ZM17.2061 13.1537C16.1483 13.1537 15.2962 12.3015 15.2962 11.2362C15.2962 10.1785 16.1483 9.32632 17.2061 9.32632C18.2788 9.32632 19.1235 10.1785 19.1235 11.2362C19.1235 12.3015 18.2788 13.1537 17.2061 13.1537ZM22.9808 13.1537C21.9177 13.1537 21.0655 12.3015 21.0655 11.2362C21.0655 10.1785 21.9177 9.32632 22.9808 9.32632C24.0386 9.32632 24.9025 10.1785 24.9025 11.2362C24.9025 12.3015 24.0386 13.1537 22.9808 13.1537ZM3.29592 21.223V15.6294H25.3016V21.223C25.3016 22.3013 24.7534 22.8303 23.7252 22.8303H4.87444C3.84413 22.8303 3.29592 22.3013 3.29592 21.223ZM7.29859 7.39133H9.46139V4.95734C9.46139 4.34843 9.88796 3.96124 10.5287 3.96124H18.0784C18.7309 3.96124 19.1458 4.34843 19.1458 4.95734V7.39133H21.3086V4.84859C21.3086 3.05656 20.1627 2 18.223 2H10.3841C8.44445 2 7.29859 3.05656 7.29859 4.84859V7.39133Z" fill="black"/>
</svg>
