<svg width="29" height="28" viewBox="0 0 29 28" fill="none" xmlns="http://www.w3.org/2000/svg">
<path d="M3.84421 24.6282H25.1184C27.6403 24.6282 28.9648 23.323 28.9648 20.8224V8.52547C28.9648 6.02492 27.6403 4.7293 25.1184 4.7293H21.9799C21.0605 4.7293 20.7623 4.56289 20.1991 3.97063L19.2722 2.96656C18.663 2.32625 18.0485 2 16.8562 2H12.0412C10.849 2 10.2345 2.32625 9.62531 2.96656L8.69625 3.97063C8.13305 4.55328 7.82742 4.7293 6.91547 4.7293H3.84421C1.31484 4.7293 0 6.02492 0 8.52547V20.8224C0 23.323 1.31484 24.6282 3.84421 24.6282Z" fill="black"/>
<path d="M6.44977 14.0898L8.3332 11.4805C8.68781 10.9991 9.26484 11.0258 9.59062 11.4805L11.505 14.0898C11.8413 14.5475 11.685 15.1116 11.0962 15.1116H9.97125C10.5007 17.0605 12.3119 18.5063 14.5027 18.5063C15.5445 18.5063 16.3439 18.1789 17.1455 17.5637C17.6838 17.1901 18.2491 17.2041 18.6487 17.6811C19.0538 18.1421 18.9195 18.7927 18.3148 19.2432C17.3311 20.0342 15.9422 20.5065 14.5027 20.5065C11.205 20.5065 8.58938 18.2998 8.01094 15.1116H6.85313C6.26438 15.1116 6.12305 14.5496 6.44977 14.0898ZM10.3373 10.2933C9.93235 9.83234 10.0666 9.19132 10.6713 8.74086C11.655 7.94773 13.0439 7.46796 14.4834 7.46796C17.7811 7.46796 20.3967 9.6746 20.9752 12.8628H22.0732C22.662 12.8628 22.8033 13.4248 22.4766 13.8847L20.5931 16.5036C20.2406 16.985 19.6636 16.9583 19.3261 16.5036L17.4213 13.8847C17.085 13.4366 17.2413 12.8628 17.8226 12.8628H19.0149C18.4833 10.9236 16.6741 9.47772 14.4834 9.47772C13.4416 9.47772 12.6326 9.78593 11.8406 10.4108C11.3023 10.7919 10.7466 10.7703 10.3373 10.2933Z" fill="white"/>
</svg>
