<svg width="28" height="28" viewBox="0 0 28 28" fill="none" xmlns="http://www.w3.org/2000/svg">
<path d="M14.105 26.21C20.7369 26.21 26.2121 20.7273 26.2121 14.105C26.2121 7.47312 20.7273 2 14.0954 2C7.47523 2 2 7.47312 2 14.105C2 20.7273 7.48484 26.21 14.105 26.21ZM14.105 23.8255C8.71085 23.8255 4.39412 19.4991 4.39412 14.105C4.39412 8.71085 8.70124 4.38452 14.0954 4.38452C19.4895 4.38452 23.8276 8.71085 23.8276 14.105C23.8276 19.4991 19.4991 23.8255 14.105 23.8255Z" fill="black"/>
<path d="M12.7085 13.7723C12.7085 14.29 12.9951 14.7279 13.4128 14.9611V20.7658C13.4128 21.2055 13.695 21.5154 14.0953 21.5154C14.5052 21.5154 14.7874 21.2172 14.7874 20.7658V14.9611C15.1975 14.7279 15.4842 14.2804 15.4842 13.7723C15.4842 12.9958 14.8739 12.3813 14.0953 12.3813C13.3284 12.3813 12.7085 12.9958 12.7085 13.7723Z" fill="black"/>
<path d="M9.625 13.7725C9.625 14.774 9.96391 15.7298 10.5597 16.4526C10.8566 16.8306 11.3976 16.8499 11.6852 16.5028C11.9355 16.2185 11.8898 15.8521 11.5989 15.441C11.2523 14.9985 11.0657 14.4166 11.0657 13.7725C11.0657 13.151 11.2661 12.5467 11.6191 12.0775C11.8982 11.6865 11.9195 11.3244 11.6852 11.0423C11.388 10.693 10.8566 10.7123 10.5597 11.0903C9.9618 11.8173 9.625 12.771 9.625 13.7725ZM17.1253 13.7725C17.1253 14.4229 16.9324 15.0196 16.5836 15.4558C16.2864 15.8563 16.2618 16.2227 16.5079 16.5028C16.7955 16.8499 17.3343 16.8306 17.6334 16.4526C18.227 15.7298 18.5681 14.774 18.5681 13.7725C18.5681 12.771 18.2292 11.8173 17.6334 11.0903C17.3343 10.7123 16.8051 10.693 16.5079 11.0423C16.2714 11.3244 16.3045 11.6865 16.5836 12.0775C16.9249 12.5467 17.1253 13.151 17.1253 13.7725Z" fill="black"/>
<path d="M6.82471 13.7723C6.82471 15.5325 7.43643 17.1586 8.57362 18.3769C8.89612 18.7282 9.38807 18.7516 9.67658 18.4099C9.93862 18.116 9.90135 17.7187 9.59783 17.3449C8.7344 16.4154 8.26752 15.1556 8.26752 13.7723C8.26752 12.3933 8.7344 11.1388 9.59783 10.1976C9.90135 9.84182 9.93862 9.42862 9.68619 9.13893C9.38807 8.79721 8.89612 8.80682 8.57362 9.16776C7.45237 10.3839 6.82471 12.0269 6.82471 13.7723ZM19.9352 13.7723C19.9352 15.1556 19.4683 16.4154 18.6049 17.3449C18.2896 17.7187 18.2545 18.116 18.5165 18.4099C18.8029 18.7516 19.2949 18.7282 19.6195 18.3769C20.7545 17.1586 21.378 15.5325 21.378 13.7723C21.378 12.0269 20.7407 10.3839 19.6195 9.16776C19.2949 8.80682 18.8029 8.79721 18.5069 9.13893C18.2545 9.42862 18.2896 9.84182 18.6049 10.1976C19.4683 11.1388 19.9352 12.3933 19.9352 13.7723Z" fill="black"/>
</svg>
