<svg width="28" height="28" viewBox="0 0 28 28" fill="none" xmlns="http://www.w3.org/2000/svg">
<path d="M14.105 26.2301C20.7369 26.2301 26.2121 20.7549 26.2121 14.123C26.2121 7.50291 20.7273 2.01807 14.0954 2.01807C7.47523 2.01807 2 7.50291 2 14.123C2 20.7549 7.48484 26.2301 14.105 26.2301Z" fill="black"/>
<path d="M7.62622 14.1113C7.62622 9.9519 10.2322 7.15088 14.1189 7.15088C18.0152 7.15088 20.6329 9.96362 20.6329 14.1113C20.6329 16.3433 20.0981 18.0343 19.1669 19.674C18.9262 20.0734 18.4832 20.2236 18.0625 20.0565C17.7344 20.4038 17.2539 20.5189 16.7053 20.3569C15.8988 20.146 15.5313 19.4663 15.7518 18.6694L16.616 15.6999C16.8524 14.8892 17.5438 14.5025 18.3269 14.7348C18.5571 14.803 18.7521 14.9063 18.9044 15.031C18.9257 14.739 18.9396 14.4289 18.9396 14.1113C18.9396 10.9562 17.013 8.84635 14.1189 8.84635C11.2344 8.84635 9.32169 10.9424 9.32169 14.1113C9.32169 14.4289 9.32169 14.7252 9.35685 15.0097C9.50497 14.8946 9.69036 14.803 9.89919 14.7348C10.7057 14.5025 11.3971 14.8892 11.6315 15.6999L12.4839 18.6577C12.7183 19.4546 12.3391 20.146 11.5304 20.3569C10.9956 20.5327 10.5055 20.4038 10.1732 20.0565C9.75247 20.2236 9.31372 20.0712 9.08263 19.674C8.16318 18.0854 7.62622 16.3826 7.62622 14.1113Z" fill="white"/>
</svg>
