<svg width="28" height="28" viewBox="0 0 28 28" fill="none" xmlns="http://www.w3.org/2000/svg">
<path d="M23.5554 25.0098V3.72178C23.5554 2.07273 22.4752 1 20.7856 1H7.77194C6.08984 1 5 2.07273 5 3.72178V25.0098C5 25.6394 5.51468 26.1541 6.14421 26.1541C6.78124 26.1541 7.29592 25.6394 7.29592 25.0098V3.93389C7.29592 3.54623 7.54623 3.29592 7.91256 3.29592H20.6429C21.0092 3.29592 21.2595 3.54623 21.2595 3.93389V25.0098C21.2595 25.6394 21.7742 26.1541 22.4133 26.1541C23.0429 26.1541 23.5554 25.6394 23.5554 25.0098Z" fill="black"/>
<path d="M19.8674 25.3637V4.9658C19.8674 4.70611 19.6631 4.57838 19.4045 4.68479L15.7574 6.28323C15.4699 6.40041 15.3484 6.52065 15.3484 6.81151V23.5084C15.3484 23.8068 15.4699 23.9174 15.767 24.0463L19.4045 25.633C19.6631 25.7416 19.8674 25.6138 19.8674 25.3637Z" fill="black"/>
</svg>
