<svg width="28" height="28" viewBox="0 0 28 28" fill="none" xmlns="http://www.w3.org/2000/svg">
<path d="M14.105 26.21C20.7369 26.21 26.2121 20.7273 26.2121 14.105C26.2121 7.47312 20.7273 2 14.0954 2C7.47523 2 2 7.47312 2 14.105C2 20.7273 7.48484 26.21 14.105 26.21ZM14.105 23.8255C8.71085 23.8255 4.39412 19.4991 4.39412 14.105C4.39412 8.71085 8.70124 4.38452 14.0954 4.38452C19.4895 4.38452 23.8276 8.71085 23.8276 14.105C23.8276 19.4991 19.4991 23.8255 14.105 23.8255Z" fill="black"/>
<path d="M7.93336 13.9461C8.4682 13.2399 9.08929 12.6158 9.79875 12.0704C9.78914 11.5723 9.49945 10.7907 9.00234 10.647C8.35453 11.5866 7.93148 12.8998 7.93336 13.9461ZM10.5356 11.5454C10.7041 11.4387 10.8748 11.3342 11.0592 11.2372C10.9378 10.2237 10.9645 9.37248 11.1473 8.69467C10.5253 9.04201 9.95765 9.49365 9.48258 10.0273C10.0512 10.2118 10.4004 10.9479 10.5356 11.5454ZM11.7898 10.8729C12.0616 10.7429 12.3485 10.6362 12.63 10.5296C12.6183 10.4241 12.6183 10.3015 12.6183 10.1726C12.6183 9.25857 13.0741 8.45021 13.8597 7.94092C13.3875 7.95053 12.5831 8.0935 11.9958 8.31217C11.812 8.87818 11.6789 9.70295 11.7898 10.8729ZM13.435 10.3081C14.1768 10.1098 14.9571 10.0224 15.7533 10.0224C16.9507 10.0224 18.1502 10.246 19.1965 10.6646C18.3129 9.36474 16.9392 8.40381 15.3525 8.06209C14.0904 8.46498 13.3657 9.25482 13.435 10.3081ZM8.03953 15.2082C8.27789 16.5031 8.93835 17.6712 9.86531 18.5569C9.22757 16.9105 9.65203 14.8911 9.76805 13.1361C9.10523 13.7412 8.53078 14.4188 8.03953 15.2082ZM10.6017 12.4644C10.5944 15.1594 9.43054 18.0533 11.9189 19.7998C12.5754 20.1005 13.3247 20.2787 14.1049 20.2787C14.4159 20.2787 14.7248 20.267 15.0337 20.218C12.7671 17.4162 11.6121 14.4324 11.1827 12.087C10.9823 12.2021 10.7862 12.3343 10.6017 12.4644ZM11.8919 11.6993C12.2765 13.9681 13.4444 17.0926 15.892 20.0136C17.2106 19.6077 18.3469 18.773 19.1238 17.6623C18.8641 14.7134 13.9957 13.8181 12.8557 11.3091C12.5252 11.4061 12.2107 11.5458 11.8919 11.6993ZM13.65 11.0663C14.6608 12.9711 18.7172 13.88 19.7191 16.6463C20.074 15.8663 20.2786 15.0139 20.2786 14.105C20.2786 13.3074 20.1164 12.5429 19.8166 11.8402C18.5414 11.1586 17.2235 10.82 15.7533 10.82C15.0379 10.82 14.3322 10.9053 13.65 11.0663Z" fill="black"/>
</svg>
