<svg width="30" height="28" viewBox="0 0 30 28" fill="none" xmlns="http://www.w3.org/2000/svg">
<path d="M9.76827 26.3138H25.7613C28.2832 26.3138 29.6076 25.0107 29.6076 22.508V11.3771C29.6076 8.87655 28.2832 7.57132 25.7613 7.57132H9.76827C7.22718 7.57132 5.92195 8.87655 5.92195 11.3771V22.508C5.92195 25.0203 7.22718 26.3138 9.76827 26.3138ZM9.76827 5.86789H23.5737V5.70242C23.5336 3.26515 22.2197 2 19.7337 2H3.84421C1.30523 2 0 3.30523 0 5.80577V16.9388C0 19.4321 1.28203 20.7214 3.79148 20.7404H4.20891V11.3771C4.20891 7.92687 6.2871 5.86789 9.76827 5.86789Z" fill="black"/>
<path d="M13.4086 21.6938V16.9545C13.4086 16.1138 13.7475 15.6856 14.4253 15.6155V14.2524C14.4253 12.0111 15.7856 10.5005 17.7658 10.5005C19.7578 10.5005 21.1085 12.0111 21.1085 14.2524V15.6176C21.7938 15.6856 22.1348 16.1138 22.1348 16.9545V21.6938C22.1348 22.6215 21.7237 23.0497 20.861 23.0497H14.6749C13.8197 23.0497 13.4086 22.6215 13.4086 21.6938ZM15.8576 15.5912H19.6741V14.1244C19.6741 12.7782 18.9183 11.888 17.7637 11.888C16.6209 11.888 15.8576 12.7824 15.8576 14.1244V15.5912Z" fill="white"/>
</svg>
