<svg width="28" height="28" viewBox="0 0 28 28" fill="none" xmlns="http://www.w3.org/2000/svg">
<path d="M3.14421 9.83303C3.89608 9.83303 4.29592 9.41186 4.29592 8.66749V6.01999C4.29592 4.88139 4.88772 4.31936 5.97733 4.31936H8.6846C9.44069 4.31936 9.85014 3.9078 9.85014 3.16554C9.85014 2.42328 9.44069 2.02344 8.6846 2.02344H5.84421C3.31484 2.02344 2 3.31695 2 5.8196V8.66749C2 9.41397 2.41156 9.83303 3.14421 9.83303ZM24.0657 9.83303C24.8176 9.83303 25.2174 9.41397 25.2174 8.66749V5.8196C25.2174 3.31695 23.9047 2.02344 21.3732 2.02344H18.5232C17.7788 2.02344 17.3673 2.42328 17.3673 3.16554C17.3673 3.9078 17.7809 4.31936 18.5232 4.31936H21.2305C22.3105 4.31936 22.9215 4.88139 22.9215 6.01999V8.66749C22.9215 9.41397 23.333 9.83303 24.0657 9.83303ZM5.84421 25.2312H8.6846C9.44069 25.2312 9.85014 24.8197 9.85014 24.087C9.85014 23.3448 9.43647 22.9353 8.6846 22.9353H5.97733C4.88772 22.9353 4.29592 22.3733 4.29592 21.2326V18.5851C4.29592 17.8311 3.88647 17.4195 3.14421 17.4195C2.39984 17.4195 2 17.8311 2 18.5851V21.4255C2 23.9356 3.31484 25.2312 5.84421 25.2312ZM18.5232 25.2312H21.3732C23.9047 25.2312 25.2174 23.926 25.2174 21.4255V18.5851C25.2174 17.8311 24.808 17.4195 24.0657 17.4195C23.3234 17.4195 22.9215 17.8332 22.9215 18.5851V21.2326C22.9215 22.3733 22.3105 22.9353 21.2305 22.9353H18.5232C17.7788 22.9353 17.3673 23.3448 17.3673 24.087C17.3673 24.8197 17.7788 25.2312 18.5232 25.2312Z" fill="black"/>
<path d="M8.50973 18.8698H18.7236C19.9667 18.8698 20.6206 18.2309 20.6206 17.0016V10.9281C20.6206 9.67745 19.9667 9.03854 18.7236 9.03854H17.3119C16.8634 9.03854 16.7185 8.96917 16.4405 8.66659L15.9748 8.17299C15.6755 7.85541 15.373 7.7019 14.7922 7.7019H12.4123C11.8219 7.7019 11.5172 7.85119 11.2179 8.17299L10.7543 8.66659C10.4743 8.95745 10.3294 9.03854 9.88505 9.03854H8.50973C7.25911 9.03854 6.6106 9.67745 6.6106 10.9281V17.0016C6.6106 18.2309 7.25911 18.8698 8.50973 18.8698ZM13.629 17.3291C11.7289 17.3291 10.2029 15.8127 10.2029 13.9009C10.2029 12.0104 11.7289 10.494 13.629 10.494C15.5141 10.494 17.0262 12.0104 17.0262 13.9009C17.0262 15.8436 15.5141 17.3291 13.629 17.3291ZM13.6194 16.183C14.8702 16.183 15.8919 15.1805 15.8919 13.9009C15.8919 12.6404 14.8702 11.6284 13.6194 11.6284C12.3631 11.6284 11.3393 12.6404 11.3393 13.9009C11.3393 15.1805 12.3631 16.183 13.6194 16.183ZM18.2277 12.3516C17.7856 12.3516 17.432 11.998 17.432 11.5485C17.432 11.0968 17.7856 10.741 18.2277 10.741C18.6697 10.741 19.033 11.0968 19.033 11.5485C19.033 11.998 18.6697 12.3516 18.2277 12.3516Z" fill="black"/>
</svg>
