<svg width="28" height="28" viewBox="0 0 28 28" fill="none" xmlns="http://www.w3.org/2000/svg">
<path d="M3.8176 24.5445C6.28017 27.0444 9.69478 26.9781 12.5099 24.3685L14.5604 22.4532C13.4396 22.8158 12.3535 22.5111 11.1945 21.3617L6.93103 17.0886C5.76783 15.935 5.54424 14.9225 5.90892 13.7975L3.99361 15.8502C1.37869 18.6749 1.35291 22.0543 3.8176 24.5445ZM12.3763 20.101C13.5713 21.294 14.7249 21.3292 15.9413 20.101L20.0888 15.9439C21.3287 14.7137 21.3052 13.5814 20.1123 12.3885L15.9737 8.24986C14.7807 7.05689 13.6485 7.03135 12.4182 8.27119L8.26111 12.4187C7.04259 13.6468 7.06814 14.7908 8.26111 15.9838L12.3763 20.101ZM10.8667 14.9903C10.4108 14.5344 10.4108 13.8378 10.8667 13.3799C11.3204 12.924 12.0212 12.9357 12.477 13.3937C12.8977 13.8261 12.9116 14.5344 12.477 14.9689C11.9978 15.4482 11.3012 15.4248 10.8667 14.9903ZM13.3932 12.4796C12.9374 12.0238 12.9374 11.3113 13.3719 10.8692C13.8277 10.4134 14.5264 10.4134 14.9823 10.8692C15.4264 11.3113 15.4381 12.0121 14.9663 12.4796C14.536 12.8982 13.8139 12.9003 13.3932 12.4796ZM17.4929 14.9903C17.0488 15.4248 16.3384 15.4248 15.8825 14.9689C15.4597 14.5461 15.4597 13.824 15.8825 13.3937C16.3522 12.9261 17.0488 12.9357 17.4929 13.3799C17.9488 13.8357 17.9488 14.5344 17.4929 14.9903ZM13.3719 17.4955C12.9374 17.061 12.9118 16.3644 13.3932 15.8926C13.8277 15.4506 14.5381 15.4623 14.9663 15.8926C15.4222 16.3431 15.4381 17.061 14.9823 17.4955C14.5126 17.9513 13.8277 17.9513 13.3719 17.4955ZM22.4549 14.5918L24.3606 12.5199C26.9659 9.68564 27.0088 6.3158 24.5462 3.82557C22.0719 1.32573 18.669 1.40167 15.8422 4.00159L13.782 5.90729C14.8932 5.54471 16.0274 5.87822 17.1863 7.03932L21.4499 11.3007C22.6131 12.4543 22.8174 13.4689 22.4549 14.5918Z" fill="black"/>
</svg>
