<svg width="30" height="28" viewBox="0 0 30 28" fill="none" xmlns="http://www.w3.org/2000/svg">
<path d="M0 6.16348V10.254C0 10.9597 0.45867 11.4088 1.15265 11.4088H27.94C28.634 11.4088 29.0927 10.9597 29.0927 10.254V6.16348C29.0927 5.47161 28.634 5.01294 27.94 5.01294H1.15265C0.45867 5.01294 0 5.47161 0 6.16348ZM2.16514 7.46707C2.16514 7.30395 2.29311 7.17809 2.45413 7.17809H26.6386C26.7996 7.17809 26.9276 7.30395 26.9276 7.46707V8.95254C26.9276 9.11356 26.7996 9.24153 26.6386 9.24153H2.45413C2.29311 9.24153 2.16514 9.11356 2.16514 8.95254V7.46707ZM1.15265 23.8376H5.24319C5.94467 23.8376 6.39795 23.3907 6.39795 22.6925V9.88371H4.2382V21.4304C4.2382 21.5818 4.10273 21.7098 3.9396 21.7098H2.45413C2.29311 21.7098 2.16514 21.5818 2.16514 21.4304V9.75879H0V22.6925C0 23.3886 0.45867 23.8376 1.15265 23.8376ZM23.842 23.8376H27.94C28.634 23.8376 29.0927 23.3886 29.0927 22.6925V9.75879H26.9276V21.4304C26.9276 21.5818 26.7996 21.7098 26.6386 21.7098H25.1435C24.9825 21.7098 24.8545 21.5818 24.8545 21.4304V9.88371H22.6873V22.6925C22.6873 23.3907 23.148 23.8376 23.842 23.8376Z" fill="black"/>
</svg>
