<svg width="28" height="28" viewBox="0 0 28 28" fill="none" xmlns="http://www.w3.org/2000/svg">
<path d="M24.5716 3.76287C21.6477 0.841156 16.5691 1.22459 13.1828 4.59912C11.2218 6.56974 10.4153 9.03232 10.3792 11.4408C10.3155 15.0314 9.99039 17.0198 6.69578 20.2976L8.03687 21.629C11.305 18.3536 13.2838 18.0935 16.8744 17.9552C19.3096 17.8722 21.7455 17.1222 23.7257 15.142C27.1098 11.7558 27.4933 6.67709 24.5716 3.76287ZM23.17 5.15482C25.4554 7.44771 25.1922 10.8958 22.3337 13.7426C19.4561 16.6106 16.0101 16.8834 13.7343 14.6001C11.4414 12.3244 11.7046 8.86872 14.5823 6.00068C17.4386 3.14435 20.8963 2.87903 23.17 5.15482ZM12.3348 15.9996C12.6271 16.309 12.9728 16.5586 13.3323 16.789C12.3273 16.9692 11.38 17.3095 10.3633 17.9712C11.0249 16.9661 11.3652 16.0092 11.5359 15.0021C11.7545 15.3595 12.0255 15.6977 12.3348 15.9996ZM1.46055 26.1328L2.16438 26.8483C2.77844 27.4453 3.67445 27.4453 4.2789 26.8483L8.74445 22.3711C9.35851 21.757 9.35851 20.8631 8.74445 20.2586L8.04062 19.5431C7.43617 18.9386 6.53265 18.9386 5.9282 19.5431L1.46055 24.03C0.846485 24.6248 0.846485 25.5187 1.46055 26.1328ZM11.4494 11.3339L12.0437 11.9261L20.5098 3.46216L19.9155 2.85607L11.4494 11.3339ZM12.0655 14.0018L12.6503 14.5983L23.1702 4.08794L22.5951 3.48396L12.0655 14.0018ZM13.7266 15.6745L14.3326 16.2689L24.8505 5.74896L24.2561 5.14498L13.7266 15.6745ZM16.4083 16.2928L16.9909 16.8947L25.4687 8.41896L24.8648 7.82459L16.4083 16.2928ZM18.8859 3.18841L25.0598 9.3527L25.652 8.76044L19.4802 2.59615L18.8859 3.18841ZM16.2902 3.72021L24.595 12.0443L25.2086 11.4382L16.8866 3.12583L16.2902 3.72021ZM14.6362 5.16279L23.1428 13.6886L23.7564 13.0826L15.2326 4.5588L14.6362 5.16279ZM13.15 6.64896L21.6566 15.1748L22.2606 14.5687L13.7465 6.04498L13.15 6.64896ZM11.7074 8.30295L20.0219 16.627L20.6162 16.0305L12.2943 7.71818L11.7074 8.30295ZM11.1585 10.8794L17.3612 17.0897L17.9652 16.4857L11.755 10.283L11.1585 10.8794Z" fill="black"/>
</svg>
