<svg width="28" height="28" viewBox="0 0 28 28" fill="none" xmlns="http://www.w3.org/2000/svg">
<path d="M11.6709 3.72538H13.941V1.1489C13.941 0.5107 13.4336 0 12.8059 0C12.1741 0 11.6709 0.508591 11.6709 1.1489V3.72538ZM2.10343 15.1601C2.53937 15.1601 2.90757 14.9121 3.28772 14.4473C3.99577 13.4072 4.75069 12.9677 5.76062 12.9677C6.74922 12.9677 7.43898 13.4219 8.12078 14.5158C8.40906 14.962 8.69312 15.1601 9.06765 15.1601C9.45718 15.1601 9.74546 14.9599 10.0199 14.5179C10.6506 13.5199 11.759 12.908 12.8059 12.908C13.8508 12.908 14.9591 13.5199 15.5898 14.5179C15.8664 14.9599 16.1526 15.1601 16.5442 15.1601C16.9166 15.1601 17.2007 14.962 17.4986 14.5158C18.1729 13.4219 18.8626 12.9677 19.8512 12.9677C20.8591 12.9677 21.614 13.4072 22.3316 14.4473C22.7118 14.9121 23.0725 15.1601 23.5063 15.1601C24.1555 15.1601 24.6098 14.6248 24.6098 13.9287C24.6098 9.28265 20.8996 2.66461 12.8059 2.66461C4.71015 2.66461 1 9.28265 1 13.9287C1 14.6248 1.45422 15.1601 2.10343 15.1601ZM10.0616 27.3785C12.2638 27.3785 13.941 25.8047 13.941 23.558V12.337H11.6709V23.5305C11.6709 24.4573 10.9959 25.1323 10.0553 25.1323C9.11687 25.1323 8.4653 24.453 8.4653 23.52C8.4653 22.7707 7.97804 22.2483 7.30023 22.2483C6.61726 22.2483 6.16422 22.7728 6.16422 23.5305C6.16422 25.7182 7.85195 27.3785 10.0616 27.3785Z" fill="black"/>
<path d="M18.3012 22.6732C19.5994 22.6732 20.4333 21.6473 20.4333 20.0526C20.4333 18.4559 19.6015 17.4459 18.3012 17.4459C17.003 17.4459 16.1733 18.4559 16.1733 20.0526C16.1733 21.6452 17.0072 22.6732 18.3012 22.6732ZM18.3012 21.1887C17.9867 21.1887 17.8043 20.7762 17.8043 20.0526C17.8043 19.3408 17.9963 18.9283 18.3012 18.9283C18.5965 18.9283 18.8002 19.3324 18.8002 20.0526C18.8002 20.7846 18.6061 21.1887 18.3012 21.1887ZM18.1304 27.1894C18.5051 27.4172 19.0205 27.3033 19.2729 26.9348L24.8257 18.679C25.1175 18.2498 25.0057 17.711 24.5904 17.4799C24.2199 17.268 23.7535 17.3916 23.4851 17.7792L17.9014 26.0116C17.5979 26.4525 17.6979 26.9541 18.1304 27.1894ZM24.4409 27.251C25.7349 27.251 26.5688 26.2134 26.5688 24.6187C26.5688 23.0241 25.737 22.0099 24.4409 22.0099C23.1406 22.0099 22.3088 23.0219 22.3088 24.6187C22.3088 26.2134 23.1448 27.251 24.4409 27.251ZM24.4409 25.7569C24.1243 25.7569 23.9419 25.3603 23.9419 24.6187C23.9419 23.8985 24.136 23.4923 24.4409 23.4923C24.7383 23.4923 24.9378 23.9069 24.9378 24.6187C24.9378 25.3519 24.7575 25.7569 24.4409 25.7569Z" fill="black"/>
</svg>
