<svg width="28" height="28" viewBox="0 0 28 28" fill="none" xmlns="http://www.w3.org/2000/svg">
<path d="M14.105 26.2301C20.7369 26.2301 26.2121 20.7549 26.2121 14.123C26.2121 7.50291 20.7273 2.01807 14.0954 2.01807C7.47523 2.01807 2 7.50291 2 14.123C2 20.7549 7.48484 26.2301 14.105 26.2301Z" fill="black"/>
<path d="M7.34753 17.5405V13.2814C9.15433 13.9419 10.7924 14.2456 12.4698 14.367V14.836C12.4698 15.2823 12.7264 15.5443 13.1694 15.5443H15.0619C15.5049 15.5443 15.7616 15.2823 15.7616 14.836V14.367C17.439 14.2456 19.077 13.9419 20.8934 13.2814V17.5405C20.8934 18.8157 20.2384 19.4537 18.9727 19.4537H9.25862C7.993 19.4537 7.34753 18.8157 7.34753 17.5405ZM7.34753 12.121V11.6933C7.34753 10.4298 7.993 9.78972 9.25862 9.78972H10.4612V9.1677C10.4612 8.20465 11.0919 7.62292 12.1058 7.62292H16.1255C17.1394 7.62292 17.7702 8.20465 17.7702 9.1677V9.78972H18.9727C20.2384 9.78972 20.8934 10.4298 20.8934 11.6933V12.121C18.6884 13.0236 16.4727 13.3749 14.1146 13.3749C11.7587 13.3749 9.54292 13.0236 7.34753 12.121ZM11.7057 9.78972H16.5256V9.22417C16.5256 8.94151 16.3337 8.77934 16.0393 8.77934H12.192C11.8881 8.77934 11.7057 8.94151 11.7057 9.22417V9.78972Z" fill="white"/>
</svg>
