<svg width="28" height="28" viewBox="0 0 28 28" fill="none" xmlns="http://www.w3.org/2000/svg">
<path d="M14.105 26.21C20.7369 26.21 26.2121 20.7273 26.2121 14.105C26.2121 7.47312 20.7273 2 14.0954 2C7.47523 2 2 7.47312 2 14.105C2 20.7273 7.48484 26.21 14.105 26.21ZM14.105 23.8255C8.71085 23.8255 4.39412 19.4991 4.39412 14.105C4.39412 8.71085 8.70124 4.38452 14.0954 4.38452C19.4895 4.38452 23.8276 8.71085 23.8276 14.105C23.8276 19.4991 19.4991 23.8255 14.105 23.8255Z" fill="black"/>
<path d="M11.4025 9.26116L19.9872 17.8459C20.0948 17.7256 20.1651 17.5564 20.1651 17.3563C20.1651 16.6948 19.5606 16.127 18.9843 15.5684C18.5306 15.1304 18.4506 14.2194 18.3785 13.4094C18.2936 11.0567 17.6013 9.41116 15.962 8.80787C15.6958 7.98639 15.0161 7.34045 14.0859 7.34045C13.1631 7.34045 12.4835 7.98639 12.2172 8.80787C11.8972 8.91662 11.6296 9.07131 11.4025 9.26116ZM16.042 18.2216L9.90013 12.0819C9.82654 12.533 9.78388 13.013 9.77966 13.5507C9.72013 14.2869 9.61044 15.1452 9.1949 15.5684C8.62818 16.1387 8.00451 16.6948 8.00451 17.3659C8.00451 17.8714 8.39521 18.2216 9.02661 18.2216H16.042ZM14.0859 20.9455C15.2001 20.9455 16.0192 20.1603 16.097 19.209H12.0822C12.16 20.1603 12.9695 20.9455 14.0859 20.9455ZM19.3872 20.2323C19.6096 20.4505 19.9907 20.4547 20.2131 20.2323C20.4431 19.9927 20.4431 19.6384 20.2131 19.4084L8.79411 7.97982C8.56419 7.7499 8.18848 7.7499 7.95645 7.97982C7.72653 8.20013 7.73614 8.58333 7.95645 8.80576L19.3872 20.2323Z" fill="black"/>
</svg>
