<svg width="28" height="28" viewBox="0 0 28 28" fill="none" xmlns="http://www.w3.org/2000/svg">
<path d="M14.105 26.2301C20.7369 26.2301 26.2121 20.7549 26.2121 14.123C26.2121 7.50291 20.7273 2.01807 14.0954 2.01807C7.47523 2.01807 2 7.50291 2 14.123C2 20.7549 7.48484 26.2301 14.105 26.2301Z" fill="black"/>
<path d="M10.5559 20.094C9.21483 20.094 8.51733 19.4136 8.51733 18.1034V11.6963C8.51733 10.3765 9.21483 9.70998 10.5559 9.70998H11.4402C11.4637 8.32131 12.6374 7.17944 14.1051 7.17944C15.5727 7.17944 16.7486 8.32131 16.7699 9.70998H17.6542C18.9953 9.70998 19.6949 10.3862 19.6949 11.6963V18.1034C19.6949 19.4136 19.007 20.094 17.8218 20.094H10.5559ZM12.745 9.70998H15.4652C15.4363 8.91498 14.9226 8.39607 14.1051 8.39607C13.2897 8.39607 12.776 8.91498 12.745 9.70998Z" fill="white"/>
</svg>
