<svg width="28" height="28" viewBox="0 0 28 28" fill="none" xmlns="http://www.w3.org/2000/svg">
<path d="M5.39726 24.908H21.6919C23.7966 24.908 25.085 23.379 25.085 21.6165C25.085 21.0083 24.9284 20.3691 24.6195 19.7555L24.2647 19.0789H2.82242L2.46547 19.7673C2.15656 20.3574 2 21.0083 2 21.6165C2 23.379 3.29047 24.908 5.39726 24.908ZM3.69218 17.3755L9.56422 17.3776L5.67969 13.493L3.69218 17.3755ZM11.4242 17.3776H14.3227L4.23593 7.26758C3.80585 6.845 3.23749 6.83118 2.78937 7.26336C2.33164 7.7157 2.35718 8.30328 2.78937 8.73758L11.4242 17.3776ZM16.2858 17.3776H23.397L16.4391 3.78828C15.8726 2.67547 14.6862 2 13.5446 2C12.4105 2 11.2102 2.67547 10.6459 3.78828L7.95663 9.05798L12.6109 13.7026V8.09443C12.6109 7.48319 12.9814 7.08709 13.583 7.08709C14.1964 7.08709 14.5669 7.48319 14.5669 8.09443V15.6491L16.2858 17.3776Z" fill="black"/>
</svg>
