<svg width="28" height="28" viewBox="0 0 28 28" fill="none" xmlns="http://www.w3.org/2000/svg">
<path d="M14.105 26.2301C20.7369 26.2301 26.2121 20.7549 26.2121 14.123C26.2121 7.50288 20.7273 2.01804 14.0954 2.01804C7.47523 2.01804 2 7.50288 2 14.123C2 20.7549 7.48484 26.2301 14.105 26.2301Z" fill="black"/>
<path d="M6.49316 11.9654C6.49316 11.6537 6.69425 11.3237 7.07862 11.1491L12.5626 8.64735C13.1548 8.38532 13.6224 8.2522 14.0954 8.26181C14.5684 8.2522 15.0476 8.38532 15.6303 8.64735L21.1217 11.1491C21.5082 11.3237 21.6997 11.6537 21.6997 11.9654C21.6997 12.2963 21.5082 12.605 21.1217 12.7796L15.6303 15.3027C15.0498 15.5647 14.5684 15.6861 14.0954 15.6744C13.6224 15.6861 13.1527 15.5647 12.5626 15.3027L10.1668 14.1969L13.5481 12.6212C13.7185 12.6723 13.9166 12.6999 14.1146 12.6999C14.7631 12.6999 15.3894 12.3997 15.3894 11.9654C15.3894 11.5386 14.7631 11.2618 14.1146 11.2618C13.4799 11.2618 12.8323 11.5386 12.8323 11.9654C12.8323 12.0059 12.8419 12.0561 12.8612 12.0891L9.248 13.7626L7.07862 12.7796C6.69425 12.6071 6.49316 12.2963 6.49316 11.9654ZM8.57207 16.1434V14.3851L9.26722 14.7092V17.6865C8.82261 17.192 8.57207 16.6292 8.57207 16.1434ZM8.82238 20.7078V19.5334C8.82238 19.1778 8.99371 18.9202 9.26722 18.8127V17.6865C9.51004 17.9483 9.79738 18.1866 10.1454 18.3814V18.8223C10.4114 18.9298 10.5945 19.1874 10.5945 19.5334V20.7078C10.5945 21.1848 10.2783 21.4871 9.80769 21.4871H9.59746C9.11301 21.4871 8.82238 21.1848 8.82238 20.7078ZM10.1454 18.3814V15.1084L12.2197 16.0672C12.9003 16.3782 13.5223 16.5305 14.0954 16.5167C14.6684 16.5305 15.2947 16.3761 15.9732 16.0672L19.6187 14.3851V16.1434C19.6187 17.8773 17.4048 19.2964 14.0954 19.2964C12.4749 19.2964 11.104 18.962 10.1454 18.3814Z" fill="white"/>
</svg>
