<svg width="30" height="28" viewBox="0 0 30 28" fill="none" xmlns="http://www.w3.org/2000/svg">
<path d="M1.14421 26.1541C1.78124 26.1541 2.29592 25.6394 2.29592 25.0098V3.93389C2.29592 3.54623 2.54623 3.29592 2.91256 3.29592H26.3641C26.7305 3.29592 26.9808 3.54623 26.9808 3.93389V25.0098C26.9808 25.6394 27.4955 26.1541 28.1229 26.1541C28.762 26.1541 29.2767 25.6394 29.2767 25.0098V3.72178C29.2767 2.07273 28.1869 1 26.4973 1H2.77194C1.08984 1 0 2.07273 0 3.72178V25.0098C0 25.6394 0.514684 26.1541 1.14421 26.1541Z" fill="black"/>
<path d="M4.07175 9.8594H25.2049C25.417 9.8594 25.5865 9.68995 25.5865 9.48745V5.06433C25.5865 4.85011 25.417 4.68066 25.2049 4.68066H4.07175C3.85964 4.68066 3.69019 4.85011 3.69019 5.06433V9.48745C3.69019 9.68995 3.85964 9.8594 4.07175 9.8594ZM12.3157 7.89323C11.9505 7.89323 11.6984 7.62932 11.6984 7.27378C11.6984 6.90862 11.9505 6.64683 12.3157 6.64683H16.961C17.3262 6.64683 17.5783 6.90862 17.5783 7.27378C17.5783 7.62932 17.3262 7.89323 16.961 7.89323H12.3157Z" fill="black"/>
</svg>
