<svg width="28" height="28" viewBox="0 0 28 28" fill="none" xmlns="http://www.w3.org/2000/svg">
<path d="M1.35398 7.47405H26.4475C27.2491 7.47405 27.8015 6.92163 27.8015 6.11046V3.34226C27.8015 2.5482 27.2491 2 26.4475 2H1.35398C0.55242 2 0 2.5482 0 3.34226V6.11046C0 6.92163 0.55242 7.47405 1.35398 7.47405ZM2.79023 25.1309H25.0092V8.90725H2.79023V25.1309ZM6.93702 24.1885V12.7742C6.93702 11.7568 7.57405 11.1315 8.57975 11.1315H19.2176C20.2233 11.1315 20.8624 11.7568 20.8624 12.7742V24.1885H19.2171V13.3395C19.2171 12.9793 19.0008 12.7608 18.648 12.7608H9.14928C8.79865 12.7608 8.58021 12.9793 8.58021 13.3395V24.1885H6.93702ZM13.7676 23.0797C11.962 23.0797 10.754 22.0358 10.754 20.4411C10.754 19.0573 11.4007 18.545 11.4007 17.584C11.4007 17.4413 11.3911 17.2442 11.3911 17.1504C11.3911 17.0035 11.489 16.9076 11.6381 16.9076C11.9822 16.9076 12.3977 17.2006 12.615 17.6246C12.6396 16.6861 12.2093 16.0266 11.7351 15.414C11.4572 15.0497 11.6787 14.7387 12.209 14.7387C14.2427 14.7387 17.1743 16.1769 17.1743 19.6379C17.1743 21.7055 15.8278 23.0797 13.7676 23.0797ZM13.8869 21.9952C14.8019 21.9952 15.2397 21.3284 15.2397 20.5604C15.2397 19.5762 14.5294 18.7805 13.9104 18.5525C14.0318 19.2608 13.8965 19.7923 13.6835 20.1087C13.5759 19.8446 13.4491 19.6454 13.2457 19.5026C13.1658 19.9894 12.6769 20.228 12.6769 20.9044C12.6769 21.5691 13.1658 21.9952 13.8869 21.9952ZM1.15734 26.4865H26.6421C27.2716 26.4865 27.7938 25.9622 27.7938 25.3327C27.7938 24.7032 27.2716 24.1885 26.6421 24.1885H1.15734C0.52781 24.1885 0.00351691 24.7032 0.00351691 25.3327C0.00351691 25.9622 0.52781 26.4865 1.15734 26.4865Z" fill="black"/>
</svg>
