<svg width="28" height="28" viewBox="0 0 28 28" fill="none" xmlns="http://www.w3.org/2000/svg">
<path d="M22.4133 26.1541C23.0429 26.1541 23.5554 25.6394 23.5554 25.0098V3.72178C23.5554 2.07273 22.4752 1 20.7856 1H7.77194C6.08984 1 5 2.07273 5 3.72178V25.0098C5 25.6394 5.51468 26.1541 6.14421 26.1541C6.78124 26.1541 7.29592 25.6394 7.29592 25.0098V3.93389C7.29592 3.54623 7.54623 3.29592 7.91256 3.29592H20.6429C21.0092 3.29592 21.2595 3.54623 21.2595 3.93389V25.0098C21.2595 25.6394 21.7742 26.1541 22.4133 26.1541Z" fill="black"/>
<path d="M19.4933 25.6554C19.6979 25.6554 19.8673 25.4763 19.8673 25.2717V5.06433C19.8673 4.85011 19.6979 4.68066 19.4933 4.68066H9.07175C8.85964 4.68066 8.69019 4.85011 8.69019 5.06433V25.2717C8.69019 25.4763 8.85964 25.6554 9.07175 25.6554H19.4933ZM11.4961 16.1977C10.9763 16.1977 10.5544 15.7716 10.5544 15.256C10.5544 14.7286 10.9763 14.3142 11.4961 14.3142C12.0139 14.3142 12.4357 14.7286 12.4357 15.256C12.4357 15.7716 12.0139 16.1977 11.4961 16.1977Z" fill="black"/>
</svg>
