<svg width="28" height="28" viewBox="0 0 28 28" fill="none" xmlns="http://www.w3.org/2000/svg">
<path d="M14.105 26.21C20.7369 26.21 26.2121 20.7273 26.2121 14.105C26.2121 7.47312 20.7273 2 14.0954 2C7.47523 2 2 7.47312 2 14.105C2 20.7273 7.48484 26.21 14.105 26.21Z" fill="black"/>
<path d="M14.2724 11.1144C14.1808 10.359 14.4897 9.62913 15.161 8.95999L18.7673 12.5759C18.1237 13.2376 17.3725 13.5561 16.6129 13.4783L14.8696 15.083V19.572C14.8696 19.9768 14.5565 20.292 14.1613 20.292C13.7406 20.292 13.4371 19.981 13.4371 19.572V16.4314L10.5098 19.1328C10.2168 19.4044 9.82797 19.4321 9.53289 19.2041L8.59727 19.9074C8.41305 20.0427 8.21711 20.0192 8.04461 19.8723L7.85922 19.6986C7.68672 19.5474 7.68039 19.3142 7.81985 19.13L8.52321 18.2178C8.28555 17.911 8.3036 17.5201 8.59446 17.2079L14.2724 11.1144ZM9.56031 17.8215L9.93133 18.1862L15.3796 12.9905C15.2667 12.8989 15.1483 12.7998 15.0438 12.6952C14.9137 12.5651 14.8263 12.4606 14.7538 12.3284L9.56031 17.8215ZM19.4503 8.27913C20.5551 9.36476 20.5103 10.8476 19.3598 11.9738L15.7556 8.36538C16.8817 7.23077 18.3508 7.18179 19.4503 8.27913Z" fill="white"/>
</svg>
