<svg width="30" height="28" viewBox="0 0 30 28" fill="none" xmlns="http://www.w3.org/2000/svg">
<path d="M0 19.8503C0 20.4358 0.248905 20.8452 0.768278 21.089C2.09226 21.7293 2.83148 22.4823 3.60632 24.0487C3.86507 24.535 4.28531 24.7935 4.82905 24.7935H24.6555C25.1897 24.7935 25.6099 24.535 25.8687 24.0487C26.6435 22.4823 27.3827 21.7293 28.7142 21.089C29.2357 20.8452 29.4846 20.4358 29.4846 19.8503V8.9528C29.4846 8.35773 29.2357 7.94828 28.7142 7.71414C27.3827 7.07172 26.6435 6.30906 25.8687 4.75445C25.6099 4.25851 25.1897 4 24.6555 4H4.82905C4.28531 4 3.86507 4.25851 3.60632 4.75445C2.83148 6.30906 2.09226 7.07172 0.768278 7.71414C0.248905 7.94828 0 8.35773 0 8.9528V19.8503ZM5.06741 19.7094V9.09155C5.06741 8.43343 5.51788 7.97874 6.176 7.97874H23.299C23.9646 7.97874 24.4076 8.43343 24.4076 9.09155V19.7094C24.4076 20.3793 23.9646 20.8223 23.299 20.8223H6.176C5.51788 20.8223 5.06741 20.3793 5.06741 19.7094ZM6.67381 11.7355H8.13233V9.56592H6.9042C6.74741 9.56592 6.67381 9.66085 6.67381 9.80803V11.7355ZM6.67381 15.4942H8.13233V13.3185H6.67381V15.4942ZM6.67592 18.9909C6.67592 19.1455 6.74952 19.2287 6.90631 19.2287H8.13022V17.0814H6.67592V18.9909ZM21.3501 11.7355H22.8108V9.80803C22.8108 9.66085 22.7372 9.56592 22.5804 9.56592H21.3501V11.7355ZM21.3501 15.4942H22.8108V13.3185H21.3501V15.4942ZM21.3501 19.2351H22.5804C22.7372 19.2351 22.8108 19.1498 22.8108 18.9951V17.0772H21.3501V19.2351ZM9.72913 19.2287H19.7534V9.57436H9.72913V19.2287Z" fill="black"/>
</svg>
