<svg width="28" height="28" viewBox="0 0 28 28" fill="none" xmlns="http://www.w3.org/2000/svg">
<path d="M6.84421 24.8972H21.0295C23.5685 24.8972 24.8737 23.5919 24.8737 21.0914V6.82921C24.8737 4.32656 23.5685 3.02344 21.0295 3.02344H6.84421C4.31484 3.02344 3 4.31695 3 6.82921V21.0914C3 23.6016 4.31484 24.8972 6.84421 24.8972Z" fill="black"/>
<path d="M8.64775 10.6186C7.55158 10.5973 6.66846 9.73546 6.66846 8.636C6.66846 7.55577 7.55158 6.68225 8.64775 6.68225C9.71627 6.68225 10.609 7.55788 10.609 8.636C10.609 9.73968 9.71416 10.6441 8.64775 10.6186ZM19.2516 10.6186C18.1575 10.5973 17.2648 9.73546 17.2648 8.636C17.2648 7.55577 18.1575 6.68225 19.2516 6.68225C20.3222 6.68225 21.2053 7.55577 21.2053 8.636C21.2053 9.73968 20.3201 10.6441 19.2516 10.6186ZM8.64143 21.2405C7.55158 21.2405 6.67807 20.3573 6.67807 19.2612C6.67807 18.1734 7.55158 17.3041 8.64143 17.3041C9.71205 17.3041 10.6027 18.1755 10.6027 19.2612C10.6027 20.3552 9.71416 21.2405 8.64143 21.2405ZM19.2516 21.2405C18.1596 21.2405 17.2903 20.3552 17.2903 19.2612C17.2903 18.1734 18.1596 17.3041 19.2516 17.3041C20.3201 17.3041 21.2053 18.1734 21.2053 19.2612C21.2053 20.3552 20.3222 21.2405 19.2516 21.2405Z" fill="white"/>
</svg>
