<svg width="28" height="28" viewBox="0 0 28 28" fill="none" xmlns="http://www.w3.org/2000/svg">
<path d="M12.5369 26.4301H14.9146C15.8823 26.4301 16.6391 25.8287 16.8627 24.9025L17.3392 22.8292L17.6509 22.7214L19.4598 23.83C20.2764 24.34 21.2333 24.2123 21.9201 23.5213L23.567 21.8882C24.258 21.1888 24.3815 20.2265 23.8715 19.4237L22.7437 17.6287L22.859 17.3383L24.928 16.848C25.8447 16.6201 26.4515 15.858 26.4515 14.8998V12.588C26.4515 11.6319 25.8543 10.8655 24.928 10.6398L22.8782 10.1399L22.7533 9.83031L23.8811 8.03522C24.3932 7.23249 24.2676 6.27976 23.5766 5.57078L21.9297 3.92804C21.2526 3.24672 20.2956 3.11477 19.4791 3.61937L17.6701 4.72797L17.3392 4.60094L16.8627 2.52765C16.6391 1.5993 15.8823 1 14.9146 1H12.5369C11.5691 1 10.8123 1.60351 10.5887 2.52765L10.1026 4.60094L9.77171 4.72797L7.97241 3.61937C7.15585 3.11898 6.18929 3.24672 5.51219 3.92804L3.87484 5.57078C3.18391 6.27976 3.04867 7.23249 3.57039 8.03522L4.6886 9.83031L4.57328 10.1399L2.52343 10.6398C1.59297 10.8677 1 11.6319 1 12.588V14.8998C1 15.858 1.6068 16.6223 2.52343 16.848L4.5925 17.3383L4.6982 17.6287L3.58 19.4237C3.05828 20.2265 3.19352 21.1888 3.88445 21.8882L5.52179 23.5213C6.20851 24.2123 7.17507 24.34 7.99163 23.83L9.79093 22.7214L10.1026 22.8292L10.5887 24.9025C10.8123 25.8287 11.5691 26.4301 12.5369 26.4301ZM12.8277 24.3067C12.6306 24.3067 12.5294 24.2226 12.4963 24.0414L11.8016 21.1541C11.0594 20.9868 10.3471 20.6866 9.77992 20.3237L7.2421 21.8814C7.10359 21.9848 6.95546 21.9634 6.81905 21.827L5.56913 20.5792C5.44022 20.4503 5.43483 20.3118 5.52436 20.1562L7.08835 17.6376C6.76608 17.0779 6.45296 16.3741 6.2739 15.6318L3.38663 14.9488C3.20546 14.9158 3.12132 14.8145 3.12132 14.6174V12.8608C3.12132 12.6541 3.19585 12.5645 3.38663 12.5294L6.26429 11.8368C6.44757 11.0582 6.7928 10.3288 7.06913 9.8214L5.51475 7.3028C5.41561 7.13757 5.41889 6.99905 5.5478 6.86054L6.80945 5.63194C6.94585 5.49553 7.07476 5.47631 7.2421 5.57756L9.75859 7.10639C10.2899 6.78928 11.0638 6.471 11.8091 6.2739L12.4963 3.38874C12.5294 3.20757 12.6306 3.12343 12.8277 3.12343H14.6237C14.8209 3.12343 14.92 3.20757 14.9455 3.38874L15.652 6.29311C16.4123 6.4785 17.0936 6.78624 17.6737 7.116L20.1934 5.58178C20.3725 5.48053 20.4897 5.49764 20.6378 5.63616L21.8877 6.86476C22.0262 7.00327 22.022 7.14179 21.9229 7.30702L20.3727 9.8214C20.6566 10.3267 20.9943 11.0582 21.1755 11.8326L24.0648 12.5294C24.246 12.5645 24.3302 12.6541 24.3302 12.8608V14.6174C24.3302 14.8145 24.2343 14.9158 24.0648 14.9488L21.1659 15.636C20.9868 16.3719 20.6833 17.0842 20.3535 17.6376L21.9112 20.1519C22.0028 20.3076 22.007 20.4461 21.8685 20.575L20.6282 21.8228C20.478 21.9613 20.3416 21.9784 20.1934 21.8772L17.6662 20.3237C17.0884 20.6866 16.4174 20.9784 15.652 21.1541L14.9455 24.0414C14.92 24.2226 14.8209 24.3067 14.6237 24.3067H12.8277ZM13.7247 18.1705C16.1634 18.1705 18.1684 16.1655 18.1684 13.7151C18.1684 11.286 16.1634 9.28304 13.7247 9.28304C11.286 9.28304 9.26921 11.286 9.26921 13.7151C9.26921 16.158 11.2764 18.1705 13.7247 18.1705ZM13.7247 16.1601C12.3897 16.1601 11.2914 15.0618 11.2914 13.7151C11.2914 12.3897 12.3918 11.2935 13.7247 11.2935C15.0384 11.2935 16.1345 12.3939 16.1345 13.7151C16.1345 15.0522 15.0384 16.1601 13.7247 16.1601Z" fill="black"/>
</svg>
