<svg width="28" height="28" viewBox="0 0 28 28" fill="none" xmlns="http://www.w3.org/2000/svg">
<path d="M13.7336 25.8079C13.9401 25.8079 14.2457 25.727 14.5429 25.5747C21.2573 22.1163 23.4672 20.3006 23.4672 16.0956V7.37569C23.4672 6.01257 22.9431 5.52249 21.7942 5.04062C20.5075 4.51187 16.1964 2.97929 14.9404 2.55483C14.5565 2.43249 14.125 2.35913 13.7336 2.35913C13.3443 2.35913 12.9128 2.4421 12.5364 2.55483C11.2708 2.96007 6.96179 4.52148 5.67507 5.04062C4.53578 5.51077 4 6.01257 4 7.37569V16.0956C4 20.3006 6.31023 21.9487 12.9243 25.5747C13.2311 25.7367 13.5292 25.8079 13.7336 25.8079Z" fill="black"/>
<path d="M13.7379 15.5995C13.0505 15.5995 12.6696 15.2196 12.6473 14.5226L12.4727 8.61046C12.4505 7.89445 12.9687 7.39429 13.7262 7.39429C14.472 7.39429 15.0115 7.90617 14.9892 8.62007L14.8146 14.5183C14.7924 15.2292 14.404 15.5995 13.7379 15.5995ZM13.7379 19.6371C12.9525 19.6371 12.2988 19.064 12.2988 18.3009C12.2988 17.5378 12.9429 16.9551 13.7379 16.9551C14.5329 16.9551 15.1706 17.5324 15.1706 18.3009C15.1706 19.0737 14.5233 19.6371 13.7379 19.6371Z" fill="white"/>
</svg>
