<svg width="28" height="28" viewBox="0 0 28 28" fill="none" xmlns="http://www.w3.org/2000/svg">
<path d="M18.2291 15.2868H9.64256C9.20803 15.2868 8.88319 15.6095 8.88319 16.0206C8.88319 16.4434 9.20803 16.7704 9.64256 16.7704H18.2291C18.6498 16.7704 18.9651 16.4434 18.9651 16.0206C18.9651 15.6095 18.6498 15.2868 18.2291 15.2868ZM18.2291 19.2184H9.64256C9.20803 19.2184 8.88319 19.555 8.88319 19.9778C8.88319 20.3889 9.20803 20.702 9.64256 20.702H18.2291C18.6498 20.702 18.9651 20.3889 18.9651 19.9778C18.9651 19.555 18.6498 19.2184 18.2291 19.2184ZM7.80577 26.3655H20.2891C22.8013 26.3655 24.0948 25.0506 24.0948 22.5287V11.8966C24.0948 10.2688 23.8853 9.52188 22.8655 8.4829L16.7101 2.2314C15.7309 1.23086 14.9167 1 13.4544 1H7.80577C5.30523 1 4 2.32445 4 4.84632V22.5287C4 25.0602 5.29562 26.3655 7.80577 26.3655ZM7.98905 24.0695C6.85795 24.0695 6.29592 23.4777 6.29592 22.386V4.98905C6.29592 3.90694 6.85795 3.29592 7.99866 3.29592H12.9941V9.72273C12.9941 11.3997 13.8126 12.2106 15.482 12.2106H21.7989V22.386C21.7989 23.4777 21.2369 24.0695 20.0983 24.0695H7.98905ZM15.6993 10.1859C15.2137 10.1859 15.0189 9.97937 15.0189 9.49586V3.61491L21.4799 10.1859H15.6993Z" fill="black"/>
</svg>
