<svg width="28" height="28" viewBox="0 0 28 28" fill="none" xmlns="http://www.w3.org/2000/svg">
<path d="M3 20.7084C3 23.2186 4.31484 24.5142 6.84421 24.5142H20.6287C22.8635 24.5142 24.1783 23.209 24.1783 20.7084V8.59217C24.1783 6.09163 22.8539 4.7864 20.3341 4.7864H18.6553C18.603 2.16937 16.3615 0 13.5844 0C10.8073 0 8.57531 2.16937 8.51344 4.7864H6.84421C4.31484 4.7864 3 6.08202 3 8.59217V20.7084ZM10.7355 4.7864C10.7878 3.26718 11.9784 2.04491 13.5844 2.04491C15.1903 2.04491 16.3905 3.26718 16.4332 4.7864H10.7355Z" fill="black"/>
</svg>
