<svg width="28" height="28" viewBox="0 0 28 28" fill="none" xmlns="http://www.w3.org/2000/svg">
<path d="M4.6875 8.15962V16.0955C4.6875 20.3005 6.99773 21.9486 13.6118 25.5746C13.9186 25.7366 14.2167 25.8078 14.4211 25.8078C14.6276 25.8078 14.9332 25.7269 15.2304 25.5746C16.9948 24.6603 18.4416 23.8548 19.6177 23.1111L4.6875 8.15962ZM23.1872 19.8758C23.8755 18.8019 24.1547 17.6054 24.1547 16.0955V7.37563C24.1547 6.01251 23.6306 5.52243 22.4817 5.04056C21.195 4.51181 16.8839 2.97923 15.6279 2.55477C15.244 2.43243 14.8125 2.35907 14.4211 2.35907C14.0318 2.35907 13.6003 2.44204 13.2239 2.55477C12.2386 2.88219 9.68742 3.7829 7.80632 4.48322L23.1872 19.8758Z" fill="black"/>
<path d="M24.1338 25.4996C24.498 25.8617 25.1009 25.8638 25.4534 25.4996C25.8134 25.1354 25.8176 24.5443 25.4534 24.1801L3.59766 2.3382C3.23555 1.97398 2.64024 1.97398 2.26641 2.3382C1.90641 2.68859 1.91602 3.29562 2.26641 3.65773L24.1338 25.4996Z" fill="black"/>
</svg>
