<svg width="28" height="28" viewBox="0 0 28 28" fill="none" xmlns="http://www.w3.org/2000/svg">
<path d="M14.105 26.21C20.7369 26.21 26.2121 20.7273 26.2121 14.105C26.2121 7.47312 20.7273 2 14.0954 2C7.47523 2 2 7.47312 2 14.105C2 20.7273 7.48484 26.21 14.105 26.21ZM14.105 23.8255C8.71085 23.8255 4.39412 19.4991 4.39412 14.105C4.39412 8.71085 8.70124 4.38452 14.0954 4.38452C19.4895 4.38452 23.8276 8.71085 23.8276 14.105C23.8276 19.4991 19.4991 23.8255 14.105 23.8255Z" fill="black"/>
<path d="M8.45257 19.557C9.92585 21.0207 11.7624 20.893 13.4701 19.1841L15.1224 17.5477C16.8631 15.8272 16.9974 13.962 15.5028 12.4876C15.1212 12.0985 14.6748 11.8131 14.3572 11.7313C14.0122 11.9846 13.6032 12.4477 13.4284 12.8452C13.9105 12.9357 14.3248 13.1401 14.5913 13.3991C15.4885 14.3059 15.35 15.4972 14.1758 16.6597L12.5884 18.245C11.4526 19.3766 10.2709 19.5097 9.36616 18.6263C8.46897 17.7312 8.57866 16.5336 9.74327 15.402L10.8322 14.3173C10.6341 13.8889 10.6055 13.1375 10.7888 12.5527L8.80624 14.5161C7.10069 16.2291 6.96218 18.0762 8.45257 19.557ZM19.3334 8.62414C17.8623 7.16047 16.0236 7.2882 14.3159 8.99703L12.6636 10.6238C10.9229 12.354 10.7886 14.2095 12.2832 15.684C12.6648 16.0827 13.1112 16.3585 13.4288 16.4499C13.7738 16.1869 14.1828 15.7217 14.3577 15.3359C13.8755 15.2455 13.4612 15.0411 13.1947 14.7725C12.2975 13.8753 12.436 12.6744 13.6102 11.5215L15.1977 9.93617C16.3355 8.80461 17.5152 8.67148 18.422 9.55484C19.317 10.4499 19.2073 11.6476 18.0427 12.7791L16.9538 13.8542C17.1519 14.2923 17.1805 15.0341 16.9972 15.6284L18.9798 13.6555C20.6853 11.952 20.8238 10.1049 19.3334 8.62414Z" fill="black"/>
</svg>
