<svg width="28" height="28" viewBox="0 0 28 28" fill="none" xmlns="http://www.w3.org/2000/svg">
<path d="M14.105 26.21C20.7369 26.21 26.2121 20.7273 26.2121 14.105C26.2121 7.47312 20.7273 2 14.0954 2C7.47523 2 2 7.47312 2 14.105C2 20.7273 7.48484 26.21 14.105 26.21Z" fill="black"/>
<path d="M14.1049 20.8774C10.3812 20.8774 7.33057 17.8267 7.33057 14.103C7.33057 12.4842 7.92963 10.9687 8.89643 9.81462C9.25408 9.36462 9.83838 9.31564 10.2045 9.68079C10.5652 10.0331 10.5089 10.5208 10.212 10.9038C9.49431 11.7789 9.06142 12.8737 9.06142 14.103C9.06142 16.9232 11.2784 19.1486 14.1049 19.1486C16.9432 19.1486 19.1409 16.9232 19.1409 14.103C19.1409 11.5096 17.3107 9.43657 14.8291 9.10001V9.99954C14.8291 10.4329 14.5012 10.7896 14.0561 10.7896C13.6036 10.7896 13.2874 10.4329 13.2874 9.99954V8.14634C13.2874 7.66939 13.5874 7.32861 14.1145 7.32861C17.8308 7.32861 20.8814 10.3792 20.8814 14.103C20.8814 17.8267 17.8308 20.8774 14.1049 20.8774ZM15.2343 15.1755C14.6304 15.7677 13.7592 15.6506 13.3031 14.9273L11.3761 11.9795C11.0492 11.4623 11.5835 10.9872 12.0829 11.2907L15.0096 13.2304C15.7115 13.7003 15.8287 14.5481 15.2343 15.1755Z" fill="white"/>
</svg>
