<svg width="28" height="28" viewBox="0 0 28 28" fill="none" xmlns="http://www.w3.org/2000/svg">
<path d="M2.11742 21.0131V24.4225C2.11742 25.9523 2.86672 26.6824 4.4157 26.6824H8.06023C5.48328 25.4275 3.52672 23.5422 2.11742 21.0131ZM26.1816 21.0131C24.7723 23.5422 22.8179 25.4275 20.2505 26.6824H23.8834C25.4323 26.6824 26.1816 25.9523 26.1816 24.4225V21.0131ZM14.105 26.4424C20.7369 26.4424 26.2121 20.9597 26.2121 14.3374C26.2121 7.70554 20.7273 2.23242 14.0954 2.23242C7.47523 2.23242 2 7.70554 2 14.3374C2 20.9597 7.48484 26.4424 14.105 26.4424ZM14.105 24.0579C8.71085 24.0579 4.39412 19.7315 4.39412 14.3374C4.39412 8.94326 8.70124 4.61694 14.0954 4.61694C19.4895 4.61694 23.8276 8.94326 23.8276 14.3374C23.8276 19.7315 19.4991 24.0579 14.105 24.0579Z" fill="black"/>
<path d="M10.1509 11.7323L13.507 15.0862C13.8794 15.4703 14.4529 15.4607 14.8253 15.0862L20.0024 9.91116C20.377 9.54624 20.3866 8.96101 20.0024 8.60031C19.6183 8.23961 19.0661 8.23 18.6916 8.60031L14.1592 13.1306L11.4714 10.4235C11.0851 10.0469 10.5233 10.049 10.1509 10.4235C9.79021 10.7863 9.77849 11.3598 10.1509 11.7323Z" fill="black"/>
</svg>
