<svg width="28" height="28" viewBox="0 0 28 28" fill="none" xmlns="http://www.w3.org/2000/svg">
<path d="M2.01805 14.1446C3.07039 12.6697 4.39226 11.315 5.8482 10.1989C5.83859 10.1373 5.83859 10.0639 5.82898 9.99265C5.79054 9.15827 5.27773 7.54272 4.115 7.31562C2.84398 9.16906 2.06938 11.3837 2 13.7623C2 13.8983 2.00211 14.0225 2.01805 14.1446ZM7.21999 9.23468C7.56335 9.00968 7.92054 8.79851 8.27562 8.60234C8.03164 6.50866 8.09375 4.75226 8.54984 3.36617C7.19843 4.07563 6.00359 5.0225 4.99718 6.1557C6.2471 6.45945 6.9603 7.9932 7.21999 9.23468ZM9.65069 7.91586C10.189 7.66742 10.7466 7.44992 11.3138 7.26335C11.2883 7.01937 11.2669 6.78499 11.2669 6.53679C11.2669 4.62171 12.3022 2.98085 14.0138 2.00632C13.9044 2.00422 13.812 2.00211 13.7026 2.00211C12.4576 2.04054 11.2435 2.28054 10.1244 2.69328C9.68139 3.91976 9.43225 5.5775 9.65069 7.91586ZM12.7815 6.82906C14.2189 6.46671 15.7266 6.27593 17.2887 6.27593C19.7309 6.27593 22.1656 6.7721 24.3141 7.67304C22.636 5.0239 19.9651 3.05562 16.8362 2.32109C14.2348 3.03383 12.6805 4.55843 12.7601 6.53679C12.7623 6.64437 12.7719 6.74257 12.7815 6.82906ZM5.78679 12.1897C4.44758 13.4103 3.22109 14.8526 2.25898 16.4555C2.77718 19.0789 4.18109 21.4243 6.14023 23.1612C4.64632 19.8669 5.57516 15.7501 5.78679 12.1897ZM7.34257 10.9332C7.33132 16.2549 4.98897 22.0074 10.0969 25.4607C11.3391 25.936 12.6976 26.2025 14.105 26.2025C14.7823 26.2025 15.4459 26.1514 16.088 26.0417C11.6136 20.6061 9.34038 14.738 8.51398 10.1701C8.1132 10.4056 7.72413 10.6529 7.34257 10.9332ZM11.734 8.6778C11.0914 8.89952 10.4572 9.1564 9.84968 9.45382C10.5877 13.8823 12.8609 19.9878 17.7048 25.6395C20.1962 24.8609 22.3583 23.2754 23.8744 21.1857C23.5721 15.2703 13.9238 13.573 11.734 8.6778ZM25.0198 19.2856C25.7827 17.7015 26.2121 15.9512 26.2121 14.0975C26.2121 12.5987 25.9273 11.1521 25.393 9.84311C22.8378 8.45796 20.2006 7.77335 17.2887 7.77335C15.8808 7.77335 14.5177 7.93647 13.2186 8.25101C15.1831 12.001 23.2939 13.7523 25.0198 19.2856Z" fill="black"/>
</svg>
