<svg width="28" height="28" viewBox="0 0 28 28" fill="none" xmlns="http://www.w3.org/2000/svg">
<path d="M14.105 26.2301C20.7369 26.2301 26.2121 20.7549 26.2121 14.123C26.2121 7.50291 20.7273 2.01807 14.0954 2.01807C7.47523 2.01807 2 7.50291 2 14.123C2 20.7549 7.48484 26.2301 14.105 26.2301Z" fill="black"/>
<path d="M10.8014 9.02985C11.9786 9.02985 13.0429 9.51032 13.5843 10.2924C13.6856 10.4448 13.7036 10.4809 13.7036 10.6332V18.8752C13.7036 19.0159 13.596 19.1138 13.4608 19.1138C13.3905 19.1138 13.3331 19.0904 13.2606 19.0255C12.6138 18.4883 11.8464 18.2335 11.0503 18.2335C10.1493 18.2335 9.27299 18.5417 8.62283 19.0749C8.46135 19.1898 8.32611 19.2451 8.14424 19.2451C7.84213 19.2451 7.64526 19.0599 7.64526 18.7611V11.007C7.64526 10.7708 7.64948 10.6878 7.73455 10.5591C8.27924 9.60196 9.56854 9.02985 10.8014 9.02985ZM17.4163 9.02985C18.6513 9.02985 19.9385 9.60196 20.4853 10.5591C20.5682 10.6782 20.5842 10.7708 20.5842 11.007V18.7611C20.5842 19.0599 20.3777 19.2451 20.0756 19.2451C19.8937 19.2451 19.7681 19.1898 19.5949 19.0749C18.9564 18.5417 18.0801 18.2335 17.1674 18.2335C16.383 18.2335 15.606 18.4883 14.9592 19.0255C14.8963 19.0904 14.8293 19.1138 14.759 19.1138C14.6238 19.1138 14.5258 19.0159 14.5258 18.8752V10.6332C14.5258 10.4809 14.5321 10.4448 14.6355 10.2924C15.1865 9.51032 16.2412 9.02985 17.4163 9.02985Z" fill="white"/>
</svg>
