<svg width="28" height="28" viewBox="0 0 28 28" fill="none" xmlns="http://www.w3.org/2000/svg">
<path d="M14.105 26.2301C20.7369 26.2301 26.2121 20.7549 26.2121 14.123C26.2121 7.50291 20.7273 2.01807 14.0954 2.01807C7.47523 2.01807 2 7.50291 2 14.123C2 20.7549 7.48484 26.2301 14.105 26.2301Z" fill="black"/>
<path d="M9.31636 19.5821C8.06902 19.5821 7.42261 18.9453 7.42261 17.731V12.8743H20.8089V17.731C20.8089 18.9453 20.1721 19.5821 19.0731 19.5821H9.31636ZM7.42261 11.8625V10.2605C7.42261 9.06335 8.04863 8.43945 9.11245 8.43945H10.8452C11.4234 8.43945 11.7121 8.55335 12.1232 8.86765L12.475 9.13742C12.787 9.37812 13.0084 9.49742 13.4367 9.49742H18.9152C20.1625 9.49742 20.8089 10.1321 20.8089 11.3581V11.8625H7.42261Z" fill="white"/>
</svg>
