<svg width="28" height="28" viewBox="0 0 28 28" fill="none" xmlns="http://www.w3.org/2000/svg">
<path d="M14.105 26.2301C20.7369 26.2301 26.2121 20.7549 26.2121 14.123C26.2121 7.50288 20.7273 2.01804 14.0954 2.01804C7.47523 2.01804 2 7.50288 2 14.123C2 20.7549 7.48484 26.2301 14.105 26.2301Z" fill="black"/>
<path d="M8.24631 19.7888C6.69639 18.2485 6.83912 16.3302 8.6042 14.5534L10.6676 12.5112C10.4801 13.1354 10.513 13.9112 10.7227 14.363L9.59654 15.4658C8.39045 16.6484 8.25943 17.8918 9.2035 18.8145C10.1401 19.7394 11.3633 19.5945 12.5544 18.4194L14.1854 16.7809C15.4032 15.5844 15.5534 14.3377 14.6244 13.4033C14.3441 13.1326 13.9159 12.9123 13.422 12.8335C13.5969 12.4201 14.0239 11.9293 14.3827 11.6717C14.7141 11.7556 15.1862 12.0432 15.5698 12.4578C17.1378 13.9897 16.9897 15.9186 15.1777 17.7242L13.468 19.4021C11.6912 21.1822 9.76951 21.312 8.24631 19.7888ZM19.5568 8.42842C21.1067 9.96873 20.964 11.8892 19.1893 13.6735L17.1355 15.706C17.323 15.0936 17.2901 14.3082 17.0804 13.8659L18.2066 12.7536C19.4127 11.5688 19.5341 10.3276 18.5996 9.40482C17.663 8.47787 16.4398 8.62271 15.2466 9.79998L13.6177 11.4364C12.3903 12.6425 12.2497 13.8795 13.1766 14.8257C13.4591 15.0868 13.8873 15.3071 14.3811 15.3955C14.2062 15.8068 13.7696 16.2997 13.4108 16.5573C13.089 16.4734 12.6169 16.1741 12.2333 15.7712C10.6653 14.2393 10.8134 12.2987 12.6254 10.5048L14.3255 8.81725C16.112 7.03717 18.024 6.90733 19.5568 8.42842Z" fill="white"/>
</svg>
