<svg width="28" height="30" viewBox="0 0 28 30" fill="none" xmlns="http://www.w3.org/2000/svg">
<path d="M14.1229 16.203C16.7167 16.203 19.267 16.0486 21.3644 15.7376C23.0533 15.483 23.5865 14.2298 23.0158 12.4591L19.9073 2.66437C19.3354 0.851717 17.8764 0 15.865 0H12.3712C10.3598 0 8.90079 0.851717 8.32891 2.66437L5.2204 12.4591C4.64969 14.2298 5.1829 15.483 6.8718 15.7376C8.96922 16.0486 11.5195 16.203 14.1229 16.203ZM14.1229 14.2146C11.9603 14.2146 9.86383 14.0953 7.65672 13.8459C7.0914 13.7862 7.02109 13.4449 7.19921 12.8562L10.146 3.43687C10.4498 2.45202 11.2555 1.97671 12.3712 1.97671H15.865C16.9806 1.97671 17.7864 2.45202 18.0998 3.43687L21.037 12.8562C21.2151 13.4449 21.1448 13.7862 20.5795 13.8459C18.3723 14.0953 16.2759 14.2146 14.1229 14.2146ZM13.0387 15.3265V28.3472H15.1996V15.3265H13.0387ZM8.80727 29.1705H19.4289C19.9342 29.1705 20.2799 28.8068 20.2799 28.278C20.2799 27.2988 19.4816 26.6187 18.2819 26.6187H9.9543C8.75453 26.6187 7.96798 27.2988 7.96798 28.278C7.96798 28.8068 8.30196 29.1705 8.80727 29.1705Z" fill="black"/>
</svg>
