<svg width="28" height="28" viewBox="0 0 28 28" fill="none" xmlns="http://www.w3.org/2000/svg">
<path d="M8.08195 25.881H20.816C23.0297 25.881 24.2653 24.6934 24.2653 22.4786V15.4541H24.3326C25.3512 15.1745 25.898 14.3024 25.898 13.0312V10.0546C25.898 8.46882 25.0104 7.4821 23.4394 7.4821H21.3928C22.0181 6.84414 22.3877 5.98562 22.3877 4.9982C22.3877 2.66359 20.5357 1 18.2053 1C16.4845 1 15.026 1.97406 14.4431 3.68148C13.8644 1.97406 12.4134 1 10.6809 1C8.36227 1 6.50063 2.66359 6.50063 4.9982C6.50063 5.98562 6.87024 6.84414 7.50516 7.4821H5.45858C3.93773 7.4821 3 8.46882 3 10.0546V13.0312C3 14.3024 3.53719 15.1745 4.55578 15.4541H4.62305V22.4786C4.62305 24.6934 5.85867 25.881 8.08195 25.881ZM13.263 23.792H8.34327C7.41702 23.792 6.89366 23.2623 6.89366 22.3487V15.6015H13.263V23.792ZM15.6253 23.792V15.6015H21.9947V22.3487C21.9947 23.2623 21.4671 23.792 20.543 23.792H15.6253ZM13.2652 13.5283H6.06772C5.5092 13.5283 5.27483 13.2843 5.27483 12.7258V10.3525C5.27483 9.79397 5.5092 9.55748 6.06772 9.55748H13.2652V13.5283ZM15.6253 13.5283V9.55748H22.8398C23.3984 9.55748 23.6231 9.79397 23.6231 10.3525V12.7448C23.6231 13.3033 23.3984 13.5283 22.8398 13.5283H15.6253ZM13.3387 7.4821H11.5739C9.78257 7.4821 8.7403 6.48343 8.7403 5.21124C8.7403 3.96436 9.61664 3.20593 10.8846 3.20593C12.2391 3.20593 13.3387 4.27749 13.3387 5.93804V7.4821ZM15.5496 7.4821V5.93804C15.5496 4.27749 16.6514 3.20593 18.0037 3.20593C19.2717 3.20593 20.148 3.96436 20.148 5.21124C20.148 6.48343 19.1154 7.4821 17.3144 7.4821H15.5496Z" fill="black"/>
</svg>
