<svg width="29" height="28" viewBox="0 0 29 28" fill="none" xmlns="http://www.w3.org/2000/svg">
<path d="M15.4235 25.9958C20.5575 25.9958 23.9833 24.1653 23.9833 21.4564C23.9833 19.0866 22.0441 18.59 22.0441 17.218C22.0441 15.3282 28.8126 15.008 28.8126 10.0925C28.8126 5.22078 23.778 2 16.2886 2C6.55617 2 0 6.92468 0 14.1924C0 21.2497 6.22382 25.9958 15.4235 25.9958ZM15.2437 21.4412C13.4505 21.4412 11.9789 19.977 11.9789 18.17C11.9789 16.3768 13.4505 14.9009 15.2437 14.9009C17.0529 14.9009 18.5224 16.3768 18.5224 18.17C18.5224 20.0065 17.0845 21.4412 15.2437 21.4412Z" fill="black"/>
<path d="M5.62736 15.6813C4.54619 15.6813 3.64502 14.7759 3.64502 13.6872C3.64502 12.6349 4.57502 11.7283 5.62736 11.7283C6.71814 11.7283 7.59798 12.5964 7.59798 13.6872C7.59798 14.7759 6.71814 15.6813 5.62736 15.6813Z" fill="white"/>
<path d="M10.2455 11.4526C8.86058 11.4526 7.75269 10.3682 7.75269 8.98115C7.75269 7.62295 8.85847 6.54272 10.2455 6.54272C11.5898 6.54272 12.7094 7.62295 12.7094 8.98115C12.7094 10.3682 11.5994 11.4526 10.2455 11.4526Z" fill="white"/>
<path d="M16.6222 9.54837C15.5314 9.54837 14.6089 8.66103 14.6089 7.56064C14.6089 6.45814 15.5314 5.5708 16.6222 5.5708C17.7301 5.5708 18.61 6.45814 18.61 7.56064C18.61 8.66103 17.7301 9.54837 16.6222 9.54837Z" fill="white"/>
<path d="M22.2937 10.5625C21.3947 10.5625 20.6597 9.85309 20.6597 8.94981C20.6597 8.06035 21.3947 7.32324 22.2937 7.32324C23.1874 7.32324 23.9011 8.07934 23.9011 8.94981C23.9011 9.83199 23.1874 10.5625 22.2937 10.5625Z" fill="white"/>
</svg>
