<svg width="28" height="29" viewBox="0 0 28 29" fill="none" xmlns="http://www.w3.org/2000/svg">
<path d="M5.79827 26.1232H16.7208C19.2043 26.1232 20.5095 24.8201 20.5095 22.3655V3.74812C20.5095 1.28601 19.1851 0 16.7208 0H5.79827C3.33406 0 2 1.28601 2 3.74812V22.3655C2 24.8201 3.31484 26.1232 5.79827 26.1232ZM7.11522 6.82335C6.14397 6.82335 5.35905 6.0246 5.35905 5.04585C5.35905 4.08843 6.14397 3.29929 7.11522 3.29929C8.08436 3.29929 8.881 4.08843 8.881 5.04585C8.881 6.0246 8.08436 6.82335 7.11522 6.82335ZM6.12217 16.71C5.66444 16.71 5.30139 16.3523 5.30139 15.8871C5.30139 15.4315 5.66444 15.0621 6.12217 15.0621H9.53655C10.0039 15.0621 10.3691 15.4315 10.3691 15.8871C10.3691 16.3523 10.0039 16.71 9.53655 16.71H6.12217ZM6.12217 19.7419C5.66444 19.7419 5.30139 19.3863 5.30139 18.919C5.30139 18.4537 5.66444 18.0982 6.12217 18.0982H9.53655C10.0039 18.0982 10.3691 18.4537 10.3691 18.919C10.3691 19.3863 10.0039 19.7419 9.53655 19.7419H6.12217ZM6.12217 22.7758C5.66444 22.7758 5.30139 22.4086 5.30139 21.9551C5.30139 21.4877 5.66444 21.1205 6.12217 21.1205H9.53655C10.0039 21.1205 10.3691 21.4877 10.3691 21.9551C10.3691 22.4086 10.0039 22.7758 9.53655 22.7758H6.12217ZM12.9708 16.71C12.5056 16.71 12.1405 16.3523 12.1405 15.8871C12.1405 15.4315 12.5056 15.0621 12.9708 15.0621H16.3873C16.8451 15.0621 17.2081 15.4315 17.2081 15.8871C17.2081 16.3523 16.8451 16.71 16.3873 16.71H12.9708ZM12.9708 19.7419C12.5056 19.7419 12.1405 19.3863 12.1405 18.919C12.1405 18.4537 12.5056 18.0982 12.9708 18.0982H16.3873C16.8451 18.0982 17.2081 18.4537 17.2081 18.919C17.2081 19.3863 16.8451 19.7419 16.3873 19.7419H12.9708ZM12.9708 22.7758C12.5056 22.7758 12.1405 22.4086 12.1405 21.9551C12.1405 21.4877 12.5056 21.1205 12.9708 21.1205H16.3873C16.8451 21.1205 17.2081 21.4877 17.2081 21.9551C17.2081 22.4086 16.8451 22.7758 16.3873 22.7758H12.9708ZM14.9466 6.46733C14.0581 6.46733 13.209 6.26389 12.4355 5.78975C11.9349 5.50006 11.8862 4.96546 12.1224 4.60569C12.3226 4.27991 12.74 4.14233 13.1553 4.36077C13.816 4.72007 14.3265 4.86702 14.9466 4.86702C17.5859 4.86702 19.1832 2.30179 22.3421 2.30179C23.2285 2.30179 24.0701 2.52444 24.8511 2.97726C25.3751 3.27866 25.4143 3.81538 25.1684 4.18475C24.9619 4.4796 24.5637 4.62678 24.1355 4.39874C23.4727 4.04483 22.9623 3.91592 22.3421 3.91592C19.6665 3.91592 18.0671 6.46733 14.9466 6.46733ZM14.9562 9.701C14.0698 9.701 13.2186 9.48585 12.4494 9.02342C11.9349 8.73585 11.8862 8.19702 12.1224 7.83936C12.3226 7.51358 12.7496 7.3664 13.1649 7.59444C13.816 7.94413 14.3265 8.1028 14.9562 8.1028C17.5955 8.1028 19.1928 5.52585 22.3421 5.52585C23.2285 5.52585 24.0798 5.74851 24.8724 6.20132C25.3848 6.50062 25.4143 7.04905 25.178 7.40882C24.9715 7.71327 24.5637 7.86046 24.1451 7.6303C23.4823 7.26889 22.9719 7.13999 22.3421 7.13999C19.6761 7.13999 18.0671 9.701 14.9562 9.701ZM14.9466 12.923C14.0581 12.923 13.209 12.7195 12.4397 12.2475C11.9349 11.9599 11.8862 11.4211 12.1224 11.0634C12.3226 10.7355 12.7421 10.598 13.1553 10.8185C13.816 11.1778 14.3265 11.3269 14.9466 11.3269C17.5859 11.3269 19.1832 8.75741 22.3421 8.75741C23.2285 8.75741 24.0701 8.98218 24.8511 9.43499C25.3751 9.73429 25.4143 10.2731 25.1684 10.6404C24.9619 10.9352 24.5637 11.0824 24.1355 10.8544C23.4727 10.5026 22.9623 10.3758 22.3421 10.3758C19.6665 10.3758 18.0671 12.923 14.9466 12.923ZM5.47648 28.3375C6.11281 28.3375 6.54476 27.8939 6.54476 27.2576V24.8257H4.39649V27.2576C4.39649 27.8939 4.84016 28.3375 5.47648 28.3375ZM17.033 28.3375C17.679 28.3375 18.113 27.8939 18.113 27.2576V24.8257H15.9647V27.2576C15.9647 27.8939 16.3967 28.3375 17.033 28.3375Z" fill="black"/>
</svg>
