<svg width="43" height="28" viewBox="0 0 43 28" fill="none" xmlns="http://www.w3.org/2000/svg">
<path d="M12.1111 22.1291H30.8245C32.0189 22.1291 32.7607 21.4801 32.7607 20.5023C32.7607 19.2692 31.6181 18.2061 30.5765 17.1906C29.7588 16.3925 29.5605 14.7137 29.4119 13.1846C29.2497 8.87024 27.989 5.83133 24.9478 4.73375C24.4666 3.18594 23.1984 2.00211 21.464 2.00211C19.7372 2.00211 18.4594 3.18594 17.9878 4.73375C14.9465 5.83133 13.6879 8.87024 13.5237 13.1846C13.3751 14.7137 13.1789 16.3925 12.359 17.1906C11.3079 18.2061 10.1749 19.2692 10.1749 20.5023C10.1749 21.4801 10.9071 22.1291 12.1111 22.1291ZM21.464 26.9548C23.5343 26.9548 25.0486 25.4722 25.1967 23.7683H17.7389C17.8891 25.4722 19.4013 26.9548 21.464 26.9548Z" fill="black"/>
<path d="M8.05988 19.122C8.44754 18.6664 8.29941 18.1011 7.91176 17.574C7.26347 16.7541 6.92152 15.6291 6.92152 14.4716C6.92152 13.314 7.26347 12.1773 7.91176 11.3649C8.2973 10.8399 8.44754 10.2767 8.05988 9.81897C7.64785 9.32725 6.87723 9.31881 6.40168 9.89256C5.39692 11.1118 4.82996 12.7341 4.82996 14.4716C4.82996 16.209 5.39692 17.8313 6.40168 19.0463C6.87723 19.6222 7.64785 19.6041 8.05988 19.122ZM34.8682 19.122C35.2877 19.6041 36.0487 19.6222 36.5339 19.0463C37.5407 17.8313 38.1056 16.209 38.1056 14.4716C38.1056 12.7341 37.5407 11.1118 36.5339 9.89256C36.0487 9.31881 35.2877 9.32725 34.8682 9.81897C34.488 10.2767 34.6382 10.8399 35.0238 11.3649C35.6625 12.1773 36.014 13.314 36.014 14.4716C36.014 15.6291 35.6625 16.7541 35.0238 17.574C34.6361 18.1011 34.488 18.6664 34.8682 19.122Z" fill="black"/>
<path d="M4.64156 22.4809C5.03976 22.021 4.91624 21.4302 4.47117 20.9265C2.94515 19.2331 2.09156 16.9594 2.09156 14.4716C2.09156 11.9858 2.94304 9.71 4.47117 8.01875C4.91835 7.51508 5.04398 6.92422 4.64156 6.46438C4.23281 5.97688 3.51539 5.95907 2.99836 6.52086C1.09313 8.57751 0 11.4301 0 14.4716C0 17.5173 1.0636 20.3412 2.99836 22.4244C3.51961 22.9841 4.23492 22.9609 4.64156 22.4809ZM38.294 22.4809C38.7007 22.9609 39.416 22.9841 39.9372 22.4244C41.8741 20.3412 42.9356 17.5173 42.9356 14.4716C42.9356 11.4301 41.8446 8.57751 39.9372 6.52086C39.4223 5.95907 38.7049 5.97688 38.294 6.46438C37.8937 6.92422 38.0172 7.51508 38.4665 8.01875C39.9925 9.71 40.844 11.9858 40.844 14.4716C40.844 16.9594 39.9904 19.2331 38.4665 20.9265C38.0214 21.4302 37.8958 22.021 38.294 22.4809Z" fill="black"/>
</svg>
