<svg width="28" height="28" viewBox="0 0 28 28" fill="none" xmlns="http://www.w3.org/2000/svg">
<path d="M4.93617 22.1291H23.6475C24.8419 22.1291 25.5858 21.4801 25.5858 20.5023C25.5858 19.2692 24.4432 18.2061 23.4016 17.1906C22.5818 16.3925 22.3856 14.7137 22.237 13.1846C22.0727 8.87024 20.8141 5.83133 17.7729 4.73375C17.2917 3.18594 16.0235 2.00211 14.287 2.00211C12.5623 2.00211 11.2845 3.18594 10.8129 4.73375C7.77163 5.83133 6.51093 8.87024 6.34875 13.1846C6.20016 14.7137 6.00187 16.3925 5.18414 17.1906C4.13297 18.2061 3 19.2692 3 20.5023C3 21.4801 3.73218 22.1291 4.93617 22.1291ZM14.287 26.9548C16.3594 26.9548 17.8715 25.4722 18.0218 23.7683H10.564C10.7121 25.4722 12.2264 26.9548 14.287 26.9548Z" fill="black"/>
</svg>
