<svg width="28" height="28" viewBox="0 0 28 28" fill="none" xmlns="http://www.w3.org/2000/svg">
<path d="M3.84421 26.2214H23.9109C26.4499 26.2214 27.7552 24.9183 27.7552 22.4156V15.5287C27.7552 14.302 27.6103 13.6502 27.0513 12.9352L23.1729 7.96808C21.768 6.15824 20.8758 5.22449 18.7362 5.22449H17.1316V7.12784H18.8461C19.6699 7.12784 20.4867 7.81034 21.023 8.50738L25.0502 13.7709C25.462 14.3053 25.3043 14.5334 24.7062 14.5334H17.3489C16.7311 14.5334 16.4583 14.9726 16.4583 15.4341V15.4767C16.4583 16.7517 15.4657 18.1076 13.8776 18.1076C12.2991 18.1076 11.3065 16.7517 11.3065 15.4767V15.4341C11.3065 14.9726 11.0241 14.5334 10.4062 14.5334H3.06819C2.44124 14.5334 2.31444 14.2744 2.71663 13.7709L6.7364 8.50738C7.27265 7.81034 8.08734 7.12784 8.91117 7.12784H10.6331V5.22449H9.0307C6.88149 5.22449 6.00305 6.15192 4.59399 7.96808L0.703827 12.9352C0.152344 13.6523 0 14.302 0 15.5287V22.4156C0 24.9183 1.31484 26.2214 3.84421 26.2214ZM3.9478 23.9255C2.85819 23.9255 2.26639 23.3538 2.26639 22.2152V16.5682H9.32062C9.68414 18.6689 11.5092 20.2207 13.8776 20.2207C16.2459 20.2207 18.071 18.6593 18.4345 16.5682H25.4888V22.2152C25.4888 23.3538 24.8874 23.9255 23.8073 23.9255H3.9478Z" fill="black"/>
<path d="M13.8776 14.4244C14.1574 14.4244 14.4009 14.3372 14.6712 14.0712L18.4929 10.3901C18.6855 10.2016 18.7856 9.98766 18.7856 9.71625C18.7856 9.18516 18.3675 8.81157 17.8533 8.81157C17.5894 8.81157 17.3222 8.91797 17.1413 9.12235L15.5616 10.8066L14.8406 11.647L14.9669 9.88501V1.05632C14.9669 0.483981 14.4722 0 13.8776 0C13.283 0 12.7978 0.483981 12.7978 1.05632V9.88501L12.9145 11.647L12.1936 10.8066L10.6139 9.12235C10.4212 8.91797 10.1562 8.81157 9.89221 8.81157C9.37799 8.81157 8.96948 9.18516 8.96948 9.71625C8.96948 9.98766 9.06956 10.2016 9.26221 10.3901L13.084 14.0712C13.3542 14.3372 13.6073 14.4244 13.8776 14.4244Z" fill="black"/>
</svg>
