<svg width="28" height="28" viewBox="0 0 28 28" fill="none" xmlns="http://www.w3.org/2000/svg">
<path d="M0 22.6345C0 25.0466 1.31835 26.3655 3.83014 26.3655H23.3463C25.8853 26.3655 27.1905 25.0698 27.1905 22.5693V4.80577C27.1905 2.30523 25.8853 1 23.3463 1H9.19147C6.65999 1 5.34515 2.30523 5.34515 4.80577V10.0518H2.74897C1.02023 10.0518 0 11.0144 0 12.6641V22.6345ZM2.29592 22.5227V13.0823C2.29592 12.6191 2.57694 12.3477 3.04006 12.3477H5.34515V22.5227C5.34515 23.4341 4.68726 24.0695 3.83014 24.0695C2.96342 24.0695 2.29592 23.4053 2.29592 22.5227ZM7.30169 24.0695C7.52154 23.631 7.64107 23.1295 7.64107 22.5362V5.00827C7.64107 3.87811 8.23404 3.29592 9.3342 3.29592H23.2036C24.3037 3.29592 24.8946 3.87811 24.8946 5.00827V22.3668C24.8946 23.497 24.3037 24.0695 23.2036 24.0695H7.30169ZM10.6204 8.29866H21.9344C22.3784 8.29866 22.7222 7.94522 22.7222 7.50343C22.7222 7.07124 22.3805 6.73913 21.9344 6.73913H10.6204C10.1669 6.73913 9.82522 7.07124 9.82522 7.50343C9.82522 7.94522 10.169 8.29866 10.6204 8.29866ZM10.6204 12.3477H21.9344C22.3805 12.3477 22.7222 12.006 22.7222 11.5738C22.7222 11.132 22.3784 10.7882 21.9344 10.7882H10.6204C10.169 10.7882 9.82522 11.132 9.82522 11.5738C9.82522 12.006 10.1669 12.3477 10.6204 12.3477ZM11.2844 20.5007H14.2057C15.1132 20.5007 15.667 19.9469 15.667 19.0394V16.3157C15.667 15.4028 15.1132 14.849 14.2057 14.849H11.2844C10.3673 14.849 9.8135 15.4028 9.8135 16.3157V19.0394C9.8135 19.9469 10.3673 20.5007 11.2844 20.5007ZM17.7469 16.4064H21.9248C22.3784 16.4064 22.7083 16.0743 22.7083 15.6442C22.7083 15.1907 22.3784 14.849 21.9248 14.849H17.7469C17.2912 14.849 16.9591 15.1907 16.9591 15.6442C16.9591 16.0743 17.2933 16.4064 17.7469 16.4064ZM17.7469 20.5007H21.9248C22.3784 20.5007 22.7083 20.1686 22.7083 19.7364C22.7083 19.2946 22.3784 18.9412 21.9248 18.9412H17.7469C17.2933 18.9412 16.9591 19.2946 16.9591 19.7364C16.9591 20.1686 17.2912 20.5007 17.7469 20.5007Z" fill="black"/>
</svg>
