<svg width="28" height="28" viewBox="0 0 28 28" fill="none" xmlns="http://www.w3.org/2000/svg">
<path d="M14.105 26.2301C20.7369 26.2301 26.2121 20.7549 26.2121 14.123C26.2121 7.50291 20.7273 2.01807 14.0954 2.01807C7.47523 2.01807 2 7.50291 2 14.123C2 20.7549 7.48484 26.2301 14.105 26.2301Z" fill="black"/>
<path d="M10.6431 20.2107C9.35008 20.2107 8.64297 19.5345 8.64297 18.2202V12.402H19.5693V18.2202C19.5693 19.5345 18.8601 20.2107 17.5692 20.2107H10.6431ZM12.0663 14.8426H16.146C16.4505 14.8426 16.6612 14.6436 16.6612 14.337V14.1324C16.6612 13.8237 16.4505 13.6269 16.146 13.6269H12.0663C11.7714 13.6269 11.5511 13.8237 11.5511 14.1324V14.337C11.5511 14.6436 11.7735 14.8426 12.0663 14.8426ZM8.81407 11.402C8.06219 11.402 7.67993 10.962 7.67993 10.2198V9.62539C7.67993 8.87141 8.10063 8.4411 8.81407 8.4411H19.4003C20.1618 8.4411 20.542 8.87141 20.542 9.62539V10.2198C20.542 10.962 20.1618 11.402 19.4003 11.402H8.81407Z" fill="white"/>
</svg>
