<svg width="28" height="28" viewBox="0 0 28 28" fill="none" xmlns="http://www.w3.org/2000/svg">
<path d="M14.105 26.21C20.7369 26.21 26.2121 20.7273 26.2121 14.105C26.2121 7.47312 20.7273 2 14.0954 2C7.47523 2 2 7.47312 2 14.105C2 20.7273 7.48484 26.21 14.105 26.21ZM14.105 23.8255C8.71085 23.8255 4.39412 19.4991 4.39412 14.105C4.39412 8.71085 8.70124 4.38452 14.0954 4.38452C19.4895 4.38452 23.8276 8.71085 23.8276 14.105C23.8276 19.4991 19.4991 23.8255 14.105 23.8255Z" fill="black"/>
<path d="M12.671 18.3577C15.1141 17.6865 16.1774 15.7995 15.4849 13.2392L14.5504 9.78055C14.2947 8.83555 13.6757 8.49781 12.7286 8.7418L7.82077 10.0449C6.86195 10.3006 6.51249 10.9079 6.7703 11.8667L7.69304 15.335C8.36429 17.8815 10.2278 18.9959 12.671 18.3577ZM12.1926 16.5657C11.1686 16.8331 10.168 16.4719 9.6257 15.6472C9.52023 15.4894 9.6257 15.3467 9.82281 15.3467C10.4751 15.4032 11.238 15.2902 11.8122 15.1496C12.3789 14.9951 13.1045 14.7043 13.6438 14.3344C13.8058 14.2173 13.9816 14.3014 13.9581 14.4964C13.9209 15.4852 13.2421 16.2908 12.1926 16.5657ZM9.69929 13.3234C9.32851 13.4288 9.28585 13.659 9.12179 13.6941C9.04187 13.7059 8.96195 13.6238 8.91507 13.4991C8.78827 13.058 9.06531 12.6073 9.49257 12.5157C9.92195 12.4027 10.3471 12.6542 10.476 13.058C10.5229 13.2104 10.4877 13.3234 10.3982 13.3585C10.2107 13.4075 10.037 13.22 9.69929 13.3234ZM12.7136 12.5157C12.3545 12.5977 12.2981 12.8534 12.1457 12.863C12.0775 12.8982 11.9859 12.7948 11.9273 12.668C11.8218 12.2525 12.0892 11.788 12.5048 11.6846C12.9534 11.5855 13.3827 11.8114 13.4882 12.2525C13.5468 12.4027 13.4882 12.5157 13.42 12.5391C13.2442 12.5977 13.0588 12.4027 12.7136 12.5157ZM20.6866 11.3363L15.7809 10.0119C15.685 9.98633 15.5795 9.97461 15.4975 9.96078L16.3286 13.0048C16.6195 14.0682 16.6333 15.0772 16.3989 15.9455C16.5236 15.9711 16.6525 15.9807 16.773 16.0159C17.6467 16.2322 18.236 16.895 18.2732 17.6771C18.2732 17.8742 18.0836 17.9776 17.9334 17.8252C17.4454 17.3745 17.0266 17.1603 16.4981 17.0101C16.3403 16.9653 16.1634 16.9184 16.0035 16.9046C15.5997 17.678 14.9498 18.3109 14.0772 18.7562C14.5375 19.1344 15.1288 19.4403 15.8385 19.6257C18.2678 20.2714 20.1335 19.1494 20.8068 16.603L21.7371 13.1443C21.997 12.1993 21.6433 11.5803 20.6866 11.3363ZM18.5992 15.1166C18.2636 15.0441 18.0548 14.6755 18.1581 14.3281C18.2285 13.9925 18.5854 13.7933 18.9349 13.887C19.2705 13.9691 19.4772 14.3281 19.3877 14.6637C19.2801 14.9994 18.9349 15.2061 18.5992 15.1166Z" fill="black"/>
</svg>
