<svg width="28" height="28" viewBox="0 0 28 28" fill="none" xmlns="http://www.w3.org/2000/svg">
<path d="M14.105 26.21C20.7369 26.21 26.2121 20.7273 26.2121 14.105C26.2121 7.47312 20.7273 2 14.0954 2C7.47523 2 2 7.47312 2 14.105C2 20.7273 7.48484 26.21 14.105 26.21ZM14.105 23.8255C8.71085 23.8255 4.39412 19.4991 4.39412 14.105C4.39412 8.71085 8.70124 4.38452 14.0954 4.38452C19.4895 4.38452 23.8276 8.71085 23.8276 14.105C23.8276 19.4991 19.4991 23.8255 14.105 23.8255Z" fill="black"/>
<path d="M9.73711 20.338C10.0873 20.338 10.3277 20.0645 10.3277 19.7335V16.3883C10.5525 16.2987 10.9842 16.1771 11.6369 16.1771C13.6722 16.1771 14.9658 17.1894 16.9741 17.1894C17.85 17.1894 18.2217 17.0998 18.6776 16.8868C19.1908 16.6557 19.4219 16.2905 19.4219 15.7358V10.0512C19.4219 9.6671 19.2103 9.40203 18.7024 9.40203C18.352 9.40203 17.849 9.6439 16.9176 9.6439C14.9824 9.6439 13.675 8.61781 11.5805 8.61781C10.6854 8.61781 10.3137 8.71906 9.88125 8.91289C9.37969 9.13437 9.12305 9.52835 9.12305 10.0618V19.7335C9.12305 20.0527 9.41039 20.338 9.73711 20.338Z" fill="black"/>
</svg>
