<svg width="28" height="28" viewBox="0 0 28 28" fill="none" xmlns="http://www.w3.org/2000/svg">
<path d="M5.7482 4.06705H22.8201V3.89525C22.8201 2.12501 21.3923 1.30518 19.4369 1.30518H9.1314C7.24749 1.30518 5.7482 2.12501 5.7482 3.89525V4.06705ZM7.96514 26.9073H20.6031C22.2644 26.9073 23.0861 26.1454 23.0861 24.4244V22.4064H23.9052C26.2853 22.4064 27.5683 21.1736 27.5683 18.7914V9.36414C27.5683 6.98196 26.2853 5.73954 23.9052 5.73954H4.65343C2.38117 5.73954 1 6.98196 1 9.36414V18.7914C1 21.1736 2.28297 22.4064 4.65343 22.4064H5.48429V24.4244C5.48429 26.1454 6.3039 26.9073 7.96514 26.9073ZM7.90374 11.3526C7.54492 11.3526 7.32765 11.1332 7.32765 10.7744V9.65594C7.32765 9.29712 7.54492 9.08946 7.90374 9.08946H9.02757C9.3789 9.08946 9.58655 9.29712 9.58655 9.65594V10.7744C9.58655 11.1332 9.3789 11.3526 9.02757 11.3526H7.90374ZM11.8162 11.3526C11.4691 11.3526 11.2572 11.1332 11.2572 10.7744V9.65594C11.2572 9.29712 11.4691 9.08946 11.8162 9.08946H12.9421C13.3009 9.08946 13.5182 9.29712 13.5182 9.65594V10.7744C13.5182 11.1332 13.3009 11.3526 12.9421 11.3526H11.8162ZM15.7478 11.3526C15.389 11.3526 15.1717 11.1332 15.1717 10.7744V9.65594C15.1717 9.29712 15.389 9.08946 15.7478 9.08946H16.8641C17.2209 9.08946 17.4327 9.29712 17.4327 9.65594V10.7744C17.4327 11.1332 17.2209 11.3526 16.8641 11.3526H15.7478ZM19.6602 11.3526C19.3014 11.3526 19.0916 11.1332 19.0916 10.7744V9.65594C19.0916 9.29712 19.3014 9.08946 19.6602 9.08946H20.7862C21.1354 9.08946 21.3527 9.29712 21.3527 9.65594V10.7744C21.3527 11.1332 21.1354 11.3526 20.7862 11.3526H19.6602ZM7.90374 15.3672C7.54492 15.3672 7.32765 15.1595 7.32765 14.8103V13.6823C7.32765 13.3234 7.54492 13.1041 7.90374 13.1041H9.02757C9.3789 13.1041 9.58655 13.3234 9.58655 13.6823V14.8103C9.58655 15.1595 9.3789 15.3672 9.02757 15.3672H7.90374ZM11.8162 15.3672C11.4691 15.3672 11.2572 15.1595 11.2572 14.8103V13.6823C11.2572 13.3234 11.4691 13.1041 11.8162 13.1041H12.9421C13.3009 13.1041 13.5182 13.3234 13.5182 13.6823V14.8103C13.5182 15.1595 13.3009 15.3672 12.9421 15.3672H11.8162ZM15.7478 15.3672C15.389 15.3672 15.1717 15.1595 15.1717 14.8103V13.6823C15.1717 13.3234 15.389 13.1041 15.7478 13.1041H16.8641C17.2209 13.1041 17.4327 13.3234 17.4327 13.6823V14.8103C17.4327 15.1595 17.2209 15.3672 16.8641 15.3672H15.7478ZM19.6602 15.3672C19.3014 15.3672 19.0916 15.1595 19.0916 14.8103V13.6823C19.0916 13.3234 19.3014 13.1041 19.6602 13.1041H20.7862C21.1354 13.1041 21.3527 13.3234 21.3527 13.6823V14.8103C21.3527 15.1595 21.1354 15.3672 20.7862 15.3672H19.6602ZM8.45827 24.8847C7.88873 24.8847 7.60725 24.6053 7.60725 24.0337V19.9984C7.60725 19.4364 7.89834 19.1591 8.45827 19.1591H20.1217C20.6816 19.1591 20.961 19.4364 20.961 19.9984V24.0337C20.961 24.6053 20.6816 24.8847 20.1217 24.8847H8.45827ZM10.5625 22.9773H18.137C18.6672 22.9773 19.0855 22.5473 19.0855 22.0054C19.0855 21.4848 18.6672 21.0548 18.137 21.0548H10.5625C10.0206 21.0548 9.60015 21.4848 9.60015 22.0054C9.60015 22.5473 10.0206 22.9773 10.5625 22.9773Z" fill="black"/>
</svg>
