<svg width="28" height="28" viewBox="0 0 28 28" fill="none" xmlns="http://www.w3.org/2000/svg">
<path d="M10.0358 5.6521C10.0358 7.79475 11.4683 9.58912 13.4375 10.1223V11.5162L15.8872 13.9637V10.1223C17.8585 9.60084 19.3006 7.79475 19.3006 5.6521C19.3006 3.09554 17.2423 1 14.6623 1C12.0962 1 10.0358 3.09554 10.0358 5.6521ZM13.4375 21.1429C13.4375 24.3362 14.1809 26.301 14.6623 26.301C15.1013 26.301 15.8101 24.6484 15.8375 22.0269L15.8459 20.6385L13.4375 18.23V21.1429ZM13.3494 5.91718C12.5007 5.91718 11.7596 5.17819 11.7596 4.3157C11.7596 3.46281 12.5007 2.73554 13.3494 2.73554C14.2161 2.73554 14.9295 3.46281 14.9295 4.3157C14.9295 5.17819 14.2161 5.91718 13.3494 5.91718Z" fill="black"/>
<path d="M21.7524 24.4983C22.1166 24.8604 22.7173 24.8604 23.0719 24.4983C23.4266 24.1341 23.4341 23.5484 23.0719 23.1788L6.59562 6.70995C6.23351 6.35745 5.62648 6.34573 5.26437 6.70995C4.91188 7.06034 4.91188 7.67698 5.26437 8.02737L21.7524 24.4983Z" fill="black"/>
</svg>
