<svg width="28" height="28" viewBox="0 0 28 28" fill="none" xmlns="http://www.w3.org/2000/svg">
<path d="M9.04937 24.8313H18.9444C20.2124 24.8313 20.9938 24.1001 20.9938 22.7681V22.5443C20.9938 19.6547 17.9676 16.6378 16.4282 15.108C15.6334 14.3133 15.6836 13.4444 16.4282 12.6977C17.9676 11.1776 20.9938 8.17452 20.9938 5.26148V5.0707C20.9938 3.74086 20.2124 3 18.9444 3H9.04937C7.7793 3 7 3.74086 7 5.0707V5.26148C7 8.17452 10.0359 11.1776 11.5635 12.6977C12.3198 13.4444 12.37 14.3133 11.5635 15.108C10.0359 16.6378 7 19.6547 7 22.5443V22.7681C7 24.1001 7.7793 24.8313 9.04937 24.8313Z" fill="black"/>
<path d="M10.0382 23.0034C9.5048 23.0034 9.36019 22.3816 9.72324 22.0357L13.2949 18.5955C13.484 18.4139 13.5426 18.3574 13.5426 18.075V13.0966C13.5426 12.5175 13.4203 12.2079 12.9965 11.8385C12.2535 11.1979 11.1963 10.2602 10.5014 9.5238C10.1735 9.18537 10.3375 8.75342 10.7662 8.75342H17.2255C17.6563 8.75342 17.8204 9.18537 17.4925 9.5238C16.8072 10.2602 15.7499 11.1979 14.9953 11.8385C14.5736 12.2079 14.4609 12.5175 14.4609 13.0966V18.075C14.4609 18.3574 14.5099 18.4139 14.699 18.5955L18.2706 22.0357C18.6337 22.3816 18.4891 23.0034 17.9556 23.0034H10.0382Z" fill="white"/>
</svg>
