<svg width="28" height="28" viewBox="0 0 28 28" fill="none" xmlns="http://www.w3.org/2000/svg">
<path d="M1 17.8555C1 21.6733 4.38484 25.4894 7.7214 25.4894C10.6963 25.4894 12.201 22.8599 13.8187 18.1968C13.9166 18.1968 14.0242 18.1872 14.1222 18.1776C14.2839 18.168 14.4339 18.1541 14.586 18.1211V22.9771C14.586 25.1807 15.7265 26.3584 17.8523 26.3584C21.67 26.3584 25.4957 22.9736 25.4957 19.637C25.4957 16.6579 22.8524 15.1553 18.1851 13.5398C18.1851 13.4397 18.1776 13.3342 18.168 13.2362C18.1583 13.0766 18.1445 12.9266 18.1094 12.767H22.9771C25.1711 12.767 26.3488 11.6266 26.3488 9.50078C26.3488 5.68305 22.964 1.85734 19.6274 1.85734C16.6483 1.85734 15.1478 4.49852 13.5301 9.16375C13.4301 9.16375 13.3246 9.17125 13.2266 9.18086C13.0649 9.19047 12.9128 9.20641 12.7628 9.23945V4.38132C12.7628 2.17773 11.6223 1 9.49656 1C5.67883 1 1.85312 4.38484 1.85312 7.7214C1.85312 10.6984 4.49641 12.201 9.15203 13.8187C9.16164 13.9262 9.16164 14.0434 9.17125 14.1414C9.18086 14.2893 9.20969 14.4414 9.22773 14.5914H4.37171C2.17773 14.5914 1 15.7223 1 17.8555ZM11.0807 13.6792C11.0807 12.2446 12.235 11.0807 13.6696 11.0807C15.1021 11.0807 16.2681 12.2509 16.2681 13.6792C16.2681 15.1117 15.1021 16.2777 13.6696 16.2777C12.2446 16.2777 11.0807 15.1075 11.0807 13.6792ZM12.1253 13.6792C12.1253 14.534 12.8052 15.2118 13.6696 15.2118C14.5244 15.2118 15.2022 14.534 15.2022 13.6792C15.2022 12.8244 14.5148 12.137 13.6696 12.137C12.8052 12.137 12.1253 12.8148 12.1253 13.6792Z" fill="black"/>
</svg>
