<svg width="28" height="28" viewBox="0 0 28 28" fill="none" xmlns="http://www.w3.org/2000/svg">
<path d="M14.105 26.2536C20.7369 26.2536 26.2121 20.7783 26.2121 14.1486C26.2121 7.52635 20.7273 2.0415 14.0954 2.0415C7.47523 2.0415 2 7.52635 2 14.1486C2 20.7783 7.48484 26.2536 14.105 26.2536Z" fill="black"/>
<path d="M8.90629 20.6846C8.59973 20.6846 8.32715 20.4099 8.32715 20.1034C8.32715 19.7989 8.59973 19.5627 8.90629 19.5627H9.1184V8.73198C9.1184 7.73167 9.6734 7.18628 10.6641 7.18628H15.9331C16.9355 7.18628 17.4788 7.73167 17.4788 8.73198V17.0619H19.2216C19.5758 17.0619 19.771 16.8859 19.771 16.5221V13.4384L18.7981 12.3057C18.4508 11.9019 18.4273 11.5473 18.7374 11.12L19.6144 9.89448L18.7777 8.55901C18.4381 7.98831 19.2634 7.48347 19.618 8.04784L20.4364 9.37886C20.626 9.70487 20.7507 10.0309 20.7507 10.4326V16.5317C20.7507 17.5269 20.2234 18.0584 19.2153 18.0584H17.4788V19.5627H17.6813C18.0146 19.5627 18.2701 19.801 18.2701 20.1034C18.2701 20.4099 18.0146 20.6846 17.6813 20.6846H8.90629ZM10.736 13.1987C10.736 13.561 10.9875 13.7966 11.3808 13.7966H15.2239C15.6214 13.7966 15.8708 13.561 15.8708 13.1987V9.41354C15.8708 9.05331 15.6214 8.82737 15.2239 8.82737H11.3808C10.9875 8.82737 10.736 9.05331 10.736 9.41354V13.1987Z" fill="white"/>
</svg>
