<svg width="35" height="28" viewBox="0 0 35 28" fill="none" xmlns="http://www.w3.org/2000/svg">
<path d="M10.8216 24.9624H14.6995C15.7502 24.9624 16.4451 24.2567 16.4451 23.3595C16.4451 22.8509 16.2408 22.3855 15.8421 21.9305C15.3623 21.3849 15.048 20.7709 15.048 20.0996C15.048 18.8119 15.9637 17.7788 17.4019 17.7788C18.84 17.7788 19.7557 18.8119 19.7557 20.0996C19.7557 20.7709 19.4318 21.3849 18.952 21.9305C18.563 22.3855 18.3586 22.8509 18.3586 23.3595C18.3586 24.2567 19.0535 24.9624 20.1042 24.9624H23.9747C26.3702 24.9624 27.683 23.671 27.683 21.3106V17.3869C27.683 17.1973 27.814 17.1078 28.0291 17.2538C28.7285 17.7221 29.5376 18.0486 30.4575 18.0486C32.7272 18.0486 34.8037 16.2462 34.8037 13.5148C34.8037 10.793 32.7272 8.98859 30.4575 8.98859C29.5376 8.98859 28.7285 9.31508 28.0291 9.78547C27.814 9.92938 27.683 9.84196 27.683 9.65024V5.64968C27.683 3.28929 26.3702 2 23.9747 2H20.1042C19.0535 2 18.3586 2.70359 18.3586 3.60288C18.3586 4.10937 18.563 4.57483 18.952 5.02976C19.4318 5.58499 19.7557 6.19156 19.7557 6.87031C19.7557 8.13875 18.8208 9.18148 17.4019 9.18148C15.983 9.18148 15.048 8.13875 15.048 6.87031C15.048 6.19156 15.3623 5.58499 15.8421 5.02976C16.2408 4.57483 16.4451 4.10937 16.4451 3.60288C16.4451 2.70359 15.7502 2 14.6995 2H10.8216C8.43351 2 7.12078 3.28929 7.12078 5.64968V9.65024C7.12078 9.84196 6.98977 9.92938 6.77461 9.78547C6.07734 9.31508 5.26828 8.98859 4.33663 8.98859C2.07867 8.98859 0 10.793 0 13.5148C0 16.2462 2.07867 18.0486 4.33663 18.0486C5.26828 18.0486 6.07734 17.7221 6.77461 17.2538C6.98977 17.1078 7.12078 17.1973 7.12078 17.3869V21.3106C7.12078 23.671 8.43351 24.9624 10.8216 24.9624ZM10.8546 22.7635C9.89671 22.7635 9.31967 22.2132 9.31967 21.2126V16.2247C9.31967 15.1644 8.61397 14.4716 7.71679 14.4716C7.2082 14.4716 6.74273 14.6738 6.28781 15.0746C5.73257 15.5544 5.12812 15.8762 4.44726 15.8762C3.17882 15.8762 2.13608 14.9434 2.13608 13.5148C2.13608 12.0959 3.17882 11.161 4.44726 11.161C5.12812 11.161 5.73257 11.4828 6.28781 11.9626C6.74273 12.3633 7.2082 12.5677 7.71679 12.5677C8.61397 12.5677 9.31967 11.8728 9.31967 10.8125V5.74765C9.31967 4.75671 9.89671 4.19678 10.8546 4.19678H13.3516C13.8623 4.19678 13.7119 4.45061 13.5818 4.68171C13.1733 5.36702 12.8756 6.11632 12.8756 6.98093C12.8756 9.24101 14.6705 11.3176 17.4019 11.3176C20.1333 11.3176 21.9281 9.24101 21.9281 6.98093C21.9281 6.11632 21.6305 5.36702 21.2219 4.68171C21.094 4.45061 20.9414 4.19678 21.4521 4.19678H23.9491C24.9091 4.19678 25.4862 4.75671 25.4862 5.74765V10.8125C25.4862 11.8728 26.1898 12.5677 27.0891 12.5677C27.5976 12.5677 28.061 12.3633 28.518 11.9626C29.0637 11.4828 29.6777 11.161 30.3469 11.161C31.6249 11.161 32.6677 12.0959 32.6677 13.5148C32.6677 14.9434 31.6249 15.8762 30.3469 15.8762C29.6777 15.8762 29.0637 15.5544 28.518 15.0746C28.061 14.6738 27.5976 14.4716 27.0891 14.4716C26.1898 14.4716 25.4862 15.1644 25.4862 16.2247V21.2126C25.4862 22.2132 24.9091 22.7635 23.9491 22.7635H21.4521C20.9414 22.7635 21.094 22.5097 21.2219 22.2786C21.6305 21.5933 21.9281 20.844 21.9281 19.989C21.9281 17.7022 20.1525 15.6427 17.4019 15.6427C14.6512 15.6427 12.8756 17.7022 12.8756 19.989C12.8756 20.844 13.1733 21.5933 13.5818 22.2786C13.7119 22.5097 13.8623 22.7635 13.3516 22.7635H10.8546Z" fill="black"/>
</svg>
