<svg width="28" height="28" viewBox="0 0 28 28" fill="none" xmlns="http://www.w3.org/2000/svg">
<path d="M6.84421 24.8972H21.0295C23.5685 24.8972 24.8737 23.5919 24.8737 21.0914V6.82921C24.8737 4.32656 23.5685 3.02344 21.0295 3.02344H6.84421C4.31484 3.02344 3 4.31695 3 6.82921V21.0914C3 23.6016 4.31484 24.8972 6.84421 24.8972Z" fill="black"/>
<path d="M11.078 9.56684C11.078 7.97802 12.3825 6.6906 13.968 6.68849C15.559 6.68427 16.8581 7.96958 16.8581 9.56684C16.8581 10.8386 16.0432 11.9057 14.9013 12.2814V18.205C14.9013 19.8735 14.5516 21.4447 13.968 21.4447C13.3877 21.4447 13.0209 19.8501 13.0209 18.205V12.2793C11.9004 11.8939 11.078 10.8289 11.078 9.56684ZM12.3439 8.80348C12.3439 9.30715 12.773 9.73629 13.2511 9.73629C13.7569 9.73629 14.1743 9.30715 14.1743 8.80348C14.1839 8.31153 13.7569 7.8845 13.2511 7.8845C12.773 7.8845 12.3342 8.31153 12.3439 8.80348Z" fill="white"/>
</svg>
