<svg width="29" height="28" viewBox="0 0 29 28" fill="none" xmlns="http://www.w3.org/2000/svg">
<path d="M14.1645 23.7135C18.8742 23.7135 22.7156 19.8817 22.7156 15.1527C22.7156 10.4312 18.8742 6.61115 14.1645 6.61115C9.45466 6.61115 5.60364 10.4312 5.60364 15.1527C5.60364 19.8913 9.45466 23.7135 14.1645 23.7135ZM14.1623 8.81333C17.6604 8.81333 20.5156 11.6643 20.5156 15.1527C20.5156 18.6508 17.6604 21.5059 14.1623 21.5059C10.6791 21.5059 7.80371 18.6508 7.80371 15.1527C7.80371 11.6643 10.6685 8.81333 14.1623 8.81333ZM14.1666 16.2843C14.6709 16.2939 15.1423 15.8352 15.1338 15.3074L15.0642 8.6263L13.2391 8.62419L13.1759 15.284C13.1674 15.8491 13.5877 16.2587 14.1666 16.2843Z" fill="black"/>
<path d="M5.22257 25.5841C6.07125 25.5841 6.74953 24.9079 6.74953 24.0571C6.74953 23.2084 6.06164 22.5323 5.22257 22.5323C4.3718 22.5323 3.69562 23.218 3.69562 24.0571C3.69562 24.9175 4.38351 25.5841 5.22257 25.5841ZM1.53656 16.6893C2.38523 16.6893 3.06351 15.9918 3.06351 15.1527C3.06351 14.2923 2.36601 13.6258 1.53656 13.6258C0.687889 13.6258 0 14.3137 0 15.1527C0 16.0014 0.697499 16.6893 1.53656 16.6893ZM5.22257 7.79242C6.07125 7.79242 6.74953 7.10453 6.74953 6.26547C6.74953 5.40719 6.06164 4.73852 5.22257 4.73852C4.3718 4.73852 3.69562 5.4168 3.69562 6.26547C3.69562 7.11625 4.38351 7.79242 5.22257 7.79242ZM14.1645 4.06351C15.0131 4.06351 15.6914 3.37562 15.6914 2.52695C15.6914 1.67617 15.0035 1 14.1645 1C13.3062 1 12.6375 1.68789 12.6375 2.52695C12.6375 3.38523 13.3158 4.06351 14.1645 4.06351ZM23.0967 7.7732C23.9454 7.7732 24.6237 7.08531 24.6237 6.24625C24.6237 5.38797 23.9358 4.7193 23.0967 4.7193C22.2384 4.7193 21.5602 5.39758 21.5602 6.24625C21.5602 7.09492 22.248 7.7732 23.0967 7.7732ZM26.7923 16.6893C27.641 16.6893 28.3289 15.9918 28.3289 15.1527C28.3289 14.2923 27.6314 13.6258 26.7923 13.6258C25.9341 13.6258 25.2558 14.3137 25.2558 15.1527C25.2558 16.0014 25.9533 16.6893 26.7923 16.6893ZM23.0871 25.5937C23.9358 25.5937 24.6141 24.9175 24.6141 24.0667C24.6141 23.218 23.9262 22.5419 23.0871 22.5419C22.2288 22.5419 21.5506 23.2277 21.5506 24.0667C21.5506 24.9271 22.2384 25.5937 23.0871 25.5937Z" fill="black"/>
</svg>
