<svg width="28" height="28" viewBox="0 0 28 28" fill="none" xmlns="http://www.w3.org/2000/svg">
<path d="M14.105 26.2301C20.7369 26.2301 26.2121 20.7549 26.2121 14.123C26.2121 7.50291 20.7273 2.01807 14.0954 2.01807C7.47523 2.01807 2 7.50291 2 14.123C2 20.7549 7.48484 26.2301 14.105 26.2301Z" fill="black"/>
<path d="M9.33569 16.3639C9.33569 15.0791 10.407 13.7384 12.1002 13.1269L12.2973 10.3268C11.4258 9.83044 10.7225 9.2806 10.4145 8.8831C10.2387 8.66255 10.145 8.43567 10.145 8.23224C10.145 7.83614 10.4548 7.55396 10.8969 7.55396H17.3344C17.7765 7.55396 18.0863 7.83614 18.0863 8.23224C18.0863 8.43567 17.9905 8.66044 17.8264 8.87349C17.5227 9.2731 16.8151 9.83044 15.9341 10.3268L16.1216 13.1269C17.8222 13.7384 18.8956 15.0791 18.8956 16.3639C18.8956 16.9102 18.5314 17.2648 17.9755 17.2648H14.9321V19.3904C14.9321 20.5848 14.3562 21.7834 14.1146 21.7834C13.8751 21.7834 13.2992 20.5848 13.2992 19.3904V17.2648H10.2462C9.6903 17.2648 9.33569 16.9102 9.33569 16.3639Z" fill="white"/>
</svg>
