<svg width="28" height="28" viewBox="0 0 28 28" fill="none" xmlns="http://www.w3.org/2000/svg">
<path d="M14.105 26.21C20.7369 26.21 26.2121 20.7273 26.2121 14.105C26.2121 7.47312 20.7273 2 14.0954 2C7.47523 2 2 7.47312 2 14.105C2 20.7273 7.48484 26.21 14.105 26.21ZM14.105 23.8255C8.71085 23.8255 4.39412 19.4991 4.39412 14.105C4.39412 8.71085 8.70124 4.38452 14.0954 4.38452C19.4895 4.38452 23.8276 8.71085 23.8276 14.105C23.8276 19.4991 19.4991 23.8255 14.105 23.8255Z" fill="black"/>
<path d="M9.88555 17.7051H17.6382C18.4939 17.7051 19.3025 17.6294 19.8629 17.0648C20.4371 16.4832 20.5245 15.6862 20.5245 14.8401V13.3654C20.5245 12.5194 20.4371 11.7108 19.8629 11.1366C19.3025 10.5762 18.4843 10.4888 17.6382 10.4888H9.88555C9.03945 10.4888 8.21914 10.5762 7.6332 11.1366C7.0707 11.7108 6.995 12.5194 6.995 13.3654V14.8401C6.995 15.6862 7.0707 16.4832 7.6332 17.0648C8.21914 17.6294 9.02984 17.7051 9.88555 17.7051ZM9.7332 16.3938C9.17375 16.3938 8.79547 16.2904 8.60258 16.0997C8.40969 15.9185 8.32977 15.5423 8.32977 14.9786V13.2131C8.32977 12.6536 8.40969 12.2754 8.60258 12.0942C8.79547 11.9035 9.18336 11.798 9.7332 11.798H17.7884C18.3266 11.798 18.7262 11.9035 18.9212 12.1038C19.1002 12.285 19.2111 12.675 19.2111 13.2131V14.9786C19.2111 15.5306 19.1002 15.9185 18.9212 16.0997C18.7262 16.2904 18.3362 16.3938 17.7884 16.3938H9.7332ZM9.79602 15.7024H17.7394C18.0411 15.7024 18.2159 15.6693 18.3406 15.5447C18.4674 15.42 18.5218 15.2334 18.5218 14.9456V13.2386C18.5218 12.9508 18.4674 12.7622 18.3406 12.6375C18.2159 12.5224 18.0411 12.4818 17.7394 12.4818H9.79602C9.49227 12.4818 9.30359 12.5224 9.17891 12.6375C9.06804 12.7622 9.01156 12.9412 9.01156 13.2386V14.9456C9.01156 15.243 9.06804 15.4296 9.17891 15.5447C9.30359 15.6693 9.49227 15.7024 9.79602 15.7024ZM21.0296 15.4561C21.4313 15.423 21.995 14.8966 21.995 14.1028C21.995 13.309 21.4313 12.7729 21.0296 12.7495V15.4561Z" fill="black"/>
</svg>
