<svg width="28" height="28" viewBox="0 0 28 28" fill="none" xmlns="http://www.w3.org/2000/svg">
<path d="M13.7336 25.8079C13.9401 25.8079 14.2457 25.727 14.5429 25.5747C21.2573 22.1163 23.4672 20.3006 23.4672 16.0956V7.37569C23.4672 6.01257 22.9431 5.52249 21.7942 5.04062C20.5075 4.51187 16.1964 2.97929 14.9404 2.55483C14.5565 2.43249 14.125 2.35913 13.7336 2.35913C13.3443 2.35913 12.9128 2.4421 12.5364 2.55483C11.2708 2.96007 6.96179 4.52148 5.67507 5.04062C4.53578 5.51077 4 6.01257 4 7.37569V16.0956C4 20.3006 6.31023 21.9487 12.9243 25.5747C13.2311 25.7367 13.5292 25.8079 13.7336 25.8079Z" fill="black"/>
<path d="M12.4296 19.3517C11.9868 19.3517 11.625 19.1698 11.2992 18.7449L8.42526 15.2516C8.21784 14.9834 8.10815 14.7034 8.10815 14.416C8.10815 13.8095 8.5837 13.3252 9.18815 13.3252C9.55002 13.3252 9.82893 13.4614 10.1324 13.846L12.389 16.7138L17.2347 8.95737C17.4911 8.54558 17.8232 8.34448 18.1902 8.34448C18.7659 8.34448 19.3054 8.75511 19.3054 9.35956C19.3054 9.63963 19.1711 9.92815 18.9998 10.1857L13.5152 18.7365C13.248 19.1389 12.866 19.3517 12.4296 19.3517Z" fill="white"/>
</svg>
