<svg width="28" height="28" viewBox="0 0 28 28" fill="none" xmlns="http://www.w3.org/2000/svg">
<path d="M14.105 26.21C20.7369 26.21 26.2121 20.7273 26.2121 14.105C26.2121 7.47312 20.7273 2 14.0954 2C7.47523 2 2 7.47312 2 14.105C2 20.7273 7.48484 26.21 14.105 26.21Z" fill="black"/>
<path d="M7.69947 13.9407C7.6976 12.8626 8.14619 11.4823 8.80994 10.5087C9.32721 10.6641 9.63283 11.4212 9.64244 11.9895C8.90111 12.5626 8.26197 13.2048 7.69947 13.9407ZM10.4091 11.4465C10.2717 10.8214 9.90658 10.0534 9.30822 9.86891C9.81096 9.30758 10.3967 8.84211 11.0463 8.47883C10.8593 9.18852 10.823 10.0716 10.954 11.1266C10.7599 11.2236 10.5872 11.3419 10.4091 11.4465ZM11.7185 10.7485C11.5959 9.53281 11.7408 8.67078 11.9309 8.0825C12.5341 7.86922 13.2199 7.72625 13.864 7.69742C13.0443 8.23438 12.5704 9.0725 12.5704 10.0184C12.5704 10.1612 12.5704 10.2837 12.5822 10.3913C12.289 10.5001 11.9925 10.6142 11.7185 10.7485ZM13.4212 10.1656C13.3924 8.97476 14.0754 8.25875 15.4237 7.82281C17.07 8.18047 18.4968 9.18289 19.4102 10.5401C18.3204 10.096 17.0772 9.8682 15.8203 9.8682C14.9986 9.8682 14.1907 9.95563 13.4212 10.1656ZM7.80986 15.2623C8.32455 14.4432 8.91916 13.738 9.60752 13.1051C9.48939 14.9314 9.06283 17.0316 9.709 18.7334C8.75228 17.8222 8.06416 16.603 7.80986 15.2623ZM10.4752 12.4016C10.6713 12.2715 10.8696 12.1372 11.0817 12.0083C11.5249 14.4526 12.7235 17.5491 15.089 20.4573C14.7642 20.5105 14.4415 20.5222 14.1145 20.5222C13.3066 20.5222 12.5393 20.3419 11.8573 20.0295C9.26041 18.2087 10.4658 15.203 10.4752 12.4016ZM11.8228 11.6068C12.1532 11.4512 12.4816 11.3115 12.8142 11.2027C14.0074 13.8043 19.0652 14.7411 19.3291 17.8069C18.517 18.957 17.3393 19.8214 15.9792 20.2412C13.4327 17.2074 12.2233 13.9702 11.8228 11.6068ZM13.6521 10.9557C14.3503 10.7851 15.0815 10.6955 15.8203 10.6955C17.3522 10.6955 18.7275 11.0523 20.058 11.7636C20.3599 12.4897 20.5317 13.284 20.5317 14.105C20.5317 15.0533 20.3154 15.9376 19.9446 16.7452C18.9129 13.8683 14.6948 12.9296 13.6521 10.9557Z" fill="white"/>
</svg>
