<svg width="28" height="28" viewBox="0 0 28 28" fill="none" xmlns="http://www.w3.org/2000/svg">
<path d="M5.7482 4.06705H22.8201V3.89525C22.8201 2.12501 21.3923 1.30518 19.4369 1.30518H9.1314C7.24749 1.30518 5.7482 2.12501 5.7482 3.89525V4.06705ZM4.65343 22.4064H4.87867V16.0333C4.87867 14.2244 5.92656 13.1786 7.73546 13.1786H20.8244C22.6333 13.1786 23.6791 14.2244 23.6791 16.0333V22.4064H23.9052C26.2853 22.4064 27.5683 21.1736 27.5683 18.7914V9.36414C27.5683 6.98196 26.2853 5.73954 23.9052 5.73954H4.65343C2.38117 5.73954 1 6.98196 1 9.36414V18.7914C1 21.1736 2.28297 22.4064 4.65343 22.4064ZM6.59382 25.3126C6.59382 26.2703 7.23085 26.9073 8.1789 26.9073H20.3809C21.3386 26.9073 21.966 26.2703 21.966 25.3126V16.0333C21.966 15.3421 21.5155 14.8916 20.8244 14.8916H7.73546C7.0539 14.8916 6.59382 15.3421 6.59382 16.0333V25.3126ZM10.6708 25.1694C10.086 25.1694 9.5971 24.7019 9.5971 24.0958C9.5971 23.5014 10.086 23.0317 10.6708 23.0317C11.2673 23.0317 11.7562 23.5014 11.7562 24.0958C11.7562 24.7019 11.2673 25.1694 10.6708 25.1694ZM10.6708 21.9625C10.086 21.9625 9.5971 21.4949 9.5971 20.8984C9.5971 20.2944 10.086 19.8248 10.6708 19.8248C11.2673 19.8248 11.7562 20.2944 11.7562 20.8984C11.7562 21.4949 11.2673 21.9625 10.6708 21.9625ZM10.6708 18.7673C10.086 18.7673 9.5971 18.2976 9.5971 17.6936C9.5971 17.0971 10.086 16.6295 10.6708 16.6295C11.2673 16.6295 11.7562 17.0971 11.7562 17.6936C11.7562 18.2976 11.2673 18.7673 10.6708 18.7673ZM17.8987 25.1694C17.3043 25.1694 16.825 24.7019 16.825 24.0958C16.825 23.5014 17.3043 23.0317 17.8987 23.0317C18.4952 23.0317 18.9745 23.5014 18.9745 24.0958C18.9745 24.7019 18.4952 25.1694 17.8987 25.1694ZM17.8987 21.9625C17.3043 21.9625 16.825 21.5033 16.825 20.8984C16.825 20.2944 17.3043 19.8248 17.8987 19.8248C18.4952 19.8248 18.9745 20.2944 18.9745 20.8984C18.9745 21.4949 18.4952 21.9625 17.8987 21.9625ZM17.8987 18.7673C17.3043 18.7673 16.825 18.2976 16.825 17.6936C16.825 17.0971 17.3043 16.6295 17.8987 16.6295C18.4952 16.6295 18.9745 17.0971 18.9745 17.6936C18.9745 18.2976 18.4952 18.7673 17.8987 18.7673ZM19.8756 9.79774C19.8756 8.96172 20.5881 8.2375 21.4455 8.2375C22.2719 8.2375 22.9961 8.96172 22.9961 9.79774C22.9961 10.6572 22.274 11.3345 21.4455 11.3462C20.586 11.3483 19.8756 10.6668 19.8756 9.79774Z" fill="black"/>
</svg>
