<svg width="28" height="28" viewBox="0 0 28 28" fill="none" xmlns="http://www.w3.org/2000/svg">
<path d="M14.2812 25.5958C20.513 25.5958 25.5623 20.5464 25.5623 14.3146C25.5623 8.08491 20.513 3.02382 14.2812 3.02382C8.04937 3.02382 3 8.08491 3 14.3146C3 20.5464 8.04937 25.5958 14.2812 25.5958ZM14.2812 23.2691C9.33023 23.2691 5.32663 19.2655 5.32663 14.3146C5.32663 9.37538 9.33023 5.36217 14.2812 5.36217C19.2225 5.36217 23.2336 9.37538 23.2336 14.3146C23.2336 19.2655 19.2225 23.2691 14.2812 23.2691ZM4.5061 6.0482C4.68399 6.0482 4.81078 6.01421 4.98328 5.8832L9.11156 2.85086C9.30117 2.71023 9.41085 2.5164 9.41085 2.31086C9.41085 2.05633 9.28734 1.84023 9.07546 1.65273C8.57953 1.23531 7.77633 1 7.02047 1C5.13539 1 3.61149 2.49226 3.61149 4.36258C3.61149 4.83203 3.68602 5.27406 3.82125 5.56468C3.95227 5.86187 4.20469 6.0482 4.5061 6.0482ZM24.0605 6.0482C24.3598 6.0482 24.6143 5.85226 24.7528 5.56468C24.8784 5.28367 24.9508 4.83203 24.9508 4.36258C24.9508 2.49226 23.4387 1 21.5419 1C20.786 1 19.9828 1.23531 19.4869 1.65273C19.275 1.84023 19.1515 2.05633 19.1515 2.31086C19.1515 2.5164 19.2612 2.71023 19.4625 2.85086L23.5812 5.8832C23.7612 6.01421 23.8784 6.0482 24.0605 6.0482ZM4.38516 25.3951C4.78523 25.8027 5.42484 25.7943 5.83242 25.375L8.15062 23.0706L6.73312 21.6648L4.39477 23.9882C3.99141 24.3819 4.00102 25.0131 4.38516 25.3951ZM24.1772 25.3951C24.5709 25.0131 24.5709 24.3819 24.1676 23.9882L21.8292 21.6648L20.4213 23.0706L22.7299 25.375C23.1396 25.7922 23.7771 25.8027 24.1772 25.3951Z" fill="black"/>
<path d="M9.17487 15.7513H14.2716C14.7792 15.7513 15.1826 15.3576 15.1826 14.8499V8.01412C15.1826 7.50857 14.7792 7.10522 14.2716 7.10522C13.7618 7.10522 13.3702 7.50857 13.3702 8.01412V13.941H9.17487C8.66511 13.941 8.27136 14.3444 8.27136 14.8499C8.27136 15.3576 8.66511 15.7513 9.17487 15.7513Z" fill="black"/>
</svg>
