<svg width="28" height="28" viewBox="0 0 28 28" fill="none" xmlns="http://www.w3.org/2000/svg">
<path d="M2.85011 16.2481H3.98824V13.6648H2.85011V16.2481ZM8.35722 27.3272C9.86003 27.3272 10.5756 25.9247 9.74707 24.4402L5.3748 16.7047C4.99347 16.0433 4.40144 15.725 3.67301 15.725C2.55246 15.725 1.92949 16.5453 2.00637 17.6773C2.19856 19.1014 3.22887 21.5241 4.48159 23.4703C6.20285 26.3115 7.23105 27.3272 8.35722 27.3272ZM25.6414 16.2481V13.6648H24.5033V16.2481H25.6414ZM20.1322 27.3272C21.2605 27.3272 22.2887 26.3115 24.01 23.4703C25.2531 21.5241 26.293 19.1014 26.4852 17.6773C26.5621 16.5453 25.937 15.725 24.8185 15.725C24.0901 15.725 23.4981 16.0433 23.1167 16.7047L18.7445 24.4402C17.9064 25.9247 18.6315 27.3272 20.1322 27.3272ZM2.33777 13.5479C2.33777 14.1556 2.75683 14.5629 3.36668 14.5629C3.97652 14.5629 4.37003 14.1577 4.37003 13.5479C4.41808 7.30739 8.19034 3.32067 14.241 3.32067C20.3012 3.32067 24.0639 7.30739 24.1119 13.5479C24.1119 14.1577 24.515 14.5629 25.1228 14.5629C25.7347 14.5629 26.1442 14.1556 26.1442 13.5479C26.1442 6.26092 21.606 1.27881 14.241 1.27881C6.87597 1.27881 2.33777 6.26092 2.33777 13.5479Z" fill="black"/>
<path d="M11.9749 24.9291C12.7692 24.4786 12.979 23.4849 12.4732 22.6001L8.56408 15.6823C8.05619 14.7975 7.10393 14.4865 6.31502 14.9433C5.82002 15.2105 5.71455 15.6736 5.9658 16.1112L10.7899 24.6129C11.055 25.0727 11.5001 25.1963 11.9749 24.9291ZM16.5164 24.9291C16.9913 25.1963 17.4363 25.0727 17.6918 24.6129L22.5159 16.1112C22.7768 15.6736 22.6713 15.2105 22.1763 14.9433C21.3778 14.4865 20.4352 14.7975 19.9177 15.6823L16.0085 22.6001C15.5027 23.4849 15.7221 24.4786 16.5164 24.9291ZM7.37604 7.57193C9.28736 6.52896 11.5416 6.01967 14.2409 6.02177C16.9498 6.01967 19.204 6.52896 21.1057 7.57193C19.6001 5.54623 17.3538 4.50912 14.2409 4.51123C11.1375 4.50912 8.89127 5.54623 7.37604 7.57193Z" fill="white"/>
</svg>
