<svg width="28" height="28" viewBox="0 0 28 28" fill="none" xmlns="http://www.w3.org/2000/svg">
<path d="M14.105 26.21C20.7369 26.21 26.2121 20.7273 26.2121 14.105C26.2121 7.47312 20.7273 2 14.0954 2C7.47523 2 2 7.47312 2 14.105C2 20.7273 7.48484 26.21 14.105 26.21ZM14.105 23.8255C8.71085 23.8255 4.39412 19.4991 4.39412 14.105C4.39412 8.71085 8.70124 4.38452 14.0954 4.38452C19.4895 4.38452 23.8276 8.71085 23.8276 14.105C23.8276 19.4991 19.4991 23.8255 14.105 23.8255Z" fill="black"/>
<path d="M20.8201 11.2913L15.5602 8.89907C15.0094 8.65086 14.5482 8.52407 14.0954 8.53368C13.6426 8.52407 13.1909 8.65086 12.6305 8.89907L7.38238 11.2913C7.01394 11.4638 6.82129 11.7716 6.82129 12.0727C6.82129 12.3856 7.01394 12.6762 7.38238 12.8466L9.46457 13.7881L12.9174 12.189C12.8982 12.1463 12.8886 12.1154 12.8886 12.0727C12.8886 11.6703 13.5043 11.3977 14.1146 11.3977C14.727 11.3977 15.3331 11.6703 15.3331 12.0727C15.3331 12.489 14.727 12.7691 14.1146 12.7691C13.9229 12.7691 13.7387 12.7456 13.5704 12.6945L10.3409 14.2023L12.6305 15.2485C13.1909 15.5159 13.6426 15.6235 14.0954 15.6097C14.5482 15.6235 15.0094 15.5159 15.5602 15.2485L20.8201 12.8466C21.1864 12.6741 21.3716 12.3856 21.3716 12.0727C21.3716 11.7716 21.1864 11.4638 20.8201 11.2913ZM14.0954 19.0883C17.2592 19.0883 19.3744 17.7233 19.3744 16.0754V14.3841L15.8872 15.9844C15.2405 16.2774 14.6462 16.4298 14.0954 16.4084C13.5446 16.4298 12.9544 16.2795 12.3057 15.9844L10.3121 15.0734V18.1998C11.24 18.7505 12.5429 19.0883 14.0954 19.0883ZM8.81629 14.3841V16.0754C8.81629 16.5336 9.06473 17.0762 9.48379 17.5452V14.6848L8.81629 14.3841ZM9.48379 19.2472H10.3121V18.1998C9.98957 18.0113 9.72239 17.791 9.48379 17.5452V19.2472ZM9.06122 19.3114V20.438C9.06122 20.8831 9.34551 21.177 9.79598 21.177H9.99778C10.4482 21.177 10.7464 20.8831 10.7464 20.438V19.3114C10.7464 18.8588 10.4482 18.5724 9.99778 18.5724H9.79598C9.34551 18.5724 9.06122 18.8588 9.06122 19.3114Z" fill="black"/>
</svg>
