<svg width="28" height="28" viewBox="0 0 28 28" fill="none" xmlns="http://www.w3.org/2000/svg">
<path d="M1 16.7751C1 19.2587 2.29047 20.5808 4.84421 20.5808H5.21734V10.4976C5.21734 7.03772 7.29554 4.98835 10.7746 4.98835H20.5478V4.82288C20.5478 2.32656 19.233 1.02344 16.7132 1.02344H4.84421C2.30523 1.02344 1 2.32656 1 4.82921V16.7751Z" fill="black"/>
<path d="M10.7746 26.1522H22.5444C25.0663 26.1522 26.379 24.8469 26.379 22.3464V10.4975C26.379 7.997 25.0663 6.69177 22.5444 6.69177H10.7746C8.23565 6.69177 6.93042 7.98739 6.93042 10.4975V22.3464C6.93042 24.8469 8.23565 26.1522 10.7746 26.1522Z" fill="black"/>
<path d="M12.0202 13.5273C11.0667 13.5156 10.3008 12.7614 10.3008 11.8026C10.3008 10.8608 11.0667 10.0949 12.0202 10.0949C12.9577 10.0949 13.7332 10.863 13.7332 11.8026C13.7332 12.7635 12.9555 13.5508 12.0202 13.5273ZM21.2515 13.5273C20.3098 13.5156 19.5342 12.7614 19.5342 11.8026C19.5342 10.8608 20.3098 10.0949 21.2515 10.0949C22.1932 10.0949 22.9667 10.8608 22.9667 11.8026C22.9667 12.7635 22.1911 13.5508 21.2515 13.5273ZM16.631 18.1595C15.6872 18.1595 14.9255 17.3861 14.9255 16.423C14.9255 15.4813 15.6914 14.7313 16.631 14.7313C17.5664 14.7313 18.3441 15.4834 18.3441 16.423C18.3441 17.3819 17.5706 18.1595 16.631 18.1595ZM12.0159 22.7842C11.0667 22.7842 10.3104 22.0087 10.3104 21.0552C10.3104 20.1081 11.0667 19.3539 12.0159 19.3539C12.9534 19.3539 13.7194 20.1102 13.7194 21.0552C13.7194 22.0066 12.9555 22.7842 12.0159 22.7842ZM21.2515 22.7842C20.3119 22.7842 19.5481 22.0066 19.5481 21.0552C19.5481 20.1081 20.3119 19.3539 21.2515 19.3539C22.1911 19.3539 22.9667 20.1081 22.9667 21.0552C22.9667 22.0066 22.1932 22.7842 21.2515 22.7842Z" fill="white"/>
</svg>
