<svg width="28" height="28" viewBox="0 0 28 28" fill="none" xmlns="http://www.w3.org/2000/svg">
<path d="M14.105 26.21C20.7369 26.21 26.2121 20.7273 26.2121 14.105C26.2121 7.47312 20.7273 2 14.0954 2C7.47523 2 2 7.47312 2 14.105C2 20.7273 7.48484 26.21 14.105 26.21Z" fill="black"/>
<path d="M14.5597 20.9025V14.4684L20.4207 11.1471C20.4612 11.2751 20.4709 11.4181 20.4709 11.5728V16.5304C20.4709 17.4192 20.1437 17.7663 19.5601 18.1083L14.7233 20.8291C14.6734 20.8589 14.6213 20.8886 14.5597 20.9025ZM13.6461 20.9025C13.5866 20.8886 13.5345 20.8589 13.4729 20.8291L8.64568 18.1083C8.05248 17.7663 7.75623 17.4192 7.75623 16.5304V11.5728C7.75623 11.4181 7.75623 11.2751 7.78506 11.1471L13.6461 14.4684V20.9025ZM14.1029 13.6699L8.20576 10.3582C8.29412 10.2603 8.41975 10.1761 8.57631 10.0995L10.8249 8.8301L16.7476 12.1811L14.1029 13.6699ZM17.6961 11.6574L11.734 8.3126L12.943 7.63877C13.3297 7.42033 13.7269 7.30103 14.1029 7.30103C14.4905 7.30103 14.8857 7.42033 15.2745 7.63877L19.6316 10.0995C19.7806 10.1761 19.9137 10.2603 20.0042 10.3582L17.6961 11.6574Z" fill="white"/>
</svg>
