<svg width="29" height="28" viewBox="0 0 29 28" fill="none" xmlns="http://www.w3.org/2000/svg">
<path d="M8.00905 24.8972H20.453C22.8649 24.8972 23.8455 23.5877 24.2086 21.2088L25.8642 10.2656H2.59781L4.26305 21.2088C4.62609 23.5973 5.60671 24.8972 8.00905 24.8972ZM2.06601 8.56218H26.4077C27.753 8.56218 28.4716 7.76437 28.4716 6.40757V5.17594C28.4716 3.81914 27.753 3.02344 26.4077 3.02344H2.06601C0.782576 3.02344 0 3.81914 0 5.17594V6.40757C0 7.76437 0.72281 8.56218 2.06601 8.56218Z" fill="black"/>
<path d="M15.312 21.1404C15.312 21.7191 14.8269 22.163 14.2407 22.163C13.6567 22.163 13.1619 21.7191 13.1619 21.1404V17.2275L13.2608 15.3347L12.3437 16.305L11.4355 17.2312C11.2491 17.4302 10.9831 17.5589 10.715 17.5589C10.152 17.5589 9.75195 17.1651 9.75195 16.6181C9.75195 16.3052 9.86913 16.0849 10.0946 15.8796L13.426 12.8358C13.7113 12.5761 13.9452 12.4603 14.2407 12.4603C14.5384 12.4603 14.7723 12.5761 15.0575 12.8358L18.3889 15.8796C18.6144 16.0849 18.7316 16.3052 18.7316 16.6181C18.7316 17.1651 18.3123 17.5589 17.7685 17.5589C17.495 17.5589 17.2206 17.4302 17.0481 17.2312L16.142 16.305L15.2227 15.3347L15.312 17.2275V21.1404Z" fill="white"/>
</svg>
