<svg width="28" height="28" viewBox="0 0 28 28" fill="none" xmlns="http://www.w3.org/2000/svg">
<path d="M14.105 26.21C20.7369 26.21 26.2121 20.7273 26.2121 14.105C26.2121 7.47312 20.7273 2 14.0954 2C7.47523 2 2 7.47312 2 14.105C2 20.7273 7.48484 26.21 14.105 26.21ZM14.105 23.8255C8.71085 23.8255 4.39412 19.4991 4.39412 14.105C4.39412 8.71085 8.70124 4.38452 14.0954 4.38452C19.4895 4.38452 23.8276 8.71085 23.8276 14.105C23.8276 19.4991 19.4991 23.8255 14.105 23.8255Z" fill="black"/>
<path d="M7.2146 18.2436C7.2146 18.5206 7.4096 18.7039 7.68663 18.7039H8.01264C8.28967 18.7039 8.47928 18.5206 8.47928 18.2436V17.4676C8.54327 17.4793 8.72116 17.4814 8.86389 17.4814H19.3461C19.4888 17.4814 19.6688 17.4793 19.7328 17.4676V18.2436C19.7328 18.5206 19.9224 18.7039 20.1995 18.7039H20.5255C20.8121 18.7039 20.9975 18.5206 20.9975 18.2436V14.9956C20.9975 13.9376 20.4062 13.358 19.3461 13.358H8.86389C7.80381 13.358 7.2146 13.9376 7.2146 14.9956V18.2436ZM8.53483 12.5506H9.9296V11.814C9.9296 11.2951 10.2087 11.0106 10.7394 11.0106H12.7325C13.2439 11.0106 13.5305 11.2951 13.5305 11.814V12.5506H14.7392V11.814C14.7392 11.2951 15.0259 11.0106 15.564 11.0106H17.4439C18.0012 11.0106 18.29 11.2951 18.29 11.814V12.5506H19.6848V11.0159C19.6848 10.0133 19.1349 9.49438 18.1494 9.49438H10.0627C9.07718 9.49438 8.53483 10.0133 8.53483 11.0159V12.5506Z" fill="black"/>
</svg>
