<svg width="28" height="28" viewBox="0 0 28 28" fill="none" xmlns="http://www.w3.org/2000/svg">
<path d="M2 11.5372C2 16.801 6.27757 21.0765 11.5393 21.0765C13.4961 21.0765 15.2919 20.4751 16.7891 19.46L22.1729 24.8534C22.5099 25.1905 22.9564 25.351 23.4263 25.351C24.4236 25.351 25.1368 24.5973 25.1368 23.6117C25.1368 23.1481 24.9666 22.7155 24.6446 22.3935L19.3022 17.0202C20.4207 15.4815 21.0786 13.5898 21.0786 11.5372C21.0786 6.27547 16.801 2 11.5393 2C6.27757 2 2 6.27547 2 11.5372ZM4.48482 11.5372C4.48482 7.64491 7.64702 4.48482 11.5393 4.48482C15.4316 4.48482 18.5916 7.64491 18.5916 11.5372C18.5916 15.4316 15.4316 18.5916 11.5393 18.5916C7.64702 18.5916 4.48482 15.4316 4.48482 11.5372ZM8.06092 10.8441H15.0814C15.5574 10.8441 15.9237 10.4534 15.9237 9.98585C15.9237 9.50773 15.5616 9.12757 15.0814 9.12757H8.06092C7.57319 9.12757 7.20686 9.50984 7.20686 9.98585C7.20686 10.4555 7.5753 10.8441 8.06092 10.8441ZM8.06092 13.9351H13.1204C13.5943 13.9351 13.9798 13.5582 13.9798 13.0864C13.9798 12.6104 13.5985 12.2185 13.1204 12.2185H8.06092C7.57319 12.2185 7.20686 12.6125 7.20686 13.0864C7.20686 13.5582 7.5753 13.9351 8.06092 13.9351Z" fill="black"/>
</svg>
