<svg width="28" height="28" viewBox="0 0 28 28" fill="none" xmlns="http://www.w3.org/2000/svg">
<path d="M14.105 26.21C20.7369 26.21 26.2121 20.7273 26.2121 14.105C26.2121 7.47312 20.7273 2 14.0954 2C7.47523 2 2 7.47312 2 14.105C2 20.7273 7.48484 26.21 14.105 26.21ZM14.105 23.8255C8.71085 23.8255 4.39412 19.4991 4.39412 14.105C4.39412 8.71085 8.70124 4.38452 14.0954 4.38452C19.4895 4.38452 23.8276 8.71085 23.8276 14.105C23.8276 19.4991 19.4991 23.8255 14.105 23.8255Z" fill="black"/>
<path d="M9.50256 16.2767C9.50256 16.805 9.84334 17.1341 10.3812 17.1341H13.3257V19.1959C13.3257 20.3551 13.8793 21.4941 14.105 21.4941C14.3307 21.4941 14.8864 20.3551 14.8864 19.1959V17.1341H17.8212C18.3591 17.1341 18.7095 16.805 18.7095 16.2767C18.7095 15.0472 17.6701 13.7598 16.0365 13.1663L15.8532 10.4652C16.7023 9.98682 17.3823 9.45291 17.6743 9.06924C17.8362 8.8583 17.9225 8.64525 17.9225 8.45354C17.9225 8.07549 17.6265 7.80713 17.1983 7.80713H11.0138C10.5835 7.80713 10.2896 8.07549 10.2896 8.45354C10.2896 8.64525 10.3737 8.87002 10.5474 9.07885C10.8437 9.46041 11.5194 9.99643 12.3589 10.4652L12.1639 13.1663C10.5399 13.7598 9.50256 15.0472 9.50256 16.2767Z" fill="black"/>
</svg>
