<svg width="28" height="28" viewBox="0 0 28 28" fill="none" xmlns="http://www.w3.org/2000/svg">
<path d="M13.7336 25.8078C13.9401 25.8078 14.2457 25.7269 14.5429 25.5746C21.2573 22.1162 23.4672 20.3005 23.4672 16.0955V7.37563C23.4672 6.01251 22.9431 5.52243 21.7942 5.04056C20.5075 4.51181 16.1964 2.97923 14.9404 2.55477C14.5565 2.43243 14.125 2.35907 13.7336 2.35907C13.3443 2.35907 12.9128 2.44204 12.5364 2.55477C11.2708 2.96001 6.96179 4.52142 5.67507 5.04056C4.53578 5.51071 4 6.01251 4 7.37563V16.0955C4 20.3005 6.31023 21.9486 12.9243 25.5746C13.2311 25.7366 13.5292 25.8078 13.7336 25.8078Z" fill="black"/>
</svg>
