<svg width="28" height="28" viewBox="0 0 28 28" fill="none" xmlns="http://www.w3.org/2000/svg">
<path d="M14.105 26.21C20.7369 26.21 26.2121 20.7273 26.2121 14.105C26.2121 7.47312 20.7273 2 14.0954 2C7.47523 2 2 7.47312 2 14.105C2 20.7273 7.48484 26.21 14.105 26.21ZM14.105 23.8255C8.71085 23.8255 4.39412 19.4991 4.39412 14.105C4.39412 8.71085 8.70124 4.38452 14.0954 4.38452C19.4895 4.38452 23.8276 8.71085 23.8276 14.105C23.8276 19.4991 19.4991 23.8255 14.105 23.8255Z" fill="black"/>
<path d="M13.617 19.2519C14.0291 19.2519 14.3377 18.9453 14.3377 18.5291V9.69592C14.3377 9.27968 14.0291 8.94639 13.6074 8.94639C13.3156 8.94639 13.1134 9.07741 12.8023 9.36077L10.351 11.6567C10.32 11.694 10.2678 11.7036 10.2155 11.7036H8.58777C7.76559 11.7036 7.30762 12.1637 7.30762 13.0402V15.1752C7.30762 16.0421 7.76559 16.5043 8.58777 16.5043H10.2155C10.2678 16.5043 10.32 16.5235 10.351 16.5566L12.8023 18.8759C13.0824 19.1284 13.3231 19.2519 13.617 19.2519Z" fill="black"/>
<path d="M16.2751 16.7206C16.554 16.9283 16.9437 16.8399 17.1589 16.5598C17.633 15.9345 17.9068 15.0298 17.9068 14.0933C17.9068 13.1759 17.6255 12.2712 17.1589 11.6363C16.9576 11.3487 16.5561 11.2721 16.2751 11.4734C15.9589 11.6982 15.894 12.0889 16.1398 12.4442C16.4277 12.8438 16.61 13.4579 16.61 14.0933C16.61 14.7094 16.4255 15.3235 16.1302 15.752C15.8961 16.119 15.9493 16.4841 16.2751 16.7206Z" fill="black"/>
<path d="M18.4272 18.2464C18.7488 18.4402 19.1118 18.3753 19.3153 18.0751C20.0815 16.9639 20.5183 15.5701 20.5183 14.0954C20.5183 12.6474 20.1028 11.2536 19.3153 10.1253C19.1022 9.81546 18.7296 9.73882 18.4272 9.93476C18.1143 10.152 18.0675 10.5448 18.2932 10.8833C18.8986 11.7528 19.2311 12.8942 19.2311 14.0954C19.2311 15.2891 18.8986 16.4668 18.2932 17.3075C18.0579 17.6459 18.0951 18.0484 18.4272 18.2464Z" fill="black"/>
</svg>
