<svg width="28" height="28" viewBox="0 0 28 28" fill="none" xmlns="http://www.w3.org/2000/svg">
<path d="M6.84421 24.8972H21.0295C23.5685 24.8972 24.8737 23.5919 24.8737 21.0914V6.82921C24.8737 4.32656 23.5685 3.02344 21.0295 3.02344H6.84421C4.31484 3.02344 3 4.31695 3 6.82921V21.0914C3 23.6016 4.31484 24.8972 6.84421 24.8972ZM6.97733 22.6013C5.88772 22.6013 5.29592 22.0371 5.29592 20.8985V7.01999C5.29592 5.88139 5.88772 5.31936 6.97733 5.31936H20.8964C21.9764 5.31936 22.5778 5.88139 22.5778 7.01999V20.8985C22.5778 22.0371 21.9764 22.6013 20.8964 22.6013H6.97733Z" fill="black"/>
<path d="M9.34998 16.1166C9.34998 16.6448 9.70037 16.9739 10.2383 16.9739H13.171V19.0357C13.171 20.1949 13.7267 21.334 13.9524 21.334C14.1781 21.334 14.7338 20.1949 14.7338 19.0357V16.9739H17.6687C18.2162 16.9739 18.557 16.6448 18.557 16.1166C18.557 14.887 17.5175 13.5996 15.8935 13.0062L15.7006 10.305C16.5498 9.82666 17.2297 9.29275 17.5313 8.90908C17.6837 8.69814 17.7678 8.4851 17.7678 8.29338C17.7678 7.91533 17.4739 7.64697 17.0457 7.64697H10.8612C10.4309 7.64697 10.137 7.91533 10.137 8.29338C10.137 8.4851 10.2211 8.70986 10.3948 8.91869C10.7007 9.30026 11.3668 9.83627 12.2063 10.305L12.0209 13.0062C10.3873 13.5996 9.34998 14.887 9.34998 16.1166Z" fill="black"/>
</svg>
