<svg width="32" height="28" viewBox="0 0 32 28" fill="none" xmlns="http://www.w3.org/2000/svg">
<path d="M13.1222 17.051C16.739 17.051 19.4937 14.2125 19.4937 10.2195C19.4937 8.34891 18.9504 6.69024 17.9958 5.37258L15.7451 7.63079C16.3373 8.3911 16.6931 9.3443 16.6931 10.3816C16.6931 12.6328 15.0907 14.2767 13.0261 14.2767C11.347 14.2767 10.0289 13.18 10.0289 11.8739C10.0289 11.3963 10.4119 11.1195 10.8014 11.1195C11.1269 11.1195 11.4016 11.3142 11.5198 11.7305C11.6805 12.3215 12.1854 12.7551 12.9516 12.7551C14.1949 12.7551 15.0033 11.8477 15.0033 10.4817C15.0033 8.77969 13.5738 7.47375 11.711 7.47375C9.42538 7.47375 7.53796 9.40805 7.53796 11.9034C7.53796 14.8087 9.88124 17.051 13.1222 17.051ZM11.7752 5.74665C12.7401 5.76892 13.7426 6.03517 14.5437 6.54329L16.9242 4.17868C15.6033 2.97892 13.8251 2.21813 11.7752 2.06485V5.74665ZM7.94859 7.12173C8.59406 6.58267 9.34078 6.18001 10.162 5.94892V2.02759C8.10796 2.14571 6.25945 2.79563 4.70507 3.85477L7.94859 7.12173ZM0.198983 11.0386H5.88539C5.9843 10.0596 6.36141 9.10501 6.88453 8.32524L3.44625 4.86141C1.77984 6.41039 0.628123 8.53805 0.198983 11.0386ZM0 13.271C0 16.1482 0.783047 18.6972 2.20523 20.7893L7.12734 15.8437C6.43711 14.9001 5.99086 13.8021 5.85563 12.64H0.00960946C0 12.8618 0 13.0643 0 13.271ZM3.18421 22.0757C5.27203 24.4057 8.26663 25.9664 11.91 26.4541V18.6738C10.4815 18.4715 9.20859 17.8771 8.22867 17.01L3.18421 22.0757ZM13.5232 26.6137C13.8269 26.635 14.1403 26.635 14.4633 26.635C18.0316 26.635 21.224 25.6092 23.8699 23.8408L17.5301 17.5319C16.4458 18.2339 15.1038 18.7014 13.5232 18.7685V26.6137ZM25.1585 22.8949C28.1688 20.4398 30.2876 16.8949 31.1665 13.0629C31.4081 12.01 30.6 11.2997 29.6894 11.2997H21.1195C21.0096 13.0289 20.2394 15.022 18.7729 16.5072L25.1585 22.8949Z" fill="black"/>
</svg>
