<svg width="28" height="28" viewBox="0 0 28 28" fill="none" xmlns="http://www.w3.org/2000/svg">
<path d="M14.105 26.21C20.7622 26.21 26.2121 20.7483 26.2121 14.105C26.2121 7.45203 20.7718 2 14.1146 2C13.3986 2 12.999 2.42562 12.999 3.12359V7.44992C12.999 8.04781 13.4138 8.5032 13.9979 8.5032C14.5937 8.5032 15.0064 8.04781 15.0064 7.44992V3.07062L13.9899 4.3592C19.4581 4.30436 23.8159 8.66866 23.8159 14.105C23.8159 19.4907 19.5076 23.8255 14.105 23.8255C8.70452 23.8255 4.37491 19.4907 4.38452 14.105C4.39412 11.7715 5.21397 9.62608 6.58718 7.96459C7.021 7.36413 7.08452 6.7353 6.59022 6.23656C6.10437 5.74414 5.30586 5.79617 4.78368 6.45944C3.06149 8.54327 2 11.2229 2 14.105C2 20.7483 7.45953 26.21 14.105 26.21Z" fill="black"/>
<path d="M15.9884 15.8957C16.9564 14.883 16.7562 13.5084 15.605 12.7244L9.6315 8.60785C8.93588 8.13653 8.2569 8.83145 8.72611 9.51324L12.833 15.4868C13.6266 16.6401 15.0012 16.8499 15.9884 15.8957Z" fill="black"/>
</svg>
