<svg width="28" height="28" viewBox="0 0 28 28" fill="none" xmlns="http://www.w3.org/2000/svg">
<path d="M2.17344 12.0448C2.92179 12.2438 3.65656 12.3545 4.45718 12.3545C8.67101 12.3545 11.8557 9.16976 11.8557 4.9421C11.8557 4.00086 11.6907 3.12429 11.3727 2.32039C6.69031 3.41093 3.01789 7.26664 2.17344 12.0448ZM14.105 26.2121C14.4776 26.2121 14.8365 26.1887 15.2049 26.1514C14.8688 25.2472 14.6996 24.2539 14.6996 23.2105C14.6996 18.1726 18.7712 14.101 23.7994 14.101C24.6373 14.101 25.4326 14.2095 26.1983 14.4488C26.2121 14.3349 26.2121 14.221 26.2121 14.1071C26.2121 7.47523 20.7273 2 14.0954 2C13.7471 2 13.4063 2.02344 13.0698 2.04898C13.407 2.93187 13.5549 3.9125 13.5549 4.9421C13.5549 9.9821 9.48335 14.0537 4.45718 14.0537C3.62046 14.0537 2.78258 13.9334 2.01172 13.7155C2 13.8357 2 13.9752 2 14.1071C2 20.7273 7.48484 26.2121 14.105 26.2121ZM16.8999 25.8737C21.5525 24.7555 25.2165 20.8955 26.0387 16.1312C25.321 15.9226 24.6118 15.8002 23.7994 15.8002C19.5856 15.8002 16.4009 18.9849 16.4009 23.2105C16.4009 24.1794 16.5626 25.0644 16.8999 25.8737Z" fill="black"/>
</svg>
