<svg width="28" height="28" viewBox="0 0 28 28" fill="none" xmlns="http://www.w3.org/2000/svg">
<path d="M7.80577 26.3772H20.2891C22.8013 26.3772 24.0948 25.0623 24.0948 22.5405V9.67374C24.0948 8.42288 23.8164 7.67781 23.0948 6.94656L18.243 2.10648C17.4852 1.3307 16.6548 1.01172 15.4441 1.01172H7.80577C5.30523 1.01172 4 2.33617 4 4.85804V22.5405C4 25.0719 5.29562 26.3772 7.80577 26.3772Z" fill="black"/>
<path d="M8.36682 20.7734V16.5237H11.3713C11.5011 16.5237 11.5799 16.5929 11.5799 16.7227V22.4361H10.0178C8.99002 22.4361 8.36682 21.8129 8.36682 20.7734ZM8.36682 15.0879V13.4438C8.36682 12.3926 8.99002 11.7715 10.0178 11.7715H15.2003V22.4361H13.0135V15.8628C13.0135 15.387 12.7241 15.0879 12.2387 15.0879H8.36682ZM16.634 22.4361V11.7715H18.0908C19.1186 11.7715 19.7493 12.3926 19.7493 13.4438V20.7734C19.7493 21.8129 19.1186 22.4361 18.0908 22.4361H16.634Z" fill="white"/>
</svg>
