<svg width="28" height="28" viewBox="0 0 28 28" fill="none" xmlns="http://www.w3.org/2000/svg">
<path d="M14.105 26.21C20.7369 26.21 26.2121 20.7273 26.2121 14.105C26.2121 7.47312 20.7273 2 14.0954 2C7.47523 2 2 7.47312 2 14.105C2 20.7273 7.48484 26.21 14.105 26.21ZM14.105 23.8255C8.71085 23.8255 4.39412 19.4991 4.39412 14.105C4.39412 8.71085 8.70124 4.38452 14.0954 4.38452C19.4895 4.38452 23.8276 8.71085 23.8276 14.105C23.8276 19.4991 19.4991 23.8255 14.105 23.8255Z" fill="black"/>
<path d="M8.68886 19.2578H19.5329C20.2285 19.2578 20.6898 18.8104 20.6898 18.1286V10.1062C20.6898 9.41477 20.2285 8.97485 19.5329 8.97485H8.68886C7.98362 8.97485 7.53198 9.41477 7.53198 10.1062V18.1286C7.53198 18.8104 7.98362 19.2578 8.68886 19.2578ZM8.80722 18.2927C8.57706 18.2927 8.45026 18.1424 8.45026 17.9282V17.1801C8.45026 16.9713 8.57706 16.8403 8.79761 16.8403H9.6587C9.8537 16.8403 9.9805 16.9713 9.9805 17.1801V17.9474C9.9805 18.1424 9.8537 18.2927 9.6587 18.2927H8.80722ZM8.79761 15.9379C8.57706 15.9379 8.45026 15.7898 8.45026 15.6119V14.8584C8.45026 14.6399 8.57706 14.5131 8.79761 14.5131H9.6587C9.8537 14.5131 9.9805 14.6399 9.9805 14.8584V15.6119C9.9805 15.7898 9.8537 15.9379 9.6587 15.9379H8.79761ZM8.79761 13.6417C8.57706 13.6417 8.45026 13.4936 8.45026 13.3178V12.5505C8.45026 12.3395 8.57706 12.2052 8.79761 12.2052H9.6587C9.8537 12.2052 9.9805 12.3395 9.9805 12.5505V13.3178C9.9805 13.4936 9.8537 13.6417 9.6587 13.6417H8.79761ZM8.79761 11.3594C8.57706 11.3594 8.45026 11.2091 8.45026 11.0355V10.2777C8.45026 10.0827 8.57706 9.93039 8.79761 9.93039H9.6587C9.8537 9.93039 9.9805 10.0827 9.9805 10.2777V11.0355C9.9805 11.2091 9.8537 11.3594 9.6587 11.3594H8.79761ZM18.5555 18.2927C18.368 18.2927 18.2391 18.1424 18.2391 17.9474V17.1801C18.2391 16.9713 18.368 16.8403 18.5555 16.8403H19.4262C19.6447 16.8403 19.7715 16.9713 19.7715 17.1801V17.9282C19.7715 18.1424 19.6447 18.2927 19.4166 18.2927H18.5555ZM18.5555 15.9379C18.368 15.9379 18.2391 15.7898 18.2391 15.6119V14.8584C18.2391 14.6399 18.368 14.5131 18.5555 14.5131H19.4262C19.6447 14.5131 19.7715 14.6399 19.7715 14.8584V15.6119C19.7715 15.7898 19.6447 15.9379 19.4262 15.9379H18.5555ZM18.5555 13.6417C18.368 13.6417 18.2391 13.4936 18.2391 13.3178V12.5505C18.2391 12.3395 18.368 12.2052 18.5555 12.2052H19.4262C19.6447 12.2052 19.7715 12.3395 19.7715 12.5505V13.3178C19.7715 13.4936 19.6447 13.6417 19.4262 13.6417H18.5555ZM18.5555 11.3594C18.368 11.3594 18.2391 11.2091 18.2391 11.0355V10.2777C18.2391 10.0827 18.368 9.93039 18.5555 9.93039H19.4262C19.6447 9.93039 19.7715 10.0827 19.7715 10.2777V11.0355C19.7715 11.2091 19.6447 11.3594 19.4262 11.3594H18.5555ZM11.6917 14.774C11.3179 14.774 11.0399 14.4864 11.0399 14.1126C11.0399 13.7388 11.3179 13.4608 11.6917 13.4608H16.5205C16.8943 13.4608 17.1723 13.7388 17.1723 14.1126C17.1723 14.4864 16.8943 14.774 16.5205 14.774H11.6917Z" fill="black"/>
</svg>
