<svg width="28" height="28" viewBox="0 0 28 28" fill="none" xmlns="http://www.w3.org/2000/svg">
<path d="M2 6.96114H22.9796V3.86645C22.9796 2.09154 21.8054 0.884277 20.0848 0.884277H4.90226C3.17 0.884277 2 2.09154 2 3.86645V6.96114ZM6.49108 5.61606C5.85874 5.61606 5.33609 5.0838 5.33609 4.45896C5.33609 3.81701 5.85874 3.29435 6.49108 3.29435C7.12343 3.29435 7.63436 3.81701 7.63436 4.45896C7.63436 5.0838 7.12343 5.61606 6.49108 5.61606ZM9.75873 5.61606C9.12428 5.61606 8.61335 5.0838 8.61335 4.45896C8.61335 3.81701 9.12428 3.29435 9.75873 3.29435C10.3932 3.29435 10.902 3.81701 10.902 4.45896C10.902 5.0838 10.3932 5.61606 9.75873 5.61606ZM2 21.1894H8.54467C8.53928 21.0283 8.53178 20.8887 8.53389 20.7276C8.64568 16.6228 11.9968 13.3519 16.1471 13.3519C16.5528 13.3519 16.9648 13.3795 17.3492 13.4423C17.8168 13.3795 18.3195 13.3519 18.8447 13.3519C20.3726 13.3519 21.7918 13.8037 22.9796 14.5711V8.68988H2V21.1894ZM9.64155 11.7161C9.23186 11.7161 8.94358 11.4225 8.94358 11.0128C8.94358 10.6052 9.23186 10.3169 9.64155 10.3169H15.3476C15.7573 10.3169 16.036 10.6052 16.036 11.0128C16.036 11.4225 15.7573 11.7161 15.3476 11.7161H9.64155ZM4.90226 26.1518H10.5312C9.69663 25.2555 9.08116 24.1486 8.7678 22.9181H2V23.1792C2 24.9541 3.17 26.1518 4.90226 26.1518Z" fill="black"/>
<path d="M16.147 27.2208C19.5977 27.2208 22.3774 24.4412 22.3774 20.9766C22.3774 17.5163 19.5977 14.7366 16.147 14.7366C12.6846 14.7366 9.89526 17.5163 9.89526 20.9766C9.89526 24.4412 12.6846 27.2208 16.147 27.2208ZM16.147 25.7577C13.3954 25.7577 11.3542 23.7207 11.3542 20.9766C11.3542 18.2347 13.3954 16.1977 16.147 16.1977C18.8772 16.1977 20.9184 18.2347 20.9184 20.9766C20.9184 23.7207 18.8772 25.7577 16.147 25.7577ZM16.147 24.5504C18.1038 24.5504 19.709 22.9452 19.709 20.9766C19.709 19.0123 18.1038 17.4167 16.147 17.4167C14.1689 17.4167 12.5732 19.0123 12.5732 20.9766C12.5732 22.9452 14.1689 24.5504 16.147 24.5504ZM16.147 23.3743C14.7393 23.3743 13.7493 22.3747 13.7493 20.9766C13.7493 19.5807 14.7393 18.5928 16.147 18.5928C17.5429 18.5928 18.5329 19.5807 18.5329 20.9766C18.5329 22.3843 17.5333 23.3743 16.147 23.3743ZM18.8446 27.2208C22.2932 27.2208 25.0825 24.4412 25.0825 20.9766C25.0825 17.5163 22.2932 14.7366 18.8446 14.7366C18.0506 14.7366 17.2896 14.8866 16.6082 15.1707L18.2664 16.2329C18.4624 16.2095 18.6466 16.1977 18.8446 16.1977C21.5824 16.1977 23.6235 18.2347 23.6235 20.9766C23.6235 23.7207 21.5824 25.7577 18.8446 25.7577C18.6424 25.7577 18.4464 25.7459 18.24 25.7321L17.0596 26.956C17.6292 27.1337 18.2252 27.2208 18.8446 27.2208Z" fill="black"/>
</svg>
