<svg width="28" height="28" viewBox="0 0 28 28" fill="none" xmlns="http://www.w3.org/2000/svg">
<path d="M13.6405 19.2928C18.9667 19.2928 23.2928 14.9667 23.2928 9.65225C23.2928 4.33359 18.9571 0 13.6405 0C8.32609 0 4 4.33359 4 9.65225C4 14.9667 8.31648 19.2928 13.6405 19.2928ZM13.6501 17.2908C9.42179 17.2908 6.01702 13.871 6.01702 9.64264C6.01702 5.42179 9.42179 2.00952 13.6501 2.00952C17.8806 2.00952 21.2833 5.42179 21.2833 9.64264C21.2833 13.871 17.8806 17.2908 13.6501 17.2908ZM12.5439 18.7052V26.7832H14.766V18.7052H12.5439ZM8.28601 27.8456H19.0047C19.5184 27.8456 19.8313 27.4512 19.8313 26.9182C19.8313 25.9676 19.0405 25.3064 17.883 25.3064H9.40023C8.24265 25.3064 7.45187 25.9676 7.45187 26.9182C7.45187 27.4512 7.76265 27.8456 8.28601 27.8456Z" fill="black"/>
<path d="M10.7716 15.4052C12.134 15.4052 12.87 14.2727 13.578 12.2154C13.774 12.2271 13.9221 12.2271 14.0946 12.1823V14.2209C14.0946 15.2712 14.6388 15.8484 15.6656 15.8484C17.5343 15.8484 19.3744 14.2064 19.3744 12.5885C19.3744 11.2165 18.2578 10.4923 16.2368 9.80346C16.2485 9.60963 16.2389 9.44767 16.223 9.25056H18.173C19.2211 9.25056 19.7984 8.70424 19.7984 7.66994C19.7984 5.81838 18.1659 3.97619 16.5406 3.97619C15.207 3.97619 14.4614 5.06814 13.7822 7.05611C13.5958 7.054 13.3975 7.054 13.2175 7.09455V5.1701C13.2175 4.12197 12.6733 3.53088 11.6465 3.53088C9.77575 3.53088 7.92817 5.18674 7.92817 6.80041C7.92817 8.16494 9.04685 8.88705 11.0775 9.5876C11.0754 9.76971 11.085 9.96799 11.118 10.1308H9.13919C8.08145 10.1308 7.50208 10.6751 7.50208 11.6998C7.50208 13.5726 9.14622 15.4052 10.7716 15.4052ZM13.6502 10.9851C12.9257 10.9851 12.3536 10.4109 12.3536 9.70033C12.3536 8.96627 12.9257 8.39416 13.6502 8.39416C14.3747 8.39416 14.9468 8.97049 14.9468 9.70033C14.9468 10.413 14.3747 10.9851 13.6502 10.9851Z" fill="black"/>
</svg>
