<svg width="28" height="28" viewBox="0 0 28 28" fill="none" xmlns="http://www.w3.org/2000/svg">
<path d="M1 14.105C1 20.7251 6.48484 26.21 13.105 26.21C16.9087 26.21 20.4674 24.3073 22.6274 21.4613C23.1355 20.8381 23.0341 20.0881 22.502 19.7023C21.9297 19.2955 21.2406 19.4752 20.7773 20.0211C18.9958 22.3283 16.2571 23.8159 13.105 23.8255C7.71085 23.8351 3.38452 19.4991 3.38452 14.105C3.38452 8.71085 7.71085 4.39412 13.105 4.39412C17.673 4.39412 21.4649 7.47898 22.5149 11.6998H20.838C19.9469 11.6998 19.7043 12.3627 20.2129 13.0852L23.0087 17.0197C23.428 17.604 24.077 17.6072 24.5038 17.0197L27.2922 13.0948C27.8179 12.3648 27.5741 11.6998 26.6767 11.6998H24.962C23.8408 6.19648 18.9128 2 13.105 2C6.48484 2 1 7.47312 1 14.105Z" fill="black"/>
<path d="M10.2209 19.9722H16.1815C17.0006 19.9722 17.3979 19.5558 17.3979 18.6642V14.111C17.3979 13.2194 17.0006 12.8029 16.1815 12.8029L11.3578 12.7933V11.3756C11.3578 10.073 12.0935 9.21796 13.2244 9.21796C14.3067 9.21796 15.0446 9.92414 15.0446 10.9971V11.2383C15.0446 11.6639 15.3563 11.9034 15.747 11.9034C16.1185 11.9034 16.4131 11.6501 16.4131 11.2298V10.9823C16.4131 9.14297 15.1252 7.88672 13.2244 7.88672C11.2826 7.88672 9.9893 9.33984 9.9893 11.494V12.8156C9.32743 12.8815 9.00024 13.2958 9.00024 14.095V18.6642C9.00024 19.5558 9.3975 19.9722 10.2209 19.9722Z" fill="black"/>
</svg>
