<svg width="28" height="28" viewBox="0 0 28 28" fill="none" xmlns="http://www.w3.org/2000/svg">
<path d="M4.6875 8.15956V16.0954C4.6875 20.3004 6.99773 21.9485 13.6118 25.5745C13.9186 25.7365 14.2167 25.8077 14.4211 25.8077C14.6276 25.8077 14.9332 25.7268 15.2304 25.5745C16.9948 24.6602 18.4416 23.8547 19.6177 23.111L4.6875 8.15956ZM23.1872 19.8757C23.8755 18.8018 24.1547 17.6053 24.1547 16.0954V7.37557C24.1547 6.01245 23.6306 5.52237 22.4817 5.0405C21.195 4.51175 16.8839 2.97916 15.6279 2.55471C15.244 2.43237 14.8125 2.35901 14.4211 2.35901C14.0318 2.35901 13.6003 2.44198 13.2239 2.55471C12.2386 2.88213 9.68742 3.78284 7.80632 4.48316L23.1872 19.8757Z" fill="black"/>
<path d="M24.1338 25.4996C24.498 25.8617 25.1009 25.8638 25.4534 25.4996C25.8134 25.1354 25.8176 24.5443 25.4534 24.1801L3.59766 2.33823C3.23555 1.97401 2.64024 1.97401 2.26641 2.33823C1.90641 2.68862 1.91602 3.29565 2.26641 3.65776L24.1338 25.4996Z" fill="black"/>
</svg>
