<svg width="28" height="28" viewBox="0 0 28 28" fill="none" xmlns="http://www.w3.org/2000/svg">
<path d="M14.3539 26.6263C16.5022 26.6263 18.2253 26.0971 19.5969 25.0483L6.06592 11.5152V18.2415C6.06592 23.496 9.59818 26.6263 14.3539 26.6263ZM22.5132 21.2055C22.6496 20.9167 22.7785 20.6205 22.8819 20.305C23.4486 18.853 23.9441 17.309 24.4123 15.7867C24.7655 14.6905 25.2329 13.289 25.2687 12.6716C25.3109 11.9755 24.856 11.4756 24.1501 11.4334C23.3612 11.3849 22.8601 11.86 22.343 12.9227L20.7015 16.4331C20.548 16.7849 20.3794 16.9108 20.2046 16.9108C19.9817 16.9108 19.8282 16.7828 19.8282 16.4001V4.01429C19.8282 3.26172 19.2383 2.66969 18.4857 2.66969C17.7394 2.66969 17.1453 3.26383 17.1453 4.01429V13.0143C16.8437 12.9034 16.5132 12.8139 16.1614 12.7457V2.35211C16.1614 1.60164 15.5694 1 14.8189 1C14.0684 1 13.4689 1.60164 13.4689 2.35211V11.8302C13.3205 11.8398 13.2704 11.8398 13.1626 11.8687L22.5132 21.2055ZM9.75193 8.45055L12.437 11.1409V3.33133C12.437 2.58297 11.8428 1.98883 11.0944 1.98883C10.3461 1.98883 9.75193 2.58297 9.75193 3.33133V8.45055ZM7.05193 5.76977L8.76052 7.46664V6.98429C8.76052 6.23172 8.16849 5.63969 7.42013 5.63969C7.26896 5.63969 7.15084 5.69195 7.05193 5.76977Z" fill="black"/>
<path d="M23.2142 26.6066C23.5667 26.957 24.1834 26.9708 24.5337 26.6066C24.8862 26.2328 24.898 25.6513 24.5337 25.2871L3.59562 4.36069C3.2314 3.99647 2.6382 3.99647 2.26437 4.36069C1.91188 4.72069 1.91188 5.32772 2.26437 5.68022L23.2142 26.6066Z" fill="black"/>
</svg>
