<svg width="28" height="28" viewBox="0 0 28 28" fill="none" xmlns="http://www.w3.org/2000/svg">
<path d="M8.01578 27.2622C8.50023 27.2622 8.87382 27.0299 9.45835 26.489L13.7626 22.5944H21.4504C24.9784 22.5944 26.9547 20.5777 26.9547 17.0998V8.01138C26.9547 4.53349 24.9784 2.50708 21.4504 2.50708H6.50218C2.97625 2.50708 1 4.52388 1 8.01138V17.0998C1 20.5872 3.02476 22.5944 6.42836 22.5944H6.90109V25.9898C6.90109 26.7606 7.30984 27.2622 8.01578 27.2622Z" fill="black"/>
<path d="M13.9933 14.5706C13.3059 14.5706 12.9154 14.1907 12.8931 13.4958L12.7281 7.59114C12.7059 6.87724 13.2241 6.36536 13.9816 6.36536C14.7273 6.36536 15.2669 6.88685 15.2446 7.60075L15.0604 13.4895C15.0381 14.2003 14.6498 14.5706 13.9933 14.5706ZM13.9933 18.6103C13.2079 18.6103 12.5542 18.0448 12.5542 17.2721C12.5542 16.511 13.1983 15.9359 13.9933 15.9359C14.7787 15.9359 15.4164 16.5035 15.4164 17.2721C15.4164 18.0544 14.7691 18.6103 13.9933 18.6103Z" fill="white"/>
</svg>
