<svg width="30" height="28" viewBox="0 0 30 28" fill="none" xmlns="http://www.w3.org/2000/svg">
<path d="M23.3967 23.7912C27.0412 23.7912 29.9102 21.1148 29.9102 17.7783C29.9102 15.2836 28.488 13.0833 26.1691 12.1118C26.1841 6.81773 22.3633 3 17.4628 3C14.3376 3 12.0063 4.61696 10.5368 6.73523C7.57383 5.93789 4.44797 8.15039 4.33875 11.4527C1.66078 11.9231 0 14.3367 0 17.2573C0 20.8186 3.11086 23.7912 7.20515 23.7912H23.3967ZM23.3988 21.4952H7.20937C4.40389 21.4952 2.32123 19.5382 2.32123 17.2573C2.32123 14.9241 3.76451 13.1705 6.16452 13.1705C6.33491 13.1705 6.40194 13.0821 6.39772 12.9192C6.32811 9.41319 8.84319 8.24553 11.3489 9.03702C11.4937 9.08178 11.5842 9.04663 11.6587 8.9135C12.8144 6.87772 14.5247 5.29592 17.448 5.29592C21.1547 5.29592 23.7705 8.22678 23.9571 11.6419C23.9944 12.2569 23.9508 12.9382 23.8955 13.5037C23.8816 13.6666 23.9445 13.7508 24.0977 13.7838C26.2263 14.1998 27.589 15.7036 27.589 17.7783C27.589 19.8419 25.762 21.4952 23.3988 21.4952Z" fill="black"/>
<path d="M14.1073 18.9431C14.5172 18.9431 14.8748 18.7409 15.1123 18.3724L19.7027 10.9856C19.8368 10.7791 19.9786 10.5012 19.9786 10.2295C19.9786 9.66961 19.489 9.24915 18.9023 9.24915C18.5384 9.24915 18.2072 9.45469 17.9923 9.82289L14.0667 16.3498L12.0743 13.7974C11.8411 13.4885 11.5397 13.3202 11.1755 13.3202C10.6017 13.3202 10.1377 13.778 10.1377 14.3709C10.1377 14.636 10.2356 14.8809 10.4325 15.1343L13.0575 18.3884C13.3514 18.7622 13.691 18.9431 14.1073 18.9431Z" fill="black"/>
</svg>
