<svg width="28" height="28" viewBox="0 0 28 28" fill="none" xmlns="http://www.w3.org/2000/svg">
<path d="M13.7336 25.8078C13.9401 25.8078 14.2457 25.7269 14.5429 25.5746C21.2573 22.1162 23.4672 20.3005 23.4672 16.0955V7.37563C23.4672 6.01251 22.9431 5.52243 21.7942 5.04056C20.5075 4.51181 16.1964 2.97923 14.9404 2.55477C14.5565 2.43243 14.125 2.35907 13.7336 2.35907C13.3443 2.35907 12.9128 2.44204 12.5364 2.55477C11.2708 2.96001 6.96179 4.52142 5.67507 5.04056C4.53578 5.51071 4 6.01251 4 7.37563V16.0955C4 20.3005 6.31023 21.9486 12.9243 25.5746C13.2311 25.7366 13.5292 25.8078 13.7336 25.8078Z" fill="black"/>
<path d="M9.88695 18.5359C9.26984 18.5359 8.79102 18.0453 8.79102 17.4165C8.79102 17.1291 8.90164 16.8589 9.11656 16.6482L12.1728 13.5877L9.11656 10.5198C8.90164 10.3187 8.79102 10.0388 8.79102 9.75148C8.79102 9.13226 9.26984 8.66094 9.88695 8.66094C10.205 8.66094 10.4497 8.76734 10.6667 8.97477L13.7359 12.0322L16.8264 8.96305C17.053 8.73852 17.2977 8.64172 17.6061 8.64172C18.2232 8.64172 18.7117 9.12055 18.7117 9.73015C18.7117 10.0292 18.6107 10.2877 18.3861 10.5102L15.3128 13.5877L18.3765 16.6386C18.5914 16.8493 18.7021 17.1195 18.7021 17.4165C18.7021 18.0453 18.2136 18.5359 17.5869 18.5359C17.2689 18.5359 16.9932 18.4295 16.7879 18.2145L13.7359 15.1571L10.6955 18.2145C10.4806 18.4295 10.205 18.5359 9.88695 18.5359Z" fill="white"/>
</svg>
