<svg width="28" height="28" viewBox="0 0 28 28" fill="none" xmlns="http://www.w3.org/2000/svg">
<path d="M14.105 26.2301C20.7369 26.2301 26.2121 20.7549 26.2121 14.123C26.2121 7.50291 20.7273 2.01807 14.0954 2.01807C7.47523 2.01807 2 7.50291 2 14.123C2 20.7549 7.48484 26.2301 14.105 26.2301Z" fill="black"/>
<path d="M9.74756 18.8759V14.127C9.74756 13.2863 10.0865 12.8677 10.7643 12.7998V11.427C10.7643 9.18356 12.115 7.68262 14.1048 7.68262C16.0989 7.68262 17.4496 9.18356 17.4496 11.427V12.8019C18.1232 12.8677 18.4642 13.2863 18.4642 14.127V18.8759C18.4642 19.8036 18.0531 20.2243 17.2 20.2243H11.0139C10.1586 20.2243 9.74756 19.8036 9.74756 18.8759ZM12.1965 12.7754H16.0152V11.299C16.0152 9.96238 15.2476 9.07011 14.1027 9.07011C12.9599 9.07011 12.1965 9.96449 12.1965 11.299V12.7754Z" fill="white"/>
</svg>
