<svg width="28" height="28" viewBox="0 0 28 28" fill="none" xmlns="http://www.w3.org/2000/svg">
<path d="M3.14421 9.83303C3.89608 9.83303 4.29592 9.41186 4.29592 8.66749V6.01999C4.29592 4.88139 4.88772 4.31936 5.97733 4.31936H8.6846C9.44069 4.31936 9.85014 3.9078 9.85014 3.16554C9.85014 2.42328 9.44069 2.02344 8.6846 2.02344H5.84421C3.31484 2.02344 2 3.31695 2 5.8196V8.66749C2 9.41397 2.41156 9.83303 3.14421 9.83303ZM24.0657 9.83303C24.8176 9.83303 25.2174 9.41397 25.2174 8.66749V5.8196C25.2174 3.31695 23.9047 2.02344 21.3732 2.02344H18.5232C17.7788 2.02344 17.3673 2.42328 17.3673 3.16554C17.3673 3.9078 17.7809 4.31936 18.5232 4.31936H21.2305C22.3105 4.31936 22.9215 4.88139 22.9215 6.01999V8.66749C22.9215 9.41397 23.333 9.83303 24.0657 9.83303ZM5.84421 25.2312H8.6846C9.44069 25.2312 9.85014 24.8197 9.85014 24.087C9.85014 23.3448 9.43647 22.9353 8.6846 22.9353H5.97733C4.88772 22.9353 4.29592 22.3733 4.29592 21.2326V18.5851C4.29592 17.8311 3.88647 17.4195 3.14421 17.4195C2.39984 17.4195 2 17.8311 2 18.5851V21.4255C2 23.9356 3.31484 25.2312 5.84421 25.2312ZM18.5232 25.2312H21.3732C23.9047 25.2312 25.2174 23.926 25.2174 21.4255V18.5851C25.2174 17.8311 24.808 17.4195 24.0657 17.4195C23.3234 17.4195 22.9215 17.8332 22.9215 18.5851V21.2326C22.9215 22.3733 22.3105 22.9353 21.2305 22.9353H18.5232C17.7788 22.9353 17.3673 23.3448 17.3673 24.087C17.3673 24.8197 17.7788 25.2312 18.5232 25.2312Z" fill="black"/>
<path d="M9.20592 12.8448C9.78412 12.8448 10.2015 12.4369 10.2015 11.8491V10.2617C10.2015 9.676 9.78412 9.26819 9.20592 9.26819C8.63193 9.26819 8.22412 9.67811 8.22412 10.2617V11.8491C8.22412 12.4369 8.63193 12.8448 9.20592 12.8448ZM12.6784 15.5956C12.7039 15.5956 12.7412 15.5956 12.7742 15.5956C13.981 15.5956 14.6446 14.9342 14.6446 13.7274V10.055C14.6446 9.57053 14.3188 9.25647 13.846 9.25647C13.352 9.25647 13.0283 9.57053 13.0283 10.055V13.7928C13.0283 13.9016 12.9622 13.958 12.8631 13.958H12.4951C12.0458 13.958 11.6966 14.3052 11.6966 14.7523C11.6966 15.2837 12.0617 15.5956 12.6784 15.5956ZM17.9844 12.8448C18.5488 12.8448 18.9566 12.4369 18.9566 11.8491V10.2617C18.9566 9.67811 18.5488 9.26819 17.9844 9.26819C17.3966 9.26819 16.9909 9.676 16.9909 10.2617V11.8491C16.9909 12.4369 17.3966 12.8448 17.9844 12.8448ZM13.5435 19.4614C14.9657 19.4614 16.4038 18.8478 17.4296 17.8262C17.5766 17.6867 17.649 17.477 17.649 17.2299C17.649 16.7593 17.3019 16.4218 16.8409 16.4218C16.6035 16.4218 16.4289 16.5123 16.1999 16.753C15.5701 17.4083 14.5675 17.8548 13.5435 17.8548C12.576 17.8548 11.568 17.4296 10.8988 16.7509C10.6965 16.5582 10.5337 16.4218 10.2461 16.4218C9.78506 16.4218 9.43584 16.7593 9.43584 17.2299C9.43584 17.4376 9.50826 17.6335 9.66904 17.8102C10.6014 18.8841 12.0939 19.4614 13.5435 19.4614Z" fill="black"/>
</svg>
