<svg width="28" height="28" viewBox="0 0 28 28" fill="none" xmlns="http://www.w3.org/2000/svg">
<path d="M4.5874 8.30256V16.539C4.5874 20.8142 6.9424 22.4879 13.6629 26.1767C13.9697 26.3387 14.2774 26.4195 14.4839 26.4195C14.6904 26.4195 15.0078 26.3387 15.3049 26.1767C17.1279 25.1771 18.6162 24.3289 19.8253 23.5501L18.1446 21.8598C17.3079 22.3885 16.3261 22.9738 15.1599 23.6902C14.8381 23.8949 14.6621 23.9588 14.4935 23.9588V18.2087L4.5874 8.30256ZM23.397 20.3169C24.0895 19.2484 24.3804 18.0648 24.3804 16.539V7.67958C24.3804 6.29092 23.8425 5.80084 22.6798 5.30514C21.3771 4.76256 16.9861 3.21826 15.7088 2.78209C15.3206 2.65764 14.8774 2.57678 14.4839 2.57678C14.0904 2.57678 13.6472 2.67897 13.2687 2.78209C12.2813 3.07858 9.7324 3.98772 7.80442 4.71897L14.4935 11.408V4.782C14.6604 4.782 14.8306 4.82559 15.0961 4.91489C16.6653 5.53153 20.0145 6.7231 21.7782 7.34419C22.0988 7.4656 22.1796 7.64021 22.1796 8.05341V16.1012C22.1796 17.1038 22.0292 17.8866 21.6642 18.5766L23.397 20.3169Z" fill="black"/>
<path d="M24.1369 25.8055C24.5011 26.1676 25.0964 26.1697 25.4564 25.8055C25.8185 25.4412 25.8206 24.8502 25.4564 24.4859L3.60283 2.64401C3.23861 2.27979 2.63369 2.27979 2.27158 2.64401C1.90947 2.9944 1.90947 3.60143 2.27158 3.96354L24.1369 25.8055Z" fill="black"/>
</svg>
