<svg width="28" height="28" viewBox="0 0 28 28" fill="none" xmlns="http://www.w3.org/2000/svg">
<path d="M3.14421 9.83303C3.89608 9.83303 4.29592 9.41186 4.29592 8.66749V6.01999C4.29592 4.88139 4.88772 4.31936 5.97733 4.31936H8.6846C9.44069 4.31936 9.85014 3.9078 9.85014 3.16554C9.85014 2.42328 9.44069 2.02344 8.6846 2.02344H5.84421C3.31484 2.02344 2 3.31695 2 5.8196V8.66749C2 9.41397 2.41156 9.83303 3.14421 9.83303ZM24.0657 9.83303C24.8176 9.83303 25.2174 9.41397 25.2174 8.66749V5.8196C25.2174 3.31695 23.9047 2.02344 21.3732 2.02344H18.5232C17.7788 2.02344 17.3673 2.42328 17.3673 3.16554C17.3673 3.9078 17.7809 4.31936 18.5232 4.31936H21.2305C22.3105 4.31936 22.9215 4.88139 22.9215 6.01999V8.66749C22.9215 9.41397 23.333 9.83303 24.0657 9.83303ZM5.84421 25.2312H8.6846C9.44069 25.2312 9.85014 24.8197 9.85014 24.087C9.85014 23.3448 9.43647 22.9353 8.6846 22.9353H5.97733C4.88772 22.9353 4.29592 22.3733 4.29592 21.2326V18.5851C4.29592 17.8311 3.88647 17.4195 3.14421 17.4195C2.39984 17.4195 2 17.8311 2 18.5851V21.4255C2 23.9356 3.31484 25.2312 5.84421 25.2312ZM18.5232 25.2312H21.3732C23.9047 25.2312 25.2174 23.926 25.2174 21.4255V18.5851C25.2174 17.8311 24.808 17.4195 24.0657 17.4195C23.3234 17.4195 22.9215 17.8332 22.9215 18.5851V21.2326C22.9215 22.3733 22.3105 22.9353 21.2305 22.9353H18.5232C17.7788 22.9353 17.3673 23.3448 17.3673 24.087C17.3673 24.8197 17.7788 25.2312 18.5232 25.2312Z" fill="black"/>
<path d="M13.6171 6.61438C11.4597 6.61438 9.74121 8.34243 9.74121 10.4764C9.74121 12.0875 10.6865 13.4886 12.1485 14.0809V19.869C12.1581 20.0382 12.2251 20.1828 12.355 20.3084L13.367 21.309C13.517 21.4473 13.7253 21.459 13.8796 21.3027L15.7604 19.4314C15.9327 19.2687 15.9242 19.0327 15.7583 18.8818L14.6664 17.7814L16.2027 16.2643C16.3515 16.123 16.344 15.8827 16.1835 15.7105L14.6917 14.2091C16.4814 13.4569 17.4758 12.1037 17.4758 10.4764C17.4758 8.35204 15.7457 6.61438 13.6171 6.61438ZM13.6075 8.50087C14.251 8.50087 14.7742 9.02938 14.7742 9.6772C14.7742 10.3379 14.251 10.8706 13.6075 10.8706C12.966 10.8706 12.4236 10.3379 12.4236 9.6772C12.4236 9.02938 12.9564 8.50087 13.6075 8.50087Z" fill="black"/>
</svg>
