<svg width="28" height="28" viewBox="0 0 28 28" fill="none" xmlns="http://www.w3.org/2000/svg">
<path d="M7.84421 27.7711H21.3257C23.5626 27.7711 24.8753 26.4658 24.8753 23.9653V10.6994C24.8753 8.19889 23.553 6.89366 21.0311 6.89366H7.84421C5.31484 6.89366 4 8.18928 4 10.6994V23.9653C4 26.4658 5.31484 27.7711 7.84421 27.7711ZM7.97733 25.473C6.88772 25.473 6.29592 24.9014 6.29592 23.7628V10.8923C6.29592 9.76123 6.88772 9.18958 7.97733 9.18958H20.8884C21.9684 9.18958 22.5794 9.76123 22.5794 10.8923V23.7628C22.5794 24.9014 21.9684 25.473 21.183 25.473H7.97733ZM6.58633 5.03858H22.2013C22.034 3.92155 21.4731 3.28499 20.219 3.28499H8.56867C7.31453 3.28499 6.75367 3.92155 6.58633 5.03858ZM8.60219 1.63429H20.1951C20.1163 0.583358 19.4873 0.0234375 18.3564 0.0234375H10.4312C9.30039 0.0234375 8.68094 0.583358 8.60219 1.63429Z" fill="black"/>
<path d="M10.2407 21.9291C10.2407 22.8207 10.638 23.2372 11.4592 23.2372H17.4199C18.2507 23.2372 18.648 22.8207 18.648 21.9291V17.36C18.648 16.5608 18.3187 16.156 17.6514 16.0923V14.7589C17.6514 12.6048 16.356 11.1591 14.4396 11.1591C12.5327 11.1591 11.2298 12.6048 11.2298 14.7589V16.0881C10.5679 16.156 10.2407 16.5608 10.2407 17.36V21.9291ZM12.5962 16.0679V14.6405C12.5962 13.3475 13.334 12.4904 14.4396 12.4904C15.5568 12.4904 16.2829 13.3454 16.2829 14.6405V16.0679H12.5962Z" fill="black"/>
</svg>
