<svg width="28" height="28" viewBox="0 0 28 28" fill="none" xmlns="http://www.w3.org/2000/svg">
<path d="M8.71265 25.3487H19.6863C21.4659 25.3487 22.399 24.3943 22.399 22.4731V14.1732C22.399 12.2584 21.4659 11.3136 19.6863 11.3136H8.71265C6.93094 11.3136 6 12.2584 6 14.1732V22.4731C6 24.3943 6.93094 25.3487 8.71265 25.3487ZM8.14148 12.2982H10.3359L10.338 8.3457C10.338 5.6035 12.0982 4.09858 14.1947 4.09858C16.2869 4.09858 18.0727 5.6035 18.0727 8.3457L18.0684 12.2982H20.2554L20.2575 8.56344C20.2575 4.23945 17.3958 2 14.1947 2C11.0032 2 8.14359 4.23945 8.14359 8.56344L8.14148 12.2982Z" fill="black"/>
<path d="M14.1925 19.5439C13.6903 19.5439 13.3755 19.2301 13.3617 18.7203L13.2466 14.9501C13.2307 14.4277 13.6286 14.0415 14.1925 14.0415C14.7363 14.0415 15.1565 14.4331 15.1406 14.9598L15.0192 18.7203C15.0053 19.2301 14.6927 19.5439 14.1925 19.5439ZM14.185 22.5015C13.5956 22.5015 13.1006 22.0362 13.1006 21.4435C13.1006 20.8454 13.5881 20.3844 14.185 20.3844C14.7949 20.3844 15.2962 20.84 15.2962 21.4435C15.2962 22.0362 14.7991 22.5015 14.185 22.5015Z" fill="white"/>
</svg>
