<svg width="28" height="28" viewBox="0 0 28 28" fill="none" xmlns="http://www.w3.org/2000/svg">
<path d="M14.105 26.2301C20.7369 26.2301 26.2121 20.7549 26.2121 14.123C26.2121 7.50291 20.7273 2.01807 14.0954 2.01807C7.47523 2.01807 2 7.50291 2 14.123C2 20.7549 7.48484 26.2301 14.105 26.2301Z" fill="black"/>
<path d="M14.1049 19.0759C9.48047 19.0759 6.24023 15.2961 6.24023 14.1305C6.24023 12.9575 9.45164 9.18738 14.1049 9.18738C18.7708 9.18738 21.9621 12.9575 21.9621 14.1305C21.9621 15.2961 18.7804 19.0759 14.1049 19.0759ZM14.1049 17.3354C15.881 17.3354 17.3215 15.8694 17.3215 14.1326C17.3215 12.3491 15.881 10.9299 14.1049 10.9299C12.3255 10.9299 10.8809 12.3491 10.8905 14.1326C10.8905 15.8694 12.3255 17.3354 14.1049 17.3354ZM14.1145 15.5434C13.3453 15.5434 12.6963 14.8805 12.6963 14.1326C12.6963 13.3773 13.3453 12.7219 14.1145 12.7219C14.872 12.7219 15.5177 13.3773 15.5177 14.1326C15.5177 14.8805 14.872 15.5434 14.1145 15.5434Z" fill="white"/>
</svg>
