<svg width="28" height="28" viewBox="0 0 28 28" fill="none" xmlns="http://www.w3.org/2000/svg">
<path d="M13.7336 25.8077C13.9401 25.8077 14.2457 25.7268 14.5429 25.5745C21.2573 22.1161 23.4672 20.3004 23.4672 16.0954V7.37557C23.4672 6.01245 22.9431 5.52237 21.7942 5.0405C20.5075 4.51175 16.1964 2.97916 14.9404 2.55471C14.5565 2.43237 14.125 2.35901 13.7336 2.35901C13.3443 2.35901 12.9128 2.44198 12.5364 2.55471C11.2708 2.95995 6.96179 4.52136 5.67507 5.0405C4.53578 5.51065 4 6.01245 4 7.37557V16.0954C4 20.3004 6.31023 21.9485 12.9243 25.5745C13.2311 25.7365 13.5292 25.8077 13.7336 25.8077Z" fill="black"/>
<path d="M9.37646 18.3193V13.58C9.37646 12.7393 9.71749 12.3111 10.3953 12.2431V10.88C10.3953 8.63653 11.746 7.12598 13.7358 7.12598C15.7277 7.12598 17.0785 8.63653 17.0785 10.88V12.2452C17.7542 12.3111 18.0931 12.7393 18.0931 13.58V18.3193C18.0931 19.247 17.682 19.6773 16.831 19.6773H10.6428C9.78757 19.6773 9.37646 19.247 9.37646 18.3193ZM11.8276 12.2166H15.6441V10.752C15.6441 9.40575 14.8786 8.52309 13.7337 8.52309C12.5909 8.52309 11.8276 9.40785 11.8276 10.752V12.2166Z" fill="white"/>
</svg>
