<svg width="28" height="28" viewBox="0 0 28 28" fill="none" xmlns="http://www.w3.org/2000/svg">
<path d="M4 22.5287C4 25.0602 5.29562 26.3655 7.80577 26.3655H20.2891C22.8013 26.3655 24.0948 25.0602 24.0948 22.5287V4.84632C24.0948 2.32445 22.8013 1 20.2891 1H7.80577C5.29562 1 4 2.32445 4 4.84632V22.5287Z" fill="black"/>
<path d="M12.753 19.4701C12.3007 19.4701 11.9484 19.2787 11.613 18.8537L8.73914 15.37C8.53172 15.1019 8.43164 14.8218 8.43164 14.5344C8.43164 13.9279 8.89757 13.4437 9.50202 13.4437C9.8639 13.4437 10.1524 13.5798 10.4463 13.9645L12.7029 16.8227L17.5582 9.07583C17.805 8.66404 18.135 8.46295 18.5042 8.46295C19.0894 8.46295 19.6268 8.87357 19.6268 9.47802C19.6268 9.74849 19.485 10.0466 19.3137 10.3042L13.8291 18.8453C13.5715 19.2573 13.1895 19.4701 12.753 19.4701Z" fill="white"/>
</svg>
