<svg width="28" height="28" viewBox="0 0 28 28" fill="none" xmlns="http://www.w3.org/2000/svg">
<path d="M13.7336 25.8078C13.9401 25.8078 14.2457 25.7269 14.5429 25.5746C21.2573 22.1162 23.4672 20.3005 23.4672 16.0955V7.37563C23.4672 6.01251 22.9431 5.52243 21.7942 5.04056C20.5075 4.51181 16.1964 2.97923 14.9404 2.55477C14.5565 2.43243 14.125 2.35907 13.7336 2.35907C13.3443 2.35907 12.9128 2.44204 12.5364 2.55477C11.2708 2.96001 6.96179 4.52142 5.67507 5.04056C4.53578 5.51071 4 6.01251 4 7.37563V16.0955C4 20.3005 6.31023 21.9486 12.9243 25.5746C13.2311 25.7366 13.5292 25.8078 13.7336 25.8078Z" fill="black"/>
<path d="M13.7379 15.5996C13.0505 15.5996 12.6696 15.2197 12.6473 14.5227L12.4727 8.61052C12.4505 7.89451 12.9687 7.39435 13.7262 7.39435C14.472 7.39435 15.0115 7.90623 14.9892 8.62013L14.8146 14.5184C14.7924 15.2293 14.404 15.5996 13.7379 15.5996ZM13.7379 19.6372C12.9525 19.6372 12.2988 19.0641 12.2988 18.301C12.2988 17.5379 12.9429 16.9552 13.7379 16.9552C14.5329 16.9552 15.1706 17.5325 15.1706 18.301C15.1706 19.0738 14.5233 19.6372 13.7379 19.6372Z" fill="white"/>
</svg>
