<svg width="28" height="28" viewBox="0 0 28 28" fill="none" xmlns="http://www.w3.org/2000/svg">
<path d="M6 23.4008C6 25.3365 7.35117 26.6312 9.37101 26.6312H18.5798C20.5701 26.6312 21.9002 25.3365 21.9002 23.3987V4.23249C21.9002 2.29258 20.5701 1 18.5798 1H9.37101C7.35117 1 6 2.29258 6 4.23038V23.4008ZM8.29592 22.8726V4.75866C8.29592 3.86545 8.82772 3.36131 9.76475 3.36131H18.1472C19.0725 3.36131 19.6043 3.86967 19.6043 4.76076V22.8705C19.6043 23.7615 19.0725 24.2699 18.1472 24.2699H9.76475C8.82772 24.2699 8.29592 23.7658 8.29592 22.8726Z" fill="black"/>
<path d="M9.78809 16.8128C9.78809 17.4955 10.1066 17.8258 10.75 17.8258H14.7669C15.4199 17.8258 15.7384 17.4955 15.7384 16.8128V13.7448C15.7384 13.0621 15.4199 12.7201 14.7669 12.7201H10.75C10.1066 12.7201 9.78809 13.0621 9.78809 13.7448V16.8128ZM13.7549 13.3661H14.9846V11.7843C14.9846 10.9466 15.4302 10.4116 16.2059 10.4116C16.9817 10.4116 17.4177 10.9466 17.4177 11.7843V12.5467C17.4177 12.8842 17.6998 13.1664 18.0373 13.1664C18.3727 13.1664 18.6453 12.8842 18.6453 12.5467V11.7843C18.6453 10.2909 17.6898 9.21484 16.2059 9.21484C14.72 9.21484 13.7549 10.2909 13.7549 11.8792V13.3661Z" fill="black"/>
</svg>
