<svg width="28" height="28" viewBox="0 0 28 28" fill="none" xmlns="http://www.w3.org/2000/svg">
<path d="M4.70601 26.0136C6.13125 26.0136 9.56555 24.5143 11.6737 23.0129C11.8983 22.8597 12.075 22.8032 12.2623 22.8032C12.4104 22.8128 12.5501 22.8224 12.6813 22.8224C21.1432 22.8161 27.1329 18.1822 27.1329 11.9139C27.1329 5.87171 21.1022 1 13.5675 1C6.0307 1 0 5.87171 0 11.9139C0 15.6808 2.26852 19.0476 6.1125 21.1201C6.32414 21.2371 6.38484 21.4129 6.27633 21.6182C5.59055 22.749 4.44609 24.0254 3.98601 24.624C3.46992 25.2754 3.76781 26.0136 4.70601 26.0136Z" fill="black"/>
<path d="M12.2613 17.7899C11.8186 17.7899 11.4567 17.608 11.1309 17.1831L8.25705 13.6898C8.04752 13.4237 7.93994 13.1437 7.93994 12.8542C7.93994 12.2476 8.41549 11.7634 9.01994 11.7634C9.3797 11.7634 9.66072 11.8996 9.96212 12.2842L12.2208 15.1445L17.0665 7.39559C17.3229 6.9838 17.6529 6.78271 18.022 6.78271C18.5976 6.78271 19.1351 7.19333 19.1351 7.79778C19.1351 8.06825 18.9933 8.36637 18.8315 8.62395L13.3469 17.1768C13.0798 17.5771 12.6977 17.7899 12.2613 17.7899Z" fill="white"/>
</svg>
