<svg width="28" height="28" viewBox="0 0 28 28" fill="none" xmlns="http://www.w3.org/2000/svg">
<path d="M1 14.105C1 20.7251 6.48484 26.21 13.105 26.21C16.9087 26.21 20.4674 24.3073 22.6274 21.4613C23.1355 20.8381 23.0341 20.0881 22.502 19.7023C21.9297 19.2955 21.2406 19.4752 20.7773 20.0211C18.9958 22.3283 16.2571 23.8159 13.105 23.8255C7.71085 23.8351 3.38452 19.4991 3.38452 14.105C3.38452 8.71085 7.71085 4.39412 13.105 4.39412C17.673 4.39412 21.4649 7.47898 22.5149 11.6998H20.838C19.9469 11.6998 19.7043 12.3627 20.2129 13.0852L23.0087 17.0197C23.428 17.604 24.077 17.6072 24.5038 17.0197L27.2922 13.0948C27.8179 12.3648 27.5741 11.6998 26.6767 11.6998H24.962C23.8408 6.19648 18.9128 2 13.105 2C6.48484 2 1 7.47312 1 14.105Z" fill="black"/>
<path d="M10.2206 19.9724H16.1813C17.0004 19.9724 17.3977 19.556 17.3977 18.6644V14.1112C17.3977 13.2196 17.0004 12.8031 16.1813 12.8031L11.3576 12.7935V11.3757C11.3576 10.0731 12.0933 9.21808 13.2242 9.21808C14.3065 9.21808 15.0444 9.92426 15.0444 10.9972V11.2384C15.0444 11.664 15.3561 11.9036 15.7467 11.9036C16.1182 11.9036 16.4129 11.6502 16.4129 11.23V10.9825C16.4129 9.14309 15.125 7.88684 13.2242 7.88684C11.2824 7.88684 9.98906 9.33996 9.98906 11.4941V12.8158C9.32719 12.8817 9 13.296 9 14.0952V18.6644C9 19.556 9.39726 19.9724 10.2206 19.9724Z" fill="black"/>
</svg>
