<svg width="28" height="28" viewBox="0 0 28 28" fill="none" xmlns="http://www.w3.org/2000/svg">
<path d="M5 18.726C5 20.5508 5.70641 21.8889 7.04961 22.6597C7.70891 23.0249 8.09867 23.4733 8.34359 24.2415L8.79664 25.603C9.04249 26.3678 9.61202 26.7501 10.4309 26.7501H15.9146C16.7548 26.7501 17.2934 26.3774 17.5393 25.603L18.0019 24.2415C18.2469 23.4733 18.6387 23.0249 19.2959 22.6597C20.637 21.8889 21.3455 20.553 21.3455 18.726V9.02405C21.3455 7.1971 20.637 5.87077 19.2959 5.09031C18.6387 4.72515 18.2469 4.27468 18.0019 3.51812L17.5393 2.14703C17.3148 1.39187 16.7452 1 15.9146 1H10.4309C9.61202 1 9.04249 1.38226 8.79664 2.14703L8.34359 3.51812C8.10195 4.27351 7.70797 4.74531 7.04961 5.09031C5.71602 5.83984 5 7.17788 5 9.02405V18.726ZM7.03788 18.3597V9.39999C7.03788 7.68764 8.02577 6.66248 9.69663 6.66248H16.651C18.3198 6.66248 19.3119 7.68975 19.3119 9.39999V18.3597C19.3119 20.0603 18.3198 21.0855 16.651 21.0855H9.69663C8.02577 21.0855 7.03788 20.0624 7.03788 18.3597ZM20.9612 13.09H21.4484C22.1105 13.09 22.5533 12.6355 22.5533 11.9148V10.3117C22.5533 9.59523 22.1105 9.13867 21.4484 9.13867H20.9612V13.09Z" fill="black"/>
<path d="M11.1979 17.882H15.2245C15.8774 17.882 16.1959 17.5422 16.1959 16.8573V13.7755C16.1959 13.243 15.9904 12.9203 15.5889 12.7977V12.0198C15.5889 10.4315 14.6237 9.35547 13.209 9.35547C11.7944 9.35547 10.8388 10.4315 10.8388 12.0198V12.8094C10.4373 12.9245 10.2339 13.243 10.2339 13.7755V16.8573C10.2339 17.5422 10.5524 17.882 11.1979 17.882ZM12.0686 12.7647V11.927C12.0686 11.0894 12.5141 10.5522 13.209 10.5522C13.9061 10.5522 14.3495 11.0894 14.3495 11.927V12.7647H12.0686Z" fill="black"/>
</svg>
