<svg width="28" height="28" viewBox="0 0 28 28" fill="none" xmlns="http://www.w3.org/2000/svg">
<path d="M14.5054 26.2774C16.555 26.2774 18.3332 25.744 19.7781 24.6909L18.3733 23.2978C17.2483 23.9787 15.9391 24.3005 14.4405 24.3005C10.2435 24.3005 7.68063 21.6276 7.68063 16.9357V12.6286L5.81104 10.759V17.138C5.81104 22.7932 9.29103 26.2774 14.5054 26.2774ZM21.3534 19.6821L22.7549 21.0815C23.0116 20.5586 23.264 20.0006 23.4716 19.3936L25.5595 13.5337C25.7106 13.1154 25.7852 12.7108 25.7852 12.3201C25.7755 11.0608 24.8793 10.0273 23.4292 10.0273C22.6284 10.0273 21.8809 10.5056 21.4783 11.4166L20.8431 12.9698C20.8197 13.0242 20.7888 13.0456 20.744 13.0456C20.6875 13.0456 20.6662 13.0125 20.6662 12.9485V3.91288C20.6662 2.44593 19.7095 1.49226 18.2683 1.49226C17.8216 1.49226 17.4133 1.63523 17.0915 1.90945C16.8695 0.719298 16.0413 0 14.8431 0C13.6727 0 12.8231 0.740626 12.5798 1.88813C12.2953 1.62352 11.9008 1.49226 11.5084 1.49226C10.1695 1.49226 9.26174 2.42578 9.26174 3.80132V4.91555C8.96642 4.62844 8.53447 4.47586 8.09079 4.47586C7.52712 4.47586 7.04454 4.69664 6.74009 5.06883L8.19976 6.53062V6.46335C8.23493 6.3096 8.33524 6.2135 8.51454 6.2135C8.94438 6.2135 9.26009 6.52921 9.26009 6.97827V7.58883L10.8897 9.22593V4.08819C10.8897 3.64874 11.1745 3.33303 11.6043 3.33303C12.0438 3.33303 12.3499 3.64874 12.3499 4.08819V10.6786L14.087 12.4158V2.61304C14.087 2.16397 14.3931 1.84077 14.8326 1.84077C15.2528 1.84077 15.5589 2.16397 15.5589 2.61304V12.3984C15.5589 12.8761 15.944 13.2398 16.4238 13.2398C16.8918 13.2398 17.2961 12.8761 17.2961 12.3984V4.08819C17.2961 3.64874 17.598 3.33303 18.0278 3.33303C18.4577 3.33303 18.7659 3.64874 18.7659 4.08819V15.764C18.7659 16.3378 19.169 16.8143 19.7434 16.8122C20.2096 16.8079 20.6245 16.593 20.9045 15.9776L22.5632 12.2705C22.7765 11.7724 23.155 11.5814 23.538 11.7169C23.9444 11.8469 24.0883 12.2651 23.9006 12.7952L21.7298 18.7875C21.6093 19.0999 21.4931 19.3985 21.3534 19.6821Z" fill="black"/>
<path d="M23.2147 26.1431C23.5651 26.4935 24.1818 26.5073 24.5343 26.1431C24.8847 25.7693 24.8985 25.1878 24.5343 24.8236L3.59615 3.89719C3.23193 3.53297 2.63662 3.53297 2.26279 3.89719C1.9124 4.25718 1.9124 4.86422 2.26279 5.21671L23.2147 26.1431Z" fill="black"/>
</svg>
