<svg width="28" height="28" viewBox="0 0 28 28" fill="none" xmlns="http://www.w3.org/2000/svg">
<path d="M7.31151 24.6505H9.82495C10.0467 24.6505 10.2077 24.7145 10.3729 24.8797L12.1565 26.6516C13.6774 28.1842 15.1096 28.1745 16.6305 26.6516L18.4141 24.8797C18.5889 24.7145 18.7403 24.6505 18.9717 24.6505H21.4755C23.6343 24.6505 24.6492 23.641 24.6492 21.4747V18.9709C24.6492 18.7417 24.7153 18.5881 24.8805 18.4133L26.6524 16.6318C28.1828 15.111 28.1732 13.6787 26.6524 12.1557L24.8805 10.3742C24.7132 10.209 24.6492 10.048 24.6492 9.82627V7.31283C24.6492 5.16362 23.6397 4.13916 21.4755 4.13916H18.9717C18.7403 4.13916 18.5868 4.08268 18.4141 3.91745L16.6305 2.14557C15.1075 0.612993 13.6774 0.622602 12.1565 2.14768L10.3729 3.91745C10.2098 4.08268 10.0467 4.13916 9.82495 4.13916H7.31151C5.15269 4.13916 4.13784 5.14229 4.13784 7.31283V9.82627C4.13784 10.048 4.08136 10.2111 3.91613 10.3742L2.14425 12.1557C0.613783 13.6787 0.623392 15.111 2.14425 16.6318L3.91613 18.4133C4.08136 18.5881 4.13784 18.7417 4.13784 18.9709V21.4747C4.13784 23.6335 5.1548 24.6505 7.31151 24.6505Z" fill="black"/>
<path d="M10.5495 19.3574C9.93454 19.3574 9.45361 18.8689 9.45361 18.2401C9.45361 17.9528 9.56423 17.6825 9.77915 17.4718L12.8354 14.4113L9.77915 11.3434C9.56423 11.1402 9.45361 10.8603 9.45361 10.573C9.45361 9.95377 9.93454 9.48455 10.5495 9.48455C10.8676 9.48455 11.1143 9.59096 11.3293 9.79627L14.3984 12.8558L17.4889 9.78666C17.7155 9.56002 17.9623 9.46533 18.2686 9.46533C18.8858 9.46533 19.3742 9.94416 19.3742 10.5538C19.3742 10.8507 19.2732 11.1113 19.0508 11.3338L15.9774 14.4113L19.0411 17.4601C19.254 17.6729 19.3646 17.9432 19.3646 18.2401C19.3646 18.8689 18.8761 19.3574 18.2494 19.3574C17.9314 19.3574 17.6558 19.2531 17.4504 19.036L14.3984 15.9786L11.3581 19.036C11.1432 19.2531 10.8676 19.3574 10.5495 19.3574Z" fill="white"/>
</svg>
