<svg width="28" height="28" viewBox="0 0 28 28" fill="none" xmlns="http://www.w3.org/2000/svg">
<path d="M4 16.539C4 20.8142 6.34539 22.4879 13.0755 26.1767C13.3823 26.3387 13.69 26.4195 13.8965 26.4195C14.103 26.4195 14.4203 26.3387 14.7175 26.1767C21.4572 22.4975 23.793 20.8142 23.793 16.539V7.67958C23.793 6.29092 23.2551 5.80084 22.0923 5.30514C20.7897 4.76256 16.3987 3.21826 15.1213 2.78209C14.7332 2.65764 14.29 2.57678 13.8965 2.57678C13.503 2.57678 13.0598 2.67897 12.6812 2.78209C11.4039 3.14678 7.00328 4.77217 5.70062 5.30514C4.5475 5.79123 4 6.29092 4 7.67958V16.539ZM14.1004 23.9183V4.81083C14.2096 4.82044 14.3221 4.85442 14.5087 4.91489C16.0778 5.53153 19.427 6.7231 21.1907 7.34419C21.5113 7.4656 21.5922 7.64021 21.5922 8.05341V16.1012C21.5922 19.5641 19.8705 20.4943 14.5724 23.6902C14.3798 23.8159 14.2326 23.8895 14.1004 23.9183Z" fill="black"/>
</svg>
