<svg width="28" height="28" viewBox="0 0 28 28" fill="none" xmlns="http://www.w3.org/2000/svg">
<path d="M4.54541 16.539C4.54541 20.8142 6.89291 22.4879 13.6209 26.1767C13.9277 26.3387 14.2375 26.4195 14.4419 26.4195C14.6484 26.4195 14.9657 26.3387 15.2629 26.1767C17.0901 25.1771 18.5763 24.3289 19.7854 23.5405L18.1047 21.8502C17.268 22.3885 16.2841 22.9716 15.1178 23.6902C14.7864 23.8949 14.6104 23.9588 14.4419 23.9588C14.2734 23.9588 14.107 23.897 13.766 23.6902C8.40884 20.4238 6.74618 19.5451 6.74618 16.1012V10.4916L4.54541 8.30256V16.539ZM23.3528 20.319C24.0475 19.2484 24.3384 18.0648 24.3384 16.539V7.67958C24.3384 6.29092 23.8005 5.80084 22.6378 5.30514C21.3351 4.76256 16.9441 3.21826 15.6667 2.78209C15.2786 2.65764 14.8354 2.57678 14.4419 2.57678C14.0484 2.57678 13.6052 2.67897 13.2267 2.78209C12.2392 3.08819 9.6733 3.99733 7.76454 4.71897L9.50571 6.46763C11.0226 5.91005 12.8226 5.27231 13.8297 4.91489C14.0953 4.81598 14.275 4.782 14.4419 4.782C14.6088 4.782 14.7906 4.82559 15.0541 4.91489C16.6424 5.48138 19.9725 6.7231 21.7361 7.34419C22.0589 7.4656 22.1376 7.64021 22.1376 8.05341V16.1012C22.1376 17.1155 21.985 17.9059 21.6222 18.5863L23.3528 20.319Z" fill="black"/>
<path d="M24.1333 25.8055C24.4975 26.1676 25.1024 26.1697 25.4528 25.8055C25.8149 25.4412 25.8171 24.8502 25.4528 24.4859L3.59924 2.64401C3.23502 2.27979 2.63971 2.27979 2.26799 2.64401C1.90588 2.9944 1.91549 3.60143 2.26799 3.96354L24.1333 25.8055Z" fill="black"/>
</svg>
