<svg width="28" height="28" viewBox="0 0 28 28" fill="none" xmlns="http://www.w3.org/2000/svg">
<path d="M3.84421 24.878H23.9109C26.4499 24.878 27.7552 23.5823 27.7552 21.0818V6.80998C27.7552 4.30733 26.4499 3.00421 23.9109 3.00421H3.84421C1.31484 3.00421 0 4.30733 0 6.80998V21.0818C0 23.5823 1.31484 24.878 3.84421 24.878ZM3.97733 22.582C2.88772 22.582 2.29592 22.0179 2.29592 20.8793V7.01037C2.29592 5.87177 2.88772 5.30013 3.97733 5.30013H23.7778C24.8578 5.30013 25.4592 5.87177 25.4592 7.01037V20.8793C25.4592 22.0179 24.8578 22.582 23.7778 22.582H3.97733Z" fill="black"/>
<path d="M12.6286 19.508C13.0491 19.508 13.4152 19.2994 13.6568 18.915L18.9059 10.7254C19.0538 10.4742 19.1956 10.1995 19.1956 9.93537C19.1956 9.35107 18.6783 8.9585 18.125 8.9585C17.7739 8.9585 17.4535 9.16287 17.2151 9.54912L12.5902 16.9826L10.4007 14.2052C10.1227 13.8344 9.83842 13.7217 9.49459 13.7217C8.91779 13.7217 8.47412 14.1783 8.47412 14.753C8.47412 15.0361 8.57209 15.2906 8.7753 15.5449L11.5386 18.9213C11.8601 19.3228 12.1943 19.508 12.6286 19.508Z" fill="black"/>
</svg>
