<svg width="28" height="28" viewBox="0 0 28 28" fill="none" xmlns="http://www.w3.org/2000/svg">
<path d="M13.7336 25.8078C13.9401 25.8078 14.2457 25.7269 14.5429 25.5746C21.2573 22.1162 23.4672 20.3005 23.4672 16.0955V7.37563C23.4672 6.01251 22.9431 5.52243 21.7942 5.04056C20.5075 4.51181 16.1964 2.97923 14.9404 2.55477C14.5565 2.43243 14.125 2.35907 13.7336 2.35907C13.3443 2.35907 12.9128 2.44204 12.5364 2.55477C11.2708 2.96001 6.96179 4.52142 5.67507 5.04056C4.53578 5.51071 4 6.01251 4 7.37563V16.0955C4 20.3005 6.31023 21.9486 12.9243 25.5746C13.2311 25.7366 13.5292 25.8078 13.7336 25.8078Z" fill="black"/>
<path d="M12.4293 19.3517C11.9866 19.3517 11.6247 19.1698 11.2989 18.7449L8.42502 15.2516C8.2176 14.9834 8.10791 14.7034 8.10791 14.416C8.10791 13.8095 8.58346 13.3252 9.18791 13.3252C9.54978 13.3252 9.82869 13.4614 10.1322 13.846L12.3888 16.7138L17.2345 8.95743C17.4909 8.54564 17.823 8.34454 18.19 8.34454C18.7657 8.34454 19.3052 8.75517 19.3052 9.35962C19.3052 9.63969 19.1709 9.92821 18.9996 10.1858L13.5149 18.7365C13.2478 19.1389 12.8657 19.3517 12.4293 19.3517Z" fill="white"/>
</svg>
