<svg width="28" height="28" viewBox="0 0 28 28" fill="none" xmlns="http://www.w3.org/2000/svg">
<path d="M5.31163 26.1329C6.93585 26.1329 10.223 24.5561 12.6947 22.7872C20.9639 22.9403 27.1329 18.1705 27.1329 11.9139C27.1329 5.87171 21.1022 1 13.5675 1C6.0307 1 0 5.87171 0 11.9139C0 15.7576 2.39977 19.1973 6.07125 20.98C5.56711 21.9299 4.66711 23.2473 4.15453 23.9219C3.41532 24.9025 3.92742 26.1329 5.31163 26.1329ZM6.71084 23.7616C6.56858 23.8157 6.51444 23.7348 6.60889 23.6085C7.20819 22.8674 8.10772 21.6993 8.53569 20.9008C8.88702 20.2492 8.76491 19.6848 8.01069 19.3269C4.42803 17.6498 2.35451 14.9699 2.35451 11.9139C2.35451 7.19147 7.32913 3.34491 13.5675 3.34491C19.8134 3.34491 24.788 7.19147 24.788 11.9139C24.788 16.6267 19.8134 20.4733 13.5675 20.4733C13.35 20.4733 13.0247 20.4637 12.6108 20.4541C12.1101 20.4541 11.733 20.6001 11.2666 20.9706C9.85475 22.0136 7.75616 23.3385 6.71084 23.7616Z" fill="black"/>
<path d="M12.3069 17.5752C12.7274 17.5752 13.0935 17.3666 13.3447 16.9919L18.5842 8.79271C18.7321 8.55107 18.8739 8.26888 18.8739 8.00263C18.8739 7.42794 18.3566 7.03748 17.8129 7.03748C17.4618 7.03748 17.1414 7.23013 16.8934 7.62599L12.2685 15.0595L10.0886 12.2821C9.80093 11.9113 9.52624 11.789 9.18241 11.789C8.60562 11.789 8.15234 12.2455 8.15234 12.8298C8.15234 13.1033 8.25992 13.3675 8.45351 13.6218L11.2265 16.9982C11.5384 17.3997 11.8822 17.5752 12.3069 17.5752Z" fill="black"/>
</svg>
