<svg width="28" height="28" viewBox="0 0 28 28" fill="none" xmlns="http://www.w3.org/2000/svg">
<path d="M6.84421 24.8972H21.0295C23.5685 24.8972 24.8737 23.5919 24.8737 21.0914V6.82921C24.8737 4.32656 23.5685 3.02344 21.0295 3.02344H6.84421C4.31484 3.02344 3 4.31695 3 6.82921V21.0914C3 23.6016 4.31484 24.8972 6.84421 24.8972ZM6.97733 22.6013C5.88772 22.6013 5.29592 22.0371 5.29592 20.8985V7.01999C5.29592 5.88139 5.88772 5.31936 6.97733 5.31936H20.8964C21.9764 5.31936 22.5778 5.88139 22.5778 7.01999V20.8985C22.5778 22.0371 21.9764 22.6013 20.8964 22.6013H6.97733Z" fill="black"/>
<path d="M9.74414 18.4903C9.74414 19.3819 10.1414 19.7984 10.9648 19.7984H16.9254C17.7541 19.7984 18.1514 19.3819 18.1514 18.4903V13.9212C18.1514 13.1219 17.8242 12.7172 17.1569 12.6535V11.3201C17.1569 9.16597 15.8594 7.72034 13.9429 7.72034C12.0265 7.72034 10.7332 9.16597 10.7332 11.3201V12.6492C10.0734 12.7172 9.74414 13.1219 9.74414 13.9212V18.4903ZM12.1017 12.627V11.2017C12.1017 9.9087 12.8374 9.05159 13.9429 9.05159C15.0506 9.05159 15.7884 9.90659 15.7884 11.2017V12.627H12.1017Z" fill="black"/>
</svg>
