<svg width="35" height="28" viewBox="0 0 35 28" fill="none" xmlns="http://www.w3.org/2000/svg">
<path d="M0 22.1146C0 22.9372 0.673591 23.6087 1.48452 23.6087H33.0147C33.8278 23.6087 34.5014 22.9372 34.5014 22.1146C34.5014 21.2919 33.8278 20.6226 33.0147 20.6226H30.5327V6.80312C30.5327 4.98321 29.5357 4.01501 27.7254 4.01501H6.776C5.03296 4.01501 3.96656 4.98321 3.96656 6.80312V20.6226H1.48452C0.673591 20.6226 0 21.2919 0 22.1146ZM6.26248 20.6226V7.40429C6.26248 6.66695 6.62693 6.31093 7.35584 6.31093H27.1455C27.8723 6.31093 28.2368 6.66695 28.2368 7.40429V20.6226H6.26248Z" fill="black"/>
<path d="M13.0933 16.551C13.0933 17.2337 13.4119 17.5661 14.0552 17.5661H18.0722C18.7155 17.5661 19.034 17.2337 19.034 16.551V13.483C19.034 12.8003 18.7155 12.4604 18.0722 12.4604H14.0552C13.4119 12.4604 13.0933 12.8003 13.0933 13.483V16.551ZM17.0601 13.1064H18.2878V11.5246C18.2878 10.6869 18.7333 10.1497 19.5091 10.1497C20.287 10.1497 20.7208 10.6869 20.7208 11.5246V12.2849C20.7208 12.6224 21.003 12.9046 21.3426 12.9046C21.678 12.9046 21.9506 12.6224 21.9506 12.2849V11.5246C21.9506 10.029 20.9951 8.953 19.5091 8.953C18.0157 8.953 17.0601 10.029 17.0601 11.6174V13.1064Z" fill="black"/>
</svg>
