<svg width="28" height="28" viewBox="0 0 28 28" fill="none" xmlns="http://www.w3.org/2000/svg">
<path d="M11.8882 26.0809C12.8224 25.4024 13.9308 23.9073 14.4014 22.4179C14.5109 22.0989 14.4185 21.6358 14.0182 21.5005C13.5818 21.3451 13.2166 21.5655 13.0838 21.9208C12.5135 23.3898 11.809 24.2945 11.0133 24.9229C10.695 25.1805 10.6087 25.603 10.8248 25.9351C11.0313 26.2865 11.5284 26.346 11.8882 26.0809ZM15.12 19.5271C15.4397 17.9071 15.315 15.8861 14.7366 14.0987C14.5779 13.6335 14.2043 13.427 13.8073 13.5548C13.4316 13.6783 13.208 14.0326 13.3432 14.4702C13.8781 16.1884 13.9697 17.8326 13.7065 19.3281C13.6341 19.7176 13.8 20.0891 14.2418 20.1541C14.6527 20.2286 15.0359 19.9806 15.12 19.5271Z" fill="black"/>
<path d="M9.10812 25.1329C11.0596 23.5628 12.1374 21.0576 12.1257 18.2828C12.114 16.1844 11.3673 14.8944 11.3673 13.7716C11.3673 12.3098 12.3976 11.3401 13.9105 11.3401C16.1846 11.3401 16.9843 13.8981 17.0631 17.1845C17.1728 20.8155 15.8696 23.9535 14.1036 25.498C13.7971 25.7535 13.7321 26.1526 13.9365 26.473C14.1824 26.8211 14.6837 26.886 15.0137 26.5773C16.8967 24.8669 18.4351 21.1178 18.4138 17.0844C18.3999 12.955 17.1917 9.9032 13.9105 9.9032C11.6612 9.9032 9.95375 11.4048 9.95375 13.6459C9.95375 14.9997 10.6632 16.6455 10.677 18.2828C10.6888 20.6158 9.81734 22.7038 8.21187 24.0046C7.87226 24.2835 7.81695 24.6901 8.03515 25.0148C8.30234 25.3862 8.7664 25.4235 9.10812 25.1329Z" fill="black"/>
<path d="M6.61547 23.5712C7.51641 23.1112 8.69157 21.5814 9.03024 20.3765C9.13875 20.0104 8.9611 19.5803 8.5725 19.4526C8.21063 19.3248 7.82743 19.543 7.68376 19.9518C7.36524 20.9577 6.82501 21.7101 5.97047 22.2939C5.53383 22.6016 5.44993 22.9881 5.59149 23.2977C5.74899 23.6329 6.16618 23.799 6.61547 23.5712ZM18.424 10.6103C19.5396 12.269 20.1 14.5225 20.1 17.3071C20.1 20.2813 19.2797 23.0957 17.996 24.6873C17.7598 24.9981 17.7448 25.4324 18.0237 25.7071C18.3345 25.9923 18.855 25.9722 19.1105 25.6283C20.5697 23.6589 21.5156 20.5337 21.5156 17.2602C21.5156 13.6187 20.737 11.5537 19.6875 9.8418C19.4309 9.43727 18.9806 9.30743 18.623 9.49797C18.243 9.70235 18.1418 10.1845 18.424 10.6103Z" fill="black"/>
<path d="M9.15039 17.0235C8.8532 16.2245 8.39804 15.2399 8.39804 13.9122C8.39804 10.8076 10.8344 8.3692 13.9389 8.3692C15.1237 8.3692 15.4924 8.49389 16.5142 8.97881C16.907 9.15553 17.2668 9.04162 17.4105 8.75217C17.6031 8.39241 17.5009 7.956 17.0709 7.70686C16.2827 7.24139 15.1307 6.92053 13.9389 6.92053C10.0403 6.92053 6.94727 10.0157 6.94727 13.9122C6.94727 15.3676 7.34148 16.5925 7.73688 17.5738C7.91148 17.9985 8.30945 18.1944 8.76297 18.0081C9.14617 17.8569 9.28984 17.4461 9.15039 17.0235Z" fill="black"/>
<path d="M3.75056 21.3557C3.99642 21.692 4.48392 21.774 4.83735 21.4717C5.69587 20.7463 6.13462 19.5747 6.13462 18.3351C6.13462 16.6968 5.42517 15.8617 5.42517 13.8545C5.42517 9.23121 9.25813 5.39824 13.8814 5.39824C19.4286 5.39824 23.026 9.94817 23.0356 16.6902C23.0356 19.3478 22.5936 21.2015 22.1663 22.2468C22.0013 22.6354 22.1503 23.0601 22.4888 23.2368C22.8507 23.4006 23.3478 23.2602 23.4989 22.8419C23.9539 21.6144 24.4746 19.5543 24.4746 16.6785C24.4746 9.09129 20.2875 3.9613 13.8814 3.9613C8.46407 3.9613 3.98611 8.44676 3.98611 13.8545C3.98611 15.7954 4.72111 17.1067 4.73283 18.3234C4.73283 19.1223 4.43564 19.8672 3.90173 20.3455C3.59728 20.6158 3.54197 21.0587 3.75056 21.3557Z" fill="black"/>
<path d="M2.43975 17.9425C2.80912 17.8265 2.99006 17.4433 2.89209 17.0132C2.5949 15.8127 2.42334 14.6116 2.47561 12.973C2.48522 12.5205 2.22975 12.2502 1.84866 12.2162C1.36631 12.1726 1.07171 12.4729 1.03444 12.8931C0.933191 14.2384 1.04499 15.7762 1.50624 17.4198C1.63186 17.852 2.04272 18.0702 2.43975 17.9425ZM1.90303 10.84C2.29561 10.9879 2.74818 10.8039 2.92279 10.3375C4.79897 5.14421 9.26428 2.43906 13.9391 2.43906C16.0166 2.43906 17.6319 2.8546 19.037 3.62617C19.4882 3.87531 19.9609 3.87531 20.1536 3.45062C20.3474 3.02992 20.1449 2.72781 19.7992 2.51078C17.9926 1.3975 16.1879 1 13.9391 1C8.49038 1 3.6878 3.92125 1.52522 9.64234C1.29413 10.2473 1.521 10.708 1.90303 10.84ZM26.529 15.1994C26.942 15.1994 27.2347 14.863 27.1975 14.4191C26.687 9.58632 25.0977 6.58515 22.3654 4.15047C22.0086 3.82469 21.5542 3.91422 21.3276 4.18445C21.0754 4.46007 21.0709 4.88265 21.4394 5.22015C23.7901 7.44811 25.4174 10.2372 25.8095 14.451C25.8606 14.8757 26.1245 15.1994 26.529 15.1994Z" fill="black"/>
</svg>
