<svg width="28" height="28" viewBox="0 0 28 28" fill="none" xmlns="http://www.w3.org/2000/svg">
<path d="M7.31151 24.6505H9.82495C10.0467 24.6505 10.2077 24.7145 10.3729 24.8797L12.1565 26.6516C13.6774 28.1842 15.1096 28.1745 16.6305 26.6516L18.4141 24.8797C18.5889 24.7145 18.7403 24.6505 18.9717 24.6505H21.4755C23.6343 24.6505 24.6492 23.641 24.6492 21.4747V18.9709C24.6492 18.7417 24.7153 18.5881 24.8805 18.4133L26.6524 16.6318C28.1828 15.111 28.1732 13.6787 26.6524 12.1557L24.8805 10.3742C24.7132 10.209 24.6492 10.048 24.6492 9.82627V7.31283C24.6492 5.16362 23.6397 4.13916 21.4755 4.13916H18.9717C18.7403 4.13916 18.5868 4.08268 18.4141 3.91745L16.6305 2.14557C15.1075 0.612993 13.6774 0.622602 12.1565 2.14768L10.3729 3.91745C10.2098 4.08268 10.0467 4.13916 9.82495 4.13916H7.31151C5.15269 4.13916 4.13784 5.14229 4.13784 7.31283V9.82627C4.13784 10.048 4.08136 10.2111 3.91613 10.3742L2.14425 12.1557C0.613783 13.6787 0.623392 15.111 2.14425 16.6318L3.91613 18.4133C4.08136 18.5881 4.13784 18.7417 4.13784 18.9709V21.4747C4.13784 23.6335 5.1548 24.6505 7.31151 24.6505Z" fill="black"/>
<path d="M13.0922 20.1752C12.6495 20.1752 12.2897 19.9934 11.9619 19.5684L9.09006 16.0751C8.88053 15.8069 8.77295 15.5269 8.77295 15.2395C8.77295 14.633 9.24639 14.1488 9.85084 14.1488C10.2127 14.1488 10.4937 14.2828 10.7951 14.6695L13.0538 17.5374L17.8974 9.77887C18.1538 9.36918 18.4859 9.16809 18.8551 9.16809C19.4286 9.16809 19.9681 9.57871 19.9681 10.1832C19.9681 10.4632 19.8263 10.7496 19.6625 11.0093L14.1779 19.56C13.9107 19.9603 13.5308 20.1752 13.0922 20.1752Z" fill="white"/>
</svg>
