<svg width="28" height="28" viewBox="0 0 28 28" fill="none" xmlns="http://www.w3.org/2000/svg">
<path d="M12.6944 26.2774C17.0059 26.2774 20.0408 23.9622 21.6606 19.4032L23.7484 13.5433C23.8996 13.1154 23.9741 12.7012 23.9741 12.3201C23.9741 10.9915 22.9797 10.0273 21.6683 10.0273C20.8365 10.0273 20.0699 10.5056 19.6672 11.4166L19.0321 12.9795C19.0086 13.0242 18.9777 13.0552 18.9329 13.0552C18.8765 13.0552 18.8551 13.0125 18.8551 12.9581V3.92249C18.8551 2.44593 17.8984 1.49226 16.4572 1.49226C16.0105 1.49226 15.6022 1.64484 15.2804 1.90945C15.0585 0.719298 14.2302 0 13.0321 0C11.8616 0 11.012 0.740626 10.7687 1.88813C10.4842 1.63312 10.0898 1.49226 9.69741 1.49226C8.35843 1.49226 7.4507 2.42578 7.4507 3.81093V4.91555C7.15539 4.63805 6.72343 4.48547 6.27976 4.48547C4.94078 4.48547 4 5.4689 4 6.89436V17.138C4 22.7932 7.47999 26.2774 12.6944 26.2774ZM12.6294 24.3101C8.43249 24.3101 5.8696 21.6276 5.8696 16.9357V7.10905C5.8696 6.65999 6.15647 6.35389 6.59593 6.35389C7.02577 6.35389 7.33937 6.65999 7.33937 7.10905V13.1416C7.33937 13.6385 7.74577 13.9926 8.1946 13.9926C8.66475 13.9926 9.07866 13.6385 9.07866 13.1416V4.0978C9.07866 3.64874 9.36342 3.33303 9.79327 3.33303C10.2327 3.33303 10.5388 3.64874 10.5388 4.0978V12.5313C10.5388 13.0303 10.9452 13.3823 11.4037 13.3823C11.8738 13.3823 12.276 13.0303 12.276 12.5313V2.61304C12.276 2.16397 12.5821 1.84077 13.0216 1.84077C13.4418 1.84077 13.7479 2.16397 13.7479 2.61304V12.3984C13.7479 12.8761 14.133 13.2494 14.6127 13.2494C15.0808 13.2494 15.4851 12.8761 15.4851 12.3984V4.0978C15.4851 3.64874 15.7869 3.33303 16.2168 3.33303C16.6466 3.33303 16.9548 3.64874 16.9548 4.0978V15.764C16.9548 16.4365 17.3769 16.8143 17.9324 16.8122C18.3986 16.8079 18.8134 16.593 19.0935 15.9776L20.781 12.2011C20.9847 11.7415 21.3824 11.591 21.7483 11.7265C22.1526 11.8758 22.2869 12.2651 22.0991 12.776L19.9187 18.7875C18.4743 22.7709 16.0171 24.3101 12.6294 24.3101Z" fill="black"/>
</svg>
