<svg width="28" height="28" viewBox="0 0 28 28" fill="none" xmlns="http://www.w3.org/2000/svg">
<path d="M4 24.5828C4 26.6115 5.3725 27.936 7.48022 27.936H20.6565C22.7643 27.936 24.1368 26.6115 24.1368 24.5828V4.3628C24.1368 2.33406 22.7643 1 20.6565 1H7.48022C5.3725 1 4 2.33406 4 4.3628V24.5828ZM6.29592 24.2052V4.74249C6.29592 3.82795 6.82913 3.29592 7.79053 3.29592H20.3462C21.298 3.29592 21.8409 3.82795 21.8409 4.74249V24.2052C21.8409 25.1176 21.298 25.6401 20.3462 25.6401H7.79053C6.82913 25.6401 6.29592 25.1176 6.29592 24.2052Z" fill="black"/>
<path d="M12.0737 18.4749H16.0885C16.7318 18.4749 17.0504 18.1447 17.0504 17.4619V14.3918C17.0504 13.8476 16.8448 13.5366 16.4454 13.4119V12.6361C16.4454 11.0478 15.4878 9.9718 14.0752 9.9718C12.6723 9.9718 11.705 11.0478 11.705 12.6361V13.4257C11.3152 13.5387 11.1001 13.8476 11.1001 14.3918V17.4619C11.1001 18.1447 11.4282 18.4749 12.0737 18.4749ZM12.9348 13.3693V12.5433C12.9348 11.7057 13.3803 11.1685 14.0752 11.1685C14.7701 11.1685 15.2157 11.7057 15.2157 12.5433V13.3693H12.9348Z" fill="black"/>
</svg>
