<svg width="28" height="28" viewBox="0 0 28 28" fill="none" xmlns="http://www.w3.org/2000/svg">
<path d="M6.84421 25.155H21.0295C23.5685 25.155 24.8737 23.8594 24.8737 21.3588V7.08702C24.8737 4.58648 23.5685 3.28125 21.0295 3.28125H6.84421C4.31484 3.28125 3 4.58648 3 7.08702V21.3588C3 23.8594 4.31484 25.155 6.84421 25.155ZM6.97733 22.8591C5.88772 22.8591 5.29592 22.297 5.29592 21.1563V7.28952C5.29592 6.14881 5.88772 5.57717 6.97733 5.57717H20.8964C21.9764 5.57717 22.5778 6.14881 22.5778 7.28952V21.1563C22.5778 22.297 21.9764 22.8591 20.8964 22.8591H6.97733Z" fill="black"/>
<path d="M9.10791 16.3572C9.10791 19.2484 11.0183 21.0121 13.6858 21.0121C15.6208 21.0121 16.967 20.2497 17.8909 18.4942C18.4698 17.4948 18.8894 16.1886 19.269 14.9523C19.4512 14.357 19.7057 13.6105 19.7204 13.2836C19.7373 12.9002 19.4729 12.6213 19.0862 12.6023C18.643 12.5833 18.3662 12.8444 18.0794 13.4383L17.1702 15.3873C17.0849 15.5793 17.0017 15.6411 16.9047 15.6411C16.7809 15.6411 16.7052 15.5601 16.7052 15.3756V8.51946C16.7052 8.10508 16.3696 7.76946 15.9552 7.76946C15.5387 7.76946 15.2127 8.10719 15.2127 8.51946V13.449C15.0421 13.4043 14.8693 13.3403 14.6849 13.3093V7.58242C14.6849 7.17555 14.3589 6.83032 13.937 6.83032C13.5205 6.83032 13.1849 7.17555 13.1849 7.58242V13.2315C13.0025 13.2529 12.8202 13.2742 12.6399 13.3051V8.13461C12.6399 7.72024 12.3022 7.39211 11.8857 7.39211C11.4735 7.39211 11.1378 7.72024 11.1378 8.13461V13.7624C10.9438 13.8477 10.7828 13.9522 10.61 14.0472V10.1725C10.61 9.75391 10.2744 9.40868 9.86962 9.40868C9.44564 9.40868 9.10791 9.75391 9.10791 10.1725V16.3572Z" fill="black"/>
</svg>
