<svg width="28" height="28" viewBox="0 0 28 28" fill="none" xmlns="http://www.w3.org/2000/svg">
<path d="M3.84421 24.8781H23.9109C26.4499 24.8781 27.7552 23.5824 27.7552 21.0819V6.81004C27.7552 4.30739 26.4499 3.00427 23.9109 3.00427H3.84421C1.31484 3.00427 0 4.30739 0 6.81004V21.0819C0 23.5824 1.31484 24.8781 3.84421 24.8781Z" fill="black"/>
<path d="M9.52051 18.6902V13.9509C9.52051 13.1102 9.86153 12.6821 10.5489 12.6141V11.251C10.5489 9.00753 11.8975 7.50659 13.8895 7.50659C15.8814 7.50659 17.2321 9.00753 17.2321 11.251V12.6162C17.9079 12.6821 18.2468 13.1102 18.2468 13.9509V18.6902C18.2468 19.6179 17.8357 20.0482 16.9825 20.0482H10.7964C9.9316 20.0482 9.52051 19.6179 9.52051 18.6902ZM11.9791 12.5897H15.7978V11.123C15.7978 9.78636 15.0323 8.89409 13.8853 8.89409C12.7329 8.89409 11.9791 9.78846 11.9791 11.123V12.5897Z" fill="white"/>
</svg>
