<svg width="30" height="28" viewBox="0 0 30 28" fill="none" xmlns="http://www.w3.org/2000/svg">
<path d="M9.76827 26.3138H25.7613C28.2832 26.3138 29.6076 25.0107 29.6076 22.508V11.3771C29.6076 8.87655 28.2832 7.57132 25.7613 7.57132H9.76827C7.22718 7.57132 5.92195 8.87655 5.92195 11.3771V22.508C5.92195 25.0203 7.22718 26.3138 9.76827 26.3138ZM9.76827 5.86789H23.5737V5.70242C23.5336 3.26515 22.2197 2 19.7337 2H3.84421C1.30523 2 0 3.30523 0 5.80577V16.9388C0 19.4321 1.28203 20.7214 3.79148 20.7404H4.20891V11.3771C4.20891 7.92687 6.2871 5.86789 9.76827 5.86789Z" fill="black"/>
<path d="M13.4087 21.6938V16.9545C13.4087 16.1138 13.7476 15.6856 14.4254 15.6155V14.2524C14.4254 12.0111 15.7857 10.5005 17.7659 10.5005C19.7579 10.5005 21.1086 12.0111 21.1086 14.2524V15.6176C21.7939 15.6856 22.1349 16.1138 22.1349 16.9545V21.6938C22.1349 22.6215 21.7238 23.0497 20.8611 23.0497H14.675C13.8198 23.0497 13.4087 22.6215 13.4087 21.6938ZM15.8577 15.5912H19.6742V14.1244C19.6742 12.7782 18.9184 11.888 17.7638 11.888C16.621 11.888 15.8577 12.7824 15.8577 14.1244V15.5912Z" fill="white"/>
</svg>
