<svg width="28" height="28" viewBox="0 0 28 28" fill="none" xmlns="http://www.w3.org/2000/svg">
<path d="M13.9607 4.46918C16.053 4.46918 17.8408 5.9645 17.8387 8.7163L17.8345 11.6746H13.8422L22.165 19.9761V14.5342C22.165 12.8453 21.4249 11.9005 20.0214 11.7173L20.0236 8.92443C20.0278 4.60044 17.1618 2.37061 13.9607 2.37061C11.513 2.37061 9.28829 3.69178 8.39485 6.21764L10.1564 7.98669C10.4295 5.71817 12.0466 4.46918 13.9607 4.46918ZM8.47876 25.7096H19.4524C20.0116 25.7096 20.4867 25.587 20.8392 25.3728L7.34955 11.8949H7.26306C6.30423 12.2366 5.76611 13.1378 5.76611 14.5342V22.8341C5.76611 24.7552 6.69704 25.7096 8.47876 25.7096Z" fill="black"/>
<path d="M23.9345 26.4172C24.3062 26.7793 24.9016 26.7814 25.2541 26.4172C25.6141 26.0551 25.6258 25.4619 25.2541 25.0998L4.60283 4.45066C4.23861 4.08644 3.63369 4.08644 3.27158 4.45066C2.90947 4.81277 2.90947 5.4198 3.27158 5.77019L23.9345 26.4172Z" fill="black"/>
</svg>
