<svg width="30" height="28" viewBox="0 0 30 28" fill="none" xmlns="http://www.w3.org/2000/svg">
<path d="M23.3967 23.7912C27.0412 23.7912 29.9102 21.1148 29.9102 17.7783C29.9102 15.2836 28.488 13.0833 26.1691 12.1118C26.1841 6.81773 22.3633 3 17.4628 3C14.3376 3 12.0063 4.61696 10.5368 6.73523C7.57383 5.93789 4.44797 8.15039 4.33875 11.4527C1.66078 11.9231 0 14.3367 0 17.2573C0 20.8186 3.11086 23.7912 7.20515 23.7912H23.3967ZM23.3988 21.4952H7.20937C4.40389 21.4952 2.32123 19.5382 2.32123 17.2573C2.32123 14.9241 3.76451 13.1705 6.16452 13.1705C6.33491 13.1705 6.40194 13.0821 6.39772 12.9192C6.32811 9.41319 8.84319 8.24553 11.3489 9.03702C11.4937 9.08178 11.5842 9.04663 11.6587 8.9135C12.8144 6.87772 14.5247 5.29592 17.448 5.29592C21.1547 5.29592 23.7705 8.22678 23.9571 11.6419C23.9944 12.2569 23.9508 12.9382 23.8955 13.5037C23.8816 13.6666 23.9445 13.7508 24.0977 13.7838C26.2263 14.1998 27.589 15.7036 27.589 17.7783C27.589 19.8419 25.762 21.4952 23.3988 21.4952Z" fill="black"/>
<path d="M8.62158 14.7644C8.62158 16.6812 10.1654 18.2154 12.0683 18.2154C13.5177 18.2154 14.7261 17.3264 15.4016 15.7317L16.7495 17.0583C16.8962 17.2029 17.1142 17.2104 17.2375 17.0775L18.599 15.6989L19.5747 16.6821C19.7097 16.8204 19.9255 16.8288 20.0701 16.6842L21.7401 15.0047C21.8687 14.876 21.857 14.6665 21.7464 14.5537L20.8534 13.6418C20.7299 13.5162 20.6033 13.4726 20.4576 13.4726H15.2947C14.7632 12.1458 13.4973 11.3081 12.0683 11.3081C10.1654 11.3081 8.62158 12.8381 8.62158 14.7644ZM10.3079 14.7548C10.3079 14.1741 10.7757 13.7137 11.3607 13.7137C11.9511 13.7137 12.4136 14.1837 12.4136 14.7548C12.4136 15.3281 11.9511 15.798 11.3607 15.798C10.7757 15.798 10.3079 15.3281 10.3079 14.7548Z" fill="black"/>
</svg>
