<svg width="28" height="28" viewBox="0 0 28 28" fill="none" xmlns="http://www.w3.org/2000/svg">
<path d="M14.105 26.21C20.7369 26.21 26.2121 20.7273 26.2121 14.105C26.2121 7.47312 20.7273 2 14.0954 2C7.47523 2 2 7.47312 2 14.105C2 20.7273 7.48484 26.21 14.105 26.21ZM14.105 23.8255C8.71085 23.8255 4.39412 19.4991 4.39412 14.105C4.39412 8.71085 8.70124 4.38452 14.0954 4.38452C19.4895 4.38452 23.8276 8.71085 23.8276 14.105C23.8276 19.4991 19.4991 23.8255 14.105 23.8255Z" fill="black"/>
<path d="M9.49756 16.1719C9.49756 19.0747 11.4248 20.8585 14.1112 20.8585C16.0568 20.8585 17.4094 20.094 18.3396 18.3322C18.9269 17.3244 19.3507 15.9938 19.7304 14.7554C19.9146 14.1537 20.1712 13.4084 20.1881 13.0794C20.205 12.6917 19.9385 12.4086 19.5497 12.3896C19.1022 12.3706 18.8233 12.6317 18.5365 13.2181L17.6189 15.182C17.5336 15.3739 17.4504 15.4475 17.3533 15.4475C17.2296 15.4475 17.1539 15.3643 17.1539 15.1702V8.26979C17.1539 7.86081 16.8161 7.52308 16.4072 7.52308C15.9768 7.52308 15.6487 7.86292 15.6487 8.26979V13.2331C15.4781 13.1905 15.3033 13.1265 15.1188 13.0934V7.33604C15.1188 6.91745 14.7907 6.57971 14.3625 6.57971C13.9439 6.57971 13.6158 6.91745 13.6158 7.33604V13.0156C13.4238 13.0487 13.2393 13.0583 13.0687 13.0892V7.89034C13.0687 7.46425 12.7172 7.13401 12.2986 7.13401C11.8821 7.13401 11.5443 7.46425 11.5443 7.89034V13.5507C11.3482 13.636 11.1872 13.7405 11.024 13.8355V9.93339C11.024 9.51269 10.6746 9.17284 10.2677 9.17284C9.83951 9.17284 9.49756 9.51269 9.49756 9.93339V16.1719Z" fill="black"/>
</svg>
