<svg width="28" height="28" viewBox="0 0 28 28" fill="none" xmlns="http://www.w3.org/2000/svg">
<path d="M14.105 26.21C20.7369 26.21 26.2121 20.7273 26.2121 14.105C26.2121 7.47312 20.7273 2 14.0954 2C7.47523 2 2 7.47312 2 14.105C2 20.7273 7.48484 26.21 14.105 26.21ZM14.105 23.8255C8.71085 23.8255 4.39412 19.4991 4.39412 14.105C4.39412 8.71085 8.70124 4.38452 14.0954 4.38452C19.4895 4.38452 23.8276 8.71085 23.8276 14.105C23.8276 19.4991 19.4991 23.8255 14.105 23.8255Z" fill="black"/>
<path d="M11.2354 20.7866C11.4761 20.7866 11.6411 20.679 11.9169 20.4308L13.9935 18.5619H17.7135C19.3917 18.5619 20.3439 17.6 20.3439 15.9219V11.563C20.3439 9.90615 19.3917 8.92834 17.7135 8.92834H10.5029C8.82693 8.92834 7.87256 9.89654 7.87256 11.563V15.9219C7.87256 17.6 8.84803 18.5619 10.4734 18.5619H10.7125V20.1934C10.7125 20.5576 10.9084 20.7866 11.2354 20.7866ZM14.1114 14.7432C13.7814 14.7432 13.5984 14.5548 13.5824 14.2248L13.51 11.3605C13.492 11.0145 13.7474 10.7537 14.0976 10.7537C14.4616 10.7537 14.7245 11.0145 14.7107 11.3605L14.6266 14.2227C14.6224 14.5548 14.4297 14.7432 14.1114 14.7432ZM14.1114 16.6672C13.7324 16.6672 13.4076 16.388 13.4076 16.0175C13.4076 15.647 13.7228 15.3582 14.1114 15.3582C14.4979 15.3582 14.8131 15.6373 14.8131 16.0175C14.8131 16.388 14.4883 16.6672 14.1114 16.6672Z" fill="black"/>
</svg>
