<svg width="28" height="28" viewBox="0 0 28 28" fill="none" xmlns="http://www.w3.org/2000/svg">
<path d="M5.84421 27.5465H22.9196C25.4415 27.5465 26.7659 26.2412 26.7659 23.7407V11.6887C26.7659 9.186 25.4415 7.88288 22.9196 7.88288H5.84421C3.30523 7.88288 2 9.186 2 11.6887V23.7407C2 26.2412 3.30523 27.5465 5.84421 27.5465ZM5.97733 25.2505C4.88772 25.2505 4.29592 24.6789 4.29592 23.5382V11.889C4.29592 10.7504 4.88772 10.1788 5.97733 10.1788H22.7769C23.8569 10.1788 24.4679 10.7504 24.4679 11.889V23.5382C24.4679 24.6789 23.8569 25.2505 22.7769 25.2505H5.97733ZM4.57812 5.97507H24.1974C24.0301 4.86437 23.4755 4.23414 22.232 4.23414H6.54358C5.29999 4.23414 4.74546 4.86437 4.57812 5.97507ZM6.96476 2.59609H21.8108C21.732 1.55359 21.1168 1 19.9869 1H8.77695C7.65664 1 7.04351 1.55359 6.96476 2.59609Z" fill="black"/>
<path d="M10.2383 22.2913C10.2383 23.1829 10.6355 23.5994 11.4589 23.5994H17.4196C18.2387 23.5994 18.636 23.1829 18.636 22.2913V17.7222C18.636 16.9229 18.3088 16.5086 17.6511 16.4448V15.1211C17.6511 12.9669 16.3536 11.5234 14.4371 11.5234C12.5207 11.5234 11.2273 12.9669 11.2273 15.1211V16.4427C10.5676 16.5086 10.2383 16.9229 10.2383 17.7222V22.2913ZM12.5959 16.4205V15.0027C12.5959 13.7001 13.3316 12.8547 14.4371 12.8547C15.5469 12.8547 16.2826 13.6979 16.2826 15.0027V16.4205H12.5959Z" fill="black"/>
</svg>
