<svg width="28" height="28" viewBox="0 0 28 28" fill="none" xmlns="http://www.w3.org/2000/svg">
<path d="M10.7746 26.1522H22.5444C25.0663 26.1522 26.379 24.8469 26.379 22.3464V10.4976C26.379 7.99702 25.0663 6.69179 22.5444 6.69179H10.7746C8.23561 6.69179 6.93038 7.98741 6.93038 10.4976V22.3464C6.93038 24.8469 8.23561 26.1522 10.7746 26.1522ZM1 16.7751C1 19.2587 2.29047 20.5808 4.84421 20.5808H5.21734V10.4976C5.21734 7.03772 7.29554 4.98835 10.7746 4.98835H20.5478V4.82288C20.5478 2.32656 19.233 1.02344 16.7132 1.02344H4.84421C2.30523 1.02344 1 2.32656 1 4.82921V16.7751Z" fill="black"/>
<path d="M12.2402 18.4281V12.6707C12.2402 12.2884 12.5512 11.972 12.9581 11.972C13.334 11.972 13.6525 12.2884 13.6525 12.6707V16.2676C13.7964 16.1823 13.9286 16.0853 14.1344 16.0213V10.7898C14.1344 10.3946 14.4508 10.0857 14.8246 10.0857C15.2144 10.0857 15.5233 10.3946 15.5233 10.7898V15.5887C15.696 15.5577 15.8688 15.5385 16.0319 15.5268V10.276C16.0319 9.88627 16.3387 9.57947 16.736 9.57947C17.1236 9.57947 17.4325 9.88627 17.4325 10.276V15.5854C17.5956 15.6376 17.7705 15.6824 17.9027 15.7251V11.1287C17.9027 10.7527 18.2191 10.4438 18.6185 10.4438C18.9848 10.4438 19.315 10.7485 19.315 11.1287V17.4925C19.315 17.6652 19.3673 17.7484 19.4953 17.7484C19.5923 17.7484 19.6617 17.6748 19.7278 17.5042L20.5835 15.7026C20.8511 15.1546 21.0991 14.9052 21.5156 14.9242C21.8852 14.9411 22.1228 15.2008 22.1038 15.5692C22.087 15.879 21.8517 16.5796 21.6696 17.1407C21.3283 18.2713 20.9451 19.5069 20.3833 20.4411C19.5299 22.0546 18.2915 22.7519 16.5081 22.7519C14.0149 22.7519 12.2402 21.1068 12.2402 18.4281Z" fill="white"/>
</svg>
