<svg width="28" height="28" viewBox="0 0 28 28" fill="none" xmlns="http://www.w3.org/2000/svg">
<path d="M14.105 26.2301C20.7369 26.2301 26.2121 20.7549 26.2121 14.123C26.2121 7.50291 20.7273 2.01807 14.0954 2.01807C7.47523 2.01807 2 7.50291 2 14.123C2 20.7549 7.48484 26.2301 14.105 26.2301Z" fill="black"/>
<path d="M11.1321 21.0481C10.7892 21.0481 10.5816 20.7978 10.5816 20.4155V18.7287H10.3329C8.65008 18.7287 7.62891 17.7212 7.62891 15.9856V11.4503C7.62891 9.73604 8.62688 8.72424 10.3645 8.72424H17.8516C19.5893 8.72424 20.5872 9.73604 20.5872 11.4503V15.9856C20.5872 17.7212 19.5893 18.7287 17.8516 18.7287H13.9975L11.8456 20.6689C11.5538 20.9405 11.377 21.0481 11.1321 21.0481ZM14.1112 14.7549C14.4475 14.7549 14.6402 14.5527 14.6465 14.2046L14.7424 11.2424C14.7562 10.8826 14.4794 10.6271 14.0974 10.6271C13.7292 10.6271 13.4599 10.8826 13.4779 11.2424L13.5621 14.2067C13.578 14.5527 13.7674 14.7549 14.1112 14.7549ZM14.1112 16.764C14.5061 16.764 14.8448 16.471 14.8448 16.0845C14.8448 15.6884 14.5158 15.3955 14.1112 15.3955C13.7067 15.3955 13.3755 15.698 13.3755 16.0845C13.3755 16.471 13.7163 16.764 14.1112 16.764Z" fill="white"/>
</svg>
