<svg width="35" height="28" viewBox="0 0 35 28" fill="none" xmlns="http://www.w3.org/2000/svg">
<path d="M0 22.1146C0 22.9372 0.673591 23.6087 1.48452 23.6087H33.0147C33.8278 23.6087 34.5014 22.9372 34.5014 22.1146C34.5014 21.2919 33.8278 20.6226 33.0147 20.6226H30.5327V6.80312C30.5327 4.98321 29.5357 4.01501 27.7254 4.01501H6.776C5.03296 4.01501 3.96656 4.98321 3.96656 6.80312V20.6226H1.48452C0.673591 20.6226 0 21.2919 0 22.1146ZM6.26248 20.6226V7.40429C6.26248 6.66695 6.62693 6.31093 7.35584 6.31093H27.1455C27.8723 6.31093 28.2368 6.66695 28.2368 7.40429V20.6226H6.26248Z" fill="black"/>
<path d="M15.251 17.566H19.2659C19.9167 17.566 20.2353 17.2336 20.2353 16.5509V13.4809C20.2353 12.9367 20.0318 12.6256 19.6303 12.501V11.7252C19.6303 10.1389 18.6748 9.06079 17.2622 9.06079C15.8475 9.06079 14.892 10.1389 14.892 11.7252V12.5148C14.4905 12.6277 14.2871 12.9367 14.2871 13.4809V16.5509C14.2871 17.2336 14.6056 17.566 15.251 17.566ZM16.1196 12.4604V11.6324C16.1196 10.7947 16.5556 10.2575 17.2622 10.2575C17.9475 10.2575 18.4027 10.7947 18.4027 11.6324V12.4604H16.1196Z" fill="black"/>
</svg>
