<svg width="28" height="28" viewBox="0 0 28 28" fill="none" xmlns="http://www.w3.org/2000/svg">
<path d="M7.31151 24.6489H9.81534C10.0467 24.6489 10.2077 24.7129 10.3729 24.8781L12.1565 26.65C13.6774 28.1826 15.1096 28.1709 16.6305 26.65L18.4141 24.8781C18.5793 24.7129 18.7403 24.6489 18.9717 24.6489H21.4755C23.6343 24.6489 24.6492 23.6395 24.6492 21.4731V18.9693C24.6492 18.7401 24.7153 18.5866 24.8805 18.4117L26.6428 16.6302C28.1732 15.1094 28.1636 13.6846 26.6428 12.1541L24.8805 10.3727C24.7132 10.2074 24.6492 10.0443 24.6492 9.82469V7.31125C24.6492 5.16204 23.6397 4.13548 21.4755 4.13548H18.9717C18.7403 4.13548 18.5772 4.07899 18.4141 3.91587L16.6305 2.14399C15.1075 0.611415 13.6816 0.625243 12.1565 2.1461L10.3729 3.91587C10.2098 4.07899 10.0467 4.13548 9.81534 4.13548H7.31151C5.15269 4.13548 4.13784 5.14071 4.13784 7.31125V9.82469C4.13784 10.0443 4.08136 10.2095 3.91613 10.3727L2.14425 12.1541C0.613783 13.6846 0.623392 15.1094 2.14425 16.6302L3.91613 18.4117C4.08136 18.5866 4.13784 18.7401 4.13784 18.9693V21.4731C4.13784 23.632 5.1548 24.6489 7.31151 24.6489ZM7.4676 22.5199C6.43518 22.5199 6.26901 22.3537 6.26479 21.3213V18.2575C6.26479 17.9123 6.16565 17.6491 5.91205 17.3976L3.75416 15.2493C3.02221 14.5077 3.02221 14.2926 3.75416 13.551L5.91205 11.4027C6.16565 11.1513 6.26479 10.8881 6.26901 10.5332V7.46945C6.26901 6.4232 6.42135 6.27086 7.4676 6.27086L10.5314 6.26664C10.8862 6.26664 11.1515 6.175 11.4009 5.9139L13.5492 3.75601C14.2907 3.02406 14.5038 3.02195 15.2378 3.75601L17.3957 5.9139C17.6355 6.175 17.9104 6.26664 18.2557 6.26664L21.3194 6.27086C22.3518 6.27086 22.518 6.43492 22.518 7.46945V10.5332C22.5201 10.8881 22.631 11.1513 22.8846 11.4027L25.0404 13.551C25.7744 14.2926 25.7744 14.5077 25.0404 15.2493L22.8846 17.3976C22.631 17.6491 22.5201 17.9123 22.5201 18.2575L22.518 21.3213C22.518 22.3537 22.3518 22.5199 21.3194 22.5199L18.2557 22.522C17.9104 22.522 17.6397 22.6211 17.3957 22.8864L15.2378 25.0422C14.5059 25.7742 14.2907 25.7742 13.5492 25.0422L11.4009 22.8864C11.1473 22.6211 10.8862 22.522 10.5314 22.522L7.4676 22.5199Z" fill="black"/>
<path d="M10.5437 19.3234C10.8534 19.3234 11.1151 19.2095 11.3162 18.9988L14.3985 15.9091L17.5042 18.9988C17.7053 19.1999 17.9554 19.3234 18.265 19.3234C18.8502 19.3234 19.3185 18.8434 19.3185 18.2561C19.3185 17.9634 19.21 17.7208 19.0014 17.5122L15.9053 14.4119L19.0131 11.2923C19.2313 11.0741 19.3281 10.8412 19.3281 10.5581C19.3281 9.96111 18.8598 9.50244 18.2746 9.50244C17.9842 9.50244 17.7534 9.60463 17.5331 9.82494L14.3985 12.9285L11.297 9.83455C11.0959 9.62385 10.8534 9.52166 10.5437 9.52166C9.96062 9.52166 9.49023 9.97072 9.49023 10.5677C9.49023 10.8508 9.60835 11.103 9.80734 11.3019L12.9077 14.4119L9.80734 17.5218C9.60835 17.7208 9.49023 17.973 9.49023 18.2561C9.49023 18.8434 9.96062 19.3234 10.5437 19.3234Z" fill="black"/>
</svg>
