<svg width="28" height="28" viewBox="0 0 28 28" fill="none" xmlns="http://www.w3.org/2000/svg">
<path d="M23.793 16.539V7.67958C23.793 6.29092 23.2551 5.79123 22.0923 5.30514C20.7897 4.77217 16.3987 3.14678 15.1213 2.78209C14.7332 2.67897 14.29 2.57678 13.8965 2.57678C13.503 2.57678 13.0598 2.65764 12.6812 2.78209C11.3943 3.21826 7.00328 4.76256 5.70062 5.30514C4.5475 5.80084 4 6.29092 4 7.67958V16.539C4 20.8142 6.33578 22.4975 13.0755 26.1767C13.3823 26.3387 13.69 26.4195 13.8965 26.4195C14.103 26.4195 14.4203 26.3387 14.7175 26.1767C21.4476 22.4879 23.793 20.8142 23.793 16.539ZM13.6926 23.9183C13.5604 23.8895 13.4228 23.8159 13.2205 23.6902C7.9321 20.4943 6.20077 19.5641 6.20077 16.1012V8.05341C6.20077 7.64021 6.27952 7.4656 6.61186 7.34419C8.37553 6.7231 11.7151 5.53153 13.2843 4.91489C13.4708 4.85442 13.5812 4.82044 13.6926 4.81083V23.9183Z" fill="black"/>
</svg>
