<svg width="28" height="28" viewBox="0 0 28 28" fill="none" xmlns="http://www.w3.org/2000/svg">
<path d="M4 24.5828C4 26.6115 5.3725 27.936 7.48022 27.936H20.6565C22.7643 27.936 24.1368 26.6115 24.1368 24.5828V4.3628C24.1368 2.33406 22.7643 1 20.6565 1H7.48022C5.3725 1 4 2.33406 4 4.3628V24.5828ZM6.29592 24.2052V4.74249C6.29592 3.82795 6.82913 3.29592 7.79053 3.29592H20.3462C21.298 3.29592 21.8409 3.82795 21.8409 4.74249V24.2052C21.8409 25.1176 21.298 25.6401 20.3462 25.6401H7.79053C6.82913 25.6401 6.29592 25.1176 6.29592 24.2052Z" fill="black"/>
<path d="M9.90625 17.462C9.90625 18.1448 10.2269 18.475 10.8681 18.475H14.8947C15.538 18.475 15.8565 18.1448 15.8565 17.462V14.3941C15.8565 13.7113 15.538 13.3694 14.8947 13.3694H10.8681C10.2269 13.3694 9.90625 13.7113 9.90625 14.3941V17.462ZM13.8827 14.0153H15.1124V12.4335C15.1124 11.5958 15.5483 11.0608 16.3241 11.0608C17.0999 11.0608 17.5455 11.5958 17.5455 12.4335V13.1959C17.5455 13.5334 17.818 13.8156 18.1651 13.8156C18.4909 13.8156 18.7731 13.5334 18.7731 13.1959V12.4335C18.7731 10.94 17.808 9.86401 16.3241 9.86401C14.8382 9.86401 13.8827 10.94 13.8827 12.5284V14.0153Z" fill="black"/>
</svg>
