<svg width="28" height="28" viewBox="0 0 28 28" fill="none" xmlns="http://www.w3.org/2000/svg">
<path d="M7.80577 26.3655H20.2891C22.8013 26.3655 24.0948 25.0506 24.0948 22.5287V11.8966C24.0948 10.2688 23.8853 9.52188 22.8655 8.4829L16.7101 2.2314C15.7309 1.23086 14.9167 1 13.4544 1H7.80577C5.30523 1 4 2.32445 4 4.84632V22.5287C4 25.0602 5.29562 26.3655 7.80577 26.3655ZM7.98905 24.0695C6.85795 24.0695 6.29592 23.4777 6.29592 22.386V4.98905C6.29592 3.90694 6.85795 3.29592 7.99866 3.29592H12.9941V9.72273C12.9941 11.3997 13.8126 12.2106 15.482 12.2106H21.7989V22.386C21.7989 23.4777 21.2369 24.0695 20.0983 24.0695H7.98905ZM15.6993 10.1859C15.2137 10.1859 15.0189 9.97937 15.0189 9.49586V3.61491L21.4799 10.1859H15.6993Z" fill="black"/>
<path d="M10.6694 21.8335C10.6694 22.5441 10.9858 22.8797 11.6517 22.8797H16.4646C17.1284 22.8797 17.4448 22.5441 17.4448 21.8335V18.1353C17.4448 17.4926 17.1783 17.157 16.6495 17.1113V16.0303C16.6495 14.2967 15.6 13.1342 14.0571 13.1342C12.5121 13.1342 11.4743 14.2967 11.4743 16.0303V17.1092C10.9359 17.157 10.6694 17.4926 10.6694 18.1353V21.8335ZM12.5611 17.089V15.9333C12.5611 14.8884 13.1604 14.1933 14.0571 14.1933C14.956 14.1933 15.5553 14.8863 15.5553 15.9333V17.089H12.5611Z" fill="black"/>
</svg>
