<svg width="28" height="28" viewBox="0 0 28 28" fill="none" xmlns="http://www.w3.org/2000/svg">
<path d="M4.84421 20.5808H7.97147V18.2849H4.97733C3.88772 18.2849 3.29592 17.7133 3.29592 16.5726V5.0296C3.29592 3.891 3.88772 3.31936 4.97733 3.31936H16.5705C17.6505 3.31936 18.2519 3.891 18.2519 5.0296V7.57702H20.5478V4.82921C20.5478 2.32656 19.233 1.02344 16.7132 1.02344H4.84421C2.30523 1.02344 1 2.32656 1 4.82921V16.7751C1 19.2756 2.30523 20.5808 4.84421 20.5808Z" fill="black"/>
<path d="M12.2943 18.2786C12.2943 20.852 13.9989 22.4387 16.3966 22.4387C18.1129 22.4387 19.3003 21.7499 20.125 20.1897C20.6453 19.299 21.0201 18.1314 21.3592 17.0263C21.52 16.4992 21.7511 15.8305 21.7659 15.5462C21.7806 15.198 21.5451 14.9446 21.1935 14.9256C20.8047 14.9066 20.5514 15.1464 20.2954 15.6667L19.4929 17.4025C19.4172 17.5827 19.3436 17.6371 19.2487 17.6371C19.1442 17.6371 19.0781 17.5635 19.0781 17.3908V11.2811C19.0781 10.9211 18.7755 10.6185 18.4134 10.6185C18.0342 10.6185 17.7412 10.9232 17.7412 11.2811V15.6829C17.5994 15.6381 17.448 15.5976 17.2753 15.5549V10.4603C17.2753 10.0886 16.9823 9.7956 16.6127 9.7956C16.241 9.7956 15.948 10.0886 15.948 10.4603V15.4963C15.787 15.508 15.6163 15.5294 15.4553 15.5603V10.9506C15.4553 10.5693 15.1603 10.2859 14.7693 10.2859C14.4114 10.2859 14.1067 10.5693 14.1067 10.9506V15.9653C13.9244 16.041 13.7847 16.1359 13.6525 16.2095V12.7539C13.6525 12.3822 13.3382 12.0775 12.9803 12.0775C12.6086 12.0775 12.2943 12.3822 12.2943 12.7539V18.2786ZM10.6774 26.1522H22.5442C25.0661 26.1522 26.3788 24.8469 26.3788 22.3464V10.3984C26.3788 7.89788 25.0661 6.59265 22.5442 6.59265H10.6774C8.13628 6.59265 6.83105 7.88827 6.83105 10.3984V22.3464C6.83105 24.8469 8.13628 26.1522 10.6774 26.1522ZM10.8105 23.8562C9.72838 23.8562 9.12697 23.2825 9.12697 22.1439V10.6009C9.12697 9.46232 9.72838 8.89068 10.8105 8.89068H22.4015C23.4815 8.89068 24.0829 9.46232 24.0829 10.6009V22.1439C24.0829 23.2825 23.4815 23.8562 22.4015 23.8562H10.8105Z" fill="black"/>
</svg>
