<svg width="28" height="28" viewBox="0 0 28 28" fill="none" xmlns="http://www.w3.org/2000/svg">
<path d="M6.84421 24.8972H21.0295C23.5685 24.8972 24.8737 23.5919 24.8737 21.0914V6.82921C24.8737 4.32656 23.5685 3.02344 21.0295 3.02344H6.84421C4.31484 3.02344 3 4.31695 3 6.82921V21.0914C3 23.6016 4.31484 24.8972 6.84421 24.8972ZM6.97733 22.6013C5.88772 22.6013 5.29592 22.0371 5.29592 20.8985V7.01999C5.29592 5.88139 5.88772 5.31936 6.97733 5.31936H20.8964C21.9764 5.31936 22.5778 5.88139 22.5778 7.01999V20.8985C22.5778 22.0371 21.9764 22.6013 20.8964 22.6013H6.97733Z" fill="black"/>
<path d="M12.6845 19.5155C13.1049 19.5155 13.471 19.3069 13.7202 18.9204L18.9617 10.7329C19.1192 10.4796 19.2514 10.207 19.2514 9.94287C19.2514 9.35646 18.732 8.966 18.1904 8.966C17.8372 8.966 17.5189 9.17037 17.271 9.55662L12.6439 16.9901L10.464 14.2127C10.1764 13.8419 9.90173 13.7271 9.5579 13.7271C8.98322 13.7271 8.52783 14.1858 8.52783 14.7605C8.52783 15.0436 8.63541 15.2981 8.83111 15.5524L11.6019 18.9288C11.9139 19.3282 12.2577 19.5155 12.6845 19.5155Z" fill="black"/>
</svg>
