<svg width="28" height="28" viewBox="0 0 28 28" fill="none" xmlns="http://www.w3.org/2000/svg">
<path d="M7.84421 27.7711H21.3257C23.5626 27.7711 24.8753 26.4658 24.8753 23.9653V10.6994C24.8753 8.19889 23.553 6.89366 21.0311 6.89366H7.84421C5.31484 6.89366 4 8.18928 4 10.6994V23.9653C4 26.4658 5.31484 27.7711 7.84421 27.7711ZM6.58633 5.03858H22.2013C22.034 3.92155 21.4731 3.28499 20.219 3.28499H8.56867C7.31453 3.28499 6.75367 3.92155 6.58633 5.03858ZM8.60219 1.63429H20.1951C20.1163 0.583358 19.4873 0.0234375 18.3564 0.0234375H10.4312C9.30039 0.0234375 8.68094 0.583358 8.60219 1.63429Z" fill="black"/>
<path d="M10.0806 22.1269V17.3876C10.0806 16.5469 10.4216 16.1187 11.0994 16.0486V14.6876C11.0994 12.4441 12.4597 10.9432 14.44 10.9432C16.4319 10.9432 17.7826 12.4441 17.7826 14.6876V16.0528C18.4679 16.1187 18.8068 16.5469 18.8068 17.3876V22.1269C18.8068 23.0545 18.3957 23.4827 17.5351 23.4827H11.3469C10.4917 23.4827 10.0806 23.0545 10.0806 22.1269ZM12.5317 16.0242H16.3482V14.5596C16.3482 13.2229 15.5924 12.3307 14.4378 12.3307C13.295 12.3307 12.5317 13.2251 12.5317 14.5596V16.0242Z" fill="white"/>
</svg>
