<svg width="28" height="30" viewBox="0 0 28 30" fill="none" xmlns="http://www.w3.org/2000/svg">
<path d="M13.6591 0.111816C9.39234 0.111816 6 3.50627 6 7.74963C6 10.8954 7.86023 13.6885 10.7794 14.8587V26.2332C10.7794 26.5683 10.89 26.8606 11.1431 27.1128L13.1655 29.0921C13.4259 29.3398 13.9151 29.3963 14.2244 29.0869L17.9245 25.3869C18.2487 25.0531 18.2348 24.5825 17.9203 24.2562L15.7762 22.1389L18.7737 19.149C19.0765 18.8344 19.0786 18.3617 18.7544 18.028L15.8428 15.0971C19.3563 13.6093 21.3087 10.9374 21.3087 7.74963C21.3087 3.5276 17.8929 0.111816 13.6591 0.111816ZM13.6591 7.2319C12.5212 7.2319 11.5922 6.31456 11.5922 5.16705C11.5922 4.01745 12.502 3.1001 13.6591 3.1001C14.7949 3.1001 15.724 4.02916 15.724 5.16705C15.724 6.31456 14.7949 7.2319 13.6591 7.2319Z" fill="black"/>
</svg>
