<svg width="28" height="28" viewBox="0 0 28 28" fill="none" xmlns="http://www.w3.org/2000/svg">
<path d="M5.71648 27.0545H22.5554C24.991 27.0545 26.274 25.7833 26.274 23.3669V11.5609C26.274 9.14874 24.991 7.88499 22.5554 7.88499H5.71648C3.26375 7.88499 2 9.14874 2 11.5609V23.3669C2 25.7833 3.26375 27.0545 5.71648 27.0545ZM4.33109 5.97718H23.9525C23.7852 4.86648 23.2285 4.23414 21.9849 4.23414H6.29655C5.05296 4.23414 4.49843 4.86648 4.33109 5.97718ZM6.71773 2.59609H21.5637C21.485 1.5557 20.8719 1 19.742 1H8.53202C7.41171 1 6.79648 1.5557 6.71773 2.59609Z" fill="black"/>
<path d="M9.78467 22.2093V17.47C9.78467 16.6314 10.1236 16.2011 10.8014 16.1331V14.77C10.8014 12.5265 12.1521 11.016 14.1419 11.016C16.136 11.016 17.4867 12.5265 17.4867 14.77V16.1352C18.1603 16.2011 18.5013 16.6314 18.5013 17.47V22.2093C18.5013 23.139 18.0902 23.5672 17.2371 23.5672H11.051C10.1958 23.5672 9.78467 23.139 9.78467 22.2093ZM12.2336 16.1087H16.0523V14.642C16.0523 13.2958 15.2847 12.4056 14.1398 12.4056C12.997 12.4056 12.2336 13.2979 12.2336 14.642V16.1087Z" fill="white"/>
</svg>
