<svg width="28" height="28" viewBox="0 0 28 28" fill="none" xmlns="http://www.w3.org/2000/svg">
<path d="M4 22.5287C4 25.0602 5.29562 26.3655 7.80577 26.3655H20.2891C22.8013 26.3655 24.0948 25.0602 24.0948 22.5287V4.84632C24.0948 2.32445 22.8013 1 20.2891 1H7.80577C5.29562 1 4 2.32445 4 4.84632V22.5287ZM6.29592 22.386V4.98905C6.29592 3.89733 6.85795 3.29592 7.99866 3.29592H20.0983C21.2369 3.29592 21.7989 3.89733 21.7989 4.98905V22.386C21.7989 23.4777 21.2369 24.0695 20.0983 24.0695H7.99866C6.85795 24.0695 6.29592 23.4777 6.29592 22.386Z" fill="black"/>
<path d="M12.7986 19.2534C13.219 19.2534 13.5851 19.0448 13.8268 18.6583L19.0662 10.4709C19.2237 10.2175 19.3676 9.94493 19.3676 9.68079C19.3676 9.09439 18.8483 8.70392 18.2949 8.70392C17.9438 8.70392 17.6234 8.90829 17.3851 9.29454L12.7505 16.728L10.5706 13.9506C10.2926 13.5798 10.0083 13.465 9.66451 13.465C9.08982 13.465 8.64404 13.9237 8.64404 14.4984C8.64404 14.7815 8.74201 15.036 8.9356 15.2903L11.7085 18.6667C12.0301 19.0661 12.3643 19.2534 12.7986 19.2534Z" fill="black"/>
</svg>
