<svg width="30" height="28" viewBox="0 0 30 28" fill="none" xmlns="http://www.w3.org/2000/svg">
<path d="M23.3967 23.789C27.0412 23.789 29.9102 21.1148 29.9102 17.7783C29.9102 15.2836 28.488 13.0812 26.1691 12.1118C26.1841 6.81773 22.3633 3 17.4628 3C14.3376 3 12.0063 4.61485 10.5368 6.73523C7.57383 5.93789 4.44797 8.15039 4.33875 11.4506C1.66078 11.9231 0 14.3346 0 17.2573C0 20.8186 3.11086 23.789 7.20515 23.789H23.3967Z" fill="black"/>
<path d="M8.3667 14.7687C8.3667 12.769 9.97006 11.1794 11.9538 11.1794C13.4327 11.1794 14.7496 12.0469 15.2993 13.4269H20.6653C20.8111 13.4269 20.9418 13.4726 21.0771 13.6003L21.9998 14.5441C22.1125 14.6686 22.1264 14.8823 21.9935 15.0269L20.2565 16.7618C20.1077 16.9223 19.8876 16.9139 19.7367 16.7597L18.7237 15.7434L17.3132 17.171C17.1857 17.3177 16.9614 17.3102 16.803 17.1518L15.404 15.7762C14.7105 17.4337 13.4489 18.3525 11.9538 18.3525C9.97006 18.3525 8.3667 16.7587 8.3667 14.7687ZM10.1146 14.7591C10.1146 15.36 10.608 15.8459 11.2089 15.8459C11.827 15.8459 12.3032 15.36 12.3032 14.7591C12.3032 14.1623 11.827 13.6765 11.2089 13.6765C10.608 13.6765 10.1146 14.1506 10.1146 14.7591Z" fill="white"/>
</svg>
