<svg width="28" height="28" viewBox="0 0 28 28" fill="none" xmlns="http://www.w3.org/2000/svg">
<path d="M14.105 26.21C20.7369 26.21 26.2121 20.7273 26.2121 14.105C26.2121 7.47312 20.7273 2 14.0954 2C7.47523 2 2 7.47312 2 14.105C2 20.7273 7.48484 26.21 14.105 26.21ZM14.105 23.8255C8.71085 23.8255 4.39412 19.4991 4.39412 14.105C4.39412 8.71085 8.70124 4.38452 14.0954 4.38452C19.4895 4.38452 23.8276 8.71085 23.8276 14.105C23.8276 19.4991 19.4991 23.8255 14.105 23.8255Z" fill="black"/>
<path d="M9.89648 18.6505C9.89648 19.542 10.2938 19.9585 11.1171 19.9585H17.0777C17.8968 19.9585 18.2941 19.542 18.2941 18.6505V14.0813C18.2941 13.2821 17.9669 12.8773 17.3093 12.8136V11.4803C17.3093 9.32611 16.0118 7.88049 14.0953 7.88049C12.1788 7.88049 10.8856 9.32611 10.8856 11.4803V12.8094C10.2258 12.8773 9.89648 13.2821 9.89648 14.0813V18.6505ZM12.254 12.7871V11.3619C12.254 10.0688 12.9897 9.21173 14.0953 9.21173C15.2051 9.21173 15.9408 10.0667 15.9408 11.3619V12.7871H12.254Z" fill="black"/>
</svg>
