<svg width="29" height="28" viewBox="0 0 29 28" fill="none" xmlns="http://www.w3.org/2000/svg">
<path d="M2.92101 22.67H25.5131C27.344 22.67 28.4437 21.5703 28.4437 19.7394V5.62105C28.4437 3.79223 27.344 2.70215 25.5131 2.70215H2.92101C1.09968 2.70215 0 3.79223 0 5.62105V19.7394C0 21.5703 1.09968 22.67 2.92101 22.67ZM2.73866 17.2447C2.39764 17.2447 2.24741 17.1179 2.24741 16.7534V5.75956C2.24741 5.2512 2.56077 4.94745 3.05741 4.94745H25.3863C25.883 4.94745 26.1963 5.2512 26.1963 5.75956V16.7534C26.1963 17.1179 26.0344 17.2447 25.6955 17.2447H2.73866ZM10.4006 25.3494H18.0431V22.4312H10.4006V25.3494ZM10.343 26.9061H18.1008C18.6839 26.9061 19.1564 26.423 19.1564 25.843C19.1564 25.2629 18.6839 24.7819 18.1008 24.7819H10.343C9.75984 24.7819 9.27773 25.2629 9.27773 25.843C9.27773 26.423 9.75984 26.9061 10.343 26.9061Z" fill="black"/>
<path d="M10.0547 14.1813C10.0547 14.864 10.3828 15.1943 11.0262 15.1943H15.0431C15.6865 15.1943 16.005 14.864 16.005 14.1813V11.1134C16.005 10.4306 15.6865 10.0887 15.0431 10.0887H11.0262C10.3828 10.0887 10.0547 10.4306 10.0547 11.1134V14.1813ZM14.0311 10.7442H15.2609V9.15282C15.2609 8.31517 15.6947 7.7897 16.4726 7.7897C17.2484 7.7897 17.6939 8.31517 17.6939 9.15282V9.91525C17.6939 10.2528 17.9665 10.5349 18.3136 10.5349C18.6394 10.5349 18.9216 10.2528 18.9216 9.91525V9.15282C18.9216 7.65939 17.966 6.58337 16.4726 6.58337C14.9867 6.58337 14.0311 7.65939 14.0311 9.24775V10.7442Z" fill="black"/>
</svg>
