<svg width="28" height="28" viewBox="0 0 28 28" fill="none" xmlns="http://www.w3.org/2000/svg">
<path d="M3.84421 24.878H23.9109C26.4499 24.878 27.7552 23.5823 27.7552 21.0818V6.80998C27.7552 4.30733 26.4499 3.00421 23.9109 3.00421H3.84421C1.31484 3.00421 0 4.30733 0 6.80998V21.0818C0 23.5823 1.31484 24.878 3.84421 24.878Z" fill="black"/>
<path d="M12.5831 19.7323C12.1308 19.7323 11.7785 19.5408 11.4431 19.1159L8.57883 15.6225C8.35969 15.3544 8.26172 15.0839 8.26172 14.7869C8.26172 14.19 8.72765 13.7058 9.3321 13.7058C9.69187 13.7058 9.98249 13.8323 10.2743 14.2169L12.5426 17.0869L17.3883 9.32834C17.6351 8.92616 17.9651 8.71545 18.3342 8.71545C18.9194 8.71545 19.4569 9.12608 19.4569 9.74014C19.4569 10.0106 19.3151 10.2991 19.1534 10.5663L13.6591 19.1074C13.4016 19.5194 13.0195 19.7323 12.5831 19.7323Z" fill="white"/>
</svg>
