<svg width="28" height="28" viewBox="0 0 28 28" fill="none" xmlns="http://www.w3.org/2000/svg">
<path d="M6.84421 24.8972H21.0295C23.5685 24.8972 24.8737 23.5919 24.8737 21.0914V6.82921C24.8737 4.32656 23.5685 3.02344 21.0295 3.02344H6.84421C4.31484 3.02344 3 4.31695 3 6.82921V21.0914C3 23.6016 4.31484 24.8972 6.84421 24.8972Z" fill="black"/>
<path d="M9.60889 18.688V13.9487C9.60889 13.108 9.94991 12.6799 10.6277 12.6098V11.2488C10.6277 9.00533 11.9784 7.50439 13.9682 7.50439C15.9602 7.50439 17.3109 9.00533 17.3109 11.2488V12.614C17.9962 12.6799 18.3351 13.108 18.3351 13.9487V18.688C18.3351 19.6157 17.924 20.0439 17.0634 20.0439H10.8752C10.02 20.0439 9.60889 19.6157 9.60889 18.688ZM12.06 12.5854H15.8765V11.1208C15.8765 9.78415 15.1111 8.89188 13.9661 8.89188C12.8233 8.89188 12.06 9.78626 12.06 11.1208V12.5854Z" fill="white"/>
</svg>
