<svg width="28" height="28" viewBox="0 0 28 28" fill="none" xmlns="http://www.w3.org/2000/svg">
<path d="M2.35622 17.1802L11.7598 26.5838C13.5532 28.3772 15.3886 28.3869 17.1703 26.6147L26.6145 17.161C28.3887 15.3868 28.377 13.5439 26.5857 11.7505L17.1896 2.35437C15.3982 0.563039 13.5629 0.54382 11.7811 2.32554L2.32528 11.7697C0.543563 13.5535 0.56278 15.3868 2.35622 17.1802Z" fill="black"/>
<path d="M13.1656 20.2576C12.7133 20.2576 12.361 20.0661 12.0256 19.6412L9.16134 16.1478C8.94221 15.8797 8.84424 15.6092 8.84424 15.3122C8.84424 14.7153 9.31017 14.2311 9.91462 14.2311C10.2744 14.2311 10.565 14.3555 10.8568 14.7423L13.1251 17.6101L17.9708 9.85156C18.2176 9.45148 18.5476 9.24078 18.9167 9.24078C19.5019 9.24078 20.0394 9.6514 20.0394 10.2655C20.0394 10.5359 19.8976 10.8223 19.7359 11.0916L14.2416 19.6327C13.9841 20.0426 13.602 20.2576 13.1656 20.2576Z" fill="white"/>
</svg>
