<svg width="29" height="28" viewBox="0 0 29 28" fill="none" xmlns="http://www.w3.org/2000/svg">
<path d="M2.92101 22.67H25.5131C27.344 22.67 28.4437 21.5703 28.4437 19.7394V5.62105C28.4437 3.79223 27.344 2.70215 25.5131 2.70215H2.92101C1.09968 2.70215 0 3.79223 0 5.62105V19.7394C0 21.5703 1.09968 22.67 2.92101 22.67ZM2.73866 17.2447C2.39764 17.2447 2.24741 17.1179 2.24741 16.7534V5.75956C2.24741 5.2512 2.56077 4.94745 3.05741 4.94745H25.3863C25.883 4.94745 26.1963 5.2512 26.1963 5.75956V16.7534C26.1963 17.1179 26.0344 17.2447 25.6955 17.2447H2.73866ZM10.4006 25.3494H18.0431V22.4312H10.4006V25.3494ZM10.343 26.9061H18.1008C18.6839 26.9061 19.1564 26.423 19.1564 25.843C19.1564 25.2629 18.6839 24.7819 18.1008 24.7819H10.343C9.75984 24.7819 9.27773 25.2629 9.27773 25.843C9.27773 26.423 9.75984 26.9061 10.343 26.9061Z" fill="black"/>
<path d="M12.2223 15.1944H16.2372C16.8805 15.1944 17.199 14.8641 17.199 14.1814V11.1114C17.199 10.5671 16.9935 10.2561 16.6016 10.1314V9.35566C16.6016 7.7673 15.6365 6.69128 14.2335 6.69128C12.8188 6.69128 11.8632 7.7673 11.8632 9.35566V10.1453C11.4618 10.2582 11.2583 10.5671 11.2583 11.1114V14.1814C11.2583 14.8641 11.5768 15.1944 12.2223 15.1944ZM13.093 10.0888V9.26285C13.093 8.42519 13.5268 7.89761 14.2335 7.89761C14.9188 7.89761 15.374 8.42519 15.374 9.26285V10.0888H13.093Z" fill="black"/>
</svg>
