<svg width="30" height="28" viewBox="0 0 30 28" fill="none" xmlns="http://www.w3.org/2000/svg">
<path d="M3.84421 20.7446H6.92342V18.4487H3.97733C2.88772 18.4487 2.29592 17.8845 2.29592 16.7459V6.00827C2.29592 4.86967 2.88772 4.29592 3.97733 4.29592H19.5909C20.6709 4.29592 21.282 4.86967 21.282 6.00827V8.45538H23.5779V5.80577C23.5779 3.30523 22.2555 2 19.7337 2H3.84421C1.30523 2 0 3.30523 0 5.80577V16.9388C0 19.449 1.30523 20.7446 3.84421 20.7446Z" fill="black"/>
<path d="M9.76819 26.3138H25.7612C28.2831 26.3138 29.6075 25.0107 29.6075 22.508V11.3771C29.6075 8.87652 28.2831 7.57129 25.7612 7.57129H9.76819C7.2271 7.57129 5.92188 8.87652 5.92188 11.3771V22.508C5.92188 25.0203 7.2271 26.3138 9.76819 26.3138ZM9.90132 24.0179C8.8096 24.0179 8.21779 23.4559 8.21779 22.3173V11.5796C8.21779 10.4389 8.8096 9.86721 9.90132 9.86721H25.6185C26.7006 9.86721 27.3116 10.4389 27.3116 11.5796V22.3173C27.3116 23.4559 26.7006 24.0179 25.6185 24.0179H9.90132ZM13.5669 21.496C13.5669 22.3876 13.9642 22.804 14.7875 22.804H20.7482C21.5769 22.804 21.9742 22.3876 21.9742 21.496V16.9269C21.9742 16.1255 21.647 15.7133 20.9797 15.6474V14.3258C20.9797 12.1695 19.6822 10.726 17.7657 10.726C15.8589 10.726 14.556 12.1695 14.556 14.3258V15.6453C13.8962 15.7133 13.5669 16.1255 13.5669 16.9269V21.496ZM15.9245 15.623V14.2074C15.9245 12.9047 16.6602 12.0572 17.7657 12.0572C18.883 12.0572 19.6112 12.9026 19.6112 14.2074V15.623H15.9245Z" fill="black"/>
</svg>
