<svg width="28" height="28" viewBox="0 0 28 28" fill="none" xmlns="http://www.w3.org/2000/svg">
<path d="M3.84421 24.8781H23.9109C26.4499 24.8781 27.7552 23.5824 27.7552 21.0819V6.81004C27.7552 4.30739 26.4499 3.00427 23.9109 3.00427H3.84421C1.31484 3.00427 0 4.30739 0 6.81004V21.0819C0 23.5824 1.31484 24.8781 3.84421 24.8781ZM3.97733 22.5821C2.88772 22.5821 2.29592 22.018 2.29592 20.8794V7.01043C2.29592 5.87183 2.88772 5.30019 3.97733 5.30019H23.7778C24.8578 5.30019 25.4592 5.87183 25.4592 7.01043V20.8794C25.4592 22.018 24.8578 22.5821 23.7778 22.5821H3.97733Z" fill="black"/>
<path d="M9.68066 18.4829C9.68066 19.3745 10.0758 19.791 10.9088 19.791H16.8694C17.6907 19.791 18.0879 19.3745 18.0879 18.4829V13.9138C18.0879 13.1145 17.7586 12.7097 17.101 12.646V11.3126C17.101 9.15849 15.8056 7.71497 13.8891 7.71497C11.9726 7.71497 10.6772 9.15849 10.6772 11.3126V12.6439C10.0078 12.7097 9.68066 13.1145 9.68066 13.9138V18.4829ZM12.0457 12.6216V11.1943C12.0457 9.90122 12.7718 9.04622 13.8891 9.04622C14.9968 9.04622 15.7325 9.89911 15.7325 11.1943V12.6216H12.0457Z" fill="black"/>
</svg>
