<svg width="28" height="28" viewBox="0 0 28 28" fill="none" xmlns="http://www.w3.org/2000/svg">
<path d="M3.74328 21.4624L11.9173 26.0332C13.3339 26.8364 14.709 26.8364 16.1469 26.0332L24.3209 21.4624C25.4741 20.816 26.0621 20.1284 26.0621 18.4334V9.10102C26.0621 7.46344 25.456 6.79196 24.3924 6.19243L16.2603 1.63195C14.7713 0.779767 13.2641 0.798986 11.8018 1.63195L3.67929 6.19243C2.60609 6.79196 2 7.46344 2 9.10102V18.4334C2 20.1284 2.59977 20.816 3.74328 21.4624ZM5.10546 19.5087C4.48811 19.1653 4.28022 18.8316 4.28022 18.2334V9.35085C4.28022 8.79327 4.49772 8.47663 5.04569 8.1621L12.8194 3.78022C13.6414 3.31428 14.4015 3.29506 15.2544 3.78022L23.0164 8.1621C23.5761 8.47663 23.7819 8.79327 23.7819 9.35085V18.2334C23.7819 18.8316 23.5761 19.1653 22.9663 19.5087L15.2544 23.8477C14.3823 24.3445 13.6606 24.3232 12.8194 23.8477L5.10546 19.5087Z" fill="black"/>
</svg>
