<svg width="28" height="28" viewBox="0 0 28 28" fill="none" xmlns="http://www.w3.org/2000/svg">
<path d="M2.35622 17.1802L11.7598 26.5838C13.5532 28.3772 15.3886 28.3869 17.1703 26.6147L26.6145 17.161C28.3887 15.3868 28.377 13.5439 26.5857 11.7505L17.1896 2.35437C15.3982 0.563039 13.5629 0.54382 11.7811 2.32554L2.32528 11.7697C0.543563 13.5535 0.56278 15.3868 2.35622 17.1802ZM4.08261 15.6622C3.30753 14.8775 3.27987 14.0787 4.09222 13.2664L13.2682 4.09037C14.0806 3.27802 14.8793 3.29607 15.664 4.08076L24.8593 13.276C25.6343 14.0511 25.662 14.8615 24.8497 15.6718L15.6736 24.8499C14.8613 25.6602 14.0433 25.6346 13.2778 24.8691L4.08261 15.6622Z" fill="black"/>
</svg>
