<svg width="28" height="28" viewBox="0 0 28 28" fill="none" xmlns="http://www.w3.org/2000/svg">
<path d="M5.32789 25.4892H23.4434C25.4884 25.4892 26.7692 24.0199 26.7692 22.1784C26.7692 21.6108 26.6073 21.0197 26.3037 20.4851L17.2332 4.67086C16.5964 3.55805 15.5091 3 14.3867 3C13.2622 3 12.159 3.56227 11.536 4.67086L2.46547 20.4872C2.14484 21.0293 2 21.6108 2 22.1784C2 24.0199 3.28086 25.4892 5.32789 25.4892ZM5.52733 23.2823C4.78928 23.2823 4.3435 22.7107 4.3435 22.0634C4.3435 21.866 4.38404 21.6101 4.49819 21.3893L13.3693 5.88631C13.588 5.49701 13.9953 5.33061 14.3867 5.33061C14.776 5.33061 15.1695 5.49912 15.3903 5.88842L24.2635 21.4052C24.3777 21.6239 24.4278 21.8681 24.4278 22.0634C24.4278 22.7107 23.9628 23.2823 23.2344 23.2823H5.52733Z" fill="black"/>
</svg>
