<svg width="28" height="28" viewBox="0 0 28 28" fill="none" xmlns="http://www.w3.org/2000/svg">
<path d="M10.6784 25.5762H17.8487C19.3644 25.5762 20.1751 25.0683 20.9886 24.1773L25.5059 19.1426C26.3098 18.2398 26.5271 17.6382 26.5271 16.4084V11.1774C26.5271 9.93804 26.2719 9.37554 25.4553 8.4432L20.9886 3.40859C20.1814 2.51117 19.3644 2 17.8487 2H10.6784C9.16273 2 8.34242 2.5175 7.54062 3.40859L3.02328 8.4432C2.20766 9.34601 2 9.93804 2 11.1774V16.4084C2 17.6382 2.20766 18.2398 3.02328 19.1426L7.54062 24.1773C8.34242 25.0683 9.16273 25.5762 10.6784 25.5762ZM11.248 23.3131C10.1309 23.3131 9.76788 23.0532 9.1571 22.3796L5.09327 17.8984C4.63834 17.3806 4.52866 17.0623 4.52866 16.2027V11.3811C4.52866 10.5214 4.63834 10.2031 5.09327 9.68749L9.1571 5.20624C9.76788 4.52303 10.1309 4.27272 11.248 4.27272H17.2812C18.3962 4.27272 18.7496 4.52303 19.37 5.20624L23.4242 9.68749C23.8909 10.2031 23.9984 10.5214 23.9984 11.3811V16.2027C23.9984 17.0623 23.8909 17.3806 23.4242 17.8984L19.37 22.3796C18.7496 23.0532 18.3962 23.3131 17.2812 23.3131H11.248Z" fill="black"/>
</svg>
