<svg width="28" height="28" viewBox="0 0 28 28" fill="none" xmlns="http://www.w3.org/2000/svg">
<path d="M14.2965 26.3122C15.0401 26.3122 15.4177 25.809 16.111 24.8804L23.0544 15.6165C23.4172 15.1238 23.6047 14.6523 23.6047 14.1561C23.6047 13.6503 23.4172 13.1884 23.0544 12.6957L16.111 3.42218C15.4177 2.5032 15.0401 2 14.2965 2C13.5528 2 13.1773 2.5032 12.4916 3.42218L5.55031 12.6957C5.17789 13.1884 5 13.6503 5 14.1561C5 14.6523 5.17789 15.1238 5.55031 15.6165L12.4916 24.8804C13.1773 25.809 13.5528 26.3122 14.2965 26.3122Z" fill="black"/>
</svg>
