<svg width="28" height="28" viewBox="0 0 28 28" fill="none" xmlns="http://www.w3.org/2000/svg">
<path d="M10.6784 25.5762H17.8487C19.3644 25.5762 20.1751 25.0683 20.9886 24.1773L25.5059 19.1426C26.3098 18.2398 26.5271 17.6382 26.5271 16.4084V11.1774C26.5271 9.93804 26.2719 9.37554 25.4553 8.4432L20.9886 3.40859C20.1814 2.51117 19.3644 2 17.8487 2H10.6784C9.16273 2 8.34242 2.5175 7.54062 3.40859L3.02328 8.4432C2.20766 9.34601 2 9.93804 2 11.1774V16.4084C2 17.6382 2.20766 18.2398 3.02328 19.1426L7.54062 24.1773C8.34242 25.0683 9.16273 25.5762 10.6784 25.5762Z" fill="black"/>
</svg>
