<svg width="28" height="28" viewBox="0 0 28 28" fill="none" xmlns="http://www.w3.org/2000/svg">
<path d="M14.2965 26.3122C15.0401 26.3122 15.4177 25.809 16.111 24.8804L23.0544 15.6165C23.4172 15.1238 23.6047 14.6523 23.6047 14.1561C23.6047 13.6503 23.4172 13.1884 23.0544 12.6957L16.111 3.42218C15.4177 2.5032 15.0401 2 14.2965 2C13.5528 2 13.1773 2.5032 12.4916 3.42218L5.55031 12.6957C5.17789 13.1884 5 13.6503 5 14.1561C5 14.6523 5.17789 15.1238 5.55031 15.6165L12.4916 24.8804C13.1773 25.809 13.5528 26.3122 14.2965 26.3122ZM14.2965 23.3544C14.2421 23.3544 14.2166 23.3234 14.1835 23.267L7.63998 14.4641C7.53873 14.3394 7.52701 14.2498 7.52701 14.1561C7.52701 14.0623 7.53873 13.9728 7.63998 13.8481L14.1835 5.03561C14.2166 4.98873 14.2421 4.95779 14.2965 4.95779C14.353 4.95779 14.3764 4.98873 14.4116 5.03561L20.9647 13.8481C21.0542 13.9728 21.0777 14.0623 21.0777 14.1561C21.0777 14.2498 21.0542 14.3394 20.9647 14.4641L14.4116 23.267C14.3764 23.3234 14.353 23.3544 14.2965 23.3544Z" fill="black"/>
</svg>
