<svg width="28" height="28" viewBox="0 0 28 28" fill="none" xmlns="http://www.w3.org/2000/svg">
<path d="M4 22.5287C4 25.0602 5.29562 26.3655 7.80577 26.3655H20.2891C22.8013 26.3655 24.0948 25.0602 24.0948 22.5287V4.84632C24.0948 2.32445 22.8013 1 20.2891 1H7.80577C5.29562 1 4 2.32445 4 4.84632V22.5287ZM6.29592 22.386V4.98905C6.29592 3.89733 6.85795 3.29592 7.99866 3.29592H20.0983C21.2369 3.29592 21.7989 3.89733 21.7989 4.98905V22.386C21.7989 23.4777 21.2369 24.0695 20.0983 24.0695H7.99866C6.85795 24.0695 6.29592 23.4777 6.29592 22.386Z" fill="black"/>
</svg>
