<svg width="28" height="28" viewBox="0 0 28 28" fill="none" xmlns="http://www.w3.org/2000/svg">
<path d="M1.23651 13.0485L4.6851 23.687C5.24619 25.443 6.4865 26.3617 8.35212 26.3617H19.4127C21.2805 26.3617 22.5187 25.443 23.0819 23.687L26.5113 13.0869C27.0916 11.2787 26.6296 9.81063 25.1559 8.72877L16.1899 2.13954C14.65 1.00541 13.1149 1.00541 11.575 2.13954L2.609 8.72877C1.13526 9.81063 0.663695 11.2691 1.23651 13.0485ZM3.39743 12.4047C3.12344 11.5794 3.30672 11.0551 4.01993 10.5168L12.8772 3.98546C13.6012 3.45554 14.1616 3.45554 14.876 3.98546L23.7353 10.5168C24.4581 11.0551 24.6339 11.5891 24.3599 12.4335L20.9622 22.9377C20.6903 23.763 20.2291 24.0911 19.36 24.0911H8.40697C7.53579 24.0911 7.07454 23.763 6.80266 22.9377L3.39743 12.4047Z" fill="black"/>
</svg>
