<svg width="28" height="28" viewBox="0 0 28 28" fill="none" xmlns="http://www.w3.org/2000/svg">
<path d="M13.7336 25.8077C13.9401 25.8077 14.2457 25.7268 14.5429 25.5745C21.2573 22.1161 23.4672 20.3004 23.4672 16.0954V7.37557C23.4672 6.01245 22.9431 5.52237 21.7942 5.0405C20.5075 4.51175 16.1964 2.97916 14.9404 2.55471C14.5565 2.43237 14.125 2.35901 13.7336 2.35901C13.3443 2.35901 12.9128 2.44198 12.5364 2.55471C11.2708 2.95995 6.96179 4.52136 5.67507 5.0405C4.53578 5.51065 4 6.01245 4 7.37557V16.0954C4 20.3004 6.31023 21.9485 12.9243 25.5745C13.2311 25.7365 13.5292 25.8077 13.7336 25.8077Z" fill="black"/>
</svg>
