<svg width="38" height="28" viewBox="0 0 38 28" fill="none" xmlns="http://www.w3.org/2000/svg">
<path d="M4.25836 22.5141C6.0239 22.5141 7.67859 21.5752 8.39765 20.0942H8.44125V21.4004C8.46023 22.0969 8.93038 22.5237 9.60983 22.5237C10.319 22.5237 10.7922 22.0801 10.7922 21.3071V13.6231C10.7922 11.0485 8.83826 9.38159 5.75765 9.38159C3.38578 9.38159 1.50305 10.3531 0.838124 11.8847C0.713436 12.1639 0.639842 12.4367 0.639842 12.6912C0.639842 13.2828 1.0739 13.6796 1.6896 13.6796C2.1246 13.6796 2.45647 13.5157 2.69131 13.1539C3.36959 11.8896 4.28764 11.3201 5.67163 11.3201C7.35937 11.3201 8.37726 12.2583 8.37726 13.7965V14.7567L4.75288 14.9614C1.69336 15.1318 0 16.5059 0 18.7255C0 21.0017 1.76367 22.5141 4.25836 22.5141ZM4.91811 20.6448C3.45538 20.6448 2.46186 19.8441 2.46186 18.646C2.46186 17.4873 3.39139 16.7155 5.07491 16.6046L8.37726 16.3925V17.5627C8.37726 19.3046 6.84328 20.6448 4.91811 20.6448ZM14.22 22.5141C14.9386 22.5141 15.4225 22.0557 15.4225 21.3125V19.8676H15.4661C16.2152 21.5073 17.7229 22.5237 19.6671 22.5237C22.9232 22.5237 25.0094 19.9766 25.0094 15.9643C25.0094 11.9478 22.9115 9.40268 19.68 9.40268C17.7942 9.40268 16.26 10.433 15.5397 12.0619H15.4748V6.27822C15.4748 5.51885 14.9857 5.02222 14.2647 5.02222C13.5321 5.02222 13.0451 5.51885 13.0451 6.27611V21.3125C13.0451 22.0653 13.5056 22.5141 14.22 22.5141ZM19.0247 20.5154C16.9406 20.5154 15.4727 18.7152 15.4727 15.9739C15.4727 13.223 16.9502 11.4185 19.0247 11.4185C21.1568 11.4185 22.5147 13.1824 22.5147 15.9643C22.5147 18.7632 21.1493 20.5154 19.0247 20.5154ZM32.3728 22.5237C34.7498 22.5237 36.7999 21.2602 37.5058 19.4609C37.5918 19.2195 37.6429 19.0004 37.6429 18.8089C37.6429 18.208 37.1974 17.7952 36.6039 17.7952C36.0574 17.7952 35.7904 18.0153 35.4703 18.5879C34.8757 19.8289 33.8843 20.5365 32.3971 20.5365C30.2374 20.5365 28.8323 18.7981 28.8323 15.9528C28.8323 13.1309 30.2491 11.3541 32.4014 11.3541C33.8097 11.3541 34.8342 12.031 35.4553 13.3578C35.7447 13.8879 36.0297 14.0974 36.5519 14.0974C37.1549 14.0974 37.6014 13.7187 37.6014 13.1082C37.6014 12.9338 37.5461 12.7179 37.4878 12.5297C36.8617 10.7051 34.8072 9.36683 32.3376 9.36683C28.6999 9.36683 26.3514 11.9607 26.3514 15.9624C26.3514 19.996 28.7191 22.5237 32.3728 22.5237Z" fill="black"/>
</svg>
