<svg width="28" height="28" viewBox="0 0 28 28" fill="none" xmlns="http://www.w3.org/2000/svg">
<path d="M3.84421 24.8781H23.9109C26.4499 24.8781 27.7552 23.5824 27.7552 21.0819V6.81004C27.7552 4.30739 26.4499 3.00427 23.9109 3.00427H3.84421C1.31484 3.00427 0 4.30739 0 6.81004V21.0819C0 23.5824 1.31484 24.8781 3.84421 24.8781Z" fill="black"/>
<path d="M6.80942 18.7814C6.24856 18.7814 5.9059 18.4045 5.9059 17.7998V10.957H5.81309L4.54535 11.7876C4.29809 11.955 4.17246 11.9784 4.0084 11.9784C3.66481 11.9784 3.37207 11.6803 3.37207 11.3163C3.37207 11.0566 3.4752 10.8576 3.73067 10.6926L5.54497 9.45606C6.03153 9.1345 6.29028 9.01638 6.74051 9.01638C7.3609 9.01638 7.72582 9.37825 7.72582 10.016V17.7998C7.72582 18.4141 7.38527 18.7814 6.80942 18.7814ZM10.2864 18.6248C9.77543 18.627 9.44332 18.3258 9.44332 17.85C9.44332 17.5702 9.572 17.3309 9.78574 17.1181L13.0522 13.7311C13.6469 13.1107 14.2143 12.5147 14.2143 11.83C14.2143 11.0451 13.6054 10.514 12.7011 10.514C11.784 10.514 11.2658 11.1114 11.0249 11.7201C10.8395 12.0501 10.6108 12.2845 10.1903 12.2845C9.72082 12.2845 9.41965 11.9758 9.41965 11.5277C9.41965 11.3711 9.4452 11.253 9.48996 11.089C9.82981 9.88286 11.1679 9.01731 12.654 9.01731C14.6237 9.01731 15.9212 10.0849 15.9212 11.7075C15.9212 12.8107 15.2765 13.6523 14.339 14.6201L11.9968 17.0599V17.1047H15.5676C16.0274 17.1047 16.3478 17.4091 16.3478 17.8573C16.3478 18.2991 16.0274 18.627 15.5676 18.6248H10.2864ZM20.6415 18.7952C18.9622 18.7952 17.5726 17.9883 17.2811 16.8063C17.2471 16.6509 17.229 16.5595 17.229 16.4009C17.229 15.941 17.5344 15.6089 18.0273 15.6089C18.418 15.6089 18.6512 15.7826 18.8394 16.1564C19.1059 16.8839 19.7479 17.303 20.6713 17.303C21.7783 17.303 22.5109 16.7313 22.5109 15.8878C22.5109 15.0272 21.7984 14.4757 20.713 14.4757H20.0591C19.6461 14.4757 19.3417 14.1755 19.3417 13.7613C19.3417 13.3334 19.6461 13.0544 20.0591 13.0544H20.6575C21.5744 13.0544 22.2388 12.4912 22.2388 11.7159C22.2388 10.9556 21.6374 10.4843 20.7022 10.4843C19.8482 10.4843 19.2158 10.9096 18.9857 11.6381C18.8368 12.0152 18.5877 12.1889 18.1874 12.1889C17.7179 12.1889 17.3976 11.8706 17.3976 11.4405C17.3976 11.2563 17.4156 11.1415 17.4517 10.9765C17.7763 9.77528 19.078 8.99927 20.7194 8.99927C22.6281 8.99927 23.9598 10.0446 23.9598 11.5169C23.9598 12.6133 23.1639 13.5426 22.1568 13.6814V13.7027C23.3865 13.8201 24.2891 14.7527 24.2891 15.9717C24.2891 17.6775 22.8243 18.7952 20.6415 18.7952Z" fill="white"/>
</svg>
