<svg width="28" height="28" viewBox="0 0 28 28" fill="none" xmlns="http://www.w3.org/2000/svg">
<path d="M14.105 26.21C20.7369 26.21 26.2121 20.7273 26.2121 14.105C26.2121 7.47312 20.7273 2 14.0954 2C7.47523 2 2 7.47312 2 14.105C2 20.7273 7.48484 26.21 14.105 26.21ZM14.105 23.8255C8.71085 23.8255 4.39412 19.4991 4.39412 14.105C4.39412 8.71085 8.70124 4.38452 14.0954 4.38452C19.4895 4.38452 23.8276 8.71085 23.8276 14.105C23.8276 19.4991 19.4991 23.8255 14.105 23.8255Z" fill="black"/>
<path d="M11.4522 11.0886H19.8237C20.2453 11.0886 20.5786 10.7628 20.5786 10.3433C20.5786 9.91416 20.2453 9.59049 19.8237 9.59049H11.4522C11.0327 9.59049 10.7111 9.92377 10.7111 10.3433C10.7111 10.7532 11.0444 11.0886 11.4522 11.0886ZM11.4522 18.6249H19.8237C20.2453 18.6249 20.5786 18.3012 20.5786 17.8817C20.5786 17.4505 20.2453 17.1268 19.8237 17.1268H11.4522C11.0444 17.1268 10.7111 17.4718 10.7111 17.8817C10.7111 18.3012 11.0348 18.6249 11.4522 18.6249ZM11.4522 14.8578H19.8237C20.2453 14.8578 20.5786 14.532 20.5786 14.1125C20.5786 13.6834 20.2453 13.3576 19.8237 13.3576H11.4522C11.0423 13.3576 10.7111 13.7026 10.7111 14.1125C10.7111 14.5224 11.0444 14.8578 11.4522 14.8578ZM8.628 11.3785C9.19144 11.3785 9.66323 10.8971 9.66323 10.3433C9.66323 9.77025 9.20105 9.31018 8.628 9.31018C8.05495 9.31018 7.59277 9.77025 7.59277 10.3433C7.59277 10.9089 8.05495 11.3785 8.628 11.3785ZM8.628 15.1477C9.19144 15.1477 9.66323 14.6663 9.66323 14.1125C9.66323 13.5491 9.19144 13.0773 8.628 13.0773C8.05495 13.0773 7.59277 13.5394 7.59277 14.1125C7.59277 14.6759 8.05495 15.1477 8.628 15.1477ZM8.628 18.9148C9.20105 18.9148 9.66323 18.4452 9.66323 17.8817C9.66323 17.3183 9.19144 16.8465 8.628 16.8465C8.05495 16.8465 7.59277 17.3066 7.59277 17.8817C7.59277 18.4452 8.05495 18.9148 8.628 18.9148Z" fill="black"/>
</svg>
