<svg width="38" height="28" viewBox="0 0 38 28" fill="none" xmlns="http://www.w3.org/2000/svg">
<path d="M1.56156 26.0391C2.41421 26.0391 3.12296 25.3282 3.12296 24.4873C3.12296 23.6136 2.43531 22.9355 1.56156 22.9355C0.707966 22.9355 0.00976562 23.622 0.00976562 24.4873C0.00976562 25.3282 0.707966 26.0391 1.56156 26.0391ZM7.32858 26.0391C8.18124 26.0391 8.88788 25.3282 8.88788 24.4873C8.88788 23.6136 8.20233 22.9355 7.32858 22.9355C6.47288 22.9355 5.77679 23.622 5.77679 24.4873C5.77679 25.3282 6.47288 26.0391 7.32858 26.0391ZM13.0818 26.0391C13.9366 26.0391 14.6336 25.3282 14.6336 24.4873C14.6336 23.6136 13.9556 22.9355 13.0818 22.9355C12.2282 22.9355 11.53 23.622 11.53 24.4873C11.53 25.3282 12.2282 26.0391 13.0818 26.0391ZM18.8371 26.0391C19.6919 26.0391 20.3889 25.3282 20.3889 24.4873C20.3889 23.6136 19.7109 22.9355 18.8371 22.9355C17.9835 22.9355 17.2874 23.622 17.2874 24.4873C17.2874 25.3282 17.9835 26.0391 18.8371 26.0391ZM24.5924 26.0391C25.4472 26.0391 26.1442 25.3282 26.1442 24.4873C26.1442 23.6136 25.4662 22.9355 24.5924 22.9355C23.7388 22.9355 23.0406 23.622 23.0406 24.4873C23.0406 25.3282 23.7388 26.0391 24.5924 26.0391ZM30.3477 26.0391C31.1929 26.0391 31.8995 25.3282 31.8995 24.4873C31.8995 23.6136 31.2119 22.9355 30.3477 22.9355C29.4941 22.9355 28.7981 23.622 28.7981 24.4873C28.7981 25.3282 29.4941 26.0391 30.3477 26.0391ZM36.103 26.0391C36.9557 26.0391 37.6548 25.3282 37.6548 24.4873C37.6548 23.6136 36.9768 22.9355 36.103 22.9355C35.2495 22.9355 34.5513 23.622 34.5513 24.4873C34.5513 25.3282 35.2495 26.0391 36.103 26.0391Z" fill="black"/>
<path d="M4.25836 18.5015C6.0239 18.5015 7.67859 17.5626 8.39765 16.0719H8.44125V17.3802C8.46023 18.0843 8.93038 18.5132 9.60983 18.5132C10.319 18.5132 10.7922 18.0674 10.7922 17.2848V9.60297C10.7922 7.03797 8.83826 5.36898 5.75765 5.36898C3.38578 5.36898 1.50305 6.34047 0.838124 7.8625C0.713436 8.15336 0.639842 8.42406 0.639842 8.67859C0.639842 9.27015 1.0739 9.66695 1.6896 9.66695C2.1246 9.66695 2.45647 9.50312 2.69131 9.14125C3.3792 7.86952 4.28764 7.30749 5.67163 7.30749C7.35937 7.30749 8.37726 8.2457 8.37726 9.7839V10.7441L4.75288 10.9487C1.69336 11.1095 0 12.4933 0 14.7128C0 16.9816 1.76367 18.5015 4.25836 18.5015ZM4.91811 16.6321C3.45538 16.6321 2.46186 15.8336 2.46186 14.6259C2.46186 13.4746 3.39139 12.7028 5.07491 12.5919L8.37726 12.3702V13.5501C8.37726 15.292 6.84328 16.6321 4.91811 16.6321ZM14.22 18.5015C14.9386 18.5015 15.4225 18.043 15.4225 17.2902V15.8549H15.4661C16.2152 17.4946 17.7229 18.5015 19.6671 18.5015C22.9232 18.5015 25.0094 15.9543 25.0094 11.9516C25.0094 7.93516 22.9115 5.39008 19.68 5.39008C17.7942 5.39008 16.26 6.41078 15.5397 8.0493H15.4748V2.26562C15.4748 1.49664 14.9857 1 14.2647 1C13.5321 1 13.0451 1.49664 13.0451 2.26351V17.2902C13.0451 18.0527 13.5056 18.5015 14.22 18.5015ZM19.0247 16.5027C16.9406 16.5027 15.4727 14.7025 15.4727 11.9516C15.4727 9.21249 16.9502 7.40592 19.0247 7.40592C21.1568 7.40592 22.5147 9.16983 22.5147 11.9516C22.5147 14.7409 21.1493 16.5027 19.0247 16.5027ZM32.3728 18.5015C34.7498 18.5015 36.7999 17.238 37.5058 15.4483C37.5918 15.2069 37.6429 14.9898 37.6429 14.7887C37.6429 14.1953 37.1974 13.7826 36.6039 13.7826C36.0574 13.7826 35.7904 13.993 35.4703 14.5656C34.8757 15.8066 33.8843 16.5238 32.3971 16.5238C30.2374 16.5238 28.8323 14.7855 28.8323 11.9305C28.8323 9.10866 30.2491 7.34147 32.4014 7.34147C33.8097 7.34147 34.8342 8.00874 35.4553 9.34726C35.7447 9.8753 36.0297 10.0848 36.5519 10.0848C37.1549 10.0848 37.6014 9.70819 37.6014 9.09554C37.6014 8.92117 37.5461 8.70531 37.4878 8.5075C36.8617 6.685 34.8072 5.35422 32.3376 5.35422C28.6999 5.35422 26.3514 7.94805 26.3514 11.9498C26.3514 15.9737 28.7191 18.5015 32.3728 18.5015Z" fill="black"/>
</svg>
