<svg width="28" height="28" viewBox="0 0 28 28" fill="none" xmlns="http://www.w3.org/2000/svg">
<path d="M14.0975 14.2585C17.442 14.2585 20.2222 11.4976 20.2222 8.16054C20.2222 4.8064 17.442 2.04547 14.0975 2.04547C10.7413 2.04547 7.98031 4.8064 7.98031 8.16054C7.98031 11.4976 10.7605 14.2585 14.0975 14.2585ZM14.0975 11.9195C11.9675 11.9195 10.3194 10.2831 10.3194 8.16054C10.3194 6.03054 11.9675 4.38452 14.0975 4.38452C16.2275 4.38452 17.8852 6.03054 17.8852 8.16054C17.8852 10.2831 16.2275 11.9195 14.0975 11.9195ZM14.105 26.21C20.7369 26.21 26.2121 20.7273 26.2121 14.105C26.2121 7.47312 20.7273 2 14.0954 2C7.47523 2 2 7.47312 2 14.105C2 20.7273 7.48484 26.21 14.105 26.21ZM14.105 23.8255C8.71085 23.8255 4.39412 19.4991 4.39412 14.105C4.39412 8.71085 8.70124 4.38452 14.0954 4.38452C19.4895 4.38452 23.8276 8.71085 23.8276 14.105C23.8276 19.4991 19.4991 23.8255 14.105 23.8255Z" fill="black"/>
</svg>
