<svg width="32" height="28" viewBox="0 0 32 28" fill="none" xmlns="http://www.w3.org/2000/svg">
<path d="M11.4624 6.00776H30.518C31.103 6.00776 31.5731 5.53246 31.5731 4.94207C31.5731 4.35496 31.1051 3.88599 30.518 3.88599H11.4624C10.8678 3.88599 10.4072 4.35918 10.4072 4.94207C10.4072 5.52613 10.8699 6.00776 11.4624 6.00776ZM11.4624 12.1505H30.518C31.103 12.1505 31.5731 11.6731 31.5731 11.0827C31.5731 10.4956 31.1051 10.0266 30.518 10.0266H11.4624C10.8678 10.0266 10.4072 10.5019 10.4072 11.0827C10.4072 11.6689 10.8699 12.1505 11.4624 12.1505ZM11.4624 18.2953H30.518C31.103 18.2953 31.5731 17.8083 31.5731 17.2275C31.5731 16.6404 31.1051 16.1714 30.518 16.1714H11.4624C10.8678 16.1714 10.4072 16.6446 10.4072 17.2275C10.4072 17.802 10.8699 18.2953 11.4624 18.2953ZM11.4624 24.4263H23.0316C23.6166 24.4263 24.0867 23.9489 24.0867 23.3702C24.0867 22.781 23.6187 22.3024 23.0316 22.3024H11.4624C10.8678 22.3024 10.4072 22.7874 10.4072 23.3702C10.4072 23.9447 10.8699 24.4263 11.4624 24.4263Z" fill="black"/>
<path d="M3.95695 24.9551L6.38296 21.7259C6.87913 21.0614 6.60984 20.2224 5.74195 20.2224H4.1053V8.0529H5.74195C6.59062 8.0529 6.89835 7.23517 6.38296 6.55149L3.95695 3.33189C3.62578 2.88353 2.99531 2.89525 2.67375 3.33189L0.247735 6.55149C-0.262264 7.23938 0.0454705 8.0529 0.892968 8.0529H2.52867V20.2224H0.892968C0.0454705 20.2224 -0.262264 21.038 0.247735 21.7259L2.67375 24.9551C3.00492 25.3917 3.62578 25.3938 3.95695 24.9551Z" fill="black"/>
</svg>
