<svg width="28" height="28" viewBox="0 0 28 28" fill="none" xmlns="http://www.w3.org/2000/svg">
<path d="M7.82851 26.0106H20.2403C20.7093 26.0106 21.0784 25.667 21.0784 25.1948C21.0784 24.7246 20.7093 24.3693 20.2403 24.3693H7.82851C7.36914 24.3693 7 24.7246 7 25.1948C7 25.667 7.36914 26.0106 7.82851 26.0106Z" fill="black"/>
<path d="M14.0353 22.2885C18.3595 22.2885 21.0782 19.7425 21.0782 15.9974V6.05547C21.0782 5.23681 20.5455 4.72095 19.7172 4.72095C18.9007 4.72095 18.3829 5.23681 18.3829 6.05547V15.7541C18.3829 18.2493 16.7848 19.9061 14.0353 19.9061C11.2933 19.9061 9.69724 18.2493 9.69724 15.7541V6.05547C9.69724 5.23681 9.16029 4.72095 8.33413 4.72095C7.51968 4.72095 7.00195 5.23681 7.00195 6.05547V15.9974C7.00195 19.7425 9.71109 22.2885 14.0353 22.2885Z" fill="black"/>
</svg>
