<svg width="28" height="28" viewBox="0 0 28 28" fill="none" xmlns="http://www.w3.org/2000/svg">
<path d="M3.02445 6.0585H25.1201C25.6925 6.0585 26.1638 5.6064 26.1638 5.02445C26.1638 4.45211 25.6925 4 25.1201 4H3.02445C2.45211 4 2 4.45211 2 5.02445C2 5.6064 2.45211 6.0585 3.02445 6.0585ZM7.51225 12.1991H20.6419C21.2143 12.1991 21.6781 11.747 21.6781 11.163C21.6781 10.5906 21.2143 10.1385 20.6419 10.1385H7.51225C6.92819 10.1385 6.47609 10.5906 6.47609 11.163C6.47609 11.747 6.92819 12.1991 7.51225 12.1991ZM3.02445 18.3376H25.1201C25.6925 18.3376 26.1638 17.8759 26.1638 17.3036C26.1638 16.7312 25.6925 16.277 25.1201 16.277H3.02445C2.45211 16.277 2 16.7312 2 17.3036C2 17.8759 2.45211 18.3376 3.02445 18.3376ZM7.51225 24.4666H20.6419C21.2143 24.4666 21.6781 24.0144 21.6781 23.4421C21.6781 22.8698 21.2143 22.408 20.6419 22.408H7.51225C6.92819 22.408 6.47609 22.8698 6.47609 23.4421C6.47609 24.0144 6.92819 24.4666 7.51225 24.4666Z" fill="black"/>
</svg>
