<svg width="31" height="28" viewBox="0 0 31 28" fill="none" xmlns="http://www.w3.org/2000/svg">
<path d="M7.12855 7.77496H23.0478C23.6679 7.77496 24.1636 7.29097 24.1636 6.66871C24.1636 6.04106 23.67 5.55286 23.0478 5.55286H7.12855C6.49879 5.55286 6.0127 6.03684 6.0127 6.66871C6.0127 7.28887 6.49668 7.77496 7.12855 7.77496ZM10.1077 14.9745H26.0386C26.6567 14.9745 27.1449 14.4809 27.1449 13.8586C27.1449 13.2385 26.6588 12.7524 26.0386 12.7524H10.1077C9.48965 12.7524 9.00145 13.2364 9.00145 13.8586C9.00145 14.4788 9.48542 14.9745 10.1077 14.9745ZM13.0985 22.1644H29.0274C29.6475 22.1644 30.1336 21.6804 30.1336 21.0582C30.1336 20.4284 29.6496 19.9423 29.0274 19.9423H13.0985C12.4784 19.9423 11.9923 20.4263 11.9923 21.0582C11.9923 21.6783 12.4763 22.1644 13.0985 22.1644Z" fill="black"/>
<path d="M1.64741 8.30869C2.56054 8.30869 3.29694 7.57228 3.29694 6.66877C3.29694 5.75777 2.56054 5.02136 1.64741 5.02136C0.736403 5.02136 0 5.75777 0 6.66877C0 7.57228 0.736403 8.30869 1.64741 8.30869ZM4.63827 15.5082C5.54178 15.5082 6.2878 14.7718 6.2878 13.8587C6.2878 12.9456 5.54178 12.2113 4.63827 12.2113C3.72515 12.2113 2.99086 12.9456 2.99086 13.8587C2.99086 14.7718 3.72515 15.5082 4.63827 15.5082ZM7.61952 22.7056C8.53053 22.7056 9.26693 21.9617 9.26693 21.0582C9.26693 20.1451 8.53053 19.4108 7.61952 19.4108C6.71601 19.4108 5.97 20.1451 5.97 21.0582C5.97 21.9617 6.71601 22.7056 7.61952 22.7056Z" fill="black"/>
</svg>
