<svg width="29" height="28" viewBox="0 0 29 28" fill="none" xmlns="http://www.w3.org/2000/svg">
<path d="M21.7202 22.7035C23.722 22.7035 25.2539 21.7648 25.9666 20.0921H26.0601V21.5305C26.0728 22.2833 26.5523 22.7131 27.2233 22.7131C27.9187 22.7131 28.3982 22.261 28.3982 21.4892V10.5191C28.3982 9.75482 27.9187 9.27599 27.2233 9.27599C26.5418 9.27599 26.0601 9.75482 26.0601 10.517V11.9436H25.9666C25.2518 10.2997 23.6601 9.31208 21.7202 9.31208C18.4685 9.31208 16.3305 11.9804 16.3305 16.0062C16.3305 20.0619 18.4685 22.7035 21.7202 22.7035ZM22.3915 20.6614C20.2054 20.6614 18.8282 18.8762 18.8282 16.0126C18.8282 13.1532 20.2075 11.3521 22.3915 11.3521C24.5711 11.3521 25.9973 13.2034 25.9973 16.0318C25.9973 18.8645 24.5925 20.6614 22.3915 20.6614ZM1.29655 22.6362C2.08428 22.6362 2.49021 22.3175 2.74451 21.4862L4.04951 17.843H10.7421L12.0492 21.4862C12.3014 22.3175 12.7073 22.6362 13.4876 22.6362C14.309 22.6362 14.8383 22.1431 14.8383 21.3779C14.8383 21.0964 14.7926 20.852 14.6777 20.5363L9.48957 6.52605C9.13567 5.54333 8.47169 5.05981 7.4053 5.05981C6.38766 5.05981 5.71829 5.53583 5.37189 6.51644L0.156327 20.5965C0.047812 20.8974 0 21.1524 0 21.4023C0 22.1654 0.495229 22.6362 1.29655 22.6362ZM4.72076 15.6652L7.37225 8.05066H7.43928L10.0887 15.6652H4.72076Z" fill="black"/>
</svg>
