<svg width="38" height="28" viewBox="0 0 38 28" fill="none" xmlns="http://www.w3.org/2000/svg">
<path d="M6.29085 22.5418C7.0999 22.5418 7.62513 22.0355 7.62513 21.2265V6.50726C7.62513 5.58945 7.04342 5.08742 6.11015 5.08742C5.4382 5.08742 5.05664 5.26836 4.41891 5.67757L0.6832 8.10125C0.183983 8.43336 0 8.75351 0 9.19718C0 9.77257 0.41695 10.1832 1.0296 10.1832C1.36499 10.1832 1.53632 10.0915 1.77046 9.93827L4.92469 7.94819H4.98V21.2265C4.98 22.0355 5.48601 22.5418 6.29085 22.5418ZM11.9932 22.28H21.839C22.5304 22.28 22.9931 21.8375 22.9931 21.1716C22.9931 20.5016 22.5325 20.0516 21.839 20.0516H14.3592V19.9845L18.899 15.6587C21.5465 13.1246 22.424 11.653 22.424 9.87265C22.424 7.08453 19.9882 5.00844 16.6036 5.00844C13.9261 5.00844 11.7553 6.3657 11.0236 8.49781C10.8893 8.87398 10.8328 9.20328 10.8328 9.51312C10.8328 10.2003 11.2708 10.6609 11.9632 10.6609C12.6068 10.6609 12.9234 10.3672 13.135 9.72218C13.2246 9.38421 13.3472 9.06757 13.5241 8.7978C14.1114 7.81483 15.1915 7.2071 16.5761 7.2071C18.3785 7.2071 19.7838 8.44811 19.7838 10.013C19.7838 11.2869 19.2319 12.1808 17.0857 14.2794L11.519 19.6794C10.9615 20.2041 10.7489 20.5953 10.7489 21.0995C10.7489 21.8291 11.2413 22.28 11.9932 22.28ZM30.7924 22.5631C34.5935 22.5631 37.2538 20.457 37.2538 17.5175C37.2538 15.1782 35.5633 13.6695 32.8947 13.4769V13.4237C35.1213 13.0466 36.542 11.5646 36.542 9.4639C36.542 6.8525 34.1671 5 30.7633 5C28.1636 5 26.1234 6.14023 25.3082 7.90109C25.1004 8.32203 25.0087 8.71414 25.0087 9.1564C25.0087 9.80632 25.4639 10.2488 26.1168 10.2488C26.7307 10.2488 27.0325 10.0135 27.2695 9.43226C27.8135 7.98569 29.0151 7.18061 30.7078 7.18061C32.6852 7.18061 33.9548 8.21046 33.9548 9.80937C33.9548 11.4659 32.6083 12.5312 30.6203 12.5312H29.4473C28.7772 12.5312 28.3528 12.9322 28.3528 13.5535C28.3528 14.1673 28.7793 14.5801 29.4473 14.5801H30.6311C33.0661 14.5801 34.5054 15.5951 34.5054 17.4235C34.5054 19.1206 32.9936 20.304 30.821 20.304C28.9223 20.304 27.5927 19.4998 27.0527 18.0711C26.7724 17.4997 26.451 17.2569 25.8585 17.2569C25.1449 17.2569 24.6536 17.7132 24.6536 18.4365C24.6536 18.8509 24.7591 19.2343 24.9775 19.6466C25.9354 21.477 28.0272 22.5631 30.7924 22.5631Z" fill="black"/>
</svg>
