<svg width="28" height="28" viewBox="0 0 28 28" fill="none" xmlns="http://www.w3.org/2000/svg">
<path d="M6.29655 22.7546C7.08428 22.7546 7.49021 22.4359 7.74451 21.6045L9.04951 17.9614H15.7421L17.0492 21.6045C17.3014 22.4359 17.7073 22.7546 18.4876 22.7546C19.309 22.7546 19.8383 22.2614 19.8383 21.4963C19.8383 21.2148 19.7926 20.9702 19.6777 20.6545L14.4896 6.64433C14.1357 5.66161 13.4717 5.1781 12.4053 5.1781C11.3877 5.1781 10.7183 5.65411 10.3719 6.63472L5.15633 20.7149C5.04781 21.0158 5 21.2708 5 21.5205C5 22.2838 5.49523 22.7546 6.29655 22.7546ZM9.72076 15.7836L12.3723 8.16894H12.4393L15.0887 15.7836H9.72076Z" fill="black"/>
<path d="M22.3969 13.069C23.0116 13.069 23.4232 12.6848 23.4232 12.0408V4.12429C23.4232 3.42867 22.9746 3 22.2886 3C21.697 3 21.3717 3.22031 20.9644 3.49898L19.14 4.74375C18.7622 4.99172 18.6143 5.22586 18.6143 5.53312C18.6143 5.99695 18.9494 6.32788 19.3612 6.32788C19.6104 6.32788 19.7594 6.25757 20.0276 6.07241L21.3375 5.19843H21.3726V12.0408C21.3726 12.6848 21.7938 13.069 22.3969 13.069Z" fill="black"/>
</svg>
