<svg width="28" height="28" viewBox="0 0 28 28" fill="none" xmlns="http://www.w3.org/2000/svg">
<path d="M7.68359 22.2021C10.3913 22.2021 12.4784 20.9093 13.5962 18.7765H13.7134C14.7179 20.9337 16.8352 22.2337 19.6039 22.2337C22.5699 22.2337 24.8647 21.0159 25.8263 18.8676C25.9496 18.5974 26.0304 18.3155 26.0304 18.0816C26.0304 17.3787 25.5298 16.9362 24.8384 16.9362C24.4194 16.9362 24.1236 17.0948 23.8388 17.4577C22.7471 19.1838 21.4744 19.9366 19.5514 19.9366C16.8284 19.9366 15.0673 17.9311 15.0673 14.9721V14.7797H24.7468C25.6606 14.7797 26.1947 14.2423 26.1947 13.3081C26.1947 9.04292 23.4669 6.00964 19.5512 6.00964C17.023 6.00964 15.1489 7.17167 14.1338 9.0952H14.0358C13.3686 7.18644 11.3729 6.00964 8.72538 6.00964C5.99796 6.00964 3.68422 7.22065 2.90304 9.08229C2.73031 9.42542 2.64711 9.76972 2.64711 10.0871C2.64711 10.7932 3.15734 11.2664 3.8696 11.2664C4.38756 11.2664 4.7649 11.0653 5.0431 10.6322C5.88638 9.01056 7.04256 8.34494 8.7753 8.34494C10.8854 8.34494 12.3235 9.68838 12.3235 11.6131V12.803L7.89124 13.047C4.0714 13.2535 2 14.8575 2 17.5657C2 20.3522 4.20781 22.2021 7.68359 22.2021ZM7.9353 19.9643C6.06732 19.9643 4.81599 18.9216 4.81599 17.463C4.81599 16.0151 6.03451 15.1622 8.22053 15.03L12.3235 14.7881V16.1011C12.3235 18.2252 10.3918 19.9643 7.9353 19.9643ZM15.0821 12.7882C15.2494 10.1534 16.9531 8.32361 19.366 8.32361C21.7606 8.32361 23.2979 10.1044 23.3553 12.7882H15.0821Z" fill="black"/>
</svg>
