<svg width="28" height="28" viewBox="0 0 28 28" fill="none" xmlns="http://www.w3.org/2000/svg">
<path d="M14.3496 22.5765C15.1298 22.5765 15.5453 22.2577 15.7996 21.4264L17.1046 17.7833H23.7972L25.1022 21.4264C25.3565 22.2577 25.7625 22.5765 26.5427 22.5765C27.3621 22.5765 27.8913 22.0834 27.8913 21.3181C27.8913 21.0366 27.8477 20.7922 27.7328 20.4765L22.5447 6.46623C22.1908 5.48351 21.5268 5 20.4604 5C19.4428 5 18.7734 5.47601 18.427 6.45662L13.2115 20.5367C13.1008 20.8377 13.0551 21.0927 13.0551 21.3425C13.0551 22.1056 13.5483 22.5765 14.3496 22.5765ZM17.7759 15.6055L20.4274 7.99084H20.4923L23.1438 15.6055H17.7759ZM1.19624 22.5476C1.80116 22.5476 2.18084 22.2341 2.4042 21.4932L3.24397 18.9849H7.8028L8.64046 21.5059C8.85749 22.2575 9.23718 22.5476 9.8728 22.5476C10.579 22.5476 11.0702 22.0937 11.0702 21.4334C11.0702 21.1548 11.0053 20.8963 10.8926 20.5911L7.34294 11.0949C7.00169 10.1755 6.40826 9.72454 5.50803 9.72454C4.64062 9.72454 4.04719 10.1626 3.71016 11.0949L0.164764 20.5911C0.0541399 20.8686 0 21.1641 0 21.4334C0 22.118 0.457262 22.5476 1.19624 22.5476ZM3.80811 17.1577L5.38757 12.2689H5.63179L7.2239 17.1577H3.80811Z" fill="black"/>
</svg>
