<svg width="28" height="28" viewBox="0 0 28 28" fill="none" xmlns="http://www.w3.org/2000/svg">
<path d="M3.02445 6.0585H25.1201C25.6925 6.0585 26.1638 5.6064 26.1638 5.02445C26.1638 4.45211 25.6925 4 25.1201 4H3.02445C2.45211 4 2 4.45211 2 5.02445C2 5.6064 2.45211 6.0585 3.02445 6.0585ZM3.02445 18.3376H25.1201C25.6925 18.3376 26.1638 17.8759 26.1638 17.3036C26.1638 16.7312 25.6925 16.277 25.1201 16.277H3.02445C2.45211 16.277 2 16.7312 2 17.3036C2 17.8759 2.45211 18.3376 3.02445 18.3376ZM11.9883 12.1991H25.1201C25.6925 12.1991 26.1638 11.747 26.1638 11.163C26.1638 10.5906 25.6925 10.1385 25.1201 10.1385H11.9883C11.4064 10.1385 10.9543 10.5906 10.9543 11.163C10.9543 11.747 11.4064 12.1991 11.9883 12.1991ZM11.9883 24.4666H25.1201C25.6925 24.4666 26.1638 24.0144 26.1638 23.4421C26.1638 22.8698 25.6925 22.408 25.1201 22.408H11.9883C11.4064 22.408 10.9543 22.8698 10.9543 23.4421C10.9543 24.0144 11.4064 24.4666 11.9883 24.4666Z" fill="black"/>
</svg>
