<svg width="29" height="28" viewBox="0 0 29 28" fill="none" xmlns="http://www.w3.org/2000/svg">
<path d="M16.1428 6.12178C16.7257 6.12178 17.1883 5.64015 17.1883 5.05609C17.1883 4.4732 16.7278 4 16.1428 4H1.05515C0.468044 4 0 4.46898 0 5.05609C0 5.64647 0.470153 6.12178 1.05515 6.12178H16.1428ZM16.1428 12.2645C16.7257 12.2645 17.1883 11.7829 17.1883 11.1967C17.1883 10.6159 16.7278 10.1406 16.1428 10.1406H1.05515C0.468044 10.1406 0 10.6096 0 11.1967C0 11.7871 0.470153 12.2645 1.05515 12.2645H16.1428ZM16.1428 18.4094C16.7257 18.4094 17.1883 17.916 17.1883 17.3416C17.1883 16.7587 16.7278 16.2855 16.1428 16.2855H1.05515C0.468044 16.2855 0 16.7544 0 17.3416C0 17.9223 0.470153 18.4094 1.05515 18.4094H16.1428ZM9.90984 24.5404C10.4906 24.5404 10.9533 24.0587 10.9533 23.4843C10.9533 22.9014 10.4948 22.4165 9.90984 22.4165H1.05515C0.468044 22.4165 0 22.8951 0 23.4843C0 24.063 0.470153 24.5404 1.05515 24.5404H9.90984Z" fill="black"/>
<path d="M26.0861 18.0967C26.9817 18.6962 28.0028 18.3555 28.0028 17.264V11.4456C28.0028 10.319 27.0285 9.9644 26.0861 10.6012L22.0279 13.3624C21.3262 13.8405 21.2985 14.8926 22.0279 15.3866L26.0861 18.0967Z" fill="black"/>
</svg>
