<svg width="28" height="28" viewBox="0 0 28 28" fill="none" xmlns="http://www.w3.org/2000/svg">
<path d="M4.29655 22.5495C5.08428 22.5495 5.49021 22.2308 5.74451 21.3995L7.04951 17.7563H13.7421L15.0492 21.3995C15.3014 22.2308 15.7073 22.5495 16.4876 22.5495C17.309 22.5495 17.8383 22.0564 17.8383 21.2912C17.8383 21.0097 17.7926 20.7652 17.6777 20.4495L12.4896 6.43925C12.1357 5.45653 11.4717 4.97302 10.4053 4.97302C9.38766 4.97302 8.71829 5.44903 8.37189 6.42964L3.15633 20.5098C3.04781 20.8107 3 21.0657 3 21.3155C3 22.0787 3.49523 22.5495 4.29655 22.5495ZM7.72076 15.5785L10.3723 7.96386H10.4393L13.0887 15.5785H7.72076Z" fill="black"/>
<path d="M23.6968 25.5397C24.3211 25.5397 24.7306 25.1555 24.7306 24.5115V16.595C24.7306 15.8994 24.2745 15.4803 23.5885 15.4803C22.9948 15.4803 22.6716 15.691 22.2622 15.9793L20.4378 17.2145C20.0696 17.472 19.9121 17.6966 19.9121 18.0134C19.9121 18.4676 20.2493 18.7986 20.659 18.7986C20.9103 18.7986 21.0668 18.7283 21.335 18.5431L22.6374 17.6691H22.6704V24.5115C22.6704 25.1555 23.0916 25.5397 23.6968 25.5397Z" fill="black"/>
</svg>
