<svg width="48" height="28" viewBox="0 0 48 28" fill="none" xmlns="http://www.w3.org/2000/svg">
<path d="M1.29655 22.6406C2.08428 22.6406 2.49021 22.2909 2.74451 21.4692L4.04951 17.8164H10.7421L12.0492 21.4692C12.3014 22.2909 12.7073 22.6406 13.4876 22.6406C14.309 22.6406 14.8383 22.1165 14.8383 21.3513C14.8383 21.0719 14.7926 20.835 14.6777 20.5118L9.48957 6.50894C9.13567 5.51872 8.47169 5.00427 7.4053 5.00427C6.38766 5.00427 5.71829 5.52083 5.37189 6.49933L0.156327 20.5699C0.047812 20.8825 0 21.1258 0 21.3756C0 22.1388 0.495229 22.6406 1.29655 22.6406ZM4.706 15.6482L7.35749 8.03355H7.42452L10.0739 15.6482H4.706ZM18.341 22.307H24.2388C28.0064 22.307 30.3121 20.4241 30.3121 17.5771C30.3121 15.2324 28.5382 13.5613 26.1147 13.334V13.2498C28.0296 12.9536 29.4417 11.3469 29.4417 9.42012C29.4417 6.98239 27.355 5.29279 24.1275 5.29279H18.341C17.4822 5.29279 16.9296 5.82224 16.9296 6.70441V20.8954C16.9296 21.768 17.4822 22.307 18.341 22.307ZM19.8025 12.534V7.52636H23.4253C25.4137 7.52636 26.6121 8.45918 26.6121 9.86309C26.6121 11.5393 25.2846 12.534 23.0313 12.534H19.8025ZM19.8025 20.0831V14.5438H23.4248C25.9797 14.5438 27.3839 15.5449 27.3839 17.3744C27.3839 19.0649 26.0182 20.0831 23.5755 20.0831H19.8025ZM40.1435 22.5904C43.2351 22.5904 45.6548 21.2507 46.8201 19.0462C47.0819 18.565 47.2331 18.0499 47.2331 17.5689C47.2331 16.8534 46.709 16.357 45.9829 16.357C45.3792 16.357 45.0433 16.5867 44.6873 17.2865C43.8862 19.1669 42.3337 20.1862 40.1456 20.1862C36.9695 20.1862 34.9502 17.7452 34.9502 13.761C34.9502 9.83871 36.9738 7.40941 40.1435 7.40941C42.2437 7.40941 43.885 8.61222 44.6953 10.5636C45.0428 11.2403 45.4141 11.5054 46.0424 11.5054C46.7887 11.5054 47.283 11.0195 47.283 10.3082C47.283 9.94442 47.2096 9.55395 47.0416 9.15271C46.0884 6.61677 43.3436 5.00521 40.1435 5.00521C35.1714 5.00521 32.0582 8.34903 32.0582 13.7727C32.0582 19.2349 35.1543 22.5904 40.1435 22.5904Z" fill="black"/>
</svg>
