<svg width="28" height="28" viewBox="0 0 28 28" fill="none" xmlns="http://www.w3.org/2000/svg">
<path d="M3.02445 6.0585H25.1201C25.6925 6.0585 26.1638 5.6064 26.1638 5.02445C26.1638 4.45211 25.6925 4 25.1201 4H3.02445C2.45211 4 2 4.45211 2 5.02445C2 5.6064 2.45211 6.0585 3.02445 6.0585ZM3.02445 12.1991H16.1659C16.7382 12.1991 17.1999 11.747 17.1999 11.163C17.1999 10.5906 16.7382 10.1385 16.1659 10.1385H3.02445C2.45211 10.1385 2 10.5906 2 11.163C2 11.747 2.45211 12.1991 3.02445 12.1991ZM3.02445 18.3376H25.1201C25.6925 18.3376 26.1638 17.8759 26.1638 17.3036C26.1638 16.7312 25.6925 16.277 25.1201 16.277H3.02445C2.45211 16.277 2 16.7312 2 17.3036C2 17.8759 2.45211 18.3376 3.02445 18.3376ZM3.02445 24.4666H16.1659C16.7382 24.4666 17.1999 24.0144 17.1999 23.4421C17.1999 22.8698 16.7382 22.408 16.1659 22.408H3.02445C2.45211 22.408 2 22.8698 2 23.4421C2 24.0144 2.45211 24.4666 3.02445 24.4666Z" fill="black"/>
</svg>
