<svg width="28" height="28" viewBox="0 0 28 28" fill="none" xmlns="http://www.w3.org/2000/svg">
<path d="M9.14632 22.9498H16.6348C17.3101 22.9498 17.7865 22.5466 17.7865 21.8756C17.7865 21.2281 17.326 20.8249 16.6444 20.8249H14.2409L16.9726 8.12694H19.3761C20.0513 8.12694 20.5182 7.72382 20.5182 7.05491C20.5182 6.40523 20.0651 6 19.3857 6H11.8663C11.1868 6 10.7317 6.40523 10.7317 7.05491C10.7317 7.72382 11.2006 8.12694 11.8759 8.12694H14.2794L11.5477 20.8249H9.13671C8.45515 20.8249 8 21.2281 8 21.8756C8 22.5466 8.46898 22.9498 9.14632 22.9498Z" fill="black"/>
</svg>
