<svg width="33" height="28" viewBox="0 0 33 28" fill="none" xmlns="http://www.w3.org/2000/svg">
<path d="M18.7777 26.0106H31.1895C31.6489 26.0106 32.018 25.667 32.018 25.1948C32.018 24.7246 31.6489 24.3693 31.1895 24.3693H18.7777C18.3183 24.3693 17.9492 24.7246 17.9492 25.1948C17.9492 25.667 18.3183 26.0106 18.7777 26.0106Z" fill="black"/>
<path d="M2.09437 21.9775H8.29054C11.9355 21.9775 14.2458 20.0591 14.2458 17.1245C14.2458 14.8267 12.5259 13.1448 10.1259 13.0265V12.9327C12.1029 12.6632 13.4714 11.1836 13.4714 9.28871C13.4714 6.6459 11.4337 5.02778 8.10538 5.02778H2.09437C0.781404 5.02778 0 5.79981 0 7.14793V19.8669C0 21.2076 0.781404 21.9775 2.09437 21.9775ZM4.22366 19.1249V14.5591H6.855C8.83828 14.5591 9.95719 15.3475 9.95719 16.8095C9.95719 18.3173 8.92945 19.1249 6.96656 19.1249H4.22366ZM4.22366 12.0245V7.9209H6.77953C8.37375 7.9209 9.3232 8.65824 9.3232 9.91988C9.3232 11.2349 8.27883 12.0245 6.5182 12.0245H4.22366ZM24.983 22.2885C29.3093 22.2885 32.0184 19.7425 32.0184 15.9974V6.08105C32.0184 5.26238 31.4857 4.75403 30.6649 4.75403C29.8505 4.75403 29.3231 5.26238 29.3231 6.08105V15.7541C29.3231 18.2493 27.7249 19.8965 24.983 19.8965C22.2431 19.8965 20.647 18.2493 20.647 15.7541V6.08105C20.647 5.26238 20.1004 4.75403 19.2839 4.75403C18.4673 4.75403 17.9517 5.26238 17.9517 6.08105V15.9974C17.9517 19.7425 20.6608 22.2885 24.983 22.2885Z" fill="black"/>
</svg>
