<svg width="28" height="28" viewBox="0 0 28 28" fill="none" xmlns="http://www.w3.org/2000/svg">
<path d="M10.3395 7.74847H25.0597C25.6798 7.74847 26.1659 7.26449 26.1659 6.64223C26.1659 6.01457 25.6819 5.52637 25.0597 5.52637H10.3395C9.71933 5.52637 9.22363 6.01035 9.22363 6.64223C9.22363 7.26238 9.71722 7.74847 10.3395 7.74847ZM10.3395 14.948H25.0597C25.6798 14.948 26.1659 14.4544 26.1659 13.8321C26.1659 13.212 25.6819 12.7259 25.0597 12.7259H10.3395C9.71933 12.7259 9.22363 13.2099 9.22363 13.8321C9.22363 14.4523 9.71722 14.948 10.3395 14.948ZM10.3395 22.1379H25.0597C25.6798 22.1379 26.1659 21.654 26.1659 21.0317C26.1659 20.4019 25.6819 19.9158 25.0597 19.9158H10.3395C9.71933 19.9158 9.22363 20.3998 9.22363 21.0317C9.22363 21.6519 9.71722 22.1379 10.3395 22.1379Z" fill="black"/>
<path d="M3.46483 8.67803L4.44733 7.95873L5.3989 8.67803C5.79686 8.9717 6.23725 8.65577 6.08936 8.21421L5.70897 7.0421L6.67225 6.3228C7.02335 6.05467 6.88085 5.54937 6.43718 5.54937H5.23624L4.83452 4.29522C4.71218 3.90054 4.17499 3.90265 4.05265 4.29522L3.65093 5.54937H2.43827C1.99249 5.54937 1.84039 6.05467 2.20109 6.3228L3.17609 7.04631L2.79781 8.21421C2.64031 8.65577 3.07648 8.96209 3.46483 8.67803ZM3.46483 15.8583L4.44733 15.139L5.3989 15.8583C5.79686 16.1616 6.23725 15.8361 6.08936 15.3945L5.70897 14.2224L6.67225 13.5031C7.02335 13.235 6.88085 12.7372 6.43718 12.7372H5.23624L4.83452 11.4755C4.71218 11.0905 4.17499 11.0926 4.05265 11.4755L3.65093 12.7372H2.43827C1.99249 12.7372 1.84039 13.235 2.20109 13.5031L3.17609 14.2245L2.79781 15.3945C2.64992 15.8361 3.07648 16.1403 3.46483 15.8583ZM3.46483 23.0675L4.44733 22.3482L5.3989 23.0675C5.79686 23.3708 6.23725 23.0452 6.08936 22.6037L5.70897 21.4315L6.67225 20.7122C7.02335 20.4441 6.88085 19.9463 6.43718 19.9463H5.23624L4.83452 18.6847C4.71218 18.2996 4.17499 18.2921 4.05265 18.6847L3.65093 19.9463H2.43827C1.99249 19.9463 1.84039 20.4441 2.20109 20.7122L3.17609 21.4336L2.79781 22.6037C2.64992 23.0452 3.07648 23.3494 3.46483 23.0675Z" fill="black"/>
</svg>
