<svg width="36" height="30" viewBox="0 0 36 30" fill="none" xmlns="http://www.w3.org/2000/svg">
<path d="M1.01765 25.2984H34.6812C35.2432 25.2984 35.7084 24.8184 35.7084 24.2606C35.7084 23.6986 35.2432 23.2366 34.6812 23.2366H1.01765C0.455624 23.2366 0 23.7007 0 24.2606C0 24.8163 0.457733 25.2984 1.01765 25.2984ZM0.59461 20.7555C0.926718 21.0897 1.43226 21.0801 1.76437 20.7576L5.77218 16.7594C6.11601 16.4252 6.1139 15.9239 5.77218 15.5896C5.44008 15.2458 4.93453 15.2554 4.60242 15.5875L0.59461 19.5761C0.250783 19.92 0.252892 20.4213 0.59461 20.7555ZM4.60242 20.7555C4.93664 21.0876 5.43797 21.0876 5.77218 20.7555C6.11601 20.4234 6.11601 19.9082 5.77218 19.574L1.76437 15.5896C1.43015 15.2479 0.928828 15.2479 0.59461 15.5896C0.250783 15.9218 0.250783 16.439 0.59461 16.7615L4.60242 20.7555Z" fill="black"/>
<path d="M11.8437 29.6487C16.8556 29.6487 20.0124 23.5948 20.0124 15.6481C20.0124 8.8944 16.9187 3.52979 12.1805 3.52979C9.03379 3.52979 6.68066 6.11096 6.68066 9.49654C6.68066 14.4945 10.8465 18.4974 14.7819 20.3933C14.9691 20.4804 15.1393 20.5219 15.3052 20.5219C15.8373 20.5219 16.2521 20.1111 16.2521 19.625C16.2521 19.2994 16.0913 18.9823 15.7072 18.774C13.1248 17.4394 8.73518 14.179 8.73518 9.49014C8.73518 7.26619 10.2083 5.57892 12.1826 5.57892C15.6727 5.57892 17.9675 10.0787 17.9675 15.6481C17.9675 22.2598 15.4494 27.6038 12.0884 27.6038C11.0162 27.6038 10.4972 26.8993 10.4972 25.8699C10.4972 22.6489 15.5808 16.3794 22.3008 16.3794C22.6625 16.3794 22.8673 16.5361 22.8673 16.8008C22.8673 17.776 22.3039 18.556 22.3039 19.6135C22.3039 20.5569 22.9885 21.1465 23.9316 21.1465C26.3675 21.1465 29.2838 17.1244 30.1772 17.1244C30.9769 17.1244 30.0443 20.7153 33.0047 20.7153C33.5286 20.7153 34.1792 20.5758 34.6765 20.2447C34.9915 20.034 35.2118 19.7169 35.2118 19.3051C35.2118 18.7922 34.8682 18.3551 34.3374 18.3551C33.9357 18.3551 33.5979 18.6697 33.2354 18.6697C32.0879 18.6697 33.1915 14.8149 30.7561 14.8149C28.6674 14.8149 25.6013 18.6134 24.8316 18.6134C24.7379 18.6134 24.6643 18.5591 24.6643 18.4248C24.6643 18.0409 25.0934 17.2233 25.0934 16.4061C25.0934 15.1287 24.0849 14.3344 22.4972 14.3344C14.4835 14.3344 8.3759 21.6273 8.3759 26.1844C8.3759 28.2399 9.53933 29.6487 11.8437 29.6487Z" fill="black"/>
</svg>
