<svg width="28" height="28" viewBox="0 0 28 28" fill="none" xmlns="http://www.w3.org/2000/svg">
<path d="M13.0374 26.8111C17.5348 26.8111 21.0844 23.2615 21.0844 18.7641C21.0844 14.255 17.5348 10.7129 13.0257 10.7129C8.52617 10.7129 5 14.255 5 18.7641C5 23.2615 8.54 26.8111 13.0374 26.8111ZM13.0374 24.5101C9.81124 24.5101 7.29897 22.002 7.29897 18.7641C7.29897 15.5358 9.80913 13.014 13.0257 13.014C16.2615 13.014 18.7834 15.5358 18.7834 18.7641C18.7834 22.002 16.2732 24.5101 13.0374 24.5101ZM18.7834 18.7641H21.0844V5.31218H18.7834V18.7641ZM19.928 6.87756C21.2895 6.87756 22.3658 5.7896 22.3658 4.43984C22.3658 3.08797 21.2895 2 19.928 2C18.5762 2 17.4882 3.08797 17.4882 4.43984C17.4882 5.7896 18.5762 6.87756 19.928 6.87756Z" fill="black"/>
</svg>
