<svg width="28" height="28" viewBox="0 0 28 28" fill="none" xmlns="http://www.w3.org/2000/svg">
<path d="M9.12855 7.77496H25.0478C25.6679 7.77496 26.1636 7.29097 26.1636 6.66871C26.1636 6.04106 25.67 5.55286 25.0478 5.55286H9.12855C8.49879 5.55286 8.0127 6.03684 8.0127 6.66871C8.0127 7.28887 8.49668 7.77496 9.12855 7.77496ZM9.12855 14.9745H25.0478C25.6679 14.9745 26.1636 14.4809 26.1636 13.8586C26.1636 13.2385 25.67 12.7524 25.0478 12.7524H9.12855C8.49879 12.7524 8.0127 13.2364 8.0127 13.8586C8.0127 14.4788 8.49668 14.9745 9.12855 14.9745ZM9.12855 22.1644H25.0478C25.6679 22.1644 26.1636 21.6804 26.1636 21.0582C26.1636 20.4284 25.67 19.9423 25.0478 19.9423H9.12855C8.49879 19.9423 8.0127 20.4263 8.0127 21.0582C8.0127 21.6783 8.49668 22.1644 9.12855 22.1644Z" fill="black"/>
<path d="M3.64741 8.30869C4.56054 8.30869 5.29694 7.57228 5.29694 6.66877C5.29694 5.75777 4.56054 5.02136 3.64741 5.02136C2.7364 5.02136 2 5.75777 2 6.66877C2 7.57228 2.7364 8.30869 3.64741 8.30869ZM3.64741 15.5082C4.56054 15.5082 5.29694 14.7718 5.29694 13.8587C5.29694 12.9456 4.56054 12.2113 3.64741 12.2113C2.7364 12.2113 2 12.9456 2 13.8587C2 14.7718 2.7364 15.5082 3.64741 15.5082ZM3.64741 22.7056C4.56054 22.7056 5.29694 21.9617 5.29694 21.0582C5.29694 20.1451 4.56054 19.4108 3.64741 19.4108C2.7364 19.4108 2 20.1451 2 21.0582C2 21.9617 2.7364 22.7056 3.64741 22.7056Z" fill="black"/>
</svg>
