<svg width="28" height="28" viewBox="0 0 28 28" fill="none" xmlns="http://www.w3.org/2000/svg">
<path d="M21.7728 10.8244V26.6449C21.7728 27.2395 22.2502 27.7097 22.831 27.7097C23.4277 27.7097 23.8967 27.2437 23.8967 26.6449V10.8244C23.8967 10.2394 23.4235 9.78088 22.831 9.78088C22.2565 9.78088 21.7728 10.2415 21.7728 10.8244ZM15.6321 10.8244V26.6449C15.6321 27.2395 16.1096 27.7097 16.6882 27.7097C17.287 27.7097 17.756 27.2437 17.756 26.6449V10.8244C17.756 10.2394 17.2807 9.78088 16.6882 9.78088C16.1138 9.78088 15.6321 10.2415 15.6321 10.8244ZM9.4873 10.8244V26.6449C9.4873 27.2395 9.96472 27.7097 10.5551 27.7097C11.1422 27.7097 11.6112 27.2437 11.6112 26.6449V10.8244C11.6112 10.2394 11.138 9.78088 10.5551 9.78088C9.96894 9.78088 9.4873 10.2415 9.4873 10.8244ZM3.34668 10.8244V19.1606C3.34668 19.7552 3.82409 20.2233 4.41237 20.2233C4.99948 20.2233 5.47057 19.7573 5.47057 19.1606V10.8244C5.47057 10.2394 4.99526 9.78088 4.41237 9.78088C3.82831 9.78088 3.34668 10.2415 3.34668 10.8244Z" fill="black"/>
<path d="M2.32827 4.20755L5.55749 6.63146C6.22194 7.12763 7.05889 6.86044 7.05889 5.98083V4.35591H20.1848V5.98083C20.1848 6.84122 21.0026 7.14685 21.6862 6.63146L24.9154 4.20755C25.3563 3.86466 25.3425 3.2342 24.9154 2.91474L21.6862 0.496229C21.0005 -0.0212704 20.1848 0.284354 20.1848 1.14146V2.77717H7.05889V1.14146C7.05889 0.284354 6.24327 -0.0212704 5.55749 0.496229L2.32827 2.91474C1.89163 3.24591 1.88952 3.86466 2.32827 4.20755Z" fill="black"/>
</svg>
