<svg width="30" height="28" viewBox="0 0 30 28" fill="none" xmlns="http://www.w3.org/2000/svg">
<path d="M11.8333 25.0854C12.4204 25.0854 12.8915 24.6077 12.8915 24.0206V4.05515C12.8915 3.47015 12.4162 3 11.8333 3C11.2588 3 10.7676 3.47226 10.7676 4.05515V24.0206C10.7676 24.6056 11.2546 25.0854 11.8333 25.0854ZM17.7316 25.0854C18.3187 25.0854 18.7898 24.6077 18.7898 24.0206V4.05515C18.7898 3.47015 18.3145 3 17.7316 3C17.1571 3 16.6659 3.47226 16.6659 4.05515V24.0206C16.6659 24.6056 17.1508 25.0854 17.7316 25.0854Z" fill="black"/>
<path d="M4.58894 17.8022C5.49409 18.3921 6.52487 18.0609 6.51526 16.9694V11.1511C6.52487 10.0245 5.53136 9.66985 4.58894 10.3066L0.540353 13.0678C-0.161364 13.5555 -0.19863 14.598 0.540353 15.0921L4.58894 17.8022ZM24.9657 17.8022L29.0239 15.0921C29.7533 14.598 29.7256 13.5459 29.0239 13.0678L24.9657 10.3066C24.0233 9.66985 23.049 10.0245 23.049 11.1511V16.9694C23.049 18.0609 24.0702 18.4017 24.9657 17.8022Z" fill="black"/>
</svg>
