<svg width="28" height="28" viewBox="0 0 28 28" fill="none" xmlns="http://www.w3.org/2000/svg">
<path d="M10.2604 7.44377H25.0479C25.668 7.44377 26.1637 6.95979 26.1637 6.33753C26.1637 5.70988 25.6701 5.22168 25.0479 5.22168H10.2604C9.63062 5.22168 9.14453 5.70566 9.14453 6.33753C9.14453 6.95768 9.62851 7.44377 10.2604 7.44377ZM10.2604 14.6433H25.0479C25.668 14.6433 26.1637 14.1497 26.1637 13.5275C26.1637 12.9073 25.6701 12.4212 25.0479 12.4212H10.2604C9.63062 12.4212 9.14453 12.9052 9.14453 13.5275C9.14453 14.1476 9.62851 14.6433 10.2604 14.6433ZM10.2604 21.8333H25.0479C25.668 21.8333 26.1637 21.3493 26.1637 20.727C26.1637 20.0973 25.6701 19.6112 25.0479 19.6112H10.2604C9.63062 19.6112 9.14453 20.0951 9.14453 20.727C9.14453 21.3472 9.62851 21.8333 10.2604 21.8333Z" fill="black"/>
<path d="M3.31624 7.65382H5.32015C6.04694 7.65382 6.646 7.05687 6.646 6.33757C6.646 5.59906 6.04694 5.01172 5.32015 5.01172H3.31624C2.58945 5.01172 2 5.59906 2 6.33757C2 7.05687 2.58945 7.65382 3.31624 7.65382ZM3.31624 14.8533H5.32015C6.04694 14.8533 6.646 14.2564 6.646 13.5275C6.646 12.7986 6.04694 12.2112 5.32015 12.2112H3.31624C2.58945 12.2112 2 12.7986 2 13.5275C2 14.2564 2.58945 14.8533 3.31624 14.8533ZM3.31624 22.0433H5.32015C6.04694 22.0433 6.646 21.4463 6.646 20.727C6.646 19.9885 6.04694 19.4012 5.32015 19.4012H3.31624C2.58945 19.4012 2 19.9885 2 20.727C2 21.4463 2.58945 22.0433 3.31624 22.0433Z" fill="black"/>
</svg>
