<svg width="28" height="28" viewBox="0 0 28 28" fill="none" xmlns="http://www.w3.org/2000/svg">
<path d="M14.105 26.21C20.7369 26.21 26.2121 20.7273 26.2121 14.105C26.2121 7.47312 20.7273 2 14.0954 2C7.47523 2 2 7.47312 2 14.105C2 20.7273 7.48484 26.21 14.105 26.21Z" fill="black"/>
<path d="M11.3621 10.9918C10.9362 10.9918 10.5891 10.6329 10.5891 10.205C10.5891 9.76949 10.9149 9.42988 11.3621 9.42988H20.0336C20.4808 9.42988 20.8321 9.76949 20.8321 10.205C20.8321 10.6425 20.4808 10.9918 20.0336 10.9918H11.3621ZM11.3621 18.8089C10.917 18.8089 10.5891 18.4618 10.5891 18.0242C10.5891 17.5962 10.9362 17.247 11.3621 17.247H20.0336C20.4808 17.247 20.8321 17.5866 20.8321 18.0242C20.8321 18.4618 20.4808 18.8089 20.0336 18.8089H11.3621ZM11.3621 14.9014C10.9362 14.9014 10.5891 14.5426 10.5891 14.1146C10.5891 13.6866 10.9341 13.3395 11.3621 13.3395H20.0336C20.4808 13.3395 20.8321 13.677 20.8321 14.1146C20.8321 14.5522 20.4808 14.9014 20.0336 14.9014H11.3621ZM8.42094 11.2838C7.82774 11.2838 7.34961 10.7961 7.34961 10.205C7.34961 9.60215 7.82774 9.12402 8.42094 9.12402C9.02164 9.12402 9.49977 9.60215 9.49977 10.205C9.49977 10.7864 9.01203 11.2838 8.42094 11.2838ZM8.42094 15.1934C7.82774 15.1934 7.34961 14.7153 7.34961 14.1146C7.34961 13.5139 7.82774 13.0358 8.42094 13.0358C9.01203 13.0358 9.49977 13.5235 9.49977 14.1146C9.49977 14.7057 9.01203 15.1934 8.42094 15.1934ZM8.42094 19.1052C7.82774 19.1052 7.34961 18.627 7.34961 18.0242C7.34961 17.4331 7.82774 16.9454 8.42094 16.9454C9.01203 16.9454 9.49977 17.4427 9.49977 18.0242C9.49977 18.627 9.02164 19.1052 8.42094 19.1052Z" fill="white"/>
</svg>
