<svg width="29" height="28" viewBox="0 0 29 28" fill="none" xmlns="http://www.w3.org/2000/svg">
<path d="M4.36992 24.8972H24.4441C26.9852 24.8972 28.2905 23.5919 28.2905 21.0914V18.0604C28.2905 17.3414 27.8557 16.9024 27.1366 16.9024C26.4197 16.9024 25.9945 17.3414 25.9945 18.0604V20.8985C25.9945 22.0371 25.3835 22.6013 24.311 22.6013H4.51265C3.42303 22.6013 2.83124 22.0371 2.83124 20.8985V18.0604C2.83124 17.3414 2.38686 16.9024 1.67742 16.9024C0.970076 16.9024 0.535315 17.3414 0.535315 18.0604V21.0914C0.535315 23.6016 1.85015 24.8972 4.36992 24.8972ZM4.36992 3.02344C1.85015 3.02344 0.535315 4.31695 0.535315 6.82921V9.36704C0.535315 10.0861 0.970076 10.5347 1.67742 10.5347C2.38686 10.5347 2.83124 10.0861 2.83124 9.36704V7.01999C2.83124 5.88139 3.42303 5.31936 4.51265 5.31936H24.311C25.3835 5.31936 25.9945 5.88139 25.9945 7.01999V9.36704C25.9945 10.0861 26.4293 10.5347 27.1366 10.5347C27.8653 10.5347 28.2905 10.0861 28.2905 9.36704V6.82921C28.2905 4.32656 26.9852 3.02344 24.4441 3.02344H4.36992ZM1.67742 15.3853C2.60554 15.3853 3.35694 14.6243 3.35694 13.6962C3.35694 12.7798 2.60554 12.0284 1.67742 12.0284C0.761013 12.0284 0 12.7798 0 13.6962C0 14.6243 0.761013 15.3853 1.67742 15.3853ZM27.1366 15.3853C28.0552 15.3853 28.8141 14.6243 28.8141 13.6962C28.8141 12.7798 28.0552 12.0284 27.1366 12.0284C26.2106 12.0284 25.4592 12.7702 25.4592 13.6962C25.4592 14.6243 26.2106 15.3853 27.1366 15.3853Z" fill="black"/>
<path d="M10.6849 19.4348C11.2059 19.4348 11.5537 19.1723 11.7379 18.5182L12.4605 16.3849H16.3668L17.0894 18.5182C17.2736 19.1627 17.631 19.4348 18.152 19.4348C18.7774 19.4348 19.1838 19.0423 19.1838 18.4617C19.1838 18.2573 19.1423 18.0511 19.0338 17.7427L16.033 9.52573C15.748 8.72863 15.2057 8.32996 14.3967 8.32996C13.6056 8.32996 13.0814 8.72652 12.8039 9.52573L9.79355 17.7427C9.69464 18.0511 9.64355 18.2573 9.64355 18.4521C9.64355 19.0519 10.0478 19.4348 10.6849 19.4348ZM12.9578 14.7656L14.354 10.5258H14.4829L15.877 14.7656H12.9578Z" fill="black"/>
</svg>
