<svg width="28" height="28" viewBox="0 0 28 28" fill="none" xmlns="http://www.w3.org/2000/svg">
<path d="M8.01398 3.74241C11.7176 3.74241 15.3361 9.32217 21.0752 9.32217C24.1263 9.32217 25.8581 7.3853 25.8581 4.94007C25.8581 4.13171 25.6526 3.24765 25.2201 2.41375C24.637 1.27844 22.8867 2.03804 23.5348 3.28515C23.8608 3.91585 24.0302 4.53718 24.0302 5.10085C24.0302 6.50546 22.9851 7.43148 21.0752 7.43148C16.3533 7.43148 12.7369 1.85171 8.01398 1.85171C4.87125 1.85171 3 3.94632 3 6.38077C3 7.16358 3.18422 7.96233 3.59109 8.74093C4.17632 9.86662 5.90108 9.08147 5.27648 7.87163C4.97601 7.29413 4.8396 6.74101 4.8396 6.23171C4.8396 4.79851 5.99015 3.74241 8.01398 3.74241ZM13.6343 15.7947L15.4036 15.7851C15.1303 11.1536 18.4406 8.98773 18.4406 5.13789C18.4406 2.97953 16.9741 1.27539 15.0063 1.27539C13.3413 1.27539 11.9737 2.50071 11.8636 4.17555L13.6202 4.70945C13.6521 3.78578 14.198 3.16609 15.0063 3.16609C15.9124 3.16609 16.5499 3.95382 16.5499 5.11258C16.5499 7.9239 13.3502 10.3823 13.6343 15.7947ZM5.04726 16.6173C5.04726 22.1251 9.21561 27.5912 16.6734 27.5912C20.0201 27.5912 22.6397 25.998 22.6397 23.9556C22.6397 22.9994 21.9677 22.2594 20.7562 22.1104C20.3048 22.0445 19.9273 22.2473 19.8539 22.7352C19.6589 24.2512 18.5899 25.3574 17.1194 25.3574C16.0762 25.3574 15.4453 24.7668 15.4453 23.9844C15.4453 21.2669 23.6829 21.0986 23.6829 15.393C23.6829 12.7623 21.836 10.9358 19.3451 10.9358C17.0857 10.9358 15.3258 12.1834 14.5226 14.2996C14.7141 11.3005 12.9286 9.62148 10.6317 9.62148C7.15687 9.62148 5.04726 12.7759 5.04726 16.6173Z" fill="black"/>
</svg>
