<svg width="28" height="28" viewBox="0 0 28 28" fill="none" xmlns="http://www.w3.org/2000/svg">
<path d="M9.29085 22.5334C10.0999 22.5334 10.6251 22.0271 10.6251 21.218V6.49882C10.6251 5.58101 10.0434 5.07898 9.11015 5.07898C8.4382 5.07898 8.05664 5.25992 7.41891 5.66914L3.6832 8.09281C3.18398 8.42492 3 8.74508 3 9.18875C3 9.76413 3.41695 10.1747 4.0296 10.1747C4.36499 10.1747 4.53632 10.0831 4.77046 9.92983L7.92469 7.93975H7.98V21.218C7.98 22.0271 8.48601 22.5334 9.29085 22.5334ZM14.9932 22.2716H24.839C25.5304 22.2716 25.9931 21.8291 25.9931 21.1632C25.9931 20.4931 25.5325 20.0431 24.839 20.0431H17.3592V19.9761L21.899 15.6502C24.5465 13.1162 25.424 11.6445 25.424 9.86421C25.424 7.07609 22.9882 5 19.6036 5C16.9261 5 14.7553 6.35727 14.0236 8.48937C13.8893 8.86554 13.8328 9.19484 13.8328 9.50468C13.8328 10.1919 14.2708 10.6524 14.9632 10.6524C15.6068 10.6524 15.9234 10.3587 16.135 9.71374C16.2246 9.37577 16.3472 9.05913 16.5241 8.78937C17.1114 7.80639 18.1915 7.19866 19.5761 7.19866C21.3785 7.19866 22.7838 8.43968 22.7838 10.0046C22.7838 11.2784 22.2319 12.1723 20.0857 14.2709L14.519 19.6709C13.9615 20.1957 13.7489 20.5869 13.7489 21.091C13.7489 21.8206 14.2413 22.2716 14.9932 22.2716Z" fill="black"/>
</svg>
