<svg width="28" height="28" viewBox="0 0 28 28" fill="none" xmlns="http://www.w3.org/2000/svg">
<path d="M11.8001 6.12178H26.8803C27.4653 6.12178 27.9333 5.64647 27.9333 5.05609C27.9333 4.46898 27.4674 4 26.8803 4H11.8001C11.2055 4 10.7471 4.4732 10.7471 5.05609C10.7471 5.64015 11.2076 6.12178 11.8001 6.12178ZM11.8001 12.2645H26.8803C27.4653 12.2645 27.9333 11.7871 27.9333 11.1967C27.9333 10.6096 27.4674 10.1406 26.8803 10.1406H11.8001C11.2055 10.1406 10.7471 10.6159 10.7471 11.1967C10.7471 11.7829 11.2076 12.2645 11.8001 12.2645ZM11.8001 18.4094H26.8803C27.4653 18.4094 27.9333 17.9223 27.9333 17.3416C27.9333 16.7544 27.4674 16.2855 26.8803 16.2855H11.8001C11.2055 16.2855 10.7471 16.7587 10.7471 17.3416C10.7471 17.916 11.2076 18.4094 11.8001 18.4094ZM11.8001 24.5404H20.6452C21.2302 24.5404 21.71 24.063 21.71 23.4843C21.71 22.8951 21.2323 22.4165 20.6452 22.4165H11.8001C11.2055 22.4165 10.7471 22.9014 10.7471 23.4843C10.7471 24.0587 11.2076 24.5404 11.8001 24.5404Z" fill="black"/>
<path d="M1.92428 18.0967L5.98459 15.3866C6.71185 14.8926 6.68631 13.8501 5.98459 13.3624L1.92428 10.6012C0.983974 9.9644 -0.0095403 10.319 6.91571e-05 11.4456V17.264C-0.0095403 18.3555 1.02124 18.6866 1.92428 18.0967Z" fill="black"/>
</svg>
