<svg width="28" height="28" viewBox="0 0 28 28" fill="none" xmlns="http://www.w3.org/2000/svg">
<path d="M9.95667 8.21709H25.0479C25.668 8.21709 26.1637 7.73311 26.1637 7.11085C26.1637 6.4832 25.6701 5.995 25.0479 5.995H9.95667C9.32691 5.995 8.84082 6.47898 8.84082 7.11085C8.84082 7.731 9.3248 8.21709 9.95667 8.21709ZM9.95667 15.4166H25.0479C25.668 15.4166 26.1637 14.923 26.1637 14.3008C26.1637 13.6806 25.6701 13.1945 25.0479 13.1945H9.95667C9.32691 13.1945 8.84082 13.6785 8.84082 14.3008C8.84082 14.9209 9.3248 15.4166 9.95667 15.4166ZM9.95667 22.6065H25.0479C25.668 22.6065 26.1637 22.1226 26.1637 21.5003C26.1637 20.8705 25.6701 20.3844 25.0479 20.3844H9.95667C9.32691 20.3844 8.84082 20.8684 8.84082 21.5003C8.84082 22.1204 9.3248 22.6065 9.95667 22.6065Z" fill="black"/>
<path d="M3.1264 9.05005L5.35366 7.73193C5.79498 7.46709 5.78537 6.8003 5.35577 6.54507L3.1264 5.19929C2.57117 4.85991 2 5.05538 2 5.70647V8.54709C2 9.17263 2.57867 9.3681 3.1264 9.05005ZM3.1264 16.224L5.35366 14.908C5.79498 14.6432 5.78537 13.9743 5.35577 13.719L3.1264 12.3754C2.57117 12.0435 2 12.2411 2 12.8804V15.7211C2 16.3466 2.57867 16.5442 3.1264 16.224ZM3.1264 23.4395L5.35366 22.1214C5.79498 21.8565 5.78537 21.1876 5.35577 20.9324L3.1264 19.5887C2.57117 19.2569 2 19.4448 2 20.0938V22.9365C2 23.5621 2.57867 23.7576 3.1264 23.4395Z" fill="black"/>
</svg>
