<svg width="28" height="28" viewBox="0 0 28 28" fill="none" xmlns="http://www.w3.org/2000/svg">
<path d="M21.2552 22.7077C23.0304 22.7077 24.6947 21.7592 25.4233 20.259H25.4765V21.5844C25.4955 22.2905 25.9657 22.7173 26.6451 22.7173C27.3447 22.7173 27.8275 22.2737 27.8275 21.4911V13.7591C27.8275 11.1749 25.8639 9.48876 22.7545 9.48876C20.3826 9.48876 18.4711 10.4699 17.8158 12.0111C17.6911 12.2999 17.6079 12.5727 17.6079 12.8272C17.6079 13.4166 18.0515 13.8156 18.6672 13.8156C19.1022 13.8156 19.4341 13.6517 19.6689 13.2899C20.3568 12.0064 21.2749 11.4369 22.6781 11.4369C24.3754 11.4369 25.4126 12.3847 25.4126 13.9325V14.9024L21.7497 15.1069C18.671 15.2773 16.968 16.659 16.968 18.8998C16.968 21.1761 18.7413 22.7077 21.2552 22.7077ZM21.915 20.8384C20.4426 20.8384 19.4299 20.0281 19.4299 18.8108C19.4299 17.6424 20.369 16.861 22.0718 16.7501L25.4126 16.538V17.7275C25.4126 19.479 23.8593 20.8384 21.915 20.8384ZM1.29655 22.6383C2.08428 22.6383 2.49021 22.3196 2.74451 21.4883L4.04951 17.8451H10.7421L12.0492 21.4883C12.3014 22.3196 12.7073 22.6383 13.4876 22.6383C14.309 22.6383 14.8383 22.1452 14.8383 21.38C14.8383 21.0985 14.7926 20.8541 14.6777 20.5384L9.48957 6.52812C9.13567 5.5454 8.47169 5.06189 7.4053 5.06189C6.38766 5.06189 5.71829 5.5379 5.37189 6.51851L0.156327 20.5986C0.047812 20.8995 0 21.1545 0 21.4044C0 22.1675 0.495229 22.6383 1.29655 22.6383ZM4.72076 15.6673L7.37225 8.05273H7.43928L10.0887 15.6673H4.72076Z" fill="black"/>
</svg>
