<svg width="28" height="28" viewBox="0 0 28 28" fill="none" xmlns="http://www.w3.org/2000/svg">
<path d="M5 9.49176C5 13.0909 7.57718 15.4756 11.4856 15.4756H13.0803V24.5881C13.0803 25.4152 13.5769 25.9341 14.3926 25.9341C15.2007 25.9341 15.7187 25.4152 15.7187 24.5881V6.17276H18.1203V24.5881C18.1203 25.4152 18.6169 25.9341 19.4251 25.9341C20.2407 25.9341 20.7586 25.4152 20.7586 24.5881V6.17276H22.5661C23.405 6.17276 23.9239 5.64519 23.9239 4.83707C23.9239 4.03106 23.405 3.53442 22.5661 3.53442H11.3616C7.52843 3.53442 5 5.90114 5 9.49176Z" fill="black"/>
</svg>
