<svg width="28" height="28" viewBox="0 0 28 28" fill="none" xmlns="http://www.w3.org/2000/svg">
<path d="M9.09437 22.9498H15.2905C18.9355 22.9498 21.2458 21.0314 21.2458 18.0968C21.2458 15.799 19.5259 14.1171 17.1259 13.9988V13.905C19.1029 13.6355 20.4714 12.1559 20.4714 10.2609C20.4714 7.61812 18.4337 6 15.1054 6H9.09437C7.7814 6 7 6.77203 7 8.12015V20.8392C7 22.1798 7.7814 22.9498 9.09437 22.9498ZM11.2237 20.0972V15.5313H13.855C15.8383 15.5313 16.9572 16.3198 16.9572 17.7818C16.9572 19.2895 15.9295 20.0972 13.9666 20.0972H11.2237ZM11.2237 12.9968V8.89312H13.7795C15.3737 8.89312 16.3232 9.63046 16.3232 10.8921C16.3232 12.2072 15.2788 12.9968 13.5182 12.9968H11.2237Z" fill="black"/>
</svg>
