<svg width="28" height="28" viewBox="0 0 28 28" fill="none" xmlns="http://www.w3.org/2000/svg">
<path d="M3.04554 6.12178H25.099C25.684 6.12178 26.1638 5.64647 26.1638 5.05609C26.1638 4.46898 25.6862 4 25.099 4H3.04554C2.46054 4 2 4.4732 2 5.05609C2 5.64015 2.46265 6.12178 3.04554 6.12178ZM3.04554 12.2645H25.099C25.684 12.2645 26.1638 11.7871 26.1638 11.1967C26.1638 10.6096 25.6862 10.1406 25.099 10.1406H3.04554C2.46054 10.1406 2 10.6159 2 11.1967C2 11.7829 2.46265 12.2645 3.04554 12.2645ZM3.04554 18.4094H25.099C25.684 18.4094 26.1638 17.9223 26.1638 17.3416C26.1638 16.7544 25.6862 16.2855 25.099 16.2855H3.04554C2.46054 16.2855 2 16.7587 2 17.3416C2 17.916 2.46265 18.4094 3.04554 18.4094ZM3.04554 24.5404H15.3905C15.9755 24.5404 16.4457 24.063 16.4457 23.4843C16.4457 22.8951 15.9777 22.4165 15.3905 22.4165H3.04554C2.46054 22.4165 2 22.9014 2 23.4843C2 24.0587 2.46265 24.5404 3.04554 24.5404Z" fill="black"/>
</svg>
