<svg width="28" height="28" viewBox="0 0 28 28" fill="none" xmlns="http://www.w3.org/2000/svg">
<path d="M3.04554 6.12178H16.2364C16.8214 6.12178 17.2915 5.64647 17.2915 5.05609C17.2915 4.46898 16.8256 4 16.2364 4H3.04554C2.46054 4 2 4.4732 2 5.05609C2 5.64015 2.46265 6.12178 3.04554 6.12178ZM20.1305 6.12178H25.099C25.684 6.12178 26.1638 5.64647 26.1638 5.05609C26.1638 4.46898 25.6862 4 25.099 4H20.1305C19.5455 4 19.0871 4.4732 19.0871 5.05609C19.0871 5.64015 19.5476 6.12178 20.1305 6.12178ZM3.05515 12.2645H5.28735C5.88195 12.2645 6.34039 11.7871 6.34039 11.1967C6.34039 10.6096 5.88406 10.1406 5.28735 10.1406H3.05515C2.47015 10.1406 2 10.6159 2 11.1967C2 11.7829 2.47226 12.2645 3.05515 12.2645ZM9.18897 12.2645H15.1969C15.7916 12.2645 16.2521 11.7871 16.2521 11.1967C16.2521 10.6096 15.7958 10.1406 15.1969 10.1406H9.18897C8.60398 10.1406 8.13593 10.6159 8.13593 11.1967C8.13593 11.7829 8.60819 12.2645 9.18897 12.2645ZM19.1007 12.2645H25.1087C25.6937 12.2645 26.1638 11.7871 26.1638 11.1967C26.1638 10.6096 25.6979 10.1406 25.1087 10.1406H19.1007C18.5157 10.1406 18.038 10.6159 18.038 11.1967C18.038 11.7829 18.5199 12.2645 19.1007 12.2645ZM3.05515 18.4094H8.02367C8.60656 18.4094 9.07671 17.916 9.07671 17.3416C9.07671 16.7587 8.60867 16.2855 8.02367 16.2855H3.05515C2.46804 16.2855 2 16.7544 2 17.3416C2 17.9223 2.47015 18.4094 3.05515 18.4094ZM11.9274 18.4094H25.1087C25.6915 18.4094 26.1638 17.916 26.1638 17.3416C26.1638 16.7587 25.6937 16.2855 25.1087 16.2855H11.9274C11.3286 16.2855 10.8626 16.7544 10.8626 17.3416C10.8626 17.9223 11.3328 18.4094 11.9274 18.4094ZM3.04554 24.5404H15.3905C15.9755 24.5404 16.4457 24.063 16.4457 23.4843C16.4457 22.8951 15.9777 22.4165 15.3905 22.4165H3.04554C2.46054 22.4165 2 22.9014 2 23.4843C2 24.0587 2.46265 24.5404 3.04554 24.5404Z" fill="black"/>
</svg>
