<svg width="28" height="28" viewBox="0 0 28 28" fill="none" xmlns="http://www.w3.org/2000/svg">
<path d="M3.84421 24.8781H23.9109C26.4499 24.8781 27.7552 23.5824 27.7552 21.0819V6.81004C27.7552 4.30739 26.4499 3.00427 23.9109 3.00427H3.84421C1.31484 3.00427 0 4.30739 0 6.81004V21.0819C0 23.5824 1.31484 24.8781 3.84421 24.8781ZM3.97733 22.5821C2.88772 22.5821 2.29592 22.018 2.29592 20.8794V7.01043C2.29592 5.87183 2.88772 5.30019 3.97733 5.30019H23.7778C24.8578 5.30019 25.4592 5.87183 25.4592 7.01043V20.8794C25.4592 22.018 24.8578 22.5821 23.7778 22.5821H3.97733Z" fill="black"/>
<path d="M7.15332 18.5763C7.70691 18.5763 8.02519 18.2271 8.02519 17.6468V10.169C8.02519 9.56525 7.67293 9.22353 7.08863 9.22353C6.67238 9.22353 6.41574 9.32994 5.96106 9.64306L4.2084 10.8222C3.97097 10.9851 3.87207 11.166 3.87207 11.4194C3.87207 11.7653 4.14676 12.0475 4.47769 12.0475C4.63425 12.0475 4.75566 12.0241 4.9891 11.8588L6.21324 11.0559H6.30606V17.6468C6.30606 18.2175 6.62645 18.5763 7.15332 18.5763ZM10.432 18.4336H15.5018C15.9298 18.4336 16.2321 18.1238 16.2321 17.7021C16.2321 17.2763 15.9298 16.9898 15.5018 16.9898H12.0576V16.9451L14.3105 14.5882C15.2119 13.6523 15.8269 12.8542 15.8269 11.7967C15.8269 10.2421 14.5856 9.22236 12.6998 9.22236C11.2795 9.22236 9.9977 10.0485 9.67168 11.2026C9.63864 11.3646 9.61309 11.4785 9.61309 11.6233C9.61309 12.0492 9.89621 12.3419 10.3455 12.3419C10.7341 12.3419 10.9566 12.1192 11.1302 11.8073C11.3573 11.2188 11.8596 10.6406 12.7491 10.6406C13.6235 10.6406 14.209 11.1482 14.209 11.9097C14.209 12.5667 13.6671 13.1468 13.0884 13.7395L9.95902 17.0074C9.7516 17.2022 9.63676 17.4234 9.63676 17.697C9.63676 18.1409 9.95293 18.4336 10.432 18.4336ZM20.2978 18.588C22.3924 18.588 23.7893 17.5181 23.7893 15.8941C23.7893 14.7209 22.9207 13.8223 21.7409 13.7144V13.6931C22.7119 13.5565 23.4738 12.6569 23.4738 11.6104C23.4738 10.2039 22.1963 9.20642 20.3756 9.20642C18.8034 9.20642 17.558 9.95267 17.2535 11.0964C17.2195 11.2572 17.2015 11.3678 17.2015 11.5382C17.2015 11.9481 17.5038 12.2484 17.951 12.2484C18.3312 12.2484 18.5665 12.0864 18.7069 11.7253C18.9253 11.0245 19.5342 10.615 20.3585 10.615C21.2639 10.615 21.8377 11.0704 21.8377 11.8031C21.8377 12.5528 21.2009 13.0927 20.3138 13.0927H19.7388C19.346 13.0927 19.0596 13.3652 19.0596 13.7613C19.0596 14.1595 19.346 14.4417 19.7388 14.4417H20.3693C21.4111 14.4417 22.1098 14.9794 22.1098 15.8123C22.1098 16.6282 21.3931 17.1764 20.3255 17.1764C19.4435 17.1764 18.8154 16.7712 18.5606 16.0692C18.3809 15.7092 18.1636 15.5515 17.7909 15.5515C17.3299 15.5515 17.033 15.8634 17.033 16.2989C17.033 16.448 17.0489 16.5352 17.085 16.6842C17.366 17.8109 18.6961 18.588 20.2978 18.588Z" fill="black"/>
</svg>
