<svg width="28" height="28" viewBox="0 0 28 28" fill="none" xmlns="http://www.w3.org/2000/svg">
<path d="M3.04554 6.12178H25.099C25.684 6.12178 26.1638 5.64647 26.1638 5.05609C26.1638 4.46898 25.6862 4 25.099 4H3.04554C2.46054 4 2 4.4732 2 5.05609C2 5.64015 2.46265 6.12178 3.04554 6.12178ZM16.588 18.4094H25.099C25.684 18.4094 26.1638 17.9223 26.1638 17.3416C26.1638 16.7544 25.6862 16.2855 25.099 16.2855H16.588C16.003 16.2855 15.5445 16.7587 15.5445 17.3416C15.5445 17.916 16.0051 18.4094 16.588 18.4094ZM3.04554 24.5404H25.099C25.684 24.5404 26.1638 24.063 26.1638 23.4843C26.1638 22.8951 25.6862 22.4165 25.099 22.4165H3.04554C2.46054 22.4165 2 22.9014 2 23.4843C2 24.0587 2.46265 24.5404 3.04554 24.5404Z" fill="black"/>
<path d="M3.51437 13.2006H24.6416C25.6407 13.2006 26.1636 12.6969 26.1636 11.6978V10.6902C26.1636 9.7103 25.6407 9.19702 24.6416 9.19702H3.51437C2.51523 9.19702 2.00195 9.7103 2.00195 10.6902V11.6978C2.00195 12.6969 2.51523 13.2006 3.51437 13.2006ZM3.51437 19.3455H12.2935C13.2927 19.3455 13.806 18.8418 13.806 17.8426V16.8351C13.806 15.8552 13.2927 15.3419 12.2935 15.3419H3.51437C2.51523 15.3419 2.00195 15.8552 2.00195 16.8351V17.8426C2.00195 18.8418 2.51523 19.3455 3.51437 19.3455Z" fill="black"/>
</svg>
