<svg width="28" height="28" viewBox="0 0 28 28" fill="none" xmlns="http://www.w3.org/2000/svg">
<path d="M9.59046 8.13604H25.0475C25.6676 8.13604 26.1633 7.65206 26.1633 7.0298C26.1633 6.40214 25.6697 5.91394 25.0475 5.91394H9.59046C8.97031 5.91394 8.47461 6.39792 8.47461 7.0298C8.47461 7.64995 8.9682 8.13604 9.59046 8.13604ZM9.59046 15.3355H25.0475C25.6676 15.3355 26.1633 14.8419 26.1633 14.2197C26.1633 13.5996 25.6697 13.1135 25.0475 13.1135H9.59046C8.97031 13.1135 8.47461 13.5975 8.47461 14.2197C8.47461 14.8398 8.9682 15.3355 9.59046 15.3355ZM9.59046 22.5255H25.0475C25.6676 22.5255 26.1633 22.0415 26.1633 21.4192C26.1633 20.7894 25.6697 20.3034 25.0475 20.3034H9.59046C8.97031 20.3034 8.47461 20.7873 8.47461 21.4192C8.47461 22.0394 8.9682 22.5255 9.59046 22.5255Z" fill="black"/>
<path d="M4.62218 9.49914C5.09281 9.49914 5.42609 9.23078 5.42609 8.66336V4.85078C5.42609 4.33117 5.05343 4 4.51039 4C4.08336 4 3.81078 4.14484 3.49672 4.35461L2.66469 4.92461C2.41766 5.09289 2.29086 5.25156 2.29086 5.51242C2.29086 5.8382 2.53367 6.06179 2.81797 6.05758C2.97242 6.05547 3.04695 6.03414 3.25461 5.89351L3.7768 5.54078H3.80445V8.66336C3.80445 9.23078 4.12812 9.49914 4.62218 9.49914ZM2.70172 16.6626H5.7725C6.11421 16.6626 6.37718 16.4315 6.37718 16.0759C6.37718 15.7075 6.12382 15.4722 5.7725 15.4722H4.12203V15.4349L5.07453 14.6741C5.87351 14.0242 6.21312 13.6492 6.21312 12.9325C6.21312 11.9676 5.39843 11.3242 4.08851 11.3242C2.93398 11.3242 2.10641 11.9123 2.10641 12.6749C2.10641 13.0668 2.36305 13.2787 2.78258 13.2787C3.05844 13.2787 3.24265 13.1924 3.4257 12.9229C3.60031 12.6543 3.8007 12.5125 4.11406 12.5125C4.44125 12.5125 4.68101 12.7246 4.68101 13.0464C4.68101 13.3213 4.53617 13.5569 3.92469 14.0416L2.37477 15.3135C2.12984 15.5094 2.02977 15.7309 2.02977 16.0077C2.02977 16.39 2.29602 16.6626 2.70172 16.6626ZM4.11195 24.0562C5.56132 24.0562 6.40484 23.4224 6.40484 22.4127C6.40484 21.7534 5.94687 21.3039 5.12351 21.2315V21.1942C5.70945 21.0866 6.19507 20.6776 6.19507 19.9853C6.19507 19.063 5.28992 18.5666 4.10234 18.5666C3.1693 18.5666 2.13523 18.996 2.13523 19.8032C2.13523 20.1461 2.38016 20.391 2.76875 20.391C3.03289 20.391 3.1564 20.2855 3.32679 20.1119C3.60687 19.8231 3.81992 19.7336 4.10234 19.7336C4.45297 19.7336 4.72039 19.8988 4.72039 20.2419C4.72039 20.5595 4.44969 20.7236 3.98398 20.7236H3.84453C3.51008 20.7236 3.29281 20.8982 3.29281 21.2549C3.29281 21.5903 3.49836 21.7841 3.84453 21.7841H4.0032C4.50945 21.7841 4.78226 21.9557 4.78437 22.3063C4.78648 22.6122 4.49773 22.836 4.11195 22.836C3.69969 22.836 3.4025 22.5932 3.17984 22.3853C3.03711 22.2627 2.91359 22.1648 2.6825 22.1648C2.2843 22.1648 2 22.4001 2 22.7866C2 23.6078 3.12266 24.0562 4.11195 24.0562Z" fill="black"/>
</svg>
