<svg width="28" height="28" viewBox="0 0 28 28" fill="none" xmlns="http://www.w3.org/2000/svg">
<path d="M3.05609 25.0854C3.65491 25.0854 4.12389 24.6077 4.12389 24.0206V4.05515C4.12389 3.47015 3.64858 3 3.05609 3C2.48164 3 2 3.47226 2 4.05515V24.0206C2 24.6056 2.47742 25.0854 3.05609 25.0854ZM8.95437 25.0854C9.55319 25.0854 10.0222 24.6077 10.0222 24.0206V4.05515C10.0222 3.47015 9.54686 3 8.95437 3C8.37992 3 7.89828 3.47226 7.89828 4.05515V24.0206C7.89828 24.6056 8.3757 25.0854 8.95437 25.0854ZM14.8505 25.0854C15.4473 25.0854 15.9183 24.6077 15.9183 24.0206V4.05515C15.9183 3.47015 15.443 3 14.8505 3C14.2761 3 13.7944 3.47226 13.7944 4.05515V24.0206C13.7944 24.6056 14.2719 25.0854 14.8505 25.0854Z" fill="black"/>
<path d="M22.0942 17.8022L26.1524 15.0921C26.8818 14.598 26.8541 13.5555 26.1524 13.0678L22.0942 10.3066C21.1518 9.66985 20.1583 10.0245 20.17 11.1511V16.9694C20.1583 18.0609 21.189 18.3921 22.0942 17.8022Z" fill="black"/>
</svg>
