<svg width="28" height="28" viewBox="0 0 28 28" fill="none" xmlns="http://www.w3.org/2000/svg">
<path d="M9.19624 20.8915C9.80116 20.8915 10.1808 20.5758 10.4042 19.8371L11.244 17.3289H15.8028L16.6405 19.8498C16.8575 20.6014 17.2372 20.8915 17.8728 20.8915C18.579 20.8915 19.0702 20.4376 19.0702 19.7773C19.0702 19.4987 19.0053 19.2402 18.8926 18.935L15.3429 9.43886C15.0017 8.51942 14.4083 8.06848 13.508 8.06848C12.6406 8.06848 12.0472 8.50652 11.7102 9.43886L8.16476 18.935C8.05414 19.2125 8 19.508 8 19.7773C8 20.4619 8.45726 20.8915 9.19624 20.8915ZM11.8081 15.4996L13.3876 10.6128H13.6318L15.2239 15.4996H11.8081Z" fill="black"/>
</svg>
