<svg width="46" height="28" viewBox="0 0 46 28" fill="none" xmlns="http://www.w3.org/2000/svg">
<path d="M32.6605 26.0106H45.0744C45.5433 26.0106 45.9125 25.667 45.9125 25.1948C45.9125 24.7246 45.5433 24.3693 45.0744 24.3693H32.6605C32.2107 24.3693 31.832 24.7246 31.832 25.1948C31.832 25.667 32.2107 26.0106 32.6605 26.0106Z" fill="black"/>
<path d="M2.09437 21.9775H8.29054C11.9355 21.9775 14.2458 20.0591 14.2458 17.1245C14.2458 14.8267 12.5259 13.1448 10.1259 13.0265V12.9327C12.1029 12.6632 13.4714 11.1836 13.4714 9.28871C13.4714 6.6459 11.4337 5.02778 8.10538 5.02778H2.09437C0.781404 5.02778 0 5.79981 0 7.14793V19.8669C0 21.2076 0.781404 21.9775 2.09437 21.9775ZM4.22366 19.1249V14.5591H6.855C8.83828 14.5591 9.95719 15.3475 9.95719 16.8095C9.95719 18.3173 8.92945 19.1249 6.96656 19.1249H4.22366ZM4.22366 12.0245V7.9209H6.77953C8.37375 7.9209 9.3232 8.65824 9.3232 9.91988C9.3232 11.2349 8.27883 12.0245 6.5182 12.0245H4.22366ZM17.0885 21.9775H24.577C25.2522 21.9775 25.7191 21.5744 25.7191 20.9034C25.7191 20.2558 25.2661 19.8527 24.5866 19.8527H22.1735L24.9051 7.15472H27.3065C27.9839 7.15472 28.4508 6.75159 28.4508 6.08269C28.4508 5.43301 27.9977 5.02778 27.3162 5.02778H19.8084C19.1269 5.02778 18.6738 5.43301 18.6738 6.08269C18.6738 6.75159 19.1428 7.15472 19.818 7.15472H22.2119L19.4803 19.8527H17.0768C16.3973 19.8527 15.9326 20.2558 15.9326 20.9034C15.9326 21.5744 16.4112 21.9775 17.0885 21.9775ZM38.8673 22.2885C43.2032 22.2885 45.9124 19.7425 45.9124 15.9974V6.08105C45.9124 5.26238 45.3775 4.75403 44.5589 4.75403C43.7327 4.75403 43.2171 5.26238 43.2171 6.08105V15.7541C43.2171 18.2493 41.6168 19.8965 38.8673 19.8965C36.1371 19.8965 34.5293 18.2493 34.5293 15.7541V6.08105C34.5293 5.26238 33.9944 4.75403 33.1779 4.75403C32.3613 4.75403 31.8361 5.26238 31.8361 6.08105V15.9974C31.8361 19.7425 34.5527 22.2885 38.8673 22.2885Z" fill="black"/>
</svg>
