<svg width="28" height="28" viewBox="0 0 28 28" fill="none" xmlns="http://www.w3.org/2000/svg">
<path d="M13.9275 22.5676C17.989 22.5676 20.5905 20.5088 20.5905 17.3532C20.5905 14.8356 19.0706 13.4895 15.5808 12.7009L13.5736 12.2502C11.298 11.7202 10.3303 11.0401 10.3303 9.81312C10.3303 8.29483 11.8315 7.23171 13.9263 7.23171C15.8028 7.23171 17.1197 8.0614 17.772 9.5689C18.0354 10.0395 18.361 10.2526 18.8888 10.2526C19.6057 10.2526 20.063 9.82507 20.063 9.14422C20.063 8.94313 20.0353 8.74297 19.9779 8.55453C19.4168 6.44281 17.0224 5 13.9179 5C10.2492 5 7.60289 7.06836 7.60289 10.0308C7.60289 12.4217 9.11719 13.8558 12.3405 14.5784L14.5411 15.0814C16.9048 15.6294 17.8674 16.3524 17.8674 17.6659C17.8674 19.2205 16.2607 20.3476 13.938 20.3476C11.8861 20.3476 10.3331 19.419 9.67217 17.8836C9.39796 17.3691 9.10007 17.1402 8.56991 17.1402C7.83164 17.1402 7.37109 17.5944 7.37109 18.3029C7.37109 18.5328 7.41258 18.7766 7.48172 19.0224C8.13023 21.1951 10.6247 22.5676 13.9275 22.5676Z" fill="black"/>
<path d="M4.64078 14.3248H23.308C23.6662 14.3248 23.9488 14.0358 23.9488 13.6862C23.9488 13.3386 23.6662 13.0475 23.308 13.0475H4.64078C4.28265 13.0475 4 13.3386 4 13.6862C4 14.0358 4.28265 14.3248 4.64078 14.3248Z" fill="black"/>
</svg>
