<svg width="28" height="28" viewBox="0 0 28 28" fill="none" xmlns="http://www.w3.org/2000/svg">
<path d="M20.8229 13.4265C23.337 13.4265 25.0655 11.75 25.0655 9.30053C25.0655 6.85858 23.337 5.17249 20.8229 5.17249C18.3706 5.17249 16.6922 6.86069 16.6922 9.30053C16.6922 11.75 18.3823 13.4265 20.8229 13.4265ZM20.8229 11.6021C19.6397 11.6021 18.8337 10.6681 18.8337 9.29631C18.8337 7.9224 19.6376 7.00014 20.8229 7.00014C22.0838 7.00014 22.9144 7.92029 22.9144 9.29631C22.9144 10.6723 22.07 11.6021 20.8229 11.6021ZM3.24499 22.3766C4.036 22.3766 4.49748 21.8916 4.49748 21.0901V9.79737H4.45693L12.4198 21.4522C12.9038 22.133 13.2919 22.3766 13.8835 22.3766C14.7108 22.3766 15.1852 21.8682 15.1852 20.975V6.52834C15.1852 5.71928 14.7237 5.22053 13.9327 5.22053C13.1609 5.22053 12.6877 5.71717 12.6877 6.52834V17.784H12.7241L4.77381 6.14069C4.27717 5.43756 3.93569 5.22053 3.30593 5.22053C2.50625 5.22053 2 5.77248 2 6.61998V21.0901C2 21.8874 2.48281 22.3766 3.24499 22.3766ZM18.0305 16.6156H23.7369C24.4111 16.6156 24.8848 16.2134 24.8848 15.5337C24.8848 14.8519 24.4111 14.4305 23.7369 14.4305H18.0305C17.3562 14.4305 16.9018 14.8519 16.9018 15.5337C16.9018 16.2134 17.3562 16.6156 18.0305 16.6156Z" fill="black"/>
</svg>
