<svg width="28" height="28" viewBox="0 0 28 28" fill="none" xmlns="http://www.w3.org/2000/svg">
<path d="M6 22.5651L9.40873 23.4747C10.7669 23.8462 11.6182 23.2691 11.6182 21.8943V18.1893H16.0866V14.7806H7.48334V21.2031C7.48334 22.1348 6.87046 22.6073 6 22.5651ZM7.48334 12.4619H11.6182V7.97247C11.6182 6.87091 11.0953 6.31943 10.0865 6.04568L6.81327 5.17334C7.1789 5.36506 7.48334 5.73302 7.48334 6.37426V12.4619ZM17.2985 22.5651L20.7072 23.4747C22.0654 23.8462 22.9188 23.2691 22.9188 21.8943V7.97247C22.9188 6.87091 22.3842 6.30982 21.3754 6.03607L18.1118 5.17334C18.4774 5.36506 18.7819 5.73302 18.7819 6.37426V21.2031C18.7819 22.1348 18.169 22.6073 17.2985 22.5651Z" fill="black"/>
</svg>
