<svg width="28" height="28" viewBox="0 0 28 28" fill="none" xmlns="http://www.w3.org/2000/svg">
<path d="M3.04554 6.12178H25.099C25.684 6.12178 26.1638 5.64647 26.1638 5.05609C26.1638 4.46898 25.6862 4 25.099 4H3.04554C2.46054 4 2 4.4732 2 5.05609C2 5.64015 2.46265 6.12178 3.04554 6.12178ZM3.04554 12.2645H25.099C25.684 12.2645 26.1638 11.7871 26.1638 11.1967C26.1638 10.6096 25.6862 10.1406 25.099 10.1406H3.04554C2.46054 10.1406 2 10.6159 2 11.1967C2 11.7829 2.46265 12.2645 3.04554 12.2645ZM3.04554 18.4094H25.099C25.684 18.4094 26.1638 17.9223 26.1638 17.3416C26.1638 16.7544 25.6862 16.2855 25.099 16.2855H3.04554C2.46054 16.2855 2 16.7587 2 17.3416C2 17.916 2.46265 18.4094 3.04554 18.4094ZM12.5358 24.5404H25.099C25.684 24.5404 26.1638 24.063 26.1638 23.4843C26.1638 22.8951 25.6862 22.4165 25.099 22.4165H12.5358C11.9508 22.4165 11.4924 22.9014 11.4924 23.4843C11.4924 24.0587 11.9551 24.5404 12.5358 24.5404Z" fill="black"/>
</svg>
