<svg width="28" height="29" viewBox="0 0 28 29" fill="none" xmlns="http://www.w3.org/2000/svg">
<path d="M14.105 26.6911C20.7369 26.6911 26.2121 21.2083 26.2121 14.5861C26.2121 7.95421 20.7273 2.48109 14.0954 2.48109C7.47523 2.48109 2 7.95421 2 14.5861C2 21.2083 7.48484 26.6911 14.105 26.6911ZM14.105 16.609C12.9849 16.609 12.0959 15.7125 12.0959 14.5957C12.0959 13.8405 12.5115 13.1972 13.1834 12.8173V7.16928C13.1834 6.65741 13.5793 6.25944 14.0954 6.25944C14.6094 6.25944 15.0169 6.65741 15.0169 7.16928V12.8311C15.6985 13.1833 16.1162 13.8342 16.1162 14.5957C16.1162 15.7125 15.2176 16.609 14.105 16.609ZM12.7466 3.0675L15.4463 3.07172V1.37343C15.4463 0.613358 14.8534 0 14.0975 0C13.3693 0 12.7466 0.613358 12.7466 1.37343V3.0675ZM21.5977 5.77898L23.4237 7.7503L24.7236 6.44506C25.0205 6.15022 25.1792 5.7785 25.1792 5.43046C25.1792 4.71726 24.6118 4.14773 23.8815 4.14773C23.4514 4.14773 23.149 4.27335 22.8446 4.56398L21.5977 5.77898Z" fill="black"/>
</svg>
