<svg width="28" height="28" viewBox="0 0 28 28" fill="none" xmlns="http://www.w3.org/2000/svg">
<path d="M6.84421 24.8972H21.0295C23.5685 24.8972 24.8737 23.5919 24.8737 21.0914V6.82921C24.8737 4.32656 23.5685 3.02344 21.0295 3.02344H6.84421C4.31484 3.02344 3 4.31695 3 6.82921V21.0914C3 23.6016 4.31484 24.8972 6.84421 24.8972ZM6.97733 22.6013C5.88772 22.6013 5.29592 22.0371 5.29592 20.8985V7.01999C5.29592 5.88139 5.88772 5.31936 6.97733 5.31936H20.8964C21.9764 5.31936 22.5778 5.88139 22.5778 7.01999V20.8985C22.5778 22.0371 21.9764 22.6013 20.8964 22.6013H6.97733Z" fill="black"/>
<path d="M7.24121 13.9427C7.24121 17.6337 10.2515 20.6536 13.9424 20.6536C17.6334 20.6536 20.6533 17.6337 20.6533 13.9427C20.6533 10.2614 17.6334 7.24146 13.952 7.24146C13.4123 7.24146 13.0621 7.59279 13.0621 8.13373V10.2783C13.0621 10.7606 13.4252 11.1236 13.9 11.1236C14.361 11.1236 14.7123 10.7489 14.7123 10.2783V9.13427C17.0514 9.48466 18.8085 11.5078 18.8085 13.9427C18.8085 16.646 16.6361 18.8067 13.9424 18.8067C11.2488 18.8067 9.07847 16.646 9.08808 13.9427C9.08808 12.8072 9.4741 11.7197 10.2089 10.8529C10.5356 10.3945 10.5356 9.91849 10.1929 9.55334C9.78746 9.1467 9.17762 9.21467 8.79864 9.69138C7.7934 10.8839 7.24121 12.4122 7.24121 13.9427ZM15.0398 15.0291C15.6074 14.438 15.5041 13.5691 14.815 13.144L11.8315 11.2001C11.3257 10.8815 10.87 11.3043 11.1991 11.827L13.1568 14.7926C13.6096 15.4912 14.4625 15.5967 15.0398 15.0291Z" fill="black"/>
</svg>
