<svg width="28" height="28" viewBox="0 0 28 28" fill="none" xmlns="http://www.w3.org/2000/svg">
<path d="M9.04937 24.8313H18.9444C20.2124 24.8313 20.9938 24.1001 20.9938 22.7681V22.5443C20.9938 19.6547 17.9676 16.6378 16.4282 15.108C15.6836 14.3613 15.6334 13.4925 16.4282 12.6977C17.9676 11.1776 20.9938 8.17452 20.9938 5.26148V5.0707C20.9938 3.74086 20.2124 3 18.9444 3H9.04937C7.7793 3 7 3.74086 7 5.0707V5.26148C7 8.17452 10.0359 11.1776 11.5635 12.6977C12.37 13.4925 12.3198 14.3613 11.5635 15.108C10.0359 16.6378 7 19.6547 7 22.5443V22.7681C7 24.1001 7.7793 24.8313 9.04937 24.8313Z" fill="black"/>
<path d="M14.9183 11.9848C14.2565 12.5496 13.7373 12.5496 13.0754 11.9848C12.2493 11.2706 9.88395 8.82025 9.05895 7.44939C8.81333 7.0322 8.92513 6.66541 9.3538 6.66541H18.64C19.0687 6.66541 19.1901 7.0322 18.9327 7.44939C18.1098 8.82025 15.7541 11.2706 14.9183 11.9848Z" fill="white"/>
</svg>
