<svg width="28" height="28" viewBox="0 0 28 28" fill="none" xmlns="http://www.w3.org/2000/svg">
<path d="M14.105 26.21C20.7369 26.21 26.2121 20.7273 26.2121 14.105C26.2121 7.47312 20.7273 2 14.0954 2C7.47523 2 2 7.47312 2 14.105C2 20.7273 7.48484 26.21 14.105 26.21ZM14.105 23.8255C8.71085 23.8255 4.39412 19.4991 4.39412 14.105C4.39412 8.71085 8.70124 4.38452 14.0954 4.38452C19.4895 4.38452 23.8276 8.71085 23.8276 14.105C23.8276 19.4991 19.4991 23.8255 14.105 23.8255Z" fill="black"/>
<path d="M11.0433 20.8391H17.1687C17.9462 20.8391 18.4201 20.3844 18.4201 19.5781V19.4363C18.4201 17.656 16.5512 15.788 15.5905 14.8273C15.0896 14.3361 15.1184 13.8078 15.5905 13.3571C16.5512 12.406 18.4201 10.5401 18.4201 8.74596V8.6276C18.4201 7.80964 17.9462 7.35706 17.1687 7.35706H11.0433C10.2659 7.35706 9.79199 7.80964 9.79199 8.6276V8.74596C9.79199 10.5401 11.6609 12.406 12.6216 13.3571C13.0916 13.8078 13.1225 14.3361 12.6216 14.8273C11.6609 15.788 9.79199 17.656 9.79199 19.4363V19.5781C9.79199 20.3844 10.2659 20.8391 11.0433 20.8391ZM11.6471 19.7342C11.3126 19.7342 11.2393 19.3487 11.4607 19.141L13.5587 16.992C13.6618 16.8847 13.6991 16.8495 13.6991 16.688V13.5955C13.6991 13.2505 13.6224 13.0716 13.3775 12.8363C12.8998 12.365 12.3776 11.8503 11.948 11.3855C11.7329 11.1757 11.8458 10.9257 12.1076 10.9257H16.112C16.3759 10.9257 16.4792 11.1757 16.2716 11.3855C15.8344 11.8503 15.3102 12.365 14.8346 12.8363C14.5897 13.0716 14.513 13.2505 14.513 13.5955V16.688C14.513 16.8495 14.5503 16.8847 14.6534 16.992L16.7513 19.141C16.9728 19.3487 16.8995 19.7342 16.565 19.7342H11.6471Z" fill="black"/>
</svg>
