<svg width="28" height="28" viewBox="0 0 28 28" fill="none" xmlns="http://www.w3.org/2000/svg">
<path d="M15.422 26.21C22.0421 26.21 27.527 20.7273 27.527 14.105C27.527 7.47312 22.0421 2 15.422 2C8.80278 2 3.33809 7.44242 3.31489 14.0553H5.6994C5.72261 8.67804 10.0384 4.39412 15.422 4.39412C20.8161 4.39412 25.1425 8.71085 25.1425 14.105C25.1425 19.4991 20.8161 23.8468 15.422 23.8255C12.2699 23.8159 9.51948 22.34 7.74971 20.0211C7.27886 19.4731 6.5973 19.2997 6.02496 19.7023C5.49082 20.0881 5.39144 20.8381 5.89956 21.4634C8.06918 24.2977 11.6183 26.21 15.422 26.21ZM1.90301 11.7188C0.987547 11.7188 0.761844 12.4091 1.25473 13.0991L4.09699 17.0365C4.49215 17.5756 5.10316 17.566 5.48871 17.0365L8.32885 13.0894C8.81002 12.4112 8.58643 11.7188 7.68268 11.7188H1.90301Z" fill="black"/>
<path d="M14.983 7.30957C14.4168 7.30957 13.959 7.7598 13.959 8.32183V14.6901C13.959 14.9722 14.0495 15.2277 14.255 15.4961L17.0589 19.1962C17.4751 19.7381 18.0711 19.8306 18.5854 19.473C19.0569 19.1367 19.0963 18.5205 18.7236 18.0126L14.9057 12.8795L15.9953 16.2135V8.32183C15.9953 7.7598 15.545 7.30957 14.983 7.30957Z" fill="black"/>
</svg>
