<svg width="28" height="28" viewBox="0 0 28 28" fill="none" xmlns="http://www.w3.org/2000/svg">
<path d="M14.105 26.21C20.7369 26.21 26.2121 20.7273 26.2121 14.105C26.2121 7.47312 20.7273 2 14.0954 2C7.47523 2 2 7.47312 2 14.105C2 20.7273 7.48484 26.21 14.105 26.21Z" fill="black"/>
<path d="M10.9571 14.9991H14.095C14.4463 14.9991 14.7423 14.7362 14.7423 14.3827V10.2879C14.7423 9.93661 14.4559 9.66192 14.095 9.66192C13.7437 9.66192 13.469 9.93661 13.469 10.2879V13.7588H10.9571C10.5962 13.7588 10.3236 14.0239 10.3236 14.3827C10.3236 14.7458 10.5962 14.9991 10.9571 14.9991ZM14.1046 20.5644C10.5718 20.5644 7.6377 17.6377 7.6377 14.105C7.6377 10.5722 10.5622 7.63599 14.095 7.63599C17.6373 7.63599 20.5736 10.5722 20.5736 14.105C20.5736 17.6377 17.6373 20.5644 14.1046 20.5644Z" fill="white"/>
</svg>
