<svg width="29" height="28" viewBox="0 0 29 28" fill="none" xmlns="http://www.w3.org/2000/svg">
<path d="M14.422 2C8.60574 2 3.67567 6.20703 2.56075 11.7188H0.903012C-0.0124533 11.7188 -0.238156 12.4091 0.254733 13.0991L3.09699 17.0365C3.49215 17.5756 4.10316 17.566 4.48871 17.0365L7.32885 13.0894C7.81002 12.4112 7.58643 11.7188 6.68268 11.7188H5.00362C6.0494 7.48952 9.84558 4.39412 14.422 4.39412C17.572 4.40373 20.3224 5.86999 22.0943 8.1889C22.5534 8.73687 23.2446 8.91031 23.8073 8.49804C24.3511 8.12188 24.4504 7.37188 23.9423 6.74657C21.7748 3.91227 18.2236 2 14.422 2ZM14.422 26.21C20.2361 26.21 25.1662 21.9933 26.2811 16.4912H27.9293C28.8447 16.4912 29.08 15.8009 28.5775 15.1109L25.7449 11.1734C25.3497 10.6344 24.7387 10.644 24.3532 11.1734L21.5151 15.1205C21.0244 15.7988 21.2554 16.4912 22.1613 16.4912H23.8479C22.7925 20.7109 18.9867 23.8255 14.422 23.8255C11.2699 23.8159 8.51948 22.34 6.74971 20.0211C6.27886 19.4731 5.5973 19.2997 5.02496 19.7023C4.49082 20.0881 4.39144 20.8381 4.89956 21.4634C7.06918 24.2977 10.6183 26.21 14.422 26.21Z" fill="black"/>
<path d="M13.983 7.30957C13.4168 7.30957 12.959 7.7598 12.959 8.32183V14.6901C12.959 14.9722 13.0495 15.2277 13.255 15.4961L16.0589 19.1962C16.4751 19.7381 17.0711 19.8306 17.5854 19.473C18.0569 19.1367 18.0963 18.5205 17.7236 18.0126L13.9057 12.8795L14.9953 16.2135V8.32183C14.9953 7.7598 14.545 7.30957 13.983 7.30957Z" fill="black"/>
</svg>
