<svg width="28" height="28" viewBox="0 0 28 28" fill="none" xmlns="http://www.w3.org/2000/svg">
<path d="M2.11742 21.0132V24.4226C2.11742 25.9524 2.86672 26.6825 4.4157 26.6825H8.06023C5.48328 25.4276 3.52672 23.5423 2.11742 21.0132ZM26.1816 21.0132C24.7723 23.5423 22.8179 25.4276 20.2505 26.6825H23.8834C25.4323 26.6825 26.1816 25.9524 26.1816 24.4226V21.0132ZM14.105 26.4425C20.7369 26.4425 26.2121 20.9598 26.2121 14.3375C26.2121 7.70567 20.7273 2.23254 14.0954 2.23254C7.47523 2.23254 2 7.70567 2 14.3375C2 20.9598 7.48484 26.4425 14.105 26.4425ZM14.105 24.058C8.71085 24.058 4.39412 19.7316 4.39412 14.3375C4.39412 8.94339 8.70124 4.61706 14.0954 4.61706C19.4895 4.61706 23.8276 8.94339 23.8276 14.3375C23.8276 19.7316 19.4991 24.058 14.105 24.058Z" fill="black"/>
<path d="M10.1509 11.7321L13.507 15.0861C13.8794 15.4702 14.4529 15.4606 14.8253 15.0861L20.0024 9.91104C20.377 9.54612 20.3866 8.96089 20.0024 8.60019C19.6183 8.23949 19.0661 8.22988 18.6916 8.60019L14.1592 13.1305L11.4714 10.4234C11.0851 10.0468 10.5233 10.0489 10.1509 10.4234C9.79021 10.7862 9.77849 11.3597 10.1509 11.7321Z" fill="black"/>
</svg>
