<svg width="28" height="29" viewBox="0 0 28 29" fill="none" xmlns="http://www.w3.org/2000/svg">
<path d="M14.105 26.6911C20.7369 26.6911 26.2121 21.2083 26.2121 14.5861C26.2121 7.95421 20.7273 2.48109 14.0954 2.48109C7.47523 2.48109 2 7.95421 2 14.5861C2 21.2083 7.48484 26.6911 14.105 26.6911ZM14.105 24.3066C8.71085 24.3066 4.39412 19.9802 4.39412 14.5861C4.39412 9.19194 8.70124 4.8656 14.0954 4.8656C19.4895 4.8656 23.8159 9.19194 23.8276 14.5861C23.8372 19.9802 19.4991 24.3066 14.105 24.3066ZM12.7466 3.30679H15.4463V1.37343C15.4463 0.613358 14.8534 0 14.0975 0C13.3693 0 12.7466 0.613358 12.7466 1.37343V3.30679ZM21.6062 5.77265L23.4556 7.72803L24.7236 6.44506C25.0205 6.15022 25.1792 5.7785 25.1792 5.43046C25.1792 4.71726 24.6118 4.14773 23.8815 4.14773C23.4514 4.14773 23.149 4.27335 22.8446 4.56398L21.6062 5.77265Z" fill="black"/>
<path d="M14.1049 16.609C15.2175 16.609 16.1183 15.7083 16.1183 14.5957C16.1183 13.83 15.6922 13.1601 15.0296 12.8163V7.38017C15.0296 6.85775 14.6178 6.45557 14.0954 6.45557C13.5751 6.45557 13.1708 6.85775 13.1708 7.38017V12.8067C12.5199 13.1698 12.0938 13.83 12.0938 14.5957C12.0938 15.7083 12.9848 16.609 14.1049 16.609Z" fill="black"/>
</svg>
