<svg width="28" height="28" viewBox="0 0 28 28" fill="none" xmlns="http://www.w3.org/2000/svg">
<path d="M14.105 26.21C20.7369 26.21 26.2121 20.7273 26.2121 14.105C26.2121 7.47312 20.7273 2 14.0954 2C7.47523 2 2 7.47312 2 14.105C2 20.7273 7.48484 26.21 14.105 26.21ZM14.105 23.8255C8.71085 23.8255 4.39412 19.4991 4.39412 14.105C4.39412 8.71085 8.70124 4.38452 14.0954 4.38452C19.4895 4.38452 23.8276 8.71085 23.8276 14.105C23.8276 19.4991 19.4991 23.8255 14.105 23.8255Z" fill="black"/>
<path d="M14.1049 20.622C17.6883 20.622 20.624 17.6841 20.624 14.1029C20.624 10.5216 17.6883 7.58374 14.1145 7.58374C13.6054 7.58374 13.3235 7.91069 13.3235 8.3696V10.1537C13.3235 10.5711 13.6216 10.914 14.0604 10.914C14.4874 10.914 14.7993 10.5711 14.7993 10.1537V9.27545C17.1904 9.59819 18.9633 11.6021 18.9633 14.1029C18.9633 16.8263 16.8464 18.9709 14.1049 18.9709C11.3752 18.9709 9.23694 16.8263 9.23694 14.1029C9.23694 12.913 9.65601 11.8576 10.3502 11.0079C10.6312 10.6451 10.6854 10.183 10.3427 9.84874C9.99258 9.49741 9.44016 9.53679 9.09844 9.96663C8.1614 11.0792 7.58789 12.5415 7.58789 14.1029C7.58789 17.6841 10.5237 20.622 14.1049 20.622ZM15.1929 15.1297C15.7617 14.5299 15.652 13.7162 14.9702 13.2601L12.1436 11.3907C11.674 11.0935 11.1577 11.5526 11.4687 12.0498L13.335 14.8953C13.7772 15.5888 14.6069 15.6964 15.1929 15.1297Z" fill="black"/>
</svg>
