<svg width="43" height="28" viewBox="0 0 43 28" fill="none" xmlns="http://www.w3.org/2000/svg">
<path d="M21.3193 25.5862C27.5607 25.5862 32.6004 20.5368 32.6004 14.305C32.6004 8.0732 27.5607 3.02382 21.3193 3.02382C15.0896 3.02382 10.0381 8.0732 10.0381 14.305C10.0381 20.5368 15.0896 25.5862 21.3193 25.5862ZM21.3193 23.267C16.3683 23.267 12.3668 19.2559 12.3668 14.305C12.3668 9.36366 16.3683 5.36217 21.3193 5.36217C26.2606 5.36217 30.2738 9.36366 30.2738 14.305C30.2738 19.2559 26.2606 23.267 21.3193 23.267ZM11.5442 6.0482C11.7221 6.0482 11.851 6.00249 12.0214 5.87359L16.1497 2.85086C16.3393 2.70062 16.449 2.5164 16.449 2.31086C16.449 2.05633 16.3276 1.84023 16.1136 1.65062C15.6176 1.2257 14.8144 1 14.0682 1C12.1735 1 10.6496 2.49226 10.6496 4.35297C10.6496 4.83203 10.7358 5.27195 10.8594 5.56468C10.9904 5.85226 11.2428 6.0482 11.5442 6.0482ZM31.1082 6.0482C31.4 6.0482 31.6524 5.84054 31.7909 5.56468C31.9261 5.28367 31.9911 4.83203 31.9911 4.35297C31.9911 2.49226 30.4768 1 28.58 1C27.8262 1 27.0305 1.2257 26.5346 1.65062C26.3131 1.84023 26.1896 2.05633 26.1896 2.31086C26.1896 2.5164 26.3014 2.70062 26.5006 2.85086L30.6289 5.87359C30.7993 6.00249 30.9261 6.0482 31.1082 6.0482ZM11.4233 25.393C11.8233 25.791 12.4629 25.7847 12.8705 25.3729L15.1887 23.0706L13.7712 21.6531L11.4329 23.9882C11.0295 24.3798 11.0391 25.0131 11.4233 25.393ZM31.227 25.393C31.609 25.0131 31.6186 24.3798 31.2153 23.9882L28.8769 21.6531L27.4594 23.0706L29.768 25.3729C30.1798 25.7804 30.8152 25.791 31.227 25.393ZM16.2129 15.7513H21.3097C21.829 15.7513 22.2207 15.348 22.2207 14.8382V8.00451C22.2207 7.49686 21.829 7.10522 21.3097 7.10522C20.8116 7.10522 20.4083 7.49686 20.4083 8.00451V13.9389H16.2129C15.7032 13.9389 15.3115 14.3326 15.3115 14.8382C15.3115 15.348 15.7032 15.7513 16.2129 15.7513Z" fill="black"/>
<path d="M8.06 18.9852C8.44766 18.5296 8.29953 17.9643 7.91188 17.4372C7.26359 16.6173 6.92164 15.4923 6.92164 14.3348C6.92164 13.1772 7.26359 12.0405 7.91188 11.2281C8.29742 10.7032 8.44766 10.14 8.06 9.68222C7.64797 9.1905 6.87735 9.18206 6.4018 9.75581C5.39704 10.975 4.83008 12.5973 4.83008 14.3348C4.83008 16.0722 5.39704 17.6945 6.4018 18.9095C6.87735 19.4854 7.64797 19.4673 8.06 18.9852ZM34.5816 18.9852C34.9916 19.4673 35.7643 19.4854 36.2473 18.9095C37.2542 17.6945 37.8191 16.0722 37.8191 14.3348C37.8191 12.5973 37.2542 10.975 36.2473 9.75581C35.7643 9.18206 34.9916 9.1905 34.5816 9.68222C34.194 10.14 34.3517 10.7032 34.7277 11.2281C35.3759 12.0405 35.7275 13.1772 35.7275 14.3348C35.7275 15.4923 35.3759 16.6173 34.7277 17.4372C34.3496 17.9643 34.194 18.5296 34.5816 18.9852Z" fill="black"/>
<path d="M4.64156 22.3441C5.03976 21.8842 4.91624 21.2934 4.47117 20.7897C2.94515 19.0963 2.09156 16.8226 2.09156 14.3348C2.09156 11.849 2.94304 9.57316 4.47117 7.88191C4.91835 7.37824 5.04398 6.78738 4.64156 6.32754C4.23281 5.84004 3.51539 5.82223 2.99836 6.38402C1.09313 8.44067 0 11.2933 0 14.3348C0 17.3805 1.0636 20.2044 2.99836 22.2876C3.51961 22.8473 4.23492 22.8241 4.64156 22.3441ZM37.9978 22.3441C38.4162 22.8241 39.1219 22.8473 39.6527 22.2876C41.5875 20.2044 42.6511 17.3805 42.6511 14.3348C42.6511 11.2933 41.5579 8.44067 39.6527 6.38402C39.1261 5.82223 38.4183 5.84004 37.9978 6.32754C37.6071 6.78738 37.7231 7.37824 38.1799 7.88191C39.7101 9.57527 40.5595 11.849 40.5595 14.3348C40.5595 16.8226 39.7038 19.0963 38.1799 20.7897C37.7252 21.2934 37.6092 21.8842 37.9978 22.3441Z" fill="black"/>
</svg>
