<svg width="28" height="28" viewBox="0 0 28 28" fill="none" xmlns="http://www.w3.org/2000/svg">
<path d="M8.18069 15.5583C7.65077 15.5583 7.24647 15.1541 7.24647 14.6241C7.24647 14.1038 7.65077 13.6995 8.18069 13.6995H13.1708V6.94717C13.1708 6.42475 13.5751 6.02256 14.0954 6.02256C14.6178 6.02256 15.0296 6.42475 15.0296 6.94717V14.6241C15.0296 15.1541 14.6178 15.5583 14.0954 15.5583H8.18069ZM14.105 26.21C20.7369 26.21 26.2121 20.7273 26.2121 14.105C26.2121 7.47312 20.7273 2 14.0954 2C7.47523 2 2 7.47312 2 14.105C2 20.7273 7.48484 26.21 14.105 26.21Z" fill="black"/>
</svg>
