<svg width="28" height="28" viewBox="0 0 28 28" fill="none" xmlns="http://www.w3.org/2000/svg">
<path d="M9.04937 24.8313H18.9444C20.2124 24.8313 20.9938 24.1001 20.9938 22.7681V22.5443C20.9938 19.6547 17.9676 16.6378 16.4282 15.108C15.6334 14.3133 15.6836 13.4444 16.4282 12.6977C17.9676 11.1776 20.9938 8.17452 20.9938 5.26148V5.0707C20.9938 3.74086 20.2124 3 18.9444 3H9.04937C7.7793 3 7 3.74086 7 5.0707V5.26148C7 8.17452 10.0359 11.1776 11.5635 12.6977C12.3198 13.4444 12.37 14.3133 11.5635 15.108C10.0359 16.6378 7 19.6547 7 22.5443V22.7681C7 24.1001 7.7793 24.8313 9.04937 24.8313Z" fill="black"/>
<path d="M10.038 23.0034C9.50455 23.0034 9.35994 22.3816 9.72299 22.0357L13.2946 18.5955C13.4838 18.4139 13.5424 18.3574 13.5424 18.075V13.0966C13.5424 12.5175 13.42 12.2079 12.9963 11.8385C12.2533 11.1979 11.196 10.2602 10.5011 9.5238C10.1732 9.18537 10.3373 8.75342 10.766 8.75342H17.2253C17.6561 8.75342 17.8202 9.18537 17.4923 9.5238C16.807 10.2602 15.7497 11.1979 14.995 11.8385C14.5734 12.2079 14.4606 12.5175 14.4606 13.0966V18.075C14.4606 18.3574 14.5096 18.4139 14.6988 18.5955L18.2704 22.0357C18.6335 22.3816 18.4889 23.0034 17.9554 23.0034H10.038Z" fill="white"/>
</svg>
