<svg width="28" height="28" viewBox="0 0 28 28" fill="none" xmlns="http://www.w3.org/2000/svg">
<path d="M9.04937 24.8313H18.9444C20.2124 24.8313 20.9938 24.1001 20.9938 22.7681V22.5443C20.9938 19.6547 17.9676 16.6378 16.4282 15.108C15.6836 14.3613 15.6334 13.4925 16.4282 12.6977C17.9676 11.1776 20.9938 8.17452 20.9938 5.26148V5.0707C20.9938 3.74086 20.2124 3 18.9444 3H9.04937C7.7793 3 7 3.74086 7 5.0707V5.26148C7 8.17452 10.0359 11.1776 11.5635 12.6977C12.3198 13.4444 12.37 14.3133 11.5635 15.108C10.0359 16.6378 7 19.6547 7 22.5443V22.7681C7 24.1001 7.7793 24.8313 9.04937 24.8313Z" fill="black"/>
<path d="M10.038 23.0034C9.50455 23.0034 9.35994 22.3816 9.72299 22.0357L13.372 18.5182C13.7753 18.1395 14.2352 18.147 14.6193 18.5182L18.2704 22.0357C18.6335 22.3816 18.4889 23.0034 17.9554 23.0034H10.038Z" fill="white"/>
</svg>
