<svg width="28" height="28" viewBox="0 0 28 28" fill="none" xmlns="http://www.w3.org/2000/svg">
<path d="M14.105 26.21C20.7369 26.21 26.2121 20.7273 26.2121 14.105C26.2121 7.47312 20.7273 2 14.0954 2C7.47523 2 2 7.47312 2 14.105C2 20.7273 7.48484 26.21 14.105 26.21Z" fill="black"/>
<path d="M14.1054 20.8773C10.3817 20.8773 7.33105 17.8266 7.33105 14.1029C7.33105 12.4841 7.93011 10.9686 8.89691 9.8145C9.25457 9.3645 9.83887 9.31552 10.205 9.68067C10.5657 10.0329 10.5094 10.5207 10.2125 10.9036C9.49479 11.7788 9.0619 12.8736 9.0619 14.1029C9.0619 16.9231 11.2789 19.1485 14.1054 19.1485C16.9437 19.1485 19.1414 16.9231 19.1414 14.1029C19.1414 11.5095 17.3112 9.43645 14.8296 9.09989V9.99942C14.8296 10.4328 14.5017 10.7895 14.0566 10.7895C13.6041 10.7895 13.2879 10.4328 13.2879 9.99942V8.14622C13.2879 7.66927 13.5879 7.32849 14.115 7.32849C17.8313 7.32849 20.8819 10.3791 20.8819 14.1029C20.8819 17.8266 17.8313 20.8773 14.1054 20.8773ZM15.2348 15.1754C14.6309 15.7676 13.7597 15.6505 13.3036 14.9272L11.3766 11.9794C11.0496 11.4622 11.584 10.9871 12.0834 11.2906L15.0101 13.2303C15.712 13.7002 15.8292 14.548 15.2348 15.1754Z" fill="white"/>
</svg>
