<svg width="28" height="28" viewBox="0 0 28 28" fill="none" xmlns="http://www.w3.org/2000/svg">
<path d="M14.105 26.21C20.7369 26.21 26.2121 20.7273 26.2121 14.105C26.2121 7.47312 20.7273 2 14.0954 2C7.47523 2 2 7.47312 2 14.105C2 20.7273 7.48484 26.21 14.105 26.21Z" fill="black"/>
<path d="M10.9091 21.1449C10.0956 21.1449 9.58984 20.668 9.58984 19.8214V19.67C9.58984 17.8133 11.5427 15.8614 12.5448 14.8613C13.0616 14.3499 13.0328 13.794 12.5448 13.321C11.5427 12.3284 9.58984 10.3829 9.58984 8.50276V8.3844C9.58984 7.52823 10.0956 7.05127 10.9091 7.05127H17.3022C18.1157 7.05127 18.6215 7.52823 18.6215 8.3844V8.50276C18.6215 10.3829 16.6687 12.3284 15.6665 13.321C15.1785 13.794 15.1476 14.3499 15.6665 14.8613C16.6687 15.8614 18.6215 17.8133 18.6215 19.67V19.8214C18.6215 20.668 18.1157 21.1449 17.3022 21.1449H10.9091ZM11.5373 19.9754H16.6741C17.0244 19.9754 17.0999 19.5718 16.8646 19.3599L14.6732 17.1216C14.568 17.008 14.5286 16.9728 14.5286 16.7912V13.5678C14.5286 13.2069 14.6073 13.0217 14.8703 12.7684C15.3618 12.2832 15.9158 11.7505 16.3668 11.2677C16.5787 11.042 16.4732 10.776 16.1933 10.776H12.0276C11.7477 10.776 11.6327 11.042 11.852 11.2677C12.2955 11.7505 12.8495 12.2832 13.3389 12.7684C13.6019 13.0217 13.6806 13.2069 13.6806 13.5678V16.7912C13.6806 16.9728 13.6412 17.008 13.536 17.1216L11.3467 19.3599C11.1114 19.5718 11.1869 19.9754 11.5373 19.9754Z" fill="white"/>
</svg>
