<svg width="28" height="28" viewBox="0 0 28 28" fill="none" xmlns="http://www.w3.org/2000/svg">
<path d="M2.0982 21.0069V24.4163C2.0982 25.9461 2.8475 26.674 4.39648 26.674H8.0389C5.46195 25.4096 3.5075 23.5264 2.0982 21.0069ZM26.1624 21.0069C24.7531 23.5264 22.7987 25.4096 20.2313 26.674H23.8641C25.4131 26.674 26.1624 25.9461 26.1624 24.4163V21.0069ZM14.105 26.4383C20.7369 26.4383 26.2121 20.9555 26.2121 14.3333C26.2121 7.70139 20.7273 2.22827 14.0954 2.22827C7.47523 2.22827 2 7.70139 2 14.3333C2 20.9555 7.48484 26.4383 14.105 26.4383Z" fill="black"/>
<path d="M9.94179 11.7247C9.55132 11.3321 9.56304 10.7405 9.94179 10.3576C10.3302 9.96497 10.9163 9.96286 11.3185 10.3576L14.1085 13.1551L18.8068 8.46309C19.1973 8.07473 19.7717 8.08434 20.1718 8.46309C20.574 8.84395 20.5644 9.46105 20.1718 9.84191L14.8086 15.2147C14.4181 15.6073 13.8149 15.6169 13.4223 15.2147L9.94179 11.7247Z" fill="white"/>
</svg>
