<svg width="28" height="28" viewBox="0 0 28 28" fill="none" xmlns="http://www.w3.org/2000/svg">
<path d="M14.105 26.21C20.7369 26.21 26.2121 20.7273 26.2121 14.105C26.2121 7.47312 20.7273 2 14.0954 2C7.47523 2 2 7.47312 2 14.105C2 20.7273 7.48484 26.21 14.105 26.21ZM14.105 23.8255C8.71085 23.8255 4.39412 19.4991 4.39412 14.105C4.39412 8.71085 8.70124 4.38452 14.0954 4.38452C19.4895 4.38452 23.8276 8.71085 23.8276 14.105C23.8276 19.4991 19.4991 23.8255 14.105 23.8255Z" fill="black"/>
<path d="M10.516 15.5428H17.3073C19.108 15.5428 20.4739 14.1714 20.4739 12.4518C20.4739 10.6757 19.0428 9.37701 17.1781 9.37701C16.4855 8.02372 15.2248 7.16028 13.633 7.16028C11.5561 7.16028 9.85761 8.75263 9.64362 10.8102C8.63581 11.1179 7.8844 11.9863 7.8844 13.1425C7.8844 14.4773 8.86971 15.5428 10.516 15.5428ZM10.1206 17.9931H18.0915C18.3908 17.9931 18.6411 17.7524 18.6411 17.4435C18.6411 17.1442 18.3908 16.9035 18.0915 16.9035H10.1206C9.82128 16.9035 9.58058 17.1442 9.58058 17.4435C9.58058 17.7524 9.82128 17.9931 10.1206 17.9931ZM10.1206 20.3256H18.0915C18.3908 20.3256 18.6411 20.0849 18.6411 19.7835C18.6411 19.4842 18.3908 19.2435 18.0915 19.2435H10.1206C9.82128 19.2435 9.58058 19.4842 9.58058 19.7835C9.58058 20.0849 9.82128 20.3256 10.1206 20.3256Z" fill="black"/>
</svg>
