<svg width="28" height="28" viewBox="0 0 28 28" fill="none" xmlns="http://www.w3.org/2000/svg">
<path d="M14.105 26.21C20.7369 26.21 26.2121 20.7273 26.2121 14.105C26.2121 7.47312 20.7273 2 14.0954 2C7.47523 2 2 7.47312 2 14.105C2 20.7273 7.48484 26.21 14.105 26.21ZM14.105 23.8255C8.71085 23.8255 4.39412 19.4991 4.39412 14.105C4.39412 8.71085 8.70124 4.38452 14.0954 4.38452C19.4895 4.38452 23.8276 8.71085 23.8276 14.105C23.8276 19.4991 19.4991 23.8255 14.105 23.8255Z" fill="black"/>
<path d="M8.93472 18.8591H15.0343C16.6646 18.8591 17.9082 17.6284 17.9082 16.013C17.9082 14.4139 16.6541 13.2174 14.945 13.1769C14.3183 11.998 13.179 11.2194 11.7273 11.2194C9.86166 11.2194 8.30284 12.6505 8.09612 14.4746C7.16917 14.7868 6.52979 15.6083 6.52979 16.6365C6.52979 17.9288 7.5069 18.8591 8.93472 18.8591ZM21.8117 12.8705C21.8117 12.6404 21.718 12.4838 21.5326 12.4838C21.2492 12.4838 20.822 12.8344 20.0398 12.8344C18.6554 12.8387 17.7814 12.0127 17.7814 10.7413C17.7814 9.97627 18.178 9.42643 18.178 9.11963C18.178 8.94174 18.0416 8.82666 17.821 8.82666C16.7136 8.87682 15.2509 10.191 15.0591 11.8787C15.2007 12.0298 15.3242 12.2002 15.4477 12.3706C17.2283 12.5933 18.5602 13.9114 18.7294 15.6259C20.649 15.4004 21.8117 13.8636 21.8117 12.8705Z" fill="black"/>
</svg>
