<svg width="28" height="28" viewBox="0 0 28 28" fill="none" xmlns="http://www.w3.org/2000/svg">
<path d="M14.105 26.21C20.7369 26.21 26.2121 20.7273 26.2121 14.105C26.2121 7.47312 20.7273 2 14.0954 2C7.47523 2 2 7.47312 2 14.105C2 20.7273 7.48484 26.21 14.105 26.21ZM14.105 23.8255C8.71085 23.8255 4.39412 19.4991 4.39412 14.105C4.39412 8.71085 8.70124 4.38452 14.0954 4.38452C19.4895 4.38452 23.8276 8.71085 23.8276 14.105C23.8276 19.4991 19.4991 23.8255 14.105 23.8255Z" fill="black"/>
<path d="M9.13643 16.9376H14.9089C16.4593 16.9376 17.6347 15.7538 17.6347 14.228C17.6347 12.7184 16.4391 11.5806 14.8388 11.5496C14.2376 10.4272 13.1548 9.68376 11.7734 9.68376C10.009 9.68376 8.53222 11.037 8.34472 12.7812C7.46464 13.0796 6.8562 13.8467 6.8562 14.828C6.8562 16.0522 7.77893 16.9376 9.13643 16.9376ZM9.6926 19.3735L10.331 18.2736C10.4621 18.0659 10.3917 17.8018 10.1649 17.6825C9.95721 17.5536 9.69518 17.6335 9.5855 17.8369L8.94495 18.939C8.82565 19.1424 8.88846 19.4183 9.10362 19.528C9.30706 19.6494 9.58292 19.5812 9.6926 19.3735ZM11.1989 20.5988L11.7989 19.5544C11.9182 19.3489 11.8596 19.0773 11.6349 18.9537C11.4197 18.8441 11.1631 18.9027 11.0342 19.1178L10.4246 20.1643C10.3032 20.3794 10.3852 20.6415 10.61 20.7629C10.8059 20.8843 11.0796 20.8044 11.1989 20.5988ZM13.4694 19.3735L14.112 18.2832C14.243 18.0659 14.161 17.8114 13.9437 17.6825C13.7286 17.5632 13.4666 17.6239 13.3451 17.8273L12.7142 18.9294C12.6066 19.1328 12.6556 19.4087 12.8846 19.528C13.0976 19.6398 13.3501 19.5673 13.4694 19.3735ZM14.9492 20.6084L15.563 19.5544C15.6727 19.351 15.6078 19.0677 15.3948 18.9537C15.1796 18.8441 14.9251 18.9144 14.7941 19.1178L14.1823 20.1643C14.063 20.3773 14.143 20.6415 14.3623 20.7629C14.5679 20.8843 14.8299 20.8044 14.9492 20.6084ZM21.3741 11.2187C21.3741 11.0077 21.2825 10.865 21.1088 10.865C20.8468 10.865 20.4216 11.1847 19.6885 11.1847C18.3659 11.1868 17.5388 10.4131 17.5388 9.20024C17.5388 8.48001 17.9258 7.96532 17.9258 7.65852C17.9258 7.49446 17.7894 7.37938 17.5784 7.38899C16.5158 7.42954 15.1351 8.68509 14.9412 10.2833C15.0828 10.4302 15.1946 10.591 15.3181 10.7518C17.0187 10.9627 18.2708 12.2201 18.4475 13.8547C20.2583 13.6238 21.3741 12.1819 21.3741 11.2187Z" fill="black"/>
</svg>
