<svg width="28" height="28" viewBox="0 0 28 28" fill="none" xmlns="http://www.w3.org/2000/svg">
<path d="M14.105 26.2301C20.7369 26.2301 26.2121 20.7549 26.2121 14.123C26.2121 7.50291 20.7273 2.01807 14.0954 2.01807C7.47523 2.01807 2 7.50291 2 14.123C2 20.7549 7.48484 26.2301 14.105 26.2301Z" fill="black"/>
<path d="M7.50145 15.8558C7.07864 15.8558 6.74536 15.5342 6.74536 15.1445C6.74536 14.758 7.07864 14.4364 7.50145 14.4364H8.94075C9.37739 14.4364 9.72567 14.7484 9.72567 15.1445C9.72567 15.5438 9.387 15.8558 8.94075 15.8558H7.50145ZM9.96497 12.2337L8.93935 11.2124C8.62622 10.8992 8.62833 10.4692 8.8913 10.1795C9.17349 9.91651 9.60895 9.87807 9.91997 10.2029L10.9648 11.2478C11.2683 11.5417 11.2876 11.9943 10.9979 12.286C10.7136 12.5586 10.261 12.5373 9.96497 12.2337ZM17.2046 12.286C16.9149 11.9943 16.9149 11.563 17.2259 11.2478L18.2708 10.2029C18.5647 9.88768 19.029 9.89729 19.3112 10.1795C19.5741 10.4692 19.5666 10.8992 19.2514 11.2124L18.2354 12.2337C17.9319 12.5469 17.4889 12.549 17.2046 12.286ZM19.2521 15.8558C18.8197 15.8558 18.4747 15.5438 18.4747 15.1445C18.4747 14.7484 18.8197 14.4364 19.2521 14.4364H20.6989C21.1238 14.4364 21.4475 14.758 21.4475 15.1445C21.4475 15.5342 21.1238 15.8558 20.6989 15.8558H19.2521ZM17.6382 15.3697C17.6382 15.7152 17.5709 16.067 17.4664 16.3965H10.7265C10.6219 16.067 10.5526 15.7152 10.5526 15.3697C10.5526 13.4166 12.1658 11.8173 14.0954 11.8173C16.0367 11.8173 17.6382 13.4166 17.6382 15.3697ZM7.52348 18.7609C7.11801 18.7609 6.74536 18.4332 6.74536 18.017C6.74536 17.6082 7.10419 17.2805 7.52348 17.2805H20.6769C21.0983 17.2805 21.4475 17.6061 21.4475 18.017C21.4475 18.4353 21.0887 18.7609 20.6769 18.7609H7.52348ZM14.8088 9.88956C14.8088 10.3103 14.4873 10.6628 14.0954 10.6628C13.7035 10.6628 13.3916 10.3103 13.3916 9.88956V8.44814C13.3916 8.0019 13.7131 7.68994 14.0954 7.68994C14.4776 7.68994 14.8088 8.0019 14.8088 8.44814V9.88956Z" fill="white"/>
</svg>
