<svg width="28" height="28" viewBox="0 0 28 28" fill="none" xmlns="http://www.w3.org/2000/svg">
<path d="M14.105 26.21C20.7369 26.21 26.2121 20.7273 26.2121 14.105C26.2121 7.47312 20.7273 2 14.0954 2C7.47523 2 2 7.47312 2 14.105C2 20.7273 7.48484 26.21 14.105 26.21ZM14.105 23.8255C8.71085 23.8255 4.39412 19.4991 4.39412 14.105C4.39412 8.71085 8.70124 4.38452 14.0954 4.38452C19.4895 4.38452 23.8276 8.71085 23.8276 14.105C23.8276 19.4991 19.4991 23.8255 14.105 23.8255Z" fill="black"/>
<path d="M10.7129 15.2131H17.5041C19.3027 15.2131 20.6708 13.8301 20.6708 12.1201C20.6708 10.3344 19.2397 9.0357 17.3729 9.0357C16.6824 7.68241 15.4217 6.83069 13.8298 6.83069C11.7531 6.83069 10.0545 8.42093 9.83844 10.4689C8.83273 10.7883 8.09094 11.645 8.09094 12.8108C8.09094 14.1477 9.06664 15.2131 10.7129 15.2131ZM11.4582 18.1827L12.0912 17.0914C12.2244 16.8411 12.1519 16.4949 11.8803 16.3405C11.6258 16.1956 11.2892 16.3011 11.1465 16.5514L10.5134 17.6427C10.3803 17.8834 10.4506 18.2391 10.7169 18.384C10.9789 18.5384 11.3155 18.433 11.4582 18.1827ZM14.5594 18.1869L15.1925 17.0977C15.3331 16.8474 15.2628 16.5012 14.9912 16.3468C14.7345 16.2019 14.3884 16.3074 14.2573 16.5577L13.6222 17.6469C13.4816 17.8876 13.5519 18.2434 13.8277 18.3882C14.0801 18.5427 14.4263 18.4372 14.5594 18.1869ZM17.6586 18.1827L18.2916 17.0914C18.4248 16.8411 18.3545 16.4949 18.0903 16.3405C17.8262 16.1956 17.4896 16.3011 17.3469 16.5514L16.7138 17.6427C16.5807 17.8834 16.6531 18.2391 16.9173 18.384C17.1814 18.5384 17.5159 18.433 17.6586 18.1827ZM10.0372 20.9445C10.1959 20.9445 10.3248 20.8072 10.3088 20.6293L10.2673 20.1849L10.6318 20.4406C10.7649 20.5311 10.9524 20.4809 11.0345 20.3649C11.1207 20.2276 11.0963 20.0166 10.9088 19.9292L10.5092 19.7619L10.9109 19.5636C11.0771 19.4858 11.1207 19.3037 11.0558 19.1705C10.9716 19.0182 10.7628 18.9948 10.6318 19.081L10.2673 19.325L10.3088 18.8966C10.3248 18.7048 10.1959 18.5675 10.0372 18.5675C9.84758 18.5675 9.72617 18.7145 9.74211 18.8966L9.77187 19.325L9.41164 19.081C9.29023 18.9927 9.0889 19.0086 9.00476 19.1588C8.93984 19.2748 8.95461 19.4933 9.14211 19.5753L9.52461 19.7598L9.14 19.9313C8.95461 20.0209 8.9089 20.2084 8.99515 20.3457C9.07929 20.5098 9.28062 20.5311 9.41164 20.4406L9.77187 20.187L9.75172 20.6293C9.7475 20.7976 9.84758 20.9445 10.0372 20.9445ZM13.1363 20.9509C13.2971 20.9509 13.426 20.8135 13.4101 20.6335L13.3761 20.1891L13.7309 20.4448C13.8662 20.5332 14.0633 20.4852 14.1357 20.3691C14.2316 20.2318 14.1976 20.0209 14.008 19.9334L13.6201 19.7682L14.0101 19.5699C14.188 19.49 14.2219 19.31 14.1549 19.1748C14.0825 19.0224 13.8641 19.0011 13.7309 19.0873L13.3761 19.3313L13.4101 18.9008C13.426 18.7091 13.2971 18.5717 13.1363 18.5717C12.9584 18.5717 12.8253 18.7187 12.8434 18.9008L12.8827 19.3313L12.5129 19.0873C12.3894 18.999 12.1998 19.0128 12.1156 19.1652C12.039 19.2791 12.0634 19.4975 12.2434 19.5795L12.6334 19.764L12.2412 19.9355C12.0634 20.023 12.0198 20.2126 12.0964 20.3499C12.1784 20.514 12.3798 20.5374 12.5129 20.4448L12.8827 20.1912L12.853 20.6335C12.8445 20.8039 12.9584 20.9509 13.1363 20.9509ZM16.2376 20.9445C16.3962 20.9445 16.5273 20.8072 16.5092 20.6293L16.4773 20.1849L16.8322 20.4406C16.9674 20.5311 17.1528 20.4809 17.237 20.3649C17.3328 20.2276 17.2967 20.0166 17.1092 19.9292L16.7096 19.7619L17.1113 19.5636C17.2775 19.4858 17.3232 19.3037 17.2562 19.1705C17.172 19.0182 16.9653 18.9948 16.8322 19.081L16.4773 19.325L16.5092 18.8966C16.5273 18.7048 16.3962 18.5675 16.2376 18.5675C16.048 18.5675 15.9287 18.7145 15.9425 18.8966L15.9723 19.325L15.6141 19.081C15.4906 18.9927 15.2893 19.0086 15.2052 19.1588C15.1402 19.2748 15.155 19.4933 15.3425 19.5753L15.725 19.7598L15.3404 19.9313C15.155 20.0209 15.1114 20.2084 15.1955 20.3457C15.2797 20.5098 15.481 20.5311 15.6141 20.4406L15.9723 20.187L15.9521 20.6293C15.9479 20.7976 16.048 20.9445 16.2376 20.9445Z" fill="black"/>
</svg>
