<svg width="28" height="28" viewBox="0 0 28 28" fill="none" xmlns="http://www.w3.org/2000/svg">
<path d="M14.105 26.21C20.7369 26.21 26.2121 20.7273 26.2121 14.105C26.2121 7.47312 20.7273 2 14.0954 2C7.47523 2 2 7.47312 2 14.105C2 20.7273 7.48484 26.21 14.105 26.21ZM14.105 23.8255C8.71085 23.8255 4.39412 19.4991 4.39412 14.105C4.39412 8.71085 8.70124 4.38452 14.0954 4.38452C19.4895 4.38452 23.8276 8.71085 23.8276 14.105C23.8276 19.4991 19.4991 23.8255 14.105 23.8255Z" fill="black"/>
<path d="M10.437 15.6584H17.2379C19.029 15.6584 20.4045 14.2775 20.4045 12.5675C20.4045 10.7914 18.9755 9.48312 17.1087 9.48312C16.4087 8.12773 15.1459 7.276 13.554 7.276C11.4868 7.276 9.78076 8.86835 9.56467 10.9259C8.55686 11.2337 7.81506 12.102 7.81506 13.2582C7.81506 14.593 8.79076 15.6584 10.437 15.6584ZM10.7612 18.9266L11.5573 17.5484C11.7118 17.2939 11.6276 16.9519 11.356 16.8071C11.0994 16.6527 10.767 16.7443 10.6222 17.0084L9.826 18.377C9.67154 18.6411 9.75568 18.983 10.0294 19.1279C10.284 19.2823 10.6163 19.1907 10.7612 18.9266ZM12.7098 20.6019L13.5038 19.2334C13.6583 18.9692 13.5741 18.6369 13.3025 18.4824C13.048 18.3376 12.7135 18.4292 12.5687 18.6837L11.765 20.0619C11.618 20.3239 11.7022 20.6584 11.978 20.8128C12.2305 20.9577 12.5553 20.866 12.7098 20.6019ZM15.6612 18.917L16.4553 17.5388C16.6098 17.2843 16.5256 16.9423 16.254 16.7975C15.9994 16.643 15.665 16.7347 15.5202 16.9988L14.724 18.3673C14.5695 18.6294 14.6537 18.9734 14.9295 19.1183C15.1819 19.2727 15.5164 19.179 15.6612 18.917ZM17.5824 20.6019L18.3882 19.2334C18.533 18.9692 18.4489 18.6369 18.1773 18.4824C17.9206 18.3376 17.5883 18.4292 17.4434 18.6837L16.6473 20.0619C16.4928 20.3239 16.5769 20.6584 16.8507 20.8128C17.1052 20.9577 17.4376 20.866 17.5824 20.6019Z" fill="black"/>
</svg>
