<svg width="28" height="28" viewBox="0 0 28 28" fill="none" xmlns="http://www.w3.org/2000/svg">
<path d="M14.105 26.21C20.7369 26.21 26.2121 20.7273 26.2121 14.105C26.2121 7.47312 20.7273 2 14.0954 2C7.47523 2 2 7.47312 2 14.105C2 20.7273 7.48484 26.21 14.105 26.21ZM14.105 23.8255C8.71085 23.8255 4.39412 19.4991 4.39412 14.105C4.39412 8.71085 8.70124 4.38452 14.0954 4.38452C19.4895 4.38452 23.8276 8.71085 23.8276 14.105C23.8276 19.4991 19.4991 23.8255 14.105 23.8255Z" fill="black"/>
<path d="M14.0955 17.5693C15.9869 17.5693 17.5565 15.9922 17.5565 14.0912C17.5565 12.1998 15.9869 10.6206 14.0955 10.6206C12.1945 10.6206 10.6269 12.1998 10.6269 14.0912C10.6269 15.9922 12.1945 17.5693 14.0955 17.5693ZM14.0955 6.8136C13.6813 6.8136 13.3321 7.16282 13.3321 7.57485V8.89462C13.3321 9.30876 13.6813 9.66009 14.0955 9.66009C14.5117 9.66009 14.8706 9.30876 14.8706 8.89462V7.57485C14.8706 7.16282 14.5117 6.8136 14.0955 6.8136ZM19.2431 8.9436C18.9449 8.64759 18.4467 8.65931 18.1678 8.94571L17.2232 9.90408C16.9272 10.2139 16.9347 10.6866 17.2274 10.9698C17.5138 11.2679 18.01 11.2616 18.3103 10.9656L19.2473 10.0306C19.5433 9.73251 19.5316 9.24173 19.2431 8.9436ZM21.3677 14.0912C21.3677 13.677 21.0163 13.3257 20.6043 13.3257H19.2846C18.8725 13.3257 18.5212 13.6866 18.5212 14.0912C18.5212 14.5032 18.8725 14.8641 19.2846 14.8641H20.6043C21.0163 14.8641 21.3677 14.5128 21.3677 14.0912ZM19.2473 19.242C19.5454 18.9364 19.5433 18.4381 19.2452 18.1592L18.2985 17.2147C18.01 16.9358 17.5117 16.9262 17.2232 17.2168C16.923 17.5224 16.9272 18.0057 17.2274 18.3017L18.1741 19.2462C18.4605 19.5305 18.9492 19.5284 19.2473 19.242ZM14.0955 21.3784C14.5117 21.3784 14.8706 21.0195 14.8706 20.6054V19.2877C14.8706 18.8811 14.5117 18.5202 14.0955 18.5202C13.6813 18.5202 13.3321 18.8811 13.3321 19.2877V20.6054C13.3321 21.0195 13.6813 21.3784 14.0955 21.3784ZM8.93613 19.2324C9.23637 19.5305 9.73254 19.5348 10.0211 19.2462L10.9677 18.3017C11.2583 18.0111 11.2604 17.5299 10.9698 17.2168C10.6813 16.9358 10.1713 16.9262 9.88489 17.2147L8.93824 18.1592C8.64973 18.4456 8.64762 18.9385 8.93613 19.2324ZM6.83496 14.0912C6.83496 14.5128 7.17457 14.8641 7.58871 14.8641H8.90637C9.32262 14.8641 9.67394 14.5032 9.67394 14.0912C9.67394 13.6866 9.32262 13.3257 8.90637 13.3257H7.58871C7.17457 13.3257 6.83496 13.677 6.83496 14.0912ZM8.95957 8.9436C8.67317 9.24173 8.64973 9.73251 8.94785 10.0306L9.88278 10.9656C10.1788 11.2616 10.6696 11.27 10.9677 10.9698C11.2583 10.677 11.2583 10.1905 10.9698 9.90408L10.0253 8.94571C9.74848 8.66892 9.2598 8.6572 8.95957 8.9436Z" fill="black"/>
</svg>
