<svg width="28" height="28" viewBox="0 0 28 28" fill="none" xmlns="http://www.w3.org/2000/svg">
<path d="M14.105 26.21C20.7369 26.21 26.2121 20.7273 26.2121 14.105C26.2121 7.47312 20.7273 2 14.0954 2C7.47523 2 2 7.47312 2 14.105C2 20.7273 7.48484 26.21 14.105 26.21ZM14.105 23.8255C8.71085 23.8255 4.39412 19.4991 4.39412 14.105C4.39412 8.71085 8.70124 4.38452 14.0954 4.38452C19.4895 4.38452 23.8276 8.71085 23.8276 14.105C23.8276 19.4991 19.4991 23.8255 14.105 23.8255Z" fill="black"/>
<path d="M10.437 15.7313H17.2379C19.029 15.7313 20.4045 14.3504 20.4045 12.6404C20.4045 10.8643 18.9755 9.55599 17.1087 9.55599C16.4087 8.20271 15.1459 7.34888 13.554 7.34888C11.4868 7.34888 9.78076 8.94122 9.56467 10.9988C8.55686 11.3065 7.81506 12.1749 7.81506 13.3311C7.81506 14.6659 8.79076 15.7313 10.437 15.7313ZM10.0852 20.1648C10.2875 20.1648 10.4248 19.9784 10.4047 19.7762L10.359 19.1005L10.9079 19.4926C11.0729 19.6107 11.3019 19.5563 11.3998 19.403C11.5212 19.2455 11.4542 18.9931 11.2327 18.8994L10.6348 18.6179L11.2348 18.3151C11.4425 18.2117 11.502 18.0073 11.4094 17.8348C11.3211 17.6623 11.0687 17.6251 10.9079 17.7336L10.359 18.129L10.4047 17.4596C10.4248 17.2381 10.2875 17.0689 10.0852 17.0689C9.86584 17.0689 9.71889 17.2381 9.73482 17.45L9.79013 18.129L9.22412 17.7315C9.07295 17.6251 8.83974 17.6527 8.75138 17.8348C8.64709 17.9881 8.69912 18.2096 8.90677 18.3247L9.50678 18.6158L8.90467 18.9015C8.68951 18.9952 8.64709 19.2263 8.73217 19.3955C8.82263 19.5755 9.06334 19.6107 9.22412 19.4926L9.79013 19.1026L9.74443 19.7762C9.72849 19.9784 9.86584 20.1648 10.0852 20.1648ZM13.8701 20.1648C14.0724 20.1648 14.2098 19.9784 14.1896 19.7762L14.1439 19.1005L14.6928 19.4926C14.8482 19.6107 15.0868 19.5563 15.1848 19.403C15.3062 19.2455 15.2391 18.9931 15.0176 18.8994L14.4198 18.6179L15.0198 18.3151C15.2274 18.2117 15.2869 18.0073 15.1944 17.8348C15.106 17.6623 14.8536 17.6251 14.6928 17.7336L14.1439 18.129L14.1896 17.4596C14.2098 17.2381 14.0724 17.0689 13.8701 17.0689C13.6508 17.0689 13.5038 17.2381 13.5198 17.45L13.5751 18.129L13.0091 17.7315C12.8579 17.6251 12.6247 17.6527 12.5363 17.8348C12.432 17.9881 12.4841 18.2096 12.6917 18.3247L13.2917 18.6158L12.6896 18.9015C12.4744 18.9952 12.432 19.2263 12.5171 19.3955C12.6076 19.5755 12.8483 19.6107 13.0091 19.4926L13.5751 19.1026L13.5294 19.7762C13.5134 19.9784 13.6508 20.1648 13.8701 20.1648ZM17.6455 20.1648C17.8573 20.1648 17.9947 19.9784 17.9745 19.7762L17.9288 19.1005L18.4777 19.4926C18.6331 19.6086 18.8717 19.5563 18.9697 19.403C19.0815 19.2455 19.0219 18.9931 18.8026 18.8994L18.2047 18.6179L18.8047 18.3151C19.0123 18.2117 19.0719 18.0073 18.9793 17.8348C18.8813 17.6623 18.6385 17.6251 18.4777 17.7336L17.9288 18.129L17.9745 17.4596C17.9947 17.2381 17.8573 17.0689 17.6455 17.0689C17.4357 17.0689 17.2845 17.2381 17.3047 17.45L17.3579 18.129L16.794 17.7315C16.6428 17.6251 16.4096 17.6527 16.3116 17.8348C16.2169 17.9881 16.2594 18.2096 16.4766 18.3247L17.0766 18.6158L16.4745 18.9015C16.2594 18.9952 16.2169 19.2263 16.2999 19.3955C16.3925 19.5755 16.6332 19.6107 16.794 19.4926L17.3579 19.1026L17.3143 19.7762C17.2941 19.9784 17.4357 20.1648 17.6455 20.1648Z" fill="black"/>
</svg>
