<svg width="29" height="28" viewBox="0 0 29 28" fill="none" xmlns="http://www.w3.org/2000/svg">
<path d="M9.10664 24.9121H23.6393C26.7009 24.9121 28.8028 22.7385 28.8028 19.9722C28.8028 17.6277 27.1748 15.651 24.956 15.1319C24.7043 12.2303 22.3005 9.91 19.3319 9.91C17.4197 9.91 15.7399 10.8381 14.7005 12.3391C14.224 12.1961 13.7817 12.1225 13.2776 12.1225C11.0002 12.1225 9.08742 13.7547 8.68547 15.9503C6.31336 16.105 4.47352 18.0541 4.47352 20.4058C4.47352 22.9314 6.35273 24.9121 9.10664 24.9121ZM3.24704 18.6463C3.81657 16.3537 5.41477 14.9015 7.51337 14.5157C8.38266 11.7939 10.7077 10.3799 13.3439 10.3799C13.6622 10.3799 13.9612 10.4151 14.2369 10.4523C15.307 8.83844 17.0271 8.095 19.1555 8.15617C18.6937 7.06656 17.4213 6.17336 15.5991 6.17336C15.0567 6.17336 14.603 6.27461 14.1129 6.42273C13.0268 4.8932 11.3894 4 9.49968 4C6.55031 4 4.09851 6.3107 3.8468 9.21437C1.61297 9.74851 0 11.7177 0 14.0526C0 16.0581 1.11891 17.8267 3.24704 18.6463Z" fill="black"/>
</svg>
