<svg width="28" height="28" viewBox="0 0 28 28" fill="none" xmlns="http://www.w3.org/2000/svg">
<path d="M14.105 26.21C20.7369 26.21 26.2121 20.7273 26.2121 14.105C26.2121 7.47312 20.7273 2 14.0954 2C7.47523 2 2 7.47312 2 14.105C2 20.7273 7.48484 26.21 14.105 26.21ZM14.105 23.8255C8.71085 23.8255 4.39412 19.4991 4.39412 14.105C4.39412 8.71085 8.70124 4.38452 14.0954 4.38452C19.4895 4.38452 23.8276 8.71085 23.8276 14.105C23.8276 19.4991 19.4991 23.8255 14.105 23.8255Z" fill="black"/>
<path d="M7.77847 12.2319C8.75558 11.9164 9.75941 11.7608 10.744 11.7608C12.0026 11.7608 12.9404 11.9633 14.153 11.9633C15.4775 11.9633 16.3435 11.0459 16.3435 9.85061C16.3435 8.62858 15.4048 7.74756 14.2405 7.74756C13.3826 7.74756 12.6315 8.28147 12.328 8.98787C12.1768 9.28811 12.2375 9.67154 12.5794 9.83654C12.8818 9.99404 13.2544 9.88975 13.4387 9.51381C13.573 9.21521 13.8683 8.99232 14.2405 8.99232C14.7341 8.99232 15.0912 9.30686 15.0912 9.85061C15.0912 10.3965 14.7437 10.7206 14.153 10.7206C13.017 10.7206 12.0634 10.5085 10.744 10.5085C9.6134 10.5085 8.4434 10.7281 7.39504 11.0457C7.00738 11.1533 6.83816 11.5079 6.94574 11.8294C7.04582 12.1669 7.38871 12.3629 7.77847 12.2319ZM18.5666 15.5389C20.2777 15.5389 21.4955 14.4341 21.4955 12.9041C21.4955 11.405 20.3288 10.3001 18.882 10.3001C17.5988 10.3001 16.5802 11.1966 16.3824 12.3786C16.3048 12.7599 16.5266 13.0899 16.8481 13.1462C17.1868 13.2141 17.5231 13.0128 17.6124 12.5963C17.7338 11.9736 18.2455 11.5524 18.882 11.5524C19.6602 11.5524 20.2433 12.0854 20.2433 12.9041C20.2433 13.7462 19.6091 14.2866 18.5666 14.2866C16.4907 14.2866 14.2126 13.0782 11.409 13.0782C9.98207 13.0782 8.63207 13.3255 7.38121 13.7464C7.01699 13.8774 6.83816 14.2203 6.94574 14.5419C7.03832 14.8794 7.38543 15.0732 7.7848 14.938C8.90043 14.5212 10.0608 14.3305 11.409 14.3305C14.1317 14.3305 16.1947 15.5389 18.5666 15.5389ZM14.1627 20.454C15.3111 20.454 16.2284 19.5847 16.2284 18.3744C16.2284 16.6121 14.4502 15.6575 11.292 15.6575C10.0154 15.6575 8.58847 15.8994 7.38121 16.3161C7.0266 16.4471 6.83816 16.7921 6.94574 17.0902C7.03832 17.4298 7.38543 17.6429 7.7848 17.5076C8.86433 17.1144 10.0664 16.8926 11.292 16.8926C13.7316 16.8926 14.9741 17.4704 14.9741 18.3744C14.9741 18.916 14.6211 19.2092 14.1627 19.2092C13.6955 19.2092 13.4525 18.9383 13.3545 18.436C13.2823 18.1006 13.0046 17.833 12.6254 17.8955C12.1981 17.9464 12.05 18.3341 12.1222 18.6908C12.2891 19.6768 13.0594 20.454 14.1627 20.454Z" fill="black"/>
</svg>
