<svg width="28" height="29" viewBox="0 0 28 29" fill="none" xmlns="http://www.w3.org/2000/svg">
<path d="M8.55446 17.5006H11.8959C10.3244 16.8874 9.18984 15.3295 9.18984 13.5192C9.18984 11.134 11.1424 9.1814 13.5234 9.1814C15.9045 9.1814 17.857 11.134 17.857 13.5192C17.857 15.3295 16.7224 16.8874 15.1509 17.5006H18.4828C19.41 16.418 19.9441 15.0251 19.9441 13.5192C19.9441 9.99094 17.0304 7.08469 13.5234 7.08469C10.0069 7.08469 7.10273 9.98883 7.10273 13.5192C7.10273 15.0251 7.63899 16.418 8.55446 17.5006ZM1.12101 14.208L3.83719 14.2102C4.48453 14.2102 4.97742 13.7461 4.96781 13.1702C4.9582 12.6061 4.48453 12.1345 3.83719 12.1345H1.12101C0.477889 12.1345 0 12.5965 0 13.1702C0 13.7461 0.479998 14.208 1.12101 14.208ZM7.47023 7.47023C7.86726 7.06149 7.86516 6.39305 7.40836 5.93625L5.48531 4.01742C5.0264 3.55641 4.36969 3.56391 3.96094 3.96305C3.5543 4.36008 3.5543 5.02851 4.0132 5.48953L5.93625 7.40625C6.39305 7.86305 7.0711 7.87898 7.47023 7.47023ZM13.5234 4.96992C14.0972 4.96031 14.5612 4.47281 14.5612 3.8393V1.12101C14.5612 0.47578 14.0972 0 13.5234 0C12.9476 0 12.4856 0.47578 12.4856 1.12101V3.8393C12.4856 4.47281 12.9476 4.97953 13.5234 4.96992ZM19.5766 7.47023C19.9758 7.86937 20.6538 7.86305 21.1106 7.40625L23.0337 5.48953C23.4926 5.02851 23.483 4.36969 23.0742 3.96305C22.6868 3.5543 22.0205 3.55641 21.552 4.01742L19.6289 5.93625C19.1817 6.39305 19.1679 7.0732 19.5766 7.47023ZM23.2097 14.208L25.9259 14.2102C26.5711 14.2102 27.0469 13.7461 27.0469 13.1702C27.0469 12.6061 26.5711 12.1345 25.9259 12.1345H23.2097C22.5645 12.1345 22.0673 12.5965 22.0791 13.1702C22.0887 13.7461 22.5666 14.208 23.2097 14.208Z" fill="black"/>
<path d="M1.66127 18.7402H25.3376C25.7932 18.7402 26.137 18.4027 26.137 17.9534C26.137 17.5041 25.7932 17.1666 25.3376 17.1666H1.66127C1.21314 17.1666 0.85971 17.5041 0.85971 17.9534C0.85971 18.4027 1.21314 18.7402 1.66127 18.7402ZM2.64846 22.5337C2.98385 22.5337 3.26603 22.2516 3.26603 21.9023C3.26603 21.5573 2.98385 21.2752 2.64846 21.2752C2.28963 21.2752 2.01705 21.5573 2.01705 21.9023C2.01705 22.2516 2.28963 22.5337 2.64846 22.5337ZM7.59377 22.5337C7.94088 22.5337 8.22307 22.2516 8.22307 21.9023C8.22307 21.5573 7.94088 21.2752 7.59377 21.2752C7.24666 21.2752 6.96447 21.5573 6.96447 21.9023C6.96447 22.2516 7.24666 22.5337 7.59377 22.5337ZM12.5508 22.5337C12.8862 22.5337 13.1684 22.2516 13.1684 21.9023C13.1684 21.5573 12.8862 21.2752 12.5508 21.2752C12.192 21.2752 11.9194 21.5573 11.9194 21.9023C11.9194 22.2516 12.192 22.5337 12.5508 22.5337ZM17.4961 22.5337C17.8432 22.5337 18.1254 22.2516 18.1254 21.9023C18.1254 21.5573 17.8432 21.2752 17.4961 21.2752C17.149 21.2752 16.8668 21.5573 16.8668 21.9023C16.8668 22.2516 17.149 22.5337 17.4961 22.5337ZM22.4531 22.5337C22.7885 22.5337 23.0707 22.2516 23.0707 21.9023C23.0707 21.5573 22.7885 21.2752 22.4531 21.2752C22.0943 21.2752 21.8217 21.5573 21.8217 21.9023C21.8217 22.2516 22.0943 22.5337 22.4531 22.5337ZM1.14846 25.3793C1.49557 25.3793 1.77775 25.0971 1.77775 24.7404C1.77775 24.4029 1.49557 24.1207 1.14846 24.1207C0.801352 24.1207 0.519165 24.4029 0.519165 24.7404C0.519165 25.0971 0.801352 25.3793 1.14846 25.3793ZM6.10549 25.3793C6.44088 25.3793 6.72307 25.0971 6.72307 24.7404C6.72307 24.4029 6.44088 24.1207 6.10549 24.1207C5.74666 24.1207 5.46447 24.4029 5.46447 24.7404C5.46447 25.0971 5.74666 25.3793 6.10549 25.3793ZM11.0508 25.3793C11.3979 25.3793 11.6801 25.0971 11.6801 24.7404C11.6801 24.4029 11.3979 24.1207 11.0508 24.1207C10.7037 24.1207 10.4215 24.4029 10.4215 24.7404C10.4215 25.0971 10.7037 25.3793 11.0508 25.3793ZM16.0078 25.3793C16.3432 25.3793 16.6254 25.0971 16.6254 24.7404C16.6254 24.4029 16.3432 24.1207 16.0078 24.1207C15.649 24.1207 15.3668 24.4029 15.3668 24.7404C15.3668 25.0971 15.649 25.3793 16.0078 25.3793ZM20.9531 25.3793C21.3002 25.3793 21.5824 25.0971 21.5824 24.7404C21.5824 24.4029 21.3002 24.1207 20.9531 24.1207C20.606 24.1207 20.3238 24.4029 20.3238 24.7404C20.3238 25.0971 20.606 25.3793 20.9531 25.3793ZM25.9102 25.3793C26.2455 25.3793 26.5277 25.0971 26.5277 24.7404C26.5277 24.4029 26.2455 24.1207 25.9102 24.1207C25.5513 24.1207 25.2691 24.4029 25.2691 24.7404C25.2691 25.0971 25.5513 25.3793 25.9102 25.3793ZM4.60549 28.2035C4.9526 28.2035 5.22307 27.9213 5.22307 27.5646C5.22307 27.2271 4.9526 26.947 4.60549 26.947C4.24666 26.947 3.97619 27.2271 3.97619 27.5646C3.97619 27.9213 4.24666 28.2035 4.60549 28.2035ZM9.56252 28.2035C9.89791 28.2035 10.1801 27.9213 10.1801 27.5646C10.1801 27.2271 9.89791 26.947 9.56252 26.947C9.20369 26.947 8.92151 27.2271 8.92151 27.5646C8.92151 27.9213 9.20369 28.2035 9.56252 28.2035ZM14.5078 28.2035C14.8528 28.2035 15.1254 27.9213 15.1254 27.5646C15.1254 27.2271 14.8528 26.947 14.5078 26.947C14.149 26.947 13.8785 27.2271 13.8785 27.5646C13.8785 27.9213 14.149 28.2035 14.5078 28.2035ZM19.4648 28.2035C19.8002 28.2035 20.0824 27.9213 20.0824 27.5646C20.0824 27.2271 19.8002 26.947 19.4648 26.947C19.106 26.947 18.8238 27.2271 18.8238 27.5646C18.8238 27.9213 19.106 28.2035 19.4648 28.2035ZM24.4102 28.2035C24.7552 28.2035 25.0277 27.9213 25.0277 27.5646C25.0277 27.2271 24.7552 26.947 24.4102 26.947C24.0513 26.947 23.7809 27.2271 23.7809 27.5646C23.7809 27.9213 24.0513 28.2035 24.4102 28.2035Z" fill="black"/>
</svg>
