<svg width="28" height="28" viewBox="0 0 28 28" fill="none" xmlns="http://www.w3.org/2000/svg">
<path d="M14.105 26.2301C20.7369 26.2301 26.2121 20.7549 26.2121 14.123C26.2121 7.50291 20.7273 2.01807 14.0954 2.01807C7.47523 2.01807 2 7.50291 2 14.123C2 20.7549 7.48484 26.2301 14.105 26.2301Z" fill="black"/>
<path d="M8.3426 19.152C6.8583 19.152 5.84814 18.1887 5.84814 16.8591C5.84814 15.8054 6.52267 14.9509 7.47306 14.6408C7.67978 12.7463 9.28549 11.2684 11.2097 11.2684C12.718 11.2684 13.8828 12.0821 14.5309 13.2941C16.2868 13.325 17.5761 14.5662 17.5761 16.2123C17.5761 17.8766 16.3069 19.152 14.6223 19.152H8.3426ZM13.3665 10.7274L12.5253 9.87242C12.3176 9.63172 12.305 9.24406 12.5232 9.02258C12.748 8.80531 13.1239 8.8032 13.373 9.02258L14.2355 9.8818C14.439 10.1012 14.4357 10.4909 14.2355 10.7199C13.9948 10.9351 13.5934 10.9585 13.3665 10.7274ZM16.7802 9.65117C16.4532 9.65117 16.1773 9.37742 16.1773 9.05797V7.85539C16.1773 7.51461 16.4532 7.25586 16.7802 7.25586C17.1188 7.25586 17.3809 7.51461 17.3809 7.85539V9.05797C17.3809 9.37742 17.1188 9.65117 16.7802 9.65117ZM19.3524 10.7199C19.1267 10.4909 19.1192 10.1012 19.3524 9.87969L20.1936 9.02469C20.4343 8.79359 20.8241 8.8032 21.0509 9.02469C21.2745 9.25367 21.2724 9.63383 21.0488 9.87453L20.2055 10.7295C19.9883 10.9585 19.5793 10.9351 19.3524 10.7199ZM21.0198 13.8769C20.6832 13.8769 20.4148 13.6107 20.4148 13.2837C20.4148 12.9472 20.6832 12.6884 21.0198 12.6884H22.1956C22.5343 12.6884 22.7963 12.9472 22.7963 13.2837C22.7963 13.6107 22.5343 13.8769 22.1956 13.8769H21.0198ZM20.1936 17.5566L19.3503 16.7112C19.1171 16.4684 19.1246 16.0904 19.3482 15.8656C19.5868 15.6345 19.9766 15.6366 20.2098 15.8677L21.0488 16.6972C21.282 16.9187 21.2724 17.3117 21.0509 17.5449C20.822 17.776 20.4343 17.7952 20.1936 17.5566ZM19.7115 13.2837C19.7115 14.2609 19.2298 15.1421 18.4433 15.6856C18.2305 13.9679 16.858 12.6699 15.0624 12.4355C14.8695 12.1297 14.6448 11.8665 14.3794 11.6321C14.8899 10.8638 15.7796 10.3662 16.7823 10.3662C18.4051 10.3662 19.7115 11.6459 19.7115 13.2837Z" fill="white"/>
</svg>
