<svg width="28" height="28" viewBox="0 0 28 28" fill="none" xmlns="http://www.w3.org/2000/svg">
<path d="M14.105 26.2301C20.7369 26.2301 26.2121 20.7549 26.2121 14.123C26.2121 7.50291 20.7273 2.01807 14.0954 2.01807C7.47523 2.01807 2 7.50291 2 14.123C2 20.7549 7.48484 26.2301 14.105 26.2301Z" fill="black"/>
<path d="M8.94823 17.0705C7.53542 17.0705 6.58081 16.1457 6.58081 14.8759C6.58081 13.853 7.20519 13.0562 8.11714 12.744C8.31425 10.9498 9.85058 9.52953 11.6883 9.52953C13.1197 9.52953 14.2419 10.3145 14.8707 11.4688C16.5305 11.4976 17.7697 12.6908 17.7697 14.2578C17.7697 15.8431 16.5507 17.0705 14.9429 17.0705H8.94823ZM9.52667 19.6074C9.41487 19.8055 9.12729 19.8875 8.91964 19.7544C8.69065 19.6405 8.62995 19.3508 8.74714 19.1452L9.41534 18.0017C9.52714 17.7844 9.81261 17.7141 10.0128 17.8334C10.2535 17.9762 10.3259 18.2349 10.1928 18.4639L9.52667 19.6074ZM11.0925 20.8742C10.9732 21.084 10.6857 21.166 10.4876 21.0425C10.2469 20.919 10.167 20.6431 10.2884 20.4141L10.9257 19.3262C11.0546 19.1185 11.325 19.0503 11.5444 19.1621C11.7809 19.2856 11.8437 19.5711 11.7202 19.7905L11.0925 20.8742ZM13.4523 19.5978C13.333 19.8034 13.0646 19.8854 12.8494 19.7544C12.6066 19.6405 12.5576 19.3412 12.6673 19.1356L13.3259 17.99C13.4452 17.7844 13.7232 17.7141 13.9426 17.8334C14.1694 17.9762 14.2557 18.2349 14.1205 18.4639L13.4523 19.5978ZM14.9916 20.8742C14.8702 21.0936 14.5944 21.166 14.3867 21.0425C14.1535 20.919 14.0715 20.641 14.195 20.4141L14.8301 19.3358C14.9633 19.1206 15.2337 19.0503 15.451 19.1621C15.6779 19.2856 15.7449 19.5753 15.631 19.7905L14.9916 20.8742ZM21.6495 11.1294C21.6495 12.1245 20.4922 13.6292 18.6123 13.8589C18.4334 12.1648 17.1357 10.8713 15.368 10.637C15.2424 10.4741 15.1168 10.2995 14.9731 10.1504C15.1787 8.48516 16.6168 7.19774 17.7113 7.14758C17.934 7.14758 18.0746 7.25305 18.0746 7.43844C18.0746 7.75156 17.6717 8.28008 17.6717 9.03008C17.6717 10.2845 18.5286 11.0975 19.9044 11.0954C20.6652 11.0954 21.1041 10.7523 21.3821 10.7523C21.5579 10.7523 21.6495 10.9067 21.6495 11.1294Z" fill="white"/>
</svg>
