<svg width="28" height="28" viewBox="0 0 28 28" fill="none" xmlns="http://www.w3.org/2000/svg">
<path d="M14.105 26.2301C20.7369 26.2301 26.2121 20.7549 26.2121 14.123C26.2121 7.50291 20.7273 2.01807 14.0954 2.01807C7.47523 2.01807 2 7.50291 2 14.123C2 20.7549 7.48484 26.2301 14.105 26.2301Z" fill="black"/>
<path d="M10.3756 15.3448C8.6698 15.3448 7.65051 14.2475 7.65051 12.8511C7.65051 11.6534 8.41996 10.7457 9.47137 10.4316C9.68957 8.29106 11.4668 6.64551 13.6095 6.64551C15.2684 6.64551 16.5727 7.52277 17.3026 8.93137C19.2406 8.93137 20.727 10.2875 20.727 12.1369C20.727 13.9182 19.2941 15.3448 17.4317 15.3448H10.3756ZM12.0291 20.4071C11.8747 20.6787 11.5339 20.7863 11.2601 20.6202C10.98 20.4732 10.8863 20.1111 11.0504 19.8491L12.8429 16.7448C13.0069 16.4635 13.3381 16.3751 13.6065 16.5317C13.8941 16.6883 13.9932 17.0408 13.8195 17.3145L12.0291 20.4071ZM17.4219 20.4071C17.2791 20.6787 16.9384 20.7863 16.6604 20.6202C16.3707 20.4732 16.2908 20.1111 16.4452 19.8491L18.2356 16.7448C18.3997 16.4635 18.7309 16.3751 19.0109 16.5317C19.2943 16.6883 19.388 17.0408 19.224 17.3145L17.4219 20.4071ZM14.7303 20.4008C14.5662 20.6745 14.2255 20.7821 13.9613 20.6159C13.6716 20.4669 13.5896 20.1069 13.7441 19.8427L15.5345 16.7405C15.6985 16.4572 16.0297 16.3688 16.3098 16.5275C16.5931 16.6841 16.6869 17.0344 16.5132 17.3103L14.7303 20.4008ZM9.33004 20.4008C9.17558 20.6745 8.83269 20.7821 8.55684 20.6159C8.27887 20.4669 8.18512 20.1069 8.33957 19.8427L10.1417 16.7405C10.294 16.4572 10.6348 16.3688 10.9053 16.5275C11.1929 16.6841 11.2824 17.0344 11.1183 17.3103L9.33004 20.4008Z" fill="white"/>
</svg>
