<svg width="28" height="28" viewBox="0 0 28 28" fill="none" xmlns="http://www.w3.org/2000/svg">
<path d="M14.105 26.21C20.7369 26.21 26.2121 20.7273 26.2121 14.105C26.2121 7.47312 20.7273 2 14.0954 2C7.47523 2 2 7.47312 2 14.105C2 20.7273 7.48484 26.21 14.105 26.21ZM14.105 23.8255C8.71085 23.8255 4.39412 19.4991 4.39412 14.105C4.39412 8.71085 8.70124 4.38452 14.0954 4.38452C19.4895 4.38452 23.8276 8.71085 23.8276 14.105C23.8276 19.4991 19.4991 23.8255 14.105 23.8255Z" fill="black"/>
<path d="M8.55854 18.9064H14.6042C16.2336 18.9064 17.457 17.6841 17.457 16.0815C17.457 14.5025 16.2134 13.3048 14.5266 13.276C13.8945 12.1034 12.7733 11.3215 11.3225 11.3215C9.46956 11.3215 7.92339 12.7421 7.72839 14.5653C6.80776 14.8637 6.16089 15.6788 6.16089 16.7007C6.16089 17.9846 7.13167 18.9064 8.55854 18.9064ZM13.4059 10.7965C13.621 11.0255 14.0066 11.0042 14.2334 10.789C14.4315 10.5739 14.4348 10.2 14.2334 9.98486L13.3965 9.1608C13.1633 8.94564 12.8033 8.94775 12.5902 9.1608C12.3762 9.37056 12.3847 9.74017 12.5923 9.96916L13.4059 10.7965ZM16.6909 9.76385C17.0157 9.76385 17.266 9.50182 17.266 9.18658V8.03298C17.266 7.70603 17.0157 7.45361 16.6909 7.45361C16.3798 7.45361 16.1061 7.70603 16.1061 8.03298V9.18658C16.1061 9.50182 16.3798 9.76385 16.6909 9.76385ZM19.1663 10.789C19.3794 11.0042 19.7745 11.0255 19.9897 10.7986L20.8053 9.97127C21.013 9.74228 21.0151 9.37056 20.8074 9.16291C20.5848 8.94564 20.2088 8.93603 19.982 9.16291L19.1663 9.98275C18.947 10.2 18.9545 10.5739 19.1663 10.789ZM20.7741 13.8312H21.9106C22.2334 13.8312 22.4837 13.5692 22.4837 13.2582C22.4837 12.9355 22.2334 12.6905 21.9106 12.6905H20.7741C20.4535 12.6905 20.1873 12.9355 20.1873 13.2582C20.1873 13.5692 20.4535 13.8312 20.7741 13.8312ZM19.982 17.3748C20.2088 17.6091 20.5805 17.5803 20.8074 17.3609C21.013 17.1341 21.0226 16.7645 20.8053 16.5568L19.9918 15.7529C19.7628 15.5239 19.3869 15.5218 19.1621 15.7508C18.9523 15.9638 18.9448 16.328 19.1642 16.5549L19.982 17.3748ZM19.5116 13.2582C19.5116 11.6853 18.2584 10.4513 16.693 10.4513C15.7222 10.4513 14.8623 10.9329 14.3773 11.6714C14.6288 11.9037 14.8494 12.1552 15.0326 12.4473C16.7612 12.6774 18.088 13.9243 18.2869 15.5825C19.0459 15.0453 19.5116 14.2013 19.5116 13.2582Z" fill="black"/>
</svg>
