<svg width="35" height="35" viewBox="0 0 35 35" fill="none" xmlns="http://www.w3.org/2000/svg">
<path d="M22.3371 7.04192C19.0744 7.04192 16.4688 9.65497 16.4688 12.9155C16.4688 13.1152 16.489 13.3128 16.5155 13.4987L18.5402 13.5922C18.4744 13.3655 18.4425 13.1295 18.4425 12.905C18.4425 10.7199 20.1574 9.00504 22.335 9.00504C24.5105 9.00504 26.2254 10.7199 26.2254 12.905C26.2254 14.7207 25.0207 16.2392 23.3437 16.6897L23.3555 18.6933C26.1208 18.1948 28.1873 15.8026 28.1873 12.9155C28.1873 9.65497 25.5914 7.04192 22.3371 7.04192ZM15.3757 7.45723C15.7962 7.8777 16.4817 7.8702 16.8787 7.46145C17.2779 7.0527 17.2833 6.39059 16.8745 5.97763L15.15 4.23505C14.7455 3.8263 14.0707 3.82841 13.664 4.23505C13.2553 4.6438 13.2499 5.31973 13.6683 5.73809L15.3757 7.45723ZM22.3308 5.18708C22.9162 5.18708 23.3878 4.70169 23.3878 4.12583V1.70004C23.3878 1.11247 22.9162 0.638794 22.3308 0.638794C21.7453 0.638794 21.2737 1.11247 21.2737 1.70004V4.12583C21.2737 4.70169 21.7453 5.18708 22.3308 5.18708ZM27.7849 7.46356C28.1819 7.87231 28.8696 7.8777 29.2879 7.45934L31.0071 5.74231C31.4179 5.32395 31.4179 4.6459 31.0092 4.23927C30.6026 3.83052 29.9362 3.83263 29.5254 4.24348L27.787 5.97763C27.3762 6.38427 27.3858 7.05692 27.7849 7.46356ZM31.095 13.9662H33.5325C34.1104 13.9662 34.5841 13.4968 34.5841 12.9134C34.5841 12.328 34.1104 11.8522 33.5325 11.8522H31.095C30.5287 11.8522 30.0337 12.328 30.0337 12.9134C30.0337 13.4968 30.5287 13.9662 31.095 13.9662ZM29.5233 21.5951C29.932 22.0039 30.5983 21.9964 31.0071 21.5898C31.4158 21.181 31.4095 20.5072 31.0029 20.1038L29.2687 18.373C28.8621 17.9738 28.1894 17.9663 27.7807 18.373C27.374 18.7817 27.3783 19.4576 27.787 19.8664L29.5233 21.5951Z" fill="black"/>
<path d="M5.14382 24.8329H17.8762C21.3473 24.8329 24.0515 22.1948 24.0515 18.7994C24.0515 15.4211 21.3534 12.8683 17.7935 12.8109C16.4055 10.2276 13.9458 8.67505 10.9816 8.67505C7.04999 8.67505 3.77226 11.6582 3.32226 15.5547C1.33477 16.1906 0 17.9224 0 20.0995C0 22.8501 2.08711 24.8329 5.14382 24.8329ZM5.12648 22.6689C3.18491 22.6689 2.16608 21.5711 2.16608 20.1442C2.16608 18.921 2.89475 17.8722 4.5921 17.4236C5.1778 17.267 5.38241 16.9987 5.44194 16.3938C5.7621 13.0851 8.11944 10.8445 10.9816 10.8445C13.1897 10.8445 14.9339 12.0655 16.0301 14.2359C16.2984 14.7503 16.586 14.9324 17.2048 14.9324C20.2441 14.9324 21.878 16.7003 21.878 18.8559C21.878 20.9765 20.1726 22.6689 17.8819 22.6689H5.12648ZM14.9735 28.9274H12.3016L12.2634 29.4988L13.6099 26.9305C13.7409 26.6845 13.6355 26.4927 13.3755 26.4927H10.728C10.4074 26.4927 10.2998 26.6099 10.1944 26.8485L8.66695 30.3198C8.54977 30.5915 8.66485 30.7715 8.97164 30.7715H11.1516L11.269 30.0812L9.46031 34.4591C9.39 34.6136 9.42516 34.7446 9.53063 34.7894C9.63609 34.8362 9.76711 34.8032 9.88641 34.6743L15.1493 29.4984C15.3921 29.2544 15.3058 28.9274 14.9735 28.9274Z" fill="black"/>
</svg>
