<svg width="28" height="28" viewBox="0 0 28 28" fill="none" xmlns="http://www.w3.org/2000/svg">
<path d="M14.105 26.21C20.7369 26.21 26.2121 20.7273 26.2121 14.105C26.2121 7.47312 20.7273 2 14.0954 2C7.47523 2 2 7.47312 2 14.105C2 20.7273 7.48484 26.21 14.105 26.21ZM14.105 23.8255C8.71085 23.8255 4.39412 19.4991 4.39412 14.105C4.39412 8.71085 8.70124 4.38452 14.0954 4.38452C19.4895 4.38452 23.8276 8.71085 23.8276 14.105C23.8276 19.4991 19.4991 23.8255 14.105 23.8255Z" fill="black"/>
<path d="M7.74082 15.7473H9.14074C9.55934 15.7473 9.87457 15.4491 9.87457 15.0636C9.87457 14.6855 9.54973 14.3895 9.14074 14.3895H7.74082C7.33605 14.3895 7.0166 14.6952 7.0166 15.0636C7.0166 15.4299 7.33605 15.7473 7.74082 15.7473ZM10.1256 12.2635C10.4057 12.5511 10.8402 12.5724 11.1107 12.2944C11.3886 12.024 11.3694 11.5894 11.0797 11.3093L10.0722 10.3018C9.77285 9.99285 9.35543 10.0217 9.08707 10.2783C8.83043 10.5467 8.82832 10.9683 9.12762 11.2655L10.1256 12.2635ZM17.092 12.2944C17.3603 12.5628 17.7853 12.5607 18.077 12.2635L19.0654 11.2655C19.3647 10.9683 19.3722 10.5467 19.1135 10.2783C18.8472 10.0025 18.4085 10.0025 18.1188 10.3018L17.1133 11.3093C16.814 11.6011 16.814 12.024 17.092 12.2944ZM19.0523 15.7473H20.4618C20.8687 15.7473 21.1764 15.4395 21.1764 15.0636C21.1764 14.6952 20.8687 14.3895 20.4618 14.3895H19.0523C18.6475 14.3895 18.3185 14.6855 18.3185 15.0636C18.3185 15.4395 18.6475 15.7473 19.0523 15.7473ZM17.5117 15.275C17.5117 13.4028 15.9656 11.8512 14.0955 11.8512C12.2371 11.8512 10.6813 13.4028 10.6813 15.275C10.6813 15.6163 10.7486 15.9542 10.8531 16.2645H17.3378C17.4424 15.9542 17.5117 15.6163 17.5117 15.275ZM7.76074 18.5366H20.4419C20.8314 18.5366 21.1764 18.2216 21.1764 17.8266C21.1764 17.4338 20.841 17.1284 20.4419 17.1284H7.76074C7.35949 17.1284 7.0166 17.438 7.0166 17.8266C7.0166 18.2173 7.37121 18.5366 7.76074 18.5366ZM14.7792 10.0022V8.6023C14.7792 8.1816 14.4618 7.87598 14.0955 7.87598C13.727 7.87598 13.4214 8.1816 13.4214 8.6023V10.0022C13.4214 10.407 13.7174 10.7361 14.0955 10.7361C14.4714 10.7361 14.7792 10.3974 14.7792 10.0022Z" fill="black"/>
</svg>
