<svg width="29" height="28" viewBox="0 0 29 28" fill="none" xmlns="http://www.w3.org/2000/svg">
<path d="M8.8603 24.0274H23.0194C26.254 24.0274 28.4487 21.794 28.4487 18.922C28.4369 16.5872 26.888 14.6009 24.6382 13.9643C24.2862 11.051 21.8365 8.80008 18.885 8.80008C17.0442 8.80008 15.3527 9.65883 14.2577 11.1213C13.8464 11.036 13.3945 10.9624 12.9523 10.9624C10.6631 10.9741 8.70984 12.5658 8.22351 14.7518C5.83008 15.0644 4.05 16.9847 4.05 19.3652C4.05 22.0467 6.07335 24.0274 8.8603 24.0274ZM8.8603 21.9119C7.25389 21.9119 6.16545 20.88 6.16545 19.3631C6.16545 17.9051 7.32421 16.8068 8.89358 16.7327C9.69163 16.6861 10.0104 16.4569 10.0943 15.7612C10.2801 14.1579 11.4419 13.0568 13.0134 13.0568C13.4831 13.0568 13.7737 13.1313 14.2563 13.3083C14.9018 13.5459 15.2599 13.4468 15.5409 12.9248C16.1862 11.7145 17.4356 10.9273 18.9124 10.9176C20.9259 10.9176 22.5398 12.533 22.6137 14.6763C22.639 15.4659 22.8712 15.7406 23.6449 15.8533C25.2656 16.1072 26.3311 17.399 26.3311 18.922C26.3311 20.718 24.9987 21.9119 23.0194 21.9119H8.8603ZM0 13.1294C0 15.9223 2.21367 18.1699 5.5221 18.1699H5.77428L6.41998 16.065H5.75343C3.55546 16.065 2.11545 14.8284 2.11545 13.1294C2.11545 11.5584 3.31007 10.2635 4.81546 10.0666C5.52819 9.97405 5.79772 9.66491 5.81038 8.92967C5.8153 6.8196 7.49741 5.11545 9.58077 5.11545C10.9915 5.12506 12.0937 5.83147 12.9127 7.08866C13.2066 7.55741 13.639 7.67764 14.2472 7.49436C14.591 7.38467 15.0715 7.28342 15.547 7.28342C16.9577 7.28342 18.0994 8.3735 18.1378 9.80319H20.2926C20.2753 7.20562 18.2637 5.16586 15.7624 5.16586C15.1976 5.16586 14.6798 5.23406 14.2345 5.35336C12.8784 3.73313 11.3894 3 9.58077 3C6.62179 3.00961 4.14117 5.26055 3.76992 8.18344C1.53398 8.80617 0 10.8138 0 13.1294Z" fill="black"/>
</svg>
