<svg width="28" height="29" viewBox="0 0 28 29" fill="none" xmlns="http://www.w3.org/2000/svg">
<path d="M14.3485 15.21C14.9382 15.21 15.3842 14.7736 15.3842 14.1743C15.3842 13.5909 14.9244 13.129 14.3485 13.129C13.7769 13.129 13.3032 13.6026 13.3032 14.1743C13.3032 14.748 13.7652 15.21 14.3485 15.21Z" fill="black"/>
<path d="M14.3486 8.65028C14.9383 8.65028 15.3843 8.20427 15.3843 7.60497C15.3843 7.02912 14.9245 6.56927 14.3486 6.56927C13.777 6.56927 13.3033 7.04294 13.3033 7.60497C13.3033 8.18833 13.7653 8.65028 14.3486 8.65028ZM8.69216 11.928C9.28935 11.928 9.73747 11.482 9.73747 10.8827C9.73747 10.2994 9.27552 9.83741 8.69216 9.83741C8.13013 9.83741 7.64685 10.3111 7.64685 10.8827C7.64685 11.4682 8.1067 11.928 8.69216 11.928ZM19.9975 11.928C20.5968 11.928 21.0428 11.482 21.0428 10.8827C21.0428 10.2994 20.5809 9.83741 19.9975 9.83741C19.4355 9.83741 18.9522 10.3111 18.9522 10.8827C18.9522 11.4703 19.4099 11.928 19.9975 11.928ZM8.69216 18.5015C9.28935 18.5015 9.73747 18.063 9.73747 17.4658C9.73747 16.8783 9.27763 16.4184 8.69216 16.4184C8.13013 16.4184 7.64685 16.8921 7.64685 17.4658C7.64685 18.0492 8.1067 18.5015 8.69216 18.5015ZM19.9975 18.5015C20.5968 18.5015 21.0428 18.063 21.0428 17.4658C21.0428 16.8783 20.583 16.4184 19.9975 16.4184C19.4334 16.4184 18.9522 16.89 18.9522 17.4658C18.9522 18.0513 19.4099 18.5015 19.9975 18.5015ZM14.3486 21.7793C14.9383 21.7793 15.3843 21.3333 15.3843 20.734C15.3843 20.156 14.9266 19.6983 14.3486 19.6983C13.777 19.6983 13.3033 20.1719 13.3033 20.734C13.3033 21.3173 13.7653 21.7793 14.3486 21.7793Z" fill="black"/>
<path d="M14.3485 2.08101C14.9382 2.08101 15.3842 1.6446 15.3842 1.04531C15.3842 0.459842 14.9244 0 14.3485 0C13.7769 0 13.3032 0.47367 13.3032 1.04531C13.3032 1.61906 13.7652 2.08101 14.3485 2.08101ZM8.6921 5.34702C9.28929 5.34702 9.73741 4.90101 9.73741 4.30171C9.73741 3.71836 9.27546 3.2564 8.6921 3.2564C8.13007 3.2564 7.64679 3.73968 7.64679 4.30171C7.64679 4.88507 8.10664 5.34702 8.6921 5.34702ZM19.9974 5.34702C20.5967 5.34702 21.0427 4.90101 21.0427 4.30171C21.0427 3.71836 20.5808 3.2564 19.9974 3.2564C19.4354 3.2564 18.9521 3.73968 18.9521 4.30171C18.9521 4.88718 19.4098 5.34702 19.9974 5.34702ZM3.0432 8.6503C3.63289 8.6503 4.0789 8.20429 4.0789 7.60499C4.0789 7.02914 3.61695 6.56929 3.0432 6.56929C2.47156 6.56929 2 7.04296 2 7.60499C2 8.19046 2.45984 8.6503 3.0432 8.6503ZM25.609 8.6503C26.2041 8.6503 26.6426 8.20429 26.6426 7.60499C26.6426 7.01953 26.1924 6.56929 25.609 6.56929C25.0374 6.56929 24.5637 7.04296 24.5637 7.60499C24.5637 8.19046 25.0215 8.6503 25.609 8.6503ZM3.0432 15.21C3.63289 15.21 4.0789 14.7736 4.0789 14.1743C4.0789 13.5909 3.61695 13.129 3.0432 13.129C2.47156 13.129 2 13.6026 2 14.1743C2 14.7501 2.45984 15.21 3.0432 15.21ZM25.609 15.21C26.2041 15.21 26.6426 14.7736 26.6426 14.1743C26.6426 13.5909 26.1924 13.129 25.609 13.129C25.0374 13.129 24.5637 13.6123 24.5637 14.1743C24.5637 14.7501 25.0215 15.21 25.609 15.21ZM3.0432 21.7793C3.63289 21.7793 4.0789 21.3333 4.0789 20.734C4.0789 20.156 3.61906 19.6983 3.0432 19.6983C2.47156 19.6983 2 20.1698 2 20.734C2 21.3194 2.45984 21.7793 3.0432 21.7793ZM25.609 21.7793C26.2041 21.7793 26.6426 21.3429 26.6426 20.734C26.6426 20.156 26.1828 19.6983 25.609 19.6983C25.0353 19.6983 24.5637 20.1698 24.5637 20.734C24.5637 21.3194 25.0215 21.7793 25.609 21.7793ZM8.6921 25.0826C9.28929 25.0826 9.73741 24.6462 9.73741 24.0469C9.73741 23.4593 9.27757 23.0016 8.6921 23.0016C8.13007 23.0016 7.64679 23.4752 7.64679 24.0469C7.64679 24.6206 8.10664 25.0826 8.6921 25.0826ZM19.9974 25.0826C20.5967 25.0826 21.0427 24.6462 21.0427 24.0469C21.0427 23.4593 20.5829 23.0016 19.9974 23.0016C19.4333 23.0016 18.9521 23.4731 18.9521 24.0469C18.9521 24.6227 19.4098 25.0826 19.9974 25.0826ZM14.3485 28.3486C14.9361 28.3486 15.3842 27.9005 15.3842 27.3033C15.3842 26.7157 14.9265 26.258 14.3485 26.258C13.7769 26.258 13.3032 26.7412 13.3032 27.3033C13.3032 27.8866 13.7652 28.3486 14.3485 28.3486Z" fill="black"/>
</svg>
