<svg width="28" height="28" viewBox="0 0 28 28" fill="none" xmlns="http://www.w3.org/2000/svg">
<path d="M14.105 26.21C20.7369 26.21 26.2121 20.7273 26.2121 14.105C26.2121 7.47312 20.7273 2 14.0954 2C7.47523 2 2 7.47312 2 14.105C2 20.7273 7.48484 26.21 14.105 26.21ZM14.105 23.8255C8.71085 23.8255 4.39412 19.4991 4.39412 14.105C4.39412 8.71085 8.70124 4.38452 14.0954 4.38452C19.4895 4.38452 23.8276 8.71085 23.8276 14.105C23.8276 19.4991 19.4991 23.8255 14.105 23.8255Z" fill="black"/>
<path d="M14.3865 20.7852C17.12 20.7852 19.4741 19.112 20.3293 16.9918C20.408 16.8343 20.4261 16.6714 20.4261 16.5917C20.4261 16.3393 20.2311 16.1731 20.0309 16.1731C19.9299 16.1731 19.8247 16.1954 19.6822 16.2549C19.2153 16.4211 18.4191 16.5863 17.6401 16.5863C14.2327 16.5863 12.0563 14.4652 12.0563 11.0609C12.0563 10.3247 12.2471 9.3345 12.4601 8.80692C12.5368 8.64403 12.5494 8.53129 12.5494 8.45161C12.5494 8.25895 12.41 8.05762 12.1533 8.05762C12.0587 8.05762 11.9021 8.07567 11.7392 8.14598C9.35558 9.09005 7.76465 11.637 7.76465 14.3096C7.76465 18.0744 10.6292 20.7852 14.3865 20.7852Z" fill="black"/>
</svg>
