<svg width="35" height="34" viewBox="0 0 35 34" fill="none" xmlns="http://www.w3.org/2000/svg">
<path d="M4.92328 24.0398H17.9236C21.2728 24.0398 23.853 21.4887 23.853 18.1835C23.853 14.8617 21.2006 12.3694 17.6334 12.3544C16.3003 9.80951 13.8944 8.18811 10.8644 8.18811C6.96726 8.18811 3.68226 11.1771 3.33492 15.0916C1.29726 15.683 0 17.4021 0 19.5152C0 22.1993 1.99828 24.0398 4.92328 24.0398Z" fill="black"/>
<path d="M25.3315 17.283C27.014 16.1323 28.0603 14.3426 28.0603 12.2705C28.0603 9.01828 25.4601 6.40101 22.208 6.40101C20.0679 6.40101 18.2069 7.55578 17.2364 9.23062C17.7391 9.75047 18.1694 10.3064 18.5273 10.9987C22.3418 11.292 24.9391 13.7302 25.3315 17.283ZM15.2487 6.81843C15.6691 7.23679 16.3547 7.2314 16.7517 6.82265C17.1508 6.4139 17.1562 5.7518 16.7475 5.33883L15.0229 3.60586C14.6184 3.18539 13.9437 3.19922 13.537 3.60586C13.1283 4.01461 13.1229 4.69054 13.5412 5.09929L15.2487 6.81843ZM22.2037 4.54828C22.7892 4.54828 23.2608 4.06289 23.2608 3.48703V1.06125C23.2608 0.48328 22.7892 0 22.2037 0C21.6183 0 21.1467 0.48328 21.1467 1.06125V3.48703C21.1467 4.06289 21.6183 4.54828 22.2037 4.54828ZM27.6579 6.82476C28.0549 7.23351 28.7426 7.23679 29.1609 6.82054L30.8801 5.10351C31.2909 4.69476 31.2909 4.01672 30.8822 3.60797C30.4755 3.20133 29.8092 3.19383 29.3983 3.6143L27.66 5.33883C27.2491 5.74547 27.2587 6.41601 27.6579 6.82476ZM30.9679 13.3275H33.4054C33.9834 13.3275 34.4571 12.858 34.4571 12.2726C34.4571 11.6892 33.9834 11.2134 33.4054 11.2134H30.9679C30.4017 11.2134 29.9067 11.6892 29.9067 12.2726C29.9067 12.858 30.4017 13.3275 30.9679 13.3275ZM29.3962 20.9543C29.805 21.3651 30.4713 21.3576 30.8801 20.951C31.2888 20.5423 31.2825 19.8684 30.8758 19.4651L29.1417 17.7438C28.7351 17.3426 28.0624 17.3372 27.6537 17.7438C27.247 18.143 27.2512 18.8285 27.66 19.2351L29.3962 20.9543Z" fill="black"/>
<path d="M4.96846 29.7377L6.47713 27.1263C6.70072 26.7419 6.59314 26.2917 6.21205 26.066C5.82135 25.8499 5.39338 25.9797 5.16557 26.3629L3.64518 29.0032C3.4333 29.3608 3.53877 29.8165 3.91987 30.0326C4.29885 30.2486 4.75447 30.1146 4.96846 29.7377ZM8.64486 33.0382L10.1535 30.4172C10.3771 30.0424 10.2599 29.5826 9.88846 29.3665C9.49776 29.1408 9.0719 29.2706 8.84198 29.6634L7.32369 32.294C7.10971 32.6592 7.21518 33.1073 7.59627 33.333C7.97736 33.5395 8.43088 33.4054 8.64486 33.0382ZM14.2965 29.7281L15.8073 27.1167C16.0309 26.7323 15.9116 26.2821 15.5305 26.0564C15.1494 25.8403 14.7236 25.9701 14.4936 26.3533L12.9754 28.9936C12.7614 29.3512 12.8572 29.8069 13.2479 30.0229C13.629 30.239 14.0825 30.105 14.2965 29.7281ZM17.9633 33.0286L19.4837 30.4076C19.7073 30.0328 19.588 29.5729 19.209 29.3569C18.8279 29.1312 18.4 29.261 18.1626 29.6538L16.6422 32.2844C16.4282 32.6496 16.5336 33.0977 16.9243 33.3234C17.2958 33.5299 17.759 33.3937 17.9633 33.0286Z" fill="black"/>
</svg>
