<svg width="35" height="35" viewBox="0 0 35 35" fill="none" xmlns="http://www.w3.org/2000/svg">
<path d="M4.93078 24.669H17.9311C21.2707 24.669 23.853 22.1178 23.853 18.8126C23.853 15.4908 21.1964 12.9985 17.6313 12.9835C16.2961 10.4387 13.8923 8.81726 10.8602 8.81726C6.96515 8.81726 3.68015 11.8062 3.33281 15.7208C1.30476 16.3121 0 18.0312 0 20.1444C0 22.8284 2.00578 24.669 4.93078 24.669Z" fill="black"/>
<path d="M25.3315 17.9122C27.014 16.7614 28.0603 14.9717 28.0603 12.8996C28.0603 9.64743 25.4601 7.03016 22.208 7.03016C20.0679 7.03016 18.2069 8.18493 17.2364 9.85977C17.7391 10.3796 18.1694 10.9355 18.5273 11.6279C22.3418 11.9211 24.9391 14.3593 25.3315 17.9122ZM15.2487 7.44758C15.6691 7.86594 16.3547 7.86055 16.7517 7.4518C17.1508 7.04305 17.1562 6.38095 16.7475 5.96798L15.0229 4.23501C14.6184 3.81454 13.9437 3.82837 13.537 4.23501C13.1283 4.64376 13.1229 5.31969 13.5412 5.72844L15.2487 7.44758ZM22.2037 5.17743C22.7892 5.17743 23.2608 4.69204 23.2608 4.11618V1.69039C23.2608 1.11243 22.7892 0.62915 22.2037 0.62915C21.6183 0.62915 21.1467 1.11243 21.1467 1.69039V4.11618C21.1467 4.69204 21.6183 5.17743 22.2037 5.17743ZM27.6579 7.45391C28.0549 7.86266 28.7426 7.86594 29.1609 7.44969L30.8801 5.73266C31.2909 5.32391 31.2909 4.64586 30.8822 4.23712C30.4755 3.83048 29.8092 3.82298 29.3983 4.24344L27.66 5.96798C27.2491 6.37462 27.2587 7.04516 27.6579 7.45391ZM30.9679 13.9566H33.4054C33.9834 13.9566 34.4571 13.4872 34.4571 12.9017C34.4571 12.3184 33.9834 11.8426 33.4054 11.8426H30.9679C30.4017 11.8426 29.9067 12.3184 29.9067 12.9017C29.9067 13.4872 30.4017 13.9566 30.9679 13.9566ZM29.3962 21.5834C29.805 21.9943 30.4713 21.9868 30.8801 21.5801C31.2888 21.1714 31.2825 20.4976 30.8758 20.0942L29.1417 18.373C28.7351 17.9717 28.0624 17.9663 27.6537 18.373C27.247 18.7721 27.2512 19.4576 27.66 19.8643L29.3962 21.5834Z" fill="black"/>
<path d="M14.9447 28.9273H12.2728L12.2346 29.4987L13.5811 26.9401C13.7217 26.6844 13.6162 26.4926 13.3563 26.4926H10.7088C10.3786 26.4926 10.271 26.6098 10.1655 26.8484L8.63811 30.3197C8.52092 30.601 8.64561 30.781 8.94279 30.781H11.1227L11.2498 30.0811L9.43146 34.459C9.36115 34.6231 9.39631 34.7445 9.51139 34.7893C9.61686 34.8361 9.74787 34.8031 9.85756 34.6742L15.1205 29.4983C15.3729 29.2543 15.2887 28.9273 14.9447 28.9273Z" fill="black"/>
</svg>
