<svg width="28" height="28" viewBox="0 0 28 28" fill="none" xmlns="http://www.w3.org/2000/svg">
<path d="M14.2057 10.9202C21.5201 10.9202 25.7758 9.0911 25.7758 6.52774C25.7758 4.18259 22.4862 2.75642 17.6109 2.75642C14.0742 2.75642 11.2687 3.39814 9.11437 4.36025C8.48648 4.64454 8.34492 5.27454 8.56429 5.71938C8.80382 6.22165 9.42351 6.37469 9.99351 6.15227C11.8917 5.39664 14.2652 4.66024 17.497 4.66024C21.3112 4.66024 23.6808 5.52813 23.6808 6.51602C23.6808 7.69657 19.8736 8.95353 14.1152 8.95353C8.19444 8.95353 5.08546 7.7997 5.08546 5.60173C5.08546 4.24611 6.34194 2.9172 9.65601 1.8822C10.3062 1.67993 10.5691 1.16173 10.3882 0.622201C10.2094 0.0826724 9.71882 -0.130139 8.99835 0.0796262C4.95539 1.23463 3 3.38665 3 5.65282C3 9.07797 6.87562 10.9202 14.2057 10.9202ZM14.5551 14.9012C18.2885 14.9012 21.731 14.2919 24.1533 13.3234C24.6703 13.1148 24.9035 12.5849 24.6619 12.122C24.434 11.6751 23.9531 11.5837 23.3667 11.7977C21.165 12.6191 17.9641 13.1816 14.5551 13.1816C12.0136 13.1816 9.10546 12.8631 6.81749 12.1942C6.23109 12.025 5.74898 12.2081 5.60531 12.704C5.45953 13.1988 5.72648 13.6637 6.3246 13.8447C8.80101 14.5476 11.8784 14.9012 14.5551 14.9012ZM15.3858 18.8334C18.4983 18.8078 21.4043 18.3604 24.1001 17.4665C24.7654 17.2471 24.9098 16.7022 24.7322 16.2693C24.5533 15.8148 24.0977 15.6522 23.4473 15.8598C20.8078 16.6994 18.1905 17.102 15.3605 17.102C14.1684 17.102 12.9148 17.0221 11.9538 16.8911C11.3226 16.8102 10.9289 17.0772 10.848 17.5412C10.7555 18.0201 11.014 18.4818 11.6824 18.5894C12.6101 18.7492 13.8862 18.8451 15.3858 18.8334ZM14.2645 22.5428C16.4311 22.791 19.1135 22.7155 21.3061 22.1326C21.8904 21.9794 22.1212 21.4642 21.9818 20.9971C21.8327 20.5044 21.3656 20.313 20.7504 20.4599C18.8604 20.9352 16.6099 21.0951 14.5392 20.8584C13.9134 20.7977 13.4887 21.0955 13.4259 21.5776C13.3652 22.045 13.6111 22.4683 14.2645 22.5428ZM13.4634 26.3673C14.227 26.4686 15.0984 26.459 15.9023 26.3652C16.4836 26.2928 16.7761 25.9213 16.7367 25.4266C16.6877 24.9766 16.3303 24.6552 15.7076 24.7298C15.0377 24.8139 14.2739 24.8139 13.6198 24.7415C13.0355 24.6669 12.6588 24.9883 12.6002 25.4287C12.5512 25.8946 12.8437 26.3045 13.4634 26.3673Z" fill="black"/>
</svg>
