<svg width="28" height="28" viewBox="0 0 28 28" fill="none" xmlns="http://www.w3.org/2000/svg">
<path d="M14.105 26.21C20.7369 26.21 26.2121 20.7273 26.2121 14.105C26.2121 7.47312 20.7273 2 14.0954 2C7.47523 2 2 7.47312 2 14.105C2 20.7273 7.48484 26.21 14.105 26.21ZM14.105 23.8255C8.71085 23.8255 4.39412 19.4991 4.39412 14.105C4.39412 8.71085 8.70124 4.38452 14.0954 4.38452C19.4895 4.38452 23.8276 8.71085 23.8276 14.105C23.8276 19.4991 19.4991 23.8255 14.105 23.8255Z" fill="black"/>
<path d="M11.9727 21.7491C13.7858 21.7491 15.2431 20.2981 15.2431 18.4967C15.2431 17.558 14.8616 16.7333 14.1348 16.0737C14.0218 15.9704 14.0005 15.9043 14.0005 15.7348L14.0101 10.4159C14.0101 9.1048 13.1783 8.20691 11.9727 8.20691C10.7553 8.20691 9.93523 9.1048 9.93523 10.4159V15.7348C9.93523 15.9043 9.91601 15.9725 9.77749 16.0737C9.06031 16.727 8.68835 17.558 8.68835 18.4967C8.68835 20.2981 10.1499 21.7491 11.9727 21.7491ZM11.9727 20.705C10.73 20.705 9.75382 19.7213 9.75382 18.4841C9.75382 17.7254 10.0991 17.0656 10.7246 16.6468C10.925 16.5242 10.9911 16.4059 10.9911 16.1469V10.4532C10.9911 9.73808 11.3769 9.28199 11.9727 9.28199C12.5492 9.28199 12.935 9.73808 12.935 10.4532V16.1469C12.935 16.4059 13.0032 16.5242 13.2036 16.6468C13.827 17.0656 14.184 17.7254 14.184 18.4841C14.184 19.7213 13.1865 20.705 11.9727 20.705ZM11.963 19.9463C12.7826 19.9463 13.4328 19.2845 13.4328 18.4745C13.4328 17.9117 13.1098 17.4427 12.6345 17.1859C12.4534 17.0921 12.3969 17.0143 12.3969 16.7394V10.9573C12.3969 10.6536 12.2061 10.4628 11.963 10.4628C11.7179 10.4628 11.5367 10.6536 11.5367 10.9573V16.7394C11.5367 17.0143 11.4802 17.0921 11.2777 17.1859C10.828 17.4427 10.5029 17.9117 10.5029 18.4745C10.5029 19.2941 11.153 19.9463 11.963 19.9463ZM14.9225 8.48324C15.2719 8.48324 15.5361 8.19027 15.5361 7.86754V6.60847C15.5361 6.27402 15.2719 6.00238 14.9225 6.00238C14.5805 6.00238 14.3089 6.27402 14.3089 6.60847V7.86754C14.3089 8.19988 14.5805 8.48324 14.9225 8.48324ZM17.66 9.6202C17.889 9.85668 18.2991 9.85457 18.5335 9.61809L19.4141 8.73004C19.643 8.49144 19.6527 8.09301 19.4044 7.85652C19.1701 7.61793 18.7909 7.62004 18.5598 7.85863L17.6621 8.75207C17.416 8.98855 17.4256 9.37949 17.66 9.6202ZM19.3913 12.9617H20.6408C20.9806 12.9617 21.2565 12.6687 21.2565 12.3577C21.2565 12.0137 20.9806 11.7303 20.6408 11.7303H19.3913C19.0569 11.7303 18.7852 12.0158 18.7852 12.3598C18.7852 12.6687 19.0569 12.9617 19.3913 12.9617ZM18.5598 16.8493C18.7866 17.0783 19.1701 17.0879 19.4044 16.8493C19.6505 16.6128 19.6505 16.2027 19.4119 15.9854L18.5239 15.0877C18.2874 14.8491 17.8965 14.8491 17.66 15.0877C17.4256 15.3242 17.4181 15.7248 17.6621 15.9495L18.5598 16.8493ZM14.8719 15.3859C16.5844 15.4234 17.9635 14.0766 17.9635 12.3598C17.9635 10.6507 16.6156 9.30074 14.9225 9.30074C14.8426 9.30074 14.7626 9.30074 14.6848 9.32418C14.8156 9.6584 14.8836 10.0254 14.8836 10.4159L14.8719 15.3859Z" fill="black"/>
</svg>
