<svg width="28" height="28" viewBox="0 0 28 28" fill="none" xmlns="http://www.w3.org/2000/svg">
<path d="M14.105 26.21C20.7369 26.21 26.2121 20.7273 26.2121 14.105C26.2121 7.47312 20.7273 2 14.0954 2C7.47523 2 2 7.47312 2 14.105C2 20.7273 7.48484 26.21 14.105 26.21ZM14.105 23.8255C8.71085 23.8255 4.39412 19.4991 4.39412 14.105C4.39412 8.71085 8.70124 4.38452 14.0954 4.38452C19.4895 4.38452 23.8276 8.71085 23.8276 14.105C23.8276 19.4991 19.4991 23.8255 14.105 23.8255Z" fill="black"/>
<path d="M14.0059 13.0576C17.8557 13.0576 20.1762 12.0889 20.1762 10.6442C20.1762 9.33265 18.3699 8.55804 15.7885 8.55804C13.9215 8.55804 12.4255 8.89601 11.2909 9.41187C10.9011 9.58765 10.8148 9.99335 10.9555 10.2755C11.1078 10.5908 11.4987 10.6897 11.8468 10.5448C12.8314 10.1483 14.0452 9.76343 15.7374 9.76343C17.716 9.76343 18.8677 10.19 18.8677 10.6346C18.8677 11.1772 16.9707 11.8149 13.9569 11.8149C10.8643 11.8149 9.34226 11.2351 9.34226 10.1682C9.34226 9.50655 9.93992 8.84562 11.6497 8.32108C12.0362 8.19429 12.2216 7.85679 12.1119 7.51601C11.9947 7.18273 11.6827 7.04749 11.244 7.16468C9.10133 7.78929 8.02625 8.95366 8.02625 10.1937C8.02625 12.0711 10.1434 13.0576 14.0059 13.0576ZM14.187 15.1299C16.1605 15.1299 17.9858 14.8144 19.2591 14.2869C19.5945 14.1634 19.7352 13.8141 19.5924 13.5127C19.438 13.2263 19.1143 13.1518 18.7618 13.2828C17.627 13.7187 15.9636 14.0012 14.187 14.0012C12.8497 14.0012 11.3546 13.8413 10.1633 13.4961C9.81078 13.3981 9.49133 13.5174 9.39547 13.8411C9.30711 14.1627 9.48383 14.4779 9.85227 14.5759C11.1416 14.9487 12.789 15.1299 14.187 15.1299ZM14.6206 17.1734C16.2777 17.1617 17.8154 16.9316 19.2294 16.4701C19.6362 16.3198 19.7373 15.9577 19.6255 15.6863C19.5158 15.3849 19.2069 15.2806 18.8213 15.4074C17.4446 15.8476 16.0784 16.0618 14.608 16.0618C13.9845 16.0618 13.3388 16.0191 12.8422 15.9509C12.4524 15.8998 12.2054 16.0787 12.1351 16.3705C12.0744 16.6782 12.2469 16.9827 12.6622 17.0584C13.1555 17.1362 13.8418 17.183 14.6206 17.1734ZM14.0262 19.1211C15.1728 19.2479 16.5929 19.2139 17.7652 18.8952C18.1294 18.7897 18.2806 18.4606 18.1869 18.1742C18.0814 17.8527 17.7833 17.7174 17.402 17.8208C16.4162 18.0713 15.2612 18.147 14.1966 18.0137C13.8102 17.986 13.5364 18.1787 13.4916 18.4918C13.4661 18.789 13.6227 19.0742 14.0262 19.1211ZM13.5978 21.1114C14.0155 21.1583 14.4694 21.1583 14.9094 21.1114C15.2748 21.057 15.4578 20.8163 15.4419 20.5023C15.3992 20.2116 15.1693 19.9902 14.7741 20.0391C14.4268 20.0839 14.0602 20.0935 13.7213 20.0412C13.3358 19.9923 13.0984 20.2234 13.0632 20.4927C13.0259 20.7971 13.2015 21.057 13.5978 21.1114Z" fill="black"/>
</svg>
