<svg width="32" height="31" viewBox="0 0 32 31" fill="none" xmlns="http://www.w3.org/2000/svg">
<path d="M4.99313 26.4833L6.50391 23.8719C6.7275 23.4875 6.61992 23.0372 6.23883 22.8212C5.84813 22.5954 5.42016 22.7253 5.19235 23.1181L3.67196 25.7487C3.45797 26.1139 3.56344 26.562 3.94454 26.7877C4.32563 26.9942 4.78125 26.8601 4.99313 26.4833ZM8.67164 29.7837L10.1803 27.1627C10.4039 26.7879 10.2867 26.3377 9.91524 26.112C9.52453 25.8959 9.09657 26.0258 8.86875 26.409L7.34836 29.0492C7.13649 29.4047 7.24196 29.8529 7.62305 30.0786C8.00203 30.2947 8.45766 30.1585 8.67164 29.7837ZM14.3234 26.4736L15.832 23.8622C16.0556 23.4779 15.9384 23.0276 15.5573 22.8115C15.1762 22.5858 14.7483 22.7157 14.5205 23.1085L13.0001 25.7391C12.7882 26.1043 12.8841 26.5524 13.2748 26.7781C13.6537 26.9846 14.1094 26.8484 14.3234 26.4736ZM17.9901 29.7741L19.5105 27.1531C19.7341 26.7762 19.6148 26.3281 19.2337 26.1024C18.8526 25.8863 18.4268 26.0162 18.1873 26.3994L16.669 29.0396C16.455 29.3951 16.5605 29.8433 16.9512 30.069C17.3226 30.2851 17.7858 30.1489 17.9901 29.7741Z" fill="black"/>
<path d="M23.0878 14.7786C27.4073 15.0554 30.2355 12.7646 31.2354 10.1108C31.6411 9.08465 31.1182 8.17013 30.124 8.17013C29.3681 8.17013 28.758 8.49591 27.5074 8.49591C24.6056 8.49591 23.0932 6.8909 23.0932 4.1902C23.0932 2.82895 23.5097 2.06559 23.5097 1.40723C23.5097 0.371301 22.6101 -0.126979 21.5346 0.239348C18.9258 1.10395 16.7742 3.83887 16.7742 7.10489C16.7742 8.16895 16.9638 9.19364 17.3662 10.1216L19.4929 10.0927C18.9551 9.21496 18.693 8.17106 18.693 7.07606C18.693 4.89027 19.9605 3.1334 21.4767 2.26434L21.6098 2.35809C21.4148 2.9227 21.2369 3.71207 21.2369 4.63246C21.2369 7.98942 23.6599 10.3351 27.0668 10.3351C27.9199 10.3351 28.6617 10.1743 29.1881 10.0027L29.2744 10.0869C28.466 11.5857 26.363 13.1124 23.054 12.8504L23.0878 14.7786Z" fill="black"/>
<path d="M5.14382 20.9471H17.8762C21.3473 20.9471 24.0515 18.3208 24.0515 14.9254C24.0515 11.5374 21.3534 8.99426 17.7935 8.92723C16.4055 6.34184 13.9458 4.79895 10.9816 4.79895C7.04999 4.79895 3.77226 7.78418 3.32226 11.6786C1.33477 12.307 0 14.0387 0 16.2158C0 18.9739 2.08711 20.9471 5.14382 20.9471ZM5.12648 18.7852C3.18491 18.7852 2.16608 17.6874 2.16608 16.2605C2.16608 15.0469 2.89475 13.9982 4.5921 13.5496C5.1778 13.3931 5.38241 13.1247 5.44194 12.5177C5.7621 9.20144 8.11944 6.96081 10.9816 6.96081C13.1897 6.96081 14.9339 8.19152 16.0301 10.3619C16.2984 10.8763 16.586 11.0488 17.2048 11.0488C20.2441 11.0488 21.878 12.8263 21.878 14.9722C21.878 17.1003 20.1726 18.7852 17.8819 18.7852H5.12648Z" fill="black"/>
</svg>
