<svg width="28" height="28" viewBox="0 0 28 28" fill="none" xmlns="http://www.w3.org/2000/svg">
<path d="M14.105 26.2301C20.7369 26.2301 26.2121 20.7549 26.2121 14.123C26.2121 7.50291 20.7273 2.01807 14.0954 2.01807C7.47523 2.01807 2 7.50291 2 14.123C2 20.7549 7.48484 26.2301 14.105 26.2301Z" fill="black"/>
<path d="M7.53494 12.1883C7.13135 12.3097 6.77252 12.1116 6.67994 11.7582C6.56064 11.4207 6.73408 11.0523 7.14728 10.9405C8.23924 10.6112 9.44322 10.3895 10.6153 10.3895C11.9899 10.3895 12.9733 10.6037 14.1626 10.6037C14.7691 10.6037 15.1284 10.2678 15.1284 9.70601C15.1284 9.13882 14.7478 8.81257 14.25 8.81257C13.8661 8.81257 13.559 9.04718 13.413 9.35749C13.215 9.74937 12.8264 9.85366 12.5081 9.68445C12.1619 9.51523 12.1012 9.11796 12.2545 8.81351C12.5836 8.06562 13.3645 7.51788 14.25 7.51788C15.4483 7.51788 16.4381 8.44038 16.4381 9.70601C16.4381 10.9587 15.5231 11.8962 14.1626 11.8962C12.8967 11.8962 11.9175 11.7012 10.6153 11.7012C9.58924 11.7012 8.55353 11.8494 7.53494 12.1883ZM18.7366 15.6165C16.268 15.6165 14.1316 14.3623 11.3079 14.3623C9.91408 14.3623 8.7101 14.5573 7.5551 14.99C7.13767 15.1369 6.77674 14.941 6.67994 14.5737C6.56064 14.248 6.74369 13.8912 7.13135 13.7464C8.42791 13.3116 9.82361 13.0527 11.3079 13.0527C14.2125 13.0527 16.5896 14.3068 18.7366 14.3068C19.8089 14.3068 20.4687 13.76 20.4687 12.886C20.4687 12.0322 19.8621 11.4758 19.068 11.4758C18.4059 11.4758 17.8708 11.9066 17.7548 12.5644C17.6538 12.9894 17.309 13.2141 16.9565 13.1419C16.6094 13.074 16.3781 12.7398 16.4749 12.3212C16.679 11.0977 17.7295 10.1736 19.068 10.1736C20.5701 10.1736 21.7709 11.3241 21.7709 12.886C21.7709 14.468 20.5094 15.6165 18.7366 15.6165ZM14.1626 20.7219C13.0179 20.7219 12.2102 19.917 12.0391 18.8937C11.9606 18.5307 12.1226 18.1271 12.5658 18.0741C12.9588 18.0094 13.2525 18.2867 13.3289 18.6188C13.429 19.1541 13.6912 19.4272 14.1626 19.4272C14.6444 19.4272 14.9974 19.1223 14.9974 18.5551C14.9974 17.6309 13.7231 17.0394 11.1888 17.0394C9.90799 17.0394 8.674 17.2632 7.5551 17.6628C7.13767 17.8098 6.77674 17.5904 6.67994 17.2369C6.55103 16.9133 6.7533 16.5544 7.12174 16.4192C8.37471 15.9983 9.85689 15.7351 11.1888 15.7351C14.4618 15.7351 16.3038 16.7312 16.3038 18.5551C16.3038 19.8303 15.3663 20.7219 14.1626 20.7219Z" fill="white"/>
</svg>
