<svg width="28" height="28" viewBox="0 0 28 28" fill="none" xmlns="http://www.w3.org/2000/svg">
<path d="M14.105 26.2301C20.7369 26.2301 26.2121 20.7549 26.2121 14.123C26.2121 7.50291 20.7273 2.01807 14.0954 2.01807C7.47523 2.01807 2 7.50291 2 14.123C2 20.7549 7.48484 26.2301 14.105 26.2301Z" fill="black"/>
<path d="M7.92153 16.5816C7.52005 16.5816 7.21021 16.2814 7.21021 15.9247C7.21021 15.5595 7.52005 15.2518 7.92153 15.2518H9.28724C9.68872 15.2518 9.99857 15.5499 9.99857 15.9247C9.99857 16.2931 9.68872 16.5816 9.28724 16.5816H7.92153ZM10.2379 13.2059L9.2645 12.2368C8.97271 11.9375 8.97482 11.5287 9.22396 11.2604C9.48482 11.0112 9.90435 10.992 10.1982 11.2838L11.1695 12.2551C11.4421 12.5373 11.4709 12.9643 11.21 13.2273C10.9513 13.4956 10.52 13.4743 10.2379 13.2059ZM14.106 11.7106C13.7376 11.7106 13.4374 11.389 13.4374 11.0068V8.93443L13.4725 8.55591L13.4371 8.58076L12.697 9.32818C12.5713 9.45053 12.3988 9.54193 12.2149 9.54193C11.8794 9.54193 11.6315 9.29396 11.6315 8.96068C11.6315 8.78092 11.7015 8.62553 11.8506 8.47647L13.6462 6.78967C13.7995 6.65022 13.9485 6.5874 14.106 6.5874C14.2635 6.5874 14.4126 6.65022 14.5659 6.78967L16.3593 8.47647C16.5201 8.62553 16.5806 8.78092 16.5806 8.96068C16.5806 9.29396 16.3326 9.54193 15.9972 9.54193C15.8132 9.54193 15.6311 9.46014 15.5247 9.32818L14.8539 8.6192L14.7395 8.52498L14.7747 8.93443V11.0068C14.7747 11.389 14.4745 11.7106 14.106 11.7106ZM17.0212 13.2273C16.7507 12.9643 16.7603 12.5469 17.0521 12.2551L18.0138 11.2838C18.3077 11.0016 18.7272 10.992 18.9881 11.2604C19.2372 11.5287 19.2297 11.9375 18.9475 12.2368L17.9838 13.2059C17.6899 13.4839 17.2799 13.486 17.0212 13.2273ZM18.9344 16.5816C18.535 16.5816 18.2135 16.2931 18.2135 15.9247C18.2135 15.5499 18.535 15.2518 18.9344 15.2518H20.2905C20.7037 15.2518 21.0018 15.5499 21.0018 15.9247C21.0018 16.2814 20.7037 16.5816 20.2905 16.5816H18.9344ZM17.4335 16.119C17.4335 16.4506 17.3737 16.7928 17.2595 17.0989H10.9525C10.8383 16.7928 10.7786 16.4506 10.7786 16.119C10.7786 14.3056 12.2927 12.8012 14.106 12.8012C15.929 12.8012 17.4335 14.3056 17.4335 16.119ZM7.94145 19.2692C7.55942 19.2692 7.21021 18.9575 7.21021 18.5743C7.21021 18.189 7.54771 17.8773 7.94145 17.8773H20.2706C20.6739 17.8773 21.0018 18.1869 21.0018 18.5743C21.0018 18.9596 20.6643 19.2692 20.2706 19.2692H7.94145Z" fill="white"/>
</svg>
