<svg width="28" height="29" viewBox="0 0 28 29" fill="none" xmlns="http://www.w3.org/2000/svg">
<path d="M13.6466 16.5602C14.8103 16.5602 15.7344 15.6382 15.7344 14.4724C15.7344 13.3226 14.7869 12.3846 13.6466 12.3846C12.5085 12.3846 11.5588 13.3343 11.5588 14.4724C11.5588 15.6126 12.4947 16.5602 13.6466 16.5602Z" fill="black"/>
<path d="M13.6466 9.69277C14.6399 9.69277 15.4267 8.90598 15.4267 7.90309C15.4267 6.92364 14.624 6.12091 13.6466 6.12091C12.6693 6.12091 11.8548 6.93536 11.8548 7.90309C11.8548 8.89215 12.6576 9.69277 13.6466 9.69277ZM7.98811 12.9726C8.991 12.9726 9.7799 12.1901 9.7799 11.1809C9.7799 10.1918 8.97717 9.39114 7.98811 9.39114C7.02038 9.39114 6.20593 10.2152 6.20593 11.1809C6.20593 12.1699 7.00866 12.9726 7.98811 12.9726ZM19.2934 12.9726C20.2984 12.9726 21.0852 12.1837 21.0852 11.1809C21.0852 10.1918 20.2825 9.39114 19.2934 9.39114C18.3278 9.39114 17.5134 10.2152 17.5134 11.1809C17.5134 12.172 18.3119 12.9726 19.2934 12.9726ZM7.98811 19.5537C8.991 19.5537 9.7799 18.7669 9.7799 17.764C9.7799 16.7728 8.97928 15.9722 7.98811 15.9722C7.02038 15.9722 6.20593 16.7866 6.20593 17.764C6.20593 18.7413 7.00866 19.5537 7.98811 19.5537ZM19.2934 19.5537C20.2984 19.5537 21.0852 18.7669 21.0852 17.764C21.0852 16.7728 20.2846 15.9722 19.2934 15.9722C18.3257 15.9722 17.5134 16.7845 17.5134 17.764C17.5134 18.7434 18.3119 19.5537 19.2934 19.5537ZM13.6466 22.8218C14.6399 22.8218 15.4267 22.035 15.4267 21.0321C15.4267 20.0505 14.6282 19.2499 13.6466 19.2499C12.6789 19.2499 11.8548 20.0644 11.8548 21.0321C11.8548 22.0212 12.6576 22.8218 13.6466 22.8218Z" fill="black"/>
<path d="M13.6466 2.68476C14.4067 2.68476 14.9783 2.10351 14.9783 1.34343C14.9783 0.597186 14.3929 0 13.6466 0C12.9121 0 12.3032 0.608904 12.3032 1.34343C12.3032 2.08968 12.9004 2.68476 13.6466 2.68476ZM7.98812 5.94116C8.74819 5.94116 9.32944 5.35991 9.32944 4.59984C9.32944 3.85359 8.73437 3.2564 7.98812 3.2564C7.2632 3.2564 6.64679 3.86531 6.64679 4.59984C6.64679 5.34609 7.24187 5.94116 7.98812 5.94116ZM19.2934 5.94116C20.0556 5.94116 20.6369 5.35991 20.6369 4.59984C20.6369 3.85359 20.0397 3.2564 19.2934 3.2564C18.5706 3.2564 17.9521 3.86531 17.9521 4.59984C17.9521 5.3482 18.5451 5.94116 19.2934 5.94116ZM2.33921 9.24444C3.1014 9.24444 3.67304 8.66319 3.67304 7.90312C3.67304 7.16648 3.08546 6.56929 2.33921 6.56929C1.6089 6.56929 1 7.1782 1 7.90312C1 8.64937 1.59297 9.24444 2.33921 9.24444ZM24.9051 9.24444C25.663 9.24444 26.2443 8.66108 26.2443 7.90312C26.2443 7.15687 25.6492 6.56929 24.9051 6.56929C24.1726 6.56929 23.5637 7.1782 23.5637 7.90312C23.5637 8.65148 24.1567 9.24444 24.9051 9.24444ZM2.33921 15.8137C3.08968 15.8137 3.67304 15.2229 3.67304 14.4724C3.67304 13.7262 3.08546 13.129 2.33921 13.129C1.6089 13.129 1 13.7379 1 14.4724C1 15.2187 1.59297 15.8137 2.33921 15.8137ZM24.9051 15.8137C25.663 15.8137 26.2443 15.2304 26.2443 14.4724C26.2443 13.7262 25.6492 13.129 24.9051 13.129C24.1726 13.129 23.5637 13.7379 23.5637 14.4724C23.5637 15.2208 24.1567 15.8137 24.9051 15.8137ZM2.33921 22.3734C3.10773 22.3734 3.67304 21.7922 3.67304 21.0321C3.67304 20.2933 3.08757 19.6983 2.33921 19.6983C1.6068 19.6983 1 20.3072 1 21.0321C1 21.7783 1.59297 22.3734 2.33921 22.3734ZM24.9051 22.3734C25.663 22.3734 26.2443 21.7997 26.2443 21.0321C26.2443 20.2955 25.6513 19.6983 24.9051 19.6983C24.1684 19.6983 23.5637 20.3051 23.5637 21.0321C23.5637 21.7805 24.1567 22.3734 24.9051 22.3734ZM7.98812 25.6767C8.74819 25.6767 9.32944 25.1051 9.32944 24.345C9.32944 23.5966 8.73648 23.0016 7.98812 23.0016C7.2632 23.0016 6.64679 23.6105 6.64679 24.345C6.64679 25.0912 7.24187 25.6767 7.98812 25.6767ZM19.2934 25.6767C20.0556 25.6767 20.6369 25.1051 20.6369 24.345C20.6369 23.5966 20.0418 23.0016 19.2934 23.0016C18.5685 23.0016 17.9521 23.6083 17.9521 24.345C17.9521 25.0933 18.5451 25.6767 19.2934 25.6767ZM13.6466 28.9427C14.4046 28.9427 14.9783 28.3594 14.9783 27.6014C14.9783 26.853 14.395 26.2601 13.6466 26.2601C12.9121 26.2601 12.3032 26.8669 12.3032 27.6014C12.3032 28.3476 12.9004 28.9427 13.6466 28.9427Z" fill="black"/>
</svg>
