<svg width="28" height="28" viewBox="0 0 28 28" fill="none" xmlns="http://www.w3.org/2000/svg">
<path d="M14.105 26.21C20.7369 26.21 26.2121 20.7273 26.2121 14.105C26.2121 7.47312 20.7273 2 14.0954 2C7.47523 2 2 7.47312 2 14.105C2 20.7273 7.48484 26.21 14.105 26.21ZM14.105 23.8255C8.71085 23.8255 4.39412 19.4991 4.39412 14.105C4.39412 8.71085 8.70124 4.38452 14.0954 4.38452C19.4895 4.38452 23.8276 8.71085 23.8276 14.105C23.8276 19.4991 19.4991 23.8255 14.105 23.8255Z" fill="black"/>
<path d="M10.437 15.6584H17.2379C19.029 15.6584 20.4045 14.2775 20.4045 12.5675C20.4045 10.7914 18.9755 9.48312 17.1087 9.48312C16.4087 8.12773 15.1459 7.276 13.554 7.276C11.4868 7.276 9.78076 8.86835 9.56467 10.9259C8.55686 11.2337 7.81506 12.102 7.81506 13.2582C7.81506 14.593 8.79076 15.6584 10.437 15.6584ZM10.3196 18.917L11.1137 17.5388C11.2606 17.2843 11.1765 16.9423 10.9123 16.7975C10.6482 16.643 10.3233 16.7347 10.1689 16.9988L9.37482 18.3673C9.22037 18.6294 9.30451 18.9734 9.57826 19.1183C9.84029 19.2727 10.1651 19.179 10.3196 18.917ZM11.9445 20.652L13.7469 17.543C13.8875 17.2831 13.8076 16.9466 13.5359 16.8017C13.2793 16.6473 12.9523 16.7335 12.8021 17.003L10.9998 20.112C10.857 20.3623 10.939 20.7085 11.2128 20.8534C11.4652 21.0078 11.7922 20.912 11.9445 20.652ZM15.5626 18.917L16.3587 17.5388C16.5132 17.2843 16.4291 16.9423 16.1574 16.7975C15.9008 16.643 15.5684 16.7347 15.4236 16.9988L14.6178 18.3673C14.473 18.6294 14.5571 18.9734 14.8309 19.1183C15.0854 19.2727 15.4081 19.179 15.5626 18.917ZM17.1875 20.652L18.9898 17.543C19.1422 17.2831 19.0505 16.9466 18.7885 16.8017C18.5223 16.6473 18.1974 16.7335 18.0451 17.003L16.2523 20.112C16.1 20.3623 16.182 20.7085 16.4558 20.8534C16.7082 21.0078 17.0448 20.912 17.1875 20.652Z" fill="black"/>
</svg>
