<svg width="28" height="28" viewBox="0 0 28 28" fill="none" xmlns="http://www.w3.org/2000/svg">
<path d="M14.105 26.2301C20.7369 26.2301 26.2121 20.7549 26.2121 14.123C26.2121 7.50291 20.7273 2.01807 14.0954 2.01807C7.47523 2.01807 2 7.50291 2 14.123C2 20.7549 7.48484 26.2301 14.105 26.2301Z" fill="black"/>
<path d="M10.3294 15.7255C8.63419 15.7255 7.62122 14.6227 7.62122 13.2507C7.62122 12.0573 8.38435 11.1558 9.42942 10.8364C9.64763 8.71597 11.4143 7.07886 13.5423 7.07886C15.1927 7.07886 16.4907 7.96151 17.2142 9.36378C19.1417 9.36378 20.6197 10.6997 20.6197 12.5366C20.6197 14.3169 19.1952 15.7255 17.3434 15.7255H10.3294ZM10.6632 19.1033C10.5183 19.3791 10.1722 19.4708 9.90802 19.3163C9.62044 19.1598 9.5363 18.804 9.69075 18.5377L10.5104 17.1223C10.6648 16.8507 11.011 16.7644 11.2793 16.9114C11.5531 17.0755 11.6468 17.4216 11.4828 17.6858L10.6632 19.1033ZM12.6725 20.8468C12.518 21.0992 12.1815 21.2047 11.9152 21.0481C11.6276 20.8937 11.5456 20.5475 11.7 20.2737L12.5293 18.8562C12.6741 18.5921 13.0203 18.4887 13.2887 18.6453C13.572 18.7998 13.6562 19.1459 13.4921 19.4218L12.6725 20.8468ZM15.7198 19.0937C15.575 19.3674 15.2288 19.4612 14.9626 19.3067C14.675 19.1502 14.593 18.7944 14.7591 18.5281L15.5766 17.1127C15.7236 16.8411 16.0698 16.7548 16.336 16.9018C16.6194 17.0659 16.7035 17.412 16.5394 17.6762L15.7198 19.0937ZM17.7038 20.8468C17.559 21.0992 17.2128 21.2047 16.9466 21.0481C16.6707 20.8937 16.5769 20.5475 16.741 20.2737L17.5606 18.8562C17.7055 18.5921 18.0516 18.4887 18.32 18.6453C18.6034 18.7998 18.6875 19.1459 18.5427 19.4218L17.7038 20.8468Z" fill="white"/>
</svg>
