<svg width="28" height="28" viewBox="0 0 28 28" fill="none" xmlns="http://www.w3.org/2000/svg">
<path d="M14.105 26.21C20.7369 26.21 26.2121 20.7273 26.2121 14.105C26.2121 7.47312 20.7273 2 14.0954 2C7.47523 2 2 7.47312 2 14.105C2 20.7273 7.48484 26.21 14.105 26.21ZM14.105 23.8255C8.71085 23.8255 4.39412 19.4991 4.39412 14.105C4.39412 8.71085 8.70124 4.38452 14.0954 4.38452C19.4895 4.38452 23.8276 8.71085 23.8276 14.105C23.8276 19.4991 19.4991 23.8255 14.105 23.8255Z" fill="black"/>
<path d="M9.93751 18.3784H17.6552C19.6741 18.3784 21.2456 16.8591 21.2456 14.8946C21.2456 12.8886 19.642 11.3919 17.4855 11.4132C16.7088 9.83513 15.2639 8.91638 13.4815 8.91638C11.1417 8.91638 9.20462 10.6951 8.97798 13.0327C7.77306 13.3916 6.96423 14.4144 6.96423 15.6673C6.96423 17.2545 8.15837 18.3784 9.93751 18.3784Z" fill="black"/>
</svg>
