<svg width="28" height="28" viewBox="0 0 28 28" fill="none" xmlns="http://www.w3.org/2000/svg">
<path d="M14.105 26.21C20.7369 26.21 26.2121 20.7273 26.2121 14.105C26.2121 7.47312 20.7273 2 14.0954 2C7.47523 2 2 7.47312 2 14.105C2 20.7273 7.48484 26.21 14.105 26.21ZM14.105 23.8255C8.71085 23.8255 4.39412 19.4991 4.39412 14.105C4.39412 8.71085 8.70124 4.38452 14.0954 4.38452C19.4895 4.38452 23.8276 8.71085 23.8276 14.105C23.8276 19.4991 19.4991 23.8255 14.105 23.8255Z" fill="black"/>
<path d="M10.1037 14.9063H18.4602C18.6608 14.6652 18.7974 14.4069 18.9266 14.1177C19.0426 13.8387 19.0191 13.5908 18.868 13.4342C18.736 13.314 18.5253 13.2905 18.272 13.3852C17.8498 13.5685 17.3159 13.6484 16.7127 13.6484C14.2229 13.6484 12.6444 12.1189 12.6444 9.6898C12.6444 9.05558 12.7456 8.37659 12.9448 7.98893C13.0801 7.71964 13.0566 7.49605 12.9406 7.33526C12.7991 7.17448 12.5424 7.13933 12.2401 7.26495C10.4384 8.0023 9.21641 9.8637 9.21641 12.0024C9.21641 13.1037 9.54383 14.093 10.1037 14.9063ZM8.42492 16.6538H20.5257C20.777 16.6538 20.9675 16.4612 20.9675 16.212C20.9675 15.9512 20.777 15.7606 20.5257 15.7606H8.42492C8.17578 15.7606 7.98313 15.9608 7.98313 16.212C7.98313 16.4612 8.17578 16.6538 8.42492 16.6538ZM7.67467 18.3141H19.7659C20.0171 18.3141 20.2077 18.1236 20.2077 17.8723C20.2077 17.6136 20.0171 17.4209 19.7659 17.4209H7.67467C7.42343 17.4209 7.22327 17.6232 7.22327 17.8723C7.22327 18.1236 7.42343 18.3141 7.67467 18.3141ZM8.42492 19.9766H20.5257C20.777 19.9766 20.9675 19.786 20.9675 19.5348C20.9675 19.276 20.777 19.0834 20.5257 19.0834H8.42492C8.17578 19.0834 7.98313 19.2856 7.98313 19.5348C7.98313 19.786 8.17578 19.9766 8.42492 19.9766Z" fill="black"/>
</svg>
