<svg width="28" height="28" viewBox="0 0 28 28" fill="none" xmlns="http://www.w3.org/2000/svg">
<path d="M5.88112 11.1485C11.174 11.1485 13.9814 6.73055 18.8409 6.73055C19.9746 6.73055 20.9667 6.98414 22.1367 7.65328C22.6891 7.95984 23.2338 7.77023 23.5263 7.35539C23.872 6.85758 23.7925 6.1404 23.0814 5.72204C21.7446 4.95399 20.3578 4.58228 18.8409 4.58228C13.4615 4.58228 10.6734 9.00235 5.88112 9.00235C4.73784 9.00235 3.74573 8.74664 2.57573 8.07751C2.0212 7.76884 1.4744 7.96267 1.18612 8.39134C0.861751 8.88914 0.931592 9.60211 1.63307 10.0109C2.96784 10.7768 4.35464 11.1485 5.88112 11.1485ZM5.89284 17.4415C10.4301 17.4415 13.1957 14.0763 17.0639 13.2825C17.4904 12.4751 17.9266 11.689 18.3532 10.8837C13.188 11.1804 10.5681 15.2932 5.89284 15.2932C4.74956 15.2932 3.75956 15.0279 2.58744 14.3588C2.04252 14.0501 1.48612 14.2439 1.20956 14.6726C0.875579 15.1704 0.943311 15.8834 1.64479 16.2921C2.97956 17.058 4.37596 17.4415 5.89284 17.4415ZM5.88112 23.7227C9.37589 23.7227 11.8178 21.7233 14.5129 20.4523C14.4269 19.7995 14.5612 18.8168 14.8059 18.0199C11.7267 19.2907 9.33136 21.5745 5.88112 21.5745C4.73784 21.5745 3.74573 21.3188 2.57573 20.64C2.0212 20.3313 1.4744 20.5252 1.18612 20.9538C0.861751 21.4516 0.931592 22.1742 1.63307 22.5734C2.96784 23.3489 4.35464 23.7227 5.88112 23.7227Z" fill="black"/>
<path d="M21.2742 25.2966C24.1457 25.2966 26.4517 23.047 26.4517 20.2362C26.4517 18.6853 25.6795 17.1738 25.0349 15.9668L22.4217 11.1056C22.1299 10.5572 21.8214 10.3156 21.2742 10.3156C20.7173 10.3156 20.4067 10.5614 20.115 11.1056L17.5251 15.9668C16.8785 17.1738 16.1062 18.6853 16.1062 20.2362C16.1062 23.047 18.4047 25.2966 21.2742 25.2966ZM21.2742 23.5134C19.3889 23.5134 17.8893 22.0683 17.8893 20.2362C17.8893 19.1055 18.4722 18.0122 19.1071 16.8051L21.1666 12.9816C21.2252 12.8644 21.3349 12.8644 21.4031 12.9816L23.4316 16.8051C24.0761 18.0122 24.6665 19.1055 24.6665 20.2362C24.6665 22.0683 23.1595 23.5134 21.2742 23.5134Z" fill="black"/>
</svg>
