<svg width="28" height="28" viewBox="0 0 28 28" fill="none" xmlns="http://www.w3.org/2000/svg">
<path d="M13.0002 1C11.0204 1 9.5488 2.2082 9.17356 4.09586L9.15974 4.74274L11.0408 6.62593V5.3671C11.0408 3.96718 11.8293 3.02428 13.0002 3.02428C14.1339 3.02428 14.932 3.96718 14.932 5.3671V10.517L16.9509 12.5413V5.35233C16.9509 2.75031 15.3466 1 13.0002 1ZM13.0002 27.3998C16.0863 27.3998 18.6459 25.2067 19.206 22.3023C19.237 22.0729 19.2508 21.8413 19.2433 21.6215L16.9553 19.3356C17.219 19.8458 17.3652 20.418 17.3652 21.0168C17.3652 23.4236 15.3953 25.3968 13.0002 25.3968C10.5657 25.3968 8.60965 23.4194 8.60965 21.0041C8.60965 19.5203 9.30527 18.2214 10.5411 17.3957C10.9023 17.1538 11.0408 16.9396 11.0408 16.4612V13.3485L9.01443 11.32V15.6332C9.01443 15.9763 8.96966 16.1127 8.71818 16.3333C7.31732 17.6095 6.58325 19.2081 6.58325 21.0294C6.58325 24.5563 9.44989 27.3998 13.0002 27.3998ZM12.9864 23.8148C14.542 23.8148 15.7949 22.5618 15.7949 20.9945C15.7949 19.9056 15.1802 19.0117 14.2863 18.5259C13.9154 18.3266 13.7865 18.186 13.7865 17.6181V16.0825L12.1862 14.4801V17.6181C12.1862 18.186 12.0594 18.3266 11.6865 18.5259C10.7947 19.0117 10.18 19.9056 10.18 20.9945C10.18 22.5618 11.4329 23.8148 12.9864 23.8148ZM19.1835 5.55811H21.7581C22.1894 5.55811 22.4812 5.23116 22.4812 4.84679C22.4812 4.4603 22.1894 4.13335 21.7581 4.13335H19.1835C18.7523 4.13335 18.4605 4.4603 18.4605 4.84679C18.4605 5.23116 18.7523 5.55811 19.1835 5.55811ZM19.1835 8.81523H21.7581C22.1894 8.81523 22.4812 8.48827 22.4812 8.10179C22.4812 7.71531 22.1894 7.39046 21.7581 7.39046H19.1835C18.7523 7.39046 18.4605 7.71531 18.4605 8.10179C18.4605 8.48827 18.7523 8.81523 19.1835 8.81523ZM19.1835 12.0829H21.7581C22.1894 12.0829 22.4812 11.7559 22.4812 11.3694C22.4812 10.9851 22.1894 10.6485 21.7581 10.6485H19.1835C18.7523 10.6485 18.4605 10.9851 18.4605 11.3694C18.4605 11.7559 18.7523 12.0829 19.1835 12.0829Z" fill="black"/>
<path d="M23.0405 23.2975C23.4048 23.6596 24.0076 23.6617 24.3601 23.2975C24.7105 22.9333 24.7243 22.3422 24.3601 21.978L5.59766 3.22936C5.23555 2.86514 4.64024 2.85553 4.26641 3.22936C3.91602 3.57975 3.90641 4.19639 4.26641 4.54889L23.0405 23.2975Z" fill="black"/>
</svg>
