<svg width="32" height="31" viewBox="0 0 32 31" fill="none" xmlns="http://www.w3.org/2000/svg">
<path d="M4.86602 26.4347L6.38641 23.8233C6.61001 23.4368 6.49282 22.9887 6.11173 22.7705C5.73064 22.5448 5.30267 22.6746 5.06525 23.0675L3.54486 25.7002C3.33087 26.0654 3.43634 26.5114 3.82704 26.7392C4.19853 26.9457 4.65415 26.8095 4.86602 26.4347ZM8.54454 29.7331L10.0532 27.1121C10.2864 26.7373 10.1692 26.2871 9.78813 26.0614C9.40704 25.8453 8.97907 25.9751 8.74165 26.3583L7.22126 28.9986C7.00939 29.3562 7.11486 29.8022 7.50556 30.0279C7.87493 30.244 8.33056 30.11 8.54454 29.7331ZM14.1962 26.4251L15.7049 23.8137C15.9285 23.4272 15.8113 22.977 15.4398 22.7609C15.0491 22.5352 14.6211 22.665 14.3933 23.0579L12.8729 25.6906C12.6611 26.0557 12.7569 26.5018 13.1476 26.7275C13.5266 26.9339 13.9822 26.7999 14.1962 26.4251ZM17.8726 29.7235L19.3834 27.1025C19.607 26.7277 19.4877 26.2775 19.1066 26.0518C18.7255 25.8357 18.2997 25.9655 18.0697 26.3487L16.5515 28.9889C16.3375 29.3466 16.4333 29.7926 16.824 30.0183C17.2051 30.2344 17.6586 30.1003 17.8726 29.7235Z" fill="black"/>
<path d="M25.4592 14.5245C29.0859 13.8019 31.2614 10.8308 31.2614 8.86879C31.2614 8.39488 31.0483 8.0466 30.6628 8.0466C30.075 8.0466 29.2005 8.79027 27.558 8.79238C24.7186 8.79871 22.9392 7.08449 22.9392 4.48058C22.9392 2.89996 23.7375 1.75598 23.7375 1.09996C23.7375 0.726129 23.4851 0.483317 23.0121 0.495035C20.88 0.582457 18.0375 2.96488 17.3901 6.14324C17.7872 6.51683 18.1598 7.0055 18.4601 7.6498C22.3333 7.92074 25.3129 10.8699 25.4592 14.5245Z" fill="black"/>
<path d="M4.93078 20.7561H17.9311C21.2707 20.7561 23.8509 18.2145 23.8509 14.9072C23.8509 11.5758 21.1964 9.08347 17.6313 9.06847C16.2961 6.53534 13.8923 4.90222 10.8602 4.90222C6.96515 4.90222 3.68015 7.90081 3.33281 11.8079C1.30476 12.3971 0 14.1183 0 16.2314C0 18.9155 2.00578 20.7561 4.93078 20.7561Z" fill="black"/>
</svg>
