<svg width="28" height="28" viewBox="0 0 28 28" fill="none" xmlns="http://www.w3.org/2000/svg">
<path d="M14.105 26.2301C20.7369 26.2301 26.2121 20.7549 26.2121 14.123C26.2121 7.50291 20.7273 2.01807 14.0954 2.01807C7.47523 2.01807 2 7.50291 2 14.123C2 20.7549 7.48484 26.2301 14.105 26.2301Z" fill="black"/>
<path d="M14.0059 13.0341C9.98493 13.0341 7.79236 12.0116 7.79236 10.0534C7.79236 8.76757 8.90142 7.55749 11.1291 6.90734C11.5956 6.78804 11.9234 6.92538 12.0427 7.28421C12.1545 7.64304 11.9649 7.99226 11.5646 8.12327C9.78571 8.66913 9.16251 9.35773 9.16251 10.0278C9.16251 11.1362 10.7398 11.7395 13.9548 11.7395C17.0729 11.7395 19.0475 11.0804 19.0475 10.5219C19.0475 10.0538 17.8522 9.61554 15.7948 9.61554C14.0452 9.61554 12.7857 10.0121 11.7617 10.4246C11.3977 10.5812 10.993 10.4802 10.8364 10.149C10.6841 9.86046 10.7724 9.43882 11.1781 9.24921C12.3563 8.71202 13.9119 8.36023 15.8577 8.36023C18.5326 8.36023 20.408 9.1646 20.408 10.5315C20.408 12.024 17.9982 13.0341 14.0059 13.0341ZM14.187 15.1894C12.7454 15.1894 11.0288 14.9966 9.69173 14.6119C9.30947 14.5119 9.12103 14.1807 9.20939 13.8528C9.31697 13.5057 9.65025 13.3843 10.0187 13.4919C11.2536 13.853 12.8061 14.0246 14.187 14.0246C16.0327 14.0246 17.7556 13.7209 18.9341 13.2807C19.3004 13.1359 19.6421 13.205 19.8062 13.5106C19.951 13.828 19.8083 14.1835 19.4569 14.3209C18.1304 14.8623 16.2434 15.1894 14.187 15.1894ZM14.6366 17.3201C13.828 17.3298 13.1141 17.2829 12.6048 17.1912C12.1735 17.1155 11.9989 16.7973 12.0617 16.4853C12.1299 16.1776 12.3929 15.9945 12.7986 16.0381C13.3112 16.1063 13.9845 16.1586 14.6218 16.1586C16.1518 16.1586 17.5712 15.9327 19.0053 15.4669C19.4068 15.3498 19.7295 15.4583 19.8434 15.7639C19.9531 16.0491 19.85 16.4368 19.4272 16.5795C17.9579 17.0644 16.3627 17.3063 14.6366 17.3201ZM14.0241 19.3508C13.6046 19.2847 13.4363 18.9931 13.4619 18.6821C13.5066 18.353 13.7963 18.1466 14.1966 18.1838C15.3069 18.3214 16.5034 18.2436 17.5285 17.9813C17.9279 17.8855 18.2377 18.0132 18.3474 18.3486C18.4391 18.6509 18.2879 18.9959 17.9077 19.1131C16.6939 19.434 15.2164 19.4797 14.0241 19.3508ZM13.5819 21.4166C13.1696 21.3622 12.9823 21.0767 13.0196 20.768C13.0548 20.4732 13.306 20.24 13.7075 20.2986C14.0602 20.3412 14.4406 20.3316 14.8018 20.2869C15.2129 20.2379 15.4587 20.4615 15.5014 20.768C15.5173 21.0959 15.3184 21.3622 14.9391 21.4069C14.4854 21.4517 14.0155 21.4613 13.5819 21.4166Z" fill="white"/>
</svg>
