<svg width="28" height="28" viewBox="0 0 28 28" fill="none" xmlns="http://www.w3.org/2000/svg">
<path d="M14.105 26.21C20.7369 26.21 26.2121 20.7273 26.2121 14.105C26.2121 7.47312 20.7273 2 14.0954 2C7.47523 2 2 7.47312 2 14.105C2 20.7273 7.48484 26.21 14.105 26.21ZM14.105 23.8255C8.71085 23.8255 4.39412 19.4991 4.39412 14.105C4.39412 8.71085 8.70124 4.38452 14.0954 4.38452C19.4895 4.38452 23.8276 8.71085 23.8276 14.105C23.8276 19.4991 19.4991 23.8255 14.105 23.8255Z" fill="black"/>
<path d="M11.1336 19.0674H18.774C20.3656 19.0674 21.4639 17.9466 21.4639 16.4968C21.4639 15.2799 20.6091 14.24 19.4434 13.9824C19.3201 12.4576 18.0692 11.2362 16.5092 11.2362C15.5 11.2362 14.6187 11.7266 14.086 12.5119C13.8259 12.4309 13.6041 12.3903 13.3323 12.3903C12.1334 12.3903 11.1415 13.2547 10.9308 14.412C9.69264 14.4809 8.73029 15.4995 8.73029 16.7227C8.73029 18.0458 9.70599 19.0674 11.1336 19.0674ZM6.37341 13.3979C6.37341 14.4341 6.96451 15.339 8.03701 15.7688C8.35998 14.7409 9.20068 13.9313 10.265 13.662C10.741 12.4184 11.9321 11.5456 13.3323 11.5456C13.4731 11.5456 13.6182 11.5648 13.7591 11.5862C14.4533 10.813 15.418 10.4248 16.4366 10.4192C16.2355 9.80866 15.5591 9.27873 14.5463 9.27873C14.2543 9.27873 14.0145 9.331 13.7555 9.41092C13.2005 8.60748 12.3373 8.12982 11.3452 8.12982C9.79482 8.12982 8.51513 9.34905 8.40146 10.8622C7.21646 11.139 6.37341 12.1714 6.37341 13.3979Z" fill="black"/>
</svg>
