<svg width="28" height="28" viewBox="0 0 28 28" fill="none" xmlns="http://www.w3.org/2000/svg">
<path d="M14.105 26.2301C20.7369 26.2301 26.2121 20.7549 26.2121 14.123C26.2121 7.50291 20.7273 2.01807 14.0954 2.01807C7.47523 2.01807 2 7.50291 2 14.123C2 20.7549 7.48484 26.2301 14.105 26.2301Z" fill="black"/>
<path d="M9.94112 14.9574C9.36737 14.1165 9.03033 13.0974 9.03033 11.9684C9.03033 9.74256 10.2939 7.80241 12.1688 7.0353C12.4871 6.90756 12.7576 6.94061 12.8991 7.10561C13.0194 7.27811 13.0428 7.51553 12.9055 7.79115C12.7041 8.19686 12.5912 8.89928 12.5912 9.57076C12.5912 12.0732 14.2367 13.6677 16.8116 13.6677C17.4404 13.6677 17.9881 13.576 18.4262 13.3906C18.6934 13.2842 18.9083 13.3173 19.0541 13.4396C19.2073 13.6004 19.2308 13.8622 19.1148 14.1474C18.9856 14.4462 18.8373 14.7259 18.6366 14.9574H9.94112ZM8.20487 16.7804C7.93979 16.7804 7.74713 16.5856 7.74713 16.3205C7.74713 16.0555 7.93979 15.8607 8.20487 15.8607H20.762C21.027 15.8607 21.2218 16.0555 21.2218 16.3205C21.2218 16.5856 21.027 16.7804 20.762 16.7804H8.20487ZM7.43845 18.5183C7.17337 18.5183 6.96899 18.3139 6.96899 18.0488C6.96899 17.7934 7.17337 17.5911 7.43845 17.5911H19.9838C20.2489 17.5911 20.4437 17.7934 20.4437 18.0488C20.4437 18.3139 20.2489 18.5183 19.9838 18.5183H7.43845ZM8.20487 20.2466C7.93979 20.2466 7.74713 20.0497 7.74713 19.7846C7.74713 19.5216 7.93979 19.3269 8.20487 19.3269H20.762C21.027 19.3269 21.2218 19.5216 21.2218 19.7846C21.2218 20.0497 21.027 20.2466 20.762 20.2466H8.20487Z" fill="white"/>
</svg>
