<svg width="28" height="28" viewBox="0 0 28 28" fill="none" xmlns="http://www.w3.org/2000/svg">
<path d="M14.105 26.2301C20.7369 26.2301 26.2121 20.7549 26.2121 14.123C26.2121 7.50291 20.7273 2.01807 14.0954 2.01807C7.47523 2.01807 2 7.50291 2 14.123C2 20.7549 7.48484 26.2301 14.105 26.2301Z" fill="black"/>
<path d="M11.8599 22.0798C9.96173 22.0798 8.44275 20.5693 8.44275 18.6849C8.44275 17.7144 8.82642 16.8535 9.57337 16.1727C9.71189 16.0714 9.73111 15.9915 9.73111 15.8295V10.302C9.73111 8.941 10.5831 7.99952 11.8599 7.99952C13.1112 7.99952 13.977 8.941 13.977 10.302L13.9674 15.8295C13.9674 15.9915 13.9887 16.0672 14.1113 16.1727C14.8658 16.8598 15.2633 17.7144 15.2633 18.6849C15.2633 20.5693 13.7464 22.0798 11.8599 22.0798ZM11.8599 20.9741C13.1152 20.9741 14.1542 19.9606 14.1542 18.6702C14.1542 17.8838 13.7834 17.2177 13.1323 16.7734C12.9223 16.6412 12.8499 16.5207 12.8499 16.2479V10.3489C12.8499 9.61577 12.4524 9.12663 11.8599 9.12663C11.2365 9.12663 10.839 9.61577 10.839 10.3489V16.2479C10.839 16.5207 10.7687 16.6412 10.5566 16.7734C9.9172 17.2177 9.55813 17.8838 9.55813 18.6702C9.55813 19.9606 10.5641 20.9741 11.8599 20.9741ZM11.8482 20.1898C11.0106 20.1898 10.3348 19.5195 10.3348 18.6605C10.3348 18.0819 10.6716 17.5991 11.1373 17.338C11.3537 17.2346 11.4102 17.1643 11.4102 16.868V10.8669C11.4102 10.5514 11.5934 10.3585 11.8482 10.3585C12.0955 10.3585 12.3001 10.5514 12.3001 10.8669V16.868C12.3001 17.1643 12.3566 17.2346 12.5398 17.338C13.0386 17.6087 13.3733 18.0819 13.3733 18.6605C13.3733 19.5099 12.6955 20.1898 11.8482 20.1898ZM14.9267 8.29718C14.5709 8.29718 14.2855 7.99788 14.2855 7.65171V6.35327C14.2855 6.0146 14.5709 5.71741 14.9267 5.71741C15.2921 5.71741 15.5701 6.0146 15.5701 6.35327V7.65171C15.5701 7.99788 15.2921 8.29718 14.9267 8.29718ZM17.7673 9.47562C17.5191 9.2232 17.5095 8.81843 17.7716 8.56601L18.6948 7.64702C18.9397 7.39671 19.3306 7.39249 19.583 7.6428C19.843 7.89101 19.8334 8.3096 19.5927 8.5503L18.6823 9.47351C18.4341 9.71421 18.0101 9.71632 17.7673 9.47562ZM19.5678 12.9575C19.2195 12.9575 18.9341 12.6507 18.9341 12.3184C18.9341 11.9701 19.2195 11.6612 19.5678 11.6612H20.8587C21.2145 11.6612 21.5021 11.968 21.5021 12.3141C21.5021 12.6507 21.2145 12.9575 20.8587 12.9575H19.5678ZM18.6948 16.9876L17.7716 16.0623C17.5116 15.8216 17.5191 15.4072 17.7673 15.1686C18.0176 14.9141 18.4224 14.9141 18.6727 15.1686L19.5884 16.0822C19.8387 16.3133 19.8387 16.7415 19.583 16.9876C19.3306 17.2283 18.9334 17.2187 18.6948 16.9876ZM14.8803 15.4709L14.8899 10.302C14.8899 9.901 14.8241 9.51804 14.6773 9.16577C14.7648 9.15195 14.8468 9.14234 14.9267 9.14234C16.6815 9.14234 18.0847 10.5594 18.0847 12.3184C18.0847 14.1064 16.6503 15.4946 14.8803 15.4709Z" fill="white"/>
</svg>
