<svg width="28" height="28" viewBox="0 0 28 28" fill="none" xmlns="http://www.w3.org/2000/svg">
<path d="M14.105 26.2301C20.7369 26.2301 26.2121 20.7549 26.2121 14.123C26.2121 7.50291 20.7273 2.01807 14.0954 2.01807C7.47523 2.01807 2 7.50291 2 14.123C2 20.7549 7.48484 26.2301 14.105 26.2301Z" fill="black"/>
<path d="M8.94823 17.0492C7.53542 17.0492 6.58081 16.1361 6.58081 14.8641C6.58081 13.8392 7.20519 13.0444 8.11714 12.7323C8.31425 10.9381 9.85058 9.51779 11.6883 9.51779C13.1197 9.51779 14.2419 10.3027 14.8707 11.457C16.5305 11.4858 17.7697 12.6791 17.7697 14.2482C17.7697 15.8314 16.5507 17.0492 14.9429 17.0492H8.94823ZM21.6495 11.1197C21.6495 12.1128 20.4922 13.6196 18.6123 13.8472C18.4334 12.1531 17.1357 10.85 15.368 10.6273C15.2424 10.4644 15.1168 10.2877 14.9731 10.129C15.1787 8.47131 16.6168 7.186 17.7113 7.13373C17.934 7.13373 18.0746 7.2392 18.0746 7.4267C18.0746 7.72811 17.6717 8.27045 17.6717 9.01623C17.6717 10.2748 18.5286 11.0837 19.9044 11.0815C20.6652 11.0815 21.1041 10.7405 21.3821 10.7405C21.5579 10.7405 21.6495 10.8833 21.6495 11.1197ZM10.4475 19.6843L11.2296 17.8791C11.2861 17.7544 11.3618 17.7034 11.5313 17.7034H12.9219C13.0679 17.7034 13.119 17.813 13.0487 17.9548L12.5187 18.9477H13.7544C13.9398 18.9477 13.9962 19.1255 13.8673 19.2577L11.1216 21.9364C10.9789 22.0515 10.8136 21.9535 10.8701 21.8096L11.645 19.9454H10.5957C10.4454 19.9454 10.3793 19.8324 10.4475 19.6843Z" fill="white"/>
</svg>
