<svg width="28" height="28" viewBox="0 0 28 28" fill="none" xmlns="http://www.w3.org/2000/svg">
<path d="M14.105 26.21C20.7369 26.21 26.2121 20.7273 26.2121 14.105C26.2121 7.47312 20.7273 2 14.0954 2C7.47523 2 2 7.47312 2 14.105C2 20.7273 7.48484 26.21 14.105 26.21ZM14.105 23.8255C8.71085 23.8255 4.39412 19.4991 4.39412 14.105C4.39412 8.71085 8.70124 4.38452 14.0954 4.38452C19.4895 4.38452 23.8276 8.71085 23.8276 14.105C23.8276 19.4991 19.4991 23.8255 14.105 23.8255Z" fill="black"/>
<path d="M8.67403 17.4244H14.4444C15.9948 17.4244 17.1702 16.2427 17.1702 14.7169C17.1702 13.2073 15.9746 12.0577 14.3668 12.0289C13.7635 10.9161 12.6903 10.1705 11.311 10.1705C9.5445 10.1705 8.0677 11.5259 7.8727 13.268C7.00013 13.5589 6.3938 14.3335 6.3938 15.3169C6.3938 16.5315 7.30481 17.4244 8.67403 17.4244ZM13.2941 9.66685C13.5113 9.88623 13.8755 9.86279 14.0832 9.66896C14.2812 9.46342 14.2941 9.10131 14.0832 8.89365L13.2964 8.11014C13.0728 7.90248 12.732 7.9067 12.5169 8.11014C12.305 8.30818 12.3134 8.66068 12.5211 8.87795L13.2941 9.66685ZM16.4232 8.68224C16.7384 8.68224 16.9791 8.43943 16.9791 8.13592V7.03037C16.9791 6.73435 16.7384 6.48193 16.4232 6.48193C16.1314 6.48193 15.879 6.73435 15.879 7.03037V8.13592C15.879 8.43943 16.1314 8.68224 16.4232 8.68224ZM18.7909 9.65935C18.9943 9.86279 19.3702 9.88623 19.5833 9.66896L20.3509 8.88006C20.5606 8.6724 20.5531 8.30818 20.353 8.11224C20.1399 7.90248 19.7949 7.89287 19.5777 8.11224L18.7909 8.89154C18.5736 9.10131 18.5907 9.45381 18.7909 9.65935ZM20.3197 12.5649H21.4081C21.7212 12.5649 21.962 12.3221 21.962 12.0207C21.962 11.7097 21.7212 11.4723 21.4081 11.4723H20.3197C20.0279 11.4723 19.7734 11.7097 19.7734 12.0207C19.7734 12.3221 20.0279 12.5649 20.3197 12.5649ZM19.5777 15.9505C19.7949 16.1677 20.1378 16.1464 20.353 15.9387C20.551 15.7194 20.5606 15.3615 20.3509 15.1634L19.5875 14.398C19.3681 14.1903 19.0018 14.1861 18.7866 14.3959C18.5865 14.5993 18.5694 14.9635 18.7887 15.1712L19.5777 15.9505ZM19.1265 12.0207C19.1265 10.5172 17.933 9.34084 16.4253 9.34084C15.5122 9.34084 14.6928 9.80326 14.2271 10.5033C14.469 10.726 14.6703 10.9679 14.8536 11.2503C16.5031 11.4708 17.7627 12.658 17.9595 14.2393C18.68 13.7288 19.1265 12.9254 19.1265 12.0207ZM9.22809 19.8624L9.86653 18.7625C9.99755 18.5431 9.92723 18.2907 9.70036 18.1618C9.49481 18.0404 9.23067 18.1224 9.11137 18.3259L8.47083 19.4279C8.36325 19.6217 8.42395 19.9072 8.63911 20.0073C8.84465 20.1383 9.10879 20.068 9.22809 19.8624ZM10.7365 21.0856L11.3344 20.0337C11.4483 19.8378 11.3972 19.5662 11.1704 19.4427C10.9552 19.3234 10.7028 19.3937 10.5696 19.6067L9.96004 20.6511C9.84075 20.8587 9.92067 21.1304 10.1379 21.2401C10.3435 21.3732 10.6172 21.2933 10.7365 21.0856ZM13.0069 19.8624L13.6475 18.7625C13.7668 18.5527 13.6869 18.2907 13.4813 18.1714C13.2641 18.0404 13.002 18.1128 12.8827 18.3162L12.2518 19.4183C12.1421 19.6217 12.1911 19.8976 12.4105 20.0169C12.6331 20.1266 12.8898 20.0584 13.0069 19.8624ZM14.4868 21.0856L15.0985 20.0434C15.2061 19.8378 15.1358 19.5566 14.9227 19.4427C14.7151 19.333 14.4605 19.3937 14.3295 19.6067L13.7178 20.6511C13.591 20.8684 13.6688 21.1304 13.8978 21.2497C14.1033 21.3732 14.3654 21.2933 14.4868 21.0856Z" fill="black"/>
</svg>
