<svg width="29" height="28" viewBox="0 0 29 28" fill="none" xmlns="http://www.w3.org/2000/svg">
<path d="M6.13827 25.6662H21.5079C25.552 25.6662 28.6844 22.604 28.6844 18.6762C28.6844 14.711 25.5208 11.7014 21.1919 11.7014C19.6101 8.58023 16.736 6.72937 13.1871 6.72937C8.57273 6.72937 4.6814 10.2314 4.20375 14.9662C1.79461 15.6869 0.210467 17.7042 0.210467 20.2244C0.210467 23.2666 2.4389 25.6662 6.13827 25.6662ZM1.67859 13.8919C2.59992 13.8919 3.34336 13.1484 3.34336 12.2133C3.34336 11.292 2.59992 10.5485 1.67859 10.5485C0.743437 10.5485 0 11.292 0 12.2133C0 13.1484 0.743437 13.8919 1.67859 13.8919ZM19.2147 6.15164C20.0775 6.15164 20.7858 5.44336 20.7858 4.58062C20.7858 3.71789 20.0775 3 19.2147 3C18.352 3 17.6437 3.71789 17.6437 4.58062C17.6437 5.44336 18.352 6.15164 19.2147 6.15164ZM24.2601 10.297C25.5574 10.297 26.598 9.25429 26.598 7.93781C26.598 6.63093 25.5574 5.5882 24.2601 5.5882C22.9415 5.5882 21.8892 6.63093 21.8892 7.93781C21.8892 9.25429 22.9415 10.297 24.2601 10.297Z" fill="black"/>
<path d="M10.2804 21.5822C8.15018 21.5822 7.31299 19.7585 7.31299 17.6665C7.31299 15.5372 8.22471 13.7913 10.2431 13.7913C11.8493 13.7913 12.8536 14.9353 12.8824 16.189C12.892 16.6479 12.6173 16.9544 12.2086 16.9544C11.8221 16.9544 11.6135 16.7362 11.5017 16.2912C11.377 15.7092 11.0679 15.0912 10.2666 15.0912C9.14018 15.0912 8.75439 16.3762 8.75439 17.6665C8.75439 19.043 9.11674 20.2802 10.2804 20.2802C11.0796 20.2802 11.4164 19.6547 11.5432 19.0748C11.6487 18.6298 11.853 18.4116 12.2458 18.4116C12.6525 18.4116 12.9272 18.7277 12.9176 19.177C12.8887 20.4286 11.8844 21.5822 10.2804 21.5822ZM16.3655 21.5822C14.558 21.5822 13.4215 20.0632 13.4215 17.6878C13.4215 15.3028 14.558 13.7913 16.3558 13.7913C18.1591 13.7913 19.2839 15.3028 19.2839 17.6878C19.2839 20.0632 18.1591 21.5822 16.3655 21.5822ZM20.2476 21.9949C19.9943 21.9949 19.7995 21.7884 19.7995 21.5233C19.7995 21.3743 19.8783 21.172 19.9943 21.056L20.9402 20.1089C21.1917 19.8478 21.457 19.5314 21.457 19.2766C21.457 19.1198 21.345 19.0036 21.1786 19.0036C21.0079 19.0036 20.8992 19.1081 20.8289 19.3277C20.7447 19.5002 20.6074 19.7344 20.2912 19.7344C20.024 19.7344 19.7899 19.5279 19.7899 19.1979C19.7899 18.6675 20.3191 18.0253 21.169 18.0253C21.9635 18.0253 22.5492 18.544 22.5492 19.2511C22.5492 19.7484 22.1883 20.1916 21.7099 20.673L21.3759 21.0305H22.2258C22.4791 21.0305 22.6973 21.2583 22.6973 21.502C22.6973 21.7692 22.4908 21.9949 22.2258 21.9949H20.2476ZM16.3655 20.2802C17.2873 20.2802 17.8563 19.335 17.8563 17.6878C17.8563 16.0406 17.2873 15.0912 16.3558 15.0912C15.4298 15.0912 14.8608 16.0406 14.8608 17.6878C14.8608 19.335 15.4298 20.2802 16.3655 20.2802Z" fill="white"/>
</svg>
