<svg width="28" height="28" viewBox="0 0 28 28" fill="none" xmlns="http://www.w3.org/2000/svg">
<path d="M14.105 26.2301C20.7369 26.2301 26.2121 20.7549 26.2121 14.123C26.2121 7.50291 20.7273 2.01807 14.0954 2.01807C7.47523 2.01807 2 7.50291 2 14.123C2 20.7549 7.48484 26.2301 14.105 26.2301Z" fill="black"/>
<path d="M9.72567 13.7342C9.72567 14.1378 9.387 14.4498 8.94075 14.4498H7.50145C7.07864 14.4498 6.74536 14.1186 6.74536 13.7342C6.74536 13.352 7.07864 13.0304 7.50145 13.0304H8.94075C9.37739 13.0304 9.72567 13.3327 9.72567 13.7342ZM10.9979 10.8587C10.7136 11.1526 10.2706 11.1196 9.96497 10.8278L8.93935 9.79464C8.62622 9.47191 8.61872 9.03222 8.8913 8.75965C9.16388 8.48918 9.60895 8.46996 9.91997 8.79269L10.9648 9.83004C11.2683 10.126 11.2876 10.5744 10.9979 10.8587ZM14.0954 9.24714C13.7035 9.24714 13.3916 8.90214 13.3916 8.46972V7.03042C13.3916 6.59378 13.7131 6.27222 14.0954 6.27222C14.4776 6.27222 14.8088 6.59378 14.8088 7.03042V8.46972C14.8088 8.89253 14.4873 9.24714 14.0954 9.24714ZM17.2046 10.8587C16.9149 10.5744 16.9149 10.1357 17.2259 9.83004L18.2708 8.79269C18.5647 8.47957 19.029 8.47957 19.3112 8.75965C19.5741 9.04183 19.5666 9.47191 19.2514 9.79464L18.2354 10.8278C17.9319 11.1292 17.4889 11.1409 17.2046 10.8587ZM18.4747 13.7342C18.4747 13.3327 18.8197 13.0304 19.2521 13.0304H20.6989C21.1238 13.0304 21.4475 13.352 21.4475 13.7342C21.4475 14.1282 21.1238 14.4498 20.6989 14.4498H19.2521C18.8197 14.4498 18.4747 14.1282 18.4747 13.7342ZM10.7265 14.9691C10.6219 14.6567 10.5526 14.307 10.5526 13.952C10.5526 12.0106 12.1658 10.3996 14.0954 10.3996C16.0367 10.3996 17.6382 12.0106 17.6382 13.952C17.6382 14.307 17.5709 14.6567 17.4664 14.9691H10.7265ZM8.20693 16.7942C7.94185 16.7942 7.74708 16.5973 7.74708 16.3323C7.74708 16.0714 7.94185 15.8745 8.20693 15.8745H20.7641C21.0291 15.8745 21.2218 16.0714 21.2218 16.3323C21.2218 16.5973 21.0291 16.7942 20.7641 16.7942H8.20693ZM7.4384 18.53C7.17332 18.53 6.96894 18.3256 6.96894 18.0605C6.96894 17.8072 7.17332 17.6028 7.4384 17.6028H19.9859C20.251 17.6028 20.4437 17.8072 20.4437 18.0605C20.4437 18.3256 20.251 18.53 19.9859 18.53H7.4384ZM8.20693 20.2583C7.94185 20.2583 7.74708 20.0614 7.74708 19.8005C7.74708 19.5355 7.94185 19.3386 8.20693 19.3386H20.7641C21.0291 19.3386 21.2218 19.5355 21.2218 19.8005C21.2218 20.0614 21.0291 20.2583 20.7641 20.2583H8.20693Z" fill="white"/>
</svg>
