<svg width="28" height="28" viewBox="0 0 28 28" fill="none" xmlns="http://www.w3.org/2000/svg">
<path d="M7.70179 16.8077H11.6231C8.61021 15.8927 6.72279 13.2319 6.72279 9.96138C6.72279 7.65583 7.71748 5.58302 9.32623 4.18895C9.16193 4.81263 9.08506 5.59732 9.08506 6.36865C9.08506 11.4727 12.567 14.8671 17.786 14.8671C18.3591 14.8671 18.9631 14.7998 19.481 14.7112C18.6813 15.6668 17.5392 16.4016 16.1742 16.8077L20.0348 16.8173C20.9763 16.0223 21.7259 15.0183 22.2216 13.8616C22.4503 13.3434 22.4034 12.8902 22.1353 12.6145C21.8885 12.3741 21.4779 12.3389 21.0213 12.5208C20.253 12.8297 19.3273 12.9863 18.2222 12.9863C13.7768 12.9863 10.953 10.2488 10.953 5.91724C10.953 4.78123 11.164 3.55896 11.5005 2.8542C11.7326 2.37865 11.7284 1.92725 11.4708 1.64951C11.1994 1.36217 10.7545 1.29397 10.2129 1.51639C6.94193 2.84037 4.73389 6.2224 4.73389 10.0713C4.73389 12.7781 5.79678 15.2013 7.70179 16.8077Z" fill="black"/>
<path d="M2.56898 18.2576H26.2453C26.6934 18.2576 27.0469 17.9201 27.0469 17.4708C27.0469 17.0215 26.6934 16.684 26.2453 16.684H2.56898C2.11336 16.684 1.76953 17.0215 1.76953 17.4708C1.76953 17.9201 2.11336 18.2576 2.56898 18.2576ZM0.80156 22.7672H24.4758C24.9239 22.7672 25.2773 22.4201 25.2773 21.9708C25.2773 21.5215 24.9239 21.184 24.4758 21.184H0.80156C0.353436 21.184 0 21.5215 0 21.9708C0 22.4201 0.353436 22.7672 0.80156 22.7672ZM2.56898 27.2672H26.2453C26.6934 27.2672 27.0469 26.9318 27.0469 26.4804C27.0469 26.0215 26.6934 25.6861 26.2453 25.6861H2.56898C2.11336 25.6861 1.76953 26.0215 1.76953 26.4804C1.76953 26.9318 2.11336 27.2672 2.56898 27.2672Z" fill="black"/>
</svg>
