<svg width="28" height="28" viewBox="0 0 28 28" fill="none" xmlns="http://www.w3.org/2000/svg">
<path d="M14.105 26.21C20.7369 26.21 26.2121 20.7273 26.2121 14.105C26.2121 7.47312 20.7273 2 14.0954 2C7.47523 2 2 7.47312 2 14.105C2 20.7273 7.48484 26.21 14.105 26.21ZM14.105 23.8255C8.71085 23.8255 4.39412 19.4991 4.39412 14.105C4.39412 8.71085 8.70124 4.38452 14.0954 4.38452C19.4895 4.38452 23.8276 8.71085 23.8276 14.105C23.8276 19.4991 19.4991 23.8255 14.105 23.8255Z" fill="black"/>
<path d="M11.9727 21.7491C13.7858 21.7491 15.2431 20.2981 15.2431 18.4967C15.2431 17.558 14.8616 16.7333 14.1348 16.0737C14.0218 15.9704 14.0005 15.9043 14.0005 15.7348L14.0101 10.4159C14.0101 9.10485 13.1783 8.20696 11.9727 8.20696C10.7553 8.20696 9.93523 9.10485 9.93523 10.4159V15.7348C9.93523 15.9043 9.91601 15.9725 9.77749 16.0737C9.06031 16.727 8.68835 17.558 8.68835 18.4967C8.68835 20.2981 10.1499 21.7491 11.9727 21.7491ZM11.9727 20.705C10.73 20.705 9.75382 19.7213 9.75382 18.4841C9.75382 17.7254 10.0991 17.0656 10.7246 16.6468C10.925 16.5242 10.9911 16.4059 10.9911 16.1469V10.4532C10.9911 9.73813 11.3769 9.28204 11.9727 9.28204C12.5492 9.28204 12.935 9.73813 12.935 10.4532V16.1469C12.935 16.4059 13.0032 16.5242 13.2036 16.6468C13.827 17.0656 14.184 17.7254 14.184 18.4841C14.184 19.7213 13.1865 20.705 11.9727 20.705ZM11.963 19.9463C12.7826 19.9463 13.4328 19.2845 13.4328 18.4745C13.4328 17.9117 13.1098 17.4427 12.6345 17.1859C12.4534 17.0921 12.3969 17.0143 12.3969 16.7394V15.5757C12.3969 15.2719 12.2061 15.0812 11.963 15.0812C11.7179 15.0812 11.5367 15.2719 11.5367 15.5757V16.7394C11.5367 17.0143 11.4802 17.0921 11.2777 17.1859C10.828 17.4427 10.5029 17.9117 10.5029 18.4745C10.5029 19.2941 11.153 19.9463 11.963 19.9463ZM16.4525 16.6377C16.7326 16.6377 16.9135 16.3969 16.9114 16.1148L16.8997 15.328L17.5191 15.6755C17.7523 15.8066 18.0026 15.7459 18.1262 15.5403C18.2593 15.3017 18.1559 15.0664 17.9344 14.9216L16.8955 14.3152L16.872 12.357L18.5478 13.3548V14.544C18.5478 14.8177 18.7203 15.0062 18.9866 15.0158C19.2252 15.02 19.404 14.8144 19.404 14.5653L19.4136 13.8584L20.113 14.2571C20.3738 14.4104 20.6518 14.368 20.7945 14.139C20.9319 13.8823 20.8222 13.6119 20.5794 13.4766L19.8683 13.0609L20.4781 12.7016C20.6879 12.5684 20.7795 12.3235 20.6581 12.1159C20.525 11.8869 20.2609 11.8475 20.0394 11.9806L18.9983 12.5635L17.2969 11.6169L19.0121 10.6585L20.049 11.251C20.2801 11.382 20.5463 11.3523 20.6698 11.1275C20.8147 10.9102 20.6996 10.6632 20.4877 10.5397L19.8896 10.1687L20.589 9.77634C20.8456 9.61977 20.9319 9.35142 20.7945 9.1161C20.6497 8.8829 20.3675 8.80837 20.1343 8.95532L19.4253 9.3615V8.66423C19.4253 8.39798 19.2507 8.20626 19.0079 8.20415C18.7437 8.20415 18.5691 8.39798 18.5691 8.68767L18.5595 9.87689L16.872 10.8767L16.8955 8.9047L17.9323 8.29837C18.1826 8.15352 18.2476 7.92032 18.1358 7.69345C18.0144 7.46235 17.7481 7.42298 17.517 7.54649L16.8997 7.90368L16.9114 7.11899C16.9135 6.8368 16.7326 6.60571 16.4525 6.60571C16.1724 6.60571 15.984 6.83891 15.9861 7.11899L15.9882 7.90368L15.3805 7.54649C15.1494 7.41337 14.8948 7.47196 14.7713 7.69134C14.6382 7.91821 14.7319 8.15352 14.9651 8.29837L16.0041 8.9047L16.0276 10.8767L14.8069 10.1434C14.8505 10.4905 14.874 10.7945 14.8836 11.2072L15.6005 11.6169L14.8836 12.0148V13.0468L16.0276 12.357L16.0041 14.3152L15.0352 14.8834C15.0969 15.1208 15.3336 15.4255 15.5382 15.5956L15.9882 15.3184L15.9861 16.1148C15.984 16.4108 16.1724 16.6377 16.4525 16.6377Z" fill="black"/>
</svg>
