<svg width="28" height="28" viewBox="0 0 28 28" fill="none" xmlns="http://www.w3.org/2000/svg">
<path d="M14.105 26.2301C20.7369 26.2301 26.2121 20.7549 26.2121 14.123C26.2121 7.50291 20.7273 2.01807 14.0954 2.01807C7.47523 2.01807 2 7.50291 2 14.123C2 20.7549 7.48484 26.2301 14.105 26.2301Z" fill="black"/>
<path d="M8.45614 17.4283C7.04121 17.4283 6.09082 16.5131 6.09082 15.2357C6.09082 14.2204 6.72481 13.4256 7.62504 13.1113C7.83387 11.3054 9.3702 9.89895 11.1962 9.89895C12.6372 9.89895 13.7519 10.6818 14.3711 11.8361C16.0481 11.867 17.2893 13.0602 17.2893 14.6273C17.2893 16.2126 16.0682 17.4283 14.4625 17.4283H8.45614ZM13.2548 9.38473L12.4542 8.56816C12.2444 8.33707 12.2337 7.96113 12.452 7.74715C12.6768 7.55121 13.0335 7.53949 13.2709 7.75676L14.0854 8.56793C14.2985 8.78942 14.2856 9.15785 14.0854 9.37723C13.8639 9.58488 13.4838 9.60832 13.2548 9.38473ZM16.5126 8.36074C16.2049 8.36074 15.9407 8.09238 15.9407 7.78254V6.64933C15.9407 6.32777 16.2049 6.07324 16.5126 6.07324C16.8417 6.07324 17.0941 6.32777 17.0941 6.64933V7.78254C17.0941 8.09238 16.8417 8.36074 16.5126 8.36074ZM18.9695 9.37723C18.7631 9.15785 18.746 8.77981 18.9695 8.56582L19.7797 7.76309C20.0108 7.52988 20.3718 7.5491 20.587 7.76309C20.801 7.97074 20.8085 8.34879 20.5849 8.57238L19.7916 9.38684C19.5744 9.60832 19.1847 9.58488 18.9695 9.37723ZM20.5579 12.3881C20.2598 12.3881 19.9893 12.1335 19.9893 11.8257C19.9893 11.4988 20.2598 11.2379 20.5579 11.2379H21.6836C22.0127 11.2379 22.265 11.4988 22.265 11.8257C22.265 12.1335 22.0127 12.3881 21.6836 12.3881H20.5579ZM19.7797 15.9002L18.9653 15.0953C18.7417 14.8835 18.7588 14.4958 18.9632 14.2764C19.1922 14.0667 19.5724 14.0688 19.796 14.2806L20.5849 15.0717C20.8085 15.2953 20.7988 15.667 20.587 15.8885C20.3697 16.1003 20.0108 16.1292 19.7797 15.9002ZM19.3168 11.8257C19.3168 12.7506 18.8545 13.5935 18.1085 14.1274C17.9053 12.4715 16.5904 11.2386 14.8835 11.016C14.6906 10.7315 14.485 10.4779 14.2293 10.2393C14.711 9.51363 15.5697 9.03527 16.5147 9.03527C18.0799 9.03527 19.3168 10.2627 19.3168 11.8257ZM9.95754 20.0655L10.745 18.2603C10.8036 18.1335 10.8697 18.0845 11.0509 18.0845H12.4373C12.5779 18.0845 12.6365 18.1921 12.5662 18.3264L12.0288 19.3267H13.2719C13.4498 19.3267 13.5042 19.495 13.3774 19.6389L10.622 22.3155C10.4985 22.4327 10.3332 22.3326 10.3897 22.1908L11.1625 20.317H10.1153C9.95332 20.317 9.89895 20.2115 9.95754 20.0655Z" fill="white"/>
</svg>
