<svg width="28" height="28" viewBox="0 0 28 28" fill="none" xmlns="http://www.w3.org/2000/svg">
<path d="M14.105 26.2301C20.7369 26.2301 26.2121 20.7549 26.2121 14.123C26.2121 7.50291 20.7273 2.01807 14.0954 2.01807C7.47523 2.01807 2 7.50291 2 14.123C2 20.7549 7.48484 26.2301 14.105 26.2301Z" fill="black"/>
<path d="M13.9461 20.9989C10.284 20.9989 7.50293 18.3641 7.50293 14.6923C7.50293 12.0882 9.05215 9.61182 11.379 8.69236C11.9232 8.47721 12.305 8.83182 12.0615 9.3383C11.8677 9.86588 11.6769 10.8123 11.6769 11.5313C11.6769 14.8426 13.8042 16.9102 17.1142 16.9102C17.8666 16.9102 18.6455 16.7525 19.1049 16.5842C19.6435 16.378 19.9616 16.8015 19.7253 17.3157C18.8968 19.3812 16.5995 20.9989 13.9461 20.9989ZM17.5154 13.3798C17.3642 13.3798 17.2524 13.2563 17.2269 13.1073C16.9658 11.0513 16.8793 11.0246 14.7212 10.6154C14.5625 10.5953 14.4604 10.4877 14.4604 10.3173C14.4604 10.1682 14.5625 10.0564 14.7233 10.0405C16.8793 9.74096 16.9391 9.64065 17.2269 7.5465C17.2524 7.38783 17.3642 7.27393 17.5154 7.27393C17.6644 7.27393 17.7762 7.38783 17.7997 7.54861C18.095 9.59283 18.1708 9.61955 20.3055 10.0405C20.4567 10.0585 20.5662 10.1682 20.5662 10.3173C20.5662 10.4973 20.4566 10.5953 20.282 10.6154C18.1632 10.933 18.0629 11.0216 17.7997 13.1073C17.7762 13.2563 17.6644 13.3798 17.5154 13.3798Z" fill="white"/>
</svg>
