<svg width="29" height="28" viewBox="0 0 29 28" fill="none" xmlns="http://www.w3.org/2000/svg">
<path d="M6.13827 25.6662H21.5079C25.552 25.6662 28.6844 22.6019 28.6844 18.6762C28.6844 14.711 25.5208 11.7014 21.1919 11.7014C19.6101 8.58023 16.736 6.72937 13.1871 6.72937C8.57273 6.72937 4.6814 10.2314 4.20375 14.9641C1.79461 15.6869 0.210467 17.7042 0.210467 20.2244C0.210467 23.2666 2.4389 25.6662 6.13827 25.6662ZM6.14436 23.4694C3.80319 23.4694 2.40936 22.2171 2.40936 20.2851C2.40936 18.6293 3.47061 17.456 5.3817 16.95C6.05061 16.7838 6.29249 16.4855 6.35623 15.7678C6.70498 11.7867 9.56975 8.92615 13.1871 8.92615C15.9279 8.92615 18.0919 10.4648 19.4234 13.139C19.7076 13.7322 20.0517 13.9315 20.7834 13.9315C24.4219 13.9315 26.4855 16.0514 26.4855 18.7294C26.4855 21.4029 24.3574 23.4694 21.5883 23.4694H6.14436ZM1.67859 13.8919C2.59992 13.8919 3.34336 13.1484 3.34336 12.2133C3.34336 11.2898 2.59992 10.5485 1.67859 10.5485C0.743437 10.5485 0 11.2898 0 12.2133C0 13.1484 0.743437 13.8919 1.67859 13.8919ZM19.2147 6.15164C20.0775 6.15164 20.7858 5.44336 20.7858 4.58062C20.7858 3.71789 20.0775 3 19.2147 3C18.352 3 17.6437 3.71789 17.6437 4.58062C17.6437 5.44336 18.352 6.15164 19.2147 6.15164ZM24.2601 10.297C25.5574 10.297 26.598 9.25218 26.598 7.93781C26.598 6.63093 25.5574 5.58609 24.2601 5.58609C22.9415 5.58609 21.8892 6.63093 21.8892 7.93781C21.8892 9.25218 22.9415 10.297 24.2601 10.297Z" fill="black"/>
<path d="M10.5846 21.4333C12.1291 21.4333 13.0877 20.3233 13.1165 19.1175C13.1262 18.6862 12.8653 18.3839 12.4788 18.3839C12.0998 18.3839 11.8997 18.6 11.8059 19.0174C11.6812 19.5834 11.3562 20.193 10.5846 20.193C9.45277 20.193 9.10425 18.9973 9.10425 17.6665C9.10425 16.4198 9.47832 15.1805 10.5729 15.1805C11.3423 15.1805 11.6419 15.7805 11.7666 16.3486C11.8645 16.766 12.0668 16.9821 12.4416 16.9821C12.8323 16.9821 13.091 16.6894 13.0814 16.2485C13.0526 15.0405 12.0919 13.9401 10.5473 13.9401C8.60433 13.9401 7.72449 15.6148 7.72449 17.6665C7.72449 19.6809 8.53402 21.4333 10.5846 21.4333ZM16.3176 21.4333C18.038 21.4333 19.1191 19.9718 19.1191 17.6878C19.1191 15.3921 18.038 13.9401 16.308 13.9401C14.576 13.9401 13.4831 15.3921 13.4831 17.6878C13.4831 19.9718 14.576 21.4333 16.3176 21.4333ZM16.3176 20.193C15.4139 20.193 14.8587 19.2755 14.8587 17.6878C14.8587 16.1001 15.4139 15.1805 16.308 15.1805C17.2001 15.1805 17.7532 16.1001 17.7532 17.6878C17.7532 19.2755 17.2001 20.193 16.3176 20.193ZM19.9275 21.8557H21.8301C22.0814 21.8557 22.2837 21.6321 22.2837 21.3808C22.2837 21.1413 22.0676 20.9252 21.8301 20.9252H21.0037L21.3281 20.5816C21.799 20.1225 22.1355 19.6889 22.1355 19.2075C22.1355 18.5323 21.5796 18.0391 20.8148 18.0391C19.9969 18.0391 19.4878 18.6516 19.4878 19.166C19.4878 19.4801 19.7156 19.6727 19.969 19.6727C20.2713 19.6727 20.4065 19.4524 20.479 19.2841C20.5472 19.0762 20.6559 18.9717 20.8244 18.9717C20.9791 18.9717 21.0912 19.0858 21.0912 19.233C21.0912 19.4878 20.8397 19.7883 20.5903 20.0376L19.6858 20.9529C19.574 21.0668 19.4974 21.2552 19.4974 21.4022C19.4974 21.6534 19.6858 21.8557 19.9275 21.8557Z" fill="black"/>
</svg>
