<svg width="31" height="28" viewBox="0 0 31 28" fill="none" xmlns="http://www.w3.org/2000/svg">
<path d="M21.3738 20.8467C21.3738 17.3685 18.5048 14.4803 15.0234 14.4803C11.5303 14.4803 8.66133 17.3685 8.66133 20.8467C8.66133 21.6093 8.80969 22.341 9.0893 22.9938H20.9459C21.2255 22.341 21.3738 21.6093 21.3738 20.8467ZM2.62101 21.4598L5.33719 21.4619C5.98242 21.4619 6.47742 20.9957 6.46781 20.422C6.4582 19.8461 5.97281 19.3842 5.33719 19.3842H2.62101C1.97578 19.3842 1.5 19.8461 1.5 20.422C1.5 20.9957 1.97789 21.4598 2.62101 21.4598ZM7.43415 14.755C7.88344 15.2118 8.5711 15.2278 8.96813 14.819C9.36726 14.4124 9.36516 13.7343 8.90836 13.285L6.98531 11.3661C6.52429 10.9051 5.86969 10.9126 5.46094 11.3118C5.05219 11.7088 5.04258 12.3772 5.5132 12.8382L7.43415 14.755ZM21.067 14.819C21.4737 15.2181 22.1517 15.2118 22.601 14.755L24.522 12.8382C24.9926 12.3772 24.9734 11.7184 24.5742 11.3118C24.1772 10.903 23.5109 10.9051 23.0498 11.3661L21.1268 13.285C20.67 13.7343 20.6583 14.422 21.067 14.819ZM24.698 21.4598H27.4141C28.0615 21.4598 28.5352 20.9957 28.5352 20.422C28.5352 19.8461 28.0615 19.3842 27.4141 19.3842H24.698C24.0645 19.3842 23.5577 19.8461 23.5673 20.422C23.577 20.9957 24.0666 21.4598 24.698 21.4598Z" fill="black"/>
<path d="M1.16296 26.6996H28.8722C29.5073 26.6996 30.0352 26.1934 30.0352 25.5934C30.0352 24.9849 29.5095 24.4871 28.8722 24.4871H1.16296C0.52781 24.4871 0 24.9913 0 25.5934C0 26.187 0.529919 26.6996 1.16296 26.6996ZM15.0234 2C14.4476 2 13.976 2.50672 13.976 3.12101L13.9781 7.27602L14.1462 9.11938L13.4088 8.19407L11.9618 6.70578C11.7628 6.49203 11.517 6.36243 11.2373 6.36243C10.7138 6.36243 10.3317 6.73156 10.3317 7.24461C10.3317 7.53078 10.4517 7.76047 10.6826 7.97L14.2924 11.3485C14.5617 11.5944 14.7628 11.6869 15.0234 11.6869C15.2723 11.6869 15.4755 11.5944 15.7427 11.3485L19.3526 7.97C19.5834 7.76047 19.7034 7.53078 19.7034 7.24461C19.7034 6.73156 19.3214 6.36243 18.7978 6.36243C18.5182 6.36243 18.2723 6.49203 18.0734 6.70578L16.7266 8.09586L15.889 9.11938L16.057 7.27602L16.0591 3.12101C16.0591 2.50672 15.5876 2 15.0234 2Z" fill="black"/>
</svg>
