<svg width="28" height="28" viewBox="0 0 28 28" fill="none" xmlns="http://www.w3.org/2000/svg">
<path d="M14.105 26.2301C20.7369 26.2301 26.2121 20.7549 26.2121 14.123C26.2121 7.50291 20.7273 2.01807 14.0954 2.01807C7.47523 2.01807 2 7.50291 2 14.123C2 20.7549 7.48484 26.2301 14.105 26.2301Z" fill="black"/>
<path d="M8.45614 17.5775C7.04121 17.5775 6.09082 16.6623 6.09082 15.3903C6.09082 14.3675 6.72481 13.5706 7.62504 13.2605C7.83387 11.4547 9.3702 10.044 11.1962 10.044C12.6372 10.044 13.7519 10.831 14.3711 11.9853C16.0481 12.0162 17.2893 13.2052 17.2893 14.7669C17.2893 16.3501 16.0682 17.5775 14.4625 17.5775H8.45614ZM13.2548 9.53397L12.4542 8.7174C12.2444 8.48631 12.2337 8.11037 12.452 7.906C12.6768 7.69084 13.0335 7.68873 13.2709 7.906L14.0854 8.71928C14.2985 8.92904 14.2856 9.30709 14.0854 9.52647C13.8639 9.73201 13.4838 9.75334 13.2548 9.53397ZM16.5126 8.49826C16.2049 8.49826 15.9407 8.24162 15.9407 7.93178V6.79857C15.9407 6.47701 16.2049 6.21826 16.5126 6.21826C16.8417 6.21826 17.0941 6.47701 17.0941 6.79857V7.93178C17.0941 8.24162 16.8417 8.49826 16.5126 8.49826ZM18.9695 9.52647C18.7631 9.30709 18.746 8.92904 18.9695 8.71506L19.7797 7.91021C20.0108 7.67912 20.3718 7.68873 20.587 7.91021C20.801 8.11037 20.8085 8.48842 20.5849 8.71951L19.7916 9.53607C19.5744 9.75334 19.1847 9.73201 18.9695 9.52647ZM20.5579 12.5373C20.2598 12.5373 19.9893 12.2785 19.9893 11.9654C19.9893 11.6384 20.2598 11.3872 20.5579 11.3872H21.6836C22.0127 11.3872 22.265 11.6384 22.265 11.9654C22.265 12.2785 22.0127 12.5373 21.6836 12.5373H20.5579ZM19.7797 16.0611L18.9653 15.2541C18.7417 15.023 18.7588 14.6429 18.9632 14.4256C19.1922 14.2159 19.5724 14.218 19.796 14.4298L20.5849 15.2209C20.8085 15.4327 20.7988 15.8044 20.587 16.0473C20.3697 16.2495 20.0108 16.2687 19.7797 16.0611ZM19.3168 11.9654C19.3168 12.8998 18.8545 13.7426 18.1085 14.2766C17.9053 12.6303 16.5904 11.3879 14.8835 11.1748C14.6906 10.8807 14.485 10.6229 14.2293 10.3885C14.711 9.66287 15.5697 9.1824 16.5147 9.1824C18.0799 9.1824 19.3168 10.4119 19.3168 11.9654ZM9.04629 20.1123C8.92488 20.3241 8.6448 20.3923 8.42754 20.2688C8.21027 20.157 8.13785 19.8694 8.25715 19.6543L8.91363 18.5183C9.04676 18.3031 9.31301 18.219 9.53238 18.3521C9.77309 18.4756 9.84129 18.7494 9.70066 18.973L9.04629 20.1123ZM10.6122 21.3812C10.495 21.6005 10.2053 21.6826 9.98801 21.5569C9.76652 21.428 9.67488 21.1501 9.80801 20.9307L10.4314 19.8448C10.5763 19.6297 10.835 19.5551 11.0619 19.6787C11.3005 19.8022 11.3537 20.0876 11.2302 20.2995L10.6122 21.3812ZM12.9719 20.1026C12.8547 20.3241 12.5842 20.3827 12.3499 20.2688C12.1263 20.1474 12.0773 19.8598 12.187 19.6447L12.8338 18.4991C12.9649 18.2935 13.2428 18.2286 13.4601 18.3521C13.6795 18.4852 13.7636 18.7494 13.6401 18.9826L12.9719 20.1026ZM14.5113 21.3908C14.3877 21.6005 14.114 21.6826 13.8925 21.5569C13.6614 21.428 13.5836 21.1501 13.7104 20.9307L14.3402 19.8448C14.4829 19.6393 14.7534 19.5551 14.961 19.6787C15.1879 19.7926 15.2582 20.0876 15.1506 20.2995L14.5113 21.3908Z" fill="white"/>
</svg>
