<svg width="28" height="28" viewBox="0 0 28 28" fill="none" xmlns="http://www.w3.org/2000/svg">
<path d="M14.105 26.2301C20.7369 26.2301 26.2121 20.7549 26.2121 14.123C26.2121 7.50291 20.7273 2.01807 14.0954 2.01807C7.47523 2.01807 2 7.50291 2 14.123C2 20.7549 7.48484 26.2301 14.105 26.2301Z" fill="black"/>
<path d="M10.2558 14.123C10.2558 9.47959 13.7375 6.41162 18.1126 6.41162C18.5427 6.41162 18.8567 6.74162 18.8567 7.15154C18.8567 7.55607 18.5523 7.89357 18.1126 7.89357C15.7503 7.89357 13.7785 8.90959 12.664 10.6421C13.0885 10.3934 13.5823 10.2643 14.105 10.2643C16.2027 10.2643 17.9562 12.0062 17.9562 14.123C17.9562 18.7686 14.4746 21.8366 10.1091 21.8366C9.65981 21.8366 9.35535 21.4969 9.35535 21.1062C9.35535 20.6921 9.65981 20.3546 10.1091 20.3546C12.4618 20.3546 14.4336 19.3461 15.548 17.6136C15.1236 17.8548 14.6298 17.9839 14.105 17.9839C12.0073 17.9839 10.2558 16.2399 10.2558 14.123ZM11.7399 14.123C11.7399 15.4351 12.7951 16.4902 14.105 16.4902C15.417 16.4902 16.4722 15.4351 16.4722 14.123C16.4722 12.8131 15.417 11.758 14.105 11.758C12.7951 11.758 11.7399 12.8131 11.7399 14.123ZM12.9287 14.123C12.9287 13.4773 13.4614 12.9467 14.105 12.9467C14.7528 12.9467 15.2834 13.4773 15.2834 14.123C15.2834 14.7591 14.7528 15.2994 14.105 15.2994C13.4614 15.2994 12.9287 14.7709 12.9287 14.123Z" fill="white"/>
</svg>
