<svg width="28" height="28" viewBox="0 0 28 28" fill="none" xmlns="http://www.w3.org/2000/svg">
<path d="M14.105 26.21C20.7369 26.21 26.2121 20.7273 26.2121 14.105C26.2121 7.47312 20.7273 2 14.0954 2C7.47523 2 2 7.47312 2 14.105C2 20.7273 7.48484 26.21 14.105 26.21ZM14.105 23.8255C8.71085 23.8255 4.39412 19.4991 4.39412 14.105C4.39412 8.71085 8.70124 4.38452 14.0954 4.38452C19.4895 4.38452 23.8276 8.71085 23.8276 14.105C23.8276 19.4991 19.4991 23.8255 14.105 23.8255Z" fill="black"/>
<path d="M13.9557 20.7256C16.5123 20.7256 18.7245 19.1633 19.5212 17.1636C19.7415 16.6887 19.4436 16.2737 18.923 16.4757C18.4892 16.6419 17.7357 16.7954 17.0014 16.7954C13.8137 16.7954 11.7673 14.7969 11.7673 11.608C11.7673 10.9091 11.9464 9.99244 12.1381 9.4883C12.3657 8.99236 12.0019 8.66119 11.4758 8.87635C9.23606 9.7426 7.74426 12.1339 7.74426 14.6487C7.74426 18.1822 10.4244 20.7256 13.9557 20.7256ZM17.3846 13.3819C17.5316 13.3819 17.6316 13.2627 17.6572 13.1157C17.9044 11.1184 18.0048 11.0319 20.0448 10.7239C20.2173 10.6984 20.3248 10.61 20.3248 10.4417C20.3248 10.2948 20.2173 10.1872 20.0703 10.1692C18.0123 9.77377 17.9408 9.74705 17.6572 7.77197C17.6316 7.62291 17.5316 7.51111 17.3846 7.51111C17.2377 7.51111 17.1355 7.62291 17.112 7.76986C16.8263 9.78104 16.7762 9.88135 14.701 10.1692C14.5423 10.1851 14.4444 10.2948 14.4444 10.4417C14.4444 10.6004 14.5423 10.6984 14.6989 10.7239C16.7762 11.1214 16.853 11.1481 17.112 13.1157C17.1355 13.2627 17.2377 13.3819 17.3846 13.3819Z" fill="black"/>
</svg>
