<svg width="28" height="28" viewBox="0 0 28 28" fill="none" xmlns="http://www.w3.org/2000/svg">
<path d="M14.105 26.2301C20.7369 26.2301 26.2121 20.7549 26.2121 14.123C26.2121 7.50291 20.7273 2.01807 14.0954 2.01807C7.47523 2.01807 2 7.50291 2 14.123C2 20.7549 7.48484 26.2301 14.105 26.2301Z" fill="black"/>
<path d="M10.5725 15.2865C8.86671 15.2865 7.84741 14.1774 7.84741 12.7831C7.84741 11.5854 8.61687 10.6852 9.66616 10.3615C9.88437 8.22099 11.6541 6.57544 13.8043 6.57544C15.4653 6.57544 16.7696 7.45482 17.4898 8.86341C19.4279 8.86341 20.9143 10.2174 20.9143 12.069C20.9143 13.8502 19.4909 15.2865 17.619 15.2865H10.5725ZM11.3497 18.373C11.2048 18.6254 10.8544 18.7447 10.5786 18.586C10.2985 18.4294 10.2282 18.0694 10.3613 17.8032L11.0199 16.6705C11.1648 16.418 11.5173 16.3009 11.7877 16.467C12.0711 16.6161 12.1456 16.9857 12.0104 17.2402L11.3497 18.373ZM14.5733 18.3793C14.4284 18.6317 14.0684 18.7489 13.8022 18.5923C13.5221 18.4358 13.4422 18.0737 13.5945 17.8095L14.2435 16.6768C14.3884 16.4244 14.7505 16.3051 15.0209 16.4734C15.2947 16.6203 15.3788 16.9899 15.2244 17.2466L14.5733 18.3793ZM17.7873 18.373C17.6424 18.6254 17.292 18.7447 17.0141 18.586C16.7361 18.4294 16.6637 18.0694 16.7968 17.8032L17.4575 16.6705C17.6023 16.418 17.9548 16.3009 18.2328 16.467C18.5087 16.6161 18.5832 16.9857 18.448 17.2402L17.7873 18.373ZM9.86913 21.2359C9.67741 21.2359 9.56561 21.0868 9.56983 20.9068L9.5921 20.4486L9.22764 20.7181C9.0828 20.8086 8.87936 20.7873 8.78561 20.619C8.69725 20.4699 8.74507 20.2803 8.94218 20.1908L9.34272 20.0075L8.94639 19.8092C8.74507 19.7293 8.72819 19.5087 8.79522 19.381C8.88897 19.2362 9.09241 19.2106 9.22764 19.3011L9.5921 19.5685L9.56022 19.1145C9.54429 18.9303 9.67741 18.7791 9.86913 18.7791C10.0416 18.7791 10.1727 18.9207 10.1525 19.1145L10.111 19.5685L10.4914 19.3107C10.6245 19.2127 10.8472 19.2458 10.9292 19.3906C10.9984 19.5472 10.9527 19.7218 10.7727 19.8092L10.3667 20.0096L10.7705 20.1887C10.9719 20.2761 10.9984 20.4891 10.91 20.6499C10.8259 20.7659 10.6287 20.8086 10.4914 20.7181L10.111 20.4465L10.1525 20.9068C10.1727 21.0964 10.0416 21.2359 9.86913 21.2359ZM13.0927 21.2422C12.901 21.2422 12.785 21.0931 12.7934 20.911L12.8232 20.4528L12.4416 20.7223C12.3064 20.8128 12.0934 20.7915 12.0071 20.6253C11.9305 20.4762 11.9762 20.2845 12.1541 20.195L12.5621 20.0117L12.1562 19.8177C11.9762 19.7335 11.9518 19.513 12.0263 19.3852C12.1126 19.2404 12.316 19.2169 12.4416 19.3074L12.8232 19.5727L12.7838 19.1187C12.7658 18.9345 12.901 18.7855 13.0927 18.7855C13.2535 18.7855 13.3962 18.9249 13.3665 19.1187L13.3346 19.5727L13.7054 19.317C13.846 19.2191 14.0708 19.25 14.1432 19.3948C14.2219 19.5514 14.1859 19.726 13.9962 19.8177L13.5903 20.0138L13.9941 20.1929C14.1955 20.2803 14.2316 20.4955 14.124 20.6541C14.0494 20.7723 13.8523 20.8107 13.7054 20.7223L13.3346 20.4507L13.3665 20.911C13.3962 21.1027 13.2535 21.2422 13.0927 21.2422ZM16.3067 21.2359C16.115 21.2359 16.0011 21.0868 16.0074 20.9068L16.0276 20.4486L15.6652 20.7181C15.5204 20.8086 15.3169 20.7873 15.2211 20.619C15.1348 20.4699 15.1784 20.2803 15.3777 20.1908L15.7761 20.0075L15.3798 19.8092C15.1784 19.7293 15.1637 19.5087 15.2307 19.381C15.3266 19.2362 15.53 19.2106 15.6652 19.3011L16.0276 19.5685L15.9978 19.1145C15.9819 18.9303 16.115 18.7791 16.3067 18.7791C16.4771 18.7791 16.6081 18.9207 16.5901 19.1145L16.5582 19.5685L16.9269 19.3107C17.06 19.2127 17.2805 19.2458 17.3668 19.3906C17.4338 19.5472 17.3881 19.7218 17.2198 19.8092L16.8043 20.0096L17.2177 20.1887C17.4095 20.2761 17.4434 20.4891 17.3476 20.6499C17.2613 20.7659 17.0621 20.8086 16.9269 20.7181L16.5582 20.4465L16.5901 20.9068C16.6081 21.0964 16.4771 21.2359 16.3067 21.2359Z" fill="white"/>
</svg>
