<svg width="28" height="28" viewBox="0 0 28 28" fill="none" xmlns="http://www.w3.org/2000/svg">
<path d="M14.105 26.2301C20.7369 26.2301 26.2121 20.7549 26.2121 14.123C26.2121 7.50291 20.7273 2.01807 14.0954 2.01807C7.47523 2.01807 2 7.50291 2 14.123C2 20.7549 7.48484 26.2301 14.105 26.2301Z" fill="black"/>
<path d="M9.77911 18.5867C7.92872 18.5867 6.68677 17.4247 6.68677 15.7587C6.68677 14.4601 7.52536 13.3958 8.77388 13.0285C9.01435 10.5919 11.0269 8.74622 13.4539 8.74622C15.3097 8.74622 16.812 9.70435 17.6185 11.3494C19.8601 11.3206 21.5253 12.8769 21.5253 14.9562C21.5253 17.008 19.8901 18.5867 17.7978 18.5867H9.77911Z" fill="white"/>
</svg>
