<svg width="28" height="28" viewBox="0 0 28 28" fill="none" xmlns="http://www.w3.org/2000/svg">
<path d="M14.105 26.2301C20.7369 26.2301 26.2121 20.7549 26.2121 14.123C26.2121 7.50291 20.7273 2.01807 14.0954 2.01807C7.47523 2.01807 2 7.50291 2 14.123C2 20.7549 7.48484 26.2301 14.105 26.2301Z" fill="black"/>
<path d="M14.4078 21.0447C10.5101 21.0447 7.53284 18.2425 7.53284 14.3256C7.53284 11.5445 9.18331 8.90825 11.6637 7.92481C11.8287 7.862 11.997 7.83435 12.0938 7.83435C12.3568 7.83435 12.508 8.04739 12.508 8.25599C12.508 8.33778 12.4953 8.45262 12.4144 8.61762C12.1897 9.17075 11.9989 10.1908 11.9989 10.9663C11.9989 14.4834 14.2466 16.6853 17.7859 16.6853C18.5926 16.6853 19.4185 16.5084 19.8971 16.3401C20.0534 16.2881 20.1608 16.2658 20.2639 16.2658C20.48 16.2658 20.6771 16.4245 20.6771 16.6907C20.6771 16.7704 20.6591 16.945 20.5782 17.1185C19.6911 19.3141 17.2498 21.0447 14.4078 21.0447Z" fill="white"/>
</svg>
