<svg width="28" height="28" viewBox="0 0 28 28" fill="none" xmlns="http://www.w3.org/2000/svg">
<path d="M14.105 26.2301C20.7369 26.2301 26.2121 20.7549 26.2121 14.123C26.2121 7.50291 20.7273 2.01807 14.0954 2.01807C7.47523 2.01807 2 7.50291 2 14.123C2 20.7549 7.48484 26.2301 14.105 26.2301Z" fill="black"/>
<path d="M10.3756 15.6437C8.66977 15.6437 7.64087 14.5229 7.64087 13.1307C7.64087 11.9309 8.41993 11.0349 9.47134 10.7112C9.68954 8.57606 11.4572 6.9209 13.6094 6.9209C15.2683 6.9209 16.5726 7.8195 17.2929 9.22059C19.2309 9.22059 20.7173 10.5767 20.7173 12.4241C20.7173 14.2053 19.294 15.6437 17.422 15.6437H10.3756ZM9.96423 18.1737C9.66071 18.1737 9.40829 17.9288 9.40829 17.6157C9.40829 17.3026 9.66071 17.0363 9.96423 17.0363H18.236C18.5512 17.0363 18.8036 17.293 18.8036 17.6157C18.8036 17.9288 18.5512 18.1737 18.236 18.1737H9.96423ZM9.96423 20.6105C9.66071 20.6105 9.40829 20.3581 9.40829 20.0354C9.40829 19.7202 9.66071 19.4773 9.96423 19.4773H18.236C18.5512 19.4773 18.8036 19.7202 18.8036 20.0354C18.8036 20.3581 18.5512 20.6105 18.236 20.6105H9.96423Z" fill="white"/>
</svg>
