<svg width="28" height="28" viewBox="0 0 28 28" fill="none" xmlns="http://www.w3.org/2000/svg">
<path d="M14.105 26.2301C20.7369 26.2301 26.2121 20.7549 26.2121 14.123C26.2121 7.50291 20.7273 2.01807 14.0954 2.01807C7.47523 2.01807 2 7.50291 2 14.123C2 20.7549 7.48484 26.2301 14.105 26.2301Z" fill="black"/>
<path d="M14.1051 17.7277C12.1328 17.7277 10.4961 16.0815 10.4961 14.1188C10.4961 12.1466 12.1328 10.5003 14.1051 10.5003C16.0698 10.5003 17.7065 12.1466 17.7065 14.1188C17.7065 16.0815 16.0698 17.7277 14.1051 17.7277ZM14.1051 6.54663C14.5373 6.54663 14.912 6.91929 14.912 7.35897V8.71062C14.912 9.1428 14.5373 9.52179 14.1051 9.52179C13.6729 9.52179 13.3078 9.1428 13.3078 8.71062V7.35897C13.3078 6.91929 13.6729 6.54663 14.1051 6.54663ZM19.4504 8.76171C19.7591 9.07366 19.7709 9.59421 19.4588 9.89655L18.4825 10.8709C18.1781 11.1828 17.6542 11.1966 17.3519 10.8751C17.0432 10.5781 17.0357 10.0831 17.3477 9.75945L18.3315 8.76593C18.6242 8.46359 19.1384 8.44976 19.4504 8.76171ZM21.6644 14.1188C21.6644 14.5489 21.2971 14.9141 20.8574 14.9141H19.4962C19.0681 14.9141 18.7009 14.5393 18.7009 14.1188C18.7009 13.6887 19.0681 13.314 19.4962 13.314H20.8574C21.2971 13.314 21.6644 13.6791 21.6644 14.1188ZM19.4588 19.46C19.1469 19.7623 18.6381 19.7644 18.3357 19.4663L17.3519 18.4824C17.0357 18.1801 17.0294 17.6691 17.3477 17.3572C17.6521 17.0527 18.1781 17.0527 18.4707 17.3551L19.4567 18.3294C19.7709 18.6242 19.7709 19.1405 19.4588 19.46ZM14.1051 21.6814C13.6729 21.6814 13.3078 21.3087 13.3078 20.8787V19.5174C13.3078 19.0852 13.6729 18.7062 14.1051 18.7062C14.5373 18.7062 14.912 19.0852 14.912 19.5174V20.8787C14.912 21.3087 14.5373 21.6814 14.1051 21.6814ZM8.74371 19.4504C8.44137 19.1448 8.44348 18.6317 8.74582 18.3294L9.73184 17.3551C10.0246 17.0527 10.5601 17.0527 10.8667 17.3572C11.1711 17.6766 11.169 18.1876 10.8625 18.4824L9.87855 19.4663C9.57621 19.7687 9.05988 19.7644 8.74371 19.4504ZM6.55957 14.1188C6.55957 13.6791 6.91512 13.314 7.3548 13.314H8.71395C9.14613 13.314 9.5134 13.6887 9.5134 14.1188C9.5134 14.5393 9.14613 14.9141 8.71395 14.9141H7.3548C6.91512 14.9141 6.55957 14.5489 6.55957 14.1188ZM8.76715 8.76171C9.08543 8.45937 9.59004 8.4732 9.88277 8.76593L10.8667 9.75945C11.169 10.0522 11.169 10.5781 10.8625 10.8751C10.5505 11.1891 10.0321 11.1924 9.72973 10.8709L8.75543 9.89655C8.44348 9.59421 8.46481 9.07366 8.76715 8.76171Z" fill="white"/>
</svg>
