<svg width="28" height="29" viewBox="0 0 28 29" fill="none" xmlns="http://www.w3.org/2000/svg">
<path d="M6.24961 24.4093C6.48164 24.4093 6.64453 24.1953 6.62437 23.9611L6.53086 22.8404L7.44609 23.4879C7.63125 23.6262 7.91132 23.5815 8.03484 23.3846C8.15296 23.1898 8.07961 22.9076 7.82625 22.7958L6.83015 22.3268L7.84007 21.844C8.08171 21.7343 8.14546 21.4756 8.04867 21.2712C7.93265 21.0669 7.62914 21.0275 7.44398 21.1658L6.53297 21.8145L6.63398 20.7022C6.66375 20.4563 6.48164 20.254 6.24961 20.254C5.98664 20.254 5.83125 20.4563 5.8514 20.7022L5.9407 21.8145L5.02218 21.1615C4.82953 21.0275 4.56445 21.0572 4.43883 21.2712C4.32281 21.4756 4.38656 21.7343 4.63031 21.844L5.64234 22.3247L4.6282 22.7979C4.38656 22.9097 4.3132 23.1781 4.43133 23.3846C4.54734 23.5911 4.82953 23.6262 5.02218 23.4976L5.9407 22.8563L5.86101 23.9611C5.84297 24.1953 5.98664 24.4093 6.24961 24.4093ZM12.7418 24.4093C12.9738 24.4093 13.1367 24.1953 13.1166 23.9611L13.023 22.8404L13.9383 23.4879C14.1234 23.6262 14.4035 23.5815 14.527 23.3846C14.6452 23.1898 14.5718 22.9076 14.3184 22.7958L13.3127 22.3268L14.3323 21.844C14.5739 21.7343 14.6377 21.4756 14.5409 21.2712C14.4248 21.0669 14.1213 21.0275 13.9362 21.1658L13.0252 21.8145L13.1262 20.7022C13.1559 20.4563 12.9738 20.254 12.7418 20.254C12.4788 20.254 12.3234 20.4563 12.3436 20.7022L12.4329 21.8145L11.5048 21.1615C11.3217 21.0275 11.0566 21.0572 10.931 21.2712C10.815 21.4756 10.8787 21.7343 11.1225 21.844L12.1345 22.3247L11.1204 22.7979C10.8787 22.9097 10.8054 23.1781 10.9235 23.3846C11.0395 23.5911 11.3217 23.6262 11.5048 23.4976L12.4329 22.8563L12.3532 23.9611C12.3352 24.1953 12.4788 24.4093 12.7418 24.4093ZM19.234 24.4093C19.466 24.4093 19.6289 24.1953 19.6087 23.9611L19.5056 22.8404L20.4305 23.4879C20.6156 23.6262 20.8936 23.5815 21.0192 23.3846C21.1373 23.1898 21.064 22.9076 20.8106 22.7958L19.8049 22.3268L20.8244 21.844C21.0661 21.7343 21.1298 21.4756 21.0309 21.2712C20.917 21.0669 20.6135 21.0275 20.4284 21.1658L19.5077 21.8145L19.6184 20.7022C19.6481 20.4563 19.466 20.254 19.234 20.254C18.971 20.254 18.8156 20.4563 18.8358 20.7022L18.9251 21.8145L17.9969 21.1615C17.8139 21.0275 17.5488 21.0572 17.4232 21.2712C17.3072 21.4756 17.3709 21.7343 17.6147 21.844L18.6267 22.3247L17.6126 22.7979C17.3709 22.9097 17.2976 23.1781 17.4157 23.3846C17.5317 23.5911 17.8139 23.6262 17.9969 23.4976L18.9251 22.8563L18.8454 23.9611C18.8273 24.1953 18.971 24.4093 19.234 24.4093ZM3.70664 28.8134C3.93867 28.8134 4.10156 28.5898 4.0814 28.3557L3.98789 27.2466L4.90312 27.8921C5.09789 28.0208 5.36836 27.976 5.49187 27.7791C5.61 27.5844 5.53664 27.3022 5.28328 27.1925L4.28718 26.731L5.29711 26.2482C5.53875 26.1385 5.6025 25.8722 5.5057 25.6754C5.38968 25.471 5.09578 25.4316 4.90101 25.5603L3.99 26.2186L4.09101 25.0967C4.12078 24.8529 3.93867 24.6486 3.70664 24.6486C3.44367 24.6486 3.28828 24.8529 3.30844 25.0967L3.39773 26.2186L2.47922 25.5582C2.28656 25.4316 2.02148 25.4614 1.89586 25.6754C1.77984 25.8722 1.84359 26.1289 2.08734 26.2482L3.09937 26.7289L2.08523 27.2042C1.84359 27.3139 1.77023 27.5747 1.88836 27.7791C2.00437 27.9952 2.28656 28.0304 2.47922 27.8921L3.39773 27.2508L3.31804 28.3557C3.3 28.5898 3.44367 28.8134 3.70664 28.8134ZM10.1988 28.8134C10.4309 28.8134 10.5937 28.5898 10.5736 28.3557L10.4801 27.2466L11.3953 27.8921C11.5805 28.0208 11.8605 27.976 11.9841 27.7791C12.1022 27.5844 12.0288 27.3022 11.7755 27.1925L10.7698 26.731L11.7893 26.2482C12.0309 26.1385 12.0947 25.8722 11.9979 25.6754C11.8819 25.471 11.5784 25.4316 11.3932 25.5603L10.4822 26.2186L10.5832 25.0967C10.613 24.8529 10.4309 24.6486 10.1988 24.6486C9.93586 24.6486 9.78047 24.8529 9.80062 25.0967L9.88993 26.2186L8.96179 25.5582C8.77875 25.4316 8.51367 25.4614 8.38805 25.6754C8.27203 25.8722 8.33578 26.1289 8.57953 26.2482L9.59156 26.7289L8.57742 27.2042C8.33578 27.3139 8.26242 27.5747 8.38054 27.7791C8.49656 27.9952 8.77875 28.0304 8.96179 27.8921L9.88993 27.2508L9.81023 28.3557C9.79219 28.5898 9.93586 28.8134 10.1988 28.8134ZM16.691 28.8134C16.923 28.8134 17.0859 28.5898 17.0658 28.3557L16.9627 27.2466L17.8875 27.8921C18.0727 28.0208 18.3506 27.976 18.4762 27.7791C18.5944 27.5844 18.521 27.3022 18.2677 27.1925L17.2619 26.731L18.2815 26.2482C18.5231 26.1385 18.5869 25.8722 18.488 25.6754C18.3741 25.471 18.0705 25.4316 17.8854 25.5603L16.9648 26.2186L17.0754 25.0967C17.1052 24.8529 16.923 24.6486 16.691 24.6486C16.428 24.6486 16.2727 24.8529 16.2928 25.0967L16.3821 26.2186L15.454 25.5582C15.2709 25.4316 15.0059 25.4614 14.8802 25.6754C14.7642 25.8722 14.828 26.1289 15.0717 26.2482L16.0837 26.7289L15.0696 27.2042C14.828 27.3139 14.7546 27.5747 14.8727 27.7791C14.9887 27.9952 15.2709 28.0304 15.454 27.8921L16.3821 27.2508L16.3024 28.3557C16.2844 28.5898 16.428 28.8134 16.691 28.8134Z" fill="black"/>
<path d="M5.67866 18.4097H20.2786C24.2004 18.4097 27.1336 15.4285 27.1336 11.7179C27.1336 7.89734 24.0593 5.06352 20.0318 5.06352C18.5923 2.23227 15.9178 0.318359 12.3666 0.318359C7.87593 0.318359 4.23257 3.77328 3.79101 8.1336C1.63828 8.79266 0 10.6662 0 13.1916C0 16.0955 2.12531 18.4097 5.67866 18.4097Z" fill="black"/>
</svg>
