<svg width="28" height="28" viewBox="0 0 28 28" fill="none" xmlns="http://www.w3.org/2000/svg">
<path d="M14.105 26.2301C20.7369 26.2301 26.2121 20.7549 26.2121 14.123C26.2121 7.50291 20.7273 2.01807 14.0954 2.01807C7.47523 2.01807 2 7.50291 2 14.123C2 20.7549 7.48484 26.2301 14.105 26.2301Z" fill="black"/>
<path d="M14.0954 21.6711C13.6887 21.6711 13.3885 21.3666 13.3885 20.9248V19.6754L12.4848 20.2098C12.1034 20.4406 11.7299 20.3734 11.5096 20.0262C11.3148 19.7122 11.4353 19.3086 11.7782 19.1084L13.3885 18.1857V17.3694L13.5141 15.1398L11.6394 16.3578L10.9403 16.7724L10.933 18.6214C10.9267 19.0271 10.6478 19.336 10.2688 19.3234C9.85675 19.3149 9.60644 19.002 9.63386 18.5687L9.6348 17.5177L8.56441 18.151C8.19292 18.3692 7.78839 18.267 7.5648 17.8998C7.35082 17.5229 7.47644 17.1162 7.85542 16.8927L8.92582 16.2903L8.02112 15.7674C7.62831 15.5691 7.50292 15.2082 7.68292 14.8409C7.86292 14.5046 8.27613 14.4099 8.63706 14.6037L10.2292 15.5375L10.9208 15.1187L12.95 14.1188L10.9208 13.1286L10.2292 12.7194L8.63706 13.6339C8.27613 13.8277 7.86714 13.7426 7.67331 13.4084C7.49331 13.0294 7.63581 12.6781 8.02112 12.4798L8.92582 11.957L7.85331 11.345C7.47644 11.1214 7.34332 10.7169 7.5648 10.34C7.77667 9.98659 8.19292 9.8844 8.56441 10.0963L9.6348 10.7199L9.63386 9.66268C9.61066 9.23565 9.86097 8.93237 10.2688 8.92393C10.6478 8.91127 10.9267 9.21057 10.933 9.61627L10.9403 11.4728L11.6394 11.8799L13.5141 13.1075L13.3885 10.8683V10.052L11.7782 9.13885C11.4332 8.92487 11.3127 8.52338 11.5096 8.21143C11.7299 7.86432 12.1034 7.80666 12.4848 8.02791L13.3885 8.56229V7.31283C13.3885 6.88065 13.6887 6.56659 14.0954 6.56659C14.5137 6.56659 14.814 6.87104 14.814 7.31283V8.55268L15.6985 8.02791C16.0798 7.79705 16.463 7.86432 16.6834 8.21143C16.8685 8.52549 16.7576 8.92908 16.4052 9.13885L14.8044 10.052V10.8683L14.6787 13.1075L16.5727 11.8703L17.2527 11.4728L17.2599 9.61627C17.2662 9.21057 17.5452 8.91127 17.9337 8.92393C18.3266 8.93237 18.5865 9.24526 18.5591 9.669L18.556 10.7296L19.6285 10.0963C20 9.8844 20.4141 9.97698 20.6281 10.34C20.8304 10.7265 20.7165 11.1193 20.3375 11.345L19.2671 11.957L20.1622 12.4798C20.5454 12.6781 20.6975 13.0433 20.5196 13.3967C20.3258 13.733 19.9168 13.8277 19.5559 13.6339L17.9637 12.7098L17.2721 13.1286L15.2429 14.1188L17.2721 15.1187L17.9637 15.5375L19.5559 14.6037C19.9168 14.4216 20.3141 14.5046 20.5196 14.8484C20.6975 15.2082 20.5454 15.5595 20.1622 15.7674L19.2671 16.2903L20.3375 16.8927C20.7165 17.1162 20.8304 17.5208 20.626 17.8998C20.3949 18.267 20 18.3596 19.6285 18.151L18.556 17.5081L18.5591 18.575C18.5823 19.002 18.3223 19.3128 17.9241 19.3234C17.5452 19.336 17.2662 19.0271 17.2599 18.6214L17.2527 16.7766L16.5727 16.3599L14.6787 15.1419L14.8044 17.3694V18.1857L16.4052 19.0988C16.7576 19.3086 16.8685 19.7122 16.6834 20.0262C16.4609 20.3734 16.0798 20.4544 15.6985 20.2098L14.814 19.685V20.9248C14.814 21.3762 14.5137 21.6711 14.0954 21.6711Z" fill="white"/>
</svg>
