<svg width="28" height="28" viewBox="0 0 28 28" fill="none" xmlns="http://www.w3.org/2000/svg">
<path d="M14.105 26.2301C20.7369 26.2301 26.2121 20.7549 26.2121 14.123C26.2121 7.50291 20.7273 2.01807 14.0954 2.01807C7.47523 2.01807 2 7.50291 2 14.123C2 20.7549 7.48484 26.2301 14.105 26.2301Z" fill="black"/>
<path d="M8.73262 19.0695C7.24738 19.0695 6.2384 18.1074 6.2384 16.7576C6.2384 15.6976 6.89582 14.8463 7.86426 14.5299C8.07519 12.6249 9.69144 11.1364 11.6283 11.1364C13.1417 11.1364 14.3225 11.9565 14.9769 13.179C16.7476 13.2078 18.0549 14.4692 18.0549 16.1204C18.0549 17.7952 16.7581 19.0695 15.0683 19.0695H8.73262ZM22.103 12.845C22.103 13.8891 20.8988 15.4737 18.9101 15.7227C18.7346 13.9273 17.3494 12.5752 15.4976 12.3291C15.372 12.1491 15.2443 11.9842 15.091 11.8192C15.2966 10.0623 16.8167 8.70457 17.9656 8.65442C18.1904 8.65442 18.3385 8.7716 18.3385 8.9516C18.3385 9.27012 17.9281 9.85723 17.9281 10.6424C17.9281 11.9575 18.8298 12.8089 20.2695 12.8068C21.0814 12.8068 21.5225 12.4444 21.8176 12.4444C22.0072 12.4444 22.103 12.6202 22.103 12.845Z" fill="white"/>
</svg>
