<svg width="28" height="28" viewBox="0 0 28 28" fill="none" xmlns="http://www.w3.org/2000/svg">
<path d="M14.105 26.2301C20.7369 26.2301 26.2121 20.7549 26.2121 14.123C26.2121 7.50291 20.7273 2.01807 14.0954 2.01807C7.47523 2.01807 2 7.50291 2 14.123C2 20.7549 7.48484 26.2301 14.105 26.2301Z" fill="black"/>
<path d="M10.3294 15.6136C8.63419 15.6136 7.62122 14.5012 7.62122 13.125C7.62122 11.9358 8.38435 11.0302 9.42942 10.7107C9.64763 8.59032 11.4143 6.9436 13.5423 6.9436C15.1927 6.9436 16.4907 7.83798 17.2142 9.23064C19.1417 9.23064 20.6197 10.5762 20.6197 12.4129C20.6197 14.1815 19.1952 15.6136 17.3434 15.6136H10.3294ZM11.0714 18.727C10.9287 18.989 10.5804 19.0945 10.3046 18.9401C10.0266 18.7835 9.94669 18.416 10.0894 18.1615L10.7747 16.9891C10.9175 16.7271 11.2657 16.6312 11.5437 16.7761C11.8196 16.9422 11.8995 17.3001 11.7568 17.5547L11.0714 18.727ZM14.2761 18.7312C14.1355 18.9954 13.7755 19.1008 13.5113 18.9464C13.2334 18.7877 13.1534 18.4202 13.3058 18.1699L13.9815 16.9933C14.1242 16.7313 14.4821 16.6354 14.7505 16.7803C15.0242 16.9486 15.1062 17.3065 14.9518 17.5589L14.2761 18.7312ZM17.4732 18.727C17.3284 18.989 16.9801 19.0945 16.7084 18.9401C16.4305 18.7835 16.3484 18.416 16.4912 18.1615L17.1765 16.9891C17.3213 16.7271 17.6696 16.6312 17.9455 16.7761C18.2288 16.9422 18.3034 17.3001 18.1585 17.5547L17.4732 18.727ZM9.61856 21.0944C9.17325 21.0944 8.80997 20.7311 8.80997 20.2858C8.80997 19.8522 9.17325 19.489 9.61856 19.489C10.0522 19.489 10.4154 19.8522 10.4154 20.2858C10.4154 20.7311 10.0522 21.0944 9.61856 21.0944ZM12.8253 21.1008C12.3779 21.1008 12.0167 20.7375 12.0167 20.2901C12.0167 19.8565 12.3779 19.4932 12.8253 19.4932C13.2685 19.4932 13.6318 19.8565 13.6318 20.2901C13.6318 20.7375 13.2685 21.1008 12.8253 21.1008ZM16.0224 21.0944C15.5846 21.0944 15.2117 20.7311 15.2117 20.2858C15.2117 19.8522 15.5846 19.489 16.0224 19.489C16.456 19.489 16.8289 19.8522 16.8289 20.2858C16.8289 20.7311 16.456 21.0944 16.0224 21.0944Z" fill="white"/>
</svg>
