<svg width="28" height="28" viewBox="0 0 28 28" fill="none" xmlns="http://www.w3.org/2000/svg">
<path d="M20.0066 17.5428C13.7996 17.5428 9.84828 13.6841 9.84828 7.49492C9.84828 6.15711 10.1541 4.34538 10.5844 3.39382C10.7131 3.09476 10.7577 2.88851 10.7577 2.72492C10.7577 2.36211 10.4937 2 10.0072 2C9.84453 2 9.54851 2.04359 9.26328 2.15C4.90836 3.89703 2 8.51047 2 13.4016C2 20.2796 7.20781 25.212 14.0645 25.212C19.0562 25.212 23.402 22.2041 24.9289 18.3078C25.0534 18.0003 25.0916 17.6938 25.0916 17.5461C25.0916 17.0872 24.7325 16.7795 24.3643 16.7795C24.1698 16.7795 23.986 16.8315 23.7149 16.9356C22.8441 17.2412 21.4163 17.5428 20.0066 17.5428Z" fill="black"/>
</svg>
