<svg width="35" height="34" viewBox="0 0 35 34" fill="none" xmlns="http://www.w3.org/2000/svg">
<path d="M4.99313 29.7281L6.50391 27.1071C6.7275 26.7323 6.61992 26.2821 6.23883 26.0564C5.84813 25.8403 5.42016 25.9605 5.19235 26.3533L3.67196 28.9936C3.45797 29.3512 3.56344 29.7972 3.94454 30.0229C4.32563 30.239 4.78125 30.0954 4.99313 29.7281ZM8.67164 33.019L10.1803 30.4076C10.4039 30.0232 10.2867 29.5729 9.91524 29.3569C9.52453 29.1312 9.09657 29.261 8.86875 29.6538L7.34836 32.2844C7.13649 32.6496 7.24196 33.0977 7.62305 33.3138C8.00203 33.5299 8.45766 33.3958 8.67164 33.019ZM14.3234 29.7185L15.832 27.0975C16.0556 26.7227 15.9384 26.2725 15.5573 26.0468C15.1762 25.8307 14.7483 25.9509 14.5205 26.3437L13.0001 28.984C12.7882 29.3416 12.8841 29.7876 13.2748 30.0133C13.6537 30.2294 14.1094 30.0858 14.3234 29.7185ZM17.9901 33.0094L19.5105 30.3979C19.7341 30.0136 19.6148 29.5633 19.2337 29.3472C18.8526 29.1215 18.4268 29.2514 18.1873 29.6442L16.669 32.2748C16.455 32.64 16.5605 33.0881 16.9512 33.3042C17.3226 33.5203 17.7858 33.3841 17.9901 33.0094Z" fill="black"/>
<path d="M22.3371 6.40312C19.0744 6.40312 16.4688 9.01617 16.4688 12.2768C16.4688 12.4765 16.489 12.6837 16.5155 12.8695L18.5402 12.963C18.4744 12.7364 18.4425 12.4908 18.4425 12.2662C18.4425 10.0812 20.1574 8.36624 22.335 8.36624C24.5105 8.36624 26.2254 10.0812 26.2254 12.2662C26.2254 14.0819 25.0207 15.6005 23.3437 16.0509L23.3555 18.0546C26.1208 17.5561 28.1873 15.1638 28.1873 12.2768C28.1873 9.01617 25.5914 6.40312 22.3371 6.40312ZM15.3757 6.81843C15.7962 7.2389 16.4817 7.2314 16.8787 6.82265C17.2779 6.4139 17.2833 5.7518 16.8745 5.33883L15.15 3.59625C14.7455 3.1875 14.0707 3.18961 13.664 3.59625C13.2553 4.005 13.2499 4.68093 13.6683 5.09929L15.3757 6.81843ZM22.3308 4.54828C22.9162 4.54828 23.3878 4.06289 23.3878 3.48703V1.06125C23.3878 0.47367 22.9162 0 22.3308 0C21.7453 0 21.2737 0.47367 21.2737 1.06125V3.48703C21.2737 4.06289 21.7453 4.54828 22.3308 4.54828ZM27.7849 6.82476C28.1819 7.23351 28.8696 7.2389 29.2879 6.82054L31.0071 5.10351C31.4179 4.68515 31.4179 4.00711 31.0092 3.60047C30.6026 3.19172 29.9362 3.19383 29.5254 3.60469L27.787 5.33883C27.3762 5.74547 27.3858 6.41812 27.7849 6.82476ZM31.095 13.3275H33.5325C34.1104 13.3275 34.5841 12.858 34.5841 12.2747C34.5841 11.6892 34.1104 11.2134 33.5325 11.2134H31.095C30.5287 11.2134 30.0337 11.6892 30.0337 12.2747C30.0337 12.858 30.5287 13.3275 31.095 13.3275ZM29.5233 20.9564C29.932 21.3651 30.5983 21.3576 31.0071 20.951C31.4158 20.5423 31.4095 19.8684 31.0029 19.4651L29.2687 17.7342C28.8621 17.3351 28.1894 17.3276 27.7807 17.7342C27.374 18.143 27.3783 18.8189 27.787 19.2276L29.5233 20.9564Z" fill="black"/>
<path d="M5.14382 24.194H17.8762C21.3473 24.194 24.0515 21.5559 24.0515 18.1605C24.0515 14.7823 21.3534 12.2294 17.7935 12.172C16.4055 9.58876 13.9458 8.03625 10.9816 8.03625C7.04999 8.03625 3.77226 11.0194 3.32226 14.9159C1.33477 15.5517 0 17.2835 0 19.4606C0 22.2112 2.08711 24.194 5.14382 24.194ZM5.12648 22.0301C3.18491 22.0301 2.16608 20.9323 2.16608 19.5054C2.16608 18.2822 2.89475 17.2333 4.5921 16.7847C5.1778 16.6282 5.38241 16.3598 5.44194 15.7549C5.7621 12.4462 8.11944 10.2056 10.9816 10.2056C13.1897 10.2056 14.9339 11.4267 16.0301 13.597C16.2984 14.1115 16.586 14.2936 17.2048 14.2936C20.2441 14.2936 21.878 16.0615 21.878 18.217C21.878 20.3376 20.1726 22.0301 17.8819 22.0301H5.12648Z" fill="black"/>
</svg>
