<svg width="28" height="28" viewBox="0 0 28 28" fill="none" xmlns="http://www.w3.org/2000/svg">
<path d="M14.105 26.21C20.7369 26.21 26.2121 20.7273 26.2121 14.105C26.2121 7.47312 20.7273 2 14.0954 2C7.47523 2 2 7.47312 2 14.105C2 20.7273 7.48484 26.21 14.105 26.21ZM14.105 23.8255C8.71085 23.8255 4.39412 19.4991 4.39412 14.105C4.39412 8.71085 8.70124 4.38452 14.0954 4.38452C19.4895 4.38452 23.8276 8.71085 23.8276 14.105C23.8276 19.4991 19.4991 23.8255 14.105 23.8255Z" fill="black"/>
<path d="M10.516 15.2674H17.3169C19.108 15.2674 20.4835 13.8843 20.4835 12.1743C20.4835 10.3886 19.0524 9.0899 17.1877 9.0899C16.4855 7.73661 15.2248 6.88489 13.633 6.88489C11.5658 6.88489 9.85764 8.47513 9.64365 10.5231C8.63584 10.8425 7.89404 11.6992 7.89404 12.865C7.89404 14.2019 8.86974 15.2674 10.516 15.2674ZM12.1121 20.1414L13.8334 17.152C13.9953 16.8803 13.9058 16.5555 13.632 16.401C13.3679 16.2562 13.0505 16.3403 12.8982 16.612L11.1673 19.5918C11.015 19.8517 11.0949 20.1883 11.3708 20.3428C11.6328 20.4876 11.9598 20.4013 12.1121 20.1414ZM17.2974 20.1414L19.0304 17.152C19.1923 16.8803 19.1007 16.5555 18.8291 16.401C18.5628 16.2562 18.2455 16.3403 18.0856 16.612L16.3623 19.5918C16.2099 19.8517 16.2898 20.1883 16.5657 20.3428C16.8277 20.4876 17.1547 20.4013 17.2974 20.1414ZM14.7048 20.1372L16.426 17.1456C16.588 16.8761 16.4984 16.5492 16.2247 16.3947C15.9605 16.2499 15.6432 16.3361 15.4812 16.6056L13.76 19.5876C13.6077 19.8475 13.6876 20.1841 13.9634 20.3385C14.2255 20.4834 14.5524 20.3971 14.7048 20.1372ZM9.50982 20.1372L11.2311 17.1456C11.393 16.8761 11.3035 16.5492 11.0298 16.3947C10.7752 16.2499 10.4483 16.3361 10.2959 16.6056L8.56295 19.5876C8.41271 19.8475 8.49264 20.1841 8.76849 20.3385C9.03053 20.4834 9.35748 20.3971 9.50982 20.1372Z" fill="black"/>
</svg>
