<svg width="28" height="28" viewBox="0 0 28 28" fill="none" xmlns="http://www.w3.org/2000/svg">
<path d="M21.2459 20.827H6.12419C5.67606 20.827 5.32263 21.1645 5.32263 21.6138C5.32263 22.0631 5.67606 22.4006 6.12419 22.4006H21.2459C21.6919 22.4006 22.0453 22.0631 22.0453 21.6138C22.0453 21.1645 21.6919 20.827 21.2459 20.827ZM21.2459 24.8018H6.12419C5.67606 24.8018 5.32263 25.1372 5.32263 25.5886C5.32263 26.0379 5.67606 26.3829 6.12419 26.3829H21.2459C21.6919 26.3829 22.0453 26.0379 22.0453 25.5886C22.0453 25.1372 21.6919 24.8018 21.2459 24.8018Z" fill="black"/>
<path d="M5.67866 18.0914H20.2786C24.2004 18.0914 27.1336 15.1101 27.1336 11.3995C27.1336 7.57898 24.0593 4.74516 20.0318 4.74516C18.5923 1.9139 15.9178 0 12.3666 0C7.87593 0 4.23257 3.45492 3.79101 7.81523C1.63828 8.47429 0 10.3479 0 12.8733C0 15.7772 2.12531 18.0914 5.67866 18.0914ZM5.68265 15.8979C3.35624 15.8979 2.19139 14.6114 2.19139 12.934C2.19139 11.5425 3.01803 10.338 4.97647 9.82124C5.65053 9.63913 5.87858 9.32601 5.94983 8.64234C6.28264 4.79554 9.05038 2.1935 12.3666 2.1935C14.9231 2.1935 16.9594 3.61288 18.2313 6.16686C18.5156 6.75585 18.8714 6.9614 19.586 6.9614C23.0632 6.9614 24.9422 8.99249 24.9422 11.4506C24.9422 13.9252 22.9896 15.8979 20.3536 15.8979H5.68265Z" fill="black"/>
</svg>
