<svg width="28" height="28" viewBox="0 0 28 28" fill="none" xmlns="http://www.w3.org/2000/svg">
<path d="M14.105 26.21C20.7369 26.21 26.2121 20.7273 26.2121 14.105C26.2121 7.47312 20.7273 2 14.0954 2C7.47523 2 2 7.47312 2 14.105C2 20.7273 7.48484 26.21 14.105 26.21ZM14.105 23.8255C8.71085 23.8255 4.39412 19.4991 4.39412 14.105C4.39412 8.71085 8.70124 4.38452 14.0954 4.38452C19.4895 4.38452 23.8276 8.71085 23.8276 14.105C23.8276 19.4991 19.4991 23.8255 14.105 23.8255Z" fill="black"/>
<path d="M9.13643 16.9376H14.9089C16.4593 16.9376 17.6347 15.7538 17.6347 14.228C17.6347 12.7184 16.4391 11.5806 14.8388 11.5496C14.2376 10.4272 13.1548 9.68376 11.7734 9.68376C10.009 9.68376 8.53222 11.037 8.34472 12.7812C7.46464 13.0796 6.8562 13.8467 6.8562 14.828C6.8562 16.0522 7.77893 16.9376 9.13643 16.9376ZM21.3741 11.2187C21.3741 11.0077 21.2825 10.865 21.1088 10.865C20.8468 10.865 20.4216 11.1847 19.6885 11.1847C18.3659 11.1868 17.5388 10.4131 17.5388 9.20024C17.5388 8.48001 17.9258 7.96532 17.9258 7.65852C17.9258 7.49446 17.7894 7.37938 17.5784 7.38899C16.5158 7.42954 15.1351 8.68509 14.9412 10.2833C15.0828 10.4302 15.1946 10.591 15.3181 10.7518C17.0187 10.9627 18.2708 12.2201 18.4475 13.8547C20.2583 13.6238 21.3741 12.1819 21.3741 11.2187ZM10.59 19.4738C10.5218 19.6102 10.5879 19.7232 10.7361 19.7232H11.7418L10.9967 21.5204C10.9402 21.6622 11.1054 21.7602 11.2343 21.6355L13.8727 19.0578C13.9899 18.9352 13.9355 18.7595 13.7619 18.7595H12.5719L13.088 17.7943C13.1562 17.6717 13.1073 17.5545 12.9612 17.5545H11.6323C11.4746 17.5545 11.3989 17.6131 11.3424 17.7378L10.59 19.4738Z" fill="black"/>
</svg>
