<svg width="28" height="28" viewBox="0 0 28 28" fill="none" xmlns="http://www.w3.org/2000/svg">
<path d="M14.105 26.21C20.7369 26.21 26.2121 20.7273 26.2121 14.105C26.2121 7.47312 20.7273 2 14.0954 2C7.47523 2 2 7.47312 2 14.105C2 20.7273 7.48484 26.21 14.105 26.21ZM14.105 23.8255C8.71085 23.8255 4.39412 19.4991 4.39412 14.105C4.39412 8.71085 8.70124 4.38452 14.0954 4.38452C19.4895 4.38452 23.8276 8.71085 23.8276 14.105C23.8276 19.4991 19.4991 23.8255 14.105 23.8255Z" fill="black"/>
<path d="M10.437 15.5349H17.2379C19.029 15.5349 20.4045 14.154 20.4045 12.444C20.4045 10.6679 18.9755 9.35958 17.1087 9.35958C16.4087 8.00419 15.1459 7.15247 13.554 7.15247C11.4868 7.15247 9.78076 8.74482 9.56467 10.8024C8.55686 11.1101 7.81506 11.9785 7.81506 13.1347C7.81506 14.4694 8.79076 15.5349 10.437 15.5349ZM11.1535 18.5642L11.8154 17.4153C11.9581 17.1746 11.8782 16.8188 11.614 16.674C11.3499 16.5195 11.0133 16.625 10.8706 16.8753L10.2087 18.0125C10.066 18.2628 10.148 18.6186 10.4122 18.7655C10.6763 18.92 11.0129 18.8145 11.1535 18.5642ZM14.2548 18.5684L14.9166 17.4195C15.0594 17.1788 14.9891 16.823 14.7153 16.6782C14.4608 16.5237 14.1146 16.6292 13.9815 16.8795L13.3196 18.0188C13.1769 18.2691 13.2493 18.6249 13.523 18.7698C13.7755 18.9242 14.1216 18.8187 14.2548 18.5684ZM17.356 18.5642L18.0179 17.4153C18.1606 17.1746 18.0882 16.8188 17.8166 16.674C17.5503 16.5195 17.2137 16.625 17.0731 16.8753L16.4112 18.0125C16.2685 18.2628 16.3484 18.6186 16.6147 18.7655C16.8767 18.92 17.2133 18.8145 17.356 18.5642ZM9.7517 20.8571C10.1736 20.8571 10.523 20.498 10.523 20.072C10.523 19.6522 10.1736 19.3006 9.7517 19.3006C9.3181 19.3006 8.96654 19.6522 8.96654 20.072C8.96654 20.498 9.3181 20.8571 9.7517 20.8571ZM12.853 20.8634C13.2844 20.8634 13.6339 20.5023 13.6339 20.0783C13.6339 19.6564 13.2844 19.3048 12.853 19.3048C12.4269 19.3048 12.0774 19.6564 12.0774 20.0783C12.0774 20.5023 12.4269 20.8634 12.853 20.8634ZM15.9521 20.8571C16.374 20.8571 16.7352 20.498 16.7352 20.072C16.7352 19.6522 16.374 19.3006 15.9521 19.3006C15.5281 19.3006 15.1691 19.6522 15.1691 20.072C15.1691 20.498 15.5281 20.8571 15.9521 20.8571Z" fill="black"/>
</svg>
