<svg width="28" height="29" viewBox="0 0 28 29" fill="none" xmlns="http://www.w3.org/2000/svg">
<path d="M19.8834 13.4979C19.8834 10.0198 17.0048 7.13156 13.5234 7.13156C10.042 7.13156 7.16133 10.0198 7.16133 13.4979C7.16133 14.2784 7.32774 15.03 7.59657 15.7006H19.4407C19.7191 15.03 19.8834 14.2784 19.8834 13.4979ZM1.12101 14.208H3.83719C4.48453 14.208 4.97742 13.7461 4.96781 13.1702C4.9582 12.6061 4.48453 12.1345 3.83719 12.1345H1.12101C0.477889 12.1345 0 12.5965 0 13.1702C0 13.7461 0.479998 14.208 1.12101 14.208ZM7.47023 7.47023C7.86726 7.06149 7.86516 6.39305 7.40836 5.93625L5.48531 4.01742C5.0264 3.55641 4.36969 3.56391 3.96094 3.96305C3.5543 4.36008 3.5543 5.02851 4.0132 5.48953L5.93625 7.40625C6.39305 7.86305 7.0711 7.87898 7.47023 7.47023ZM13.5234 4.96992C14.0972 4.96031 14.5612 4.47281 14.5612 3.8393V1.12101C14.5612 0.47578 14.0972 0 13.5234 0C12.9476 0 12.4856 0.47578 12.4856 1.12101V3.8393C12.4856 4.47281 12.9476 4.97953 13.5234 4.96992ZM19.5766 7.47023C19.9758 7.86937 20.6538 7.86305 21.1106 7.40625L23.0337 5.48953C23.4926 5.02851 23.483 4.36969 23.0742 3.96305C22.6868 3.5543 22.0205 3.55641 21.552 4.01742L19.6289 5.93625C19.1817 6.39305 19.1679 7.0732 19.5766 7.47023ZM23.2097 14.208H25.9259C26.5711 14.2177 27.0469 13.7461 27.0469 13.1702C27.0469 12.6061 26.5711 12.1345 25.9259 12.1345H23.2097C22.5645 12.1345 22.0673 12.5965 22.0791 13.1702C22.0887 13.7461 22.5666 14.208 23.2097 14.208Z" fill="black"/>
<path d="M1.66543 18.7402H25.3418C25.7974 18.7402 26.1434 18.4027 26.1434 17.9534C26.1434 17.5041 25.7974 17.1666 25.3418 17.1666H1.66543C1.21941 17.1666 0.863861 17.5041 0.863861 17.9534C0.863861 18.4027 1.21941 18.7402 1.66543 18.7402ZM2.65262 22.5337C2.99012 22.5337 3.2723 22.2516 3.2723 21.9023C3.2723 21.5573 2.99012 21.2752 2.65262 21.2752C2.2959 21.2752 2.02332 21.5573 2.02332 21.9023C2.02332 22.2516 2.2959 22.5337 2.65262 22.5337ZM7.60004 22.5337C7.94504 22.5337 8.22721 22.2516 8.22721 21.9023C8.22721 21.5573 7.94504 21.2752 7.60004 21.2752C7.25082 21.2752 6.96863 21.5573 6.96863 21.9023C6.96863 22.2516 7.25082 22.5337 7.60004 22.5337ZM12.555 22.5337C12.8925 22.5337 13.1747 22.2516 13.1747 21.9023C13.1747 21.5573 12.8925 21.2752 12.555 21.2752C12.1983 21.2752 11.9257 21.5573 11.9257 21.9023C11.9257 22.2516 12.1983 22.5337 12.555 22.5337ZM17.5024 22.5337C17.8474 22.5337 18.1296 22.2516 18.1296 21.9023C18.1296 21.5573 17.8474 21.2752 17.5024 21.2752C17.1532 21.2752 16.871 21.5573 16.871 21.9023C16.871 22.2516 17.1532 22.5337 17.5024 22.5337ZM22.4573 22.5337C22.7948 22.5337 23.077 22.2516 23.077 21.9023C23.077 21.5573 22.7948 21.2752 22.4573 21.2752C22.1006 21.2752 21.828 21.5573 21.828 21.9023C21.828 22.2516 22.1006 22.5337 22.4573 22.5337ZM1.15473 25.3793C1.49972 25.3793 1.78191 25.0971 1.78191 24.7404C1.78191 24.4029 1.49972 24.1207 1.15473 24.1207C0.805502 24.1207 0.523315 24.4029 0.523315 24.7404C0.523315 25.0971 0.805502 25.3793 1.15473 25.3793ZM6.10965 25.3793C6.44504 25.3793 6.72722 25.0971 6.72722 24.7404C6.72722 24.4029 6.44504 24.1207 6.10965 24.1207C5.75082 24.1207 5.47074 24.4029 5.47074 24.7404C5.47074 25.0971 5.75082 25.3793 6.10965 25.3793ZM11.0571 25.3793C11.4021 25.3793 11.6843 25.0971 11.6843 24.7404C11.6843 24.4029 11.4021 24.1207 11.0571 24.1207C10.7079 24.1207 10.4257 24.4029 10.4257 24.7404C10.4257 25.0971 10.7079 25.3793 11.0571 25.3793ZM16.012 25.3793C16.3474 25.3793 16.6296 25.0971 16.6296 24.7404C16.6296 24.4029 16.3474 24.1207 16.012 24.1207C15.6532 24.1207 15.3731 24.4029 15.3731 24.7404C15.3731 25.0971 15.6532 25.3793 16.012 25.3793ZM20.9595 25.3793C21.3045 25.3793 21.5866 25.0971 21.5866 24.7404C21.5866 24.4029 21.3045 24.1207 20.9595 24.1207C20.6102 24.1207 20.328 24.4029 20.328 24.7404C20.328 25.0971 20.6102 25.3793 20.9595 25.3793ZM25.9144 25.3793C26.2498 25.3793 26.532 25.0971 26.532 24.7404C26.532 24.4029 26.2498 24.1207 25.9144 24.1207C25.5555 24.1207 25.2734 24.4029 25.2734 24.7404C25.2734 25.0971 25.5555 25.3793 25.9144 25.3793ZM4.60965 28.2035C4.95676 28.2035 5.22933 27.9213 5.22933 27.5646C5.22933 27.2271 4.95676 26.947 4.60965 26.947C4.25293 26.947 3.98035 27.2271 3.98035 27.5646C3.98035 27.9213 4.25293 28.2035 4.60965 28.2035ZM9.56668 28.2035C9.90207 28.2035 10.1843 27.9213 10.1843 27.5646C10.1843 27.2271 9.90207 26.947 9.56668 26.947C9.20784 26.947 8.92566 27.2271 8.92566 27.5646C8.92566 27.9213 9.20784 28.2035 9.56668 28.2035ZM14.512 28.2035C14.8591 28.2035 15.1317 27.9213 15.1317 27.5646C15.1317 27.2271 14.8591 26.947 14.512 26.947C14.1553 26.947 13.8827 27.2271 13.8827 27.5646C13.8827 27.9213 14.1553 28.2035 14.512 28.2035ZM19.4691 28.2035C19.8045 28.2035 20.0866 27.9213 20.0866 27.5646C20.0866 27.2271 19.8045 26.947 19.4691 26.947C19.1102 26.947 18.828 27.2271 18.828 27.5646C18.828 27.9213 19.1102 28.2035 19.4691 28.2035ZM24.4144 28.2035C24.7615 28.2035 25.0341 27.9213 25.0341 27.5646C25.0341 27.2271 24.7615 26.947 24.4144 26.947C24.0577 26.947 23.7851 27.2271 23.7851 27.5646C23.7851 27.9213 24.0577 28.2035 24.4144 28.2035Z" fill="black"/>
</svg>
