<svg width="28" height="28" viewBox="0 0 28 28" fill="none" xmlns="http://www.w3.org/2000/svg">
<path d="M14.105 26.2301C20.7369 26.2301 26.2121 20.7549 26.2121 14.123C26.2121 7.50291 20.7273 2.01807 14.0954 2.01807C7.47523 2.01807 2 7.50291 2 14.123C2 20.7549 7.48484 26.2301 14.105 26.2301Z" fill="black"/>
<path d="M9.73531 13.6755C9.73531 14.077 9.39664 14.389 8.95039 14.389H7.51109C7.08828 14.389 6.755 14.0674 6.755 13.6755C6.755 13.2933 7.08828 12.9717 7.51109 12.9717H8.95039C9.38703 12.9717 9.73531 13.2837 9.73531 13.6755ZM11.0075 10.8213C10.7232 11.1014 10.2802 11.0684 9.97672 10.7787L8.94898 9.74345C8.63586 9.43454 8.62836 8.99486 8.90094 8.71056C9.17352 8.43798 9.61859 8.41876 9.92961 8.734L10.9745 9.77885C11.278 10.0845 11.2972 10.5253 11.0075 10.8213ZM14.105 9.19595C13.7131 9.19595 13.4012 8.84134 13.4012 8.42064V6.97923C13.4012 6.5447 13.7227 6.22314 14.105 6.22314C14.4873 6.22314 14.8184 6.5447 14.8184 6.97923V8.42064C14.8184 8.84134 14.4969 9.19595 14.105 9.19595ZM17.2142 10.8213C16.9245 10.5253 16.9245 10.0941 17.2355 9.77885L18.2825 8.734C18.5743 8.42837 19.0386 8.42837 19.3208 8.71056C19.5837 9.00447 19.5762 9.43454 19.261 9.74345L18.245 10.7787C17.9415 11.078 17.4985 11.0801 17.2142 10.8213ZM18.4843 13.6755C18.4843 13.2837 18.8293 12.9717 19.2617 12.9717H20.7085C21.1355 12.9717 21.4571 13.2933 21.4571 13.6755C21.4571 14.0674 21.1355 14.389 20.7085 14.389H19.2617C18.8293 14.389 18.4843 14.077 18.4843 13.6755ZM10.7361 14.9297C10.6316 14.598 10.5622 14.2579 10.5622 13.905C10.5622 11.9616 12.1754 10.3484 14.105 10.3484C16.0463 10.3484 17.6478 11.9616 17.6478 13.905C17.6478 14.2579 17.5805 14.598 17.476 14.9297H10.7361ZM7.53312 17.3015C7.12765 17.3015 6.755 16.9643 6.755 16.5576C6.755 16.1393 7.11383 15.8254 7.53312 15.8254H20.6865C21.1079 15.8254 21.4571 16.1372 21.4571 16.5576C21.4571 16.9685 21.0983 17.3015 20.6865 17.3015H7.53312ZM8.2482 19.4883C7.91281 19.4883 7.63602 19.204 7.63602 18.8761C7.63602 18.5407 7.91281 18.2564 8.2482 18.2564C8.5932 18.2564 8.85828 18.5407 8.85828 18.8761C8.85828 19.204 8.5932 19.4883 8.2482 19.4883ZM11.1856 19.4883C10.8502 19.4883 10.5756 19.204 10.5756 18.8761C10.5756 18.5407 10.8502 18.2564 11.1856 18.2564C11.521 18.2564 11.8053 18.5407 11.8053 18.8761C11.8053 19.204 11.521 19.4883 11.1856 19.4883ZM14.1188 19.4883C13.7813 19.4883 13.5066 19.204 13.5066 18.8761C13.5066 18.5407 13.7813 18.2564 14.1188 18.2564C14.4638 18.2564 14.7385 18.5407 14.7385 18.8761C14.7385 19.204 14.4638 19.4883 14.1188 19.4883ZM17.0659 19.4883C16.7284 19.4883 16.4441 19.204 16.4441 18.8761C16.4441 18.5407 16.7284 18.2564 17.0659 18.2564C17.4012 18.2564 17.6663 18.5407 17.6663 18.8761C17.6663 19.204 17.4012 19.4883 17.0659 19.4883ZM19.9873 19.4883C19.6616 19.4883 19.3773 19.204 19.3773 18.8761C19.3773 18.5407 19.6616 18.2564 19.9873 18.2564C20.3248 18.2564 20.6091 18.5407 20.6091 18.8761C20.6091 19.204 20.3248 19.4883 19.9873 19.4883ZM9.7025 21.1509C9.37672 21.1509 9.10203 20.8783 9.10203 20.5408C9.10203 20.2033 9.37672 19.919 9.7025 19.919C10.0496 19.919 10.3243 20.2033 10.3243 20.5408C10.3243 20.8783 10.0496 21.1509 9.7025 21.1509ZM12.6495 21.1509C12.3141 21.1509 12.0394 20.8783 12.0394 20.5408C12.0394 20.2033 12.3141 19.919 12.6495 19.919C12.987 19.919 13.2713 20.2033 13.2713 20.5408C13.2713 20.8783 12.987 21.1509 12.6495 21.1509ZM15.5827 21.1509C15.2473 21.1509 14.9727 20.8783 14.9727 20.5408C14.9727 20.2033 15.2473 19.919 15.5827 19.919C15.9298 19.919 16.1949 20.2033 16.1949 20.5408C16.1949 20.8783 15.9298 21.1509 15.5827 21.1509ZM18.5255 21.1509C18.1805 21.1509 17.9037 20.8783 17.9037 20.5408C17.9037 20.2033 18.1805 19.919 18.5255 19.919C18.8513 19.919 19.126 20.2033 19.126 20.5408C19.126 20.8783 18.8513 21.1509 18.5255 21.1509Z" fill="white"/>
</svg>
