<svg width="28" height="28" viewBox="0 0 28 28" fill="none" xmlns="http://www.w3.org/2000/svg">
<path d="M14.105 26.21C20.7369 26.21 26.2121 20.7273 26.2121 14.105C26.2121 7.47312 20.7273 2 14.0954 2C7.47523 2 2 7.47312 2 14.105C2 20.7273 7.48484 26.21 14.105 26.21ZM14.105 23.8255C8.71085 23.8255 4.39412 19.4991 4.39412 14.105C4.39412 8.71085 8.70124 4.38452 14.0954 4.38452C19.4895 4.38452 23.8276 8.71085 23.8276 14.105C23.8276 19.4991 19.4991 23.8255 14.105 23.8255Z" fill="black"/>
<path d="M8.14698 16.4274H9.47331C9.84925 16.4274 10.1528 16.1527 10.1528 15.7906C10.1528 15.4339 9.84925 15.1592 9.47331 15.1592H8.14698C7.76565 15.1592 7.46753 15.4435 7.46753 15.7906C7.46753 16.1335 7.76565 16.4274 8.14698 16.4274ZM10.3867 13.1666C10.6529 13.4328 11.0661 13.4541 11.3153 13.1996C11.5698 12.9409 11.541 12.5394 11.2822 12.271L10.3365 11.3274C10.0606 11.0495 9.65495 11.0687 9.41003 11.304C9.163 11.5585 9.16089 11.9492 9.43886 12.2251L10.3867 13.1666ZM14.1059 6.80542C13.7513 6.80542 13.467 7.11315 13.467 7.47737V9.48269L13.5022 9.8516L13.4668 9.82253L12.748 9.10277C12.6244 8.98253 12.4562 8.89324 12.286 8.89324C11.9645 8.89324 11.7228 9.14659 11.7228 9.45644C11.7228 9.62027 11.7908 9.77144 11.9378 9.90878L13.6641 11.536C13.8132 11.6755 13.9505 11.7362 14.1059 11.7362C14.2613 11.7362 14.3987 11.6755 14.5477 11.536L16.2741 9.90878C16.4307 9.77144 16.4891 9.62027 16.4891 9.45644C16.4891 9.14659 16.2474 8.89324 15.9259 8.89324C15.7557 8.89324 15.5757 8.98253 15.4735 9.10277L14.8241 9.7841L14.7097 9.88043L14.7448 9.48269V7.47737C14.7448 7.11315 14.4584 6.80542 14.1059 6.80542ZM16.9159 13.1996C17.165 13.4445 17.5569 13.4424 17.8348 13.1666L18.773 12.2251C19.0414 11.9492 19.0489 11.5585 18.8019 11.304C18.557 11.0495 18.1512 11.0591 17.8733 11.3274L16.9393 12.271C16.6613 12.549 16.6517 12.9409 16.9159 13.1996ZM18.7482 16.4274H20.0649C20.4601 16.4274 20.7444 16.1431 20.7444 15.7906C20.7444 15.4435 20.4601 15.1592 20.0649 15.1592H18.7482C18.3744 15.1592 18.057 15.4339 18.057 15.7906C18.057 16.1527 18.3744 16.4274 18.7482 16.4274ZM17.3047 15.9882C17.3047 14.2344 15.8577 12.7777 14.1059 12.7777C12.3638 12.7777 10.9072 14.2344 10.9072 15.9882C10.9072 16.3081 10.9649 16.6248 11.0694 16.933H17.1425C17.247 16.6248 17.3047 16.3081 17.3047 15.9882ZM8.16479 19.0055H20.0471C20.4228 19.0055 20.7444 18.714 20.7444 18.3425C20.7444 17.971 20.4324 17.6795 20.0471 17.6795H8.16479C7.78909 17.6795 7.46753 17.9731 7.46753 18.3425C7.46753 18.7098 7.80081 19.0055 8.16479 19.0055Z" fill="black"/>
</svg>
