<svg width="28" height="28" viewBox="0 0 28 28" fill="none" xmlns="http://www.w3.org/2000/svg">
<path d="M14.105 26.21C20.7369 26.21 26.2121 20.7273 26.2121 14.105C26.2121 7.47312 20.7273 2 14.0954 2C7.47523 2 2 7.47312 2 14.105C2 20.7273 7.48484 26.21 14.105 26.21ZM14.105 23.8255C8.71085 23.8255 4.39412 19.4991 4.39412 14.105C4.39412 8.71085 8.70124 4.38452 14.0954 4.38452C19.4895 4.38452 23.8276 8.71085 23.8276 14.105C23.8276 19.4991 19.4991 23.8255 14.105 23.8255Z" fill="black"/>
<path d="M8.67403 17.289H14.4444C15.9948 17.289 17.1702 16.1051 17.1702 14.5794C17.1702 13.0794 15.9746 11.9319 14.3668 11.9031C13.7635 10.7881 12.6903 10.0351 11.311 10.0351C9.5445 10.0351 8.0677 11.3884 7.8727 13.1326C7.00013 13.4309 6.3938 14.198 6.3938 15.1794C6.3938 16.4035 7.30481 17.289 8.67403 17.289ZM13.2941 9.53143C13.5113 9.7583 13.8755 9.73697 14.0832 9.53353C14.2812 9.32588 14.2941 8.96377 14.0832 8.75611L13.2964 7.9726C13.0728 7.76705 12.732 7.76916 12.5169 7.9726C12.305 8.17064 12.3134 8.53275 12.5211 8.75002L13.2941 9.53143ZM16.4232 8.54682C16.7384 8.54682 16.9791 8.304 16.9791 7.99838V6.90455C16.9791 6.59681 16.7384 6.354 16.4232 6.354C16.1314 6.354 15.879 6.59681 15.879 6.90455V7.99838C15.879 8.304 16.1314 8.54682 16.4232 8.54682ZM18.7909 9.52393C18.9943 9.73697 19.3702 9.7583 19.5833 9.53353L20.3509 8.75424C20.5606 8.53486 20.5531 8.17064 20.353 7.97471C20.1399 7.76705 19.7949 7.75744 19.5777 7.97471L18.7909 8.754C18.5736 8.96377 18.5907 9.32588 18.7909 9.52393ZM20.3197 12.4294H21.4081C21.7212 12.4294 21.962 12.1845 21.962 11.8832C21.962 11.5721 21.7212 11.3368 21.4081 11.3368H20.3197C20.0279 11.3368 19.7734 11.5721 19.7734 11.8832C19.7734 12.1845 20.0279 12.4294 20.3197 12.4294ZM19.5777 15.8129C19.7949 16.0302 20.1378 16.0109 20.353 15.8012C20.551 15.5839 20.5606 15.2239 20.3509 15.0259L19.5875 14.2604C19.3681 14.0527 19.0018 14.0506 18.7866 14.2583C18.5865 14.4617 18.5694 14.8259 18.7887 15.0432L19.5777 15.8129ZM19.1265 11.8832C19.1265 10.3892 17.933 9.2033 16.4253 9.2033C15.5122 9.2033 14.6928 9.66572 14.2271 10.3658C14.469 10.5981 14.6703 10.8399 14.8536 11.1224C16.5031 11.3333 17.7627 12.5204 17.9595 14.1113C18.68 13.5912 19.1265 12.7878 19.1265 11.8832ZM10.1159 19.8252C10.0573 19.9616 10.1138 20.0745 10.2736 20.0745H11.2793L10.5322 21.8717C10.4757 22.0135 10.6409 22.1115 10.7623 21.9868L13.4007 19.4091C13.5275 19.2866 13.471 19.1108 13.2973 19.1108H12.1074L12.6235 18.1456C12.6917 18.023 12.6331 17.9059 12.4967 17.9059H11.1699C11.0004 17.9059 10.9343 17.9644 10.8779 18.0891L10.1159 19.8252Z" fill="black"/>
</svg>
