<svg width="28" height="28" viewBox="0 0 28 28" fill="none" xmlns="http://www.w3.org/2000/svg">
<path d="M14.105 26.2301C20.7369 26.2301 26.2121 20.7549 26.2121 14.123C26.2121 7.50291 20.7273 2.01807 14.0954 2.01807C7.47523 2.01807 2 7.50291 2 14.123C2 20.7549 7.48484 26.2301 14.105 26.2301Z" fill="black"/>
<path d="M10.2966 15.2509C8.59083 15.2509 7.57153 14.1418 7.57153 12.7571C7.57153 11.5381 8.34099 10.6517 9.39239 10.3184C9.6106 8.1971 11.3879 6.53772 13.5305 6.53772C15.1894 6.53772 16.4937 7.4267 17.2236 8.8278C19.1616 8.8278 20.648 10.1935 20.648 12.0409C20.648 13.8125 19.2151 15.2509 17.3527 15.2509H10.2966ZM11.9499 18.7435L12.9596 16.4194C13.0278 16.2554 13.1216 16.1947 13.3325 16.1947H15.0826C15.2584 16.1947 15.3073 16.3236 15.237 16.4855L14.5412 17.8091H16.0747C16.3069 17.8091 16.3655 18.0242 16.209 18.1958L12.7454 21.5966C12.6655 21.6978 12.5813 21.7116 12.511 21.6957C12.4428 21.6434 12.4152 21.5593 12.4641 21.4559L13.4368 19.0599H12.147C11.9382 19.0599 11.8604 18.9118 11.9499 18.7435Z" fill="white"/>
</svg>
