<svg width="28" height="28" viewBox="0 0 28 28" fill="none" xmlns="http://www.w3.org/2000/svg">
<path d="M14.105 26.2301C20.7369 26.2301 26.2121 20.7549 26.2121 14.123C26.2121 7.50291 20.7273 2.01807 14.0954 2.01807C7.47523 2.01807 2 7.50291 2 14.123C2 20.7549 7.48484 26.2301 14.105 26.2301Z" fill="black"/>
<path d="M10.2966 15.736C8.59083 15.736 7.57153 14.6291 7.57153 13.2444C7.57153 12.0467 8.34099 11.1369 9.39239 10.8132C9.6106 8.68226 11.3879 7.0271 13.5305 7.0271C15.1894 7.0271 16.4937 7.9257 17.2236 9.32257C19.1616 9.32257 20.648 10.6787 20.648 12.5281C20.648 14.3094 19.2151 15.736 17.3527 15.736H10.2966ZM10.1792 19.1232C10.013 19.4012 9.67435 19.4928 9.39638 19.3287C9.11841 19.1818 9.02255 18.8239 9.19083 18.5555L10.0147 17.1317C10.1691 16.858 10.5078 16.7717 10.7879 16.9187C11.0658 17.0848 11.1479 17.4331 11.0009 17.7015L10.1792 19.1232ZM11.8636 20.9253C11.7092 21.1895 11.3684 21.297 11.1022 21.1405C10.8125 20.9818 10.7283 20.6314 10.8732 20.3598L12.7447 17.138C12.9087 16.8547 13.2495 16.7759 13.5083 16.9229C13.7959 17.0912 13.8758 17.4319 13.7309 17.7057L11.8636 20.9253ZM15.62 19.1232C15.4634 19.4012 15.1248 19.4928 14.8585 19.3287C14.5688 19.1818 14.4847 18.8239 14.6434 18.5555L15.4747 17.1317C15.6216 16.858 15.9699 16.7717 16.2404 16.9187C16.5259 17.0848 16.61 17.4331 16.4438 17.7015L15.62 19.1232ZM17.3141 20.9253C17.1617 21.1895 16.8092 21.297 16.5526 21.1405C16.2629 20.9818 16.1809 20.6314 16.3353 20.3598L18.1951 17.138C18.3495 16.8547 18.6903 16.7759 18.9704 16.9229C19.2441 17.0912 19.3379 17.4319 19.1834 17.7057L17.3141 20.9253Z" fill="white"/>
</svg>
