<svg width="28" height="28" viewBox="0 0 28 28" fill="none" xmlns="http://www.w3.org/2000/svg">
<path d="M14.105 26.21C20.7369 26.21 26.2121 20.7273 26.2121 14.105C26.2121 7.47312 20.7273 2 14.0954 2C7.47523 2 2 7.47312 2 14.105C2 20.7273 7.48484 26.21 14.105 26.21ZM14.105 23.8255C8.71085 23.8255 4.39412 19.4991 4.39412 14.105C4.39412 8.71085 8.70124 4.38452 14.0954 4.38452C19.4895 4.38452 23.8276 8.71085 23.8276 14.105C23.8276 19.4991 19.4991 23.8255 14.105 23.8255Z" fill="black"/>
<path d="M10.4005 14.105C10.4005 16.1368 12.0849 17.8191 14.105 17.8191C14.618 17.8191 15.098 17.69 15.5108 17.4605C14.4378 19.1302 12.5255 20.109 10.2517 20.109C9.83002 20.109 9.52979 20.4305 9.52979 20.8191C9.52979 21.2056 9.83002 21.5272 10.2517 21.5272C14.4587 21.5272 17.8095 18.5762 17.8095 14.105C17.8095 12.0732 16.1272 10.3909 14.105 10.3909C13.5941 10.3909 13.1119 10.52 12.6992 10.7495C13.7722 9.07976 15.6866 8.101 17.9701 8.101C18.3821 8.101 18.6823 7.77944 18.6823 7.38124C18.6823 6.99475 18.3725 6.6828 17.9701 6.6828C13.7513 6.6828 10.4005 9.63382 10.4005 14.105ZM11.8208 14.105C11.8208 12.8344 12.8366 11.8208 14.105 11.8208C15.3755 11.8208 16.3913 12.8344 16.3913 14.105C16.3913 15.3755 15.3755 16.3892 14.105 16.3892C12.8366 16.3892 11.8208 15.3755 11.8208 14.105ZM12.9701 14.105C12.9701 14.7252 13.4891 15.2398 14.105 15.2398C14.7252 15.2398 15.2398 14.7134 15.2398 14.105C15.2398 13.4848 14.7252 12.9701 14.105 12.9701C13.4891 12.9701 12.9701 13.4848 12.9701 14.105Z" fill="black"/>
</svg>
