<svg width="28" height="30" viewBox="0 0 28 30" fill="none" xmlns="http://www.w3.org/2000/svg">
<path d="M7.28112 22.344L8.00933 21.0625C8.23503 20.6856 8.12323 20.2279 7.74214 20.0022C7.36316 19.7861 6.92558 19.9234 6.69777 20.2991L5.95785 21.6095C5.75558 21.9651 5.84183 22.4132 6.23253 22.6389C6.61152 22.855 7.06714 22.7188 7.28112 22.344ZM12.3905 24.137L14.1595 21.0763C14.3735 20.6898 14.2659 20.2417 13.8944 20.0235C13.5037 19.7978 13.0662 19.9297 12.848 20.3226L11.0693 23.4025C10.8553 23.7676 10.9608 24.2158 11.3515 24.4319C11.723 24.6479 12.1861 24.5139 12.3905 24.137ZM19.5623 22.3909L20.2905 21.1094C20.5162 20.7325 20.4044 20.2747 20.0234 20.049C19.6423 19.833 19.2068 19.9703 18.9769 20.346L18.2391 21.6564C18.0368 22.0119 18.123 22.4601 18.5116 22.6858C18.8927 22.9019 19.3483 22.7561 19.5623 22.3909Z" fill="black"/>
<path d="M5.67866 18.1147H20.2786C24.2004 18.1147 27.1336 15.1335 27.1336 11.4229C27.1336 7.6023 24.0593 4.76847 20.0318 4.76847C18.5923 1.93722 15.9178 0.0233154 12.3666 0.0233154C7.87593 0.0233154 4.23257 3.47823 3.79101 7.83854C1.63828 8.49765 0 10.3712 0 12.8966C0 15.8005 2.12531 18.1147 5.67866 18.1147ZM5.68265 15.9212C3.35624 15.9212 2.19139 14.6348 2.19139 12.9573C2.19139 11.5659 3.01803 10.3614 4.97647 9.84455C5.65053 9.66245 5.87858 9.34935 5.94983 8.66566C6.28264 4.81886 9.05038 2.21682 12.3666 2.21682C14.9231 2.21682 16.9594 3.63619 18.2313 6.19018C18.5156 6.77916 18.8714 6.9847 19.586 6.9847C23.0632 6.9847 24.9422 9.01575 24.9422 11.474C24.9422 13.9485 22.9896 15.9212 20.3536 15.9212H5.68265ZM4.94015 27.4304C5.17429 27.4304 5.33718 27.2165 5.31492 26.9823L5.21179 25.8637L6.13875 26.5091C6.32179 26.6474 6.60187 26.6026 6.71578 26.4058C6.8414 26.211 6.76054 25.9267 6.5189 25.817L5.51109 25.348L6.53062 24.8652C6.76265 24.7555 6.83601 24.4989 6.7296 24.2924C6.6232 24.088 6.31968 24.0487 6.13453 24.1869L5.2139 24.8357L5.32453 23.7233C5.35429 23.4796 5.17429 23.2752 4.94015 23.2752C4.67718 23.2752 4.51429 23.4796 4.53234 23.7233L4.63125 24.8357L3.70312 24.1848C3.52007 24.0465 3.255 24.0784 3.12937 24.2924C3.01547 24.4989 3.07711 24.7576 3.32086 24.8652L4.33289 25.3459L3.31875 25.8212C3.07711 25.9288 3.00375 26.2014 3.12187 26.4058C3.24 26.6219 3.52007 26.657 3.70312 26.5187L4.63125 25.8775L4.54406 26.9823C4.5239 27.2165 4.67718 27.4304 4.94015 27.4304ZM10.5806 29.2234C10.8223 29.2234 10.9776 29.0115 10.9554 28.7753L10.8619 27.6662L11.7771 28.3021C11.9719 28.4404 12.2402 28.3956 12.3659 28.2008C12.4915 28.004 12.4106 27.7197 12.1669 27.6121L11.1612 27.1506L12.1807 26.6699C12.4127 26.5581 12.4861 26.2919 12.3776 26.0854C12.2637 25.881 11.9698 25.8416 11.775 25.9799L10.864 26.6383L10.965 25.5184C10.9948 25.2726 10.8223 25.0682 10.5806 25.0682C10.3177 25.0682 10.1623 25.2726 10.1824 25.5184L10.2717 26.6383L9.3532 25.9778C9.16054 25.8395 8.89546 25.8714 8.76984 26.0854C8.65382 26.2919 8.71757 26.5506 8.96132 26.6699L9.98296 27.1485L8.95921 27.6238C8.71757 27.7314 8.64421 27.9944 8.76234 28.2008C8.88046 28.4148 9.16054 28.45 9.3532 28.3117L10.2717 27.6705L10.192 28.7753C10.174 29.0115 10.3177 29.2234 10.5806 29.2234ZM17.2699 27.4773C17.5041 27.4773 17.6691 27.2633 17.6468 27.0196L17.5437 25.9084L18.4685 26.556C18.6516 26.6943 18.922 26.6495 19.0476 26.4526C19.1712 26.2579 19.0924 25.9715 18.8487 25.8639L17.8409 25.3949L18.8604 24.9121C19.0945 24.8024 19.1679 24.534 19.0594 24.3393C18.9434 24.1349 18.6494 24.0955 18.4664 24.2338L17.5458 24.8826L17.6564 23.7702C17.6862 23.5147 17.5041 23.3125 17.2699 23.3125C17.0091 23.3125 16.8441 23.5147 16.8642 23.7702L16.961 24.8826L16.035 24.2296C15.8498 24.0934 15.5848 24.1253 15.4591 24.3393C15.3452 24.534 15.409 24.8045 15.6506 24.9121L16.6627 25.3928L15.6485 25.866C15.409 25.9757 15.3356 26.2462 15.4537 26.4526C15.5698 26.6591 15.8498 26.6943 16.035 26.556L16.961 25.9244L16.8738 27.0196C16.8537 27.2633 17.0091 27.4773 17.2699 27.4773Z" fill="black"/>
</svg>
