<svg width="28" height="28" viewBox="0 0 28 28" fill="none" xmlns="http://www.w3.org/2000/svg">
<path d="M14.105 26.2301C20.7369 26.2301 26.2121 20.7549 26.2121 14.123C26.2121 7.50291 20.7273 2.01807 14.0954 2.01807C7.47523 2.01807 2 7.50291 2 14.123C2 20.7549 7.48484 26.2301 14.105 26.2301Z" fill="black"/>
<path d="M10.2966 15.8248C8.59083 15.8248 7.57153 14.7137 7.57153 13.3332C7.57153 12.1313 8.34099 11.2257 9.39239 10.9116C9.6106 8.76896 11.3879 7.12341 13.5305 7.12341C15.1894 7.12341 16.4937 8.01029 17.2236 9.42099C19.1616 9.42099 20.648 10.7675 20.648 12.6148C20.648 14.4057 19.2151 15.8248 17.3527 15.8248H10.2966ZM9.93309 20.4284C9.69778 20.4284 9.56794 20.24 9.58599 20.0239L9.62208 19.3365L9.04223 19.7499C8.86763 19.8584 8.61309 19.8233 8.52052 19.6294C8.43544 19.4581 8.47786 19.2228 8.70895 19.1195L9.32489 18.822L8.71106 18.5171C8.48747 18.4095 8.43544 18.1667 8.53974 18.0092C8.6302 17.8229 8.87723 17.7973 9.04223 17.9037L9.62208 18.3193L9.57427 17.6202C9.55833 17.4083 9.69778 17.2135 9.93309 17.2135C10.1375 17.2135 10.2865 17.4083 10.2664 17.6298L10.2186 18.3193L10.7855 17.908C10.9484 17.7973 11.2126 17.8325 11.303 18.0092C11.4094 18.1955 11.3478 18.4116 11.1263 18.5075L10.5008 18.8241L11.1242 19.1173C11.3574 19.2111 11.4286 19.4773 11.2934 19.6369C11.1933 19.8137 10.9526 19.8584 10.7855 19.7499L10.2186 19.3344L10.2664 20.0239C10.2865 20.24 10.1375 20.4284 9.93309 20.4284ZM13.8605 20.4284C13.6369 20.4284 13.4879 20.24 13.5059 20.0239L13.5495 19.3365L12.9697 19.7499C12.8047 19.8584 12.5501 19.8233 12.4597 19.6294C12.3629 19.4581 12.4074 19.2228 12.6364 19.1195L13.2641 18.822L12.6385 18.5171C12.417 18.4095 12.3629 18.1667 12.4789 18.0092C12.5673 17.8229 12.8143 17.7973 12.9697 17.9037L13.5495 18.3193L13.4963 17.6202C13.4783 17.4083 13.6369 17.2135 13.8605 17.2135C14.0745 17.2135 14.214 17.4083 14.1938 17.6298L14.1481 18.3193L14.713 17.908C14.8855 17.7973 15.1517 17.8325 15.2401 18.0092C15.3369 18.1955 15.2752 18.4116 15.0537 18.5075L14.4378 18.8241L15.0516 19.1173C15.2848 19.2111 15.3561 19.4773 15.2305 19.6369C15.1325 19.8137 14.8801 19.8584 14.713 19.7499L14.1481 19.3344L14.1938 20.0239C14.214 20.24 14.0745 20.4284 13.8605 20.4284ZM17.788 20.4284C17.5644 20.4284 17.4228 20.24 17.443 20.0239L17.4887 19.3365L16.8971 19.7499C16.7321 19.8584 16.4797 19.8233 16.3871 19.6294C16.302 19.4581 16.3444 19.2228 16.5638 19.1195L17.1936 18.822L16.5659 18.5171C16.3444 18.4095 16.302 18.1667 16.3967 18.0092C16.4968 17.8229 16.7417 17.7973 16.8971 17.9037L17.4887 18.3193L17.4334 17.6202C17.4132 17.4083 17.5644 17.2135 17.788 17.2135C18.0041 17.2135 18.1552 17.4083 18.133 17.6298L18.0755 18.3193L18.65 17.908C18.8129 17.7973 19.0695 17.8325 19.1717 18.0092C19.2643 18.1955 19.2048 18.4116 18.9908 18.5075L18.3673 18.8241L18.9887 19.1173C19.2144 19.2111 19.2739 19.4773 19.16 19.6369C19.0599 19.8137 18.8096 19.8563 18.65 19.7499L18.0755 19.3344L18.133 20.0239C18.1552 20.24 18.0041 20.4284 17.788 20.4284Z" fill="white"/>
</svg>
