<svg width="28" height="28" viewBox="0 0 28 28" fill="none" xmlns="http://www.w3.org/2000/svg">
<path d="M14.105 26.21C20.7369 26.21 26.2121 20.7273 26.2121 14.105C26.2121 7.47312 20.7273 2 14.0954 2C7.47523 2 2 7.47312 2 14.105C2 20.7273 7.48484 26.21 14.105 26.21ZM14.105 23.8255C8.71085 23.8255 4.39412 19.4991 4.39412 14.105C4.39412 8.71085 8.70124 4.38452 14.0954 4.38452C19.4895 4.38452 23.8276 8.71085 23.8276 14.105C23.8276 19.4991 19.4991 23.8255 14.105 23.8255Z" fill="black"/>
<path d="M14.0858 21.3174C14.4936 21.3174 14.7662 21.0289 14.7662 20.6094V19.4152L15.6369 19.9262C15.9905 20.1411 16.3611 20.0813 16.5601 19.7544C16.7506 19.4466 16.6398 19.0707 16.3032 18.8652L14.7662 17.9902V17.2058L14.6351 15.0601L16.4612 16.2378L17.1134 16.629L17.1282 18.4058C17.1324 18.7934 17.3858 19.0768 17.7446 19.0662C18.1344 19.0557 18.3709 18.7726 18.3498 18.3636L18.3488 17.3244L19.3873 17.9396C19.7387 18.1515 20.1252 18.0631 20.3307 17.7139C20.5309 17.3551 20.4287 16.9686 20.0677 16.7609L19.0313 16.1649L19.9009 15.6655C20.266 15.4693 20.4022 15.1243 20.236 14.7964C20.0464 14.4706 19.6651 14.3802 19.3243 14.5677L17.7959 15.4503L17.1244 15.0474L15.1749 14.1008L17.1244 13.1424L17.7959 12.7395L19.3243 13.6339C19.6651 13.8118 20.056 13.7288 20.236 13.4127C20.4022 13.0677 20.266 12.7323 19.9009 12.5265L19.0313 12.0249L20.0677 11.4406C20.4287 11.2288 20.5309 10.8561 20.3328 10.4898C20.1444 10.1427 19.7387 10.0522 19.3873 10.2503L18.3488 10.8559L18.3498 9.8401C18.373 9.4365 18.1365 9.13205 17.7542 9.12572C17.3858 9.11518 17.1324 9.40604 17.1282 9.7958L17.1134 11.563L16.4516 11.9542L14.6351 13.134L14.7662 10.9937V10.2113L16.3032 9.33432C16.6398 9.12877 16.7506 8.75283 16.5601 8.44721C16.3653 8.12025 15.9905 8.05088 15.6369 8.27541L14.7662 8.78424V7.5901C14.7662 7.16096 14.4936 6.88416 14.0858 6.88416C13.6993 6.88416 13.4171 7.17057 13.4171 7.5901V8.79385L12.5347 8.27541C12.1714 8.06049 11.8179 8.12025 11.6114 8.44721C11.4305 8.75072 11.5414 9.12666 11.88 9.32471L13.4171 10.2113V10.9937L13.5481 13.134L11.7413 11.9638L11.0698 11.563L11.0646 9.7958C11.0604 9.40604 10.7974 9.11518 10.429 9.12572C10.0489 9.13205 9.81237 9.42689 9.83347 9.83588L9.8344 10.8559L8.79589 10.2503C8.43495 10.0426 8.03886 10.1523 7.85042 10.4898C7.64276 10.8444 7.75456 11.2309 8.11128 11.4406L9.15191 12.0249L8.28237 12.5265C7.9151 12.7227 7.77893 13.0559 7.94721 13.4148C8.12721 13.7288 8.51604 13.8214 8.86854 13.6339L10.3873 12.7491L11.0588 13.1424L13.0084 14.1008L11.0588 15.0474L10.3873 15.4503L8.86854 14.5677C8.51604 14.378 8.12089 14.461 7.95682 14.7793C7.78854 15.1243 7.9076 15.4693 8.28237 15.6655L9.15191 16.1649L8.1155 16.7609C7.75456 16.9686 7.65026 17.3572 7.85042 17.7139C8.04847 18.0631 8.43495 18.1515 8.79589 17.9396L9.8344 17.3436L9.83347 18.3615C9.81027 18.7726 10.0467 19.0578 10.429 19.0662C10.7974 19.0768 11.0604 18.7934 11.0646 18.4058L11.0698 16.6269L11.7413 16.2357L13.5481 15.058L13.4171 17.2058V17.9902L11.88 18.8652C11.5435 19.0707 11.4326 19.4466 11.6114 19.7544C11.8179 20.0813 12.1714 20.1294 12.5347 19.9262L13.4171 19.4056V20.6094C13.4171 21.0193 13.6993 21.3174 14.0858 21.3174Z" fill="black"/>
</svg>
