<svg width="28" height="28" viewBox="0 0 28 28" fill="none" xmlns="http://www.w3.org/2000/svg">
<path d="M14.105 26.2301C20.7369 26.2301 26.2121 20.7549 26.2121 14.123C26.2121 7.50291 20.7273 2.01807 14.0954 2.01807C7.47523 2.01807 2 7.50291 2 14.123C2 20.7549 7.48484 26.2301 14.105 26.2301Z" fill="black"/>
<path d="M11.0326 19.2992C9.54551 19.2992 8.52621 18.2361 8.52621 16.8535C8.52621 15.5867 9.53004 14.5266 10.8139 14.4556C11.0385 13.2526 12.0718 12.3723 13.3142 12.3723C13.5861 12.3723 13.8216 12.4032 14.0935 12.4843C14.6443 11.6691 15.5649 11.165 16.606 11.165C18.2213 11.165 19.5296 12.4395 19.655 14.0101C20.8644 14.2815 21.7564 15.3554 21.7564 16.6255C21.7564 18.1348 20.6145 19.2992 18.9537 19.2992H11.0326ZM6.07886 13.4042C6.07886 12.132 6.96129 11.0581 8.18988 10.7846C8.30566 9.20655 9.64277 7.94373 11.2506 7.94373C12.2745 7.94373 13.175 8.43522 13.748 9.27592C14.0208 9.1885 14.2723 9.12452 14.5665 9.12452C15.6186 9.12452 16.3248 9.67788 16.5301 10.3065C15.4796 10.3217 14.4692 10.729 13.7506 11.5149C13.6098 11.4957 13.4551 11.4861 13.3142 11.4861C11.8588 11.4861 10.6199 12.3866 10.1162 13.6834C9.02215 13.9707 8.13786 14.7983 7.80317 15.8698C6.69129 15.422 6.07886 14.4894 6.07886 13.4042Z" fill="white"/>
</svg>
