<svg width="35" height="28" viewBox="0 0 35 28" fill="none" xmlns="http://www.w3.org/2000/svg">
<path d="M22.335 9.36624C24.5105 9.36624 26.2254 11.0812 26.2254 13.2662C26.2254 15.0819 25.0207 16.6122 23.3437 17.0605L23.3555 19.0642C26.1208 18.5657 28.1873 16.1734 28.1873 13.2768C28.1873 10.0162 25.5914 7.40312 22.3371 7.40312C19.0744 7.40312 16.4688 10.0162 16.4688 13.2768C16.4688 13.4861 16.489 13.6858 16.5155 13.8695L18.5402 13.963C18.4744 13.7364 18.4425 13.5004 18.4425 13.2662C18.4425 11.0812 20.1574 9.36624 22.335 9.36624ZM15.3757 7.81843C15.7962 8.2389 16.4817 8.2314 16.8787 7.82265C17.2779 7.4139 17.2833 6.7518 16.8745 6.33883L15.15 4.60586C14.7455 4.19711 14.0707 4.19922 13.664 4.60586C13.2553 5.01461 13.2499 5.69054 13.6683 6.09929L15.3757 7.81843ZM22.3308 5.56C22.9162 5.56 23.3878 5.06289 23.3878 4.49664V2.06125C23.3878 1.48328 22.9162 1 22.3308 1C21.7453 1 21.2737 1.48328 21.2737 2.06125V4.49664C21.2737 5.06289 21.7453 5.56 22.3308 5.56ZM27.7849 7.82476C28.1819 8.23351 28.8696 8.2389 29.2879 7.82054L31.0071 6.10351C31.4179 5.69476 31.4179 5.01672 31.0092 4.61008C30.6026 4.20133 29.9362 4.20344 29.5254 4.6143L27.787 6.33883C27.3762 6.74547 27.3858 7.41812 27.7849 7.82476ZM31.095 14.3275H33.5325C34.1104 14.3275 34.5841 13.858 34.5841 13.2747C34.5841 12.6988 34.1104 12.2155 33.5325 12.2155H31.095C30.5287 12.2155 30.0337 12.6988 30.0337 13.2747C30.0337 13.858 30.5287 14.3275 31.095 14.3275ZM29.5233 21.9564C29.932 22.3651 30.5983 22.3598 31.0071 21.951C31.4158 21.5423 31.4095 20.8684 31.0029 20.4672L29.2687 18.7438C28.8621 18.3447 28.1894 18.3372 27.7807 18.7438C27.374 19.1526 27.3783 19.8285 27.787 20.2373L29.5233 21.9564Z" fill="black"/>
<path d="M5.14382 25.194H17.8762C21.3473 25.194 24.0515 22.5559 24.0515 19.1605C24.0515 15.7823 21.3534 13.2294 17.7935 13.172C16.4055 10.5888 13.9458 9.0459 10.9816 9.0459C7.04999 9.0459 3.77226 12.0194 3.32226 15.9255C1.33477 16.5517 0 18.2835 0 20.4606C0 23.2112 2.08711 25.194 5.14382 25.194ZM5.12648 23.0301C3.18491 23.0301 2.16608 21.9323 2.16608 20.5054C2.16608 19.2843 2.89475 18.243 4.5921 17.7847C5.1778 17.6378 5.38241 17.3694 5.44194 16.7549C5.7621 13.4483 8.11944 11.2056 10.9816 11.2056C13.1897 11.2056 14.9339 12.4363 16.0301 14.597C16.2984 15.1115 16.586 15.2936 17.2048 15.2936C20.2441 15.2936 21.878 17.0711 21.878 19.217C21.878 21.3376 20.1726 23.0301 17.8819 23.0301H5.12648Z" fill="black"/>
</svg>
