<svg width="31" height="28" viewBox="0 0 31 28" fill="none" xmlns="http://www.w3.org/2000/svg">
<path d="M21.3738 20.8467C21.3738 17.3685 18.5048 14.4803 15.0234 14.4803C11.5303 14.4803 8.66133 17.3685 8.66133 20.8467C8.66133 21.6093 8.80969 22.341 9.0893 22.9938H20.9459C21.2255 22.341 21.3738 21.6093 21.3738 20.8467ZM2.62101 21.4598L5.33719 21.4619C5.98242 21.4619 6.47742 20.9957 6.46781 20.422C6.4582 19.8461 5.97281 19.3842 5.33719 19.3842H2.62101C1.97578 19.3842 1.5 19.8461 1.5 20.422C1.5 20.9957 1.97789 21.4598 2.62101 21.4598ZM7.43415 14.755C7.88344 15.2118 8.5711 15.2278 8.96813 14.819C9.36726 14.4124 9.36516 13.7343 8.90836 13.285L6.98531 11.3661C6.52429 10.9051 5.86969 10.9126 5.46094 11.3118C5.05219 11.7088 5.04258 12.3772 5.5132 12.8382L7.43415 14.755ZM21.067 14.819C21.4737 15.2181 22.1517 15.2118 22.601 14.755L24.522 12.8382C24.9926 12.3772 24.9734 11.7184 24.5742 11.3118C24.1772 10.903 23.5109 10.9051 23.0498 11.3661L21.1268 13.285C20.67 13.7343 20.6583 14.422 21.067 14.819ZM24.698 21.4598H27.4141C28.0615 21.4598 28.5352 20.9957 28.5352 20.422C28.5352 19.8461 28.0615 19.3842 27.4141 19.3842H24.698C24.0645 19.3842 23.5577 19.8461 23.5673 20.422C23.577 20.9957 24.0666 21.4598 24.698 21.4598Z" fill="black"/>
<path d="M1.16296 26.6996H28.8722C29.5073 26.6996 30.0352 26.1934 30.0352 25.5934C30.0352 24.9849 29.5095 24.4871 28.8722 24.4871H1.16296C0.52781 24.4871 0 24.9913 0 25.5934C0 26.187 0.529919 26.6996 1.16296 26.6996ZM15.0234 11.6869C15.5876 11.6869 16.0591 11.1919 16.0591 10.5756L16.057 6.41093L15.889 4.56757L16.7266 5.59319L18.0734 6.99078C18.2723 7.19491 18.5182 7.33413 18.7978 7.33413C19.3214 7.33413 19.7034 6.95749 19.7034 6.45195C19.7034 6.16578 19.5834 5.93609 19.3526 5.71906L15.7427 2.33844C15.4755 2.09258 15.2723 2 15.0234 2C14.7628 2 14.5617 2.09258 14.2924 2.33844L10.6826 5.71906C10.4517 5.93609 10.3317 6.16578 10.3317 6.45195C10.3317 6.95749 10.7138 7.33413 11.2373 7.33413C11.517 7.33413 11.7628 7.19491 11.9618 6.99078L13.4088 5.49499L14.1462 4.56757L13.9781 6.41093L13.976 10.5756C13.976 11.1919 14.4476 11.6869 15.0234 11.6869Z" fill="black"/>
</svg>
