<svg width="28" height="28" viewBox="0 0 28 28" fill="none" xmlns="http://www.w3.org/2000/svg">
<path d="M14.105 26.21C20.7369 26.21 26.2121 20.7273 26.2121 14.105C26.2121 7.47312 20.7273 2 14.0954 2C7.47523 2 2 7.47312 2 14.105C2 20.7273 7.48484 26.21 14.105 26.21ZM14.105 23.8255C8.71085 23.8255 4.39412 19.4991 4.39412 14.105C4.39412 8.71085 8.70124 4.38452 14.0954 4.38452C19.4895 4.38452 23.8276 8.71085 23.8276 14.105C23.8276 19.4991 19.4991 23.8255 14.105 23.8255Z" fill="black"/>
<path d="M10.437 15.1934H17.2379C19.029 15.1934 20.4045 13.8104 20.4045 12.0908C20.4045 10.3147 18.9755 9.016 17.1087 9.016C16.4087 7.66272 15.1459 6.80139 13.554 6.80139C11.4868 6.80139 9.78076 8.40123 9.56467 10.4492C8.55686 10.7591 7.81506 11.6253 7.81506 12.7911C7.81506 14.1259 8.79076 15.1934 10.437 15.1934ZM12.0434 18.5415C11.9539 18.7152 12.0317 18.8516 12.2267 18.8516H13.4687L12.5279 21.1508C12.481 21.252 12.5066 21.3437 12.5748 21.3767C12.6451 21.4023 12.7271 21.3809 12.807 21.2989L16.1176 18.0256C16.272 17.8658 16.2134 17.6527 15.995 17.6527H14.521L15.1892 16.3728C15.2595 16.2205 15.2126 16.0841 15.039 16.0841H13.3665C13.1694 16.0841 13.0777 16.1544 13.0095 16.3067L12.0434 18.5415Z" fill="black"/>
</svg>
